<svg width="200" height="200" viewBox="0 0 200 200" fill="none" xmlns="http://www.w3.org/2000/svg">
<mask id="path-1-outside-1_1347_9541" maskUnits="userSpaceOnUse" x="16.915" y="13" width="160" height="175" fill="black">
<rect fill="white" x="16.915" y="13" width="160" height="175"/>
<path d="M56.1943 26.4043C108.844 9.61919 144.646 30.8798 147.806 33.1182C148.131 33.3486 148.355 33.6549 148.491 34.0205C169.583 51.2016 174.098 96.0118 168.499 119.827C170.918 130.826 134.792 159.16 100.109 172.303C48.8759 191.717 13.4037 178.046 75.8682 142.87C76.0974 142.741 76.327 142.614 76.5557 142.485C70.0057 140.291 64.4851 136.531 60.6953 131.588C60.6953 131.588 60.6956 131.583 60.6914 131.583C57.583 127.525 55.6392 122.668 55.2754 117.233C53.6119 117.016 52.0374 116.556 50.5684 115.945C50.24 115.814 49.9214 115.675 49.6143 115.528C46.0565 113.825 44.2725 112.104 44.2725 112.104C44.2725 112.104 44.2773 112.104 44.2861 112.106C44.2829 112.104 44.2796 112.101 44.2764 112.099C41.1204 109.525 42.3478 104.436 46.6865 102.039L64.4668 92.2266L64.4619 92.2217C65.6106 91.5882 66.7841 91.1895 67.9258 90.999V90.9141C67.9301 89.9899 67.9473 87.0469 67.9473 85.7168C67.9473 84.4608 68.0227 83.2326 68.166 82.0361C63.8864 73.976 58.2682 66.0249 50.8203 57.4951C49.8388 57.2081 48.9581 56.9962 48.2227 56.9961C42.4154 56.9961 31.4484 63.8911 30.9219 58.8555C30.3955 53.8195 31.9756 36.4752 56.1943 26.4043ZM36.5361 66.7197C38.0092 64.2218 42.0772 62.872 43.8066 63.8916C45.5359 64.9114 43.6644 66.6448 42.1914 69.1426C40.7183 71.6406 38.6698 73.7981 36.9404 72.7783C35.2111 71.7585 35.0633 69.2176 36.5361 66.7197ZM24.1182 64.5693C24.6795 62.8883 26.5944 61.7466 27.6064 61.9365C28.6185 62.1265 28.878 63.1075 28.6035 64.5693C28.329 66.0312 26.2523 68.3971 25.2402 68.207C24.2283 68.0169 23.5569 66.2504 24.1182 64.5693Z"/>
</mask>
<path d="M56.1943 26.4043C108.844 9.61919 144.646 30.8798 147.806 33.1182C148.131 33.3486 148.355 33.6549 148.491 34.0205C169.583 51.2016 174.098 96.0118 168.499 119.827C170.918 130.826 134.792 159.16 100.109 172.303C48.8759 191.717 13.4037 178.046 75.8682 142.87C76.0974 142.741 76.327 142.614 76.5557 142.485C70.0057 140.291 64.4851 136.531 60.6953 131.588C60.6953 131.588 60.6956 131.583 60.6914 131.583C57.583 127.525 55.6392 122.668 55.2754 117.233C53.6119 117.016 52.0374 116.556 50.5684 115.945C50.24 115.814 49.9214 115.675 49.6143 115.528C46.0565 113.825 44.2725 112.104 44.2725 112.104C44.2725 112.104 44.2773 112.104 44.2861 112.106C44.2829 112.104 44.2796 112.101 44.2764 112.099C41.1204 109.525 42.3478 104.436 46.6865 102.039L64.4668 92.2266L64.4619 92.2217C65.6106 91.5882 66.7841 91.1895 67.9258 90.999V90.9141C67.9301 89.9899 67.9473 87.0469 67.9473 85.7168C67.9473 84.4608 68.0227 83.2326 68.166 82.0361C63.8864 73.976 58.2682 66.0249 50.8203 57.4951C49.8388 57.2081 48.9581 56.9962 48.2227 56.9961C42.4154 56.9961 31.4484 63.8911 30.9219 58.8555C30.3955 53.8195 31.9756 36.4752 56.1943 26.4043ZM36.5361 66.7197C38.0092 64.2218 42.0772 62.872 43.8066 63.8916C45.5359 64.9114 43.6644 66.6448 42.1914 69.1426C40.7183 71.6406 38.6698 73.7981 36.9404 72.7783C35.2111 71.7585 35.0633 69.2176 36.5361 66.7197ZM24.1182 64.5693C24.6795 62.8883 26.5944 61.7466 27.6064 61.9365C28.6185 62.1265 28.878 63.1075 28.6035 64.5693C28.329 66.0312 26.2523 68.3971 25.2402 68.207C24.2283 68.0169 23.5569 66.2504 24.1182 64.5693Z" fill="#14465D"/>
<path d="M56.1943 26.4043L54.3719 20.6878C54.209 20.7397 54.0484 20.7986 53.8906 20.8642L56.1943 26.4043ZM147.806 33.1182L151.274 28.2225L151.274 28.2224L147.806 33.1182ZM148.491 34.0205L142.868 36.1139C143.241 37.1147 143.874 37.998 144.702 38.6725L148.491 34.0205ZM168.499 119.827L162.658 118.454C162.453 119.329 162.446 120.239 162.639 121.116L168.499 119.827ZM100.109 172.303L102.235 177.913H102.235L100.109 172.303ZM75.8682 142.87L72.9241 137.642H72.9241L75.8682 142.87ZM76.5557 142.485L79.4894 147.719C81.5599 146.559 82.7516 144.287 82.5293 141.923C82.3069 139.56 80.7123 137.55 78.4617 136.796L76.5557 142.485ZM60.6953 131.588L54.7078 131.202C54.6143 132.651 55.0498 134.086 55.9336 135.238L60.6953 131.588ZM60.6914 131.583L55.9281 135.231C57.0522 136.699 58.7899 137.566 60.6384 137.583L60.6914 131.583ZM55.2754 117.233L61.262 116.833C61.0709 113.977 58.8895 111.654 56.0515 111.284L55.2754 117.233ZM50.5684 115.945L52.8723 110.405C52.8469 110.395 52.8215 110.384 52.7961 110.374L50.5684 115.945ZM49.6143 115.528L52.2069 110.117L52.2058 110.117L49.6143 115.528ZM44.2725 112.104L45.1653 106.17C42.5836 105.782 40.0471 107.107 38.8918 109.449C37.7366 111.79 38.2279 114.609 40.1069 116.422L44.2725 112.104ZM44.2861 112.106L42.8334 117.928C45.5594 118.608 48.3924 117.306 49.6507 114.794C50.9091 112.282 50.2557 109.233 48.0785 107.457L44.2861 112.106ZM44.2764 112.099L48.0706 107.451L48.068 107.449L44.2764 112.099ZM46.6865 102.039L43.7874 96.7859L43.7852 96.7872L46.6865 102.039ZM64.4668 92.2266L67.3659 97.4797C69.0169 96.5686 70.1434 94.9343 70.4076 93.0671C70.6718 91.2 70.0428 89.3173 68.7094 87.9839L64.4668 92.2266ZM64.4619 92.2217L61.5646 86.9676C59.913 87.8783 58.7858 89.5127 58.5212 91.3801C58.2567 93.2475 58.8856 95.1307 60.2193 96.4643L64.4619 92.2217ZM67.9258 90.999L68.9134 96.9172C71.806 96.4345 73.9258 93.9316 73.9258 90.999H67.9258ZM67.9258 90.9141L61.9258 90.8863C61.9258 90.8956 61.9258 90.9048 61.9258 90.9141H67.9258ZM67.9473 85.7168L61.9473 85.7168V85.7168H67.9473ZM68.166 82.0361L74.1235 82.7496C74.269 81.5342 74.0394 80.3035 73.4654 79.2224L68.166 82.0361ZM50.8203 57.4951L55.3399 53.5488C54.587 52.6865 53.6031 52.0576 52.5044 51.7363L50.8203 57.4951ZM48.2227 56.9961L48.2232 50.9961H48.2227V56.9961ZM30.9219 58.8555L24.9544 59.4793L24.9544 59.4794L30.9219 58.8555ZM36.5361 66.7197L31.3678 63.672L31.3677 63.6722L36.5361 66.7197ZM43.8066 63.8916L46.8544 58.7233L46.8538 58.723L43.8066 63.8916ZM42.1914 69.1426L37.0232 66.0947L37.0231 66.0948L42.1914 69.1426ZM36.9404 72.7783L33.8926 77.9466L33.8927 77.9466L36.9404 72.7783ZM24.1182 64.5693L18.427 62.669L18.4269 62.6693L24.1182 64.5693ZM27.6064 61.9365L28.7137 56.0396L28.7131 56.0395L27.6064 61.9365ZM28.6035 64.5693L34.5005 65.6766L34.5005 65.6765L28.6035 64.5693ZM25.2402 68.207L24.1322 74.1038L24.133 74.104L25.2402 68.207ZM56.1943 26.4043L58.0168 32.1208C108.375 16.0662 142.233 36.5231 144.337 38.0139L147.806 33.1182L151.274 28.2224C147.06 25.2364 109.313 3.17216 54.3719 20.6878L56.1943 26.4043ZM147.806 33.1182L144.337 38.0139C143.611 37.4994 143.122 36.7965 142.868 36.1139L148.491 34.0205L154.114 31.9271C153.588 30.5133 152.651 29.1979 151.274 28.2225L147.806 33.1182ZM148.491 34.0205L144.702 38.6725C153.603 45.9232 159.635 59.7115 162.607 75.5431C165.547 91.2015 165.234 107.499 162.658 118.454L168.499 119.827L174.34 121.2C177.363 108.34 177.592 90.3247 174.401 73.3289C171.243 56.5063 164.471 39.2989 152.281 29.3686L148.491 34.0205ZM168.499 119.827L162.639 121.116C162.554 120.73 162.761 120.99 162.195 122.263C161.662 123.462 160.659 125.063 159.058 127.031C155.865 130.953 150.879 135.619 144.547 140.515C131.908 150.287 114.72 160.35 97.9833 166.692L100.109 172.303L102.235 177.913C120.181 171.113 138.398 160.438 151.888 150.008C158.62 144.802 164.38 139.501 168.364 134.606C170.351 132.165 172.045 129.646 173.16 127.139C174.242 124.705 175.049 121.674 174.359 118.538L168.499 119.827ZM100.109 172.303L97.9833 166.692C85.5722 171.395 74.2787 174.028 65.3615 174.867C60.8989 175.287 57.167 175.244 54.2594 174.851C51.2581 174.444 49.6039 173.727 48.8638 173.193C48.5422 172.961 48.5062 172.845 48.5398 172.909C48.5866 172.997 48.5728 173.053 48.576 172.955C48.5874 172.605 48.8504 171.247 50.8158 168.747C54.7231 163.777 63.3677 156.796 78.8123 148.098L75.8682 142.87L72.9241 137.642C57.1364 146.533 46.7908 154.451 41.3821 161.331C38.6895 164.756 36.7129 168.56 36.5824 172.564C36.4374 177.011 38.5915 180.578 41.8403 182.923C44.8323 185.082 48.6867 186.206 52.6496 186.742C56.7062 187.291 61.3939 187.293 66.4855 186.814C76.6767 185.856 89.0298 182.917 102.235 177.913L100.109 172.303ZM75.8682 142.87L78.8123 148.098C79.0424 147.969 79.2253 147.867 79.4894 147.719L76.5557 142.485L73.6219 137.251C73.4287 137.36 73.1525 137.513 72.9241 137.642L75.8682 142.87ZM76.5557 142.485L78.4617 136.796C72.8895 134.929 68.4254 131.809 65.4571 127.937L60.6953 131.588L55.9336 135.238C60.5449 141.253 67.1218 145.653 74.6497 148.175L76.5557 142.485ZM60.6953 131.588C66.6829 131.974 66.683 131.971 66.6832 131.969C66.6833 131.968 66.6834 131.966 66.6835 131.964C66.6837 131.96 66.6839 131.957 66.6842 131.954C66.6846 131.947 66.685 131.94 66.6854 131.933C66.6862 131.919 66.687 131.905 66.6877 131.89C66.6892 131.861 66.6905 131.831 66.6915 131.8C66.6937 131.739 66.6951 131.672 66.6953 131.601C66.6956 131.462 66.6911 131.294 66.6759 131.106C66.6483 130.763 66.573 130.183 66.3232 129.506C66.0723 128.827 65.5506 127.802 64.4838 126.932C63.3323 125.994 61.981 125.594 60.7444 125.583L60.6914 131.583L60.6384 137.583C59.4039 137.572 58.0542 137.173 56.9038 136.235C55.8382 135.367 55.3172 134.343 55.0667 133.665C54.8174 132.99 54.7422 132.411 54.7146 132.069C54.6995 131.88 54.695 131.713 54.6953 131.574C54.6955 131.503 54.6969 131.437 54.6991 131.375C54.7002 131.344 54.7015 131.314 54.7029 131.286C54.7037 131.271 54.7044 131.257 54.7052 131.243C54.7056 131.236 54.706 131.229 54.7065 131.222C54.7067 131.219 54.7069 131.215 54.7071 131.212C54.7072 131.21 54.7074 131.208 54.7074 131.207C54.7076 131.204 54.7078 131.202 60.6953 131.588ZM60.6914 131.583L65.4547 127.935C63.0358 124.777 61.5437 121.041 61.262 116.833L55.2754 117.233L49.2888 117.634C49.7346 124.295 52.1302 130.273 55.9281 135.231L60.6914 131.583ZM55.2754 117.233L56.0515 111.284C54.9866 111.145 53.9259 110.843 52.8723 110.405L50.5684 115.945L48.2644 121.485C50.1489 122.269 52.2371 122.888 54.4993 123.183L55.2754 117.233ZM50.5684 115.945L52.7961 110.374C52.5754 110.286 52.3799 110.2 52.2069 110.117L49.6143 115.528L47.0217 120.939C47.4629 121.151 47.9046 121.342 48.3406 121.516L50.5684 115.945ZM49.6143 115.528L52.2058 110.117C50.7838 109.436 49.7549 108.77 49.1219 108.313C48.8057 108.084 48.59 107.909 48.4753 107.813C48.418 107.764 48.3862 107.736 48.3799 107.73C48.3767 107.727 48.38 107.73 48.3897 107.739C48.3945 107.744 48.401 107.75 48.409 107.757C48.4131 107.761 48.4175 107.765 48.4223 107.77C48.4248 107.772 48.4273 107.775 48.4299 107.777C48.4312 107.779 48.4325 107.78 48.4339 107.781C48.4346 107.782 48.4356 107.783 48.436 107.783C48.437 107.784 48.4381 107.785 44.2725 112.104C40.1069 116.422 40.1079 116.423 40.109 116.424C40.1094 116.424 40.1104 116.425 40.1112 116.426C40.1127 116.427 40.1141 116.429 40.1157 116.43C40.1187 116.433 40.1219 116.436 40.1252 116.439C40.1318 116.446 40.1388 116.452 40.1463 116.46C40.1614 116.474 40.1783 116.49 40.197 116.507C40.2346 116.542 40.2797 116.584 40.3323 116.632C40.4374 116.727 40.5728 116.846 40.7383 116.985C41.0693 117.265 41.522 117.626 42.0966 118.041C43.245 118.871 44.887 119.917 47.0227 120.94L49.6143 115.528ZM44.2725 112.104C43.3796 118.037 43.3791 118.037 43.3786 118.037C43.3784 118.037 43.3779 118.036 43.3776 118.036C43.3769 118.036 43.3762 118.036 43.3756 118.036C43.3742 118.036 43.3729 118.036 43.3715 118.035C43.3688 118.035 43.3661 118.035 43.3634 118.034C43.3579 118.033 43.3525 118.033 43.347 118.032C43.3361 118.03 43.3252 118.028 43.3142 118.027C43.2923 118.023 43.2703 118.019 43.2481 118.015C43.2037 118.008 43.1587 117.999 43.1132 117.99C43.0223 117.972 42.9289 117.952 42.8334 117.928L44.2861 112.106L45.7389 106.285C45.6345 106.259 45.5343 106.237 45.4387 106.218C45.3909 106.208 45.3442 106.2 45.2987 106.192C45.2759 106.188 45.2534 106.184 45.2311 106.181C45.22 106.179 45.209 106.177 45.198 106.175C45.1925 106.174 45.187 106.174 45.1816 106.173C45.1789 106.172 45.1761 106.172 45.1734 106.172C45.1721 106.171 45.1707 106.171 45.1694 106.171C45.1687 106.171 45.168 106.171 45.1673 106.171C45.167 106.171 45.1665 106.17 45.1663 106.17C45.1658 106.17 45.1653 106.17 44.2725 112.104ZM44.2861 112.106L48.0785 107.457C48.0558 107.438 48.0372 107.424 48.0257 107.414C48.0199 107.41 48.0151 107.406 48.012 107.403C48.0105 107.402 48.0092 107.401 48.0083 107.401C48.0075 107.4 48.0068 107.399 48.0068 107.399C48.0061 107.399 48.0079 107.4 48.01 107.402C48.0124 107.404 48.0166 107.407 48.0218 107.411C48.032 107.419 48.0492 107.433 48.0706 107.451L44.2764 112.099L40.4822 116.747C40.5051 116.765 40.524 116.781 40.5358 116.79C40.5419 116.795 40.5468 116.799 40.55 116.801C40.553 116.804 40.5556 116.806 40.5557 116.806C40.5566 116.806 40.5549 116.805 40.5529 116.804C40.5507 116.802 40.5467 116.799 40.5417 116.795C40.5318 116.787 40.5148 116.773 40.4938 116.756L44.2861 112.106ZM44.2764 112.099L48.068 107.449C48.2132 107.567 48.3799 107.791 48.4619 108.066C48.535 108.311 48.4962 108.441 48.5051 108.404C48.5296 108.302 48.7498 107.754 49.5879 107.291L46.6865 102.039L43.7852 96.7872C40.2846 98.7211 37.7217 101.916 36.8368 105.602C35.9258 109.396 36.8626 113.795 40.4847 116.749L44.2764 112.099ZM46.6865 102.039L49.5856 107.292L67.3659 97.4797L64.4668 92.2266L61.5677 86.9734L43.7874 96.7859L46.6865 102.039ZM64.4668 92.2266L68.7094 87.9839L68.7046 87.979L64.4619 92.2217L60.2193 96.4643L60.2242 96.4692L64.4668 92.2266ZM64.4619 92.2217L67.3592 97.4758C67.9256 97.1635 68.4547 96.9937 68.9134 96.9172L67.9258 90.999L66.9382 85.0809C65.1135 85.3854 63.2956 86.013 61.5646 86.9676L64.4619 92.2217ZM67.9258 90.999H73.9258V90.9141H67.9258H61.9258V90.999H67.9258ZM67.9258 90.9141L73.9257 90.9418C73.9299 90.0383 73.9473 87.0654 73.9473 85.7168H67.9473H61.9473C61.9473 87.0284 61.9302 89.9416 61.9258 90.8863L67.9258 90.9141ZM67.9473 85.7168L73.9473 85.7168C73.9473 84.7014 74.0083 83.7114 74.1235 82.7496L68.166 82.0361L62.2086 81.3227C62.0372 82.7537 61.9473 84.2202 61.9473 85.7168L67.9473 85.7168ZM68.166 82.0361L73.4654 79.2224C68.9261 70.6733 63.0217 62.3464 55.3399 53.5488L50.8203 57.4951L46.3008 61.4415C53.5148 69.7033 58.8467 77.2787 62.8667 84.8499L68.166 82.0361ZM50.8203 57.4951L52.5044 51.7363C51.5312 51.4517 49.9083 50.9962 48.2232 50.9961L48.2227 56.9961L48.2222 62.9961C48.0444 62.9961 48.0191 62.9738 48.2277 63.0165C48.4259 63.057 48.7101 63.1293 49.1362 63.2539L50.8203 57.4951ZM48.2227 56.9961V50.9961C45.8021 50.9961 43.284 51.6764 41.3859 52.258C40.3672 52.5701 39.3443 52.9144 38.4179 53.2268C37.4615 53.5494 36.6141 53.8358 35.817 54.0827C33.9856 54.6499 33.3345 54.697 33.3407 54.6974C33.4409 54.7025 34.3664 54.7571 35.3585 55.562C36.4972 56.4858 36.829 57.6546 36.8893 58.2315L30.9219 58.8555L24.9544 59.4794C25.1464 61.3152 25.9361 63.3701 27.7979 64.8807C29.5133 66.2724 31.4273 66.6144 32.7205 66.6813C35.1126 66.8051 37.6649 66.0727 39.367 65.5456C40.3366 65.2453 41.3385 64.9059 42.2529 64.5975C43.1974 64.279 44.0668 63.9872 44.9011 63.7315C46.7091 63.1776 47.7396 62.9961 48.2227 62.9961V56.9961ZM30.9219 58.8555L36.8894 58.2317C36.5943 55.4089 37.1025 40.8413 58.4981 31.9444L56.1943 26.4043L53.8906 20.8642C26.8486 32.109 24.1966 52.2301 24.9544 59.4793L30.9219 58.8555ZM36.5361 66.7197L41.7044 69.7675C41.5894 69.9626 41.5263 69.9737 41.6515 69.8798C41.7685 69.792 41.9478 69.6909 42.1497 69.6166C42.3642 69.5375 42.4479 69.5453 42.3536 69.5486C42.2982 69.5505 42.1336 69.5517 41.8841 69.5019C41.6373 69.4527 41.2299 69.3376 40.7595 69.0602L43.8066 63.8916L46.8538 58.723C45.0966 57.687 43.2569 57.5106 41.9426 57.5556C40.5532 57.6032 39.2035 57.9134 38.0007 58.3566C35.7276 59.1942 33.0141 60.8802 31.3678 63.672L36.5361 66.7197ZM43.8066 63.8916L40.7589 69.0599C40.4631 68.8855 39.9542 68.5263 39.4795 67.8879C38.9733 67.2072 38.6493 66.3995 38.5407 65.5623C38.4393 64.7796 38.55 64.1649 38.6395 63.8232C38.7268 63.4894 38.826 63.2943 38.8317 63.2829C38.8414 63.2633 38.8171 63.3137 38.7204 63.4682C38.6245 63.6213 38.5031 63.805 38.3268 64.0676C38.0075 64.5432 37.5005 65.2853 37.0232 66.0947L42.1914 69.1426L47.3596 72.1904C47.6188 71.751 47.8982 71.3397 48.2901 70.7559C48.6079 70.2824 49.1491 69.4821 49.5681 68.6428C49.9384 67.9011 50.7208 66.1767 50.4412 64.0197C50.0983 61.3744 48.4268 59.6505 46.8544 58.7233L43.8066 63.8916ZM42.1914 69.1426L37.0231 66.0948C36.7664 66.5302 36.5149 66.898 36.291 67.1804C36.0554 67.4776 35.9255 67.5852 35.9321 67.5799C35.9427 67.5714 36.0283 67.5041 36.1918 67.4185C36.3556 67.3328 36.638 67.2078 37.0299 67.1241C37.4333 67.038 37.935 67 38.4939 67.084C39.0592 67.1689 39.5668 67.3615 39.9882 67.61L36.9404 72.7783L33.8927 77.9466C37.9528 80.3409 41.7169 78.3088 43.392 76.9793C45.1381 75.5935 46.463 73.711 47.3597 72.1903L42.1914 69.1426ZM36.9404 72.7783L39.9882 67.6101C40.4965 67.9098 40.9115 68.3464 41.1838 68.8356C41.443 69.3016 41.5111 69.6997 41.5251 69.9189C41.5503 70.3099 41.4281 70.2361 41.7046 69.7673L36.5361 66.7197L31.3677 63.6722C30.1713 65.7013 29.3867 68.1469 29.5498 70.6878C29.72 73.3384 30.9923 76.2363 33.8926 77.9466L36.9404 72.7783ZM24.1182 64.5693L29.8093 66.4697C29.5899 67.1268 29.2443 67.3897 29.1293 67.47C29.0425 67.5307 28.8626 67.6426 28.5545 67.7419C28.3181 67.8181 27.5621 68.0329 26.4998 67.8336L27.6064 61.9365L28.7131 56.0395C25.8745 55.5067 23.4613 56.7915 22.2572 57.6327C20.7914 58.6566 19.2078 60.3309 18.427 62.669L24.1182 64.5693ZM27.6064 61.9365L26.4992 67.8335C25.8514 67.7118 25.0363 67.4001 24.2852 66.7453C23.5395 66.0953 23.1279 65.3437 22.9202 64.7465C22.5697 63.7386 22.7704 63.122 22.7065 63.4622L28.6035 64.5693L34.5005 65.6765C34.7111 64.5548 34.9192 62.7169 34.2546 60.8055C33.4097 58.3757 31.3886 56.5418 28.7137 56.0396L27.6064 61.9365ZM28.6035 64.5693L22.7066 63.4621C22.8144 62.8876 22.9937 62.6354 22.93 62.744C22.9027 62.7905 22.8349 62.8876 22.7523 62.9788C22.648 63.0939 22.6854 63.0204 22.9252 62.8673C23.0488 62.7884 23.3579 62.6036 23.8346 62.4509C24.2919 62.3045 25.198 62.0942 26.3474 62.3101L25.2402 68.207L24.133 74.104C26.7356 74.5927 28.7417 73.391 29.383 72.9815C30.3054 72.3925 31.0689 71.6719 31.6446 71.0365C32.6308 69.9481 34.0649 67.9965 34.5005 65.6766L28.6035 64.5693ZM25.2402 68.207L26.3483 62.3102C27.678 62.5601 28.5555 63.2655 29.0216 63.7841C29.4826 64.297 29.6902 64.7754 29.7839 65.0575C29.9668 65.6087 29.9406 66.0764 29.8094 66.4693L24.1182 64.5693L18.4269 62.6693C17.7345 64.7433 17.7634 66.9348 18.3946 68.837C18.9178 70.4135 20.4973 73.4208 24.1322 74.1038L25.2402 68.207Z" fill="white" mask="url(#path-1-outside-1_1347_9541)"/>
<path d="M142.393 30.0895C169.86 43.5425 175.091 98.4756 167.618 123.139C153.978 130.426 112.797 136.819 81.855 139.958C79.0523 100.157 72.3258 78.8544 41.4961 47.4664C66.1599 40.3663 118.657 18.4634 142.393 30.0895Z" fill="#72CAF0"/>
<path d="M75.8674 142.87C128.476 113.244 164.497 108.702 168.338 119.267C172.18 129.833 135.397 158.931 100.109 172.303C48.8757 191.717 13.4029 178.046 75.8674 142.87Z" fill="#FDCF08"/>
<path d="M56.194 26.404C108.844 9.61861 144.647 30.8799 147.806 33.1182C150.965 35.3564 144.753 44.6689 137.909 47.4665C131.064 50.264 131.696 44.0993 125.016 43.5427C118.29 42.9821 112.53 53.82 105.159 53.2605C97.7878 52.701 99.2816 51.582 91.384 51.582C83.4865 51.582 80.7338 56.4351 76.2012 56.0581C71.6686 55.681 72.8862 54.1929 69.523 54.1929C66.1597 54.1929 63.9969 57.9674 59.8795 58.8556C55.5095 59.7983 50.9012 56.9956 48.2224 56.9956C42.4152 56.9956 31.4483 63.8913 30.9218 58.8556C30.3953 53.82 31.9748 36.4751 56.194 26.404Z" fill="#CCEAF2"/>
<path d="M42.1908 69.1429C40.7177 71.6409 38.6697 73.7983 36.9403 72.7784C35.211 71.7586 35.0632 69.2176 36.5363 66.7196C38.0093 64.2216 42.0773 62.8721 43.8066 63.8919C45.536 64.9118 43.6639 66.645 42.1908 69.1429Z" fill="#CCEAF2"/>
<path d="M30.5 65.5005C29.9731 68.3069 26.5 71.5307 24.3084 71.1192C22.3655 70.7544 21.0771 67.3642 22.1545 64.1368C23.232 60.9094 26.0571 59.1355 28 59.5003C29.9429 59.8651 31.0269 62.6941 30.5 65.5005Z" fill="#CCEAF2"/>
<path d="M151.922 124.821C133.984 132.856 90.0381 153.521 57.751 171.907" stroke="#FFEEA3" stroke-width="1.12108" stroke-linecap="round"/>
<path d="M144.074 47.4668C144.635 49.1484 150.24 56.4354 150.801 69.3279M92.5046 52.5117C94.1862 54.9407 97.6616 61.144 98.11 66.5252M70.083 54.7538C71.2041 55.3144 72.8857 58.1171 72.3252 60.9198M120.532 59.2381C121.466 61.854 123.222 67.5341 122.774 69.3279M141.832 66.5252C143.514 74.3727 144.074 79.9781 141.832 86.7046M162.572 92.8705C163.319 99.0365 161.675 110.023 158.088 113.611M153.043 104.642C153.603 105.016 153.603 109.687 151.922 110.808" stroke="#2891BE" stroke-width="1.12108" stroke-linecap="round"/>
<path d="M123.968 142.512C123.968 144.107 122.587 145.412 120.901 145.412H112.836C111.558 145.412 110.516 144.427 110.516 143.222V133.408C110.516 132.199 111.558 131.213 112.836 131.213H112.989C114.268 131.213 115.31 132.199 115.31 133.408V140.703L120.901 139.612C121.74 139.612 122.509 139.936 123.069 140.462C123.62 140.987 123.968 141.71 123.968 142.512Z" fill="#474747"/>
<path d="M136.736 86.294L136.733 86.2973C136.733 86.2973 136.74 86.3157 136.738 86.3252C136.639 88.0327 136.394 89.8814 135.903 91.7447C135.883 91.8332 135.856 91.9219 135.832 92.0137C135.784 92.1909 135.73 92.3684 135.679 92.5489C135.595 92.8371 135.496 93.1229 135.391 93.4091C135.195 93.9775 134.969 94.5474 134.707 95.1033C134.234 96.1409 133.662 97.1487 132.967 98.1092C132.327 99.0015 131.585 99.8423 130.722 100.62C129.643 101.608 128.369 102.502 126.879 103.246C126.101 103.642 125.252 103.991 124.342 104.302C122.447 104.947 120.613 105.276 118.851 105.355L118.848 105.359C116.244 105.471 113.809 105.05 111.564 104.277C111.561 104.274 111.554 104.274 111.548 104.268C111.491 104.252 111.431 104.233 111.373 104.211C111.18 104.142 110.986 104.073 110.792 104.004C110.786 104.004 110.776 103.995 110.773 103.992C110.578 103.917 110.384 103.835 110.187 103.757C110.164 103.749 110.149 103.746 110.133 103.738C108.023 102.849 106.103 101.679 104.419 100.421C104.383 100.394 104.354 100.368 104.318 100.341C103.78 99.9288 103.347 99.4679 102.992 98.972C102.982 98.9568 102.972 98.9479 102.962 98.9328C101.753 97.1926 101.659 95.0473 102.482 93.0622C102.869 92.1192 103.467 91.2195 104.252 90.4173C105.319 89.3239 106.73 88.4112 108.44 87.8314L110.211 87.2299L127.669 81.2901C132.363 79.696 136.952 82.2157 136.726 86.2851L136.736 86.294Z" fill="#276286"/>
<path opacity="0.5" d="M102.905 98.9304C104.508 101.208 109.341 103.598 111.481 104.263C116.723 105.896 122.168 105.817 126.813 103.235C131.521 100.615 134.459 96.3597 135.608 92.5346C136.744 88.757 136.672 86.2794 136.672 86.2794C136.672 86.2794 133.051 93.0477 129.329 96.1775C125.601 99.3075 119.797 101.813 114.492 101.501C109.191 101.193 106.427 100.019 102.908 98.9271L102.905 98.9304Z" fill="#14465D"/>
<path d="M82.1219 126.678V150.695C82.1219 151.9 83.1063 152.886 84.3094 152.886H91.9261C93.5185 152.886 94.8223 151.58 94.8223 149.985C94.8223 149.188 94.4941 148.46 93.9692 147.935C93.4442 147.409 92.7223 147.084 91.9217 147.084L86.6412 148.18V126.678C86.6412 125.473 85.6569 124.487 84.4538 124.487H84.305C83.1019 124.487 82.1176 125.473 82.1176 126.678H82.1219Z" fill="#474747"/>
<path d="M125.458 115.35C125.458 115.933 125.437 116.517 125.407 117.082C125.403 117.131 125.398 117.175 125.398 117.219C125.035 122.66 123.095 127.517 119.976 131.583C116.109 136.634 110.425 140.453 103.695 142.618C102.268 143.087 100.79 143.471 99.2727 143.785C97.1874 144.214 95.0295 144.488 92.8118 144.603C92.3674 144.629 91.9187 144.647 91.47 144.656C91.094 144.66 90.7137 144.665 90.3334 144.665C89.9531 144.665 89.577 144.66 89.201 144.656C86.5859 144.594 84.0391 144.311 81.5992 143.829C80.0865 143.529 78.608 143.149 77.1808 142.689C70.3567 140.528 64.6051 136.687 60.6953 131.587C60.6953 131.587 60.6953 131.583 60.691 131.583C57.5631 127.499 55.6146 122.607 55.2684 117.131C55.2684 117.096 55.2642 117.051 55.2599 117.012C55.23 116.464 55.2129 115.911 55.2129 115.35C55.2129 114.696 55.2343 114.046 55.277 113.405C55.888 104.482 60.6824 96.5667 67.9253 91.1925V90.9141C67.9296 89.9904 67.9467 87.0469 67.9467 85.7167C67.9467 71.1056 77.9713 60.2158 90.3334 60.2158C90.7607 60.2158 91.188 60.2247 91.611 60.26C103.383 60.976 112.724 71.6139 112.724 85.7167C112.724 87.3033 112.271 90.4986 112.053 90.7019C112.105 90.7329 112.152 90.7638 112.19 90.7903C112.566 91.0378 112.741 91.1925 112.741 91.1925C119.984 96.549 124.774 104.456 125.39 113.374C125.437 114.028 125.462 114.687 125.462 115.35H125.458Z" fill="#4B9AE8"/>
<path d="M92.3584 83.2385C91.6468 85.2436 88.6484 88.0973 86.28 87.6055C83.9116 87.1137 82.1432 83.1841 82.5051 80.9367C82.8661 78.6936 84.8545 77.5323 88.3889 78.2706C91.9622 79.0173 93.07 81.2334 92.3584 83.2385Z" fill="#EAC00F"/>
<path d="M92.3578 83.2379C91.6471 85.2386 88.6521 88.0976 86.2794 87.6049C85.9083 87.525 85.5496 87.3665 85.2119 87.1313C87.316 86.7535 89.5453 84.452 90.1484 82.7622C90.7805 80.9794 89.9719 79.0308 87.2706 78.0926C87.6233 78.1324 87.9947 78.1898 88.384 78.2691C91.9616 79.0167 93.0641 81.2362 92.3535 83.2369L92.3578 83.2379Z" fill="#CCA80E"/>
<path d="M96.9879 79.4172C99.4644 79.4172 101.472 77.4097 101.472 74.9332C101.472 72.4568 99.4644 70.4492 96.9879 70.4492C94.5115 70.4492 92.5039 72.4568 92.5039 74.9332C92.5039 77.4097 94.5115 79.4172 96.9879 79.4172Z" fill="white"/>
<path d="M96.9887 77.3232C98.3088 77.3232 99.3788 76.2531 99.3788 74.9331C99.3788 73.6131 98.3088 72.543 96.9887 72.543C95.6687 72.543 94.5986 73.6131 94.5986 74.9331C94.5986 76.2531 95.6687 77.3232 96.9887 77.3232Z" fill="#040000"/>
<path d="M77.9293 79.4172C80.4058 79.4172 82.4133 77.4097 82.4133 74.9332C82.4133 72.4568 80.4058 70.4492 77.9293 70.4492C75.4529 70.4492 73.4453 72.4568 73.4453 74.9332C73.4453 77.4097 75.4529 79.4172 77.9293 79.4172Z" fill="white"/>
<path d="M77.9292 77.3232C79.2492 77.3232 80.3193 76.2531 80.3193 74.9331C80.3193 73.6131 79.2492 72.543 77.9292 72.543C76.6091 72.543 75.5391 73.6131 75.5391 74.9331C75.5391 76.2531 76.6091 77.3232 77.9292 77.3232Z" fill="#040000"/>
<path d="M64.4666 92.2258L46.6868 102.038C42.3478 104.435 41.1206 109.524 44.2767 112.098C49.2028 116.119 57.0201 119.981 65.9408 115.06C73.3918 110.95 75.8813 103.866 76.4816 97.7257C77.051 91.9565 70.4255 88.9329 64.4621 92.2214L64.4666 92.2258Z" fill="#276286"/>
<path opacity="0.5" d="M76.3626 95.6562C76.9673 98.3753 75.4798 103.557 74.5308 105.588C72.209 110.562 68.4835 114.535 63.4471 116.23C58.34 117.947 53.2153 117.254 49.6135 115.528C46.0557 113.824 44.2725 112.103 44.2725 112.103C44.2725 112.103 51.7145 113.983 56.5347 113.339C61.3592 112.69 67.1196 110.086 70.461 105.954C73.8024 101.827 74.7956 98.9933 76.3582 95.6562H76.3626Z" fill="#14465D"/>
</svg>
