<svg width="174" height="68" viewBox="0 0 174 68" fill="none" xmlns="http://www.w3.org/2000/svg">
<path d="M0.5 34C0.5 15.2223 15.7223 0 34.5 0H139.5C158.278 0 173.5 15.2223 173.5 34V34C173.5 52.7777 158.278 68 139.5 68H34.5C15.7223 68 0.5 52.7777 0.5 34V34Z" fill="#FF974D"/>
<mask id="mask0_641_3852" style="mask-type:alpha" maskUnits="userSpaceOnUse" x="20" y="10" width="49" height="48">
<circle cx="44.5" cy="34" r="24" fill="#D9D9D9"/>
</mask>
<g mask="url(#mask0_641_3852)">
<path d="M49.6816 21.2866C50.9684 20.0961 52.6108 19.4453 54.2861 19.7876L54.5957 19.8618C56.1168 20.2865 57.2619 21.4739 57.9336 22.9741C58.6058 24.4756 58.8333 26.3397 58.5127 28.2612L58.4414 28.646C57.7607 31.9768 55.5408 34.6828 52.8906 35.1733L51.3066 41.4595V41.4604C51.1218 42.1916 50.3793 42.6346 49.6484 42.4507H49.6475L48.3037 42.1118L48.3027 42.1108C47.5721 41.926 47.1281 41.1842 47.3125 40.4526L48.9355 34.0171C47.1237 32.3632 46.3688 29.341 46.9893 26.3052L47.0742 25.9233C47.5334 24.0299 48.4741 22.404 49.6816 21.2866Z" fill="#FDAA66" stroke="white" stroke-width="1.5"/>
<path d="M44.4386 47.33C44.9115 48.545 44.307 49.9212 43.0921 50.3942L42.718 50.5397C41.512 51.009 40.1485 50.4159 39.6659 49.2189L36.4239 41.7609L36.4177 41.7476L36.406 41.7176C36.4004 41.7039 36.3919 41.6817 36.3799 41.6533C36.3558 41.5964 36.3185 41.5123 36.2705 41.4099C36.1738 41.2037 36.0341 40.9286 35.8605 40.6472C35.685 40.3627 35.4861 40.0905 35.2765 39.879C35.0617 39.6623 34.8789 39.5534 34.7404 39.5166L34.7335 39.515L34.7272 39.5123C33.1284 39.0543 31.7522 37.878 31.1006 36.2038L28.2286 28.8241C27.8375 27.8192 28.3475 26.6746 29.3745 26.3106L29.375 26.3093L29.3772 26.3095C29.3807 26.3083 29.3842 26.3056 29.3878 26.3044L29.3876 26.3065C30.1514 26.0322 30.9365 26.2932 31.4382 26.8341C31.4347 26.043 31.9184 25.2933 32.7135 25.0111L32.7141 25.0098L32.7163 25.01C32.7199 25.0087 32.7231 25.0061 32.7268 25.0049L32.7266 25.007C33.4905 24.7324 34.2754 24.9937 34.7773 25.5346C34.7736 24.7571 35.2446 24.0251 36.0167 23.7245C37.0029 23.3407 38.1233 23.8218 38.5005 24.8264L38.5014 24.8261L41.3689 32.194C42.0236 33.8763 41.7991 35.6828 40.92 37.1042L40.9111 37.1192L40.9019 37.1332C40.8363 37.2292 40.7751 37.412 40.764 37.713C40.7531 38.0042 40.7912 38.3376 40.856 38.6685C40.9201 38.9955 41.0047 39.297 41.0746 39.5182C41.1093 39.6279 41.14 39.7162 41.1612 39.7758C41.1696 39.7994 41.1762 39.8189 41.1814 39.8329L44.4274 47.3039L44.4333 47.3163L44.4386 47.33Z" fill="#FDAA66" stroke="white" stroke-width="1.5"/>
</g>
<path d="M77.3008 41.5234H76.9492L76.5977 41.5117H74.8516C72.0781 41.5117 70.582 41.4922 70.3633 41.4531C69.957 41.3828 69.7539 41.2109 69.7539 40.9375C69.7539 40.8203 69.9648 40.6133 70.3867 40.3164C70.8164 40.0195 71.0938 39.5938 71.2188 39.0391C71.3516 38.4766 71.418 36.4219 71.418 32.875C71.418 29.3281 71.3711 27.4023 71.2773 27.0977C71.1914 26.7852 70.9648 26.5508 70.5977 26.3945C70.0195 26.1445 69.7305 25.8789 69.7305 25.5977C69.7305 25.3164 70.168 25.1758 71.043 25.1758H71.7461L72.0859 25.1875L73.1406 25.1992C75.0312 25.1992 75.9766 25.3398 75.9766 25.6211C75.9766 25.7148 75.6992 26.0312 75.1445 26.5703C74.832 26.875 74.6055 27.3984 74.4648 28.1406C74.332 28.875 74.2656 30.8398 74.2656 34.0352C74.2656 37.2305 74.3125 38.9766 74.4062 39.2734C74.5078 39.5703 74.7383 39.7773 75.0977 39.8945C75.3164 39.9648 75.7461 40 76.3867 40C77.7695 40 78.8047 39.8203 79.4922 39.4609C79.8828 39.2578 80.3047 38.8398 80.7578 38.207C81.2109 37.5742 81.5625 37.2578 81.8125 37.2578C82.0703 37.2578 82.1992 37.4219 82.1992 37.75V38.0547C82.1992 39.7734 81.9883 40.8242 81.5664 41.207C81.332 41.418 79.9102 41.5234 77.3008 41.5234ZM95.4414 40.2227C95.7852 40.4883 95.957 40.6797 95.957 40.7969C95.957 40.9062 95.8984 41.0117 95.7812 41.1133C95.4453 41.418 94.7266 41.5703 93.625 41.5703C93.2656 41.5703 92.9844 41.5117 92.7812 41.3945C92.5859 41.2695 92.4102 41.0469 92.2539 40.7266C92.1055 40.4062 91.9805 40.2461 91.8789 40.2461C91.7773 40.2539 91.5508 40.3828 91.1992 40.6328C90.2148 41.3438 89.2734 41.6992 88.375 41.6992C88.3672 41.6992 88.3555 41.6992 88.3398 41.6992H87.9883C86.6992 41.6992 85.7656 41.1523 85.1875 40.0586C84.8906 39.4883 84.7383 38.0938 84.7305 35.875C84.7305 33.6484 84.6953 32.4258 84.625 32.207C84.5547 31.9805 84.3047 31.7695 83.875 31.5742C83.4531 31.3711 83.2422 31.2148 83.2422 31.1055C83.2422 30.8164 83.3789 30.6289 83.6523 30.543C84.2617 30.3477 85.0391 30.25 85.9844 30.25C86.5312 30.25 86.8789 30.4727 87.0273 30.918C87.2227 31.4883 87.3203 32.8516 87.3203 35.0078C87.3203 37.1562 87.4141 38.4609 87.6016 38.9219C87.9219 39.7109 88.5039 40.1055 89.3477 40.1055C89.7852 40.1055 90.2188 39.9922 90.6484 39.7656C91.0859 39.5391 91.4258 39.2344 91.668 38.8516C91.9102 38.4688 92.0312 37.418 92.0312 35.6992C92.0312 33.9727 91.9727 32.8867 91.8555 32.4414C91.7461 31.9961 91.5742 31.6484 91.3398 31.3984C91.1055 31.1406 90.9883 30.9375 90.9883 30.7891C90.9883 30.4453 91.9062 30.2734 93.7422 30.2734C94.125 30.2734 94.375 30.3594 94.4922 30.5312C94.6094 30.6953 94.668 31 94.668 31.4453L94.6328 32.1367L94.5742 35.2539C94.5742 37.2852 94.6328 38.5547 94.75 39.0625C94.8672 39.5625 95.0977 39.9492 95.4414 40.2227ZM99.5078 41.4062C98.4062 41.4062 97.8555 41.25 97.8555 40.9375C97.8555 40.6797 98 40.4688 98.2891 40.3047C98.8125 40.0078 99.1172 39.7422 99.2031 39.5078C99.2891 39.2656 99.332 38.1367 99.332 36.1211C99.332 34.0977 99.2695 32.9141 99.1445 32.5703C99.0273 32.2188 98.8086 31.9297 98.4883 31.7031C98.168 31.4766 98.0078 31.293 98.0078 31.1523C98.0078 31.0117 98.1133 30.8789 98.3242 30.7539C98.8164 30.4648 99.5977 30.3203 100.668 30.3203C100.988 30.3203 101.238 30.4297 101.418 30.6484C101.48 30.7266 101.566 30.8984 101.676 31.1641C101.793 31.4219 101.871 31.5508 101.91 31.5508C102.059 31.543 102.289 31.4375 102.602 31.2344C103.68 30.5078 104.656 30.1445 105.531 30.1445H105.555H105.93C106.562 30.1445 107.133 30.3008 107.641 30.6133C108.148 30.9258 108.539 31.3945 108.812 32.0195C109.094 32.6445 109.234 34.0078 109.234 36.1094C109.234 38.2031 109.277 39.375 109.363 39.625C109.457 39.8672 109.711 40.0938 110.125 40.3047C110.547 40.5156 110.758 40.7227 110.758 40.9258C110.758 41.2773 109.648 41.4531 107.43 41.4531H107.078C106.375 41.4531 106.023 41.2852 106.023 40.9492C106.023 40.8789 106.109 40.7109 106.281 40.4453C106.453 40.1719 106.57 39.8711 106.633 39.543C106.695 39.2148 106.727 38.1367 106.727 36.3086C106.727 34.4727 106.613 33.293 106.387 32.7695C106.074 32.0508 105.555 31.6914 104.828 31.6914C104.297 31.6914 103.781 31.8164 103.281 32.0664C102.789 32.3086 102.43 32.6562 102.203 33.1094C101.984 33.5547 101.875 34.6289 101.875 36.332C101.875 38.0273 101.922 39.0547 102.016 39.4141C102.109 39.7656 102.223 40.0508 102.355 40.2695L102.789 40.9727C102.789 41.2773 102.176 41.4297 100.949 41.4297L100.234 41.4062H99.5078ZM121.047 33.4609C120.719 33.4609 120.262 33.1211 119.676 32.4414C119.098 31.7617 118.426 31.4219 117.66 31.4219C116.902 31.4219 116.266 31.8008 115.75 32.5586C115.234 33.3086 114.977 34.375 114.977 35.7578C114.977 37.1406 115.293 38.2227 115.926 39.0039C116.566 39.7773 117.398 40.1641 118.422 40.1641C118.984 40.1641 119.453 40.0938 119.828 39.9531C120.211 39.8125 120.562 39.6641 120.883 39.5078C121.211 39.3438 121.441 39.2617 121.574 39.2617C121.801 39.2617 121.914 39.4102 121.914 39.707C121.914 40.1602 121.457 40.6094 120.543 41.0547C119.629 41.5 118.742 41.7227 117.883 41.7227C116.211 41.7227 114.867 41.1992 113.852 40.1523C113.438 39.7227 113.09 39.1719 112.809 38.5C112.527 37.8203 112.387 37.0938 112.387 36.3203V35.7461C112.387 35.7305 112.387 35.7109 112.387 35.6875C112.387 35.6719 112.387 35.6562 112.387 35.6406C112.387 34.9609 112.539 34.2578 112.844 33.5312C113.445 32.1094 114.414 31.125 115.75 30.5781C116.523 30.2656 117.293 30.1094 118.059 30.1094H118.328C119.383 30.1094 120.277 30.293 121.012 30.6602C121.605 30.957 121.902 31.4531 121.902 32.1484C121.902 32.6094 121.809 32.9453 121.621 33.1562C121.441 33.3594 121.25 33.4609 121.047 33.4609ZM124.105 40.8555C124.105 40.7148 124.273 40.4609 124.609 40.0938C124.945 39.7188 125.152 39.3438 125.23 38.9688C125.316 38.5938 125.359 36.6172 125.359 33.0391C125.359 29.4609 125.277 27.293 125.113 26.5352C125.035 26.168 124.871 25.8984 124.621 25.7266C124.168 25.4062 123.941 25.2344 123.941 25.2109C123.941 24.9219 124.094 24.7188 124.398 24.6016C124.977 24.375 125.652 24.2617 126.426 24.2617H126.812C127.172 24.2617 127.426 24.4062 127.574 24.6953C127.73 24.9844 127.809 25.6211 127.809 26.6055L127.797 27.0391C127.789 27.3281 127.785 27.6172 127.785 27.9062L127.762 28.7734C127.762 29.0625 127.762 29.3516 127.762 29.6406C127.762 30.6641 127.941 31.1758 128.301 31.1758C128.34 31.168 128.539 31.0859 128.898 30.9297C129.984 30.4453 130.895 30.2031 131.629 30.2031C133.004 30.2031 133.969 30.7539 134.523 31.8555C134.891 32.6055 135.074 34.4492 135.074 37.3867C135.074 38.5195 135.113 39.2266 135.191 39.5078C135.277 39.7812 135.5 40.0664 135.859 40.3633C136.227 40.6602 136.41 40.8477 136.41 40.9258C136.41 41.168 136.25 41.332 135.93 41.418C135.617 41.5039 134.812 41.5469 133.516 41.5469H133.105C132.254 41.5469 131.828 41.375 131.828 41.0312C131.828 40.9531 131.93 40.7578 132.133 40.4453C132.336 40.125 132.469 39.7656 132.531 39.3672C132.594 38.9688 132.625 37.9258 132.625 36.2383C132.625 34.5508 132.547 33.4883 132.391 33.0508C131.852 32.3477 131.254 31.918 130.598 31.7617C129.699 31.7617 128.98 32.082 128.441 32.7227C128.043 33.1914 127.844 34.2617 127.844 35.9336C127.844 37.5977 127.883 38.6602 127.961 39.1211C128.039 39.5742 128.207 39.9883 128.465 40.3633C128.73 40.7305 128.863 40.957 128.863 41.043C128.863 41.3242 128.07 41.4648 126.484 41.4648C124.898 41.4648 124.105 41.2617 124.105 40.8555ZM140.336 41.7812C139.93 41.7812 139.559 41.6367 139.223 41.3477C138.887 41.0586 138.719 40.6797 138.719 40.2109V40.1055C138.719 39.6523 138.891 39.2773 139.234 38.9805C139.586 38.6836 139.941 38.5352 140.301 38.5352H140.512C140.629 38.5586 140.715 38.5703 140.77 38.5703C141.043 38.5703 141.328 38.7188 141.625 39.0156C141.922 39.3125 142.07 39.6562 142.07 40.0469V40.2109C142.07 40.5703 141.926 40.918 141.637 41.2539C141.355 41.582 141.031 41.7461 140.664 41.7461L140.395 41.7812H140.336Z" fill="#F5F3FF"/>
</svg>
