<svg width="200" height="200" viewBox="0 0 200 200" fill="none" xmlns="http://www.w3.org/2000/svg">
<mask id="path-1-outside-1_1347_10638" maskUnits="userSpaceOnUse" x="23.3154" y="12" width="153" height="172" fill="black">
<rect fill="white" x="23.3154" y="12" width="153" height="172"/>
<path d="M144.916 19.1484C145.446 18.7381 146.2 19.2417 146.028 19.8906L141.764 36.6445L169.404 39.7969C170.133 39.8763 170.265 40.895 169.577 41.1602L144.208 51.0537C145.289 51.4001 146.447 51.7269 147.684 52.0205C159.365 54.7886 165.948 58.2722 167.325 68.6689C168.435 77.0699 162.05 83.1812 157.038 86.6514C158.104 89.2013 158.775 91.7317 158.957 93.9834C159.23 97.3598 158.386 99.8309 156.611 100.853C156.501 100.916 156.388 100.973 156.272 101.024C156.275 101.031 156.278 101.035 156.279 101.038C156.445 101.398 148.212 105.186 145.948 112.785C145.617 113.898 145.736 115.395 145.789 116.07C146.491 125.712 144.77 135.658 140.307 145.009C136.655 152.664 131.539 159.147 125.454 164.283C126.665 168.21 125.356 174.811 122.028 176.592C118.972 178.227 113.485 176.19 110.607 173.381C95.9234 179.573 78.7616 179.7 63.251 172.305C34.4318 158.557 22.2209 124.056 35.9551 95.25C46.5279 73.0859 69.3757 60.7459 92.4678 62.4756C92.4993 62.4779 92.5309 62.48 92.5625 62.4824C92.7545 62.4971 92.9466 62.5126 93.1387 62.5293C93.168 62.5318 93.1973 62.5345 93.2266 62.5371C93.3981 62.5522 93.5697 62.5683 93.7412 62.585C93.8356 62.5941 93.93 62.6037 94.0244 62.6133C94.1514 62.6263 94.2783 62.6395 94.4053 62.6533C94.5625 62.6704 94.7197 62.6877 94.877 62.7061C94.9189 62.711 94.961 62.7157 95.0029 62.7207C95.2142 62.7459 95.4255 62.7722 95.6367 62.7998C95.6543 62.8021 95.6719 62.8043 95.6895 62.8066C101.553 63.5775 107.398 65.2704 113.026 67.9541C114.832 68.816 116.568 69.7672 118.236 70.7861C118.286 70.8168 118.337 70.8472 118.387 70.8779C119.102 71.3175 119.806 71.7676 120.496 72.2314C120.512 72.2442 120.527 72.2578 120.542 72.2705C121.931 73.212 123.269 74.2068 124.559 75.251L124.572 75.2383C130.613 80.4727 138.977 72.1577 140.681 72.3633C142.433 71.598 144.838 72.1637 147.437 73.9678C149.844 75.6394 152.247 78.2568 154.251 81.3633C157.925 78.7159 162.06 74.5428 161.392 69.4629C160.623 63.6092 158.345 60.6956 146.293 57.835C143.127 57.0843 140.396 56.1378 138.09 55.1543L128.268 72.3105C127.963 72.827 127.195 72.7745 126.983 72.2051L121.023 56.0869L90.8135 56.3916C90.0719 56.4048 89.82 55.4251 90.4688 55.0674L116.216 41.0283L110.309 19.9561C110.124 19.3075 110.878 18.7912 111.421 19.2012L128.202 31.9297L144.916 19.1484Z"/>
</mask>
<path d="M144.916 19.1484C145.446 18.7381 146.2 19.2417 146.028 19.8906L141.764 36.6445L169.404 39.7969C170.133 39.8763 170.265 40.895 169.577 41.1602L144.208 51.0537C145.289 51.4001 146.447 51.7269 147.684 52.0205C159.365 54.7886 165.948 58.2722 167.325 68.6689C168.435 77.0699 162.05 83.1812 157.038 86.6514C158.104 89.2013 158.775 91.7317 158.957 93.9834C159.23 97.3598 158.386 99.8309 156.611 100.853C156.501 100.916 156.388 100.973 156.272 101.024C156.275 101.031 156.278 101.035 156.279 101.038C156.445 101.398 148.212 105.186 145.948 112.785C145.617 113.898 145.736 115.395 145.789 116.07C146.491 125.712 144.77 135.658 140.307 145.009C136.655 152.664 131.539 159.147 125.454 164.283C126.665 168.21 125.356 174.811 122.028 176.592C118.972 178.227 113.485 176.19 110.607 173.381C95.9234 179.573 78.7616 179.7 63.251 172.305C34.4318 158.557 22.2209 124.056 35.9551 95.25C46.5279 73.0859 69.3757 60.7459 92.4678 62.4756C92.4993 62.4779 92.5309 62.48 92.5625 62.4824C92.7545 62.4971 92.9466 62.5126 93.1387 62.5293C93.168 62.5318 93.1973 62.5345 93.2266 62.5371C93.3981 62.5522 93.5697 62.5683 93.7412 62.585C93.8356 62.5941 93.93 62.6037 94.0244 62.6133C94.1514 62.6263 94.2783 62.6395 94.4053 62.6533C94.5625 62.6704 94.7197 62.6877 94.877 62.7061C94.9189 62.711 94.961 62.7157 95.0029 62.7207C95.2142 62.7459 95.4255 62.7722 95.6367 62.7998C95.6543 62.8021 95.6719 62.8043 95.6895 62.8066C101.553 63.5775 107.398 65.2704 113.026 67.9541C114.832 68.816 116.568 69.7672 118.236 70.7861C118.286 70.8168 118.337 70.8472 118.387 70.8779C119.102 71.3175 119.806 71.7676 120.496 72.2314C120.512 72.2442 120.527 72.2578 120.542 72.2705C121.931 73.212 123.269 74.2068 124.559 75.251L124.572 75.2383C130.613 80.4727 138.977 72.1577 140.681 72.3633C142.433 71.598 144.838 72.1637 147.437 73.9678C149.844 75.6394 152.247 78.2568 154.251 81.3633C157.925 78.7159 162.06 74.5428 161.392 69.4629C160.623 63.6092 158.345 60.6956 146.293 57.835C143.127 57.0843 140.396 56.1378 138.09 55.1543L128.268 72.3105C127.963 72.827 127.195 72.7745 126.983 72.2051L121.023 56.0869L90.8135 56.3916C90.0719 56.4048 89.82 55.4251 90.4688 55.0674L116.216 41.0283L110.309 19.9561C110.124 19.3075 110.878 18.7912 111.421 19.2012L128.202 31.9297L144.916 19.1484Z" fill="#040000"/>
<path d="M144.916 19.1484L148.561 23.9146C148.571 23.907 148.58 23.8995 148.59 23.8919L144.916 19.1484ZM146.028 19.8906L140.229 18.352C140.224 18.3715 140.219 18.391 140.214 18.4105L146.028 19.8906ZM141.764 36.6445L135.949 35.1644C135.522 36.8438 135.841 38.6259 136.825 40.0521C137.809 41.4784 139.362 42.4095 141.084 42.6059L141.764 36.6445ZM169.404 39.7969L168.724 45.7582C168.734 45.7593 168.744 45.7604 168.754 45.7615L169.404 39.7969ZM169.577 41.1602L167.419 35.5616C167.412 35.5644 167.405 35.5673 167.397 35.5702L169.577 41.1602ZM144.208 51.0537L142.028 45.4638C139.661 46.3867 138.132 48.7 138.211 51.2391C138.289 53.7781 139.958 55.9926 142.377 56.7676L144.208 51.0537ZM147.684 52.0205L146.297 57.8582L146.3 57.8588L147.684 52.0205ZM167.325 68.6689L173.274 67.8832L173.273 67.8809L167.325 68.6689ZM157.038 86.6514L153.623 81.7183C151.294 83.3307 150.41 86.352 151.502 88.9654L157.038 86.6514ZM158.957 93.9834L164.938 93.5005V93.5003L158.957 93.9834ZM156.611 100.853L159.604 106.053L159.605 106.052L156.611 100.853ZM156.272 101.024L153.833 95.5428C152.353 96.2012 151.203 97.4296 150.643 98.9489C150.083 100.468 150.16 102.149 150.858 103.611L156.272 101.024ZM156.279 101.038L161.727 98.5235L161.721 98.5114L156.279 101.038ZM145.948 112.785L140.198 111.072L140.198 111.074L145.948 112.785ZM145.789 116.07L151.773 115.635C151.772 115.624 151.772 115.612 151.771 115.601L145.789 116.07ZM140.307 145.009L134.892 142.424L134.891 142.426L140.307 145.009ZM125.454 164.283L121.584 159.698C119.745 161.251 119.011 163.752 119.721 166.052L125.454 164.283ZM122.028 176.592L124.859 181.882L124.859 181.882L122.028 176.592ZM110.607 173.381L114.799 169.088C113.072 167.401 110.501 166.914 108.276 167.852L110.607 173.381ZM63.251 172.305L60.6677 177.72L60.6688 177.721L63.251 172.305ZM35.9551 95.25L30.5397 92.6667L30.5392 92.6678L35.9551 95.25ZM92.4678 62.4756L92.0196 68.4588L92.0231 68.4591L92.4678 62.4756ZM92.5625 62.4824L93.0206 56.4999L93.0171 56.4997L92.5625 62.4824ZM93.1387 62.5293L92.6204 68.5069L92.6238 68.5072L93.1387 62.5293ZM93.2266 62.5371L93.7541 56.5603L93.7506 56.56L93.2266 62.5371ZM93.7412 62.585L93.1599 68.5567L93.1632 68.5571L93.7412 62.585ZM94.0244 62.6133L94.6353 56.6445L94.632 56.6441L94.0244 62.6133ZM94.4053 62.6533L93.7545 68.6179L93.7578 68.6183L94.4053 62.6533ZM94.877 62.7061L95.577 56.747L95.5738 56.7467L94.877 62.7061ZM95.0029 62.7207L94.2897 68.6782L94.2929 68.6785L95.0029 62.7207ZM95.6367 62.7998L96.4163 56.8507L96.4132 56.8503L95.6367 62.7998ZM95.6895 62.8066L94.9044 68.7551L94.9075 68.7555L95.6895 62.8066ZM113.026 67.9541L115.611 62.5395L115.609 62.5383L113.026 67.9541ZM118.236 70.7861L121.364 65.6658L121.363 65.6653L118.236 70.7861ZM118.387 70.8779L115.243 75.9887L115.245 75.9896L118.387 70.8779ZM120.496 72.2314L124.294 67.5861C124.149 67.4678 123.999 67.3564 123.844 67.2522L120.496 72.2314ZM120.542 72.2705L116.734 76.9074C116.876 77.0238 117.023 77.1337 117.175 77.2367L120.542 72.2705ZM124.559 75.251L120.782 79.9136C123.103 81.7932 126.453 81.6798 128.641 79.6477L124.559 75.251ZM124.572 75.2383L128.501 70.7037C126.187 68.6983 122.734 68.7577 120.49 70.8415L124.572 75.2383ZM140.681 72.3633L139.962 78.3201C141.024 78.4482 142.102 78.29 143.082 77.8617L140.681 72.3633ZM147.437 73.9678L150.858 69.0391L150.858 69.0391L147.437 73.9678ZM154.251 81.3633L149.209 84.6153C150.1 85.9977 151.52 86.9534 153.137 87.2589C154.753 87.5644 156.424 87.1928 157.759 86.2312L154.251 81.3633ZM161.392 69.4629L155.443 70.2436L155.443 70.2454L161.392 69.4629ZM146.293 57.835L147.679 51.9972L147.677 51.9968L146.293 57.835ZM138.09 55.1543L140.443 49.6351C137.644 48.4415 134.395 49.5324 132.883 52.1732L138.09 55.1543ZM128.268 72.3105L133.436 75.3585C133.449 75.3363 133.462 75.314 133.475 75.2917L128.268 72.3105ZM126.983 72.2051L121.356 74.286L121.36 74.2981L126.983 72.2051ZM121.023 56.0869L126.651 54.006C125.772 51.6299 123.496 50.0617 120.963 50.0872L121.023 56.0869ZM90.8135 56.3916L90.753 50.3919C90.7374 50.3921 90.7219 50.3923 90.7064 50.3926L90.8135 56.3916ZM90.4688 55.0674L87.5964 49.7996C87.5882 49.8041 87.58 49.8086 87.5718 49.8131L90.4688 55.0674ZM116.216 41.0283L119.088 46.2961C121.543 44.9576 122.748 42.101 121.993 39.4088L116.216 41.0283ZM110.309 19.9561L116.086 18.3365C116.084 18.328 116.081 18.3196 116.079 18.3111L110.309 19.9561ZM111.421 19.2012L115.047 14.4207L115.037 14.413L111.421 19.2012ZM128.202 31.9297L124.576 36.7101C126.727 38.3415 129.702 38.3357 131.847 36.6958L128.202 31.9297ZM144.916 19.1484L148.59 23.8919C144.526 27.0402 138.948 23.1804 140.229 18.352L146.028 19.8906L151.828 21.4292C153.453 15.3031 146.366 10.436 141.242 14.405L144.916 19.1484ZM146.028 19.8906L140.214 18.4105L135.949 35.1644L141.764 36.6445L147.578 38.1246L151.843 21.3707L146.028 19.8906ZM141.764 36.6445L141.084 42.6059L168.724 45.7582L169.404 39.7969L170.084 33.8355L142.444 30.6832L141.764 36.6445ZM169.404 39.7969L168.754 45.7615C163.162 45.1514 162.302 37.5337 167.419 35.5616L169.577 41.1602L171.735 46.7587C178.228 44.2562 177.104 34.6012 170.055 33.8323L169.404 39.7969ZM169.577 41.1602L167.397 35.5702L142.028 45.4638L144.208 51.0537L146.388 56.6437L171.757 46.7501L169.577 41.1602ZM144.208 51.0537L142.377 56.7676C143.6 57.1593 144.906 57.5278 146.297 57.8582L147.684 52.0205L149.07 46.1828C147.988 45.926 146.978 45.6408 146.039 45.3398L144.208 51.0537ZM147.684 52.0205L146.3 57.8588C152.03 59.2167 155.515 60.5545 157.715 62.2433C159.553 63.6543 160.865 65.5946 161.377 69.457L167.325 68.6689L173.273 67.8809C172.408 61.3466 169.74 56.3466 165.022 52.7247C160.666 49.3805 155.018 47.5924 149.067 46.1822L147.684 52.0205ZM167.325 68.6689L161.377 69.4547C161.998 74.1542 158.452 78.375 153.623 81.7183L157.038 86.6514L160.453 91.5844C165.649 87.9873 174.872 79.9855 173.274 67.8832L167.325 68.6689ZM157.038 86.6514L151.502 88.9654C152.386 91.079 152.857 92.9857 152.977 94.4665L158.957 93.9834L164.938 93.5003C164.693 90.4776 163.822 87.3236 162.574 84.3373L157.038 86.6514ZM158.957 93.9834L152.977 94.4663C153.068 95.5945 152.934 96.186 152.874 96.3621C152.85 96.4332 152.865 96.3543 152.983 96.1993C153.108 96.034 153.317 95.8257 153.618 95.6526L156.611 100.853L159.605 106.052C164.501 103.234 165.265 97.5549 164.938 93.5005L158.957 93.9834ZM156.611 100.853L153.618 95.6524C153.699 95.6058 153.772 95.57 153.833 95.5428L156.272 101.024L158.712 106.506C159.005 106.376 159.304 106.226 159.604 106.053L156.611 100.853ZM156.272 101.024L150.858 103.611C150.879 103.653 150.897 103.69 150.911 103.717C150.924 103.744 150.935 103.765 150.938 103.771C150.938 103.772 150.939 103.772 150.939 103.773C150.939 103.773 150.939 103.773 150.939 103.773C150.939 103.773 150.939 103.773 150.939 103.773C150.939 103.774 150.939 103.774 150.939 103.774C150.939 103.774 150.939 103.773 150.938 103.771C150.936 103.768 150.931 103.758 150.925 103.746C150.919 103.733 150.908 103.711 150.894 103.684C150.887 103.67 150.879 103.653 150.87 103.633C150.86 103.614 150.849 103.591 150.837 103.565L156.279 101.038L161.721 98.5114C161.697 98.4598 161.677 98.4178 161.663 98.3902C161.65 98.362 161.638 98.3392 161.631 98.3257C161.624 98.312 161.619 98.3012 161.617 98.2973C161.616 98.2952 161.615 98.2933 161.615 98.2931C161.614 98.2923 161.615 98.2932 161.615 98.2942C161.619 98.3022 161.65 98.3614 161.686 98.4382L156.272 101.024ZM156.279 101.038L150.832 103.553C149.54 100.754 150.864 98.4313 151.126 97.9944C151.528 97.3245 151.965 96.9082 152.073 96.8054C152.35 96.5412 152.566 96.3966 152.485 96.4548C152.373 96.5347 152.211 96.6395 151.717 96.97C150.873 97.535 149.58 98.419 148.175 99.5954C145.441 101.883 141.811 105.657 140.198 111.072L145.948 112.785L151.698 114.498C152.349 112.314 153.968 110.394 155.876 108.798C156.79 108.033 157.667 107.427 158.39 106.944C158.68 106.75 159.152 106.44 159.467 106.214C159.6 106.119 159.978 105.849 160.358 105.486C160.517 105.334 160.992 104.875 161.415 104.169C161.699 103.697 163.029 101.345 161.727 98.5235L156.279 101.038ZM145.948 112.785L140.198 111.074C139.49 113.451 139.775 116.121 139.807 116.539L145.789 116.07L151.771 115.601C151.744 115.261 151.722 114.952 151.724 114.642C151.726 114.495 151.733 114.396 151.739 114.344C151.745 114.283 151.744 114.346 151.699 114.497L145.948 112.785ZM145.789 116.07L139.805 116.506C140.433 125.135 138.895 134.038 134.892 142.424L140.307 145.009L145.721 147.593C150.645 137.279 152.549 126.289 151.773 115.635L145.789 116.07ZM140.307 145.009L134.891 142.426C131.614 149.296 127.03 155.101 121.584 159.698L125.454 164.283L129.325 168.868C136.047 163.193 141.696 156.032 145.722 147.592L140.307 145.009ZM125.454 164.283L119.721 166.052C119.932 166.738 120.014 168.224 119.623 169.785C119.442 170.508 119.211 171.027 119.025 171.329C118.828 171.65 118.826 171.5 119.197 171.302L122.028 176.592L124.859 181.882C128.765 179.792 130.526 175.643 131.263 172.7C132.057 169.533 132.187 165.755 131.188 162.515L125.454 164.283ZM122.028 176.592L119.198 171.301C119.542 171.117 119.676 171.176 119.389 171.175C119.115 171.174 118.649 171.115 118.029 170.923C116.727 170.519 115.49 169.763 114.799 169.088L110.607 173.381L106.416 177.674C108.602 179.808 111.547 181.476 114.472 182.383C117.192 183.227 121.243 183.817 124.859 181.882L122.028 176.592ZM110.607 173.381L108.276 167.852C95.1039 173.407 79.7328 173.516 65.8332 166.889L63.251 172.305L60.6688 177.721C77.7905 185.884 96.7429 185.739 112.939 178.909L110.607 173.381ZM63.251 172.305L65.8343 166.889C40.0058 154.568 29.0625 123.648 41.371 97.8322L35.9551 95.25L30.5392 92.6678C15.3792 124.464 28.8577 162.546 60.6677 177.72L63.251 172.305ZM35.9551 95.25L41.3705 97.8333C50.842 77.978 71.3131 66.9078 92.0196 68.4588L92.4678 62.4756L92.9159 56.4923C67.4382 54.584 42.2139 68.1938 30.5397 92.6667L35.9551 95.25ZM92.4678 62.4756L92.0231 68.4591C92.0523 68.4613 92.0807 68.4632 92.0922 68.4641C92.1082 68.4652 92.1097 68.4653 92.1079 68.4652L92.5625 62.4824L93.0171 56.4997C92.9838 56.4971 92.9537 56.495 92.9381 56.4939C92.9285 56.4932 92.9238 56.4929 92.9186 56.4925C92.9164 56.4924 92.9149 56.4923 92.9139 56.4922C92.9128 56.4921 92.9124 56.4921 92.9124 56.4921L92.4678 62.4756ZM92.5625 62.4824L92.1044 68.4649C92.2799 68.4783 92.4516 68.4922 92.6204 68.5069L93.1387 62.5293L93.657 56.5517C93.4416 56.5331 93.2292 56.5159 93.0206 56.4999L92.5625 62.4824ZM93.1387 62.5293L92.6238 68.5072C92.6716 68.5113 92.6077 68.5059 92.7025 68.5142L93.2266 62.5371L93.7506 56.56C93.7442 56.5595 93.7379 56.5589 93.7197 56.5573C93.7047 56.5559 93.6803 56.5537 93.6536 56.5514L93.1387 62.5293ZM93.2266 62.5371L92.6991 68.5139C92.8506 68.5273 93.0041 68.5416 93.1599 68.5567L93.7412 62.585L94.3225 56.6132C94.1352 56.595 93.9456 56.5772 93.7541 56.5603L93.2266 62.5371ZM93.7412 62.585L93.1632 68.5571C93.2411 68.5646 93.322 68.5728 93.4168 68.5824L94.0244 62.6133L94.632 56.6441C94.538 56.6346 94.4301 56.6236 94.3192 56.6129L93.7412 62.585ZM94.0244 62.6133L93.4135 68.5821C93.5352 68.5946 93.647 68.6062 93.7545 68.6179L94.4053 62.6533L95.056 56.6887C94.9097 56.6727 94.7675 56.658 94.6353 56.6445L94.0244 62.6133ZM94.4053 62.6533L93.7578 68.6183C93.9115 68.635 94.0485 68.6501 94.1801 68.6654L94.877 62.7061L95.5738 56.7467C95.391 56.7253 95.2135 56.7058 95.0528 56.6884L94.4053 62.6533ZM94.877 62.7061L94.1769 68.6651C94.2844 68.6777 94.2368 68.6718 94.2897 68.6782L95.0029 62.7207L95.7162 56.7633C95.6806 56.759 95.648 56.7552 95.6261 56.7527C95.6004 56.7497 95.5891 56.7485 95.577 56.747L94.877 62.7061ZM95.0029 62.7207L94.2929 68.6785C94.4824 68.7011 94.6715 68.7247 94.8603 68.7494L95.6367 62.7998L96.4132 56.8503C96.1794 56.8198 95.946 56.7906 95.713 56.7629L95.0029 62.7207ZM95.6367 62.7998L94.8571 68.7489C94.8744 68.7512 94.8911 68.7533 94.8973 68.7541C94.9063 68.7553 94.9063 68.7553 94.9044 68.7551L95.6895 62.8066L96.4745 56.8582C96.455 56.8556 96.4374 56.8534 96.4289 56.8523C96.4235 56.8516 96.4211 56.8513 96.4185 56.8509C96.4162 56.8507 96.4158 56.8506 96.4163 56.8507L95.6367 62.7998ZM95.6895 62.8066L94.9075 68.7555C100.154 69.4451 105.391 70.9603 110.444 73.3699L113.026 67.9541L115.609 62.5383C109.406 59.5804 102.953 57.7098 96.4714 56.8578L95.6895 62.8066ZM113.026 67.9541L110.441 73.3687C112.047 74.1354 113.603 74.9869 115.11 75.907L118.236 70.7861L121.363 65.6653C119.533 64.5476 117.616 63.4966 115.611 62.5395L113.026 67.9541ZM118.236 70.7861L115.109 75.9065C115.19 75.9559 115.2 75.9622 115.243 75.9887L118.387 70.8779L121.53 65.7672C121.473 65.7321 121.383 65.6776 121.364 65.6658L118.236 70.7861ZM118.387 70.8779L115.245 75.9896C115.901 76.3928 116.536 76.7987 117.148 77.2107L120.496 72.2314L123.844 67.2522C123.077 66.7365 122.303 66.2422 121.528 65.7662L118.387 70.8779ZM120.496 72.2314L116.699 76.8768C116.659 76.8446 116.628 76.8185 116.611 76.8035C116.602 76.7959 116.595 76.7899 116.591 76.7868C116.588 76.784 116.586 76.7819 116.588 76.7837C116.589 76.7843 116.594 76.7892 116.6 76.7943C116.607 76.8 116.617 76.8085 116.628 76.8187C116.652 76.8387 116.689 76.87 116.734 76.9074L120.542 72.2705L124.35 67.6336C124.388 67.6646 124.417 67.6895 124.433 67.703C124.441 67.7099 124.447 67.7151 124.449 67.7175C124.452 67.7194 124.453 67.721 124.45 67.7183C124.449 67.7167 124.442 67.7114 124.435 67.7053C124.428 67.6989 124.417 67.6897 124.404 67.6787C124.379 67.6573 124.341 67.6247 124.294 67.5861L120.496 72.2314ZM120.542 72.2705L117.175 77.2367C118.421 78.0815 119.623 78.9749 120.782 79.9136L124.559 75.251L128.335 70.5883C126.915 69.4387 125.44 68.3425 123.909 67.3043L120.542 72.2705ZM124.559 75.251L128.641 79.6477L128.655 79.635L124.572 75.2383L120.49 70.8415L120.476 70.8542L124.559 75.251ZM124.572 75.2383L120.643 79.7729C126.478 84.8284 133.174 82.7773 136.748 81.1432C138.643 80.2768 140.348 79.2249 141.375 78.6109C141.968 78.2561 142.244 78.1004 142.384 78.0319C142.448 78.0008 142.317 78.0712 142.057 78.1515C141.881 78.2059 141.074 78.4542 139.962 78.3201L140.681 72.3633L141.399 66.4065C140.075 66.2467 139.002 66.5358 138.513 66.6869C137.941 66.8638 137.45 67.0867 137.11 67.2531C136.443 67.5795 135.739 67.9988 135.214 68.3128C134.004 69.0365 132.922 69.6976 131.758 70.23C129.213 71.3934 128.708 70.8825 128.501 70.7037L124.572 75.2383ZM140.681 72.3633L143.082 77.8617C142.489 78.1207 142.147 77.9905 142.358 78.0404C142.587 78.0946 143.153 78.2979 144.015 78.8965L147.437 73.9678L150.858 69.0391C147.685 66.8364 142.934 64.8319 138.279 66.8649L140.681 72.3633ZM147.437 73.9678L144.015 78.8964C145.625 80.0144 147.516 81.9914 149.209 84.6153L154.251 81.3633L159.293 78.1112C156.978 74.5221 154.064 71.2644 150.858 69.0391L147.437 73.9678ZM154.251 81.3633L157.759 86.2312C159.88 84.7023 162.418 82.5413 164.362 79.771C166.335 76.9581 167.929 73.1561 167.34 68.6804L161.392 69.4629L155.443 70.2454C155.522 70.8495 155.383 71.674 154.538 72.8796C153.662 74.1277 152.296 75.3769 150.743 76.4954L154.251 81.3633ZM161.392 69.4629L167.341 68.6822C166.862 65.034 165.732 61.112 161.924 57.9251C158.599 55.1424 153.81 53.4525 147.679 51.9972L146.293 57.835L144.907 63.6728C150.828 65.0781 153.204 66.2754 154.223 67.128C154.759 67.5765 155.153 68.0382 155.443 70.2436L161.392 69.4629ZM146.293 57.835L147.677 51.9968C144.861 51.3291 142.454 50.4926 140.443 49.6351L138.09 55.1543L135.736 60.6735C138.338 61.783 141.392 62.8395 144.909 63.6731L146.293 57.835ZM138.09 55.1543L132.883 52.1732L123.061 69.3294L128.268 72.3105L133.475 75.2917L143.297 58.1354L138.09 55.1543ZM128.268 72.3105L123.099 69.2626C125.252 65.6122 130.983 65.7502 132.607 70.1121L126.983 72.2051L121.36 74.2981C123.408 79.7988 130.674 80.0419 133.436 75.3585L128.268 72.3105ZM126.983 72.2051L132.611 70.1242L126.651 54.006L121.023 56.0869L115.396 58.1678L121.356 74.286L126.983 72.2051ZM121.023 56.0869L120.963 50.0872L90.753 50.3919L90.8135 56.3916L90.874 62.3913L121.084 62.0866L121.023 56.0869ZM90.8135 56.3916L90.7064 50.3926C96.4719 50.2896 97.9793 57.7779 93.3657 60.3217L90.4688 55.0674L87.5718 49.8131C81.6608 53.0722 83.6719 62.5201 90.9206 62.3906L90.8135 56.3916ZM90.4688 55.0674L93.3411 60.3352L119.088 46.2961L116.216 41.0283L113.343 35.7605L87.5964 49.7996L90.4688 55.0674ZM116.216 41.0283L121.993 39.4088L116.086 18.3365L110.309 19.9561L104.531 21.5756L110.439 42.6479L116.216 41.0283ZM110.309 19.9561L116.079 18.3111C117.493 23.273 111.796 27.0029 107.805 23.9893L111.421 19.2012L115.037 14.413C109.96 10.5796 102.754 15.3419 104.538 21.601L110.309 19.9561ZM111.421 19.2012L107.795 23.9816L124.576 36.7101L128.202 31.9297L131.828 27.1493L115.047 14.4207L111.421 19.2012ZM128.202 31.9297L131.847 36.6958L148.561 23.9146L144.916 19.1484L141.271 14.3823L124.557 27.1635L128.202 31.9297Z" fill="white" mask="url(#path-1-outside-1_1347_10638)"/>
<path d="M122.865 53.4242L98.5752 53.6626L119.342 42.3388L114.429 24.8034L128.216 35.2664L142.083 24.6577L138.44 38.935L161.3 41.5574L137.513 50.8283L128.03 67.3837L122.865 53.4242Z" fill="#FFE36C"/>
<path d="M137.618 31.4128L136.611 35.3331L135.115 41.2267L141.154 41.9154L150.346 42.9617L137.419 48.0078L135.671 48.6833L134.744 50.3123L128.546 61.1329L126.003 54.2458L124.705 50.7361L120.97 50.7891L109.169 50.9083L118.758 45.6768L122.467 43.6504L121.328 39.5845L119.116 31.6909L124.996 36.1542L128.215 38.5911L131.42 36.141L137.618 31.4128ZM128.201 31.9293L111.421 19.2016C110.878 18.791 110.123 19.3075 110.308 19.9565L116.215 41.0281L90.4685 55.067C89.8195 55.4246 90.0712 56.4047 90.8128 56.3914L121.023 56.0868L126.983 72.205C127.195 72.7745 127.963 72.8275 128.268 72.311L139.353 52.9479L169.576 41.1605C170.265 40.8956 170.133 39.8758 169.404 39.7964L141.763 36.6442L146.028 19.8903C146.2 19.2413 145.445 18.738 144.916 19.1486L128.201 31.9293Z" fill="#FF8F00"/>
<path d="M140.69 72.3638C139.008 72.1254 130.625 80.4825 124.572 75.2378L124.559 75.2511C121.076 72.43 117.235 69.9666 113.01 67.9535C84.2038 54.2192 49.7025 66.4304 35.955 95.2499C22.2207 124.056 34.4319 158.557 63.2513 172.305C92.0576 186.039 126.559 173.828 140.306 145.009C144.77 135.658 146.491 125.712 145.79 116.07C145.737 115.394 145.617 113.898 145.948 112.785C148.213 105.183 156.451 101.395 156.279 101.038C156.107 100.667 142.386 72.6022 140.69 72.3638Z" fill="#4B9AE8"/>
<path d="M124.986 163.138C126.921 166.763 125.707 174.624 122.029 176.592C118.35 178.56 111.145 175.21 109.215 171.593C107.281 167.968 108.112 163.748 113.595 160.81C119.143 157.835 123.044 159.517 124.986 163.138Z" fill="#EAC00F"/>
<path d="M141.773 90.5512C143.933 94.3049 146.711 97.4991 149.493 99.431C152.276 101.363 154.836 101.874 156.611 100.853C158.386 99.8313 159.23 97.3604 158.957 93.9838C158.685 90.6073 157.318 86.6015 155.157 82.8478C152.997 79.0941 150.22 75.9 147.437 73.9681C144.654 72.0362 142.094 71.5247 140.319 72.5462C138.544 73.5678 137.7 76.0386 137.973 79.4152C138.246 82.7918 139.613 86.7976 141.773 90.5512Z" fill="#276288"/>
<path d="M148.337 88.1946C148.955 89.2654 149.825 90.1325 150.754 90.6053C151.684 91.0781 152.598 91.1177 153.294 90.7155C153.991 90.3133 154.414 89.5023 154.469 88.4607C154.524 87.4192 154.208 86.2325 153.59 85.1617C152.972 84.0909 152.102 83.2237 151.172 82.751C150.243 82.2782 149.329 82.2386 148.632 82.6408C147.936 83.043 147.513 83.854 147.458 84.8956C147.402 85.9371 147.719 87.1238 148.337 88.1946Z" fill="#093049"/>
<path opacity="0.9" d="M86.7988 83.3302C90.4277 93.6342 85.1167 99.7796 78.243 103.713C74.9584 105.594 71.144 106.415 67.8197 108.229C61.3566 111.752 57.4363 118.547 51.8074 123.275C50.4036 124.454 48.801 125.54 46.9733 125.738C44.5364 126.003 42.1524 124.573 40.6955 122.599C39.2519 120.613 33.3317 101.779 54.9463 82.5091C64.6014 73.9003 82.8255 72.0329 86.7988 83.3302Z" fill="#7AB9F8"/>
<path d="M70.8564 64.9868C75.7436 65.1457 85.7297 65.2119 98.3647 70.1785C102.616 71.8473 106.205 74.1783 110.059 76.5623C113.172 78.4827 116.708 80.0852 120.35 79.7409C121.635 79.6217 123.052 79.1184 123.555 77.9264C123.86 77.1847 123.833 76.4298 123.569 75.6881C123.251 74.814 122.165 73.5955 120.496 72.2314C118.152 70.6553 115.662 69.2117 113.026 67.9535C99.3051 61.4108 84.2994 60.7619 70.8564 64.9868Z" fill="#C6E2FF"/>
<path d="M132.176 112.415C128.971 110.309 125.832 107.448 123.885 100.256C123.633 99.3426 122.786 94.7999 125.236 94.0714C127.355 93.4357 128.931 96.9189 130.759 99.9784C132.745 103.329 135.964 106.23 139.421 108.124C140.427 108.667 145.102 110.772 142.03 113.713C140.003 115.633 134.057 113.66 132.176 112.415Z" fill="#2A71B6"/>
<path d="M148.982 84.4824C149.114 84.4294 162.557 78.3238 161.392 69.4634C160.624 63.6094 158.346 60.6957 146.293 57.8349C134.506 55.0404 128.745 49.5705 128.506 49.3321C127.328 48.1931 127.288 46.2992 128.44 45.1072C129.579 43.9285 131.46 43.8887 132.652 45.0277C132.744 45.1072 137.645 49.6367 147.684 52.0207C159.365 54.7888 165.948 58.272 167.325 68.6687C168.862 80.2972 156.041 87.5418 152.372 89.4622C150.094 90.6674 147.472 85.1446 148.982 84.4824Z" fill="#C69461"/>
<path d="M132.626 45.0414C131.447 43.9024 129.554 43.9421 128.415 45.1209C127.276 46.3129 127.302 48.1936 128.481 49.3458C128.653 49.518 131.792 52.4847 138.083 55.16L139.341 52.9615L144.188 51.0676C136.494 48.6041 132.706 45.1076 132.626 45.0414Z" fill="#F6BC41"/>
<path d="M89.4931 169.69C95.8211 169.69 100.951 164.56 100.951 158.232C100.951 151.904 95.8211 146.774 89.4931 146.774C83.165 146.774 78.0352 151.904 78.0352 158.232C78.0352 164.56 83.165 169.69 89.4931 169.69Z" fill="white"/>
<path d="M89.4941 164.34C92.8671 164.34 95.6015 161.605 95.6015 158.232C95.6015 154.859 92.8671 152.125 89.4941 152.125C86.1211 152.125 83.3867 154.859 83.3867 158.232C83.3867 161.605 86.1211 164.34 89.4941 164.34Z" fill="#040000"/>
<ellipse cx="116.5" cy="63.5" rx="2.5" ry="1.5" fill="white"/>
</svg>
