<svg width="200" height="200" viewBox="0 0 200 200" fill="none" xmlns="http://www.w3.org/2000/svg">
<mask id="path-1-outside-1_1062_29973" maskUnits="userSpaceOnUse" x="18.0586" y="18.4443" width="163" height="162" fill="black">
<rect fill="white" x="18.0586" y="18.4443" width="163" height="162"/>
<path d="M100 24.4443C104.307 24.4444 107.901 27.5133 108.715 31.582C109.055 31.8664 109.258 32.0782 109.329 32.1553C110.098 33.0086 110.027 34.3249 109.174 35.0938C109.084 35.1743 108.988 35.2443 108.889 35.3066V45.0615C109.126 45.2712 109.271 45.4263 109.329 45.4893C110.098 46.3425 110.027 47.6579 109.174 48.4268C109.084 48.5073 108.988 48.5774 108.889 48.6396V58.3955C109.126 58.605 109.271 58.7593 109.329 58.8223C110.098 59.6755 110.027 60.9909 109.174 61.7598C109.084 61.8403 108.988 61.9104 108.889 61.9727V71.7285C109.126 71.938 109.271 72.0923 109.329 72.1553C110.098 73.0086 110.027 74.3249 109.174 75.0938C109.084 75.1743 108.988 75.2443 108.889 75.3066V83.6445L119.299 94.6719C118.453 87.5537 117.717 78.6376 117.746 65.0742C117.746 64.7491 117.747 64.4213 117.748 64.0908C117.75 63.7641 117.75 63.4346 117.753 63.1025C117.759 62.1996 117.768 61.2765 117.781 60.333C117.867 54.3548 121.002 50.8928 126.462 50.9824C126.638 50.9853 126.817 50.9916 126.998 51.002C127.541 51.0329 128.105 51.0973 128.69 51.1963C129.471 51.3283 130.288 51.5223 131.142 51.7793C131.355 51.8435 131.57 51.9112 131.788 51.9834C132.659 52.2723 133.565 52.6255 134.505 53.0449C135.445 53.4644 136.418 53.9505 137.424 54.5049C139.686 55.7521 142.112 57.3465 144.682 59.3135C144.967 59.532 145.255 59.7547 145.544 59.9824C147.279 61.3492 149.077 62.8829 150.934 64.5908C152.485 66.0183 153.956 67.6381 155.349 69.4277C155.503 69.6267 155.657 69.8281 155.81 70.0312C156.573 71.0461 157.313 72.1124 158.028 73.2266C158.458 73.8952 158.879 74.581 159.291 75.2832C159.841 76.2194 160.376 77.1845 160.895 78.1768C161.675 79.6653 162.421 81.2148 163.135 82.8184C164.324 85.4905 165.422 88.313 166.432 91.2549C166.836 92.4317 167.225 93.6278 167.602 94.8408C167.978 96.0539 168.34 97.284 168.688 98.5293C169.037 99.7743 169.372 101.034 169.693 102.308C170.176 104.218 170.627 106.158 171.05 108.12C171.191 108.774 171.328 109.431 171.462 110.09C171.864 112.067 172.237 114.064 172.582 116.075C173.044 118.773 173.418 121.504 173.714 124.229C174.009 126.953 174.226 129.671 174.376 132.345C175.274 148.387 173.74 162.821 172.054 167.298H172.053C169.324 174.533 148.181 177.493 133.506 167.826C124.048 161.599 118.15 150.657 120.039 137.729C121.119 130.34 121.599 124.639 121.694 119.792C121.694 119.78 121.693 119.768 121.693 119.756C121.694 115.945 121.488 112.661 121.17 109.498C116.436 104.7 106.557 95.5567 100.001 95.5557C95.2838 95.5562 88.8443 100.287 83.8398 104.729C83.7088 106.618 83.5449 108.551 83.3447 110.533C82.4025 119.831 82.0029 126.734 82.2207 133.24C82.2224 133.292 82.2215 133.345 82.2226 133.398C82.3973 138.378 82.9344 143.131 83.8691 148.556C85.1891 156.213 80.2958 161.604 72.7803 166.244C54.8291 177.333 30.4471 172.227 27.6338 164.396C21.5627 147.498 28.1628 135.089 27.9228 117.329C27.6739 98.9158 35.287 80.4617 43.4736 69.6084C62.1313 44.8709 75.7764 48.2981 79.3808 60.1025C80.9858 65.3624 82.2408 70.8361 83.0713 76.7236C83.7033 81.2032 84.0882 85.9222 84.1963 90.9688L91.1113 83.6445V75.2764C91.0123 75.2122 90.9164 75.1407 90.8271 75.0576C89.996 74.2843 89.9246 73.0046 90.6846 72.1602C90.7409 72.0974 90.8816 71.9461 91.1113 71.7412V61.9424C91.0125 61.8784 90.9163 61.8075 90.8271 61.7246C89.996 60.9513 89.9246 59.6706 90.6846 58.8262C90.741 58.7633 90.8821 58.6127 91.1113 58.4082V48.6094C91.0123 48.5452 90.9164 48.4737 90.8271 48.3906C89.996 47.6173 89.9246 46.3376 90.6846 45.4932C90.7409 45.4304 90.882 45.2798 91.1113 45.0752V35.2764C91.0123 35.2122 90.9164 35.1407 90.8271 35.0576C89.996 34.2843 89.9246 33.0046 90.6846 32.1602C90.7536 32.0832 90.9509 31.8742 91.2822 31.5947C92.0914 27.5196 95.6883 24.4443 100 24.4443Z"/>
</mask>
<path d="M100 24.4443C104.307 24.4444 107.901 27.5133 108.715 31.582C109.055 31.8664 109.258 32.0782 109.329 32.1553C110.098 33.0086 110.027 34.3249 109.174 35.0938C109.084 35.1743 108.988 35.2443 108.889 35.3066V45.0615C109.126 45.2712 109.271 45.4263 109.329 45.4893C110.098 46.3425 110.027 47.6579 109.174 48.4268C109.084 48.5073 108.988 48.5774 108.889 48.6396V58.3955C109.126 58.605 109.271 58.7593 109.329 58.8223C110.098 59.6755 110.027 60.9909 109.174 61.7598C109.084 61.8403 108.988 61.9104 108.889 61.9727V71.7285C109.126 71.938 109.271 72.0923 109.329 72.1553C110.098 73.0086 110.027 74.3249 109.174 75.0938C109.084 75.1743 108.988 75.2443 108.889 75.3066V83.6445L119.299 94.6719C118.453 87.5537 117.717 78.6376 117.746 65.0742C117.746 64.7491 117.747 64.4213 117.748 64.0908C117.75 63.7641 117.75 63.4346 117.753 63.1025C117.759 62.1996 117.768 61.2765 117.781 60.333C117.867 54.3548 121.002 50.8928 126.462 50.9824C126.638 50.9853 126.817 50.9916 126.998 51.002C127.541 51.0329 128.105 51.0973 128.69 51.1963C129.471 51.3283 130.288 51.5223 131.142 51.7793C131.355 51.8435 131.57 51.9112 131.788 51.9834C132.659 52.2723 133.565 52.6255 134.505 53.0449C135.445 53.4644 136.418 53.9505 137.424 54.5049C139.686 55.7521 142.112 57.3465 144.682 59.3135C144.967 59.532 145.255 59.7547 145.544 59.9824C147.279 61.3492 149.077 62.8829 150.934 64.5908C152.485 66.0183 153.956 67.6381 155.349 69.4277C155.503 69.6267 155.657 69.8281 155.81 70.0312C156.573 71.0461 157.313 72.1124 158.028 73.2266C158.458 73.8952 158.879 74.581 159.291 75.2832C159.841 76.2194 160.376 77.1845 160.895 78.1768C161.675 79.6653 162.421 81.2148 163.135 82.8184C164.324 85.4905 165.422 88.313 166.432 91.2549C166.836 92.4317 167.225 93.6278 167.602 94.8408C167.978 96.0539 168.34 97.284 168.688 98.5293C169.037 99.7743 169.372 101.034 169.693 102.308C170.176 104.218 170.627 106.158 171.05 108.12C171.191 108.774 171.328 109.431 171.462 110.09C171.864 112.067 172.237 114.064 172.582 116.075C173.044 118.773 173.418 121.504 173.714 124.229C174.009 126.953 174.226 129.671 174.376 132.345C175.274 148.387 173.74 162.821 172.054 167.298H172.053C169.324 174.533 148.181 177.493 133.506 167.826C124.048 161.599 118.15 150.657 120.039 137.729C121.119 130.34 121.599 124.639 121.694 119.792C121.694 119.78 121.693 119.768 121.693 119.756C121.694 115.945 121.488 112.661 121.17 109.498C116.436 104.7 106.557 95.5567 100.001 95.5557C95.2838 95.5562 88.8443 100.287 83.8398 104.729C83.7088 106.618 83.5449 108.551 83.3447 110.533C82.4025 119.831 82.0029 126.734 82.2207 133.24C82.2224 133.292 82.2215 133.345 82.2226 133.398C82.3973 138.378 82.9344 143.131 83.8691 148.556C85.1891 156.213 80.2958 161.604 72.7803 166.244C54.8291 177.333 30.4471 172.227 27.6338 164.396C21.5627 147.498 28.1628 135.089 27.9228 117.329C27.6739 98.9158 35.287 80.4617 43.4736 69.6084C62.1313 44.8709 75.7764 48.2981 79.3808 60.1025C80.9858 65.3624 82.2408 70.8361 83.0713 76.7236C83.7033 81.2032 84.0882 85.9222 84.1963 90.9688L91.1113 83.6445V75.2764C91.0123 75.2122 90.9164 75.1407 90.8271 75.0576C89.996 74.2843 89.9246 73.0046 90.6846 72.1602C90.7409 72.0974 90.8816 71.9461 91.1113 71.7412V61.9424C91.0125 61.8784 90.9163 61.8075 90.8271 61.7246C89.996 60.9513 89.9246 59.6706 90.6846 58.8262C90.741 58.7633 90.8821 58.6127 91.1113 58.4082V48.6094C91.0123 48.5452 90.9164 48.4737 90.8271 48.3906C89.996 47.6173 89.9246 46.3376 90.6846 45.4932C90.7409 45.4304 90.882 45.2798 91.1113 45.0752V35.2764C91.0123 35.2122 90.9164 35.1407 90.8271 35.0576C89.996 34.2843 89.9246 33.0046 90.6846 32.1602C90.7536 32.0832 90.9509 31.8742 91.2822 31.5947C92.0914 27.5196 95.6883 24.4443 100 24.4443Z" fill="black"/>
<path d="M100 24.4443L100 18.4443H100V24.4443ZM108.715 31.582L102.831 32.7593C103.1 34.0989 103.817 35.3069 104.864 36.1836L108.715 31.582ZM109.329 32.1553L113.787 28.1389C113.771 28.1218 113.756 28.1048 113.74 28.0879L109.329 32.1553ZM109.174 35.0938L113.185 39.556L113.19 39.5511L109.174 35.0938ZM108.889 35.3066L105.698 30.2251C103.95 31.3228 102.889 33.2422 102.889 35.3066H108.889ZM108.889 45.0615H102.889C102.889 46.7806 103.626 48.4171 104.914 49.556L108.889 45.0615ZM109.329 45.4893L113.787 41.4738C113.772 41.4564 113.756 41.4391 113.74 41.422L109.329 45.4893ZM109.174 48.4268L113.185 52.889L113.191 52.8837L109.174 48.4268ZM108.889 48.6396L105.698 43.5584C103.95 44.6561 102.889 46.5754 102.889 48.6396H108.889ZM108.889 58.3955H102.889C102.889 60.1145 103.626 61.7509 104.914 62.8898L108.889 58.3955ZM109.329 58.8223L113.787 54.8063C113.771 54.7891 113.756 54.772 113.74 54.755L109.329 58.8223ZM109.174 61.7598L113.185 66.222L113.191 66.2163L109.174 61.7598ZM108.889 61.9727L105.697 56.8917C103.95 57.9895 102.889 59.9086 102.889 61.9727H108.889ZM108.889 71.7285H102.889C102.889 73.4476 103.626 75.084 104.914 76.2229L108.889 71.7285ZM109.329 72.1553L113.787 68.1389C113.771 68.1218 113.756 68.1048 113.74 68.0879L109.329 72.1553ZM109.174 75.0938L113.185 79.556L113.19 79.5511L109.174 75.0938ZM108.889 75.3066L105.698 70.2251C103.95 71.3228 102.889 73.2422 102.889 75.3066H108.889ZM108.889 83.6445H102.889C102.889 85.1761 103.474 86.6496 104.526 87.7633L108.889 83.6445ZM119.299 94.6719L114.936 98.7907C116.713 100.673 119.496 101.203 121.841 100.107C124.185 99.0104 125.562 96.5339 125.257 93.9637L119.299 94.6719ZM117.746 65.0742L123.746 65.087L123.746 65.0815L117.746 65.0742ZM117.748 64.0908L111.748 64.062L111.748 64.0665L117.748 64.0908ZM117.753 63.1025L123.753 63.1469L123.753 63.1436L117.753 63.1025ZM117.781 60.333L111.782 60.2465L111.782 60.2474L117.781 60.333ZM126.462 50.9824L126.363 56.9816L126.364 56.9816L126.462 50.9824ZM126.998 51.002L127.34 45.0117L127.34 45.0117L126.998 51.002ZM128.69 51.1963L127.689 57.1122L127.689 57.1122L128.69 51.1963ZM131.142 51.7793L132.872 46.0343L132.872 46.0343L131.142 51.7793ZM131.788 51.9834L129.899 57.6782L129.899 57.6782L131.788 51.9834ZM134.505 53.0449L136.95 47.5658L136.95 47.5658L134.505 53.0449ZM137.424 54.5049L134.527 59.7593L134.527 59.7594L137.424 54.5049ZM144.682 59.3135L148.328 54.5488L148.328 54.5488L144.682 59.3135ZM145.544 59.9824L141.831 64.6954L141.831 64.6954L145.544 59.9824ZM150.934 64.5908L146.872 69.0067L146.872 69.0067L150.934 64.5908ZM155.349 69.4277L160.084 65.7438L160.084 65.7437L155.349 69.4277ZM155.81 70.0312L151.015 73.6385L151.015 73.6386L155.81 70.0312ZM158.028 73.2266L163.077 69.9842L163.077 69.9842L158.028 73.2266ZM159.291 75.2832L154.117 78.3217L154.117 78.3217L159.291 75.2832ZM160.895 78.1768L166.21 75.3925L166.21 75.3924L160.895 78.1768ZM163.135 82.8184L157.653 85.2575L157.653 85.2575L163.135 82.8184ZM166.432 91.2549L172.107 89.3067L172.107 89.3067L166.432 91.2549ZM167.602 94.8408L161.871 96.6176L161.871 96.6176L167.602 94.8408ZM168.688 98.5293L174.466 96.912L174.466 96.912L168.688 98.5293ZM169.693 102.308L163.876 103.776L163.876 103.776L169.693 102.308ZM171.05 108.12L176.916 106.858L176.916 106.858L171.05 108.12ZM171.462 110.09L165.583 111.287L165.583 111.287L171.462 110.09ZM172.582 116.075L166.668 117.088L166.668 117.088L172.582 116.075ZM173.714 124.229L179.679 123.582L179.679 123.582L173.714 124.229ZM174.376 132.345L168.385 132.68L168.385 132.68L174.376 132.345ZM172.054 167.298V173.298C174.551 173.298 176.788 171.751 177.668 169.413L172.054 167.298ZM172.053 167.298V161.298C169.556 161.298 167.32 162.844 166.439 165.18L172.053 167.298ZM133.506 167.826L136.806 162.816L136.805 162.815L133.506 167.826ZM120.039 137.729L114.102 136.861L114.102 136.861L120.039 137.729ZM121.694 119.792L127.693 119.91C127.694 119.864 127.694 119.818 127.694 119.772L121.694 119.792ZM121.693 119.756L115.693 119.754L115.693 119.756L121.693 119.756ZM121.17 109.498L127.14 108.898C127.003 107.535 126.403 106.259 125.441 105.284L121.17 109.498ZM100.001 95.5557L100.002 89.5557L100 89.5557L100.001 95.5557ZM83.8398 104.729L79.8569 100.241C78.6819 101.284 77.9629 102.746 77.8542 104.313L83.8398 104.729ZM83.3447 110.533L89.3141 111.138L89.3143 111.136L83.3447 110.533ZM82.2207 133.24L76.224 133.441L76.2241 133.441L82.2207 133.24ZM82.2226 133.398L76.224 133.527C76.2246 133.555 76.2254 133.582 76.2263 133.609L82.2226 133.398ZM83.8691 148.556L77.9563 149.575L77.9563 149.575L83.8691 148.556ZM72.7803 166.244L69.6283 161.139L69.627 161.14L72.7803 166.244ZM27.6338 164.396L33.2804 162.367L33.2804 162.367L27.6338 164.396ZM27.9228 117.329L33.9223 117.248L33.9223 117.248L27.9228 117.329ZM43.4736 69.6084L48.2637 73.2216L48.2639 73.2213L43.4736 69.6084ZM79.3808 60.1025L85.1196 58.3515L85.1193 58.3503L79.3808 60.1025ZM83.0713 76.7236L77.1301 77.5616L77.1301 77.5619L83.0713 76.7236ZM84.1963 90.9688L78.1976 91.0972C78.2498 93.5314 79.7678 95.6928 82.0398 96.5678C84.3119 97.4429 86.8876 96.8582 88.559 95.0878L84.1963 90.9688ZM91.1113 83.6445L95.4741 87.7636C96.5256 86.6498 97.1113 85.1762 97.1113 83.6445H91.1113ZM91.1113 75.2764H97.1113C97.1113 73.2423 96.0807 71.3467 94.3736 70.2407L91.1113 75.2764ZM90.8271 75.0576L86.7399 79.4502L86.7404 79.4506L90.8271 75.0576ZM90.6846 72.1602L95.1444 76.1738L95.15 76.1676L90.6846 72.1602ZM91.1113 71.7412L95.1061 76.218C96.3819 75.0796 97.1113 73.451 97.1113 71.7412H91.1113ZM91.1113 61.9424H97.1113C97.1113 59.9073 96.0797 58.0109 94.3712 56.9052L91.1113 61.9424ZM90.8271 61.7246L86.7399 66.1172L86.7409 66.1181L90.8271 61.7246ZM90.6846 58.8262L95.1443 62.84L95.1493 62.8344L90.6846 58.8262ZM91.1113 58.4082L95.1062 62.8849C96.3819 61.7465 97.1113 60.1179 97.1113 58.4082H91.1113ZM91.1113 48.6094H97.1113C97.1113 46.5755 96.0809 44.68 94.374 43.574L91.1113 48.6094ZM90.8271 48.3906L86.7399 52.7832L86.7399 52.7832L90.8271 48.3906ZM90.6846 45.4932L95.1443 49.507L95.1497 49.501L90.6846 45.4932ZM91.1113 45.0752L95.1064 49.5517C96.382 48.4134 97.1113 46.7849 97.1113 45.0752H91.1113ZM91.1113 35.2764H97.1113C97.1113 33.2423 96.0807 31.3467 94.3736 30.2407L91.1113 35.2764ZM90.8271 35.0576L86.7399 39.4502L86.7404 39.4506L90.8271 35.0576ZM90.6846 32.1602L95.1444 36.1738L95.15 36.1676L90.6846 32.1602ZM91.2822 31.5947L95.1508 36.181C96.1911 35.3035 96.9022 34.0983 97.1673 32.7633L91.2822 31.5947ZM100 24.4443L99.9999 30.4443C101.389 30.4444 102.567 31.4372 102.831 32.7593L108.715 31.582L114.598 30.4048C113.234 23.5893 107.225 18.4444 100 18.4443L100 24.4443ZM108.715 31.582L104.864 36.1836C104.984 36.2834 105.001 36.3127 104.918 36.2227L109.329 32.1553L113.74 28.0879C113.515 27.8438 113.126 27.4495 112.565 26.9804L108.715 31.582ZM109.329 32.1553L104.872 36.1716C103.414 34.5539 103.558 32.0773 105.157 30.6364L109.174 35.0938L113.19 39.5511C116.496 36.5724 116.782 31.4633 113.787 28.1389L109.329 32.1553ZM109.174 35.0938L105.163 30.6315C105.375 30.4404 105.566 30.3084 105.698 30.2251L108.889 35.3066L112.079 40.3882C112.41 40.1802 112.793 39.9083 113.185 39.556L109.174 35.0938ZM108.889 35.3066H102.889V45.0615H108.889H114.889V35.3066H108.889ZM108.889 45.0615L104.914 49.556C104.938 49.5772 104.948 49.5872 104.944 49.5835C104.942 49.5817 104.938 49.5775 104.932 49.5709C104.928 49.5676 104.925 49.5644 104.923 49.5614C104.92 49.5583 104.918 49.5562 104.918 49.5566L109.329 45.4893L113.74 41.422C113.59 41.2595 113.297 40.9503 112.864 40.567L108.889 45.0615ZM109.329 45.4893L104.871 49.5048C103.414 47.8874 103.558 45.4109 105.157 43.9698L109.174 48.4268L113.191 52.8837C116.496 49.9049 116.781 44.7976 113.787 41.4738L109.329 45.4893ZM109.174 48.4268L105.163 43.9645C105.376 43.7731 105.566 43.6414 105.698 43.5584L108.889 48.6396L112.079 53.7209C112.41 53.5133 112.793 53.2415 113.185 52.889L109.174 48.4268ZM108.889 48.6396H102.889V58.3955H108.889H114.889V48.6396H108.889ZM108.889 58.3955L104.914 62.8898C104.941 62.914 104.953 62.9265 104.951 62.9242C104.95 62.9231 104.946 62.919 104.939 62.9118C104.936 62.9083 104.932 62.9044 104.928 62.9002C104.924 62.8959 104.921 62.8922 104.918 62.8896L109.329 58.8223L113.74 54.755C113.58 54.5809 113.288 54.2763 112.864 53.9012L108.889 58.3955ZM109.329 58.8223L104.871 62.8383C103.413 61.2198 103.559 58.7433 105.156 57.3033L109.174 61.7598L113.191 66.2163C116.495 63.2384 116.782 58.1312 113.787 54.8063L109.329 58.8223ZM109.174 61.7598L105.163 57.2975C105.376 57.1059 105.566 56.9743 105.697 56.8917L108.889 61.9727L112.08 67.0536C112.41 66.8465 112.793 66.5746 113.185 66.222L109.174 61.7598ZM108.889 61.9727H102.889V71.7285H108.889H114.889V61.9727H108.889ZM108.889 71.7285L104.914 76.2229C104.941 76.2471 104.953 76.2595 104.951 76.2572C104.95 76.256 104.946 76.2519 104.939 76.2447C104.935 76.2412 104.932 76.2373 104.928 76.2331C104.924 76.2289 104.921 76.2252 104.918 76.2227L109.329 72.1553L113.74 68.0879C113.58 67.914 113.288 67.6094 112.864 67.2341L108.889 71.7285ZM109.329 72.1553L104.872 76.1716C103.414 74.5539 103.558 72.0773 105.157 70.6364L109.174 75.0938L113.19 79.5511C116.496 76.5724 116.782 71.4633 113.787 68.1389L109.329 72.1553ZM109.174 75.0938L105.163 70.6315C105.375 70.4404 105.566 70.3084 105.698 70.2251L108.889 75.3066L112.079 80.3881C112.41 80.1802 112.793 79.9083 113.185 79.556L109.174 75.0938ZM108.889 75.3066H102.889V83.6445H108.889H114.889V75.3066H108.889ZM108.889 83.6445L104.526 87.7633L114.936 98.7907L119.299 94.6719L123.662 90.5531L113.252 79.5257L108.889 83.6445ZM119.299 94.6719L125.257 93.9637C124.438 87.0746 123.718 78.3995 123.746 65.087L117.746 65.0742L111.746 65.0614C111.717 78.8758 112.467 88.0327 113.341 95.38L119.299 94.6719ZM117.746 65.0742L123.746 65.0815C123.746 64.7515 123.747 64.4348 123.748 64.1152L117.748 64.0908L111.748 64.0665C111.747 64.4078 111.746 64.7467 111.746 65.067L117.746 65.0742ZM117.748 64.0908L123.748 64.1196C123.75 63.7748 123.75 63.4692 123.753 63.1469L117.753 63.1025L111.753 63.0582C111.751 63.4001 111.75 63.7533 111.748 64.062L117.748 64.0908ZM117.753 63.1025L123.753 63.1436C123.759 62.2509 123.767 61.3432 123.781 60.4186L117.781 60.333L111.782 60.2474C111.768 61.2097 111.759 62.1482 111.753 63.0614L117.753 63.1025ZM117.781 60.333L123.781 60.4195C123.81 58.3999 124.34 57.6422 124.517 57.4498C124.606 57.3538 124.973 56.9588 126.363 56.9816L126.462 50.9824L126.56 44.9832C122.491 44.9165 118.561 46.2076 115.696 49.3148C112.919 52.3255 111.839 56.288 111.782 60.2465L117.781 60.333ZM126.462 50.9824L126.364 56.9816C126.463 56.9832 126.56 56.9867 126.657 56.9922L126.998 51.002L127.34 45.0117C127.073 44.9965 126.813 44.9874 126.56 44.9832L126.462 50.9824ZM126.998 51.002L126.656 56.9922C126.964 57.0098 127.308 57.0476 127.689 57.1122L128.69 51.1963L129.692 45.2804C128.903 45.1469 128.118 45.0561 127.34 45.0117L126.998 51.002ZM128.69 51.1963L127.689 57.1122C128.198 57.1983 128.771 57.3316 129.411 57.5243L131.142 51.7793L132.872 46.0343C131.805 45.7129 130.744 45.4584 129.691 45.2804L128.69 51.1963ZM131.142 51.7793L129.411 57.5243C129.58 57.5751 129.742 57.6261 129.899 57.6782L131.788 51.9834L133.677 46.2886C133.399 46.1963 133.13 46.1119 132.872 46.0343L131.142 51.7793ZM131.788 51.9834L129.899 57.6782C130.564 57.8989 131.285 58.1782 132.06 58.5241L134.505 53.0449L136.95 47.5658C135.845 47.0728 134.754 46.6457 133.677 46.2886L131.788 51.9834ZM134.505 53.0449L132.06 58.524C132.833 58.8691 133.656 59.2789 134.527 59.7593L137.424 54.5049L140.321 49.2504C139.181 48.6221 138.057 48.0596 136.95 47.5658L134.505 53.0449ZM137.424 54.5049L134.527 59.7594C136.489 60.841 138.665 62.264 141.035 64.0782L144.682 59.3135L148.328 54.5488C145.558 52.429 142.883 50.6633 140.32 49.2504L137.424 54.5049ZM144.682 59.3135L141.035 64.0782C141.303 64.2835 141.568 64.4886 141.831 64.6954L145.544 59.9824L149.257 55.2694C148.941 55.0207 148.631 54.7805 148.328 54.5488L144.682 59.3135ZM145.544 59.9824L141.831 64.6954C143.436 65.9597 145.118 67.3933 146.872 69.0067L150.934 64.5908L154.996 60.175C153.036 58.3726 151.122 56.7386 149.257 55.2694L145.544 59.9824ZM150.934 64.5908L146.872 69.0067C148.151 70.1834 149.4 71.5522 150.613 73.1117L155.349 69.4277L160.084 65.7437C158.513 63.724 156.82 61.8533 154.996 60.1749L150.934 64.5908ZM155.349 69.4277L150.613 73.1117C150.742 73.2782 150.875 73.4528 151.015 73.6385L155.81 70.0312L160.604 66.424C160.438 66.2035 160.265 65.9752 160.084 65.7438L155.349 69.4277ZM155.81 70.0312L151.015 73.6386C151.684 74.5277 152.339 75.4717 152.98 76.4689L158.028 73.2266L163.077 69.9842C162.286 68.7532 161.462 67.5645 160.604 66.4239L155.81 70.0312ZM158.028 73.2266L152.98 76.4689C153.364 77.0679 153.744 77.6856 154.117 78.3217L159.291 75.2832L164.465 72.2448C164.014 71.4765 163.551 70.7225 163.077 69.9842L158.028 73.2266ZM159.291 75.2832L154.117 78.3217C154.616 79.1705 155.104 80.0507 155.581 80.9611L160.895 78.1768L166.21 75.3924C165.648 74.3183 165.066 73.2682 164.465 72.2447L159.291 75.2832ZM160.895 78.1768L155.581 80.9611C156.296 82.3272 156.987 83.761 157.653 85.2575L163.135 82.8184L168.617 80.3793C167.856 78.6687 167.054 77.0033 166.21 75.3925L160.895 78.1768ZM163.135 82.8184L157.653 85.2575C158.762 87.751 159.797 90.408 160.757 93.2031L166.432 91.2549L172.107 89.3067C171.046 86.2181 169.885 83.23 168.617 80.3792L163.135 82.8184ZM166.432 91.2549L160.757 93.2031C161.14 94.3203 161.511 95.4591 161.871 96.6176L167.602 94.8408L173.332 93.0641C172.939 91.7965 172.531 90.5432 172.107 89.3067L166.432 91.2549ZM167.602 94.8408L161.871 96.6176C162.23 97.7758 162.576 98.9527 162.911 100.147L168.688 98.5293L174.466 96.912C174.103 95.6153 173.726 94.332 173.332 93.0641L167.602 94.8408ZM168.688 98.5293L162.911 100.147C163.245 101.341 163.567 102.551 163.876 103.776L169.693 102.308L175.511 100.839C175.177 99.5174 174.829 98.2077 174.466 96.912L168.688 98.5293ZM169.693 102.308L163.876 103.776C164.34 105.615 164.776 107.485 165.184 109.382L171.05 108.12L176.916 106.858C176.479 104.83 176.011 102.821 175.511 100.839L169.693 102.308ZM171.05 108.12L165.184 109.382C165.32 110.013 165.452 110.648 165.583 111.287L171.462 110.09L177.341 108.892C177.203 108.214 177.061 107.536 176.916 106.858L171.05 108.12ZM171.462 110.09L165.583 111.287C165.972 113.2 166.334 115.136 166.668 117.088L172.582 116.075L178.496 115.062C178.141 112.992 177.757 110.934 177.341 108.892L171.462 110.09ZM172.582 116.075L166.668 117.088C167.108 119.654 167.465 122.262 167.749 124.875L173.714 124.229L179.679 123.582C179.371 120.746 178.981 117.892 178.496 115.062L172.582 116.075ZM173.714 124.229L167.749 124.875C168.032 127.488 168.241 130.102 168.385 132.68L174.376 132.345L180.367 132.009C180.212 129.24 179.986 126.417 179.679 123.582L173.714 124.229ZM174.376 132.345L168.385 132.68C168.819 140.427 168.664 147.777 168.202 153.691C167.722 159.843 166.954 163.815 166.439 165.182L172.054 167.298L177.668 169.413C178.84 166.304 179.682 160.82 180.166 154.625C180.668 148.192 180.831 140.305 180.367 132.009L174.376 132.345ZM172.054 167.298V161.298H172.053V167.298V173.298H172.054V167.298ZM172.053 167.298L166.439 165.18C166.588 164.786 166.501 165.43 164.522 166.302C162.731 167.092 160.108 167.724 156.909 167.911C150.481 168.286 142.867 166.808 136.806 162.816L133.506 167.826L130.205 172.837C138.82 178.511 149.115 180.386 157.609 179.89C161.871 179.641 165.963 178.781 169.362 177.283C172.573 175.867 176.153 173.427 177.667 169.415L172.053 167.298ZM133.506 167.826L136.805 162.815C129.14 157.768 124.45 149.042 125.976 138.596L120.039 137.729L114.102 136.861C111.851 152.272 118.957 165.431 130.206 172.838L133.506 167.826ZM120.039 137.729L125.976 138.596C127.083 131.023 127.591 125.066 127.693 119.91L121.694 119.792L115.695 119.674C115.606 124.213 115.155 129.656 114.102 136.861L120.039 137.729ZM121.694 119.792L127.694 119.772C127.694 119.734 127.694 119.699 127.693 119.67C127.693 119.641 127.692 119.616 127.691 119.597C127.691 119.578 127.69 119.562 127.69 119.552C127.69 119.547 127.689 119.543 127.689 119.54C127.689 119.539 127.689 119.538 127.689 119.537C127.689 119.537 127.689 119.536 127.689 119.536C127.689 119.536 127.689 119.536 127.689 119.536C127.689 119.535 127.689 119.537 127.689 119.538C127.689 119.54 127.689 119.544 127.69 119.548C127.69 119.556 127.69 119.571 127.691 119.589C127.691 119.607 127.692 119.63 127.693 119.658C127.693 119.686 127.693 119.719 127.693 119.756L121.693 119.756L115.693 119.756C115.693 119.835 115.695 119.9 115.696 119.941C115.697 119.962 115.697 119.979 115.698 119.991C115.698 120.002 115.698 120.011 115.699 120.012C115.699 120.016 115.698 120.011 115.698 120.005C115.698 119.998 115.698 119.985 115.697 119.969C115.696 119.937 115.695 119.882 115.694 119.812L121.694 119.792ZM121.693 119.756L127.693 119.757C127.694 115.716 127.474 112.229 127.14 108.898L121.17 109.498L115.2 110.098C115.501 113.094 115.694 116.175 115.693 119.754L121.693 119.756ZM121.17 109.498L125.441 105.284C122.982 102.792 119.084 99.0624 114.849 95.9133C112.732 94.339 110.404 92.814 108.027 91.6615C105.724 90.5443 102.931 89.5561 100.002 89.5557L100.001 95.5557L100 101.556C100.349 101.556 101.249 101.711 102.79 102.458C104.258 103.17 105.925 104.231 107.689 105.543C111.215 108.165 114.624 111.406 116.899 113.712L121.17 109.498ZM100.001 95.5557L100 89.5557C95.9122 89.5562 91.931 91.4919 88.8844 93.3662C85.6431 95.3601 82.4895 97.9045 79.8569 100.241L83.8398 104.729L87.8227 109.216C90.1946 107.111 92.7631 105.069 95.172 103.587C97.7755 101.985 99.3726 101.556 100.002 101.556L100.001 95.5557ZM83.8398 104.729L77.8542 104.313C77.7276 106.14 77.5689 108.011 77.3751 109.93L83.3447 110.533L89.3143 111.136C89.5208 109.092 89.6901 107.096 89.8255 105.144L83.8398 104.729ZM83.3447 110.533L77.3753 109.928C76.4221 119.335 75.9932 126.543 76.224 133.441L82.2207 133.24L88.2173 133.04C88.0127 126.925 88.3829 120.327 89.3141 111.138L83.3447 110.533ZM82.2207 133.24L76.2241 133.441C76.2228 133.403 76.2223 133.374 76.2221 133.36C76.2219 133.346 76.2219 133.338 76.222 133.348C76.222 133.35 76.222 133.352 76.222 133.355C76.222 133.359 76.222 133.363 76.222 133.367C76.2221 133.376 76.2222 133.389 76.2223 133.404C76.2225 133.433 76.2229 133.476 76.224 133.527L82.2226 133.398L88.2213 133.269C88.2218 133.294 88.2219 133.311 88.2219 133.313C88.2219 133.314 88.2219 133.314 88.2219 133.31C88.2219 133.308 88.2219 133.306 88.2219 133.302C88.2219 133.299 88.2218 133.295 88.2218 133.29C88.2217 133.273 88.2216 133.239 88.221 133.199C88.2205 133.158 88.2195 133.103 88.2173 133.039L82.2207 133.24ZM82.2226 133.398L76.2263 133.609C76.4122 138.908 76.9845 143.936 77.9563 149.575L83.8691 148.556L89.782 147.537C88.8842 142.327 88.3824 137.847 88.219 133.188L82.2226 133.398ZM83.8691 148.556L77.9563 149.575C78.6033 153.328 76.7492 156.742 69.6283 161.139L72.7803 166.244L75.9323 171.35C83.8423 166.466 91.7749 159.099 89.7819 147.536L83.8691 148.556ZM72.7803 166.244L69.627 161.14C61.9911 165.856 52.7882 167.211 45.1276 166.445C41.3108 166.063 38.1358 165.178 35.9244 164.128C33.4657 162.96 33.1791 162.085 33.2804 162.367L27.6338 164.396L21.9871 166.424C23.4951 170.622 27.3112 173.322 30.7764 174.967C34.4888 176.73 39.0589 177.897 43.9331 178.385C53.6547 179.357 65.6183 177.721 75.9335 171.349L72.7803 166.244ZM27.6338 164.396L33.2804 162.367C30.6866 155.147 30.742 148.867 31.5518 141.876C32.3366 135.101 34.0492 126.639 33.9223 117.248L27.9228 117.329L21.9234 117.41C22.0365 125.779 20.569 132.402 19.6315 140.495C18.7189 148.373 18.5099 156.746 21.9872 166.424L27.6338 164.396ZM27.9228 117.329L33.9223 117.248C33.6937 100.333 40.7723 83.1532 48.2637 73.2216L43.4736 69.6084L38.6835 65.9952C29.8016 77.7703 21.6542 97.4985 21.9234 117.41L27.9228 117.329ZM43.4736 69.6084L48.2639 73.2213C57.3331 61.1968 64.1145 57.56 67.8027 57.1076C69.4202 56.9092 70.4545 57.301 71.2201 57.8886C72.0833 58.5512 73.0144 59.7981 73.6424 61.8548L79.3808 60.1025L85.1193 58.3503C83.9451 54.5048 81.8188 50.8966 78.5268 48.3696C75.1371 45.7677 70.9182 44.6355 66.3417 45.1969C57.6418 46.2641 48.2718 53.2825 38.6834 65.9955L43.4736 69.6084ZM79.3808 60.1025L73.6421 61.8536C75.1608 66.8309 76.3455 71.9994 77.1301 77.5616L83.0713 76.7236L89.0125 75.8856C88.1361 69.6728 86.8108 63.894 85.1196 58.3515L79.3808 60.1025ZM83.0713 76.7236L77.1301 77.5619C77.7275 81.7957 78.0944 86.2773 78.1976 91.0972L84.1963 90.9688L90.1949 90.8403C90.082 85.5671 89.6791 80.6106 89.0124 75.8854L83.0713 76.7236ZM84.1963 90.9688L88.559 95.0878L95.4741 87.7636L91.1113 83.6445L86.7486 79.5255L79.8335 86.8497L84.1963 90.9688ZM91.1113 83.6445H97.1113V75.2764H91.1113H85.1113V83.6445H91.1113ZM91.1113 75.2764L94.3736 70.2407C94.4979 70.3213 94.6932 70.4593 94.9139 70.6646L90.8271 75.0576L86.7404 79.4506C87.1396 79.822 87.5267 80.1032 87.849 80.312L91.1113 75.2764ZM90.8271 75.0576L94.9143 70.665C96.424 72.0697 96.6267 74.5268 95.1444 76.1738L90.6846 72.1602L86.2247 68.1465C83.2225 71.4824 83.5681 76.4989 86.7399 79.4502L90.8271 75.0576ZM90.6846 72.1602L95.15 76.1676C95.1163 76.2052 95.0946 76.2276 95.0855 76.2367C95.0773 76.245 95.084 76.2377 95.1061 76.218L91.1113 71.7412L87.1165 67.2644C86.6997 67.6364 86.4027 67.9481 86.2191 68.1527L90.6846 72.1602ZM91.1113 71.7412H97.1113V61.9424H91.1113H85.1113V71.7412H91.1113ZM91.1113 61.9424L94.3712 56.9052C94.475 56.9724 94.6776 57.1118 94.9134 57.3311L90.8271 61.7246L86.7409 66.1181C87.155 66.5032 87.55 66.7845 87.8514 66.9796L91.1113 61.9424ZM90.8271 61.7246L94.9143 57.332C96.424 58.7368 96.6266 61.193 95.1443 62.84L90.6846 58.8262L86.2248 54.8124C83.2225 58.1483 83.568 63.1658 86.7399 66.1172L90.8271 61.7246ZM90.6846 58.8262L95.1493 62.8344C95.1084 62.8799 95.0847 62.9041 95.0782 62.9105C95.0715 62.9172 95.0808 62.9076 95.1062 62.8849L91.1113 58.4082L87.1164 53.9315C86.71 54.2942 86.4129 54.6028 86.2198 54.8179L90.6846 58.8262ZM91.1113 58.4082H97.1113V48.6094H91.1113H85.1113V58.4082H91.1113ZM91.1113 48.6094L94.374 43.574C94.4973 43.6539 94.6929 43.792 94.9143 43.998L90.8271 48.3906L86.7399 52.7832C87.1399 53.1554 87.5273 53.4366 87.8486 53.6447L91.1113 48.6094ZM90.8271 48.3906L94.9143 43.998C96.4238 45.4026 96.6268 47.8598 95.1443 49.507L90.6846 45.4932L86.2248 41.4794C83.2223 44.8155 83.5682 49.832 86.7399 52.7832L90.8271 48.3906ZM90.6846 45.4932L95.1497 49.501C95.1085 49.5469 95.0845 49.5712 95.0782 49.5776C95.0715 49.5843 95.0808 49.5746 95.1064 49.5517L91.1113 45.0752L87.1163 40.5986C86.71 40.9612 86.4128 41.2699 86.2194 41.4854L90.6846 45.4932ZM91.1113 45.0752H97.1113V35.2764H91.1113H85.1113V45.0752H91.1113ZM91.1113 35.2764L94.3736 30.2407C94.4979 30.3213 94.6932 30.4593 94.9139 30.6646L90.8271 35.0576L86.7404 39.4506C87.1396 39.822 87.5267 40.1032 87.849 40.312L91.1113 35.2764ZM90.8271 35.0576L94.9143 30.665C96.424 32.0697 96.6267 34.5268 95.1444 36.1738L90.6846 32.1602L86.2247 28.1465C83.2225 31.4824 83.5681 36.4989 86.7399 39.4502L90.8271 35.0576ZM90.6846 32.1602L95.15 36.1676C95.1355 36.1838 95.1233 36.1971 95.1135 36.2077C95.1036 36.2184 95.0955 36.2269 95.0893 36.2333C95.0769 36.2462 95.0711 36.2519 95.0719 36.2511C95.0736 36.2494 95.0998 36.224 95.1508 36.181L91.2822 31.5947L87.4136 27.0084C86.8565 27.4784 86.4611 27.883 86.2191 28.1527L90.6846 32.1602ZM91.2822 31.5947L97.1673 32.7633C97.4302 31.4396 98.6092 30.4443 100 30.4443V24.4443V18.4443C92.7674 18.4443 86.7526 23.5996 85.3971 30.4261L91.2822 31.5947Z" fill="white" mask="url(#path-1-outside-1_1062_29973)"/>
<path d="M129.444 105.418L108.889 83.6445V33.3333C108.889 28.4267 104.907 24.4445 99.9999 24.4445C95.0932 24.4445 91.111 28.4267 91.111 33.3333V83.6445L70.5554 105.422C68.6354 106.956 68.3288 109.751 69.8621 111.671C70.7421 112.764 72.031 113.333 73.3332 113.333C74.3066 113.333 75.2888 113.018 76.1066 112.36C76.111 112.36 91.111 95.5556 99.9999 95.5556C108.889 95.5556 123.889 112.36 123.889 112.36C124.711 113.018 125.689 113.333 126.662 113.333C127.969 113.333 129.258 112.76 130.138 111.667C131.671 109.747 131.36 106.951 129.444 105.418Z" fill="#7AB9F8"/>
<path d="M130.14 107.222C129.26 108.316 127.971 108.889 126.664 108.889C125.691 108.889 124.713 108.573 123.891 107.916C123.891 107.916 108.891 91.1111 100.002 91.1111C91.113 91.1111 76.113 107.916 76.113 107.916C75.2907 108.573 74.313 108.889 73.3352 108.889C72.033 108.889 70.7396 108.32 69.8641 107.222C69.7174 107.036 69.6685 106.818 69.553 106.618C68.6241 108.164 68.6685 110.173 69.8641 111.667C70.7441 112.764 72.033 113.333 73.3352 113.333C74.3085 113.333 75.2907 113.018 76.1085 112.36C76.113 112.36 91.113 95.5555 100.002 95.5555C108.891 95.5555 123.891 112.36 123.891 112.36C124.713 113.018 125.691 113.333 126.664 113.333C127.971 113.333 129.26 112.76 130.14 111.667C131.331 110.173 131.375 108.164 130.451 106.618C130.335 106.818 130.286 107.04 130.14 107.222Z" fill="#549AE0"/>
<path d="M79.3805 60.1022C75.776 48.2978 62.1316 44.8711 43.4738 69.6089C35.2872 80.4622 27.6738 98.9156 27.9227 117.329C28.1627 135.089 21.5627 147.498 27.6338 164.396C30.4472 172.227 54.8294 177.333 72.7805 166.244C80.296 161.604 85.1894 156.213 83.8694 148.556C81.7049 135.996 81.6694 127.031 83.3405 110.538C85.4516 89.6756 83.6605 74.1289 79.3805 60.1022Z" fill="#276288"/>
<path d="M79.3805 60.1022C75.776 48.2978 62.1316 44.8711 43.4738 69.6089C35.2872 80.4622 27.6738 98.9156 27.9227 117.329C28.1627 135.089 21.5627 147.498 27.6338 164.396C34.5005 153.569 54.3005 165.187 72.256 154.098C79.7716 149.458 82.3894 138.276 82.2205 133.24C82.0027 126.733 82.4027 119.831 83.3449 110.533C85.4516 89.6756 83.6605 74.1289 79.3805 60.1022Z" fill="#4B9AE8"/>
<path d="M117.782 60.3333C117.96 47.9911 131.128 46.3733 150.933 64.5911C161.968 74.7422 168.906 94.6222 172.582 116.076C176.28 137.658 174.302 161.329 172.053 167.298C169.324 174.533 148.182 177.493 133.506 167.827C124.048 161.6 118.151 150.658 120.04 137.729C125.057 103.404 117.137 105.516 117.782 60.3333Z" fill="#276288"/>
<path d="M117.782 60.3334C117.96 47.9912 131.129 46.3734 150.933 64.5912C161.969 74.7423 168.907 94.6223 172.582 116.076C176.28 137.658 174.302 161.329 172.053 167.298C170.733 153.569 155.684 160.96 139.578 153.831C134.738 151.689 132.844 149.716 133.24 139.044C133.769 124.787 121.693 129.276 121.693 119.756C121.698 102.111 117.276 95.7689 117.782 60.3334ZM107.782 35.6267C107.213 35.6267 106.649 35.3956 106.236 34.9378C106.182 34.8801 104.262 32.9334 100.004 32.9334C95.7467 32.9334 93.8312 34.8756 93.7512 34.9601C92.9645 35.7823 91.6578 35.8312 90.8267 35.0578C89.9956 34.2845 89.9245 33.0045 90.6845 32.1601C90.9956 31.8134 93.8978 28.7778 100.004 28.7778C106.111 28.7778 109.013 31.8134 109.329 32.1556C110.098 33.0089 110.027 34.3245 109.173 35.0934C108.778 35.4489 108.276 35.6267 107.782 35.6267ZM107.782 48.9601C107.213 48.9601 106.649 48.7289 106.236 48.2712C106.182 48.2134 104.262 46.2667 100.004 46.2667C95.7467 46.2667 93.8312 48.2089 93.7512 48.2934C92.9645 49.1156 91.6578 49.1645 90.8267 48.3912C89.9956 47.6178 89.9245 46.3378 90.6845 45.4934C90.9956 45.1467 93.8978 42.1112 100.004 42.1112C106.111 42.1112 109.013 45.1467 109.329 45.4889C110.098 46.3423 110.027 47.6578 109.173 48.4267C108.778 48.7823 108.276 48.9601 107.782 48.9601ZM107.782 62.2934C107.213 62.2934 106.649 62.0623 106.236 61.6045C106.182 61.5467 104.262 59.6001 100.004 59.6001C95.7467 59.6001 93.8312 61.5423 93.7512 61.6267C92.9645 62.4445 91.6578 62.4978 90.8267 61.7245C89.9956 60.9512 89.9245 59.6712 90.6845 58.8267C90.9956 58.4801 93.8978 55.4445 100.004 55.4445C106.111 55.4445 109.013 58.4801 109.329 58.8223C110.098 59.6756 110.027 60.9912 109.173 61.7601C108.778 62.1156 108.276 62.2934 107.782 62.2934ZM107.782 75.6267C107.213 75.6267 106.649 75.3956 106.236 74.9378C106.182 74.8801 104.262 72.9334 100.004 72.9334C95.7467 72.9334 93.8312 74.8756 93.7512 74.9601C92.9645 75.7823 91.6578 75.8312 90.8267 75.0578C89.9956 74.2845 89.9245 73.0045 90.6845 72.1601C90.9956 71.8134 93.8978 68.7778 100.004 68.7778C106.111 68.7778 109.013 71.8134 109.329 72.1556C110.098 73.0089 110.027 74.3245 109.173 75.0934C108.778 75.4489 108.276 75.6267 107.782 75.6267Z" fill="#4B9AE8"/>
<path d="M53.2524 151.505C58.3624 151.505 62.5048 147.362 62.5048 142.252C62.5048 137.142 58.3624 133 53.2524 133C48.1425 133 44 137.142 44 142.252C44 147.362 48.1425 151.505 53.2524 151.505Z" fill="white"/>
<path d="M53.1076 147.866C56.1711 147.866 58.6546 145.383 58.6546 142.319C58.6546 139.256 56.1711 136.772 53.1076 136.772C50.044 136.772 47.5605 139.256 47.5605 142.319C47.5605 145.383 50.044 147.866 53.1076 147.866Z" fill="black"/>
<path d="M155.252 151.505C160.362 151.505 164.505 147.362 164.505 142.252C164.505 137.142 160.362 133 155.252 133C150.142 133 146 137.142 146 142.252C146 147.362 150.142 151.505 155.252 151.505Z" fill="white"/>
<path d="M155.108 147.866C158.171 147.866 160.655 145.383 160.655 142.319C160.655 139.256 158.171 136.772 155.108 136.772C152.044 136.772 149.561 139.256 149.561 142.319C149.561 145.383 152.044 147.866 155.108 147.866Z" fill="black"/>
</svg>
