<svg width="200" height="200" viewBox="0 0 200 200" fill="none" xmlns="http://www.w3.org/2000/svg">
<mask id="path-1-outside-1_898_3182" maskUnits="userSpaceOnUse" x="22" y="30.5" width="156" height="147" fill="black">
<rect fill="white" x="22" y="30.5" width="156" height="147"/>
<path d="M100.022 36.5C144.522 36.5001 175.925 65.2188 170.361 96.5508C164.797 127.883 137.792 171 98.9452 171C60.0982 171 34.9257 126.733 29.6835 96.5508C24.4414 66.3686 49.4932 36.5 100.022 36.5Z"/>
</mask>
<path d="M100.022 36.5C144.522 36.5001 175.925 65.2188 170.361 96.5508C164.797 127.883 137.792 171 98.9452 171C60.0982 171 34.9257 126.733 29.6835 96.5508C24.4414 66.3686 49.4932 36.5 100.022 36.5Z" fill="#204207"/>
<path d="M100.022 36.5L100.022 30.5H100.022V36.5ZM170.361 96.5508L176.269 97.5999L176.269 97.5999L170.361 96.5508ZM98.9452 171L98.9452 177L98.9452 177L98.9452 171ZM29.6835 96.5508L23.772 97.5775L23.772 97.5775L29.6835 96.5508ZM100.022 36.5L100.022 42.5C121.023 42.5 138.539 49.2787 150.021 59.297C161.468 69.2842 166.8 82.2892 164.454 95.5017L170.361 96.5508L176.269 97.5999C179.487 79.4804 171.899 62.46 157.91 50.2549C143.957 38.0808 123.522 30.5 100.022 30.5L100.022 36.5ZM170.361 96.5508L164.454 95.5017C161.852 110.15 154.154 127.793 142.534 141.673C130.918 155.549 115.991 165 98.9452 165L98.9452 171L98.9452 177C120.747 177 138.746 164.892 151.735 149.376C164.72 133.865 173.306 114.283 176.269 97.5999L170.361 96.5508ZM98.9452 171V165C81.9986 165 67.5504 155.366 56.4081 141.359C45.2622 127.347 38.0532 109.678 35.595 95.524L29.6835 96.5508L23.772 97.5775C26.5559 113.606 34.5544 133.162 47.0169 148.829C59.4832 164.501 77.0448 177 98.9452 177V171ZM29.6835 96.5508L35.595 95.5241C33.3295 82.4803 37.5499 69.4749 48.0543 59.5731C58.6152 49.6178 75.9065 42.5 100.022 42.5V36.5V30.5C73.609 30.5 53.1098 38.3165 39.8231 50.8411C26.4797 63.4191 20.7953 80.4391 23.772 97.5775L29.6835 96.5508Z" fill="white" mask="url(#path-1-outside-1_898_3182)"/>
<path d="M170.361 96.5506C164.797 127.883 137.793 171 98.9454 171C60.0983 171 34.9256 126.733 29.6835 96.5506C24.4414 66.3684 49.4932 36.5 100.022 36.5C144.523 36.5 175.925 65.2186 170.361 96.5506Z" fill="#9FE868"/>
<path d="M113.974 102.621C114.47 109.023 107.785 119.493 101.277 119.982C94.7681 120.47 86.5387 111.117 86.0422 104.715C85.5458 98.313 89.3958 92.8117 99.1035 92.0739C108.922 91.336 113.467 96.2188 113.963 102.61L113.974 102.621Z" fill="#EAC00F"/>
<ellipse cx="22.3579" cy="14.6316" rx="22.3579" ry="14.6316" transform="matrix(-0.972187 0.234206 0.234206 0.972187 148.472 69)" fill="#204207"/>
<path d="M113.752 129C112.342 131.686 108.574 135.762 101.187 136.769C93.7994 137.776 89.0776 134.858 87 132.648" stroke="#4A7E23" stroke-width="4" stroke-linecap="round"/>
<ellipse cx="70.1628" cy="88.4611" rx="22.3579" ry="14.6316" transform="rotate(13.5448 70.1628 88.4611)" fill="#204207"/>
</svg>
