<svg width="200" height="200" viewBox="0 0 200 200" fill="none" xmlns="http://www.w3.org/2000/svg">
<mask id="path-1-outside-1_898_2694" maskUnits="userSpaceOnUse" x="17" y="23.0005" width="167" height="155" fill="black">
<rect fill="white" x="17" y="23.0005" width="167" height="155"/>
<path d="M56.8477 29.005C74.1152 28.7174 76.418 42.2435 76.418 48.2872C76.4179 53.1226 74.8827 68.5292 74.1152 75.6281C73.6242 80.5089 74.2589 85.3017 75.2451 89.296C76.8739 85.6302 79.4988 82.3732 82.8418 79.7872C82.8412 79.769 82.7464 76.7839 82.7012 75.5646C82.2834 64.305 89.9644 55.6133 99.8262 55.2472C109.688 54.8812 117.988 62.9798 118.406 74.2394C118.452 75.4665 118.185 77.9387 118.017 78.1036C118.395 78.3189 118.575 78.458 118.579 78.4611C121.639 80.4846 124.195 83.0513 126.058 86.0031C138.557 80.4422 147.99 74.6833 149.518 73.3253C152.108 71.0229 163.045 66.1303 161.894 79.9445C161.402 85.8487 160.171 93.435 158.566 100.974C158.574 100.965 158.582 100.958 158.589 100.949C157.78 104.758 156.874 108.557 155.919 112.123C170.932 117.718 178 126.562 178 138.5C178 158 153 172 100.5 172C45.5001 172 23.0001 159 23 138.5C23 126.43 28.2766 117.921 41.2012 112.499C42.8093 108.828 44.8784 105.049 47.0625 100.953C53.9694 88.0026 53.6814 80.2319 52.5303 71.8859C52.1842 69.3769 51.2384 66.5045 50.0791 63.674C46.9465 64.0081 44.2849 63.3536 43.4473 60.9454C42.7869 58.2214 43.4092 55.2679 44.707 52.5997C43.9265 51.1188 43.3929 50.0837 43.3213 49.7257C43.0334 48.286 39.5802 29.2928 56.8477 29.005Z"/>
</mask>
<path d="M56.8477 29.005C74.1152 28.7174 76.418 42.2435 76.418 48.2872C76.4179 53.1226 74.8827 68.5292 74.1152 75.6281C73.6242 80.5089 74.2589 85.3017 75.2451 89.296C76.8739 85.6302 79.4988 82.3732 82.8418 79.7872C82.8412 79.769 82.7464 76.7839 82.7012 75.5646C82.2834 64.305 89.9644 55.6133 99.8262 55.2472C109.688 54.8812 117.988 62.9798 118.406 74.2394C118.452 75.4665 118.185 77.9387 118.017 78.1036C118.395 78.3189 118.575 78.458 118.579 78.4611C121.639 80.4846 124.195 83.0513 126.058 86.0031C138.557 80.4422 147.99 74.6833 149.518 73.3253C152.108 71.0229 163.045 66.1303 161.894 79.9445C161.402 85.8487 160.171 93.435 158.566 100.974C158.574 100.965 158.582 100.958 158.589 100.949C157.78 104.758 156.874 108.557 155.919 112.123C170.932 117.718 178 126.562 178 138.5C178 158 153 172 100.5 172C45.5001 172 23.0001 159 23 138.5C23 126.43 28.2766 117.921 41.2012 112.499C42.8093 108.828 44.8784 105.049 47.0625 100.953C53.9694 88.0026 53.6814 80.2319 52.5303 71.8859C52.1842 69.3769 51.2384 66.5045 50.0791 63.674C46.9465 64.0081 44.2849 63.3536 43.4473 60.9454C42.7869 58.2214 43.4092 55.2679 44.707 52.5997C43.9265 51.1188 43.3929 50.0837 43.3213 49.7257C43.0334 48.286 39.5802 29.2928 56.8477 29.005Z" fill="#F2A0CD"/>
<path d="M56.8477 29.005L56.7477 23.0058L56.7477 23.0058L56.8477 29.005ZM76.418 48.2872L82.418 48.2873V48.2872H76.418ZM74.1152 75.6281L68.15 74.9832C68.1484 74.9979 68.1469 75.0127 68.1454 75.0275L74.1152 75.6281ZM75.2451 89.296L69.4201 90.7343C70.0347 93.2237 72.1634 95.0474 74.7177 95.2728C77.2719 95.4982 79.6871 94.0755 80.7283 91.7323L75.2451 89.296ZM82.8418 79.7872L86.5129 84.5331C88.0347 83.3559 88.8997 81.5202 88.8388 79.5972L82.8418 79.7872ZM82.7012 75.5646L76.7053 75.787L76.7053 75.7871L82.7012 75.5646ZM99.8262 55.2472L99.6036 49.2513L99.6036 49.2513L99.8262 55.2472ZM118.406 74.2394L124.402 74.0169L124.402 74.0168L118.406 74.2394ZM118.017 78.1036L113.824 73.8119C112.476 75.1284 111.825 77.0015 112.066 78.87C112.306 80.7386 113.411 82.3856 115.048 83.3177L118.017 78.1036ZM118.579 78.4611L114.908 83.2069C115.025 83.2975 115.146 83.3838 115.269 83.4655L118.579 78.4611ZM126.058 86.0031L120.983 89.2047C122.574 91.7254 125.773 92.6965 128.497 91.485L126.058 86.0031ZM149.518 73.3253L153.503 77.8101L153.504 77.8098L149.518 73.3253ZM161.894 79.9445L167.873 80.4427L167.873 80.4427L161.894 79.9445ZM158.566 100.974L152.698 99.7247C152.129 102.398 153.439 105.119 155.884 106.341C158.329 107.563 161.291 106.978 163.088 104.918L158.566 100.974ZM158.589 100.949L164.458 102.196C165.026 99.5214 163.714 96.8014 161.268 95.5807C158.822 94.36 155.86 94.9472 154.064 97.0088L158.589 100.949ZM155.919 112.123L150.123 110.571C149.323 113.559 150.925 116.665 153.824 117.745L155.919 112.123ZM178 138.5L184 138.5V138.5H178ZM23 138.5L17 138.5L17 138.5L23 138.5ZM41.2012 112.499L43.5221 118.032C44.9424 117.436 46.0792 116.317 46.6971 114.906L41.2012 112.499ZM47.0625 100.953L52.3566 103.777L52.3566 103.777L47.0625 100.953ZM52.5303 71.8859L58.474 71.066L58.474 71.0659L52.5303 71.8859ZM50.0791 63.674L55.6315 61.3999C54.6196 58.9294 52.0972 57.4246 49.4426 57.7078L50.0791 63.674ZM43.4473 60.9454L37.6162 62.359C37.6618 62.5475 37.7166 62.7335 37.7803 62.9167L43.4473 60.9454ZM44.707 52.5997L50.1026 55.2242C50.9383 53.506 50.9058 51.4925 50.015 49.8023L44.707 52.5997ZM43.3213 49.7257L37.4378 50.9023L37.4378 50.9024L43.3213 49.7257ZM56.8477 29.005L56.9476 35.0042C63.7202 34.8914 66.6106 37.3423 68.1159 39.6002C69.9128 42.2954 70.418 45.8169 70.418 48.2872H76.418H82.418C82.418 44.7138 81.7717 38.4504 78.1004 32.9436C74.1374 26.9993 67.2427 22.831 56.7477 23.0058L56.8477 29.005ZM76.418 48.2872L70.418 48.2871C70.4179 52.7159 68.9352 67.7202 68.15 74.9832L74.1152 75.6281L80.0805 76.2729C80.8302 69.3383 82.4179 53.5293 82.418 48.2873L76.418 48.2872ZM74.1152 75.6281L68.1454 75.0275C67.5673 80.7744 68.3201 86.2795 69.4201 90.7343L75.2451 89.296L81.0702 87.8578C80.1977 84.324 79.6812 80.2435 80.0851 76.2286L74.1152 75.6281ZM75.2451 89.296L80.7283 91.7323C81.921 89.0477 83.8899 86.5621 86.5129 84.5331L82.8418 79.7872L79.1707 75.0414C75.1078 78.1843 71.8268 82.2127 69.762 86.8598L75.2451 89.296ZM82.8418 79.7872L88.8388 79.5972C88.8384 79.5865 88.7431 76.5817 88.697 75.342L82.7012 75.5646L76.7053 75.7871C76.7274 76.3813 76.7619 77.4192 76.7914 78.3222C76.8061 78.7712 76.8194 79.183 76.829 79.4837C76.8339 79.634 76.8378 79.7565 76.8405 79.8419C76.8419 79.8846 76.8429 79.918 76.8437 79.941C76.844 79.9525 76.8443 79.9614 76.8445 79.9676C76.8446 79.9706 76.8447 79.973 76.8447 79.9747C76.8448 79.9755 76.8448 79.9762 76.8448 79.9766C76.8448 79.9771 76.8448 79.9773 76.8448 79.9773L82.8418 79.7872ZM82.7012 75.5646L88.697 75.3421C88.3847 66.9228 93.9506 61.4694 100.049 61.2431L99.8262 55.2472L99.6036 49.2513C85.9782 49.7571 76.1822 61.6873 76.7053 75.787L82.7012 75.5646ZM99.8262 55.2472L100.049 61.2431C106.145 61.0168 112.098 66.0409 112.41 74.462L118.406 74.2394L124.402 74.0168C123.879 59.9188 113.231 48.7456 99.6036 49.2513L99.8262 55.2472ZM118.406 74.2394L112.41 74.4619C112.412 74.519 112.413 74.707 112.396 75.0254C112.381 75.3228 112.355 75.6498 112.324 75.952C112.291 76.2687 112.26 76.4812 112.245 76.5679C112.235 76.626 112.248 76.5357 112.294 76.3645C112.316 76.2865 112.378 76.0649 112.494 75.7786C112.554 75.6329 112.659 75.3917 112.822 75.1065C112.906 74.9597 113.021 74.7727 113.172 74.565C113.321 74.3609 113.535 74.0943 113.824 73.8119L118.017 78.1036L122.21 82.3954C123.161 81.4657 123.549 80.4485 123.604 80.3145C123.743 79.9733 123.828 79.6804 123.873 79.5166C123.966 79.1739 124.027 78.8538 124.065 78.6377C124.146 78.1762 124.211 77.663 124.26 77.1877C124.353 76.2889 124.44 75.0427 124.402 74.0169L118.406 74.2394ZM118.017 78.1036L115.048 83.3177C115.173 83.3892 115.12 83.3706 114.908 83.2069L118.579 78.4611L122.25 73.7152C122.031 73.5454 121.616 73.2487 120.985 72.8895L118.017 78.1036ZM118.579 78.4611L115.269 83.4655C117.669 85.0525 119.605 87.0204 120.983 89.2047L126.058 86.0031L131.132 82.8015C128.785 79.0823 125.609 75.9168 121.889 73.4566L118.579 78.4611ZM126.058 86.0031L128.497 91.485C134.929 88.6233 140.577 85.709 144.835 83.322C146.964 82.129 148.769 81.0541 150.169 80.1698C151.433 79.3717 152.706 78.5189 153.503 77.8101L149.518 73.3253L145.532 68.8405C145.565 68.8107 145.086 69.187 143.761 70.0245C142.571 70.7756 140.951 71.7427 138.968 72.8542C135.003 75.0764 129.686 77.822 123.619 80.5211L126.058 86.0031ZM149.518 73.3253L153.504 77.8098C153.479 77.8319 153.611 77.7172 153.929 77.5257C154.227 77.3472 154.595 77.1569 154.997 76.9911C155.4 76.8243 155.78 76.7062 156.104 76.6384C156.435 76.569 156.618 76.5713 156.665 76.5748C156.7 76.5774 156.53 76.57 156.27 76.4269C155.981 76.2675 155.796 76.0574 155.72 75.936C155.666 75.8487 155.783 75.9913 155.877 76.5695C155.973 77.1532 156.028 78.078 155.914 79.4462L161.894 79.9445L167.873 80.4427C168.21 76.4014 167.785 72.6021 165.899 69.5812C163.802 66.2217 160.549 64.8296 157.552 64.6076C154.813 64.4047 152.256 65.1395 150.415 65.9002C148.568 66.6632 146.786 67.7258 145.531 68.8409L149.518 73.3253ZM161.894 79.9445L155.914 79.4462C155.45 85.0145 154.271 92.335 152.698 99.7247L158.566 100.974L164.435 102.223C166.071 94.5349 167.353 86.683 167.873 80.4427L161.894 79.9445ZM158.566 100.974L163.088 104.918C163.063 104.947 163.04 104.972 163.021 104.993C163.002 105.014 162.986 105.032 162.973 105.045C162.961 105.059 162.951 105.069 162.945 105.075C162.941 105.08 162.936 105.085 162.938 105.083C162.938 105.083 162.945 105.076 162.952 105.068C162.959 105.06 162.971 105.048 162.986 105.032C163 105.016 163.019 104.996 163.04 104.973C163.061 104.949 163.086 104.921 163.113 104.89L158.589 100.949L154.064 97.0088C154.09 96.9794 154.113 96.9537 154.132 96.9322C154.151 96.9108 154.168 96.8928 154.181 96.8791C154.193 96.8655 154.203 96.8547 154.209 96.8486C154.212 96.8454 154.214 96.843 154.216 96.8417C154.217 96.8405 154.218 96.8396 154.217 96.8403C154.217 96.8405 154.215 96.8423 154.213 96.8443C154.211 96.8465 154.208 96.8499 154.204 96.8539C154.197 96.8618 154.185 96.8744 154.171 96.8897C154.156 96.9052 154.138 96.925 154.117 96.9481C154.096 96.9713 154.072 96.9988 154.045 97.03L158.566 100.974ZM158.589 100.949L152.72 99.703C151.931 103.418 151.049 107.114 150.123 110.571L155.919 112.123L161.715 113.676C162.699 110 163.629 106.099 164.458 102.196L158.589 100.949ZM155.919 112.123L153.824 117.745C160.695 120.306 165.197 123.412 167.967 126.758C170.652 130.002 172 133.817 172 138.5H178H184C184 131.246 181.814 124.669 177.212 119.107C172.694 113.649 166.156 109.535 158.014 106.501L155.919 112.123ZM178 138.5L172 138.5C172 145.086 167.977 151.761 156.415 157.119C144.735 162.531 126.357 166 100.5 166V172V178C127.143 178 147.515 174.469 161.46 168.006C175.523 161.49 184 151.414 184 138.5L178 138.5ZM100.5 172V166C73.2896 166 54.9638 162.756 43.6549 157.497C38.0724 154.901 34.4555 151.932 32.2355 148.865C30.0607 145.86 29 142.456 29 138.5L23 138.5L17 138.5C17 144.795 18.7519 150.702 22.5147 155.901C26.2322 161.037 31.6778 165.162 38.5952 168.378C52.2863 174.745 72.7105 178 100.5 178V172ZM23 138.5H29C29 133.359 30.1123 129.471 32.2147 126.381C34.3307 123.271 37.8209 120.424 43.5221 118.032L41.2012 112.499L38.8802 106.966C31.6569 109.996 26.0465 114.114 22.2931 119.631C18.526 125.168 17 131.57 17 138.5H23ZM41.2012 112.499L46.6971 114.906C48.1878 111.503 50.1133 107.983 52.3566 103.777L47.0625 100.953L41.7684 98.1297C39.6435 102.114 37.4308 106.152 35.7053 110.092L41.2012 112.499ZM47.0625 100.953L52.3566 103.777C56.0685 96.8169 57.9952 90.9656 58.7597 85.5283C59.5227 80.1019 59.0752 75.4247 58.474 71.066L52.5303 71.8859L46.5865 72.7057C47.1365 76.693 47.4086 80.0742 46.8766 83.8574C46.3462 87.6296 44.9634 92.139 41.7684 98.1297L47.0625 100.953ZM52.5303 71.8859L58.474 71.0659C58.0262 67.82 56.8621 64.4046 55.6315 61.3999L50.0791 63.674L44.5268 65.948C45.6147 68.6044 46.3421 70.9338 46.5866 72.7058L52.5303 71.8859ZM50.0791 63.674L49.4426 57.7078C48.9439 57.761 48.558 57.764 48.2816 57.7436C47.9998 57.7228 47.9089 57.6833 47.955 57.7C48.013 57.7211 48.2492 57.8195 48.5252 58.0813C48.8195 58.3603 49.0154 58.6902 49.1142 58.9742L43.4473 60.9454L37.7803 62.9167C38.8861 66.0956 41.2837 68.0419 43.8502 68.9761C46.2009 69.8319 48.6682 69.8585 50.7156 69.6401L50.0791 63.674ZM43.4473 60.9454L49.2784 59.5318C49.0527 58.6012 49.1837 57.1133 50.1026 55.2242L44.707 52.5997L39.3115 49.9752C37.6347 53.4224 36.521 57.8417 37.6162 62.359L43.4473 60.9454ZM44.707 52.5997L50.015 49.8023C49.6196 49.0522 49.3304 48.4969 49.1341 48.0972C49.0355 47.8963 48.9924 47.7993 48.9823 47.7756C48.978 47.7654 48.9991 47.8138 49.0309 47.9046C49.0545 47.9716 49.1368 48.2094 49.2048 48.549L43.3213 49.7257L37.4378 50.9024C37.5847 51.6368 37.8455 52.2502 37.9342 52.4594C38.0687 52.7768 38.2212 53.0982 38.3625 53.386C38.646 53.9635 39.0139 54.6663 39.3991 55.3972L44.707 52.5997ZM43.3213 49.7257L49.2048 48.5491C49.1002 48.0262 48.4014 44.0186 49.317 40.4086C49.7482 38.7087 50.4426 37.4824 51.3674 36.6706C52.2185 35.9234 53.7934 35.0567 56.9476 35.0042L56.8477 29.005L56.7477 23.0058C51.2682 23.0972 46.7995 24.7126 43.4506 27.6526C40.1753 30.5279 38.5134 34.1938 37.6854 37.4582C36.0827 43.7767 37.2544 49.9856 37.4378 50.9023L43.3213 49.7257Z" fill="white" mask="url(#path-1-outside-1_898_2694)"/>
<path d="M178 138.5C178 158 153 172 100.5 172C45.5 172 23 159 23 138.5C23 115 43 105 100.5 105C154 105 178 116.5 178 138.5Z" fill="#CCE2FB"/>
<path d="M76.4176 48.2869C76.4176 53.1219 74.8827 68.5286 74.1153 75.6275C73.1424 85.2975 76.5879 94.6221 78.4322 98.0756C80.8305 97.8838 87.9295 97.1547 97.139 95.7733C121.602 90.5929 146.928 75.6275 149.518 73.3251C152.108 71.0227 163.044 66.1302 161.893 79.9445C160.742 93.7587 155.562 116.782 150.957 126.855C146.352 136.928 109.802 154.772 85.6271 155.923C61.4522 157.074 47.0624 150.167 40.7309 136.928C34.3993 123.69 40.1553 113.904 47.0624 100.954C53.9695 88.0028 53.6817 80.2323 52.5305 71.8862C51.3793 63.5401 43.6088 51.1648 43.321 49.7258C43.0332 48.2869 39.5797 29.2923 56.8475 29.0045C74.1153 28.7167 76.4176 42.2432 76.4176 48.2869Z" fill="#ECECEC"/>
<path d="M43.447 60.9454C41.6051 53.3476 49.7465 43.9655 54.671 43.9655C59.5956 43.9655 65.3517 52.8871 63.5927 56.9163C61.8337 60.9454 45.7493 67.5648 43.447 60.9454Z" fill="#F9CB45"/>
<circle cx="62.3798" cy="41.9516" r="2.28557" fill="#323232"/>
<circle cx="47.9045" cy="42.7134" r="2.28557" fill="#323232"/>
<path d="M158.589 100.949C156.436 111.086 153.602 121.151 150.956 126.939C146.351 137.012 109.801 154.856 85.6258 156.007C61.451 157.158 47.0609 150.251 40.7293 137.013C37.5125 130.286 37.4174 124.452 39.0067 118.641C43.5542 126.278 59.0566 137.24 93.5438 132.403C128.126 127.553 150.058 110.744 158.589 100.949Z" fill="#F2A0CD"/>
<path d="M139.017 85.6959L126.959 91.7452C126.959 92.7534 124.336 106.283 127.853 105.275C131.369 104.267 139.91 96.9572 141.668 92.9244C143.427 88.8916 143.036 83.6795 139.017 85.6959Z" fill="#BBCAD3"/>
<mask id="mask0_898_2694" style="mask-type:alpha" maskUnits="userSpaceOnUse" x="74" y="34" width="83" height="77">
<path d="M79.6016 99.4401C72.4643 88.3887 74.901 68.55 77.0115 60.012C79.7935 54.0642 88.0053 40.8448 98.5962 35.5493C109.187 30.2538 125.457 41.593 132.268 47.9245L154.716 75.2652C157.307 78.335 157.825 87.4678 139.175 99.4401C115.864 114.406 88.5233 113.254 79.6016 99.4401Z" fill="#D9D9D9"/>
</mask>
<g mask="url(#mask0_898_2694)">
<path d="M129.4 96.7078C129.578 101.482 128.134 105.792 125.497 109.385C120.903 115.647 112.689 119.728 103.14 120.302C102.84 120.321 102.539 120.337 102.238 120.348C101.938 120.359 101.633 120.37 101.332 120.369C91.7622 120.5 83.276 117.039 78.2272 111.144C78.2272 111.144 78.2272 111.144 78.2271 111.14C75.3304 107.752 73.5718 103.565 73.3944 98.7864C73.1163 91.2934 76.8134 84.4505 82.8415 79.7875C82.8415 79.7875 82.7465 76.7881 82.7011 75.565C82.2832 64.3053 89.9643 55.6136 99.8262 55.2476C109.688 54.8816 117.988 62.9801 118.406 74.2398C118.452 75.467 118.185 77.9386 118.017 78.1036C118.399 78.3213 118.579 78.4611 118.579 78.4611C124.941 82.6684 129.135 89.2184 129.413 96.7114L129.4 96.7078Z" fill="#4B9AE8"/>
<path d="M103.275 73.7511C102.71 75.6201 99.8041 77.8496 98.0261 77.269C96.2496 76.685 95.0844 73.1224 95.6511 71.2501C96.2164 69.3812 97.8343 68.2434 100.483 69.1145C103.164 69.9953 103.84 71.8821 103.275 73.7511Z" fill="#EAC00F"/>
<path d="M109.437 71.8498C111.299 71.7807 112.752 70.2157 112.683 68.3544C112.613 66.493 111.049 65.0401 109.187 65.1092C107.326 65.1783 105.873 66.7432 105.942 68.6045C106.011 70.4659 107.576 71.9188 109.437 71.8498Z" fill="white"/>
<path d="M109.379 70.2744C110.37 70.2376 111.144 69.4041 111.107 68.4128C111.07 67.4215 110.237 66.6477 109.246 66.6845C108.254 66.7213 107.481 67.5547 107.517 68.546C107.554 69.5373 108.388 70.3111 109.379 70.2744Z" fill="#040000"/>
<path d="M91.0284 70.9528C92.8898 70.8837 94.3427 69.3188 94.2736 67.4574C94.2046 65.596 92.6396 64.1431 90.7783 64.2122C88.9169 64.2813 87.464 65.8462 87.533 67.7076C87.6021 69.5689 89.1671 71.0219 91.0284 70.9528Z" fill="white"/>
<path d="M90.9699 69.3774C91.9612 69.3406 92.735 68.5071 92.6982 67.5158C92.6614 66.5245 91.828 65.7507 90.8367 65.7875C89.8454 65.8243 89.0716 66.6577 89.1084 67.6491C89.1452 68.6404 89.9786 69.4142 90.9699 69.3774Z" fill="#040000"/>
<path d="M82.2497 107.828C82.6858 100.37 89.856 94.7227 98.2656 95.2142C106.675 95.7059 113.14 102.15 112.704 109.608C112.268 117.065 105.097 122.713 96.687 122.221C88.2774 121.729 81.8139 115.285 82.2497 107.828ZM98.0308 99.2364C92.16 98.8932 87.1522 102.86 86.8459 108.096C86.5397 113.332 91.0511 117.855 96.9218 118.199C102.793 118.542 107.801 114.576 108.107 109.339C108.413 104.103 103.902 99.5797 98.0308 99.2364Z" fill="#0B3A68"/>
<rect x="95.5598" y="97.4957" width="4.02915" height="20.7213" fill="#0B3A68"/>
<path d="M112.01 83.0246L102.748 94.1844C100.487 96.9093 101.001 100.613 103.771 101.501C108.096 102.889 114.3 103.42 118.947 97.8206C122.827 93.1432 122.634 87.7872 121.433 83.5463C120.306 79.5634 115.114 79.2798 112.008 83.0216L112.01 83.0246Z" fill="#276286"/>
<path opacity="0.5" d="M120.811 82.2024C121.924 83.853 122.286 87.6837 122.183 89.2812C121.938 93.1943 120.498 96.8064 117.591 99.2474C114.643 101.721 111.056 102.599 108.21 102.388C105.4 102.183 103.765 101.504 103.765 101.504C103.765 101.504 109.203 100.812 112.24 99.1245C115.276 97.4365 118.425 94.2012 119.569 90.5837C120.714 86.9661 120.637 84.8243 120.807 82.2007L120.811 82.2024Z" fill="#14465D"/>
<path d="M88.5168 84.3832L94.8299 95.5624C96.3715 98.292 95.3413 101.437 92.7876 101.776C88.8021 102.305 83.3133 101.792 80.146 96.1824C77.5013 91.4971 78.5118 86.8613 80.2254 83.3556C81.8337 80.063 86.4013 80.6325 88.5183 84.3808L88.5168 84.3832Z" fill="#276286"/>
<path opacity="0.5" d="M80.9787 82.2827C79.7488 83.5455 78.8315 86.8259 78.6698 88.2339C78.2676 91.6815 78.9543 95.0549 81.1026 97.6387C83.2815 100.258 86.2691 101.586 88.7816 101.85C91.2617 102.114 92.7926 101.779 92.7926 101.779C92.7926 101.779 88.1642 100.322 85.7842 98.3733C83.4043 96.4252 81.1699 93.1113 80.7418 89.7797C80.3138 86.4481 80.7177 84.5943 80.9826 82.2818L80.9787 82.2827Z" fill="#14465D"/>
</g>
<path d="M140.784 113.883L140.517 108.502L140.498 108.469L138.029 109.873L137.449 108.853L141.226 106.705L141.811 107.732L142.085 113.143L140.784 113.883Z" fill="#F2A0CD"/>
<path d="M136.308 116.429L136.04 111.048L136.022 111.015L133.553 112.419L132.973 111.4L136.75 109.251L137.334 110.279L137.608 115.69L136.308 116.429Z" fill="#F2A0CD"/>
<path d="M136 148C138.173 147.861 143.415 146.667 147 143" stroke="#8DB5E1" stroke-width="3" stroke-linecap="round"/>
<path d="M142.447 153.932C147 153.5 154.5 149 155.983 143.923" stroke="#8DB5E1" stroke-width="3" stroke-linecap="round"/>
</svg>
