<svg width="200" height="200" viewBox="0 0 200 200" fill="none" xmlns="http://www.w3.org/2000/svg">
<mask id="path-1-outside-1_1062_16220" maskUnits="userSpaceOnUse" x="13" y="5" width="174" height="190" fill="black">
<rect fill="white" x="13" y="5" width="174" height="190"/>
<path d="M20.1728 15.7354C20.8933 13.0499 23.6547 11.4524 26.3447 12.1729L61.0537 21.4737C62.4164 20.3583 64.058 19.6085 65.8134 19.3194C68.2458 16.3494 72.2739 14.9061 76.2226 15.961L85.956 18.5713L87.2607 13.7041L116.457 21.5284L115.152 26.3907L124.891 29C128.835 30.0584 131.6 33.3235 132.221 37.1104C133.6 38.2399 134.649 39.7123 135.271 41.3623L177.195 52.5987C179.885 53.3243 181.482 56.0798 180.757 58.7696C180.041 61.4599 177.281 63.0573 174.591 62.3321L133.592 51.3457C131.154 54.2744 127.155 55.69 123.237 54.6387C119.635 53.6728 117.016 50.8732 116.113 47.5137L102.984 43.9961V67.4854H118.099V77.5616H138.252C145.693 77.5617 152.117 81.6374 155.608 87.6377C157.341 90.6102 158.404 94.026 158.404 97.7139V168.247C158.404 179.377 149.381 188.399 138.252 188.399H57.6425C46.5131 188.399 37.4902 179.377 37.4902 168.247V97.7139C37.4902 94.026 38.5531 90.6102 40.2861 87.6377C43.7776 81.6374 50.2012 77.5616 57.6425 77.5616H77.7939V67.4854H92.9082V41.2969L74.5664 36.3829C72.1033 38.8416 68.4346 39.9611 64.831 38.9952C60.9115 37.9438 58.154 34.7152 57.5087 30.96L23.7353 21.9112C21.0499 21.1857 19.4525 18.4303 20.1728 15.7354Z"/>
</mask>
<path d="M20.1728 15.7354C20.8933 13.0499 23.6547 11.4524 26.3447 12.1729L61.0537 21.4737C62.4164 20.3583 64.058 19.6085 65.8134 19.3194C68.2458 16.3494 72.2739 14.9061 76.2226 15.961L85.956 18.5713L87.2607 13.7041L116.457 21.5284L115.152 26.3907L124.891 29C128.835 30.0584 131.6 33.3235 132.221 37.1104C133.6 38.2399 134.649 39.7123 135.271 41.3623L177.195 52.5987C179.885 53.3243 181.482 56.0798 180.757 58.7696C180.041 61.4599 177.281 63.0573 174.591 62.3321L133.592 51.3457C131.154 54.2744 127.155 55.69 123.237 54.6387C119.635 53.6728 117.016 50.8732 116.113 47.5137L102.984 43.9961V67.4854H118.099V77.5616H138.252C145.693 77.5617 152.117 81.6374 155.608 87.6377C157.341 90.6102 158.404 94.026 158.404 97.7139V168.247C158.404 179.377 149.381 188.399 138.252 188.399H57.6425C46.5131 188.399 37.4902 179.377 37.4902 168.247V97.7139C37.4902 94.026 38.5531 90.6102 40.2861 87.6377C43.7776 81.6374 50.2012 77.5616 57.6425 77.5616H77.7939V67.4854H92.9082V41.2969L74.5664 36.3829C72.1033 38.8416 68.4346 39.9611 64.831 38.9952C60.9115 37.9438 58.154 34.7152 57.5087 30.96L23.7353 21.9112C21.0499 21.1857 19.4525 18.4303 20.1728 15.7354Z" fill="#EAC00F"/>
<path d="M20.1728 15.7354L14.3777 14.1806L14.3763 14.1862L20.1728 15.7354ZM26.3447 12.1729L27.8977 6.37736L27.897 6.37719L26.3447 12.1729ZM61.0537 21.4737L59.5007 27.2692C61.3666 27.7692 63.3592 27.3402 64.854 26.1166L61.0537 21.4737ZM65.8134 19.3194L66.7884 25.2396C68.2276 25.0026 69.5311 24.2495 70.4553 23.1211L65.8134 19.3194ZM76.2226 15.961L77.7768 10.1658L77.7711 10.1642L76.2226 15.961ZM85.956 18.5713L84.4018 24.3665C85.9389 24.7788 87.5768 24.5635 88.9552 23.768C90.3335 22.9725 91.3394 21.662 91.7514 20.1248L85.956 18.5713ZM87.2607 13.7041L88.8138 7.90864C85.6132 7.05092 82.3232 8.95008 81.4653 12.1506L87.2607 13.7041ZM116.457 21.5284L122.252 23.0833C122.664 21.5461 122.449 19.9079 121.654 18.5294C120.858 17.1508 119.547 16.1449 118.01 15.7329L116.457 21.5284ZM115.152 26.3907L109.357 24.8357C108.945 26.373 109.16 28.0112 109.956 29.3897C110.751 30.7683 112.062 31.7743 113.599 32.1862L115.152 26.3907ZM124.891 29L126.446 23.205L126.443 23.2045L124.891 29ZM132.221 37.1104L126.3 38.0816C126.536 39.522 127.289 40.827 128.419 41.752L132.221 37.1104ZM135.271 41.3623L129.658 43.4813C130.34 45.2891 131.852 46.6576 133.718 47.1578L135.271 41.3623ZM177.195 52.5987L178.758 46.8057L178.749 46.8032L177.195 52.5987ZM180.757 58.7696L174.964 57.2076C174.962 57.2143 174.96 57.2209 174.958 57.2276L180.757 58.7696ZM174.591 62.3321L176.153 56.5389L176.144 56.5365L174.591 62.3321ZM133.592 51.3457L135.145 45.5502C132.884 44.9444 130.477 45.7086 128.98 47.5076L133.592 51.3457ZM123.237 54.6387L124.792 48.8437L124.791 48.8434L123.237 54.6387ZM116.113 47.5137L121.908 45.9567C121.352 43.888 119.735 42.2725 117.666 41.7181L116.113 47.5137ZM102.984 43.9961L104.537 38.2005C102.735 37.7178 100.812 38.1005 99.3317 39.2361C97.8519 40.3716 96.9843 42.1308 96.9843 43.9961H102.984ZM102.984 67.4854H96.9843C96.9843 70.7991 99.6706 73.4854 102.984 73.4854V67.4854ZM118.099 67.4854H124.099C124.099 64.1717 121.412 61.4854 118.099 61.4854V67.4854ZM118.099 77.5616H112.099C112.099 80.8753 114.785 83.5616 118.099 83.5616V77.5616ZM138.252 77.5616L138.252 71.5616H138.252V77.5616ZM155.608 87.6377L150.422 90.6553L150.425 90.6597L155.608 87.6377ZM158.404 97.7139L164.404 97.7139L164.404 97.7138L158.404 97.7139ZM158.404 168.247L164.404 168.247V168.247H158.404ZM138.252 188.399L138.252 194.399L138.252 194.399L138.252 188.399ZM57.6425 188.399L57.6425 194.399H57.6425V188.399ZM37.4902 168.247L31.4902 168.247L31.4902 168.247L37.4902 168.247ZM37.4902 97.7139L31.4902 97.7138V97.7139H37.4902ZM40.2861 87.6377L45.4695 90.6597L45.472 90.6554L40.2861 87.6377ZM57.6425 77.5616L57.6425 71.5616L57.6425 71.5616L57.6425 77.5616ZM77.7939 77.5616V83.5616C81.1076 83.5616 83.7939 80.8753 83.7939 77.5616H77.7939ZM77.7939 67.4854V61.4854C74.4802 61.4854 71.7939 64.1717 71.7939 67.4854H77.7939ZM92.9082 67.4854V73.4854C96.2219 73.4854 98.9082 70.7991 98.9082 67.4854H92.9082ZM92.9082 41.2969H98.9082C98.9082 38.5812 97.0841 36.2041 94.4609 35.5013L92.9082 41.2969ZM74.5664 36.3829L76.1191 30.5873C74.0504 30.033 71.8431 30.6235 70.3274 32.1365L74.5664 36.3829ZM64.831 38.9952L63.2766 44.7903L63.2776 44.7906L64.831 38.9952ZM57.5087 30.96L63.4221 29.944C63.0256 27.6364 61.3231 25.7703 59.0615 25.1644L57.5087 30.96ZM23.7353 21.9112L22.1705 27.7035L22.1825 27.7068L23.7353 21.9112ZM20.1728 15.7354L25.9679 17.2902C25.8309 17.8008 25.3057 18.1061 24.7923 17.9686L26.3447 12.1729L27.897 6.37719C22.0037 4.79869 15.9558 8.29895 14.3777 14.1806L20.1728 15.7354ZM26.3447 12.1729L24.7917 17.9684L59.5007 27.2692L61.0537 21.4737L62.6067 15.6781L27.8977 6.37736L26.3447 12.1729ZM61.0537 21.4737L64.854 26.1166C65.4116 25.6603 66.0812 25.3561 66.7884 25.2396L65.8134 19.3194L64.8385 13.3991C62.0349 13.8608 59.4211 15.0563 57.2533 16.8307L61.0537 21.4737ZM65.8134 19.3194L70.4553 23.1211C71.4515 21.9047 73.0866 21.3336 74.6741 21.7577L76.2226 15.961L77.7711 10.1642C71.4612 8.47864 65.0402 10.794 61.1715 15.5177L65.8134 19.3194ZM76.2226 15.961L74.6684 21.7562L84.4018 24.3665L85.956 18.5713L87.5102 12.7761L77.7768 10.1658L76.2226 15.961ZM85.956 18.5713L91.7514 20.1248L93.0561 15.2576L87.2607 13.7041L81.4653 12.1506L80.1606 17.0178L85.956 18.5713ZM87.2607 13.7041L85.7076 19.4996L114.904 27.3239L116.457 21.5284L118.01 15.7329L88.8138 7.90864L87.2607 13.7041ZM116.457 21.5284L110.662 19.9734L109.357 24.8357L115.152 26.3907L120.947 27.9456L122.252 23.0833L116.457 21.5284ZM115.152 26.3907L113.599 32.1862L123.338 34.7956L124.891 29L126.443 23.2045L116.705 20.5951L115.152 26.3907ZM124.891 29L123.336 34.795C124.914 35.2186 126.045 36.528 126.3 38.0816L132.221 37.1104L138.142 36.1392C137.154 30.1191 132.755 24.8982 126.446 23.205L124.891 29ZM132.221 37.1104L128.419 41.752C128.975 42.2078 129.404 42.8072 129.658 43.4813L135.271 41.3623L140.885 39.2434C139.894 36.6174 138.224 34.2719 136.023 32.4688L132.221 37.1104ZM135.271 41.3623L133.718 47.1578L175.642 58.3941L177.195 52.5987L178.749 46.8032L136.825 35.5669L135.271 41.3623ZM177.195 52.5987L175.633 58.3916C175.145 58.2602 174.82 57.7388 174.964 57.2076L180.757 58.7696L186.55 60.3315C188.144 54.4208 184.625 48.3884 178.758 46.8057L177.195 52.5987ZM180.757 58.7696L174.958 57.2276C175.096 56.7115 175.632 56.3984 176.153 56.5389L174.591 62.3321L173.029 68.1252C178.93 69.7161 184.987 66.2084 186.555 60.3116L180.757 58.7696ZM174.591 62.3321L176.144 56.5365L135.145 45.5502L133.592 51.3457L132.039 57.1413L173.038 68.1276L174.591 62.3321ZM133.592 51.3457L128.98 47.5076C127.981 48.708 126.361 49.2645 124.792 48.8437L123.237 54.6387L121.682 60.4337C127.95 62.1155 134.328 59.8407 138.204 55.1839L133.592 51.3457ZM123.237 54.6387L124.791 48.8434C123.341 48.4548 122.278 47.3336 121.908 45.9567L116.113 47.5137L110.319 49.0707C111.754 54.4127 115.928 58.8909 121.684 60.4341L123.237 54.6387ZM116.113 47.5137L117.666 41.7181L104.537 38.2005L102.984 43.9961L101.432 49.7917L114.56 53.3093L116.113 47.5137ZM102.984 43.9961H96.9843V67.4854H102.984H108.984V43.9961H102.984ZM102.984 67.4854V73.4854H118.099V67.4854V61.4854H102.984V67.4854ZM118.099 67.4854H112.099V77.5616H118.099H124.099V67.4854H118.099ZM118.099 77.5616V83.5616H138.252V77.5616V71.5616H118.099V77.5616ZM138.252 77.5616L138.252 83.5616C143.421 83.5616 147.935 86.381 150.422 90.6553L155.608 87.6377L160.794 84.6201C156.299 76.8938 147.965 71.5617 138.252 71.5616L138.252 77.5616ZM155.608 87.6377L150.425 90.6597C151.686 92.8225 152.404 95.206 152.404 97.714L158.404 97.7139L164.404 97.7138C164.404 92.846 162.997 88.3978 160.792 84.6158L155.608 87.6377ZM158.404 97.7139H152.404V168.247H158.404H164.404V97.7139H158.404ZM158.404 168.247L152.404 168.247C152.404 176.063 146.067 182.399 138.252 182.399L138.252 188.399L138.252 194.399C152.694 194.399 164.404 182.69 164.404 168.247L158.404 168.247ZM138.252 188.399V182.399H57.6425V188.399V194.399H138.252V188.399ZM57.6425 188.399L57.6426 182.399C49.8268 182.399 43.4902 176.063 43.4902 168.247L37.4902 168.247L31.4902 168.247C31.4902 182.69 43.1994 194.399 57.6425 194.399L57.6425 188.399ZM37.4902 168.247H43.4902V97.7139H37.4902H31.4902V168.247H37.4902ZM37.4902 97.7139L43.4902 97.714C43.4902 95.206 44.2085 92.8225 45.4695 90.6597L40.2861 87.6377L35.1027 84.6158C32.8977 88.3978 31.4902 92.846 31.4902 97.7138L37.4902 97.7139ZM40.2861 87.6377L45.472 90.6554C47.9593 86.3809 52.4734 83.5616 57.6426 83.5616L57.6425 77.5616L57.6425 71.5616C47.9289 71.5616 39.5959 76.8939 35.1002 84.6201L40.2861 87.6377ZM57.6425 77.5616V83.5616H77.7939V77.5616V71.5616H57.6425V77.5616ZM77.7939 77.5616H83.7939V67.4854H77.7939H71.7939V77.5616H77.7939ZM77.7939 67.4854V73.4854H92.9082V67.4854V61.4854H77.7939V67.4854ZM92.9082 67.4854H98.9082V41.2969H92.9082H86.9082V67.4854H92.9082ZM92.9082 41.2969L94.4609 35.5013L76.1191 30.5873L74.5664 36.3829L73.0136 42.1785L91.3554 47.0925L92.9082 41.2969ZM74.5664 36.3829L70.3274 32.1365C69.313 33.1492 67.8289 33.5869 66.3844 33.1997L64.831 38.9952L63.2776 44.7906C69.0403 46.3352 74.8937 44.534 78.8053 40.6292L74.5664 36.3829ZM64.831 38.9952L66.3854 33.2C64.8129 32.7782 63.6863 31.4815 63.4221 29.944L57.5087 30.96L51.5954 31.976C52.6217 37.9488 57.0101 43.1095 63.2766 44.7903L64.831 38.9952ZM57.5087 30.96L59.0615 25.1644L25.2881 16.1156L23.7353 21.9112L22.1825 27.7068L55.9559 36.7556L57.5087 30.96ZM23.7353 21.9112L25.3001 16.1188C25.7968 16.253 26.106 16.7734 25.9693 17.2846L20.1728 15.7354L14.3763 14.1862C12.7991 20.0872 16.3031 26.1184 22.1705 27.7035L23.7353 21.9112Z" fill="white" mask="url(#path-1-outside-1_1062_16220)"/>
<path d="M102.984 67.4852V32.2188H92.9084V67.4852H77.7939V82.5997H118.098V67.4852H102.984Z" fill="#58595B"/>
<path d="M174.59 62.3319L23.7349 21.9114C21.0494 21.1859 19.4524 18.4299 20.1729 15.7349C20.8934 13.0494 23.6544 11.4524 26.3444 12.1729L177.195 52.5984C179.885 53.3239 181.482 56.0799 180.757 58.7699C180.041 61.4604 177.28 63.0574 174.59 62.3319Z" fill="#6D6E71"/>
<path d="M124.891 28.9996L115.152 26.3901L116.457 21.5281L87.261 13.7041L85.9565 18.5711L76.2226 15.9611C70.8471 14.5251 65.3205 17.7146 63.8795 23.0901C62.4385 28.4606 65.6325 33.9876 71.003 35.4281L119.671 48.4666C125.042 49.9076 130.569 46.7136 132.01 41.3431C133.451 35.9726 130.261 30.4406 124.891 28.9996Z" fill="#A7A9AC"/>
<path d="M77.1747 31.8712C75.7337 37.2417 70.2072 40.4357 64.8312 38.9947C59.4607 37.5542 56.2667 32.0272 57.7077 26.6567C59.1482 21.2812 64.6752 18.0917 70.0457 19.5277C75.4262 20.9687 78.6157 26.4902 77.1747 31.8712ZM135.576 47.5142C134.135 52.8897 128.608 56.0792 123.238 54.6382C117.862 53.1972 114.673 47.6757 116.114 42.2997C117.55 36.9242 123.077 33.7352 128.452 35.1762C133.823 36.6167 137.017 42.1437 135.576 47.5142Z" fill="#808285"/>
<path d="M37.4902 168.247C37.4902 179.377 46.5132 188.4 57.6427 188.4H138.252C149.381 188.4 158.404 179.377 158.404 168.247V143.057H37.4902V168.247ZM138.252 77.5615H57.6427C50.2012 77.5615 43.7777 81.6375 40.2862 87.638H155.608C152.117 81.6375 145.693 77.5615 138.252 77.5615Z" fill="#EB5C5C"/>
<path d="M37.4902 97.7139H158.404V143.057H37.4902V97.7139Z" fill="#D7E8FC"/>
<path d="M40.2862 87.6382C38.5532 90.6107 37.4902 94.0262 37.4902 97.7142H158.404C158.404 94.0262 157.341 90.6107 155.608 87.6382H40.2862Z" fill="#A1C8F6"/>
<path d="M67.7192 87.6382H77.7952V143.057H67.7192V87.6382ZM113.062 87.6382H123.138V143.057H113.062V87.6382Z" fill="#474747"/>
<mask id="mask0_1062_16220" style="mask-type:alpha" maskUnits="userSpaceOnUse" x="77" y="98" width="36" height="46">
<rect x="77.7998" y="98.1997" width="35.2" height="45" fill="#D9D9D9"/>
</mask>
<g mask="url(#mask0_1062_16220)">
<path d="M118.26 138.786C119.434 148.456 110.688 156.302 98.9034 157.733C87.1192 159.165 76.7488 153.632 75.5745 143.969C74.9143 138.547 77.333 133.335 81.6623 129.549C81.4169 128.708 81.2358 127.832 81.1248 126.932C80.1199 118.647 85.5592 111.718 93.1953 110.789C100.831 109.86 107.772 115.288 108.777 123.573C108.888 124.472 108.923 125.366 108.882 126.243C113.995 128.878 117.588 133.359 118.248 138.786H118.26Z" fill="#4B9AE8"/>
<path d="M101.878 123.206C103.489 123.206 104.794 121.9 104.794 120.29C104.794 118.679 103.489 117.374 101.878 117.374C100.267 117.374 98.9619 118.679 98.9619 120.29C98.9619 121.9 100.267 123.206 101.878 123.206Z" fill="white"/>
<path d="M101.833 122.059C102.799 122.059 103.581 121.276 103.581 120.311C103.581 119.345 102.799 118.562 101.833 118.562C100.868 118.562 100.085 119.345 100.085 120.311C100.085 121.276 100.868 122.059 101.833 122.059Z" fill="black"/>
<path d="M87.2716 125.543C88.8821 125.543 90.1877 124.237 90.1877 122.627C90.1877 121.016 88.8821 119.71 87.2716 119.71C85.6611 119.71 84.3555 121.016 84.3555 122.627C84.3555 124.237 85.6611 125.543 87.2716 125.543Z" fill="white"/>
<path d="M87.2263 124.396C88.1918 124.396 88.9745 123.613 88.9745 122.648C88.9745 121.682 88.1918 120.899 87.2263 120.899C86.2608 120.899 85.478 121.682 85.478 122.648C85.478 123.613 86.2608 124.396 87.2263 124.396Z" fill="black"/>
<path d="M98.6834 124.043C98.9667 125.69 97.4853 128.564 95.8132 128.849C94.1411 129.134 91.7857 126.91 91.5024 125.263C91.2191 123.616 92.0844 122.092 94.5772 121.672C97.0701 121.251 98.3948 122.396 98.6781 124.043L98.6834 124.043Z" fill="#EAC00F"/>
</g>
</svg>
