<svg width="200" height="200" viewBox="0 0 200 200" fill="none" xmlns="http://www.w3.org/2000/svg">
<mask id="path-1-outside-1_922_9959" maskUnits="userSpaceOnUse" x="27.1528" y="17.6143" width="149" height="168" fill="black">
<rect fill="white" x="27.1528" y="17.6143" width="149" height="168"/>
<path d="M100.225 29.6317C100.943 29.6317 101.661 29.6456 102.371 29.703C122.143 30.8658 137.831 48.1409 137.831 71.0419C137.831 72.9138 137.429 76.1641 137.069 77.9286L153.65 68.7519C160.697 64.8549 168.771 67.5677 169.582 74.1415L169.597 74.1347V74.1493L169.598 74.1513C169.601 74.1414 169.603 74.1359 169.604 74.1347C169.608 74.156 170.271 77.3616 169.866 82.6552C169.855 82.8026 169.845 82.9507 169.833 83.0985C169.831 83.1435 169.824 83.1889 169.82 83.2353C169.815 83.2852 169.81 83.3353 169.805 83.3856C169.799 83.4396 169.795 83.495 169.79 83.5507C169.762 83.8448 169.726 84.1465 169.698 84.455C169.669 84.7326 169.628 85.0124 169.584 85.2948C169.551 85.5199 169.513 85.7461 169.473 85.9735C169.323 86.9243 169.126 87.8816 168.879 88.8251C168.42 90.6192 167.795 92.3989 166.955 94.1356C166.188 95.7431 165.248 97.308 164.085 98.8007C162.643 100.695 160.862 102.482 158.688 104.104C158.684 104.107 158.679 104.11 158.675 104.113C158.139 104.55 157.589 104.96 157.029 105.349C158.135 108.752 158.843 112.301 159.104 115.954C159.183 117.016 159.226 118.086 159.226 119.162C159.226 120.109 159.189 121.057 159.139 121.975C159.132 122.054 159.125 122.126 159.125 122.197C158.515 131.032 155.257 138.92 150.018 145.522C147.159 149.133 143.708 152.355 139.777 155.132L148.965 162.119L152.786 154.142C153.573 153.109 154.717 152.481 155.928 152.311C157.13 152.153 158.398 152.442 159.444 153.236C161.523 154.818 161.931 157.815 160.35 159.894L152.786 169.84C151.588 171.416 149.325 171.725 147.754 170.53L132.939 159.264C129.725 160.916 126.29 162.317 122.674 163.442C120.277 164.203 117.794 164.827 115.246 165.337C111.744 166.033 108.12 166.478 104.395 166.665C103.649 166.708 102.895 166.737 102.142 166.751C101.511 166.758 100.871 166.766 100.233 166.766C99.5941 166.766 98.962 166.758 98.3304 166.751C93.9383 166.65 89.6607 166.191 85.5629 165.409C85.3755 165.373 85.189 165.334 85.0023 165.297L84.3763 175.879C84.2598 177.849 82.5524 179.366 80.5824 179.25L68.1088 178.512C65.5012 178.357 63.4926 176.096 63.6468 173.488C63.724 172.184 64.332 171.027 65.2426 170.218C66.153 169.409 67.3663 168.949 68.6771 169.026L77.2191 171.329L77.6869 163.414C66.4254 159.88 56.9339 153.701 50.4545 145.529C50.4544 145.528 50.4539 145.523 50.4476 145.522C45.1943 138.891 41.9216 130.946 41.3402 122.055C41.3402 121.997 41.3327 121.925 41.3256 121.86C41.2753 120.97 41.2465 120.073 41.2465 119.162C41.2465 118.1 41.2821 117.044 41.3539 116.004C41.5861 112.726 42.1794 109.532 43.097 106.45C42.6674 106.063 42.2472 105.661 41.8392 105.241C41.7964 105.197 41.7547 105.151 41.7123 105.107C34.5992 98.3046 32.8156 89.9273 33.2025 82.3837C33.407 77.7983 34.2194 74.9156 34.3959 74.3378C34.4056 74.297 34.4153 74.2563 34.4252 74.2157C35.9863 67.7856 44.3085 66.0024 50.8705 70.6825L62.599 79.0536C62.6085 77.2215 62.6332 73.0265 62.6332 71.0419C62.626 47.3156 79.4627 29.6319 100.225 29.6317ZM153.888 37.1171C154.117 37.0781 154.353 37.1103 154.563 37.2089C154.773 37.3076 154.949 37.4687 155.065 37.6698L157.441 41.8437L162.163 42.703C162.393 42.7432 162.606 42.8544 162.77 43.0204C162.934 43.1864 163.042 43.3995 163.079 43.6298C163.12 43.8596 163.088 44.0965 162.989 44.3075C162.889 44.5185 162.726 44.6935 162.523 44.8075L158.35 47.1835L157.492 51.9081C157.448 52.1365 157.336 52.3458 157.17 52.5087C157.005 52.6714 156.794 52.7802 156.565 52.8192C156.336 52.8582 156.1 52.826 155.89 52.7274C155.68 52.6287 155.504 52.4677 155.388 52.2665L153.013 48.0927L148.288 47.2333C148.06 47.1901 147.851 47.0777 147.688 46.912C147.525 46.7463 147.417 46.5345 147.378 46.3056C147.339 46.0766 147.37 45.841 147.469 45.6308C147.568 45.4204 147.729 45.2451 147.93 45.1288L152.103 42.7538L152.961 38.0282C153.004 37.8001 153.116 37.5904 153.282 37.4276C153.447 37.2648 153.659 37.1561 153.888 37.1171ZM49.975 23.6903C50.2942 23.5893 50.6367 23.5891 50.9564 23.6884C51.2762 23.7877 51.5582 23.9819 51.764 24.246C51.9699 24.5102 52.0905 24.8314 52.1088 25.1659L52.4379 32.0829L57.9496 36.2714C58.2189 36.4731 58.4183 36.7536 58.5209 37.0741C58.6234 37.3947 58.6241 37.7397 58.5218 38.0605C58.4245 38.3824 58.2291 38.6659 57.9633 38.872C57.6973 39.078 57.3736 39.1971 57.0375 39.2108L50.1215 39.5419L45.934 45.0546C45.7295 45.32 45.4486 45.5169 45.1293 45.6181C44.8099 45.7192 44.4668 45.7203 44.1468 45.621C43.8271 45.5216 43.545 45.3265 43.3392 45.0624C43.1335 44.7982 43.0137 44.4769 42.9955 44.1425L42.6664 37.2265L37.1547 33.038C36.8894 32.8336 36.6923 32.5527 36.5912 32.2333C36.4901 31.9139 36.4889 31.5709 36.5883 31.2509C36.6876 30.931 36.8828 30.6492 37.1468 30.4433C37.4111 30.2373 37.7323 30.1168 38.0668 30.0985L44.9818 29.7685L49.1703 24.2538C49.3747 23.9885 49.6557 23.7915 49.975 23.6903Z"/>
</mask>
<path d="M100.225 29.6317C100.943 29.6317 101.661 29.6456 102.371 29.703C122.143 30.8658 137.831 48.1409 137.831 71.0419C137.831 72.9138 137.429 76.1641 137.069 77.9286L153.65 68.7519C160.697 64.8549 168.771 67.5677 169.582 74.1415L169.597 74.1347V74.1493L169.598 74.1513C169.601 74.1414 169.603 74.1359 169.604 74.1347C169.608 74.156 170.271 77.3616 169.866 82.6552C169.855 82.8026 169.845 82.9507 169.833 83.0985C169.831 83.1435 169.824 83.1889 169.82 83.2353C169.815 83.2852 169.81 83.3353 169.805 83.3856C169.799 83.4396 169.795 83.495 169.79 83.5507C169.762 83.8448 169.726 84.1465 169.698 84.455C169.669 84.7326 169.628 85.0124 169.584 85.2948C169.551 85.5199 169.513 85.7461 169.473 85.9735C169.323 86.9243 169.126 87.8816 168.879 88.8251C168.42 90.6192 167.795 92.3989 166.955 94.1356C166.188 95.7431 165.248 97.308 164.085 98.8007C162.643 100.695 160.862 102.482 158.688 104.104C158.684 104.107 158.679 104.11 158.675 104.113C158.139 104.55 157.589 104.96 157.029 105.349C158.135 108.752 158.843 112.301 159.104 115.954C159.183 117.016 159.226 118.086 159.226 119.162C159.226 120.109 159.189 121.057 159.139 121.975C159.132 122.054 159.125 122.126 159.125 122.197C158.515 131.032 155.257 138.92 150.018 145.522C147.159 149.133 143.708 152.355 139.777 155.132L148.965 162.119L152.786 154.142C153.573 153.109 154.717 152.481 155.928 152.311C157.13 152.153 158.398 152.442 159.444 153.236C161.523 154.818 161.931 157.815 160.35 159.894L152.786 169.84C151.588 171.416 149.325 171.725 147.754 170.53L132.939 159.264C129.725 160.916 126.29 162.317 122.674 163.442C120.277 164.203 117.794 164.827 115.246 165.337C111.744 166.033 108.12 166.478 104.395 166.665C103.649 166.708 102.895 166.737 102.142 166.751C101.511 166.758 100.871 166.766 100.233 166.766C99.5941 166.766 98.962 166.758 98.3304 166.751C93.9383 166.65 89.6607 166.191 85.5629 165.409C85.3755 165.373 85.189 165.334 85.0023 165.297L84.3763 175.879C84.2598 177.849 82.5524 179.366 80.5824 179.25L68.1088 178.512C65.5012 178.357 63.4926 176.096 63.6468 173.488C63.724 172.184 64.332 171.027 65.2426 170.218C66.153 169.409 67.3663 168.949 68.6771 169.026L77.2191 171.329L77.6869 163.414C66.4254 159.88 56.9339 153.701 50.4545 145.529C50.4544 145.528 50.4539 145.523 50.4476 145.522C45.1943 138.891 41.9216 130.946 41.3402 122.055C41.3402 121.997 41.3327 121.925 41.3256 121.86C41.2753 120.97 41.2465 120.073 41.2465 119.162C41.2465 118.1 41.2821 117.044 41.3539 116.004C41.5861 112.726 42.1794 109.532 43.097 106.45C42.6674 106.063 42.2472 105.661 41.8392 105.241C41.7964 105.197 41.7547 105.151 41.7123 105.107C34.5992 98.3046 32.8156 89.9273 33.2025 82.3837C33.407 77.7983 34.2194 74.9156 34.3959 74.3378C34.4056 74.297 34.4153 74.2563 34.4252 74.2157C35.9863 67.7856 44.3085 66.0024 50.8705 70.6825L62.599 79.0536C62.6085 77.2215 62.6332 73.0265 62.6332 71.0419C62.626 47.3156 79.4627 29.6319 100.225 29.6317ZM153.888 37.1171C154.117 37.0781 154.353 37.1103 154.563 37.2089C154.773 37.3076 154.949 37.4687 155.065 37.6698L157.441 41.8437L162.163 42.703C162.393 42.7432 162.606 42.8544 162.77 43.0204C162.934 43.1864 163.042 43.3995 163.079 43.6298C163.12 43.8596 163.088 44.0965 162.989 44.3075C162.889 44.5185 162.726 44.6935 162.523 44.8075L158.35 47.1835L157.492 51.9081C157.448 52.1365 157.336 52.3458 157.17 52.5087C157.005 52.6714 156.794 52.7802 156.565 52.8192C156.336 52.8582 156.1 52.826 155.89 52.7274C155.68 52.6287 155.504 52.4677 155.388 52.2665L153.013 48.0927L148.288 47.2333C148.06 47.1901 147.851 47.0777 147.688 46.912C147.525 46.7463 147.417 46.5345 147.378 46.3056C147.339 46.0766 147.37 45.841 147.469 45.6308C147.568 45.4204 147.729 45.2451 147.93 45.1288L152.103 42.7538L152.961 38.0282C153.004 37.8001 153.116 37.5904 153.282 37.4276C153.447 37.2648 153.659 37.1561 153.888 37.1171ZM49.975 23.6903C50.2942 23.5893 50.6367 23.5891 50.9564 23.6884C51.2762 23.7877 51.5582 23.9819 51.764 24.246C51.9699 24.5102 52.0905 24.8314 52.1088 25.1659L52.4379 32.0829L57.9496 36.2714C58.2189 36.4731 58.4183 36.7536 58.5209 37.0741C58.6234 37.3947 58.6241 37.7397 58.5218 38.0605C58.4245 38.3824 58.2291 38.6659 57.9633 38.872C57.6973 39.078 57.3736 39.1971 57.0375 39.2108L50.1215 39.5419L45.934 45.0546C45.7295 45.32 45.4486 45.5169 45.1293 45.6181C44.8099 45.7192 44.4668 45.7203 44.1468 45.621C43.8271 45.5216 43.545 45.3265 43.3392 45.0624C43.1335 44.7982 43.0137 44.4769 42.9955 44.1425L42.6664 37.2265L37.1547 33.038C36.8894 32.8336 36.6923 32.5527 36.5912 32.2333C36.4901 31.9139 36.4889 31.5709 36.5883 31.2509C36.6876 30.931 36.8828 30.6492 37.1468 30.4433C37.4111 30.2373 37.7323 30.1168 38.0668 30.0985L44.9818 29.7685L49.1703 24.2538C49.3747 23.9885 49.6557 23.7915 49.975 23.6903Z" fill="#F0BF3A"/>
<path d="M100.225 29.6317L100.225 23.6317L100.225 23.6317L100.225 29.6317ZM102.371 29.703L101.888 35.6835C101.932 35.6871 101.976 35.6901 102.019 35.6927L102.371 29.703ZM137.831 71.0419L143.831 71.042V71.0419H137.831ZM137.069 77.9286L131.19 76.7293C130.722 79.0232 131.631 81.3797 133.518 82.7652C135.405 84.1506 137.926 84.3119 139.974 83.1782L137.069 77.9286ZM153.65 68.7519L150.746 63.5011L150.744 63.5022L153.65 68.7519ZM169.582 74.1415L163.628 74.8762C163.863 76.7821 164.996 78.4603 166.676 79.3905C168.356 80.3208 170.38 80.3907 172.12 79.5786L169.582 74.1415ZM169.597 74.1347H175.597C175.597 72.084 174.55 70.1754 172.82 69.0738C171.09 67.9723 168.918 67.8304 167.06 68.6976L169.597 74.1347ZM169.597 74.1493H163.597C163.597 75.0808 163.814 75.9995 164.23 76.8326L169.597 74.1493ZM169.598 74.1513L164.231 76.8346C165.32 79.0107 167.614 80.3144 170.041 80.1349C172.467 79.9555 174.545 78.3285 175.301 76.016L169.598 74.1513ZM169.604 74.1347L175.477 72.909C174.922 70.2461 172.644 68.2902 169.928 68.1434C167.211 67.9966 164.736 69.6956 163.897 72.2831L169.604 74.1347ZM169.866 82.6552L163.883 82.1965C163.882 82.2116 163.881 82.2268 163.88 82.2419L169.866 82.6552ZM169.833 83.0985L163.853 82.6173C163.848 82.6775 163.844 82.7378 163.841 82.7981L169.833 83.0985ZM169.82 83.2353L163.847 82.6677C163.846 82.6792 163.844 82.6908 163.843 82.7023L169.82 83.2353ZM169.805 83.3856L175.769 84.0388C175.773 84.0051 175.776 83.9714 175.78 83.9377L169.805 83.3856ZM169.79 83.5507L175.762 84.1334C175.763 84.1202 175.765 84.1071 175.766 84.0939L169.79 83.5507ZM169.698 84.455L175.665 85.0786C175.667 85.056 175.67 85.0334 175.672 85.0107L169.698 84.455ZM169.584 85.2948L163.656 84.371C163.654 84.3834 163.652 84.3959 163.65 84.4083L169.584 85.2948ZM169.473 85.9735L163.565 84.9297C163.558 84.9665 163.552 85.0033 163.546 85.0402L169.473 85.9735ZM168.879 88.8251L163.074 87.3088C163.072 87.3183 163.069 87.3277 163.067 87.3371L168.879 88.8251ZM166.955 94.1356L161.554 91.5241C161.55 91.5325 161.545 91.541 161.541 91.5495L166.955 94.1356ZM164.085 98.8007L159.352 95.114C159.338 95.1313 159.325 95.1486 159.311 95.1661L164.085 98.8007ZM158.688 104.104L155.101 99.2949C155.093 99.3005 155.086 99.3061 155.078 99.3117L158.688 104.104ZM158.675 104.113L155.068 99.3185C155.006 99.3651 154.945 99.413 154.885 99.462L158.675 104.113ZM157.029 105.349L153.609 100.419C151.433 101.928 150.504 104.685 151.323 107.203L157.029 105.349ZM159.104 115.954L153.119 116.381C153.12 116.387 153.12 116.393 153.12 116.399L159.104 115.954ZM159.226 119.162L165.226 119.162V119.162H159.226ZM159.139 121.975L165.114 122.519C165.121 122.447 165.126 122.375 165.13 122.303L159.139 121.975ZM159.125 122.197L165.111 122.61C165.121 122.474 165.125 122.337 165.125 122.2L159.125 122.197ZM150.018 145.522L145.318 141.793L145.314 141.798L150.018 145.522ZM139.777 155.132L136.315 150.231C134.754 151.334 133.811 153.115 133.778 155.026C133.744 156.938 134.623 158.751 136.145 159.908L139.777 155.132ZM148.965 162.119L145.333 166.895C146.769 167.987 148.62 168.375 150.374 167.951C152.127 167.528 153.597 166.338 154.376 164.711L148.965 162.119ZM152.786 154.142L148.011 150.511C147.764 150.835 147.551 151.183 147.375 151.55L152.786 154.142ZM155.928 152.311L155.144 146.363C155.128 146.365 155.111 146.367 155.094 146.37L155.928 152.311ZM159.444 153.236L163.076 148.46L163.075 148.46L159.444 153.236ZM160.35 159.894L165.126 163.526L165.126 163.526L160.35 159.894ZM152.786 169.84L148.011 166.208L148.011 166.208L152.786 169.84ZM147.754 170.53L144.122 175.306L144.123 175.307L147.754 170.53ZM132.939 159.264L136.571 154.488C134.731 153.089 132.251 152.871 130.196 153.927L132.939 159.264ZM122.674 163.442L120.892 157.713C120.881 157.717 120.87 157.72 120.859 157.723L122.674 163.442ZM115.246 165.337L116.416 171.222L116.423 171.22L115.246 165.337ZM104.395 166.665L104.095 160.672C104.08 160.673 104.064 160.674 104.049 160.675L104.395 166.665ZM102.142 166.751L102.21 172.75C102.226 172.75 102.241 172.75 102.256 172.75L102.142 166.751ZM100.233 166.766L100.233 172.766L100.233 172.766L100.233 166.766ZM98.3304 166.751L98.1932 172.749C98.2162 172.75 98.2392 172.75 98.2623 172.75L98.3304 166.751ZM85.5629 165.409L84.431 171.301L84.4378 171.303L85.5629 165.409ZM85.0023 165.297L86.1806 159.414C84.4785 159.073 82.7122 159.486 81.3377 160.546C79.9632 161.606 79.1153 163.21 79.0128 164.942L85.0023 165.297ZM84.3763 175.879L90.3659 176.233L90.3659 176.233L84.3763 175.879ZM80.5824 179.25L80.2279 185.239L80.2286 185.239L80.5824 179.25ZM68.1088 178.512L67.7539 184.501L67.7543 184.501L68.1088 178.512ZM63.6468 173.488L57.6573 173.134L57.6573 173.134L63.6468 173.488ZM65.2426 170.218L61.2581 165.732L61.2579 165.732L65.2426 170.218ZM68.6771 169.026L70.2388 163.233C69.844 163.127 69.4393 163.061 69.031 163.037L68.6771 169.026ZM77.2191 171.329L75.6574 177.122C77.4 177.592 79.2615 177.252 80.7259 176.198C82.1904 175.143 83.1022 173.485 83.2087 171.683L77.2191 171.329ZM77.6869 163.414L83.6764 163.768C83.8389 161.02 82.1102 158.514 79.4835 157.689L77.6869 163.414ZM50.4545 145.529L44.4592 145.766C44.5094 147.038 44.9625 148.26 45.753 149.257L50.4545 145.529ZM50.4476 145.522L45.7446 149.248C46.8375 150.628 48.4811 151.458 50.2402 151.519L50.4476 145.522ZM41.3402 122.055H35.3402C35.3402 122.185 35.3445 122.316 35.353 122.446L41.3402 122.055ZM41.3256 121.86L35.3351 122.198C35.3412 122.307 35.3503 122.415 35.3623 122.523L41.3256 121.86ZM41.2465 119.162L35.2465 119.162L35.2465 119.162L41.2465 119.162ZM41.3539 116.004L35.3689 115.58L35.3681 115.591L41.3539 116.004ZM43.097 106.45L48.8475 108.162C49.508 105.944 48.8339 103.544 47.1151 101.994L43.097 106.45ZM41.8392 105.241L46.1404 101.058L46.1399 101.057L41.8392 105.241ZM41.7123 105.107L46.0378 100.949C45.9796 100.889 45.92 100.829 45.8593 100.771L41.7123 105.107ZM33.2025 82.3837L39.1946 82.691C39.1953 82.6777 39.196 82.6644 39.1966 82.651L33.2025 82.3837ZM34.3959 74.3378L40.1342 76.0903C40.1701 75.9728 40.2024 75.8542 40.231 75.7347L34.3959 74.3378ZM34.4252 74.2157L28.5946 72.8001L28.5935 72.8043L34.4252 74.2157ZM50.8705 70.6825L54.3561 65.7989L54.3545 65.7977L50.8705 70.6825ZM62.599 79.0536L59.1133 83.9373C60.9378 85.2395 63.336 85.4161 65.3316 84.3952C67.3272 83.3744 68.5873 81.3263 68.5989 79.0847L62.599 79.0536ZM62.6332 71.0419L68.6332 71.0419L68.6332 71.0401L62.6332 71.0419ZM153.888 37.1171L152.88 31.2024L152.879 31.2025L153.888 37.1171ZM154.563 37.2089L157.113 31.7779L157.111 31.7771L154.563 37.2089ZM155.065 37.6698L160.279 34.7015C160.272 34.6898 160.266 34.6782 160.259 34.6665L155.065 37.6698ZM157.441 41.8437L152.226 44.8119C153.105 46.3544 154.62 47.429 156.367 47.7467L157.441 41.8437ZM162.163 42.703L161.089 48.6061C161.103 48.6086 161.117 48.6111 161.131 48.6136L162.163 42.703ZM162.77 43.0204L167.039 38.8045L167.038 38.8033L162.77 43.0204ZM163.079 43.6298L157.157 44.5924C157.162 44.6228 157.167 44.6533 157.173 44.6836L163.079 43.6298ZM162.989 44.3075L168.413 46.873L168.413 46.8728L162.989 44.3075ZM162.523 44.8075L159.59 39.5732C159.578 39.5799 159.566 39.5867 159.554 39.5935L162.523 44.8075ZM158.35 47.1835L155.381 41.9695C153.838 42.8479 152.764 44.3643 152.447 46.1109L158.35 47.1835ZM157.492 51.9081L163.388 53.0207C163.39 53.0074 163.393 52.994 163.395 52.9807L157.492 51.9081ZM157.17 52.5087L161.375 56.7886L161.376 56.7883L157.17 52.5087ZM156.565 52.8192L157.573 58.734L157.575 58.7336L156.565 52.8192ZM155.89 52.7274L153.34 58.1585L153.342 58.1595L155.89 52.7274ZM155.388 52.2665L150.173 55.2339C150.18 55.2457 150.187 55.2575 150.194 55.2693L155.388 52.2665ZM153.013 48.0927L158.228 45.1253C157.35 43.5822 155.834 42.5073 154.087 42.1895L153.013 48.0927ZM148.288 47.2333L147.173 53.1287C147.187 53.1314 147.201 53.1339 147.215 53.1364L148.288 47.2333ZM147.688 46.912L143.405 51.1146L143.407 51.1161L147.688 46.912ZM147.378 46.3056L141.463 47.312L141.464 47.3136L147.378 46.3056ZM147.469 45.6308L142.037 43.082L142.037 43.0822L147.469 45.6308ZM147.93 45.1288L144.962 39.9143C144.95 39.9211 144.938 39.928 144.926 39.9349L147.93 45.1288ZM152.103 42.7538L155.071 47.9684C156.614 47.09 157.689 45.5732 158.006 43.8262L152.103 42.7538ZM152.961 38.0282L147.066 36.9141C147.063 36.928 147.06 36.9419 147.058 36.9559L152.961 38.0282ZM153.282 37.4276L149.076 33.148L149.075 33.1489L153.282 37.4276ZM49.975 23.6903L48.1649 17.9699L48.1628 17.9705L49.975 23.6903ZM50.9564 23.6884L52.7358 17.9583L52.7354 17.9582L50.9564 23.6884ZM51.764 24.246L56.4968 20.5581L56.4961 20.5572L51.764 24.246ZM52.1088 25.1659L58.102 24.8808C58.1013 24.867 58.1006 24.8533 58.0999 24.8396L52.1088 25.1659ZM52.4379 32.0829L46.4446 32.3681C46.529 34.1412 47.3942 35.786 48.8076 36.8601L52.4379 32.0829ZM57.9496 36.2714L54.3193 41.0485C54.3304 41.057 54.3415 41.0654 54.3527 41.0737L57.9496 36.2714ZM58.5209 37.0741L64.2357 35.2462L64.2355 35.2459L58.5209 37.0741ZM58.5218 38.0605L52.8056 36.2372C52.7963 36.2663 52.7872 36.2954 52.7784 36.3246L58.5218 38.0605ZM57.9633 38.872L61.6382 43.6149L61.6394 43.6139L57.9633 38.872ZM57.0375 39.2108L56.7918 33.2159C56.7781 33.2164 56.7643 33.217 56.7506 33.2177L57.0375 39.2108ZM50.1215 39.5419L49.8346 33.5488C48.0616 33.6336 46.4172 34.4991 45.3436 35.9126L50.1215 39.5419ZM45.934 45.0546L50.6874 48.7159C50.6955 48.7053 50.7037 48.6946 50.7118 48.6839L45.934 45.0546ZM45.1293 45.6181L46.9414 51.3379L46.9416 51.3378L45.1293 45.6181ZM44.1468 45.621L42.3664 51.3507L42.3679 51.3512L44.1468 45.621ZM43.3392 45.0624L38.6056 48.7493L38.6065 48.7503L43.3392 45.0624ZM42.9955 44.1425L37.0023 44.4277C37.0029 44.4412 37.0036 44.4547 37.0043 44.4682L42.9955 44.1425ZM42.6664 37.2265L48.6596 36.9413C48.5752 35.1681 47.71 33.5234 46.2966 32.4493L42.6664 37.2265ZM37.1547 33.038L33.4924 37.7907C33.503 37.7989 33.5137 37.807 33.5244 37.8151L37.1547 33.038ZM36.5912 32.2333L30.8709 34.0438L30.871 34.0443L36.5912 32.2333ZM36.5883 31.2509L30.858 29.4719L30.858 29.4722L36.5883 31.2509ZM37.1468 30.4433L33.4576 25.7115L33.4564 25.7124L37.1468 30.4433ZM38.0668 30.0985L37.7807 24.1054C37.7671 24.106 37.7535 24.1067 37.7399 24.1074L38.0668 30.0985ZM44.9818 29.7685L45.2679 35.7616C47.0412 35.677 48.6861 34.8113 49.7599 33.3975L44.9818 29.7685ZM49.1703 24.2538L44.4176 20.5916C44.4091 20.6026 44.4006 20.6137 44.3922 20.6248L49.1703 24.2538ZM100.225 29.6317V35.6317C100.877 35.6317 101.412 35.645 101.888 35.6835L102.371 29.703L102.855 23.7225C101.91 23.6462 101.008 23.6317 100.225 23.6317V29.6317ZM102.371 29.703L102.019 35.6927C118.205 36.6446 131.831 50.8855 131.831 71.0419H137.831H143.831C143.831 45.3964 126.081 25.087 102.724 23.7134L102.371 29.703ZM137.831 71.0419L131.831 71.0418C131.831 72.4073 131.493 75.243 131.19 76.7293L137.069 77.9286L142.948 79.1279C143.364 77.0852 143.831 73.4203 143.831 71.042L137.831 71.0419ZM137.069 77.9286L139.974 83.1782L156.555 74.0015L153.65 68.7519L150.744 63.5022L134.163 72.679L137.069 77.9286ZM153.65 68.7519L156.553 74.0026C158.744 72.791 160.78 72.7812 162.036 73.2051C163.186 73.5934 163.545 74.2085 163.628 74.8762L169.582 74.1415L175.537 73.4068C174.809 67.5007 170.725 63.4726 165.873 61.8352C161.128 60.2335 155.603 60.8158 150.746 63.5011L153.65 68.7519ZM169.582 74.1415L172.12 79.5786L172.134 79.5718L169.597 74.1347L167.06 68.6976L167.045 68.7044L169.582 74.1415ZM169.597 74.1347H163.597V74.1493H169.597H175.597V74.1347H169.597ZM169.597 74.1493L164.23 76.8326L164.231 76.8346L169.598 74.1513L174.965 71.468L174.964 71.466L169.597 74.1493ZM169.598 74.1513L175.301 76.016C175.289 76.0516 175.278 76.0855 175.267 76.1176C175.255 76.1499 175.245 76.1786 175.236 76.2028C175.228 76.2254 175.221 76.2449 175.222 76.2405C175.222 76.2398 175.224 76.2355 175.226 76.2301C175.228 76.2249 175.232 76.2142 175.237 76.2007C175.24 76.1937 175.243 76.1847 175.247 76.1742C175.25 76.1639 175.255 76.1506 175.261 76.1351C175.266 76.1199 175.273 76.1 175.281 76.0767C175.289 76.0538 175.299 76.0229 175.311 75.9862L169.604 74.1347L163.897 72.2831C163.903 72.2644 163.908 72.2476 163.913 72.2329C163.918 72.2181 163.923 72.2047 163.927 72.1929C163.935 72.1697 163.942 72.15 163.947 72.1348C163.952 72.1194 163.957 72.1063 163.961 72.096C163.965 72.0857 163.968 72.0769 163.97 72.07C163.973 72.063 163.975 72.0571 163.977 72.0526C163.978 72.0481 163.98 72.0443 163.981 72.0416C163.983 72.0365 163.984 72.0326 163.984 72.0323C163.985 72.0296 163.977 72.0513 163.968 72.0768C163.958 72.1037 163.946 72.1356 163.934 72.1718C163.921 72.2077 163.908 72.246 163.895 72.2866L169.598 74.1513ZM169.604 74.1347L163.73 75.3604C163.644 74.9452 164.238 77.5747 163.883 82.1965L169.866 82.6552L175.848 83.1139C176.305 77.1485 175.573 73.3667 175.477 72.909L169.604 74.1347ZM169.866 82.6552L163.88 82.2419C163.869 82.3979 163.861 82.51 163.853 82.6173L169.833 83.0985L175.814 83.5797C175.829 83.3913 175.842 83.2073 175.851 83.0684L169.866 82.6552ZM169.833 83.0985L163.841 82.7981C163.846 82.7058 163.852 82.6308 163.856 82.5809C163.861 82.5323 163.865 82.4967 163.866 82.4892C163.866 82.4853 163.866 82.4831 163.866 82.4892C163.865 82.4928 163.864 82.5056 163.862 82.5191C163.859 82.5466 163.853 82.6011 163.847 82.6677L169.82 83.2353L175.793 83.8028C175.789 83.8462 175.785 83.8776 175.785 83.8822C175.784 83.8842 175.784 83.8856 175.785 83.8778C175.786 83.8725 175.787 83.8588 175.789 83.8435C175.795 83.7923 175.815 83.6169 175.826 83.399L169.833 83.0985ZM169.82 83.2353L163.843 82.7023C163.845 82.6891 163.845 82.6829 163.843 82.7091C163.842 82.7183 163.84 82.7377 163.838 82.7567C163.836 82.777 163.833 82.8035 163.831 82.8336L169.805 83.3856L175.78 83.9377C175.779 83.9426 175.779 83.9454 175.782 83.9115C175.785 83.8877 175.79 83.8314 175.796 83.7682L169.82 83.2353ZM169.805 83.3856L163.841 82.7325C163.829 82.8402 163.821 82.9313 163.818 82.9704C163.817 82.9813 163.816 82.9914 163.816 82.9982C163.815 83.0059 163.815 83.0099 163.814 83.0135C163.814 83.0207 163.814 83.0166 163.815 83.0075L169.79 83.5507L175.766 84.0939C175.769 84.0569 175.772 84.025 175.774 84.0044C175.774 83.9942 175.775 83.9843 175.776 83.9782C175.776 83.9711 175.777 83.9675 175.777 83.9646C175.777 83.9586 175.777 83.9644 175.776 83.9755C175.775 83.9872 175.773 84.0094 175.769 84.0388L169.805 83.3856ZM169.79 83.5507L163.819 82.968C163.818 82.9769 163.742 83.7032 163.723 83.8992L169.698 84.455L175.672 85.0107C175.711 84.5898 175.706 84.7128 175.762 84.1334L169.79 83.5507ZM169.698 84.455L163.73 83.8314C163.717 83.9611 163.694 84.126 163.656 84.371L169.584 85.2948L175.513 86.2187C175.563 85.8988 175.621 85.5042 175.665 85.0786L169.698 84.455ZM169.584 85.2948L163.65 84.4083C163.626 84.57 163.598 84.7425 163.565 84.9297L169.473 85.9735L175.382 87.0174C175.429 86.7497 175.475 86.4698 175.518 86.1814L169.584 85.2948ZM169.473 85.9735L163.546 85.0402C163.426 85.8026 163.268 86.5651 163.074 87.3088L168.879 88.8251L174.685 90.3414C174.983 89.1982 175.221 88.046 175.4 86.9069L169.473 85.9735ZM168.879 88.8251L163.067 87.3371C162.696 88.787 162.201 90.1852 161.554 91.5241L166.955 94.1356L172.357 96.7472C173.389 94.6127 174.144 92.4514 174.692 90.3131L168.879 88.8251ZM166.955 94.1356L161.541 91.5495C160.943 92.8023 160.225 93.9923 159.352 95.114L164.085 98.8007L168.819 102.487C170.271 100.624 171.432 98.684 172.369 96.7218L166.955 94.1356ZM164.085 98.8007L159.311 95.1661C158.213 96.6083 156.834 98.0017 155.101 99.2949L158.688 104.104L162.275 108.914C164.891 106.963 167.072 104.782 168.859 102.435L164.085 98.8007ZM158.688 104.104L155.078 99.3117C155.125 99.2763 155.167 99.2456 155.203 99.2201C155.239 99.1947 155.269 99.1734 155.293 99.1571C155.317 99.1409 155.336 99.1281 155.347 99.1204C155.353 99.1165 155.358 99.1134 155.361 99.1116C155.363 99.1099 155.365 99.1086 155.365 99.109C155.365 99.109 155.364 99.1094 155.363 99.1099C155.362 99.1105 155.361 99.1114 155.359 99.1125C155.356 99.1146 155.351 99.118 155.345 99.1221C155.333 99.1303 155.313 99.1437 155.288 99.1605C155.264 99.1773 155.232 99.1992 155.195 99.2252C155.159 99.2513 155.116 99.2825 155.068 99.3185L158.675 104.113L162.282 108.908C162.235 108.943 162.193 108.974 162.158 108.999C162.123 109.024 162.092 109.045 162.068 109.061C162.045 109.077 162.026 109.09 162.015 109.098C162.009 109.101 162.005 109.104 162.002 109.106C162 109.108 161.998 109.109 161.998 109.109C161.998 109.109 161.999 109.108 162 109.108C162.001 109.107 162.002 109.106 162.004 109.105C162.007 109.103 162.012 109.099 162.019 109.095C162.031 109.087 162.051 109.073 162.076 109.056C162.101 109.039 162.133 109.017 162.17 108.991C162.206 108.965 162.25 108.933 162.298 108.897L158.688 104.104ZM158.675 104.113L154.885 99.462C154.483 99.7897 154.058 100.107 153.609 100.419L157.029 105.349L160.449 110.278C161.121 109.812 161.796 109.31 162.465 108.764L158.675 104.113ZM157.029 105.349L151.323 107.203C152.282 110.155 152.894 113.225 153.119 116.381L159.104 115.954L165.089 115.527C164.793 111.377 163.988 107.35 162.735 103.494L157.029 105.349ZM159.104 115.954L153.12 116.399C153.189 117.325 153.226 118.246 153.226 119.162H159.226H165.226C165.226 117.925 165.176 116.707 165.087 115.509L159.104 115.954ZM159.226 119.162L153.226 119.162C153.226 119.96 153.195 120.79 153.148 121.648L159.139 121.975L165.13 122.303C165.184 121.324 165.226 120.258 165.226 119.162L159.226 119.162ZM159.139 121.975L153.164 121.432C153.161 121.459 153.126 121.805 153.125 122.195L159.125 122.197L165.125 122.2C165.125 122.342 165.119 122.451 165.115 122.501C165.114 122.526 165.112 122.543 165.112 122.544C165.112 122.546 165.112 122.545 165.112 122.54C165.113 122.535 165.113 122.529 165.114 122.519L159.139 121.975ZM159.125 122.197L153.14 121.784C152.617 129.348 149.842 136.091 145.318 141.793L150.018 145.522L154.718 149.252C160.672 141.748 164.413 132.716 165.111 122.61L159.125 122.197ZM150.018 145.522L145.314 141.798C142.836 144.928 139.812 147.761 136.315 150.231L139.777 155.132L143.239 160.032C147.603 156.949 151.482 153.339 154.722 149.247L150.018 145.522ZM139.777 155.132L136.145 159.908L145.333 166.895L148.965 162.119L152.597 157.343L143.409 150.356L139.777 155.132ZM148.965 162.119L154.376 164.711L158.198 156.735L152.786 154.142L147.375 151.55L143.554 159.527L148.965 162.119ZM152.786 154.142L157.562 157.774C157.343 158.063 157.038 158.214 156.762 158.253L155.928 152.311L155.094 146.37C152.396 146.748 149.803 148.154 148.011 150.511L152.786 154.142ZM155.928 152.311L156.712 158.26C156.442 158.296 156.102 158.233 155.812 158.013L159.444 153.236L163.075 148.46C160.695 146.65 157.818 146.011 155.144 146.363L155.928 152.311ZM159.444 153.236L155.812 158.012C155.254 157.588 155.149 156.821 155.574 156.263L160.35 159.894L165.126 163.526C168.713 158.809 167.792 152.047 163.076 148.46L159.444 153.236ZM160.35 159.894L155.574 156.262L148.011 166.208L152.786 169.84L157.562 173.472L165.126 163.526L160.35 159.894ZM152.786 169.84L148.011 166.208C148.812 165.154 150.312 164.938 151.386 165.754L147.754 170.53L144.123 175.307C148.338 178.511 154.363 177.679 157.562 173.472L152.786 169.84ZM147.754 170.53L151.386 165.754L136.571 154.488L132.939 159.264L129.307 164.039L144.122 175.306L147.754 170.53ZM132.939 159.264L130.196 153.927C127.3 155.416 124.188 156.688 120.892 157.713L122.674 163.442L124.457 169.171C128.393 167.947 132.15 166.415 135.682 164.6L132.939 159.264ZM122.674 163.442L120.859 157.723C118.698 158.409 116.43 158.981 114.07 159.453L115.246 165.337L116.423 171.22C119.158 170.673 121.857 169.997 124.489 169.161L122.674 163.442ZM115.246 165.337L114.077 159.452C110.871 160.089 107.537 160.5 104.095 160.672L104.395 166.665L104.695 172.657C108.702 172.457 112.618 171.977 116.416 171.222L115.246 165.337ZM104.395 166.665L104.049 160.675C103.382 160.713 102.706 160.739 102.028 160.752L102.142 166.751L102.256 172.75C103.085 172.734 103.915 172.703 104.74 172.655L104.395 166.665ZM102.142 166.751L102.074 160.751C101.435 160.759 100.831 160.766 100.233 160.766L100.233 166.766L100.233 172.766C100.912 172.766 101.586 172.758 102.21 172.75L102.142 166.751ZM100.233 166.766V160.766C99.6346 160.766 99.0383 160.759 98.3986 160.751L98.3304 166.751L98.2623 172.75C98.8856 172.758 99.5535 172.766 100.233 172.766V166.766ZM98.3304 166.751L98.4677 160.752C94.4032 160.659 90.4561 160.235 86.6879 159.516L85.5629 165.409L84.4378 171.303C88.8653 172.148 93.4734 172.641 98.1932 172.749L98.3304 166.751ZM85.5629 165.409L86.6947 159.517C86.534 159.486 86.4351 159.465 86.1806 159.414L85.0023 165.297L83.8241 171.18C83.9429 171.204 84.2171 171.26 84.431 171.301L85.5629 165.409ZM85.0023 165.297L79.0128 164.942L78.3868 175.525L84.3763 175.879L90.3659 176.233L90.9918 165.651L85.0023 165.297ZM84.3763 175.879L78.3868 175.524C78.4659 174.188 79.5969 173.181 80.9362 173.26L80.5824 179.25L80.2286 185.239C85.5079 185.551 90.0537 181.509 90.3659 176.233L84.3763 175.879ZM80.5824 179.25L80.9369 173.26L68.4633 172.522L68.1088 178.512L67.7543 184.501L80.2279 185.239L80.5824 179.25ZM68.1088 178.512L68.4636 172.522C69.1638 172.564 69.6778 173.142 69.6364 173.842L63.6468 173.488L57.6573 173.134C57.3075 179.049 61.8386 184.151 67.7539 184.501L68.1088 178.512ZM63.6468 173.488L69.6364 173.843C69.6145 174.212 69.4411 174.513 69.2272 174.704L65.2426 170.218L61.2579 165.732C59.2228 167.54 57.8335 170.156 57.6573 173.134L63.6468 173.488ZM65.2426 170.218L69.227 174.704C68.9989 174.906 68.6675 175.036 68.3232 175.016L68.6771 169.026L69.031 163.037C66.0651 162.861 63.3071 163.912 61.2581 165.732L65.2426 170.218ZM68.6771 169.026L67.1154 174.819L75.6574 177.122L77.2191 171.329L78.7808 165.536L70.2388 163.233L68.6771 169.026ZM77.2191 171.329L83.2087 171.683L83.6764 163.768L77.6869 163.414L71.6973 163.06L71.2296 170.975L77.2191 171.329ZM77.6869 163.414L79.4835 157.689C69.1848 154.457 60.7777 148.892 55.1559 141.801L50.4545 145.529L45.753 149.257C53.0902 158.511 63.666 165.302 75.8903 169.139L77.6869 163.414ZM50.4545 145.529L56.4498 145.292C56.4339 144.892 56.3593 143.743 55.6371 142.504C54.6846 140.87 52.8833 139.603 50.6551 139.526L50.4476 145.522L50.2402 151.519C49.3028 151.486 48.2599 151.227 47.2782 150.616C46.3134 150.014 45.6726 149.238 45.2697 148.547C44.5493 147.311 44.475 146.166 44.4592 145.766L50.4545 145.529ZM50.4476 145.522L55.1507 141.797C50.6131 136.069 47.8251 129.275 47.3274 121.663L41.3402 122.055L35.353 122.446C36.0181 132.618 39.7756 141.714 45.7446 149.248L50.4476 145.522ZM41.3402 122.055H47.3402C47.3402 121.61 47.2902 121.21 47.2889 121.198L41.3256 121.86L35.3623 122.523C35.3648 122.546 35.3606 122.511 35.3561 122.456C35.3536 122.426 35.3499 122.377 35.3468 122.316C35.3437 122.256 35.3402 122.166 35.3402 122.055H41.3402ZM41.3256 121.86L47.316 121.522C47.2713 120.73 47.2465 119.946 47.2465 119.162L41.2465 119.162L35.2465 119.162C35.2465 120.2 35.2794 121.211 35.3351 122.198L41.3256 121.86ZM41.2465 119.162H47.2465C47.2465 118.234 47.2776 117.316 47.3397 116.417L41.3539 116.004L35.3681 115.591C35.2866 116.773 35.2465 117.966 35.2465 119.162H41.2465ZM41.3539 116.004L47.3389 116.428C47.5395 113.596 48.052 110.834 48.8475 108.162L43.097 106.45L37.3466 104.738C36.3068 108.23 35.6327 111.855 35.3689 115.58L41.3539 116.004ZM43.097 106.45L47.1151 101.994C46.7738 101.686 46.4489 101.375 46.1404 101.058L41.8392 105.241L37.538 109.424C38.0455 109.946 38.5611 110.439 39.0789 110.906L43.097 106.45ZM41.8392 105.241L46.1399 101.057C46.1507 101.068 46.1576 101.076 46.1584 101.077C46.1587 101.077 46.1568 101.075 46.1474 101.065C46.141 101.058 46.1235 101.039 46.1074 101.022C46.0897 101.004 46.0656 100.978 46.0378 100.949L41.7123 105.107L37.3867 109.265C37.3802 109.259 37.3772 109.255 37.3806 109.259C37.3856 109.264 37.3892 109.268 37.4038 109.284C37.4249 109.306 37.4775 109.362 37.5385 109.425L41.8392 105.241ZM41.7123 105.107L45.8593 100.771C40.3558 95.5077 38.869 89.0398 39.1946 82.691L33.2025 82.3837L27.2104 82.0764C26.7622 90.8148 28.8426 101.101 37.5653 109.444L41.7123 105.107ZM33.2025 82.3837L39.1966 82.651C39.3748 78.6544 40.078 76.2745 40.1342 76.0903L34.3959 74.3378L28.6575 72.5853C28.3609 73.5567 27.4392 76.9421 27.2085 82.1164L33.2025 82.3837ZM34.3959 74.3378L40.231 75.7347C40.2422 75.6877 40.2493 75.6583 40.2568 75.6272L34.4252 74.2157L28.5935 72.8043C28.5814 72.8544 28.569 72.9064 28.5608 72.9408L34.3959 74.3378ZM34.4252 74.2157L40.2558 75.6313C40.4149 74.976 40.8446 74.404 42.0318 74.1491C43.326 73.8713 45.3456 74.1118 47.3865 75.5674L50.8705 70.6825L54.3545 65.7977C49.8334 62.5731 44.411 61.3651 39.5133 62.4164C34.5086 63.4907 29.9966 67.0254 28.5946 72.8001L34.4252 74.2157ZM50.8705 70.6825L47.3848 75.5662L59.1133 83.9373L62.599 79.0536L66.0847 74.17L54.3561 65.7989L50.8705 70.6825ZM62.599 79.0536L68.5989 79.0847C68.6083 77.2677 68.6332 73.047 68.6332 71.0419L62.6332 71.0419L56.6332 71.0419C56.6332 73.0059 56.6087 77.1752 56.5991 79.0225L62.599 79.0536ZM62.6332 71.0419L68.6332 71.0401C68.6269 50.1559 83.2306 35.6319 100.225 35.6317L100.225 29.6317L100.225 23.6317C75.6949 23.632 56.6251 44.4754 56.6332 71.0437L62.6332 71.0419ZM153.888 37.1171L154.896 43.0318C153.915 43.199 152.91 43.0608 152.014 42.6407L154.563 37.2089L157.111 31.7771C155.796 31.1597 154.319 30.9571 152.88 31.2024L153.888 37.1171ZM154.563 37.2089L152.013 42.6399C151.114 42.218 150.367 41.5318 149.871 40.6731L155.065 37.6698L160.259 34.6665C159.53 33.4056 158.432 32.3972 157.113 31.7779L154.563 37.2089ZM155.065 37.6698L149.85 40.6381L152.226 44.8119L157.441 41.8437L162.655 38.8754L160.279 34.7015L155.065 37.6698ZM157.441 41.8437L156.367 47.7467L161.089 48.6061L162.163 42.703L163.238 36.8L158.515 35.9406L157.441 41.8437ZM162.163 42.703L161.131 48.6136C160.133 48.4392 159.214 47.9585 158.502 47.2375L162.77 43.0204L167.038 38.8033C165.997 37.7502 164.654 37.0471 163.196 36.7925L162.163 42.703ZM162.77 43.0204L158.501 47.2364C157.788 46.5151 157.319 45.5908 157.157 44.5924L163.079 43.6298L169.002 42.6672C168.765 41.2081 168.079 39.8577 167.039 38.8045L162.77 43.0204ZM163.079 43.6298L157.173 44.6836C156.993 43.6788 157.135 42.6513 157.565 41.7423L162.989 44.3075L168.413 46.8728C169.042 45.5417 169.247 44.0405 168.986 42.5759L163.079 43.6298ZM162.989 44.3075L157.565 41.7421C157.993 40.8365 158.696 40.0739 159.59 39.5732L162.523 44.8075L165.456 50.0419C166.756 49.313 167.785 48.2005 168.413 46.873L162.989 44.3075ZM162.523 44.8075L159.554 39.5935L155.381 41.9695L158.35 47.1835L161.319 52.3975L165.492 50.0216L162.523 44.8075ZM158.35 47.1835L152.447 46.1109L151.588 50.8355L157.492 51.9081L163.395 52.9807L164.253 48.2561L158.35 47.1835ZM157.492 51.9081L151.596 50.7955C151.782 49.8094 152.265 48.9168 152.965 48.2291L157.17 52.5087L161.376 56.7883C162.407 55.7749 163.115 54.4635 163.388 53.0207L157.492 51.9081ZM157.17 52.5087L152.965 48.2288C153.664 47.5425 154.564 47.0741 155.555 46.9049L156.565 52.8192L157.575 58.7336C159.023 58.4862 160.346 57.8003 161.375 56.7886L157.17 52.5087ZM156.565 52.8192L155.557 46.9045C156.539 46.7372 157.543 46.8757 158.438 47.2954L155.89 52.7274L153.342 58.1595C154.657 58.7764 156.133 58.9793 157.573 58.7339L156.565 52.8192ZM155.89 52.7274L158.44 47.2964C159.338 47.7181 160.086 48.4044 160.583 49.2637L155.388 52.2665L150.194 55.2693C150.923 56.531 152.021 57.5392 153.34 58.1585L155.89 52.7274ZM155.388 52.2665L160.603 49.2991L158.228 45.1253L153.013 48.0927L147.798 51.06L150.173 55.2339L155.388 52.2665ZM153.013 48.0927L154.087 42.1895L149.362 41.3302L148.288 47.2333L147.215 53.1364L151.939 53.9958L153.013 48.0927ZM148.288 47.2333L149.404 41.3379C150.385 41.5235 151.278 42.0046 151.969 42.7079L147.688 46.912L143.407 51.1161C144.423 52.1509 145.736 52.8568 147.173 53.1287L148.288 47.2333ZM147.688 46.912L151.97 42.7095C152.668 43.4208 153.127 44.3251 153.293 45.2975L147.378 46.3056L141.464 47.3136C141.707 48.7439 142.382 50.0718 143.405 51.1146L147.688 46.912ZM147.378 46.3056L153.293 45.2991C153.457 46.2608 153.329 47.2671 152.901 48.1794L147.469 45.6308L142.037 43.0822C141.412 44.4149 141.222 45.8924 141.463 47.312L147.378 46.3056ZM147.469 45.6308L152.901 48.1795C152.478 49.0807 151.791 49.8273 150.934 50.3228L147.93 45.1288L144.926 39.9349C143.667 40.6629 142.658 41.7601 142.037 43.082L147.469 45.6308ZM147.93 45.1288L150.898 50.3434L155.071 47.9684L152.103 42.7538L149.135 37.5393L144.962 39.9143L147.93 45.1288ZM152.103 42.7538L158.006 43.8262L158.865 39.1006L152.961 38.0282L147.058 36.9559L146.2 41.6815L152.103 42.7538ZM152.961 38.0282L158.857 39.1424C158.674 40.1119 158.198 41.0078 157.488 41.7064L153.282 37.4276L149.075 33.1489C148.034 34.173 147.335 35.4883 147.066 36.9141L152.961 38.0282ZM153.282 37.4276L157.487 41.7073C156.783 42.3988 155.881 42.8638 154.897 43.0317L153.888 37.1171L152.879 31.2025C151.437 31.4485 150.111 32.1308 149.076 33.148L153.282 37.4276ZM49.975 23.6903L51.7851 29.4108C50.9282 29.6819 50.0183 29.6796 49.1775 29.4186L50.9564 23.6884L52.7354 17.9582C51.2551 17.4986 49.6601 17.4968 48.1649 17.9699L49.975 23.6903ZM50.9564 23.6884L49.177 29.4184C48.3344 29.1568 47.5835 28.6424 47.032 27.9348L51.764 24.246L56.4961 20.5572C55.5328 19.3215 54.218 18.4186 52.7358 17.9583L50.9564 23.6884ZM51.764 24.246L47.0313 27.9339C46.4873 27.2358 46.1663 26.3849 46.1176 25.4923L52.1088 25.1659L58.0999 24.8396C58.0148 23.2779 57.4526 21.7846 56.4968 20.5581L51.764 24.246ZM52.1088 25.1659L46.1155 25.4511L46.4446 32.3681L52.4379 32.0829L58.4311 31.7978L58.102 24.8808L52.1088 25.1659ZM52.4379 32.0829L48.8076 36.8601L54.3193 41.0485L57.9496 36.2714L61.5798 31.4942L56.0681 27.3058L52.4379 32.0829ZM57.9496 36.2714L54.3527 41.0737C53.6217 40.5262 53.0825 39.7661 52.8062 38.9024L58.5209 37.0741L64.2355 35.2459C63.7542 33.7412 62.816 32.4199 61.5465 31.469L57.9496 36.2714ZM58.5209 37.0741L52.8061 38.902C52.5311 38.0423 52.5268 37.1111 52.8056 36.2372L58.5218 38.0605L64.2381 39.8837C64.7215 38.3683 64.7157 36.7472 64.2357 35.2462L58.5209 37.0741ZM58.5218 38.0605L52.7784 36.3246C53.043 35.449 53.5728 34.6838 54.2871 34.1301L57.9633 38.872L61.6394 43.6139C62.8853 42.648 63.806 41.3158 64.2653 39.7963L58.5218 38.0605ZM57.9633 38.872L54.2884 34.1291C54.9998 33.5778 55.8726 33.2535 56.7918 33.2159L57.0375 39.2108L57.2831 45.2058C58.8746 45.1406 60.3948 44.5782 61.6382 43.6149L57.9633 38.872ZM57.0375 39.2108L56.7506 33.2177L49.8346 33.5488L50.1215 39.5419L50.4083 45.535L57.3244 45.204L57.0375 39.2108ZM50.1215 39.5419L45.3436 35.9126L41.1561 41.4253L45.934 45.0546L50.7118 48.6839L54.8993 43.1712L50.1215 39.5419ZM45.934 45.0546L41.1806 41.3933C41.7217 40.6907 42.4661 40.1679 43.317 39.8983L45.1293 45.6181L46.9416 51.3378C48.4311 50.8659 49.7373 49.9493 50.6874 48.7159L45.934 45.0546ZM45.1293 45.6181L43.3171 39.8983C44.1647 39.6297 45.0748 39.6266 45.9258 39.8908L44.1468 45.621L42.3679 51.3512C43.8587 51.814 45.4551 51.8088 46.9414 51.3379L45.1293 45.6181ZM44.1468 45.621L45.9273 39.8913C46.7774 40.1554 47.5254 40.673 48.072 41.3745L43.3392 45.0624L38.6065 48.7503C39.5647 49.9801 40.8768 50.8879 42.3664 51.3507L44.1468 45.621ZM43.3392 45.0624L48.0728 41.3755C48.6224 42.0811 48.9386 42.9338 48.9866 43.8168L42.9955 44.1425L37.0043 44.4682C37.0887 46.0201 37.6445 47.5153 38.6056 48.7493L43.3392 45.0624ZM42.9955 44.1425L48.9887 43.8573L48.6596 36.9413L42.6664 37.2265L36.6732 37.5117L37.0023 44.4277L42.9955 44.1425ZM42.6664 37.2265L46.2966 32.4493L40.7849 28.2608L37.1547 33.038L33.5244 37.8151L39.0361 42.0036L42.6664 37.2265ZM37.1547 33.038L40.8169 28.2853C41.5172 28.8249 42.0411 29.5686 42.3113 30.4223L36.5912 32.2333L30.871 34.0443C31.3435 35.5367 32.2615 36.8422 33.4924 37.7907L37.1547 33.038ZM36.5912 32.2333L42.3115 30.4228C42.5791 31.2683 42.583 32.1777 42.3186 33.0295L36.5883 31.2509L30.858 29.4722C30.3949 30.964 30.4011 32.5595 30.8709 34.0438L36.5912 32.2333ZM36.5883 31.2509L42.3185 33.0298C42.0532 33.8842 41.534 34.6306 40.8373 35.1741L37.1468 30.4433L33.4564 25.7124C32.2316 26.6679 31.3219 27.9778 30.858 29.4719L36.5883 31.2509ZM37.1468 30.4433L40.8361 35.175C40.1359 35.7209 39.2842 36.041 38.3936 36.0896L38.0668 30.0985L37.7399 24.1074C36.1804 24.1925 34.6862 24.7536 33.4576 25.7115L37.1468 30.4433ZM38.0668 30.0985L38.3528 36.0917L45.2679 35.7616L44.9818 29.7685L44.6957 23.7753L37.7807 24.1054L38.0668 30.0985ZM44.9818 29.7685L49.7599 33.3975L53.9484 27.8829L49.1703 24.2538L44.3922 20.6248L40.2037 26.1394L44.9818 29.7685ZM49.1703 24.2538L53.923 27.916C53.3827 28.6172 52.639 29.1402 51.7871 29.4101L49.975 23.6903L48.1628 17.9705C46.6724 18.4427 45.3667 19.3598 44.4176 20.5916L49.1703 24.2538Z" fill="white" mask="url(#path-1-outside-1_922_9959)"/>
<path d="M169.597 74.1347V74.1491C169.597 74.1491 169.604 74.1706 169.611 74.185C169.949 76.948 170.085 79.9766 169.834 83.0985C169.827 83.242 169.805 83.3928 169.791 83.5507C169.762 83.8449 169.726 84.1463 169.698 84.4549C169.647 84.9358 169.568 85.4238 169.482 85.919C169.332 86.8878 169.131 87.8639 168.879 88.8256C168.42 90.6198 167.796 92.3996 166.956 94.1364C166.188 95.744 165.248 97.3085 164.085 98.8013C162.643 100.696 160.863 102.483 158.688 104.105C157.554 104.959 156.299 105.77 154.935 106.523C152.086 108.102 149.244 109.157 146.452 109.789H146.438C142.311 110.729 138.292 110.751 134.481 110.162C134.474 110.162 134.46 110.162 134.452 110.162C134.359 110.155 134.252 110.141 134.158 110.119C133.828 110.062 133.498 110.011 133.168 109.954C133.153 109.954 133.139 109.954 133.132 109.94C132.802 109.875 132.464 109.803 132.127 109.731C132.091 109.731 132.063 109.724 132.034 109.717C128.402 108.899 124.993 107.578 121.936 106.05C121.872 106.021 121.814 105.985 121.75 105.957C120.774 105.454 119.941 104.844 119.238 104.148C119.223 104.126 119.202 104.112 119.18 104.091C116.747 101.65 115.979 98.2487 116.726 94.8325C117.078 93.2106 117.774 91.603 118.8 90.0887C120.192 88.0361 122.187 86.163 124.757 84.742L127.419 83.2708L153.65 68.7522C160.698 64.8552 168.772 67.568 169.583 74.1419L169.597 74.1347Z" fill="#276286"/>
<path opacity="0.5" d="M119.202 104.076C122.424 107.263 130.842 109.696 134.459 110.148C143.316 111.253 152.007 109.559 158.695 104.098C165.477 98.5501 168.958 90.8997 169.697 84.4478C170.429 78.0748 169.604 74.1348 169.604 74.1348C169.604 74.1348 165.757 86.0051 160.698 92.0839C155.638 98.1626 147.062 103.839 138.486 104.866C129.909 105.892 125.151 104.815 119.209 104.076H119.202Z" fill="#14465D"/>
<path d="M77.7478 89.8659L50.8704 70.683C44.3085 66.0027 35.9859 67.7855 34.4248 74.2157C31.9932 84.262 31.8159 98.4442 45.2978 108.066C56.5617 116.103 68.689 114.78 78.121 111.349C86.9772 108.128 86.7609 96.2911 77.7486 89.8588L77.7478 89.8659Z" fill="#276286"/>
<path opacity="0.5" d="M81.0724 109.721C77.5117 112.524 68.8686 113.978 65.2261 114.015C56.2977 114.103 47.8581 111.43 41.8387 105.241C35.7293 98.9609 33.1472 90.9582 33.1541 84.4644C33.1584 78.0499 34.4302 74.2307 34.4302 74.2307C34.4302 74.2307 36.897 86.4644 41.2359 93.0806C45.5748 99.6968 53.4432 106.312 61.8435 108.314C70.2437 110.316 75.0985 109.779 81.0858 109.73L81.0724 109.721Z" fill="#14465D"/>
<path d="M159.444 153.237C161.523 154.818 161.931 157.815 160.35 159.894L152.787 169.84C151.588 171.417 149.325 171.725 147.754 170.53L116.443 146.719C114.866 145.52 114.559 143.258 115.758 141.681L115.901 141.492C117.1 139.916 119.363 139.608 120.939 140.807L148.965 162.12L152.786 154.143C153.573 153.109 154.717 152.482 155.928 152.312C157.13 152.153 158.399 152.442 159.444 153.237Z" fill="#474747"/>
<path d="M86.6996 136.612L84.376 175.879C84.2595 177.85 82.5521 179.366 80.582 179.25L68.109 178.512C65.5012 178.357 63.4926 176.096 63.6469 173.488C63.7241 172.184 64.3318 171.027 65.2424 170.218C66.1529 169.409 67.3664 168.949 68.6775 169.027L77.2187 171.329L79.2989 136.174C79.4155 134.204 81.1228 132.688 83.093 132.804L83.3366 132.819C85.3068 132.935 86.8233 134.643 86.7067 136.613L86.6996 136.612Z" fill="#474747"/>
<path d="M159.225 119.162C159.225 120.11 159.19 121.057 159.139 121.976C159.132 122.054 159.125 122.126 159.125 122.198C158.515 131.033 155.257 138.92 150.018 145.522C143.523 153.726 133.978 159.926 122.674 163.443C120.277 164.204 117.794 164.828 115.246 165.338C111.744 166.034 108.12 166.479 104.395 166.665C103.649 166.708 102.895 166.737 102.141 166.751C101.51 166.759 100.871 166.766 100.232 166.766C99.5937 166.766 98.9621 166.759 98.3306 166.751C93.9384 166.651 89.661 166.192 85.5631 165.409C83.0225 164.921 80.5394 164.304 78.1423 163.558C66.681 160.048 57.0211 153.812 50.4544 145.53C50.4544 145.53 50.4544 145.522 50.4472 145.522C45.1938 138.891 41.9212 130.946 41.3399 122.054C41.3399 121.997 41.3327 121.925 41.3255 121.861C41.2753 120.971 41.2466 120.074 41.2466 119.162C41.2466 118.1 41.2825 117.045 41.3542 116.004C42.3805 101.515 50.4328 88.661 62.5975 79.934V79.4819C62.6046 77.9819 62.6333 73.2022 62.6333 71.042C62.6262 47.3156 79.4628 29.6321 100.225 29.6321C100.943 29.6321 101.661 29.6464 102.371 29.7038C122.143 30.8665 137.831 48.141 137.831 71.042C137.831 73.6185 137.071 78.8073 136.705 79.1374C136.791 79.1876 136.87 79.2379 136.934 79.2809C137.566 79.6828 137.86 79.934 137.86 79.934C150.025 88.6323 158.07 101.471 159.103 115.954C159.182 117.016 159.225 118.086 159.225 119.162Z" fill="#4B9AE8"/>
<path d="M107.792 67.7481C107.347 71.1785 103.558 76.7405 99.625 76.7692C95.6921 76.7979 91.5368 71.157 91.343 67.461C91.1492 63.7649 93.9123 61.2459 99.7829 61.21C105.718 61.1741 108.237 64.3176 107.792 67.7481Z" fill="#DDB61E"/>
<path opacity="0.5" d="M107.792 67.7481C107.347 71.1714 103.564 76.7405 99.6244 76.7692C99.0072 76.7692 98.3828 76.6401 97.7656 76.3817C100.981 75.0612 103.737 70.6403 104.117 67.7481C104.512 64.6979 102.56 61.8775 97.945 61.3105C98.5192 61.2531 99.1292 61.2172 99.7751 61.21C105.717 61.1741 108.229 64.3247 107.784 67.7481H107.792Z" fill="#987D26"/>
<path d="M119.969 66.0899C124.289 66.0899 127.791 62.5876 127.791 58.2673C127.791 53.9469 124.289 50.4446 119.969 50.4446C115.648 50.4446 112.146 53.9469 112.146 58.2673C112.146 62.5876 115.648 66.0899 119.969 66.0899Z" fill="white"/>
<path d="M119.969 62.4371C122.271 62.4371 124.138 60.5702 124.138 58.2674C124.138 55.9645 122.271 54.0977 119.969 54.0977C117.666 54.0977 115.799 55.9645 115.799 58.2674C115.799 60.5702 117.666 62.4371 119.969 62.4371Z" fill="#040000"/>
<path d="M79.7787 66.0899C84.0991 66.0899 87.6014 62.5876 87.6014 58.2673C87.6014 53.9469 84.0991 50.4446 79.7787 50.4446C75.4584 50.4446 71.9561 53.9469 71.9561 58.2673C71.9561 62.5876 75.4584 66.0899 79.7787 66.0899Z" fill="white"/>
<path d="M79.7786 62.4371C82.0815 62.4371 83.9483 60.5702 83.9483 58.2674C83.9483 55.9645 82.0815 54.0977 79.7786 54.0977C77.4757 54.0977 75.6089 55.9645 75.6089 58.2674C75.6089 60.5702 77.4757 62.4371 79.7786 62.4371Z" fill="#040000"/>
<path d="M58.5216 38.0603C58.4243 38.3825 58.229 38.6665 57.9629 38.8726C57.6969 39.0788 57.3732 39.1969 57.0369 39.2106L50.1216 39.5419L45.9337 45.0552C45.7293 45.3206 45.4485 45.5172 45.1291 45.6183C44.8098 45.7195 44.4671 45.7205 44.1472 45.6212C43.8273 45.5219 43.5455 45.327 43.3396 45.0628C43.1337 44.7985 43.0136 44.4776 42.9954 44.143L42.6664 37.2263L37.1542 33.038C36.8888 32.8335 36.6924 32.5527 36.5913 32.2333C36.4902 31.9139 36.4893 31.5712 36.5886 31.2512C36.688 30.9312 36.8828 30.6492 37.147 30.4432C37.4113 30.2372 37.7322 30.117 38.0666 30.0988L44.9816 29.7685L49.1699 24.2542C49.3743 23.9887 49.6551 23.7922 49.9744 23.691C50.2938 23.5899 50.6364 23.5889 50.9563 23.6882C51.2762 23.7875 51.5581 23.9824 51.764 24.2466C51.9699 24.5108 52.09 24.8318 52.1082 25.1664L52.4382 32.0834L57.9494 36.2714C58.2188 36.4731 58.4187 36.7537 58.5212 37.0743C58.6237 37.3949 58.6239 37.7395 58.5216 38.0603Z" fill="#F0BF3A"/>
<path d="M163.079 43.63C163.12 43.8598 163.088 44.0967 162.989 44.3078C162.889 44.5188 162.726 44.6935 162.522 44.8075L158.35 47.1838L157.491 51.9082C157.448 52.1366 157.336 52.3462 157.17 52.5091C157.005 52.6719 156.793 52.7801 156.564 52.8192C156.335 52.8582 156.099 52.8262 155.889 52.7274C155.679 52.6287 155.504 52.4679 155.388 52.2667L153.012 48.0927L148.288 47.2335C148.06 47.1903 147.85 47.0784 147.688 46.9126C147.525 46.7468 147.417 46.5351 147.378 46.3061C147.339 46.077 147.371 45.8414 147.469 45.6311C147.568 45.4207 147.729 45.2456 147.93 45.1293L152.102 42.7538L152.961 38.0286C153.004 37.8003 153.116 37.5906 153.282 37.4278C153.447 37.2649 153.659 37.1567 153.888 37.1177C154.117 37.0787 154.352 37.1107 154.563 37.2094C154.773 37.3082 154.948 37.4689 155.064 37.6701L157.44 41.844L162.164 42.7034C162.393 42.7435 162.605 42.8543 162.769 43.0204C162.933 43.1865 163.042 43.3995 163.079 43.63Z" fill="#F0BF3A"/>
</svg>
