<svg width="200" height="200" viewBox="0 0 200 200" fill="none" xmlns="http://www.w3.org/2000/svg">
<mask id="path-1-outside-1_1347_9014" maskUnits="userSpaceOnUse" x="18" y="15" width="164" height="170" fill="black">
<rect fill="white" x="18" y="15" width="164" height="170"/>
<path d="M94.4268 24.4189C99.0162 21.9226 104.21 20.7539 109.427 21.0439C109.867 21.0561 110.29 21.2134 110.631 21.4922C110.972 21.7711 111.21 22.1558 111.309 22.585C111.407 23.0141 111.36 23.4635 111.176 23.8633C110.991 24.263 110.68 24.5908 110.289 24.7939C106.107 26.9952 102.587 30.2696 100.089 34.2812C98.6035 36.9597 97.2931 40.7334 96.1992 44.6084C97.2826 48.5872 97.8379 54.0876 97.8379 62.0684V68.9688C97.7316 70.6254 97.8461 72.2841 98.1748 73.9023V73.2061C98.69 76.6532 100.166 79.8591 102.402 82.4727C102.687 82.8004 102.983 83.1197 103.291 83.4277C105.175 85.3119 107.439 86.7736 109.933 87.7139C112.424 88.6533 115.086 89.0504 117.743 88.8809H140.662C145.52 88.8809 150.274 89.8946 154.641 91.8027C156.606 88.4458 158.138 84.8445 159.188 81.0811C160.05 77.3311 160.537 74.556 160.8 72.6436C160.85 72.2861 160.997 71.9485 161.224 71.668C161.451 71.3876 161.75 71.1741 162.089 71.0508C162.428 70.9274 162.795 70.8986 163.149 70.9678C163.504 71.0369 163.833 71.2015 164.101 71.4434C166.911 73.7835 169.046 76.8316 170.285 80.2725C171.524 83.7136 171.824 87.4236 171.15 91.0186C170.167 95.4952 167.682 97.6644 164.787 98.5586C164.976 98.7393 165.164 98.9212 165.35 99.1064C171.897 105.654 175.575 114.535 175.575 123.794V166.506C175.575 169.678 174.315 172.721 172.071 174.965C169.828 177.208 166.785 178.469 163.612 178.469C160.44 178.469 157.397 177.208 155.153 174.965C152.91 172.721 151.65 169.678 151.65 166.506V148.581C148.752 148.032 146.019 146.842 143.648 145.105C143.137 145.663 142.274 145.719 141.696 145.223C141.405 144.972 141.121 144.713 140.844 144.447C127.814 146.03 114.611 145.517 101.737 142.919V166.618C101.737 169.791 100.477 172.834 98.2334 175.077C95.9901 177.32 92.9479 178.581 89.7754 178.581C86.6027 178.581 83.5598 177.321 81.3164 175.077C79.073 172.834 77.8125 169.791 77.8125 166.618V122.519C77.8125 107.631 70.4248 94.6182 61.9873 94.6182H51.9004C50.2658 94.6182 48.6638 94.5854 47.1064 94.5137C48.0022 96.0005 48.3272 97.7633 47.626 99.8311C44.701 108.456 42.4878 111.794 37.6504 105.794C34.7719 102.224 34.6147 96.555 34.96 92.5498C28.2969 90.2621 24 85.6458 24 76.6934C24.0001 61.431 34.8001 48.4183 54 42.9434L68.8193 40.1016C68.7139 39.5613 68.9328 38.9858 69.4189 38.6611C69.4527 38.6386 69.4876 38.6188 69.5225 38.5996C69.1741 37.9447 68.8647 37.2723 68.5977 36.585C68.5821 36.5794 68.5664 36.5739 68.5508 36.5684C67.8549 34.7144 67.4534 32.7703 67.3525 30.8057C67.3486 30.7321 67.3459 30.6586 67.3428 30.585C67.3397 30.5068 67.3361 30.4288 67.334 30.3506C67.3062 29.4136 67.3486 28.4713 67.4629 27.5312C67.4989 27.2344 67.6021 26.9496 67.7656 26.6992C67.9291 26.4489 68.1479 26.2392 68.4053 26.0869C68.6626 25.9347 68.9518 25.844 69.25 25.8213C69.3246 25.8156 69.3993 25.8145 69.4736 25.8174C69.6968 25.8259 69.9177 25.8724 70.126 25.9561C70.1514 25.9654 70.1767 25.975 70.2021 25.9844C75.3327 27.8461 80.3367 30.0347 85.1836 32.5361C85.6319 31.88 86.1118 31.2441 86.623 30.6318C88.7761 28.0533 91.4316 25.94 94.4268 24.4189Z"/>
</mask>
<path d="M94.4268 24.4189C99.0162 21.9226 104.21 20.7539 109.427 21.0439C109.867 21.0561 110.29 21.2134 110.631 21.4922C110.972 21.7711 111.21 22.1558 111.309 22.585C111.407 23.0141 111.36 23.4635 111.176 23.8633C110.991 24.263 110.68 24.5908 110.289 24.7939C106.107 26.9952 102.587 30.2696 100.089 34.2812C98.6035 36.9597 97.2931 40.7334 96.1992 44.6084C97.2826 48.5872 97.8379 54.0876 97.8379 62.0684V68.9688C97.7316 70.6254 97.8461 72.2841 98.1748 73.9023V73.2061C98.69 76.6532 100.166 79.8591 102.402 82.4727C102.687 82.8004 102.983 83.1197 103.291 83.4277C105.175 85.3119 107.439 86.7736 109.933 87.7139C112.424 88.6533 115.086 89.0504 117.743 88.8809H140.662C145.52 88.8809 150.274 89.8946 154.641 91.8027C156.606 88.4458 158.138 84.8445 159.188 81.0811C160.05 77.3311 160.537 74.556 160.8 72.6436C160.85 72.2861 160.997 71.9485 161.224 71.668C161.451 71.3876 161.75 71.1741 162.089 71.0508C162.428 70.9274 162.795 70.8986 163.149 70.9678C163.504 71.0369 163.833 71.2015 164.101 71.4434C166.911 73.7835 169.046 76.8316 170.285 80.2725C171.524 83.7136 171.824 87.4236 171.15 91.0186C170.167 95.4952 167.682 97.6644 164.787 98.5586C164.976 98.7393 165.164 98.9212 165.35 99.1064C171.897 105.654 175.575 114.535 175.575 123.794V166.506C175.575 169.678 174.315 172.721 172.071 174.965C169.828 177.208 166.785 178.469 163.612 178.469C160.44 178.469 157.397 177.208 155.153 174.965C152.91 172.721 151.65 169.678 151.65 166.506V148.581C148.752 148.032 146.019 146.842 143.648 145.105C143.137 145.663 142.274 145.719 141.696 145.223C141.405 144.972 141.121 144.713 140.844 144.447C127.814 146.03 114.611 145.517 101.737 142.919V166.618C101.737 169.791 100.477 172.834 98.2334 175.077C95.9901 177.32 92.9479 178.581 89.7754 178.581C86.6027 178.581 83.5598 177.321 81.3164 175.077C79.073 172.834 77.8125 169.791 77.8125 166.618V122.519C77.8125 107.631 70.4248 94.6182 61.9873 94.6182H51.9004C50.2658 94.6182 48.6638 94.5854 47.1064 94.5137C48.0022 96.0005 48.3272 97.7633 47.626 99.8311C44.701 108.456 42.4878 111.794 37.6504 105.794C34.7719 102.224 34.6147 96.555 34.96 92.5498C28.2969 90.2621 24 85.6458 24 76.6934C24.0001 61.431 34.8001 48.4183 54 42.9434L68.8193 40.1016C68.7139 39.5613 68.9328 38.9858 69.4189 38.6611C69.4527 38.6386 69.4876 38.6188 69.5225 38.5996C69.1741 37.9447 68.8647 37.2723 68.5977 36.585C68.5821 36.5794 68.5664 36.5739 68.5508 36.5684C67.8549 34.7144 67.4534 32.7703 67.3525 30.8057C67.3486 30.7321 67.3459 30.6586 67.3428 30.585C67.3397 30.5068 67.3361 30.4288 67.334 30.3506C67.3062 29.4136 67.3486 28.4713 67.4629 27.5312C67.4989 27.2344 67.6021 26.9496 67.7656 26.6992C67.9291 26.4489 68.1479 26.2392 68.4053 26.0869C68.6626 25.9347 68.9518 25.844 69.25 25.8213C69.3246 25.8156 69.3993 25.8145 69.4736 25.8174C69.6968 25.8259 69.9177 25.8724 70.126 25.9561C70.1514 25.9654 70.1767 25.975 70.2021 25.9844C75.3327 27.8461 80.3367 30.0347 85.1836 32.5361C85.6319 31.88 86.1118 31.2441 86.623 30.6318C88.7761 28.0533 91.4316 25.94 94.4268 24.4189Z" fill="#D7E8FC"/>
<path d="M94.4268 24.4189L97.1435 29.7686C97.1939 29.743 97.244 29.7167 97.2936 29.6897L94.4268 24.4189ZM109.427 21.0439L109.094 27.0347C109.149 27.0378 109.205 27.0401 109.261 27.0416L109.427 21.0439ZM110.631 21.4922L114.432 16.8499L114.431 16.8493L110.631 21.4922ZM111.309 22.585L117.156 21.2403L117.156 21.2401L111.309 22.585ZM111.176 23.8633L116.623 26.3784L116.623 26.3783L111.176 23.8633ZM110.289 24.7939L107.52 19.471C107.512 19.4755 107.503 19.48 107.494 19.4846L110.289 24.7939ZM100.089 34.2812L94.9955 31.1099C94.942 31.1958 94.8907 31.283 94.8417 31.3715L100.089 34.2812ZM96.1992 44.6084L90.4249 42.9784C90.1291 44.026 90.124 45.1344 90.41 46.1847L96.1992 44.6084ZM97.8379 62.0684H103.838V62.0684L97.8379 62.0684ZM97.8379 68.9688L103.826 69.353C103.834 69.2251 103.838 69.0969 103.838 68.9688H97.8379ZM98.1748 73.9023L92.2949 75.0968C92.9083 78.1164 95.7093 80.1805 98.7751 79.8722C101.841 79.564 104.175 76.9836 104.175 73.9023H98.1748ZM98.1748 73.2061L104.109 72.3191C103.645 69.2124 100.863 66.9897 97.7301 67.2226C94.5976 67.4554 92.1748 70.0649 92.1748 73.2061H98.1748ZM102.402 82.4727L97.8431 86.3731C97.8537 86.3854 97.8643 86.3978 97.875 86.41L102.402 82.4727ZM103.291 83.4277L99.0484 87.6704L99.0484 87.6704L103.291 83.4277ZM109.933 87.7139L107.815 93.3279L107.815 93.3279L109.933 87.7139ZM117.743 88.8809V82.8809C117.616 82.8809 117.488 82.8849 117.361 82.893L117.743 88.8809ZM140.662 88.8809V82.8809V88.8809ZM154.641 91.8027L152.238 97.3008C155.025 98.5184 158.282 97.4586 159.819 94.8341L154.641 91.8027ZM159.188 81.0811L164.967 82.6921C164.992 82.6039 165.014 82.5152 165.035 82.4259L159.188 81.0811ZM160.8 72.6436L154.858 71.8122C154.857 71.8173 154.856 71.8225 154.856 71.8277L160.8 72.6436ZM161.224 71.668L156.561 67.8922L156.56 67.8928L161.224 71.668ZM162.089 71.0508L160.038 65.412L160.037 65.4124L162.089 71.0508ZM163.149 70.9678L164.299 65.0789L164.299 65.0789L163.149 70.9678ZM164.101 71.4434L160.08 75.8974C160.14 75.9509 160.2 76.0032 160.261 76.0543L164.101 71.4434ZM170.285 80.2725L175.93 78.2394L175.93 78.2392L170.285 80.2725ZM171.15 91.0186L177.011 92.3065C177.024 92.2455 177.036 92.1843 177.048 92.1229L171.15 91.0186ZM164.787 98.5586L163.016 92.8259C160.984 93.4537 159.436 95.1107 158.947 97.181C158.459 99.2514 159.103 101.426 160.641 102.895L164.787 98.5586ZM165.35 99.1064L169.592 94.8638L169.592 94.8638L165.35 99.1064ZM175.575 123.794H169.575H175.575ZM172.071 174.965L176.314 179.207L176.314 179.207L172.071 174.965ZM163.612 178.469L163.612 184.469H163.612V178.469ZM155.153 174.965L150.911 179.207L150.911 179.207L155.153 174.965ZM151.65 148.581H157.65C157.65 145.698 155.599 143.222 152.766 142.686L151.65 148.581ZM143.648 145.105L147.194 140.265C144.725 138.457 141.292 138.796 139.225 141.052L143.648 145.105ZM141.696 145.223L137.783 149.771L137.783 149.771L141.696 145.223ZM140.844 144.447L144.998 140.118C143.699 138.871 141.908 138.274 140.12 138.491L140.844 144.447ZM101.737 142.919L102.924 137.038C101.16 136.682 99.3299 137.136 97.9374 138.276C96.5449 139.415 95.7373 141.12 95.7373 142.919H101.737ZM98.2334 175.077L102.476 179.32L102.476 179.32L98.2334 175.077ZM89.7754 178.581V184.581H89.7756L89.7754 178.581ZM81.3164 175.077L77.0737 179.32L77.0738 179.32L81.3164 175.077ZM77.8125 122.519H83.8125V122.519L77.8125 122.519ZM47.1064 94.5137L47.3826 88.52C45.1719 88.4182 43.0846 89.5415 41.9519 91.4428C40.8192 93.344 40.825 95.7144 41.9671 97.61L47.1064 94.5137ZM47.626 99.8311L53.3081 101.758L53.3081 101.758L47.626 99.8311ZM37.6504 105.794L32.9795 109.56L32.9795 109.56L37.6504 105.794ZM34.96 92.5498L40.9378 93.0651C41.1743 90.3215 39.5129 87.7692 36.9083 86.875L34.96 92.5498ZM24 76.6934L18 76.6933V76.6934H24ZM54 42.9434L52.87 37.0507C52.6965 37.084 52.5245 37.1249 52.3547 37.1734L54 42.9434ZM68.8193 40.1016L69.9493 45.9942C71.5154 45.6939 72.8976 44.7825 73.7905 43.4613C74.6834 42.1401 75.0137 40.5178 74.7083 38.9526L68.8193 40.1016ZM69.4189 38.6611L66.0877 33.6709L66.0869 33.6714L69.4189 38.6611ZM69.5225 38.5996L72.4201 43.8535C75.2907 42.2703 76.3592 38.6761 74.8196 35.7818L69.5225 38.5996ZM68.5977 36.585L74.1904 34.4122C73.5579 32.7841 72.2474 31.5124 70.6009 30.9293L68.5977 36.585ZM68.5508 36.5684L62.9334 38.6768C63.5559 40.3353 64.8795 41.6339 66.5495 42.2247L68.5508 36.5684ZM67.3525 30.8057L73.3447 30.4981C73.3444 30.4928 73.3441 30.4875 73.3438 30.4822L67.3525 30.8057ZM67.3428 30.585L61.3475 30.8236C61.3477 30.8283 61.3479 30.8331 61.3481 30.8378L67.3428 30.585ZM67.334 30.3506L73.3317 30.1852L73.3313 30.1728L67.334 30.3506ZM67.4629 27.5312L73.419 28.2556L73.4193 28.2529L67.4629 27.5312ZM67.7656 26.6992L62.7423 23.4181L62.7422 23.4181L67.7656 26.6992ZM68.4053 26.0869L65.3504 20.9228L65.3504 20.9228L68.4053 26.0869ZM69.25 25.8213L68.7936 19.8387L68.7935 19.8387L69.25 25.8213ZM69.4736 25.8174L69.2419 31.8129L69.2443 31.813L69.4736 25.8174ZM70.126 25.9561L67.8901 31.5239C67.9475 31.547 68.0053 31.5691 68.0635 31.5904L70.126 25.9561ZM70.2021 25.9844L68.1361 31.6174C68.1425 31.6198 68.149 31.6222 68.1555 31.6245L70.2021 25.9844ZM85.1836 32.5361L82.4319 37.8679C85.1237 39.2572 88.4288 38.4221 90.1377 35.9209L85.1836 32.5361ZM86.623 30.6318L82.0175 26.7862L82.0175 26.7862L86.623 30.6318ZM94.4268 24.4189L97.2936 29.6897C100.904 27.7259 104.99 26.8065 109.094 27.0347L109.427 21.0439L109.76 15.0532C103.431 14.7013 97.1284 16.1194 91.5599 19.1482L94.4268 24.4189ZM109.427 21.0439L109.261 27.0416C108.378 27.0172 107.522 26.7014 106.83 26.135L110.631 21.4922L114.431 16.8493C113.058 15.7254 111.355 15.095 109.593 15.0462L109.427 21.0439ZM110.631 21.4922L106.83 26.1345C106.14 25.5694 105.66 24.7932 105.461 23.9298L111.309 22.585L117.156 21.2401C116.76 19.5184 115.804 17.9729 114.432 16.8499L110.631 21.4922ZM111.309 22.585L105.461 23.9296C105.261 23.0601 105.357 22.1521 105.728 21.3482L111.176 23.8633L116.623 26.3783C117.364 24.7749 117.553 22.968 117.156 21.2403L111.309 22.585ZM111.176 23.8633L105.728 21.3481C106.098 20.5483 106.725 19.8848 107.52 19.471L110.289 24.7939L113.058 30.1169C114.635 29.2967 115.885 27.9778 116.623 26.3784L111.176 23.8633ZM110.289 24.7939L107.494 19.4846C102.37 22.1818 98.0562 26.194 94.9955 31.1099L100.089 34.2812L105.182 37.4526C107.117 34.3451 109.844 31.8086 113.084 30.1033L110.289 24.7939ZM100.089 34.2812L94.8417 31.3715C93.0093 34.6758 91.5495 38.9945 90.4249 42.9784L96.1992 44.6084L101.974 46.2384C103.037 42.4722 104.198 39.2437 105.336 37.191L100.089 34.2812ZM96.1992 44.6084L90.41 46.1847C91.2849 49.3979 91.8379 54.2734 91.8379 62.0684L97.8379 62.0684L103.838 62.0684C103.838 53.9017 103.28 47.7765 101.988 43.0321L96.1992 44.6084ZM97.8379 62.0684H91.8379V68.9688H97.8379H103.838V62.0684H97.8379ZM97.8379 68.9688L91.8502 68.5845C91.7098 70.7714 91.861 72.961 92.2949 75.0968L98.1748 73.9023L104.055 72.7079C103.831 71.6072 103.753 70.4793 103.826 69.353L97.8379 68.9688ZM98.1748 73.9023H104.175V73.2061H98.1748H92.1748V73.9023H98.1748ZM98.1748 73.2061L92.2407 74.093C92.9235 78.6611 94.8801 82.9096 97.8431 86.3731L102.402 82.4727L106.962 78.5722C105.453 76.8085 104.457 74.6452 104.109 72.3191L98.1748 73.2061ZM102.402 82.4727L97.875 86.41C98.2414 86.8314 98.6318 87.2538 99.0484 87.6704L103.291 83.4277L107.534 79.1851C107.334 78.9856 107.133 78.7694 106.93 78.5353L102.402 82.4727ZM103.291 83.4277L99.0484 87.6704C101.535 90.1569 104.523 92.0863 107.815 93.3279L109.933 87.7139L112.05 82.0999C110.355 81.4608 108.816 80.467 107.534 79.1851L103.291 83.4277ZM109.933 87.7139L107.815 93.3279C111.105 94.5686 114.62 95.0924 118.125 94.8687L117.743 88.8809L117.361 82.893C115.553 83.0084 113.742 82.7381 112.05 82.0998L109.933 87.7139ZM117.743 88.8809V94.8809H140.662V88.8809V82.8809H117.743V88.8809ZM140.662 88.8809V94.8809C144.684 94.8809 148.62 95.7201 152.238 97.3008L154.641 91.8027L157.043 86.3046C151.927 84.0692 146.356 82.8809 140.662 82.8809V88.8809ZM154.641 91.8027L159.819 94.8341C162.042 91.0363 163.778 86.958 164.967 82.6921L159.188 81.0811L153.408 79.47C152.499 82.7309 151.17 85.8554 149.463 88.7714L154.641 91.8027ZM159.188 81.0811L165.035 82.4259C165.93 78.5328 166.453 75.5791 166.744 73.4594L160.8 72.6436L154.856 71.8277C154.621 73.533 154.17 76.1295 153.34 79.7362L159.188 81.0811ZM160.8 72.6436L166.742 73.4749C166.641 74.1975 166.345 74.8774 165.887 75.4431L161.224 71.668L156.56 67.8928C155.648 69.0196 155.059 70.3747 154.858 71.8122L160.8 72.6436ZM161.224 71.668L165.887 75.4437C165.429 76.0091 164.825 76.4399 164.14 76.6892L162.089 71.0508L160.037 65.4124C158.674 65.9083 157.473 66.766 156.561 67.8922L161.224 71.668ZM162.089 71.0508L164.139 76.6895C163.456 76.9382 162.716 76.9965 162 76.8567L163.149 70.9678L164.299 65.0789C162.874 64.8008 161.401 64.9167 160.038 65.412L162.089 71.0508ZM163.149 70.9678L162 76.8566C161.283 76.7167 160.62 76.3845 160.08 75.8974L164.101 71.4434L168.121 66.9893C167.045 66.0186 165.724 65.3572 164.299 65.0789L163.149 70.9678ZM164.101 71.4434L160.261 76.0543C162.251 77.7108 163.762 79.8688 164.64 82.3057L170.285 80.2725L175.93 78.2392C174.329 73.7944 171.571 69.8562 167.94 66.8324L164.101 71.4434ZM170.285 80.2725L164.64 82.3055C165.518 84.7426 165.729 87.3695 165.253 89.9142L171.15 91.0186L177.048 92.1229C177.918 87.4776 177.531 82.6846 175.93 78.2394L170.285 80.2725ZM171.15 91.0186L165.29 89.7306C164.986 91.1149 164.538 91.7752 164.251 92.0906C163.967 92.4019 163.594 92.6473 163.016 92.8259L164.787 98.5586L166.558 104.291C171.558 102.747 175.572 98.8497 177.011 92.3065L171.15 91.0186ZM164.787 98.5586L160.641 102.895C160.817 103.063 160.968 103.21 161.107 103.349L165.35 99.1064L169.592 94.8638C169.361 94.6323 169.136 94.415 168.933 94.2217L164.787 98.5586ZM165.35 99.1064L161.107 103.349C166.529 108.771 169.575 116.126 169.575 123.794H175.575H181.575C181.575 112.943 177.265 102.536 169.592 94.8638L165.35 99.1064ZM175.575 123.794H169.575V166.506H175.575H181.575V123.794H175.575ZM175.575 166.506H169.575C169.575 168.087 168.947 169.604 167.829 170.722L172.071 174.965L176.314 179.207C179.682 175.839 181.575 171.27 181.575 166.506H175.575ZM172.071 174.965L167.829 170.722C166.71 171.84 165.194 172.469 163.612 172.469V178.469V184.469C168.376 184.469 172.945 182.576 176.314 179.207L172.071 174.965ZM163.612 178.469L163.612 172.469C162.031 172.469 160.514 171.84 159.396 170.722L155.153 174.965L150.911 179.207C154.279 182.576 158.848 184.469 163.612 184.469L163.612 178.469ZM155.153 174.965L159.396 170.722C158.279 169.605 157.65 168.088 157.65 166.506H151.65H145.65C145.65 171.269 147.541 175.838 150.911 179.207L155.153 174.965ZM151.65 166.506H157.65V148.581H151.65H145.65V166.506H151.65ZM151.65 148.581L152.766 142.686C150.749 142.304 148.846 141.475 147.194 140.265L143.648 145.105L140.103 149.946C143.192 152.208 146.754 153.761 150.535 154.476L151.65 148.581ZM143.648 145.105L139.225 141.052C140.886 139.239 143.711 139.041 145.609 140.674L141.696 145.223L137.783 149.771C140.836 152.398 145.389 152.087 148.072 149.159L143.648 145.105ZM141.696 145.223L145.609 140.674C145.404 140.498 145.2 140.312 144.998 140.118L140.844 144.447L136.69 148.777C137.041 149.114 137.405 149.446 137.783 149.771L141.696 145.223ZM140.844 144.447L140.12 138.491C127.726 139.997 115.168 139.508 102.924 137.038L101.737 142.919L100.55 148.8C114.053 151.525 127.902 152.064 141.567 150.403L140.844 144.447ZM101.737 142.919H95.7373V166.618H101.737H107.737V142.919H101.737ZM101.737 166.618H95.7373C95.7373 168.199 95.109 169.716 93.9908 170.835L98.2334 175.077L102.476 179.32C105.845 175.951 107.737 171.382 107.737 166.618H101.737ZM98.2334 175.077L93.9908 170.834C92.8723 171.953 91.356 172.581 89.7752 172.581L89.7754 178.581L89.7756 184.581C94.5397 184.581 99.1079 182.688 102.476 179.32L98.2334 175.077ZM89.7754 178.581V172.581C88.1941 172.581 86.6773 171.953 85.559 170.835L81.3164 175.077L77.0738 179.32C80.4423 182.688 85.0113 184.581 89.7754 184.581V178.581ZM81.3164 175.077L85.5591 170.835C84.4408 169.716 83.8125 168.199 83.8125 166.618H77.8125H71.8125C71.8125 171.382 73.7052 175.951 77.0737 179.32L81.3164 175.077ZM77.8125 166.618H83.8125V122.519H77.8125H71.8125V166.618H77.8125ZM77.8125 122.519L83.8125 122.519C83.8125 114.157 81.7527 106.141 78.2825 100.025C74.9775 94.1995 69.4368 88.6182 61.9873 88.6182V94.6182V100.618C62.9753 100.618 65.3472 101.543 67.8454 105.946C70.1785 110.059 71.8125 115.992 71.8125 122.519L77.8125 122.519ZM61.9873 94.6182V88.6182H51.9004V94.6182V100.618H61.9873V94.6182ZM51.9004 94.6182V88.6182C50.3449 88.6182 48.8359 88.587 47.3826 88.52L47.1064 94.5137L46.8303 100.507C48.4918 100.584 50.1867 100.618 51.9004 100.618V94.6182ZM47.1064 94.5137L41.9671 97.61C42.0031 97.6697 42.014 97.7 42.0147 97.702C42.0148 97.7021 42.01 97.6875 42.0073 97.6651C42.0046 97.6422 42.0074 97.6383 42.0045 97.6634C42.0015 97.6901 41.9899 97.7682 41.9438 97.9041L47.626 99.8311L53.3081 101.758C54.6076 97.9262 54.002 94.3324 52.2458 91.4174L47.1064 94.5137ZM47.626 99.8311L41.9438 97.9041C41.2319 100.003 40.6411 101.542 40.1148 102.627C39.8569 103.159 39.6633 103.479 39.5428 103.651C39.4142 103.835 39.4564 103.725 39.7156 103.527C40.0125 103.3 40.5824 102.973 41.3882 102.868C42.1984 102.763 42.8363 102.936 43.182 103.083C43.4806 103.21 43.5254 103.298 43.3136 103.111C43.1124 102.934 42.7828 102.6 42.3213 102.028L37.6504 105.794L32.9795 109.56C34.3601 111.272 36.1676 113.142 38.4951 114.13C39.7742 114.672 41.2896 114.982 42.9344 114.768C44.5748 114.555 45.9364 113.875 46.995 113.067C48.9161 111.601 50.1192 109.499 50.9124 107.863C51.7749 106.084 52.5576 103.971 53.3081 101.758L47.626 99.8311ZM37.6504 105.794L42.3213 102.028C41.7977 101.379 41.2983 100.227 41.0294 98.4417C40.7676 96.7028 40.789 94.7913 40.9378 93.0651L34.96 92.5498L28.9821 92.0345C28.7857 94.3136 28.713 97.2389 29.1631 100.228C29.6062 103.171 30.6246 106.639 32.9795 109.56L37.6504 105.794ZM34.96 92.5498L36.9083 86.875C34.365 86.0017 32.7818 84.8634 31.7923 83.5356C30.8231 82.2351 30 80.186 30 76.6934H24H18C18 82.1532 19.3253 86.8885 22.1703 90.7062C24.9951 94.4966 28.8919 96.8102 33.0116 98.2246L34.96 92.5498ZM24 76.6934L30 76.6934C30.0001 64.7876 38.3079 53.6572 55.6453 48.7134L54 42.9434L52.3547 37.1734C31.2923 43.1794 18.0002 58.0743 18 76.6933L24 76.6934ZM54 42.9434L55.13 48.836L69.9493 45.9942L68.8193 40.1016L67.6894 34.2089L52.87 37.0507L54 42.9434ZM68.8193 40.1016L74.7083 38.9526C75.0495 40.7014 74.3484 42.5842 72.751 43.6509L69.4189 38.6611L66.0869 33.6714C63.5173 35.3873 62.3784 38.4213 62.9304 41.2505L68.8193 40.1016ZM69.4189 38.6611L72.7502 43.6514C72.6479 43.7197 72.5632 43.7709 72.5088 43.8029C72.4812 43.8191 72.4589 43.8318 72.4444 43.8399C72.4302 43.8479 72.4207 43.8532 72.4201 43.8535L69.5225 38.5996L66.6248 33.3457C66.5683 33.3769 66.3456 33.4987 66.0877 33.6709L69.4189 38.6611ZM69.5225 38.5996L74.8196 35.7818C74.5791 35.3297 74.3692 34.8724 74.1904 34.4122L68.5977 36.585L63.0049 38.7577C63.3601 39.6721 63.769 40.5596 64.2253 41.4174L69.5225 38.5996ZM68.5977 36.585L70.6009 30.9293C70.5872 30.9244 70.569 30.9179 70.5521 30.912L68.5508 36.5684L66.5495 42.2247C66.5638 42.2298 66.5769 42.2345 66.5944 42.2407L68.5977 36.585ZM68.5508 36.5684L74.1681 34.4599C73.6904 33.1873 73.4141 31.8509 73.3447 30.4981L67.3525 30.8057L61.3604 31.1133C61.4927 33.6898 62.0194 36.2416 62.9334 38.6768L68.5508 36.5684ZM67.3525 30.8057L73.3438 30.4822C73.3424 30.4557 73.3424 30.4504 73.3374 30.3321L67.3428 30.585L61.3481 30.8378C61.3493 30.8667 61.3548 31.0086 61.3613 31.1291L67.3525 30.8057ZM67.3428 30.585L73.338 30.3463C73.3332 30.2256 73.3325 30.2146 73.3317 30.1852L67.334 30.3506L61.3363 30.516C61.3398 30.6429 61.3461 30.7881 61.3475 30.8236L67.3428 30.585ZM67.334 30.3506L73.3313 30.1728C73.3125 29.5356 73.3413 28.8949 73.419 28.2556L67.4629 27.5312L61.5068 26.8069C61.3559 28.0477 61.2999 29.2917 61.3366 30.5284L67.334 30.3506ZM67.4629 27.5312L73.4193 28.2529C73.3456 28.8619 73.1328 29.454 72.789 29.9803L67.7656 26.6992L62.7422 23.4181C62.0714 24.4452 61.6522 25.6069 61.5065 26.8096L67.4629 27.5312ZM67.7656 26.6992L72.789 29.9803C72.4519 30.4965 71.9985 30.9325 71.4601 31.251L68.4053 26.0869L65.3504 20.9228C64.2973 21.5458 63.4064 22.4013 62.7423 23.4181L67.7656 26.6992ZM68.4053 26.0869L71.4601 31.251C70.9202 31.5704 70.3195 31.7571 69.7065 31.8039L69.25 25.8213L68.7935 19.8387C67.5842 19.931 66.4051 20.2989 65.3504 20.9228L68.4053 26.0869ZM69.25 25.8213L69.7064 31.8039C69.5363 31.8169 69.3806 31.8183 69.2419 31.8129L69.4736 25.8174L69.7053 19.8219C69.4179 19.8107 69.1129 19.8143 68.7936 19.8387L69.25 25.8213ZM69.4736 25.8174L69.2443 31.813C68.7879 31.7955 68.3293 31.7003 67.8901 31.5239L70.126 25.9561L72.3618 20.3882C71.506 20.0445 70.6057 19.8563 69.703 19.8218L69.4736 25.8174ZM70.126 25.9561L68.0635 31.5904C68.0565 31.5879 68.052 31.5862 68.0517 31.5861C68.0514 31.586 68.0518 31.5861 68.0533 31.5867C68.0548 31.5872 68.0566 31.5879 68.0598 31.5891C68.065 31.591 68.0762 31.5952 68.0879 31.5996C68.1004 31.6043 68.117 31.6104 68.1361 31.6174L70.2021 25.9844L72.2682 20.3513C72.2715 20.3525 72.2741 20.3535 72.2757 20.3541C72.2766 20.3544 72.2772 20.3546 72.2776 20.3548C72.2778 20.3549 72.278 20.3549 72.2781 20.355C72.2781 20.355 72.2782 20.355 72.2782 20.355C72.2782 20.355 72.2782 20.355 72.2782 20.355C72.2782 20.355 72.2782 20.355 72.2782 20.355C72.2782 20.355 72.2781 20.355 72.2781 20.355C72.278 20.3549 72.2778 20.3549 72.2776 20.3548C72.2772 20.3546 72.2766 20.3544 72.2758 20.3541C72.2738 20.3534 72.2719 20.3526 72.2683 20.3513C72.2624 20.3491 72.2509 20.3448 72.2384 20.3401C72.2254 20.3353 72.2082 20.3289 72.1885 20.3217L70.126 25.9561ZM70.2021 25.9844L68.1555 31.6245C73.0446 33.3987 77.8132 35.4843 82.4319 37.8679L85.1836 32.5361L87.9353 27.2043C82.8603 24.5851 77.6207 22.2936 72.2488 20.3442L70.2021 25.9844ZM85.1836 32.5361L90.1377 35.9209C90.4794 35.4208 90.8433 34.9389 91.2286 34.4775L86.623 30.6318L82.0175 26.7862C81.3803 27.5493 80.7843 28.3393 80.2295 29.1513L85.1836 32.5361ZM86.623 30.6318L91.2286 34.4775C92.8597 32.524 94.8723 30.922 97.1435 29.7686L94.4268 24.4189L91.71 19.0693C87.9909 20.9579 84.6925 23.5826 82.0175 26.7862L86.623 30.6318Z" fill="white" mask="url(#path-1-outside-1_1347_9014)"/>
<path d="M151.2 96.8683C154.875 92.1819 157.589 86.8171 159.188 81.0808C160.05 77.3308 160.538 74.5558 160.8 72.6433C160.85 72.2858 160.997 71.9487 161.224 71.6681C161.451 71.3876 161.75 71.1742 162.089 71.0508C162.429 70.9275 162.795 70.8988 163.149 70.968C163.503 71.0371 163.832 71.2014 164.1 71.4433C166.911 73.7835 169.046 76.8315 170.286 80.2726C171.525 83.7137 171.823 87.4233 171.15 91.0183C168.15 104.668 151.2 96.8683 151.2 96.8683Z" fill="#D7E8FC"/>
<path d="M35.663 87.8682C35.663 87.8682 32.813 99.7932 37.6505 105.793C42.488 111.793 44.7005 108.456 47.6255 99.8307C50.5505 91.2057 35.663 87.8682 35.663 87.8682Z" fill="#D7E8FC"/>
<path d="M81.9014 39.4184C82.8637 36.1999 84.4702 33.2106 86.6233 30.632C88.7764 28.0535 91.4312 25.9394 94.4264 24.4184C99.0158 21.922 104.21 20.7533 109.426 21.0434C109.867 21.0555 110.29 21.2134 110.631 21.4924C110.972 21.7713 111.21 22.1555 111.309 22.5846C111.407 23.0138 111.361 23.4635 111.176 23.8633C110.992 24.263 110.68 24.5902 110.289 24.7934C106.107 26.9946 102.587 30.2692 100.089 34.2809C95.5139 42.5309 92.5889 61.1684 92.5889 61.1684L81.9014 39.4184Z" fill="#EAC00F"/>
<path d="M140.662 88.8809H117.75C115.091 89.0516 112.426 88.6535 109.932 87.7132C107.439 86.7728 105.175 85.3119 103.291 83.4276C101.407 81.5434 99.9456 79.2792 99.0052 76.7859C98.0649 74.2927 97.6668 71.6276 97.8375 68.9684V62.0684C97.8375 44.2934 95.1 38.8184 89.85 35.0684C83.5463 31.4751 76.9473 28.4266 70.125 25.9559C69.8475 25.8445 69.5481 25.7983 69.25 25.8211C68.9518 25.8438 68.6629 25.9349 68.4055 26.0871C68.1482 26.2393 67.9293 26.4487 67.7657 26.6991C67.6022 26.9494 67.4985 27.234 67.4625 27.5309C66.9398 31.8283 67.9203 36.1742 70.2375 39.8309L54 42.9434C34.8 48.4184 24 61.4309 24 76.6934C24 91.9559 36.4875 94.6184 51.9 94.6184H61.9875C70.425 94.6184 77.8125 107.631 77.8125 122.518V166.618C77.8125 169.791 79.0728 172.834 81.3162 175.077C83.5596 177.321 86.6023 178.581 89.775 178.581C92.9476 178.581 95.9904 177.321 98.2338 175.077C100.477 172.834 101.737 169.791 101.737 166.618V142.918C115.169 145.629 128.96 146.073 142.538 144.231C145.147 146.446 148.287 147.944 151.65 148.581V166.506C151.65 169.679 152.91 172.721 155.154 174.965C157.397 177.208 160.44 178.468 163.613 178.468C166.785 178.468 169.828 177.208 172.071 174.965C174.315 172.721 175.575 169.679 175.575 166.506V123.793C175.575 114.534 171.897 105.654 165.349 99.1065C158.802 92.5592 149.922 88.8809 140.662 88.8809Z" fill="#4B9AE8"/>
<path d="M77.888 47.0311L53.963 54.3061C37.3505 59.0311 27.113 69.3061 24.6755 82.1686C24.2511 80.4643 24.0494 78.7122 24.0755 76.9561C24.0755 61.5061 34.8005 48.5311 54.0755 43.2061L70.2005 39.8311C72.1186 42.8378 74.7622 45.3138 77.888 47.0311Z" fill="#7AB9F8"/>
<path d="M89.7008 35.0684C83.4452 31.4828 76.8967 28.4344 70.1258 25.9559C69.8483 25.8445 69.5489 25.7983 69.2507 25.8211C68.9526 25.8438 68.6637 25.9349 68.4063 26.0871C68.1489 26.2393 67.93 26.4487 67.7665 26.6991C67.603 26.9494 67.4992 27.234 67.4633 27.5309C67.0961 30.587 67.4691 33.6866 68.5508 36.5684C76.0322 39.2154 83.2818 42.4765 90.2258 46.3184C94.3508 49.2809 96.9383 53.3309 97.7258 63.7184V62.0684C97.8383 44.2934 95.1008 38.8184 89.7008 35.0684Z" fill="#7AB9F8"/>
<path d="M140.662 88.8806H117.749C113.112 89.2152 108.519 87.7864 104.889 84.88C101.26 81.9737 98.8617 77.8042 98.1744 73.2056V80.2181C98.0032 82.8806 98.4021 85.5491 99.3447 88.0452C100.287 90.5412 101.752 92.8074 103.64 94.6922C105.528 96.5771 107.797 98.0372 110.295 98.975C112.793 99.9129 115.462 100.307 118.124 100.131H140.624C149.884 100.131 158.764 103.809 165.311 110.356C171.859 116.904 175.537 125.784 175.537 135.043V123.793C175.537 114.54 171.864 105.666 165.325 99.1194C158.785 92.5732 149.915 88.8905 140.662 88.8806Z" fill="#7AB9F8"/>
<path d="M135.714 129.156C135.719 132.005 136.338 134.82 137.529 137.408C138.72 139.997 140.454 142.298 142.614 144.156" stroke="#1A4E82" stroke-width="2.8125" stroke-linecap="round" stroke-linejoin="round"/>
<path d="M70.2002 39.8311C72.163 42.771 74.7983 45.2006 77.8877 46.9186" stroke="#1A4E82" stroke-width="2.8125" stroke-linecap="round" stroke-linejoin="round"/>
<path d="M61.9554 69.7067C65.6803 69.7067 68.6999 66.6871 68.6999 62.9623C68.6999 59.2374 65.6803 56.2178 61.9554 56.2178C58.2306 56.2178 55.2109 59.2374 55.2109 62.9623C55.2109 66.6871 58.2306 69.7067 61.9554 69.7067Z" fill="white"/>
<path d="M61.8511 67.0542C64.0842 67.0542 65.8945 65.2439 65.8945 63.0107C65.8945 60.7776 64.0842 58.9673 61.8511 58.9673C59.6179 58.9673 57.8076 60.7776 57.8076 63.0107C57.8076 65.2439 59.6179 67.0542 61.8511 67.0542Z" fill="black"/>
<path d="M79.8759 75.1557C79.8302 75.94 79.5532 76.6932 79.0797 77.3202C78.6063 77.9471 77.9577 78.4197 77.2158 78.6783C76.4739 78.9368 75.6721 78.9698 74.9115 78.7729C74.1509 78.576 73.4658 78.1582 72.9425 77.5721C72.4193 76.9861 72.0814 76.2581 71.9716 75.4802C71.8618 74.7023 71.985 73.9093 72.3257 73.2013C72.6663 72.4933 73.209 71.9022 73.8854 71.5025C74.5618 71.1028 75.3414 70.9126 76.1259 70.9557C76.6482 70.9844 77.1597 71.116 77.631 71.3427C78.1024 71.5695 78.5243 71.8871 78.8727 72.2773C79.2211 72.6675 79.489 73.1226 79.6612 73.6165C79.8333 74.1105 79.9063 74.6335 79.8759 75.1557Z" fill="#D7E8FC"/>
</svg>
