<svg width="200" height="200" viewBox="0 0 200 200" fill="none" xmlns="http://www.w3.org/2000/svg">
<mask id="path-1-outside-1_1062_19756" maskUnits="userSpaceOnUse" x="12.999" y="33" width="174" height="148" fill="black">
<rect fill="white" x="12.999" y="33" width="174" height="148"/>
<path d="M51.5767 40.9476C80.4212 34.4686 92.3707 63.1337 94.3599 68.7562C96.1144 73.7155 102.525 82.4597 111.863 83.7308C119.06 84.6978 129.836 64.4463 132.281 62.5257C134.118 61.0614 145.308 62.1252 158.335 66.0208C171.361 69.9026 181.336 78.0803 180.604 81.7689C180.314 83.2193 174.277 87.2254 170.395 89.5462C166.519 91.8635 134.52 113.008 134.422 113.073C134.448 113.085 136.392 114.061 139.671 115.214C141.366 115.817 142.48 116.758 142.911 117.935C143.858 118.973 143.884 123.062 142.269 124.567C141.261 125.506 139.286 125.285 138.126 126.252C136.951 127.233 136.467 129.941 134.229 131.571C131.121 133.836 129.297 132.607 127.488 134.03C126.245 134.997 124.435 137.124 122.75 138.961C120.484 141.434 116.215 144.155 106.615 143.243C105.07 143.099 103.583 142.849 102.156 142.513C101.953 142.552 101.748 142.591 101.541 142.63C102.561 147.731 104.01 157.118 101.935 161.521C100.733 164.09 94.3513 169.312 88.7154 172.807C83.0791 176.302 79.4737 173.677 80.9381 170.472C82.5684 166.88 91.6295 162.308 94.1578 158.026C95.8876 155.095 94.9776 148.071 94.231 143.927C91.7669 144.336 89.0916 144.755 86.1959 145.177C85.2067 145.321 84.2259 145.431 83.2545 145.512C84.0414 149.484 84.4576 154.466 82.7164 157.832C79.4005 164.242 62.4783 165.416 61.3179 164.048C60.1438 162.694 60.1161 159.407 61.9947 158.219C64.6194 156.561 73.1708 157.238 75.3121 153.743C76.4029 151.95 75.9613 148.468 75.275 145.501C57.75 143.986 44.3709 132.892 40.2349 123.917C35.5657 113.805 36.1183 108.956 34.0738 97.9183C33.4723 94.6531 32.6146 91.8315 31.4136 87.3626C30.7536 87.3179 30.1373 87.2692 29.6021 87.2259C26.4938 86.9773 21.1753 86.8385 20.1392 84.2415C19.4768 82.5701 21.3139 80.3462 22.4742 78.7991C23.1924 77.8415 25.7527 75.0426 28.1529 73.14C25.9311 55.6358 37.2758 44.1615 51.5767 40.9476Z"/>
</mask>
<path d="M51.5767 40.9476C80.4212 34.4686 92.3707 63.1337 94.3599 68.7562C96.1144 73.7155 102.525 82.4597 111.863 83.7308C119.06 84.6978 129.836 64.4463 132.281 62.5257C134.118 61.0614 145.308 62.1252 158.335 66.0208C171.361 69.9026 181.336 78.0803 180.604 81.7689C180.314 83.2193 174.277 87.2254 170.395 89.5462C166.519 91.8635 134.52 113.008 134.422 113.073C134.448 113.085 136.392 114.061 139.671 115.214C141.366 115.817 142.48 116.758 142.911 117.935C143.858 118.973 143.884 123.062 142.269 124.567C141.261 125.506 139.286 125.285 138.126 126.252C136.951 127.233 136.467 129.941 134.229 131.571C131.121 133.836 129.297 132.607 127.488 134.03C126.245 134.997 124.435 137.124 122.75 138.961C120.484 141.434 116.215 144.155 106.615 143.243C105.07 143.099 103.583 142.849 102.156 142.513C101.953 142.552 101.748 142.591 101.541 142.63C102.561 147.731 104.01 157.118 101.935 161.521C100.733 164.09 94.3513 169.312 88.7154 172.807C83.0791 176.302 79.4737 173.677 80.9381 170.472C82.5684 166.88 91.6295 162.308 94.1578 158.026C95.8876 155.095 94.9776 148.071 94.231 143.927C91.7669 144.336 89.0916 144.755 86.1959 145.177C85.2067 145.321 84.2259 145.431 83.2545 145.512C84.0414 149.484 84.4576 154.466 82.7164 157.832C79.4005 164.242 62.4783 165.416 61.3179 164.048C60.1438 162.694 60.1161 159.407 61.9947 158.219C64.6194 156.561 73.1708 157.238 75.3121 153.743C76.4029 151.95 75.9613 148.468 75.275 145.501C57.75 143.986 44.3709 132.892 40.2349 123.917C35.5657 113.805 36.1183 108.956 34.0738 97.9183C33.4723 94.6531 32.6146 91.8315 31.4136 87.3626C30.7536 87.3179 30.1373 87.2692 29.6021 87.2259C26.4938 86.9773 21.1753 86.8385 20.1392 84.2415C19.4768 82.5701 21.3139 80.3462 22.4742 78.7991C23.1924 77.8415 25.7527 75.0426 28.1529 73.14C25.9311 55.6358 37.2758 44.1615 51.5767 40.9476Z" fill="black"/>
<path d="M51.5767 40.9476L50.2618 35.0934L50.2611 35.0936L51.5767 40.9476ZM94.3599 68.7562L100.016 66.7551L100.016 66.7549L94.3599 68.7562ZM111.863 83.7308L111.054 89.676L111.064 89.6774L111.863 83.7308ZM132.281 62.5257L135.987 67.2443C135.998 67.2355 136.009 67.2267 136.02 67.2178L132.281 62.5257ZM158.335 66.0208L156.615 71.7693L156.621 71.771L158.335 66.0208ZM180.604 81.7689L186.488 82.9456L186.489 82.9361L180.604 81.7689ZM170.395 89.5462L173.474 94.696L173.474 94.696L170.395 89.5462ZM134.422 113.073L131.115 108.067C129.328 109.247 128.307 111.29 128.433 113.427C128.559 115.564 129.815 117.472 131.728 118.433L134.422 113.073ZM139.671 115.214L141.682 109.561C141.675 109.559 141.668 109.556 141.661 109.554L139.671 115.214ZM142.911 117.935L137.277 119.998C137.545 120.731 137.953 121.403 138.479 121.979L142.911 117.935ZM142.269 124.567L146.358 128.958L146.358 128.958L142.269 124.567ZM138.126 126.252L134.284 121.643L134.279 121.647L138.126 126.252ZM134.229 131.571L130.696 126.721L130.695 126.722L134.229 131.571ZM127.488 134.03L131.172 138.766C131.18 138.759 131.188 138.753 131.196 138.746L127.488 134.03ZM122.75 138.961L118.328 134.905L118.326 134.908L122.75 138.961ZM106.615 143.243L107.182 137.27L107.175 137.27L106.615 143.243ZM102.156 142.513L103.529 136.672C102.708 136.479 101.855 136.461 101.026 136.62L102.156 142.513ZM101.541 142.63L100.423 136.735C98.8497 137.033 97.4604 137.949 96.5652 139.277C95.6699 140.605 95.343 142.236 95.6571 143.807L101.541 142.63ZM101.935 161.521L96.5073 158.964C96.5051 158.968 96.5029 158.973 96.5007 158.978L101.935 161.521ZM88.7154 172.807L91.8774 177.906L91.8774 177.906L88.7154 172.807ZM80.9381 170.472L86.3954 172.965C86.3974 172.961 86.3995 172.957 86.4015 172.952L80.9381 170.472ZM94.1578 158.026L99.3245 161.076L99.3247 161.076L94.1578 158.026ZM94.231 143.927L100.136 142.863C99.5541 139.633 96.4853 137.47 93.2479 138.008L94.231 143.927ZM86.1959 145.177L87.061 151.114L87.061 151.114L86.1959 145.177ZM83.2545 145.512L82.7556 139.533C81.0531 139.675 79.4919 140.536 78.4634 141.9C77.435 143.264 77.0368 145.002 77.3689 146.678L83.2545 145.512ZM82.7164 157.832L88.0455 160.589L88.0457 160.589L82.7164 157.832ZM61.3179 164.048L65.893 160.166C65.879 160.15 65.8648 160.133 65.8506 160.117L61.3179 164.048ZM61.9947 158.219L58.7907 153.146L58.7877 153.148L61.9947 158.219ZM75.3121 153.743L80.4283 156.877C80.4314 156.872 80.4346 156.867 80.4378 156.861L75.3121 153.743ZM75.275 145.501L81.1206 144.149C80.5345 141.615 78.3828 139.748 75.7918 139.524L75.275 145.501ZM40.2349 123.917L45.6841 121.406L45.6823 121.402L40.2349 123.917ZM34.0738 97.9183L28.1731 99.0053L28.1742 99.0111L34.0738 97.9183ZM31.4136 87.3626L37.208 85.8054C36.5426 83.3293 34.3773 81.5496 31.8192 81.3763L31.4136 87.3626ZM29.6021 87.2259L30.0856 81.2454L30.0805 81.245L29.6021 87.2259ZM20.1392 84.2415L14.5614 86.4523L14.5663 86.4648L20.1392 84.2415ZM22.4742 78.7991L27.2742 82.3992L27.2742 82.3991L22.4742 78.7991ZM28.1529 73.14L31.8801 77.8419C33.5257 76.5374 34.3696 74.4676 34.1051 72.3844L28.1529 73.14ZM51.5767 40.9476L52.8917 46.8017C64.8178 44.1229 72.9843 48.5605 78.7305 54.4895C84.7041 60.6532 87.8325 68.2956 88.7035 70.7575L94.3599 68.7562L100.016 66.7549C98.8981 63.5942 95.0571 54.0929 87.3476 46.1381C79.4107 37.9487 67.1802 31.2933 50.2618 35.0934L51.5767 40.9476ZM94.3599 68.7562L88.7035 70.7573C89.9062 74.157 92.4662 78.3396 96.0422 81.8865C99.6504 85.4654 104.722 88.8142 111.054 89.676L111.863 83.7308L112.672 77.7856C109.665 77.3763 106.863 75.7175 104.493 73.3667C102.09 70.9838 100.568 68.3147 100.016 66.7551L94.3599 68.7562ZM111.863 83.7308L111.064 89.6774C115.649 90.2934 119.464 87.5537 121.684 85.6222C124.223 83.4128 126.621 80.5127 128.648 77.8185C130.703 75.0878 132.596 72.2686 134.03 70.1624C134.771 69.0748 135.359 68.2208 135.825 67.5899C136.448 66.7453 136.426 66.8996 135.987 67.2443L132.281 62.5257L128.575 57.8071C127.525 58.632 126.631 59.8392 126.168 60.466C125.548 61.3064 124.838 62.3421 124.112 63.408C122.613 65.6089 120.904 68.1523 119.059 70.6036C117.187 73.0915 115.389 75.1931 113.807 76.5688C111.907 78.2225 111.675 77.6517 112.662 77.7842L111.863 83.7308ZM132.281 62.5257L136.02 67.2178C135.128 67.9292 134.376 68.0189 134.592 67.9747C134.647 67.9635 134.918 67.9203 135.475 67.9035C136.574 67.8706 138.226 67.9549 140.383 68.2188C144.662 68.7427 150.384 69.9057 156.615 71.7693L158.335 66.0208L160.054 60.2724C153.259 58.2403 146.872 56.9237 141.841 56.3077C139.342 56.0018 137.037 55.8513 135.115 55.9089C134.161 55.9375 133.154 56.021 132.195 56.2167C131.397 56.3794 129.893 56.7561 128.541 57.8336L132.281 62.5257ZM158.335 66.0208L156.621 71.771C162.484 73.5181 167.601 76.2239 171.053 78.7857C172.797 80.0797 173.922 81.1936 174.51 81.9571C175.37 83.0749 174.361 82.406 174.719 80.6016L180.604 81.7689L186.489 82.9361C187.213 79.2874 185.231 76.2131 184.02 74.6389C182.536 72.7103 180.491 70.8456 178.204 69.1489C173.595 65.7292 167.211 62.4053 160.048 60.2707L158.335 66.0208ZM180.604 81.7689L174.721 80.5922C174.864 79.8751 175.117 79.3754 175.244 79.1479C175.383 78.8979 175.502 78.7443 175.539 78.6976C175.606 78.6132 175.578 78.6625 175.364 78.8599C174.947 79.2441 174.26 79.7952 173.324 80.4742C171.481 81.8108 169.161 83.2937 167.316 84.3964L170.395 89.5462L173.474 94.696C175.511 93.4779 178.151 91.7973 180.369 90.1881C181.464 89.3941 182.583 88.5268 183.501 87.6794C183.955 87.2609 184.476 86.7412 184.944 86.151C185.293 85.7108 186.163 84.568 186.488 82.9456L180.604 81.7689ZM170.395 89.5462L167.316 84.3964C165.235 85.6407 156.105 91.6142 147.697 97.1401C139.194 102.728 131.165 108.034 131.115 108.067L134.422 113.073L137.73 118.078C137.946 117.936 169.752 96.9214 173.474 94.696L170.395 89.5462ZM134.422 113.073L131.728 118.433C131.928 118.534 134.11 119.619 137.682 120.875L139.671 115.214L141.661 109.554C138.673 108.504 136.968 107.637 137.117 107.712L134.422 113.073ZM139.671 115.214L137.661 120.867C137.989 120.984 138.022 121.051 137.902 120.951C137.763 120.833 137.47 120.527 137.277 119.998L142.911 117.935L148.545 115.871C147.274 112.403 144.323 110.5 141.682 109.561L139.671 115.214ZM142.911 117.935L138.479 121.979C137.977 121.429 137.753 120.933 137.674 120.742C137.582 120.519 137.556 120.383 137.554 120.373C137.551 120.359 137.574 120.498 137.561 120.732C137.547 120.965 137.509 121.094 137.509 121.093C137.512 121.084 137.544 120.992 137.631 120.845C137.717 120.699 137.887 120.449 138.18 120.176L142.269 124.567L146.358 128.958C148.887 126.602 149.436 123.247 149.541 121.42C149.605 120.314 149.545 119.141 149.321 118.022C149.14 117.118 148.689 115.365 147.343 113.89L142.911 117.935ZM142.269 124.567L138.181 120.175C138.725 119.669 139.218 119.485 139.294 119.457C139.335 119.442 139.307 119.456 138.857 119.564C138.537 119.641 137.826 119.804 137.103 120.062C136.344 120.333 135.3 120.797 134.284 121.643L138.126 126.252L141.967 130.862C141.532 131.224 141.169 131.353 141.138 131.364C141.116 131.372 141.136 131.363 141.23 131.338C141.331 131.311 141.446 131.283 141.652 131.234C141.966 131.159 142.693 130.992 143.424 130.724C144.191 130.443 145.309 129.934 146.358 128.958L142.269 124.567ZM138.126 126.252L134.279 121.647C133.175 122.569 132.504 123.648 132.165 124.225C131.869 124.728 131.424 125.585 131.31 125.793C130.864 126.609 130.703 126.716 130.696 126.721L134.229 131.571L137.762 136.42C139.993 134.795 141.193 132.733 141.843 131.543C142.276 130.748 142.312 130.642 142.507 130.311C142.659 130.053 142.489 130.426 141.972 130.857L138.126 126.252ZM134.229 131.571L130.695 126.722C130.208 127.077 130.026 127.104 129.519 127.177C129.051 127.244 126.229 127.387 123.779 129.313L127.488 134.03L131.196 138.746C130.557 139.249 129.551 139.295 131.224 139.055C132.859 138.82 135.142 138.33 137.763 136.419L134.229 131.571ZM127.488 134.03L123.804 129.294C122.755 130.109 121.698 131.213 120.886 132.089C120.13 132.904 118.982 134.193 118.328 134.905L122.75 138.961L127.171 143.017C128.203 141.892 128.802 141.199 129.683 140.25C130.508 139.36 130.977 138.917 131.172 138.766L127.488 134.03ZM122.75 138.961L118.326 134.908C117.78 135.503 116.97 136.187 115.485 136.696C113.928 137.231 111.353 137.666 107.182 137.27L106.615 143.243L106.048 149.217C117.184 150.274 123.425 147.106 127.173 143.015L122.75 138.961ZM106.615 143.243L107.175 137.27C105.914 137.151 104.699 136.947 103.529 136.672L102.156 142.513L100.783 148.354C102.468 148.75 104.226 149.046 106.055 149.217L106.615 143.243ZM102.156 142.513L101.026 136.62C100.829 136.658 100.628 136.696 100.423 136.735L101.541 142.63L102.658 148.525C102.867 148.486 103.077 148.446 103.286 148.406L102.156 142.513ZM101.541 142.63L95.6571 143.807C96.1433 146.238 96.7052 149.569 96.9111 152.728C97.1388 156.221 96.8298 158.279 96.5073 158.964L101.935 161.521L107.363 164.078C109.115 160.359 109.119 155.522 108.886 151.947C108.631 148.037 107.958 144.124 107.424 141.453L101.541 142.63ZM101.935 161.521L96.5007 158.978C96.6222 158.718 96.5489 158.957 95.7933 159.757C95.1416 160.446 94.2357 161.29 93.1228 162.228C90.8978 164.101 88.1289 166.111 85.5534 167.708L88.7154 172.807L91.8774 177.906C94.9378 176.008 98.1775 173.659 100.853 171.406C102.19 170.28 103.457 169.118 104.516 167.997C105.472 166.986 106.647 165.608 107.37 164.064L101.935 161.521ZM88.7154 172.807L85.5534 167.708C84.6554 168.265 84.086 168.421 83.8746 168.458C83.6447 168.499 83.9542 168.387 84.5608 168.651C85.2308 168.943 86.0381 169.625 86.4186 170.735C86.7846 171.802 86.5453 172.637 86.3954 172.965L80.9381 170.472L75.4807 167.979C74.5986 169.909 74.2609 172.274 75.0672 174.626C75.888 177.02 77.6744 178.741 79.7672 179.652C83.7607 181.393 88.2466 180.158 91.8774 177.906L88.7154 172.807ZM80.9381 170.472L86.4015 172.952C86.2572 173.27 86.3022 173.011 87.3369 172.085C88.2468 171.271 89.4101 170.378 90.8533 169.276C92.2078 168.241 93.8068 167.023 95.2272 165.769C96.595 164.56 98.2054 162.972 99.3245 161.076L94.1578 158.026L88.9911 154.975C88.846 155.221 88.3757 155.81 87.2826 156.775C86.242 157.694 84.9997 158.647 83.5691 159.74C82.2272 160.765 80.6615 161.956 79.3349 163.143C78.1331 164.218 76.4341 165.878 75.4746 167.992L80.9381 170.472ZM94.1578 158.026L99.3247 161.076C100.349 159.341 100.762 157.436 100.955 155.936C101.158 154.355 101.179 152.713 101.118 151.194C100.998 148.155 100.531 145.055 100.136 142.863L94.231 143.927L88.3261 144.991C88.6778 146.943 89.0389 149.427 89.1277 151.669C89.1721 152.79 89.1421 153.713 89.0532 154.403C88.9539 155.173 88.8317 155.245 88.9909 154.976L94.1578 158.026ZM94.231 143.927L93.2479 138.008C90.8237 138.411 88.1877 138.823 85.3307 139.24L86.1959 145.177L87.061 151.114C89.9955 150.687 92.7101 150.262 95.2141 149.846L94.231 143.927ZM86.1959 145.177L85.3307 139.24C84.4714 139.365 83.6131 139.461 82.7556 139.533L83.2545 145.512L83.7533 151.491C84.8386 151.401 85.942 151.277 87.061 151.114L86.1959 145.177ZM83.2545 145.512L77.3689 146.678C77.7157 148.429 77.945 150.237 77.9336 151.857C77.9217 153.544 77.6499 154.568 77.3871 155.076L82.7164 157.832L88.0457 160.589C89.524 157.731 89.9147 154.581 89.9333 151.942C89.9524 149.236 89.5802 146.568 89.1401 144.346L83.2545 145.512ZM82.7164 157.832L77.3872 155.075C77.4367 154.98 77.1398 155.526 75.5493 156.287C74.0889 156.985 72.1586 157.563 70.0728 157.965C68.0081 158.363 66.0411 158.542 64.6252 158.556C63.899 158.563 63.4718 158.525 63.3169 158.502C63.2293 158.489 63.381 158.503 63.6681 158.602C63.7631 158.634 64.8963 158.992 65.893 160.166L61.3179 164.048L56.7429 167.93C57.8847 169.276 59.286 169.784 59.758 169.947C60.4221 170.176 61.0596 170.298 61.5522 170.371C62.5578 170.521 63.6689 170.566 64.7442 170.555C66.9312 170.533 69.6196 170.274 72.345 169.748C75.0492 169.227 78.0437 168.395 80.7251 167.113C83.2763 165.893 86.3381 163.89 88.0455 160.589L82.7164 157.832ZM61.3179 164.048L65.8506 160.117C66.3016 160.637 66.4299 161.069 66.4603 161.182C66.4998 161.33 66.5016 161.424 66.4964 161.498C66.4914 161.567 66.4685 161.776 66.3192 162.081C66.1606 162.404 65.823 162.897 65.2017 163.29L61.9947 158.219L58.7877 153.148C55.6583 155.127 54.6858 158.41 54.5267 160.645C54.3722 162.815 54.8385 165.735 56.7852 167.979L61.3179 164.048ZM61.9947 158.219L65.1987 163.292C64.7688 163.563 64.7293 163.443 65.9805 163.21C67.3758 162.95 67.9061 162.921 69.862 162.581C71.3213 162.328 73.1717 161.95 74.9105 161.26C76.5976 160.59 78.9187 159.341 80.4283 156.877L75.3121 153.743L70.1959 150.608C70.6348 149.892 71.084 149.868 70.4835 150.107C69.9347 150.324 69.0817 150.537 67.8074 150.758C67.0297 150.894 64.7962 151.224 63.7829 151.413C62.6256 151.629 60.533 152.046 58.7907 153.146L61.9947 158.219ZM75.3121 153.743L80.4378 156.861C81.9374 154.397 82.0269 151.579 81.955 149.817C81.8737 147.828 81.5049 145.81 81.1206 144.149L75.275 145.501L69.4293 146.853C69.7313 148.159 69.9265 149.366 69.9649 150.307C69.9838 150.77 69.9587 151.042 69.9403 151.156C69.9185 151.29 69.934 151.038 70.1864 150.624L75.3121 153.743ZM75.275 145.501L75.7918 139.524C60.2371 138.179 48.8459 128.267 45.6841 121.406L40.2349 123.917L34.7858 126.429C39.8959 137.517 55.263 149.793 74.7582 151.479L75.275 145.501ZM40.2349 123.917L45.6823 121.402C41.4333 112.2 42.2103 108.902 39.9734 96.8255L34.0738 97.9183L28.1742 99.0111C30.0263 109.01 29.6981 115.41 34.7876 126.433L40.2349 123.917ZM34.0738 97.9183L39.9745 96.8313C39.3153 93.2527 38.3472 90.0441 37.208 85.8054L31.4136 87.3626L25.6192 88.9198C26.8821 93.6189 27.6294 96.0536 28.1731 99.0053L34.0738 97.9183ZM31.4136 87.3626L31.8192 81.3763C31.1991 81.3343 30.614 81.2881 30.0856 81.2454L29.6021 87.2259L29.1186 93.2064C29.6605 93.2502 30.3081 93.3015 31.0081 93.3489L31.4136 87.3626ZM29.6021 87.2259L30.0805 81.245C29.1211 81.1683 28.4404 81.1319 27.5137 81.0457C26.6619 80.9665 25.9325 80.8704 25.3339 80.7439C24.6942 80.6088 24.4782 80.494 24.5152 80.5144C24.5726 80.5461 25.2894 80.9586 25.7121 82.0183L20.1392 84.2415L14.5663 86.4648C15.5071 88.823 17.2772 90.2266 18.7204 91.0225C20.1431 91.8071 21.6453 92.2295 22.8532 92.4847C25.1939 92.9793 27.8863 93.1078 29.1237 93.2068L29.6021 87.2259ZM20.1392 84.2415L25.7171 82.0308C26.0919 82.9764 26.0095 83.7701 25.9359 84.1244C25.8704 84.4397 25.7904 84.5308 25.8933 84.3418C25.9846 84.174 26.1418 83.9265 26.3985 83.5694C26.678 83.1806 26.9083 82.887 27.2742 82.3992L22.4742 78.7991L17.6742 75.1991C17.2623 75.7484 16.1417 77.1564 15.3531 78.6056C14.6821 79.8385 13.1783 82.9627 14.5614 86.4523L20.1392 84.2415ZM22.4742 78.7991L27.2742 82.3991C27.2738 82.3997 27.2771 82.3952 27.2848 82.3853C27.2924 82.3756 27.3031 82.362 27.3171 82.3444C27.3457 82.3087 27.384 82.2617 27.4329 82.2031C27.5313 82.0851 27.6594 81.936 27.8158 81.7597C28.1291 81.4064 28.5276 80.9757 28.9807 80.5105C29.9072 79.5594 30.9511 78.5783 31.8801 77.8419L28.1529 73.14L24.4257 68.438C21.6238 70.6591 18.7025 73.828 17.6742 75.1991L22.4742 78.7991ZM28.1529 73.14L34.1051 72.3844C33.1895 65.1704 35.0669 59.5614 38.3626 55.4223C41.7303 51.1928 46.8637 48.1564 52.8923 46.8016L51.5767 40.9476L50.2611 35.0936C41.9889 36.9527 34.2994 41.2604 28.9749 47.9476C23.5785 54.7251 20.8945 63.6054 22.2007 73.8955L28.1529 73.14Z" fill="white" mask="url(#path-1-outside-1_1062_19756)"/>
<path d="M73.7515 140.329C73.7515 140.329 77.4399 150.248 75.3125 153.743C73.1713 157.238 64.6201 156.561 61.9954 158.219C60.1166 159.407 60.1443 162.695 61.3185 164.049C62.4789 165.416 79.4016 164.242 82.717 157.832C86.0325 151.422 81.529 139.155 81.529 139.155L73.7515 140.329Z" fill="#EAC00F"/>
<path d="M100.776 139.155L93.5785 140.716C93.5785 140.716 96.6868 153.743 94.1587 158.025C91.6307 162.308 82.5684 166.88 80.9383 170.472C79.474 173.677 83.0796 176.302 88.7159 172.807C94.3521 169.312 100.734 164.09 101.936 161.52C104.865 155.304 100.776 139.155 100.776 139.155Z" fill="#EAC00F"/>
<path d="M51.5778 40.9476C36.2714 44.3874 24.3496 57.29 28.8254 76.9203C31.4778 88.5659 33.1079 92.6688 34.0749 97.9183C36.1195 108.956 35.5669 113.805 40.2361 123.917C45.1955 134.678 63.4444 148.493 86.1967 145.177C108.949 141.862 118.094 138.754 118.094 138.754L126.259 131.556L134.036 129.609L135.196 123.972C135.196 123.972 141.012 123.71 142.2 121.831C144.079 118.847 142.974 116.388 139.672 115.214C136.371 114.054 134.423 113.073 134.423 113.073C134.423 113.073 166.514 91.8675 170.396 89.5467C174.277 87.2259 180.314 83.2197 180.604 81.7692C181.337 78.0808 171.363 69.9026 158.336 66.0208C145.309 62.1251 134.119 61.0614 132.282 62.5257C129.836 64.4459 119.061 84.6979 111.864 83.7308C102.525 82.4599 96.1155 73.7154 94.3611 68.756C92.3718 63.1335 80.4223 34.4686 51.5778 40.9476Z" fill="#4D4D4D"/>
<path d="M31.9379 71.2841C29.6033 70.8973 23.6355 77.252 22.4751 78.7992C21.3147 80.3464 19.4773 82.5705 20.1404 84.2421C21.1765 86.8392 26.4951 86.9773 29.6033 87.226C32.8497 87.4885 39.0662 87.9996 40.1023 86.0656C41.1383 84.1177 38.9419 79.1998 37.1183 76.2159C35.433 73.4392 34.3693 71.6986 31.9379 71.2841Z" fill="#EAC00F"/>
<path d="M56.6477 80.7734C62.079 80.7734 66.4819 76.3705 66.4819 70.9392C66.4819 65.5079 62.079 61.105 56.6477 61.105C51.2164 61.105 46.8135 65.5079 46.8135 70.9392C46.8135 76.3705 51.2164 80.7734 56.6477 80.7734Z" fill="white"/>
<path d="M56.6482 76.1811C59.5432 76.1811 61.8901 73.8342 61.8901 70.9392C61.8901 68.0441 59.5432 65.6973 56.6482 65.6973C53.7531 65.6973 51.4062 68.0441 51.4062 70.9392C51.4062 73.8342 53.7531 76.1811 56.6482 76.1811Z" fill="#040000"/>
<path d="M74.9111 112.52C72.2173 113.501 75.7538 123.019 79.387 127.302C83.2136 131.805 92.4693 141.917 106.615 143.244C116.216 144.155 120.485 141.434 122.75 138.961C124.436 137.124 126.246 134.996 127.489 134.029C129.299 132.606 131.122 133.836 134.23 131.57C136.468 129.94 136.952 127.233 138.126 126.252C139.286 125.285 141.262 125.506 142.27 124.566C144.08 122.881 143.831 117.949 142.533 117.701C141.234 117.452 141.11 121.196 139.811 121.721C138.513 122.246 136.786 121.914 134.368 123.282C132.296 124.442 132.946 126.777 131.523 127.813C130.1 128.849 127.503 127.426 124.008 129.374C122.115 130.424 120.513 135.466 115.056 136.64C108.287 138.091 98.1332 133.159 93.2705 129.636C81.9841 121.458 79.5113 110.835 74.9111 112.52Z" fill="black"/>
<circle cx="110.5" cy="34.5" r="9.5" fill="#4D4D4D" stroke="white" stroke-width="4"/>
<circle cx="137.5" cy="34.5" r="9.5" fill="#4D4D4D" stroke="white" stroke-width="4"/>
<circle cx="164.5" cy="34.5" r="9.5" fill="#4D4D4D" stroke="white" stroke-width="4"/>
</svg>
