<svg width="200" height="200" viewBox="0 0 200 200" fill="none" xmlns="http://www.w3.org/2000/svg">
<mask id="path-1-outside-1_1347_11980" maskUnits="userSpaceOnUse" x="15.4941" y="17.3184" width="166" height="167" fill="black">
<rect fill="white" x="15.4941" y="17.3184" width="166" height="167"/>
<path d="M56.7627 24.6172C67.3657 23.0641 77.481 27.63 83.7891 36.5645C87.1372 35.8397 92.1306 36.9424 93.3779 39.4766C94.6994 42.1759 92.1402 47.2145 89.3027 49.207C89.5337 50.2268 89.7302 51.2722 89.8867 52.3428C89.9503 52.7778 90.005 53.2124 90.0547 53.6455L96.6299 50.0186H96.6357C105.49 45.1268 115.337 49.6207 114.491 58.1924C113.895 64.2616 112.059 70.9448 107.643 76.5391C109.141 79.7462 110.196 83.1977 110.729 86.8418L110.719 86.8379C112.913 101.827 105.544 115.007 92.9736 123.023L94.3838 125.255L98.2471 121.526C98.9181 121.103 99.696 120.99 100.419 121.153C101.145 121.321 101.804 121.754 102.228 122.425C103.075 123.767 102.671 125.557 101.329 126.405L94.9189 130.455C94.6085 130.651 94.2655 130.757 93.9209 130.782L109.535 130.895L113.901 101.344H141.287L144.33 77H174.76V177.417H50V146.03H62.2793C61.5277 145.686 61 144.926 61 144.05V131.068C41.5494 129.95 25.6028 118.246 22.8867 99.6953C21.0751 87.3368 25.6475 75.3822 34.2891 66.6436C33.7118 64.728 33.2665 62.737 32.9658 60.6807C30.2017 41.7875 41.0463 26.9194 56.7627 24.6172ZM89.0635 125.267C84.0421 127.84 78.3676 129.661 72.2607 130.556C69.9831 130.889 67.7263 131.082 65.5039 131.14V141.547L70.7607 140.457C71.5544 140.457 72.2718 140.778 72.7959 141.302C73.32 141.831 73.6465 142.549 73.6465 143.343C73.6465 144.564 72.8781 145.61 71.8018 146.03H80.4287V130.687L93.5986 130.78C92.9324 130.73 92.2954 130.381 91.9141 129.777L89.0635 125.267Z"/>
</mask>
<path d="M56.7627 24.6172C67.3657 23.0641 77.481 27.63 83.7891 36.5645C87.1372 35.8397 92.1306 36.9424 93.3779 39.4766C94.6994 42.1759 92.1402 47.2145 89.3027 49.207C89.5337 50.2268 89.7302 51.2722 89.8867 52.3428C89.9503 52.7778 90.005 53.2124 90.0547 53.6455L96.6299 50.0186H96.6357C105.49 45.1268 115.337 49.6207 114.491 58.1924C113.895 64.2616 112.059 70.9448 107.643 76.5391C109.141 79.7462 110.196 83.1977 110.729 86.8418L110.719 86.8379C112.913 101.827 105.544 115.007 92.9736 123.023L94.3838 125.255L98.2471 121.526C98.9181 121.103 99.696 120.99 100.419 121.153C101.145 121.321 101.804 121.754 102.228 122.425C103.075 123.767 102.671 125.557 101.329 126.405L94.9189 130.455C94.6085 130.651 94.2655 130.757 93.9209 130.782L109.535 130.895L113.901 101.344H141.287L144.33 77H174.76V177.417H50V146.03H62.2793C61.5277 145.686 61 144.926 61 144.05V131.068C41.5494 129.95 25.6028 118.246 22.8867 99.6953C21.0751 87.3368 25.6475 75.3822 34.2891 66.6436C33.7118 64.728 33.2665 62.737 32.9658 60.6807C30.2017 41.7875 41.0463 26.9194 56.7627 24.6172ZM89.0635 125.267C84.0421 127.84 78.3676 129.661 72.2607 130.556C69.9831 130.889 67.7263 131.082 65.5039 131.14V141.547L70.7607 140.457C71.5544 140.457 72.2718 140.778 72.7959 141.302C73.32 141.831 73.6465 142.549 73.6465 143.343C73.6465 144.564 72.8781 145.61 71.8018 146.03H80.4287V130.687L93.5986 130.78C92.9324 130.73 92.2954 130.381 91.9141 129.777L89.0635 125.267Z" fill="#276288"/>
<path d="M56.7627 24.6172L55.8931 18.6805L55.8931 18.6805L56.7627 24.6172ZM83.7891 36.5645L78.8876 40.0251C80.2761 41.9917 82.7056 42.938 85.0585 42.4286L83.7891 36.5645ZM93.3779 39.4766L98.7668 36.8384L98.7611 36.8268L93.3779 39.4766ZM89.3027 49.207L85.8546 44.2968C83.8629 45.6955 82.9134 48.1587 83.4509 50.5323L89.3027 49.207ZM89.8867 52.3428L95.8236 51.4748L95.8236 51.4747L89.8867 52.3428ZM90.0547 53.6455L84.0939 54.33C84.3221 56.3177 85.5261 58.0608 87.3043 58.978C89.0825 59.8951 91.2008 59.8656 92.9527 58.8992L90.0547 53.6455ZM96.6299 50.0186V44.0186C95.6164 44.0186 94.6193 44.2753 93.7319 44.7648L96.6299 50.0186ZM96.6357 50.0186V56.0186C97.6507 56.0186 98.649 55.7611 99.5373 55.2703L96.6357 50.0186ZM114.491 58.1924L108.52 57.603L108.52 57.6053L114.491 58.1924ZM107.643 76.5391L102.933 72.8215C101.527 74.6021 101.246 77.0234 102.207 79.0787L107.643 76.5391ZM110.729 86.8418L108.5 92.4127C110.492 93.2095 112.758 92.8819 114.443 91.5534C116.128 90.225 116.976 88.0978 116.666 85.9747L110.729 86.8418ZM110.719 86.8379L112.947 81.267C110.955 80.47 108.688 80.7979 107.003 82.1269C105.318 83.4559 104.471 85.5837 104.782 87.7071L110.719 86.8379ZM92.9736 123.023L89.7475 117.965C86.9617 119.741 86.1364 123.436 87.9015 126.229L92.9736 123.023ZM94.3838 125.255L89.3117 128.46C90.2757 129.986 91.8752 130.996 93.6668 131.212C95.4584 131.428 97.252 130.825 98.5505 129.572L94.3838 125.255ZM98.2471 121.526L95.0429 116.454C94.6972 116.672 94.3746 116.925 94.0804 117.209L98.2471 121.526ZM100.419 121.153L101.768 115.307C101.759 115.305 101.749 115.303 101.739 115.3L100.419 121.153ZM102.228 122.425L107.3 119.221L107.3 119.22L102.228 122.425ZM101.329 126.405L104.534 131.478L104.534 131.478L101.329 126.405ZM94.9189 130.455L91.7143 125.383L91.714 125.383L94.9189 130.455ZM93.9209 130.782L93.4875 124.798C90.275 125.031 87.8193 127.758 87.9241 130.977C88.0289 134.197 90.6569 136.759 93.8777 136.782L93.9209 130.782ZM109.535 130.895L109.492 136.894C112.483 136.916 115.033 134.731 115.471 131.772L109.535 130.895ZM113.901 101.344V95.3438C110.926 95.3438 108.401 97.5237 107.966 100.467L113.901 101.344ZM141.287 101.344V107.344C144.313 107.344 146.865 105.091 147.241 102.088L141.287 101.344ZM144.33 77V71C141.304 71 138.752 73.2532 138.376 76.2558L144.33 77ZM174.76 77H180.76C180.76 73.6863 178.073 71 174.76 71V77ZM174.76 177.417V183.417C178.073 183.417 180.76 180.731 180.76 177.417H174.76ZM50 177.417H44C44 180.731 46.6863 183.417 50 183.417V177.417ZM50 146.03V140.03C46.6863 140.03 44 142.717 44 146.03H50ZM62.2793 146.03V152.03C65.0997 152.03 67.5393 150.066 68.1411 147.31C68.7429 144.555 67.3444 141.752 64.7808 140.577L62.2793 146.03ZM61 144.05H67H61ZM61 131.068H67C67 127.888 64.5191 125.261 61.3444 125.078L61 131.068ZM22.8867 99.6953L28.8234 98.8261L28.8233 98.8251L22.8867 99.6953ZM34.2891 66.6436L38.5553 70.8624C40.1008 69.2996 40.6681 67.0168 40.0339 64.9123L34.2891 66.6436ZM32.9658 60.6807L38.9027 59.8126L38.9026 59.8121L32.9658 60.6807ZM89.0635 125.267L94.1356 122.061C92.4769 119.437 89.0899 118.511 86.3269 119.927L89.0635 125.267ZM72.2607 130.556L73.1295 136.492L73.1308 136.492L72.2607 130.556ZM65.5039 131.14L65.3482 125.142C62.0963 125.226 59.5039 127.887 59.5039 131.14H65.5039ZM65.5039 141.547H59.5039C59.5039 143.352 60.3165 145.061 61.7163 146.2C63.1162 147.34 64.9546 147.788 66.7219 147.422L65.5039 141.547ZM70.7607 140.457V134.457C70.3515 134.457 69.9434 134.499 69.5427 134.582L70.7607 140.457ZM72.7959 141.302L77.059 137.08C77.0519 137.072 77.0447 137.065 77.0376 137.058L72.7959 141.302ZM73.6465 143.343H79.6465V143.343L73.6465 143.343ZM71.8018 146.03L69.6214 140.44C66.9328 141.489 65.3716 144.303 65.9052 147.14C66.4387 149.976 68.9158 152.03 71.8018 152.03V146.03ZM80.4287 146.03V152.03C83.7424 152.03 86.4287 149.344 86.4287 146.03H80.4287ZM80.4287 130.687L80.4714 124.687C78.8728 124.675 77.3357 125.302 76.2012 126.429C75.0667 127.555 74.4287 129.088 74.4287 130.687H80.4287ZM93.5986 130.78L93.5559 136.78C96.7905 136.803 99.4611 134.258 99.5936 131.026C99.7261 127.794 97.2728 125.039 94.0471 124.797L93.5986 130.78ZM91.9141 129.777L96.9864 126.572L96.9861 126.572L91.9141 129.777ZM56.7627 24.6172L57.6323 30.5538C65.8787 29.3459 73.8118 32.8359 78.8876 40.0251L83.7891 36.5645L88.6905 33.1038C81.1502 22.4241 68.8526 16.7823 55.8931 18.6805L56.7627 24.6172ZM83.7891 36.5645L85.0585 42.4286C85.3132 42.3735 85.7311 42.3289 86.2676 42.3519C86.7955 42.3745 87.3232 42.4578 87.7786 42.5832C88.2512 42.7133 88.5048 42.8494 88.5742 42.894C88.6623 42.9508 88.3028 42.7522 87.9947 42.1263L93.3779 39.4766L98.7611 36.8268C96.9823 33.213 93.3076 31.6589 90.964 31.0137C88.3309 30.2887 85.2578 30.1076 82.5197 30.7003L83.7891 36.5645ZM93.3779 39.4766L87.989 42.1147C87.6647 41.4522 87.752 41.0354 87.7346 41.1909C87.7207 41.3157 87.65 41.6513 87.4268 42.1482C87.2111 42.6283 86.9156 43.1186 86.5867 43.5414C86.2466 43.9785 85.9717 44.2145 85.8546 44.2968L89.3027 49.207L92.7509 54.1172C95.2406 52.3689 97.2061 49.6632 98.3731 47.0655C99.41 44.7571 100.639 40.6621 98.7668 36.8384L93.3779 39.4766ZM89.3027 49.207L83.4509 50.5323C83.6487 51.4055 83.8164 52.2983 83.9498 53.2109L89.8867 52.3428L95.8236 51.4747C95.6439 50.246 95.4187 49.0481 95.1545 47.8818L89.3027 49.207ZM89.8867 52.3428L83.9498 53.2107C84.002 53.5678 84.0489 53.9384 84.0939 54.33L90.0547 53.6455L96.0155 52.9611C95.961 52.4864 95.8986 51.9878 95.8236 51.4748L89.8867 52.3428ZM90.0547 53.6455L92.9527 58.8992L99.5279 55.2723L96.6299 50.0186L93.7319 44.7648L87.1567 48.3918L90.0547 53.6455ZM96.6299 50.0186V56.0186H96.6357V50.0186V44.0186H96.6299V50.0186ZM96.6357 50.0186L99.5373 55.2703C102.488 53.6398 105.16 53.8064 106.706 54.5133C108.061 55.1328 108.668 56.1039 108.52 57.603L114.491 58.1924L120.462 58.7818C121.16 51.7092 117.267 46.1475 111.696 43.6001C106.316 41.1401 99.6369 41.5055 93.7342 44.7668L96.6357 50.0186ZM114.491 58.1924L108.52 57.6053C107.992 62.9735 106.405 68.423 102.933 72.8215L107.643 76.5391L112.352 80.2567C117.712 73.4666 119.797 65.5496 120.462 58.7794L114.491 58.1924ZM107.643 76.5391L102.207 79.0787C103.462 81.7661 104.345 84.655 104.792 87.7089L110.729 86.8418L116.666 85.9747C116.047 81.7404 114.82 77.7262 113.079 73.9994L107.643 76.5391ZM110.729 86.8418L112.957 81.2709L112.947 81.267L110.719 86.8379L108.49 92.4088L108.5 92.4127L110.729 86.8418ZM110.719 86.8379L104.782 87.7071C106.579 99.9782 100.672 110.998 89.7475 117.965L92.9736 123.023L96.1997 128.082C110.416 119.017 119.248 103.676 116.655 85.9687L110.719 86.8379ZM92.9736 123.023L87.9015 126.229L89.3117 128.46L94.3838 125.255L99.4559 122.05L98.0457 119.818L92.9736 123.023ZM94.3838 125.255L98.5505 129.572L102.414 125.844L98.2471 121.526L94.0804 117.209L90.2171 120.938L94.3838 125.255ZM98.2471 121.526L101.451 126.599C100.722 127.06 99.8622 127.179 99.0985 127.006L100.419 121.153L101.739 115.3C99.5297 114.802 97.1146 115.145 95.0429 116.454L98.2471 121.526ZM100.419 121.153L99.0698 127C98.3622 126.836 97.6328 126.386 97.1552 125.63L102.228 122.425L107.3 119.22C105.974 117.122 103.927 115.805 101.768 115.307L100.419 121.153ZM102.228 122.425L97.1548 125.629C96.2329 124.17 96.6656 122.255 98.1242 121.333L101.329 126.405L104.534 131.478C108.677 128.86 109.918 123.365 107.3 119.221L102.228 122.425ZM101.329 126.405L98.1244 121.333L91.7143 125.383L94.9189 130.455L98.1236 135.528L104.534 131.478L101.329 126.405ZM94.9189 130.455L91.714 125.383C92.2759 125.028 92.8927 124.841 93.4875 124.798L93.9209 130.782L94.3543 136.767C95.6384 136.674 96.941 136.275 98.1239 135.527L94.9189 130.455ZM93.9209 130.782L93.8777 136.782L109.492 136.894L109.535 130.895L109.578 124.895L93.9641 124.782L93.9209 130.782ZM109.535 130.895L115.471 131.772L119.837 102.221L113.901 101.344L107.966 100.467L103.6 130.018L109.535 130.895ZM113.901 101.344V107.344H141.287V101.344V95.3438H113.901V101.344ZM141.287 101.344L147.241 102.088L150.284 77.7442L144.33 77L138.376 76.2558L135.333 100.6L141.287 101.344ZM144.33 77V83H174.76V77V71H144.33V77ZM174.76 77H168.76V177.417H174.76H180.76V77H174.76ZM174.76 177.417V171.417H50V177.417V183.417H174.76V177.417ZM50 177.417H56V146.03H50H44V177.417H50ZM50 146.03V152.03H62.2793V146.03V140.03H50V146.03ZM62.2793 146.03L64.7808 140.577C66.0514 141.159 67 142.462 67 144.05H61H55C55 147.389 57.0039 150.212 59.7778 151.484L62.2793 146.03ZM61 144.05H67V131.068H61H55V144.05H61ZM61 131.068L61.3444 125.078C44.0008 124.081 31.0288 113.888 28.8234 98.8261L22.8867 99.6953L16.95 100.565C20.1769 122.603 39.098 135.819 60.6556 137.058L61 131.068ZM22.8867 99.6953L28.8233 98.8251C27.3153 88.5378 31.0847 78.417 38.5553 70.8624L34.2891 66.6436L30.0228 62.4247C20.2103 72.3475 14.8349 86.1358 16.9502 100.566L22.8867 99.6953ZM34.2891 66.6436L40.0339 64.9123C39.5421 63.2805 39.1608 61.5781 38.9027 59.8126L32.9658 60.6807L27.0289 61.5487C27.3721 63.8959 27.8815 66.1755 28.5443 68.3748L34.2891 66.6436ZM32.9658 60.6807L38.9026 59.8121C36.5467 43.7087 45.6624 32.3072 57.6323 30.5538L56.7627 24.6172L55.8931 18.6805C36.4302 21.5315 23.8568 39.8663 27.029 61.5492L32.9658 60.6807ZM89.0635 125.267L86.3269 119.927C81.9137 122.189 76.873 123.816 71.3907 124.619L72.2607 130.556L73.1308 136.492C79.8623 135.506 86.1704 133.491 91.8001 130.606L89.0635 125.267ZM72.2607 130.556L71.392 124.619C69.3477 124.918 67.329 125.09 65.3482 125.142L65.5039 131.14L65.6596 137.138C68.1236 137.074 70.6185 136.86 73.1295 136.492L72.2607 130.556ZM65.5039 131.14H59.5039V141.547H65.5039H71.5039V131.14H65.5039ZM65.5039 141.547L66.7219 147.422L71.9788 146.332L70.7607 140.457L69.5427 134.582L64.2859 135.672L65.5039 141.547ZM70.7607 140.457V146.457C69.8952 146.457 69.106 146.097 68.5542 145.545L72.7959 141.302L77.0376 137.058C75.4376 135.459 73.2136 134.457 70.7607 134.457V140.457ZM72.7959 141.302L68.5328 145.524C68.0242 145.01 67.6465 144.24 67.6465 143.343L73.6465 143.343L79.6465 143.343C79.6464 140.857 78.6158 138.652 77.059 137.08L72.7959 141.302ZM73.6465 143.343H67.6465C67.6465 141.985 68.4956 140.88 69.6214 140.44L71.8018 146.03L73.9821 151.62C77.2606 150.341 79.6465 147.143 79.6465 143.343H73.6465ZM71.8018 146.03V152.03H80.4287V146.03V140.03H71.8018V146.03ZM80.4287 146.03H86.4287V130.687H80.4287H74.4287V146.03H80.4287ZM80.4287 130.687L80.386 136.686L93.5559 136.78L93.5986 130.78L93.6413 124.78L80.4714 124.687L80.4287 130.687ZM93.5986 130.78L94.0471 124.797C95.1522 124.88 96.289 125.469 96.9864 126.572L91.9141 129.777L86.8417 132.982C88.3018 135.293 90.7126 136.581 93.1501 136.763L93.5986 130.78ZM91.9141 129.777L96.9861 126.572L94.1356 122.061L89.0635 125.267L83.9914 128.472L86.842 132.983L91.9141 129.777Z" fill="white" mask="url(#path-1-outside-1_1347_11980)"/>
<path d="M61.0005 120.178L61.0005 144.05C61.0005 145.246 61.9826 146.228 63.1785 146.228L70.7611 146.228C72.3488 146.228 73.6465 144.931 73.6465 143.343C73.6465 142.549 73.3208 141.831 72.7966 141.302C72.2725 140.778 71.5549 140.457 70.7611 140.457L65.5042 141.547L65.5042 120.178C65.5042 118.982 64.522 118 63.3261 118L63.1785 118C61.9826 118 61.0005 118.982 61.0005 120.178Z" fill="#404040"/>
<path d="M79.1631 109.596L91.9145 129.777C92.5533 130.788 93.9083 131.094 94.9193 130.455L101.329 126.405C102.672 125.557 103.076 123.767 102.227 122.425C101.803 121.753 101.145 121.321 100.419 121.153C99.6959 120.99 98.918 121.102 98.2469 121.527L94.3845 125.255L82.9705 107.191C82.3317 106.18 80.9767 105.874 79.9657 106.513L79.841 106.591C78.83 107.23 78.5243 108.585 79.1631 109.596Z" fill="#404040"/>
<path d="M174.76 77V177.417H50V146.03H80.4293V130.687L109.535 130.895L113.901 101.343H141.288L144.331 77H174.76Z" fill="#276288"/>
<path d="M96.6303 50.0183L70.2096 64.5974C63.7599 68.1556 61.9391 75.7209 66.6321 79.5484C73.9538 85.5237 85.5709 91.2681 98.8229 83.9529C109.895 77.843 113.594 67.3222 114.492 58.1926C115.338 49.6208 105.491 45.1265 96.6367 50.0183L96.6303 50.0183Z" fill="#276288"/>
<path d="M110.719 86.838C113.945 108.871 96.5101 127.002 72.2611 130.556C48.0031 134.106 26.1133 121.729 22.8872 99.6958C21.0755 87.3371 25.6475 75.3829 34.2891 66.6442C33.7117 64.7284 33.267 62.7371 32.9663 60.6806C30.2022 41.7873 41.0466 26.9197 56.7631 24.6176C72.4796 22.3156 87.1256 33.4563 89.8871 52.3432C90.1878 54.3998 90.3328 56.4375 90.3296 58.4384C101.112 64.3331 108.923 74.4807 110.728 86.8418L110.719 86.838Z" fill="#4B9AE8"/>
<path d="M69.5525 47.7151C73.3959 46.1705 75.2594 41.8027 73.7148 37.9593C72.1702 34.1159 67.8024 32.2524 63.959 33.797C60.1157 35.3416 58.2521 39.7094 59.7967 43.5528C61.3413 47.3962 65.7091 49.2597 69.5525 47.7151Z" fill="white"/>
<path d="M68.2363 44.4405C70.271 43.6228 71.2576 41.3104 70.4398 39.2757C69.6221 37.241 67.3097 36.2544 65.275 37.0721C63.2403 37.8898 62.2537 40.2022 63.0714 42.2369C63.8892 44.2717 66.2016 45.2582 68.2363 44.4405Z" fill="black"/>
<path d="M82.341 37.0479C85.458 35.524 91.9327 36.5402 93.378 39.4765C94.819 42.4198 91.648 48.1466 88.5309 49.6705C85.4139 51.1945 81.9468 50.5076 79.7943 46.1172C77.618 41.6791 79.2296 38.5705 82.3466 37.0465L82.341 37.0479Z" fill="#EAC00F"/>
<path d="M62.0254 67.6245L40.3269 88.5954C35.0297 93.7139 35.247 101.492 40.7765 103.962C49.4041 107.819 62.118 110.331 73.0008 99.81C82.0941 91.0215 82.9186 79.8998 81.4017 70.8525C79.9809 62.357 69.3014 60.5893 62.0316 67.6228L62.0254 67.6245Z" fill="#276288"/>
</svg>
