<svg width="200" height="200" viewBox="0 0 200 200" fill="none" xmlns="http://www.w3.org/2000/svg">
<mask id="path-1-outside-1_1062_26088" maskUnits="userSpaceOnUse" x="15.25" y="15.25" width="170" height="170" fill="black">
<rect fill="white" x="15.25" y="15.25" width="170" height="170"/>
<path d="M156.25 21.25C168.676 21.25 178.75 31.3236 178.75 43.75V156.25C178.75 168.671 168.684 178.742 156.266 178.75H43.7344C31.3152 178.742 21.25 168.671 21.25 156.25V43.75C21.25 31.3236 31.3236 21.25 43.75 21.25H156.25Z"/>
</mask>
<path d="M156.25 21.25C168.676 21.25 178.75 31.3236 178.75 43.75V156.25C178.75 168.671 168.684 178.742 156.266 178.75H43.7344C31.3152 178.742 21.25 168.671 21.25 156.25V43.75C21.25 31.3236 31.3236 21.25 43.75 21.25H156.25Z" fill="#8EC7FF"/>
<path d="M156.266 178.75L156.266 184.75L156.27 184.75L156.266 178.75ZM43.7344 178.75L43.7303 184.75H43.7344V178.75ZM156.25 21.25V27.25C165.363 27.25 172.75 34.6373 172.75 43.75H178.75H184.75C184.75 28.0098 171.99 15.25 156.25 15.25V21.25ZM178.75 43.75H172.75V156.25H178.75H184.75V43.75H178.75ZM178.75 156.25H172.75C172.75 165.359 165.369 172.744 156.262 172.75L156.266 178.75L156.27 184.75C172 184.739 184.75 171.984 184.75 156.25H178.75ZM156.266 178.75V172.75H43.7344V178.75V184.75H156.266V178.75ZM43.7344 178.75L43.7385 172.75C34.6311 172.744 27.25 165.359 27.25 156.25H21.25H15.25C15.25 171.983 27.9992 184.739 43.7303 184.75L43.7344 178.75ZM21.25 156.25H27.25V43.75H21.25H15.25V156.25H21.25ZM21.25 43.75H27.25C27.25 34.6373 34.6373 27.25 43.75 27.25V21.25V15.25C28.0099 15.25 15.25 28.0099 15.25 43.75H21.25ZM43.75 21.25V27.25H156.25V21.25V15.25H43.75V21.25Z" fill="white" mask="url(#path-1-outside-1_1062_26088)"/>
<path d="M21.25 43.75C21.25 31.3236 31.3236 21.25 43.75 21.25H156.25C168.676 21.25 178.75 31.3236 178.75 43.75V130.938H21.25V43.75Z" fill="#FFCA79"/>
<path d="M100 139.375C123.299 139.375 142.188 120.487 142.188 97.1875C142.188 73.8882 123.299 55 100 55C76.7007 55 57.8125 73.8882 57.8125 97.1875C57.8125 120.487 76.7007 139.375 100 139.375Z" fill="#FC8E3F"/>
<path d="M100 49C126.613 49 148.188 70.5745 148.188 97.1875C148.188 123.801 126.613 145.375 100 145.375C73.387 145.375 51.8125 123.801 51.8125 97.1875C51.8125 70.5745 73.387 49 100 49Z" stroke="#FC8E3F" stroke-opacity="0.4" stroke-width="12"/>
<path d="M108.26 100.961C107.995 104.49 103.225 109.672 99.427 109.425C95.6288 109.178 91.6872 103.427 91.9562 99.8974C92.2218 96.3679 94.9251 93.6678 100.593 94.0362C106.326 94.411 108.529 97.4314 108.26 100.961Z" fill="#FFB47F"/>
<path d="M75.704 103.408C80.5111 103.408 84.408 99.5111 84.408 94.704C84.408 89.8969 80.5111 86 75.704 86C70.8969 86 67 89.8969 67 94.704C67 99.5111 70.8969 103.408 75.704 103.408Z" fill="white"/>
<path d="M75.5698 99.9849C78.4517 99.9849 80.788 97.6486 80.788 94.7667C80.788 91.8847 78.4517 89.5485 75.5698 89.5485C72.6878 89.5485 70.3516 91.8847 70.3516 94.7667C70.3516 97.6486 72.6878 99.9849 75.5698 99.9849Z" fill="black"/>
<path d="M125.204 103.408C130.011 103.408 133.908 99.5111 133.908 94.704C133.908 89.8969 130.011 86 125.204 86C120.397 86 116.5 89.8969 116.5 94.704C116.5 99.5111 120.397 103.408 125.204 103.408Z" fill="white"/>
<path d="M125.07 99.9849C127.952 99.9849 130.288 97.6486 130.288 94.7667C130.288 91.8847 127.952 89.5485 125.07 89.5485C122.188 89.5485 119.852 91.8847 119.852 94.7667C119.852 97.6486 122.188 99.9849 125.07 99.9849Z" fill="black"/>
<path d="M43.7343 178.75C31.3151 178.742 21.25 168.671 21.25 156.25V125.312C23.3594 123.906 25.4688 122.5 29.6875 122.5C33.9062 122.5 36.0156 123.906 38.125 125.312C40.2344 126.718 42.3438 128.124 46.5625 128.124C50.7812 128.124 52.8906 126.718 55 125.312C57.1094 123.906 59.2188 122.5 63.4375 122.5C67.6562 122.5 70.4688 123.906 73.2812 125.312C76.0938 126.719 78.9062 128.125 83.125 128.125C87.3438 128.125 89.4531 126.719 91.5625 125.312C93.6719 123.906 95.7812 122.5 100 122.5C104.219 122.5 106.328 123.906 108.438 125.312C110.547 126.719 112.656 128.125 116.875 128.125C121.094 128.125 123.906 126.719 126.719 125.312C129.531 123.906 132.344 122.5 136.562 122.5C140.781 122.5 142.891 123.906 145 125.312C147.109 126.719 149.219 128.125 153.438 128.125C157.656 128.125 159.766 126.719 161.875 125.312C163.984 123.906 166.094 122.5 170.312 122.5C174.531 122.5 176.641 123.906 178.75 125.312V156.25C178.75 168.671 168.685 178.742 156.266 178.75H156.25H43.75H43.7343Z" fill="#4B9AE8"/>
<path d="M57.8125 139.375C56.2592 139.375 55 140.634 55 142.188C55 143.741 56.2592 145 57.8125 145H142.188C143.741 145 145 143.741 145 142.188C145 140.634 143.741 139.375 142.188 139.375H57.8125Z" fill="#8EC7FF"/>
<path d="M80.3125 156.25C78.7594 156.25 77.5 157.509 77.5 159.062C77.5 160.616 78.7594 161.875 80.3125 161.875H119.688C121.241 161.875 122.5 160.616 122.5 159.062C122.5 157.509 121.241 156.25 119.688 156.25H80.3125Z" fill="#8EC7FF"/>
</svg>
