<svg width="200" height="200" viewBox="0 0 200 200" fill="none" xmlns="http://www.w3.org/2000/svg">
<mask id="path-1-outside-1_1062_19539" maskUnits="userSpaceOnUse" x="36.6982" y="26.344" width="134" height="152" fill="black">
<rect fill="white" x="36.6982" y="26.344" width="134" height="152"/>
<path d="M87.6465 33.5917C106.527 31.2716 123.815 45.4652 126.466 67.038C126.754 69.3867 126.648 74.1839 126.35 74.5302C127.121 74.8844 127.49 75.1181 127.49 75.1181C132.944 78.0911 137.724 81.9315 141.56 86.4589L158.571 99.7802C165.687 105.35 165.832 114.024 159.393 117.365C156.936 118.642 154.053 119.753 150.882 120.548C149.992 125.121 148.277 129.436 145.853 133.402C139.057 144.54 126.715 152.945 111.585 156.696V168.966C111.585 170.771 110.102 172.255 108.297 172.255H96.8496C94.4525 172.255 92.4932 170.295 92.4931 167.898C92.4931 166.7 92.985 165.616 93.7763 164.817C94.5677 164.026 95.6511 163.542 96.8496 163.542L104.786 165.186V158.037C104.754 158.042 104.722 158.048 104.69 158.053C104.12 158.138 103.541 158.217 102.962 158.288C102.382 158.359 101.803 158.43 101.228 158.477C93.0698 159.287 85.2039 158.698 78.0459 156.874L74.0908 168.787C73.5218 170.501 71.6471 171.441 69.9336 170.872L59.0693 167.265C56.7944 166.509 55.5521 164.032 56.3076 161.757C56.6853 160.619 57.4934 159.746 58.4961 159.237C59.4965 158.736 60.6779 158.618 61.8154 158.996L68.8291 163.058L71.5674 154.81C65.3008 152.388 59.7712 148.922 55.3232 144.542C55.3231 144.541 55.3228 144.54 55.3222 144.535C49.2016 138.506 45.1275 130.74 44.0039 121.597C42.2403 107.245 48.2213 93.4892 59.0429 83.5361C59.0371 83.4867 58.5822 79.6474 58.2617 76.9784C56.5289 76.8076 54.6776 76.294 53.0947 75.538C53.0883 75.5351 53.0815 75.5331 53.0752 75.5302L53.0761 75.5292C51.0748 74.5698 49.5063 73.2248 49.1582 71.7001C48.3545 68.1839 53.8248 62.6817 57.9511 61.7411C58.1651 61.692 58.3785 61.6498 58.5908 61.6142C61.6883 46.6041 72.9981 35.3918 87.6465 33.5917Z"/>
</mask>
<path d="M87.6465 33.5917C106.527 31.2716 123.815 45.4652 126.466 67.038C126.754 69.3867 126.648 74.1839 126.35 74.5302C127.121 74.8844 127.49 75.1181 127.49 75.1181C132.944 78.0911 137.724 81.9315 141.56 86.4589L158.571 99.7802C165.687 105.35 165.832 114.024 159.393 117.365C156.936 118.642 154.053 119.753 150.882 120.548C149.992 125.121 148.277 129.436 145.853 133.402C139.057 144.54 126.715 152.945 111.585 156.696V168.966C111.585 170.771 110.102 172.255 108.297 172.255H96.8496C94.4525 172.255 92.4932 170.295 92.4931 167.898C92.4931 166.7 92.985 165.616 93.7763 164.817C94.5677 164.026 95.6511 163.542 96.8496 163.542L104.786 165.186V158.037C104.754 158.042 104.722 158.048 104.69 158.053C104.12 158.138 103.541 158.217 102.962 158.288C102.382 158.359 101.803 158.43 101.228 158.477C93.0698 159.287 85.2039 158.698 78.0459 156.874L74.0908 168.787C73.5218 170.501 71.6471 171.441 69.9336 170.872L59.0693 167.265C56.7944 166.509 55.5521 164.032 56.3076 161.757C56.6853 160.619 57.4934 159.746 58.4961 159.237C59.4965 158.736 60.6779 158.618 61.8154 158.996L68.8291 163.058L71.5674 154.81C65.3008 152.388 59.7712 148.922 55.3232 144.542C55.3231 144.541 55.3228 144.54 55.3222 144.535C49.2016 138.506 45.1275 130.74 44.0039 121.597C42.2403 107.245 48.2213 93.4892 59.0429 83.5361C59.0371 83.4867 58.5822 79.6474 58.2617 76.9784C56.5289 76.8076 54.6776 76.294 53.0947 75.538C53.0883 75.5351 53.0815 75.5331 53.0752 75.5302L53.0761 75.5292C51.0748 74.5698 49.5063 73.2248 49.1582 71.7001C48.3545 68.1839 53.8248 62.6817 57.9511 61.7411C58.1651 61.692 58.3785 61.6498 58.5908 61.6142C61.6883 46.6041 72.9981 35.3918 87.6465 33.5917Z" fill="#040000"/>
<path d="M87.6465 33.5917L86.9147 27.6365L86.9146 27.6365L87.6465 33.5917ZM126.466 67.038L132.421 66.3062L132.421 66.3062L126.466 67.038ZM126.35 74.5302L121.802 70.616C120.573 72.0444 120.086 73.9675 120.487 75.8089C120.889 77.6503 122.133 79.1959 123.845 79.9826L126.35 74.5302ZM127.49 75.1181L124.283 80.189C124.393 80.2583 124.505 80.3241 124.619 80.3862L127.49 75.1181ZM141.56 86.4589L136.981 90.337C137.245 90.6481 137.539 90.9315 137.86 91.1829L141.56 86.4589ZM158.571 99.7802L154.872 104.504L154.873 104.505L158.571 99.7802ZM159.393 117.365L156.629 112.039L156.626 112.041L159.393 117.365ZM150.882 120.548L149.424 114.728C147.164 115.294 145.437 117.116 144.992 119.402L150.882 120.548ZM145.853 133.402L140.733 130.274L140.732 130.277L145.853 133.402ZM111.585 156.696L110.141 150.873C107.464 151.536 105.585 153.939 105.585 156.696H111.585ZM92.4931 167.898L86.4931 167.898L86.4931 167.899L92.4931 167.898ZM93.7763 164.817L89.5339 160.574C89.527 160.581 89.5201 160.588 89.5132 160.595L93.7763 164.817ZM96.8496 163.542L98.067 157.667C97.6665 157.584 97.2586 157.542 96.8496 157.542V163.542ZM104.786 165.186L103.569 171.062C105.336 171.428 107.174 170.979 108.574 169.84C109.974 168.7 110.786 166.991 110.786 165.186H104.786ZM104.786 158.037H110.786C110.786 156.292 110.027 154.634 108.706 153.494C107.385 152.355 105.634 151.846 103.908 152.102L104.786 158.037ZM104.69 158.053L103.82 152.116C103.813 152.117 103.807 152.118 103.8 152.119L104.69 158.053ZM102.962 158.288L102.23 152.333L102.962 158.288ZM101.228 158.477L100.735 152.498C100.702 152.501 100.669 152.504 100.636 152.507L101.228 158.477ZM78.0459 156.874L79.5278 151.06C76.4768 150.282 73.3436 151.995 72.3515 154.983L78.0459 156.874ZM74.0908 168.787L79.785 170.678L79.7852 170.678L74.0908 168.787ZM69.9336 170.872L71.8245 165.178L71.8243 165.178L69.9336 170.872ZM59.0693 167.265L57.1784 172.959L57.1785 172.959L59.0693 167.265ZM56.3076 161.757L50.6134 159.866L50.6133 159.866L56.3076 161.757ZM58.4961 159.237L55.8067 153.874C55.7979 153.878 55.7892 153.883 55.7804 153.887L58.4961 159.237ZM61.8154 158.996L64.8222 153.804C64.4683 153.599 64.0944 153.431 63.7063 153.302L61.8154 158.996ZM68.8291 163.058L65.8223 168.25C67.3842 169.154 69.2702 169.308 70.9576 168.667C72.6451 168.027 73.9547 166.661 74.5234 164.948L68.8291 163.058ZM71.5674 154.81L77.2617 156.701C78.2704 153.663 76.7164 150.368 73.7305 149.214L71.5674 154.81ZM55.3232 144.542L49.368 145.274C49.5332 146.618 50.1483 147.867 51.1133 148.817L55.3232 144.542ZM55.3222 144.535L61.2774 143.803C61.1123 142.459 60.4974 141.211 59.5327 140.26L55.3222 144.535ZM44.0039 121.597L38.0487 122.328L38.0487 122.328L44.0039 121.597ZM59.0429 83.5361L63.1047 87.9522C64.5209 86.6496 65.2265 84.7469 65.0019 82.8359L59.0429 83.5361ZM58.2617 76.9784L64.2189 76.263C63.8833 73.469 61.6511 71.2836 58.8506 71.0074L58.2617 76.9784ZM53.0947 75.538L55.6804 70.1238C55.6462 70.1074 55.6119 70.0914 55.5774 70.0758L53.0947 75.538ZM53.0752 75.5302L48.8325 71.2876C47.4419 72.6782 46.821 74.6621 47.1708 76.5974C47.5206 78.5327 48.7967 80.1737 50.5861 80.9896L53.0752 75.5302ZM53.0761 75.5292L57.3188 79.7719C58.695 78.3957 59.3182 76.4374 58.9905 74.519C58.6628 72.6005 57.4249 70.9602 55.6699 70.1188L53.0761 75.5292ZM49.1582 71.7001L55.0076 70.3645L55.0073 70.3633L49.1582 71.7001ZM57.9511 61.7411L59.2846 67.5911L59.295 67.5887L57.9511 61.7411ZM58.5908 61.6142L59.5841 67.5314C62.0267 67.1214 63.9664 65.2525 64.467 62.8268L58.5908 61.6142ZM87.6465 33.5917L88.3782 39.5469C103.521 37.6862 118.206 49.0181 120.511 67.7699L126.466 67.038L132.421 66.3062C129.423 41.9123 109.534 24.8571 86.9147 27.6365L87.6465 33.5917ZM126.466 67.038L120.511 67.7698C120.605 68.5341 120.655 69.9972 120.629 71.4262C120.616 72.1145 120.588 72.6687 120.557 73.0142C120.541 73.2018 120.533 73.2191 120.55 73.1261C120.557 73.0873 120.592 72.8954 120.676 72.627C120.718 72.4902 120.799 72.2528 120.932 71.9648C121.048 71.7139 121.313 71.1847 121.802 70.616L126.35 74.5302L130.897 78.4444C131.771 77.4294 132.079 76.3684 132.131 76.2026C132.249 75.8248 132.316 75.492 132.354 75.2843C132.433 74.8535 132.48 74.4208 132.511 74.0733C132.575 73.3486 132.611 72.4917 132.627 71.6439C132.657 70.0005 132.616 67.8907 132.421 66.3062L126.466 67.038ZM126.35 74.5302L123.845 79.9826C124.106 80.1024 124.27 80.1886 124.342 80.2274C124.377 80.2469 124.39 80.2545 124.38 80.2486C124.375 80.2457 124.364 80.2394 124.348 80.2295C124.34 80.2246 124.331 80.2188 124.32 80.212C124.314 80.2086 124.309 80.205 124.302 80.2012C124.299 80.1993 124.296 80.1973 124.293 80.1952C124.291 80.1942 124.29 80.1932 124.288 80.1921C124.287 80.1916 124.286 80.1911 124.286 80.1906C124.285 80.1903 124.284 80.1899 124.284 80.1898C124.284 80.1894 124.283 80.189 127.49 75.1181C130.697 70.0472 130.697 70.0468 130.696 70.0464C130.696 70.0463 130.695 70.0459 130.695 70.0456C130.694 70.0451 130.693 70.0445 130.692 70.044C130.691 70.0429 130.689 70.0417 130.687 70.0406C130.683 70.0383 130.68 70.036 130.676 70.0336C130.668 70.0289 130.66 70.0239 130.652 70.0188C130.635 70.0084 130.617 69.9972 130.597 69.9852C130.558 69.9611 130.513 69.9338 130.461 69.9034C130.357 69.8427 130.23 69.7698 130.076 69.6865C129.77 69.5199 129.364 69.3122 128.854 69.0778L126.35 74.5302ZM127.49 75.1181L124.619 80.3862C129.463 83.027 133.653 86.408 136.981 90.337L141.56 86.4589L146.138 82.5808C141.796 77.455 136.426 73.1553 130.362 69.8499L127.49 75.1181ZM141.56 86.4589L137.86 91.1829L154.872 104.504L158.571 99.7802L162.27 95.0562L145.259 81.7349L141.56 86.4589ZM158.571 99.7802L154.873 104.505C157.286 106.394 158.024 108.404 158.069 109.629C158.108 110.686 157.709 111.479 156.629 112.039L159.393 117.365L162.156 122.691C167.516 119.91 170.264 114.696 170.061 109.188C169.865 103.848 166.972 98.7363 162.269 95.0553L158.571 99.7802ZM159.393 117.365L156.626 112.041C154.599 113.094 152.157 114.043 149.424 114.728L150.882 120.548L152.34 126.368C155.95 125.463 159.274 124.189 162.159 122.689L159.393 117.365ZM150.882 120.548L144.992 119.402C144.245 123.242 142.801 126.89 140.733 130.274L145.853 133.402L150.974 136.53C153.752 131.983 155.739 126.999 156.771 121.693L150.882 120.548ZM145.853 133.402L140.732 130.277C134.912 139.814 124.051 147.423 110.141 150.873L111.585 156.696L113.029 162.52C129.379 158.466 143.202 149.266 150.975 136.528L145.853 133.402ZM111.585 156.696H105.585V168.966H111.585H117.585V156.696H111.585ZM111.585 168.966H105.585C105.585 167.46 106.786 166.255 108.297 166.255V172.255V178.255C113.418 178.255 117.585 174.083 117.585 168.966H111.585ZM108.297 172.255V166.255H96.8496V172.255V178.255H108.297V172.255ZM96.8496 172.255V166.255C97.7665 166.255 98.4931 166.982 98.4931 167.898L92.4931 167.898L86.4931 167.899C86.4934 173.609 91.1386 178.255 96.8496 178.255V172.255ZM92.4931 167.898H98.4931C98.4931 168.389 98.2827 168.794 98.0394 169.039L93.7763 164.817L89.5132 160.595C87.6873 162.439 86.4931 165.011 86.4931 167.898H92.4931ZM93.7763 164.817L98.0188 169.06C97.7328 169.346 97.3088 169.542 96.8496 169.542V163.542V157.542C93.9934 157.542 91.4025 158.706 89.5339 160.574L93.7763 164.817ZM96.8496 163.542L95.6322 169.417L103.569 171.062L104.786 165.186L106.004 159.311L98.067 157.667L96.8496 163.542ZM104.786 165.186H110.786V158.037H104.786H98.7861V165.186H104.786ZM104.786 158.037L103.908 152.102C103.855 152.109 103.811 152.117 103.782 152.121C103.755 152.126 103.73 152.13 103.725 152.131C103.715 152.133 103.725 152.131 103.738 152.129C103.753 152.126 103.782 152.122 103.82 152.116L104.69 158.053L105.561 163.989C105.615 163.981 105.66 163.974 105.691 163.969C105.72 163.964 105.745 163.96 105.751 163.959C105.763 163.957 105.754 163.958 105.742 163.96C105.729 163.962 105.701 163.967 105.664 163.972L104.786 158.037ZM104.69 158.053L103.8 152.119C103.286 152.196 102.76 152.268 102.23 152.333L102.962 158.288L103.694 164.243C104.323 164.166 104.955 164.08 105.581 163.986L104.69 158.053ZM102.962 158.288L102.23 152.333C101.633 152.406 101.171 152.462 100.735 152.498L101.228 158.477L101.722 164.457C102.435 164.398 103.132 164.312 103.694 164.243L102.962 158.288ZM101.228 158.477L100.636 152.507C93.133 153.252 85.9713 152.702 79.5278 151.06L78.0459 156.874L76.5639 162.688C84.4365 164.695 93.0066 165.323 101.821 164.448L101.228 158.477ZM78.0459 156.874L72.3515 154.983L68.3964 166.897L74.0908 168.787L79.7852 170.678L83.7402 158.764L78.0459 156.874ZM74.0908 168.787L68.3965 166.896C68.8714 165.466 70.3919 164.702 71.8245 165.178L69.9336 170.872L68.0427 176.566C72.9023 178.18 78.1721 175.535 79.785 170.678L74.0908 168.787ZM69.9336 170.872L71.8243 165.178L60.9601 161.57L59.0693 167.265L57.1785 172.959L68.0428 176.566L69.9336 170.872ZM59.0693 167.265L60.9602 161.57C61.8301 161.859 62.2907 162.778 62.0018 163.648L56.3076 161.757L50.6133 159.866C48.8136 165.286 51.7586 171.159 57.1784 172.959L59.0693 167.265ZM56.3076 161.757L62.0018 163.648C61.8474 164.113 61.5204 164.431 61.2117 164.588L58.4961 159.237L55.7804 153.887C53.4664 155.061 51.5232 157.126 50.6134 159.866L56.3076 161.757ZM58.4961 159.237L61.1854 164.601C60.8212 164.783 60.3575 164.834 59.9245 164.69L61.8154 158.996L63.7063 153.302C60.9983 152.403 58.1718 152.688 55.8067 153.874L58.4961 159.237ZM61.8154 158.996L58.8086 164.188L65.8223 168.25L68.8291 163.058L71.8358 157.865L64.8222 153.804L61.8154 158.996ZM68.8291 163.058L74.5234 164.948L77.2617 156.701L71.5674 154.81L65.873 152.92L63.1347 161.167L68.8291 163.058ZM71.5674 154.81L73.7305 149.214C68.1472 147.056 63.3367 144.012 59.5331 140.267L55.3232 144.542L51.1133 148.817C56.2056 153.832 62.4543 157.721 69.4042 160.407L71.5674 154.81ZM55.3232 144.542L61.2784 143.81C61.2751 143.783 61.272 143.76 61.2693 143.739C61.2666 143.719 61.2641 143.701 61.2619 143.686C61.2597 143.671 61.2578 143.658 61.2561 143.647C61.2544 143.636 61.2529 143.626 61.2517 143.618C61.2504 143.61 61.2494 143.603 61.2485 143.598C61.2476 143.592 61.2469 143.588 61.2463 143.584C61.2453 143.578 61.2445 143.573 61.2443 143.572C61.2443 143.572 61.2441 143.571 61.2443 143.572C61.2443 143.572 61.2444 143.573 61.2446 143.574C61.245 143.576 61.2456 143.58 61.2464 143.585C61.2479 143.594 61.2499 143.607 61.2521 143.621C61.2543 143.635 61.2566 143.65 61.2589 143.666C61.2612 143.682 61.2635 143.698 61.2657 143.713C61.2701 143.745 61.274 143.775 61.2774 143.803L55.3222 144.535L49.367 145.267C49.3708 145.297 49.3749 145.329 49.3796 145.363C49.3819 145.379 49.3842 145.396 49.3866 145.412C49.3891 145.429 49.3914 145.444 49.3937 145.459C49.396 145.474 49.3981 145.487 49.3997 145.497C49.4005 145.502 49.4011 145.506 49.4015 145.508C49.4017 145.509 49.4019 145.51 49.4019 145.511C49.4021 145.511 49.4019 145.51 49.4019 145.51C49.4018 145.51 49.401 145.505 49.4 145.499C49.3994 145.495 49.3987 145.491 49.3978 145.485C49.397 145.48 49.3959 145.473 49.3947 145.465C49.3934 145.457 49.3919 145.448 49.3903 145.437C49.3886 145.426 49.3867 145.412 49.3845 145.397C49.3823 145.382 49.3798 145.364 49.3771 145.344C49.3744 145.324 49.3713 145.3 49.368 145.274L55.3232 144.542ZM55.3222 144.535L59.5327 140.26C54.3337 135.14 50.9103 128.605 49.9591 120.865L44.0039 121.597L38.0487 122.328C39.3447 132.874 44.0695 141.873 51.1118 148.81L55.3222 144.535ZM44.0039 121.597L49.9591 120.865C48.4665 108.719 53.4826 96.802 63.1047 87.9522L59.0429 83.5361L54.9812 79.1199C42.96 90.1763 36.0141 105.772 38.0487 122.328L44.0039 121.597ZM59.0429 83.5361L65.0019 82.8359C64.9955 82.7807 64.5399 78.9362 64.2189 76.263L58.2617 76.9784L52.3045 77.6939C52.4643 79.0248 52.6579 80.649 52.8123 81.948C52.8895 82.5972 52.9569 83.1646 53.0053 83.5728C53.0295 83.7768 53.049 83.9411 53.0625 84.0557C53.0693 84.1131 53.0747 84.158 53.0784 84.1893C53.0824 84.223 53.084 84.2367 53.0839 84.2363L59.0429 83.5361ZM58.2617 76.9784L58.8506 71.0074C57.8075 70.9045 56.6322 70.5783 55.6804 70.1238L53.0947 75.538L50.509 80.9523C52.7229 82.0096 55.2503 82.7106 57.6728 82.9495L58.2617 76.9784ZM53.0947 75.538L55.5774 70.0758C55.5131 70.0466 55.4556 70.0218 55.407 70.0014C55.3585 69.9812 55.3167 69.9644 55.2842 69.9516C55.252 69.939 55.2257 69.929 55.2097 69.9229C55.2015 69.9198 55.1947 69.9173 55.1906 69.9157C55.1885 69.9149 55.1867 69.9143 55.1856 69.9139C55.1851 69.9137 55.1846 69.9135 55.1843 69.9134C55.184 69.9133 55.1837 69.9132 55.1837 69.9132C55.183 69.9129 55.1857 69.9139 55.189 69.9151C55.1926 69.9165 55.1987 69.9188 55.2064 69.9217C55.2214 69.9274 55.2465 69.9369 55.2776 69.9492C55.309 69.9616 55.3498 69.9779 55.3972 69.9978C55.4447 70.0177 55.5011 70.0421 55.5642 70.0708L53.0752 75.5302L50.5861 80.9896C50.6508 81.0191 50.7088 81.0441 50.758 81.0647C50.807 81.0853 50.8493 81.1023 50.8824 81.1153C50.9151 81.1282 50.9419 81.1384 50.9585 81.1447C50.967 81.1479 50.974 81.1505 50.9784 81.1522C50.9826 81.1537 50.9861 81.155 50.9862 81.1551C50.9873 81.1555 50.9847 81.1545 50.9817 81.1534C50.9784 81.1522 50.9725 81.15 50.9651 81.1472C50.9507 81.1417 50.9261 81.1323 50.8955 81.1203C50.8647 81.1082 50.8244 81.0921 50.7776 81.0725C50.7306 81.0528 50.6747 81.0288 50.612 81.0003L53.0947 75.538ZM53.0752 75.5302L57.3178 79.7728L57.3188 79.7719L53.0761 75.5292L48.8335 71.2866L48.8325 71.2876L53.0752 75.5302ZM53.0761 75.5292L55.6699 70.1188C55.3833 69.9814 55.1469 69.8466 54.9611 69.7247C54.7731 69.6012 54.6634 69.5084 54.6137 69.4615C54.5619 69.4127 54.6076 69.4444 54.691 69.5748C54.7772 69.7098 54.9186 69.9745 55.0076 70.3645L49.1582 71.7001L43.3087 73.0357C43.8317 75.3261 45.1535 77.0344 46.3807 78.1917C47.6309 79.3708 49.0843 80.2694 50.4824 80.9396L53.0761 75.5292ZM49.1582 71.7001L55.0073 70.3633C55.2066 71.2349 54.9138 71.6315 55.0782 71.2686C55.2132 70.9706 55.5379 70.4498 56.116 69.8231C56.6775 69.2144 57.3425 68.6537 57.9956 68.2288C58.6812 67.7827 59.1403 67.624 59.2846 67.5911L57.9511 61.7411L56.6177 55.8912C52.9842 56.7194 49.5813 59.209 47.2958 61.6864C46.091 62.9924 44.941 64.5652 44.1473 66.3172C43.3831 68.0043 42.708 70.4072 43.309 73.037L49.1582 71.7001ZM57.9511 61.7411L59.295 67.5887C59.3896 67.567 59.486 67.5479 59.5841 67.5314L58.5908 61.6142L57.5975 55.697C57.2709 55.7518 56.9406 55.817 56.6072 55.8936L57.9511 61.7411ZM58.5908 61.6142L64.467 62.8268C67.0978 50.0779 76.5378 41.002 88.3783 39.5469L87.6465 33.5917L86.9146 27.6365C69.4585 29.7816 56.2787 43.1303 52.7146 60.4016L58.5908 61.6142Z" fill="white" mask="url(#path-1-outside-1_1062_19539)"/>
<path d="M158.572 99.7803L109.887 61.6558C109.887 61.6558 90.4887 93.3041 116.061 113.326C131.234 125.204 149.076 122.726 159.393 117.365C165.832 114.024 165.687 105.35 158.572 99.7803Z" fill="#21587B"/>
<path d="M111.585 132.925V168.966C111.585 170.771 110.103 172.254 108.297 172.254H96.8494C94.4523 172.254 92.4932 170.295 92.4932 167.898C92.4932 166.699 92.9849 165.616 93.7762 164.817C94.5676 164.026 95.6509 163.542 96.8494 163.542L104.786 165.186V132.925C104.786 131.119 106.269 129.636 108.074 129.636H108.297C110.103 129.636 111.585 131.119 111.585 132.925Z" fill="#404040"/>
<path d="M85.4493 134.583L74.091 168.788C73.522 170.501 71.6474 171.441 69.9339 170.872L59.0695 167.264C56.7946 166.509 55.5527 164.032 56.3081 161.757C56.6858 160.62 57.4939 159.747 58.4968 159.238C59.4972 158.736 60.6778 158.618 61.8153 158.996L68.8293 163.057L78.9963 132.44C79.5653 130.727 81.4399 129.787 83.1534 130.356L83.3648 130.426C85.0783 130.995 86.0183 132.87 85.4493 134.583Z" fill="#404040"/>
<path d="M151.281 108.406C152.405 117.549 150.332 126.071 145.853 133.402C138.051 146.189 122.939 155.376 104.69 158.053C104.12 158.138 103.542 158.217 102.962 158.288C102.383 158.359 101.803 158.431 101.228 158.478C82.8666 160.301 65.9882 155.044 55.3235 144.542C55.3235 144.542 55.3235 144.542 55.3226 144.535C49.2018 138.506 45.1279 130.74 44.0043 121.596C42.2407 107.245 48.2216 93.4898 59.0432 83.5368C59.0432 83.5368 58.3681 77.7909 58.0794 75.4422C55.4284 53.8692 68.7654 35.9126 87.6465 33.5924C106.528 31.2722 123.815 45.4654 126.466 67.0384C126.755 69.3871 126.648 74.1841 126.35 74.5303C127.121 74.8846 127.49 75.1178 127.49 75.1178C140.4 82.1547 149.533 94.0524 151.297 108.412L151.281 108.406Z" fill="#4B9AE8"/>
<path d="M61.4094 76.8439C57.284 77.7921 49.9629 75.2238 49.1584 71.7C48.3547 68.1838 53.8247 62.6813 57.9511 61.7408C62.0766 60.7926 65.9577 62.3283 67.1598 67.5759C68.3772 72.8836 65.5425 75.8947 61.4171 76.8429L61.4094 76.8439Z" fill="#EAC00F"/>
<path d="M108.432 86.3916L138.689 106.196C146.076 111.029 147.569 120.234 141.616 124.384C132.328 130.864 117.928 136.681 102.752 126.745C90.0719 118.445 86.6001 105.539 86.3508 94.549C86.1125 84.2296 98.2854 79.7471 108.424 86.391L108.432 86.3916Z" fill="#276288"/>
<path opacity="0.5" d="M64.4296 62.857C64.4296 62.857 64.2954 65.0409 63.9892 67.4627C63.6598 70.0731 62.0033 72.0261 60.294 72.7935C58.0724 73.8019 56.5774 74.6126 53.0753 75.5306C56.1914 76.9513 59.3069 77.2961 61.411 76.844C65.8757 75.8851 67.3923 72.9198 67.4351 70.2439C67.5175 64.9933 64.4296 62.857 64.4296 62.857Z" fill="#B5950D"/>
<path d="M80.5043 69.8227C84.661 69.3119 87.6167 65.5281 87.1059 61.3713C86.5951 57.2145 82.8112 54.2589 78.6545 54.7697C74.4977 55.2805 71.542 59.0643 72.0528 63.2211C72.5636 67.3779 76.3475 70.3335 80.5043 69.8227Z" fill="white"/>
<path d="M79.0731 67.3071C81.2884 67.0349 82.8635 65.0184 82.5913 62.8031C82.319 60.5878 80.3025 59.0127 78.0873 59.2849C75.872 59.5571 74.2969 61.5737 74.5691 63.7889C74.8413 66.0042 76.8578 67.5793 79.0731 67.3071Z" fill="#040000"/>
</svg>
