<svg width="200" height="200" viewBox="0 0 200 200" fill="none" xmlns="http://www.w3.org/2000/svg">
<mask id="path-1-outside-1_1062_25033" maskUnits="userSpaceOnUse" x="10" y="25" width="181" height="150" fill="black">
<rect fill="white" x="10" y="25" width="181" height="150"/>
<path d="M84.1191 31C93.784 31 101.619 39.5993 101.619 50.207C101.619 50.59 101.615 50.9628 101.608 51.3252C103.795 52.1931 105.902 53.2174 107.915 54.3877H136.637C163.331 54.3878 184.964 76.0207 184.964 102.715C184.964 115.921 179.667 127.886 171.084 136.608C165.818 154.914 148.949 168.274 128.922 168.274H73.002C53.503 168.274 36.9361 155.545 31.2139 137.914C21.8487 129.101 16 116.593 16 102.715C16.0001 77.4699 35.3474 56.7514 60.0264 54.5762C62.132 53.3312 64.3424 52.2444 66.6416 51.332C66.6268 50.9675 66.6191 50.5924 66.6191 50.207C66.6193 39.5993 74.4542 31 84.1191 31ZM40.2852 77.3633C33.5695 83.7347 29.377 92.7409 29.377 102.715C29.377 104.163 29.4671 105.59 29.6387 106.992H29.6445C29.4729 105.59 29.3828 104.163 29.3828 102.715C29.3828 92.7449 33.5713 83.7412 40.2822 77.3701C40.2832 77.3678 40.2842 77.3656 40.2852 77.3633Z"/>
</mask>
<path d="M84.1191 31C93.784 31 101.619 39.5993 101.619 50.207C101.619 50.59 101.615 50.9628 101.608 51.3252C103.795 52.1931 105.902 53.2174 107.915 54.3877H136.637C163.331 54.3878 184.964 76.0207 184.964 102.715C184.964 115.921 179.667 127.886 171.084 136.608C165.818 154.914 148.949 168.274 128.922 168.274H73.002C53.503 168.274 36.9361 155.545 31.2139 137.914C21.8487 129.101 16 116.593 16 102.715C16.0001 77.4699 35.3474 56.7514 60.0264 54.5762C62.132 53.3312 64.3424 52.2444 66.6416 51.332C66.6268 50.9675 66.6191 50.5924 66.6191 50.207C66.6193 39.5993 74.4542 31 84.1191 31ZM40.2852 77.3633C33.5695 83.7347 29.377 92.7409 29.377 102.715C29.377 104.163 29.4671 105.59 29.6387 106.992H29.6445C29.4729 105.59 29.3828 104.163 29.3828 102.715C29.3828 92.7449 33.5713 83.7412 40.2822 77.3701C40.2832 77.3678 40.2842 77.3656 40.2852 77.3633Z" fill="#00D26A"/>
<path d="M84.1191 31L84.1191 25L84.1191 25L84.1191 31ZM101.619 50.207L107.619 50.207L107.619 50.207L101.619 50.207ZM101.608 51.3252L95.6094 51.217C95.5643 53.7153 97.0723 55.98 99.3946 56.9019L101.608 51.3252ZM107.915 54.3877L104.899 59.5746C105.815 60.1071 106.856 60.3877 107.915 60.3877V54.3877ZM136.637 54.3877L136.637 48.3877H136.637V54.3877ZM184.964 102.715L190.964 102.715L190.964 102.715L184.964 102.715ZM171.084 136.608L166.807 132.4C166.106 133.113 165.594 133.989 165.318 134.95L171.084 136.608ZM128.922 168.274L128.922 174.274L128.922 174.274L128.922 168.274ZM73.002 168.274L73.0019 174.274H73.002V168.274ZM31.2139 137.914L36.9208 136.062C36.6093 135.102 36.0607 134.236 35.3258 133.545L31.2139 137.914ZM16 102.715L10 102.715V102.715H16ZM60.0264 54.5762L60.5532 60.553C61.4455 60.4743 62.309 60.1969 63.0801 59.7409L60.0264 54.5762ZM66.6416 51.332L68.8547 56.909C71.2233 55.969 72.7398 53.6355 72.6367 51.0892L66.6416 51.332ZM66.6191 50.207L60.6191 50.207V50.207H66.6191ZM40.2852 77.3633L45.8345 79.6448C46.9105 77.0275 46.0115 74.0142 43.6774 72.4142C41.3432 70.8143 38.2085 71.0629 36.1555 73.0106L40.2852 77.3633ZM29.377 102.715L23.377 102.715V102.715H29.377ZM29.6387 106.992L23.6831 107.721C24.0514 110.73 26.6068 112.992 29.6387 112.992V106.992ZM29.6445 106.992V112.992C31.3628 112.992 32.9987 112.255 34.1375 110.969C35.2763 109.682 35.8088 107.969 35.6001 106.263L29.6445 106.992ZM29.3828 102.715L23.3828 102.715L23.3828 102.715L29.3828 102.715ZM40.2822 77.3701L44.4132 81.7215C45.0268 81.139 45.5103 80.4333 45.8319 79.6507L40.2822 77.3701ZM84.1191 31V37C89.9569 37 95.619 42.3751 95.6191 50.2071L101.619 50.207L107.619 50.207C107.619 36.8234 97.6111 25 84.1191 25V31ZM101.619 50.207H95.6191C95.6191 50.5463 95.6154 50.8821 95.6094 51.217L101.608 51.3252L107.607 51.4333C107.614 51.0435 107.619 50.6337 107.619 50.207H101.619ZM101.608 51.3252L99.3946 56.9019C101.305 57.6604 103.145 58.5545 104.899 59.5746L107.915 54.3877L110.931 49.2008C108.66 47.8803 106.284 46.7259 103.822 45.7485L101.608 51.3252ZM107.915 54.3877V60.3877H136.637V54.3877V48.3877H107.915V54.3877ZM136.637 54.3877L136.637 60.3877C160.017 60.3878 178.964 79.3344 178.964 102.715L184.964 102.715L190.964 102.715C190.964 72.707 166.645 48.3878 136.637 48.3877L136.637 54.3877ZM184.964 102.715H178.964C178.964 114.283 174.331 124.754 166.807 132.4L171.084 136.608L175.361 140.817C185.002 131.018 190.964 117.559 190.964 102.715H184.964ZM171.084 136.608L165.318 134.95C160.774 150.745 146.212 162.274 128.922 162.274L128.922 168.274L128.922 174.274C151.686 174.274 170.862 159.082 176.85 138.267L171.084 136.608ZM128.922 168.274V162.274H73.002V168.274V174.274H128.922V168.274ZM73.002 168.274L73.002 162.274C56.1774 162.274 41.8635 151.291 36.9208 136.062L31.2139 137.914L25.5069 139.766C32.0086 159.799 50.8286 174.274 73.0019 174.274L73.002 168.274ZM31.2139 137.914L35.3258 133.545C27.115 125.818 22 114.87 22 102.715H16H10C10 118.315 16.5824 132.384 27.1019 142.283L31.2139 137.914ZM16 102.715L22 102.715C22.0001 80.6067 38.9446 62.4576 60.5532 60.553L60.0264 54.5762L59.4996 48.5993C31.7503 51.0452 10.0001 74.3332 10 102.715L16 102.715ZM60.0264 54.5762L63.0801 59.7409C64.9189 58.6537 66.8484 57.7051 68.8547 56.909L66.6416 51.332L64.4285 45.7551C61.8363 46.7837 59.345 48.0087 56.9726 49.4114L60.0264 54.5762ZM66.6416 51.332L72.6367 51.0892C72.6252 50.8067 72.6191 50.5125 72.6191 50.207H66.6191H60.6191C60.6191 50.6723 60.6284 51.1283 60.6465 51.5748L66.6416 51.332ZM66.6191 50.207L72.6191 50.2071C72.6192 42.3751 78.2813 37 84.1191 37L84.1191 31L84.1191 25C70.6271 25 60.6193 36.8234 60.6191 50.207L66.6191 50.207ZM40.2852 77.3633L36.1555 73.0106C28.2984 80.465 23.377 91.0237 23.377 102.715L29.377 102.715L35.377 102.715C35.377 94.4581 38.8406 87.0044 44.4148 81.716L40.2852 77.3633ZM29.377 102.715H23.377C23.377 104.412 23.4827 106.083 23.6831 107.721L29.6387 106.992L35.5942 106.263C35.4516 105.097 35.377 103.913 35.377 102.715H29.377ZM29.6387 106.992V112.992H29.6445V106.992V100.992H29.6387V106.992ZM29.6445 106.992L35.6001 106.263C35.4574 105.097 35.3828 103.914 35.3828 102.715L29.3828 102.715L23.3828 102.715C23.3828 104.412 23.4885 106.083 23.689 107.721L29.6445 106.992ZM29.3828 102.715H35.3828C35.3828 94.4609 38.8433 87.0093 44.4132 81.7215L40.2822 77.3701L36.1512 73.0187C28.2992 80.473 23.3828 91.0288 23.3828 102.715H29.3828ZM40.2822 77.3701L45.8319 79.6507C45.8235 79.6711 45.816 79.6891 45.8096 79.7042C45.8033 79.7192 45.7978 79.7321 45.7935 79.742C45.7893 79.7518 45.7859 79.7596 45.7838 79.7643C45.782 79.7686 45.7804 79.7721 45.7808 79.7712C45.7808 79.7712 45.7809 79.7709 45.7811 79.7706C45.7812 79.7702 45.7815 79.7696 45.7818 79.769C45.7824 79.7676 45.7833 79.7655 45.7845 79.7628C45.7867 79.7577 45.7904 79.7493 45.7948 79.739C45.7993 79.7286 45.805 79.7153 45.8116 79.6997C45.8182 79.6841 45.8259 79.6656 45.8345 79.6448L40.2852 77.3633L34.7358 75.0818C34.7442 75.0615 34.7517 75.0436 34.758 75.0286C34.7644 75.0136 34.7698 75.0008 34.7741 74.991C34.7783 74.9813 34.7817 74.9735 34.7837 74.9689C34.7855 74.9647 34.787 74.9612 34.7866 74.9622C34.7866 74.9622 34.7861 74.9633 34.7855 74.9646C34.7849 74.9659 34.784 74.9681 34.7828 74.9708C34.7805 74.976 34.7769 74.9845 34.7724 74.9948C34.7679 75.0053 34.7621 75.0187 34.7555 75.0344C34.7489 75.05 34.7412 75.0686 34.7326 75.0895L40.2822 77.3701Z" fill="white" mask="url(#path-1-outside-1_1062_25033)"/>
<path d="M128.922 168.275H73.0024C48.7786 168.275 29.0742 148.631 29.0742 124.347V106.992H172.79V124.347C172.85 148.631 153.206 168.275 128.922 168.275Z" fill="#9B9B9B"/>
<path d="M136.637 67.7653C155.919 67.7653 171.586 83.4324 171.586 102.715C171.586 121.998 155.919 137.665 136.637 137.665H64.3269C45.0444 137.665 29.3773 121.998 29.3773 102.715C29.3773 83.4324 45.0444 67.7653 64.3269 67.7653H136.637ZM136.637 54.3881H64.3269C37.6326 54.3881 16 76.0207 16 102.715C16 129.409 37.6326 151.042 64.3269 151.042H136.637C163.331 151.042 184.963 129.409 184.963 102.715C184.963 76.0207 163.331 54.3881 136.637 54.3881Z" fill="#D3D3D3"/>
<path d="M136.642 67.7649C155.925 67.7649 171.592 83.432 171.592 102.715C171.592 121.997 155.925 137.664 136.642 137.664H64.3326C45.0499 137.664 29.3828 121.997 29.3828 102.715C29.3828 83.432 45.0499 67.7649 64.3326 67.7649H136.642Z" fill="#99441D"/>
<path d="M84.1539 48C62.8228 48 44.8057 62.0401 38.8401 81.3829C36.7311 88.3729 42.0338 95.3628 49.325 95.3628H118.923C126.214 95.3628 131.577 88.3126 129.408 81.3829C123.442 62.0401 105.425 48 84.1539 48Z" fill="#F4F4F4"/>
<path d="M101.619 50.2073C101.619 60.8152 99.2727 63.439 85.7203 63.439C72.1679 63.439 66.6191 60.8152 66.6191 50.2073C66.6191 39.5994 74.4542 31 84.1191 31C93.7841 31 101.619 39.5994 101.619 50.2073Z" fill="#4B9AE8"/>
<path d="M87.9067 47.3132C87.8036 48.84 85.7869 51.0719 84.1675 50.957C82.5481 50.8422 80.8526 48.3458 80.9557 46.819C81.0588 45.2922 82.2022 44.1294 84.6184 44.3016C87.0625 44.4752 88.0098 45.7864 87.9067 47.3132Z" fill="#E8BE0F"/>
<path d="M75.4606 47.2195C77.5822 47.2195 79.3021 45.4997 79.3021 43.3781C79.3021 41.2565 77.5822 39.5366 75.4606 39.5366C73.339 39.5366 71.6191 41.2565 71.6191 43.3781C71.6191 45.4997 73.339 47.2195 75.4606 47.2195Z" fill="white"/>
<path d="M75.4609 41.2539C76.6344 41.2541 77.5859 42.2054 77.5859 43.3789C77.5857 44.5522 76.6342 45.5037 75.4609 45.5039C74.2876 45.5038 73.3362 44.5522 73.3359 43.3789C73.3359 42.2053 74.2874 41.254 75.4609 41.2539Z" fill="black"/>
<path d="M93.4606 47.2195C95.5822 47.2195 97.3021 45.4997 97.3021 43.3781C97.3021 41.2565 95.5822 39.5366 93.4606 39.5366C91.339 39.5366 89.6191 41.2565 89.6191 43.3781C89.6191 45.4997 91.339 47.2195 93.4606 47.2195Z" fill="white"/>
<path d="M93.4648 41.2539C94.6382 41.2542 95.5898 42.2054 95.5898 43.3789C95.5896 44.5521 94.6381 45.5037 93.4648 45.5039C92.2914 45.5039 91.3401 44.5523 91.3398 43.3789C91.3398 42.2053 92.2912 41.2539 93.4648 41.2539Z" fill="black"/>
<path d="M147.851 88.2516C141.162 88.2516 135.678 93.253 134.955 99.7609C134.895 100.544 135.498 101.267 136.281 101.267H159.42C160.203 101.267 160.806 100.604 160.746 99.7609C159.962 93.3133 154.479 88.2516 147.851 88.2516Z" fill="#FCD53F"/>
<path d="M115.485 101.208C108.797 101.208 103.313 106.21 102.59 112.718C102.53 113.501 103.132 114.224 103.916 114.224H127.055C127.838 114.224 128.441 113.561 128.381 112.718C127.657 106.21 122.174 101.208 115.485 101.208Z" fill="#FCD53F"/>
<path d="M131.459 125.672C132.182 119.165 137.666 114.163 144.354 114.163C150.983 114.163 156.527 119.225 157.25 125.672C157.31 126.516 156.707 127.179 155.924 127.179H132.785C132.002 127.179 131.399 126.456 131.459 125.672Z" fill="#FCD53F"/>
<path d="M83.3066 69.6935L85.9579 74.2731C86.5003 75.2975 86.199 76.5629 85.1746 77.1655C84.1502 77.7078 82.8848 77.4065 82.2822 76.3821L79.6309 71.8025C79.0885 70.7782 79.3898 69.5127 80.4142 68.9102C81.4386 68.3678 82.704 68.6691 83.3066 69.6935Z" fill="#D3D3D3"/>
<path d="M56.071 77.9482L51.4914 80.5996C50.467 81.1419 49.1414 80.8406 48.599 79.8162C47.9965 78.7918 48.358 77.5264 49.3824 76.9238L53.962 74.2725C54.9864 73.7301 56.2518 74.0314 56.8544 75.0558C57.3967 76.0802 57.0954 77.3456 56.071 77.9482Z" fill="#D3D3D3"/>
<path d="M87.2266 86.8671L92.0472 84.758C93.1319 84.276 94.337 84.758 94.8191 85.8427C95.3012 86.9273 94.8191 88.1325 93.7344 88.6146L88.9138 90.7236C87.8292 91.2056 86.624 90.7236 86.1419 89.6389C85.6599 88.5543 86.1419 87.3491 87.2266 86.8671Z" fill="#D3D3D3"/>
<path d="M112.778 81.6849L112.357 86.9274C112.296 88.0723 113.14 89.0966 114.285 89.1569C115.43 89.2172 116.454 88.3735 116.514 87.2286L116.936 81.9862C116.996 80.8413 116.153 79.8169 115.008 79.7566C113.863 79.6361 112.839 80.54 112.778 81.6849Z" fill="#D3D3D3"/>
<path d="M70.1676 88.8549L65.588 86.2036C64.6239 85.601 64.2623 84.3356 64.8649 83.3112C65.4072 82.2868 66.7329 81.9855 67.697 82.5278L72.2766 85.1792C73.301 85.7818 73.6626 87.0472 73.06 88.0716C72.4574 89.096 71.192 89.4575 70.1676 88.8549Z" fill="#D3D3D3"/>
<path d="M64.4513 64.0896L63.1254 69.2115C62.8844 70.3564 63.5472 71.5013 64.6923 71.7424C65.777 72.0437 66.9219 71.3808 67.2232 70.2359L68.5488 65.114C68.8501 63.9691 68.127 62.8242 67.0424 62.5229C65.8975 62.2819 64.7526 63.005 64.4513 64.0896Z" fill="#D3D3D3"/>
<path d="M98.2523 78.1898L99.578 73.0679C99.8793 71.9832 101.024 71.2601 102.169 71.5614C103.254 71.8627 103.977 73.0076 103.676 74.1525L102.35 79.2744C102.049 80.3591 100.904 81.0822 99.7588 80.7809C98.6741 80.4796 97.951 79.3347 98.2523 78.1898Z" fill="#D3D3D3"/>
<path d="M50.829 110.005C53.4248 110.005 55.5292 107.901 55.5292 105.305C55.5292 102.709 53.4248 100.605 50.829 100.605C48.2332 100.605 46.1289 102.709 46.1289 105.305C46.1289 107.901 48.2332 110.005 50.829 110.005Z" fill="#00D26A"/>
<path d="M81.5595 115.369C84.1554 115.369 86.2596 113.264 86.2596 110.668C86.2596 108.072 84.1554 105.968 81.5595 105.968C78.9636 105.968 76.8594 108.072 76.8594 110.668C76.8594 113.264 78.9636 115.369 81.5595 115.369Z" fill="#00D26A"/>
<path d="M66.1326 125.793C66.1326 128.389 64.0283 130.493 61.4326 130.493C58.8368 130.493 56.7324 128.389 56.7324 125.793C56.7324 123.197 58.8368 121.093 61.4326 121.093C64.0283 121.093 66.1326 123.197 66.1326 125.793Z" fill="#00D26A"/>
</svg>
