<svg width="200" height="200" viewBox="0 0 200 200" fill="none" xmlns="http://www.w3.org/2000/svg">
<mask id="path-1-outside-1_1347_5738" maskUnits="userSpaceOnUse" x="8.99951" y="51" width="184" height="114" fill="black">
<rect fill="white" x="8.99951" y="51" width="184" height="114"/>
<path d="M102.795 57C144.258 57 158.659 66.3364 165.551 78.1602C165.724 78.0732 165.918 78.0205 166.124 78.0117C168.003 77.9322 169.782 77.1412 171.1 75.7998C171.308 75.588 171.501 75.3627 171.68 75.1299C170.977 74.7858 170.305 74.3891 169.676 73.9502C167.417 72.3731 165.581 70.2078 164.594 67.9971C163.627 65.8302 163.35 63.268 164.888 61.3115C165.828 60.1122 167.14 59.4953 168.542 59.4775C169.911 59.4604 171.267 60.0123 172.413 60.9443C174.718 62.8197 176.323 66.3203 176.038 70.9062L176.037 70.9053C176.01 71.7906 175.867 72.6607 175.621 73.4971C176.248 73.6067 176.881 73.6497 177.51 73.6133C179.613 73.4913 181.848 72.4949 183.897 69.9385C184.383 69.3317 185.27 69.2337 185.876 69.7197C186.483 70.2059 186.581 71.0923 186.095 71.6992C183.6 74.8123 180.653 76.2521 177.672 76.4248C176.562 76.4891 175.471 76.3757 174.42 76.125C174.043 76.7134 173.606 77.2677 173.109 77.7734C171.454 79.4575 169.273 80.5084 166.94 80.7676C167.158 81.2166 167.369 81.668 167.572 82.1221C168.285 83.6675 168.851 85.2769 169.261 86.9287C169.243 86.9045 169.223 86.8806 169.205 86.8564C172.735 99.9848 168.842 116.506 165.695 126.282C163.169 136.252 161.573 146.435 160.926 156.699C160.888 157.171 160.674 157.61 160.326 157.931C159.978 158.251 159.521 158.428 159.048 158.427H148.234C147.961 158.431 147.69 158.375 147.442 158.263C147.193 158.15 146.973 157.983 146.797 157.774C146.621 157.566 146.493 157.321 146.423 157.057C146.354 156.793 146.344 156.517 146.394 156.249C147.108 152.322 147.447 148.336 147.408 144.345C147.266 140.884 143.174 136.561 139.751 130.875C139.095 131.214 138.28 130.988 137.897 130.345C137.875 130.308 137.855 130.272 137.833 130.235C120.733 136.277 99.689 137.41 81.4595 135.869C81.4397 135.947 81.4221 136.025 81.4019 136.103C81.2047 136.854 80.4352 137.305 79.6831 137.108C79.6692 137.105 79.6558 137.099 79.6421 137.095C79.0795 138.938 78.4371 140.756 77.7124 142.542C76.0126 147.043 74.9381 151.756 74.52 156.549C74.4822 157.02 74.2683 157.46 73.9204 157.78C73.5724 158.1 73.116 158.278 72.6431 158.276H62.9546C62.6875 158.266 62.4258 158.197 62.188 158.075C61.9501 157.953 61.7411 157.78 61.5767 157.569C61.4123 157.358 61.2963 157.114 61.2358 156.854C61.1754 156.593 61.1723 156.322 61.2271 156.061C61.4596 153.703 61.5221 151.331 61.4146 148.964C60.6835 143.049 59.5551 137.19 58.0356 131.427C43.8039 127.033 39.9356 122.828 31.0737 122.002C18.7091 120.807 17.158 118.645 17.1421 118.622L15.0015 100.822C14.9785 99.9596 15.2533 99.1154 15.7798 98.4316C16.3064 97.7477 17.0529 97.2656 17.8931 97.0674C21.0535 96.445 23.8738 94.6801 25.8159 92.1104C28.8359 87.7615 32.1481 80.8146 39.4429 75.0967C35.5288 71.1395 34.855 67.0749 36.105 63.2715C36.2683 62.7327 36.5506 62.2372 36.9312 61.8223C37.3118 61.4073 37.7813 61.0832 38.3042 60.874C38.827 60.6649 39.3899 60.5753 39.9517 60.6133C40.5135 60.6513 41.0603 60.8152 41.5503 61.0928C44.3644 62.3871 47.2621 63.4914 50.2241 64.3975C51.6793 64.8329 53.0325 65.5506 54.2095 66.5059C63.9381 61.619 76.6022 57 102.795 57ZM168.577 62.2939C168.024 62.301 167.516 62.524 167.104 63.0498L167.102 63.0527C166.5 63.8187 166.391 65.1152 167.166 66.8496C167.92 68.5405 169.399 70.3216 171.289 71.6406C171.819 72.011 172.375 72.3369 172.946 72.6143C173.113 72.0227 173.209 71.4084 173.224 70.7842L173.226 70.7314C173.466 66.8685 172.104 64.3233 170.635 63.1289C169.895 62.5265 169.162 62.2866 168.577 62.2939Z"/>
</mask>
<path d="M102.795 57C144.258 57 158.659 66.3364 165.551 78.1602C165.724 78.0732 165.918 78.0205 166.124 78.0117C168.003 77.9322 169.782 77.1412 171.1 75.7998C171.308 75.588 171.501 75.3627 171.68 75.1299C170.977 74.7858 170.305 74.3891 169.676 73.9502C167.417 72.3731 165.581 70.2078 164.594 67.9971C163.627 65.8302 163.35 63.268 164.888 61.3115C165.828 60.1122 167.14 59.4953 168.542 59.4775C169.911 59.4604 171.267 60.0123 172.413 60.9443C174.718 62.8197 176.323 66.3203 176.038 70.9062L176.037 70.9053C176.01 71.7906 175.867 72.6607 175.621 73.4971C176.248 73.6067 176.881 73.6497 177.51 73.6133C179.613 73.4913 181.848 72.4949 183.897 69.9385C184.383 69.3317 185.27 69.2337 185.876 69.7197C186.483 70.2059 186.581 71.0923 186.095 71.6992C183.6 74.8123 180.653 76.2521 177.672 76.4248C176.562 76.4891 175.471 76.3757 174.42 76.125C174.043 76.7134 173.606 77.2677 173.109 77.7734C171.454 79.4575 169.273 80.5084 166.94 80.7676C167.158 81.2166 167.369 81.668 167.572 82.1221C168.285 83.6675 168.851 85.2769 169.261 86.9287C169.243 86.9045 169.223 86.8806 169.205 86.8564C172.735 99.9848 168.842 116.506 165.695 126.282C163.169 136.252 161.573 146.435 160.926 156.699C160.888 157.171 160.674 157.61 160.326 157.931C159.978 158.251 159.521 158.428 159.048 158.427H148.234C147.961 158.431 147.69 158.375 147.442 158.263C147.193 158.15 146.973 157.983 146.797 157.774C146.621 157.566 146.493 157.321 146.423 157.057C146.354 156.793 146.344 156.517 146.394 156.249C147.108 152.322 147.447 148.336 147.408 144.345C147.266 140.884 143.174 136.561 139.751 130.875C139.095 131.214 138.28 130.988 137.897 130.345C137.875 130.308 137.855 130.272 137.833 130.235C120.733 136.277 99.689 137.41 81.4595 135.869C81.4397 135.947 81.4221 136.025 81.4019 136.103C81.2047 136.854 80.4352 137.305 79.6831 137.108C79.6692 137.105 79.6558 137.099 79.6421 137.095C79.0795 138.938 78.4371 140.756 77.7124 142.542C76.0126 147.043 74.9381 151.756 74.52 156.549C74.4822 157.02 74.2683 157.46 73.9204 157.78C73.5724 158.1 73.116 158.278 72.6431 158.276H62.9546C62.6875 158.266 62.4258 158.197 62.188 158.075C61.9501 157.953 61.7411 157.78 61.5767 157.569C61.4123 157.358 61.2963 157.114 61.2358 156.854C61.1754 156.593 61.1723 156.322 61.2271 156.061C61.4596 153.703 61.5221 151.331 61.4146 148.964C60.6835 143.049 59.5551 137.19 58.0356 131.427C43.8039 127.033 39.9356 122.828 31.0737 122.002C18.7091 120.807 17.158 118.645 17.1421 118.622L15.0015 100.822C14.9785 99.9596 15.2533 99.1154 15.7798 98.4316C16.3064 97.7477 17.0529 97.2656 17.8931 97.0674C21.0535 96.445 23.8738 94.6801 25.8159 92.1104C28.8359 87.7615 32.1481 80.8146 39.4429 75.0967C35.5288 71.1395 34.855 67.0749 36.105 63.2715C36.2683 62.7327 36.5506 62.2372 36.9312 61.8223C37.3118 61.4073 37.7813 61.0832 38.3042 60.874C38.827 60.6649 39.3899 60.5753 39.9517 60.6133C40.5135 60.6513 41.0603 60.8152 41.5503 61.0928C44.3644 62.3871 47.2621 63.4914 50.2241 64.3975C51.6793 64.8329 53.0325 65.5506 54.2095 66.5059C63.9381 61.619 76.6022 57 102.795 57ZM168.577 62.2939C168.024 62.301 167.516 62.524 167.104 63.0498L167.102 63.0527C166.5 63.8187 166.391 65.1152 167.166 66.8496C167.92 68.5405 169.399 70.3216 171.289 71.6406C171.819 72.011 172.375 72.3369 172.946 72.6143C173.113 72.0227 173.209 71.4084 173.224 70.7842L173.226 70.7314C173.466 66.8685 172.104 64.3233 170.635 63.1289C169.895 62.5265 169.162 62.2866 168.577 62.2939Z" fill="#040000"/>
<path d="M102.795 57V51H102.795L102.795 57ZM165.551 78.1602L160.368 81.1819C161.964 83.9203 165.415 84.9446 168.247 83.5206L165.551 78.1602ZM166.124 78.0117L165.87 72.0171L165.868 72.0172L166.124 78.0117ZM171.1 75.7998L175.38 80.0053L175.38 80.0049L171.1 75.7998ZM171.68 75.1299L176.431 78.7949C177.532 77.3679 177.933 75.5215 177.523 73.7663C177.114 72.0111 175.937 70.533 174.318 69.7407L171.68 75.1299ZM169.676 73.9502L166.242 78.8702L166.242 78.8703L169.676 73.9502ZM164.594 67.9971L159.115 70.4424L159.115 70.4425L164.594 67.9971ZM164.888 61.3115L169.605 65.0195L169.611 65.0125L164.888 61.3115ZM168.542 59.4775L168.466 53.478L168.465 53.478L168.542 59.4775ZM172.413 60.9443L176.199 56.2898L176.199 56.2896L172.413 60.9443ZM176.038 70.9062L171.795 75.1489C173.463 76.817 175.954 77.3528 178.16 76.5182C180.367 75.6835 181.88 73.6333 182.026 71.2788L176.038 70.9062ZM176.037 70.9053L180.279 66.6626C178.586 64.9696 176.049 64.4452 173.823 65.3285C171.598 66.2118 170.11 68.3337 170.039 70.727L176.037 70.9053ZM175.621 73.4971L169.866 71.7985C169.382 73.4388 169.621 75.2077 170.522 76.6608C171.424 78.1139 172.903 79.1132 174.588 79.4075L175.621 73.4971ZM177.51 73.6133L177.857 79.6033L177.858 79.6032L177.51 73.6133ZM183.897 69.9385L188.579 73.6906L188.579 73.6904L183.897 69.9385ZM185.876 69.7197L189.628 65.0375L189.627 65.0365L185.876 69.7197ZM186.095 71.6992L190.777 75.4513L190.779 75.4495L186.095 71.6992ZM177.672 76.4248L178.019 82.4148L178.019 82.4148L177.672 76.4248ZM174.42 76.125L175.813 70.289C173.332 69.6967 170.748 70.7381 169.37 72.8853L174.42 76.125ZM173.109 77.7734L177.388 81.9788L177.389 81.9785L173.109 77.7734ZM166.94 80.7676L166.277 74.8043C164.339 75.0196 162.627 76.1634 161.685 77.8711C160.744 79.5788 160.691 81.6375 161.544 83.3912L166.94 80.7676ZM167.572 82.1221L162.093 84.5673C162.103 84.5904 162.113 84.6135 162.124 84.6365L167.572 82.1221ZM169.261 86.9287L164.513 90.5964C166.248 92.8428 169.32 93.566 171.875 92.3296C174.43 91.0932 175.769 88.2355 175.084 85.4809L169.261 86.9287ZM169.205 86.8564L173.946 83.1795C172.195 80.9213 169.094 80.2116 166.535 81.4832C163.975 82.7549 162.668 85.6549 163.41 88.4146L169.205 86.8564ZM165.695 126.282L159.983 124.444C159.945 124.564 159.91 124.686 159.879 124.809L165.695 126.282ZM160.926 156.699L166.907 157.179C166.91 157.145 166.912 157.111 166.914 157.076L160.926 156.699ZM160.326 157.931L164.388 162.346L164.388 162.346L160.326 157.931ZM159.048 158.427L159.068 152.427C159.061 152.427 159.055 152.427 159.048 152.427V158.427ZM148.234 158.427V152.427C148.2 152.427 148.166 152.427 148.132 152.428L148.234 158.427ZM147.442 158.263L144.962 163.726L144.962 163.726L147.442 158.263ZM146.797 157.774L142.214 161.647L142.215 161.647L146.797 157.774ZM146.423 157.057L140.622 158.588L140.622 158.589L146.423 157.057ZM146.394 156.249L152.292 157.351C152.294 157.341 152.296 157.332 152.297 157.322L146.394 156.249ZM147.408 144.345L153.407 144.286C153.407 144.224 153.405 144.162 153.403 144.1L147.408 144.345ZM139.751 130.875L144.892 127.781C143.262 125.073 139.811 124.094 137.002 125.542L139.751 130.875ZM137.897 130.345L132.74 133.412L132.741 133.413L137.897 130.345ZM137.833 130.235L143.004 127.192C141.548 124.717 138.542 123.622 135.835 124.578L137.833 130.235ZM81.4595 135.869L81.965 129.89C79.0422 129.643 76.3692 131.546 75.6451 134.388L81.4595 135.869ZM81.4019 136.103L87.2057 137.624L87.2061 137.623L81.4019 136.103ZM79.6831 137.108L78.1631 142.913L78.1653 142.913L79.6831 137.108ZM79.6421 137.095L81.3358 131.339C78.1795 130.41 74.864 132.196 73.9035 135.343L79.6421 137.095ZM77.7124 142.542L72.1527 140.286C72.1343 140.331 72.1166 140.377 72.0994 140.422L77.7124 142.542ZM74.52 156.549L68.5427 156.027C68.5415 156.041 68.5404 156.055 68.5392 156.069L74.52 156.549ZM73.9204 157.78L77.9827 162.196L77.984 162.195L73.9204 157.78ZM72.6431 158.276L72.6613 152.276C72.6553 152.276 72.6492 152.276 72.6431 152.276V158.276ZM62.9546 158.276L62.7145 164.272C62.7945 164.275 62.8745 164.276 62.9546 164.276V158.276ZM62.188 158.075L59.4477 163.413L59.4489 163.413L62.188 158.075ZM61.5767 157.569L56.8446 161.258L56.8449 161.259L61.5767 157.569ZM61.2358 156.854L55.391 158.209L55.391 158.209L61.2358 156.854ZM61.2271 156.061L67.0998 157.29C67.1441 157.078 67.1769 156.864 67.1981 156.649L61.2271 156.061ZM61.4146 148.964L67.4084 148.692C67.4013 148.537 67.3883 148.382 67.3692 148.228L61.4146 148.964ZM58.0356 131.427L63.8374 129.897C63.3092 127.894 61.785 126.305 59.8055 125.694L58.0356 131.427ZM31.0737 122.002L30.4964 127.974C30.5032 127.975 30.5099 127.975 30.5167 127.976L31.0737 122.002ZM17.1421 118.622L11.185 119.338C11.3035 120.323 11.6642 121.263 12.2351 122.075L17.1421 118.622ZM15.0015 100.822L9.00359 100.982C9.00855 101.168 9.02216 101.354 9.04439 101.539L15.0015 100.822ZM15.7798 98.4316L11.0258 94.7711L11.0256 94.7714L15.7798 98.4316ZM17.8931 97.0674L16.7337 91.1805C16.6606 91.1949 16.5877 91.2106 16.5152 91.2277L17.8931 97.0674ZM25.8159 92.1104L30.6027 95.728C30.6511 95.6638 30.6983 95.5987 30.7442 95.5327L25.8159 92.1104ZM39.4429 75.0967L43.1443 79.8189C44.4912 78.7632 45.3231 77.1826 45.431 75.4747C45.5388 73.7668 44.9122 72.0941 43.7087 70.8774L39.4429 75.0967ZM36.105 63.2715L41.8051 65.1447C41.8196 65.1006 41.8336 65.0562 41.8471 65.0117L36.105 63.2715ZM36.9312 61.8223L32.5096 57.7665L32.5091 57.767L36.9312 61.8223ZM38.3042 60.874L36.0759 55.3031L36.0759 55.3032L38.3042 60.874ZM39.9517 60.6133L40.3564 54.6269L40.356 54.6269L39.9517 60.6133ZM41.5503 61.0928L38.5924 66.313C38.7393 66.3963 38.8897 66.4733 39.0431 66.5438L41.5503 61.0928ZM50.2241 64.3975L48.469 70.135C48.4807 70.1386 48.4925 70.1422 48.5043 70.1457L50.2241 64.3975ZM54.2095 66.5059L50.4284 71.1645C52.2605 72.6515 54.7941 72.9266 56.9027 71.8674L54.2095 66.5059ZM168.577 62.2939L168.501 56.2944L168.5 56.2944L168.577 62.2939ZM167.104 63.0498L162.379 59.3514C162.285 59.4714 162.196 59.5949 162.112 59.7216L167.104 63.0498ZM167.102 63.0527L171.82 66.7598C171.916 66.6371 172.008 66.5107 172.094 66.3809L167.102 63.0527ZM167.166 66.8496L161.686 69.295L161.686 69.295L167.166 66.8496ZM171.289 71.6406L167.854 76.5607L167.855 76.5608L171.289 71.6406ZM172.946 72.6143L170.323 78.0105C171.921 78.7872 173.781 78.8158 175.402 78.0886C177.023 77.3614 178.238 75.9531 178.72 74.2432L172.946 72.6143ZM173.224 70.7842L167.228 70.5621C167.227 70.5868 167.227 70.6115 167.226 70.6361L173.224 70.7842ZM173.226 70.7314L167.238 70.3589C167.235 70.409 167.232 70.4592 167.23 70.5094L173.226 70.7314ZM170.635 63.1289L174.421 58.4743L174.421 58.4739L170.635 63.1289ZM102.795 57V63C123.169 63 136.283 65.3075 144.932 68.7261C153.341 72.0501 157.608 76.448 160.368 81.1819L165.551 78.1602L170.735 75.1384C166.602 68.0485 160.222 61.8663 149.343 57.5662C138.702 53.3607 123.884 51 102.795 51V57ZM165.551 78.1602L168.247 83.5206C167.68 83.8057 167.044 83.978 166.379 84.0063L166.124 78.0117L165.868 72.0172C164.792 72.063 163.768 72.3408 162.856 72.7997L165.551 78.1602ZM166.124 78.0117L166.377 84.0063C169.777 83.8624 172.995 82.4317 175.38 80.0053L171.1 75.7998L166.821 71.5943C166.569 71.8507 166.228 72.0019 165.87 72.0171L166.124 78.0117ZM171.1 75.7998L175.38 80.0049C175.782 79.5955 176.13 79.1843 176.431 78.7949L171.68 75.1299L166.93 71.4649C166.871 71.5411 166.834 71.5805 166.82 71.5947L171.1 75.7998ZM171.68 75.1299L174.318 69.7407C173.893 69.5327 173.487 69.293 173.11 69.0301L169.676 73.9502L166.242 78.8703C167.123 79.4853 168.062 80.0389 169.043 80.5191L171.68 75.1299ZM169.676 73.9502L173.11 69.0301C171.639 68.0031 170.566 66.6556 170.073 65.5517L164.594 67.9971L159.115 70.4425C160.596 73.76 163.195 76.7432 166.242 78.8702L169.676 73.9502ZM164.594 67.9971L170.073 65.5518C169.965 65.3098 169.893 65.0935 169.851 64.9151C169.808 64.7358 169.802 64.6269 169.802 64.5864C169.802 64.5501 169.806 64.5974 169.774 64.7004C169.738 64.8121 169.678 64.9274 169.605 65.0195L164.888 61.3115L160.171 57.6036C156.628 62.1107 157.748 67.379 159.115 70.4424L164.594 67.9971ZM164.888 61.3115L169.611 65.0125C169.544 65.0972 169.409 65.2274 169.197 65.3318C168.989 65.4348 168.782 65.475 168.618 65.4771L168.542 59.4775L168.465 53.478C165.255 53.5188 162.231 54.9747 160.166 57.6105L164.888 61.3115ZM168.542 59.4775L168.617 65.4771C168.465 65.479 168.389 65.4481 168.399 65.452C168.405 65.4541 168.429 65.4641 168.47 65.4881C168.51 65.5121 168.564 65.548 168.627 65.5991L172.413 60.9443L176.199 56.2896C174.194 54.6589 171.512 53.4398 168.466 53.478L168.542 59.4775ZM172.413 60.9443L168.626 65.5989C169.146 66.0217 170.239 67.4847 170.049 70.5337L176.038 70.9062L182.026 71.2788C182.407 65.1558 180.29 59.6178 176.199 56.2898L172.413 60.9443ZM176.038 70.9062L180.28 66.6636L180.279 66.6626L176.037 70.9053L171.794 75.1479L171.795 75.1489L176.038 70.9062ZM176.037 70.9053L170.039 70.727C170.029 71.0838 169.971 71.4433 169.866 71.7985L175.621 73.4971L181.375 75.1956C181.764 73.8782 181.992 72.4975 182.034 71.0835L176.037 70.9053ZM175.621 73.4971L174.588 79.4075C175.626 79.5889 176.723 79.6689 177.857 79.6033L177.51 73.6133L177.164 67.6233C177.038 67.6305 176.87 67.6244 176.653 67.5866L175.621 73.4971ZM177.51 73.6133L177.858 79.6032C181.827 79.3729 185.579 77.4339 188.579 73.6906L183.897 69.9385L179.215 66.1863C178.623 66.9248 178.151 67.259 177.866 67.4133C177.592 67.5619 177.369 67.6114 177.163 67.6234L177.51 73.6133ZM183.897 69.9385L188.579 73.6904C186.994 75.6682 184.106 75.9886 182.126 74.403L185.876 69.7197L189.627 65.0365C186.433 62.4788 181.772 62.9951 179.215 66.1865L183.897 69.9385ZM185.876 69.7197L182.125 74.4019C180.146 72.8167 179.827 69.9283 181.412 67.9489L186.095 71.6992L190.779 75.4495C193.336 72.2564 192.82 67.5952 189.628 65.0375L185.876 69.7197ZM186.095 71.6992L181.413 67.9471C179.868 69.8758 178.435 70.3705 177.325 70.4349L177.672 76.4248L178.019 82.4148C182.87 82.1337 187.333 79.7487 190.777 75.4513L186.095 71.6992ZM177.672 76.4248L177.326 70.4348C176.852 70.4623 176.347 70.4164 175.813 70.289L174.42 76.125L173.027 81.961C174.594 82.3349 176.272 82.5159 178.019 82.4148L177.672 76.4248ZM174.42 76.125L169.37 72.8853C169.205 73.1433 169.023 73.3712 168.829 73.5683L173.109 77.7734L177.389 81.9785C178.189 81.1642 178.881 80.2834 179.471 79.3647L174.42 76.125ZM173.109 77.7734L168.829 73.5681C168.15 74.2596 167.249 74.6963 166.277 74.8043L166.94 80.7676L167.603 86.7309C171.296 86.3204 174.758 84.6553 177.388 81.9788L173.109 77.7734ZM166.94 80.7676L161.544 83.3912C161.735 83.7845 161.918 84.1764 162.093 84.5673L167.572 82.1221L173.051 79.6768C172.82 79.1596 172.581 78.6487 172.336 78.144L166.94 80.7676ZM167.572 82.1221L162.124 84.6365C162.679 85.8382 163.119 87.0905 163.439 88.3765L169.261 86.9287L175.084 85.4809C174.582 83.4634 173.891 81.4967 173.02 79.6076L167.572 82.1221ZM169.261 86.9287L174.01 83.261C173.993 83.2399 173.979 83.2217 173.968 83.208C173.958 83.1947 173.949 83.1829 173.944 83.1768C173.941 83.1731 173.94 83.1714 173.938 83.1694C173.937 83.1677 173.936 83.1672 173.936 83.1673C173.936 83.1674 173.94 83.1721 173.946 83.1795L169.205 86.8564L164.463 90.5334C164.478 90.5529 164.491 90.5696 164.501 90.5817C164.51 90.593 164.519 90.6042 164.522 90.6083C164.527 90.6143 164.527 90.6144 164.526 90.6132C164.524 90.6115 164.52 90.6054 164.513 90.5964L169.261 86.9287ZM169.205 86.8564L163.41 88.4146C166.451 99.7212 163.099 114.764 159.983 124.444L165.695 126.282L171.406 128.121C174.584 118.248 179.019 100.248 174.999 85.2983L169.205 86.8564ZM165.695 126.282L159.879 124.809C157.262 135.138 155.608 145.688 154.938 156.322L160.926 156.699L166.914 157.076C167.538 147.182 169.076 137.366 171.511 127.756L165.695 126.282ZM160.926 156.699L154.945 156.219C155.029 155.181 155.501 154.216 156.263 153.515L160.326 157.931L164.388 162.346C165.847 161.004 166.748 159.16 166.907 157.179L160.926 156.699ZM160.326 157.931L156.263 153.515C157.026 152.813 158.027 152.423 159.068 152.427L159.048 158.427L159.029 164.427C161.016 164.433 162.929 163.688 164.388 162.346L160.326 157.931ZM159.048 158.427V152.427H148.234V158.427V164.427H159.048V158.427ZM148.234 158.427L148.132 152.428C148.746 152.417 149.357 152.543 149.922 152.799L147.442 158.263L144.962 163.726C146.024 164.208 147.177 164.446 148.336 164.426L148.234 158.427ZM147.442 158.263L149.922 152.799C150.492 153.058 150.987 153.437 151.38 153.901L146.797 157.774L142.215 161.647C142.96 162.529 143.895 163.242 144.962 163.726L147.442 158.263ZM146.797 157.774L151.381 153.902C151.775 154.369 152.065 154.922 152.224 155.524L146.423 157.057L140.622 158.589C140.921 159.719 141.467 160.763 142.214 161.647L146.797 157.774ZM146.423 157.057L152.225 155.525C152.383 156.127 152.404 156.751 152.292 157.351L146.394 156.249L140.496 155.147C140.284 156.284 140.324 157.459 140.622 158.588L146.423 157.057ZM146.394 156.249L152.297 157.322C153.079 153.021 153.451 148.656 153.407 144.286L147.408 144.345L141.408 144.404C141.444 148.016 141.137 151.623 140.491 155.176L146.394 156.249ZM147.408 144.345L153.403 144.1C153.255 140.482 151.196 137.227 149.817 135.139C148.043 132.452 146.555 130.544 144.892 127.781L139.751 130.875L134.611 133.969C136.37 136.892 138.64 139.989 139.803 141.751C141.361 144.11 141.419 144.747 141.413 144.59L147.408 144.345ZM139.751 130.875L137.002 125.542C139.134 124.443 141.796 125.164 143.053 127.277L137.897 130.345L132.741 133.413C134.763 136.812 139.055 137.985 142.501 136.208L139.751 130.875ZM137.897 130.345L143.054 127.278C143.062 127.292 143.068 127.302 143.07 127.305C143.072 127.308 143.072 127.309 143.067 127.3C143.064 127.295 143.055 127.278 143.045 127.262C143.035 127.245 143.021 127.22 143.004 127.192L137.833 130.235L132.663 133.279C132.657 133.269 132.653 133.262 132.653 133.263C132.655 133.265 132.656 133.267 132.663 133.28C132.673 133.297 132.704 133.351 132.74 133.412L137.897 130.345ZM137.833 130.235L135.835 124.578C119.819 130.236 99.707 131.391 81.965 129.89L81.4595 135.869L80.954 141.848C99.671 143.43 121.647 142.317 139.832 135.893L137.833 130.235ZM81.4595 135.869L75.6451 134.388C75.6333 134.435 75.6231 134.476 75.6155 134.507C75.6086 134.536 75.6012 134.566 75.5981 134.579C75.5887 134.618 75.5914 134.606 75.5976 134.582L81.4019 136.103L87.2061 137.623C87.2326 137.521 87.2542 137.432 87.2636 137.393C87.277 137.337 87.2757 137.343 87.2738 137.35L81.4595 135.869ZM81.4019 136.103L75.598 134.581C76.2402 132.131 78.746 130.662 81.2009 131.304L79.6831 137.108L78.1653 142.913C82.1243 143.948 86.1692 141.577 87.2057 137.624L81.4019 136.103ZM79.6831 137.108L81.2031 131.304C81.3585 131.345 81.4832 131.384 81.563 131.411C81.6036 131.424 81.6369 131.436 81.6595 131.444C81.6814 131.452 81.6982 131.458 81.7023 131.459C81.7041 131.46 81.7065 131.461 81.7038 131.46C81.7025 131.459 81.6978 131.457 81.6921 131.455C81.6808 131.451 81.6576 131.443 81.6284 131.433C81.5718 131.413 81.4676 131.378 81.3358 131.339L79.6421 137.095L77.9484 142.851C77.8234 142.814 77.7261 142.781 77.6762 142.763C77.6504 142.754 77.6306 142.747 77.6228 142.744C77.6206 142.744 77.6189 142.743 77.6178 142.743C77.6172 142.742 77.6168 142.742 77.6165 142.742C77.6164 142.742 77.6163 142.742 77.6162 142.742C77.6162 142.742 77.6162 142.742 77.6161 142.742C77.6161 142.742 77.6161 142.742 77.6161 142.742C77.6152 142.742 77.6192 142.743 77.6227 142.744C77.6339 142.748 77.6996 142.772 77.7825 142.8C77.8691 142.829 78.0008 142.87 78.1631 142.913L79.6831 137.108ZM79.6421 137.095L73.9035 135.343C73.3915 137.02 72.8085 138.67 72.1527 140.286L77.7124 142.542L83.2722 144.798C84.0658 142.842 84.7674 140.855 85.3807 138.846L79.6421 137.095ZM77.7124 142.542L72.0994 140.422C70.2057 145.436 69.0085 150.687 68.5427 156.027L74.52 156.549L80.4973 157.07C80.8676 152.825 81.8195 148.649 83.3254 144.662L77.7124 142.542ZM74.52 156.549L68.5392 156.069C68.622 155.038 69.0903 154.071 69.8569 153.366L73.9204 157.78L77.984 162.195C79.4463 160.849 80.3424 159.002 80.5008 157.029L74.52 156.549ZM73.9204 157.78L69.8581 153.365C70.6213 152.662 71.6219 152.273 72.6613 152.276L72.6431 158.276L72.6248 164.276C74.6101 164.282 76.5234 163.538 77.9827 162.196L73.9204 157.78ZM72.6431 158.276V152.276H62.9546V158.276V164.276H72.6431V158.276ZM62.9546 158.276L63.1947 152.281C63.7934 152.305 64.385 152.459 64.9271 152.737L62.188 158.075L59.4489 163.413C60.4666 163.936 61.5817 164.226 62.7145 164.272L62.9546 158.276ZM62.188 158.075L64.9283 152.738C65.4643 153.013 65.9354 153.402 66.3085 153.88L61.5767 157.569L56.8449 161.259C57.5467 162.159 58.4359 162.893 59.4477 163.413L62.188 158.075ZM61.5767 157.569L66.3087 153.88C66.6854 154.364 66.9459 154.917 67.0807 155.498L61.2358 156.854L55.391 158.209C55.6466 159.311 56.1391 160.353 56.8446 161.258L61.5767 157.569ZM61.2358 156.854L67.0807 155.498C67.2164 156.083 67.2244 156.694 67.0998 157.29L61.2271 156.061L55.3543 154.831C55.1201 155.95 55.1344 157.103 55.391 158.209L61.2358 156.854ZM61.2271 156.061L67.1981 156.649C67.4588 154.005 67.5289 151.345 67.4084 148.692L61.4146 148.964L55.4207 149.236C55.5152 151.316 55.4603 153.4 55.256 155.472L61.2271 156.061ZM61.4146 148.964L67.3692 148.228C66.6052 142.046 65.4258 135.921 63.8374 129.897L58.0356 131.427L52.2339 132.956C53.6845 138.458 54.7618 144.052 55.4599 149.7L61.4146 148.964ZM58.0356 131.427L59.8055 125.694C53.087 123.62 48.8933 121.625 44.967 119.889C40.964 118.119 37.0575 116.534 31.6307 116.028L31.0737 122.002L30.5167 127.976C33.9518 128.296 36.4104 129.227 40.1149 130.864C43.8962 132.536 48.7525 134.84 56.2658 137.16L58.0356 131.427ZM31.0737 122.002L31.6511 116.03C25.7353 115.458 22.7939 114.687 21.4991 114.223C20.1326 113.734 21.0513 113.751 22.0491 115.169L17.1421 118.622L12.2351 122.075C13.2488 123.516 14.9509 124.625 17.4551 125.521C20.0311 126.443 24.0475 127.351 30.4964 127.974L31.0737 122.002ZM17.1421 118.622L23.0992 117.906L20.9585 100.106L15.0015 100.822L9.04439 101.539L11.185 119.338L17.1421 118.622ZM15.0015 100.822L20.9993 100.663C21.0131 101.178 20.8487 101.683 20.534 102.092L15.7798 98.4316L11.0256 94.7714C9.65794 96.5478 8.94392 98.7409 9.00359 100.982L15.0015 100.822ZM15.7798 98.4316L20.5338 102.092C20.2196 102.5 19.7742 102.788 19.2709 102.907L17.8931 97.0674L16.5152 91.2277C14.3316 91.7429 12.3933 92.9952 11.0258 94.7711L15.7798 98.4316ZM17.8931 97.0674L19.0525 102.954C23.6602 102.047 27.7717 99.4739 30.6027 95.728L25.8159 92.1104L21.0292 88.4927C19.9759 89.8864 18.4467 90.8431 16.7337 91.1805L17.8931 97.0674ZM25.8159 92.1104L30.7442 95.5327C34.3759 90.3029 36.7965 84.7946 43.1443 79.8189L39.4429 75.0967L35.7414 70.3745C27.4998 76.8346 23.296 85.22 20.8877 88.688L25.8159 92.1104ZM39.4429 75.0967L43.7087 70.8774C42.3607 69.5145 41.8479 68.4222 41.6549 67.6577C41.4663 66.9108 41.4884 66.1084 41.8051 65.1447L36.105 63.2715L30.4049 61.3982C29.4717 64.2379 29.2056 67.3695 30.02 70.5951C30.8299 73.803 32.611 76.7217 35.177 79.316L39.4429 75.0967ZM36.105 63.2715L41.8471 65.0117C41.7498 65.3328 41.5814 65.6288 41.3532 65.8776L36.9312 61.8223L32.5091 57.767C31.5199 58.8456 30.7868 60.1326 30.3629 61.5313L36.105 63.2715ZM36.9312 61.8223L41.3527 65.8781C41.1242 66.1272 40.8438 66.3204 40.5325 66.4449L38.3042 60.874L36.0759 55.3032C34.7189 55.846 33.4994 56.6873 32.5096 57.7665L36.9312 61.8223ZM38.3042 60.874L40.5324 66.4449C40.225 66.5679 39.8885 66.6227 39.5473 66.5996L39.9517 60.6133L40.356 54.6269C38.8913 54.528 37.429 54.7619 36.0759 55.3031L38.3042 60.874ZM39.9517 60.6133L39.5469 66.5996C39.2124 66.577 38.8865 66.4796 38.5924 66.313L41.5503 61.0928L44.5082 55.8725C43.2342 55.1507 41.8146 54.7255 40.3564 54.6269L39.9517 60.6133ZM41.5503 61.0928L39.0431 66.5438C42.1008 67.9502 45.2497 69.1502 48.469 70.135L50.2241 64.3975L51.9793 58.6599C49.2745 57.8325 46.628 56.824 44.0574 55.6417L41.5503 61.0928ZM50.2241 64.3975L48.5043 70.1457C49.2029 70.3547 49.8567 70.7005 50.4284 71.1645L54.2095 66.5059L57.9906 61.8472C56.2083 60.4006 54.1557 59.311 51.944 58.6492L50.2241 64.3975ZM54.2095 66.5059L56.9027 71.8674C65.7513 67.4226 77.4866 63 102.795 63L102.795 57L102.795 51C75.7178 51 62.1248 55.8154 51.5163 61.1443L54.2095 66.5059ZM168.577 62.2939L168.5 56.2944C166.137 56.3247 163.916 57.388 162.379 59.3514L167.104 63.0498L171.829 66.7482C171.536 67.1215 171.082 67.5421 170.445 67.8567C169.809 68.1708 169.179 68.2867 168.654 68.2935L168.577 62.2939ZM167.104 63.0498L162.112 59.7216L162.11 59.7245L167.102 63.0527L172.094 66.3809L172.096 66.378L167.104 63.0498ZM167.102 63.0527L162.384 59.3457C159.811 62.6202 160.48 66.5918 161.686 69.295L167.166 66.8496L172.645 64.4043C172.513 64.1105 172.621 64.2117 172.618 64.6414C172.613 65.1094 172.465 65.9383 171.82 66.7598L167.102 63.0527ZM167.166 66.8496L161.686 69.295C162.936 72.0936 165.178 74.6922 167.854 76.5607L171.289 71.6406L174.723 66.7206C173.62 65.9509 172.905 64.9874 172.645 64.4042L167.166 66.8496ZM171.289 71.6406L167.855 76.5608C168.643 77.1107 169.469 77.5957 170.323 78.0105L172.946 72.6143L175.569 67.218C175.281 67.078 174.996 66.9114 174.722 66.7204L171.289 71.6406ZM172.946 72.6143L178.72 74.2432C179.019 73.1862 179.194 72.0748 179.222 70.9322L173.224 70.7842L167.226 70.6361C167.223 70.742 167.207 70.8592 167.171 70.9854L172.946 72.6143ZM173.224 70.7842L179.22 71.0062L179.222 70.9535L173.226 70.7314L167.23 70.5094L167.228 70.5621L173.224 70.7842ZM173.226 70.7314L179.214 71.104C179.551 65.6944 177.669 61.1162 174.421 58.4743L170.635 63.1289L166.849 67.7835C166.538 67.5304 167.382 68.0425 167.238 70.3589L173.226 70.7314ZM170.635 63.1289L174.421 58.4739C172.814 57.1674 170.755 56.266 168.501 56.2944L168.577 62.2939L168.652 68.2935C167.568 68.3071 166.975 67.8857 166.85 67.7839L170.635 63.1289Z" fill="white" mask="url(#path-1-outside-1_1347_5738)"/>
<path d="M166.183 79.4182C168.419 79.3237 170.536 78.3828 172.105 76.7862C173.674 75.1896 174.577 73.0566 174.632 70.819C175.158 62.3699 168.699 58.7274 165.995 62.1821C161.714 67.6271 175.909 82.1595 184.996 70.819" stroke="#276288" stroke-width="2.81636" stroke-linecap="round" stroke-linejoin="round"/>
<path d="M167.573 82.2352C161.49 68.604 148.797 57.1133 102.797 57.1133C68.3244 57.1133 57.2843 65.1117 45.5307 71.1951C33.7771 77.2784 29.5713 86.7038 25.8162 92.1112C23.874 94.6811 21.0533 96.4457 17.8928 97.068C17.0527 97.2663 16.3065 97.7479 15.7798 98.4318C15.2532 99.1158 14.9783 99.9603 15.0013 100.823L17.1418 118.623C17.1418 118.623 18.6438 120.801 31.0734 122.002C39.9355 122.828 43.8033 127.034 58.0353 131.428C59.5548 137.19 60.6839 143.049 61.4149 148.964C61.5225 151.331 61.4597 153.703 61.2272 156.061C61.1724 156.323 61.1753 156.594 61.2357 156.854C61.2962 157.115 61.4126 157.359 61.5771 157.57C61.7415 157.781 61.9499 157.953 62.1878 158.075C62.4257 158.197 62.6873 158.266 62.9545 158.277H72.6428C73.1158 158.278 73.572 158.101 73.9201 157.781C74.2682 157.461 74.4826 157.021 74.5204 156.55C74.9384 151.757 76.0124 147.044 77.7123 142.543C78.6134 140.322 79.3907 138.053 80.0405 135.746C99.0415 137.511 121.347 136.384 139.109 129.775C142.639 136.009 147.258 140.665 147.408 144.345C147.447 148.336 147.108 152.322 146.394 156.249C146.344 156.517 146.354 156.793 146.424 157.057C146.493 157.321 146.621 157.566 146.797 157.775C146.973 157.983 147.193 158.15 147.442 158.263C147.69 158.376 147.961 158.432 148.234 158.427H159.049C159.522 158.429 159.978 158.252 160.326 157.931C160.674 157.611 160.888 157.171 160.926 156.7C161.573 146.435 163.169 136.253 165.695 126.283C169.225 115.318 173.694 95.8664 167.573 82.2352Z" fill="#4B98E6"/>
<path d="M169.262 86.9285C168.851 85.2767 168.285 83.6674 167.572 82.1219C161.489 68.4907 148.796 57 102.796 57C68.3234 57 57.2833 64.9985 45.5297 71.0818C38.6961 74.846 33.0315 80.4197 29.1572 87.1914C35.5211 82.7207 42.1692 78.6691 49.0595 75.0623C62.9535 67.9275 85.4844 65.5617 105.8 65.5617C124.613 65.5617 153.077 65.9748 169.262 86.9285Z" fill="#87BCF3"/>
<path d="M58 72.0004C57.3217 70.4674 55.8284 67.9184 54.5708 66.8099C53.3132 65.7014 51.8303 64.8786 50.2243 64.398C47.2621 63.4919 44.3641 62.3879 41.5499 61.0935C41.0599 60.8159 40.5138 60.652 39.9519 60.614C39.3901 60.576 38.8269 60.6649 38.304 60.874C37.7812 61.0832 37.312 61.4073 36.9314 61.8223C36.5507 62.2372 36.2682 62.7325 36.1049 63.2715C34.34 68.6413 36.4053 74.5369 46.0185 79.9068" fill="#4B98E6"/>
<path d="M139.108 129.624C136.538 125.303 135.236 120.344 135.353 115.317" stroke="#2E71B6" stroke-width="2.81636" stroke-linecap="round" stroke-linejoin="round"/>
<path d="M80.0396 135.746C81.0494 131.889 81.3798 127.887 81.0159 123.917" stroke="#2E71B6" stroke-width="2.81636" stroke-linecap="round" stroke-linejoin="round"/>
<path d="M47.4594 100.919C52.1314 100.919 55.9188 97.1314 55.9188 92.4594C55.9188 87.7874 52.1314 84 47.4594 84C42.7874 84 39 87.7874 39 92.4594C39 97.1314 42.7874 100.919 47.4594 100.919Z" fill="white"/>
<path d="M47.4595 96.9649C49.948 96.9649 51.9654 94.9475 51.9654 92.459C51.9654 89.9705 49.948 87.9531 47.4595 87.9531C44.971 87.9531 42.9536 89.9705 42.9536 92.459C42.9536 94.9475 44.971 96.9649 47.4595 96.9649Z" fill="#040000"/>
</svg>
