<svg width="200" height="200" viewBox="0 0 200 200" fill="none" xmlns="http://www.w3.org/2000/svg">
<mask id="path-1-outside-1_1347_14397" maskUnits="userSpaceOnUse" x="4" y="41" width="192" height="131" fill="black">
<rect fill="white" x="4" y="41" width="192" height="131"/>
<path d="M121.344 47C124.722 47.0001 127.85 48.7522 130.102 51.7549L155.653 85.7822L155.686 85.7871C155.743 85.8566 185.761 122.006 188.092 128.765C190.425 135.529 188.092 159.294 188.092 159.294C188.092 162.985 185.088 165.987 181.397 165.987L169.419 165.863H19.4316C15.8659 165.863 12.9258 162.922 12.9258 159.294C12.905 159.197 8.60337 139.006 12.9258 128.766C15.8505 121.837 29.9918 105.878 38.874 96.2363C38.6318 95.08 38.5049 93.8767 38.5049 92.6328C38.505 86.158 41.9154 80.3685 47.2705 76.5381C47.2705 76.5381 47.2852 73.9445 47.2852 72.8838C47.2853 63.153 54.195 55.8975 62.7178 55.8975C65.7504 55.8975 68.5784 56.8165 70.9639 58.4385L77.3633 50.6914C79.4903 48.3142 82.3059 47 85.1836 47H121.344Z"/>
</mask>
<path d="M121.344 47C124.722 47.0001 127.85 48.7522 130.102 51.7549L155.653 85.7822L155.686 85.7871C155.743 85.8566 185.761 122.006 188.092 128.765C190.425 135.529 188.092 159.294 188.092 159.294C188.092 162.985 185.088 165.987 181.397 165.987L169.419 165.863H19.4316C15.8659 165.863 12.9258 162.922 12.9258 159.294C12.905 159.197 8.60337 139.006 12.9258 128.766C15.8505 121.837 29.9918 105.878 38.874 96.2363C38.6318 95.08 38.5049 93.8767 38.5049 92.6328C38.505 86.158 41.9154 80.3685 47.2705 76.5381C47.2705 76.5381 47.2852 73.9445 47.2852 72.8838C47.2853 63.153 54.195 55.8975 62.7178 55.8975C65.7504 55.8975 68.5784 56.8165 70.9639 58.4385L77.3633 50.6914C79.4903 48.3142 82.3059 47 85.1836 47H121.344Z" fill="#276288"/>
<path d="M121.344 47L121.344 41H121.344V47ZM130.102 51.7549L125.302 55.3549L125.304 55.3577L130.102 51.7549ZM155.653 85.7822L150.855 89.385C151.8 90.6425 153.2 91.479 154.754 91.7145L155.653 85.7822ZM155.686 85.7871L160.302 81.954C159.362 80.8223 158.039 80.0752 156.584 79.8548L155.686 85.7871ZM188.092 128.765L193.764 126.809L193.764 126.809L188.092 128.765ZM188.092 159.294L182.12 158.708C182.101 158.903 182.092 159.098 182.092 159.294L188.092 159.294ZM181.397 165.987L181.335 171.987C181.356 171.987 181.377 171.987 181.397 171.987V165.987ZM169.419 165.863L169.481 159.864C169.46 159.863 169.44 159.863 169.419 159.863V165.863ZM19.4316 165.863L19.4313 171.863H19.4316V165.863ZM12.9258 159.294H18.9258C18.9258 158.873 18.8815 158.453 18.7936 158.041L12.9258 159.294ZM12.9258 128.766L7.39804 126.432L7.398 126.432L12.9258 128.766ZM38.874 96.2363L43.2869 100.302C44.6004 98.8758 45.144 96.9033 44.7465 95.0059L38.874 96.2363ZM38.5049 92.6328L32.5049 92.6327V92.6328H38.5049ZM47.2705 76.5381L50.7611 81.4182C52.3263 80.2987 53.2595 78.4963 53.2704 76.572L47.2705 76.5381ZM47.2852 72.8838L41.2852 72.8837V72.8838H47.2852ZM62.7178 55.8975L62.7178 49.8975H62.7178V55.8975ZM70.9639 58.4385L67.5903 63.4002C70.1515 65.1416 73.6173 64.6475 75.5897 62.2596L70.9639 58.4385ZM77.3633 50.6914L72.8918 46.6906C72.8392 46.7495 72.7877 46.8094 72.7374 46.8702L77.3633 50.6914ZM121.344 47L121.343 53C122.513 53 123.975 53.5867 125.302 55.3549L130.102 51.7549L134.902 48.1549C131.724 43.9176 126.931 41.0002 121.344 41L121.344 47ZM130.102 51.7549L125.304 55.3577L150.855 89.385L155.653 85.7822L160.451 82.1794L134.899 48.1521L130.102 51.7549ZM155.653 85.7822L154.754 91.7145L154.787 91.7194L155.686 85.7871L156.584 79.8548L156.552 79.8499L155.653 85.7822ZM155.686 85.7871L151.07 89.6202C151.089 89.6433 158.57 98.6525 166.326 108.484C170.208 113.405 174.122 118.485 177.193 122.727C178.732 124.852 180.02 126.713 180.975 128.209C181.453 128.957 181.819 129.569 182.08 130.048C182.365 130.569 182.435 130.765 182.42 130.721L188.092 128.765L193.764 126.809C193.214 125.215 192.123 123.371 191.09 121.752C189.957 119.977 188.517 117.905 186.913 115.689C183.699 111.25 179.667 106.021 175.747 101.051C167.897 91.1008 160.34 82.0004 160.302 81.954L155.686 85.7871ZM188.092 128.765L182.42 130.721C182.68 131.477 182.97 133.42 183.079 136.595C183.181 139.556 183.115 142.99 182.972 146.309C182.83 149.611 182.617 152.72 182.438 155.008C182.349 156.15 182.269 157.082 182.211 157.726C182.183 158.047 182.159 158.297 182.144 158.464C182.136 158.547 182.13 158.61 182.126 158.651C182.124 158.672 182.123 158.687 182.122 158.696C182.121 158.701 182.121 158.704 182.121 158.706C182.121 158.707 182.12 158.708 182.12 158.708C182.12 158.708 182.12 158.708 182.12 158.708C182.12 158.708 182.12 158.708 188.092 159.294C194.063 159.88 194.063 159.88 194.063 159.879C194.063 159.879 194.063 159.878 194.063 159.878C194.063 159.876 194.064 159.875 194.064 159.873C194.064 159.869 194.065 159.864 194.065 159.857C194.067 159.844 194.069 159.824 194.071 159.8C194.076 159.75 194.082 159.679 194.091 159.587C194.108 159.403 194.133 159.135 194.164 158.793C194.225 158.111 194.309 157.134 194.402 155.942C194.587 153.563 194.811 150.307 194.961 146.824C195.11 143.356 195.189 139.58 195.072 136.183C194.963 132.999 194.67 129.435 193.764 126.809L188.092 128.765ZM188.092 159.294L182.092 159.294C182.092 159.67 181.776 159.987 181.397 159.987V165.987V171.987C188.401 171.987 194.092 166.299 194.092 159.294L188.092 159.294ZM181.397 165.987L181.46 159.988L169.481 159.864L169.419 165.863L169.357 171.863L181.335 171.987L181.397 165.987ZM169.419 165.863V159.863H19.4316V165.863V171.863H169.419V165.863ZM19.4316 165.863L19.432 159.863C19.3314 159.863 19.2137 159.827 19.0985 159.711C18.9851 159.597 18.9258 159.455 18.9258 159.294H12.9258H6.92578C6.92578 166.198 12.5142 171.863 19.4313 171.863L19.4316 165.863ZM12.9258 159.294L18.7936 158.041C18.8076 158.107 17.7831 153.31 17.2756 147.326C16.7402 141.013 16.9184 134.736 18.4536 131.099L12.9258 128.766L7.398 126.432C4.61074 133.036 4.77858 141.974 5.31855 148.341C5.88644 155.036 7.02314 160.383 7.05796 160.546L12.9258 159.294ZM12.9258 128.766L18.4535 131.099C18.9122 130.012 20.0147 128.164 21.8443 125.607C23.6084 123.142 25.832 120.314 28.29 117.342C33.2021 111.4 38.8758 105.09 43.2869 100.302L38.874 96.2363L34.4611 92.1711C29.99 97.0245 24.152 103.514 19.0417 109.695C16.4885 112.783 14.0732 115.847 12.0858 118.624C10.1637 121.31 8.40171 124.055 7.39804 126.432L12.9258 128.766ZM38.874 96.2363L44.7465 95.0059C44.5898 94.2577 44.5049 93.4668 44.5049 92.6328H38.5049H32.5049C32.5049 94.2866 32.6738 95.9023 33.0015 97.4667L38.874 96.2363ZM38.5049 92.6328L44.5049 92.633C44.505 88.3798 46.7335 84.2991 50.7611 81.4182L47.2705 76.5381L43.7799 71.658C37.0972 76.4379 32.5051 83.9363 32.5049 92.6327L38.5049 92.6328ZM47.2705 76.5381C53.2704 76.572 53.2704 76.572 53.2704 76.5719C53.2704 76.5719 53.2704 76.5719 53.2704 76.5718C53.2704 76.5717 53.2704 76.5716 53.2704 76.5714C53.2704 76.5711 53.2704 76.5706 53.2704 76.57C53.2704 76.5687 53.2704 76.5668 53.2705 76.5643C53.2705 76.5593 53.2705 76.5518 53.2706 76.5421C53.2707 76.5227 53.2708 76.4942 53.271 76.4575C53.2715 76.3842 53.272 76.2783 53.2727 76.148C53.2741 75.8874 53.2759 75.5289 53.2778 75.1369C53.2814 74.358 53.2852 73.4305 53.2852 72.8838H47.2852H41.2852C41.2852 73.3978 41.2816 74.2975 41.2779 75.0806C41.2761 75.4696 41.2743 75.8257 41.2729 76.0845C41.2722 76.214 41.2716 76.319 41.2712 76.3916C41.271 76.428 41.2709 76.4562 41.2708 76.4753C41.2707 76.4848 41.2707 76.4921 41.2706 76.4969C41.2706 76.4994 41.2706 76.5012 41.2706 76.5024C41.2706 76.503 41.2706 76.5035 41.2706 76.5038C41.2706 76.5039 41.2706 76.504 41.2706 76.5041C41.2706 76.5041 41.2706 76.5042 41.2706 76.5042C41.2706 76.5042 41.2706 76.5042 47.2705 76.5381ZM47.2852 72.8838L53.2852 72.8839C53.2853 65.9963 57.9603 61.8975 62.7178 61.8975V55.8975V49.8975C50.4297 49.8975 41.2853 60.3097 41.2852 72.8837L47.2852 72.8838ZM62.7178 55.8975L62.7178 61.8975C64.5116 61.8975 66.17 62.4345 67.5903 63.4002L70.9639 58.4385L74.3374 53.4767C70.9868 51.1985 66.9891 49.8975 62.7178 49.8975L62.7178 55.8975ZM70.9639 58.4385L75.5897 62.2596L81.9892 54.5126L77.3633 50.6914L72.7374 46.8702L66.338 54.6173L70.9639 58.4385ZM77.3633 50.6914L81.8347 54.6922C82.9395 53.4574 84.1794 53 85.1836 53V47V41C80.4323 41 76.0411 43.1709 72.8918 46.6906L77.3633 50.6914ZM85.1836 47V53H121.344V47V41H85.1836V47Z" fill="white" mask="url(#path-1-outside-1_1347_14397)"/>
<path d="M121.216 65.2678L91.8754 65.0801L46.2072 88.4146C46.2072 88.4146 17.2588 118.5 12.9258 128.765C8.59277 139.031 12.9258 159.294 12.9258 159.294C12.9258 162.923 15.8661 165.863 19.4319 165.863H170.617C174.245 165.863 177.123 162.923 177.123 159.357V128.765L121.216 65.2678Z" fill="#474747"/>
<path d="M100.509 78.2793L106.765 103.303C109.955 113.625 117.4 115.815 125.532 115.815H125.845C131.913 115.815 137.982 119.819 141.548 125.199L169.324 165.862L181.398 165.987C185.089 165.987 188.092 162.984 188.092 159.293C188.092 159.293 190.424 135.529 188.092 128.765C185.759 122 155.686 85.7864 155.686 85.7864L100.509 78.2793Z" fill="#828282"/>
<path d="M130.102 51.7545C127.85 48.7517 124.722 47 121.344 47H93.2998C84.5878 76.7006 91.8022 67.373 98.6349 90.7288C109.395 90.7288 109.395 84.4729 120.155 84.4729C130.915 84.4729 130.915 90.7288 141.738 90.7288C149.183 90.7288 151.497 87.726 155.751 85.9118L130.102 51.7545Z" fill="#F4F4F4"/>
<path d="M113.021 47L110.742 47.7601C101.438 50.8612 96.0905 60.6022 98.469 70.1162L103.491 90.2021C102.133 90.5293 100.555 90.7288 98.6335 90.7288C93.2146 90.7288 90.5089 89.1605 87.807 87.594C85.1132 86.0325 82.4232 84.4729 77.0506 84.4729C71.6317 84.4729 68.926 86.0413 66.2241 87.6078C63.5303 89.1692 60.8401 90.7288 55.4677 90.7288C51.0886 90.7288 48.5237 89.6653 46.209 88.4142L77.3634 50.691C79.4904 48.3137 82.3055 47 85.1833 47H113.021Z" fill="#D1D1D1"/>
<path d="M77.2056 66.2833C78.5728 65.4029 79.6502 62.517 78.7348 61.1903C77.8243 59.8596 74.6502 59.6908 73.283 60.5712C71.9158 61.4516 71.3986 63.0345 72.767 65.0188C74.1354 67.0032 75.8385 67.1637 77.2056 66.2833Z" fill="#E8BE0F"/>
<path d="M68.3162 103.654C68.7633 103.636 69.1413 103.984 69.1596 104.431L69.5558 114.166L71.6424 114.71C72.0753 114.823 72.3352 115.266 72.2223 115.699C72.1092 116.132 71.6665 116.391 71.2337 116.278L69.6542 115.866L69.7854 117.78C69.8153 118.226 69.4784 118.612 69.0324 118.643C68.5861 118.673 68.199 118.335 68.1686 117.889L68.069 116.424L65.9595 118.159C65.6138 118.444 65.1032 118.393 64.8189 118.048C64.535 117.702 64.5844 117.192 64.9297 116.908L67.9446 114.428L67.5408 104.497C67.5227 104.05 67.8694 103.672 68.3162 103.654Z" fill="#868686"/>
<path d="M52.8923 104.262C53.2704 104.501 53.3833 105.002 53.1439 105.38L48.2891 113.047L49.6259 115.933C49.8139 116.339 49.6384 116.82 49.233 117.009C48.8269 117.197 48.3441 117.02 48.1559 116.614L47.162 114.47L45.1935 116.763C44.902 117.103 44.3905 117.142 44.0509 116.851C43.7119 116.559 43.6735 116.049 43.9645 115.709L45.463 113.962L43.3857 114.139C42.9402 114.177 42.5488 113.847 42.5104 113.401C42.4725 112.956 42.8031 112.562 43.249 112.524L46.9 112.214L51.7745 104.513L51.8227 104.445C52.0762 104.122 52.5378 104.038 52.8923 104.262Z" fill="#868686"/>
<path d="M86.9165 92.6334C86.9165 96.7586 85.5316 100.434 83.1376 103.447C78.9682 108.707 71.7492 111.963 63.4915 112.154C63.2337 112.154 62.9685 112.162 62.7107 112.162C62.4529 112.162 62.1877 112.162 61.9299 112.154C53.6648 111.963 46.4532 108.699 42.2838 103.447C39.8971 100.434 38.5049 96.7586 38.5049 92.6334C38.5049 86.1584 41.9155 80.3685 47.2708 76.538C47.2708 76.538 47.2856 73.945 47.2856 72.8843C47.2856 63.1533 54.1952 55.8975 62.7181 55.8975C71.2409 55.8975 78.1506 63.1533 78.1506 72.8843C78.1506 73.945 77.8412 76.0665 77.6865 76.2065C78.0106 76.4054 78.1579 76.5306 78.1579 76.5306C83.5133 80.3685 86.9239 86.151 86.9239 92.6334H86.9165Z" fill="#4B9AE8"/>
<path d="M69.6732 68.1839C67.8158 68.1839 66.3102 66.6783 66.3102 64.821C66.3102 62.9637 67.8158 61.458 69.6732 61.458C71.5305 61.458 73.0361 62.9637 73.0361 64.821C73.0361 66.6783 71.5305 68.1839 69.6732 68.1839Z" fill="white"/>
<path d="M69.673 66.6149C68.6823 66.6149 67.8792 65.8118 67.8792 64.8211C67.8792 63.8305 68.6823 63.0273 69.673 63.0273C70.6637 63.0273 71.4668 63.8305 71.4668 64.8211C71.4668 65.8118 70.6637 66.6149 69.673 66.6149Z" fill="#040000"/>
<path d="M69.8321 78.9963L82.4457 68.8379C85.5271 66.3566 89.6548 66.9946 90.5999 70.0985C92.0786 74.9483 92.5726 81.8919 86.2467 86.9827C80.9615 91.2409 74.9861 90.9391 70.2671 89.5292C65.8351 88.2036 65.6029 82.4002 69.8321 78.9963Z" fill="#276288"/>
</svg>
