<svg width="200" height="200" viewBox="0 0 200 200" fill="none" xmlns="http://www.w3.org/2000/svg">
<mask id="path-1-outside-1_1062_29222" maskUnits="userSpaceOnUse" x="14" y="14" width="172" height="172" fill="black">
<rect fill="white" x="14" y="14" width="172" height="172"/>
<path d="M100 20C103.448 20 106.874 20.2238 110.257 20.6611C110.585 20.5913 110.928 20.5557 111.283 20.5557H131.794C132.612 20.5557 134.741 20.9335 134.741 23.3779C134.741 24.5688 134.487 25.133 133.803 26.0752L133.04 27.1426C136.767 28.8327 140.366 30.8098 143.805 33.0596C144.735 32.3936 145.917 32.0401 147.208 32.04H174.604C175.692 32.04 178.537 32.5423 178.537 35.8086C178.537 37.3995 178.2 38.1555 177.284 39.4131L166.147 55.0088C168.539 58.5247 170.641 62.2169 172.437 66.0488H174.187C177.195 66.049 179.631 67.9735 179.631 71.3242C179.631 73.8051 178.295 75.5027 176.381 76.2178C178.757 83.849 180 91.8602 180 100C180 121.217 171.571 141.565 156.568 156.568C141.565 171.571 121.217 180 100 180C78.7827 180 58.4346 171.571 43.4316 156.568C28.4287 141.565 20 121.217 20 100C20 78.7827 28.4287 58.4346 43.4316 43.4316C58.4346 28.4287 78.7827 20 100 20ZM155.719 42.5957C156.004 42.8722 156.287 43.1505 156.568 43.4316C157.36 44.2234 158.133 45.0307 158.888 45.8516L161.204 42.5957H155.719Z"/>
</mask>
<path d="M100 20C103.448 20 106.874 20.2238 110.257 20.6611C110.585 20.5913 110.928 20.5557 111.283 20.5557H131.794C132.612 20.5557 134.741 20.9335 134.741 23.3779C134.741 24.5688 134.487 25.133 133.803 26.0752L133.04 27.1426C136.767 28.8327 140.366 30.8098 143.805 33.0596C144.735 32.3936 145.917 32.0401 147.208 32.04H174.604C175.692 32.04 178.537 32.5423 178.537 35.8086C178.537 37.3995 178.2 38.1555 177.284 39.4131L166.147 55.0088C168.539 58.5247 170.641 62.2169 172.437 66.0488H174.187C177.195 66.049 179.631 67.9735 179.631 71.3242C179.631 73.8051 178.295 75.5027 176.381 76.2178C178.757 83.849 180 91.8602 180 100C180 121.217 171.571 141.565 156.568 156.568C141.565 171.571 121.217 180 100 180C78.7827 180 58.4346 171.571 43.4316 156.568C28.4287 141.565 20 121.217 20 100C20 78.7827 28.4287 58.4346 43.4316 43.4316C58.4346 28.4287 78.7827 20 100 20ZM155.719 42.5957C156.004 42.8722 156.287 43.1505 156.568 43.4316C157.36 44.2234 158.133 45.0307 158.888 45.8516L161.204 42.5957H155.719Z" fill="#474747"/>
<path d="M100 20V14V20ZM110.257 20.6611L109.488 26.6116C110.161 26.6986 110.844 26.6708 111.508 26.5293L110.257 20.6611ZM134.741 23.3779L140.741 23.3781V23.3779H134.741ZM133.803 26.0752L128.948 22.5489C128.939 22.5615 128.93 22.5742 128.921 22.5869L133.803 26.0752ZM133.04 27.1426L128.158 23.6543C127.115 25.1145 126.78 26.9652 127.245 28.6985C127.711 30.4318 128.928 31.8658 130.562 32.607L133.04 27.1426ZM143.805 33.0596L140.519 38.0802C142.591 39.4358 145.283 39.3798 147.296 37.9391L143.805 33.0596ZM147.208 32.04L147.208 26.04L147.208 26.04L147.208 32.04ZM178.537 35.8086L184.537 35.8086L184.537 35.8082L178.537 35.8086ZM177.284 39.4131L172.433 35.8821C172.422 35.8968 172.412 35.9115 172.401 35.9263L177.284 39.4131ZM166.147 55.0088L161.265 51.522C159.804 53.567 159.773 56.3053 161.186 58.3832L166.147 55.0088ZM172.437 66.0488L167.004 68.5951C167.991 70.7027 170.109 72.0488 172.437 72.0488V66.0488ZM174.187 66.0488L174.187 60.0488H174.187V66.0488ZM179.631 71.3242L185.631 71.3242L185.631 71.3239L179.631 71.3242ZM176.381 76.2178L174.281 70.5972C171.298 71.7114 169.706 74.9616 170.652 78.0016L176.381 76.2178ZM180 100H186H180ZM100 180L100 186L100 180ZM43.4316 156.568L39.189 160.811L39.189 160.811L43.4316 156.568ZM20 100H14H20ZM155.719 42.5957V36.5957C153.276 36.5957 151.077 38.0769 150.159 40.3409C149.24 42.6049 149.787 45.1994 151.54 46.901L155.719 42.5957ZM156.568 43.4316L160.811 39.189L160.811 39.189L156.568 43.4316ZM158.888 45.8516L154.471 49.9129C155.696 51.245 157.457 51.953 159.263 51.8398C161.069 51.7266 162.728 50.8044 163.777 49.3298L158.888 45.8516ZM161.204 42.5957L166.093 46.074C167.395 44.2443 167.566 41.8409 166.537 39.8452C165.507 37.8495 163.45 36.5957 161.204 36.5957V42.5957ZM100 20V26C103.189 26 106.357 26.207 109.488 26.6116L110.257 20.6611L111.026 14.7106C107.39 14.2407 103.708 14 100 14V20ZM110.257 20.6611L111.508 26.5293C111.406 26.5511 111.329 26.5557 111.283 26.5557V20.5557V14.5557C110.528 14.5557 109.764 14.6315 109.006 14.7929L110.257 20.6611ZM111.283 20.5557V26.5557H131.794V20.5557V14.5557H111.283V20.5557ZM131.794 20.5557V26.5557C131.577 26.5557 131.402 26.5348 131.233 26.4951C131.063 26.4554 130.749 26.3616 130.375 26.1259C129.972 25.8722 129.506 25.4538 129.161 24.8382C128.812 24.2154 128.741 23.6649 128.741 23.3779H134.741H140.741C140.741 20.0364 139.101 17.4415 136.774 15.9744C134.852 14.7628 132.869 14.5557 131.794 14.5557V20.5557ZM134.741 23.3779L128.741 23.3777C128.741 23.4681 128.736 23.424 128.754 23.2977C128.775 23.1548 128.818 22.9658 128.893 22.7594C129.036 22.371 129.196 22.2074 128.948 22.5489L133.803 26.0752L138.657 29.6015C139.093 29.0009 139.724 28.0841 140.164 26.8803C140.63 25.6062 140.741 24.4167 140.741 23.3781L134.741 23.3779ZM133.803 26.0752L128.921 22.5869L128.158 23.6543L133.04 27.1426L137.922 30.6309L138.685 29.5635L133.803 26.0752ZM133.04 27.1426L130.562 32.607C134.01 34.1703 137.339 35.9991 140.519 38.0802L143.805 33.0596L147.09 28.0389C143.394 25.6204 139.525 23.4951 135.518 21.6782L133.04 27.1426ZM143.805 33.0596L147.296 37.9391C147.19 38.0148 147.113 38.0417 147.093 38.0479C147.073 38.0537 147.109 38.04 147.208 38.04L147.208 32.04L147.208 26.04C144.835 26.0401 142.392 26.6925 140.313 28.18L143.805 33.0596ZM147.208 32.04V38.04H174.604V32.04V26.04H147.208V32.04ZM174.604 32.04V38.04C174.455 38.04 174.376 38.0271 174.312 38.0121C174.247 37.997 174.048 37.9446 173.78 37.7758C173.483 37.5889 173.115 37.2631 172.841 36.7744C172.563 36.2788 172.537 35.8901 172.537 35.809L178.537 35.8086L184.537 35.8082C184.537 32.0563 182.718 29.2243 180.177 27.6231C178.042 26.2776 175.813 26.04 174.604 26.04V32.04ZM178.537 35.8086H172.537C172.537 36.0002 172.526 36.0442 172.533 35.998C172.537 35.9724 172.545 35.9271 172.56 35.8672C172.575 35.8066 172.594 35.743 172.617 35.6798C172.64 35.6171 172.662 35.5671 172.679 35.5327C172.695 35.4995 172.702 35.4874 172.695 35.5005C172.686 35.5147 172.664 35.5512 172.62 35.6164C172.576 35.6821 172.516 35.7679 172.433 35.8821L177.284 39.4131L182.135 42.944C182.691 42.1807 183.4 41.1357 183.891 39.7919C184.405 38.3805 184.537 37.044 184.537 35.8086H178.537ZM177.284 39.4131L172.401 35.9263L161.265 51.522L166.147 55.0088L171.03 58.4956L182.167 42.8999L177.284 39.4131ZM166.147 55.0088L161.186 58.3832C163.398 61.6357 165.343 65.051 167.004 68.5951L172.437 66.0488L177.869 63.5025C175.939 59.3829 173.679 55.4137 171.109 51.6344L166.147 55.0088ZM172.437 66.0488V72.0488H174.187V66.0488V60.0488H172.437V66.0488ZM174.187 66.0488L174.186 72.0488C174.432 72.0488 174.275 72.1204 173.99 71.8595C173.848 71.7305 173.74 71.5724 173.676 71.4219C173.614 71.2746 173.631 71.2213 173.631 71.3245L179.631 71.3242L185.631 71.3239C185.631 68.1007 184.411 65.1266 182.084 63.0006C179.829 60.9397 176.949 60.049 174.187 60.0488L174.187 66.0488ZM179.631 71.3242H173.631C173.631 71.4034 173.621 71.393 173.643 71.3171C173.667 71.2392 173.714 71.1275 173.798 71.0064C173.98 70.745 174.195 70.6295 174.281 70.5972L176.381 76.2178L178.481 81.8384C182.729 80.2513 185.631 76.321 185.631 71.3242H179.631ZM176.381 76.2178L170.652 78.0016C172.851 85.0616 174 92.4716 174 100H180H186C186 91.2488 184.664 82.6364 182.11 74.4339L176.381 76.2178ZM180 100L174 100C174 119.626 166.203 138.448 152.326 152.326L156.568 156.568L160.811 160.811C176.939 144.683 186 122.809 186 100L180 100ZM156.568 156.568L152.326 152.326C138.448 166.203 119.626 174 100 174L100 180L100 186C122.809 186 144.683 176.939 160.811 160.811L156.568 156.568ZM100 180L100 174C80.374 174 61.552 166.203 47.6743 152.326L43.4316 156.568L39.189 160.811C55.3171 176.939 77.1913 186 100 186L100 180ZM43.4316 156.568L47.6743 152.326C33.7966 138.448 26 119.626 26 100H20H14C14 122.809 23.0609 144.683 39.189 160.811L43.4316 156.568ZM20 100H26C26 80.374 33.7966 61.552 47.6743 47.6743L43.4316 43.4316L39.189 39.189C23.0609 55.3171 14 77.1913 14 100H20ZM43.4316 43.4316L47.6743 47.6743C61.552 33.7966 80.374 26 100 26V20V14C77.1913 14 55.3171 23.0609 39.189 39.189L43.4316 43.4316ZM155.719 42.5957L151.54 46.901C151.809 47.1628 152.071 47.4195 152.326 47.6743L156.568 43.4316L160.811 39.189C160.503 38.8815 160.198 38.5816 159.898 38.2904L155.719 42.5957ZM156.568 43.4316L152.326 47.6743C153.056 48.4043 153.771 49.151 154.471 49.9129L158.888 45.8516L163.304 41.7902C162.495 40.9104 161.664 40.0425 160.811 39.189L156.568 43.4316ZM158.888 45.8516L163.777 49.3298L166.093 46.074L161.204 42.5957L156.315 39.1174L153.999 42.3733L158.888 45.8516ZM161.204 42.5957V36.5957H155.719V42.5957V48.5957H161.204V42.5957Z" fill="white" mask="url(#path-1-outside-1_1062_29222)"/>
<path d="M20 100C20 121.217 28.4285 141.566 43.4315 156.569C58.4344 171.571 78.7827 180 100 180C121.217 180 141.566 171.571 156.569 156.569C171.571 141.566 180 121.217 180 100C180 78.7827 171.571 58.4344 156.569 43.4315C141.566 28.4285 121.217 20 100 20C78.7827 20 58.4344 28.4285 43.4315 43.4315C28.4285 58.4344 20 78.7827 20 100Z" fill="#4B9AE8"/>
<path d="M117.485 120.366C117.349 127.68 108.112 138.928 100.246 138.862C92.3797 138.796 83.5751 127.388 83.7183 120.074C83.8544 112.76 89.1173 106.873 100.855 106.972C112.73 107.076 117.628 113.051 117.485 120.366Z" fill="#EAC00F"/>
<path d="M161.204 42.5956H147.208C144.191 42.5956 141.764 40.6712 141.764 37.32C141.764 33.9689 144.191 32.04 147.208 32.04H174.604C175.693 32.04 178.537 32.5423 178.537 35.8089C178.537 37.4 178.199 38.1556 177.284 39.4134L158.266 66.0489H174.186C177.195 66.0489 179.631 67.9734 179.631 71.3245C179.631 74.6756 177.195 76.6 174.186 76.6H146.119C143.439 76.6 141.182 75.2578 141.182 72.4934C141.182 71.1512 141.848 69.8978 142.266 69.2267L161.204 42.5956Z" fill="#2A6797"/>
<path d="M121.759 28.4576H111.283C109.025 28.4576 107.208 27.0176 107.208 24.5065C107.208 21.9999 109.025 20.5554 111.283 20.5554H131.794C132.612 20.5554 134.741 20.9332 134.741 23.3776C134.741 24.5688 134.488 25.1332 133.803 26.0754L119.568 46.0176H131.488C133.732 46.0176 135.554 47.4576 135.554 49.9688C135.554 52.4799 133.732 53.9199 131.479 53.9199H110.465C108.456 53.9199 106.768 52.9154 106.768 50.8488C106.768 49.8443 107.27 48.9065 107.581 48.4043L121.759 28.4576Z" fill="#2A6797"/>
<path d="M91.2784 45.1199H82.3139C80.3806 45.1199 78.825 43.8844 78.825 41.7377C78.825 39.591 80.3806 38.3555 82.3139 38.3555H99.8695C100.567 38.3555 102.389 38.6799 102.389 40.7732C102.389 41.791 102.176 42.2755 101.585 43.0799L89.3984 60.1466H99.5984C101.527 60.1466 103.087 61.3821 103.087 63.5288C103.087 65.6755 101.527 66.911 99.5984 66.911H81.6117C79.8962 66.911 78.4473 66.0532 78.4473 64.2799C78.4473 63.4221 78.8739 62.6177 79.145 62.1866L91.2784 45.1199Z" fill="#2A6797"/>
<path d="M67 114C76.9411 114 85 105.941 85 96C85 86.0589 76.9411 78 67 78C57.0589 78 49 86.0589 49 96C49 105.941 57.0589 114 67 114Z" fill="white"/>
<path d="M77.4178 94.2945C77.9494 93.8926 78.6717 93.9075 79.1801 94.3365C79.6915 94.7625 79.8648 95.4885 79.599 96.1095C79.4257 96.5144 75.2684 106 66.7226 106C58.1797 106 54.0195 96.5144 53.8462 96.1095C53.5804 95.4855 53.7537 94.7535 54.268 94.3275C54.7793 93.9016 55.5045 93.8895 56.0332 94.3005C56.0621 94.3215 59.6734 97.0004 66.7226 97.0004C73.7747 97.0004 77.3832 94.3215 77.4178 94.2945Z" fill="#474747"/>
<path d="M134 114C143.941 114 152 105.941 152 96C152 86.0589 143.941 78 134 78C124.059 78 116 86.0589 116 96C116 105.941 124.059 114 134 114Z" fill="white"/>
<path d="M144.418 94.2945C144.949 93.8926 145.672 93.9075 146.18 94.3365C146.691 94.7625 146.865 95.4885 146.599 96.1095C146.426 96.5144 142.268 106 133.723 106C125.18 106 121.02 96.5144 120.846 96.1095C120.58 95.4855 120.754 94.7535 121.268 94.3275C121.779 93.9016 122.504 93.8895 123.033 94.3005C123.062 94.3215 126.673 97.0004 133.723 97.0004C140.775 97.0004 144.383 94.3215 144.418 94.2945Z" fill="#474747"/>
</svg>
