<svg width="200" height="200" viewBox="0 0 200 200" fill="none" xmlns="http://www.w3.org/2000/svg">
<mask id="path-1-outside-1_898_2768" maskUnits="userSpaceOnUse" x="12" y="15" width="175" height="169" fill="black">
<rect fill="white" x="12" y="15" width="175" height="169"/>
<path d="M80.3886 31.0127C80.2995 27.6181 80.5535 16.0178 85.334 25.9053C86.4534 28.2223 90.3164 30.047 94.5478 33.2305C111.241 28.0994 142.495 31.7022 165.791 47.664C180.395 58.9242 175.001 75.7346 173.949 78.582C180.187 112.147 187.401 167.562 168.582 174C153.288 179.232 127.259 177.827 127.189 174C127.121 170.173 126.876 166.393 126.269 162.65C120.51 127 114.686 120.07 114.686 120.07C114.686 135.819 99.3283 142.341 83.8466 142.617C66.9837 152.407 65.5973 163.057 57.4648 168.99C42.5131 179.899 24.7727 170.33 19.9834 156.187C16.3514 145.474 23.0144 136.366 36.1015 108.327C47.3329 84.2786 53.1643 71.1756 59.9463 62.5723C59.9334 61.3706 59.9742 48.9633 66.9834 42.54C64.4631 37.6265 63.3875 34.2685 62.3769 31.1816C59.7412 23.1043 64.563 26.6471 67.6103 29.6982C69.0943 31.1824 75.0226 34.8166 80.8486 38.2314C80.9976 38.2173 81.1453 38.2019 81.292 38.1885C80.7194 35.6162 80.4457 33.2356 80.3886 31.0127Z"/>
</mask>
<path d="M80.3886 31.0127C80.2995 27.6181 80.5535 16.0178 85.334 25.9053C86.4534 28.2223 90.3164 30.047 94.5478 33.2305C111.241 28.0994 142.495 31.7022 165.791 47.664C180.395 58.9242 175.001 75.7346 173.949 78.582C180.187 112.147 187.401 167.562 168.582 174C153.288 179.232 127.259 177.827 127.189 174C127.121 170.173 126.876 166.393 126.269 162.65C120.51 127 114.686 120.07 114.686 120.07C114.686 135.819 99.3283 142.341 83.8466 142.617C66.9837 152.407 65.5973 163.057 57.4648 168.99C42.5131 179.899 24.7727 170.33 19.9834 156.187C16.3514 145.474 23.0144 136.366 36.1015 108.327C47.3329 84.2786 53.1643 71.1756 59.9463 62.5723C59.9334 61.3706 59.9742 48.9633 66.9834 42.54C64.4631 37.6265 63.3875 34.2685 62.3769 31.1816C59.7412 23.1043 64.563 26.6471 67.6103 29.6982C69.0943 31.1824 75.0226 34.8166 80.8486 38.2314C80.9976 38.2173 81.1453 38.2019 81.292 38.1885C80.7194 35.6162 80.4457 33.2356 80.3886 31.0127Z" fill="#CCE2FB"/>
<path d="M80.3886 31.0127L86.3867 30.8587L86.3866 30.8551L80.3886 31.0127ZM85.334 25.9053L90.7364 23.2951L90.7357 23.2936L85.334 25.9053ZM94.5478 33.2305L90.9407 38.0251C92.4767 39.1807 94.4733 39.5304 96.3107 38.9656L94.5478 33.2305ZM165.791 47.664L169.455 42.9124C169.366 42.8439 169.275 42.7779 169.182 42.7144L165.791 47.664ZM173.949 78.582L168.321 76.5032C167.946 77.5178 167.853 78.6149 168.05 79.6783L173.949 78.582ZM168.582 174L170.524 179.677L170.524 179.677L168.582 174ZM127.189 174L121.19 174.107L121.19 174.109L127.189 174ZM126.269 162.65L120.346 163.607L120.347 163.61L126.269 162.65ZM114.686 120.07L119.28 116.21C117.658 114.28 115.001 113.57 112.632 114.433C110.263 115.296 108.686 117.549 108.686 120.07H114.686ZM83.8466 142.617L83.7398 136.618C82.7181 136.636 81.7179 136.915 80.8342 137.428L83.8466 142.617ZM57.4648 168.99L61.0012 173.837L61.0012 173.837L57.4648 168.99ZM19.9834 156.187L25.6663 154.263L25.6657 154.261L19.9834 156.187ZM36.1015 108.327L30.6652 105.788L30.6646 105.789L36.1015 108.327ZM59.9463 62.5723L64.6582 66.2867C65.5062 65.211 65.9606 63.8776 65.9459 62.508L59.9463 62.5723ZM66.9834 42.54L71.0371 46.9635C73.0292 45.1379 73.5553 42.2059 72.322 39.8017L66.9834 42.54ZM62.3769 31.1816L56.6729 33.0429L56.6747 33.0483L62.3769 31.1816ZM67.6103 29.6982L63.3651 33.9382L63.3674 33.9406L67.6103 29.6982ZM80.8486 38.2314L77.8145 43.4078C78.9013 44.0448 80.161 44.3236 81.4151 44.2046L80.8486 38.2314ZM81.292 38.1885L81.841 44.1633C83.5579 44.0055 85.124 43.1168 86.1398 41.7237C87.1557 40.3307 87.5232 38.5679 87.1487 36.8849L81.292 38.1885ZM80.3886 31.0127L86.3866 30.8551C86.3678 30.1396 86.3672 28.9569 86.4403 27.7572C86.5208 26.4381 86.6647 25.5808 86.7642 25.2611C86.8421 25.0106 86.7042 25.6762 85.9698 26.44C85.5322 26.895 84.7636 27.5046 83.6272 27.814C82.441 28.1371 81.3367 28.0011 80.5013 27.7006C79.1427 27.2119 78.6632 26.3686 78.9359 26.7341C79.0809 26.9286 79.4175 27.4524 79.9322 28.517L85.334 25.9053L90.7357 23.2936C90.0553 21.8862 89.3382 20.6097 88.5547 19.5593C87.8988 18.6799 86.6159 17.1473 84.5626 16.4088C83.3798 15.9833 81.9554 15.8323 80.4742 16.2357C79.0428 16.6255 78.0043 17.4108 77.32 18.1224C76.0921 19.3993 75.5532 20.9016 75.3062 21.6954C74.7557 23.4641 74.5541 25.5254 74.4626 27.0271C74.3638 28.6482 74.3649 30.1885 74.3907 31.1703L80.3886 31.0127ZM85.334 25.9053L79.9315 28.5154C81.2585 31.2622 83.8049 33.089 85.3341 34.1591C87.3969 35.6024 88.8691 36.4665 90.9407 38.0251L94.5478 33.2305L98.155 28.4358C95.9952 26.811 93.4202 25.1711 92.2137 24.3269C91.4732 23.8088 91.0229 23.4529 90.7447 23.1933C90.4594 22.927 90.5756 22.9622 90.7364 23.2951L85.334 25.9053ZM94.5478 33.2305L96.3107 38.9656C103.473 36.764 114.442 36.2978 126.654 38.4466C138.776 40.5798 151.576 45.1977 162.4 52.6137L165.791 47.664L169.182 42.7144C156.71 34.1686 142.235 29.0042 128.733 26.6282C115.32 24.2679 102.315 24.5659 92.785 27.4953L94.5478 33.2305ZM165.791 47.664L162.127 52.4157C167.786 56.7787 169.485 62.0282 169.751 66.6247C170.029 71.4247 168.709 75.4523 168.321 76.5032L173.949 78.582L179.578 80.6608C180.241 78.8643 182.144 73.063 181.731 65.9309C181.306 58.5953 178.4 49.8096 169.455 42.9124L165.791 47.664ZM173.949 78.582L168.05 79.6783C171.152 96.3708 174.438 118.209 174.662 136.537C174.775 145.743 174.105 153.654 172.463 159.463C170.764 165.474 168.502 167.686 166.64 168.323L168.582 174L170.524 179.677C178.072 177.095 181.965 169.966 184.011 162.727C186.114 155.286 186.779 146.039 186.661 136.39C186.424 117.01 182.984 94.358 179.848 77.4857L173.949 78.582ZM168.582 174L166.64 168.323C159.909 170.626 150.353 171.566 142.301 171.398C138.301 171.315 134.986 170.963 132.817 170.489C132.293 170.374 131.884 170.262 131.581 170.164C131.266 170.061 131.145 169.998 131.159 170.006C131.171 170.012 131.253 170.056 131.378 170.147C131.501 170.235 131.711 170.402 131.949 170.665C132.435 171.203 133.16 172.304 133.188 173.891L127.189 174L121.19 174.109C121.265 178.203 124.609 180.118 125.563 180.621C127.01 181.384 128.699 181.872 130.253 182.212C133.462 182.913 137.624 183.303 142.051 183.396C150.855 183.579 161.961 182.606 170.524 179.677L168.582 174ZM127.189 174L133.188 173.893C133.117 169.888 132.859 165.804 132.192 161.691L126.269 162.65L120.347 163.61C120.893 166.981 121.125 170.458 121.19 174.107L127.189 174ZM126.269 162.65L132.193 161.693C129.276 143.638 126.307 132.624 123.979 126.001C122.812 122.683 121.792 120.425 120.994 118.913C120.595 118.154 120.247 117.576 119.96 117.14C119.817 116.921 119.688 116.738 119.574 116.585C119.517 116.508 119.464 116.439 119.415 116.377C119.391 116.345 119.367 116.316 119.345 116.288C119.333 116.274 119.322 116.261 119.311 116.248C119.306 116.241 119.301 116.235 119.295 116.229C119.293 116.226 119.289 116.221 119.288 116.219C119.284 116.215 119.28 116.21 114.686 120.07C110.093 123.931 110.089 123.926 110.086 123.921C110.084 123.92 110.081 123.915 110.078 123.912C110.073 123.907 110.068 123.901 110.064 123.895C110.054 123.884 110.045 123.873 110.037 123.863C110.02 123.842 110.005 123.823 109.992 123.806C109.965 123.772 109.945 123.746 109.933 123.729C109.907 123.695 109.909 123.695 109.936 123.736C109.99 123.818 110.142 124.059 110.378 124.508C110.853 125.408 111.649 127.111 112.658 129.981C114.681 135.736 117.504 146.013 120.346 163.607L126.269 162.65ZM114.686 120.07H108.686C108.686 125.603 106.157 129.375 101.877 132.068C97.3296 134.929 90.8075 136.492 83.7398 136.618L83.8466 142.617L83.9535 148.616C92.3674 148.466 101.265 146.63 108.268 142.224C115.537 137.65 120.686 130.287 120.686 120.07H114.686ZM83.8466 142.617L80.8342 137.428C71.5267 142.832 66.3936 148.568 62.5819 153.65C61.6619 154.876 60.8159 156.069 60.0556 157.135C59.2773 158.225 58.5898 159.181 57.9018 160.07C56.5402 161.829 55.3253 163.124 53.9284 164.143L57.4648 168.99L61.0012 173.837C63.6706 171.89 65.6787 169.628 67.3912 167.416C68.2403 166.319 69.0527 165.185 69.8239 164.104C70.6131 162.998 71.3662 161.937 72.1817 160.85C75.3121 156.676 79.3036 152.193 86.8591 147.806L83.8466 142.617ZM57.4648 168.99L53.9284 164.143C48.2371 168.296 42.2729 168.491 37.1661 166.422C31.867 164.275 27.4961 159.666 25.6663 154.263L19.9834 156.187L14.3004 158.112C17.2599 166.851 24.1539 174.098 32.6603 177.544C41.359 181.068 51.7408 180.594 61.0012 173.837L57.4648 168.99ZM19.9834 156.187L25.6657 154.261C24.5175 150.874 24.7214 147.54 27.3439 140.982C30.1198 134.041 34.7848 125.334 41.5385 110.865L36.1015 108.327L30.6646 105.789C24.3312 119.359 19.1211 129.226 16.2017 136.526C13.1289 144.21 11.8173 150.787 14.301 158.114L19.9834 156.187ZM36.1015 108.327L41.5379 110.866C52.9708 86.386 58.4303 74.1872 64.6582 66.2867L59.9463 62.5723L55.2343 58.8578C47.8982 68.164 41.695 82.1713 30.6652 105.788L36.1015 108.327ZM59.9463 62.5723L65.9459 62.508C65.942 62.1416 65.9425 59.2361 66.6936 55.7933C67.4731 52.221 68.8724 48.9473 71.0371 46.9635L66.9834 42.54L62.9296 38.1166C58.0852 42.5561 55.9595 48.6976 54.9695 53.2352C53.9512 57.9023 53.9377 61.8013 53.9466 62.6365L59.9463 62.5723ZM66.9834 42.54L72.322 39.8017C70.0268 35.327 69.0695 32.34 68.0792 29.3149L62.3769 31.1816L56.6747 33.0483C57.7055 36.197 58.8993 39.926 61.6447 45.2784L66.9834 42.54ZM62.3769 31.1816L68.0809 29.3204C67.8077 28.4831 67.6839 27.9532 67.6345 27.6637C67.5741 27.3102 67.6658 27.5534 67.5687 28.1224C67.4641 28.7352 67.0111 30.3165 65.3131 31.4069C63.6949 32.446 62.1612 32.2477 61.6586 32.1448C61.1293 32.0364 60.8811 31.8721 60.9992 31.9379C61.0691 31.9769 61.2418 32.0842 61.5165 32.292C62.0678 32.7091 62.7285 33.3009 63.3651 33.9382L67.6103 29.6982L71.8556 25.4582C70.9685 24.57 69.8837 23.5748 68.7562 22.7219C67.8507 22.0369 66.119 20.8092 64.0664 20.3888C62.9354 20.1572 60.862 20.004 58.829 21.3095C56.7163 22.6662 55.9733 24.7351 55.7397 26.1039C55.3399 28.4466 56.0044 30.9942 56.6729 33.0429L62.3769 31.1816ZM67.6103 29.6982L63.3674 33.9406C64.6735 35.2468 67.1548 36.8902 69.3855 38.3063C71.8691 39.883 74.8777 41.6864 77.8145 43.4078L80.8486 38.2314L83.8827 33.0551C80.9935 31.3616 78.1249 29.6405 75.8169 28.1753C74.6604 27.4411 73.6872 26.7981 72.9414 26.2727C72.106 25.684 71.8289 25.4315 71.8533 25.4559L67.6103 29.6982ZM80.8486 38.2314L81.4151 44.2046C81.6763 44.1799 81.6662 44.1794 81.841 44.1633L81.292 38.1885L80.7429 32.2136C80.6244 32.2245 80.3189 32.2547 80.2821 32.2582L80.8486 38.2314ZM81.292 38.1885L87.1487 36.8849C86.6598 34.6887 86.4338 32.693 86.3867 30.8587L80.3886 31.0127L74.3906 31.1667C74.4577 33.7782 74.7791 36.5436 75.4353 39.492L81.292 38.1885Z" fill="white" mask="url(#path-1-outside-1_898_2768)"/>
<path d="M114.687 120.07C114.687 120.07 120.51 127 126.269 162.65C126.875 166.392 127.121 170.173 127.189 174C127.257 177.827 153.287 179.232 168.582 174C195.791 164.692 168.582 52.9951 168.582 52.9951C149.99 38.2764 124.511 35.2421 93.6618 45.5447C93.6618 45.5447 70.7425 32.8307 67.6108 29.6985C64.5634 26.6473 59.7407 23.1041 62.3765 31.1818C63.9193 35.8948 65.6147 41.2389 72.3698 51.7875C57.8079 60.4159 53.2436 71.6215 36.101 108.327C23.0139 136.366 16.3515 145.474 19.9834 156.187C24.7726 170.329 42.5132 179.899 57.465 168.99C65.5975 163.057 66.9835 152.407 83.8464 142.617C99.3281 142.341 114.687 135.819 114.687 120.07Z" fill="#4B9AE8"/>
<path d="M91.127 97.4969C96.955 97.2806 101.504 92.3806 101.288 86.5526C101.072 80.7245 96.1717 76.1753 90.3437 76.3916C84.5156 76.6079 79.9664 81.5078 80.1827 87.3358C80.399 93.1639 85.2989 97.7131 91.127 97.4969Z" fill="white"/>
<path d="M90.9442 92.564C94.0481 92.4488 96.4709 89.8393 96.3557 86.7354C96.2405 83.6315 93.6309 81.2087 90.5271 81.3239C87.4232 81.4391 85.0004 84.0487 85.1156 87.1525C85.2308 90.2564 87.8403 92.6792 90.9442 92.564Z" fill="#040000"/>
<path d="M165.791 47.6637C130.467 23.4605 76.8453 27.6728 83.4354 47.6637C124.125 39.7725 155.865 55.1527 173.791 78.9999C173.791 78.9999 181.791 59.9999 165.791 47.6637Z" fill="#174C6E"/>
<path d="M99.3443 45.8539C87.1473 46.8414 69.0129 52.6137 59.9476 62.6665C59.9476 62.6665 59.4009 40.8532 75.0606 38.8739C101.218 35.5724 99.6795 40.4124 99.6795 40.4124L99.3443 45.8539Z" fill="#174C6E"/>
<path d="M85.3338 25.9055C87.6987 30.8003 102.311 33.4913 106.761 51.4563C111.215 69.4257 93.4792 63.9631 88.3005 55.0801C82.5325 45.1885 80.5532 37.4412 80.3882 31.0122C80.299 27.6177 80.5532 16.0178 85.3338 25.9055Z" fill="#36769F"/>
<path d="M86.3474 33.4581C91.022 37.5605 96.7219 43.9343 97.578 50.2194C98.4341 56.5044 92.8104 54.4067 90.221 48.6429C87.6274 42.8835 87.0298 36.8651 85.415 34.941C83.8046 33.0173 86.3474 33.4581 86.3474 33.4581Z" fill="#174C6E"/>
<path d="M33.9052 148.22C33.9052 151.953 31.6506 154.975 28.8747 154.975C26.0988 154.975 23.8442 151.953 23.8442 148.22C23.8442 144.482 26.0988 141.456 28.8747 141.456C31.6506 141.456 33.9052 144.482 33.9052 148.22Z" fill="#174C6E"/>
<path d="M59.8927 63.4886C59.7527 63.4167 59.5748 63.4292 59.4222 63.387C52.883 72.0028 47.0473 85.0094 36.1553 108.327C30.4088 120.63 25.8992 129.288 22.9497 136.035C29.8491 136.993 36.8718 129.924 39.6688 122.173C42.5209 114.265 53.294 98.2193 60.5497 89.2092C67.805 80.1948 67.1653 67.4088 59.8927 63.4886Z" fill="#CCE2FB"/>
</svg>
