<svg width="200" height="200" viewBox="0 0 200 200" fill="none" xmlns="http://www.w3.org/2000/svg">
<mask id="path-1-outside-1_1347_9261" maskUnits="userSpaceOnUse" x="41.4707" y="21.0005" width="117" height="159" fill="black">
<rect fill="white" x="41.4707" y="21.0005" width="117" height="159"/>
<path d="M78.5439 28.0796C93.4174 21.9193 97.3397 44.147 97.3486 44.1978C97.3632 44.1396 100.064 33.4527 110.78 33.4526C121.526 33.4526 116.153 52.2573 116.153 52.2573C116.188 52.2343 124.224 46.8903 129.585 49.5708C133.993 51.7747 125.423 66.9668 122.203 72.353C135.18 81.0619 140.338 95.22 140.345 95.2397C180.641 170.459 100.049 173.145 100.049 173.145C99.8669 173.139 19.5029 170.373 59.7529 95.2397C59.7529 95.2397 65.3191 79.9337 79.4551 71.353C66.4445 44.9854 69.3244 31.8991 78.5439 28.0796Z"/>
</mask>
<path d="M78.5439 28.0796C93.4174 21.9193 97.3397 44.147 97.3486 44.1978C97.3632 44.1396 100.064 33.4527 110.78 33.4526C121.526 33.4526 116.153 52.2573 116.153 52.2573C116.188 52.2343 124.224 46.8903 129.585 49.5708C133.993 51.7747 125.423 66.9668 122.203 72.353C135.18 81.0619 140.338 95.22 140.345 95.2397C180.641 170.459 100.049 173.145 100.049 173.145C99.8669 173.139 19.5029 170.373 59.7529 95.2397C59.7529 95.2397 65.3191 79.9337 79.4551 71.353C66.4445 44.9854 69.3244 31.8991 78.5439 28.0796Z" fill="#474747"/>
<path d="M78.5439 28.0796L76.248 22.5362L76.2475 22.5365L78.5439 28.0796ZM97.3486 44.1978L91.4395 45.238C91.9303 48.0262 94.3033 50.0919 97.1326 50.1939C99.9619 50.2958 102.477 48.4062 103.168 45.6605L97.3486 44.1978ZM110.78 33.4526V27.4526H110.78L110.78 33.4526ZM116.153 52.2573L110.384 50.6091C109.693 53.0271 110.584 55.6193 112.614 57.1025C114.645 58.5858 117.385 58.6453 119.479 57.2516L116.153 52.2573ZM129.585 49.5708L132.268 44.2042L132.268 44.2042L129.585 49.5708ZM122.203 72.353L117.053 69.2743C115.415 72.014 116.209 75.5564 118.86 77.3351L122.203 72.353ZM140.345 95.2397L134.706 97.2914C134.804 97.56 134.921 97.8212 135.056 98.0731L140.345 95.2397ZM100.049 173.145L99.8457 179.142C99.98 179.146 100.114 179.146 100.249 179.142L100.049 173.145ZM59.7529 95.2397L65.0418 98.0731C65.1769 97.8208 65.2939 97.5592 65.3917 97.2903L59.7529 95.2397ZM79.4551 71.353L82.5684 76.4821C85.228 74.8677 86.2124 71.4881 84.8357 68.6981L79.4551 71.353ZM78.5439 28.0796L80.8399 33.6229C83.1385 32.6709 84.3509 33.0013 85.0923 33.3685C86.1028 33.8691 87.2429 34.9857 88.359 36.8687C90.6182 40.6806 91.4586 45.3464 91.4395 45.238L97.3486 44.1978L103.258 43.1576C103.23 42.9983 102.105 36.5249 98.682 30.7504C96.9572 27.8401 94.3274 24.5517 90.4191 22.6156C86.2416 20.5461 81.3861 20.4082 76.248 22.5362L78.5439 28.0796ZM97.3486 44.1978L103.168 45.6605C103.09 45.969 103.523 44.1684 104.845 42.4118C106.04 40.8242 107.772 39.4527 110.78 39.4526L110.78 33.4526L110.78 27.4526C103.073 27.4527 98.0957 31.4247 95.2576 35.1951C92.5467 38.7965 91.6218 42.3684 91.5297 42.735L97.3486 44.1978ZM110.78 33.4526V39.4526C111.225 39.4526 111.241 39.5412 111.073 39.4433C110.908 39.3468 110.878 39.2521 110.944 39.3678C111.18 39.7806 111.496 40.8792 111.496 42.8551C111.496 44.6873 111.229 46.6321 110.931 48.1965C110.785 48.9597 110.641 49.5916 110.535 50.0222C110.483 50.2367 110.441 50.399 110.414 50.5002C110.4 50.5508 110.391 50.5859 110.385 50.6045C110.383 50.6137 110.381 50.6189 110.381 50.6197C110.381 50.6201 110.381 50.6194 110.382 50.6177C110.382 50.6168 110.382 50.6156 110.383 50.6142C110.383 50.6135 110.383 50.6122 110.383 50.6118C110.384 50.6105 110.384 50.6091 116.153 52.2573C121.922 53.9056 121.923 53.904 121.923 53.9024C121.924 53.9017 121.924 53.9 121.924 53.8987C121.925 53.8962 121.926 53.8933 121.927 53.8901C121.929 53.8838 121.931 53.8763 121.933 53.8677C121.938 53.8505 121.944 53.8286 121.951 53.8023C121.966 53.7497 121.985 53.6792 122.008 53.592C122.055 53.4178 122.118 53.1761 122.191 52.8764C122.337 52.2787 122.529 51.4414 122.719 50.4417C123.093 48.4802 123.496 45.7239 123.496 42.8549C123.496 40.1295 123.141 36.527 121.363 33.414C119.297 29.7997 115.641 27.4526 110.78 27.4526V33.4526ZM116.153 52.2573L119.479 57.2516C119.336 57.3463 120.915 56.2902 122.974 55.5199C123.995 55.1377 124.942 54.9006 125.723 54.8362C126.502 54.7719 126.828 54.9003 126.902 54.9374L129.585 49.5708L132.268 44.2042C127.208 41.6745 121.742 43.1687 118.769 44.2805C115.462 45.5179 113.005 47.1453 112.828 47.2631L116.153 52.2573ZM129.585 49.5708L126.902 54.9374C125.651 54.3119 125.075 53.2388 124.894 52.6038C124.763 52.1434 124.858 52.0296 124.793 52.5375C124.664 53.5365 124.161 55.2102 123.223 57.4449C121.399 61.7859 118.632 66.6339 117.053 69.2743L122.203 72.353L127.353 75.4317C128.995 72.6859 132.122 67.2447 134.286 62.0922C135.342 59.5801 136.356 56.7059 136.695 54.0682C136.863 52.7578 136.93 51.0534 136.436 49.3194C135.893 47.4107 134.621 45.3807 132.268 44.2042L129.585 49.5708ZM122.203 72.353L118.86 77.3351C130.176 84.9294 134.792 97.5264 134.706 97.2914L140.345 95.2397L145.983 93.1881C145.883 92.9137 140.184 77.1944 125.547 67.371L122.203 72.353ZM140.345 95.2397L135.056 98.0731C144.775 116.216 146.712 129.09 145.138 138.114C143.596 146.954 138.517 153.049 131.98 157.407C125.323 161.845 117.346 164.325 110.801 165.673C107.569 166.339 104.78 166.711 102.814 166.915C101.833 167.016 101.063 167.076 100.552 167.109C100.296 167.126 100.106 167.136 99.9865 167.142C99.9268 167.145 99.8851 167.147 99.8619 167.148C99.8503 167.148 99.8433 167.149 99.8412 167.149C99.8401 167.149 99.8402 167.149 99.8414 167.149C99.8421 167.149 99.844 167.149 99.8443 167.149C99.8465 167.148 99.8489 167.148 100.049 173.145C100.249 179.142 100.252 179.142 100.255 179.141C100.257 179.141 100.26 179.141 100.264 179.141C100.27 179.141 100.277 179.141 100.286 179.14C100.303 179.14 100.325 179.139 100.352 179.138C100.406 179.136 100.479 179.132 100.571 179.128C100.754 179.119 101.012 179.105 101.336 179.084C101.986 179.041 102.908 178.969 104.052 178.851C106.336 178.614 109.529 178.188 113.223 177.427C120.529 175.921 130.182 173.028 138.636 167.392C147.209 161.676 154.723 152.995 156.959 140.176C159.163 127.542 156.062 111.873 145.634 92.4064L140.345 95.2397ZM100.049 173.145L100.252 167.148C100.416 167.154 95.7214 167.003 89.2314 165.66C82.6819 164.305 74.716 161.818 68.0737 157.377C61.5511 153.016 56.4872 146.921 54.9549 138.084C53.3905 129.06 55.3335 116.195 65.0418 98.0731L59.7529 95.2397L54.464 92.4064C44.0474 111.851 40.9421 127.507 43.1313 140.134C45.3526 152.946 52.8441 161.63 61.4041 167.353C78.0183 178.461 99.6982 179.137 99.8457 179.142L100.049 173.145ZM59.7529 95.2397C65.3917 97.2903 65.391 97.292 65.3904 97.2936C65.3903 97.2941 65.3897 97.2957 65.3894 97.2966C65.3887 97.2985 65.3881 97.3002 65.3875 97.3016C65.3865 97.3044 65.3858 97.3064 65.3854 97.3074C65.3846 97.3095 65.3851 97.3081 65.387 97.3031C65.3907 97.2932 65.3997 97.2694 65.4141 97.2323C65.4428 97.158 65.493 97.0309 65.5652 96.8561C65.7098 96.5061 65.9418 95.9673 66.2666 95.2812C66.918 93.9051 67.9318 91.9586 69.3458 89.7653C72.2007 85.3372 76.5289 80.1481 82.5684 76.4821L79.4551 71.353L76.3417 66.224C68.2453 71.1385 62.7224 77.8928 59.2602 83.2629C57.5157 85.9688 56.2544 88.3851 55.4204 90.147C55.0025 91.0299 54.6893 91.7539 54.4742 92.2746C54.3666 92.535 54.2834 92.7451 54.2237 92.8993C54.1938 92.9763 54.1699 93.0395 54.1517 93.088C54.1425 93.1123 54.1349 93.1329 54.1286 93.1498C54.1255 93.1583 54.1228 93.1658 54.1204 93.1723C54.1192 93.1756 54.118 93.1787 54.117 93.1815C54.1165 93.1829 54.1158 93.1848 54.1155 93.1855C54.1149 93.1874 54.1142 93.1892 59.7529 95.2397ZM79.4551 71.353L84.8357 68.6981C78.504 55.866 76.4642 47.0612 76.6595 41.4702C76.8397 36.3134 78.7984 34.4687 80.8404 33.6227L78.5439 28.0796L76.2475 22.5365C69.0699 25.51 64.9789 32.1182 64.6668 41.0513C64.37 49.5503 67.3956 60.4725 74.0745 74.008L79.4551 71.353Z" fill="white" mask="url(#path-1-outside-1_1347_9261)"/>
<path d="M121.051 74.2422C121.051 74.2422 134.958 52.2572 129.585 49.5709C124.213 46.8845 116.154 52.2572 116.154 52.2572C116.154 52.2572 121.526 33.4524 110.781 33.4524C100.035 33.4524 97.3488 44.198 97.3488 44.198C97.3488 44.198 93.4348 21.9117 78.544 28.0795C69.2384 31.9347 66.3904 45.2311 79.8223 72.0949" fill="#EA5A47"/>
<path d="M59.7536 95.2398C59.7536 95.2398 70.4991 65.6895 100.049 65.6895C129.6 65.6895 140.345 95.2398 140.345 95.2398C180.641 170.459 100.049 173.145 100.049 173.145C100.049 173.145 19.4577 170.459 59.7536 95.2398Z" fill="#F0F0F0"/>
<path d="M118.901 132.348C118.723 141.004 108.396 154.206 99.6063 154.036C90.8163 153.867 81.0213 140.288 81.1987 131.65C81.376 122.994 87.2491 116.091 100.355 116.336C113.619 116.582 119.058 123.692 118.901 132.348Z" fill="#EAC00F"/>
<mask id="path-6-outside-2_1347_9261" maskUnits="userSpaceOnUse" x="65.5853" y="95.7801" width="20.2474" height="20.2474" fill="black">
<rect fill="white" x="65.5853" y="95.7801" width="20.2474" height="20.2474"/>
<path d="M80.9777 100.055C81.7261 99.4851 82.7959 99.6296 83.3662 100.378C83.9362 101.126 83.7916 102.195 83.0437 102.766L78.2455 106.422L81.7034 110.96L81.8022 111.104C82.2533 111.84 82.0824 112.813 81.3808 113.348C80.6792 113.882 79.6954 113.789 79.1054 113.159L78.9933 113.026L75.5346 108.487L70.9966 111.946L70.8531 112.044C70.117 112.495 69.1437 112.324 68.6091 111.623C68.0745 110.922 68.168 109.938 68.7982 109.348L68.9316 109.236L73.4695 105.777L69.8142 100.979C69.244 100.23 69.3883 99.1614 70.1367 98.5911C70.8851 98.021 71.954 98.1653 72.5242 98.9136L76.1797 103.711L80.9777 100.055Z"/>
</mask>
<path d="M80.9777 100.055C81.7261 99.4851 82.7959 99.6296 83.3662 100.378C83.9362 101.126 83.7916 102.195 83.0437 102.766L78.2455 106.422L81.7034 110.96L81.8022 111.104C82.2533 111.84 82.0824 112.813 81.3808 113.348C80.6792 113.882 79.6954 113.789 79.1054 113.159L78.9933 113.026L75.5346 108.487L70.9966 111.946L70.8531 112.044C70.117 112.495 69.1437 112.324 68.6091 111.623C68.0745 110.922 68.168 109.938 68.7982 109.348L68.9316 109.236L73.4695 105.777L69.8142 100.979C69.244 100.23 69.3883 99.1614 70.1367 98.5911C70.8851 98.021 71.954 98.1653 72.5242 98.9136L76.1797 103.711L80.9777 100.055Z" fill="#474747"/>
<path d="M80.9777 100.055L81.7266 101.038L81.7268 101.038L80.9777 100.055ZM83.3662 100.378L84.3493 99.6291L84.3492 99.629L83.3662 100.378ZM83.0437 102.766L83.7927 103.748L83.7931 103.748L83.0437 102.766ZM78.2455 106.422L77.4965 105.439L76.5135 106.188L77.2626 107.171L78.2455 106.422ZM81.7034 110.96L82.7235 110.262L82.7056 110.236L82.6864 110.211L81.7034 110.96ZM81.8022 111.104L82.8558 110.458L82.8397 110.432L82.8223 110.406L81.8022 111.104ZM81.3808 113.348L82.1296 114.331L82.1298 114.331L81.3808 113.348ZM79.1054 113.159L78.1591 113.954L78.1805 113.979L78.2032 114.004L79.1054 113.159ZM78.9933 113.026L78.0103 113.775L78.0282 113.798L78.0471 113.821L78.9933 113.026ZM75.5346 108.487L76.5175 107.738L75.7684 106.755L74.7854 107.504L75.5346 108.487ZM70.9966 111.946L71.698 112.963L71.7223 112.946L71.7457 112.928L70.9966 111.946ZM70.8531 112.044L71.4988 113.098L71.5272 113.081L71.5546 113.062L70.8531 112.044ZM68.6091 111.623L67.6261 112.372L67.6262 112.372L68.6091 111.623ZM68.7982 109.348L68.0032 108.401L67.9777 108.423L67.9535 108.446L68.7982 109.348ZM68.9316 109.236L68.1824 108.253L68.1591 108.27L68.1366 108.289L68.9316 109.236ZM73.4695 105.777L74.2187 106.76L75.2013 106.011L74.4526 105.028L73.4695 105.777ZM69.8142 100.979L70.7973 100.23L70.7973 100.23L69.8142 100.979ZM70.1367 98.5911L69.3878 97.608L69.3877 97.6081L70.1367 98.5911ZM72.5242 98.9136L73.5072 98.1646L73.5071 98.1645L72.5242 98.9136ZM76.1797 103.711L75.1967 104.46L75.9456 105.443L76.9286 104.694L76.1797 103.711ZM80.9777 100.055L81.7268 101.038C81.9323 100.882 82.2266 100.921 82.3832 101.127L83.3662 100.378L84.3492 99.629C83.3652 98.3377 81.52 98.0885 80.2287 99.0724L80.9777 100.055ZM83.3662 100.378L82.3831 101.127C82.5394 101.332 82.5 101.626 82.2943 101.783L83.0437 102.766L83.7931 103.748C85.0832 102.764 85.333 100.92 84.3493 99.6291L83.3662 100.378ZM83.0437 102.766L82.2947 101.783L77.4965 105.439L78.2455 106.422L78.9945 107.405L83.7927 103.748L83.0437 102.766ZM78.2455 106.422L77.2626 107.171L80.7204 111.709L81.7034 110.96L82.6864 110.211L79.2285 105.673L78.2455 106.422ZM81.7034 110.96L80.6833 111.657L80.782 111.802L81.8022 111.104L82.8223 110.406L82.7235 110.262L81.7034 110.96ZM81.8022 111.104L80.7485 111.75C80.8716 111.951 80.8239 112.219 80.6318 112.365L81.3808 113.348L82.1298 114.331C83.3408 113.408 83.635 111.73 82.8558 110.458L81.8022 111.104ZM81.3808 113.348L80.632 112.365C80.4395 112.512 80.1683 112.486 80.0076 112.314L79.1054 113.159L78.2032 114.004C79.2225 115.092 80.9189 115.253 82.1296 114.331L81.3808 113.348ZM79.1054 113.159L80.0516 112.364L79.9395 112.231L78.9933 113.026L78.0471 113.821L78.1591 113.954L79.1054 113.159ZM78.9933 113.026L79.9763 112.277L76.5175 107.738L75.5346 108.487L74.5516 109.236L78.0103 113.775L78.9933 113.026ZM75.5346 108.487L74.7854 107.504L70.2474 110.963L70.9966 111.946L71.7457 112.928L76.2837 109.47L75.5346 108.487ZM70.9966 111.946L70.2952 110.928L70.1517 111.027L70.8531 112.044L71.5546 113.062L71.698 112.963L70.9966 111.946ZM70.8531 112.044L70.2075 110.991C70.0066 111.114 69.7384 111.066 69.5919 110.874L68.6091 111.623L67.6262 112.372C68.549 113.583 70.2274 113.877 71.4988 113.098L70.8531 112.044ZM68.6091 111.623L69.592 110.874C69.4457 110.682 69.4707 110.411 69.6429 110.25L68.7982 109.348L67.9535 108.446C66.8652 109.465 66.7033 111.161 67.6261 112.372L68.6091 111.623ZM68.7982 109.348L69.5931 110.294L69.7265 110.182L68.9316 109.236L68.1366 108.289L68.0032 108.401L68.7982 109.348ZM68.9316 109.236L69.6807 110.218L74.2187 106.76L73.4695 105.777L72.7204 104.794L68.1824 108.253L68.9316 109.236ZM73.4695 105.777L74.4526 105.028L70.7973 100.23L69.8142 100.979L68.8312 101.728L72.4865 106.526L73.4695 105.777ZM69.8142 100.979L70.7973 100.23C70.6406 100.024 70.6803 99.7306 70.8857 99.5741L70.1367 98.5911L69.3877 97.6081C68.0964 98.5922 67.8475 100.436 68.8312 101.728L69.8142 100.979ZM70.1367 98.5911L70.8856 99.5742C71.0912 99.4176 71.3848 99.4573 71.5413 99.6627L72.5242 98.9136L73.5071 98.1645C72.5231 96.8734 70.679 96.6245 69.3878 97.608L70.1367 98.5911ZM72.5242 98.9136L71.5413 99.6626L75.1967 104.46L76.1797 103.711L77.1626 102.962L73.5072 98.1646L72.5242 98.9136ZM76.1797 103.711L76.9286 104.694L81.7266 101.038L80.9777 100.055L80.2288 99.0723L75.4307 102.728L76.1797 103.711Z" fill="white" mask="url(#path-6-outside-2_1347_9261)"/>
<mask id="path-8-outside-3_1347_9261" maskUnits="userSpaceOnUse" x="114.266" y="95.7806" width="20.2474" height="20.2474" fill="black">
<rect fill="white" x="114.266" y="95.7806" width="20.2474" height="20.2474"/>
<path d="M119.121 100.056C118.372 99.4856 117.303 99.6301 116.732 100.378C116.162 101.127 116.307 102.196 117.055 102.766L121.853 106.422L118.395 110.96L118.296 111.105C117.845 111.841 118.016 112.814 118.718 113.349C119.419 113.883 120.403 113.789 120.993 113.159L121.105 113.026L124.564 108.487L129.102 111.946L129.245 112.044C129.982 112.495 130.955 112.325 131.49 111.624C132.024 110.922 131.931 109.938 131.3 109.348L131.167 109.235L126.629 105.776L130.284 100.979C130.855 100.231 130.71 99.1619 129.962 98.5916C129.214 98.0214 128.145 98.1658 127.574 98.9141L123.919 103.711L119.121 100.056Z"/>
</mask>
<path d="M119.121 100.056C118.372 99.4856 117.303 99.6301 116.732 100.378C116.162 101.127 116.307 102.196 117.055 102.766L121.853 106.422L118.395 110.96L118.296 111.105C117.845 111.841 118.016 112.814 118.718 113.349C119.419 113.883 120.403 113.789 120.993 113.159L121.105 113.026L124.564 108.487L129.102 111.946L129.245 112.044C129.982 112.495 130.955 112.325 131.49 111.624C132.024 110.922 131.931 109.938 131.3 109.348L131.167 109.235L126.629 105.776L130.284 100.979C130.855 100.231 130.71 99.1619 129.962 98.5916C129.214 98.0214 128.145 98.1658 127.574 98.9141L123.919 103.711L119.121 100.056Z" fill="#474747"/>
<path d="M119.121 100.056L118.372 101.039L118.372 101.039L119.121 100.056ZM116.732 100.378L115.749 99.6296L115.749 99.6295L116.732 100.378ZM117.055 102.766L116.306 103.749L116.306 103.749L117.055 102.766ZM121.853 106.422L122.602 105.439L123.585 106.188L122.836 107.171L121.853 106.422ZM118.395 110.96L117.375 110.263L117.393 110.236L117.412 110.211L118.395 110.96ZM118.296 111.105L117.243 110.459L117.259 110.432L117.276 110.407L118.296 111.105ZM118.718 113.349L117.969 114.332L117.969 114.332L118.718 113.349ZM120.993 113.159L121.936 113.957L121.916 113.981L121.895 114.003L120.993 113.159ZM121.105 113.026L122.088 113.775L122.069 113.801L122.048 113.825L121.105 113.026ZM124.564 108.487L123.581 107.738L124.33 106.755L125.313 107.504L124.564 108.487ZM129.102 111.946L128.405 112.966L128.378 112.948L128.353 112.929L129.102 111.946ZM129.245 112.044L128.6 113.098L128.573 113.082L128.548 113.064L129.245 112.044ZM131.49 111.624L132.473 112.373L132.472 112.373L131.49 111.624ZM131.3 109.348L132.099 108.405L132.123 108.425L132.145 108.446L131.3 109.348ZM131.167 109.235L131.916 108.252L131.941 108.271L131.965 108.292L131.167 109.235ZM126.629 105.776L125.88 106.759L124.897 106.01L125.646 105.027L126.629 105.776ZM130.284 100.979L131.267 101.728L131.267 101.728L130.284 100.979ZM129.962 98.5916L130.711 97.6086L130.711 97.6086L129.962 98.5916ZM127.574 98.9141L126.591 98.1651L126.592 98.165L127.574 98.9141ZM123.919 103.711L124.902 104.46L124.153 105.443L123.17 104.694L123.919 103.711ZM119.121 100.056L118.372 101.039C118.166 100.882 117.872 100.922 117.715 101.128L116.732 100.378L115.749 99.6295C116.733 98.3382 118.579 98.0889 119.87 99.0729L119.121 100.056ZM116.732 100.378L117.715 101.127C117.559 101.333 117.599 101.626 117.804 101.783L117.055 102.766L116.306 103.749C115.015 102.765 114.766 100.921 115.749 99.6296L116.732 100.378ZM117.055 102.766L117.804 101.783L122.602 105.439L121.853 106.422L121.104 107.405L116.306 103.749L117.055 102.766ZM121.853 106.422L122.836 107.171L119.378 111.709L118.395 110.96L117.412 110.211L120.87 105.673L121.853 106.422ZM118.395 110.96L119.415 111.658L119.317 111.802L118.296 111.105L117.276 110.407L117.375 110.263L118.395 110.96ZM118.296 111.105L119.35 111.75C119.227 111.951 119.275 112.219 119.467 112.366L118.718 113.349L117.969 114.332C116.758 113.409 116.464 111.73 117.243 110.459L118.296 111.105ZM118.718 113.349L119.467 112.365C119.658 112.511 119.929 112.487 120.091 112.314L120.993 113.159L121.895 114.003C120.877 115.091 119.181 115.254 117.969 114.332L118.718 113.349ZM120.993 113.159L120.05 112.36L120.162 112.227L121.105 113.026L122.048 113.825L121.936 113.957L120.993 113.159ZM121.105 113.026L120.122 112.277L123.581 107.738L124.564 108.487L125.547 109.236L122.088 113.775L121.105 113.026ZM124.564 108.487L125.313 107.504L129.851 110.963L129.102 111.946L128.353 112.929L123.815 109.47L124.564 108.487ZM129.102 111.946L129.799 110.926L129.943 111.024L129.245 112.044L128.548 113.064L128.405 112.966L129.102 111.946ZM129.245 112.044L129.891 110.99C130.093 111.114 130.361 111.066 130.507 110.874L131.49 111.624L132.472 112.373C131.549 113.584 129.87 113.876 128.6 113.098L129.245 112.044ZM131.49 111.624L130.507 110.875C130.653 110.683 130.628 110.411 130.456 110.25L131.3 109.348L132.145 108.446C133.233 109.465 133.395 111.161 132.473 112.373L131.49 111.624ZM131.3 109.348L130.502 110.291L130.368 110.178L131.167 109.235L131.965 108.292L132.099 108.405L131.3 109.348ZM131.167 109.235L130.418 110.218L125.88 106.759L126.629 105.776L127.378 104.793L131.916 108.252L131.167 109.235ZM126.629 105.776L125.646 105.027L129.301 100.23L130.284 100.979L131.267 101.728L127.612 106.525L126.629 105.776ZM130.284 100.979L129.301 100.23C129.458 100.025 129.418 99.7311 129.213 99.5746L129.962 98.5916L130.711 97.6086C132.002 98.5926 132.251 100.437 131.267 101.728L130.284 100.979ZM129.962 98.5916L129.213 99.5746C129.007 99.418 128.714 99.4577 128.557 99.6632L127.574 98.9141L126.592 98.165C127.575 96.8739 129.42 96.6248 130.711 97.6086L129.962 98.5916ZM127.574 98.9141L128.557 99.6631L124.902 104.46L123.919 103.711L122.936 102.962L126.591 98.1651L127.574 98.9141ZM123.919 103.711L123.17 104.694L118.372 101.039L119.121 100.056L119.87 99.0728L124.668 102.728L123.919 103.711Z" fill="white" mask="url(#path-8-outside-3_1347_9261)"/>
</svg>
