<svg width="200" height="200" viewBox="0 0 200 200" fill="none" xmlns="http://www.w3.org/2000/svg">
<g clip-path="url(#clip0_898_3091)">
<mask id="path-1-outside-1_898_3091" maskUnits="userSpaceOnUse" x="2.36963" y="22.6775" width="199" height="150" fill="black">
<rect fill="white" x="2.36963" y="22.6775" width="199" height="150"/>
<path d="M161.728 131.375C178.721 129.219 192.866 133.486 194.767 140.909C195.073 142.084 195.067 143.335 194.712 144.651C194.702 144.692 194.692 144.733 194.681 144.774C192.711 151.609 182.816 151.156 179.341 150.776C179.305 151.048 179.179 151.31 178.962 151.511C178.94 151.532 178.915 151.55 178.891 151.569C180.436 153.696 183.41 158.982 178.647 163.266C173.518 167.878 162.919 161.168 159.639 158.888C159.455 159.144 159.173 159.331 158.836 159.384C158.774 159.393 158.711 159.396 158.65 159.396C158.54 161.737 157.707 166.625 152.661 166.577C143.86 166.605 144.578 158.679 140.647 154.699C138.571 153.141 136.3 151.872 133.897 150.92C133.87 150.939 133.844 150.959 133.817 150.978C132.646 150.525 131.46 150.142 130.417 149.788C129.995 149.658 129.616 149.414 129.323 149.083C129.03 148.752 128.833 148.347 128.755 147.912C128.677 147.477 128.72 147.028 128.88 146.616C129.04 146.204 129.311 145.844 129.662 145.575C138.973 138.2 150.008 133.313 161.728 131.375ZM109.205 51.5351C110.013 51.6274 110.757 52.0188 111.29 52.6318L135.462 83.0175C135.814 83.5026 136.02 84.0719 136.069 84.6611L136.28 84.6396L138.859 103.394C138.902 103.873 138.831 104.355 138.653 104.802C138.475 105.248 138.194 105.646 137.833 105.964L127.823 115.503C120.825 121.077 112.745 125.137 104.097 127.428C95.4621 129.727 87.3958 133.786 80.4047 139.351L70.3695 147.327C70.0508 147.585 69.6828 147.777 69.2885 147.891C68.8942 148.004 68.4809 148.037 68.0736 147.987C67.6664 147.938 67.2729 147.807 66.9174 147.602C66.5618 147.398 66.2508 147.124 66.0033 146.797L41.6869 115.604C41.3656 115.177 41.1673 114.67 41.1137 114.138L38.5717 95.7411C38.3383 95.215 38.2447 94.6335 38.3109 94.0536C38.4032 93.2461 38.7946 92.5023 39.4076 91.9687L49.475 83.9902C56.4578 78.4123 64.5272 74.352 73.1674 72.0673C81.8113 69.765 89.8883 65.705 96.893 60.1415L106.926 52.1327C107.584 51.6558 108.398 51.4428 109.205 51.5351ZM11.9535 30.2314C16.704 27.0434 27.2913 28.81 37.9467 35.0781C45.856 40.2814 52.3128 47.4102 56.7094 55.7948C56.926 56.1162 57.0405 56.4962 57.0375 56.8837C57.0344 57.2711 56.9134 57.6489 56.6918 57.9667C56.4701 58.2844 56.1578 58.5282 55.7953 58.665C55.4327 58.8018 55.0369 58.8255 54.6605 58.7333C51.6292 58.2177 48.5237 58.3319 45.5385 59.0693C41.4839 60.5818 39.3596 66.7329 32.9369 63.8251C29.4478 62.2407 30.2156 58.6405 30.8861 56.8075C30.8239 56.7806 30.7622 56.7501 30.7035 56.7118C30.4193 56.5266 30.2365 56.2434 30.1732 55.9355C26.8013 56.5637 17.3191 57.8503 15.1283 52.9609C13.1201 48.4786 16.6458 45.61 18.5326 44.457C18.5145 44.4231 18.498 44.3876 18.4828 44.3515C18.3691 44.0804 18.3607 43.7914 18.4389 43.5302C17.2762 43.1483 15.421 42.4437 13.6908 41.3671C13.6751 41.4096 13.6578 41.4519 13.643 41.495C12.302 40.8572 11.1837 39.8313 10.432 38.5507C10.273 38.2798 10.1328 37.9995 10.0101 37.7128C9.49565 36.7149 9.2503 35.5841 9.42617 34.3114C9.57264 33.2438 9.94983 32.3322 10.5228 31.5712C10.7467 31.2739 10.9983 30.9979 11.2807 30.747C11.3644 30.6726 11.4508 30.6005 11.5394 30.5302C11.6716 30.4254 11.8107 30.3272 11.9535 30.2314Z"/>
</mask>
<path d="M161.728 131.375C178.721 129.219 192.866 133.486 194.767 140.909C195.073 142.084 195.067 143.335 194.712 144.651C194.702 144.692 194.692 144.733 194.681 144.774C192.711 151.609 182.816 151.156 179.341 150.776C179.305 151.048 179.179 151.31 178.962 151.511C178.94 151.532 178.915 151.55 178.891 151.569C180.436 153.696 183.41 158.982 178.647 163.266C173.518 167.878 162.919 161.168 159.639 158.888C159.455 159.144 159.173 159.331 158.836 159.384C158.774 159.393 158.711 159.396 158.65 159.396C158.54 161.737 157.707 166.625 152.661 166.577C143.86 166.605 144.578 158.679 140.647 154.699C138.571 153.141 136.3 151.872 133.897 150.92C133.87 150.939 133.844 150.959 133.817 150.978C132.646 150.525 131.46 150.142 130.417 149.788C129.995 149.658 129.616 149.414 129.323 149.083C129.03 148.752 128.833 148.347 128.755 147.912C128.677 147.477 128.72 147.028 128.88 146.616C129.04 146.204 129.311 145.844 129.662 145.575C138.973 138.2 150.008 133.313 161.728 131.375ZM109.205 51.5351C110.013 51.6274 110.757 52.0188 111.29 52.6318L135.462 83.0175C135.814 83.5026 136.02 84.0719 136.069 84.6611L136.28 84.6396L138.859 103.394C138.902 103.873 138.831 104.355 138.653 104.802C138.475 105.248 138.194 105.646 137.833 105.964L127.823 115.503C120.825 121.077 112.745 125.137 104.097 127.428C95.4621 129.727 87.3958 133.786 80.4047 139.351L70.3695 147.327C70.0508 147.585 69.6828 147.777 69.2885 147.891C68.8942 148.004 68.4809 148.037 68.0736 147.987C67.6664 147.938 67.2729 147.807 66.9174 147.602C66.5618 147.398 66.2508 147.124 66.0033 146.797L41.6869 115.604C41.3656 115.177 41.1673 114.67 41.1137 114.138L38.5717 95.7411C38.3383 95.215 38.2447 94.6335 38.3109 94.0536C38.4032 93.2461 38.7946 92.5023 39.4076 91.9687L49.475 83.9902C56.4578 78.4123 64.5272 74.352 73.1674 72.0673C81.8113 69.765 89.8883 65.705 96.893 60.1415L106.926 52.1327C107.584 51.6558 108.398 51.4428 109.205 51.5351ZM11.9535 30.2314C16.704 27.0434 27.2913 28.81 37.9467 35.0781C45.856 40.2814 52.3128 47.4102 56.7094 55.7948C56.926 56.1162 57.0405 56.4962 57.0375 56.8837C57.0344 57.2711 56.9134 57.6489 56.6918 57.9667C56.4701 58.2844 56.1578 58.5282 55.7953 58.665C55.4327 58.8018 55.0369 58.8255 54.6605 58.7333C51.6292 58.2177 48.5237 58.3319 45.5385 59.0693C41.4839 60.5818 39.3596 66.7329 32.9369 63.8251C29.4478 62.2407 30.2156 58.6405 30.8861 56.8075C30.8239 56.7806 30.7622 56.7501 30.7035 56.7118C30.4193 56.5266 30.2365 56.2434 30.1732 55.9355C26.8013 56.5637 17.3191 57.8503 15.1283 52.9609C13.1201 48.4786 16.6458 45.61 18.5326 44.457C18.5145 44.4231 18.498 44.3876 18.4828 44.3515C18.3691 44.0804 18.3607 43.7914 18.4389 43.5302C17.2762 43.1483 15.421 42.4437 13.6908 41.3671C13.6751 41.4096 13.6578 41.4519 13.643 41.495C12.302 40.8572 11.1837 39.8313 10.432 38.5507C10.273 38.2798 10.1328 37.9995 10.0101 37.7128C9.49565 36.7149 9.2503 35.5841 9.42617 34.3114C9.57264 33.2438 9.94983 32.3322 10.5228 31.5712C10.7467 31.2739 10.9983 30.9979 11.2807 30.747C11.3644 30.6726 11.4508 30.6005 11.5394 30.5302C11.6716 30.4254 11.8107 30.3272 11.9535 30.2314Z" fill="#276288"/>
<path d="M161.728 131.375L160.973 125.423C160.898 125.432 160.823 125.443 160.749 125.455L161.728 131.375ZM194.767 140.909L188.955 142.398C188.957 142.406 188.959 142.414 188.961 142.423L194.767 140.909ZM194.712 144.651L188.919 143.09C188.916 143.1 188.914 143.109 188.912 143.118L194.712 144.651ZM194.681 144.774L200.446 146.436C200.451 146.421 200.455 146.405 200.459 146.39L194.681 144.774ZM179.341 150.776L179.993 144.812C176.751 144.458 173.82 146.758 173.393 149.991L179.341 150.776ZM178.962 151.511L183.045 155.908L183.046 155.907L178.962 151.511ZM178.891 151.569L175.147 146.88C172.641 148.882 172.152 152.501 174.037 155.096L178.891 151.569ZM178.647 163.266L182.659 167.727L182.659 167.727L178.647 163.266ZM159.639 158.888L163.063 153.961C160.369 152.088 156.671 152.727 154.761 155.394L159.639 158.888ZM158.836 159.384L159.76 165.312L159.763 165.312L158.836 159.384ZM158.65 159.396L158.637 153.396C155.438 153.403 152.807 155.919 152.656 159.114L158.65 159.396ZM152.661 166.577L152.717 160.577C152.692 160.577 152.667 160.577 152.641 160.577L152.661 166.577ZM140.647 154.699L144.915 150.483C144.708 150.272 144.485 150.078 144.249 149.901L140.647 154.699ZM133.897 150.92L136.107 145.342C134.197 144.585 132.034 144.858 130.372 146.064L133.897 150.92ZM133.817 150.978L131.65 156.573C133.552 157.31 135.699 157.03 137.348 155.829L133.817 150.978ZM130.417 149.788L132.347 144.107C132.292 144.088 132.237 144.07 132.182 144.053L130.417 149.788ZM129.323 149.083L124.83 153.06L124.831 153.061L129.323 149.083ZM128.755 147.912L122.85 148.971L122.85 148.971L128.755 147.912ZM128.88 146.616L123.286 144.447L123.286 144.447L128.88 146.616ZM129.662 145.575L133.309 150.339C133.335 150.319 133.361 150.299 133.387 150.279L129.662 145.575ZM109.205 51.5351L109.887 45.5739L109.886 45.5739L109.205 51.5351ZM111.29 52.6318L115.986 48.8965C115.931 48.8272 115.874 48.7591 115.816 48.6923L111.29 52.6318ZM135.462 83.0175L140.321 79.497C140.268 79.4242 140.214 79.3526 140.158 79.2822L135.462 83.0175ZM136.069 84.6611L130.089 85.1513C130.22 86.7577 130.993 88.2435 132.232 89.2742C133.471 90.3048 135.073 90.7935 136.677 90.6302L136.069 84.6611ZM136.28 84.6396L142.224 83.8222C141.783 80.6207 138.887 78.343 135.672 78.6705L136.28 84.6396ZM138.859 103.394L144.835 102.859C144.826 102.765 144.816 102.671 144.803 102.577L138.859 103.394ZM138.653 104.802L144.225 107.026L144.225 107.026L138.653 104.802ZM137.833 105.964L133.869 101.46C133.81 101.512 133.751 101.566 133.694 101.62L137.833 105.964ZM127.823 115.503L131.561 120.196C131.7 120.086 131.833 119.969 131.962 119.847L127.823 115.503ZM104.097 127.428L102.561 121.628L102.553 121.63L104.097 127.428ZM80.4047 139.351L84.1378 144.049L84.1415 144.046L80.4047 139.351ZM70.3695 147.327L66.6364 142.63C66.6213 142.642 66.6064 142.654 66.5914 142.666L70.3695 147.327ZM69.2885 147.891L70.9469 153.657L70.9469 153.657L69.2885 147.891ZM68.0736 147.987L67.3488 153.943L67.3492 153.943L68.0736 147.987ZM66.9174 147.602L63.9246 152.803L63.925 152.803L66.9174 147.602ZM66.0033 146.797L70.7885 143.177C70.771 143.154 70.7532 143.131 70.7353 143.108L66.0033 146.797ZM41.6869 115.604L36.8918 119.211C36.9126 119.239 36.9336 119.266 36.9549 119.293L41.6869 115.604ZM41.1137 114.138L47.0834 113.535C47.076 113.462 47.0673 113.389 47.0572 113.316L41.1137 114.138ZM38.5717 95.7411L44.5152 94.9199C44.4384 94.3638 44.2839 93.8213 44.0563 93.3082L38.5717 95.7411ZM38.3109 94.0536L32.3497 93.3726L32.3497 93.3729L38.3109 94.0536ZM39.4076 91.9687L35.681 87.2663C35.6087 87.3236 35.5377 87.3825 35.4682 87.4431L39.4076 91.9687ZM49.475 83.9902L53.2017 88.6925C53.2077 88.6877 53.2137 88.6829 53.2197 88.6781L49.475 83.9902ZM73.1674 72.0673L74.7012 77.868L74.7116 77.8652L73.1674 72.0673ZM96.893 60.1415L100.625 64.8399C100.628 64.8369 100.632 64.8338 100.636 64.8308L96.893 60.1415ZM106.926 52.1327L103.406 47.2742C103.33 47.3289 103.256 47.3853 103.183 47.4435L106.926 52.1327ZM11.9535 30.2314L15.2962 35.214L15.2969 35.2135L11.9535 30.2314ZM37.9467 35.0781L41.2443 30.0655C41.1605 30.0104 41.0753 29.9574 40.9889 29.9065L37.9467 35.0781ZM56.7094 55.7948L51.3956 58.5812C51.4981 58.7766 51.6113 58.9663 51.7347 59.1493L56.7094 55.7948ZM57.0375 56.8837L63.0373 56.9316L63.0373 56.9306L57.0375 56.8837ZM56.6918 57.9667L61.6126 61.3998L61.6135 61.3985L56.6918 57.9667ZM55.7953 58.665L57.9133 64.2787L57.9136 64.2786L55.7953 58.665ZM54.6605 58.7333L56.0882 52.9057C55.9488 52.8715 55.8082 52.8424 55.6667 52.8183L54.6605 58.7333ZM45.5385 59.0693L44.0998 53.2443C43.8766 53.2994 43.6568 53.3673 43.4414 53.4477L45.5385 59.0693ZM32.9369 63.8251L30.4561 69.2882L30.4623 69.291L32.9369 63.8251ZM30.8861 56.8075L36.521 58.8688C37.6126 55.8846 36.1884 52.5669 33.2731 51.3028L30.8861 56.8075ZM30.7035 56.7118L27.4276 61.7386L27.4291 61.7396L30.7035 56.7118ZM30.1732 55.9355L36.0505 54.7282C35.3924 51.5244 32.2897 49.4379 29.0743 50.037L30.1732 55.9355ZM15.1283 52.9609L9.65274 55.4141L9.65285 55.4143L15.1283 52.9609ZM18.5326 44.457L21.6613 49.5767C24.376 47.9177 25.3238 44.4283 23.8216 41.6238L18.5326 44.457ZM18.4828 44.3515L12.95 46.6726L12.9511 46.6753L18.4828 44.3515ZM18.4389 43.5302L24.1872 45.2496C25.1189 42.1347 23.4002 38.8445 20.3113 37.8299L18.4389 43.5302ZM13.6908 41.3671L16.8608 36.2729C15.3296 35.3201 13.4511 35.1065 11.7452 35.6913C10.0392 36.2761 8.68678 37.5972 8.06218 39.289L13.6908 41.3671ZM13.643 41.495L11.0657 46.9133C12.6087 47.6473 14.3915 47.6885 15.9668 47.0268C17.5421 46.365 18.7605 45.0629 19.3165 43.4473L13.643 41.495ZM10.432 38.5507L5.25752 41.5879L5.25761 41.588L10.432 38.5507ZM10.0101 37.7128L15.5265 35.3528C15.47 35.2208 15.4088 35.0908 15.343 34.9632L10.0101 37.7128ZM9.42617 34.3114L15.3697 35.1327L15.3705 35.127L9.42617 34.3114ZM10.5228 31.5712L15.3159 35.1804L15.3166 35.1795L10.5228 31.5712ZM11.2807 30.747L7.29517 26.2619L7.29486 26.2622L11.2807 30.747ZM11.5394 30.5302L15.2687 35.2305L15.2687 35.2305L11.5394 30.5302ZM161.728 131.375L162.483 137.327C170.353 136.329 177.282 136.863 182.222 138.309C187.619 139.887 188.832 141.917 188.955 142.398L194.767 140.909L200.579 139.421C198.801 132.478 191.991 128.663 185.591 126.791C178.736 124.786 170.095 124.265 160.973 125.423L161.728 131.375ZM194.767 140.909L188.961 142.423C188.988 142.525 189.02 142.715 188.919 143.09L194.712 144.651L200.506 146.212C201.113 143.956 201.159 141.643 200.573 139.396L194.767 140.909ZM194.712 144.651L188.912 143.118C188.898 143.169 188.887 143.212 188.881 143.238C188.877 143.252 188.875 143.263 188.873 143.271C188.872 143.274 188.871 143.278 188.87 143.28C188.87 143.283 188.87 143.284 188.869 143.285C188.869 143.287 188.869 143.285 188.87 143.281C188.871 143.276 188.873 143.268 188.876 143.258C188.881 143.238 188.89 143.203 188.903 143.159L194.681 144.774L200.459 146.39C200.478 146.325 200.492 146.27 200.502 146.229C200.513 146.189 200.521 146.156 200.525 146.141C200.531 146.116 200.528 146.126 200.528 146.126C200.527 146.132 200.521 146.154 200.513 146.185L194.712 144.651ZM194.681 144.774L188.916 143.113C188.83 143.41 188.556 144.122 186.287 144.621C184.084 145.105 181.507 144.977 179.993 144.812L179.341 150.776L178.689 156.741C180.65 156.955 184.759 157.243 188.864 156.341C192.904 155.452 198.562 152.973 200.446 146.436L194.681 144.774ZM179.341 150.776L173.393 149.991C173.532 148.939 174.029 147.904 174.879 147.115L178.962 151.511L183.046 155.907C184.329 154.715 185.079 153.157 185.29 151.562L179.341 150.776ZM178.962 151.511L174.88 147.114C175.018 146.985 175.131 146.894 175.172 146.861C175.192 146.845 175.208 146.833 175.201 146.838C175.2 146.839 175.192 146.845 175.184 146.851C175.176 146.858 175.163 146.868 175.147 146.88L178.891 151.569L182.635 156.258C182.619 156.271 182.605 156.281 182.617 156.272C182.622 156.268 182.65 156.246 182.682 156.22C182.747 156.169 182.883 156.057 183.045 155.908L178.962 151.511ZM178.891 151.569L174.037 155.096C174.275 155.423 174.552 155.853 174.785 156.329C175.022 156.814 175.158 157.234 175.21 157.561C175.259 157.863 175.227 158.01 175.204 158.079C175.19 158.122 175.109 158.378 174.635 158.804L178.647 163.266L182.659 167.727C186.727 164.068 187.685 159.553 187.058 155.656C186.498 152.17 184.737 149.408 183.745 148.043L178.891 151.569ZM178.647 163.266L174.635 158.804C174.767 158.685 174.752 158.855 174.029 158.848C173.229 158.841 172.056 158.605 170.554 158.042C167.556 156.919 164.571 155.009 163.063 153.961L159.639 158.888L156.215 163.814C157.987 165.047 161.942 167.631 166.345 169.28C168.545 170.104 171.187 170.823 173.92 170.848C176.729 170.873 179.962 170.152 182.659 167.727L178.647 163.266ZM159.639 158.888L154.761 155.394C155.466 154.41 156.575 153.664 157.91 153.456L158.836 159.384L159.763 165.312C161.77 164.998 163.445 163.879 164.517 162.381L159.639 158.888ZM158.836 159.384L157.912 153.455C158.266 153.4 158.537 153.397 158.637 153.396L158.65 159.396L158.663 165.396C158.885 165.396 159.281 165.387 159.76 165.312L158.836 159.384ZM158.65 159.396L152.656 159.114C152.64 159.458 152.598 159.853 152.516 160.228C152.431 160.616 152.334 160.84 152.283 160.93C152.245 160.996 152.314 160.849 152.554 160.701C152.668 160.631 152.768 160.593 152.829 160.577C152.887 160.562 152.86 160.579 152.717 160.577L152.661 166.577L152.604 172.577C157.585 172.624 160.945 169.992 162.729 166.835C164.271 164.107 164.572 161.181 164.643 159.679L158.65 159.396ZM152.661 166.577L152.641 160.577C151.385 160.581 150.975 160.316 150.895 160.263C150.761 160.176 150.485 159.95 150.039 159.168C149.467 158.166 149.202 157.413 148.357 155.649C147.665 154.2 146.625 152.213 144.915 150.483L140.647 154.699L136.378 158.916C136.634 159.175 136.979 159.671 137.532 160.827C137.934 161.667 138.776 163.641 139.616 165.114C140.582 166.807 142.022 168.807 144.351 170.322C146.735 171.873 149.536 172.587 152.68 172.577L152.661 166.577ZM140.647 154.699L144.249 149.901C141.744 148.02 139.004 146.489 136.107 145.342L133.897 150.92L131.687 156.498C133.596 157.254 135.398 158.262 137.045 159.498L140.647 154.699ZM133.897 150.92L130.372 146.064C130.344 146.084 130.319 146.103 130.306 146.112C130.298 146.118 130.294 146.121 130.29 146.124C130.286 146.127 130.285 146.128 130.285 146.128L133.817 150.978L137.348 155.829C137.373 155.811 137.397 155.793 137.407 155.786C137.421 155.776 137.423 155.775 137.421 155.775L133.897 150.92ZM133.817 150.978L135.984 145.383C134.657 144.87 133.276 144.422 132.347 144.107L130.417 149.788L128.488 155.469C129.644 155.862 130.634 156.18 131.65 156.573L133.817 150.978ZM130.417 149.788L132.182 144.053C132.812 144.247 133.377 144.611 133.814 145.105L129.323 149.083L124.831 153.061C125.855 154.217 127.178 155.069 128.653 155.523L130.417 149.788ZM129.323 149.083L133.815 145.106C134.251 145.598 134.544 146.202 134.661 146.853L128.755 147.912L122.85 148.971C123.122 150.492 123.809 151.906 124.83 153.06L129.323 149.083ZM128.755 147.912L134.661 146.853C134.777 147.501 134.713 148.17 134.474 148.785L128.88 146.616L123.286 144.447C122.728 145.887 122.577 147.453 122.85 148.971L128.755 147.912ZM128.88 146.616L134.474 148.786C134.235 149.403 133.831 149.939 133.309 150.339L129.662 145.575L126.014 140.811C124.79 141.749 123.845 143.005 123.286 144.447L128.88 146.616ZM129.662 145.575L133.387 150.279C141.901 143.535 151.991 139.067 162.707 137.295L161.728 131.375L160.749 125.455C148.026 127.559 136.046 132.865 125.936 140.872L129.662 145.575ZM109.205 51.5351L108.524 57.4962C107.842 57.4183 107.215 57.0883 106.765 56.5712L111.29 52.6318L115.816 48.6923C114.299 46.9493 112.184 45.8366 109.887 45.5739L109.205 51.5351ZM111.29 52.6318L106.595 56.367L130.767 86.7528L135.462 83.0175L140.158 79.2822L115.986 48.8965L111.29 52.6318ZM135.462 83.0175L130.604 86.538C130.3 86.1192 130.129 85.6367 130.089 85.1513L136.069 84.6611L142.049 84.1709C141.912 82.5072 141.327 80.8861 140.321 79.497L135.462 83.0175ZM136.069 84.6611L136.677 90.6302L136.888 90.6087L136.28 84.6396L135.672 78.6705L135.461 78.6919L136.069 84.6611ZM136.28 84.6396L130.336 85.457L132.915 104.212L138.859 103.394L144.803 102.577L142.224 83.8222L136.28 84.6396ZM138.859 103.394L132.883 103.93C132.841 103.468 132.91 103.005 133.08 102.577L138.653 104.802L144.225 107.026C144.752 105.706 144.962 104.278 144.835 102.859L138.859 103.394ZM138.653 104.802L133.08 102.577C133.25 102.151 133.519 101.768 133.869 101.46L137.833 105.964L141.798 110.467C142.869 109.525 143.699 108.344 144.225 107.026L138.653 104.802ZM137.833 105.964L133.694 101.62L123.684 111.159L127.823 115.503L131.962 119.847L141.972 110.308L137.833 105.964ZM127.823 115.503L124.085 110.81C117.736 115.866 110.407 119.549 102.561 121.628L104.097 127.428L105.633 133.228C115.084 130.724 123.913 126.287 131.561 120.196L127.823 115.503ZM104.097 127.428L102.553 121.63C93.119 124.141 84.3061 128.577 76.6679 134.657L80.4047 139.351L84.1415 144.046C90.4856 138.996 97.8052 135.312 105.641 133.226L104.097 127.428ZM80.4047 139.351L76.6715 134.654L66.6364 142.63L70.3695 147.327L74.1027 152.024L84.1378 144.049L80.4047 139.351ZM70.3695 147.327L66.5914 142.666C66.899 142.417 67.2521 142.233 67.63 142.124L69.2885 147.891L70.9469 153.657C72.1134 153.321 73.2025 152.754 74.1476 151.988L70.3695 147.327ZM69.2885 147.891L67.63 142.124C68.0103 142.015 68.4075 141.984 68.7981 142.031L68.0736 147.987L67.3492 153.943C68.5543 154.09 69.778 153.993 70.9469 153.657L69.2885 147.891ZM68.0736 147.987L68.7985 142.031C69.1856 142.078 69.5638 142.203 69.9097 142.402L66.9174 147.602L63.925 152.803C64.982 153.411 66.1472 153.797 67.3488 153.943L68.0736 147.987ZM66.9174 147.602L69.9101 142.402C70.2493 142.597 70.5487 142.86 70.7885 143.177L66.0033 146.797L61.2181 150.416C61.9529 151.388 62.8743 152.198 63.9246 152.803L66.9174 147.602ZM66.0033 146.797L70.7353 143.108L46.4189 111.916L41.6869 115.604L36.9549 119.293L61.2713 150.486L66.0033 146.797ZM41.6869 115.604L46.482 111.998C46.8202 112.448 47.0272 112.979 47.0834 113.535L41.1137 114.138L35.144 114.74C35.3074 116.36 35.9109 117.907 36.8918 119.211L41.6869 115.604ZM41.1137 114.138L47.0572 113.316L44.5152 94.9199L38.5717 95.7411L32.6281 96.5624L35.1701 114.959L41.1137 114.138ZM38.5717 95.7411L44.0563 93.3082C44.2461 93.7362 44.33 94.2279 44.2722 94.7343L38.3109 94.0536L32.3497 93.3729C32.1594 95.0392 32.4305 96.6939 33.0871 98.1741L38.5717 95.7411ZM38.3109 94.0536L44.2722 94.7346C44.1942 95.4173 43.8636 96.0446 43.347 96.4943L39.4076 91.9687L35.4682 87.4431C33.7255 88.96 32.6122 91.0749 32.3497 93.3726L38.3109 94.0536ZM39.4076 91.9687L43.1343 96.671L53.2017 88.6925L49.475 83.9902L45.7483 79.2878L35.681 87.2663L39.4076 91.9687ZM49.475 83.9902L53.2197 88.6781C59.5507 83.6209 66.867 79.9395 74.7012 77.8679L73.1674 72.0673L71.6336 66.2667C62.1873 68.7644 53.365 73.2036 45.7303 79.3022L49.475 83.9902ZM73.1674 72.0673L74.7116 77.8652C84.1525 75.3506 92.9742 70.9163 100.625 64.8399L96.893 60.1415L93.1613 55.4432C86.8024 60.4937 79.47 64.1794 71.6231 66.2694L73.1674 72.0673ZM96.893 60.1415L100.636 64.8308L110.669 56.822L106.926 52.1327L103.183 47.4435L93.1499 55.4523L96.893 60.1415ZM106.926 52.1327L110.447 56.9913C109.889 57.3954 109.203 57.5739 108.524 57.4963L109.205 51.5351L109.886 45.5739C107.593 45.3118 105.28 45.9163 103.406 47.2742L106.926 52.1327ZM11.9535 30.2314L15.2969 35.2135C15.7221 34.9282 17.6209 34.2813 21.6684 35.013C25.4262 35.6923 30.0735 37.4078 34.9045 40.2496L37.9467 35.0781L40.9889 29.9065C35.1645 26.4802 29.1905 24.1784 23.8032 23.2044C18.7055 22.2828 12.9354 22.3466 8.61012 25.2492L11.9535 30.2314ZM37.9467 35.0781L34.6491 40.0906C41.7087 44.7349 47.4715 51.0977 51.3956 58.5812L56.7094 55.7948L62.0232 53.0085C57.154 43.7226 50.0034 35.8279 41.2443 30.0655L37.9467 35.0781ZM56.7094 55.7948L51.7347 59.1493C51.2739 58.4659 51.0312 57.6601 51.0377 56.8369L57.0375 56.8837L63.0373 56.9306C63.0498 55.3323 62.5782 53.7664 61.6841 52.4404L56.7094 55.7948ZM57.0375 56.8837L51.0377 56.8358C51.0443 56.0056 51.303 55.2049 51.7701 54.535L56.6918 57.9667L61.6135 61.3985C62.5238 60.0929 63.0245 58.5367 63.0373 56.9316L57.0375 56.8837ZM56.6918 57.9667L51.771 54.5337C52.2386 53.8634 52.901 53.3442 53.677 53.0513L55.7953 58.665L57.9136 64.2786C59.4145 63.7122 60.7016 62.7055 61.6126 61.3998L56.6918 57.9667ZM55.7953 58.665L53.6773 53.0512C54.449 52.7601 55.2893 52.7099 56.0882 52.9057L54.6605 58.7333L53.2329 64.561C54.7845 64.9411 56.4164 64.8434 57.9133 64.2787L55.7953 58.665ZM54.6605 58.7333L55.6667 52.8183C51.823 52.1645 47.8853 52.3093 44.0998 53.2443L45.5385 59.0693L46.9772 64.8942C49.1621 64.3546 51.4353 64.2709 53.6544 64.6484L54.6605 58.7333ZM45.5385 59.0693L43.4414 53.4477C41.4006 54.2089 39.8501 55.4547 38.862 56.2999C37.5904 57.3876 37.2677 57.7551 36.5546 58.2833C36.05 58.657 35.9448 58.6218 36.0732 58.6007C36.2731 58.5679 36.1359 58.6871 35.4115 58.3592L32.9369 63.8251L30.4623 69.291C32.9493 70.417 35.4861 70.8578 38.0174 70.4421C40.4772 70.0383 42.3607 68.9159 43.6968 67.9263C44.8245 67.0911 46.1945 65.819 46.6623 65.4188C47.4136 64.7762 47.649 64.6858 47.6355 64.6909L45.5385 59.0693ZM32.9369 63.8251L35.4177 58.362C35.4114 58.3591 35.4881 58.3936 35.6073 58.4906C35.7291 58.5898 35.8616 58.727 35.9816 58.9002C36.2308 59.2597 36.2947 59.5772 36.3084 59.6898C36.3188 59.776 36.3003 59.7277 36.3379 59.5188C36.3736 59.3209 36.439 59.0929 36.521 58.8688L30.8861 56.8075L25.2513 54.7463C24.7927 56.0001 24.0671 58.4153 24.395 61.1293C24.777 64.2904 26.5895 67.5324 30.4561 69.2882L32.9369 63.8251ZM30.8861 56.8075L33.2731 51.3028C33.3867 51.352 33.655 51.4738 33.978 51.6841L30.7035 56.7118L27.4291 61.7396C27.8695 62.0264 28.2612 62.2091 28.4991 62.3123L30.8861 56.8075ZM30.7035 56.7118L33.9795 51.6851C35.0776 52.4008 35.8011 53.5142 36.0505 54.7282L30.1732 55.9355L24.296 57.1428C24.6718 58.9726 25.761 60.6525 27.4276 61.7386L30.7035 56.7118ZM30.1732 55.9355L29.0743 50.037C27.5519 50.3206 24.927 50.6902 22.6198 50.5314C21.4661 50.452 20.7393 50.2603 20.3722 50.0966C20.0765 49.9648 20.3916 50.0338 20.6038 50.5074L15.1283 52.9609L9.65285 55.4143C12.2598 61.2324 18.5535 62.28 21.7959 62.5031C25.6205 62.7663 29.4226 62.1786 31.2722 61.834L30.1732 55.9355ZM15.1283 52.9609L20.6039 50.5077C20.4818 50.2351 20.5415 50.2297 20.5263 50.4092C20.5129 50.5679 20.4597 50.6381 20.4935 50.5826C20.5404 50.5056 20.6627 50.3445 20.9056 50.1288C21.1426 49.9184 21.4127 49.7286 21.6613 49.5767L18.5326 44.457L15.4039 39.3372C14.1198 40.122 11.8342 41.7323 10.2462 44.3383C8.45442 47.2787 7.76346 51.1971 9.65274 55.4141L15.1283 52.9609ZM18.5326 44.457L23.8216 41.6238C23.9105 41.7899 23.9735 41.9299 24.0145 42.0277L18.4828 44.3515L12.9511 46.6753C13.0225 46.8453 13.1184 47.0564 13.2436 47.2901L18.5326 44.457ZM18.4828 44.3515L24.0157 42.0304C24.4597 43.0888 24.492 44.2307 24.1872 45.2496L18.4389 43.5302L12.6905 41.8108C12.2295 43.3522 12.2785 45.072 12.95 46.6726L18.4828 44.3515ZM18.4389 43.5302L20.3113 37.8299C19.3711 37.521 18.0186 36.9934 16.8608 36.2729L13.6908 41.3671L10.5209 46.4614C12.8233 47.8941 15.1813 48.7756 16.5664 49.2305L18.4389 43.5302ZM13.6908 41.3671L8.06218 39.289C8.06627 39.2779 8.06955 39.2692 8.07164 39.2637C8.07371 39.2582 8.07502 39.2548 8.07503 39.2547C8.07506 39.2547 8.07489 39.2551 8.07439 39.2564C8.07386 39.2578 8.07325 39.2594 8.0722 39.2621C8.0705 39.2665 8.06693 39.2758 8.06317 39.2856C8.04983 39.3205 8.01162 39.4203 7.96944 39.5428L13.643 41.495L19.3165 43.4473C19.3018 43.49 19.2895 43.5237 19.2819 43.5444C19.278 43.5549 19.2749 43.5632 19.2729 43.5683C19.271 43.5733 19.2698 43.5764 19.27 43.5761C19.2703 43.5752 19.2708 43.5739 19.2732 43.5677C19.275 43.5629 19.2787 43.5534 19.2826 43.5432C19.2867 43.5325 19.292 43.5185 19.2981 43.5024C19.3042 43.4863 19.3114 43.4669 19.3195 43.4452L13.6908 41.3671ZM13.643 41.495L16.2202 36.0767C15.9651 35.9554 15.751 35.7596 15.6064 35.5134L10.432 38.5507L5.25761 41.588C6.61646 43.903 8.63891 45.759 11.0657 46.9133L13.643 41.495ZM10.432 38.5507L15.6065 35.5135C15.5825 35.4726 15.5551 35.4197 15.5265 35.3528L10.0101 37.7128L4.49377 40.0728C4.71047 40.5793 4.96347 41.0869 5.25752 41.5879L10.432 38.5507ZM10.0101 37.7128L15.343 34.9632C15.3331 34.944 15.3496 34.9716 15.3613 35.0352C15.3666 35.0645 15.3691 35.0917 15.3695 35.1136C15.37 35.1354 15.3683 35.1428 15.3697 35.1327L9.42617 34.3114L3.48264 33.4902C3.12444 36.0824 3.64165 38.4538 4.67727 40.4624L10.0101 37.7128ZM9.42617 34.3114L15.3705 35.127C15.3756 35.09 15.3806 35.0692 15.3824 35.0621C15.3842 35.0552 15.3836 35.0592 15.3785 35.0719C15.3733 35.0847 15.3652 35.1023 15.3536 35.1228C15.342 35.1433 15.3291 35.1629 15.3159 35.1804L10.5228 31.5712L5.72976 27.962C4.50528 29.5881 3.75917 31.4745 3.48185 33.4959L9.42617 34.3114ZM10.5228 31.5712L15.3166 35.1795C15.3121 35.1855 15.2956 35.2059 15.2665 35.2318L11.2807 30.747L7.29486 26.2622C6.70108 26.7899 6.18118 27.3623 5.72909 27.9629L10.5228 31.5712ZM11.2807 30.747L15.2661 35.2321C15.2559 35.2412 15.2556 35.2409 15.2687 35.2305L11.5394 30.5302L7.81018 25.8299C7.646 25.9602 7.47285 26.104 7.29517 26.2619L11.2807 30.747ZM11.5394 30.5302L15.2687 35.2305C15.2467 35.248 15.2358 35.2556 15.2409 35.252C15.2462 35.2481 15.2627 35.2364 15.2962 35.214L11.9535 30.2314L8.61077 25.2488C8.39644 25.3926 8.11409 25.5888 7.81017 25.8299L11.5394 30.5302Z" fill="white" mask="url(#path-1-outside-1_898_3091)"/>
<path d="M130.417 149.788C129.995 149.658 129.616 149.414 129.323 149.083C129.03 148.752 128.833 148.347 128.755 147.912C128.677 147.477 128.721 147.028 128.88 146.616C129.04 146.204 129.311 145.844 129.662 145.575C138.973 138.2 150.008 133.313 161.728 131.375C181.489 128.867 197.401 135.048 194.681 144.775C192.282 153.097 178.132 150.616 178.132 150.616C178.132 150.616 184.76 157.768 178.647 163.266C172.534 168.763 158.649 158.177 158.649 158.177C158.649 158.177 159.292 166.64 152.66 166.577C143.859 166.605 144.578 158.678 140.646 154.699C137.592 152.406 134.116 150.738 130.417 149.788Z" fill="#CAE3FF"/>
<path d="M130.417 149.788C131.46 150.142 132.645 150.524 133.816 150.978C142.517 144.643 152.588 140.446 163.213 138.728C177.6 136.925 189.959 139.764 194.547 145.149C194.601 145.027 194.645 144.902 194.681 144.775C197.427 135.142 181.489 128.867 161.728 131.375C150.008 133.313 138.973 138.2 129.662 145.575C129.311 145.844 129.04 146.204 128.88 146.616C128.721 147.028 128.677 147.477 128.755 147.912C128.833 148.347 129.03 148.752 129.323 149.083C129.616 149.414 129.995 149.658 130.417 149.788Z" fill="#DDEDFF"/>
<path d="M165.369 141.934C165.618 141.354 166.264 141.066 166.854 141.251L166.971 141.294L167.822 141.672C172.048 143.617 175.855 146.373 179.026 149.786C179.484 150.279 179.456 151.051 178.962 151.51C178.499 151.94 177.792 151.942 177.328 151.534L177.238 151.447L176.639 150.819C173.81 147.929 170.476 145.58 166.802 143.89L166.009 143.537L165.897 143.483C165.356 143.183 165.12 142.515 165.369 141.934Z" fill="#276288"/>
<path d="M151.419 146.98C151.8 146.477 152.497 146.352 153.025 146.673L153.128 146.744L153.463 147.004C156.891 149.732 159.175 153.651 159.853 157.989C159.958 158.655 159.502 159.279 158.837 159.383C158.171 159.487 157.547 159.031 157.443 158.365C156.859 154.632 154.893 151.261 151.943 148.914L151.655 148.69L151.56 148.61C151.107 148.188 151.037 147.484 151.419 146.98Z" fill="#276288"/>
<path d="M54.6611 58.7328C55.0375 58.825 55.433 58.8012 55.7957 58.6643C56.1583 58.5275 56.471 58.2841 56.6926 57.9662C56.9143 57.6483 57.0346 57.2708 57.0376 56.8832C57.0406 56.4956 56.9263 56.1163 56.7096 55.7949C52.313 47.4101 45.8564 40.2809 37.9469 35.0775C24.1743 26.9756 10.5132 26.3918 9.4267 34.3112C8.48478 41.1271 19.6081 43.8796 19.6081 43.8796C19.6081 43.8796 12.4518 46.9859 15.1286 52.9605C17.8054 58.9352 31.3695 55.6899 31.3695 55.6899C31.3695 55.6899 28.1533 61.6523 32.9372 63.8247C39.3602 66.7327 41.4844 60.5812 45.5393 59.0689C48.5245 58.3316 51.6297 58.2172 54.6611 58.7328Z" fill="#CAE3FF"/>
<path d="M41.874 43.3744C47.6963 47.0635 52.6983 51.9098 56.5697 57.6126C56.7169 57.347 56.7941 57.0484 56.7941 56.7448C56.7941 56.4412 56.7169 56.1426 56.5697 55.877C52.173 47.4922 45.7165 40.363 37.807 35.1596C24.1746 26.9754 10.5136 26.3915 9.42708 34.311C9.33016 35.7929 9.68021 37.2697 10.4319 38.5505C11.1837 39.8312 12.3025 40.8569 13.6436 41.4947C15.9861 34.6868 29.025 35.5604 41.874 43.3744Z" fill="#DDEDFF"/>
<path d="M19.1359 42.7547L19.8296 42.4743C23.0832 41.21 26.5467 40.5732 30.0371 40.598L30.7858 40.6137L30.9108 40.6241C31.5233 40.7078 31.9855 41.2432 31.964 41.8744C31.9409 42.5479 31.3755 43.0752 30.702 43.0522C27.2898 42.9355 23.892 43.5139 20.7139 44.7488L20.0802 45.0041L19.9627 45.047C19.3714 45.2274 18.728 44.9339 18.4833 44.3516C18.2389 43.7692 18.4798 43.1046 19.0226 42.8087L19.1359 42.7547Z" fill="#276288"/>
<path d="M30.3472 55.0242C32.2658 52.0794 35.2037 49.9514 38.591 49.0441L38.9206 48.9593L39.0434 48.937C39.6559 48.8529 40.2445 49.2441 40.3935 49.8578C40.5424 50.4719 40.1985 51.0908 39.6152 51.2964L39.4954 51.3316L38.9524 51.4771C36.26 52.2674 33.9309 53.9944 32.3924 56.3557C32.0245 56.9203 31.2682 57.0796 30.7036 56.7117C30.1392 56.3439 29.9797 55.5887 30.3472 55.0242Z" fill="#276288"/>
<path d="M137.833 105.963L127.822 115.502C120.824 121.076 112.746 125.137 104.097 127.428C95.4623 129.726 87.3959 133.786 80.4047 139.351L70.3691 147.327C70.0504 147.586 69.6829 147.777 69.2886 147.891C68.8943 148.004 68.4812 148.037 68.0739 147.987C67.6666 147.938 67.2734 147.807 66.9178 147.602C66.5622 147.398 66.2514 147.123 66.0038 146.796L41.6873 115.604C41.366 115.177 41.1677 114.669 41.114 114.138L38.4329 94.7366L136.28 84.6396L138.859 103.395C138.901 103.873 138.831 104.355 138.653 104.801C138.475 105.248 138.194 105.646 137.833 105.963Z" fill="#4B9AE6"/>
<path d="M73.1678 72.0668C64.5274 74.3514 56.4582 78.4124 49.4753 83.9904L39.4072 91.9683C38.7942 92.5019 38.403 93.2457 38.3108 94.0532C38.2185 94.8607 38.4319 95.6735 38.9088 96.3317L63.0811 126.718C63.6147 127.331 64.3585 127.722 65.166 127.814C65.9736 127.906 66.7864 127.693 67.4445 127.216L77.5107 119.206C84.5099 113.653 92.5736 109.595 101.203 107.282C109.852 104.991 117.93 100.931 124.928 95.3568L134.964 87.3807C135.577 86.8471 135.968 86.1033 136.06 85.2958C136.153 84.4882 135.939 83.6754 135.462 83.0173L111.29 52.6313C110.756 52.0183 110.013 51.6272 109.205 51.5349C108.398 51.4427 107.585 51.656 106.927 52.1329L96.8929 60.1414C89.8882 65.7049 81.8118 69.7645 73.1678 72.0668Z" fill="#4B9AE6"/>
<path d="M49.9261 97.3667L64.4341 115.565C64.9677 116.178 65.7115 116.57 66.519 116.662C67.3265 116.754 68.1394 116.541 68.7975 116.064L73.9712 111.953C80.9656 106.373 89.0456 102.312 97.6962 100.027C106.331 97.7286 114.398 93.6691 121.389 88.1039L124.164 85.9234C124.772 85.3855 125.156 84.6399 125.242 83.833C125.329 83.026 125.11 82.216 124.63 81.5618L110.153 63.3288C109.619 62.7157 108.875 62.3246 108.068 62.2324C107.26 62.1401 106.447 62.3534 105.789 62.8303L100.577 66.8458C93.5944 72.4238 85.5252 76.4847 76.8848 78.7694C68.2471 81.0881 60.1739 85.1461 53.1597 90.6948L50.4189 92.9058C49.7797 93.4439 49.372 94.2073 49.2803 95.0377C49.1885 95.8682 49.4198 96.7021 49.9261 97.3667Z" fill="#CAE3FF"/>
<path d="M62.0066 103.261C66.0367 104.495 70.3044 102.229 71.5389 98.1988C72.7733 94.1688 70.5071 89.901 66.477 88.6666C62.4469 87.4321 58.1792 89.6984 56.9447 93.7285C55.7103 97.7585 57.9766 102.026 62.0066 103.261Z" fill="white"/>
<path d="M62.7725 100.356C65.1886 101.096 67.7472 99.7378 68.4873 97.3217C69.2274 94.9056 67.8687 92.347 65.4526 91.6069C63.0365 90.8668 60.4779 92.2255 59.7378 94.6416C58.9978 97.0577 60.3564 99.6163 62.7725 100.356Z" fill="black"/>
<path d="M104.386 83.8439C108.416 85.0784 112.684 82.8121 113.918 78.7821C115.152 74.752 112.886 70.4843 108.856 69.2498C104.826 68.0154 100.558 70.2817 99.3239 74.3117C98.0894 78.3418 100.356 82.6095 104.386 83.8439Z" fill="white"/>
<path d="M105.152 80.9396C107.568 81.6797 110.126 80.321 110.866 77.9049C111.607 75.4888 110.248 72.9302 107.832 72.1901C105.416 71.4501 102.857 72.8087 102.117 75.2248C101.377 77.6409 102.736 80.1995 105.152 80.9396Z" fill="black"/>
<path d="M95.8631 85.7273C97.1871 88.9103 94.4285 93.0779 89.6855 95.0457C84.9426 97.0135 79.9682 96.0939 78.6786 92.9415C77.3891 89.7891 80.1133 85.5909 84.8869 83.5887C89.6604 81.5866 94.7035 82.5674 95.8631 85.7273Z" fill="#EAC00F"/>
<path d="M72 131C74.5 127.333 86.6 117.9 99 115.5C114.5 112.5 127.5 101 129.5 99" stroke="#1369BD" stroke-width="3" stroke-linecap="round"/>
</g>
<defs>
<clipPath id="clip0_898_3091">
<rect width="200" height="200" fill="white"/>
</clipPath>
</defs>
</svg>
