<svg width="200" height="200" viewBox="0 0 200 200" fill="none" xmlns="http://www.w3.org/2000/svg">
<mask id="path-1-outside-1_1062_23735" maskUnits="userSpaceOnUse" x="12.0029" y="16.3322" width="176" height="168" fill="black">
<rect fill="white" x="12.0029" y="16.3322" width="176" height="168"/>
<path d="M122.857 23.6519C123.504 23.1415 124.443 23.2556 124.949 23.898L128.862 28.8599C131.224 28.7932 133.649 29.8653 135.286 31.9517L137.136 34.3072C139.209 36.9468 139.305 40.508 137.638 43.2066C137.758 43.3071 137.87 43.4211 137.971 43.5494C138.091 43.702 138.186 43.8669 138.261 44.0367C147.727 38.2889 156.448 34.7985 164.356 34.7984C170.889 34.7984 176.743 35.9508 182 37.9459V61.3843C180.611 60.3687 179.168 59.4575 177.672 58.6675V177.44H159.449V56.1802C152.278 58.4919 142.757 65.1287 132.114 73.6265V177.44H113.893V88.7955C112.854 89.6801 111.811 90.5684 110.766 91.4595C103.074 98.0171 94.9788 104.916 86.5596 111.712V177.44H68.3379V125.749C59.473 132.199 50.3355 138.229 41.0049 143.391V177.44H22.7832V152.154C21.1935 152.796 19.6002 153.408 18.0029 153.984V131.156C30.6792 126.039 43.593 117.968 56.3447 108.641C54.7349 109.416 52.7473 108.998 51.6006 107.536C51.2231 107.055 50.5739 105.532 50.0479 103.493C48.3974 102.922 46.5644 101.577 46.4053 100.026C46.2502 98.5131 47.7222 96.7797 49.2656 95.8863C49.4905 92.7737 50.5307 89.7213 53.1133 87.692L63.4385 79.5787L59.7607 74.9146C59.2504 74.2681 59.3638 73.3296 60.0059 72.8238L61.6826 71.5025C62.3297 70.9926 63.2682 71.1067 63.7734 71.7486L67.458 76.4214L78.9473 67.3951L75.4219 62.9244C74.9115 62.2773 75.0256 61.3388 75.668 60.8336L77.3447 59.5123C77.9913 59.0022 78.9299 59.1161 79.4355 59.7584L83.6172 65.0611C83.6386 65.0883 83.6575 65.1169 83.6768 65.1451C85.918 64.9536 88.259 65.8058 89.9678 67.5904L94.2109 64.1216C93.6154 59.7392 94.0387 54.4467 97.8857 51.4263L108.308 43.2388L105.123 39.1998C104.613 38.5533 104.727 37.6148 105.369 37.1089L107.046 35.7877C107.692 35.2777 108.631 35.3918 109.137 36.0338L112.328 40.0806L123.981 30.9263L120.936 27.064C120.425 26.4174 120.539 25.479 121.182 24.9732L122.857 23.6519ZM93.748 73.3267C94.2768 75.2668 94.0303 77.348 93.0664 79.1119C93.6585 78.6117 94.2505 78.1138 94.8398 77.6158C96.905 75.8704 98.9498 74.1438 100.972 72.442C99.3891 73.1237 97.4854 72.6882 96.373 71.2701C96.3594 71.2527 96.3473 71.2325 96.333 71.2125L93.748 73.3267Z"/>
</mask>
<path d="M122.857 23.6519C123.504 23.1415 124.443 23.2556 124.949 23.898L128.862 28.8599C131.224 28.7932 133.649 29.8653 135.286 31.9517L137.136 34.3072C139.209 36.9468 139.305 40.508 137.638 43.2066C137.758 43.3071 137.87 43.4211 137.971 43.5494C138.091 43.702 138.186 43.8669 138.261 44.0367C147.727 38.2889 156.448 34.7985 164.356 34.7984C170.889 34.7984 176.743 35.9508 182 37.9459V61.3843C180.611 60.3687 179.168 59.4575 177.672 58.6675V177.44H159.449V56.1802C152.278 58.4919 142.757 65.1287 132.114 73.6265V177.44H113.893V88.7955C112.854 89.6801 111.811 90.5684 110.766 91.4595C103.074 98.0171 94.9788 104.916 86.5596 111.712V177.44H68.3379V125.749C59.473 132.199 50.3355 138.229 41.0049 143.391V177.44H22.7832V152.154C21.1935 152.796 19.6002 153.408 18.0029 153.984V131.156C30.6792 126.039 43.593 117.968 56.3447 108.641C54.7349 109.416 52.7473 108.998 51.6006 107.536C51.2231 107.055 50.5739 105.532 50.0479 103.493C48.3974 102.922 46.5644 101.577 46.4053 100.026C46.2502 98.5131 47.7222 96.7797 49.2656 95.8863C49.4905 92.7737 50.5307 89.7213 53.1133 87.692L63.4385 79.5787L59.7607 74.9146C59.2504 74.2681 59.3638 73.3296 60.0059 72.8238L61.6826 71.5025C62.3297 70.9926 63.2682 71.1067 63.7734 71.7486L67.458 76.4214L78.9473 67.3951L75.4219 62.9244C74.9115 62.2773 75.0256 61.3388 75.668 60.8336L77.3447 59.5123C77.9913 59.0022 78.9299 59.1161 79.4355 59.7584L83.6172 65.0611C83.6386 65.0883 83.6575 65.1169 83.6768 65.1451C85.918 64.9536 88.259 65.8058 89.9678 67.5904L94.2109 64.1216C93.6154 59.7392 94.0387 54.4467 97.8857 51.4263L108.308 43.2388L105.123 39.1998C104.613 38.5533 104.727 37.6148 105.369 37.1089L107.046 35.7877C107.692 35.2777 108.631 35.3918 109.137 36.0338L112.328 40.0806L123.981 30.9263L120.936 27.064C120.425 26.4174 120.539 25.479 121.182 24.9732L122.857 23.6519ZM93.748 73.3267C94.2768 75.2668 94.0303 77.348 93.0664 79.1119C93.6585 78.6117 94.2505 78.1138 94.8398 77.6158C96.905 75.8704 98.9498 74.1438 100.972 72.442C99.3891 73.1237 97.4854 72.6882 96.373 71.2701C96.3594 71.2527 96.3473 71.2325 96.333 71.2125L93.748 73.3267Z" fill="#040000"/>
<path d="M122.857 23.6519L126.572 28.3635L126.573 28.3628L122.857 23.6519ZM124.949 23.898L120.235 27.6095L120.238 27.6134L124.949 23.898ZM128.862 28.8599L124.151 32.5753C125.326 34.0649 127.136 34.9111 129.032 34.8575L128.862 28.8599ZM135.286 31.9517L130.566 35.6558L130.567 35.6573L135.286 31.9517ZM137.136 34.3072L132.417 38.0127L132.418 38.0137L137.136 34.3072ZM137.638 43.2066L132.533 40.0534C130.966 42.5902 131.5 45.893 133.786 47.8071L137.638 43.2066ZM137.971 43.5494L133.251 47.2535L133.258 47.2629L137.971 43.5494ZM138.261 44.0367L132.774 46.4657C133.473 48.0437 134.817 49.2444 136.464 49.7613C138.11 50.2781 139.9 50.061 141.375 49.1653L138.261 44.0367ZM164.356 34.7984L164.356 28.7984L164.356 28.7984L164.356 34.7984ZM182 37.9459H188C188 35.4535 186.459 33.2206 184.129 32.3363L182 37.9459ZM182 61.3843L178.459 66.2279C180.283 67.5614 182.701 67.7572 184.716 66.7344C186.731 65.7117 188 63.6438 188 61.3843H182ZM177.672 58.6675L180.473 53.3614C178.613 52.3797 176.375 52.4433 174.574 53.5292C172.773 54.615 171.672 56.5645 171.672 58.6675H177.672ZM177.672 177.44V183.44C180.986 183.44 183.672 180.754 183.672 177.44H177.672ZM159.449 177.44H153.449C153.449 180.754 156.136 183.44 159.449 183.44V177.44ZM159.449 56.1802H165.449C165.449 54.2621 164.532 52.4595 162.982 51.3302C161.431 50.2009 159.434 49.8811 157.608 50.4696L159.449 56.1802ZM132.114 73.6265L128.37 68.9378C126.945 70.0764 126.114 71.8019 126.114 73.6265H132.114ZM132.114 177.44V183.44C135.428 183.44 138.114 180.754 138.114 177.44H132.114ZM113.893 177.44H107.893C107.893 180.754 110.579 183.44 113.893 183.44V177.44ZM113.893 88.7955H119.893C119.893 86.4558 118.533 84.3296 116.409 83.3485C114.285 82.3674 111.784 82.7104 110.003 84.2273L113.893 88.7955ZM110.766 91.4595L106.873 86.8937L106.873 86.8937L110.766 91.4595ZM86.5596 111.712L82.7908 107.044C81.3797 108.183 80.5596 109.899 80.5596 111.712H86.5596ZM86.5596 177.44V183.44C89.8733 183.44 92.5596 180.754 92.5596 177.44H86.5596ZM68.3379 177.44H62.3379C62.3379 180.754 65.0242 183.44 68.3379 183.44V177.44ZM68.3379 125.749H74.3379C74.3379 123.492 73.0713 121.426 71.0599 120.402C69.0486 119.378 66.6328 119.569 64.8077 120.897L68.3379 125.749ZM41.0049 143.391L38.1002 138.141C36.1903 139.198 35.0049 141.208 35.0049 143.391H41.0049ZM41.0049 177.44V183.44C44.3186 183.44 47.0049 180.754 47.0049 177.44H41.0049ZM22.7832 177.44H16.7832C16.7832 180.754 19.4695 183.44 22.7832 183.44V177.44ZM22.7832 152.154H28.7832C28.7832 150.159 27.7918 148.295 26.138 147.179C24.4842 146.064 22.3842 145.844 20.5348 146.591L22.7832 152.154ZM18.0029 153.984H12.0029C12.0029 155.939 12.955 157.771 14.5545 158.894C16.154 160.017 18.2005 160.291 20.0391 159.628L18.0029 153.984ZM18.0029 131.156L15.757 125.592C13.4883 126.508 12.0029 128.709 12.0029 131.156H18.0029ZM56.3447 108.641L59.887 113.484C62.3899 111.653 63.0854 108.217 61.4912 105.557C59.897 102.897 56.5385 101.89 53.7439 103.234L56.3447 108.641ZM51.6006 107.536L56.3216 103.833L56.3184 103.829L51.6006 107.536ZM50.0479 103.493L55.8577 101.994C55.3552 100.046 53.9098 98.4794 52.0083 97.822L50.0479 103.493ZM46.4053 100.026L40.4365 100.638L40.4366 100.638L46.4053 100.026ZM49.2656 95.8863L52.2716 101.079C53.9915 100.083 55.1069 98.3007 55.25 96.3186L49.2656 95.8863ZM53.1133 87.692L49.4062 82.9742L49.4061 82.9742L53.1133 87.692ZM63.4385 79.5787L67.1456 84.2964C68.3982 83.3122 69.208 81.8701 69.3964 80.2883C69.5848 78.7064 69.1363 77.1145 68.1499 75.8636L63.4385 79.5787ZM59.7607 74.9146L64.4722 71.1995L64.4703 71.1971L59.7607 74.9146ZM60.0059 72.8238L63.7188 77.5369L63.7195 77.5365L60.0059 72.8238ZM61.6826 71.5025L65.3962 76.2152L65.3962 76.2151L61.6826 71.5025ZM63.7734 71.7486L59.0587 75.4596L59.0619 75.4637L63.7734 71.7486ZM67.458 76.4214L62.7465 80.1365C64.7957 82.7353 68.5622 83.1841 71.1647 81.1395L67.458 76.4214ZM78.9473 67.3951L82.654 72.1132C83.9068 71.1289 84.7167 69.6869 84.9051 68.1049C85.0936 66.5229 84.6452 64.9309 83.6587 63.6799L78.9473 67.3951ZM75.4219 62.9244L80.1333 59.2092L80.1329 59.2087L75.4219 62.9244ZM75.668 60.8336L79.3773 65.5496L79.3816 65.5462L75.668 60.8336ZM77.3447 59.5123L81.0583 64.2249L81.0608 64.223L77.3447 59.5123ZM79.4355 59.7584L74.7212 63.4698L74.7242 63.4736L79.4355 59.7584ZM83.6172 65.0611L88.3286 61.3459L88.3285 61.3458L83.6172 65.0611ZM83.6768 65.1451L78.7249 68.5332C79.946 70.3178 82.0329 71.3074 84.1875 71.1233L83.6768 65.1451ZM89.9678 67.5904L85.6341 71.74C87.7998 74.0018 91.3408 74.2177 93.7653 72.2357L89.9678 67.5904ZM94.2109 64.1216L98.0084 68.767C99.6239 67.4463 100.437 65.3813 100.156 63.3138L94.2109 64.1216ZM97.8857 51.4263L101.591 56.1456L101.592 56.1445L97.8857 51.4263ZM108.308 43.2388L112.014 47.957C113.267 46.9728 114.077 45.5308 114.265 43.9489C114.454 42.367 114.006 40.775 113.019 39.524L108.308 43.2388ZM105.123 39.1998L109.835 35.4849L109.833 35.4822L105.123 39.1998ZM105.369 37.1089L109.082 41.8223L109.083 41.8216L105.369 37.1089ZM107.046 35.7877L110.759 40.5003L110.761 40.4989L107.046 35.7877ZM109.137 36.0338L104.424 39.7469L104.425 39.7491L109.137 36.0338ZM112.328 40.0806L107.617 43.796C109.666 46.3945 113.432 46.8432 116.035 44.7989L112.328 40.0806ZM123.981 30.9263L127.688 35.6446C128.941 34.6604 129.751 33.2182 129.939 31.6362C130.128 30.0541 129.679 28.462 128.693 27.2109L123.981 30.9263ZM120.936 27.064L125.647 23.3486L125.645 23.3465L120.936 27.064ZM121.182 24.9732L124.893 29.6874L124.897 29.6848L121.182 24.9732ZM93.748 73.3267L89.9494 68.6824C88.1161 70.1818 87.3365 72.6193 87.9592 74.9043L93.748 73.3267ZM93.0664 79.1119L87.8013 76.2346C86.4159 78.7697 87.0338 81.9321 89.2715 83.7593C91.5092 85.5865 94.7313 85.5597 96.9383 83.6954L93.0664 79.1119ZM94.8398 77.6158L98.7126 82.1986L98.7129 82.1983L94.8398 77.6158ZM100.972 72.442L104.835 77.0323C107.112 75.1162 107.64 71.8211 106.077 69.2894C104.513 66.7577 101.331 65.7543 98.5979 66.9315L100.972 72.442ZM96.373 71.2701L101.094 67.5669L101.09 67.5619L96.373 71.2701ZM96.333 71.2125L101.214 67.7232C100.249 66.3737 98.769 65.4838 97.1245 65.2649C95.4801 65.0461 93.8185 65.5178 92.5343 66.5681L96.333 71.2125ZM122.857 23.6519L126.573 28.3628C124.614 29.908 121.778 29.5699 120.235 27.6095L124.949 23.898L129.664 20.1866C127.109 16.9413 122.395 16.3751 119.142 18.9411L122.857 23.6519ZM124.949 23.898L120.238 27.6134L124.151 32.5753L128.862 28.8599L133.574 25.1445L129.66 20.1826L124.949 23.898ZM128.862 28.8599L129.032 34.8575C129.481 34.8448 130.096 35.0569 130.566 35.6558L135.286 31.9517L140.006 28.2477C137.202 24.6737 132.967 22.7415 128.693 22.8623L128.862 28.8599ZM135.286 31.9517L130.567 35.6573L132.417 38.0127L137.136 34.3072L141.855 30.6016L140.005 28.2462L135.286 31.9517ZM137.136 34.3072L132.418 38.0137C132.886 38.6103 132.921 39.4262 132.533 40.0534L137.638 43.2066L142.742 46.3599C145.689 41.5898 145.533 35.2833 141.854 30.6007L137.136 34.3072ZM137.638 43.2066L133.786 47.8071C133.606 47.6562 133.423 47.4728 133.251 47.2535L137.971 43.5494L142.691 39.8452C142.317 39.3693 141.91 38.9581 141.489 38.6061L137.638 43.2066ZM137.971 43.5494L133.258 47.2629C133.023 46.9651 132.871 46.6843 132.774 46.4657L138.261 44.0367L143.747 41.6076C143.5 41.0494 143.159 40.4389 142.683 39.8359L137.971 43.5494ZM138.261 44.0367L141.375 49.1653C150.53 43.6066 158.101 40.7985 164.356 40.7984L164.356 34.7984L164.356 28.7984C154.795 28.7985 144.925 32.9712 135.147 38.908L138.261 44.0367ZM164.356 34.7984V40.7984C170.165 40.7984 175.297 41.8196 179.871 43.5555L182 37.9459L184.129 32.3363C178.189 30.0819 171.613 28.7984 164.356 28.7984V34.7984ZM182 37.9459H176V61.3843H182H188V37.9459H182ZM182 61.3843L185.541 56.5408C183.935 55.3666 182.246 54.2975 180.473 53.3614L177.672 58.6675L174.871 63.9737C176.091 64.6174 177.287 65.3709 178.459 66.2279L182 61.3843ZM177.672 58.6675H171.672V177.44H177.672H183.672V58.6675H177.672ZM177.672 177.44V171.44H159.449V177.44V183.44H177.672V177.44ZM159.449 177.44H165.449V56.1802H159.449H153.449V177.44H159.449ZM159.449 56.1802L157.608 50.4696C149.238 53.1679 138.906 60.525 128.37 68.9378L132.114 73.6265L135.858 78.3152C146.607 69.7323 155.318 63.8159 161.29 61.8908L159.449 56.1802ZM132.114 73.6265H126.114V177.44H132.114H138.114V73.6265H132.114ZM132.114 177.44V171.44H113.893V177.44V183.44H132.114V177.44ZM113.893 177.44H119.893V88.7955H113.893H107.893V177.44H113.893ZM113.893 88.7955L110.003 84.2273C108.963 85.1123 107.919 86.0014 106.873 86.8937L110.766 91.4595L114.658 96.0254C115.702 95.1353 116.744 94.2478 117.783 93.3637L113.893 88.7955ZM110.766 91.4595L106.873 86.8937C99.1736 93.4579 91.1378 100.306 82.7908 107.044L86.5596 111.712L90.3284 116.381C98.8198 109.526 106.974 102.576 114.658 96.0254L110.766 91.4595ZM86.5596 111.712H80.5596V177.44H86.5596H92.5596V111.712H86.5596ZM86.5596 177.44V171.44H68.3379V177.44V183.44H86.5596V177.44ZM68.3379 177.44H74.3379V125.749H68.3379H62.3379V177.44H68.3379ZM68.3379 125.749L64.8077 120.897C56.0837 127.245 47.1585 133.129 38.1002 138.141L41.0049 143.391L43.9095 148.641C53.5125 143.328 62.8623 137.153 71.868 130.6L68.3379 125.749ZM41.0049 143.391H35.0049V177.44H41.0049H47.0049V143.391H41.0049ZM41.0049 177.44V171.44H22.7832V177.44V183.44H41.0049V177.44ZM22.7832 177.44H28.7832V152.154H22.7832H16.7832V177.44H22.7832ZM22.7832 152.154L20.5348 146.591C19.0106 147.207 17.4881 147.791 15.9668 148.34L18.0029 153.984L20.0391 159.628C21.7123 159.024 23.3765 158.386 25.0316 157.717L22.7832 152.154ZM18.0029 153.984H24.0029V131.156H18.0029H12.0029V153.984H18.0029ZM18.0029 131.156L20.2489 136.72C33.5849 131.336 46.9566 122.942 59.887 113.484L56.3447 108.641L52.8025 103.798C40.2294 112.995 27.7735 120.741 15.757 125.592L18.0029 131.156ZM56.3447 108.641L53.7439 103.234C54.6154 102.815 55.6915 103.029 56.3216 103.833L51.6006 107.536L46.8796 111.239C49.803 114.966 54.8544 116.016 58.9456 114.048L56.3447 108.641ZM51.6006 107.536L56.3184 103.829C56.4738 104.026 56.5646 104.175 56.5934 104.223C56.6288 104.282 56.6403 104.307 56.6298 104.286C56.6075 104.242 56.5472 104.114 56.4592 103.892C56.2843 103.45 56.0649 102.798 55.8577 101.994L50.0479 103.493L44.238 104.991C44.5568 106.227 44.9251 107.357 45.3007 108.306C45.598 109.058 46.1157 110.267 46.8828 111.243L51.6006 107.536ZM50.0479 103.493L52.0083 97.822C51.9494 97.8017 51.8596 97.7632 51.7653 97.7097C51.6693 97.6553 51.6244 97.617 51.6279 97.6201C51.6324 97.624 51.6609 97.6493 51.7056 97.7004C51.75 97.751 51.8211 97.8392 51.9021 97.9693C52.0609 98.2242 52.3023 98.7147 52.374 99.4137L46.4053 100.026L40.4366 100.638C40.7342 103.54 42.4629 105.541 43.7067 106.634C45.0409 107.807 46.6125 108.654 48.0874 109.163L50.0479 103.493ZM46.4053 100.026L52.374 99.4142C52.4457 100.114 52.31 100.636 52.2142 100.901C52.1643 101.04 52.1158 101.136 52.0846 101.193C52.0531 101.25 52.0313 101.28 52.027 101.286C52.0223 101.292 52.0519 101.253 52.1201 101.192C52.1877 101.132 52.2464 101.094 52.2716 101.079L49.2656 95.8863L46.2597 90.6936C44.8178 91.5282 43.4293 92.7262 42.3701 94.1621C41.3873 95.4944 40.1447 97.7902 40.4365 100.638L46.4053 100.026ZM49.2656 95.8863L55.25 96.3186C55.4069 94.1468 56.0578 93.009 56.8205 92.4097L53.1133 87.692L49.4061 82.9742C45.0037 86.4337 43.574 91.4005 43.2812 95.454L49.2656 95.8863ZM53.1133 87.692L56.8204 92.4097L67.1456 84.2964L63.4385 79.5787L59.7314 74.8609L49.4062 82.9742L53.1133 87.692ZM63.4385 79.5787L68.1499 75.8636L64.4722 71.1995L59.7607 74.9146L55.0493 78.6297L58.727 83.2938L63.4385 79.5787ZM59.7607 74.9146L64.4703 71.1971C66.0154 73.1544 65.6805 75.9916 63.7188 77.5369L60.0059 72.8238L56.2929 68.1106C53.0471 70.6677 52.4855 75.3818 55.0512 78.6321L59.7607 74.9146ZM60.0059 72.8238L63.7195 77.5365L65.3962 76.2152L61.6826 71.5025L57.969 66.7898L56.2923 68.1111L60.0059 72.8238ZM61.6826 71.5025L65.3962 76.2151C63.4392 77.7574 60.6035 77.4221 59.0587 75.4596L63.7734 71.7486L68.4881 68.0376C65.9329 64.7912 61.2202 64.2279 57.969 66.7899L61.6826 71.5025ZM63.7734 71.7486L59.0619 75.4637L62.7465 80.1365L67.458 76.4214L72.1695 72.7064L68.485 68.0335L63.7734 71.7486ZM67.458 76.4214L71.1647 81.1395L82.654 72.1132L78.9473 67.3951L75.2406 62.677L63.7513 71.7034L67.458 76.4214ZM78.9473 67.3951L83.6587 63.6799L80.1333 59.2092L75.4219 62.9244L70.7105 66.6396L74.2359 71.1103L78.9473 67.3951ZM75.4219 62.9244L80.1329 59.2087C81.6772 61.1667 81.3412 64.0049 79.3773 65.5496L75.668 60.8336L71.9586 56.1175C68.7099 58.6728 68.1459 63.388 70.7108 66.64L75.4219 62.9244ZM75.668 60.8336L79.3816 65.5462L81.0583 64.2249L77.3447 59.5123L73.6311 54.7996L71.9544 56.1209L75.668 60.8336ZM77.3447 59.5123L81.0608 64.223C79.1014 65.7687 76.2647 65.4305 74.7212 63.4698L79.4355 59.7584L84.1499 56.0469C81.595 52.8017 76.8812 52.2358 73.6287 54.8015L77.3447 59.5123ZM79.4355 59.7584L74.7242 63.4736L78.9058 68.7764L83.6172 65.0611L88.3285 61.3458L84.1469 56.0431L79.4355 59.7584ZM83.6172 65.0611L78.9058 68.7763C78.815 68.6612 78.7504 68.5694 78.7242 68.5318C78.7108 68.5125 78.7015 68.4988 78.7027 68.5006C78.7043 68.503 78.703 68.5011 78.7083 68.5088C78.7117 68.5139 78.7178 68.5228 78.7249 68.5332L83.6768 65.1451L88.6286 61.757C88.6309 61.7603 88.6322 61.7622 88.6308 61.7602C88.63 61.759 88.6295 61.7583 88.6278 61.7557C88.6264 61.7537 88.6243 61.7506 88.622 61.7473C88.6136 61.7349 88.5946 61.7071 88.5714 61.6737C88.5256 61.6079 88.4408 61.4882 88.3286 61.3459L83.6172 65.0611ZM83.6768 65.1451L84.1875 71.1233C84.5856 71.0893 85.1561 71.2408 85.6341 71.74L89.9678 67.5904L94.3015 63.4408C91.362 60.3709 87.2504 58.8179 83.1661 59.1669L83.6768 65.1451ZM89.9678 67.5904L93.7653 72.2357L98.0084 68.767L94.2109 64.1216L90.4134 59.4763L86.1703 62.9451L89.9678 67.5904ZM94.2109 64.1216L100.156 63.3138C99.9191 61.5684 99.9308 59.9201 100.232 58.596C100.521 57.3311 101.007 56.6043 101.591 56.1456L97.8857 51.4263L94.1805 46.7071C87.6602 51.8264 87.6106 60.1092 88.2656 64.9295L94.2109 64.1216ZM97.8857 51.4263L101.592 56.1445L112.014 47.957L108.308 43.2388L104.601 38.5207L94.1791 46.7082L97.8857 51.4263ZM108.308 43.2388L113.019 39.524L109.835 35.4849L105.123 39.1998L100.411 42.9146L103.596 46.9537L108.308 43.2388ZM105.123 39.1998L109.833 35.4822C111.382 37.445 111.038 40.2811 109.082 41.8223L105.369 37.1089L101.656 32.3956C98.4157 34.9484 97.8435 39.6616 100.413 42.9173L105.123 39.1998ZM105.369 37.1089L109.083 41.8216L110.759 40.5003L107.046 35.7877L103.332 31.075L101.656 32.3963L105.369 37.1089ZM107.046 35.7877L110.761 40.4989C108.801 42.0449 105.966 41.7046 104.424 39.7469L109.137 36.0338L113.85 32.3206C111.296 29.079 106.584 28.5105 103.33 31.0765L107.046 35.7877ZM109.137 36.0338L104.425 39.7491L107.617 43.796L112.328 40.0806L117.039 36.3653L113.848 32.3184L109.137 36.0338ZM112.328 40.0806L116.035 44.7989L127.688 35.6446L123.981 30.9263L120.275 26.208L108.622 35.3623L112.328 40.0806ZM123.981 30.9263L128.693 27.2109L125.647 23.3486L120.936 27.064L116.224 30.7794L119.27 34.6417L123.981 30.9263ZM120.936 27.064L125.645 23.3465C127.194 25.3081 126.852 28.1453 124.893 29.6874L121.182 24.9732L117.47 20.259C114.227 22.8126 113.657 27.5268 116.226 30.7816L120.936 27.064ZM121.182 24.9732L124.897 29.6848L126.572 28.3635L122.857 23.6519L119.142 18.9403L117.467 20.2616L121.182 24.9732ZM93.748 73.3267L87.9592 74.9043C88.0791 75.3443 88.0229 75.8291 87.8013 76.2346L93.0664 79.1119L98.3315 81.9892C100.038 78.8669 100.474 75.1894 99.5369 71.7492L93.748 73.3267ZM93.0664 79.1119L96.9383 83.6954C97.4829 83.2354 98.157 82.6681 98.7126 82.1986L94.8398 77.6158L90.9671 73.033C90.3439 73.5596 89.8342 73.988 89.1946 74.5283L93.0664 79.1119ZM94.8398 77.6158L98.7129 82.1983C100.777 80.4539 102.818 78.7303 104.835 77.0323L100.972 72.442L97.1079 67.8516C95.0815 69.5573 93.0331 71.2869 90.9668 73.0333L94.8398 77.6158ZM100.972 72.442L98.5979 66.9315C99.4503 66.5643 100.482 66.7862 101.094 67.5669L96.373 71.2701L91.6522 74.9732C94.4893 78.5901 99.328 79.683 103.345 77.9524L100.972 72.442ZM96.373 71.2701L101.09 67.5619C101.169 67.6627 101.23 67.7472 101.269 67.8021C101.306 67.8554 101.334 67.8967 101.339 67.9045C101.341 67.9076 101.345 67.9132 101.34 67.9055C101.337 67.9012 101.329 67.8892 101.319 67.8745C101.3 67.8454 101.262 67.7904 101.214 67.7232L96.333 71.2125L91.4519 74.7017C91.411 74.6445 91.3806 74.5996 91.3677 74.5805C91.3642 74.5753 91.3614 74.5712 91.3597 74.5685C91.3588 74.5672 91.3581 74.5662 91.3576 74.5655C91.3572 74.5648 91.3569 74.5644 91.3569 74.5644C91.355 74.5616 91.362 74.5721 91.3674 74.5801C91.3791 74.5976 91.4132 74.6484 91.4573 74.711C91.5025 74.7752 91.5701 74.8688 91.6561 74.9782L96.373 71.2701ZM96.333 71.2125L92.5343 66.5681L89.9494 68.6824L93.748 73.3267L97.5467 77.9711L100.132 75.8568L96.333 71.2125Z" fill="white" mask="url(#path-1-outside-1_1062_23735)"/>
<path d="M159.449 43.4866H177.671V177.44H159.449V43.4866Z" fill="#CCD6DD"/>
<path d="M173.116 43.4866H177.672V177.44H173.116V43.4866Z" fill="#8899A6"/>
<path d="M132.114 59.9456L113.893 70.9558V177.44H132.114V59.9456ZM68.3379 108.73H86.5598V177.44H68.3379V108.73ZM22.7832 130.555H41.0051V177.44H22.7832V130.555Z" fill="#CCD6DD"/>
<path d="M36.4492 130.555H41.0047V177.44H36.4492V130.555ZM82.0039 108.73H86.5594V177.44H82.0039V108.73ZM127.559 59.9456H132.114V177.44H127.559V59.9456Z" fill="#8899A6"/>
<path d="M103.664 88.0528C76.987 110.598 47.5726 135.398 18.0029 145.711V153.984C51.6544 141.844 83.7021 114.534 110.766 91.4602C132.582 72.8604 153.191 55.2944 164.357 55.2944C171.008 55.2944 176.866 57.6311 182 61.3848V53.2491C176.943 50.2834 171.112 48.4658 164.357 48.4658C150.503 48.4658 127.753 67.6941 103.664 88.0528Z" fill="#CCD6DD"/>
<path d="M164.357 34.799C145.501 34.799 122.027 54.638 94.8402 77.6157C70.4954 98.1883 43.7548 120.761 18.0029 131.156V145.715C47.5726 135.397 76.987 110.602 103.664 88.0566C127.753 67.6983 150.503 48.4695 164.357 48.4695C171.112 48.4695 176.943 50.2875 182 53.2528V37.9464C176.743 35.9513 170.889 34.799 164.357 34.799Z" fill="#DD2E44"/>
<path d="M67.7096 79.1421L66.0329 80.4632C65.3863 80.9731 64.4477 80.8593 63.942 80.2173L59.7603 74.9144C59.2499 74.2678 59.3638 73.3293 60.0062 72.8235L61.6824 71.5024C62.3295 70.9925 63.268 71.1064 63.7733 71.7483L67.9555 77.0513C68.4654 77.6979 68.3562 78.6317 67.7096 79.1421ZM83.3711 67.1519L81.6948 68.473C81.0478 68.9834 80.1093 68.8695 79.6035 68.2271L75.4218 62.9247C74.9114 62.2776 75.0253 61.3391 75.6677 60.8338L77.3444 59.5127C77.991 59.0023 78.9295 59.1162 79.4352 59.7586L83.617 65.0611C84.1274 65.7081 84.0181 66.642 83.3711 67.1519ZM113.073 43.4273L111.396 44.7483C110.749 45.2583 109.811 45.1444 109.305 44.5024L105.123 39.1995C104.613 38.5529 104.727 37.6144 105.369 37.1086L107.046 35.7875C107.693 35.2776 108.631 35.3915 109.137 36.0334L113.319 41.3364C113.834 41.9783 113.72 42.9169 113.073 43.4273ZM128.885 31.2916L127.208 32.6127C126.562 33.1226 125.623 33.0087 125.117 32.3663L120.936 27.0638C120.425 26.4172 120.539 25.4787 121.181 24.973L122.858 23.6519C123.505 23.1415 124.443 23.2554 124.949 23.8978L129.131 29.2002C129.641 29.8427 129.531 30.7812 128.885 31.2916ZM90.0174 75.3792C89.0292 75.3792 88.0451 74.9511 87.3706 74.1265C86.1773 72.6687 86.3912 70.5142 87.8536 69.3204L94.2721 64.0724C95.7345 62.8791 97.8895 63.0887 99.0828 64.5553C100.277 66.0131 100.062 68.1681 98.5998 69.3613L92.1813 74.6094C91.5435 75.124 90.7784 75.3792 90.0174 75.3792Z" fill="#1C6399"/>
<path d="M79.9538 66.6053L53.1133 87.6925C46.1797 93.1409 50.3614 105.96 51.6007 107.536C52.9264 109.226 55.3771 109.522 57.0672 108.192L91.0464 81.497C94.4267 78.8414 95.0143 73.9489 92.3586 70.5686L90.509 68.2137C87.8529 64.8287 83.1292 64.1091 79.9538 66.6053Z" fill="#3B94D9"/>
<path d="M51.4451 103.785C49.659 103.724 46.613 102.047 46.4057 100.026C46.1983 98.0049 48.896 95.5916 50.7874 95.311C52.6751 95.0307 54.1096 96.328 54.4155 99.3455C54.7245 102.396 53.2312 103.846 51.4451 103.785Z" fill="#EAC00F"/>
<path d="M124.731 30.3392L97.8856 51.4268C90.952 56.8706 95.1342 69.6943 96.373 71.2701C97.6987 72.9602 100.149 73.2563 101.84 71.9264L135.823 45.2356C139.204 42.5799 139.791 37.6874 137.136 34.3071L135.286 31.9522C132.63 28.5672 127.901 27.8476 124.731 30.3392Z" fill="#3B94D9"/>
<path d="M59.4388 108.37C58.7643 108.37 58.095 108.069 57.6441 107.495C56.865 106.506 57.0425 105.071 58.0355 104.297L90.1929 79.1737C91.1723 78.4085 92.6073 78.5726 93.3859 79.5655C94.165 80.5542 93.9874 81.9892 92.9945 82.7636L60.8371 107.887C60.4271 108.215 59.9353 108.37 59.4388 108.37ZM104.023 72.3544C103.349 72.3544 102.679 72.0537 102.228 71.4796C101.449 70.4913 101.627 69.0563 102.62 68.2819L134.777 43.1585C135.761 42.3883 137.191 42.557 137.97 43.5499C138.75 44.5386 138.572 45.9736 137.579 46.748L105.422 71.8714C105.007 72.195 104.515 72.3544 104.023 72.3544Z" fill="#E1E8ED"/>
<path d="M59.8206 96.6412C62.4829 96.6412 64.6411 94.483 64.6411 91.8207C64.6411 89.1584 62.4829 87.0001 59.8206 87.0001C57.1582 87.0001 55 89.1584 55 91.8207C55 94.483 57.1582 96.6412 59.8206 96.6412Z" fill="white"/>
<path d="M59.8214 94.3901C61.2405 94.3901 62.3909 93.2397 62.3909 91.8206C62.3909 90.4015 61.2405 89.2511 59.8214 89.2511C58.4024 89.2511 57.252 90.4015 57.252 91.8206C57.252 93.2397 58.4024 94.3901 59.8214 94.3901Z" fill="#040000"/>
</svg>
