<svg width="200" height="200" viewBox="0 0 200 200" fill="none" xmlns="http://www.w3.org/2000/svg">
<mask id="path-1-outside-1_1347_15698" maskUnits="userSpaceOnUse" x="31.002" y="16" width="138" height="170" fill="black">
<rect fill="white" x="31.002" y="16" width="138" height="170"/>
<path d="M100.189 22C113.183 22.0001 123.476 33.0812 122.745 46.0186L121.958 57.3252L133.208 53.4434C145.695 49.1122 159.196 56.4817 162.346 69.3066C165.439 81.9628 157.114 94.5621 144.289 96.7559L133.602 98.5566L141.702 108.568C150.027 118.806 147.721 133.994 136.752 141.362C126.569 148.168 113.022 145.522 106.042 135.838V167.799C109.259 158.064 118.364 151.016 128.767 150.926L144.966 150.869C145.754 150.869 146.428 151.544 146.372 152.388C145.585 167.35 133.21 179.444 118.022 179.444H106.379C106.168 179.444 105.969 179.405 105.789 179.332H95.6191C95.4499 179.405 95.2644 179.444 95.0732 179.444L78.873 179.388C65.879 179.275 54.9102 168.307 54.9102 154.807V152.444C54.9102 151.601 55.5854 150.869 56.4854 150.869H68.1289C80.3852 150.869 90.8106 158.745 94.792 169.649V134.925C88.0201 145.35 73.8991 148.378 63.458 141.362C52.4332 133.993 50.1829 118.806 58.5078 108.568L66.7207 98.4434L56.708 96.7559C43.827 94.562 35.5588 81.9627 38.6523 69.3066C41.8023 56.4816 55.2461 49.1121 67.7334 53.4434L78.8701 57.2686L77.8584 46.5254C76.6209 33.3629 86.9707 22 100.189 22Z"/>
</mask>
<path d="M100.189 22C113.183 22.0001 123.476 33.0812 122.745 46.0186L121.958 57.3252L133.208 53.4434C145.695 49.1122 159.196 56.4817 162.346 69.3066C165.439 81.9628 157.114 94.5621 144.289 96.7559L133.602 98.5566L141.702 108.568C150.027 118.806 147.721 133.994 136.752 141.362C126.569 148.168 113.022 145.522 106.042 135.838V167.799C109.259 158.064 118.364 151.016 128.767 150.926L144.966 150.869C145.754 150.869 146.428 151.544 146.372 152.388C145.585 167.35 133.21 179.444 118.022 179.444H106.379C106.168 179.444 105.969 179.405 105.789 179.332H95.6191C95.4499 179.405 95.2644 179.444 95.0732 179.444L78.873 179.388C65.879 179.275 54.9102 168.307 54.9102 154.807V152.444C54.9102 151.601 55.5854 150.869 56.4854 150.869H68.1289C80.3852 150.869 90.8106 158.745 94.792 169.649V134.925C88.0201 145.35 73.8991 148.378 63.458 141.362C52.4332 133.993 50.1829 118.806 58.5078 108.568L66.7207 98.4434L56.708 96.7559C43.827 94.562 35.5588 81.9627 38.6523 69.3066C41.8023 56.4816 55.2461 49.1121 67.7334 53.4434L78.8701 57.2686L77.8584 46.5254C76.6209 33.3629 86.9707 22 100.189 22Z" fill="#FFB02E"/>
<path d="M100.189 22L100.189 16H100.189V22ZM122.745 46.0186L128.731 46.4352C128.732 46.4092 128.734 46.3832 128.736 46.3571L122.745 46.0186ZM121.958 57.3252L115.972 56.9085C115.833 58.9172 116.71 60.8621 118.308 62.0871C119.906 63.3121 122.012 63.6538 123.915 62.997L121.958 57.3252ZM133.208 53.4434L135.165 59.1152L135.174 59.1121L133.208 53.4434ZM162.346 69.3066L168.174 67.882L168.173 67.8755L162.346 69.3066ZM144.289 96.7559L145.286 102.672C145.291 102.672 145.296 102.671 145.301 102.67L144.289 96.7559ZM133.602 98.5566L132.605 92.64C130.502 92.9944 128.745 94.4383 127.99 96.4329C127.235 98.4274 127.596 100.673 128.937 102.331L133.602 98.5566ZM141.702 108.568L137.038 112.342C137.041 112.346 137.044 112.35 137.047 112.354L141.702 108.568ZM136.752 141.362L140.086 146.351C140.09 146.348 140.094 146.345 140.098 146.343L136.752 141.362ZM106.042 135.838L110.91 132.33C109.387 130.218 106.676 129.328 104.199 130.128C101.721 130.928 100.042 133.234 100.042 135.838H106.042ZM106.042 167.799H100.042C100.042 170.744 102.18 173.255 105.089 173.723C107.997 174.191 110.815 172.478 111.739 169.681L106.042 167.799ZM128.767 150.926L128.746 144.926C128.735 144.926 128.725 144.926 128.715 144.926L128.767 150.926ZM144.966 150.869V144.869C144.959 144.869 144.952 144.869 144.945 144.869L144.966 150.869ZM146.372 152.388L140.385 151.99C140.383 152.017 140.382 152.045 140.38 152.072L146.372 152.388ZM105.789 179.332L108.032 173.767C107.319 173.48 106.558 173.332 105.789 173.332V179.332ZM95.6191 179.332V173.332C94.8066 173.332 94.0025 173.497 93.2556 173.817L95.6191 179.332ZM95.0732 179.444L95.0523 185.444C95.0595 185.444 95.0667 185.444 95.074 185.444L95.0732 179.444ZM78.873 179.388L78.8211 185.387C78.8314 185.388 78.8417 185.388 78.8521 185.388L78.873 179.388ZM94.792 169.649L89.1559 171.707C90.1542 174.441 92.9708 176.065 95.8369 175.558C98.703 175.051 100.792 172.56 100.792 169.649H94.792ZM94.792 134.925H100.792C100.792 132.268 99.0442 129.927 96.4964 129.172C93.9486 128.417 91.2077 129.428 89.7603 131.657L94.792 134.925ZM63.458 141.362L66.8042 136.382C66.8002 136.379 66.7962 136.377 66.7921 136.374L63.458 141.362ZM58.5078 108.568L63.1629 112.354L63.1676 112.348L58.5078 108.568ZM66.7207 98.4434L71.3805 102.223C72.7247 100.566 73.0877 98.3194 72.3336 96.3232C71.5796 94.327 69.8221 92.8814 67.7179 92.5268L66.7207 98.4434ZM56.708 96.7559L55.7006 102.671L55.7109 102.672L56.708 96.7559ZM38.6523 69.3066L32.8255 67.8755L32.8239 67.882L38.6523 69.3066ZM67.7334 53.4434L65.7672 59.112C65.7729 59.114 65.7786 59.116 65.7843 59.118L67.7334 53.4434ZM78.8701 57.2686L76.921 62.9432C78.8485 63.6052 80.9802 63.2436 82.5815 61.9829C84.1828 60.7223 85.0348 58.735 84.8437 56.706L78.8701 57.2686ZM77.8584 46.5254L71.8847 47.087L71.8848 47.0879L77.8584 46.5254ZM100.189 22L100.189 28C109.68 28.0001 117.295 36.127 116.755 45.68L122.745 46.0186L128.736 46.3571C129.658 30.0354 116.687 16.0001 100.189 16L100.189 22ZM122.745 46.0186L116.76 45.6019L115.972 56.9085L121.958 57.3252L127.944 57.7419L128.731 46.4352L122.745 46.0186ZM121.958 57.3252L123.915 62.997L135.165 59.1152L133.208 53.4434L131.251 47.7715L120.001 51.6534L121.958 57.3252ZM133.208 53.4434L135.174 59.1121C144.313 55.9422 154.209 61.3347 156.519 70.7378L162.346 69.3066L168.173 67.8755C164.182 51.6287 147.078 42.2821 131.242 47.7747L133.208 53.4434ZM162.346 69.3066L156.517 70.7313C158.78 79.9882 152.692 89.2314 143.277 90.8418L144.289 96.7559L145.301 102.67C161.536 99.8929 172.098 83.9373 168.174 67.882L162.346 69.3066ZM144.289 96.7559L143.292 90.8393L132.605 92.64L133.602 98.5566L134.598 104.473L145.286 102.672L144.289 96.7559ZM133.602 98.5566L128.937 102.331L137.038 112.342L141.702 108.568L146.367 104.794L138.266 94.7826L133.602 98.5566ZM141.702 108.568L137.047 112.354C143.131 119.836 141.463 130.969 133.406 136.382L136.752 141.362L140.098 146.343C153.978 137.018 156.923 117.776 146.357 104.783L141.702 108.568ZM136.752 141.362L133.418 136.374C125.958 141.36 116.026 139.429 110.91 132.33L106.042 135.838L101.174 139.346C110.017 151.616 127.18 154.977 140.086 146.351L136.752 141.362ZM106.042 135.838H100.042V167.799H106.042H112.042V135.838H106.042ZM106.042 167.799L111.739 169.681C114.195 162.251 121.125 156.992 128.819 156.926L128.767 150.926L128.715 144.926C115.604 145.039 104.323 153.877 100.345 165.916L106.042 167.799ZM128.767 150.926L128.788 156.926L144.987 156.869L144.966 150.869L144.945 144.869L128.746 144.926L128.767 150.926ZM144.966 150.869V156.869C142.363 156.869 140.206 154.688 140.385 151.99L146.372 152.388L152.359 152.786C152.651 148.4 149.144 144.869 144.966 144.869V150.869ZM146.372 152.388L140.38 152.072C139.757 163.921 129.946 173.444 118.022 173.444V179.444V185.444C136.474 185.444 151.412 170.779 152.364 152.703L146.372 152.388ZM118.022 179.444V173.444H106.379V179.444V185.444H118.022V179.444ZM106.379 179.444V173.444C106.927 173.444 107.491 173.549 108.032 173.767L105.789 179.332L103.546 184.897C104.448 185.26 105.409 185.444 106.379 185.444V179.444ZM105.789 179.332V173.332H95.6191V179.332V185.332H105.789V179.332ZM95.6191 179.332L93.2556 173.817C93.8143 173.578 94.4313 173.444 95.0725 173.444L95.0732 179.444L95.074 185.444C96.0975 185.444 97.0854 185.231 97.9827 184.847L95.6191 179.332ZM95.0732 179.444L95.0942 173.444L78.894 173.388L78.873 179.388L78.8521 185.388L95.0523 185.444L95.0732 179.444ZM78.873 179.388L78.925 173.388C69.2742 173.304 60.9102 165.063 60.9102 154.807H54.9102H48.9102C48.9102 171.55 62.4839 185.246 78.8211 185.387L78.873 179.388ZM54.9102 154.807H60.9102V152.444H54.9102H48.9102V154.807H54.9102ZM54.9102 152.444H60.9102C60.9102 154.774 59.0378 156.869 56.4854 156.869V150.869V144.869C52.1329 144.869 48.9102 148.427 48.9102 152.444H54.9102ZM56.4854 150.869V156.869H68.1289V150.869V144.869H56.4854V150.869ZM68.1289 150.869V156.869C77.741 156.869 85.9956 163.052 89.1559 171.707L94.792 169.649L100.428 167.592C95.6257 154.439 83.0295 144.869 68.1289 144.869V150.869ZM94.792 169.649H100.792V134.925H94.792H88.792V169.649H94.792ZM94.792 134.925L89.7603 131.657C84.7902 139.308 74.4293 141.505 66.8042 136.382L63.458 141.362L60.1118 146.343C73.3689 155.25 91.2501 151.393 99.8237 138.193L94.792 134.925ZM63.458 141.362L66.7921 136.374C58.7111 130.973 57.0647 119.853 63.1629 112.354L58.5078 108.568L53.8527 104.783C43.301 117.759 46.1553 137.014 60.1239 146.351L63.458 141.362ZM58.5078 108.568L63.1676 112.348L71.3805 102.223L66.7207 98.4434L62.0609 94.6636L53.8481 104.789L58.5078 108.568ZM66.7207 98.4434L67.7179 92.5268L57.7052 90.8393L56.708 96.7559L55.7109 102.672L65.7235 104.36L66.7207 98.4434ZM56.708 96.7559L57.7154 90.841C48.2629 89.2311 42.2147 80.002 44.4808 70.7313L38.6523 69.3066L32.8239 67.882C28.9029 83.9234 39.3912 99.8929 55.7006 102.671L56.708 96.7559ZM38.6523 69.3066L44.4792 70.7378C46.7919 61.3217 56.6409 55.9466 65.7672 59.112L67.7334 53.4434L69.6996 47.7747C53.8514 42.2777 36.8128 51.6416 32.8255 67.8755L38.6523 69.3066ZM67.7334 53.4434L65.7843 59.118L76.921 62.9432L78.8701 57.2686L80.8192 51.594L69.6825 47.7688L67.7334 53.4434ZM78.8701 57.2686L84.8437 56.706L83.832 45.9628L77.8584 46.5254L71.8848 47.0879L72.8965 57.8311L78.8701 57.2686ZM77.8584 46.5254L83.8321 45.9638C82.9256 36.3228 90.5047 28 100.189 28V22V16C83.4367 16 70.3162 30.403 71.8847 47.087L77.8584 46.5254Z" fill="white" mask="url(#path-1-outside-1_1347_15698)"/>
<path d="M106.04 122.351H94.7897V169.65C90.8084 158.745 80.3835 150.869 68.1272 150.869H56.4832C55.5832 150.869 54.9082 151.601 54.9082 152.444V154.807C54.9082 168.307 65.877 179.276 78.871 179.388L95.071 179.444C95.2622 179.444 95.4473 179.404 95.6166 179.332H105.787C105.967 179.404 106.166 179.444 106.377 179.444H118.02C133.208 179.444 145.583 167.351 146.37 152.388C146.427 151.544 145.752 150.869 144.964 150.869L128.764 150.926C118.362 151.016 109.257 158.064 106.04 167.799V122.351Z" fill="#4B9AE8"/>
<path d="M100.187 22C86.9684 22 76.6185 33.3625 77.8559 46.525L78.8685 57.2688L67.7309 53.4438C55.2437 49.1125 41.7999 56.4813 38.6499 69.3062C35.5562 81.9625 43.8249 94.5625 56.7062 96.7562L66.7185 98.4437L58.5062 108.569C50.1812 118.806 52.4312 133.994 63.4562 141.362C74.256 148.619 88.9934 145.131 95.4622 133.825L100.581 125.669L104.743 133.825C111.212 145.131 125.893 148.619 136.75 141.362C147.718 133.994 150.025 118.806 141.7 108.569L133.6 98.5563L144.287 96.7562C157.112 94.5625 165.437 81.9625 162.343 69.3062C159.193 56.4813 145.693 49.1125 133.206 53.4438L121.956 57.325L122.743 46.0187C123.475 33.0813 113.181 22 100.187 22Z" fill="#E6EAEE"/>
<path d="M99.8523 108.4C111.596 108.4 121.115 98.8805 121.115 87.1372C121.115 75.3945 111.596 65.875 99.8523 65.875C88.1096 65.875 78.5898 75.3945 78.5898 87.1372C78.5898 98.8805 88.1096 108.4 99.8523 108.4Z" fill="#FFB02E"/>
<circle cx="89" cy="151" r="4" fill="white"/>
<circle cx="112" cy="150" r="4" fill="white"/>
</svg>
