<svg width="200" height="200" viewBox="0 0 200 200" fill="none" xmlns="http://www.w3.org/2000/svg">
<mask id="path-1-outside-1_1062_22187" maskUnits="userSpaceOnUse" x="10.3516" y="19.9998" width="174" height="160" fill="black">
<rect fill="white" x="10.3516" y="19.9998" width="174" height="160"/>
<path d="M76.7652 27.4247C78.5753 26.4746 80.8127 27.172 81.7633 28.9823C82.7139 30.7927 82.0168 33.0308 80.2066 33.9813L71.191 38.7147C66.4672 41.1656 63.4567 46.1345 63.4566 51.5155V53.0907H72.3004C90.9752 53.0908 107.4 65.5786 112.35 83.6346L121.294 116.147C122.7 121.378 127.425 124.978 132.825 124.978H157.8C168.938 124.978 177.994 133.922 178.219 145.003C178.432 155.851 169.846 164.789 159.259 165.732C159.26 165.76 159.262 165.788 159.262 165.816C159.262 169.948 155.913 173.298 151.781 173.298C147.779 173.298 144.51 170.154 144.31 166.201L144.3 165.816H133.389L133.379 166.201C133.179 170.154 129.911 173.298 125.908 173.298C121.776 173.298 118.427 169.948 118.427 165.816C118.427 165.678 118.432 165.54 118.439 165.403C114.703 164.874 111.103 163.846 107.723 162.376C106.513 164.878 103.951 166.603 100.985 166.603C96.8537 166.603 93.5047 163.255 93.5045 159.123C93.5045 157.209 94.2241 155.463 95.4068 154.14C93.2656 152.071 91.3419 149.766 89.6764 147.259C88.5968 147.863 87.353 148.21 86.0279 148.21C81.896 148.21 78.5474 144.86 78.5474 140.728C78.5476 137.386 80.7392 134.556 83.7642 133.597L81.4488 125.182C80.5562 125.558 79.5751 125.766 78.5455 125.766C74.4141 125.766 71.065 122.416 71.065 118.284C71.0652 114.503 73.871 111.378 77.5142 110.876L75.2818 102.76C73.8755 97.5285 69.1497 93.9286 63.7496 93.9286H45.7496C37.5517 93.9284 30.4837 89.0816 27.233 82.1044C26.8979 82.1391 26.5551 82.1463 26.2076 82.12C22.9565 81.8735 17.5533 78.7101 17.357 75.1688C17.1609 71.6276 22.2964 67.6309 25.7701 67.2899C25.911 67.2761 26.0505 67.2674 26.1881 67.2626L26.6998 66.2596C29.3385 59.5451 35.5114 54.533 42.8355 53.3553V51.5155C42.8355 46.1346 39.8253 41.1656 35.1021 38.7147L35.0855 38.7059L26.0855 33.9813C24.2753 33.0308 23.5785 30.7926 24.5289 28.9823C25.4794 27.1719 27.7175 26.4742 29.5279 27.4247L38.5201 32.1464C45.7167 35.8844 50.2407 43.3998 50.2408 51.5155V53.0907H56.0523V51.5155C56.0524 43.3998 60.5755 35.8844 67.7721 32.1464L76.7652 27.4247Z"/>
</mask>
<path d="M76.7652 27.4247C78.5753 26.4746 80.8127 27.172 81.7633 28.9823C82.7139 30.7927 82.0168 33.0308 80.2066 33.9813L71.191 38.7147C66.4672 41.1656 63.4567 46.1345 63.4566 51.5155V53.0907H72.3004C90.9752 53.0908 107.4 65.5786 112.35 83.6346L121.294 116.147C122.7 121.378 127.425 124.978 132.825 124.978H157.8C168.938 124.978 177.994 133.922 178.219 145.003C178.432 155.851 169.846 164.789 159.259 165.732C159.26 165.76 159.262 165.788 159.262 165.816C159.262 169.948 155.913 173.298 151.781 173.298C147.779 173.298 144.51 170.154 144.31 166.201L144.3 165.816H133.389L133.379 166.201C133.179 170.154 129.911 173.298 125.908 173.298C121.776 173.298 118.427 169.948 118.427 165.816C118.427 165.678 118.432 165.54 118.439 165.403C114.703 164.874 111.103 163.846 107.723 162.376C106.513 164.878 103.951 166.603 100.985 166.603C96.8537 166.603 93.5047 163.255 93.5045 159.123C93.5045 157.209 94.2241 155.463 95.4068 154.14C93.2656 152.071 91.3419 149.766 89.6764 147.259C88.5968 147.863 87.353 148.21 86.0279 148.21C81.896 148.21 78.5474 144.86 78.5474 140.728C78.5476 137.386 80.7392 134.556 83.7642 133.597L81.4488 125.182C80.5562 125.558 79.5751 125.766 78.5455 125.766C74.4141 125.766 71.065 122.416 71.065 118.284C71.0652 114.503 73.871 111.378 77.5142 110.876L75.2818 102.76C73.8755 97.5285 69.1497 93.9286 63.7496 93.9286H45.7496C37.5517 93.9284 30.4837 89.0816 27.233 82.1044C26.8979 82.1391 26.5551 82.1463 26.2076 82.12C22.9565 81.8735 17.5533 78.7101 17.357 75.1688C17.1609 71.6276 22.2964 67.6309 25.7701 67.2899C25.911 67.2761 26.0505 67.2674 26.1881 67.2626L26.6998 66.2596C29.3385 59.5451 35.5114 54.533 42.8355 53.3553V51.5155C42.8355 46.1346 39.8253 41.1656 35.1021 38.7147L35.0855 38.7059L26.0855 33.9813C24.2753 33.0308 23.5785 30.7926 24.5289 28.9823C25.4794 27.1719 27.7175 26.4742 29.5279 27.4247L38.5201 32.1464C45.7167 35.8844 50.2407 43.3998 50.2408 51.5155V53.0907H56.0523V51.5155C56.0524 43.3998 60.5755 35.8844 67.7721 32.1464L76.7652 27.4247Z" fill="black"/>
<path d="M76.7652 27.4247L73.9766 22.1121L73.9761 22.1124L76.7652 27.4247ZM81.7633 28.9823L76.4511 31.7716L76.4511 31.7717L81.7633 28.9823ZM80.2066 33.9813L82.9957 39.2937L82.9961 39.2935L80.2066 33.9813ZM71.191 38.7147L73.9542 44.0406C73.9628 44.0361 73.9715 44.0316 73.9801 44.0271L71.191 38.7147ZM63.4566 51.5155L57.4566 51.5154V51.5155H63.4566ZM63.4566 53.0907H57.4566C57.4566 56.4044 60.1429 59.0907 63.4566 59.0907V53.0907ZM72.3004 53.0907L72.3004 47.0907H72.3004V53.0907ZM112.35 83.6346L106.564 85.221L106.565 85.226L112.35 83.6346ZM121.294 116.147L127.088 114.59C127.085 114.578 127.082 114.567 127.079 114.556L121.294 116.147ZM132.825 124.978L132.825 130.978H132.825V124.978ZM157.8 124.978L157.8 118.978H157.8V124.978ZM178.219 145.003L184.218 144.885L184.218 144.881L178.219 145.003ZM159.259 165.732L158.727 159.756C155.606 160.034 153.225 162.666 153.26 165.798L159.259 165.732ZM159.262 165.816L165.262 165.816V165.816H159.262ZM151.781 173.298L151.781 179.298H151.781V173.298ZM144.31 166.201L138.312 166.353C138.313 166.404 138.315 166.454 138.318 166.505L144.31 166.201ZM144.3 165.816L150.298 165.664C150.216 162.411 147.555 159.816 144.3 159.816V165.816ZM133.389 165.816V159.816C130.135 159.816 127.474 162.411 127.391 165.664L133.389 165.816ZM133.379 166.201L139.372 166.505C139.374 166.454 139.376 166.404 139.378 166.353L133.379 166.201ZM125.908 173.298L125.907 179.298H125.908V173.298ZM118.427 165.816L112.427 165.816L112.427 165.816L118.427 165.816ZM118.439 165.403L124.43 165.729C124.599 162.621 122.363 159.899 119.28 159.462L118.439 165.403ZM107.723 162.376L110.117 156.874C107.164 155.589 103.724 156.865 102.322 159.763L107.723 162.376ZM100.985 166.603L100.985 172.603H100.985V166.603ZM93.5045 159.123L87.5045 159.123L87.5045 159.123L93.5045 159.123ZM95.4068 154.14L99.8802 158.138C102.028 155.735 101.894 152.064 99.5758 149.824L95.4068 154.14ZM89.6764 147.259L94.674 143.939C92.9382 141.326 89.4824 140.491 86.7452 142.023L89.6764 147.259ZM86.0279 148.21L86.0276 154.21H86.0279V148.21ZM78.5474 140.728L72.5474 140.728V140.728H78.5474ZM83.7642 133.597L85.5781 139.316C88.6509 138.341 90.4045 135.113 89.5493 132.005L83.7642 133.597ZM81.4488 125.182L87.2338 123.59C86.7756 121.924 85.6219 120.537 84.0679 119.783C82.5139 119.029 80.7104 118.982 79.1187 119.652L81.4488 125.182ZM78.5455 125.766L78.5452 131.766H78.5455V125.766ZM71.065 118.284L65.065 118.284V118.284H71.065ZM77.5142 110.876L78.3342 116.82C80.0463 116.583 81.5733 115.62 82.5243 114.177C83.4753 112.734 83.7577 110.951 83.2994 109.285L77.5142 110.876ZM75.2818 102.76L69.4876 104.317C69.4906 104.329 69.4936 104.34 69.4967 104.351L75.2818 102.76ZM45.7496 93.9286L45.7495 99.9286H45.7496V93.9286ZM27.233 82.1044L32.6717 79.5704C31.5913 77.2515 29.1593 75.8726 26.6146 76.1363L27.233 82.1044ZM26.2076 82.12L25.7541 88.1028L25.7541 88.1028L26.2076 82.12ZM17.357 75.1688L11.3662 75.5007L11.3662 75.5009L17.357 75.1688ZM25.7701 67.2899L26.3563 73.2612L26.3567 73.2612L25.7701 67.2899ZM26.1881 67.2626L26.3998 73.2588C28.5775 73.1819 30.5423 71.9305 31.5326 69.9895L26.1881 67.2626ZM26.6998 66.2596L32.0443 68.9865C32.1328 68.8131 32.2128 68.6354 32.2841 68.4542L26.6998 66.2596ZM42.8355 53.3553L43.788 59.2793C46.6967 58.8116 48.8355 56.3014 48.8355 53.3553H42.8355ZM42.8355 51.5155L48.8355 51.5155L48.8355 51.5154L42.8355 51.5155ZM35.1021 38.7147L32.2948 44.0174C32.3094 44.0251 32.324 44.0328 32.3386 44.0404L35.1021 38.7147ZM35.0855 38.7059L37.8929 33.4032C37.8867 33.3999 37.8805 33.3967 37.8744 33.3934L35.0855 38.7059ZM26.0855 33.9813L23.2962 39.2935L23.2967 39.2938L26.0855 33.9813ZM24.5289 28.9823L19.2165 26.1932L19.2164 26.1935L24.5289 28.9823ZM29.5279 27.4247L32.3173 22.1125L32.3169 22.1123L29.5279 27.4247ZM38.5201 32.1464L35.7307 37.4586C35.7386 37.4627 35.7465 37.4668 35.7544 37.4709L38.5201 32.1464ZM50.2408 51.5155L56.2408 51.5155L56.2408 51.5154L50.2408 51.5155ZM50.2408 53.0907H44.2408C44.2408 56.4044 46.9271 59.0907 50.2408 59.0907V53.0907ZM56.0523 53.0907V59.0907C59.366 59.0907 62.0523 56.4044 62.0523 53.0907H56.0523ZM56.0523 51.5155L50.0523 51.5154V51.5155H56.0523ZM67.7721 32.1464L70.5378 37.4709C70.5456 37.4668 70.5534 37.4628 70.5612 37.4587L67.7721 32.1464ZM76.7652 27.4247L79.5539 32.7373C78.4284 33.328 77.04 32.8932 76.4511 31.7716L81.7633 28.9823L87.0755 26.193C84.5855 21.4508 78.7221 19.6211 73.9766 22.1121L76.7652 27.4247ZM81.7633 28.9823L76.4511 31.7717C75.8611 30.648 76.2938 29.2591 77.4172 28.6692L80.2066 33.9813L82.9961 39.2935C87.7397 36.8025 89.5667 30.9374 87.0755 26.1929L81.7633 28.9823ZM80.2066 33.9813L77.4175 28.669L68.4019 33.4024L71.191 38.7147L73.9801 44.0271L82.9957 39.2937L80.2066 33.9813ZM71.191 38.7147L68.4278 33.3889C61.6966 36.8812 57.4567 43.9152 57.4566 51.5154L63.4566 51.5155L69.4566 51.5156C69.4567 48.3537 71.2377 45.45 73.9542 44.0406L71.191 38.7147ZM63.4566 51.5155H57.4566V53.0907H63.4566H69.4566V51.5155H63.4566ZM63.4566 53.0907V59.0907H72.3004V53.0907V47.0907H63.4566V53.0907ZM72.3004 53.0907L72.3004 59.0907C88.2774 59.0908 102.33 69.7764 106.564 85.221L112.35 83.6346L118.137 82.0483C112.471 61.3809 93.673 47.0908 72.3004 47.0907L72.3004 53.0907ZM112.35 83.6346L106.565 85.226L115.508 117.739L121.294 116.147L127.079 114.556L118.135 82.0433L112.35 83.6346ZM121.294 116.147L115.499 117.705C117.613 125.569 124.724 130.978 132.825 130.978L132.825 124.978L132.825 118.978C130.126 118.978 127.786 117.188 127.088 114.59L121.294 116.147ZM132.825 124.978V130.978H157.8V124.978V118.978H132.825V124.978ZM157.8 124.978L157.8 130.978C165.655 130.978 172.061 137.293 172.221 145.125L178.219 145.003L184.218 144.881C183.927 130.551 172.22 118.979 157.8 118.978L157.8 124.978ZM178.219 145.003L172.22 145.12C172.368 152.631 166.363 159.075 158.727 159.756L159.259 165.732L159.792 171.709C173.33 170.502 184.496 159.072 184.218 144.885L178.219 145.003ZM159.259 165.732L153.26 165.798C153.26 165.843 153.261 165.883 153.262 165.916C153.263 165.95 153.264 165.979 153.265 166.001C153.266 166.023 153.267 166.041 153.267 166.053C153.268 166.058 153.268 166.063 153.268 166.066C153.268 166.068 153.268 166.069 153.268 166.07C153.268 166.071 153.268 166.071 153.268 166.071C153.268 166.072 153.268 166.07 153.268 166.068C153.268 166.066 153.268 166.062 153.268 166.057C153.267 166.047 153.266 166.031 153.266 166.01C153.265 165.989 153.264 165.962 153.263 165.93C153.263 165.898 153.262 165.859 153.262 165.816H159.262H165.262C165.262 165.717 165.26 165.635 165.258 165.581C165.256 165.529 165.254 165.485 165.254 165.477C165.253 165.468 165.253 165.473 165.253 165.475C165.254 165.479 165.254 165.49 165.255 165.506C165.256 165.535 165.258 165.593 165.259 165.666L159.259 165.732ZM159.262 165.816L153.262 165.816C153.262 166.634 152.599 167.298 151.781 167.298V173.298V179.298C159.227 179.298 165.262 173.261 165.262 165.816L159.262 165.816ZM151.781 173.298L151.781 167.298C150.992 167.298 150.342 166.676 150.302 165.897L144.31 166.201L138.318 166.505C138.679 173.632 144.566 179.297 151.781 179.298L151.781 173.298ZM144.31 166.201L150.308 166.049L150.298 165.664L144.3 165.816L138.302 165.969L138.312 166.353L144.31 166.201ZM144.3 165.816V159.816H133.389V165.816V171.816H144.3V165.816ZM133.389 165.816L127.391 165.664L127.381 166.049L133.379 166.201L139.378 166.353L139.387 165.969L133.389 165.816ZM133.379 166.201L127.387 165.897C127.348 166.675 126.698 167.298 125.908 167.298V173.298V179.298C133.123 179.298 139.011 173.632 139.372 166.505L133.379 166.201ZM125.908 173.298L125.908 167.298C125.091 167.298 124.427 166.635 124.427 165.816L118.427 165.816L112.427 165.816C112.427 173.261 118.462 179.297 125.907 179.298L125.908 173.298ZM118.427 165.816H124.427C124.427 165.801 124.428 165.773 124.43 165.729L118.439 165.403L112.448 165.077C112.435 165.307 112.427 165.555 112.427 165.816H118.427ZM118.439 165.403L119.28 159.462C116.083 159.01 113.005 158.131 110.117 156.874L107.723 162.376L105.33 167.878C109.201 169.562 113.323 170.738 117.598 171.344L118.439 165.403ZM107.723 162.376L102.322 159.763C102.075 160.273 101.563 160.603 100.985 160.603V166.603V172.603C106.338 172.603 110.951 169.483 113.125 164.988L107.723 162.376ZM100.985 166.603L100.985 160.603C100.167 160.603 99.5045 159.941 99.5045 159.123L93.5045 159.123L87.5045 159.123C87.5049 166.569 93.5402 172.603 100.985 172.603L100.985 166.603ZM93.5045 159.123H99.5045C99.5045 158.742 99.6413 158.405 99.8802 158.138L95.4068 154.14L90.9334 150.141C88.8069 152.52 87.5045 155.676 87.5045 159.123H93.5045ZM95.4068 154.14L99.5758 149.824C97.7448 148.055 96.0992 146.084 94.674 143.939L89.6764 147.259L84.6787 150.579C86.5846 153.448 88.7864 156.086 91.2379 158.455L95.4068 154.14ZM89.6764 147.259L86.7452 142.023C86.5312 142.143 86.2928 142.21 86.0279 142.21V148.21V154.21C88.4132 154.21 90.6624 153.583 92.6076 152.494L89.6764 147.259ZM86.0279 148.21L86.0282 142.21C85.2108 142.21 84.5474 141.547 84.5474 140.728H78.5474H72.5474C72.5474 148.173 78.5812 154.209 86.0276 154.21L86.0279 148.21ZM78.5474 140.728L84.5474 140.729C84.5475 140.076 84.9736 139.508 85.5781 139.316L83.7642 133.597L81.9504 127.877C76.5047 129.604 72.5477 134.696 72.5474 140.728L78.5474 140.728ZM83.7642 133.597L89.5493 132.005L87.2338 123.59L81.4488 125.182L75.6638 126.773L77.9792 135.188L83.7642 133.597ZM81.4488 125.182L79.1187 119.652C78.9474 119.725 78.7574 119.766 78.5455 119.766V125.766V131.766C80.3928 131.766 82.1649 131.391 83.7789 130.711L81.4488 125.182ZM78.5455 125.766L78.5458 119.766C77.7293 119.766 77.065 119.104 77.065 118.284H71.065H65.065C65.065 125.728 71.0989 131.766 78.5452 131.766L78.5455 125.766ZM71.065 118.284L77.065 118.284C77.0651 117.543 77.6169 116.919 78.3342 116.82L77.5142 110.876L76.6943 104.932C70.1251 105.838 65.0653 111.463 65.065 118.284L71.065 118.284ZM77.5142 110.876L83.2994 109.285L81.067 101.168L75.2818 102.76L69.4967 104.351L71.7291 112.467L77.5142 110.876ZM75.2818 102.76L81.0761 101.202C78.9618 93.3374 71.8503 87.9286 63.7496 87.9286V93.9286V99.9286C66.449 99.9286 68.7892 101.72 69.4876 104.317L75.2818 102.76ZM63.7496 93.9286V87.9286H45.7496V93.9286V99.9286H63.7496V93.9286ZM45.7496 93.9286L45.7497 87.9286C39.9793 87.9285 34.9781 84.5209 32.6717 79.5704L27.233 82.1044L21.7943 84.6383C25.9893 93.6422 35.1241 99.9284 45.7495 99.9286L45.7496 93.9286ZM27.233 82.1044L26.6146 76.1363C26.612 76.1366 26.6286 76.1347 26.6611 76.1371L26.2076 82.12L25.7541 88.1028C26.4817 88.158 27.1838 88.1416 27.8514 88.0724L27.233 82.1044ZM26.2076 82.12L26.6611 76.1372C26.6623 76.1372 26.5701 76.1291 26.3832 76.0815C26.2019 76.0353 25.9728 75.9625 25.7083 75.8567C25.1678 75.6406 24.6011 75.336 24.109 74.9868C23.6016 74.6267 23.3192 74.3233 23.2056 74.1683C23.0869 74.0063 23.3147 74.2385 23.3478 74.8368L17.357 75.1688L11.3662 75.5009C11.6198 80.0761 14.938 83.1932 17.1645 84.7732C19.5909 86.4949 22.7781 87.8772 25.7541 88.1028L26.2076 82.12ZM17.357 75.1688L23.3478 74.837C23.3822 75.4579 23.1726 75.7057 23.2933 75.4972C23.4031 75.3075 23.6691 74.9561 24.1423 74.5414C24.6033 74.1372 25.1304 73.7883 25.6214 73.5455C26.1476 73.2855 26.4091 73.256 26.3563 73.2612L25.7701 67.2899L25.1839 61.3186C21.8114 61.6497 18.526 63.5069 16.2324 65.5172C14.108 67.3794 11.112 70.9114 11.3662 75.5007L17.357 75.1688ZM25.7701 67.2899L26.3567 73.2612C26.3565 73.2612 26.3698 73.2599 26.3998 73.2588L26.1881 67.2626L25.9764 61.2663C25.7312 61.275 25.4655 61.291 25.1836 61.3186L25.7701 67.2899ZM26.1881 67.2626L31.5326 69.9895L32.0443 68.9865L26.6998 66.2596L21.3553 63.5327L20.8435 64.5357L26.1881 67.2626ZM26.6998 66.2596L32.2841 68.4542C34.1426 63.7249 38.5472 60.1219 43.788 59.2793L42.8355 53.3553L41.883 47.4314C32.4756 48.944 24.5344 55.3653 21.1155 64.0651L26.6998 66.2596ZM42.8355 53.3553H48.8355V51.5155H42.8355H36.8355V53.3553H42.8355ZM42.8355 51.5155L48.8355 51.5154C48.8354 43.9158 44.5962 36.8816 37.8657 33.389L35.1021 38.7147L32.3386 44.0404C35.0544 45.4497 36.8355 48.3535 36.8355 51.5156L42.8355 51.5155ZM35.1021 38.7147L37.9095 33.412L37.8929 33.4032L35.0855 38.7059L32.2782 44.0087L32.2948 44.0174L35.1021 38.7147ZM35.0855 38.7059L37.8744 33.3934L28.8744 28.6688L26.0855 33.9813L23.2967 39.2938L32.2967 44.0184L35.0855 38.7059ZM26.0855 33.9813L28.8749 28.6691C29.9992 29.2594 30.4307 30.6486 29.8414 31.7711L24.5289 28.9823L19.2164 26.1935C16.7264 30.9367 18.5514 36.8021 23.2962 39.2935L26.0855 33.9813ZM24.5289 28.9823L29.8413 31.7713C29.2521 32.8935 27.8638 33.3276 26.7389 32.7371L29.5279 27.4247L32.3169 22.1123C27.5712 19.6208 21.7067 21.4502 19.2165 26.1932L24.5289 28.9823ZM29.5279 27.4247L26.7386 32.7369L35.7307 37.4586L38.5201 32.1464L41.3095 26.8342L32.3173 22.1125L29.5279 27.4247ZM38.5201 32.1464L35.7544 37.4709C40.9444 40.1667 44.2408 45.6172 44.2408 51.5155L50.2408 51.5155L56.2408 51.5154C56.2407 41.1823 50.4891 31.6021 41.2858 26.8218L38.5201 32.1464ZM50.2408 51.5155H44.2408V53.0907H50.2408H56.2408V51.5155H50.2408ZM50.2408 53.0907V59.0907H56.0523V53.0907V47.0907H50.2408V53.0907ZM56.0523 53.0907H62.0523V51.5155H56.0523H50.0523V53.0907H56.0523ZM56.0523 51.5155L62.0523 51.5155C62.0524 45.6168 65.3483 40.1665 70.5378 37.4709L67.7721 32.1464L65.0063 26.8218C55.8028 31.6024 50.0524 41.1828 50.0523 51.5154L56.0523 51.5155ZM67.7721 32.1464L70.5612 37.4587L79.5544 32.737L76.7652 27.4247L73.9761 22.1124L64.9829 26.834L67.7721 32.1464Z" fill="white" mask="url(#path-1-outside-1_1062_22187)"/>
<path d="M24.5286 28.9821C25.4791 27.1717 27.7173 26.4746 29.5277 27.4251L38.5201 32.1463C45.7168 35.8844 50.2403 43.3999 50.2403 51.5157V58.8845C50.2403 60.9292 48.5826 62.5868 46.5379 62.5868C44.4931 62.5868 42.8355 60.9292 42.8355 58.8845V51.5157C42.8355 46.1346 39.825 41.1655 35.1015 38.7146L35.0856 38.7064L26.0856 33.9812C24.2752 33.0307 23.5781 30.7925 24.5286 28.9821Z" fill="#508329"/>
<path d="M81.7635 28.9821C82.7141 30.7925 82.0166 33.0307 80.2065 33.9812L71.1908 38.7147C66.4669 41.1656 63.4565 46.1346 63.4565 51.5157V58.8845C63.4565 60.9292 61.7989 62.5868 59.7541 62.5868C57.7094 62.5868 56.0518 60.9292 56.0518 58.8845V51.5157C56.0518 43.3999 60.5753 35.8844 67.7719 32.1463L76.7646 27.4251C78.5747 26.4746 80.8129 27.1717 81.7635 28.9821Z" fill="#508329"/>
<path d="M78.5457 125.766C82.6778 125.766 86.027 122.417 86.027 118.284C86.027 114.153 82.6778 110.804 78.5457 110.804C74.4141 110.804 71.0645 114.153 71.0645 118.284C71.0645 122.417 74.4141 125.766 78.5457 125.766Z" fill="#508329"/>
<path d="M93.5094 140.729C93.5094 144.86 90.1597 148.21 86.0281 148.21C81.896 148.21 78.5469 144.86 78.5469 140.729C78.5469 136.597 81.896 133.248 86.0281 133.248C90.1597 133.248 93.5094 136.597 93.5094 140.729Z" fill="#508329"/>
<path d="M100.985 166.604C105.117 166.604 108.466 163.255 108.466 159.123C108.466 154.991 105.117 151.641 100.985 151.641C96.8536 151.641 93.5039 154.991 93.5039 159.123C93.5039 163.255 96.8536 166.604 100.985 166.604Z" fill="#508329"/>
<path d="M133.389 165.816C133.389 169.948 130.04 173.298 125.908 173.298C121.776 173.298 118.427 169.948 118.427 165.816C118.427 161.684 121.776 158.334 125.908 158.334C130.04 158.334 133.389 161.684 133.389 165.816Z" fill="#508329"/>
<path d="M159.262 165.816C159.262 169.948 155.913 173.298 151.781 173.298C147.649 173.298 144.3 169.948 144.3 165.816C144.3 161.684 147.649 158.334 151.781 158.334C155.913 158.334 159.262 161.684 159.262 165.816Z" fill="#508329"/>
<path d="M124.275 165.816H157.406C168.825 165.816 178.444 156.478 178.219 145.003C177.994 133.922 168.938 124.978 157.8 124.978H132.825C127.425 124.978 122.7 121.378 121.294 116.147L112.35 83.6349C107.4 65.5787 90.975 53.0911 72.3 53.0911H46.1436C37.4089 53.0911 29.7274 58.5549 26.6996 66.2599L22.8018 73.9037L26.6996 80.859C29.6576 88.4989 37.072 93.9287 45.7498 93.9287H63.7498C69.15 93.9287 73.875 97.5287 75.2813 102.76L84.225 135.272C89.175 153.329 105.6 165.816 124.275 165.816Z" fill="#9FE868"/>
<path d="M26.2075 82.1196C22.9564 81.8732 17.5533 78.7102 17.357 75.169C17.1608 71.6277 22.2964 67.6308 25.7702 67.2899C29.2372 66.9494 31.7361 69.3245 32.0225 74.6109C32.3117 79.9555 29.4586 82.366 26.2075 82.1196Z" fill="#EAC00F"/>
<path d="M43.8041 77.608C48.1142 77.608 51.6083 74.114 51.6083 69.8039C51.6083 65.4938 48.1142 61.9998 43.8041 61.9998C39.494 61.9998 36 65.4938 36 69.8039C36 74.114 39.494 77.608 43.8041 77.608Z" fill="white"/>
<path d="M43.8045 73.9356C46.0863 73.9356 47.9361 72.0858 47.9361 69.804C47.9361 67.5221 46.0863 65.6724 43.8045 65.6724C41.5226 65.6724 39.6729 67.5221 39.6729 69.804C39.6729 72.0858 41.5226 73.9356 43.8045 73.9356Z" fill="black"/>
</svg>
