<svg width="200" height="200" viewBox="0 0 200 200" fill="none" xmlns="http://www.w3.org/2000/svg">
<mask id="path-1-outside-1_1347_13623" maskUnits="userSpaceOnUse" x="30" y="11.4424" width="140" height="181" fill="black">
<rect fill="white" x="30" y="11.4424" width="140" height="181"/>
<path d="M93.8184 17.4424C93.8274 17.4502 94.0657 17.6559 94.46 18.0586C97.804 18.0332 102.014 18.1224 103.339 18.6797C105.628 19.6566 106.947 22.5309 106.967 22.5742H106.909C108.117 24.3266 110.062 27.7359 111.382 32.9951C113.415 41.099 111.925 47.805 111.916 47.8447C111.916 47.8448 111.912 47.845 111.906 47.8457C111.905 47.8503 111.907 47.8553 111.905 47.8594C111.652 48.6468 111.034 50.2501 110.232 51.6562C109.431 53.0625 107.25 55.6082 107.096 56.2129C106.942 56.8172 107.249 61.9242 107.251 61.9639C107.251 61.9639 107.25 61.9638 107.248 61.9639C107.248 61.9639 108.021 66.6896 108.767 70.3037C110.104 76.7765 113.831 82.1817 115.753 88.2959L129.748 88.4854C131.138 88.4978 132.834 88.6914 134.713 88.7666C139.733 88.9635 154.78 90.3 158.113 91.4531C161.109 92.4937 162.332 93.9 162.895 95.1094C163.654 96.7406 163.935 99.6653 162.515 101.451C160.61 103.832 158.343 103.27 158.324 103.266C158.324 103.266 158.327 103.255 158.335 103.234C156.569 103.065 141.462 101.662 136.81 101.452C132.113 101.241 129.455 101.452 128.71 102.942C128.202 103.959 128.487 105.621 128.719 106.577C132.004 106.63 135.353 106.772 137.693 107.091C144.795 108.047 155.159 110.241 156.594 112.814C158.027 115.387 159.602 125.122 159.604 125.133C159.604 125.133 159.596 125.136 159.582 125.145C159.69 125.85 159.79 126.625 159.832 127.299C159.93 129.085 159.986 130.954 159.648 131.545C159.645 131.551 159.639 131.556 159.634 131.562C159.683 131.885 160.411 136.784 159.364 139.055C158.67 140.566 153.338 143.681 140.322 148.064C140.212 149.483 140.249 151.155 140.861 152.049C141.481 152.948 144.335 153.047 150.648 154.734C158.158 156.745 160.829 158.897 161.237 162.778C161.603 166.266 157.75 165.858 155.205 165.464C152.66 165.07 128.135 161.175 122.229 159.839C118.389 158.967 116.87 158.756 116.87 156.886C116.87 155.958 117.259 155.229 117.653 154.727C108.648 157.008 102.345 158.094 98.8955 158.363C94.9182 158.673 88.3891 157.583 81.8906 156.16L82.0049 171.216C82.055 171.227 94.9349 174.171 98.0928 175.771C101.988 177.74 103.07 180.609 102.789 182.479C102.269 185.812 98.3596 186.375 96.3486 185.967C94.3378 185.559 53.5882 177.657 51.166 176.981C48.7473 176.306 46.8764 175.504 47.1436 172.425C47.4249 169.092 51.4327 167.334 54.2451 167.334C57.0717 167.334 66.4521 169.078 66.4521 169.078C66.4521 169.078 66.3115 158.489 66.3115 156.745C66.3115 155.546 66.3604 153.608 66.3066 152.121C61.1022 150.51 56.2841 148.671 53.4463 146.832C48.89 143.879 47.9473 138.914 47.9473 138.914V138.913C45.9641 137.433 42.0554 123.95 40.2979 115.401C38.6251 107.291 37.585 100.121 38.4971 99.6797L38.4023 99.0127C37.9789 95.9369 36.2699 82.469 36.0361 63.876C35.8393 48.6745 36.5002 32.9809 36.9502 30.998C37.6674 27.8762 38.4688 24.2478 42.2656 21.6885C45.3809 19.5886 53.6743 18.7973 56.5518 18.5801C56.3691 18.3502 56.2874 18.2065 56.3418 18.1318C56.7215 17.6115 93.8184 17.4424 93.8184 17.4424Z"/>
</mask>
<path d="M93.8184 17.4424C93.8274 17.4502 94.0657 17.6559 94.46 18.0586C97.804 18.0332 102.014 18.1224 103.339 18.6797C105.628 19.6566 106.947 22.5309 106.967 22.5742H106.909C108.117 24.3266 110.062 27.7359 111.382 32.9951C113.415 41.099 111.925 47.805 111.916 47.8447C111.916 47.8448 111.912 47.845 111.906 47.8457C111.905 47.8503 111.907 47.8553 111.905 47.8594C111.652 48.6468 111.034 50.2501 110.232 51.6562C109.431 53.0625 107.25 55.6082 107.096 56.2129C106.942 56.8172 107.249 61.9242 107.251 61.9639C107.251 61.9639 107.25 61.9638 107.248 61.9639C107.248 61.9639 108.021 66.6896 108.767 70.3037C110.104 76.7765 113.831 82.1817 115.753 88.2959L129.748 88.4854C131.138 88.4978 132.834 88.6914 134.713 88.7666C139.733 88.9635 154.78 90.3 158.113 91.4531C161.109 92.4937 162.332 93.9 162.895 95.1094C163.654 96.7406 163.935 99.6653 162.515 101.451C160.61 103.832 158.343 103.27 158.324 103.266C158.324 103.266 158.327 103.255 158.335 103.234C156.569 103.065 141.462 101.662 136.81 101.452C132.113 101.241 129.455 101.452 128.71 102.942C128.202 103.959 128.487 105.621 128.719 106.577C132.004 106.63 135.353 106.772 137.693 107.091C144.795 108.047 155.159 110.241 156.594 112.814C158.027 115.387 159.602 125.122 159.604 125.133C159.604 125.133 159.596 125.136 159.582 125.145C159.69 125.85 159.79 126.625 159.832 127.299C159.93 129.085 159.986 130.954 159.648 131.545C159.645 131.551 159.639 131.556 159.634 131.562C159.683 131.885 160.411 136.784 159.364 139.055C158.67 140.566 153.338 143.681 140.322 148.064C140.212 149.483 140.249 151.155 140.861 152.049C141.481 152.948 144.335 153.047 150.648 154.734C158.158 156.745 160.829 158.897 161.237 162.778C161.603 166.266 157.75 165.858 155.205 165.464C152.66 165.07 128.135 161.175 122.229 159.839C118.389 158.967 116.87 158.756 116.87 156.886C116.87 155.958 117.259 155.229 117.653 154.727C108.648 157.008 102.345 158.094 98.8955 158.363C94.9182 158.673 88.3891 157.583 81.8906 156.16L82.0049 171.216C82.055 171.227 94.9349 174.171 98.0928 175.771C101.988 177.74 103.07 180.609 102.789 182.479C102.269 185.812 98.3596 186.375 96.3486 185.967C94.3378 185.559 53.5882 177.657 51.166 176.981C48.7473 176.306 46.8764 175.504 47.1436 172.425C47.4249 169.092 51.4327 167.334 54.2451 167.334C57.0717 167.334 66.4521 169.078 66.4521 169.078C66.4521 169.078 66.3115 158.489 66.3115 156.745C66.3115 155.546 66.3604 153.608 66.3066 152.121C61.1022 150.51 56.2841 148.671 53.4463 146.832C48.89 143.879 47.9473 138.914 47.9473 138.914V138.913C45.9641 137.433 42.0554 123.95 40.2979 115.401C38.6251 107.291 37.585 100.121 38.4971 99.6797L38.4023 99.0127C37.9789 95.9369 36.2699 82.469 36.0361 63.876C35.8393 48.6745 36.5002 32.9809 36.9502 30.998C37.6674 27.8762 38.4688 24.2478 42.2656 21.6885C45.3809 19.5886 53.6743 18.7973 56.5518 18.5801C56.3691 18.3502 56.2874 18.2065 56.3418 18.1318C56.7215 17.6115 93.8184 17.4424 93.8184 17.4424Z" fill="#EAC00F"/>
<path d="M93.8184 17.4424L97.7278 12.8909C96.6325 11.9501 95.2348 11.4359 93.791 11.4424L93.8184 17.4424ZM94.46 18.0586L90.1727 22.2562C91.3125 23.4202 92.8765 24.0708 94.5056 24.0584L94.46 18.0586ZM103.339 18.6797L105.694 13.1613C105.685 13.1573 105.675 13.1532 105.666 13.1492L103.339 18.6797ZM106.967 22.5742V28.5742C109.009 28.5742 110.91 27.5359 112.014 25.8184C113.118 24.1008 113.273 21.9398 112.425 20.0824L106.967 22.5742ZM106.909 22.5742V16.5742C104.68 16.5742 102.634 17.8102 101.598 19.7838C100.561 21.7573 100.704 24.143 101.969 25.9787L106.909 22.5742ZM111.382 32.9951L117.202 31.5352L117.202 31.5352L111.382 32.9951ZM111.916 47.8447L112.635 53.8015C115.16 53.4969 117.219 51.6332 117.772 49.1506L111.916 47.8447ZM111.906 47.8457L111.188 41.8888C108.726 42.1856 106.701 43.966 106.091 46.3693L111.906 47.8457ZM111.905 47.8594L106.213 45.962C106.206 45.9824 106.2 46.0028 106.193 46.0233L111.905 47.8594ZM110.232 51.6562L115.445 54.6275L115.445 54.6274L110.232 51.6562ZM107.096 56.2129L101.283 54.7259L101.281 54.7327L107.096 56.2129ZM107.251 61.9639L106.645 67.9332C108.395 68.111 110.136 67.5114 111.405 66.2931C112.675 65.0748 113.346 63.3607 113.24 61.6043L107.251 61.9639ZM107.248 61.9639L106.882 55.975C105.189 56.0785 103.618 56.8942 102.559 58.2201C101.501 59.546 101.053 61.2582 101.327 62.9327L107.248 61.9639ZM108.767 70.3037L102.89 71.5156L102.891 71.5178L108.767 70.3037ZM115.753 88.2959L110.029 90.0955C110.806 92.5667 113.081 94.2603 115.672 94.2953L115.753 88.2959ZM129.748 88.4854L129.667 94.4848C129.676 94.4849 129.685 94.485 129.694 94.4851L129.748 88.4854ZM134.713 88.7666L134.473 94.7618L134.478 94.762L134.713 88.7666ZM158.113 91.4531L160.082 85.7854L160.075 85.7829L158.113 91.4531ZM162.895 95.1094L157.454 97.6398L157.455 97.6413L162.895 95.1094ZM162.515 101.451L167.2 105.199C167.203 105.195 167.207 105.19 167.211 105.186L162.515 101.451ZM158.324 103.266L152.572 101.561C152.107 103.129 152.302 104.819 153.113 106.24C153.924 107.66 155.28 108.688 156.866 109.086L158.324 103.266ZM158.335 103.234L163.963 105.314C164.608 103.568 164.406 101.621 163.417 100.045C162.427 98.4679 160.762 97.44 158.909 97.2619L158.335 103.234ZM136.81 101.452L137.08 95.4582L137.079 95.4582L136.81 101.452ZM128.71 102.942L123.344 100.258L123.343 100.259L128.71 102.942ZM128.719 106.577L122.887 107.989C123.531 110.646 125.889 112.533 128.623 112.576L128.719 106.577ZM137.693 107.091L136.884 113.036L136.893 113.037L137.693 107.091ZM156.594 112.814L161.835 109.894L161.835 109.893L156.594 112.814ZM159.604 125.133L162.088 130.594C164.55 129.475 165.958 126.846 165.527 124.175L159.604 125.133ZM159.582 125.145L156.509 119.991C154.412 121.241 153.282 123.637 153.651 126.051L159.582 125.145ZM159.832 127.299L165.823 126.969C165.822 126.954 165.821 126.939 165.82 126.925L159.832 127.299ZM159.648 131.545L164.858 134.522L164.858 134.521L159.648 131.545ZM159.634 131.562L154.766 128.055C153.847 129.331 153.465 130.917 153.703 132.471L159.634 131.562ZM159.364 139.055L153.915 136.543L153.913 136.549L159.364 139.055ZM140.322 148.064L138.407 142.378C136.127 143.146 134.526 145.202 134.34 147.601L140.322 148.064ZM140.861 152.049L135.912 155.441L135.919 155.451L140.861 152.049ZM150.648 154.734L152.2 148.939L152.198 148.938L150.648 154.734ZM161.237 162.778L167.205 162.153L167.204 162.151L161.237 162.778ZM155.205 165.464L154.288 171.393H154.288L155.205 165.464ZM122.229 159.839L120.9 165.69L120.905 165.691L122.229 159.839ZM116.87 156.886L110.87 156.885V156.886H116.87ZM117.653 154.727L122.372 158.433C123.958 156.414 124.083 153.609 122.683 151.456C121.284 149.303 118.669 148.28 116.18 148.91L117.653 154.727ZM98.8955 158.363L99.3616 164.345L99.3618 164.345L98.8955 158.363ZM81.8906 156.16L83.1742 150.299C81.3918 149.909 79.5286 150.351 78.1114 151.5C76.6942 152.649 75.8769 154.381 75.8908 156.206L81.8906 156.16ZM82.0049 171.216L76.0051 171.261C76.0262 174.043 77.9563 176.445 80.6679 177.065L82.0049 171.216ZM98.0928 175.771L95.381 181.124L95.3862 181.126L98.0928 175.771ZM102.789 182.479L108.717 183.405C108.719 183.394 108.721 183.383 108.722 183.372L102.789 182.479ZM96.3486 185.967L95.1561 191.847L95.1562 191.847L96.3486 185.967ZM51.166 176.981L49.5532 182.761L49.5539 182.761L51.166 176.981ZM47.1436 172.425L53.1211 172.943L53.1223 172.929L47.1436 172.425ZM54.2451 167.334V161.334H54.2449L54.2451 167.334ZM66.4521 169.078L65.3553 174.977C67.1223 175.306 68.9435 174.825 70.318 173.667C71.6925 172.509 72.4755 170.796 72.4516 168.998L66.4521 169.078ZM66.3115 156.745L60.3115 156.745V156.745H66.3115ZM66.3066 152.121L72.3027 151.904C72.2106 149.356 70.5175 147.144 68.0814 146.39L66.3066 152.121ZM53.4463 146.832L50.1829 151.867L50.1831 151.867L53.4463 146.832ZM47.9473 138.914H41.9473C41.9473 139.29 41.9825 139.664 42.0526 140.033L47.9473 138.914ZM47.9473 138.913H53.9473C53.9473 137.02 53.0536 135.238 51.5364 134.105L47.9473 138.913ZM40.2979 115.401L46.1749 114.193L46.1742 114.189L40.2979 115.401ZM38.4971 99.6797L41.1102 105.081C43.4593 103.944 44.8044 101.42 44.4375 98.836L38.4971 99.6797ZM38.4023 99.0127L32.4584 99.8311C32.4596 99.8395 32.4608 99.8479 32.462 99.8564L38.4023 99.0127ZM36.0361 63.876L42.0357 63.8005L42.0356 63.7983L36.0361 63.876ZM36.9502 30.998L31.1025 29.6547C31.1013 29.6598 31.1002 29.665 31.099 29.6701L36.9502 30.998ZM42.2656 21.6885L38.9121 16.7132L38.912 16.7132L42.2656 21.6885ZM56.5518 18.5801L57.0035 24.5631C59.2188 24.3958 61.1605 23.0181 62.0499 20.9822C62.9394 18.9464 62.6311 16.5857 61.2486 14.8465L56.5518 18.5801ZM56.3418 18.1318L51.4951 14.595L51.4934 14.5973L56.3418 18.1318ZM93.8184 17.4424L89.9089 21.9939C89.7959 21.8968 89.9071 21.9849 90.1727 22.2562L94.46 18.0586L98.7472 13.861C98.2242 13.3269 97.859 13.0036 97.7278 12.8909L93.8184 17.4424ZM94.46 18.0586L94.5056 24.0584C96.127 24.0461 97.8749 24.0628 99.3315 24.1418C100.064 24.1815 100.642 24.2329 101.052 24.2889C101.598 24.3634 101.449 24.3942 101.012 24.2102L103.339 18.6797L105.666 13.1492C104.566 12.6865 103.394 12.4972 102.673 12.399C101.818 12.2823 100.886 12.2085 99.9818 12.1594C98.1661 12.0609 96.137 12.0457 94.4144 12.0588L94.46 18.0586ZM103.339 18.6797L100.983 24.198C100.783 24.1125 100.736 24.0455 100.821 24.1231C100.901 24.1965 101.021 24.3277 101.16 24.5175C101.294 24.7011 101.402 24.88 101.474 25.0078C101.543 25.1324 101.557 25.1726 101.509 25.066L106.967 22.5742L112.425 20.0824C112.323 19.8597 111.795 18.7322 110.848 17.4366C109.973 16.239 108.291 14.2696 105.694 13.1613L103.339 18.6797ZM106.967 22.5742V16.5742H106.909V22.5742V28.5742H106.967V22.5742ZM106.909 22.5742L101.969 25.9787C102.816 27.209 104.436 29.9675 105.562 34.4551L111.382 32.9951L117.202 31.5352C115.689 25.5043 113.417 21.4443 111.85 19.1698L106.909 22.5742ZM111.382 32.9951L105.562 34.455C107.267 41.2498 105.981 46.8942 106.06 46.5388L111.916 47.8447L117.772 49.1506C117.869 48.7158 119.563 40.9482 117.202 31.5352L111.382 32.9951ZM111.916 47.8447L111.197 41.8879C111.224 41.8847 111.246 41.8822 111.264 41.8803C111.281 41.8783 111.297 41.8767 111.31 41.8755C111.322 41.8742 111.333 41.8731 111.343 41.8722C111.352 41.8713 111.361 41.8705 111.368 41.8698C111.382 41.8685 111.394 41.8675 111.402 41.8667C111.411 41.866 111.419 41.8654 111.424 41.8649C111.435 41.864 111.444 41.8633 111.448 41.863C111.453 41.8626 111.457 41.8623 111.458 41.8622C111.459 41.8622 111.46 41.8621 111.46 41.8621C111.461 41.862 111.461 41.862 111.461 41.862C111.461 41.862 111.461 41.862 111.46 41.8621C111.458 41.8622 111.454 41.8625 111.45 41.8628C111.441 41.8635 111.43 41.8644 111.417 41.8655C111.404 41.8666 111.391 41.8677 111.376 41.869C111.348 41.8716 111.317 41.8745 111.285 41.8779C111.254 41.8812 111.221 41.8848 111.188 41.8888L111.906 47.8457L112.624 53.8026C112.594 53.8062 112.565 53.8095 112.535 53.8126C112.506 53.8157 112.478 53.8184 112.45 53.8209C112.437 53.8221 112.424 53.8232 112.412 53.8242C112.4 53.8252 112.389 53.8261 112.38 53.8267C112.376 53.827 112.373 53.8273 112.371 53.8274C112.371 53.8275 112.37 53.8275 112.37 53.8275C112.37 53.8275 112.371 53.8275 112.371 53.8274C112.372 53.8274 112.372 53.8273 112.373 53.8273C112.375 53.8271 112.379 53.8269 112.384 53.8265C112.388 53.8261 112.397 53.8255 112.408 53.8246C112.413 53.8241 112.421 53.8235 112.429 53.8227C112.438 53.822 112.45 53.8209 112.464 53.8196C112.471 53.819 112.48 53.8182 112.489 53.8173C112.499 53.8164 112.51 53.8153 112.522 53.814C112.535 53.8127 112.551 53.8111 112.568 53.8092C112.586 53.8072 112.608 53.8047 112.635 53.8015L111.916 47.8447ZM111.906 47.8457L106.091 46.3693C105.951 46.9205 105.918 47.3782 105.909 47.642C105.905 47.7773 105.906 47.8858 105.907 47.9471C105.907 48 105.909 48.0525 105.909 48.0322C105.909 48.0321 105.906 47.9702 105.906 47.8933C105.905 47.8124 105.906 47.6784 105.916 47.5129C105.934 47.1935 105.991 46.6292 106.213 45.962L111.905 47.8594L117.597 49.7567C117.82 49.0876 117.878 48.5211 117.896 48.1995C117.906 48.0328 117.906 47.8977 117.906 47.8156C117.905 47.7377 117.903 47.6745 117.903 47.6733C117.903 47.6518 117.904 47.7031 117.905 47.7548C117.906 47.815 117.907 47.9223 117.902 48.0564C117.893 48.3179 117.861 48.7732 117.722 49.3221L111.906 47.8457ZM111.905 47.8594L106.193 46.0233C106.128 46.2268 105.975 46.6547 105.751 47.1824C105.528 47.7087 105.274 48.2393 105.02 48.6851L110.232 51.6562L115.445 54.6274C116.501 52.7743 117.272 50.7694 117.617 49.6954L111.905 47.8594ZM110.232 51.6562L105.02 48.685C104.852 48.9789 104.399 49.5962 103.618 50.6393C103.301 51.0635 102.917 51.5768 102.601 52.0342C102.444 52.2624 102.246 52.5582 102.06 52.8771C101.954 53.0578 101.525 53.7801 101.283 54.7259L107.096 56.2129L112.909 57.6999C112.786 58.1788 112.631 58.5179 112.573 58.6405C112.501 58.7931 112.442 58.894 112.424 58.9252C112.39 58.9837 112.394 58.9704 112.476 58.8529C112.637 58.619 112.878 58.2946 113.225 57.831C113.542 57.4076 113.938 56.8802 114.303 56.3717C114.65 55.8868 115.085 55.2588 115.445 54.6275L110.232 51.6562ZM107.096 56.2129L101.281 54.7327C101.075 55.5425 101.064 56.3374 101.061 56.4397C101.051 56.7657 101.051 57.1155 101.055 57.437C101.063 58.0902 101.09 58.8559 101.12 59.5552C101.18 60.9658 101.26 62.2942 101.262 62.3234L107.251 61.9639L113.24 61.6043C113.24 61.5939 113.165 60.3489 113.109 59.045C113.081 58.3871 113.06 57.7602 113.054 57.2847C113.051 57.0418 113.053 56.8932 113.055 56.8241C113.056 56.788 113.056 56.822 113.049 56.9017C113.048 56.9134 113.023 57.2483 112.91 57.6931L107.096 56.2129ZM107.251 61.9639C107.857 55.9946 107.856 55.9945 107.856 55.9944C107.855 55.9944 107.855 55.9943 107.854 55.9943C107.853 55.9942 107.852 55.994 107.851 55.9939C107.849 55.9937 107.847 55.9935 107.845 55.9933C107.841 55.9929 107.836 55.9925 107.832 55.9921C107.824 55.9913 107.815 55.9905 107.807 55.9897C107.79 55.9881 107.772 55.9865 107.755 55.9851C107.72 55.9821 107.684 55.9794 107.648 55.977C107.574 55.9721 107.497 55.9684 107.417 55.9661C107.256 55.9617 107.077 55.9631 106.882 55.975L107.248 61.9639L107.614 67.9527C107.421 67.9645 107.244 67.9659 107.084 67.9615C107.004 67.9593 106.927 67.9556 106.854 67.9507C106.817 67.9483 106.782 67.9456 106.747 67.9427C106.729 67.9412 106.712 67.9397 106.695 67.9381C106.687 67.9373 106.678 67.9365 106.67 67.9357C106.666 67.9352 106.661 67.9348 106.657 67.9344C106.655 67.9342 106.653 67.934 106.651 67.9338C106.65 67.9337 106.649 67.9336 106.648 67.9335C106.647 67.9334 106.647 67.9333 106.646 67.9333C106.646 67.9332 106.645 67.9332 107.251 61.9639ZM107.248 61.9639C101.327 62.9327 101.327 62.9328 101.327 62.933C101.327 62.933 101.327 62.9332 101.327 62.9333C101.327 62.9336 101.327 62.9339 101.327 62.9343C101.327 62.9351 101.327 62.9362 101.328 62.9376C101.328 62.9404 101.329 62.9443 101.33 62.9494C101.331 62.9594 101.334 62.974 101.337 62.9928C101.343 63.0304 101.352 63.0851 101.364 63.1556C101.387 63.2964 101.421 63.5001 101.464 63.7553C101.55 64.2654 101.672 64.9827 101.818 65.8151C102.108 67.4688 102.5 69.6218 102.89 71.5156L108.767 70.3037L114.643 69.0919C114.288 67.3715 113.921 65.3547 113.638 63.7419C113.497 62.9412 113.38 62.2511 113.297 61.7621C113.256 61.5178 113.224 61.3241 113.202 61.1924C113.191 61.1266 113.183 61.0762 113.177 61.0429C113.174 61.0262 113.172 61.0137 113.171 61.0057C113.17 61.0017 113.17 60.9988 113.17 60.997C113.169 60.9961 113.169 60.9955 113.169 60.9951C113.169 60.995 113.169 60.9949 113.169 60.9949C113.169 60.9949 113.169 60.9949 113.169 60.9949C113.169 60.9949 113.169 60.995 107.248 61.9639ZM108.767 70.3037L102.891 71.5178C103.707 75.4681 105.226 78.9648 106.585 81.9321C108.022 85.0701 109.212 87.4955 110.029 90.0955L115.753 88.2959L121.477 86.4963C120.372 82.9821 118.737 79.6478 117.496 76.9365C116.176 74.0544 115.164 71.6121 114.642 69.0896L108.767 70.3037ZM115.753 88.2959L115.672 94.2953L129.667 94.4848L129.748 88.4854L129.829 82.4859L115.834 82.2964L115.753 88.2959ZM129.748 88.4854L129.694 94.4851C130.174 94.4894 130.766 94.5263 131.62 94.5873C132.419 94.6442 133.419 94.7196 134.473 94.7618L134.713 88.7666L134.953 82.7714C134.128 82.7384 133.341 82.6795 132.474 82.6177C131.663 82.5599 130.711 82.4938 129.802 82.4856L129.748 88.4854ZM134.713 88.7666L134.478 94.762C136.808 94.8534 141.684 95.2229 146.421 95.7187C148.778 95.9653 151.035 96.2364 152.876 96.5096C153.798 96.6463 154.575 96.7777 155.186 96.8993C155.49 96.9598 155.729 97.0133 155.91 97.058C156.1 97.1053 156.169 97.1293 156.151 97.1233L158.113 91.4531L160.075 85.7829C158.636 85.2851 156.533 84.9209 154.638 84.6396C152.563 84.3317 150.12 84.0401 147.67 83.7839C142.796 83.2738 137.638 82.8767 134.948 82.7712L134.713 88.7666ZM158.113 91.4531L156.144 97.1208C157.094 97.4509 157.467 97.7361 157.549 97.8052C157.598 97.8471 157.523 97.7867 157.454 97.6398L162.895 95.1094L168.335 92.579C166.966 89.6369 164.317 87.2568 160.082 85.7854L158.113 91.4531ZM162.895 95.1094L157.455 97.6413C157.437 97.6023 157.437 97.596 157.446 97.6254C157.455 97.6532 157.469 97.7001 157.482 97.7632C157.51 97.8969 157.524 98.0385 157.522 98.1583C157.521 98.2814 157.505 98.3081 157.522 98.248C157.541 98.1829 157.614 97.9739 157.819 97.7167L162.515 101.451L167.211 105.186C169.022 102.908 169.5 100.267 169.522 98.2863C169.543 96.2877 169.115 94.2549 168.334 92.5774L162.895 95.1094ZM162.515 101.451L157.829 97.703C157.798 97.7418 157.854 97.6638 158.022 97.5649C158.185 97.4692 158.375 97.4006 158.57 97.3628C158.909 97.297 159.275 97.3185 159.782 97.4455L158.324 103.266L156.866 109.086C157.804 109.321 163.12 110.299 167.2 105.199L162.515 101.451ZM158.324 103.266C164.077 104.97 164.077 104.971 164.077 104.971C164.077 104.971 164.077 104.972 164.077 104.972C164.076 104.972 164.076 104.973 164.076 104.973C164.076 104.974 164.076 104.975 164.075 104.976C164.075 104.978 164.074 104.98 164.074 104.982C164.073 104.985 164.071 104.989 164.07 104.993C164.068 105 164.066 105.007 164.064 105.015C164.059 105.029 164.055 105.044 164.05 105.059C164.041 105.088 164.032 105.117 164.022 105.145C164.003 105.202 163.984 105.258 163.963 105.314L158.335 103.234L152.707 101.155C152.679 101.231 152.654 101.302 152.631 101.37C152.62 101.404 152.61 101.437 152.6 101.469C152.595 101.484 152.59 101.5 152.585 101.515C152.583 101.523 152.58 101.531 152.578 101.538C152.577 101.542 152.576 101.546 152.575 101.55C152.574 101.551 152.574 101.553 152.573 101.555C152.573 101.556 152.573 101.557 152.572 101.558C152.572 101.558 152.572 101.559 152.572 101.559C152.572 101.56 152.572 101.56 152.572 101.56C152.572 101.56 152.572 101.561 158.324 103.266ZM158.335 103.234L158.909 97.2619C157.214 97.099 141.922 95.6764 137.08 95.4582L136.81 101.452L136.54 107.446C141.002 107.647 155.924 109.03 157.761 109.207L158.335 103.234ZM136.81 101.452L137.079 95.4582C134.728 95.3526 132.346 95.3158 130.341 95.6329C128.553 95.9157 125.083 96.7802 123.344 100.258L128.71 102.942L134.076 105.626C133.6 106.578 132.891 107.113 132.435 107.355C132.062 107.552 131.9 107.535 132.215 107.486C132.501 107.44 132.987 107.397 133.755 107.386C134.509 107.375 135.424 107.396 136.54 107.446L136.81 101.452ZM128.71 102.942L123.343 100.259C122.387 102.172 122.39 104.106 122.446 105.115C122.511 106.282 122.727 107.328 122.887 107.989L128.719 106.577L134.55 105.165C134.519 105.035 134.489 104.894 134.466 104.756C134.442 104.614 134.431 104.511 134.428 104.45C134.424 104.379 134.433 104.434 134.414 104.584C134.403 104.665 134.381 104.796 134.334 104.965C134.287 105.133 134.208 105.362 134.077 105.626L128.71 102.942ZM128.719 106.577L128.623 112.576C131.884 112.629 134.925 112.769 136.884 113.036L137.693 107.091L138.503 101.146C135.781 100.775 132.125 100.631 128.815 100.578L128.719 106.577ZM137.693 107.091L136.893 113.037C140.274 113.493 144.37 114.236 147.702 115.138C149.385 115.593 150.69 116.04 151.556 116.433C151.76 116.526 151.915 116.604 152.028 116.667C152.144 116.73 152.192 116.764 152.19 116.763C152.188 116.762 152.166 116.746 152.13 116.716C152.093 116.686 152.036 116.635 151.964 116.563C151.829 116.427 151.587 116.156 151.353 115.736L156.594 112.814L161.835 109.893C161.041 108.47 159.923 107.535 159.132 106.975C158.282 106.372 157.364 105.891 156.512 105.505C154.81 104.733 152.811 104.089 150.836 103.554C146.852 102.477 142.214 101.645 138.494 101.144L137.693 107.091ZM156.594 112.814L151.353 115.735C151.321 115.679 151.533 116.134 151.882 117.408C152.185 118.513 152.487 119.837 152.761 121.155C153.307 123.783 153.685 126.119 153.68 126.09L159.604 125.133L165.527 124.175C165.52 124.136 165.11 121.598 164.51 118.713C164.211 117.275 163.851 115.682 163.455 114.237C163.106 112.962 162.583 111.236 161.835 109.894L156.594 112.814ZM159.604 125.133C157.119 119.671 157.119 119.671 157.118 119.672C157.118 119.672 157.118 119.672 157.117 119.672C157.116 119.673 157.116 119.673 157.115 119.673C157.113 119.674 157.112 119.675 157.11 119.675C157.107 119.677 157.105 119.678 157.102 119.679C157.096 119.682 157.09 119.685 157.084 119.688C157.072 119.693 157.059 119.699 157.047 119.705C157.023 119.716 156.999 119.728 156.974 119.74C156.925 119.764 156.874 119.789 156.823 119.816C156.722 119.869 156.617 119.927 156.509 119.991L159.582 125.145L162.655 130.298C162.561 130.354 162.467 130.406 162.372 130.456C162.325 130.48 162.278 130.504 162.23 130.527C162.206 130.539 162.183 130.55 162.159 130.561C162.147 130.567 162.135 130.573 162.123 130.578C162.117 130.581 162.111 130.584 162.105 130.586C162.102 130.588 162.1 130.589 162.097 130.59C162.095 130.591 162.094 130.592 162.092 130.592C162.091 130.593 162.091 130.593 162.09 130.593C162.089 130.594 162.089 130.594 162.089 130.594C162.088 130.594 162.088 130.594 159.604 125.133ZM159.582 125.145L153.651 126.051C153.748 126.687 153.818 127.26 153.844 127.673L159.832 127.299L165.82 126.925C165.762 125.99 165.632 125.013 165.513 124.238L159.582 125.145ZM159.832 127.299L153.841 127.629C153.864 128.052 153.884 128.452 153.895 128.822C153.907 129.196 153.91 129.503 153.905 129.744C153.899 130.006 153.886 130.086 153.893 130.038C153.897 130.01 153.917 129.876 153.972 129.674C154.001 129.569 154.046 129.422 154.115 129.246C154.182 129.072 154.285 128.837 154.438 128.569L159.648 131.545L164.858 134.521C165.527 133.35 165.708 132.188 165.774 131.728C165.862 131.109 165.892 130.498 165.902 129.996C165.924 128.985 165.873 127.875 165.823 126.969L159.832 127.299ZM159.648 131.545L154.439 128.568C154.656 128.188 154.872 127.907 155.01 127.74C155.142 127.579 155.255 127.46 155.265 127.449C155.27 127.444 155.275 127.439 155.272 127.442C155.271 127.443 155.265 127.449 155.257 127.458C155.241 127.475 155.206 127.512 155.164 127.56C155.079 127.654 154.931 127.826 154.766 128.055L159.634 131.562L164.502 135.07C164.339 135.296 164.193 135.464 164.112 135.556C164.07 135.602 164.037 135.638 164.022 135.653C164.015 135.661 164.009 135.667 164.009 135.667C164.007 135.67 164.013 135.664 164.018 135.658C164.031 135.644 164.147 135.522 164.281 135.359C164.421 135.189 164.639 134.904 164.858 134.522L159.648 131.545ZM159.634 131.562L153.703 132.471C153.712 132.529 153.869 133.579 153.914 134.8C153.937 135.41 153.927 135.954 153.885 136.376C153.835 136.874 153.774 136.849 153.915 136.543L159.364 139.055L164.813 141.567C165.478 140.125 165.719 138.636 165.825 137.567C165.94 136.422 165.941 135.295 165.906 134.356C165.837 132.479 165.605 130.918 165.565 130.654L159.634 131.562ZM159.364 139.055L153.913 136.549C154.441 135.399 155.128 135.108 154.435 135.604C153.987 135.924 153.156 136.432 151.791 137.111C149.082 138.458 144.776 140.233 138.407 142.378L140.322 148.064L142.237 153.751C148.884 151.512 153.752 149.538 157.136 147.855C158.819 147.018 160.263 146.189 161.418 145.363C162.327 144.713 163.94 143.466 164.816 141.561L159.364 139.055ZM140.322 148.064L134.34 147.601C134.27 148.502 134.23 149.664 134.352 150.861C134.458 151.909 134.755 153.753 135.912 155.441L140.861 152.049L145.81 148.656C145.971 148.891 146.076 149.097 146.143 149.248C146.21 149.4 146.248 149.517 146.268 149.586C146.305 149.714 146.3 149.747 146.29 149.646C146.281 149.554 146.272 149.406 146.274 149.2C146.275 148.997 146.286 148.77 146.304 148.528L140.322 148.064ZM140.861 152.049L135.919 155.451C137.203 157.316 139.059 158.016 139.744 158.26C140.602 158.567 141.562 158.787 142.329 158.956C144.034 159.331 146.112 159.733 149.099 160.531L150.648 154.734L152.198 148.938C148.871 148.049 146.366 147.557 144.91 147.237C144.541 147.155 144.269 147.092 144.061 147.038C143.846 146.983 143.773 146.957 143.784 146.961C143.796 146.965 143.852 146.985 143.94 147.026C144.027 147.065 144.169 147.135 144.345 147.243C144.687 147.453 145.279 147.885 145.803 148.646L140.861 152.049ZM150.648 154.734L149.096 160.53C152.683 161.491 154.269 162.289 154.949 162.812C155.207 163.01 155.226 163.089 155.2 163.041C155.178 163.001 155.235 163.069 155.27 163.405L161.237 162.778L167.204 162.151C166.838 158.667 165.295 155.629 162.263 153.298C159.628 151.272 156.123 149.989 152.2 148.939L150.648 154.734ZM161.237 162.778L155.27 163.404C155.247 163.184 155.223 162.123 156.084 161.023C156.877 160.012 157.802 159.767 157.965 159.73C158.126 159.693 158.049 159.734 157.601 159.71C157.192 159.687 156.71 159.625 156.122 159.534L155.205 165.464L154.288 171.393C155.406 171.566 158.13 172.006 160.66 171.423C162.059 171.101 164.038 170.329 165.529 168.426C167.09 166.434 167.41 164.116 167.205 162.153L161.237 162.778ZM155.205 165.464L156.122 159.534C153.459 159.122 129.202 155.265 123.552 153.987L122.229 159.839L120.905 165.691C127.068 167.085 151.861 171.018 154.288 171.393L155.205 165.464ZM122.229 159.839L123.557 153.988C122.507 153.749 121.828 153.603 121.235 153.454C120.627 153.301 120.522 153.242 120.617 153.286C120.753 153.348 121.494 153.709 122.122 154.63C122.787 155.603 122.87 156.525 122.87 156.886H116.87H110.87C110.87 158.181 111.143 159.831 112.213 161.397C113.246 162.911 114.606 163.73 115.602 164.188C117.201 164.923 119.454 165.361 120.9 165.69L122.229 159.839ZM116.87 156.886L122.87 156.886C122.87 157.713 122.513 158.253 122.372 158.433L117.653 154.727L112.935 151.02C112.005 152.204 110.87 154.204 110.87 156.885L116.87 156.886ZM117.653 154.727L116.18 148.91C107.299 151.161 101.377 152.152 98.4292 152.381L98.8955 158.363L99.3618 164.345C103.312 164.037 109.997 162.856 119.127 160.543L117.653 154.727ZM98.8955 158.363L98.4294 152.381C95.4688 152.612 89.7833 151.746 83.1742 150.299L81.8906 156.16L80.6071 162.021C86.995 163.42 94.3676 164.734 99.3616 164.345L98.8955 158.363ZM81.8906 156.16L75.8908 156.206L76.0051 171.261L82.0049 171.216L88.0047 171.17L87.8905 156.115L81.8906 156.16ZM82.0049 171.216L80.6679 177.065C80.6728 177.066 83.8407 177.79 87.3796 178.706C89.1527 179.165 90.9716 179.661 92.5122 180.128C93.2829 180.362 93.9466 180.577 94.4796 180.768C94.7446 180.862 94.9576 180.943 95.1223 181.011C95.2035 181.044 95.2663 181.071 95.3125 181.092C95.3352 181.102 95.3524 181.11 95.3643 181.116C95.3763 181.121 95.3817 181.124 95.381 181.124L98.0928 175.771L100.805 170.419C99.4872 169.752 97.6172 169.137 95.9954 168.645C94.2313 168.109 92.2351 167.568 90.3872 167.089C86.6841 166.131 83.3871 165.377 83.3419 165.367L82.0049 171.216ZM98.0928 175.771L95.3862 181.126C96.479 181.679 96.8115 182.166 96.8698 182.262C96.9508 182.396 96.7663 182.183 96.8557 181.587L102.789 182.479L108.722 183.372C109.481 178.325 106.396 173.246 100.799 170.417L98.0928 175.771ZM102.789 182.479L96.8609 181.554C96.8833 181.41 96.9354 181.216 97.0396 181C97.1434 180.784 97.2761 180.594 97.4187 180.438C97.697 180.134 97.9328 180.042 97.9415 180.038C97.9481 180.036 97.8613 180.066 97.6983 180.078C97.5267 180.091 97.4556 180.069 97.5411 180.086L96.3486 185.967L95.1562 191.847C97.172 192.256 99.8367 192.183 102.314 191.213C105.011 190.158 108.041 187.735 108.717 183.405L102.789 182.479ZM96.3486 185.967L97.5411 180.087C96.5138 179.878 85.7661 177.789 75.0686 175.687C69.6998 174.632 64.3262 173.57 60.1466 172.731C58.0554 172.311 56.2738 171.948 54.9453 171.671C54.2798 171.532 53.7412 171.418 53.3403 171.329C52.8813 171.228 52.7428 171.192 52.7781 171.202L51.166 176.981L49.5539 182.761C51.0639 183.182 62.2551 185.399 72.7546 187.462C83.5401 189.581 94.1726 191.648 95.1561 191.847L96.3486 185.967ZM51.166 176.981L52.7788 171.202C52.2411 171.052 51.9755 170.959 51.8346 170.899C51.7022 170.843 51.8954 170.903 52.184 171.166C52.5254 171.476 52.8331 171.917 53.0024 172.417C53.1539 172.865 53.1073 173.102 53.1211 172.943L47.1436 172.425L41.166 171.906C40.9084 174.875 41.6952 177.847 44.1111 180.044C46.0251 181.784 48.4187 182.444 49.5532 182.761L51.166 176.981ZM47.1436 172.425L53.1223 172.929C53.0915 173.294 52.9493 173.586 52.8341 173.745C52.743 173.871 52.7234 173.842 52.8939 173.737C53.0595 173.635 53.3069 173.522 53.6045 173.439C53.9066 173.355 54.1403 173.334 54.2454 173.334L54.2451 167.334L54.2449 161.334C51.7565 161.334 48.9567 162.067 46.5965 163.522C44.2107 164.993 41.5184 167.731 41.1648 171.92L47.1436 172.425ZM54.2451 167.334V173.334C55.0703 173.334 57.585 173.666 60.4515 174.129C61.7625 174.341 62.9923 174.554 63.8963 174.714C64.3474 174.794 64.7153 174.86 64.9691 174.906C65.096 174.929 65.1942 174.947 65.2599 174.959C65.2927 174.965 65.3174 174.97 65.3335 174.973C65.3415 174.974 65.3474 174.976 65.3511 174.976C65.3529 174.977 65.3542 174.977 65.3549 174.977C65.3553 174.977 65.3555 174.977 65.3555 174.977C65.3556 174.977 65.3555 174.977 65.3556 174.977C65.3555 174.977 65.3553 174.977 66.4521 169.078C67.549 163.179 67.5488 163.179 67.5485 163.179C67.5484 163.179 67.5481 163.179 67.5479 163.179C67.5474 163.179 67.5468 163.179 67.546 163.179C67.5444 163.178 67.5423 163.178 67.5396 163.177C67.5342 163.176 67.5266 163.175 67.5168 163.173C67.4972 163.17 67.4689 163.164 67.4324 163.158C67.3593 163.144 67.2532 163.125 67.118 163.1C66.8477 163.051 66.4607 162.981 65.9883 162.897C65.0451 162.73 63.7532 162.507 62.3657 162.283C59.8353 161.874 56.2465 161.334 54.2451 161.334V167.334ZM66.4521 169.078C72.4516 168.998 72.4516 168.998 72.4516 168.998C72.4516 168.998 72.4516 168.998 72.4516 168.998C72.4516 168.998 72.4516 168.997 72.4516 168.997C72.4516 168.995 72.4516 168.993 72.4515 168.991C72.4515 168.986 72.4514 168.978 72.4512 168.968C72.451 168.948 72.4506 168.918 72.45 168.88C72.449 168.802 72.4475 168.687 72.4456 168.541C72.4417 168.248 72.4363 167.828 72.4297 167.319C72.4165 166.3 72.3989 164.923 72.3814 163.492C72.3459 160.602 72.3115 157.57 72.3115 156.745H66.3115H60.3115C60.3115 157.664 60.3474 160.799 60.3823 163.639C60.3999 165.074 60.4175 166.453 60.4307 167.474C60.4373 167.984 60.4428 168.405 60.4466 168.698C60.4485 168.845 60.4501 168.96 60.4511 169.038C60.4516 169.077 60.452 169.107 60.4523 169.127C60.4524 169.137 60.4525 169.145 60.4526 169.15C60.4526 169.153 60.4526 169.155 60.4527 169.156C60.4527 169.156 60.4527 169.157 60.4527 169.157C60.4527 169.157 60.4527 169.158 60.4527 169.158C60.4527 169.158 60.4527 169.158 66.4521 169.078ZM66.3115 156.745L72.3115 156.745C72.3115 155.807 72.3613 153.525 72.3027 151.904L66.3066 152.121L60.3106 152.338C60.3594 153.69 60.3115 155.284 60.3115 156.745L66.3115 156.745ZM66.3066 152.121L68.0814 146.39C62.9004 144.785 58.7894 143.145 56.7095 141.797L53.4463 146.832L50.1831 151.867C53.7789 154.197 59.3041 156.234 64.5319 157.853L66.3066 152.121ZM53.4463 146.832L56.7097 141.797C55.577 141.063 54.8328 140.038 54.3547 139.082C54.1206 138.614 53.9746 138.209 53.8936 137.949C53.8538 137.822 53.8319 137.737 53.8243 137.705C53.8205 137.69 53.8204 137.688 53.8235 137.703C53.825 137.71 53.8274 137.721 53.8305 137.736C53.832 137.744 53.8337 137.752 53.8357 137.762C53.8366 137.767 53.8376 137.772 53.8387 137.778C53.8392 137.78 53.8397 137.783 53.8403 137.786C53.8405 137.787 53.841 137.79 53.8411 137.79C53.8415 137.793 53.8419 137.795 47.9473 138.914C42.0526 140.033 42.053 140.036 42.0535 140.038C42.0536 140.039 42.0541 140.041 42.0544 140.043C42.055 140.046 42.0556 140.049 42.0562 140.052C42.0575 140.059 42.0588 140.066 42.0603 140.073C42.0631 140.088 42.0663 140.104 42.0698 140.121C42.0767 140.155 42.0849 140.194 42.0945 140.238C42.1136 140.327 42.1382 140.435 42.1691 140.561C42.2308 140.813 42.3181 141.139 42.4379 141.523C42.6761 142.286 43.0506 143.307 43.6217 144.449C44.754 146.714 46.7594 149.648 50.1829 151.867L53.4463 146.832ZM47.9473 138.914H53.9473V138.913H47.9473H41.9473V138.914H47.9473ZM47.9473 138.913L51.5364 134.105C52.3548 134.716 52.5852 135.298 52.3353 134.86C52.2014 134.624 51.9847 134.186 51.6965 133.498C51.1265 132.138 50.4608 130.246 49.765 128.019C48.3785 123.581 47.0124 118.267 46.1749 114.193L40.2979 115.401L34.4208 116.61C35.3408 121.085 36.8079 126.786 38.311 131.597C39.0599 133.994 39.8531 136.285 40.6287 138.136C41.0132 139.053 41.4409 139.978 41.9073 140.797C42.2576 141.413 43.044 142.74 44.3582 143.721L47.9473 138.913ZM40.2979 115.401L46.1742 114.189C45.3522 110.204 44.7094 106.56 44.3825 103.926C44.2149 102.575 44.1558 101.686 44.1583 101.214C44.1598 100.943 44.182 101.081 44.1054 101.431C44.0675 101.605 43.9527 102.083 43.6403 102.668C43.3411 103.228 42.6043 104.358 41.1102 105.081L38.4971 99.6797L35.884 94.2786C34.2758 95.0566 33.4403 96.2944 33.0569 97.0119C32.6604 97.7538 32.476 98.4397 32.3825 98.8672C32.1948 99.7258 32.1617 100.559 32.1585 101.15C32.1518 102.399 32.2863 103.892 32.4738 105.403C32.8571 108.492 33.5707 112.488 34.4215 116.613L40.2979 115.401ZM38.4971 99.6797L44.4375 98.836L44.3427 98.169L38.4023 99.0127L32.462 99.8564L32.5567 100.523L38.4971 99.6797ZM38.4023 99.0127L44.3463 98.1943C43.9462 95.2886 42.2655 82.0784 42.0357 63.8005L36.0361 63.876L30.0366 63.9514C30.2744 82.8595 32.0115 96.5852 32.4584 99.8311L38.4023 99.0127ZM36.0361 63.876L42.0356 63.7983C41.9385 56.3007 42.0531 48.6686 42.2474 42.6745C42.3447 39.6765 42.461 37.1147 42.5785 35.2021C42.7122 33.0282 42.8212 32.2389 42.8014 32.326L36.9502 30.998L31.099 29.6701C30.8542 30.7486 30.7119 32.6646 30.6011 34.4659C30.4744 36.5285 30.3534 39.2121 30.2537 42.2855C30.0544 48.4343 29.9369 56.2497 30.0366 63.9537L36.0361 63.876ZM36.9502 30.998L42.7979 32.3414C43.5437 29.0947 43.9901 27.7619 45.6193 26.6637L42.2656 21.6885L38.912 16.7132C32.9474 20.7338 31.791 26.6577 31.1025 29.6547L36.9502 30.998ZM42.2656 21.6885L45.6192 26.6638C45.5917 26.6823 45.6898 26.6145 45.981 26.4921C46.2598 26.3749 46.6337 26.2417 47.1094 26.101C48.0692 25.8171 49.2419 25.5614 50.519 25.3408C53.0707 24.9001 55.6487 24.6653 57.0035 24.5631L56.5518 18.5801L56.1001 12.5971C54.5774 12.7121 51.57 12.9816 48.4767 13.5158C46.9315 13.7827 45.2668 14.1321 43.7056 14.5939C42.2323 15.0297 40.4438 15.6807 38.9121 16.7132L42.2656 21.6885ZM56.5518 18.5801L61.2486 14.8465C61.2503 14.8486 61.2986 14.9089 61.368 15.0092C61.428 15.0959 61.5799 15.321 61.7401 15.646C61.8781 15.9262 62.194 16.6182 62.2939 17.5821C62.407 18.6725 62.2411 20.2248 61.1902 21.6663L56.3418 18.1318L51.4934 14.5973C49.2781 17.6361 50.8535 20.7016 50.9756 20.9495C51.3185 21.6454 51.7393 22.1682 51.8549 22.3137L56.5518 18.5801ZM56.3418 18.1318L61.1885 21.6687C60.4237 22.7167 59.525 23.2273 59.2188 23.3935C58.8171 23.6114 58.478 23.7342 58.3051 23.7926C57.9544 23.911 57.6831 23.9632 57.6116 23.9769C57.434 24.011 57.3438 24.0166 57.4337 24.0074C57.5745 23.9931 57.8732 23.9706 58.3715 23.9448C59.3404 23.8946 60.7564 23.8469 62.5089 23.8027C65.9977 23.7147 70.6371 23.6452 75.2915 23.5916C79.9398 23.5381 84.5788 23.5007 88.0574 23.4768C89.7962 23.4648 91.2441 23.4562 92.257 23.4506C92.7634 23.4478 93.161 23.4457 93.4318 23.4443C93.5672 23.4437 93.6709 23.4431 93.7406 23.4428C93.7755 23.4426 93.8019 23.4425 93.8195 23.4424C93.8283 23.4424 93.8349 23.4424 93.8393 23.4423C93.8415 23.4423 93.8431 23.4423 93.8442 23.4423C93.8447 23.4423 93.8451 23.4423 93.8454 23.4423C93.8456 23.4423 93.8457 23.4423 93.8184 17.4424C93.791 11.4424 93.7908 11.4424 93.7905 11.4424C93.7902 11.4424 93.7897 11.4425 93.7891 11.4425C93.788 11.4425 93.7862 11.4425 93.7839 11.4425C93.7793 11.4425 93.7725 11.4425 93.7634 11.4426C93.7454 11.4427 93.7186 11.4428 93.6832 11.443C93.6126 11.4433 93.5079 11.4438 93.3715 11.4445C93.0987 11.4459 92.699 11.4479 92.1903 11.4508C91.1729 11.4564 89.7197 11.4651 87.9747 11.4771C84.4857 11.5011 79.8268 11.5386 75.1534 11.5924C70.4861 11.6461 65.7801 11.7164 62.2065 11.8065C60.4278 11.8514 58.8833 11.9022 57.7508 11.9609C57.1983 11.9895 56.6611 12.024 56.2168 12.0693C56.0141 12.0899 55.6941 12.126 55.3538 12.1912C55.201 12.2205 54.8652 12.2885 54.4673 12.4228C54.2708 12.4891 53.9125 12.62 53.496 12.8459C53.1749 13.0201 52.2658 13.5388 51.4951 14.595L56.3418 18.1318Z" fill="white" mask="url(#path-1-outside-1_1347_13623)"/>
<path d="M66.1561 150.487C66.4233 151.697 66.3108 155.001 66.3108 156.745C66.3108 158.489 66.4514 169.078 66.4514 169.078C66.4514 169.078 57.0717 167.334 54.2452 167.334C51.4327 167.334 47.4249 169.092 47.1436 172.425C46.8764 175.504 48.7467 176.306 51.1655 176.981C53.5842 177.656 94.3374 185.559 96.3483 185.967C98.3592 186.375 102.269 185.812 102.789 182.479C103.07 180.609 101.987 177.74 98.092 175.772C94.928 174.169 82.0046 171.215 82.0046 171.215L81.8639 152.583L66.1561 150.487Z" fill="#474747"/>
<path d="M118.473 153.933C118.473 153.933 116.87 155.002 116.87 156.886C116.87 158.756 118.389 158.967 122.228 159.839C128.134 161.175 152.659 165.07 155.204 165.464C157.75 165.858 161.603 166.266 161.237 162.778C160.829 158.897 158.158 156.745 150.648 154.734C144.334 153.047 141.479 152.948 140.861 152.048C139.665 150.305 140.664 145.594 140.664 145.594L119.275 149.503L118.473 153.933Z" fill="#474747"/>
<path d="M47.9473 138.914C47.9473 138.914 48.8895 143.878 53.4457 146.831C58.002 149.785 67.6629 152.738 75.8332 154.749C84.0176 156.76 93.6645 158.771 98.8957 158.363C104.127 157.955 115.925 155.677 133.757 150.178C151.588 144.68 158.563 140.799 159.364 139.055C160.447 136.706 159.632 131.546 159.632 131.546L130.804 122.7L47.9473 138.914Z" fill="#888888"/>
<path d="M159.199 122.981C159.199 122.981 159.719 125.499 159.831 127.299C159.93 129.085 159.986 130.955 159.649 131.546C159.311 132.136 152.786 135.399 138.386 139.814C123.986 144.23 103.159 149.377 100.22 148.856C97.2814 148.336 99.4892 134.977 99.4892 134.977L159.199 122.981Z" fill="#0E5092"/>
<path d="M128.92 107.316C128.92 107.316 127.964 104.433 128.709 102.942C129.455 101.452 132.112 101.241 136.809 101.452C141.492 101.663 156.764 103.083 158.367 103.238C159.661 103.35 160.87 102.056 160.87 102.056L158.859 93.6752L129.764 88.4861L112.102 88.2471L115.083 112.646L128.92 107.316Z" fill="#A9D4FF"/>
<path d="M158.324 103.265C158.324 103.265 159.702 99.7495 157.79 97.5135C155.525 94.8838 137.118 94.7432 133.827 94.5323C130.522 94.3213 125.769 94.4338 125.938 91.1291C126.121 87.5573 129.791 88.5698 134.713 88.7666C139.733 88.9635 154.78 90.2995 158.113 91.4526C161.108 92.4932 162.332 93.8995 162.894 95.1088C163.654 96.7401 163.935 99.6651 162.515 101.451C160.602 103.842 158.324 103.265 158.324 103.265Z" fill="#A9D4FF"/>
<path d="M99.3029 139.167C99.3029 139.167 108.134 138.83 115.292 137.831C122.45 136.833 147.284 130.139 152.15 128.423C157.015 126.708 159.603 125.133 159.603 125.133C159.603 125.133 158.028 115.387 156.594 112.814C155.159 110.24 144.795 108.047 137.694 107.09C131.394 106.233 117.781 106.655 117.781 106.655L71.5154 113.25L51.9404 120.815L90.5701 130.153L99.3029 139.167Z" fill="#4B9AE8"/>
<path d="M53.3906 120.956C53.3906 120.956 63.5156 121.167 75.3422 122.77C87.1687 124.373 93.7641 125.751 97.8141 129.478C100.472 131.925 101.316 136.2 101.752 141.304C102.173 146.212 103.439 150.164 96.6328 148.969C91.3875 148.054 86.8312 142.148 85.9734 141.937C85.1156 141.726 55.5 131.601 55.5 131.601L53.3906 120.956Z" fill="#7AB9F8"/>
<path d="M118.749 103.42C118.749 103.42 119.129 105.74 119.171 106.71C119.185 107.202 114.727 108.117 112.814 108.468C107.822 109.368 93.1129 112.11 89.9207 112.645C86.7285 113.179 54.3145 121.11 54.3145 121.11L49.1113 119.142L52.0926 112.645C52.0926 112.645 86.827 99.7915 91.8332 99.004C102.718 97.3025 118.749 103.42 118.749 103.42Z" fill="#0E5092"/>
<path d="M84.8182 107.274C84.8182 107.274 93.9588 106.191 101.693 105.291C107.754 104.574 118.751 103.491 118.751 103.491C118.751 103.491 117.893 95.8973 116.037 89.2457C114.223 82.7348 110.173 77.1098 108.767 70.3035C108.021 66.6895 107.248 61.9645 107.248 61.9645L85.8869 54.3848C85.8869 54.3848 44.3744 62.8645 44.2197 63.7785C44.065 64.6926 45.2744 105.755 45.2744 105.755L84.8182 107.274Z" fill="#4B9AE8"/>
<path d="M63.8041 88.6083C68.1142 88.6083 71.6083 85.1142 71.6083 80.8041C71.6083 76.494 68.1142 73 63.8041 73C59.494 73 56 76.494 56 80.8041C56 85.1142 59.494 88.6083 63.8041 88.6083Z" fill="white"/>
<path d="M63.8045 84.9361C66.0863 84.9361 67.9361 83.0863 67.9361 80.8045C67.9361 78.5226 66.0863 76.6729 63.8045 76.6729C61.5226 76.6729 59.6729 78.5226 59.6729 80.8045C59.6729 83.0863 61.5226 84.9361 63.8045 84.9361Z" fill="black"/>
<path d="M98.8041 83.6083C103.114 83.6083 106.608 80.1142 106.608 75.8041C106.608 71.494 103.114 68 98.8041 68C94.494 68 91 71.494 91 75.8041C91 80.1142 94.494 83.6083 98.8041 83.6083Z" fill="white"/>
<path d="M98.8045 79.9361C101.086 79.9361 102.936 78.0863 102.936 75.8045C102.936 73.5226 101.086 71.6729 98.8045 71.6729C96.5226 71.6729 94.6729 73.5226 94.6729 75.8045C94.6729 78.0863 96.5226 79.9361 98.8045 79.9361Z" fill="black"/>
<path d="M45.2771 66.6607C45.2771 66.6607 55.2756 66.8154 64.2193 65.7467C73.1631 64.692 80.5881 63.6232 87.7037 63.1732C94.8193 62.7232 107.251 61.9639 107.251 61.9639C107.251 61.9639 106.941 56.817 107.096 56.2123C107.251 55.6076 109.43 53.0623 110.232 51.6561C111.033 50.2498 111.652 48.6467 111.905 47.8592C112.172 47.0576 108.812 35.5686 108.812 35.5686L65.3303 21.6045L47.3021 22.6592L44.8271 57.5623L45.2771 66.6607Z" fill="#0E5092"/>
<path d="M48.5359 53.2457C48.5359 53.2457 61.5719 51.7832 62.0219 51.4316C62.4578 51.0801 62.4297 38.4801 61.9656 35.0488C61.2063 29.3816 59.9828 22.7723 59.9828 22.3363C59.9828 21.9004 56.5656 19.5801 56.5656 19.5801L44.9922 26.7379L48.5359 53.2457Z" fill="#4B9AE8"/>
<path d="M102.227 39.2387C102.227 39.2387 103.042 44.7934 102.986 46.8746C102.972 47.409 102.803 48.8152 103.338 48.8152C103.872 48.8152 111.916 47.8449 111.916 47.8449C111.916 47.8449 113.421 41.123 111.381 32.9949C109.342 24.8668 105.813 21.1543 105.813 21.1543L92.5518 21.3371L102.227 39.2387Z" fill="#4B9AE8"/>
<path d="M96.5326 22.6589L106.967 22.5745C106.967 22.5745 105.645 19.6636 103.339 18.6792C101.033 17.7089 89.9795 18.1589 89.9795 18.1589L57.5513 18.5105C57.5513 18.5105 46.0623 19.1292 42.2654 21.6886C38.4685 24.248 37.667 27.8761 36.9498 30.9979C36.4998 32.9808 35.8388 48.6745 36.0357 63.8761C36.3029 85.1245 38.4966 99.6792 38.4966 99.6792L44.5576 108.06L51.392 100.72C51.392 100.72 51.9123 89.512 50.3654 81.1308C48.8185 72.7495 46.7513 66.7308 46.7513 66.7308C46.7513 66.7308 51.2795 61.2886 51.2795 45.9604C51.2795 30.6323 49.9576 24.937 49.9576 24.937C49.9576 24.937 53.8951 24.3464 57.4248 23.9105C59.6045 23.6433 96.5326 22.6589 96.5326 22.6589Z" fill="#7AB9F8"/>
<path d="M65.6786 51.0939C66.3395 51.7549 100.596 48.1268 101.243 47.7471C101.89 47.3674 103.647 41.8127 102.396 34.4721C100.469 23.1377 93.8177 17.4424 93.8177 17.4424C93.8177 17.4424 56.7208 17.6111 56.3411 18.1314C55.9614 18.6518 62.0927 22.6455 64.2723 34.233C66.1989 44.5268 65.0317 50.4611 65.6786 51.0939Z" fill="#D7E8FC"/>
<path d="M96.6465 148.968C96.6465 148.968 87.3371 149.545 73.5418 146.451C61.2512 143.695 49.9309 140.39 47.9481 138.914C45.9653 137.437 42.0559 123.951 40.2981 115.401C38.6246 107.287 37.584 100.115 38.4981 99.6793C40.0731 98.9199 59.2403 100.973 59.2403 100.973L93.6793 111.632L87.9699 118.509L54.3465 117.201C54.3465 117.201 54.5996 123.642 58.2137 127.636C60.8012 130.504 63.7543 131.629 72.2621 132.276C80.77 132.923 90.0371 133.696 94.0309 138.464C98.4465 143.737 96.6465 148.968 96.6465 148.968Z" fill="#A9D4FF"/>
<path d="M59.24 100.959C57.8196 100.833 56.0196 101.606 55.4993 104.306C54.9087 107.414 58.0728 108.82 63.1071 109.073C67.4806 109.298 76.3962 110.184 79.8837 110.381C83.4415 110.592 88.1806 111.478 88.8275 113.798C89.4743 116.119 87.9697 118.481 87.9697 118.481C87.9697 118.481 90.965 118.537 92.315 118.101C94.1431 117.511 95.1837 115.134 95.0572 112.814C94.9306 110.494 93.5103 107.4 87.4493 105.347C81.4025 103.28 59.24 100.959 59.24 100.959Z" fill="#A9D4FF"/>
<path d="M89.5354 84.4255C89.5411 87.3129 87.1529 92.2924 84.0825 92.6981C81.012 93.1038 77.1837 88.8303 76.6515 85.7847C76.12 82.745 78.019 80.3821 82.6029 79.7823C87.2373 79.1763 89.5297 81.538 89.5354 84.4255Z" fill="#EAC00F"/>
</svg>
