<svg width="200" height="200" viewBox="0 0 200 200" fill="none" xmlns="http://www.w3.org/2000/svg">
<mask id="path-1-outside-1_789_14304" maskUnits="userSpaceOnUse" x="10.5908" y="18.124" width="181" height="150" fill="black">
<rect fill="white" x="10.5908" y="18.124" width="181" height="150"/>
<path d="M153.787 88.4668L168.043 92.9775H185V161.556H147.563L147.551 161.575L147.521 161.556H81.7793V161.931H79.4082V161.556H25.4414V117.356L16.5908 114.557L27.0752 81.418L22.9531 78.6758L32.4678 64.374L36.5791 51.3818L40.3242 52.5664L58.583 25.124L153.787 88.4668Z"/>
</mask>
<path d="M153.787 88.4668L168.043 92.9775H185V161.556H147.563L147.551 161.575L147.521 161.556H81.7793V161.931H79.4082V161.556H25.4414V117.356L16.5908 114.557L27.0752 81.418L22.9531 78.6758L32.4678 64.374L36.5791 51.3818L40.3242 52.5664L58.583 25.124L153.787 88.4668Z" fill="url(#paint0_linear_789_14304)"/>
<path d="M153.787 88.4668L150.464 93.4622C150.932 93.7736 151.441 94.0177 151.977 94.1873L153.787 88.4668ZM168.043 92.9775L166.233 98.698C166.818 98.8833 167.429 98.9775 168.043 98.9775V92.9775ZM185 92.9775H191C191 89.6638 188.314 86.9775 185 86.9775V92.9775ZM185 161.556V167.556C188.314 167.556 191 164.869 191 161.556H185ZM147.563 161.556V155.556C145.533 155.556 143.64 156.583 142.533 158.286L147.563 161.556ZM147.551 161.575L144.223 166.567C145.557 167.457 147.191 167.775 148.762 167.452C150.332 167.128 151.708 166.189 152.581 164.845L147.551 161.575ZM147.521 161.556L150.85 156.563C149.864 155.906 148.706 155.556 147.521 155.556V161.556ZM81.7793 161.556V155.556C78.4656 155.556 75.7793 158.242 75.7793 161.556H81.7793ZM81.7793 161.931V167.931C85.093 167.931 87.7793 165.244 87.7793 161.931H81.7793ZM79.4082 161.931H73.4082C73.4082 165.244 76.0945 167.931 79.4082 167.931V161.931ZM79.4082 161.556H85.4082C85.4082 158.242 82.7219 155.556 79.4082 155.556V161.556ZM25.4414 161.556H19.4414C19.4414 164.869 22.1277 167.556 25.4414 167.556V161.556ZM25.4414 117.356H31.4414C31.4414 114.74 29.7458 112.425 27.2511 111.636L25.4414 117.356ZM16.5908 114.557L10.8703 112.747C10.3903 114.264 10.5327 115.91 11.2661 117.322C11.9995 118.734 13.2639 119.797 14.7812 120.277L16.5908 114.557ZM27.0752 81.418L32.7957 83.2278C33.6022 80.6786 32.6246 77.9033 30.3985 76.4224L27.0752 81.418ZM22.9531 78.6758L17.9576 75.3524C17.0762 76.6773 16.7572 78.2981 17.0708 79.8582C17.3844 81.4183 18.3049 82.79 19.6298 83.6714L22.9531 78.6758ZM32.4678 64.374L37.4633 67.6974C37.7746 67.2295 38.0186 66.7201 38.1882 66.1842L32.4678 64.374ZM36.5791 51.3818L38.3885 45.6612C35.2294 44.662 31.8583 46.4126 30.8587 49.5716L36.5791 51.3818ZM40.3242 52.5664L38.5148 58.2871C41.0638 59.0933 43.8386 58.1158 45.3196 55.8901L40.3242 52.5664ZM58.583 25.124L61.9066 20.1287C59.1478 18.2931 55.4233 19.0415 53.5877 21.8004L58.583 25.124ZM153.787 88.4668L151.977 94.1873L166.233 98.698L168.043 92.9775L169.853 87.2571L155.597 82.7463L153.787 88.4668ZM168.043 92.9775V98.9775H185V92.9775V86.9775H168.043V92.9775ZM185 92.9775H179V161.556H185H191V92.9775H185ZM185 161.556V155.556H147.563V161.556V167.556H185V161.556ZM147.563 161.556L142.533 158.286L142.52 158.305L147.551 161.575L152.581 164.845L152.594 164.826L147.563 161.556ZM147.551 161.575L150.879 156.583L150.85 156.563L147.521 161.556L144.193 166.548L144.223 166.567L147.551 161.575ZM147.521 161.556V155.556H81.7793V161.556V167.556H147.521V161.556ZM81.7793 161.556H75.7793V161.931H81.7793H87.7793V161.556H81.7793ZM81.7793 161.931V155.931H79.4082V161.931V167.931H81.7793V161.931ZM79.4082 161.931H85.4082V161.556H79.4082H73.4082V161.931H79.4082ZM79.4082 161.556V155.556H25.4414V161.556V167.556H79.4082V161.556ZM25.4414 161.556H31.4414V117.356H25.4414H19.4414V161.556H25.4414ZM25.4414 117.356L27.2511 111.636L18.4005 108.836L16.5908 114.557L14.7812 120.277L23.6317 123.077L25.4414 117.356ZM16.5908 114.557L22.3113 116.366L32.7957 83.2278L27.0752 81.418L21.3547 79.6081L10.8703 112.747L16.5908 114.557ZM27.0752 81.418L30.3985 76.4224L26.2764 73.6802L22.9531 78.6758L19.6298 83.6714L23.7519 86.4135L27.0752 81.418ZM22.9531 78.6758L27.9486 81.9992L37.4633 67.6974L32.4678 64.374L27.4723 61.0506L17.9576 75.3524L22.9531 78.6758ZM32.4678 64.374L38.1882 66.1842L42.2995 53.192L36.5791 51.3818L30.8587 49.5716L26.7474 62.5638L32.4678 64.374ZM36.5791 51.3818L34.7697 57.1025L38.5148 58.2871L40.3242 52.5664L42.1336 46.8457L38.3885 45.6612L36.5791 51.3818ZM40.3242 52.5664L45.3196 55.8901L63.5783 28.4477L58.583 25.124L53.5877 21.8004L35.3289 49.2428L40.3242 52.5664ZM58.583 25.124L55.2594 30.1194L150.464 93.4622L153.787 88.4668L157.111 83.4714L61.9066 20.1287L58.583 25.124Z" fill="white" mask="url(#path-1-outside-1_789_14304)"/>
<path d="M183.181 108.024L58.5826 25.1244L22.9528 78.6761L147.551 161.575L183.181 108.024Z" fill="#96B8CD"/>
<g opacity="0.88">
<path d="M121.947 95.8364L129.817 111.21C129.817 111.21 120.113 114.845 115.975 106.776C113.526 101.986 115.148 97.2234 117.169 94.685C118.432 93.0968 120.803 93.5972 121.942 95.8444L121.947 95.8364Z" fill="#276288"/>
<path opacity="0.5" d="M118.917 93.7628C118.38 93.7607 117.189 93.6216 115.59 97.4372C114.03 101.176 114.952 105.214 115.699 106.192C116.446 107.17 117.131 107.981 117.131 107.981L117.776 107.013C117.776 107.013 116.331 103.726 116.131 101.841C115.952 100.095 116.133 97.7752 118.917 93.7628Z" fill="#14465D"/>
<path d="M125.959 123.637L120.386 132.013C120.106 132.434 119.537 132.549 119.116 132.269L116.457 130.499C115.901 130.129 115.749 129.375 116.119 128.82C116.304 128.542 116.584 128.362 116.888 128.3C117.192 128.239 117.52 128.297 117.798 128.482L119.387 130.089L124.379 122.586C124.659 122.165 125.227 122.051 125.648 122.331L125.704 122.368C126.125 122.648 126.239 123.216 125.959 123.637Z" fill="#040000"/>
<path d="M118.972 118.988L113.399 127.365C113.119 127.786 112.55 127.9 112.129 127.62L109.469 125.85C108.914 125.48 108.762 124.727 109.132 124.171C109.317 123.893 109.597 123.713 109.901 123.652C110.205 123.591 110.533 123.649 110.811 123.833L112.4 125.44L117.392 117.937C117.672 117.516 118.24 117.402 118.661 117.682L118.717 117.719C119.138 117.999 119.252 118.567 118.972 118.988Z" fill="#040000"/>
<path d="M138.472 125.49C137.045 127.634 135.055 129.059 132.776 129.799C128.799 131.093 123.926 130.291 119.575 127.534C119.44 127.444 119.305 127.354 119.17 127.264C119.035 127.174 118.9 127.085 118.765 126.995C114.546 124.039 111.924 119.854 111.576 115.694C111.378 113.306 111.923 110.92 113.35 108.776C115.584 105.417 119.357 103.586 123.457 103.45C123.457 103.45 124.35 102.108 124.719 101.552C128.079 96.5025 134.177 95.1189 138.6 98.0613C143.022 101.004 144.107 107.155 140.742 112.213C140.378 112.761 139.484 113.759 139.357 113.777C139.456 113.991 139.493 114.108 139.493 114.108C140.946 117.95 140.719 122.129 138.48 125.495L138.472 125.49Z" fill="#4E90CD"/>
<path d="M130.493 104.443C131.467 105.091 132.781 104.827 133.429 103.853C134.076 102.88 133.812 101.566 132.839 100.918C131.865 100.27 130.551 100.534 129.903 101.508C129.256 102.481 129.52 103.796 130.493 104.443Z" fill="white"/>
<path d="M125.17 102.459C124.124 101.913 123.038 100.033 123.506 99.1412C123.973 98.2494 126.134 98.0834 127.179 98.6299C128.224 99.1765 128.762 100.21 128.068 101.547C127.373 102.883 126.21 103.014 125.164 102.467L125.17 102.459Z" fill="#DFB820"/>
<path opacity="0.5" d="M140.421 99.6626C140.421 99.6626 140.888 103.936 140.429 105.968C139.884 108.389 138.68 110.234 137.972 110.988C136.362 112.701 134.633 113.475 134.633 113.475L137.412 115.324C137.412 115.324 139.48 114.11 140.742 112.213C141.925 110.434 142.875 108.042 142.685 105.178C142.612 104.03 142.2 101.637 140.421 99.6626Z" fill="#2B5E84"/>
<path opacity="0.5" d="M134.568 117.257C134.568 117.257 134.432 122.402 129.904 124.921C126.787 126.662 123.833 126.816 118.304 126.585C128.503 134.344 136.223 128.439 137.964 126.252C138.53 125.54 134.568 117.257 134.568 117.257Z" fill="#2B5E84"/>
<path d="M140.502 115.329L145.157 124.291C146.291 126.477 145.399 128.92 143.384 129.125C140.234 129.435 135.933 128.875 133.593 124.386C131.643 120.638 132.565 117.013 134.002 114.303C135.354 111.755 138.93 112.336 140.496 115.337L140.502 115.329Z" fill="#276288"/>
<path opacity="0.5" d="M128.357 100.044C128.357 100.044 127.929 100.481 127.43 100.939C126.883 101.434 126.182 101.54 125.679 101.401C125.028 101.208 124.563 101.116 123.655 100.673C124.055 101.534 124.654 102.185 125.178 102.464C126.297 103.072 127.162 102.719 127.656 102.166C128.626 101.07 128.365 100.049 128.365 100.049L128.357 100.044Z" fill="#9A7D26"/>
<path opacity="0.5" d="M134.631 113.462C133.626 114.42 132.819 116.976 132.649 118.076C132.241 120.772 132.688 123.44 134.306 125.536C135.942 127.656 138.266 128.778 140.226 129.051C142.165 129.322 143.379 129.099 143.379 129.099C143.379 129.099 139.781 127.827 137.967 126.231C136.154 124.635 134.482 121.965 134.237 119.339C133.991 116.713 134.36 115.263 134.628 113.448L134.631 113.462Z" fill="#14465D"/>
<path d="M131.043 103.618C131.56 103.962 132.259 103.821 132.603 103.304C132.947 102.787 132.807 102.088 132.29 101.744C131.772 101.399 131.074 101.54 130.729 102.057C130.385 102.575 130.525 103.273 131.043 103.618Z" fill="#040000"/>
</g>
<path d="M58.3111 47.751L53.8247 44.7661L54.3143 44.0302L55.1055 44.5566C55.3983 44.7514 55.6697 44.6695 55.9171 44.2976L59.7865 38.4819C59.9444 38.2445 59.9021 38.0337 59.6568 37.8705L58.7943 37.2967L59.2839 36.5608C60.5816 37.4242 61.5413 37.7317 62.1605 37.4702L62.9992 38.0282L57.9348 45.64C57.6874 46.0119 57.7087 46.2886 57.9936 46.4782L58.8086 47.0204L58.319 47.7563L58.3111 47.751Z" fill="#5D668D" stroke="#7595C4" stroke-width="0.38504" stroke-miterlimit="10"/>
<path d="M68.9395 48.5213C68.0182 49.906 67.0121 50.8348 65.9398 51.2971C64.8753 51.7646 63.8578 51.6812 62.9162 51.0547C61.9746 50.4282 61.4967 49.5167 61.5035 48.3226C61.4997 47.1444 61.9625 45.8655 62.8785 44.4888C63.7945 43.112 64.7242 42.2466 65.7465 41.7738C66.8741 41.2456 67.9364 41.3131 68.9413 41.9817C69.9462 42.6503 70.4189 43.6041 70.3594 44.843C70.3025 45.958 69.8291 47.1841 68.9395 48.5213ZM66.9772 47.2158C68.5249 44.8895 68.9506 43.4947 68.2543 43.0314C67.558 42.5682 66.436 43.4997 64.8883 45.8259C63.3405 48.1522 62.9043 49.5628 63.6006 50.0261C64.2969 50.4894 65.4189 49.5579 66.9772 47.2158Z" fill="#5D668D" stroke="#7595C4" stroke-width="0.38504" stroke-miterlimit="10"/>
<path d="M75.8945 53.1488C74.9733 54.5335 73.9672 55.4623 72.8948 55.9245C71.8304 56.3921 70.8128 56.3086 69.8713 55.6822C68.9297 55.0557 68.4517 54.1441 68.4585 52.9501C68.4548 51.7718 68.9176 50.493 69.8336 49.1162C70.7496 47.7395 71.6792 46.874 72.7015 46.4013C73.8292 45.8731 74.8915 45.9406 75.8964 46.6092C76.9013 47.2778 77.374 48.2315 77.3145 49.4705C77.2576 50.5855 76.7842 51.8116 75.8945 53.1488ZM73.9243 51.838C75.4721 49.5117 75.8978 48.1169 75.2015 47.6536C74.5052 47.1904 73.3832 48.1219 71.8354 50.4482C70.2877 52.7744 69.8514 54.185 70.5477 54.6483C71.244 55.1116 72.366 54.1801 73.9243 51.838Z" fill="#5D668D" stroke="#7595C4" stroke-width="0.38504" stroke-miterlimit="10"/>
<path d="M82.8417 57.771C81.9204 59.1557 80.9144 60.0844 79.842 60.5467C78.7775 61.0142 77.76 60.9308 76.8184 60.3044C75.8768 59.6779 75.3989 58.7663 75.4057 57.5723C75.402 56.394 75.8647 55.1152 76.7807 53.7384C77.6967 52.3617 78.6264 51.4962 79.6487 51.0235C80.7763 50.4952 81.8387 50.5628 82.8436 51.2314C83.8484 51.9 84.3211 52.8537 84.2617 54.0926C84.2047 55.2077 83.7314 56.4338 82.8417 57.771ZM80.8794 56.4654C82.4271 54.1391 82.8529 52.7444 82.1566 52.2811C81.4603 51.8178 80.3382 52.7493 78.7905 55.0756C77.2427 57.4019 76.8065 58.8125 77.5028 59.2757C78.1991 59.739 79.3211 58.8075 80.8794 56.4654Z" fill="#5D668D" stroke="#7595C4" stroke-width="0.38504" stroke-miterlimit="10"/>
<path d="M89.7888 62.3931C88.8675 63.7778 87.8615 64.7066 86.7891 65.1688C85.7247 65.6364 84.7071 65.553 83.7655 64.9265C82.824 64.3 82.346 63.3884 82.3528 62.1944C82.3491 61.0162 82.8118 59.7373 83.7279 58.3605C84.6439 56.9838 85.5735 56.1183 86.5958 55.6456C87.7235 55.1174 88.7858 55.1849 89.7907 55.8535C90.7956 56.5221 91.2683 57.4758 91.2088 58.7148C91.1518 59.8298 90.6785 61.0559 89.7888 62.3931ZM87.8265 61.0875C89.3743 58.7613 89.8 57.3665 89.1037 56.9032C88.4074 56.4399 87.2854 57.3714 85.7376 59.6977C84.1899 62.024 83.7536 63.4346 84.4499 63.8979C85.1462 64.3611 86.2682 63.4296 87.8265 61.0875Z" fill="#5D668D" stroke="#7595C4" stroke-width="0.38504" stroke-miterlimit="10"/>
<path d="M58.187 87.9466L57.3717 89.1719C56.8756 89.9176 56.3327 90.371 55.7429 90.5323C55.1532 90.6935 54.5595 90.5754 53.9619 90.1778C53.3643 89.7802 53.026 89.2782 52.9469 88.672C52.8733 88.0693 53.0845 87.3952 53.5806 86.6496L54.3958 85.4242C54.8883 84.6841 55.4294 84.2334 56.0192 84.0721C56.6089 83.9109 57.1999 84.0272 57.792 84.4212C58.3896 84.8188 58.7279 85.3207 58.807 85.927C58.8861 86.5333 58.6794 87.2065 58.187 87.9466ZM57.4633 87.4651C57.8427 86.8949 58.0121 86.4144 57.9715 86.0236C57.9365 85.6365 57.7325 85.3189 57.3597 85.0708C56.9924 84.8264 56.6207 84.761 56.2445 84.8746C55.8739 84.9918 55.4989 85.3355 55.1195 85.9057L54.3043 87.1311C53.9286 87.6958 53.7546 88.1772 53.7823 88.5753C53.8192 88.9716 54.0214 89.2919 54.3887 89.5363C54.7615 89.7844 55.135 89.847 55.5093 89.7243C55.8928 89.5998 56.2723 89.2551 56.648 88.6905L57.4633 87.4651Z" fill="#9A8277"/>
<path d="M53.1435 84.591L52.3283 85.8164C51.8322 86.562 51.2893 87.0154 50.6995 87.1767C50.1097 87.338 49.516 87.2198 48.9184 86.8222C48.3208 86.4246 47.9825 85.9227 47.9034 85.3164C47.8298 84.7137 48.041 84.0396 48.5371 83.294L49.3524 82.0687C49.8448 81.3285 50.3859 80.8778 50.9757 80.7166C51.5655 80.5553 52.1564 80.6716 52.7485 81.0656C53.3461 81.4632 53.6845 81.9651 53.7635 82.5714C53.8426 83.1777 53.636 83.8509 53.1435 84.591ZM52.4198 84.1095C52.7992 83.5394 52.9686 83.0589 52.9281 82.6681C52.893 82.2809 52.6891 81.9633 52.3163 81.7153C51.9489 81.4709 51.5772 81.4055 51.2011 81.519C50.8304 81.6363 50.4554 81.98 50.0761 82.5502L49.2608 83.7755C48.8851 84.3402 48.7111 84.8216 48.7389 85.2197C48.7758 85.616 48.9779 85.9364 49.3452 86.1807C49.718 86.4288 50.0916 86.4915 50.4659 86.3687C50.8493 86.2442 51.2289 85.8996 51.6046 85.3349L52.4198 84.1095Z" fill="#9A8277"/>
<path d="M48.0999 81.2355L47.2847 82.4608C46.7886 83.2064 46.2457 83.6599 45.6559 83.8211C45.0661 83.9824 44.4725 83.8642 43.8749 83.4666C43.2773 83.069 42.9389 82.5671 42.8598 81.9608C42.7862 81.3582 42.9975 80.684 43.4935 79.9384L44.3088 78.7131C44.8012 77.9729 45.3423 77.5222 45.9321 77.361C46.5219 77.1997 47.1128 77.3161 47.7049 77.71C48.3025 78.1076 48.6409 78.6095 48.72 79.2158C48.7991 79.8221 48.5924 80.4953 48.0999 81.2355ZM47.3763 80.754C47.7556 80.1838 47.925 79.7033 47.8845 79.3125C47.8494 78.9253 47.6455 78.6077 47.2727 78.3597C46.9054 78.1153 46.5336 78.0499 46.1575 78.1635C45.7869 78.2807 45.4119 78.6244 45.0325 79.1946L44.2172 80.4199C43.8415 80.9846 43.6675 81.466 43.6953 81.8641C43.7322 82.2604 43.9343 82.5808 44.3016 82.8252C44.6745 83.0732 45.048 83.1359 45.4223 83.0132C45.8057 82.8886 46.1853 82.544 46.561 81.9793L47.3763 80.754Z" fill="#9A8277"/>
<path d="M43.0566 77.8799L42.2414 79.1052C41.7453 79.8508 41.2023 80.3043 40.6126 80.4655C40.0228 80.6268 39.4291 80.5086 38.8315 80.111C38.2339 79.7134 37.8956 79.2115 37.8165 78.6052C37.7429 78.0026 37.9541 77.3284 38.4502 76.5828L39.2655 75.3575C39.7579 74.6174 40.299 74.1667 40.8888 74.0054C41.4786 73.8441 42.0695 73.9605 42.6616 74.3544C43.2592 74.752 43.5975 75.254 43.6766 75.8602C43.7557 76.4665 43.549 77.1397 43.0566 77.8799ZM42.3329 77.3984C42.7123 76.8282 42.8817 76.3477 42.8412 75.9569C42.8061 75.5697 42.6022 75.2521 42.2293 75.0041C41.862 74.7597 41.4903 74.6943 41.1142 74.8079C40.7435 74.9251 40.3685 75.2688 39.9892 75.839L39.1739 77.0643C38.7982 77.629 38.6242 78.1104 38.652 78.5086C38.6889 78.9048 38.891 79.2252 39.2583 79.4696C39.6311 79.7176 40.0047 79.7803 40.379 79.6576C40.7624 79.533 41.142 79.1884 41.5177 78.6237L42.3329 77.3984Z" fill="#9A8277"/>
<path d="M36.7207 71.6356L38.5672 71.749L39.2169 72.1813L35.4963 77.7734L34.7972 77.3083L38.0145 72.4728L36.672 72.3863L36.7207 71.6356Z" fill="#9A8277"/>
<path opacity="0.77" d="M79.2329 89.4797L106.162 100.984C107.329 101.481 108.244 102.435 108.683 103.628L117.452 127.271L71.1452 101.636L79.2329 89.4797Z" fill="#074166"/>
<g opacity="0.78">
<path d="M97.7441 97.3306C102.548 100.527 109.033 99.2234 112.229 94.4197C115.425 89.616 114.122 83.131 109.318 79.9349C104.514 76.7389 98.0293 78.0421 94.8333 82.8458C91.6372 87.6495 92.9405 94.1345 97.7441 97.3306Z" fill="#276AA1"/>
<path d="M109.839 84.6676C107.963 83.8035 108.727 86.0608 107.837 86.5818C106.947 87.1028 104.663 88.6041 105.864 90.1848C107.074 91.7717 109.469 91.2983 110.827 90.1741C112.184 89.05 111.716 85.5318 109.839 84.6676Z" fill="#5CB55B"/>
<path d="M106.934 96.0646C106.471 94.988 103.66 95.6086 103.109 95.4011C100.982 94.5953 98.0799 93.1416 97.98 94.2676C97.88 95.3937 99.6684 97.0871 102.698 97.8308C104.902 98.3826 107.388 97.135 106.934 96.0646Z" fill="#5CB55B"/>
<path d="M95.3667 90.886C95.7122 90.6256 95.2249 89.6653 95.2461 89.4542C95.3402 88.6157 95.59 87.4437 95.1739 87.5114C94.7579 87.579 94.3211 88.375 94.3313 89.5346C94.3413 90.376 95.0151 91.1556 95.3576 90.8799L95.3667 90.886Z" fill="#5CB55B"/>
<path d="M100.061 84.9061C100.693 83.5379 103.536 84.6214 102.803 82.7955C102.656 82.4193 100.765 82.0753 99.9275 82.9756C99.3865 83.5697 99.7432 85.5826 100.052 84.9L100.061 84.9061Z" fill="#5CB55B"/>
<path d="M98.1316 89.678C102.084 88.3985 98.6794 93.1165 103.617 92.4664C104.648 92.3308 105.664 85.5068 102.619 85.323C100.63 85.2055 96.174 90.3101 98.1316 89.678Z" fill="#5CB55B"/>
<path d="M97.1739 99.5615C88.6657 93.6887 89.3848 87.171 92.5098 81.7372C95.1155 77.2034 100.33 74.5642 105.819 74.9967L105.608 78.54" stroke="#124E77" stroke-width="2.89032" stroke-linecap="round" stroke-linejoin="round"/>
<path d="M98.8379 99.4925L96.4296 98.4194C95.3833 97.9532 94.1572 98.4234 93.691 99.4697C93.2248 100.516 93.6951 101.742 94.7413 102.208L97.1496 103.281C98.1959 103.748 99.422 103.277 99.8882 102.231C100.354 101.185 99.8841 99.9587 98.8379 99.4925Z" fill="#124E77"/>
</g>
<path d="M153.562 148.543L74.8008 96.1409L69.0731 104.75L147.834 157.152L153.562 148.543Z" fill="url(#paint1_linear_789_14304)"/>
<path d="M160.044 105.372C159.958 105.502 159.922 105.631 159.935 105.759C159.95 105.886 160.011 105.985 160.119 106.057C160.22 106.124 160.329 106.141 160.444 106.107C160.561 106.073 160.661 105.994 160.744 105.869C160.83 105.741 160.865 105.614 160.851 105.488C160.838 105.364 160.779 105.266 160.673 105.196C160.571 105.128 160.46 105.11 160.341 105.142C160.223 105.175 160.124 105.252 160.044 105.372ZM160.29 104.927C160.396 104.891 160.496 104.878 160.591 104.888C160.685 104.897 160.773 104.929 160.856 104.984C161.022 105.095 161.122 105.252 161.155 105.455C161.188 105.658 161.144 105.852 161.022 106.036C160.894 106.228 160.732 106.348 160.537 106.397C160.342 106.445 160.156 106.411 159.98 106.293C159.772 106.155 159.66 105.962 159.644 105.713C159.629 105.464 159.714 105.202 159.897 104.927C160.136 104.568 160.42 104.341 160.75 104.246C161.08 104.151 161.397 104.204 161.7 104.405C161.802 104.473 161.865 104.526 161.888 104.562C161.911 104.599 161.908 104.638 161.881 104.679C161.836 104.747 161.751 104.74 161.625 104.659C161.542 104.605 161.472 104.567 161.416 104.543C161.228 104.464 161.037 104.458 160.841 104.524C160.648 104.591 160.464 104.725 160.29 104.927Z" fill="#95282D"/>
<path d="M159.024 104.202C158.919 104.237 158.82 104.249 158.727 104.24C158.635 104.23 158.547 104.198 158.465 104.143C158.298 104.032 158.197 103.875 158.163 103.672C158.131 103.469 158.175 103.277 158.297 103.094C158.424 102.902 158.585 102.781 158.78 102.732C158.976 102.683 159.161 102.716 159.336 102.833C159.543 102.971 159.655 103.165 159.67 103.416C159.687 103.666 159.604 103.929 159.421 104.203C159.18 104.565 158.895 104.793 158.565 104.886C158.237 104.978 157.917 104.921 157.607 104.715C157.509 104.649 157.448 104.598 157.425 104.562C157.403 104.526 157.406 104.488 157.432 104.448C157.477 104.38 157.564 104.387 157.692 104.467C157.776 104.52 157.846 104.558 157.901 104.581C158.088 104.662 158.279 104.669 158.472 104.602C158.667 104.537 158.851 104.403 159.024 104.202ZM159.273 103.755C159.361 103.624 159.396 103.495 159.381 103.367C159.367 103.239 159.306 103.139 159.198 103.068C159.096 103 158.987 102.983 158.873 103.018C158.758 103.053 158.659 103.133 158.576 103.257C158.491 103.386 158.454 103.513 158.466 103.639C158.48 103.763 158.538 103.86 158.643 103.93C158.745 103.998 158.856 104.016 158.975 103.984C159.095 103.951 159.194 103.875 159.273 103.755Z" fill="#95282D"/>
<path d="M156.148 102.779C156.061 102.909 156.025 103.038 156.039 103.166C156.053 103.293 156.114 103.392 156.222 103.464C156.323 103.532 156.432 103.548 156.548 103.514C156.664 103.48 156.764 103.401 156.847 103.277C156.933 103.148 156.969 103.021 156.955 102.896C156.941 102.771 156.882 102.674 156.776 102.603C156.674 102.535 156.563 102.517 156.444 102.549C156.327 102.582 156.228 102.659 156.148 102.779ZM156.393 102.335C156.499 102.299 156.6 102.285 156.694 102.295C156.788 102.304 156.876 102.336 156.959 102.391C157.126 102.502 157.225 102.659 157.258 102.862C157.292 103.066 157.247 103.259 157.125 103.443C156.997 103.635 156.836 103.756 156.64 103.804C156.445 103.852 156.259 103.818 156.083 103.701C155.875 103.562 155.763 103.369 155.747 103.12C155.733 102.872 155.817 102.61 156 102.334C156.239 101.975 156.524 101.748 156.853 101.654C157.183 101.558 157.5 101.611 157.803 101.813C157.906 101.881 157.968 101.933 157.991 101.97C158.014 102.006 158.012 102.045 157.984 102.086C157.939 102.154 157.854 102.147 157.728 102.066C157.645 102.013 157.575 101.974 157.519 101.951C157.331 101.871 157.14 101.865 156.945 101.932C156.751 101.998 156.567 102.132 156.393 102.335Z" fill="#95282D"/>
<path d="M155.127 101.609C155.022 101.644 154.923 101.657 154.83 101.647C154.738 101.637 154.65 101.605 154.568 101.55C154.401 101.439 154.301 101.282 154.266 101.08C154.234 100.877 154.278 100.684 154.4 100.501C154.528 100.309 154.689 100.188 154.883 100.139C155.079 100.09 155.264 100.123 155.44 100.24C155.647 100.378 155.758 100.572 155.774 100.823C155.79 101.073 155.707 101.336 155.524 101.61C155.283 101.973 154.998 102.2 154.668 102.293C154.34 102.385 154.02 102.328 153.71 102.122C153.612 102.056 153.551 102.006 153.528 101.969C153.506 101.933 153.509 101.895 153.536 101.855C153.581 101.787 153.667 101.794 153.795 101.874C153.88 101.928 153.949 101.966 154.004 101.989C154.192 102.069 154.382 102.076 154.575 102.01C154.77 101.944 154.954 101.811 155.127 101.609ZM155.377 101.163C155.464 101.032 155.499 100.902 155.484 100.775C155.47 100.647 155.409 100.547 155.302 100.475C155.199 100.407 155.091 100.39 154.976 100.425C154.861 100.46 154.762 100.54 154.68 100.665C154.594 100.793 154.557 100.921 154.57 101.046C154.583 101.171 154.642 101.268 154.746 101.337C154.849 101.405 154.959 101.423 155.078 101.391C155.198 101.358 155.297 101.282 155.377 101.163Z" fill="#95282D"/>
<path d="M152.159 100.228C152.084 100.34 152.059 100.454 152.082 100.57C152.107 100.687 152.177 100.784 152.293 100.861C152.41 100.939 152.526 100.968 152.641 100.947C152.757 100.926 152.852 100.86 152.926 100.748C152.999 100.638 153.022 100.526 152.996 100.41C152.969 100.294 152.899 100.198 152.785 100.122C152.672 100.047 152.557 100.019 152.441 100.039C152.324 100.057 152.231 100.121 152.159 100.228ZM152.803 99.2948C152.733 99.3994 152.711 99.5077 152.735 99.6199C152.761 99.7328 152.827 99.8251 152.935 99.8968C153.044 99.9691 153.154 99.9949 153.267 99.974C153.382 99.9528 153.475 99.8894 153.545 99.7838C153.612 99.6824 153.633 99.5758 153.607 99.464C153.582 99.3518 153.516 99.2595 153.407 99.1871C153.298 99.1148 153.187 99.089 153.075 99.1099C152.962 99.1297 152.872 99.1913 152.803 99.2948ZM152.546 99.7937C152.478 99.6749 152.443 99.5597 152.443 99.4482C152.443 99.3356 152.477 99.2276 152.546 99.1241C152.655 98.9604 152.803 98.8653 152.99 98.8387C153.177 98.8111 153.362 98.8581 153.545 98.9796C153.725 99.0991 153.839 99.2513 153.888 99.4363C153.937 99.6213 153.911 99.7898 153.81 99.9419C153.735 100.055 153.646 100.134 153.543 100.178C153.44 100.222 153.319 100.234 153.178 100.214C153.256 100.328 153.296 100.447 153.296 100.569C153.298 100.691 153.261 100.808 153.186 100.921C153.07 101.095 152.915 101.197 152.722 101.227C152.529 101.257 152.338 101.209 152.147 101.082C151.955 100.954 151.837 100.796 151.791 100.605C151.746 100.415 151.782 100.232 151.899 100.056C151.971 99.9478 152.063 99.8712 152.175 99.8257C152.289 99.7792 152.412 99.7685 152.546 99.7937Z" fill="#95282D"/>
<path d="M150.211 98.932C150.136 99.0439 150.111 99.1579 150.134 99.274C150.158 99.3908 150.229 99.4878 150.345 99.5651C150.462 99.6431 150.578 99.6715 150.693 99.6502C150.808 99.6297 150.903 99.5635 150.978 99.4516C151.051 99.3417 151.074 99.2292 151.047 99.1138C151.021 98.9974 150.951 98.9012 150.837 98.8253C150.724 98.7502 150.609 98.7225 150.492 98.7423C150.376 98.761 150.282 98.8243 150.211 98.932ZM150.855 97.9984C150.785 98.103 150.762 98.2113 150.787 98.3235C150.812 98.4365 150.879 98.5287 150.987 98.6004C151.095 98.6728 151.206 98.6985 151.319 98.6777C151.434 98.6565 151.526 98.593 151.596 98.4874C151.664 98.3861 151.685 98.2794 151.658 98.1676C151.634 98.0554 151.567 97.9631 151.459 97.8907C151.35 97.8184 151.239 97.7926 151.126 97.8135C151.014 97.8333 150.923 97.8949 150.855 97.9984ZM150.598 98.4973C150.529 98.3785 150.495 98.2633 150.494 98.1518C150.495 98.0392 150.529 97.9312 150.598 97.8277C150.707 97.664 150.855 97.5689 151.041 97.5423C151.229 97.5147 151.414 97.5617 151.597 97.6832C151.776 97.8027 151.891 97.9549 151.94 98.1399C151.989 98.3249 151.963 98.4934 151.861 98.6455C151.786 98.7585 151.697 98.8372 151.595 98.8816C151.492 98.926 151.37 98.9381 151.23 98.9178C151.308 99.0321 151.347 99.1504 151.348 99.2729C151.35 99.3942 151.313 99.5114 151.238 99.6244C151.122 99.7987 150.967 99.9006 150.773 99.9304C150.581 99.9608 150.389 99.9124 150.198 99.7853C150.007 99.6581 149.889 99.4994 149.843 99.3091C149.798 99.1188 149.833 98.9355 149.951 98.7591C150.022 98.6514 150.115 98.5748 150.227 98.5293C150.34 98.4828 150.464 98.4721 150.598 98.4973Z" fill="#95282D"/>
<path d="M148.329 98.4208C148.304 98.4406 148.285 98.4517 148.273 98.4541C148.261 98.4566 148.244 98.4512 148.224 98.4378L148.197 98.4199L148.085 98.3451C148.064 98.331 148.05 98.3156 148.043 98.2987C148.037 98.2825 148.039 98.267 148.048 98.2522C148.054 98.2438 148.06 98.2362 148.066 98.2295C148.074 98.2225 148.083 98.2147 148.093 98.2063L149.84 96.9303L149.035 96.3949C148.999 96.4424 148.963 96.472 148.928 96.4837C148.894 96.4943 148.858 96.4872 148.821 96.4627C148.785 96.4388 148.764 96.4119 148.758 96.382C148.753 96.3528 148.763 96.3192 148.789 96.2812C148.796 96.2706 148.801 96.2627 148.804 96.2574C148.809 96.2528 148.813 96.2488 148.817 96.2453L148.928 96.1132C148.951 96.0858 148.976 96.0701 149.005 96.0662C149.034 96.063 149.065 96.0719 149.097 96.093L150.144 96.7897C150.174 96.81 150.192 96.8317 150.196 96.8545C150.203 96.877 150.196 96.9025 150.178 96.931L150.142 96.9849C150.133 96.9976 150.119 97.0127 150.1 97.0303C150.081 97.0469 150.055 97.0687 150.02 97.0958L148.329 98.4208Z" fill="#95282D"/>
<path d="M146.381 97.1246C146.356 97.1443 146.337 97.1554 146.325 97.1578C146.312 97.1603 146.296 97.1549 146.276 97.1415L146.249 97.1236L146.137 97.0488C146.116 97.0347 146.102 97.0193 146.094 97.0024C146.088 96.9862 146.09 96.9707 146.1 96.956C146.106 96.9475 146.112 96.9399 146.118 96.9332C146.125 96.9262 146.134 96.9185 146.145 96.91L147.892 95.634L147.087 95.0986C147.051 95.1462 147.015 95.1757 146.98 95.1874C146.945 95.198 146.91 95.191 146.873 95.1664C146.837 95.1425 146.816 95.1156 146.81 95.0857C146.805 95.0565 146.815 95.0229 146.84 94.9849C146.847 94.9743 146.853 94.9664 146.856 94.9611C146.861 94.9565 146.865 94.9525 146.869 94.949L146.979 94.8169C147.002 94.7895 147.028 94.7738 147.056 94.7699C147.086 94.7667 147.117 94.7757 147.148 94.7967L148.195 95.4934C148.226 95.5137 148.244 95.5354 148.248 95.5582C148.255 95.5807 148.248 95.6062 148.229 95.6348L148.193 95.6886C148.185 95.7013 148.171 95.7164 148.152 95.734C148.133 95.7506 148.106 95.7724 148.072 95.7995L146.381 97.1246Z" fill="#95282D"/>
<path d="M144.601 94.8159L145.249 95.247L145.467 94.1808L144.601 94.8159ZM145.241 94.0301L145.009 93.8763C144.945 93.8334 144.905 93.7947 144.89 93.7603C144.877 93.7255 144.884 93.6875 144.911 93.6463C144.94 93.603 144.971 93.5808 145.003 93.5797C145.038 93.5783 145.106 93.6113 145.207 93.6787L145.658 93.9791C145.717 94.0177 145.75 94.0516 145.76 94.0808C145.771 94.1097 145.772 94.1503 145.761 94.2027L145.351 96.1624L145.378 96.1803C145.435 96.2183 145.468 96.2522 145.479 96.2821C145.49 96.312 145.481 96.3475 145.454 96.3887C145.425 96.432 145.395 96.4554 145.364 96.459C145.333 96.4615 145.29 96.4444 145.235 96.4079L144.805 96.1212C144.724 96.0678 144.678 96.0255 144.665 95.9942C144.654 95.9625 144.663 95.9251 144.692 95.8818C144.719 95.8416 144.749 95.8217 144.784 95.8221C144.821 95.822 144.873 95.8448 144.942 95.8905L145.089 95.9885L145.187 95.5093L144.382 94.9739L143.995 95.2603L144.148 95.3625C144.218 95.4089 144.26 95.4489 144.274 95.4827C144.289 95.5154 144.283 95.5518 144.256 95.5919C144.227 95.6352 144.196 95.6576 144.161 95.659C144.129 95.6601 144.074 95.635 143.997 95.5837L143.58 95.3066C143.512 95.2616 143.473 95.2238 143.461 95.1932C143.45 95.1616 143.459 95.1241 143.488 95.0808C143.515 95.0396 143.546 95.0185 143.578 95.0174C143.611 95.0163 143.659 95.0368 143.722 95.079L143.752 95.099L145.241 94.0301Z" fill="#95282D"/>
<path d="M142.653 93.5198L143.3 93.9508L143.518 92.8847L142.653 93.5198ZM143.292 92.734L143.061 92.5801C142.996 92.5372 142.957 92.4986 142.941 92.4641C142.928 92.4293 142.935 92.3913 142.962 92.3501C142.991 92.3068 143.022 92.2846 143.055 92.2835C143.089 92.2821 143.157 92.3151 143.258 92.3826L143.71 92.6829C143.768 92.7216 143.802 92.7555 143.811 92.7847C143.823 92.8135 143.823 92.8541 143.812 92.9066L143.402 94.8663L143.429 94.8842C143.486 94.9221 143.52 94.956 143.53 94.9859C143.541 95.0158 143.533 95.0514 143.505 95.0925C143.476 95.1358 143.446 95.1593 143.415 95.1628C143.384 95.1653 143.342 95.1483 143.287 95.1117L142.856 94.8251C142.776 94.7717 142.729 94.7293 142.717 94.698C142.706 94.6664 142.715 94.6289 142.743 94.5856C142.77 94.5455 142.801 94.5256 142.836 94.5259C142.872 94.5259 142.925 94.5487 142.993 94.5943L143.141 94.6924L143.238 94.2131L142.433 93.6777L142.046 93.9641L142.2 94.0663C142.27 94.1127 142.311 94.1528 142.326 94.1865C142.34 94.2192 142.334 94.2556 142.308 94.2958C142.279 94.3391 142.247 94.3614 142.213 94.3629C142.18 94.364 142.125 94.3389 142.048 94.2876L141.631 94.0104C141.564 93.9654 141.524 93.9276 141.513 93.8971C141.502 93.8654 141.511 93.8279 141.539 93.7846C141.567 93.7434 141.597 93.7223 141.63 93.7212C141.662 93.7201 141.71 93.7407 141.774 93.7828L141.804 93.8029L143.292 92.734Z" fill="#95282D"/>
<path opacity="0.55" d="M179.77 105.755L171.011 99.9269L135.381 153.479L144.141 159.306L179.77 105.755Z" fill="#5B7F8E"/>
<path opacity="0.74" d="M50.1686 56.2486L49.0767 55.5221L45.6337 60.6969L46.7256 61.4234L50.1686 56.2486Z" fill="url(#paint2_linear_789_14304)"/>
<path opacity="0.18" d="M180.965 106.55L88.2386 44.8555L52.6089 98.4072L145.335 160.101L180.965 106.55Z" fill="#8698B0"/>
<path opacity="0.14" d="M102.381 54.6875L100.53 53.4556L64.9 107.007L66.7515 108.239L102.381 54.6875Z" fill="url(#paint3_linear_789_14304)"/>
<path d="M183.567 97.89L36.5793 51.3821L16.5905 114.557L163.578 161.065L183.567 97.89Z" fill="#9FC1D6"/>
<g opacity="0.88">
<path d="M119.477 103.298L131.654 116.27C131.654 116.27 123.086 122.637 116.686 115.831C112.896 111.788 113.143 106.61 114.419 103.521C115.216 101.589 117.705 101.408 119.474 103.307L119.477 103.298Z" fill="#276288"/>
<path opacity="0.5" d="M115.886 102.11C115.354 102.261 114.136 102.463 113.641 106.696C113.164 110.842 115.229 114.576 116.247 115.331C117.265 116.086 118.175 116.694 118.175 116.694L118.537 115.551C118.537 115.551 116.169 112.71 115.433 110.9C114.758 109.224 114.275 106.876 115.886 102.11Z" fill="#14465D"/>
<path d="M131.38 129.672L128.254 139.553C128.097 140.05 127.566 140.325 127.07 140.168L123.932 139.175C123.277 138.968 122.912 138.265 123.119 137.609C123.223 137.282 123.449 137.023 123.732 136.876C124.016 136.729 124.357 136.692 124.685 136.796L126.716 137.933L129.516 129.082C129.674 128.585 130.204 128.31 130.7 128.467L130.766 128.488C131.262 128.645 131.538 129.175 131.38 129.672Z" fill="#040000"/>
<path d="M123.138 127.064L120.011 136.945C119.854 137.442 119.324 137.717 118.827 137.56L115.69 136.567C115.034 136.36 114.669 135.657 114.876 135.001C114.98 134.674 115.206 134.415 115.49 134.268C115.773 134.121 116.115 134.084 116.442 134.188L118.473 135.325L121.274 126.474C121.431 125.977 121.961 125.702 122.458 125.859L122.523 125.88C123.02 126.037 123.295 126.567 123.138 127.064Z" fill="#040000"/>
<path d="M144.295 127.936C143.495 130.465 141.931 132.443 139.886 133.826C136.319 136.242 131.267 136.838 126.173 135.35C126.014 135.3 125.855 135.25 125.695 135.199C125.536 135.149 125.377 135.098 125.218 135.048C120.198 133.326 116.408 129.932 114.877 125.913C114 123.606 113.859 121.088 114.659 118.559C115.913 114.597 119.125 111.708 123.144 110.403C123.144 110.403 123.645 108.82 123.852 108.165C125.737 102.207 131.379 99.0979 136.596 100.749C141.813 102.399 144.642 108.179 142.754 114.145C142.55 114.792 141.95 116.034 141.83 116.089C141.988 116.273 142.058 116.378 142.058 116.378C144.593 119.766 145.561 123.967 144.304 127.939L144.295 127.936Z" fill="#4E90CD"/>
<path d="M130.392 109.379C131.541 109.742 132.766 109.106 133.13 107.957C133.493 106.809 132.857 105.583 131.708 105.22C130.56 104.857 129.334 105.493 128.971 106.641C128.608 107.79 129.244 109.015 130.392 109.379Z" fill="white"/>
<path d="M124.557 108.934C123.366 108.691 121.755 107.14 121.963 106.124C122.171 105.108 124.262 104.327 125.453 104.57C126.644 104.813 127.471 105.683 127.165 107.204C126.859 108.725 125.744 109.186 124.554 108.943L124.557 108.934Z" fill="#DFB820"/>
<path opacity="0.5" d="M138.855 101.814C138.855 101.814 140.537 105.911 140.663 108.053C140.814 110.605 140.148 112.775 139.662 113.724C138.558 115.878 137.067 117.138 137.067 117.138L140.346 118.175C140.346 118.175 142.046 116.384 142.754 114.145C143.418 112.047 143.676 109.408 142.67 106.628C142.271 105.512 141.18 103.26 138.855 101.814Z" fill="#2B5E84"/>
<path opacity="0.5" d="M138.082 120.9C138.082 120.9 139.416 126.031 135.652 129.818C133.063 132.43 130.183 133.425 124.645 134.774C136.954 139.545 142.911 131.496 144.01 128.835C144.367 127.969 138.082 120.9 138.082 120.9Z" fill="#2B5E84"/>
<path d="M143.405 117.298L150.57 124.841C152.317 126.682 152.131 129.354 150.195 130.132C147.165 131.338 142.748 132.011 139.151 128.235C136.151 125.081 136.03 121.23 136.679 118.138C137.29 115.229 140.996 114.784 143.402 117.308L143.405 117.298Z" fill="#276288"/>
<path opacity="0.5" d="M127.023 105.634C127.023 105.634 126.724 106.188 126.36 106.784C125.96 107.43 125.296 107.736 124.759 107.741C124.06 107.736 123.573 107.777 122.548 107.597C123.19 108.336 123.968 108.809 124.566 108.937C125.847 109.218 126.603 108.623 126.934 107.934C127.581 106.573 127.032 105.637 127.032 105.637L127.023 105.634Z" fill="#9A7D26"/>
<path opacity="0.5" d="M137.061 117.125C136.34 118.36 136.271 121.121 136.415 122.259C136.781 125.043 137.985 127.557 140.185 129.17C142.409 130.802 145.029 131.249 147.048 130.96C149.044 130.675 150.182 130.108 150.182 130.108C150.182 130.108 146.257 129.876 144.007 128.813C141.757 127.751 139.34 125.585 138.348 123.056C137.355 120.526 137.307 118.986 137.054 117.113L137.061 117.125Z" fill="#14465D"/>
<path d="M130.701 108.405C131.311 108.598 131.962 108.26 132.156 107.649C132.349 107.039 132.01 106.387 131.4 106.194C130.79 106.001 130.138 106.339 129.945 106.95C129.752 107.56 130.09 108.212 130.701 108.405Z" fill="#040000"/>
</g>
<path d="M42.7665 73.8568L37.4739 72.1822L37.7486 71.3141L38.682 71.6095C39.0274 71.7187 39.2726 71.5602 39.4115 71.1214L41.5822 64.2607C41.6708 63.9807 41.5687 63.7841 41.2794 63.6925L40.2619 63.3706L40.5366 62.5025C42.0674 62.9869 43.1052 63.0174 43.6435 62.5819L44.6329 62.8949L41.7917 71.8746C41.6529 72.3133 41.753 72.5811 42.089 72.6875L43.0505 72.9917L42.7758 73.8598L42.7665 73.8568Z" fill="#5D668D" stroke="#7595C4" stroke-width="0.38504" stroke-miterlimit="10"/>
<path d="M53.5068 71.5868C52.99 73.2203 52.2591 74.4267 51.3295 75.1902C50.4093 75.9567 49.3783 76.1645 48.2675 75.813C47.1567 75.4616 46.4235 74.6956 46.0896 73.5117C45.7497 72.3465 45.8429 70.9486 46.3568 69.3244C46.8706 67.7003 47.544 66.5783 48.421 65.8187C49.3865 64.9741 50.4573 64.7378 51.6428 65.1129C52.8282 65.488 53.5683 66.2972 53.8629 67.5406C54.1247 68.6605 54.006 70.0093 53.5068 71.5868ZM51.1919 70.8543C52.0602 68.11 52.0837 66.6079 51.2623 66.348C50.4408 66.0881 49.596 67.3303 48.7277 70.0746C47.8594 72.8189 47.83 74.3397 48.6514 74.5996C49.4728 74.8595 50.3177 73.6173 51.1919 70.8543Z" fill="#5D668D" stroke="#7595C4" stroke-width="0.38504" stroke-miterlimit="10"/>
<path d="M61.7118 74.1829C61.195 75.8164 60.4641 77.0228 59.5345 77.7863C58.6142 78.5528 57.5832 78.7606 56.4724 78.4091C55.3616 78.0577 54.6285 77.2917 54.2945 76.1078C53.9546 74.9426 54.0478 73.5447 54.5617 71.9205C55.0756 70.2963 55.7489 69.1744 56.6259 68.4148C57.5915 67.5702 58.6623 67.3339 59.8477 67.709C61.0332 68.0841 61.7732 68.8933 62.0679 70.1366C62.3296 71.2566 62.2109 72.6054 61.7118 74.1829ZM59.3876 73.4475C60.2559 70.7032 60.2793 69.2011 59.4579 68.9412C58.6365 68.6813 57.7916 69.9235 56.9233 72.6677C56.055 75.412 56.0256 76.9328 56.847 77.1927C57.6685 77.4526 58.5133 76.2104 59.3876 73.4475Z" fill="#5D668D" stroke="#7595C4" stroke-width="0.38504" stroke-miterlimit="10"/>
<path d="M69.9074 76.776C69.3905 78.4095 68.6597 79.6159 67.7301 80.3794C66.8098 81.1459 65.7788 81.3537 64.668 81.0023C63.5572 80.6508 62.824 79.8848 62.4901 78.7009C62.1502 77.5357 62.2434 76.1378 62.7573 74.5136C63.2712 72.8895 63.9445 71.7676 64.8215 71.0079C65.787 70.1633 66.8578 69.9271 68.0433 70.3022C69.2288 70.6772 69.9688 71.4864 70.2634 72.7298C70.5252 73.8497 70.4065 75.1985 69.9074 76.776ZM67.5924 76.0435C68.4608 73.2992 68.4842 71.7971 67.6628 71.5372C66.8414 71.2773 65.9965 72.5195 65.1282 75.2638C64.2599 78.0081 64.2305 79.5289 65.0519 79.7888C65.8734 80.0487 66.7182 78.8065 67.5924 76.0435Z" fill="#5D668D" stroke="#7595C4" stroke-width="0.38504" stroke-miterlimit="10"/>
<path d="M78.1028 79.3691C77.5859 81.0026 76.8551 82.209 75.9255 82.9725C75.0052 83.739 73.9742 83.9468 72.8634 83.5953C71.7526 83.2439 71.0195 82.4779 70.6855 81.294C70.3456 80.1288 70.4388 78.7309 70.9527 77.1067C71.4666 75.4825 72.1399 74.3606 73.0169 73.601C73.9825 72.7564 75.0533 72.5201 76.2387 72.8952C77.4242 73.2703 78.1642 74.0795 78.4588 75.3228C78.7206 76.4428 78.6019 77.7916 78.1028 79.3691ZM75.7879 78.6366C76.6562 75.8923 76.6796 74.3902 75.8582 74.1303C75.0368 73.8704 74.1919 75.1126 73.3236 77.8569C72.4553 80.6012 72.4259 82.122 73.2474 82.3819C74.0688 82.6418 74.9137 81.3996 75.7879 78.6366Z" fill="#5D668D" stroke="#7595C4" stroke-width="0.38504" stroke-miterlimit="10"/>
<path d="M54.1125 113.68L53.6551 115.126C53.3768 116.005 52.9688 116.609 52.431 116.937C51.8932 117.265 51.2718 117.317 50.5669 117.094C49.8619 116.871 49.3838 116.471 49.1325 115.893C48.8877 115.318 48.9044 114.59 49.1827 113.711L49.6401 112.265C49.9164 111.392 50.3234 110.791 50.8612 110.464C51.3989 110.136 52.0171 110.082 52.7156 110.303C53.4206 110.526 53.8987 110.927 54.15 111.504C54.4013 112.082 54.3888 112.807 54.1125 113.68ZM53.2588 113.41C53.4716 112.737 53.5022 112.214 53.3506 111.838C53.2054 111.465 52.9129 111.209 52.4731 111.07C52.0398 110.933 51.6531 110.974 51.3132 111.194C50.9798 111.415 50.7067 111.863 50.4938 112.535L50.0365 113.981C49.8257 114.647 49.7908 115.173 49.9319 115.559C50.0815 115.941 50.373 116.2 50.8063 116.338C51.2461 116.477 51.6337 116.432 51.9692 116.204C52.3132 115.971 52.5906 115.522 52.8014 114.856L53.2588 113.41Z" fill="#9A8277"/>
<path d="M48.1627 111.798L47.7053 113.243C47.427 114.123 47.0189 114.727 46.4812 115.055C45.9434 115.382 45.322 115.435 44.617 115.212C43.9121 114.989 43.4339 114.588 43.1827 114.011C42.9378 113.435 42.9546 112.708 43.2329 111.828L43.6903 110.383C43.9665 109.509 44.3736 108.909 44.9113 108.581C45.4491 108.253 46.0673 108.2 46.7658 108.421C47.4707 108.644 47.9489 109.044 48.2002 109.622C48.4514 110.199 48.4389 110.925 48.1627 111.798ZM47.3089 111.528C47.5218 110.855 47.5524 110.331 47.4007 109.956C47.2556 109.582 46.9631 109.326 46.5233 109.187C46.0899 109.05 45.7033 109.091 45.3634 109.311C45.03 109.533 44.7568 109.98 44.544 110.653L44.0866 112.098C43.8759 112.764 43.841 113.291 43.9821 113.677C44.1317 114.059 44.4231 114.318 44.8565 114.455C45.2963 114.594 45.6839 114.55 46.0194 114.321C46.3634 114.089 46.6408 113.639 46.8516 112.973L47.3089 111.528Z" fill="#9A8277"/>
<path d="M42.213 109.915L41.7556 111.361C41.4773 112.24 41.0692 112.844 40.5315 113.172C39.9937 113.5 39.3723 113.552 38.6673 113.329C37.9624 113.106 37.4842 112.706 37.2329 112.128C36.9881 111.553 37.0049 110.825 37.2832 109.946L37.7406 108.5C38.0168 107.627 38.4239 107.026 38.9616 106.699C39.4994 106.371 40.1176 106.317 40.8161 106.538C41.521 106.761 41.9992 107.162 42.2504 107.739C42.5017 108.317 42.4892 109.042 42.213 109.915ZM41.3592 109.645C41.5721 108.972 41.6027 108.448 41.451 108.073C41.3059 107.7 41.0134 107.444 40.5736 107.305C40.1402 107.167 39.7536 107.209 39.4137 107.429C39.0803 107.65 38.8071 108.098 38.5943 108.77L38.1369 110.216C37.9262 110.882 37.8913 111.408 38.0324 111.794C38.182 112.176 38.4734 112.435 38.9068 112.573C39.3466 112.712 39.7342 112.667 40.0697 112.439C40.4137 112.206 40.6911 111.757 40.9019 111.091L41.3592 109.645Z" fill="#9A8277"/>
<path d="M36.2631 108.033L35.8058 109.478C35.5275 110.358 35.1194 110.962 34.5816 111.289C34.0439 111.617 33.4225 111.67 32.7175 111.447C32.0125 111.224 31.5344 110.823 31.2831 110.246C31.0383 109.67 31.0551 108.943 31.3334 108.063L31.7907 106.618C32.067 105.744 32.474 105.144 33.0118 104.816C33.5496 104.488 34.1677 104.435 34.8662 104.656C35.5712 104.879 36.0493 105.279 36.3006 105.857C36.5519 106.434 36.5394 107.16 36.2631 108.033ZM35.4094 107.763C35.6222 107.09 35.6528 106.566 35.5012 106.191C35.356 105.817 35.0635 105.561 34.6237 105.422C34.1904 105.285 33.8038 105.326 33.4639 105.546C33.1304 105.768 32.8573 106.215 32.6445 106.888L32.1871 108.333C31.9763 108.999 31.9415 109.526 32.0825 109.912C32.2321 110.293 32.5236 110.553 32.9569 110.69C33.3967 110.829 33.7844 110.785 34.1199 110.556C34.4639 110.324 34.7413 109.874 34.952 109.208L35.4094 107.763Z" fill="#9A8277"/>
<path d="M28.2099 103.66L30.0701 103.245L30.8365 103.487L28.7491 110.084L27.9245 109.823L29.7294 104.119L28.3759 104.416L28.2099 103.66Z" fill="#9A8277"/>
<path opacity="0.77" d="M75.3822 109.193L105.321 112.897C106.617 113.056 107.796 113.739 108.57 114.795L123.997 135.696L70.8448 123.533L75.3822 109.193Z" fill="#074166"/>
<g opacity="0.78">
<path d="M95.946 111.682C101.613 113.475 107.66 110.335 109.453 104.668C111.246 99.0013 108.106 92.9538 102.439 91.1608C96.7723 89.3678 90.7248 92.5081 88.9318 98.175C87.1387 103.842 90.2791 109.889 95.946 111.682Z" fill="#276AA1"/>
<path d="M104.306 95.6968C102.202 95.3768 103.602 97.3933 102.87 98.1628C102.138 98.9324 100.305 101.07 101.945 102.292C103.595 103.518 105.831 102.366 106.854 100.866C107.877 99.3657 106.409 96.0168 104.306 95.6968Z" fill="#5CB55B"/>
<path d="M104.682 107.807C103.916 106.874 101.31 108.29 100.706 108.242C98.3703 108.051 95.0831 107.44 95.3055 108.583C95.5278 109.726 97.7813 110.892 100.993 110.764C103.331 110.682 105.436 108.737 104.682 107.807Z" fill="#5CB55B"/>
<path d="M91.7541 105.981C92.0218 105.625 91.2653 104.814 91.2261 104.599C91.08 103.742 90.9929 102.51 90.6003 102.696C90.2078 102.882 90.0025 103.794 90.3436 104.939C90.5935 105.769 91.4829 106.349 91.7432 105.978L91.7541 105.981Z" fill="#5CB55B"/>
<path d="M94.6944 98.7229C94.9297 97.1882 98.0534 97.4494 96.8069 95.8511C96.5539 95.5208 94.5837 95.7199 94.0116 96.85C93.6455 97.5924 94.573 99.4831 94.6835 98.7195L94.6944 98.7229Z" fill="#5CB55B"/>
<path d="M94.1461 103.997C97.6928 101.603 95.6694 107.244 100.372 105.192C101.353 104.763 100.412 97.7189 97.3456 98.4056C95.3433 98.8568 92.3887 105.181 94.1461 103.997Z" fill="#5CB55B"/>
<path d="M96.0181 114.053C85.9205 110.668 84.7726 104.011 86.3156 97.7406C87.6013 92.5093 92.0097 88.4092 97.5668 87.271L98.369 90.8385" stroke="#124E77" stroke-width="2.9775" stroke-linecap="round" stroke-linejoin="round"/>
<path d="M97.6457 113.51L94.9557 113.135C93.787 112.972 92.7075 113.788 92.5446 114.956C92.3816 116.125 93.1969 117.204 94.3656 117.367L97.0556 117.742C98.2243 117.905 99.3038 117.09 99.4668 115.921C99.6297 114.753 98.8144 113.673 97.6457 113.51Z" fill="#124E77"/>
</g>
<path d="M165.81 146.45L72.8959 117.051L69.6825 127.207L162.596 156.605L165.81 146.45Z" fill="url(#paint4_linear_789_14304)"/>
<path d="M159.909 101.866C159.86 102.02 159.861 102.158 159.911 102.28C159.962 102.402 160.051 102.483 160.178 102.523C160.298 102.561 160.41 102.546 160.515 102.48C160.621 102.413 160.697 102.306 160.743 102.159C160.791 102.007 160.791 101.871 160.741 101.751C160.692 101.632 160.606 101.552 160.481 101.513C160.36 101.475 160.246 101.489 160.137 101.554C160.03 101.62 159.954 101.724 159.909 101.866ZM160.025 101.356C160.12 101.29 160.215 101.249 160.311 101.231C160.407 101.214 160.504 101.22 160.601 101.251C160.798 101.313 160.941 101.44 161.032 101.632C161.123 101.824 161.134 102.028 161.066 102.245C160.994 102.472 160.868 102.637 160.689 102.74C160.51 102.844 160.316 102.863 160.108 102.797C159.862 102.719 159.696 102.56 159.61 102.319C159.524 102.076 159.533 101.793 159.636 101.468C159.77 101.044 159.987 100.739 160.286 100.551C160.586 100.362 160.914 100.324 161.272 100.437C161.393 100.475 161.47 100.509 161.503 100.539C161.536 100.569 161.545 100.608 161.529 100.656C161.504 100.736 161.418 100.754 161.27 100.71C161.172 100.68 161.092 100.662 161.03 100.655C160.822 100.63 160.63 100.678 160.456 100.8C160.283 100.921 160.14 101.106 160.025 101.356Z" fill="#95282D"/>
<path d="M158.565 100.999C158.471 101.064 158.376 101.105 158.282 101.121C158.188 101.138 158.092 101.131 157.995 101.1C157.798 101.038 157.654 100.912 157.562 100.721C157.472 100.529 157.461 100.326 157.529 100.11C157.601 99.8835 157.726 99.7181 157.904 99.6141C158.084 99.5093 158.277 99.4896 158.484 99.555C158.728 99.6323 158.893 99.793 158.981 100.037C159.068 100.28 159.061 100.563 158.958 100.887C158.823 101.315 158.606 101.621 158.305 101.807C158.007 101.992 157.675 102.027 157.308 101.911C157.193 101.875 157.118 101.841 157.085 101.812C157.053 101.782 157.045 101.744 157.06 101.697C157.085 101.617 157.172 101.599 157.322 101.642C157.421 101.671 157.501 101.688 157.562 101.695C157.77 101.721 157.96 101.674 158.133 101.553C158.307 101.433 158.451 101.248 158.565 100.999ZM158.684 100.486C158.733 100.332 158.732 100.193 158.68 100.071C158.63 99.9487 158.541 99.8672 158.414 99.827C158.293 99.7888 158.181 99.8033 158.077 99.8706C157.974 99.9379 157.899 100.045 157.852 100.192C157.804 100.344 157.804 100.48 157.852 100.601C157.901 100.721 157.987 100.8 158.11 100.839C158.231 100.877 158.346 100.863 158.454 100.798C158.563 100.731 158.64 100.627 158.684 100.486Z" fill="#95282D"/>
<path d="M155.312 100.412C155.263 100.565 155.264 100.703 155.314 100.826C155.365 100.947 155.454 101.028 155.581 101.069C155.701 101.106 155.813 101.092 155.918 101.025C156.024 100.958 156.1 100.852 156.146 100.705C156.194 100.553 156.194 100.417 156.144 100.297C156.095 100.177 156.009 100.098 155.884 100.058C155.763 100.02 155.649 100.034 155.54 100.1C155.433 100.166 155.357 100.27 155.312 100.412ZM155.428 99.9018C155.523 99.8359 155.618 99.7941 155.714 99.7765C155.81 99.759 155.907 99.7655 156.004 99.7963C156.201 99.8586 156.344 99.9855 156.435 100.177C156.526 100.369 156.537 100.574 156.469 100.79C156.397 101.017 156.271 101.182 156.092 101.286C155.913 101.389 155.719 101.408 155.511 101.342C155.265 101.265 155.099 101.105 155.013 100.864C154.927 100.622 154.936 100.338 155.039 100.013C155.173 99.5896 155.39 99.284 155.689 99.0963C155.989 98.9074 156.317 98.8695 156.675 98.9827C156.796 99.0209 156.873 99.0548 156.906 99.0845C156.939 99.1142 156.948 99.1533 156.932 99.2019C156.907 99.2816 156.82 99.2995 156.673 99.2554C156.575 99.2259 156.495 99.2075 156.433 99.2002C156.225 99.1753 156.033 99.2237 155.859 99.3454C155.686 99.4662 155.543 99.6517 155.428 99.9018Z" fill="#95282D"/>
<path d="M153.968 99.5448C153.874 99.6095 153.779 99.6502 153.685 99.6669C153.591 99.6836 153.495 99.6766 153.398 99.6459C153.201 99.5836 153.056 99.4571 152.965 99.2663C152.875 99.0747 152.864 98.8712 152.932 98.6556C153.004 98.4289 153.128 98.2635 153.307 98.1596C153.486 98.0547 153.68 98.035 153.887 98.1005C154.131 98.1777 154.296 98.3384 154.384 98.5826C154.471 98.8255 154.464 99.1089 154.361 99.4328C154.226 99.8601 154.009 100.167 153.708 100.353C153.41 100.538 153.078 100.573 152.711 100.457C152.596 100.42 152.521 100.387 152.488 100.357C152.456 100.328 152.448 100.29 152.463 100.242C152.488 100.163 152.575 100.144 152.725 100.187C152.824 100.216 152.904 100.234 152.965 100.241C153.173 100.267 153.363 100.22 153.536 100.099C153.71 99.9783 153.854 99.7937 153.968 99.5448ZM154.087 99.0316C154.136 98.8771 154.135 98.7389 154.083 98.6169C154.033 98.4941 153.944 98.4126 153.817 98.3724C153.696 98.3342 153.584 98.3487 153.48 98.416C153.377 98.4833 153.302 98.5905 153.255 98.7375C153.207 98.8894 153.207 99.0258 153.255 99.1466C153.304 99.2661 153.39 99.3454 153.513 99.3844C153.634 99.4226 153.749 99.4089 153.857 99.3432C153.966 99.2762 154.043 99.1723 154.087 99.0316Z" fill="#95282D"/>
<path d="M150.636 99.0249C150.594 99.157 150.601 99.2771 150.657 99.3854C150.715 99.494 150.812 99.57 150.949 99.6133C151.087 99.6571 151.21 99.6521 151.318 99.5984C151.426 99.5451 151.502 99.4524 151.543 99.3203C151.584 99.1908 151.575 99.0727 151.516 98.9662C151.457 98.8584 151.36 98.7832 151.225 98.7407C151.092 98.6985 150.97 98.7039 150.86 98.7568C150.751 98.8085 150.676 98.8979 150.636 99.0249ZM151.007 97.9171C150.968 98.0404 150.976 98.1542 151.033 98.2583C151.09 98.3628 151.182 98.4351 151.309 98.4753C151.438 98.5159 151.555 98.5098 151.66 98.4569C151.768 98.4032 151.841 98.3141 151.881 98.1895C151.919 98.0699 151.909 97.9585 151.851 97.8552C151.795 97.7511 151.702 97.6787 151.574 97.6381C151.446 97.5975 151.329 97.6037 151.223 97.6565C151.117 97.7082 151.045 97.795 151.007 97.9171ZM150.895 98.4841C150.793 98.3861 150.726 98.282 150.694 98.1717C150.662 98.0602 150.665 97.9434 150.704 97.8213C150.765 97.6282 150.884 97.4919 151.062 97.4123C151.239 97.3315 151.436 97.3252 151.652 97.3933C151.863 97.4604 152.02 97.5784 152.121 97.7475C152.223 97.9167 152.245 98.0909 152.188 98.2703C152.146 98.4036 152.08 98.5069 151.991 98.5802C151.902 98.6534 151.786 98.7001 151.641 98.7201C151.751 98.8109 151.823 98.9169 151.859 99.0378C151.895 99.1575 151.892 99.284 151.85 99.4173C151.785 99.6229 151.661 99.768 151.478 99.8526C151.296 99.9376 151.092 99.9444 150.867 99.8731C150.641 99.8018 150.479 99.6784 150.38 99.5031C150.28 99.3277 150.263 99.136 150.329 98.928C150.369 98.8009 150.439 98.6988 150.537 98.6217C150.636 98.5433 150.755 98.4974 150.895 98.4841Z" fill="#95282D"/>
<path d="M148.337 98.2976C148.296 98.4297 148.303 98.5498 148.359 98.6581C148.416 98.7667 148.514 98.8427 148.651 98.886C148.789 98.9298 148.912 98.9248 149.019 98.8711C149.128 98.8178 149.203 98.7251 149.245 98.593C149.286 98.4635 149.277 98.3454 149.217 98.2389C149.158 98.1311 149.061 98.0559 148.927 98.0134C148.793 97.9712 148.672 97.9766 148.562 98.0295C148.452 98.0812 148.377 98.1706 148.337 98.2976ZM148.708 97.1898C148.669 97.3131 148.678 97.4268 148.734 97.531C148.791 97.6355 148.884 97.7078 149.011 97.748C149.139 97.7886 149.256 97.7825 149.362 97.7296C149.469 97.6759 149.543 97.5868 149.582 97.4622C149.62 97.3426 149.61 97.2312 149.552 97.1279C149.496 97.0238 149.404 96.9514 149.276 96.9108C149.147 96.8702 149.03 96.8764 148.924 96.9292C148.819 96.9809 148.747 97.0677 148.708 97.1898ZM148.597 97.7568C148.495 97.6588 148.428 97.5547 148.396 97.4444C148.364 97.3329 148.367 97.2161 148.406 97.094C148.467 96.9009 148.586 96.7646 148.763 96.685C148.941 96.6042 149.138 96.5979 149.353 96.666C149.565 96.7331 149.721 96.8511 149.823 97.0202C149.924 97.1894 149.946 97.3636 149.89 97.543C149.848 97.6763 149.782 97.7796 149.693 97.8529C149.604 97.9261 149.487 97.9728 149.342 97.9927C149.452 98.0836 149.525 98.1896 149.561 98.3105C149.597 98.4302 149.594 98.5567 149.551 98.69C149.486 98.8956 149.362 99.0407 149.179 99.1253C148.998 99.2103 148.794 99.2171 148.568 99.1458C148.343 99.0744 148.181 98.9511 148.081 98.7758C147.982 98.6004 147.965 98.4087 148.031 98.2007C148.071 98.0736 148.14 97.9715 148.239 97.8943C148.338 97.816 148.457 97.7701 148.597 97.7568Z" fill="#95282D"/>
<path d="M146.329 98.3284C146.31 98.3551 146.295 98.3715 146.283 98.3775C146.272 98.3834 146.254 98.3826 146.23 98.3752L146.199 98.3651L146.066 98.3231C146.041 98.3152 146.023 98.304 146.011 98.2893C146 98.275 145.998 98.2591 146.003 98.2416C146.006 98.2317 146.01 98.2225 146.014 98.2142C146.02 98.205 146.026 98.1948 146.034 98.1835L147.399 96.422L146.45 96.1216C146.428 96.179 146.401 96.2185 146.369 96.24C146.338 96.2603 146.301 96.2636 146.257 96.2498C146.215 96.2364 146.186 96.2158 146.172 96.1879C146.159 96.1604 146.159 96.1242 146.173 96.0794C146.177 96.0669 146.18 96.0576 146.182 96.0513C146.186 96.0455 146.189 96.0403 146.191 96.0357L146.263 95.8734C146.278 95.8397 146.299 95.8169 146.326 95.8049C146.354 95.7933 146.387 95.7934 146.425 95.8053L147.66 96.1961C147.696 96.2075 147.72 96.2239 147.731 96.2452C147.743 96.2657 147.744 96.2927 147.734 96.3264L147.714 96.3899C147.709 96.4049 147.699 96.4238 147.685 96.4468C147.672 96.4685 147.651 96.4977 147.625 96.5345L146.329 98.3284Z" fill="#95282D"/>
<path d="M144.031 97.6012C144.011 97.6279 143.996 97.6443 143.985 97.6502C143.973 97.6562 143.956 97.6554 143.932 97.6479L143.9 97.6379L143.767 97.5959C143.742 97.588 143.724 97.5767 143.712 97.562C143.702 97.5477 143.699 97.5318 143.705 97.5144C143.708 97.5044 143.712 97.4953 143.716 97.487C143.721 97.4778 143.728 97.4676 143.735 97.4563L145.101 95.6948L144.151 95.3944C144.129 95.4518 144.102 95.4912 144.071 95.5128C144.04 95.5331 144.002 95.5364 143.959 95.5226C143.916 95.5092 143.888 95.4885 143.874 95.4606C143.86 95.4332 143.861 95.397 143.875 95.3521C143.879 95.3397 143.882 95.3303 143.884 95.3241C143.887 95.3183 143.89 95.3131 143.893 95.3085L143.965 95.1462C143.98 95.1125 144.001 95.0897 144.028 95.0777C144.056 95.0661 144.089 95.0662 144.126 95.078L145.361 95.4689C145.398 95.4803 145.421 95.4967 145.432 95.518C145.445 95.5385 145.446 95.5655 145.435 95.5991L145.415 95.6627C145.41 95.6776 145.401 95.6966 145.387 95.7195C145.373 95.7412 145.353 95.7705 145.326 95.8072L144.031 97.6012Z" fill="#95282D"/>
<path d="M141.61 95.8238L142.375 96.0656L142.286 94.9481L141.61 95.8238ZM142.019 94.8636L141.746 94.7772C141.67 94.7532 141.62 94.7263 141.595 94.6965C141.572 94.6658 141.568 94.6262 141.583 94.5776C141.599 94.5266 141.623 94.4958 141.656 94.4854C141.689 94.4742 141.766 94.4874 141.886 94.5253L142.418 94.6938C142.487 94.7155 142.53 94.7394 142.547 94.7656C142.567 94.7909 142.579 94.831 142.583 94.8859L142.736 96.9428L142.768 96.9529C142.835 96.9741 142.879 96.9981 142.898 97.0246C142.917 97.0512 142.918 97.0888 142.903 97.1374C142.887 97.1884 142.864 97.2202 142.834 97.2327C142.804 97.2438 142.757 97.2392 142.692 97.2187L142.184 97.0579C142.089 97.0279 142.031 96.9993 142.01 96.9719C141.99 96.9437 141.988 96.9041 142.004 96.853C142.019 96.8056 142.044 96.7772 142.079 96.7675C142.115 96.7571 142.173 96.7646 142.254 96.7903L142.428 96.8452L142.388 96.3431L141.438 96.0428L141.137 96.4367L141.318 96.494C141.4 96.52 141.453 96.5478 141.477 96.5771C141.501 96.6053 141.505 96.643 141.49 96.6904C141.474 96.7415 141.449 96.7726 141.416 96.7839C141.383 96.7943 141.322 96.7851 141.231 96.7563L140.74 96.6008C140.66 96.5756 140.61 96.5495 140.59 96.5225C140.57 96.4943 140.568 96.4547 140.584 96.4036C140.599 96.355 140.623 96.3255 140.655 96.3151C140.687 96.3047 140.741 96.3113 140.815 96.335L140.851 96.3462L142.019 94.8636Z" fill="#95282D"/>
<path d="M139.312 95.0967L140.076 95.3385L139.988 94.221L139.312 95.0967ZM139.72 94.1365L139.448 94.0501C139.372 94.0261 139.321 93.9992 139.296 93.9694C139.273 93.9387 139.269 93.8991 139.285 93.8506C139.301 93.7995 139.325 93.7687 139.357 93.7583C139.391 93.7471 139.467 93.7603 139.587 93.7982L140.119 93.9667C140.188 93.9884 140.231 94.0123 140.249 94.0385C140.268 94.0638 140.28 94.1039 140.285 94.1588L140.438 96.2157L140.47 96.2258C140.537 96.247 140.58 96.271 140.599 96.2975C140.618 96.3241 140.62 96.3617 140.604 96.4103C140.588 96.4614 140.565 96.4931 140.535 96.5056C140.506 96.5168 140.458 96.5121 140.394 96.4916L139.885 96.3308C139.791 96.3008 139.733 96.2722 139.711 96.2448C139.691 96.2166 139.689 96.177 139.706 96.1259C139.721 96.0785 139.745 96.0501 139.78 96.0404C139.816 96.03 139.875 96.0375 139.956 96.0632L140.13 96.1181L140.089 95.616L139.14 95.3157L138.838 95.7096L139.02 95.7669C139.102 95.793 139.155 95.8207 139.178 95.85C139.202 95.8782 139.207 95.9159 139.192 95.9633C139.176 96.0144 139.151 96.0455 139.117 96.0568C139.085 96.0672 139.023 96.058 138.932 96.0292L138.441 95.8737C138.361 95.8485 138.311 95.8224 138.291 95.7954C138.271 95.7672 138.269 95.7276 138.285 95.6765C138.301 95.6279 138.325 95.5984 138.357 95.588C138.389 95.5776 138.442 95.5842 138.517 95.6079L138.552 95.6191L139.72 94.1365Z" fill="#95282D"/>
<path opacity="0.55" d="M179.544 96.617L169.211 93.3475L149.222 156.522L159.555 159.792L179.544 96.617Z" fill="#5B7F8E"/>
<path opacity="0.74" d="M37.2197 80.4076L35.9315 80L34 86.1047L35.2881 86.5122L37.2197 80.4076Z" fill="#70799F"/>
<path opacity="0.18" d="M180.953 97.063L71.5645 62.4516L51.5756 125.626L160.965 160.238L180.953 97.063Z" fill="#8698B0"/>
<path opacity="0.14" d="M88.369 68.1486L86.1848 67.4575L66.1959 130.632L68.3802 131.323L88.369 68.1486Z" fill="url(#paint5_linear_789_14304)"/>
<path d="M185 92.9777H25.4413V161.555H185V92.9777Z" fill="#A5C1D3"/>
<g opacity="0.88">
<path d="M123.448 118.323L139.513 127.322C139.513 127.322 133.047 136.279 124.608 131.562C119.605 128.755 118.232 123.57 118.527 120.123C118.71 117.967 121.11 117.011 123.448 118.333V118.323Z" fill="#276288"/>
<path opacity="0.5" d="M119.534 118.272C119.056 118.587 117.917 119.167 118.751 123.498C119.574 127.738 122.777 130.779 124.018 131.206C125.258 131.633 126.346 131.948 126.346 131.948V130.707C126.346 130.707 123.123 128.643 121.832 127.088C120.642 125.644 119.432 123.478 119.534 118.272Z" fill="#14465D"/>
<path d="M143.428 140.631V151.358C143.428 151.897 142.991 152.334 142.452 152.334H139.046C138.334 152.334 137.755 151.755 137.755 151.043C137.755 150.687 137.897 150.362 138.131 150.128C138.365 149.894 138.69 149.752 139.046 149.752L141.405 150.24V140.631C141.405 140.092 141.842 139.655 142.381 139.655H142.452C142.991 139.655 143.428 140.092 143.428 140.631Z" fill="#040000"/>
<path d="M134.48 140.631V151.358C134.48 151.897 134.043 152.334 133.504 152.334H130.098C129.386 152.334 128.807 151.755 128.807 151.043C128.807 150.687 128.949 150.362 129.183 150.128C129.417 149.894 129.742 149.752 130.098 149.752L132.457 150.24V140.631C132.457 140.092 132.894 139.655 133.433 139.655H133.504C134.043 139.655 134.48 140.092 134.48 140.631Z" fill="#040000"/>
<path d="M155.629 134.886C155.629 137.632 154.704 140.072 153.118 142.075C150.352 145.573 145.553 147.738 140.063 147.86C139.89 147.86 139.717 147.86 139.544 147.86C139.371 147.86 139.198 147.86 139.025 147.86C133.535 147.728 128.736 145.562 125.97 142.075C124.384 140.072 123.459 137.632 123.459 134.886C123.459 130.585 125.726 126.732 129.285 124.19C129.285 124.19 129.285 122.472 129.285 121.76C129.285 115.293 133.881 110.463 139.544 110.463C145.207 110.463 149.803 115.283 149.803 121.76C149.803 122.461 149.6 123.875 149.498 123.966C149.712 124.098 149.813 124.18 149.813 124.18C153.372 126.732 155.64 130.575 155.64 134.886H155.629Z" fill="#4E90CD"/>
<path d="M136.117 120.916C137.364 120.916 138.375 119.905 138.375 118.659C138.375 117.412 137.364 116.401 136.117 116.401C134.871 116.401 133.86 117.412 133.86 118.659C133.86 119.905 134.871 120.916 136.117 120.916Z" fill="white"/>
<path d="M130.22 122.299C128.97 122.431 126.895 121.404 126.783 120.336C126.672 119.269 128.492 117.845 129.742 117.713C130.993 117.581 132.081 118.181 132.254 119.777C132.427 121.373 131.471 122.177 130.22 122.309V122.299Z" fill="#DFB820"/>
<path opacity="0.5" d="M142.106 110.809C142.106 110.809 145.045 114.327 145.838 116.401C146.783 118.872 146.804 121.221 146.621 122.309C146.204 124.78 145.126 126.488 145.126 126.488H148.685C148.685 126.488 149.803 124.19 149.803 121.76C149.803 119.482 149.234 116.798 147.373 114.368C146.631 113.392 144.851 111.511 142.106 110.809Z" fill="#2B5E84"/>
<path opacity="0.5" d="M147.302 129.884C147.302 129.884 150.22 134.531 147.688 139.442C145.95 142.827 143.418 144.708 138.375 147.769C152.01 148.633 155.375 138.831 155.629 135.863C155.711 134.897 147.302 129.884 147.302 129.884Z" fill="#2B5E84"/>
<path d="M151.43 124.668L160.856 129.874C163.153 131.145 163.804 133.839 162.137 135.212C159.524 137.347 155.375 139.391 150.647 136.788C146.702 134.612 145.38 130.85 145.055 127.596C144.75 124.536 148.268 122.939 151.43 124.678V124.668Z" fill="#276288"/>
<path opacity="0.5" d="M131.623 118.272C131.623 118.272 131.501 118.913 131.328 119.614C131.135 120.377 130.576 120.885 130.047 121.058C129.356 121.272 128.888 121.465 127.82 121.607C128.685 122.136 129.6 122.36 130.23 122.299C131.582 122.177 132.142 121.353 132.254 120.57C132.467 119.025 131.633 118.272 131.633 118.272H131.623Z" fill="#9A7D26"/>
<path opacity="0.5" d="M145.116 126.478C144.791 127.921 145.584 130.667 146.082 131.745C147.312 134.378 149.285 136.483 151.959 137.388C154.663 138.303 157.388 137.927 159.29 137.011C161.171 136.106 162.116 135.191 162.116 135.191C162.116 135.191 158.171 136.188 155.619 135.842C153.067 135.496 150.007 134.114 148.237 131.928C146.468 129.741 145.939 128.237 145.106 126.467L145.116 126.478Z" fill="#14465D"/>
<path d="M136.118 119.858C136.78 119.858 137.317 119.321 137.317 118.659C137.317 117.996 136.78 117.459 136.118 117.459C135.455 117.459 134.918 117.996 134.918 118.659C134.918 119.321 135.455 119.858 136.118 119.858Z" fill="#040000"/>
</g>
<path d="M38.5631 113.223H32.8179V112.28H33.8311C34.206 112.28 34.3986 112.047 34.3986 111.571V104.124C34.3986 103.82 34.2364 103.658 33.9223 103.658H32.8179V102.715C34.4796 102.715 35.5132 102.421 35.9083 101.824H36.9824V111.571C36.9824 112.047 37.1648 112.28 37.5296 112.28H38.5732V113.223H38.5631Z" fill="#5D668D" stroke="#7595C4" stroke-width="0.38504" stroke-miterlimit="10"/>
<path d="M48.4524 107.629C48.4524 109.403 48.1079 110.821 47.429 111.865C46.7603 112.909 45.8078 113.436 44.602 113.436C43.3962 113.436 42.4336 112.909 41.7345 111.845C41.0353 110.801 40.6908 109.393 40.6908 107.629C40.6908 105.866 41.0049 104.549 41.6331 103.526C42.3222 102.391 43.305 101.823 44.5919 101.823C45.8787 101.823 46.8616 102.391 47.5405 103.526C48.1484 104.549 48.4524 105.917 48.4524 107.629ZM45.9395 107.629C45.9395 104.651 45.4937 103.161 44.602 103.161C43.7103 103.161 43.2645 104.651 43.2645 107.629C43.2645 110.608 43.7103 112.118 44.602 112.118C45.4937 112.118 45.9395 110.629 45.9395 107.629Z" fill="#5D668D" stroke="#7595C4" stroke-width="0.38504" stroke-miterlimit="10"/>
<path d="M57.3591 107.629C57.3591 109.403 57.0146 110.821 56.3357 111.865C55.667 112.909 54.7145 113.436 53.5087 113.436C52.303 113.436 51.3403 112.909 50.6412 111.845C49.942 110.801 49.5975 109.393 49.5975 107.629C49.5975 105.866 49.9116 104.549 50.5399 103.526C51.2289 102.391 52.2118 101.823 53.4986 101.823C54.7854 101.823 55.7683 102.391 56.4472 103.526C57.0552 104.549 57.3591 105.917 57.3591 107.629ZM54.8361 107.629C54.8361 104.651 54.3903 103.161 53.4986 103.161C52.6069 103.161 52.1611 104.651 52.1611 107.629C52.1611 110.608 52.6069 112.118 53.4986 112.118C54.3903 112.118 54.8361 110.629 54.8361 107.629Z" fill="#5D668D" stroke="#7595C4" stroke-width="0.38504" stroke-miterlimit="10"/>
<path d="M66.2555 107.629C66.2555 109.403 65.911 110.821 65.2321 111.865C64.5634 112.909 63.6109 113.436 62.4051 113.436C61.1993 113.436 60.2367 112.909 59.5376 111.845C58.8384 110.801 58.4939 109.393 58.4939 107.629C58.4939 105.866 58.808 104.549 59.4362 103.526C60.1253 102.391 61.1081 101.823 62.395 101.823C63.6818 101.823 64.6647 102.391 65.3436 103.526C65.9515 104.549 66.2555 105.917 66.2555 107.629ZM63.7426 107.629C63.7426 104.651 63.2968 103.161 62.4051 103.161C61.5134 103.161 61.0676 104.651 61.0676 107.629C61.0676 110.608 61.5134 112.118 62.4051 112.118C63.2968 112.118 63.7426 110.629 63.7426 107.629Z" fill="#5D668D" stroke="#7595C4" stroke-width="0.38504" stroke-miterlimit="10"/>
<path d="M75.152 107.629C75.152 109.403 74.8075 110.821 74.1286 111.865C73.4598 112.909 72.5074 113.436 71.3016 113.436C70.0958 113.436 69.1332 112.909 68.434 111.845C67.7349 110.801 67.3904 109.393 67.3904 107.629C67.3904 105.866 67.7045 104.549 68.3327 103.526C69.0217 102.391 70.0046 101.823 71.2914 101.823C72.5783 101.823 73.5612 102.391 74.24 103.526C74.848 104.549 75.152 105.917 75.152 107.629ZM72.6391 107.629C72.6391 104.651 72.1933 103.161 71.3016 103.161C70.4099 103.161 69.9641 104.651 69.9641 107.629C69.9641 110.608 70.4099 112.118 71.3016 112.118C72.1933 112.118 72.6391 110.629 72.6391 107.629Z" fill="#5D668D" stroke="#7595C4" stroke-width="0.38504" stroke-miterlimit="10"/>
<path d="M62.1921 148.976V150.545C62.1921 151.5 61.9779 152.223 61.5497 152.714C61.1214 153.206 60.5246 153.452 59.7593 153.452C58.9941 153.452 58.3973 153.206 57.969 152.714C57.5478 152.223 57.3372 151.5 57.3372 150.545V148.976C57.3372 148.028 57.5513 147.308 57.9796 146.817C58.4078 146.325 59.0011 146.08 59.7593 146.08C60.5246 146.08 61.1214 146.325 61.5497 146.817C61.9779 147.308 62.1921 148.028 62.1921 148.976ZM61.2653 148.976C61.2653 148.246 61.1319 147.719 60.8651 147.396C60.6054 147.073 60.2368 146.912 59.7593 146.912C59.2889 146.912 58.9204 147.073 58.6536 147.396C58.3938 147.719 58.2639 148.246 58.2639 148.976V150.545C58.2639 151.268 58.3938 151.798 58.6536 152.135C58.9204 152.465 59.2889 152.63 59.7593 152.63C60.2368 152.63 60.6054 152.465 60.8651 152.135C61.1319 151.798 61.2653 151.268 61.2653 150.545V148.976Z" fill="#9A8277"/>
<path d="M55.7334 148.976V150.545C55.7334 151.5 55.5193 152.223 55.091 152.714C54.6628 153.206 54.066 153.452 53.3007 153.452C52.5355 153.452 51.9387 153.206 51.5104 152.714C51.0892 152.223 50.8785 151.5 50.8785 150.545V148.976C50.8785 148.028 51.0927 147.308 51.5209 146.817C51.9492 146.325 52.5425 146.08 53.3007 146.08C54.066 146.08 54.6628 146.325 55.091 146.817C55.5193 147.308 55.7334 148.028 55.7334 148.976ZM54.8067 148.976C54.8067 148.246 54.6733 147.719 54.4065 147.396C54.1467 147.073 53.7781 146.912 53.3007 146.912C52.8303 146.912 52.4617 147.073 52.1949 147.396C51.9352 147.719 51.8053 148.246 51.8053 148.976V150.545C51.8053 151.268 51.9352 151.798 52.1949 152.135C52.4617 152.465 52.8303 152.63 53.3007 152.63C53.7781 152.63 54.1467 152.465 54.4065 152.135C54.6733 151.798 54.8067 151.268 54.8067 150.545V148.976Z" fill="#9A8277"/>
<path d="M49.2748 148.976V150.545C49.2748 151.5 49.0607 152.223 48.6324 152.714C48.2041 153.206 47.6074 153.452 46.8421 153.452C46.0768 153.452 45.4801 153.206 45.0518 152.714C44.6305 152.223 44.4199 151.5 44.4199 150.545V148.976C44.4199 148.028 44.6341 147.308 45.0623 146.817C45.4906 146.325 46.0839 146.08 46.8421 146.08C47.6074 146.08 48.2041 146.325 48.6324 146.817C49.0607 147.308 49.2748 148.028 49.2748 148.976ZM48.3481 148.976C48.3481 148.246 48.2147 147.719 47.9479 147.396C47.6881 147.073 47.3195 146.912 46.8421 146.912C46.3717 146.912 46.0031 147.073 45.7363 147.396C45.4766 147.719 45.3467 148.246 45.3467 148.976V150.545C45.3467 151.268 45.4766 151.798 45.7363 152.135C46.0031 152.465 46.3717 152.63 46.8421 152.63C47.3195 152.63 47.6881 152.465 47.9479 152.135C48.2147 151.798 48.3481 151.268 48.3481 150.545V148.976Z" fill="#9A8277"/>
<path d="M42.8161 148.976V150.545C42.8161 151.5 42.6019 152.223 42.1737 152.714C41.7454 153.206 41.1486 153.452 40.3834 153.452C39.6181 153.452 39.0213 153.206 38.5931 152.714C38.1718 152.223 37.9612 151.5 37.9612 150.545V148.976C37.9612 148.028 38.1753 147.308 38.6036 146.817C39.0319 146.325 39.6251 146.08 40.3834 146.08C41.1486 146.08 41.7454 146.325 42.1737 146.817C42.6019 147.308 42.8161 148.028 42.8161 148.976ZM41.8893 148.976C41.8893 148.246 41.7559 147.719 41.4891 147.396C41.2294 147.073 40.8608 146.912 40.3834 146.912C39.913 146.912 39.5444 147.073 39.2776 147.396C39.0178 147.719 38.8879 148.246 38.8879 148.976V150.545C38.8879 151.268 39.0178 151.798 39.2776 152.135C39.5444 152.465 39.913 152.63 40.3834 152.63C40.8608 152.63 41.2294 152.465 41.4891 152.135C41.7559 151.798 41.8893 151.268 41.8893 150.545V148.976Z" fill="#9A8277"/>
<path d="M33.5044 147.175L35.2105 146.185H36.0424V153.346H35.1473V147.154L33.9046 147.87L33.5044 147.175Z" fill="#9A8277"/>
<path opacity="0.77" d="M81.7788 137.907L112.477 132.215C113.806 131.968 115.182 132.273 116.276 133.073L138.023 148.881L81.7788 153.474V137.907Z" fill="#074166"/>
<g opacity="0.78">
<path d="M102.847 133.944C108.998 133.944 113.985 128.957 113.985 122.805C113.985 116.654 108.998 111.667 102.847 111.667C96.6953 111.667 91.7085 116.654 91.7085 122.805C91.7085 128.957 96.6953 133.944 102.847 133.944Z" fill="#276AA1"/>
<path d="M106.105 115.56C103.929 115.901 105.94 117.454 105.458 118.442C104.976 119.43 103.835 122.111 105.834 122.805C107.846 123.499 109.692 121.664 110.233 119.865C110.774 118.065 108.281 115.219 106.105 115.56Z" fill="#5CB55B"/>
<path d="M110.257 127.392C109.21 126.71 107.081 128.921 106.47 129.062C104.105 129.603 100.671 130.027 101.247 131.085C101.824 132.144 104.411 132.591 107.54 131.462C109.822 130.65 111.292 128.074 110.257 127.392Z" fill="#5CB55B"/>
<path d="M96.9307 129.627C97.0836 129.192 96.0839 128.627 95.978 128.427C95.5664 127.627 95.0959 126.44 94.7666 126.745C94.4372 127.051 94.5196 128.016 95.2135 129.039C95.7193 129.78 96.7778 130.074 96.919 129.627H96.9307Z" fill="#5CB55B"/>
<path d="M97.5658 121.547C97.3188 119.959 100.483 119.241 98.7538 118.053C98.4009 117.806 96.519 118.618 96.3073 119.912C96.178 120.759 97.6835 122.335 97.5541 121.547H97.5658Z" fill="#5CB55B"/>
<path d="M98.6716 126.922C101.424 123.452 101.189 129.651 105.188 126.157C106.023 125.428 102.894 118.771 100.083 120.406C98.2482 121.476 97.3073 128.639 98.6716 126.922Z" fill="#5CB55B"/>
<path d="M103.658 136.261C92.6377 136.072 89.4267 129.862 88.9915 123.193C88.6269 117.63 91.6967 112.208 96.8248 109.35L98.7302 112.62" stroke="#124E77" stroke-width="3.08157" stroke-linecap="round" stroke-linejoin="round"/>
<path d="M105.095 135.217L102.323 135.686C101.119 135.89 100.309 137.032 100.513 138.236C100.717 139.44 101.858 140.251 103.062 140.046L105.834 139.577C107.038 139.373 107.848 138.231 107.644 137.027C107.44 135.823 106.299 135.012 105.095 135.217Z" fill="#124E77"/>
</g>
<path d="M182.639 146.438H81.7788V157.462H182.639V146.438Z" fill="#8493AC"/>
<path d="M162.897 104.288C162.897 104.454 162.941 104.59 163.029 104.696C163.117 104.8 163.23 104.852 163.368 104.852C163.497 104.852 163.604 104.802 163.686 104.704C163.77 104.605 163.812 104.476 163.812 104.316C163.812 104.151 163.769 104.017 163.682 103.915C163.597 103.812 163.487 103.76 163.351 103.76C163.22 103.76 163.111 103.81 163.025 103.909C162.94 104.007 162.897 104.134 162.897 104.288ZM162.852 103.748C162.925 103.654 163.006 103.583 163.096 103.535C163.185 103.488 163.282 103.464 163.388 103.464C163.602 103.464 163.783 103.545 163.931 103.706C164.082 103.867 164.157 104.065 164.157 104.3C164.157 104.546 164.084 104.748 163.94 104.907C163.795 105.065 163.61 105.144 163.384 105.144C163.117 105.144 162.904 105.038 162.743 104.827C162.583 104.615 162.503 104.332 162.503 103.98C162.503 103.52 162.622 103.151 162.858 102.872C163.095 102.592 163.407 102.452 163.796 102.452C163.927 102.452 164.013 102.462 164.055 102.48C164.097 102.499 164.118 102.535 164.118 102.588C164.118 102.675 164.038 102.719 163.879 102.722C163.773 102.723 163.689 102.73 163.625 102.742C163.412 102.783 163.238 102.89 163.104 103.065C162.971 103.238 162.887 103.466 162.852 103.748Z" fill="#95282D"/>
<path d="M161.301 103.852C161.228 103.945 161.147 104.015 161.059 104.061C160.971 104.107 160.875 104.13 160.769 104.13C160.556 104.13 160.374 104.05 160.224 103.89C160.075 103.729 160 103.532 160 103.298C160 103.052 160.072 102.85 160.215 102.691C160.36 102.532 160.545 102.452 160.769 102.452C161.034 102.452 161.248 102.559 161.41 102.773C161.572 102.985 161.654 103.267 161.654 103.618C161.654 104.082 161.535 104.453 161.297 104.73C161.06 105.006 160.743 105.144 160.345 105.144C160.219 105.144 160.136 105.134 160.094 105.115C160.053 105.097 160.033 105.061 160.033 105.01C160.033 104.923 160.113 104.878 160.274 104.874C160.381 104.871 160.466 104.864 160.528 104.852C160.741 104.813 160.915 104.706 161.047 104.533C161.181 104.36 161.265 104.133 161.301 103.852ZM161.258 103.308C161.258 103.14 161.213 103.004 161.124 102.9C161.036 102.795 160.923 102.742 160.785 102.742C160.654 102.742 160.548 102.792 160.467 102.89C160.386 102.989 160.345 103.118 160.345 103.278C160.345 103.443 160.388 103.577 160.473 103.681C160.558 103.784 160.668 103.836 160.802 103.836C160.933 103.836 161.042 103.786 161.128 103.687C161.215 103.587 161.258 103.461 161.258 103.308Z" fill="#95282D"/>
<path d="M157.907 104.288C157.907 104.454 157.951 104.59 158.039 104.696C158.127 104.8 158.24 104.852 158.377 104.852C158.507 104.852 158.613 104.802 158.696 104.704C158.78 104.605 158.822 104.476 158.822 104.316C158.822 104.151 158.778 104.017 158.692 103.915C158.607 103.812 158.496 103.76 158.361 103.76C158.23 103.76 158.121 103.81 158.035 103.909C157.949 104.007 157.907 104.134 157.907 104.288ZM157.862 103.748C157.935 103.654 158.016 103.583 158.106 103.535C158.195 103.488 158.292 103.464 158.398 103.464C158.611 103.464 158.793 103.545 158.941 103.706C159.091 103.867 159.167 104.065 159.167 104.3C159.167 104.546 159.094 104.748 158.949 104.907C158.805 105.065 158.62 105.144 158.394 105.144C158.127 105.144 157.914 105.038 157.753 104.827C157.593 104.615 157.513 104.332 157.513 103.98C157.513 103.52 157.632 103.151 157.868 102.872C158.105 102.592 158.417 102.452 158.805 102.452C158.937 102.452 159.023 102.462 159.065 102.48C159.107 102.499 159.128 102.535 159.128 102.588C159.128 102.675 159.048 102.719 158.889 102.722C158.783 102.723 158.699 102.73 158.635 102.742C158.421 102.783 158.248 102.89 158.114 103.065C157.981 103.238 157.897 103.466 157.862 103.748Z" fill="#95282D"/>
<path d="M156.31 103.852C156.237 103.945 156.157 104.015 156.069 104.061C155.981 104.107 155.884 104.13 155.779 104.13C155.565 104.13 155.383 104.05 155.233 103.89C155.084 103.729 155.01 103.532 155.01 103.298C155.01 103.052 155.082 102.85 155.225 102.691C155.37 102.532 155.554 102.452 155.779 102.452C156.044 102.452 156.258 102.559 156.42 102.773C156.582 102.985 156.663 103.267 156.663 103.618C156.663 104.082 156.544 104.453 156.306 104.73C156.07 105.006 155.752 105.144 155.355 105.144C155.229 105.144 155.145 105.134 155.103 105.115C155.063 105.097 155.042 105.061 155.042 105.01C155.042 104.923 155.123 104.878 155.284 104.874C155.391 104.871 155.475 104.864 155.537 104.852C155.751 104.813 155.924 104.706 156.057 104.533C156.191 104.36 156.275 104.133 156.31 103.852ZM156.268 103.308C156.268 103.14 156.223 103.004 156.134 102.9C156.046 102.795 155.933 102.742 155.795 102.742C155.664 102.742 155.558 102.792 155.477 102.89C155.395 102.989 155.355 103.118 155.355 103.278C155.355 103.443 155.397 103.577 155.483 103.681C155.568 103.784 155.677 103.836 155.811 103.836C155.942 103.836 156.051 103.786 156.138 103.687C156.224 103.587 156.268 103.461 156.268 103.308Z" fill="#95282D"/>
<path d="M152.86 104.379C152.86 104.522 152.904 104.639 152.994 104.728C153.084 104.817 153.204 104.862 153.353 104.862C153.503 104.862 153.622 104.819 153.712 104.732C153.802 104.646 153.848 104.531 153.848 104.387C153.848 104.247 153.802 104.133 153.71 104.046C153.618 103.959 153.499 103.915 153.353 103.915C153.208 103.915 153.09 103.958 152.998 104.044C152.906 104.13 152.86 104.241 152.86 104.379ZM152.88 103.17C152.88 103.304 152.924 103.414 153.012 103.499C153.101 103.584 153.215 103.627 153.353 103.627C153.492 103.627 153.606 103.584 153.693 103.499C153.783 103.412 153.827 103.301 153.827 103.166C153.827 103.036 153.783 102.929 153.693 102.846C153.606 102.76 153.492 102.718 153.353 102.718C153.213 102.718 153.1 102.76 153.012 102.846C152.924 102.929 152.88 103.038 152.88 103.17ZM152.947 103.765C152.816 103.7 152.717 103.618 152.651 103.519C152.585 103.419 152.551 103.303 152.551 103.17C152.551 102.961 152.626 102.789 152.777 102.655C152.927 102.52 153.119 102.452 153.353 102.452C153.583 102.452 153.774 102.52 153.927 102.655C154.08 102.79 154.156 102.955 154.156 103.15C154.156 103.295 154.124 103.417 154.059 103.517C153.994 103.617 153.893 103.7 153.756 103.765C153.893 103.82 153.998 103.902 154.071 104.01C154.144 104.117 154.18 104.243 154.18 104.387C154.18 104.61 154.103 104.792 153.949 104.933C153.796 105.074 153.597 105.144 153.353 105.144C153.108 105.144 152.909 105.073 152.756 104.931C152.604 104.789 152.527 104.605 152.527 104.379C152.527 104.241 152.564 104.119 152.637 104.012C152.71 103.904 152.813 103.821 152.947 103.765Z" fill="#95282D"/>
<path d="M150.365 104.379C150.365 104.522 150.409 104.639 150.499 104.728C150.589 104.817 150.709 104.862 150.858 104.862C151.008 104.862 151.127 104.819 151.217 104.732C151.307 104.646 151.353 104.531 151.353 104.387C151.353 104.247 151.307 104.133 151.215 104.046C151.123 103.959 151.004 103.915 150.858 103.915C150.713 103.915 150.595 103.958 150.503 104.044C150.411 104.13 150.365 104.241 150.365 104.379ZM150.385 103.17C150.385 103.304 150.429 103.414 150.517 103.499C150.606 103.584 150.72 103.627 150.858 103.627C150.997 103.627 151.111 103.584 151.198 103.499C151.288 103.412 151.332 103.301 151.332 103.166C151.332 103.036 151.288 102.929 151.198 102.846C151.111 102.76 150.997 102.718 150.858 102.718C150.718 102.718 150.605 102.76 150.517 102.846C150.429 102.929 150.385 103.038 150.385 103.17ZM150.452 103.765C150.321 103.7 150.222 103.618 150.156 103.519C150.09 103.419 150.056 103.303 150.056 103.17C150.056 102.961 150.132 102.789 150.282 102.655C150.432 102.52 150.624 102.452 150.858 102.452C151.088 102.452 151.279 102.52 151.432 102.655C151.585 102.79 151.661 102.955 151.661 103.15C151.661 103.295 151.629 103.417 151.564 103.517C151.499 103.617 151.398 103.7 151.261 103.765C151.398 103.82 151.503 103.902 151.576 104.01C151.649 104.117 151.685 104.243 151.685 104.387C151.685 104.61 151.608 104.792 151.454 104.933C151.301 105.074 151.102 105.144 150.858 105.144C150.613 105.144 150.414 105.073 150.261 104.931C150.109 104.789 150.032 104.605 150.032 104.379C150.032 104.241 150.069 104.119 150.142 104.012C150.215 103.904 150.318 103.821 150.452 103.765Z" fill="#95282D"/>
<path d="M148.393 105.036C148.382 105.069 148.372 105.09 148.363 105.099C148.353 105.109 148.336 105.113 148.31 105.113H148.275H148.131C148.104 105.113 148.083 105.108 148.067 105.097C148.052 105.086 148.044 105.072 148.044 105.053C148.044 105.042 148.045 105.032 148.046 105.022C148.049 105.011 148.052 104.999 148.056 104.986L148.854 102.821H147.823C147.819 102.885 147.805 102.932 147.781 102.963C147.756 102.993 147.72 103.008 147.673 103.008C147.627 103.008 147.593 102.996 147.57 102.973C147.548 102.95 147.537 102.915 147.537 102.866C147.537 102.852 147.537 102.842 147.537 102.835C147.538 102.829 147.54 102.823 147.541 102.817L147.561 102.635C147.566 102.597 147.579 102.568 147.602 102.547C147.626 102.527 147.659 102.517 147.699 102.517H149.04C149.079 102.517 149.108 102.526 149.125 102.543C149.144 102.56 149.154 102.586 149.154 102.622V102.691C149.154 102.708 149.15 102.729 149.144 102.756C149.137 102.782 149.126 102.817 149.111 102.862L148.393 105.036Z" fill="#95282D"/>
<path d="M145.898 105.036C145.887 105.069 145.877 105.09 145.868 105.099C145.858 105.109 145.841 105.113 145.815 105.113H145.78H145.636C145.609 105.113 145.588 105.108 145.571 105.097C145.557 105.086 145.549 105.072 145.549 105.053C145.549 105.042 145.55 105.032 145.551 105.022C145.554 105.011 145.557 104.999 145.561 104.986L146.358 102.821H145.328C145.324 102.885 145.31 102.932 145.285 102.963C145.261 102.993 145.225 103.008 145.178 103.008C145.132 103.008 145.097 102.996 145.074 102.973C145.053 102.95 145.042 102.915 145.042 102.866C145.042 102.852 145.042 102.842 145.042 102.835C145.043 102.829 145.045 102.823 145.046 102.817L145.066 102.635C145.07 102.597 145.084 102.568 145.107 102.547C145.131 102.527 145.164 102.517 145.204 102.517H146.545C146.584 102.517 146.613 102.526 146.63 102.543C146.649 102.56 146.659 102.586 146.659 102.622V102.691C146.659 102.708 146.655 102.729 146.649 102.756C146.642 102.782 146.631 102.817 146.616 102.862L145.898 105.036Z" fill="#95282D"/>
<path d="M142.955 104.038H143.784L143.348 102.963L142.955 104.038ZM143.058 102.963H142.762C142.679 102.963 142.621 102.952 142.587 102.931C142.555 102.908 142.539 102.87 142.539 102.817C142.539 102.762 142.553 102.724 142.581 102.704C142.611 102.682 142.691 102.671 142.821 102.671H143.399C143.473 102.671 143.523 102.681 143.549 102.702C143.576 102.721 143.6 102.756 143.622 102.809L144.415 104.791H144.45C144.523 104.791 144.573 104.801 144.6 104.821C144.627 104.842 144.64 104.878 144.64 104.931C144.64 104.986 144.627 105.025 144.602 105.047C144.576 105.067 144.528 105.077 144.458 105.077H143.906C143.803 105.077 143.737 105.067 143.707 105.047C143.679 105.025 143.665 104.986 143.665 104.931C143.665 104.88 143.68 104.844 143.711 104.823C143.744 104.802 143.804 104.791 143.892 104.791H144.08L143.884 104.308H142.853L142.679 104.791H142.876C142.965 104.791 143.026 104.802 143.058 104.823C143.091 104.844 143.107 104.88 143.107 104.931C143.107 104.986 143.092 105.025 143.062 105.047C143.034 105.067 142.97 105.077 142.871 105.077H142.338C142.251 105.077 142.194 105.067 142.166 105.047C142.137 105.025 142.123 104.986 142.123 104.931C142.123 104.878 142.137 104.842 142.166 104.821C142.194 104.801 142.249 104.791 142.33 104.791H142.368L143.058 102.963Z" fill="#95282D"/>
<path d="M140.46 104.039H141.289L140.853 102.963L140.46 104.039ZM140.563 102.963H140.267C140.184 102.963 140.126 102.953 140.092 102.931C140.06 102.908 140.044 102.87 140.044 102.817C140.044 102.762 140.058 102.724 140.086 102.704C140.116 102.682 140.196 102.671 140.326 102.671H140.904C140.978 102.671 141.028 102.681 141.054 102.702C141.081 102.721 141.105 102.757 141.127 102.809L141.92 104.791H141.955C142.028 104.791 142.078 104.801 142.105 104.822C142.132 104.842 142.145 104.878 142.145 104.931C142.145 104.987 142.132 105.025 142.107 105.047C142.081 105.067 142.033 105.077 141.963 105.077H141.411C141.308 105.077 141.242 105.067 141.212 105.047C141.184 105.025 141.17 104.987 141.17 104.931C141.17 104.88 141.185 104.844 141.216 104.824C141.249 104.802 141.309 104.791 141.397 104.791H141.585L141.389 104.308H140.358L140.184 104.791H140.381C140.47 104.791 140.531 104.802 140.563 104.824C140.596 104.844 140.612 104.88 140.612 104.931C140.612 104.987 140.597 105.025 140.567 105.047C140.539 105.067 140.475 105.077 140.376 105.077H139.843C139.756 105.077 139.699 105.067 139.671 105.047C139.642 105.025 139.628 104.987 139.628 104.931C139.628 104.878 139.642 104.842 139.671 104.822C139.699 104.801 139.754 104.791 139.835 104.791H139.873L140.563 102.963Z" fill="#95282D"/>
<path opacity="0.55" d="M180.633 92.9777H169.416V161.555H180.633V92.9777Z" fill="#5B7F8E"/>
<path opacity="0.74" d="M36.3541 125.574H34.9558V132.201H36.3541V125.574Z" fill="#70799F"/>
<path opacity="0.18" d="M182.163 92.9777H63.4183V161.555H182.163V92.9777Z" fill="#8698B0"/>
<path opacity="0.14" d="M81.7789 93.3526H79.4078V161.93H81.7789V93.3526Z" fill="url(#paint6_linear_789_14304)"/>
<defs>
<linearGradient id="paint0_linear_789_14304" x1="80.5934" y1="93.3526" x2="80.5934" y2="161.93" gradientUnits="userSpaceOnUse">
<stop stop-color="#8698B0"/>
<stop offset="1" stop-color="#4F5278"/>
</linearGradient>
<linearGradient id="paint1_linear_789_14304" x1="71.9369" y1="100.445" x2="150.698" y2="152.848" gradientUnits="userSpaceOnUse">
<stop stop-color="#A5C1D3"/>
<stop offset="1" stop-color="#676C8A"/>
</linearGradient>
<linearGradient id="paint2_linear_789_14304" x1="46.1797" y1="61.0601" x2="49.6226" y2="55.8853" gradientUnits="userSpaceOnUse">
<stop stop-color="#8698B0"/>
<stop offset="1" stop-color="#4F5278"/>
</linearGradient>
<linearGradient id="paint3_linear_789_14304" x1="101.456" y1="54.0715" x2="65.8258" y2="107.623" gradientUnits="userSpaceOnUse">
<stop stop-color="#8698B0"/>
<stop offset="1" stop-color="#4F5278"/>
</linearGradient>
<linearGradient id="paint4_linear_789_14304" x1="71.2892" y1="122.129" x2="164.203" y2="151.528" gradientUnits="userSpaceOnUse">
<stop stop-color="#A5C1D3"/>
<stop offset="1" stop-color="#676C8A"/>
</linearGradient>
<linearGradient id="paint5_linear_789_14304" x1="87.2769" y1="67.803" x2="67.288" y2="130.978" gradientUnits="userSpaceOnUse">
<stop stop-color="#8698B0"/>
<stop offset="1" stop-color="#4F5278"/>
</linearGradient>
<linearGradient id="paint6_linear_789_14304" x1="80.5934" y1="93.3526" x2="80.5934" y2="161.93" gradientUnits="userSpaceOnUse">
<stop stop-color="#8698B0"/>
<stop offset="1" stop-color="#4F5278"/>
</linearGradient>
</defs>
</svg>
