<svg width="200" height="200" viewBox="0 0 200 200" fill="none" xmlns="http://www.w3.org/2000/svg">
<mask id="path-1-outside-1_1062_20113" maskUnits="userSpaceOnUse" x="13.2119" y="14.8098" width="174" height="174" fill="black">
<rect fill="white" x="13.2119" y="14.8098" width="174" height="174"/>
<path d="M104.21 40.0714C123.126 21.159 146.737 16.3291 163.648 28.4406C164.027 28.1615 164.433 27.9087 164.866 27.6867C168.843 25.6437 177.469 27.4137 179.618 31.714C181.345 35.1713 179.295 41.0767 176.358 44.3195C182.963 60.4796 176.952 80.6845 160.884 96.7492C143.883 113.75 132.546 109.972 121.211 121.303C109.871 132.643 109.871 147.753 94.7616 162.871C73.3515 184.281 44.2893 187.97 28.6347 172.316C12.9846 156.665 17.2991 126.982 38.0878 106.194C53.1974 91.0794 68.3118 91.0789 79.6474 79.7433C90.9826 68.4123 87.2045 57.0769 104.21 40.0714Z"/>
</mask>
<path d="M104.21 40.0714C123.126 21.159 146.737 16.3291 163.648 28.4406C164.027 28.1615 164.433 27.9087 164.866 27.6867C168.843 25.6437 177.469 27.4137 179.618 31.714C181.345 35.1713 179.295 41.0767 176.358 44.3195C182.963 60.4796 176.952 80.6845 160.884 96.7492C143.883 113.75 132.546 109.972 121.211 121.303C109.871 132.643 109.871 147.753 94.7616 162.871C73.3515 184.281 44.2893 187.97 28.6347 172.316C12.9846 156.665 17.2991 126.982 38.0878 106.194C53.1974 91.0794 68.3118 91.0789 79.6474 79.7433C90.9826 68.4123 87.2045 57.0769 104.21 40.0714Z" fill="#C1694F"/>
<path d="M104.21 40.0714L99.9677 35.8283L99.9672 35.8288L104.21 40.0714ZM163.648 28.4406L160.155 33.3186C162.269 34.8327 165.118 34.8126 167.21 33.2688L163.648 28.4406ZM164.866 27.6867L167.603 33.0262L167.608 33.0235L164.866 27.6867ZM179.618 31.714L184.986 29.0326L184.985 29.0323L179.618 31.714ZM176.358 44.3195L171.911 40.2919C170.361 42.0032 169.931 44.4521 170.804 46.5894L176.358 44.3195ZM160.884 96.7492L156.642 92.5061L156.641 92.5065L160.884 96.7492ZM121.211 121.303L116.969 117.059L116.968 117.06L121.211 121.303ZM94.7616 162.871L99.0043 167.114L99.0056 167.113L94.7616 162.871ZM28.6347 172.316L24.392 176.558L24.3921 176.558L28.6347 172.316ZM38.0878 106.194L42.3304 110.436L42.3311 110.436L38.0878 106.194ZM79.6474 79.7433L75.4055 75.4999L75.4047 75.5007L79.6474 79.7433ZM104.21 40.0714L108.452 44.3145C126.191 26.5792 146.533 23.5633 160.155 33.3186L163.648 28.4406L167.142 23.5625C146.941 9.09495 120.061 15.7389 99.9677 35.8283L104.21 40.0714ZM163.648 28.4406L167.21 33.2688C167.33 33.1809 167.46 33.0994 167.603 33.0262L164.866 27.6867L162.129 22.3472C161.406 22.7181 160.724 23.1421 160.086 23.6123L163.648 28.4406ZM164.866 27.6867L167.608 33.0235C167.578 33.0389 167.926 32.8778 168.778 32.8448C169.574 32.8141 170.528 32.9083 171.483 33.1452C172.447 33.3841 173.234 33.7236 173.768 34.0603C174.33 34.4138 174.348 34.5909 174.251 34.3958L179.618 31.714L184.985 29.0323C182.736 24.5301 177.914 22.3763 174.372 21.498C170.746 20.5989 165.929 20.3953 162.124 22.3498L164.866 27.6867ZM179.618 31.714L174.251 34.3955C174.145 34.1837 174.45 34.7703 173.97 36.4428C173.536 37.9535 172.711 39.4082 171.911 40.2919L176.358 44.3195L180.806 48.3471C182.942 45.9879 184.61 42.8686 185.505 39.7515C186.352 36.7964 186.818 32.7016 184.986 29.0326L179.618 31.714ZM176.358 44.3195L170.804 46.5894C176.194 59.7762 171.644 77.5072 156.642 92.5061L160.884 96.7492L165.126 100.992C182.26 83.8618 189.732 61.183 181.912 42.0496L176.358 44.3195ZM160.884 96.7492L156.641 92.5065C148.907 100.24 142.614 103.17 136.659 105.596C130.604 108.062 123.664 110.367 116.969 117.059L121.211 121.303L125.453 125.546C130.093 120.908 134.489 119.437 141.186 116.709C147.984 113.941 155.859 110.259 165.126 100.992L160.884 96.7492ZM121.211 121.303L116.968 117.06C110.399 123.63 107.137 131.331 103.963 138.133C100.726 145.069 97.3054 151.838 90.5177 158.63L94.7616 162.871L99.0056 167.113C107.327 158.786 111.461 150.441 114.837 143.207C118.275 135.839 120.683 130.316 125.453 125.546L121.211 121.303ZM94.7616 162.871L90.519 158.629C70.2835 178.864 45.1705 180.366 32.8773 168.073L28.6347 172.316L24.3921 176.558C43.4081 195.574 76.4194 189.699 99.0043 167.114L94.7616 162.871ZM28.6347 172.316L32.8773 168.073C26.6945 161.89 24.1155 152.613 25.6357 142.035C27.1558 131.457 32.7676 119.999 42.3304 110.436L38.0878 106.194L33.8452 101.951C22.6192 113.177 15.6795 126.955 13.7577 140.328C11.8359 153.701 14.9247 167.091 24.392 176.558L28.6347 172.316ZM38.0878 106.194L42.3311 110.436C49.1182 103.646 55.8856 100.225 62.8204 96.9885C69.6202 93.8149 77.3228 90.5531 83.89 83.986L79.6474 79.7433L75.4047 75.5007C70.6363 80.2691 65.1139 82.6754 57.7453 86.1145C50.5116 89.4906 42.1671 93.6265 33.8445 101.951L38.0878 106.194ZM79.6474 79.7433L83.8892 83.9867C90.5848 77.2937 92.8913 70.3548 95.3587 64.2994C97.7851 58.3447 100.716 52.0502 108.453 44.3141L104.21 40.0714L99.9672 35.8288C90.6979 45.0982 87.0156 52.9741 84.2459 59.7712C81.5172 66.4677 80.0452 70.8619 75.4055 75.4999L79.6474 79.7433Z" fill="white" mask="url(#path-1-outside-1_1062_20113)"/>
<path d="M94.7614 162.871C73.3512 184.282 44.2893 187.97 28.6347 172.315C12.9846 156.665 17.2991 126.982 38.0878 106.193C53.1974 91.0791 68.3116 91.0791 79.6472 79.7435C90.9828 68.4124 87.2043 57.0768 104.21 40.0711C124.99 19.2959 151.435 15.5128 168.441 32.514C185.437 49.5197 181.195 76.4423 160.884 96.7492C143.882 113.75 132.547 109.972 121.211 121.303C109.871 132.643 109.871 147.753 94.7614 162.871Z" fill="#D99E82"/>
<path d="M174.095 46.1439C178.074 44.105 181.767 36.0137 179.619 31.7135C177.47 27.4132 168.843 25.6438 164.867 27.6868C160.888 29.7258 159.07 34.1958 162.277 40.6127C165.523 47.1031 170.119 48.1869 174.095 46.1439Z" fill="#EAC00F"/>
<path d="M143 51C148.523 51 153 46.5229 153 41C153 35.4772 148.523 31 143 31C137.477 31 133 35.4772 133 41C133 46.5229 137.477 51 143 51Z" fill="white"/>
<path d="M142.845 47.0673C146.156 47.0673 148.84 44.3832 148.84 41.0721C148.84 37.761 146.156 35.0769 142.845 35.0769C139.534 35.0769 136.85 37.761 136.85 41.0721C136.85 44.3832 139.534 47.0673 142.845 47.0673Z" fill="black"/>
<path d="M54.0222 117.286C52.563 117.286 51.1264 116.579 50.2617 115.268C48.8881 113.196 49.4555 110.4 51.5317 109.026C54.6032 106.995 58.0079 105.184 61.6423 103.653C79.3776 96.8257 92.7263 84.702 96.613 71.9613C97.338 69.5788 99.8601 68.2278 102.233 68.9663C104.616 69.6914 105.953 72.209 105.233 74.5869C100.554 89.9262 85.1467 104.261 65.011 112.007C62.0161 113.268 59.1113 114.813 56.5037 116.538C55.7381 117.047 54.8779 117.286 54.0222 117.286ZM31.3059 157.535H31.2068C28.7208 157.481 26.7482 155.418 26.7978 152.936C27.0095 143.191 28.5317 130.797 38.5117 121.402C40.3267 119.704 43.1775 119.79 44.8798 121.596C46.5867 123.406 46.4966 126.257 44.6907 127.964C37.1876 135.021 35.9897 144.645 35.8095 153.13C35.7555 155.58 33.7469 157.535 31.3059 157.535ZM49.8834 154.342C49.5141 154.342 49.1358 154.296 48.762 154.202C46.3525 153.585 44.8978 151.13 45.5148 148.721C48.0459 138.854 53.5403 124.955 71.9736 118.213C74.302 117.367 76.8961 118.56 77.7473 120.898C78.603 123.235 77.4005 125.82 75.0631 126.676C60.7821 131.895 56.4316 142.393 54.2339 150.959C53.725 152.99 51.892 154.342 49.8834 154.342ZM129.449 104.617C127.593 104.617 125.855 103.46 125.202 101.613C124.373 99.2667 125.607 96.6951 127.949 95.8665C147.22 89.066 158.794 75.8299 163.33 55.4149C163.87 52.983 166.289 51.4788 168.702 51.9967C171.13 52.5371 172.661 54.9421 172.125 57.3695C166.928 80.7433 153.075 96.5555 130.944 104.365C130.453 104.531 129.944 104.617 129.449 104.617Z" fill="#C1694F"/>
<path d="M127.201 87.9131C125.413 87.9131 123.715 86.8322 123.013 85.0668C122.099 82.7519 123.229 80.1353 125.544 79.2211C133.299 76.1496 140.757 69.0294 144.099 61.4994C145.112 59.2385 147.76 58.2027 150.044 59.2115C152.318 60.2248 153.336 62.882 152.331 65.1563C148.026 74.8436 138.811 83.6527 128.858 87.5933C128.314 87.814 127.755 87.9131 127.201 87.9131ZM87.9791 120.38C86.2002 120.38 84.5203 119.326 83.8087 117.578C82.8675 115.273 83.9754 112.647 86.2767 111.706C90.5777 109.949 95.1894 105.648 96.4819 103.455C97.743 101.311 100.513 100.595 102.647 101.861C104.796 103.122 105.507 105.883 104.242 108.026C101.931 111.958 95.8469 117.529 89.6815 120.046C89.123 120.276 88.5466 120.38 87.9791 120.38ZM105.994 63.3323C105.507 63.3323 105.003 63.2513 104.516 63.0801C102.166 62.265 100.923 59.6979 101.738 57.3515C103.539 52.1633 107.295 47.1958 111.303 44.6873C113.416 43.3678 116.194 44.0118 117.509 46.1195C118.829 48.2272 118.185 51.0059 116.082 52.3255C114.186 53.5099 111.502 56.7075 110.25 60.3059C109.601 62.1659 107.858 63.3323 105.994 63.3323ZM46.1269 173.662C43.9202 173.662 41.9971 172.05 41.6774 169.802C41.3891 167.771 41.6773 164.159 42.1187 162.187C42.6591 159.759 45.0866 158.269 47.4915 158.769C49.919 159.309 51.4502 161.718 50.9098 164.146C50.6215 165.434 50.5045 167.857 50.599 168.537C50.9413 170.996 49.2254 173.279 46.7619 173.622C46.5458 173.649 46.3341 173.662 46.1269 173.662Z" fill="#C1694F"/>
</svg>
