<svg width="200" height="200" viewBox="0 0 200 200" fill="none" xmlns="http://www.w3.org/2000/svg">
<mask id="path-1-outside-1_1062_23624" maskUnits="userSpaceOnUse" x="4" y="41" width="192" height="131" fill="black">
<rect fill="white" x="4" y="41" width="192" height="131"/>
<path d="M121.344 47C124.722 47.0001 127.849 48.7522 130.101 51.7549L155.653 85.7822L155.685 85.7871C155.743 85.8566 185.761 122.006 188.092 128.765C190.425 135.529 188.092 159.294 188.092 159.294C188.092 162.985 185.088 165.987 181.397 165.987L169.419 165.863H19.4316C15.8659 165.863 12.9257 162.922 12.9257 159.294C12.9049 159.197 8.60329 139.006 12.9257 128.766C15.8504 121.837 29.9917 105.878 38.8739 96.2363C38.6317 95.08 38.5048 93.8767 38.5048 92.6328C38.505 86.158 41.9153 80.3685 47.2704 76.5381C47.2704 76.5381 47.2851 73.9445 47.2851 72.8838C47.2852 63.153 54.1949 55.8975 62.7177 55.8975C65.7503 55.8975 68.5783 56.8165 70.9638 58.4385L77.3632 50.6914C79.4902 48.3142 82.3058 47 85.1835 47H121.344Z"/>
</mask>
<path d="M121.344 47C124.722 47.0001 127.849 48.7522 130.101 51.7549L155.653 85.7822L155.685 85.7871C155.743 85.8566 185.761 122.006 188.092 128.765C190.425 135.529 188.092 159.294 188.092 159.294C188.092 162.985 185.088 165.987 181.397 165.987L169.419 165.863H19.4316C15.8659 165.863 12.9257 162.922 12.9257 159.294C12.9049 159.197 8.60329 139.006 12.9257 128.766C15.8504 121.837 29.9917 105.878 38.8739 96.2363C38.6317 95.08 38.5048 93.8767 38.5048 92.6328C38.505 86.158 41.9153 80.3685 47.2704 76.5381C47.2704 76.5381 47.2851 73.9445 47.2851 72.8838C47.2852 63.153 54.1949 55.8975 62.7177 55.8975C65.7503 55.8975 68.5783 56.8165 70.9638 58.4385L77.3632 50.6914C79.4902 48.3142 82.3058 47 85.1835 47H121.344Z" fill="#276288"/>
<path d="M121.344 47L121.344 41H121.344V47ZM130.101 51.7549L125.301 55.3549L125.304 55.3577L130.101 51.7549ZM155.653 85.7822L150.855 89.385C151.8 90.6425 153.2 91.479 154.754 91.7145L155.653 85.7822ZM155.685 85.7871L160.301 81.954C159.362 80.8223 158.039 80.0752 156.584 79.8548L155.685 85.7871ZM188.092 128.765L193.764 126.809L193.764 126.809L188.092 128.765ZM188.092 159.294L182.12 158.708C182.101 158.903 182.092 159.098 182.092 159.294L188.092 159.294ZM181.397 165.987L181.335 171.987C181.356 171.987 181.377 171.987 181.397 171.987L181.397 165.987ZM169.419 165.863L169.481 159.864C169.46 159.863 169.44 159.863 169.419 159.863L169.419 165.863ZM19.4316 165.863L19.4312 171.863H19.4316V165.863ZM12.9257 159.294H18.9257C18.9257 158.873 18.8814 158.453 18.7935 158.041L12.9257 159.294ZM12.9257 128.766L7.39795 126.432L7.39792 126.432L12.9257 128.766ZM38.8739 96.2363L43.2869 100.302C44.6003 98.8758 45.144 96.9033 44.7464 95.0059L38.8739 96.2363ZM38.5048 92.6328L32.5048 92.6327V92.6328H38.5048ZM47.2704 76.5381L50.7611 81.4182C52.3262 80.2987 53.2595 78.4963 53.2703 76.572L47.2704 76.5381ZM47.2851 72.8838L41.2851 72.8837V72.8838H47.2851ZM62.7177 55.8975L62.7177 49.8975H62.7177V55.8975ZM70.9638 58.4385L67.5902 63.4002C70.1514 65.1416 73.6172 64.6475 75.5897 62.2596L70.9638 58.4385ZM77.3632 50.6914L72.8918 46.6906C72.8391 46.7495 72.7876 46.8094 72.7373 46.8702L77.3632 50.6914ZM121.344 47L121.343 53C122.513 53 123.975 53.5867 125.301 55.3549L130.101 51.7549L134.901 48.1549C131.724 43.9176 126.931 41.0002 121.344 41L121.344 47ZM130.101 51.7549L125.304 55.3577L150.855 89.385L155.653 85.7822L160.451 82.1794L134.899 48.1521L130.101 51.7549ZM155.653 85.7822L154.754 91.7145L154.787 91.7194L155.685 85.7871L156.584 79.8548L156.552 79.8499L155.653 85.7822ZM155.685 85.7871L151.069 89.6202C151.089 89.6433 158.57 98.6525 166.326 108.484C170.208 113.405 174.122 118.485 177.193 122.727C178.732 124.852 180.02 126.713 180.975 128.209C181.453 128.957 181.818 129.569 182.08 130.048C182.365 130.569 182.435 130.765 182.42 130.721L188.092 128.765L193.764 126.809C193.214 125.215 192.123 123.371 191.09 121.752C189.957 119.977 188.517 117.905 186.913 115.689C183.699 111.25 179.667 106.021 175.747 101.051C167.897 91.1008 160.34 82.0004 160.301 81.954L155.685 85.7871ZM188.092 128.765L182.42 130.721C182.68 131.477 182.97 133.42 183.079 136.595C183.181 139.556 183.115 142.99 182.972 146.309C182.83 149.611 182.617 152.72 182.438 155.008C182.349 156.15 182.269 157.082 182.211 157.726C182.182 158.047 182.159 158.297 182.144 158.464C182.136 158.547 182.13 158.61 182.126 158.651C182.124 158.672 182.122 158.687 182.122 158.696C182.121 158.701 182.121 158.704 182.121 158.706C182.12 158.707 182.12 158.708 182.12 158.708C182.12 158.708 182.12 158.708 182.12 158.708C182.12 158.708 182.12 158.708 188.092 159.294C194.063 159.88 194.063 159.88 194.063 159.879C194.063 159.879 194.063 159.878 194.063 159.878C194.063 159.876 194.064 159.875 194.064 159.873C194.064 159.869 194.065 159.864 194.065 159.857C194.067 159.844 194.068 159.824 194.071 159.8C194.076 159.75 194.082 159.679 194.091 159.587C194.108 159.403 194.133 159.135 194.164 158.793C194.225 158.111 194.308 157.134 194.402 155.942C194.587 153.563 194.811 150.307 194.961 146.824C195.11 143.356 195.189 139.58 195.072 136.183C194.963 132.999 194.67 129.435 193.764 126.809L188.092 128.765ZM188.092 159.294L182.092 159.294C182.092 159.67 181.775 159.987 181.397 159.987V165.987V171.987C188.401 171.987 194.091 166.299 194.092 159.294L188.092 159.294ZM181.397 165.987L181.459 159.988L169.481 159.864L169.419 165.863L169.357 171.863L181.335 171.987L181.397 165.987ZM169.419 165.863V159.863H19.4316V165.863V171.863H169.419V165.863ZM19.4316 165.863L19.4319 159.863C19.3313 159.863 19.2136 159.827 19.0985 159.711C18.985 159.597 18.9257 159.455 18.9257 159.294H12.9257H6.9257C6.9257 166.198 12.5141 171.863 19.4312 171.863L19.4316 165.863ZM12.9257 159.294L18.7935 158.041C18.8076 158.107 17.783 153.31 17.2755 147.326C16.7401 141.013 16.9183 134.736 18.4535 131.099L12.9257 128.766L7.39792 126.432C4.61066 133.036 4.7785 141.974 5.31846 148.341C5.88636 155.036 7.02305 160.383 7.05787 160.546L12.9257 159.294ZM12.9257 128.766L18.4534 131.099C18.9121 130.012 20.0146 128.164 21.8442 125.607C23.6083 123.142 25.832 120.314 28.2899 117.342C33.202 111.4 38.8757 105.09 43.2869 100.302L38.8739 96.2363L34.461 92.1711C29.99 97.0245 24.1519 103.514 19.0416 109.695C16.4884 112.783 14.0732 115.847 12.0857 118.624C10.1636 121.31 8.40163 124.055 7.39795 126.432L12.9257 128.766ZM38.8739 96.2363L44.7464 95.0059C44.5897 94.2577 44.5048 93.4668 44.5048 92.6328H38.5048H32.5048C32.5048 94.2866 32.6737 95.9023 33.0014 97.4667L38.8739 96.2363ZM38.5048 92.6328L44.5048 92.633C44.5049 88.3798 46.7334 84.2991 50.7611 81.4182L47.2704 76.5381L43.7798 71.658C37.0972 76.4379 32.505 83.9363 32.5048 92.6327L38.5048 92.6328ZM47.2704 76.5381C53.2703 76.572 53.2703 76.572 53.2703 76.5719C53.2703 76.5719 53.2703 76.5719 53.2703 76.5718C53.2703 76.5717 53.2703 76.5716 53.2703 76.5714C53.2703 76.5711 53.2703 76.5706 53.2703 76.57C53.2703 76.5687 53.2704 76.5668 53.2704 76.5643C53.2704 76.5593 53.2704 76.5518 53.2705 76.5421C53.2706 76.5227 53.2708 76.4942 53.271 76.4575C53.2714 76.3842 53.2719 76.2783 53.2726 76.148C53.274 75.8874 53.2758 75.5289 53.2777 75.1369C53.2813 74.358 53.2851 73.4305 53.2851 72.8838H47.2851H41.2851C41.2851 73.3978 41.2815 74.2975 41.2778 75.0806C41.276 75.4696 41.2742 75.8257 41.2728 76.0845C41.2721 76.214 41.2715 76.319 41.2711 76.3916C41.2709 76.428 41.2708 76.4562 41.2707 76.4753C41.2706 76.4848 41.2706 76.4921 41.2706 76.4969C41.2705 76.4994 41.2705 76.5012 41.2705 76.5024C41.2705 76.503 41.2705 76.5035 41.2705 76.5038C41.2705 76.5039 41.2705 76.504 41.2705 76.5041C41.2705 76.5041 41.2705 76.5042 41.2705 76.5042C41.2705 76.5042 41.2705 76.5042 47.2704 76.5381ZM47.2851 72.8838L53.2851 72.8839C53.2852 65.9963 57.9602 61.8975 62.7177 61.8975V55.8975V49.8975C50.4296 49.8975 41.2853 60.3097 41.2851 72.8837L47.2851 72.8838ZM62.7177 55.8975L62.7177 61.8975C64.5115 61.8975 66.1699 62.4345 67.5902 63.4002L70.9638 58.4385L74.3374 53.4767C70.9867 51.1985 66.9891 49.8975 62.7177 49.8975L62.7177 55.8975ZM70.9638 58.4385L75.5897 62.2596L81.9891 54.5126L77.3632 50.6914L72.7373 46.8702L66.3379 54.6173L70.9638 58.4385ZM77.3632 50.6914L81.8346 54.6922C82.9394 53.4574 84.1793 53 85.1835 53V47V41C80.4322 41 76.041 43.1709 72.8918 46.6906L77.3632 50.6914ZM85.1835 47V53H121.344V47V41H85.1835V47Z" fill="white" mask="url(#path-1-outside-1_1062_23624)"/>
<path d="M121.216 65.268L91.8754 65.0803L46.2072 88.4149C46.2072 88.4149 17.2588 118.5 12.9258 128.766C8.59277 139.031 12.9258 159.294 12.9258 159.294C12.9258 162.923 15.8661 165.863 19.4319 165.863H170.617C174.245 165.863 177.123 162.923 177.123 159.357V128.766L121.216 65.268Z" fill="#474747"/>
<path d="M100.509 78.2795L106.765 103.303C109.955 113.625 117.4 115.815 125.532 115.815H125.845C131.913 115.815 137.982 119.819 141.548 125.199L169.324 165.862L181.398 165.987C185.089 165.987 188.092 162.985 188.092 159.294C188.092 159.294 190.424 135.53 188.092 128.765C185.759 122 155.686 85.7866 155.686 85.7866L100.509 78.2795Z" fill="#828282"/>
<path d="M130.102 51.7545C127.85 48.7517 124.722 47 121.344 47H93.2998C84.5878 76.7006 91.8022 67.373 98.6349 90.7288C109.395 90.7288 109.395 84.4729 120.155 84.4729C130.915 84.4729 130.915 90.7288 141.738 90.7288C149.183 90.7288 151.497 87.726 155.751 85.9118L130.102 51.7545Z" fill="#F4F4F4"/>
<path d="M113.021 47L110.742 47.7601C101.438 50.8612 96.0905 60.6022 98.469 70.1162L103.491 90.2021C102.133 90.5293 100.555 90.7288 98.6335 90.7288C93.2146 90.7288 90.5089 89.1605 87.807 87.594C85.1132 86.0325 82.4232 84.4729 77.0506 84.4729C71.6317 84.4729 68.926 86.0413 66.2241 87.6078C63.5303 89.1692 60.8401 90.7288 55.4677 90.7288C51.0886 90.7288 48.5237 89.6653 46.209 88.4142L77.3634 50.691C79.4904 48.3137 82.3055 47 85.1833 47H113.021Z" fill="#D1D1D1"/>
<path d="M77.2056 66.2828C78.5728 65.4025 79.6502 62.5165 78.7348 61.1898C77.8243 59.8591 74.6502 59.6903 73.283 60.5707C71.9158 61.4511 71.3986 63.034 72.767 65.0183C74.1354 67.0027 75.8385 67.1632 77.2056 66.2828Z" fill="#E8BE0F"/>
<path d="M68.3161 103.654C68.7632 103.636 69.1413 103.984 69.1595 104.431L69.5558 114.166L71.6423 114.71C72.0752 114.823 72.3352 115.266 72.2223 115.699C72.1092 116.132 71.6665 116.391 71.2336 116.278L69.6541 115.866L69.7853 117.78C69.8152 118.226 69.4784 118.612 69.0324 118.643C68.5861 118.673 68.199 118.335 68.1686 117.889L68.069 116.424L65.9594 118.159C65.6138 118.444 65.1031 118.393 64.8188 118.048C64.535 117.702 64.5844 117.192 64.9296 116.908L67.9445 114.428L67.5407 104.497C67.5226 104.05 67.8693 103.672 68.3161 103.654Z" fill="#868686"/>
<path d="M52.893 104.261C53.271 104.5 53.384 105.001 53.1447 105.379L48.2898 113.046L49.6266 115.932C49.8146 116.338 49.6384 116.819 49.2327 117.007C48.8267 117.195 48.3448 117.019 48.1566 116.613L47.1627 114.469L45.1942 116.763C44.9027 117.102 44.3912 117.141 44.0517 116.85C43.7124 116.558 43.6741 116.048 43.9652 115.708L45.4637 113.961L43.3864 114.138C42.9407 114.176 42.5484 113.846 42.5102 113.4C42.4723 112.954 42.8038 112.561 43.2497 112.523L46.8997 112.213L51.7752 104.512L51.8234 104.444C52.0769 104.121 52.5386 104.037 52.893 104.261Z" fill="#868686"/>
<path d="M86.9165 92.6332C86.9165 96.7583 85.5316 100.434 83.1376 103.447C78.9682 108.707 71.7492 111.962 63.4915 112.154C63.2337 112.154 62.9685 112.161 62.7107 112.161C62.4529 112.161 62.1877 112.161 61.9299 112.154C53.6648 111.962 46.4532 108.699 42.2838 103.447C39.8971 100.434 38.5049 96.7583 38.5049 92.6332C38.5049 86.1582 41.9155 80.3682 47.2708 76.5377C47.2708 76.5377 47.2856 73.9448 47.2856 72.884C47.2856 63.1531 54.1952 55.8972 62.7181 55.8972C71.2409 55.8972 78.1506 63.1531 78.1506 72.884C78.1506 73.9448 77.8412 76.0663 77.6865 76.2062C78.0106 76.4051 78.1579 76.5304 78.1579 76.5304C83.5133 80.3682 86.9239 86.1508 86.9239 92.6332H86.9165Z" fill="#4B9AE8"/>
<path d="M69.6732 68.1839C67.8158 68.1839 66.3102 66.6783 66.3102 64.821C66.3102 62.9637 67.8158 61.458 69.6732 61.458C71.5305 61.458 73.0361 62.9637 73.0361 64.821C73.0361 66.6783 71.5305 68.1839 69.6732 68.1839Z" fill="white"/>
<path d="M69.673 66.6149C68.6823 66.6149 67.8792 65.8118 67.8792 64.8211C67.8792 63.8305 68.6823 63.0273 69.673 63.0273C70.6637 63.0273 71.4668 63.8305 71.4668 64.8211C71.4668 65.8118 70.6637 66.6149 69.673 66.6149Z" fill="#040000"/>
<path d="M69.8321 78.9961L82.4457 68.8377C85.5271 66.3563 89.6548 66.9943 90.5999 70.0983C92.0786 74.948 92.5726 81.8917 86.2467 86.9824C80.9615 91.2407 74.9861 90.9389 70.2671 89.5289C65.8351 88.2033 65.6029 82.3999 69.8321 78.9961Z" fill="#276288"/>
</svg>
