<svg width="200" height="200" viewBox="0 0 200 200" fill="none" xmlns="http://www.w3.org/2000/svg">
<mask id="path-1-outside-1_1347_20007" maskUnits="userSpaceOnUse" x="16" y="21" width="169" height="157" fill="black">
<rect fill="white" x="16" y="21" width="169" height="157"/>
<path d="M109.11 28.0117C113.576 28.0117 117.252 27.6182 117.76 31.4062L178.8 28.0156V36.7275L117.12 43.5801C116.749 51.6625 116.511 62.8623 117.277 72.8604C117.315 73.3492 117.349 73.8487 117.383 74.3574C128.038 64.996 147.936 67.9555 159.192 75.5742C171.806 84.1111 183.706 104.108 174.555 118.05C168.508 127.262 158.515 132.233 146.8 130.852C145.383 138.767 141.121 146.637 128.921 156.884C120.536 163.927 105.563 170.704 87.335 171.749C68.1141 172.851 52.5206 167.93 43.3389 159.602C27.6198 145.337 26.0254 108.654 25.4854 98.4707C24.7666 84.9137 24.6892 66.8554 25.3721 53.7744L22 54.1494V36.7275L28.292 36.377C30.0914 33.3747 32.9996 31.8788 37.1416 31.6045C42.69 31.2367 47.4616 31.2631 50.2637 32.3613C53.3351 32.3571 55.7566 32.5497 56.5586 34.8066L88.9561 33.0059C90.6547 30.0657 93.6037 28.0117 97.7969 28.0117C100.179 28.0117 102.441 28.0139 104.478 28.0947C105.819 27.9555 107.407 28.0117 109.11 28.0117ZM55.9814 50.373C55.5421 60.7214 55.3701 75.4286 56.8438 88.9805C57.4847 94.8844 59.0724 99.5113 61.04 103.12C65.7058 104.621 70.6973 105.087 75.1699 105.654C78.5626 106.081 82.0162 106.917 85.4658 107.792C84.7645 99.7126 84.1982 90.231 84.0938 81.5898C83.9576 70.5354 85.266 56.3985 86.292 47.0049L55.9814 50.373Z"/>
</mask>
<path d="M109.11 28.0117C113.576 28.0117 117.252 27.6182 117.76 31.4062L178.8 28.0156V36.7275L117.12 43.5801C116.749 51.6625 116.511 62.8623 117.277 72.8604C117.315 73.3492 117.349 73.8487 117.383 74.3574C128.038 64.996 147.936 67.9555 159.192 75.5742C171.806 84.1111 183.706 104.108 174.555 118.05C168.508 127.262 158.515 132.233 146.8 130.852C145.383 138.767 141.121 146.637 128.921 156.884C120.536 163.927 105.563 170.704 87.335 171.749C68.1141 172.851 52.5206 167.93 43.3389 159.602C27.6198 145.337 26.0254 108.654 25.4854 98.4707C24.7666 84.9137 24.6892 66.8554 25.3721 53.7744L22 54.1494V36.7275L28.292 36.377C30.0914 33.3747 32.9996 31.8788 37.1416 31.6045C42.69 31.2367 47.4616 31.2631 50.2637 32.3613C53.3351 32.3571 55.7566 32.5497 56.5586 34.8066L88.9561 33.0059C90.6547 30.0657 93.6037 28.0117 97.7969 28.0117C100.179 28.0117 102.441 28.0139 104.478 28.0947C105.819 27.9555 107.407 28.0117 109.11 28.0117ZM55.9814 50.373C55.5421 60.7214 55.3701 75.4286 56.8438 88.9805C57.4847 94.8844 59.0724 99.5113 61.04 103.12C65.7058 104.621 70.6973 105.087 75.1699 105.654C78.5626 106.081 82.0162 106.917 85.4658 107.792C84.7645 99.7126 84.1982 90.231 84.0938 81.5898C83.9576 70.5354 85.266 56.3985 86.292 47.0049L55.9814 50.373Z" fill="#336FA9"/>
<path d="M109.11 28.0117L109.11 34.0117H109.11V28.0117ZM117.76 31.4062L111.813 32.2027C112.229 35.3082 114.964 37.5708 118.093 37.397L117.76 31.4062ZM178.8 28.0156H184.8C184.8 26.3666 184.121 24.7902 182.923 23.6569C181.725 22.5237 180.114 21.9334 178.467 22.0249L178.8 28.0156ZM178.8 36.7275L179.462 42.6908C182.501 42.3533 184.8 39.7849 184.8 36.7275H178.8ZM117.12 43.5801L116.458 37.6168C113.523 37.9428 111.262 40.3555 111.126 43.3051L117.12 43.5801ZM117.277 72.8604L123.26 72.4031L123.26 72.4019L117.277 72.8604ZM117.383 74.3574L111.396 74.7598C111.549 77.0384 112.983 79.0325 115.094 79.9037C117.205 80.7749 119.627 80.3722 121.343 78.8648L117.383 74.3574ZM159.192 75.5742L162.555 70.6053L162.555 70.6053L159.192 75.5742ZM174.555 118.05L169.539 114.757L169.539 114.757L174.555 118.05ZM146.8 130.852L147.502 124.893C144.35 124.521 141.453 126.669 140.894 129.794L146.8 130.852ZM128.921 156.884L125.062 152.289L125.062 152.29L128.921 156.884ZM87.335 171.749L87.6783 177.739L87.6785 177.739L87.335 171.749ZM43.3389 159.602L39.3068 164.045L39.3079 164.046L43.3389 159.602ZM25.4854 98.4707L19.4938 98.7884L19.4938 98.7884L25.4854 98.4707ZM25.3721 53.7744L31.3639 54.0872C31.4557 52.3283 30.77 50.6178 29.4886 49.4093C28.2072 48.2009 26.4595 47.6165 24.7089 47.8112L25.3721 53.7744ZM22 54.1494H16C16 55.8562 16.7269 57.4822 17.9987 58.6204C19.2705 59.7586 20.9669 60.3013 22.6632 60.1127L22 54.1494ZM22 36.7275L21.6662 30.7368C18.4871 30.914 16 33.5435 16 36.7275H22ZM28.292 36.377L28.6258 42.3677C30.6127 42.257 32.4154 41.1683 33.4385 39.4614L28.292 36.377ZM37.1416 31.6045L37.5381 37.5914L37.5384 37.5914L37.1416 31.6045ZM50.2637 32.3613L48.0742 37.9476C48.7744 38.222 49.5198 38.3623 50.2719 38.3613L50.2637 32.3613ZM56.5586 34.8066L50.9049 36.8155C51.7962 39.3239 54.2337 40.9451 56.8916 40.7974L56.5586 34.8066ZM88.9561 33.0059L89.289 38.9966C91.3103 38.8843 93.1387 37.7602 94.1514 36.0073L88.9561 33.0059ZM97.7969 28.0117V34.0117V28.0117ZM104.478 28.0947L104.24 34.09C104.526 34.1014 104.812 34.0922 105.097 34.0627L104.478 28.0947ZM55.9814 50.373L55.3188 44.4098C52.3765 44.7367 50.1124 47.1608 49.9868 50.1186L55.9814 50.373ZM56.8438 88.9805L62.8087 88.3329L62.8086 88.3318L56.8438 88.9805ZM61.04 103.12L55.7721 105.992C56.5091 107.344 57.7375 108.361 59.2032 108.832L61.04 103.12ZM75.1699 105.654L74.415 111.607L74.4213 111.607L75.1699 105.654ZM85.4658 107.792L83.9905 113.608C85.8736 114.085 87.8714 113.622 89.3516 112.364C90.8319 111.106 91.6113 109.209 91.4433 107.273L85.4658 107.792ZM84.0938 81.5898L90.0933 81.5173L90.0933 81.5159L84.0938 81.5898ZM86.292 47.0049L92.2565 47.6563C92.4542 45.8464 91.8193 44.0445 90.5306 42.7583C89.242 41.472 87.4389 40.8405 85.6293 41.0416L86.292 47.0049ZM109.11 28.0117V34.0117C110.434 34.0117 111.234 33.9873 112.138 34.0079C112.989 34.0272 113.367 34.0858 113.5 34.1181C113.594 34.141 113.087 34.0387 112.536 33.4768C111.934 32.8614 111.82 32.2548 111.813 32.2027L117.76 31.4062L123.707 30.6098C123.446 28.6636 122.683 26.6857 121.108 25.0787C119.586 23.5252 117.786 22.811 116.339 22.4588C114.931 22.116 113.521 22.0362 112.411 22.011C111.354 21.9869 110.02 22.0117 109.11 22.0117V28.0117ZM117.76 31.4062L118.093 37.397L179.133 34.0064L178.8 28.0156L178.467 22.0249L117.427 25.4155L117.76 31.4062ZM178.8 28.0156H172.8V36.7275H178.8H184.8V28.0156H178.8ZM178.8 36.7275L178.137 30.7642L116.458 37.6168L117.12 43.5801L117.783 49.5434L179.462 42.6908L178.8 36.7275ZM117.12 43.5801L111.126 43.3051C110.752 51.4737 110.501 62.9579 111.295 73.3188L117.277 72.8604L123.26 72.4019C122.521 62.7667 122.747 51.8512 123.114 43.8551L117.12 43.5801ZM117.277 72.8604L111.295 73.3176C111.33 73.7757 111.362 74.2499 111.396 74.7598L117.383 74.3574L123.369 73.955C123.335 73.4474 123.3 72.9227 123.26 72.4031L117.277 72.8604ZM117.383 74.3574L121.343 78.8648C125.04 75.6162 130.858 74.1244 137.657 74.5846C144.397 75.0408 151.148 77.3747 155.829 80.5431L159.192 75.5742L162.555 70.6053C155.98 66.1551 147.154 63.1999 138.467 62.612C129.839 62.0281 120.38 63.7373 113.423 69.85L117.383 74.3574ZM159.192 75.5742L155.829 80.5431C161.205 84.1817 166.588 90.4286 169.536 97.185C172.493 103.96 172.586 110.115 169.539 114.757L174.555 118.05L179.571 121.342C185.674 112.043 184.393 101.228 180.534 92.3854C176.667 83.5236 169.793 75.5036 162.555 70.6053L159.192 75.5742ZM174.555 118.05L169.539 114.757C164.72 122.099 156.926 126.004 147.502 124.893L146.8 130.852L146.097 136.81C160.105 138.462 172.296 132.425 179.571 121.342L174.555 118.05ZM146.8 130.852L140.894 129.794C139.799 135.91 136.563 142.629 125.062 152.289L128.921 156.884L132.78 161.478C145.678 150.645 150.966 141.624 152.706 131.909L146.8 130.852ZM128.921 156.884L125.062 152.29C117.747 158.434 104.035 164.781 86.9914 165.759L87.335 171.749L87.6785 177.739C107.09 176.626 123.326 169.42 132.78 161.478L128.921 156.884ZM87.335 171.749L86.9916 165.759C68.8133 166.801 54.998 162.076 47.3698 155.157L43.3389 159.602L39.3079 164.046C50.0433 173.783 67.4148 178.901 87.6783 177.739L87.335 171.749ZM43.3389 159.602L47.3709 155.158C41.0557 149.427 37.0068 138.417 34.6048 126.336C32.2689 114.588 31.7486 103.277 31.4769 98.153L25.4854 98.4707L19.4938 98.7884C19.7621 103.848 20.309 115.971 22.8351 128.676C25.2951 141.048 29.9029 155.511 39.3068 164.045L43.3389 159.602ZM25.4854 98.4707L31.4769 98.153C30.7682 84.7844 30.693 66.9377 31.3639 54.0872L25.3721 53.7744L19.3802 53.4616C18.6853 66.7732 18.765 85.043 19.4938 98.7884L25.4854 98.4707ZM25.3721 53.7744L24.7089 47.8112L21.3368 48.1862L22 54.1494L22.6632 60.1127L26.0352 59.7377L25.3721 53.7744ZM22 54.1494H28V36.7275H22H16V54.1494H22ZM22 36.7275L22.3338 42.7182L28.6258 42.3677L28.292 36.377L27.9582 30.3862L21.6662 30.7368L22 36.7275ZM28.292 36.377L33.4385 39.4614C33.9692 38.5759 34.8012 37.7726 37.5381 37.5914L37.1416 31.6045L36.7451 25.6176C31.1979 25.9849 26.2136 28.1734 23.1455 33.2925L28.292 36.377ZM37.1416 31.6045L37.5384 37.5914C40.2195 37.4136 42.551 37.3434 44.4702 37.4274C46.4827 37.5155 47.5943 37.7595 48.0742 37.9476L50.2637 32.3613L52.4531 26.7751C50.131 25.8649 47.4558 25.5466 44.9949 25.4389C42.4406 25.3271 39.6122 25.4276 36.7448 25.6176L37.1416 31.6045ZM50.2637 32.3613L50.2719 38.3613C50.9999 38.3603 51.5342 38.3724 51.9606 38.4058C52.3938 38.4399 52.543 38.4845 52.5243 38.4788C52.4853 38.467 52.1469 38.3587 51.7438 38.01C51.3027 37.6286 51.0324 37.1743 50.9049 36.8155L56.5586 34.8066L62.2123 32.7977C61.0345 29.483 58.4773 27.7429 56.0001 26.9933C53.9392 26.3696 51.7088 26.3594 50.2555 26.3613L50.2637 32.3613ZM56.5586 34.8066L56.8916 40.7974L89.289 38.9966L88.9561 33.0059L88.6231 27.0151L56.2256 28.8159L56.5586 34.8066ZM88.9561 33.0059L94.1514 36.0073C94.8498 34.7983 95.8866 34.0117 97.7969 34.0117V28.0117V22.0117C91.3209 22.0117 86.4595 25.333 83.7607 30.0044L88.9561 33.0059ZM97.7969 28.0117V34.0117C100.203 34.0117 102.344 34.0148 104.24 34.09L104.478 28.0947L104.715 22.0994C102.539 22.0131 100.154 22.0117 97.7969 22.0117V28.0117ZM104.478 28.0947L105.097 34.0627C106.028 33.966 107.061 34.0117 109.11 34.0117L109.11 28.0117L109.11 22.0117C107.754 22.0117 105.61 21.945 103.858 22.1268L104.478 28.0947ZM55.9814 50.373L49.9868 50.1186C49.5424 60.5868 49.3576 75.639 50.8789 89.6291L56.8438 88.9805L62.8086 88.3318C61.3826 75.2182 61.5418 60.8561 61.976 50.6275L55.9814 50.373ZM56.8438 88.9805L50.8788 89.6281C51.6003 96.2735 53.4109 101.661 55.7721 105.992L61.04 103.12L66.3079 100.248C64.7339 97.361 63.3692 93.4953 62.8087 88.3329L56.8438 88.9805ZM61.04 103.12L59.2032 108.832C64.5394 110.548 70.2472 111.078 74.415 111.607L75.1699 105.654L75.9249 99.702C71.1474 99.0961 66.8723 98.693 62.8768 97.4082L61.04 103.12ZM75.1699 105.654L74.4213 111.607C77.4049 111.983 80.5331 112.731 83.9905 113.608L85.4658 107.792L86.9411 101.976C83.4994 101.103 79.7203 100.179 75.9186 99.7012L75.1699 105.654ZM85.4658 107.792L91.4433 107.273C90.7513 99.3003 90.1955 89.9726 90.0933 81.5173L84.0938 81.5898L78.0942 81.6624C78.2009 90.4894 78.7777 100.125 79.4883 108.311L85.4658 107.792ZM84.0938 81.5898L90.0933 81.5159C89.962 70.8561 91.2323 57.0338 92.2565 47.6563L86.292 47.0049L80.3275 46.3534C79.2997 55.7632 77.9532 70.2146 78.0942 81.6637L84.0938 81.5898ZM86.292 47.0049L85.6293 41.0416L55.3188 44.4098L55.9814 50.373L56.6441 56.3363L86.9546 52.9682L86.292 47.0049Z" fill="white" mask="url(#path-1-outside-1_1347_20007)"/>
<path d="M48.133 110.772C43.3201 110.772 39.4219 106.873 39.4219 102.061V36.7272C39.4219 31.9143 43.3201 32.3717 48.133 32.3717C52.9459 32.3717 56.8441 31.9143 56.8441 36.7272C56.8441 36.7272 54.2045 64.7072 56.8441 88.9805C59.1961 110.645 74.2663 115.127 74.2663 115.127C74.2663 119.94 52.9459 110.772 48.133 110.772ZM109.111 132.545C104.298 132.545 100.4 128.647 100.4 123.834V32.3672C100.4 27.5543 104.298 28.0117 109.111 28.0117C113.924 28.0117 117.822 27.5543 117.822 32.3672C117.822 32.3672 115.879 54.6152 117.277 72.8605C118.671 91.0974 117.822 123.834 117.822 123.834C117.822 128.642 113.924 132.545 109.111 132.545Z" fill="#276288"/>
<path d="M178.8 36.7267L22 54.149V36.7267L178.8 28.0156V36.7267Z" fill="#672F23"/>
<path d="M120.628 99.4731C117.871 104.377 114.692 107.353 111.22 109.025C109.47 109.204 106.29 108.655 105.049 102.74C103.603 95.8277 102.139 86.045 102.139 74.0193C102.139 55.9699 104.757 35.9433 104.757 35.9433C104.757 31.8966 110.907 31.8664 113.843 31.6268C113.163 28.0028 106.225 28.0117 97.7968 28.0117C91.4679 28.0117 87.9706 32.6895 87.3346 38.0339C86.6941 43.3824 83.8981 65.6784 84.0941 81.5895C84.1986 90.2308 84.7648 99.7126 85.4661 107.792C82.0164 106.917 78.5626 106.081 75.1697 105.654C62.9435 104.103 46.8368 103.324 44.1186 80.0388C41.967 61.6059 43.779 40.2988 43.779 40.2988C43.779 36.2522 49.9292 35.2548 52.8648 35.0153C52.1852 31.3917 45.5559 31.0473 37.1412 31.6051C30.8257 32.0233 27.3804 35.2811 26.3568 42.3895C24.7106 53.8402 24.5186 80.2304 25.4857 98.4713C26.0257 108.655 27.6199 145.337 43.339 159.602C52.5208 167.929 68.1137 172.851 87.3346 171.749C105.563 170.704 120.537 163.927 128.921 156.884C143.478 144.658 146.735 135.816 147.341 126.242C148.312 110.772 126.622 88.8153 120.628 99.4731Z" fill="#4B9AE8"/>
<path d="M174.554 118.05C165.403 131.992 147.214 136.226 127.693 123.416C108.172 110.606 104.813 92.2347 113.964 78.2925C123.115 64.3502 146.579 67.0378 159.192 75.5747C171.806 84.1116 183.706 104.108 174.554 118.05Z" fill="#4B9AE8"/>
<path d="M166.908 120.258C160.375 130.219 144.416 133.255 127.687 122.279C110.957 111.303 108.44 96.1411 114.977 86.1802C121.51 76.2188 133.68 77.8131 150.409 88.7935C167.139 99.7739 173.442 110.301 166.908 120.258Z" fill="#7AB9F8"/>
<path d="M111.571 82.7392C109.398 87.6436 108.623 92.9139 109.433 98.2014C115.958 100.113 125.274 102.426 129.686 101.507C136.855 100.017 139.26 93.593 138.206 88.5232C136.747 81.4845 124.307 77.4428 111.571 82.7392Z" fill="#336FA9"/>
<path d="M123.873 97.5029C127.187 97.5029 129.873 94.8166 129.873 91.5029C129.873 88.1892 127.187 85.5029 123.873 85.5029C120.559 85.5029 117.873 88.1892 117.873 91.5029C117.873 94.8166 120.559 97.5029 123.873 97.5029Z" fill="white"/>
<path d="M123.779 95.1435C125.765 95.1435 127.376 93.533 127.376 91.5463C127.376 89.5597 125.765 87.9492 123.779 87.9492C121.792 87.9492 120.182 89.5597 120.182 91.5463C120.182 93.533 121.792 95.1435 123.779 95.1435Z" fill="black"/>
<path d="M171.427 122.013C167.794 125.96 163.269 128.769 158.094 130.132C153.743 124.91 147.915 117.279 146.996 112.867C145.507 105.698 150.446 100.937 155.516 99.8831C162.559 98.424 171.217 108.224 171.427 122.013Z" fill="#336FA9"/>
<path d="M158.492 120.221C161.806 120.221 164.492 117.534 164.492 114.221C164.492 110.907 161.806 108.221 158.492 108.221C155.178 108.221 152.492 110.907 152.492 114.221C152.492 117.534 155.178 120.221 158.492 120.221Z" fill="white"/>
<path d="M158.398 117.861C160.385 117.861 161.995 116.251 161.995 114.264C161.995 112.277 160.385 110.667 158.398 110.667C156.411 110.667 154.801 112.277 154.801 114.264C154.801 116.251 156.411 117.861 158.398 117.861Z" fill="black"/>
<path d="M144.162 117.196C141.026 121.978 134.606 123.306 129.828 120.17C125.045 117.034 123.717 110.614 126.853 105.836C129.989 101.054 133.569 104.05 138.348 107.186C143.125 110.322 147.298 112.413 144.162 117.196Z" fill="#EAC00F"/>
<path d="M143.859 128.725C143.754 128.725 143.646 128.717 143.541 128.703C124.033 125.855 116.114 110.976 115.787 110.34C115.238 109.278 115.652 107.966 116.719 107.414C117.791 106.847 119.098 107.278 119.655 108.333C119.729 108.467 126.942 121.874 144.173 124.391C145.362 124.566 146.185 125.672 146.015 126.861C145.854 127.946 144.926 128.725 143.859 128.725Z" fill="#336FA9"/>
</svg>
