<svg width="342" height="452" viewBox="0 0 342 452" fill="none" xmlns="http://www.w3.org/2000/svg">
<g filter="url(#filter0_n_586_3324)">
<rect width="342" height="452" rx="16" fill="#8D7DDC"/>
<g clip-path="url(#clip0_586_3324)">
<rect x="15" y="15" width="312" height="347" fill="#E4E0F9"/>
<path d="M277.147 248.088C277.147 249.783 277.083 251.478 276.993 253.121C276.98 253.262 276.968 253.391 276.968 253.519C275.876 269.324 270.047 283.434 260.675 295.246C249.056 309.921 231.98 321.013 211.759 327.305C207.47 328.665 203.028 329.782 198.47 330.694C192.205 331.939 185.721 332.735 179.058 333.069C177.723 333.146 176.374 333.198 175.026 333.223C173.897 333.236 172.754 333.249 171.611 333.249C170.469 333.249 169.339 333.236 168.209 333.223C160.351 333.044 152.699 332.222 145.368 330.822C140.823 329.949 136.381 328.845 132.093 327.51C111.589 321.232 94.3079 310.075 82.5603 295.259C82.5603 295.259 82.5603 295.246 82.5474 295.246C73.1493 283.383 67.2948 269.17 66.2548 253.262C66.2548 253.16 66.242 253.031 66.2291 252.916C66.1392 251.324 66.0879 249.719 66.0879 248.088C66.0879 246.188 66.1521 244.301 66.2805 242.439C68.1164 216.517 82.5217 193.523 104.284 177.911V177.102C104.297 174.418 104.348 165.868 104.348 162.003C104.348 119.558 134.468 87.9224 171.611 87.9224C172.895 87.9224 174.179 87.948 175.45 88.0508C210.821 90.1307 238.887 121.034 238.887 162.003C238.887 166.612 237.526 175.895 236.872 176.485C237.026 176.575 237.167 176.665 237.282 176.742C238.412 177.461 238.939 177.911 238.939 177.911C260.701 193.471 275.093 216.44 276.942 242.349C277.083 244.249 277.16 246.162 277.16 248.088H277.147Z" fill="#4D8DCB"/>
<rect x="-6.89453" y="254.842" width="355.789" height="205.263" fill="#F7F6FF"/>
<rect x="-6.89453" y="322" width="355.789" height="97.614" fill="#DFDCF8"/>
<path d="M184.423 160.591C183.627 166.728 176.848 176.679 169.813 176.73C162.777 176.781 155.343 166.69 154.997 160.078C154.65 153.479 159.593 148.959 170.095 148.895C180.713 148.831 185.219 154.454 184.423 160.591Z" fill="#DDB61E"/>
<path opacity="0.5" d="M184.424 160.591C183.628 166.716 176.862 176.679 169.814 176.73C168.709 176.73 167.592 176.499 166.488 176.037C172.24 173.674 177.17 165.765 177.851 160.591C178.557 155.135 175.065 150.089 166.809 149.075C167.836 148.972 168.928 148.908 170.083 148.895C180.714 148.831 185.207 154.467 184.411 160.591H184.424Z" fill="#987D26"/>
<path d="M206.687 155.514C214.416 155.514 220.681 149.249 220.681 141.52C220.681 133.791 214.416 127.525 206.687 127.525C198.958 127.525 192.692 133.791 192.692 141.52C192.692 149.249 198.958 155.514 206.687 155.514Z" fill="white"/>
<path d="M206.687 150.804C210.807 150.804 214.146 147.464 214.146 143.344C214.146 139.224 210.807 135.885 206.687 135.885C202.567 135.885 199.228 139.224 199.228 143.344C199.228 147.464 202.567 150.804 206.687 150.804Z" fill="#040000"/>
<path d="M133.325 155.514C141.053 155.514 147.319 149.249 147.319 141.52C147.319 133.791 141.053 127.525 133.325 127.525C125.596 127.525 119.33 133.791 119.33 141.52C119.33 149.249 125.596 155.514 133.325 155.514Z" fill="white"/>
<path d="M133.325 150.804C137.444 150.804 140.784 147.464 140.784 143.344C140.784 139.224 137.444 135.885 133.325 135.885C129.205 135.885 125.865 139.224 125.865 143.344C125.865 147.464 129.205 150.804 133.325 150.804Z" fill="#040000"/>
<path d="M116.387 195.621L168.103 224.162C180.723 231.133 184.293 245.936 175.113 253.421C160.784 265.118 138.047 276.352 112.099 262.036C90.4271 250.083 83.1859 229.477 81.4398 211.618C79.7836 194.837 99.0548 186.043 116.4 195.608L116.387 195.621Z" fill="#276286"/>
<path opacity="0.5" d="M81.7859 205.596C80.0269 213.505 84.3536 228.578 87.114 234.484C93.8673 248.954 104.703 260.509 119.353 265.439C134.207 270.433 149.113 268.417 159.59 263.397C169.938 258.442 175.125 253.434 175.125 253.434C175.125 253.434 153.479 258.904 139.458 257.029C125.425 255.142 108.671 247.567 98.9515 235.55C89.2324 223.545 86.3437 215.303 81.7987 205.596H81.7859Z" fill="#14465D"/>
<path d="M167.521 248.859H167.534C167.534 248.859 167.56 248.91 167.585 248.923C171.45 252.055 175.905 255.15 180.873 257.743C181.105 257.871 181.349 257.987 181.592 258.115C182.068 258.359 182.555 258.59 183.043 258.834C183.826 259.22 184.635 259.566 185.457 259.9C187.062 260.593 188.731 261.222 190.439 261.749C193.597 262.763 196.884 263.508 200.312 263.893C203.483 264.265 206.744 264.317 210.108 263.983C214.345 263.598 218.761 262.609 223.281 260.863C225.656 259.964 228.069 258.822 230.522 257.473C235.619 254.662 239.92 251.362 243.54 247.729H243.553C248.894 242.349 252.759 236.289 255.493 229.947C255.493 229.934 255.506 229.921 255.506 229.895C255.583 229.741 255.66 229.574 255.725 229.408C255.956 228.855 256.187 228.303 256.418 227.751C256.431 227.738 256.431 227.7 256.431 227.687C256.649 227.122 256.854 226.544 257.073 225.967C257.098 225.903 257.124 225.864 257.137 225.813C259.358 219.534 260.603 213.115 261.194 207.029C261.207 206.901 261.207 206.785 261.22 206.657C261.387 204.693 261.245 202.857 260.873 201.123C260.86 201.072 260.86 201.033 260.847 200.982C259.474 194.973 255.044 190.57 249.164 188.451C246.378 187.437 243.271 186.962 240.01 187.078C235.567 187.232 230.843 188.477 226.246 191.019L221.483 193.651L174.518 219.56C161.898 226.532 158.328 241.335 167.521 248.82V248.859Z" fill="#276286"/>
<path opacity="0.5" d="M260.848 201.021C262.607 208.929 258.28 224.002 255.519 229.908C248.766 244.378 237.93 255.933 223.281 260.863C208.426 265.857 193.52 263.841 183.044 258.821C172.695 253.866 167.508 248.858 167.508 248.858C167.508 248.858 189.155 254.328 203.175 252.453C217.208 250.566 233.963 242.991 243.682 230.974C253.401 218.969 256.29 210.727 260.835 201.021H260.848Z" fill="#14465D"/>
<path d="M115.398 139.555C111.652 156.786 107.06 161.098 98.7323 159.538C91.8371 158.246 86.6195 155.213 90.4284 134.878C94.2374 114.543 100.199 113.604 107.094 114.895C115.761 116.518 119.716 119.693 115.398 139.555Z" fill="#404040"/>
<path d="M228.353 140.875C233.941 157.6 238.972 161.39 247.083 158.938C253.798 156.908 258.657 153.329 252.671 133.525C246.684 113.721 240.656 113.432 233.941 115.462C225.501 118.013 221.913 121.597 228.353 140.875Z" fill="#404040"/>
<path d="M179.01 73.5053C213.652 75.3122 231.939 99.3279 236.906 112.328L240.043 118.781L231.669 129.472C223.789 114.062 208.668 87.6314 178.356 86.0504C137.824 83.9363 115.89 109.886 109.988 123.125C105.727 124.354 98.7509 123.797 104.938 111.734C112.672 96.6551 135.707 71.2467 179.01 73.5053Z" fill="#404040"/>
<g clip-path="url(#clip1_586_3324)">
<path d="M226.46 296.537H116.162C111.264 296.537 107.157 292.993 106.643 288.323L97.078 201.212C96.4835 195.795 100.915 191.077 106.593 191.077H236.026C241.708 191.077 246.139 195.795 245.545 201.212L235.979 288.327C235.466 292.996 231.359 296.541 226.46 296.541V296.537Z" fill="#C0DCEB"/>
<path d="M98.4501 214.676H244.259L245.631 201.656C246.225 196.001 241.791 191.077 236.106 191.077H106.6C100.918 191.077 96.4842 196.001 97.079 201.656L98.4501 214.676Z" fill="#E8F4FA"/>
</g>
<path d="M173.658 257.587C181.361 257.587 187.605 251.343 187.605 243.64C187.605 235.937 181.361 229.693 173.658 229.693C165.955 229.693 159.711 235.937 159.711 243.64C159.711 251.343 165.955 257.587 173.658 257.587Z" fill="#4B98E6"/>
<path d="M171.314 237.549L166.686 240.802" stroke="#202020" stroke-linecap="round"/>
<path d="M167 237.176L171 241.176" stroke="#202020" stroke-linecap="round"/>
<path d="M160.881 247.231C159.075 247.717 155.805 246.725 155.391 245.2C154.977 243.675 157.299 241.176 159.101 240.69C160.903 240.204 162.64 240.806 163.257 243.078C163.881 245.378 162.683 246.745 160.877 247.232L160.881 247.231Z" fill="#DFB820"/>
</g>
<path d="M112.039 397.357C112.473 396.947 113.158 396.742 114.096 396.742C115.045 396.742 115.801 396.848 116.363 397.059C117.418 397.434 118.068 398.459 118.314 400.135C118.432 400.99 118.795 402.725 119.404 405.338C120.025 407.951 120.547 409.873 120.969 411.104C121.402 412.322 121.912 412.932 122.498 412.932C123.084 412.932 123.734 411.736 124.449 409.346C125.176 406.955 125.539 404.811 125.539 402.912C125.539 402.303 125.475 401.729 125.346 401.189L125.135 400.469L124.959 399.783C124.959 398.928 125.287 398.277 125.943 397.832C126.611 397.375 127.402 397.146 128.316 397.146C129.242 397.146 130.057 397.422 130.76 397.973C131.475 398.512 131.832 399.127 131.832 399.818L131.744 400.504L131.621 401.189C131.621 402.971 132.553 406.381 134.416 411.42C134.768 412.381 135.16 412.861 135.594 412.861C136.039 412.861 136.379 412.674 136.613 412.299C136.848 411.912 137.352 410.33 138.125 407.553C138.91 404.775 139.361 402.549 139.479 400.873C139.607 399.197 139.689 398.301 139.725 398.184C140.018 397.234 140.938 396.76 142.484 396.76C143.258 396.76 143.803 396.9 144.119 397.182C144.436 397.451 144.594 397.785 144.594 398.184C144.594 398.57 144.236 399.326 143.521 400.451C142.807 401.576 142.262 402.689 141.887 403.791L140.938 406.709C140.75 407.271 140.545 407.928 140.322 408.678L139.725 410.629C138.365 414.895 137.475 417.414 137.053 418.188C136.373 419.418 135.635 420.033 134.838 420.033C133.936 420.033 133.145 419.254 132.465 417.695C132.125 416.91 131.457 414.936 130.461 411.771C129.477 408.596 128.873 406.727 128.65 406.164L128.316 405.443C128.047 405.443 127.309 407.248 126.102 410.857C124.906 414.455 124.08 416.752 123.623 417.748C122.908 419.307 122.117 420.086 121.25 420.086C120.383 420.086 119.633 419.453 119 418.188C118.719 417.613 117.951 415.27 116.697 411.156C115.455 407.043 114.652 404.494 114.289 403.51C113.938 402.525 113.416 401.447 112.725 400.275C112.045 399.104 111.705 398.377 111.705 398.096C111.705 397.814 111.816 397.568 112.039 397.357ZM151.889 407.992V408.941C151.889 412 152.562 414.555 153.91 416.605C154.52 417.531 155.275 418.264 156.178 418.803C157.092 419.342 158.029 419.611 158.99 419.611H159.271C161.357 419.611 163.027 418.639 164.281 416.693C164.773 415.943 165.195 414.941 165.547 413.688C165.898 412.434 166.074 411.098 166.074 409.68V408.713C166.074 407.154 165.875 405.684 165.477 404.301C163.484 400.902 161.287 398.822 158.885 398.061C158.018 398.072 157.15 398.277 156.283 398.676C154.479 399.52 153.213 401.219 152.486 403.773C152.088 405.191 151.889 406.598 151.889 407.992ZM170.891 408.168V408.994C170.891 410.588 170.609 412.176 170.047 413.758C168.887 417.016 166.824 419.277 163.859 420.543C162.348 421.188 160.83 421.51 159.307 421.51H158.48C156.969 421.51 155.551 421.205 154.227 420.596C152.914 419.986 151.777 419.189 150.816 418.205C149.855 417.209 149.076 415.902 148.479 414.285C147.893 412.668 147.6 411.062 147.6 409.469V408.643C147.6 407.014 147.881 405.414 148.443 403.844C149.006 402.262 149.797 400.908 150.816 399.783C151.836 398.658 153.072 397.779 154.525 397.146C155.979 396.514 157.484 396.197 159.043 396.197H159.447C162.787 396.197 165.471 397.246 167.498 399.344C168.506 400.387 169.32 401.711 169.941 403.316C170.574 404.922 170.891 406.539 170.891 408.168ZM181.104 400.891V406.779C181.104 407.635 181.197 408.15 181.385 408.326C181.584 408.49 182 408.572 182.633 408.572H183.389C185.135 408.572 186.482 408.139 187.432 407.271C188.381 406.393 188.855 405.244 188.855 403.826V403.105C188.855 401.652 188.387 400.504 187.449 399.66C186.523 398.805 185.311 398.377 183.811 398.377H182.721C181.982 398.377 181.525 398.5 181.35 398.746C181.186 398.98 181.104 399.695 181.104 400.891ZM184.268 396.531C188.521 396.531 191.258 397.832 192.477 400.434C192.805 401.137 192.969 402.016 192.969 403.07C192.969 405.039 192.084 406.756 190.314 408.221C189.33 409.041 188.838 409.727 188.838 410.277C188.838 410.441 189.418 411.508 190.578 413.477C191.738 415.434 192.582 416.746 193.109 417.414C193.648 418.082 194.316 418.58 195.113 418.908C195.91 419.225 196.309 419.523 196.309 419.805C196.309 420.637 195.4 421.053 193.584 421.053C192.26 421.053 191.27 420.73 190.613 420.086C190.156 419.641 189.242 418.193 187.871 415.744C186.5 413.295 185.727 411.959 185.551 411.736C184.93 410.951 183.986 410.559 182.721 410.559C182.182 410.559 181.812 410.805 181.613 411.297C181.414 411.777 181.314 412.861 181.314 414.549C181.314 416.236 181.426 417.355 181.648 417.906C181.883 418.457 182.234 418.984 182.703 419.488C183.172 419.98 183.406 420.268 183.406 420.35C183.406 420.748 182.662 420.947 181.174 420.947L180.576 420.93L179.996 420.895C179.738 420.883 179.34 420.877 178.801 420.877C176.047 420.877 174.67 420.643 174.67 420.174C174.67 419.705 174.863 419.354 175.25 419.119C176.234 418.51 176.762 418.141 176.832 418.012C177.102 417.52 177.236 416.166 177.236 413.951L177.271 412.721L177.289 411.49C177.289 411.08 177.289 410.67 177.289 410.26L177.254 408.432C177.254 403.662 177.137 400.873 176.902 400.064C176.68 399.256 176.27 398.676 175.672 398.324C175.086 397.961 174.793 397.645 174.793 397.375C174.793 396.906 175.73 396.672 177.605 396.672L178.203 396.654C178.613 396.643 179.018 396.637 179.416 396.637L183.037 396.531H184.268ZM207.453 409.979C206.516 409.979 206.047 411.32 206.047 414.004C206.047 415.41 206.152 416.506 206.363 417.291C206.574 418.064 206.75 418.574 206.891 418.82L207.207 419.242C207.488 419.629 207.629 419.875 207.629 419.98C207.629 420.379 207.336 420.648 206.75 420.789C206.164 420.93 204.775 421 202.584 421C200.393 421 199.297 420.771 199.297 420.314C199.297 420.01 199.637 419.623 200.316 419.154C200.996 418.686 201.412 417.994 201.564 417.08C201.729 416.154 201.811 413.389 201.811 408.783C201.811 404.178 201.717 401.43 201.529 400.539C201.354 399.637 201.043 398.957 200.598 398.5L200.176 398.113C199.684 397.668 199.438 397.404 199.438 397.322C199.438 396.713 200.539 396.408 202.742 396.408L203.533 396.426H204.359C206.656 396.426 207.805 396.672 207.805 397.164C207.805 397.398 207.617 397.75 207.242 398.219C206.879 398.688 206.656 399.08 206.574 399.396C206.27 400.51 206.117 402.572 206.117 405.584C206.117 406.826 206.352 407.447 206.82 407.447C207.008 407.447 207.354 407.248 207.857 406.85C209.006 405.947 210.359 404.559 211.918 402.684C213.477 400.797 214.256 399.49 214.256 398.764L214.221 398.289L214.115 397.85L214.027 397.428C214.027 397.053 214.244 396.807 214.678 396.689C215.111 396.572 216.002 396.514 217.35 396.514C219.412 396.514 220.443 396.807 220.443 397.393C220.443 397.533 219.846 398.031 218.65 398.887C217.467 399.73 216.348 400.715 215.293 401.84C212.75 404.547 211.479 406.328 211.479 407.184C211.479 407.652 213.389 410.377 217.209 415.357C218.158 416.588 219.172 417.672 220.25 418.609C221.328 419.535 221.867 420.068 221.867 420.209C221.867 420.748 220.766 421.018 218.562 421.018H217.789C216.582 421.018 215.779 420.836 215.381 420.473C214.982 420.098 214.654 419.576 214.396 418.908C213.846 417.479 212.744 415.633 211.092 413.371C209.439 411.109 208.227 409.979 207.453 409.979ZM227.457 421.422C226.848 421.422 226.291 421.205 225.787 420.771C225.283 420.338 225.031 419.77 225.031 419.066V418.908C225.031 418.229 225.289 417.666 225.805 417.221C226.332 416.775 226.865 416.553 227.404 416.553H227.721C227.896 416.588 228.025 416.605 228.107 416.605C228.518 416.605 228.945 416.828 229.391 417.273C229.836 417.719 230.059 418.234 230.059 418.82V419.066C230.059 419.605 229.842 420.127 229.408 420.631C228.986 421.123 228.5 421.369 227.949 421.369L227.545 421.422H227.457Z" fill="#F5F3FF"/>
</g>
<defs>
<filter id="filter0_n_586_3324" x="0" y="0" width="342" height="452" filterUnits="userSpaceOnUse" color-interpolation-filters="sRGB">
<feFlood flood-opacity="0" result="BackgroundImageFix"/>
<feBlend mode="normal" in="SourceGraphic" in2="BackgroundImageFix" result="shape"/>
<feTurbulence type="fractalNoise" baseFrequency="1 1" stitchTiles="stitch" numOctaves="3" result="noise" seed="8134" />
<feComponentTransfer in="noise" result="coloredNoise1">
<feFuncR type="linear" slope="2" intercept="-0.5" />
<feFuncG type="linear" slope="2" intercept="-0.5" />
<feFuncB type="linear" slope="2" intercept="-0.5" />
<feFuncA type="discrete" tableValues="1 1 1 1 1 1 1 1 1 1 1 1 1 1 1 1 1 1 1 1 1 1 1 1 1 1 1 1 1 1 1 1 1 1 1 1 1 1 1 1 1 1 1 1 1 1 1 1 1 1 1 0 0 0 0 0 0 0 0 0 0 0 0 0 0 0 0 0 0 0 0 0 0 0 0 0 0 0 0 0 0 0 0 0 0 0 0 0 0 0 0 0 0 0 0 0 0 0 0 0 "/>
</feComponentTransfer>
<feComposite operator="in" in2="shape" in="coloredNoise1" result="noise1Clipped" />
<feComponentTransfer in="noise1Clipped" result="color1">
<feFuncA type="table" tableValues="0 0.15" />
</feComponentTransfer>
<feMerge result="effect1_noise_586_3324">
<feMergeNode in="shape" />
<feMergeNode in="color1" />
</feMerge>
</filter>
<clipPath id="clip0_586_3324">
<rect x="15" y="15" width="312" height="347" rx="12" fill="white"/>
</clipPath>
<clipPath id="clip1_586_3324">
<rect width="148.66" height="110.083" fill="white" transform="translate(97.0244 191.077)"/>
</clipPath>
</defs>
</svg>
