<svg width="200" height="200" viewBox="0 0 200 200" fill="none" xmlns="http://www.w3.org/2000/svg">
<mask id="path-1-outside-1_1062_19124" maskUnits="userSpaceOnUse" x="6.09961" y="11" width="188" height="180" fill="black">
<rect fill="white" x="6.09961" y="11" width="188" height="180"/>
<path d="M98.0724 17C98.8882 17 99.7042 17.0168 100.512 17.082C122.987 18.4036 140.82 38.04 140.82 64.0723C140.82 67.0011 139.956 72.8992 139.54 73.2744C139.638 73.3315 139.728 73.3886 139.801 73.4375C140.519 73.8943 140.854 74.1797 140.854 74.1797C142.524 75.3737 144.124 76.6376 145.652 77.9639L171.743 70.4248C180.546 67.8867 188.801 72.9345 188.034 80.4277L188.051 80.4453L188.045 80.4512C188.045 80.4513 188.044 80.4538 188.045 80.457C188.052 80.4453 188.057 80.4395 188.057 80.4395C188.057 80.4395 187.986 84.3539 186.062 90.3779C186.056 90.3974 186.05 90.4171 186.044 90.4365C185.998 90.598 185.94 90.7595 185.888 90.9268C185.784 91.2497 185.668 91.5726 185.559 91.9014C185.38 92.4263 185.172 92.9457 184.953 93.4648C184.544 94.4974 184.077 95.5304 183.546 96.5342C182.583 98.4089 181.441 100.22 180.073 101.934C178.816 103.526 177.373 105.014 175.712 106.375C173.637 108.104 171.211 109.642 168.399 110.888C168.396 110.889 168.393 110.891 168.391 110.893C167.194 111.487 165.972 111.991 164.733 112.415C164.846 113.312 164.936 114.216 165.001 115.125C165.091 116.332 165.14 117.548 165.14 118.771H165.132C165.132 119.848 165.09 120.926 165.033 121.97C165.025 122.059 165.018 122.141 165.018 122.223C164.324 132.265 160.621 141.231 154.665 148.736C149.707 154.999 143.182 160.231 135.541 164.205L138.842 169.054L149.665 171.514C151.077 171.834 151.961 173.239 151.641 174.65C151.34 175.973 150.087 176.834 148.769 176.672L148.504 176.626L142.307 175.218L144.885 179.99C145.573 181.264 145.098 182.855 143.824 183.543C142.631 184.187 141.159 183.81 140.412 182.712L140.273 182.482L137.743 177.801L135.88 183.015L133.411 182.132L130.944 181.25L134.339 171.755L130.744 166.474C128.437 167.459 126.047 168.34 123.583 169.106C120.858 169.971 118.035 170.681 115.139 171.26C111.158 172.051 107.038 172.557 102.804 172.77C101.956 172.818 101.099 172.851 100.242 172.867C99.5246 172.875 98.7984 172.884 98.0724 172.884C97.3465 172.884 96.6282 172.875 95.9103 172.867C90.9178 172.753 86.0557 172.231 81.3976 171.342C78.5097 170.787 75.6869 170.086 72.9621 169.237C71.628 168.829 70.3161 168.386 69.0265 167.913L66.4123 171.755L69.8078 181.25C70.2947 182.613 69.5847 184.113 68.2219 184.601C66.8591 185.087 65.3588 184.377 64.8713 183.015L63.008 177.801L60.4787 182.482L60.339 182.712C59.5927 183.81 58.1206 184.187 56.9269 183.543C55.6534 182.855 55.1787 181.264 55.8664 179.99L58.4445 175.218L52.2472 176.626L51.9826 176.672C50.6643 176.834 49.4113 175.973 49.1105 174.65C48.7898 173.239 49.6746 171.835 51.0861 171.514L61.9094 169.054L64.0646 165.886C54.9276 161.754 47.1839 155.927 41.4885 148.744C41.4885 148.744 41.4886 148.736 41.4806 148.736C35.5091 141.198 31.789 132.167 31.1281 122.06C31.1281 121.994 31.1197 121.912 31.1115 121.839C31.0544 120.827 31.0217 119.808 31.0217 118.771C31.0217 117.564 31.0621 116.365 31.1437 115.182C31.2127 114.208 31.3106 113.241 31.4347 112.28C28.7366 111.042 26.2094 109.43 23.9181 107.41C23.8767 107.374 23.8363 107.336 23.7951 107.299C16.453 101.297 13.3483 93.6811 12.4347 86.2744C12.3591 85.7156 12.2998 85.1632 12.258 84.6191C11.6975 77.3504 12.8049 72.9053 12.8049 72.9053C12.8049 72.9053 12.8071 72.9136 12.8117 72.9297C12.8129 72.9225 12.8144 72.9154 12.8156 72.9082C14.0181 65.4787 23.2987 62.7397 31.1447 67.4697L49.7062 78.6699C51.4681 77.0844 53.3333 75.585 55.2922 74.1797V73.666C55.3003 71.9611 55.3332 66.528 55.3332 64.0723C55.3332 37.1019 74.4714 17.0001 98.0724 17ZM135.88 183.015C135.392 184.377 133.892 185.088 132.529 184.601C131.167 184.113 130.457 182.613 130.944 181.25L135.88 183.015Z"/>
</mask>
<path d="M98.0724 17C98.8882 17 99.7042 17.0168 100.512 17.082C122.987 18.4036 140.82 38.04 140.82 64.0723C140.82 67.0011 139.956 72.8992 139.54 73.2744C139.638 73.3315 139.728 73.3886 139.801 73.4375C140.519 73.8943 140.854 74.1797 140.854 74.1797C142.524 75.3737 144.124 76.6376 145.652 77.9639L171.743 70.4248C180.546 67.8867 188.801 72.9345 188.034 80.4277L188.051 80.4453L188.045 80.4512C188.045 80.4513 188.044 80.4538 188.045 80.457C188.052 80.4453 188.057 80.4395 188.057 80.4395C188.057 80.4395 187.986 84.3539 186.062 90.3779C186.056 90.3974 186.05 90.4171 186.044 90.4365C185.998 90.598 185.94 90.7595 185.888 90.9268C185.784 91.2497 185.668 91.5726 185.559 91.9014C185.38 92.4263 185.172 92.9457 184.953 93.4648C184.544 94.4974 184.077 95.5304 183.546 96.5342C182.583 98.4089 181.441 100.22 180.073 101.934C178.816 103.526 177.373 105.014 175.712 106.375C173.637 108.104 171.211 109.642 168.399 110.888C168.396 110.889 168.393 110.891 168.391 110.893C167.194 111.487 165.972 111.991 164.733 112.415C164.846 113.312 164.936 114.216 165.001 115.125C165.091 116.332 165.14 117.548 165.14 118.771H165.132C165.132 119.848 165.09 120.926 165.033 121.97C165.025 122.059 165.018 122.141 165.018 122.223C164.324 132.265 160.621 141.231 154.665 148.736C149.707 154.999 143.182 160.231 135.541 164.205L138.842 169.054L149.665 171.514C151.077 171.834 151.961 173.239 151.641 174.65C151.34 175.973 150.087 176.834 148.769 176.672L148.504 176.626L142.307 175.218L144.885 179.99C145.573 181.264 145.098 182.855 143.824 183.543C142.631 184.187 141.159 183.81 140.412 182.712L140.273 182.482L137.743 177.801L135.88 183.015L133.411 182.132L130.944 181.25L134.339 171.755L130.744 166.474C128.437 167.459 126.047 168.34 123.583 169.106C120.858 169.971 118.035 170.681 115.139 171.26C111.158 172.051 107.038 172.557 102.804 172.77C101.956 172.818 101.099 172.851 100.242 172.867C99.5246 172.875 98.7984 172.884 98.0724 172.884C97.3465 172.884 96.6282 172.875 95.9103 172.867C90.9178 172.753 86.0557 172.231 81.3976 171.342C78.5097 170.787 75.6869 170.086 72.9621 169.237C71.628 168.829 70.3161 168.386 69.0265 167.913L66.4123 171.755L69.8078 181.25C70.2947 182.613 69.5847 184.113 68.2219 184.601C66.8591 185.087 65.3588 184.377 64.8713 183.015L63.008 177.801L60.4787 182.482L60.339 182.712C59.5927 183.81 58.1206 184.187 56.9269 183.543C55.6534 182.855 55.1787 181.264 55.8664 179.99L58.4445 175.218L52.2472 176.626L51.9826 176.672C50.6643 176.834 49.4113 175.973 49.1105 174.65C48.7898 173.239 49.6746 171.835 51.0861 171.514L61.9094 169.054L64.0646 165.886C54.9276 161.754 47.1839 155.927 41.4885 148.744C41.4885 148.744 41.4886 148.736 41.4806 148.736C35.5091 141.198 31.789 132.167 31.1281 122.06C31.1281 121.994 31.1197 121.912 31.1115 121.839C31.0544 120.827 31.0217 119.808 31.0217 118.771C31.0217 117.564 31.0621 116.365 31.1437 115.182C31.2127 114.208 31.3106 113.241 31.4347 112.28C28.7366 111.042 26.2094 109.43 23.9181 107.41C23.8767 107.374 23.8363 107.336 23.7951 107.299C16.453 101.297 13.3483 93.6811 12.4347 86.2744C12.3591 85.7156 12.2998 85.1632 12.258 84.6191C11.6975 77.3504 12.8049 72.9053 12.8049 72.9053C12.8049 72.9053 12.8071 72.9136 12.8117 72.9297C12.8129 72.9225 12.8144 72.9154 12.8156 72.9082C14.0181 65.4787 23.2987 62.7397 31.1447 67.4697L49.7062 78.6699C51.4681 77.0844 53.3333 75.585 55.2922 74.1797V73.666C55.3003 71.9611 55.3332 66.528 55.3332 64.0723C55.3332 37.1019 74.4714 17.0001 98.0724 17ZM135.88 183.015C135.392 184.377 133.892 185.088 132.529 184.601C131.167 184.113 130.457 182.613 130.944 181.25L135.88 183.015Z" fill="#040000"/>
<path d="M98.0724 17L98.0724 11L98.0724 11L98.0724 17ZM100.512 17.082L100.029 23.0625L100.16 23.0717L100.512 17.082ZM140.82 64.0723L146.82 64.0724V64.0723H140.82ZM139.54 73.2744L135.522 68.819L136.517 78.4568L139.54 73.2744ZM139.801 73.4375L136.473 78.4298L136.58 78.4995L139.801 73.4375ZM140.854 74.1797L136.962 78.7465L137.364 79.0603L140.854 74.1797ZM145.652 77.9639L141.718 82.4943L147.317 83.7281L145.652 77.9639ZM171.743 70.4248L170.081 64.6597L170.078 64.6606L171.743 70.4248ZM188.034 80.4277L182.066 79.8168L183.672 84.5475L188.034 80.4277ZM188.051 80.4453L192.294 84.688L192.413 76.3256L188.051 80.4453ZM188.045 80.4512L183.802 76.2085L182.35 82.3388L188.045 80.4512ZM188.045 80.457L182.273 82.0933L193.19 83.5447L188.045 80.457ZM188.057 80.4395L194.056 80.5475L183.37 76.6934L188.057 80.4395ZM186.062 90.3779L180.346 88.5519L180.335 88.588L186.062 90.3779ZM186.044 90.4365L180.32 88.6386L180.275 88.7882L186.044 90.4365ZM185.888 90.9268L191.6 92.7628L191.618 92.7052L185.888 90.9268ZM185.559 91.9014L191.238 93.8361L191.251 93.7988L185.559 91.9014ZM184.953 93.4648L179.426 91.131L179.376 91.2526L184.953 93.4648ZM183.546 96.5342L178.242 93.7297L178.209 93.7919L183.546 96.5342ZM180.073 101.934L175.384 98.1912L175.365 98.2146L180.073 101.934ZM175.712 106.375L171.909 101.734L171.871 101.766L175.712 106.375ZM168.399 110.888L165.969 105.402L165.728 105.515L168.399 110.888ZM168.391 110.893L171.058 116.267L171.06 116.266L168.391 110.893ZM164.733 112.415L162.789 106.739L158.78 113.164L164.733 112.415ZM165.001 115.125L159.016 115.552L159.018 115.57L165.001 115.125ZM165.14 118.771V124.771L171.14 118.771H165.14ZM165.132 118.771V112.771L159.132 118.771L165.132 118.771ZM165.033 121.97L171.009 122.513L171.024 122.297L165.033 121.97ZM165.018 122.223L171.003 122.636L171.018 122.223H165.018ZM154.665 148.736L149.965 145.007L149.961 145.012L154.665 148.736ZM135.541 164.205L132.773 158.882L130.581 167.582L135.541 164.205ZM138.842 169.054L133.882 172.43L137.512 174.904L138.842 169.054ZM149.665 171.514L148.335 177.364L148.336 177.365L149.665 171.514ZM151.641 174.65L157.491 175.981L157.492 175.98L151.641 174.65ZM148.769 176.672L147.743 182.584L148.038 182.627L148.769 176.672ZM148.504 176.626L147.175 182.477L147.479 182.538L148.504 176.626ZM142.307 175.218L143.636 169.367L137.028 178.07L142.307 175.218ZM144.885 179.99L150.164 177.139L150.164 177.138L144.885 179.99ZM143.824 183.543L146.674 188.823L146.676 188.822L143.824 183.543ZM140.412 182.712L135.287 185.831L135.449 186.084L140.412 182.712ZM140.273 182.482L134.994 185.334L135.147 185.601L140.273 182.482ZM137.743 177.801L143.022 174.949L132.093 175.782L137.743 177.801ZM135.88 183.015L141.529 185.036L141.53 185.034L135.88 183.015ZM133.411 182.132L135.432 176.482L135.43 176.482L133.411 182.132ZM130.944 181.25L125.294 179.23L125.293 179.232L130.944 181.25ZM134.339 171.755L139.989 173.775L139.299 168.379L134.339 171.755ZM130.744 166.474L135.704 163.098L128.387 160.956L130.744 166.474ZM123.583 169.106L121.801 163.377L121.768 163.388L123.583 169.106ZM115.139 171.26L116.309 177.145L116.316 177.143L115.139 171.26ZM102.804 172.77L102.504 166.777L102.458 166.779L102.804 172.77ZM100.242 172.867L100.311 178.867L100.357 178.866L100.242 172.867ZM98.0724 172.884L98.0724 178.884H98.0724V172.884ZM95.9103 172.867L95.7731 178.866L95.8422 178.867L95.9103 172.867ZM81.3976 171.342L80.2658 177.234L80.2726 177.235L81.3976 171.342ZM72.9621 169.237L74.7459 163.509L74.7188 163.5L72.9621 169.237ZM69.0265 167.913L71.0914 162.28L64.0661 164.538L69.0265 167.913ZM66.4123 171.755L61.4518 168.379L60.7627 173.775L66.4123 171.755ZM69.8078 181.25L75.458 179.231L75.4574 179.23L69.8078 181.25ZM68.2219 184.601L70.2406 190.251L70.2422 190.25L68.2219 184.601ZM64.8713 183.015L59.2212 185.034L59.222 185.036L64.8713 183.015ZM63.008 177.801L68.658 175.782L57.7291 174.949L63.008 177.801ZM60.4787 182.482L65.6043 185.601L65.7576 185.334L60.4787 182.482ZM60.339 182.712L65.3017 186.084L65.4647 185.831L60.339 182.712ZM56.9269 183.543L54.0753 188.822L54.0765 188.823L56.9269 183.543ZM55.8664 179.99L50.5874 177.138L50.5868 177.14L55.8664 179.99ZM58.4445 175.218L63.7235 178.07L57.115 169.367L58.4445 175.218ZM52.2472 176.626L53.2725 182.538L53.5767 182.477L52.2472 176.626ZM51.9826 176.672L52.7128 182.627L53.0079 182.584L51.9826 176.672ZM49.1105 174.65L43.2596 175.98L43.2599 175.981L49.1105 174.65ZM51.0861 171.514L49.7563 165.663L49.7562 165.663L51.0861 171.514ZM61.9094 169.054L63.2391 174.904L66.8701 172.429L61.9094 169.054ZM64.0646 165.886L69.0254 169.261L66.5368 160.419L64.0646 165.886ZM41.4885 148.744L35.4892 148.651L36.787 152.472L41.4885 148.744ZM41.4806 148.736L36.7776 152.462L41.3679 154.735L41.4806 148.736ZM31.1281 122.06H25.1281L25.1409 122.451L31.1281 122.06ZM31.1115 121.839L25.121 122.177L25.1482 122.501L31.1115 121.839ZM31.0217 118.771L25.0217 118.771L25.0217 118.771L31.0217 118.771ZM31.1437 115.182L25.1587 114.758L25.1579 114.769L31.1437 115.182ZM31.4347 112.28L37.3852 113.049L33.9367 106.827L31.4347 112.28ZM23.9181 107.41L19.949 111.91L19.9503 111.911L23.9181 107.41ZM23.7951 107.299L27.7854 102.818L27.5925 102.653L23.7951 107.299ZM12.4347 86.2744L18.3896 85.5399L18.3806 85.4699L12.4347 86.2744ZM12.258 84.6191L18.2403 84.1591L18.2402 84.1578L12.258 84.6191ZM12.8049 72.9053L18.6013 71.3555L6.98281 71.4548L12.8049 72.9053ZM12.8117 72.9297L7.04378 74.5823L18.7345 73.8893L12.8117 72.9297ZM12.8156 72.9082L18.738 73.8701L18.7385 73.8668L12.8156 72.9082ZM31.1447 67.4697L34.2445 62.3325L34.2425 62.3313L31.1447 67.4697ZM49.7062 78.6699L46.6064 83.8071L53.7198 83.1298L49.7062 78.6699ZM55.2922 74.1797L58.7897 79.0549L61.2922 74.1797H55.2922ZM55.2922 73.666L49.2922 73.6373L49.2922 73.666H55.2922ZM55.3332 64.0723L61.3332 64.0723V64.0723H55.3332ZM132.529 184.601L130.509 190.25L130.51 190.251L132.529 184.601ZM98.0724 17V23C98.8167 23 99.4515 23.0159 100.029 23.0625L100.512 17.082L100.995 11.1015C99.957 11.0176 98.9598 11 98.0724 11V17ZM100.512 17.082L100.16 23.0717C119.049 24.1824 134.82 40.7847 134.82 64.0723H140.82H146.82C146.82 35.2953 126.925 12.6248 100.864 11.0924L100.512 17.082ZM140.82 64.0723L134.82 64.0721C134.82 65.1202 134.649 67.0043 134.396 68.7873C134.273 69.6523 134.149 70.3673 134.049 70.8337C133.996 71.0815 133.972 71.1511 133.988 71.1008C133.994 71.0833 134.046 70.9131 134.156 70.6689C134.213 70.5444 134.319 70.3224 134.485 70.0553C134.629 69.8242 134.958 69.3271 135.522 68.819L139.54 73.2744L143.559 77.7298C144.571 76.8173 145.016 75.7785 145.09 75.6139C145.259 75.2407 145.372 74.9024 145.441 74.682C145.584 74.2259 145.696 73.7503 145.783 73.3466C145.962 72.51 146.132 71.4971 146.277 70.4746C146.56 68.4826 146.82 65.9532 146.82 64.0724L140.82 64.0723ZM139.54 73.2744L136.517 78.4568C136.502 78.4484 136.492 78.4423 136.487 78.4388C136.481 78.4353 136.477 78.4324 136.473 78.4298L139.801 73.4375L143.129 68.4452C142.978 68.3443 142.785 68.2211 142.564 68.092L139.54 73.2744ZM139.801 73.4375L136.58 78.4995C136.818 78.6509 136.964 78.7562 137.026 78.8018C137.057 78.8246 137.066 78.8325 137.055 78.8238C137.05 78.8195 137.039 78.811 137.024 78.7982C137.016 78.7918 137.007 78.7843 136.997 78.7757C136.992 78.7714 136.986 78.7668 136.98 78.7619C136.977 78.7595 136.974 78.757 136.971 78.7544C136.97 78.7532 136.968 78.7518 136.967 78.7505C136.966 78.7499 136.965 78.7492 136.965 78.7485C136.964 78.7482 136.964 78.7477 136.963 78.7475C136.963 78.747 136.962 78.7465 140.854 74.1797C144.745 69.6129 144.745 69.6124 144.744 69.6118C144.744 69.6117 144.743 69.6112 144.743 69.6108C144.742 69.6101 144.741 69.6094 144.74 69.6087C144.739 69.6074 144.737 69.6059 144.735 69.6045C144.732 69.6017 144.729 69.5988 144.725 69.5958C144.718 69.5898 144.711 69.5836 144.703 69.577C144.687 69.564 144.67 69.55 144.652 69.5349C144.615 69.5046 144.573 69.4703 144.525 69.4321C144.429 69.3557 144.31 69.2637 144.167 69.158C143.882 68.9467 143.502 68.6809 143.022 68.3755L139.801 73.4375ZM140.854 74.1797L137.364 79.0603C138.88 80.1443 140.332 81.2912 141.718 82.4943L145.652 77.9639L149.585 73.4334C147.916 71.9839 146.167 70.6031 144.344 69.2991L140.854 74.1797ZM145.652 77.9639L147.317 83.7281L173.409 76.189L171.743 70.4248L170.078 64.6606L143.986 72.1997L145.652 77.9639ZM171.743 70.4248L173.406 76.1899C176.346 75.3422 178.845 75.8621 180.341 76.7796C181.741 77.6382 182.181 78.6933 182.066 79.8168L188.034 80.4277L194.003 81.0387C194.655 74.669 191.35 69.4536 186.614 66.5495C181.974 63.7043 175.944 62.9693 170.081 64.6597L171.743 70.4248ZM188.034 80.4277L183.672 84.5475L183.689 84.5651L188.051 80.4453L192.413 76.3256L192.396 76.308L188.034 80.4277ZM188.051 80.4453L183.808 76.2027L183.802 76.2085L188.045 80.4512L192.288 84.6938L192.294 84.688L188.051 80.4453ZM188.045 80.4512L182.35 82.3388C182.256 82.057 182.196 81.8048 182.156 81.5985C182.115 81.3907 182.091 81.2061 182.075 81.0532C182.06 80.8994 182.052 80.7624 182.048 80.6471C182.045 80.5312 182.044 80.4276 182.046 80.3389C182.049 80.1649 182.06 80.0188 182.069 79.9123C182.079 79.8035 182.091 79.7109 182.1 79.6401C182.119 79.5032 182.139 79.3943 182.15 79.3331C182.163 79.2676 182.174 79.2153 182.18 79.1853C182.187 79.154 182.192 79.1294 182.195 79.1177C182.197 79.1111 182.198 79.1058 182.199 79.1025C182.199 79.0994 182.2 79.0969 182.2 79.0965C182.201 79.0915 182.196 79.1119 182.191 79.1349C182.166 79.2482 182.118 79.4728 182.085 79.7603C182.018 80.3332 182.007 81.1559 182.273 82.0933L188.045 80.457L193.818 78.8208C194.082 79.7549 194.071 80.5748 194.005 81.1456C193.971 81.432 193.924 81.6558 193.899 81.7685C193.894 81.7913 193.889 81.8116 193.89 81.8065C193.89 81.806 193.891 81.8035 193.891 81.8004C193.892 81.7971 193.893 81.7918 193.895 81.7852C193.898 81.7734 193.903 81.7487 193.91 81.7174C193.916 81.6873 193.928 81.635 193.94 81.5695C193.952 81.5083 193.971 81.3993 193.99 81.2623C194 81.1916 194.011 81.099 194.021 80.9901C194.03 80.8836 194.041 80.7375 194.044 80.5635C194.046 80.4748 194.046 80.3711 194.042 80.2552C194.038 80.1399 194.03 80.003 194.015 79.8491C193.999 79.6962 193.975 79.5116 193.934 79.3039C193.894 79.0975 193.834 78.8453 193.74 78.5636L188.045 80.4512ZM188.045 80.457L193.19 83.5447C193.118 83.6646 193.044 83.7777 192.969 83.8842C192.932 83.9374 192.895 83.9891 192.857 84.0393C192.838 84.0644 192.819 84.0891 192.8 84.1135C192.791 84.1257 192.782 84.1378 192.772 84.1498C192.767 84.1558 192.763 84.1617 192.758 84.1677C192.756 84.1707 192.753 84.1737 192.751 84.1766C192.75 84.1781 192.748 84.1796 192.747 84.1811C192.747 84.1818 192.746 84.1825 192.745 84.1833C192.745 84.1837 192.745 84.1842 192.745 84.1844C192.744 84.185 192.744 84.1855 188.057 80.4395C183.37 76.6934 183.369 76.694 183.369 76.6945C183.369 76.6947 183.368 76.6952 183.368 76.6956C183.368 76.6964 183.367 76.6971 183.366 76.6978C183.365 76.6993 183.364 76.7008 183.363 76.7023C183.36 76.7053 183.358 76.7083 183.356 76.7112C183.351 76.7172 183.346 76.7232 183.341 76.7293C183.332 76.7414 183.322 76.7536 183.313 76.766C183.294 76.7907 183.274 76.816 183.255 76.8418C183.216 76.8934 183.177 76.9473 183.138 77.0035C183.059 77.1159 182.98 77.2378 182.901 77.3694L188.045 80.457ZM188.057 80.4395C182.058 80.3314 182.058 80.3301 182.058 80.3287C182.058 80.3283 182.058 80.327 182.058 80.3262C182.058 80.3245 182.058 80.3228 182.058 80.3212C182.058 80.3181 182.058 80.3152 182.058 80.3125C182.058 80.3071 182.058 80.3026 182.058 80.2991C182.059 80.2919 182.059 80.2885 182.059 80.2887C182.059 80.289 182.058 80.3038 182.057 80.3325C182.054 80.3901 182.048 80.5035 182.035 80.6694C182.008 81.0013 181.954 81.5422 181.847 82.2648C181.631 83.7108 181.201 85.8779 180.346 88.5519L186.062 90.3779L191.777 92.2039C192.847 88.8539 193.415 86.0517 193.715 84.0346C193.866 83.0256 193.95 82.2113 193.997 81.621C194.02 81.3258 194.035 81.0863 194.043 80.9063C194.047 80.8163 194.05 80.741 194.052 80.6811C194.053 80.6511 194.054 80.625 194.055 80.6027C194.055 80.5915 194.055 80.5814 194.055 80.5722C194.055 80.5676 194.056 80.5632 194.056 80.5591C194.056 80.557 194.056 80.555 194.056 80.5531C194.056 80.5521 194.056 80.5507 194.056 80.5503C194.056 80.5489 194.056 80.5475 188.057 80.4395ZM186.062 90.3779L180.335 88.588C180.323 88.6263 180.313 88.6583 180.307 88.6792C180.304 88.6899 180.301 88.699 180.299 88.7053C180.298 88.7111 180.296 88.7167 180.296 88.7182C180.295 88.7207 180.295 88.7197 180.296 88.7179C180.296 88.7158 180.298 88.711 180.3 88.7046C180.303 88.692 180.31 88.6685 180.32 88.6386L186.044 90.4365L191.768 92.2345C191.781 92.1948 191.791 92.1616 191.798 92.1392C191.804 92.1182 191.809 92.0998 191.81 92.0963C191.813 92.0884 191.81 92.0963 191.807 92.1059C191.804 92.1171 191.797 92.1393 191.788 92.1679L186.062 90.3779ZM186.044 90.4365L180.275 88.7882C180.287 88.747 180.292 88.7322 180.269 88.8041C180.263 88.8206 180.239 88.8928 180.225 88.9362C180.207 88.9923 180.183 89.0658 180.157 89.1483L185.888 90.9268L191.618 92.7052C191.618 92.7052 191.619 92.7025 191.621 92.6962C191.623 92.6899 191.626 92.6811 191.63 92.6684C191.643 92.6295 191.646 92.6198 191.668 92.5549C191.697 92.4638 191.755 92.2875 191.813 92.0849L186.044 90.4365ZM185.888 90.9268L180.176 89.0907C180.069 89.4239 180.05 89.4543 179.867 90.004L185.559 91.9014L191.251 93.7988C191.287 93.6909 191.5 93.0756 191.6 92.7628L185.888 90.9268ZM185.559 91.9014L179.879 89.9666C179.765 90.3018 179.618 90.6758 179.426 91.131L184.953 93.4648L190.481 95.7987C190.727 95.2156 190.995 94.5507 191.238 93.8361L185.559 91.9014ZM184.953 93.4648L179.376 91.2526C179.036 92.1095 178.658 92.9419 178.242 93.7297L183.546 96.5342L188.85 99.3387C189.495 98.1189 190.051 96.8853 190.531 95.6771L184.953 93.4648ZM183.546 96.5342L178.209 93.7919C177.41 95.3477 176.479 96.8184 175.384 98.1912L180.073 101.934L184.763 105.676C186.402 103.622 187.755 101.47 188.883 99.2764L183.546 96.5342ZM180.073 101.934L175.365 98.2146C174.367 99.4787 173.226 100.655 171.909 101.734L175.712 106.375L179.515 111.016C181.521 109.372 183.265 107.573 184.782 105.653L180.073 101.934ZM175.712 106.375L171.871 101.766C170.223 103.139 168.272 104.382 165.969 105.402L168.399 110.888L170.828 116.374C174.15 114.903 177.051 113.069 179.553 110.984L175.712 106.375ZM168.399 110.888L165.728 105.515C165.658 105.549 165.595 105.583 165.538 105.614C165.48 105.645 165.428 105.674 165.382 105.701C165.336 105.728 165.294 105.753 165.257 105.776C165.22 105.798 165.187 105.819 165.159 105.837C165.131 105.855 165.106 105.872 165.085 105.885C165.065 105.899 165.047 105.911 165.034 105.92C165.021 105.929 165.01 105.936 165.004 105.94C165 105.943 164.998 105.944 164.996 105.946C164.995 105.946 164.994 105.947 164.994 105.947C164.994 105.947 164.994 105.947 164.994 105.947C164.993 105.947 164.993 105.947 164.993 105.947C164.993 105.948 164.994 105.947 164.996 105.946C164.997 105.945 165 105.943 165.003 105.941C165.009 105.937 165.019 105.93 165.032 105.921C165.045 105.912 165.063 105.9 165.083 105.887C165.103 105.874 165.128 105.858 165.156 105.84C165.184 105.822 165.216 105.801 165.253 105.779C165.289 105.756 165.331 105.731 165.377 105.704C165.423 105.678 165.475 105.648 165.532 105.617C165.589 105.587 165.652 105.554 165.721 105.519L168.391 110.893L171.06 116.266C171.13 116.231 171.193 116.198 171.251 116.167C171.308 116.136 171.36 116.107 171.406 116.08C171.453 116.053 171.495 116.028 171.532 116.005C171.569 115.982 171.601 115.962 171.63 115.943C171.658 115.925 171.683 115.909 171.704 115.895C171.724 115.882 171.742 115.87 171.755 115.861C171.768 115.852 171.779 115.845 171.786 115.84C171.789 115.838 171.792 115.836 171.793 115.835C171.794 115.834 171.795 115.834 171.795 115.833C171.796 115.833 171.796 115.833 171.796 115.833C171.796 115.833 171.796 115.833 171.796 115.833C171.796 115.833 171.795 115.833 171.794 115.834C171.792 115.835 171.79 115.837 171.787 115.839C171.781 115.843 171.77 115.851 171.757 115.859C171.744 115.868 171.727 115.88 171.707 115.893C171.687 115.906 171.662 115.922 171.634 115.94C171.606 115.958 171.574 115.979 171.537 116.001C171.501 116.024 171.459 116.049 171.413 116.075C171.367 116.102 171.316 116.131 171.259 116.162C171.202 116.193 171.139 116.226 171.069 116.261L168.399 110.888ZM168.391 110.893L165.723 105.518C164.773 105.99 163.794 106.394 162.789 106.739L164.733 112.415L166.676 118.091C168.15 117.587 169.614 116.984 171.058 116.267L168.391 110.893ZM164.733 112.415L158.78 113.164C158.88 113.962 158.96 114.758 159.016 115.552L165.001 115.125L170.986 114.698C170.913 113.674 170.811 112.663 170.686 111.666L164.733 112.415ZM165.001 115.125L159.018 115.57C159.097 116.641 159.14 117.708 159.14 118.771H165.14H171.14C171.14 117.388 171.084 116.024 170.985 114.68L165.001 115.125ZM165.14 118.771V112.771H165.132V118.771V124.771H165.14V118.771ZM165.132 118.771L159.132 118.771C159.132 119.7 159.096 120.659 159.042 121.642L165.033 121.97L171.024 122.297C171.085 121.192 171.132 119.997 171.132 118.771L165.132 118.771ZM165.033 121.97L159.058 121.426C159.055 121.46 159.018 121.82 159.018 122.223H165.018H171.018C171.018 122.363 171.011 122.468 171.008 122.512C171.007 122.535 171.005 122.549 171.006 122.548C171.006 122.545 171.006 122.539 171.009 122.513L165.033 121.97ZM165.018 122.223L159.032 121.809C158.426 130.581 155.205 138.403 149.965 145.007L154.665 148.736L159.365 152.466C166.036 144.059 170.222 133.949 171.003 122.636L165.018 122.223ZM154.665 148.736L149.961 145.012C145.584 150.54 139.747 155.254 132.773 158.882L135.541 164.205L138.31 169.528C146.618 165.207 153.83 159.457 159.369 152.461L154.665 148.736ZM135.541 164.205L130.581 167.582L133.882 172.43L138.842 169.054L143.802 165.677L140.501 160.829L135.541 164.205ZM138.842 169.054L137.512 174.904L148.335 177.364L149.665 171.514L150.995 165.663L140.172 163.203L138.842 169.054ZM149.665 171.514L148.336 177.365C146.517 176.951 145.376 175.142 145.79 173.321L151.641 174.65L157.492 175.98C158.547 171.336 155.637 166.717 150.995 165.663L149.665 171.514ZM151.641 174.65L145.79 173.32C146.178 171.612 147.792 170.507 149.499 170.717L148.769 176.672L148.038 182.627C152.382 183.16 156.501 180.335 157.491 175.981L151.641 174.65ZM148.769 176.672L149.794 170.76L149.529 170.714L148.504 176.626L147.479 182.538L147.743 182.584L148.769 176.672ZM148.504 176.626L149.834 170.775L143.636 169.367L142.307 175.218L140.977 181.069L147.175 182.477L148.504 176.626ZM142.307 175.218L137.028 178.07L139.606 182.842L144.885 179.99L150.164 177.138L147.586 172.366L142.307 175.218ZM144.885 179.99L139.606 182.841C138.72 181.201 139.33 179.152 140.973 178.264L143.824 183.543L146.676 188.822C150.866 186.559 152.426 181.327 150.164 177.139L144.885 179.99ZM143.824 183.543L140.975 178.263C142.517 177.431 144.41 177.919 145.375 179.34L140.412 182.712L135.449 186.084C137.907 189.702 142.745 190.944 146.674 188.823L143.824 183.543ZM140.412 182.712L145.538 179.593L145.398 179.363L140.273 182.482L135.147 185.601L135.287 185.831L140.412 182.712ZM140.273 182.482L145.551 179.63L143.022 174.949L137.743 177.801L132.464 180.653L134.994 185.334L140.273 182.482ZM137.743 177.801L132.093 175.782L130.23 180.995L135.88 183.015L141.53 185.034L143.393 179.82L137.743 177.801ZM135.88 183.015L137.9 177.365L135.432 176.482L133.411 182.132L131.391 187.781L133.86 188.664L135.88 183.015ZM133.411 182.132L135.43 176.482L132.963 175.6L130.944 181.25L128.925 186.9L131.392 187.782L133.411 182.132ZM130.944 181.25L136.593 183.27L139.989 173.775L134.339 171.755L128.689 169.735L125.294 179.23L130.944 181.25ZM134.339 171.755L139.299 168.379L135.704 163.098L130.744 166.474L125.784 169.85L129.379 175.131L134.339 171.755ZM130.744 166.474L128.387 160.956C126.27 161.861 124.072 162.671 121.801 163.377L123.583 169.106L125.366 174.836C128.023 174.009 130.605 173.058 133.102 171.991L130.744 166.474ZM123.583 169.106L121.768 163.388C119.279 164.177 116.672 164.834 113.962 165.376L115.139 171.26L116.316 177.143C119.398 176.527 122.437 175.765 125.398 174.825L123.583 169.106ZM115.139 171.26L113.969 165.375C110.284 166.107 106.455 166.579 102.504 166.777L102.804 172.77L103.104 178.762C107.62 178.536 112.031 177.995 116.309 177.145L115.139 171.26ZM102.804 172.77L102.458 166.779C101.689 166.824 100.91 166.853 100.128 166.868L100.242 172.867L100.357 178.866C101.288 178.848 102.222 178.813 103.149 178.76L102.804 172.77ZM100.242 172.867L100.174 166.868C99.4492 166.876 98.7581 166.884 98.0724 166.884V172.884V178.884C98.8387 178.884 99.5999 178.875 100.311 178.867L100.242 172.867ZM98.0724 172.884L98.0725 166.884C97.3869 166.884 96.7041 166.876 95.9785 166.868L95.9103 172.867L95.8422 178.867C96.5522 178.875 97.306 178.884 98.0724 178.884L98.0724 172.884ZM95.9103 172.867L96.0476 166.869C91.3828 166.762 86.8513 166.275 82.5227 165.448L81.3976 171.342L80.2726 177.235C85.2602 178.187 90.4527 178.744 95.7731 178.866L95.9103 172.867ZM81.3976 171.342L82.5295 165.45C79.8492 164.935 77.2447 164.287 74.7459 163.509L72.9621 169.237L71.1783 174.966C74.1291 175.885 77.1702 176.639 80.2658 177.234L81.3976 171.342ZM72.9621 169.237L74.7188 163.5C73.493 163.125 72.2839 162.717 71.0914 162.28L69.0265 167.913L66.9616 173.547C68.3483 174.055 69.763 174.533 71.2054 174.974L72.9621 169.237ZM69.0265 167.913L64.0661 164.538L61.4518 168.379L66.4123 171.755L71.3727 175.13L73.987 171.289L69.0265 167.913ZM66.4123 171.755L60.7627 173.775L64.1582 183.27L69.8078 181.25L75.4574 179.23L72.0619 169.735L66.4123 171.755ZM69.8078 181.25L64.1576 183.269C63.53 181.512 64.4443 179.579 66.2015 178.951L68.2219 184.601L70.2422 190.25C74.7251 188.647 77.0594 183.714 75.458 179.231L69.8078 181.25ZM68.2219 184.601L66.2031 178.95C67.9607 178.322 69.8924 179.238 70.5206 180.993L64.8713 183.015L59.222 185.036C60.8251 189.517 65.7575 191.853 70.2406 190.251L68.2219 184.601ZM64.8713 183.015L70.5213 180.995L68.658 175.782L63.008 177.801L57.3579 179.82L59.2212 185.034L64.8713 183.015ZM63.008 177.801L57.7291 174.949L55.1998 179.63L60.4787 182.482L65.7576 185.334L68.2868 180.653L63.008 177.801ZM60.4787 182.482L55.3531 179.363L55.2134 179.593L60.339 182.712L65.4647 185.831L65.6043 185.601L60.4787 182.482ZM60.339 182.712L55.3764 179.34C56.3412 177.92 58.234 177.43 59.7774 178.263L56.9269 183.543L54.0765 188.823C58.0072 190.945 62.8442 189.701 65.3017 186.084L60.339 182.712ZM56.9269 183.543L59.7785 178.264C61.4221 179.152 62.0314 181.201 61.146 182.841L55.8664 179.99L50.5868 177.14C48.3261 181.327 49.8847 186.558 54.0753 188.822L56.9269 183.543ZM55.8664 179.99L61.1454 182.842L63.7235 178.07L58.4445 175.218L53.1655 172.366L50.5874 177.138L55.8664 179.99ZM58.4445 175.218L57.115 169.367L50.9178 170.775L52.2472 176.626L53.5767 182.477L59.774 181.069L58.4445 175.218ZM52.2472 176.626L51.222 170.714L50.9573 170.76L51.9826 176.672L53.0079 182.584L53.2725 182.538L52.2472 176.626ZM51.9826 176.672L51.2524 170.716C52.9588 170.507 54.5727 171.612 54.9612 173.32L49.1105 174.65L43.2599 175.981C44.2499 180.335 48.3698 183.16 52.7128 182.627L51.9826 176.672ZM49.1105 174.65L54.9614 173.321C55.3752 175.143 54.2338 176.951 52.416 177.364L51.0861 171.514L49.7562 165.663C45.1155 166.718 42.2045 171.335 43.2596 175.98L49.1105 174.65ZM51.0861 171.514L52.4159 177.364L63.2391 174.904L61.9094 169.054L60.5796 163.203L49.7563 165.663L51.0861 171.514ZM61.9094 169.054L66.8701 172.429L69.0254 169.261L64.0646 165.886L59.1038 162.511L56.9486 165.679L61.9094 169.054ZM64.0646 165.886L66.5368 160.419C58.1609 156.631 51.2207 151.361 46.1899 145.016L41.4885 148.744L36.787 152.472C43.147 160.493 51.6943 166.877 61.5924 171.353L64.0646 165.886ZM41.4885 148.744C47.4877 148.838 47.4878 148.835 47.4878 148.832C47.4878 148.831 47.4879 148.828 47.4879 148.826C47.488 148.821 47.488 148.817 47.4881 148.813C47.4882 148.805 47.4882 148.797 47.4883 148.788C47.4884 148.772 47.4885 148.755 47.4885 148.738C47.4884 148.703 47.4881 148.668 47.4874 148.631C47.486 148.557 47.4832 148.479 47.4783 148.395C47.4687 148.23 47.4504 148.034 47.4163 147.816C47.3523 147.407 47.2107 146.774 46.8603 146.07C46.4962 145.337 45.8643 144.449 44.8236 143.752C43.7553 143.037 42.6038 142.756 41.5934 142.737L41.4806 148.736L41.3679 154.735C40.3614 154.716 39.2129 154.437 38.1468 153.723C37.1083 153.028 36.4778 152.142 36.1147 151.411C35.7653 150.708 35.6242 150.078 35.5604 149.67C35.5264 149.453 35.5082 149.258 35.4986 149.093C35.4937 149.009 35.4909 148.931 35.4895 148.857C35.4888 148.821 35.4885 148.785 35.4885 148.751C35.4884 148.733 35.4885 148.716 35.4886 148.7C35.4887 148.691 35.4888 148.683 35.4889 148.675C35.4889 148.671 35.489 148.667 35.489 148.663C35.489 148.661 35.4891 148.658 35.4891 148.657C35.4891 148.654 35.4892 148.651 41.4885 148.744ZM41.4806 148.736L46.1837 145.011C40.9278 138.376 37.6925 130.495 37.1153 121.668L31.1281 122.06L25.1409 122.451C25.8855 133.839 30.0903 144.021 36.7776 152.462L41.4806 148.736ZM31.1281 122.06H37.1281C37.1281 121.608 37.0774 121.2 37.0748 121.176L31.1115 121.839L25.1482 122.501C25.1512 122.528 25.1475 122.497 25.1433 122.447C25.141 122.419 25.1375 122.373 25.1345 122.314C25.1315 122.256 25.1281 122.168 25.1281 122.06H31.1281ZM31.1115 121.839L37.102 121.501C37.0504 120.587 37.0217 119.681 37.0217 118.771L31.0217 118.771L25.0217 118.771C25.0217 119.934 25.0584 121.068 25.121 122.177L31.1115 121.839ZM31.0217 118.771H37.0217C37.0217 117.698 37.0577 116.636 37.1295 115.594L31.1437 115.182L25.1579 114.769C25.0666 116.093 25.0217 117.43 25.0217 118.771H31.0217ZM31.1437 115.182L37.1287 115.606C37.1892 114.752 37.2753 113.9 37.3852 113.049L31.4347 112.28L25.4843 111.511C25.3459 112.582 25.2362 113.664 25.1587 114.758L31.1437 115.182ZM31.4347 112.28L33.9367 106.827C31.7473 105.822 29.7186 104.525 27.8859 102.909L23.9181 107.41L19.9503 111.911C22.7002 114.335 25.7259 116.262 28.9328 117.734L31.4347 112.28ZM23.9181 107.41L27.8873 102.911C27.9013 102.923 27.9107 102.931 27.9131 102.934C27.9149 102.935 27.9142 102.935 27.9047 102.926C27.8982 102.92 27.88 102.903 27.8623 102.887C27.843 102.87 27.8164 102.846 27.7854 102.818L23.7951 107.299L19.8047 111.78C19.7944 111.77 19.7883 111.765 19.7895 111.766C19.7922 111.768 19.7944 111.77 19.8084 111.783C19.8274 111.801 19.8837 111.852 19.949 111.91L23.9181 107.41ZM23.7951 107.299L27.5925 102.653C21.678 97.8185 19.1543 91.7396 18.3896 85.5399L12.4347 86.2744L6.47987 87.0089C7.54234 95.6227 11.2279 104.775 19.9976 111.944L23.7951 107.299ZM12.4347 86.2744L18.3806 85.4699C18.3195 85.0183 18.2728 84.581 18.2403 84.1591L12.258 84.6191L6.27565 85.0792C6.32689 85.7455 6.39881 86.4129 6.48893 87.079L12.4347 86.2744ZM12.258 84.6191L18.2402 84.1578C17.9904 80.9183 18.1157 78.3507 18.29 76.6475C18.3772 75.7963 18.4764 75.163 18.5465 74.7721C18.5815 74.5767 18.6092 74.4422 18.6243 74.3717C18.6319 74.3364 18.6363 74.3172 18.637 74.3144C18.6373 74.313 18.6367 74.3157 18.635 74.3226C18.6342 74.326 18.6331 74.3305 18.6318 74.336C18.6311 74.3388 18.6304 74.3418 18.6295 74.3451C18.6291 74.3467 18.6287 74.3484 18.6283 74.3502C18.6281 74.3511 18.6277 74.3524 18.6276 74.3529C18.6273 74.3543 18.6269 74.3557 12.8049 72.9053C6.98281 71.4548 6.98245 71.4563 6.98209 71.4578C6.98196 71.4583 6.98159 71.4597 6.98134 71.4608C6.98083 71.4628 6.98031 71.4649 6.97977 71.4671C6.97869 71.4715 6.97755 71.4761 6.97634 71.481C6.97393 71.4909 6.97127 71.5018 6.96836 71.5139C6.96255 71.538 6.95578 71.5666 6.94813 71.5995C6.93284 71.6654 6.91403 71.7488 6.89243 71.8493C6.84922 72.0502 6.79476 72.3198 6.73472 72.6547C6.61468 73.3244 6.47207 74.2567 6.35243 75.4254C6.11323 77.7619 5.96504 81.0512 6.27575 85.0805L12.258 84.6191ZM12.8049 72.9053C7.00846 74.455 7.00849 74.4551 7.00851 74.4552C7.00852 74.4553 7.00855 74.4554 7.00857 74.4554C7.0086 74.4556 7.00864 74.4557 7.00867 74.4558C7.00874 74.4561 7.00881 74.4563 7.00888 74.4566C7.00902 74.4571 7.00916 74.4577 7.00931 74.4582C7.00959 74.4593 7.00988 74.4603 7.01017 74.4614C7.01075 74.4636 7.01134 74.4658 7.01195 74.468C7.01315 74.4725 7.0144 74.4771 7.01569 74.4818C7.01828 74.4913 7.02103 74.5014 7.02397 74.512C7.02985 74.5332 7.03644 74.5567 7.04378 74.5823L12.8117 72.9297L18.5796 71.2771C18.5823 71.2866 18.5855 71.2978 18.5891 71.3109C18.5909 71.3174 18.5928 71.3244 18.5949 71.3318C18.5959 71.3355 18.5969 71.3394 18.598 71.3433C18.5985 71.3453 18.5991 71.3473 18.5996 71.3493C18.5999 71.3503 18.6002 71.3514 18.6004 71.3524C18.6006 71.3529 18.6007 71.3534 18.6008 71.354C18.6009 71.3542 18.601 71.3545 18.6011 71.3547C18.6011 71.3549 18.6011 71.355 18.6012 71.3551C18.6012 71.3552 18.6012 71.3553 18.6012 71.3553C18.6012 71.3554 18.6013 71.3555 12.8049 72.9053ZM12.8117 72.9297L18.7345 73.8893C18.73 73.9167 18.7259 73.9408 18.7224 73.9609C18.7189 73.981 18.7158 73.9981 18.7134 74.011C18.711 74.0239 18.7091 74.0342 18.708 74.04C18.7074 74.043 18.707 74.0454 18.7067 74.0467C18.7065 74.0478 18.7063 74.0487 18.7064 74.0481C18.7065 74.0479 18.7068 74.0462 18.7072 74.0443C18.7076 74.0422 18.7082 74.039 18.7089 74.0352C18.7103 74.0278 18.7126 74.0159 18.7152 74.0014C18.7179 73.9868 18.7213 73.9682 18.7251 73.9465C18.7289 73.9248 18.7333 73.899 18.738 73.8701L12.8156 72.9082L6.89321 71.9463C6.89762 71.9192 6.9017 71.8952 6.9052 71.8753C6.90868 71.8554 6.91175 71.8385 6.91411 71.8257C6.91645 71.813 6.91835 71.803 6.91943 71.7973C6.92039 71.7922 6.92121 71.7879 6.92085 71.7898C6.92083 71.7899 6.91964 71.7961 6.91829 71.8032C6.91684 71.8109 6.91457 71.8229 6.91187 71.8376C6.90915 71.8524 6.90573 71.8712 6.9019 71.8931C6.89807 71.915 6.89366 71.9409 6.88894 71.9701L12.8117 72.9297ZM12.8156 72.9082L18.7385 73.8668C18.9184 72.7557 19.6151 71.8494 21.1928 71.3821C22.8772 70.8832 25.4266 71.0285 28.0469 72.6082L31.1447 67.4697L34.2425 62.3313C29.0169 59.1809 23.003 58.3307 17.7849 59.8762C12.4601 61.4533 7.91532 65.6312 6.89268 71.9496L12.8156 72.9082ZM31.1447 67.4697L28.0449 72.6069L46.6064 83.8071L49.7062 78.6699L52.8061 73.5327L34.2445 62.3325L31.1447 67.4697ZM49.7062 78.6699L53.7198 83.1298C55.3147 81.6946 57.0074 80.3335 58.7897 79.0549L55.2922 74.1797L51.7947 69.3045C49.6592 70.8365 47.6214 72.4742 45.6926 74.21L49.7062 78.6699ZM55.2922 74.1797H61.2922V73.666H55.2922H49.2922V74.1797H55.2922ZM55.2922 73.666L61.2921 73.6947C61.3002 72.0111 61.3332 66.5472 61.3332 64.0723L55.3332 64.0723L49.3332 64.0723C49.3332 66.5089 49.3005 71.9111 49.2922 73.6373L55.2922 73.666ZM55.3332 64.0723H61.3332C61.3332 39.9422 78.2395 23.0001 98.0725 23L98.0724 17L98.0724 11C70.7032 11.0002 49.3332 34.2616 49.3332 64.0723H55.3332ZM135.88 183.015L130.231 180.993C130.859 179.239 132.79 178.322 134.549 178.951L132.529 184.601L130.51 190.251C134.995 191.853 139.926 189.516 141.529 185.036L135.88 183.015ZM132.529 184.601L134.55 178.951C136.307 179.579 137.221 181.512 136.594 183.268L130.944 181.25L125.293 179.232C123.692 183.713 126.026 188.647 130.509 190.25L132.529 184.601ZM130.944 181.25L128.924 186.9L133.86 188.665L135.88 183.015L137.9 177.365L132.963 175.6L130.944 181.25Z" fill="white" mask="url(#path-1-outside-1_1062_19124)"/>
<path d="M130.3 161.163L137.256 171.382M137.256 171.382L133.412 182.132M137.256 171.382L142.579 181.236M137.256 171.382L149.085 174.069" stroke="#474747" stroke-width="5.24228" stroke-linecap="round"/>
<path d="M70.4512 161.163L63.4951 171.382M63.4951 171.382L67.3394 182.132M63.4951 171.382L58.1721 181.236M63.4951 171.382L51.6663 174.069" stroke="#474747" stroke-width="5.24228" stroke-linecap="round"/>
<path d="M188.051 80.445L188.045 80.4508C188.045 80.4508 188.057 80.4854 188.051 80.5027C187.722 83.6466 187.111 87.0385 186.043 90.4362C185.997 90.5978 185.94 90.7593 185.888 90.9266C185.784 91.2496 185.668 91.5727 185.559 91.9015C185.38 92.4264 185.172 92.9456 184.953 93.4648C184.544 94.4973 184.076 95.5299 183.546 96.5337C182.582 98.4085 181.44 100.22 180.073 101.933C178.815 103.525 177.373 105.013 175.712 106.375C173.635 108.105 171.207 109.646 168.391 110.892C166.92 111.555 165.323 112.126 163.615 112.622C160.062 113.649 156.647 114.099 153.387 114.093L153.382 114.099C148.565 114.082 144.106 113.095 140.027 111.474C140.022 111.469 140.01 111.469 139.998 111.457C139.895 111.422 139.785 111.382 139.681 111.336C139.329 111.192 138.977 111.047 138.626 110.903C138.614 110.903 138.597 110.886 138.591 110.88C138.239 110.724 137.887 110.557 137.529 110.396C137.489 110.378 137.46 110.373 137.431 110.355C133.613 108.532 130.169 106.208 127.169 103.739C127.106 103.687 127.054 103.635 126.99 103.583C126.033 102.775 125.271 101.887 124.66 100.941C124.642 100.912 124.625 100.895 124.608 100.866C122.525 97.5489 122.537 93.5801 124.227 89.9863C125.023 88.2788 126.206 86.6694 127.723 85.256C129.788 83.3293 132.47 81.766 135.678 80.8431L139 79.8855L171.743 70.425C180.546 67.8868 188.801 72.9343 188.034 80.4277L188.051 80.445Z" fill="#276286"/>
<path opacity="0.5" d="M124.625 100.883C127.388 105.227 136.104 110.056 139.998 111.469C149.534 114.936 159.594 115.259 168.391 110.892C177.309 106.462 183.101 98.8587 185.553 91.896C187.976 85.0198 188.056 80.4395 188.056 80.4395C188.056 80.4395 180.788 92.6228 173.646 98.0799C166.493 103.537 155.562 107.662 145.796 106.629C136.035 105.602 131.034 103.197 124.631 100.878L124.625 100.883Z" fill="#14465D"/>
<path d="M63.2803 86.8602L31.1444 67.4698C23.2984 62.7397 14.0184 65.4787 12.816 72.9083C10.9319 84.5089 11.9739 100.59 28.0952 110.321C41.5581 118.449 55.1981 115.887 65.5803 111.174C75.3406 106.754 74.0575 93.3551 63.2833 86.849L63.2803 86.8602Z" fill="#276286"/>
<path opacity="0.5" d="M68.7833 109.07C64.9901 112.551 55.3211 114.958 51.1942 115.316C41.0863 116.197 31.285 113.905 23.9179 107.41C16.4502 100.822 12.8237 91.9795 12.2576 84.6195C11.697 77.3505 12.8045 72.9054 12.8045 72.9054C12.8045 72.9054 16.672 86.5548 22.1578 93.6743C27.6547 100.797 37.1462 107.61 46.8469 109.14C56.5406 110.675 61.9941 109.646 68.7793 109.063L68.7833 109.07Z" fill="#14465D"/>
<path d="M165.131 118.771C165.131 119.848 165.091 120.925 165.033 121.969C165.025 122.059 165.017 122.141 165.017 122.222C164.324 132.265 160.62 141.23 154.665 148.736C147.282 158.061 136.431 165.109 123.582 169.106C120.858 169.971 118.035 170.681 115.139 171.26C111.158 172.052 107.038 172.557 102.804 172.769C101.956 172.818 101.099 172.851 100.242 172.867C99.5245 172.875 98.7984 172.884 98.0723 172.884C97.3463 172.884 96.6284 172.875 95.9105 172.867C90.9177 172.753 86.0556 172.231 81.3973 171.342C78.5094 170.787 75.6867 170.085 72.9619 169.237C59.9335 165.248 48.9528 158.158 41.4882 148.744C41.4882 148.744 41.4882 148.736 41.4801 148.736C35.5084 141.198 31.7883 132.167 31.1275 122.059C31.1275 121.994 31.1194 121.912 31.1112 121.839C31.0541 120.827 31.0215 119.807 31.0215 118.771C31.0215 117.564 31.0623 116.365 31.1439 115.182C32.3105 98.7108 41.4638 84.0998 55.2916 74.1796V73.6657C55.2998 71.9606 55.3324 66.5274 55.3324 64.0718C55.3324 37.1014 74.4712 17 98.0723 17C98.8881 17 99.7039 17.0163 100.512 17.0816C122.987 18.4032 140.82 38.0396 140.82 64.0718C140.82 67.0006 139.956 72.8988 139.54 73.2741C139.637 73.3312 139.727 73.3883 139.801 73.4373C140.519 73.8941 140.853 74.1796 140.853 74.1796C154.681 84.0672 163.826 98.6619 165.001 115.125C165.091 116.332 165.139 117.548 165.139 118.771H165.131Z" fill="#4B9AE8"/>
<path d="M106.214 63.1743C105.708 67.0738 101.401 73.3963 96.9301 73.4289C92.4595 73.4615 87.736 67.0493 87.5157 62.8479C87.2954 58.6547 90.4363 55.7831 97.1095 55.7423C103.856 55.7015 106.72 59.2747 106.214 63.1743Z" fill="#EAC00F"/>
<path d="M106.214 63.1743C105.708 67.0656 101.409 73.3963 96.9303 73.4289C96.2287 73.4289 95.519 73.2821 94.8174 72.9884C98.4722 71.4873 101.605 66.4619 102.037 63.1743C102.486 59.7071 100.267 56.501 95.0213 55.8565C95.674 55.7912 96.3674 55.7504 97.1016 55.7423C103.856 55.7015 106.712 59.2829 106.206 63.1743H106.214Z" fill="#CCA80E"/>
<path d="M120.36 59.8949C125.271 59.8949 129.252 55.9137 129.252 51.0026C129.252 46.0915 125.271 42.1104 120.36 42.1104C115.449 42.1104 111.468 46.0915 111.468 51.0026C111.468 55.9137 115.449 59.8949 120.36 59.8949Z" fill="white"/>
<path d="M120.36 55.7423C122.978 55.7423 125.1 53.6202 125.1 51.0025C123.566 49.4688 122.978 53.8579 120.36 53.8579C117.742 53.8579 117.57 49.0525 115.62 51.0025C115.62 53.6202 117.742 55.7423 120.36 55.7423Z" fill="#040000"/>
<path d="M73.7458 59.8949C78.6568 59.8949 82.638 55.9137 82.638 51.0026C82.638 46.0915 78.6568 42.1104 73.7458 42.1104C68.8347 42.1104 64.8535 46.0915 64.8535 51.0026C64.8535 55.9137 68.8347 59.8949 73.7458 59.8949Z" fill="white"/>
<path d="M74.0533 55.5687C76.671 55.5687 78.7931 53.4466 78.7931 50.8289C77.2594 49.2953 76.671 53.6843 74.0533 53.6843C71.4356 53.6843 71.2635 48.8789 69.3135 50.8289C69.3135 53.4466 71.4356 55.5687 74.0533 55.5687Z" fill="#040000"/>
</svg>
