<svg width="200" height="200" viewBox="0 0 200 200" fill="none" xmlns="http://www.w3.org/2000/svg">
<mask id="path-1-outside-1_1062_20629" maskUnits="userSpaceOnUse" x="15.3574" y="20" width="173" height="160" fill="black">
<rect fill="white" x="15.3574" y="20" width="173" height="160"/>
<path d="M95.1016 26C143.365 26.0001 167.927 57.8079 168.818 97.4951C175.815 97.8065 181.393 103.578 181.393 110.651C181.393 118.321 175.172 119.574 166.7 119.779C159.749 150.771 135.889 173.487 95.1016 173.487C45.9293 173.487 21.3576 140.472 21.3574 99.7441C21.3574 59.0165 45.9292 26 95.1016 26Z"/>
</mask>
<path d="M95.1016 26C143.365 26.0001 167.927 57.8079 168.818 97.4951C175.815 97.8065 181.393 103.578 181.393 110.651C181.393 118.321 175.172 119.574 166.7 119.779C159.749 150.771 135.889 173.487 95.1016 173.487C45.9293 173.487 21.3576 140.472 21.3574 99.7441C21.3574 59.0165 45.9292 26 95.1016 26Z" fill="#EAC00F"/>
<path d="M95.1016 26L95.1016 20H95.1016V26ZM168.818 97.4951L162.82 97.6298C162.891 100.787 165.397 103.349 168.552 103.489L168.818 97.4951ZM181.393 110.651L187.393 110.651L187.393 110.651L181.393 110.651ZM166.7 119.779L166.555 113.781C163.802 113.848 161.448 115.779 160.846 118.466L166.7 119.779ZM95.1016 173.487L95.1016 179.487L95.1016 179.487L95.1016 173.487ZM21.3574 99.7441L15.3574 99.7441L15.3574 99.7442L21.3574 99.7441ZM95.1016 26L95.1015 32C117.845 32.0001 134.39 39.4512 145.378 51.0005C156.432 62.6203 162.401 78.959 162.82 97.6298L168.818 97.4951L174.817 97.3605C174.345 76.3441 167.587 56.9352 154.072 42.7293C140.49 28.4529 120.621 20.0001 95.1016 20L95.1016 26ZM168.818 97.4951L168.552 103.489C172.356 103.658 175.393 106.802 175.393 110.651L181.393 110.651L187.393 110.651C187.393 100.353 179.274 91.9545 169.085 91.501L168.818 97.4951ZM181.393 110.651H175.393C175.393 111.756 175.173 112.147 175.136 112.21C175.114 112.245 175.029 112.405 174.555 112.64C173.268 113.279 170.842 113.677 166.555 113.781L166.7 119.779L166.846 125.778C171.03 125.676 175.951 125.345 179.891 123.389C182.032 122.326 184.031 120.721 185.441 118.359C186.834 116.023 187.393 113.382 187.393 110.651H181.393ZM166.7 119.779L160.846 118.466C157.625 132.823 150.564 144.985 139.839 153.571C129.129 162.146 114.349 167.487 95.1015 167.487L95.1016 173.487L95.1016 179.487C116.641 179.487 134.185 173.47 147.339 162.939C160.479 152.419 168.824 137.727 172.555 121.092L166.7 119.779ZM95.1016 173.487V167.487C71.9341 167.487 55.193 159.757 44.2035 147.824C33.1395 135.81 27.3575 118.935 27.3574 99.7441L21.3574 99.7441L15.3574 99.7442C15.3575 121.281 21.8614 141.278 35.3764 155.953C48.9658 170.71 69.0967 179.487 95.1016 179.487V173.487ZM21.3574 99.7441H27.3574C27.3574 80.5529 33.1394 63.6781 44.2035 51.6637C55.193 39.7302 71.9341 32 95.1016 32V26V20C69.0966 20 48.9657 28.778 35.3762 43.5347C21.8613 58.2105 15.3574 78.2077 15.3574 99.7441H21.3574Z" fill="white" mask="url(#path-1-outside-1_1062_20629)"/>
<path d="M95.1012 173.488C144.273 173.488 168.845 140.472 168.845 99.7438C168.845 59.0162 144.273 26 95.1012 26C45.9288 26 21.3574 59.0162 21.3574 99.7438C21.3574 140.472 45.9288 173.488 95.1012 173.488Z" fill="#4B9AE8"/>
<path d="M62.1337 98.7322C72.5532 98.7322 80.9998 90.2856 80.9998 79.8661C80.9998 69.4466 72.5532 61 62.1337 61C51.7142 61 43.2676 69.4466 43.2676 79.8661C43.2676 90.2856 51.7142 98.7322 62.1337 98.7322Z" fill="white"/>
<path d="M64.5 91C69.1944 91 73 87.1944 73 82.5C73 77.8056 69.1944 74 64.5 74C59.8056 74 56 77.8056 56 82.5C56 87.1944 59.8056 91 64.5 91Z" fill="black"/>
<path d="M128.08 98.7322C117.661 98.7322 109.214 90.2856 109.214 79.8661C109.214 69.4466 117.661 61 128.08 61C138.5 61 146.946 69.4466 146.946 79.8661C146.946 90.2856 138.5 98.7322 128.08 98.7322Z" fill="white"/>
<path d="M125.714 91C121.019 91 117.214 87.1944 117.214 82.5C117.214 77.8056 121.019 74 125.714 74C130.408 74 134.214 77.8056 134.214 82.5C134.214 87.1944 130.408 91 125.714 91Z" fill="black"/>
<path d="M81.3037 106.651C81.3037 99.3781 87.2 93.4818 94.4733 93.4818L168.223 97.4818C175.496 97.4818 181.392 103.378 181.392 110.651C181.392 119.821 172.5 119.821 161.5 119.821H94.4733C87.2 119.821 81.3037 113.925 81.3037 106.651Z" fill="#EAC00F"/>
</svg>
