<svg width="200" height="200" viewBox="0 0 200 200" fill="none" xmlns="http://www.w3.org/2000/svg">
<mask id="path-1-outside-1_1347_13305" maskUnits="userSpaceOnUse" x="10" y="9" width="183" height="167" fill="black">
<rect fill="white" x="10" y="9" width="183" height="167"/>
<path d="M86.7559 15C89.6003 15 106.667 26.3779 100.979 46.2891C100.017 49.6534 99.4007 52.0225 98.9287 53.6914C100.492 54.3533 101.819 55.229 102.903 56.3584C107.153 55.269 112.193 54.8223 118.044 54.8223C131.471 54.8223 144.455 59.5196 151.775 68.541C168.682 69.2196 176.117 70.7321 180.586 74.0762C188.164 79.7492 190.059 163.186 180.586 166.429C171.113 169.669 27.5913 172.504 20.4844 166.429C13.3793 160.353 15.7479 80.152 20.4844 74.0762C24.0603 69.489 35.7362 68.3642 65.501 68.0889C67.8847 62.0662 72.8767 56.8573 78.792 54.0918C78.4129 52.992 78.0242 51.7048 77.625 50.2002C74.6014 38.8142 64.097 21.4176 66.8467 20.6885C69.5944 19.9575 89.0105 26.5768 88.6211 47.2812C88.5864 49.1238 88.5737 50.6754 88.5654 51.9844C89.017 51.9896 89.4604 51.9975 89.8955 52.0137C89.7058 50.5287 89.6006 48.6547 89.6006 46.2891C89.6006 34.5079 83.9123 15.0017 86.7559 15Z"/>
</mask>
<path d="M86.7559 15C89.6003 15 106.667 26.3779 100.979 46.2891C100.017 49.6534 99.4007 52.0225 98.9287 53.6914C100.492 54.3533 101.819 55.229 102.903 56.3584C107.153 55.269 112.193 54.8223 118.044 54.8223C131.471 54.8223 144.455 59.5196 151.775 68.541C168.682 69.2196 176.117 70.7321 180.586 74.0762C188.164 79.7492 190.059 163.186 180.586 166.429C171.113 169.669 27.5913 172.504 20.4844 166.429C13.3793 160.353 15.7479 80.152 20.4844 74.0762C24.0603 69.489 35.7362 68.3642 65.501 68.0889C67.8847 62.0662 72.8767 56.8573 78.792 54.0918C78.4129 52.992 78.0242 51.7048 77.625 50.2002C74.6014 38.8142 64.097 21.4176 66.8467 20.6885C69.5944 19.9575 89.0105 26.5768 88.6211 47.2812C88.5864 49.1238 88.5737 50.6754 88.5654 51.9844C89.017 51.9896 89.4604 51.9975 89.8955 52.0137C89.7058 50.5287 89.6006 48.6547 89.6006 46.2891C89.6006 34.5079 83.9123 15.0017 86.7559 15Z" fill="#7AB9F8"/>
<path d="M86.7559 15V9L86.7522 9L86.7559 15ZM100.979 46.2891L95.2094 44.6407V44.6407L100.979 46.2891ZM98.9287 53.6914L93.1552 52.0585C92.3321 54.9689 93.8039 58.037 96.589 59.2164L98.9287 53.6914ZM102.903 56.3584L98.5754 60.514C100.074 62.0749 102.297 62.7078 104.393 62.1705L102.903 56.3584ZM118.044 54.8223V48.8223H118.044L118.044 54.8223ZM151.775 68.541L147.116 72.3216C148.203 73.6603 149.812 74.4671 151.535 74.5362L151.775 68.541ZM180.586 74.0762L184.182 69.2729L184.181 69.2721L180.586 74.0762ZM180.586 166.429L182.528 172.106L182.529 172.105L180.586 166.429ZM20.4844 166.429L16.5849 170.989L16.5855 170.989L20.4844 166.429ZM20.4844 74.0762L15.7523 70.3873L15.7523 70.3873L20.4844 74.0762ZM65.501 68.0889L65.5565 74.0886C67.9975 74.066 70.1815 72.5668 71.0799 70.297L65.501 68.0889ZM78.792 54.0918L81.3331 59.5271C84.1137 58.2271 85.4648 55.0381 84.4644 52.1362L78.792 54.0918ZM77.625 50.2002L83.4244 48.6616L83.424 48.6603L77.625 50.2002ZM66.8467 20.6885L68.3846 26.488L68.3893 26.4868L66.8467 20.6885ZM88.6211 47.2812L94.62 47.3942V47.3941L88.6211 47.2812ZM88.5654 51.9844L82.5656 51.9465C82.5447 55.248 85.1951 57.946 88.4965 57.984L88.5654 51.9844ZM89.8955 52.0137L89.6732 58.0096C91.4346 58.0749 93.1356 57.3624 94.3246 56.0612C95.5137 54.7601 96.0705 53.0019 95.8472 51.2535L89.8955 52.0137ZM89.6006 46.2891H83.6006V46.2891L89.6006 46.2891ZM86.7559 15V21C85.6644 21 85.194 20.6356 85.8166 20.935C86.1695 21.1047 86.744 21.433 87.4694 21.956C88.9163 22.9991 90.6763 24.6091 92.2288 26.7261C95.2502 30.8461 97.4555 36.7793 95.2094 44.6407L100.979 46.2891L106.748 47.9374C110.19 35.8877 106.707 26.1764 101.906 19.6296C99.5469 16.4133 96.8623 13.9343 94.4869 12.2218C93.3012 11.367 92.1201 10.6509 91.0174 10.1206C90.1844 9.72 88.5584 9 86.7559 9V15ZM100.979 46.2891L95.2094 44.6407C94.3152 47.7705 93.5147 50.7872 93.1552 52.0585L98.9287 53.6914L104.702 55.3243C105.287 53.2579 105.719 51.5363 106.748 47.9374L100.979 46.2891ZM98.9287 53.6914L96.589 59.2164C97.5129 59.6077 98.131 60.0511 98.5754 60.514L102.903 56.3584L107.231 52.2028C105.507 50.4069 103.471 49.099 101.268 48.1664L98.9287 53.6914ZM102.903 56.3584L104.393 62.1705C107.964 61.255 112.449 60.8223 118.044 60.8223L118.044 54.8223L118.044 48.8223C111.937 48.8223 106.341 49.283 101.413 50.5463L102.903 56.3584ZM118.044 54.8223V60.8223C130.319 60.8223 141.293 65.1446 147.116 72.3216L151.775 68.541L156.435 64.7605C147.618 53.8947 132.624 48.8223 118.044 48.8223V54.8223ZM151.775 68.541L151.535 74.5362C159.91 74.8723 165.628 75.407 169.7 76.1987C173.73 76.9823 175.742 77.9451 176.991 78.8802L180.586 74.0762L184.181 69.2721C180.961 66.8632 177.021 65.3976 171.99 64.4193C167 63.4491 160.548 62.8883 152.016 62.5458L151.775 68.541ZM180.586 74.0762L176.99 78.8794C176.255 78.3287 176.193 77.8842 176.495 78.5348C176.724 79.0297 177.024 79.8582 177.355 81.0933C178.013 83.549 178.631 86.9841 179.163 91.1956C180.221 99.5786 180.864 110.402 180.981 121.229C181.097 132.07 180.684 142.689 179.694 150.691C179.194 154.727 178.576 157.844 177.907 159.92C177.568 160.968 177.295 161.5 177.173 161.691C176.995 161.969 177.385 161.183 178.643 160.752L180.586 166.429L182.529 172.105C184.971 171.269 186.456 169.451 187.288 168.148C188.175 166.757 188.825 165.159 189.327 163.605C190.337 160.475 191.066 156.497 191.603 152.166C192.684 143.434 193.1 132.232 192.98 121.099C192.86 109.952 192.2 98.65 191.068 89.6917C190.505 85.2324 189.805 81.193 188.946 77.9872C188.518 76.3916 188.009 74.8426 187.383 73.4904C186.829 72.294 185.865 70.5328 184.182 69.2729L180.586 74.0762ZM180.586 166.429L178.644 160.752C178.715 160.727 178.183 160.872 176.558 161.076C175.118 161.257 173.191 161.442 170.814 161.626C166.07 161.994 159.737 162.344 152.321 162.655C137.499 163.279 118.515 163.746 99.5917 163.923C80.6584 164.099 61.8587 163.985 47.3872 163.452C40.1364 163.185 34.0731 162.816 29.6577 162.34C27.4369 162.101 25.7634 161.849 24.6175 161.601C24.0417 161.477 23.7148 161.378 23.5725 161.326C23.3188 161.235 23.7765 161.349 24.3832 161.868L20.4844 166.429L16.5855 170.989C17.6364 171.888 18.8048 172.364 19.5116 172.618C20.3298 172.913 21.2134 173.142 22.0815 173.33C23.8234 173.707 25.9713 174.013 28.3735 174.272C33.2043 174.792 39.5936 175.173 46.9454 175.444C61.6789 175.986 80.6842 176.1 99.7038 175.922C118.733 175.744 137.85 175.275 152.825 174.645C160.307 174.33 166.797 173.974 171.742 173.59C174.21 173.399 176.345 173.197 178.051 172.983C179.573 172.792 181.273 172.535 182.528 172.106L180.586 166.429ZM20.4844 166.429L24.3839 161.869C25.0496 162.438 25.0847 162.855 24.8266 162.214C24.6283 161.722 24.3772 160.904 24.1131 159.69C23.5877 157.274 23.1425 153.915 22.8003 149.793C22.1192 141.59 21.8966 131.015 22.0432 120.335C22.1897 109.667 22.7022 99.0421 23.4619 90.7634C23.843 86.6113 24.2772 83.1502 24.7372 80.608C24.9685 79.33 25.187 78.3934 25.3744 77.7662C25.6209 76.9417 25.6544 77.2032 25.2164 77.765L20.4844 74.0762L15.7523 70.3873C14.7223 71.7086 14.1822 73.3088 13.8771 74.3295C13.513 75.5476 13.2019 76.963 12.929 78.4713C12.3806 81.5018 11.9082 85.3507 11.5121 89.6668C10.7176 98.3245 10.194 109.269 10.0444 120.17C9.8949 131.059 10.1164 142.053 10.8414 150.786C11.2023 155.133 11.7007 159.084 12.3872 162.24C12.7291 163.812 13.1511 165.347 13.6963 166.7C14.1818 167.904 15.0311 169.66 16.5849 170.989L20.4844 166.429ZM20.4844 74.0762L25.2164 77.765C25.1829 77.808 25.4624 77.406 26.9032 76.8787C28.357 76.3466 30.5763 75.8382 33.9187 75.4189C40.6131 74.5791 50.6432 74.2266 65.5565 74.0886L65.501 68.0889L65.4455 62.0891C50.5941 62.2265 39.9038 62.574 32.425 63.5122C28.6809 63.9819 25.4505 64.632 22.7791 65.6096C20.0948 66.592 17.5738 68.0507 15.7523 70.3873L20.4844 74.0762ZM65.501 68.0889L71.0799 70.297C72.8823 65.743 76.7611 61.6646 81.3331 59.5271L78.792 54.0918L76.2509 48.6565C68.9923 52.05 62.887 58.3895 59.9221 65.8808L65.501 68.0889ZM78.792 54.0918L84.4644 52.1362C84.1421 51.2015 83.7946 50.0571 83.4244 48.6616L77.625 50.2002L71.8256 51.7388C72.2538 53.3526 72.6836 54.7826 73.1196 56.0474L78.792 54.0918ZM77.625 50.2002L83.424 48.6603C81.7501 42.3568 78.084 34.5875 75.5348 28.969C74.1754 25.9729 73.1612 23.6591 72.6303 22.0867C72.3383 21.2221 72.3724 21.0874 72.388 21.3825C72.3948 21.5123 72.4424 22.3433 71.9915 23.3896C71.4141 24.7293 70.1739 26.0136 68.3845 26.488L66.8467 20.6885L65.3088 14.8889C63.1757 15.4545 61.6954 16.9602 60.9713 18.6403C60.3736 20.0271 60.3678 21.3178 60.4047 22.0153C60.4802 23.4458 60.9074 24.8788 61.2609 25.9255C62.0207 28.1759 63.306 31.0596 64.6069 33.9271C67.3784 40.0356 70.4763 46.6576 71.826 51.7401L77.625 50.2002ZM66.8467 20.6885L68.3893 26.4868C67.3327 26.7679 66.7827 26.5359 67.4616 26.6655C67.8458 26.7389 68.4851 26.9088 69.3204 27.2281C70.9863 27.8649 73.1004 28.9694 75.1442 30.6174C79.1218 33.8245 82.7759 38.9937 82.6222 47.1684L88.6211 47.2812L94.62 47.3941C94.8557 34.8643 88.9965 26.3716 82.6764 21.2757C79.5714 18.7722 76.3406 17.0649 73.6054 16.0192C72.2401 15.4972 70.9147 15.1081 69.7127 14.8786C68.8054 14.7053 67.0476 14.4263 65.3041 14.8902L66.8467 20.6885ZM88.6211 47.2812L82.6222 47.1683C82.5868 49.0473 82.5739 50.6273 82.5656 51.9465L88.5654 51.9844L94.5653 52.0222C94.5735 50.7235 94.586 49.2003 94.62 47.3942L88.6211 47.2812ZM88.5654 51.9844L88.4965 57.984C88.9264 57.9889 89.3119 57.9962 89.6732 58.0096L89.8955 52.0137L90.1178 46.0178C89.6088 45.9989 89.1076 45.9902 88.6344 45.9848L88.5654 51.9844ZM89.8955 52.0137L95.8472 51.2535C95.6998 50.0999 95.6006 48.4954 95.6006 46.2891L89.6006 46.2891L83.6006 46.2891C83.6006 48.814 83.7119 50.9575 83.9439 52.7738L89.8955 52.0137ZM89.6006 46.2891H95.6006C95.6006 39.7666 94.0511 31.3175 93.029 25.2332C92.484 21.9888 92.0973 19.4923 91.9876 17.8362C91.9272 16.9256 91.9946 16.8036 91.9342 17.092C91.9076 17.2189 91.7407 18.0333 91.0379 18.9282C90.1382 20.0737 88.6117 20.9989 86.7595 21L86.7559 15L86.7522 9C84.5446 9.00136 82.7293 10.0791 81.6005 11.5163C80.6686 12.7029 80.3324 13.948 80.1892 14.6314C79.8955 16.033 79.9408 17.5272 80.0139 18.6297C80.1709 20.9996 80.6732 24.1162 81.1948 27.2212C82.306 33.8358 83.6006 41.0303 83.6006 46.2891H89.6006Z" fill="white" mask="url(#path-1-outside-1_1347_13305)"/>
<path d="M20.4841 74.0759C25.2206 68 44.1678 68 100.535 68C156.902 68 173.007 68.4051 180.586 74.0759C188.165 79.7467 190.059 163.188 180.586 166.429C171.112 169.669 27.5892 172.505 20.4841 166.429C13.379 160.353 15.7477 80.1517 20.4841 74.0759Z" fill="#F6EADF"/>
<path d="M89.6009 46.289C89.6009 34.5072 83.912 15 86.7564 15C89.6009 15 106.668 26.3778 100.979 46.289C97.7417 57.6184 98.43 57.6668 95.2898 57.6668C92.1495 57.6668 89.6009 58.0707 89.6009 46.289Z" fill="#6AA6E0"/>
<path d="M91.1651 48.2918C91.1651 38.5808 87.4758 22.5068 89.3219 22.5068C91.1651 22.5068 102.23 31.8821 98.5407 48.2918C96.4415 57.6273 96.8881 57.6671 94.8515 57.6671C92.8149 57.6671 91.1651 57.9999 91.1651 48.2918Z" fill="#276288"/>
<path d="M77.6248 50.1997C74.6012 38.8133 64.0966 21.4167 66.8472 20.6885C69.5949 19.9575 89.0112 26.5765 88.6215 47.2813C88.3996 59.063 89.0794 58.9321 86.0416 59.7371C83.0037 60.5421 80.6456 61.586 77.6248 50.1997Z" fill="#6AA6E0"/>
<path d="M79.6439 51.7329C77.155 42.3491 69.4636 27.757 71.247 27.2848C73.0305 26.8098 86.1292 33.0363 86.772 49.8413C87.139 59.4015 87.5827 59.3276 85.6144 59.851C83.646 60.3715 82.1356 61.1167 79.6439 51.7329Z" fill="#276288"/>
<path d="M146.487 96.0669C146.487 98.7073 147.536 101.24 149.403 103.107C151.27 104.974 153.802 106.022 156.443 106.022C159.083 106.022 161.616 104.974 163.483 103.107C165.35 101.24 166.398 98.7073 166.398 96.0669C166.398 93.4265 165.35 90.8943 163.483 89.0273C161.616 87.1602 159.083 86.1113 156.443 86.1113C153.802 86.1113 151.27 87.1602 149.403 89.0273C147.536 90.8943 146.487 93.4265 146.487 96.0669Z" fill="#84BAEE"/>
<path d="M151.419 105.271C155.668 101.34 157.867 95.2644 157.867 86.111C157.867 65.6878 138.468 54.822 118.045 54.822C112.194 54.822 107.153 55.2686 102.904 56.358C99.8173 53.1438 94.7684 51.9775 87.8934 51.9775C75.7646 51.9775 64 63.5516 64 75.6804C64 87.4279 75.0365 88.8701 86.7528 88.9469L86.7556 88.9554C95.289 103.178 89.6001 117.4 95.289 117.4C99.806 117.4 100.733 111.094 100.924 104.955C103.962 106.841 107.347 108.343 110.968 109.441C108.473 110.932 106.667 112.482 106.667 113.133C106.667 117.061 112.356 117.4 120.889 117.4C136.596 117.4 157.867 117.4 152.178 106.022C152.024 105.718 151.748 105.482 151.419 105.271Z" fill="#6AA6E0"/>
<path d="M80.7988 70.5976C84.0014 70.5976 86.5976 68.0014 86.5976 64.7988C86.5976 61.5962 84.0014 59 80.7988 59C77.5962 59 75 61.5962 75 64.7988C75 68.0014 77.5962 70.5976 80.7988 70.5976Z" fill="white"/>
<path d="M80.7995 67.8684C82.4949 67.8684 83.8694 66.494 83.8694 64.7985C83.8694 63.103 82.4949 61.7285 80.7995 61.7285C79.104 61.7285 77.7295 63.103 77.7295 64.7985C77.7295 66.494 79.104 67.8684 80.7995 67.8684Z" fill="black"/>
<path d="M69.6889 74.7337C69.6889 77.874 68.2667 80.4226 66.8445 80.4226C65.4222 80.4226 64 77.874 64 74.7337C64 71.5934 65.2743 71.8893 66.8445 71.8893C68.4146 71.8893 69.6889 71.5934 69.6889 74.7337Z" fill="#276288"/>
<path d="M80.8785 114.442C80.8785 139.32 97.4986 138.893 93.9167 139.917C76.2222 144.972 71.6647 120.66 69.9938 120.66C63.9826 120.66 56 119.591 56 114.442C56 109.287 62.2183 102 71.5484 102C77.5619 102 80.8785 109.287 80.8785 114.442ZM147 136.474C147 139.265 138.107 134.601 134.361 136.474C129.306 139.002 129.306 134.209 129.306 131.418C129.306 128.627 132.7 128.89 136.889 128.89C141.078 128.89 147 133.681 147 136.474Z" fill="#6AA6E0"/>
<path d="M98.2509 147.861C98.2509 154.841 95.018 155.083 91.029 155.083C87.04 155.083 83.8047 154.838 83.8047 147.861C83.8047 146.625 84.0195 145.26 84.3961 143.85C86.1403 137.303 91.3576 129.806 94.6388 129.806C98.6275 129.806 98.2509 140.882 98.2509 147.861ZM119.917 147.861C119.917 154.841 123.147 155.083 127.136 155.083C131.127 155.083 134.36 154.838 134.36 147.861C134.36 146.625 134.145 145.26 133.769 143.85C132.022 137.303 126.807 129.806 123.526 129.806C119.537 129.806 119.917 140.882 119.917 147.861Z" fill="#6AA6E0"/>
<path d="M136.889 132.333C136.889 142.444 123.873 142.444 107.819 142.444C91.7655 142.444 78.75 142.444 78.75 132.333C78.75 115.582 91.7655 102 107.819 102C123.873 102 136.889 115.582 136.889 132.333Z" fill="#276288"/>
<path d="M69.3604 114.721C71.7685 114.721 73.7207 112.769 73.7207 110.36C73.7207 107.952 71.7685 106 69.3604 106C66.9522 106 65 107.952 65 110.36C65 112.769 66.9522 114.721 69.3604 114.721Z" fill="white"/>
<path d="M69.3612 112.669C70.6361 112.669 71.6696 111.635 71.6696 110.36C71.6696 109.085 70.6361 108.052 69.3612 108.052C68.0863 108.052 67.0527 109.085 67.0527 110.36C67.0527 111.635 68.0863 112.669 69.3612 112.669Z" fill="black"/>
<path d="M115.824 127.531C115.824 136.608 112.24 137.389 107.819 137.389C103.398 137.389 99.8132 136.605 99.8132 127.531C99.8132 118.456 103.395 107.056 107.819 107.056C112.242 107.056 115.824 118.456 115.824 127.531ZM131.833 124.75C134.034 133.552 129.851 134.861 125.43 134.861C121.009 134.861 119.027 136.605 119.027 127.531C119.027 118.456 116.206 111.1 120.627 111.1C125.046 111.1 129.305 114.639 131.833 124.75ZM96.6132 127.531C96.6132 136.608 94.6289 134.861 90.2076 134.861C85.7864 134.861 81.6031 133.552 83.8049 124.75C86.3327 114.639 92.0227 111.1 96.4438 111.1C100.867 111.1 96.6132 118.456 96.6132 127.531Z" fill="#7AB9F8"/>
</svg>
