<svg width="200" height="200" viewBox="0 0 200 200" fill="none" xmlns="http://www.w3.org/2000/svg">
<mask id="path-1-outside-1_1062_25396" maskUnits="userSpaceOnUse" x="10" y="20" width="181" height="167" fill="black">
<rect fill="white" x="10" y="20" width="181" height="167"/>
<path d="M125.267 26C125.561 26 125.849 26.0299 126.127 26.0869C127.794 26.4279 129.105 27.7397 129.446 29.4062C129.503 29.6842 129.533 29.9719 129.533 30.2666V30.2676C129.835 30.2673 130.138 30.3313 130.42 30.4609C133.59 31.9053 136.986 32.6074 140.805 32.6074C145.696 32.6074 150.569 31.4958 155.728 30.3203C160.886 29.1427 166.224 27.9268 171.596 27.9268C176.04 27.9268 180.014 28.7544 183.752 30.459C184.511 30.8047 185 31.5643 185 32.4004V72.9346C185 73.6597 184.631 74.336 184.019 74.7305C183.409 75.123 182.643 75.1763 181.98 74.8779C178.812 73.4316 175.413 72.7295 171.594 72.7295C166.702 72.7295 161.829 73.8392 156.671 75.0146C151.512 76.1922 146.175 77.4082 140.803 77.4082C136.71 77.4082 133.013 76.7028 129.533 75.2588V85.0049C129.688 85.0024 129.844 85 130 85C132.301 85 134.51 85.1208 136.415 85.6338C139.438 86.2866 141.801 88.3433 142.355 91.4873L142.372 91.4971L142.368 91.5029C142.369 91.5047 142.385 91.5271 142.384 91.541C142.815 94.0182 143.083 96.7465 143.004 99.5781C143.004 99.7116 142.995 99.8481 142.991 99.9873C142.982 100.257 142.964 100.529 142.951 100.805C142.928 101.245 142.882 101.688 142.827 102.133C142.738 103.012 142.604 103.904 142.416 104.787C142.086 106.431 141.605 108.065 140.931 109.673C140.314 111.164 139.534 112.616 138.558 114.019C137.632 115.373 136.525 116.685 135.216 117.927C136.14 121.185 136.64 124.568 136.64 128.028H136.615C136.615 137.02 133.597 145.023 128.391 151.589C123.744 157.449 117.355 162.169 109.813 165.438L111.235 170.878L116.347 171.063C117.001 171.087 117.513 171.637 117.489 172.291C117.465 172.945 116.915 173.455 116.261 173.432L111.913 173.274L113.322 178.062C113.507 178.689 113.147 179.348 112.52 179.533C111.892 179.718 111.233 179.357 111.048 178.729L109.826 174.577L105.467 180.163C105.064 180.678 104.32 180.77 103.804 180.368C103.288 179.965 103.196 179.22 103.599 178.704L109.017 171.763L107.599 166.344C100.947 168.903 93.4887 170.375 85.5919 170.559C85.0309 170.574 84.4615 170.583 83.8927 170.583C83.324 170.583 82.7553 170.582 82.1944 170.559C73.2352 170.35 64.8396 168.485 57.547 165.254L55.7179 169.788L59.7618 175.833C60.1257 176.377 59.9804 177.114 59.4366 177.478C58.8927 177.841 58.1561 177.695 57.7921 177.151L54.4239 172.117L50.4942 178.496C50.1508 179.053 49.4196 179.227 48.8624 178.884C48.3059 178.54 48.1329 177.811 48.4757 177.254L51.8526 171.772L46.0714 173.203L45.9522 173.226C45.3577 173.31 44.7831 172.931 44.6358 172.336C44.4793 171.701 44.8671 171.059 45.502 170.901L53.5128 168.92L55.3976 164.246C48.9725 161.063 43.5029 156.774 39.3946 151.597V151.589C34.5834 145.522 31.6429 138.227 31.2237 130.06C30.8759 129.963 30.5304 129.861 30.1886 129.751C29.3256 129.485 28.4821 129.167 27.671 128.816C27.2557 128.648 26.8471 128.472 26.4513 128.277C26.2047 128.154 25.958 128.037 25.7179 127.914C25.5947 127.849 25.4713 127.791 25.3546 127.727C22.8432 126.416 20.5911 124.851 18.6378 123.268C18.6249 123.261 18.6114 123.235 18.6114 123.235H18.6056V123.216C13.9593 119.433 15.7629 111.951 22.1417 108.427L45.88 95.3311L48.2882 94.001C48.8301 93.7013 49.3757 93.4377 49.922 93.208C50.0339 93.1264 50.1462 93.0446 50.2589 92.9639C50.2591 92.9245 50.2901 87.3146 50.2901 85.0078C50.2902 63.8019 65.3413 48.0002 83.9083 48C102.475 48 117.519 63.8018 117.519 85.0078C117.519 87.3149 116.69 92.7432 116.69 92.7432C116.983 92.9531 117.274 93.1663 117.563 93.3818C117.522 93.0945 117.5 92.8006 117.5 92.5C117.5 89.9793 118.857 88.1516 121 86.9307V30.2666C121 29.6044 121.151 28.9774 121.421 28.418C121.78 27.6713 122.35 27.0449 123.054 26.6172C123.112 26.5816 123.172 26.5475 123.233 26.5146C123.595 26.3177 123.99 26.1721 124.406 26.0869C124.684 26.0299 124.972 26 125.267 26Z"/>
</mask>
<path d="M125.267 26C125.561 26 125.849 26.0299 126.127 26.0869C127.794 26.4279 129.105 27.7397 129.446 29.4062C129.503 29.6842 129.533 29.9719 129.533 30.2666V30.2676C129.835 30.2673 130.138 30.3313 130.42 30.4609C133.59 31.9053 136.986 32.6074 140.805 32.6074C145.696 32.6074 150.569 31.4958 155.728 30.3203C160.886 29.1427 166.224 27.9268 171.596 27.9268C176.04 27.9268 180.014 28.7544 183.752 30.459C184.511 30.8047 185 31.5643 185 32.4004V72.9346C185 73.6597 184.631 74.336 184.019 74.7305C183.409 75.123 182.643 75.1763 181.98 74.8779C178.812 73.4316 175.413 72.7295 171.594 72.7295C166.702 72.7295 161.829 73.8392 156.671 75.0146C151.512 76.1922 146.175 77.4082 140.803 77.4082C136.71 77.4082 133.013 76.7028 129.533 75.2588V85.0049C129.688 85.0024 129.844 85 130 85C132.301 85 134.51 85.1208 136.415 85.6338C139.438 86.2866 141.801 88.3433 142.355 91.4873L142.372 91.4971L142.368 91.5029C142.369 91.5047 142.385 91.5271 142.384 91.541C142.815 94.0182 143.083 96.7465 143.004 99.5781C143.004 99.7116 142.995 99.8481 142.991 99.9873C142.982 100.257 142.964 100.529 142.951 100.805C142.928 101.245 142.882 101.688 142.827 102.133C142.738 103.012 142.604 103.904 142.416 104.787C142.086 106.431 141.605 108.065 140.931 109.673C140.314 111.164 139.534 112.616 138.558 114.019C137.632 115.373 136.525 116.685 135.216 117.927C136.14 121.185 136.64 124.568 136.64 128.028H136.615C136.615 137.02 133.597 145.023 128.391 151.589C123.744 157.449 117.355 162.169 109.813 165.438L111.235 170.878L116.347 171.063C117.001 171.087 117.513 171.637 117.489 172.291C117.465 172.945 116.915 173.455 116.261 173.432L111.913 173.274L113.322 178.062C113.507 178.689 113.147 179.348 112.52 179.533C111.892 179.718 111.233 179.357 111.048 178.729L109.826 174.577L105.467 180.163C105.064 180.678 104.32 180.77 103.804 180.368C103.288 179.965 103.196 179.22 103.599 178.704L109.017 171.763L107.599 166.344C100.947 168.903 93.4887 170.375 85.5919 170.559C85.0309 170.574 84.4615 170.583 83.8927 170.583C83.324 170.583 82.7553 170.582 82.1944 170.559C73.2352 170.35 64.8396 168.485 57.547 165.254L55.7179 169.788L59.7618 175.833C60.1257 176.377 59.9804 177.114 59.4366 177.478C58.8927 177.841 58.1561 177.695 57.7921 177.151L54.4239 172.117L50.4942 178.496C50.1508 179.053 49.4196 179.227 48.8624 178.884C48.3059 178.54 48.1329 177.811 48.4757 177.254L51.8526 171.772L46.0714 173.203L45.9522 173.226C45.3577 173.31 44.7831 172.931 44.6358 172.336C44.4793 171.701 44.8671 171.059 45.502 170.901L53.5128 168.92L55.3976 164.246C48.9725 161.063 43.5029 156.774 39.3946 151.597V151.589C34.5834 145.522 31.6429 138.227 31.2237 130.06C30.8759 129.963 30.5304 129.861 30.1886 129.751C29.3256 129.485 28.4821 129.167 27.671 128.816C27.2557 128.648 26.8471 128.472 26.4513 128.277C26.2047 128.154 25.958 128.037 25.7179 127.914C25.5947 127.849 25.4713 127.791 25.3546 127.727C22.8432 126.416 20.5911 124.851 18.6378 123.268C18.6249 123.261 18.6114 123.235 18.6114 123.235H18.6056V123.216C13.9593 119.433 15.7629 111.951 22.1417 108.427L45.88 95.3311L48.2882 94.001C48.8301 93.7013 49.3757 93.4377 49.922 93.208C50.0339 93.1264 50.1462 93.0446 50.2589 92.9639C50.2591 92.9245 50.2901 87.3146 50.2901 85.0078C50.2902 63.8019 65.3413 48.0002 83.9083 48C102.475 48 117.519 63.8018 117.519 85.0078C117.519 87.3149 116.69 92.7432 116.69 92.7432C116.983 92.9531 117.274 93.1663 117.563 93.3818C117.522 93.0945 117.5 92.8006 117.5 92.5C117.5 89.9793 118.857 88.1516 121 86.9307V30.2666C121 29.6044 121.151 28.9774 121.421 28.418C121.78 27.6713 122.35 27.0449 123.054 26.6172C123.112 26.5816 123.172 26.5475 123.233 26.5146C123.595 26.3177 123.99 26.1721 124.406 26.0869C124.684 26.0299 124.972 26 125.267 26Z" fill="#276286"/>
<path d="M125.267 26L125.267 20H125.267V26ZM126.127 26.0869L124.922 31.9647L124.924 31.9652L126.127 26.0869ZM129.446 29.4062L123.568 30.609L123.569 30.6115L129.446 29.4062ZM129.533 30.2666L135.533 30.2666L135.533 30.2664L129.533 30.2666ZM129.533 30.2676H123.533C123.533 31.86 124.166 33.387 125.293 34.5124C126.419 35.6378 127.947 36.2692 129.54 36.2676L129.533 30.2676ZM130.42 30.4609L127.915 35.9128C127.921 35.9155 127.926 35.9182 127.932 35.9209L130.42 30.4609ZM140.805 32.6074L140.805 38.6074H140.805V32.6074ZM155.728 30.3203L157.061 36.1703L157.063 36.1698L155.728 30.3203ZM171.596 27.9268L171.596 21.9268L171.596 21.9268L171.596 27.9268ZM183.752 30.459L181.262 35.9181L181.266 35.9199L183.752 30.459ZM185 72.9346L191 72.9355V72.9346H185ZM184.019 74.7305L187.265 79.7762L187.269 79.7741L184.019 74.7305ZM181.98 74.8779L179.488 80.336C179.498 80.3407 179.508 80.3453 179.518 80.3498L181.98 74.8779ZM171.594 72.7295L171.594 66.7295H171.594V72.7295ZM156.671 75.0146L155.338 69.1646L155.336 69.1651L156.671 75.0146ZM140.803 77.4082L140.803 83.4082H140.803V77.4082ZM129.533 75.2588L131.833 69.717C129.981 68.9487 127.869 69.1558 126.201 70.2689C124.534 71.3821 123.533 73.2542 123.533 75.2588H129.533ZM129.533 85.0049H123.533C123.533 86.613 124.179 88.1538 125.325 89.2817C126.471 90.4095 128.022 91.0301 129.63 91.0041L129.533 85.0049ZM130 85L130 79H130V85ZM136.415 85.6338L134.855 91.4273C134.952 91.4536 135.05 91.4773 135.149 91.4986L136.415 85.6338ZM142.355 91.4873L136.446 92.5282C136.759 94.3093 137.86 95.8539 139.441 96.7322L142.355 91.4873ZM142.372 91.4971L147.364 94.8253C148.294 93.4311 148.598 91.7118 148.203 90.0834C147.808 88.455 146.751 87.0659 145.286 86.2521L142.372 91.4971ZM142.368 91.5029L137.376 88.1747C136.027 90.1974 136.033 92.8339 137.389 94.8512L142.368 91.5029ZM142.384 91.541L136.39 91.2689C136.37 91.7039 136.398 92.1399 136.473 92.5689L142.384 91.541ZM143.004 99.5781L137.006 99.4105C137.005 99.4625 137.004 99.5146 137.004 99.5666L143.004 99.5781ZM142.991 99.9873L148.988 100.195C148.988 100.175 148.989 100.155 148.989 100.135L142.991 99.9873ZM142.951 100.805L148.943 101.116C148.944 101.103 148.944 101.09 148.945 101.077L142.951 100.805ZM142.827 102.133L136.873 101.396C136.867 101.439 136.862 101.483 136.858 101.526L142.827 102.133ZM142.416 104.787L136.548 103.536C136.543 103.559 136.538 103.582 136.534 103.605L142.416 104.787ZM140.931 109.673L135.398 107.352C135.394 107.361 135.39 107.371 135.386 107.38L140.931 109.673ZM138.558 114.019L133.633 110.592C133.623 110.605 133.614 110.619 133.605 110.632L138.558 114.019ZM135.216 117.927L131.087 113.573C129.468 115.109 128.835 117.416 129.443 119.563L135.216 117.927ZM136.64 128.028V134.028C139.953 134.028 142.64 131.342 142.64 128.028H136.64ZM136.615 128.028V122.028C133.302 122.028 130.615 124.715 130.615 128.028L136.615 128.028ZM128.391 151.589L123.69 147.861L123.689 147.861L128.391 151.589ZM109.813 165.438L107.426 159.933C104.71 161.111 103.259 164.093 104.008 166.957L109.813 165.438ZM111.235 170.878L105.431 172.396C106.101 174.958 108.371 176.778 111.018 176.874L111.235 170.878ZM116.347 171.063L116.565 165.067L116.564 165.067L116.347 171.063ZM117.489 172.291L123.485 172.511L123.486 172.506L117.489 172.291ZM116.261 173.432L116.044 179.428L116.045 179.428L116.261 173.432ZM111.913 173.274L112.13 167.278C110.202 167.209 108.358 168.07 107.174 169.594C105.991 171.118 105.613 173.118 106.157 174.969L111.913 173.274ZM113.322 178.062L119.079 176.369L119.078 176.367L113.322 178.062ZM112.52 179.533L114.211 185.29L114.214 185.289L112.52 179.533ZM111.048 178.729L105.292 180.423L105.292 180.424L111.048 178.729ZM109.826 174.577L115.582 172.884C114.947 170.726 113.159 169.104 110.949 168.683C108.74 168.262 106.48 169.112 105.096 170.886L109.826 174.577ZM105.467 180.163L110.194 183.858L110.197 183.855L105.467 180.163ZM103.804 180.368L100.111 185.097L100.116 185.101L103.804 180.368ZM103.599 178.704L98.8689 175.012L98.8681 175.013L103.599 178.704ZM109.017 171.763L113.746 175.454C114.897 173.98 115.295 172.053 114.821 170.244L109.017 171.763ZM107.599 166.344L113.403 164.825C112.971 163.173 111.856 161.784 110.336 161.005C108.817 160.226 107.037 160.131 105.444 160.744L107.599 166.344ZM85.5919 170.559L85.4523 164.56C85.4425 164.56 85.4327 164.561 85.4229 164.561L85.5919 170.559ZM83.8927 170.583L83.8927 164.583L83.8927 170.583ZM82.1944 170.559L82.4476 164.564C82.4098 164.562 82.3719 164.561 82.334 164.56L82.1944 170.559ZM57.547 165.254L59.9777 159.768C58.4908 159.109 56.8002 159.082 55.2929 159.693C53.7857 160.304 52.5911 161.501 51.9827 163.009L57.547 165.254ZM55.7179 169.788L50.1536 167.543C49.4108 169.385 49.627 171.474 50.7309 173.124L55.7179 169.788ZM59.7618 175.833L54.7748 179.169L54.7751 179.17L59.7618 175.833ZM59.4366 177.478L62.7722 182.465L62.7743 182.464L59.4366 177.478ZM57.7921 177.151L52.8053 180.488L52.8063 180.489L57.7921 177.151ZM54.4239 172.117L59.4107 168.781C58.2749 167.083 56.3535 166.08 54.3114 166.118C52.2692 166.157 50.3868 167.231 49.3155 168.97L54.4239 172.117ZM50.4942 178.496L55.6021 181.644L55.6027 181.643L50.4942 178.496ZM48.8624 178.884L45.7113 183.99L45.7144 183.992L48.8624 178.884ZM48.4757 177.254L43.3673 174.107L43.366 174.109L48.4757 177.254ZM51.8526 171.772L56.961 174.92C58.2393 172.845 58.1356 170.203 56.6986 168.235C55.2617 166.266 52.7769 165.363 50.4113 165.948L51.8526 171.772ZM46.0714 173.203L47.183 179.099C47.2935 179.078 47.4035 179.054 47.5127 179.027L46.0714 173.203ZM45.9522 173.226L46.7941 179.166C46.8843 179.153 46.9743 179.139 47.0638 179.122L45.9522 173.226ZM44.6358 172.336L38.8102 173.772L38.8112 173.776L44.6358 172.336ZM45.502 170.901L44.0614 165.077L44.0603 165.077L45.502 170.901ZM53.5128 168.92L54.9535 174.744C56.8231 174.282 58.3571 172.95 59.0774 171.164L53.5128 168.92ZM55.3976 164.246L60.9621 166.49C62.1348 163.582 60.8707 160.262 58.0612 158.87L55.3976 164.246ZM39.3946 151.597H33.3946C33.3946 152.951 33.8528 154.265 34.6946 155.326L39.3946 151.597ZM39.3946 151.589H45.3946C45.3946 150.235 44.9369 148.921 44.0958 147.861L39.3946 151.589ZM31.2237 130.06L37.2158 129.752C37.0836 127.175 35.3186 124.971 32.8328 124.279L31.2237 130.06ZM30.1886 129.751L32.0231 124.038C32.0009 124.031 31.9785 124.024 31.9562 124.017L30.1886 129.751ZM27.671 128.816L30.0505 123.308C30.0102 123.291 29.9698 123.274 29.9293 123.258L27.671 128.816ZM26.4513 128.277L23.768 133.644C23.7798 133.65 23.7916 133.656 23.8034 133.661L26.4513 128.277ZM25.7179 127.914L22.9234 133.224C22.9412 133.233 22.9591 133.242 22.977 133.251L25.7179 127.914ZM25.3546 127.727L28.2677 122.481C28.2224 122.456 28.1768 122.432 28.1309 122.408L25.3546 127.727ZM18.6378 123.268L22.4161 118.607C22.0959 118.347 21.7497 118.121 21.3832 117.933L18.6378 123.268ZM18.6114 123.235L23.9219 120.443C22.8847 118.47 20.8398 117.235 18.6114 117.235V123.235ZM18.6056 123.235H12.6056C12.6056 126.549 15.2919 129.235 18.6056 129.235V123.235ZM18.6056 123.216H24.6056C24.6056 121.411 23.7934 119.703 22.394 118.563L18.6056 123.216ZM22.1417 108.427L19.2434 103.173L19.2404 103.175L22.1417 108.427ZM45.88 95.3311L48.7782 100.585L48.7808 100.583L45.88 95.3311ZM48.2882 94.001L51.189 99.2531L51.192 99.2515L48.2882 94.001ZM49.922 93.208L52.2474 98.739C52.6752 98.5592 53.0807 98.3303 53.4557 98.057L49.922 93.208ZM50.2589 92.9639L53.7538 97.8409C55.3166 96.721 56.248 94.92 56.2588 92.9975L50.2589 92.9639ZM50.2901 85.0078L44.2901 85.0078V85.0078H50.2901ZM83.9083 48L83.9083 42L83.9082 42L83.9083 48ZM117.519 85.0078L123.519 85.0078L123.519 85.0078L117.519 85.0078ZM116.69 92.7432L110.758 91.8372C110.417 94.0711 111.36 96.3073 113.198 97.6224L116.69 92.7432ZM117.563 93.3818L113.975 98.1915C115.917 99.6398 118.54 99.7782 120.623 98.5424C122.707 97.3066 123.843 94.939 123.503 92.5404L117.563 93.3818ZM121 86.9307L123.97 92.1442C125.843 91.0771 127 89.0868 127 86.9307H121ZM121 30.2666L115 30.2664V30.2666H121ZM121.421 28.418L126.826 31.0231L126.827 31.0204L121.421 28.418ZM123.054 26.6172L126.169 31.7453L126.171 31.744L123.054 26.6172ZM123.233 26.5146L120.369 21.242L120.367 21.2432L123.233 26.5146ZM124.406 26.0869L125.609 31.9652L125.611 31.9647L124.406 26.0869ZM125.267 26L125.267 32C125.154 32 125.038 31.9885 124.922 31.9647L126.127 26.0869L127.332 20.2092C126.66 20.0714 125.969 20 125.267 20L125.267 26ZM126.127 26.0869L124.924 31.9652C124.237 31.8245 123.709 31.2964 123.568 30.609L129.446 29.4062L135.325 28.2035C134.502 24.183 131.351 21.0313 127.33 20.2087L126.127 26.0869ZM129.446 29.4062L123.569 30.6115C123.545 30.495 123.533 30.379 123.533 30.2668L129.533 30.2666L135.533 30.2664C135.533 29.5648 135.462 28.8733 135.324 28.201L129.446 29.4062ZM129.533 30.2666H123.533V30.2676H129.533H135.533V30.2666H129.533ZM129.533 30.2676L129.54 36.2676C128.989 36.2681 128.434 36.1513 127.915 35.9128L130.42 30.4609L132.925 25.009C131.842 24.5112 130.681 24.2664 129.527 24.2676L129.533 30.2676ZM130.42 30.4609L127.932 35.9209C131.956 37.754 136.211 38.6074 140.805 38.6074L140.805 32.6074L140.805 26.6074C137.762 26.6074 135.224 26.0565 132.908 25.0009L130.42 30.4609ZM140.805 32.6074V38.6074C146.491 38.6074 152.037 37.315 157.061 36.1703L155.728 30.3203L154.395 24.4703C149.101 25.6765 144.902 26.6074 140.805 26.6074V32.6074ZM155.728 30.3203L157.063 36.1698C162.336 34.966 167.014 33.9268 171.596 33.9268L171.596 27.9268L171.596 21.9268C165.435 21.9268 159.436 23.3194 154.392 24.4708L155.728 30.3203ZM171.596 27.9268V33.9268C175.252 33.9268 178.369 34.5985 181.262 35.9181L183.752 30.459L186.242 24.9999C181.66 22.9103 176.827 21.9268 171.596 21.9268V27.9268ZM183.752 30.459L181.266 35.9199C179.882 35.2897 179 33.912 179 32.4004H185H191C191 29.2165 189.141 26.3196 186.238 24.998L183.752 30.459ZM185 32.4004H179V72.9346H185H191V32.4004H185ZM185 72.9346L179 72.9336C179 71.613 179.673 70.3932 180.769 69.6869L184.019 74.7305L187.269 79.7741C189.589 78.2789 191 75.7064 191 72.9355L185 72.9346ZM184.019 74.7305L180.772 69.6847C181.893 68.9634 183.278 68.8827 184.441 69.406L181.98 74.8779L179.518 80.3498C182.008 81.47 184.924 81.2826 187.265 79.7762L184.019 74.7305ZM181.98 74.8779L184.471 69.4198C180.447 67.5824 176.187 66.7295 171.594 66.7295L171.594 72.7295L171.594 78.7295C174.638 78.7295 177.176 79.2807 179.488 80.336L181.98 74.8779ZM171.594 72.7295V66.7295C165.908 66.7295 160.364 68.0194 155.338 69.1646L156.671 75.0146L158.004 80.8647C163.295 79.6589 167.496 78.7295 171.594 78.7295V72.7295ZM156.671 75.0146L155.336 69.1651C150.062 70.3689 145.385 71.4082 140.803 71.4082V77.4082V83.4082C146.964 83.4082 152.963 82.0155 158.006 80.8642L156.671 75.0146ZM140.803 77.4082L140.803 71.4082C137.431 71.4082 134.523 70.8334 131.833 69.717L129.533 75.2588L127.234 80.8006C131.503 82.5721 135.989 83.4082 140.803 83.4082L140.803 77.4082ZM129.533 75.2588H123.533V85.0049H129.533H135.533V75.2588H129.533ZM129.533 85.0049L129.63 91.0041C129.788 91.0015 129.899 91 130 91V85V79C129.789 79 129.589 79.0032 129.436 79.0057L129.533 85.0049ZM130 85L130 91C132.191 91 133.746 91.1287 134.855 91.4273L136.415 85.6338L137.976 79.8402C135.275 79.1129 132.411 79 130 79L130 85ZM136.415 85.6338L135.149 91.4986C135.713 91.6206 136.026 91.8315 136.172 91.9703C136.289 92.0815 136.392 92.2268 136.446 92.5282L142.355 91.4873L148.264 90.4464C147.217 84.5022 142.667 80.8456 137.682 79.769L136.415 85.6338ZM142.355 91.4873L139.441 96.7322L139.458 96.742L142.372 91.4971L145.286 86.2521L145.268 86.2424L142.355 91.4873ZM142.372 91.4971L137.38 88.1689L137.376 88.1747L142.368 91.5029L147.361 94.8311L147.364 94.8253L142.372 91.4971ZM142.368 91.5029L137.389 94.8512C137.39 94.8516 137.387 94.847 137.383 94.8415C137.379 94.8357 137.375 94.829 137.369 94.8214C137.359 94.8062 137.348 94.7891 137.336 94.7704C137.312 94.7332 137.284 94.6895 137.254 94.6402C137.197 94.5478 137.116 94.4086 137.027 94.2337C136.946 94.0737 136.807 93.7843 136.682 93.4034C136.58 93.0932 136.343 92.3051 136.39 91.2689L142.384 91.541L148.378 91.8132C148.425 90.77 148.186 89.9739 148.082 89.6554C147.954 89.2664 147.812 88.9687 147.727 88.8011C147.634 88.6186 147.548 88.4727 147.489 88.3751C147.457 88.3232 147.428 88.2774 147.403 88.2386C147.39 88.219 147.378 88.2013 147.368 88.1856C147.363 88.1777 147.358 88.1708 147.354 88.1649C147.35 88.1591 147.347 88.1544 147.347 88.1547L142.368 91.5029ZM142.384 91.541L136.473 92.5689C136.85 94.7367 137.072 97.0574 137.006 99.4105L143.004 99.5781L149.002 99.7458C149.094 96.4356 148.78 93.2996 148.295 90.5131L142.384 91.541ZM143.004 99.5781L137.004 99.5666C137.004 99.5128 137.006 99.4849 137.004 99.5421C137.003 99.555 137.003 99.5675 137.002 99.5871C137.001 99.6048 137 99.6276 136.999 99.6519C136.997 99.7002 136.995 99.7657 136.993 99.8397L142.991 99.9873L148.989 100.135C148.989 100.139 148.989 100.136 148.99 100.115C148.992 100.078 148.992 100.082 148.994 100.019C148.997 99.9399 149.004 99.777 149.004 99.5897L143.004 99.5781ZM142.991 99.9873L136.995 99.7796C136.985 100.054 136.98 100.039 136.957 100.532L142.951 100.805L148.945 101.077C148.948 101.02 148.979 100.46 148.988 100.195L142.991 99.9873ZM142.951 100.805L136.959 100.493C136.947 100.733 136.919 101.02 136.873 101.396L142.827 102.133L148.782 102.87C148.845 102.356 148.91 101.757 148.943 101.116L142.951 100.805ZM142.827 102.133L136.858 101.526C136.788 102.215 136.686 102.89 136.548 103.536L142.416 104.787L148.284 106.038C148.523 104.917 148.688 103.808 148.797 102.739L142.827 102.133ZM142.416 104.787L136.534 103.605C136.274 104.898 135.903 106.146 135.398 107.352L140.931 109.673L146.464 111.993C147.307 109.984 147.898 107.964 148.299 105.969L142.416 104.787ZM140.931 109.673L135.386 107.38C134.929 108.486 134.353 109.556 133.633 110.592L138.558 114.019L143.483 117.446C144.714 115.676 145.699 113.842 146.475 111.966L140.931 109.673ZM138.558 114.019L133.605 110.632C132.919 111.636 132.087 112.624 131.087 113.573L135.216 117.927L139.345 122.28C140.962 120.746 142.346 119.109 143.511 117.405L138.558 114.019ZM135.216 117.927L129.443 119.563C130.224 122.318 130.64 125.15 130.64 128.028H136.64H142.64C142.64 123.986 142.055 120.053 140.988 116.29L135.216 117.927ZM136.64 128.028V122.028H136.615V128.028V134.028H136.64V128.028ZM136.615 128.028L130.615 128.028C130.615 135.608 128.092 142.309 123.69 147.861L128.391 151.589L133.092 155.317C139.103 147.737 142.615 138.431 142.615 128.028L136.615 128.028ZM128.391 151.589L123.689 147.861C119.732 152.852 114.181 157.006 107.426 159.933L109.813 165.438L112.199 170.944C120.53 167.333 127.756 162.046 133.092 155.317L128.391 151.589ZM109.813 165.438L104.008 166.957L105.431 172.396L111.235 170.878L117.04 169.36L115.617 163.92L109.813 165.438ZM111.235 170.878L111.018 176.874L116.129 177.06L116.347 171.063L116.564 165.067L111.453 164.882L111.235 170.878ZM116.347 171.063L116.129 177.06C113.476 176.963 111.398 174.737 111.493 172.076L117.489 172.291L123.486 172.506C123.628 168.538 120.525 165.212 116.565 165.067L116.347 171.063ZM117.489 172.291L111.493 172.071C111.591 169.403 113.832 167.34 116.477 167.436L116.261 173.432L116.045 179.428C119.997 179.57 123.34 176.486 123.485 172.511L117.489 172.291ZM116.261 173.432L116.478 167.436L112.13 167.278L111.913 173.274L111.696 179.27L116.044 179.428L116.261 173.432ZM111.913 173.274L106.157 174.969L107.567 179.756L113.322 178.062L119.078 176.367L117.669 171.58L111.913 173.274ZM113.322 178.062L107.566 179.754C106.816 177.202 108.276 174.528 110.825 173.777L112.52 179.533L114.214 185.289C118.019 184.169 120.198 180.176 119.079 176.369L113.322 178.062ZM112.52 179.533L110.828 173.777C113.386 173.025 116.055 174.492 116.804 177.035L111.048 178.729L105.292 180.424C106.41 184.222 110.398 186.41 114.211 185.29L112.52 179.533ZM111.048 178.729L116.804 177.036L115.582 172.884L109.826 174.577L104.07 176.271L105.292 180.423L111.048 178.729ZM109.826 174.577L105.096 170.886L100.737 176.472L105.467 180.163L110.197 183.855L114.556 178.269L109.826 174.577ZM105.467 180.163L100.739 176.468C102.376 174.375 105.397 174.003 107.492 175.636L103.804 180.368L100.116 185.101C103.242 187.537 107.753 186.982 110.194 183.858L105.467 180.163ZM103.804 180.368L107.497 175.639C109.592 177.276 109.964 180.299 108.329 182.395L103.599 178.704L98.8681 175.013C96.4281 178.141 96.9843 182.655 100.111 185.097L103.804 180.368ZM103.599 178.704L108.329 182.396L113.746 175.454L109.017 171.763L104.287 168.071L98.8689 175.012L103.599 178.704ZM109.017 171.763L114.821 170.244L113.403 164.825L107.599 166.344L101.794 167.863L103.212 173.282L109.017 171.763ZM107.599 166.344L105.444 160.744C99.4709 163.043 92.6979 164.392 85.4523 164.56L85.5919 170.559L85.7315 176.557C94.2795 176.358 102.423 174.764 109.754 171.943L107.599 166.344ZM85.5919 170.559L85.4229 164.561C84.9144 164.575 84.4015 164.583 83.8927 164.583V170.583V176.583C84.5216 176.583 85.1474 176.573 85.7608 176.556L85.5919 170.559ZM83.8927 170.583L83.8927 164.583C83.3092 164.583 82.863 164.581 82.4476 164.564L82.1944 170.559L81.9412 176.553C82.6475 176.583 83.3387 176.583 83.8927 176.583L83.8927 170.583ZM82.1944 170.559L82.334 164.56C74.1107 164.369 66.5 162.658 59.9777 159.768L57.547 165.254L55.1162 170.739C63.1793 174.312 72.3597 176.331 82.0549 176.557L82.1944 170.559ZM57.547 165.254L51.9827 163.009L50.1536 167.543L55.7179 169.788L61.2822 172.033L63.1113 167.499L57.547 165.254ZM55.7179 169.788L50.7309 173.124L54.7748 179.169L59.7618 175.833L64.7488 172.497L60.7048 166.452L55.7179 169.788ZM59.7618 175.833L54.7751 179.17C53.2999 176.965 53.8846 173.974 56.0989 172.492L59.4366 177.478L62.7743 182.464C66.0763 180.253 66.9516 175.789 64.7486 172.497L59.7618 175.833ZM59.4366 177.478L56.1011 172.49C58.3122 171.011 61.3 171.606 62.7779 173.813L57.7921 177.151L52.8063 180.489C55.0121 183.784 59.4733 184.671 62.7722 182.465L59.4366 177.478ZM57.7921 177.151L62.7789 173.815L59.4107 168.781L54.4239 172.117L49.4371 175.454L52.8053 180.488L57.7921 177.151ZM54.4239 172.117L49.3155 168.97L45.3858 175.349L50.4942 178.496L55.6027 181.643L59.5324 175.264L54.4239 172.117ZM50.4942 178.496L45.3864 175.348C46.7801 173.087 49.7442 172.379 52.0104 173.776L48.8624 178.884L45.7144 183.992C49.095 186.075 53.5216 185.02 55.6021 181.644L50.4942 178.496ZM48.8624 178.884L52.0135 173.778C54.2759 175.174 54.9772 178.138 53.5854 180.399L48.4757 177.254L43.366 174.109C41.2886 177.484 42.3359 181.907 45.7113 183.99L48.8624 178.884ZM48.4757 177.254L53.5841 180.401L56.961 174.92L51.8526 171.772L46.7442 168.625L43.3673 174.107L48.4757 177.254ZM51.8526 171.772L50.4113 165.948L44.6301 167.379L46.0714 173.203L47.5127 179.027L53.294 177.597L51.8526 171.772ZM46.0714 173.203L44.9598 167.307L44.8407 167.329L45.9522 173.226L47.0638 179.122L47.183 179.099L46.0714 173.203ZM45.9522 173.226L45.1104 167.285C47.5299 166.942 49.8608 168.471 50.4605 170.896L44.6358 172.336L38.8112 173.776C39.7053 177.392 43.1855 179.678 46.7941 179.166L45.9522 173.226ZM44.6358 172.336L50.4615 170.9C51.0974 173.48 49.5236 176.087 46.9437 176.726L45.502 170.901L44.0603 165.077C40.2106 166.03 37.8613 169.922 38.8102 173.772L44.6358 172.336ZM45.502 170.901L46.9427 176.726L54.9535 174.744L53.5128 168.92L52.0721 163.095L44.0614 165.077L45.502 170.901ZM53.5128 168.92L59.0774 171.164L60.9621 166.49L55.3976 164.246L49.833 162.002L47.9482 166.676L53.5128 168.92ZM55.3976 164.246L58.0612 158.87C52.3365 156.034 47.5937 152.277 44.0947 147.867L39.3946 151.597L34.6946 155.326C39.4122 161.272 45.6085 166.092 52.7339 169.622L55.3976 164.246ZM39.3946 151.597H45.3946V151.589H39.3946H33.3946V151.597H39.3946ZM39.3946 151.589L44.0958 147.861C40.023 142.725 37.5681 136.614 37.2158 129.752L31.2237 130.06L25.2316 130.367C25.7178 139.84 29.1438 148.319 34.6934 155.317L39.3946 151.589ZM31.2237 130.06L32.8328 124.279C32.5438 124.199 32.2753 124.119 32.0231 124.038L30.1886 129.751L28.354 135.464C28.7854 135.602 29.208 135.727 29.6146 135.84L31.2237 130.06ZM30.1886 129.751L31.9562 124.017C31.3259 123.823 30.6872 123.583 30.0505 123.308L27.671 128.816L25.2915 134.324C26.2769 134.75 27.3252 135.147 28.421 135.485L30.1886 129.751ZM27.671 128.816L29.9293 123.258C29.5812 123.116 29.317 123 29.0992 122.893L26.4513 128.277L23.8034 133.661C24.3772 133.944 24.9302 134.179 25.4127 134.375L27.671 128.816ZM26.4513 128.277L29.1345 122.911C28.6858 122.686 28.7057 122.704 28.4587 122.577L25.7179 127.914L22.977 133.251C23.2102 133.371 23.7235 133.622 23.768 133.644L26.4513 128.277ZM25.7179 127.914L28.5123 122.605C28.4429 122.568 28.3814 122.537 28.3362 122.514C28.3135 122.502 28.2923 122.492 28.2759 122.483C28.2574 122.474 28.2469 122.469 28.2348 122.463C28.2119 122.451 28.208 122.449 28.2115 122.451C28.216 122.453 28.2367 122.464 28.2677 122.481L25.3546 127.727L22.4415 132.972C22.612 133.067 22.7633 133.143 22.8328 133.178C22.8851 133.204 22.8876 133.205 22.9149 133.219C22.9311 133.228 22.9313 133.228 22.9234 133.224L25.7179 127.914ZM25.3546 127.727L28.1309 122.408C26.0443 121.318 24.1258 119.993 22.4161 118.607L18.6378 123.268L14.8595 127.929C17.0564 129.709 19.6421 131.513 22.5783 133.046L25.3546 127.727ZM18.6378 123.268L21.3832 117.933C22.2828 118.395 22.8369 118.973 23.0364 119.189C23.2914 119.466 23.467 119.709 23.5609 119.845C23.6642 119.995 23.7421 120.123 23.7933 120.211C23.8206 120.258 23.8447 120.3 23.8655 120.338C23.8761 120.357 23.886 120.375 23.8953 120.393C23.9 120.401 23.9045 120.41 23.909 120.418C23.9112 120.422 23.9134 120.427 23.9155 120.431C23.9166 120.433 23.9177 120.435 23.9187 120.437C23.9193 120.438 23.9198 120.439 23.9203 120.44C23.9206 120.44 23.921 120.441 23.9211 120.441C23.9215 120.442 23.9219 120.443 18.6114 123.235C13.301 126.028 13.3013 126.029 13.3017 126.029C13.3019 126.03 13.3023 126.03 13.3025 126.031C13.3031 126.032 13.3036 126.033 13.3041 126.034C13.3052 126.036 13.3063 126.038 13.3073 126.04C13.3095 126.044 13.3117 126.048 13.314 126.053C13.3184 126.061 13.3231 126.07 13.3278 126.079C13.3374 126.096 13.3476 126.115 13.3585 126.135C13.3801 126.174 13.4054 126.219 13.4341 126.268C13.4883 126.361 13.5703 126.495 13.6786 126.653C13.7775 126.796 13.9589 127.047 14.22 127.33C14.4257 127.553 14.9863 128.136 15.8924 128.603L18.6378 123.268ZM18.6114 123.235V117.235H18.6056V123.235V129.235H18.6114V123.235ZM18.6056 123.235H24.6056V123.216H18.6056H12.6056V123.235H18.6056ZM18.6056 123.216L22.394 118.563C22.1154 118.336 21.8626 118.004 22.0739 117.123C22.3114 116.132 23.1848 114.705 25.043 113.679L22.1417 108.427L19.2404 103.175C14.7199 105.672 11.502 109.748 10.4046 114.325C9.28088 119.012 10.4495 124.312 14.8171 127.869L18.6056 123.216ZM22.1417 108.427L25.0399 113.68L48.7782 100.585L45.88 95.3311L42.9817 90.0775L19.2435 103.173L22.1417 108.427ZM45.88 95.3311L48.7808 100.583L51.189 99.2531L48.2882 94.001L45.3874 88.7488L42.9792 90.0789L45.88 95.3311ZM48.2882 94.001L51.192 99.2515C51.545 99.0563 51.8974 98.8862 52.2474 98.739L49.922 93.208L47.5965 87.677C46.8539 87.9892 46.1152 88.3463 45.3844 88.7505L48.2882 94.001ZM49.922 93.208L53.4557 98.057C53.5703 97.9735 53.6636 97.9055 53.7538 97.8409L50.2589 92.9639L46.764 88.0868C46.6287 88.1837 46.4975 88.2794 46.3882 88.359L49.922 93.208ZM50.2589 92.9639L56.2588 92.9975C56.259 92.9658 56.2901 87.3356 56.2901 85.0078H50.2901H44.2901C44.2901 87.2937 44.2592 92.8831 44.259 92.9303L50.2589 92.9639ZM50.2901 85.0078L56.2901 85.0078C56.2902 66.645 69.1068 54.0001 83.9084 54L83.9083 48L83.9082 42C61.5758 42.0002 44.2902 60.9588 44.2901 85.0078L50.2901 85.0078ZM83.9083 48V54C98.7082 54 111.519 66.643 111.519 85.0078L117.519 85.0078L123.519 85.0078C123.519 60.9606 106.243 42 83.9083 42V48ZM117.519 85.0078H111.519C111.519 85.7262 111.365 87.2943 111.151 88.9908C111.053 89.7725 110.954 90.4894 110.879 91.0117C110.842 91.2721 110.811 91.4822 110.79 91.6256C110.779 91.6972 110.771 91.7521 110.766 91.7881C110.763 91.8061 110.761 91.8194 110.76 91.8276C110.759 91.8318 110.759 91.8347 110.758 91.8363C110.758 91.8371 110.758 91.8376 110.758 91.8377C110.758 91.8378 110.758 91.8378 110.758 91.8377C110.758 91.8377 110.758 91.8376 110.758 91.8376C110.758 91.8374 110.758 91.8372 116.69 92.7432C122.621 93.6491 122.621 93.6489 122.621 93.6487C122.621 93.6485 122.621 93.6483 122.621 93.6481C122.621 93.6477 122.621 93.6472 122.621 93.6466C122.621 93.6455 122.622 93.644 122.622 93.6422C122.622 93.6385 122.623 93.6336 122.624 93.6274C122.626 93.615 122.629 93.5975 122.632 93.5752C122.639 93.5305 122.648 93.4665 122.66 93.3852C122.684 93.2227 122.718 92.9907 122.759 92.7062C122.84 92.1386 122.948 91.3542 123.057 90.4905C123.258 88.8961 123.519 86.5964 123.519 85.0078H117.519ZM116.69 92.7432L113.198 97.6224C113.453 97.8054 113.712 97.995 113.975 98.1915L117.563 93.3818L121.15 88.5722C120.835 88.3377 120.512 88.1007 120.181 87.8639L116.69 92.7432ZM117.563 93.3818L123.503 92.5404C123.501 92.522 123.5 92.5093 123.5 92.5H117.5H111.5C111.5 93.0919 111.543 93.6671 111.622 94.2232L117.563 93.3818ZM117.5 92.5H123.5C123.5 92.4141 123.511 92.4007 123.501 92.4349C123.49 92.4702 123.473 92.5034 123.462 92.5209C123.44 92.5539 123.532 92.3935 123.97 92.1442L121 86.9307L118.03 81.7171C114.472 83.7442 111.5 87.3432 111.5 92.5H117.5ZM121 86.9307H127V30.2666H121H115V86.9307H121ZM121 30.2666L127 30.2668C127 30.5273 126.939 30.7888 126.826 31.0231L121.421 28.418L116.016 25.8129C115.364 27.166 115 28.6815 115 30.2664L121 30.2666ZM121.421 28.418L126.827 31.0204C126.683 31.3197 126.456 31.5705 126.169 31.7453L123.054 26.6172L119.939 21.4891C118.243 22.5193 116.878 24.023 116.015 25.8155L121.421 28.418ZM123.054 26.6172L126.171 31.744C126.135 31.7657 126.11 31.7797 126.098 31.786L123.233 26.5146L120.367 21.2432C120.234 21.3152 120.09 21.3974 119.937 21.4903L123.054 26.6172ZM123.233 26.5146L126.096 31.7873C125.944 31.87 125.779 31.9304 125.609 31.9652L124.406 26.0869L123.204 20.2087C122.2 20.4139 121.247 20.7654 120.369 21.242L123.233 26.5146ZM124.406 26.0869L125.611 31.9647C125.495 31.9885 125.379 32 125.267 32V26V20C124.565 20 123.873 20.0714 123.201 20.2092L124.406 26.0869Z" fill="white" mask="url(#path-1-outside-1_1062_25396)"/>
<path d="M18.6055 123.235H18.612C18.612 123.235 18.625 123.261 18.6379 123.268C20.5912 124.851 22.843 126.415 25.3544 127.726C25.4712 127.791 25.5945 127.849 25.7178 127.914C25.9579 128.038 26.2045 128.154 26.4511 128.278C26.847 128.472 27.2558 128.648 27.6711 128.816C28.4823 129.167 29.3259 129.485 30.189 129.751C31.7854 130.263 33.4467 130.64 35.1793 130.834C36.7822 131.023 38.4305 131.049 40.1307 130.88C42.2722 130.685 44.5046 130.186 46.7888 129.303C47.9894 128.849 49.2094 128.271 50.4488 127.59C53.0251 126.169 55.199 124.501 57.029 122.664H57.0355C59.7351 119.945 61.6884 116.882 63.0706 113.677C63.0706 113.67 63.0771 113.664 63.0771 113.651C63.1161 113.573 63.155 113.488 63.1875 113.404C63.3043 113.125 63.4211 112.846 63.5379 112.567C63.5444 112.56 63.5444 112.541 63.5444 112.534C63.6547 112.249 63.7585 111.957 63.8688 111.665C63.8818 111.632 63.8948 111.613 63.9013 111.587C65.024 108.414 65.6534 105.169 65.9519 102.093C65.9584 102.028 65.9584 101.97 65.9649 101.905C66.0493 100.912 65.9779 99.984 65.7897 99.108C65.7832 99.082 65.7832 99.0625 65.7767 99.0366C65.0824 95.9996 62.8435 93.7737 59.8714 92.703C58.4632 92.1903 56.8928 91.9502 55.2445 92.0086C52.9991 92.0865 50.6111 92.7159 48.2879 94.0008L45.8803 95.3311L22.1422 108.427C15.7631 111.95 13.9591 119.433 18.6055 123.216V123.235Z" fill="#276286"/>
<path d="M106.68 158.146C107.273 157.991 107.88 158.314 108.09 158.877L108.127 158.992L111.235 170.878L116.346 171.064C117 171.088 117.512 171.637 117.488 172.291C117.465 172.945 116.915 173.455 116.261 173.432L111.913 173.275L113.322 178.061C113.507 178.689 113.147 179.348 112.519 179.533C111.892 179.717 111.232 179.358 111.047 178.73L109.826 174.577L105.467 180.163C105.064 180.678 104.319 180.77 103.803 180.367C103.287 179.965 103.195 179.219 103.598 178.704L109.017 171.763L105.833 159.592L105.809 159.473C105.717 158.88 106.087 158.301 106.68 158.146Z" fill="#474747"/>
<path d="M58.0613 157.665C58.3411 157.133 58.9834 156.889 59.5525 157.119C60.1594 157.364 60.4525 158.054 60.2078 158.661L55.7175 169.788L59.7625 175.833C60.1264 176.377 59.9801 177.113 59.4363 177.477C58.8925 177.841 58.1568 177.695 57.7927 177.152L54.4236 172.117L50.4939 178.497C50.1506 179.054 49.4202 179.227 48.863 178.884C48.306 178.541 48.1323 177.811 48.4754 177.254L51.8523 171.772L46.0711 173.203L45.9519 173.226C45.3574 173.311 44.7838 172.932 44.6365 172.337C44.4795 171.701 44.8665 171.058 45.5017 170.901L53.5125 168.921L58.0105 157.774L58.0613 157.665Z" fill="#474747"/>
<path d="M136.615 128.028C136.615 137.02 133.597 145.023 128.391 151.589C119.312 163.037 103.59 170.14 85.5914 170.559C85.0304 170.575 84.4616 170.583 83.8927 170.583C83.3238 170.583 82.755 170.583 82.194 170.559C64.1957 170.14 48.4729 163.037 39.3948 151.597C39.3948 151.597 39.3948 151.597 39.3948 151.589C34.1881 145.023 31.1699 137.02 31.1699 128.028C31.1699 113.917 38.6047 101.315 50.2585 92.9641C50.2585 92.9641 50.2901 87.3228 50.2901 85.0079C50.2901 63.8018 65.3414 48 83.9085 48C102.476 48 117.519 63.8018 117.519 85.0079C117.519 87.3149 116.689 92.7428 116.689 92.7428C128.359 101.094 136.639 113.917 136.639 128.028H136.615Z" fill="#4B9AE8"/>
<path d="M66.3415 78.1071C69.7974 78.1071 72.599 75.3055 72.599 71.8496C72.599 68.3936 69.7974 65.592 66.3415 65.592C62.8856 65.592 60.084 68.3936 60.084 71.8496C60.084 75.3055 62.8856 78.1071 66.3415 78.1071Z" fill="white"/>
<path d="M66.2457 75.6462C68.3176 75.6462 69.9972 73.9666 69.9972 71.8947C69.9972 69.8228 68.3176 68.1432 66.2457 68.1432C64.1738 68.1432 62.4941 69.8228 62.4941 71.8947C62.4941 73.9666 64.1738 75.6462 66.2457 75.6462Z" fill="black"/>
<path d="M100.256 77.515C103.712 77.515 106.513 74.7134 106.513 71.2575C106.513 67.8016 103.712 65 100.256 65C96.7996 65 93.998 67.8016 93.998 71.2575C93.998 74.7134 96.7996 77.515 100.256 77.515Z" fill="white"/>
<path d="M100.16 75.0542C102.232 75.0542 103.911 73.3746 103.911 71.3027C103.911 69.2308 102.232 67.5511 100.16 67.5511C98.0878 67.5511 96.4082 69.2308 96.4082 71.3027C96.4082 73.3746 98.0878 75.0542 100.16 75.0542Z" fill="black"/>
<path d="M90.9621 78.9035C90.7309 81.9757 86.5794 86.4856 83.2734 86.2709C79.9674 86.0562 76.5365 81.05 76.7707 77.9778C77.0019 74.9056 79.3548 72.5554 84.2882 72.8761C89.2788 73.2023 91.1962 75.8314 90.9621 78.9035Z" fill="#EAC00F"/>
<path d="M142.372 91.4969L142.369 91.5025C142.369 91.5025 142.385 91.5265 142.384 91.541C142.815 94.0183 143.083 96.7468 143.004 99.5786C143.004 99.7122 142.995 99.8483 142.992 99.9876C142.982 100.257 142.964 100.53 142.952 100.805C142.929 101.246 142.882 101.688 142.827 102.133C142.738 103.012 142.605 103.904 142.416 104.787C142.086 106.431 141.605 108.065 140.931 109.673C140.314 111.164 139.533 112.616 138.557 114.019C137.344 115.794 135.82 117.499 133.936 119.064C132.954 119.891 131.855 120.675 130.656 121.425C128.16 122.982 125.644 124.068 123.149 124.771L123.145 124.777C119.456 125.809 115.829 126.022 112.356 125.667C112.35 125.663 112.342 125.666 112.33 125.66C112.243 125.656 112.151 125.649 112.061 125.636C111.761 125.602 111.46 125.568 111.159 125.534C111.151 125.536 111.134 125.527 111.128 125.524C110.825 125.481 110.519 125.429 110.21 125.383C110.176 125.379 110.152 125.381 110.127 125.374C106.808 124.808 103.668 123.776 100.837 122.538C100.777 122.512 100.726 122.483 100.666 122.457C99.7582 122.047 98.9826 121.533 98.3093 120.941C98.2898 120.923 98.2728 120.914 98.2533 120.895C95.9397 118.809 95.0871 115.769 95.6004 112.652C95.839 111.173 96.3947 109.684 97.2489 108.273C98.4111 106.351 100.125 104.572 102.379 103.17L104.714 101.716L127.717 87.3686C133.903 83.5154 141.315 85.5864 142.355 91.4874L142.372 91.4969Z" fill="#276286"/>
<path d="M125.267 100.668C122.912 100.668 121 98.7565 121 96.4013V30.2667C121 27.9116 122.912 26 125.267 26C127.622 26 129.533 27.9116 129.533 30.2667V96.4013C129.533 98.7565 127.622 100.668 125.267 100.668Z" fill="#8899A6"/>
<path d="M125.267 26C122.909 26 121 27.9095 121 30.2667V96.4013C121 96.9901 121.478 97.468 122.067 97.468C122.655 97.468 123.133 96.9901 123.133 96.4013V33.2833C123.133 31.6172 124.484 30.2667 126.15 30.2667H129.533C129.533 27.9095 127.624 26 125.267 26Z" fill="#AAB8C2"/>
<path d="M125.267 120.668C122.912 120.668 121 118.756 121 116.401V30.2667C121 27.9116 122.912 26 125.267 26C127.622 26 129.533 27.9116 129.533 30.2667V116.401C129.533 118.756 127.622 120.668 125.267 120.668Z" fill="#8899A6"/>
<path d="M125.267 26C122.909 26 121 27.9095 121 30.2667V116.401C121 116.99 121.478 117.468 122.067 117.468C122.655 117.468 123.133 116.99 123.133 116.401V33.2833C123.133 31.6172 124.484 30.2667 126.15 30.2667H129.533C129.533 27.9095 127.624 26 125.267 26Z" fill="#AAB8C2"/>
<path d="M183.751 30.4587C180.014 28.7541 176.039 27.9264 171.595 27.9264C166.224 27.9264 160.886 29.1425 155.727 30.3201C150.569 31.4956 145.696 32.6071 140.805 32.6071C136.986 32.6071 133.589 31.9053 130.419 30.4608C129.76 30.158 128.99 30.2155 128.38 30.606C127.768 30.9984 127.398 31.6748 127.398 32.4001V72.9342C127.398 73.7704 127.887 74.5279 128.647 74.8756C132.384 76.5802 136.361 77.4079 140.802 77.4079C146.174 77.4079 151.512 76.1918 156.671 75.0142C161.829 73.8388 166.702 72.7293 171.593 72.7293C175.412 72.7293 178.811 73.4314 181.979 74.8777C182.642 75.1764 183.408 75.123 184.018 74.7304C184.63 74.3359 185 73.6595 185 72.9342V32.4001C185 31.5639 184.511 30.8043 183.751 30.4587Z" fill="#D7E8FC"/>
<path d="M142.5 94.5C142.5 99.7467 137.127 101 130.5 101C123.873 101 117.5 97.7467 117.5 92.5C117.5 87.2533 123.373 85 130 85C136.627 85 142.5 86 142.5 94.5Z" fill="#276286"/>
</svg>
