<svg width="1024" height="1024" viewBox="0 0 1024 1024" fill="none" xmlns="http://www.w3.org/2000/svg">
<g clip-path="url(#clip0_1221_3626)">
<mask id="path-1-outside-1_1221_3626" maskUnits="userSpaceOnUse" x="131" y="214" width="1339" height="1259" fill="black">
<rect fill="white" x="131" y="214" width="1339" height="1259"/>
<path d="M765.547 238C793.046 238 819.669 241.933 844.934 249.363C876.868 258.307 904.137 272.801 926.575 288.631C1008.04 345.377 1061.92 445.212 1061.92 564.355C1061.92 569.043 1061.6 574.819 1061.08 580.965C1059.98 597.675 1057.26 613.882 1053.87 628.699C1054.27 628.954 1054.66 629.201 1055.03 629.441C1072.75 632.31 1090.99 638.465 1108.83 648.313L1381.29 798.676C1447.77 835.334 1466.57 913.39 1418.18 952.845C1417.75 953.194 1417.32 953.541 1416.89 953.89C1411.99 958.346 1392.19 975.455 1357.5 994.427C1317.18 1016.97 1270.04 1033.45 1218.18 1033.7C1206.13 1076.97 1185.45 1116.49 1157.76 1151.44C1143.59 1169.33 1127.57 1186.01 1109.92 1201.38C1056.58 1251.45 981.632 1293.66 877.775 1310.12V1419.85C877.775 1435.39 865.038 1448.2 849.427 1448.2H750.945C730.364 1448.2 713.51 1431.35 713.51 1410.77C713.51 1400.44 717.704 1391.12 724.539 1384.28C731.296 1377.53 740.694 1373.25 751.023 1373.25L819.292 1387.39V1316.61C806.472 1317.71 793.495 1318.42 780.381 1318.73C775.41 1318.89 770.362 1318.89 765.392 1318.89C760.421 1318.89 755.372 1318.89 750.401 1318.73C704.702 1317.66 660.669 1311.71 619.223 1301.37V1419.85C619.222 1435.39 606.485 1448.2 590.874 1448.2H492.393C471.811 1448.2 454.958 1431.35 454.958 1410.77C454.958 1400.44 459.152 1391.12 465.986 1384.28C472.743 1377.53 482.141 1373.25 492.471 1373.25L560.739 1387.39V1283.24C483.777 1254.44 418.797 1209.25 373.02 1151.52C373.02 1151.52 373.02 1151.52 373.02 1151.44C327.119 1093.5 300.479 1022.98 300.479 943.68C300.479 906.917 306.202 871.314 316.918 837.495C316.709 837.363 316.5 837.23 316.292 837.098C293.771 828.982 249.765 792.099 214.022 736.066C202.683 718.59 193.266 700.54 185.569 682.331C178.226 665.153 172.018 646.881 167.459 627.682C163.712 612.433 161.046 597.362 159.342 582.714C146.355 486.677 174.546 471.864 187.072 463.603C214.581 443.405 257.743 441.402 300.323 465.253L300.4 465.176L396.602 519.071C398.012 488.73 447.583 450.879 482.219 447.312C484.139 447.114 486.047 446.974 487.938 446.896C530.125 321.941 638.506 238 765.547 238Z"/>
</mask>
<path d="M765.547 238C793.046 238 819.669 241.933 844.934 249.363C876.868 258.307 904.137 272.801 926.575 288.631C1008.04 345.377 1061.92 445.212 1061.92 564.355C1061.92 569.043 1061.6 574.819 1061.08 580.965C1059.98 597.675 1057.26 613.882 1053.87 628.699C1054.27 628.954 1054.66 629.201 1055.03 629.441C1072.75 632.31 1090.99 638.465 1108.83 648.313L1381.29 798.676C1447.77 835.334 1466.57 913.39 1418.18 952.845C1417.75 953.194 1417.32 953.541 1416.89 953.89C1411.99 958.346 1392.19 975.455 1357.5 994.427C1317.18 1016.97 1270.04 1033.45 1218.18 1033.7C1206.13 1076.97 1185.45 1116.49 1157.76 1151.44C1143.59 1169.33 1127.57 1186.01 1109.92 1201.38C1056.58 1251.45 981.632 1293.66 877.775 1310.12V1419.85C877.775 1435.39 865.038 1448.2 849.427 1448.2H750.945C730.364 1448.2 713.51 1431.35 713.51 1410.77C713.51 1400.44 717.704 1391.12 724.539 1384.28C731.296 1377.53 740.694 1373.25 751.023 1373.25L819.292 1387.39V1316.61C806.472 1317.71 793.495 1318.42 780.381 1318.73C775.41 1318.89 770.362 1318.89 765.392 1318.89C760.421 1318.89 755.372 1318.89 750.401 1318.73C704.702 1317.66 660.669 1311.71 619.223 1301.37V1419.85C619.222 1435.39 606.485 1448.2 590.874 1448.2H492.393C471.811 1448.2 454.958 1431.35 454.958 1410.77C454.958 1400.44 459.152 1391.12 465.986 1384.28C472.743 1377.53 482.141 1373.25 492.471 1373.25L560.739 1387.39V1283.24C483.777 1254.44 418.797 1209.25 373.02 1151.52C373.02 1151.52 373.02 1151.52 373.02 1151.44C327.119 1093.5 300.479 1022.98 300.479 943.68C300.479 906.917 306.202 871.314 316.918 837.495C316.709 837.363 316.5 837.23 316.292 837.098C293.771 828.982 249.765 792.099 214.022 736.066C202.683 718.59 193.266 700.54 185.569 682.331C178.226 665.153 172.018 646.881 167.459 627.682C163.712 612.433 161.046 597.362 159.342 582.714C146.355 486.677 174.546 471.864 187.072 463.603C214.581 443.405 257.743 441.402 300.323 465.253L300.4 465.176L396.602 519.071C398.012 488.73 447.583 450.879 482.219 447.312C484.139 447.114 486.047 446.974 487.938 446.896C530.125 321.941 638.506 238 765.547 238Z" fill="white"/>
<path d="M765.547 238L765.547 214H765.547V238ZM844.934 249.363L838.162 272.388C838.261 272.417 838.361 272.446 838.461 272.474L844.934 249.363ZM926.575 288.631L912.74 308.242C912.779 308.269 912.818 308.297 912.858 308.324L926.575 288.631ZM1061.92 564.355L1085.92 564.355V564.355H1061.92ZM1061.08 580.965L1037.17 578.927C1037.15 579.08 1037.14 579.233 1037.13 579.386L1061.08 580.965ZM1053.87 628.699L1030.47 623.333C1028.2 633.258 1032.43 643.539 1041.04 648.982L1053.87 628.699ZM1055.03 629.441L1042.03 649.616C1044.81 651.407 1047.93 652.605 1051.2 653.133L1055.03 629.441ZM1108.83 648.313L1120.43 627.301L1120.43 627.301L1108.83 648.313ZM1381.29 798.676L1369.69 819.688L1369.7 819.693L1381.29 798.676ZM1418.18 952.845L1403.01 934.245L1403.01 934.248L1418.18 952.845ZM1416.89 953.89L1401.78 935.241C1401.43 935.527 1401.08 935.824 1400.75 936.131L1416.89 953.89ZM1357.5 994.427L1345.98 973.369C1345.92 973.406 1345.85 973.442 1345.79 973.479L1357.5 994.427ZM1218.18 1033.7L1218.06 1009.7C1207.33 1009.75 1197.94 1016.92 1195.06 1027.26L1218.18 1033.7ZM1157.76 1151.44L1176.57 1166.34L1176.58 1166.34L1157.76 1151.44ZM1109.92 1201.38L1094.16 1183.28C1093.94 1183.47 1093.72 1183.67 1093.5 1183.88L1109.92 1201.38ZM877.775 1310.12L874.019 1286.41C862.36 1288.26 853.775 1298.31 853.775 1310.12H877.775ZM877.775 1419.85L901.775 1419.85V1419.85H877.775ZM750.945 1448.2L750.945 1472.2H750.945V1448.2ZM713.51 1410.77L689.51 1410.77L689.51 1410.77L713.51 1410.77ZM724.539 1384.28L707.568 1367.31L707.568 1367.31L724.539 1384.28ZM751.023 1373.25L755.89 1349.75C754.289 1349.42 752.658 1349.25 751.023 1349.25V1373.25ZM819.292 1387.39L814.426 1410.89C821.495 1412.35 828.847 1410.56 834.445 1406C840.043 1401.44 843.292 1394.61 843.292 1387.39H819.292ZM819.292 1316.61H843.292C843.292 1309.89 840.473 1303.47 835.52 1298.93C830.568 1294.38 823.936 1292.12 817.239 1292.7L819.292 1316.61ZM780.381 1318.73L779.817 1294.74C779.755 1294.74 779.693 1294.74 779.631 1294.74L780.381 1318.73ZM765.392 1318.89V1294.89V1318.89ZM750.401 1318.73L751.151 1294.74C751.089 1294.74 751.027 1294.74 750.965 1294.74L750.401 1318.73ZM619.223 1301.37L625.032 1278.08C617.863 1276.29 610.27 1277.9 604.448 1282.45C598.626 1287 595.223 1293.98 595.223 1301.37H619.223ZM619.223 1419.85L643.223 1419.85V1419.85H619.223ZM492.393 1448.2L492.392 1472.2H492.393V1448.2ZM454.958 1410.77L430.958 1410.77L430.958 1410.77L454.958 1410.77ZM465.986 1384.28L449.016 1367.31L449.016 1367.31L465.986 1384.28ZM492.471 1373.25L497.337 1349.75C495.736 1349.42 494.106 1349.25 492.471 1349.25V1373.25ZM560.739 1387.39L555.873 1410.89C562.942 1412.35 570.294 1410.56 575.892 1406C581.49 1401.44 584.739 1394.61 584.739 1387.39H560.739ZM560.739 1283.24H584.739C584.739 1273.23 578.526 1264.27 569.15 1260.76L560.739 1283.24ZM373.02 1151.52H349.02C349.02 1156.93 350.85 1162.18 354.214 1166.43L373.02 1151.52ZM373.02 1151.44H397.02C397.02 1146.03 395.191 1140.78 391.832 1136.53L373.02 1151.44ZM300.479 943.68L276.479 943.68L276.479 943.68L300.479 943.68ZM316.918 837.495L339.797 844.745C343.088 834.358 338.969 823.057 329.767 817.224L316.918 837.495ZM316.292 837.098L329.183 816.853C327.689 815.902 326.095 815.119 324.429 814.519L316.292 837.098ZM214.022 736.066L234.256 723.159C234.223 723.107 234.189 723.055 234.156 723.003L214.022 736.066ZM185.569 682.331L207.676 672.987C207.663 672.957 207.65 672.927 207.637 672.897L185.569 682.331ZM167.459 627.682L190.81 622.136C190.795 622.076 190.781 622.016 190.766 621.955L167.459 627.682ZM159.342 582.714L183.181 579.941C183.164 579.793 183.145 579.645 183.125 579.498L159.342 582.714ZM187.072 463.603L200.286 483.638C200.621 483.416 200.952 483.186 201.276 482.948L187.072 463.603ZM300.323 465.253L288.595 486.192C297.971 491.444 309.695 489.823 317.294 482.223L300.323 465.253ZM300.4 465.176L312.131 444.238C302.755 438.985 291.029 440.606 283.43 448.205L300.4 465.176ZM396.602 519.071L384.871 540.009C392.13 544.076 400.977 544.093 408.251 540.054C415.526 536.015 420.189 528.497 420.576 520.186L396.602 519.071ZM482.219 447.312L479.76 423.438L479.76 423.438L482.219 447.312ZM487.938 446.896L488.939 470.875C498.859 470.46 507.5 463.98 510.676 454.573L487.938 446.896ZM765.547 238L765.547 262C790.745 262 815.087 265.602 838.162 272.388L844.934 249.363L851.705 226.338C824.25 218.264 795.347 214 765.547 214L765.547 238ZM844.934 249.363L838.461 272.474C867.317 280.556 892.129 293.701 912.74 308.242L926.575 288.631L940.41 269.02C916.145 251.901 886.42 236.059 851.406 226.253L844.934 249.363ZM926.575 288.631L912.858 308.324C987.458 360.288 1037.92 452.534 1037.92 564.355H1061.92H1085.92C1085.92 437.89 1028.62 330.465 940.293 268.938L926.575 288.631ZM1061.92 564.355L1037.92 564.355C1037.92 568.094 1037.66 573.124 1037.17 578.927L1061.08 580.965L1084.99 583.002C1085.55 576.514 1085.92 569.992 1085.92 564.355L1061.92 564.355ZM1061.08 580.965L1037.13 579.386C1036.13 594.567 1033.65 609.486 1030.47 623.333L1053.87 628.699L1077.26 634.065C1080.88 618.278 1083.82 600.783 1085.03 582.543L1061.08 580.965ZM1053.87 628.699L1041.04 648.982C1041.41 649.217 1041.73 649.425 1042.03 649.616L1055.03 629.441L1068.03 609.267C1067.58 608.977 1067.13 608.691 1066.7 608.416L1053.87 628.699ZM1055.03 629.441L1051.2 653.133C1066.13 655.551 1081.75 660.778 1097.24 669.326L1108.83 648.313L1120.43 627.301C1100.23 616.152 1079.37 609.069 1058.86 605.75L1055.03 629.441ZM1108.83 648.313L1097.24 669.326L1369.69 819.688L1381.29 798.676L1392.88 777.663L1120.43 627.301L1108.83 648.313ZM1381.29 798.676L1369.7 819.693C1397.6 835.076 1414.23 858.45 1419.47 880.308C1424.61 901.737 1419.03 921.182 1403.01 934.245L1418.18 952.845L1433.35 971.445C1465.71 945.053 1474.93 905.742 1466.15 869.115C1457.47 832.918 1431.46 798.934 1392.88 777.659L1381.29 798.676ZM1418.18 952.845L1403.01 934.248C1402.62 934.563 1402.28 934.841 1401.78 935.241L1416.89 953.89L1432 972.539C1432.37 972.241 1432.88 971.824 1433.35 971.441L1418.18 952.845ZM1416.89 953.89L1400.75 936.131C1397 939.537 1378.73 955.461 1345.98 973.369L1357.5 994.427L1369.01 1015.48C1405.65 995.45 1426.98 977.155 1433.03 971.649L1416.89 953.89ZM1357.5 994.427L1345.79 973.479C1307.99 994.61 1264.84 1009.47 1218.06 1009.7L1218.18 1033.7L1218.3 1057.7C1275.25 1057.42 1326.37 1039.33 1369.21 1015.37L1357.5 994.427ZM1218.18 1033.7L1195.06 1027.26C1183.91 1067.28 1164.76 1103.96 1138.95 1136.53L1157.76 1151.44L1176.58 1166.34C1206.14 1129.02 1228.34 1086.65 1241.3 1040.14L1218.18 1033.7ZM1157.76 1151.44L1138.95 1136.53C1125.73 1153.22 1110.74 1168.84 1094.16 1183.28L1109.92 1201.38L1125.68 1219.48C1144.39 1203.18 1161.44 1185.44 1176.57 1166.34L1157.76 1151.44ZM1109.92 1201.38L1093.5 1183.88C1043.62 1230.69 973.079 1270.72 874.019 1286.41L877.775 1310.12L881.531 1333.82C990.184 1316.61 1069.53 1272.2 1126.35 1218.88L1109.92 1201.38ZM877.775 1310.12H853.775V1419.85H877.775H901.775V1310.12H877.775ZM877.775 1419.85L853.775 1419.85C853.775 1422.17 851.741 1424.2 849.427 1424.2V1448.2V1472.2C878.334 1472.2 901.775 1448.6 901.775 1419.85L877.775 1419.85ZM849.427 1448.2V1424.2H750.945V1448.2V1472.2H849.427V1448.2ZM750.945 1448.2L750.945 1424.2C743.618 1424.2 737.51 1418.09 737.51 1410.77L713.51 1410.77L689.51 1410.77C689.51 1444.6 717.11 1472.2 750.945 1472.2L750.945 1448.2ZM713.51 1410.77H737.51C737.51 1407.12 738.945 1403.82 741.51 1401.25L724.539 1384.28L707.568 1367.31C696.464 1378.42 689.51 1393.75 689.51 1410.77H713.51ZM724.539 1384.28L741.51 1401.25C744.023 1398.74 747.414 1397.25 751.023 1397.25V1373.25V1349.25C733.973 1349.25 718.569 1356.31 707.568 1367.31L724.539 1384.28ZM751.023 1373.25L746.157 1396.76L814.426 1410.89L819.292 1387.39L824.158 1363.89L755.89 1349.75L751.023 1373.25ZM819.292 1387.39H843.292V1316.61H819.292H795.292V1387.39H819.292ZM819.292 1316.61L817.239 1292.7C804.914 1293.76 792.434 1294.44 779.817 1294.74L780.381 1318.73L780.945 1342.72C794.556 1342.41 808.031 1341.66 821.345 1340.52L819.292 1316.61ZM780.381 1318.73L779.631 1294.74C775.099 1294.88 770.428 1294.89 765.392 1294.89L765.392 1318.89L765.392 1342.89C770.297 1342.89 775.722 1342.89 781.13 1342.72L780.381 1318.73ZM765.392 1318.89V1294.89C760.355 1294.89 755.683 1294.88 751.151 1294.74L750.401 1318.73L749.652 1342.72C755.061 1342.89 760.487 1342.89 765.392 1342.89V1318.89ZM750.401 1318.73L750.965 1294.74C706.98 1293.71 664.71 1287.98 625.032 1278.08L619.223 1301.37L613.414 1324.65C656.629 1335.43 702.423 1341.61 749.838 1342.72L750.401 1318.73ZM619.223 1301.37H595.223V1419.85H619.223H643.223V1301.37H619.223ZM619.223 1419.85L595.223 1419.85C595.223 1422.17 593.188 1424.2 590.874 1424.2V1448.2V1472.2C619.782 1472.2 643.222 1448.6 643.223 1419.85L619.223 1419.85ZM590.874 1448.2V1424.2H492.393V1448.2V1472.2H590.874V1448.2ZM492.393 1448.2L492.393 1424.2C485.066 1424.2 478.958 1418.09 478.958 1410.77L454.958 1410.77L430.958 1410.77C430.958 1444.6 458.556 1472.2 492.392 1472.2L492.393 1448.2ZM454.958 1410.77H478.958C478.958 1407.12 480.393 1403.82 482.957 1401.25L465.986 1384.28L449.016 1367.31C437.911 1378.42 430.958 1393.75 430.958 1410.77H454.958ZM465.986 1384.28L482.957 1401.25C485.471 1398.74 488.862 1397.25 492.471 1397.25V1373.25V1349.25C475.42 1349.25 460.016 1356.31 449.016 1367.31L465.986 1384.28ZM492.471 1373.25L487.604 1396.76L555.873 1410.89L560.739 1387.39L565.605 1363.89L497.337 1349.75L492.471 1373.25ZM560.739 1387.39H584.739V1283.24H560.739H536.739V1387.39H560.739ZM560.739 1283.24L569.15 1260.76C495.684 1233.27 434.523 1190.45 391.825 1136.6L373.02 1151.52L354.214 1166.43C403.071 1228.04 471.87 1275.61 552.328 1305.72L560.739 1283.24ZM373.02 1151.52C397.02 1151.52 397.02 1151.52 397.02 1151.52C397.02 1151.52 397.02 1151.52 397.02 1151.52C397.02 1151.52 397.02 1151.52 397.02 1151.52C397.02 1151.52 397.02 1151.52 397.02 1151.52C397.02 1151.52 397.02 1151.52 397.02 1151.52C397.02 1151.52 397.02 1151.52 397.02 1151.52C397.02 1151.52 397.02 1151.52 397.02 1151.52C397.02 1151.52 397.02 1151.52 397.02 1151.52C397.02 1151.52 397.02 1151.52 397.02 1151.52C397.02 1151.52 397.02 1151.52 397.02 1151.52C397.02 1151.52 397.02 1151.52 397.02 1151.52C397.02 1151.52 397.02 1151.52 397.02 1151.52C397.02 1151.52 397.02 1151.52 397.02 1151.52C397.02 1151.52 397.02 1151.52 397.02 1151.52C397.02 1151.52 397.02 1151.52 397.02 1151.52C397.02 1151.52 397.02 1151.52 397.02 1151.52C397.02 1151.52 397.02 1151.52 397.02 1151.52C397.02 1151.52 397.02 1151.52 397.02 1151.52C397.02 1151.52 397.02 1151.52 397.02 1151.52C397.02 1151.52 397.02 1151.52 397.02 1151.52C397.02 1151.52 397.02 1151.52 397.02 1151.52C397.02 1151.52 397.02 1151.52 397.02 1151.52C397.02 1151.52 397.02 1151.52 397.02 1151.52C397.02 1151.52 397.02 1151.52 397.02 1151.52C397.02 1151.52 397.02 1151.52 397.02 1151.52C397.02 1151.52 397.02 1151.52 397.02 1151.52C397.02 1151.52 397.02 1151.52 397.02 1151.52C397.02 1151.52 397.02 1151.52 397.02 1151.52C397.02 1151.52 397.02 1151.52 397.02 1151.52C397.02 1151.52 397.02 1151.52 397.02 1151.52C397.02 1151.52 397.02 1151.52 397.02 1151.52C397.02 1151.52 397.02 1151.52 397.02 1151.52C397.02 1151.52 397.02 1151.52 397.02 1151.52C397.02 1151.52 397.02 1151.52 397.02 1151.52C397.02 1151.52 397.02 1151.52 397.02 1151.52C397.02 1151.52 397.02 1151.52 397.02 1151.52C397.02 1151.52 397.02 1151.52 397.02 1151.52C397.02 1151.52 397.02 1151.52 397.02 1151.52C397.02 1151.52 397.02 1151.52 397.02 1151.52C397.02 1151.52 397.02 1151.52 397.02 1151.52C397.02 1151.52 397.02 1151.52 397.02 1151.52C397.02 1151.52 397.02 1151.52 397.02 1151.52C397.02 1151.52 397.02 1151.52 397.02 1151.52C397.02 1151.52 397.02 1151.52 397.02 1151.52C397.02 1151.52 397.02 1151.52 397.02 1151.52C397.02 1151.52 397.02 1151.52 397.02 1151.52C397.02 1151.52 397.02 1151.52 397.02 1151.52C397.02 1151.52 397.02 1151.52 397.02 1151.52C397.02 1151.52 397.02 1151.52 397.02 1151.52C397.02 1151.52 397.02 1151.52 397.02 1151.52C397.02 1151.52 397.02 1151.52 397.02 1151.52C397.02 1151.52 397.02 1151.52 397.02 1151.52C397.02 1151.52 397.02 1151.52 397.02 1151.52C397.02 1151.52 397.02 1151.52 397.02 1151.52C397.02 1151.52 397.02 1151.52 397.02 1151.52C397.02 1151.52 397.02 1151.52 397.02 1151.52C397.02 1151.52 397.02 1151.52 397.02 1151.52C397.02 1151.52 397.02 1151.52 397.02 1151.52C397.02 1151.52 397.02 1151.52 397.02 1151.52C397.02 1151.52 397.02 1151.52 397.02 1151.52C397.02 1151.52 397.02 1151.52 397.02 1151.52C397.02 1151.52 397.02 1151.52 397.02 1151.52C397.02 1151.52 397.02 1151.52 397.02 1151.52C397.02 1151.52 397.02 1151.52 397.02 1151.52C397.02 1151.52 397.02 1151.52 397.02 1151.52C397.02 1151.52 397.02 1151.52 397.02 1151.52C397.02 1151.52 397.02 1151.52 397.02 1151.52C397.02 1151.52 397.02 1151.52 397.02 1151.52C397.02 1151.52 397.02 1151.52 397.02 1151.52C397.02 1151.52 397.02 1151.52 397.02 1151.52C397.02 1151.52 397.02 1151.52 397.02 1151.52C397.02 1151.52 397.02 1151.52 397.02 1151.52C397.02 1151.52 397.02 1151.52 397.02 1151.52C397.02 1151.52 397.02 1151.52 397.02 1151.52C397.02 1151.52 397.02 1151.52 397.02 1151.52C397.02 1151.52 397.02 1151.52 397.02 1151.52C397.02 1151.52 397.02 1151.52 397.02 1151.52C397.02 1151.52 397.02 1151.52 397.02 1151.52C397.02 1151.52 397.02 1151.52 397.02 1151.52C397.02 1151.52 397.02 1151.52 397.02 1151.52C397.02 1151.52 397.02 1151.52 397.02 1151.52C397.02 1151.52 397.02 1151.52 397.02 1151.52C397.02 1151.52 397.02 1151.52 397.02 1151.52C397.02 1151.52 397.02 1151.52 397.02 1151.52C397.02 1151.52 397.02 1151.52 397.02 1151.52C397.02 1151.52 397.02 1151.52 397.02 1151.52C397.02 1151.52 397.02 1151.52 397.02 1151.52C397.02 1151.52 397.02 1151.52 397.02 1151.52C397.02 1151.52 397.02 1151.52 397.02 1151.52C397.02 1151.52 397.02 1151.52 397.02 1151.52C397.02 1151.52 397.02 1151.52 397.02 1151.52C397.02 1151.52 397.02 1151.52 397.02 1151.52C397.02 1151.52 397.02 1151.52 397.02 1151.52C397.02 1151.52 397.02 1151.52 397.02 1151.52C397.02 1151.52 397.02 1151.52 397.02 1151.52C397.02 1151.52 397.02 1151.52 397.02 1151.52C397.02 1151.52 397.02 1151.52 397.02 1151.52C397.02 1151.52 397.02 1151.52 397.02 1151.52C397.02 1151.52 397.02 1151.52 397.02 1151.52C397.02 1151.52 397.02 1151.52 397.02 1151.52C397.02 1151.51 397.02 1151.51 397.02 1151.51C397.02 1151.51 397.02 1151.51 397.02 1151.51C397.02 1151.51 397.02 1151.51 397.02 1151.51C397.02 1151.51 397.02 1151.51 397.02 1151.51C397.02 1151.51 397.02 1151.51 397.02 1151.51C397.02 1151.51 397.02 1151.51 397.02 1151.51C397.02 1151.51 397.02 1151.51 397.02 1151.51C397.02 1151.51 397.02 1151.51 397.02 1151.51C397.02 1151.51 397.02 1151.51 397.02 1151.51C397.02 1151.51 397.02 1151.51 397.02 1151.51C397.02 1151.51 397.02 1151.51 397.02 1151.51C397.02 1151.51 397.02 1151.51 397.02 1151.51C397.02 1151.51 397.02 1151.51 397.02 1151.51C397.02 1151.51 397.02 1151.51 397.02 1151.51C397.02 1151.51 397.02 1151.51 397.02 1151.51C397.02 1151.51 397.02 1151.51 397.02 1151.51C397.02 1151.51 397.02 1151.51 397.02 1151.51C397.02 1151.51 397.02 1151.51 397.02 1151.51C397.02 1151.51 397.02 1151.51 397.02 1151.51C397.02 1151.51 397.02 1151.51 397.02 1151.51C397.02 1151.51 397.02 1151.51 397.02 1151.51C397.02 1151.51 397.02 1151.51 397.02 1151.51C397.02 1151.51 397.02 1151.51 397.02 1151.51C397.02 1151.51 397.02 1151.51 397.02 1151.51C397.02 1151.51 397.02 1151.51 397.02 1151.51C397.02 1151.51 397.02 1151.51 397.02 1151.51C397.02 1151.51 397.02 1151.51 397.02 1151.51C397.02 1151.51 397.02 1151.51 397.02 1151.51C397.02 1151.51 397.02 1151.51 397.02 1151.51C397.02 1151.51 397.02 1151.51 397.02 1151.51C397.02 1151.51 397.02 1151.51 397.02 1151.51C397.02 1151.51 397.02 1151.51 397.02 1151.51C397.02 1151.51 397.02 1151.51 397.02 1151.51C397.02 1151.51 397.02 1151.51 397.02 1151.51C397.02 1151.51 397.02 1151.51 397.02 1151.51C397.02 1151.51 397.02 1151.51 397.02 1151.51C397.02 1151.51 397.02 1151.51 397.02 1151.51C397.02 1151.51 397.02 1151.51 397.02 1151.51C397.02 1151.51 397.02 1151.51 397.02 1151.51C397.02 1151.51 397.02 1151.51 397.02 1151.51C397.02 1151.51 397.02 1151.51 397.02 1151.51C397.02 1151.51 397.02 1151.51 397.02 1151.51C397.02 1151.51 397.02 1151.51 397.02 1151.51C397.02 1151.51 397.02 1151.51 397.02 1151.51C397.02 1151.51 397.02 1151.51 397.02 1151.51C397.02 1151.51 397.02 1151.51 397.02 1151.51C397.02 1151.51 397.02 1151.51 397.02 1151.51C397.02 1151.51 397.02 1151.51 397.02 1151.51C397.02 1151.51 397.02 1151.51 397.02 1151.51C397.02 1151.51 397.02 1151.51 397.02 1151.51C397.02 1151.51 397.02 1151.51 397.02 1151.51C397.02 1151.51 397.02 1151.51 397.02 1151.51C397.02 1151.51 397.02 1151.51 397.02 1151.51C397.02 1151.51 397.02 1151.51 397.02 1151.51C397.02 1151.51 397.02 1151.51 397.02 1151.51C397.02 1151.51 397.02 1151.51 397.02 1151.51C397.02 1151.51 397.02 1151.51 397.02 1151.51C397.02 1151.51 397.02 1151.51 397.02 1151.51C397.02 1151.51 397.02 1151.51 397.02 1151.51C397.02 1151.51 397.02 1151.51 397.02 1151.51C397.02 1151.51 397.02 1151.51 397.02 1151.51C397.02 1151.51 397.02 1151.51 397.02 1151.51C397.02 1151.51 397.02 1151.51 397.02 1151.51C397.02 1151.51 397.02 1151.51 397.02 1151.51C397.02 1151.51 397.02 1151.51 397.02 1151.51C397.02 1151.51 397.02 1151.51 397.02 1151.51C397.02 1151.51 397.02 1151.51 397.02 1151.51C397.02 1151.51 397.02 1151.51 397.02 1151.51C397.02 1151.51 397.02 1151.51 397.02 1151.51C397.02 1151.51 397.02 1151.51 397.02 1151.51C397.02 1151.51 397.02 1151.51 397.02 1151.51C397.02 1151.51 397.02 1151.51 397.02 1151.51C397.02 1151.51 397.02 1151.51 397.02 1151.51C397.02 1151.51 397.02 1151.51 397.02 1151.51C397.02 1151.51 397.02 1151.51 397.02 1151.51C397.02 1151.51 397.02 1151.51 397.02 1151.51C397.02 1151.51 397.02 1151.51 397.02 1151.51C397.02 1151.51 397.02 1151.51 397.02 1151.51C397.02 1151.51 397.02 1151.51 397.02 1151.51C397.02 1151.51 397.02 1151.51 397.02 1151.51C397.02 1151.51 397.02 1151.51 397.02 1151.51C397.02 1151.51 397.02 1151.51 397.02 1151.51C397.02 1151.51 397.02 1151.51 397.02 1151.51C397.02 1151.51 397.02 1151.51 397.02 1151.51C397.02 1151.51 397.02 1151.51 397.02 1151.51C397.02 1151.51 397.02 1151.51 397.02 1151.51C397.02 1151.51 397.02 1151.51 397.02 1151.51C397.02 1151.51 397.02 1151.51 397.02 1151.51C397.02 1151.51 397.02 1151.51 397.02 1151.51C397.02 1151.51 397.02 1151.51 397.02 1151.51C397.02 1151.51 397.02 1151.51 397.02 1151.51C397.02 1151.51 397.02 1151.51 397.02 1151.51C397.02 1151.51 397.02 1151.51 397.02 1151.51C397.02 1151.51 397.02 1151.51 397.02 1151.51C397.02 1151.51 397.02 1151.51 397.02 1151.51C397.02 1151.51 397.02 1151.51 397.02 1151.51C397.02 1151.51 397.02 1151.51 397.02 1151.51C397.02 1151.51 397.02 1151.51 397.02 1151.51C397.02 1151.51 397.02 1151.51 397.02 1151.51C397.02 1151.51 397.02 1151.51 397.02 1151.51C397.02 1151.51 397.02 1151.51 397.02 1151.51C397.02 1151.51 397.02 1151.51 397.02 1151.51C397.02 1151.51 397.02 1151.51 397.02 1151.51C397.02 1151.51 397.02 1151.51 397.02 1151.51C397.02 1151.51 397.02 1151.51 397.02 1151.51C397.02 1151.51 397.02 1151.51 397.02 1151.51C397.02 1151.51 397.02 1151.51 397.02 1151.51C397.02 1151.51 397.02 1151.51 397.02 1151.51C397.02 1151.51 397.02 1151.51 397.02 1151.51C397.02 1151.51 397.02 1151.51 397.02 1151.51C397.02 1151.51 397.02 1151.51 397.02 1151.51C397.02 1151.51 397.02 1151.51 397.02 1151.51C397.02 1151.51 397.02 1151.51 397.02 1151.51C397.02 1151.51 397.02 1151.51 397.02 1151.51C397.02 1151.51 397.02 1151.51 397.02 1151.51C397.02 1151.51 397.02 1151.51 397.02 1151.51C397.02 1151.51 397.02 1151.51 397.02 1151.51C397.02 1151.51 397.02 1151.51 397.02 1151.51C397.02 1151.51 397.02 1151.51 397.02 1151.51C397.02 1151.51 397.02 1151.51 397.02 1151.51C397.02 1151.51 397.02 1151.51 397.02 1151.51C397.02 1151.51 397.02 1151.51 397.02 1151.51C397.02 1151.51 397.02 1151.51 397.02 1151.51C397.02 1151.51 397.02 1151.51 397.02 1151.51C397.02 1151.51 397.02 1151.51 397.02 1151.51C397.02 1151.51 397.02 1151.51 397.02 1151.51C397.02 1151.51 397.02 1151.51 397.02 1151.51C397.02 1151.51 397.02 1151.51 397.02 1151.51C397.02 1151.51 397.02 1151.51 397.02 1151.51C397.02 1151.51 397.02 1151.51 397.02 1151.51C397.02 1151.51 397.02 1151.51 397.02 1151.51C397.02 1151.51 397.02 1151.51 397.02 1151.51C397.02 1151.51 397.02 1151.51 397.02 1151.51C397.02 1151.51 397.02 1151.51 397.02 1151.51C397.02 1151.51 397.02 1151.51 397.02 1151.51C397.02 1151.51 397.02 1151.51 397.02 1151.51C397.02 1151.51 397.02 1151.51 397.02 1151.51C397.02 1151.51 397.02 1151.51 397.02 1151.51C397.02 1151.51 397.02 1151.51 397.02 1151.51C397.02 1151.51 397.02 1151.51 397.02 1151.51C397.02 1151.51 397.02 1151.51 397.02 1151.51C397.02 1151.51 397.02 1151.51 397.02 1151.51C397.02 1151.51 397.02 1151.51 397.02 1151.51C397.02 1151.51 397.02 1151.51 397.02 1151.51C397.02 1151.51 397.02 1151.51 397.02 1151.51C397.02 1151.51 397.02 1151.51 397.02 1151.51C397.02 1151.51 397.02 1151.51 397.02 1151.51C397.02 1151.51 397.02 1151.51 397.02 1151.51C397.02 1151.51 397.02 1151.51 397.02 1151.51C397.02 1151.51 397.02 1151.51 397.02 1151.51C397.02 1151.51 397.02 1151.51 397.02 1151.51C397.02 1151.51 397.02 1151.51 397.02 1151.51C397.02 1151.51 397.02 1151.51 397.02 1151.51C397.02 1151.51 397.02 1151.51 397.02 1151.51C397.02 1151.51 397.02 1151.51 397.02 1151.51C397.02 1151.51 397.02 1151.51 397.02 1151.51C397.02 1151.51 397.02 1151.51 397.02 1151.51C397.02 1151.51 397.02 1151.51 397.02 1151.51C397.02 1151.51 397.02 1151.51 397.02 1151.51C397.02 1151.51 397.02 1151.51 397.02 1151.51C397.02 1151.51 397.02 1151.51 397.02 1151.51C397.02 1151.51 397.02 1151.51 397.02 1151.5C397.02 1151.5 397.02 1151.5 397.02 1151.5C397.02 1151.5 397.02 1151.5 397.02 1151.5C397.02 1151.5 397.02 1151.5 397.02 1151.5C397.02 1151.5 397.02 1151.5 397.02 1151.5C397.02 1151.5 397.02 1151.5 397.02 1151.5C397.02 1151.5 397.02 1151.5 397.02 1151.5C397.02 1151.5 397.02 1151.5 397.02 1151.5C397.02 1151.5 397.02 1151.5 397.02 1151.5C397.02 1151.5 397.02 1151.5 397.02 1151.5C397.02 1151.5 397.02 1151.5 397.02 1151.5C397.02 1151.5 397.02 1151.5 397.02 1151.5C397.02 1151.5 397.02 1151.5 397.02 1151.5C397.02 1151.5 397.02 1151.5 397.02 1151.5C397.02 1151.5 397.02 1151.5 397.02 1151.5C397.02 1151.5 397.02 1151.5 397.02 1151.5C397.02 1151.5 397.02 1151.5 397.02 1151.5C397.02 1151.5 397.02 1151.5 397.02 1151.5C397.02 1151.5 397.02 1151.5 397.02 1151.5C397.02 1151.5 397.02 1151.5 397.02 1151.5C397.02 1151.5 397.02 1151.5 397.02 1151.5C397.02 1151.5 397.02 1151.5 397.02 1151.5C397.02 1151.5 397.02 1151.5 397.02 1151.5C397.02 1151.5 397.02 1151.5 397.02 1151.5C397.02 1151.5 397.02 1151.5 397.02 1151.5C397.02 1151.5 397.02 1151.5 397.02 1151.5C397.02 1151.5 397.02 1151.5 397.02 1151.5C397.02 1151.5 397.02 1151.5 397.02 1151.5C397.02 1151.5 397.02 1151.5 397.02 1151.5C397.02 1151.5 397.02 1151.5 397.02 1151.5C397.02 1151.5 397.02 1151.5 397.02 1151.5C397.02 1151.5 397.02 1151.5 397.02 1151.5C397.02 1151.5 397.02 1151.5 397.02 1151.5C397.02 1151.5 397.02 1151.5 397.02 1151.5C397.02 1151.5 397.02 1151.5 397.02 1151.5C397.02 1151.5 397.02 1151.5 397.02 1151.5C397.02 1151.5 397.02 1151.5 397.02 1151.5C397.02 1151.5 397.02 1151.5 397.02 1151.5C397.02 1151.5 397.02 1151.5 397.02 1151.5C397.02 1151.5 397.02 1151.5 397.02 1151.5C397.02 1151.5 397.02 1151.5 397.02 1151.5C397.02 1151.5 397.02 1151.5 397.02 1151.5C397.02 1151.5 397.02 1151.5 397.02 1151.5C397.02 1151.5 397.02 1151.5 397.02 1151.5C397.02 1151.5 397.02 1151.5 397.02 1151.5C397.02 1151.5 397.02 1151.5 397.02 1151.5C397.02 1151.5 397.02 1151.5 397.02 1151.5C397.02 1151.5 397.02 1151.5 397.02 1151.5C397.02 1151.5 397.02 1151.5 397.02 1151.5C397.02 1151.5 397.02 1151.5 397.02 1151.5C397.02 1151.5 397.02 1151.5 397.02 1151.5C397.02 1151.5 397.02 1151.5 397.02 1151.5C397.02 1151.5 397.02 1151.5 397.02 1151.5C397.02 1151.5 397.02 1151.5 397.02 1151.5C397.02 1151.5 397.02 1151.5 397.02 1151.5C397.02 1151.5 397.02 1151.5 397.02 1151.5C397.02 1151.5 397.02 1151.5 397.02 1151.5C397.02 1151.5 397.02 1151.5 397.02 1151.5C397.02 1151.5 397.02 1151.5 397.02 1151.5C397.02 1151.5 397.02 1151.5 397.02 1151.5C397.02 1151.5 397.02 1151.5 397.02 1151.5C397.02 1151.5 397.02 1151.5 397.02 1151.5C397.02 1151.5 397.02 1151.5 397.02 1151.5C397.02 1151.5 397.02 1151.5 397.02 1151.5C397.02 1151.5 397.02 1151.5 397.02 1151.5C397.02 1151.5 397.02 1151.5 397.02 1151.5C397.02 1151.5 397.02 1151.49 397.02 1151.49C397.02 1151.49 397.02 1151.49 397.02 1151.49C397.02 1151.49 397.02 1151.49 397.02 1151.49C397.02 1151.49 397.02 1151.49 397.02 1151.49C397.02 1151.49 397.02 1151.49 397.02 1151.49C397.02 1151.49 397.02 1151.49 397.02 1151.49C397.02 1151.49 397.02 1151.49 397.02 1151.49C397.02 1151.49 397.02 1151.49 397.02 1151.49C397.02 1151.49 397.02 1151.49 397.02 1151.49C397.02 1151.49 397.02 1151.49 397.02 1151.49C397.02 1151.49 397.02 1151.49 397.02 1151.49C397.02 1151.49 397.02 1151.49 397.02 1151.49C397.02 1151.49 397.02 1151.49 397.02 1151.49C397.02 1151.49 397.02 1151.49 397.02 1151.49C397.02 1151.49 397.02 1151.49 397.02 1151.49C397.02 1151.49 397.02 1151.49 397.02 1151.49C397.02 1151.49 397.02 1151.49 397.02 1151.49C397.02 1151.49 397.02 1151.49 397.02 1151.49C397.02 1151.49 397.02 1151.49 397.02 1151.49C397.02 1151.49 397.02 1151.49 397.02 1151.49C397.02 1151.49 397.02 1151.49 397.02 1151.49C397.02 1151.49 397.02 1151.49 397.02 1151.49C397.02 1151.49 397.02 1151.49 397.02 1151.49C397.02 1151.49 397.02 1151.49 397.02 1151.49C397.02 1151.49 397.02 1151.49 397.02 1151.49C397.02 1151.49 397.02 1151.49 397.02 1151.49C397.02 1151.49 397.02 1151.49 397.02 1151.49C397.02 1151.49 397.02 1151.49 397.02 1151.49C397.02 1151.49 397.02 1151.49 397.02 1151.49C397.02 1151.49 397.02 1151.49 397.02 1151.49C397.02 1151.49 397.02 1151.49 397.02 1151.49C397.02 1151.49 397.02 1151.49 397.02 1151.49C397.02 1151.49 397.02 1151.49 397.02 1151.49C397.02 1151.49 397.02 1151.49 397.02 1151.49C397.02 1151.49 397.02 1151.49 397.02 1151.49C397.02 1151.49 397.02 1151.49 397.02 1151.49C397.02 1151.49 397.02 1151.49 397.02 1151.49C397.02 1151.49 397.02 1151.49 397.02 1151.49C397.02 1151.49 397.02 1151.49 397.02 1151.49C397.02 1151.49 397.02 1151.49 397.02 1151.49C397.02 1151.49 397.02 1151.49 397.02 1151.49C397.02 1151.49 397.02 1151.49 397.02 1151.49C397.02 1151.49 397.02 1151.49 397.02 1151.49C397.02 1151.49 397.02 1151.49 397.02 1151.49C397.02 1151.49 397.02 1151.49 397.02 1151.49C397.02 1151.49 397.02 1151.49 397.02 1151.49C397.02 1151.49 397.02 1151.49 397.02 1151.48C397.02 1151.48 397.02 1151.48 397.02 1151.48C397.02 1151.48 397.02 1151.48 397.02 1151.48C397.02 1151.48 397.02 1151.48 397.02 1151.48C397.02 1151.48 397.02 1151.48 397.02 1151.48C397.02 1151.48 397.02 1151.48 397.02 1151.48C397.02 1151.48 397.02 1151.48 397.02 1151.48C397.02 1151.48 397.02 1151.48 397.02 1151.48C397.02 1151.48 397.02 1151.48 397.02 1151.48C397.02 1151.48 397.02 1151.48 397.02 1151.48C397.02 1151.48 397.02 1151.48 397.02 1151.48C397.02 1151.48 397.02 1151.48 397.02 1151.48C397.02 1151.48 397.02 1151.48 397.02 1151.48C397.02 1151.48 397.02 1151.48 397.02 1151.48C397.02 1151.48 397.02 1151.48 397.02 1151.48C397.02 1151.48 397.02 1151.48 397.02 1151.48C397.02 1151.48 397.02 1151.48 397.02 1151.48C397.02 1151.48 397.02 1151.48 397.02 1151.48C397.02 1151.48 397.02 1151.48 397.02 1151.48C397.02 1151.48 397.02 1151.48 397.02 1151.48C397.02 1151.48 397.02 1151.48 397.02 1151.48C397.02 1151.48 397.02 1151.48 397.02 1151.48C397.02 1151.48 397.02 1151.48 397.02 1151.48C397.02 1151.48 397.02 1151.48 397.02 1151.48C397.02 1151.48 397.02 1151.48 397.02 1151.48C397.02 1151.48 397.02 1151.48 397.02 1151.48C397.02 1151.48 397.02 1151.48 397.02 1151.48C397.02 1151.48 397.02 1151.48 397.02 1151.48C397.02 1151.48 397.02 1151.48 397.02 1151.48C397.02 1151.48 397.02 1151.48 397.02 1151.48C397.02 1151.48 397.02 1151.48 397.02 1151.48C397.02 1151.48 397.02 1151.48 397.02 1151.48C397.02 1151.48 397.02 1151.48 397.02 1151.48C397.02 1151.48 397.02 1151.48 397.02 1151.48C397.02 1151.48 397.02 1151.48 397.02 1151.48C397.02 1151.48 397.02 1151.48 397.02 1151.48C397.02 1151.48 397.02 1151.48 397.02 1151.48C397.02 1151.48 397.02 1151.48 397.02 1151.48C397.02 1151.47 397.02 1151.47 397.02 1151.47C397.02 1151.47 397.02 1151.47 397.02 1151.47C397.02 1151.47 397.02 1151.47 397.02 1151.47C397.02 1151.47 397.02 1151.47 397.02 1151.47C397.02 1151.47 397.02 1151.47 397.02 1151.47C397.02 1151.47 397.02 1151.47 397.02 1151.47C397.02 1151.47 397.02 1151.47 397.02 1151.47C397.02 1151.47 397.02 1151.47 397.02 1151.47C397.02 1151.47 397.02 1151.47 397.02 1151.47C397.02 1151.47 397.02 1151.47 397.02 1151.47C397.02 1151.47 397.02 1151.47 397.02 1151.47C397.02 1151.47 397.02 1151.47 397.02 1151.47C397.02 1151.47 397.02 1151.47 397.02 1151.47C397.02 1151.47 397.02 1151.47 397.02 1151.47C397.02 1151.47 397.02 1151.47 397.02 1151.47C397.02 1151.47 397.02 1151.47 397.02 1151.47C397.02 1151.47 397.02 1151.47 397.02 1151.47C397.02 1151.47 397.02 1151.47 397.02 1151.47C397.02 1151.47 397.02 1151.47 397.02 1151.47C397.02 1151.47 397.02 1151.47 397.02 1151.47C397.02 1151.47 397.02 1151.47 397.02 1151.47C397.02 1151.47 397.02 1151.47 397.02 1151.47C397.02 1151.47 397.02 1151.47 397.02 1151.47C397.02 1151.47 397.02 1151.47 397.02 1151.47C397.02 1151.47 397.02 1151.47 397.02 1151.47C397.02 1151.47 397.02 1151.47 397.02 1151.47C397.02 1151.47 397.02 1151.47 397.02 1151.47C397.02 1151.47 397.02 1151.47 397.02 1151.47C397.02 1151.47 397.02 1151.47 397.02 1151.47C397.02 1151.47 397.02 1151.47 397.02 1151.47C397.02 1151.47 397.02 1151.47 397.02 1151.47C397.02 1151.47 397.02 1151.46 397.02 1151.46C397.02 1151.46 397.02 1151.46 397.02 1151.46C397.02 1151.46 397.02 1151.46 397.02 1151.46C397.02 1151.46 397.02 1151.46 397.02 1151.46C397.02 1151.46 397.02 1151.46 397.02 1151.46C397.02 1151.46 397.02 1151.46 397.02 1151.46C397.02 1151.46 397.02 1151.46 397.02 1151.46C397.02 1151.46 397.02 1151.46 397.02 1151.46C397.02 1151.46 397.02 1151.46 397.02 1151.46C397.02 1151.46 397.02 1151.46 397.02 1151.46C397.02 1151.46 397.02 1151.46 397.02 1151.46C397.02 1151.46 397.02 1151.46 397.02 1151.46C397.02 1151.46 397.02 1151.46 397.02 1151.46C397.02 1151.46 397.02 1151.46 397.02 1151.46C397.02 1151.46 397.02 1151.46 397.02 1151.46C397.02 1151.46 397.02 1151.46 397.02 1151.46C397.02 1151.46 397.02 1151.46 397.02 1151.46C397.02 1151.46 397.02 1151.46 397.02 1151.46C397.02 1151.46 397.02 1151.46 397.02 1151.46C397.02 1151.46 397.02 1151.46 397.02 1151.46C397.02 1151.46 397.02 1151.46 397.02 1151.46C397.02 1151.46 397.02 1151.46 397.02 1151.46C397.02 1151.46 397.02 1151.46 397.02 1151.46C397.02 1151.46 397.02 1151.46 397.02 1151.46C397.02 1151.46 397.02 1151.46 397.02 1151.46C397.02 1151.46 397.02 1151.46 397.02 1151.46C397.02 1151.46 397.02 1151.46 397.02 1151.46C397.02 1151.46 397.02 1151.46 397.02 1151.46C397.02 1151.45 397.02 1151.45 397.02 1151.45C397.02 1151.45 397.02 1151.45 397.02 1151.45C397.02 1151.45 397.02 1151.45 397.02 1151.45C397.02 1151.45 397.02 1151.45 397.02 1151.45C397.02 1151.45 397.02 1151.45 397.02 1151.45C397.02 1151.45 397.02 1151.45 397.02 1151.45C397.02 1151.45 397.02 1151.45 397.02 1151.45C397.02 1151.45 397.02 1151.45 397.02 1151.45C397.02 1151.45 397.02 1151.45 397.02 1151.45C397.02 1151.45 397.02 1151.45 397.02 1151.45C397.02 1151.45 397.02 1151.45 397.02 1151.45C397.02 1151.45 397.02 1151.45 397.02 1151.45C397.02 1151.45 397.02 1151.45 397.02 1151.45C397.02 1151.45 397.02 1151.45 397.02 1151.45C397.02 1151.45 397.02 1151.45 397.02 1151.45C397.02 1151.45 397.02 1151.45 397.02 1151.45C397.02 1151.45 397.02 1151.45 397.02 1151.45C397.02 1151.45 397.02 1151.45 397.02 1151.45C397.02 1151.45 397.02 1151.45 397.02 1151.45C397.02 1151.45 397.02 1151.45 397.02 1151.45C397.02 1151.45 397.02 1151.45 397.02 1151.45C397.02 1151.45 397.02 1151.45 397.02 1151.45C397.02 1151.45 397.02 1151.45 397.02 1151.45C397.02 1151.45 397.02 1151.45 397.02 1151.45C397.02 1151.45 397.02 1151.45 397.02 1151.44C397.02 1151.44 397.02 1151.44 397.02 1151.44C397.02 1151.44 397.02 1151.44 397.02 1151.44C397.02 1151.44 397.02 1151.44 397.02 1151.44C397.02 1151.44 397.02 1151.44 397.02 1151.44C397.02 1151.44 397.02 1151.44 397.02 1151.44C397.02 1151.44 397.02 1151.44 397.02 1151.44C397.02 1151.44 397.02 1151.44 397.02 1151.44C397.02 1151.44 397.02 1151.44 397.02 1151.44C397.02 1151.44 397.02 1151.44 397.02 1151.44C397.02 1151.44 397.02 1151.44 397.02 1151.44C397.02 1151.44 397.02 1151.44 397.02 1151.44C397.02 1151.44 397.02 1151.44 397.02 1151.44C397.02 1151.44 397.02 1151.44 397.02 1151.44C397.02 1151.44 397.02 1151.44 397.02 1151.44C397.02 1151.44 397.02 1151.44 397.02 1151.44C397.02 1151.44 397.02 1151.44 397.02 1151.44C397.02 1151.44 397.02 1151.44 397.02 1151.44H373.02H349.02C349.02 1151.44 349.02 1151.44 349.02 1151.44C349.02 1151.44 349.02 1151.44 349.02 1151.44C349.02 1151.44 349.02 1151.44 349.02 1151.44C349.02 1151.44 349.02 1151.44 349.02 1151.44C349.02 1151.44 349.02 1151.44 349.02 1151.44C349.02 1151.44 349.02 1151.44 349.02 1151.44C349.02 1151.44 349.02 1151.44 349.02 1151.44C349.02 1151.44 349.02 1151.44 349.02 1151.44C349.02 1151.44 349.02 1151.44 349.02 1151.44C349.02 1151.44 349.02 1151.44 349.02 1151.44C349.02 1151.44 349.02 1151.44 349.02 1151.44C349.02 1151.44 349.02 1151.44 349.02 1151.44C349.02 1151.44 349.02 1151.44 349.02 1151.44C349.02 1151.44 349.02 1151.44 349.02 1151.44C349.02 1151.44 349.02 1151.44 349.02 1151.44C349.02 1151.44 349.02 1151.44 349.02 1151.44C349.02 1151.44 349.02 1151.44 349.02 1151.44C349.02 1151.45 349.02 1151.45 349.02 1151.45C349.02 1151.45 349.02 1151.45 349.02 1151.45C349.02 1151.45 349.02 1151.45 349.02 1151.45C349.02 1151.45 349.02 1151.45 349.02 1151.45C349.02 1151.45 349.02 1151.45 349.02 1151.45C349.02 1151.45 349.02 1151.45 349.02 1151.45C349.02 1151.45 349.02 1151.45 349.02 1151.45C349.02 1151.45 349.02 1151.45 349.02 1151.45C349.02 1151.45 349.02 1151.45 349.02 1151.45C349.02 1151.45 349.02 1151.45 349.02 1151.45C349.02 1151.45 349.02 1151.45 349.02 1151.45C349.02 1151.45 349.02 1151.45 349.02 1151.45C349.02 1151.45 349.02 1151.45 349.02 1151.45C349.02 1151.45 349.02 1151.45 349.02 1151.45C349.02 1151.45 349.02 1151.45 349.02 1151.45C349.02 1151.45 349.02 1151.45 349.02 1151.45C349.02 1151.45 349.02 1151.45 349.02 1151.45C349.02 1151.45 349.02 1151.45 349.02 1151.45C349.02 1151.45 349.02 1151.45 349.02 1151.45C349.02 1151.45 349.02 1151.45 349.02 1151.45C349.02 1151.45 349.02 1151.45 349.02 1151.45C349.02 1151.45 349.02 1151.45 349.02 1151.45C349.02 1151.45 349.02 1151.45 349.02 1151.45C349.02 1151.45 349.02 1151.45 349.02 1151.45C349.02 1151.45 349.02 1151.45 349.02 1151.46C349.02 1151.46 349.02 1151.46 349.02 1151.46C349.02 1151.46 349.02 1151.46 349.02 1151.46C349.02 1151.46 349.02 1151.46 349.02 1151.46C349.02 1151.46 349.02 1151.46 349.02 1151.46C349.02 1151.46 349.02 1151.46 349.02 1151.46C349.02 1151.46 349.02 1151.46 349.02 1151.46C349.02 1151.46 349.02 1151.46 349.02 1151.46C349.02 1151.46 349.02 1151.46 349.02 1151.46C349.02 1151.46 349.02 1151.46 349.02 1151.46C349.02 1151.46 349.02 1151.46 349.02 1151.46C349.02 1151.46 349.02 1151.46 349.02 1151.46C349.02 1151.46 349.02 1151.46 349.02 1151.46C349.02 1151.46 349.02 1151.46 349.02 1151.46C349.02 1151.46 349.02 1151.46 349.02 1151.46C349.02 1151.46 349.02 1151.46 349.02 1151.46C349.02 1151.46 349.02 1151.46 349.02 1151.46C349.02 1151.46 349.02 1151.46 349.02 1151.46C349.02 1151.46 349.02 1151.46 349.02 1151.46C349.02 1151.46 349.02 1151.46 349.02 1151.46C349.02 1151.46 349.02 1151.46 349.02 1151.46C349.02 1151.46 349.02 1151.46 349.02 1151.46C349.02 1151.46 349.02 1151.46 349.02 1151.46C349.02 1151.46 349.02 1151.46 349.02 1151.46C349.02 1151.46 349.02 1151.46 349.02 1151.46C349.02 1151.46 349.02 1151.46 349.02 1151.46C349.02 1151.46 349.02 1151.46 349.02 1151.46C349.02 1151.46 349.02 1151.46 349.02 1151.46C349.02 1151.46 349.02 1151.47 349.02 1151.47C349.02 1151.47 349.02 1151.47 349.02 1151.47C349.02 1151.47 349.02 1151.47 349.02 1151.47C349.02 1151.47 349.02 1151.47 349.02 1151.47C349.02 1151.47 349.02 1151.47 349.02 1151.47C349.02 1151.47 349.02 1151.47 349.02 1151.47C349.02 1151.47 349.02 1151.47 349.02 1151.47C349.02 1151.47 349.02 1151.47 349.02 1151.47C349.02 1151.47 349.02 1151.47 349.02 1151.47C349.02 1151.47 349.02 1151.47 349.02 1151.47C349.02 1151.47 349.02 1151.47 349.02 1151.47C349.02 1151.47 349.02 1151.47 349.02 1151.47C349.02 1151.47 349.02 1151.47 349.02 1151.47C349.02 1151.47 349.02 1151.47 349.02 1151.47C349.02 1151.47 349.02 1151.47 349.02 1151.47C349.02 1151.47 349.02 1151.47 349.02 1151.47C349.02 1151.47 349.02 1151.47 349.02 1151.47C349.02 1151.47 349.02 1151.47 349.02 1151.47C349.02 1151.47 349.02 1151.47 349.02 1151.47C349.02 1151.47 349.02 1151.47 349.02 1151.47C349.02 1151.47 349.02 1151.47 349.02 1151.47C349.02 1151.47 349.02 1151.47 349.02 1151.47C349.02 1151.47 349.02 1151.47 349.02 1151.47C349.02 1151.47 349.02 1151.47 349.02 1151.47C349.02 1151.47 349.02 1151.47 349.02 1151.47C349.02 1151.47 349.02 1151.47 349.02 1151.47C349.02 1151.47 349.02 1151.47 349.02 1151.47C349.02 1151.47 349.02 1151.47 349.02 1151.47C349.02 1151.47 349.02 1151.47 349.02 1151.47C349.02 1151.47 349.02 1151.47 349.02 1151.47C349.02 1151.47 349.02 1151.47 349.02 1151.47C349.02 1151.47 349.02 1151.47 349.02 1151.48C349.02 1151.48 349.02 1151.48 349.02 1151.48C349.02 1151.48 349.02 1151.48 349.02 1151.48C349.02 1151.48 349.02 1151.48 349.02 1151.48C349.02 1151.48 349.02 1151.48 349.02 1151.48C349.02 1151.48 349.02 1151.48 349.02 1151.48C349.02 1151.48 349.02 1151.48 349.02 1151.48C349.02 1151.48 349.02 1151.48 349.02 1151.48C349.02 1151.48 349.02 1151.48 349.02 1151.48C349.02 1151.48 349.02 1151.48 349.02 1151.48C349.02 1151.48 349.02 1151.48 349.02 1151.48C349.02 1151.48 349.02 1151.48 349.02 1151.48C349.02 1151.48 349.02 1151.48 349.02 1151.48C349.02 1151.48 349.02 1151.48 349.02 1151.48C349.02 1151.48 349.02 1151.48 349.02 1151.48C349.02 1151.48 349.02 1151.48 349.02 1151.48C349.02 1151.48 349.02 1151.48 349.02 1151.48C349.02 1151.48 349.02 1151.48 349.02 1151.48C349.02 1151.48 349.02 1151.48 349.02 1151.48C349.02 1151.48 349.02 1151.48 349.02 1151.48C349.02 1151.48 349.02 1151.48 349.02 1151.48C349.02 1151.48 349.02 1151.48 349.02 1151.48C349.02 1151.48 349.02 1151.48 349.02 1151.48C349.02 1151.48 349.02 1151.48 349.02 1151.48C349.02 1151.48 349.02 1151.48 349.02 1151.48C349.02 1151.48 349.02 1151.48 349.02 1151.48C349.02 1151.48 349.02 1151.48 349.02 1151.48C349.02 1151.48 349.02 1151.48 349.02 1151.48C349.02 1151.48 349.02 1151.48 349.02 1151.48C349.02 1151.48 349.02 1151.48 349.02 1151.48C349.02 1151.48 349.02 1151.48 349.02 1151.48C349.02 1151.48 349.02 1151.48 349.02 1151.48C349.02 1151.48 349.02 1151.48 349.02 1151.48C349.02 1151.48 349.02 1151.48 349.02 1151.48C349.02 1151.48 349.02 1151.48 349.02 1151.48C349.02 1151.48 349.02 1151.48 349.02 1151.48C349.02 1151.48 349.02 1151.48 349.02 1151.48C349.02 1151.48 349.02 1151.48 349.02 1151.48C349.02 1151.49 349.02 1151.49 349.02 1151.49C349.02 1151.49 349.02 1151.49 349.02 1151.49C349.02 1151.49 349.02 1151.49 349.02 1151.49C349.02 1151.49 349.02 1151.49 349.02 1151.49C349.02 1151.49 349.02 1151.49 349.02 1151.49C349.02 1151.49 349.02 1151.49 349.02 1151.49C349.02 1151.49 349.02 1151.49 349.02 1151.49C349.02 1151.49 349.02 1151.49 349.02 1151.49C349.02 1151.49 349.02 1151.49 349.02 1151.49C349.02 1151.49 349.02 1151.49 349.02 1151.49C349.02 1151.49 349.02 1151.49 349.02 1151.49C349.02 1151.49 349.02 1151.49 349.02 1151.49C349.02 1151.49 349.02 1151.49 349.02 1151.49C349.02 1151.49 349.02 1151.49 349.02 1151.49C349.02 1151.49 349.02 1151.49 349.02 1151.49C349.02 1151.49 349.02 1151.49 349.02 1151.49C349.02 1151.49 349.02 1151.49 349.02 1151.49C349.02 1151.49 349.02 1151.49 349.02 1151.49C349.02 1151.49 349.02 1151.49 349.02 1151.49C349.02 1151.49 349.02 1151.49 349.02 1151.49C349.02 1151.49 349.02 1151.49 349.02 1151.49C349.02 1151.49 349.02 1151.49 349.02 1151.49C349.02 1151.49 349.02 1151.49 349.02 1151.49C349.02 1151.49 349.02 1151.49 349.02 1151.49C349.02 1151.49 349.02 1151.49 349.02 1151.49C349.02 1151.49 349.02 1151.49 349.02 1151.49C349.02 1151.49 349.02 1151.49 349.02 1151.49C349.02 1151.49 349.02 1151.49 349.02 1151.49C349.02 1151.49 349.02 1151.49 349.02 1151.49C349.02 1151.49 349.02 1151.49 349.02 1151.49C349.02 1151.49 349.02 1151.49 349.02 1151.49C349.02 1151.49 349.02 1151.49 349.02 1151.49C349.02 1151.49 349.02 1151.49 349.02 1151.49C349.02 1151.49 349.02 1151.49 349.02 1151.49C349.02 1151.49 349.02 1151.49 349.02 1151.49C349.02 1151.49 349.02 1151.49 349.02 1151.49C349.02 1151.49 349.02 1151.49 349.02 1151.49C349.02 1151.49 349.02 1151.49 349.02 1151.49C349.02 1151.49 349.02 1151.49 349.02 1151.49C349.02 1151.49 349.02 1151.49 349.02 1151.49C349.02 1151.49 349.02 1151.49 349.02 1151.49C349.02 1151.49 349.02 1151.49 349.02 1151.49C349.02 1151.49 349.02 1151.49 349.02 1151.49C349.02 1151.49 349.02 1151.49 349.02 1151.49C349.02 1151.49 349.02 1151.49 349.02 1151.49C349.02 1151.49 349.02 1151.49 349.02 1151.49C349.02 1151.49 349.02 1151.5 349.02 1151.5C349.02 1151.5 349.02 1151.5 349.02 1151.5C349.02 1151.5 349.02 1151.5 349.02 1151.5C349.02 1151.5 349.02 1151.5 349.02 1151.5C349.02 1151.5 349.02 1151.5 349.02 1151.5C349.02 1151.5 349.02 1151.5 349.02 1151.5C349.02 1151.5 349.02 1151.5 349.02 1151.5C349.02 1151.5 349.02 1151.5 349.02 1151.5C349.02 1151.5 349.02 1151.5 349.02 1151.5C349.02 1151.5 349.02 1151.5 349.02 1151.5C349.02 1151.5 349.02 1151.5 349.02 1151.5C349.02 1151.5 349.02 1151.5 349.02 1151.5C349.02 1151.5 349.02 1151.5 349.02 1151.5C349.02 1151.5 349.02 1151.5 349.02 1151.5C349.02 1151.5 349.02 1151.5 349.02 1151.5C349.02 1151.5 349.02 1151.5 349.02 1151.5C349.02 1151.5 349.02 1151.5 349.02 1151.5C349.02 1151.5 349.02 1151.5 349.02 1151.5C349.02 1151.5 349.02 1151.5 349.02 1151.5C349.02 1151.5 349.02 1151.5 349.02 1151.5C349.02 1151.5 349.02 1151.5 349.02 1151.5C349.02 1151.5 349.02 1151.5 349.02 1151.5C349.02 1151.5 349.02 1151.5 349.02 1151.5C349.02 1151.5 349.02 1151.5 349.02 1151.5C349.02 1151.5 349.02 1151.5 349.02 1151.5C349.02 1151.5 349.02 1151.5 349.02 1151.5C349.02 1151.5 349.02 1151.5 349.02 1151.5C349.02 1151.5 349.02 1151.5 349.02 1151.5C349.02 1151.5 349.02 1151.5 349.02 1151.5C349.02 1151.5 349.02 1151.5 349.02 1151.5C349.02 1151.5 349.02 1151.5 349.02 1151.5C349.02 1151.5 349.02 1151.5 349.02 1151.5C349.02 1151.5 349.02 1151.5 349.02 1151.5C349.02 1151.5 349.02 1151.5 349.02 1151.5C349.02 1151.5 349.02 1151.5 349.02 1151.5C349.02 1151.5 349.02 1151.5 349.02 1151.5C349.02 1151.5 349.02 1151.5 349.02 1151.5C349.02 1151.5 349.02 1151.5 349.02 1151.5C349.02 1151.5 349.02 1151.5 349.02 1151.5C349.02 1151.5 349.02 1151.5 349.02 1151.5C349.02 1151.5 349.02 1151.5 349.02 1151.5C349.02 1151.5 349.02 1151.5 349.02 1151.5C349.02 1151.5 349.02 1151.5 349.02 1151.5C349.02 1151.5 349.02 1151.5 349.02 1151.5C349.02 1151.5 349.02 1151.5 349.02 1151.5C349.02 1151.5 349.02 1151.5 349.02 1151.5C349.02 1151.5 349.02 1151.5 349.02 1151.5C349.02 1151.5 349.02 1151.5 349.02 1151.5C349.02 1151.5 349.02 1151.5 349.02 1151.5C349.02 1151.5 349.02 1151.5 349.02 1151.5C349.02 1151.5 349.02 1151.5 349.02 1151.5C349.02 1151.5 349.02 1151.5 349.02 1151.5C349.02 1151.5 349.02 1151.5 349.02 1151.5C349.02 1151.5 349.02 1151.5 349.02 1151.5C349.02 1151.5 349.02 1151.5 349.02 1151.5C349.02 1151.5 349.02 1151.5 349.02 1151.5C349.02 1151.5 349.02 1151.5 349.02 1151.5C349.02 1151.5 349.02 1151.5 349.02 1151.5C349.02 1151.5 349.02 1151.5 349.02 1151.5C349.02 1151.5 349.02 1151.5 349.02 1151.5C349.02 1151.5 349.02 1151.5 349.02 1151.5C349.02 1151.5 349.02 1151.5 349.02 1151.5C349.02 1151.5 349.02 1151.5 349.02 1151.5C349.02 1151.5 349.02 1151.5 349.02 1151.5C349.02 1151.5 349.02 1151.5 349.02 1151.5C349.02 1151.5 349.02 1151.5 349.02 1151.5C349.02 1151.51 349.02 1151.51 349.02 1151.51C349.02 1151.51 349.02 1151.51 349.02 1151.51C349.02 1151.51 349.02 1151.51 349.02 1151.51C349.02 1151.51 349.02 1151.51 349.02 1151.51C349.02 1151.51 349.02 1151.51 349.02 1151.51C349.02 1151.51 349.02 1151.51 349.02 1151.51C349.02 1151.51 349.02 1151.51 349.02 1151.51C349.02 1151.51 349.02 1151.51 349.02 1151.51C349.02 1151.51 349.02 1151.51 349.02 1151.51C349.02 1151.51 349.02 1151.51 349.02 1151.51C349.02 1151.51 349.02 1151.51 349.02 1151.51C349.02 1151.51 349.02 1151.51 349.02 1151.51C349.02 1151.51 349.02 1151.51 349.02 1151.51C349.02 1151.51 349.02 1151.51 349.02 1151.51C349.02 1151.51 349.02 1151.51 349.02 1151.51C349.02 1151.51 349.02 1151.51 349.02 1151.51C349.02 1151.51 349.02 1151.51 349.02 1151.51C349.02 1151.51 349.02 1151.51 349.02 1151.51C349.02 1151.51 349.02 1151.51 349.02 1151.51C349.02 1151.51 349.02 1151.51 349.02 1151.51C349.02 1151.51 349.02 1151.51 349.02 1151.51C349.02 1151.51 349.02 1151.51 349.02 1151.51C349.02 1151.51 349.02 1151.51 349.02 1151.51C349.02 1151.51 349.02 1151.51 349.02 1151.51C349.02 1151.51 349.02 1151.51 349.02 1151.51C349.02 1151.51 349.02 1151.51 349.02 1151.51C349.02 1151.51 349.02 1151.51 349.02 1151.51C349.02 1151.51 349.02 1151.51 349.02 1151.51C349.02 1151.51 349.02 1151.51 349.02 1151.51C349.02 1151.51 349.02 1151.51 349.02 1151.51C349.02 1151.51 349.02 1151.51 349.02 1151.51C349.02 1151.51 349.02 1151.51 349.02 1151.51C349.02 1151.51 349.02 1151.51 349.02 1151.51C349.02 1151.51 349.02 1151.51 349.02 1151.51C349.02 1151.51 349.02 1151.51 349.02 1151.51C349.02 1151.51 349.02 1151.51 349.02 1151.51C349.02 1151.51 349.02 1151.51 349.02 1151.51C349.02 1151.51 349.02 1151.51 349.02 1151.51C349.02 1151.51 349.02 1151.51 349.02 1151.51C349.02 1151.51 349.02 1151.51 349.02 1151.51C349.02 1151.51 349.02 1151.51 349.02 1151.51C349.02 1151.51 349.02 1151.51 349.02 1151.51C349.02 1151.51 349.02 1151.51 349.02 1151.51C349.02 1151.51 349.02 1151.51 349.02 1151.51C349.02 1151.51 349.02 1151.51 349.02 1151.51C349.02 1151.51 349.02 1151.51 349.02 1151.51C349.02 1151.51 349.02 1151.51 349.02 1151.51C349.02 1151.51 349.02 1151.51 349.02 1151.51C349.02 1151.51 349.02 1151.51 349.02 1151.51C349.02 1151.51 349.02 1151.51 349.02 1151.51C349.02 1151.51 349.02 1151.51 349.02 1151.51C349.02 1151.51 349.02 1151.51 349.02 1151.51C349.02 1151.51 349.02 1151.51 349.02 1151.51C349.02 1151.51 349.02 1151.51 349.02 1151.51C349.02 1151.51 349.02 1151.51 349.02 1151.51C349.02 1151.51 349.02 1151.51 349.02 1151.51C349.02 1151.51 349.02 1151.51 349.02 1151.51C349.02 1151.51 349.02 1151.51 349.02 1151.51C349.02 1151.51 349.02 1151.51 349.02 1151.51C349.02 1151.51 349.02 1151.51 349.02 1151.51C349.02 1151.51 349.02 1151.51 349.02 1151.51C349.02 1151.51 349.02 1151.51 349.02 1151.51C349.02 1151.51 349.02 1151.51 349.02 1151.51C349.02 1151.51 349.02 1151.51 349.02 1151.51C349.02 1151.51 349.02 1151.51 349.02 1151.51C349.02 1151.51 349.02 1151.51 349.02 1151.51C349.02 1151.51 349.02 1151.51 349.02 1151.51C349.02 1151.51 349.02 1151.51 349.02 1151.51C349.02 1151.51 349.02 1151.51 349.02 1151.51C349.02 1151.51 349.02 1151.51 349.02 1151.51C349.02 1151.51 349.02 1151.51 349.02 1151.51C349.02 1151.51 349.02 1151.51 349.02 1151.51C349.02 1151.51 349.02 1151.51 349.02 1151.51C349.02 1151.51 349.02 1151.51 349.02 1151.51C349.02 1151.51 349.02 1151.51 349.02 1151.51C349.02 1151.51 349.02 1151.51 349.02 1151.51C349.02 1151.51 349.02 1151.51 349.02 1151.51C349.02 1151.51 349.02 1151.51 349.02 1151.51C349.02 1151.51 349.02 1151.51 349.02 1151.51C349.02 1151.51 349.02 1151.51 349.02 1151.51C349.02 1151.51 349.02 1151.51 349.02 1151.51C349.02 1151.51 349.02 1151.51 349.02 1151.51C349.02 1151.51 349.02 1151.51 349.02 1151.51C349.02 1151.51 349.02 1151.51 349.02 1151.51C349.02 1151.51 349.02 1151.51 349.02 1151.51C349.02 1151.51 349.02 1151.51 349.02 1151.51C349.02 1151.51 349.02 1151.51 349.02 1151.51C349.02 1151.51 349.02 1151.51 349.02 1151.51C349.02 1151.51 349.02 1151.51 349.02 1151.51C349.02 1151.51 349.02 1151.51 349.02 1151.51C349.02 1151.51 349.02 1151.51 349.02 1151.51C349.02 1151.51 349.02 1151.51 349.02 1151.51C349.02 1151.51 349.02 1151.51 349.02 1151.51C349.02 1151.51 349.02 1151.51 349.02 1151.51C349.02 1151.51 349.02 1151.51 349.02 1151.51C349.02 1151.51 349.02 1151.51 349.02 1151.51C349.02 1151.51 349.02 1151.51 349.02 1151.51C349.02 1151.51 349.02 1151.51 349.02 1151.51C349.02 1151.51 349.02 1151.51 349.02 1151.51C349.02 1151.51 349.02 1151.51 349.02 1151.51C349.02 1151.51 349.02 1151.51 349.02 1151.51C349.02 1151.51 349.02 1151.51 349.02 1151.51C349.02 1151.51 349.02 1151.51 349.02 1151.51C349.02 1151.51 349.02 1151.51 349.02 1151.51C349.02 1151.51 349.02 1151.51 349.02 1151.51C349.02 1151.51 349.02 1151.51 349.02 1151.51C349.02 1151.51 349.02 1151.51 349.02 1151.51C349.02 1151.51 349.02 1151.51 349.02 1151.51C349.02 1151.51 349.02 1151.51 349.02 1151.51C349.02 1151.51 349.02 1151.51 349.02 1151.51C349.02 1151.51 349.02 1151.51 349.02 1151.51C349.02 1151.51 349.02 1151.51 349.02 1151.51C349.02 1151.51 349.02 1151.51 349.02 1151.51C349.02 1151.51 349.02 1151.51 349.02 1151.51C349.02 1151.51 349.02 1151.51 349.02 1151.51C349.02 1151.51 349.02 1151.51 349.02 1151.51C349.02 1151.51 349.02 1151.51 349.02 1151.51C349.02 1151.51 349.02 1151.51 349.02 1151.51C349.02 1151.51 349.02 1151.51 349.02 1151.51C349.02 1151.51 349.02 1151.51 349.02 1151.51C349.02 1151.51 349.02 1151.51 349.02 1151.51C349.02 1151.51 349.02 1151.51 349.02 1151.51C349.02 1151.51 349.02 1151.51 349.02 1151.51C349.02 1151.51 349.02 1151.51 349.02 1151.51C349.02 1151.51 349.02 1151.51 349.02 1151.51C349.02 1151.51 349.02 1151.51 349.02 1151.51C349.02 1151.51 349.02 1151.51 349.02 1151.51C349.02 1151.51 349.02 1151.51 349.02 1151.51C349.02 1151.51 349.02 1151.51 349.02 1151.51C349.02 1151.51 349.02 1151.51 349.02 1151.51C349.02 1151.51 349.02 1151.51 349.02 1151.51C349.02 1151.51 349.02 1151.51 349.02 1151.51C349.02 1151.51 349.02 1151.51 349.02 1151.51C349.02 1151.51 349.02 1151.51 349.02 1151.51C349.02 1151.51 349.02 1151.51 349.02 1151.51C349.02 1151.51 349.02 1151.51 349.02 1151.51C349.02 1151.51 349.02 1151.51 349.02 1151.51C349.02 1151.51 349.02 1151.51 349.02 1151.51C349.02 1151.51 349.02 1151.51 349.02 1151.51C349.02 1151.51 349.02 1151.51 349.02 1151.51C349.02 1151.51 349.02 1151.51 349.02 1151.51C349.02 1151.51 349.02 1151.51 349.02 1151.51C349.02 1151.51 349.02 1151.51 349.02 1151.51C349.02 1151.51 349.02 1151.51 349.02 1151.51C349.02 1151.51 349.02 1151.51 349.02 1151.51C349.02 1151.51 349.02 1151.51 349.02 1151.51C349.02 1151.51 349.02 1151.51 349.02 1151.51C349.02 1151.51 349.02 1151.51 349.02 1151.51C349.02 1151.51 349.02 1151.51 349.02 1151.51C349.02 1151.51 349.02 1151.51 349.02 1151.51C349.02 1151.51 349.02 1151.51 349.02 1151.51C349.02 1151.51 349.02 1151.51 349.02 1151.51C349.02 1151.51 349.02 1151.51 349.02 1151.51C349.02 1151.51 349.02 1151.51 349.02 1151.51C349.02 1151.51 349.02 1151.51 349.02 1151.51C349.02 1151.51 349.02 1151.51 349.02 1151.51C349.02 1151.51 349.02 1151.51 349.02 1151.51C349.02 1151.51 349.02 1151.51 349.02 1151.51C349.02 1151.51 349.02 1151.51 349.02 1151.51C349.02 1151.51 349.02 1151.51 349.02 1151.51C349.02 1151.51 349.02 1151.51 349.02 1151.51C349.02 1151.51 349.02 1151.51 349.02 1151.52C349.02 1151.52 349.02 1151.52 349.02 1151.52C349.02 1151.52 349.02 1151.52 349.02 1151.52C349.02 1151.52 349.02 1151.52 349.02 1151.52C349.02 1151.52 349.02 1151.52 349.02 1151.52C349.02 1151.52 349.02 1151.52 349.02 1151.52C349.02 1151.52 349.02 1151.52 349.02 1151.52C349.02 1151.52 349.02 1151.52 349.02 1151.52C349.02 1151.52 349.02 1151.52 349.02 1151.52C349.02 1151.52 349.02 1151.52 349.02 1151.52C349.02 1151.52 349.02 1151.52 349.02 1151.52C349.02 1151.52 349.02 1151.52 349.02 1151.52C349.02 1151.52 349.02 1151.52 349.02 1151.52C349.02 1151.52 349.02 1151.52 349.02 1151.52C349.02 1151.52 349.02 1151.52 349.02 1151.52C349.02 1151.52 349.02 1151.52 349.02 1151.52C349.02 1151.52 349.02 1151.52 349.02 1151.52C349.02 1151.52 349.02 1151.52 349.02 1151.52C349.02 1151.52 349.02 1151.52 349.02 1151.52C349.02 1151.52 349.02 1151.52 349.02 1151.52C349.02 1151.52 349.02 1151.52 349.02 1151.52C349.02 1151.52 349.02 1151.52 349.02 1151.52C349.02 1151.52 349.02 1151.52 349.02 1151.52C349.02 1151.52 349.02 1151.52 349.02 1151.52C349.02 1151.52 349.02 1151.52 349.02 1151.52C349.02 1151.52 349.02 1151.52 349.02 1151.52C349.02 1151.52 349.02 1151.52 349.02 1151.52C349.02 1151.52 349.02 1151.52 349.02 1151.52C349.02 1151.52 349.02 1151.52 349.02 1151.52C349.02 1151.52 349.02 1151.52 349.02 1151.52C349.02 1151.52 349.02 1151.52 349.02 1151.52C349.02 1151.52 349.02 1151.52 349.02 1151.52C349.02 1151.52 349.02 1151.52 349.02 1151.52C349.02 1151.52 349.02 1151.52 349.02 1151.52C349.02 1151.52 349.02 1151.52 349.02 1151.52C349.02 1151.52 349.02 1151.52 349.02 1151.52C349.02 1151.52 349.02 1151.52 349.02 1151.52C349.02 1151.52 349.02 1151.52 349.02 1151.52C349.02 1151.52 349.02 1151.52 349.02 1151.52C349.02 1151.52 349.02 1151.52 349.02 1151.52C349.02 1151.52 349.02 1151.52 349.02 1151.52C349.02 1151.52 349.02 1151.52 349.02 1151.52C349.02 1151.52 349.02 1151.52 349.02 1151.52C349.02 1151.52 349.02 1151.52 349.02 1151.52C349.02 1151.52 349.02 1151.52 349.02 1151.52C349.02 1151.52 349.02 1151.52 349.02 1151.52C349.02 1151.52 349.02 1151.52 349.02 1151.52C349.02 1151.52 349.02 1151.52 349.02 1151.52C349.02 1151.52 349.02 1151.52 349.02 1151.52C349.02 1151.52 349.02 1151.52 349.02 1151.52C349.02 1151.52 349.02 1151.52 349.02 1151.52C349.02 1151.52 349.02 1151.52 349.02 1151.52C349.02 1151.52 349.02 1151.52 349.02 1151.52C349.02 1151.52 349.02 1151.52 349.02 1151.52C349.02 1151.52 349.02 1151.52 349.02 1151.52C349.02 1151.52 349.02 1151.52 349.02 1151.52C349.02 1151.52 349.02 1151.52 349.02 1151.52C349.02 1151.52 349.02 1151.52 349.02 1151.52C349.02 1151.52 349.02 1151.52 349.02 1151.52C349.02 1151.52 349.02 1151.52 349.02 1151.52C349.02 1151.52 349.02 1151.52 349.02 1151.52C349.02 1151.52 349.02 1151.52 349.02 1151.52C349.02 1151.52 349.02 1151.52 349.02 1151.52C349.02 1151.52 349.02 1151.52 349.02 1151.52C349.02 1151.52 349.02 1151.52 349.02 1151.52C349.02 1151.52 349.02 1151.52 349.02 1151.52C349.02 1151.52 349.02 1151.52 349.02 1151.52C349.02 1151.52 349.02 1151.52 349.02 1151.52C349.02 1151.52 349.02 1151.52 349.02 1151.52C349.02 1151.52 349.02 1151.52 349.02 1151.52C349.02 1151.52 349.02 1151.52 349.02 1151.52C349.02 1151.52 349.02 1151.52 349.02 1151.52C349.02 1151.52 349.02 1151.52 349.02 1151.52C349.02 1151.52 349.02 1151.52 349.02 1151.52C349.02 1151.52 349.02 1151.52 349.02 1151.52C349.02 1151.52 349.02 1151.52 349.02 1151.52C349.02 1151.52 349.02 1151.52 349.02 1151.52C349.02 1151.52 349.02 1151.52 349.02 1151.52C349.02 1151.52 349.02 1151.52 349.02 1151.52C349.02 1151.52 349.02 1151.52 349.02 1151.52C349.02 1151.52 349.02 1151.52 349.02 1151.52C349.02 1151.52 349.02 1151.52 349.02 1151.52C349.02 1151.52 349.02 1151.52 349.02 1151.52C349.02 1151.52 349.02 1151.52 349.02 1151.52C349.02 1151.52 349.02 1151.52 349.02 1151.52C349.02 1151.52 349.02 1151.52 349.02 1151.52C349.02 1151.52 349.02 1151.52 349.02 1151.52C349.02 1151.52 349.02 1151.52 349.02 1151.52C349.02 1151.52 349.02 1151.52 349.02 1151.52C349.02 1151.52 349.02 1151.52 349.02 1151.52C349.02 1151.52 349.02 1151.52 349.02 1151.52C349.02 1151.52 349.02 1151.52 349.02 1151.52C349.02 1151.52 349.02 1151.52 349.02 1151.52C349.02 1151.52 349.02 1151.52 349.02 1151.52C349.02 1151.52 349.02 1151.52 349.02 1151.52C349.02 1151.52 349.02 1151.52 349.02 1151.52C349.02 1151.52 349.02 1151.52 349.02 1151.52C349.02 1151.52 349.02 1151.52 349.02 1151.52C349.02 1151.52 349.02 1151.52 349.02 1151.52C349.02 1151.52 349.02 1151.52 349.02 1151.52C349.02 1151.52 349.02 1151.52 373.02 1151.52ZM373.02 1151.44L391.832 1136.53C349.133 1082.64 324.479 1017.32 324.479 943.68L300.479 943.68L276.479 943.68C276.479 1028.64 305.104 1104.36 354.208 1166.34L373.02 1151.44ZM300.479 943.68H324.479C324.479 909.429 329.808 876.269 339.797 844.745L316.918 837.495L294.039 830.246C282.596 866.359 276.479 904.405 276.479 943.68H300.479ZM316.918 837.495L329.767 817.224C329.56 817.093 329.369 816.972 329.183 816.853L316.292 837.098L303.401 857.342C303.632 857.489 303.859 857.632 304.069 857.766L316.918 837.495ZM316.292 837.098L324.429 814.519C317.799 812.13 304.038 803.55 286.579 787.088C269.714 771.187 251.049 749.484 234.256 723.159L214.022 736.066L193.789 748.973C212.739 778.681 233.947 803.436 253.651 822.013C272.761 840.03 292.264 853.949 308.155 859.676L316.292 837.098ZM214.022 736.066L234.156 723.003C223.621 706.767 214.854 689.97 207.676 672.987L185.569 682.331L163.463 691.675C171.678 711.11 181.744 730.413 193.889 749.13L214.022 736.066ZM185.569 682.331L207.637 672.897C200.789 656.876 195.029 639.904 190.81 622.136L167.459 627.682L144.108 633.227C149.008 653.858 155.663 673.429 163.501 691.765L185.569 682.331ZM167.459 627.682L190.766 621.955C187.263 607.698 184.772 593.614 183.181 579.941L159.342 582.714L135.503 585.487C137.32 601.109 140.162 617.167 144.152 633.408L167.459 627.682ZM159.342 582.714L183.125 579.498C176.89 533.385 181.153 510.586 185.787 499.49C189.762 489.969 194.313 487.577 200.286 483.638L187.072 463.603L173.859 443.567C167.305 447.89 151.498 457.035 141.493 480.995C132.146 503.38 128.807 536.006 135.558 585.93L159.342 582.714ZM187.072 463.603L201.276 482.948C219.472 469.589 252.172 465.79 288.595 486.192L300.323 465.253L312.052 444.314C263.314 417.014 209.691 417.221 172.868 444.257L187.072 463.603ZM300.323 465.253L317.294 482.223L317.371 482.146L300.4 465.176L283.43 448.205L283.353 448.282L300.323 465.253ZM300.4 465.176L288.67 486.114L384.871 540.009L396.602 519.071L408.332 498.133L312.131 444.238L300.4 465.176ZM396.602 519.071L420.576 520.186C420.647 518.644 421.557 514.89 425.51 509.115C429.309 503.563 434.992 497.53 442.066 491.794C456.775 479.868 473.542 472.332 484.678 471.185L482.219 447.312L479.76 423.438C456.26 425.858 430.924 439.032 411.836 454.509C402.012 462.474 392.872 471.816 385.898 482.005C379.077 491.973 373.261 504.328 372.627 517.956L396.602 519.071ZM482.219 447.312L484.678 471.185C486.129 471.036 487.55 470.933 488.939 470.875L487.938 446.896L486.936 422.916C484.543 423.016 482.149 423.192 479.76 423.438L482.219 447.312ZM487.938 446.896L510.676 454.573C549.91 338.369 649.824 262 765.547 262V238V214C627.188 214 510.341 305.513 465.199 439.218L487.938 446.896Z" fill="white" mask="url(#path-1-outside-1_1221_3626)"/>
</g>
<defs>
<clipPath id="clip0_1221_3626">
<rect width="1024" height="1024" fill="white"/>
</clipPath>
</defs>
</svg>
