<svg width="200" height="200" viewBox="0 0 200 200" fill="none" xmlns="http://www.w3.org/2000/svg">
<mask id="path-1-outside-1_1062_21060" maskUnits="userSpaceOnUse" x="12.8262" y="13.0002" width="174" height="174" fill="black">
<rect fill="white" x="12.8262" y="13.0002" width="174" height="174"/>
<path d="M120.704 45.1837C124.253 31.4577 127.927 18.2467 136.03 20.1915C144.171 22.0571 153.067 22.4116 158.471 22.4239C166.233 20.0231 172.184 21.114 175.532 24.462C178.903 27.8324 179.986 33.8402 177.572 41.7295C177.581 47.1484 177.931 56.1506 179.806 64.5001C181.742 72.5677 168.656 76.3405 155.114 79.9522C150.338 90.9445 149.609 98.7425 144.036 100.001C138.207 101.317 139.53 95.2166 136.25 92.0547C135.199 93.3687 134.152 94.6831 133.363 95.9971C133.324 95.9504 133.282 95.9062 133.241 95.8604C132.662 96.8631 132.158 97.8904 131.76 98.9317L131.761 98.9327C131.494 100 131.227 100.801 130.96 101.869C129.375 111.906 124.393 113.317 115.495 114.898C115.489 114.914 115.483 114.931 115.478 114.948C81.0448 121.354 104 170.735 130.425 144.043C139.767 134.701 121.617 133.633 125.086 128.562C126.687 126.159 134.962 121.888 142.169 129.095C150.977 137.903 134.695 171.268 103.732 164.328C92.2553 161.659 86.3832 154.453 84.5147 145.645C82.1124 150.716 79.1757 156.055 74.3711 161.927C55.1528 185.949 22.5892 180.077 32.1983 177.408C41.5408 174.739 70.9013 165.396 73.3038 140.039C74.1045 133.366 75.4389 127.226 77.5743 121.621C71.4352 122.155 64.2284 121.888 54.3526 124.29C28.4612 130.696 32.1982 150.182 44.4766 148.314C69.2996 144.577 46.0779 134.167 54.6192 132.031C63.1607 129.896 78.3752 142.174 58.6231 154.186C38.8709 166.197 29.7955 157.389 26.0586 153.385C9.2427 136.569 29.7954 118.952 48.2129 113.347C42.8746 110.411 38.6039 105.072 36.7354 96.7979C29.7955 65.8353 63.16 49.2859 71.9688 58.0938C78.9085 65.0335 74.6387 73.5748 72.2364 75.1768C67.1649 78.6468 66.0972 60.4967 56.7549 69.8389C30.331 96.2629 79.1714 119.217 85.5811 85.0577V85.0538C87.1827 75.978 88.5177 70.9063 98.6612 69.3047C99.7286 69.3046 100.529 68.7709 101.597 68.504H101.598C103.988 67.5623 106.317 66.0084 108.445 64.2481C105.275 61.0059 99.2152 62.3032 100.527 56.4922C101.799 50.8633 109.617 50.1742 120.704 45.1837Z"/>
</mask>
<path d="M120.704 45.1837C124.253 31.4577 127.927 18.2467 136.03 20.1915C144.171 22.0571 153.067 22.4116 158.471 22.4239C166.233 20.0231 172.184 21.114 175.532 24.462C178.903 27.8324 179.986 33.8402 177.572 41.7295C177.581 47.1484 177.931 56.1506 179.806 64.5001C181.742 72.5677 168.656 76.3405 155.114 79.9522C150.338 90.9445 149.609 98.7425 144.036 100.001C138.207 101.317 139.53 95.2166 136.25 92.0547C135.199 93.3687 134.152 94.6831 133.363 95.9971C133.324 95.9504 133.282 95.9062 133.241 95.8604C132.662 96.8631 132.158 97.8904 131.76 98.9317L131.761 98.9327C131.494 100 131.227 100.801 130.96 101.869C129.375 111.906 124.393 113.317 115.495 114.898C115.489 114.914 115.483 114.931 115.478 114.948C81.0448 121.354 104 170.735 130.425 144.043C139.767 134.701 121.617 133.633 125.086 128.562C126.687 126.159 134.962 121.888 142.169 129.095C150.977 137.903 134.695 171.268 103.732 164.328C92.2553 161.659 86.3832 154.453 84.5147 145.645C82.1124 150.716 79.1757 156.055 74.3711 161.927C55.1528 185.949 22.5892 180.077 32.1983 177.408C41.5408 174.739 70.9013 165.396 73.3038 140.039C74.1045 133.366 75.4389 127.226 77.5743 121.621C71.4352 122.155 64.2284 121.888 54.3526 124.29C28.4612 130.696 32.1982 150.182 44.4766 148.314C69.2996 144.577 46.0779 134.167 54.6192 132.031C63.1607 129.896 78.3752 142.174 58.6231 154.186C38.8709 166.197 29.7955 157.389 26.0586 153.385C9.2427 136.569 29.7954 118.952 48.2129 113.347C42.8746 110.411 38.6039 105.072 36.7354 96.7979C29.7955 65.8353 63.16 49.2859 71.9688 58.0938C78.9085 65.0335 74.6387 73.5748 72.2364 75.1768C67.1649 78.6468 66.0972 60.4967 56.7549 69.8389C30.331 96.2629 79.1714 119.217 85.5811 85.0577V85.0538C87.1827 75.978 88.5177 70.9063 98.6612 69.3047C99.7286 69.3046 100.529 68.7709 101.597 68.504H101.598C103.988 67.5623 106.317 66.0084 108.445 64.2481C105.275 61.0059 99.2152 62.3032 100.527 56.4922C101.799 50.8633 109.617 50.1742 120.704 45.1837Z" fill="#4B9AE8"/>
<path d="M120.704 45.1837L123.167 50.655C124.827 49.9079 126.057 48.4478 126.513 46.6857L120.704 45.1837ZM136.03 20.1915L134.63 26.0258C134.65 26.0306 134.67 26.0353 134.69 26.0399L136.03 20.1915ZM158.471 22.4239L158.457 28.4239C159.063 28.4252 159.665 28.3349 160.244 28.156L158.471 22.4239ZM175.532 24.462L179.775 20.2193L179.775 20.2192L175.532 24.462ZM177.572 41.7295L171.835 39.9745C171.66 40.5465 171.571 41.1415 171.572 41.7396L177.572 41.7295ZM179.806 64.5001L173.951 65.8143C173.958 65.843 173.965 65.8716 173.971 65.9002L179.806 64.5001ZM155.114 79.9522L153.568 74.1548C151.798 74.6268 150.341 75.8813 149.611 77.5612L155.114 79.9522ZM144.036 100.001L145.358 105.854L145.358 105.854L144.036 100.001ZM136.25 92.0547L140.414 87.735C139.199 86.5638 137.547 85.9584 135.863 86.0672C134.179 86.176 132.619 86.989 131.565 88.3067L136.25 92.0547ZM133.363 95.9971L128.754 99.8382C129.998 101.331 131.888 102.129 133.826 101.979C135.763 101.829 137.508 100.751 138.508 99.0841L133.363 95.9971ZM133.241 95.8604L137.723 91.8707C136.442 90.4322 134.548 89.6959 132.632 89.8914C130.716 90.0868 129.011 91.1902 128.047 92.8576L133.241 95.8604ZM131.76 98.9317L126.156 96.7885C125.31 98.9993 125.843 101.501 127.517 103.174L131.76 98.9317ZM131.761 98.9327L137.582 100.388C138.093 98.3432 137.494 96.1803 136.003 94.69L131.761 98.9327ZM130.96 101.869L125.139 100.414C125.096 100.585 125.061 100.759 125.033 100.933L130.96 101.869ZM115.495 114.898L114.446 108.99C112.308 109.37 110.542 110.875 109.829 112.925L115.495 114.898ZM115.478 114.948L116.575 120.847C118.696 120.452 120.442 118.95 121.148 116.911L115.478 114.948ZM130.425 144.043L126.182 139.8C126.175 139.807 126.168 139.815 126.161 139.822L130.425 144.043ZM125.086 128.562L130.038 131.949C130.052 131.929 130.065 131.91 130.078 131.89L125.086 128.562ZM142.169 129.095L146.412 124.852L146.412 124.852L142.169 129.095ZM103.732 164.328L102.373 170.172C102.389 170.176 102.405 170.179 102.42 170.183L103.732 164.328ZM84.5147 145.645L90.3841 144.399C89.85 141.882 87.7695 139.985 85.2131 139.685C82.6568 139.386 80.1941 140.75 79.0923 143.076L84.5147 145.645ZM74.3711 161.927L69.7274 158.127C69.7135 158.144 69.6997 158.161 69.686 158.179L74.3711 161.927ZM32.1983 177.408L33.8042 183.189C33.8183 183.185 33.8325 183.181 33.8466 183.177L32.1983 177.408ZM73.3038 140.039L67.3465 139.324C67.3406 139.374 67.3352 139.423 67.3305 139.473L73.3038 140.039ZM77.5743 121.621L83.1812 123.757C83.9166 121.827 83.6073 119.654 82.3625 118.005C81.1176 116.357 79.1124 115.465 77.0545 115.644L77.5743 121.621ZM54.3526 124.29L52.9345 118.46C52.9268 118.462 52.9192 118.464 52.9115 118.466L54.3526 124.29ZM44.4766 148.314L43.5834 142.38L43.574 142.382L44.4766 148.314ZM54.6192 132.031L53.164 126.21L53.1639 126.21L54.6192 132.031ZM58.6231 154.186L61.7406 159.312L61.7406 159.312L58.6231 154.186ZM26.0586 153.385L30.445 149.291C30.3979 149.241 30.35 149.191 30.3013 149.142L26.0586 153.385ZM48.2129 113.347L49.9599 119.087C52.2681 118.384 53.931 116.368 54.1807 113.968C54.4305 111.568 53.2185 109.252 51.1045 108.089L48.2129 113.347ZM36.7354 96.7979L30.8807 98.1102L30.8828 98.1195L36.7354 96.7979ZM71.9688 58.0938L76.2114 53.8512L76.2112 53.851L71.9688 58.0938ZM72.2364 75.1768L68.9075 70.185C68.8877 70.1982 68.8679 70.2115 68.8483 70.225L72.2364 75.1768ZM56.7549 69.8389L52.5123 65.5963L52.5123 65.5963L56.7549 69.8389ZM85.5811 85.0577L91.4782 86.1642C91.5467 85.7993 91.5811 85.4289 91.5811 85.0577H85.5811ZM85.5811 85.0538L79.6724 84.0111C79.6117 84.3553 79.5811 84.7042 79.5811 85.0538H85.5811ZM98.6612 69.3047L98.6605 63.3047C98.3473 63.3048 98.0347 63.3293 97.7254 63.3782L98.6612 69.3047ZM101.597 68.504V62.504C101.106 62.504 100.617 62.5642 100.141 62.6832L101.597 68.504ZM101.598 68.504V74.504C102.35 74.504 103.097 74.3623 103.797 74.0864L101.598 68.504ZM108.445 64.2481L112.269 68.8716C113.562 67.8023 114.348 66.2404 114.437 64.5648C114.526 62.8893 113.909 61.2532 112.736 60.0535L108.445 64.2481ZM100.527 56.4922L94.6748 55.1705L94.6747 55.1707L100.527 56.4922ZM120.704 45.1837L126.513 46.6857C128.331 39.6565 129.992 33.5845 132.032 29.4828C133.049 27.4378 133.881 26.4795 134.365 26.1085C134.581 25.943 134.496 25.9936 134.63 26.0258L136.03 20.1915L137.43 14.3571C133.513 13.417 129.929 14.3897 127.067 16.5831C124.472 18.5712 122.645 21.4089 121.287 24.1393C118.577 29.5884 116.627 36.9849 114.895 43.6816L120.704 45.1837ZM136.03 20.1915L134.69 26.0399C143.478 28.0537 152.895 28.4112 158.457 28.4239L158.471 22.4239L158.484 16.4239C153.238 16.412 144.864 16.0604 137.371 14.3431L136.03 20.1915ZM158.471 22.4239L160.244 28.156C166.924 26.09 170.161 27.5763 171.29 28.7048L175.532 24.462L179.775 20.2192C174.207 14.6517 165.543 13.9562 156.698 16.6918L158.471 22.4239ZM175.532 24.462L171.29 28.7046C172.428 29.8431 173.929 33.128 171.835 39.9745L177.572 41.7295L183.31 43.4846C186.042 34.5525 185.377 25.8217 179.775 20.2193L175.532 24.462ZM177.572 41.7295L171.572 41.7396C171.582 47.3216 171.935 56.8326 173.951 65.8143L179.806 64.5001L185.66 63.1858C183.928 55.4686 183.581 46.9752 183.572 41.7195L177.572 41.7295ZM179.806 64.5001L173.971 65.9002C174.004 66.0359 174.054 65.9652 173.88 66.195C173.509 66.6862 172.56 67.5233 170.543 68.5498C166.495 70.6099 160.499 72.3063 153.568 74.1548L155.114 79.9522L156.66 85.7496C163.271 83.9865 170.59 81.9906 175.986 79.2445C178.691 77.8678 181.496 76.0234 183.457 73.4252C185.616 70.5657 186.576 66.9981 185.64 63.0999L179.806 64.5001ZM155.114 79.9522L149.611 77.5612C148.338 80.491 147.345 83.1857 146.507 85.5123C145.641 87.9182 145.004 89.7415 144.35 91.2846C143.693 92.8337 143.218 93.598 142.894 93.9757C142.759 94.1321 142.698 94.1654 142.714 94.1553C142.739 94.1394 142.756 94.1391 142.715 94.1484L144.036 100.001L145.358 105.854C151.24 104.525 153.841 99.6427 155.398 95.969C156.22 94.0312 157.01 91.7653 157.797 89.5782C158.614 87.3117 159.502 84.9096 160.617 82.3432L155.114 79.9522ZM144.036 100.001L142.715 94.1484C142.155 94.2747 142.844 93.9919 143.848 94.5783C144.709 95.0812 144.876 95.7157 144.638 95.1991C144.534 94.9741 144.42 94.6836 144.229 94.1802C144.061 93.7361 143.821 93.0915 143.543 92.4449C142.982 91.1412 142.068 89.3289 140.414 87.735L136.25 92.0547L132.086 96.3745C132.072 96.3615 132.223 96.4974 132.519 97.1857C132.669 97.5352 132.805 97.8975 133.007 98.4309C133.187 98.9048 133.436 99.5623 133.737 100.215C134.307 101.454 135.441 103.565 137.796 104.94C140.294 106.399 143.003 106.385 145.358 105.854L144.036 100.001ZM136.25 92.0547L131.565 88.3067C130.566 89.5555 129.252 91.1882 128.218 92.9102L133.363 95.9971L138.508 99.0841C139.052 98.1781 139.832 97.1819 140.935 95.8028L136.25 92.0547ZM133.363 95.9971L137.973 92.156C137.869 92.0319 137.78 91.9332 137.743 91.8929C137.733 91.8817 137.724 91.8717 137.718 91.8654C137.711 91.8575 137.709 91.8554 137.706 91.8525C137.702 91.8474 137.71 91.8561 137.723 91.8707L133.241 95.8604L128.76 99.8501C128.777 99.8694 128.793 99.8866 128.805 99.9008C128.818 99.915 128.829 99.9273 128.838 99.9366C128.842 99.9412 128.846 99.9455 128.849 99.9489C128.851 99.9506 128.852 99.9523 128.854 99.9537C128.855 99.9552 128.856 99.9564 128.857 99.9576C128.859 99.9599 128.861 99.9614 128.862 99.9626C128.863 99.9637 128.863 99.964 128.863 99.9639C128.863 99.9637 128.86 99.9606 128.855 99.9555C128.851 99.9503 128.843 99.9422 128.834 99.932C128.825 99.9217 128.814 99.9086 128.8 99.8931C128.787 99.8776 128.771 99.8592 128.754 99.8382L133.363 95.9971ZM133.241 95.8604L128.047 92.8576C127.334 94.0899 126.685 95.4047 126.156 96.7885L131.76 98.9317L137.364 101.075C137.631 100.376 137.989 99.6364 138.436 98.8632L133.241 95.8604ZM131.76 98.9317L127.517 103.174L127.518 103.175L131.761 98.9327L136.003 94.69L136.002 94.6891L131.76 98.9317ZM131.761 98.9327L125.94 97.4775C125.834 97.9016 125.727 98.2788 125.591 98.7529C125.46 99.2131 125.3 99.7704 125.139 100.414L130.96 101.869L136.781 103.324C136.887 102.9 136.994 102.523 137.13 102.049C137.261 101.589 137.421 101.031 137.582 100.388L131.761 98.9327ZM130.96 101.869L125.033 100.933C124.391 105.002 123.286 106.105 122.509 106.654C121.227 107.559 119.131 108.158 114.446 108.99L115.495 114.898L116.544 120.805C120.757 120.057 125.601 119.16 129.431 116.456C133.766 113.395 135.944 108.774 136.887 102.805L130.96 101.869ZM115.495 114.898L109.829 112.925C109.821 112.948 109.809 112.982 109.808 112.986L115.478 114.948L121.148 116.911C121.158 116.88 121.158 116.881 121.162 116.87L115.495 114.898ZM115.478 114.948L114.38 109.05C104.17 110.949 97.3012 116.298 94.0897 123.509C90.9856 130.48 91.7141 138.279 94.7267 144.517C97.7368 150.749 103.41 156.167 111.018 157.56C118.829 158.99 127.116 155.913 134.689 148.264L130.425 144.043L126.161 139.822C120.521 145.519 116.029 146.278 113.18 145.757C110.128 145.198 107.26 142.875 105.532 139.298C103.807 135.726 103.602 131.648 105.052 128.391C106.395 125.376 109.568 122.151 116.575 120.847L115.478 114.948ZM130.425 144.043L134.667 148.286C137.549 145.404 139.903 141.578 138.9 137.088C138.023 133.164 134.91 130.85 133.414 129.796C132.558 129.193 131.569 128.575 130.984 128.195C130.262 127.725 129.933 127.48 129.78 127.343C129.572 127.156 130.186 127.606 130.489 128.713C130.895 130.193 130.401 131.419 130.038 131.949L125.086 128.562L120.134 125.174C118.904 126.972 118.218 129.34 118.916 131.886C119.512 134.059 120.901 135.497 121.761 136.27C122.676 137.091 123.706 137.776 124.444 138.256C125.319 138.825 125.89 139.174 126.502 139.606C127.942 140.62 127.398 140.642 127.188 139.704C126.852 138.2 127.972 138.011 126.182 139.8L130.425 144.043ZM125.086 128.562L130.078 131.89C129.765 132.36 129.709 132.213 130.356 131.849C130.88 131.555 131.595 131.279 132.4 131.161C133.803 130.954 135.742 131.154 137.926 133.338L142.169 129.095L146.412 124.852C141.389 119.83 135.587 118.561 130.651 119.289C128.286 119.638 126.182 120.43 124.479 121.387C122.899 122.274 121.208 123.562 120.094 125.233L125.086 128.562ZM142.169 129.095L137.926 133.337C138.101 133.512 138.949 134.803 138.33 138.222C137.756 141.387 136.053 145.267 133.174 148.876C127.518 155.967 117.922 161.36 105.045 158.473L103.732 164.328L102.42 170.183C120.506 174.237 134.532 166.417 142.556 156.359C146.517 151.393 149.168 145.713 150.137 140.362C151.061 135.265 150.641 129.082 146.412 124.852L142.169 129.095ZM103.732 164.328L105.092 158.484C95.9378 156.355 91.7811 150.985 90.3841 144.399L84.5147 145.645L78.6453 146.89C80.9854 157.921 88.5728 166.963 102.373 170.172L103.732 164.328ZM84.5147 145.645L79.0923 143.076C76.8241 147.864 74.1297 152.747 69.7274 158.127L74.3711 161.927L79.0149 165.726C84.2216 159.362 87.4008 153.568 89.9371 148.213L84.5147 145.645ZM74.3711 161.927L69.686 158.179C61.3045 168.655 49.9694 172.664 41.7092 173.726C37.462 174.272 34.5685 173.968 33.6223 173.708C33.3911 173.645 33.6453 173.68 34.096 173.967C34.2627 174.073 36.3952 175.407 36.4618 178.359C36.5308 181.422 34.3283 182.852 34.1315 182.979C33.6791 183.271 33.4501 183.288 33.8042 183.189L32.1983 177.408L30.5924 171.627C29.7453 171.862 28.6447 172.238 27.623 172.897C26.8569 173.392 24.3874 175.199 24.4648 178.63C24.5397 181.951 26.9558 183.647 27.6542 184.091C28.6366 184.717 29.6707 185.067 30.4405 185.279C33.498 186.12 38.1448 186.283 43.2396 185.628C53.6636 184.288 68.2194 179.221 79.0563 165.675L74.3711 161.927ZM32.1983 177.408L33.8466 183.177C38.6567 181.803 49.0643 178.599 58.6687 172.233C68.3013 165.847 77.84 155.772 79.277 140.605L73.3038 140.039L67.3305 139.473C66.3651 149.663 60.0222 156.938 52.0384 162.231C44.0263 167.542 35.0824 170.344 30.55 171.639L32.1983 177.408ZM73.3038 140.039L79.261 140.754C80.0212 134.419 81.2663 128.784 83.1812 123.757L77.5743 121.621L71.9673 119.485C69.6115 125.669 68.1878 132.313 67.3465 139.324L73.3038 140.039ZM77.5743 121.621L77.0545 115.644C71.652 116.113 63.3985 115.915 52.9345 118.46L54.3526 124.29L55.7707 130.12C65.0583 127.861 71.2184 128.196 78.094 127.599L77.5743 121.621ZM54.3526 124.29L52.9115 118.466C38.812 121.954 30.4165 129.66 29.1598 138.567C28.5389 142.967 29.8238 147.375 32.9668 150.502C36.1463 153.666 40.6614 154.963 45.3793 154.245L44.4766 148.314L43.574 142.382C42.1527 142.598 41.5962 142.16 41.4309 141.996C41.229 141.795 40.8956 141.281 41.0421 140.243C41.3201 138.273 44.0018 133.032 55.7937 130.114L54.3526 124.29ZM44.4766 148.314L45.3698 154.247C48.7068 153.744 51.4898 153.095 53.7605 152.26C55.988 151.44 58.0974 150.307 59.6979 148.609C61.4518 146.749 62.3378 144.475 62.3422 142.094C62.3462 139.95 61.6349 138.143 61.0415 136.932C60.4435 135.711 59.6953 134.578 59.2314 133.865C58.9676 133.459 58.7796 133.168 58.6234 132.909C58.5498 132.786 58.4972 132.694 58.46 132.625C58.4225 132.555 58.4099 132.526 58.4124 132.531C58.4144 132.536 58.4427 132.6 58.4777 132.715C58.5125 132.829 58.5642 133.027 58.5961 133.294C58.6629 133.851 58.6428 134.747 58.1891 135.722C57.2572 137.725 55.5743 137.977 56.0744 137.852L54.6192 132.031L53.1639 126.21C51.5288 126.619 48.7031 127.664 47.3093 130.659C45.9401 133.602 46.9629 136.307 47.4312 137.37C47.9617 138.574 48.7443 139.75 49.1719 140.408C49.7225 141.254 50.0461 141.764 50.2656 142.212C50.4897 142.669 50.3414 142.555 50.3423 142.071C50.3436 141.35 50.6603 140.702 50.967 140.377C51.1204 140.214 50.9048 140.524 49.6176 140.997C48.3735 141.455 46.4522 141.949 43.5834 142.38L44.4766 148.314ZM54.6192 132.031L56.0744 137.852C56.59 137.723 57.7478 137.74 59.1735 138.379C60.5657 139.002 61.5436 139.924 61.9921 140.728C62.3298 141.333 62.4626 141.965 62.0273 142.968C61.4858 144.216 59.8593 146.412 55.5056 149.059L58.6231 154.186L61.7406 159.312C67.263 155.954 71.1416 152.11 73.0358 147.745C75.0362 143.134 74.5349 138.578 72.4704 134.879C70.5166 131.379 67.3238 128.88 64.0782 127.427C60.8661 125.989 56.9191 125.272 53.164 126.21L54.6192 132.031ZM58.6231 154.186L55.5056 149.059C46.5419 154.51 40.9387 154.696 37.6843 153.945C34.302 153.164 32.1311 151.097 30.445 149.291L26.0586 153.385L21.6723 157.479C23.7231 159.676 27.9584 164.016 34.986 165.637C42.1415 167.289 50.9521 165.873 61.7406 159.312L58.6231 154.186ZM26.0586 153.385L30.3013 149.142C26.9303 145.771 25.9156 142.887 25.8321 140.604C25.7453 138.231 26.6327 135.584 28.7446 132.733C33.0925 126.864 41.5636 121.642 49.9599 119.087L48.2129 113.347L46.466 107.607C36.4447 110.657 25.4308 117.046 19.1019 125.59C15.8754 129.946 13.6266 135.207 13.8401 141.042C14.0568 146.967 16.779 152.59 21.816 157.627L26.0586 153.385ZM48.2129 113.347L51.1045 108.089C47.4309 106.069 44.1204 102.262 42.588 95.4763L36.7354 96.7979L30.8828 98.1195C33.0874 107.882 38.3184 114.752 45.3214 118.604L48.2129 113.347ZM36.7354 96.7979L42.5901 95.4856C39.7033 82.6057 45.0988 72.9325 52.2101 67.2047C55.8257 64.2924 59.7101 62.5612 62.8749 61.9691C66.297 61.3288 67.5677 62.178 67.7264 62.3367L71.9688 58.0938L76.2112 53.851C71.9655 49.6057 65.7624 49.2206 60.668 50.1737C55.3163 51.175 49.6417 53.8648 44.6826 57.8592C34.6444 65.9447 26.8276 80.0275 30.8807 98.1102L36.7354 96.7979ZM71.9688 58.0938L67.7262 62.3364C69.6863 64.2966 69.9178 66.1739 69.6777 67.711C69.544 68.5669 69.25 69.3334 68.9379 69.8958C68.5482 70.5978 68.401 70.5227 68.9075 70.185L72.2364 75.1768L75.5653 80.1686C77.2729 79.0299 78.5603 77.2864 79.43 75.7194C80.3772 74.0129 81.1674 71.91 81.534 69.5628C82.2944 64.6939 81.191 58.8307 76.2114 53.8512L71.9688 58.0938ZM72.2364 75.1768L68.8483 70.225C69.3777 69.8627 70.6031 69.3682 72.0835 69.7737C73.1909 70.0771 73.6417 70.691 73.4547 70.4829C73.3174 70.33 73.0724 70.0013 72.6031 69.2794C72.2232 68.695 71.6051 67.7059 71.002 66.8499C69.948 65.354 67.6341 62.2407 63.7103 61.3641C59.2197 60.3607 55.3936 62.715 52.5123 65.5963L56.7549 69.8389L60.9976 74.0816C62.7874 72.2917 62.5981 73.4114 61.0937 73.0753C60.1561 72.8658 60.1777 72.3215 61.1924 73.7616C61.6236 74.3737 61.9731 74.9443 62.542 75.8195C63.0215 76.5573 63.7066 77.5882 64.5285 78.503C65.3008 79.3625 66.7401 80.7521 68.913 81.3473C71.459 82.0448 73.8271 81.3584 75.6245 80.1287L72.2364 75.1768ZM56.7549 69.8389L52.5123 65.5963C44.9326 73.176 41.9001 81.4499 43.3055 89.2342C44.6758 96.8235 50.0234 102.512 56.2088 105.552C62.3948 108.592 70.1442 109.36 77.0819 106.295C84.2597 103.123 89.5765 96.299 91.4782 86.1642L85.5811 85.0577L79.684 83.9511C78.3809 90.8959 75.189 94.012 72.2323 95.3183C69.0354 96.7308 65.0243 96.5134 61.502 94.7822C57.9791 93.0507 55.6705 90.1809 55.1146 87.102C54.5939 84.2182 55.3653 79.7138 60.9976 74.0816L56.7549 69.8389ZM85.5811 85.0577H91.5811V85.0538H85.5811H79.5811V85.0577H85.5811ZM85.5811 85.0538L91.4898 86.0965C92.3383 81.2882 92.9273 79.126 93.851 77.7918C94.4009 76.9976 95.493 75.8793 99.597 75.2313L98.6612 69.3047L97.7254 63.3782C91.6859 64.3318 87.0388 66.5501 83.9849 70.9611C81.3048 74.8321 80.4255 79.7436 79.6724 84.0111L85.5811 85.0538ZM98.6612 69.3047L98.6619 75.3047C100.224 75.3046 101.46 74.9003 102.147 74.6548C102.317 74.5941 102.478 74.5337 102.593 74.4905C102.721 74.4421 102.802 74.4117 102.881 74.3832C103.03 74.3292 103.066 74.3214 103.052 74.3247L101.597 68.504L100.141 62.6832C99.5941 62.82 99.1297 62.979 98.795 63.1002C98.6319 63.1592 98.4749 63.2185 98.3679 63.2587C98.2473 63.3041 98.1742 63.3313 98.1108 63.354C97.864 63.4422 98.1654 63.3048 98.6605 63.3047L98.6612 69.3047ZM101.597 68.504V74.504H101.598V68.504V62.504H101.597V68.504ZM101.598 68.504L103.797 74.0864C106.988 72.8291 109.868 70.8581 112.269 68.8716L108.445 64.2481L104.621 59.6246C102.767 61.1586 100.988 62.2955 99.3985 62.9216L101.598 68.504ZM108.445 64.2481L112.736 60.0535C111.142 58.4241 109.339 57.5225 108.047 56.9695C107.406 56.6954 106.765 56.4567 106.327 56.2907C105.829 56.1021 105.542 55.9884 105.322 55.8868C104.818 55.6536 105.453 55.8242 105.954 56.6876C106.535 57.6887 106.254 58.3724 106.38 57.8138L100.527 56.4922L94.6747 55.1707C94.1448 57.5176 94.1287 60.2183 95.5761 62.7118C96.9435 65.0675 99.0463 66.206 100.289 66.7802C100.943 67.0822 101.599 67.3321 102.075 67.5123C102.611 67.7152 102.973 67.8508 103.326 68.0018C104.02 68.2989 104.163 68.4511 104.155 68.4427L108.445 64.2481ZM100.527 56.4922L106.38 57.814C106.392 57.7617 106.395 57.771 106.382 57.7911C106.375 57.8022 106.412 57.7369 106.572 57.5992C106.958 57.2669 107.731 56.7849 109.298 56.1134C110.864 55.4425 112.696 54.7928 115.132 53.8925C117.485 53.0232 120.205 51.988 123.167 50.655L120.704 45.1837L118.242 39.7123C115.659 40.8745 113.245 41.797 110.973 42.6364C108.785 43.4448 106.505 44.2549 104.571 45.0837C100.89 46.6615 96.0076 49.2686 94.6748 55.1705L100.527 56.4922Z" fill="white" mask="url(#path-1-outside-1_1062_21060)"/>
<path d="M125.086 128.561C121.616 133.633 139.767 134.701 130.425 144.043C104 170.735 81.0444 121.354 115.477 114.948C120.282 101.068 131.759 98.9331 131.759 98.9331C135.229 89.8578 146.707 81.8501 146.707 81.8501L118.413 53.2896C118.413 53.2896 110.406 65.0341 101.597 68.5041C101.597 83.1847 85.5821 85.0532 85.5821 85.0532C79.176 119.219 30.3294 96.2639 56.7546 69.8387C66.0969 60.4964 67.1645 78.6471 72.236 75.1771C74.6383 73.5756 78.9091 65.0341 71.9691 58.0941C63.1607 49.2857 29.7956 65.8348 36.7355 96.7977C38.604 105.072 42.8747 110.411 48.2131 113.347C29.7956 118.952 9.24263 136.569 26.0587 153.385C29.7956 157.389 38.8709 166.197 58.6231 154.186C78.3752 142.174 63.1607 129.896 54.6192 132.031C46.0778 134.167 69.2999 144.577 44.4762 148.314C32.1979 150.182 28.461 130.697 54.3523 124.291C64.2284 121.888 71.4353 122.155 77.5745 121.621C75.4391 127.227 74.1045 133.366 73.3037 140.039C70.9014 165.396 41.5401 174.739 32.1979 177.408C22.5887 180.077 55.1531 185.949 74.3714 161.927C79.176 156.054 82.1121 150.716 84.5144 145.644C86.3829 154.453 92.2551 161.66 103.733 164.329C134.696 171.269 150.978 137.904 142.169 129.095C134.963 121.888 126.688 126.159 125.086 128.561Z" fill="#4B9AE8"/>
<path d="M108.281 102.482C106.051 104.398 100.207 104.639 98.1216 102.262C96.0364 99.886 97.101 94.1932 99.3326 92.2788C101.562 90.3624 104.736 90.3651 107.847 93.9113C110.994 97.4999 110.513 100.568 108.281 102.482Z" fill="#EAC00F"/>
<path d="M101.597 68.5039C100.529 68.7708 99.7286 69.3047 98.6608 69.3047C88.5173 70.9063 87.1827 75.9781 85.5811 85.0538V85.3207C89.3181 86.6554 94.3899 85.3207 98.1269 81.8506C102.131 77.5797 103.199 72.5079 101.597 68.5039Z" fill="white"/>
<path d="M88.7871 76.245C88.7871 77.3069 89.209 78.3253 89.9599 79.0762C90.7108 79.8271 91.7292 80.249 92.7911 80.249C93.853 80.249 94.8715 79.8271 95.6224 79.0762C96.3733 78.3253 96.7951 77.3069 96.7951 76.245C96.7951 75.183 96.3733 74.1646 95.6224 73.4137C94.8715 72.6628 93.853 72.241 92.7911 72.241C91.7292 72.241 90.7108 72.6628 89.9599 73.4137C89.209 74.1646 88.7871 75.183 88.7871 76.245Z" fill="black"/>
<path d="M115.211 114.949C124.287 113.348 129.359 112.013 130.96 101.869C131.227 100.802 131.494 100.001 131.761 98.9332C127.757 97.3316 122.685 98.3993 118.681 102.403C115.211 106.14 113.877 111.212 115.211 114.949Z" fill="white"/>
<path d="M120.281 107.742C120.281 108.804 120.703 109.822 121.454 110.573C122.205 111.324 123.223 111.746 124.285 111.746C125.347 111.746 126.366 111.324 127.117 110.573C127.867 109.822 128.289 108.804 128.289 107.742C128.289 106.68 127.867 105.661 127.117 104.911C126.366 104.16 125.347 103.738 124.285 103.738C123.223 103.738 122.205 104.16 121.454 104.911C120.703 105.661 120.281 106.68 120.281 107.742Z" fill="black"/>
<path d="M163.523 22.3266C163.523 22.3266 148.842 23.1274 136.03 20.1913C122.684 16.9882 121.35 54.891 112.808 68.504C112.541 68.2371 149.91 38.3419 163.523 22.3266Z" fill="#276288"/>
<path d="M133.363 95.9968C134.164 94.6622 135.232 93.3276 136.299 91.993C134.965 90.6584 132.829 89.8576 129.093 90.3914C122.42 91.1922 117.081 90.1245 113.878 86.9215C110.675 83.7184 109.607 78.38 110.408 71.7069C110.942 67.97 110.141 65.8347 108.807 64.2332C107.472 65.3008 106.137 66.3685 104.803 67.1693C106.404 68.5039 107.472 70.6393 106.938 75.1769C106.137 81.85 107.205 87.1884 110.408 90.3914C113.611 93.5945 118.95 94.6622 125.623 93.8614C129.626 93.3276 132.029 94.3953 133.363 95.9968Z" fill="#276288"/>
<path d="M177.671 36.7402C177.671 36.7402 176.87 51.4209 179.806 64.5C183.009 77.8461 145.106 79.4476 132.027 87.9891C132.027 87.9891 161.656 50.3532 177.671 36.7402Z" fill="#276288"/>
<path d="M165.924 62.098C180.337 44.2143 181.405 30.3344 175.533 24.4621C169.66 18.5898 155.781 19.6575 138.164 34.3382C118.412 50.6204 102.396 48.2181 100.528 56.4927C98.6594 64.7672 111.739 58.628 110.137 71.7072C109.336 78.3802 110.404 83.7186 113.607 86.9217C116.81 90.1247 122.149 91.1924 128.822 90.3916C141.901 88.7901 135.761 101.869 144.036 100.001C152.311 98.1324 149.908 81.8502 165.924 62.098Z" fill="#4B9AE8"/>
</svg>
