<svg width="200" height="200" viewBox="0 0 200 200" fill="none" xmlns="http://www.w3.org/2000/svg">
<mask id="path-1-outside-1_1347_13517" maskUnits="userSpaceOnUse" x="13.5459" y="13.5518" width="173" height="173" fill="black">
<rect fill="white" x="13.5459" y="13.5518" width="173" height="173"/>
<path d="M48.29 20.5713C56.7382 20.1381 67.3026 26.7594 72.9482 33.3994C73.8604 33.2462 74.7156 33.1324 75.4336 33.0771C77.4307 33.0771 77.4379 35.3705 76.0732 37.6631C77.9816 42.0117 77.5882 48.7888 73.5693 59.1533C67.5312 74.4569 67.2368 84.0983 69.6094 90.166C76.7572 94.0307 82.3201 80.0945 88.4688 78.0449C88.9821 77.8709 89.4926 77.7078 90.001 77.5566C106.479 51.6342 134.677 53.0975 145.01 81.9453C156.106 85.1279 165.074 91.4663 169.234 99.9404C171.151 102.593 176.44 110.845 177.824 120.352C178.942 122.203 179.793 124.018 180 125.673C179.734 128.068 178.669 130.995 176.807 134.188C175.21 131.793 173.88 129.398 173.614 127.27C173.811 125.501 174.443 123.443 175.51 121.201C174.911 116.745 173.34 112.513 171.689 109.042C171.729 109.613 171.752 110.19 171.752 110.772C171.851 111.926 171.756 113.025 171.486 114.07V116.485C171.66 117.574 171.75 118.691 171.75 119.819C171.75 120.947 171.66 122.064 171.486 123.152V166.646C171.487 166.648 171.488 166.649 171.488 166.649L173.617 180.22H144.346L146.208 166.649C146.208 166.649 146.209 166.648 146.211 166.646V137.239C144.638 136.417 143.193 135.193 141.97 133.613C141.119 132.515 140.402 131.277 139.829 129.941C131.512 131.221 122.62 131.793 114.544 131.793C113.506 131.793 112.478 131.737 111.461 131.631C111.563 132.471 111.617 133.326 111.617 134.188C111.617 138.563 110.271 142.759 107.876 145.853C107.463 146.386 107.023 146.879 106.562 147.33V166.649C106.562 167.147 106.547 167.614 106.519 168.054L108.428 180.22H79.4209L81.2832 166.649C81.2832 166.649 81.2841 166.648 81.2861 166.646V144.938C80.825 144.486 80.3845 143.993 79.9707 143.458C77.5757 140.364 76.2305 136.168 76.2305 131.793C76.2305 131.717 76.2306 131.641 76.2314 131.565C38.6308 149.665 29.4343 77.156 53.0723 52.5107C53.0751 52.5075 53.0782 52.5042 53.0811 52.501C53.0811 52.501 48.0252 57.823 34.9873 52.2354C32.8587 51.4371 29.932 49.8403 24.3447 51.4365C21.1518 52.2348 19.2891 47.4461 22.2158 45.8496V44.7852C20.6194 44.5191 19.5551 42.9226 21.9492 41.3262C26.2065 38.9314 26.2072 33.3437 35.2539 32.8115C39.0823 32.632 43.8924 31.8887 48.877 31.2871C47.7298 30.6424 46.8029 30.417 44.8311 30.417C47.2114 28.3011 50.1176 29.0766 50.1523 29.0859C50.1436 29.0604 49.5902 27.4815 45.8955 26.4258C47.2259 25.0954 52.0156 25.0947 52.0156 25.0947C52.0154 22.168 48.29 20.5713 48.29 20.5713Z"/>
</mask>
<path d="M48.29 20.5713C56.7382 20.1381 67.3026 26.7594 72.9482 33.3994C73.8604 33.2462 74.7156 33.1324 75.4336 33.0771C77.4307 33.0771 77.4379 35.3705 76.0732 37.6631C77.9816 42.0117 77.5882 48.7888 73.5693 59.1533C67.5312 74.4569 67.2368 84.0983 69.6094 90.166C76.7572 94.0307 82.3201 80.0945 88.4688 78.0449C88.9821 77.8709 89.4926 77.7078 90.001 77.5566C106.479 51.6342 134.677 53.0975 145.01 81.9453C156.106 85.1279 165.074 91.4663 169.234 99.9404C171.151 102.593 176.44 110.845 177.824 120.352C178.942 122.203 179.793 124.018 180 125.673C179.734 128.068 178.669 130.995 176.807 134.188C175.21 131.793 173.88 129.398 173.614 127.27C173.811 125.501 174.443 123.443 175.51 121.201C174.911 116.745 173.34 112.513 171.689 109.042C171.729 109.613 171.752 110.19 171.752 110.772C171.851 111.926 171.756 113.025 171.486 114.07V116.485C171.66 117.574 171.75 118.691 171.75 119.819C171.75 120.947 171.66 122.064 171.486 123.152V166.646C171.487 166.648 171.488 166.649 171.488 166.649L173.617 180.22H144.346L146.208 166.649C146.208 166.649 146.209 166.648 146.211 166.646V137.239C144.638 136.417 143.193 135.193 141.97 133.613C141.119 132.515 140.402 131.277 139.829 129.941C131.512 131.221 122.62 131.793 114.544 131.793C113.506 131.793 112.478 131.737 111.461 131.631C111.563 132.471 111.617 133.326 111.617 134.188C111.617 138.563 110.271 142.759 107.876 145.853C107.463 146.386 107.023 146.879 106.562 147.33V166.649C106.562 167.147 106.547 167.614 106.519 168.054L108.428 180.22H79.4209L81.2832 166.649C81.2832 166.649 81.2841 166.648 81.2861 166.646V144.938C80.825 144.486 80.3845 143.993 79.9707 143.458C77.5757 140.364 76.2305 136.168 76.2305 131.793C76.2305 131.717 76.2306 131.641 76.2314 131.565C38.6308 149.665 29.4343 77.156 53.0723 52.5107C53.0751 52.5075 53.0782 52.5042 53.0811 52.501C53.0811 52.501 48.0252 57.823 34.9873 52.2354C32.8587 51.4371 29.932 49.8403 24.3447 51.4365C21.1518 52.2348 19.2891 47.4461 22.2158 45.8496V44.7852C20.6194 44.5191 19.5551 42.9226 21.9492 41.3262C26.2065 38.9314 26.2072 33.3437 35.2539 32.8115C39.0823 32.632 43.8924 31.8887 48.877 31.2871C47.7298 30.6424 46.8029 30.417 44.8311 30.417C47.2114 28.3011 50.1176 29.0766 50.1523 29.0859C50.1436 29.0604 49.5902 27.4815 45.8955 26.4258C47.2259 25.0954 52.0156 25.0947 52.0156 25.0947C52.0154 22.168 48.29 20.5713 48.29 20.5713Z" fill="#040000"/>
<path d="M48.29 20.5713L47.9828 14.5792C45.1954 14.7221 42.8746 16.7682 42.3836 19.5157C41.8926 22.2633 43.361 24.9865 45.9263 26.0861L48.29 20.5713ZM72.9482 33.3994L68.3771 37.2859C69.7454 38.8952 71.859 39.6664 73.9421 39.3165L72.9482 33.3994ZM75.4336 33.0771V27.0771C75.28 27.0771 75.1264 27.083 74.9733 27.0948L75.4336 33.0771ZM76.0732 37.6631L70.9175 34.5941C69.9265 36.259 69.8004 38.3 70.579 40.0741L76.0732 37.6631ZM73.5693 59.1533L79.1506 61.3555C79.1549 61.3445 79.1592 61.3335 79.1635 61.3225L73.5693 59.1533ZM69.6094 90.166L64.0214 92.351C64.5383 93.673 65.5071 94.7688 66.7557 95.4439L69.6094 90.166ZM88.4688 78.0449L90.3661 83.737C90.3757 83.7338 90.3853 83.7306 90.395 83.7273L88.4688 78.0449ZM90.001 77.5566L91.7113 83.3077C93.0978 82.8954 94.2886 81.9961 95.0646 80.7753L90.001 77.5566ZM145.01 81.9453L139.361 83.9686C140.012 85.7868 141.499 87.1803 143.356 87.7128L145.01 81.9453ZM169.234 99.9404L163.849 102.585C163.998 102.889 164.173 103.18 164.371 103.454L169.234 99.9404ZM177.824 120.352L171.887 121.216C172.002 122.008 172.275 122.769 172.688 123.454L177.824 120.352ZM180 125.673L185.963 126.335C186.015 125.868 186.012 125.395 185.954 124.928L180 125.673ZM176.807 134.188L171.814 137.516C172.962 139.238 174.917 140.247 176.986 140.185C179.055 140.123 180.946 138.999 181.989 137.211L176.807 134.188ZM173.614 127.27L167.651 126.607C167.599 127.075 167.602 127.547 167.661 128.014L173.614 127.27ZM175.51 121.201L180.927 123.78C181.427 122.729 181.611 121.556 181.456 120.402L175.51 121.201ZM171.689 109.042L177.108 106.465C175.87 103.862 172.956 102.507 170.168 103.238C167.38 103.969 165.505 106.579 165.704 109.455L171.689 109.042ZM171.752 110.772L165.752 110.773C165.752 110.945 165.759 111.116 165.774 111.288L171.752 110.772ZM171.486 114.07L165.676 112.573C165.55 113.062 165.486 113.565 165.486 114.07H171.486ZM171.486 116.485H165.486C165.486 116.802 165.511 117.119 165.561 117.432L171.486 116.485ZM171.75 119.819H177.75V119.819L171.75 119.819ZM171.486 123.152L165.561 122.206C165.511 122.519 165.486 122.835 165.486 123.152H171.486ZM171.486 166.646H165.486C165.486 167.908 165.884 169.138 166.623 170.16L171.486 166.646ZM171.488 166.649L177.416 165.72C177.273 164.807 176.921 163.94 176.388 163.186L171.488 166.649ZM173.617 180.22V186.22C175.371 186.22 177.037 185.452 178.177 184.12C179.317 182.787 179.816 181.022 179.545 179.29L173.617 180.22ZM144.346 180.22L138.401 179.404C138.166 181.121 138.684 182.857 139.824 184.163C140.963 185.47 142.612 186.22 144.346 186.22V180.22ZM146.208 166.649L141.109 163.487C140.666 164.202 140.378 165.001 140.264 165.834L146.208 166.649ZM146.211 166.646L150.843 170.46C151.727 169.385 152.211 168.037 152.211 166.646H146.211ZM146.211 137.239H152.211C152.211 135.005 150.97 132.956 148.99 131.922L146.211 137.239ZM141.97 133.613L137.225 137.286L137.225 137.286L141.97 133.613ZM139.829 129.941L145.343 127.577C144.265 125.062 141.621 123.595 138.917 124.011L139.829 129.941ZM114.544 131.793L114.544 137.793H114.544V131.793ZM111.461 131.631L112.083 125.663C110.266 125.474 108.463 126.122 107.182 127.425C105.902 128.727 105.285 130.541 105.505 132.354L111.461 131.631ZM111.617 134.188H117.617V134.187L111.617 134.188ZM107.876 145.853L112.62 149.526L112.62 149.526L107.876 145.853ZM106.562 147.33L102.363 143.044C101.212 144.173 100.562 145.718 100.562 147.33H106.562ZM106.519 168.054L100.531 167.672C100.503 168.11 100.523 168.55 100.591 168.984L106.519 168.054ZM108.428 180.22V186.22C110.181 186.22 111.847 185.452 112.987 184.12C114.127 182.787 114.627 181.022 114.355 179.29L108.428 180.22ZM79.4209 180.22L73.4766 179.404C73.2409 181.121 73.7596 182.857 74.899 184.163C76.0385 185.47 77.6873 186.22 79.4209 186.22V180.22ZM81.2832 166.649L76.1835 163.488C75.7409 164.202 75.4531 165.001 75.3389 165.834L81.2832 166.649ZM81.2861 166.646L85.9178 170.46C86.8024 169.385 87.2861 168.037 87.2861 166.646H81.2861ZM81.2861 144.938H87.2861C87.2861 143.325 86.6368 141.78 85.4845 140.651L81.2861 144.938ZM79.9707 143.458L75.2263 147.131L75.2264 147.131L79.9707 143.458ZM76.2305 131.793L70.2305 131.793V131.793H76.2305ZM76.2314 131.565L82.2311 131.629C82.2533 129.555 81.2019 127.616 79.4511 126.502C77.7003 125.389 75.4986 125.259 73.629 126.159L76.2314 131.565ZM53.0723 52.5107L57.4025 56.664C57.4773 56.586 57.5499 56.506 57.6204 56.4241L53.0723 52.5107ZM53.0811 52.501L57.6277 56.4161C59.7527 53.9483 59.5212 50.236 57.106 48.0513C54.6909 45.8667 50.974 46.0075 48.731 48.3685L53.0811 52.501ZM34.9873 52.2354L37.3508 46.7205C37.266 46.6842 37.1805 46.6498 37.0941 46.6174L34.9873 52.2354ZM24.3447 51.4365L25.7999 57.2574C25.8646 57.2412 25.9289 57.224 25.9929 57.2057L24.3447 51.4365ZM22.2158 45.8496L25.0891 51.1169C27.0166 50.0655 28.2158 48.0452 28.2158 45.8496H22.2158ZM22.2158 44.7852H28.2158C28.2158 41.8521 26.0953 39.349 23.2022 38.8668L22.2158 44.7852ZM21.9492 41.3262L19.0077 36.0967C18.8757 36.1709 18.7466 36.2501 18.6206 36.3341L21.9492 41.3262ZM35.2539 32.8115L34.9729 26.8181C34.9491 26.8192 34.9254 26.8205 34.9016 26.8219L35.2539 32.8115ZM48.877 31.2871L49.5959 37.2439C52.1724 36.9329 54.2569 35.0007 54.7622 32.4552C55.2674 29.9097 54.0788 27.3278 51.8164 26.0564L48.877 31.2871ZM44.8311 30.417L40.8449 25.9325C38.983 27.5875 38.3374 30.2208 39.2227 32.5493C40.108 34.8777 42.34 36.417 44.831 36.417L44.8311 30.417ZM50.1523 29.0859L48.5891 34.8787C50.7307 35.4567 53.0164 34.8059 54.5324 33.1865C56.0484 31.5672 56.5473 29.2436 55.8296 27.1447L50.1523 29.0859ZM45.8955 26.4258L41.6529 22.1831C40.1496 23.6864 39.5541 25.8728 40.0873 27.9308C40.6206 29.9887 42.203 31.6108 44.2471 32.1949L45.8955 26.4258ZM52.0156 25.0947L52.0164 31.0947C55.33 31.0943 58.0159 28.4078 58.0156 25.0943L52.0156 25.0947ZM48.29 20.5713L48.5973 26.5634C51.2705 26.4263 54.8798 27.4373 58.7698 29.5853C62.5808 31.6897 66.055 34.5547 68.3771 37.2859L72.9482 33.3994L77.5193 29.5129C74.1959 25.6041 69.5651 21.8384 64.5704 19.0804C59.6547 16.366 53.7578 14.283 47.9828 14.5792L48.29 20.5713ZM72.9482 33.3994L73.9421 39.3165C74.7482 39.1811 75.4142 39.0964 75.8939 39.0595L75.4336 33.0771L74.9733 27.0948C74.0171 27.1684 72.9726 27.3113 71.9544 27.4823L72.9482 33.3994ZM75.4336 33.0771V39.0771C74.7551 39.0771 73.5057 38.8533 72.4038 37.791C71.3537 36.7787 71.0933 35.6343 71.0404 35.0721C71.0131 34.7817 71.0298 34.5687 71.0444 34.4529C71.0594 34.3339 71.0781 34.2712 71.0794 34.267C71.0794 34.2669 71.0408 34.387 70.9175 34.5941L76.0732 37.6631L81.229 40.732C82.2398 39.0339 83.2355 36.5837 82.9877 33.9487C82.854 32.5266 82.3026 30.6655 80.7321 29.1516C79.1098 27.5877 77.1107 27.0771 75.4336 27.0771V33.0771ZM76.0732 37.6631L70.579 40.0741C71.4841 42.1367 71.8652 46.9519 67.9752 56.9842L73.5693 59.1533L79.1635 61.3225C83.3112 50.6257 84.479 41.8868 81.5675 35.252L76.0732 37.6631ZM73.5693 59.1533L67.9881 56.9512C61.7598 72.7366 60.8182 84.159 64.0214 92.351L69.6094 90.166L75.1974 87.981C73.6554 84.0376 73.3026 76.1771 79.1506 61.3555L73.5693 59.1533ZM69.6094 90.166L66.7557 95.4439C70.5379 97.4889 74.3008 97.0712 77.3469 95.5788C80.0194 94.2694 82.2056 92.1185 83.7915 90.4264C84.6273 89.5346 85.4529 88.5939 86.1754 87.7783C86.9288 86.9278 87.5904 86.1899 88.2265 85.5383C88.8647 84.8845 89.3799 84.4195 89.8016 84.1012C90.2315 83.7766 90.4112 83.722 90.3661 83.737L88.4688 78.0449L86.5714 72.3528C83.5701 73.3532 81.2152 75.5419 79.6398 77.1557C78.778 78.0384 77.9431 78.9744 77.1929 79.8213C76.4117 80.7031 75.7265 81.4835 75.036 82.2203C73.5691 83.7853 72.6401 84.5219 72.0671 84.8027C71.8611 84.9036 71.8978 84.8437 72.1122 84.8398C72.3641 84.8353 72.5091 84.913 72.4631 84.8881L69.6094 90.166ZM88.4688 78.0449L90.395 83.7273C90.8424 83.5757 91.2808 83.4357 91.7113 83.3077L90.001 77.5566L88.2906 71.8056C87.7044 71.9799 87.1217 72.1662 86.5425 72.3625L88.4688 78.0449ZM90.001 77.5566L95.0646 80.7753C102.497 69.0828 111.805 64.664 119.389 65.1974C126.805 65.719 134.768 71.1466 139.361 83.9686L145.01 81.9453L150.658 79.922C144.918 63.8962 133.616 54.1683 120.231 53.2269C107.013 52.2973 93.9827 60.1081 84.9374 74.3379L90.001 77.5566ZM145.01 81.9453L143.356 87.7128C153.402 90.5942 160.664 96.0998 163.849 102.585L169.234 99.9404L174.62 97.296C169.483 86.8327 158.81 79.6616 146.664 76.1778L145.01 81.9453ZM169.234 99.9404L164.371 103.454C166.081 105.821 170.71 113.13 171.887 121.216L177.824 120.352L183.762 119.487C182.171 108.56 176.221 99.3649 174.098 96.4266L169.234 99.9404ZM177.824 120.352L172.688 123.454C173.701 125.13 174.001 126.056 174.046 126.417L180 125.673L185.954 124.928C185.585 121.98 184.184 119.276 182.96 117.249L177.824 120.352ZM180 125.673L174.037 125.01C173.894 126.298 173.23 128.412 171.624 131.164L176.807 134.188L181.989 137.211C184.109 133.577 185.574 129.837 185.963 126.335L180 125.673ZM176.807 134.188L181.799 130.859C180.194 128.452 179.641 127.107 179.568 126.525L173.614 127.27L167.661 128.014C168.12 131.689 170.227 135.134 171.814 137.516L176.807 134.188ZM173.614 127.27L179.578 127.932C179.68 127.009 180.058 125.606 180.927 123.78L175.51 121.201L170.092 118.622C168.828 121.279 167.941 123.994 167.651 126.607L173.614 127.27ZM175.51 121.201L181.456 120.402C180.747 115.119 178.916 110.266 177.108 106.465L171.689 109.042L166.271 111.619C167.765 114.76 169.076 118.372 169.563 122L175.51 121.201ZM171.689 109.042L165.704 109.455C165.735 109.91 165.752 110.348 165.752 110.773L171.752 110.772L177.752 110.772C177.752 110.031 177.723 109.315 177.675 108.629L171.689 109.042ZM171.752 110.772L165.774 111.288C165.816 111.775 165.774 112.193 165.676 112.573L171.486 114.07L177.297 115.568C177.737 113.857 177.887 112.077 177.73 110.257L171.752 110.772ZM171.486 114.07H165.486V116.485H171.486H177.486V114.07H171.486ZM171.486 116.485L165.561 117.432C165.685 118.208 165.75 119.008 165.75 119.819L171.75 119.819L177.75 119.819C177.75 118.374 177.635 116.941 177.411 115.539L171.486 116.485ZM171.75 119.819H165.75C165.75 120.63 165.685 121.43 165.561 122.206L171.486 123.152L177.411 124.099C177.635 122.698 177.75 121.265 177.75 119.819H171.75ZM171.486 123.152H165.486V166.646H171.486H177.486V123.152H171.486ZM171.486 166.646L166.623 170.16C166.581 170.103 166.544 170.05 166.512 170.002C166.48 169.955 166.455 169.915 166.438 169.888C166.429 169.876 166.423 169.866 166.421 169.862C166.421 169.862 166.42 169.861 166.42 169.861C166.42 169.861 166.42 169.861 166.421 169.862C166.421 169.863 166.424 169.867 166.427 169.872C166.431 169.878 166.436 169.886 166.443 169.897C166.45 169.908 166.46 169.923 166.472 169.941C166.483 169.958 166.499 169.982 166.517 170.009C166.536 170.037 166.56 170.072 166.589 170.113L171.488 166.649L176.388 163.186C176.417 163.227 176.441 163.262 176.459 163.289C176.478 163.317 176.493 163.34 176.505 163.358C176.516 163.376 176.526 163.39 176.533 163.401C176.54 163.412 176.545 163.42 176.549 163.426C176.552 163.431 176.554 163.435 176.555 163.436C176.555 163.436 176.556 163.437 176.556 163.437C176.555 163.436 176.555 163.436 176.554 163.435C176.552 163.431 176.546 163.421 176.538 163.408C176.52 163.381 176.494 163.341 176.462 163.293C176.429 163.245 176.392 163.191 176.35 163.133L171.486 166.646ZM171.488 166.649L165.561 167.579L167.69 181.15L173.617 180.22L179.545 179.29L177.416 165.72L171.488 166.649ZM173.617 180.22V174.22H144.346V180.22V186.22H173.617V180.22ZM144.346 180.22L150.29 181.035L152.152 167.465L146.208 166.649L140.264 165.834L138.401 179.404L144.346 180.22ZM146.208 166.649C151.307 169.811 151.307 169.812 151.306 169.813C151.306 169.813 151.306 169.814 151.306 169.814C151.305 169.815 151.305 169.816 151.304 169.817C151.303 169.818 151.302 169.82 151.301 169.822C151.299 169.825 151.296 169.829 151.294 169.832C151.29 169.839 151.286 169.846 151.281 169.853C151.273 169.867 151.264 169.88 151.255 169.894C151.237 169.922 151.219 169.949 151.201 169.976C151.165 170.031 151.127 170.086 151.088 170.14C151.011 170.248 150.929 170.355 150.843 170.46L146.211 166.646L141.579 162.831C141.491 162.939 141.408 163.047 141.329 163.157C141.29 163.212 141.252 163.267 141.215 163.322C141.197 163.349 141.179 163.377 141.161 163.405C141.152 163.418 141.143 163.432 141.135 163.446C141.13 163.453 141.126 163.46 141.122 163.467C141.12 163.47 141.117 163.474 141.115 163.477C141.114 163.479 141.113 163.48 141.112 163.482C141.112 163.483 141.111 163.484 141.11 163.485C141.11 163.485 141.11 163.486 141.11 163.486C141.109 163.487 141.109 163.487 146.208 166.649ZM146.211 166.646H152.211V137.239H146.211H140.211V166.646H146.211ZM146.211 137.239L148.99 131.922C148.25 131.535 147.456 130.899 146.714 129.94L141.97 133.613L137.225 137.286C138.929 139.487 141.027 141.3 143.432 142.557L146.211 137.239ZM141.97 133.613L146.714 129.94C146.198 129.273 145.731 128.481 145.343 127.577L139.829 129.941L134.315 132.306C135.072 134.072 136.041 135.756 137.225 137.286L141.97 133.613ZM139.829 129.941L138.917 124.011C130.943 125.238 122.361 125.793 114.544 125.793V131.793V137.793C122.88 137.793 132.08 137.204 140.741 135.872L139.829 129.941ZM114.544 131.793L114.544 125.793C113.722 125.793 112.902 125.749 112.083 125.663L111.461 131.631L110.839 137.599C112.054 137.725 113.289 137.793 114.544 137.793L114.544 131.793ZM111.461 131.631L105.505 132.354C105.579 132.964 105.617 133.577 105.617 134.188L111.617 134.188L117.617 134.187C117.617 133.075 117.547 131.979 117.417 130.907L111.461 131.631ZM111.617 134.188H105.617C105.617 137.398 104.617 140.261 103.132 142.18L107.876 145.853L112.62 149.526C115.925 145.257 117.617 139.727 117.617 134.188H111.617ZM107.876 145.853L103.132 142.179C102.886 142.497 102.628 142.785 102.363 143.044L106.562 147.33L110.762 151.616C111.417 150.973 112.039 150.276 112.62 149.526L107.876 145.853ZM106.562 147.33H100.562V166.649H106.562H112.562V147.33H106.562ZM106.562 166.649H100.562C100.562 167.018 100.551 167.359 100.531 167.672L106.519 168.054L112.506 168.436C112.542 167.87 112.562 167.275 112.562 166.649H106.562ZM106.519 168.054L100.591 168.984L102.5 181.15L108.428 180.22L114.355 179.29L112.446 167.124L106.519 168.054ZM108.428 180.22V174.22H79.4209V180.22V186.22H108.428V180.22ZM79.4209 180.22L85.3652 181.035L87.2275 167.465L81.2832 166.649L75.3389 165.834L73.4766 179.404L79.4209 180.22ZM81.2832 166.649C86.3829 169.811 86.3825 169.811 86.3821 169.812C86.382 169.812 86.3816 169.813 86.3813 169.813C86.3808 169.814 86.3802 169.815 86.3797 169.816C86.3786 169.817 86.3776 169.819 86.3765 169.821C86.3743 169.824 86.3722 169.828 86.37 169.831C86.3657 169.838 86.3613 169.845 86.357 169.852C86.3483 169.866 86.3395 169.88 86.3306 169.893C86.3129 169.921 86.2949 169.949 86.2766 169.976C86.24 170.031 86.2023 170.085 86.1635 170.14C86.0859 170.248 86.004 170.355 85.9178 170.46L81.2861 166.646L76.6545 162.831C76.5663 162.938 76.4829 163.047 76.4043 163.157C76.365 163.212 76.3269 163.267 76.2901 163.322C76.2717 163.35 76.2537 163.378 76.2359 163.405C76.227 163.419 76.2182 163.433 76.2094 163.447C76.2051 163.454 76.2007 163.461 76.1964 163.468C76.1942 163.471 76.1921 163.474 76.1899 163.478C76.1889 163.48 76.1878 163.481 76.1867 163.483C76.1862 163.484 76.1856 163.485 76.1851 163.486C76.1848 163.486 76.1844 163.487 76.1843 163.487C76.1839 163.488 76.1835 163.488 81.2832 166.649ZM81.2861 166.646H87.2861V144.938H81.2861H75.2861V166.646H81.2861ZM81.2861 144.938L85.4845 140.651C85.2192 140.391 84.9611 140.103 84.715 139.785L79.9707 143.458L75.2264 147.131C75.808 147.882 76.4309 148.581 77.0878 149.224L81.2861 144.938ZM79.9707 143.458L84.7151 139.785C83.2302 137.867 82.2305 135.005 82.2305 131.793H76.2305H70.2305C70.2305 137.331 71.9211 142.862 75.2263 147.131L79.9707 143.458ZM76.2305 131.793L82.2305 131.793C82.2305 131.724 82.2306 131.673 82.2311 131.629L76.2314 131.565L70.2318 131.501C70.2306 131.609 70.2305 131.71 70.2305 131.793L76.2305 131.793ZM76.2314 131.565L73.629 126.159C66.0008 129.831 60.9049 128.623 57.1806 125.635C52.9287 122.224 49.4383 115.636 47.5551 106.815C45.7046 98.1465 45.5949 88.1408 47.3279 78.913C49.0748 69.6117 52.5756 61.6965 57.4025 56.664L53.0723 52.5107L48.7421 48.3575C41.7499 55.6476 37.5361 66.0381 35.5341 76.6981C33.5183 87.4317 33.6256 99.043 35.8196 109.32C37.9809 119.444 42.3623 129.131 49.6713 134.995C57.5079 141.282 67.6617 142.35 78.8339 136.972L76.2314 131.565ZM53.0723 52.5107L57.6204 56.4241C57.5989 56.4491 57.5797 56.471 57.5637 56.489C57.5478 56.507 57.5341 56.5222 57.5237 56.5337C57.5133 56.5452 57.505 56.5543 57.5001 56.5597C57.4976 56.5624 57.4956 56.5646 57.4944 56.5658C57.4934 56.567 57.4925 56.5679 57.4929 56.5675C57.4929 56.5675 57.4932 56.5671 57.4936 56.5667C57.494 56.5663 57.4946 56.5656 57.4954 56.5648C57.4968 56.5632 57.4991 56.5607 57.5019 56.5576C57.5074 56.5516 57.5164 56.5418 57.5274 56.5297C57.5384 56.5175 57.5527 56.5017 57.5692 56.483C57.5858 56.4643 57.6055 56.4418 57.6277 56.4161L53.0811 52.501L48.5344 48.5858C48.5559 48.561 48.5749 48.5393 48.5907 48.5214C48.6066 48.5036 48.6201 48.4885 48.6304 48.4771C48.6406 48.4658 48.6489 48.4568 48.6536 48.4516C48.6561 48.449 48.658 48.4469 48.6591 48.4457C48.66 48.4446 48.6609 48.4438 48.6605 48.4442C48.6604 48.4442 48.6592 48.4456 48.6578 48.4471C48.6562 48.4488 48.6539 48.4514 48.651 48.4545C48.6454 48.4606 48.6363 48.4706 48.6252 48.4828C48.614 48.4952 48.5996 48.5112 48.5829 48.53C48.5662 48.5489 48.5464 48.5715 48.5241 48.5974L53.0723 52.5107ZM53.0811 52.501C48.731 48.3685 48.7346 48.3647 48.7383 48.3609C48.7395 48.3597 48.7431 48.3559 48.7455 48.3534C48.7502 48.3484 48.7549 48.3435 48.7596 48.3387C48.7689 48.329 48.778 48.3196 48.7868 48.3106C48.8046 48.2924 48.8214 48.2755 48.8373 48.2596C48.8692 48.228 48.8976 48.2007 48.9223 48.1776C48.9718 48.1313 49.007 48.1012 49.0276 48.0843C49.0689 48.0504 49.0519 48.0689 48.9725 48.1171C48.8213 48.2089 48.3976 48.4369 47.643 48.6017C46.1958 48.9179 42.9528 49.1213 37.3508 46.7205L34.9873 52.2354L32.6238 57.7502C40.0597 60.937 45.8636 61.2733 50.2038 60.3253C52.3429 59.8581 53.998 59.1048 55.2022 58.3734C55.8005 58.01 56.2804 57.6563 56.6491 57.3532C56.8334 57.2017 56.99 57.0627 57.1199 56.9412C57.1848 56.8804 57.2431 56.824 57.295 56.7725C57.3209 56.7468 57.3452 56.7223 57.3678 56.699C57.3792 56.6874 57.3901 56.6762 57.4007 56.6652C57.4059 56.6598 57.4111 56.6544 57.4162 56.6491C57.4187 56.6464 57.4225 56.6425 57.4237 56.6412C57.4274 56.6373 57.4311 56.6334 53.0811 52.501ZM34.9873 52.2354L37.0941 46.6174C36.5123 46.3992 34.4203 45.4556 32.0062 45.0294C29.3728 44.5645 26.324 44.631 22.6965 45.6673L24.3447 51.4365L25.9929 57.2057C27.9527 56.6458 29.161 56.7127 29.9199 56.8466C30.8981 57.0193 31.3338 57.2733 32.8805 57.8533L34.9873 52.2354ZM24.3447 51.4365L22.8895 45.6157C23.7218 45.4076 24.6755 45.5625 25.4362 46.0386C26.0962 46.4515 26.4289 46.9803 26.5853 47.3867C26.7422 47.7946 26.8468 48.4045 26.638 49.1422C26.3977 49.9912 25.8106 50.7233 25.0891 51.1169L22.2158 45.8496L19.3425 40.5823C14.5577 43.1924 14.1101 48.3804 15.3855 51.6955C16.6529 54.9898 20.4739 58.5889 25.7999 57.2574L24.3447 51.4365ZM22.2158 45.8496H28.2158V44.7852H22.2158H16.2158V45.8496H22.2158ZM22.2158 44.7852L23.2022 38.8668C23.693 38.9486 25.7244 39.5052 26.3884 42.027C27.2053 45.1299 24.8817 46.5824 25.2778 46.3182L21.9492 41.3262L18.6206 36.3341C16.6226 37.6664 13.6341 40.7153 14.7838 45.0821C15.7804 48.8678 19.1422 50.3557 21.2294 50.7035L22.2158 44.7852ZM21.9492 41.3262L24.8908 46.5556C26.8476 45.4549 28.1843 44.049 29.1196 42.9508C30.3213 41.54 30.4078 41.2955 31.1697 40.4879C31.8245 39.7939 32.6691 38.9739 35.6062 38.8012L35.2539 32.8115L34.9016 26.8219C28.792 27.1813 25.1129 29.4213 22.4413 32.2529C21.5401 33.2081 20.2627 34.8428 19.9842 35.1698C19.4393 35.8095 19.1795 36.0001 19.0077 36.0967L21.9492 41.3262ZM35.2539 32.8115L35.5349 38.8049C39.6556 38.6118 44.9395 37.8059 49.5959 37.2439L48.877 31.2871L48.158 25.3303C42.8454 25.9716 38.509 26.6523 34.9729 26.8181L35.2539 32.8115ZM48.877 31.2871L51.8164 26.0564C49.5106 24.7607 47.4847 24.417 44.8311 24.417L44.8311 30.417L44.831 36.417C45.6264 36.417 45.8601 36.4671 45.8723 36.4698C45.8725 36.4698 45.8698 36.4692 45.8647 36.4679C45.8595 36.4665 45.8529 36.4647 45.8453 36.4623C45.8289 36.4573 45.8152 36.4522 45.8066 36.4488C45.7886 36.4416 45.8221 36.4529 45.9375 36.5178L48.877 31.2871ZM44.8311 30.417L48.8172 34.9014C48.8182 34.9006 48.8087 34.9089 48.7899 34.92C48.7718 34.9306 48.7549 34.9381 48.7426 34.9427C48.7214 34.9505 48.7299 34.9439 48.7756 34.9409C48.7963 34.9395 48.8176 34.9393 48.8371 34.9401C48.8564 34.9409 48.8674 34.9423 48.8662 34.9422C48.8648 34.942 48.8456 34.9395 48.8036 34.9308C48.7617 34.9222 48.6921 34.9065 48.5891 34.8787L50.1523 29.0859L51.7156 23.2932C51.3811 23.2029 45.6775 21.6369 40.8449 25.9325L44.8311 30.417ZM50.1523 29.0859L55.8296 27.1447C55.08 24.9523 52.7905 22.1558 47.5439 20.6567L45.8955 26.4258L44.2471 32.1949C45.4128 32.528 45.6318 32.8134 45.4392 32.6436C45.3453 32.5609 45.1791 32.3915 44.9939 32.1107C44.8096 31.8312 44.6276 31.4732 44.4751 31.0272L50.1523 29.0859ZM45.8955 26.4258L50.1381 30.6684C49.696 31.1106 49.3074 31.3121 49.1936 31.3681C49.0591 31.4344 49.0142 31.4398 49.1065 31.4126C49.3036 31.3546 49.6686 31.2797 50.1815 31.2171C50.6662 31.158 51.1449 31.126 51.5124 31.1097C51.6918 31.1018 51.8342 31.098 51.9247 31.0962C51.9698 31.0953 52.0013 31.0949 52.0174 31.0948C52.0254 31.0947 52.0295 31.0947 52.0294 31.0947C52.0294 31.0947 52.0283 31.0947 52.0262 31.0947C52.0251 31.0947 52.0237 31.0947 52.0221 31.0947C52.0213 31.0947 52.0204 31.0947 52.0195 31.0947C52.019 31.0947 52.0183 31.0947 52.018 31.0947C52.0172 31.0947 52.0164 31.0947 52.0156 25.0947C52.0148 19.0947 52.014 19.0947 52.0131 19.0947C52.0128 19.0947 52.0119 19.0947 52.0113 19.0947C52.0101 19.0947 52.0088 19.0947 52.0074 19.0947C52.0046 19.0947 52.0015 19.0947 51.9981 19.0947C51.9914 19.0948 51.9834 19.0948 51.9743 19.0948C51.956 19.0949 51.933 19.0951 51.9057 19.0953C51.8509 19.0958 51.7782 19.0968 51.6897 19.0985C51.5132 19.102 51.2709 19.1086 50.9805 19.1215C50.4084 19.1469 49.6065 19.1983 48.7275 19.3056C47.8766 19.4094 46.7947 19.5842 45.7196 19.9005C44.8293 20.1624 43.0794 20.7566 41.6529 22.1831L45.8955 26.4258ZM52.0156 25.0947L58.0156 25.0943C58.0153 20.9434 55.3992 18.2803 53.9611 17.0991C53.1485 16.4316 52.3671 15.9467 51.8019 15.6304C51.5124 15.4685 51.2614 15.3406 51.0672 15.2465C50.9697 15.1992 50.8851 15.1598 50.8158 15.1283C50.7811 15.1125 50.7501 15.0986 50.723 15.0867C50.7095 15.0807 50.6969 15.0752 50.6854 15.0702C50.6796 15.0676 50.6741 15.0653 50.6688 15.063C50.6662 15.0618 50.6636 15.0607 50.6611 15.0596C50.6598 15.0591 50.658 15.0583 50.6574 15.058C50.6555 15.0573 50.6537 15.0565 48.29 20.5713C45.9263 26.0861 45.9246 26.0853 45.9228 26.0846C45.9222 26.0843 45.9205 26.0836 45.9193 26.0831C45.9171 26.0821 45.9148 26.0811 45.9126 26.0802C45.9083 26.0783 45.9041 26.0765 45.9001 26.0748C45.8921 26.0713 45.8849 26.0681 45.8784 26.0653C45.8654 26.0595 45.8553 26.055 45.8479 26.0516C45.8332 26.0449 45.8287 26.0427 45.833 26.0448C45.8425 26.0494 45.8826 26.0691 45.9423 26.1026C46.0757 26.1772 46.2256 26.2743 46.3444 26.3719C46.769 26.7207 46.0157 26.3193 46.0156 25.0952L52.0156 25.0947Z" fill="white" mask="url(#path-1-outside-1_1347_13517)"/>
<path d="M138.229 121.948C138.229 126.323 139.574 130.519 141.969 133.613C144.364 136.707 147.613 138.445 151 138.445C154.388 138.445 157.636 136.707 160.031 133.613C162.427 130.519 163.772 126.323 163.772 121.948C163.772 117.573 162.427 113.377 160.031 110.283C157.636 107.189 154.388 105.451 151 105.451C147.613 105.451 144.364 107.189 141.969 110.283C139.574 113.377 138.229 117.573 138.229 121.948Z" fill="#4E8DCC"/>
<path d="M76.2305 131.793C76.2305 136.168 77.5761 140.364 79.9713 143.458C82.3664 146.552 85.615 148.29 89.0023 148.29C92.3896 148.29 95.6382 146.552 98.0334 143.458C100.429 140.364 101.774 136.168 101.774 131.793C101.774 127.418 100.429 123.222 98.0334 120.128C95.6382 117.034 92.3896 115.296 89.0023 115.296C85.615 115.296 82.3664 117.034 79.9713 120.128C77.5761 123.222 76.2305 127.418 76.2305 131.793Z" fill="#4E8DCC"/>
<path d="M146.211 104.919V166.65C146.211 174.1 149.67 174.898 153.927 174.898C158.185 174.898 161.644 174.366 161.644 166.65V104.919H146.211Z" fill="#4E8DCC"/>
<path d="M163.77 180.22H144.346L146.208 166.65C146.208 166.65 148.337 163.989 153.925 163.989C159.512 163.989 161.641 166.65 161.641 166.65L163.77 180.22Z" fill="#276288"/>
<path d="M81.2861 104.919V166.65C81.2861 174.1 84.7452 174.898 89.0025 174.898C93.2597 174.898 96.7188 174.366 96.7188 166.65V104.919H81.2861Z" fill="#4E8DCC"/>
<path d="M98.8447 180.22H79.4209L81.2835 166.65C81.2835 166.65 83.4121 163.989 88.9998 163.989C94.5875 163.989 96.7161 166.65 96.7161 166.65L98.8447 180.22Z" fill="#276288"/>
<path d="M156.054 104.919V166.65C156.054 174.1 159.513 174.898 163.77 174.898C168.027 174.898 171.486 174.366 171.486 166.65V104.919H156.054Z" fill="#7AB9F8"/>
<path d="M173.617 180.22H154.193L156.056 166.65C156.056 166.65 158.185 163.989 163.772 163.989C169.626 163.989 171.489 166.65 171.489 166.65L173.617 180.22Z" fill="#4E8DCC"/>
<path d="M175.744 125.94C176.276 113.168 166.697 100.662 166.697 100.396L168.56 99.0654C169.092 99.5976 178.671 112.369 178.139 125.94H175.744Z" fill="#7AB9F8"/>
<path d="M176.807 118.755C174.944 121.948 173.88 124.875 173.614 127.27C173.88 129.398 175.21 131.793 176.807 134.188C178.669 130.995 179.733 128.068 180 125.673C179.733 123.544 178.403 121.15 176.807 118.755ZM171.751 110.773C173.081 126.205 139.821 131.793 114.544 131.793C81.816 131.793 59.1992 77.2465 65.8512 86.5593C74.8979 99.0651 81.2838 80.4395 88.468 78.0447C104.167 72.7231 117.471 78.3108 133.968 79.9073C154.722 81.7699 171.751 93.7435 171.751 110.773Z" fill="#7AB9F8"/>
<path d="M145.411 83.1005C134.767 51.1709 102.838 51.1709 86.873 83.1005H145.411Z" fill="#7AB9F8"/>
<path d="M91.1299 104.919V166.65C91.1299 174.1 94.5889 174.898 98.8462 174.898C103.103 174.898 106.563 174.366 106.563 166.65V104.919H91.1299Z" fill="#7AB9F8"/>
<path d="M108.428 180.22H89.0039L90.8665 166.65C90.8665 166.65 92.9951 163.989 98.5828 163.989C104.437 163.989 106.299 166.65 106.299 166.65L108.428 180.22Z" fill="#4E8DCC"/>
<path d="M34.9875 52.2355C48.0254 57.8232 53.081 52.5016 53.081 52.5016C28.3355 81.2383 41.9056 165.32 90.0661 121.949C147.539 70.329 96.7181 100.396 88.4696 100.396C80.2211 100.396 58.1365 98.2674 73.5691 59.1536C88.7357 20.0398 52.2827 32.0135 35.2536 32.8117C26.2069 33.3439 26.2069 38.9315 21.9496 41.3263C19.5549 42.9227 20.6192 44.5192 22.2157 44.7853V45.8496C19.2888 47.4461 21.1513 52.2355 24.3443 51.4373C29.932 49.8408 32.8589 51.4373 34.9875 52.2355Z" fill="#7AB9F8"/>
<path d="M53.0824 52.502C27.5387 79.11 40.3106 161.595 85.8103 125.408C49.8895 140.841 44.834 63.4112 53.0824 52.502Z" fill="#D7E8FC"/>
<path d="M86.0732 134.188C86.0732 138.564 87.4188 142.76 89.814 145.853C92.2092 148.947 95.4578 150.685 98.8451 150.685C102.232 150.685 105.481 148.947 107.876 145.853C110.271 142.76 111.617 138.564 111.617 134.188C111.617 129.813 110.271 125.617 107.876 122.523C105.481 119.429 102.232 117.691 98.8451 117.691C95.4578 117.691 92.2092 119.429 89.814 122.523C87.4188 125.617 86.0732 129.813 86.0732 134.188Z" fill="#7AB9F8"/>
<path d="M146.206 119.82C146.206 124.195 147.552 128.392 149.947 131.485C152.342 134.579 155.591 136.317 158.978 136.317C162.365 136.317 165.614 134.579 168.009 131.485C170.404 128.392 171.75 124.195 171.75 119.82C171.75 115.445 170.404 111.249 168.009 108.155C165.614 105.061 162.365 103.323 158.978 103.323C155.591 103.323 152.342 105.061 149.947 108.155C147.552 111.249 146.206 115.445 146.206 119.82Z" fill="#7AB9F8"/>
<path d="M75.9624 37.8671C72.2373 30.1508 58.6672 20.0398 48.2901 20.5719C48.2901 20.5719 52.0152 22.1684 52.0152 25.0953C52.0152 25.0953 47.2258 25.0953 45.8954 26.4257C49.6205 27.49 50.1527 29.0865 50.1527 29.0865C50.1527 29.0865 47.2258 28.2882 44.8311 30.4169C48.5562 30.4169 48.5562 31.2151 53.3456 34.142C57.869 37.0689 75.9624 37.8671 75.9624 37.8671Z" fill="#7AB9F8"/>
<path d="M27.535 38.3993C27.801 38.6653 28.8654 38.3993 29.9297 37.601C30.994 36.8028 31.7923 36.0045 31.5262 35.7385C31.2601 35.4724 30.1958 35.7385 29.1315 36.5367C28.0671 37.0689 27.2689 38.1332 27.535 38.3993Z" fill="#4E8DCC"/>
<path d="M64.5246 36.005C65.3229 34.9407 71.9749 33.3442 75.4339 33.0781C79.159 33.0781 75.9661 41.0605 69.8462 42.1249C63.7264 43.1892 63.7264 37.3354 64.5246 36.005Z" fill="#4E8DCC"/>
<path d="M65.5883 37.8674C66.1205 36.8031 71.4421 35.4727 74.1029 35.4727C76.7637 35.4727 74.369 42.1247 69.8456 43.189C65.3223 43.9872 64.7901 38.9317 65.5883 37.8674Z" fill="#7AB9F8"/>
<path d="M53 45C56.3137 45 59 42.3137 59 39C59 35.6863 56.3137 33 53 33C49.6863 33 47 35.6863 47 39C47 42.3137 49.6863 45 53 45Z" fill="white"/>
<path d="M53.0009 42.1981C54.7672 42.1981 56.1991 40.7662 56.1991 38.9999C56.1991 37.2336 54.7672 35.8018 53.0009 35.8018C51.2346 35.8018 49.8027 37.2336 49.8027 38.9999C49.8027 40.7662 51.2346 42.1981 53.0009 42.1981Z" fill="#040000"/>
</svg>
