<svg width="200" height="200" viewBox="0 0 200 200" fill="none" xmlns="http://www.w3.org/2000/svg">
<mask id="path-1-outside-1_922_10079" maskUnits="userSpaceOnUse" x="36.2871" y="19.625" width="128" height="161" fill="black">
<rect fill="white" x="36.2871" y="19.625" width="128" height="161"/>
<path d="M157.713 161.75C157.713 165.032 156.409 168.179 154.088 170.5C151.767 172.821 148.62 174.125 145.338 174.125H54.6631C51.381 174.125 48.2329 172.821 45.9121 170.5C43.5915 168.179 42.2881 165.032 42.2881 161.75V71H157.713V161.75ZM133 25.625C134.094 25.625 135.143 26.0594 135.917 26.833C136.691 27.6066 137.125 28.656 137.125 29.75V36.0127H145.341C146.975 36.0081 148.595 36.3285 150.105 36.9551C151.616 37.5822 152.987 38.5039 154.139 39.666C155.29 40.828 156.199 42.2071 156.813 43.7236C157.402 45.1817 157.707 46.7389 157.712 48.3105C157.712 48.3362 157.713 48.3621 157.713 48.3877V70.8877H42.2881V58.7109C42.2879 58.7448 42.287 58.7786 42.2871 58.8125V48.1934C42.3066 46.6615 42.6114 45.1455 43.1865 43.7236C43.7999 42.2072 44.7089 40.828 45.8604 39.666C47.012 38.5039 48.3835 37.5822 49.8945 36.9551C51.4056 36.328 53.0262 36.0076 54.6621 36.0127H62.875V29.75C62.875 28.656 63.3094 27.6066 64.083 26.833C64.8566 26.0595 65.9061 25.625 67 25.625C68.0938 25.6251 69.1426 26.0597 69.916 26.833C70.6896 27.6066 71.125 28.656 71.125 29.75V36.0127H95.875V29.75C95.8947 28.6691 96.3379 27.6393 97.1094 26.8818C97.8808 26.1245 98.9189 25.7 100 25.7002C101.081 25.7001 102.119 26.1245 102.891 26.8818C103.662 27.6392 104.105 28.6692 104.125 29.75V36.0127H128.875V29.75C128.875 28.656 129.309 27.6066 130.083 26.833C130.857 26.0594 131.906 25.625 133 25.625Z"/>
</mask>
<path d="M157.713 161.75C157.713 165.032 156.409 168.179 154.088 170.5C151.767 172.821 148.62 174.125 145.338 174.125H54.6631C51.381 174.125 48.2329 172.821 45.9121 170.5C43.5915 168.179 42.2881 165.032 42.2881 161.75V71H157.713V161.75ZM133 25.625C134.094 25.625 135.143 26.0594 135.917 26.833C136.691 27.6066 137.125 28.656 137.125 29.75V36.0127H145.341C146.975 36.0081 148.595 36.3285 150.105 36.9551C151.616 37.5822 152.987 38.5039 154.139 39.666C155.29 40.828 156.199 42.2071 156.813 43.7236C157.402 45.1817 157.707 46.7389 157.712 48.3105C157.712 48.3362 157.713 48.3621 157.713 48.3877V70.8877H42.2881V58.7109C42.2879 58.7448 42.287 58.7786 42.2871 58.8125V48.1934C42.3066 46.6615 42.6114 45.1455 43.1865 43.7236C43.7999 42.2072 44.7089 40.828 45.8604 39.666C47.012 38.5039 48.3835 37.5822 49.8945 36.9551C51.4056 36.328 53.0262 36.0076 54.6621 36.0127H62.875V29.75C62.875 28.656 63.3094 27.6066 64.083 26.833C64.8566 26.0595 65.9061 25.625 67 25.625C68.0938 25.6251 69.1426 26.0597 69.916 26.833C70.6896 27.6066 71.125 28.656 71.125 29.75V36.0127H95.875V29.75C95.8947 28.6691 96.3379 27.6393 97.1094 26.8818C97.8808 26.1245 98.9189 25.7 100 25.7002C101.081 25.7001 102.119 26.1245 102.891 26.8818C103.662 27.6392 104.105 28.6692 104.125 29.75V36.0127H128.875V29.75C128.875 28.656 129.309 27.6066 130.083 26.833C130.857 26.0594 131.906 25.625 133 25.625Z" fill="#276288"/>
<path d="M157.713 161.75L163.713 161.75V161.75H157.713ZM154.088 170.5L158.331 174.743L158.331 174.743L154.088 170.5ZM145.338 174.125L145.338 180.125L145.338 180.125L145.338 174.125ZM45.9121 170.5L41.6694 174.743L41.6695 174.743L45.9121 170.5ZM42.2881 161.75L36.2881 161.75L36.2881 161.75L42.2881 161.75ZM42.2881 71V65C38.9744 65 36.2881 67.6863 36.2881 71H42.2881ZM157.713 71H163.713C163.713 67.6863 161.027 65 157.713 65V71ZM133 25.625L133 19.625L133 19.625L133 25.625ZM135.917 26.833L140.16 22.5904L140.16 22.5904L135.917 26.833ZM137.125 29.75H131.125H137.125ZM137.125 36.0127H131.125C131.125 39.3264 133.811 42.0127 137.125 42.0127V36.0127ZM145.341 36.0127V42.0127C145.346 42.0127 145.352 42.0127 145.358 42.0127L145.341 36.0127ZM150.105 36.9551L152.405 31.4134L152.404 31.4134L150.105 36.9551ZM154.139 39.666L158.401 35.4427L158.4 35.4426L154.139 39.666ZM156.813 43.7236L162.375 41.4739L162.375 41.4737L156.813 43.7236ZM157.712 48.3105L151.712 48.3297C151.712 48.3357 151.712 48.3418 151.712 48.3478L157.712 48.3105ZM157.713 70.8877V76.8877C161.027 76.8877 163.713 74.2014 163.713 70.8877H157.713ZM42.2881 70.8877H36.2881C36.2881 74.2014 38.9744 76.8877 42.2881 76.8877V70.8877ZM42.2881 58.7109H48.2881C48.2881 55.4033 45.6113 52.7195 42.3037 52.711C38.996 52.7024 36.3053 55.3722 36.2882 58.6798L42.2881 58.7109ZM42.2871 58.8125L36.2871 58.8308C36.2972 62.1409 38.9861 64.8175 42.2962 64.8125C45.6064 64.8075 48.2871 62.1226 48.2871 58.8125L42.2871 58.8125ZM42.2871 48.1934L36.2876 48.1172C36.2873 48.1426 36.2871 48.168 36.2871 48.1934L42.2871 48.1934ZM43.1865 43.7236L37.6243 41.4737L37.6243 41.4739L43.1865 43.7236ZM45.8604 39.666L41.5986 35.4426L41.5985 35.4427L45.8604 39.666ZM49.8945 36.9551L47.5946 31.4134L47.5945 31.4134L49.8945 36.9551ZM54.6621 36.0127L54.6434 42.0127C54.6497 42.0127 54.6559 42.0127 54.6621 42.0127L54.6621 36.0127ZM62.875 36.0127V42.0127C66.1887 42.0127 68.875 39.3264 68.875 36.0127H62.875ZM62.875 29.75L68.875 29.75L62.875 29.75ZM64.083 26.833L59.8406 22.5901L59.8404 22.5904L64.083 26.833ZM67 25.625L67.0007 19.625H67V25.625ZM69.916 26.833L74.1587 22.5904L74.1584 22.5901L69.916 26.833ZM71.125 36.0127H65.125C65.125 39.3264 67.8113 42.0127 71.125 42.0127V36.0127ZM95.875 36.0127V42.0127C99.1887 42.0127 101.875 39.3264 101.875 36.0127H95.875ZM95.875 29.75L89.876 29.6408C89.8753 29.6772 89.875 29.7136 89.875 29.75L95.875 29.75ZM97.1094 26.8818L92.906 22.6003L92.9058 22.6005L97.1094 26.8818ZM100 25.7002L99.999 31.7002L100 31.7002L100 25.7002ZM102.891 26.8818L107.095 22.601L107.094 22.6005L102.891 26.8818ZM104.125 29.75H110.125C110.125 29.7136 110.125 29.6772 110.124 29.6408L104.125 29.75ZM104.125 36.0127H98.125C98.125 39.3264 100.811 42.0127 104.125 42.0127V36.0127ZM128.875 36.0127V42.0127C132.189 42.0127 134.875 39.3264 134.875 36.0127H128.875ZM128.875 29.75L134.875 29.75L128.875 29.75ZM130.083 26.833L125.84 22.5904L125.84 22.5905L130.083 26.833ZM157.713 161.75L151.713 161.75C151.713 163.44 151.041 165.061 149.845 166.257L154.088 170.5L158.331 174.743C161.776 171.297 163.713 166.624 163.713 161.75L157.713 161.75ZM154.088 170.5L149.845 166.257C148.649 167.453 147.028 168.125 145.338 168.125L145.338 174.125L145.338 180.125C150.212 180.125 154.885 178.188 158.331 174.743L154.088 170.5ZM145.338 174.125V168.125H54.6631V174.125V180.125H145.338V174.125ZM54.6631 174.125V168.125C52.9726 168.125 51.3505 167.453 50.1548 166.257L45.9121 170.5L41.6695 174.743C45.1153 178.188 49.7895 180.125 54.6631 180.125V174.125ZM45.9121 170.5L50.1548 166.257C48.9596 165.062 48.2881 163.441 48.2881 161.75L42.2881 161.75L36.2881 161.75C36.2881 166.623 38.2234 171.296 41.6694 174.743L45.9121 170.5ZM42.2881 161.75H48.2881V71H42.2881H36.2881V161.75H42.2881ZM42.2881 71V77H157.713V71V65H42.2881V71ZM157.713 71H151.713V161.75H157.713H163.713V71H157.713ZM133 25.625V31.625C132.504 31.625 132.027 31.4279 131.674 31.0756L135.917 26.833L140.16 22.5904C138.26 20.6909 135.684 19.625 133 19.625V25.625ZM135.917 26.833L131.674 31.0756C131.322 30.7234 131.125 30.2465 131.125 29.75L137.125 29.75L143.125 29.75C143.125 27.0656 142.059 24.4898 140.16 22.5904L135.917 26.833ZM137.125 29.75H131.125V36.0127H137.125H143.125V29.75H137.125ZM137.125 36.0127V42.0127H145.341V36.0127V30.0127H137.125V36.0127ZM145.341 36.0127L145.358 42.0127C146.197 42.0103 147.029 42.1748 147.805 42.4968L150.105 36.9551L152.404 31.4134C150.16 30.4821 147.754 30.0059 145.324 30.0127L145.341 36.0127ZM150.105 36.9551L147.804 42.4967C148.581 42.8188 149.285 43.2923 149.877 43.8894L154.139 39.666L158.4 35.4426C156.689 33.7155 154.651 32.3457 152.405 31.4134L150.105 36.9551ZM154.139 39.666L149.877 43.8893C150.469 44.4865 150.935 45.1949 151.25 45.9736L156.813 43.7236L162.375 41.4737C161.463 39.2194 160.112 37.1695 158.401 35.4427L154.139 39.666ZM156.813 43.7236L151.25 45.9734C151.553 46.7207 151.709 47.5206 151.712 48.3297L157.712 48.3105L163.712 48.2914C163.704 45.9571 163.252 43.6428 162.375 41.4739L156.813 43.7236ZM157.712 48.3105L151.712 48.3478C151.712 48.3791 151.713 48.4053 151.713 48.4222C151.713 48.4308 151.713 48.4382 151.713 48.4432C151.713 48.4458 151.713 48.4481 151.713 48.4497C151.713 48.4516 151.713 48.4526 151.713 48.4536C151.713 48.4582 151.713 48.4519 151.713 48.4422C151.713 48.4318 151.713 48.4126 151.713 48.3877H157.713H163.713C163.713 48.35 163.713 48.3179 163.712 48.2946C163.712 48.2721 163.712 48.2529 163.712 48.2446C163.711 48.232 163.711 48.2359 163.711 48.2374C163.711 48.2414 163.712 48.2548 163.712 48.2733L157.712 48.3105ZM157.713 48.3877H151.713V70.8877H157.713H163.713V48.3877H157.713ZM157.713 70.8877V64.8877H42.2881V70.8877V76.8877H157.713V70.8877ZM42.2881 70.8877H48.2881V58.7109H42.2881H36.2881V70.8877H42.2881ZM42.2881 58.7109L36.2882 58.6798C36.2882 58.6733 36.2883 58.6683 36.2883 58.665C36.2883 58.6618 36.2883 58.6599 36.2883 58.6599C36.2883 58.6598 36.2883 58.6601 36.2883 58.6609C36.2883 58.6617 36.2883 58.6627 36.2883 58.6643C36.2883 58.666 36.2881 58.6735 36.2881 58.6784C36.2878 58.6987 36.2869 58.7592 36.2871 58.8308L42.2871 58.8125L48.2871 58.7942C48.2872 58.8151 48.287 58.8308 48.287 58.8389C48.2869 58.8463 48.2868 58.8504 48.2869 58.845C48.287 58.8415 48.287 58.8405 48.2871 58.8337C48.2872 58.8286 48.2873 58.8211 48.2874 58.8128C48.2876 58.7963 48.2879 58.7714 48.288 58.7421L42.2881 58.7109ZM42.2871 58.8125H48.2871V48.1934H42.2871H36.2871V58.8125H42.2871ZM42.2871 48.1934L48.2866 48.2695C48.2966 47.4832 48.4531 46.7043 48.7488 45.9734L43.1865 43.7236L37.6243 41.4739C36.7697 43.5867 36.3165 45.8398 36.2876 48.1172L42.2871 48.1934ZM43.1865 43.7236L48.7487 45.9735C49.0636 45.195 49.5305 44.4865 50.1223 43.8893L45.8604 39.666L41.5985 35.4427C39.8874 37.1695 38.5362 39.2193 37.6243 41.4737L43.1865 43.7236ZM45.8604 39.666L50.1222 43.8894C50.7139 43.2923 51.4185 42.8188 52.1946 42.4967L49.8945 36.9551L47.5945 31.4134C45.3484 32.3457 43.3101 33.7155 41.5986 35.4426L45.8604 39.666ZM49.8945 36.9551L52.1945 42.4968C52.9708 42.1746 53.8032 42.0101 54.6434 42.0127L54.6621 36.0127L54.6808 30.0127C52.2491 30.0052 49.8403 30.4814 47.5946 31.4134L49.8945 36.9551ZM54.6621 36.0127V42.0127H62.875V36.0127V30.0127H54.6621V36.0127ZM62.875 36.0127H68.875V29.75H62.875H56.875V36.0127H62.875ZM62.875 29.75L68.875 29.75C68.875 30.2463 68.6779 30.7234 68.3257 31.0756L64.083 26.833L59.8404 22.5904C57.9409 24.4898 56.875 27.0656 56.875 29.75L62.875 29.75ZM64.083 26.833L68.3254 31.0759C67.9734 31.4279 67.4967 31.625 67 31.625V25.625V19.625C64.3154 19.625 61.7398 20.6912 59.8406 22.5901L64.083 26.833ZM67 25.625L66.9993 31.625C66.5019 31.6249 66.0251 31.4273 65.6737 31.0759L69.916 26.833L74.1584 22.5901C72.2601 20.692 69.6856 19.6253 67.0007 19.625L67 25.625ZM69.916 26.833L65.6734 31.0756C65.3237 30.7259 65.125 30.25 65.125 29.75H71.125H77.125C77.125 27.062 76.0556 24.4873 74.1587 22.5904L69.916 26.833ZM71.125 29.75H65.125V36.0127H71.125H77.125V29.75H71.125ZM71.125 36.0127V42.0127H95.875V36.0127V30.0127H71.125V36.0127ZM95.875 36.0127H101.875V29.75H95.875H89.875V36.0127H95.875ZM95.875 29.75L101.874 29.8592C101.865 30.3508 101.663 30.8191 101.313 31.1632L97.1094 26.8818L92.9058 22.6005C91.0125 24.4594 89.9243 26.9873 89.876 29.6408L95.875 29.75ZM97.1094 26.8818L101.313 31.1634C100.963 31.5072 100.491 31.7003 99.999 31.7002L100 25.7002L100.001 19.7002C97.3468 19.6998 94.7992 20.7417 92.906 22.6003L97.1094 26.8818ZM100 25.7002L100 31.7002C99.5094 31.7002 99.038 31.5077 98.6871 31.1632L102.891 26.8818L107.094 22.6005C105.201 20.7413 102.653 19.7001 99.9997 19.7002L100 25.7002ZM102.891 26.8818L98.6866 31.1627C98.3368 30.8192 98.135 30.3515 98.126 29.8592L104.125 29.75L110.124 29.6408C110.076 26.9869 108.987 24.4592 107.095 22.601L102.891 26.8818ZM104.125 29.75H98.125V36.0127H104.125H110.125V29.75H104.125ZM104.125 36.0127V42.0127H128.875V36.0127V30.0127H104.125V36.0127ZM128.875 36.0127H134.875V29.75H128.875H122.875V36.0127H128.875ZM128.875 29.75L134.875 29.75C134.875 30.2465 134.678 30.7234 134.326 31.0756L130.083 26.833L125.84 22.5905C123.941 24.4898 122.875 27.0655 122.875 29.75L128.875 29.75ZM130.083 26.833L134.326 31.0756C133.973 31.4279 133.496 31.625 133 31.625L133 25.625L133 19.625C130.316 19.625 127.74 20.6909 125.84 22.5904L130.083 26.833Z" fill="white" mask="url(#path-1-outside-1_922_10079)"/>
<path d="M42.2876 145.25H157.713V161.75C157.713 165.032 156.409 168.18 154.088 170.5C151.767 172.821 148.62 174.125 145.338 174.125H54.6626C51.3805 174.125 48.2329 172.821 45.9122 170.5C43.5914 168.18 42.2876 165.032 42.2876 161.75V145.25Z" fill="#91B5DD"/>
<path d="M42.2876 137H157.713V153.5C157.713 156.782 156.409 159.93 154.088 162.251C151.767 164.571 148.62 165.875 145.338 165.875H54.6626C51.3805 165.875 48.2329 164.571 45.9122 162.251C43.5914 159.93 42.2876 156.782 42.2876 153.5V137Z" fill="#B6CDE7"/>
<path d="M42.2876 71.0001H157.713V145.25C157.713 148.532 156.409 151.68 154.088 154.001C151.767 156.321 148.62 157.625 145.338 157.625H54.6626C51.3805 157.625 48.2329 156.321 45.9122 154.001C43.5914 151.68 42.2876 148.532 42.2876 145.25V71.0001Z" fill="#D7E8FC"/>
<path d="M54.6631 36.0125H145.338C148.62 36.0125 151.768 37.3162 154.089 39.637C156.409 41.9578 157.713 45.1054 157.713 48.3875V70.8875H42.2881V48.4999C42.2732 46.8654 42.5824 45.2441 43.1976 43.7297C43.8129 42.2153 44.722 40.8378 45.8726 39.6767C47.0233 38.5156 48.3925 37.594 49.9013 36.9651C51.4101 36.3362 53.0285 36.0124 54.6631 36.0125Z" fill="#276288"/>
<path d="M145.337 36.0125H54.662C53.026 36.0074 51.4053 36.3278 49.8942 36.9549C48.3832 37.5821 47.0119 38.5035 45.8603 39.6656C44.7087 40.8277 43.7997 42.2072 43.1863 43.7239C42.5728 45.2405 42.2671 46.8641 42.287 48.5V58.8125C42.2821 57.186 42.5988 55.5746 43.219 54.071C43.8391 52.5673 44.7504 51.2011 45.9006 50.051C47.0507 48.9009 48.4168 47.9896 49.9205 47.3694C51.4241 46.7493 53.0356 46.4326 54.662 46.4375H145.337C146.964 46.4326 148.575 46.7493 150.079 47.3694C151.582 47.9896 152.948 48.9009 154.099 50.051C155.249 51.2011 156.16 52.5673 156.78 54.071C157.4 55.5746 157.717 57.186 157.712 58.8125V48.5C157.732 46.8641 157.426 45.2405 156.813 43.7239C156.199 42.2072 155.29 40.8277 154.139 39.6656C152.987 38.5035 151.616 37.5821 150.105 36.9549C148.594 36.3278 146.973 36.0074 145.337 36.0125Z" fill="#4D8DCB"/>
<path d="M66.9995 46.3249C65.9085 46.3151 64.865 45.8774 64.0935 45.1059C63.322 44.3344 62.8843 43.2909 62.8745 42.1999V29.7499C62.8745 28.6559 63.3091 27.6067 64.0827 26.8331C64.8563 26.0595 65.9055 25.6249 66.9995 25.6249C68.0935 25.6249 69.1427 26.0595 69.9163 26.8331C70.6899 27.6067 71.1245 28.6559 71.1245 29.7499V42.1249C71.1345 42.6729 71.0351 43.2173 70.8323 43.7265C70.6295 44.2356 70.3272 44.6993 69.9432 45.0903C69.5591 45.4813 69.101 45.7919 68.5956 46.0039C68.0902 46.2158 67.5476 46.325 66.9995 46.3249Z" fill="#BEDBFE"/>
<path d="M99.9995 46.3251C99.4578 46.3251 98.9214 46.2184 98.4209 46.0111C97.9205 45.8038 97.4657 45.4999 97.0827 45.1169C96.6997 44.7338 96.3958 44.2791 96.1885 43.7786C95.9812 43.2782 95.8745 42.7418 95.8745 42.2001V29.7501C95.8942 28.6691 96.3374 27.6391 97.1089 26.8816C97.8804 26.1242 98.9184 25.6999 99.9995 25.7001C101.081 25.6999 102.119 26.1242 102.89 26.8816C103.662 27.6391 104.105 28.6691 104.125 29.7501V42.1251C104.134 42.6731 104.035 43.2175 103.832 43.7267C103.629 44.2358 103.327 44.6995 102.943 45.0905C102.559 45.4815 102.101 45.7921 101.596 46.0041C101.09 46.216 100.548 46.3252 99.9995 46.3251Z" fill="#BEDBFE"/>
<path d="M133 46.3249C132.458 46.3249 131.922 46.2182 131.421 46.0109C130.921 45.8036 130.466 45.4997 130.083 45.1167C129.7 44.7337 129.396 44.2789 129.189 43.7784C128.982 43.278 128.875 42.7416 128.875 42.1999V29.7499C128.875 28.6559 129.31 27.6067 130.083 26.8331C130.857 26.0595 131.906 25.6249 133 25.6249C134.094 25.6249 135.143 26.0595 135.917 26.8331C136.69 27.6067 137.125 28.6559 137.125 29.7499V42.1249C137.13 42.6715 137.027 43.2138 136.823 43.7207C136.618 44.2276 136.315 44.6892 135.932 45.0792C135.549 45.4693 135.093 45.78 134.59 45.9937C134.087 46.2074 133.547 46.32 133 46.3249Z" fill="#BEDBFE"/>
<path d="M66.9995 25.7001C65.9184 25.6999 64.8804 26.1242 64.1089 26.8816C63.3374 27.6391 62.8942 28.6691 62.8745 29.7501V36.0126C62.8745 34.9186 63.3091 33.8693 64.0827 33.0958C64.8563 32.3222 65.9055 31.8876 66.9995 31.8876C68.0935 31.8876 69.1427 32.3222 69.9163 33.0958C70.6899 33.8693 71.1245 34.9186 71.1245 36.0126V29.7501C71.1049 28.6691 70.6616 27.6391 69.8901 26.8816C69.1187 26.1242 68.0807 25.6999 66.9995 25.7001Z" fill="#D7E8FC"/>
<path d="M99.9995 25.7001C98.9184 25.6999 97.8804 26.1242 97.1089 26.8816C96.3374 27.6391 95.8942 28.6691 95.8745 29.7501V36.0126C95.8745 34.9186 96.3091 33.8693 97.0827 33.0958C97.8563 32.3222 98.9055 31.8876 99.9995 31.8876C101.094 31.8876 102.143 32.3222 102.916 33.0958C103.69 33.8693 104.125 34.9186 104.125 36.0126V29.7501C104.105 28.6691 103.662 27.6391 102.89 26.8816C102.119 26.1242 101.081 25.6999 99.9995 25.7001Z" fill="#D7E8FC"/>
<path d="M133 25.7001C131.919 25.6999 130.881 26.1242 130.109 26.8816C129.338 27.6391 128.895 28.6691 128.875 29.7501V36.0126C128.875 34.9186 129.31 33.8693 130.083 33.0958C130.857 32.3222 131.906 31.8876 133 31.8876C134.094 31.8876 135.143 32.3222 135.917 33.0958C136.69 33.8693 137.125 34.9186 137.125 36.0126V29.7501C137.105 28.6691 136.662 27.6391 135.891 26.8816C135.119 26.1242 134.081 25.6999 133 25.7001Z" fill="#D7E8FC"/>
<path d="M74.5964 131.788V98.0375H70.6214C69.9784 98.0866 69.3328 97.987 68.7345 97.7464C68.1362 97.5058 67.6014 97.1306 67.1714 96.65C66.3981 95.7265 65.9852 94.5543 66.0089 93.35C65.9687 92.692 66.0646 92.0327 66.2904 91.4134C66.5162 90.794 66.8672 90.2278 67.3214 89.75C67.7484 89.2861 68.2718 88.9214 68.8549 88.6817C69.4381 88.442 70.0666 88.333 70.6964 88.3625H80.2964C80.9138 88.3339 81.5302 88.436 82.1054 88.6622C82.6806 88.8884 83.2014 89.2335 83.6339 89.675C84.455 90.6471 84.883 91.891 84.8339 93.1625V131.788C84.8741 133.177 84.3616 134.525 83.4089 135.538C82.909 136.006 82.3184 136.368 81.6735 136.6C81.0286 136.832 80.343 136.93 79.6589 136.888C78.9717 136.93 78.2833 136.828 77.6376 136.589C76.9919 136.35 76.4031 135.979 75.9089 135.5C75.455 134.999 75.1052 134.413 74.8799 133.776C74.6546 133.138 74.5582 132.462 74.5964 131.788Z" fill="#276288"/>
<path d="M102.902 129.875L119.814 97.8501H102.452C101.767 97.9019 101.078 97.8085 100.432 97.5758C99.786 97.3432 99.1962 96.9766 98.7015 96.5001C98.0175 95.8186 97.5605 94.9425 97.3932 93.9916C97.2259 93.0406 97.3563 92.0612 97.7666 91.1871C98.177 90.3131 98.8472 89.5871 99.6858 89.1084C100.524 88.6297 101.49 88.4216 102.452 88.5126H126.902C127.612 88.4439 128.328 88.5556 128.983 88.8375C129.639 89.1194 130.213 89.5623 130.652 90.1251C131.414 91.0457 131.849 92.1931 131.889 93.3876C131.889 94.0593 131.749 94.7236 131.477 95.3376C131.147 96.1947 130.771 97.0334 130.352 97.8501L113.552 131.938C113.05 133.045 112.46 134.111 111.789 135.125C111.404 135.731 110.876 136.233 110.252 136.588C109.181 137.018 108.011 137.145 106.873 136.953C105.735 136.761 104.672 136.258 103.802 135.5C103.342 135.093 102.969 134.598 102.705 134.044C102.441 133.49 102.291 132.888 102.264 132.275C102.284 131.436 102.503 130.614 102.902 129.875Z" fill="#276288"/>
</svg>
