<svg width="200" height="200" viewBox="0 0 200 200" fill="none" xmlns="http://www.w3.org/2000/svg">
<mask id="path-1-outside-1_1347_15238" maskUnits="userSpaceOnUse" x="22" y="77" width="107" height="107" fill="black">
<rect fill="white" x="22" y="77" width="107" height="107"/>
<path d="M122.867 82.0645C124.057 81.7145 125.177 82.8347 124.862 84.0596L117.969 109.746C117.654 110.971 116.148 111.355 115.273 110.48L108.318 103.525L101.234 110.609C104.499 114.105 107.003 118.139 108.661 122.657L108.665 122.658C111.045 129.027 111.535 136.027 109.925 142.956C108.474 149.205 109.804 155.63 113.493 160.702L113.864 160.334C114.548 159.652 115.656 159.653 116.339 160.338C117.021 161.022 117.018 162.13 116.334 162.812L115.771 163.372L115.775 163.37C118.389 166.033 118.373 170.302 115.729 172.946C113.08 175.596 108.798 175.606 106.137 172.978L106.141 172.972L105.73 173.381C105.046 174.063 103.939 174.061 103.257 173.377C102.574 172.692 102.576 171.584 103.261 170.902L103.781 170.383C96.7854 161.896 94.1257 150.711 96.6611 139.841C97.6759 135.572 97.3615 131.267 95.9268 127.348L95.9395 127.329L95.8896 127.348C94.9307 124.687 93.4783 122.301 91.6074 120.236L65.9883 145.855L63.5176 164.373C63.4512 164.97 63.2894 165.542 63.042 166.077L101.177 166.798C101.954 168.024 102.811 169.209 103.746 170.346L60.083 169.521L51.4795 178.126C49.0298 180.576 45.0403 180.576 42.5557 178.126C40.142 175.712 40.1075 171.805 42.4502 169.313C41.0861 170.261 39.1991 170.128 37.9834 168.912C36.6877 167.616 36.6212 165.557 37.7832 164.182L37.7744 164.187C37.7259 164.244 37.6789 164.302 37.6348 164.362L37.6338 164.316C35.1421 166.645 31.2458 166.607 28.8369 164.198C26.3873 161.714 26.3874 157.724 28.8369 155.274L37.3203 146.79L36.541 103.114C37.677 104.051 38.8615 104.909 40.0869 105.688L40.7666 143.76C41.3354 143.484 41.9538 143.307 42.5898 143.236L61.1934 140.752L86.6562 115.289C84.1421 113.02 81.1163 111.361 77.832 110.445V110.442L77.8301 110.445C74.4006 109.501 70.7254 109.396 67.0859 110.235C56.2728 112.758 45.147 110.139 36.6768 103.225L36.2754 102.892L35.7432 103.424C35.0599 104.107 33.9519 104.107 33.2686 103.424C32.5852 102.741 32.5852 101.633 33.2686 100.949L33.7158 100.501C31.329 97.8251 31.418 93.6958 33.9844 91.1631C36.5503 88.6309 40.6475 88.5418 43.3213 90.8955L43.8721 90.3457C44.5554 89.6626 45.6634 89.6625 46.3467 90.3457C47.0297 91.0289 47.0297 92.137 46.3467 92.8203L45.9521 93.2148L46.4355 93.5693C51.4749 97.1629 57.8089 98.4331 63.9717 96.9727C69.8858 95.6079 75.9049 95.7475 81.5391 97.3223V97.3506C87.0599 98.8715 92.1196 101.735 96.29 105.656L103.369 98.5762L96.4463 91.6533C95.5714 90.7784 95.9918 89.2739 97.1816 88.959L122.867 82.0645Z"/>
</mask>
<path d="M122.867 82.0645C124.057 81.7145 125.177 82.8347 124.862 84.0596L117.969 109.746C117.654 110.971 116.148 111.355 115.273 110.48L108.318 103.525L101.234 110.609C104.499 114.105 107.003 118.139 108.661 122.657L108.665 122.658C111.045 129.027 111.535 136.027 109.925 142.956C108.474 149.205 109.804 155.63 113.493 160.702L113.864 160.334C114.548 159.652 115.656 159.653 116.339 160.338C117.021 161.022 117.018 162.13 116.334 162.812L115.771 163.372L115.775 163.37C118.389 166.033 118.373 170.302 115.729 172.946C113.08 175.596 108.798 175.606 106.137 172.978L106.141 172.972L105.73 173.381C105.046 174.063 103.939 174.061 103.257 173.377C102.574 172.692 102.576 171.584 103.261 170.902L103.781 170.383C96.7854 161.896 94.1257 150.711 96.6611 139.841C97.6759 135.572 97.3615 131.267 95.9268 127.348L95.9395 127.329L95.8896 127.348C94.9307 124.687 93.4783 122.301 91.6074 120.236L65.9883 145.855L63.5176 164.373C63.4512 164.97 63.2894 165.542 63.042 166.077L101.177 166.798C101.954 168.024 102.811 169.209 103.746 170.346L60.083 169.521L51.4795 178.126C49.0298 180.576 45.0403 180.576 42.5557 178.126C40.142 175.712 40.1075 171.805 42.4502 169.313C41.0861 170.261 39.1991 170.128 37.9834 168.912C36.6877 167.616 36.6212 165.557 37.7832 164.182L37.7744 164.187C37.7259 164.244 37.6789 164.302 37.6348 164.362L37.6338 164.316C35.1421 166.645 31.2458 166.607 28.8369 164.198C26.3873 161.714 26.3874 157.724 28.8369 155.274L37.3203 146.79L36.541 103.114C37.677 104.051 38.8615 104.909 40.0869 105.688L40.7666 143.76C41.3354 143.484 41.9538 143.307 42.5898 143.236L61.1934 140.752L86.6562 115.289C84.1421 113.02 81.1163 111.361 77.832 110.445V110.442L77.8301 110.445C74.4006 109.501 70.7254 109.396 67.0859 110.235C56.2728 112.758 45.147 110.139 36.6768 103.225L36.2754 102.892L35.7432 103.424C35.0599 104.107 33.9519 104.107 33.2686 103.424C32.5852 102.741 32.5852 101.633 33.2686 100.949L33.7158 100.501C31.329 97.8251 31.418 93.6958 33.9844 91.1631C36.5503 88.6309 40.6475 88.5418 43.3213 90.8955L43.8721 90.3457C44.5554 89.6626 45.6634 89.6625 46.3467 90.3457C47.0297 91.0289 47.0297 92.137 46.3467 92.8203L45.9521 93.2148L46.4355 93.5693C51.4749 97.1629 57.8089 98.4331 63.9717 96.9727C69.8858 95.6079 75.9049 95.7475 81.5391 97.3223V97.3506C87.0599 98.8715 92.1196 101.735 96.29 105.656L103.369 98.5762L96.4463 91.6533C95.5714 90.7784 95.9918 89.2739 97.1816 88.959L122.867 82.0645Z" fill="#D3D3D3"/>
<path d="M122.867 82.0645L123.904 85.9277C123.935 85.9195 123.965 85.9109 123.996 85.9019L122.867 82.0645ZM124.862 84.0596L128.726 85.0964C128.729 85.0828 128.733 85.0693 128.736 85.0557L124.862 84.0596ZM117.969 109.746L114.105 108.709C114.102 108.723 114.098 108.736 114.095 108.749L117.969 109.746ZM115.273 110.48L112.445 113.309L115.273 110.48ZM108.318 103.525L111.147 100.697C109.585 99.1349 107.052 99.1349 105.49 100.697L108.318 103.525ZM101.234 110.609L98.4059 107.781C96.8815 109.305 96.8395 111.764 98.311 113.34L101.234 110.609ZM108.661 122.657L104.906 124.035C105.362 125.279 106.405 126.216 107.691 126.538L108.661 122.657ZM108.665 122.658L112.412 121.258C111.951 120.025 110.913 119.097 109.635 118.778L108.665 122.658ZM109.925 142.956L106.029 142.051L106.028 142.051L109.925 142.956ZM113.493 160.702L110.258 163.055C110.945 163.999 112.009 164.596 113.172 164.689C114.336 164.783 115.482 164.364 116.31 163.542L113.493 160.702ZM113.864 160.334L116.681 163.174L116.689 163.166L113.864 160.334ZM116.339 160.338L119.172 157.514L119.172 157.514L116.339 160.338ZM116.334 162.812L119.155 165.648L119.158 165.645L116.334 162.812ZM115.771 163.372L112.95 160.536C111.558 161.921 111.377 164.112 112.523 165.707C113.67 167.301 115.804 167.828 117.56 166.95L115.771 163.372ZM115.775 163.37L118.63 160.569C117.415 159.33 115.539 159.016 113.987 159.792L115.775 163.37ZM115.729 172.946L118.558 175.775L118.558 175.775L115.729 172.946ZM106.137 172.978L102.809 170.759C101.746 172.353 101.963 174.477 103.326 175.824L106.137 172.978ZM106.141 172.972L109.469 175.19C110.609 173.48 110.267 171.184 108.678 169.88C107.09 168.576 104.771 168.688 103.316 170.14L106.141 172.972ZM105.73 173.381L108.554 176.214L108.556 176.213L105.73 173.381ZM103.257 173.377L106.09 170.553L106.09 170.553L103.257 173.377ZM103.261 170.902L106.084 173.736L106.087 173.733L103.261 170.902ZM103.781 170.383L106.607 173.214C108.066 171.757 108.179 169.43 106.868 167.839L103.781 170.383ZM96.6611 139.841L92.7696 138.916C92.7683 138.921 92.767 138.927 92.7657 138.932L96.6611 139.841ZM95.9268 127.348L92.6255 125.089C91.8957 126.156 91.7262 127.509 92.1705 128.723L95.9268 127.348ZM95.9395 127.329L99.2407 129.588C100.225 128.149 100.164 126.238 99.0904 124.865C98.0164 123.492 96.1767 122.972 94.543 123.581L95.9395 127.329ZM95.8896 127.348L92.1267 128.704C92.4889 129.709 93.2381 130.527 94.2073 130.977C95.1764 131.426 96.285 131.469 97.2861 131.096L95.8896 127.348ZM91.6074 120.236L94.5718 117.551C93.8366 116.739 92.8008 116.265 91.706 116.238C90.6113 116.211 89.5533 116.634 88.779 117.408L91.6074 120.236ZM65.9883 145.855L63.1599 143.027C62.5389 143.648 62.1396 144.456 62.0234 145.326L65.9883 145.855ZM63.5176 164.373L59.5527 163.844C59.5488 163.873 59.5453 163.902 59.5421 163.931L63.5176 164.373ZM63.042 166.077L59.4116 164.398C58.8443 165.624 58.9345 167.054 59.6515 168.2C60.3685 169.345 61.6154 170.051 62.9664 170.076L63.042 166.077ZM101.177 166.798L104.555 164.656C103.836 163.522 102.595 162.824 101.252 162.799L101.177 166.798ZM103.746 170.346L103.671 174.345C105.231 174.374 106.666 173.493 107.346 172.088C108.027 170.683 107.827 169.011 106.836 167.806L103.746 170.346ZM60.083 169.521L60.1585 165.522C59.0716 165.502 58.0231 165.924 57.2544 166.693L60.083 169.521ZM51.4795 178.126L54.3079 180.954L54.3081 180.954L51.4795 178.126ZM42.5557 178.126L39.7272 180.954C39.7339 180.961 39.7406 180.968 39.7474 180.974L42.5557 178.126ZM42.4502 169.313L45.3641 172.054C46.7668 170.562 46.8167 168.252 45.4797 166.702C44.1428 165.151 41.8507 164.86 40.1689 166.028L42.4502 169.313ZM37.9834 168.912L35.1544 171.74L35.1551 171.741L37.9834 168.912ZM37.7832 164.182L40.8384 166.763C42.085 165.288 42.0995 163.133 40.8729 161.641C39.6463 160.149 37.5289 159.747 35.8406 160.685L37.7832 164.182ZM37.7744 164.187L35.8318 160.69C35.4063 160.926 35.0274 161.238 34.7139 161.611L37.7744 164.187ZM37.6348 164.362L33.6357 164.447C33.6721 166.159 34.7937 167.658 36.4255 168.175C38.0573 168.693 39.8376 168.114 40.8538 166.737L37.6348 164.362ZM37.6338 164.316L41.6329 164.231C41.5993 162.654 40.6416 161.243 39.1876 160.631C37.7337 160.018 36.0553 160.317 34.9025 161.394L37.6338 164.316ZM28.8369 164.198L25.9885 167.007C25.9951 167.013 26.0018 167.02 26.0085 167.027L28.8369 164.198ZM28.8369 155.274L31.6654 158.103L31.6655 158.103L28.8369 155.274ZM37.3203 146.79L40.1489 149.618C40.9164 148.851 41.339 147.804 41.3197 146.719L37.3203 146.79ZM36.541 103.114L39.0856 100.028C37.881 99.0348 36.2087 98.8333 34.8027 99.5117C33.3966 100.19 32.5138 101.625 32.5417 103.186L36.541 103.114ZM40.0869 105.688L44.0863 105.617C44.0623 104.274 43.3662 103.033 42.233 102.313L40.0869 105.688ZM40.7666 143.76L36.7672 143.831C36.7916 145.196 37.5102 146.454 38.6732 147.168C39.8363 147.883 41.2833 147.955 42.5115 147.359L40.7666 143.76ZM42.5898 143.236L43.0318 147.212C43.061 147.209 43.0902 147.205 43.1193 147.201L42.5898 143.236ZM61.1934 140.752L61.7228 144.717C62.5931 144.601 63.401 144.201 64.0218 143.58L61.1934 140.752ZM86.6562 115.289L89.4847 118.117C90.2599 117.342 90.683 116.283 90.6549 115.187C90.6269 114.091 90.1502 113.054 89.3363 112.32L86.6562 115.289ZM77.832 110.445H73.832C73.832 112.241 75.0282 113.816 76.7576 114.298L77.832 110.445ZM77.832 110.442H81.832C81.832 108.68 80.6782 107.125 78.9912 106.614C77.3041 106.103 75.4816 106.757 74.5038 108.224L77.832 110.442ZM77.8301 110.445L76.7677 114.302C78.4313 114.76 80.2011 114.1 81.1583 112.664L77.8301 110.445ZM67.0859 110.235L66.1866 106.338L66.1773 106.34L67.0859 110.235ZM36.6768 103.225L34.1227 106.303C34.1308 106.31 34.139 106.317 34.1472 106.323L36.6768 103.225ZM36.2754 102.892L38.8295 99.8132C37.2399 98.4943 34.9075 98.6026 33.447 100.063L36.2754 102.892ZM35.7432 103.424L32.9147 100.595L35.7432 103.424ZM33.2686 103.424L30.4402 106.252L30.4405 106.253L33.2686 103.424ZM33.2686 100.949L36.0969 103.778L36.1001 103.775L33.2686 100.949ZM33.7158 100.501L36.5473 103.326C38.044 101.826 38.1113 99.4196 36.7009 97.8384L33.7158 100.501ZM33.9844 91.1631L31.1747 88.316L31.1747 88.3161L33.9844 91.1631ZM43.3213 90.8955L40.6783 93.8979C42.2614 95.2915 44.6545 95.2165 46.1472 93.7264L43.3213 90.8955ZM43.8721 90.3457L46.698 93.1766L46.6999 93.1747L43.8721 90.3457ZM46.3467 90.3457L49.1755 87.5177L49.1751 87.5173L46.3467 90.3457ZM46.3467 92.8203L49.1751 95.6487L49.1757 95.6482L46.3467 92.8203ZM45.9521 93.2148L43.1237 90.3864C42.2985 91.2117 41.8748 92.3562 41.9638 93.5198C42.0528 94.6835 42.6456 95.7503 43.5867 96.4405L45.9521 93.2148ZM46.4355 93.5693L44.0701 96.795C44.0844 96.8054 44.0987 96.8158 44.1131 96.8261L46.4355 93.5693ZM63.9717 96.9727L63.0722 93.0751C63.0646 93.0769 63.0569 93.0786 63.0493 93.0805L63.9717 96.9727ZM81.5391 97.3223H85.5391C85.5391 95.5278 84.344 93.953 82.6158 93.4699L81.5391 97.3223ZM81.5391 97.3506H77.5391C77.5391 99.1506 78.7413 100.729 80.4767 101.207L81.5391 97.3506ZM96.29 105.656L93.5501 108.571C95.1247 110.051 97.5905 110.013 99.1187 108.484L96.29 105.656ZM103.369 98.5762L106.198 101.404C107.76 99.8423 107.76 97.3098 106.198 95.7477L103.369 98.5762ZM97.1816 88.959L98.2052 92.8258L98.2186 92.8222L97.1816 88.959ZM122.867 82.0645L123.996 85.9019C122.03 86.48 120.577 84.6646 120.988 83.0634L124.862 84.0596L128.736 85.0557C129.778 81.0049 126.084 76.949 121.739 78.227L122.867 82.0645ZM124.862 84.0596L120.999 83.0228L114.105 108.709L117.969 109.746L121.832 110.783L128.726 85.0964L124.862 84.0596ZM117.969 109.746L114.095 108.749C114.569 106.907 116.836 106.386 118.102 107.652L115.273 110.48L112.445 113.309C115.46 116.324 120.738 115.034 121.843 110.743L117.969 109.746ZM115.273 110.48L118.102 107.652L111.147 100.697L108.318 103.525L105.49 106.354L112.445 113.309L115.273 110.48ZM108.318 103.525L105.49 100.697L98.4059 107.781L101.234 110.609L104.063 113.438L111.147 106.354L108.318 103.525ZM101.234 110.609L98.311 113.34C101.217 116.452 103.435 120.028 104.906 124.035L108.661 122.657L112.416 121.279C110.571 116.25 107.781 111.759 104.158 107.879L101.234 110.609ZM108.661 122.657L107.691 126.538L107.695 126.539L108.665 122.658L109.635 118.778L109.631 118.777L108.661 122.657ZM108.665 122.658L104.918 124.058C107.021 129.687 107.461 135.885 106.029 142.051L109.925 142.956L113.821 143.861C115.608 136.169 115.068 128.368 112.412 121.258L108.665 122.658ZM109.925 142.956L106.028 142.051C104.315 149.429 105.886 157.042 110.258 163.055L113.493 160.702L116.728 158.35C113.723 154.217 112.632 148.981 113.821 143.861L109.925 142.956ZM113.493 160.702L116.31 163.542L116.681 163.174L113.864 160.334L111.047 157.494L110.676 157.863L113.493 160.702ZM113.864 160.334L116.689 163.166C115.808 164.045 114.383 164.041 113.506 163.162L116.339 160.338L119.172 157.514C116.93 155.265 113.289 155.258 111.04 157.502L113.864 160.334ZM116.339 160.338L113.506 163.162C112.626 162.279 112.633 160.854 113.51 159.98L116.334 162.812L119.158 165.645C121.404 163.406 121.416 159.765 119.172 157.514L116.339 160.338ZM116.334 162.812L113.513 159.977L112.95 160.536L115.771 163.372L118.593 166.208L119.155 165.648L116.334 162.812ZM115.771 163.372L117.56 166.95L117.564 166.948L115.775 163.37L113.987 159.792L113.983 159.794L115.771 163.372ZM115.775 163.37L112.92 166.172C113.998 167.27 113.992 169.027 112.901 170.118L115.729 172.946L118.558 175.775C122.755 171.578 122.779 164.796 118.63 160.569L115.775 163.37ZM115.729 172.946L112.901 170.118C111.808 171.211 110.045 171.215 108.947 170.131L106.137 172.978L103.326 175.824C107.552 179.997 114.353 179.98 118.558 175.775L115.729 172.946ZM106.137 172.978L109.465 175.196L109.469 175.19L106.141 172.972L102.812 170.753L102.809 170.759L106.137 172.978ZM106.141 172.972L103.316 170.14L102.905 170.549L105.73 173.381L108.556 176.213L108.966 175.803L106.141 172.972ZM105.73 173.381L102.907 170.547C103.786 169.671 105.211 169.672 106.09 170.553L103.257 173.377L100.424 176.201C102.666 178.451 106.306 178.454 108.554 176.214L105.73 173.381ZM103.257 173.377L106.09 170.553C106.967 171.433 106.965 172.858 106.084 173.736L103.261 170.902L100.437 168.069C98.1873 170.311 98.1821 173.952 100.424 176.201L103.257 173.377ZM103.261 170.902L106.087 173.733L106.607 173.214L103.781 170.383L100.955 167.552L100.435 168.071L103.261 170.902ZM103.781 170.383L106.868 167.839C100.665 160.313 98.3044 150.405 100.557 140.749L96.6611 139.841L92.7657 138.932C89.9469 151.017 92.9063 163.479 100.695 172.927L103.781 170.383ZM96.6611 139.841L100.553 140.766C101.754 135.714 101.381 130.61 99.683 125.973L95.9268 127.348L92.1705 128.723C93.3425 131.924 93.5983 135.429 92.7696 138.916L96.6611 139.841ZM95.9268 127.348L99.228 129.606L99.2407 129.588L95.9395 127.329L92.6382 125.07L92.6255 125.089L95.9268 127.348ZM95.9395 127.329L94.543 123.581L94.4932 123.599L95.8896 127.348L97.2861 131.096L97.3359 131.077L95.9395 127.329ZM95.8896 127.348L99.6526 125.991C98.5127 122.829 96.785 119.994 94.5718 117.551L91.6074 120.236L88.643 122.922C90.1716 124.609 91.3487 126.546 92.1267 128.704L95.8896 127.348ZM91.6074 120.236L88.779 117.408L63.1599 143.027L65.9883 145.855L68.8167 148.684L94.4359 123.065L91.6074 120.236ZM65.9883 145.855L62.0234 145.326L59.5527 163.844L63.5176 164.373L67.4824 164.902L69.9531 146.384L65.9883 145.855ZM63.5176 164.373L59.5421 163.931C59.524 164.094 59.4803 164.249 59.4116 164.398L63.042 166.077L66.6724 167.756C67.0984 166.836 67.3785 165.846 67.4931 164.815L63.5176 164.373ZM63.042 166.077L62.9664 170.076L101.101 170.797L101.177 166.798L101.252 162.799L63.1176 162.078L63.042 166.077ZM101.177 166.798L97.7983 168.939C98.664 170.305 99.6179 171.623 100.656 172.886L103.746 170.346L106.836 167.806C106.005 166.795 105.244 165.743 104.555 164.656L101.177 166.798ZM103.746 170.346L103.822 166.346L60.1585 165.522L60.083 169.521L60.0075 173.521L103.671 174.345L103.746 170.346ZM60.083 169.521L57.2544 166.693L48.6509 175.298L51.4795 178.126L54.3081 180.954L62.9116 172.35L60.083 169.521ZM51.4795 178.126L48.6511 175.297C47.7745 176.174 46.3023 176.203 45.364 175.278L42.5557 178.126L39.7474 180.974C43.7783 184.949 50.2852 184.977 54.3079 180.954L51.4795 178.126ZM42.5557 178.126L45.3841 175.298C44.5215 174.435 44.48 172.994 45.3641 172.054L42.4502 169.313L39.5363 166.573C35.7351 170.615 35.7625 176.99 39.7272 180.954L42.5557 178.126ZM42.4502 169.313L40.1689 166.028C40.3637 165.893 40.6329 165.905 40.8117 166.084L37.9834 168.912L35.1551 171.741C37.7654 174.351 41.8084 174.629 44.7315 172.599L42.4502 169.313ZM37.9834 168.912L40.8124 166.084C40.9994 166.271 41.0065 166.565 40.8384 166.763L37.7832 164.182L34.728 161.6C32.2359 164.549 32.3759 168.96 35.1544 171.74L37.9834 168.912ZM37.7832 164.182L35.8406 160.685L35.8318 160.69L37.7744 164.187L39.717 167.683L39.7258 167.678L37.7832 164.182ZM37.7744 164.187L34.7139 161.611C34.6314 161.709 34.5268 161.837 34.4157 161.988L37.6348 164.362L40.8538 166.737C40.8418 166.753 40.8335 166.764 40.8304 166.767C40.8274 166.771 40.8283 166.77 40.8349 166.762L37.7744 164.187ZM37.6348 164.362L41.6339 164.277L41.6329 164.231L37.6338 164.316L33.6347 164.401L33.6357 164.447L37.6348 164.362ZM37.6338 164.316L34.9025 161.394C33.9614 162.274 32.5253 162.23 31.6653 161.37L28.8369 164.198L26.0085 167.027C29.9663 170.985 36.3227 171.017 40.365 167.239L37.6338 164.316ZM28.8369 164.198L31.6853 161.39C30.7602 160.452 30.7888 158.979 31.6654 158.103L28.8369 155.274L26.0084 152.446C21.9859 156.469 22.0144 162.976 25.9885 167.007L28.8369 164.198ZM28.8369 155.274L31.6655 158.103L40.1489 149.618L37.3203 146.79L34.4917 143.962L26.0083 152.446L28.8369 155.274ZM37.3203 146.79L41.3197 146.719L40.5404 103.043L36.541 103.114L32.5417 103.186L33.3209 146.861L37.3203 146.79ZM36.541 103.114L33.9965 106.201C35.2597 107.242 36.5774 108.197 37.9409 109.064L40.0869 105.688L42.233 102.313C41.1456 101.622 40.0942 100.86 39.0856 100.028L36.541 103.114ZM40.0869 105.688L36.0876 105.76L36.7672 143.831L40.7666 143.76L44.766 143.688L44.0863 105.617L40.0869 105.688ZM40.7666 143.76L42.5115 147.359C42.6623 147.286 42.8392 147.233 43.0318 147.212L42.5898 143.236L42.1479 139.261C41.0685 139.381 40.0085 139.682 39.0217 140.16L40.7666 143.76ZM42.5898 143.236L43.1193 147.201L61.7228 144.717L61.1934 140.752L60.6639 136.787L42.0604 139.272L42.5898 143.236ZM61.1934 140.752L64.0218 143.58L89.4847 118.117L86.6562 115.289L83.8278 112.461L58.3649 137.924L61.1934 140.752ZM86.6562 115.289L89.3363 112.32C86.3576 109.631 82.7807 107.673 78.9065 106.592L77.832 110.445L76.7576 114.298C79.4518 115.05 81.9266 116.409 83.9762 118.259L86.6562 115.289ZM77.832 110.445H81.832V110.442H77.832H73.832V110.445H77.832ZM77.832 110.442L74.5038 108.224L74.5019 108.227L77.8301 110.445L81.1583 112.664L81.1602 112.661L77.832 110.442ZM77.8301 110.445L78.8924 106.589C74.8269 105.469 70.4776 105.348 66.1866 106.338L67.0859 110.235L67.9853 114.133C70.9732 113.444 73.9742 113.532 76.7677 114.302L77.8301 110.445ZM67.0859 110.235L66.1773 106.34C56.5722 108.58 46.7163 106.257 39.2063 100.126L36.6768 103.225L34.1472 106.323C43.5778 114.022 55.9735 116.935 67.9946 114.131L67.0859 110.235ZM36.6768 103.225L39.2309 100.146L38.8295 99.8132L36.2754 102.892L33.7213 105.97L34.1227 106.303L36.6768 103.225ZM36.2754 102.892L33.447 100.063L32.9147 100.595L35.7432 103.424L38.5716 106.252L39.1038 105.72L36.2754 102.892ZM35.7432 103.424L32.9147 100.595C33.7939 99.7162 35.2183 99.7169 36.0966 100.595L33.2686 103.424L30.4405 106.253C32.6855 108.497 36.3259 108.498 38.5716 106.252L35.7432 103.424ZM33.2686 103.424L36.0969 100.595C36.9758 101.474 36.9758 102.899 36.0969 103.778L33.2686 100.949L30.4402 98.1207C28.1947 100.366 28.1947 104.007 30.4402 106.252L33.2686 103.424ZM33.2686 100.949L36.1001 103.775L36.5473 103.326L33.7158 100.501L30.8843 97.6756L30.437 98.1239L33.2686 100.949ZM33.7158 100.501L36.7009 97.8384C35.7065 96.7235 35.7718 95.019 36.7941 94.0101L33.9844 91.1631L31.1747 88.3161C27.0642 92.3727 26.9515 98.9266 30.7307 103.164L33.7158 100.501ZM33.9844 91.1631L36.794 94.0102C37.855 92.9632 39.5704 92.9226 40.6783 93.8979L43.3213 90.8955L45.9643 87.8931C41.7246 84.161 35.2456 84.2987 31.1747 88.316L33.9844 91.1631ZM43.3213 90.8955L46.1472 93.7264L46.698 93.1766L43.8721 90.3457L41.0462 87.5148L40.4954 88.0646L43.3213 90.8955ZM43.8721 90.3457L46.6999 93.1747C45.8219 94.0524 44.3977 94.0535 43.5183 93.1741L46.3467 90.3457L49.1751 87.5173C46.9292 85.2714 43.2889 85.2728 41.0442 87.5167L43.8721 90.3457ZM46.3467 90.3457L43.5178 93.1737C42.6392 92.2948 42.6395 90.871 43.5177 89.9925L46.3467 92.8203L49.1757 95.6482C51.4198 93.4031 51.4203 89.7631 49.1755 87.5177L46.3467 90.3457ZM46.3467 92.8203L43.5183 89.9919L43.1237 90.3864L45.9521 93.2148L48.7806 96.0433L49.1751 95.6487L46.3467 92.8203ZM45.9521 93.2148L43.5867 96.4405L44.0701 96.795L46.4355 93.5693L48.801 90.3437L48.3176 89.9892L45.9521 93.2148ZM46.4355 93.5693L44.1131 96.8261C50.092 101.09 57.6089 102.591 64.8941 100.865L63.9717 96.9727L63.0493 93.0805C58.0089 94.2749 52.8577 93.2361 48.7579 90.3126L46.4355 93.5693ZM63.9717 96.9727L64.8711 100.87C70.1446 99.6533 75.484 99.7832 80.4623 101.175L81.5391 97.3223L82.6158 93.4699C76.3258 91.7118 69.627 91.5625 63.0722 93.0751L63.9717 96.9727ZM81.5391 97.3223H77.5391V97.3506H81.5391H85.5391V97.3223H81.5391ZM81.5391 97.3506L80.4767 101.207C85.3611 102.553 89.8471 105.089 93.5501 108.571L96.29 105.656L99.0299 102.742C94.3921 98.3816 88.7587 95.1905 82.6014 93.4942L81.5391 97.3506ZM96.29 105.656L99.1187 108.484L106.198 101.404L103.369 98.5762L100.541 95.7479L93.4614 102.828L96.29 105.656ZM103.369 98.5762L106.198 95.7477L99.2747 88.8249L96.4463 91.6533L93.6179 94.4817L100.541 101.405L103.369 98.5762ZM96.4463 91.6533L99.2747 88.8249C100.621 90.1711 99.9425 92.3659 98.2052 92.8258L97.1816 88.959L96.1581 85.0922C92.0411 86.1819 90.5219 91.3858 93.6179 94.4817L96.4463 91.6533ZM97.1816 88.959L98.2186 92.8222L123.904 85.9277L122.867 82.0645L121.83 78.2012L96.1447 85.0957L97.1816 88.959Z" fill="white" mask="url(#path-1-outside-1_1347_15238)"/>
<mask id="path-3-outside-2_1347_15238" maskUnits="userSpaceOnUse" x="135.07" y="61.7451" width="42" height="29" fill="black">
<rect fill="white" x="135.07" y="61.7451" width="42" height="29"/>
<path d="M154.604 71.9883C156.008 68.6439 166.619 62.7539 168.925 65.416C171.23 68.0784 166.456 74.7182 162.351 77.7861C167.542 78.9239 171.343 77.3414 173.218 78.291C175.092 79.241 172 85.7483 169.822 86.2842C168.08 86.7125 164.747 84.501 163.299 83.3418C161.166 85.9038 155.373 89.9616 149.258 85.6963C145.752 83.2506 143.737 80.5748 142.973 78.0244C141.631 77.4606 138.773 76.1475 139.096 75.2979C139.419 74.4492 141.878 73.6286 143.005 73.293C143.408 72.1133 144.114 71.0326 145.09 70.1045C148.315 67.0376 152.777 70.0826 154.604 71.9883Z"/>
</mask>
<path d="M154.604 71.9883C156.008 68.6439 166.619 62.7539 168.925 65.416C171.23 68.0784 166.456 74.7182 162.351 77.7861C167.542 78.9239 171.343 77.3414 173.218 78.291C175.092 79.241 172 85.7483 169.822 86.2842C168.08 86.7125 164.747 84.501 163.299 83.3418C161.166 85.9038 155.373 89.9616 149.258 85.6963C145.752 83.2506 143.737 80.5748 142.973 78.0244C141.631 77.4606 138.773 76.1475 139.096 75.2979C139.419 74.4492 141.878 73.6286 143.005 73.293C143.408 72.1133 144.114 71.0326 145.09 70.1045C148.315 67.0376 152.777 70.0826 154.604 71.9883Z" fill="#040000"/>
<path d="M154.604 71.9883L152.438 74.0644L155.601 77.3633L157.37 73.1496L154.604 71.9883ZM168.925 65.416L171.193 63.4521L171.192 63.4519L168.925 65.416ZM162.351 77.7861L160.555 75.383L155.298 79.3115L161.708 80.7166L162.351 77.7861ZM173.218 78.291L174.574 75.6152L174.574 75.6149L173.218 78.291ZM169.822 86.2842L170.538 89.1974L170.539 89.1973L169.822 86.2842ZM163.299 83.3418L165.173 80.9996L162.876 79.1607L160.993 81.4226L163.299 83.3418ZM149.258 85.6963L147.541 88.1568L147.541 88.1568L149.258 85.6963ZM142.973 78.0244L145.846 77.1627L145.44 75.8071L144.135 75.2587L142.973 78.0244ZM139.096 75.2979L136.292 74.2304L136.291 74.2331L139.096 75.2979ZM143.005 73.293L143.862 76.1681L145.344 75.7264L145.844 74.2626L143.005 73.293ZM145.09 70.1045L143.023 67.9304L143.023 67.9304L145.09 70.1045ZM154.604 71.9883L157.37 73.1496C157.364 73.1638 157.443 72.9924 157.756 72.6452C158.048 72.3209 158.459 71.9379 158.981 71.5203C160.029 70.6839 161.378 69.8278 162.767 69.1332C164.18 68.4269 165.474 67.9685 166.419 67.8063C167.638 67.5972 167.211 68.0196 166.657 67.3801L168.925 65.416L171.192 63.4519C169.486 61.4814 166.868 61.6417 165.404 61.8927C163.667 62.1908 161.788 62.9148 160.085 63.7663C158.358 64.6294 156.646 65.7065 155.237 66.8319C153.942 67.866 152.497 69.2551 151.837 70.827L154.604 71.9883ZM168.925 65.416L166.657 67.3799C166.417 67.1024 166.594 66.9566 166.495 67.5106C166.395 68.064 166.077 68.888 165.466 69.9112C164.25 71.9484 162.296 74.0821 160.555 75.383L162.351 77.7861L164.146 80.1892C166.511 78.4223 168.997 75.7021 170.618 72.9868C171.425 71.6338 172.125 70.1068 172.4 68.5706C172.676 67.035 172.586 65.0609 171.193 63.4521L168.925 65.416ZM162.351 77.7861L161.708 80.7166C164.744 81.3819 167.348 81.2406 169.248 81.1011C170.256 81.027 170.897 80.9692 171.446 80.9715C172.002 80.9738 172.024 81.0493 171.862 80.9672L173.218 78.291L174.574 75.6149C173.474 75.0579 172.318 74.9751 171.472 74.9715C170.619 74.9679 169.634 75.0565 168.808 75.1172C167.041 75.247 165.149 75.3282 162.993 74.8557L162.351 77.7861ZM173.218 78.291L171.861 80.9669C171.249 80.6564 170.959 80.1483 170.855 79.8397C170.771 79.5893 170.805 79.4802 170.794 79.6255C170.771 79.912 170.63 80.4831 170.301 81.2178C169.985 81.925 169.582 82.5875 169.203 83.0552C169.015 83.288 168.874 83.4213 168.798 83.4817C168.703 83.558 168.806 83.4447 169.105 83.3711L169.822 86.2842L170.539 89.1973C172.091 88.8155 173.221 87.6284 173.867 86.8303C174.622 85.8975 175.283 84.7734 175.778 83.668C176.26 82.5901 176.677 81.3228 176.775 80.1053C176.851 79.1574 176.816 76.7514 174.574 75.6152L173.218 78.291ZM169.822 86.2842L169.106 83.3709C169.406 83.2972 169.462 83.3879 169.093 83.2829C168.779 83.1933 168.352 83.0173 167.84 82.7498C166.818 82.2152 165.785 81.4888 165.173 80.9996L163.299 83.3418L161.424 85.684C162.261 86.354 163.619 87.313 165.06 88.0668C165.781 88.4435 166.604 88.8126 167.45 89.0534C168.241 89.2788 169.367 89.4853 170.538 89.1974L169.822 86.2842ZM163.299 83.3418L160.993 81.4226C160.211 82.3617 158.682 83.6322 156.849 84.2248C155.158 84.7714 153.176 84.7718 150.974 83.2358L149.258 85.6963L147.541 88.1568C151.454 90.8861 155.427 90.9903 158.695 89.9339C161.82 88.9234 164.254 86.8839 165.605 85.261L163.299 83.3418ZM149.258 85.6963L150.974 83.2358C147.839 81.0489 146.361 78.8785 145.846 77.1627L142.973 78.0244L140.099 78.8861C141.114 82.2711 143.664 85.4523 147.541 88.1568L149.258 85.6963ZM142.973 78.0244L144.135 75.2587C143.494 74.9895 142.605 74.5868 141.953 74.1956C141.602 73.9852 141.5 73.8836 141.531 73.9157C141.547 73.9312 141.729 74.1154 141.879 74.4701C142.05 74.8758 142.198 75.5784 141.9 76.3626L139.096 75.2979L136.291 74.2331C135.521 76.262 136.909 77.7676 137.222 78.0904C137.74 78.6253 138.376 79.0465 138.867 79.341C139.899 79.9598 141.109 80.4955 141.81 80.7901L142.973 78.0244ZM139.096 75.2979L141.899 76.3653C141.75 76.7577 141.545 76.9861 141.472 77.0619C141.39 77.1472 141.345 77.1725 141.382 77.1472C141.461 77.0928 141.648 76.9861 141.966 76.8453C142.588 76.5693 143.342 76.323 143.862 76.1681L143.005 73.293L142.148 70.4179C141.542 70.5986 140.502 70.9304 139.532 71.3608C139.054 71.5731 138.495 71.8516 137.987 72.2002C137.589 72.4736 136.715 73.1206 136.292 74.2304L139.096 75.2979ZM143.005 73.293L145.844 74.2626C146.078 73.5757 146.504 72.8997 147.157 72.2786L145.09 70.1045L143.023 67.9304C141.724 69.1654 140.737 70.6509 140.166 72.3234L143.005 73.293ZM145.09 70.1045L147.157 72.2786C147.692 71.7704 148.302 71.6328 149.373 72.0108C150.549 72.4255 151.74 73.3364 152.438 74.0644L154.604 71.9883L156.769 69.9121C155.64 68.7345 153.687 67.17 151.369 66.3525C148.947 65.4983 145.714 65.3717 143.023 67.9304L145.09 70.1045Z" fill="white" mask="url(#path-3-outside-2_1347_15238)"/>
<mask id="path-5-outside-3_1347_15238" maskUnits="userSpaceOnUse" x="63.002" y="22.4277" width="66" height="48" fill="black">
<rect fill="white" x="63.002" y="22.4277" width="66" height="48"/>
<path d="M91.8252 40.2324C93.5413 34.5939 109.722 23.3164 113.89 27.2383C118.057 31.1607 111.438 42.6836 105.31 48.3223C113.89 49.3027 119.773 46.1164 122.96 47.3418C126.147 48.5676 122.225 59.5991 118.793 60.8252C116.047 61.8058 110.294 58.7818 107.761 57.1475C104.737 61.642 96.0419 69.1601 85.4512 63.2764C78.9423 59.6602 75.1608 55.3326 73.6963 51.0518C71.5171 50.3634 67.6967 48.972 68.0215 47.7598C68.3563 46.5114 71.6095 45.0035 73.2812 44.3027C73.7333 42.3131 74.701 40.4346 76.1357 38.7607C80.8427 33.2697 88.5565 37.454 91.8252 40.2324Z"/>
</mask>
<path d="M91.8252 40.2324C93.5413 34.5939 109.722 23.3164 113.89 27.2383C118.057 31.1607 111.438 42.6836 105.31 48.3223C113.89 49.3027 119.773 46.1164 122.96 47.3418C126.147 48.5676 122.225 59.5991 118.793 60.8252C116.047 61.8058 110.294 58.7818 107.761 57.1475C104.737 61.642 96.0419 69.1601 85.4512 63.2764C78.9423 59.6602 75.1608 55.3326 73.6963 51.0518C71.5171 50.3634 67.6967 48.972 68.0215 47.7598C68.3563 46.5114 71.6095 45.0035 73.2812 44.3027C73.7333 42.3131 74.701 40.4346 76.1357 38.7607C80.8427 33.2697 88.5565 37.454 91.8252 40.2324Z" fill="#040000"/>
<path d="M91.8252 40.2324L89.2346 43.2802C90.2613 44.1529 91.6585 44.45 92.9515 44.0706C94.2445 43.6912 95.2595 42.6862 95.6519 41.3971L91.8252 40.2324ZM113.89 27.2383L116.631 24.3255L116.631 24.3251L113.89 27.2383ZM105.31 48.3223L102.601 45.3786C101.449 46.4385 101.021 48.0731 101.506 49.5615C101.991 51.0499 103.3 52.1187 104.855 52.2964L105.31 48.3223ZM122.96 47.3418L124.396 43.6084L124.396 43.6083L122.96 47.3418ZM118.793 60.8252L120.138 64.5922L120.139 64.5921L118.793 60.8252ZM107.761 57.1475L109.929 53.7863C108.098 52.6049 105.658 53.1066 104.442 54.9148L107.761 57.1475ZM85.4512 63.2764L83.5086 66.773L83.5086 66.773L85.4512 63.2764ZM73.6963 51.0518L77.481 49.757C77.0698 48.5552 76.1123 47.6201 74.9011 47.2375L73.6963 51.0518ZM68.0215 47.7598L64.1581 46.7234L64.1578 46.7245L68.0215 47.7598ZM73.2812 44.3027L74.8276 47.9918C76.0189 47.4924 76.8957 46.4485 77.1819 45.1889L73.2812 44.3027ZM76.1357 38.7607L73.0988 36.1575L73.0987 36.1576L76.1357 38.7607ZM91.8252 40.2324L95.6519 41.3971C95.7711 41.0055 96.4697 39.8364 98.2119 38.1271C99.8149 36.5544 101.903 34.9098 104.081 33.5275C106.289 32.1265 108.386 31.1241 109.999 30.6742C111.97 30.1247 111.783 30.7484 111.149 30.1514L113.89 27.2383L116.631 24.3251C113.912 21.7672 110.14 22.3299 107.851 22.9681C105.205 23.7059 102.368 25.1399 99.7946 26.7729C97.1921 28.4246 94.653 30.4115 92.6093 32.4166C90.7048 34.2851 88.7374 36.6401 87.9985 39.0678L91.8252 40.2324ZM113.89 27.2383L111.148 30.1511C110.979 29.9917 111.261 30.0356 111.181 31.0926C111.101 32.1487 110.677 33.641 109.835 35.4468C108.158 39.0454 105.284 42.9107 102.601 45.3786L105.31 48.3223L108.018 51.266C111.464 48.0952 114.964 43.3797 117.086 38.8266C118.144 36.5566 118.977 34.0802 119.158 31.6965C119.338 29.3134 118.884 26.4461 116.631 24.3255L113.89 27.2383ZM105.31 48.3223L104.855 52.2964C109.742 52.8548 113.826 52.2152 116.854 51.6789C118.445 51.3972 119.521 51.1882 120.454 51.0968C121.395 51.0047 121.608 51.1073 121.524 51.0753L122.96 47.3418L124.396 43.6083C122.719 42.9636 121.001 43.005 119.674 43.1349C118.339 43.2657 116.811 43.5622 115.46 43.8014C112.605 44.3069 109.457 44.7702 105.764 44.3481L105.31 48.3223ZM122.96 47.3418L121.524 51.0752C119.847 50.4302 120.116 48.917 120.137 49.8809C120.15 50.4842 119.987 51.536 119.56 52.83C119.146 54.0861 118.574 55.2946 117.991 56.1864C117.282 57.2716 117.003 57.2171 117.447 57.0583L118.793 60.8252L120.139 64.5921C122.299 63.8203 123.797 61.927 124.689 60.5607C125.708 59.001 126.561 57.1451 127.157 55.3367C127.741 53.5664 128.176 51.5538 128.135 49.7056C128.102 48.2181 127.666 44.8663 124.396 43.6084L122.96 47.3418ZM118.793 60.8252L117.448 57.0582C117.712 56.9638 117.642 57.0755 116.965 56.9555C116.363 56.8487 115.584 56.6127 114.68 56.2521C112.875 55.5313 111.034 54.499 109.929 53.7863L107.761 57.1475L105.592 60.5086C107.021 61.4303 109.323 62.7272 111.714 63.6818C112.909 64.1589 114.241 64.5972 115.569 64.8326C116.822 65.0549 118.501 65.1769 120.138 64.5922L118.793 60.8252ZM107.761 57.1475L104.442 54.9148C103.261 56.6699 100.879 59.1017 97.8322 60.4427C94.968 61.7034 91.4736 62.0463 87.3937 59.7797L85.4512 63.2764L83.5086 66.773C90.0195 70.3902 96.1681 69.9159 101.055 67.7648C105.76 65.6941 109.237 62.1196 111.08 59.3802L107.761 57.1475ZM85.4512 63.2764L87.3938 59.7798C81.444 56.4742 78.5273 52.8157 77.481 49.757L73.6963 51.0518L69.9116 52.3465C71.7942 57.8496 76.4406 62.8462 83.5086 66.773L85.4512 63.2764ZM73.6963 51.0518L74.9011 47.2375C73.8579 46.908 72.5943 46.4612 71.6893 46.0149C71.2031 45.775 71.0768 45.6583 71.1395 45.7146C71.1742 45.7459 71.4331 45.9772 71.661 46.4334C71.9212 46.9542 72.1496 47.8082 71.8852 48.795L68.0215 47.7598L64.1578 46.7245C63.4454 49.383 65.2503 51.1776 65.7899 51.6628C66.5456 52.3426 67.4498 52.844 68.1505 53.1896C69.6193 53.914 71.3555 54.5072 72.4915 54.866L73.6963 51.0518ZM68.0215 47.7598L71.8849 48.7961C71.7488 49.3037 71.5275 49.6135 71.4494 49.7154C71.3622 49.8292 71.3164 49.86 71.3697 49.8139C71.4837 49.715 71.738 49.5304 72.1653 49.2812C73.0053 48.7913 74.0494 48.3179 74.8276 47.9918L73.2812 44.3027L71.7349 40.6137C70.8413 40.9883 69.4231 41.6193 68.1348 42.3706C67.498 42.7421 66.7717 43.2122 66.1293 43.7691C65.6086 44.2206 64.5643 45.209 64.1581 46.7234L68.0215 47.7598ZM73.2812 44.3027L77.1819 45.1889C77.4783 43.8839 78.126 42.5851 79.1728 41.3639L76.1357 38.7607L73.0987 36.1576C71.276 38.2841 69.9882 40.7423 69.3806 43.4166L73.2812 44.3027ZM76.1357 38.7607L79.1727 41.364C80.2352 40.1245 81.5827 39.8008 83.5802 40.2836C85.7207 40.8009 87.9164 42.1597 89.2346 43.2802L91.8252 40.2324L94.4158 37.1847C92.4652 35.5267 89.1698 33.4042 85.4595 32.5075C81.6062 31.5762 76.7433 31.9059 73.0988 36.1575L76.1357 38.7607Z" fill="white" mask="url(#path-5-outside-3_1347_15238)"/>
<path d="M28.8372 155.275L39.2658 144.846C40.1406 143.936 41.3305 143.377 42.5903 143.237L61.2077 140.752L51.4788 154.267L37.761 164.199C35.2763 166.648 31.2869 166.648 28.8372 164.199C26.3876 161.714 26.3876 157.725 28.8372 155.275Z" fill="#4B9AE8"/>
<path d="M51.4797 178.126L61.9082 167.698C62.8181 166.788 63.378 165.633 63.518 164.373L66.0026 145.756L52.5077 155.678L42.556 169.203C40.1063 171.687 40.1063 175.677 42.556 178.126C45.0406 180.576 49.0301 180.576 51.4797 178.126Z" fill="#4B9AE8"/>
<path d="M103.372 98.5752L108.321 98.9514V103.524L42.933 168.913C41.5664 170.279 39.3506 170.279 37.984 168.913C36.6173 167.546 36.6173 165.33 37.984 163.963L103.372 98.5752Z" fill="#EAC00F"/>
<path d="M81.5393 97.3577V97.3227C75.9051 95.7479 69.8859 95.6079 63.9717 96.9727C57.6103 98.4802 51.0667 97.0784 45.9526 93.2148L40.0565 97.3577L36.2754 102.892C44.7938 110.055 56.1014 112.798 67.0863 110.236C70.7258 109.396 74.4003 109.501 77.8298 110.446L83.2005 104.859L81.4343 97.3577H81.5393Z" fill="#4B9AE8"/>
<path d="M33.7178 100.505C31.3285 97.8288 31.4176 93.6974 33.985 91.1638C36.5517 88.6308 40.6503 88.5424 43.3241 90.8984L39.1652 96.973L33.7178 100.505Z" fill="#276288"/>
<path d="M108.665 122.659L100.271 121.09L95.9268 127.348C97.3616 131.267 97.6766 135.572 96.6617 139.841C94.126 150.712 96.786 161.899 103.784 170.386L109.925 166.621L113.496 160.706C109.805 155.632 108.473 149.206 109.925 142.956C111.535 136.027 111.045 129.028 108.665 122.659Z" fill="#4B9AE8"/>
<path d="M115.776 163.37L109.92 167.755L106.137 172.978C108.798 175.606 113.08 175.596 115.73 172.947C118.373 170.303 118.389 166.033 115.776 163.37Z" fill="#276288"/>
<path d="M108.663 122.659L95.8895 127.348C94.8046 124.338 93.0899 121.679 90.8502 119.439L87.4557 116.044C84.7961 113.385 81.4715 111.46 77.832 110.445L81.4365 97.3223C87.3507 98.932 92.7399 102.082 97.0793 106.421L100.474 109.816C104.113 113.49 106.878 117.794 108.663 122.659Z" fill="#276288"/>
<path d="M122.868 82.065L97.1814 88.959C95.9915 89.274 95.5716 90.7788 96.4465 91.6537L115.274 110.481C116.149 111.356 117.653 110.971 117.968 109.746L124.862 84.0597C125.177 82.8349 124.058 81.7151 122.868 82.065Z" fill="#D7E8FC"/>
<path d="M35.7429 103.425C35.0596 104.108 33.9517 104.108 33.2684 103.425C32.585 102.741 32.585 101.633 33.2684 100.95L43.8719 90.3465C44.5552 89.6632 45.6631 89.6632 46.3464 90.3465C47.0297 91.0298 47.0297 92.1377 46.3464 92.821L35.7429 103.425Z" fill="#D3D3D3"/>
<path d="M36.541 103.114C37.6771 104.051 38.8615 104.91 40.0871 105.689L41.073 160.87L37.9793 163.963C37.8529 164.09 37.7383 164.223 37.6353 164.363L36.541 103.114Z" fill="#D3D3D3"/>
<path d="M101.177 166.798L46.0835 165.758L42.9293 168.912C42.8284 169.013 42.7228 169.106 42.6133 169.193L103.746 170.346C102.811 169.209 101.954 168.024 101.177 166.798Z" fill="#D3D3D3"/>
<path d="M113.864 160.335C114.548 159.652 115.656 159.654 116.339 160.339C117.021 161.023 117.019 162.131 116.335 162.813L105.731 173.382C105.047 174.064 103.939 174.062 103.257 173.378C102.574 172.693 102.576 171.585 103.261 170.903L113.864 160.335Z" fill="#D3D3D3"/>
<path d="M139.096 75.2975C139.517 74.1917 143.566 73.1339 143.566 73.1339L143.644 78.2981C143.644 78.2981 138.675 76.4034 139.096 75.2975Z" fill="#EAC00F"/>
<path d="M145.091 70.1046C148.317 67.0377 152.777 70.0824 154.604 71.9881C156.008 68.6437 166.62 62.7537 168.925 65.4161C171.231 68.0785 166.457 74.7176 162.352 77.7855C167.543 78.9234 171.345 77.3409 173.219 78.291C175.093 79.2411 172.001 85.749 169.823 86.2843C168.08 86.7126 164.748 84.5012 163.299 83.342C161.167 85.904 155.373 89.9618 149.258 85.6964C141.615 80.3646 141.059 73.9383 145.091 70.1046Z" fill="#DBDBDB"/>
<path d="M148.222 76.3476C149.586 76.3476 150.692 75.2417 150.692 73.8774C150.692 72.5132 149.586 71.4072 148.222 71.4072C146.858 71.4072 145.752 72.5132 145.752 73.8774C145.752 75.2417 146.858 76.3476 148.222 76.3476Z" fill="white"/>
<path d="M148.223 75.1939C148.95 75.1939 149.54 74.6044 149.54 73.8772C149.54 73.15 148.95 72.5605 148.223 72.5605C147.496 72.5605 146.906 73.15 146.906 73.8772C146.906 74.6044 147.496 75.1939 148.223 75.1939Z" fill="#040000"/>
<path d="M68.0201 47.7588C68.4724 46.0709 74.2612 43.9082 74.2612 43.9082L75.1523 51.4833C75.1523 51.4833 67.5678 49.4468 68.0201 47.7588Z" fill="#EAC00F"/>
<path d="M76.1343 38.7603C80.8413 33.2688 88.5555 37.4528 91.8243 40.2313C93.5404 34.5927 109.721 23.3155 113.888 27.238C118.056 31.1605 111.437 42.6828 105.308 48.3214C113.888 49.302 119.772 46.115 122.959 47.3408C126.146 48.5666 122.224 59.5986 118.791 60.8244C116.046 61.805 110.293 58.7814 107.759 57.147C104.736 61.6415 96.0409 69.1597 85.4502 63.2759C72.2118 55.9212 70.2505 45.6247 76.1343 38.7603Z" fill="#DBDBDB"/>
<path d="M81.796 47.381C83.9151 47.381 85.633 45.6631 85.633 43.544C85.633 41.4249 83.9151 39.707 81.796 39.707C79.6769 39.707 77.959 41.4249 77.959 43.544C77.959 45.6631 79.6769 47.381 81.796 47.381Z" fill="white"/>
<path d="M81.7972 45.5895C82.9267 45.5895 83.8424 44.6738 83.8424 43.5442C83.8424 42.4147 82.9267 41.499 81.7972 41.499C80.6676 41.499 79.752 42.4147 79.752 43.5442C79.752 44.6738 80.6676 45.5895 81.7972 45.5895Z" fill="#040000"/>
</svg>
