<svg width="200" height="200" viewBox="0 0 200 200" fill="none" xmlns="http://www.w3.org/2000/svg">
<mask id="path-1-outside-1_1347_12007" maskUnits="userSpaceOnUse" x="16" y="7" width="153" height="186" fill="black">
<rect fill="white" x="16" y="7" width="153" height="186"/>
<path d="M92.9482 13C95.4494 13 97.4783 15.0278 97.4785 17.5293V22.4199C112.146 23.2819 125.323 28.3575 135.07 36.1133L144.942 20.0518L154.644 36.9648C156.902 40.5474 157.097 45.2099 154.726 49.0645C153.35 51.3031 151.325 52.9209 149.03 53.8281C151.085 58.5623 152.201 63.6391 152.201 68.9219C152.201 68.9219 152.201 76.0965 148.614 76.0967C145.027 76.0967 137.853 68.9219 137.853 68.9219C137.853 68.9219 137.853 76.0967 130.679 76.0967C129.608 76.0967 128.459 75.9338 127.276 75.6621C131.512 81.4754 134.044 88.9416 134.044 97.3164C134.044 99.452 133.414 103.753 133.11 104.027C133.182 104.069 133.247 104.111 133.301 104.146C133.824 104.48 134.068 104.688 134.068 104.688C135.396 105.637 136.663 106.648 137.867 107.712L156.777 116.982C162.775 119.926 164.76 126.696 160.68 130.367C158.244 132.56 155.238 134.748 151.765 136.278C151.773 136.587 151.779 136.897 151.779 137.207H151.773C151.773 137.992 151.744 138.779 151.702 139.54C151.696 139.605 151.69 139.664 151.69 139.724C151.185 147.047 148.484 153.586 144.141 159.06C138.757 165.86 130.844 170.999 121.474 173.914V180.323L128.654 178.842C129.731 178.842 130.719 179.282 131.438 179.996C132.146 180.71 132.593 181.692 132.593 182.78C132.593 184.946 130.82 186.719 128.654 186.719H118.296C116.654 186.719 115.315 185.38 115.315 183.744V175.486L114.222 175.692C111.66 176.152 109.022 176.452 106.32 176.587C105.702 176.623 105.077 176.646 104.452 176.658C103.929 176.664 103.399 176.67 102.869 176.67C102.34 176.67 101.816 176.664 101.293 176.658C97.6519 176.575 94.1051 176.193 90.708 175.545V183.744C90.708 185.38 89.3693 186.719 87.7334 186.719H77.375C75.2094 186.719 73.4365 184.946 73.4365 182.78C73.4366 181.698 73.8828 180.71 74.5967 179.996C75.3106 179.282 76.2922 178.842 77.3809 178.842L84.5625 180.329V174.012C84.5607 174.011 84.5585 174.011 84.5566 174.011C75.0554 171.101 67.0472 165.931 61.6035 159.065C61.6034 159.064 61.6029 159.06 61.5977 159.06C57.2429 153.562 54.5298 146.977 54.0479 139.605C54.0479 139.558 54.0421 139.498 54.0361 139.444C53.9945 138.707 53.9707 137.963 53.9707 137.207C53.9707 136.327 54.0001 135.452 54.0596 134.59C54.9103 122.578 61.5857 111.922 71.6699 104.688V104.312C71.6759 103.069 71.7002 99.107 71.7002 97.3164C71.7002 87.6107 75.1002 79.1262 80.6113 73.0195C76.5243 71.0784 73.3021 68.9345 73.2832 68.9219C73.1815 68.9896 62.4888 76.0966 55.3486 76.0967C49.0716 76.0967 48.2867 70.6042 48.1885 69.2305L48.1738 68.9219C48.1738 68.9219 46.7914 70.3028 44.9375 71.8535C44.8406 73.5855 44.3346 75.3198 43.3799 76.9092C40.249 82.1272 33.5013 83.8046 28.3096 80.6562C23.1177 77.5072 21.4482 70.729 24.5791 65.5068L34.2949 49.3115L36.9199 54C41.1498 44.1254 49.4633 35.7339 60.2764 30.0674C59.9591 28.2556 60.2735 26.3273 61.3105 24.6279L68.4102 13L74.9639 24.5C79.2567 23.4182 83.762 22.7084 88.4189 22.4268V17.5293C88.4192 15.0279 90.4467 13.0001 92.9482 13Z"/>
</mask>
<path d="M92.9482 13C95.4494 13 97.4783 15.0278 97.4785 17.5293V22.4199C112.146 23.2819 125.323 28.3575 135.07 36.1133L144.942 20.0518L154.644 36.9648C156.902 40.5474 157.097 45.2099 154.726 49.0645C153.35 51.3031 151.325 52.9209 149.03 53.8281C151.085 58.5623 152.201 63.6391 152.201 68.9219C152.201 68.9219 152.201 76.0965 148.614 76.0967C145.027 76.0967 137.853 68.9219 137.853 68.9219C137.853 68.9219 137.853 76.0967 130.679 76.0967C129.608 76.0967 128.459 75.9338 127.276 75.6621C131.512 81.4754 134.044 88.9416 134.044 97.3164C134.044 99.452 133.414 103.753 133.11 104.027C133.182 104.069 133.247 104.111 133.301 104.146C133.824 104.48 134.068 104.688 134.068 104.688C135.396 105.637 136.663 106.648 137.867 107.712L156.777 116.982C162.775 119.926 164.76 126.696 160.68 130.367C158.244 132.56 155.238 134.748 151.765 136.278C151.773 136.587 151.779 136.897 151.779 137.207H151.773C151.773 137.992 151.744 138.779 151.702 139.54C151.696 139.605 151.69 139.664 151.69 139.724C151.185 147.047 148.484 153.586 144.141 159.06C138.757 165.86 130.844 170.999 121.474 173.914V180.323L128.654 178.842C129.731 178.842 130.719 179.282 131.438 179.996C132.146 180.71 132.593 181.692 132.593 182.78C132.593 184.946 130.82 186.719 128.654 186.719H118.296C116.654 186.719 115.315 185.38 115.315 183.744V175.486L114.222 175.692C111.66 176.152 109.022 176.452 106.32 176.587C105.702 176.623 105.077 176.646 104.452 176.658C103.929 176.664 103.399 176.67 102.869 176.67C102.34 176.67 101.816 176.664 101.293 176.658C97.6519 176.575 94.1051 176.193 90.708 175.545V183.744C90.708 185.38 89.3693 186.719 87.7334 186.719H77.375C75.2094 186.719 73.4365 184.946 73.4365 182.78C73.4366 181.698 73.8828 180.71 74.5967 179.996C75.3106 179.282 76.2922 178.842 77.3809 178.842L84.5625 180.329V174.012C84.5607 174.011 84.5585 174.011 84.5566 174.011C75.0554 171.101 67.0472 165.931 61.6035 159.065C61.6034 159.064 61.6029 159.06 61.5977 159.06C57.2429 153.562 54.5298 146.977 54.0479 139.605C54.0479 139.558 54.0421 139.498 54.0361 139.444C53.9945 138.707 53.9707 137.963 53.9707 137.207C53.9707 136.327 54.0001 135.452 54.0596 134.59C54.9103 122.578 61.5857 111.922 71.6699 104.688V104.312C71.6759 103.069 71.7002 99.107 71.7002 97.3164C71.7002 87.6107 75.1002 79.1262 80.6113 73.0195C76.5243 71.0784 73.3021 68.9345 73.2832 68.9219C73.1815 68.9896 62.4888 76.0966 55.3486 76.0967C49.0716 76.0967 48.2867 70.6042 48.1885 69.2305L48.1738 68.9219C48.1738 68.9219 46.7914 70.3028 44.9375 71.8535C44.8406 73.5855 44.3346 75.3198 43.3799 76.9092C40.249 82.1272 33.5013 83.8046 28.3096 80.6562C23.1177 77.5072 21.4482 70.729 24.5791 65.5068L34.2949 49.3115L36.9199 54C41.1498 44.1254 49.4633 35.7339 60.2764 30.0674C59.9591 28.2556 60.2735 26.3273 61.3105 24.6279L68.4102 13L74.9639 24.5C79.2567 23.4182 83.762 22.7084 88.4189 22.4268V17.5293C88.4192 15.0279 90.4467 13.0001 92.9482 13Z" fill="#5DADEC"/>
<path d="M92.9482 13V7H92.948L92.9482 13ZM97.4785 17.5293H103.479V17.5287L97.4785 17.5293ZM97.4785 22.4199H91.4785C91.4785 25.5969 93.955 28.2232 97.1265 28.4096L97.4785 22.4199ZM135.07 36.1133L131.335 40.8084C132.679 41.8777 134.416 42.3199 136.108 42.0229C137.799 41.7259 139.283 40.7183 140.182 39.2551L135.07 36.1133ZM144.942 20.0518L150.147 17.0664C149.094 15.23 147.15 14.0846 145.033 14.0524C142.916 14.0203 140.939 15.1062 139.831 16.9099L144.942 20.0518ZM154.644 36.9648L149.439 39.9502C149.48 40.0225 149.524 40.0941 149.568 40.1647L154.644 36.9648ZM154.726 49.0645L149.615 45.9201L149.614 45.9228L154.726 49.0645ZM149.03 53.8281L146.824 48.2483C145.313 48.846 144.108 50.0315 143.486 51.5335C142.865 53.0355 142.879 54.7255 143.526 56.2167L149.03 53.8281ZM152.201 68.9219L146.201 68.9219V68.922L152.201 68.9219ZM148.614 76.0967V82.0967H148.614L148.614 76.0967ZM137.853 68.9219L142.095 64.6793C140.379 62.9632 137.798 62.4499 135.556 63.3787C133.314 64.3074 131.852 66.4954 131.853 68.9223L137.853 68.9219ZM130.679 76.0967L130.679 82.0967H130.679V76.0967ZM127.276 75.6621L128.62 69.8145C126.18 69.2538 123.648 70.2671 122.269 72.3564C120.89 74.4458 120.953 77.1721 122.427 79.1955L127.276 75.6621ZM134.044 97.3164H140.044H134.044ZM133.11 104.027L129.084 99.579C127.666 100.863 126.944 102.746 127.143 104.649C127.341 106.552 128.434 108.246 130.087 109.21L133.11 104.027ZM133.301 104.146L129.973 109.139C130.008 109.162 130.044 109.186 130.079 109.208L133.301 104.146ZM134.068 104.688L130.178 109.256C130.307 109.365 130.441 109.47 130.578 109.568L134.068 104.688ZM137.867 107.712L133.894 112.208C134.296 112.563 134.744 112.863 135.226 113.099L137.867 107.712ZM156.777 116.982L159.42 111.596L159.418 111.595L156.777 116.982ZM160.68 130.367L156.667 125.907L156.665 125.909L160.68 130.367ZM151.765 136.278L149.346 130.788C147.115 131.77 145.701 134.005 145.767 136.441L151.765 136.278ZM151.779 137.207V143.207C153.371 143.207 154.897 142.575 156.022 141.45C157.147 140.324 157.779 138.798 157.779 137.207L151.779 137.207ZM151.773 137.207V131.207C148.46 131.207 145.773 133.893 145.773 137.207H151.773ZM151.702 139.54L157.677 140.083C157.684 140.012 157.689 139.94 157.693 139.868L151.702 139.54ZM151.69 139.724L157.676 140.137C157.686 140 157.69 139.863 157.69 139.726L151.69 139.724ZM144.141 159.06L139.44 155.33L139.437 155.335L144.141 159.06ZM121.474 173.914L119.691 168.185C117.183 168.965 115.474 171.287 115.474 173.914H121.474ZM121.474 180.323H115.474C115.474 182.127 116.285 183.835 117.684 184.975C119.082 186.114 120.919 186.564 122.686 186.199L121.474 180.323ZM128.654 178.842L128.655 172.842C128.247 172.842 127.841 172.883 127.442 172.966L128.654 178.842ZM131.438 179.996L135.699 175.771C135.687 175.759 135.675 175.748 135.663 175.736L131.438 179.996ZM132.593 182.78H138.593H132.593ZM128.654 186.719V192.719H128.655L128.654 186.719ZM118.296 186.719L118.295 192.719H118.296V186.719ZM115.315 183.744H109.315V183.744L115.315 183.744ZM115.315 175.486H121.315C121.315 173.701 120.52 172.008 119.145 170.868C117.771 169.728 115.96 169.259 114.205 169.59L115.315 175.486ZM114.222 175.692L115.28 181.598C115.298 181.595 115.315 181.592 115.332 181.589L114.222 175.692ZM106.32 176.587L106.02 170.594C106.005 170.595 105.99 170.596 105.975 170.597L106.32 176.587ZM104.452 176.658L104.52 182.658C104.536 182.658 104.551 182.657 104.566 182.657L104.452 176.658ZM102.869 176.67L102.869 182.67H102.869V176.67ZM101.293 176.658L101.156 182.657C101.179 182.657 101.202 182.658 101.225 182.658L101.293 176.658ZM90.708 175.545L91.8331 169.651C90.0764 169.316 88.2618 169.782 86.8838 170.922C85.5057 172.061 84.708 173.757 84.708 175.545H90.708ZM87.7334 186.719V192.719H87.734L87.7334 186.719ZM77.375 186.719L77.3748 192.719H77.375V186.719ZM73.4365 182.78L67.4365 182.78V182.78H73.4365ZM74.5967 179.996L70.3541 175.753L70.354 175.753L74.5967 179.996ZM77.3809 178.842L78.5976 172.966C78.1973 172.884 77.7894 172.842 77.3806 172.842L77.3809 178.842ZM84.5625 180.329L83.3457 186.204C85.1129 186.57 86.951 186.122 88.3506 184.982C89.7502 183.843 90.5625 182.134 90.5625 180.329H84.5625ZM84.5625 174.012H90.5625C90.5625 171.385 88.8538 169.063 86.3457 168.283L84.5625 174.012ZM84.5566 174.011L86.3404 168.282C86.3314 168.279 86.3224 168.276 86.3133 168.274L84.5566 174.011ZM61.6035 159.065L55.6173 159.471C55.6994 160.683 56.1474 161.841 56.9021 162.793L61.6035 159.065ZM61.5977 159.06L56.8946 162.785C58.0327 164.222 59.7649 165.06 61.5977 165.06V159.06ZM54.0479 139.605H48.0479C48.0479 139.736 48.0521 139.867 48.0606 139.997L54.0479 139.605ZM54.0361 139.444L48.0457 139.783C48.0518 139.891 48.0608 139.999 48.0728 140.107L54.0361 139.444ZM53.9707 137.207L47.9707 137.207V137.207H53.9707ZM54.0596 134.59L48.0746 134.166L48.0738 134.177L54.0596 134.59ZM71.6699 104.688L75.1674 109.563C76.7383 108.436 77.6699 106.621 77.6699 104.688H71.6699ZM71.6699 104.312L65.67 104.284C65.6699 104.293 65.6699 104.303 65.6699 104.312H71.6699ZM71.7002 97.3164H65.7002H71.7002ZM80.6113 73.0195L85.0656 77.0394C86.3358 75.632 86.8661 73.7069 86.4957 71.8475C86.1254 69.9881 84.898 68.4131 83.1854 67.5998L80.6113 73.0195ZM73.2832 68.9219L76.6102 63.9287C74.5962 62.5868 71.9733 62.5862 69.9587 63.9271L73.2832 68.9219ZM55.3486 76.0967V82.0967H55.3487L55.3486 76.0967ZM48.1885 69.2305L42.1952 69.515C42.1975 69.5627 42.2003 69.6105 42.2037 69.6582L48.1885 69.2305ZM48.1738 68.9219L54.1671 68.6374C54.0545 66.2656 52.5538 64.1833 50.3393 63.3263C48.1249 62.4693 45.6134 62.9988 43.9335 64.6769L48.1738 68.9219ZM44.9375 71.8535L41.0879 67.2513C39.8147 68.3162 39.0396 69.861 38.9469 71.5182L44.9375 71.8535ZM43.3799 76.9092L38.2365 73.8196L38.235 73.8221L43.3799 76.9092ZM28.3096 80.6562L25.198 85.7863L25.1984 85.7866L28.3096 80.6562ZM24.5791 65.5068L19.434 62.4202L19.4331 62.4216L24.5791 65.5068ZM34.2949 49.3115L39.5302 46.3804C38.4849 44.5133 36.5243 43.3442 34.3848 43.3122C32.2453 43.2801 30.2506 44.39 29.1498 46.2249L34.2949 49.3115ZM36.9199 54L31.6846 56.9312C32.8013 58.9256 34.9542 60.1124 37.2368 59.9916C39.5194 59.8709 41.5352 58.4637 42.4352 56.3625L36.9199 54ZM60.2764 30.0674L63.0614 35.3819C65.3732 34.1704 66.6367 31.6032 66.1864 29.0323L60.2764 30.0674ZM61.3105 24.6279L56.1896 21.5013L56.1888 21.5026L61.3105 24.6279ZM68.4102 13L73.6231 10.0292C72.5718 8.18445 70.6237 7.03271 68.5007 7.00068C66.3776 6.96866 64.3957 8.06111 63.2892 9.87334L68.4102 13ZM74.9639 24.5L69.751 27.4708C71.0852 29.8121 73.8168 30.9766 76.43 30.3181L74.9639 24.5ZM88.4189 22.4268L88.7812 28.4158C91.9484 28.2243 94.4189 25.5998 94.4189 22.4268H88.4189ZM88.4189 17.5293L82.4189 17.5287V17.5293H88.4189ZM92.9482 13V19C92.1371 19 91.4786 18.3431 91.4785 17.5299L97.4785 17.5293L103.479 17.5287C103.478 11.7126 98.7617 7 92.9482 7V13ZM97.4785 17.5293H91.4785V22.4199H97.4785H103.479V17.5293H97.4785ZM97.4785 22.4199L97.1265 28.4096C110.656 29.2047 122.627 33.8804 131.335 40.8084L135.07 36.1133L138.806 31.4181C128.018 22.8346 113.636 17.3592 97.8305 16.4303L97.4785 22.4199ZM135.07 36.1133L140.182 39.2551L150.054 23.1936L144.942 20.0518L139.831 16.9099L129.959 32.9715L135.07 36.1133ZM144.942 20.0518L139.738 23.0371L149.439 39.9502L154.644 36.9648L159.848 33.9795L150.147 17.0664L144.942 20.0518ZM154.644 36.9648L149.568 40.1647C150.663 41.9012 150.734 44.1022 149.615 45.9201L154.726 49.0645L159.836 52.2088C163.461 46.3177 163.141 39.1935 159.719 33.765L154.644 36.9648ZM154.726 49.0645L149.614 45.9228C148.949 47.0038 147.97 47.7952 146.824 48.2483L149.03 53.8281L151.236 59.4079C154.679 58.0466 157.75 55.6025 159.837 52.2061L154.726 49.0645ZM149.03 53.8281L143.526 56.2167C145.269 60.2328 146.201 64.499 146.201 68.9219L152.201 68.9219L158.201 68.9219C158.201 62.7793 156.9 56.8919 154.534 51.4395L149.03 53.8281ZM152.201 68.9219C146.201 68.922 146.201 68.9206 146.201 68.9191C146.201 68.9187 146.201 68.9173 146.201 68.9164C146.201 68.9147 146.201 68.913 146.201 68.9115C146.201 68.9084 146.201 68.9057 146.201 68.9034C146.201 68.8988 146.201 68.8957 146.201 68.8942C146.201 68.8911 146.201 68.8941 146.201 68.9026C146.201 68.9197 146.2 68.9587 146.198 69.0161C146.194 69.1324 146.185 69.3168 146.166 69.5448C146.126 70.0274 146.051 70.5786 145.932 71.0542C145.792 71.6146 145.7 71.6262 145.888 71.3759C146.012 71.2097 146.304 70.8745 146.821 70.5791C147.377 70.2614 148.01 70.0967 148.614 70.0967L148.614 76.0967L148.614 82.0967C151.869 82.0966 154.165 80.3398 155.488 78.5752C156.685 76.9797 157.265 75.1975 157.574 73.9642C157.903 72.6461 158.053 71.4037 158.124 70.541C158.161 70.0964 158.18 69.7203 158.19 69.4442C158.195 69.3055 158.198 69.1903 158.199 69.1023C158.2 69.0583 158.201 69.0209 158.201 68.9907C158.201 68.9756 158.201 68.9623 158.201 68.9508C158.201 68.945 158.201 68.9397 158.201 68.9349C158.201 68.9325 158.201 68.9302 158.201 68.928C158.201 68.9269 158.201 68.9253 158.201 68.9248C158.201 68.9233 158.201 68.9218 152.201 68.9219ZM148.614 76.0967V70.0967C149.375 70.0967 149.415 70.3481 148.396 69.7662C147.599 69.3106 146.638 68.6254 145.636 67.8241C144.658 67.0417 143.76 66.2442 143.099 65.6342C142.772 65.3321 142.511 65.083 142.335 64.9138C142.248 64.8294 142.182 64.7653 142.141 64.725C142.121 64.7048 142.107 64.6906 142.099 64.6829C142.095 64.679 142.093 64.6767 142.092 64.6761C142.092 64.6758 142.092 64.6759 142.092 64.6764C142.093 64.6767 142.093 64.6771 142.093 64.6776C142.094 64.6778 142.094 64.6782 142.094 64.6783C142.095 64.6788 142.095 64.6793 137.853 68.9219C133.61 73.1644 133.61 73.165 133.611 73.1656C133.611 73.1658 133.612 73.1664 133.612 73.1669C133.613 73.1678 133.614 73.1688 133.615 73.1699C133.618 73.1722 133.62 73.1749 133.623 73.178C133.63 73.1843 133.638 73.1923 133.648 73.202C133.667 73.2214 133.694 73.2475 133.726 73.2799C133.792 73.3447 133.884 73.4348 134 73.5465C134.231 73.7697 134.558 74.0811 134.96 74.4517C135.756 75.187 136.876 76.1832 138.14 77.1944C139.38 78.1869 140.886 79.2954 142.442 80.185C143.778 80.9484 146.06 82.0967 148.614 82.0967V76.0967ZM137.853 68.9219C131.853 68.9223 131.853 68.9194 131.853 68.9165C131.853 68.9156 131.853 68.9127 131.853 68.9108C131.853 68.9071 131.853 68.9035 131.853 68.9C131.853 68.8929 131.853 68.8862 131.853 68.8799C131.853 68.8672 131.853 68.856 131.853 68.8461C131.853 68.8264 131.854 68.8122 131.854 68.803C131.855 68.7848 131.855 68.7858 131.854 68.8031C131.851 68.8398 131.843 68.9314 131.822 69.057C131.775 69.3367 131.693 69.6179 131.589 69.8264C131.497 70.0115 131.452 70.0139 131.498 69.9835C131.581 69.928 131.422 70.0967 130.679 70.0967V76.0967V82.0967C133.522 82.0967 136.054 81.3685 138.155 79.9677C140.218 78.592 141.519 76.8008 142.323 75.1921C143.115 73.607 143.481 72.0945 143.659 71.0289C143.75 70.4819 143.798 70.0129 143.823 69.6572C143.836 69.4784 143.843 69.3252 143.847 69.2019C143.85 69.1402 143.851 69.0856 143.852 69.0388C143.852 69.0154 143.852 68.9939 143.852 68.9743C143.852 68.9645 143.852 68.9552 143.852 68.9464C143.853 68.942 143.853 68.9377 143.853 68.9336C143.853 68.9315 143.853 68.9285 143.853 68.9274C143.853 68.9244 143.853 68.9215 137.853 68.9219ZM130.679 76.0967L130.679 70.0967C130.191 70.0967 129.51 70.0191 128.62 69.8145L127.276 75.6621L125.933 81.5097C127.407 81.8486 129.026 82.0967 130.679 82.0967L130.679 76.0967ZM127.276 75.6621L122.427 79.1955C125.887 83.9437 128.044 90.1627 128.044 97.3164H134.044H140.044C140.044 87.7205 137.138 79.007 132.126 72.1287L127.276 75.6621ZM134.044 97.3164H128.044C128.044 97.5977 128.021 98.0688 127.965 98.6885C127.911 99.2866 127.835 99.9311 127.751 100.526C127.664 101.136 127.579 101.617 127.517 101.907C127.483 102.067 127.478 102.063 127.511 101.958C127.525 101.913 127.585 101.721 127.703 101.46C127.763 101.327 127.873 101.098 128.042 100.826C128.189 100.589 128.52 100.089 129.084 99.579L133.11 104.027L137.137 108.476C138.136 107.571 138.572 106.548 138.639 106.401C138.799 106.045 138.904 105.73 138.964 105.538C139.09 105.137 139.184 104.735 139.251 104.419C139.393 103.759 139.522 102.98 139.631 102.213C139.842 100.732 140.044 98.8006 140.044 97.3164H134.044ZM133.11 104.027L130.087 109.21C130.033 109.179 129.996 109.154 129.973 109.139L133.301 104.146L136.629 99.1542C136.499 99.0675 136.33 98.9593 136.134 98.8448L133.11 104.027ZM133.301 104.146L130.079 109.208C130.22 109.298 130.296 109.353 130.311 109.364C130.318 109.37 130.311 109.364 130.288 109.347C130.277 109.338 130.262 109.326 130.244 109.311C130.235 109.303 130.225 109.295 130.214 109.286C130.208 109.281 130.203 109.276 130.197 109.271C130.194 109.269 130.191 109.266 130.188 109.264C130.186 109.262 130.185 109.261 130.183 109.26C130.182 109.259 130.182 109.258 130.181 109.258C130.18 109.257 130.18 109.257 130.18 109.257C130.179 109.256 130.178 109.256 134.068 104.688C137.958 100.119 137.958 100.119 137.957 100.118C137.957 100.118 137.956 100.118 137.956 100.117C137.955 100.117 137.954 100.116 137.954 100.115C137.952 100.114 137.95 100.112 137.949 100.111C137.945 100.108 137.942 100.105 137.938 100.103C137.932 100.097 137.924 100.091 137.917 100.085C137.902 100.072 137.886 100.059 137.87 100.045C137.836 100.017 137.798 99.9865 137.756 99.953C137.671 99.8858 137.57 99.8075 137.451 99.7194C137.213 99.5431 136.904 99.3279 136.522 99.0846L133.301 104.146ZM134.068 104.688L130.578 109.568C131.736 110.396 132.842 111.278 133.894 112.208L137.867 107.712L141.84 103.216C140.485 102.018 139.057 100.878 137.558 99.8069L134.068 104.688ZM137.867 107.712L135.226 113.099L154.136 122.37L156.777 116.982L159.418 111.595L140.508 102.324L137.867 107.712ZM156.777 116.982L154.134 122.369C155.768 123.171 156.529 124.334 156.749 125.084C156.854 125.446 156.823 125.649 156.808 125.71C156.801 125.739 156.791 125.795 156.667 125.907L160.68 130.367L164.692 134.828C168.693 131.229 169.551 126.115 168.267 121.72C167.015 117.431 163.785 113.737 159.42 111.596L156.777 116.982ZM160.68 130.367L156.665 125.909C154.557 127.807 152.079 129.583 149.346 130.788L151.765 136.278L154.184 141.769C158.397 139.913 161.932 137.314 164.695 134.826L160.68 130.367ZM151.765 136.278L145.767 136.441C145.775 136.725 145.779 136.974 145.779 137.207L151.779 137.207L157.779 137.207C157.779 136.819 157.771 136.449 157.762 136.116L151.765 136.278ZM151.779 137.207V131.207H151.773V137.207V143.207H151.779V137.207ZM151.773 137.207H145.773C145.773 137.847 145.749 138.516 145.711 139.212L151.702 139.54L157.693 139.868C157.738 139.041 157.773 138.138 157.773 137.207H151.773ZM151.702 139.54L145.727 138.997C145.727 138.999 145.717 139.102 145.71 139.203C145.701 139.319 145.691 139.501 145.69 139.721L151.69 139.724L157.69 139.726C157.69 139.887 157.683 140.01 157.679 140.065C157.677 140.093 157.675 140.112 157.675 140.113C157.675 140.114 157.675 140.113 157.675 140.108C157.676 140.105 157.676 140.102 157.676 140.098C157.677 140.094 157.677 140.089 157.677 140.083L151.702 139.54ZM151.69 139.724L145.705 139.31C145.287 145.363 143.068 150.758 139.44 155.33L144.141 159.06L148.841 162.789C153.899 156.414 157.083 148.731 157.676 140.137L151.69 139.724ZM144.141 159.06L139.437 155.335C134.914 161.047 128.092 165.571 119.691 168.185L121.474 173.914L123.256 179.643C133.595 176.427 142.599 170.672 148.845 162.784L144.141 159.06ZM121.474 173.914H115.474V180.323H121.474H127.474V173.914H121.474ZM121.474 180.323L122.686 186.199L129.867 184.718L128.654 178.842L127.442 172.966L120.261 174.447L121.474 180.323ZM128.654 178.842L128.654 184.842C128.068 184.842 127.559 184.599 127.213 184.256L131.438 179.996L135.663 175.736C133.878 173.965 131.394 172.842 128.655 172.842L128.654 178.842ZM131.438 179.996L127.178 184.221C126.842 183.882 126.593 183.371 126.593 182.78H132.593H138.593C138.593 180.012 137.451 177.538 135.699 175.771L131.438 179.996ZM132.593 182.78H126.593C126.593 181.632 127.506 180.719 128.654 180.719L128.654 186.719L128.655 192.719C134.133 192.719 138.593 188.26 138.593 182.78H132.593ZM128.654 186.719V180.719H118.296V186.719V192.719H128.654V186.719ZM118.296 186.719L118.296 180.719C119.96 180.719 121.315 182.058 121.315 183.744L115.315 183.744L109.315 183.744C109.316 188.702 113.348 192.718 118.295 192.719L118.296 186.719ZM115.315 183.744H121.315V175.486H115.315H109.315V183.744H115.315ZM115.315 175.486L114.205 169.59L113.111 169.796L114.222 175.692L115.332 181.589L116.426 181.383L115.315 175.486ZM114.222 175.692L113.163 169.787C110.858 170.2 108.474 170.471 106.02 170.594L106.32 176.587L106.621 182.579C109.57 182.432 112.461 182.104 115.28 181.598L114.222 175.692ZM106.32 176.587L105.975 170.597C105.435 170.628 104.887 170.649 104.338 170.659L104.452 176.658L104.566 182.657C105.266 182.644 105.968 182.617 106.666 182.577L106.32 176.587ZM104.452 176.658L104.384 170.659C103.858 170.665 103.36 170.67 102.869 170.67V176.67V182.67C103.437 182.67 104 182.664 104.52 182.658L104.452 176.658ZM102.869 176.67L102.869 170.67C102.379 170.67 101.888 170.665 101.361 170.659L101.293 176.658L101.225 182.658C101.745 182.664 102.301 182.67 102.869 182.67L102.869 176.67ZM101.293 176.658L101.43 170.66C98.1178 170.584 94.9015 170.237 91.8331 169.651L90.708 175.545L89.583 181.439C93.3088 182.15 97.186 182.566 101.156 182.657L101.293 176.658ZM90.708 175.545H84.708V183.744H90.708H96.708V175.545H90.708ZM90.708 183.744H84.708C84.708 182.066 86.0561 180.719 87.7327 180.719L87.7334 186.719L87.734 192.719C92.6826 192.718 96.708 188.694 96.708 183.744H90.708ZM87.7334 186.719V180.719H77.375V186.719V192.719H87.7334V186.719ZM77.375 186.719L77.3752 180.719C78.523 180.719 79.4365 181.632 79.4365 182.78H73.4365H67.4365C67.4365 188.26 71.8959 192.719 77.3748 192.719L77.375 186.719ZM73.4365 182.78L79.4365 182.781C79.4365 183.374 79.1893 183.889 78.8393 184.239L74.5967 179.996L70.354 175.753C68.5763 177.531 67.4367 180.021 67.4365 182.78L73.4365 182.78ZM74.5967 179.996L78.8393 184.239C78.4765 184.602 77.951 184.842 77.3811 184.842L77.3809 178.842L77.3806 172.842C74.6334 172.842 72.1446 173.963 70.3541 175.753L74.5967 179.996ZM77.3809 178.842L76.1641 184.717L83.3457 186.204L84.5625 180.329L85.7793 174.454L78.5976 172.966L77.3809 178.842ZM84.5625 180.329H90.5625V174.012H84.5625H78.5625V180.329H84.5625ZM84.5625 174.012L86.3457 168.283C86.245 168.251 86.1502 168.225 86.0626 168.202C85.9749 168.18 85.8933 168.161 85.8189 168.145C85.7445 168.129 85.6761 168.116 85.6149 168.105C85.5537 168.094 85.4984 168.085 85.45 168.078C85.4018 168.07 85.359 168.065 85.3232 168.06C85.2876 168.055 85.257 168.052 85.2335 168.049C85.2102 168.047 85.1913 168.045 85.1799 168.043C85.174 168.043 85.1693 168.042 85.1664 168.042C85.165 168.042 85.1638 168.042 85.163 168.042C85.1627 168.042 85.1624 168.042 85.1622 168.042C85.1621 168.042 85.162 168.042 85.1619 168.042C85.1619 168.042 85.1618 168.042 85.1618 168.042C85.1614 168.041 85.1636 168.042 85.1661 168.042C85.1689 168.042 85.1735 168.043 85.1792 168.043C85.1904 168.044 85.209 168.046 85.2321 168.049C85.2554 168.052 85.2857 168.055 85.3212 168.06C85.3567 168.064 85.3993 168.07 85.4473 168.077C85.4954 168.085 85.5506 168.093 85.6116 168.104C85.6726 168.115 85.7407 168.128 85.8149 168.144C85.8891 168.16 85.9705 168.179 86.0579 168.202C86.1454 168.224 86.24 168.251 86.3404 168.282L84.5566 174.011L82.7729 179.739C82.8735 179.771 82.9683 179.797 83.056 179.82C83.1437 179.843 83.2254 179.862 83.2998 179.878C83.3742 179.894 83.4426 179.907 83.5038 179.918C83.565 179.929 83.6205 179.938 83.6688 179.945C83.7171 179.952 83.7599 179.958 83.7957 179.962C83.8314 179.967 83.862 179.971 83.8855 179.973C83.9089 179.976 83.9278 179.978 83.9392 179.979C83.945 179.98 83.9498 179.98 83.9527 179.98C83.9541 179.981 83.9553 179.981 83.9561 179.981C83.9565 179.981 83.9568 179.981 83.957 179.981C83.9571 179.981 83.9571 179.981 83.9572 179.981C83.9572 179.981 83.9573 179.981 83.9573 179.981C83.9577 179.981 83.9556 179.981 83.9531 179.98C83.9503 179.98 83.9457 179.98 83.94 179.979C83.9289 179.978 83.9102 179.976 83.8872 179.973C83.8639 179.971 83.8336 179.967 83.7981 179.963C83.7626 179.958 83.7201 179.952 83.6721 179.945C83.624 179.938 83.5689 179.929 83.5079 179.918C83.447 179.907 83.3788 179.894 83.3047 179.878C83.2305 179.862 83.1492 179.844 83.0617 179.821C82.9743 179.798 82.8798 179.772 82.7793 179.741L84.5625 174.012ZM84.5566 174.011L86.3133 168.274C77.787 165.663 70.88 161.108 66.305 155.338L61.6035 159.065L56.9021 162.793C63.2145 170.754 72.3239 176.54 82.7999 179.748L84.5566 174.011ZM61.6035 159.065L67.5898 158.66C67.5703 158.372 67.4906 157.207 66.7397 155.962C65.7343 154.296 63.8556 153.06 61.5977 153.06V159.06V165.06C60.6566 165.06 59.5859 164.835 58.5632 164.235C57.5566 163.644 56.8862 162.859 56.4653 162.162C55.716 160.92 55.6367 159.758 55.6173 159.471L61.6035 159.065ZM61.5977 159.06L66.3007 155.334C62.6616 150.74 60.4333 145.305 60.0351 139.214L54.0479 139.605L48.0606 139.997C48.6263 148.648 51.8241 156.385 56.8946 162.785L61.5977 159.06ZM54.0479 139.605H60.0479C60.0479 139.188 60.0045 138.827 59.9994 138.782L54.0361 139.444L48.0728 140.107C48.0728 140.106 48.0679 140.064 48.0629 140C48.0602 139.967 48.0567 139.917 48.0538 139.857C48.051 139.797 48.0479 139.711 48.0479 139.605H54.0479ZM54.0361 139.444L60.0266 139.106C59.9905 138.467 59.9707 137.836 59.9707 137.207H53.9707H47.9707C47.9707 138.089 47.9985 138.946 48.0457 139.783L54.0361 139.444ZM53.9707 137.207L59.9707 137.207C59.9707 136.46 59.9957 135.723 60.0454 135.003L54.0596 134.59L48.0738 134.177C48.0045 135.181 47.9707 136.194 47.9707 137.207L53.9707 137.207ZM54.0596 134.59L60.0446 135.014C60.7512 125.037 66.3112 115.916 75.1674 109.563L71.6699 104.688L68.1724 99.8123C56.8602 107.928 49.0695 120.119 48.0746 134.166L54.0596 134.59ZM71.6699 104.688H77.6699V104.312H71.6699H65.6699V104.688H71.6699ZM71.6699 104.312L77.6699 104.341C77.6757 103.12 77.7002 99.126 77.7002 97.3164H71.7002H65.7002C65.7002 99.0879 65.6761 103.017 65.67 104.284L71.6699 104.312ZM71.7002 97.3164H77.7002C77.7002 89.0279 80.594 81.9942 85.0656 77.0394L80.6113 73.0195L76.1571 68.9996C69.6064 76.2581 65.7002 86.1935 65.7002 97.3164H71.7002ZM80.6113 73.0195L83.1854 67.5998C79.4769 65.8384 76.5292 63.8748 76.6102 63.9287L73.2832 68.9219L69.9562 73.915C70.0751 73.9942 73.5716 76.3184 78.0372 78.4393L80.6113 73.0195ZM73.2832 68.9219L69.9587 63.9271C70.0061 63.8956 67.5397 65.5379 64.2768 67.1657C60.7484 68.926 57.3942 70.0967 55.3486 70.0967L55.3486 76.0967L55.3487 82.0967C60.4432 82.0966 66.0055 79.7137 69.6339 77.9036C73.5278 75.9609 76.4587 74.0159 76.6077 73.9166L73.2832 68.9219ZM55.3486 76.0967V70.0967C55.0032 70.0967 54.7879 70.0592 54.674 70.0312C54.6161 70.017 54.5785 70.0038 54.5577 69.9956C54.5369 69.9874 54.5277 69.9823 54.5271 69.982C54.5265 69.9816 54.5296 69.9834 54.5345 69.987C54.5392 69.9906 54.5423 69.9934 54.5429 69.9941C54.5446 69.9958 54.5281 69.9802 54.4985 69.9341C54.4294 69.8266 54.3415 69.6349 54.2702 69.3626C54.201 69.0985 54.1786 68.8782 54.1732 68.8027L48.1885 69.2305L42.2037 69.6582C42.2813 70.7429 42.614 73.6383 44.4044 76.4233C46.448 79.6021 50.0714 82.0967 55.3486 82.0967V76.0967ZM48.1885 69.2305L54.1817 68.946L54.1671 68.6374L48.1738 68.9219L42.1806 69.2064L42.1952 69.515L48.1885 69.2305ZM48.1738 68.9219C43.9335 64.6769 43.9337 64.6767 43.9339 64.6765C43.934 64.6764 43.9342 64.6762 43.9343 64.6761C43.9346 64.6758 43.9348 64.6756 43.9351 64.6754C43.9355 64.6749 43.9358 64.6746 43.9361 64.6743C43.9367 64.6738 43.9369 64.6735 43.9368 64.6736C43.9366 64.6738 43.9351 64.6753 43.9324 64.678C43.9269 64.6835 43.9163 64.6939 43.901 64.7091C43.8702 64.7393 43.8203 64.7882 43.753 64.8535C43.6181 64.9842 43.4145 65.1794 43.1561 65.4207C42.6358 65.9064 41.9104 66.5633 41.0879 67.2513L44.9375 71.8535L48.7871 76.4558C49.8185 75.593 50.7112 74.7841 51.3457 74.1917C51.6646 73.8939 51.9224 73.6469 52.1047 73.4703C52.1959 73.3818 52.2685 73.3107 52.3206 73.2594C52.3467 73.2338 52.3677 73.213 52.3833 73.1975C52.3912 73.1897 52.3977 73.1833 52.4028 73.1781C52.4054 73.1756 52.4076 73.1733 52.4095 73.1715C52.4105 73.1705 52.4113 73.1697 52.4121 73.1689C52.4125 73.1685 52.4129 73.1681 52.4132 73.1678C52.4134 73.1676 52.4136 73.1674 52.4137 73.1673C52.4139 73.167 52.4142 73.1668 48.1738 68.9219ZM44.9375 71.8535L38.9469 71.5182C38.9029 72.3048 38.6751 73.0895 38.2365 73.8196L43.3799 76.9092L48.5233 79.9987C49.9942 77.5501 50.7783 74.8661 50.9281 72.1888L44.9375 71.8535ZM43.3799 76.9092L38.235 73.8221C36.8084 76.1996 33.7593 76.944 31.4207 75.5259L28.3096 80.6562L25.1984 85.7866C33.2433 90.6652 43.6895 88.0548 48.5248 79.9962L43.3799 76.9092ZM28.3096 80.6562L31.4212 75.5262C29.0648 74.0969 28.2845 70.995 29.7251 68.5921L24.5791 65.5068L19.4331 62.4216C14.612 70.463 17.1707 80.9175 25.198 85.7863L28.3096 80.6562ZM24.5791 65.5068L29.7243 68.5935L39.4401 52.3982L34.2949 49.3115L29.1498 46.2249L19.434 62.4202L24.5791 65.5068ZM34.2949 49.3115L29.0596 52.2427L31.6846 56.9312L36.9199 54L42.1552 51.0688L39.5302 46.3804L34.2949 49.3115ZM36.9199 54L42.4352 56.3625C46.0294 47.9721 53.2458 40.5256 63.0614 35.3819L60.2764 30.0674L57.4914 24.7529C45.6809 30.9421 36.2703 40.2787 31.4046 51.6375L36.9199 54ZM60.2764 30.0674L66.1864 29.0323C66.1115 28.6043 66.1824 28.1628 66.4323 27.7533L61.3105 24.6279L56.1888 21.5026C54.3647 24.4918 53.8067 27.9069 54.3663 31.1025L60.2764 30.0674ZM61.3105 24.6279L66.4315 27.7546L73.5311 16.1267L68.4102 13L63.2892 9.87334L56.1896 21.5013L61.3105 24.6279ZM68.4102 13L63.1972 15.9708L69.751 27.4708L74.9639 24.5L80.1768 21.5292L73.6231 10.0292L68.4102 13ZM74.9639 24.5L76.43 30.3181C80.3618 29.3273 84.4975 28.6749 88.7812 28.4158L88.4189 22.4268L88.0567 16.4377C83.0265 16.7419 78.1517 17.5091 73.4977 18.6819L74.9639 24.5ZM88.4189 22.4268H94.4189V17.5293H88.4189H82.4189V22.4268H88.4189ZM88.4189 17.5293L94.4189 17.5299C94.4189 18.3413 93.7609 19 92.9485 19L92.9482 13L92.948 7C87.1325 7.00023 82.4195 11.7145 82.4189 17.5287L88.4189 17.5293Z" fill="white" mask="url(#path-1-outside-1_1347_12007)"/>
<path d="M132.2 104.934L156.777 116.982C162.775 119.925 164.76 126.696 160.68 130.367C154.311 136.103 144.039 141.813 131.708 135.771C121.408 130.725 117.594 121.351 116.384 113.124C115.24 105.394 123.962 100.891 132.205 104.928L132.2 104.934Z" fill="#276286"/>
<path d="M132.593 182.78C132.593 184.946 130.82 186.719 128.654 186.719H118.296C116.654 186.719 115.315 185.38 115.315 183.744V151.135C115.315 149.493 116.654 148.154 118.296 148.154H118.492C120.134 148.154 121.473 149.493 121.473 151.135V180.323L128.654 178.841C129.731 178.841 130.719 179.282 131.438 179.996C132.146 180.71 132.593 181.691 132.593 182.78Z" fill="#474747"/>
<path d="M90.7077 151.136V183.745C90.7077 185.381 89.3691 186.719 87.733 186.719H77.375C75.2095 186.719 73.4365 184.947 73.4365 182.781C73.4365 181.698 73.8827 180.711 74.5967 179.997C75.3106 179.283 76.2923 178.842 77.381 178.842L84.562 180.33V151.136C84.562 149.5 85.9006 148.161 87.5367 148.161H87.739C89.3751 148.161 90.7137 149.5 90.7137 151.136H90.7077Z" fill="#474747"/>
<path d="M151.774 137.208C151.774 137.993 151.744 138.778 151.702 139.54C151.696 139.605 151.69 139.665 151.69 139.724C151.185 147.048 148.483 153.586 144.14 159.06C138.756 165.86 130.843 171 121.473 173.916C119.486 174.546 117.427 175.064 115.315 175.486C112.412 176.063 109.408 176.432 106.32 176.587C105.701 176.623 105.076 176.646 104.452 176.658C103.928 176.664 103.399 176.67 102.869 176.67C102.34 176.67 101.816 176.664 101.293 176.658C97.6515 176.575 94.1056 176.194 90.7085 175.546C88.6024 175.141 86.5439 174.629 84.5568 174.011C75.0555 171.101 67.0476 165.931 61.6038 159.066C61.6038 159.066 61.6038 159.06 61.5979 159.06C57.2429 153.563 54.5299 146.977 54.048 139.605C54.048 139.558 54.0421 139.498 54.0361 139.445C53.9945 138.707 53.9707 137.963 53.9707 137.208C53.9707 136.327 54.0005 135.452 54.0599 134.59C54.9107 122.578 61.586 111.922 71.6703 104.688V104.313C71.6762 103.07 71.7 99.1073 71.7 97.3165C71.7 77.6477 85.6574 62.9883 102.869 62.9883C103.464 62.9883 104.059 63.0002 104.648 63.0478C121.039 64.0116 134.044 78.3319 134.044 97.3165C134.044 99.4524 133.414 103.754 133.11 104.028C133.182 104.069 133.247 104.111 133.3 104.146C133.824 104.48 134.068 104.688 134.068 104.688C144.152 111.899 150.822 122.542 151.678 134.548C151.744 135.429 151.779 136.315 151.779 137.208H151.774Z" fill="#4B9AE8"/>
<path d="M109.285 93.3692C109.332 96.2365 106.892 101.254 103.669 101.749C100.447 102.245 96.3612 98.1172 95.7584 95.1088C95.1565 92.1063 97.1196 89.7025 101.931 88.9681C106.795 88.226 109.238 90.5019 109.285 93.3692Z" fill="#EAC00F"/>
<path opacity="0.5" d="M109.284 93.3691C109.33 96.2305 106.897 101.253 103.668 101.749C103.162 101.823 102.634 101.792 102.097 101.655C104.576 100.185 106.305 96.2284 106.27 93.8103C106.228 91.2611 104.288 89.182 100.435 89.2711C100.899 89.155 101.395 89.0524 101.924 88.9689C106.794 88.226 109.232 90.5086 109.278 93.37L109.284 93.3691Z" fill="#AF8F0C"/>
<path d="M119.123 94.2701C122.704 94.2701 125.607 91.3667 125.607 87.7852C125.607 84.2037 122.704 81.3003 119.123 81.3003C115.541 81.3003 112.638 84.2037 112.638 87.7852C112.638 91.3667 115.541 94.2701 119.123 94.2701Z" fill="white"/>
<path d="M119.124 91.2419C121.033 91.2419 122.58 89.6943 122.58 87.7852C122.58 85.8762 121.033 84.3286 119.124 84.3286C117.215 84.3286 115.667 85.8762 115.667 87.7852C115.667 89.6943 117.215 91.2419 119.124 91.2419Z" fill="#040000"/>
<path d="M85.1275 94.2701C88.709 94.2701 91.6123 91.3667 91.6123 87.7852C91.6123 84.2037 88.709 81.3003 85.1275 81.3003C81.546 81.3003 78.6426 84.2037 78.6426 87.7852C78.6426 91.3667 81.546 94.2701 85.1275 94.2701Z" fill="white"/>
<path d="M85.1275 91.2419C87.0366 91.2419 88.5841 89.6943 88.5841 87.7852C88.5841 85.8762 87.0366 84.3286 85.1275 84.3286C83.2185 84.3286 81.6709 85.8762 81.6709 87.7852C81.6709 89.6943 83.2185 91.2419 85.1275 91.2419Z" fill="#040000"/>
<path opacity="0.8" d="M88.4191 17.5297C88.4191 15.028 90.447 13 92.9488 13C95.4501 13 97.4785 15.028 97.4785 17.5297V107.96H88.4191V17.5297Z" fill="#3D3660"/>
<path d="M93.0123 22.2891C125.699 22.2891 152.2 43.1663 152.2 68.9221C152.2 68.9221 152.2 76.0964 148.613 76.0964C145.026 76.0964 137.852 68.9221 137.852 68.9221H48.1728C48.1728 68.9221 40.9985 76.0964 37.4114 76.0964C33.8242 76.0964 33.8242 68.9221 33.8242 68.9221C33.8246 43.1663 60.3227 22.2891 93.0123 22.2891Z" fill="#744EAA"/>
<path d="M93.0133 22.2891C117.776 22.2891 137.853 43.1663 137.853 68.9221C137.853 68.9221 137.853 76.0964 130.678 76.0964C123.504 76.0964 112.743 68.9221 112.743 68.9221H73.2839C73.2839 68.9221 62.5224 76.0964 55.3481 76.0964C48.1738 76.0964 48.1738 68.9221 48.1738 68.9221C48.1738 43.1663 68.2476 22.2891 93.0133 22.2891Z" fill="#9266CC"/>
<path d="M93.0116 22.2891C105.889 22.2891 112.741 43.1663 112.741 68.9221C112.741 68.9221 101.979 76.0964 94.8052 76.0964H91.218C84.0437 76.0964 73.2822 68.9221 73.2822 68.9221C73.2822 43.1663 80.1337 22.2891 93.0116 22.2891Z" fill="#744EAA"/>
<path d="M92.9499 103.413C90.4481 103.413 88.4202 105.441 88.4202 107.943V123.978C88.4202 132.685 95.4308 139.696 104.138 139.696C112.858 139.696 119.856 132.628 119.856 123.978C119.856 121.476 117.828 119.448 115.327 119.448C112.825 119.448 110.797 121.476 110.797 123.978C110.797 127.648 107.83 130.637 104.138 130.637C100.434 130.637 97.4796 127.682 97.4796 123.978V107.943C97.4796 105.441 95.4512 103.413 92.9499 103.413Z" fill="#8C5543"/>
<path d="M81.6859 109.305L103.245 124.402C108.506 128.09 109.386 134.818 104.964 137.699C98.0609 142.201 87.454 146.101 76.6366 138.528C67.6013 132.204 65.3702 122.731 65.4435 114.735C65.5054 107.222 74.4607 104.239 81.6922 109.3L81.6859 109.305Z" fill="#276286"/>
<path d="M138.496 53.0048C132.905 49.6942 131.107 42.5684 134.479 37.0784L144.943 20.0522L154.644 36.9654C156.902 40.548 157.098 45.2105 154.726 49.065C151.354 54.551 144.087 56.3149 138.496 53.0048Z" fill="#7AB9F8"/>
<path d="M28.309 80.6561C23.1172 77.507 21.4483 70.7288 24.5791 65.5067L34.2954 49.311L43.3037 65.3992C45.401 68.807 45.5824 73.242 43.38 76.9085C40.2491 82.1269 33.5009 83.8048 28.309 80.6561Z" fill="#7AB9F8"/>
<path d="M64.0359 35.5042C60.2419 33.2433 59.0223 28.3769 61.3102 24.6276L68.4105 13L74.9936 24.5505C76.5262 26.9971 76.6587 30.1812 75.0493 32.8136C72.7614 36.5601 67.83 37.7648 64.0359 35.5042Z" fill="#7AB9F8"/>
</svg>
