<svg width="200" height="200" viewBox="0 0 200 200" fill="none" xmlns="http://www.w3.org/2000/svg">
<mask id="path-1-outside-1_1062_20370" maskUnits="userSpaceOnUse" x="23" y="16" width="155" height="169" fill="black">
<rect fill="white" x="23" y="16" width="155" height="169"/>
<path d="M100.002 22C139.214 22.0001 171.003 43.2631 171.003 81.168C171.003 81.5347 170.629 85.968 170.393 88.3057V88.3066C170.328 88.9405 161.558 159.106 161.537 159.27C161.537 169.726 153.059 178.204 142.604 178.204H57.4014C46.9454 178.204 38.4678 169.726 38.4678 159.27C38.4477 159.11 29.8817 91.3188 29.5928 88.3115L29.5957 88.3105C29.5944 88.3105 29.593 88.3105 29.5918 88.3105C29.2461 84.7569 29.0002 81.4492 29 81.168C29 43.263 60.7904 22 100.002 22Z"/>
</mask>
<path d="M100.002 22C139.214 22.0001 171.003 43.2631 171.003 81.168C171.003 81.5347 170.629 85.968 170.393 88.3057V88.3066C170.328 88.9405 161.558 159.106 161.537 159.27C161.537 169.726 153.059 178.204 142.604 178.204H57.4014C46.9454 178.204 38.4678 169.726 38.4678 159.27C38.4477 159.11 29.8817 91.3188 29.5928 88.3115L29.5957 88.3105C29.5944 88.3105 29.593 88.3105 29.5918 88.3105C29.2461 84.7569 29.0002 81.4492 29 81.168C29 43.263 60.7904 22 100.002 22Z" fill="#DFB820"/>
<path d="M100.002 22L100.002 16H100.002V22ZM171.003 81.168L177.003 81.171V81.168H171.003ZM170.393 88.3057L164.423 87.702C164.403 87.9026 164.393 88.1041 164.393 88.3057H170.393ZM170.393 88.3066L176.361 88.919C176.382 88.7156 176.393 88.5112 176.393 88.3066H170.393ZM161.537 159.27L155.583 158.525C155.553 158.772 155.537 159.021 155.537 159.27H161.537ZM142.604 178.204L142.604 184.204L142.604 184.204L142.604 178.204ZM57.4014 178.204L57.4013 184.204H57.4014V178.204ZM38.4678 159.27H44.4678C44.4678 159.018 44.452 158.767 44.4204 158.517L38.4678 159.27ZM29.5928 88.3115L27.6954 82.6194C25.043 83.5035 23.3529 86.1024 23.6203 88.8854L29.5928 88.3115ZM29.5957 88.3105L31.4931 94.0026C34.2532 93.0826 35.9555 90.3149 35.5317 87.4365C35.1079 84.5581 32.6801 82.3986 29.7719 82.3131L29.5957 88.3105ZM29.5918 88.3105L23.62 88.8914C23.9308 92.0868 26.7018 94.4713 29.9078 94.3022L29.5918 88.3105ZM29 81.168L23 81.168L23 81.1714L29 81.168ZM100.002 22L100.002 28C118.593 28.0001 134.946 33.0473 146.509 42.0951C157.924 51.0264 165.003 64.0846 165.003 81.168H171.003H177.003C177.003 60.3465 168.188 43.8208 153.904 32.6444C139.77 21.5844 120.623 16.0001 100.002 16L100.002 22ZM171.003 81.168L165.003 81.1649C165.003 80.9699 165.015 80.858 165 81.0859C164.991 81.2171 164.977 81.4062 164.958 81.6489C164.921 82.131 164.869 82.7754 164.808 83.4893C164.686 84.9221 164.537 86.579 164.423 87.702L170.393 88.3057L176.362 88.9093C176.485 87.6947 176.641 85.9662 176.765 84.5062C176.87 83.274 177.003 81.6858 177.003 81.171L171.003 81.168ZM170.393 88.3057H164.393V88.3066H170.393H176.393V88.3057H170.393ZM170.393 88.3066L164.424 87.6943C164.425 87.6884 164.295 88.7376 164.04 90.791C163.794 92.7694 163.446 95.5619 163.03 98.8966C162.199 105.566 161.096 114.4 159.994 123.221C157.791 140.862 155.594 158.444 155.583 158.525L161.537 159.27L167.491 160.014C167.5 159.936 176.287 89.6409 176.361 88.919L170.393 88.3066ZM161.537 159.27H155.537C155.537 166.412 149.745 172.204 142.603 172.204L142.604 178.204L142.604 184.204C156.373 184.204 167.537 173.039 167.537 159.27H161.537ZM142.604 178.204V172.204H57.4014V178.204V184.204H142.604V178.204ZM57.4014 178.204L57.4014 172.204C50.2594 172.204 44.4678 166.412 44.4678 159.27H38.4678H32.4678C32.4678 173.039 43.6315 184.204 57.4013 184.204L57.4014 178.204ZM38.4678 159.27L44.4204 158.517C44.3866 158.25 35.8428 90.626 35.5653 87.7376L29.5928 88.3115L23.6203 88.8854C23.9207 92.0116 32.5087 159.971 32.5151 160.022L38.4678 159.27ZM29.5928 88.3115L31.4901 94.0036L31.4931 94.0026L29.5957 88.3105L27.6983 82.6184L27.6954 82.6194L29.5928 88.3115ZM29.5957 88.3105L29.7719 82.3131C29.7619 82.3128 29.5449 82.3047 29.2758 82.3189L29.5918 88.3105L29.9078 94.3022C29.7543 94.3103 29.6319 94.3107 29.5664 94.3104C29.4962 94.3101 29.4413 94.3086 29.4195 94.308L29.5957 88.3105ZM29.5918 88.3105L35.5636 87.7297C35.3946 85.9918 35.2496 84.3107 35.1471 83.0326C35.0959 82.3933 35.0559 81.8627 35.0292 81.4822C34.9921 80.9553 34.9999 80.9692 35 81.1646L29 81.168L23 81.1714C23.0004 81.8146 23.2877 85.4753 23.62 88.8914L29.5918 88.3105ZM29 81.168H35C35 64.0847 42.0796 51.0264 53.4941 42.095C65.0573 33.0472 81.4114 28 100.002 28V22V16C79.381 16 60.2341 21.5843 46.0992 32.6443C31.8156 43.8206 23 60.3463 23 81.168H29Z" fill="white" mask="url(#path-1-outside-1_1062_20370)"/>
<path d="M100.002 22C60.7901 22 29 43.2628 29 81.1677C29 81.4471 29.2462 84.7558 29.592 88.3106C30.8511 88.2442 100.002 145.069 100.002 145.069C100.002 145.069 169.143 88.2398 170.393 88.3058C170.629 85.9676 171.003 81.5325 171.003 81.1677C171.003 43.2628 139.214 22 100.002 22Z" fill="#276288"/>
<path d="M157.592 67.0108C156.016 66.831 154.52 67.1998 153.246 67.9384C153.232 65.8937 152.967 64.0997 152.29 62.7125L154.07 57.3734C155.31 53.6529 153.303 49.6345 149.583 48.3939C147.921 47.8307 146.208 47.9538 144.698 48.5644C143.789 45.1565 140.514 42.856 136.911 43.3576C136.329 43.4382 135.785 43.6038 135.264 43.8123C134.54 41.1377 132.282 39.0217 129.366 38.6241C125.433 38.099 121.897 40.8158 121.372 44.7023L119.885 55.6174C118.484 53.7384 116.198 52.5784 113.704 52.7772C110.66 52.995 108.227 55.1016 107.413 57.8657L107.067 54.4198C106.674 50.5147 103.162 47.6652 99.2947 48.0628C95.4325 48.451 92.6113 51.8687 92.9381 55.7264L92.8433 55.7737C93.0753 53.2602 91.9769 50.8459 90.0031 49.4025L88.0293 39.538C87.258 35.6945 83.5327 33.1902 79.675 33.9668C75.8314 34.7332 73.337 38.4776 74.1034 42.3211L77.5024 59.3188L75.6942 66.916L68.8116 47.9729C67.4674 44.2856 63.3919 42.3827 59.7139 43.7269C56.0267 45.0715 54.1237 49.1422 55.4635 52.8294L60.7079 67.2521C59.075 68.3692 57.8964 70.1397 57.6502 72.2601L56.4907 82.1954L54.9428 72.9038C54.299 69.032 50.6304 66.4095 46.7727 67.0675C42.9057 67.7112 40.2926 71.3701 40.9363 75.2376L48.2732 119.253H158.586C158.818 118.676 163.868 74.8542 163.868 74.8542C164.294 70.9535 161.487 67.446 157.592 67.0108Z" fill="#F4900C"/>
<path d="M144.905 49.4399C144.863 49.137 144.773 48.8577 144.697 48.569C143.788 45.1611 140.513 42.8606 136.91 43.3622C136.328 43.4428 135.784 43.6084 135.263 43.8165C132.295 44.9907 130.383 48.0532 130.838 51.357L140.096 119.249H154.429L144.905 49.4399ZM121.285 59.3611C121.186 57.9553 120.665 56.6775 119.879 55.6216C118.479 53.7425 116.192 52.583 113.698 52.7818C110.654 52.9996 108.221 55.1058 107.407 57.8703C107.175 58.6606 107.057 59.4983 107.118 60.3692L111.279 118.647L111.321 119.249H125.564L125.555 119.121L121.285 59.3611ZM65.5209 66.0258C63.7504 65.8222 62.075 66.3101 60.7069 67.2469C59.074 68.364 57.8954 70.1346 57.6492 72.2549L52.1631 119.253H66.4578L71.75 73.9024C72.2043 70.0066 69.4163 66.4801 65.5209 66.0258ZM88.0331 39.5421C87.2614 35.6986 83.5361 33.1948 79.6784 33.971C75.8349 34.7378 73.3404 38.4822 74.1072 42.3257L89.4911 119.253H103.97L88.0331 39.5421Z" fill="#FFCC4D"/>
<path d="M152.07 93.0022C152.07 106.076 131.371 116.669 100.002 116.669C68.6338 116.669 47.9347 106.076 47.9347 93.0022C47.9347 87.7764 38.9601 88.2687 33.7343 88.2687C32.2387 88.2687 30.852 88.2448 29.5928 88.3112C29.8814 91.3171 38.4678 159.27 38.4678 159.27C38.4678 169.726 46.9456 178.204 57.4016 178.204H142.603C153.059 178.204 161.537 169.726 161.537 159.27C161.537 159.27 170.331 88.9125 170.393 88.3064C169.144 88.2404 167.757 88.2687 166.271 88.2687C161.045 88.2687 152.07 87.7764 152.07 93.0022Z" fill="#4B9AE8"/>
<mask id="path-7-outside-2_1062_20370" maskUnits="userSpaceOnUse" x="78.6689" y="127.057" width="41" height="36" fill="black">
<rect fill="white" x="78.6689" y="127.057" width="41" height="36"/>
<path d="M101.697 129.057C110.541 129.057 117.71 136.226 117.71 145.069C117.71 153.913 110.541 161.082 101.697 161.082C94.3249 161.082 88.1173 156.099 86.2559 149.317C84.1366 149.48 81.1458 148.411 80.7246 146.86C80.2494 145.109 82.9144 142.239 84.9834 141.682C85.3542 141.582 85.7231 141.523 86.0821 141.507C87.7015 134.378 94.0783 129.057 101.697 129.057Z"/>
</mask>
<path d="M101.697 129.057C110.541 129.057 117.71 136.226 117.71 145.069C117.71 153.913 110.541 161.082 101.697 161.082C94.3249 161.082 88.1173 156.099 86.2559 149.317C84.1366 149.48 81.1458 148.411 80.7246 146.86C80.2494 145.109 82.9144 142.239 84.9834 141.682C85.3542 141.582 85.7231 141.523 86.0821 141.507C87.7015 134.378 94.0783 129.057 101.697 129.057Z" fill="#DFB820"/>
<path d="M101.697 129.057L101.697 127.249L101.697 127.249L101.697 129.057ZM117.71 145.069L119.518 145.069V145.069H117.71ZM101.697 161.082L101.697 162.889H101.697V161.082ZM86.2559 149.317L87.999 148.839L87.6043 147.401L86.1177 147.515L86.2559 149.317ZM80.7246 146.86L78.9802 147.334L78.9803 147.334L80.7246 146.86ZM84.9834 141.682L84.5131 139.936L84.5129 139.936L84.9834 141.682ZM86.0821 141.507L86.1621 143.312L87.5393 143.251L87.8447 141.907L86.0821 141.507ZM101.697 129.057V130.864C109.542 130.864 115.902 137.224 115.902 145.069H117.71H119.518C119.518 135.227 111.539 127.249 101.697 127.249V129.057ZM117.71 145.069L115.902 145.069C115.902 152.914 109.542 159.274 101.697 159.274V161.082V162.889C111.539 162.889 119.517 154.911 119.518 145.069L117.71 145.069ZM101.697 161.082L101.697 159.274C95.16 159.274 89.6506 154.856 87.999 148.839L86.2559 149.317L84.5128 149.796C86.5841 157.342 93.4898 162.889 101.697 162.889L101.697 161.082ZM86.2559 149.317L86.1177 147.515C85.3748 147.572 84.3808 147.407 83.5446 147.061C83.1347 146.891 82.8302 146.706 82.6368 146.542C82.4347 146.371 82.4468 146.305 82.469 146.386L80.7246 146.86L78.9803 147.334C79.2131 148.191 79.7569 148.84 80.3002 149.3C80.8524 149.768 81.5069 150.13 82.1623 150.401C83.4567 150.937 85.0177 151.225 86.3941 151.12L86.2559 149.317ZM80.7246 146.86L82.4691 146.387C82.4932 146.476 82.4387 146.398 82.5705 146.078C82.694 145.777 82.928 145.4 83.2702 145.002C83.9896 144.166 84.8826 143.581 85.4539 143.427L84.9834 141.682L84.5129 139.936C83.0152 140.34 81.5412 141.469 80.5296 142.645C80.0063 143.253 79.5339 143.956 79.2267 144.704C78.9278 145.431 78.7184 146.369 78.9802 147.334L80.7246 146.86ZM84.9834 141.682L85.4538 143.427C85.7071 143.359 85.945 143.322 86.1621 143.312L86.0821 141.507L86.0021 139.701C85.5011 139.723 85.0013 139.805 84.5131 139.936L84.9834 141.682ZM86.0821 141.507L87.8447 141.907C89.2812 135.583 94.9405 130.864 101.697 130.864L101.697 129.057L101.697 127.249C93.216 127.249 86.1217 133.172 84.3194 141.106L86.0821 141.507Z" fill="white" mask="url(#path-7-outside-2_1062_20370)"/>
<path d="M101.697 161.082C110.541 161.082 117.71 153.913 117.71 145.069C117.71 136.226 110.541 129.057 101.697 129.057C92.8536 129.057 85.6846 136.226 85.6846 145.069C85.6846 153.913 92.8536 161.082 101.697 161.082Z" fill="#4B98E6"/>
<circle cx="95.8305" cy="140.878" r="4.19082" fill="white"/>
<circle cx="95.8309" cy="140.878" r="2.51449" fill="#161616"/>
<circle cx="95.8309" cy="140.878" r="2.51449" fill="#161616"/>
<path d="M87.0277 149.192C84.9541 149.75 81.1996 148.611 80.7243 146.86C80.249 145.109 82.9148 142.24 84.9839 141.682C87.053 141.124 89.0473 141.815 89.7551 144.424C90.4725 147.064 89.0968 148.634 87.0232 149.192L87.0277 149.192Z" fill="#DFB820"/>
</svg>
