<svg width="200" height="200" viewBox="0 0 200 200" fill="none" xmlns="http://www.w3.org/2000/svg">
<mask id="path-1-outside-1_784_13202" maskUnits="userSpaceOnUse" x="24" y="69" width="159" height="96" fill="black">
<rect fill="white" x="24" y="69" width="159" height="96"/>
<path d="M102.824 75C115.465 75.0001 126.404 80.9758 131.665 89.6738C135.056 88.9057 138.673 88.4883 142.436 88.4883C161.52 88.4883 177 99.1969 177 112.402C177 124.681 163.627 134.803 146.401 136.158C142.346 144.969 130.246 151.375 115.949 151.375C113.91 151.375 111.916 151.25 109.989 151.002C104.142 155.938 95.9627 159 86.916 159C69.2509 159 54.9205 147.331 54.7627 132.883C40.5788 130.669 30 122.038 30 111.725C30 99.7391 44.2856 90.0244 61.8945 90.0244C65.8151 90.0244 69.578 90.5095 73.0479 91.3906C77.8473 81.7776 89.3727 75 102.824 75Z"/>
</mask>
<path d="M102.824 75C115.465 75.0001 126.404 80.9758 131.665 89.6738C135.056 88.9057 138.673 88.4883 142.436 88.4883C161.52 88.4883 177 99.1969 177 112.402C177 124.681 163.627 134.803 146.401 136.158C142.346 144.969 130.246 151.375 115.949 151.375C113.91 151.375 111.916 151.25 109.989 151.002C104.142 155.938 95.9627 159 86.916 159C69.2509 159 54.9205 147.331 54.7627 132.883C40.5788 130.669 30 122.038 30 111.725C30 99.7391 44.2856 90.0244 61.8945 90.0244C65.8151 90.0244 69.578 90.5095 73.0479 91.3906C77.8473 81.7776 89.3727 75 102.824 75Z" fill="#040000"/>
<path d="M102.824 75L102.824 69H102.824V75ZM131.665 89.6738L126.531 92.7792C127.868 94.9899 130.471 96.0964 132.991 95.5256L131.665 89.6738ZM142.436 88.4883L142.436 82.4883L142.436 82.4883L142.436 88.4883ZM177 112.402L183 112.402L183 112.402L177 112.402ZM146.401 136.158L145.931 130.177C143.764 130.347 141.86 131.676 140.951 133.649L146.401 136.158ZM115.949 151.375L115.949 157.375L115.949 157.375L115.949 151.375ZM109.989 151.002L110.757 145.051C109.088 144.836 107.405 145.332 106.119 146.417L109.989 151.002ZM86.916 159L86.916 165H86.916V159ZM54.7627 132.883L60.7623 132.817C60.7303 129.886 58.5846 127.407 55.6881 126.955L54.7627 132.883ZM30 111.725L24 111.725L24 111.725L30 111.725ZM61.8945 90.0244L61.8946 84.0244H61.8945V90.0244ZM73.0479 91.3906L71.5711 97.2061C74.3062 97.9006 77.1555 96.5954 78.416 94.0708L73.0479 91.3906ZM102.824 75L102.824 81C113.692 81.0001 122.516 86.1414 126.531 92.7792L131.665 89.6738L136.799 86.5684C130.291 75.8102 117.237 69.0001 102.824 69L102.824 75ZM131.665 89.6738L132.991 95.5256C135.943 94.8567 139.115 94.4883 142.436 94.4883L142.436 88.4883L142.436 82.4883C138.23 82.4883 134.169 82.9547 130.339 83.8221L131.665 89.6738ZM142.436 88.4883V94.4883C150.912 94.4883 158.328 96.8765 163.461 100.427C168.618 103.995 171 108.328 171 112.402L177 112.402L183 112.402C183 103.272 177.642 95.647 170.288 90.559C162.91 85.4544 153.044 82.4883 142.436 82.4883V88.4883ZM177 112.402H171C171 116.203 168.945 120.198 164.499 123.624C160.052 127.049 153.555 129.577 145.931 130.177L146.401 136.158L146.872 142.14C156.473 141.384 165.276 138.173 171.822 133.13C178.368 128.086 183 120.881 183 112.402H177ZM146.401 136.158L140.951 133.649C138.239 139.542 128.921 145.375 115.949 145.375L115.949 151.375L115.949 157.375C131.571 157.375 146.452 150.397 151.852 138.667L146.401 136.158ZM115.949 151.375V145.375C114.153 145.375 112.416 145.265 110.757 145.051L109.989 151.002L109.222 156.953C111.416 157.236 113.667 157.375 115.949 157.375V151.375ZM109.989 151.002L106.119 146.417C101.421 150.383 94.6362 153 86.916 153V159V165C97.2892 165 106.863 161.494 113.86 155.587L109.989 151.002ZM86.916 159L86.9161 153C71.3911 153 60.8728 142.937 60.7623 132.817L54.7627 132.883L48.7631 132.948C48.9681 151.724 67.1108 165 86.916 165L86.916 159ZM54.7627 132.883L55.6881 126.955C49.4913 125.987 44.3721 123.655 40.9293 120.753C37.4992 117.862 36 114.685 36 111.725L30 111.725L24 111.725C24 119.078 27.7902 125.373 33.1955 129.929C38.588 134.474 45.8502 137.564 53.8373 138.811L54.7627 132.883ZM30 111.725H36C36 108.306 38.0337 104.528 42.7187 101.341C47.372 98.1754 54.1345 96.0244 61.8945 96.0244V90.0244V84.0244C52.0457 84.0244 42.8609 86.7308 35.9692 91.419C29.1091 96.0857 24 103.158 24 111.725H30ZM61.8945 90.0244L61.8945 96.0244C65.324 96.0244 68.5906 96.4492 71.5711 97.2061L73.0479 91.3906L74.5246 85.5752C70.5653 84.5698 66.3061 84.0244 61.8946 84.0244L61.8945 90.0244ZM73.0479 91.3906L78.416 94.0708C82.0267 86.8387 91.2316 81 102.824 81V75V69C87.5137 69 73.6679 76.7165 67.6797 88.7105L73.0479 91.3906Z" fill="white" mask="url(#path-1-outside-1_784_13202)"/>
<path d="M69.3105 26C76.2475 26.0001 82.8455 30.1586 84.2754 36.4756C86.5416 37.1109 88.5964 38.1471 90.2373 39.5312C92.3531 41.316 93.9028 43.8081 93.9883 46.7588C93.9952 46.8414 94 46.9249 94 47.0088C93.9999 50.5801 91.8718 53.4714 89.1279 55.3379C86.3687 57.2148 82.7247 58.2773 78.8477 58.2773C77.8913 58.2773 76.9529 58.2112 76.0391 58.0859C73.2394 61.7649 68.4337 64 63.2568 64C58.352 64 53.8047 62.0065 50.9531 58.6816C50.046 58.7984 49.1151 58.8613 48.165 58.8613C43.9974 58.8613 40.0935 57.6972 37.1494 55.6602C34.2171 53.6312 32.0001 50.5305 32 46.751C32 43.2435 33.9172 40.3068 36.5352 38.2891C38.7797 36.5591 41.6654 35.3849 44.8213 34.8975C47.5047 31.0519 52.8293 28.9033 58.2539 28.9033C58.7229 28.9033 59.1827 28.9202 59.6328 28.9502C62.3037 27.0789 65.6902 26 69.3105 26Z" fill="#9ECDEE" stroke="white" stroke-width="6" stroke-miterlimit="10" stroke-linejoin="round"/>
<path d="M30 111.725C30 99.7391 44.2854 90.0242 61.8943 90.0242C65.8149 90.0242 69.5778 90.5099 73.0477 91.3911C77.8471 81.7778 89.3723 75 102.824 75C115.465 75 126.404 80.9758 131.665 89.674C135.056 88.9059 138.673 88.4879 142.436 88.4879C161.52 88.4879 177 99.1969 177 112.402C177 124.682 163.627 134.803 146.401 136.159C142.345 144.97 130.246 151.375 115.949 151.375C113.91 151.375 111.916 151.251 109.989 151.002C104.142 155.939 95.963 159 86.9163 159C69.2511 159 54.9206 147.331 54.7629 132.883C40.5789 130.669 30 122.038 30 111.725Z" fill="#4E90CD"/>
<path d="M110.931 106.238C110.64 110.417 105.391 116.539 101.222 116.248C97.0432 115.957 92.7143 109.149 93.0148 104.971C93.3153 100.792 96.2826 97.5995 102.508 98.0408C108.809 98.4822 111.232 102.06 110.931 106.238Z" fill="#EAC00F"/>
<path d="M50.5 119C56.299 119 61 114.299 61 108.5C61 102.701 56.299 98 50.5 98C44.701 98 40 102.701 40 108.5C40 114.299 44.701 119 50.5 119Z" fill="white"/>
<path d="M50.5002 114.101C53.5934 114.101 56.1009 111.593 56.1009 108.5C56.1009 105.407 53.5934 102.9 50.5002 102.9C47.407 102.9 44.8995 105.407 44.8995 108.5C44.8995 111.593 47.407 114.101 50.5002 114.101Z" fill="#040000"/>
<path d="M152.5 117C158.299 117 163 112.299 163 106.5C163 100.701 158.299 96 152.5 96C146.701 96 142 100.701 142 106.5C142 112.299 146.701 117 152.5 117Z" fill="white"/>
<path d="M152.5 112.101C155.593 112.101 158.101 109.593 158.101 106.5C158.101 103.407 155.593 100.9 152.5 100.9C149.407 100.9 146.9 103.407 146.9 106.5C146.9 109.593 149.407 112.101 152.5 112.101Z" fill="#040000"/>
<mask id="path-10-outside-2_784_13202" maskUnits="userSpaceOnUse" x="123" y="36" width="46" height="32" fill="black">
<rect fill="white" x="123" y="36" width="46" height="32"/>
<path d="M144.667 42C150.089 42.0001 154.531 44.425 154.962 47.5088C159.564 48.216 163 51.0015 163 54.333C163 58.1989 158.374 61.3329 152.667 61.333C148.897 61.333 145.599 59.9648 143.794 57.9219C142.228 58.8012 140.207 59.333 138 59.333C133.029 59.333 129 56.6467 129 53.333C129 50.8885 131.193 48.7867 134.339 47.8516C134.474 44.6063 139.045 42 144.667 42Z"/>
</mask>
<path d="M144.667 42C150.089 42.0001 154.531 44.425 154.962 47.5088C159.564 48.216 163 51.0015 163 54.333C163 58.1989 158.374 61.3329 152.667 61.333C148.897 61.333 145.599 59.9648 143.794 57.9219C142.228 58.8012 140.207 59.333 138 59.333C133.029 59.333 129 56.6467 129 53.333C129 50.8885 131.193 48.7867 134.339 47.8516C134.474 44.6063 139.045 42 144.667 42Z" fill="#B5E0FF"/>
<path d="M144.667 42L144.667 36H144.667V42ZM154.962 47.5088L149.02 48.3384C149.386 50.9632 151.431 53.0367 154.051 53.4392L154.962 47.5088ZM152.667 61.333L152.667 67.333L152.667 67.333L152.667 61.333ZM143.794 57.9219L148.291 53.9495C146.419 51.8304 143.321 51.3059 140.856 52.6904L143.794 57.9219ZM138 59.333L138 65.333L138 59.333ZM134.339 47.8516L136.049 53.6028C138.505 52.8726 140.227 50.6625 140.334 48.1019L134.339 47.8516ZM144.667 42L144.667 48C146.544 48 148.004 48.43 148.842 48.8811C149.835 49.4157 149.177 49.4647 149.02 48.3384L154.962 47.5088L160.904 46.6792C160.317 42.4691 157.222 39.7637 154.53 38.3149C151.684 36.7826 148.212 36.0001 144.667 36L144.667 42ZM154.962 47.5088L154.051 53.4392C155.459 53.6556 156.397 54.1537 156.854 54.5366C157.3 54.9096 157 54.8769 157 54.333H163H169C169 50.4576 166.982 47.3664 164.559 45.3369C162.148 43.3174 159.067 42.0692 155.873 41.5784L154.962 47.5088ZM163 54.333H157C157 53.6805 157.393 53.7835 156.608 54.3152C155.857 54.8242 154.481 55.333 152.667 55.333L152.667 61.333L152.667 67.333C156.559 67.3329 160.35 66.2746 163.339 64.2501C166.294 62.2484 169 58.8515 169 54.333H163ZM152.667 61.333V55.333C151.495 55.333 150.476 55.1185 149.686 54.8087C148.877 54.4907 148.451 54.1311 148.291 53.9495L143.794 57.9219L139.297 61.8942C142.512 65.5336 147.634 67.333 152.667 67.333V61.333ZM143.794 57.9219L140.856 52.6904C140.273 53.0177 139.281 53.333 138 53.333L138 59.333L138 65.333C141.134 65.333 144.183 64.5847 146.732 63.1533L143.794 57.9219ZM138 59.333V53.333C136.534 53.333 135.478 52.926 134.964 52.5833C134.408 52.2127 135 52.3596 135 53.333H129H123C123 57.6202 125.606 60.767 128.308 62.568C131.051 64.3968 134.495 65.333 138 65.333V59.333ZM129 53.333H135C135 53.6395 134.927 53.8996 134.846 54.0782C134.769 54.2447 134.707 54.2945 134.747 54.2545C134.787 54.2138 134.905 54.1096 135.133 53.9804C135.359 53.8526 135.664 53.7172 136.049 53.6028L134.339 47.8516L132.629 42.1003C128.411 43.3542 123 46.9628 123 53.333H129ZM134.339 47.8516L140.334 48.1019C140.279 49.4099 139.439 49.4769 140.408 48.9267C141.221 48.4648 142.713 48 144.667 48V42V36C140.999 36 137.395 36.8384 134.484 38.491C131.728 40.0552 128.534 43.048 128.344 47.6013L134.339 47.8516Z" fill="white" mask="url(#path-10-outside-2_784_13202)"/>
</svg>
