<svg width="200" height="200" viewBox="0 0 200 200" fill="none" xmlns="http://www.w3.org/2000/svg">
<mask id="path-1-outside-1_1062_24749" maskUnits="userSpaceOnUse" x="5" y="33" width="190" height="134" fill="black">
<rect fill="white" x="5" y="33" width="190" height="134"/>
<path d="M33.7402 39C36.4969 39 38.7312 41.2346 38.7314 43.9912V61.1846H52.6289C53.6906 60.3708 54.7654 59.6406 55.8184 58.9922C58.9371 57.0693 62.6348 58.2107 65.0068 61.1846H73.8379C79.1881 51.6943 88.7443 45.6553 99.6426 45.6553C100.222 45.6553 100.801 45.6675 101.374 45.7139C111.552 46.3123 120.387 52.2016 125.452 61.1846H136.427C139.111 58.0733 143.192 57.0977 146.263 59.4795L146.279 59.4756L146.281 59.4814C146.284 59.4822 146.307 59.4878 146.314 59.4971C146.987 60.021 147.665 60.5839 148.338 61.1846H160.748V43.9912C160.748 41.2347 162.983 39.0002 165.739 39H166.849C169.606 39 171.841 41.2346 171.841 43.9912V52.3105C171.841 49.554 174.075 47.3194 176.832 47.3193H177.941C180.698 47.3194 182.932 49.5539 182.933 52.3105V75.6055C182.932 78.3621 180.698 80.5967 177.941 80.5967H176.832C174.075 80.5966 171.841 78.3621 171.841 75.6055V83.9248C171.841 86.6817 169.606 88.916 166.849 88.916H165.739C162.983 88.9158 160.748 86.6816 160.748 83.9248V66.7314H153.316C153.654 67.2151 153.978 67.7166 154.278 68.2334C155.046 69.518 155.707 70.8873 156.226 72.3545C156.712 73.7099 157.067 75.1375 157.263 76.6494C157.525 78.5504 157.54 80.5922 157.233 82.7559C157.08 83.8911 156.823 85.0683 156.48 86.2832C155.764 88.8092 154.752 91.0352 153.524 92.9961L153.525 93.002C151.705 95.8967 149.436 98.212 146.928 100.06C146.922 100.061 146.918 100.068 146.906 100.07C146.846 100.12 146.781 100.172 146.714 100.217C146.495 100.374 146.276 100.532 146.057 100.689C146.052 100.696 146.036 100.701 146.03 100.702C145.804 100.856 145.571 101.005 145.34 101.159C145.314 101.177 145.3 101.192 145.278 101.203C144.74 101.546 144.194 101.869 143.644 102.176C145.605 106.264 146.825 110.685 147.155 115.314C147.219 116.171 147.254 117.035 147.254 117.903H147.248C147.248 118.668 147.219 119.433 147.179 120.174C147.173 120.238 147.167 120.296 147.167 120.354C146.675 127.483 144.045 133.848 139.817 139.176C136.181 143.768 131.359 147.582 125.701 150.436V154.617L132.691 153.175C133.74 153.175 134.701 153.604 135.401 154.299C136.091 154.994 136.525 155.949 136.525 157.009C136.525 159.117 134.799 160.843 132.691 160.843H122.608C121.01 160.843 119.707 159.54 119.707 157.947V152.985C119.063 153.213 118.411 153.432 117.752 153.637C115.818 154.251 113.814 154.755 111.758 155.166C108.932 155.728 106.007 156.087 103.001 156.237C102.399 156.272 101.791 156.295 101.183 156.307C100.673 156.312 100.158 156.318 99.6426 156.318C99.1271 156.318 98.6171 156.312 98.1074 156.307C94.5632 156.226 91.1115 155.855 87.8047 155.224C85.7545 154.83 83.7507 154.332 81.8164 153.729C80.8075 153.421 79.8167 153.083 78.8438 152.723V157.947C78.8437 159.54 77.5407 160.843 75.9424 160.843H65.8594C63.7513 160.843 62.0254 159.117 62.0254 157.009C62.0254 155.949 62.4603 154.994 63.1494 154.299C63.8502 153.604 64.8112 153.175 65.8594 153.175L72.8496 154.617V150.058C67.511 147.248 62.9531 143.571 59.4727 139.182C59.4727 139.182 59.4726 139.176 59.4668 139.176C55.2275 133.825 52.5873 127.413 52.1182 120.237C52.1181 120.191 52.1122 120.133 52.1064 120.081C52.0659 119.363 52.043 118.639 52.043 117.903C52.043 117.046 52.072 116.195 52.1299 115.355C52.444 110.92 53.574 106.674 55.3916 102.729C49.5841 99.0725 44.3347 93.3842 42.8232 84.5693C41.5299 77.0313 43.6462 71.1791 47.0234 66.7314H38.7314V83.9248C38.7313 86.6817 36.4969 88.916 33.7402 88.916H32.6309C29.8742 88.916 27.6398 86.6817 27.6396 83.9248V75.6055C27.6395 78.3621 25.4042 80.5967 22.6475 80.5967H21.5381C18.7816 80.5965 16.547 78.362 16.5469 75.6055V52.3105C16.5471 49.5541 18.7816 47.3196 21.5381 47.3193H22.6475C25.4041 47.3193 27.6394 49.5539 27.6396 52.3105V43.9912C27.6399 41.2346 29.8742 39.0001 32.6309 39H33.7402ZM127.951 66.7314C129.266 70.5099 129.989 74.6615 129.989 79.0723C129.989 79.4171 129.971 79.8197 129.941 80.2529L133.777 66.7314H127.951ZM69.3086 78.3018C69.3875 74.1774 70.1009 70.2891 71.3389 66.7314H67.3223L69.3086 78.3018ZM16.5459 66.7314H11.7207C11.3226 66.7313 11 66.4079 11 66.0098V61.9062C11 61.5081 11.3226 61.1847 11.7207 61.1846H16.5459V66.7314ZM187.759 61.1846C188.157 61.1846 188.479 61.508 188.479 61.9062V66.0098C188.479 66.408 188.157 66.7314 187.759 66.7314H182.934V61.1846H187.759Z"/>
</mask>
<path d="M33.7402 39C36.4969 39 38.7312 41.2346 38.7314 43.9912V61.1846H52.6289C53.6906 60.3708 54.7654 59.6406 55.8184 58.9922C58.9371 57.0693 62.6348 58.2107 65.0068 61.1846H73.8379C79.1881 51.6943 88.7443 45.6553 99.6426 45.6553C100.222 45.6553 100.801 45.6675 101.374 45.7139C111.552 46.3123 120.387 52.2016 125.452 61.1846H136.427C139.111 58.0733 143.192 57.0977 146.263 59.4795L146.279 59.4756L146.281 59.4814C146.284 59.4822 146.307 59.4878 146.314 59.4971C146.987 60.021 147.665 60.5839 148.338 61.1846H160.748V43.9912C160.748 41.2347 162.983 39.0002 165.739 39H166.849C169.606 39 171.841 41.2346 171.841 43.9912V52.3105C171.841 49.554 174.075 47.3194 176.832 47.3193H177.941C180.698 47.3194 182.932 49.5539 182.933 52.3105V75.6055C182.932 78.3621 180.698 80.5967 177.941 80.5967H176.832C174.075 80.5966 171.841 78.3621 171.841 75.6055V83.9248C171.841 86.6817 169.606 88.916 166.849 88.916H165.739C162.983 88.9158 160.748 86.6816 160.748 83.9248V66.7314H153.316C153.654 67.2151 153.978 67.7166 154.278 68.2334C155.046 69.518 155.707 70.8873 156.226 72.3545C156.712 73.7099 157.067 75.1375 157.263 76.6494C157.525 78.5504 157.54 80.5922 157.233 82.7559C157.08 83.8911 156.823 85.0683 156.48 86.2832C155.764 88.8092 154.752 91.0352 153.524 92.9961L153.525 93.002C151.705 95.8967 149.436 98.212 146.928 100.06C146.922 100.061 146.918 100.068 146.906 100.07C146.846 100.12 146.781 100.172 146.714 100.217C146.495 100.374 146.276 100.532 146.057 100.689C146.052 100.696 146.036 100.701 146.03 100.702C145.804 100.856 145.571 101.005 145.34 101.159C145.314 101.177 145.3 101.192 145.278 101.203C144.74 101.546 144.194 101.869 143.644 102.176C145.605 106.264 146.825 110.685 147.155 115.314C147.219 116.171 147.254 117.035 147.254 117.903H147.248C147.248 118.668 147.219 119.433 147.179 120.174C147.173 120.238 147.167 120.296 147.167 120.354C146.675 127.483 144.045 133.848 139.817 139.176C136.181 143.768 131.359 147.582 125.701 150.436V154.617L132.691 153.175C133.74 153.175 134.701 153.604 135.401 154.299C136.091 154.994 136.525 155.949 136.525 157.009C136.525 159.117 134.799 160.843 132.691 160.843H122.608C121.01 160.843 119.707 159.54 119.707 157.947V152.985C119.063 153.213 118.411 153.432 117.752 153.637C115.818 154.251 113.814 154.755 111.758 155.166C108.932 155.728 106.007 156.087 103.001 156.237C102.399 156.272 101.791 156.295 101.183 156.307C100.673 156.312 100.158 156.318 99.6426 156.318C99.1271 156.318 98.6171 156.312 98.1074 156.307C94.5632 156.226 91.1115 155.855 87.8047 155.224C85.7545 154.83 83.7507 154.332 81.8164 153.729C80.8075 153.421 79.8167 153.083 78.8438 152.723V157.947C78.8437 159.54 77.5407 160.843 75.9424 160.843H65.8594C63.7513 160.843 62.0254 159.117 62.0254 157.009C62.0254 155.949 62.4603 154.994 63.1494 154.299C63.8502 153.604 64.8112 153.175 65.8594 153.175L72.8496 154.617V150.058C67.511 147.248 62.9531 143.571 59.4727 139.182C59.4727 139.182 59.4726 139.176 59.4668 139.176C55.2275 133.825 52.5873 127.413 52.1182 120.237C52.1181 120.191 52.1122 120.133 52.1064 120.081C52.0659 119.363 52.043 118.639 52.043 117.903C52.043 117.046 52.072 116.195 52.1299 115.355C52.444 110.92 53.574 106.674 55.3916 102.729C49.5841 99.0725 44.3347 93.3842 42.8232 84.5693C41.5299 77.0313 43.6462 71.1791 47.0234 66.7314H38.7314V83.9248C38.7313 86.6817 36.4969 88.916 33.7402 88.916H32.6309C29.8742 88.916 27.6398 86.6817 27.6396 83.9248V75.6055C27.6395 78.3621 25.4042 80.5967 22.6475 80.5967H21.5381C18.7816 80.5965 16.547 78.362 16.5469 75.6055V52.3105C16.5471 49.5541 18.7816 47.3196 21.5381 47.3193H22.6475C25.4041 47.3193 27.6394 49.5539 27.6396 52.3105V43.9912C27.6399 41.2346 29.8742 39.0001 32.6309 39H33.7402ZM127.951 66.7314C129.266 70.5099 129.989 74.6615 129.989 79.0723C129.989 79.4171 129.971 79.8197 129.941 80.2529L133.777 66.7314H127.951ZM69.3086 78.3018C69.3875 74.1774 70.1009 70.2891 71.3389 66.7314H67.3223L69.3086 78.3018ZM16.5459 66.7314H11.7207C11.3226 66.7313 11 66.4079 11 66.0098V61.9062C11 61.5081 11.3226 61.1847 11.7207 61.1846H16.5459V66.7314ZM187.759 61.1846C188.157 61.1846 188.479 61.508 188.479 61.9062V66.0098C188.479 66.408 188.157 66.7314 187.759 66.7314H182.934V61.1846H187.759Z" fill="#533566"/>
<path d="M33.7402 39L33.7403 33H33.7402V39ZM38.7314 43.9912L44.7314 43.9912L44.7314 43.9907L38.7314 43.9912ZM38.7314 61.1846H32.7314C32.7314 64.4983 35.4177 67.1846 38.7314 67.1846V61.1846ZM52.6289 61.1846V67.1846C53.9486 67.1846 55.2315 66.7495 56.2789 65.9466L52.6289 61.1846ZM55.8184 58.9922L58.9645 64.1012L58.9673 64.0994L55.8184 58.9922ZM65.0068 61.1846L60.3162 64.9259C61.4546 66.3533 63.1811 67.1846 65.0068 67.1846V61.1846ZM73.8379 61.1846V67.1846C76.0035 67.1846 78.001 66.0176 79.0645 64.1311L73.8379 61.1846ZM99.6426 45.6553L99.6426 39.6553H99.6426V45.6553ZM101.374 45.7139L100.891 51.6944C100.934 51.6979 100.978 51.7009 101.022 51.7035L101.374 45.7139ZM125.452 61.1846L120.226 64.1316C121.289 66.0178 123.287 67.1846 125.452 67.1846V61.1846ZM136.427 61.1846V67.1846C138.171 67.1846 139.83 66.4252 140.969 65.1043L136.427 61.1846ZM146.263 59.4795L142.585 64.2205C144.017 65.3308 145.873 65.7349 147.637 65.32L146.263 59.4795ZM146.279 59.4756L151.971 57.5782C150.99 54.6342 147.926 52.9243 144.905 53.6351L146.279 59.4756ZM146.281 59.4814L140.589 61.3788C141.237 63.3215 142.83 64.7997 144.816 65.2998L146.281 59.4814ZM146.314 59.4971L141.711 63.3451C141.984 63.6717 142.291 63.9684 142.627 64.2301L146.314 59.4971ZM148.338 61.1846L144.344 65.6619C145.443 66.6426 146.865 67.1846 148.338 67.1846V61.1846ZM160.748 61.1846V67.1846C164.062 67.1846 166.748 64.4983 166.748 61.1846H160.748ZM160.748 43.9912L154.748 43.9907V43.9912H160.748ZM165.739 39L165.739 33L165.739 33L165.739 39ZM171.841 43.9912L177.841 43.9912L177.841 43.9907L171.841 43.9912ZM171.841 52.3105H165.841C165.841 55.6242 168.527 58.3104 171.841 58.3105C175.154 58.3107 177.841 55.6247 177.841 52.311L171.841 52.3105ZM176.832 47.3193L176.832 41.3193L176.832 41.3193L176.832 47.3193ZM177.941 47.3193L177.941 41.3193H177.941V47.3193ZM182.933 52.3105L188.933 52.3105L188.933 52.3101L182.933 52.3105ZM182.933 75.6055L188.933 75.6058V75.6055H182.933ZM177.941 80.5967L177.941 86.5967L177.941 86.5967L177.941 80.5967ZM176.832 80.5967L176.832 86.5967H176.832V80.5967ZM171.841 75.6055L177.841 75.6051C177.841 72.2915 175.154 69.6054 171.841 69.6055C168.527 69.6056 165.841 72.2918 165.841 75.6055L171.841 75.6055ZM171.841 83.9248L177.841 83.9252V83.9248H171.841ZM165.739 88.916L165.739 94.916H165.739V88.916ZM160.748 83.9248L154.748 83.9248L154.748 83.9252L160.748 83.9248ZM160.748 66.7314H166.748C166.748 63.4177 164.062 60.7314 160.748 60.7314V66.7314ZM153.316 66.7314V60.7314C151.08 60.7314 149.029 61.9751 147.996 63.9582C146.962 65.9412 147.117 68.3346 148.398 70.1678L153.316 66.7314ZM154.278 68.2334L149.092 71.2497C149.103 71.27 149.115 71.2901 149.127 71.3102L154.278 68.2334ZM156.226 72.3545L150.568 74.3532C150.572 74.3625 150.575 74.3719 150.578 74.3812L156.226 72.3545ZM157.263 76.6494L151.312 77.4202C151.315 77.4365 151.317 77.4528 151.319 77.4692L157.263 76.6494ZM157.233 82.7559L151.293 81.9128C151.291 81.9266 151.289 81.9404 151.287 81.9542L157.233 82.7559ZM156.48 86.2832L162.253 87.9205L162.255 87.9121L156.48 86.2832ZM153.524 92.9961L148.439 89.8118C147.661 91.0537 147.365 92.5372 147.606 93.9825L153.524 92.9961ZM153.525 93.002L158.605 96.1956C159.387 94.9519 159.685 93.4646 159.444 92.0156L153.525 93.002ZM146.928 100.06L148.282 105.905C149.078 105.72 149.828 105.375 150.486 104.891L146.928 100.06ZM146.906 100.07L145.545 94.2268C144.64 94.4377 143.796 94.8557 143.081 95.448L146.906 100.07ZM146.714 100.217L143.351 95.2475C143.303 95.2803 143.255 95.3138 143.207 95.3481L146.714 100.217ZM146.057 100.689L142.55 95.8207C141.917 96.2768 141.379 96.852 140.966 97.5141L146.057 100.689ZM146.03 100.702L144.675 94.8572C143.955 95.0241 143.272 95.3228 142.66 95.738L146.03 100.702ZM145.34 101.159L142.007 96.1699C141.975 96.1913 141.943 96.2131 141.911 96.2352L145.34 101.159ZM145.278 101.203L142.545 95.8621C142.376 95.9484 142.212 96.0426 142.052 96.1445L145.278 101.203ZM143.644 102.176L140.723 96.9346C137.953 98.4783 136.862 101.911 138.234 104.771L143.644 102.176ZM147.155 115.314L141.17 115.742C141.171 115.747 141.171 115.753 141.172 115.759L147.155 115.314ZM147.254 117.903V123.903C148.845 123.903 150.371 123.271 151.497 122.146C152.622 121.021 153.254 119.495 153.254 117.903L147.254 117.903ZM147.248 117.903V111.903C143.934 111.903 141.248 114.59 141.248 117.903H147.248ZM147.179 120.174L153.154 120.717C153.161 120.645 153.166 120.573 153.17 120.501L147.179 120.174ZM147.167 120.354L153.153 120.767C153.162 120.629 153.167 120.491 153.167 120.354L147.167 120.354ZM139.817 139.176L135.117 135.446L135.113 135.451L139.817 139.176ZM125.701 150.436L122.999 145.078C120.977 146.098 119.701 148.17 119.701 150.436H125.701ZM125.701 154.617H119.701C119.701 156.421 120.513 158.129 121.911 159.269C123.31 160.408 125.147 160.858 126.914 160.493L125.701 154.617ZM132.691 153.175V147.175C132.284 147.175 131.878 147.216 131.479 147.299L132.691 153.175ZM135.401 154.299L139.662 150.074C139.65 150.062 139.638 150.05 139.626 150.039L135.401 154.299ZM136.525 157.009L142.525 157.009L142.525 157.009L136.525 157.009ZM122.608 160.843L122.608 166.843H122.608V160.843ZM119.707 157.947L113.707 157.947L113.707 157.948L119.707 157.947ZM119.707 152.985H125.707C125.707 151.038 124.762 149.211 123.172 148.087C121.582 146.962 119.545 146.679 117.708 147.328L119.707 152.985ZM117.752 153.637L115.97 147.908C115.959 147.911 115.948 147.914 115.937 147.918L117.752 153.637ZM111.758 155.166L112.928 161.051L112.935 161.049L111.758 155.166ZM103.001 156.237L102.701 150.245C102.686 150.246 102.671 150.246 102.655 150.247L103.001 156.237ZM101.183 156.307L101.251 162.306C101.266 162.306 101.282 162.306 101.297 162.306L101.183 156.307ZM99.6426 156.318L99.6426 162.318L99.6426 162.318L99.6426 156.318ZM98.1074 156.307L97.9702 162.305C97.9932 162.306 98.0162 162.306 98.0392 162.306L98.1074 156.307ZM87.8047 155.224L86.6728 161.116L86.6796 161.117L87.8047 155.224ZM81.8164 153.729L83.6002 148.001C83.5912 147.998 83.5821 147.995 83.5731 147.992L81.8164 153.729ZM78.8438 152.723L80.9288 147.097C79.0874 146.414 77.0286 146.676 75.4167 147.798C73.8048 148.919 72.8438 150.759 72.8438 152.723H78.8438ZM78.8438 157.947L84.8438 157.948V157.947H78.8438ZM75.9424 160.843L75.9424 166.843L75.9427 166.843L75.9424 160.843ZM62.0254 157.009L56.0254 157.009V157.009H62.0254ZM63.1494 154.299L58.9245 150.039C58.9126 150.05 58.9008 150.062 58.8891 150.074L63.1494 154.299ZM65.8594 153.175L67.0719 147.299C66.673 147.216 66.2667 147.175 65.8594 147.175V153.175ZM72.8496 154.617L71.6371 160.493C73.4038 160.858 75.2408 160.408 76.6394 159.269C78.0379 158.129 78.8496 156.421 78.8496 154.617H72.8496ZM72.8496 150.058H78.8496C78.8496 147.83 77.6153 145.786 75.644 144.748L72.8496 150.058ZM59.4727 139.182L53.4731 139.251C53.4885 140.581 53.9451 141.868 54.7712 142.909L59.4727 139.182ZM59.4668 139.176L54.7638 142.902C55.9018 144.338 57.6341 145.176 59.4668 145.176V139.176ZM52.1182 120.237L46.1182 120.24C46.1182 120.37 46.1225 120.499 46.1309 120.629L52.1182 120.237ZM52.1064 120.081L46.116 120.419C46.1221 120.528 46.1312 120.636 46.1431 120.744L52.1064 120.081ZM52.043 117.903L46.043 117.903V117.903H52.043ZM52.1299 115.355L46.1449 114.932L46.1441 114.943L52.1299 115.355ZM55.3916 102.729L60.8412 105.239C62.1016 102.503 61.1376 99.2559 58.5881 97.6509L55.3916 102.729ZM42.8232 84.5693L48.7369 83.5554L48.7368 83.5547L42.8232 84.5693ZM47.0234 66.7314L51.802 70.3599C53.1802 68.5448 53.4111 66.1056 52.3979 64.0641C51.3848 62.0226 49.3025 60.7314 47.0234 60.7314V66.7314ZM38.7314 66.7314V60.7314C35.4177 60.7314 32.7314 63.4177 32.7314 66.7314H38.7314ZM38.7314 83.9248L44.7314 83.9252V83.9248H38.7314ZM33.7402 88.916L33.7402 94.916L33.7403 94.916L33.7402 88.916ZM32.6309 88.916L32.6307 94.916H32.6309V88.916ZM27.6396 83.9248L21.6396 83.9248L21.6396 83.9252L27.6396 83.9248ZM27.6396 75.6055H33.6396C33.6396 72.2918 30.9535 69.6056 27.6398 69.6055C24.3262 69.6054 21.6399 72.2915 21.6396 75.6051L27.6396 75.6055ZM21.5381 80.5967L21.5376 86.5967H21.5381V80.5967ZM16.5469 75.6055L10.5469 75.6055L10.5469 75.6058L16.5469 75.6055ZM16.5469 52.3105L10.5469 52.3101V52.3105H16.5469ZM21.5381 47.3193L21.5381 41.3193L21.5376 41.3193L21.5381 47.3193ZM27.6396 52.3105L21.6396 52.311C21.6399 55.6247 24.3263 58.3107 27.6399 58.3105C30.9535 58.3104 33.6396 55.6242 33.6396 52.3105L27.6396 52.3105ZM27.6396 43.9912L21.6396 43.9907V43.9912H27.6396ZM32.6309 39L32.6309 33L32.6307 33L32.6309 39ZM127.951 66.7314V60.7314C126.009 60.7314 124.186 61.6719 123.061 63.2553C121.935 64.8387 121.646 66.869 122.285 68.7036L127.951 66.7314ZM129.989 79.0723L135.989 79.0724V79.0723H129.989ZM129.941 80.2529L123.955 79.8451C123.746 82.9101 125.887 85.6377 128.913 86.1642C131.94 86.6906 134.875 84.8459 135.714 81.8905L129.941 80.2529ZM133.777 66.7314L139.55 68.369C140.063 66.5596 139.698 64.6142 138.564 63.1138C137.43 61.6133 135.658 60.7314 133.777 60.7314V66.7314ZM69.3086 78.3018L63.3951 79.317C63.9186 82.3666 66.6754 84.5179 69.7608 84.2847C72.8462 84.0515 75.2483 81.5102 75.3075 78.4165L69.3086 78.3018ZM71.3389 66.7314L77.0056 68.7033C77.644 66.8686 77.3547 64.8385 76.2292 63.2552C75.1038 61.6719 73.2814 60.7314 71.3389 60.7314V66.7314ZM67.3223 66.7314V60.7314C65.5534 60.7314 63.8748 61.5119 62.7347 62.8644C61.5947 64.2168 61.1095 66.0033 61.4088 67.7466L67.3223 66.7314ZM16.5459 66.7314V72.7314C19.8596 72.7314 22.5459 70.0452 22.5459 66.7314H16.5459ZM11.7207 66.7314L11.7182 72.7314H11.7207V66.7314ZM11.7207 61.1846L11.7207 55.1846L11.7182 55.1846L11.7207 61.1846ZM16.5459 61.1846H22.5459C22.5459 57.8709 19.8596 55.1846 16.5459 55.1846V61.1846ZM182.934 66.7314H176.934C176.934 70.0452 179.62 72.7314 182.934 72.7314V66.7314ZM182.934 61.1846V55.1846C179.62 55.1846 176.934 57.8709 176.934 61.1846H182.934ZM33.7402 39L33.7402 45C33.1827 45 32.7315 44.548 32.7314 43.9917L38.7314 43.9912L44.7314 43.9907C44.731 37.9212 39.811 33 33.7403 33L33.7402 39ZM38.7314 43.9912H32.7314V61.1846H38.7314H44.7314V43.9912H38.7314ZM38.7314 61.1846V67.1846H52.6289V61.1846V55.1846H38.7314V61.1846ZM52.6289 61.1846L56.2789 65.9466C57.1654 65.2672 58.0705 64.6517 58.9645 64.1012L55.8184 58.9922L52.6722 53.8832C51.4603 54.6295 50.2157 55.4745 48.9789 56.4225L52.6289 61.1846ZM55.8184 58.9922L58.9673 64.0994C59.0174 64.0686 59.049 64.0557 59.062 64.051C59.075 64.0463 59.0804 64.0456 59.0809 64.0456C59.0819 64.0454 59.088 64.0445 59.1023 64.0454C59.1171 64.0463 59.146 64.0495 59.1898 64.0608C59.3734 64.1083 59.8249 64.31 60.3162 64.9259L65.0068 61.1846L69.6975 57.4432C65.995 52.8012 59.0704 49.9382 52.6694 53.8849L55.8184 58.9922ZM65.0068 61.1846V67.1846H73.8379V61.1846V55.1846H65.0068V61.1846ZM73.8379 61.1846L79.0645 64.1311C83.4389 56.3717 91.0828 51.6553 99.6426 51.6553V45.6553V39.6553C86.4057 39.6553 74.9372 47.0169 68.6112 58.238L73.8379 61.1846ZM99.6426 45.6553L99.6426 51.6553C100.147 51.6553 100.546 51.6665 100.891 51.6944L101.374 45.7139L101.857 39.7334C101.055 39.6686 100.296 39.6553 99.6426 39.6553L99.6426 45.6553ZM101.374 45.7139L101.022 51.7035C109.006 52.173 116.082 56.7834 120.226 64.1316L125.452 61.1846L130.679 58.2375C124.691 47.6198 114.098 40.4517 101.726 39.7242L101.374 45.7139ZM125.452 61.1846V67.1846H136.427V61.1846V55.1846H125.452V61.1846ZM136.427 61.1846L140.969 65.1043C141.556 64.4243 142.099 64.2093 142.335 64.1638C142.391 64.1531 142.428 64.1514 142.448 64.1516C142.467 64.1518 142.476 64.1538 142.477 64.154C142.477 64.1541 142.481 64.1549 142.493 64.1604C142.505 64.1659 142.536 64.182 142.585 64.2205L146.263 59.4795L149.94 54.7385C143.595 49.8172 135.97 52.5296 131.884 57.2648L136.427 61.1846ZM146.263 59.4795L147.637 65.32L147.654 65.3161L146.279 59.4756L144.905 53.6351L144.888 53.639L146.263 59.4795ZM146.279 59.4756L140.587 61.373L140.589 61.3788L146.281 59.4814L151.973 57.5841L151.971 57.5782L146.279 59.4756ZM146.281 59.4814L144.816 65.2998C144.82 65.3007 144.808 65.2977 144.794 65.2942C144.78 65.2905 144.762 65.286 144.742 65.2807C144.702 65.2701 144.654 65.2568 144.599 65.2408C144.497 65.2107 144.343 65.1626 144.159 65.0925C143.99 65.0281 143.693 64.9067 143.345 64.7091C143.058 64.5461 142.365 64.1275 141.711 63.3451L146.314 59.4971L150.918 55.649C150.26 54.862 149.561 54.4392 149.268 54.2725C148.913 54.0713 148.609 53.9466 148.433 53.8797C148.243 53.8069 148.082 53.7566 147.974 53.725C147.916 53.7082 147.866 53.6943 147.824 53.6832C147.803 53.6777 147.785 53.6729 147.77 53.6691C147.756 53.6655 147.743 53.6623 147.746 53.6631L146.281 59.4814ZM146.314 59.4971L142.627 64.2301C143.198 64.6748 143.773 65.1527 144.344 65.6619L148.338 61.1846L152.332 56.7072C151.556 56.0152 150.776 55.3671 150.002 54.7641L146.314 59.4971ZM148.338 61.1846V67.1846H160.748V61.1846V55.1846H148.338V61.1846ZM160.748 61.1846H166.748V43.9912H160.748H154.748V61.1846H160.748ZM160.748 43.9912L166.748 43.9917C166.748 44.5484 166.297 45 165.74 45L165.739 39L165.739 33C159.669 33.0005 154.749 37.9211 154.748 43.9907L160.748 43.9912ZM165.739 39V45H166.849V39V33H165.739V39ZM166.849 39V45C166.293 45 165.841 44.5493 165.841 43.9917L171.841 43.9912L177.841 43.9907C177.84 37.9199 172.918 33 166.849 33V39ZM171.841 43.9912H165.841V52.3105H171.841H177.841V43.9912H171.841ZM171.841 52.3105L177.841 52.311C177.841 52.8672 177.389 53.3193 176.832 53.3193L176.832 47.3193L176.832 41.3193C170.761 41.3194 165.841 46.2407 165.841 52.3101L171.841 52.3105ZM176.832 47.3193V53.3193H177.941V47.3193V41.3193H176.832V47.3193ZM177.941 47.3193L177.941 53.3193C177.384 53.3193 176.933 52.8671 176.933 52.311L182.933 52.3105L188.933 52.3101C188.932 46.2408 184.013 41.3194 177.941 41.3193L177.941 47.3193ZM182.933 52.3105H176.933V75.6055H182.933H188.933V52.3105H182.933ZM182.933 75.6055L176.933 75.6051C176.933 75.0488 177.384 74.5967 177.941 74.5967L177.941 80.5967L177.941 86.5967C184.013 86.5966 188.932 81.6754 188.933 75.6058L182.933 75.6055ZM177.941 80.5967V74.5967H176.832V80.5967V86.5967H177.941V80.5967ZM176.832 80.5967L176.832 74.5967C177.389 74.5967 177.841 75.0487 177.841 75.6051L171.841 75.6055L165.841 75.6058C165.841 81.6755 170.761 86.5966 176.832 86.5967L176.832 80.5967ZM171.841 75.6055H165.841V83.9248H171.841H177.841V75.6055H171.841ZM171.841 83.9248L165.841 83.9245C165.841 83.3667 166.293 82.916 166.849 82.916V88.916V94.916C172.918 94.916 177.84 89.9967 177.841 83.9252L171.841 83.9248ZM166.849 88.916V82.916H165.739V88.916V94.916H166.849V88.916ZM165.739 88.916L165.74 82.916C166.296 82.9161 166.748 83.3677 166.748 83.9245L160.748 83.9248L154.748 83.9252C154.748 89.9955 159.669 94.9155 165.739 94.916L165.739 88.916ZM160.748 83.9248H166.748V66.7314H160.748H154.748V83.9248H160.748ZM160.748 66.7314V60.7314H153.316V66.7314V72.7314H160.748V66.7314ZM153.316 66.7314L148.398 70.1678C148.651 70.5297 148.883 70.8911 149.092 71.2497L154.278 68.2334L159.465 65.2171C159.073 64.5422 158.658 63.9005 158.235 63.2951L153.316 66.7314ZM154.278 68.2334L149.127 71.3102C149.71 72.2853 150.194 73.2951 150.568 74.3532L156.226 72.3545L161.883 70.3558C161.22 68.4796 160.382 66.7507 159.429 65.1566L154.278 68.2334ZM156.226 72.3545L150.578 74.3812C150.924 75.3448 151.174 76.3517 151.312 77.4202L157.263 76.6494L163.213 75.8787C162.96 73.9232 162.5 72.0751 161.873 70.3278L156.226 72.3545ZM157.263 76.6494L151.319 77.4692C151.505 78.8207 151.521 80.3028 151.293 81.9128L157.233 82.7559L163.174 83.5989C163.56 80.8816 163.544 78.2802 163.206 75.8297L157.263 76.6494ZM157.233 82.7559L151.287 81.9542C151.179 82.757 150.988 83.6539 150.706 84.6543L156.48 86.2832L162.255 87.9121C162.658 86.4828 162.982 85.0253 163.18 83.5575L157.233 82.7559ZM156.48 86.2832L150.708 84.6459C150.146 86.6277 149.365 88.3326 148.439 89.8118L153.524 92.9961L158.61 96.1804C160.139 93.7377 161.382 90.9907 162.253 87.9205L156.48 86.2832ZM153.524 92.9961L147.606 93.9825L147.607 93.9883L153.525 93.002L159.444 92.0156L159.443 92.0097L153.524 92.9961ZM153.525 93.002L148.446 89.8083C147.064 92.0061 145.333 93.782 143.37 95.2285L146.928 100.06L150.486 104.891C153.539 102.642 156.347 99.7873 158.605 96.1956L153.525 93.002ZM146.928 100.06L145.573 94.2145C145.1 94.3242 144.71 94.4751 144.415 94.6106C144.268 94.6784 144.141 94.7443 144.036 94.8022C143.983 94.8313 143.934 94.8589 143.891 94.8845C143.847 94.91 143.807 94.9339 143.773 94.9555C143.738 94.977 143.706 94.9968 143.679 95.0142C143.652 95.0316 143.628 95.0472 143.609 95.0604C143.589 95.0735 143.572 95.0849 143.559 95.0939C143.545 95.1028 143.535 95.1101 143.528 95.115C143.521 95.1196 143.515 95.1233 143.514 95.1241C143.514 95.1244 143.514 95.1246 143.513 95.1247C143.513 95.1247 143.514 95.1246 143.514 95.1245C143.514 95.1242 143.515 95.1233 143.517 95.1221C143.521 95.1197 143.527 95.1152 143.536 95.1094C143.544 95.1036 143.555 95.096 143.569 95.0871C143.595 95.0695 143.631 95.0453 143.675 95.0172C143.719 94.9889 143.771 94.956 143.831 94.9201C143.952 94.8478 144.101 94.7639 144.277 94.678C144.365 94.6352 144.458 94.5922 144.557 94.5501C144.655 94.508 144.758 94.4671 144.866 94.4281C144.973 94.3892 145.084 94.3526 145.198 94.3187C145.312 94.2849 145.427 94.2542 145.545 94.2268L146.906 100.07L148.268 105.914C148.387 105.886 148.504 105.855 148.619 105.821C148.734 105.787 148.846 105.75 148.954 105.71C149.063 105.671 149.167 105.629 149.267 105.587C149.367 105.544 149.461 105.501 149.55 105.457C149.728 105.37 149.879 105.286 150.002 105.212C150.063 105.176 150.116 105.142 150.161 105.113C150.205 105.085 150.243 105.06 150.27 105.042C150.283 105.033 150.295 105.025 150.304 105.019C150.313 105.013 150.32 105.008 150.323 105.005C150.325 105.004 150.327 105.003 150.327 105.002C150.328 105.002 150.328 105.002 150.328 105.002C150.328 105.002 150.328 105.002 150.328 105.002C150.328 105.002 150.328 105.002 150.328 105.002C150.328 105.002 150.328 105.002 150.328 105.002C150.327 105.003 150.322 105.006 150.315 105.011C150.309 105.015 150.298 105.022 150.285 105.031C150.273 105.04 150.256 105.051 150.237 105.064C150.217 105.077 150.194 105.092 150.167 105.109C150.14 105.126 150.109 105.146 150.075 105.167C150.04 105.189 150.001 105.212 149.958 105.238C149.914 105.263 149.866 105.291 149.814 105.319C149.761 105.348 149.703 105.379 149.641 105.411C149.578 105.443 149.509 105.476 149.436 105.51C149.289 105.578 149.119 105.649 148.926 105.717C148.733 105.785 148.518 105.85 148.282 105.905L146.928 100.06ZM146.906 100.07L143.081 95.448C143.09 95.4405 143.117 95.418 143.158 95.3866C143.198 95.3559 143.264 95.3067 143.351 95.2475L146.714 100.217L150.076 105.186C150.372 104.986 150.605 104.798 150.732 104.693L146.906 100.07ZM146.714 100.217L143.207 95.3481C143.101 95.4248 142.994 95.5018 142.884 95.5808C142.775 95.6593 142.663 95.7398 142.55 95.8207L146.057 100.689L149.563 105.558C149.67 105.481 149.777 105.404 149.887 105.325C149.996 105.247 150.108 105.166 150.22 105.086L146.714 100.217ZM146.057 100.689L140.966 97.5141C141.649 96.4192 142.502 95.8401 142.838 95.627C143.251 95.3655 143.609 95.2104 143.804 95.1318C144.195 94.9742 144.519 94.8935 144.675 94.8572L146.03 100.702L147.385 106.547C147.548 106.509 147.882 106.426 148.284 106.264C148.485 106.183 148.848 106.026 149.265 105.761C149.605 105.545 150.462 104.963 151.148 103.865L146.057 100.689ZM146.03 100.702L142.66 95.738C142.401 95.9139 142.43 95.8875 142.007 96.1699L145.34 101.159L148.673 106.148C148.713 106.121 149.208 105.797 149.4 105.666L146.03 100.702ZM145.34 101.159L141.911 96.2352C141.796 96.3157 141.705 96.3847 141.651 96.4261C141.627 96.4451 141.607 96.461 141.604 96.4633C141.595 96.4703 141.61 96.4581 141.627 96.4452C141.692 96.395 142.041 96.1201 142.545 95.8621L145.278 101.203L148.012 106.544C148.537 106.275 148.904 105.987 148.988 105.922C149 105.913 149.01 105.905 149.016 105.9C149.019 105.898 149.022 105.896 149.023 105.895C149.024 105.894 149.025 105.894 149.025 105.893C149.026 105.893 149.026 105.893 149.026 105.893C149.028 105.891 149.013 105.903 148.993 105.918C148.951 105.951 148.871 106.012 148.768 106.083L145.34 101.159ZM145.278 101.203L142.052 96.1445C141.628 96.415 141.185 96.6772 140.723 96.9346L143.644 102.176L146.564 107.417C147.203 107.061 147.853 106.678 148.505 106.262L145.278 101.203ZM143.644 102.176L138.234 104.771C139.883 108.208 140.896 111.896 141.17 115.742L147.155 115.314L153.14 114.887C152.754 109.473 151.327 104.32 149.053 99.5806L143.644 102.176ZM147.155 115.314L141.172 115.759C141.225 116.481 141.254 117.195 141.254 117.903L147.254 117.903L153.254 117.903C153.254 116.874 153.213 115.862 153.139 114.87L147.155 115.314ZM147.254 117.903V111.903H147.248V117.903V123.903H147.254V117.903ZM147.248 117.903H141.248C141.248 118.522 141.225 119.17 141.188 119.846L147.179 120.174L153.17 120.501C153.214 119.695 153.248 118.813 153.248 117.903H147.248ZM147.179 120.174L141.203 119.631C141.203 119.635 141.203 119.638 141.202 119.649C141.201 119.657 141.2 119.671 141.198 119.686C141.196 119.715 141.191 119.764 141.187 119.822C141.179 119.936 141.167 120.124 141.167 120.354H147.167H153.167C153.167 120.525 153.158 120.655 153.154 120.71C153.153 120.725 153.152 120.736 153.152 120.744C153.151 120.751 153.151 120.755 153.151 120.756C153.151 120.756 153.151 120.755 153.151 120.754C153.151 120.752 153.151 120.75 153.151 120.746C153.152 120.741 153.153 120.729 153.154 120.717L147.179 120.174ZM147.167 120.354L141.181 119.94C140.777 125.799 138.63 131.019 135.117 135.446L139.817 139.176L144.518 142.905C149.46 136.676 152.573 129.167 153.153 120.767L147.167 120.354ZM139.817 139.176L135.113 135.451C132.076 139.287 127.968 142.572 122.999 145.078L125.701 150.436L128.403 155.793C134.75 152.592 140.285 148.25 144.521 142.9L139.817 139.176ZM125.701 150.436H119.701V154.617H125.701H131.701V150.436H125.701ZM125.701 154.617L126.914 160.493L133.904 159.051L132.691 153.175L131.479 147.299L124.489 148.741L125.701 154.617ZM132.691 153.175V159.175C132.075 159.175 131.54 158.919 131.176 158.559L135.401 154.299L139.626 150.039C137.862 148.289 135.405 147.175 132.691 147.175V153.175ZM135.401 154.299L131.141 158.524C130.787 158.167 130.525 157.63 130.525 157.009L136.525 157.009L142.525 157.009C142.525 154.268 141.394 151.821 139.662 150.074L135.401 154.299ZM136.525 157.009H130.525C130.525 155.803 131.486 154.843 132.691 154.843V160.843V166.843C138.113 166.843 142.525 162.431 142.525 157.009H136.525ZM132.691 160.843V154.843H122.608V160.843V166.843H132.691V160.843ZM122.608 160.843L122.609 154.843C124.316 154.843 125.707 156.218 125.707 157.947L119.707 157.947L113.707 157.948C113.707 162.861 117.704 166.843 122.608 166.843L122.608 160.843ZM119.707 157.947H125.707V152.985H119.707H113.707V157.947H119.707ZM119.707 152.985L117.708 147.328C117.124 147.535 116.545 147.729 115.97 147.908L117.752 153.637L119.534 159.366C120.278 159.135 121.002 158.891 121.706 158.643L119.707 152.985ZM117.752 153.637L115.937 147.918C114.237 148.457 112.449 148.909 110.581 149.283L111.758 155.166L112.935 161.049C115.179 160.601 117.398 160.044 119.567 159.356L117.752 153.637ZM111.758 155.166L110.588 149.281C108.059 149.784 105.425 150.108 102.701 150.245L103.001 156.237L103.301 162.23C106.588 162.065 109.804 161.672 112.928 161.051L111.758 155.166ZM103.001 156.237L102.655 150.247C102.133 150.277 101.601 150.298 101.068 150.308L101.183 156.307L101.297 162.306C101.98 162.293 102.665 162.267 103.346 162.227L103.001 156.237ZM101.183 156.307L101.114 150.307C100.599 150.313 100.118 150.318 99.6426 150.318L99.6426 156.318L99.6426 162.318C100.198 162.318 100.748 162.312 101.251 162.306L101.183 156.307ZM99.6426 156.318V150.318C99.1673 150.318 98.6922 150.313 98.1756 150.307L98.1074 156.307L98.0392 162.306C98.5419 162.312 99.087 162.318 99.6426 162.318V156.318ZM98.1074 156.307L98.2447 150.308C95.0284 150.235 91.9072 149.898 88.9297 149.33L87.8047 155.224L86.6796 161.117C90.3158 161.811 94.098 162.216 97.9702 162.305L98.1074 156.307ZM87.8047 155.224L88.9365 149.331C87.0944 148.977 85.3089 148.533 83.6002 148.001L81.8164 153.729L80.0326 159.458C82.1926 160.131 84.4147 160.682 86.6728 161.116L87.8047 155.224ZM81.8164 153.729L83.5731 147.992C82.6818 147.72 81.8006 147.42 80.9288 147.097L78.8438 152.723L76.7587 158.349C77.8328 158.747 78.9332 159.122 80.0597 159.467L81.8164 153.729ZM78.8438 152.723H72.8438V157.947H78.8438H84.8438V152.723H78.8438ZM78.8438 157.947L72.8438 157.947C72.8439 156.218 74.2348 154.843 75.9421 154.843L75.9424 160.843L75.9427 166.843C80.8465 166.843 84.8435 162.861 84.8437 157.948L78.8438 157.947ZM75.9424 160.843V154.843H65.8594V160.843V166.843H75.9424V160.843ZM65.8594 160.843V154.843C67.065 154.843 68.0254 155.803 68.0254 157.009H62.0254H56.0254C56.0254 162.431 60.4376 166.843 65.8594 166.843V160.843ZM62.0254 157.009L68.0254 157.009C68.0254 157.63 67.7638 158.167 67.4098 158.524L63.1494 154.299L58.8891 150.074C57.1567 151.821 56.0255 154.268 56.0254 157.009L62.0254 157.009ZM63.1494 154.299L67.3743 158.559C67.0112 158.919 66.4761 159.175 65.8594 159.175V153.175V147.175C63.1462 147.175 60.6892 148.289 58.9245 150.039L63.1494 154.299ZM65.8594 153.175L64.6469 159.051L71.6371 160.493L72.8496 154.617L74.0621 148.741L67.0719 147.299L65.8594 153.175ZM72.8496 154.617H78.8496V150.058H72.8496H66.8496V154.617H72.8496ZM72.8496 150.058L75.644 144.748C70.9643 142.285 67.0826 139.122 64.1741 135.454L59.4727 139.182L54.7712 142.909C58.8236 148.02 64.0576 152.211 70.0553 155.367L72.8496 150.058ZM59.4727 139.182C65.4723 139.112 65.4722 139.109 65.4722 139.106C65.4722 139.105 65.4721 139.102 65.4721 139.1C65.4721 139.097 65.472 139.093 65.4719 139.089C65.4718 139.081 65.4717 139.073 65.4715 139.065C65.4712 139.049 65.4708 139.033 65.4704 139.016C65.4695 138.984 65.4683 138.95 65.4667 138.915C65.4636 138.845 65.459 138.77 65.4525 138.69C65.4395 138.532 65.418 138.346 65.3814 138.139C65.3131 137.752 65.1679 137.147 64.826 136.471C64.4735 135.774 63.8518 134.889 62.8073 134.19C61.7214 133.464 60.5333 133.176 59.4668 133.176V139.176V145.176C58.4032 145.176 57.2173 144.889 56.133 144.163C55.0901 143.465 54.4696 142.582 54.1178 141.887C53.7766 141.212 53.6318 140.609 53.5637 140.223C53.5272 140.016 53.5057 139.83 53.4928 139.673C53.4863 139.593 53.4817 139.518 53.4786 139.449C53.477 139.414 53.4758 139.38 53.4749 139.347C53.4745 139.33 53.4741 139.314 53.4738 139.298C53.4736 139.29 53.4735 139.282 53.4734 139.275C53.4733 139.271 53.4733 139.267 53.4732 139.263C53.4732 139.261 53.4731 139.258 53.4731 139.257C53.4731 139.254 53.4731 139.251 59.4727 139.182ZM59.4668 139.176L64.1698 135.45C60.6466 131.003 58.4908 125.742 58.1054 119.846L52.1182 120.237L46.1309 120.629C46.6837 129.084 49.8084 136.646 54.7638 142.902L59.4668 139.176ZM52.1182 120.237L58.1182 120.235C58.118 119.806 58.0707 119.427 58.0697 119.418L52.1064 120.081L46.1431 120.744C46.1447 120.758 46.1398 120.716 46.1347 120.654C46.1319 120.62 46.1281 120.569 46.1249 120.505C46.1217 120.443 46.1182 120.352 46.1182 120.24L52.1182 120.237ZM52.1064 120.081L58.0969 119.743C58.062 119.124 58.043 118.514 58.043 117.903H52.043H46.043C46.043 118.764 46.0698 119.601 46.116 120.419L52.1064 120.081ZM52.043 117.903L58.043 117.903C58.043 117.181 58.0674 116.468 58.1157 115.768L52.1299 115.355L46.1441 114.943C46.0765 115.922 46.043 116.911 46.043 117.903L52.043 117.903ZM52.1299 115.355L58.1149 115.779C58.3759 112.094 59.3147 108.553 60.8412 105.239L55.3916 102.729L49.942 100.218C47.8334 104.796 46.5121 109.746 46.1449 114.932L52.1299 115.355ZM55.3916 102.729L58.5881 97.6509C53.8118 94.6441 49.8876 90.2665 48.7369 83.5554L42.8232 84.5693L36.9095 85.5833C38.7817 96.5019 45.3564 103.501 52.1951 107.806L55.3916 102.729ZM42.8232 84.5693L48.7368 83.5547C47.7545 77.8294 49.3175 73.6319 51.802 70.3599L47.0234 66.7314L42.2449 63.103C37.975 68.7264 35.3053 76.2332 36.9097 85.584L42.8232 84.5693ZM47.0234 66.7314V60.7314H38.7314V66.7314V72.7314H47.0234V66.7314ZM38.7314 66.7314H32.7314V83.9248H38.7314H44.7314V66.7314H38.7314ZM38.7314 83.9248L32.7314 83.9245C32.7315 83.368 33.1831 82.916 33.7402 82.916L33.7402 88.916L33.7403 94.916C39.8108 94.916 44.7311 89.9953 44.7314 83.9252L38.7314 83.9248ZM33.7402 88.916V82.916H32.6309V88.916V94.916H33.7402V88.916ZM32.6309 88.916L32.631 82.916C33.188 82.916 33.6396 83.3679 33.6396 83.9245L27.6396 83.9248L21.6396 83.9252C21.64 89.9954 26.5604 94.9159 32.6307 94.916L32.6309 88.916ZM27.6396 83.9248H33.6396V75.6055H27.6396H21.6396V83.9248H27.6396ZM27.6396 75.6055L21.6396 75.6051C21.6397 75.0472 22.0916 74.5967 22.6475 74.5967V80.5967V86.5967C28.7167 86.5967 33.6393 81.6771 33.6396 75.6058L27.6396 75.6055ZM22.6475 80.5967V74.5967H21.5381V80.5967V86.5967H22.6475V80.5967ZM21.5381 80.5967L21.5386 74.5967C22.0953 74.5967 22.5468 75.0481 22.5469 75.6051L16.5469 75.6055L10.5469 75.6058C10.5472 81.6759 15.4679 86.5962 21.5376 86.5967L21.5381 80.5967ZM16.5469 75.6055H22.5469V52.3105H16.5469H10.5469V75.6055H16.5469ZM16.5469 52.3105L22.5469 52.311C22.5468 52.8679 22.0954 53.3193 21.5386 53.3193L21.5381 47.3193L21.5376 41.3193C15.4678 41.3198 10.5474 46.2403 10.5469 52.3101L16.5469 52.3105ZM21.5381 47.3193V53.3193H22.6475V47.3193V41.3193H21.5381V47.3193ZM22.6475 47.3193V53.3193C22.0915 53.3193 21.6397 52.8688 21.6396 52.311L27.6396 52.3105L33.6396 52.3101C33.6392 46.2391 28.7168 41.3193 22.6475 41.3193V47.3193ZM27.6396 52.3105H33.6396V43.9912H27.6396H21.6396V52.3105H27.6396ZM27.6396 43.9912L33.6396 43.9917C33.6396 44.5481 33.1883 45 32.631 45L32.6309 39L32.6307 33C26.5601 33.0001 21.6401 37.9212 21.6396 43.9907L27.6396 43.9912ZM32.6309 39V45H33.7402V39V33H32.6309V39ZM127.951 66.7314L122.285 68.7036C123.375 71.8359 123.989 75.32 123.989 79.0723H129.989H135.989C135.989 74.003 135.158 69.1839 133.618 64.7593L127.951 66.7314ZM129.989 79.0723L123.989 79.0721C123.989 79.2259 123.98 79.4786 123.955 79.8451L129.941 80.2529L135.928 80.6608C135.962 80.1608 135.989 79.6082 135.989 79.0724L129.989 79.0723ZM129.941 80.2529L135.714 81.8905L139.55 68.369L133.777 66.7314L128.005 65.0939L124.169 78.6154L129.941 80.2529ZM133.777 66.7314V60.7314H127.951V66.7314V72.7314H133.777V66.7314ZM69.3086 78.3018L75.3075 78.4165C75.3745 74.9139 75.9791 71.6531 77.0056 68.7033L71.3389 66.7314L65.6721 64.7596C64.2227 68.9251 63.4005 73.4409 63.3097 78.187L69.3086 78.3018ZM71.3389 66.7314V60.7314H67.3223V66.7314V72.7314H71.3389V66.7314ZM67.3223 66.7314L61.4088 67.7466L63.3951 79.317L69.3086 78.3018L75.2221 77.2866L73.2358 65.7162L67.3223 66.7314ZM16.5459 66.7314V60.7314H11.7207V66.7314V72.7314H16.5459V66.7314ZM11.7207 66.7314L11.7232 60.7314C14.645 60.7327 17 63.1023 17 66.0098H11H5C5 69.7135 8.00029 72.7299 11.7182 72.7314L11.7207 66.7314ZM11 66.0098H17V61.9062H11H5V66.0098H11ZM11 61.9062H17C17 64.8138 14.645 67.1833 11.7232 67.1846L11.7207 61.1846L11.7182 55.1846C8.00029 55.1861 5 58.2025 5 61.9062H11ZM11.7207 61.1846V67.1846H16.5459V61.1846V55.1846H11.7207V61.1846ZM16.5459 61.1846H10.5459V66.7314H16.5459H22.5459V61.1846H16.5459ZM187.759 61.1846V67.1846C184.833 67.1846 182.479 64.8112 182.479 61.9062H188.479H194.479C194.479 58.2049 191.481 55.1846 187.759 55.1846V61.1846ZM188.479 61.9062H182.479V66.0098H188.479H194.479V61.9062H188.479ZM188.479 66.0098H182.479C182.479 63.1049 184.833 60.7314 187.759 60.7314V66.7314V72.7314C191.481 72.7314 194.479 69.7111 194.479 66.0098H188.479ZM187.759 66.7314V60.7314H182.934V66.7314V72.7314H187.759V66.7314ZM182.934 66.7314H188.934V61.1846H182.934H176.934V66.7314H182.934ZM182.934 61.1846V67.1846H187.759V61.1846V55.1846H182.934V61.1846Z" fill="white" mask="url(#path-1-outside-1_1062_24749)"/>
<path d="M146.28 59.4755L146.281 59.4812C146.281 59.4812 146.306 59.4872 146.314 59.4972C148.085 60.8764 149.898 62.5191 151.544 64.4384C151.624 64.5269 151.699 64.6223 151.78 64.7164C151.936 64.9003 152.087 65.0912 152.244 65.2808C152.493 65.5857 152.728 65.9058 152.958 66.2329C153.426 66.8676 153.873 67.5369 154.278 68.2337C155.045 69.5183 155.707 70.8868 156.226 72.354C156.712 73.7097 157.067 75.1375 157.263 76.6497C157.525 78.5507 157.54 80.5922 157.233 82.756C157.08 83.8913 156.824 85.0683 156.481 86.2832C155.764 88.8094 154.752 91.0354 153.524 92.9964L153.526 93.0021C151.706 95.8969 149.436 98.2123 146.928 100.06C146.922 100.061 146.918 100.068 146.906 100.071C146.846 100.12 146.781 100.171 146.714 100.216C146.495 100.374 146.276 100.532 146.057 100.69C146.053 100.697 146.036 100.701 146.03 100.702C145.804 100.855 145.571 101.004 145.339 101.159C145.314 101.177 145.299 101.192 145.278 101.203C142.745 102.818 140.051 104.019 137.437 104.899C137.382 104.917 137.331 104.929 137.276 104.948C136.43 105.221 135.609 105.346 134.809 105.359C134.785 105.359 134.768 105.363 134.745 105.362C131.964 105.37 129.578 103.872 128.048 101.504C127.319 100.383 126.794 99.066 126.512 97.6212C126.128 95.6534 126.194 93.4503 126.843 91.1716L127.514 88.8105L134.117 65.5339C135.896 59.278 142.037 56.2021 146.263 59.4795L146.28 59.4755Z" fill="#276286"/>
<path d="M71.759 92.5694L67.2496 66.3091C66.1464 59.8996 60.3665 56.1881 55.8186 58.9923C48.7143 63.3671 40.5626 71.3938 42.8232 84.5689C44.7097 95.5726 52.4191 101.707 59.7708 105.094C66.6763 108.283 73.2755 101.373 71.7663 92.5659L71.759 92.5694Z" fill="#276286"/>
<path d="M136.525 157.009C136.525 159.117 134.8 160.843 132.691 160.843H122.609C121.01 160.843 119.707 159.54 119.707 157.947V126.204C119.707 124.606 121.01 123.303 122.609 123.303H122.8C124.398 123.303 125.701 124.606 125.701 126.204V154.617L132.691 153.175C133.74 153.175 134.701 153.604 135.402 154.298C136.091 154.993 136.525 155.949 136.525 157.009Z" fill="#474747"/>
<path d="M62.0254 157.009C62.0254 159.117 63.7513 160.843 65.8593 160.843H75.9422C77.5407 160.843 78.8438 159.54 78.8438 157.947V126.204C78.8438 124.606 77.5407 123.303 75.9422 123.303H75.7511C74.1527 123.303 72.8496 124.606 72.8496 126.204V154.617L65.8593 153.175C64.8111 153.175 63.8497 153.604 63.149 154.298C62.4598 154.993 62.0254 155.949 62.0254 157.009Z" fill="#474747"/>
<path d="M147.248 117.904C147.248 118.668 147.219 119.433 147.179 120.174C147.173 120.238 147.167 120.296 147.167 120.353C146.675 127.483 144.046 133.847 139.818 139.176C134.577 145.795 126.874 150.799 117.753 153.637C115.818 154.251 113.814 154.755 111.758 155.166C108.932 155.728 106.008 156.087 103.002 156.237C102.399 156.272 101.791 156.295 101.183 156.307C100.674 156.312 100.158 156.318 99.6428 156.318C99.1273 156.318 98.6177 156.312 98.108 156.307C94.5637 156.226 91.112 155.855 87.8051 155.224C85.7549 154.83 83.7511 154.332 81.8167 153.729C72.5678 150.897 64.7725 145.865 59.4734 139.181C59.4734 139.181 59.4734 139.176 59.4676 139.176C55.2283 133.824 52.5874 127.413 52.1183 120.238C52.1183 120.191 52.1125 120.133 52.1067 120.081C52.0661 119.363 52.043 118.639 52.043 117.904C52.043 117.047 52.0719 116.195 52.1298 115.355C52.958 103.663 59.456 93.2901 69.2725 86.2477V85.8828C69.2783 84.6724 69.3014 80.8153 69.3014 79.0721C69.3014 59.9256 82.8881 45.6555 99.6428 45.6555C100.222 45.6555 100.801 45.6671 101.374 45.7134C117.33 46.6516 129.99 60.5916 129.99 79.0721C129.99 81.1512 129.376 85.3384 129.081 85.6048C129.15 85.6454 129.214 85.6859 129.266 85.7207C129.776 86.045 130.013 86.2477 130.013 86.2477C139.83 93.2669 146.322 103.628 147.156 115.315C147.219 116.172 147.254 117.035 147.254 117.904H147.248Z" fill="#4B9AE8"/>
<path d="M105.424 84.2091C105.065 86.9774 102.007 91.4658 98.8336 91.4889C95.6599 91.5121 92.3066 86.96 92.1503 83.9774C91.9939 81.0006 94.2236 78.9621 98.961 78.9331C103.751 78.9041 105.783 81.4408 105.424 84.2091Z" fill="#EAC00F"/>
<path d="M115.465 82.6843C118.951 82.6843 121.778 79.858 121.778 76.3716C121.778 72.8852 118.951 70.059 115.465 70.059C111.979 70.059 109.152 72.8852 109.152 76.3716C109.152 79.858 111.979 82.6843 115.465 82.6843Z" fill="white"/>
<path d="M115.466 79.7364C117.325 79.7364 118.831 78.2299 118.831 76.3715C118.831 74.5132 117.325 73.0067 115.466 73.0067C113.608 73.0067 112.102 74.5132 112.102 76.3715C112.102 78.2299 113.608 79.7364 115.466 79.7364Z" fill="#040000"/>
<path d="M82.3732 82.6843C85.8596 82.6843 88.6859 79.858 88.6859 76.3716C88.6859 72.8852 85.8596 70.059 82.3732 70.059C78.8868 70.059 76.0605 72.8852 76.0605 76.3716C76.0605 79.858 78.8868 82.6843 82.3732 82.6843Z" fill="white"/>
<path d="M82.3726 79.7364C84.231 79.7364 85.7375 78.2299 85.7375 76.3715C85.7375 74.5132 84.231 73.0067 82.3726 73.0067C80.5143 73.0067 79.0078 74.5132 79.0078 76.3715C79.0078 78.2299 80.5143 79.7364 82.3726 79.7364Z" fill="#040000"/>
<path d="M11 61.9059C11 61.5077 11.3228 61.1849 11.721 61.1849H16.5462V66.7312H11.721C11.3228 66.7312 11 66.4084 11 66.0102V61.9059Z" fill="#9B9B9B"/>
<path d="M164.077 61.1849H35.4043V66.7312H164.077V61.1849Z" fill="#9B9B9B"/>
<path d="M187.759 61.1849C188.157 61.1849 188.48 61.5077 188.48 61.9059V66.0102C188.48 66.4084 188.157 66.7312 187.759 66.7312H182.934V61.1849H187.759Z" fill="#9B9B9B"/>
<path d="M32.631 39C29.8741 39 27.6393 41.2348 27.6393 43.9916V52.311C27.6393 49.5542 25.4045 47.3194 22.6477 47.3194H21.5385C18.7817 47.3194 16.5469 49.5542 16.5469 52.311V75.6052C16.5469 78.362 18.7817 80.5968 21.5385 80.5968H22.6477C25.4045 80.5968 27.6393 78.362 27.6393 75.6052V83.9245C27.6393 86.6815 29.8741 88.9161 32.631 88.9161H33.7402C36.497 88.9161 38.7318 86.6815 38.7318 83.9245V43.9916C38.7318 41.2348 36.497 39 33.7402 39H32.631Z" fill="#533566"/>
<path d="M165.74 39C162.983 39 160.748 41.2348 160.748 43.9916V83.9245C160.748 86.6815 162.983 88.9161 165.74 88.9161H166.849C169.606 88.9161 171.841 86.6815 171.841 83.9245V75.6052C171.841 78.362 174.075 80.5968 176.832 80.5968H177.941C180.698 80.5968 182.933 78.362 182.933 75.6052V52.311C182.933 49.5542 180.698 47.3194 177.941 47.3194H176.832C174.075 47.3194 171.841 49.5542 171.841 52.311V43.9916C171.841 41.2348 169.606 39 166.849 39H165.74Z" fill="#533566"/>
</svg>
