<svg width="200" height="200" viewBox="0 0 200 200" fill="none" xmlns="http://www.w3.org/2000/svg">
<mask id="path-1-outside-1_1347_20321" maskUnits="userSpaceOnUse" x="5.80078" y="34.6768" width="189" height="131" fill="black">
<rect fill="white" x="5.80078" y="34.6768" width="189" height="131"/>
<path d="M90.5508 41.6816C99.7771 38.8279 111.309 42.3948 111.31 48.1016C111.31 50.3211 109.457 52.3984 106.338 53.793C112.913 54.9175 119.009 57.2718 124.496 60.5898C132.905 62.4468 138.682 65.1779 139.408 68.415C139.414 68.4414 139.42 68.4677 139.426 68.4941C139.43 68.5133 139.433 68.5325 139.437 68.5518C139.471 68.7362 139.49 68.9217 139.49 69.1084C139.49 70.1181 138.979 71.0937 138.027 72.0234C145.35 80.4008 150.517 90.8988 152.873 102.154C156.281 102.496 160.603 100.003 165.06 89.8037C169.483 79.6765 172.023 76.33 176.961 76.0479C194.349 75.0494 187.761 81.6483 182.26 84.5098C181.641 84.8306 180.87 85.5198 180.016 86.5625C180.017 86.562 180.018 86.562 180.02 86.5615C179.216 87.5409 178.338 88.8327 177.445 90.4258C177.432 90.45 177.419 90.4747 177.405 90.499C177.062 91.1147 176.716 91.7747 176.372 92.4785C176.349 92.5261 176.326 92.5741 176.303 92.6221C176.089 93.0626 175.877 93.5201 175.665 93.9941C175.404 94.5796 175.144 95.1902 174.888 95.8262C174.809 96.0223 174.731 96.221 174.652 96.4219C174.009 98.0759 173.391 99.8911 172.822 101.862C172.791 101.97 172.759 102.078 172.729 102.187C172.441 103.201 172.167 104.256 171.91 105.352C171.903 105.382 171.896 105.412 171.889 105.442C171.766 105.968 171.645 106.519 171.521 107.091C169.538 116.238 166.963 130.819 150.588 132.062C147.642 137.509 143.14 141.487 137.787 144.383C136.752 144.954 135.685 145.486 134.591 145.98C136.151 147.039 137.017 148.195 137.017 149.428C137.016 152.959 129.48 156.222 117.246 157.988C90.8856 161.793 57.9349 157.037 57.9336 149.428C57.9336 148.249 58.7742 147.102 60.3477 146.028C58.5744 145.219 56.8718 144.311 55.2607 143.292C51.1511 140.763 47.6398 137.513 45.0879 133.344C43.5222 133.644 41.9791 133.812 40.4668 133.852C40.2405 133.859 40.0147 133.863 39.79 133.863L39.7871 133.862L39.7861 133.863C34.2903 133.863 29.2189 132.128 24.8545 128.723C15.2167 121.2 11.8009 106.486 11.8008 97.5293C11.8008 85.5583 18.3801 73.4336 30.9541 73.4336C38.5953 73.4337 41.8724 76.0872 45.3418 78.8896C46.6415 79.9421 47.9705 81.0156 49.708 82.1133C51.7894 78.5115 54.1969 75.1298 56.8984 72.0371C55.9646 71.1142 55.461 70.1346 55.4609 69.1084C55.4609 68.7024 55.5449 68.2996 55.709 67.9014C56.4586 66.0638 58.8997 64.3599 62.6113 62.9004C62.606 62.9034 62.6001 62.9062 62.5947 62.9092C64.7698 62.0516 67.4003 61.2727 70.4277 60.5986C75.9176 57.2763 82.0174 54.9188 88.5977 53.793C85.6162 52.4675 83.6309 50.4693 83.6309 48.1016C83.6311 45.4532 86.269 43.0061 90.5508 41.6816ZM30.9551 83.8916C30.7725 83.8916 30.5925 83.8964 30.415 83.9043C30.2678 83.9108 30.1223 83.9198 29.9785 83.9316C29.7837 83.9477 29.5918 83.9675 29.4033 83.9932C29.3909 83.9948 29.3786 83.9963 29.3662 83.998C23.4002 84.8302 20.6071 90.4 20.4795 97.0596C20.4718 97.0199 20.4655 96.9795 20.458 96.9395C20.4534 97.135 20.4502 97.3319 20.4502 97.5293C20.4503 105.097 23.4561 115.08 30.1729 120.319C33.392 122.837 37.1414 123.915 41.3379 123.561C40.8746 121.219 40.6289 118.688 40.6289 115.95C40.6289 107.463 42.2626 99.0875 45.2754 91.3525C43.0121 89.9398 41.3383 88.5857 39.9043 87.4268C36.9046 85 35.536 83.8918 30.9551 83.8916Z"/>
</mask>
<path d="M90.5508 41.6816C99.7771 38.8279 111.309 42.3948 111.31 48.1016C111.31 50.3211 109.457 52.3984 106.338 53.793C112.913 54.9175 119.009 57.2718 124.496 60.5898C132.905 62.4468 138.682 65.1779 139.408 68.415C139.414 68.4414 139.42 68.4677 139.426 68.4941C139.43 68.5133 139.433 68.5325 139.437 68.5518C139.471 68.7362 139.49 68.9217 139.49 69.1084C139.49 70.1181 138.979 71.0937 138.027 72.0234C145.35 80.4008 150.517 90.8988 152.873 102.154C156.281 102.496 160.603 100.003 165.06 89.8037C169.483 79.6765 172.023 76.33 176.961 76.0479C194.349 75.0494 187.761 81.6483 182.26 84.5098C181.641 84.8306 180.87 85.5198 180.016 86.5625C180.017 86.562 180.018 86.562 180.02 86.5615C179.216 87.5409 178.338 88.8327 177.445 90.4258C177.432 90.45 177.419 90.4747 177.405 90.499C177.062 91.1147 176.716 91.7747 176.372 92.4785C176.349 92.5261 176.326 92.5741 176.303 92.6221C176.089 93.0626 175.877 93.5201 175.665 93.9941C175.404 94.5796 175.144 95.1902 174.888 95.8262C174.809 96.0223 174.731 96.221 174.652 96.4219C174.009 98.0759 173.391 99.8911 172.822 101.862C172.791 101.97 172.759 102.078 172.729 102.187C172.441 103.201 172.167 104.256 171.91 105.352C171.903 105.382 171.896 105.412 171.889 105.442C171.766 105.968 171.645 106.519 171.521 107.091C169.538 116.238 166.963 130.819 150.588 132.062C147.642 137.509 143.14 141.487 137.787 144.383C136.752 144.954 135.685 145.486 134.591 145.98C136.151 147.039 137.017 148.195 137.017 149.428C137.016 152.959 129.48 156.222 117.246 157.988C90.8856 161.793 57.9349 157.037 57.9336 149.428C57.9336 148.249 58.7742 147.102 60.3477 146.028C58.5744 145.219 56.8718 144.311 55.2607 143.292C51.1511 140.763 47.6398 137.513 45.0879 133.344C43.5222 133.644 41.9791 133.812 40.4668 133.852C40.2405 133.859 40.0147 133.863 39.79 133.863L39.7871 133.862L39.7861 133.863C34.2903 133.863 29.2189 132.128 24.8545 128.723C15.2167 121.2 11.8009 106.486 11.8008 97.5293C11.8008 85.5583 18.3801 73.4336 30.9541 73.4336C38.5953 73.4337 41.8724 76.0872 45.3418 78.8896C46.6415 79.9421 47.9705 81.0156 49.708 82.1133C51.7894 78.5115 54.1969 75.1298 56.8984 72.0371C55.9646 71.1142 55.461 70.1346 55.4609 69.1084C55.4609 68.7024 55.5449 68.2996 55.709 67.9014C56.4586 66.0638 58.8997 64.3599 62.6113 62.9004C62.606 62.9034 62.6001 62.9062 62.5947 62.9092C64.7698 62.0516 67.4003 61.2727 70.4277 60.5986C75.9176 57.2763 82.0174 54.9188 88.5977 53.793C85.6162 52.4675 83.6309 50.4693 83.6309 48.1016C83.6311 45.4532 86.269 43.0061 90.5508 41.6816ZM30.9551 83.8916C30.7725 83.8916 30.5925 83.8964 30.415 83.9043C30.2678 83.9108 30.1223 83.9198 29.9785 83.9316C29.7837 83.9477 29.5918 83.9675 29.4033 83.9932C29.3909 83.9948 29.3786 83.9963 29.3662 83.998C23.4002 84.8302 20.6071 90.4 20.4795 97.0596C20.4718 97.0199 20.4655 96.9795 20.458 96.9395C20.4534 97.135 20.4502 97.3319 20.4502 97.5293C20.4503 105.097 23.4561 115.08 30.1729 120.319C33.392 122.837 37.1414 123.915 41.3379 123.561C40.8746 121.219 40.6289 118.688 40.6289 115.95C40.6289 107.463 42.2626 99.0875 45.2754 91.3525C43.0121 89.9398 41.3383 88.5857 39.9043 87.4268C36.9046 85 35.536 83.8918 30.9551 83.8916Z" fill="#3071B1"/>
<path d="M90.5508 41.6816L88.7778 35.9496L88.7778 35.9496L90.5508 41.6816ZM111.31 48.1016H117.31V48.1011L111.31 48.1016ZM106.338 53.793L103.889 48.3154C101.477 49.3937 100.054 51.9229 100.385 54.5441C100.716 57.1653 102.722 59.2618 105.327 59.7071L106.338 53.793ZM124.496 60.5898L121.391 65.7241C121.951 66.0628 122.563 66.3076 123.202 66.4487L124.496 60.5898ZM139.408 68.415L133.554 69.7281C133.557 69.7435 133.561 69.7589 133.564 69.7742L139.408 68.415ZM139.426 68.4941L145.311 67.3272C145.308 67.313 145.306 67.2988 145.303 67.2846L139.426 68.4941ZM139.437 68.5518L133.531 69.6115C133.533 69.6247 133.536 69.638 133.538 69.6512L139.437 68.5518ZM139.49 69.1084L145.49 69.1085V69.1084H139.49ZM138.027 72.0234L133.835 67.7307C131.557 69.956 131.414 73.574 133.51 75.9721L138.027 72.0234ZM152.873 102.154L147 103.384C147.537 105.945 149.67 107.863 152.274 108.124L152.873 102.154ZM165.06 89.8037L170.558 92.2059L170.558 92.2053L165.06 89.8037ZM176.961 76.0479L177.303 82.0381L177.305 82.038L176.961 76.0479ZM182.26 84.5098L185.023 89.8356L185.029 89.8327L182.26 84.5098ZM180.016 86.5625L175.375 82.759C173.623 84.8967 173.558 87.9548 175.218 90.1651C176.877 92.3754 179.832 93.166 182.374 92.0797L180.016 86.5625ZM180.02 86.5615L184.658 90.3671C186.414 88.2274 186.478 85.1646 184.813 82.9534C183.149 80.7421 180.188 79.9561 177.646 81.0508L180.02 86.5615ZM177.445 90.4258L172.211 87.4923L172.211 87.4935L177.445 90.4258ZM177.405 90.499L182.646 93.4209L182.646 93.4196L177.405 90.499ZM176.372 92.4785L170.982 89.8421L170.982 89.8432L176.372 92.4785ZM176.303 92.6221L181.702 95.2396L181.702 95.2386L176.303 92.6221ZM175.665 93.9941L170.187 91.5472L170.186 91.5481L175.665 93.9941ZM174.888 95.8262L180.454 98.0663L180.454 98.0657L174.888 95.8262ZM174.652 96.4219L169.061 94.2449L169.061 94.2455L174.652 96.4219ZM172.822 101.862L178.587 103.524L178.588 103.524L172.822 101.862ZM172.729 102.187L166.955 100.553L166.955 100.553L172.729 102.187ZM171.91 105.352L166.069 103.98L166.069 103.98L171.91 105.352ZM171.889 105.442L177.731 106.808L177.731 106.807L171.889 105.442ZM171.521 107.091L165.657 105.817L165.657 105.82L171.521 107.091ZM150.588 132.062L150.134 126.08C148.099 126.234 146.282 127.413 145.311 129.208L150.588 132.062ZM137.787 144.383L134.932 139.106C134.917 139.114 134.902 139.122 134.888 139.13L137.787 144.383ZM134.591 145.98L132.118 140.514C130.139 141.409 128.799 143.303 128.613 145.467C128.427 147.631 129.425 149.727 131.223 150.946L134.591 145.98ZM137.017 149.428L143.017 149.429V149.428H137.017ZM117.246 157.988L118.103 163.927H118.103L117.246 157.988ZM57.9336 149.428H51.9336V149.429L57.9336 149.428ZM60.3477 146.028L63.7286 150.985C65.5177 149.765 66.5104 147.675 66.3258 145.517C66.1413 143.359 64.8081 141.468 62.8376 140.569L60.3477 146.028ZM55.2607 143.292L58.4682 138.221C58.4472 138.208 58.4261 138.195 58.405 138.182L55.2607 143.292ZM45.0879 133.344L50.2055 130.212C48.9008 128.08 46.4114 126.98 43.957 127.451L45.0879 133.344ZM40.4668 133.852L40.3109 127.854C40.2973 127.854 40.2837 127.854 40.27 127.855L40.4668 133.852ZM39.79 133.863L37.8927 139.555C38.5045 139.759 39.1451 139.863 39.79 139.863V133.863ZM39.7871 133.862L41.6845 128.17C39.5285 127.452 37.1515 128.013 35.5445 129.62L39.7871 133.862ZM39.7861 133.863L39.7861 139.863C41.3774 139.863 42.9035 139.231 44.0288 138.106L39.7861 133.863ZM24.8545 128.723L21.1627 133.452L21.1636 133.453L24.8545 128.723ZM11.8008 97.5293H5.80078V97.5294L11.8008 97.5293ZM30.9541 73.4336L30.9542 67.4336H30.9541V73.4336ZM45.3418 78.8896L49.1176 74.2267L49.112 74.2221L45.3418 78.8896ZM49.708 82.1133L46.5033 87.1857C47.8833 88.0576 49.559 88.3296 51.1439 87.9389C52.7289 87.5483 54.0862 86.5287 54.903 85.1153L49.708 82.1133ZM56.8984 72.0371L61.4172 75.9843C63.5029 73.5966 63.371 69.9982 61.1161 67.7696L56.8984 72.0371ZM55.4609 69.1084H49.4609V69.1085L55.4609 69.1084ZM55.709 67.9014L61.2568 70.1865C61.2594 70.1802 61.262 70.1739 61.2645 70.1677L55.709 67.9014ZM62.6113 62.9004L65.5431 68.1354C68.2964 66.5934 69.3847 63.1823 68.0332 60.3307C66.6817 57.4791 63.3523 56.1618 60.4156 57.3166L62.6113 62.9004ZM62.5947 62.9092L59.6546 57.6789C56.9045 59.2249 55.8214 62.6365 57.1761 65.4856C58.5308 68.3348 61.8606 69.6482 64.7955 68.491L62.5947 62.9092ZM70.4277 60.5986L71.7317 66.4552C72.3678 66.3136 72.9766 66.0693 73.5342 65.7318L70.4277 60.5986ZM88.5977 53.793L89.6095 59.707C92.2159 59.2611 94.2231 57.1614 94.5513 54.5376C94.8794 51.9138 93.4513 49.3845 91.035 48.3103L88.5977 53.793ZM83.6309 48.1016L77.6309 48.1011V48.1016H83.6309ZM30.9551 83.8916L30.9554 77.8916H30.9537L30.9551 83.8916ZM30.415 83.9043L30.6795 89.8985L30.6818 89.8984L30.415 83.9043ZM29.9785 83.9316L29.488 77.9517L29.4853 77.9519L29.9785 83.9316ZM29.4033 83.9932L30.2079 89.939L30.2112 89.9385L29.4033 83.9932ZM29.3662 83.998L28.5407 78.0551L28.5374 78.0556L29.3662 83.998ZM20.4795 97.0596L14.5897 98.2043C15.1752 101.217 17.9397 103.302 20.9972 103.037C24.0548 102.772 26.4196 100.243 26.4784 97.1745L20.4795 97.0596ZM20.458 96.9395L26.3556 95.8359C25.7907 92.8165 23.0365 90.7115 19.9748 90.9589C16.913 91.2063 14.5326 93.7262 14.4597 96.7971L20.458 96.9395ZM20.4502 97.5293H14.4502V97.5294L20.4502 97.5293ZM30.1729 120.319L33.8694 115.593L33.8632 115.588L30.1729 120.319ZM41.3379 123.561L41.8422 129.539C43.5434 129.396 45.1029 128.534 46.1302 127.171C47.1575 125.807 47.5552 124.071 47.2237 122.396L41.3379 123.561ZM40.6289 115.95L34.6289 115.95V115.95H40.6289ZM45.2754 91.3525L50.8663 93.5302C51.9132 90.8424 50.8993 87.79 48.4524 86.2627L45.2754 91.3525ZM39.9043 87.4268L36.1306 92.0914L36.1328 92.0932L39.9043 87.4268ZM90.5508 41.6816L92.3238 47.4137C95.7081 46.3669 99.6595 46.4988 102.617 47.4135C104.09 47.8691 104.972 48.4133 105.371 48.7684C105.738 49.096 105.31 48.8769 105.31 48.102L111.31 48.1016L117.31 48.1011C117.309 44.4728 115.439 41.6679 113.356 39.8108C111.303 37.9813 108.726 36.7421 106.163 35.9493C101.047 34.3673 94.6197 34.1426 88.7778 35.9496L90.5508 41.6816ZM111.31 48.1016H105.31C105.31 47.447 105.601 47.1657 105.486 47.2969C105.343 47.4594 104.883 47.871 103.889 48.3154L106.338 53.793L108.787 59.2705C112.662 57.538 117.31 53.9149 117.31 48.1016H111.31ZM106.338 53.793L105.327 59.7071C111.129 60.6993 116.518 62.777 121.391 65.7241L124.496 60.5898L127.601 55.4556C121.5 51.7665 114.698 49.1356 107.349 47.8788L106.338 53.793ZM124.496 60.5898L123.202 66.4487C127.158 67.3221 130.156 68.334 132.106 69.3294C133.079 69.8255 133.591 70.2177 133.81 70.4268C134.032 70.6383 133.71 70.4242 133.554 69.7281L139.408 68.415L145.263 67.102C144.268 62.6669 140.387 60.0827 137.56 58.6404C134.339 56.9967 130.244 55.7145 125.79 54.731L124.496 60.5898ZM139.408 68.415L133.564 69.7742C133.566 69.7807 133.564 69.7753 133.562 69.7646C133.56 69.7534 133.555 69.732 133.549 69.7036L139.426 68.4941L145.303 67.2846C145.281 67.1798 145.261 67.0921 145.252 67.0558L139.408 68.415ZM139.426 68.4941L133.54 69.661C133.536 69.6396 133.533 69.6236 133.532 69.6158C133.53 69.6086 133.53 69.605 133.531 69.6115L139.437 68.5518L145.342 67.492C145.338 67.4697 145.326 67.4042 145.311 67.3272L139.426 68.4941ZM139.437 68.5518L133.538 69.6512C133.514 69.5217 133.49 69.3369 133.49 69.1084H139.49H145.49C145.49 68.5065 145.428 67.9508 145.335 67.4523L139.437 68.5518ZM139.49 69.1084L133.49 69.1083C133.49 68.5646 133.635 68.137 133.765 67.8815C133.881 67.6529 133.957 67.6117 133.835 67.7307L138.027 72.0234L142.219 76.3161C143.851 74.7227 145.49 72.2967 145.49 69.1085L139.49 69.1084ZM138.027 72.0234L133.51 75.9721C140.13 83.5456 144.847 93.0979 147 103.384L152.873 102.154L158.746 100.925C156.186 88.6996 150.57 77.2559 142.545 68.0748L138.027 72.0234ZM152.873 102.154L152.274 108.124C159.98 108.898 165.969 102.709 170.558 92.2059L165.06 89.8037L159.561 87.4015C157.506 92.1069 155.734 94.4165 154.562 95.4704C154.009 95.9673 153.663 96.1191 153.548 96.1607C153.516 96.172 153.495 96.1779 153.483 96.1808C153.471 96.1837 153.465 96.1844 153.465 96.1844C153.464 96.1845 153.466 96.1843 153.469 96.1842C153.472 96.1842 153.473 96.1844 153.472 96.1843L152.873 102.154ZM165.06 89.8037L170.558 92.2053C172.785 87.1063 174.228 84.495 175.402 83.1049C176.195 82.1658 176.556 82.0808 177.303 82.0381L176.961 76.0479L176.619 70.0576C172.428 70.2971 169.051 72.0263 166.233 75.3628C163.797 78.2483 161.757 82.3738 159.561 87.4021L165.06 89.8037ZM176.961 76.0479L177.305 82.038C179.313 81.9226 180.865 81.924 182.039 81.9961C183.238 82.0698 183.893 82.2088 184.173 82.2929C184.509 82.394 183.997 82.3192 183.365 81.6497C183.018 81.2812 182.671 80.768 182.445 80.1156C182.219 79.4646 182.171 78.8409 182.216 78.3193C182.259 77.8184 182.383 77.4513 182.469 77.2444C182.556 77.0375 182.63 76.9283 182.638 76.9178C182.64 76.9142 182.521 77.0771 182.189 77.3759C181.523 77.9743 180.522 78.6507 179.491 79.1869L182.26 84.5098L185.029 89.8327C186.749 88.938 188.634 87.7166 190.207 86.304C190.994 85.5974 191.833 84.7266 192.533 83.7054C193.2 82.7339 194.01 81.2362 194.172 79.3433C194.357 77.186 193.643 75.057 192.093 73.4142C190.729 71.9683 189.029 71.2217 187.624 70.7998C184.846 69.9659 181.139 69.7981 176.617 70.0577L176.961 76.0479ZM182.26 84.5098L179.497 79.1839C177.802 80.063 176.413 81.493 175.375 82.759L180.016 86.5625L184.656 90.366C184.941 90.0183 185.148 89.8094 185.263 89.7045C185.318 89.6542 185.333 89.6456 185.307 89.665C185.283 89.6823 185.188 89.7501 185.023 89.8356L182.26 84.5098ZM180.016 86.5625L182.374 92.0797C182.262 92.1273 182.156 92.1686 182.057 92.2045C181.958 92.2404 181.865 92.271 181.78 92.2973C181.694 92.3236 181.615 92.3458 181.544 92.3645C181.473 92.3833 181.408 92.3989 181.352 92.4118C181.295 92.4246 181.245 92.4352 181.203 92.4437C181.161 92.4521 181.126 92.4589 181.098 92.4639C181.071 92.4689 181.049 92.4727 181.036 92.4749C181.03 92.476 181.024 92.477 181.021 92.4775C181.019 92.4779 181.016 92.4784 181.017 92.4782C181.017 92.4782 181.018 92.4781 181.019 92.4779C181.02 92.4778 181.021 92.4775 181.023 92.4772C181.027 92.4766 181.033 92.4756 181.04 92.4743C181.054 92.4719 181.077 92.4678 181.105 92.4626C181.134 92.4574 181.17 92.4504 181.213 92.4417C181.256 92.4329 181.307 92.4221 181.365 92.4089C181.422 92.3956 181.488 92.3797 181.559 92.3606C181.631 92.3415 181.711 92.3189 181.797 92.2922C181.883 92.2655 181.976 92.2344 182.076 92.1982C182.175 92.1619 182.281 92.1202 182.393 92.0722L180.02 86.5615L177.646 81.0508C177.758 81.0029 177.863 80.9613 177.963 80.9251C178.062 80.8889 178.155 80.8578 178.241 80.8312C178.327 80.8045 178.407 80.782 178.478 80.7629C178.55 80.7439 178.615 80.728 178.672 80.7148C178.73 80.7016 178.781 80.6908 178.823 80.6821C178.866 80.6734 178.903 80.6664 178.931 80.6612C178.959 80.656 178.982 80.652 178.996 80.6496C179.003 80.6484 179.009 80.6474 179.012 80.6468C179.014 80.6465 179.016 80.6462 179.017 80.6461C179.018 80.6459 179.018 80.6458 179.018 80.6458C179.019 80.6457 179.016 80.6461 179.014 80.6466C179.01 80.6471 179.005 80.6481 178.998 80.6492C178.985 80.6515 178.963 80.6553 178.936 80.6603C178.908 80.6654 178.872 80.6722 178.83 80.6806C178.788 80.6891 178.738 80.6997 178.681 80.7126C178.625 80.7256 178.56 80.7412 178.489 80.76C178.417 80.7787 178.338 80.801 178.253 80.8273C178.167 80.8537 178.074 80.8844 177.975 80.9203C177.875 80.9563 177.769 80.9976 177.658 81.0453L180.016 86.5625ZM180.02 86.5615L175.381 82.756C174.31 84.0608 173.24 85.6576 172.211 87.4923L177.445 90.4258L182.679 93.3593C183.437 92.0078 184.122 91.0209 184.658 90.3671L180.02 86.5615ZM177.445 90.4258L172.211 87.4935C172.193 87.5243 172.179 87.5505 172.169 87.5692C172.159 87.5871 172.151 87.6029 172.147 87.6086C172.143 87.6175 172.144 87.6149 172.146 87.6116C172.148 87.6071 172.155 87.5949 172.164 87.5784L177.405 90.499L182.646 93.4196C182.662 93.3909 182.676 93.3666 182.685 93.3498C182.693 93.3343 182.701 93.3195 182.703 93.3161C182.707 93.3096 182.705 93.3132 182.702 93.3188C182.698 93.3254 182.69 93.3394 182.68 93.358L177.445 90.4258ZM177.405 90.499L172.165 87.5772C171.768 88.2892 171.372 89.0445 170.982 89.8421L176.372 92.4785L181.762 95.1149C182.06 94.5048 182.356 93.9402 182.646 93.4209L177.405 90.499ZM176.372 92.4785L170.982 89.8432C170.961 89.885 170.943 89.9233 170.931 89.9488C170.916 89.9792 170.91 89.9915 170.903 90.0055L176.303 92.6221L181.702 95.2386C181.759 95.121 181.737 95.1654 181.762 95.1139L176.372 92.4785ZM176.303 92.6221L170.904 90.0045C170.66 90.507 170.421 91.0219 170.187 91.5472L175.665 93.9941L181.143 96.4411C181.332 96.0184 181.518 95.6181 181.702 95.2396L176.303 92.6221ZM175.665 93.9941L170.186 91.5481C169.896 92.1987 169.606 92.8782 169.321 93.5867L174.888 95.8262L180.454 98.0657C180.681 97.5022 180.911 96.9605 181.144 96.4402L175.665 93.9941ZM174.888 95.8262L169.322 93.5861C169.231 93.8101 169.144 94.0312 169.061 94.2449L174.652 96.4219L180.243 98.5988C180.317 98.4107 180.386 98.2345 180.454 98.0663L174.888 95.8262ZM174.652 96.4219L169.061 94.2455C168.35 96.0721 167.674 98.0591 167.057 100.2L172.822 101.862L178.588 103.524C179.107 101.723 179.667 100.08 180.244 98.5983L174.652 96.4219ZM172.822 101.862L167.057 100.2C167.045 100.242 166.989 100.435 166.955 100.553L172.729 102.187L178.502 103.82C178.53 103.721 178.538 103.698 178.587 103.524L172.822 101.862ZM172.729 102.187L166.955 100.553C166.644 101.654 166.347 102.796 166.069 103.98L171.91 105.352L177.751 106.723C177.988 105.716 178.239 104.749 178.502 103.82L172.729 102.187ZM171.91 105.352L166.069 103.98C166.068 103.985 166.066 103.991 166.062 104.009C166.059 104.024 166.052 104.05 166.046 104.078L171.889 105.442L177.731 106.807C177.749 106.733 177.722 106.849 177.751 106.723L171.91 105.352ZM171.889 105.442L166.046 104.077C165.912 104.651 165.782 105.241 165.657 105.817L171.521 107.091L177.384 108.365C177.507 107.796 177.62 107.284 177.731 106.808L171.889 105.442ZM171.521 107.091L165.657 105.82C164.6 110.698 163.628 115.547 161.294 119.475C159.24 122.93 156.159 125.622 150.134 126.08L150.588 132.062L151.042 138.045C161.391 137.259 167.786 132.039 171.609 125.606C175.152 119.646 176.459 112.631 177.384 108.362L171.521 107.091ZM150.588 132.062L145.311 129.208C143.032 133.42 139.49 136.64 134.932 139.106L137.787 144.383L140.642 149.66C146.791 146.334 152.252 141.598 155.865 134.917L150.588 132.062ZM137.787 144.383L134.888 139.13C134.001 139.619 133.078 140.08 132.118 140.514L134.591 145.98L137.063 151.447C138.292 150.892 139.503 150.289 140.687 149.636L137.787 144.383ZM134.591 145.98L131.223 150.946C131.629 151.221 131.637 151.309 131.508 151.128C131.343 150.898 131.017 150.3 131.017 149.428H137.017H143.017C143.017 145.155 140.045 142.43 137.959 141.015L134.591 145.98ZM137.017 149.428L131.017 149.427C131.017 148.016 131.79 147.402 131.574 147.601C131.366 147.794 130.719 148.265 129.335 148.864C126.606 150.046 122.246 151.204 116.389 152.05L117.246 157.988L118.103 163.927C124.48 163.006 130.005 161.65 134.103 159.876C136.132 158.997 138.133 157.88 139.721 156.412C141.301 154.951 143.016 152.605 143.017 149.429L137.017 149.428ZM117.246 157.988L116.389 152.05C103.812 153.865 89.5622 153.638 78.5623 152.05C73.0273 151.251 68.6411 150.153 65.7994 148.971C64.3558 148.37 63.6483 147.885 63.3983 147.662C63.1456 147.436 63.9333 148.027 63.9336 149.427L57.9336 149.428L51.9336 149.429C51.9342 152.731 53.7519 155.135 55.4044 156.611C57.0596 158.09 59.1325 159.194 61.1902 160.051C65.3508 161.781 70.8501 163.061 76.8481 163.927C88.9139 165.668 104.32 165.916 118.103 163.927L117.246 157.988ZM57.9336 149.428H63.9336C63.9336 150.345 63.5888 150.958 63.4295 151.181C63.3017 151.359 63.3144 151.268 63.7286 150.985L60.3477 146.028L56.9668 141.072C54.8907 142.488 51.9336 145.203 51.9336 149.428H57.9336ZM60.3477 146.028L62.8376 140.569C61.2874 139.862 59.8274 139.081 58.4682 138.221L55.2607 143.292L52.0533 148.363C53.9163 149.541 55.8614 150.577 57.8577 151.487L60.3477 146.028ZM55.2607 143.292L58.405 138.182C54.9593 136.062 52.1851 133.446 50.2055 130.212L45.0879 133.344L39.9703 136.476C43.0945 141.581 47.3429 145.465 52.1165 148.402L55.2607 143.292ZM45.0879 133.344L43.957 127.451C42.7018 127.692 41.4848 127.823 40.3109 127.854L40.4668 133.852L40.6227 139.85C42.4735 139.801 44.3427 139.596 46.2188 139.236L45.0879 133.344ZM40.4668 133.852L40.27 127.855C40.0982 127.86 39.9388 127.863 39.79 127.863V133.863V139.863C40.0906 139.863 40.3829 139.858 40.6636 139.848L40.4668 133.852ZM39.79 133.863L41.6874 128.171L41.6845 128.17L39.7871 133.862L37.8897 139.554L37.8927 139.555L39.79 133.863ZM39.7871 133.862L35.5445 129.62L35.5435 129.621L39.7861 133.863L44.0288 138.106L44.0298 138.105L39.7871 133.862ZM39.7861 133.863L39.7862 127.863C35.626 127.863 31.854 126.574 28.5454 123.992L24.8545 128.723L21.1636 133.453C26.5837 137.682 32.9546 139.863 39.7861 139.863L39.7861 133.863ZM24.8545 128.723L28.5463 123.993C24.9204 121.163 22.1886 116.732 20.3611 111.638C18.5439 106.572 17.8008 101.342 17.8008 97.5292L11.8008 97.5293L5.80078 97.5294C5.80085 102.673 6.76575 109.278 9.06594 115.69C11.3558 122.073 15.1507 128.76 21.1627 133.452L24.8545 128.723ZM11.8008 97.5293H17.8008C17.8008 92.5429 19.1887 87.7959 21.5535 84.4673C23.8064 81.2961 26.8736 79.4336 30.9541 79.4336V73.4336V67.4336C22.4606 67.4336 15.9511 71.6334 11.7709 77.5173C7.70255 83.2439 5.80078 90.5447 5.80078 97.5293H11.8008ZM30.9541 73.4336L30.954 79.4336C34.0307 79.4336 35.8885 79.9573 37.2091 80.5636C38.6383 81.2197 39.779 82.1091 41.5716 83.5572L45.3418 78.8896L49.112 74.2221C47.4352 72.8677 45.2026 71.0291 42.2157 69.6579C39.12 68.2367 35.5187 67.4336 30.9542 67.4336L30.9541 73.4336ZM45.3418 78.8896L41.566 83.5526C42.8651 84.6046 44.437 85.8803 46.5033 87.1857L49.708 82.1133L52.9127 77.0408C51.504 76.1508 50.4179 75.2796 49.1176 74.2267L45.3418 78.8896ZM49.708 82.1133L54.903 85.1153C56.796 81.8395 58.9789 78.7757 61.4172 75.9843L56.8984 72.0371L52.3796 68.0899C49.415 71.4838 46.7827 75.1836 44.513 79.1112L49.708 82.1133ZM56.8984 72.0371L61.1161 67.7696C61.0095 67.6643 61.0893 67.7133 61.2032 67.9425C61.33 68.1978 61.4609 68.6043 61.4609 69.1083L55.4609 69.1084L49.4609 69.1085C49.461 72.26 51.0406 74.6836 52.6808 76.3046L56.8984 72.0371ZM55.4609 69.1084H61.4609C61.4609 69.5507 61.3658 69.9219 61.2568 70.1865L55.709 67.9014L50.1612 65.6162C49.7241 66.6773 49.4609 67.8541 49.4609 69.1084H55.4609ZM55.709 67.9014L61.2645 70.1677C61.0458 70.7039 60.856 70.6301 61.5475 70.1339C62.1813 69.6791 63.234 69.1028 64.8071 68.4842L62.6113 62.9004L60.4156 57.3166C58.2771 58.1576 56.2534 59.163 54.5513 60.3844C52.907 61.5643 51.1218 63.2613 50.1535 65.6351L55.709 67.9014ZM62.6113 62.9004L59.6796 57.6654C59.7109 57.6479 59.7385 57.6328 59.7612 57.6205C59.7839 57.6083 59.8032 57.5981 59.8177 57.5905C59.8321 57.5829 59.8436 57.577 59.85 57.5737C59.8533 57.572 59.8559 57.5706 59.8573 57.5699C59.8584 57.5693 59.8594 57.5688 59.8586 57.5692C59.8585 57.5693 59.8518 57.5727 59.8438 57.5769C59.8353 57.5813 59.8218 57.5883 59.8053 57.5969C59.7887 57.6057 59.7674 57.617 59.7426 57.6304C59.7177 57.6438 59.688 57.6601 59.6546 57.6789L62.5947 62.9092L65.5349 68.1394C65.5028 68.1575 65.4744 68.173 65.4509 68.1857C65.4275 68.1984 65.4075 68.209 65.3923 68.217C65.3772 68.2249 65.3651 68.2312 65.358 68.2349C65.3544 68.2368 65.3515 68.2383 65.3498 68.2391C65.3482 68.2399 65.347 68.2406 65.3474 68.2404C65.3474 68.2404 65.3479 68.2401 65.3484 68.2398C65.349 68.2395 65.3499 68.2391 65.3509 68.2386C65.353 68.2375 65.3562 68.2358 65.3603 68.2337C65.3681 68.2297 65.381 68.223 65.3967 68.2147C65.4126 68.2064 65.4333 68.1954 65.4574 68.1825C65.4815 68.1695 65.5104 68.1536 65.5431 68.1354L62.6113 62.9004ZM62.5947 62.9092L64.7955 68.491C66.608 67.7764 68.9247 67.0802 71.7317 66.4552L70.4277 60.5986L69.1238 54.742C65.8759 55.4652 62.9316 56.3268 60.3939 57.3274L62.5947 62.9092ZM70.4277 60.5986L73.5342 65.7318C78.4104 62.7809 83.8033 60.7004 89.6095 59.707L88.5977 53.793L87.5858 47.8789C80.2315 49.1372 73.4249 51.7717 67.3212 55.4654L70.4277 60.5986ZM88.5977 53.793L91.035 48.3103C90.062 47.8778 89.5969 47.4802 89.4469 47.3143C89.3861 47.247 89.4342 47.2809 89.4994 47.4325C89.5705 47.5979 89.6309 47.8332 89.6309 48.1016H83.6309H77.6309C77.6309 54.1644 82.5601 57.6751 86.1603 59.2756L88.5977 53.793ZM83.6309 48.1016L89.6309 48.1021C89.6308 48.904 89.2139 49.1203 89.5659 48.7937C89.9309 48.4552 90.7889 47.8885 92.3238 47.4137L90.5508 41.6816L88.7778 35.9496C86.0309 36.7993 83.429 38.1183 81.4045 39.9965C79.3671 41.8867 77.6311 44.6507 77.6309 48.1011L83.6309 48.1016ZM30.9551 83.8916L30.9537 77.8916C30.6683 77.8917 30.3985 77.8991 30.1483 77.9102L30.415 83.9043L30.6818 89.8984C30.7866 89.8937 30.8768 89.8916 30.9564 89.8916L30.9551 83.8916ZM30.415 83.9043L30.1506 77.9101C29.9321 77.9198 29.7111 77.9334 29.488 77.9517L29.9785 83.9316L30.469 89.9116C30.5335 89.9063 30.6035 89.9018 30.6795 89.8985L30.415 83.9043ZM29.9785 83.9316L29.4853 77.9519C29.2106 77.9746 28.911 78.0049 28.5954 78.0478L29.4033 83.9932L30.2112 89.9385C30.2727 89.9302 30.3567 89.9208 30.4717 89.9113L29.9785 83.9316ZM29.4033 83.9932L28.5987 78.0474C28.6096 78.0459 28.6177 78.0448 28.6206 78.0445C28.622 78.0443 28.6248 78.0439 28.6182 78.0448C28.6141 78.0453 28.6038 78.0466 28.5916 78.0482C28.579 78.0499 28.5614 78.0522 28.5407 78.0551L29.3662 83.998L30.1917 89.941C30.1772 89.943 30.1658 89.9445 30.1594 89.9454C30.1534 89.9462 30.1493 89.9467 30.1513 89.9464C30.1518 89.9464 30.1522 89.9463 30.1531 89.9462C30.1539 89.9461 30.1551 89.9459 30.1564 89.9458C30.159 89.9454 30.1629 89.9449 30.1675 89.9443C30.1766 89.9432 30.1908 89.9413 30.2079 89.939L29.4033 83.9932ZM29.3662 83.998L28.5374 78.0556C23.6417 78.7384 19.9638 81.4654 17.6498 85.1566C15.4433 88.6765 14.5582 92.8952 14.4806 96.9446L20.4795 97.0596L26.4784 97.1745C26.5284 94.5644 27.1038 92.6684 27.8171 91.5304C28.4231 90.5638 29.1248 90.0898 30.195 89.9405L29.3662 83.998ZM20.4795 97.0596L26.3693 95.9148C26.3745 95.9417 26.3782 95.9619 26.3799 95.9715C26.3815 95.9803 26.3823 95.9852 26.3809 95.977C26.3808 95.9763 26.3789 95.9656 26.3781 95.9607C26.3768 95.9534 26.375 95.9432 26.373 95.9317C26.369 95.909 26.363 95.8754 26.3556 95.8359L20.458 96.9395L14.5604 98.043C14.5567 98.0235 14.5543 98.01 14.5539 98.0073C14.5536 98.0058 14.5536 98.0057 14.5541 98.0085C14.555 98.0136 14.5548 98.0129 14.5565 98.0222C14.5585 98.0341 14.5628 98.059 14.568 98.0878C14.5733 98.1175 14.5806 98.1576 14.5897 98.2043L20.4795 97.0596ZM20.458 96.9395L14.4597 96.7971C14.4544 97.0218 14.4502 97.2692 14.4502 97.5293H20.4502H26.4502C26.4502 97.3947 26.4524 97.2481 26.4563 97.0818L20.458 96.9395ZM20.4502 97.5293L14.4502 97.5294C14.4503 106.137 17.7716 118.255 26.4825 125.05L30.1729 120.319L33.8632 115.588C29.1407 111.905 26.4503 104.056 26.4502 97.5292L20.4502 97.5293ZM30.1729 120.319L26.4763 125.045C30.941 128.538 36.2065 130.015 41.8422 129.539L41.3379 123.561L40.8336 117.582C38.0763 117.814 35.843 117.137 33.8694 115.593L30.1729 120.319ZM41.3379 123.561L47.2237 122.396C46.8422 120.468 46.6289 118.328 46.6289 115.95H40.6289H34.6289C34.6289 119.047 34.9069 121.971 35.452 124.725L41.3379 123.561ZM40.6289 115.95L46.6289 115.95C46.6289 108.228 48.1165 100.59 50.8663 93.5302L45.2754 91.3525L39.6845 89.1749C36.4088 97.585 34.6289 106.698 34.6289 115.95L40.6289 115.95ZM45.2754 91.3525L48.4524 86.2627C46.5279 85.0614 45.1019 83.9129 43.6758 82.7603L39.9043 87.4268L36.1328 92.0932C37.5746 93.2585 39.4963 94.8183 42.0984 96.4424L45.2754 91.3525ZM39.9043 87.4268L43.678 82.7621C42.3334 81.6743 40.6194 80.2383 38.485 79.2778C36.1503 78.2271 33.7365 77.8917 30.9554 77.8916L30.9551 83.8916L30.9548 89.8916C32.7546 89.8917 33.3155 90.1105 33.5603 90.2207C34.0053 90.421 34.4755 90.7525 36.1306 92.0914L39.9043 87.4268Z" fill="white" mask="url(#path-1-outside-1_1347_20321)"/>
<path d="M57.9336 149.428C57.9336 157.038 90.8851 161.794 117.246 157.989C129.481 156.223 137.017 152.959 137.017 149.428C137.017 141.818 104.066 137.062 77.7046 140.867C65.4706 142.633 57.9336 145.896 57.9336 149.428Z" fill="#3071B1"/>
<path d="M66.1953 150.796C66.1953 150.796 82.4913 154.538 97.6853 154.098C110.235 153.732 125.433 152.338 129.837 150.356C129.837 150.356 124.554 157.182 98.1248 157.182C71.6958 157.182 66.1953 150.796 66.1953 150.796Z" fill="#4B9AE8"/>
<path d="M55.4609 69.1083C55.4609 77.6693 90.4714 83.0203 118.48 78.7398C131.479 76.7528 139.487 73.0818 139.487 69.1083C139.487 60.5473 104.476 55.1968 76.4674 59.4773C63.4684 61.4638 55.4609 65.1353 55.4609 69.1083Z" fill="#3071B1"/>
<path d="M176.961 76.0481C194.35 75.0496 187.761 81.6486 182.26 84.5101C179.764 85.8051 174.772 93.1006 171.89 105.438C169.641 115.066 167.703 133.404 146.124 132.084C131.325 131.179 145.901 97.0696 145.901 97.0696C145.901 97.0696 155.149 112.486 165.059 89.8036C169.483 79.6761 172.023 76.3301 176.961 76.0481ZM39.7863 133.863C34.2903 133.863 29.2188 132.128 24.8543 128.723C15.2163 121.2 11.8008 106.486 11.8008 97.5291C11.8008 85.5581 18.3798 73.4336 30.9538 73.4336C38.5953 73.4336 41.8723 76.0876 45.3418 78.8901C47.2893 80.4671 49.3013 82.0931 52.6573 83.7736L48.7918 93.3181C44.5958 91.2226 41.9958 89.1166 39.9048 87.4266C36.9048 84.9996 35.5358 83.8921 30.9538 83.8921C23.7373 83.8921 20.4503 90.0906 20.4503 97.5291C20.4503 105.097 23.4558 115.081 30.1728 120.32C34.2358 123.498 39.1438 124.383 44.7288 122.989L46.8298 132.959C44.4273 133.562 42.0698 133.863 39.7863 133.863Z" fill="#4B9AE8"/>
<path d="M154.311 115.95C154.311 148.211 120.206 151.899 97.4699 151.899C74.7334 151.899 40.6289 148.211 40.6289 115.95C40.6289 83.6894 64.2299 53.0449 97.4699 53.0449C130.71 53.0449 154.311 83.6894 154.311 115.95Z" fill="#4B9AE8"/>
<path d="M128.252 106.505C133.362 106.505 137.505 102.362 137.505 97.2524C137.505 92.1424 133.362 88 128.252 88C123.142 88 119 92.1424 119 97.2524C119 102.362 123.142 106.505 128.252 106.505Z" fill="white"/>
<path d="M128.108 102.866C131.171 102.866 133.655 100.383 133.655 97.3195C133.655 94.2559 131.171 91.7725 128.108 91.7725C125.044 91.7725 122.561 94.2559 122.561 97.3195C122.561 100.383 125.044 102.866 128.108 102.866Z" fill="black"/>
<path d="M156.715 127.012C154.298 127.205 151.431 123.271 151.431 123.271C147.245 133.398 134.913 145.953 96.3744 145.953C61.8004 145.953 49.0284 135.38 42.2024 126.355C42.2024 126.355 43.8334 132.296 33.3944 130.096C30.1919 129.419 23.8749 126.3 18.7344 121.901C20.4149 124.491 22.4369 126.834 24.8584 128.722C29.2229 132.128 34.2989 133.863 39.7904 133.863C41.5404 133.863 43.3394 133.63 45.1634 133.279C55.1474 149.59 79.4259 152.294 97.1654 152.294C115.349 152.294 141.071 149.496 150.536 132.044C167.959 130.734 169.803 114.364 171.889 105.442C174.059 96.1499 177.425 89.7244 180.02 86.5614C179.871 86.6254 179.768 86.6404 179.614 86.7144C170.589 91.1184 170.367 125.91 156.715 127.012ZM35.1544 81.2084C31.9909 79.4189 25.4664 80.1059 22.1599 85.6124C19.9754 89.2499 19.8319 93.7279 20.4794 97.0594C20.6179 89.8334 23.8949 83.8919 30.9579 83.8919C35.5349 83.8919 36.9089 84.9994 39.9094 87.4264C41.3374 88.5829 43.0529 89.9369 45.3064 91.3459L46.1669 88.9139C46.1669 88.9139 40.2204 84.0699 35.1544 81.2084ZM132.342 62.9004C133.746 63.6864 134.547 64.5219 134.547 65.4014C134.547 69.4939 117.949 72.8154 97.4769 72.8154C77.0044 72.8154 60.4064 69.4939 60.4064 65.4014C60.4064 64.5219 61.2074 63.6864 62.6109 62.9004C58.0984 64.6749 55.4639 66.8104 55.4639 69.1084C55.4639 75.2524 74.2759 80.2294 97.4769 80.2294C120.678 80.2294 139.49 75.2524 139.49 69.1084C139.49 66.8104 136.855 64.6749 132.342 62.9004Z" fill="#3071B1"/>
<path d="M83.6309 48.1017C83.6309 53.8092 95.1634 57.3762 104.39 54.5227C108.672 53.1982 111.31 50.7507 111.31 48.1017C111.31 42.3947 99.7769 38.8272 90.5504 41.6812C86.2684 43.0057 83.6309 45.4532 83.6309 48.1017Z" fill="#EAC00F"/>
<path d="M175.652 78.4554C175.652 79.7259 179.965 80.5204 183.415 79.8849C185.016 79.5899 186.002 79.0449 186.002 78.4554C186.002 77.1844 181.69 76.3899 178.24 77.0254C176.639 77.3204 175.652 77.8654 175.652 78.4554Z" fill="#3071B1"/>
</svg>
