<svg width="200" height="200" viewBox="0 0 200 200" fill="none" xmlns="http://www.w3.org/2000/svg">
<mask id="path-1-outside-1_1062_21799" maskUnits="userSpaceOnUse" x="11.999" y="25" width="175" height="151" fill="black">
<rect fill="white" x="11.999" y="25" width="175" height="151"/>
<path d="M83.1917 31.0674C85.5636 30.9235 100.387 31.0411 102.993 31.1328C106.713 31.2639 108.756 33.2287 108.822 35.8086C108.871 37.598 108.872 42.3635 108.872 42.9082C134.052 42.8014 165.659 42.7718 167.914 42.9062C171.987 43.142 173.454 45.1199 174.004 47.5557C174.577 50.1088 174.295 54.8126 174.292 54.8633C174.292 54.8633 174.293 54.8682 174.294 54.877H174.306C174.31 54.8928 174.609 56.0932 174.869 57.7715C175.167 59.7 175.324 60.7074 175.327 60.7305H175.307C176.755 69.382 179.317 85.8365 180.029 97.873C180.347 103.266 180.531 108.602 180.633 113.378L180.657 113.379C180.658 113.404 180.787 116.106 180.787 119.704C180.787 123.349 180.762 126.114 180.762 126.147L180.746 126.146C180.736 129.286 180.7 131.231 180.697 131.412C180.704 131.412 180.708 131.413 180.708 131.413C180.708 131.47 180.63 143.625 180.447 146.958C180.276 150.298 178.154 152.761 176.582 152.669C176.285 152.652 174.391 152.643 171.514 152.637C171.397 160.726 165.844 168.329 155.499 168.267C144.734 168.201 139.796 159.269 139.692 153.074C139.69 152.933 139.689 152.792 139.691 152.651C133.251 152.661 128.571 152.669 128.571 152.669C128.571 152.669 128.573 152.659 128.577 152.642L79.474 152.577L79.4359 152.562C78.8668 152.559 74.6503 152.536 68.762 152.497C69.0468 160.903 63.4708 169.065 52.7552 169C41.9898 168.934 37.0525 160.002 36.9476 153.808C36.9386 153.27 36.9545 152.739 36.9954 152.216C30.2266 152.131 24.994 152.037 23.6712 151.935C19.1007 151.581 18.7473 146.147 19.1009 140.437C19.4375 135.013 23.8933 131.096 24.3197 130.733L24.3001 125.532H24.2972L24.266 121.956C24.264 121.956 24.262 121.957 24.2601 121.957C24.2601 121.957 24.064 113.038 24.0902 111.951C24.1421 110.694 24.2194 109.976 24.221 109.961C24.222 109.961 24.2299 109.96 24.2445 109.96C24.2373 109.648 24.2677 107.56 26.223 105.05C28.253 102.444 40.9827 93.8649 41.5589 93.1445C42.0889 92.4668 59.371 63.8819 61.4124 60.5049C61.7136 59.9742 62.4671 58.6664 63.4085 57.1562C63.3977 57.1559 63.3917 57.1563 63.391 57.1562C63.391 57.1562 62.54 51.6295 65.5521 48.2637C69.3631 43.9871 73.1966 44.4457 73.6742 44.5225C73.8452 44.3563 74.0055 44.2006 74.1566 44.0586C75.3688 42.9237 77.6608 43.1728 77.7308 43.1807C77.7407 42.7496 77.8304 38.9491 77.9661 36.1484C78.1105 33.1757 80.8215 31.1984 83.1917 31.0674Z"/>
</mask>
<path d="M83.1917 31.0674C85.5636 30.9235 100.387 31.0411 102.993 31.1328C106.713 31.2639 108.756 33.2287 108.822 35.8086C108.871 37.598 108.872 42.3635 108.872 42.9082C134.052 42.8014 165.659 42.7718 167.914 42.9062C171.987 43.142 173.454 45.1199 174.004 47.5557C174.577 50.1088 174.295 54.8126 174.292 54.8633C174.292 54.8633 174.293 54.8682 174.294 54.877H174.306C174.31 54.8928 174.609 56.0932 174.869 57.7715C175.167 59.7 175.324 60.7074 175.327 60.7305H175.307C176.755 69.382 179.317 85.8365 180.029 97.873C180.347 103.266 180.531 108.602 180.633 113.378L180.657 113.379C180.658 113.404 180.787 116.106 180.787 119.704C180.787 123.349 180.762 126.114 180.762 126.147L180.746 126.146C180.736 129.286 180.7 131.231 180.697 131.412C180.704 131.412 180.708 131.413 180.708 131.413C180.708 131.47 180.63 143.625 180.447 146.958C180.276 150.298 178.154 152.761 176.582 152.669C176.285 152.652 174.391 152.643 171.514 152.637C171.397 160.726 165.844 168.329 155.499 168.267C144.734 168.201 139.796 159.269 139.692 153.074C139.69 152.933 139.689 152.792 139.691 152.651C133.251 152.661 128.571 152.669 128.571 152.669C128.571 152.669 128.573 152.659 128.577 152.642L79.474 152.577L79.4359 152.562C78.8668 152.559 74.6503 152.536 68.762 152.497C69.0468 160.903 63.4708 169.065 52.7552 169C41.9898 168.934 37.0525 160.002 36.9476 153.808C36.9386 153.27 36.9545 152.739 36.9954 152.216C30.2266 152.131 24.994 152.037 23.6712 151.935C19.1007 151.581 18.7473 146.147 19.1009 140.437C19.4375 135.013 23.8933 131.096 24.3197 130.733L24.3001 125.532H24.2972L24.266 121.956C24.264 121.956 24.262 121.957 24.2601 121.957C24.2601 121.957 24.064 113.038 24.0902 111.951C24.1421 110.694 24.2194 109.976 24.221 109.961C24.222 109.961 24.2299 109.96 24.2445 109.96C24.2373 109.648 24.2677 107.56 26.223 105.05C28.253 102.444 40.9827 93.8649 41.5589 93.1445C42.0889 92.4668 59.371 63.8819 61.4124 60.5049C61.7136 59.9742 62.4671 58.6664 63.4085 57.1562C63.3977 57.1559 63.3917 57.1563 63.391 57.1562C63.391 57.1562 62.54 51.6295 65.5521 48.2637C69.3631 43.9871 73.1966 44.4457 73.6742 44.5225C73.8452 44.3563 74.0055 44.2006 74.1566 44.0586C75.3688 42.9237 77.6608 43.1728 77.7308 43.1807C77.7407 42.7496 77.8304 38.9491 77.9661 36.1484C78.1105 33.1757 80.8215 31.1984 83.1917 31.0674Z" fill="#AFE3FB"/>
<path d="M83.1917 31.0674L83.5229 37.0582L83.539 37.0573L83.5551 37.0564L83.1917 31.0674ZM102.993 31.1328L103.205 25.1365L103.204 25.1365L102.993 31.1328ZM108.822 35.8086L102.824 35.9609L102.824 35.974L108.822 35.8086ZM108.872 42.9082L102.872 42.91L102.874 48.9337L108.898 48.9081L108.872 42.9082ZM167.914 42.9062L167.557 48.8956L167.568 48.8962L167.914 42.9062ZM174.004 47.5557L179.859 46.2414L179.857 46.2341L174.004 47.5557ZM174.292 54.8633L168.303 54.5018L168.279 54.9046L168.309 55.3069L174.292 54.8633ZM174.294 54.877L168.391 55.9496L169.286 60.877H174.294V54.877ZM174.306 54.877L180.127 53.4243L178.993 48.877H174.306V54.877ZM174.869 57.7715L180.799 56.8563L180.799 56.8522L174.869 57.7715ZM175.327 60.7305V66.7305H182.335L181.256 59.8064L175.327 60.7305ZM175.307 60.7305V54.7305H168.219L169.389 61.7208L175.307 60.7305ZM180.029 97.873L186.018 97.5191L186.018 97.5191L180.029 97.873ZM180.633 113.378L174.635 113.507L174.755 119.138L180.383 119.373L180.633 113.378ZM180.657 113.379L186.65 113.09L186.386 107.612L180.906 107.384L180.657 113.379ZM180.787 119.704L186.787 119.704L186.787 119.704L180.787 119.704ZM180.762 126.147L180.388 132.136L186.702 132.53L186.762 126.204L180.762 126.147ZM180.746 126.146L181.121 120.158L174.769 119.761L174.746 126.126L180.746 126.146ZM180.697 131.412L174.698 131.292L174.577 137.358L180.643 137.412L180.697 131.412ZM180.708 131.413L186.708 131.452L186.739 126.609L182.012 125.557L180.708 131.413ZM180.447 146.958L174.456 146.629L174.455 146.641L174.454 146.653L180.447 146.958ZM176.582 152.669L176.931 146.679L176.93 146.679L176.582 152.669ZM171.514 152.637L171.527 146.637L165.6 146.624L165.515 152.55L171.514 152.637ZM155.499 168.267L155.463 174.266L155.463 174.266L155.499 168.267ZM139.692 153.074L133.692 153.165L133.693 153.176L139.692 153.074ZM139.691 152.651L145.69 152.708L145.748 146.642L139.682 146.651L139.691 152.651ZM128.571 152.669L122.682 151.516L121.279 158.681L128.581 158.669L128.571 152.669ZM128.577 152.642L134.356 154.257L136.482 146.652L128.585 146.642L128.577 152.642ZM79.474 152.577L77.3201 158.177L78.3561 158.576L79.4661 158.577L79.474 152.577ZM79.4359 152.562L81.5898 146.962L80.5657 146.569L79.4685 146.563L79.4359 152.562ZM68.762 152.497L68.8021 146.497L62.554 146.456L62.7655 152.7L68.762 152.497ZM52.7552 169L52.7187 175L52.7188 175L52.7552 169ZM36.9476 153.808L30.9484 153.908L30.9485 153.909L36.9476 153.808ZM36.9954 152.216L42.9772 152.683L43.4765 146.296L37.0703 146.216L36.9954 152.216ZM23.6712 151.935L23.2085 157.917L23.2086 157.917L23.6712 151.935ZM19.1009 140.437L13.1124 140.065L13.1124 140.066L19.1009 140.437ZM24.3197 130.733L28.2089 135.302L30.3301 133.497L30.3196 130.711L24.3197 130.733ZM24.3001 125.532L30.3001 125.51L30.2776 119.532H24.3001V125.532ZM24.2972 125.532L18.2974 125.585L18.3494 131.532H24.2972V125.532ZM24.266 121.956L30.2657 121.904L30.2137 115.952L24.2619 115.956L24.266 121.956ZM24.2601 121.957L18.2615 122.089L18.3906 127.957H24.2601V121.957ZM24.0902 111.951L18.0953 111.703L18.0932 111.755L18.0919 111.807L24.0902 111.951ZM24.221 109.961L24.1964 103.961L18.8339 103.983L18.256 109.314L24.221 109.961ZM24.2445 109.96L24.2691 115.96L30.3837 115.935L30.2429 109.822L24.2445 109.96ZM26.223 105.05L21.4894 101.363L21.4892 101.363L26.223 105.05ZM41.5589 93.1445L46.2445 96.8923L46.2652 96.8664L46.2855 96.8403L41.5589 93.1445ZM61.4124 60.5049L66.5472 63.6089L66.5899 63.5381L66.6308 63.4662L61.4124 60.5049ZM63.4085 57.1562L68.5002 60.3303L74.0136 51.4859L63.5966 51.1592L63.4085 57.1562ZM63.391 57.1562L57.4608 58.0693L58.219 62.9936L63.1988 63.1532L63.391 57.1562ZM65.5521 48.2637L70.0232 52.2648L70.0316 52.2555L65.5521 48.2637ZM73.6742 44.5225L72.7225 50.4465L75.6961 50.9242L77.8559 48.8252L73.6742 44.5225ZM74.1566 44.0586L70.056 39.6785L70.0476 39.6864L74.1566 44.0586ZM77.7308 43.1807L77.0567 49.1427L83.5787 49.8801L83.7292 43.3183L77.7308 43.1807ZM77.9661 36.1484L71.9732 35.8574L71.9732 35.858L77.9661 36.1484ZM83.1917 31.0674L83.5551 37.0564C85.6189 36.9312 100.197 37.0381 102.783 37.1291L102.993 31.1328L103.204 25.1365C100.578 25.0441 85.5083 24.9158 82.8284 25.0784L83.1917 31.0674ZM102.993 31.1328L102.782 37.1291C103.664 37.1602 103.7 37.3838 103.409 37.1384C103.262 37.0143 103.099 36.8208 102.979 36.567C102.861 36.3164 102.827 36.0969 102.824 35.9609L108.822 35.8086L114.82 35.6563C114.745 32.7147 113.488 29.942 111.147 27.9663C108.888 26.0608 106.042 25.2365 103.205 25.1365L102.993 31.1328ZM108.822 35.8086L102.824 35.974C102.87 37.6592 102.872 42.3167 102.872 42.91L108.872 42.9082L114.872 42.9064C114.872 42.4103 114.872 37.5367 114.819 35.6432L108.822 35.8086ZM108.872 42.9082L108.898 48.9081C121.481 48.8548 135.67 48.8207 146.992 48.8168C152.654 48.8148 157.594 48.8204 161.255 48.8348C163.087 48.842 164.59 48.8514 165.7 48.863C166.256 48.8688 166.702 48.8751 167.038 48.8818C167.206 48.8851 167.337 48.8883 167.434 48.8913C167.542 48.8946 167.573 48.8966 167.557 48.8956L167.914 42.9062L168.271 36.9169C165.763 36.7673 133.832 36.8023 108.847 36.9083L108.872 42.9082ZM167.914 42.9062L167.568 48.8962C168.131 48.9288 168.408 49.0111 168.49 49.0404C168.553 49.0632 168.465 49.0401 168.324 48.9169C168.185 48.7946 168.106 48.6716 168.079 48.619C168.06 48.5839 168.1 48.6473 168.152 48.8772L174.004 47.5557L179.857 46.2341C179.411 44.2581 178.447 41.8335 176.237 39.8949C174.014 37.946 171.218 37.0874 168.261 36.9163L167.914 42.9062ZM174.004 47.5557L168.15 48.8699C168.279 49.4432 168.364 50.6751 168.364 52.1509C168.365 53.4824 168.301 54.5374 168.303 54.5018L174.292 54.8633L180.281 55.2248C180.287 55.1385 180.365 53.8162 180.364 52.1448C180.364 50.6178 180.303 48.2212 179.859 46.2414L174.004 47.5557ZM174.292 54.8633C168.309 55.3069 168.309 55.3075 168.309 55.3081C168.309 55.3082 168.309 55.3088 168.309 55.3092C168.309 55.3099 168.309 55.3106 168.309 55.3114C168.309 55.3129 168.309 55.3143 168.309 55.3158C168.31 55.3188 168.31 55.3217 168.31 55.3247C168.311 55.3307 168.311 55.3366 168.311 55.3426C168.312 55.3546 168.313 55.3667 168.315 55.3789C168.317 55.4032 168.319 55.428 168.321 55.4531C168.326 55.5034 168.332 55.5554 168.339 55.6089C168.352 55.7157 168.369 55.8296 168.391 55.9496L174.294 54.877L180.198 53.8043C180.218 53.9156 180.234 54.0226 180.247 54.1248C180.253 54.176 180.259 54.2261 180.263 54.2752C180.266 54.2998 180.268 54.3241 180.27 54.3481C180.271 54.3602 180.272 54.3721 180.273 54.3841C180.274 54.39 180.274 54.3959 180.275 54.4019C180.275 54.4048 180.275 54.4078 180.275 54.4108C180.275 54.4122 180.275 54.4137 180.276 54.4152C180.276 54.4159 180.276 54.4167 180.276 54.4174C180.276 54.4178 180.276 54.4183 180.276 54.4185C180.276 54.4191 180.276 54.4196 174.292 54.8633ZM174.294 54.877V60.877H174.306V54.877V48.877H174.294V54.877ZM174.306 54.877L168.484 56.3296C168.462 56.2414 168.717 57.2526 168.94 58.6908L174.869 57.7715L180.799 56.8522C180.501 54.9337 180.157 53.5442 180.127 53.4243L174.306 54.877ZM174.869 57.7715L168.94 58.6867C169.238 60.6172 169.395 61.6278 169.399 61.6546L175.327 60.7305L181.256 59.8064C181.256 59.8064 181.256 59.8053 181.255 59.8026C181.255 59.8001 181.254 59.7967 181.254 59.7922C181.252 59.7833 181.25 59.7706 181.248 59.754C181.243 59.7208 181.235 59.6723 181.225 59.6087C181.205 59.4815 181.176 59.2938 181.138 59.0465C181.061 58.552 180.948 57.8192 180.799 56.8563L174.869 57.7715ZM175.327 60.7305V54.7305H175.307V60.7305V66.7305H175.327V60.7305ZM175.307 60.7305L169.389 61.7208C170.838 70.3786 173.349 86.5465 174.039 98.227L180.029 97.873L186.018 97.5191C185.286 85.1265 182.672 68.3855 181.225 59.7401L175.307 60.7305ZM180.029 97.873L174.039 98.227C174.352 103.527 174.533 108.785 174.635 113.507L180.633 113.378L186.632 113.249C186.528 108.419 186.342 103.006 186.018 97.5191L180.029 97.873ZM180.633 113.378L180.383 119.373L180.407 119.374L180.657 113.379L180.906 107.384L180.883 107.383L180.633 113.378ZM180.657 113.379L174.664 113.667C174.662 113.638 174.787 116.237 174.787 119.704L180.787 119.704L186.787 119.704C186.787 115.976 186.653 113.169 186.65 113.09L180.657 113.379ZM180.787 119.704H174.787C174.787 121.513 174.781 123.104 174.775 124.247C174.772 124.818 174.769 125.277 174.766 125.594C174.765 125.753 174.764 125.876 174.763 125.96C174.763 126.003 174.763 126.035 174.763 126.057C174.763 126.068 174.762 126.077 174.762 126.083C174.762 126.089 174.762 126.091 174.762 126.091L180.762 126.147L186.762 126.204C186.762 126.158 186.787 123.373 186.787 119.704H180.787ZM180.762 126.147L181.136 120.159L181.121 120.158L180.746 126.146L180.372 132.135L180.388 132.136L180.762 126.147ZM180.746 126.146L174.746 126.126C174.736 129.231 174.701 131.144 174.698 131.292L180.697 131.412L186.695 131.532C186.7 131.319 186.735 129.34 186.746 126.167L180.746 126.146ZM180.697 131.412L180.643 137.412C180.418 137.41 180.202 137.395 179.995 137.37C179.891 137.358 179.79 137.343 179.692 137.326C179.642 137.318 179.594 137.309 179.546 137.299C179.522 137.295 179.498 137.29 179.475 137.285C179.463 137.282 179.451 137.28 179.439 137.277C179.433 137.276 179.428 137.275 179.422 137.274C179.419 137.273 179.416 137.272 179.413 137.272C179.412 137.271 179.41 137.271 179.409 137.271C179.408 137.27 179.407 137.27 179.406 137.27C179.405 137.27 179.404 137.27 180.708 131.413C182.012 125.557 182.011 125.556 182.01 125.556C182.01 125.556 182.009 125.556 182.008 125.556C182.007 125.555 182.005 125.555 182.004 125.555C182.001 125.554 181.998 125.553 181.995 125.553C181.989 125.551 181.983 125.55 181.977 125.549C181.966 125.546 181.954 125.544 181.942 125.541C181.918 125.536 181.894 125.531 181.87 125.527C181.822 125.517 181.773 125.508 181.724 125.5C181.624 125.483 181.522 125.467 181.416 125.455C181.205 125.43 180.983 125.414 180.75 125.412L180.697 131.412ZM180.708 131.413L174.708 131.374C174.707 131.537 174.628 143.484 174.456 146.629L180.447 146.958L186.438 147.287C186.538 145.463 186.604 141.443 186.645 138.031C186.688 134.551 186.708 131.484 186.708 131.452L180.708 131.413ZM180.447 146.958L174.454 146.653C174.428 147.164 174.25 147.487 174.199 147.555C174.173 147.59 174.274 147.434 174.593 147.23C174.879 147.047 175.696 146.607 176.931 146.679L176.582 152.669L176.233 158.659C180.08 158.883 182.701 156.256 183.881 154.645C185.327 152.67 186.295 150.091 186.439 147.263L180.447 146.958ZM176.582 152.669L176.93 146.679C176.411 146.649 174.239 146.642 171.527 146.637L171.514 152.637L171.501 158.637C172.939 158.64 174.122 158.643 174.98 158.649C175.41 158.651 175.749 158.654 175.993 158.657C176.303 158.661 176.325 158.664 176.235 158.659L176.582 152.669ZM171.514 152.637L165.515 152.55C165.475 155.288 164.517 157.733 162.945 159.427C161.455 161.031 159.121 162.288 155.536 162.267L155.499 168.267L155.463 174.266C162.223 174.308 167.837 171.794 171.739 167.591C175.56 163.476 177.436 158.075 177.513 152.723L171.514 152.637ZM155.499 168.267L155.536 162.267C148.894 162.226 145.756 156.845 145.691 152.973L139.692 153.074L133.693 153.176C133.837 161.692 140.574 174.176 155.463 174.266L155.499 168.267ZM139.692 153.074L145.691 152.983C145.69 152.897 145.69 152.806 145.69 152.708L139.691 152.651L133.691 152.594C133.689 152.777 133.689 152.968 133.692 153.165L139.692 153.074ZM139.691 152.651L139.682 146.651C136.462 146.656 133.682 146.661 131.706 146.664C130.719 146.665 129.932 146.667 129.393 146.668C129.123 146.668 128.915 146.668 128.774 146.669C128.704 146.669 128.651 146.669 128.615 146.669C128.597 146.669 128.583 146.669 128.574 146.669C128.57 146.669 128.566 146.669 128.564 146.669C128.563 146.669 128.562 146.669 128.561 146.669C128.561 146.669 128.561 146.669 128.561 146.669C128.561 146.669 128.561 146.669 128.561 146.669C128.561 146.669 128.561 146.669 128.571 152.669C128.581 158.669 128.581 158.669 128.581 158.669C128.581 158.669 128.581 158.669 128.581 158.669C128.581 158.669 128.581 158.669 128.582 158.669C128.582 158.669 128.583 158.669 128.584 158.669C128.586 158.669 128.59 158.669 128.594 158.669C128.603 158.669 128.617 158.669 128.635 158.669C128.671 158.669 128.724 158.669 128.794 158.669C128.935 158.668 129.143 158.668 129.413 158.668C129.952 158.667 130.738 158.665 131.726 158.664C133.701 158.661 136.48 158.656 139.7 158.651L139.691 152.651ZM128.571 152.669C134.459 153.822 134.459 153.822 134.459 153.823C134.459 153.823 134.459 153.823 134.458 153.824C134.458 153.824 134.458 153.825 134.458 153.825C134.458 153.827 134.458 153.828 134.457 153.829C134.457 153.831 134.457 153.833 134.456 153.836C134.455 153.84 134.454 153.845 134.453 153.849C134.452 153.858 134.45 153.867 134.448 153.876C134.444 153.894 134.44 153.913 134.436 153.931C134.429 153.967 134.421 154.003 134.412 154.039C134.395 154.112 134.376 154.184 134.356 154.257L128.577 152.642L122.799 151.026C122.774 151.117 122.752 151.203 122.732 151.285C122.723 151.325 122.714 151.365 122.706 151.404C122.701 151.423 122.697 151.442 122.694 151.461C122.692 151.47 122.69 151.479 122.688 151.488C122.687 151.493 122.686 151.498 122.685 151.502C122.685 151.504 122.684 151.507 122.684 151.509C122.684 151.51 122.683 151.511 122.683 151.512C122.683 151.513 122.683 151.514 122.683 151.514C122.683 151.514 122.683 151.515 122.683 151.515C122.683 151.515 122.682 151.516 128.571 152.669ZM128.577 152.642L128.585 146.642L79.4818 146.577L79.474 152.577L79.4661 158.577L128.57 158.642L128.577 152.642ZM79.474 152.577L81.6278 146.977L81.5898 146.962L79.4359 152.562L77.282 158.163L77.3201 158.177L79.474 152.577ZM79.4359 152.562L79.4685 146.563C78.9009 146.56 74.687 146.536 68.8021 146.497L68.762 152.497L68.722 158.497C74.6135 158.536 78.8327 158.559 79.4033 158.562L79.4359 152.562ZM68.762 152.497L62.7655 152.7C62.8623 155.558 61.952 158.164 60.3684 159.974C58.8753 161.68 56.4952 163.023 52.7916 163L52.7552 169L52.7188 175C59.7308 175.042 65.4965 172.336 69.3991 167.876C73.2112 163.52 74.9465 157.842 74.7586 152.294L68.762 152.497ZM52.7552 169L52.7917 163C46.1496 162.96 43.0123 157.579 42.9467 153.706L36.9476 153.808L30.9485 153.909C31.0926 162.426 37.8301 174.909 52.7187 175L52.7552 169ZM36.9476 153.808L42.9467 153.707C42.9408 153.355 42.9514 153.013 42.9772 152.683L36.9954 152.216L31.0137 151.748C30.9576 152.465 30.9363 153.186 30.9484 153.908L36.9476 153.808ZM36.9954 152.216L37.0703 146.216C30.1595 146.13 25.2059 146.035 24.1339 145.952L23.6712 151.935L23.2086 157.917C24.7821 158.038 30.2938 158.133 36.9206 158.215L36.9954 152.216ZM23.6712 151.935L24.1339 145.952C24.265 145.963 24.7341 146.076 25.1507 146.479C25.4682 146.786 25.4258 146.949 25.3009 146.519C25.1773 146.094 25.0616 145.393 25.0179 144.343C24.9752 143.315 25.0073 142.133 25.0894 140.807L19.1009 140.437L13.1124 140.066C12.9343 142.941 12.8443 146.658 13.7781 149.87C14.2686 151.556 15.1495 153.501 16.8077 155.104C18.5649 156.804 20.7921 157.73 23.2085 157.917L23.6712 151.935ZM19.1009 140.437L25.0894 140.808C25.1633 139.618 25.7224 138.352 26.5681 137.162C27.3905 136.004 28.2158 135.296 28.2089 135.302L24.3197 130.733L20.4305 126.165C19.9972 126.533 18.3814 127.965 16.7851 130.212C15.2122 132.427 13.3751 135.831 13.1124 140.065L19.1009 140.437ZM24.3197 130.733L30.3196 130.711L30.3001 125.51L24.3001 125.532L18.3002 125.555L18.3197 130.756L24.3197 130.733ZM24.3001 125.532V119.532H24.2972V125.532V131.532H24.3001V125.532ZM24.2972 125.532L30.297 125.48L30.2657 121.904L24.266 121.956L18.2662 122.008L18.2974 125.585L24.2972 125.532ZM24.266 121.956L24.2619 115.956C24.1402 115.956 24.0258 115.96 23.9196 115.966C23.8135 115.972 23.7148 115.981 23.6246 115.99C23.5344 116 23.4516 116.011 23.3772 116.022C23.3028 116.033 23.2356 116.045 23.1766 116.056C23.1177 116.067 23.0654 116.077 23.0214 116.086C22.9774 116.096 22.9396 116.104 22.91 116.111C22.8805 116.118 22.8566 116.124 22.8412 116.127C22.8334 116.129 22.8269 116.131 22.8226 116.132C22.8184 116.133 22.8152 116.134 22.8145 116.134C22.8144 116.134 22.8143 116.134 22.8142 116.134C22.8141 116.134 22.8141 116.134 22.8141 116.134C22.814 116.134 22.8142 116.134 22.8143 116.134C22.8147 116.134 22.8156 116.134 22.8168 116.133C22.8192 116.133 22.8239 116.132 22.8298 116.13C22.8413 116.127 22.862 116.122 22.888 116.116C22.9142 116.11 22.9492 116.102 22.9907 116.093C23.0322 116.084 23.0826 116.074 23.1401 116.063C23.1977 116.052 23.2646 116.04 23.3392 116.028C23.4139 116.017 23.4982 116.005 23.5908 115.995C23.6835 115.984 23.7861 115.975 23.8974 115.968C24.0088 115.961 24.1301 115.957 24.2601 115.957V121.957V127.957C24.3903 127.957 24.5119 127.953 24.6235 127.946C24.735 127.939 24.8379 127.93 24.9308 127.919C25.0237 127.909 25.1082 127.897 25.1831 127.886C25.258 127.874 25.3251 127.862 25.3829 127.851C25.4407 127.84 25.4914 127.83 25.5331 127.821C25.5748 127.812 25.61 127.803 25.6365 127.797C25.6627 127.791 25.6837 127.786 25.6954 127.783C25.7015 127.782 25.7063 127.78 25.7087 127.78C25.71 127.779 25.711 127.779 25.7114 127.779C25.7115 127.779 25.7116 127.779 25.7117 127.779C25.7117 127.779 25.7117 127.779 25.7117 127.779C25.7118 127.779 25.7118 127.779 25.7118 127.779C25.7118 127.779 25.7117 127.779 25.7115 127.779C25.7109 127.779 25.7078 127.78 25.7037 127.781C25.6995 127.782 25.6932 127.784 25.6855 127.785C25.6704 127.789 25.6466 127.795 25.6175 127.802C25.5881 127.808 25.5506 127.817 25.5068 127.826C25.463 127.835 25.411 127.846 25.3523 127.857C25.2936 127.868 25.2266 127.879 25.1525 127.89C25.0783 127.901 24.9958 127.912 24.9058 127.922C24.8158 127.931 24.7174 127.94 24.6115 127.946C24.5056 127.952 24.3915 127.956 24.27 127.956L24.266 121.956ZM24.2601 121.957C30.2586 121.825 30.2586 121.825 30.2586 121.825C30.2586 121.825 30.2586 121.825 30.2586 121.825C30.2586 121.825 30.2586 121.824 30.2586 121.824C30.2586 121.823 30.2586 121.821 30.2585 121.819C30.2584 121.815 30.2583 121.808 30.2581 121.8C30.2577 121.783 30.2572 121.758 30.2565 121.726C30.2551 121.661 30.253 121.565 30.2503 121.442C30.245 121.197 30.2375 120.845 30.2285 120.42C30.2106 119.569 30.187 118.424 30.1642 117.246C30.1414 116.066 30.1195 114.86 30.105 113.884C30.0978 113.395 30.0925 112.973 30.0898 112.644C30.0884 112.479 30.0878 112.346 30.0878 112.243C30.0878 112.13 30.0886 112.089 30.0884 112.096L24.0902 111.951L18.0919 111.807C18.0747 112.52 18.1227 115.218 18.1664 117.478C18.1894 118.665 18.2132 119.818 18.2312 120.673C18.2402 121.101 18.2478 121.454 18.2531 121.701C18.2558 121.825 18.2579 121.921 18.2593 121.987C18.26 122.02 18.2606 122.046 18.261 122.063C18.2612 122.071 18.2613 122.078 18.2614 122.082C18.2614 122.084 18.2615 122.086 18.2615 122.087C18.2615 122.088 18.2615 122.088 18.2615 122.088C18.2615 122.089 18.2615 122.089 18.2615 122.089C18.2615 122.089 18.2615 122.089 24.2601 121.957ZM24.0902 111.951L30.0851 112.199C30.1308 111.091 30.197 110.507 30.1861 110.608L24.221 109.961L18.256 109.314C18.2418 109.445 18.1534 110.297 18.0953 111.703L24.0902 111.951ZM24.221 109.961L24.2457 115.961C24.2745 115.961 24.3006 115.96 24.3233 115.96C24.3462 115.96 24.3669 115.959 24.3853 115.959C24.4216 115.958 24.4527 115.957 24.4772 115.955C24.5019 115.954 24.5234 115.953 24.5408 115.952C24.5583 115.951 24.5736 115.951 24.5863 115.95C24.599 115.949 24.6102 115.948 24.6196 115.948C24.629 115.947 24.6373 115.946 24.6442 115.946C24.6577 115.945 24.6688 115.944 24.6759 115.944C24.6832 115.943 24.689 115.943 24.6924 115.942C24.6958 115.942 24.6984 115.942 24.6993 115.942C24.6995 115.942 24.6997 115.942 24.6999 115.942C24.7 115.942 24.7001 115.942 24.7001 115.942C24.7002 115.942 24.7 115.942 24.6997 115.942C24.699 115.942 24.6975 115.942 24.6955 115.942C24.687 115.943 24.6718 115.944 24.6527 115.945C24.6336 115.947 24.6122 115.948 24.5887 115.95C24.5413 115.952 24.4902 115.955 24.4357 115.957C24.3815 115.959 24.326 115.96 24.2691 115.96L24.2445 109.96L24.2198 103.96C24.1557 103.96 24.0936 103.961 24.0339 103.964C23.9738 103.966 23.9179 103.968 23.8666 103.971C23.8411 103.973 23.8179 103.974 23.7973 103.976C23.7767 103.977 23.7602 103.979 23.7506 103.979C23.7483 103.98 23.7466 103.98 23.7456 103.98C23.7452 103.98 23.7448 103.98 23.7448 103.98C23.7447 103.98 23.745 103.98 23.7453 103.98C23.7459 103.98 23.7484 103.98 23.7516 103.979C23.7547 103.979 23.7604 103.979 23.7675 103.978C23.7745 103.978 23.7854 103.977 23.7987 103.976C23.8056 103.975 23.8138 103.975 23.8232 103.974C23.8324 103.974 23.8436 103.973 23.8563 103.972C23.8689 103.971 23.8842 103.97 23.9017 103.969C23.919 103.969 23.9405 103.967 23.9651 103.966C23.9895 103.965 24.0206 103.964 24.0569 103.963C24.0752 103.963 24.096 103.962 24.1188 103.962C24.1415 103.961 24.1676 103.961 24.1964 103.961L24.221 109.961ZM24.2445 109.96L30.2429 109.822C30.2508 110.166 30.208 110.183 30.2649 109.985C30.3175 109.802 30.4784 109.351 30.9568 108.736L26.223 105.05L21.4892 101.363C18.4883 105.216 18.2152 108.76 18.2461 110.098L24.2445 109.96ZM26.223 105.05L30.9565 108.737C30.9464 108.75 31.5271 108.16 33.1268 106.889C34.5165 105.785 36.2366 104.504 37.9733 103.236C39.7267 101.957 41.3659 100.786 42.7252 99.801C43.3808 99.326 43.9788 98.8888 44.4419 98.5378C44.6698 98.3651 44.9089 98.1802 45.1235 98.0038C45.1623 97.9719 45.7505 97.5099 46.2445 96.8923L41.5589 93.1445L36.8734 89.3968C37.2953 88.8692 37.7165 88.5586 37.5046 88.7328C37.4684 88.7625 37.373 88.8383 37.1937 88.9742C36.8424 89.2404 36.3355 89.612 35.685 90.0832C34.432 90.991 32.6538 92.2627 30.8989 93.5435C29.1274 94.8364 27.2485 96.2334 25.6624 97.4934C24.2864 98.5866 22.5146 100.047 21.4894 101.363L26.223 105.05ZM41.5589 93.1445L46.2855 96.8403C46.5558 96.4947 46.8619 95.999 46.9204 95.9062C47.0918 95.6347 47.3173 95.2723 47.5842 94.8405C48.1203 93.9733 48.8536 92.7768 49.7185 91.3602C51.4498 88.5246 53.7272 84.7764 56.049 80.9486C60.6933 73.2915 65.5262 65.2978 66.5472 63.6089L61.4124 60.5049L56.2777 57.4009C55.2573 59.089 50.4283 67.0762 45.7888 74.7253C43.4686 78.5506 41.1985 82.2867 39.4766 85.1069C38.6149 86.5182 37.8951 87.6925 37.3766 88.5314C37.1163 88.9527 36.9141 89.2772 36.7732 89.5005C36.5193 89.9026 36.6283 89.7096 36.8323 89.4487L41.5589 93.1445ZM61.4124 60.5049L66.6308 63.4662C66.9057 62.9817 67.6157 61.7493 68.5002 60.3303L63.4085 57.1562L58.3168 53.9822C57.3186 55.5835 56.5216 56.9666 56.1941 57.5436L61.4124 60.5049ZM63.4085 57.1562L63.5966 51.1592C63.543 51.1575 63.4912 51.1566 63.4414 51.1562C63.3913 51.1559 63.345 51.1562 63.3028 51.1569C63.2819 51.1572 63.263 51.1576 63.2465 51.158C63.2301 51.1584 63.2171 51.1588 63.2106 51.159C63.2091 51.159 63.2079 51.159 63.2076 51.1591C63.2069 51.1591 63.208 51.159 63.2088 51.159C63.2098 51.159 63.2124 51.1589 63.2157 51.1588C63.219 51.1587 63.2244 51.1586 63.231 51.1584C63.2376 51.1582 63.2474 51.158 63.2594 51.1577C63.2655 51.1576 63.2727 51.1574 63.2809 51.1573C63.289 51.1571 63.2986 51.157 63.3095 51.1568C63.3203 51.1567 63.3333 51.1565 63.348 51.1564C63.3625 51.1563 63.3803 51.1562 63.4006 51.1563C63.4206 51.1563 63.4457 51.1564 63.4745 51.1568C63.4891 51.157 63.5055 51.1573 63.5233 51.1577C63.541 51.1581 63.5611 51.1586 63.5831 51.1593L63.391 57.1562L63.1988 63.1532C63.2208 63.1539 63.2409 63.1544 63.2587 63.1548C63.2765 63.1552 63.2928 63.1555 63.3075 63.1557C63.3363 63.1561 63.3614 63.1562 63.3815 63.1562C63.4018 63.1563 63.4196 63.1562 63.4342 63.1561C63.449 63.156 63.462 63.1558 63.4728 63.1557C63.494 63.1554 63.5115 63.1551 63.5233 63.1548C63.5353 63.1545 63.5453 63.1543 63.5519 63.1541C63.5587 63.1539 63.5643 63.1538 63.5677 63.1537C63.5711 63.1536 63.5739 63.1535 63.5751 63.1534C63.5761 63.1534 63.5773 63.1534 63.5768 63.1534C63.5767 63.1534 63.5757 63.1534 63.5744 63.1535C63.5687 63.1536 63.5567 63.154 63.5415 63.1544C63.5261 63.1547 63.5086 63.1551 63.4891 63.1554C63.4499 63.156 63.4071 63.1563 63.3613 63.156C63.3157 63.1557 63.2687 63.1548 63.2205 63.1533L63.4085 57.1562ZM63.391 57.1562C69.3211 56.2432 69.3214 56.245 69.3216 56.2468C69.3217 56.2473 69.322 56.2491 69.3221 56.2502C69.3225 56.2525 69.3228 56.2546 69.3231 56.2567C69.3238 56.2609 69.3244 56.2648 69.3249 56.2684C69.326 56.2756 69.3269 56.2816 69.3275 56.2865C69.3289 56.2961 69.3296 56.3012 69.3297 56.3017C69.3298 56.3029 69.3277 56.2866 69.3241 56.2547C69.317 56.1903 69.305 56.0665 69.2952 55.8968C69.2753 55.5484 69.2682 55.0568 69.3174 54.5151C69.4295 53.2815 69.7571 52.5621 70.0232 52.2648L65.5521 48.2637L61.081 44.2625C58.335 47.3311 57.5821 51.058 57.3666 53.4292C57.2521 54.6899 57.2694 55.7904 57.3149 56.5834C57.3379 56.9844 57.3687 57.3187 57.3964 57.5697C57.4103 57.6955 57.4234 57.8012 57.4346 57.885C57.4402 57.9269 57.4452 57.9633 57.4497 57.9941C57.4519 58.0095 57.4539 58.0235 57.4558 58.036C57.4567 58.0423 57.4576 58.0482 57.4585 58.0537C57.4589 58.0565 57.4593 58.0592 57.4597 58.0618C57.4599 58.0631 57.4602 58.065 57.4603 58.0656C57.4606 58.0675 57.4608 58.0693 63.391 57.1562ZM65.5521 48.2637L70.0316 52.2555C71.1531 50.9969 72.054 50.6557 72.4517 50.5465C72.9156 50.4191 73.094 50.5062 72.7225 50.4465L73.6742 44.5225L74.6258 38.5984C72.8361 38.3109 66.6633 37.9982 61.0726 44.2719L65.5521 48.2637ZM73.6742 44.5225L77.8559 48.8252C78.0335 48.6525 78.1574 48.5324 78.2656 48.4308L74.1566 44.0586L70.0476 39.6864C69.8535 39.8688 69.6568 40.06 69.4925 40.2197L73.6742 44.5225ZM74.1566 44.0586L78.2572 48.4387C77.7975 48.869 77.3758 49.0423 77.21 49.1007C77.0404 49.1605 76.9627 49.1621 77.0116 49.1569C77.0484 49.1529 77.1017 49.1514 77.1477 49.1526C77.1884 49.1537 77.1717 49.1557 77.0567 49.1427L77.7308 43.1807L78.4049 37.2187C78.1533 37.1902 77.078 37.081 75.7325 37.2253C74.5694 37.3499 72.0963 37.7684 70.056 39.6785L74.1566 44.0586ZM77.7308 43.1807L83.7292 43.3183C83.7392 42.8826 83.8276 39.1533 83.9591 36.4389L77.9661 36.1484L71.9732 35.858C71.8333 38.7448 71.7422 42.6165 71.7324 43.043L77.7308 43.1807ZM77.9661 36.1484L83.9591 36.4394C83.9517 36.5912 83.9075 36.7434 83.8456 36.8637C83.7895 36.9727 83.7384 37.0197 83.7316 37.0257C83.7269 37.0299 83.7271 37.0291 83.732 37.026C83.737 37.0228 83.7405 37.0214 83.7394 37.0218C83.7386 37.0222 83.7249 37.028 83.6949 37.0352C83.6654 37.0423 83.6084 37.0535 83.5229 37.0582L83.1917 31.0674L82.8605 25.0765C78.1094 25.3392 72.2978 29.1731 71.9732 35.8574L77.9661 36.1484Z" fill="white" mask="url(#path-1-outside-1_1062_21799)"/>
<path d="M79.4741 152.577L128.612 152.642L180.697 131.426C180.697 131.426 181.038 114.937 180.029 97.8727C179.021 80.808 174.293 54.8637 174.293 54.8637C174.293 54.8637 174.581 50.1228 174.005 47.5559C173.455 45.12 171.988 43.1423 167.915 42.9066C164.182 42.6839 80.0111 42.9066 77.7193 43.1947C75.4274 43.4828 61.6105 60.1809 61.6105 60.1809C61.6105 60.1809 42.123 92.4245 41.5597 93.1448C40.9836 93.8652 28.2537 102.443 26.2237 105.05C24.1021 107.774 24.2462 110 24.2462 110L24.3247 132.041L79.4741 152.577Z" fill="#E4E4E4"/>
<mask id="path-4-outside-2_1062_21799" maskUnits="userSpaceOnUse" x="107.691" y="65.0017" width="46" height="41" fill="black">
<rect fill="white" x="107.691" y="65.0017" width="46" height="41"/>
<path d="M133.439 69.0017C142.585 69.0017 150 76.4156 150 85.5613C150 94.7071 142.585 102.122 133.439 102.122C125.815 102.122 119.394 96.9676 117.47 89.9539C115.278 90.1219 112.185 89.0161 111.749 87.4128C111.257 85.6018 114.014 82.634 116.154 82.0574C116.538 81.9539 116.919 81.8921 117.291 81.8757C118.966 74.5041 125.561 69.0019 133.439 69.0017Z"/>
</mask>
<path d="M133.439 69.0017C142.585 69.0017 150 76.4156 150 85.5613C150 94.7071 142.585 102.122 133.439 102.122C125.815 102.122 119.394 96.9676 117.47 89.9539C115.278 90.1219 112.185 89.0161 111.749 87.4128C111.257 85.6018 114.014 82.634 116.154 82.0574C116.538 81.9539 116.919 81.8921 117.291 81.8757C118.966 74.5041 125.561 69.0019 133.439 69.0017Z" fill="#DFB820"/>
<path d="M133.439 69.0017L133.439 65.7783L133.439 65.7783L133.439 69.0017ZM150 85.5613L153.223 85.5613L153.223 85.5612L150 85.5613ZM133.439 102.122L133.439 105.345H133.439V102.122ZM117.47 89.9539L120.578 89.1009L119.874 86.5366L117.223 86.7399L117.47 89.9539ZM111.749 87.4128L108.638 88.2572L108.638 88.2581L111.749 87.4128ZM116.154 82.0574L115.316 78.945L115.316 78.945L116.154 82.0574ZM117.291 81.8757L117.433 85.096L119.889 84.9877L120.434 82.5901L117.291 81.8757ZM133.439 69.0017V72.2251C140.805 72.2251 146.777 78.196 146.777 85.5613L150 85.5613L153.223 85.5612C153.223 74.6352 144.365 65.7783 133.439 65.7783V69.0017ZM150 85.5613H146.777C146.777 92.9268 140.805 98.8985 133.439 98.8985V102.122V105.345C144.365 105.345 153.223 96.4873 153.223 85.5613H150ZM133.439 102.122L133.439 98.8985C127.304 98.8983 122.129 94.7512 120.578 89.1009L117.47 89.9539L114.361 90.8069C116.66 99.184 124.325 105.345 133.439 105.345L133.439 102.122ZM117.47 89.9539L117.223 86.7399C116.692 86.7806 115.877 86.656 115.183 86.3691C114.851 86.2318 114.667 86.1057 114.602 86.0501C114.52 85.9813 114.741 86.1315 114.86 86.5676L111.749 87.4128L108.638 88.2581C108.975 89.4958 109.746 90.3855 110.435 90.9696C111.141 91.567 111.949 92.0075 112.718 92.3261C114.229 92.9509 116.055 93.2951 117.716 93.1678L117.47 89.9539ZM111.749 87.4128L114.86 86.5685C114.992 87.0552 114.837 87.2979 114.91 87.1187C114.969 86.9752 115.122 86.7073 115.408 86.3747C115.685 86.0524 116.018 85.7515 116.347 85.5202C116.693 85.2772 116.925 85.1881 116.993 85.1697L116.154 82.0574L115.316 78.945C113.42 79.456 111.677 80.8266 110.522 82.1697C109.912 82.8776 109.334 83.7272 108.948 84.6675C108.576 85.5722 108.26 86.865 108.638 88.2572L111.749 87.4128ZM116.154 82.0574L116.993 85.1697C117.172 85.1214 117.32 85.101 117.433 85.096L117.291 81.8757L117.149 78.6555C116.519 78.6833 115.904 78.7865 115.316 78.945L116.154 82.0574ZM117.291 81.8757L120.434 82.5901C121.783 76.654 127.098 72.2252 133.439 72.2251L133.439 69.0017L133.439 65.7783C124.023 65.7786 116.15 72.3541 114.148 81.1613L117.291 81.8757Z" fill="white" mask="url(#path-4-outside-2_1062_21799)"/>
<path d="M133.437 102.12C142.583 102.12 149.997 94.7057 149.997 85.5599C149.997 76.4141 142.583 69 133.437 69C124.291 69 116.877 76.4141 116.877 85.5599C116.877 94.7057 124.291 102.12 133.437 102.12Z" fill="#4B98E6"/>
<circle cx="127.371" cy="81.2269" r="4.33408" fill="white"/>
<circle cx="127.373" cy="81.2258" r="2.60045" fill="#161616"/>
<circle cx="127.373" cy="81.2258" r="2.60045" fill="#161616"/>
<path d="M118.268 89.8239C116.123 90.4013 112.241 89.2235 111.749 87.4125C111.257 85.6015 114.014 82.6341 116.154 82.0575C118.294 81.4808 120.357 82.1949 121.089 84.8933C121.831 87.6233 120.408 89.2473 118.263 89.8247L118.268 89.8239Z" fill="#DFB820"/>
<path d="M180.709 131.413C180.709 131.413 152.263 131.151 146.383 132.382C140.502 133.613 136.547 137.123 133.22 142.479C129.881 147.836 128.571 152.669 128.571 152.669C128.571 152.669 175.012 152.577 176.583 152.669C178.155 152.76 180.276 150.298 180.447 146.958C180.63 143.619 180.709 131.413 180.709 131.413Z" fill="#516C73"/>
<path d="M79.5019 152.564C79.5019 152.564 75.4683 142.911 71.2512 138.603C67.034 134.294 60.8918 131.4 53.5185 131.138C46.1451 130.876 24.3525 130.706 24.3525 130.706C24.3525 130.706 19.4544 134.739 19.1009 140.436C18.7472 146.146 19.1009 151.581 23.6715 151.935C28.2422 152.289 79.5019 152.564 79.5019 152.564Z" fill="#516C73"/>
<path d="M36.9477 153.808C37.0526 160.003 41.9899 168.934 52.7553 169C63.5206 169.065 69.0998 160.828 68.7593 152.38C68.4187 143.789 61.7394 137.738 52.1398 138C43.1425 138.262 36.8036 145.23 36.9477 153.808Z" fill="#4E433D"/>
<path d="M44.6396 153.441C44.6921 156.715 47.2851 161.417 52.9429 161.456C58.6006 161.495 61.3508 157.396 61.1675 152.943C60.9841 148.412 57.3695 145.046 52.6154 145.112C47.9007 145.177 44.5742 148.923 44.6396 153.441Z" fill="#C8C8C8"/>
<path d="M139.692 153.075C139.797 159.269 144.735 168.201 155.5 168.267C166.265 168.332 171.844 160.094 171.504 151.647C171.163 143.056 164.484 137.005 154.884 137.267C145.9 137.516 139.562 144.483 139.692 153.075Z" fill="#4E433D"/>
<path d="M147.395 152.708C147.447 155.982 150.04 160.684 155.698 160.723C161.356 160.762 164.106 156.663 163.923 152.21C163.739 147.679 160.125 144.313 155.371 144.379C150.656 144.444 147.316 148.176 147.395 152.708Z" fill="#C8C8C8"/>
<path d="M24.2981 125.532L180.762 126.148C180.762 126.148 180.788 123.371 180.788 119.704C180.788 116.09 180.657 113.379 180.657 113.379L24.1934 113.339L24.2981 125.532Z" fill="#DB3845"/>
<path d="M24.2213 109.961C24.2213 109.961 40.1598 109.895 41.0241 109.895C41.8884 109.895 42.5695 110.563 42.5695 111.703C42.5695 112.842 43.0409 117.059 39.6229 120.202C38.156 121.551 34.9866 121.839 31.9876 121.878C27.4955 121.931 24.6272 121.957 24.2605 121.957C24.2605 121.957 24.0641 113.038 24.0903 111.951C24.1428 110.681 24.2213 109.961 24.2213 109.961Z" fill="#FFE365"/>
<path d="M61.2705 60.757L175.328 60.7308C175.328 60.7308 175.171 59.7224 174.87 57.771C174.608 56.0815 174.307 54.8767 174.307 54.8767L77.615 54.9946L77.7328 43.1816C77.7328 43.1816 75.3886 42.9064 74.1575 44.059C72.4156 45.696 69.2855 48.9833 66.2603 52.9515C63.8898 56.0553 61.2705 60.757 61.2705 60.757Z" fill="#C9C9C9"/>
<path d="M65.5522 48.2632C62.54 51.629 63.3913 57.1558 63.3913 57.1558C63.3913 57.1558 73.1875 57.4701 73.528 56.92C73.8685 56.3831 73.7244 44.5307 73.7244 44.5307C73.7244 44.5307 69.6252 43.6926 65.5522 48.2632Z" fill="#DB3845"/>
<path d="M77.7305 43.2209C78.2674 43.1556 108.874 42.9591 108.874 42.9591C108.874 42.9591 108.874 37.7073 108.822 35.8084C108.756 33.2284 106.713 31.2639 102.994 31.1329C100.387 31.0412 85.5622 30.9234 83.1917 31.0674C80.8213 31.1984 78.1103 33.1759 77.9662 36.1489C77.8222 39.1219 77.7305 43.2209 77.7305 43.2209Z" fill="#DB3845"/>
<path d="M89.2572 36.9218L90.986 40.6935L86.8475 40.628C86.8475 40.628 83.665 37.5766 83.665 36.8956C83.665 36.2146 87.188 33.5691 87.188 33.5691L91.5491 33.5166L89.2572 36.9218Z" fill="#F27983"/>
<path d="M96.6595 37.0003L95.1272 40.7982L98.5716 40.7721C98.5716 40.7721 102.108 37.7337 102.147 37.1444C102.199 36.2931 98.5978 33.5298 98.5978 33.5298L94.7344 33.5166L96.6595 37.0003Z" fill="#F27983"/>
<path d="M66.5628 66.4674C64.7424 66.6376 63.0006 67.2009 61.6254 69.2963C60.2503 71.4048 48.3718 92.8831 47.18 94.8999C46.5383 95.9869 45.7786 97.6764 46.0668 98.9991C46.3156 100.112 47.4681 100.951 48.7254 101.029C51.4626 101.213 86.3909 100.937 88.3162 100.937C90.2413 100.937 91.8783 99.2873 91.9701 96.3668C92.0618 93.4463 92.2058 72.2167 91.9701 69.9381C91.6951 67.2926 89.9532 66.4675 87.7661 66.3758C85.7493 66.2841 68.475 66.284 66.5628 66.4674Z" fill="#557077"/>
<path d="M68.6697 72.0728C66.8754 72.0991 65.4872 72.6884 64.1121 74.9802C63.3132 76.3161 53.7789 93.6297 53.5039 94.4548C53.2289 95.2799 53.8706 96.0132 55.2458 96.0132C56.6209 96.0132 83.0365 95.83 84.6867 95.83C86.3368 95.83 87.1619 94.6381 87.2405 92.176C87.3322 89.7007 87.2405 75.9887 87.2405 74.535C87.2405 73.0813 86.5071 72.0598 84.595 72.0598C82.683 72.0466 70.3198 72.0336 68.6697 72.0728Z" fill="#AFE3FB"/>
</svg>
