<svg width="100" height="100" viewBox="0 0 100 100" fill="none" xmlns="http://www.w3.org/2000/svg">
<path d="M83.5768 31.3692C96.6417 45.6518 68.5822 64.1019 53.1741 75.1854C51.6229 76.6356 43.9912 73.3208 23.3919 60.8907C2.79249 48.4606 16.2565 27.6402 27.7351 27.6402C39.2137 27.6402 46.0387 38.8273 50.6922 37.5843C55.3457 36.3412 70.5118 17.0867 83.5768 31.3692Z" fill="#ED8787"/>
<path d="M26.9907 45.236C30.7692 45.236 33.8323 42.2159 33.8323 38.4905C33.8323 34.7651 30.7692 31.7451 26.9907 31.7451C23.2122 31.7451 20.1492 34.7651 20.1492 38.4905C20.1492 42.2159 23.2122 45.236 26.9907 45.236Z" fill="white"/>
<path d="M73.2595 45.236C77.038 45.236 80.1011 42.2159 80.1011 38.4905C80.1011 34.7651 77.038 31.7451 73.2595 31.7451C69.481 31.7451 66.418 34.7651 66.418 38.4905C66.418 42.2159 69.481 45.236 73.2595 45.236Z" fill="white"/>
<path d="M26.7196 42.1C28.7804 42.1 30.451 40.454 30.451 38.4235C30.451 36.3931 28.7804 34.7471 26.7196 34.7471C24.6589 34.7471 22.9883 36.3931 22.9883 38.4235C22.9883 40.454 24.6589 42.1 26.7196 42.1Z" fill="black"/>
<path d="M72.9882 42.1C75.0489 42.1 76.7195 40.454 76.7195 38.4235C76.7195 36.3931 75.0489 34.7471 72.9882 34.7471C70.9274 34.7471 69.2568 36.3931 69.2568 38.4235C69.2568 40.454 70.9274 42.1 72.9882 42.1Z" fill="black"/>
<path d="M59.6712 52.5378C59.365 56.7395 53.9196 62.914 49.5849 62.6172C45.2501 62.3204 40.7533 55.4708 41.0595 51.2634C41.3657 47.0617 44.4516 43.8435 50.9237 44.2858C57.3958 44.7281 59.9834 48.3303 59.6772 52.5378H59.6712Z" fill="#F5DB74"/>
</svg>
