<svg width="200" height="200" viewBox="0 0 200 200" fill="none" xmlns="http://www.w3.org/2000/svg">
<mask id="path-1-outside-1_1347_14539" maskUnits="userSpaceOnUse" x="24" y="11.7695" width="151" height="179" fill="black">
<rect fill="white" x="24" y="11.7695" width="151" height="179"/>
<path d="M121.064 18.916C132.204 17.5471 142.409 25.8547 144.091 38.5225L152.639 34.7979C157.559 32.6518 162.134 35.0259 162.062 39.335C162.041 40.5765 161.901 41.9182 161.628 43.3115C164.257 44.6429 165.736 47.2454 164.853 49.9736C163.702 53.53 161.729 57.5546 158.36 60.5576C158.584 61.4735 158.76 62.4088 158.877 63.3633L158.867 63.3604C159.535 68.7919 158.304 73.8547 155.644 78.21C151.606 84.8262 144.274 89.8181 135.286 92.0469V99.3369C135.286 100.409 134.405 101.29 133.333 101.29H128.642C128.438 103.828 126.317 105.823 123.727 105.823H121.396C121.395 105.992 121.38 106.163 121.346 106.334L119.879 113.666L130.649 132.529C133.837 131.214 137.329 130.488 140.991 130.488C155.975 130.489 168.122 142.636 168.122 157.619C168.122 172.603 155.975 184.75 140.991 184.75C128.42 184.75 117.847 176.2 114.768 164.599L110.037 164.932C104.19 165.716 99.0615 161.114 99.0615 155.152C99.0616 153.849 99.3084 152.611 99.7559 151.479L72.6377 129.786L70.708 134.126C78.811 138.819 84.2627 147.582 84.2627 157.619C84.2627 172.603 72.1158 184.75 57.1318 184.75C42.1478 184.75 30 172.603 30 157.619C30 142.635 42.1478 130.488 57.1318 130.488C60.0435 130.488 62.8475 130.949 65.4766 131.798L74.25 112.061C74.4411 111.63 74.7255 111.271 75.0684 110.995L77.6719 105.823H76.8633C70.0524 105.823 64.5303 100.302 64.5303 93.4912C64.5304 86.6804 70.0525 81.1592 76.8633 81.1592H91.6621C93.0239 81.1594 94.1279 82.2639 94.1279 83.626C94.1277 84.9878 93.0238 86.0916 91.6621 86.0918H76.8633C72.7769 86.0918 69.464 89.4049 69.4639 93.4912C69.4639 97.5776 72.7769 100.891 76.8633 100.891H86.7285C88.0905 100.891 89.1953 101.995 89.1953 103.357C89.1952 104.719 88.0904 105.823 86.7285 105.823H83.499L79.7256 113.322C79.7134 113.679 79.6362 114.039 79.4824 114.386L75.043 124.376L103.317 146.996C104.616 146.097 106.131 145.512 107.753 145.341L113.51 112.726C113.679 111.767 114.318 110.977 115.183 110.6L116.139 105.823H113.861C111.137 105.823 108.928 103.615 108.928 100.891C108.928 100.573 108.958 100.263 109.016 99.9619L104.088 98.3262C102.737 97.8774 101.999 96.4061 102.447 95.0547C102.672 94.379 103.151 93.86 103.747 93.5576C104.341 93.2596 105.043 93.1897 105.719 93.4141L109.886 95.8271L111.513 90.9258C107.79 89.4869 104.505 87.43 101.862 84.8281C101.862 84.8281 101.863 84.8277 101.862 84.8232C98.2262 81.2418 95.8062 76.6279 95.1387 71.1963C94.091 62.6708 97.6438 54.4996 104.072 48.5869C104.072 48.5869 103.8 46.2862 103.608 44.6904C102.582 44.5893 101.486 44.2856 100.548 43.8389C100.541 43.8358 100.534 43.8332 100.527 43.8301L100.528 43.8291C99.3392 43.2591 98.407 42.4606 98.2002 41.5547C97.7228 39.4658 100.973 36.1974 103.424 35.6387C103.551 35.6095 103.678 35.5837 103.804 35.5625C105.644 26.6459 112.363 19.9854 121.064 18.916ZM57.1318 140.354C47.5966 140.354 39.8662 148.084 39.8662 157.619C39.8662 167.154 47.5965 174.885 57.1318 174.885C66.6669 174.885 74.3965 167.154 74.3965 157.619C74.3965 151.608 71.3244 146.316 66.665 143.224L59.751 158.782C59.1087 160.227 57.4167 160.878 55.9717 160.236C54.5266 159.594 53.8753 157.901 54.5176 156.456L61.4336 140.894C60.0585 140.541 58.617 140.354 57.1318 140.354ZM140.991 140.354C139.111 140.354 137.3 140.655 135.605 141.211L141.612 151.731L143.929 152.198C146.441 152.512 148.389 154.76 148.39 157.375C148.39 159.989 146.493 162.186 143.929 162.552L124.898 163.888C127.407 170.324 133.667 174.885 140.991 174.885C150.526 174.885 158.256 167.154 158.256 157.619C158.256 148.084 150.526 140.354 140.991 140.354ZM130.535 143.879C128.826 145.182 127.367 146.796 126.243 148.637L134.162 150.231L130.535 143.879ZM113.441 146.06L116.188 146.612C118.231 142.014 121.515 138.089 125.616 135.264L117.772 121.524L113.441 146.06ZM114.098 95.958H123.727C124.371 95.958 124.987 96.0826 125.552 96.3076C125.854 96.183 126.185 96.1143 126.532 96.1143L131.247 97.0908V92.8438C131.228 92.8466 131.209 92.8507 131.189 92.8535C130.851 92.9043 130.507 92.9509 130.163 92.9932C129.819 93.0355 129.474 93.0783 129.133 93.1064C124.286 93.5876 119.614 93.2363 115.361 92.1523L114.098 95.958Z"/>
</mask>
<path d="M121.064 18.916C132.204 17.5471 142.409 25.8547 144.091 38.5225L152.639 34.7979C157.559 32.6518 162.134 35.0259 162.062 39.335C162.041 40.5765 161.901 41.9182 161.628 43.3115C164.257 44.6429 165.736 47.2454 164.853 49.9736C163.702 53.53 161.729 57.5546 158.36 60.5576C158.584 61.4735 158.76 62.4088 158.877 63.3633L158.867 63.3604C159.535 68.7919 158.304 73.8547 155.644 78.21C151.606 84.8262 144.274 89.8181 135.286 92.0469V99.3369C135.286 100.409 134.405 101.29 133.333 101.29H128.642C128.438 103.828 126.317 105.823 123.727 105.823H121.396C121.395 105.992 121.38 106.163 121.346 106.334L119.879 113.666L130.649 132.529C133.837 131.214 137.329 130.488 140.991 130.488C155.975 130.489 168.122 142.636 168.122 157.619C168.122 172.603 155.975 184.75 140.991 184.75C128.42 184.75 117.847 176.2 114.768 164.599L110.037 164.932C104.19 165.716 99.0615 161.114 99.0615 155.152C99.0616 153.849 99.3084 152.611 99.7559 151.479L72.6377 129.786L70.708 134.126C78.811 138.819 84.2627 147.582 84.2627 157.619C84.2627 172.603 72.1158 184.75 57.1318 184.75C42.1478 184.75 30 172.603 30 157.619C30 142.635 42.1478 130.488 57.1318 130.488C60.0435 130.488 62.8475 130.949 65.4766 131.798L74.25 112.061C74.4411 111.63 74.7255 111.271 75.0684 110.995L77.6719 105.823H76.8633C70.0524 105.823 64.5303 100.302 64.5303 93.4912C64.5304 86.6804 70.0525 81.1592 76.8633 81.1592H91.6621C93.0239 81.1594 94.1279 82.2639 94.1279 83.626C94.1277 84.9878 93.0238 86.0916 91.6621 86.0918H76.8633C72.7769 86.0918 69.464 89.4049 69.4639 93.4912C69.4639 97.5776 72.7769 100.891 76.8633 100.891H86.7285C88.0905 100.891 89.1953 101.995 89.1953 103.357C89.1952 104.719 88.0904 105.823 86.7285 105.823H83.499L79.7256 113.322C79.7134 113.679 79.6362 114.039 79.4824 114.386L75.043 124.376L103.317 146.996C104.616 146.097 106.131 145.512 107.753 145.341L113.51 112.726C113.679 111.767 114.318 110.977 115.183 110.6L116.139 105.823H113.861C111.137 105.823 108.928 103.615 108.928 100.891C108.928 100.573 108.958 100.263 109.016 99.9619L104.088 98.3262C102.737 97.8774 101.999 96.4061 102.447 95.0547C102.672 94.379 103.151 93.86 103.747 93.5576C104.341 93.2596 105.043 93.1897 105.719 93.4141L109.886 95.8271L111.513 90.9258C107.79 89.4869 104.505 87.43 101.862 84.8281C101.862 84.8281 101.863 84.8277 101.862 84.8232C98.2262 81.2418 95.8062 76.6279 95.1387 71.1963C94.091 62.6708 97.6438 54.4996 104.072 48.5869C104.072 48.5869 103.8 46.2862 103.608 44.6904C102.582 44.5893 101.486 44.2856 100.548 43.8389C100.541 43.8358 100.534 43.8332 100.527 43.8301L100.528 43.8291C99.3392 43.2591 98.407 42.4606 98.2002 41.5547C97.7228 39.4658 100.973 36.1974 103.424 35.6387C103.551 35.6095 103.678 35.5837 103.804 35.5625C105.644 26.6459 112.363 19.9854 121.064 18.916ZM57.1318 140.354C47.5966 140.354 39.8662 148.084 39.8662 157.619C39.8662 167.154 47.5965 174.885 57.1318 174.885C66.6669 174.885 74.3965 167.154 74.3965 157.619C74.3965 151.608 71.3244 146.316 66.665 143.224L59.751 158.782C59.1087 160.227 57.4167 160.878 55.9717 160.236C54.5266 159.594 53.8753 157.901 54.5176 156.456L61.4336 140.894C60.0585 140.541 58.617 140.354 57.1318 140.354ZM140.991 140.354C139.111 140.354 137.3 140.655 135.605 141.211L141.612 151.731L143.929 152.198C146.441 152.512 148.389 154.76 148.39 157.375C148.39 159.989 146.493 162.186 143.929 162.552L124.898 163.888C127.407 170.324 133.667 174.885 140.991 174.885C150.526 174.885 158.256 167.154 158.256 157.619C158.256 148.084 150.526 140.354 140.991 140.354ZM130.535 143.879C128.826 145.182 127.367 146.796 126.243 148.637L134.162 150.231L130.535 143.879ZM113.441 146.06L116.188 146.612C118.231 142.014 121.515 138.089 125.616 135.264L117.772 121.524L113.441 146.06ZM114.098 95.958H123.727C124.371 95.958 124.987 96.0826 125.552 96.3076C125.854 96.183 126.185 96.1143 126.532 96.1143L131.247 97.0908V92.8438C131.228 92.8466 131.209 92.8507 131.189 92.8535C130.851 92.9043 130.507 92.9509 130.163 92.9932C129.819 93.0355 129.474 93.0783 129.133 93.1064C124.286 93.5876 119.614 93.2363 115.361 92.1523L114.098 95.958Z" fill="#040000"/>
<path d="M121.064 18.916L120.333 12.9608L120.333 12.9608L121.064 18.916ZM144.091 38.5225L138.143 39.3123C138.391 41.1793 139.501 42.8215 141.141 43.7474C142.781 44.6733 144.761 44.7753 146.488 44.023L144.091 38.5225ZM152.639 34.7979L155.035 40.2984L155.037 40.2975L152.639 34.7979ZM162.062 39.335L156.062 39.2339L156.062 39.2378L162.062 39.335ZM161.628 43.3115L155.74 42.1579C155.224 44.7933 156.521 47.4509 158.917 48.6643L161.628 43.3115ZM164.853 49.9736L159.145 48.1244L159.144 48.1262L164.853 49.9736ZM158.36 60.5576L154.368 56.0789C152.711 57.5558 152.005 59.8267 152.532 61.9826L158.36 60.5576ZM158.877 63.3633L157.153 69.1102C159.094 69.6925 161.197 69.2558 162.746 67.9492C164.295 66.6426 165.079 64.6425 164.832 62.6314L158.877 63.3633ZM158.867 63.3604L160.591 57.6134C158.65 57.0312 156.547 57.4678 154.998 58.7744C153.449 60.081 152.665 62.081 152.912 64.0921L158.867 63.3604ZM155.644 78.21L150.523 75.0819L150.522 75.0846L155.644 78.21ZM135.286 92.0469L133.842 86.2233C131.166 86.887 129.286 89.2894 129.286 92.0469H135.286ZM135.286 99.3369L141.286 99.3375V99.3369H135.286ZM133.333 101.29V107.29H133.333L133.333 101.29ZM128.642 101.29V95.29C125.514 95.29 122.911 97.6929 122.661 100.811L128.642 101.29ZM121.396 105.823V99.8232C118.084 99.8232 115.398 102.507 115.396 105.819L121.396 105.823ZM121.346 106.334L127.229 107.511L127.23 107.509L121.346 106.334ZM119.879 113.666L113.995 112.489C113.711 113.909 113.95 115.384 114.668 116.641L119.879 113.666ZM130.649 132.529L125.439 135.504C126.936 138.126 130.147 139.227 132.938 138.076L130.649 132.529ZM140.991 130.488L140.991 124.488H140.991V130.488ZM168.122 157.619H174.122H168.122ZM140.991 184.75V190.75H140.991L140.991 184.75ZM114.768 164.599L120.567 163.059C119.828 160.277 117.218 158.411 114.346 158.613L114.768 164.599ZM110.037 164.932L109.616 158.946C109.49 158.955 109.364 158.968 109.239 158.985L110.037 164.932ZM99.0615 155.152L93.0615 155.152V155.152H99.0615ZM99.7559 151.479L105.335 153.687C106.304 151.236 105.562 148.44 103.504 146.794L99.7559 151.479ZM72.6377 129.786L76.3857 125.101C74.9336 123.939 73.025 123.517 71.2182 123.956C69.4114 124.396 67.9108 125.649 67.1552 127.348L72.6377 129.786ZM70.708 134.126L65.2255 131.688C63.9796 134.49 65.0472 137.781 67.701 139.318L70.708 134.126ZM84.2627 157.619H90.2627H84.2627ZM57.1318 184.75V190.75H57.1319L57.1318 184.75ZM30 157.619H24H30ZM57.1318 130.488L57.1319 124.488H57.1318V130.488ZM65.4766 131.798L63.6326 137.507C66.5523 138.45 69.713 137.039 70.9593 134.235L65.4766 131.798ZM74.25 112.061L79.7327 114.498L79.733 114.497L74.25 112.061ZM75.0684 110.995L78.8325 115.668C79.4989 115.131 80.0428 114.457 80.4276 113.693L75.0684 110.995ZM77.6719 105.823L83.0311 108.521C83.9674 106.661 83.8724 104.449 82.7801 102.676C81.6877 100.903 79.7542 99.8232 77.6719 99.8232V105.823ZM64.5303 93.4912L58.5303 93.4911V93.4912H64.5303ZM91.6621 81.1592L91.6631 75.1592H91.6621V81.1592ZM94.1279 83.626L100.128 83.6269V83.626H94.1279ZM91.6621 86.0918V92.0918H91.6631L91.6621 86.0918ZM69.4639 93.4912L63.4639 93.4911V93.4912H69.4639ZM89.1953 103.357L95.1953 103.358V103.357H89.1953ZM83.499 105.823V99.8232C81.2319 99.8232 79.1584 101.101 78.1393 103.126L83.499 105.823ZM79.7256 113.322L74.3659 110.625C73.976 111.4 73.7587 112.25 73.7291 113.117L79.7256 113.322ZM79.4824 114.386L84.9654 116.822L84.9663 116.82L79.4824 114.386ZM75.043 124.376L69.56 121.939C68.4525 124.432 69.1651 127.357 71.2947 129.061L75.043 124.376ZM103.317 146.996L99.5692 151.681C101.64 153.338 104.552 153.439 106.732 151.929L103.317 146.996ZM107.753 145.341L108.383 151.308C111.043 151.027 113.197 149.018 113.662 146.384L107.753 145.341ZM113.51 112.726L107.601 111.682L107.601 111.683L113.51 112.726ZM115.183 110.6L117.584 116.098C119.381 115.313 120.681 113.7 121.066 111.777L115.183 110.6ZM116.139 105.823L122.022 107.001C122.375 105.238 121.919 103.41 120.779 102.02C119.639 100.629 117.936 99.8232 116.139 99.8232V105.823ZM108.928 100.891L102.928 100.89V100.891H108.928ZM109.016 99.9619L114.91 101.085C115.473 98.1301 113.761 95.2151 110.906 94.2674L109.016 99.9619ZM104.088 98.3262L102.197 104.02L102.198 104.021L104.088 98.3262ZM102.447 95.0547L96.753 93.1638L96.7528 93.1644L102.447 95.0547ZM103.747 93.5576L101.058 88.1941C101.049 88.1985 101.04 88.2029 101.031 88.2074L103.747 93.5576ZM105.719 93.4141L108.726 88.2218C108.372 88.0169 107.998 87.8487 107.61 87.7198L105.719 93.4141ZM109.886 95.8271L106.879 101.019C108.441 101.924 110.327 102.077 112.015 101.437C113.702 100.796 115.012 99.4304 115.58 97.7174L109.886 95.8271ZM111.513 90.9258L117.207 92.816C118.216 89.778 116.662 86.4834 113.676 85.3293L111.513 90.9258ZM101.862 84.8281L106.072 80.553C104.349 78.8561 101.776 78.3597 99.5449 79.2937C97.3142 80.2278 95.8623 82.4097 95.8623 84.8281H101.862ZM101.862 84.8232L107.818 84.0914C107.652 82.7474 107.037 81.4988 106.073 80.5486L101.862 84.8232ZM95.1387 71.1963L89.1835 71.9281L89.1835 71.9281L95.1387 71.1963ZM104.072 48.5869L108.134 53.003C109.551 51.6993 110.257 49.7944 110.031 47.8819L104.072 48.5869ZM103.608 44.6904L109.566 43.9749C109.23 41.1809 106.998 38.9955 104.197 38.7194L103.608 44.6904ZM100.548 43.8389L103.127 38.4214C103.093 38.4054 103.059 38.3897 103.026 38.3743L100.548 43.8389ZM100.527 43.8301L96.2847 39.5874C94.8941 40.9781 94.2732 42.962 94.623 44.8973C94.9728 46.8326 96.2488 48.4736 98.0383 49.2894L100.527 43.8301ZM100.528 43.8291L104.771 48.0717C106.147 46.6955 106.77 44.7372 106.443 42.8187C106.115 40.9001 104.877 39.2598 103.122 38.4185L100.528 43.8291ZM98.2002 41.5547L104.05 40.2191L104.049 40.2178L98.2002 41.5547ZM103.424 35.6387L104.757 41.4886L104.768 41.4863L103.424 35.6387ZM103.804 35.5625L104.797 41.4797C107.239 41.0698 109.179 39.201 109.68 36.7753L103.804 35.5625ZM57.1318 140.354L57.132 134.354H57.1318V140.354ZM39.8662 157.619H33.8662H39.8662ZM57.1318 174.885V180.885H57.132L57.1318 174.885ZM74.3965 157.619H80.3965H74.3965ZM66.665 143.224L69.9826 138.224C68.5108 137.248 66.6834 136.969 64.9875 137.463C63.2915 137.957 61.8994 139.173 61.1821 140.787L66.665 143.224ZM59.751 158.782L65.2337 161.219L65.234 161.219L59.751 158.782ZM55.9717 160.236L53.5348 165.719L53.5367 165.72L55.9717 160.236ZM54.5176 156.456L60.0003 158.893L60.0005 158.893L54.5176 156.456ZM61.4336 140.894L66.9165 143.33C67.6336 141.717 67.6035 139.869 66.8343 138.28C66.065 136.69 64.6346 135.52 62.9242 135.082L61.4336 140.894ZM140.991 140.354L140.991 134.354H140.991V140.354ZM135.605 141.211L133.735 135.51C132.023 136.071 130.654 137.373 130.006 139.055C129.359 140.737 129.501 142.621 130.395 144.186L135.605 141.211ZM141.612 151.731L136.402 154.706C137.261 156.211 138.729 157.271 140.427 157.613L141.612 151.731ZM143.929 152.198L142.743 158.08C142.89 158.109 143.037 158.133 143.185 158.152L143.929 152.198ZM148.39 157.375H154.39V157.374L148.39 157.375ZM143.929 162.552L144.349 168.537C144.492 168.527 144.635 168.512 144.777 168.491L143.929 162.552ZM124.898 163.888L124.478 157.902C122.576 158.036 120.85 159.066 119.829 160.678C118.809 162.289 118.615 164.29 119.308 166.067L124.898 163.888ZM140.991 174.885V180.885H140.991L140.991 174.885ZM158.256 157.619H164.256H158.256ZM130.535 143.879L135.746 140.904C134.888 139.402 133.424 138.343 131.73 137.999C130.035 137.655 128.274 138.059 126.898 139.107L130.535 143.879ZM126.243 148.637L121.122 145.511C120.102 147.182 119.961 149.246 120.745 151.04C121.529 152.834 123.139 154.132 125.059 154.519L126.243 148.637ZM134.162 150.231L132.978 156.113C135.284 156.578 137.649 155.651 139.027 153.744C140.404 151.836 140.539 149.3 139.373 147.257L134.162 150.231ZM113.441 146.06L107.533 145.017C106.966 148.225 109.064 151.299 112.257 151.942L113.441 146.06ZM116.188 146.612L115.004 152.494C117.758 153.049 120.529 151.617 121.67 149.049L116.188 146.612ZM125.616 135.264L129.021 140.204C131.587 138.436 132.372 134.996 130.827 132.289L125.616 135.264ZM117.772 121.524L122.983 118.55C121.73 116.355 119.236 115.18 116.745 115.613C114.255 116.046 112.303 117.992 111.864 120.481L117.772 121.524ZM114.098 95.958L108.403 94.0672C107.796 95.8964 108.104 97.9061 109.232 99.4691C110.36 101.032 112.17 101.958 114.098 101.958V95.958ZM125.552 96.3076L123.33 101.881C124.779 102.459 126.395 102.449 127.837 101.856L125.552 96.3076ZM126.532 96.1143L127.749 90.239C127.349 90.156 126.941 90.1143 126.532 90.1143L126.532 96.1143ZM131.247 97.0908L130.03 102.966C131.797 103.332 133.636 102.883 135.035 101.744C136.435 100.604 137.247 98.8956 137.247 97.0908H131.247ZM131.247 92.8438H137.247C137.247 91.0991 136.488 89.4409 135.167 88.3012C133.846 87.1614 132.094 86.653 130.369 86.9084L131.247 92.8438ZM131.189 92.8535L130.319 86.917C130.312 86.918 130.306 86.9189 130.299 86.9199L131.189 92.8535ZM130.163 92.9932L130.895 98.9484H130.895L130.163 92.9932ZM129.133 93.1064L128.64 87.1267C128.606 87.1295 128.573 87.1325 128.54 87.1358L129.133 93.1064ZM115.361 92.1523L116.843 86.3383C113.792 85.5606 110.659 87.2735 109.667 90.2616L115.361 92.1523ZM121.064 18.916L121.796 24.8712C129.227 23.958 136.833 29.4467 138.143 39.3123L144.091 38.5225L150.039 37.7326C147.984 22.2627 135.181 11.1362 120.333 12.9608L121.064 18.916ZM144.091 38.5225L146.488 44.023L155.035 40.2984L152.639 34.7979L150.242 29.2974L141.694 33.022L144.091 38.5225ZM152.639 34.7979L155.037 40.2975C156.165 39.8058 156.663 40.0734 156.566 40.0257C156.513 39.9997 156.357 39.9004 156.22 39.6804C156.155 39.5762 156.112 39.4713 156.087 39.3791C156.062 39.2873 156.062 39.2338 156.062 39.2339L162.062 39.335L168.061 39.436C168.138 34.8702 165.625 31.1155 161.879 29.2658C158.283 27.4903 154.033 27.6438 150.24 29.2982L152.639 34.7979ZM162.062 39.335L156.062 39.2378C156.048 40.1033 155.949 41.0912 155.74 42.1579L161.628 43.3115L167.516 44.4652C167.853 42.7452 168.035 41.0497 168.061 39.4321L162.062 39.335ZM161.628 43.3115L158.917 48.6643C159.256 48.8359 159.274 48.9658 159.208 48.8352C159.171 48.763 159.127 48.6404 159.113 48.4804C159.099 48.3158 159.124 48.188 159.145 48.1244L164.853 49.9736L170.56 51.8229C172.589 45.5616 168.865 40.2508 164.339 37.9588L161.628 43.3115ZM164.853 49.9736L159.144 48.1262C158.174 51.1244 156.647 54.0473 154.368 56.0789L158.36 60.5576L162.353 65.0364C166.811 61.0618 169.229 55.9356 170.561 51.8211L164.853 49.9736ZM158.36 60.5576L152.532 61.9826C152.704 62.6848 152.835 63.3886 152.922 64.0952L158.877 63.3633L164.832 62.6314C164.684 61.429 164.465 60.2621 164.189 59.1326L158.36 60.5576ZM158.877 63.3633L160.601 57.6163L160.591 57.6134L158.867 63.3604L157.143 69.1073L157.153 69.1102L158.877 63.3633ZM158.867 63.3604L152.912 64.0921C153.407 68.1216 152.509 71.8312 150.523 75.0819L155.644 78.21L160.764 81.338C164.099 75.8782 165.662 69.4622 164.822 62.6286L158.867 63.3604ZM155.644 78.21L150.522 75.0846C147.462 80.0996 141.61 84.2969 133.842 86.2233L135.286 92.0469L136.73 97.8705C146.938 95.3392 155.751 89.5529 160.765 81.3354L155.644 78.21ZM135.286 92.0469H129.286V99.3369H135.286H141.286V92.0469H135.286ZM135.286 99.3369L129.286 99.3363C129.286 97.0958 131.091 95.2902 133.333 95.29L133.333 101.29L133.333 107.29C137.719 107.29 141.286 103.723 141.286 99.3375L135.286 99.3369ZM133.333 101.29V95.29H128.642V101.29V107.29H133.333V101.29ZM128.642 101.29L122.661 100.811C122.705 100.258 123.161 99.8232 123.727 99.8232V105.823V111.823C129.472 111.823 134.171 107.397 134.622 101.769L128.642 101.29ZM123.727 105.823V99.8232H121.396V105.823V111.823H123.727V105.823ZM121.396 105.823L115.396 105.819C115.396 105.623 115.414 105.4 115.462 105.159L121.346 106.334L127.23 107.509C127.346 106.925 127.395 106.361 127.396 105.828L121.396 105.823ZM121.346 106.334L115.462 105.157L113.995 112.489L119.879 113.666L125.762 114.843L127.229 107.511L121.346 106.334ZM119.879 113.666L114.668 116.641L125.439 135.504L130.649 132.529L135.86 129.554L125.089 110.691L119.879 113.666ZM130.649 132.529L132.938 138.076C135.412 137.055 138.128 136.488 140.991 136.488V130.488V124.488C136.53 124.488 132.261 125.374 128.361 126.983L130.649 132.529ZM140.991 130.488L140.991 136.488C152.661 136.488 162.122 145.949 162.122 157.619H168.122H174.122C174.122 139.322 159.289 124.489 140.991 124.488L140.991 130.488ZM168.122 157.619H162.122C162.122 169.289 152.662 178.75 140.991 178.75L140.991 184.75L140.991 190.75C159.289 190.75 174.122 175.917 174.122 157.619H168.122ZM140.991 184.75V178.75C131.209 178.75 122.966 172.097 120.567 163.059L114.768 164.599L108.968 166.138C112.729 180.303 125.631 190.75 140.991 190.75V184.75ZM114.768 164.599L114.346 158.613L109.616 158.946L110.037 164.932L110.458 170.917L115.189 170.584L114.768 164.599ZM110.037 164.932L109.239 158.985C107.113 159.27 105.062 157.608 105.062 155.152H99.0615H93.0615C93.0615 164.62 101.267 172.162 110.835 170.878L110.037 164.932ZM99.0615 155.152L105.062 155.153C105.062 154.613 105.163 154.123 105.335 153.687L99.7559 151.479L94.1766 149.272C93.454 151.099 93.0616 153.085 93.0615 155.152L99.0615 155.152ZM99.7559 151.479L103.504 146.794L76.3857 125.101L72.6377 129.786L68.8896 134.471L96.0078 156.165L99.7559 151.479ZM72.6377 129.786L67.1552 127.348L65.2255 131.688L70.708 134.126L76.1905 136.564L78.1202 132.224L72.6377 129.786ZM70.708 134.126L67.701 139.318C74.0283 142.983 78.2627 149.81 78.2627 157.619H84.2627H90.2627C90.2627 145.354 83.5936 134.655 73.715 128.934L70.708 134.126ZM84.2627 157.619H78.2627C78.2627 169.289 68.8022 178.75 57.1317 178.75L57.1318 184.75L57.1319 190.75C75.4294 190.75 90.2627 175.917 90.2627 157.619H84.2627ZM57.1318 184.75V178.75C45.4612 178.75 36 169.289 36 157.619H30H24C24 175.917 38.8344 190.75 57.1318 190.75V184.75ZM30 157.619H36C36 145.949 45.4613 136.488 57.1318 136.488V130.488V124.488C38.8344 124.488 24 139.322 24 157.619H30ZM57.1318 130.488L57.1317 136.488C59.4073 136.488 61.5895 136.848 63.6326 137.507L65.4766 131.798L67.3205 126.088C64.1054 125.05 60.6797 124.488 57.1319 124.488L57.1318 130.488ZM65.4766 131.798L70.9593 134.235L79.7327 114.498L74.25 112.061L68.7673 109.623L59.9938 129.361L65.4766 131.798ZM74.25 112.061L79.733 114.497C79.5259 114.963 79.2105 115.363 78.8325 115.668L75.0684 110.995L71.3042 106.323C70.2404 107.18 69.3564 108.298 68.767 109.624L74.25 112.061ZM75.0684 110.995L80.4276 113.693L83.0311 108.521L77.6719 105.823L72.3126 103.125L69.7091 108.297L75.0684 110.995ZM77.6719 105.823V99.8232H76.8633V105.823V111.823H77.6719V105.823ZM76.8633 105.823V99.8232C73.3655 99.8232 70.5303 96.9877 70.5303 93.4912H64.5303H58.5303C58.5303 103.616 66.7393 111.823 76.8633 111.823V105.823ZM64.5303 93.4912L70.5303 93.4913C70.5303 89.9947 73.3657 87.1592 76.8633 87.1592V81.1592V75.1592C66.7393 75.1592 58.5304 83.3662 58.5303 93.4911L64.5303 93.4912ZM76.8633 81.1592V87.1592H91.6621V81.1592V75.1592H76.8633V81.1592ZM91.6621 81.1592L91.6611 87.1592C89.7082 87.1589 88.1279 85.5759 88.1279 83.626H94.1279H100.128C100.128 78.952 96.3396 75.16 91.6631 75.1592L91.6621 81.1592ZM94.1279 83.626L88.1279 83.625C88.1282 81.6736 89.7102 80.0921 91.6611 80.0918L91.6621 86.0918L91.6631 92.0918C96.3373 92.091 100.127 88.3021 100.128 83.6269L94.1279 83.626ZM91.6621 86.0918V80.0918H76.8633V86.0918V92.0918H91.6621V86.0918ZM76.8633 86.0918V80.0918C69.4631 80.0918 63.464 86.0913 63.4639 93.4911L69.4639 93.4912L75.4639 93.4913C75.4639 92.7185 76.0908 92.0918 76.8633 92.0918V86.0918ZM69.4639 93.4912H63.4639C63.4639 100.891 69.4632 106.891 76.8633 106.891V100.891V94.8906C76.0906 94.8906 75.4639 94.2639 75.4639 93.4912H69.4639ZM76.8633 100.891V106.891H86.7285V100.891V94.8906H76.8633V100.891ZM86.7285 100.891V106.891C84.7768 106.891 83.1953 105.309 83.1953 103.357H89.1953H95.1953C95.1953 98.6817 91.4042 94.8906 86.7285 94.8906V100.891ZM89.1953 103.357L83.1953 103.357C83.1955 101.403 84.7793 99.8232 86.7285 99.8232V105.823V111.823C91.4016 111.823 95.1949 108.036 95.1953 103.358L89.1953 103.357ZM86.7285 105.823V99.8232H83.499V105.823V111.823H86.7285V105.823ZM83.499 105.823L78.1393 103.126L74.3659 110.625L79.7256 113.322L85.0853 116.019L88.8587 108.52L83.499 105.823ZM79.7256 113.322L73.7291 113.117C73.7419 112.743 73.8248 112.343 73.9985 111.951L79.4824 114.386L84.9663 116.82C85.4476 115.736 85.6849 114.615 85.7221 113.527L79.7256 113.322ZM79.4824 114.386L73.9994 111.949L69.56 121.939L75.043 124.376L80.526 126.813L84.9654 116.822L79.4824 114.386ZM75.043 124.376L71.2947 129.061L99.5692 151.681L103.317 146.996L107.066 142.311L78.7912 119.691L75.043 124.376ZM103.317 146.996L106.732 151.929C107.236 151.581 107.8 151.369 108.383 151.308L107.753 145.341L107.123 139.374C104.462 139.655 101.995 140.614 99.9025 142.063L103.317 146.996ZM107.753 145.341L113.662 146.384L119.418 113.769L113.51 112.726L107.601 111.683L101.844 144.298L107.753 145.341ZM113.51 112.726L119.418 113.769C119.233 114.82 118.532 115.684 117.584 116.098L115.183 110.6L112.781 105.101C110.104 106.271 108.125 108.714 107.601 111.682L113.51 112.726ZM115.183 110.6L121.066 111.777L122.022 107.001L116.139 105.823L110.255 104.646L109.299 109.422L115.183 110.6ZM116.139 105.823V99.8232H113.861V105.823V111.823H116.139V105.823ZM113.861 105.823V99.8232C114.449 99.8232 114.928 100.3 114.928 100.891H108.928H102.928C102.928 106.93 107.825 111.823 113.861 111.823V105.823ZM108.928 100.891L114.928 100.891C114.928 100.959 114.921 101.025 114.91 101.085L109.016 99.9619L103.122 98.8389C102.996 99.5006 102.928 100.187 102.928 100.89L108.928 100.891ZM109.016 99.9619L110.906 94.2674L105.978 92.6317L104.088 98.3262L102.198 104.021L107.125 105.656L109.016 99.9619ZM104.088 98.3262L105.979 92.6319C107.772 93.2274 108.737 95.1516 108.142 96.945L102.447 95.0547L96.7528 93.1644C95.2603 97.6605 97.701 102.527 102.197 104.02L104.088 98.3262ZM102.447 95.0547L108.142 96.9456C107.835 97.8699 107.181 98.5434 106.463 98.9079L103.747 93.5576L101.031 88.2074C99.1221 89.1765 97.5087 90.8882 96.753 93.1638L102.447 95.0547ZM103.747 93.5576L106.436 98.9211C105.668 99.3066 104.724 99.406 103.828 99.1083L105.719 93.4141L107.61 87.7198C105.362 86.9733 103.015 87.2126 101.058 88.1941L103.747 93.5576ZM105.719 93.4141L102.712 98.6063L106.879 101.019L109.886 95.8271L112.893 90.6349L108.726 88.2218L105.719 93.4141ZM109.886 95.8271L115.58 97.7174L117.207 92.816L111.513 90.9258L105.818 89.0356L104.191 93.9369L109.886 95.8271ZM111.513 90.9258L113.676 85.3293C110.634 84.1536 108.068 82.5187 106.072 80.553L101.862 84.8281L97.6524 89.1033C100.941 92.3414 104.946 94.8202 109.349 96.5222L111.513 90.9258ZM101.862 84.8281C105.757 89.3924 105.768 89.3825 105.78 89.3726C105.784 89.3693 105.795 89.3593 105.803 89.3527C105.818 89.3394 105.833 89.3261 105.848 89.3128C105.878 89.2861 105.908 89.2592 105.937 89.2323C105.995 89.1784 106.052 89.124 106.106 89.0694C106.216 88.96 106.317 88.8496 106.412 88.7394C106.602 88.5189 106.763 88.2992 106.899 88.0885C107.17 87.6705 107.352 87.2748 107.476 86.9453C107.716 86.3096 107.798 85.7634 107.832 85.4337C107.897 84.7931 107.842 84.2887 107.818 84.0914L101.862 84.8232L95.9071 85.5551C95.8834 85.3622 95.8283 84.8602 95.8932 84.221C95.9266 83.892 96.0087 83.3462 96.2484 82.7107C96.3726 82.3813 96.5549 81.9857 96.8255 81.5677C96.9619 81.357 97.1228 81.1373 97.3123 80.9169C97.4071 80.8066 97.509 80.6963 97.6182 80.5869C97.6729 80.5322 97.7293 80.4779 97.7876 80.424C97.8167 80.397 97.8463 80.3702 97.8763 80.3435C97.8913 80.3302 97.9065 80.3168 97.9217 80.3036C97.9293 80.2969 97.9408 80.287 97.9446 80.2837C97.9562 80.2738 97.9677 80.2639 101.862 84.8281ZM101.862 84.8232L106.073 80.5486C103.358 77.875 101.589 74.4934 101.094 70.4645L95.1387 71.1963L89.1835 71.9281C90.0233 78.7623 93.0941 84.6085 97.6519 89.0979L101.862 84.8232ZM95.1387 71.1963L101.094 70.4645C100.317 64.1443 102.905 57.8125 108.134 53.003L104.072 48.5869L100.01 44.1708C92.3825 51.1868 87.8648 61.1972 89.1835 71.9281L95.1387 71.1963ZM104.072 48.5869C110.031 47.8819 110.031 47.8819 110.031 47.8819C110.031 47.8819 110.031 47.8819 110.031 47.8818C110.031 47.8817 110.031 47.8816 110.031 47.8815C110.031 47.8812 110.031 47.8808 110.031 47.8802C110.03 47.8791 110.03 47.8774 110.03 47.8752C110.029 47.8707 110.029 47.8641 110.028 47.8555C110.026 47.8382 110.022 47.8126 110.019 47.7795C110.011 47.7133 109.999 47.617 109.985 47.4964C109.956 47.2554 109.916 46.9174 109.87 46.5294C109.778 45.7541 109.662 44.7768 109.566 43.9749L103.608 44.6904L97.6512 45.4059C97.7466 46.1998 97.8622 47.1708 97.9541 47.9448C98 48.3314 98.04 48.6684 98.0684 48.9086C98.0827 49.0287 98.094 49.1246 98.1018 49.1904C98.1057 49.2233 98.1087 49.2487 98.1107 49.2659C98.1118 49.2745 98.1125 49.281 98.1131 49.2854C98.1133 49.2875 98.1135 49.2892 98.1136 49.2903C98.1137 49.2908 98.1137 49.2912 98.1138 49.2915C98.1138 49.2916 98.1138 49.2917 98.1138 49.2918C98.1138 49.2918 98.1138 49.2918 98.1138 49.2919C98.1138 49.2919 98.1138 49.2919 104.072 48.5869ZM103.608 44.6904L104.197 38.7194C103.86 38.6861 103.437 38.5692 103.127 38.4214L100.548 43.8389L97.9688 49.2563C99.5352 50.002 101.305 50.4924 103.02 50.6615L103.608 44.6904ZM100.548 43.8389L103.026 38.3743C102.995 38.3607 102.968 38.3488 102.946 38.3388C102.923 38.3289 102.904 38.3206 102.888 38.3141C102.873 38.3077 102.861 38.3026 102.853 38.2994C102.85 38.2978 102.846 38.2965 102.844 38.2957C102.843 38.2952 102.843 38.2949 102.842 38.2947C102.842 38.2946 102.842 38.2945 102.841 38.2944C102.841 38.2942 102.842 38.2945 102.841 38.2943C102.841 38.2941 102.842 38.2946 102.843 38.2952C102.845 38.2959 102.848 38.297 102.851 38.2985C102.858 38.3013 102.87 38.3062 102.884 38.3123C102.898 38.3184 102.917 38.3265 102.939 38.3361C102.961 38.3457 102.987 38.3573 103.016 38.3707L100.527 43.8301L98.0383 49.2894C98.0694 49.3036 98.0972 49.316 98.1208 49.3263C98.1444 49.3367 98.1649 49.3455 98.181 49.3524C98.1971 49.3592 98.2103 49.3647 98.2188 49.3683C98.2268 49.3717 98.2336 49.3745 98.2341 49.3747C98.2365 49.3757 98.232 49.3738 98.2269 49.3717C98.2211 49.3692 98.2105 49.3648 98.1971 49.3591C98.1837 49.3534 98.1658 49.3458 98.1449 49.3366C98.1239 49.3275 98.0987 49.3163 98.0702 49.3034L100.548 43.8389ZM100.527 43.8301L104.77 48.0727L104.771 48.0717L100.528 43.8291L96.2857 39.5865L96.2847 39.5874L100.527 43.8301ZM100.528 43.8291L103.122 38.4185C102.924 38.3236 102.954 38.3037 103.111 38.4516C103.245 38.578 103.804 39.1431 104.05 40.2191L98.2002 41.5547L92.3507 42.8903C92.8032 44.8721 93.9314 46.2895 94.8805 47.1841C95.8526 48.1002 96.9437 48.7646 97.9349 49.2397L100.528 43.8291ZM98.2002 41.5547L104.049 40.2178C104.193 40.8482 104.162 41.3688 104.107 41.7014C104.053 42.0284 103.968 42.233 103.936 42.3035C103.882 42.4217 103.907 42.3257 104.124 42.0914C104.323 41.875 104.564 41.6739 104.778 41.5343C104.88 41.4682 104.945 41.4363 104.963 41.4278C104.987 41.4171 104.918 41.4521 104.757 41.4886L103.424 35.6387L102.09 29.7887C99.2945 30.426 96.8656 32.2616 95.3038 33.9544C94.4609 34.8681 93.6101 36.0159 93.0049 37.3518C92.4291 38.6229 91.8315 40.6186 92.351 42.8915L98.2002 41.5547ZM103.424 35.6387L104.768 41.4863C104.799 41.4789 104.808 41.4779 104.797 41.4797L103.804 35.5625L102.811 29.6453C102.548 29.6894 102.302 29.74 102.08 29.7911L103.424 35.6387ZM103.804 35.5625L109.68 36.7753C111.053 30.1199 115.902 25.5955 121.796 24.8712L121.064 18.916L120.333 12.9608C108.823 14.3752 100.235 23.172 97.9276 34.3497L103.804 35.5625ZM57.1318 140.354V134.354C44.2829 134.354 33.8662 144.77 33.8662 157.619H39.8662H45.8662C45.8662 151.398 50.9103 146.354 57.1318 146.354V140.354ZM39.8662 157.619H33.8662C33.8662 170.468 44.2828 180.885 57.1318 180.885V174.885V168.885C50.9102 168.885 45.8662 163.841 45.8662 157.619H39.8662ZM57.1318 174.885L57.132 180.885C69.9809 180.884 80.3965 170.468 80.3965 157.619H74.3965H68.3965C68.3965 163.841 63.3529 168.885 57.1317 168.885L57.1318 174.885ZM74.3965 157.619H80.3965C80.3965 149.513 76.2455 142.38 69.9826 138.224L66.665 143.224L63.3475 148.223C66.4032 150.251 68.3965 153.704 68.3965 157.619H74.3965ZM66.665 143.224L61.1821 140.787L54.268 156.346L59.751 158.782L65.234 161.219L72.148 145.66L66.665 143.224ZM59.751 158.782L54.2683 156.345C54.9718 154.762 56.8243 154.05 58.4067 154.753L55.9717 160.236L53.5367 165.72C58.0091 167.706 63.2457 165.692 65.2337 161.219L59.751 158.782ZM55.9717 160.236L58.4085 154.753C59.991 155.457 60.7044 157.309 60.0003 158.893L54.5176 156.456L49.0349 154.019C47.0462 158.493 49.0622 163.731 53.5348 165.719L55.9717 160.236ZM54.5176 156.456L60.0005 158.893L66.9165 143.33L61.4336 140.894L55.9506 138.457L49.0346 154.019L54.5176 156.456ZM61.4336 140.894L62.9242 135.082C61.0654 134.605 59.1233 134.354 57.132 134.354L57.1318 140.354L57.1317 146.354C58.1106 146.354 59.0515 146.477 59.943 146.705L61.4336 140.894ZM140.991 140.354V134.354C138.466 134.354 136.024 134.759 133.735 135.51L135.605 141.211L137.475 146.912C138.576 146.551 139.756 146.354 140.991 146.354V140.354ZM135.605 141.211L130.395 144.186L136.402 154.706L141.612 151.731L146.823 148.756L140.816 138.236L135.605 141.211ZM141.612 151.731L140.427 157.613L142.743 158.08L143.929 152.198L145.114 146.316L142.798 145.85L141.612 151.731ZM143.929 152.198L143.185 158.152C142.86 158.111 142.656 157.957 142.559 157.844C142.462 157.732 142.39 157.57 142.39 157.376L148.39 157.375L154.39 157.374C154.389 151.854 150.305 146.948 144.673 146.245L143.929 152.198ZM148.39 157.375H142.39C142.39 157.034 142.658 156.672 143.08 156.612L143.929 162.552L144.777 168.491C150.327 167.699 154.39 162.945 154.39 157.375H148.39ZM143.929 162.552L143.509 156.566L124.478 157.902L124.898 163.888L125.319 169.873L144.349 168.537L143.929 162.552ZM124.898 163.888L119.308 166.067C122.685 174.73 131.112 180.885 140.991 180.885V174.885V168.885C136.222 168.885 132.13 165.918 130.489 161.708L124.898 163.888ZM140.991 174.885L140.991 180.885C153.84 180.884 164.256 170.468 164.256 157.619H158.256H152.256C152.256 163.841 147.212 168.885 140.991 168.885L140.991 174.885ZM158.256 157.619H164.256C164.256 144.771 153.84 134.354 140.991 134.354L140.991 140.354L140.991 146.354C147.212 146.354 152.256 151.397 152.256 157.619H158.256ZM130.535 143.879L126.898 139.107C124.599 140.859 122.636 143.031 121.122 145.511L126.243 148.637L131.365 151.763C132.098 150.561 133.053 149.504 134.172 148.651L130.535 143.879ZM126.243 148.637L125.059 154.519L132.978 156.113L134.162 150.231L135.347 144.35L127.428 142.755L126.243 148.637ZM134.162 150.231L139.373 147.257L135.746 140.904L130.535 143.879L125.325 146.854L128.952 153.206L134.162 150.231ZM113.441 146.06L112.257 151.942L115.004 152.494L116.188 146.612L117.371 140.73L114.625 140.178L113.441 146.06ZM116.188 146.612L121.67 149.049C123.261 145.471 125.821 142.409 129.021 140.204L125.616 135.264L122.212 130.323C117.21 133.77 113.202 138.557 110.705 144.176L116.188 146.612ZM125.616 135.264L130.827 132.289L122.983 118.55L117.772 121.524L112.562 124.499L120.406 138.238L125.616 135.264ZM117.772 121.524L111.864 120.481L107.533 145.017L113.441 146.06L119.35 147.103L123.681 122.567L117.772 121.524ZM114.098 95.958V101.958H123.727V95.958V89.958H114.098V95.958ZM123.727 95.958V101.958C123.592 101.958 123.455 101.931 123.33 101.881L125.552 96.3076L127.773 90.734C126.519 90.2341 125.15 89.958 123.727 89.958V95.958ZM125.552 96.3076L127.837 101.856C127.429 102.023 126.985 102.114 126.532 102.114L126.532 96.1143L126.532 90.1143C125.385 90.1143 124.279 90.3428 123.267 90.7597L125.552 96.3076ZM126.532 96.1143L125.315 101.99L130.03 102.966L131.247 97.0908L132.464 91.2155L127.749 90.239L126.532 96.1143ZM131.247 97.0908H137.247V92.8438H131.247H125.247V97.0908H131.247ZM131.247 92.8438L130.369 86.9084C130.302 86.9183 130.247 86.9276 130.212 86.9335C130.195 86.9365 130.18 86.9391 130.17 86.9409C130.161 86.9425 130.153 86.9439 130.152 86.9441C130.149 86.9447 130.153 86.944 130.158 86.9431C130.163 86.9421 130.174 86.9403 130.187 86.938C130.213 86.9334 130.26 86.9256 130.319 86.917L131.189 92.8535L132.06 98.79C132.128 98.78 132.185 98.7706 132.22 98.7645C132.239 98.7613 132.254 98.7586 132.264 98.7568C132.274 98.755 132.283 98.7535 132.284 98.7532C132.288 98.7525 132.285 98.7531 132.281 98.7538C132.276 98.7547 132.266 98.7564 132.253 98.7587C132.228 98.7629 132.183 98.7706 132.125 98.7791L131.247 92.8438ZM131.189 92.8535L130.299 86.9199C130.017 86.9622 129.727 87.0017 129.431 87.038L130.163 92.9932L130.895 98.9484C131.288 98.9001 131.684 98.8464 132.08 98.7871L131.189 92.8535ZM130.163 92.9932L129.431 87.038C129.058 87.0839 128.839 87.1103 128.64 87.1267L129.133 93.1064L129.626 99.0861C130.11 99.0462 130.58 98.9871 130.895 98.9484L130.163 92.9932ZM129.133 93.1064L128.54 87.1358C124.351 87.5517 120.382 87.2403 116.843 86.3383L115.361 92.1523L113.879 97.9664C118.845 99.2322 124.221 99.6235 129.726 99.0771L129.133 93.1064ZM115.361 92.1523L109.667 90.2616L108.403 94.0672L114.098 95.958L119.792 97.8488L121.056 94.0431L115.361 92.1523Z" fill="white" mask="url(#path-1-outside-1_1347_14539)"/>
<path fill-rule="evenodd" clip-rule="evenodd" d="M81.7959 157.62C81.7959 171.241 70.7531 182.284 57.1313 182.284C43.5095 182.284 32.4668 171.241 32.4668 157.62C32.4668 143.998 43.5095 132.955 57.1313 132.955C70.7531 132.955 81.7959 143.998 81.7959 157.62ZM74.3965 157.62C74.3965 167.155 66.6666 174.885 57.1313 174.885C47.596 174.885 39.8662 167.155 39.8662 157.62C39.8662 148.084 47.5961 140.354 57.1313 140.354C66.6666 140.354 74.3965 148.084 74.3965 157.62Z" fill="#DCD6D6"/>
<path fill-rule="evenodd" clip-rule="evenodd" d="M165.655 157.62C165.655 171.241 154.612 182.284 140.991 182.284C127.369 182.284 116.326 171.241 116.326 157.62C116.326 143.998 127.369 132.955 140.991 132.955C154.612 132.955 165.655 143.998 165.655 157.62ZM158.256 157.62C158.256 167.155 150.526 174.885 140.991 174.885C131.455 174.885 123.726 167.155 123.726 157.62C123.726 148.084 131.455 140.354 140.991 140.354C150.526 140.354 158.256 148.084 158.256 157.62Z" fill="#DCD6D6"/>
<path fill-rule="evenodd" clip-rule="evenodd" d="M79.3291 157.619C79.3291 169.879 69.3906 179.817 57.131 179.817C44.8713 179.817 34.9329 169.879 34.9329 157.619C34.9329 145.36 44.8713 135.421 57.131 135.421C69.3906 135.421 79.3291 145.36 79.3291 157.619ZM57.131 184.75C72.1152 184.75 84.262 172.603 84.262 157.619C84.262 142.636 72.1152 130.488 57.131 130.488C42.147 130.488 30 142.636 30 157.619C30 172.603 42.147 184.75 57.131 184.75ZM163.188 157.619C163.188 169.879 153.25 179.817 140.99 179.817C128.731 179.817 118.792 169.879 118.792 157.619C118.792 145.36 128.731 135.421 140.99 135.421C153.25 135.421 163.188 145.36 163.188 157.619ZM140.99 184.75C155.975 184.75 168.121 172.603 168.121 157.619C168.121 142.636 155.975 130.488 140.99 130.488C126.006 130.488 113.859 142.636 113.859 157.619C113.859 172.603 126.006 184.75 140.99 184.75Z" fill="#474747"/>
<path d="M89.1948 83.6256C89.1948 82.2635 88.0903 81.1592 86.7283 81.1592H76.8625C70.0517 81.1592 64.5303 86.6806 64.5303 93.4914C64.5303 100.302 70.0517 105.824 76.8625 105.824H77.671L74.5342 112.059C73.8914 113.345 74.4124 114.908 75.6984 115.551C76.9844 116.194 78.5481 115.673 79.1909 114.387L83.4988 105.824H86.7283C88.0903 105.824 89.1948 104.719 89.1948 103.357C89.1948 101.995 88.0903 100.891 86.7283 100.891H76.8625C72.7761 100.891 69.4632 97.5779 69.4632 93.4914C69.4632 89.405 72.7761 86.0921 76.8625 86.0921H86.7283C88.0903 86.0921 89.1948 84.9878 89.1948 83.6256ZM119.303 103.271C120.713 103.553 121.627 104.924 121.345 106.334L118.879 118.667C118.596 120.076 117.225 120.99 115.815 120.708C114.405 120.427 113.491 119.055 113.773 117.645L116.239 105.313C116.522 103.903 117.893 102.989 119.303 103.271Z" fill="#D3D3D3"/>
<path d="M79.4829 114.386C80.1247 112.941 79.474 111.249 78.0292 110.607C76.5838 109.965 74.8919 110.615 74.2496 112.061L54.518 156.457C53.8758 157.902 54.5265 159.594 55.9716 160.236C57.4167 160.878 59.1088 160.227 59.751 158.783L72.638 129.787L107.141 157.389C107.931 158.021 108.995 158.189 109.941 157.832C110.886 157.475 111.574 156.646 111.75 155.651L117.772 121.525L138.853 158.447C139.637 159.821 141.386 160.298 142.759 159.514C144.133 158.73 144.611 156.981 143.826 155.608L118.816 111.804C118.218 110.756 117.028 110.196 115.839 110.403C114.651 110.609 113.719 111.538 113.51 112.726L106.949 149.902L75.0428 124.377L79.4829 114.386Z" fill="#7AB9F8"/>
<path d="M143.929 152.199L110.037 145.374C104.242 144.59 99.0615 149.191 99.0615 155.153C99.0615 161.114 104.19 165.716 110.037 164.931L143.929 162.552C146.493 162.186 148.391 159.99 148.391 157.376C148.391 154.761 146.442 152.512 143.929 152.199Z" fill="#EAC00F"/>
<path d="M108.928 100.891C108.928 98.1665 111.136 95.958 113.861 95.958H123.726C126.451 95.958 128.659 98.1665 128.659 100.891C128.659 103.615 126.451 105.824 123.726 105.824H113.861C111.136 105.824 108.928 103.615 108.928 100.891Z" fill="#AAA5A5"/>
<path d="M79.3291 83.6256C79.3291 82.2635 80.4336 81.1592 81.7956 81.1592H91.6614C93.0233 81.1592 94.1278 82.2635 94.1278 83.6256C94.1278 84.9878 93.0233 86.0921 91.6614 86.0921H81.7956C80.4336 86.0921 79.3291 84.9878 79.3291 83.6256Z" fill="#474747"/>
<path d="M108.927 160.086C111.651 160.086 113.86 157.877 113.86 155.153C113.86 152.428 111.651 150.22 108.927 150.22C106.203 150.22 103.994 152.428 103.994 155.153C103.994 157.877 106.203 160.086 108.927 160.086Z" fill="#F4F4F4"/>
<path d="M152.639 34.7972L118.964 49.4744C118.964 49.4744 130.026 68.5507 147.713 60.8405C158.206 56.2648 161.95 46.2403 162.061 39.3344C162.134 35.0254 157.559 32.6512 152.639 34.7972Z" fill="#21587B"/>
<path d="M135.286 77.9261V99.3368C135.286 100.409 134.405 101.29 133.333 101.29H126.532C125.108 101.29 123.944 100.126 123.944 98.7023C123.944 97.9903 124.236 97.3468 124.707 96.8721C125.177 96.402 125.82 96.1144 126.532 96.1144L131.247 97.0912V77.9261C131.247 76.8535 132.128 75.9727 133.201 75.9727H133.333C134.405 75.9727 135.286 76.8535 135.286 77.9261Z" fill="#404040"/>
<path d="M119.759 78.9108L113.011 99.2304C112.673 100.248 111.56 100.807 110.542 100.469L104.088 98.3254C102.736 97.8767 101.998 96.4053 102.447 95.0538C102.671 94.3781 103.152 93.8594 103.747 93.5571C104.342 93.2591 105.043 93.189 105.719 93.4134L109.885 95.8262L115.925 77.6378C116.263 76.6199 117.377 76.0615 118.395 76.3995L118.52 76.4412C119.538 76.7792 120.097 77.8929 119.759 78.9108Z" fill="#404040"/>
<path d="M158.868 63.3605C159.535 68.7921 158.304 73.8546 155.643 78.2099C151.008 85.8061 142.031 91.264 131.19 92.8538C130.851 92.9046 130.507 92.9514 130.163 92.9937C129.819 93.036 129.475 93.0784 129.133 93.1065C118.225 94.1894 108.198 91.0668 101.863 84.828C101.863 84.828 101.863 84.828 101.862 84.8234C98.2262 81.242 95.806 76.6281 95.1385 71.1965C94.0908 62.6709 97.6438 54.4995 104.073 48.5868C104.073 48.5868 103.671 45.1734 103.5 43.7781C101.925 30.9624 109.848 20.2951 121.065 18.9167C132.281 17.5384 142.551 25.97 144.126 38.7857C144.298 40.181 144.234 43.0307 144.057 43.2364C144.515 43.4468 144.734 43.5854 144.734 43.5854C152.403 47.7658 157.829 54.8337 158.877 63.3639L158.868 63.3605Z" fill="#4B9AE8"/>
<path d="M105.478 44.6103C103.027 45.1736 98.678 43.6479 98.2 41.5545C97.7226 39.4657 100.972 36.1969 103.423 35.6381C105.874 35.0748 108.18 35.9871 108.894 39.1045C109.617 42.2576 107.933 44.0465 105.482 44.6097L105.478 44.6103Z" fill="#EAC00F"/>
<path d="M135.508 43.8965L156.94 42.4135C162.171 42.051 166.181 45.8725 164.852 49.9739C162.781 56.3748 158.051 64.2964 147.301 65.0387C138.319 65.6601 132.044 60.7963 127.982 55.6827C124.166 50.8829 128.32 44.3923 135.504 43.899L135.508 43.8965Z" fill="#276288"/>
<path opacity="0.5" d="M107.272 36.3009C107.272 36.3009 107.192 37.5983 107.01 39.037C106.815 40.5878 105.831 41.748 104.815 42.2038C103.496 42.8029 102.607 43.2845 100.527 43.8299C102.378 44.6738 104.229 44.8787 105.479 44.6101C108.131 44.0405 109.032 42.2789 109.058 40.6893C109.106 37.57 107.272 36.3009 107.272 36.3009Z" fill="#B5950D"/>
<path d="M116.272 39.827C119.044 39.827 121.292 37.5795 121.292 34.8071C121.292 32.0346 119.044 29.7871 116.272 29.7871C113.499 29.7871 111.252 32.0346 111.252 34.8071C111.252 37.5795 113.499 39.827 116.272 39.827Z" fill="white"/>
<path d="M116.272 37.4834C117.75 37.4834 118.948 36.2854 118.948 34.8076C118.948 33.3298 117.75 32.1318 116.272 32.1318C114.795 32.1318 113.597 33.3298 113.597 34.8076C113.597 36.2854 114.795 37.4834 116.272 37.4834Z" fill="#040000"/>
<path d="M51.4997 146C52.3331 146.833 53.9997 148.6 53.9997 149L51.4997 160L53.9997 163.5L59.5 164L65 155L68.5 152C69.1667 152.833 70.6 155.6 71 160C71.5 165.5 67.5 167 63.5 169.5C59.5 172 53.9997 171 48.4997 168.5C42.9997 166 42.4997 158.5 43.9997 153.5C45.1997 149.5 49.4997 146.833 51.4997 146Z" fill="white"/>
</svg>
