<svg width="200" height="200" viewBox="0 0 200 200" fill="none" xmlns="http://www.w3.org/2000/svg">
<mask id="path-1-outside-1_1347_1915" maskUnits="userSpaceOnUse" x="8.99976" y="16" width="181" height="174" fill="black">
<rect fill="white" x="8.99976" y="16" width="181" height="174"/>
<path d="M27.74 157.063C38.4802 156.191 28.7988 164.607 34.3103 168.541C40.5056 172.965 28.1142 184.512 22.114 182.835C16.1194 181.153 22.7496 181.573 18.031 173.023C13.3068 164.468 16.9395 157.942 27.74 157.063ZM97.7166 44.3066C104.989 26.8436 122.528 18.8723 137.483 25.1035C141 26.5687 144.06 28.688 146.59 31.2998C150.382 29.4914 157.757 30.3144 159.833 33.7207C162.006 37.2999 158.967 44.7701 155.387 46.9512V46.9434C155.074 47.1346 154.755 47.3038 154.431 47.4521C155.2 52.4356 154.841 57.809 153.188 63.208C161.53 61.6953 170.262 58.956 177.22 56.3516C190.314 51.4504 180.883 79.7803 167.637 86.2168C164.815 88.3083 160.198 90.0453 155.066 90.2451C155.51 95.8606 154.691 101.548 152.439 106.955C145.249 124.221 126.491 131.38 106.885 127.308L106.21 132.967L110.85 137.474C111.565 138.168 111.582 139.311 110.887 140.026C110.236 140.696 109.192 140.753 108.475 140.186L108.336 140.064L105.573 137.381L105.322 139.054C105.173 140.039 104.254 140.717 103.268 140.568C102.283 140.42 101.604 139.501 101.752 138.516L102.154 135.846L99.9851 136.224C99.0033 136.394 98.0689 135.736 97.8982 134.754C97.7279 133.772 98.3862 132.838 99.3679 132.667L102.678 132.091L103.351 126.453C100.999 125.804 98.6433 124.996 96.3035 124.022C95.1674 123.549 94.0566 123.046 92.9714 122.515C96.5459 130.808 96.4211 141.95 92.4734 147.14C87.6175 153.523 82.4726 146.342 75.3142 149.776C68.1557 153.211 74.0753 169.626 57.3953 169.626C44.0662 169.626 56.6651 160.561 42.4773 152.87C27.4463 144.724 33.1912 133.401 33.5486 124.958C33.9057 116.515 34.1715 105.381 47.1052 100.252C53.8867 97.5665 63.5443 100.196 72.1326 104.458C65.947 94.7135 64.2672 83.2115 68.8699 72.1582H68.8621C70.1233 69.1279 71.7623 66.3548 73.7156 63.8623C73.1645 63.2115 72.6867 62.5615 72.2917 61.9258C65.8602 51.5767 64.0082 21.2522 74.3757 30.6299C80.7113 36.3647 88.2307 44.3609 95.8689 49.8486C96.3411 47.9938 96.9541 46.1395 97.7166 44.3066Z"/>
</mask>
<path d="M27.74 157.063C38.4802 156.191 28.7988 164.607 34.3103 168.541C40.5056 172.965 28.1142 184.512 22.114 182.835C16.1194 181.153 22.7496 181.573 18.031 173.023C13.3068 164.468 16.9395 157.942 27.74 157.063ZM97.7166 44.3066C104.989 26.8436 122.528 18.8723 137.483 25.1035C141 26.5687 144.06 28.688 146.59 31.2998C150.382 29.4914 157.757 30.3144 159.833 33.7207C162.006 37.2999 158.967 44.7701 155.387 46.9512V46.9434C155.074 47.1346 154.755 47.3038 154.431 47.4521C155.2 52.4356 154.841 57.809 153.188 63.208C161.53 61.6953 170.262 58.956 177.22 56.3516C190.314 51.4504 180.883 79.7803 167.637 86.2168C164.815 88.3083 160.198 90.0453 155.066 90.2451C155.51 95.8606 154.691 101.548 152.439 106.955C145.249 124.221 126.491 131.38 106.885 127.308L106.21 132.967L110.85 137.474C111.565 138.168 111.582 139.311 110.887 140.026C110.236 140.696 109.192 140.753 108.475 140.186L108.336 140.064L105.573 137.381L105.322 139.054C105.173 140.039 104.254 140.717 103.268 140.568C102.283 140.42 101.604 139.501 101.752 138.516L102.154 135.846L99.9851 136.224C99.0033 136.394 98.0689 135.736 97.8982 134.754C97.7279 133.772 98.3862 132.838 99.3679 132.667L102.678 132.091L103.351 126.453C100.999 125.804 98.6433 124.996 96.3035 124.022C95.1674 123.549 94.0566 123.046 92.9714 122.515C96.5459 130.808 96.4211 141.95 92.4734 147.14C87.6175 153.523 82.4726 146.342 75.3142 149.776C68.1557 153.211 74.0753 169.626 57.3953 169.626C44.0662 169.626 56.6651 160.561 42.4773 152.87C27.4463 144.724 33.1912 133.401 33.5486 124.958C33.9057 116.515 34.1715 105.381 47.1052 100.252C53.8867 97.5665 63.5443 100.196 72.1326 104.458C65.947 94.7135 64.2672 83.2115 68.8699 72.1582H68.8621C70.1233 69.1279 71.7623 66.3548 73.7156 63.8623C73.1645 63.2115 72.6867 62.5615 72.2917 61.9258C65.8602 51.5767 64.0082 21.2522 74.3757 30.6299C80.7113 36.3647 88.2307 44.3609 95.8689 49.8486C96.3411 47.9938 96.9541 46.1395 97.7166 44.3066Z" fill="#EAC00F"/>
<path d="M27.74 157.063L27.2539 151.083L27.2536 151.083L27.74 157.063ZM34.3103 168.541L37.7971 163.658L37.7962 163.658L34.3103 168.541ZM22.114 182.835L20.4929 188.612L20.499 188.614L22.114 182.835ZM18.031 173.023L23.2841 170.124L23.2834 170.123L18.031 173.023ZM97.7166 44.3066L92.1777 42L92.1768 42.0021L97.7166 44.3066ZM137.483 25.1035L139.791 19.5651L139.791 19.565L137.483 25.1035ZM146.59 31.2998L142.28 35.4741C144.072 37.3249 146.846 37.8246 149.172 36.7157L146.59 31.2998ZM159.833 33.7207L164.961 30.6065L164.956 30.5984L159.833 33.7207ZM155.387 46.9512H149.387C149.387 49.1202 150.558 51.1203 152.449 52.1825C154.34 53.2447 156.657 53.2035 158.51 52.0748L155.387 46.9512ZM155.387 46.9434H161.387C161.387 44.7734 160.216 42.7725 158.323 41.7107C156.431 40.6489 154.113 40.6917 152.261 41.8226L155.387 46.9434ZM154.431 47.4521L151.929 41.9989C149.492 43.1171 148.093 45.7164 148.501 48.3662L154.431 47.4521ZM153.188 63.208L147.451 61.4518C146.838 63.4533 147.313 65.6293 148.703 67.1938C150.094 68.7584 152.199 69.4852 154.259 69.1117L153.188 63.208ZM177.22 56.3516L179.324 61.9708L179.324 61.9708L177.22 56.3516ZM167.637 86.2168L165.015 80.8202C164.681 80.9825 164.363 81.1753 164.065 81.3963L167.637 86.2168ZM155.066 90.2451L154.833 84.2497C153.201 84.3132 151.666 85.0389 150.581 86.2594C149.497 87.4799 148.956 89.0898 149.085 90.7175L155.066 90.2451ZM152.439 106.955L146.9 104.648L146.9 104.649L152.439 106.955ZM106.885 127.308L108.105 121.433C106.459 121.091 104.745 121.455 103.381 122.437C102.016 123.419 101.126 124.928 100.927 126.597L106.885 127.308ZM106.21 132.967L100.252 132.256C100.03 134.114 100.688 135.968 102.03 137.271L106.21 132.967ZM110.85 137.474L115.031 133.17L115.03 133.169L110.85 137.474ZM110.887 140.026L115.191 144.208L115.192 144.207L110.887 140.026ZM108.475 140.186L104.545 144.719C104.612 144.778 104.682 144.835 104.752 144.891L108.475 140.186ZM108.336 140.064L104.155 144.368C104.236 144.447 104.319 144.523 104.405 144.598L108.336 140.064ZM105.573 137.381L109.754 133.077C108.14 131.51 105.786 130.977 103.654 131.696C101.523 132.415 99.9731 134.266 99.6394 136.491L105.573 137.381ZM105.322 139.054L111.255 139.949L111.256 139.944L105.322 139.054ZM103.268 140.568L102.373 146.501L102.375 146.502L103.268 140.568ZM101.752 138.516L95.8187 137.622L95.8184 137.623L101.752 138.516ZM102.154 135.846L108.087 136.74C108.375 134.832 107.727 132.903 106.348 131.555C104.968 130.206 103.024 129.604 101.124 129.935L102.154 135.846ZM99.9851 136.224L101.01 142.135L101.015 142.135L99.9851 136.224ZM97.8982 134.754L91.9864 135.779L91.9869 135.782L97.8982 134.754ZM99.3679 132.667L100.396 138.578L100.397 138.578L99.3679 132.667ZM102.678 132.091L103.707 138.002C106.318 137.548 108.322 135.434 108.636 132.802L102.678 132.091ZM103.351 126.453L109.309 127.164C109.661 124.218 107.806 121.458 104.946 120.669L103.351 126.453ZM96.3035 124.022L93.9973 129.562L93.998 129.562L96.3035 124.022ZM92.9714 122.515L95.6084 117.125C93.3532 116.022 90.6495 116.439 88.832 118.171C87.0146 119.903 86.4677 122.584 87.4614 124.889L92.9714 122.515ZM92.4734 147.14L97.2487 150.772L97.2488 150.772L92.4734 147.14ZM75.3142 149.776L72.7187 144.367L72.7186 144.367L75.3142 149.776ZM57.3953 169.626V175.626H57.3953L57.3953 169.626ZM42.4773 152.87L45.3365 147.595L45.3362 147.595L42.4773 152.87ZM33.5486 124.958L39.5432 125.212L39.5432 125.212L33.5486 124.958ZM47.1052 100.252L44.8961 94.6734L44.8932 94.6746L47.1052 100.252ZM72.1326 104.458L69.4651 109.832C71.8768 111.029 74.7905 110.473 76.5918 108.472C78.3932 106.471 78.6411 103.516 77.1982 101.242L72.1326 104.458ZM68.8699 72.1582L74.4088 74.4647C75.1799 72.6129 74.9747 70.4983 73.8618 68.8295C72.749 67.1606 70.8758 66.1582 68.8699 66.1582V72.1582ZM68.8621 72.1582L63.3227 69.8526C62.552 71.7043 62.7575 73.8187 63.8704 75.4873C64.9833 77.156 66.8563 78.1582 68.8621 78.1582V72.1582ZM73.7156 63.8623L78.4382 67.5633C80.1939 65.3229 80.1339 62.1573 78.2945 59.985L73.7156 63.8623ZM72.2917 61.9258L77.3882 58.7594L77.3878 58.7588L72.2917 61.9258ZM74.3757 30.6299L78.4022 26.1816L78.4006 26.1801L74.3757 30.6299ZM95.8689 49.8486L92.368 54.7214C93.9791 55.8789 96.0581 56.1652 97.9221 55.4864C99.786 54.8076 101.194 53.2514 101.683 51.329L95.8689 49.8486ZM27.74 157.063L28.226 163.044C28.7274 163.003 29.0957 162.996 29.3543 163.003C29.6163 163.01 29.7201 163.032 29.7069 163.029C29.6943 163.026 28.9339 162.872 28.165 162.06C27.3549 161.204 27.1577 160.28 27.1177 159.895C27.0889 159.618 27.1353 159.578 27.058 160.073C27.0241 160.289 26.9802 160.531 26.9182 160.866C26.861 161.175 26.7866 161.574 26.7197 161.984C26.5878 162.792 26.4386 163.903 26.471 165.124C26.5437 167.864 27.5682 171.1 30.8244 173.425L34.3103 168.541L37.7962 163.658C37.8996 163.731 38.1411 163.957 38.3183 164.335C38.4753 164.67 38.4688 164.884 38.4668 164.806C38.4508 164.204 38.59 163.998 38.9139 161.927C39.0702 160.927 39.8073 156.903 36.8801 153.811C35.4225 152.271 33.6133 151.572 32.0529 151.26C30.5229 150.955 28.8869 150.95 27.2539 151.083L27.74 157.063ZM34.3103 168.541L30.8235 173.424C30.6603 173.307 30.3059 172.959 30.1122 172.371C29.9381 171.842 30.0208 171.505 30.0134 171.538C29.9642 171.753 29.5929 172.627 28.4388 173.84C27.3606 174.973 26.0252 175.947 24.8266 176.522C23.4308 177.191 23.1603 176.897 23.729 177.056L22.114 182.835L20.499 188.614C24.0678 189.611 27.5963 188.503 30.0178 187.341C32.6366 186.084 35.1369 184.209 37.1322 182.112C39.0515 180.095 40.9915 177.358 41.7108 174.216C42.0875 172.57 42.1688 170.618 41.5099 168.617C40.8315 166.557 39.5092 164.881 37.7971 163.658L34.3103 168.541ZM22.114 182.835L23.7351 177.058C23.0408 176.863 22.7672 176.763 22.7052 176.737C22.5318 176.665 23.3115 176.93 24.0874 177.8C24.5459 178.314 24.9522 178.978 25.1966 179.774C25.4316 180.539 25.4465 181.196 25.4205 181.616C25.3965 182.003 25.3315 182.269 25.3272 182.286C25.3266 182.289 25.3243 182.298 25.3848 182.075C25.6262 181.185 26.0387 179.533 25.778 177.247C25.531 175.081 24.733 172.75 23.2841 170.124L18.031 173.023L12.7779 175.923C13.6883 177.572 13.831 178.394 13.8553 178.607C13.8658 178.699 13.8802 178.65 13.8032 178.934C13.7841 179.004 13.7072 179.28 13.6486 179.528C13.5865 179.791 13.4802 180.28 13.4434 180.876C13.3515 182.363 13.7246 184.21 15.1339 185.789C16.2048 186.99 17.487 187.564 18.1168 187.825C18.858 188.132 19.6886 188.386 20.4929 188.612L22.114 182.835ZM18.031 173.023L23.2834 170.123C21.4661 166.832 22.0709 165.484 22.2239 165.226C22.4653 164.819 23.7258 163.41 28.2264 163.044L27.74 157.063L27.2536 151.083C20.9537 151.596 14.9976 153.888 11.9037 159.103C8.72124 164.467 9.87175 170.66 12.7786 175.924L18.031 173.023ZM97.7166 44.3066L103.255 46.6133C109.486 31.6517 123.809 25.9061 135.176 30.642L137.483 25.1035L139.791 19.565C121.247 11.8385 100.492 22.0356 92.1777 42L97.7166 44.3066ZM137.483 25.1035L135.175 30.642C137.928 31.7888 140.309 33.4399 142.28 35.4741L146.59 31.2998L150.899 27.1255C147.81 23.9362 144.072 21.3487 139.791 19.5651L137.483 25.1035ZM146.59 31.2998L149.172 36.7157C149.331 36.64 149.785 36.4831 150.556 36.4072C151.295 36.3343 152.126 36.3565 152.922 36.4818C153.734 36.6094 154.342 36.8172 154.711 37.0039C155.108 37.205 154.947 37.2326 154.709 36.843L159.833 33.7207L164.956 30.5984C162.52 26.6 157.917 25.12 154.788 24.6276C151.424 24.0985 147.32 24.3045 144.007 25.8839L146.59 31.2998ZM159.833 33.7207L154.704 36.8349C154.457 36.4279 154.575 36.3074 154.561 36.8205C154.547 37.2922 154.424 37.993 154.125 38.8201C153.83 39.6349 153.428 40.3985 153.005 40.9948C152.552 41.632 152.25 41.8365 152.265 41.8275L155.387 46.9512L158.51 52.0748C161.911 50.0023 164.225 46.1778 165.41 42.9004C166.527 39.8111 167.499 34.7853 164.961 30.6066L159.833 33.7207ZM155.387 46.9512H161.387V46.9434H155.387H149.387V46.9512H155.387ZM155.387 46.9434L152.261 41.8226C152.154 41.8879 152.043 41.9467 151.929 41.9989L154.431 47.4521L156.934 52.9054C157.466 52.661 157.995 52.3813 158.514 52.0641L155.387 46.9434ZM154.431 47.4521L148.501 48.3662C149.127 52.4274 148.848 56.8884 147.451 61.4518L153.188 63.208L158.925 64.9642C160.834 58.7295 161.272 52.4439 160.361 46.5381L154.431 47.4521ZM153.188 63.208L154.259 69.1117C163.069 67.5142 172.163 64.6511 179.324 61.9708L177.22 56.3516L175.117 50.7323C168.362 53.2608 159.992 55.8765 152.118 57.3043L153.188 63.208ZM177.22 56.3516L179.324 61.9708C180.315 61.5997 180.088 61.9427 179.24 61.6644C178.099 61.29 177.581 60.4007 177.469 60.0918C177.425 59.9686 177.563 60.316 177.462 61.3812C177.367 62.3716 177.096 63.6591 176.603 65.1691C175.613 68.198 173.893 71.6263 171.717 74.6094C169.499 77.6496 167.124 79.7954 165.015 80.8202L167.637 86.2168L170.26 91.6134C174.774 89.4199 178.545 85.6108 181.411 81.682C184.319 77.6962 186.622 73.1415 188.009 68.896C188.704 66.7688 189.21 64.5963 189.408 62.5191C189.598 60.5168 189.544 58.189 188.75 55.9986C187.887 53.6224 186.062 51.2737 182.982 50.2629C180.196 49.3483 177.399 49.8782 175.117 50.7323L177.22 56.3516ZM167.637 86.2168L164.065 81.3963C162.309 82.6976 158.885 84.0919 154.833 84.2497L155.066 90.2451L155.3 96.2406C161.511 95.9987 167.322 93.9191 171.21 91.0372L167.637 86.2168ZM155.066 90.2451L149.085 90.7175C149.457 95.4284 148.77 100.159 146.9 104.648L152.439 106.955L157.978 109.262C160.613 102.936 161.562 96.2927 161.048 89.7727L155.066 90.2451ZM152.439 106.955L146.9 104.649C141.125 118.517 125.762 125.101 108.105 121.433L106.885 127.308L105.664 133.182C127.22 137.66 149.374 129.925 157.978 109.262L152.439 106.955ZM106.885 127.308L100.927 126.597L100.252 132.256L106.21 132.967L112.168 133.677L112.842 128.018L106.885 127.308ZM106.21 132.967L102.03 137.271L106.67 141.778L110.85 137.474L115.03 133.169L110.39 128.663L106.21 132.967ZM110.85 137.474L106.67 141.778C105.007 140.163 104.97 137.507 106.583 135.846L110.887 140.026L115.192 144.207C118.194 141.115 118.123 136.173 115.031 133.17L110.85 137.474ZM110.887 140.026L106.584 135.845C108.099 134.286 110.526 134.157 112.198 135.48L108.475 140.186L104.752 144.891C107.859 147.349 112.374 147.107 115.191 144.208L110.887 140.026ZM108.475 140.186L112.406 135.652L112.266 135.531L108.336 140.064L104.405 144.598L104.545 144.719L108.475 140.186ZM108.336 140.064L112.516 135.761L109.754 133.077L105.573 137.381L101.392 141.685L104.155 144.368L108.336 140.064ZM105.573 137.381L99.6394 136.491L99.3884 138.163L105.322 139.054L111.256 139.944L111.507 138.271L105.573 137.381ZM105.322 139.054L99.3893 138.158C99.7357 135.863 101.876 134.291 104.161 134.635L103.268 140.568L102.375 146.502C106.632 147.142 110.611 144.215 111.255 139.949L105.322 139.054ZM103.268 140.568L104.163 134.635C106.447 134.98 108.03 137.111 107.685 139.408L101.752 138.516L95.8184 137.623C95.1766 141.891 98.1187 145.859 102.373 146.501L103.268 140.568ZM101.752 138.516L107.685 139.41L108.087 136.74L102.154 135.846L96.221 134.952L95.8187 137.622L101.752 138.516ZM102.154 135.846L101.124 129.935L98.9552 130.313L99.9851 136.224L101.015 142.135L103.184 141.757L102.154 135.846ZM99.9851 136.224L98.96 130.312C101.243 129.916 103.413 131.446 103.81 133.726L97.8982 134.754L91.9869 135.782C92.7247 140.026 96.7632 142.872 101.01 142.135L99.9851 136.224ZM97.8982 134.754L103.81 133.729C104.206 136.013 102.676 138.182 100.396 138.578L99.3679 132.667L98.3399 126.756C94.0965 127.494 91.2498 131.532 91.9864 135.779L97.8982 134.754ZM99.3679 132.667L100.397 138.578L103.707 138.002L102.678 132.091L101.65 126.18L98.3391 126.756L99.3679 132.667ZM102.678 132.091L108.636 132.802L109.309 127.164L103.351 126.453L97.3936 125.742L96.7207 131.38L102.678 132.091ZM103.351 126.453L104.946 120.669C102.836 120.087 100.717 119.36 98.6089 118.483L96.3035 124.022L93.998 129.562C96.5695 130.632 99.1626 131.522 101.756 132.237L103.351 126.453ZM96.3035 124.022L98.6096 118.483C97.5883 118.058 96.5877 117.604 95.6084 117.125L92.9714 122.515L90.3345 127.904C91.5254 128.487 92.7465 129.041 93.9973 129.562L96.3035 124.022ZM92.9714 122.515L87.4614 124.889C88.8811 128.183 89.6086 132.187 89.5442 135.887C89.4769 139.75 88.5742 142.355 87.698 143.507L92.4734 147.14L97.2488 150.772C100.32 146.734 101.454 141.174 101.542 136.096C101.634 130.853 100.636 125.14 98.4815 120.14L92.9714 122.515ZM92.4734 147.14L87.6981 143.507C87.188 144.178 87.1182 143.976 87.4737 143.899C87.528 143.887 87.2927 143.957 85.9551 143.685C83.7753 143.24 78.477 141.604 72.7187 144.367L75.3142 149.776L77.9097 155.186C79.3098 154.514 80.1631 154.751 83.5594 155.443C85.0098 155.739 87.4186 156.192 90.027 155.624C92.9366 154.991 95.3309 153.293 97.2487 150.772L92.4734 147.14ZM75.3142 149.776L72.7186 144.367C68.75 146.271 67.062 149.832 66.181 152.333C65.7293 153.615 65.3792 154.952 65.0926 156.046C64.7847 157.221 64.5328 158.186 64.2291 159.104C63.6221 160.939 63.0265 161.86 62.3741 162.407C61.8196 162.871 60.5518 163.626 57.3952 163.626L57.3953 169.626L57.3953 175.626C62.5787 175.626 66.826 174.329 70.0766 171.608C73.2292 168.969 74.7286 165.573 75.6216 162.874C76.0678 161.525 76.4171 160.17 76.701 159.087C77.0062 157.922 77.2385 157.06 77.4991 156.321C78.0427 154.778 78.2992 154.999 77.9098 155.186L75.3142 149.776ZM57.3953 169.626V163.626C54.3051 163.626 54.885 163.001 55.8011 163.972C56.59 164.809 56.4347 165.827 56.2342 163.595C56.0909 161.999 55.8683 159.036 54.2223 155.926C52.5268 152.723 49.6731 149.946 45.3365 147.595L42.4773 152.87L39.618 158.145C42.3754 159.64 43.2672 160.88 43.6164 161.54C44.0149 162.292 44.1359 163.038 44.2824 164.669C44.3718 165.664 44.4526 169.43 47.0715 172.206C49.8175 175.118 53.8208 175.626 57.3953 175.626V169.626ZM42.4773 152.87L45.3362 147.595C42.2338 145.914 40.5884 144.28 39.673 142.916C38.7776 141.582 38.355 140.171 38.2227 138.54C38.0823 136.81 38.2714 134.918 38.6137 132.62C38.9191 130.569 39.4361 127.742 39.5432 125.212L33.5486 124.958L27.554 124.704C27.4824 126.395 27.1472 128.149 26.7447 130.851C26.3791 133.305 26.0044 136.336 26.262 139.511C26.5276 142.784 27.4648 146.259 29.7085 149.603C31.9322 152.917 35.2053 155.753 39.6184 158.145L42.4773 152.87ZM33.5486 124.958L39.5432 125.212C39.7312 120.767 39.9007 116.913 41.2088 113.522C42.3596 110.538 44.4709 107.751 49.3172 105.829L47.1052 100.252L44.8932 94.6746C36.8058 97.8821 32.3174 103.227 30.0126 109.204C27.8651 114.772 27.7231 120.706 27.5539 124.704L33.5486 124.958ZM47.1052 100.252L49.3143 105.83C51.2245 105.074 54.0456 104.9 57.7813 105.636C61.4478 106.359 65.4936 107.861 69.4651 109.832L72.1326 104.458L74.8 99.0835C70.1833 96.7922 65.1061 94.8489 60.1014 93.8627C55.1659 92.8901 49.7674 92.7444 44.8961 94.6734L47.1052 100.252ZM72.1326 104.458L77.1982 101.242C71.9289 92.9415 70.6496 83.4925 74.4088 74.4647L68.8699 72.1582L63.3309 69.8517C57.8848 82.9304 59.9651 96.4856 67.067 107.674L72.1326 104.458ZM68.8699 72.1582V66.1582H68.8621V72.1582V78.1582H68.8699V72.1582ZM68.8621 72.1582L74.4014 74.4638C75.4518 71.9401 76.8143 69.6354 78.4382 67.5633L73.7156 63.8623L68.993 60.1613C66.7103 63.0742 64.7949 66.3157 63.3227 69.8526L68.8621 72.1582ZM73.7156 63.8623L78.2945 59.985C77.908 59.5285 77.6091 59.1149 77.3882 58.7594L72.2917 61.9258L67.1953 65.0921C67.7644 66.0082 68.4211 66.8945 69.1366 67.7396L73.7156 63.8623ZM72.2917 61.9258L77.3878 58.7588C76.2974 57.0041 75.158 53.9233 74.3052 50.0583C73.4732 46.2874 73.0214 42.2625 73.0341 38.9029C73.0404 37.2224 73.1628 35.8369 73.3594 34.8003C73.5752 33.6624 73.7976 33.3919 73.6822 33.5563C73.4189 33.9313 72.3853 34.9351 70.7357 34.8497C69.6254 34.7923 69.4477 34.2627 70.3508 35.0796L74.3757 30.6299L78.4006 26.1801C76.7119 24.6526 74.3241 23.0194 71.3558 22.8658C67.8483 22.6843 65.3087 24.5995 63.8615 26.6603C62.5623 28.5106 61.9231 30.7005 61.5696 32.5643C61.1969 34.5294 61.0423 36.687 61.0341 38.8577C61.0178 43.2007 61.587 48.1112 62.5871 52.6438C63.5664 57.0823 65.0704 61.673 67.1957 65.0928L72.2917 61.9258ZM74.3757 30.6299L70.3493 35.0782C76.123 40.3044 84.3817 48.9836 92.368 54.7214L95.8689 49.8486L99.3698 44.9759C92.0796 39.7382 85.2997 32.425 78.4022 26.1816L74.3757 30.6299ZM95.8689 49.8486L101.683 51.329C102.085 49.7505 102.607 48.1719 103.256 46.6112L97.7166 44.3066L92.1768 42.0021C91.3011 44.1071 90.597 46.2371 90.0544 48.3683L95.8689 49.8486Z" fill="white" mask="url(#path-1-outside-1_1347_1915)"/>
<path d="M18.0306 173.023C13.3065 164.468 16.9392 157.941 27.7396 157.063C38.4803 156.19 28.7985 164.607 34.31 168.541C40.5058 172.965 28.1143 184.512 22.1141 182.835C16.1192 181.153 22.7494 181.573 18.0306 173.023Z" fill="#CBCBCB"/>
<path d="M92.4732 147.14C97.3291 140.756 96.402 125.368 89.9198 117.35C83.4377 109.333 60.0395 95.1302 47.1056 100.252C34.1716 105.382 33.9057 116.514 33.5485 124.957C33.1913 133.4 27.4463 144.723 42.4776 152.869C56.6654 160.56 44.0659 169.626 57.395 169.626C74.0754 169.626 68.1555 153.211 75.314 149.776C82.4725 146.342 87.6172 153.523 92.4732 147.14Z" fill="#CBCBCB"/>
<path d="M105.75 121.588C106.739 121.706 107.446 122.604 107.328 123.594L106.21 132.967L110.851 137.474C111.566 138.168 111.583 139.311 110.888 140.026C110.237 140.697 109.192 140.753 108.475 140.186L108.336 140.063L105.573 137.38L105.322 139.053C105.173 140.038 104.254 140.717 103.268 140.568C102.283 140.42 101.604 139.5 101.753 138.515L102.154 135.846L99.985 136.224C99.0033 136.394 98.0697 135.736 97.899 134.754C97.7284 133.772 98.3858 132.837 99.3678 132.666L102.678 132.091L103.744 123.167C103.862 122.177 104.76 121.47 105.75 121.588Z" fill="#474747"/>
<path d="M77.3265 107.613C78.0606 106.938 79.202 106.987 79.8763 107.721C80.5506 108.455 80.5028 109.597 79.7689 110.271L71.8636 117.531L74.2338 122.626L74.3031 122.798C74.603 123.662 74.206 124.631 73.3588 125.025C72.4549 125.445 71.3806 125.053 70.9603 124.149L69.2845 120.545L67.8851 122.357C67.2754 123.145 66.1414 123.29 65.3529 122.68C64.5647 122.07 64.4202 120.937 65.0297 120.149L66.85 117.794L62.6312 115.874L62.4672 115.789C61.6774 115.327 61.3505 114.333 61.7377 113.483C62.125 112.633 63.0891 112.227 63.9554 112.52L64.1273 112.588L69.3295 114.958L77.3265 107.613Z" fill="#474747"/>
<path d="M107.598 55.6746C96.2718 53.1826 83.9681 39.3122 74.3756 30.6294C64.008 21.2517 65.8602 51.5762 72.2918 61.9253C76.8042 69.1887 91.9786 78.4264 106.926 66.9242" fill="#276288"/>
<path d="M136.146 63.9886C147.598 65.8428 165.099 60.8881 177.22 56.3513C190.314 51.4498 180.883 79.7798 167.637 86.2164C160.768 91.3079 143.259 94.3096 133.593 78.108" fill="#276288"/>
<path d="M68.8698 72.1578C60.389 92.5238 73.2318 114.417 96.3031 124.023C119.382 133.628 143.958 127.321 152.439 106.955C157.196 95.5331 155.562 82.8651 149.133 72.2566C150.159 70.5619 151.086 68.7609 151.877 66.8535C159.141 49.398 152.439 31.3345 137.484 25.1031C122.528 18.8717 104.989 26.8434 97.7166 44.3065C96.9263 46.2063 96.2955 48.1289 95.8168 50.0515C83.7567 52.9696 73.6193 60.7285 68.8622 72.1578H68.8698Z" fill="#4B9AE8"/>
<path d="M125.788 43.3035C129.356 43.3035 132.248 40.4116 132.248 36.8441C132.248 33.2767 129.356 30.3848 125.788 30.3848C122.221 30.3848 119.329 33.2767 119.329 36.8441C119.329 40.4116 122.221 43.3035 125.788 43.3035Z" fill="white"/>
<path d="M125.788 40.2637C127.677 40.2637 129.208 38.7326 129.208 36.844C129.208 34.9554 127.677 33.4243 125.788 33.4243C123.9 33.4243 122.369 34.9554 122.369 36.844C122.369 38.7326 123.9 40.2637 125.788 40.2637Z" fill="black"/>
<path d="M155.387 46.9508C158.967 44.7698 162.006 37.2998 159.833 33.7205C157.652 30.1413 149.619 29.4117 146.04 31.5927C142.461 33.7737 140.987 37.8773 144.239 43.212C147.522 48.6075 151.816 49.1242 155.387 46.9432V46.9508Z" fill="#EAC00F"/>
</svg>
