<svg width="200" height="200" viewBox="0 0 200 200" fill="none" xmlns="http://www.w3.org/2000/svg">
<mask id="path-1-outside-1_1347_9070" maskUnits="userSpaceOnUse" x="34.3252" y="11.3105" width="132" height="175" fill="black">
<rect fill="white" x="34.3252" y="11.3105" width="132" height="175"/>
<path d="M127.772 18.4717C131.682 17.5913 135.449 20.4271 135.678 24.4326L135.741 25.6602C136.03 32.0502 135.835 42.0997 133.031 52.3379C132.852 52.9939 132.661 53.651 132.459 54.3086H153.032V80.8945C156.872 83.1223 159.455 87.2774 159.455 92.0361C159.455 96.7949 156.872 100.95 153.032 103.178V179.914H46.8018V103.21C42.932 100.99 40.3252 96.8174 40.3252 92.0361C40.3253 87.2549 42.9319 83.0823 46.8018 80.8623V54.3086H70.0508C69.8489 53.651 69.6581 52.9939 69.4785 52.3379C66.4895 41.4175 66.4654 30.7118 66.8281 24.4336C67.0561 20.4327 70.8264 17.6017 74.7314 18.4707H74.7334L87.4033 21.3027L88.2588 21.4873C97.1125 23.3372 106.269 23.2759 115.103 21.3027L127.772 18.4707V18.4717Z"/>
</mask>
<path d="M127.772 18.4717C131.682 17.5913 135.449 20.4271 135.678 24.4326L135.741 25.6602C136.03 32.0502 135.835 42.0997 133.031 52.3379C132.852 52.9939 132.661 53.651 132.459 54.3086H153.032V80.8945C156.872 83.1223 159.455 87.2774 159.455 92.0361C159.455 96.7949 156.872 100.95 153.032 103.178V179.914H46.8018V103.21C42.932 100.99 40.3252 96.8174 40.3252 92.0361C40.3253 87.2549 42.9319 83.0823 46.8018 80.8623V54.3086H70.0508C69.8489 53.651 69.6581 52.9939 69.4785 52.3379C66.4895 41.4175 66.4654 30.7118 66.8281 24.4336C67.0561 20.4327 70.8264 17.6017 74.7314 18.4707H74.7334L87.4033 21.3027L88.2588 21.4873C97.1125 23.3372 106.269 23.2759 115.103 21.3027L127.772 18.4707V18.4717Z" fill="white"/>
<path d="M127.772 18.4717H121.772C121.772 20.2946 122.601 22.0186 124.025 23.1572C125.448 24.2958 127.312 24.7256 129.09 24.3251L127.772 18.4717ZM135.678 24.4326L141.67 24.1228C141.669 24.1122 141.669 24.1017 141.668 24.0911L135.678 24.4326ZM135.741 25.6602L141.735 25.389C141.734 25.3761 141.734 25.3632 141.733 25.3503L135.741 25.6602ZM133.031 52.3379L138.818 53.9225L138.818 53.9225L133.031 52.3379ZM132.459 54.3086L126.723 52.5474C126.165 54.367 126.502 56.3438 127.634 57.8746C128.765 59.4054 130.556 60.3086 132.459 60.3086V54.3086ZM153.032 54.3086H159.032C159.032 50.9949 156.346 48.3086 153.032 48.3086V54.3086ZM153.032 80.8945H147.032C147.032 83.0336 148.171 85.0108 150.021 86.0843L153.032 80.8945ZM159.455 92.0361H165.455V92.036L159.455 92.0361ZM153.032 103.178L150.021 97.988C148.171 99.0615 147.032 101.039 147.032 103.178H153.032ZM153.032 179.914V185.914C156.346 185.914 159.032 183.228 159.032 179.914H153.032ZM46.8018 179.914H40.8018C40.8018 183.228 43.488 185.914 46.8018 185.914V179.914ZM46.8018 103.21H52.8018C52.8018 101.06 51.6519 99.0752 49.7874 98.0056L46.8018 103.21ZM40.3252 92.0361L34.3252 92.036V92.0361H40.3252ZM46.8018 80.8623L49.7873 86.0667C51.6519 84.9971 52.8018 83.0118 52.8018 80.8623H46.8018ZM46.8018 54.3086V48.3086C43.488 48.3086 40.8018 50.9949 40.8018 54.3086H46.8018ZM70.0508 54.3086V60.3086C71.9541 60.3086 73.7446 59.4055 74.8759 57.8748C76.0072 56.3442 76.3452 54.3675 75.7866 52.548L70.0508 54.3086ZM69.4785 52.3379L63.6914 53.9219L63.6914 53.922L69.4785 52.3379ZM66.8281 24.4336L72.8181 24.7797L72.8184 24.7749L66.8281 24.4336ZM74.7314 18.4707L73.4281 24.3274C73.856 24.4227 74.2931 24.4707 74.7314 24.4707V18.4707ZM74.7334 18.4707L76.0422 12.6152C75.6126 12.5192 75.1737 12.4707 74.7334 12.4707V18.4707ZM87.4033 21.3027L86.0945 27.1582C86.1089 27.1615 86.1234 27.1647 86.1379 27.1678L87.4033 21.3027ZM88.2588 21.4873L86.9934 27.3524C87.0061 27.3551 87.0189 27.3578 87.0317 27.3605L88.2588 21.4873ZM115.103 21.3027L116.41 27.1584L116.411 27.1582L115.103 21.3027ZM127.772 18.4707H133.772C133.772 16.6495 132.945 14.9268 131.524 13.7881C130.103 12.6494 128.241 12.2179 126.464 12.6152L127.772 18.4707ZM127.772 18.4717L129.09 24.3251C129.389 24.2579 129.67 24.4732 129.687 24.7741L135.678 24.4326L141.668 24.0911C141.229 16.381 133.975 10.9247 126.454 12.6182L127.772 18.4717ZM135.678 24.4326L129.686 24.7425L129.749 25.97L135.741 25.6602L141.733 25.3503L141.67 24.1228L135.678 24.4326ZM135.741 25.6602L129.747 25.9313C130.021 31.9817 129.821 41.3442 127.244 50.7533L133.031 52.3379L138.818 53.9225C141.849 42.8553 142.04 32.1187 141.735 25.389L135.741 25.6602ZM133.031 52.3379L127.244 50.7533C127.081 51.3503 126.907 51.9486 126.723 52.5474L132.459 54.3086L138.195 56.0698C138.415 55.3535 138.622 54.6374 138.818 53.9225L133.031 52.3379ZM132.459 54.3086V60.3086H153.032V54.3086V48.3086H132.459V54.3086ZM153.032 54.3086H147.032V80.8945H153.032H159.032V54.3086H153.032ZM153.032 80.8945L150.021 86.0843C152.088 87.2833 153.455 89.504 153.455 92.0362L159.455 92.0361L165.455 92.036C165.455 85.0507 161.656 78.9613 156.043 75.7048L153.032 80.8945ZM159.455 92.0361H153.455C153.455 94.5681 152.088 96.7889 150.021 97.988L153.032 103.178L156.043 108.367C161.656 105.111 165.455 99.0217 165.455 92.0361H159.455ZM153.032 103.178H147.032V179.914H153.032H159.032V103.178H153.032ZM153.032 179.914V173.914H46.8018V179.914V185.914H153.032V179.914ZM46.8018 179.914H52.8018V103.21H46.8018H40.8018V179.914H46.8018ZM46.8018 103.21L49.7874 98.0056C47.7057 96.8113 46.3252 94.5812 46.3252 92.0361H40.3252H34.3252C34.3252 99.0537 38.1583 105.169 43.8161 108.414L46.8018 103.21ZM40.3252 92.0361L46.3252 92.0362C46.3252 89.491 47.7058 87.2609 49.7873 86.0667L46.8018 80.8623L43.8162 75.6579C38.1581 78.9037 34.3253 85.0188 34.3252 92.036L40.3252 92.0361ZM46.8018 80.8623H52.8018V54.3086H46.8018H40.8018V80.8623H46.8018ZM46.8018 54.3086V60.3086H70.0508V54.3086V48.3086H46.8018V54.3086ZM70.0508 54.3086L75.7866 52.548C75.6025 51.948 75.4287 51.3497 75.2656 50.7538L69.4785 52.3379L63.6914 53.922C63.8874 54.638 64.0954 55.354 64.3149 56.0692L70.0508 54.3086ZM69.4785 52.3379L75.2656 50.7539C72.5164 40.7095 72.4746 30.7268 72.8181 24.7797L66.8281 24.4336L60.8381 24.0875C60.4563 30.6967 60.4626 42.1256 63.6914 53.9219L69.4785 52.3379ZM66.8281 24.4336L72.8184 24.7749C72.8346 24.4907 73.1127 24.2572 73.4281 24.3274L74.7314 18.4707L76.0348 12.614C68.54 10.9461 61.2776 16.3747 60.8378 24.0922L66.8281 24.4336ZM74.7314 18.4707V24.4707H74.7334V18.4707V12.4707H74.7314V18.4707ZM74.7334 18.4707L73.4246 24.3262L86.0945 27.1582L87.4033 21.3027L88.7122 15.4472L76.0422 12.6152L74.7334 18.4707ZM87.4033 21.3027L86.1379 27.1678L86.9934 27.3524L88.2588 21.4873L89.5242 15.6223L88.6687 15.4377L87.4033 21.3027ZM88.2588 21.4873L87.0317 27.3605C96.7216 29.385 106.742 29.318 116.41 27.1584L115.103 21.3027L113.795 15.447C105.796 17.2337 97.5035 17.2893 89.4859 15.6141L88.2588 21.4873ZM115.103 21.3027L116.411 27.1582L129.081 24.3262L127.772 18.4707L126.464 12.6152L113.794 15.4472L115.103 21.3027ZM127.772 18.4707H121.772V18.4717H127.772H133.772V18.4707H127.772Z" fill="white" mask="url(#path-1-outside-1_1347_9070)"/>
<path d="M153.032 54.3091H46.8018V179.915H153.032V54.3091Z" fill="#7F4141"/>
<path d="M54.0632 69.2729H46.8018V156.436H54.0632V69.2729Z" fill="#DADBDB"/>
<path d="M78.8024 69.2729H71.541V156.436H78.8024V69.2729Z" fill="#DADBDB"/>
<path d="M103.543 69.2729H96.2812V156.436H103.543V69.2729Z" fill="#DADBDB"/>
<path d="M128.291 69.2729H121.029V156.436H128.291V69.2729Z" fill="#DADBDB"/>
<path d="M153.031 69.2729H145.77V156.436H153.031V69.2729Z" fill="#DADBDB"/>
<path d="M153.032 54.3091H46.8018V72.7229H153.032V54.3091Z" fill="#DADBDB"/>
<path d="M146.582 79.1636H53.1981C46.0886 79.1636 40.3252 84.927 40.3252 92.0365C40.3252 99.146 46.0886 104.909 53.1981 104.909H146.582C153.691 104.909 159.455 99.146 159.455 92.0365C159.455 84.927 153.691 79.1636 146.582 79.1636Z" fill="#E7E7E7"/>
<path d="M58.0332 89.2329C58.6469 89.2329 59.1381 89.2796 59.4941 89.3813L59.4932 89.3823C59.8452 89.4803 60.1534 89.6432 60.4131 89.8745C60.6766 90.1061 60.8762 90.3899 61.0107 90.7222C61.1449 91.0537 61.2099 91.422 61.21 91.8228C61.2099 92.6748 60.9448 93.3545 60.3877 93.8228V93.8237C59.8366 94.2829 59.039 94.4936 58.0332 94.4937H56.7891V96.5083C56.789 96.8593 56.706 97.164 56.5049 97.3843C56.3111 97.5964 56.061 97.7035 55.7715 97.7036C55.4759 97.7036 55.2198 97.6015 55.0264 97.3892L55.0244 97.3872C54.8286 97.1674 54.7481 96.8659 54.748 96.519V90.4341C54.748 90.0564 54.8338 89.7297 55.0605 89.5181C55.2813 89.3122 55.6054 89.2329 55.9814 89.2329H58.0332ZM65.7979 89.0981C66.6457 89.0982 67.3862 89.2715 68.0107 89.6274L68.2393 89.7671C68.7555 90.1087 69.1547 90.5668 69.4355 91.1382H69.4365C69.756 91.7847 69.9121 92.5376 69.9121 93.3901C69.9121 94.0203 69.826 94.5989 69.6523 95.1235C69.4783 95.6494 69.2162 96.1093 68.8643 96.4995C68.5104 96.8919 68.0759 97.1912 67.5654 97.397C67.0536 97.6032 66.4738 97.7036 65.8301 97.7036C65.1891 97.7036 64.6075 97.6008 64.0889 97.3911L64.0869 97.3901C63.5709 97.1776 63.1356 96.8777 62.7852 96.4888C62.4361 96.1013 62.1735 95.6379 61.9961 95.1021V95.1001C61.8232 94.5663 61.7373 93.9923 61.7373 93.3794C61.7373 92.7518 61.8268 92.171 62.0078 91.6392V91.6372C62.1927 91.1052 62.4613 90.6471 62.8145 90.2671C63.124 89.934 63.492 89.6713 63.916 89.478L64.1016 89.3989C64.6055 89.1969 65.1722 89.0981 65.7979 89.0981ZM78.583 89.0981C78.8766 89.0982 79.1303 89.1993 79.3232 89.4087C79.5288 89.6241 79.6113 89.9328 79.6113 90.2886V96.5083C79.6113 96.8635 79.5286 97.1701 79.3262 97.3882L79.3271 97.3892C79.1338 97.6013 78.8784 97.7035 78.583 97.7036C78.2949 97.7036 78.0449 97.5993 77.8506 97.3911L77.8467 97.3872C77.6502 97.1666 77.5703 96.8608 77.5703 96.5083V90.2886C77.5703 89.9363 77.6502 89.6305 77.8486 89.4126C78.0407 89.2018 78.2923 89.0981 78.583 89.0981ZM84.6357 89.0981C85.3044 89.0982 85.9084 89.2317 86.4424 89.5044C86.9661 89.7719 87.3787 90.1096 87.6689 90.521C87.9514 90.918 88.1083 91.3156 88.1084 91.7095C88.1084 91.9504 88.0216 92.1653 87.8564 92.3442C87.6874 92.5274 87.473 92.6255 87.2256 92.6255C86.9895 92.6255 86.7721 92.5692 86.6123 92.4204L86.6094 92.4175C86.5147 92.3261 86.4198 92.1955 86.3242 92.0337L86.2285 91.8618C86.0323 91.4931 85.8074 91.2317 85.5605 91.063L85.5596 91.062C85.3238 90.8988 85.0239 90.8101 84.6465 90.8101C84.055 90.8101 83.5947 91.0295 83.2471 91.4722L83.248 91.4731C82.9014 91.9193 82.7129 92.5738 82.7129 93.4653C82.7129 94.0603 82.7967 94.5406 82.9541 94.9146H82.9531C83.1112 95.2864 83.3297 95.5511 83.6016 95.7241C83.8775 95.8997 84.2047 95.9916 84.5918 95.9917C85.0139 95.9917 85.3549 95.8876 85.627 95.6929C85.9038 95.4936 86.1202 95.1976 86.2695 94.7896C86.3243 94.6239 86.391 94.4756 86.4707 94.3472L86.5557 94.2241C86.711 94.0203 86.9492 93.9399 87.2148 93.9399C87.4626 93.9399 87.6808 94.0288 87.8584 94.2017C88.0392 94.3777 88.1299 94.6005 88.1299 94.855C88.1299 95.1423 88.0575 95.4436 87.9238 95.7573L87.9248 95.7583C87.7906 96.0781 87.5803 96.3876 87.3008 96.686L87.2998 96.687C87.0103 96.9922 86.6441 97.2356 86.208 97.4214C85.7625 97.6112 85.2511 97.7036 84.6787 97.7036C84.2486 97.7036 83.8523 97.663 83.4922 97.5796C83.1309 97.4959 82.7989 97.3654 82.498 97.188L82.4951 97.186C82.197 97.004 81.9244 96.7674 81.6777 96.479L81.6768 96.478C81.4562 96.2156 81.2691 95.923 81.1143 95.6021L81.1133 95.6011C80.9586 95.2765 80.8425 94.9318 80.7637 94.5679L80.7627 94.5659C80.6876 94.2016 80.6504 93.8164 80.6504 93.4116C80.6504 92.7553 80.7452 92.1602 80.9385 91.6294V91.6274C81.1349 91.0987 81.4167 90.6432 81.7842 90.2642C82.1504 89.8828 82.5805 89.5923 83.0723 89.394C83.5628 89.1964 84.0849 89.0981 84.6357 89.0981ZM102.305 89.0981C102.806 89.0982 103.249 89.161 103.629 89.2925L103.901 89.396C104.163 89.5079 104.393 89.6465 104.587 89.814H104.586C104.836 90.026 105.028 90.2565 105.152 90.5083C105.272 90.7523 105.336 90.9993 105.336 91.2466C105.336 91.4642 105.266 91.6623 105.136 91.8364L105.076 91.9097C104.901 92.1079 104.674 92.2104 104.41 92.2104C104.193 92.2104 103.991 92.1571 103.84 92.0171L103.834 92.0112C103.718 91.895 103.603 91.722 103.488 91.5073L103.484 91.4985C103.351 91.2219 103.197 91.0185 103.026 90.8784L103.024 90.8774C102.883 90.7585 102.623 90.6753 102.197 90.6753C101.816 90.6753 101.531 90.76 101.324 90.9087L101.323 90.9097C101.116 91.0576 101.039 91.2133 101.039 91.3813C101.039 91.4966 101.069 91.5858 101.124 91.6587C101.188 91.7438 101.281 91.8228 101.409 91.8931C101.547 91.9687 101.685 92.0279 101.824 92.0698C101.973 92.1149 102.224 92.1813 102.579 92.271H102.578C103.028 92.3764 103.438 92.4931 103.805 92.6216H103.804C104.181 92.7522 104.507 92.9133 104.778 93.1069H104.779C105.062 93.3063 105.283 93.5614 105.439 93.8687C105.604 94.1811 105.681 94.5549 105.681 94.979C105.681 95.4963 105.545 95.9664 105.273 96.3843C105.003 96.8057 104.609 97.1306 104.103 97.3608C103.594 97.5919 103 97.7036 102.326 97.7036C101.521 97.7036 100.836 97.5513 100.287 97.2319L100.286 97.231C99.8974 97.0016 99.5797 96.6956 99.335 96.3149L99.333 96.313C99.0941 95.9314 98.9658 95.5463 98.9658 95.1616C98.9659 94.9115 99.0538 94.6906 99.2275 94.5122C99.4083 94.3267 99.6391 94.2359 99.9023 94.2358C100.123 94.2358 100.321 94.3076 100.479 94.4565H100.479C100.629 94.5942 100.744 94.786 100.834 95.0151C100.93 95.2544 101.03 95.4485 101.133 95.6001C101.228 95.7358 101.365 95.8541 101.551 95.9517H101.55C101.72 96.0376 101.96 96.0884 102.283 96.0884C102.723 96.0883 103.057 95.9866 103.304 95.8032L103.391 95.7319C103.579 95.5622 103.662 95.3707 103.662 95.1509C103.662 94.9381 103.598 94.7854 103.484 94.6714L103.48 94.6685C103.351 94.5332 103.177 94.424 102.95 94.3472H102.949C102.708 94.2646 102.379 94.1747 101.959 94.0786H101.958C101.381 93.9436 100.891 93.7849 100.489 93.6011L100.337 93.5249C99.9952 93.3402 99.713 93.1004 99.4941 92.8052L99.4922 92.8032C99.2375 92.45 99.1172 92.0197 99.1172 91.5269C99.1172 91.0497 99.2483 90.6193 99.5127 90.2427C99.7779 89.8649 100.157 89.5818 100.638 89.3892C101.119 89.1929 101.676 89.0981 102.305 89.0981ZM111.944 89.2329C112.246 89.2329 112.515 89.2987 112.705 89.4722C112.892 89.6396 112.983 89.8612 112.983 90.1157C112.983 90.3703 112.892 90.5918 112.705 90.7593L112.703 90.7622C112.51 90.9295 112.244 90.9936 111.944 90.9937H110.42V96.5083C110.42 96.8662 110.341 97.1764 110.142 97.395L110.14 97.396C109.947 97.6026 109.696 97.7036 109.407 97.7036C109.114 97.7035 108.861 97.6006 108.665 97.3911L108.663 97.3892C108.464 97.1709 108.385 96.8633 108.385 96.5083V90.9937H106.86C106.561 90.9936 106.295 90.9295 106.105 90.7603L106.103 90.7573C105.92 90.5893 105.832 90.3682 105.832 90.1157C105.832 89.8568 105.921 89.6305 106.112 89.4644L106.115 89.4634C106.309 89.2993 106.568 89.2329 106.86 89.2329H111.944ZM116.074 89.0981C116.324 89.0982 116.551 89.1463 116.74 89.2573L116.739 89.2583C116.915 89.3554 117.059 89.4835 117.169 89.644C117.271 89.7895 117.356 89.947 117.423 90.1147C117.489 90.2687 117.571 90.4738 117.668 90.728L119.729 95.8198L119.838 96.0972C119.934 96.3608 119.989 96.5821 119.989 96.7505C119.989 97.0031 119.88 97.2254 119.692 97.4126C119.5 97.6051 119.26 97.7036 118.987 97.7036C118.837 97.7036 118.695 97.6753 118.568 97.6108C118.566 97.6099 118.564 97.6099 118.562 97.6089C118.447 97.5523 118.347 97.4731 118.267 97.3735L118.264 97.3696C118.187 97.2709 118.113 97.1349 118.038 96.9712L118.035 96.9653C117.967 96.8036 117.908 96.6612 117.857 96.5386L117.854 96.5327L117.532 95.6841H114.628L114.305 96.5532C114.158 96.9477 114.022 97.2419 113.897 97.4097L113.896 97.4116C113.735 97.6217 113.487 97.7036 113.209 97.7036C112.948 97.7036 112.716 97.6051 112.523 97.4214C112.332 97.2391 112.224 97.0169 112.224 96.7612C112.224 96.6288 112.246 96.4955 112.288 96.3618C112.327 96.2387 112.388 96.0725 112.471 95.8667L114.49 90.7407L114.694 90.2144L114.695 90.2124C114.782 89.995 114.874 89.8084 114.975 89.6558L114.977 89.6519C115.089 89.4869 115.235 89.3541 115.411 89.2554C115.603 89.1462 115.827 89.0981 116.074 89.0981ZM125.105 89.2329C125.407 89.2329 125.676 89.2987 125.866 89.4722C126.053 89.6396 126.144 89.8612 126.145 90.1157C126.145 90.3703 126.053 90.5918 125.866 90.7593L125.864 90.7622C125.672 90.9295 125.405 90.9936 125.105 90.9937H123.581V96.5083C123.581 96.8662 123.502 97.1764 123.303 97.395L123.301 97.396C123.108 97.6026 122.857 97.7036 122.568 97.7036C122.275 97.7035 122.022 97.6006 121.826 97.3911L121.824 97.3892C121.625 97.1709 121.546 96.8633 121.546 96.5083V90.9937H120.021C119.723 90.9936 119.457 90.9295 119.267 90.7603L119.264 90.7573C119.081 90.5893 118.993 90.3682 118.993 90.1157C118.993 89.8568 119.082 89.6305 119.273 89.4644L119.276 89.4634C119.47 89.2993 119.729 89.2329 120.021 89.2329H125.105ZM127.729 89.0981C128.022 89.0982 128.276 89.1993 128.469 89.4087C128.674 89.6241 128.757 89.9328 128.757 90.2886V96.5083C128.757 96.8635 128.674 97.1701 128.472 97.3882L128.473 97.3892C128.279 97.6013 128.024 97.7035 127.729 97.7036C127.44 97.7036 127.19 97.5993 126.996 97.3911L126.992 97.3872C126.796 97.1666 126.716 96.8608 126.716 96.5083V90.2886C126.716 89.9363 126.796 89.6305 126.994 89.4126C127.186 89.2018 127.438 89.0981 127.729 89.0981ZM133.803 89.0981C134.651 89.0982 135.391 89.2715 136.016 89.6274L136.244 89.7671C136.76 90.1087 137.16 90.5668 137.44 91.1382H137.441C137.761 91.7847 137.917 92.5376 137.917 93.3901C137.917 94.0203 137.831 94.5989 137.657 95.1235C137.483 95.6494 137.221 96.1093 136.869 96.4995C136.515 96.8919 136.081 97.1912 135.57 97.397C135.059 97.6032 134.479 97.7036 133.835 97.7036C133.194 97.7036 132.612 97.6008 132.094 97.3911L132.092 97.3901C131.576 97.1776 131.14 96.8777 130.79 96.4888C130.441 96.1013 130.178 95.6379 130.001 95.1021V95.1001C129.828 94.5663 129.742 93.9923 129.742 93.3794C129.742 92.7518 129.832 92.171 130.013 91.6392V91.6372C130.198 91.1052 130.466 90.6471 130.819 90.2671C131.129 89.934 131.497 89.6713 131.921 89.478L132.106 89.3989C132.61 89.1969 133.177 89.0981 133.803 89.0981ZM144.949 89.0981C145.233 89.0981 145.478 89.1966 145.658 89.4048C145.841 89.6122 145.913 89.9022 145.913 90.2339V96.4438C145.913 96.815 145.837 97.1346 145.647 97.3638C145.451 97.6009 145.164 97.7036 144.831 97.7036C144.667 97.7036 144.513 97.678 144.371 97.6255C144.226 97.5755 144.093 97.496 143.974 97.3892C143.86 97.2881 143.757 97.1715 143.662 97.0415L143.66 97.0396C143.573 96.9167 143.486 96.7919 143.399 96.6655L143.396 96.6606L140.803 92.6831V96.5669C140.803 96.8991 140.726 97.19 140.535 97.3999C140.351 97.6026 140.111 97.7035 139.834 97.7036C139.552 97.7036 139.307 97.6037 139.124 97.397L139.123 97.395C138.94 97.1828 138.864 96.8955 138.864 96.5669V90.4771C138.864 90.2063 138.894 89.9715 138.966 89.7876L138.968 89.7827C139.055 89.5771 139.199 89.4114 139.392 89.2886C139.584 89.1626 139.796 89.0981 140.022 89.0981C140.189 89.0982 140.345 89.1255 140.481 89.189L140.48 89.1899C140.608 89.2477 140.722 89.3254 140.817 89.4253C140.909 89.5175 140.995 89.6312 141.078 89.7632C141.161 89.8887 141.245 90.0198 141.331 90.1558L144.002 94.1968V90.2339C144.002 89.9033 144.071 89.614 144.249 89.4067L144.319 89.3335C144.489 89.1751 144.704 89.0982 144.949 89.0981ZM71.8193 89.0981C72.1129 89.0982 72.3666 89.1993 72.5596 89.4087C72.7652 89.6241 72.8477 89.9328 72.8477 90.2886V95.814H75.8682C76.159 95.814 76.4178 95.8839 76.6084 96.0581L76.6738 96.1235C76.8179 96.2813 76.8916 96.476 76.8916 96.6968C76.8915 96.9491 76.7994 97.1679 76.6133 97.3345L76.6113 97.3374C76.42 97.5035 76.1599 97.5688 75.8682 97.5688H72.0078C71.6348 97.5688 71.3122 97.4874 71.0977 97.2729L71.0957 97.271C70.8864 97.0567 70.8066 96.7369 70.8066 96.3677V90.2886C70.8066 89.9374 70.8845 89.6324 71.0781 89.4146L71.0801 89.4126C71.2728 89.2012 71.5263 89.0981 71.8193 89.0981ZM94.5498 89.2329C94.8295 89.2329 95.0812 89.295 95.2607 89.4604C95.4382 89.6177 95.5244 89.8281 95.5244 90.0679C95.5243 90.3096 95.4396 90.5222 95.2637 90.6831C95.0838 90.8469 94.8308 90.9077 94.5498 90.9077H91.168V92.4048H94.2646C94.5371 92.4048 94.7833 92.4665 94.959 92.6313H94.958C95.1297 92.7851 95.2119 92.9896 95.2119 93.2231C95.2119 93.4565 95.1321 93.6625 94.9668 93.8228L94.9648 93.8257C94.7886 93.9912 94.5397 94.0522 94.2646 94.0522H91.168V95.8569H94.6738C94.9559 95.857 95.2088 95.9228 95.3906 96.0942H95.3896C95.569 96.2559 95.6533 96.4718 95.6533 96.7183C95.6533 96.9622 95.5657 97.1752 95.3877 97.3384C95.2058 97.5047 94.9544 97.5688 94.6738 97.5688H90.3281C89.9551 97.5688 89.6326 97.4874 89.418 97.2729L89.416 97.271C89.2068 97.0568 89.127 96.7377 89.127 96.3687V90.4341C89.127 90.1851 89.1639 89.9621 89.251 89.7788C89.3408 89.5863 89.4841 89.4418 89.6768 89.355V89.356C89.8618 89.2705 90.0824 89.2329 90.3281 89.2329H94.5498ZM65.7979 90.8101C65.5072 90.8101 65.2416 90.8656 64.999 90.9741L64.998 90.9751C64.7607 91.0796 64.5532 91.2315 64.377 91.436L64.3779 91.437C64.2067 91.6399 64.0643 91.9074 63.9561 92.2456C63.8529 92.5757 63.7998 92.9529 63.7998 93.3794C63.7998 93.8093 63.8526 94.1921 63.9561 94.5298L64.0439 94.7729C64.1393 95.0035 64.257 95.1974 64.3936 95.3579C64.5819 95.5715 64.7923 95.7285 65.0254 95.8325H65.0244C65.2633 95.9376 65.5277 95.9917 65.8193 95.9917C66.1898 95.9917 66.5253 95.8988 66.8311 95.7153H66.832C67.1324 95.537 67.3778 95.2574 67.5635 94.8628L67.5645 94.8618C67.751 94.4723 67.8496 93.9811 67.8496 93.3794C67.8496 92.8246 67.7596 92.3549 67.5879 91.9653C67.4168 91.5774 67.1773 91.2948 66.8721 91.106L66.8691 91.104C66.5635 90.9099 66.2087 90.8101 65.7979 90.8101ZM133.803 90.8101C133.512 90.8101 133.246 90.8656 133.004 90.9741L133.003 90.9751C132.766 91.0796 132.558 91.2315 132.382 91.436L132.383 91.437C132.212 91.6399 132.069 91.9074 131.961 92.2456C131.858 92.5757 131.805 92.9529 131.805 93.3794C131.805 93.8093 131.858 94.1921 131.961 94.5298L132.049 94.7729C132.144 95.0035 132.262 95.1974 132.398 95.3579C132.587 95.5715 132.797 95.7285 133.03 95.8325H133.029C133.268 95.9376 133.533 95.9917 133.824 95.9917C134.195 95.9917 134.53 95.8988 134.836 95.7153H134.837C135.137 95.537 135.383 95.2574 135.568 94.8628L135.569 94.8618C135.756 94.4723 135.854 93.9811 135.854 93.3794C135.854 92.8246 135.764 92.3549 135.593 91.9653C135.422 91.5774 135.182 91.2948 134.877 91.106L134.874 91.104C134.568 90.9099 134.214 90.8101 133.803 90.8101ZM115.209 94.0415H116.938L116.064 91.6519L115.209 94.0415ZM56.7891 92.8462H57.6455C58.0087 92.8462 58.2987 92.8078 58.5215 92.7378H58.5225C58.7414 92.6699 58.8924 92.564 58.9922 92.4292C59.0893 92.2978 59.1474 92.1125 59.1475 91.855C59.1474 91.5558 59.0619 91.3306 58.9043 91.1597L58.8369 91.103C58.7578 91.0474 58.6433 90.9963 58.4824 90.9565C58.2698 90.904 57.9922 90.8755 57.6455 90.8755H56.7891V92.8462Z" fill="#474747"/>
<path d="M153.032 153.569H46.8018V168.533H153.032V153.569Z" fill="#DADBDB"/>
<path d="M111.448 80.2842C133.876 66.5378 134.715 36.901 133.991 24.5311C133.823 21.5665 131.035 19.4666 128.141 20.1195L115.471 22.9517C106.11 25.0428 96.3959 25.0428 87.0346 22.9517L74.3646 20.1195C71.4706 19.4754 68.6825 21.5753 68.5149 24.5311C67.8002 36.901 68.6296 66.5378 91.0579 80.2842C97.3223 84.1223 105.184 84.1223 111.448 80.2842Z" fill="#656869"/>
<path d="M101.654 71.7345C111.346 71.7345 119.203 63.8775 119.203 54.1854C119.203 44.4933 111.346 36.6362 101.654 36.6362C91.9615 36.6362 84.1045 44.4933 84.1045 54.1854C84.1045 63.8775 91.9615 71.7345 101.654 71.7345Z" fill="#D64343"/>
<path d="M98.2751 56.4794C98.2751 56.4794 97.0575 57.1235 94.7547 51.4326C92.4518 45.7417 90.9166 46.9857 88.8079 46.0328C86.6992 45.0711 81.8553 41.7889 80.3818 39.0361C81.3436 43.3859 82.1729 44.5329 82.8788 45.2388C82.7553 46.5799 83.1964 48.3798 84.1581 49.2356C84.3522 51.2208 85.8169 54.6354 88.0579 55.5883C89.3285 57.5029 91.9577 63.0703 97.1987 62.4879C102.44 61.9056 101.037 61.738 101.037 61.738L100.454 56.6647C100.454 56.6647 100.19 56.2059 98.2839 56.4618L98.2751 56.4794Z" fill="#FFDB00"/>
<path d="M104.239 56.4794C104.239 56.4794 105.456 57.1235 107.759 51.4326C110.062 45.7417 111.597 46.9857 113.706 46.0328C115.815 45.08 120.659 41.7889 122.132 39.0361C121.17 43.3859 120.341 44.5329 119.635 45.2388C119.759 46.5799 119.318 48.3798 118.356 49.2356C118.162 51.2208 116.697 54.6354 114.456 55.5883C113.185 57.5029 110.556 63.0703 105.315 62.4879C100.074 61.9056 101.477 61.738 101.477 61.738L102.06 56.6647C102.06 56.6647 102.324 56.2059 104.23 56.4618L104.239 56.4794Z" fill="#FFDB00"/>
<path d="M99.4488 62.2235C99.4488 62.2235 97.8871 65.4175 96.8107 65.8057C96.5901 66.9174 97.693 67.9762 98.6988 68.1526C99.7047 68.3291 100.005 69.2643 101.196 69.2643C102.387 69.2643 103.41 68.3291 103.799 68.1526C104.566 68.2409 106.057 66.9615 106.225 66.1939C105.757 65.7439 104.099 63.8028 103.199 62.55C101.505 62.2323 101.699 61.9588 99.4488 62.2323V62.2235Z" fill="#FFDB00"/>
<path d="M104.45 58.1119C104.23 57.5031 103.938 56.9296 103.691 56.3297C103.647 56.2238 103.594 56.0826 103.533 55.9326C103.18 55.0062 103.374 53.9739 103.991 53.1975C104.468 52.6063 104.75 51.8563 104.75 51.0358C104.75 49.13 103.206 47.5771 101.291 47.5771C99.5622 47.5771 98.124 48.8477 97.877 50.5064C97.8858 50.5064 97.8946 50.5064 97.9034 50.5064C98.3358 50.5064 98.6887 50.7799 98.6975 51.424C98.6975 51.9887 98.4416 52.271 98.0975 52.3416C98.2475 52.7034 98.4505 53.0298 98.7063 53.3122C99.4034 54.1062 99.6239 55.2091 99.2357 56.1885C99.2181 56.2326 99.2004 56.2767 99.1828 56.312C98.9269 56.9032 98.6357 57.4855 98.424 58.0943C98.0446 59.1442 98.0446 60.2118 98.2652 61.2971C98.424 62.0735 98.7151 62.8588 99.2534 63.4587C99.7651 64.0322 100.63 64.4381 101.441 64.4381C102.253 64.4381 103.118 64.0322 103.63 63.4587C104.159 62.8588 104.459 62.0823 104.618 61.2971C104.838 60.2118 104.83 59.1442 104.459 58.0943L104.45 58.1119ZM99.4475 50.2329C99.4475 49.6859 99.8886 49.2359 100.444 49.2359C101 49.2359 101.441 49.677 101.441 50.2329C101.441 50.7888 101 51.2299 100.444 51.2299C99.8886 51.2299 99.4475 50.7888 99.4475 50.2329Z" fill="#FFDB00"/>
<path d="M100.383 51.3801C100.992 51.3801 101.486 50.8863 101.486 50.2772C101.486 49.6681 100.992 49.1743 100.383 49.1743C99.7741 49.1743 99.2803 49.6681 99.2803 50.2772C99.2803 50.8863 99.7741 51.3801 100.383 51.3801Z" fill="white"/>
<path d="M100.384 50.8652C100.708 50.8652 100.972 50.602 100.972 50.2773C100.972 49.9527 100.708 49.6895 100.384 49.6895C100.059 49.6895 99.7959 49.9527 99.7959 50.2773C99.7959 50.602 100.059 50.8652 100.384 50.8652Z" fill="#040000"/>
<path d="M98.8217 51.4328C98.8217 51.9975 98.5658 52.2798 98.2217 52.3504C98.1688 52.3592 98.107 52.368 98.0541 52.368C97.6218 52.368 96.9424 51.8828 96.9424 51.4504C96.9424 51.0269 97.5776 50.5328 98.01 50.5063C98.0188 50.5063 98.0276 50.5063 98.0364 50.5063C98.4688 50.5063 98.8217 50.7799 98.8305 51.424L98.8217 51.4328Z" fill="#E8BE0F"/>
<path d="M101.372 44.8506C105.256 44.8506 108.404 41.7023 108.404 37.8186C108.404 33.935 105.256 30.7866 101.372 30.7866C97.4882 30.7866 94.3398 33.935 94.3398 37.8186C94.3398 41.7023 97.4882 44.8506 101.372 44.8506Z" fill="#252598"/>
<path d="M93.9339 38.0835C93.9339 38.0835 91.8693 38.1982 91.0576 40.4304C92.4958 40.5981 94.1281 38.9482 93.9339 38.0835Z" fill="#FFDB00"/>
<path d="M91.4019 37.8188C91.4019 37.8188 89.5137 38.6482 89.5314 41.0216C90.9342 40.6775 91.8783 38.56 91.4019 37.8188Z" fill="#FFDB00"/>
<path d="M89.1612 39.2837C89.1612 39.2837 87.5466 40.563 88.1642 42.857C89.4347 42.1688 89.8141 39.8748 89.1612 39.2837Z" fill="#FFDB00"/>
<path d="M87.1759 40.6953C87.1759 40.6953 85.9583 42.3629 87.1759 44.4098C88.217 43.404 87.97 41.1012 87.1759 40.6953Z" fill="#FFDB00"/>
<path d="M93.0514 41.0831C93.0514 41.0831 91.2779 40.0156 89.3545 41.4096C90.4486 42.3537 92.7249 41.9037 93.0514 41.0831Z" fill="#FFDB00"/>
<path d="M91.8877 42.1509C91.8877 42.1509 89.9378 41.4804 88.3408 43.245C89.6113 43.942 91.7377 43.0244 91.8877 42.1509Z" fill="#FFDB00"/>
<path d="M90.89 43.8716C90.89 43.8716 89.0107 43.0158 87.2549 44.6128C88.4548 45.4333 90.6606 44.7186 90.89 43.8716Z" fill="#FFDB00"/>
<path d="M108.836 38.0835C108.836 38.0835 110.901 38.1982 111.712 40.4304C110.274 40.5981 108.642 38.9482 108.836 38.0835Z" fill="#FFDB00"/>
<path d="M111.368 37.8188C111.368 37.8188 113.256 38.6482 113.238 41.0216C111.836 40.6775 110.892 38.56 111.368 37.8188Z" fill="#FFDB00"/>
<path d="M113.619 39.2837C113.619 39.2837 115.234 40.563 114.616 42.857C113.346 42.1688 112.966 39.8748 113.619 39.2837Z" fill="#FFDB00"/>
<path d="M115.595 40.6953C115.595 40.6953 116.812 42.3629 115.595 44.4098C114.553 43.404 114.801 41.1012 115.595 40.6953Z" fill="#FFDB00"/>
<path d="M109.719 41.0831C109.719 41.0831 111.492 40.0156 113.416 41.4096C112.322 42.3537 110.045 41.9037 109.719 41.0831Z" fill="#FFDB00"/>
<path d="M110.883 42.1509C110.883 42.1509 112.833 41.4804 114.43 43.245C113.159 43.942 111.033 43.0244 110.883 42.1509Z" fill="#FFDB00"/>
<path d="M111.889 43.8716C111.889 43.8716 113.768 43.0158 115.524 44.6128C114.324 45.4333 112.118 44.7186 111.889 43.8716Z" fill="#FFDB00"/>
<path d="M101.415 39.9102C102.57 39.9102 103.506 38.974 103.506 37.8191C103.506 36.6642 102.57 35.728 101.415 35.728C100.26 35.728 99.3242 36.6642 99.3242 37.8191C99.3242 38.974 100.26 39.9102 101.415 39.9102Z" fill="white"/>
<path d="M101.425 33.9102L100.631 35.2777H102.219L101.425 33.9102Z" fill="white"/>
<path d="M101.425 41.7275L102.219 40.3511H100.631L101.425 41.7275Z" fill="white"/>
<path d="M105.332 37.819L103.965 37.0249V38.6131L105.332 37.819Z" fill="white"/>
<path d="M97.5156 37.819L98.892 38.6131V37.0249L97.5156 37.819Z" fill="white"/>
<path d="M104.187 35.0571L102.66 35.463L103.781 36.5835L104.187 35.0571Z" fill="white"/>
<path d="M98.6631 40.5806L100.189 40.1747L99.069 39.0542L98.6631 40.5806Z" fill="white"/>
<path d="M98.6631 35.0571L99.069 36.5835L100.189 35.463L98.6631 35.0571Z" fill="white"/>
<path d="M104.187 40.5806L103.781 39.0542L102.66 40.1747L104.187 40.5806Z" fill="white"/>
</svg>
