<svg width="200" height="200" viewBox="0 0 200 200" fill="none" xmlns="http://www.w3.org/2000/svg">
<mask id="path-1-outside-1_1062_24454" maskUnits="userSpaceOnUse" x="14" y="20" width="172" height="160" fill="black">
<rect fill="white" x="14" y="20" width="172" height="160"/>
<path d="M120.055 26C132.271 26 138.355 51.4611 139.773 58.3164C148.214 57.5586 157.092 55.2862 162.396 48.8643C171.992 37.2495 184.68 45.806 178.253 58.5527C173.466 68.041 165.479 76.2027 153.815 82.1826C162.007 93.2789 166.852 106.998 166.852 121.849C166.852 158.769 141.07 173.207 104.15 173.207C61.4984 173.207 33.1448 158.769 33.1448 121.849C33.1448 106.998 37.9879 93.2788 46.1799 82.1826C34.516 76.2027 26.5304 68.0409 21.7453 58.5527C15.3189 45.806 28.007 37.2494 37.6028 48.8643C42.9066 55.2817 51.7847 57.5586 60.2258 58.3164C61.6436 51.461 67.7276 26 79.9436 26C90.6534 26.0001 94.5128 30.8623 99.9993 30.8623C105.486 30.8623 109.345 26.0001 120.055 26Z"/>
</mask>
<path d="M120.055 26C132.271 26 138.355 51.4611 139.773 58.3164C148.214 57.5586 157.092 55.2862 162.396 48.8643C171.992 37.2495 184.68 45.806 178.253 58.5527C173.466 68.041 165.479 76.2027 153.815 82.1826C162.007 93.2789 166.852 106.998 166.852 121.849C166.852 158.769 141.07 173.207 104.15 173.207C61.4984 173.207 33.1448 158.769 33.1448 121.849C33.1448 106.998 37.9879 93.2788 46.1799 82.1826C34.516 76.2027 26.5304 68.0409 21.7453 58.5527C15.3189 45.806 28.007 37.2494 37.6028 48.8643C42.9066 55.2817 51.7847 57.5586 60.2258 58.3164C61.6436 51.461 67.7276 26 79.9436 26C90.6534 26.0001 94.5128 30.8623 99.9993 30.8623C105.486 30.8623 109.345 26.0001 120.055 26Z" fill="#62470E"/>
<path d="M120.055 26L120.055 20L120.055 20L120.055 26ZM139.773 58.3164L133.897 59.5316C134.514 62.5171 137.273 64.565 140.309 64.2924L139.773 58.3164ZM162.396 48.8643L157.77 45.0427L157.77 45.0435L162.396 48.8643ZM178.253 58.5527L183.61 61.2555L183.611 61.2538L178.253 58.5527ZM153.815 82.1826L151.077 76.8434C149.511 77.6466 148.376 79.0975 147.973 80.8116C147.571 82.5257 147.942 84.33 148.988 85.7464L153.815 82.1826ZM166.852 121.849L172.852 121.849L172.852 121.849L166.852 121.849ZM104.15 173.207L104.15 179.207H104.15V173.207ZM33.1448 121.849L27.1448 121.849V121.849H33.1448ZM46.1799 82.1826L51.0069 85.7463C52.0527 84.3299 52.4235 82.5256 52.0212 80.8115C51.6188 79.0975 50.484 77.6466 48.9172 76.8434L46.1799 82.1826ZM21.7453 58.5527L16.3877 61.2538L16.3881 61.2545L21.7453 58.5527ZM37.6028 48.8643L32.9772 52.6858L32.9779 52.6866L37.6028 48.8643ZM60.2258 58.3164L59.6893 64.2924C62.7258 64.565 65.484 62.5171 66.1015 59.5316L60.2258 58.3164ZM79.9436 26L79.9437 20H79.9436V26ZM99.9993 30.8623L99.9993 36.8623L99.9993 36.8623L99.9993 30.8623ZM120.055 26V32C120.835 32 122.026 32.3679 123.688 34.1629C125.366 35.974 126.998 38.7044 128.485 42.034C131.442 48.6568 133.214 56.2301 133.897 59.5316L139.773 58.3164L145.648 57.1012C144.913 53.5474 142.935 44.9625 139.442 37.1409C137.703 33.2484 135.435 29.185 132.492 26.008C129.534 22.8147 125.383 20 120.055 20V26ZM139.773 58.3164L140.309 64.2924C149.067 63.5061 160.098 61.0682 167.022 52.685L162.396 48.8643L157.77 45.0435C154.085 49.5042 147.36 51.6111 139.236 52.3404L139.773 58.3164ZM162.396 48.8643L167.021 52.6858C168.788 50.548 170.354 49.7469 171.331 49.4937C172.279 49.2479 172.828 49.4536 173.101 49.6285C173.38 49.8065 173.771 50.2069 173.931 51.0942C174.095 52.0004 174.028 53.6057 172.896 55.8516L178.253 58.5527L183.611 61.2538C187.757 53.0291 186.492 43.9457 179.564 39.5174C172.611 35.0732 163.798 37.7467 157.77 45.0427L162.396 48.8643ZM178.253 58.5527L172.896 55.85C168.73 64.1079 161.711 71.3916 151.077 76.8434L153.815 82.1826L156.552 87.5218C169.246 81.0138 178.202 71.9741 183.61 61.2555L178.253 58.5527ZM153.815 82.1826L148.988 85.7464C156.445 95.8464 160.852 108.324 160.852 121.849L166.852 121.849L172.852 121.849C172.852 105.671 167.57 90.7115 158.642 78.6188L153.815 82.1826ZM166.852 121.849H160.852C160.852 138.753 155.05 149.655 145.766 156.558C136.17 163.694 121.985 167.207 104.15 167.207V173.207V179.207C123.235 179.207 140.401 175.501 152.926 166.188C165.763 156.642 172.852 141.866 172.852 121.849H166.852ZM104.15 173.207L104.15 167.207C83.3187 167.207 66.9566 163.649 55.9657 156.37C45.3943 149.37 39.1448 138.509 39.1448 121.849H33.1448H27.1448C27.1448 142.109 35.072 156.927 49.3402 166.376C63.189 175.546 82.3293 179.207 104.15 179.207L104.15 173.207ZM33.1448 121.849L39.1448 121.849C39.1448 108.324 43.5507 95.8458 51.0069 85.7463L46.1799 82.1826L41.3529 78.6189C32.4251 90.7117 27.1448 105.672 27.1448 121.849L33.1448 121.849ZM46.1799 82.1826L48.9172 76.8434C38.2837 71.3918 31.2669 64.1083 27.1026 55.851L21.7453 58.5527L16.3881 61.2545C21.7938 71.9736 30.7483 81.0137 43.4426 87.5218L46.1799 82.1826ZM21.7453 58.5527L27.103 55.8516C25.9706 53.6057 25.9034 52.0004 26.067 51.0942C26.2272 50.2069 26.6185 49.8065 26.897 49.6285C27.1706 49.4536 27.7195 49.2479 28.6678 49.4937C29.645 49.7469 31.211 50.548 32.9772 52.6858L37.6028 48.8643L42.2284 45.0427C36.2006 37.7467 27.3876 35.0732 20.4344 39.5174C13.5061 43.9456 12.2411 53.0291 16.3877 61.2538L21.7453 58.5527ZM37.6028 48.8643L32.9779 52.6866C39.9005 61.0627 50.9284 63.5058 59.6893 64.2924L60.2258 58.3164L60.7623 52.3404C52.6411 51.6113 45.9127 49.5007 42.2277 45.0419L37.6028 48.8643ZM60.2258 58.3164L66.1015 59.5316C66.7843 56.2301 68.5564 48.6568 71.5139 42.034C73.0008 38.7044 74.6323 35.974 76.3101 34.1629C77.9728 32.3679 79.1638 32 79.9436 32V26V20C74.6154 20 70.4649 22.8147 67.5068 26.0079C64.5637 29.185 62.2951 33.2483 60.5568 37.1409C57.0639 44.9625 55.0852 53.5474 54.3502 57.1012L60.2258 58.3164ZM79.9436 26L79.9435 32C84.2564 32.0001 87.1005 32.9444 89.6701 33.9893C91.8943 34.8937 95.7429 36.8623 99.9993 36.8623V30.8623V24.8623C98.7691 24.8623 97.9448 24.3998 94.1902 22.8731C90.781 21.4869 86.3406 20.0001 79.9437 20L79.9436 26ZM99.9993 30.8623L99.9993 36.8623C104.256 36.8623 108.104 34.8937 110.328 33.9893C112.898 32.9444 115.742 32 120.055 32L120.055 26L120.055 20C113.658 20.0001 109.217 21.4869 105.808 22.8731C102.054 24.3998 101.229 24.8623 99.9992 24.8623L99.9993 30.8623Z" fill="white" mask="url(#path-1-outside-1_1062_24454)"/>
<path d="M166.851 121.849C166.851 158.77 141.07 173.207 104.15 173.207C61.498 173.207 33.1445 158.77 33.1445 121.849C33.1445 84.928 63.0768 54.9954 99.9976 54.9954C136.918 54.9954 166.851 84.928 166.851 121.849Z" fill="#4B9AE8"/>
<path d="M111.927 125.665C111.281 130.736 105.772 138.957 100.054 139C94.3365 139.042 88.2955 130.704 88.0138 125.241C87.7321 119.788 91.749 116.053 100.284 116C108.912 115.947 112.574 120.594 111.927 125.665Z" fill="#EAC00F"/>
<path d="M66.498 123.995C73.4016 123.995 78.998 118.399 78.998 111.495C78.998 104.592 73.4016 98.9952 66.498 98.9952C59.5945 98.9952 53.998 104.592 53.998 111.495C53.998 118.399 59.5945 123.995 66.498 123.995Z" fill="white"/>
<path d="M66.5005 118.113C70.1553 118.113 73.1181 115.15 73.1181 111.495C73.1181 107.84 70.1553 104.877 66.5005 104.877C62.8456 104.877 59.8828 107.84 59.8828 111.495C59.8828 115.15 62.8456 118.113 66.5005 118.113Z" fill="black"/>
<path d="M134.498 123.995C141.402 123.995 146.998 118.399 146.998 111.495C146.998 104.592 141.402 98.9952 134.498 98.9952C127.594 98.9952 121.998 104.592 121.998 111.495C121.998 118.399 127.594 123.995 134.498 123.995Z" fill="white"/>
<path d="M134.5 118.113C138.155 118.113 141.118 115.15 141.118 111.495C141.118 107.84 138.155 104.877 134.5 104.877C130.846 104.877 127.883 107.84 127.883 111.495C127.883 115.15 130.846 118.113 134.5 118.113Z" fill="black"/>
<path d="M162.396 48.8638C157.092 55.286 148.214 57.559 139.773 58.3168C138.355 51.462 132.272 26 120.055 26C109.345 26 105.486 30.8626 99.9994 30.8626C94.5128 30.8626 90.6534 26 79.9432 26C67.727 26 61.6436 51.462 60.2259 58.3168C51.7847 57.559 42.9068 55.2814 37.6029 48.8638C28.0071 37.2489 15.3187 45.8062 21.7455 58.5531C31.8982 78.6849 56.4554 92.8531 99.9994 92.8531C143.539 92.8531 168.096 78.6849 178.253 58.5531C184.68 45.8062 171.992 37.2489 162.396 48.8638Z" fill="#995613"/>
<path d="M115.596 34.9137C107.266 34.9137 104.262 39.2098 99.9968 39.2098C95.7315 39.2098 92.7275 34.9137 84.3978 34.9137C73.4206 34.9137 68.7988 64.9974 68.7988 64.9974C68.7988 64.9974 74.5122 75.0254 99.9968 75.0254C125.486 75.0254 131.195 64.9974 131.195 64.9974C131.195 64.9974 126.573 34.9137 115.596 34.9137Z" fill="#C77A2C"/>
<path d="M68.7988 48.2842C68.7988 48.2842 78.0423 57.198 99.9968 57.198C121.956 57.198 131.195 48.2842 131.195 48.2842V57.198C131.195 57.198 121.292 66.1117 99.9968 66.1117C78.7017 66.1117 68.7988 57.198 68.7988 57.198V48.2842Z" fill="#995613"/>
</svg>
