<svg width="200" height="200" viewBox="0 0 200 200" fill="none" xmlns="http://www.w3.org/2000/svg">
<mask id="path-1-outside-1_1062_29551" maskUnits="userSpaceOnUse" x="122" y="167" width="32" height="23" fill="black">
<rect fill="white" x="122" y="167" width="32" height="23"/>
<path d="M138 171C142.117 171 145.585 173.765 146.656 177.539C148.727 178.438 150 179.656 150 181C150 182.857 147.57 184.476 143.963 185.338C143.933 185.345 143.903 185.352 143.873 185.359C143.746 185.389 143.618 185.417 143.488 185.445C143.475 185.448 143.462 185.45 143.449 185.453C143.161 185.514 142.866 185.572 142.565 185.624C142.516 185.632 142.467 185.64 142.417 185.648C142.311 185.666 142.204 185.684 142.097 185.7C142.042 185.709 141.986 185.716 141.931 185.724C141.531 185.781 141.121 185.831 140.703 185.871C140.654 185.876 140.605 185.88 140.556 185.885C140.46 185.893 140.363 185.901 140.267 185.909C140.154 185.918 140.04 185.927 139.926 185.935C139.863 185.939 139.8 185.942 139.736 185.946C139.624 185.953 139.51 185.959 139.396 185.965C139.305 185.969 139.214 185.974 139.122 185.978C138.997 185.982 138.871 185.986 138.745 185.989C138.695 185.991 138.646 185.992 138.596 185.993C138.398 185.997 138.2 186 138 186C137.8 186 137.601 185.997 137.403 185.993C137.353 185.992 137.304 185.991 137.254 185.989C137.128 185.986 137.002 185.982 136.877 185.978C136.785 185.974 136.694 185.969 136.603 185.965C136.489 185.959 136.375 185.953 136.263 185.946C136.199 185.942 136.136 185.939 136.073 185.935C135.959 185.927 135.845 185.918 135.732 185.909C135.636 185.901 135.539 185.893 135.443 185.885C135.393 185.88 135.343 185.875 135.293 185.87C135.161 185.857 135.03 185.845 134.9 185.83C134.882 185.828 134.864 185.826 134.846 185.824C134.591 185.795 134.339 185.762 134.091 185.727C134.028 185.718 133.965 185.71 133.902 185.7C133.812 185.686 133.722 185.671 133.632 185.656C133.562 185.645 133.492 185.634 133.423 185.622C133.318 185.604 133.213 185.585 133.109 185.565C133.046 185.554 132.983 185.542 132.92 185.529C132.797 185.505 132.676 185.481 132.556 185.455C132.54 185.452 132.525 185.449 132.51 185.445C132.385 185.418 132.261 185.391 132.139 185.362C132.098 185.353 132.058 185.343 132.018 185.333C128.421 184.47 126 182.854 126 181C126 179.656 127.273 178.438 129.343 177.539C130.413 173.765 133.883 171 138 171Z"/>
</mask>
<path d="M138 171C142.117 171 145.585 173.765 146.656 177.539C148.727 178.438 150 179.656 150 181C150 182.857 147.57 184.476 143.963 185.338C143.933 185.345 143.903 185.352 143.873 185.359C143.746 185.389 143.618 185.417 143.488 185.445C143.475 185.448 143.462 185.45 143.449 185.453C143.161 185.514 142.866 185.572 142.565 185.624C142.516 185.632 142.467 185.64 142.417 185.648C142.311 185.666 142.204 185.684 142.097 185.7C142.042 185.709 141.986 185.716 141.931 185.724C141.531 185.781 141.121 185.831 140.703 185.871C140.654 185.876 140.605 185.88 140.556 185.885C140.46 185.893 140.363 185.901 140.267 185.909C140.154 185.918 140.04 185.927 139.926 185.935C139.863 185.939 139.8 185.942 139.736 185.946C139.624 185.953 139.51 185.959 139.396 185.965C139.305 185.969 139.214 185.974 139.122 185.978C138.997 185.982 138.871 185.986 138.745 185.989C138.695 185.991 138.646 185.992 138.596 185.993C138.398 185.997 138.2 186 138 186C137.8 186 137.601 185.997 137.403 185.993C137.353 185.992 137.304 185.991 137.254 185.989C137.128 185.986 137.002 185.982 136.877 185.978C136.785 185.974 136.694 185.969 136.603 185.965C136.489 185.959 136.375 185.953 136.263 185.946C136.199 185.942 136.136 185.939 136.073 185.935C135.959 185.927 135.845 185.918 135.732 185.909C135.636 185.901 135.539 185.893 135.443 185.885C135.393 185.88 135.343 185.875 135.293 185.87C135.161 185.857 135.03 185.845 134.9 185.83C134.882 185.828 134.864 185.826 134.846 185.824C134.591 185.795 134.339 185.762 134.091 185.727C134.028 185.718 133.965 185.71 133.902 185.7C133.812 185.686 133.722 185.671 133.632 185.656C133.562 185.645 133.492 185.634 133.423 185.622C133.318 185.604 133.213 185.585 133.109 185.565C133.046 185.554 132.983 185.542 132.92 185.529C132.797 185.505 132.676 185.481 132.556 185.455C132.54 185.452 132.525 185.449 132.51 185.445C132.385 185.418 132.261 185.391 132.139 185.362C132.098 185.353 132.058 185.343 132.018 185.333C128.421 184.47 126 182.854 126 181C126 179.656 127.273 178.438 129.343 177.539C130.413 173.765 133.883 171 138 171Z" fill="#CDCCCC"/>
<path d="M146.656 177.539L142.808 178.631L143.325 180.454L145.064 181.208L146.656 177.539ZM143.963 185.338L143.033 181.448L143.032 181.448L143.963 185.338ZM143.873 185.359L144.786 189.254L144.787 189.254L143.873 185.359ZM143.488 185.445L142.649 181.534L142.647 181.535L143.488 185.445ZM143.449 185.453L144.282 189.366L144.283 189.365L143.449 185.453ZM142.565 185.624L141.889 181.682L141.888 181.682L142.565 185.624ZM142.417 185.648L143.068 189.595L143.07 189.595L142.417 185.648ZM142.097 185.7L141.498 181.745L141.497 181.745L142.097 185.7ZM141.931 185.724L142.502 189.683L142.504 189.682L141.931 185.724ZM140.703 185.871L140.321 181.889L140.32 181.889L140.703 185.871ZM140.556 185.885L140.916 189.869L140.917 189.868L140.556 185.885ZM140.267 185.909L139.949 181.922L139.948 181.922L140.267 185.909ZM139.926 185.935L140.194 189.926L140.195 189.926L139.926 185.935ZM139.736 185.946L139.495 181.954L139.494 181.954L139.736 185.946ZM139.396 185.965L139.589 189.96L139.59 189.96L139.396 185.965ZM139.122 185.978L138.968 181.981L138.967 181.981L139.122 185.978ZM138.745 185.989L138.847 189.988L138.848 189.988L138.745 185.989ZM138.596 185.993L138.514 181.994L138.514 181.994L138.596 185.993ZM137.403 185.993L137.485 181.994L137.485 181.994L137.403 185.993ZM137.254 185.989L137.151 189.988L137.152 189.988L137.254 185.989ZM136.877 185.978L137.032 181.981L137.032 181.981L136.877 185.978ZM136.603 185.965L136.409 189.96L136.409 189.96L136.603 185.965ZM136.263 185.946L136.505 181.954L136.504 181.954L136.263 185.946ZM136.073 185.935L135.804 189.926L135.805 189.926L136.073 185.935ZM135.732 185.909L136.051 181.922L136.05 181.922L135.732 185.909ZM135.443 185.885L135.082 189.868L135.083 189.869L135.443 185.885ZM135.293 185.87L135.676 181.889L135.676 181.888L135.293 185.87ZM134.9 185.83L134.458 189.806L134.459 189.806L134.9 185.83ZM134.846 185.824L135.297 181.85L135.296 181.85L134.846 185.824ZM134.091 185.727L133.522 189.686L133.523 189.686L134.091 185.727ZM133.902 185.7L134.502 181.745L134.501 181.745L133.902 185.7ZM133.632 185.656L132.987 189.604L132.989 189.604L133.632 185.656ZM133.423 185.622L134.102 181.68L134.101 181.68L133.423 185.622ZM133.109 185.565L132.376 189.498L132.377 189.498L133.109 185.565ZM132.92 185.529L133.687 181.603L133.685 181.603L132.92 185.529ZM132.556 185.455L131.723 189.367L131.724 189.368L132.556 185.455ZM132.51 185.445L133.351 181.535L133.35 181.535L132.51 185.445ZM132.139 185.362L131.228 189.257L131.228 189.257L132.139 185.362ZM132.018 185.333L132.952 181.444L132.951 181.444L132.018 185.333ZM129.343 177.539L130.935 181.208L132.674 180.454L133.191 178.631L129.343 177.539ZM138 171V175C140.279 175 142.212 176.53 142.808 178.631L146.656 177.539L150.504 176.447C148.959 171 143.955 167 138 167V171ZM146.656 177.539L145.064 181.208C145.42 181.363 145.697 181.512 145.903 181.643C146.111 181.776 146.218 181.872 146.257 181.912C146.297 181.952 146.235 181.902 146.16 181.744C146.078 181.573 146 181.315 146 181H150H154C154 178.972 153.022 177.378 151.952 176.293C150.899 175.226 149.572 174.444 148.249 173.87L146.656 177.539ZM150 181H146C146 180.041 146.617 179.859 146.033 180.27C145.526 180.627 144.54 181.087 143.033 181.448L143.963 185.338L144.893 189.228C146.993 188.726 149.026 187.946 150.636 186.814C152.168 185.736 154 183.816 154 181H150ZM143.963 185.338L143.032 181.448C142.981 181.46 142.979 181.461 142.959 181.465L143.873 185.359L144.787 189.254C144.828 189.244 144.885 189.23 144.894 189.228L143.963 185.338ZM143.873 185.359L142.96 181.465C142.865 181.487 142.763 181.51 142.649 181.534L143.488 185.445L144.328 189.356C144.473 189.325 144.627 189.291 144.786 189.254L143.873 185.359ZM143.488 185.445L142.647 181.535C142.671 181.53 142.689 181.526 142.699 181.524C142.704 181.523 142.708 181.522 142.71 181.522C142.711 181.522 142.712 181.521 142.711 181.522C142.71 181.522 142.706 181.523 142.702 181.523C142.697 181.524 142.691 181.526 142.683 181.527C142.668 181.53 142.644 181.535 142.616 181.541L143.449 185.453L144.283 189.365C144.261 189.37 144.244 189.373 144.235 189.375C144.228 189.377 144.221 189.378 144.227 189.377C144.229 189.376 144.243 189.374 144.258 189.371C144.275 189.367 144.299 189.362 144.329 189.356L143.488 185.445ZM143.449 185.453L142.617 181.541C142.369 181.593 142.128 181.641 141.889 181.682L142.565 185.624L143.242 189.566C143.605 189.504 143.953 189.436 144.282 189.366L143.449 185.453ZM142.565 185.624L141.888 181.682C141.848 181.689 141.868 181.685 141.764 181.702L142.417 185.648L143.07 189.595C143.087 189.592 143.099 189.59 143.133 189.585C143.16 189.58 143.2 189.574 143.243 189.566L142.565 185.624ZM142.417 185.648L141.766 181.702C141.641 181.722 141.572 181.734 141.498 181.745L142.097 185.7L142.695 189.655C142.837 189.634 142.981 189.61 143.068 189.595L142.417 185.648ZM142.097 185.7L141.497 181.745C141.498 181.745 141.494 181.746 141.468 181.749C141.45 181.752 141.403 181.758 141.358 181.765L141.931 185.724L142.504 189.682C142.514 189.681 142.522 189.68 142.559 189.675C142.589 189.671 142.64 189.664 142.697 189.655L142.097 185.7ZM141.931 185.724L141.359 181.765C141.021 181.814 140.674 181.855 140.321 181.889L140.703 185.871L141.085 189.853C141.568 189.806 142.041 189.749 142.502 189.683L141.931 185.724ZM140.703 185.871L140.32 181.889C140.283 181.893 140.243 181.897 140.195 181.901L140.556 185.885L140.917 189.868C140.967 189.864 141.025 189.859 141.086 189.853L140.703 185.871ZM140.556 185.885L140.196 181.901C140.118 181.908 140.036 181.915 139.949 181.922L140.267 185.909L140.584 189.897C140.69 189.888 140.802 189.879 140.916 189.869L140.556 185.885ZM140.267 185.909L139.948 181.922C139.844 181.93 139.748 181.937 139.657 181.944L139.926 185.935L140.195 189.926C140.332 189.916 140.463 189.906 140.585 189.896L140.267 185.909ZM139.926 185.935L139.658 181.944C139.612 181.947 139.572 181.949 139.495 181.954L139.736 185.946L139.977 189.939C140.028 189.936 140.113 189.931 140.194 189.926L139.926 185.935ZM139.736 185.946L139.494 181.954C139.397 181.96 139.3 181.965 139.203 181.97L139.396 185.965L139.59 189.96C139.721 189.954 139.85 189.947 139.978 189.939L139.736 185.946ZM139.396 185.965L139.204 181.97C139.093 181.975 139.034 181.978 138.968 181.981L139.122 185.978L139.277 189.975C139.394 189.97 139.518 189.964 139.589 189.96L139.396 185.965ZM139.122 185.978L138.967 181.981C138.867 181.984 138.761 181.988 138.643 181.991L138.745 185.989L138.848 189.988C138.981 189.985 139.127 189.98 139.277 189.975L139.122 185.978ZM138.745 185.989L138.643 181.991C138.551 181.993 138.555 181.993 138.514 181.994L138.596 185.993L138.677 189.992C138.736 189.991 138.84 189.988 138.847 189.988L138.745 185.989ZM138.596 185.993L138.514 181.994C138.333 181.998 138.163 182 138 182V186V190C138.236 190 138.464 189.997 138.677 189.992L138.596 185.993ZM138 186V182C137.836 182 137.666 181.998 137.485 181.994L137.403 185.993L137.321 189.992C137.536 189.997 137.764 190 138 190V186ZM137.403 185.993L137.485 181.994C137.444 181.993 137.448 181.993 137.356 181.991L137.254 185.989L137.152 189.988C137.16 189.988 137.263 189.991 137.322 189.992L137.403 185.993ZM137.254 185.989L137.356 181.991C137.238 181.988 137.132 181.984 137.032 181.981L136.877 185.978L136.722 189.975C136.872 189.98 137.018 189.985 137.151 189.988L137.254 185.989ZM136.877 185.978L137.032 181.981C136.965 181.978 136.906 181.975 136.796 181.97L136.603 185.965L136.409 189.96C136.482 189.964 136.605 189.97 136.722 189.975L136.877 185.978ZM136.603 185.965L136.796 181.97C136.699 181.965 136.602 181.96 136.505 181.954L136.263 185.946L136.021 189.939C136.149 189.947 136.278 189.954 136.409 189.96L136.603 185.965ZM136.263 185.946L136.504 181.954C136.427 181.949 136.387 181.947 136.342 181.944L136.073 185.935L135.805 189.926C135.886 189.931 135.972 189.936 136.021 189.939L136.263 185.946ZM136.073 185.935L136.342 181.944C136.251 181.937 136.155 181.93 136.051 181.922L135.732 185.909L135.414 189.896C135.536 189.906 135.667 189.916 135.804 189.926L136.073 185.935ZM135.732 185.909L136.05 181.922C135.963 181.915 135.881 181.908 135.804 181.901L135.443 185.885L135.083 189.869C135.197 189.879 135.309 189.888 135.415 189.897L135.732 185.909ZM135.443 185.885L135.804 181.901C135.76 181.897 135.782 181.899 135.676 181.889L135.293 185.87L134.91 189.852C134.926 189.853 134.94 189.855 134.973 189.858C135 189.861 135.039 189.865 135.082 189.868L135.443 185.885ZM135.293 185.87L135.676 181.888C135.549 181.876 135.442 181.866 135.342 181.855L134.9 185.83L134.459 189.806C134.619 189.823 134.773 189.839 134.91 189.852L135.293 185.87ZM134.9 185.83L135.343 181.855C135.329 181.853 135.317 181.852 135.308 181.851C135.3 181.85 135.292 181.849 135.289 181.849C135.284 181.848 135.284 181.848 135.285 181.848C135.286 181.849 135.29 181.849 135.297 181.85L134.846 185.824L134.395 189.799C134.424 189.802 134.449 189.805 134.457 189.805C134.463 189.806 134.464 189.806 134.465 189.806C134.466 189.806 134.463 189.806 134.458 189.806L134.9 185.83ZM134.846 185.824L135.296 181.85C135.088 181.826 134.877 181.798 134.659 181.767L134.091 185.727L133.523 189.686C133.801 189.726 134.093 189.765 134.396 189.799L134.846 185.824ZM134.091 185.727L134.66 181.767C134.609 181.76 134.556 181.753 134.535 181.75C134.506 181.746 134.501 181.745 134.502 181.745L133.902 185.7L133.303 189.655C133.366 189.665 133.424 189.672 133.457 189.677C133.499 189.683 133.51 189.684 133.522 189.686L134.091 185.727ZM133.902 185.7L134.501 181.745C134.438 181.736 134.419 181.732 134.275 181.708L133.632 185.656L132.989 189.604C133.024 189.61 133.185 189.637 133.304 189.655L133.902 185.7ZM133.632 185.656L134.276 181.708C134.163 181.69 134.15 181.688 134.102 181.68L133.423 185.622L132.743 189.564C132.834 189.58 132.961 189.6 132.987 189.604L133.632 185.656ZM133.423 185.622L134.101 181.68C134.024 181.667 133.941 181.652 133.842 181.633L133.109 185.565L132.377 189.498C132.485 189.518 132.611 189.541 132.745 189.564L133.423 185.622ZM133.109 185.565L133.843 181.633C133.789 181.623 133.737 181.613 133.687 181.603L132.92 185.529L132.153 189.455C132.228 189.47 132.303 189.484 132.376 189.498L133.109 185.565ZM132.92 185.529L133.685 181.603C133.585 181.584 133.486 181.563 133.387 181.542L132.556 185.455L131.724 189.368C131.866 189.398 132.009 189.427 132.154 189.455L132.92 185.529ZM132.556 185.455L133.388 181.543C133.361 181.537 133.361 181.537 133.351 181.535L132.51 185.445L131.669 189.356C131.689 189.36 131.72 189.367 131.723 189.367L132.556 185.455ZM132.51 185.445L133.35 181.535C133.244 181.512 133.144 181.49 133.049 181.467L132.139 185.362L131.228 189.257C131.378 189.292 131.525 189.325 131.67 189.356L132.51 185.445ZM132.139 185.362L133.05 181.467C133.05 181.468 133.049 181.467 133.045 181.466C133.041 181.465 133.036 181.464 133.027 181.462C133.023 181.461 133.019 181.46 133.014 181.459C133.009 181.457 133.003 181.456 132.997 181.454C132.984 181.451 132.969 181.448 132.952 181.444L132.018 185.333L131.083 189.222C131.093 189.225 131.1 189.227 131.129 189.233C131.151 189.239 131.187 189.248 131.228 189.257L132.139 185.362ZM132.018 185.333L132.951 181.444C131.45 181.083 130.469 180.624 129.965 180.268C129.384 179.859 130 180.043 130 181H126H122C122 183.811 123.826 185.729 125.356 186.807C126.962 187.939 128.989 188.72 131.084 189.222L132.018 185.333ZM126 181H130C130 181.315 129.922 181.573 129.84 181.744C129.765 181.901 129.704 181.951 129.743 181.911C129.782 181.872 129.889 181.776 130.097 181.643C130.303 181.512 130.58 181.363 130.935 181.208L129.343 177.539L127.75 173.87C126.427 174.444 125.1 175.226 124.047 176.294C122.977 177.379 122 178.973 122 181H126ZM129.343 177.539L133.191 178.631C133.787 176.531 135.72 175 138 175V171V167C132.046 167 127.04 171 125.495 176.447L129.343 177.539Z" fill="white" mask="url(#path-1-outside-1_1062_29551)"/>
<mask id="path-3-outside-2_1062_29551" maskUnits="userSpaceOnUse" x="26.0996" y="14" width="134" height="169" fill="black">
<rect fill="white" x="26.0996" y="14" width="134" height="169"/>
<path d="M98.1536 20C111.914 20 123.818 28.312 129.572 41.0527L134.981 32.4873C135.841 31.1135 137.69 30.6926 139.065 31.5723C140.438 32.4326 140.839 34.263 139.979 35.6367L132.03 48.2334C132.825 51.5201 133.252 55.0067 133.252 58.6465C133.252 61.0438 132.395 66.6681 132.386 66.7236C133.501 67.5215 134.586 68.3589 135.638 69.2324C136.141 69.5917 136.606 69.9912 137.029 70.4277C146.71 79.0163 153.219 90.7879 153.219 103.572H153.195C153.195 112.961 150.043 121.32 144.606 128.176C138.235 136.21 128.731 142.193 117.478 145.388V151.069L126.2 149.271C127.507 149.271 128.707 149.805 129.581 150.672C130.441 151.539 130.984 152.731 130.984 154.054C130.984 156.684 128.83 158.837 126.2 158.837H113.619C111.625 158.837 109.999 157.211 109.999 155.225V147.052C106.736 147.588 103.364 147.905 99.9115 147.985C99.3257 148.002 98.7311 148.011 98.137 148.011C97.5431 148.011 96.9493 148.01 96.3636 147.985C91.19 147.865 86.1962 147.215 81.4779 146.088V151.069L90.1995 149.271C91.5073 149.271 92.7071 149.805 93.5814 150.672C94.4412 151.539 94.9837 152.731 94.9837 154.054C94.9837 156.684 92.8297 158.837 90.1995 158.837H77.6195C75.6254 158.837 73.9995 157.211 73.9994 155.225V143.818C73.229 143.532 72.4687 143.231 71.7191 142.917L57.2982 165.508L57.2972 165.507C57.2652 165.57 52.5948 174.746 50.4681 175.835C48.8861 176.634 43.1878 176.989 39.5247 176.723C35.843 176.476 34.9994 174.76 34.9994 174.76C34.9808 174.734 32.8408 171.759 32.1927 168.495C31.5456 165.221 34.4822 164.932 34.5228 164.928C34.5228 164.928 39.9488 164.038 41.7464 164.299C43.544 164.56 46.8724 165.715 49.1536 167.434C50.1644 168.202 50.9614 166.884 50.9769 166.858L53.5931 163.144L67.3968 140.893C61.1122 137.624 55.7482 133.324 51.6693 128.184V128.176C46.2321 121.319 43.0795 112.961 43.0794 103.572C43.0794 89.7284 49.9323 77.2751 60.8529 68.5869C61.4675 67.8202 62.1971 67.1645 63.015 66.624C63.0219 65.3484 63.0462 60.7199 63.0462 58.6465C63.0463 36.5015 78.7644 20 98.1536 20Z"/>
</mask>
<path d="M98.1536 20C111.914 20 123.818 28.312 129.572 41.0527L134.981 32.4873C135.841 31.1135 137.69 30.6926 139.065 31.5723C140.438 32.4326 140.839 34.263 139.979 35.6367L132.03 48.2334C132.825 51.5201 133.252 55.0067 133.252 58.6465C133.252 61.0438 132.395 66.6681 132.386 66.7236C133.501 67.5215 134.586 68.3589 135.638 69.2324C136.141 69.5917 136.606 69.9912 137.029 70.4277C146.71 79.0163 153.219 90.7879 153.219 103.572H153.195C153.195 112.961 150.043 121.32 144.606 128.176C138.235 136.21 128.731 142.193 117.478 145.388V151.069L126.2 149.271C127.507 149.271 128.707 149.805 129.581 150.672C130.441 151.539 130.984 152.731 130.984 154.054C130.984 156.684 128.83 158.837 126.2 158.837H113.619C111.625 158.837 109.999 157.211 109.999 155.225V147.052C106.736 147.588 103.364 147.905 99.9115 147.985C99.3257 148.002 98.7311 148.011 98.137 148.011C97.5431 148.011 96.9493 148.01 96.3636 147.985C91.19 147.865 86.1962 147.215 81.4779 146.088V151.069L90.1995 149.271C91.5073 149.271 92.7071 149.805 93.5814 150.672C94.4412 151.539 94.9837 152.731 94.9837 154.054C94.9837 156.684 92.8297 158.837 90.1995 158.837H77.6195C75.6254 158.837 73.9995 157.211 73.9994 155.225V143.818C73.229 143.532 72.4687 143.231 71.7191 142.917L57.2982 165.508L57.2972 165.507C57.2652 165.57 52.5948 174.746 50.4681 175.835C48.8861 176.634 43.1878 176.989 39.5247 176.723C35.843 176.476 34.9994 174.76 34.9994 174.76C34.9808 174.734 32.8408 171.759 32.1927 168.495C31.5456 165.221 34.4822 164.932 34.5228 164.928C34.5228 164.928 39.9488 164.038 41.7464 164.299C43.544 164.56 46.8724 165.715 49.1536 167.434C50.1644 168.202 50.9614 166.884 50.9769 166.858L53.5931 163.144L67.3968 140.893C61.1122 137.624 55.7482 133.324 51.6693 128.184V128.176C46.2321 121.319 43.0795 112.961 43.0794 103.572C43.0794 89.7284 49.9323 77.2751 60.8529 68.5869C61.4675 67.8202 62.1971 67.1645 63.015 66.624C63.0219 65.3484 63.0462 60.7199 63.0462 58.6465C63.0463 36.5015 78.7644 20 98.1536 20Z" fill="#276286"/>
<path d="M98.1536 20L98.1537 14H98.1536V20ZM129.572 41.0527L124.103 43.5222C125.012 45.5343 126.952 46.8848 129.155 47.0382C131.357 47.1916 133.466 46.1231 134.645 44.2565L129.572 41.0527ZM134.981 32.4873L140.054 35.691C140.058 35.6845 140.062 35.6781 140.066 35.6716L134.981 32.4873ZM139.065 31.5723L135.831 36.626C135.847 36.6365 135.864 36.647 135.88 36.6573L139.065 31.5723ZM139.979 35.6367L145.053 38.8388C145.057 38.8329 145.06 38.8269 145.064 38.821L139.979 35.6367ZM132.03 48.2334L126.955 45.0313C126.09 46.4034 125.816 48.0677 126.198 49.6446L132.03 48.2334ZM133.252 58.6465L139.252 58.6465L139.252 58.6465L133.252 58.6465ZM132.386 66.7236L126.455 65.8181C126.114 68.0519 127.057 70.2878 128.894 71.6029L132.386 66.7236ZM135.638 69.2324L131.805 73.8481C131.917 73.9412 132.032 74.0302 132.151 74.1149L135.638 69.2324ZM137.029 70.4277L132.718 74.6014C132.824 74.7104 132.933 74.8154 133.047 74.9161L137.029 70.4277ZM153.219 103.572V109.572C156.533 109.572 159.219 106.886 159.219 103.572H153.219ZM153.195 103.572V97.5723C149.881 97.5723 147.195 100.259 147.195 103.572L153.195 103.572ZM144.606 128.176L139.905 124.448L139.904 124.448L144.606 128.176ZM117.478 145.388L115.839 139.616C113.259 140.348 111.478 142.705 111.478 145.388H117.478ZM117.478 151.069H111.478C111.478 152.873 112.289 154.581 113.688 155.721C115.086 156.86 116.923 157.31 118.69 156.946L117.478 151.069ZM126.2 149.271V143.271C125.792 143.271 125.386 143.312 124.988 143.394L126.2 149.271ZM129.581 150.672L133.842 146.447C133.83 146.435 133.818 146.423 133.806 146.411L129.581 150.672ZM130.984 154.054L136.984 154.054L136.984 154.054L130.984 154.054ZM113.619 158.837L113.619 164.837H113.619V158.837ZM109.999 155.225L103.999 155.225L103.999 155.225L109.999 155.225ZM109.999 147.052H115.999C115.999 145.29 115.225 143.618 113.883 142.478C112.54 141.338 110.765 140.846 109.027 141.131L109.999 147.052ZM99.9115 147.985L99.7719 141.987C99.7621 141.987 99.7523 141.987 99.7425 141.988L99.9115 147.985ZM98.137 148.011L98.137 142.011L98.137 148.011ZM96.3636 147.985L96.6168 141.991C96.5789 141.989 96.541 141.988 96.5032 141.987L96.3636 147.985ZM81.4779 146.088L82.8718 140.252C81.0855 139.825 79.2022 140.24 77.7606 141.378C76.319 142.516 75.4779 144.251 75.4779 146.088H81.4779ZM81.4779 151.069H75.4779C75.4779 152.873 76.2894 154.581 77.6879 155.721C79.0863 156.86 80.9232 157.31 82.6898 156.946L81.4779 151.069ZM90.1995 149.271V143.271C89.7924 143.271 89.3863 143.312 88.9876 143.394L90.1995 149.271ZM93.5814 150.672L97.8417 146.447C97.8299 146.435 97.818 146.423 97.8061 146.411L93.5814 150.672ZM94.9837 154.054L100.984 154.054L100.984 154.054L94.9837 154.054ZM77.6195 158.837L77.6189 164.837H77.6195V158.837ZM73.9994 155.225L67.9994 155.225L67.9994 155.225L73.9994 155.225ZM73.9994 143.818H79.9994C79.9994 141.312 78.4417 139.07 76.0931 138.196L73.9994 143.818ZM71.7191 142.917L74.0389 137.384C71.3466 136.255 68.2325 137.228 66.6617 139.689L71.7191 142.917ZM57.2982 165.508L53.0555 169.75C54.3414 171.036 56.1409 171.67 57.9487 171.472C59.7564 171.275 61.3771 170.269 62.3556 168.736L57.2982 165.508ZM57.2972 165.507L61.5398 161.264C60.1813 159.906 58.2543 159.28 56.3568 159.581C54.4592 159.882 52.8207 161.074 51.9495 162.786L57.2972 165.507ZM50.4681 175.835L53.1738 181.19C53.1834 181.185 53.193 181.181 53.2025 181.176L50.4681 175.835ZM39.5247 176.723L39.9606 170.739C39.949 170.738 39.9374 170.737 39.9258 170.736L39.5247 176.723ZM34.9994 174.76L40.3839 172.113C40.2362 171.812 40.0635 171.525 39.8678 171.253L34.9994 174.76ZM32.1927 168.495L26.3065 169.658L26.3076 169.664L32.1927 168.495ZM34.5228 164.928L35.0878 170.901C35.2237 170.888 35.3592 170.871 35.4939 170.849L34.5228 164.928ZM41.7464 164.299L42.6086 158.361L42.6086 158.361L41.7464 164.299ZM49.1536 167.434L52.7855 162.658C52.7785 162.652 52.7715 162.647 52.7645 162.642L49.1536 167.434ZM50.9769 166.858L46.0713 163.404C45.9863 163.524 45.9058 163.648 45.8299 163.775L50.9769 166.858ZM53.5931 163.144L58.4987 166.598C58.5658 166.503 58.6302 166.406 58.6917 166.307L53.5931 163.144ZM67.3968 140.893L72.4954 144.056C73.3759 142.636 73.6249 140.914 73.1826 139.304C72.7403 137.693 71.6468 136.34 70.165 135.569L67.3968 140.893ZM51.6693 128.184H45.6693C45.6693 129.538 46.1274 130.852 46.9692 131.913L51.6693 128.184ZM51.6693 128.176H57.6693C57.6693 126.822 57.2115 125.508 56.3704 124.448L51.6693 128.176ZM43.0794 103.572L37.0794 103.572L37.0794 103.572L43.0794 103.572ZM60.8529 68.5869L64.5884 73.2822C64.9378 73.0042 65.2551 72.6881 65.5344 72.3397L60.8529 68.5869ZM63.015 66.624L66.3229 71.6298C67.9942 70.5254 69.004 68.6597 69.0149 66.6565L63.015 66.624ZM63.0462 58.6465L57.0462 58.6465V58.6465H63.0462ZM98.1536 20L98.1536 26C109.346 26 119.231 32.7331 124.103 43.5222L129.572 41.0527L135.04 38.5832C128.405 23.891 114.481 14 98.1537 14L98.1536 20ZM129.572 41.0527L134.645 44.2565L140.054 35.691L134.981 32.4873L129.908 29.2836L124.499 37.849L129.572 41.0527ZM134.981 32.4873L140.066 35.6716C139.158 37.1218 137.271 37.5476 135.831 36.626L139.065 31.5723L142.299 26.5185C138.11 23.8377 132.524 25.1052 129.895 29.303L134.981 32.4873ZM139.065 31.5723L135.88 36.6573C134.384 35.72 134.034 33.8247 134.894 32.4525L139.979 35.6367L145.064 38.821C147.644 34.7013 146.493 29.1451 142.249 26.4872L139.065 31.5723ZM139.979 35.6367L134.905 32.4347L126.955 45.0313L132.03 48.2334L137.104 51.4355L145.053 38.8388L139.979 35.6367ZM132.03 48.2334L126.198 49.6446C126.88 52.4648 127.252 55.4775 127.252 58.6465L133.252 58.6465L139.252 58.6465C139.252 54.5358 138.77 50.5753 137.861 46.8221L132.03 48.2334ZM133.252 58.6465H127.252C127.252 59.4109 127.091 61.0515 126.869 62.8142C126.767 63.6295 126.663 64.3788 126.585 64.9287C126.507 65.4775 126.455 65.8193 126.455 65.8181L132.386 66.7236L138.317 67.6292C138.325 67.5781 138.551 66.0998 138.775 64.3123C138.985 62.6496 139.252 60.2794 139.252 58.6465H133.252ZM132.386 66.7236L128.894 71.6029C129.892 72.317 130.863 73.0665 131.805 73.8481L135.638 69.2324L139.471 64.6167C138.309 63.6513 137.11 62.726 135.878 61.8444L132.386 66.7236ZM135.638 69.2324L132.151 74.1149C132.364 74.2675 132.553 74.4308 132.718 74.6014L137.029 70.4277L141.339 66.2541C140.659 65.5516 139.918 64.9158 139.125 64.35L135.638 69.2324ZM137.029 70.4277L133.047 74.9161C141.757 82.6433 147.219 92.8815 147.219 103.572H153.219H159.219C159.219 88.6943 151.663 75.3894 141.01 65.9393L137.029 70.4277ZM153.219 103.572V97.5723H153.195V103.572V109.572H153.219V103.572ZM153.195 103.572L147.195 103.572C147.195 111.55 144.538 118.605 139.905 124.448L144.606 128.176L149.307 131.904C155.548 124.034 159.195 114.373 159.195 103.572L153.195 103.572ZM144.606 128.176L139.904 124.448C134.436 131.344 126.084 136.708 115.839 139.616L117.478 145.388L119.116 151.16C131.378 147.679 142.034 141.075 149.307 131.904L144.606 128.176ZM117.478 145.388H111.478V151.069H117.478H123.478V145.388H117.478ZM117.478 151.069L118.69 156.946L127.412 155.147L126.2 149.271L124.988 143.394L116.266 145.193L117.478 151.069ZM126.2 149.271V155.271C125.846 155.271 125.549 155.123 125.357 154.932L129.581 150.672L133.806 146.411C131.865 144.487 129.168 143.271 126.2 143.271V149.271ZM129.581 150.672L125.321 154.897C125.137 154.711 124.984 154.411 124.984 154.054L130.984 154.054L136.984 154.054C136.984 151.052 135.746 148.367 133.842 146.447L129.581 150.672ZM130.984 154.054H124.984C124.984 153.369 125.518 152.837 126.2 152.837V158.837V164.837C132.142 164.837 136.984 159.999 136.984 154.054H130.984ZM126.2 158.837V152.837H113.619V158.837V164.837H126.2V158.837ZM113.619 158.837L113.62 152.837C114.93 152.837 115.999 153.888 115.999 155.224L109.999 155.225L103.999 155.225C104 160.535 108.321 164.836 113.619 164.837L113.619 158.837ZM109.999 155.225H115.999V147.052H109.999H103.999V155.225H109.999ZM109.999 147.052L109.027 141.131C106.042 141.622 102.948 141.913 99.7719 141.987L99.9115 147.985L100.051 153.984C103.779 153.897 107.43 153.554 110.972 152.972L109.999 147.052ZM99.9115 147.985L99.7425 141.988C99.2099 142.003 98.6717 142.011 98.137 142.011V148.011V154.011C98.7905 154.011 99.4415 154.001 100.08 153.983L99.9115 147.985ZM98.137 148.011L98.137 142.011C97.5274 142.011 97.0567 142.009 96.6168 141.991L96.3636 147.985L96.1104 153.98C96.8419 154.011 97.5589 154.011 98.137 154.011L98.137 148.011ZM96.3636 147.985L96.5032 141.987C91.7408 141.876 87.168 141.278 82.8718 140.252L81.4779 146.088L80.0839 151.924C85.2245 153.152 90.6391 153.854 96.224 153.984L96.3636 147.985ZM81.4779 146.088H75.4779V151.069H81.4779H87.4779V146.088H81.4779ZM81.4779 151.069L82.6898 156.946L91.4115 155.147L90.1995 149.271L88.9876 143.394L80.2659 145.193L81.4779 151.069ZM90.1995 149.271V155.271C89.8464 155.271 89.5492 155.123 89.3566 154.932L93.5814 150.672L97.8061 146.411C95.865 144.487 93.1682 143.271 90.1995 143.271V149.271ZM93.5814 150.672L89.321 154.897C89.1368 154.711 88.9837 154.411 88.9837 154.054L94.9837 154.054L100.984 154.054C100.984 151.052 99.7456 148.367 97.8417 146.447L93.5814 150.672ZM94.9837 154.054H88.9837C88.9837 153.369 89.5176 152.837 90.1995 152.837V158.837V164.837C96.1418 164.837 100.984 159.999 100.984 154.054H94.9837ZM90.1995 158.837V152.837H77.6195V158.837V164.837H90.1995V158.837ZM77.6195 158.837L77.62 152.837C78.9299 152.837 79.9993 153.888 79.9994 155.224L73.9994 155.225L67.9994 155.225C67.9996 160.535 72.3208 164.836 77.6189 164.837L77.6195 158.837ZM73.9994 155.225H79.9994V143.818H73.9994H67.9994V155.225H73.9994ZM73.9994 143.818L76.0931 138.196C75.3959 137.936 74.7111 137.665 74.0389 137.384L71.7191 142.917L69.3992 148.45C70.2263 148.797 71.0622 149.127 71.9056 149.441L73.9994 143.818ZM71.7191 142.917L66.6617 139.689L52.2408 162.279L57.2982 165.508L62.3556 168.736L76.7765 146.145L71.7191 142.917ZM57.2982 165.508L61.5408 161.265L61.5398 161.264L57.2972 165.507L53.0546 169.749L53.0555 169.75L57.2982 165.508ZM57.2972 165.507L51.9495 162.786C51.9519 162.781 50.8423 164.961 49.4996 167.239C48.8219 168.388 48.1489 169.453 47.5747 170.243C47.2856 170.64 47.0873 170.877 46.9829 170.989C46.7914 171.194 47.0572 170.841 47.7337 170.494L50.4681 175.835L53.2025 181.176C54.4107 180.557 55.2876 179.679 55.7588 179.173C56.3169 178.575 56.8327 177.915 57.281 177.299C58.1816 176.06 59.077 174.622 59.8367 173.333C61.3688 170.735 62.6105 168.295 62.6449 168.227L57.2972 165.507ZM50.4681 175.835L47.7624 170.48C48.2142 170.251 48.3153 170.309 47.578 170.437C47.0138 170.535 46.2435 170.627 45.33 170.695C43.4868 170.833 41.4465 170.847 39.9606 170.739L39.5247 176.723L39.0889 182.707C41.266 182.865 43.9064 182.835 46.2237 182.662C47.3904 182.575 48.5703 182.445 49.6338 182.26C50.5244 182.105 51.931 181.818 53.1738 181.19L50.4681 175.835ZM39.5247 176.723L39.9258 170.736C39.0103 170.675 38.9444 170.474 39.273 170.699C39.4198 170.8 39.6074 170.961 39.8073 171.202C39.9055 171.32 40.0037 171.454 40.1004 171.606C40.1487 171.682 40.1966 171.762 40.2439 171.846C40.2675 171.888 40.291 171.931 40.3144 171.976C40.326 171.998 40.3377 172.021 40.3493 172.043C40.3551 172.055 40.3609 172.066 40.3666 172.078C40.3695 172.084 40.3724 172.09 40.3753 172.095C40.3767 172.098 40.3789 172.103 40.3796 172.104C40.3818 172.108 40.3839 172.113 34.9994 174.76C29.6148 177.407 29.6169 177.411 29.6191 177.415C29.6198 177.417 29.622 177.421 29.6235 177.424C29.6264 177.43 29.6294 177.436 29.6324 177.442C29.6384 177.454 29.6445 177.466 29.6507 177.479C29.6631 177.503 29.676 177.528 29.6894 177.554C29.7162 177.604 29.7448 177.657 29.7756 177.712C29.837 177.822 29.9066 177.939 29.9852 178.062C30.1424 178.308 30.3353 178.579 30.5701 178.862C31.0433 179.432 31.6719 180.038 32.4898 180.598C34.1606 181.743 36.3575 182.524 39.1236 182.709L39.5247 176.723ZM34.9994 174.76L39.8678 171.253C39.9568 171.376 39.576 170.858 39.1218 170.01C38.6434 169.116 38.2404 168.145 38.0778 167.326L32.1927 168.495L26.3076 169.664C27.2286 174.301 30.0717 178.185 30.1309 178.267L34.9994 174.76ZM32.1927 168.495L38.0789 167.332C38.0903 167.39 38.1754 167.927 37.8882 168.685C37.5962 169.454 37.0912 169.999 36.6446 170.326C36.245 170.619 35.8993 170.737 35.7265 170.787C35.5371 170.843 35.3371 170.877 35.0878 170.901L34.5228 164.928L33.9578 158.954C33.6173 158.987 31.5442 159.188 29.5552 160.644C28.4502 161.453 27.3299 162.684 26.668 164.429C26.0109 166.162 25.9716 167.963 26.3065 169.658L32.1927 168.495ZM34.5228 164.928C35.4939 170.849 35.4936 170.849 35.4934 170.849C35.4933 170.849 35.4931 170.849 35.493 170.849C35.4927 170.849 35.4926 170.849 35.4925 170.849C35.4924 170.849 35.4926 170.849 35.4931 170.849C35.4942 170.849 35.4965 170.848 35.5 170.848C35.5071 170.846 35.5191 170.845 35.5358 170.842C35.5691 170.837 35.621 170.828 35.6892 170.818C35.8259 170.796 36.0273 170.765 36.2761 170.728C36.7768 170.654 37.4547 170.559 38.1758 170.473C38.9074 170.385 39.6272 170.313 40.2268 170.276C40.9548 170.231 41.0957 170.267 40.8843 170.237L41.7464 164.299L42.6086 158.361C41.4984 158.2 40.2869 158.249 39.4919 158.298C38.5686 158.355 37.5948 158.456 36.7452 158.558C35.8851 158.661 35.0941 158.773 34.5213 158.857C34.2333 158.9 33.9967 158.936 33.8296 158.962C33.746 158.976 33.6796 158.986 33.6326 158.994C33.6091 158.998 33.5904 159.001 33.5768 159.003C33.57 159.004 33.5645 159.005 33.5603 159.005C33.5582 159.006 33.5565 159.006 33.555 159.006C33.5543 159.006 33.5537 159.007 33.5531 159.007C33.5528 159.007 33.5525 159.007 33.5523 159.007C33.552 159.007 33.5517 159.007 34.5228 164.928ZM41.7464 164.299L40.8842 170.237C41.1929 170.281 42.0069 170.477 43.0425 170.891C44.0612 171.298 44.9525 171.781 45.5428 172.225L49.1536 167.434L52.7645 162.642C49.5828 160.244 45.2793 158.749 42.6086 158.361L41.7464 164.299ZM49.1536 167.434L45.5218 172.21C46.8163 173.194 48.4788 173.789 50.3005 173.656C51.9745 173.533 53.2187 172.837 53.9524 172.307C55.3005 171.333 56.0129 170.127 56.1239 169.942L50.9769 166.858L45.8299 163.775C45.9254 163.615 46.2315 163.081 46.9246 162.581C47.3308 162.287 48.1852 161.778 49.425 161.688C50.8125 161.586 51.9964 162.058 52.7855 162.658L49.1536 167.434ZM50.9769 166.858L55.8824 170.313L58.4987 166.598L53.5931 163.144L48.6875 159.689L46.0713 163.404L50.9769 166.858ZM53.5931 163.144L58.6917 166.307L72.4954 144.056L67.3968 140.893L62.2982 137.73L48.4945 159.981L53.5931 163.144ZM67.3968 140.893L70.165 135.569C64.5465 132.648 59.8686 128.864 56.3693 124.454L51.6693 128.184L46.9692 131.913C51.6279 137.784 57.6778 142.601 64.6287 146.216L67.3968 140.893ZM51.6693 128.184H57.6693V128.176H51.6693H45.6693V128.184H51.6693ZM51.6693 128.176L56.3704 124.448C51.7372 118.605 49.0795 111.549 49.0794 103.572L43.0794 103.572L37.0794 103.572C37.0795 114.374 40.727 124.034 46.9681 131.904L51.6693 128.176ZM43.0794 103.572H49.0794C49.0794 91.8103 54.8877 80.9999 64.5884 73.2822L60.8529 68.5869L57.1174 63.8916C44.9769 73.5503 37.0794 87.6465 37.0794 103.572H43.0794ZM60.8529 68.5869L65.5344 72.3397C65.7408 72.0822 66.0003 71.8429 66.3229 71.6298L63.015 66.624L59.7071 61.6183C58.3938 62.4861 57.1942 63.5582 56.1713 64.8341L60.8529 68.5869ZM63.015 66.624L69.0149 66.6565C69.0218 65.388 69.0462 60.74 69.0462 58.6465H63.0462H57.0462C57.0462 60.6997 57.022 65.3089 57.0151 66.5915L63.015 66.624ZM63.0462 58.6465L69.0462 58.6465C69.0463 39.3447 82.5298 26 98.1536 26V20V14C74.999 14 57.0463 33.6583 57.0462 58.6465L63.0462 58.6465Z" fill="white" mask="url(#path-3-outside-2_1062_29551)"/>
<ellipse cx="138" cy="181" rx="12" ry="5" fill="#737373"/>
<path d="M147 180C147 184.971 143.471 185 138.5 185C133.529 185 129 184.971 129 180C129 175.029 133.029 171 138 171C142.971 171 147 175.029 147 180Z" fill="#CDCCCC"/>
<path d="M138 176C141.402 176 144.473 176.591 146.656 177.539C146.878 178.321 147 179.146 147 180C147 181.8 146.469 183.475 145.559 184.882C143.495 185.58 140.865 186 138 186C135.134 186 132.504 185.58 130.44 184.882C129.53 183.475 129 181.8 129 180C129 179.147 129.121 178.321 129.343 177.539C131.527 176.591 134.598 176 138 176Z" fill="#CDCCCC"/>
<path d="M130.984 154.054C130.984 156.684 128.83 158.837 126.2 158.837H113.62C111.626 158.837 110 157.211 110 155.224V115.62C110 113.626 111.626 112 113.62 112H113.859C115.853 112 117.479 113.626 117.479 115.62V151.07L126.2 149.27C127.508 149.27 128.707 149.805 129.582 150.672C130.442 151.539 130.984 152.732 130.984 154.054Z" fill="#474747"/>
<path d="M94.9836 154.054C94.9836 156.684 92.8303 158.837 90.2001 158.837H77.6201C75.6258 158.837 74 157.211 74 155.224V115.62C74 113.626 75.6258 112 77.6201 112H77.8586C79.8529 112 81.4787 113.626 81.4787 115.62V151.07L90.2001 149.27C91.508 149.27 92.7075 149.805 93.5818 150.672C94.4416 151.539 94.9836 152.732 94.9836 154.054Z" fill="#474747"/>
<path d="M153.195 103.572C153.195 112.961 150.043 121.319 144.606 128.176C135.126 140.131 118.707 147.548 99.9113 147.986C99.3255 148.002 98.7314 148.011 98.1374 148.011C97.5433 148.011 96.9493 148.011 96.3635 147.986C77.5682 147.548 61.1492 140.131 51.6691 128.184C51.6691 128.184 51.6691 128.184 51.6691 128.176C46.2319 121.319 43.0801 112.961 43.0801 103.572C43.0801 88.8361 50.844 75.6761 63.0139 66.9551C63.0139 66.9551 63.0469 61.064 63.0469 58.6466C63.0469 36.5015 78.7646 20 98.1539 20C117.543 20 133.253 36.5015 133.253 58.6466C133.253 61.0558 132.386 66.724 132.386 66.724C144.573 75.4451 153.219 88.8361 153.219 103.572H153.195Z" fill="#4B9AE8"/>
<path d="M79.8072 50.3961C76.1982 50.3961 73.2726 47.4705 73.2726 43.8615C73.2726 40.2525 76.1982 37.3269 79.8072 37.3269C83.4161 37.3269 86.3418 40.2525 86.3418 43.8615C86.3418 47.4705 83.4161 50.3961 79.8072 50.3961Z" fill="white"/>
<path d="M80.9183 48.8262C78.7547 48.8262 77.0007 47.0722 77.0007 44.9086C77.0007 42.7449 78.7547 40.991 80.9183 40.991C83.0819 40.991 84.8359 42.7449 84.8359 44.9086C84.8359 47.0722 83.0819 48.8262 80.9183 48.8262Z" fill="black"/>
<path d="M114.461 47.9208C110.853 47.9208 107.927 44.9951 107.927 41.3862C107.927 37.7772 110.853 34.8516 114.461 34.8516C118.07 34.8516 120.996 37.7772 120.996 41.3862C120.996 44.9951 118.07 47.9208 114.461 47.9208Z" fill="white"/>
<path d="M115.006 46.8352C112.843 46.8352 111.089 45.0813 111.089 42.9176C111.089 40.754 112.843 39 115.006 39C117.17 39 118.924 40.754 118.924 42.9176C118.924 45.0813 117.17 46.8352 115.006 46.8352Z" fill="black"/>
<path d="M105.521 51.2297C105.279 54.4378 100.942 59.1462 97.4896 58.921C94.0373 58.6958 90.4559 53.4669 90.7014 50.2588C90.9437 47.0506 93.4016 44.597 98.5533 44.9333C103.765 45.2755 105.766 48.0216 105.521 51.2297Z" fill="#EAC00F"/>
<path d="M106.467 106.594L106.46 106.592C106.46 106.592 106.441 106.618 106.425 106.623C103.972 107.972 101.195 109.241 98.1844 110.181C98.0436 110.229 97.8969 110.268 97.749 110.315C97.4615 110.403 97.1682 110.482 96.8736 110.568C96.4014 110.704 95.9188 110.815 95.4303 110.918C94.4722 111.141 93.4849 111.323 92.4866 111.444C90.636 111.69 88.7412 111.774 86.804 111.645C85.0104 111.535 83.1991 111.238 81.3693 110.717C79.0612 110.08 76.7137 109.091 74.385 107.673C73.1593 106.938 71.9365 106.064 70.713 105.072C68.1707 103.006 66.1181 100.749 64.4757 98.3748L64.4686 98.3735C62.0477 94.8605 60.5126 91.1181 59.6314 87.3321C59.6327 87.325 59.6269 87.3166 59.6295 87.3023C59.6022 87.2093 59.5762 87.1092 59.5573 87.0103C59.4844 86.6815 59.4116 86.3526 59.3387 86.0237C59.3329 86.0153 59.3367 85.994 59.338 85.9869C59.2736 85.6522 59.2175 85.3117 59.1543 84.9699C59.1465 84.9318 59.1361 84.9079 59.1342 84.8782C58.531 81.179 58.4825 77.4991 58.7632 74.0695C58.7689 73.9971 58.7805 73.9331 58.7862 73.8607C58.8899 72.756 59.1515 71.7533 59.5309 70.8305C59.5431 70.8033 59.547 70.782 59.5592 70.7548C60.9203 67.564 63.8134 65.5674 67.2819 64.9814C68.9263 64.6979 70.6946 64.7451 72.4893 65.1349C74.9343 65.6639 77.4268 66.8256 79.7186 68.6927L82.0939 70.6262L105.518 89.6673C111.812 94.7892 112.31 103.345 106.471 106.572L106.467 106.594Z" fill="#155277"/>
<path d="M57.2976 165.507C57.2976 165.507 52.6019 174.742 50.4679 175.835C48.886 176.634 43.1873 176.99 39.5243 176.723C35.8425 176.476 34.9992 174.76 34.9992 174.76C34.9992 174.76 32.8439 171.773 32.1929 168.495C31.5412 165.198 34.523 164.927 34.523 164.927C34.523 164.927 39.9485 164.038 41.7461 164.299C43.5437 164.56 46.8718 165.714 49.1531 167.433C50.174 168.21 50.9767 166.858 50.9767 166.858L53.5926 163.143L57.2976 165.507Z" fill="#504F4F"/>
<path d="M53.5928 163.144L57.2978 165.508L120.916 65.8481L115.917 62.6794L53.5928 163.144Z" fill="#7C7D7D"/>
<path d="M115.919 62.6777L120.918 65.8463L139.98 35.6365C140.84 34.2626 140.439 32.4323 139.066 31.572C137.691 30.6924 135.842 31.1134 134.982 32.4872L115.919 62.6777Z" fill="#504F4F"/>
<path d="M86.9013 101.78H86.9085C86.9085 101.78 86.9229 101.809 86.9374 101.816C89.1123 103.579 91.6197 105.32 94.416 106.78C94.5461 106.852 94.6834 106.917 94.8207 106.99C95.088 107.127 95.3626 107.257 95.6372 107.394C96.078 107.611 96.5332 107.806 96.9956 107.994C97.8989 108.384 98.8382 108.738 99.7992 109.035C101.577 109.605 103.427 110.024 105.356 110.241C107.141 110.451 108.976 110.48 110.869 110.292C113.254 110.075 115.739 109.519 118.283 108.536C119.619 108.03 120.978 107.387 122.358 106.628C125.227 105.046 127.647 103.189 129.685 101.144H129.692C132.698 98.1164 134.873 94.7059 136.412 91.1363C136.412 91.1291 136.419 91.1219 136.419 91.1074C136.463 91.0207 136.506 90.9268 136.542 90.8329C136.672 90.5221 136.802 90.2114 136.932 89.9007C136.94 89.8935 136.94 89.8718 136.94 89.8646C137.062 89.5467 137.178 89.2215 137.301 88.8964C137.315 88.8602 137.33 88.8386 137.337 88.8096C138.587 85.2763 139.288 81.6634 139.62 78.2384C139.628 78.1661 139.628 78.1011 139.635 78.0288C139.729 76.9233 139.649 75.89 139.44 74.9145C139.432 74.8856 139.432 74.864 139.425 74.8351C138.652 71.4534 136.159 68.975 132.85 67.7827C131.282 67.2119 129.533 66.9445 127.698 67.0096C125.198 67.0963 122.539 67.7972 119.952 69.2279L117.271 70.7091L90.8393 85.2907C83.7364 89.2143 81.7276 97.5456 86.9013 101.758V101.78Z" fill="#276286"/>
</svg>
