<svg width="200" height="200" viewBox="0 0 200 200" fill="none" xmlns="http://www.w3.org/2000/svg">
<mask id="path-1-outside-1_1062_20867" maskUnits="userSpaceOnUse" x="15" y="15" width="170" height="170" fill="black">
<rect fill="white" x="15" y="15" width="170" height="170"/>
<path d="M97.8379 22.2656C98.6817 20.5782 101.044 20.5781 101.888 22.2656L115.381 49.2519C115.678 49.1694 115.99 49.125 116.31 49.125H118.824C120.69 49.125 122.205 50.5436 122.249 52.3994V74.0166C122.249 75.9066 121.31 77.25 119.438 77.25H116.625C119.461 77.25 122.25 77.25 122.249 82.875V107.176L141.485 67.6494C142.851 65.45 146.649 65.45 148.015 67.6494L169.681 112.168C170.328 111.451 171.29 111 172.371 111H174.957C176.925 111 178.5 112.497 178.5 114.368V119.929L178.443 178.5H82.875V178.423L82.7402 178.5H21V114.368C21 112.497 22.743 111 24.7109 111H27.3535C28.3538 111 29.2527 111.387 29.8945 112.013L51.4854 67.6494C52.8507 65.45 56.6493 65.4499 58.0146 67.6494L77.25 107.174V82.875C77.25 77.25 80.0394 77.25 82.875 77.25H80.0625C78.1899 77.25 77.25 75.9066 77.25 74.0166V52.581C77.25 50.6912 78.8022 49.125 80.6748 49.125H83.1895C83.5833 49.125 83.9615 49.1907 84.3135 49.3115L97.8379 22.2656ZM51.9375 50.8457C51.9375 49.6924 53.0737 48.8688 54.21 49.1982L67.4814 55.5371C68.0153 55.7921 68.0148 56.5524 67.4805 56.8066L54.2666 63.0917C53.1303 63.4759 51.9375 62.6523 51.9375 61.4443V50.8457ZM141.938 50.8457C141.938 49.6924 143.074 48.8687 144.21 49.1982L157.481 55.5371C158.015 55.7921 158.015 56.5524 157.48 56.8066L144.267 63.0917C143.13 63.4761 141.938 62.6524 141.938 61.4443V50.8457Z"/>
</mask>
<path d="M97.8379 22.2656C98.6817 20.5782 101.044 20.5781 101.888 22.2656L115.381 49.2519C115.678 49.1694 115.99 49.125 116.31 49.125H118.824C120.69 49.125 122.205 50.5436 122.249 52.3994V74.0166C122.249 75.9066 121.31 77.25 119.438 77.25H116.625C119.461 77.25 122.25 77.25 122.249 82.875V107.176L141.485 67.6494C142.851 65.45 146.649 65.45 148.015 67.6494L169.681 112.168C170.328 111.451 171.29 111 172.371 111H174.957C176.925 111 178.5 112.497 178.5 114.368V119.929L178.443 178.5H82.875V178.423L82.7402 178.5H21V114.368C21 112.497 22.743 111 24.7109 111H27.3535C28.3538 111 29.2527 111.387 29.8945 112.013L51.4854 67.6494C52.8507 65.45 56.6493 65.4499 58.0146 67.6494L77.25 107.174V82.875C77.25 77.25 80.0394 77.25 82.875 77.25H80.0625C78.1899 77.25 77.25 75.9066 77.25 74.0166V52.581C77.25 50.6912 78.8022 49.125 80.6748 49.125H83.1895C83.5833 49.125 83.9615 49.1907 84.3135 49.3115L97.8379 22.2656ZM51.9375 50.8457C51.9375 49.6924 53.0737 48.8688 54.21 49.1982L67.4814 55.5371C68.0153 55.7921 68.0148 56.5524 67.4805 56.8066L54.2666 63.0917C53.1303 63.4759 51.9375 62.6523 51.9375 61.4443V50.8457ZM141.938 50.8457C141.938 49.6924 143.074 48.8687 144.21 49.1982L157.481 55.5371C158.015 55.7921 158.015 56.5524 157.48 56.8066L144.267 63.0917C143.13 63.4761 141.938 62.6524 141.938 61.4443V50.8457Z" fill="black"/>
<path d="M97.8379 22.2656L103.204 24.9491L103.204 24.9491L97.8379 22.2656ZM101.888 22.2656L107.254 19.5823L101.888 22.2656ZM115.381 49.2519L110.014 51.9352C111.298 54.5023 114.22 55.8009 116.985 55.0334L115.381 49.2519ZM122.249 52.3994H128.249C128.249 52.3515 128.248 52.3037 128.247 52.2559L122.249 52.3994ZM116.625 71.25C113.311 71.25 110.625 73.9362 110.625 77.25C110.625 80.5637 113.311 83.25 116.625 83.25V71.25ZM122.249 82.875L116.249 82.8738V82.875H122.249ZM122.249 107.176H116.249C116.249 109.97 118.178 112.395 120.902 113.023C123.625 113.65 126.421 112.314 127.644 109.801L122.249 107.176ZM141.485 67.6494L136.388 64.4849C136.279 64.6593 136.18 64.8392 136.09 65.0238L141.485 67.6494ZM148.015 67.6494L153.41 65.0238C153.32 64.8392 153.221 64.6593 153.112 64.4849L148.015 67.6494ZM169.681 112.168L164.286 114.794C165.158 116.586 166.864 117.828 168.837 118.108C170.811 118.389 172.795 117.67 174.132 116.191L169.681 112.168ZM178.5 114.368L184.5 114.368L184.5 114.368L178.5 114.368ZM178.5 119.929L184.5 119.934V119.929H178.5ZM178.443 178.5V184.5C181.755 184.5 184.44 181.817 184.443 178.506L178.443 178.5ZM82.875 178.5H76.875C76.875 181.814 79.5613 184.5 82.875 184.5V178.5ZM82.875 178.423H88.875C88.875 176.283 87.7356 174.305 85.8845 173.232C84.0335 172.159 81.751 172.153 79.8941 173.216L82.875 178.423ZM82.7402 178.5V184.5C83.786 184.5 84.8136 184.227 85.7211 183.707L82.7402 178.5ZM21 178.5H15C15 181.814 17.6863 184.5 21 184.5V178.5ZM21 114.368L15 114.368V114.368H21ZM24.7109 111L24.7109 105L24.7106 105L24.7109 111ZM29.8945 112.013L25.7054 116.308C27.0848 117.653 29.0263 118.254 30.9244 117.924C32.8225 117.593 34.4464 116.371 35.2895 114.638L29.8945 112.013ZM51.4854 67.6494L46.3877 64.4849C46.2794 64.6593 46.1802 64.8391 46.0904 65.0237L51.4854 67.6494ZM58.0146 67.6494L63.4097 65.0238C63.3198 64.8392 63.2206 64.6593 63.1123 64.4849L58.0146 67.6494ZM77.25 107.174L71.855 109.799C73.0779 112.312 75.8739 113.648 78.5972 113.021C81.3205 112.393 83.25 109.968 83.25 107.174H77.25ZM82.875 83.25C86.1887 83.25 88.875 80.5637 88.875 77.25C88.875 73.9362 86.1887 71.25 82.875 71.25V83.25ZM83.1895 49.125L83.1895 43.125H83.1895V49.125ZM84.3135 49.3115L82.3657 54.9865C85.2089 55.9624 88.3355 54.6836 89.6799 51.995L84.3135 49.3115ZM54.21 49.1982L56.7959 43.7841C56.5007 43.6431 56.1945 43.5264 55.8803 43.4354L54.21 49.1982ZM67.4814 55.5371L70.068 50.1232L70.0674 50.1229L67.4814 55.5371ZM67.4805 56.8066L70.0577 62.2249L70.0578 62.2248L67.4805 56.8066ZM54.2666 63.0917L56.1883 68.7757C56.4118 68.7001 56.6307 68.6114 56.8438 68.5101L54.2666 63.0917ZM144.21 49.1982L146.796 43.7841C146.501 43.6432 146.195 43.5267 145.881 43.4356L144.21 49.1982ZM157.481 55.5371L160.068 50.1232L160.067 50.1229L157.481 55.5371ZM157.48 56.8066L160.058 62.2249L160.058 62.2248L157.48 56.8066ZM144.267 63.0917L146.189 68.7754C146.412 68.6999 146.631 68.6113 146.844 68.5101L144.267 63.0917ZM97.8379 22.2656L103.204 24.9491C101.837 27.6833 97.8887 27.6841 96.5211 24.9489L101.888 22.2656L107.254 19.5823C104.199 13.4721 95.5263 13.4731 92.4714 19.5821L97.8379 22.2656ZM101.888 22.2656L96.5211 24.9489L110.014 51.9352L115.381 49.2519L120.747 46.5686L107.254 19.5823L101.888 22.2656ZM115.381 49.2519L116.985 55.0334C116.775 55.0917 116.548 55.125 116.31 55.125V49.125V43.125C115.432 43.125 114.581 43.2472 113.776 43.4704L115.381 49.2519ZM116.31 49.125V55.125H118.824V49.125V43.125H116.31V49.125ZM118.824 49.125V55.125C117.585 55.125 116.288 54.0951 116.251 52.5429L122.249 52.3994L128.247 52.2559C128.121 46.9921 123.794 43.125 118.824 43.125V49.125ZM122.249 52.3994H116.249V74.0166H122.249H128.249V52.3994H122.249ZM122.249 74.0166H116.249C116.249 74.0026 116.25 73.8502 116.325 73.5981C116.402 73.3405 116.567 72.9506 116.905 72.539C117.255 72.1121 117.715 71.7556 118.239 71.5237C118.75 71.2976 119.183 71.25 119.438 71.25V77.25V83.25C121.94 83.25 124.438 82.278 126.186 80.145C127.795 78.1818 128.249 75.8713 128.249 74.0166H122.249ZM119.438 77.25V71.25H116.625V77.25V83.25H119.438V77.25ZM116.625 77.25V83.25C116.996 83.25 117.255 83.2505 117.491 83.2579C117.72 83.2652 117.846 83.2771 117.908 83.2854C117.969 83.2934 117.913 83.291 117.783 83.2485C117.646 83.2035 117.422 83.1123 117.166 82.941C116.902 82.7645 116.666 82.5448 116.478 82.3028C116.295 82.0669 116.207 81.8733 116.173 81.7857C116.142 81.7056 116.164 81.7331 116.192 81.9186C116.22 82.1045 116.249 82.4123 116.249 82.8738L122.249 82.875L128.249 82.8762C128.25 79.2887 127.365 75.3249 123.836 72.9651C120.975 71.0525 117.517 71.25 116.625 71.25V77.25ZM122.249 82.875H116.249V107.176H122.249H128.249V82.875H122.249ZM122.249 107.176L127.644 109.801L146.88 70.275L141.485 67.6494L136.09 65.0238L116.854 104.55L122.249 107.176ZM141.485 67.6494L146.583 70.8138C145.907 71.9036 144.977 71.9999 144.75 71.9999C144.523 71.9999 143.593 71.9036 142.917 70.8138L148.015 67.6494L153.112 64.4849C151.071 61.1958 147.559 59.9999 144.75 59.9999C141.941 59.9999 138.429 61.1958 136.388 64.4849L141.485 67.6494ZM148.015 67.6494L142.62 70.275L164.286 114.794L169.681 112.168L175.076 109.542L153.41 65.0238L148.015 67.6494ZM169.681 112.168L174.132 116.191C173.638 116.737 172.981 117 172.371 117V111V105C169.6 105 167.019 106.165 165.229 108.145L169.681 112.168ZM172.371 111V117H174.957V111V105H172.371V111ZM174.957 111V117C173.902 117 172.5 116.093 172.5 114.368L178.5 114.368L184.5 114.368C184.5 108.9 179.949 105 174.957 105V111ZM178.5 114.368H172.5V119.929H178.5H184.5V114.368H178.5ZM178.5 119.929L172.5 119.923L172.443 178.494L178.443 178.5L184.443 178.506L184.5 119.934L178.5 119.929ZM178.443 178.5V172.5H82.875V178.5V184.5H178.443V178.5ZM82.875 178.5H88.875V178.423H82.875H76.875V178.5H82.875ZM82.875 178.423L79.8941 173.216L79.7593 173.293L82.7402 178.5L85.7211 183.707L85.8559 183.63L82.875 178.423ZM82.7402 178.5V172.5H21V178.5V184.5H82.7402V178.5ZM21 178.5H27V114.368H21H15V178.5H21ZM21 114.368L27 114.368C27 115.375 26.522 116.094 26.1114 116.46C25.7166 116.812 25.2302 117 24.7113 117L24.7109 111L24.7106 105C20.0926 105 15 108.556 15 114.368L21 114.368ZM24.7109 111V117H27.3535V111V105H24.7109V111ZM27.3535 111V117C26.789 117 26.1845 116.775 25.7054 116.308L29.8945 112.013L34.0836 107.717C32.3208 105.998 29.9185 105 27.3535 105V111ZM29.8945 112.013L35.2895 114.638L56.8803 70.275L51.4854 67.6494L46.0904 65.0237L24.4995 109.387L29.8945 112.013ZM51.4854 67.6494L56.583 70.8138C55.9066 71.9035 54.9775 71.9998 54.75 71.9998C54.5225 71.9998 53.5934 71.9035 52.917 70.8138L58.0146 67.6494L63.1123 64.4849C61.0706 61.1958 57.5595 59.9998 54.75 59.9998C51.9405 59.9998 48.4294 61.1958 46.3877 64.4849L51.4854 67.6494ZM58.0146 67.6494L52.6196 70.275L71.855 109.799L77.25 107.174L82.645 104.548L63.4097 65.0238L58.0146 67.6494ZM77.25 107.174H83.25V82.875H77.25H71.25V107.174H77.25ZM77.25 82.875H83.25C83.25 82.4135 83.279 82.1057 83.3073 81.9198C83.3355 81.7341 83.3574 81.7066 83.3265 81.7866C83.2927 81.8741 83.2041 82.0675 83.021 82.3033C82.8332 82.5451 82.5976 82.7647 82.3337 82.9412C82.0775 83.1124 81.8542 83.2035 81.7166 83.2486C81.587 83.291 81.5309 83.2934 81.5915 83.2854C81.654 83.2771 81.7799 83.2652 82.0087 83.2579C82.2454 83.2505 82.5035 83.25 82.875 83.25V77.25V71.25C81.983 71.25 78.5255 71.0525 75.6647 72.965C72.1353 75.3243 71.25 79.2874 71.25 82.875H77.25ZM82.875 77.25V71.25H80.0625V77.25V83.25H82.875V77.25ZM80.0625 77.25V71.25C80.3167 71.25 80.7498 71.2976 81.2604 71.5235C81.7841 71.7551 82.2441 72.1112 82.5939 72.5378C82.9312 72.9492 83.0964 73.339 83.1736 73.5969C83.2493 73.8492 83.25 74.0021 83.25 74.0166H77.25H71.25C71.25 75.8726 71.7049 78.1833 73.3142 80.1462C75.0622 82.2782 77.5607 83.25 80.0625 83.25V77.25ZM77.25 74.0166H83.25V52.581H77.25H71.25V74.0166H77.25ZM77.25 52.581H83.25C83.25 53.9536 82.167 55.125 80.6748 55.125V49.125V43.125C75.4375 43.125 71.25 47.4288 71.25 52.581H77.25ZM80.6748 49.125V55.125H83.1895V49.125V43.125H80.6748V49.125ZM83.1895 49.125L83.1894 55.125C82.9121 55.125 82.6325 55.0781 82.3657 54.9865L84.3135 49.3115L86.2612 43.6364C85.2904 43.3032 84.2546 43.125 83.1895 43.125L83.1895 49.125ZM84.3135 49.3115L89.6799 51.995L103.204 24.9491L97.8379 22.2656L92.4714 19.5821L78.947 46.628L84.3135 49.3115ZM51.9375 50.8457H57.9375C57.9375 53.9142 55.0214 55.6803 52.5396 54.961L54.21 49.1982L55.8803 43.4354C51.1259 42.0574 45.9375 45.4707 45.9375 50.8457H51.9375ZM54.21 49.1982L51.624 54.6123L64.8955 60.9512L67.4814 55.5371L70.0674 50.1229L56.7959 43.7841L54.21 49.1982ZM67.4814 55.5371L64.8949 60.9509C60.8759 59.0308 60.8755 53.3042 64.9031 51.3884L67.4805 56.8066L70.0578 62.2248C75.1542 59.8006 75.1546 52.5534 70.068 50.1232L67.4814 55.5371ZM67.4805 56.8066L64.9033 51.3883L51.6894 57.6734L54.2666 63.0917L56.8438 68.5101L70.0577 62.2249L67.4805 56.8066ZM54.2666 63.0917L52.3449 57.4078C54.9605 56.5235 57.9375 58.4016 57.9375 61.4443H51.9375H45.9375C45.9375 66.903 51.3002 70.4283 56.1883 68.7757L54.2666 63.0917ZM51.9375 61.4443H57.9375V50.8457H51.9375H45.9375V61.4443H51.9375ZM141.938 50.8457H147.938C147.938 53.9134 145.022 55.6808 142.539 54.9608L144.21 49.1982L145.881 43.4356C141.126 42.0565 135.938 45.4713 135.938 50.8457H141.938ZM144.21 49.1982L141.624 54.6123L154.895 60.9512L157.481 55.5371L160.067 50.1229L146.796 43.7841L144.21 49.1982ZM157.481 55.5371L154.895 60.9509C150.876 59.0308 150.876 53.3042 154.903 51.3884L157.48 56.8066L160.058 62.2248C165.154 59.8006 165.155 52.5534 160.068 50.1232L157.481 55.5371ZM157.48 56.8066L154.903 51.3883L141.689 57.6734L144.267 63.0917L146.844 68.5101L160.058 62.2249L157.48 56.8066ZM144.267 63.0917L142.344 57.4081C144.961 56.5229 147.938 58.4024 147.938 61.4443H141.938H135.938C135.938 66.9024 141.3 70.4292 146.189 68.7754L144.267 63.0917ZM141.938 61.4443H147.938V50.8457H141.938H135.938V61.4443H141.938Z" fill="white" mask="url(#path-1-outside-1_1062_20867)"/>
<path d="M115.106 56.0719H84.6187C82.9312 56.0719 81.8062 54.2719 82.5937 52.7531L97.8375 22.2656C98.6812 20.5781 101.044 20.5781 101.887 22.2656L117.131 52.7531C117.919 54.2719 116.794 56.0719 115.106 56.0719ZM79.2052 122.25H30.295C27.5645 122.25 25.7838 119.904 27.0303 117.9L51.4854 67.6498C52.8506 65.4501 56.6494 65.4501 58.0146 67.6498L82.4694 117.9C83.7159 119.904 81.9356 122.25 79.2052 122.25ZM120.295 122.25H169.205C171.936 122.25 173.716 119.904 172.469 117.9L148.015 67.6498C146.65 65.4501 142.85 65.4501 141.485 67.6498L117.031 117.9C115.784 119.904 117.564 122.25 120.295 122.25Z" fill="#EAC00F"/>
<path d="M118.824 49.125H116.309C114.437 49.125 112.832 50.6368 112.885 52.5267C112.938 54.4705 111.387 56.0363 109.46 56.0363H107.856C105.983 56.0363 104.378 54.5245 104.431 52.6347C104.485 50.6908 102.933 49.125 101.007 49.125H98.4917C96.6191 49.125 95.0143 50.6368 95.0677 52.5267C95.1212 54.4705 93.5692 56.0363 91.6432 56.0363H90.0379C88.1653 56.0363 86.5599 54.5245 86.6134 52.6347C86.6668 50.6908 85.1154 49.125 83.1894 49.125H80.6745C78.8019 49.125 77.25 50.6908 77.25 52.5807V74.0168C77.25 75.9068 78.1899 77.25 80.0625 77.25H82.875C80.0394 77.25 77.25 77.25 77.25 82.875V144.75H122.249V82.875C122.25 77.25 119.461 77.25 116.625 77.25H119.438C121.31 77.25 122.249 75.9068 122.249 74.0168V52.5807C122.302 50.6369 120.75 49.125 118.824 49.125Z" fill="#3983CC"/>
<path d="M178.5 117.736V119.929L178.444 178.5H116.385L99.5627 168.952L82.7406 178.5H21V114.368C21 112.497 22.7431 111 24.7111 111H27.354C29.322 111 30.8965 112.497 30.8965 114.368C30.8965 116.24 32.4709 117.736 34.439 117.736H36.0696C38.0377 117.736 39.6121 116.24 39.6121 114.368C39.6121 112.497 41.1866 111 43.1546 111H45.7412C47.7092 111 49.2836 112.497 49.2836 114.368C49.2836 116.24 50.8581 117.736 52.8261 117.736H54.513C56.4811 117.736 58.0555 116.24 58.0555 114.368C58.0555 112.497 59.63 111 61.598 111H64.2408C66.2087 111 67.7831 112.497 67.7831 114.368C67.7831 116.24 69.3576 117.736 71.3258 117.736H73.0689C75.0371 117.736 76.6116 116.24 76.6116 114.368C76.6116 112.497 78.186 111 80.1536 111H82.7406C84.7087 111 86.2832 112.497 86.2832 114.368C86.2832 116.24 87.8576 117.736 89.8253 117.736H91.4559C93.4241 117.736 94.9986 116.24 94.9986 114.368C94.9986 112.497 96.573 111 98.5412 111H101.353C103.321 111 104.895 112.497 104.895 114.368C104.895 116.24 106.47 117.736 108.437 117.736H110.068C112.036 117.736 113.611 116.24 113.611 114.368C113.611 112.497 115.185 111 117.153 111H119.74C121.708 111 123.282 112.497 123.282 114.368C123.282 116.24 124.857 117.736 126.825 117.736H128.456C130.424 117.736 131.998 116.24 131.998 114.368C131.998 112.497 133.573 111 135.54 111H138.183C140.151 111 141.725 112.497 141.725 114.368C141.725 116.24 143.3 117.736 145.268 117.736H146.899C148.867 117.736 150.441 116.24 150.441 114.368C150.441 112.497 152.016 111 153.984 111H156.57C158.539 111 160.113 112.497 160.113 114.368C160.113 116.24 161.687 117.736 163.655 117.736H165.286C167.254 117.736 168.828 116.24 168.828 114.368C168.828 112.497 170.403 111 172.371 111H174.957C176.926 111 178.5 112.497 178.5 114.368V117.736Z" fill="#4B9AE8"/>
<path d="M94.125 88.5H105.375V82.875C105.375 79.7419 102.812 77.25 99.75 77.25C96.6169 77.25 94.125 79.8133 94.125 82.875V88.5ZM82.875 178.5H116.573V160.327C116.573 150.312 109.087 144.75 99.75 144.75C90.4648 144.75 82.875 150.256 82.875 160.327V178.5Z" fill="#276288"/>
<path d="M51.9375 50.8457V61.4446C51.9375 62.6528 53.1307 63.4766 54.267 63.0921L67.4805 56.8063C68.0149 56.5521 68.0154 55.7919 67.4816 55.5369L54.2102 49.1982C53.0739 48.8687 51.9375 49.6924 51.9375 50.8457ZM141.938 50.8457V61.4446C141.938 62.6528 143.131 63.4766 144.267 63.0921L157.481 56.8063C158.015 56.5521 158.015 55.7919 157.482 55.5369L144.21 49.1982C143.074 48.8687 141.938 49.6924 141.938 50.8457Z" fill="#184878"/>
<path d="M88.3658 73.7317C92.4339 73.7317 95.7317 70.4339 95.7317 66.3658C95.7317 62.2978 92.4339 59 88.3658 59C84.2978 59 81 62.2978 81 66.3658C81 70.4339 84.2978 73.7317 88.3658 73.7317Z" fill="white"/>
<path d="M88.2519 70.8349C90.6908 70.8349 92.6679 68.8578 92.6679 66.4189C92.6679 63.98 90.6908 62.0029 88.2519 62.0029C85.813 62.0029 83.8359 63.98 83.8359 66.4189C83.8359 68.8578 85.813 70.8349 88.2519 70.8349Z" fill="black"/>
</svg>
