<svg width="200" height="200" viewBox="0 0 200 200" fill="none" xmlns="http://www.w3.org/2000/svg">
<mask id="path-1-outside-1_922_10108" maskUnits="userSpaceOnUse" x="26.5117" y="27" width="148" height="158" fill="black">
<rect fill="white" x="26.5117" y="27" width="148" height="158"/>
<path d="M99.0001 33C115.568 33 129 39.715 129 48C129 50.3964 127.875 52.6597 125.876 54.6689C131.311 61.1747 134.598 69.7784 134.598 79.5039C134.598 79.8435 134.592 80.182 134.584 80.5195L151.674 71.9248C158.863 68.311 166.598 71.3603 167.367 77.9355C168.708 89.3313 164.249 100.171 152.094 109.225C153.389 113.076 154.08 117.133 154.08 121.323L154.07 121.313C154.07 139.519 140.994 153.656 122.128 160.031L124.761 165.714L131.646 165.484L131.868 165.488C132.968 165.563 133.853 166.461 133.891 167.586C133.928 168.711 133.104 169.666 132.012 169.813L131.79 169.831L126.208 170.018L127.145 173.479C127.458 174.639 126.772 175.833 125.613 176.146C124.454 176.46 123.26 175.774 122.946 174.615L122.227 171.952L118.695 175.187C117.81 175.998 116.434 175.937 115.623 175.052C114.863 174.221 114.868 172.96 115.602 172.138L115.757 171.979L120.752 167.406L117.922 161.3C111.943 162.888 105.478 163.736 98.7306 163.736C92.8641 163.736 87.2107 163.095 81.9044 161.884L78.2306 169.815L83.2247 174.389L83.38 174.548C84.1134 175.371 84.1198 176.632 83.3595 177.462C82.5483 178.347 81.1719 178.408 80.2863 177.597L76.755 174.361L76.0353 177.025C75.7214 178.184 74.5274 178.869 73.3683 178.556C72.2094 178.242 71.5237 177.049 71.837 175.89L72.7736 172.427L67.1915 172.241L66.9698 172.224C65.8776 172.076 65.0535 171.12 65.0909 169.995C65.1288 168.87 66.0142 167.973 67.1134 167.898L67.3361 167.895L74.2208 168.123L77.63 160.763C57.5358 154.788 43.3898 140.257 43.3898 121.313C43.3898 116.507 44.3007 111.874 45.9894 107.524C34.2354 98.4915 31.541 84.6318 32.7911 75.3545C33.6289 69.1298 40.7403 66.7038 47.3644 70.8633L62.8888 80.6123C62.8791 80.2441 62.8722 79.8746 62.8722 79.5039C62.8722 69.633 66.2609 60.9181 71.8439 54.3789C70.0208 52.4427 69.0001 50.2814 69.0001 48C69.0001 39.7175 82.4327 33 99.0001 33ZM99.0001 38C86.5727 38 76.5001 41.9175 76.5001 46.75C76.5001 47.5853 76.8014 48.3931 77.3634 49.1582C83.3326 44.6187 90.7291 42 98.7404 42C106.898 42.0001 114.416 44.717 120.439 49.4111C121.127 48.5717 121.5 47.6783 121.5 46.75C121.5 41.9175 111.428 38 99.0001 38Z"/>
</mask>
<path d="M99.0001 33C115.568 33 129 39.715 129 48C129 50.3964 127.875 52.6597 125.876 54.6689C131.311 61.1747 134.598 69.7784 134.598 79.5039C134.598 79.8435 134.592 80.182 134.584 80.5195L151.674 71.9248C158.863 68.311 166.598 71.3603 167.367 77.9355C168.708 89.3313 164.249 100.171 152.094 109.225C153.389 113.076 154.08 117.133 154.08 121.323L154.07 121.313C154.07 139.519 140.994 153.656 122.128 160.031L124.761 165.714L131.646 165.484L131.868 165.488C132.968 165.563 133.853 166.461 133.891 167.586C133.928 168.711 133.104 169.666 132.012 169.813L131.79 169.831L126.208 170.018L127.145 173.479C127.458 174.639 126.772 175.833 125.613 176.146C124.454 176.46 123.26 175.774 122.946 174.615L122.227 171.952L118.695 175.187C117.81 175.998 116.434 175.937 115.623 175.052C114.863 174.221 114.868 172.96 115.602 172.138L115.757 171.979L120.752 167.406L117.922 161.3C111.943 162.888 105.478 163.736 98.7306 163.736C92.8641 163.736 87.2107 163.095 81.9044 161.884L78.2306 169.815L83.2247 174.389L83.38 174.548C84.1134 175.371 84.1198 176.632 83.3595 177.462C82.5483 178.347 81.1719 178.408 80.2863 177.597L76.755 174.361L76.0353 177.025C75.7214 178.184 74.5274 178.869 73.3683 178.556C72.2094 178.242 71.5237 177.049 71.837 175.89L72.7736 172.427L67.1915 172.241L66.9698 172.224C65.8776 172.076 65.0535 171.12 65.0909 169.995C65.1288 168.87 66.0142 167.973 67.1134 167.898L67.3361 167.895L74.2208 168.123L77.63 160.763C57.5358 154.788 43.3898 140.257 43.3898 121.313C43.3898 116.507 44.3007 111.874 45.9894 107.524C34.2354 98.4915 31.541 84.6318 32.7911 75.3545C33.6289 69.1298 40.7403 66.7038 47.3644 70.8633L62.8888 80.6123C62.8791 80.2441 62.8722 79.8746 62.8722 79.5039C62.8722 69.633 66.2609 60.9181 71.8439 54.3789C70.0208 52.4427 69.0001 50.2814 69.0001 48C69.0001 39.7175 82.4327 33 99.0001 33ZM99.0001 38C86.5727 38 76.5001 41.9175 76.5001 46.75C76.5001 47.5853 76.8014 48.3931 77.3634 49.1582C83.3326 44.6187 90.7291 42 98.7404 42C106.898 42.0001 114.416 44.717 120.439 49.4111C121.127 48.5717 121.5 47.6783 121.5 46.75C121.5 41.9175 111.428 38 99.0001 38Z" fill="#D7E8FC"/>
<path d="M99.0001 33L99.0001 27L99.0001 27L99.0001 33ZM129 48L135 48V48L129 48ZM125.876 54.6689L121.622 50.4377C119.436 52.6354 119.284 56.1366 121.271 58.5155L125.876 54.6689ZM134.598 79.5039L140.598 79.5039L140.598 79.5039L134.598 79.5039ZM134.584 80.5195L128.586 80.3807C128.537 82.4868 129.596 84.4642 131.377 85.5903C133.157 86.7165 135.398 86.8263 137.28 85.8798L134.584 80.5195ZM151.674 71.9248L148.979 66.564L148.978 66.5645L151.674 71.9248ZM167.367 77.9355L161.408 78.633L161.408 78.6366L167.367 77.9355ZM152.094 109.225L148.51 104.413C146.428 105.963 145.58 108.676 146.407 111.136L152.094 109.225ZM154.08 121.323L149.838 125.566C151.554 127.282 154.134 127.795 156.376 126.867C158.618 125.938 160.08 123.75 160.08 121.323L154.08 121.323ZM154.07 121.313L158.313 117.071C156.597 115.355 154.016 114.842 151.774 115.77C149.532 116.699 148.07 118.887 148.07 121.313H154.07ZM122.128 160.031L120.207 154.347C118.593 154.893 117.287 156.099 116.615 157.664C115.942 159.23 115.968 161.008 116.684 162.554L122.128 160.031ZM124.761 165.714L119.317 168.236C120.33 170.423 122.552 171.791 124.961 171.711L124.761 165.714ZM131.646 165.484L131.751 159.485C131.649 159.484 131.547 159.484 131.446 159.488L131.646 165.484ZM131.868 165.488L132.277 159.502C132.176 159.495 132.075 159.491 131.974 159.489L131.868 165.488ZM133.891 167.586L139.887 167.387L139.887 167.386L133.891 167.586ZM132.012 169.813L132.486 175.795C132.597 175.786 132.707 175.774 132.817 175.759L132.012 169.813ZM131.79 169.831L131.991 175.828C132.082 175.825 132.173 175.82 132.264 175.812L131.79 169.831ZM126.208 170.018L126.008 164.021C124.176 164.082 122.473 164.977 121.383 166.451C120.294 167.924 119.938 169.815 120.416 171.584L126.208 170.018ZM127.145 173.479L132.937 171.913L132.936 171.913L127.145 173.479ZM125.613 176.146L127.179 181.939L127.181 181.938L125.613 176.146ZM122.946 174.615L117.154 176.181L117.155 176.183L122.946 174.615ZM122.227 171.952L128.019 170.387C127.472 168.365 125.911 166.774 123.9 166.19C121.889 165.606 119.719 166.113 118.174 167.528L122.227 171.952ZM118.695 175.187L122.748 179.611L122.748 179.611L118.695 175.187ZM115.623 175.052L111.198 179.104L111.2 179.105L115.623 175.052ZM115.602 172.138L111.307 167.948C111.244 168.013 111.182 168.078 111.122 168.146L115.602 172.138ZM115.757 171.979L111.706 167.553C111.622 167.629 111.541 167.708 111.462 167.789L115.757 171.979ZM120.752 167.406L124.803 171.832C126.732 170.067 127.295 167.256 126.196 164.883L120.752 167.406ZM117.922 161.3L123.366 158.777C122.141 156.135 119.196 154.753 116.381 155.501L117.922 161.3ZM98.7306 163.736L98.7306 169.736L98.7306 169.736L98.7306 163.736ZM81.9044 161.884L83.2391 156.034C80.4772 155.404 77.6507 156.791 76.4601 159.362L81.9044 161.884ZM78.2306 169.815L72.7862 167.294C71.6877 169.665 72.2509 172.475 74.1785 174.24L78.2306 169.815ZM83.2247 174.389L87.5197 170.199C87.441 170.118 87.36 170.04 87.2768 169.964L83.2247 174.389ZM83.38 174.548L87.8589 170.555C87.7991 170.488 87.7378 170.423 87.675 170.358L83.38 174.548ZM83.3595 177.462L87.7834 181.515L87.7846 181.514L83.3595 177.462ZM80.2863 177.597L76.233 182.021L76.2342 182.022L80.2863 177.597ZM76.755 174.361L80.8082 169.937C79.2638 168.522 77.0933 168.015 75.0818 168.599C73.0703 169.183 71.509 170.774 70.9627 172.796L76.755 174.361ZM76.0353 177.025L81.8267 178.594L81.8276 178.59L76.0353 177.025ZM73.3683 178.556L71.7997 184.347L71.802 184.348L73.3683 178.556ZM71.837 175.89L66.0451 174.323L66.0449 174.324L71.837 175.89ZM72.7736 172.427L78.5655 173.993C79.044 172.224 78.6876 170.333 77.5979 168.859C76.5081 167.386 74.8047 166.491 72.9729 166.43L72.7736 172.427ZM67.1915 172.241L66.7172 178.222C66.8088 178.23 66.9004 178.235 66.9922 178.238L67.1915 172.241ZM66.9698 172.224L66.1651 178.169C66.2749 178.184 66.3851 178.196 66.4956 178.205L66.9698 172.224ZM65.0909 169.995L59.0943 169.793L59.0943 169.796L65.0909 169.995ZM67.1134 167.898L67.0082 161.899C66.9069 161.901 66.8058 161.905 66.7047 161.912L67.1134 167.898ZM67.3361 167.895L67.5351 161.898C67.4337 161.894 67.3322 161.894 67.2308 161.895L67.3361 167.895ZM74.2208 168.123L74.0218 174.12C76.43 174.2 78.6525 172.831 79.6652 170.645L74.2208 168.123ZM77.63 160.763L83.0743 163.284C83.8066 161.703 83.8155 159.882 83.0987 158.294C82.3819 156.706 81.0101 155.508 79.3401 155.012L77.63 160.763ZM43.3898 121.313L37.3898 121.313V121.313H43.3898ZM45.9894 107.524L51.5826 109.696C52.5469 107.213 51.758 104.39 49.6455 102.767L45.9894 107.524ZM32.7911 75.3545L38.7374 76.1558L38.7375 76.1548L32.7911 75.3545ZM47.3644 70.8633L50.5553 65.7821L50.5551 65.782L47.3644 70.8633ZM62.8888 80.6123L59.6979 85.6935C61.5709 86.8697 63.9392 86.9201 65.8605 85.8247C67.7819 84.7292 68.9448 82.6656 68.8867 80.4546L62.8888 80.6123ZM62.8722 79.5039L56.8722 79.5039V79.5039H62.8722ZM71.8439 54.3789L76.407 58.2748C78.3949 55.9465 78.311 52.4948 76.2122 50.2658L71.8439 54.3789ZM69.0001 48L63.0001 48V48H69.0001ZM99.0001 38L99.0001 32L99.0001 32L99.0001 38ZM76.5001 46.75L70.5001 46.75V46.75L76.5001 46.75ZM77.3634 49.1582L72.5278 52.7102C73.4801 54.0066 74.913 54.8664 76.5051 55.0965C78.0972 55.3266 79.7149 54.9078 80.9954 53.9341L77.3634 49.1582ZM98.7404 42L98.7404 36H98.7404V42ZM120.439 49.4111L116.75 54.1436C119.318 56.1447 123.013 55.7333 125.078 53.2165L120.439 49.4111ZM121.5 46.75L127.5 46.75V46.75H121.5ZM99.0001 33V39C106.554 39 113.097 40.5437 117.53 42.7597C122.321 45.1552 123 47.3546 123 48L129 48L135 48C135 40.3604 128.963 35.0598 122.896 32.0265C116.47 28.8138 108.013 27 99.0001 27V33ZM129 48H123C123 48.3839 122.844 49.2088 121.622 50.4377L125.876 54.6689L130.13 58.9002C132.905 56.1106 135 52.409 135 48H129ZM125.876 54.6689L121.271 58.5155C125.787 63.9216 128.598 71.1573 128.598 79.5039L134.598 79.5039L140.598 79.5039C140.598 68.3995 136.834 58.4279 130.481 50.8224L125.876 54.6689ZM134.598 79.5039H128.598C128.598 79.7772 128.593 80.0638 128.586 80.3807L134.584 80.5195L140.582 80.6583C140.591 80.3002 140.598 79.9098 140.598 79.5039H134.598ZM134.584 80.5195L137.28 85.8798L154.37 77.2851L151.674 71.9248L148.978 66.5645L131.888 75.1592L134.584 80.5195ZM151.674 71.9248L154.369 77.2856C156.609 76.1596 158.574 76.2454 159.764 76.7054C160.86 77.1294 161.311 77.8036 161.408 78.633L167.367 77.9355L173.327 77.2381C172.654 71.4922 168.853 67.3541 164.092 65.5131C159.424 63.7081 153.928 64.0761 148.979 66.564L151.674 71.9248ZM167.367 77.9355L161.408 78.6366C162.466 87.6229 159.183 96.4624 148.51 104.413L152.094 109.225L155.678 114.036C169.314 103.879 174.95 91.0398 173.326 77.2345L167.367 77.9355ZM152.094 109.225L146.407 111.136C147.5 114.388 148.08 117.8 148.08 121.323L154.08 121.323L160.08 121.323C160.08 116.466 159.277 111.764 157.781 107.313L152.094 109.225ZM154.08 121.323L158.323 117.081L158.313 117.071L154.07 121.313L149.828 125.556L149.838 125.566L154.08 121.323ZM154.07 121.313H148.07C148.07 136.176 137.454 148.519 120.207 154.347L122.128 160.031L124.049 165.715C144.535 158.793 160.07 142.862 160.07 121.313H154.07ZM122.128 160.031L116.684 162.554L119.317 168.236L124.761 165.714L130.205 163.192L127.572 157.509L122.128 160.031ZM124.761 165.714L124.961 171.711L131.846 171.481L131.646 165.484L131.446 159.488L124.561 159.717L124.761 165.714ZM131.646 165.484L131.54 171.483L131.763 171.487L131.868 165.488L131.974 159.489L131.751 159.485L131.646 165.484ZM131.868 165.488L131.46 171.474C129.516 171.342 127.96 169.766 127.894 167.786L133.891 167.586L139.887 167.386C139.746 163.156 136.419 159.785 132.277 159.502L131.868 165.488ZM133.891 167.586L127.894 167.784C127.828 165.805 129.276 164.129 131.207 163.868L132.012 169.813L132.817 175.759C136.932 175.202 140.028 171.617 139.887 167.387L133.891 167.586ZM132.012 169.813L131.538 163.832L131.316 163.85L131.79 169.831L132.264 175.812L132.486 175.795L132.012 169.813ZM131.79 169.831L131.59 163.834L126.008 164.021L126.208 170.018L126.409 176.014L131.991 175.828L131.79 169.831ZM126.208 170.018L120.416 171.584L121.353 175.046L127.145 173.479L132.936 171.913L132 168.451L126.208 170.018ZM127.145 173.479L121.353 175.046C120.801 173.006 122.007 170.907 124.046 170.355L125.613 176.146L127.181 181.938C131.538 180.759 134.115 176.271 132.937 171.913L127.145 173.479ZM125.613 176.146L124.048 170.354C126.086 169.803 128.186 171.008 128.738 173.048L122.946 174.615L117.155 176.183C118.334 180.54 122.822 183.116 127.179 181.939L125.613 176.146ZM122.946 174.615L128.739 173.05L128.019 170.387L122.227 171.952L116.434 173.518L117.154 176.181L122.946 174.615ZM122.227 171.952L118.174 167.528L114.643 170.762L118.695 175.187L122.748 179.611L126.279 176.377L122.227 171.952ZM118.695 175.187L114.643 170.762C116.202 169.334 118.621 169.442 120.047 170.998L115.623 175.052L111.2 179.105C114.248 182.432 119.418 182.661 122.748 179.611L118.695 175.187ZM115.623 175.052L120.048 171C121.388 172.463 121.375 174.678 120.081 176.13L115.602 172.138L111.122 168.146C108.362 171.243 108.337 175.98 111.198 179.104L115.623 175.052ZM115.602 172.138L119.897 176.327L120.052 176.168L115.757 171.979L111.462 167.789L111.307 167.948L115.602 172.138ZM115.757 171.979L119.808 176.404L124.803 171.832L120.752 167.406L116.701 162.98L111.706 167.553L115.757 171.979ZM120.752 167.406L126.196 164.883L123.366 158.777L117.922 161.3L112.478 163.823L115.308 169.929L120.752 167.406ZM117.922 161.3L116.381 155.501C110.924 156.951 104.978 157.736 98.7306 157.736L98.7306 163.736L98.7306 169.736C105.977 169.736 112.961 168.826 119.463 167.099L117.922 161.3ZM98.7306 163.736V157.736C93.2998 157.736 88.0946 157.142 83.2391 156.034L81.9044 161.884L80.5697 167.733C86.3267 169.047 92.4284 169.736 98.7306 169.736V163.736ZM81.9044 161.884L76.4601 159.362L72.7862 167.294L78.2306 169.815L83.6749 172.337L87.3488 164.406L81.9044 161.884ZM78.2306 169.815L74.1785 174.24L79.1727 178.814L83.2247 174.389L87.2768 169.964L82.2827 165.39L78.2306 169.815ZM83.2247 174.389L78.9297 178.578L79.085 178.737L83.38 174.548L87.675 170.358L87.5197 170.199L83.2247 174.389ZM83.38 174.548L78.9011 178.54C77.6098 177.092 77.5915 174.877 78.9343 173.41L83.3595 177.462L87.7846 181.514C90.6481 178.387 90.617 173.65 87.8589 170.555L83.38 174.548ZM83.3595 177.462L78.9356 173.409C80.3626 171.851 82.7806 171.745 84.3383 173.172L80.2863 177.597L76.2342 182.022C79.5632 185.07 84.734 184.843 87.7834 181.515L83.3595 177.462ZM80.2863 177.597L84.3395 173.173L80.8082 169.937L76.755 174.361L72.7018 178.785L76.233 182.021L80.2863 177.597ZM76.755 174.361L70.9627 172.796L70.2429 175.461L76.0353 177.025L81.8276 178.59L82.5473 175.926L76.755 174.361ZM76.0353 177.025L70.2438 175.457C70.7967 173.415 72.8987 172.213 74.9346 172.764L73.3683 178.556L71.802 184.348C76.1562 185.525 80.6461 182.953 81.8267 178.594L76.0353 177.025ZM73.3683 178.556L74.9368 172.764C76.9722 173.316 78.1811 175.413 77.6292 177.455L71.837 175.89L66.0449 174.324C64.8664 178.684 67.4466 183.168 71.7997 184.347L73.3683 178.556ZM71.837 175.89L77.629 177.456L78.5655 173.993L72.7736 172.427L66.9816 170.86L66.0451 174.323L71.837 175.89ZM72.7736 172.427L72.9729 166.43L67.3909 166.245L67.1915 172.241L66.9922 178.238L72.5742 178.423L72.7736 172.427ZM67.1915 172.241L67.6658 166.26L67.4441 166.242L66.9698 172.224L66.4956 178.205L66.7172 178.222L67.1915 172.241ZM66.9698 172.224L67.7745 166.278C69.7079 166.54 71.1534 168.217 71.0876 170.195L65.0909 169.995L59.0943 169.796C58.9537 174.024 62.0473 177.612 66.1651 178.169L66.9698 172.224ZM65.0909 169.995L71.0875 170.197C71.0209 172.178 69.4635 173.752 67.5221 173.885L67.1134 167.898L66.7047 161.912C62.5648 162.195 59.2366 165.563 59.0943 169.793L65.0909 169.995ZM67.1134 167.898L67.2186 173.898L67.4413 173.894L67.3361 167.895L67.2308 161.895L67.0082 161.899L67.1134 167.898ZM67.3361 167.895L67.137 173.891L74.0218 174.12L74.2208 168.123L74.4199 162.126L67.5351 161.898L67.3361 167.895ZM74.2208 168.123L79.6652 170.645L83.0743 163.284L77.63 160.763L72.1857 158.241L68.7765 165.601L74.2208 168.123ZM77.63 160.763L79.3401 155.012C60.8799 149.523 49.3898 136.76 49.3898 121.313H43.3898H37.3898C37.3898 143.754 54.1916 160.053 75.9199 166.514L77.63 160.763ZM43.3898 121.313L49.3898 121.313C49.3898 117.275 50.1535 113.377 51.5826 109.696L45.9894 107.524L40.3962 105.353C38.4479 110.371 37.3898 115.739 37.3898 121.313L43.3898 121.313ZM45.9894 107.524L49.6455 102.767C40.001 95.3552 37.6986 83.865 38.7374 76.1558L32.7911 75.3545L26.8449 74.5532C25.3834 85.3987 28.4699 101.628 42.3333 112.282L45.9894 107.524ZM32.7911 75.3545L38.7375 76.1548C38.8001 75.69 38.9473 75.4615 39.049 75.3426C39.1601 75.2128 39.3606 75.0493 39.7313 74.931C40.4821 74.6915 42.0935 74.6383 44.1736 75.9445L47.3644 70.8633L50.5551 65.782C46.0112 62.9287 40.7548 62.0088 36.0844 63.4986C31.2551 65.0391 27.5852 69.0523 26.8447 74.5542L32.7911 75.3545ZM47.3644 70.8633L44.1735 75.9445L59.6979 85.6935L62.8888 80.6123L66.0797 75.5311L50.5553 65.7821L47.3644 70.8633ZM62.8888 80.6123L68.8867 80.4546C68.8778 80.1144 68.8722 79.8022 68.8722 79.5039H62.8722H56.8722C56.8722 79.947 56.8804 80.3737 56.8909 80.77L62.8888 80.6123ZM62.8722 79.5039L68.8722 79.5039C68.8722 71.0344 71.7687 63.7075 76.407 58.2748L71.8439 54.3789L67.2808 50.483C60.753 58.1287 56.8722 68.2316 56.8722 79.5039L62.8722 79.5039ZM71.8439 54.3789L76.2122 50.2658C75.1418 49.1289 75.0001 48.3701 75.0001 48H69.0001H63.0001C63.0001 52.1927 64.8999 55.7565 67.4755 58.492L71.8439 54.3789ZM69.0001 48L75.0001 48C75.0001 47.3561 75.6788 45.1567 80.4707 42.7606C84.9032 40.5442 91.4462 39 99.0001 39L99.0001 33L99.0001 27C89.9866 27 81.5295 28.8146 75.1039 32.0276C69.0377 35.0609 63.0001 40.3614 63.0001 48L69.0001 48ZM99.0001 38L99.0001 32C92.2359 32 85.84 33.0555 80.9151 34.9708C78.4717 35.9211 76.0851 37.2005 74.207 38.9274C72.3237 40.6591 70.5001 43.2959 70.5001 46.75H76.5001H82.5001C82.5001 47.7879 81.9356 48.1228 82.3293 47.7608C82.7281 47.3941 83.6364 46.788 85.2646 46.1548C88.4828 44.9032 93.3369 44 99.0001 44L99.0001 38ZM76.5001 46.75L70.5001 46.75C70.5001 49.109 71.3692 51.133 72.5278 52.7102L77.3634 49.1582L82.199 45.6062C82.2104 45.6217 82.2876 45.7308 82.3625 45.9376C82.4405 46.153 82.5001 46.4322 82.5001 46.75L76.5001 46.75ZM77.3634 49.1582L80.9954 53.9341C85.9369 50.1761 92.0617 48 98.7404 48V42V36C89.3965 36 80.7283 39.0613 73.7314 44.3823L77.3634 49.1582ZM98.7404 42L98.7403 48C105.539 48.0001 111.763 50.2569 116.75 54.1436L120.439 49.4111L124.127 44.6786C117.068 39.1771 108.257 36.0001 98.7404 36L98.7404 42ZM120.439 49.4111L125.078 53.2165C126.418 51.5819 127.5 49.3872 127.5 46.75L121.5 46.75L115.5 46.75C115.5 46.3916 115.575 46.0869 115.664 45.8685C115.747 45.6628 115.822 45.5785 115.8 45.6058L120.439 49.4111ZM121.5 46.75H127.5C127.5 43.2959 125.677 40.6591 123.793 38.9274C121.915 37.2005 119.529 35.921 117.085 34.9708C112.16 33.0555 105.764 32 99.0001 32V38V44C104.663 44 109.517 44.9032 112.736 46.1548C114.364 46.788 115.272 47.3941 115.671 47.7608C116.065 48.1227 115.5 47.7879 115.5 46.75H121.5Z" fill="white" mask="url(#path-1-outside-1_922_10108)"/>
<path d="M79.7202 156.253C80.225 155.164 81.5172 154.689 82.6069 155.194C83.6967 155.699 84.1714 156.992 83.6668 158.082L78.2304 169.816L83.224 174.389L83.3802 174.548C84.1135 175.371 84.1198 176.631 83.3594 177.462C82.5482 178.347 81.1716 178.408 80.2859 177.596L76.7549 174.361L76.035 177.025C75.7212 178.184 74.5268 178.87 73.3675 178.556C72.2086 178.242 71.5236 177.049 71.8369 175.89L72.7728 172.427L67.1908 172.241L66.9696 172.223C65.8774 172.076 65.0532 171.121 65.0906 169.996C65.1282 168.871 66.0138 167.973 67.1133 167.898L67.336 167.895L74.2209 168.124L79.7202 156.253Z" fill="#474747"/>
<path d="M119.262 153.844C118.757 152.754 117.464 152.279 116.374 152.784C115.284 153.289 114.81 154.581 115.315 155.671L120.751 167.406L115.757 171.979L115.601 172.138C114.867 172.961 114.862 174.222 115.622 175.052C116.434 175.937 117.809 175.997 118.695 175.186L122.227 171.952L122.946 174.615C123.26 175.774 124.454 176.46 125.613 176.146C126.772 175.832 127.457 174.639 127.144 173.48L126.208 170.017L131.79 169.831L132.011 169.813C133.104 169.665 133.928 168.711 133.89 167.586C133.853 166.46 132.967 165.563 131.868 165.488L131.645 165.484L124.76 165.713L119.262 153.844Z" fill="#474747"/>
<path d="M122.197 86.7514L151.674 71.9251C158.863 68.3111 166.597 71.3601 167.367 77.9355C168.731 89.5276 164.094 100.545 151.459 109.692C140.257 117.797 127.33 112.741 118.553 107.909C110.303 103.38 112.329 91.7194 122.206 86.7514H122.197Z" fill="#276286"/>
<path d="M47.3642 70.8634L92.7196 99.3469C92.7196 99.3469 72.6233 124.44 48.7962 109.478C34.6616 100.604 31.447 85.3292 32.7913 75.3542C33.629 69.1295 40.7401 66.7039 47.3642 70.8634Z" fill="#276286"/>
<path d="M154.07 121.314C154.07 146.378 129.288 163.737 98.7299 163.737C68.1715 163.737 43.3896 146.388 43.3896 121.314C43.3896 107.257 51.1827 94.6809 63.4275 86.3618C63.067 84.131 62.8722 81.8418 62.8722 79.5039C62.8722 58.0147 78.9258 42 98.7396 42C118.553 42 134.597 58.0147 134.597 79.5039C134.597 81.8418 134.412 84.131 134.042 86.3618C146.287 94.6906 154.08 107.257 154.08 121.323L154.07 121.314Z" fill="#4B9AE8"/>
<path d="M80.0486 78.4594C84.0414 78.4594 87.2783 75.2226 87.2783 71.2297C87.2783 67.2369 84.0414 64 80.0486 64C76.0557 64 72.8188 67.2369 72.8188 71.2297C72.8188 75.2226 76.0557 78.4594 80.0486 78.4594Z" fill="white"/>
<path d="M80.0487 75.0862C82.1785 75.0862 83.905 73.3596 83.905 71.2298C83.905 69.1001 82.1785 67.3735 80.0487 67.3735C77.9189 67.3735 76.1924 69.1001 76.1924 71.2298C76.1924 73.3596 77.9189 75.0862 80.0487 75.0862Z" fill="#040000"/>
<path d="M116.197 78.4594C120.189 78.4594 123.426 75.2226 123.426 71.2297C123.426 67.2369 120.189 64 116.197 64C112.204 64 108.967 67.2369 108.967 71.2297C108.967 75.2226 112.204 78.4594 116.197 78.4594Z" fill="white"/>
<path d="M116.197 75.0862C118.327 75.0862 120.053 73.3596 120.053 71.2298C120.053 69.1001 118.327 67.3735 116.197 67.3735C114.067 67.3735 112.341 69.1001 112.341 71.2298C112.341 73.3596 114.067 75.0862 116.197 75.0862Z" fill="#040000"/>
<path d="M106.725 80.1988C106.451 84.137 101.504 89.907 97.5743 89.6327C93.6362 89.3583 89.5564 82.9423 89.8396 79.0041C90.1228 75.066 92.9193 72.0571 98.7867 72.473C104.725 72.889 107.008 76.2607 106.725 80.1988Z" fill="#EAC00F"/>
<path d="M99 33C82.4325 33 69 39.7175 69 48C69 56.2825 82.4325 63 99 63C115.567 63 129 56.285 129 48C129 39.715 115.567 33 99 33ZM99 55.5C86.5725 55.5 76.5 51.5825 76.5 46.75C76.5 41.9175 86.5725 38 99 38C111.427 38 121.5 41.9175 121.5 46.75C121.5 51.5825 111.427 55.5 99 55.5Z" fill="#D7E8FC"/>
</svg>
