<svg width="557" height="452" viewBox="0 0 557 452" fill="none" xmlns="http://www.w3.org/2000/svg">
<rect width="557" height="452" fill="#F9E0F9"/>
<mask id="mask0_555_1648" style="mask-type:alpha" maskUnits="userSpaceOnUse" x="0" y="0" width="557" height="452">
<rect width="557" height="452" fill="white"/>
</mask>
<g mask="url(#mask0_555_1648)">
<path d="M422.354 254.597C422.354 256.454 422.283 258.312 422.185 260.114C422.171 260.268 422.157 260.409 422.157 260.55C420.96 277.874 414.571 293.341 404.297 306.289C391.561 322.374 372.843 334.534 350.677 341.43C345.977 342.922 341.108 344.146 336.111 345.145C329.244 346.51 322.137 347.383 314.832 347.749C313.369 347.833 311.891 347.89 310.413 347.918C309.175 347.932 307.922 347.946 306.67 347.946C305.417 347.946 304.179 347.932 302.94 347.918C294.327 347.721 285.94 346.82 277.904 345.286C272.922 344.329 268.052 343.119 263.352 341.655C240.876 334.773 221.933 322.543 209.056 306.303C209.056 306.303 209.056 306.289 209.042 306.289C198.74 293.285 192.323 277.705 191.183 260.268C191.183 260.156 191.169 260.015 191.155 259.888C191.056 258.143 191 256.384 191 254.597C191 252.514 191.07 250.445 191.211 248.404C193.224 219.99 209.014 194.784 232.869 177.671V176.785C232.883 173.843 232.939 164.47 232.939 160.234C232.939 113.707 265.955 79.0303 306.67 79.0303C308.077 79.0303 309.484 79.0584 310.878 79.171C349.65 81.4509 380.415 115.326 380.415 160.234C380.415 165.287 378.923 175.462 378.205 176.109C378.374 176.208 378.529 176.306 378.656 176.39C379.894 177.179 380.471 177.671 380.471 177.671C404.326 194.728 420.102 219.906 422.128 248.306C422.283 250.389 422.368 252.486 422.368 254.597H422.354Z" fill="#4D8DCB"/>
<rect y="262" width="557" height="225" fill="#FFF9FF"/>
<rect y="380" width="557" height="107" fill="#F4E7F4"/>
<path d="M320.715 158.687C319.842 165.414 312.412 176.321 304.699 176.377C296.987 176.433 288.839 165.372 288.459 158.124C288.079 150.89 293.497 145.936 305.009 145.866C316.648 145.795 321.588 151.96 320.715 158.687Z" fill="#DDB61E"/>
<path opacity="0.5" d="M320.715 158.687C319.843 165.4 312.426 176.321 304.7 176.377C303.489 176.377 302.265 176.124 301.055 175.617C307.36 173.028 312.764 164.358 313.51 158.687C314.284 152.706 310.456 147.175 301.407 146.063C302.532 145.95 303.729 145.88 304.995 145.866C316.648 145.795 321.574 151.974 320.701 158.687H320.715Z" fill="#987D26"/>
<path d="M345.118 153.029C353.59 153.029 360.458 146.161 360.458 137.689C360.458 129.217 353.59 122.349 345.118 122.349C336.646 122.349 329.778 129.217 329.778 137.689C329.778 146.161 336.646 153.029 345.118 153.029Z" fill="white"/>
<path d="M345.118 145.865C349.634 145.865 353.295 142.204 353.295 137.689C353.295 133.173 349.634 129.512 345.118 129.512C340.602 129.512 336.941 133.173 336.941 137.689C336.941 142.204 340.602 145.865 345.118 145.865Z" fill="#040000"/>
<path d="M264.702 153.029C273.174 153.029 280.042 146.161 280.042 137.689C280.042 129.217 273.174 122.349 264.702 122.349C256.23 122.349 249.362 129.217 249.362 137.689C249.362 146.161 256.23 153.029 264.702 153.029Z" fill="white"/>
<path d="M264.703 145.865C269.218 145.865 272.879 142.204 272.879 137.689C272.879 133.173 269.218 129.512 264.703 129.512C260.187 129.512 256.526 133.173 256.526 137.689C256.526 142.204 260.187 145.865 264.703 145.865Z" fill="#040000"/>
<path d="M246.136 197.084L302.824 228.369C316.658 236.011 320.57 252.238 310.508 260.443C294.802 273.264 269.878 285.578 241.435 269.886C217.679 256.784 209.742 234.196 207.828 214.62C206.012 196.226 227.136 186.585 246.15 197.07L246.136 197.084Z" fill="#276286"/>
<path opacity="0.5" d="M208.207 208.019C206.279 216.688 211.022 233.21 214.048 239.684C221.451 255.545 233.329 268.211 249.386 273.615C265.669 279.09 282.009 276.88 293.493 271.378C304.836 265.945 310.521 260.457 310.521 260.457C310.521 260.457 286.794 266.452 271.425 264.397C256.043 262.328 237.677 254.025 227.024 240.852C216.37 227.694 213.203 218.659 208.221 208.019H208.207Z" fill="#14465D"/>
<path d="M302.186 255.441H302.2C302.2 255.441 302.228 255.498 302.256 255.512C306.492 258.946 311.376 262.337 316.822 265.18C317.076 265.321 317.343 265.448 317.61 265.588C318.131 265.856 318.666 266.109 319.201 266.376C320.059 266.799 320.946 267.179 321.847 267.544C323.606 268.304 325.435 268.994 327.307 269.571C330.769 270.683 334.372 271.499 338.13 271.921C341.606 272.329 345.18 272.386 348.868 272.02C353.512 271.598 358.353 270.514 363.307 268.6C365.911 267.615 368.556 266.362 371.244 264.885C376.832 261.803 381.546 258.186 385.515 254.203H385.529C391.384 248.306 395.62 241.663 398.617 234.711C398.617 234.697 398.631 234.683 398.631 234.655C398.716 234.486 398.8 234.303 398.871 234.12C399.124 233.515 399.377 232.91 399.631 232.305C399.645 232.29 399.645 232.248 399.645 232.234C399.884 231.615 400.109 230.982 400.348 230.348C400.377 230.278 400.405 230.236 400.419 230.179C402.853 223.298 404.219 216.261 404.866 209.59C404.88 209.449 404.88 209.323 404.894 209.182C405.077 207.029 404.922 205.016 404.514 203.116C404.5 203.06 404.5 203.018 404.486 202.961C402.98 196.375 398.125 191.548 391.679 189.226C388.625 188.114 385.219 187.593 381.645 187.72C376.775 187.889 371.596 189.254 366.558 192.04L361.337 194.925L309.856 223.326C296.022 230.968 292.109 247.194 302.186 255.399V255.441Z" fill="#276286"/>
<path opacity="0.5" d="M404.486 203.003C406.414 211.673 401.671 228.195 398.646 234.669C391.243 250.529 379.365 263.196 363.307 268.6C347.024 274.074 330.685 271.865 319.201 266.362C307.858 260.93 302.172 255.441 302.172 255.441C302.172 255.441 325.9 261.436 341.268 259.382C356.65 257.313 375.016 249.009 385.67 235.837C396.323 222.678 399.49 213.643 404.472 203.003H404.486Z" fill="#14465D"/>
<path d="M245.051 135.627C240.945 154.515 235.911 159.242 226.783 157.532C219.224 156.116 213.505 152.791 217.68 130.501C221.855 108.21 228.39 107.181 235.948 108.597C245.449 110.376 249.783 113.856 245.051 135.627Z" fill="#404040"/>
<path d="M368.868 137.075C374.993 155.408 380.508 159.562 389.399 156.875C396.759 154.65 402.086 150.726 395.524 129.018C388.962 107.31 382.354 106.993 374.993 109.218C365.741 112.015 361.808 115.943 368.868 137.075Z" fill="#404040"/>
<path d="M314.78 63.2271C352.753 65.2078 372.798 91.5328 378.242 105.782L381.681 112.856L372.502 124.575C363.864 107.684 347.289 78.7116 314.063 76.9785C269.634 74.6612 245.59 103.106 239.122 117.618C234.45 118.966 226.803 118.355 233.585 105.132C242.063 88.6029 267.313 60.7514 314.78 63.2271Z" fill="#404040"/>
<g clip-path="url(#clip0_555_1648)">
<path d="M366.793 307.705H245.889C240.52 307.705 236.018 303.819 235.455 298.7L224.97 203.213C224.318 197.275 229.176 192.104 235.4 192.104H377.278C383.506 192.104 388.364 197.275 387.712 203.213L377.227 298.704C376.664 303.823 372.162 307.709 366.793 307.709V307.705Z" fill="#C0DCEB"/>
<path d="M226.473 217.971H386.303L387.806 203.7C388.458 197.502 383.597 192.104 377.366 192.104H235.406C229.179 192.104 224.318 197.502 224.97 203.7L226.473 217.971Z" fill="#E8F4FA"/>
</g>
<path d="M308.914 265.009C317.358 265.009 324.202 258.164 324.202 249.721C324.202 241.277 317.358 234.433 308.914 234.433C300.471 234.433 293.626 241.277 293.626 249.721C293.626 258.164 300.471 265.009 308.914 265.009Z" fill="#4B98E6"/>
<circle cx="303.313" cy="245.719" r="4.0012" fill="white"/>
<circle cx="303.313" cy="245.719" r="2.40072" fill="#161616"/>
<circle cx="303.313" cy="245.719" r="2.40072" fill="#161616"/>
<path d="M294.908 253.657C292.928 254.19 289.344 253.103 288.89 251.431C288.436 249.759 290.981 247.02 292.957 246.487C294.932 245.955 296.836 246.614 297.512 249.105C298.197 251.625 296.883 253.125 294.904 253.658L294.908 253.657Z" fill="#DFB820"/>
</g>
<defs>
<clipPath id="clip0_555_1648">
<rect width="162.954" height="120.668" fill="white" transform="translate(224.911 192.104)"/>
</clipPath>
</defs>
</svg>
