<svg width="342" height="452" viewBox="0 0 342 452" fill="none" xmlns="http://www.w3.org/2000/svg">
<rect width="342" height="452" fill="#F9E0F9"/>
<mask id="mask0_552_1130" style="mask-type:alpha" maskUnits="userSpaceOnUse" x="0" y="0" width="342" height="452">
<rect width="342" height="452" fill="white"/>
</mask>
<g mask="url(#mask0_552_1130)">
<path d="M287.354 254.597C287.354 256.454 287.283 258.312 287.185 260.114C287.171 260.268 287.157 260.409 287.157 260.55C285.96 277.874 279.571 293.341 269.297 306.289C256.561 322.374 237.843 334.534 215.677 341.43C210.977 342.922 206.108 344.146 201.111 345.145C194.244 346.51 187.137 347.383 179.832 347.749C178.369 347.833 176.891 347.89 175.413 347.918C174.175 347.932 172.922 347.946 171.67 347.946C170.417 347.946 169.179 347.932 167.94 347.918C159.327 347.721 150.94 346.82 142.904 345.286C137.922 344.329 133.052 343.119 128.352 341.655C105.876 334.773 86.9335 322.543 74.0562 306.303C74.0562 306.303 74.0563 306.289 74.0422 306.289C63.7404 293.285 57.3229 277.705 56.183 260.268C56.183 260.156 56.1689 260.015 56.1548 259.888C56.0563 258.143 56 256.384 56 254.597C56 252.514 56.0704 250.445 56.2111 248.404C58.2236 219.99 74.014 194.784 97.8685 177.671V176.785C97.8826 173.843 97.9389 164.47 97.9389 160.234C97.9389 113.707 130.955 79.0303 171.67 79.0303C173.077 79.0303 174.484 79.0584 175.878 79.171C214.65 81.4509 245.415 115.326 245.415 160.234C245.415 165.287 243.923 175.462 243.205 176.109C243.374 176.208 243.529 176.306 243.656 176.39C244.894 177.179 245.471 177.671 245.471 177.671C269.326 194.728 285.102 219.906 287.128 248.306C287.283 250.389 287.368 252.486 287.368 254.597H287.354Z" fill="#4D8DCB"/>
<rect x="-24" y="262" width="390" height="225" fill="#FFF9FF"/>
<rect x="-24" y="380" width="390" height="107" fill="#F4E7F4"/>
<path d="M185.715 158.687C184.842 165.414 177.412 176.321 169.699 176.377C161.987 176.433 153.839 165.372 153.459 158.124C153.079 150.89 158.497 145.936 170.009 145.866C181.648 145.795 186.588 151.96 185.715 158.687Z" fill="#DDB61E"/>
<path opacity="0.5" d="M185.715 158.687C184.843 165.4 177.426 176.321 169.7 176.377C168.489 176.377 167.265 176.124 166.055 175.617C172.36 173.028 177.764 164.358 178.51 158.687C179.284 152.706 175.456 147.175 166.407 146.063C167.532 145.95 168.729 145.88 169.995 145.866C181.648 145.795 186.574 151.974 185.701 158.687H185.715Z" fill="#987D26"/>
<path d="M210.118 153.029C218.59 153.029 225.458 146.161 225.458 137.689C225.458 129.217 218.59 122.349 210.118 122.349C201.646 122.349 194.778 129.217 194.778 137.689C194.778 146.161 201.646 153.029 210.118 153.029Z" fill="white"/>
<path d="M210.118 145.865C214.634 145.865 218.295 142.204 218.295 137.689C218.295 133.173 214.634 129.512 210.118 129.512C205.602 129.512 201.941 133.173 201.941 137.689C201.941 142.204 205.602 145.865 210.118 145.865Z" fill="#040000"/>
<path d="M129.702 153.029C138.174 153.029 145.042 146.161 145.042 137.689C145.042 129.217 138.174 122.349 129.702 122.349C121.23 122.349 114.362 129.217 114.362 137.689C114.362 146.161 121.23 153.029 129.702 153.029Z" fill="white"/>
<path d="M129.703 145.865C134.218 145.865 137.879 142.204 137.879 137.689C137.879 133.173 134.218 129.512 129.703 129.512C125.187 129.512 121.526 133.173 121.526 137.689C121.526 142.204 125.187 145.865 129.703 145.865Z" fill="#040000"/>
<path d="M111.136 197.084L167.824 228.369C181.658 236.011 185.57 252.238 175.508 260.443C159.802 273.264 134.878 285.578 106.435 269.886C82.6791 256.784 74.7417 234.196 72.8277 214.62C71.0122 196.226 92.1365 186.585 111.15 197.07L111.136 197.084Z" fill="#276286"/>
<path opacity="0.5" d="M73.2074 208.019C71.2794 216.688 76.0221 233.211 79.0479 239.684C86.4505 255.545 98.3285 268.211 114.386 273.615C130.669 279.09 147.009 276.88 158.493 271.378C169.836 265.945 175.521 260.457 175.521 260.457C175.521 260.457 151.794 266.452 136.425 264.397C121.043 262.329 102.677 254.025 92.0236 240.852C81.37 227.694 78.2035 218.659 73.2215 208.019H73.2074Z" fill="#14465D"/>
<path d="M167.186 255.441H167.2C167.2 255.441 167.228 255.498 167.256 255.512C171.492 258.946 176.376 262.337 181.822 265.18C182.076 265.321 182.343 265.448 182.61 265.588C183.131 265.856 183.666 266.109 184.201 266.376C185.059 266.799 185.946 267.179 186.847 267.544C188.606 268.304 190.435 268.994 192.307 269.571C195.769 270.683 199.372 271.499 203.13 271.921C206.606 272.329 210.18 272.386 213.868 272.02C218.512 271.598 223.353 270.514 228.307 268.6C230.911 267.615 233.556 266.362 236.244 264.885C241.832 261.803 246.546 258.186 250.515 254.203H250.529C256.384 248.306 260.62 241.663 263.617 234.711C263.617 234.697 263.631 234.683 263.631 234.655C263.716 234.486 263.8 234.303 263.871 234.12C264.124 233.515 264.377 232.91 264.631 232.305C264.645 232.29 264.645 232.248 264.645 232.234C264.884 231.615 265.109 230.982 265.348 230.348C265.377 230.278 265.405 230.236 265.419 230.179C267.853 223.298 269.219 216.261 269.866 209.59C269.88 209.449 269.88 209.323 269.894 209.182C270.077 207.029 269.922 205.016 269.514 203.116C269.5 203.06 269.5 203.018 269.486 202.961C267.98 196.375 263.125 191.548 256.679 189.226C253.625 188.114 250.219 187.593 246.645 187.72C241.775 187.889 236.596 189.254 231.558 192.04L226.337 194.925L174.856 223.326C161.022 230.968 157.109 247.194 167.186 255.399V255.441Z" fill="#276286"/>
<path opacity="0.5" d="M269.486 203.003C271.414 211.673 266.671 228.195 263.646 234.669C256.243 250.529 244.365 263.195 228.307 268.6C212.024 274.074 195.685 271.865 184.201 266.362C172.858 260.93 167.172 255.441 167.172 255.441C167.172 255.441 190.9 261.436 206.268 259.382C221.65 257.313 240.016 249.009 250.67 235.837C261.323 222.678 264.49 213.643 269.472 203.003H269.486Z" fill="#14465D"/>
<path d="M110.051 135.627C105.945 154.515 100.911 159.242 91.7825 157.532C84.2244 156.116 78.505 152.791 82.6802 130.501C86.8554 108.21 93.3903 107.181 100.948 108.597C110.449 110.376 114.783 113.856 110.051 135.627Z" fill="#404040"/>
<path d="M233.868 137.075C239.993 155.408 245.508 159.562 254.399 156.875C261.759 154.65 267.086 150.726 260.524 129.018C253.962 107.31 247.354 106.993 239.993 109.218C230.741 112.015 226.808 115.943 233.868 137.075Z" fill="#404040"/>
<path d="M179.78 63.2271C217.753 65.2078 237.798 91.5328 243.242 105.782L246.681 112.856L237.502 124.575C228.864 107.684 212.289 78.7116 179.063 76.9785C134.634 74.6612 110.59 103.106 104.122 117.618C99.4504 118.966 91.8035 118.355 98.5854 105.132C107.063 88.6029 132.313 60.7514 179.78 63.2271Z" fill="#404040"/>
<g clip-path="url(#clip0_552_1130)">
<path d="M231.793 307.705H110.889C105.52 307.705 101.018 303.819 100.455 298.7L89.9698 203.213C89.3182 197.275 94.1757 192.104 100.4 192.104H242.278C248.506 192.104 253.364 197.275 252.712 203.213L242.227 298.704C241.664 303.823 237.162 307.709 231.793 307.709V307.705Z" fill="#C0DCEB"/>
<path d="M91.4733 217.971H251.303L252.806 203.7C253.458 197.501 248.597 192.104 242.366 192.104H100.406C94.1786 192.104 89.3184 197.501 89.9703 203.7L91.4733 217.971Z" fill="#E8F4FA"/>
</g>
<path d="M173.914 265.009C182.358 265.009 189.202 258.164 189.202 249.721C189.202 241.278 182.358 234.433 173.914 234.433C165.471 234.433 158.626 241.278 158.626 249.721C158.626 258.164 165.471 265.009 173.914 265.009Z" fill="#4B98E6"/>
<circle cx="168.313" cy="245.719" r="4.0012" fill="white"/>
<circle cx="168.313" cy="245.72" r="2.40072" fill="#161616"/>
<circle cx="168.313" cy="245.72" r="2.40072" fill="#161616"/>
<path d="M159.908 253.657C157.928 254.19 154.344 253.103 153.89 251.431C153.436 249.759 155.981 247.02 157.957 246.487C159.932 245.955 161.836 246.614 162.512 249.105C163.197 251.626 161.883 253.125 159.904 253.658L159.908 253.657Z" fill="#DFB820"/>
</g>
<defs>
<clipPath id="clip0_552_1130">
<rect width="162.954" height="120.668" fill="white" transform="translate(89.9111 192.104)"/>
</clipPath>
</defs>
</svg>
