<svg width="200" height="200" viewBox="0 0 200 200" fill="none" xmlns="http://www.w3.org/2000/svg">
<mask id="path-1-outside-1_1347_2465" maskUnits="userSpaceOnUse" x="23.1251" y="31" width="154" height="138" fill="black">
<rect fill="white" x="23.1251" y="31" width="154" height="138"/>
<path d="M139.375 37C152.42 37.0001 163 47.5801 163 60.625C163 68.0597 159.556 74.685 154.184 79.0166C163.569 88.5247 169.593 100.124 170.692 111.88C170.702 111.993 170.712 112.106 170.722 112.22C170.728 112.293 170.734 112.367 170.74 112.44C170.752 112.588 170.763 112.735 170.774 112.882C170.779 112.956 170.783 113.03 170.788 113.104C170.798 113.251 170.806 113.398 170.814 113.545C170.818 113.63 170.823 113.715 170.827 113.8C170.833 113.914 170.836 114.028 170.841 114.142C170.845 114.244 170.85 114.347 170.854 114.45C170.858 114.576 170.86 114.701 170.862 114.826C170.869 115.134 170.875 115.441 170.875 115.749C170.875 145.107 139.143 162.999 100 162.999C60.8575 162.999 29.1251 145.107 29.1251 115.749C29.1251 115.441 29.1299 115.134 29.1368 114.826C29.1398 114.697 29.1425 114.568 29.1466 114.439C29.1491 114.362 29.1525 114.284 29.1554 114.206C29.1605 114.071 29.1656 113.936 29.172 113.801C29.1777 113.68 29.1838 113.559 29.1906 113.438C29.1947 113.364 29.1987 113.29 29.2032 113.216C29.2126 113.064 29.2235 112.913 29.2345 112.762C29.2385 112.706 29.242 112.651 29.2462 112.596C29.2578 112.444 29.2701 112.293 29.2833 112.142C29.2889 112.077 29.295 112.013 29.3009 111.949C30.3825 100.17 36.4122 88.5433 45.8156 79.0166C40.4431 74.685 37.0001 68.0595 37.0001 60.625C37.0001 47.5801 47.5802 37 60.6251 37C71.8903 37 81.2968 44.8909 83.6632 55.4473C88.7347 53.5455 94.2317 52.4629 100 52.4629C105.772 52.4629 111.266 53.5455 116.337 55.4473C118.703 44.8908 128.11 37 139.375 37Z"/>
</mask>
<path d="M139.375 37C152.42 37.0001 163 47.5801 163 60.625C163 68.0597 159.556 74.685 154.184 79.0166C163.569 88.5247 169.593 100.124 170.692 111.88C170.702 111.993 170.712 112.106 170.722 112.22C170.728 112.293 170.734 112.367 170.74 112.44C170.752 112.588 170.763 112.735 170.774 112.882C170.779 112.956 170.783 113.03 170.788 113.104C170.798 113.251 170.806 113.398 170.814 113.545C170.818 113.63 170.823 113.715 170.827 113.8C170.833 113.914 170.836 114.028 170.841 114.142C170.845 114.244 170.85 114.347 170.854 114.45C170.858 114.576 170.86 114.701 170.862 114.826C170.869 115.134 170.875 115.441 170.875 115.749C170.875 145.107 139.143 162.999 100 162.999C60.8575 162.999 29.1251 145.107 29.1251 115.749C29.1251 115.441 29.1299 115.134 29.1368 114.826C29.1398 114.697 29.1425 114.568 29.1466 114.439C29.1491 114.362 29.1525 114.284 29.1554 114.206C29.1605 114.071 29.1656 113.936 29.172 113.801C29.1777 113.68 29.1838 113.559 29.1906 113.438C29.1947 113.364 29.1987 113.29 29.2032 113.216C29.2126 113.064 29.2235 112.913 29.2345 112.762C29.2385 112.706 29.242 112.651 29.2462 112.596C29.2578 112.444 29.2701 112.293 29.2833 112.142C29.2889 112.077 29.295 112.013 29.3009 111.949C30.3825 100.17 36.4122 88.5433 45.8156 79.0166C40.4431 74.685 37.0001 68.0595 37.0001 60.625C37.0001 47.5801 47.5802 37 60.6251 37C71.8903 37 81.2968 44.8909 83.6632 55.4473C88.7347 53.5455 94.2317 52.4629 100 52.4629C105.772 52.4629 111.266 53.5455 116.337 55.4473C118.703 44.8908 128.11 37 139.375 37Z" fill="#276288"/>
<path d="M139.375 37L139.375 31H139.375V37ZM163 60.625L169 60.625V60.625H163ZM154.184 79.0166L150.418 74.3456C149.098 75.41 148.289 76.9835 148.193 78.6766C148.097 80.3698 148.722 82.0246 149.914 83.2315L154.184 79.0166ZM170.692 111.88L164.718 112.438L164.718 112.441L170.692 111.88ZM170.722 112.22L176.7 111.709L176.7 111.707L170.722 112.22ZM170.74 112.44L164.76 112.919L164.76 112.922L170.74 112.44ZM170.774 112.882L176.759 112.466L176.759 112.464L170.774 112.882ZM170.788 113.104L164.801 113.489L164.801 113.491L170.788 113.104ZM170.814 113.545L176.805 113.224L176.805 113.222L170.814 113.545ZM170.827 113.8L164.834 114.084L164.834 114.085L170.827 113.8ZM170.841 114.142L176.836 113.907L176.836 113.906L170.841 114.142ZM170.854 114.45L164.857 114.64L164.857 114.641L170.854 114.45ZM170.862 114.826L176.861 114.691L176.861 114.69L170.862 114.826ZM170.875 115.749H176.875H170.875ZM100 162.999V168.999H100L100 162.999ZM29.1251 115.749H23.1251H29.1251ZM29.1368 114.826L23.1384 114.69L23.1384 114.691L29.1368 114.826ZM29.1466 114.439L35.1435 114.632L35.1435 114.631L29.1466 114.439ZM29.1554 114.206L23.1597 113.979L23.1596 113.981L29.1554 114.206ZM29.172 113.801L35.1652 114.086L35.1653 114.085L29.172 113.801ZM29.1906 113.438L23.2001 113.101L23.2 113.102L29.1906 113.438ZM29.2032 113.216L35.1918 113.586L35.1919 113.584L29.2032 113.216ZM29.2345 112.762L23.2503 112.326L23.2502 112.328L29.2345 112.762ZM29.2462 112.596L35.2286 113.055L35.2288 113.053L29.2462 112.596ZM29.2833 112.142L23.3062 111.618L23.306 111.62L29.2833 112.142ZM29.3009 111.949L35.2755 112.5L35.2758 112.498L29.3009 111.949ZM45.8156 79.0166L50.0858 83.2315C51.2771 82.0245 51.902 80.3698 51.8059 78.6767C51.7098 76.9836 50.9018 75.4101 49.5816 74.3457L45.8156 79.0166ZM37.0001 60.625H31.0001V60.625L37.0001 60.625ZM60.6251 37L60.6251 31H60.6251V37ZM83.6632 55.4473L77.8085 56.7597C78.1881 58.4532 79.2825 59.8994 80.8091 60.7249C82.3356 61.5505 84.1449 61.6746 85.7699 61.0652L83.6632 55.4473ZM100 52.4629L100 46.4629H100V52.4629ZM116.337 55.4473L114.23 61.0652C115.855 61.6746 117.665 61.5505 119.191 60.7249C120.718 59.8994 121.812 58.4532 122.192 56.7597L116.337 55.4473ZM139.375 37L139.375 43C149.106 43.0001 157 50.8939 157 60.625H163H169C169 44.2664 155.734 31.0001 139.375 31L139.375 37ZM163 60.625L157 60.625C157 66.1612 154.444 71.0994 150.418 74.3456L154.184 79.0166L157.95 83.6876C164.669 78.2706 169 69.9582 169 60.625L163 60.625ZM154.184 79.0166L149.914 83.2315C158.532 91.9626 163.772 102.327 164.718 112.438L170.692 111.88L176.665 111.321C175.413 97.9204 168.606 85.0868 158.454 74.8017L154.184 79.0166ZM170.692 111.88L164.718 112.441C164.726 112.53 164.735 112.625 164.744 112.732L170.722 112.22L176.7 111.707C176.69 111.588 176.678 111.456 176.665 111.319L170.692 111.88ZM170.722 112.22L164.744 112.73C164.751 112.815 164.755 112.866 164.76 112.919L170.74 112.44L176.721 111.961C176.714 111.868 176.705 111.771 176.7 111.709L170.722 112.22ZM170.74 112.44L164.76 112.922C164.77 113.049 164.779 113.175 164.788 113.3L170.774 112.882L176.759 112.464C176.747 112.295 176.734 112.127 176.721 111.959L170.74 112.44ZM170.774 112.882L164.788 113.298C164.792 113.353 164.795 113.409 164.801 113.489L170.788 113.104L176.776 112.72C176.771 112.652 176.766 112.559 176.759 112.466L170.774 112.882ZM170.788 113.104L164.801 113.491C164.808 113.602 164.814 113.72 164.822 113.867L170.814 113.545L176.805 113.222C176.797 113.076 176.788 112.901 176.776 112.718L170.788 113.104ZM170.814 113.545L164.822 113.866C164.83 114.005 164.831 114.02 164.834 114.084L170.827 113.8L176.821 113.516C176.816 113.409 176.807 113.255 176.805 113.224L170.814 113.545ZM170.827 113.8L164.834 114.085C164.838 114.167 164.839 114.212 164.846 114.378L170.841 114.142L176.836 113.906C176.834 113.844 176.827 113.66 176.82 113.514L170.827 113.8ZM170.841 114.142L164.846 114.376C164.855 114.611 164.854 114.542 164.857 114.64L170.854 114.45L176.851 114.26C176.848 114.17 176.844 114.088 176.842 114.032C176.839 113.966 176.838 113.939 176.836 113.907L170.841 114.142ZM170.854 114.45L164.857 114.641C164.86 114.731 164.86 114.779 164.864 114.962L170.862 114.826L176.861 114.69C176.859 114.623 176.856 114.42 176.851 114.259L170.854 114.45ZM170.862 114.826L164.864 114.961C164.871 115.259 164.875 115.511 164.875 115.749H170.875H176.875C176.875 115.371 176.868 115.009 176.861 114.691L170.862 114.826ZM170.875 115.749H164.875C164.875 127.932 158.402 138.016 146.9 145.318C135.274 152.699 118.751 156.999 100 156.999L100 162.999L100 168.999C120.391 168.999 139.307 164.353 153.332 155.449C167.482 146.465 176.875 132.924 176.875 115.749H170.875ZM100 162.999V156.999C81.2489 156.999 64.7266 152.699 53.1 145.318C41.5985 138.016 35.1251 127.932 35.1251 115.749H29.1251H23.1251C23.1251 132.924 32.518 146.465 46.6683 155.449C60.6935 164.353 79.6088 168.999 100 168.999V162.999ZM29.1251 115.749H35.1251C35.1251 115.502 35.129 115.243 35.1353 114.961L29.1368 114.826L23.1384 114.691C23.1308 115.025 23.1251 115.381 23.1251 115.749H29.1251ZM29.1368 114.826L35.1353 114.962C35.1386 114.818 35.1405 114.725 35.1435 114.632L29.1466 114.439L23.1497 114.247C23.1444 114.412 23.141 114.577 23.1384 114.69L29.1368 114.826ZM29.1466 114.439L35.1435 114.631C35.1454 114.573 35.1464 114.559 35.1512 114.432L29.1554 114.206L23.1596 113.981C23.1586 114.009 23.1528 114.151 23.1497 114.248L29.1466 114.439ZM29.1554 114.206L35.1511 114.433C35.1565 114.291 35.1604 114.186 35.1652 114.086L29.172 113.801L23.1788 113.515C23.1707 113.685 23.1645 113.851 23.1597 113.979L29.1554 114.206ZM29.172 113.801L35.1653 114.085C35.1705 113.974 35.1757 113.872 35.1811 113.775L29.1906 113.438L23.2 113.102C23.1919 113.246 23.1849 113.386 23.1787 113.517L29.172 113.801ZM29.1906 113.438L35.181 113.776C35.1868 113.674 35.1885 113.639 35.1918 113.586L29.2032 113.216L23.2147 112.846C23.2088 112.941 23.2027 113.055 23.2001 113.101L29.1906 113.438ZM29.2032 113.216L35.1919 113.584C35.1989 113.471 35.2074 113.353 35.2188 113.195L29.2345 112.762L23.2502 112.328C23.2397 112.473 23.2262 112.658 23.2146 112.848L29.2032 113.216ZM29.2345 112.762L35.2187 113.197C35.2219 113.153 35.2249 113.108 35.2262 113.089C35.2271 113.077 35.2276 113.069 35.2281 113.063C35.2285 113.057 35.2287 113.054 35.2286 113.055L29.2462 112.596L23.2638 112.137C23.2597 112.191 23.2563 112.239 23.2543 112.269C23.2518 112.305 23.2511 112.315 23.2503 112.326L29.2345 112.762ZM29.2462 112.596L35.2288 113.053C35.2388 112.922 35.2494 112.792 35.2606 112.663L29.2833 112.142L23.306 111.62C23.2909 111.794 23.2768 111.967 23.2636 112.139L29.2462 112.596ZM29.2833 112.142L35.2604 112.665C35.2645 112.619 35.2681 112.58 35.2755 112.5L29.3009 111.949L23.3263 111.398C23.3218 111.446 23.3134 111.536 23.3062 111.618L29.2833 112.142ZM29.3009 111.949L35.2758 112.498C36.2058 102.368 41.4506 91.98 50.0858 83.2315L45.8156 79.0166L41.5453 74.8017C31.3739 85.1067 24.5591 97.9709 23.326 111.401L29.3009 111.949ZM45.8156 79.0166L49.5816 74.3457C45.5556 71.0997 43.0001 66.1614 43.0001 60.625L37.0001 60.625L31.0001 60.625C31.0001 69.9575 35.3306 78.2702 42.0496 83.6875L45.8156 79.0166ZM37.0001 60.625H43.0001C43.0001 50.8938 50.8939 43 60.6251 43V37V31C44.2665 31 31.0001 44.2664 31.0001 60.625H37.0001ZM60.6251 37L60.6251 43C69.0134 43 76.0411 48.8755 77.8085 56.7597L83.6632 55.4473L89.5179 54.1348C86.5524 40.9062 74.7672 31 60.6251 31L60.6251 37ZM83.6632 55.4473L85.7699 61.0652C90.2046 59.4023 94.9894 58.4629 100 58.4629V52.4629V46.4629C93.4739 46.4629 87.2648 47.6887 81.5565 49.8293L83.6632 55.4473ZM100 52.4629L100 58.4629C105.014 58.4629 109.795 59.4022 114.23 61.0652L116.337 55.4473L118.444 49.8293C112.736 47.6888 106.53 46.4629 100 46.4629L100 52.4629ZM116.337 55.4473L122.192 56.7597C123.959 48.8755 130.987 43 139.375 43V37V31C125.233 31 113.448 40.9062 110.482 54.1348L116.337 55.4473Z" fill="white" mask="url(#path-1-outside-1_1347_2465)"/>
<path d="M170.875 115.749C170.875 145.107 139.143 162.999 100 162.999C60.8574 162.999 29.1251 145.107 29.1251 115.749C29.1251 86.391 60.8574 56.6865 100 56.6865C139.143 56.6865 170.875 86.391 170.875 115.749Z" fill="#A3CEF8"/>
<path d="M154.16 79.0367C159.547 74.7054 163 68.0708 163 60.625C163 47.58 152.42 37 139.375 37C128.11 37 118.703 44.8907 116.337 55.4472C111.265 53.5453 105.772 52.4625 100 52.4625C94.2316 52.4625 88.7348 53.5453 83.6633 55.4472C81.2969 44.8907 71.8902 37 60.6251 37C47.5802 37 37.0001 47.58 37.0001 60.625C37.0001 68.0708 40.4533 74.7054 45.8398 79.0367C35.4251 89.5892 29.1251 102.697 29.1251 115.75C29.1251 145.108 60.8574 119.687 100 119.687C139.143 119.687 170.875 145.108 170.875 115.75C170.875 102.697 164.575 89.5892 154.16 79.0367Z" fill="#4B9AE8"/>
<path d="M58.6565 71.2566C65.6153 71.2566 71.2565 65.6154 71.2565 58.6566C71.2565 51.6978 65.6153 46.0566 58.6565 46.0566C51.6977 46.0566 46.0565 51.6978 46.0565 58.6566C46.0565 65.6154 51.6977 71.2566 58.6565 71.2566Z" fill="white"/>
<path d="M58.6553 63.8435C61.5194 63.8435 63.8412 61.5217 63.8412 58.6576C63.8412 55.7935 61.5194 53.4717 58.6553 53.4717C55.7912 53.4717 53.4694 55.7935 53.4694 58.6576C53.4694 61.5217 55.7912 63.8435 58.6553 63.8435Z" fill="black" stroke="black" stroke-width="2.68682" stroke-miterlimit="10"/>
<path d="M141.344 71.2566C148.303 71.2566 153.944 65.6154 153.944 58.6566C153.944 51.6978 148.303 46.0566 141.344 46.0566C134.385 46.0566 128.744 51.6978 128.744 58.6566C128.744 65.6154 134.385 71.2566 141.344 71.2566Z" fill="white"/>
<path d="M141.343 63.8435C144.207 63.8435 146.529 61.5217 146.529 58.6576C146.529 55.7935 144.207 53.4717 141.343 53.4717C138.479 53.4717 136.157 55.7935 136.157 58.6576C136.157 61.5217 138.479 63.8435 141.343 63.8435Z" fill="black" stroke="black" stroke-width="2.68682" stroke-miterlimit="10"/>
<path d="M80.3125 107.874C80.3125 108.391 80.4143 108.903 80.6122 109.381C80.8101 109.859 81.1001 110.293 81.4658 110.658C81.8314 111.024 82.2655 111.314 82.7432 111.512C83.2209 111.71 83.7329 111.812 84.25 111.812C84.7671 111.812 85.2791 111.71 85.7568 111.512C86.2345 111.314 86.6686 111.024 87.0342 110.658C87.3999 110.293 87.6899 109.859 87.8878 109.381C88.0856 108.903 88.1875 108.391 88.1875 107.874C88.1875 106.83 87.7726 105.828 87.0342 105.09C86.2958 104.351 85.2943 103.937 84.25 103.937C83.2057 103.937 82.2042 104.351 81.4658 105.09C80.7273 105.828 80.3125 106.83 80.3125 107.874Z" fill="#276288"/>
<path d="M111.813 107.874C111.812 108.918 112.227 109.92 112.966 110.658C113.704 111.397 114.706 111.812 115.75 111.812C116.794 111.812 117.796 111.397 118.534 110.658C119.273 109.92 119.687 108.918 119.687 107.874C119.687 106.83 119.273 105.828 118.534 105.09C117.796 104.351 116.794 103.937 115.75 103.937C114.706 103.937 113.704 104.351 112.966 105.09C112.227 105.828 111.813 106.83 111.813 107.874Z" fill="#276288"/>
</svg>
