<svg width="200" height="200" viewBox="0 0 200 200" fill="none" xmlns="http://www.w3.org/2000/svg">
<mask id="path-1-outside-1_1347_9827" maskUnits="userSpaceOnUse" x="24.1201" y="27.1641" width="152" height="152" fill="black">
<rect fill="white" x="24.1201" y="27.1641" width="152" height="152"/>
<path d="M84.0215 34.7842C105.809 30.4268 118 50.0875 121.372 60.4629C133.822 57.3499 142.988 57.5241 152.499 65.1328C160.28 71.358 164.949 90.0327 156.39 100.927C168.84 106.374 175.065 125.828 164.949 143.726C154.833 161.623 125.264 158.51 113.592 151.507C108.923 160.845 99.5848 174.851 72.3496 172.517C45.1148 170.182 44.3369 137.5 52.8965 123.493C43.5588 121.159 33.4425 118.825 30.3291 100.149C27.2167 69.0256 59.8939 72.1353 59.8984 69.8018C59.8984 67.4673 56.7863 40.2312 84.0215 34.7842Z"/>
</mask>
<path d="M84.0215 34.7842C105.809 30.4268 118 50.0875 121.372 60.4629C133.822 57.3499 142.988 57.5241 152.499 65.1328C160.28 71.358 164.949 90.0327 156.39 100.927C168.84 106.374 175.065 125.828 164.949 143.726C154.833 161.623 125.264 158.51 113.592 151.507C108.923 160.845 99.5848 174.851 72.3496 172.517C45.1148 170.182 44.3369 137.5 52.8965 123.493C43.5588 121.159 33.4425 118.825 30.3291 100.149C27.2167 69.0256 59.8939 72.1353 59.8984 69.8018C59.8984 67.4673 56.7863 40.2312 84.0215 34.7842Z" fill="#F5DB74"/>
<path d="M84.0215 34.7842L82.8448 28.9007L82.8448 28.9007L84.0215 34.7842ZM121.372 60.4629L115.666 62.3175L117.396 67.6417L122.828 66.2837L121.372 60.4629ZM152.499 65.1328L156.247 60.4476L156.247 60.4476L152.499 65.1328ZM156.39 100.927L151.672 97.2199L146.882 103.316L153.985 106.424L156.39 100.927ZM164.949 143.726L170.173 146.678L170.173 146.678L164.949 143.726ZM113.592 151.507L116.679 146.362L111.123 143.028L108.225 148.824L113.592 151.507ZM72.3496 172.517L71.8371 178.495H71.8372L72.3496 172.517ZM52.8965 123.493L58.0162 126.622L62.2749 119.653L54.3517 117.672L52.8965 123.493ZM30.3291 100.149L24.3589 100.746L24.3784 100.942L24.4108 101.136L30.3291 100.149ZM59.8984 69.8018L65.8984 69.8134V69.8018H59.8984ZM84.0215 34.7842L85.1981 40.6677C93.846 38.9382 100.466 41.87 105.552 46.5249C110.82 51.3461 114.226 57.8865 115.666 62.3175L121.372 60.4629L127.078 58.6083C125.146 52.6639 120.771 44.1862 113.653 37.6725C106.355 30.9926 95.9848 26.2728 82.8448 28.9007L84.0215 34.7842ZM121.372 60.4629L122.828 66.2837C128.756 64.8012 133.339 64.2556 137.321 64.7343C141.15 65.1946 144.787 66.6469 148.751 69.818L152.499 65.1328L156.247 60.4476C150.7 56.01 144.998 53.5708 138.754 52.8201C132.662 52.0878 126.437 53.0116 119.917 54.6421L121.372 60.4629ZM152.499 65.1328L148.751 69.818C151.088 71.6882 153.718 76.3109 154.645 82.2104C155.553 87.9901 154.59 93.5058 151.672 97.2199L156.39 100.927L161.108 104.634C166.749 97.4536 167.731 88.185 166.499 80.3475C165.287 72.6298 161.691 64.8027 156.247 60.4476L152.499 65.1328ZM156.39 100.927L153.985 106.424C162.247 110.038 168.634 125.012 159.726 140.773L164.949 143.726L170.173 146.678C181.496 126.644 175.433 102.709 158.795 95.4298L156.39 100.927ZM164.949 143.726L159.726 140.773C156.103 147.183 148.652 150.436 139.508 150.964C130.363 151.491 121.298 149.134 116.679 146.362L113.592 151.507L110.505 156.652C117.557 160.883 129.113 163.583 140.2 162.944C151.288 162.304 163.68 158.165 170.173 146.678L164.949 143.726ZM113.592 151.507L108.225 148.824C106.061 153.151 103.115 157.927 98.0179 161.456C93.029 164.909 85.332 167.607 72.862 166.539L72.3496 172.517L71.8372 178.495C86.6025 179.76 97.1921 176.622 104.848 171.322C112.396 166.097 116.453 159.2 118.958 154.19L113.592 151.507ZM72.3496 172.517L72.8621 166.539C67.3183 166.063 63.477 164.105 60.7675 161.509C57.9943 158.852 56.0808 155.207 55.0242 150.94C52.8496 142.157 54.6378 132.15 58.0162 126.622L52.8965 123.493L47.7768 120.364C42.5955 128.843 40.4929 142.18 43.376 153.824C44.8483 159.77 47.7009 165.609 52.4658 170.174C57.2945 174.8 63.7635 177.803 71.8371 178.495L72.3496 172.517ZM52.8965 123.493L54.3517 117.672C49.4411 116.445 45.8912 115.514 42.9854 113.231C40.3705 111.177 37.6273 107.44 36.2474 99.1628L30.3291 100.149L24.4108 101.136C26.1443 111.534 30.0159 118.302 35.5719 122.667C40.8371 126.804 47.0141 128.207 51.4413 129.314L52.8965 123.493ZM30.3291 100.149L36.2993 99.5524C35.6278 92.8376 36.9285 88.6036 38.696 85.8292C40.4973 83.0017 43.1865 81.0604 46.3502 79.676C49.5518 78.2751 52.9518 77.568 55.8638 77.063C57.1458 76.8407 58.7337 76.5955 59.8117 76.3538C60.3247 76.2388 61.2228 76.0227 62.0977 75.6087C62.5332 75.4026 63.3379 74.977 64.102 74.1927C64.9499 73.3224 65.8945 71.8322 65.8984 69.8134L59.8984 69.8018L53.8984 69.7901C53.9021 67.9172 54.7826 66.5622 55.5067 65.8189C56.1471 65.1615 56.7684 64.8548 56.9651 64.7617C57.3624 64.5737 57.561 64.5605 57.1862 64.6445C56.4884 64.801 55.547 64.9389 53.8135 65.2395C50.6945 65.7803 46.1189 66.6787 41.5396 68.6825C36.9226 70.7028 32.0257 73.9657 28.5753 79.3815C25.091 84.8507 23.4742 91.8994 24.3589 100.746L30.3291 100.149ZM59.8984 69.8018H65.8984C65.8984 67.9936 65.2092 61.9641 67.4317 55.3789C69.4868 49.2898 74.0136 42.9046 85.1982 40.6677L84.0215 34.7842L82.8448 28.9007C66.7942 32.1108 59.2594 42.0672 56.0618 51.5415C54.5153 56.1237 53.994 60.5099 53.8438 63.8411C53.7104 66.7997 53.8984 70.108 53.8984 69.8018H59.8984Z" fill="white" mask="url(#path-1-outside-1_1347_9827)"/>
<path d="M84.0212 34.7846C105.809 30.4269 118 50.0881 121.372 60.4635C133.822 57.3505 142.988 57.524 152.499 65.1327C160.281 71.3579 164.95 90.0335 156.39 100.928C168.84 106.375 175.066 125.828 164.95 143.726C154.834 161.623 125.264 158.511 113.592 151.507C108.923 160.845 99.5851 174.852 72.3499 172.517C45.1147 170.183 44.3365 137.501 52.8962 123.494C43.5584 121.159 33.4424 118.825 30.3291 100.149C27.2165 69.0235 59.8986 72.1361 59.8986 69.8016C59.8986 67.4672 56.786 40.2316 84.0212 34.7846Z" fill="#4B9AE8"/>
<path d="M120.42 102.201C120.42 111.287 112.566 116.94 103.209 116.94C93.8508 116.94 87.356 113.63 85.3081 103.571C83.409 94.2457 88.8491 85.9775 101.143 84.8546C110.5 84 120.42 93.1153 120.42 102.201Z" fill="#F5DB74"/>
</svg>
