<svg width="1024" height="1024" viewBox="0 0 1024 1024" fill="none" xmlns="http://www.w3.org/2000/svg">
<mask id="path-1-outside-1_1417_1718" maskUnits="userSpaceOnUse" x="71.3262" y="157.949" width="877" height="746" fill="black">
<rect fill="white" x="71.3262" y="157.949" width="877" height="746"/>
<path d="M459.619 192.807C557.669 175.229 651.337 240.242 670.402 346.564C672.409 357.766 673.495 368.912 673.697 379.895C688.175 380.21 793.042 334.294 809.573 337.684C815.462 338.882 821.485 343.215 827.342 349.354C842.076 341.448 856.691 334.186 870.605 328.107C931.817 301.368 932.078 365.232 867.581 418.529C873.194 434.462 870.827 446.416 848.006 465.071C824.823 484.011 793.704 490.324 795.628 498.378C796.457 501.859 806.287 533.424 806.938 536.966C823.822 630.743 766.221 715.208 671.42 762.356L685.673 813.495L716.325 797.715C721.242 796.345 726.233 797.101 730.384 799.442C734.502 801.793 737.762 805.663 739.133 810.58C741.865 820.382 736.069 830.657 726.267 833.389L679.345 846.465C671.921 848.534 664.154 844.152 662.085 836.728L644.678 774.266C621.604 783.411 596.775 790.488 570.631 795.163C538.514 800.906 506.994 802.559 477.051 800.42V857.954C477.051 865.661 470.745 871.966 463.038 871.966H414.328C404.152 871.966 395.812 863.625 395.812 853.449C395.812 848.345 397.913 843.741 401.249 840.371C404.619 837.001 409.224 834.934 414.328 834.934L448.091 841.906V797.095C350.672 781.537 274.986 723.677 258.999 634.881C258.538 632.435 255.148 616.574 253.511 608.949L240.435 612.873L218.88 619.246C204.993 622.521 190.87 614.732 186.34 601.279C184.742 596.559 182.638 590.792 180.465 584.343C104.143 571.6 74.7615 520.859 137.199 512.315C148.584 510.758 160.691 509.583 173.158 508.72C175.177 503.035 178.162 497.726 182.36 493C193.939 479.961 325.871 460.238 329.932 456.107C329.932 456.107 329.951 456.145 329.989 456.22C325.975 444.958 317.383 421.362 315.387 410.186C296.322 303.864 361.57 210.384 459.619 192.807Z"/>
</mask>
<path d="M459.619 192.807C557.669 175.229 651.337 240.242 670.402 346.564C672.409 357.766 673.495 368.912 673.697 379.895C688.175 380.21 793.042 334.294 809.573 337.684C815.462 338.882 821.485 343.215 827.342 349.354C842.076 341.448 856.691 334.186 870.605 328.107C931.817 301.368 932.078 365.232 867.581 418.529C873.194 434.462 870.827 446.416 848.006 465.071C824.823 484.011 793.704 490.324 795.628 498.378C796.457 501.859 806.287 533.424 806.938 536.966C823.822 630.743 766.221 715.208 671.42 762.356L685.673 813.495L716.325 797.715C721.242 796.345 726.233 797.101 730.384 799.442C734.502 801.793 737.762 805.663 739.133 810.58C741.865 820.382 736.069 830.657 726.267 833.389L679.345 846.465C671.921 848.534 664.154 844.152 662.085 836.728L644.678 774.266C621.604 783.411 596.775 790.488 570.631 795.163C538.514 800.906 506.994 802.559 477.051 800.42V857.954C477.051 865.661 470.745 871.966 463.038 871.966H414.328C404.152 871.966 395.812 863.625 395.812 853.449C395.812 848.345 397.913 843.741 401.249 840.371C404.619 837.001 409.224 834.934 414.328 834.934L448.091 841.906V797.095C350.672 781.537 274.986 723.677 258.999 634.881C258.538 632.435 255.148 616.574 253.511 608.949L240.435 612.873L218.88 619.246C204.993 622.521 190.87 614.732 186.34 601.279C184.742 596.559 182.638 590.792 180.465 584.343C104.143 571.6 74.7615 520.859 137.199 512.315C148.584 510.758 160.691 509.583 173.158 508.72C175.177 503.035 178.162 497.726 182.36 493C193.939 479.961 325.871 460.238 329.932 456.107C329.932 456.107 329.951 456.145 329.989 456.22C325.975 444.958 317.383 421.362 315.387 410.186C296.322 303.864 361.57 210.384 459.619 192.807Z" fill="black"/>
<path d="M459.619 192.807L454.039 161.68L454.039 161.68L459.619 192.807ZM670.402 346.564L701.529 340.989L701.528 340.983L670.402 346.564ZM673.697 379.895L642.08 380.476C642.392 397.443 656.041 411.139 673.007 411.509L673.697 379.895ZM809.573 337.684L803.221 368.662C803.237 368.665 803.252 368.668 803.268 368.671L809.573 337.684ZM827.342 349.354L804.46 371.181C814.278 381.474 829.76 383.944 842.294 377.219L827.342 349.354ZM870.605 328.107L857.947 299.129L857.947 299.129L870.605 328.107ZM867.581 418.529L847.437 394.153C837.215 402.6 833.349 416.529 837.756 429.037L867.581 418.529ZM848.006 465.071L868.012 489.561L868.019 489.555L848.006 465.071ZM795.628 498.378L826.39 491.052C826.388 491.045 826.387 491.039 826.385 491.032L795.628 498.378ZM806.938 536.966L838.061 531.363C838.053 531.322 838.046 531.282 838.039 531.242L806.938 536.966ZM671.42 762.356L657.338 734.042C643.76 740.796 636.887 756.238 640.958 770.846L671.42 762.356ZM685.673 813.495L655.211 821.985C657.764 831.144 664.303 838.669 673.016 842.474C681.73 846.28 691.693 845.963 700.147 841.611L685.673 813.495ZM716.325 797.715L707.836 767.253C705.767 767.83 703.761 768.616 701.851 769.599L716.325 797.715ZM730.384 799.442L746.058 771.978C746.012 771.952 745.967 771.926 745.921 771.9L730.384 799.442ZM739.133 810.58L769.595 802.091L769.594 802.09L739.133 810.58ZM726.267 833.389L734.756 863.85L734.756 863.85L726.267 833.389ZM679.345 846.465L687.834 876.927L687.834 876.927L679.345 846.465ZM662.085 836.728L692.547 828.238L692.547 828.238L662.085 836.728ZM644.678 774.266L675.139 765.776C672.732 757.139 666.771 749.929 658.74 745.942C650.708 741.954 641.361 741.564 633.026 744.868L644.678 774.266ZM570.631 795.163L576.197 826.292L576.197 826.292L570.631 795.163ZM477.051 800.42L479.304 768.878C470.548 768.252 461.926 771.295 455.502 777.277C449.077 783.258 445.428 791.642 445.428 800.42H477.051ZM477.051 857.954L508.673 857.955V857.954H477.051ZM463.038 871.966L463.038 903.588L463.038 903.588L463.038 871.966ZM395.812 853.449L364.189 853.448V853.449H395.812ZM401.249 840.371L378.889 818.011C378.851 818.048 378.814 818.085 378.777 818.122L401.249 840.371ZM414.328 834.934L420.724 803.965C418.62 803.53 416.477 803.311 414.328 803.311V834.934ZM448.091 841.906L441.695 872.875C451.007 874.798 460.69 872.429 468.062 866.424C475.435 860.419 479.713 851.415 479.713 841.906H448.091ZM448.091 797.095H479.713C479.713 781.555 468.423 768.319 453.078 765.868L448.091 797.095ZM258.999 634.881L290.121 629.278C290.106 629.192 290.09 629.107 290.074 629.022L258.999 634.881ZM253.511 608.949L284.428 602.31C282.576 593.681 277.2 586.219 269.603 581.727C262.005 577.236 252.876 576.124 244.422 578.661L253.511 608.949ZM240.435 612.873L249.401 643.198C249.442 643.186 249.482 643.173 249.523 643.161L240.435 612.873ZM218.88 619.246L226.138 650.024C226.711 649.889 227.281 649.738 227.846 649.571L218.88 619.246ZM186.34 601.279L216.309 591.187C216.303 591.171 216.298 591.155 216.292 591.139L186.34 601.279ZM180.465 584.343L210.432 574.246C206.705 563.183 197.186 555.074 185.672 553.152L180.465 584.343ZM137.199 512.315L132.912 480.985L132.912 480.985L137.199 512.315ZM173.158 508.72L175.343 540.267C187.901 539.397 198.747 531.162 202.958 519.3L173.158 508.72ZM182.36 493L206.002 514.001L206.006 513.996L182.36 493ZM329.932 456.107L358.156 441.846C353.561 432.752 344.865 426.429 334.797 424.862C324.73 423.294 314.523 426.673 307.38 433.939L329.932 456.107ZM329.989 456.22L301.899 470.743C309.54 485.522 327.327 491.853 342.588 485.224C357.848 478.596 365.362 461.276 359.776 445.603L329.989 456.22ZM315.387 410.186L346.516 404.624C346.515 404.618 346.514 404.611 346.513 404.604L315.387 410.186ZM459.619 192.807L465.199 223.933C545.18 209.595 623.134 262.121 639.276 352.146L670.402 346.564L701.528 340.983C679.541 218.363 570.158 140.864 454.039 161.68L459.619 192.807ZM670.402 346.564L639.275 352.139C640.989 361.709 641.909 371.185 642.08 380.476L673.697 379.895L705.314 379.314C705.081 366.639 703.828 353.823 701.529 340.989L670.402 346.564ZM673.697 379.895L673.007 411.509C680.319 411.669 688.036 409.481 691.664 408.449C696.816 406.984 702.829 404.999 709.077 402.831C721.54 398.507 737.034 392.714 751.736 387.332C766.809 381.814 781.221 376.663 792.734 373.108C798.527 371.32 802.953 370.135 806.016 369.498C810.758 368.513 808.284 369.7 803.221 368.662L809.573 337.684L815.925 306.706C806.73 304.82 797.362 306.7 793.149 307.576C787.256 308.801 780.664 310.644 774.075 312.678C760.823 316.77 745.014 322.443 729.995 327.941C714.604 333.575 700.133 338.99 688.345 343.081C682.468 345.12 677.784 346.644 674.365 347.616C669.422 349.022 670.695 348.199 674.387 348.28L673.697 379.895ZM809.573 337.684L803.268 368.671C802.128 368.439 801.358 368.133 800.99 367.967C800.627 367.803 800.571 367.737 800.82 367.905C801.066 368.07 801.516 368.4 802.162 368.963C802.805 369.522 803.574 370.252 804.46 371.181L827.342 349.354L850.224 327.528C842.935 319.887 831.348 309.844 815.879 306.696L809.573 337.684ZM827.342 349.354L842.294 377.219C856.497 369.597 870.327 362.737 883.264 357.086L870.605 328.107L857.947 299.129C843.055 305.634 827.654 313.299 812.389 321.49L827.342 349.354ZM870.605 328.107L883.264 357.086C895.885 351.572 897.465 354.5 893.249 352.808C890.383 351.658 887.588 349.296 885.899 346.248C884.44 343.617 884.63 342 884.617 342.738C884.582 344.677 883.357 351.218 876.985 361.509C870.923 371.3 861.243 382.745 847.437 394.153L867.581 418.529L887.725 442.906C906.168 427.665 920.642 411.141 930.757 394.803C940.564 378.964 947.541 361.217 947.851 343.871C948.182 325.398 940.159 303.485 916.804 294.113C897.338 286.301 875.932 291.273 857.947 299.129L870.605 328.107ZM867.581 418.529L837.756 429.037C838.552 431.298 838.545 431.989 838.53 431.722C838.498 431.172 838.605 430.323 838.848 429.673C839.015 429.23 838.866 429.921 837.236 431.868C835.559 433.871 832.715 436.727 827.992 440.588L848.006 465.071L868.019 489.555C880.872 479.049 892.373 467.06 898.064 451.885C904.383 435.04 901.579 419.864 897.407 408.021L867.581 418.529ZM848.006 465.071L827.999 440.582C819.89 447.207 809.912 451.986 798.845 457.238C794.346 459.373 787.495 462.572 782.113 466.186C779.446 467.977 774.721 471.415 770.79 476.828C766.296 483.015 761.91 493.326 764.871 505.724L795.628 498.378L826.385 491.032C828.865 501.416 825.031 509.768 821.961 513.995C820.573 515.907 819.275 517.13 818.596 517.724C817.886 518.346 817.41 518.665 817.368 518.693C817.365 518.695 817.964 518.308 819.675 517.431C821.317 516.589 823.31 515.633 825.958 514.376C835.766 509.722 852.938 501.875 868.012 489.561L848.006 465.071ZM795.628 498.378L764.866 505.704C765.34 507.694 766.472 511.481 767.358 514.441C768.418 517.984 769.769 522.451 771.072 526.773C772.394 531.159 773.675 535.431 774.66 538.801C775.155 540.496 775.543 541.851 775.811 542.827C776.221 544.317 776.05 543.84 775.838 542.69L806.938 536.966L838.039 531.242C837.664 529.207 837.043 526.968 836.788 526.041C836.391 524.598 835.897 522.88 835.366 521.062C834.298 517.41 832.948 512.909 831.627 508.525C830.287 504.079 828.986 499.779 827.949 496.314C826.738 492.267 826.331 490.802 826.39 491.052L795.628 498.378ZM806.938 536.966L775.816 542.569C789.405 618.046 744.141 690.872 657.338 734.042L671.42 762.356L685.502 790.67C788.301 739.544 858.239 643.44 838.061 531.363L806.938 536.966ZM671.42 762.356L640.958 770.846L655.211 821.985L685.673 813.495L716.134 805.005L701.881 753.866L671.42 762.356ZM685.673 813.495L700.147 841.611L730.799 825.83L716.325 797.715L701.851 769.599L671.199 785.38L685.673 813.495ZM716.325 797.715L724.814 828.177C721.272 829.164 717.649 828.566 714.847 826.985L730.384 799.442L745.921 771.9C734.817 765.636 721.213 763.525 707.836 767.253L716.325 797.715ZM730.384 799.442L714.709 826.907C712.108 825.422 709.693 822.735 708.671 819.07L739.133 810.58L769.594 802.09C765.832 788.592 756.895 778.163 746.058 771.978L730.384 799.442ZM739.133 810.58L708.671 819.069C706.715 812.049 710.755 804.884 717.778 802.927L726.267 833.389L734.756 863.85C761.383 856.43 777.014 828.716 769.595 802.091L739.133 810.58ZM726.267 833.389L717.778 802.927L670.856 816.003L679.345 846.465L687.834 876.927L734.756 863.85L726.267 833.389ZM679.345 846.465L670.856 816.003C680.258 813.383 689.928 818.842 692.547 828.238L662.085 836.728L631.623 845.217C638.38 869.461 663.583 883.685 687.834 876.927L679.345 846.465ZM662.085 836.728L692.547 828.238L675.139 765.776L644.678 774.266L614.216 782.755L631.623 845.217L662.085 836.728ZM644.678 774.266L633.026 744.868C611.974 753.213 589.188 759.721 565.065 764.034L570.631 795.163L576.197 826.292C604.362 821.256 631.235 813.61 656.33 803.663L644.678 774.266ZM570.631 795.163L565.065 764.034C535.427 769.334 506.534 770.823 479.304 768.878L477.051 800.42L474.798 831.962C507.454 834.295 541.601 832.478 576.197 826.292L570.631 795.163ZM477.051 800.42H445.428V857.954H477.051H508.673V800.42H477.051ZM477.051 857.954L445.428 857.953C445.429 848.194 453.282 840.343 463.038 840.343L463.038 871.966L463.038 903.588C488.207 903.588 508.673 883.128 508.673 857.955L477.051 857.954ZM463.038 871.966V840.343H414.328V871.966V903.588H463.038V871.966ZM414.328 871.966V840.343C421.617 840.343 427.434 846.16 427.434 853.449H395.812H364.189C364.189 881.09 386.688 903.588 414.328 903.588V871.966ZM395.812 853.449L427.434 853.45C427.434 857.251 425.83 860.489 423.721 862.62L401.249 840.371L378.777 818.122C369.996 826.992 364.189 839.438 364.189 853.448L395.812 853.449ZM401.249 840.371L423.609 862.732C421.332 865.009 418.002 866.556 414.328 866.556V834.934V803.311C400.445 803.311 387.906 808.993 378.889 818.011L401.249 840.371ZM414.328 834.934L407.932 865.903L441.695 872.875L448.091 841.906L454.487 810.937L420.724 803.965L414.328 834.934ZM448.091 841.906H479.713V797.095H448.091H416.468V841.906H448.091ZM448.091 797.095L453.078 765.868C364.504 751.723 303.019 700.917 290.121 629.278L258.999 634.881L227.877 640.484C246.953 746.436 336.84 811.351 443.104 828.321L448.091 797.095ZM258.999 634.881L290.074 629.022C289.516 626.063 285.992 609.59 284.428 602.31L253.511 608.949L222.593 615.588C223.409 619.386 224.66 625.234 225.764 630.428C226.316 633.028 226.827 635.443 227.226 637.349C227.425 638.303 227.592 639.107 227.72 639.731C227.784 640.043 227.835 640.292 227.873 640.482C227.914 640.688 227.928 640.759 227.924 640.74L258.999 634.881ZM253.511 608.949L244.422 578.661L231.346 582.585L240.435 612.873L249.523 643.161L262.599 639.237L253.511 608.949ZM240.435 612.873L231.468 582.548L209.914 588.921L218.88 619.246L227.846 649.571L249.401 643.198L240.435 612.873ZM218.88 619.246L211.622 588.468C213.465 588.033 215.577 589.015 216.309 591.187L186.34 601.279L156.371 611.371C166.163 640.448 196.522 657.008 226.138 650.024L218.88 619.246ZM186.34 601.279L216.292 591.139C215.42 588.561 214.417 585.722 213.452 582.975C212.459 580.149 211.448 577.261 210.432 574.246L180.465 584.343L150.498 594.44C151.655 597.874 152.783 601.094 153.784 603.944C154.813 606.872 155.662 609.277 156.387 611.419L186.34 601.279ZM180.465 584.343L185.672 553.152C169.52 550.455 156.721 545.88 147.624 541.021C137.993 535.877 134.539 531.542 134.012 530.651C133.882 530.431 134.936 532.097 134.949 535.374C134.963 539.078 133.62 542.538 131.761 544.907C129.008 548.414 128.798 545.382 141.486 543.646L137.199 512.315L132.912 480.985C114.382 483.521 94.4305 490.035 82.011 505.857C67.0449 524.924 70.3018 547.175 79.5826 562.859C88.1364 577.314 102.436 588.587 117.829 596.808C133.755 605.314 153.249 611.859 175.257 615.533L180.465 584.343ZM137.199 512.315L141.486 543.646C152.029 542.203 163.417 541.092 175.343 540.267L173.158 508.72L170.974 477.173C157.966 478.074 145.139 479.312 132.912 480.985L137.199 512.315ZM173.158 508.72L202.958 519.3C203.738 517.103 204.744 515.417 206.002 514.001L182.36 493L158.718 471.999C151.579 480.036 146.615 488.967 143.358 498.14L173.158 508.72ZM182.36 493L206.006 513.996C204.327 515.888 202.829 517.022 202.14 517.513C201.384 518.052 200.893 518.314 200.852 518.336C200.818 518.355 201.457 518.022 203.094 517.4C206.345 516.164 211.276 514.63 217.875 512.871C230.955 509.385 247.871 505.725 265.243 502.206C283.365 498.535 298.718 495.654 313.012 492.785C319.604 491.462 325.624 490.205 330.248 489.101C332.496 488.564 334.966 487.933 337.21 487.228C338.292 486.888 339.917 486.347 341.686 485.586C342.188 485.37 347.622 483.221 352.483 478.275L329.932 456.107L307.38 433.939C310.168 431.104 312.824 429.511 313.848 428.921C315.126 428.183 316.161 427.718 316.682 427.494C317.259 427.245 317.689 427.087 317.896 427.013C318.119 426.933 318.249 426.892 318.255 426.891C318.266 426.887 318.211 426.904 318.076 426.943C317.943 426.981 317.758 427.032 317.515 427.097C317.021 427.227 316.373 427.391 315.552 427.587C312.138 428.402 307.094 429.466 300.566 430.777C288.619 433.175 269.504 436.814 252.687 440.22C235.121 443.778 216.629 447.751 201.589 451.759C194.128 453.748 186.82 455.926 180.624 458.281C177.538 459.454 174.151 460.886 170.91 462.628C168.181 464.095 163.123 467.038 158.714 472.004L182.36 493ZM329.932 456.107C301.708 470.369 301.708 470.369 301.708 470.369C301.708 470.369 301.708 470.369 301.708 470.37C301.708 470.37 301.708 470.37 301.709 470.371C301.709 470.371 301.709 470.372 301.71 470.373C301.71 470.374 301.711 470.375 301.712 470.377C301.713 470.379 301.714 470.382 301.716 470.385C301.719 470.391 301.722 470.397 301.725 470.403C301.731 470.415 301.737 470.427 301.744 470.44C301.757 470.467 301.772 470.496 301.788 470.527C301.82 470.589 301.857 470.661 301.899 470.743L329.989 456.22L358.079 441.697C358.083 441.704 358.091 441.72 358.104 441.745C358.11 441.757 358.118 441.772 358.127 441.789C358.131 441.797 358.135 441.806 358.14 441.816C358.143 441.821 358.145 441.826 358.148 441.831C358.149 441.833 358.15 441.836 358.152 441.838C358.152 441.84 358.153 441.841 358.154 441.842C358.154 441.843 358.154 441.844 358.155 441.844C358.155 441.845 358.155 441.845 358.155 441.845C358.155 441.845 358.155 441.846 358.155 441.846C358.156 441.846 358.156 441.846 329.932 456.107ZM329.989 456.22L359.776 445.603C357.704 439.788 354.7 431.483 351.933 423.177C348.971 414.283 347.056 407.644 346.516 404.624L315.387 410.186L284.257 415.747C285.714 423.904 289.094 434.651 291.93 443.165C294.962 452.266 298.261 461.389 300.202 466.836L329.989 456.22ZM315.387 410.186L346.513 404.604C330.371 314.585 385.215 238.272 465.199 223.933L459.619 192.807L454.039 161.68C337.924 182.496 262.272 293.142 284.261 415.767L315.387 410.186Z" fill="black" mask="url(#path-1-outside-1_1417_1718)"/>
</svg>
