<svg width="1024" height="1024" viewBox="0 0 1024 1024" fill="none" xmlns="http://www.w3.org/2000/svg">
<path d="M477.051 704.616V857.953C477.051 865.66 470.745 871.965 463.038 871.965H414.328C404.153 871.965 395.812 863.625 395.812 853.449C395.812 848.344 397.914 843.74 401.25 840.37C404.62 837.001 409.224 834.932 414.328 834.932L448.092 841.905V704.649C448.092 696.942 454.397 690.637 462.104 690.637H463.038C470.745 690.637 477.051 696.942 477.051 704.649V704.616Z" fill="#747474"/>
<path d="M620.922 689.019L662.085 836.727C664.154 844.151 671.921 848.533 679.345 846.464L726.267 833.388C736.07 830.656 741.865 820.382 739.134 810.58C737.763 805.663 734.502 801.792 730.384 799.442C726.233 797.1 721.243 796.344 716.326 797.714L685.674 813.495L648.827 681.277C646.758 673.853 638.991 669.471 631.567 671.54L630.667 671.791C623.243 673.86 618.862 681.627 620.931 689.051L620.922 689.019Z" fill="#747474"/>
<path d="M362.891 511.678C362.891 511.678 227.362 499.978 137.199 512.315C47.0354 524.653 148.342 624.985 305.974 571.818" fill="#42A1FF"/>
<path d="M669.955 449.758C669.955 449.758 783.903 365.982 870.606 328.107C957.308 290.232 921.728 434.138 753.036 472.311" fill="#42A1FF"/>
<path d="M803.977 536.156C826.239 660.203 718.983 768.034 567.705 795.14C416.397 822.276 283.679 756.71 261.416 632.662C248.923 563.093 277.256 509.494 330.426 457.442C326.636 446.76 317.459 421.785 315.387 410.185C296.322 303.863 361.57 210.383 459.619 192.806C557.669 175.228 651.337 240.241 670.402 346.563C672.474 358.133 673.57 369.644 673.718 380.978C741.719 411.309 791.454 466.586 803.947 536.156H803.977Z" fill="#42A1FF"/>
<path d="M529.192 356.002C529.553 375.343 508.559 405.683 489.765 406.031C470.972 406.38 448.884 376.822 448.523 357.481C448.163 338.14 460.17 322.23 488.212 321.721C516.576 321.199 528.832 336.661 529.192 356.002Z" fill="#EAC00F"/>
<path d="M387.907 374.412C409.737 374.412 427.435 356.714 427.435 334.884C427.435 313.053 409.737 295.355 387.907 295.355C366.076 295.355 348.379 313.053 348.379 334.884C348.379 356.714 366.076 374.412 387.907 374.412Z" fill="white"/>
<path d="M387.901 313.025C399.977 313.026 409.764 322.814 409.764 334.89C409.764 346.965 399.977 356.753 387.901 356.753C375.825 356.753 366.037 346.966 366.037 334.89C366.037 322.813 375.825 313.025 387.901 313.025Z" fill="black"/>
<path d="M577.642 337.52C599.473 337.52 617.17 319.823 617.17 297.992C617.17 276.161 599.473 258.464 577.642 258.464C555.811 258.464 538.114 276.161 538.114 297.992C538.114 319.823 555.811 337.52 577.642 337.52Z" fill="white"/>
<path d="M577.636 276.133C589.712 276.133 599.499 285.921 599.499 297.997C599.499 310.073 589.712 319.86 577.636 319.86C565.56 319.86 555.772 310.073 555.772 297.997C555.772 285.921 565.56 276.133 577.636 276.133Z" fill="black"/>
<path d="M848.006 465.064C874.713 443.233 873.41 430.577 864.083 409.985C853.335 386.177 830.596 341.955 809.573 337.677C792.46 334.166 680.651 383.515 672.508 379.68C672.508 379.68 660.197 464.592 510.081 491.409C359.965 518.226 329.932 456.1 329.932 456.1C325.875 460.231 193.937 479.954 182.36 492.993C155.682 523.026 177.96 576.521 186.339 601.272C190.869 614.725 204.993 622.513 218.879 619.239L240.434 612.866L253.511 608.942C255.148 616.568 258.538 632.43 258.999 634.874C281.265 758.544 419.33 822.209 570.631 795.156C721.932 768.103 829.204 660.629 806.938 536.959C806.287 533.419 796.457 501.853 795.628 498.371C793.703 490.317 824.822 484.004 848.006 465.064Z" fill="#9D49E6"/>
<path d="M435.238 627.382L435.49 640.083L430.522 640.963L431.371 682.683L443.412 680.514L443.161 668.315L458.849 665.486L459.352 690.48L407.037 699.88L406.786 687.084L411.942 686.173L411.093 644.453L405.937 645.365L405.686 632.664L435.207 627.382H435.238Z" fill="#F25E5E"/>
<path d="M493.715 616.913L493.967 629.614L488.182 630.652L489.031 672.371L494.816 671.334L495.067 684.13L464.037 689.694L463.785 676.899L469.664 675.83L468.816 634.11L462.937 635.179L462.685 622.478L493.715 616.913Z" fill="#F25E5E"/>
<path d="M563.572 621.343C562.912 625.807 561.748 632.378 561.119 634.705L552.065 673.846L532.541 677.336L521.286 640.867C520.783 639.326 519.463 634.045 519.086 629.297L518.708 629.36L519.494 667.244L524.807 666.301L525.059 678.688L499.751 683.215L499.499 670.828L504.529 669.916L503.649 627.537L498.682 628.417L498.43 616.03L533.83 609.679L544.017 643.948L552.254 606.378L587.843 599.996L588.094 612.383L582.97 613.295L583.818 655.58L588.943 654.668L589.194 667.15L559.673 672.431L559.422 659.95L564.641 659.007L563.98 626.908L563.855 621.249L563.477 621.312L563.572 621.343Z" fill="#F25E5E"/>
<path d="M623.589 593.613L623.841 606.315L618.056 607.352L618.905 649.072L624.689 648.034L624.941 660.83L593.911 666.394L593.659 653.599L599.538 652.53L598.689 610.81L592.81 611.879L592.559 599.178L623.589 593.613Z" fill="#F25E5E"/>
<path d="M690.554 606.692L676.815 609.145L676.564 596.852L668.704 598.267L669.553 639.986L677.318 638.603L677.57 651.399L642.798 657.624L642.547 644.828L650.218 643.445L649.369 601.725L641.32 603.171L641.572 615.464L627.833 617.916L627.33 592.922L690.019 581.667L690.522 606.661L690.554 606.692Z" fill="#F25E5E"/>
<path d="M430.616 627.506L430.522 698.495" stroke="#F25E5E" stroke-width="2.10641" stroke-miterlimit="10"/>
<path d="M426.026 628.323L425.932 699.312" stroke="#F25E5E" stroke-width="2.10641" stroke-miterlimit="10"/>
<path d="M421.437 629.173L421.343 700.131" stroke="#F25E5E" stroke-width="2.10641" stroke-miterlimit="10"/>
<path d="M416.847 629.991L416.753 700.949" stroke="#F25E5E" stroke-width="2.10641" stroke-miterlimit="10"/>
<path d="M412.256 630.81L412.162 701.767" stroke="#F25E5E" stroke-width="2.10641" stroke-miterlimit="10"/>
<path d="M407.667 631.628L407.541 702.617" stroke="#F25E5E" stroke-width="2.10641" stroke-miterlimit="10"/>
<path d="M403.077 632.441L402.951 703.431" stroke="#F25E5E" stroke-width="2.10641" stroke-miterlimit="10"/>
<path d="M398.486 633.291L398.36 704.249" stroke="#F25E5E" stroke-width="2.10641" stroke-miterlimit="10"/>
<path d="M393.895 634.109L393.769 705.067" stroke="#F25E5E" stroke-width="2.10641" stroke-miterlimit="10"/>
<path d="M389.305 634.927L389.18 705.884" stroke="#F25E5E" stroke-width="2.10641" stroke-miterlimit="10"/>
<path d="M384.622 692.273L384.59 706.735" stroke="#F25E5E" stroke-width="2.10641" stroke-miterlimit="10"/>
<path d="M384.715 635.745L384.683 650.962" stroke="#F25E5E" stroke-width="2.10641" stroke-miterlimit="10"/>
<path d="M380.031 693.118L380 707.549" stroke="#F25E5E" stroke-width="2.10641" stroke-miterlimit="10"/>
<path d="M380.126 636.563L380.094 651.78" stroke="#F25E5E" stroke-width="2.10641" stroke-miterlimit="10"/>
<path d="M435.207 626.692L435.113 697.682" stroke="#F25E5E" stroke-width="2.10641" stroke-miterlimit="10"/>
<path d="M439.797 625.874L439.702 696.832" stroke="#F25E5E" stroke-width="2.10641" stroke-miterlimit="10"/>
<path d="M444.387 625.056L444.292 696.013" stroke="#F25E5E" stroke-width="2.10641" stroke-miterlimit="10"/>
<path d="M448.976 624.237L448.882 695.195" stroke="#F25E5E" stroke-width="2.10641" stroke-miterlimit="10"/>
<path d="M453.568 623.388L453.474 694.377" stroke="#F25E5E" stroke-width="2.10641" stroke-miterlimit="10"/>
<path d="M458.157 622.569L458.063 693.559" stroke="#F25E5E" stroke-width="2.10641" stroke-miterlimit="10"/>
<path d="M462.748 621.751L462.654 692.709" stroke="#F25E5E" stroke-width="2.10641" stroke-miterlimit="10"/>
<path d="M467.338 620.938L467.244 691.896" stroke="#F25E5E" stroke-width="2.10641" stroke-miterlimit="10"/>
<path d="M471.959 620.119L471.833 691.077" stroke="#F25E5E" stroke-width="2.10641" stroke-miterlimit="10"/>
<path d="M476.549 619.271L476.423 690.26" stroke="#F25E5E" stroke-width="2.10641" stroke-miterlimit="10"/>
<path d="M481.139 618.452L481.013 689.441" stroke="#F25E5E" stroke-width="2.10641" stroke-miterlimit="10"/>
<path d="M485.729 617.634L485.604 688.592" stroke="#F25E5E" stroke-width="2.10641" stroke-miterlimit="10"/>
<path d="M490.319 616.815L490.194 687.773" stroke="#F25E5E" stroke-width="2.10641" stroke-miterlimit="10"/>
<path d="M494.91 616.002L494.785 686.96" stroke="#F25E5E" stroke-width="2.10641" stroke-miterlimit="10"/>
<path d="M499.5 615.153L499.374 686.142" stroke="#F25E5E" stroke-width="2.10641" stroke-miterlimit="10"/>
<path d="M504.09 614.335L503.964 685.324" stroke="#F25E5E" stroke-width="2.10641" stroke-miterlimit="10"/>
<path d="M508.679 613.516L508.554 684.505" stroke="#F25E5E" stroke-width="2.10641" stroke-miterlimit="10"/>
<path d="M513.271 612.698L513.145 683.656" stroke="#F25E5E" stroke-width="2.10641" stroke-miterlimit="10"/>
<path d="M517.86 611.885L517.734 682.843" stroke="#F25E5E" stroke-width="2.10641" stroke-miterlimit="10"/>
<path d="M522.45 611.035L522.324 682.024" stroke="#F25E5E" stroke-width="2.10641" stroke-miterlimit="10"/>
<path d="M527.04 610.217L526.914 681.206" stroke="#F25E5E" stroke-width="2.10641" stroke-miterlimit="10"/>
<path d="M531.631 609.398L531.505 680.388" stroke="#F25E5E" stroke-width="2.10641" stroke-miterlimit="10"/>
<path d="M536.221 608.58L536.095 679.538" stroke="#F25E5E" stroke-width="2.10641" stroke-miterlimit="10"/>
<path d="M540.81 607.763L540.684 678.72" stroke="#F25E5E" stroke-width="2.10641" stroke-miterlimit="10"/>
<path d="M545.4 606.944L545.274 677.902" stroke="#F25E5E" stroke-width="2.10641" stroke-miterlimit="10"/>
<path d="M549.991 606.1L549.865 677.089" stroke="#F25E5E" stroke-width="2.10641" stroke-miterlimit="10"/>
<path d="M554.581 605.281L554.455 676.27" stroke="#F25E5E" stroke-width="2.10641" stroke-miterlimit="10"/>
<path d="M559.171 604.463L559.045 675.421" stroke="#F25E5E" stroke-width="2.10641" stroke-miterlimit="10"/>
<path d="M563.761 603.645L563.666 674.602" stroke="#F25E5E" stroke-width="2.10641" stroke-miterlimit="10"/>
<path d="M568.351 602.826L568.256 673.784" stroke="#F25E5E" stroke-width="2.10641" stroke-miterlimit="10"/>
<path d="M572.942 601.977L572.847 672.966" stroke="#F25E5E" stroke-width="2.10641" stroke-miterlimit="10"/>
<path d="M577.531 601.163L577.437 672.152" stroke="#F25E5E" stroke-width="2.10641" stroke-miterlimit="10"/>
<path d="M582.121 600.346L582.027 671.303" stroke="#F25E5E" stroke-width="2.10641" stroke-miterlimit="10"/>
<path d="M586.711 599.527L586.617 670.485" stroke="#F25E5E" stroke-width="2.10641" stroke-miterlimit="10"/>
<path d="M591.3 598.709L591.206 669.667" stroke="#F25E5E" stroke-width="2.10641" stroke-miterlimit="10"/>
<path d="M595.891 597.859L595.797 668.849" stroke="#F25E5E" stroke-width="2.10641" stroke-miterlimit="10"/>
<path d="M600.482 597.041L600.387 668.03" stroke="#F25E5E" stroke-width="2.10641" stroke-miterlimit="10"/>
<path d="M605.073 596.223L604.978 667.212" stroke="#F25E5E" stroke-width="2.10641" stroke-miterlimit="10"/>
<path d="M609.662 595.41L609.567 666.368" stroke="#F25E5E" stroke-width="2.10641" stroke-miterlimit="10"/>
<path d="M614.252 594.592L614.158 665.55" stroke="#F25E5E" stroke-width="2.10641" stroke-miterlimit="10"/>
<path d="M618.842 593.742L618.747 664.731" stroke="#F25E5E" stroke-width="2.10641" stroke-miterlimit="10"/>
<path d="M623.463 592.924L623.337 663.913" stroke="#F25E5E" stroke-width="2.10641" stroke-miterlimit="10"/>
<path d="M628.054 592.105L627.928 663.095" stroke="#F25E5E" stroke-width="2.10641" stroke-miterlimit="10"/>
<path d="M632.643 591.287L632.518 662.245" stroke="#F25E5E" stroke-width="2.10641" stroke-miterlimit="10"/>
<path d="M637.233 590.474L637.108 661.431" stroke="#F25E5E" stroke-width="2.10641" stroke-miterlimit="10"/>
<path d="M641.824 589.655L641.698 660.613" stroke="#F25E5E" stroke-width="2.10641" stroke-miterlimit="10"/>
<path d="M646.414 588.807L646.289 659.796" stroke="#F25E5E" stroke-width="2.10641" stroke-miterlimit="10"/>
<path d="M651.004 587.988L650.878 658.977" stroke="#F25E5E" stroke-width="2.10641" stroke-miterlimit="10"/>
<path d="M655.594 587.17L655.468 658.128" stroke="#F25E5E" stroke-width="2.10641" stroke-miterlimit="10"/>
<path d="M660.185 586.356L660.059 657.314" stroke="#F25E5E" stroke-width="2.10641" stroke-miterlimit="10"/>
<path d="M664.774 585.538L664.648 656.496" stroke="#F25E5E" stroke-width="2.10641" stroke-miterlimit="10"/>
<path d="M669.364 584.688L669.238 655.678" stroke="#F25E5E" stroke-width="2.10641" stroke-miterlimit="10"/>
<path d="M673.953 583.87L673.828 654.859" stroke="#F25E5E" stroke-width="2.10641" stroke-miterlimit="10"/>
<path d="M678.545 583.052L678.419 654.009" stroke="#F25E5E" stroke-width="2.10641" stroke-miterlimit="10"/>
<path d="M683.135 582.232L683.009 653.19" stroke="#F25E5E" stroke-width="2.10641" stroke-miterlimit="10"/>
<path d="M687.725 581.415L687.6 652.373" stroke="#F25E5E" stroke-width="2.10641" stroke-miterlimit="10"/>
<path d="M692.221 637.789L692.189 651.559" stroke="#F25E5E" stroke-width="2.10641" stroke-miterlimit="10"/>
<path d="M692.315 580.571L692.252 617.229" stroke="#F25E5E" stroke-width="2.10641" stroke-miterlimit="10"/>
<path d="M697.125 636.908V650.678" stroke="#F25E5E" stroke-width="2.10641" stroke-miterlimit="10"/>
<path d="M696.905 579.753L696.842 616.411" stroke="#F25E5E" stroke-width="2.10641" stroke-miterlimit="10"/>
<path d="M701.495 578.935L701.432 615.592" stroke="#F25E5E" stroke-width="2.10641" stroke-miterlimit="10"/>
<path d="M490.634 545.136L491.735 599.934L471.645 603.55L447.06 571.199L447.563 595.407L454.762 594.118L455.014 606.505L426.342 611.661L426.09 599.274L431.592 598.3L430.743 555.92L425.336 556.895L425.084 544.508L451.901 539.697L475.512 570.885L475.041 547.997L468.69 549.129L468.438 536.742L496.576 531.712L496.828 544.099L490.666 545.199L490.634 545.136Z" fill="#F25E5E"/>
<path d="M500.947 564.22C500.538 543.47 513.679 526.713 533.046 523.255C555.933 519.136 566.874 531.366 567.314 552.996C567.754 574.72 556.248 590.094 535.121 593.866C515.597 597.356 501.418 588.239 500.947 564.22ZM543.955 557.209C543.704 545.576 540.434 536.805 533.234 538.094C527.544 539.005 523.771 548.186 524.023 560.101C524.274 572.677 528.833 579.876 534.806 578.807C540.685 577.738 544.175 569.124 543.924 557.209H543.955Z" fill="#F25E5E"/>
<path d="M636.04 519.072L637.14 573.87L617.051 577.485L592.466 545.135L592.969 569.343L600.168 568.054L600.42 580.441L571.747 585.597L571.496 573.21L576.998 572.235L576.149 529.855L570.741 530.83L570.49 518.443L597.307 513.633L620.918 544.82L620.446 521.933L614.096 523.065L613.844 510.678L641.982 505.647L642.233 518.034L636.071 519.135L636.04 519.072Z" fill="#F25E5E"/>
<path d="M415.746 544.538L415.62 615.496" stroke="#F25E5E" stroke-width="2.10641" stroke-miterlimit="10"/>
<path d="M411.061 601.915L411.029 616.346" stroke="#F25E5E" stroke-width="2.10641" stroke-miterlimit="10"/>
<path d="M411.156 545.356L411.125 558.624" stroke="#F25E5E" stroke-width="2.10641" stroke-miterlimit="10"/>
<path d="M420.336 543.725L420.21 614.682" stroke="#F25E5E" stroke-width="2.10641" stroke-miterlimit="10"/>
<path d="M424.927 542.906L424.801 613.864" stroke="#F25E5E" stroke-width="2.10641" stroke-miterlimit="10"/>
<path d="M429.517 542.058L429.391 613.047" stroke="#F25E5E" stroke-width="2.10641" stroke-miterlimit="10"/>
<path d="M434.106 541.239L433.981 612.228" stroke="#F25E5E" stroke-width="2.10641" stroke-miterlimit="10"/>
<path d="M438.696 540.42L438.57 611.378" stroke="#F25E5E" stroke-width="2.10641" stroke-miterlimit="10"/>
<path d="M443.287 539.603L443.161 610.56" stroke="#F25E5E" stroke-width="2.10641" stroke-miterlimit="10"/>
<path d="M447.877 538.789L447.751 609.747" stroke="#F25E5E" stroke-width="2.10641" stroke-miterlimit="10"/>
<path d="M452.467 537.939L452.373 608.929" stroke="#F25E5E" stroke-width="2.10641" stroke-miterlimit="10"/>
<path d="M457.057 537.121L456.963 608.11" stroke="#F25E5E" stroke-width="2.10641" stroke-miterlimit="10"/>
<path d="M461.647 536.303L461.553 607.26" stroke="#F25E5E" stroke-width="2.10641" stroke-miterlimit="10"/>
<path d="M466.238 535.484L466.143 606.442" stroke="#F25E5E" stroke-width="2.10641" stroke-miterlimit="10"/>
<path d="M470.827 534.665L470.733 605.623" stroke="#F25E5E" stroke-width="2.10641" stroke-miterlimit="10"/>
<path d="M475.418 533.816L475.323 604.806" stroke="#F25E5E" stroke-width="2.10641" stroke-miterlimit="10"/>
<path d="M480.007 533.004L479.912 603.993" stroke="#F25E5E" stroke-width="2.10641" stroke-miterlimit="10"/>
<path d="M484.597 532.186L484.502 603.175" stroke="#F25E5E" stroke-width="2.10641" stroke-miterlimit="10"/>
<path d="M489.188 531.367L489.094 602.325" stroke="#F25E5E" stroke-width="2.10641" stroke-miterlimit="10"/>
<path d="M493.778 530.548L493.684 601.506" stroke="#F25E5E" stroke-width="2.10641" stroke-miterlimit="10"/>
<path d="M498.367 529.699L498.273 600.688" stroke="#F25E5E" stroke-width="2.10641" stroke-miterlimit="10"/>
<path d="M502.958 528.881L502.864 599.87" stroke="#F25E5E" stroke-width="2.10641" stroke-miterlimit="10"/>
<path d="M507.548 528.067L507.454 599.057" stroke="#F25E5E" stroke-width="2.10641" stroke-miterlimit="10"/>
<path d="M512.138 527.25L512.043 598.208" stroke="#F25E5E" stroke-width="2.10641" stroke-miterlimit="10"/>
<path d="M516.759 526.431L516.633 597.388" stroke="#F25E5E" stroke-width="2.10641" stroke-miterlimit="10"/>
<path d="M521.349 525.612L521.223 596.57" stroke="#F25E5E" stroke-width="2.10641" stroke-miterlimit="10"/>
<path d="M525.939 524.764L525.813 595.753" stroke="#F25E5E" stroke-width="2.10641" stroke-miterlimit="10"/>
<path d="M530.53 523.944L530.405 594.934" stroke="#F25E5E" stroke-width="2.10641" stroke-miterlimit="10"/>
<path d="M535.12 523.132L534.995 594.09" stroke="#F25E5E" stroke-width="2.10641" stroke-miterlimit="10"/>
<path d="M539.71 522.313L539.584 593.271" stroke="#F25E5E" stroke-width="2.10641" stroke-miterlimit="10"/>
<path d="M544.3 521.495L544.174 592.453" stroke="#F25E5E" stroke-width="2.10641" stroke-miterlimit="10"/>
<path d="M548.889 520.646L548.764 591.636" stroke="#F25E5E" stroke-width="2.10641" stroke-miterlimit="10"/>
<path d="M553.479 519.827L553.354 590.816" stroke="#F25E5E" stroke-width="2.10641" stroke-miterlimit="10"/>
<path d="M558.07 519.009L557.944 589.967" stroke="#F25E5E" stroke-width="2.10641" stroke-miterlimit="10"/>
<path d="M562.66 518.195L562.534 589.153" stroke="#F25E5E" stroke-width="2.10641" stroke-miterlimit="10"/>
<path d="M567.251 517.377L567.125 588.335" stroke="#F25E5E" stroke-width="2.10641" stroke-miterlimit="10"/>
<path d="M571.841 516.528L571.715 587.518" stroke="#F25E5E" stroke-width="2.10641" stroke-miterlimit="10"/>
<path d="M576.43 515.71L576.305 586.699" stroke="#F25E5E" stroke-width="2.10641" stroke-miterlimit="10"/>
<path d="M581.02 514.892L580.895 585.881" stroke="#F25E5E" stroke-width="2.10641" stroke-miterlimit="10"/>
<path d="M585.61 514.072L585.485 585.03" stroke="#F25E5E" stroke-width="2.10641" stroke-miterlimit="10"/>
<path d="M590.201 513.26L590.075 584.217" stroke="#F25E5E" stroke-width="2.10641" stroke-miterlimit="10"/>
<path d="M594.791 512.411L594.665 583.4" stroke="#F25E5E" stroke-width="2.10641" stroke-miterlimit="10"/>
<path d="M599.381 511.592L599.255 582.581" stroke="#F25E5E" stroke-width="2.10641" stroke-miterlimit="10"/>
<path d="M603.971 510.773L603.876 581.763" stroke="#F25E5E" stroke-width="2.10641" stroke-miterlimit="10"/>
<path d="M608.561 509.955L608.467 580.913" stroke="#F25E5E" stroke-width="2.10641" stroke-miterlimit="10"/>
<path d="M613.15 509.137L613.056 580.094" stroke="#F25E5E" stroke-width="2.10641" stroke-miterlimit="10"/>
<path d="M617.743 508.323L617.648 579.281" stroke="#F25E5E" stroke-width="2.10641" stroke-miterlimit="10"/>
<path d="M622.333 507.475L622.238 578.464" stroke="#F25E5E" stroke-width="2.10641" stroke-miterlimit="10"/>
<path d="M626.922 506.656L626.828 577.645" stroke="#F25E5E" stroke-width="2.10641" stroke-miterlimit="10"/>
<path d="M631.512 505.838L631.418 576.796" stroke="#F25E5E" stroke-width="2.10641" stroke-miterlimit="10"/>
<path d="M636.101 505.02L636.007 575.977" stroke="#F25E5E" stroke-width="2.10641" stroke-miterlimit="10"/>
<path d="M640.691 504.201L640.597 575.159" stroke="#F25E5E" stroke-width="2.10641" stroke-miterlimit="10"/>
<path d="M645.283 503.352L645.188 574.341" stroke="#F25E5E" stroke-width="2.10641" stroke-miterlimit="10"/>
<path d="M649.872 502.538L649.778 573.527" stroke="#F25E5E" stroke-width="2.10641" stroke-miterlimit="10"/>
<path d="M654.399 559.314L654.368 572.676" stroke="#F25E5E" stroke-width="2.10641" stroke-miterlimit="10"/>
<path d="M654.462 501.72V516.905" stroke="#F25E5E" stroke-width="2.10641" stroke-miterlimit="10"/>
<path d="M658.99 558.496L658.959 571.858" stroke="#F25E5E" stroke-width="2.10641" stroke-miterlimit="10"/>
<path d="M659.052 500.902V516.087" stroke="#F25E5E" stroke-width="2.10641" stroke-miterlimit="10"/>
</svg>
