<svg width="200" height="200" viewBox="0 0 200 200" fill="none" xmlns="http://www.w3.org/2000/svg">
<mask id="path-1-outside-1_1347_8030" maskUnits="userSpaceOnUse" x="49.2373" y="20.0566" width="102" height="160" fill="black">
<rect fill="white" x="49.2373" y="20.0566" width="102" height="160"/>
<path d="M113.774 27.2383C117.345 26.5848 121.632 27.6968 126.563 30.5801C131.755 33.6073 144.577 42.6895 144.885 42.9434C144.885 42.9434 145.557 45.2457 143.65 47.4258C141.758 49.5891 139.749 49.2534 139.718 49.248C139.645 49.1908 127.081 40.319 122.456 37.6133C121.355 36.9699 120.322 36.4835 119.382 36.1387L119.37 36.1709C117.267 35.4088 115.597 35.3112 114.7 35.8369C113.893 36.3013 113.021 37.626 112.581 40.332L112.566 40.3291C112.39 41.4237 112.284 42.7471 112.284 44.3369V55.1689H134.628C135.098 55.1616 135.582 55.3157 135.983 55.6416C136.589 56.1338 136.853 56.8829 136.738 57.5693L136.625 150.961C136.625 155.582 136.246 156.292 134.037 159.34L123.802 171.569C123.067 172.641 121.835 173.346 120.438 173.346H59.3125C57.0635 173.346 55.2374 171.52 55.2373 169.271V69.2441L55.2471 69.2246C55.3105 68.6039 55.6563 68.0631 56.1523 67.7334L70.4775 57.207C72.4579 55.6624 73.8648 55.1689 76.1143 55.1689H104.135V44.3369C104.135 39.1309 105.026 35.0592 106.793 32.1602C106.813 32.1271 106.833 32.0942 106.854 32.0615C106.897 31.9915 106.941 31.9221 106.985 31.8535C107.032 31.7817 107.079 31.7109 107.127 31.6406C107.159 31.5938 107.19 31.5471 107.223 31.501C107.291 31.4039 107.361 31.3089 107.431 31.2148C107.467 31.1667 107.503 31.1186 107.539 31.0713C107.607 30.9828 107.676 30.8953 107.746 30.8096C107.764 30.7874 107.783 30.7661 107.802 30.7441C107.88 30.6506 107.959 30.5589 108.039 30.4688C108.057 30.4484 108.075 30.4274 108.093 30.4072C108.822 29.6006 109.651 28.9289 110.58 28.3955C111.214 28.0328 111.88 27.7451 112.575 27.5303C112.59 27.5257 112.604 27.5211 112.619 27.5166C112.723 27.485 112.828 27.4561 112.934 27.4277C112.962 27.42 112.991 27.4109 113.02 27.4033L113.078 27.3887C113.19 27.3604 113.302 27.3332 113.415 27.3086C113.488 27.2925 113.563 27.2792 113.637 27.2646C113.683 27.2557 113.728 27.2466 113.774 27.2383Z"/>
</mask>
<path d="M113.774 27.2383C117.345 26.5848 121.632 27.6968 126.563 30.5801C131.755 33.6073 144.577 42.6895 144.885 42.9434C144.885 42.9434 145.557 45.2457 143.65 47.4258C141.758 49.5891 139.749 49.2534 139.718 49.248C139.645 49.1908 127.081 40.319 122.456 37.6133C121.355 36.9699 120.322 36.4835 119.382 36.1387L119.37 36.1709C117.267 35.4088 115.597 35.3112 114.7 35.8369C113.893 36.3013 113.021 37.626 112.581 40.332L112.566 40.3291C112.39 41.4237 112.284 42.7471 112.284 44.3369V55.1689H134.628C135.098 55.1616 135.582 55.3157 135.983 55.6416C136.589 56.1338 136.853 56.8829 136.738 57.5693L136.625 150.961C136.625 155.582 136.246 156.292 134.037 159.34L123.802 171.569C123.067 172.641 121.835 173.346 120.438 173.346H59.3125C57.0635 173.346 55.2374 171.52 55.2373 169.271V69.2441L55.2471 69.2246C55.3105 68.6039 55.6563 68.0631 56.1523 67.7334L70.4775 57.207C72.4579 55.6624 73.8648 55.1689 76.1143 55.1689H104.135V44.3369C104.135 39.1309 105.026 35.0592 106.793 32.1602C106.813 32.1271 106.833 32.0942 106.854 32.0615C106.897 31.9915 106.941 31.9221 106.985 31.8535C107.032 31.7817 107.079 31.7109 107.127 31.6406C107.159 31.5938 107.19 31.5471 107.223 31.501C107.291 31.4039 107.361 31.3089 107.431 31.2148C107.467 31.1667 107.503 31.1186 107.539 31.0713C107.607 30.9828 107.676 30.8953 107.746 30.8096C107.764 30.7874 107.783 30.7661 107.802 30.7441C107.88 30.6506 107.959 30.5589 108.039 30.4688C108.057 30.4484 108.075 30.4274 108.093 30.4072C108.822 29.6006 109.651 28.9289 110.58 28.3955C111.214 28.0328 111.88 27.7451 112.575 27.5303C112.59 27.5257 112.604 27.5211 112.619 27.5166C112.723 27.485 112.828 27.4561 112.934 27.4277C112.962 27.42 112.991 27.4109 113.02 27.4033L113.078 27.3887C113.19 27.3604 113.302 27.3332 113.415 27.3086C113.488 27.2925 113.563 27.2792 113.637 27.2646C113.683 27.2557 113.728 27.2466 113.774 27.2383Z" fill="#D7E8FC"/>
<path d="M113.774 27.2383L114.843 33.1424L114.855 33.1402L113.774 27.2383ZM126.563 30.5801L123.535 35.7598L123.541 35.7632L126.563 30.5801ZM144.885 42.9434L150.644 41.2618C150.307 40.1079 149.632 39.0817 148.705 38.3164L144.885 42.9434ZM143.65 47.4258L148.167 51.376L148.167 51.3756L143.65 47.4258ZM139.718 49.248L136.016 53.9697C136.798 54.5829 137.72 54.9923 138.699 55.161L139.718 49.248ZM122.456 37.6133L125.486 32.4344L125.484 32.4333L122.456 37.6133ZM119.382 36.1387L121.448 30.5055C119.951 29.9567 118.297 30.026 116.852 30.6982C115.406 31.3703 114.288 32.5901 113.743 34.0882L119.382 36.1387ZM119.37 36.1709L117.326 41.8118C120.439 42.9401 123.877 41.3333 125.009 38.2214L119.37 36.1709ZM114.7 35.8369L117.693 41.0371C117.707 41.029 117.721 41.0209 117.735 41.0127L114.7 35.8369ZM112.581 40.332L111.404 46.2155C113.002 46.535 114.66 46.1912 115.999 45.2632C117.338 44.3352 118.242 42.9028 118.503 41.2949L112.581 40.332ZM112.566 40.3291L113.743 34.4456C112.144 34.1259 110.485 34.4705 109.145 35.4C107.806 36.3296 106.903 37.7642 106.643 39.3737L112.566 40.3291ZM112.284 44.3369L106.284 44.3369V44.3369H112.284ZM112.284 55.1689H106.284C106.284 58.4827 108.97 61.1689 112.284 61.1689V55.1689ZM134.628 55.1689V61.1689C134.659 61.1689 134.691 61.1687 134.722 61.1682L134.628 55.1689ZM135.983 55.6416L139.768 50.9855L139.766 50.9842L135.983 55.6416ZM136.738 57.5693L130.821 56.5774C130.766 56.9028 130.739 57.2321 130.738 57.5621L136.738 57.5693ZM136.625 150.961L130.625 150.954V150.961H136.625ZM134.037 159.34L138.638 163.191C138.728 163.084 138.814 162.973 138.896 162.86L134.037 159.34ZM123.802 171.569L119.201 167.718C119.077 167.866 118.961 168.02 118.852 168.178L123.802 171.569ZM120.438 173.346V179.346H120.439L120.438 173.346ZM55.2373 169.271H49.2373V169.271L55.2373 169.271ZM55.2373 69.2441L49.8707 66.5609C49.4542 67.394 49.2373 68.3127 49.2373 69.2441H55.2373ZM55.2471 69.2246L60.6136 71.9079C60.9381 71.2589 61.1422 70.5565 61.216 69.8348L55.2471 69.2246ZM56.1523 67.7334L59.4733 72.7306C59.5518 72.6783 59.6292 72.6243 59.7052 72.5684L56.1523 67.7334ZM70.4775 57.207L74.0304 62.042C74.0766 62.0081 74.1223 61.9735 74.1676 61.9382L70.4775 57.207ZM104.135 55.1689V61.1689C107.448 61.1689 110.135 58.4827 110.135 55.1689H104.135ZM104.135 44.3369L98.1348 44.3369V44.3369H104.135ZM106.793 32.1602L111.917 35.2823L111.919 35.2779L106.793 32.1602ZM106.854 32.0615L101.759 28.8926L101.756 28.8971L106.854 32.0615ZM106.985 31.8535L112.017 35.1226L112.02 35.1181L106.985 31.8535ZM107.127 31.6406L102.166 28.2665L102.162 28.2711L107.127 31.6406ZM107.223 31.501L112.136 34.9451L112.139 34.9405L107.223 31.501ZM107.431 31.2148L102.624 27.6235L102.621 27.6282L107.431 31.2148ZM107.539 31.0713L112.288 34.7378L112.292 34.7332L107.539 31.0713ZM107.746 30.8096L103.108 27.0034L103.104 27.008L107.746 30.8096ZM107.802 30.7441L112.41 34.5863L112.414 34.5816L107.802 30.7441ZM108.039 30.4688L103.561 26.475L103.557 26.4795L108.039 30.4688ZM108.093 30.4072L112.54 34.4349L112.544 34.4304L108.093 30.4072ZM110.58 28.3955L107.601 23.1872L107.593 23.1919L110.58 28.3955ZM112.575 27.5303L114.346 33.2631L114.356 33.2598L112.575 27.5303ZM112.619 27.5166L110.875 21.7757L110.864 21.7789L112.619 27.5166ZM112.934 27.4277L114.49 33.2223L114.502 33.2192L112.934 27.4277ZM113.02 27.4033L111.564 21.5825C111.544 21.5876 111.523 21.5929 111.503 21.5983L113.02 27.4033ZM113.078 27.3887L114.533 33.2095C114.539 33.2082 114.544 33.2069 114.549 33.2055L113.078 27.3887ZM113.415 27.3086L114.689 33.1718L114.701 33.1692L113.415 27.3086ZM113.637 27.2646L112.49 21.3752L112.478 21.3776L113.637 27.2646ZM113.774 27.2383L114.855 33.1402C116.407 32.856 119.18 33.2137 123.535 35.7598L126.563 30.5801L129.592 25.4003C124.083 22.1798 118.282 20.3136 112.694 21.3363L113.774 27.2383ZM126.563 30.5801L123.541 35.7632C125.909 37.1441 130.228 40.0407 134.153 42.7435C136.079 44.0701 137.855 45.3114 139.167 46.2353C140.665 47.2904 141.221 47.6989 141.065 47.5703L144.885 42.9434L148.705 38.3164C148.395 38.0608 147.233 37.2389 146.078 36.4251C144.736 35.4801 142.925 34.214 140.958 32.86C137.097 30.2014 132.409 27.0433 129.586 25.397L126.563 30.5801ZM144.885 42.9434C139.125 44.6249 139.124 44.622 139.124 44.6192C139.123 44.6183 139.122 44.6154 139.122 44.6135C139.121 44.6098 139.12 44.606 139.119 44.6023C139.117 44.5948 139.114 44.5875 139.112 44.5802C139.108 44.5657 139.104 44.5516 139.101 44.5378C139.093 44.5102 139.086 44.484 139.08 44.4592C139.067 44.4096 139.056 44.3649 139.048 44.3249C139.03 44.2452 139.019 44.1806 139.012 44.1279C138.999 44.0274 138.997 43.9463 139.003 43.8715C139.01 43.7921 139.027 43.7028 139.063 43.6131C139.101 43.5145 139.141 43.4682 139.134 43.476L143.65 47.4258L148.167 51.3756C150.106 49.1587 150.805 46.7573 150.962 44.8625C151.039 43.9397 150.987 43.1468 150.908 42.5464C150.867 42.2438 150.819 41.9823 150.772 41.7682C150.749 41.6609 150.726 41.5647 150.704 41.4803C150.693 41.4381 150.683 41.3987 150.673 41.3623C150.668 41.3441 150.663 41.3266 150.658 41.3098C150.656 41.3015 150.653 41.2933 150.651 41.2853C150.65 41.2813 150.649 41.2773 150.648 41.2734C150.647 41.2715 150.646 41.2686 150.646 41.2676C150.645 41.2647 150.644 41.2618 144.885 42.9434ZM143.65 47.4258L139.134 43.4756C139.065 43.5543 139.066 43.5324 139.158 43.4774C139.247 43.424 139.372 43.369 139.53 43.3296C139.819 43.2572 140.19 43.2411 140.736 43.3351L139.718 49.248L138.699 55.161C139.854 55.3599 144.37 55.7166 148.167 51.376L143.65 47.4258ZM139.718 49.248L143.42 44.5264C143.167 44.3284 130.38 35.2973 125.486 32.4344L122.456 37.6133L119.426 42.7922C123.783 45.3407 136.122 54.0533 136.016 53.9697L139.718 49.248ZM122.456 37.6133L125.484 32.4333C124.114 31.6323 122.759 30.9865 121.448 30.5055L119.382 36.1387L117.316 41.7719C117.885 41.9804 118.597 42.3074 119.428 42.7932L122.456 37.6133ZM119.382 36.1387L113.743 34.0882L113.731 34.1204L119.37 36.1709L125.009 38.2214L125.021 38.1891L119.382 36.1387ZM119.37 36.1709L121.415 30.53C119.999 30.0168 118.491 29.637 116.99 29.5348C115.597 29.44 113.574 29.5417 111.665 30.6611L114.7 35.8369L117.735 41.0127C117.196 41.329 116.739 41.4383 116.504 41.4777C116.264 41.5178 116.142 41.5049 116.175 41.5071C116.202 41.5089 116.316 41.5199 116.524 41.5683C116.73 41.6158 116.997 41.6929 117.326 41.8118L119.37 36.1709ZM114.7 35.8369L111.707 30.6367C108.477 32.4958 107.179 36.1715 106.659 39.3692L112.581 40.332L118.503 41.2949C118.576 40.8486 118.656 40.5253 118.723 40.3048C118.756 40.1956 118.785 40.1161 118.806 40.0628C118.828 40.0094 118.84 39.9856 118.839 39.9868C118.839 39.9878 118.823 40.0178 118.789 40.0702C118.754 40.1225 118.697 40.2016 118.613 40.2981C118.448 40.4871 118.152 40.7728 117.693 41.0371L114.7 35.8369ZM112.581 40.332L113.758 34.4485L113.743 34.4456L112.566 40.3291L111.39 46.2126L111.404 46.2155L112.581 40.332ZM112.566 40.3291L106.643 39.3737C106.407 40.8396 106.284 42.4886 106.284 44.3369L112.284 44.3369L118.284 44.3369C118.284 43.0056 118.373 42.0078 118.49 41.2845L112.566 40.3291ZM112.284 44.3369H106.284V55.1689H112.284H118.284V44.3369H112.284ZM112.284 55.1689V61.1689H134.628V55.1689V49.1689H112.284V55.1689ZM134.628 55.1689L134.722 61.1682C133.824 61.1823 132.926 60.8878 132.201 60.299L135.983 55.6416L139.766 50.9842C138.239 49.7436 136.372 49.1409 134.534 49.1697L134.628 55.1689ZM135.983 55.6416L132.199 60.2977C131.149 59.4439 130.575 58.0447 130.821 56.5774L136.738 57.5693L142.656 58.5613C143.132 55.7211 142.03 52.8238 139.768 50.9855L135.983 55.6416ZM136.738 57.5693L130.738 57.5621L130.625 150.954L136.625 150.961L142.625 150.968L142.738 57.5766L136.738 57.5693ZM136.625 150.961H130.625C130.625 153.288 130.498 153.747 130.456 153.878C130.424 153.976 130.368 154.177 129.178 155.82L134.037 159.34L138.896 162.86C139.915 161.454 141.153 159.777 141.863 157.603C142.562 155.461 142.625 153.255 142.625 150.961H136.625ZM134.037 159.34L129.436 155.489L119.201 167.718L123.802 171.569L128.403 175.42L138.638 163.191L134.037 159.34ZM123.802 171.569L118.852 168.178C119.185 167.691 119.767 167.346 120.438 167.346L120.438 173.346L120.439 179.346C123.903 179.345 126.949 177.591 128.752 174.96L123.802 171.569ZM120.438 173.346V167.346H59.3125V173.346V179.346H120.438V173.346ZM59.3125 173.346V167.346C60.377 167.346 61.2373 168.206 61.2373 169.27L55.2373 169.271L49.2373 169.271C49.2375 174.834 53.75 179.346 59.3125 179.346V173.346ZM55.2373 169.271H61.2373V69.2441H55.2373H49.2373V169.271H55.2373ZM55.2373 69.2441L60.6039 71.9274L60.6136 71.9079L55.2471 69.2246L49.8805 66.5413L49.8707 66.5609L55.2373 69.2441ZM55.2471 69.2246L61.216 69.8348C61.0891 71.0754 60.406 72.1107 59.4733 72.7306L56.1523 67.7334L52.8314 62.7362C50.9066 64.0154 49.5319 66.1324 49.2782 68.6145L55.2471 69.2246ZM56.1523 67.7334L59.7052 72.5684L74.0304 62.042L70.4775 57.207L66.9247 52.372L52.5995 62.8984L56.1523 67.7334ZM70.4775 57.207L74.1676 61.9382C74.8683 61.3916 75.1518 61.2812 75.2244 61.2551C75.2658 61.2403 75.4484 61.1689 76.1143 61.1689V55.1689V49.1689C74.5306 49.1689 72.8851 49.3444 71.1656 49.9624C69.4773 50.5692 68.0671 51.4779 66.7875 52.4759L70.4775 57.207ZM76.1143 55.1689V61.1689H104.135V55.1689V49.1689H76.1143V55.1689ZM104.135 55.1689H110.135V44.3369H104.135H98.1348V55.1689H104.135ZM104.135 44.3369L110.135 44.3369C110.135 39.6954 110.95 36.869 111.917 35.2823L106.793 32.1602L101.669 29.038C99.1029 33.2495 98.1348 38.5664 98.1348 44.3369L104.135 44.3369ZM106.793 32.1602L111.919 35.2779C111.933 35.2558 111.943 35.2391 111.951 35.2259L106.854 32.0615L101.756 28.8971C101.723 28.9494 101.693 28.9984 101.667 29.0424L106.793 32.1602ZM106.854 32.0615L111.948 35.2304C111.981 35.1783 112.002 35.1454 112.017 35.1226L106.985 31.8535L101.954 28.5844C101.88 28.6988 101.813 28.8048 101.759 28.8926L106.854 32.0615ZM106.985 31.8535L112.02 35.1181C112.036 35.0922 112.059 35.058 112.091 35.0102L107.127 31.6406L102.162 28.2711C102.1 28.3637 102.027 28.4713 101.951 28.589L106.985 31.8535ZM107.127 31.6406L112.088 35.0148C112.097 35.002 112.108 34.9861 112.114 34.9777C112.121 34.9672 112.126 34.9598 112.13 34.9537C112.138 34.9411 112.139 34.9402 112.136 34.9451L107.223 31.501L102.31 28.0568C102.246 28.1478 102.181 28.2442 102.166 28.2665L107.127 31.6406ZM107.223 31.501L112.139 34.9405C112.155 34.9182 112.182 34.8805 112.241 34.8015L107.431 31.2148L102.621 27.6282C102.539 27.7374 102.427 27.8895 102.306 28.0615L107.223 31.501ZM107.431 31.2148L112.237 34.8062C112.257 34.7793 112.268 34.765 112.278 34.7517C112.287 34.7397 112.29 34.7363 112.288 34.7378L107.539 31.0713L102.79 27.4048C102.719 27.4965 102.653 27.5843 102.624 27.6235L107.431 31.2148ZM107.539 31.0713L112.292 34.7332C112.34 34.6704 112.37 34.6338 112.388 34.6111L107.746 30.8096L103.104 27.008C102.982 27.1568 102.874 27.2953 102.786 27.4094L107.539 31.0713ZM107.746 30.8096L112.384 34.6157C112.361 34.6447 112.342 34.6672 112.331 34.68C112.325 34.6865 112.321 34.6914 112.319 34.694C112.317 34.6964 112.315 34.6977 112.317 34.6962C112.318 34.6954 112.318 34.6947 112.32 34.6929C112.321 34.6914 112.323 34.6891 112.325 34.6866C112.329 34.6817 112.336 34.6741 112.343 34.6652C112.358 34.6477 112.382 34.62 112.41 34.5862L107.802 30.7441L103.193 26.902C103.212 26.8793 103.227 26.8625 103.232 26.8558C103.236 26.8516 103.241 26.8458 103.231 26.8573C103.225 26.8643 103.208 26.8834 103.189 26.9062C103.169 26.9299 103.141 26.9633 103.108 27.0034L107.746 30.8096ZM107.802 30.7441L112.414 34.5816C112.445 34.5451 112.48 34.5041 112.521 34.458L108.039 30.4688L103.557 26.4795C103.438 26.6137 103.315 26.7562 103.189 26.9067L107.802 30.7441ZM108.039 30.4688L112.517 34.4625C112.547 34.4288 112.572 34.4005 112.587 34.3826C112.595 34.3735 112.602 34.3658 112.606 34.3608C112.608 34.3582 112.61 34.3559 112.611 34.3544C112.613 34.3525 112.613 34.3521 112.614 34.3512C112.615 34.3497 112.614 34.3512 112.612 34.3539C112.609 34.3567 112.605 34.362 112.599 34.3688C112.587 34.3823 112.567 34.4056 112.54 34.4349L108.093 30.4072L103.646 26.3795C103.61 26.4189 103.58 26.4525 103.56 26.4761C103.54 26.4989 103.523 26.5182 103.518 26.5247C103.508 26.5359 103.514 26.5294 103.518 26.5242C103.525 26.5166 103.54 26.4986 103.561 26.475L108.039 30.4688ZM108.093 30.4072L112.544 34.4304C112.86 34.0809 113.198 33.8112 113.567 33.5991L110.58 28.3955L107.593 23.1919C106.104 24.0466 104.784 25.1203 103.641 26.384L108.093 30.4072ZM110.58 28.3955L113.559 33.6038C113.806 33.4622 114.066 33.3494 114.346 33.2631L112.575 27.5303L110.805 21.7974C109.693 22.1407 108.622 22.6034 107.601 23.1872L110.58 28.3955ZM112.575 27.5303L114.356 33.2598C114.365 33.2572 114.372 33.2549 114.377 33.2534C114.379 33.2526 114.382 33.2519 114.383 33.2514C114.385 33.2509 114.386 33.2505 114.387 33.2503C114.388 33.2498 114.388 33.25 114.386 33.2506C114.384 33.2512 114.38 33.2525 114.374 33.2543L112.619 27.5166L110.864 21.7789C110.839 21.7866 110.818 21.7932 110.807 21.7965C110.804 21.7977 110.795 21.8003 110.795 21.8003C110.793 21.8011 110.793 21.8011 110.794 21.8007L112.575 27.5303ZM112.619 27.5166L114.363 33.2575C114.373 33.2545 114.404 33.2454 114.49 33.2223L112.934 27.4277L111.377 21.6332C111.252 21.6667 111.073 21.7155 110.875 21.7757L112.619 27.5166ZM112.934 27.4277L114.502 33.2192C114.552 33.2056 114.594 33.1937 114.62 33.1862C114.633 33.1824 114.644 33.1791 114.651 33.177C114.655 33.1759 114.658 33.175 114.66 33.1744C114.663 33.1736 114.663 33.1734 114.665 33.1731C114.667 33.1725 114.664 33.1732 114.66 33.1744C114.656 33.1757 114.648 33.178 114.637 33.181C114.617 33.1868 114.581 33.1967 114.536 33.2084L113.02 27.4033L111.503 21.5983C111.443 21.6137 111.394 21.6276 111.359 21.6374C111.326 21.6469 111.298 21.6551 111.288 21.6578C111.272 21.6625 111.282 21.6596 111.291 21.6572C111.302 21.6538 111.33 21.646 111.366 21.6362L112.934 27.4277ZM113.02 27.4033L114.475 33.2242L114.533 33.2095L113.078 27.3887L111.623 21.5678L111.564 21.5825L113.02 27.4033ZM113.078 27.3887L114.549 33.2055C114.628 33.1856 114.668 33.1763 114.689 33.1717L113.415 27.3086L112.141 21.4454C111.936 21.49 111.751 21.5353 111.607 21.5718L113.078 27.3887ZM113.415 27.3086L114.701 33.1692C114.681 33.1735 114.668 33.1763 114.662 33.1775C114.656 33.1786 114.656 33.1786 114.665 33.177C114.676 33.1748 114.684 33.1732 114.709 33.1684C114.73 33.1645 114.761 33.1585 114.795 33.1517L113.637 27.2646L112.478 21.3776C112.446 21.3839 112.474 21.3782 112.387 21.3951C112.333 21.4056 112.239 21.424 112.129 21.448L113.415 27.3086ZM113.637 27.2646L114.783 33.154C114.798 33.1513 114.813 33.1483 114.822 33.1466C114.832 33.1445 114.839 33.1432 114.844 33.1422C114.855 33.14 114.853 33.1406 114.843 33.1424L113.774 27.2383L112.706 21.3341C112.609 21.3518 112.503 21.3727 112.49 21.3752L113.637 27.2646Z" fill="white" mask="url(#path-1-outside-1_1347_8030)"/>
<path d="M134.037 159.34L123.528 171.899C121.278 174.152 116.364 171.927 116.364 169.678V75.5484C116.364 73.2989 126.03 57.2065 136.739 57.2065L136.625 150.961C136.625 155.583 136.246 156.292 134.037 159.34Z" fill="#276288"/>
<path d="M124.513 69.2444H55.2373L56.0276 67.8263L70.4779 57.2066C72.4583 55.662 73.8644 55.1689 76.1139 55.1689H134.644C135.41 55.1689 136.739 56.2976 136.046 57.0842L124.513 69.2444Z" fill="#7AB9F8"/>
<path d="M120.438 173.346H59.3121C57.063 173.346 55.2373 171.52 55.2373 169.271V69.2447C55.2373 69.2447 57.063 67.3945 59.3121 67.3945H120.438C122.688 67.3945 124.513 69.2447 124.513 69.2447V169.271C124.513 171.52 122.688 173.346 120.438 173.346Z" fill="#4B9AE8"/>
<mask id="path-6-outside-2_1347_8030" maskUnits="userSpaceOnUse" x="68.7686" y="102.814" width="40" height="35" fill="black">
<rect fill="white" x="68.7686" y="102.814" width="40" height="35"/>
<path d="M91.168 104.814C99.7472 104.814 106.702 111.769 106.702 120.348C106.702 128.927 99.7472 135.882 91.168 135.882C84.0157 135.882 77.9932 131.048 76.1875 124.469C74.1315 124.626 71.2304 123.589 70.8223 122.085C70.3616 120.387 72.9479 117.603 74.9551 117.062C75.3148 116.965 75.6722 116.907 76.0205 116.892C77.5917 109.976 83.7767 104.814 91.168 104.814Z"/>
</mask>
<path d="M91.168 104.814C99.7472 104.814 106.702 111.769 106.702 120.348C106.702 128.927 99.7472 135.882 91.168 135.882C84.0157 135.882 77.9932 131.048 76.1875 124.469C74.1315 124.626 71.2304 123.589 70.8223 122.085C70.3616 120.387 72.9479 117.603 74.9551 117.062C75.3148 116.965 75.6722 116.907 76.0205 116.892C77.5917 109.976 83.7767 104.814 91.168 104.814Z" fill="#DFB820"/>
<path d="M91.168 104.814V103.06H91.1679L91.168 104.814ZM106.702 120.348L108.456 120.348V120.348H106.702ZM91.168 135.882L91.1679 137.636H91.168V135.882ZM76.1875 124.469L77.8785 124.005L77.4958 122.611L76.0539 122.721L76.1875 124.469ZM70.8223 122.085L69.1298 122.544L69.1299 122.545L70.8223 122.085ZM74.9551 117.062L74.4989 115.369L74.4988 115.369L74.9551 117.062ZM76.0205 116.892L76.098 118.644L77.4342 118.585L77.7305 117.281L76.0205 116.892ZM91.168 104.814V106.568C98.7788 106.568 104.949 112.737 104.949 120.348H106.702H108.456C108.456 110.8 100.716 103.06 91.168 103.06V104.814ZM106.702 120.348L104.949 120.348C104.949 127.959 98.7787 134.129 91.168 134.129V135.882V137.636C100.716 137.636 108.456 129.896 108.456 120.348L106.702 120.348ZM91.168 135.882L91.168 134.129C84.8258 134.129 79.4807 129.842 77.8785 124.005L76.1875 124.469L74.4965 124.933C76.5058 132.254 83.2056 137.636 91.1679 137.636L91.168 135.882ZM76.1875 124.469L76.0539 122.721C75.3329 122.776 74.3686 122.616 73.5575 122.28C73.16 122.115 72.8646 121.935 72.6771 121.776C72.4812 121.61 72.493 121.547 72.5146 121.626L70.8223 122.085L69.1299 122.545C69.3556 123.376 69.8831 124.006 70.4102 124.452C70.9457 124.906 71.5806 125.257 72.2164 125.52C73.4719 126.04 74.9861 126.32 76.3211 126.218L76.1875 124.469ZM70.8223 122.085L72.5147 121.627C72.5381 121.713 72.4853 121.638 72.6132 121.327C72.7331 121.035 72.9602 120.669 73.2923 120.283C73.9905 119.472 74.8571 118.905 75.4114 118.755L74.9551 117.062L74.4988 115.369C73.0459 115.76 71.6158 116.855 70.6342 117.996C70.1264 118.586 69.6678 119.268 69.3697 119.993C69.0795 120.699 68.8761 121.609 69.1298 122.544L70.8223 122.085ZM74.9551 117.062L75.4113 118.755C75.6586 118.689 75.8889 118.653 76.098 118.644L76.0205 116.892L75.943 115.14C75.4556 115.162 74.971 115.242 74.4989 115.369L74.9551 117.062ZM76.0205 116.892L77.7305 117.281C79.1243 111.146 84.6134 106.568 91.168 106.568L91.168 104.814L91.1679 103.06C82.94 103.061 76.0592 108.807 74.3105 116.504L76.0205 116.892Z" fill="white" mask="url(#path-6-outside-2_1347_8030)"/>
<path d="M91.1684 135.882C99.7476 135.882 106.703 128.927 106.703 120.348C106.703 111.769 99.7476 104.814 91.1684 104.814C82.5891 104.814 75.6343 111.769 75.6343 120.348C75.6343 128.927 82.5891 135.882 91.1684 135.882Z" fill="#4B98E6"/>
<path d="M76.9369 124.348C74.9252 124.889 71.2829 123.785 70.8218 122.086C70.3607 120.387 72.9469 117.603 74.9542 117.062C76.9615 116.522 78.8962 117.191 79.5828 119.723C80.2788 122.284 78.9441 123.807 76.9325 124.349L76.9369 124.348Z" fill="#DFB820"/>
<mask id="path-10-outside-3_1347_8030" maskUnits="userSpaceOnUse" x="82.0558" y="110.395" width="11.2485" height="11.2485" fill="black">
<rect fill="white" x="82.0558" y="110.395" width="11.2485" height="11.2485"/>
<path d="M90.5367 112.65C90.9541 112.332 91.5503 112.412 91.8683 112.83C92.1862 113.247 92.1058 113.843 91.6885 114.161L89.0126 116.2L90.9411 118.731L90.9964 118.811C91.2481 119.221 91.1526 119.765 90.7613 120.063C90.37 120.361 89.8217 120.308 89.4926 119.957L89.4296 119.883L87.501 117.352L84.9701 119.281L84.8899 119.335C84.4794 119.587 83.9367 119.492 83.6384 119.101C83.3403 118.71 83.3923 118.16 83.7439 117.831L83.8183 117.769L86.3492 115.841L84.3102 113.165C83.9921 112.747 84.0727 112.151 84.49 111.833C84.9074 111.515 85.5036 111.596 85.8217 112.013L87.8608 114.689L90.5367 112.65Z"/>
</mask>
<path d="M90.5367 112.65C90.9541 112.332 91.5503 112.412 91.8683 112.83C92.1862 113.247 92.1058 113.843 91.6885 114.161L89.0126 116.2L90.9411 118.731L90.9964 118.811C91.2481 119.221 91.1526 119.765 90.7613 120.063C90.37 120.361 89.8217 120.308 89.4926 119.957L89.4296 119.883L87.501 117.352L84.9701 119.281L84.8899 119.335C84.4794 119.587 83.9367 119.492 83.6384 119.101C83.3403 118.71 83.3923 118.16 83.7439 117.831L83.8183 117.769L86.3492 115.841L84.3102 113.165C83.9921 112.747 84.0727 112.151 84.49 111.833C84.9074 111.515 85.5036 111.596 85.8217 112.013L87.8608 114.689L90.5367 112.65Z" fill="#144475"/>
<path d="M90.5367 112.65L90.1189 112.102L90.5367 112.65ZM91.8683 112.83L92.4167 112.412L92.4165 112.412L91.8683 112.83ZM91.6885 114.161L92.1062 114.71L91.6885 114.161ZM89.0126 116.2L88.5948 115.652L88.0466 116.07L88.4644 116.618L89.0126 116.2ZM90.9411 118.731L91.5067 118.337L91.4983 118.325L91.4893 118.314L90.9411 118.731ZM90.9964 118.811L91.584 118.451L91.5735 118.433L91.562 118.417L90.9964 118.811ZM90.7613 120.063L91.179 120.611L91.179 120.611L90.7613 120.063ZM89.4926 119.957L88.9691 120.405L88.979 120.417L88.9895 120.428L89.4926 119.957ZM89.4296 119.883L88.8814 120.301L88.8933 120.316L88.9061 120.331L89.4296 119.883ZM87.501 117.352L88.0492 116.934L87.6315 116.386L87.0833 116.804L87.501 117.352ZM84.9701 119.281L85.3559 119.852L85.3722 119.841L85.3878 119.829L84.9701 119.281ZM84.8899 119.335L85.2501 119.923L85.263 119.915L85.2756 119.906L84.8899 119.335ZM83.6384 119.101L83.0902 119.519L83.0904 119.519L83.6384 119.101ZM83.7439 117.831L83.3031 117.301L83.2876 117.314L83.2729 117.328L83.7439 117.831ZM83.8183 117.769L83.4006 117.221L83.3888 117.23L83.3775 117.239L83.8183 117.769ZM86.3492 115.841L86.767 116.389L87.3152 115.971L86.8974 115.423L86.3492 115.841ZM84.49 111.833L84.0723 111.285L84.0723 111.285L84.49 111.833ZM87.8608 114.689L87.3126 115.107L87.7303 115.655L88.2785 115.237L87.8608 114.689ZM90.5367 112.65L90.9544 113.198C91.069 113.111 91.2328 113.133 91.3201 113.247L91.8683 112.83L92.4165 112.412C91.8678 111.692 90.8391 111.553 90.1189 112.102L90.5367 112.65ZM91.8683 112.83L91.32 113.247C91.4075 113.362 91.3851 113.526 91.2707 113.613L91.6885 114.161L92.1062 114.71C92.8265 114.161 92.9649 113.132 92.4167 112.412L91.8683 112.83ZM91.6885 114.161L91.2707 113.613L88.5948 115.652L89.0126 116.2L89.4303 116.749L92.1062 114.71L91.6885 114.161ZM89.0126 116.2L88.4644 116.618L90.3929 119.149L90.9411 118.731L91.4893 118.314L89.5608 115.783L89.0126 116.2ZM90.9411 118.731L90.3756 119.125L90.4308 119.205L90.9964 118.811L91.562 118.417L91.5067 118.337L90.9411 118.731ZM90.9964 118.811L90.4088 119.171C90.4775 119.283 90.4508 119.433 90.3435 119.515L90.7613 120.063L91.179 120.611C91.8543 120.097 92.0188 119.16 91.584 118.451L90.9964 118.811ZM90.7613 120.063L90.3436 119.515C90.2373 119.596 90.0863 119.582 89.9957 119.486L89.4926 119.957L88.9895 120.428C89.557 121.034 90.5027 121.126 91.179 120.611L90.7613 120.063ZM89.4926 119.957L90.0161 119.508L89.9531 119.435L89.4296 119.883L88.9061 120.331L88.9691 120.405L89.4926 119.957ZM89.4296 119.883L89.9778 119.465L88.0492 116.934L87.501 117.352L86.9528 117.77L88.8814 120.301L89.4296 119.883ZM87.501 117.352L87.0833 116.804L84.5524 118.733L84.9701 119.281L85.3878 119.829L87.9188 117.9L87.501 117.352ZM84.9701 119.281L84.5843 118.71L84.5041 118.764L84.8899 119.335L85.2756 119.906L85.3559 119.852L84.9701 119.281ZM84.8899 119.335L84.5297 118.747C84.4169 118.816 84.2677 118.789 84.1865 118.683L83.6384 119.101L83.0904 119.519C83.6056 120.195 84.5418 120.357 85.2501 119.923L84.8899 119.335ZM83.6384 119.101L84.1866 118.683C84.1049 118.576 84.1191 118.424 84.2149 118.334L83.7439 117.831L83.2729 117.328C82.6656 117.896 82.5757 118.843 83.0902 119.519L83.6384 119.101ZM83.7439 117.831L84.1848 118.361L84.2591 118.299L83.8183 117.769L83.3775 117.239L83.3031 117.301L83.7439 117.831ZM83.8183 117.769L84.236 118.317L86.767 116.389L86.3492 115.841L85.9315 115.292L83.4006 117.221L83.8183 117.769ZM86.3492 115.841L86.8974 115.423L84.8584 112.747L84.3102 113.165L83.762 113.582L85.801 116.258L86.3492 115.841ZM84.3102 113.165L84.8584 112.747C84.7711 112.632 84.7931 112.469 84.9078 112.381L84.49 111.833L84.0723 111.285C83.3522 111.834 83.2132 112.862 83.762 113.582L84.3102 113.165ZM84.49 111.833L84.9078 112.381C85.0224 112.294 85.1861 112.316 85.2735 112.431L85.8217 112.013L86.3699 111.595C85.8211 110.875 84.7924 110.736 84.0723 111.285L84.49 111.833ZM85.8217 112.013L85.2735 112.431L87.3126 115.107L87.8608 114.689L88.409 114.271L86.3699 111.595L85.8217 112.013ZM87.8608 114.689L88.2785 115.237L90.9544 113.198L90.5367 112.65L90.1189 112.102L87.443 114.141L87.8608 114.689Z" fill="white" mask="url(#path-10-outside-3_1347_8030)"/>
<path d="M112.284 61.1348C112.284 61.1348 111.428 62.8909 108.344 62.8909C105.259 62.8909 104.134 61.1348 104.134 61.1348V44.3372C104.134 36.2157 106.302 30.853 110.581 28.3999C114.676 26.0525 120.059 26.7778 126.563 30.5802C131.755 33.6075 144.579 42.691 144.885 42.9435C144.885 42.9435 145.557 45.2461 143.65 47.4263C141.743 49.6066 139.717 49.2479 139.717 49.2479C139.644 49.1907 127.081 40.3191 122.456 37.6135C118.866 35.515 116.001 35.0746 114.697 35.8367C113.56 36.489 112.284 38.7953 112.284 44.3372V61.1348Z" fill="#CCD6DD"/>
<path d="M122.206 28.4369C117.626 26.6195 113.722 26.5992 110.58 28.3963C107.357 30.2465 105.335 33.7507 104.533 38.8364L112.581 40.3321C113.021 37.6261 113.893 36.3017 114.7 35.8372C115.597 35.3115 117.267 35.4093 119.37 36.1715L122.206 28.4369Z" fill="#99AAB5"/>
<path d="M124.232 71.4693H57.2749C56.1541 71.4693 55.2373 70.5525 55.2373 69.4321C55.2373 68.3117 56.1541 67.3945 57.2749 67.3945H124.232C125.352 67.3945 126.269 68.3113 126.269 69.4321C126.269 70.553 125.352 71.4693 124.232 71.4693Z" fill="#D7E8FC"/>
<path d="M136.363 58.4126L126.029 70.7842C125.364 71.6036 124.109 71.6931 123.241 70.9882C122.369 70.2833 122.202 69.036 122.862 68.2171L133.196 55.845C133.861 55.0261 135.116 54.9365 135.984 55.6414C136.856 56.3505 137.023 57.5932 136.363 58.4126Z" fill="#D7E8FC"/>
</svg>
