<svg width="200" height="200" viewBox="0 0 200 200" fill="none" xmlns="http://www.w3.org/2000/svg">
<mask id="path-1-outside-1_1062_29317" maskUnits="userSpaceOnUse" x="10" y="21" width="179" height="157" fill="black">
<rect fill="white" x="10" y="21" width="179" height="157"/>
<path d="M95.5205 27C96.1337 27 96.7474 27.0125 97.3545 27.0615C114.247 28.055 127.651 42.8137 127.651 62.3799C127.651 64.5812 127.001 69.0148 126.688 69.2969C126.749 69.3323 126.806 69.3684 126.854 69.4004C126.865 69.4007 126.875 69.401 126.885 69.4014C129.006 69.4749 131.263 70.0693 133.458 71.2832L135.733 72.54L158.163 84.9141C164.191 88.2436 165.895 95.3139 161.505 98.8887V98.9072H161.499C161.499 98.9078 161.496 98.9088 161.495 98.9111C161.506 98.9083 161.513 98.9072 161.513 98.9072C161.513 98.9072 159.322 101.02 154.954 103.239C154.898 103.268 154.842 103.298 154.785 103.328C154.558 103.445 154.325 103.554 154.092 103.671C153.718 103.855 153.332 104.021 152.939 104.181C152.173 104.512 151.375 104.812 150.56 105.063C149.051 105.548 147.482 105.903 145.845 106.087C145.843 106.087 145.84 106.087 145.838 106.087V106.088C145.317 113.636 142.533 120.374 138.057 126.016C137.664 126.512 137.256 126.998 136.838 127.477C164.209 131.334 183 139.298 183 148.5C183 161.479 145.616 172 99.5 172C53.3842 172 16 161.479 16 148.5C16 140.101 31.6558 132.733 55.2021 128.577C54.4257 127.753 53.6882 126.901 52.9912 126.021C52.9911 126.02 52.9895 126.016 52.9844 126.016C48.4961 120.35 45.6998 113.562 45.2031 105.965C45.2031 105.963 45.2022 105.96 45.2021 105.958C43.0107 105.621 40.933 104.987 38.9912 104.162C38.6075 104.004 38.2334 103.84 37.8711 103.666C32.9289 101.299 30.4512 98.9072 30.4512 98.9072C30.4512 98.9072 30.4576 98.9081 30.4697 98.9111C30.4656 98.9078 30.4612 98.9047 30.457 98.9014C26.0729 95.3265 27.7782 88.2563 33.8057 84.9268L58.5039 71.2959L58.498 71.29C60.1128 70.3996 61.7624 69.8428 63.3662 69.582C63.3724 68.2902 63.3965 64.2211 63.3965 62.3799C63.3967 42.1086 77.7816 27.0002 95.5205 27Z"/>
</mask>
<path d="M95.5205 27C96.1337 27 96.7474 27.0125 97.3545 27.0615C114.247 28.055 127.651 42.8137 127.651 62.3799C127.651 64.5812 127.001 69.0148 126.688 69.2969C126.749 69.3323 126.806 69.3684 126.854 69.4004C126.865 69.4007 126.875 69.401 126.885 69.4014C129.006 69.4749 131.263 70.0693 133.458 71.2832L135.733 72.54L158.163 84.9141C164.191 88.2436 165.895 95.3139 161.505 98.8887V98.9072H161.499C161.499 98.9078 161.496 98.9088 161.495 98.9111C161.506 98.9083 161.513 98.9072 161.513 98.9072C161.513 98.9072 159.322 101.02 154.954 103.239C154.898 103.268 154.842 103.298 154.785 103.328C154.558 103.445 154.325 103.554 154.092 103.671C153.718 103.855 153.332 104.021 152.939 104.181C152.173 104.512 151.375 104.812 150.56 105.063C149.051 105.548 147.482 105.903 145.845 106.087C145.843 106.087 145.84 106.087 145.838 106.087V106.088C145.317 113.636 142.533 120.374 138.057 126.016C137.664 126.512 137.256 126.998 136.838 127.477C164.209 131.334 183 139.298 183 148.5C183 161.479 145.616 172 99.5 172C53.3842 172 16 161.479 16 148.5C16 140.101 31.6558 132.733 55.2021 128.577C54.4257 127.753 53.6882 126.901 52.9912 126.021C52.9911 126.02 52.9895 126.016 52.9844 126.016C48.4961 120.35 45.6998 113.562 45.2031 105.965C45.2031 105.963 45.2022 105.96 45.2021 105.958C43.0107 105.621 40.933 104.987 38.9912 104.162C38.6075 104.004 38.2334 103.84 37.8711 103.666C32.9289 101.299 30.4512 98.9072 30.4512 98.9072C30.4512 98.9072 30.4576 98.9081 30.4697 98.9111C30.4656 98.9078 30.4612 98.9047 30.457 98.9014C26.0729 95.3265 27.7782 88.2563 33.8057 84.9268L58.5039 71.2959L58.498 71.29C60.1128 70.3996 61.7624 69.8428 63.3662 69.582C63.3724 68.2902 63.3965 64.2211 63.3965 62.3799C63.3967 42.1086 77.7816 27.0002 95.5205 27Z" fill="#2B671D"/>
<path d="M95.5205 27L95.5205 21L95.5204 21L95.5205 27ZM97.3545 27.0615L96.8712 33.042C96.9149 33.0456 96.9585 33.0486 97.0022 33.0512L97.3545 27.0615ZM127.651 62.3799L133.651 62.3799L133.651 62.3798L127.651 62.3799ZM126.688 69.2969L122.67 64.8415C121.248 66.1241 120.523 68.0084 120.72 69.9133C120.917 71.8181 122.011 73.5146 123.665 74.4795L126.688 69.2969ZM126.854 69.4004L123.572 74.4228C124.491 75.0238 125.558 75.3608 126.656 75.3971L126.854 69.4004ZM126.885 69.4014L126.673 75.3976L126.677 75.3978L126.885 69.4014ZM133.458 71.2832L130.554 76.5338L130.557 76.5353L133.458 71.2832ZM135.733 72.54L132.832 77.7921L132.835 77.7936L135.733 72.54ZM158.163 84.9141L161.064 79.6621L161.061 79.6605L158.163 84.9141ZM161.505 98.8887L157.716 94.236C156.317 95.3754 155.505 97.0841 155.505 98.8887H161.505ZM161.505 98.9072V104.907C164.819 104.907 167.505 102.221 167.505 98.9072H161.505ZM161.499 98.9072V92.9072C159.246 92.9072 157.183 94.1692 156.157 96.175L161.499 98.9072ZM161.495 98.9111L156.284 95.9376C155.093 98.0244 155.262 100.62 156.713 102.535C158.164 104.45 160.618 105.314 162.949 104.732L161.495 98.9111ZM161.513 98.9072L165.678 103.226C167.574 101.397 168.056 98.5447 166.864 96.1946C165.673 93.8445 163.088 92.5465 160.492 92.9947L161.513 98.9072ZM154.954 103.239L157.665 108.592L157.672 108.588L154.954 103.239ZM154.785 103.328L157.526 108.666C157.544 108.656 157.562 108.647 157.579 108.638L154.785 103.328ZM154.092 103.671L156.74 109.055C156.752 109.049 156.763 109.043 156.775 109.037L154.092 103.671ZM152.939 104.181L150.681 98.6219C150.641 98.6384 150.6 98.6553 150.56 98.6727L152.939 104.181ZM150.56 105.063L148.792 99.3297C148.77 99.3366 148.747 99.3436 148.725 99.3508L150.56 105.063ZM145.845 106.087L145.175 100.124C145.165 100.126 145.155 100.127 145.145 100.128L145.845 106.087ZM145.838 106.087L145.14 100.128C142.117 100.482 139.838 103.043 139.838 106.087H145.838ZM145.838 106.088L151.824 106.501C151.833 106.364 151.838 106.226 151.838 106.088H145.838ZM138.057 126.016L133.357 122.286L133.353 122.291L138.057 126.016ZM136.838 127.477L132.321 123.528C130.871 125.186 130.447 127.505 131.215 129.569C131.983 131.633 133.82 133.11 136.001 133.418L136.838 127.477ZM55.2021 128.577L56.2449 134.486C58.4166 134.103 60.203 132.559 60.8972 130.466C61.5913 128.373 61.0813 126.067 59.5689 124.462L55.2021 128.577ZM52.9912 126.021L47.0169 126.577C47.1246 127.735 47.5668 128.837 48.2897 129.749L52.9912 126.021ZM52.9844 126.016L48.2813 129.741C49.4194 131.178 51.1516 132.016 52.9844 132.016V126.016ZM45.2031 105.965L39.2031 105.965C39.2031 106.096 39.2074 106.226 39.2159 106.356L45.2031 105.965ZM45.2021 105.958L51.2018 105.891C51.1692 102.955 49.0165 100.474 46.1144 100.028L45.2021 105.958ZM38.9912 104.162L41.3373 98.6398C41.3162 98.6308 41.2949 98.6219 41.2737 98.6132L38.9912 104.162ZM37.8711 103.666L40.4637 98.255L40.4627 98.2546L37.8711 103.666ZM30.4512 98.9072L31.2633 92.9624C28.6919 92.6112 26.1861 93.9529 25.0531 96.2878C23.9201 98.6227 24.4167 101.421 26.2839 103.224L30.4512 98.9072ZM30.4697 98.9111L29.0169 104.733C31.7429 105.413 34.5759 104.11 35.8343 101.598C37.0926 99.0864 36.4394 96.0376 34.2622 94.2617L30.4697 98.9111ZM30.457 98.9014L34.2512 94.2534L34.2487 94.2513L30.457 98.9014ZM33.8057 84.9268L30.9065 79.6737L30.9045 79.6748L33.8057 84.9268ZM58.5039 71.2959L61.4031 76.549C63.054 75.6378 64.1806 74.0035 64.4447 72.1364C64.7089 70.2693 64.0799 68.3866 62.7465 67.0533L58.5039 71.2959ZM58.498 71.29L55.6008 66.0359C53.9491 66.9467 52.8219 68.581 52.5574 70.4485C52.2928 72.3159 52.9218 74.199 54.2554 75.5327L58.498 71.29ZM63.3662 69.582L64.3293 75.5042C67.2224 75.0338 69.3521 72.5419 69.3661 69.6108L63.3662 69.582ZM63.3965 62.3799L57.3965 62.3798V62.3799H63.3965ZM95.5205 27V33C96.0634 33 96.4954 33.0117 96.8712 33.042L97.3545 27.0615L97.8378 21.081C96.9995 21.0133 96.204 21 95.5205 21V27ZM97.3545 27.0615L97.0022 33.0512C110.31 33.8338 121.651 45.5585 121.651 62.3799L127.651 62.3799L133.651 62.3798C133.651 40.0689 118.185 22.2762 97.7067 21.0719L97.3545 27.0615ZM127.651 62.3799H121.651C121.651 62.6774 121.627 63.169 121.569 63.8104C121.513 64.4303 121.434 65.0977 121.347 65.7139C121.257 66.3445 121.169 66.845 121.104 67.1496C121.068 67.3165 121.062 67.3185 121.093 67.2179C121.107 67.1753 121.166 66.9842 121.284 66.7241C121.344 66.5916 121.454 66.3628 121.623 66.0902C121.77 65.8538 122.103 65.3524 122.67 64.8415L126.688 69.2969L130.707 73.7523C131.712 72.8457 132.15 71.8182 132.218 71.6697C132.379 71.3126 132.485 70.9952 132.546 70.8001C132.673 70.3943 132.769 69.9865 132.838 69.6637C132.982 68.9889 133.115 68.1905 133.228 67.4023C133.444 65.8791 133.651 63.8973 133.651 62.3799H127.651ZM126.688 69.2969L123.665 74.4795C123.628 74.4577 123.6 74.4406 123.585 74.4313C123.571 74.4222 123.564 74.4176 123.572 74.4228L126.854 69.4004L130.137 64.378C130.058 64.3263 129.903 64.2258 129.712 64.1142L126.688 69.2969ZM126.854 69.4004L126.656 75.3971C126.663 75.3973 126.669 75.3975 126.674 75.3977C126.676 75.3977 126.678 75.3978 126.679 75.3978C126.681 75.3979 126.681 75.3979 126.682 75.3979C126.684 75.398 126.683 75.398 126.682 75.3979C126.68 75.3979 126.677 75.3978 126.673 75.3976L126.885 69.4014L127.097 63.4051C127.079 63.4045 127.063 63.404 127.057 63.4038C127.052 63.4036 127.053 63.4037 127.051 63.4036C127.05 63.4036 127.051 63.4036 127.053 63.4037L126.854 69.4004ZM126.885 69.4014L126.677 75.3978C127.825 75.4376 129.161 75.7634 130.554 76.5338L133.458 71.2832L136.362 66.0327C133.365 64.3752 130.187 63.5123 127.093 63.405L126.885 69.4014ZM133.458 71.2832L130.557 76.5353L132.832 77.7921L135.733 72.54L138.634 67.288L136.359 66.0312L133.458 71.2832ZM135.733 72.54L132.835 77.7936L155.265 90.1676L158.163 84.9141L161.061 79.6605L138.632 67.2865L135.733 72.54ZM158.163 84.9141L155.262 90.166C156.944 91.0955 157.705 92.3711 157.906 93.2085C158.003 93.6131 157.962 93.8538 157.933 93.9492C157.914 94.0143 157.88 94.1029 157.716 94.236L161.505 98.8887L165.293 103.541C169.533 100.089 170.662 94.9436 169.575 90.4103C168.514 85.9864 165.409 82.0622 161.064 79.6621L158.163 84.9141ZM161.505 98.8887H155.505V98.9072H161.505H167.505V98.8887H161.505ZM161.505 98.9072V92.9072H161.499V98.9072V104.907H161.505V98.9072ZM161.499 98.9072L156.157 96.175C156.289 95.9181 156.423 95.7004 156.545 95.5229C156.666 95.345 156.783 95.1943 156.885 95.0716C156.987 94.9485 157.083 94.8437 157.165 94.758C157.247 94.672 157.323 94.5983 157.387 94.5377C157.513 94.4195 157.621 94.3285 157.691 94.2707C157.763 94.2116 157.822 94.1658 157.856 94.1397C157.891 94.1133 157.918 94.093 157.926 94.0872C157.929 94.0853 157.931 94.0837 157.932 94.0828C157.933 94.0824 157.933 94.082 157.933 94.0818C157.934 94.0817 157.934 94.0816 157.934 94.0815C157.934 94.0815 157.934 94.0814 157.934 94.0814C157.934 94.0814 157.934 94.0814 157.934 94.0814C157.934 94.081 157.931 94.0836 157.927 94.0866C157.911 94.0986 157.854 94.1407 157.783 94.1967C157.638 94.3106 157.398 94.5106 157.132 94.7926C156.862 95.0786 156.558 95.457 156.284 95.9376L161.495 98.9111L166.706 101.885C166.433 102.364 166.13 102.741 165.861 103.027C165.596 103.308 165.356 103.507 165.212 103.62C165.141 103.676 165.085 103.718 165.069 103.73C165.065 103.733 165.062 103.735 165.062 103.735C165.062 103.735 165.062 103.735 165.063 103.735C165.063 103.734 165.063 103.734 165.063 103.734C165.063 103.734 165.064 103.734 165.064 103.733C165.066 103.732 165.068 103.731 165.07 103.729C165.078 103.723 165.106 103.702 165.141 103.676C165.175 103.65 165.234 103.604 165.306 103.544C165.377 103.487 165.485 103.396 165.61 103.277C165.675 103.217 165.75 103.143 165.833 103.057C165.915 102.971 166.01 102.866 166.113 102.743C166.215 102.62 166.332 102.47 166.453 102.292C166.575 102.114 166.709 101.896 166.841 101.64L161.499 98.9072ZM161.495 98.9111L162.949 104.732C162.876 104.75 162.806 104.767 162.737 104.781C162.702 104.788 162.668 104.795 162.634 104.801C162.617 104.805 162.6 104.808 162.584 104.811C162.575 104.812 162.567 104.814 162.558 104.815C162.554 104.816 162.55 104.817 162.546 104.818C162.544 104.818 162.542 104.818 162.54 104.819C162.539 104.819 162.538 104.819 162.537 104.819C162.536 104.819 162.536 104.819 162.535 104.819C162.535 104.82 162.534 104.82 162.534 104.82C162.534 104.82 162.533 104.82 161.513 98.9072C160.492 92.9947 160.492 92.9948 160.491 92.9948C160.491 92.9948 160.491 92.9949 160.49 92.995C160.49 92.9951 160.489 92.9951 160.489 92.9952C160.488 92.9954 160.487 92.9956 160.486 92.9958C160.484 92.9961 160.482 92.9965 160.479 92.9969C160.475 92.9976 160.471 92.9983 160.467 92.9991C160.458 93.0006 160.45 93.0021 160.441 93.0037C160.424 93.0068 160.407 93.01 160.389 93.0134C160.354 93.0201 160.317 93.0274 160.28 93.0353C160.205 93.0509 160.125 93.069 160.042 93.0898L161.495 98.9111ZM161.513 98.9072C157.348 94.5885 157.349 94.5876 157.349 94.5866C157.35 94.5863 157.351 94.5854 157.351 94.5848C157.353 94.5835 157.354 94.5824 157.355 94.5812C157.357 94.5789 157.36 94.5767 157.362 94.5747C157.366 94.5706 157.37 94.567 157.373 94.5638C157.38 94.5576 157.384 94.5533 157.387 94.551C157.392 94.5463 157.389 94.5492 157.378 94.5593C157.356 94.5794 157.301 94.6281 157.215 94.7017C157.042 94.8489 156.741 95.0948 156.313 95.41C155.457 96.0408 154.097 96.9448 152.236 97.8902L154.954 103.239L157.672 108.588C160.18 107.314 162.099 106.052 163.43 105.072C164.096 104.581 164.616 104.16 164.99 103.842C165.177 103.683 165.328 103.549 165.442 103.445C165.5 103.393 165.548 103.349 165.587 103.312C165.607 103.294 165.624 103.277 165.639 103.263C165.647 103.256 165.654 103.249 165.66 103.243C165.663 103.24 165.667 103.237 165.669 103.234C165.671 103.233 165.672 103.231 165.674 103.23C165.674 103.229 165.676 103.228 165.676 103.228C165.677 103.227 165.678 103.226 161.513 98.9072ZM154.954 103.239L152.243 97.8865C152.163 97.927 152.095 97.9631 152.057 97.9836C151.999 98.0139 152.009 98.0091 151.991 98.0185L154.785 103.328L157.579 108.638C157.606 108.624 157.63 108.611 157.646 108.602C157.654 108.598 157.663 108.593 157.669 108.591C157.675 108.587 157.679 108.585 157.683 108.583C157.701 108.573 157.689 108.58 157.665 108.592L154.954 103.239ZM154.785 103.328L152.044 97.9907C151.797 98.1177 151.874 98.0716 151.409 98.3043L154.092 103.671L156.775 109.037C156.776 109.037 157.32 108.772 157.526 108.666L154.785 103.328ZM154.092 103.671L151.444 98.2868C151.245 98.3847 151.002 98.4917 150.681 98.6219L152.939 104.181L155.198 109.739C155.662 109.551 156.191 109.325 156.74 109.055L154.092 103.671ZM152.939 104.181L150.56 98.6727C149.971 98.9273 149.377 99.1493 148.792 99.3297L150.56 105.063L152.327 110.797C153.373 110.475 154.375 110.096 155.319 109.689L152.939 104.181ZM150.56 105.063L148.725 99.3508C147.559 99.7251 146.38 99.989 145.175 100.124L145.845 106.087L146.515 112.049C148.583 111.817 150.543 111.37 152.394 110.776L150.56 105.063ZM145.845 106.087L145.145 100.128C145.234 100.117 145.317 100.11 145.394 100.104C145.47 100.098 145.542 100.094 145.607 100.092C145.671 100.089 145.731 100.088 145.784 100.087C145.837 100.087 145.886 100.087 145.927 100.088C145.969 100.088 146.007 100.089 146.038 100.09C146.068 100.091 146.095 100.092 146.115 100.093C146.135 100.094 146.152 100.095 146.161 100.095C146.166 100.096 146.17 100.096 146.173 100.096C146.175 100.096 146.177 100.096 146.176 100.096C146.176 100.096 146.176 100.096 146.176 100.096C146.176 100.096 146.176 100.096 146.176 100.096C146.176 100.096 146.176 100.096 146.175 100.096C146.175 100.096 146.174 100.096 146.172 100.096C146.17 100.096 146.166 100.096 146.161 100.095C146.151 100.095 146.134 100.094 146.114 100.093C146.093 100.092 146.067 100.091 146.036 100.09C146.004 100.089 145.967 100.088 145.925 100.087C145.883 100.087 145.834 100.087 145.781 100.087C145.727 100.088 145.668 100.089 145.603 100.091C145.538 100.094 145.466 100.098 145.389 100.104C145.312 100.109 145.229 100.117 145.14 100.128L145.838 106.087L146.536 112.046C146.447 112.057 146.364 112.064 146.287 112.07C146.211 112.076 146.14 112.08 146.075 112.082C146.01 112.085 145.951 112.086 145.897 112.087C145.844 112.087 145.796 112.087 145.754 112.086C145.712 112.086 145.675 112.085 145.644 112.084C145.614 112.083 145.587 112.082 145.567 112.081C145.547 112.08 145.531 112.079 145.521 112.078C145.516 112.078 145.512 112.078 145.51 112.078C145.508 112.078 145.506 112.078 145.506 112.078C145.506 112.078 145.506 112.078 145.506 112.078C145.507 112.078 145.507 112.078 145.507 112.078C145.508 112.078 145.509 112.078 145.51 112.078C145.513 112.078 145.517 112.078 145.522 112.078C145.532 112.079 145.549 112.08 145.569 112.081C145.59 112.082 145.616 112.083 145.648 112.084C145.679 112.085 145.716 112.086 145.759 112.086C145.801 112.087 145.849 112.087 145.903 112.087C145.956 112.086 146.016 112.085 146.081 112.082C146.146 112.08 146.218 112.076 146.295 112.07C146.372 112.064 146.455 112.056 146.544 112.046L145.845 106.087ZM145.838 106.087H139.838V106.088H145.838H151.838V106.087H145.838ZM145.838 106.088L139.852 105.675C139.419 111.952 137.118 117.546 133.357 122.286L138.057 126.016L142.757 129.745C147.948 123.203 151.215 115.32 151.824 106.501L145.838 106.088ZM138.057 126.016L133.353 122.291C133.029 122.7 132.685 123.111 132.321 123.528L136.838 127.477L141.355 131.426C141.828 130.885 142.299 130.323 142.761 129.74L138.057 126.016ZM136.838 127.477L136.001 133.418C149.395 135.306 160.327 138.156 167.738 141.463C171.46 143.125 173.981 144.764 175.482 146.205C176.974 147.637 177 148.399 177 148.5H183H189C189 144 186.677 140.317 183.791 137.546C180.913 134.785 177.025 132.467 172.628 130.505C163.801 126.565 151.652 123.505 137.675 121.535L136.838 127.477ZM183 148.5H177C177 148.657 176.831 150.179 173.114 152.652C169.626 154.973 164.183 157.297 156.918 159.341C142.472 163.407 122.169 166 99.5 166V172V178C122.946 178 144.394 175.332 160.169 170.893C168.015 168.685 174.8 165.944 179.762 162.642C184.496 159.492 189 154.832 189 148.5H183ZM99.5 172V166C76.8305 166 56.5281 163.407 42.0821 159.341C34.8174 157.297 29.3741 154.973 25.8856 152.652C22.1695 150.179 22 148.657 22 148.5H16H10C10 154.832 14.5035 159.492 19.2381 162.642C24.2003 165.944 30.9852 168.685 38.8311 170.893C54.6061 175.332 76.0537 178 99.5 178V172ZM16 148.5H22C22 148.401 22.0194 147.768 23.169 146.555C24.3457 145.314 26.3665 143.85 29.4437 142.319C35.5806 139.266 44.7555 136.513 56.2449 134.486L55.2021 128.577L54.1594 122.668C42.1025 124.796 31.6763 127.806 24.0987 131.575C20.3187 133.456 16.9538 135.669 14.4593 138.301C11.9375 140.961 10 144.4 10 148.5H16ZM55.2021 128.577L59.5689 124.462C58.9087 123.762 58.283 123.038 57.6927 122.294L52.9912 126.021L48.2897 129.749C49.0934 130.763 49.9427 131.745 50.8354 132.692L55.2021 128.577ZM52.9912 126.021L58.9655 125.466C58.8632 124.366 58.4482 123.226 57.6543 122.244C56.6497 121.003 55.0033 120.016 52.9844 120.016V126.016V132.016C50.9706 132.016 49.3276 131.031 48.3251 129.792C47.5333 128.813 47.1191 127.676 47.0169 126.577L52.9912 126.021ZM52.9844 126.016L57.6874 122.29C53.9148 117.528 51.6033 111.89 51.1903 105.573L45.2031 105.965L39.2159 106.356C39.7963 115.234 43.0774 123.172 48.2813 129.741L52.9844 126.016ZM45.2031 105.965L51.2031 105.964C51.2031 105.754 51.1921 105.568 51.1777 105.413C51.1635 105.258 51.1452 105.127 51.1293 105.026C51.1136 104.926 51.0983 104.846 51.0887 104.797C51.0837 104.773 51.0796 104.752 51.077 104.74C51.0756 104.733 51.0745 104.728 51.0738 104.725C51.0732 104.722 51.0726 104.719 51.0726 104.719C51.072 104.716 51.0738 104.725 51.0758 104.734C51.078 104.745 51.0818 104.763 51.0864 104.786C51.0953 104.831 51.1099 104.906 51.1252 105.001C51.1406 105.096 51.1585 105.221 51.173 105.368C51.1876 105.516 51.1996 105.692 51.2018 105.891L45.2021 105.958L39.2025 106.025C39.2047 106.225 39.2167 106.402 39.2314 106.55C39.246 106.698 39.264 106.823 39.2795 106.919C39.2948 107.014 39.3095 107.09 39.3185 107.135C39.3232 107.158 39.327 107.177 39.3293 107.188C39.3313 107.197 39.3332 107.206 39.3327 107.204C39.3327 107.204 39.3322 107.202 39.3316 107.199C39.3309 107.195 39.3298 107.19 39.3285 107.184C39.326 107.172 39.3219 107.152 39.317 107.127C39.3121 107.102 39.3059 107.07 39.2991 107.033C39.2923 106.995 39.2846 106.951 39.2766 106.9C39.2608 106.8 39.2427 106.669 39.2284 106.515C39.2142 106.36 39.2031 106.175 39.2031 105.965L45.2031 105.965ZM45.2021 105.958L46.1144 100.028C44.4775 99.7759 42.8809 99.2956 41.3373 98.6398L38.9912 104.162L36.6451 109.684C38.9851 110.679 41.544 111.466 44.2899 111.888L45.2021 105.958ZM38.9912 104.162L41.2737 98.6132C40.9779 98.4916 40.7089 98.3726 40.4637 98.255L37.8711 103.666L35.2785 109.077C35.758 109.307 36.237 109.517 36.7088 109.711L38.9912 104.162ZM37.8711 103.666L40.4627 98.2546C38.3489 97.2422 36.8007 96.243 35.8215 95.5355C35.3323 95.1821 34.9867 94.9027 34.7854 94.7328C34.6849 94.6479 34.6206 94.5906 34.5926 94.5653C34.5787 94.5527 34.5738 94.5481 34.5781 94.5521C34.5803 94.5541 34.5847 94.5582 34.5914 94.5646C34.5948 94.5678 34.5987 94.5716 34.6032 94.5759C34.6055 94.578 34.6078 94.5803 34.6104 94.5828C34.6116 94.584 34.613 94.5852 34.6143 94.5865C34.615 94.5872 34.616 94.5882 34.6163 94.5885C34.6174 94.5895 34.6184 94.5905 30.4512 98.9072C26.2839 103.224 26.285 103.225 26.2861 103.226C26.2864 103.226 26.2875 103.227 26.2883 103.228C26.2898 103.23 26.2913 103.231 26.2929 103.233C26.296 103.236 26.2993 103.239 26.3028 103.242C26.3097 103.249 26.3173 103.256 26.3254 103.264C26.3418 103.279 26.3608 103.297 26.3823 103.317C26.4253 103.357 26.4785 103.407 26.5419 103.464C26.6688 103.579 26.8367 103.727 27.0456 103.903C27.4634 104.256 28.0461 104.722 28.7941 105.263C30.2893 106.343 32.4511 107.723 35.2795 109.077L37.8711 103.666ZM30.4512 98.9072C29.639 104.852 29.6384 104.852 29.6378 104.852C29.6376 104.852 29.637 104.852 29.6366 104.852C29.6358 104.852 29.635 104.851 29.6342 104.851C29.6325 104.851 29.6309 104.851 29.6293 104.851C29.626 104.85 29.6228 104.85 29.6195 104.849C29.613 104.848 29.6065 104.847 29.6 104.847C29.587 104.845 29.574 104.843 29.561 104.841C29.535 104.837 29.509 104.833 29.483 104.829C29.431 104.82 29.3791 104.811 29.3272 104.801C29.2233 104.781 29.1199 104.758 29.0169 104.733L30.4697 98.9111L31.9225 93.0897C31.8075 93.061 31.6947 93.0363 31.5846 93.0152C31.5296 93.0046 31.4753 92.995 31.4217 92.9862C31.3949 92.9818 31.3683 92.9777 31.3419 92.9737C31.3287 92.9717 31.3156 92.9698 31.3025 92.9679C31.2959 92.967 31.2894 92.9661 31.2828 92.9651C31.2796 92.9647 31.2763 92.9642 31.2731 92.9638C31.2714 92.9636 31.2698 92.9633 31.2682 92.9631C31.2674 92.963 31.2666 92.9629 31.2657 92.9628C31.2653 92.9627 31.2647 92.9626 31.2645 92.9626C31.2639 92.9625 31.2633 92.9624 30.4512 98.9072ZM30.4697 98.9111L34.2622 94.2617C34.2284 94.2342 34.1982 94.2101 34.1725 94.1899C34.1468 94.1698 34.1247 94.1527 34.1074 94.1395C34.0902 94.1265 34.0762 94.1159 34.0676 94.1094C34.0631 94.1061 34.0595 94.1034 34.0572 94.1017C34.0561 94.1008 34.0551 94.1001 34.0545 94.0996C34.0539 94.0992 34.0534 94.0988 34.0533 94.0987C34.0528 94.0984 34.0542 94.0994 34.0558 94.1006C34.0577 94.102 34.0608 94.1043 34.0648 94.1073C34.0725 94.1131 34.0856 94.123 34.1018 94.1354C34.1182 94.1479 34.1395 94.1642 34.1642 94.1836C34.189 94.2031 34.2184 94.2265 34.2512 94.2534L30.457 98.9014L26.6628 103.549C26.6967 103.577 26.7272 103.601 26.753 103.622C26.7788 103.642 26.8011 103.659 26.8185 103.672C26.8358 103.686 26.85 103.696 26.8588 103.703C26.8633 103.706 26.867 103.709 26.8693 103.711C26.8715 103.712 26.8734 103.714 26.8734 103.714C26.874 103.714 26.8727 103.713 26.8711 103.712C26.8694 103.711 26.8663 103.708 26.8624 103.706C26.8548 103.7 26.8419 103.69 26.8258 103.678C26.8096 103.665 26.7884 103.649 26.7639 103.63C26.7392 103.611 26.71 103.587 26.6772 103.561L30.4697 98.9111ZM30.457 98.9014L34.2487 94.2513C34.0869 94.1193 34.0531 94.0314 34.0336 93.966C34.0051 93.8701 33.9637 93.6286 34.0611 93.2231C34.2626 92.3842 35.0244 91.1081 36.7068 90.1787L33.8057 84.9268L30.9045 79.6748C26.5594 82.075 23.4549 85.9987 22.3928 90.421C21.3048 94.9517 22.4291 100.097 26.6654 103.551L30.457 98.9014ZM33.8057 84.9268L36.7048 90.1798L61.4031 76.549L58.5039 71.2959L55.6048 66.0428L30.9065 79.6737L33.8057 84.9268ZM58.5039 71.2959L62.7465 67.0533L62.7407 67.0474L58.498 71.29L54.2554 75.5327L54.2613 75.5385L58.5039 71.2959ZM58.498 71.29L61.3953 76.5441C62.4215 75.9783 63.4185 75.6524 64.3293 75.5042L63.3662 69.582L62.4031 63.6598C60.1064 64.0333 57.804 64.821 55.6008 66.0359L58.498 71.29ZM63.3662 69.582L69.3661 69.6108C69.3723 68.3385 69.3965 64.2403 69.3965 62.3799H63.3965H57.3965C57.3965 64.2019 57.3726 68.2419 57.3663 69.5532L63.3662 69.582ZM63.3965 62.3799L69.3965 62.3799C69.3967 44.9491 81.5496 33.0002 95.5206 33L95.5205 27L95.5204 21C74.0136 21.0002 57.3967 39.2682 57.3965 62.3798L63.3965 62.3799Z" fill="white" mask="url(#path-1-outside-1_1062_29317)"/>
<ellipse cx="99.5" cy="148.5" rx="83.5" ry="23.5" fill="#4B9AE8"/>
<path d="M166 147.736C166 152.519 135.555 162 98 162C60.4446 162 30 152.519 30 147.736C30 142.953 60.4446 135 98 135C135.555 135 166 142.953 166 147.736Z" fill="#CDF0FB"/>
<path d="M58.5039 71.296L33.8052 84.927C27.7777 88.2565 26.073 95.3264 30.4572 98.9013C37.3003 104.487 48.1596 109.853 60.5519 103.016C70.9024 97.307 74.3607 87.4655 75.1946 78.9362C75.9856 70.922 66.7818 66.7217 58.4978 71.2899L58.5039 71.296Z" fill="#C7A516"/>
<path opacity="0.5" d="M75.0291 76.0605C75.8692 79.8377 73.8028 87.0364 72.4844 89.857C69.2591 96.7675 64.0839 102.286 57.0876 104.641C49.9931 107.026 42.8741 106.063 37.8706 103.666C32.9284 101.299 30.4512 98.9075 30.4512 98.9075C30.4512 98.9075 40.7893 101.52 47.4852 100.624C54.1872 99.723 62.1892 96.1053 66.8309 90.366C71.4727 84.6328 72.8523 80.6962 75.023 76.0605H75.0291Z" fill="#987E13"/>
<path d="M126.156 152.463C126.156 154.695 124.329 156.522 122.097 156.522H111.422C109.729 156.522 108.35 155.143 108.35 153.457V119.848C108.35 118.156 109.729 116.776 111.422 116.776H111.624C113.316 116.776 114.696 118.156 114.696 119.848V149.931L122.097 148.404C123.207 148.404 124.225 148.858 124.967 149.594C125.696 150.329 126.156 151.341 126.156 152.463Z" fill="#474747"/>
<path d="M82.9861 119.849V153.457C82.9861 155.143 81.6064 156.523 79.9202 156.523H69.2448C67.0128 156.523 65.1855 154.695 65.1855 152.463C65.1855 151.347 65.6454 150.33 66.3812 149.594C67.1171 148.858 68.1288 148.404 69.2509 148.404L76.6519 149.937V119.849C76.6519 118.162 78.0316 116.783 79.7178 116.783H79.9263C81.6125 116.783 82.9922 118.162 82.9922 119.849H82.9861Z" fill="#474747"/>
<path d="M145.925 103.494C145.925 104.303 145.894 105.113 145.852 105.897C145.845 105.965 145.839 106.026 145.839 106.088C145.318 113.636 142.534 120.375 138.058 126.016C132.509 133.024 124.354 138.322 114.696 141.327C112.648 141.977 110.526 142.51 108.35 142.946C105.357 143.54 102.261 143.921 99.0784 144.08C98.4407 144.117 97.7969 144.141 97.153 144.154C96.6134 144.16 96.0677 144.166 95.522 144.166C94.9763 144.166 94.4367 144.16 93.8971 144.154C90.1444 144.068 86.4899 143.675 82.9887 143.007C80.818 142.59 78.6964 142.063 76.6484 141.425C66.856 138.426 58.6026 133.098 52.9921 126.022C52.9921 126.022 52.9921 126.016 52.9859 126.016C48.4975 120.35 45.7014 113.562 45.2047 105.965C45.2047 105.916 45.1986 105.855 45.1924 105.799C45.1495 105.039 45.125 104.273 45.125 103.494C45.125 102.586 45.1557 101.685 45.217 100.796C46.0938 88.4158 52.9737 77.4338 63.367 69.9775V69.5912C63.3731 68.3097 63.3977 64.226 63.3977 62.3803C63.3977 42.1087 77.7828 27 95.522 27C96.1352 27 96.7483 27.0123 97.3554 27.0613C114.248 28.0547 127.652 42.8138 127.652 62.3803C127.652 64.5816 127.002 69.0149 126.69 69.2969C126.763 69.3398 126.831 69.3828 126.886 69.4196C127.426 69.7629 127.677 69.9775 127.677 69.9775C138.07 77.4092 144.944 88.379 145.827 100.753C145.894 101.66 145.931 102.574 145.931 103.494H145.925Z" fill="#DBBB37"/>
<path d="M101.642 61.7057C101.262 64.6367 98.0245 69.3888 94.6643 69.4133C91.3041 69.4378 87.7538 64.6183 87.5882 61.4604C87.4227 58.3087 89.7834 56.1503 94.7992 56.1196C99.8701 56.089 102.022 58.7747 101.642 61.7057Z" fill="#F5D85D"/>
<path opacity="0.5" d="M101.64 61.7057C101.26 64.6305 98.0287 69.3888 94.6623 69.4133C94.135 69.4133 93.6016 69.3029 93.0742 69.0822C95.8213 67.954 98.1759 64.1768 98.5008 61.7057C98.8381 59.0997 97.1702 56.6899 93.2275 56.2055C93.7181 56.1564 94.2393 56.1258 94.7911 56.1196C99.8682 56.089 102.014 58.7808 101.634 61.7057H101.64Z" fill="#DBBB35"/>
<path d="M111.272 59.2408C114.963 59.2408 117.955 56.2484 117.955 52.5572C117.955 48.8659 114.963 45.8735 111.272 45.8735C107.58 45.8735 104.588 48.8659 104.588 52.5572C104.588 56.2484 107.58 59.2408 111.272 59.2408Z" fill="white"/>
<path d="M111.273 56.1197C113.241 56.1197 114.836 54.5247 114.836 52.5572C114.836 50.5896 113.241 48.9946 111.273 48.9946C109.306 48.9946 107.711 50.5896 107.711 52.5572C107.711 54.5247 109.306 56.1197 111.273 56.1197Z" fill="#040000"/>
<path d="M78.2364 59.2408C81.9276 59.2408 84.92 56.2484 84.92 52.5572C84.92 48.8659 81.9276 45.8735 78.2364 45.8735C74.5451 45.8735 71.5527 48.8659 71.5527 52.5572C71.5527 56.2484 74.5451 59.2408 78.2364 59.2408Z" fill="white"/>
<path d="M78.2364 56.1197C80.2039 56.1197 81.7989 54.5247 81.7989 52.5572C81.7989 50.5896 80.2039 48.9946 78.2364 48.9946C76.2688 48.9946 74.6738 50.5896 74.6738 52.5572C74.6738 54.5247 76.2688 56.1197 78.2364 56.1197Z" fill="#040000"/>
<path d="M161.505 98.907H161.499C161.499 98.907 161.487 98.9315 161.475 98.9377C159.629 100.434 157.501 101.912 155.128 103.15C155.018 103.212 154.902 103.267 154.785 103.328C154.558 103.445 154.325 103.555 154.092 103.671C153.718 103.855 153.332 104.021 152.939 104.18C152.173 104.511 151.376 104.812 150.56 105.063C149.052 105.548 147.482 105.903 145.845 106.087C144.33 106.265 142.773 106.29 141.166 106.13C139.143 105.946 137.034 105.474 134.875 104.64C133.741 104.211 132.588 103.665 131.417 103.021C128.983 101.679 126.928 100.103 125.199 98.3674H125.193C122.642 95.7982 120.797 92.904 119.491 89.8749C119.491 89.8688 119.484 89.8626 119.484 89.8504C119.448 89.7768 119.411 89.6971 119.38 89.6174C119.27 89.3537 119.159 89.09 119.049 88.8264C119.043 88.8202 119.043 88.8019 119.043 88.7957C118.939 88.5259 118.841 88.25 118.736 87.9741C118.724 87.9434 118.712 87.925 118.706 87.9005C117.645 84.902 117.05 81.8362 116.768 78.9297C116.762 78.8684 116.762 78.8132 116.756 78.7519C116.676 77.8137 116.744 76.9369 116.921 76.1091C116.928 76.0846 116.927 76.0662 116.934 76.0416C117.59 73.172 119.705 71.0688 122.514 70.057C123.844 69.5726 125.328 69.3458 126.885 69.4009C129.007 69.4745 131.264 70.0693 133.459 71.2834L135.734 72.5404L158.164 84.9143C164.191 88.2439 165.896 95.3138 161.505 98.8886V98.907Z" fill="#C7A516"/>
<path opacity="0.5" d="M116.935 76.0605C116.095 79.8377 118.162 87.0364 119.48 89.857C122.705 96.7675 127.88 102.286 134.877 104.641C141.971 107.026 149.09 106.063 154.094 103.666C159.036 101.299 161.513 98.9075 161.513 98.9075C161.513 98.9075 151.175 101.52 144.479 100.624C137.777 99.723 129.775 96.1053 125.133 90.366C120.492 84.6328 119.112 80.6962 116.941 76.0605H116.935Z" fill="#987E13"/>
<path d="M134 151.72C134 155.741 116.943 160 96.2321 160C75.5214 160 59 155.741 59 151.72C59 147.699 75.7893 146 96.5 146C117.211 146 134 147.699 134 151.72Z" fill="#B1DCEA"/>
<path d="M53.6247 150.091C55.7961 147.322 63.8287 145.733 64.4283 147.006C65.028 148.279 56.9502 149.245 56.4802 151.542C55.9785 153.993 65.5916 156.725 61.6259 157.2C57.1326 157.737 50.9105 153.553 53.6247 150.091Z" fill="#B1DCEA"/>
<path d="M140.941 149.98C138.757 147.323 130.721 145.763 130.128 146.975C129.536 148.188 137.613 149.154 138.095 151.351C138.61 153.695 129.018 156.254 132.983 156.728C137.477 157.266 143.672 153.302 140.941 149.98Z" fill="#B1DCEA"/>
<circle cx="76" cy="166" r="3" fill="#C7DBFF"/>
<circle cx="87" cy="167" r="3" fill="#C7DBFF"/>
<circle cx="98" cy="167.5" r="3" fill="#C7DBFF"/>
</svg>
