<svg width="200" height="200" viewBox="0 0 200 200" fill="none" xmlns="http://www.w3.org/2000/svg">
<mask id="path-1-outside-1_898_4440" maskUnits="userSpaceOnUse" x="17.0703" y="25.9999" width="165" height="147" fill="black">
<rect fill="white" x="17.0703" y="25.9999" width="165" height="147"/>
<path d="M68.7109 32.3832C79.1145 31.02 89.6376 33.4917 99.6426 36.6566C112.111 40.5869 125.257 40.7865 138.156 39.3754C150.553 38.0201 163.508 34.3924 176 36.6644C162.779 78.1582 174.128 130.091 174.15 130.194C174.087 130.193 149.605 129.958 113.841 138.915C83.2374 146.581 64.223 125.628 36 123.764V163.088C36 164.696 34.3164 166 32.2402 166H31.7598C29.6836 166 28 164.696 28 163.088V48.9769C25.076 47.4993 23.0703 44.4692 23.0703 40.9691C23.0704 36.016 27.0859 32.0004 32.0391 32.0004C36.6476 32.0006 40.4413 35.4773 40.9473 39.9506C42.8684 39.3057 44.5429 38.8043 45.2725 38.5141C52.7982 35.5165 60.675 33.4355 68.7109 32.3832Z"/>
</mask>
<path d="M68.7109 32.3832C79.1145 31.02 89.6376 33.4917 99.6426 36.6566C112.111 40.5869 125.257 40.7865 138.156 39.3754C150.553 38.0201 163.508 34.3924 176 36.6644C162.779 78.1582 174.128 130.091 174.15 130.194C174.087 130.193 149.605 129.958 113.841 138.915C83.2374 146.581 64.223 125.628 36 123.764V163.088C36 164.696 34.3164 166 32.2402 166H31.7598C29.6836 166 28 164.696 28 163.088V48.9769C25.076 47.4993 23.0703 44.4692 23.0703 40.9691C23.0704 36.016 27.0859 32.0004 32.0391 32.0004C36.6476 32.0006 40.4413 35.4773 40.9473 39.9506C42.8684 39.3057 44.5429 38.8043 45.2725 38.5141C52.7982 35.5165 60.675 33.4355 68.7109 32.3832Z" fill="#F05E5E"/>
<path d="M68.7109 32.3832L69.49 38.3324L69.4904 38.3323L68.7109 32.3832ZM99.6426 36.6566L97.833 42.3772L97.8388 42.3791L99.6426 36.6566ZM138.156 39.3754L137.504 33.4109L137.504 33.411L138.156 39.3754ZM176 36.6644L181.717 38.4859C182.241 36.842 182.031 35.0521 181.142 33.5734C180.254 32.0946 178.771 31.07 177.074 30.7613L176 36.6644ZM174.15 130.194L174.091 136.193C175.918 136.211 177.653 135.396 178.806 133.979C179.958 132.561 180.402 130.696 180.012 128.912L174.15 130.194ZM113.841 138.915L112.383 133.095L112.383 133.095L113.841 138.915ZM36 123.764L36.3954 117.777C34.739 117.668 33.1114 118.249 31.8995 119.384C30.6877 120.518 30 122.104 30 123.764H36ZM28 48.9769H34C34 46.7136 32.7263 44.6428 30.7062 43.6219L28 48.9769ZM23.0703 40.9691L17.0703 40.969V40.9691H23.0703ZM32.0391 32.0004L32.0393 26.0004H32.0391V32.0004ZM40.9473 39.9506L34.9853 40.6249C35.1889 42.4255 36.1955 44.0377 37.7239 45.0112C39.2523 45.9847 41.1388 46.2153 42.8567 45.6386L40.9473 39.9506ZM45.2725 38.5141L47.4904 44.0891L47.4927 44.0882L45.2725 38.5141ZM68.7109 32.3832L69.4904 38.3323C78.5282 37.1482 87.9977 39.266 97.833 42.3772L99.6426 36.6566L101.452 30.936C91.2775 27.7174 79.7008 24.8919 67.9314 26.4341L68.7109 32.3832ZM99.6426 36.6566L97.8388 42.3791C111.394 46.6518 125.456 46.8005 138.809 45.3398L138.156 39.3754L137.504 33.411C125.058 34.7724 112.829 34.522 101.446 30.9342L99.6426 36.6566ZM138.156 39.3754L138.808 45.3398C142.064 44.9839 145.325 44.4824 148.473 43.9879C151.664 43.4868 154.726 42.9952 157.785 42.6135C163.904 41.8499 169.563 41.5921 174.926 42.5676L176 36.6644L177.074 30.7613C169.945 29.4647 162.88 29.8848 156.299 30.7058C153.008 31.1165 149.727 31.6439 146.612 32.1332C143.454 32.6291 140.447 33.0892 137.504 33.4109L138.156 39.3754ZM176 36.6644L170.283 34.843C163.343 56.626 162.914 80.8452 164.122 99.3416C165.335 117.926 168.24 131.251 168.289 131.476L174.15 130.194L180.012 128.912C180.038 129.033 177.257 116.341 176.096 98.5596C174.929 80.6905 175.437 58.1966 181.717 38.4859L176 36.6644ZM174.15 130.194L174.209 124.194C173.79 124.19 148.774 123.981 112.383 133.095L113.841 138.915L115.298 144.736C150.436 135.936 174.383 136.196 174.091 136.193L174.15 130.194ZM113.841 138.915L112.383 133.095C98.846 136.486 87.8375 133.658 76.1235 129.291C64.6778 125.025 51.6499 118.785 36.3954 117.777L36 123.764L35.6046 129.751C48.5732 130.608 59.1639 135.776 71.932 140.536C84.4319 145.195 98.2322 149.011 115.299 144.736L113.841 138.915ZM36 123.764H30V163.088H36H42V123.764H36ZM36 163.088H30C30 161.662 30.7617 160.762 31.2245 160.404C31.68 160.051 32.059 160 32.2402 160V166V172C36.1143 172 42 169.345 42 163.088H36ZM32.2402 166V160H31.7598V166V172H32.2402V166ZM31.7598 166V160C31.941 160 32.32 160.051 32.7755 160.404C33.2383 160.762 34 161.662 34 163.088H28H22C22 169.345 27.8857 172 31.7598 172V166ZM28 163.088H34V48.9769H28H22V163.088H28ZM28 48.9769L30.7062 43.6219C29.7216 43.1243 29.0703 42.1169 29.0703 40.9691H23.0703H17.0703C17.0703 46.8216 20.4303 51.8742 25.2938 54.332L28 48.9769ZM23.0703 40.9691L29.0703 40.9693C29.0704 39.3296 30.3997 38.0004 32.0391 38.0004V32.0004V26.0004C23.772 26.0004 17.0705 32.7024 17.0703 40.969L23.0703 40.9691ZM32.0391 32.0004L32.0388 38.0004C33.5572 38.0004 34.8182 39.1476 34.9853 40.6249L40.9473 39.9506L46.9093 39.2763C46.0644 31.807 39.738 26.0007 32.0393 26.0004L32.0391 32.0004ZM40.9473 39.9506L42.8567 45.6386C44.3783 45.1279 46.5751 44.4532 47.4904 44.0891L45.2725 38.5141L43.0545 32.939C42.5108 33.1554 41.3586 33.4835 39.0378 34.2625L40.9473 39.9506ZM45.2725 38.5141L47.4927 44.0882C54.5692 41.2695 61.9627 39.3181 69.49 38.3324L68.7109 32.3832L67.9319 26.434C59.3873 27.5529 51.0271 29.7635 43.0523 32.9399L45.2725 38.5141Z" fill="white" mask="url(#path-1-outside-1_898_4440)"/>
<path d="M32.0387 45.1468C32.0387 42.245 43.0483 39.3989 45.2725 38.514C52.7982 35.5165 60.6747 33.4357 68.7107 32.3834C79.1144 31.0202 89.6376 33.4915 99.6427 36.6565C112.111 40.5867 125.257 40.7861 138.156 39.375C150.553 38.0197 163.508 34.3924 176 36.6644C162.766 78.1994 174.151 130.194 174.151 130.194C174.151 130.194 149.652 129.947 113.841 138.915C81.8249 146.935 62.4924 123.633 32.0308 123.633C32.0308 107.449 32.0308 45.1628 32.0308 45.1468H32.0387Z" fill="#4E90CD"/>
<mask id="path-4-outside-2_898_4440" maskUnits="userSpaceOnUse" x="100.971" y="65.6006" width="54" height="48" fill="black">
<rect fill="white" x="100.971" y="65.6006" width="54" height="48"/>
<path d="M130.79 68.6006C142.211 68.6006 151.469 77.8594 151.47 89.2803C151.47 100.701 142.211 109.961 130.79 109.961C122.151 109.961 114.75 104.662 111.657 97.1377C111.331 97.2041 110.993 97.2408 110.645 97.2451L110.637 97.2529C108.046 97.2848 104.004 94.3585 103.972 91.7676C103.941 89.2302 107.756 86.2891 110.347 86.1387C111.86 76.2086 120.437 68.6006 130.79 68.6006Z"/>
</mask>
<path d="M130.79 68.6006C142.211 68.6006 151.469 77.8594 151.47 89.2803C151.47 100.701 142.211 109.961 130.79 109.961C122.151 109.961 114.75 104.662 111.657 97.1377C111.331 97.2041 110.993 97.2408 110.645 97.2451L110.637 97.2529C108.046 97.2848 104.004 94.3585 103.972 91.7676C103.941 89.2302 107.756 86.2891 110.347 86.1387C111.86 76.2086 120.437 68.6006 130.79 68.6006Z" fill="#E8BE0F"/>
<path d="M130.79 68.6006L130.79 65.6006H130.79V68.6006ZM151.47 89.2803L154.47 89.2803L154.47 89.2802L151.47 89.2803ZM130.79 109.961L130.79 112.961L130.79 112.961L130.79 109.961ZM111.657 97.1377L114.432 95.997L113.489 93.7026L111.058 94.1982L111.657 97.1377ZM110.645 97.2451L110.608 94.2453L109.387 94.2604L108.523 95.1238L110.645 97.2451ZM110.637 97.2529L110.674 100.253L111.895 100.238L112.758 99.3743L110.637 97.2529ZM103.972 91.7676L100.972 91.8039L100.972 91.8045L103.972 91.7676ZM110.347 86.1387L110.521 89.1336L112.946 88.9928L113.312 86.5907L110.347 86.1387ZM130.79 68.6006L130.79 71.6006C140.554 71.6006 148.47 79.5162 148.47 89.2803L151.47 89.2803L154.47 89.2802C154.469 76.2026 143.868 65.6006 130.79 65.6006L130.79 68.6006ZM151.47 89.2803H148.47C148.47 99.0447 140.554 106.961 130.79 106.961L130.79 109.961L130.79 112.961C143.868 112.961 154.47 102.358 154.47 89.2803H151.47ZM130.79 109.961V106.961C123.409 106.961 117.079 102.436 114.432 95.997L111.657 97.1377L108.883 98.2784C112.422 106.888 120.892 112.961 130.79 112.961V109.961ZM111.657 97.1377L111.058 94.1982C110.919 94.2265 110.769 94.2434 110.608 94.2453L110.645 97.2451L110.682 100.245C111.217 100.238 111.744 100.182 112.257 100.077L111.657 97.1377ZM110.645 97.2451L108.523 95.1238L108.515 95.1316L110.637 97.2529L112.758 99.3743L112.766 99.3664L110.645 97.2451ZM110.637 97.2529L110.6 94.2532C110.486 94.2546 110.164 94.2146 109.662 94.005C109.183 93.8051 108.667 93.503 108.198 93.1347C107.724 92.7625 107.373 92.3813 107.161 92.0623C106.938 91.726 106.97 91.6172 106.971 91.7307L103.972 91.7676L100.972 91.8045C101.005 94.4969 102.943 96.6363 104.491 97.8529C106.118 99.1307 108.431 100.28 110.674 100.253L110.637 97.2529ZM103.972 91.7676L106.971 91.7312C106.973 91.8453 106.938 91.7463 107.14 91.42C107.333 91.1094 107.658 90.7317 108.107 90.3539C109.088 89.5287 110.093 89.1585 110.521 89.1336L110.347 86.1387L110.173 83.1437C108.01 83.2693 105.811 84.4448 104.245 85.7621C102.764 87.0078 100.94 89.1569 100.972 91.8039L103.972 91.7676ZM110.347 86.1387L113.312 86.5907C114.606 78.1039 121.942 71.6006 130.79 71.6006V68.6006V65.6006C118.933 65.6006 109.115 74.3133 107.381 85.6866L110.347 86.1387Z" fill="white" mask="url(#path-4-outside-2_898_4440)"/>
<path d="M130.79 109.961C142.211 109.961 151.47 100.702 151.47 89.2807C151.47 77.8596 142.211 68.601 130.79 68.601C119.369 68.601 110.11 77.8596 110.11 89.2807C110.11 100.702 119.369 109.961 130.79 109.961Z" fill="#4B98E6"/>
<path d="M125.68 90.3889C128.964 90.3889 131.627 87.7262 131.627 84.4416C131.627 81.1571 128.964 78.4944 125.68 78.4944C122.395 78.4944 119.732 81.1571 119.732 84.4416C119.732 87.7262 122.395 90.3889 125.68 90.3889Z" fill="white"/>
<path d="M125.5 88C127.433 88 129 86.433 129 84.5C129 82.567 127.433 81 125.5 81C123.567 81 122 82.567 122 84.5C122 86.433 123.567 88 125.5 88Z" fill="black"/>
<path d="M110.636 97.253C108.045 97.2848 104.003 94.3591 103.972 91.7681C103.94 89.1772 107.918 86.1637 110.509 86.1318C113.1 86.0999 115.22 87.7741 115.268 91.6326C115.316 95.4911 113.235 97.2131 110.644 97.245L110.636 97.253Z" fill="#E8BE0F"/>
<path d="M32.2407 36H31.7593C29.6831 36 28 37.3035 28 38.9113V163.089C28 164.697 29.6831 166 31.7593 166H32.2407C34.3169 166 36 164.697 36 163.089V38.9113C36 37.3035 34.3169 36 32.2407 36Z" fill="#215A93"/>
<path d="M32.0387 49.9381C36.992 49.9381 41.0074 45.9227 41.0074 40.9694C41.0074 36.0161 36.992 32.0007 32.0387 32.0007C27.0854 32.0007 23.07 36.0161 23.07 40.9694C23.07 45.9227 27.0854 49.9381 32.0387 49.9381Z" fill="#90C6FD"/>
<path d="M74.3372 72.1831C79.5969 67.966 87.3028 68.2991 92.1878 73.1753L92.1888 73.1763C97.4223 78.4098 97.4223 86.8939 92.1888 92.1274L91.7493 92.5669H91.7396C90.5363 93.7643 87.0803 97.2022 83.6526 100.612C81.5676 102.686 79.4914 104.751 77.9368 106.297C77.1596 107.071 76.5125 107.714 76.0599 108.165C75.8336 108.39 75.6556 108.567 75.5345 108.687C75.474 108.747 75.428 108.794 75.3968 108.825C75.3811 108.84 75.3686 108.852 75.3607 108.86L75.3489 108.872L74.2884 109.926L73.2308 108.869L56.4886 92.1274C51.2551 86.8939 51.2551 78.4098 56.4886 73.1763C61.3671 68.2978 69.0719 67.9679 74.3372 72.1831Z" fill="#F05E5E" stroke="white" stroke-width="3" stroke-miterlimit="10"/>
</svg>
