<svg width="200" height="200" viewBox="0 0 200 200" fill="none" xmlns="http://www.w3.org/2000/svg">
<mask id="path-1-outside-1_1347_6307" maskUnits="userSpaceOnUse" x="13.1865" y="26.5752" width="174" height="148" fill="black">
<rect fill="white" x="13.1865" y="26.5752" width="174" height="148"/>
<path d="M135.415 41.9629C138 38 145.934 29.9118 154.159 35.458C162.384 41.0042 162.768 51.7915 154.697 58.793C152.227 60.9362 148.316 64.6121 143.902 68.8633C167.164 72.09 178.168 78.2776 180.126 85.9834C181.277 90.5088 183.581 120.893 161.568 146.129C149.377 160.095 124.004 168.914 97.7236 167.925C71.4439 166.936 51.4902 160 36.7383 143.054C16.9742 120.337 18.4644 86.8499 20.0088 83.3955C23.9645 74.5498 51.057 66.449 100.799 66.4219C107.107 66.4219 112.991 66.5364 118.466 66.7539C126.693 54.7925 134.47 43.411 135.415 41.9629Z"/>
</mask>
<path d="M135.415 41.9629C138 38 145.934 29.9118 154.159 35.458C162.384 41.0042 162.768 51.7915 154.697 58.793C152.227 60.9362 148.316 64.6121 143.902 68.8633C167.164 72.09 178.168 78.2776 180.126 85.9834C181.277 90.5088 183.581 120.893 161.568 146.129C149.377 160.095 124.004 168.914 97.7236 167.925C71.4439 166.936 51.4902 160 36.7383 143.054C16.9742 120.337 18.4644 86.8499 20.0088 83.3955C23.9645 74.5498 51.057 66.449 100.799 66.4219C107.107 66.4219 112.991 66.5364 118.466 66.7539C126.693 54.7925 134.47 43.411 135.415 41.9629Z" fill="black"/>
<path d="M135.415 41.9629L130.39 38.6848L130.39 38.6848L135.415 41.9629ZM154.159 35.458L157.514 30.4833L157.514 30.4833L154.159 35.458ZM154.697 58.793L158.629 63.3253L158.629 63.3252L154.697 58.793ZM143.902 68.8633L139.74 64.5416C138.085 66.1353 137.486 68.5339 138.196 70.7186C138.907 72.9034 140.802 74.4907 143.078 74.8064L143.902 68.8633ZM180.126 85.9834L174.311 87.4612L174.311 87.463L180.126 85.9834ZM161.568 146.129L166.088 150.075L166.09 150.073L161.568 146.129ZM97.7236 167.925L97.498 173.921H97.498L97.7236 167.925ZM36.7383 143.054L32.2116 146.992L32.2128 146.993L36.7383 143.054ZM20.0088 83.3955L14.5315 80.9461L14.5313 80.9467L20.0088 83.3955ZM100.799 66.4219V60.4219H100.796L100.799 66.4219ZM118.466 66.7539L118.228 72.7492C120.286 72.8309 122.242 71.8513 123.409 70.1542L118.466 66.7539ZM135.415 41.9629L140.44 45.241C141.366 43.8225 143.326 41.6258 145.551 40.4085C147.499 39.3432 149.044 39.2458 150.805 40.4328L154.159 35.458L157.514 30.4833C151.049 26.124 144.515 27.2976 139.793 29.8806C135.348 32.3116 132.049 36.1404 130.39 38.6848L135.415 41.9629ZM154.159 35.458L150.805 40.4327C153.379 42.1687 154.481 44.4945 154.541 46.7418C154.603 49.0264 153.591 51.8094 150.766 54.2607L154.697 58.793L158.629 63.3252C163.874 58.7751 166.706 52.6637 166.537 46.4177C166.367 40.1345 163.164 34.2935 157.514 30.4833L154.159 35.458ZM154.697 58.793L150.766 54.2606C148.163 56.518 144.151 60.2933 139.74 64.5416L143.902 68.8633L148.064 73.1849C152.482 68.9309 156.29 65.3544 158.629 63.3253L154.697 58.793ZM143.902 68.8633L143.078 74.8064C154.411 76.3785 162.263 78.6148 167.348 81.1241C172.475 83.6546 173.943 86.0137 174.311 87.4612L180.126 85.9834L185.941 84.5056C184.351 78.2473 179.338 73.6597 172.658 70.3633C165.936 67.0456 156.655 64.5748 144.727 62.9202L143.902 68.8633ZM180.126 85.9834L174.311 87.463C174.625 88.6943 175.55 96.5253 173.628 107.229C171.74 117.743 167.18 130.568 157.047 142.185L161.568 146.129L166.09 150.073C177.969 136.454 183.263 121.468 185.439 109.35C187.581 97.4215 186.779 87.7978 185.941 84.5038L180.126 85.9834ZM161.568 146.129L157.048 142.183C146.461 154.311 123.158 162.878 97.9492 161.929L97.7236 167.925L97.498 173.921C124.85 174.95 152.292 165.879 166.088 150.075L161.568 146.129ZM97.7236 167.925L97.9493 161.929C72.6502 160.977 54.5522 154.379 41.2638 139.114L36.7383 143.054L32.2128 146.993C48.4283 165.621 70.2376 172.895 97.498 173.921L97.7236 167.925ZM36.7383 143.054L41.2649 139.115C32.3655 128.886 28.1028 116.026 26.3041 105.032C25.4108 99.5719 25.1474 94.7014 25.1915 91.0523C25.2136 89.2247 25.3121 87.7561 25.4335 86.7114C25.5859 85.4001 25.7107 85.3424 25.4863 85.8444L20.0088 83.3955L14.5313 80.9467C13.9208 82.3122 13.6612 84.0566 13.5137 85.3265C13.3352 86.863 13.2184 88.7548 13.1924 90.9073C13.1403 95.2184 13.45 100.787 14.4616 106.97C16.4727 119.262 21.347 134.504 32.2116 146.992L36.7383 143.054ZM20.0088 83.3955L25.4861 85.8449C25.641 85.4984 26.6012 84.1354 30.063 82.3445C33.3399 80.6493 38.132 78.9475 44.5924 77.4459C57.4851 74.4494 76.2047 72.4353 100.802 72.4219L100.799 66.4219L100.796 60.4219C75.6512 60.4356 55.9536 62.4855 41.8757 65.7575C34.8508 67.3903 29.0191 69.3739 24.5492 71.6863C20.2642 73.903 16.3544 76.8698 14.5315 80.9461L20.0088 83.3955ZM100.799 66.4219V72.4219C107.035 72.4219 112.839 72.5351 118.228 72.7492L118.466 66.7539L118.704 60.7586C113.142 60.5377 107.179 60.4219 100.799 60.4219V66.4219ZM118.466 66.7539L123.409 70.1542C131.606 58.2376 139.444 46.7689 140.44 45.2409L135.415 41.9629L130.39 38.6848C129.497 40.0531 121.781 51.3473 113.522 63.3536L118.466 66.7539Z" fill="white" mask="url(#path-1-outside-1_1347_6307)"/>
<path d="M20.0089 83.396C18.4646 86.8503 16.9745 120.337 36.7386 143.054C51.4906 160.001 71.4443 166.936 97.7243 167.925C124.004 168.914 149.377 160.095 161.568 146.129C183.581 120.892 181.278 90.5077 180.127 85.9833C177.214 74.523 154.294 66.4224 100.799 66.4224C51.0571 66.4494 23.9643 74.5502 20.0089 83.396Z" fill="#4B9AE8"/>
<path d="M114.191 125.924C113.812 130.956 107.031 138.341 101.633 137.988C96.2348 137.635 90.6348 129.433 91.0187 124.401C91.3976 119.369 95.2408 115.521 103.296 116.048C111.445 116.585 114.575 120.892 114.191 125.924Z" fill="#EAC00F"/>
<path d="M58.4551 149.367C56.3283 151.927 43.6895 144.612 35.2772 127.517C27.908 112.548 28.0977 104.42 29.4794 103.133C31.2946 101.44 36.6048 103.011 37.8105 106.872C39.436 112.074 39.3819 118.102 45.0578 129.21C53.6868 146.102 60.2703 147.186 58.4551 149.367Z" fill="#D7E8FC"/>
<path d="M29.8437 85.915C30.6022 94.1242 58.0065 99.0821 101.355 99.8136C144.703 100.545 172.134 94.5035 172.134 86.8226C172.134 79.1417 143.416 73.6556 103.184 73.2898C62.9509 72.924 29.1121 78.0582 29.8437 85.915Z" fill="#276288"/>
<path d="M135.415 41.9632C133.358 45.1163 98.9245 95.371 97.9299 96.1362C99.5624 99.63 112.043 100.581 117 95.5003C123.197 89.1494 146.626 65.7951 154.697 58.7936C162.768 51.7922 162.385 41.0042 154.159 35.458C145.934 29.9118 138 38.0004 135.415 41.9632Z" fill="#EFA373"/>
<path d="M130.02 68.9437C123.942 66.1404 117.444 67.0253 114.954 67.8182C105.5 75.5001 91.7607 92.6158 88 99.5001C96.1704 100.659 116.975 100.189 118.973 100.205C121.48 100.225 136.328 82.3361 136.542 80.688C136.757 79.04 137.616 72.4479 130.02 68.9437Z" fill="#CD6D31"/>
<path d="M61.021 125.042C66.0032 125.042 70.042 121.003 70.042 116.021C70.042 111.039 66.0032 107 61.021 107C56.0388 107 52 111.039 52 116.021C52 121.003 56.0388 125.042 61.021 125.042Z" fill="white"/>
<path d="M60.8809 121.494C63.8678 121.494 66.2892 119.073 66.2892 116.086C66.2892 113.099 63.8678 110.678 60.8809 110.678C57.894 110.678 55.4727 113.099 55.4727 116.086C55.4727 119.073 57.894 121.494 60.8809 121.494Z" fill="black"/>
<path d="M144.021 125.042C149.003 125.042 153.042 121.003 153.042 116.021C153.042 111.039 149.003 107 144.021 107C139.039 107 135 111.039 135 116.021C135 121.003 139.039 125.042 144.021 125.042Z" fill="white"/>
<path d="M143.881 121.494C146.868 121.494 149.289 119.073 149.289 116.086C149.289 113.099 146.868 110.678 143.881 110.678C140.894 110.678 138.473 113.099 138.473 116.086C138.473 119.073 140.894 121.494 143.881 121.494Z" fill="black"/>
</svg>
