<svg width="200" height="200" viewBox="0 0 200 200" fill="none" xmlns="http://www.w3.org/2000/svg">
<mask id="path-1-outside-1_1062_22354" maskUnits="userSpaceOnUse" x="14.7969" y="26.9297" width="173" height="156" fill="black">
<rect fill="white" x="14.7969" y="26.9297" width="173" height="156"/>
<path d="M50.2746 73.1157C45.8944 59.061 52.9321 23.0356 62.2102 37.1489C67.8789 45.7785 74.2448 57.4129 81.5119 66.1489C82.6272 64.123 83.9067 62.1402 85.3547 60.228C99.1597 42.0131 122.091 38.014 137.689 49.8403C141.355 52.6204 144.29 56.0271 146.455 59.8481C151.439 58.8833 159.816 62.0866 161.21 66.7007C162.665 71.5459 156.844 79.3591 151.996 80.8237L151.998 80.8149C151.574 80.9436 151.149 81.0443 150.726 81.1196C150.112 87.1805 148.061 93.3553 144.489 99.1675C154.705 99.9305 165.748 99.3777 174.676 98.4438C191.476 96.6858 171.849 126.953 154.405 130.46C150.47 132.05 144.542 132.68 138.48 131.356C137.294 138.058 134.61 144.46 130.335 150.1C116.687 168.109 92.5787 170.789 70.886 160.076L68.3791 166.49L72.4387 173.168C73.0641 174.198 72.7363 175.539 71.7073 176.165C70.7426 176.751 69.5036 176.5 68.8371 175.619L68.7121 175.434L66.2951 171.458L65.4934 173.337C65.0205 174.445 63.7404 174.959 62.633 174.487C61.5254 174.014 61.0098 172.732 61.4826 171.624L62.7629 168.625L60.1116 168.409C58.9116 168.31 58.0181 167.256 58.1164 166.056C58.2153 164.857 59.2683 163.964 60.468 164.062L64.5149 164.393L67.0129 158.003C64.459 156.531 61.9487 154.872 59.508 153.023C52.0002 147.334 46.02 140.548 41.8332 133.258L32.8977 138.014L34.1233 144.692L34.1516 144.915C34.2397 146.016 33.4816 147.027 32.3713 147.231C31.187 147.448 30.0506 146.663 29.8332 145.479L28.967 140.755L26.7805 142.45C25.8282 143.187 24.458 143.012 23.7209 142.06C22.9843 141.108 23.1589 139.739 24.1106 139.001L26.9543 136.799L22.6037 133.273L22.4377 133.124C21.6544 132.344 21.5729 131.083 22.2834 130.207C22.9942 129.33 24.2449 129.148 25.1692 129.753L25.3498 129.885L30.717 134.235L39.8078 129.397C32.5941 114.274 32.9677 97.502 43.1672 84.0434L43.1584 84.0405C45.5531 80.8797 48.3112 78.1348 51.3518 75.813C50.9048 74.8845 50.5436 73.9792 50.2746 73.1157Z"/>
</mask>
<path d="M50.2746 73.1157C45.8944 59.061 52.9321 23.0356 62.2102 37.1489C67.8789 45.7785 74.2448 57.4129 81.5119 66.1489C82.6272 64.123 83.9067 62.1402 85.3547 60.228C99.1597 42.0131 122.091 38.014 137.689 49.8403C141.355 52.6204 144.29 56.0271 146.455 59.8481C151.439 58.8833 159.816 62.0866 161.21 66.7007C162.665 71.5459 156.844 79.3591 151.996 80.8237L151.998 80.8149C151.574 80.9436 151.149 81.0443 150.726 81.1196C150.112 87.1805 148.061 93.3553 144.489 99.1675C154.705 99.9305 165.748 99.3777 174.676 98.4438C191.476 96.6858 171.849 126.953 154.405 130.46C150.47 132.05 144.542 132.68 138.48 131.356C137.294 138.058 134.61 144.46 130.335 150.1C116.687 168.109 92.5787 170.789 70.886 160.076L68.3791 166.49L72.4387 173.168C73.0641 174.198 72.7363 175.539 71.7073 176.165C70.7426 176.751 69.5036 176.5 68.8371 175.619L68.7121 175.434L66.2951 171.458L65.4934 173.337C65.0205 174.445 63.7404 174.959 62.633 174.487C61.5254 174.014 61.0098 172.732 61.4826 171.624L62.7629 168.625L60.1116 168.409C58.9116 168.31 58.0181 167.256 58.1164 166.056C58.2153 164.857 59.2683 163.964 60.468 164.062L64.5149 164.393L67.0129 158.003C64.459 156.531 61.9487 154.872 59.508 153.023C52.0002 147.334 46.02 140.548 41.8332 133.258L32.8977 138.014L34.1233 144.692L34.1516 144.915C34.2397 146.016 33.4816 147.027 32.3713 147.231C31.187 147.448 30.0506 146.663 29.8332 145.479L28.967 140.755L26.7805 142.45C25.8282 143.187 24.458 143.012 23.7209 142.06C22.9843 141.108 23.1589 139.739 24.1106 139.001L26.9543 136.799L22.6037 133.273L22.4377 133.124C21.6544 132.344 21.5729 131.083 22.2834 130.207C22.9942 129.33 24.2449 129.148 25.1692 129.753L25.3498 129.885L30.717 134.235L39.8078 129.397C32.5941 114.274 32.9677 97.502 43.1672 84.0434L43.1584 84.0405C45.5531 80.8797 48.3112 78.1348 51.3518 75.813C50.9048 74.8845 50.5436 73.9792 50.2746 73.1157Z" fill="#EAC00F"/>
<path d="M50.2746 73.1157L56.0031 71.3312L56.0029 71.3304L50.2746 73.1157ZM62.2102 37.1489L67.225 33.8547L67.2238 33.8529L62.2102 37.1489ZM81.5119 66.1489L76.8993 69.986C78.1679 71.5111 80.1083 72.3105 82.0831 72.1217C84.0578 71.9328 85.8115 70.7802 86.7682 69.0423L81.5119 66.1489ZM85.3547 60.228L80.5729 56.6039L80.5715 56.6058L85.3547 60.228ZM137.689 49.8403L141.314 45.0592L141.314 45.0592L137.689 49.8403ZM146.455 59.8481L141.235 62.8064C142.506 65.0482 145.066 66.2285 147.596 65.7388L146.455 59.8481ZM161.21 66.7007L166.957 64.9747L166.954 64.9653L161.21 66.7007ZM151.996 80.8237L146.139 79.5221C145.677 81.6026 146.353 83.7722 147.915 85.2219C149.477 86.6716 151.691 87.1837 153.732 86.5673L151.996 80.8237ZM151.998 80.8149L157.855 82.1165C158.318 80.0351 157.641 77.8646 156.078 76.415C154.514 74.9653 152.299 74.4544 150.258 75.0729L151.998 80.8149ZM150.726 81.1196L149.674 75.2126C147.034 75.6828 145.027 77.8472 144.756 80.5147L150.726 81.1196ZM144.489 99.1675L139.377 96.0264C138.282 97.8098 138.194 100.035 139.147 101.899C140.1 103.762 141.955 104.995 144.043 105.151L144.489 99.1675ZM174.676 98.4438L175.3 104.411L175.3 104.411L174.676 98.4438ZM154.405 130.46L153.223 124.578C152.859 124.651 152.503 124.758 152.158 124.897L154.405 130.46ZM138.48 131.356L139.76 125.494C138.165 125.146 136.496 125.462 135.14 126.371C133.783 127.28 132.856 128.703 132.571 130.311L138.48 131.356ZM130.335 150.1L125.554 146.476L125.553 146.476L130.335 150.1ZM70.886 160.076L73.5428 154.696C72.0355 153.952 70.2851 153.874 68.7177 154.481C67.1503 155.089 65.9096 156.326 65.2976 157.892L70.886 160.076ZM68.3791 166.49L62.7908 164.306C62.1099 166.048 62.2804 168.008 63.252 169.606L68.3791 166.49ZM72.4387 173.168L77.5661 170.052L77.5658 170.052L72.4387 173.168ZM71.7073 176.165L74.8227 181.292L74.8236 181.292L71.7073 176.165ZM68.8371 175.619L63.8692 178.983C63.9278 179.07 63.9885 179.154 64.0515 179.238L68.8371 175.619ZM68.7121 175.434L63.5853 178.551C63.6362 178.635 63.6892 178.717 63.7442 178.799L68.7121 175.434ZM66.2951 171.458L71.422 168.342C70.2539 166.42 68.1096 165.313 65.8667 165.474C63.6239 165.634 61.6591 167.035 60.7766 169.104L66.2951 171.458ZM65.4934 173.337L71.0112 175.694L71.012 175.692L65.4934 173.337ZM62.633 174.487L60.2774 180.005L60.279 180.006L62.633 174.487ZM61.4826 171.624L55.9644 169.269L55.9644 169.269L61.4826 171.624ZM62.7629 168.625L68.2811 170.981C69.0384 169.207 68.8967 167.177 67.9003 165.526C66.9039 163.874 65.1743 162.803 63.2519 162.645L62.7629 168.625ZM60.1116 168.409L59.6197 174.388L59.6226 174.389L60.1116 168.409ZM58.1164 166.056L52.1367 165.563L52.1365 165.566L58.1164 166.056ZM60.468 164.062L60.9572 158.082L60.9569 158.082L60.468 164.062ZM64.5149 164.393L64.0257 170.373C66.6674 170.589 69.1379 169.046 70.103 166.578L64.5149 164.393ZM67.0129 158.003L72.601 160.188C73.6813 157.425 72.5799 154.287 70.0097 152.805L67.0129 158.003ZM59.508 153.023L55.8844 157.805L55.885 157.806L59.508 153.023ZM41.8332 133.258L47.0361 130.27C45.4232 127.462 41.8729 126.44 39.0142 127.962L41.8332 133.258ZM32.8977 138.014L30.0787 132.718C27.7712 133.946 26.5244 136.526 26.9963 139.097L32.8977 138.014ZM34.1233 144.692L40.0753 143.935C40.0614 143.826 40.0446 143.717 40.0247 143.609L34.1233 144.692ZM34.1516 144.915L40.1325 144.436C40.125 144.343 40.1154 144.25 40.1036 144.157L34.1516 144.915ZM32.3713 147.231L33.4525 153.133L33.4537 153.133L32.3713 147.231ZM29.8332 145.479L23.9316 146.561L23.9319 146.562L29.8332 145.479ZM28.967 140.755L34.8686 139.673C34.4908 137.613 33.0658 135.899 31.1092 135.151C29.1526 134.403 26.9476 134.73 25.2919 136.013L28.967 140.755ZM26.7805 142.45L30.4525 147.195L30.4556 147.192L26.7805 142.45ZM23.7209 142.06L18.9754 145.732L18.9768 145.733L23.7209 142.06ZM24.1106 139.001L20.437 134.258L20.4364 134.258L24.1106 139.001ZM26.9543 136.799L30.6279 141.543C32.0769 140.421 32.9336 138.698 32.954 136.866C32.9743 135.033 32.1561 133.292 30.7324 132.138L26.9543 136.799ZM22.6037 133.273L18.59 137.733C18.6668 137.802 18.7454 137.869 18.8257 137.934L22.6037 133.273ZM22.4377 133.124L18.2066 137.378C18.2773 137.448 18.3498 137.517 18.4239 137.583L22.4377 133.124ZM22.2834 130.207L17.623 126.428L17.6218 126.429L22.2834 130.207ZM25.1692 129.753L28.706 124.907C28.6238 124.847 28.5401 124.789 28.455 124.733L25.1692 129.753ZM25.3498 129.885L29.1275 125.224C29.0488 125.16 28.9685 125.098 28.8866 125.038L25.3498 129.885ZM30.717 134.235L26.9393 138.896C28.8112 140.413 31.4089 140.663 33.5358 139.532L30.717 134.235ZM39.8078 129.397L42.6266 134.694C45.4613 133.185 46.6058 129.712 45.2233 126.814L39.8078 129.397ZM43.1672 84.0434L47.9491 87.6674C49.1172 86.1261 49.4708 84.1162 48.8988 82.2688C48.3267 80.4213 46.8993 78.9629 45.0646 78.3513L43.1672 84.0434ZM43.1584 84.0405L38.3759 80.4173C37.2082 81.9587 36.8549 83.9684 37.427 85.8156C37.9991 87.6628 39.4265 89.1211 41.2611 89.7326L43.1584 84.0405ZM51.3518 75.813L54.9932 80.5816C57.2555 78.8541 57.9926 75.7749 56.7579 73.2102L51.3518 75.813ZM50.2746 73.1157L56.0029 71.3304C55.1995 68.7526 54.8049 64.6423 54.9829 59.8024C55.1573 55.0589 55.8619 50.1225 56.9224 46.0984C57.4529 44.0857 58.04 42.4256 58.6265 41.1841C58.9172 40.5687 59.1802 40.1152 59.3968 39.7994C59.6199 39.474 59.7347 39.3812 59.7019 39.4091C59.5162 39.567 58.4391 40.2265 57.0485 39.7878C56.1729 39.5115 56.3277 39.1233 57.1965 40.4449L62.2102 37.1489L67.2238 33.8529C65.7731 31.6462 63.6784 29.2965 60.6591 28.3439C57.1249 27.2288 54.01 28.4972 51.9283 30.2674C50.0426 31.8709 48.7226 34.0553 47.7764 36.0581C46.7862 38.1542 45.974 40.5535 45.3186 43.0403C44.0075 48.0152 43.1941 53.8383 42.991 59.3614C42.7914 64.7881 43.1597 70.4515 44.5464 74.901L50.2746 73.1157ZM62.2102 37.1489L57.1954 40.4431C62.4475 48.4386 69.358 60.9206 76.8993 69.986L81.5119 66.1489L86.1246 62.3118C79.1315 53.9053 73.3103 43.1185 67.225 33.8547L62.2102 37.1489ZM81.5119 66.1489L86.7682 69.0423C87.7461 67.2659 88.8681 65.5271 90.1379 63.8503L85.3547 60.228L80.5715 56.6058C78.9452 58.7532 77.5083 60.9801 76.2557 63.2555L81.5119 66.1489ZM85.3547 60.228L90.1365 63.8521C102.305 47.7967 121.564 45.1441 134.064 54.6215L137.689 49.8403L141.314 45.0592C122.617 30.8838 96.0145 36.2296 80.5729 56.6039L85.3547 60.228ZM137.689 49.8403L134.064 54.6214C137.07 56.9011 139.466 59.684 141.235 62.8064L146.455 59.8481L151.675 56.8899C149.114 52.3701 145.641 48.3398 141.314 45.0592L137.689 49.8403ZM146.455 59.8481L147.596 65.7388C148.546 65.5548 150.625 65.7449 152.787 66.6849C153.789 67.1206 154.556 67.6133 155.049 68.0479C155.566 68.5036 155.538 68.6739 155.467 68.436L161.21 66.7007L166.954 64.9653C165.479 60.0857 160.975 57.1594 157.571 55.6798C153.95 54.1057 149.349 53.1766 145.315 53.9575L146.455 59.8481ZM161.21 66.7007L155.464 68.4266C155.39 68.1793 155.519 68.3331 155.304 69.0736C155.1 69.7744 154.677 70.6761 154.018 71.6378C153.366 72.5886 152.589 73.4447 151.822 74.0903C151.016 74.7683 150.453 75.022 150.261 75.0801L151.996 80.8237L153.732 86.5673C157.962 85.2892 161.622 81.7692 163.916 78.4221C166.097 75.24 168.488 70.0743 166.957 64.9747L161.21 66.7007ZM151.996 80.8237L157.853 82.1253L157.855 82.1165L151.998 80.8149L146.141 79.5133L146.139 79.5221L151.996 80.8237ZM151.998 80.8149L150.258 75.0729C150.066 75.131 149.871 75.1774 149.674 75.2126L150.726 81.1196L151.778 87.0266C152.427 86.9111 153.082 86.7561 153.739 86.557L151.998 80.8149ZM150.726 81.1196L144.756 80.5147C144.236 85.6467 142.491 90.9584 139.377 96.0264L144.489 99.1675L149.602 102.309C153.63 95.7522 155.987 88.7143 156.695 81.7245L150.726 81.1196ZM144.489 99.1675L144.043 105.151C154.732 105.949 166.157 105.368 175.3 104.411L174.676 98.4438L174.052 92.4764C165.339 93.3877 154.677 93.9118 144.936 93.1841L144.489 99.1675ZM174.676 98.4438L175.3 104.411C176.715 104.263 176.673 104.586 176.101 104.219C175.269 103.685 175.085 102.875 175.076 102.776C175.076 102.776 175.077 102.788 175.077 102.813C175.078 102.838 175.077 102.875 175.075 102.924C175.069 103.024 175.055 103.164 175.022 103.347C174.957 103.72 174.829 104.213 174.606 104.826C174.156 106.062 173.401 107.568 172.33 109.241C170.181 112.595 167.041 116.18 163.491 119.09C159.886 122.045 156.273 123.965 153.223 124.578L154.405 130.46L155.588 136.343C161.26 135.202 166.642 132.023 171.097 128.372C175.608 124.675 179.595 120.146 182.434 115.714C183.856 113.494 185.06 111.19 185.883 108.928C186.68 106.736 187.263 104.195 187.023 101.647C186.763 98.9027 185.492 95.9895 182.587 94.1229C179.941 92.423 176.837 92.185 174.052 92.4764L174.676 98.4438ZM154.405 130.46L152.158 124.897C149.454 125.99 144.767 126.588 139.76 125.494L138.48 131.356L137.199 137.218C144.318 138.773 151.487 138.11 156.653 136.024L154.405 130.46ZM138.48 131.356L132.571 130.311C131.544 136.118 129.228 141.627 125.554 146.476L130.335 150.1L135.117 153.724C139.992 147.292 143.044 139.997 144.388 132.401L138.48 131.356ZM130.335 150.1L125.553 146.476C114.128 161.552 93.4502 164.527 73.5428 154.696L70.886 160.076L68.2291 165.455C91.7071 177.05 119.246 174.666 135.117 153.724L130.335 150.1ZM70.886 160.076L65.2976 157.892L62.7908 164.306L68.3791 166.49L73.9675 168.674L76.4743 162.26L70.886 160.076ZM68.3791 166.49L63.252 169.606L67.3116 176.285L72.4387 173.168L77.5658 170.052L73.5063 163.373L68.3791 166.49ZM72.4387 173.168L67.3113 176.284C66.2146 174.48 66.7905 172.132 68.591 171.037L71.7073 176.165L74.8236 181.292C78.6822 178.947 79.9136 173.915 77.5661 170.052L72.4387 173.168ZM71.7073 176.165L68.5918 171.037C70.2837 170.009 72.4508 170.45 73.6228 172L68.8371 175.619L64.0515 179.238C66.5565 182.55 71.2015 183.492 74.8227 181.292L71.7073 176.165ZM68.8371 175.619L73.805 172.254L73.68 172.07L68.7121 175.434L63.7442 178.799L63.8692 178.983L68.8371 175.619ZM68.7121 175.434L73.839 172.317L71.422 168.342L66.2951 171.458L61.1683 174.575L63.5853 178.551L68.7121 175.434ZM66.2951 171.458L60.7766 169.104L59.9748 170.983L65.4934 173.337L71.012 175.692L71.8137 173.813L66.2951 171.458ZM65.4934 173.337L59.9755 170.981C60.8032 169.043 63.046 168.14 64.987 168.968L62.633 174.487L60.279 180.006C64.4347 181.778 69.2379 179.846 71.0112 175.694L65.4934 173.337ZM62.633 174.487L64.9887 168.969C66.9255 169.795 67.8304 172.037 67.0009 173.98L61.4826 171.624L55.9644 169.269C54.1892 173.427 56.1254 178.233 60.2774 180.005L62.633 174.487ZM61.4826 171.624L67.0009 173.98L68.2811 170.981L62.7629 168.625L57.2447 166.27L55.9644 169.269L61.4826 171.624ZM62.7629 168.625L63.2519 162.645L60.6005 162.429L60.1116 168.409L59.6226 174.389L62.2739 174.606L62.7629 168.625ZM60.1116 168.409L60.6034 162.429C62.7067 162.602 64.2686 164.446 64.0964 166.546L58.1164 166.056L52.1365 165.566C51.7675 170.067 55.1164 174.018 59.6197 174.388L60.1116 168.409ZM58.1164 166.056L64.0962 166.549C63.9227 168.653 62.0781 170.214 59.9791 170.042L60.468 164.062L60.9569 158.082C56.4584 157.714 52.5079 161.06 52.1367 165.563L58.1164 166.056ZM60.468 164.062L59.9788 170.042L64.0257 170.373L64.5149 164.393L65.0041 158.413L60.9572 158.082L60.468 164.062ZM64.5149 164.393L70.103 166.578L72.601 160.188L67.0129 158.003L61.4248 155.819L58.9267 162.208L64.5149 164.393ZM67.0129 158.003L70.0097 152.805C67.6714 151.457 65.3705 149.937 63.1311 148.24L59.508 153.023L55.885 157.806C58.527 159.807 61.2465 161.605 64.0161 163.201L67.0129 158.003ZM59.508 153.023L63.1317 148.241C56.2261 143.008 50.7983 136.82 47.0361 130.27L41.8332 133.258L36.6304 136.247C41.2416 144.275 47.7742 151.66 55.8844 157.805L59.508 153.023ZM41.8332 133.258L39.0142 127.962L30.0787 132.718L32.8977 138.014L35.7167 143.311L44.6523 138.555L41.8332 133.258ZM32.8977 138.014L26.9963 139.097L28.2218 145.775L34.1233 144.692L40.0247 143.609L38.7991 136.931L32.8977 138.014ZM34.1233 144.692L28.1712 145.449L28.1995 145.672L34.1516 144.915L40.1036 144.157L40.0753 143.935L34.1233 144.692ZM34.1516 144.915L28.1707 145.393C28.016 143.46 29.3384 141.687 31.289 141.329L32.3713 147.231L33.4537 153.133C37.6248 152.368 40.4635 148.572 40.1325 144.436L34.1516 144.915ZM32.3713 147.231L31.2901 141.329C33.3667 140.949 35.3542 142.324 35.7346 144.396L29.8332 145.479L23.9319 146.562C24.747 151.003 29.0074 153.947 33.4525 153.133L32.3713 147.231ZM29.8332 145.479L35.7348 144.397L34.8686 139.673L28.967 140.755L23.0654 141.838L23.9316 146.561L29.8332 145.479ZM28.967 140.755L25.2919 136.013L23.1054 137.707L26.7805 142.45L30.4556 147.192L32.6422 145.498L28.967 140.755ZM26.7805 142.45L23.1085 137.705C24.7764 136.414 27.1739 136.719 28.4651 138.387L23.7209 142.06L18.9768 145.733C21.7421 149.305 26.88 149.959 30.4525 147.195L26.7805 142.45ZM23.7209 142.06L28.4664 138.389C29.7576 140.057 29.4507 142.455 27.7848 143.745L24.1106 139.001L20.4364 134.258C16.8672 137.023 16.2109 142.158 18.9754 145.732L23.7209 142.06ZM24.1106 139.001L27.7842 143.745L30.6279 141.543L26.9543 136.799L23.2807 132.055L20.437 134.258L24.1106 139.001ZM26.9543 136.799L30.7324 132.138L26.3818 128.612L22.6037 133.273L18.8257 137.934L23.1762 141.46L26.9543 136.799ZM22.6037 133.273L26.6175 128.813L26.4515 128.664L22.4377 133.124L18.4239 137.583L18.59 137.733L22.6037 133.273ZM22.4377 133.124L26.6688 128.869C28.0461 130.239 28.1914 132.446 26.9451 133.984L22.2834 130.207L17.6218 126.429C14.9543 129.721 15.2626 134.45 18.2066 137.378L22.4377 133.124ZM22.2834 130.207L26.9438 133.986C25.6978 135.522 23.5096 135.838 21.8833 134.774L25.1692 129.753L28.455 124.733C24.9801 122.459 20.2906 123.138 17.623 126.428L22.2834 130.207ZM25.1692 129.753L21.6324 134.6L21.813 134.732L25.3498 129.885L28.8866 125.038L28.706 124.907L25.1692 129.753ZM25.3498 129.885L21.5722 134.547L26.9393 138.896L30.717 134.235L34.4947 129.573L29.1275 125.224L25.3498 129.885ZM30.717 134.235L33.5358 139.532L42.6266 134.694L39.8078 129.397L36.9891 124.1L27.8983 128.938L30.717 134.235ZM39.8078 129.397L45.2233 126.814C38.8015 113.351 39.3323 99.0376 47.9491 87.6674L43.1672 84.0434L38.3853 80.4195C26.603 95.9665 26.3866 115.197 34.3924 131.98L39.8078 129.397ZM43.1672 84.0434L45.0646 78.3513L45.0558 78.3484L43.1584 84.0405L41.2611 89.7326L41.2698 89.7355L43.1672 84.0434ZM43.1584 84.0405L47.9409 87.6638C50.004 84.9406 52.3768 82.5796 54.9932 80.5816L51.3518 75.813L47.7103 71.0443C44.2456 73.6901 41.1021 76.8189 38.3759 80.4173L43.1584 84.0405ZM51.3518 75.813L56.7579 73.2102C56.422 72.5127 56.1744 71.8809 56.0031 71.3312L50.2746 73.1157L44.5462 74.9002C44.9129 76.0774 45.3875 77.2564 45.9457 78.4157L51.3518 75.813Z" fill="white" mask="url(#path-1-outside-1_1062_22354)"/>
<path d="M71.2946 153.043C72.4158 153.482 72.9702 154.746 72.532 155.868L68.3791 166.489L72.4388 173.169C73.0642 174.198 72.7367 175.539 71.7075 176.165C70.7428 176.751 69.5042 176.5 68.8376 175.619L68.7109 175.435L66.2955 171.458L65.4939 173.338C65.0211 174.445 63.7395 174.959 62.6321 174.487C61.5248 174.014 61.0103 172.732 61.4831 171.625L62.7629 168.625L60.1113 168.408C58.9113 168.31 58.0183 167.257 58.1167 166.056C58.2154 164.856 59.2684 163.963 60.4686 164.062L64.515 164.394L68.4696 154.28C68.9082 153.158 70.1731 152.605 71.2946 153.043Z" fill="#474747"/>
<path d="M42.2956 128.073C43.3587 127.507 44.6792 127.911 45.245 128.974C45.8105 130.037 45.4081 131.356 44.3455 131.922L32.8973 138.014L34.1222 144.692L34.1506 144.914C34.2391 146.015 33.4811 147.026 32.3709 147.23C31.1864 147.447 30.0492 146.663 29.832 145.479L28.9664 140.755L26.7793 142.45C25.8269 143.187 24.4567 143.012 23.7197 142.059C22.983 141.107 23.1579 139.738 24.1099 139.001L26.9532 136.799L22.6029 133.273L22.4367 133.124C21.6529 132.345 21.5721 131.083 22.2831 130.206C22.9941 129.329 24.2445 129.149 25.1688 129.754L25.3495 129.886L30.716 134.236L42.2956 128.073Z" fill="#474747"/>
<path d="M93.4602 76.5215C80.971 70.1695 70.7922 50.2146 62.2096 37.1491C52.9315 23.0358 45.8939 59.0608 50.2742 73.1155C53.3467 82.9792 68.2886 98.3877 89.2601 89.4733" fill="#276288"/>
<path d="M124.324 94.9085C137.154 100.553 159.124 100.07 174.676 98.4434C191.476 96.6854 171.849 126.954 154.405 130.461C144.826 134.33 123.44 132.526 117.053 110.645" fill="#276288"/>
<path d="M43.1671 84.0431C27.068 105.286 35.4421 134.787 59.5074 153.023C83.5817 171.26 114.236 171.343 130.335 150.1C139.365 138.187 141.299 122.877 137.001 108.519C138.715 106.849 140.346 105.024 141.849 103.033C155.643 84.8249 153.287 61.6665 137.688 49.8401C122.09 38.0138 99.1599 42.0129 85.3549 60.2278C83.8541 62.2097 82.5329 64.2666 81.3895 66.3697C66.4003 66.122 52.1903 72.1187 43.1582 84.0408L43.1671 84.0431Z" fill="#4B9AE8"/>
<path d="M123.085 69.4452C127.257 70.5279 131.517 68.0237 132.599 63.8518C133.682 59.6799 131.178 55.4202 127.006 54.3374C122.834 53.2547 118.574 55.7589 117.492 59.9308C116.409 64.1027 118.913 68.3624 123.085 69.4452Z" fill="white"/>
<path d="M124.008 65.8904C126.217 66.4636 128.472 65.1378 129.045 62.9292C129.619 60.7205 128.293 58.4654 126.084 57.8921C123.875 57.3189 121.62 58.6447 121.047 60.8534C120.474 63.062 121.8 65.3172 124.008 65.8904Z" fill="black"/>
<path d="M151.996 80.824C156.843 79.3597 162.665 71.5465 161.21 66.7011C159.746 61.8534 150.574 58.5624 145.726 60.0266C140.878 61.4908 137.909 65.8423 140.093 73.068C142.295 80.3741 147.159 82.2816 151.998 80.8151L151.996 80.824Z" fill="#EAC00F"/>
</svg>
