<svg width="200" height="200" viewBox="0 0 200 200" fill="none" xmlns="http://www.w3.org/2000/svg">
<mask id="path-1-outside-1_1062_20431" maskUnits="userSpaceOnUse" x="24.6572" y="24.7002" width="157" height="156" fill="black">
<rect fill="white" x="24.6572" y="24.7002" width="157" height="156"/>
<path d="M163.449 30.7002C166.45 30.7003 168.883 33.1331 168.883 36.1338V59.5918C168.937 59.5918 168.991 59.5917 169.045 59.5918V117.199C169.068 117.199 169.091 117.199 169.113 117.199V156.25C170.366 156.621 171.503 157.362 172.484 158.379C175.422 161.439 176.418 169.592 173.313 172.578C170.209 175.564 162.112 174.253 159.181 171.199C158.579 170.572 158.087 169.887 157.723 169.156H117.156C117.156 169.133 117.156 169.111 117.156 169.088H59.5488C59.5487 169.034 59.5498 168.979 59.5498 168.925H36.0908C33.0901 168.925 30.6574 166.493 30.6572 163.492V36.1338C30.6572 33.133 33.09 30.7002 36.0908 30.7002H163.449Z"/>
</mask>
<path d="M163.449 30.7002C166.45 30.7003 168.883 33.1331 168.883 36.1338V59.5918C168.937 59.5918 168.991 59.5917 169.045 59.5918V117.199C169.068 117.199 169.091 117.199 169.113 117.199V156.25C170.366 156.621 171.503 157.362 172.484 158.379C175.422 161.439 176.418 169.592 173.313 172.578C170.209 175.564 162.112 174.253 159.181 171.199C158.579 170.572 158.087 169.887 157.723 169.156H117.156C117.156 169.133 117.156 169.111 117.156 169.088H59.5488C59.5487 169.034 59.5498 168.979 59.5498 168.925H36.0908C33.0901 168.925 30.6574 166.493 30.6572 163.492V36.1338C30.6572 33.133 33.09 30.7002 36.0908 30.7002H163.449Z" fill="#040000"/>
<path d="M163.449 30.7002L163.449 24.7002H163.449V30.7002ZM168.883 59.5918H162.883C162.883 62.9055 165.569 65.5918 168.883 65.5918L168.883 59.5918ZM169.045 59.5918H175.045C175.045 56.2816 172.364 53.5967 169.054 53.5918L169.045 59.5918ZM169.045 117.199H163.045C163.045 120.509 165.725 123.193 169.034 123.199L169.045 117.199ZM169.113 117.199H175.113C175.113 113.893 172.439 111.21 169.132 111.199L169.113 117.199ZM169.113 156.25H163.113C163.113 158.907 164.861 161.248 167.408 162.003L169.113 156.25ZM172.484 158.379L176.813 154.224L176.803 154.214L172.484 158.379ZM173.313 172.578L177.473 176.902L177.473 176.902L173.313 172.578ZM159.181 171.199L163.51 167.045L163.509 167.044L159.181 171.199ZM157.723 169.156L163.091 166.477C162.076 164.442 159.997 163.156 157.723 163.156V169.156ZM117.156 169.156L111.156 169.175C111.167 172.481 113.85 175.156 117.156 175.156V169.156ZM117.156 169.088L123.156 169.077C123.15 165.767 120.466 163.088 117.156 163.088V169.088ZM59.5488 169.088L53.5488 169.097C53.5538 172.407 56.2386 175.088 59.5488 175.088V169.088ZM59.5498 168.925L65.5498 168.925C65.5498 167.334 64.9177 165.807 63.7924 164.682C62.6672 163.557 61.1411 162.925 59.5498 162.925V168.925ZM30.6572 163.492L24.6572 163.492L24.6572 163.492L30.6572 163.492ZM163.449 30.7002L163.449 36.7002C163.136 36.7002 162.883 36.447 162.883 36.1338H168.883H174.883C174.883 29.8191 169.763 24.7005 163.449 24.7002L163.449 30.7002ZM168.883 36.1338H162.883V59.5918H168.883H174.883V36.1338H168.883ZM168.883 59.5918L168.883 65.5918C168.95 65.5918 168.987 65.5917 169.036 65.5918L169.045 59.5918L169.054 53.5918C168.995 53.5917 168.924 53.5918 168.883 53.5918L168.883 59.5918ZM169.045 59.5918H163.045V117.199H169.045H175.045V59.5918H169.045ZM169.045 117.199L169.034 123.199C169.057 123.199 169.079 123.199 169.087 123.199C169.098 123.199 169.098 123.199 169.094 123.199L169.113 117.199L169.132 111.199C169.106 111.199 169.083 111.199 169.072 111.199C169.065 111.199 169.062 111.199 169.058 111.199C169.055 111.199 169.055 111.199 169.056 111.199L169.045 117.199ZM169.113 117.199H163.113V156.25H169.113H175.113V117.199H169.113ZM169.113 156.25L167.408 162.003C167.508 162.032 167.779 162.143 168.165 162.544L172.484 158.379L176.803 154.214C175.228 152.58 173.224 151.21 170.818 150.497L169.113 156.25ZM172.484 158.379L168.156 162.534C168.142 162.519 168.385 162.797 168.661 163.545C168.919 164.245 169.112 165.107 169.184 165.994C169.258 166.894 169.192 167.633 169.074 168.123C168.947 168.651 168.848 168.548 169.154 168.254L173.313 172.578L177.473 176.902C181.014 173.495 181.418 168.364 181.145 165.018C180.857 161.496 179.607 157.135 176.813 154.224L172.484 158.379ZM173.313 172.578L169.154 168.254C169.459 167.961 169.557 168.063 169.027 168.169C168.534 168.268 167.796 168.305 166.903 168.197C166.022 168.091 165.172 167.864 164.487 167.58C163.754 167.277 163.491 167.025 163.51 167.045L159.181 171.199L154.852 175.354C157.648 178.267 161.957 179.686 165.461 180.11C168.793 180.513 173.933 180.308 177.473 176.902L173.313 172.578ZM159.181 171.199L163.509 167.044C163.289 166.815 163.163 166.62 163.091 166.477L157.723 169.156L152.354 171.836C153.012 173.153 153.868 174.329 154.852 175.354L159.181 171.199ZM157.723 169.156V163.156H117.156V169.156V175.156H157.723V169.156ZM117.156 169.156L123.156 169.137C123.156 169.141 123.156 169.141 123.156 169.13C123.156 169.122 123.156 169.1 123.156 169.077L117.156 169.088L111.156 169.099C111.156 169.098 111.156 169.098 111.156 169.101C111.156 169.104 111.156 169.108 111.156 169.115C111.156 169.126 111.156 169.149 111.156 169.175L117.156 169.156ZM117.156 169.088V163.088H59.5488V169.088V175.088H117.156V169.088ZM59.5488 169.088L65.5488 169.079C65.5488 169.089 65.5487 169.093 65.549 169.062C65.5492 169.042 65.5498 168.985 65.5498 168.925L59.5498 168.925L53.5498 168.925C53.5498 168.919 53.5499 168.916 53.5495 168.95C53.5493 168.974 53.5487 169.032 53.5488 169.097L59.5488 169.088ZM59.5498 168.925V162.925H36.0908V168.925V174.925H59.5498V168.925ZM36.0908 168.925V162.925C36.4028 162.925 36.6572 163.178 36.6572 163.492L30.6572 163.492L24.6572 163.492C24.6576 169.808 29.7775 174.925 36.0908 174.925V168.925ZM30.6572 163.492H36.6572V36.1338H30.6572H24.6572V163.492H30.6572ZM30.6572 36.1338H36.6572C36.6572 36.4467 36.4038 36.7002 36.0908 36.7002V30.7002V24.7002C29.7763 24.7002 24.6572 29.8193 24.6572 36.1338H30.6572ZM36.0908 30.7002V36.7002H163.449V30.7002V24.7002H36.0908V30.7002Z" fill="white" mask="url(#path-1-outside-1_1062_20431)"/>
<path d="M30.6572 36.1336C30.6572 33.1328 33.0898 30.7002 36.0906 30.7002H163.449C166.45 30.7002 168.882 33.1328 168.882 36.1336V163.492C168.882 166.493 166.45 168.925 163.449 168.925H36.0906C33.0898 168.925 30.6572 166.493 30.6572 163.492V36.1336Z" fill="#4B9AE8"/>
<path d="M168.542 39.8146V163.818C168.564 164.45 168.457 165.08 168.225 165.669C167.994 166.258 167.643 166.793 167.196 167.24C166.749 167.687 166.214 168.038 165.625 168.269C165.036 168.501 164.406 168.608 163.774 168.586H39.7706C39.7492 151.669 43.0653 134.915 49.529 119.282C55.9928 103.649 65.4772 89.4446 77.4389 77.4829C89.4007 65.5211 103.605 56.0367 119.238 49.573C134.871 43.1092 151.625 39.7931 168.542 39.8146Z" fill="#E46563"/>
<path d="M169.045 59.592V164.32C169.068 164.953 168.96 165.583 168.729 166.172C168.497 166.76 168.147 167.295 167.699 167.742C167.252 168.19 166.717 168.54 166.128 168.772C165.54 169.003 164.91 169.111 164.277 169.088H59.5489C59.5275 154.703 62.345 140.455 67.8401 127.16C73.3352 113.866 81.3998 101.787 91.5718 91.6149C101.744 81.4429 113.823 73.3783 127.117 67.8832C140.412 62.3881 154.66 59.5706 169.045 59.592Z" fill="#F3E461"/>
<path d="M169.044 79.4376V164.321C169.067 164.953 168.959 165.583 168.728 166.172C168.496 166.761 168.146 167.295 167.699 167.743C167.251 168.19 166.716 168.54 166.128 168.772C165.539 169.003 164.909 169.111 164.277 169.088H79.3936C79.3936 145.312 88.8389 122.508 105.652 105.696C122.464 88.8829 145.267 79.4376 169.044 79.4376Z" fill="#4AC8AA"/>
<path d="M169.044 98.7122V164.32C169.067 164.953 168.959 165.583 168.728 166.171C168.496 166.76 168.146 167.295 167.698 167.742C167.251 168.19 166.716 168.54 166.127 168.772C165.539 169.003 164.908 169.111 164.276 169.088H98.6682C98.6467 159.84 100.452 150.679 103.981 142.131C107.511 133.583 112.694 125.816 119.233 119.277C125.772 112.738 133.539 107.555 142.087 104.025C150.635 100.496 159.796 98.6907 169.044 98.7122Z" fill="#E2C7FF"/>
<path d="M169.113 117.2V164.389C169.136 165.021 169.028 165.651 168.797 166.24C168.565 166.829 168.215 167.363 167.767 167.811C167.32 168.258 166.785 168.608 166.197 168.84C165.608 169.071 164.978 169.179 164.345 169.156H117.157C117.135 162.327 118.464 155.561 121.068 149.248C123.671 142.935 127.497 137.198 132.326 132.369C137.155 127.541 142.891 123.714 149.205 121.111C155.518 118.507 162.284 117.178 169.113 117.2Z" fill="#4B9AE8"/>
<path d="M172.484 158.379C175.422 161.44 176.418 169.591 173.314 172.578C170.21 175.564 162.112 174.254 159.181 171.2C156.243 168.139 155.886 163.713 160.512 159.257C165.192 154.747 169.54 155.326 172.484 158.379Z" fill="#EAC00F"/>
<path d="M148.315 160.188C154.849 160.188 160.145 154.892 160.145 148.358C160.145 141.825 154.849 136.529 148.315 136.529C141.782 136.529 136.485 141.825 136.485 148.358C136.485 154.892 141.782 160.188 148.315 160.188Z" fill="white"/>
<path d="M148.316 154.664C151.799 154.664 154.622 151.841 154.622 148.358C154.622 144.876 151.799 142.053 148.316 142.053C144.834 142.053 142.011 144.876 142.011 148.358C142.011 151.841 144.834 154.664 148.316 154.664Z" fill="#040000"/>
</svg>
