<svg width="100" height="100" viewBox="0 0 100 100" fill="none" xmlns="http://www.w3.org/2000/svg">
<path d="M84.5178 27.5889C82.1243 28.0175 79.7062 28.2739 77.2742 28.355C76.8161 28.3612 76.3623 28.2626 75.9472 28.0678C75.5321 27.873 75.1698 27.5825 74.8837 27.2216C74.5976 26.8607 74.4047 26.4406 74.3072 25.9929C74.2098 25.5452 74.2215 25.0774 74.3334 24.638C74.6931 23.244 81.5377 14.7074 86.1325 11.7492C86.312 11.6306 86.5238 11.5761 86.7365 11.5881C86.9492 11.6001 87.1558 11.6783 87.3219 11.8072C87.4877 11.9431 87.6133 12.1229 87.668 12.3278C87.7228 12.5326 87.7175 12.7526 87.6396 12.9522C86.9332 14.8006 85.3295 17.1548 82.3933 21.8951C84.1479 21.6262 86.0348 21.0202 88.0788 20.5916C88.5804 20.4579 89.1051 20.4439 89.6146 20.5516C90.124 20.6593 90.5971 20.8879 90.9963 21.2183C91.7854 21.9348 92.289 23.0628 91.9103 24.0576C91.0122 26.4191 85.7661 33.9572 82.5603 37.7501C81.4195 39.0989 80.4019 39.3798 79.6423 38.6226C79.182 38.1604 79.5499 37.4377 79.7553 36.9322C80.5836 34.9174 84.4547 27.5934 84.5075 27.585L84.5178 27.5889Z" fill="#FFE500"/>
<path d="M91.0032 21.219C90.6004 20.8919 90.1273 20.6633 89.6215 20.5522C89.1121 20.4445 88.5873 20.4585 88.0857 20.5922C87.5146 20.7162 86.9433 20.8471 86.375 20.9887C86.811 20.9222 87.2573 20.947 87.6858 21.069C88.1109 21.1873 88.5078 21.3989 88.8459 21.685C89.635 22.4015 90.1386 23.5294 89.7599 24.5242C88.8618 26.8857 83.6157 34.4238 80.4098 38.2168C80.241 38.4197 80.0551 38.6115 79.8558 38.7887C80.5897 39.3143 81.5256 38.9812 82.5638 37.7472C85.7697 33.9542 91.0227 26.4163 91.9175 24.0513C92.2962 23.0564 91.7962 21.9251 91.0035 21.212L91.0032 21.219ZM85.4855 13.4221C84.8068 15.1913 83.3128 17.4241 80.6163 21.7616C80.5828 21.8127 80.5664 21.875 80.5675 21.9344C80.5686 21.9939 80.5871 22.0575 80.6236 22.1044C80.6566 22.1546 80.7074 22.1951 80.7624 22.2183C80.8173 22.2414 80.8835 22.2476 80.9432 22.2395C81.5174 22.1261 82.103 21.9888 82.7031 21.838C82.6009 21.8584 82.4952 21.8821 82.3933 21.8955C85.3186 17.1653 86.9259 14.8077 87.6356 12.9629C87.7102 12.7597 87.7188 12.5433 87.6641 12.3385C87.6094 12.1336 87.4874 11.9505 87.3216 11.8145C87.1558 11.6786 86.9492 11.6005 86.7365 11.5885C86.5238 11.5765 86.3119 11.6309 86.1291 11.7459C85.8422 11.9302 85.5474 12.1351 85.2485 12.3573C85.3864 12.4921 85.4844 12.6638 85.5257 12.8541C85.567 13.0445 85.5522 13.2396 85.4786 13.4219L85.4855 13.4221Z" fill="#F2C100"/>
<path d="M54.6621 73.597C54.6621 71.112 52.6471 69.1045 50.1695 69.1045C47.6919 69.1045 45.677 71.1194 45.677 73.597V74.7164C45.677 77.2015 47.6919 79.209 50.1695 79.209C52.6471 79.209 54.6621 77.194 54.6621 74.7164V73.597Z" fill="#A9BFD2"/>
<path d="M54.6843 74.3503C51.7813 75.4847 48.5574 75.4847 45.6544 74.3503C44.632 73.9026 43.7589 73.1638 43.1619 72.216C42.5648 71.2682 42.2663 70.1712 42.3037 69.0518V63.5742H58.035V69.0593C58.0723 70.1787 57.7738 71.2757 57.1768 72.2235C56.5798 73.1712 55.7141 73.91 54.6843 74.3503Z" fill="#A9BFD2"/>
<path d="M54.4977 70.4994C51.5947 71.6337 48.3709 71.6337 45.4679 70.4994C44.4455 70.0516 43.5724 69.3128 42.9753 68.3651C42.3783 67.4173 42.0798 66.3203 42.1171 65.2009V59.7158H57.8485V65.2009C57.8858 66.3203 57.5873 67.4173 56.9903 68.3651C56.3932 69.3128 55.5276 70.0516 54.4977 70.4994Z" fill="#889FB2"/>
<path d="M54.4977 68.6498C51.5947 69.7841 48.3709 69.7841 45.4679 68.6498C44.4455 68.202 43.5724 67.4632 42.9753 66.5155C42.3783 65.5677 42.0798 64.4707 42.1171 63.3513V57.8662H57.8485V63.3513C57.8858 64.4707 57.5873 65.5677 56.9903 66.5155C56.3932 67.4632 55.5276 68.202 54.4977 68.6498Z" fill="#607887"/>
<path d="M49.6546 66.8585C61.8263 66.8585 71.6845 56.9929 71.6845 44.8287C71.6845 32.6645 61.8188 22.7988 49.6546 22.7988C37.4904 22.7988 27.6248 32.6645 27.6248 44.8287C27.6248 56.9929 37.4904 66.8585 49.6546 66.8585Z" fill="#F5EB8B"/>
<path d="M63.1695 48.6046C63.1695 46.127 62.4978 43.7017 61.2142 41.5823C59.9307 39.4629 58.0948 37.739 55.9008 36.5972C53.7068 35.4554 51.2366 34.933 48.7665 35.0897C46.2963 35.2539 43.9157 36.0897 41.8934 37.5076C39.8635 38.9255 38.2665 40.8733 37.2665 43.142C36.2665 45.4106 35.9157 47.9031 36.2366 50.3584C36.5575 52.8136 37.5501 55.127 39.1023 57.0599C40.6545 58.9852 42.7068 60.4554 45.0277 61.2987V63.4629C45.0053 64.1494 45.1844 64.8211 45.5575 65.4032C45.9232 65.9852 46.4531 66.4405 47.0874 66.7091C48.871 67.4032 50.8486 67.4032 52.6322 66.7091C53.259 66.433 53.7963 65.9778 54.162 65.4032C54.5277 64.8211 54.7142 64.1494 54.6919 63.4629V61.127C57.1919 60.1196 59.3411 58.3957 60.8486 56.1643C62.3635 53.933 63.1695 51.2987 63.1695 48.6046Z" fill="#F2DB24"/>
<path d="M49.6472 29.7759C54.8785 29.7759 59.9457 31.6491 63.9233 35.0446C67.9084 38.4401 70.5502 43.1491 71.3785 48.3132C71.9084 45.1565 71.7442 41.9177 70.8935 38.8356C70.0427 35.7461 68.5353 32.8804 66.4681 30.4401C64.4009 27.9998 61.8263 26.0297 58.9159 24.6864C56.0129 23.3431 52.8487 22.6416 49.6472 22.6416C46.4457 22.6416 43.2815 23.3431 40.3785 24.6864C37.4756 26.0297 34.9009 27.9998 32.8263 30.4401C30.7591 32.8804 29.2442 35.7461 28.4009 38.8356C27.5502 41.9252 27.386 45.1565 27.9159 48.3132C28.7442 43.1416 31.386 38.4401 35.3636 35.0446C39.3487 31.6491 44.4084 29.7759 49.6397 29.7759H49.6472Z" fill="#F9F5CC"/>
<path d="M43.1396 40.4325C45.1545 37.3057 44.6545 33.3877 42.0127 31.6863C39.3709 29.9848 35.6023 31.1415 33.5799 34.2683C31.5649 37.3952 32.0649 41.3131 34.7067 43.0146C37.3485 44.7161 41.1172 43.5594 43.1396 40.4325Z" fill="white"/>
<path d="M41.1012 39.3505C42.226 37.5414 41.9469 35.2745 40.4722 34.2901C38.9974 33.3056 36.8936 33.9749 35.7646 35.784C34.6398 37.5932 34.9189 39.86 36.3937 40.8445C37.8684 41.829 39.9722 41.1597 41.1012 39.3505Z" fill="black"/>
<path d="M28.6401 47.382C26.355 47.9973 22.2174 46.7423 21.6937 44.8125C21.1699 42.8827 24.1077 39.7207 26.3879 39.1062C28.6681 38.4917 30.8658 39.2526 31.6458 42.128C32.4364 45.0371 30.9203 46.7676 28.6352 47.3828L28.6401 47.382Z" fill="#F6CA20"/>
<path d="M19.9834 74.4323C18.3419 74.5625 16.6986 74.5707 15.0564 74.4629C14.7445 74.4383 14.4479 74.3412 14.1822 74.182C13.9166 74.0228 13.6907 73.8045 13.5232 73.5431C13.3558 73.2817 13.2539 72.9847 13.219 72.6766C13.1841 72.3686 13.2232 72.0569 13.329 71.7631C13.6624 70.8488 18.8478 65.5586 22.1394 63.8743C22.2692 63.8072 22.4131 63.7838 22.5566 63.804C22.7002 63.8242 22.8316 63.8936 22.9338 63.9918C23.0345 64.0943 23.1059 64.2256 23.1307 64.3652C23.1541 64.5091 23.1339 64.6527 23.0688 64.7856C22.4686 65.9821 21.2329 67.4601 18.9367 70.457C20.1334 70.3925 21.4482 70.1112 22.8532 69.9629C23.1978 69.9065 23.5532 69.9315 23.8904 70.0377C24.2277 70.1438 24.5279 70.3294 24.7768 70.5799C25.2625 71.1156 25.5238 71.9091 25.2 72.555C24.4371 74.0839 20.3963 78.8111 17.9828 81.1465C17.1246 81.9777 16.4224 82.1005 15.9601 81.5389C15.6802 81.1952 15.9791 80.7349 16.149 80.4098C16.8387 79.1082 19.9427 74.4377 19.9775 74.4351L19.9834 74.4323Z" fill="#FFE500"/>
<path d="M24.7781 70.5748C24.5293 70.3243 24.2276 70.143 23.8918 70.0325C23.5545 69.9264 23.2006 69.8971 22.8546 69.9578C22.4608 70.0021 22.0699 70.0522 21.676 70.1111C21.9737 70.092 22.2766 70.1427 22.5543 70.2526C22.832 70.3626 23.0845 70.5318 23.2931 70.7442C23.7788 71.2799 24.0401 72.0734 23.7163 72.7193C22.9534 74.2481 18.9126 78.9754 16.4991 81.3107C16.3688 81.4358 16.2313 81.5536 16.0881 81.6597C16.5475 82.0602 17.1992 81.9007 17.9842 81.1414C20.3992 78.8017 24.4428 74.0802 25.2014 72.5499C25.5252 71.904 25.2595 71.109 24.7781 70.5748ZM21.588 64.9557C21.0114 66.0972 19.8591 67.502 17.7482 70.2422C17.7218 70.2768 17.7084 70.3159 17.708 70.3594C17.7032 70.4015 17.713 70.4436 17.7345 70.4801C17.7559 70.5166 17.7847 70.5459 17.8207 70.568C17.8583 70.5858 17.8989 70.5948 17.9439 70.5909C18.3362 70.5509 18.7417 70.5009 19.1559 70.4394C19.0862 70.4445 19.0135 70.4584 18.9409 70.4577C21.2297 67.468 22.4698 65.9914 23.07 64.795C23.1336 64.6664 23.1553 64.5185 23.1319 64.3746C23.1086 64.2307 23.0415 64.1009 22.9365 63.9969C22.8358 63.8943 22.7029 63.8292 22.5608 63.8047C22.4188 63.7802 22.2706 63.8021 22.1408 63.8691C21.9351 63.9732 21.725 64.0903 21.509 64.2248C21.5908 64.3257 21.6463 64.4467 21.6596 64.5775C21.673 64.7082 21.6514 64.8416 21.588 64.9557Z" fill="#F2C100"/>
</svg>
