<svg width="200" height="200" viewBox="0 0 200 200" fill="none" xmlns="http://www.w3.org/2000/svg">
<mask id="path-1-outside-1_1062_21606" maskUnits="userSpaceOnUse" x="20.8125" y="19.8584" width="155" height="163" fill="black">
<rect fill="white" x="20.8125" y="19.8584" width="155" height="163"/>
<path d="M89.0303 27.1376C110.31 24.5227 129.794 40.5188 132.781 64.832C133.05 67.0146 133.013 71.0726 132.804 72.6484L149.952 64.2021C158.876 59.8052 168.664 63.6312 169.279 71.787C170.033 81.7362 168.603 94.484 159.181 103.89C159.912 106.334 160.447 108.861 160.767 111.46L160.748 111.454C162.014 121.758 159.679 131.362 154.631 139.625C152.515 143.093 149.92 146.325 146.915 149.277L159.989 156.826C161.751 157.844 162.363 160.126 161.346 161.889L154.895 173.062C153.544 175.402 150.527 176.21 148.188 174.859C147.018 174.184 146.238 173.093 145.904 171.871C145.578 170.653 145.715 169.322 146.391 168.152L152.468 161.333L140.716 154.548C131.891 161.046 120.716 165.577 108.239 167.406C107.597 167.503 106.945 167.592 106.292 167.672C105.639 167.752 104.986 167.832 104.338 167.886C90.2366 169.286 76.9119 166.98 66.0499 161.624L53.4229 174.78C52.0138 176.248 49.6507 176.297 48.1827 174.888L38.8751 165.953C36.9261 164.082 36.862 160.961 38.7325 159.012C39.6679 158.037 40.9137 157.54 42.1807 157.508C43.4417 157.482 44.7004 157.934 45.6749 158.869L50.8448 166.4L59.2462 157.646C56.8502 155.998 54.6268 154.174 52.6026 152.181C52.6026 152.181 52.6017 152.18 52.6007 152.172C45.7026 145.377 41.1111 136.624 39.8448 126.319C39.2697 121.639 39.4271 117.015 40.2344 112.534C29.341 101.762 26.1379 87.2616 26.9258 76.8798C27.5393 68.7269 36.595 65.039 45.5167 69.9501L55.8682 75.6445C55.8074 75.1392 55.7546 74.6814 55.7081 74.3027C55.5939 73.3737 55.5086 72.4505 55.4464 71.5341C53.4214 70.9791 51.2913 69.9227 49.5772 68.622C49.5694 68.6163 49.5606 68.6111 49.5528 68.6054L49.5548 68.6044C47.5648 67.0887 46.1399 65.2466 46.1036 63.4843C46.0233 59.621 52.6102 55.0727 57.3575 54.5497C61.9443 39.7543 73.9086 28.9961 89.0303 27.1376Z"/>
</mask>
<path d="M89.0303 27.1376C110.31 24.5227 129.794 40.5188 132.781 64.832C133.05 67.0146 133.013 71.0726 132.804 72.6484L149.952 64.2021C158.876 59.8052 168.664 63.6312 169.279 71.787C170.033 81.7362 168.603 94.484 159.181 103.89C159.912 106.334 160.447 108.861 160.767 111.46L160.748 111.454C162.014 121.758 159.679 131.362 154.631 139.625C152.515 143.093 149.92 146.325 146.915 149.277L159.989 156.826C161.751 157.844 162.363 160.126 161.346 161.889L154.895 173.062C153.544 175.402 150.527 176.21 148.188 174.859C147.018 174.184 146.238 173.093 145.904 171.871C145.578 170.653 145.715 169.322 146.391 168.152L152.468 161.333L140.716 154.548C131.891 161.046 120.716 165.577 108.239 167.406C107.597 167.503 106.945 167.592 106.292 167.672C105.639 167.752 104.986 167.832 104.338 167.886C90.2366 169.286 76.9119 166.98 66.0499 161.624L53.4229 174.78C52.0138 176.248 49.6507 176.297 48.1827 174.888L38.8751 165.953C36.9261 164.082 36.862 160.961 38.7325 159.012C39.6679 158.037 40.9137 157.54 42.1807 157.508C43.4417 157.482 44.7004 157.934 45.6749 158.869L50.8448 166.4L59.2462 157.646C56.8502 155.998 54.6268 154.174 52.6026 152.181C52.6026 152.181 52.6017 152.18 52.6007 152.172C45.7026 145.377 41.1111 136.624 39.8448 126.319C39.2697 121.639 39.4271 117.015 40.2344 112.534C29.341 101.762 26.1379 87.2616 26.9258 76.8798C27.5393 68.7269 36.595 65.039 45.5167 69.9501L55.8682 75.6445C55.8074 75.1392 55.7546 74.6814 55.7081 74.3027C55.5939 73.3737 55.5086 72.4505 55.4464 71.5341C53.4214 70.9791 51.2913 69.9227 49.5772 68.622C49.5694 68.6163 49.5606 68.6111 49.5528 68.6054L49.5548 68.6044C47.5648 67.0887 46.1399 65.2466 46.1036 63.4843C46.0233 59.621 52.6102 55.0727 57.3575 54.5497C61.9443 39.7543 73.9086 28.9961 89.0303 27.1376Z" fill="#040000"/>
<path d="M89.0303 27.1376L88.2985 21.1824L88.2985 21.1824L89.0303 27.1376ZM132.781 64.832L138.737 64.1002L138.737 64.1002L132.781 64.832ZM132.804 72.6484L126.856 71.86C126.565 74.0551 127.507 76.2321 129.306 77.5231C131.105 78.8141 133.468 79.0093 135.455 78.0309L132.804 72.6484ZM149.952 64.2021L152.603 69.5846L152.604 69.5843L149.952 64.2021ZM169.279 71.787L163.296 72.2385L163.297 72.2404L169.279 71.787ZM159.181 103.89L154.942 99.6433C153.38 101.203 152.8 103.494 153.432 105.608L159.181 103.89ZM160.767 111.46L158.96 117.181C160.907 117.796 163.033 117.379 164.603 116.074C166.172 114.768 166.971 112.754 166.722 110.728L160.767 111.46ZM160.748 111.454L162.555 105.733C160.608 105.118 158.482 105.535 156.912 106.84C155.342 108.146 154.544 110.159 154.793 112.186L160.748 111.454ZM154.631 139.625L149.511 136.497L149.509 136.5L154.631 139.625ZM146.915 149.277L142.71 144.997C141.373 146.311 140.727 148.175 140.963 150.034C141.2 151.894 142.292 153.536 143.915 154.473L146.915 149.277ZM159.989 156.826L162.989 151.63L162.989 151.63L159.989 156.826ZM161.346 161.889L166.542 164.889L166.542 164.888L161.346 161.889ZM154.895 173.062L160.091 176.063L160.091 176.062L154.895 173.062ZM148.188 174.859L145.187 180.055L145.188 180.055L148.188 174.859ZM145.904 171.871L140.109 173.424C140.111 173.433 140.114 173.443 140.117 173.452L145.904 171.871ZM146.391 168.152L141.911 164.16C141.639 164.466 141.399 164.798 141.195 165.152L146.391 168.152ZM152.468 161.333L156.947 165.325C158.148 163.977 158.678 162.161 158.392 160.379C158.105 158.597 157.031 157.039 155.468 156.137L152.468 161.333ZM140.716 154.548L143.716 149.352C141.652 148.16 139.078 148.303 137.158 149.716L140.716 154.548ZM108.239 167.406L107.369 161.47C107.362 161.471 107.356 161.472 107.349 161.473L108.239 167.406ZM106.292 167.672L107.024 173.627L107.024 173.627L106.292 167.672ZM104.338 167.886L103.845 161.906C103.812 161.909 103.778 161.912 103.745 161.915L104.338 167.886ZM66.0499 161.624L68.7032 156.243C66.3572 155.086 63.5322 155.582 61.721 157.469L66.0499 161.624ZM53.4229 174.78L57.7513 178.935L57.7517 178.935L53.4229 174.78ZM48.1827 174.888L44.0277 179.216L44.028 179.216L48.1827 174.888ZM38.8751 165.953L43.0301 161.625L43.0299 161.624L38.8751 165.953ZM38.7325 159.012L34.4038 154.857L34.4035 154.857L38.7325 159.012ZM42.1807 157.508L42.0582 151.509C42.0484 151.509 42.0386 151.509 42.0288 151.51L42.1807 157.508ZM45.6749 158.869L50.6215 155.473C50.3901 155.136 50.1248 154.824 49.8297 154.54L45.6749 158.869ZM50.8448 166.4L45.8981 169.796C46.9196 171.284 48.5567 172.233 50.3555 172.38C52.1544 172.528 53.924 171.857 55.1737 170.555L50.8448 166.4ZM59.2462 157.646L63.5751 161.801C64.7943 160.531 65.3939 158.789 65.2152 157.037C65.0364 155.286 64.0972 153.701 62.6465 152.703L59.2462 157.646ZM52.6026 152.181L56.8125 147.905C55.351 146.466 53.2556 145.873 51.2567 146.333C49.2579 146.794 47.6326 148.243 46.9473 150.176L52.6026 152.181ZM52.6007 152.172L58.5559 151.44C58.3907 150.096 57.7758 148.847 56.8111 147.897L52.6007 152.172ZM39.8448 126.319L33.8896 127.051L33.8896 127.051L39.8448 126.319ZM40.2344 112.534L46.1393 113.598C46.49 111.652 45.8594 109.658 44.4534 108.268L40.2344 112.534ZM26.9258 76.8798L32.9086 77.3339L32.9089 77.33L26.9258 76.8798ZM45.5167 69.9501L42.6232 75.2064L42.6248 75.2072L45.5167 69.9501ZM55.8682 75.6445L52.9763 80.9016C54.948 81.9862 57.3608 81.8763 59.2257 80.6171C61.0907 79.3579 62.0943 77.161 61.8252 74.9269L55.8682 75.6445ZM55.7081 74.3027L49.7529 75.0344L49.7529 75.0345L55.7081 74.3027ZM55.4464 71.5341L61.4326 71.1278C61.2597 68.5809 59.4943 66.4223 57.0323 65.7475L55.4464 71.5341ZM49.5772 68.622L53.2041 63.8423C53.174 63.8195 53.1438 63.797 53.1134 63.7748L49.5772 68.622ZM49.5528 68.6054L46.8695 63.2388C44.9983 64.1744 43.7495 66.0172 43.574 68.1019C43.3984 70.1866 44.3214 72.2122 46.0097 73.4476L49.5528 68.6054ZM49.5548 68.6044L52.238 73.971C54.0909 73.0446 55.3348 71.2279 55.5285 69.1655C55.7222 67.103 54.8383 65.0865 53.1903 63.8313L49.5548 68.6044ZM46.1036 63.4843L52.1023 63.3606L52.1023 63.3597L46.1036 63.4843ZM57.3575 54.5497L58.0144 60.5137C60.3884 60.2522 62.3812 58.6076 63.0884 56.3264L57.3575 54.5497ZM89.0303 27.1376L89.7622 33.0928C107.304 30.9372 124.185 44.0719 126.826 65.5638L132.781 64.832L138.737 64.1002C135.402 36.9657 113.316 18.1082 88.2985 21.1824L89.0303 27.1376ZM132.781 64.832L126.826 65.5637C126.916 66.2931 126.973 67.568 126.971 68.9605C126.97 70.3844 126.907 71.4739 126.856 71.86L132.804 72.6484L138.752 73.4368C139.031 71.3287 139.063 66.7591 138.737 64.1002L132.781 64.832ZM132.804 72.6484L135.455 78.0309L152.603 69.5846L149.952 64.2021L147.301 58.8196L130.153 67.2658L132.804 72.6484ZM149.952 64.2021L152.604 69.5843C155.7 68.059 158.62 68.1202 160.542 68.8736C162.361 69.5863 163.187 70.7874 163.296 72.2385L169.279 71.787L175.262 71.3356C174.756 64.6309 170.381 59.841 164.921 57.701C159.564 55.6017 153.129 55.9483 147.3 58.8199L149.952 64.2021ZM169.279 71.787L163.297 72.2404C163.995 81.455 162.552 92.046 154.942 99.6433L159.181 103.89L163.42 108.136C174.653 96.922 176.072 82.0173 175.262 71.3337L169.279 71.787ZM159.181 103.89L153.432 105.608C154.068 107.736 154.534 109.932 154.811 112.192L160.767 111.46L166.722 110.728C166.361 107.789 165.755 104.933 164.929 102.171L159.181 103.89ZM160.767 111.46L162.573 105.738L162.555 105.733L160.748 111.454L158.941 117.176L158.96 117.181L160.767 111.46ZM160.748 111.454L154.793 112.186C155.887 121.087 153.884 129.338 149.511 136.497L154.631 139.625L159.751 142.753C165.473 133.387 168.142 122.429 166.703 110.722L160.748 111.454ZM154.631 139.625L149.509 136.5C147.666 139.521 145.385 142.369 142.71 144.997L146.915 149.277L151.12 153.557C154.455 150.281 157.364 146.665 159.753 142.75L154.631 139.625ZM146.915 149.277L143.915 154.473L156.989 162.022L159.989 156.826L162.989 151.63L149.915 144.081L146.915 149.277ZM159.989 156.826L156.989 162.022C155.881 161.383 155.51 159.996 156.149 158.889L161.346 161.889L166.542 164.888C169.216 160.257 167.621 154.305 162.989 151.63L159.989 156.826ZM161.346 161.889L156.15 158.889L149.698 170.062L154.895 173.062L160.091 176.062L166.542 164.889L161.346 161.889ZM154.895 173.062L149.699 170.062C150.005 169.532 150.657 169.357 151.188 169.663L148.188 174.859L145.188 180.055C150.397 183.063 157.083 181.272 160.091 176.063L154.895 173.062ZM148.188 174.859L151.188 169.663C151.482 169.833 151.639 170.096 151.692 170.29L145.904 171.871L140.117 173.452C140.837 176.091 142.554 178.535 145.187 180.055L148.188 174.859ZM145.904 171.871L151.7 170.318C151.767 170.569 151.741 170.885 151.587 171.152L146.391 168.152L141.195 165.152C139.689 167.76 139.389 170.736 140.109 173.424L145.904 171.871ZM146.391 168.152L150.87 172.144L156.947 165.325L152.468 161.333L147.988 157.341L141.911 164.16L146.391 168.152ZM152.468 161.333L155.468 156.137L143.716 149.352L140.716 154.548L137.716 159.744L149.468 166.529L152.468 161.333ZM140.716 154.548L137.158 149.716C129.197 155.579 118.965 159.769 107.369 161.47L108.239 167.406L109.11 173.343C122.467 171.384 134.585 166.513 144.274 159.379L140.716 154.548ZM108.239 167.406L107.349 161.473C106.759 161.561 106.16 161.643 105.56 161.717L106.292 167.672L107.024 173.627C107.73 173.54 108.435 173.444 109.13 173.34L108.239 167.406ZM106.292 167.672L105.56 161.717C104.887 161.799 104.353 161.864 103.845 161.906L104.338 167.886L104.831 173.865C105.618 173.8 106.391 173.705 107.024 173.627L106.292 167.672ZM104.338 167.886L103.745 161.915C90.6316 163.217 78.4501 161.048 68.7032 156.243L66.0499 161.624L63.3965 167.005C75.3737 172.911 89.8415 175.354 104.931 173.856L104.338 167.886ZM66.0499 161.624L61.721 157.469L49.0941 170.626L53.4229 174.78L57.7517 178.935L70.3787 165.779L66.0499 161.624ZM53.4229 174.78L49.0945 170.625C49.9798 169.703 51.4145 169.673 52.3374 170.559L48.1827 174.888L44.028 179.216C47.8868 182.92 54.0479 182.793 57.7513 178.935L53.4229 174.78ZM48.1827 174.888L52.3377 170.559L43.0301 161.625L38.8751 165.953L34.7201 170.282L44.0277 179.216L48.1827 174.888ZM38.8751 165.953L43.0299 161.624C43.4714 162.048 43.4854 162.724 43.0615 163.166L38.7325 159.012L34.4035 154.857C30.2386 159.197 30.3809 166.117 34.7202 170.282L38.8751 165.953ZM38.7325 159.012L43.0612 163.166C42.8272 163.41 42.5356 163.501 42.3326 163.506L42.1807 157.508L42.0288 151.51C39.2918 151.579 36.5086 152.664 34.4038 154.857L38.7325 159.012ZM42.1807 157.508L42.3033 163.507C42.0416 163.512 41.7419 163.411 41.52 163.198L45.6749 158.869L49.8297 154.54C47.659 152.457 44.8417 151.452 42.0582 151.509L42.1807 157.508ZM45.6749 158.869L40.7282 162.265L45.8981 169.796L50.8448 166.4L55.7914 163.005L50.6215 155.473L45.6749 158.869ZM50.8448 166.4L55.1737 170.555L63.5751 161.801L59.2462 157.646L54.9172 153.492L46.5159 162.246L50.8448 166.4ZM59.2462 157.646L62.6465 152.703C60.5261 151.244 58.5756 149.642 56.8125 147.905L52.6026 152.181L48.3927 156.456C50.678 158.706 53.1743 160.752 55.8458 162.59L59.2462 157.646ZM52.6026 152.181L46.9482 150.174C49.6937 146.933 53.9242 146.328 53.9514 146.334C53.9605 146.336 53.9867 146.342 54.0038 146.346C54.0378 146.355 54.0715 146.363 54.1048 146.372C54.1715 146.389 54.2374 146.407 54.3024 146.426C54.4326 146.465 54.5594 146.507 54.6826 146.553C54.9295 146.644 55.1601 146.748 55.3742 146.859C55.8019 147.082 56.1589 147.333 56.4499 147.576C57.0172 148.05 57.3887 148.539 57.6144 148.882C58.0438 149.534 58.243 150.119 58.3213 150.366C58.4893 150.895 58.542 151.327 58.5559 151.44L52.6007 152.172L46.6455 152.904C46.6604 153.025 46.714 153.461 46.8828 153.993C46.9614 154.241 47.1609 154.826 47.5905 155.479C47.8163 155.822 48.1879 156.311 48.7552 156.785C49.0463 157.028 49.4033 157.279 49.8309 157.502C50.0451 157.614 50.2757 157.717 50.5226 157.809C50.6458 157.854 50.7726 157.896 50.9028 157.935C50.9678 157.954 51.0337 157.972 51.1004 157.99C51.1337 157.998 51.1674 158.007 51.2015 158.015C51.2186 158.019 51.2447 158.025 51.2538 158.027C51.281 158.033 55.5115 157.428 58.257 154.187L52.6026 152.181ZM52.6007 152.172L56.8111 147.897C50.8347 142.011 46.8939 134.489 45.8 125.587L39.8448 126.319L33.8896 127.051C35.3282 138.758 40.5705 148.744 48.3902 156.446L52.6007 152.172ZM39.8448 126.319L45.8 125.588C45.3 121.518 45.4363 117.5 46.1393 113.598L40.2344 112.534L34.3296 111.47C33.4178 116.53 33.2393 121.759 33.8896 127.051L39.8448 126.319ZM40.2344 112.534L44.4534 108.268C35.0494 98.9683 32.2264 86.3222 32.9086 77.3339L26.9258 76.8798L20.9431 76.4257C20.0493 88.201 23.6325 104.555 36.0155 116.8L40.2344 112.534ZM26.9258 76.8798L32.9089 77.33C33.0347 75.6583 33.8799 74.6459 35.2568 74.1171C36.7904 73.5281 39.4362 73.452 42.6232 75.2064L45.5167 69.9501L48.4101 64.6939C42.6755 61.5371 36.3326 60.8494 30.9546 62.9148C25.4198 65.0404 21.4304 69.9484 20.9428 76.4297L26.9258 76.8798ZM45.5167 69.9501L42.6248 75.2072L52.9763 80.9016L55.8682 75.6445L58.7601 70.3874L48.4086 64.693L45.5167 69.9501ZM55.8682 75.6445L61.8252 74.9269C61.7713 74.4799 61.7091 73.944 61.6633 73.5709L55.7081 74.3027L49.7529 75.0345C49.8001 75.4188 49.8434 75.7985 49.9113 76.3621L55.8682 75.6445ZM55.7081 74.3027L61.6633 73.5709C61.5636 72.76 61.4881 71.9458 61.4326 71.1278L55.4464 71.5341L49.4601 71.9404C49.529 72.9551 49.6242 73.9873 49.7529 75.0344L55.7081 74.3027ZM55.4464 71.5341L57.0323 65.7475C55.7631 65.3997 54.3229 64.6912 53.2041 63.8423L49.5772 68.622L45.9504 73.4018C48.2597 75.1541 51.0797 76.5586 53.8604 77.3207L55.4464 71.5341ZM49.5772 68.622L53.1134 63.7748C53.0713 63.7441 53.0337 63.7175 53.0022 63.6956C52.9708 63.6737 52.9437 63.6552 52.9227 63.6411C52.9019 63.6271 52.8848 63.6158 52.8743 63.6089C52.8689 63.6053 52.8645 63.6024 52.8617 63.6005C52.8591 63.5988 52.8567 63.5973 52.8567 63.5973C52.8561 63.5969 52.8576 63.5978 52.8595 63.5991C52.8615 63.6004 52.8652 63.6029 52.8699 63.6059C52.8789 63.6119 52.8945 63.6222 52.9139 63.6353C52.9334 63.6485 52.9591 63.666 52.989 63.6869C53.0191 63.7079 53.0552 63.7335 53.0959 63.7632L49.5528 68.6054L46.0097 73.4476C46.0523 73.4788 46.0905 73.5058 46.1225 73.5282C46.1545 73.5505 46.1822 73.5694 46.2038 73.5839C46.2252 73.5984 46.2428 73.61 46.2539 73.6174C46.2643 73.6242 46.2732 73.6301 46.2733 73.6301C46.2743 73.6308 46.273 73.6299 46.2715 73.6289C46.2697 73.6278 46.2663 73.6255 46.2619 73.6227C46.2535 73.6171 46.2385 73.6072 46.2197 73.5945C46.2008 73.5818 46.1757 73.5647 46.1463 73.5442C46.1168 73.5237 46.0812 73.4985 46.0411 73.4692L49.5772 68.622ZM49.5528 68.6054L52.2361 73.972L52.238 73.971L49.5548 68.6044L46.8715 63.2379L46.8695 63.2388L49.5528 68.6054ZM49.5548 68.6044L53.1903 63.8313C52.5455 63.3402 52.1757 62.9299 52.0111 62.6949C51.9359 62.5874 51.9467 62.5778 51.9829 62.6724C52.0209 62.772 52.0951 63.0099 52.1023 63.3606L46.1036 63.4843L40.1049 63.608C40.1554 66.0568 41.1458 68.0992 42.182 69.5788C43.2364 71.0843 44.574 72.353 45.9192 73.3775L49.5548 68.6044ZM46.1036 63.4843L52.1023 63.3597C52.1178 64.1065 51.8251 64.3333 52.0856 63.9589C52.3145 63.63 52.7839 63.1209 53.5377 62.5512C55.1371 61.3425 56.972 60.6285 58.0144 60.5137L57.3575 54.5497L56.7006 48.5858C52.9956 48.9939 49.1635 50.8156 46.3026 52.9776C44.8264 54.0933 43.3675 55.4782 42.2355 57.1051C41.1352 58.6864 40.0492 60.9305 40.1049 63.6089L46.1036 63.4843ZM57.3575 54.5497L63.0884 56.3264C67.0405 43.5783 77.1923 34.6377 89.7622 33.0928L89.0303 27.1376L88.2985 21.1824C70.6249 23.3545 56.8481 35.9303 51.6266 52.7731L57.3575 54.5497Z" fill="white" mask="url(#path-1-outside-1_1062_21606)"/>
<path d="M45.5169 69.9497L106.577 103.542C106.577 103.542 82.357 137.653 50.2878 120.007C31.2619 109.535 25.9347 89.9454 26.9264 76.8798C27.5399 68.7269 36.5953 65.0385 45.5169 69.9497Z" fill="#21587B"/>
<path d="M124.812 136.517L159.989 156.826C161.751 157.844 162.363 160.126 161.346 161.889L154.895 173.062C153.544 175.402 150.528 176.21 148.188 174.859C147.018 174.184 146.238 173.093 145.904 171.871C145.578 170.652 145.716 169.322 146.391 168.152L152.468 161.333L120.98 143.153C119.218 142.136 118.606 139.853 119.624 138.091L119.749 137.873C120.767 136.111 123.05 135.499 124.812 136.517Z" fill="#404040"/>
<path d="M81.5501 145.476L53.4225 174.78C52.0135 176.248 49.6506 176.296 48.1825 174.887L38.8746 165.953C36.9256 164.082 36.8616 160.96 38.7324 159.011C39.6678 158.037 40.913 157.54 42.18 157.508C43.4411 157.482 44.6996 157.934 45.6742 158.869L50.8441 166.4L76.0215 140.169C77.4306 138.701 79.7935 138.653 81.2615 140.062L81.4427 140.236C82.9107 141.645 82.9591 144.007 81.5501 145.476Z" fill="#404040"/>
<path d="M160.749 111.454C162.015 121.758 159.679 131.362 154.631 139.625C145.838 154.036 128.807 164.39 108.24 167.406C107.597 167.503 106.945 167.592 106.292 167.672C105.639 167.752 104.986 167.832 104.338 167.886C83.644 169.94 64.6217 164.016 52.6024 152.18C52.6024 152.18 52.6024 152.18 52.6013 152.172C45.7031 145.377 41.1117 136.624 39.8454 126.32C37.8578 110.145 44.5984 94.643 56.7945 83.4257C56.7945 83.4257 56.0337 76.95 55.7084 74.3029C52.7206 49.9897 67.7516 29.7523 89.0311 27.1374C110.31 24.5225 129.794 40.5185 132.782 64.8317C133.107 67.4787 132.986 72.885 132.65 73.2753C133.519 73.6745 133.936 73.9374 133.936 73.9374C148.485 81.8681 158.778 95.2771 160.767 111.46L160.749 111.454Z" fill="#4B9AE8"/>
<path d="M58.4509 71.9573C53.6814 72.0622 46.1875 67.5567 46.1038 63.4839C46.0194 59.4198 53.3124 54.5954 58.0812 54.4992C62.8508 54.3943 66.7837 56.975 66.9128 63.041C67.0449 69.1768 63.2291 71.8531 58.4595 71.958L58.4509 71.9573Z" fill="#EAC00F"/>
<path d="M113.391 82.2113L149.951 64.2016C158.875 59.8046 168.663 63.6311 169.279 71.7869C170.243 84.514 167.634 101.822 149.293 110.853C133.971 118.4 119.458 114.372 108.65 108.314C98.4997 102.631 101.127 88.249 113.386 82.2184L113.391 82.2113Z" fill="#276288"/>
<path opacity="0.5" d="M64.977 57.2098C64.977 57.2098 64.3305 59.5895 63.4398 62.1925C62.4804 64.9983 60.2064 66.7757 58.1447 67.2325C55.4627 67.8383 53.6277 68.3919 49.553 68.6057C52.6679 70.8849 56.0276 71.9766 58.4531 71.9579C63.5995 71.9186 65.9501 68.992 66.608 66.0485C67.8974 60.2724 64.977 57.2098 64.977 57.2098Z" fill="#B5950D"/>
<path d="M80.8378 62.5095C85.5226 61.9338 88.8537 57.6693 88.278 52.9846C87.7023 48.2998 83.4378 44.9687 78.7531 45.5444C74.0683 46.1201 70.7372 50.3846 71.3129 55.0693C71.8886 59.7541 76.153 63.0852 80.8378 62.5095Z" fill="white"/>
<path d="M79.6316 58.5966C82.1283 58.2898 83.9035 56.0172 83.5967 53.5205C83.2899 51.0239 81.0172 49.2486 78.5206 49.5554C76.0239 49.8622 74.2487 52.1349 74.5555 54.6315C74.8623 57.1282 77.135 58.9034 79.6316 58.5966Z" fill="#040000"/>
</svg>
