<svg width="200" height="200" viewBox="0 0 200 200" fill="none" xmlns="http://www.w3.org/2000/svg">
<mask id="path-1-outside-1_1347_4628" maskUnits="userSpaceOnUse" x="8.95727" y="30.1174" width="183.881" height="140.254" fill="black">
<rect fill="white" x="8.95727" y="30.1174" width="183.881" height="140.254"/>
<path d="M177.181 52.4344C181.681 52.906 184.948 56.9359 184.476 61.436L174.658 155.142C174.186 159.642 170.155 162.907 165.655 162.436L23.7388 147.566C19.2388 147.094 15.9733 143.065 16.4448 138.564L26.2631 44.8587C26.7347 40.3586 30.7646 37.0933 35.2646 37.5646L177.181 52.4344Z"/>
</mask>
<path d="M177.181 52.4344C181.681 52.906 184.948 56.9359 184.476 61.436L174.658 155.142C174.186 159.642 170.155 162.907 165.655 162.436L23.7388 147.566C19.2388 147.094 15.9733 143.065 16.4448 138.564L26.2631 44.8587C26.7347 40.3586 30.7646 37.0933 35.2646 37.5646L177.181 52.4344Z" fill="#DFB820"/>
<path d="M177.181 52.4344L177.806 46.4671L177.181 52.4344ZM184.476 61.436L190.443 62.0613L190.443 62.0612L184.476 61.436ZM174.658 155.142L180.625 155.767L180.625 155.767L174.658 155.142ZM23.7388 147.566L23.1134 153.533L23.1136 153.533L23.7388 147.566ZM16.4448 138.564L10.4774 137.939L10.4774 137.939L16.4448 138.564ZM26.2631 44.8587L20.2958 44.2334L20.2958 44.2335L26.2631 44.8587ZM35.2646 37.5646L35.8899 31.5973L35.8897 31.5973L35.2646 37.5646ZM177.181 52.4344L176.556 58.4018C177.761 58.5281 178.635 59.6072 178.509 60.8108L184.476 61.436L190.443 62.0612C191.26 54.2645 185.601 47.2839 177.806 46.4671L177.181 52.4344ZM184.476 61.436L178.509 60.8108L168.69 154.517L174.658 155.142L180.625 155.767L190.443 62.0613L184.476 61.436ZM174.658 155.142L168.69 154.517C168.564 155.72 167.486 156.595 166.281 156.468L165.655 162.436L165.03 168.403C172.825 169.22 179.808 163.564 180.625 155.767L174.658 155.142ZM165.655 162.436L166.281 156.468L24.3641 141.599L23.7388 147.566L23.1136 153.533L165.03 168.403L165.655 162.436ZM23.7388 147.566L24.3643 141.599C23.1596 141.472 22.2859 140.394 22.4121 139.19L16.4448 138.564L10.4774 137.939C9.66066 145.735 15.3181 152.716 23.1134 153.533L23.7388 147.566ZM16.4448 138.564L22.4121 139.19L32.2305 45.484L26.2631 44.8587L20.2958 44.2335L10.4774 137.939L16.4448 138.564ZM26.2631 44.8587L32.2305 45.484C32.3566 44.2797 33.4349 43.4058 34.6396 43.532L35.2646 37.5646L35.8897 31.5973C28.0943 30.7808 21.1127 36.4376 20.2958 44.2334L26.2631 44.8587ZM35.2646 37.5646L34.6394 43.532L176.556 58.4018L177.181 52.4344L177.806 46.4671L35.8899 31.5973L35.2646 37.5646Z" fill="white" mask="url(#path-1-outside-1_1347_4628)"/>
<path d="M26.2628 44.8583C26.7343 40.3581 30.7647 37.0922 35.2649 37.5637L177.181 52.4335C181.682 52.9051 184.948 56.9354 184.476 61.4356L174.658 155.141C174.186 159.641 170.156 162.907 165.656 162.436L23.739 147.566C19.2388 147.095 15.9729 143.064 16.4445 138.564L26.2628 44.8583Z" fill="#CAE3FF"/>
<path d="M176.563 55.6887L35.3362 40.8911C33.3148 40.6793 32.331 43.3 33.9904 44.4758L101.16 92.0696C101.726 92.4709 102.461 92.5445 103.096 92.2634L177.153 59.4671C179.004 58.6475 178.575 55.8995 176.563 55.6887Z" fill="#EDF5FF"/>
<path d="M168.203 159.382L21.9587 144.059C20.1776 143.872 19.5465 141.595 20.9758 140.512L102.139 79.0212C102.973 78.3887 104.155 78.519 104.832 79.3181L169.914 156.132C171.066 157.492 169.974 159.568 168.203 159.382Z" fill="#EDF5FF"/>
<mask id="path-5-outside-2_1347_4628" maskUnits="userSpaceOnUse" x="62.9022" y="55.4209" width="71.1039" height="67.5627" fill="black">
<rect fill="white" x="62.9022" y="55.4209" width="71.1039" height="67.5627"/>
<path d="M110.263 70.9277C121.147 75.7829 126.036 88.5428 121.181 99.4275C116.326 110.312 103.565 115.2 92.6802 110.345C83.606 106.297 78.7007 96.7556 80.1329 87.3869C77.4355 86.4226 74.342 83.4653 74.6752 81.3264C75.0517 78.9101 79.9085 76.8423 82.7613 77.292C83.2723 77.3726 83.7583 77.5014 84.2088 77.6789C90.116 69.7938 100.885 66.7448 110.263 70.9277Z"/>
</mask>
<path d="M110.263 70.9277C121.147 75.7829 126.036 88.5428 121.181 99.4275C116.326 110.312 103.565 115.2 92.6802 110.345C83.606 106.297 78.7007 96.7556 80.1329 87.3869C77.4355 86.4226 74.342 83.4653 74.6752 81.3264C75.0517 78.9101 79.9085 76.8423 82.7613 77.292C83.2723 77.3726 83.7583 77.5014 84.2088 77.6789C90.116 69.7938 100.885 66.7448 110.263 70.9277Z" fill="#DFB820"/>
<path d="M110.263 70.9277L111.255 68.7029L111.255 68.7029L110.263 70.9277ZM121.181 99.4275L123.406 100.42L123.406 100.42L121.181 99.4275ZM92.6802 110.345L91.6878 112.57L91.6878 112.57L92.6802 110.345ZM80.1329 87.3869L82.541 87.755L82.8445 85.7692L80.9529 85.093L80.1329 87.3869ZM74.6752 81.3264L72.2682 80.9514L72.2682 80.9514L74.6752 81.3264ZM82.7613 77.292L83.1407 74.8856L83.1406 74.8856L82.7613 77.292ZM84.2088 77.6789L83.3159 79.9454L85.0445 80.6264L86.1584 79.1395L84.2088 77.6789ZM110.263 70.9277L109.27 73.1524C118.926 77.4596 123.263 88.7792 118.956 98.4351L121.181 99.4275L123.406 100.42C128.809 88.3064 123.368 74.1062 111.255 68.7029L110.263 70.9277ZM121.181 99.4275L118.956 98.4351C114.649 108.091 103.329 112.428 93.6726 108.12L92.6802 110.345L91.6878 112.57C103.801 117.973 118.002 112.533 123.406 100.42L121.181 99.4275ZM92.6802 110.345L93.6726 108.12C85.6261 104.531 81.2703 96.0674 82.541 87.755L80.1329 87.3869L77.7248 87.0188C76.1311 97.4437 81.5859 108.064 91.6878 112.57L92.6802 110.345ZM80.1329 87.3869L80.9529 85.093C80.007 84.7548 78.8743 84.0057 78.0353 83.1209C77.6241 82.6873 77.3513 82.2916 77.2034 81.9841C77.0487 81.6626 77.0999 81.5883 77.0823 81.7014L74.6752 81.3264L72.2682 80.9514C72.084 82.1339 72.3969 83.2314 72.8128 84.0961C73.2355 84.9748 73.8422 85.7797 74.4999 86.4733C75.7986 87.843 77.5614 89.0547 79.3129 89.6808L80.1329 87.3869ZM74.6752 81.3264L77.0823 81.7014C77.0631 81.8243 77.0384 81.6994 77.3765 81.3773C77.6936 81.0752 78.1888 80.7395 78.8285 80.4379C80.1733 79.8039 81.5941 79.5741 82.382 79.6983L82.7613 77.292L83.1406 74.8856C81.0757 74.5601 78.6417 75.1395 76.7508 76.031C75.7726 76.4922 74.8047 77.0983 74.0161 77.8495C73.2486 78.5806 72.4756 79.6204 72.2682 80.9514L74.6752 81.3264ZM82.7613 77.292L82.3819 79.6983C82.7342 79.7539 83.0463 79.8392 83.3159 79.9454L84.2088 77.6789L85.1016 75.4123C84.4703 75.1636 83.8105 74.9912 83.1407 74.8856L82.7613 77.292ZM84.2088 77.6789L86.1584 79.1395C91.3986 72.1448 100.954 69.4431 109.27 73.1525L110.263 70.9277L111.255 68.7029C100.816 64.0466 88.8334 67.4428 82.2591 76.2183L84.2088 77.6789Z" fill="white" mask="url(#path-5-outside-2_1347_4628)"/>
<path d="M92.6812 110.345C103.566 115.2 116.326 110.312 121.181 99.4277C126.036 88.543 121.148 75.7832 110.264 70.9279C99.379 66.0727 86.6192 70.9605 81.764 81.8452C76.9087 92.7299 81.7965 105.49 92.6812 110.345Z" fill="#4B98E6"/>
<circle cx="96.5524" cy="82.2578" r="5.64803" transform="rotate(24.0399 96.5524 82.2578)" fill="white"/>
<circle cx="96.5527" cy="82.2576" r="3.38882" transform="rotate(24.0399 96.5527 82.2576)" fill="#161616"/>
<circle cx="96.5527" cy="82.2576" r="3.38882" transform="rotate(24.0399 96.5527 82.2576)" fill="#161616"/>
<path d="M81.1532 87.6566C78.2944 87.2054 74.2985 83.7423 74.675 81.3261C75.0514 78.9098 79.9079 76.8418 82.7607 77.2915C85.6135 77.7412 87.6891 79.6859 87.1277 83.286C86.5614 86.9289 84.006 88.1063 81.1472 87.6551L81.1532 87.6566Z" fill="#DFB820"/>
</svg>
