<svg width="200" height="200" viewBox="0 0 200 200" fill="none" xmlns="http://www.w3.org/2000/svg">
<mask id="path-1-outside-1_1062_17604" maskUnits="userSpaceOnUse" x="41" y="12.9995" width="118" height="174" fill="black">
<rect fill="white" x="41" y="12.9995" width="118" height="174"/>
<path d="M88.8233 20.9956C96.7873 20.5333 103.471 17.9124 114.865 23.6636C120 26.3789 122.771 29.6957 124.229 32.7808C124.232 32.7789 124.236 32.7778 124.24 32.7759C124.797 33.942 125.194 35.168 125.434 36.4214C125.442 36.4615 125.448 36.5017 125.456 36.5415C125.476 36.6492 125.496 36.7567 125.514 36.8648C126.066 40.0857 125.44 42.4136 125.44 42.4136C124.517 42.909 123.608 43.3502 122.716 43.7437C123.828 43.8663 124.938 44.0506 126.039 44.2993C126.322 44.3633 126.604 44.4334 126.885 44.5054C128.271 41.6769 129.921 38.9791 131.816 36.4507C134.051 33.1473 137.244 30.6085 140.966 29.1763C140.966 29.1763 143.363 28.645 145.585 29.4771C146.771 29.8751 147.934 30.6409 148.691 32.063C149.921 34.1991 150.482 36.6546 150.304 39.1128H149.892C149.883 39.1025 149.875 39.0928 149.866 39.0825C146.2 39.8349 142.756 41.4228 139.804 43.7261C138.385 45.2215 137.047 46.7887 135.794 48.4204C138.997 50.5054 141.801 53.1998 144.026 56.3872C148.307 62.517 150.144 70.0244 149.178 77.438C148.882 80.5216 148.124 83.5434 146.928 86.4009C145.752 89.4864 145.212 92.7782 145.341 96.0777C145.47 99.3771 146.265 102.617 147.678 105.601C153.096 117.924 153.5 131.873 148.803 144.489C144.665 157.671 135.461 168.671 123.214 175.067C110.967 181.463 96.68 182.732 83.4971 178.594C70.3142 174.457 59.3142 165.253 52.918 153.005C46.5219 140.758 45.2534 126.471 49.3907 113.289C51.2494 105.931 54.7014 99.0701 59.503 93.1929C64.3045 87.3158 70.3383 82.5648 77.1778 79.2759C83.5111 76.2264 88.427 70.8545 90.9034 64.2759C93.2177 57.1668 98.1032 51.178 104.603 47.4829C105.639 46.8939 106.704 46.3697 107.792 45.9116C97.3529 43.9775 90.273 34.502 86.085 26.0025L85.503 24.7886C85.4909 24.7634 85.4779 24.7386 85.4659 24.7134C85.3034 24.3064 85.2412 23.8663 85.2842 23.4302C85.3273 22.994 85.4741 22.574 85.7129 22.2066C85.9518 21.8392 86.2753 21.5342 86.6563 21.3179C87.0374 21.1015 87.4654 20.9802 87.9034 20.9634H88.8028C88.8095 20.9741 88.8165 20.9849 88.8233 20.9956Z"/>
</mask>
<path d="M88.8233 20.9956C96.7873 20.5333 103.471 17.9124 114.865 23.6636C120 26.3789 122.771 29.6957 124.229 32.7808C124.232 32.7789 124.236 32.7778 124.24 32.7759C124.797 33.942 125.194 35.168 125.434 36.4214C125.442 36.4615 125.448 36.5017 125.456 36.5415C125.476 36.6492 125.496 36.7567 125.514 36.8648C126.066 40.0857 125.44 42.4136 125.44 42.4136C124.517 42.909 123.608 43.3502 122.716 43.7437C123.828 43.8663 124.938 44.0506 126.039 44.2993C126.322 44.3633 126.604 44.4334 126.885 44.5054C128.271 41.6769 129.921 38.9791 131.816 36.4507C134.051 33.1473 137.244 30.6085 140.966 29.1763C140.966 29.1763 143.363 28.645 145.585 29.4771C146.771 29.8751 147.934 30.6409 148.691 32.063C149.921 34.1991 150.482 36.6546 150.304 39.1128H149.892C149.883 39.1025 149.875 39.0928 149.866 39.0825C146.2 39.8349 142.756 41.4228 139.804 43.7261C138.385 45.2215 137.047 46.7887 135.794 48.4204C138.997 50.5054 141.801 53.1998 144.026 56.3872C148.307 62.517 150.144 70.0244 149.178 77.438C148.882 80.5216 148.124 83.5434 146.928 86.4009C145.752 89.4864 145.212 92.7782 145.341 96.0777C145.47 99.3771 146.265 102.617 147.678 105.601C153.096 117.924 153.5 131.873 148.803 144.489C144.665 157.671 135.461 168.671 123.214 175.067C110.967 181.463 96.68 182.732 83.4971 178.594C70.3142 174.457 59.3142 165.253 52.918 153.005C46.5219 140.758 45.2534 126.471 49.3907 113.289C51.2494 105.931 54.7014 99.0701 59.503 93.1929C64.3045 87.3158 70.3383 82.5648 77.1778 79.2759C83.5111 76.2264 88.427 70.8545 90.9034 64.2759C93.2177 57.1668 98.1032 51.178 104.603 47.4829C105.639 46.8939 106.704 46.3697 107.792 45.9116C97.3529 43.9775 90.273 34.502 86.085 26.0025L85.503 24.7886C85.4909 24.7634 85.4779 24.7386 85.4659 24.7134C85.3034 24.3064 85.2412 23.8663 85.2842 23.4302C85.3273 22.994 85.4741 22.574 85.7129 22.2066C85.9518 21.8392 86.2753 21.5342 86.6563 21.3179C87.0374 21.1015 87.4654 20.9802 87.9034 20.9634H88.8028C88.8095 20.9741 88.8165 20.9849 88.8233 20.9956Z" fill="#46B000"/>
<path d="M88.8233 20.9956L83.7476 24.1952C84.9126 26.0433 86.99 27.1121 89.171 26.9855L88.8233 20.9956ZM114.865 23.6636L117.67 18.3595C117.636 18.3418 117.603 18.3244 117.569 18.3073L114.865 23.6636ZM124.229 32.7808L118.803 35.3435C119.494 36.8047 120.744 37.9257 122.272 38.4527C123.799 38.9798 125.475 38.8683 126.919 38.1435L124.229 32.7808ZM124.24 32.7759L129.655 30.1912C128.961 28.7363 127.71 27.6221 126.185 27.0997C124.66 26.5773 122.988 26.6905 121.548 27.414L124.24 32.7759ZM125.434 36.4214L119.54 37.5481C119.544 37.5666 119.548 37.5851 119.551 37.6036L125.434 36.4214ZM125.456 36.5415L131.358 35.4629C131.355 35.4435 131.351 35.4242 131.347 35.4049L125.456 36.5415ZM125.514 36.8648L119.589 37.814C119.593 37.8355 119.596 37.8571 119.6 37.8786L125.514 36.8648ZM125.44 42.4136L128.276 47.7012C129.735 46.919 130.806 45.5689 131.235 43.9704L125.44 42.4136ZM122.716 43.7437L120.294 38.2541C117.811 39.3495 116.373 41.9751 116.786 44.6572C117.199 47.3393 119.361 49.4102 122.058 49.7075L122.716 43.7437ZM126.039 44.2993L127.361 38.4468L127.361 38.4468L126.039 44.2993ZM126.885 44.5054L125.394 50.3172C128.148 51.0238 131.021 49.6998 132.272 47.1464L126.885 44.5054ZM131.816 36.4507L136.617 40.0498C136.676 39.9719 136.732 39.8927 136.786 39.8121L131.816 36.4507ZM140.966 29.1763L139.668 23.3184C139.376 23.383 139.09 23.4693 138.811 23.5766L140.966 29.1763ZM145.585 29.4771L143.481 35.0959C143.545 35.1201 143.61 35.1431 143.675 35.1651L145.585 29.4771ZM148.691 32.063L143.396 34.8841C143.427 34.9421 143.459 34.9995 143.491 35.0563L148.691 32.063ZM150.304 39.1128V45.1128C153.449 45.1128 156.06 42.6845 156.288 39.5479L150.304 39.1128ZM149.892 39.1128L145.199 42.852C146.338 44.2806 148.065 45.1128 149.892 45.1128V39.1128ZM149.866 39.0825L154.538 35.3179C153.129 33.5688 150.861 32.7535 148.66 33.205L149.866 39.0825ZM139.804 43.7261L136.113 38.9954C135.878 39.1791 135.656 39.3801 135.451 39.5967L139.804 43.7261ZM135.794 48.4204L131.035 44.7658C130.017 46.0922 129.598 47.7836 129.88 49.4322C130.162 51.0807 131.119 52.5367 132.521 53.4491L135.794 48.4204ZM144.026 56.3872L148.946 52.9522L148.946 52.9521L144.026 56.3872ZM149.178 77.438L143.228 76.6629C143.219 76.7304 143.212 76.7981 143.205 76.8658L149.178 77.438ZM146.928 86.4009L141.393 84.0842C141.368 84.1438 141.344 84.2038 141.321 84.2641L146.928 86.4009ZM145.341 96.0777L139.345 96.3119L139.345 96.3119L145.341 96.0777ZM147.678 105.601L153.17 103.186C153.148 103.135 153.125 103.084 153.101 103.033L147.678 105.601ZM148.803 144.489L143.18 142.395C143.143 142.493 143.109 142.592 143.078 142.692L148.803 144.489ZM123.214 175.067L125.991 180.385L125.991 180.385L123.214 175.067ZM83.4971 178.594L81.7004 184.319L81.7005 184.319L83.4971 178.594ZM52.918 153.005L47.5996 155.783L47.5996 155.783L52.918 153.005ZM49.3907 113.289L55.1154 115.085C55.1493 114.977 55.1802 114.868 55.2079 114.758L49.3907 113.289ZM59.503 93.1929L54.8565 89.3968L54.8565 89.3968L59.503 93.1929ZM77.1778 79.2759L79.778 84.6832L79.7807 84.6819L77.1778 79.2759ZM90.9034 64.2759L96.5187 66.3897C96.5506 66.3049 96.5806 66.2194 96.6086 66.1333L90.9034 64.2759ZM104.603 47.4829L101.637 42.267L101.637 42.267L104.603 47.4829ZM107.792 45.9116L110.12 51.4418C112.563 50.4133 114.042 47.9031 113.757 45.2673C113.473 42.6315 111.492 40.495 108.885 40.012L107.792 45.9116ZM86.085 26.0025L80.6748 28.5966C80.684 28.6159 80.6934 28.6352 80.7029 28.6544L86.085 26.0025ZM85.503 24.7886L80.0891 27.3752L80.0927 27.3827L85.503 24.7886ZM85.4659 24.7134L79.8931 26.937C79.9411 27.0573 79.993 27.176 80.0487 27.293L85.4659 24.7134ZM85.2842 23.4302L79.3132 22.841L79.3132 22.8412L85.2842 23.4302ZM85.7129 22.2066L80.6827 18.9359L80.6823 18.9366L85.7129 22.2066ZM86.6563 21.3179L83.694 16.1002L83.6937 16.1003L86.6563 21.3179ZM87.9034 20.9634V14.9634C87.8266 14.9634 87.7498 14.9649 87.6731 14.9678L87.9034 20.9634ZM88.8028 20.9634L93.8808 17.7675C92.7824 16.0223 90.8648 14.9634 88.8028 14.9634V20.9634ZM88.8233 20.9956L89.171 26.9855C98.3829 26.4508 102.638 24.2128 112.162 29.0199L114.865 23.6636L117.569 18.3073C104.305 11.612 95.1917 14.6159 88.4756 15.0057L88.8233 20.9956ZM114.865 23.6636L112.061 28.9677C116.127 31.118 117.937 33.5092 118.803 35.3435L124.229 32.7808L129.654 30.218C127.606 25.8823 123.874 21.6398 117.67 18.3595L114.865 23.6636ZM124.229 32.7808L126.919 38.1435C126.826 38.1905 126.742 38.2297 126.67 38.2615C126.599 38.2932 126.538 38.3189 126.49 38.3382C126.466 38.3479 126.445 38.3564 126.427 38.3634C126.409 38.3704 126.394 38.3764 126.382 38.3809C126.37 38.3854 126.361 38.3889 126.355 38.391C126.352 38.3921 126.35 38.393 126.349 38.3935C126.348 38.3939 126.347 38.3943 126.347 38.3942C126.347 38.3942 126.347 38.394 126.348 38.3939C126.348 38.3937 126.349 38.3934 126.35 38.3931C126.351 38.3925 126.354 38.3916 126.357 38.3904C126.363 38.3881 126.373 38.3843 126.385 38.3796C126.398 38.3748 126.414 38.3687 126.432 38.3614C126.45 38.3542 126.472 38.3455 126.497 38.3355C126.546 38.3157 126.608 38.2895 126.68 38.2573C126.753 38.2251 126.838 38.1853 126.933 38.1378L124.24 32.7759L121.548 27.414C121.641 27.3669 121.726 27.3277 121.797 27.2958C121.869 27.264 121.93 27.2383 121.978 27.2189C122.002 27.2091 122.023 27.2006 122.041 27.1935C122.059 27.1865 122.075 27.1805 122.086 27.176C122.098 27.1715 122.108 27.1679 122.113 27.1657C122.116 27.1646 122.119 27.1638 122.12 27.1633C122.121 27.1628 122.122 27.1624 122.122 27.1625C122.122 27.1625 122.122 27.1626 122.121 27.1628C122.121 27.1629 122.12 27.1632 122.119 27.1635C122.118 27.1641 122.115 27.165 122.112 27.1662C122.106 27.1685 122.096 27.1723 122.084 27.1769C122.072 27.1816 122.056 27.1878 122.038 27.195C122.019 27.2022 121.997 27.2109 121.973 27.2208C121.924 27.2405 121.862 27.2666 121.79 27.2987C121.717 27.3309 121.632 27.3706 121.538 27.418L124.229 32.7808ZM124.24 32.7759L118.826 35.3606C119.156 36.0519 119.395 36.7867 119.54 37.5481L125.434 36.4214L131.327 35.2947C130.993 33.5493 130.438 31.8321 129.655 30.1912L124.24 32.7759ZM125.434 36.4214L119.551 37.6036C119.547 37.5822 119.544 37.5662 119.543 37.5587C119.541 37.5519 119.541 37.5487 119.542 37.556C119.542 37.5577 119.543 37.5595 119.543 37.562C119.543 37.5643 119.544 37.5674 119.545 37.5706C119.546 37.577 119.547 37.5858 119.549 37.5958C119.553 37.6154 119.558 37.6443 119.565 37.6781L125.456 36.5415L131.347 35.4049C131.349 35.4122 131.35 35.4179 131.351 35.4215C131.351 35.4251 131.352 35.4273 131.352 35.4274C131.352 35.4275 131.352 35.4272 131.352 35.4263C131.351 35.4255 131.351 35.4243 131.351 35.4226C131.35 35.4207 131.35 35.4189 131.35 35.4162C131.349 35.4137 131.349 35.4105 131.348 35.4071C131.344 35.3848 131.332 35.3177 131.316 35.2392L125.434 36.4214ZM125.456 36.5415L119.554 37.6202C119.56 37.6542 119.566 37.688 119.571 37.7123C119.576 37.7392 119.579 37.7582 119.582 37.7753C119.589 37.8099 119.59 37.8182 119.589 37.814L125.514 36.8648L131.438 35.9156C131.407 35.7215 131.365 35.5009 131.358 35.4629L125.456 36.5415ZM125.514 36.8648L119.6 37.8786C119.773 38.8859 119.758 39.7437 119.708 40.3169C119.683 40.6 119.65 40.8014 119.631 40.9012C119.622 40.9507 119.616 40.9737 119.618 40.9675C119.618 40.9643 119.621 40.9538 119.625 40.9355C119.628 40.9263 119.631 40.9152 119.634 40.9021C119.636 40.8956 119.638 40.8885 119.64 40.881C119.641 40.8772 119.642 40.8733 119.643 40.8693C119.643 40.8673 119.644 40.8652 119.644 40.8631C119.645 40.8621 119.645 40.8605 119.645 40.86C119.646 40.8584 119.646 40.8568 125.44 42.4136C131.235 43.9704 131.235 43.9688 131.236 43.9671C131.236 43.9666 131.236 43.9649 131.237 43.9638C131.237 43.9616 131.238 43.9593 131.239 43.957C131.24 43.9525 131.241 43.9477 131.242 43.9428C131.245 43.933 131.248 43.9225 131.251 43.9115C131.256 43.8894 131.262 43.8648 131.269 43.8378C131.283 43.7839 131.298 43.7201 131.315 43.6471C131.348 43.501 131.387 43.3169 131.428 43.0978C131.51 42.6606 131.598 42.0786 131.661 41.3771C131.785 39.9811 131.807 38.0646 131.427 35.8509L125.514 36.8648ZM125.44 42.4136L122.605 37.126C121.818 37.5477 121.048 37.9217 120.294 38.2541L122.716 43.7437L125.138 49.2332C126.168 48.7787 127.215 48.2703 128.276 47.7012L125.44 42.4136ZM122.716 43.7437L122.058 49.7075C122.952 49.806 123.839 49.9536 124.717 50.1519L126.039 44.2993L127.361 38.4468C126.036 38.1475 124.704 37.9265 123.373 37.7798L122.716 43.7437ZM126.039 44.2993L124.717 50.1519C124.92 50.1977 125.138 50.2517 125.394 50.3172L126.885 44.5054L128.376 38.6936C128.07 38.6151 127.725 38.529 127.361 38.4468L126.039 44.2993ZM126.885 44.5054L132.272 47.1464C133.495 44.6527 134.948 42.2759 136.617 40.0498L131.816 36.4507L127.016 32.8516C124.894 35.6823 123.048 38.701 121.497 41.8644L126.885 44.5054ZM131.816 36.4507L136.786 39.8121C138.333 37.5252 140.544 35.7676 143.121 34.776L140.966 29.1763L138.811 23.5766C133.944 25.4494 129.768 28.7694 126.846 33.0893L131.816 36.4507ZM140.966 29.1763C142.264 35.0342 142.262 35.0345 142.261 35.0349C142.26 35.035 142.259 35.0353 142.258 35.0355C142.256 35.0359 142.254 35.0364 142.252 35.0368C142.248 35.0376 142.245 35.0384 142.241 35.0392C142.234 35.0407 142.228 35.0421 142.222 35.0434C142.21 35.046 142.199 35.0481 142.191 35.0498C142.174 35.0531 142.165 35.0549 142.162 35.0554C142.157 35.0564 142.177 35.0526 142.218 35.0468C142.303 35.0347 142.454 35.0175 142.639 35.0114C143.074 34.9971 143.369 35.0541 143.481 35.0959L145.585 29.4771L147.689 23.8582C145.579 23.0679 143.565 22.9746 142.245 23.0179C141.554 23.0406 140.966 23.1042 140.533 23.1657C140.314 23.1968 140.129 23.228 139.984 23.2548C139.912 23.2682 139.848 23.2805 139.796 23.2913C139.769 23.2967 139.745 23.3017 139.724 23.3062C139.713 23.3085 139.703 23.3106 139.694 23.3127C139.689 23.3137 139.685 23.3147 139.68 23.3156C139.678 23.3161 139.676 23.3166 139.674 23.317C139.673 23.3172 139.671 23.3176 139.671 23.3177C139.669 23.318 139.668 23.3184 140.966 29.1763ZM145.585 29.4771L143.675 35.1651C143.731 35.1838 143.685 35.177 143.594 35.1056C143.549 35.07 143.503 35.027 143.464 34.98C143.424 34.9326 143.403 34.8967 143.396 34.8841L148.691 32.063L153.987 29.2419C152.365 26.1981 149.817 24.5688 147.495 23.7891L145.585 29.4771ZM148.691 32.063L143.491 35.0563C144.123 36.1532 144.411 37.4146 144.32 38.6777L150.304 39.1128L156.288 39.5479C156.554 35.8946 155.719 32.2449 153.891 29.0697L148.691 32.063ZM150.304 39.1128V33.1128H149.892V39.1128V45.1128H150.304V39.1128ZM149.892 39.1128L154.584 35.3736C154.539 35.3175 154.502 35.2721 154.477 35.2429C154.464 35.228 154.454 35.2157 154.447 35.2073C154.44 35.1992 154.434 35.1925 154.433 35.1909C154.43 35.1874 154.433 35.1907 154.435 35.1936C154.438 35.1973 154.445 35.2052 154.454 35.2154C154.47 35.2353 154.501 35.2715 154.538 35.3179L149.866 39.0825L145.194 42.8472C145.215 42.8734 145.234 42.8966 145.251 42.916C145.267 42.9354 145.281 42.952 145.291 42.9649C145.302 42.9776 145.311 42.988 145.316 42.9942C145.319 42.9975 145.321 43.0001 145.323 43.0017C145.324 43.0026 145.324 43.0033 145.325 43.0037C145.325 43.0043 145.325 43.0042 145.325 43.0044C145.326 43.0053 145.322 43.0011 145.318 42.9956C145.313 42.9896 145.304 42.9798 145.294 42.9674C145.283 42.955 145.27 42.9388 145.254 42.9198C145.238 42.9007 145.22 42.8779 145.199 42.852L149.892 39.1128ZM149.866 39.0825L148.66 33.205C144.09 34.1428 139.795 36.1226 136.113 38.9954L139.804 43.7261L143.494 48.4567C145.717 46.723 148.31 45.5269 151.072 44.9601L149.866 39.0825ZM139.804 43.7261L135.451 39.5967C133.888 41.2441 132.415 42.9698 131.035 44.7658L135.794 48.4204L140.553 52.0751C141.68 50.6076 142.882 49.1989 144.157 47.8555L139.804 43.7261ZM135.794 48.4204L132.521 53.4491C135.085 55.1179 137.327 57.2735 139.107 59.8223L144.026 56.3872L148.946 52.9521C146.274 49.1262 142.91 45.8929 139.067 43.3918L135.794 48.4204ZM144.026 56.3872L139.107 59.8222C142.531 64.726 144.001 70.7319 143.228 76.6629L149.178 77.438L155.127 78.2131C156.286 69.3169 154.082 60.3081 148.946 52.9522L144.026 56.3872ZM149.178 77.438L143.205 76.8658C142.967 79.3493 142.356 81.783 141.393 84.0842L146.928 86.4009L152.462 88.7176C153.891 85.3038 154.798 81.6939 155.15 78.0102L149.178 77.438ZM146.928 86.4009L141.321 84.2641C139.857 88.1056 139.185 92.2038 139.345 96.3119L145.341 96.0777L151.336 95.8435C151.239 93.3525 151.647 90.8672 152.534 88.5377L146.928 86.4009ZM145.341 96.0777L139.345 96.3119C139.506 100.42 140.496 104.453 142.255 108.169L147.678 105.601L153.101 103.033C152.034 100.78 151.434 98.3345 151.336 95.8434L145.341 96.0777ZM147.678 105.601L142.185 108.016C146.976 118.91 147.332 131.242 143.18 142.395L148.803 144.489L154.426 146.582C159.667 132.504 159.217 116.937 153.17 103.186L147.678 105.601ZM148.803 144.489L143.078 142.692C139.417 154.357 131.273 164.089 120.436 169.749L123.214 175.067L125.991 180.385C139.649 173.253 149.914 160.986 154.527 146.286L148.803 144.489ZM123.214 175.067L120.436 169.749C109.6 175.408 96.9585 176.53 85.2937 172.87L83.4971 178.594L81.7005 184.319C96.4015 188.933 112.334 187.518 125.991 180.385L123.214 175.067ZM83.4971 178.594L85.2938 172.87C73.6289 169.209 63.8958 161.064 58.2364 150.228L52.918 153.005L47.5996 155.783C54.7326 169.441 66.9995 179.705 81.7004 184.319L83.4971 178.594ZM52.918 153.005L58.2364 150.228C52.577 139.391 51.4545 126.75 55.1154 115.085L49.3907 113.289L43.666 111.492C39.0522 126.193 40.4668 142.125 47.5996 155.783L52.918 153.005ZM49.3907 113.289L55.2079 114.758C56.8515 108.252 59.9039 102.186 64.1495 96.989L59.503 93.1929L54.8565 89.3968C49.4989 95.9546 45.6473 103.609 43.5734 111.819L49.3907 113.289ZM59.503 93.1929L64.1494 96.989C68.395 91.7923 73.7303 87.5913 79.778 84.6832L77.1778 79.2759L74.5776 73.8686C66.9463 77.5383 60.2139 82.8392 54.8565 89.3968L59.503 93.1929ZM77.1778 79.2759L79.7807 84.6819C87.5039 80.9632 93.4987 74.4124 96.5187 66.3897L90.9034 64.2759L85.288 62.1621C83.3552 67.2966 79.5183 71.4896 74.5748 73.8699L77.1778 79.2759ZM90.9034 64.2759L96.6086 66.1333C98.4601 60.446 102.369 55.655 107.568 52.6989L104.603 47.4829L101.637 42.267C93.8379 46.7011 87.9753 53.8876 85.1981 62.4185L90.9034 64.2759ZM104.603 47.4829L107.568 52.6989C108.398 52.2271 109.25 51.8078 110.12 51.4418L107.792 45.9116L105.464 40.3815C104.158 40.9315 102.88 41.5606 101.637 42.267L104.603 47.4829ZM107.792 45.9116L108.885 40.012C101.411 38.6273 95.4855 31.5058 91.4671 23.3505L86.085 26.0025L80.7029 28.6544C85.0604 37.4981 93.2944 49.3277 106.699 51.8112L107.792 45.9116ZM86.085 26.0025L91.4952 23.4083L90.9132 22.1945L85.503 24.7886L80.0927 27.3827L80.6748 28.5966L86.085 26.0025ZM85.503 24.7886L90.9168 22.202C90.8971 22.1608 90.8803 22.1266 90.8689 22.1038C90.8584 22.0825 90.8486 22.0631 90.847 22.0598C90.8431 22.052 90.8469 22.0595 90.8519 22.0697C90.8576 22.0812 90.8688 22.104 90.883 22.1338L85.4659 24.7134L80.0487 27.293C80.0689 27.3354 80.0862 27.3707 80.0982 27.3948C80.1094 27.4175 80.1194 27.4375 80.1218 27.4422C80.1264 27.4514 80.1229 27.4445 80.1186 27.4357C80.1135 27.4254 80.1028 27.4037 80.0892 27.3752L85.503 24.7886ZM85.4659 24.7134L91.0386 22.4898C91.2324 22.9754 91.3065 23.5 91.2552 24.0192L85.2842 23.4302L79.3132 22.8412C79.1759 24.2327 79.3745 25.6373 79.8931 26.937L85.4659 24.7134ZM85.2842 23.4302L91.2552 24.0194C91.2044 24.5347 91.0307 25.0347 90.7436 25.4765L85.7129 22.2066L80.6823 18.9366C79.9174 20.1133 79.4501 21.4534 79.3132 22.841L85.2842 23.4302ZM85.7129 22.2066L90.7431 25.4772C90.4599 25.9128 90.0752 26.2763 89.6188 26.5355L86.6563 21.3179L83.6937 16.1003C82.4753 16.7921 81.4436 17.7657 80.6827 18.9359L85.7129 22.2066ZM86.6563 21.3179L89.6186 26.5356C89.1599 26.796 88.6504 26.9391 88.1336 26.959L87.9034 20.9634L87.6731 14.9678C86.2805 15.0213 84.9148 15.407 83.694 16.1002L86.6563 21.3179ZM87.9034 20.9634V26.9634H88.8028V20.9634V14.9634H87.9034V20.9634ZM88.8028 20.9634L83.7248 24.1593C83.7339 24.1739 83.7417 24.1861 83.7472 24.1947C83.7524 24.2029 83.757 24.2101 83.7585 24.2124C83.7609 24.2162 83.7599 24.2147 83.7586 24.2126C83.757 24.2101 83.753 24.2038 83.7476 24.1952L88.8233 20.9956L93.899 17.796C93.8902 17.7821 93.8828 17.7704 93.8777 17.7625C93.873 17.7551 93.8686 17.7482 93.8676 17.7466C93.8656 17.7436 93.8668 17.7454 93.8686 17.7482C93.8706 17.7514 93.875 17.7583 93.8808 17.7675L88.8028 20.9634Z" fill="white" mask="url(#path-1-outside-1_1062_17604)"/>
<path d="M147.678 105.601C146.265 102.616 145.47 99.377 145.341 96.0774C145.212 92.7779 145.752 89.4864 146.928 86.4008C148.124 83.5433 148.883 80.5219 149.178 77.4383C150.144 70.0246 148.307 62.5175 144.027 56.3876C139.746 50.2577 133.332 45.9469 126.039 44.2997C118.746 42.6526 111.102 43.7877 104.602 47.4828C98.1029 51.178 93.2174 57.1667 90.9031 64.2758C88.4267 70.8544 83.5114 76.2263 77.1781 79.2758C70.3385 82.5647 64.3047 87.3157 59.5031 93.1929C54.7015 99.0701 51.2494 105.93 49.3906 113.288C45.2532 126.471 46.5222 140.758 52.9183 153.005C59.3145 165.252 70.3139 174.457 83.4968 178.595C96.6797 182.732 110.966 181.463 123.214 175.067C135.461 168.671 144.666 157.671 148.803 144.488C153.5 131.873 153.097 117.924 147.678 105.601Z" fill="#9FE868"/>
<path d="M112.708 117.421C110.934 121.079 104.638 125.867 100.243 124.434C95.8481 123.001 93.3175 115.165 94.4785 110.972C95.6368 106.788 99.6581 105.001 106.216 107.148C112.845 109.32 114.482 113.762 112.708 117.421Z" fill="#EAC00F"/>
<path d="M76 114C82.0751 114 87 109.075 87 103C87 96.9249 82.0751 92 76 92C69.9249 92 65 96.9249 65 103C65 109.075 69.9249 114 76 114Z" fill="white"/>
<path d="M75.8286 109.674C79.4708 109.674 82.4233 106.722 82.4233 103.079C82.4233 99.4372 79.4708 96.4846 75.8286 96.4846C72.1865 96.4846 69.2339 99.4372 69.2339 103.079C69.2339 106.722 72.1865 109.674 75.8286 109.674Z" fill="black"/>
<path d="M135 129C141.075 129 146 124.075 146 118C146 111.925 141.075 107 135 107C128.925 107 124 111.925 124 118C124 124.075 128.925 129 135 129Z" fill="white"/>
<path d="M134.829 124.674C138.471 124.674 141.423 121.722 141.423 118.079C141.423 114.437 138.471 111.485 134.829 111.485C131.186 111.485 128.234 114.437 128.234 118.079C128.234 121.722 131.186 124.674 134.829 124.674Z" fill="black"/>
<path d="M148.803 128.776C144.828 139.685 137.317 148.951 127.467 155.097C117.616 161.243 105.992 163.917 94.4461 162.692C82.9001 161.467 72.0959 156.414 63.7542 148.338C55.4125 140.261 50.0129 129.626 48.4154 118.126C46.5022 130.836 49.3557 143.804 56.4272 154.537C63.4988 165.27 74.2889 173.009 86.7224 176.266C99.1559 179.524 112.355 178.069 123.78 172.182C135.206 166.295 144.051 156.391 148.615 144.376C151.72 136.086 152.65 127.139 151.315 118.388C150.846 121.93 150.004 125.411 148.803 128.776Z" fill="#7AC93F"/>
<path d="M124.316 50.7759C126.029 45.6286 128.562 40.7915 131.816 36.4509C134.05 33.1473 137.244 30.6081 140.966 29.1759C140.966 29.1759 146.366 27.9759 148.466 31.9884C149.696 34.1246 150.257 36.5801 150.078 39.0384C146.333 39.7723 142.813 41.3781 139.803 43.7259C136.444 47.2671 133.535 51.2094 131.141 55.4634C129.669 55.4383 128.237 54.9804 127.023 54.1468C125.809 53.3132 124.868 52.1409 124.316 50.7759Z" fill="#B89558"/>
<path d="M127.204 54.3006C128.785 50.5814 130.813 47.0681 133.242 43.8381C135.483 40.55 138.676 38.0249 142.392 36.6006C143.751 36.2514 145.182 36.3027 146.513 36.7485C147.844 37.1943 149.017 38.0155 149.892 39.1131H150.304C150.483 36.6548 149.921 34.1993 148.692 32.0631C146.554 28.0506 141.192 29.2506 141.192 29.2506C137.469 30.6829 134.276 33.222 132.042 36.5256C128.78 40.8616 126.247 45.7 124.542 50.8506C125.068 52.2388 125.995 53.4395 127.204 54.3006Z" fill="#DEBB7E"/>
<path d="M125.44 42.4134C125.44 42.4134 128.553 30.9009 114.865 23.6634C103.053 17.7009 96.3025 20.7384 87.94 21.0384C87.5021 21.0553 87.0746 21.177 86.6935 21.3934C86.3123 21.6098 85.9887 21.9145 85.7499 22.282C85.511 22.6495 85.3639 23.0689 85.3208 23.5051C85.2778 23.9412 85.3401 24.3814 85.5025 24.7884C91.5025 37.6509 104.253 53.7759 125.44 42.4134Z" fill="#6DD627"/>
<path d="M88.8029 20.9634H87.9029C87.465 20.9802 87.0375 21.1019 86.6563 21.3183C86.2752 21.5347 85.9516 21.8395 85.7128 22.207C85.4739 22.5744 85.3268 22.9939 85.2837 23.43C85.2407 23.8662 85.303 24.3063 85.4654 24.7134C91.4654 37.3134 104.215 53.5884 125.403 42.2259C126.052 39.0332 125.644 35.716 124.24 32.7759C107.065 41.4009 95.5529 31.6884 88.8029 20.9634Z" fill="#46B000"/>
</svg>
