<svg width="200" height="200" viewBox="0 0 200 200" fill="none" xmlns="http://www.w3.org/2000/svg">
<mask id="path-1-outside-1_1347_721" maskUnits="userSpaceOnUse" x="2.47339" y="17" width="195" height="146" fill="black">
<rect fill="white" x="2.47339" y="17" width="195" height="146"/>
<path d="M94.9998 23C108.865 23 120.105 33.7294 120.105 46.9648C120.105 48.6142 120.014 50.1969 119.842 51.7119C120.566 51.8125 121.305 51.9687 122.05 52.1855C130.001 54.4999 150.315 67.3249 137.5 72.5C134.889 73.5543 132.367 74.078 129.97 74.1963C129.988 74.6288 130 75.0633 130 75.5C130 78.9411 129.438 82.2564 128.401 85.3691C128.434 85.4135 128.468 85.4561 128.5 85.5C128.477 85.5659 128.449 85.631 128.425 85.6982C132.353 85.8923 136.234 86.1197 140.013 86.3691C142.03 84.8226 144.307 82.4719 146.5 79C151.169 71.6068 160.002 59.5136 164.162 53.9512C164.372 53.6699 164.714 53.5224 165.063 53.5586L177.907 54.8867C178.493 54.9475 178.901 55.5001 178.785 56.0781L172.159 89.2002C177.577 89.2953 181.466 94.2349 178 98.1963C177.524 98.7702 177.035 99.3392 176.536 99.9053L190.61 106.16C191.374 106.5 191.409 107.572 190.668 107.96L182.374 112.304C182.135 112.429 181.855 112.453 181.598 112.369L168.333 108.027C160.407 114.969 150.861 121.219 140.621 126.752L180.296 143.945C183.467 145.32 183.52 149.798 180.382 151.247L170.289 155.905C169.455 156.29 168.514 156.376 167.625 156.149L108.794 141.161C106.008 142.223 103.238 143.236 100.5 144.196C71.9997 154.196 23.4997 159.696 12.4998 146.196C3.86934 135.604 15.6956 122.545 23.072 117.015C23.0804 116.891 23.1164 116.767 23.1736 116.653C24.6241 113.76 26.9528 109.284 30.9382 105.953C30.9451 105.947 30.9528 105.942 30.9597 105.937C31.4367 105.449 31.9375 104.957 32.4626 104.463L18.5876 90.5879C18.0763 90.0761 18.261 89.207 18.9363 88.9473L30.1443 84.6367C30.3733 84.5487 30.6267 84.5481 30.8562 84.6348L51.2058 92.3223C51.2125 92.3248 51.2188 92.3284 51.2253 92.3311C53.7793 91.2052 56.5341 90.1513 59.4998 89.1963C61.031 88.7032 62.721 88.2616 64.5496 87.8662C62.9073 84.0541 61.9998 79.8785 61.9998 75.5C61.9998 72.2933 62.4881 69.1957 63.3933 66.2695C60.523 63.8021 57.911 60.486 56.0417 56.0225C49.0452 39.3154 56.7696 35.6255 61.5134 38.998C63.1215 40.1413 66.3563 42.3044 70.0164 44.5928C71.2643 32.4709 81.9733 23.0001 94.9998 23Z"/>
</mask>
<path d="M94.9998 23C108.865 23 120.105 33.7294 120.105 46.9648C120.105 48.6142 120.014 50.1969 119.842 51.7119C120.566 51.8125 121.305 51.9687 122.05 52.1855C130.001 54.4999 150.315 67.3249 137.5 72.5C134.889 73.5543 132.367 74.078 129.97 74.1963C129.988 74.6288 130 75.0633 130 75.5C130 78.9411 129.438 82.2564 128.401 85.3691C128.434 85.4135 128.468 85.4561 128.5 85.5C128.477 85.5659 128.449 85.631 128.425 85.6982C132.353 85.8923 136.234 86.1197 140.013 86.3691C142.03 84.8226 144.307 82.4719 146.5 79C151.169 71.6068 160.002 59.5136 164.162 53.9512C164.372 53.6699 164.714 53.5224 165.063 53.5586L177.907 54.8867C178.493 54.9475 178.901 55.5001 178.785 56.0781L172.159 89.2002C177.577 89.2953 181.466 94.2349 178 98.1963C177.524 98.7702 177.035 99.3392 176.536 99.9053L190.61 106.16C191.374 106.5 191.409 107.572 190.668 107.96L182.374 112.304C182.135 112.429 181.855 112.453 181.598 112.369L168.333 108.027C160.407 114.969 150.861 121.219 140.621 126.752L180.296 143.945C183.467 145.32 183.52 149.798 180.382 151.247L170.289 155.905C169.455 156.29 168.514 156.376 167.625 156.149L108.794 141.161C106.008 142.223 103.238 143.236 100.5 144.196C71.9997 154.196 23.4997 159.696 12.4998 146.196C3.86934 135.604 15.6956 122.545 23.072 117.015C23.0804 116.891 23.1164 116.767 23.1736 116.653C24.6241 113.76 26.9528 109.284 30.9382 105.953C30.9451 105.947 30.9528 105.942 30.9597 105.937C31.4367 105.449 31.9375 104.957 32.4626 104.463L18.5876 90.5879C18.0763 90.0761 18.261 89.207 18.9363 88.9473L30.1443 84.6367C30.3733 84.5487 30.6267 84.5481 30.8562 84.6348L51.2058 92.3223C51.2125 92.3248 51.2188 92.3284 51.2253 92.3311C53.7793 91.2052 56.5341 90.1513 59.4998 89.1963C61.031 88.7032 62.721 88.2616 64.5496 87.8662C62.9073 84.0541 61.9998 79.8785 61.9998 75.5C61.9998 72.2933 62.4881 69.1957 63.3933 66.2695C60.523 63.8021 57.911 60.486 56.0417 56.0225C49.0452 39.3154 56.7696 35.6255 61.5134 38.998C63.1215 40.1413 66.3563 42.3044 70.0164 44.5928C71.2643 32.4709 81.9733 23.0001 94.9998 23Z" fill="#474747"/>
<path d="M94.9998 23V17H94.9997L94.9998 23ZM120.105 46.9648H126.105V46.9647L120.105 46.9648ZM119.842 51.7119L113.88 51.0353C113.513 54.2699 115.792 57.2072 119.016 57.6549L119.842 51.7119ZM122.05 52.1855L123.726 46.4246L123.726 46.4246L122.05 52.1855ZM137.5 72.5L139.746 78.0635L139.746 78.0635L137.5 72.5ZM129.97 74.1963L129.675 68.2036C126.384 68.366 123.84 71.1518 123.976 74.4438L129.97 74.1963ZM128.401 85.3691L122.709 83.4731C122.093 85.3226 122.413 87.356 123.569 88.9259L128.401 85.3691ZM128.5 85.5L134.174 87.4505C134.809 85.6023 134.505 83.5604 133.357 81.9782L128.5 85.5ZM128.425 85.6982L122.792 83.6319C122.134 85.4232 122.369 87.4203 123.422 89.0111C124.476 90.6019 126.223 91.5968 128.129 91.6909L128.425 85.6982ZM140.013 86.3691L139.618 92.3561C141.071 92.452 142.509 92.0163 143.665 91.1302L140.013 86.3691ZM146.5 79L151.573 82.204L151.573 82.204L146.5 79ZM164.162 53.9512L159.357 50.3579V50.3579L164.162 53.9512ZM165.063 53.5586L164.446 59.5267L164.446 59.5268L165.063 53.5586ZM177.907 54.8867L178.525 48.9187L178.524 48.9185L177.907 54.8867ZM178.785 56.0781L184.668 57.2551L184.668 57.2548L178.785 56.0781ZM172.159 89.2002L166.275 88.0232C165.926 89.7678 166.37 91.5774 167.486 92.9631C168.601 94.3489 170.275 95.168 172.054 95.1993L172.159 89.2002ZM178 98.1963L173.484 94.2453C173.449 94.2851 173.415 94.3255 173.381 94.3663L178 98.1963ZM176.536 99.9053L172.035 95.9375C170.772 97.3704 170.266 99.3192 170.674 101.185C171.082 103.052 172.354 104.612 174.099 105.388L176.536 99.9053ZM190.61 106.16L193.048 100.678L193.047 100.677L190.61 106.16ZM190.668 107.96L193.451 113.275L193.452 113.275L190.668 107.96ZM182.374 112.304L179.59 106.989L179.59 106.989L182.374 112.304ZM181.598 112.369L179.732 118.071L179.732 118.072L181.598 112.369ZM168.333 108.027L170.199 102.325C168.185 101.666 165.973 102.118 164.38 103.514L168.333 108.027ZM140.621 126.752L137.768 121.473C135.747 122.566 134.527 124.716 134.626 127.011C134.726 129.307 136.127 131.344 138.235 132.257L140.621 126.752ZM180.296 143.945L177.91 149.451L177.91 149.451L180.296 143.945ZM180.382 151.247L182.896 156.695H182.896L180.382 151.247ZM170.289 155.905L172.803 161.353L170.289 155.905ZM167.625 156.149L169.106 150.335L169.106 150.335L167.625 156.149ZM108.794 141.161L110.275 135.347C109.076 135.042 107.813 135.114 106.657 135.554L108.794 141.161ZM100.5 144.196L102.486 149.858L102.486 149.858L100.5 144.196ZM12.4998 146.196L7.84831 149.986L7.84835 149.986L12.4998 146.196ZM23.072 117.015L26.6711 121.815C28.0686 120.768 28.9402 119.163 29.0583 117.42L23.072 117.015ZM23.1736 116.653L17.8097 113.965L17.809 113.966L23.1736 116.653ZM30.9382 105.953L27.0905 101.349L27.0904 101.349L30.9382 105.953ZM30.9597 105.937L34.6779 110.646C34.8784 110.487 35.0687 110.316 35.2475 110.134L30.9597 105.937ZM32.4626 104.463L36.5759 108.831C37.7572 107.719 38.4376 106.175 38.462 104.553C38.4864 102.931 37.8526 101.368 36.7053 100.22L32.4626 104.463ZM18.5876 90.5879L14.3433 94.8288L14.345 94.8305L18.5876 90.5879ZM18.9363 88.9473L16.7825 83.3472L16.7824 83.3472L18.9363 88.9473ZM30.1443 84.6367L27.9911 79.0364L27.9905 79.0366L30.1443 84.6367ZM30.8562 84.6348L32.9766 79.0219L32.9747 79.0212L30.8562 84.6348ZM51.2058 92.3223L53.3262 86.7094L53.3262 86.7094L51.2058 92.3223ZM51.2253 92.3311L48.9935 97.9005C50.4917 98.5009 52.1686 98.4723 53.6455 97.8213L51.2253 92.3311ZM59.4998 89.1963L57.6606 83.4851L57.6606 83.4851L59.4998 89.1963ZM64.5496 87.8662L65.8177 93.7307C67.571 93.3515 69.0626 92.2078 69.8839 90.6131C70.7051 89.0183 70.7697 87.1398 70.06 85.4923L64.5496 87.8662ZM63.3933 66.2695L69.1253 68.0428C69.8313 65.7606 69.1162 63.2769 67.3046 61.7196L63.3933 66.2695ZM56.0417 56.0225L50.5075 58.3401L50.5075 58.3401L56.0417 56.0225ZM61.5134 38.998L58.0369 43.8882V43.8882L61.5134 38.998ZM70.0164 44.5928L66.8356 49.6803C68.592 50.7784 70.7907 50.8929 72.6516 49.9831C74.5126 49.0732 75.7727 47.2678 75.9848 45.2072L70.0164 44.5928ZM94.9998 23V29C105.817 29 114.105 37.3029 114.105 46.9649L120.105 46.9648L126.105 46.9647C126.105 30.1558 111.913 17 94.9998 17V23ZM120.105 46.9648H114.105C114.105 48.3915 114.026 49.7482 113.88 51.0353L119.842 51.7119L125.803 52.3886C126.001 50.6455 126.105 48.8369 126.105 46.9648H120.105ZM119.842 51.7119L119.016 57.6549C119.453 57.7156 119.907 57.8109 120.373 57.9465L122.05 52.1855L123.726 46.4246C122.702 46.1265 121.679 45.9095 120.667 45.7689L119.842 51.7119ZM122.05 52.1855L120.373 57.9465C123.431 58.8368 129.68 62.1468 133.484 65.6711C135.572 67.6062 135.687 68.4841 135.65 68.1549C135.592 67.6582 135.747 67.0166 136.089 66.5736C136.309 66.2883 136.273 66.5248 135.253 66.9365L137.5 72.5L139.746 78.0635C141.931 77.1815 144.063 75.8851 145.594 73.8988C147.246 71.7549 147.854 69.2442 147.571 66.7813C147.08 62.5195 144.022 59.0763 141.64 56.8689C136.502 52.1084 128.619 47.8487 123.726 46.4246L122.05 52.1855ZM137.5 72.5L135.253 66.9365C133.258 67.7422 131.395 68.1187 129.675 68.2036L129.97 74.1963L130.266 80.189C133.339 80.0373 136.52 79.3663 139.746 78.0635L137.5 72.5ZM129.97 74.1963L123.976 74.4438C123.991 74.8177 124 75.1667 124 75.5H130H136C136 74.9599 135.986 74.4398 135.965 73.9487L129.97 74.1963ZM130 75.5H124C124 78.2832 123.546 80.9589 122.709 83.4731L128.401 85.3691L134.094 87.2652C135.33 83.5539 136 79.599 136 75.5H130ZM128.401 85.3691L123.569 88.9259C123.601 88.9691 123.628 89.0056 123.647 89.0308C123.665 89.0535 123.683 89.0769 123.686 89.0818C123.694 89.0917 123.691 89.0874 123.685 89.0793C123.678 89.0701 123.662 89.0497 123.642 89.0218L128.5 85.5L133.357 81.9782C133.321 81.9284 133.29 81.8862 133.266 81.8553C133.244 81.8254 133.224 81.7995 133.215 81.7876C133.202 81.7709 133.203 81.7725 133.204 81.7735C133.207 81.7768 133.218 81.7913 133.233 81.8124L128.401 85.3691ZM128.5 85.5L122.826 83.5495C122.844 83.4965 122.859 83.4562 122.867 83.4346C122.875 83.4143 122.879 83.402 122.876 83.4118C122.875 83.4137 122.874 83.4162 122.872 83.42C122.871 83.4233 122.869 83.4288 122.867 83.4338C122.863 83.4444 122.857 83.4601 122.85 83.4779C122.836 83.5132 122.815 83.5674 122.792 83.6319L128.425 85.6982L134.058 87.7646C134.046 87.7954 134.038 87.8163 134.037 87.8184C134.037 87.8196 134.037 87.8188 134.039 87.8128C134.04 87.8112 134.047 87.7944 134.05 87.7855C134.065 87.7464 134.118 87.6123 134.174 87.4505L128.5 85.5ZM128.425 85.6982L128.129 91.6909C132.021 91.8832 135.869 92.1086 139.618 92.3561L140.013 86.3691L140.409 80.3822C136.6 80.1307 132.685 79.9013 128.72 79.7055L128.425 85.6982ZM140.013 86.3691L143.665 91.1302C146.283 89.1223 149.029 86.2311 151.573 82.204L146.5 79L141.427 75.796C139.585 78.7127 137.777 80.5229 136.362 81.6081L140.013 86.3691ZM146.5 79L151.573 82.204C156.101 75.034 164.803 63.1124 168.967 57.5444L164.162 53.9512L159.357 50.3579C155.201 55.9147 146.237 68.1797 141.427 75.796L146.5 79ZM164.162 53.9512L168.967 57.5444C167.897 58.9752 166.169 59.705 164.446 59.5267L165.063 53.5586L165.681 47.5904C163.259 47.3399 160.847 48.3645 159.357 50.3579L164.162 53.9512ZM165.063 53.5586L164.446 59.5268L177.29 60.8549L177.907 54.8867L178.524 48.9185L165.68 47.5904L165.063 53.5586ZM177.907 54.8867L177.288 60.8548C174.357 60.5509 172.323 57.7912 172.901 54.9014L178.785 56.0781L184.668 57.2548C185.478 53.2091 182.629 49.344 178.525 48.9187L177.907 54.8867ZM178.785 56.0781L172.901 54.9012L166.275 88.0232L172.159 89.2002L178.042 90.3772L184.668 57.2551L178.785 56.0781ZM172.159 89.2002L172.054 95.1993C172.512 95.2073 172.887 95.3177 173.152 95.4511C173.431 95.5911 173.513 95.715 173.491 95.6833C173.459 95.637 173.298 95.3662 173.315 94.9089C173.324 94.6907 173.372 94.5024 173.43 94.3643C173.486 94.2299 173.529 94.1944 173.484 94.2453L178 98.1963L182.515 102.147C184.188 100.236 185.212 97.8985 185.307 95.3567C185.4 92.8562 184.579 90.6018 183.33 88.8135C180.892 85.3212 176.674 83.2786 172.264 83.2011L172.159 89.2002ZM178 98.1963L173.381 94.3663C172.95 94.8864 172.501 95.409 172.035 95.9375L176.536 99.9053L181.037 103.873C181.569 103.269 182.098 102.654 182.618 102.026L178 98.1963ZM176.536 99.9053L174.099 105.388L188.173 111.643L190.61 106.16L193.047 100.677L178.973 94.4224L176.536 99.9053ZM190.61 106.16L188.173 111.643C184.35 109.943 184.181 104.584 187.884 102.645L190.668 107.96L193.452 113.275C198.636 110.56 198.398 103.056 193.048 100.678L190.61 106.16ZM190.668 107.96L187.884 102.645L179.59 106.989L182.374 112.304L185.157 117.619L193.451 113.275L190.668 107.96ZM182.374 112.304L179.59 106.989C180.773 106.369 182.169 106.243 183.465 106.667L181.598 112.369L179.732 118.072C181.54 118.663 183.497 118.489 185.158 117.619L182.374 112.304ZM181.598 112.369L183.465 106.667L170.199 102.325L168.333 108.027L166.466 113.73L179.732 118.071L181.598 112.369ZM168.333 108.027L164.38 103.514C156.886 110.077 147.742 116.084 137.768 121.473L140.621 126.752L143.473 132.031C153.979 126.354 163.929 119.861 172.286 112.541L168.333 108.027ZM140.621 126.752L138.235 132.257L177.91 149.451L180.296 143.945L182.681 138.44L143.007 121.247L140.621 126.752ZM180.296 143.945L177.91 149.451C176.325 148.764 176.298 146.524 177.867 145.799L180.382 151.247L182.896 156.695C190.743 153.073 190.61 141.876 182.681 138.44L180.296 143.945ZM180.382 151.247L177.867 145.799L167.774 150.458L170.289 155.905L172.803 161.353L182.896 156.695L180.382 151.247ZM170.289 155.905L167.774 150.458C168.192 150.265 168.662 150.222 169.106 150.335L167.625 156.149L166.143 161.964C168.367 162.53 170.718 162.315 172.803 161.353L170.289 155.905ZM167.625 156.149L169.106 150.335L110.275 135.347L108.794 141.161L107.312 146.975L166.143 161.964L167.625 156.149ZM108.794 141.161L106.657 135.554C103.921 136.597 101.201 137.592 98.5132 138.535L100.5 144.196L102.486 149.858C105.274 148.88 108.094 147.849 110.93 146.768L108.794 141.161ZM100.5 144.196L98.5132 138.535C84.8168 143.34 66.1262 147.11 49.6081 148.018C41.3473 148.472 33.8852 148.194 27.9887 147.088C21.8463 145.936 18.5249 144.092 17.1512 142.406L12.4998 146.196L7.84835 149.986C11.9746 155.05 18.8406 157.582 25.7764 158.882C32.958 160.23 41.4646 160.483 50.2664 160C67.8732 159.032 87.6827 155.052 102.486 149.858L100.5 144.196ZM12.4998 146.196L17.1512 142.406C14.9281 139.678 14.9224 136.595 17.0842 132.518C19.3288 128.285 23.4003 124.268 26.6711 121.815L23.072 117.015L19.4729 112.214C15.3674 115.292 9.83749 120.569 6.48246 126.896C3.04466 133.38 1.44095 142.123 7.84831 149.986L12.4998 146.196ZM23.072 117.015L29.0583 117.42C29.0072 118.175 28.7977 118.822 28.5382 119.341L23.1736 116.653L17.809 113.966C17.4352 114.712 17.1537 115.606 17.0857 116.609L23.072 117.015ZM23.1736 116.653L28.5375 119.342C29.9819 116.46 31.8468 113.014 34.7861 110.557L30.9382 105.953L27.0904 101.349C22.0588 105.555 19.2663 111.059 17.8097 113.965L23.1736 116.653ZM30.9382 105.953L34.786 110.557C34.7207 110.611 34.6661 110.655 34.6304 110.682C34.5953 110.71 34.5681 110.73 34.5612 110.736C34.5583 110.738 34.5541 110.741 34.5582 110.738C34.5601 110.736 34.5673 110.731 34.5763 110.724C34.5934 110.711 34.6311 110.683 34.6779 110.646L30.9597 105.937L27.2416 101.227C27.2849 101.193 27.319 101.167 27.3325 101.157C27.3396 101.152 27.3451 101.148 27.3451 101.148C27.3474 101.146 27.3414 101.15 27.3366 101.154C27.3261 101.162 27.2952 101.185 27.2566 101.215C27.2172 101.246 27.1592 101.292 27.0905 101.349L30.9382 105.953ZM30.9597 105.937L35.2475 110.134C35.6677 109.704 36.1103 109.27 36.5759 108.831L32.4626 104.463L28.3494 100.095C27.7646 100.645 27.2057 101.194 26.6719 101.74L30.9597 105.937ZM32.4626 104.463L36.7053 100.22L22.8303 86.3452L18.5876 90.5879L14.345 94.8305L28.22 108.706L32.4626 104.463ZM18.5876 90.5879L22.832 86.3469C25.3896 88.9066 24.4655 93.2491 21.0902 94.5473L18.9363 88.9473L16.7824 83.3472C12.0564 85.1649 10.763 91.2457 14.3433 94.8288L18.5876 90.5879ZM18.9363 88.9473L21.0901 94.5474L32.2981 90.2368L30.1443 84.6367L27.9905 79.0366L16.7825 83.3472L18.9363 88.9473ZM30.1443 84.6367L32.2975 90.237C31.1483 90.6789 29.8813 90.6799 28.7377 90.2483L30.8562 84.6348L32.9747 79.0212C31.372 78.4164 29.5983 78.4184 27.9911 79.0364L30.1443 84.6367ZM30.8562 84.6348L28.7358 90.2476L49.0854 97.9351L51.2058 92.3223L53.3262 86.7094L32.9766 79.0219L30.8562 84.6348ZM51.2058 92.3223L49.0854 97.9351C48.9356 97.8785 48.8162 97.8264 48.741 97.7924C48.7026 97.7751 48.6714 97.7605 48.6508 97.7508C48.6311 97.7415 48.6158 97.7341 48.6134 97.733C48.6126 97.7326 48.612 97.7323 48.6122 97.7324C48.6123 97.7324 48.6125 97.7325 48.6128 97.7327C48.6132 97.7328 48.6137 97.7331 48.6143 97.7334C48.6165 97.7344 48.6216 97.7369 48.6282 97.74C48.6409 97.7461 48.665 97.7576 48.6954 97.7717C48.7546 97.7992 48.8598 97.847 48.9935 97.9005L51.2253 92.3311L53.4572 86.7616C53.5875 86.8138 53.6895 86.8602 53.7455 86.8861C53.7743 86.8995 53.7968 86.9102 53.8079 86.9155C53.8153 86.9191 53.8278 86.9251 53.8178 86.9203C53.8138 86.9184 53.7969 86.9102 53.7755 86.9001C53.7533 86.8896 53.7205 86.8743 53.6805 86.8562C53.6021 86.8208 53.4793 86.7673 53.3262 86.7094L51.2058 92.3223ZM51.2253 92.3311L53.6455 97.8213C56.0068 96.7804 58.5675 95.7999 61.339 94.9074L59.4998 89.1963L57.6606 83.4851C54.5008 84.5027 51.5519 85.63 48.8052 86.8408L51.2253 92.3311ZM59.4998 89.1963L61.3389 94.9075C62.6448 94.4869 64.1389 94.0937 65.8177 93.7307L64.5496 87.8662L63.2814 82.0018C61.303 82.4296 59.4171 82.9195 57.6606 83.4851L59.4998 89.1963ZM64.5496 87.8662L70.06 85.4923C68.7321 82.4099 67.9998 79.0406 67.9998 75.5H61.9998H55.9998C55.9998 80.7164 57.0825 85.6982 59.0391 90.2401L64.5496 87.8662ZM61.9998 75.5H67.9998C67.9998 72.9063 68.3942 70.406 69.1253 68.0428L63.3933 66.2695L57.6613 64.4963C56.5819 67.9854 55.9998 71.6803 55.9998 75.5H61.9998ZM63.3933 66.2695L67.3046 61.7196C65.1105 59.8334 63.0697 57.2714 61.576 53.7048L56.0417 56.0225L50.5075 58.3401C52.7523 63.7006 55.9355 67.7707 59.482 70.8194L63.3933 66.2695ZM56.0417 56.0225L61.576 53.7048C59.9921 49.9226 59.3894 47.2162 59.2632 45.4195C59.135 43.5945 59.5154 43.0783 59.4353 43.2041C59.2666 43.469 58.8141 43.7998 58.2911 43.854C57.9152 43.8929 57.8577 43.7608 58.0369 43.8882L61.5134 38.998L64.99 34.1079C62.7972 32.549 59.9952 31.6134 57.0554 31.9178C53.9685 32.2373 51.1328 33.9025 49.3145 36.7567C45.9697 42.0072 46.8701 49.6545 50.5075 58.3401L56.0417 56.0225ZM61.5134 38.998L58.0369 43.8882C59.768 45.1189 63.1068 47.349 66.8356 49.6803L70.0164 44.5928L73.1972 39.5053C69.6058 37.2599 66.4751 35.1637 64.99 34.1079L61.5134 38.998ZM70.0164 44.5928L75.9848 45.2072C76.8982 36.3354 84.8539 29.0001 94.9998 29L94.9998 23L94.9997 17C79.0927 17.0001 65.6304 28.6065 64.0479 43.9783L70.0164 44.5928Z" fill="white" mask="url(#path-1-outside-1_1347_721)"/>
<path d="M61.5134 38.998C65.0537 41.5149 76.4731 48.9819 82.9737 51.8216C83.2384 51.9373 83.4401 52.1523 83.5243 52.4287C85.7988 59.8867 85.2261 73.7401 82.8554 73.5557C80.4385 73.3678 63.0379 72.7296 56.0413 56.0226C49.0447 39.3155 56.7695 35.6255 61.5134 38.998Z" fill="#276288"/>
<path d="M95 23C108.865 23 120.105 33.7294 120.105 46.9648C120.105 48.818 119.991 50.5871 119.775 52.2705C126.084 58.1705 130 66.3974 130 75.5C130 93.4493 114.778 108 96 108C77.2223 108 62 93.4493 62 75.5C62 67.3356 65.1497 59.8746 70.3506 54.166C70.052 51.9639 69.8945 49.5674 69.8945 46.9648C69.8947 33.7294 81.1349 23 95 23Z" fill="#4B9AE8"/>
<path d="M96.7533 46.5342C96.4542 48.8471 93.3359 52.079 91.0231 51.7799C88.7102 51.4807 86.5278 47.5547 86.8269 45.2419C87.1261 42.929 88.886 41.2509 92.3305 41.6961C95.775 42.1413 97.0464 44.2132 96.7472 46.5261L96.7533 46.5342Z" fill="#E8BE0F"/>
<path d="M30.8566 84.6347L51.2059 92.3222C51.9622 92.6079 52.0844 93.6265 51.4172 94.083L34.6849 105.531C34.2878 105.803 33.7534 105.753 33.4132 105.413L18.5881 90.5881C18.0764 90.0764 18.2608 89.2074 18.9362 88.9476L30.1442 84.6368C30.3734 84.5487 30.6269 84.5479 30.8566 84.6347Z" fill="#F9F9F9"/>
<path d="M146.5 79C141.7 86.6 136.5 88.8333 134.5 89L170.602 92.4151C171.112 92.4633 171.576 92.1181 171.677 91.6156L178.784 56.0777C178.9 55.4997 178.493 54.9476 177.907 54.8869L165.063 53.5583C164.714 53.5221 164.373 53.6696 164.162 53.9509C160.003 59.5132 151.169 71.6067 146.5 79Z" fill="#276288"/>
<path d="M59.5 89.1964C83.1 81.5964 144.333 86.0297 172 89.1964C177.5 89.1964 181.5 94.1963 178 98.1963C161 118.696 129 134.196 100.5 144.196C72 154.196 23.5 159.696 12.5 146.196C3.69998 135.396 16.1666 122.03 23.5 116.696C25.6666 110.696 35.9 96.7964 59.5 89.1964Z" fill="#F6F6F6"/>
<path d="M55.8535 113.408C41.0903 112.465 36.2854 108.76 32.0966 105.903C31.741 105.66 31.2689 105.677 30.9387 105.953C26.9529 109.284 24.6242 113.759 23.1736 116.653C23.0615 116.877 23.0326 117.136 23.128 117.367C24.4934 120.676 31.2294 123.071 37.5 125C43.5805 126.871 54.4741 127.867 58.72 125.122C59.2651 124.77 59.5579 124.153 59.6136 123.507C59.851 120.75 59.4694 117.753 58.2414 114.97C57.8273 114.032 56.8771 113.474 55.8535 113.408Z" fill="#31698C"/>
<path d="M180.296 143.945L130.019 122.158C129.046 121.737 127.946 121.719 126.96 122.108L102.007 131.958C98.3977 133.382 98.7279 138.596 102.488 139.554L167.625 156.15C168.514 156.376 169.455 156.29 170.289 155.905L180.382 151.247C183.52 149.798 183.468 145.319 180.296 143.945Z" fill="#F9F9F9"/>
<ellipse cx="77.5" cy="121" rx="4.5" ry="6" fill="#BBB8B8"/>
<ellipse cx="90.5" cy="117.5" rx="4.5" ry="5.5" fill="#BBB8B8"/>
<ellipse cx="102.5" cy="114.5" rx="4.5" ry="5.5" fill="#BBB8B8"/>
<ellipse cx="115.5" cy="110.5" rx="4.5" ry="5.5" fill="#BBB8B8"/>
<ellipse cx="128.5" cy="106.5" rx="4.5" ry="5.5" fill="#BBB8B8"/>
<ellipse cx="141.5" cy="103.5" rx="4.5" ry="5.5" fill="#BBB8B8"/>
<path d="M156.975 102.462L169.602 97.167C169.856 97.0604 170.143 97.0635 170.395 97.1754L190.61 106.16C191.374 106.5 191.409 107.572 190.668 107.96L182.374 112.304C182.135 112.429 181.855 112.453 181.599 112.369L157.051 104.335C156.17 104.047 156.121 102.82 156.975 102.462Z" fill="#276288"/>
<path d="M80.9211 44.8421C83.6389 44.8421 85.8421 42.6389 85.8421 39.9211C85.8421 37.2032 83.6389 35 80.9211 35C78.2032 35 76 37.2032 76 39.9211C76 42.6389 78.2032 44.8421 80.9211 44.8421Z" fill="white"/>
<path d="M80.7724 42.8654C82.3718 42.8654 83.6684 41.5688 83.6684 39.9693C83.6684 38.3699 82.3718 37.0732 80.7724 37.0732C79.1729 37.0732 77.8763 38.3699 77.8763 39.9693C77.8763 41.5688 79.1729 42.8654 80.7724 42.8654Z" fill="black"/>
<path d="M102.921 44.8421C105.639 44.8421 107.842 42.6389 107.842 39.9211C107.842 37.2032 105.639 35 102.921 35C100.203 35 98 37.2032 98 39.9211C98 42.6389 100.203 44.8421 102.921 44.8421Z" fill="white"/>
<path d="M102.772 42.8654C104.372 42.8654 105.668 41.5688 105.668 39.9693C105.668 38.3699 104.372 37.0732 102.772 37.0732C101.173 37.0732 99.8763 38.3699 99.8763 39.9693C99.8763 41.5688 101.173 42.8654 102.772 42.8654Z" fill="black"/>
<path d="M103 96.0002C87.8 91.2002 70.6667 88 64.5 87.5C69 84 82.4 76.8002 96 72.0002C109.6 67.2002 123.667 78.8333 128.5 85.5C126.667 90.8333 118.2 100.8 103 96.0002Z" fill="#4B9AE8"/>
<path d="M137.5 72.5C121.815 78.8341 109.326 66.1183 108.137 60.2781C106.949 54.438 114.098 49.8716 122.049 52.1857C130 54.4998 150.315 67.3249 137.5 72.5Z" fill="#276288"/>
<path d="M103 93L100.5 98M100.5 98L95 99.5M100.5 98L98.5 101M100.5 98L103 101" stroke="#474747" stroke-width="2" stroke-linecap="round"/>
</svg>
