<svg width="48" height="48" viewBox="0 0 48 48" fill="none" xmlns="http://www.w3.org/2000/svg">
<path d="M35.7507 12.2147C37.2221 12.0873 38.5416 13.1764 38.5908 14.6483L38.5915 14.7923L38.1915 32.2967C38.1609 33.6204 37.1021 34.673 35.7903 34.7869L35.082 34.8483L35.0819 34.8474L13.8365 36.6902C12.6064 36.7968 11.453 36.0525 11.1013 34.8886L11.0424 34.6506L7.63449 17.4775C7.33398 15.9626 8.47051 14.581 9.98903 14.4492L35.7507 12.2147Z" fill="#C0DCEB" stroke="white" stroke-width="1.42106"/>
<path d="M35.7663 12.2133C37.2694 12.083 38.5611 13.2421 38.6146 14.7305L38.6163 14.8754L38.5678 17.491L38.5566 18.1301L8.26015 20.758L8.13906 20.1304L7.64086 17.5622C7.34489 16.0333 8.43889 14.5837 9.99 14.4492L35.7663 12.2133Z" fill="#E8F4FA" stroke="white" stroke-width="1.42106"/>
<path d="M35.7286 34.0786L13.7753 35.9828C12.8003 36.0673 11.9217 35.4327 11.7389 34.5122L8.33113 17.339C8.11929 16.2711 8.91985 15.2556 10.05 15.1576L35.8117 12.923C36.9426 12.8249 37.9061 13.6874 37.8813 14.7758L37.4814 32.28C37.4599 33.2183 36.7035 33.994 35.7286 34.0786Z" fill="#C0DCEB"/>
<path d="M8.83648 19.9951L37.8578 17.4778L37.9059 14.8628C37.9266 13.7271 36.9591 12.8235 35.8275 12.9216L10.0511 15.1575C8.92029 15.2555 8.1228 16.3122 8.33881 17.4274L8.83648 19.9951Z" fill="#E8F4FA"/>
<path d="M24.9539 29.2973C27.1944 29.103 28.8532 27.1292 28.6588 24.8887C28.4645 22.6482 26.4907 20.9894 24.2502 21.1838C22.0096 21.3781 20.3509 23.3519 20.5452 25.5924C20.7396 27.8329 22.7134 29.4917 24.9539 29.2973Z" fill="#4B98E6"/>
<path d="M23.7651 23.5271L22.5012 24.5903" stroke="#11365B" stroke-width="0.423537" stroke-linecap="round"/>
<path d="M22.5015 23.5267L23.766 24.5893" stroke="#11365B" stroke-width="0.423537" stroke-linecap="round"/>
<path d="M20.9742 26.607C20.4611 26.794 19.4849 26.588 19.326 26.1548C19.1671 25.7216 19.7794 24.936 20.2914 24.7493C20.8033 24.5626 21.3238 24.6937 21.5604 25.3392C21.8002 25.9922 21.4862 26.4203 20.9731 26.6073L20.9742 26.607Z" fill="#DFB820"/>
</svg>
