<svg width="200" height="200" viewBox="0 0 200 200" fill="none" xmlns="http://www.w3.org/2000/svg">
<mask id="path-1-outside-1_1347_8094" maskUnits="userSpaceOnUse" x="22.8677" y="9" width="155" height="181" fill="black">
<rect fill="white" x="22.8677" y="9" width="155" height="181"/>
<path d="M98.7046 16.0127C102.265 15.8951 105.807 16.583 109.065 18.0254C112.323 19.4678 115.213 21.6274 117.519 24.3428C125.817 20.3202 140.26 25.2931 140.26 38.7227C140.26 38.7811 140.259 38.8394 140.258 38.8975C140.259 38.9348 140.26 38.9723 140.26 39.0098C140.314 41.744 139.807 44.4603 138.771 46.9912C138.743 46.9401 138.714 46.8897 138.686 46.8389C136.146 52.5299 131.423 54.0205 131.423 54.0205V62.6104C133.898 68.0488 135.293 74.2676 135.293 80.9863C135.293 83.1573 135.151 85.2897 134.867 87.3721C137.636 89.3226 140.105 91.2832 142.3 93.2451C144.826 92.7835 147.9 92.4752 150 93C151.703 93.4258 154.582 98.0212 157.252 103.698L165.482 103.943C170.632 106.06 172.645 111.586 169.458 114.859C167.707 116.655 165.555 118.474 163.044 119.892C163.491 121.981 163.677 123.758 163.5 125C163.095 127.828 160.463 128.988 157.356 129.295C154.883 143.612 144.155 154.389 141.193 156.714C139.086 158.368 136.963 159.858 134.832 161.197C132.681 162.594 130.395 163.859 127.99 164.98C126.378 165.755 124.766 166.452 123.156 167.073L123.725 176.693L131.044 174.72C132.168 174.653 133.208 175.048 133.988 175.741C134.768 176.434 135.289 177.426 135.355 178.543C135.487 180.777 133.766 182.715 131.532 182.848L120.843 183.48C119.155 183.58 117.692 182.28 117.592 180.592L116.913 169.124C116.682 169.187 116.451 169.247 116.221 169.308C116.189 169.46 116.159 169.611 116.126 169.761C103.172 173.123 90.6465 172.061 80.1089 169.141L79.4321 180.592C79.3322 182.28 77.8694 183.58 76.1812 183.48L65.4937 182.848C63.2591 182.715 61.5372 180.778 61.6694 178.543C61.7356 177.426 62.2566 176.434 63.0366 175.741C63.8168 175.048 64.8567 174.653 65.98 174.72L73.2993 176.693L73.8647 167.122C66.8894 164.536 61.1198 161.255 57.145 158.244C50.0976 152.905 43.1257 142.063 42.0591 129.331C38.7736 129.088 35.9216 127.953 35.4995 125C35.3096 123.67 35.5348 121.727 36.0513 119.445C33.864 118.103 31.9697 116.472 30.3979 114.859C27.2107 111.586 29.2247 106.06 34.3745 103.943L41.7349 103.724C44.4084 98.0353 47.2939 93.427 48.9995 93C51.1733 92.4566 54.3933 92.8054 56.9663 93.2939C58.0105 92.2898 59.1032 91.3244 60.2397 90.3984C61.0345 89.7307 61.8587 89.0663 62.7144 88.4072C62.7144 88.4072 62.7327 88.4243 62.769 88.457C62.8278 88.4146 62.8868 88.3723 62.9458 88.3301C62.5774 85.948 62.3804 83.4884 62.3804 80.9863C62.3804 73.9044 63.9313 67.3779 66.6636 61.7354C66.2193 62.0982 65.9859 62.4735 65.9858 62.8574V54.0205C65.9325 54.0035 61.2477 52.4977 58.7222 46.8379C58.6938 46.8889 58.6651 46.9398 58.6372 46.9912C57.6011 44.4604 57.0947 41.7439 57.1489 39.0098C57.1489 38.9621 57.1505 38.9146 57.1509 38.8672C57.1506 38.8192 57.1499 38.771 57.1499 38.7227C57.1499 25.2931 71.5927 20.3202 79.8911 24.3428C82.1976 21.6274 85.0875 19.4678 88.3452 18.0254C91.6028 16.5831 95.144 15.8951 98.7046 16.0127Z"/>
</mask>
<path d="M98.7046 16.0127C102.265 15.8951 105.807 16.583 109.065 18.0254C112.323 19.4678 115.213 21.6274 117.519 24.3428C125.817 20.3202 140.26 25.2931 140.26 38.7227C140.26 38.7811 140.259 38.8394 140.258 38.8975C140.259 38.9348 140.26 38.9723 140.26 39.0098C140.314 41.744 139.807 44.4603 138.771 46.9912C138.743 46.9401 138.714 46.8897 138.686 46.8389C136.146 52.5299 131.423 54.0205 131.423 54.0205V62.6104C133.898 68.0488 135.293 74.2676 135.293 80.9863C135.293 83.1573 135.151 85.2897 134.867 87.3721C137.636 89.3226 140.105 91.2832 142.3 93.2451C144.826 92.7835 147.9 92.4752 150 93C151.703 93.4258 154.582 98.0212 157.252 103.698L165.482 103.943C170.632 106.06 172.645 111.586 169.458 114.859C167.707 116.655 165.555 118.474 163.044 119.892C163.491 121.981 163.677 123.758 163.5 125C163.095 127.828 160.463 128.988 157.356 129.295C154.883 143.612 144.155 154.389 141.193 156.714C139.086 158.368 136.963 159.858 134.832 161.197C132.681 162.594 130.395 163.859 127.99 164.98C126.378 165.755 124.766 166.452 123.156 167.073L123.725 176.693L131.044 174.72C132.168 174.653 133.208 175.048 133.988 175.741C134.768 176.434 135.289 177.426 135.355 178.543C135.487 180.777 133.766 182.715 131.532 182.848L120.843 183.48C119.155 183.58 117.692 182.28 117.592 180.592L116.913 169.124C116.682 169.187 116.451 169.247 116.221 169.308C116.189 169.46 116.159 169.611 116.126 169.761C103.172 173.123 90.6465 172.061 80.1089 169.141L79.4321 180.592C79.3322 182.28 77.8694 183.58 76.1812 183.48L65.4937 182.848C63.2591 182.715 61.5372 180.778 61.6694 178.543C61.7356 177.426 62.2566 176.434 63.0366 175.741C63.8168 175.048 64.8567 174.653 65.98 174.72L73.2993 176.693L73.8647 167.122C66.8894 164.536 61.1198 161.255 57.145 158.244C50.0976 152.905 43.1257 142.063 42.0591 129.331C38.7736 129.088 35.9216 127.953 35.4995 125C35.3096 123.67 35.5348 121.727 36.0513 119.445C33.864 118.103 31.9697 116.472 30.3979 114.859C27.2107 111.586 29.2247 106.06 34.3745 103.943L41.7349 103.724C44.4084 98.0353 47.2939 93.427 48.9995 93C51.1733 92.4566 54.3933 92.8054 56.9663 93.2939C58.0105 92.2898 59.1032 91.3244 60.2397 90.3984C61.0345 89.7307 61.8587 89.0663 62.7144 88.4072C62.7144 88.4072 62.7327 88.4243 62.769 88.457C62.8278 88.4146 62.8868 88.3723 62.9458 88.3301C62.5774 85.948 62.3804 83.4884 62.3804 80.9863C62.3804 73.9044 63.9313 67.3779 66.6636 61.7354C66.2193 62.0982 65.9859 62.4735 65.9858 62.8574V54.0205C65.9325 54.0035 61.2477 52.4977 58.7222 46.8379C58.6938 46.8889 58.6651 46.9398 58.6372 46.9912C57.6011 44.4604 57.0947 41.7439 57.1489 39.0098C57.1489 38.9621 57.1505 38.9146 57.1509 38.8672C57.1506 38.8192 57.1499 38.771 57.1499 38.7227C57.1499 25.2931 71.5927 20.3202 79.8911 24.3428C82.1976 21.6274 85.0875 19.4678 88.3452 18.0254C91.6028 16.5831 95.144 15.8951 98.7046 16.0127Z" fill="#F4F4F4"/>
<path d="M98.7046 16.0127L98.5066 22.0094C98.6386 22.0138 98.7707 22.0138 98.9027 22.0094L98.7046 16.0127ZM109.065 18.0254L111.494 12.5391L111.494 12.5391L109.065 18.0254ZM117.519 24.3428L112.946 28.2271C114.717 30.3122 117.674 30.9352 120.136 29.7419L117.519 24.3428ZM140.26 38.7227L146.26 38.7227V38.7227H140.26ZM140.258 38.8975L134.258 38.8577C134.258 38.883 134.258 38.9083 134.258 38.9336L140.258 38.8975ZM140.26 39.0098L134.26 39.0098C134.26 39.0495 134.261 39.0891 134.261 39.1287L140.26 39.0098ZM138.771 46.9912L133.497 49.8523C134.602 51.8895 136.782 53.108 139.096 52.9824C141.411 52.8568 143.445 51.4095 144.324 49.2646L138.771 46.9912ZM138.686 46.8389L143.93 43.9231C142.826 41.9368 140.694 40.7451 138.423 40.8446C136.153 40.9442 134.133 42.3181 133.207 44.3934L138.686 46.8389ZM131.423 54.0205L129.617 48.2987C127.121 49.0867 125.423 51.4025 125.423 54.0205H131.423ZM131.423 62.6104H125.423C125.423 63.4678 125.607 64.3153 125.962 65.0957L131.423 62.6104ZM135.293 80.9863H141.293V80.9863L135.293 80.9863ZM134.867 87.3721L128.922 86.5617C128.619 88.7823 129.579 90.9865 131.411 92.2772L134.867 87.3721ZM142.3 93.2451L138.302 97.7191C139.683 98.9532 141.557 99.4804 143.379 99.1473L142.3 93.2451ZM150 93L151.455 87.1792L151.455 87.1791L150 93ZM157.252 103.698L151.823 106.252C152.785 108.297 154.815 109.628 157.074 109.696L157.252 103.698ZM165.482 103.943L167.763 98.3938C167.095 98.1192 166.383 97.9675 165.661 97.946L165.482 103.943ZM169.458 114.859L173.754 119.048L173.756 119.045L169.458 114.859ZM163.044 119.892L160.094 114.667C157.811 115.957 156.629 118.58 157.177 121.145L163.044 119.892ZM163.5 125L169.439 125.849L169.439 125.849L163.5 125ZM157.356 129.295L156.766 123.324C154.081 123.589 151.903 125.615 151.443 128.274L157.356 129.295ZM141.193 156.714L144.898 161.434H144.898L141.193 156.714ZM134.832 161.197L131.638 156.118C131.614 156.133 131.589 156.149 131.565 156.165L134.832 161.197ZM127.99 164.98L125.453 159.543C125.433 159.553 125.412 159.562 125.391 159.572L127.99 164.98ZM123.156 167.073L120.996 161.475C118.561 162.415 117.012 164.822 117.166 167.428L123.156 167.073ZM123.725 176.693L117.736 177.048C117.842 178.849 118.754 180.507 120.219 181.562C121.683 182.617 123.545 182.956 125.287 182.486L123.725 176.693ZM131.044 174.72L130.69 168.73C130.282 168.754 129.877 168.82 129.482 168.927L131.044 174.72ZM133.988 175.741L137.973 171.255L137.972 171.255L133.988 175.741ZM135.355 178.543L141.345 178.189L141.344 178.188L135.355 178.543ZM131.532 182.848L131.886 188.837L131.887 188.837L131.532 182.848ZM120.843 183.48L121.197 189.47L121.198 189.47L120.843 183.48ZM117.592 180.592L123.582 180.237L123.582 180.237L117.592 180.592ZM116.913 169.124L122.902 168.769C122.795 166.964 121.88 165.304 120.411 164.25C118.942 163.195 117.076 162.86 115.332 163.336L116.913 169.124ZM116.221 169.308L114.705 163.502C112.511 164.075 110.827 165.836 110.354 168.054L116.221 169.308ZM116.126 169.761L117.634 175.568C119.824 175 121.508 173.247 121.989 171.036L116.126 169.761ZM80.1089 169.141L81.7114 163.359C79.965 162.875 78.0934 163.206 76.6193 164.26C75.1451 165.314 74.2263 166.978 74.1193 168.787L80.1089 169.141ZM79.4321 180.592L85.4217 180.946L85.4217 180.946L79.4321 180.592ZM76.1812 183.48L75.8265 189.47H75.8267L76.1812 183.48ZM65.4937 182.848L65.8483 176.858H65.8481L65.4937 182.848ZM61.6694 178.543L55.6799 178.188L55.6799 178.189L61.6694 178.543ZM63.0366 175.741L59.052 171.255L59.0516 171.256L63.0366 175.741ZM65.98 174.72L67.5421 168.927C67.147 168.82 66.7421 168.754 66.3337 168.73L65.98 174.72ZM73.2993 176.693L71.7372 182.486C73.4799 182.956 75.3415 182.617 76.806 181.562C78.2706 180.507 79.1824 178.849 79.2889 177.047L73.2993 176.693ZM73.8647 167.122L79.8543 167.476C80.01 164.841 78.4253 162.414 75.9503 161.496L73.8647 167.122ZM57.145 158.244L53.5218 163.027L53.5219 163.027L57.145 158.244ZM42.0591 129.331L48.0381 128.83C47.7918 125.89 45.4442 123.565 42.5016 123.347L42.0591 129.331ZM35.4995 125L29.5598 125.849L29.5599 125.849L35.4995 125ZM36.0513 119.445L41.9033 120.77C42.4703 118.264 41.3794 115.676 39.1902 114.332L36.0513 119.445ZM30.3979 114.859L26.0991 119.045L26.1017 119.048L30.3979 114.859ZM34.3745 103.943L34.1955 97.946C33.4737 97.9676 32.7617 98.1193 32.0937 98.3938L34.3745 103.943ZM41.7349 103.724L41.9139 109.721C44.1735 109.654 46.2034 108.322 47.165 106.276L41.7349 103.724ZM48.9995 93L47.5443 87.1791L47.5424 87.1796L48.9995 93ZM56.9663 93.2939L55.8471 99.1886C57.7569 99.5512 59.724 98.9661 61.1252 97.6187L56.9663 93.2939ZM60.2397 90.3984L64.0295 95.0501C64.0529 95.031 64.0762 95.0117 64.0993 94.9923L60.2397 90.3984ZM62.7144 88.4072L66.7975 84.0109C64.6498 82.0161 61.3751 81.8652 59.053 83.6539L62.7144 88.4072ZM62.769 88.457L58.7514 92.9133C60.8518 94.807 63.9893 94.9769 66.2819 93.3212L62.769 88.457ZM62.9458 88.3301L66.4396 93.2079C68.2794 91.8902 69.2212 89.6494 68.8753 87.413L62.9458 88.3301ZM62.3804 80.9863L56.3804 80.9863V80.9863H62.3804ZM66.6636 61.7354L72.0638 64.3502C73.2905 61.8168 72.5912 58.7711 70.3821 57.0266C68.1731 55.2821 65.0482 55.3078 62.8681 57.0883L66.6636 61.7354ZM65.9858 62.8574H59.9858C59.9858 66.1708 62.6716 68.857 65.985 68.8574C69.2984 68.8579 71.9849 66.1724 71.9858 62.859L65.9858 62.8574ZM65.9858 54.0205H71.9858C71.9858 51.408 70.2954 49.0958 67.8061 48.3033L65.9858 54.0205ZM58.7222 46.8379L64.2014 44.393C63.2753 42.3175 61.256 40.9434 58.9855 40.8437C56.7149 40.7439 54.5829 41.9356 53.4784 43.9219L58.7222 46.8379ZM58.6372 46.9912L53.0845 49.2645C53.9627 51.4094 55.9977 52.8568 58.312 52.9824C60.6263 53.108 62.806 51.8895 63.9112 49.8522L58.6372 46.9912ZM57.1489 39.0098L63.1477 39.1287C63.1485 39.0891 63.1489 39.0495 63.1489 39.0098L57.1489 39.0098ZM57.1509 38.8672L63.1507 38.9131C63.1509 38.8868 63.1509 38.8606 63.1508 38.8343L57.1509 38.8672ZM57.1499 38.7227H51.1499V38.7227L57.1499 38.7227ZM79.8911 24.3428L77.274 29.7419C79.7358 30.9352 82.693 30.3122 84.4641 28.2271L79.8911 24.3428ZM88.3452 18.0254L85.9161 12.5391L85.9161 12.5391L88.3452 18.0254ZM98.7046 16.0127L98.9027 22.0094C101.561 21.9216 104.204 22.4352 106.636 23.5117L109.065 18.0254L111.494 12.5391C107.41 10.7308 102.97 9.86853 98.5065 10.016L98.7046 16.0127ZM109.065 18.0254L106.636 23.5117C109.067 24.5883 111.224 26.2002 112.946 28.2271L117.519 24.3428L122.092 20.4585C119.201 17.0545 115.578 14.3473 111.494 12.5391L109.065 18.0254ZM117.519 24.3428L120.136 29.7419C122.348 28.6698 126.025 28.6417 129.232 30.3105C132.142 31.8251 134.26 34.5109 134.26 38.7227H140.26H146.26C146.26 29.5049 141.157 22.9895 134.772 19.6659C128.682 16.4965 120.989 15.9932 114.902 18.9436L117.519 24.3428ZM140.26 38.7227L134.26 38.7226C134.26 38.7028 134.261 38.6927 134.26 38.7196C134.26 38.7274 134.26 38.7513 134.259 38.7709C134.259 38.7933 134.259 38.8234 134.258 38.8577L140.258 38.8975L146.258 38.9373C146.258 38.9406 146.258 38.945 146.259 38.9008C146.259 38.8695 146.26 38.801 146.26 38.7227L140.26 38.7227ZM140.258 38.8975L134.258 38.9336C134.259 38.9821 134.259 39.0228 134.26 39.0497C134.26 39.0634 134.261 39.0752 134.261 39.0835C134.261 39.0905 134.261 39.0994 134.261 39.101C134.261 39.1094 134.261 39.1008 134.261 39.0877C134.261 39.0733 134.26 39.0457 134.26 39.0098L140.26 39.0098L146.26 39.0097C146.26 38.9551 146.26 38.9088 146.259 38.8756C146.258 38.8438 146.258 38.8164 146.258 38.8061C146.257 38.7899 146.257 38.7958 146.257 38.8013C146.258 38.8095 146.258 38.8315 146.258 38.8613L140.258 38.8975ZM140.26 39.0098L134.261 39.1287C134.299 41.0424 133.944 42.9446 133.218 44.7179L138.771 46.9912L144.324 49.2646C145.67 45.9761 146.33 42.4456 146.259 38.8908L140.26 39.0098ZM138.771 46.9912L144.045 44.1301C144.009 44.0641 143.977 44.0072 143.959 43.9756C143.935 43.932 143.935 43.9328 143.93 43.9231L138.686 46.8389L133.442 49.7546C133.456 49.7792 133.468 49.8011 133.477 49.8172C133.482 49.8252 133.486 49.833 133.489 49.8389C133.493 49.8453 133.496 49.85 133.498 49.8543C133.509 49.8733 133.505 49.8672 133.497 49.8523L138.771 46.9912ZM138.686 46.8389L133.207 44.3934C132.441 46.1092 131.389 47.1213 130.585 47.7029C130.175 47.9993 129.831 48.1821 129.631 48.2769C129.532 48.3236 129.474 48.3466 129.466 48.3495C129.463 48.3508 129.473 48.347 129.497 48.3384C129.51 48.3341 129.526 48.3286 129.545 48.322C129.555 48.3187 129.566 48.3151 129.578 48.3112C129.584 48.3093 129.591 48.3073 129.597 48.3052C129.6 48.3041 129.604 48.3031 129.607 48.302C129.609 48.3015 129.611 48.3007 129.612 48.3004C129.615 48.2996 129.617 48.2987 131.423 54.0205C133.229 59.7423 133.232 59.7414 133.235 59.7406C133.236 59.7403 133.238 59.7394 133.24 59.7389C133.244 59.7377 133.247 59.7365 133.251 59.7353C133.259 59.7328 133.267 59.7303 133.275 59.7276C133.292 59.7222 133.309 59.7164 133.328 59.7101C133.366 59.6975 133.409 59.683 133.457 59.6664C133.552 59.6332 133.665 59.5917 133.796 59.5412C134.057 59.4403 134.387 59.3024 134.771 59.1205C135.536 58.7579 136.531 58.2124 137.619 57.4248C139.812 55.8383 142.391 53.2596 144.165 49.2844L138.686 46.8389ZM131.423 54.0205H125.423V62.6104H131.423H137.423V54.0205H131.423ZM131.423 62.6104L125.962 65.0957C128.073 69.7341 129.293 75.1032 129.293 80.9864L135.293 80.9863L141.293 80.9863C141.293 73.432 139.724 66.3635 136.884 60.125L131.423 62.6104ZM135.293 80.9863H129.293C129.293 82.894 129.168 84.7555 128.922 86.5617L134.867 87.3721L140.812 88.1824C141.133 85.8239 141.293 83.4206 141.293 80.9863H135.293ZM134.867 87.3721L131.411 92.2772C134.006 94.1051 136.292 95.9229 138.302 97.7191L142.3 93.2451L146.298 88.7712C143.917 86.6435 141.265 84.5401 138.322 82.467L134.867 87.3721ZM142.3 93.2451L143.379 99.1473C145.864 98.6931 147.808 98.6368 148.544 98.8209L150 93L151.455 87.1791C147.992 86.3136 143.788 86.8738 141.221 87.3429L142.3 93.2451ZM150 93L148.544 98.8208C147.77 98.6272 147.305 98.305 147.189 98.2211C147.043 98.1166 147.023 98.0779 147.129 98.1883C147.345 98.4158 147.73 98.8911 148.261 99.6938C149.31 101.277 150.558 103.563 151.823 106.252L157.252 103.698L162.682 101.144C161.276 98.1565 159.75 95.3066 158.265 93.066C157.53 91.957 156.709 90.8487 155.823 89.9175C155.125 89.1838 153.629 87.7227 151.455 87.1792L150 93ZM157.252 103.698L157.074 109.696L165.303 109.941L165.482 103.943L165.661 97.946L157.431 97.7009L157.252 103.698ZM165.482 103.943L163.201 109.493C164.365 109.971 164.841 110.698 164.958 111.021C165.013 111.17 164.972 111.164 164.997 111.025C165.027 110.855 165.115 110.719 165.159 110.673L169.458 114.859L173.756 119.045C177.189 115.52 177.65 110.803 176.234 106.914C174.854 103.127 171.749 100.032 167.763 98.3938L165.482 103.943ZM169.458 114.859L165.161 110.671C163.696 112.174 161.987 113.598 160.094 114.667L163.044 119.892L165.995 125.116C169.123 123.349 171.717 121.137 173.754 119.048L169.458 114.859ZM163.044 119.892L157.177 121.145C157.366 122.03 157.479 122.755 157.532 123.32C157.587 123.916 157.558 124.162 157.56 124.151L163.5 125L169.439 125.849C169.773 123.513 169.39 120.876 168.912 118.638L163.044 119.892ZM163.5 125L157.56 124.151C157.584 123.981 157.669 123.702 157.865 123.418C158.05 123.149 158.232 123.023 158.274 122.997C158.302 122.98 158.21 123.041 157.93 123.121C157.654 123.199 157.269 123.274 156.766 123.324L157.356 129.295L157.946 135.266C159.958 135.067 162.418 134.551 164.609 133.189C167.021 131.689 168.956 129.23 169.439 125.849L163.5 125ZM157.356 129.295L151.443 128.274C150.406 134.284 147.59 139.733 144.552 144.047C141.493 148.392 138.465 151.227 137.488 151.994L141.193 156.714L144.898 161.434C146.882 159.876 150.699 156.161 154.364 150.956C158.049 145.722 161.834 138.623 163.268 130.316L157.356 129.295ZM141.193 156.714L137.488 151.994C135.545 153.52 133.592 154.889 131.638 156.118L134.832 161.197L138.025 166.277C140.333 164.826 142.627 163.216 144.898 161.434L141.193 156.714ZM134.832 161.197L131.565 156.165C129.654 157.405 127.612 158.536 125.453 159.543L127.99 164.98L130.526 170.418C133.177 169.181 135.708 167.782 138.098 166.23L134.832 161.197ZM127.99 164.98L125.391 159.572C123.92 160.279 122.455 160.913 120.996 161.475L123.156 167.073L125.315 172.671C127.078 171.991 128.836 171.231 130.588 170.389L127.99 164.98ZM123.156 167.073L117.166 167.428L117.736 177.048L123.725 176.693L129.715 176.339L129.145 166.719L123.156 167.073ZM123.725 176.693L125.287 182.486L132.607 180.513L131.044 174.72L129.482 168.927L122.163 170.9L123.725 176.693ZM131.044 174.72L131.399 180.709C130.865 180.741 130.36 180.544 130.003 180.227L133.988 175.741L137.972 171.255C136.055 169.552 133.471 168.566 130.69 168.73L131.044 174.72ZM133.988 175.741L130.003 180.227C129.659 179.922 129.398 179.454 129.365 178.898L135.355 178.543L141.344 178.188C141.179 175.397 139.877 172.947 137.973 171.255L133.988 175.741ZM135.355 178.543L129.365 178.897C129.302 177.824 130.103 176.922 131.177 176.858L131.532 182.848L131.887 188.837C137.429 188.509 141.672 183.73 141.345 178.189L135.355 178.543ZM131.532 182.848L131.177 176.858L120.489 177.491L120.843 183.48L121.198 189.47L131.886 188.837L131.532 182.848ZM120.843 183.48L120.489 177.491C122.111 177.395 123.486 178.62 123.582 180.237L117.592 180.592L111.603 180.946C111.898 185.94 116.199 189.765 121.197 189.47L120.843 183.48ZM117.592 180.592L123.582 180.237L122.902 168.769L116.913 169.124L110.923 169.479L111.603 180.947L117.592 180.592ZM116.913 169.124L115.332 163.336C115.137 163.389 114.934 163.443 114.705 163.502L116.221 169.308L117.737 175.113C117.969 175.052 118.228 174.985 118.493 174.912L116.913 169.124ZM116.221 169.308L110.354 168.054C110.267 168.459 110.319 168.23 110.264 168.485L116.126 169.761L121.989 171.036C122.014 170.925 122.035 170.82 122.051 170.745C122.068 170.66 122.078 170.61 122.089 170.561L116.221 169.308ZM116.126 169.761L114.619 163.953C102.887 166.998 91.4537 166.059 81.7114 163.359L80.1089 169.141L78.5064 174.923C89.8392 178.064 103.457 179.247 117.634 175.568L116.126 169.761ZM80.1089 169.141L74.1193 168.787L73.4426 180.238L79.4321 180.592L85.4217 180.946L86.0984 169.495L80.1089 169.141ZM79.4321 180.592L73.4426 180.237C73.5383 178.62 74.9134 177.395 76.5356 177.491L76.1812 183.48L75.8267 189.47C80.8254 189.766 85.1262 185.94 85.4217 180.946L79.4321 180.592ZM76.1812 183.48L76.5358 177.491L65.8483 176.858L65.4937 182.848L65.139 188.837L75.8265 189.47L76.1812 183.48ZM65.4937 182.848L65.8481 176.858C66.9204 176.922 67.7225 177.823 67.659 178.897L61.6694 178.543L55.6799 178.189C55.3519 183.732 59.5977 188.509 65.1392 188.837L65.4937 182.848ZM61.6694 178.543L67.6589 178.898C67.6259 179.455 67.365 179.922 67.0217 180.227L63.0366 175.741L59.0516 171.256C57.1481 172.947 55.8452 175.397 55.6799 178.188L61.6694 178.543ZM63.0366 175.741L67.0212 180.227C66.6639 180.544 66.1595 180.741 65.6263 180.709L65.98 174.72L66.3337 168.73C63.554 168.566 60.9696 169.552 59.052 171.255L63.0366 175.741ZM65.98 174.72L64.4179 180.513L71.7372 182.486L73.2993 176.693L74.8614 170.9L67.5421 168.927L65.98 174.72ZM73.2993 176.693L79.2889 177.047L79.8543 167.476L73.8647 167.122L67.8752 166.768L67.3098 176.34L73.2993 176.693ZM73.8647 167.122L75.9503 161.496C69.4794 159.097 64.2364 156.089 60.7682 153.462L57.145 158.244L53.5219 163.027C58.0031 166.422 64.2994 169.975 71.7792 172.748L73.8647 167.122ZM57.145 158.244L60.7682 153.462C55.0533 149.132 48.9601 139.835 48.0381 128.83L42.0591 129.331L36.08 129.832C37.2914 144.292 45.1419 156.678 53.5218 163.027L57.145 158.244ZM42.0591 129.331L42.5016 123.347C41.9477 123.306 41.5094 123.234 41.1827 123.151C40.8502 123.067 40.7182 122.993 40.7187 122.993C40.7332 123.002 40.9158 123.113 41.111 123.384C41.3206 123.676 41.4132 123.97 41.4392 124.151L35.4995 125L29.5599 125.849C30.0678 129.403 32.1682 131.905 34.6924 133.37C36.9793 134.699 39.537 135.161 41.6166 135.315L42.0591 129.331ZM35.4995 125L41.4392 124.151C41.4397 124.155 41.4087 123.872 41.4785 123.198C41.5444 122.563 41.6813 121.751 41.9033 120.77L36.0513 119.445L30.1993 118.121C29.6537 120.532 29.2065 123.375 29.5598 125.849L35.4995 125ZM36.0513 119.445L39.1902 114.332C37.5204 113.307 36.0074 112.018 34.6942 110.671L30.3979 114.859L26.1017 119.048C27.9319 120.925 30.2076 122.898 32.9124 124.559L36.0513 119.445ZM30.3979 114.859L34.6968 110.674C34.7411 110.719 34.8286 110.855 34.8587 111.025C34.8834 111.164 34.8431 111.17 34.8973 111.021C35.0153 110.698 35.4911 109.971 36.6553 109.493L34.3745 103.943L32.0937 98.3938C28.1081 100.032 25.002 103.127 23.6224 106.914C22.2055 110.802 22.6665 115.52 26.0991 119.045L30.3979 114.859ZM34.3745 103.943L34.5535 109.941L41.9139 109.721L41.7349 103.724L41.5558 97.7263L34.1955 97.946L34.3745 103.943ZM41.7349 103.724L47.165 106.276C48.4314 103.581 49.682 101.289 50.7331 99.7009C51.2662 98.8957 51.6521 98.4184 51.8699 98.1892C51.9756 98.078 51.9565 98.1161 51.8117 98.2203C51.6958 98.3037 51.2314 98.6264 50.4566 98.8204L48.9995 93L47.5424 87.1796C45.3667 87.7243 43.8698 89.1879 43.1717 89.9223C42.2852 90.8551 41.4629 91.9654 40.7272 93.0767C39.2408 95.3219 37.7118 98.1777 36.3047 101.171L41.7349 103.724ZM48.9995 93L50.4547 98.8209C51.2366 98.6254 53.3002 98.705 55.8471 99.1886L56.9663 93.2939L58.0855 87.3993C55.4865 86.9058 51.11 86.2877 47.5443 87.1791L48.9995 93ZM56.9663 93.2939L61.1252 97.6187C62.047 96.7323 63.0162 95.8756 64.0295 95.0501L60.2397 90.3984L56.45 85.7468C55.1903 86.7731 53.974 87.8473 52.8074 88.9692L56.9663 93.2939ZM60.2397 90.3984L64.0993 94.9923C64.8307 94.3779 65.5888 93.7667 66.3757 93.1606L62.7144 88.4072L59.053 83.6539C58.1286 84.3659 57.2384 85.0835 56.3802 85.8046L60.2397 90.3984ZM62.7144 88.4072C58.6312 92.8036 58.6313 92.8036 58.6313 92.8037C58.6314 92.8037 58.6314 92.8038 58.6315 92.8038C58.6315 92.8039 58.6316 92.804 58.6317 92.804C58.6319 92.8042 58.632 92.8044 58.6322 92.8045C58.6326 92.8048 58.6329 92.8051 58.6332 92.8055C58.6339 92.8061 58.6347 92.8068 58.6354 92.8075C58.6369 92.8088 58.6384 92.8102 58.64 92.8117C58.6433 92.8147 58.6468 92.818 58.6506 92.8215C58.6583 92.8286 58.6671 92.8367 58.6771 92.8459C58.6972 92.8642 58.7219 92.8868 58.7514 92.9133L62.769 88.457L66.7867 84.0008C66.7798 83.9946 66.7773 83.9922 66.779 83.9938C66.7799 83.9946 66.7819 83.9964 66.785 83.9993C66.7865 84.0007 66.7883 84.0024 66.7904 84.0043C66.7915 84.0053 66.7926 84.0063 66.7938 84.0074C66.7943 84.0079 66.7949 84.0085 66.7956 84.0091C66.7959 84.0094 66.7962 84.0097 66.7965 84.01C66.7967 84.0101 66.7968 84.0103 66.797 84.0104C66.7971 84.0105 66.7972 84.0106 66.7973 84.0106C66.7973 84.0107 66.7974 84.0107 66.7974 84.0108C66.7974 84.0108 66.7975 84.0109 62.7144 88.4072ZM62.769 88.457L66.2819 93.3212C66.3296 93.2867 66.379 93.2513 66.4396 93.2079L62.9458 88.3301L59.452 83.4522C59.3946 83.4933 59.3261 83.5424 59.2562 83.5929L62.769 88.457ZM62.9458 88.3301L68.8753 87.413C68.5527 85.3272 68.3804 83.1743 68.3804 80.9863H62.3804H56.3804C56.3804 83.8025 56.602 86.5687 57.0163 89.2472L62.9458 88.3301ZM62.3804 80.9863L68.3804 80.9864C68.3804 74.7862 69.7366 69.1563 72.0638 64.3502L66.6636 61.7354L61.2634 59.1205C58.1261 65.5994 56.3804 73.0226 56.3804 80.9863L62.3804 80.9863ZM66.6636 61.7354L62.8681 57.0883C61.8154 57.9482 59.9867 59.8559 59.9858 62.8558L65.9858 62.8574L71.9858 62.859C71.9852 65.0911 70.6233 66.2482 70.459 66.3824L66.6636 61.7354ZM65.9858 62.8574H71.9858V54.0205H65.9858H59.9858V62.8574H65.9858ZM65.9858 54.0205L67.8061 48.3033C68.4466 48.5072 65.7102 47.7743 64.2014 44.393L58.7222 46.8379L53.2429 49.2828C56.7851 57.2211 63.4185 59.4999 64.1656 59.7377L65.9858 54.0205ZM58.7222 46.8379L53.4784 43.9219C53.4734 43.9309 53.411 44.0422 53.3632 44.1302L58.6372 46.9912L63.9112 49.8522C63.9101 49.8542 63.9123 49.8501 63.9221 49.8324C63.9271 49.8235 63.9322 49.8143 63.9399 49.8005C63.9469 49.7879 63.9562 49.7713 63.9659 49.7538L58.7222 46.8379ZM58.6372 46.9912L64.1899 44.7179C63.4644 42.946 63.1098 41.0437 63.1477 39.1287L57.1489 39.0098L51.1501 38.8908C51.0796 42.4442 51.7377 45.9748 53.0845 49.2645L58.6372 46.9912ZM57.1489 39.0098L63.1489 39.0098C63.1489 39.0307 63.1488 39.0459 63.1487 39.0521C63.1486 39.0577 63.1486 39.0594 63.1487 39.0502C63.1488 39.0481 63.1488 39.0458 63.1489 39.0428C63.1489 39.04 63.149 39.0364 63.1491 39.0326C63.1492 39.0251 63.1494 39.0151 63.1496 39.0039C63.1499 38.9818 63.1504 38.95 63.1507 38.9131L57.1509 38.8672L51.1511 38.8213C51.1512 38.808 51.1513 38.8 51.1513 38.8016C51.1512 38.8064 51.1512 38.807 51.1508 38.8266C51.1503 38.8522 51.1489 38.925 51.1489 39.0097L57.1489 39.0098ZM57.1509 38.8672L63.1508 38.8343C63.1507 38.8133 63.1505 38.7943 63.1504 38.7793C63.1503 38.7718 63.1503 38.7646 63.1502 38.7586C63.1502 38.7522 63.1501 38.7473 63.1501 38.7424C63.1499 38.7218 63.1499 38.7193 63.1499 38.7226L57.1499 38.7227L51.1499 38.7227C51.1499 38.7743 51.1503 38.8201 51.1505 38.8476C51.1508 38.8828 51.1509 38.8892 51.151 38.9001L57.1509 38.8672ZM57.1499 38.7227H63.1499C63.1499 34.5109 65.2685 31.8251 68.1786 30.3105C71.3851 28.6417 75.0623 28.6698 77.274 29.7419L79.8911 24.3428L82.5082 18.9436C76.4215 15.9932 68.7281 16.4965 62.6385 19.6659C56.2527 22.9895 51.1499 29.5049 51.1499 38.7227H57.1499ZM79.8911 24.3428L84.4641 28.2271C86.1857 26.2002 88.3428 24.5883 90.7743 23.5117L88.3452 18.0254L85.9161 12.5391C81.8322 14.3473 78.2094 17.0545 75.3181 20.4585L79.8911 24.3428ZM88.3452 18.0254L90.7743 23.5117C93.2057 22.4352 95.8488 21.9217 98.5066 22.0094L98.7046 16.0127L98.9026 10.016C94.4391 9.8686 89.9999 10.731 85.9161 12.5391L88.3452 18.0254Z" fill="white" mask="url(#path-1-outside-1_1347_8094)"/>
<path d="M57.5961 93.9775L34.3742 103.943C29.2243 106.06 27.2105 111.587 30.3982 114.86C35.3853 119.976 43.6115 125.289 54.1856 120.936C63.0202 117.302 66.7049 109.719 68.1616 102.941" fill="#276288"/>
<path d="M142.26 93.9775L165.482 103.943C170.632 106.06 172.646 111.587 169.458 114.86C164.471 119.976 156.245 125.289 145.671 120.936C136.836 117.302 133.152 109.719 131.695 102.941" fill="#276288"/>
<path d="M115.602 146.944L117.593 180.592C117.693 182.28 119.156 183.58 120.844 183.48L131.532 182.848C133.767 182.715 135.488 180.778 135.356 178.543C135.289 177.426 134.769 176.434 133.988 175.741C133.208 175.048 132.168 174.654 131.045 174.72L123.726 176.693L121.943 146.569C121.843 144.881 120.38 143.581 118.692 143.681L118.484 143.694C116.795 143.793 115.496 145.256 115.596 146.945L115.602 146.944Z" fill="#474747"/>
<path d="M81.4236 146.944L79.4326 180.592C79.3327 182.28 77.8697 183.58 76.1814 183.48L65.4934 182.848C63.2588 182.715 61.5376 180.778 61.6699 178.543C61.736 177.426 62.2567 176.434 63.037 175.741C63.8173 175.048 64.8571 174.654 65.9805 174.72L73.2995 176.693L75.082 146.569C75.1819 144.881 76.6449 143.581 78.3331 143.681L78.5419 143.694C80.2301 143.793 81.5296 145.256 81.4297 146.945L81.4236 146.944Z" fill="#474747"/>
<path d="M155.088 125.742C155.088 152.572 129.895 171.141 98.8329 171.141C67.7704 171.141 42.5776 152.572 42.5776 125.742C42.5776 110.695 50.5039 97.242 62.9461 88.3302C62.5776 85.9481 62.3805 83.4888 62.3805 80.9866C62.3805 57.9961 78.7044 40.8496 98.8415 40.8496C118.979 40.8496 135.294 57.9961 135.294 80.9866C135.294 83.4888 135.105 85.9395 134.728 88.3217C147.17 97.2334 155.097 110.678 155.097 125.734L155.088 125.742Z" fill="#4B9AE8"/>
<path d="M62.7147 88.408C62.7147 88.408 72.5691 97.8337 99.5614 97.8337C126.554 97.8337 134.847 87.3593 134.847 87.3593C179.27 118.637 146.718 152.378 141.193 156.714C108.13 182.667 71.2838 168.528 57.1451 157.817C43.0065 147.105 29.1703 114.246 62.7147 88.408Z" fill="#F4F4F4"/>
<path d="M79.2443 79.428C83.603 79.428 87.1365 75.8945 87.1365 71.5358C87.1365 67.177 83.603 63.6436 79.2443 63.6436C74.8855 63.6436 71.3521 67.177 71.3521 71.5358C71.3521 75.8945 74.8855 79.428 79.2443 79.428Z" fill="white"/>
<path d="M79.2447 76.0275C81.7254 76.0275 83.7365 74.0165 83.7365 71.5357C83.7365 69.055 81.7254 67.0439 79.2447 67.0439C76.764 67.0439 74.7529 69.055 74.7529 71.5357C74.7529 74.0165 76.764 76.0275 79.2447 76.0275Z" fill="#040000"/>
<path d="M117.754 79.428C122.112 79.428 125.646 75.8945 125.646 71.5358C125.646 67.177 122.112 63.6436 117.754 63.6436C113.395 63.6436 109.861 67.177 109.861 71.5358C109.861 75.8945 113.395 79.428 117.754 79.428Z" fill="white"/>
<path d="M117.754 76.0275C120.235 76.0275 122.246 74.0165 122.246 71.5357C122.246 69.055 120.235 67.0439 117.754 67.0439C115.273 67.0439 113.262 69.055 113.262 71.5357C113.262 74.0165 115.273 76.0275 117.754 76.0275Z" fill="#040000"/>
<path d="M106.699 82.0758C106.622 86.0089 102.132 92.0072 98.3101 91.9301C94.4883 91.853 90.2296 85.6833 90.3067 81.7587C90.3838 77.8256 92.9374 74.6893 98.6357 74.8007C104.403 74.9121 106.768 78.1426 106.699 82.0758Z" fill="#EAC00F"/>
<path d="M117.519 24.343C115.213 21.6276 112.323 19.4681 109.065 18.0257C105.807 16.5833 102.266 15.8953 98.705 16.0129C95.1441 15.8953 91.6027 16.5833 88.345 18.0257C85.0873 19.4681 82.1974 21.6276 79.8909 24.343C71.5925 20.3205 57.1494 25.2932 57.1494 38.7227C57.1494 51.2338 65.9863 54.021 65.9863 54.021H131.424C131.424 54.021 140.26 51.2338 140.26 38.7227C140.26 25.2932 125.817 20.3205 117.519 24.343Z" fill="#DDDDDD"/>
<path d="M79.8905 39.5483C82.1969 36.8329 85.0868 34.6734 88.3446 33.231C91.6023 31.7886 95.1437 31.1006 98.7045 31.2182C102.265 31.1006 105.807 31.7886 109.064 33.231C112.322 34.6734 115.212 36.8329 117.519 39.5483C121.353 37.9272 125.653 37.7914 129.582 39.1673C133.511 40.5433 136.786 43.3325 138.771 46.9916C139.808 44.4606 140.314 41.7442 140.26 39.0099C140.26 25.5803 125.817 20.6076 117.519 24.6301C115.212 21.9147 112.322 19.7552 109.064 18.3128C105.807 16.8704 102.265 16.1824 98.7045 16.3C95.1437 16.1824 91.6023 16.8704 88.3446 18.3128C85.0868 19.7552 82.1969 21.9147 79.8905 24.6301C71.592 20.6076 57.149 25.5803 57.149 39.0099C57.0947 41.7442 57.6014 44.4606 58.6376 46.9916C60.6225 43.3325 63.8984 40.5433 67.8272 39.1673C71.756 37.7914 76.0563 37.9272 79.8905 39.5483Z" fill="#F4F4F4"/>
<path d="M117.709 36.6006C117.709 45.0574 109.189 51.8989 98.7047 51.8989C88.2208 51.8989 79.7007 45.0574 79.7007 36.6006" stroke="#45413C" stroke-width="2.37551" stroke-linecap="round" stroke-linejoin="round"/>
<path d="M65.9858 54.0214C65.9858 50.854 80.619 48.4785 98.7045 48.4785C116.79 48.4785 131.423 50.949 131.423 54.0214V62.8583C131.423 59.6909 116.79 57.3154 98.7045 57.3154C80.619 57.3154 65.9858 59.8176 65.9858 62.8583V54.0214Z" fill="#DDDDDD"/>
<path d="M62.7148 88.8359C62.7876 88.9052 72.6692 98.2617 99.5615 98.2617C106.523 98.2617 112.24 97.5624 116.893 96.5283C118.272 105.042 119.518 116.435 119.698 130.396C119.925 147.928 117.994 161.171 116.126 169.761C91.142 176.244 67.7522 166.28 57.1445 158.244C43.0059 147.533 29.1706 114.674 62.7148 88.8359Z" fill="#ECECEC"/>
<path d="M92.1171 115.4C91.4779 115.4 90.8649 115.654 90.4129 116.106C89.9609 116.558 89.707 117.171 89.707 117.81C89.707 118.45 89.9609 119.063 90.4129 119.515C90.8649 119.967 91.4779 120.22 92.1171 120.22C92.7562 120.22 93.3692 119.967 93.8212 119.515C94.2732 119.063 94.5271 118.45 94.5271 117.81C94.5271 117.171 94.2732 116.558 93.8212 116.106C93.3692 115.654 92.7562 115.4 92.1171 115.4Z" fill="#45413C"/>
<path d="M105.966 115.4C105.49 115.4 105.024 115.542 104.627 115.807C104.231 116.071 103.922 116.448 103.74 116.888C103.557 117.329 103.509 117.813 103.602 118.281C103.695 118.748 103.925 119.178 104.262 119.515C104.599 119.852 105.029 120.081 105.496 120.174C105.964 120.267 106.448 120.219 106.888 120.037C107.329 119.855 107.705 119.546 107.97 119.149C108.235 118.753 108.376 118.287 108.376 117.81C108.376 117.171 108.122 116.558 107.67 116.106C107.218 115.654 106.605 115.4 105.966 115.4Z" fill="#45413C"/>
<path d="M92.1171 126.357C91.6404 126.357 91.1744 126.499 90.7781 126.764C90.3818 127.028 90.0729 127.405 89.8905 127.845C89.7081 128.286 89.6603 128.77 89.7533 129.238C89.8463 129.705 90.0759 130.135 90.4129 130.472C90.75 130.809 91.1794 131.038 91.6469 131.131C92.1144 131.224 92.599 131.176 93.0393 130.994C93.4797 130.812 93.8561 130.503 94.1209 130.106C94.3857 129.71 94.5271 129.244 94.5271 128.767C94.5271 128.128 94.2732 127.515 93.8212 127.063C93.3692 126.611 92.7562 126.357 92.1171 126.357Z" fill="#45413C"/>
<path d="M105.966 126.357C105.327 126.357 104.714 126.611 104.262 127.063C103.81 127.515 103.556 128.128 103.556 128.767C103.556 129.407 103.81 130.02 104.262 130.472C104.714 130.924 105.327 131.177 105.966 131.177C106.605 131.177 107.218 130.924 107.67 130.472C108.122 130.02 108.376 129.407 108.376 128.767C108.376 128.128 108.122 127.515 107.67 127.063C107.218 126.611 106.605 126.357 105.966 126.357Z" fill="#45413C"/>
<path d="M48.9999 92.9998C52.1999 92.1998 57.6665 93.3331 59.9999 93.9998L50.5 128.5C45.8333 129.666 36.2999 130.6 35.4999 125C34.4999 118 44.9999 93.9998 48.9999 92.9998Z" fill="#ECECEC"/>
<path d="M149.999 92.9998C146.799 92.1998 141.332 93.3331 138.999 93.9998L148.499 128.5C153.166 129.666 162.699 130.6 163.499 125C164.499 118 153.999 93.9998 149.999 92.9998Z" fill="#F4F4F4"/>
</svg>
