<svg width="200" height="200" viewBox="0 0 200 200" fill="none" xmlns="http://www.w3.org/2000/svg">
<mask id="path-1-outside-1_1347_3964" maskUnits="userSpaceOnUse" x="13.9998" y="37" width="171" height="135" fill="black">
<rect fill="white" x="13.9998" y="37" width="171" height="135"/>
<path d="M66.5564 45.1504C69.4242 42.2831 74.0712 42.2833 76.9392 45.1504L78.821 47.0537L80.571 45.3037C83.4585 42.4162 88.1347 42.4162 91.0222 45.3037L108.446 62.7275C111.334 65.6105 111.335 70.2918 108.442 73.1748L106.536 75.0801L174.681 143.992C179.456 148.772 179.456 156.519 174.677 161.298L174.557 161.416C169.777 166.196 162.031 166.196 157.257 161.416L89.158 92.5508C80.4107 102.16 77.9803 111.751 78.5984 122.656C78.6006 122.657 78.603 122.658 78.6052 122.658C78.8416 126.817 79.5068 131.163 80.4578 135.78C56.0659 139.264 17.7379 100.937 21.2214 76.5449C25.6465 77.4321 29.6138 77.8558 33.3142 77.7871L34.3259 77.7549C44.0968 77.3218 52.0033 73.2414 61.364 64.4443L59.5154 62.5752C56.6474 59.7072 56.6474 55.0603 59.5154 52.1924L66.5564 45.1504Z"/>
</mask>
<path d="M66.5564 45.1504C69.4242 42.2831 74.0712 42.2833 76.9392 45.1504L78.821 47.0537L80.571 45.3037C83.4585 42.4162 88.1347 42.4162 91.0222 45.3037L108.446 62.7275C111.334 65.6105 111.335 70.2918 108.442 73.1748L106.536 75.0801L174.681 143.992C179.456 148.772 179.456 156.519 174.677 161.298L174.557 161.416C169.777 166.196 162.031 166.196 157.257 161.416L89.158 92.5508C80.4107 102.16 77.9803 111.751 78.5984 122.656C78.6006 122.657 78.603 122.658 78.6052 122.658C78.8416 126.817 79.5068 131.163 80.4578 135.78C56.0659 139.264 17.7379 100.937 21.2214 76.5449C25.6465 77.4321 29.6138 77.8558 33.3142 77.7871L34.3259 77.7549C44.0968 77.3218 52.0033 73.2414 61.364 64.4443L59.5154 62.5752C56.6474 59.7072 56.6474 55.0603 59.5154 52.1924L66.5564 45.1504Z" fill="#CAE3FF"/>
<path d="M66.5564 45.1504L62.3141 40.9074L62.3135 40.908L66.5564 45.1504ZM76.9392 45.1504L81.2059 40.9319C81.1977 40.9236 81.1894 40.9153 81.1812 40.9071L76.9392 45.1504ZM78.821 47.0537L74.5544 51.2722C75.6774 52.408 77.2068 53.0492 78.804 53.0537C80.4012 53.0582 81.9343 52.4257 83.0637 51.2964L78.821 47.0537ZM91.0222 45.3037L95.2649 41.0611L95.2648 41.061L91.0222 45.3037ZM108.446 62.7275L104.203 66.9702L104.207 66.9739L108.446 62.7275ZM108.442 73.1748L104.207 68.9252L104.201 68.9311L108.442 73.1748ZM106.536 75.0801L102.294 70.8364C99.9594 73.1701 99.9484 76.9516 102.27 79.2989L106.536 75.0801ZM174.681 143.992L170.415 148.211C170.422 148.218 170.429 148.226 170.437 148.233L174.681 143.992ZM174.677 161.298L178.902 165.558C178.907 165.552 178.913 165.546 178.919 165.541L174.677 161.298ZM174.557 161.416L170.332 157.156C170.326 157.162 170.321 157.167 170.315 157.173L174.557 161.416ZM157.257 161.416L152.99 165.635C152.997 165.642 153.005 165.649 153.012 165.656L157.257 161.416ZM89.158 92.5508L93.4243 88.332C92.2669 87.1616 90.6796 86.5181 89.034 86.5521C87.3884 86.5861 85.829 87.2946 84.721 88.5118L89.158 92.5508ZM78.5984 122.656L72.608 122.996C72.7487 125.478 74.4059 127.617 76.7747 128.372L78.5984 122.656ZM78.6052 122.658L84.5956 122.318C84.4545 119.835 82.7971 117.697 80.4283 116.942L78.6052 122.658ZM80.4578 135.78L81.3061 141.72C82.9445 141.486 84.4135 140.586 85.3656 139.232C86.3177 137.878 86.6683 136.191 86.3344 134.57L80.4578 135.78ZM21.2214 76.5449L22.401 70.662C20.7835 70.3377 19.1039 70.6936 17.7571 71.6461C16.4102 72.5986 15.5149 74.0636 15.2817 75.6966L21.2214 76.5449ZM33.3142 77.7871L33.4256 83.7861C33.4522 83.7856 33.4787 83.7849 33.5052 83.7841L33.3142 77.7871ZM34.3259 77.7549L34.517 83.7518C34.5418 83.751 34.5667 83.7501 34.5916 83.749L34.3259 77.7549ZM61.364 64.4443L65.473 68.8166C66.6519 67.7086 67.3335 66.1715 67.363 64.554C67.3926 62.9364 66.7677 61.3754 65.63 60.2252L61.364 64.4443ZM59.5154 62.5752L63.7814 58.356C63.7736 58.3482 63.7658 58.3404 63.758 58.3326L59.5154 62.5752ZM59.5154 52.1924L63.758 56.435L63.7583 56.4347L59.5154 52.1924ZM66.5564 45.1504L70.7987 49.3934C71.3231 48.869 72.1719 48.8686 72.6972 49.3937L76.9392 45.1504L81.1812 40.9071C75.9705 35.6981 67.5253 35.6971 62.3141 40.9074L66.5564 45.1504ZM76.9392 45.1504L72.6726 49.3689L74.5544 51.2722L78.821 47.0537L83.0877 42.8352L81.2059 40.9319L76.9392 45.1504ZM78.821 47.0537L83.0637 51.2964L84.8137 49.5464L80.571 45.3037L76.3284 41.0611L74.5784 42.8111L78.821 47.0537ZM80.571 45.3037L84.8137 49.5464C85.358 49.002 86.2352 49.002 86.7796 49.5464L91.0222 45.3037L95.2648 41.061C90.0342 35.8305 81.5591 35.8304 76.3284 41.0611L80.571 45.3037ZM91.0222 45.3037L86.7796 49.5464L104.203 66.9702L108.446 62.7275L112.689 58.4849L95.2649 41.0611L91.0222 45.3037ZM108.446 62.7275L104.207 66.9739C104.747 67.513 104.746 68.387 104.207 68.9252L108.442 73.1748L112.678 77.4244C117.923 72.1966 117.921 63.7081 112.685 58.4812L108.446 62.7275ZM108.442 73.1748L104.201 68.9311L102.294 70.8364L106.536 75.0801L110.777 79.3238L112.684 77.4185L108.442 73.1748ZM106.536 75.0801L102.27 79.2989L170.415 148.211L174.681 143.992L178.948 139.773L110.802 70.8612L106.536 75.0801ZM174.681 143.992L170.437 148.233C172.871 150.669 172.871 154.619 170.434 157.055L174.677 161.298L178.919 165.541C186.042 158.418 186.041 146.874 178.926 139.752L174.681 143.992ZM174.677 161.298L170.451 157.038L170.332 157.156L174.557 161.416L178.783 165.676L178.902 165.558L174.677 161.298ZM174.557 161.416L170.315 157.173C167.877 159.611 163.931 159.608 161.501 157.176L157.257 161.416L153.012 165.656C160.132 172.784 171.678 172.78 178.8 165.659L174.557 161.416ZM157.257 161.416L161.523 157.197L93.4243 88.332L89.158 92.5508L84.8916 96.7696L152.99 165.635L157.257 161.416ZM89.158 92.5508L84.721 88.5118C74.7491 99.4663 71.9112 110.702 72.608 122.996L78.5984 122.656L84.5888 122.317C84.0494 112.8 86.0724 104.853 93.5949 96.5898L89.158 92.5508ZM78.5984 122.656L76.7747 128.372C76.8191 128.387 76.8585 128.399 76.8911 128.408C76.9237 128.418 76.9517 128.426 76.9731 128.432C76.9944 128.438 77.0116 128.443 77.0221 128.446C77.0274 128.447 77.0318 128.448 77.0345 128.449C77.0359 128.449 77.037 128.45 77.0377 128.45C77.0381 128.45 77.0384 128.45 77.0386 128.45C77.0387 128.45 77.0389 128.45 77.0389 128.45C77.0394 128.45 77.0376 128.45 77.0354 128.449C77.033 128.449 77.029 128.447 77.0239 128.446C77.0141 128.443 76.9975 128.439 76.9768 128.433C76.9561 128.427 76.9287 128.419 76.8967 128.41C76.8647 128.4 76.826 128.389 76.7821 128.375L78.6052 122.658L80.4283 116.942C80.3839 116.928 80.3447 116.916 80.312 116.906C80.2795 116.896 80.2516 116.888 80.2302 116.882C80.209 116.876 80.1918 116.872 80.1814 116.869C80.1761 116.867 80.1717 116.866 80.1691 116.866C80.1677 116.865 80.1666 116.865 80.1659 116.865C80.1655 116.865 80.1652 116.864 80.165 116.864C80.1649 116.864 80.1647 116.864 80.1647 116.864C80.1642 116.864 80.1661 116.865 80.1683 116.865C80.1707 116.866 80.1747 116.867 80.1798 116.868C80.1897 116.871 80.2064 116.876 80.2271 116.882C80.2479 116.887 80.2753 116.895 80.3073 116.905C80.3394 116.914 80.3782 116.926 80.4221 116.94L78.5984 122.656ZM78.6052 122.658L72.6149 122.999C72.8733 127.546 73.5944 132.2 74.5811 136.991L80.4578 135.78L86.3344 134.57C85.4193 130.126 84.8098 126.088 84.5956 122.318L78.6052 122.658ZM80.4578 135.78L79.6094 129.841C75.1773 130.474 69.486 129.248 63.1051 126.058C56.8088 122.91 50.3531 118.097 44.6289 112.373C38.9048 106.649 34.0921 100.194 30.9439 93.8974C27.7535 87.5166 26.5282 81.8254 27.1612 77.3932L21.2214 76.5449L15.2817 75.6966C14.1729 83.4604 16.4323 91.707 20.2109 99.264C24.0316 106.905 29.6724 114.387 36.1437 120.859C42.6151 127.33 50.0972 132.97 57.7387 136.791C65.2957 140.57 73.5423 142.829 81.3061 141.72L80.4578 135.78ZM21.2214 76.5449L20.0419 82.4278C24.7769 83.3772 29.1886 83.8648 33.4256 83.7861L33.3142 77.7871L33.2028 71.7881C30.0389 71.8469 26.5161 71.4871 22.401 70.662L21.2214 76.5449ZM33.3142 77.7871L33.5052 83.7841L34.517 83.7518L34.3259 77.7549L34.1349 71.7579L33.1232 71.7902L33.3142 77.7871ZM34.3259 77.7549L34.5916 83.749C46.2835 83.2307 55.4871 78.2011 65.473 68.8166L61.364 64.4443L57.255 60.0721C48.5195 68.2817 41.9101 71.4128 34.0602 71.7608L34.3259 77.7549ZM61.364 64.4443L65.63 60.2252L63.7814 58.356L59.5154 62.5752L55.2494 66.7944L57.098 68.6635L61.364 64.4443ZM59.5154 62.5752L63.758 58.3326C63.2332 57.8077 63.2332 56.9598 63.758 56.435L59.5154 52.1924L55.2727 47.9497C50.0616 53.1608 50.0616 61.6067 55.2727 66.8178L59.5154 62.5752ZM59.5154 52.1924L63.7583 56.4347L70.7993 49.3927L66.5564 45.1504L62.3135 40.908L55.2724 47.95L59.5154 52.1924Z" fill="white" mask="url(#path-1-outside-1_1347_3964)"/>
<path d="M174.676 161.297L174.558 161.416C169.778 166.196 162.032 166.196 157.257 161.416L59.5152 62.5751C56.6473 59.7071 56.6473 55.0602 59.5152 52.1923L66.5569 45.1506C69.4248 42.2831 74.0718 42.2831 76.9397 45.1506L174.681 143.992C179.456 148.771 179.456 156.518 174.676 161.297Z" fill="#4B9AE8"/>
<path d="M108.446 62.7274L91.0224 45.3033C88.1349 42.4158 83.4584 42.4158 80.5708 45.3033L63.1513 62.7274C52.6651 73.0364 44.1797 77.5845 33.3141 77.7867C32.4715 85.538 36.591 103.376 43.0069 110.566C51.3448 119.908 65.403 122.86 78.5996 122.658C77.9392 111.014 80.753 100.868 91.0224 90.5984L108.442 73.1744C111.334 70.2914 111.334 65.6104 108.446 62.7274Z" fill="#276288"/>
<path d="M57.3348 94.7016C62.134 94.5235 65.8802 90.4885 65.7021 85.6893C65.524 80.8901 61.489 77.1439 56.6898 77.322C51.8906 77.5001 48.1444 81.5351 48.3225 86.3343C48.5006 91.1335 52.5356 94.8797 57.3348 94.7016Z" fill="white"/>
<path d="M57.1844 90.6398C59.7403 90.545 61.7354 88.3961 61.6406 85.8401C61.5457 83.2842 59.3968 81.289 56.8409 81.3839C54.2849 81.4788 52.2898 83.6277 52.3847 86.1836C52.4795 88.7396 54.6284 90.7347 57.1844 90.6398Z" fill="#040000"/>
<path d="M33.3145 77.787C29.614 77.8557 25.647 77.4322 21.2219 76.5449C17.7382 100.937 56.0659 139.265 80.4578 135.781C79.5068 131.164 78.8414 126.817 78.6051 122.659C56.8342 115.715 38.656 97.6649 33.3145 77.787Z" fill="#CAE3FF"/>
</svg>
