<svg width="200" height="200" viewBox="0 0 200 200" fill="none" xmlns="http://www.w3.org/2000/svg">
<mask id="path-1-outside-1_1062_17067" maskUnits="userSpaceOnUse" x="7" y="49.9995" width="186" height="101" fill="black">
<rect fill="white" x="7" y="49.9995" width="186" height="101"/>
<path d="M79.4902 58.1372C96.6152 54.9759 131.945 52.0378 154.271 75.0092C177.61 99.0253 177.414 111.387 177.166 113.519C177.24 113.517 177.314 113.514 177.388 113.512C185.044 113.335 186.138 117.402 186.138 120.24C186.138 122.562 185.771 127.249 181.138 129.164C183.61 131.738 183.845 134.563 182.451 136.883C178.756 143.033 157.53 142.557 91.1972 144.505C24.8644 146.453 21.1292 140.602 15.8329 136.529C11.2213 132.982 15.3484 124.598 27.7997 123.424C27.3542 122.145 27.3653 120.611 27.829 119.083C26.0207 117.709 24.4889 116.114 23.2343 114.562C20.6186 111.334 22.9049 106.513 27.7343 105.032L43.2275 100.023C42.4575 89.4908 46.8954 78.7899 46.9179 78.7358V78.7436C47.1441 78.4748 47.375 78.1907 47.6142 77.894C42.8202 81.0193 39.8698 83.1883 38.6376 80.7241C35.3877 74.2241 50.7281 60.2813 72.4325 58.2524C74.7975 58.0314 77.1543 57.9973 79.4902 58.1372Z"/>
</mask>
<path d="M79.4902 58.1372C96.6152 54.9759 131.945 52.0378 154.271 75.0092C177.61 99.0253 177.414 111.387 177.166 113.519C177.24 113.517 177.314 113.514 177.388 113.512C185.044 113.335 186.138 117.402 186.138 120.24C186.138 122.562 185.771 127.249 181.138 129.164C183.61 131.738 183.845 134.563 182.451 136.883C178.756 143.033 157.53 142.557 91.1972 144.505C24.8644 146.453 21.1292 140.602 15.8329 136.529C11.2213 132.982 15.3484 124.598 27.7997 123.424C27.3542 122.145 27.3653 120.611 27.829 119.083C26.0207 117.709 24.4889 116.114 23.2343 114.562C20.6186 111.334 22.9049 106.513 27.7343 105.032L43.2275 100.023C42.4575 89.4908 46.8954 78.7899 46.9179 78.7358V78.7436C47.1441 78.4748 47.375 78.1907 47.6142 77.894C42.8202 81.0193 39.8698 83.1883 38.6376 80.7241C35.3877 74.2241 50.7281 60.2813 72.4325 58.2524C74.7975 58.0314 77.1543 57.9973 79.4902 58.1372Z" fill="#D7E8FC"/>
<path d="M79.4902 58.1372L79.1316 64.1265C79.616 64.1555 80.1021 64.1256 80.5794 64.0375L79.4902 58.1372ZM154.271 75.0092L158.574 70.8277L158.574 70.8275L154.271 75.0092ZM177.166 113.519L171.206 112.826C171.005 114.558 171.567 116.292 172.746 117.576C173.924 118.861 175.604 119.569 177.346 119.516L177.166 113.519ZM177.388 113.512L177.249 107.514L177.249 107.514L177.388 113.512ZM186.138 120.24L192.138 120.24L192.138 120.24L186.138 120.24ZM181.138 129.164L178.846 123.619C177.013 124.376 175.673 125.99 175.266 127.931C174.858 129.872 175.436 131.889 176.81 133.319L181.138 129.164ZM182.451 136.883L187.594 139.973L187.594 139.973L182.451 136.883ZM91.1972 144.505L91.3733 150.503L91.3733 150.503L91.1972 144.505ZM15.8329 136.529L19.4905 131.773L19.4905 131.772L15.8329 136.529ZM27.7997 123.424L28.3629 129.398C30.1981 129.225 31.852 128.218 32.8482 126.667C33.8444 125.116 34.0723 123.193 33.4662 121.452L27.7997 123.424ZM27.829 119.083L33.5703 120.827C34.2991 118.426 33.4575 115.826 31.4605 114.307L27.829 119.083ZM23.2343 114.562L27.9006 110.79L27.8958 110.784L23.2343 114.562ZM27.7343 105.032L29.4934 110.768C29.5224 110.759 29.5512 110.75 29.58 110.741L27.7343 105.032ZM43.2275 100.023L45.0732 105.732C47.7041 104.881 49.4131 102.343 49.2115 99.5855L43.2275 100.023ZM46.9179 78.7358H52.9179C52.9179 75.8745 50.8974 73.4113 48.0913 72.8517C45.2852 72.2921 42.4744 73.7918 41.3769 76.4343L46.9179 78.7358ZM46.9179 78.7436H40.9179C40.9179 81.2646 42.4937 83.5167 44.8621 84.3804C47.2305 85.2442 49.8862 84.5354 51.5091 82.6064L46.9179 78.7436ZM47.6142 77.894L52.2851 81.66C54.1373 79.3628 54.0441 76.0597 52.0653 73.8706C50.0864 71.6814 46.8096 71.2562 44.3375 72.8677L47.6142 77.894ZM38.6376 80.7241L33.271 83.4073L33.2712 83.4076L38.6376 80.7241ZM72.4325 58.2524L71.8741 52.2785L71.8741 52.2785L72.4325 58.2524ZM79.4902 58.1372L80.5794 64.0375C88.8063 62.5188 101.251 61.0902 114.177 62.726C127.086 64.3595 140.051 68.9869 149.969 79.191L154.271 75.0092L158.574 70.8275C146.165 58.0601 130.302 52.6708 115.684 50.8209C101.082 48.9731 87.2991 50.5943 78.401 52.2369L79.4902 58.1372ZM154.271 75.0092L149.969 79.1908C172.672 102.554 171.161 113.215 171.206 112.826L177.166 113.519L183.126 114.212C183.667 109.558 182.548 95.4971 158.574 70.8277L154.271 75.0092ZM177.166 113.519L177.346 119.516C177.504 119.512 177.47 119.512 177.526 119.511L177.388 113.512L177.249 107.514C177.182 107.515 177.121 107.517 177.079 107.519C177.028 107.52 177.011 107.521 176.986 107.522L177.166 113.519ZM177.388 113.512L177.526 119.511C178.928 119.478 179.7 119.65 180.054 119.771C180.365 119.876 180.33 119.93 180.2 119.788C179.958 119.522 180.138 119.441 180.138 120.24L186.138 120.24L192.138 120.24C192.138 118.201 191.771 114.668 189.067 111.703C186.253 108.616 182.084 107.402 177.249 107.514L177.388 113.512ZM186.138 120.24H180.138C180.138 121.154 180.049 122.006 179.793 122.654C179.682 122.936 179.564 123.11 179.46 123.224C179.369 123.322 179.203 123.471 178.846 123.619L181.138 129.164L183.429 134.709C191.891 131.211 192.138 122.621 192.138 120.24H186.138ZM181.138 129.164L176.81 133.319C177.082 133.603 177.212 133.809 177.269 133.917C177.323 134.021 177.316 134.043 177.308 133.991C177.3 133.936 177.301 133.866 177.315 133.803C177.327 133.744 177.34 133.741 177.308 133.793L182.451 136.883L187.594 139.973C188.945 137.725 189.592 135.049 189.18 132.247C188.773 129.473 187.398 127.021 185.466 125.008L181.138 129.164ZM182.451 136.883L177.308 133.793C177.714 133.117 177.848 133.772 174.562 134.56C171.552 135.282 166.919 135.838 159.933 136.282C146.009 137.167 124.336 137.53 91.0211 138.508L91.1972 144.505L91.3733 150.503C124.391 149.533 146.498 149.16 160.694 148.258C167.768 147.808 173.279 147.208 177.362 146.229C181.168 145.316 185.34 143.724 187.594 139.973L182.451 136.883ZM91.1972 144.505L91.0211 138.508C57.9059 139.48 40.9072 138.481 31.6596 136.864C27.1057 136.068 24.6885 135.163 23.2486 134.426C21.7547 133.662 21.1667 133.062 19.4905 131.773L15.8329 136.529L12.1753 141.285C13.1473 142.032 15.0123 143.691 17.7813 145.108C20.6042 146.553 24.2597 147.753 29.5931 148.685C40.1204 150.526 58.1557 151.478 91.3733 150.503L91.1972 144.505ZM15.8329 136.529L19.4905 131.772C19.6854 131.922 19.9724 132.338 19.9983 132.842C20.0181 133.226 19.8656 133.157 20.2202 132.684C20.9349 131.729 23.288 129.876 28.3629 129.398L27.7997 123.424L27.2366 117.451C19.8601 118.146 13.924 121.072 10.6153 125.49C8.95806 127.703 7.86034 130.469 8.01417 133.458C8.17418 136.568 9.67469 139.362 12.1754 141.285L15.8329 136.529ZM27.7997 123.424L33.4662 121.452C33.492 121.526 33.4724 121.511 33.4733 121.388C33.4741 121.266 33.4952 121.074 33.5703 120.827L27.829 119.083L22.0878 117.34C21.3239 119.857 21.1987 122.712 22.1332 125.397L27.7997 123.424ZM27.829 119.083L31.4605 114.307C30.1208 113.289 28.9268 112.06 27.9006 110.79L23.2343 114.562L18.5681 118.334C20.051 120.168 21.9206 122.129 24.1976 123.86L27.829 119.083ZM23.2343 114.562L27.8958 110.784C28.0001 110.913 28.1111 111.148 28.1337 111.417C28.1537 111.655 28.093 111.757 28.1166 111.707C28.176 111.581 28.5346 111.062 29.4934 110.768L27.7343 105.032L25.9752 99.2954C22.1046 100.482 18.9054 103.115 17.2682 106.577C15.5831 110.141 15.6055 114.678 18.5728 118.34L23.2343 114.562ZM27.7343 105.032L29.58 110.741L45.0732 105.732L43.2275 100.023L41.3818 94.3139L25.8886 99.3226L27.7343 105.032ZM43.2275 100.023L49.2115 99.5855C48.553 90.5781 52.4654 81.0217 52.4589 81.0373L46.9179 78.7358L41.3769 76.4343C41.3255 76.5581 36.362 88.4034 37.2434 100.46L43.2275 100.023ZM46.9179 78.7358H40.9179V78.7436H46.9179H52.9179V78.7358H46.9179ZM46.9179 78.7436L51.5091 82.6064C51.7771 82.2878 52.04 81.964 52.2851 81.66L47.6142 77.894L42.9433 74.128C42.71 74.4173 42.5111 74.6617 42.3267 74.8809L46.9179 78.7436ZM47.6142 77.894L44.3375 72.8677C43.0643 73.6978 42.09 74.3478 41.1897 74.9087C40.2776 75.477 39.7545 75.7526 39.4709 75.8715C39.0699 76.0396 39.7506 75.6404 40.9476 75.8556C41.6498 75.9819 42.368 76.293 42.9834 76.7973C43.5652 77.274 43.8684 77.7692 44.0041 78.0406L38.6376 80.7241L33.2712 83.4076C34.242 85.349 36.0663 87.1705 38.8242 87.6663C41.0708 88.0702 43.0197 87.3955 44.1096 86.9387C46.252 86.0407 48.8415 84.2563 50.8909 82.9203L47.6142 77.894ZM38.6376 80.7241L44.0042 78.0409C44.518 79.0685 43.7909 79.2922 44.6714 77.7897C45.4585 76.4467 47.0962 74.5986 49.7497 72.6321C55.0046 68.7376 63.2219 65.1396 72.991 64.2264L72.4325 58.2524L71.8741 52.2785C59.9388 53.3941 49.6336 57.7819 42.6047 62.9911C39.1163 65.5764 36.1718 68.5596 34.3183 71.7224C32.5582 74.7257 31.1323 79.1297 33.271 83.4073L38.6376 80.7241ZM72.4325 58.2524L72.9909 64.2264C75.0443 64.0344 77.0945 64.0045 79.1316 64.1265L79.4902 58.1372L79.8487 52.1479C77.2141 51.9902 74.5507 52.0283 71.8741 52.2785L72.4325 58.2524Z" fill="white" mask="url(#path-1-outside-1_1062_17067)"/>
<path d="M69.5293 60.4399C69.5293 60.4399 123.918 43.7781 154.271 75.0089C180.061 101.547 177.115 113.854 177.115 113.854C177.115 113.854 160.276 126.081 144.33 122.008C128.377 117.935 116.858 75.7816 69.5373 60.4399H69.5293Z" fill="#4D8ECC"/>
<path d="M147.88 121.871C147.88 121.871 51.024 124.833 33.8953 123.417C16.7666 122 10.5366 132.456 15.8329 136.529C21.1293 140.602 24.8641 146.454 91.1974 144.506C157.531 142.558 178.756 143.033 182.451 136.883C186.146 130.734 178.402 121.034 147.88 121.871Z" fill="#EDEBEB"/>
<path d="M49.5473 97.9809L27.734 105.032C22.9045 106.513 20.6185 111.335 23.2345 114.562C27.3074 119.601 34.2941 125.091 44.2187 122.04C52.5094 119.496 62.8365 103.277 58.3531 99.0676C54.7632 95.695 49.5553 97.9809 49.5553 97.9809H49.5473Z" fill="#276288"/>
<path d="M46.7864 79.742C46.7864 79.742 36.8703 105.147 49.1324 117.519C59.4274 119.031 97.1973 120.036 112.821 117.201C128.445 114.366 124.575 112.639 124.575 112.639C124.575 112.639 117.255 60.076 75.1884 64.2343C55.4368 66.1846 50.4626 75.094 46.7864 79.7505V79.742Z" fill="#4B9AE8"/>
<path d="M88.422 98.431C92.1309 98.431 95.1375 95.4244 95.1375 91.7155C95.1375 88.0066 92.1309 85 88.422 85C84.7132 85 81.7065 88.0066 81.7065 91.7155C81.7065 95.4244 84.7132 98.431 88.422 98.431Z" fill="white"/>
<path d="M88.5 91.3942C90.433 91.3942 92 90.5073 92 91.3942C92 92.281 90.433 93 88.5 93C86.567 93 85 92.281 85 91.3942C85 90.5073 86.567 91.3942 88.5 91.3942Z" fill="#474747"/>
<path d="M54.8532 98.8619C58.5621 98.8619 61.5687 95.8553 61.5687 92.1464C61.5687 88.4375 58.5621 85.4309 54.8532 85.4309C51.1443 85.4309 48.1377 88.4375 48.1377 92.1464C48.1377 95.8553 51.1443 98.8619 54.8532 98.8619Z" fill="white"/>
<path d="M54.6377 91.3942C56.5707 91.3942 58.1377 90.5073 58.1377 91.3942C58.1377 92.281 56.5707 93 54.6377 93C52.7047 93 51.1377 92.281 51.1377 91.3942C51.1377 90.5073 52.7047 91.3942 54.6377 91.3942Z" fill="#474747"/>
<path d="M79.2374 99.0039C78.7864 101.972 74.011 106.871 70.5545 106.35C67.098 105.829 63.9504 99.7418 64.4015 96.7733C64.8525 93.8047 67.4735 91.7364 72.6344 92.5078C77.8507 93.2927 79.6823 96.0276 79.2374 99.0039Z" fill="#EAC00F"/>
<path d="M114.677 110.345C114.677 110.345 78.0533 115.601 40.4636 111.89C29.2672 110.787 25.1782 120.978 28.7038 125.002C30.8609 127.473 34.5877 134.927 77.7716 132.979C120.955 131.031 137.183 125.357 137.183 125.357C137.183 125.357 134.551 109.508 114.677 110.345Z" fill="#EDEBEB"/>
<path d="M124.367 100.153L99.4712 103.509C93.9803 104.164 90.5768 108.922 92.7611 112.904C96.1769 119.128 102.635 126.404 113.925 125.057C123.358 123.928 133.971 116.53 129.956 111.113C126.742 106.775 124.367 100.153 124.367 100.153Z" fill="#276288"/>
<path d="M72.433 58.2528C94.1375 56.2241 115.13 69.9317 126.016 89.5117C135.245 106.102 134.012 112.452 147.497 114.573C160.981 116.695 169.731 113.689 177.388 113.513C185.045 113.336 186.138 117.403 186.138 120.24C186.138 123.077 185.591 129.443 177.388 129.974C169.185 130.504 134.02 130.408 128.176 127.498C124.807 125.818 120.908 121.904 118.698 116.261C115.321 107.629 101.885 80.1282 86 75.0001C56.5331 65.4875 41.8877 87.2241 38.6378 80.7241C35.3879 74.2241 50.7284 60.2816 72.433 58.2528Z" fill="#D7E8FC"/>
</svg>
