<svg width="200" height="200" viewBox="0 0 200 200" fill="none" xmlns="http://www.w3.org/2000/svg">
<mask id="path-1-outside-1_1062_26108" maskUnits="userSpaceOnUse" x="20.875" y="15.25" width="159" height="170" fill="black">
<rect fill="white" x="20.875" y="15.25" width="159" height="170"/>
<path d="M64.3275 22.9932C66.5981 20.669 70.3234 20.6688 72.5941 22.9932C74.5572 24.9041 74.8639 27.8476 73.5512 30.1172C75.8205 28.828 78.7489 29.1346 80.6537 31.0381C82.5976 32.9328 82.917 35.8406 81.6156 38.0703C83.8718 36.8227 86.759 37.1396 88.643 39.0225C90.596 40.9746 90.9067 43.9102 89.5775 46.1768C91.8525 44.8538 94.8088 45.1517 96.727 47.0693C98.6338 48.9762 98.9382 51.9099 97.641 54.1797C99.9063 52.9062 102.819 53.2166 104.716 55.1133C107.045 57.383 107.045 61.1076 104.775 63.4355L86.81 81.3955C92.1712 86.0287 98.2453 89.8272 104.748 92.6162C112.869 96.0992 120.323 101.155 126.553 107.447L168.161 149.58C174.78 156.209 174.78 167.051 168.161 173.736C161.597 180.421 150.861 180.421 144.242 173.736L66.0902 94.751L64.477 93.0664L30.3793 58.6299C25.7069 53.9672 25.7069 46.3829 30.3793 41.6641C34.7382 37.209 41.6749 36.9605 46.3686 40.918L64.3275 22.9932Z"/>
</mask>
<path d="M64.3275 22.9932C66.5981 20.669 70.3234 20.6688 72.5941 22.9932C74.5572 24.9041 74.8639 27.8476 73.5512 30.1172C75.8205 28.828 78.7489 29.1346 80.6537 31.0381C82.5976 32.9328 82.917 35.8406 81.6156 38.0703C83.8718 36.8227 86.759 37.1396 88.643 39.0225C90.596 40.9746 90.9067 43.9102 89.5775 46.1768C91.8525 44.8538 94.8088 45.1517 96.727 47.0693C98.6338 48.9762 98.9382 51.9099 97.641 54.1797C99.9063 52.9062 102.819 53.2166 104.716 55.1133C107.045 57.383 107.045 61.1076 104.775 63.4355L86.81 81.3955C92.1712 86.0287 98.2453 89.8272 104.748 92.6162C112.869 96.0992 120.323 101.155 126.553 107.447L168.161 149.58C174.78 156.209 174.78 167.051 168.161 173.736C161.597 180.421 150.861 180.421 144.242 173.736L66.0902 94.751L64.477 93.0664L30.3793 58.6299C25.7069 53.9672 25.7069 46.3829 30.3793 41.6641C34.7382 37.209 41.6749 36.9605 46.3686 40.918L64.3275 22.9932Z" fill="#EAC00F"/>
<path d="M64.3275 22.9932L68.5661 27.2398C68.584 27.222 68.6018 27.2041 68.6194 27.186L64.3275 22.9932ZM72.5941 22.9932L68.3023 27.186C68.3374 27.222 68.373 27.2575 68.409 27.2925L72.5941 22.9932ZM73.5512 30.1172L68.3574 27.1131C67.0012 29.4579 67.3842 32.4206 69.2921 34.3434C71.2001 36.2661 74.1597 36.6721 76.5149 35.3341L73.5512 30.1172ZM80.6537 31.0381L76.4126 35.2822C76.4302 35.2998 76.4479 35.3173 76.4658 35.3347L80.6537 31.0381ZM81.6156 38.0703L76.4336 35.0459C75.0725 37.378 75.437 40.3321 77.3241 42.2635C79.2112 44.1949 82.156 44.6277 84.5191 43.321L81.6156 38.0703ZM88.643 39.0225L92.8846 34.7788L92.8844 34.7786L88.643 39.0225ZM89.5775 46.1768L84.4018 43.1416C83.0225 45.4937 83.4026 48.48 85.3271 50.4116C87.2516 52.3432 90.2366 52.7342 92.5937 51.3636L89.5775 46.1768ZM96.727 47.0693L100.97 42.8267L100.969 42.8261L96.727 47.0693ZM97.641 54.1797L92.4317 51.2025C91.093 53.545 91.4824 56.4929 93.3835 58.4073C95.2845 60.3218 98.2296 60.732 100.581 59.4098L97.641 54.1797ZM104.716 55.1133L100.474 59.3566C100.492 59.3745 100.51 59.3923 100.528 59.41L104.716 55.1133ZM104.775 63.4355L109.017 67.6788C109.035 67.6608 109.053 67.6427 109.07 67.6245L104.775 63.4355ZM86.81 81.3955L82.5679 77.1523C81.3889 78.331 80.7534 79.9471 80.8139 81.6132C80.8744 83.2793 81.6254 84.8451 82.8868 85.9352L86.81 81.3955ZM104.748 92.6162L107.113 87.102L107.113 87.102L104.748 92.6162ZM126.553 107.447L130.822 103.231L130.817 103.226L126.553 107.447ZM168.161 149.58L163.891 153.796C163.899 153.804 163.907 153.812 163.915 153.82L168.161 149.58ZM168.161 173.736L163.897 169.515C163.891 169.521 163.885 169.527 163.879 169.533L168.161 173.736ZM144.242 173.736L139.977 177.956L139.978 177.958L144.242 173.736ZM66.0902 94.751L61.7569 98.9009C61.7795 98.9245 61.8022 98.9479 61.8251 98.971L66.0902 94.751ZM64.477 93.0664L68.8103 88.9164C68.7872 88.8924 68.764 88.8685 68.7405 88.8448L64.477 93.0664ZM30.3793 58.6299L34.6429 54.4083C34.6344 54.3998 34.626 54.3913 34.6175 54.3828L30.3793 58.6299ZM30.3793 41.6641L34.6429 45.8857C34.6513 45.8772 34.6596 45.8687 34.668 45.8602L30.3793 41.6641ZM46.3686 40.918L42.501 45.5051C44.8819 47.5126 48.4029 47.3647 50.6072 45.1646L46.3686 40.918ZM64.3275 22.9932L68.6194 27.186C68.5361 27.2713 68.3857 27.2714 68.3023 27.186L72.5941 22.9932L76.886 18.8003C72.2612 14.0663 64.66 14.0668 60.0357 18.8003L64.3275 22.9932ZM72.5941 22.9932L68.409 27.2925C68.4004 27.2842 68.3832 27.2635 68.3686 27.2336C68.3552 27.2062 68.3497 27.1831 68.3478 27.1679C68.3448 27.144 68.3491 27.1275 68.3574 27.1131L73.5512 30.1172L78.745 33.1212C81.37 28.5827 80.8002 22.6079 76.7793 18.6938L72.5941 22.9932ZM73.5512 30.1172L76.5149 35.3341C76.5109 35.3364 76.5088 35.3366 76.5101 35.3364C76.5125 35.3359 76.5134 35.3363 76.5104 35.3359C76.5066 35.3355 76.4928 35.3332 76.4714 35.323C76.4477 35.3116 76.4263 35.2959 76.4126 35.2822L80.6537 31.0381L84.8949 26.794C80.9929 22.8946 75.0941 22.34 70.5875 24.9003L73.5512 30.1172ZM80.6537 31.0381L76.4658 35.3347C76.458 35.3272 76.4409 35.3069 76.4257 35.276C76.4116 35.2474 76.404 35.2198 76.4009 35.1956C76.3953 35.1526 76.4021 35.0999 76.4336 35.0459L81.6156 38.0703L86.7976 41.0947C89.4528 36.5452 88.8071 30.6066 84.8417 26.7414L80.6537 31.0381ZM81.6156 38.0703L84.5191 43.321C84.5168 43.3223 84.5148 43.3232 84.5133 43.3237C84.5127 43.3239 84.5122 43.3241 84.5119 43.3241C84.5116 43.3242 84.5114 43.3242 84.5114 43.3242C84.5114 43.3242 84.5115 43.3242 84.5115 43.3242C84.5116 43.3242 84.5116 43.3242 84.5115 43.3242C84.5114 43.3242 84.51 43.3243 84.5071 43.3239C84.5016 43.3232 84.4862 43.3203 84.4635 43.3094C84.4386 43.2974 84.4161 43.2809 84.4016 43.2663L88.643 39.0225L92.8844 34.7786C89.0201 30.9165 83.1961 30.3402 78.7122 32.8196L81.6156 38.0703ZM88.643 39.0225L84.4013 43.2661C84.4111 43.2758 84.4059 43.273 84.3984 43.2575C84.3919 43.244 84.3879 43.2298 84.3862 43.2166C84.3833 43.1928 84.388 43.1652 84.4018 43.1416L89.5775 46.1768L94.7532 49.2119C97.4392 44.6316 96.8038 38.6962 92.8846 34.7788L88.643 39.0225ZM89.5775 46.1768L92.5937 51.3636C92.5889 51.3663 92.5858 51.367 92.586 51.3669C92.5874 51.3667 92.5876 51.367 92.5841 51.3666C92.5799 51.3661 92.5658 51.3638 92.5442 51.3536C92.5202 51.3422 92.4987 51.3263 92.485 51.3126L96.727 47.0693L100.969 42.8261C97.0405 38.8988 91.0841 38.36 86.5614 40.99L89.5775 46.1768ZM96.727 47.0693L92.4843 51.3119C92.4703 51.298 92.4543 51.2762 92.4427 51.2519C92.4322 51.2299 92.4297 51.2155 92.4292 51.211C92.4287 51.2073 92.4292 51.2075 92.4288 51.2091C92.4287 51.2096 92.4292 51.207 92.4317 51.2025L97.641 54.1797L102.85 57.1568C105.428 52.6468 104.877 46.7343 100.97 42.8267L96.727 47.0693ZM97.641 54.1797L100.581 59.4098C100.577 59.412 100.575 59.4123 100.576 59.4121C100.578 59.4117 100.579 59.4121 100.575 59.4117C100.57 59.4111 100.556 59.4086 100.534 59.3981C100.51 59.3864 100.488 59.3704 100.474 59.3566L104.716 55.1133L108.958 50.8699C105.07 46.9829 99.1992 46.4205 94.7007 48.9496L97.641 54.1797ZM104.716 55.1133L100.528 59.41C100.517 59.3994 100.498 59.3739 100.484 59.3405C100.472 59.3116 100.47 59.2912 100.47 59.2818C100.47 59.2727 100.472 59.265 100.475 59.2571C100.479 59.2456 100.484 59.2411 100.479 59.2466L104.775 63.4355L109.07 67.6245C113.592 62.9874 113.669 55.4613 108.904 50.8166L104.716 55.1133ZM104.775 63.4355L100.533 59.1923L82.5679 77.1523L86.81 81.3955L91.052 85.6387L109.017 67.6788L104.775 63.4355ZM86.81 81.3955L82.8868 85.9352C88.7142 90.9712 95.3138 95.0984 102.384 98.1305L104.748 92.6162L107.113 87.102C101.177 84.5559 95.6283 81.0862 90.7332 76.8558L86.81 81.3955ZM104.748 92.6162L102.383 98.1304C109.8 101.311 116.608 105.93 122.289 111.669L126.553 107.447L130.817 103.226C124.039 96.3799 115.938 90.887 107.113 87.102L104.748 92.6162ZM126.553 107.447L122.284 111.663L163.891 153.796L168.161 149.58L172.43 145.364L130.822 103.231L126.553 107.447ZM168.161 149.58L163.915 153.82C168.185 158.096 168.211 165.158 163.897 169.515L168.161 173.736L172.424 177.958C181.349 168.944 181.374 154.322 172.406 145.341L168.161 149.58ZM168.161 173.736L163.879 169.533C159.678 173.812 152.786 173.838 148.505 169.515L144.242 173.736L139.978 177.958C148.935 187.004 163.517 187.03 172.442 177.94L168.161 173.736ZM144.242 173.736L148.507 169.516L70.3553 90.5309L66.0902 94.751L61.8251 98.971L139.977 177.956L144.242 173.736ZM66.0902 94.751L70.4236 90.601L68.8103 88.9164L64.477 93.0664L60.1436 97.2164L61.7569 98.9009L66.0902 94.751ZM64.477 93.0664L68.7405 88.8448L34.6429 54.4083L30.3793 58.6299L26.1157 62.8515L60.2134 97.288L64.477 93.0664ZM30.3793 58.6299L34.6175 54.3828C32.3081 52.0782 32.2717 48.2804 34.6429 45.8857L30.3793 41.6641L26.1157 37.4425C19.1421 44.4855 19.1057 55.8562 26.1411 62.8769L30.3793 58.6299ZM30.3793 41.6641L34.668 45.8602C36.7952 43.6861 40.1711 43.5407 42.501 45.5051L46.3686 40.918L50.2362 36.3308C43.1787 30.3804 32.6813 30.7319 26.0906 37.4679L30.3793 41.6641ZM46.3686 40.918L50.6072 45.1646L68.5661 27.2398L64.3275 22.9932L60.0889 18.7465L42.13 36.6713L46.3686 40.918Z" fill="white" mask="url(#path-1-outside-1_1062_26108)"/>
<path d="M72.3265 31.0383C74.6558 28.7685 78.3823 28.7685 80.6537 31.0383C82.9825 33.3081 82.9825 37.0329 80.6537 39.3027L62.6022 57.4609L56.37 54.3559L54.2754 49.1384L72.3265 31.0383Z" fill="#83CBFF"/>
<path d="M88.4048 47.0694C90.733 44.7996 94.4573 44.7996 96.7276 47.0694C98.9972 49.3392 98.9972 53.064 96.7276 55.3919L78.6274 73.4921L71.7098 71.7944L70.3047 65.1695L88.4048 47.0694Z" fill="#83CBFF"/>
<path d="M72.5941 22.9933C70.3233 20.6689 66.5979 20.6689 64.3274 22.9933L46.2227 41.0654L48.8562 46.6301L54.5474 49.375L72.6521 31.303C74.9223 28.9786 74.9223 25.2596 72.5941 22.9933Z" fill="#AEDDFF"/>
<path d="M88.6433 39.0225C86.377 36.7575 82.6583 36.7575 80.3335 39.0225L62.2617 57.1434L64.4256 62.5236L70.5713 65.4487L88.6433 47.386C90.9676 45.0628 90.9676 41.3457 88.6433 39.0225Z" fill="#AEDDFF"/>
<path d="M96.3924 55.1135C98.7211 52.8437 102.447 52.8437 104.717 55.1135C107.046 57.3833 107.046 61.108 104.775 63.436L86.6707 81.5361L79.874 78.9689L78.3457 73.2134L96.3924 55.1135Z" fill="#AEDDFF"/>
<path d="M126.553 107.448C120.324 101.155 112.87 96.0996 104.749 92.6166C96.6278 89.1336 89.1741 84.0779 82.9444 77.7858L47.1778 41.6642C42.5054 36.9453 34.9961 36.9453 30.3793 41.6642C25.7069 46.383 25.7069 53.9669 30.3793 58.6296L64.477 93.0661L66.0901 94.7513L144.242 173.736C150.861 180.421 161.597 180.421 168.16 173.736C174.78 167.051 174.78 156.209 168.16 149.58L126.553 107.448Z" fill="#4B9AE8"/>
<mask id="path-9-outside-2_1062_26108" maskUnits="userSpaceOnUse" x="100.142" y="104.632" width="34.6482" height="34.6482" fill="black">
<rect fill="white" x="100.142" y="104.632" width="34.6482" height="34.6482"/>
<path d="M111.234 114.754C114.964 111.024 121.01 111.024 124.74 114.754C128.469 118.483 128.469 124.53 124.74 128.259C121.611 131.387 116.854 131.89 113.2 129.771C112.415 130.419 111.126 130.83 110.405 130.402C109.476 129.85 109.222 127.748 109.743 126.801C109.788 126.72 109.839 126.644 109.891 126.571C107.58 122.883 108.026 117.962 111.234 114.754Z"/>
</mask>
<path d="M111.234 114.754C114.964 111.024 121.01 111.024 124.74 114.754C128.469 118.483 128.469 124.53 124.74 128.259C121.611 131.387 116.854 131.89 113.2 129.771C112.415 130.419 111.126 130.83 110.405 130.402C109.476 129.85 109.222 127.748 109.743 126.801C109.788 126.72 109.839 126.644 109.891 126.571C107.58 122.883 108.026 117.962 111.234 114.754Z" fill="#DFB820"/>
<path d="M111.234 114.754L109.92 113.439L109.92 113.439L111.234 114.754ZM124.74 114.754L126.054 113.439L126.054 113.439L124.74 114.754ZM124.74 128.259L126.054 129.574L126.054 129.574L124.74 128.259ZM113.2 129.771L114.133 128.163L113.014 127.514L112.017 128.337L113.2 129.771ZM110.405 130.402L109.455 132L109.455 132L110.405 130.402ZM109.743 126.801L108.115 125.904L108.115 125.904L109.743 126.801ZM109.891 126.571L111.402 127.653L112.128 126.64L111.466 125.584L109.891 126.571ZM111.234 114.754L112.549 116.068C115.552 113.065 120.422 113.065 123.425 116.068L124.74 114.754L126.054 113.439C121.599 108.984 114.375 108.984 109.92 113.439L111.234 114.754ZM124.74 114.754L123.425 116.068C126.429 119.072 126.429 123.941 123.425 126.945L124.74 128.259L126.054 129.574C130.51 125.118 130.51 117.895 126.054 113.439L124.74 114.754ZM124.74 128.259L123.425 126.945C120.908 129.462 117.077 129.87 114.133 128.163L113.2 129.771L112.267 131.379C116.632 133.91 122.315 133.313 126.054 129.574L124.74 128.259ZM113.2 129.771L112.017 128.337C111.836 128.486 111.565 128.626 111.319 128.689C111.202 128.719 111.138 128.719 111.127 128.719C111.116 128.718 111.213 128.72 111.354 128.804L110.405 130.402L109.455 132C110.432 132.58 111.521 132.475 112.238 132.291C113.013 132.094 113.779 131.704 114.384 131.204L113.2 129.771ZM110.405 130.402L111.355 128.804C111.527 128.906 111.545 128.998 111.495 128.901C111.453 128.817 111.399 128.664 111.366 128.455C111.333 128.249 111.328 128.044 111.345 127.877C111.364 127.693 111.399 127.648 111.372 127.698L109.743 126.801L108.115 125.904C107.576 126.884 107.546 128.119 107.695 129.044C107.776 129.547 107.927 130.083 108.177 130.578C108.421 131.059 108.819 131.621 109.455 132L110.405 130.402ZM109.743 126.801L111.372 127.698C111.37 127.702 111.37 127.7 111.375 127.692C111.381 127.684 111.389 127.672 111.402 127.653L109.891 126.571L108.38 125.488C108.303 125.596 108.208 125.736 108.115 125.904L109.743 126.801ZM109.891 126.571L111.466 125.584C109.604 122.613 109.967 118.65 112.549 116.068L111.234 114.754L109.92 113.439C106.085 117.274 105.555 123.153 108.316 127.558L109.891 126.571Z" fill="white" mask="url(#path-9-outside-2_1062_26108)"/>
<path d="M124.741 128.259C128.471 124.529 128.471 118.482 124.741 114.753C121.012 111.023 114.965 111.023 111.235 114.753C107.506 118.482 107.506 124.529 111.235 128.259C114.965 131.988 121.012 131.988 124.741 128.259Z" fill="#4B98E6"/>
<circle cx="113.746" cy="122.213" r="2.49946" transform="rotate(-45 113.746 122.213)" fill="white"/>
<circle cx="113.746" cy="122.212" r="1.49968" transform="rotate(-45 113.746 122.212)" fill="#161616"/>
<circle cx="113.746" cy="122.212" r="1.49968" transform="rotate(-45 113.746 122.212)" fill="#161616"/>
<path d="M113.741 129.15C113.226 130.088 111.366 130.908 110.438 130.354C109.51 129.801 109.245 127.716 109.759 126.78C110.273 125.844 111.297 125.443 112.68 126.268C114.079 127.101 114.255 128.214 113.739 129.152L113.741 129.15Z" fill="#EAC00F"/>
</svg>
