<svg width="200" height="200" viewBox="0 0 200 200" fill="none" xmlns="http://www.w3.org/2000/svg">
<mask id="path-1-outside-1_1062_23675" maskUnits="userSpaceOnUse" x="15" y="24.0002" width="170" height="153" fill="black">
<rect fill="white" x="15" y="24.0002" width="170" height="153"/>
<path d="M121.008 30.9753C123.661 28.8525 128.125 30.4317 128.125 33.4431V47.1442C147.53 49.2161 164.031 63.0773 169.433 82.5183L176.654 108.55C185.341 139.73 162.269 170.625 130.341 170.625H69.1913C37.0371 170.625 13.909 139.272 22.9911 107.977L30.5497 81.946C36.4204 61.7466 54.3515 47.6651 74.9999 46.9089V33.4431C75.0002 30.4318 79.4623 28.8526 82.1161 30.9753L92.9989 39.611L103.883 30.9753C106.536 28.8525 111 30.4317 111 33.4431V38.9167L121.008 30.9753Z"/>
</mask>
<path d="M121.008 30.9753C123.661 28.8525 128.125 30.4317 128.125 33.4431V47.1442C147.53 49.2161 164.031 63.0773 169.433 82.5183L176.654 108.55C185.341 139.73 162.269 170.625 130.341 170.625H69.1913C37.0371 170.625 13.909 139.272 22.9911 107.977L30.5497 81.946C36.4204 61.7466 54.3515 47.6651 74.9999 46.9089V33.4431C75.0002 30.4318 79.4623 28.8526 82.1161 30.9753L92.9989 39.611L103.883 30.9753C106.536 28.8525 111 30.4317 111 33.4431V38.9167L121.008 30.9753Z" fill="#321B41"/>
<path d="M121.008 30.9753L124.737 35.6753C124.743 35.6705 124.75 35.6656 124.756 35.6607L121.008 30.9753ZM128.125 33.4431L134.125 33.4431L134.125 33.4424L128.125 33.4431ZM128.125 47.1442H122.125C122.125 50.2114 124.438 52.7847 127.488 53.1103L128.125 47.1442ZM169.433 82.5183L175.215 80.9145L175.214 80.9119L169.433 82.5183ZM176.654 108.55L170.872 110.153L170.874 110.16L176.654 108.55ZM69.1913 170.625L69.1913 176.625H69.1913V170.625ZM22.9911 107.977L17.2291 106.304L17.2289 106.305L22.9911 107.977ZM30.5497 81.946L24.7881 80.2715L24.7877 80.2729L30.5497 81.946ZM74.9999 46.9089L75.2195 52.9049C78.4456 52.7867 80.9999 50.1371 80.9999 46.9089H74.9999ZM74.9999 33.4431L68.9999 33.4424V33.4431H74.9999ZM82.1161 30.9753L78.3683 35.6608C78.3744 35.6657 78.3804 35.6705 78.3865 35.6753L82.1161 30.9753ZM92.9989 39.611L89.2693 44.3111C91.4536 46.0443 94.544 46.0444 96.7283 44.3112L92.9989 39.611ZM103.883 30.9753L107.612 35.6755C107.618 35.6706 107.624 35.6656 107.631 35.6607L103.883 30.9753ZM111 33.4431L117 33.4431L117 33.4424L111 33.4431ZM111 38.9167H105C105 41.2188 106.317 43.318 108.39 44.3194C110.463 45.3207 112.926 45.0477 114.729 43.6167L111 38.9167ZM121.008 30.9753L124.756 35.6607C124.198 36.1065 123.733 36.0008 123.582 35.948C123.459 35.9051 123.153 35.7712 122.824 35.3859C122.454 34.953 122.125 34.2639 122.125 33.4438L128.125 33.4431L134.125 33.4424C134.124 28.5635 130.514 25.659 127.541 24.6198C124.494 23.5552 120.471 23.7213 117.26 26.2899L121.008 30.9753ZM128.125 33.4431H122.125V47.1442H128.125H134.125V33.4431H128.125ZM128.125 47.1442L127.488 53.1103C144.424 54.9185 158.903 67.0316 163.653 84.1246L169.433 82.5183L175.214 80.9119C169.16 59.1229 150.636 43.5137 128.762 41.1781L128.125 47.1442ZM169.433 82.5183L163.652 84.122L170.872 110.153L176.654 108.55L182.436 106.946L175.215 80.9145L169.433 82.5183ZM176.654 108.55L170.874 110.16C178.526 137.623 158.189 164.625 130.341 164.625V170.625V176.625C166.35 176.625 192.157 141.837 182.434 106.939L176.654 108.55ZM130.341 170.625V164.625H69.1913V170.625V176.625H130.341V170.625ZM69.1913 170.625L69.1913 164.625C41.1492 164.625 20.7527 137.218 28.7534 109.65L22.9911 107.977L17.2289 106.305C7.06521 141.327 32.925 176.625 69.1913 176.625L69.1913 170.625ZM22.9911 107.977L28.7531 109.65L36.3117 83.6191L30.5497 81.946L24.7877 80.2729L17.2291 106.304L22.9911 107.977ZM30.5497 81.946L36.3113 83.6205C41.4729 65.861 57.2035 53.5647 75.2195 52.9049L74.9999 46.9089L74.7803 40.9129C51.4996 41.7656 31.368 57.6322 24.7881 80.2715L30.5497 81.946ZM74.9999 46.9089H80.9999V33.4431H74.9999H68.9999V46.9089H74.9999ZM74.9999 33.4431L80.9999 33.4438C80.9998 34.2635 80.6709 34.9525 80.301 35.3855C79.9718 35.7709 79.6655 35.905 79.5427 35.9479C79.3908 36.001 78.9254 36.1064 78.3683 35.6608L82.1161 30.9753L85.8639 26.2898C82.6531 23.7215 78.6297 23.5551 75.5832 24.62C72.6092 25.6595 69.0005 28.5642 68.9999 33.4424L74.9999 33.4431ZM82.1161 30.9753L78.3865 35.6753L89.2693 44.3111L92.9989 39.611L96.7285 34.911L85.8457 26.2753L82.1161 30.9753ZM92.9989 39.611L96.7283 44.3112L107.612 35.6755L103.883 30.9753L100.153 26.2751L89.2695 34.9108L92.9989 39.611ZM103.883 30.9753L107.631 35.6607C107.073 36.1065 106.608 36.0008 106.457 35.948C106.334 35.9051 106.028 35.7712 105.699 35.3859C105.329 34.953 105 34.2639 105 33.4438L111 33.4431L117 33.4424C116.999 28.5635 113.389 25.659 110.416 24.6198C107.369 23.5552 103.346 23.7213 100.135 26.2899L103.883 30.9753ZM111 33.4431H105V38.9167H111H117V33.4431H111ZM111 38.9167L114.729 43.6167L124.737 35.6753L121.008 30.9753L117.278 26.2753L107.27 34.2167L111 38.9167Z" fill="white" mask="url(#path-1-outside-1_1062_23675)"/>
<path d="M87.0566 52.5H106.778C109.07 52.5 111 50.9695 111 49.0442V33.4434C111 30.4319 106.537 28.8521 103.883 30.975L84.162 46.625C81.4479 48.7479 83.3177 52.5 87.0566 52.5Z" fill="#86D72F"/>
<path d="M98.9434 52.5H79.2216C76.9299 52.5 75 50.9695 75 49.0442V33.4434C75 30.4319 79.4629 28.8521 82.1168 30.975L101.838 46.625C104.552 48.7479 102.682 52.5 98.9434 52.5Z" fill="#86D72F"/>
<path d="M104.182 52.5H123.903C126.195 52.5 128.125 50.9695 128.125 49.0442V33.4434C128.125 30.4319 123.662 28.8521 121.008 30.975L101.287 46.625C98.5729 48.7479 100.443 52.5 104.182 52.5Z" fill="#86D72F"/>
<path d="M130.341 170.625H69.1916C37.0374 170.625 13.9089 139.273 22.9911 107.978L30.5502 81.9463C36.5862 61.178 55.371 46.875 76.7505 46.875H123.064C144.613 46.875 163.567 61.4069 169.434 82.5184L176.654 108.55C185.342 139.73 162.27 170.625 130.341 170.625Z" fill="#FF8257"/>
<path d="M68.8121 98.3827C75.5126 98.3827 80.9445 92.9508 80.9445 86.2503C80.9445 79.5498 75.5126 74.1179 68.8121 74.1179C62.1115 74.1179 56.6797 79.5498 56.6797 86.2503C56.6797 92.9508 62.1115 98.3827 68.8121 98.3827Z" fill="white"/>
<path d="M68.8136 92.7172C72.3851 92.7172 75.2805 89.8219 75.2805 86.2503C75.2805 82.6788 72.3851 79.7834 68.8136 79.7834C65.242 79.7834 62.3467 82.6788 62.3467 86.2503C62.3467 89.8219 65.242 92.7172 68.8136 92.7172Z" fill="#040000"/>
<path d="M130.688 98.3827C137.389 98.3827 142.82 92.9508 142.82 86.2503C142.82 79.5498 137.389 74.1179 130.688 74.1179C123.988 74.1179 118.556 79.5498 118.556 86.2503C118.556 92.9508 123.988 98.3827 130.688 98.3827Z" fill="white"/>
<path d="M130.69 92.7172C134.261 92.7172 137.156 89.8219 137.156 86.2503C137.156 82.6788 134.261 79.7834 130.69 79.7834C127.118 79.7834 124.223 82.6788 124.223 86.2503C124.223 89.8219 127.118 92.7172 130.69 92.7172Z" fill="#040000"/>
<path d="M130.029 103.125H144.75C144.75 122.057 130.419 137.969 111.014 142.5C108.783 139.63 104.713 135.602 99.5267 135.602C93.3932 135.602 89.6571 139.479 87.7609 142.299C68.7461 137.566 54.75 121.806 54.75 103.125H69.4155C71.7572 105.945 75.6609 109.57 80.5676 109.57C86.5346 109.57 90.2145 105.945 92.1664 103.125H107.278C109.62 105.945 113.523 109.57 118.43 109.57C124.397 109.57 128.077 105.945 130.029 103.125Z" fill="#321B41"/>
</svg>
