<svg width="200" height="200" viewBox="0 0 200 200" fill="none" xmlns="http://www.w3.org/2000/svg">
<mask id="path-1-outside-1_1062_29901" maskUnits="userSpaceOnUse" x="19" y="19" width="162" height="162" fill="black">
<rect fill="white" x="19" y="19" width="162" height="162"/>
<path d="M158.333 25C167.537 25 175 32.4628 175 41.667V158.333C175 167.537 167.537 175 158.333 175H41.667C32.4628 175 25 167.537 25 158.333V41.667C25 32.4628 32.4628 25 41.667 25H158.333Z"/>
</mask>
<path d="M158.333 25C167.537 25 175 32.4628 175 41.667V158.333C175 167.537 167.537 175 158.333 175H41.667C32.4628 175 25 167.537 25 158.333V41.667C25 32.4628 32.4628 25 41.667 25H158.333Z" fill="#EAC00F"/>
<path d="M158.333 25V31C164.223 31 169 35.7765 169 41.667H175H181C181 29.1491 170.851 19 158.333 19V25ZM175 41.667H169V158.333H175H181V41.667H175ZM175 158.333H169C169 164.223 164.223 169 158.333 169V175V181C170.851 181 181 170.851 181 158.333H175ZM158.333 175V169H41.667V175V181H158.333V175ZM41.667 175V169C35.7765 169 31 164.223 31 158.333H25H19C19 170.851 29.1491 181 41.667 181V175ZM25 158.333H31V41.667H25H19V158.333H25ZM25 41.667H31C31 35.7765 35.7765 31 41.667 31V25V19C29.1491 19 19 29.1491 19 41.667H25ZM41.667 25V31H158.333V25V19H41.667V25Z" fill="white" mask="url(#path-1-outside-1_1062_29901)"/>
<path d="M175 158.333C175 167.538 167.538 175 158.333 175H41.6667C32.4625 175 25 167.538 25 158.333V41.6667C25 32.4625 32.4625 25 41.6667 25H158.333C167.538 25 175 32.4625 175 41.6667V158.333Z" fill="#4B9AE8"/>
<path d="M104.016 41.8042C71.8782 39.5875 44.024 63.8417 41.8032 95.9834C39.5824 128.125 63.8407 155.979 95.9782 158.196C128.12 160.417 155.974 136.158 158.191 104.021C160.412 71.8792 136.157 44.025 104.016 41.8042ZM99.0865 150.067C85.2657 149.817 74.2615 138.404 74.5157 124.575C74.7615 110.763 86.1782 99.75 99.999 100C113.82 100.25 125.232 89.2459 125.491 75.4292C125.682 64.7709 119.141 55.6459 109.832 51.8584L110.462 51.1459C133.449 56.0375 150.512 76.5458 150.07 100.908C149.562 128.571 126.749 150.571 99.0865 150.067Z" fill="white"/>
<path d="M99.9992 135.704C105.911 135.704 110.703 130.912 110.703 125C110.703 119.088 105.911 114.296 99.9992 114.296C94.0874 114.296 89.2949 119.088 89.2949 125C89.2949 130.912 94.0874 135.704 99.9992 135.704Z" fill="white"/>
<path d="M99.8315 131.495C103.376 131.495 106.249 128.622 106.249 125.077C106.249 121.533 103.376 118.66 99.8315 118.66C96.2872 118.66 93.4141 121.533 93.4141 125.077C93.4141 128.622 96.2872 131.495 99.8315 131.495Z" fill="black"/>
<path d="M89.582 74.9999C89.582 77.7626 90.6795 80.4121 92.633 82.3656C94.5865 84.3191 97.236 85.4166 99.9987 85.4166C102.761 85.4166 105.411 84.3191 107.364 82.3656C109.318 80.4121 110.415 77.7626 110.415 74.9999C110.415 72.2372 109.318 69.5877 107.364 67.6342C105.411 65.6807 102.761 64.5833 99.9987 64.5833C97.236 64.5833 94.5865 65.6807 92.633 67.6342C90.6795 69.5877 89.582 72.2372 89.582 74.9999Z" fill="#4B9AE8"/>
<path d="M79.3763 139.604C76.2149 140.199 70.274 138.599 69.2035 135.319C68.133 132.039 72.0327 126.974 75.2599 125.77C78.4807 124.568 81.4559 126.166 83.0477 131.065C84.6567 136.017 82.5376 139.009 79.3763 139.604Z" fill="#EAC00F"/>
</svg>
