<svg width="200" height="200" viewBox="0 0 200 200" fill="none" xmlns="http://www.w3.org/2000/svg">
<mask id="path-1-outside-1_898_4540" maskUnits="userSpaceOnUse" x="14" y="14" width="172" height="173" fill="black">
<rect fill="white" x="14" y="14" width="172" height="173"/>
<path d="M144 20C163.882 20 180 36.1178 180 56V144.389C180 164.271 163.882 180.389 144 180.389H56C36.1178 180.389 20 164.271 20 144.389V56C20 36.1178 36.1178 20 56 20H144Z"/>
</mask>
<path d="M144 20C163.882 20 180 36.1178 180 56V144.389C180 164.271 163.882 180.389 144 180.389H56C36.1178 180.389 20 164.271 20 144.389V56C20 36.1178 36.1178 20 56 20H144Z" fill="#60A4E2"/>
<path d="M144 20L144 14H144V20ZM180 144.389L186 144.389V144.389H180ZM56 180.389L56 186.389H56V180.389ZM20 56L14 56V56H20ZM144 20L144 26C160.569 26 174 39.4315 174 56H180H186C186 32.804 167.196 14 144 14L144 20ZM180 56H174V144.389H180H186V56H180ZM180 144.389L174 144.389C174 160.957 160.569 174.389 144 174.389V180.389V186.389C167.196 186.389 186 167.585 186 144.389L180 144.389ZM144 180.389V174.389H56V180.389V186.389H144V180.389ZM56 180.389L56 174.389C39.4315 174.389 26 160.957 26 144.389H20H14C14 167.585 32.804 186.389 56 186.389L56 180.389ZM20 144.389H26V56H20H14V144.389H20ZM20 56L26 56C26 39.4315 39.4315 26 56 26V20V14C32.804 14 14 32.804 14 56L20 56ZM56 20V26H144V20V14H56V20Z" fill="white" mask="url(#path-1-outside-1_898_4540)"/>
<rect x="20" y="20" width="160" height="160" rx="36" fill="#E7F7FF"/>
<path d="M180 144.389C180 164.271 163.882 180.389 144 180.389H56C36.1178 180.389 20 164.271 20 144.389V142.102C35.485 149.337 64.7739 159 103 159C136.843 159 164.178 147.956 180 138.61V144.389Z" fill="#D0ECFA"/>
<path d="M40 112L43.2168 157.84C43.658 164.126 48.886 169 55.1874 169H86.8126C93.114 169 98.342 164.126 98.7832 157.84L102 112" stroke="#60A4E2" stroke-width="3" stroke-linecap="round" stroke-linejoin="bevel"/>
<path d="M76.3666 103C77.9831 103 79.3088 104.281 79.3646 105.896L79.7826 118H91.6029C93.8817 118 95.7002 119.901 95.599 122.178L94.1244 155.355C93.9342 159.631 90.4123 163 86.1322 163H56.4369C52.1569 163 48.6349 159.631 48.4447 155.355L46.9701 122.178C46.8689 119.901 48.6874 118 50.9662 118H62.4222L63.975 105.627C64.1632 104.126 65.4392 103 66.9515 103H76.3666Z" fill="#4E90CD"/>
<path d="M48.2 149.783C53.0405 150.85 60.7453 152 71.4686 152C81.9256 152 89.5118 150.905 94.3709 149.861L94.1268 155.355C93.9366 159.631 90.4146 163 86.1346 163H56.4393C52.1593 163 48.6373 159.631 48.4471 155.355L48.2 149.783Z" fill="#377CBC"/>
<path d="M76.9994 135.676C77.0485 138.312 74.1863 142.449 71.6239 142.497C69.0616 142.544 66.0502 138.514 66.0011 135.877C65.9519 133.24 67.589 131.071 71.4121 131.002C75.2793 130.931 76.9502 133.039 76.9994 135.676Z" fill="#E8BE0F"/>
<path d="M57.5001 137C60.5377 137 63.0001 134.538 63.0001 131.5C63.0001 128.463 60.5377 126 57.5001 126C54.4626 126 52.0001 128.463 52.0001 131.5C52.0001 134.538 54.4626 137 57.5001 137Z" fill="white"/>
<path d="M57.499 128.458C59.1792 128.458 60.5418 129.82 60.542 131.5C60.542 133.18 59.1793 134.543 57.499 134.543C55.8189 134.543 54.457 133.18 54.457 131.5C54.4572 129.82 55.819 128.458 57.499 128.458Z" fill="black"/>
<path d="M86.5001 137C89.5377 137 92.0001 134.538 92.0001 131.5C92.0001 128.463 89.5377 126 86.5001 126C83.4626 126 81.0001 128.463 81.0001 131.5C81.0001 134.538 83.4626 137 86.5001 137Z" fill="white"/>
<path d="M86.499 128.458C88.1792 128.458 89.5418 129.82 89.542 131.5C89.542 133.18 88.1793 134.543 86.499 134.543C84.8189 134.543 83.457 133.18 83.457 131.5C83.4572 129.82 84.819 128.458 86.499 128.458Z" fill="black"/>
<path d="M111.428 30.9995C116.092 30.9995 120.075 33.9029 121.676 37.9995H125C127.209 37.9995 129 39.7906 129 41.9995C129 44.2087 127.209 45.9995 125 45.9995H121.676C120.773 48.3101 119.113 50.2396 117 51.4839V60.4204C123.854 61.9494 129.604 66.2382 132.908 71.9995H141.788C142.931 71.9996 143.857 72.9221 143.857 74.0591V94.647C143.857 95.7839 142.931 96.7055 141.788 96.7056H131.558C127.134 102.811 119.768 106.809 111.428 106.809C103.089 106.809 95.7234 102.811 91.2986 96.7056H86.4597C84.1739 96.7056 82.321 98.5495 82.321 100.824V103.381C82.3208 105.38 80.7004 106.999 78.7019 107H63.4763C61.4777 107 59.8574 105.38 59.8572 103.381V100.824C59.8574 84.9049 70.4594 71.9995 86.4597 71.9995H89.949C93.2762 66.1983 99.0824 61.8902 106 60.3892V51.5649C103.819 50.3244 102.105 48.3614 101.182 45.9995H98.9998C96.7907 45.9994 94.9998 44.2086 94.9998 41.9995C95 39.7907 96.7909 37.9996 98.9998 37.9995H101.182C102.783 33.9031 106.765 30.9996 111.428 30.9995Z" fill="#9AD7F7"/>
<rect x="140" y="68" width="21.7143" height="33.4762" rx="6" fill="#3897C7"/>
</svg>
