<svg width="200" height="200" viewBox="0 0 200 200" fill="none" xmlns="http://www.w3.org/2000/svg">
<mask id="path-1-outside-1_1347_13945" maskUnits="userSpaceOnUse" x="17.8066" y="7.00049" width="167" height="185" fill="black">
<rect fill="white" x="17.8066" y="7.00049" width="167" height="185"/>
<path d="M77.3027 20.6274C79.7212 14.4286 87.0148 12.0936 92.3975 15.7163C95.7908 18.0108 100.198 18.0108 103.592 15.7163C109.013 12.0939 116.268 14.4688 118.687 20.6274L121.377 28.397L121.585 29.0005H121.884L124.457 36.769H132.233C135.13 36.769 136.636 40.2501 134.59 42.3159C132.086 44.8879 129.091 46.9902 125.758 48.4829C131.475 55.5634 134.944 64.9851 134.944 75.6519C134.944 78.1811 134.197 83.275 133.838 83.5991C133.922 83.6484 134 83.6975 134.063 83.7397C134.214 83.8358 134.346 83.9234 134.458 84.0005H141.139C142.507 84.0005 143.421 85.0486 143.523 86.2007L151.35 81.6274V74.8188C151.35 72.84 152.126 71.0407 153.38 69.729C144.949 67.5043 138.693 59.7976 138.693 50.688C138.693 39.8514 147.544 31.0005 158.381 31.0005C169.217 31.0006 178.068 39.8515 178.068 50.688C178.068 59.7976 171.813 67.5043 163.382 69.729C164.636 71.0407 165.412 72.8401 165.412 74.8188V75.6226C168.492 77.0832 170.693 80.9545 170.693 85.5005C170.693 85.9539 170.667 86.4002 170.625 86.8384C170.837 88.9456 170.919 91.1777 170.789 93.4663C170.785 93.6112 170.771 93.7587 170.763 93.9097C170.744 94.202 170.716 94.4971 170.694 94.7954C170.656 95.2728 170.591 95.7518 170.518 96.2329C170.393 97.184 170.221 98.1475 169.989 99.1001C169.58 100.874 169.006 102.632 168.225 104.356C167.509 105.955 166.616 107.507 165.514 108.999C164.141 110.887 162.434 112.691 160.341 114.331C159.25 115.197 158.032 116.014 156.708 116.791C156.555 116.88 156.402 116.966 156.249 117.052C156.44 118.579 156.534 120.069 156.534 121.5C156.534 121.562 156.533 121.624 156.532 121.686C156.809 132.438 153.052 143.181 145.014 151.869C144.683 152.27 144.357 152.649 144.034 153C138.548 158.986 130.076 162.981 130.034 163C130.034 163 129.772 163.114 129.277 163.314C126.219 164.794 122.897 166.086 119.306 167.164V178.094L127.81 176.34C129.085 176.34 130.254 176.861 131.106 177.707C131.945 178.552 132.474 179.715 132.474 181.004C132.474 183.569 130.374 185.668 127.81 185.668H115.543C113.599 185.668 112.014 184.083 112.014 182.146V168.973C109.971 169.38 107.856 169.725 105.668 170C105.667 169.993 105.666 169.985 105.665 169.978L105.534 170V170H89.4658L89.4639 169.991C89.1425 169.95 88.823 169.906 88.5049 169.863C86.8127 169.667 84.2166 169.309 82.873 169.121V182.146C82.873 184.083 81.288 185.668 79.3506 185.668H67.085C64.5205 185.668 62.4209 183.569 62.4209 181.004C62.4209 179.722 62.9495 178.553 63.7949 177.708C64.6404 176.862 65.8025 176.34 67.0918 176.34L75.5957 178.102V167.101C49.6178 159.278 38.5738 140.336 39.7822 121.087C33.1874 117.66 28.6947 111.805 25.7695 106.483C22.6361 100.788 27.4936 93.9887 35.3477 93.0337L52.3438 90.9731C52.9284 90.2819 53.5322 89.6005 54.1553 88.9302L53.3369 88.2036C51.7015 86.7091 52.7297 84.0007 54.9258 84.0005H61.0811V83.937C61.0881 82.4642 61.1162 77.7724 61.1162 75.6519C61.1162 64.9823 64.5855 55.5586 70.3037 48.4771C66.9758 46.9847 63.9864 44.8843 61.4863 42.3159C59.44 40.2502 60.9071 36.7692 63.8418 36.769H71.6104L74.1836 29.0005H74.4424L74.6504 28.397L77.3027 20.6274Z"/>
</mask>
<path d="M77.3027 20.6274C79.7212 14.4286 87.0148 12.0936 92.3975 15.7163C95.7908 18.0108 100.198 18.0108 103.592 15.7163C109.013 12.0939 116.268 14.4688 118.687 20.6274L121.377 28.397L121.585 29.0005H121.884L124.457 36.769H132.233C135.13 36.769 136.636 40.2501 134.59 42.3159C132.086 44.8879 129.091 46.9902 125.758 48.4829C131.475 55.5634 134.944 64.9851 134.944 75.6519C134.944 78.1811 134.197 83.275 133.838 83.5991C133.922 83.6484 134 83.6975 134.063 83.7397C134.214 83.8358 134.346 83.9234 134.458 84.0005H141.139C142.507 84.0005 143.421 85.0486 143.523 86.2007L151.35 81.6274V74.8188C151.35 72.84 152.126 71.0407 153.38 69.729C144.949 67.5043 138.693 59.7976 138.693 50.688C138.693 39.8514 147.544 31.0005 158.381 31.0005C169.217 31.0006 178.068 39.8515 178.068 50.688C178.068 59.7976 171.813 67.5043 163.382 69.729C164.636 71.0407 165.412 72.8401 165.412 74.8188V75.6226C168.492 77.0832 170.693 80.9545 170.693 85.5005C170.693 85.9539 170.667 86.4002 170.625 86.8384C170.837 88.9456 170.919 91.1777 170.789 93.4663C170.785 93.6112 170.771 93.7587 170.763 93.9097C170.744 94.202 170.716 94.4971 170.694 94.7954C170.656 95.2728 170.591 95.7518 170.518 96.2329C170.393 97.184 170.221 98.1475 169.989 99.1001C169.58 100.874 169.006 102.632 168.225 104.356C167.509 105.955 166.616 107.507 165.514 108.999C164.141 110.887 162.434 112.691 160.341 114.331C159.25 115.197 158.032 116.014 156.708 116.791C156.555 116.88 156.402 116.966 156.249 117.052C156.44 118.579 156.534 120.069 156.534 121.5C156.534 121.562 156.533 121.624 156.532 121.686C156.809 132.438 153.052 143.181 145.014 151.869C144.683 152.27 144.357 152.649 144.034 153C138.548 158.986 130.076 162.981 130.034 163C130.034 163 129.772 163.114 129.277 163.314C126.219 164.794 122.897 166.086 119.306 167.164V178.094L127.81 176.34C129.085 176.34 130.254 176.861 131.106 177.707C131.945 178.552 132.474 179.715 132.474 181.004C132.474 183.569 130.374 185.668 127.81 185.668H115.543C113.599 185.668 112.014 184.083 112.014 182.146V168.973C109.971 169.38 107.856 169.725 105.668 170C105.667 169.993 105.666 169.985 105.665 169.978L105.534 170V170H89.4658L89.4639 169.991C89.1425 169.95 88.823 169.906 88.5049 169.863C86.8127 169.667 84.2166 169.309 82.873 169.121V182.146C82.873 184.083 81.288 185.668 79.3506 185.668H67.085C64.5205 185.668 62.4209 183.569 62.4209 181.004C62.4209 179.722 62.9495 178.553 63.7949 177.708C64.6404 176.862 65.8025 176.34 67.0918 176.34L75.5957 178.102V167.101C49.6178 159.278 38.5738 140.336 39.7822 121.087C33.1874 117.66 28.6947 111.805 25.7695 106.483C22.6361 100.788 27.4936 93.9887 35.3477 93.0337L52.3438 90.9731C52.9284 90.2819 53.5322 89.6005 54.1553 88.9302L53.3369 88.2036C51.7015 86.7091 52.7297 84.0007 54.9258 84.0005H61.0811V83.937C61.0881 82.4642 61.1162 77.7724 61.1162 75.6519C61.1162 64.9823 64.5855 55.5586 70.3037 48.4771C66.9758 46.9847 63.9864 44.8843 61.4863 42.3159C59.44 40.2502 60.9071 36.7692 63.8418 36.769H71.6104L74.1836 29.0005H74.4424L74.6504 28.397L77.3027 20.6274Z" fill="#276286"/>
<path d="M77.3027 20.6274L71.7131 18.4467C71.6818 18.5268 71.6523 18.6076 71.6245 18.689L77.3027 20.6274ZM92.3975 15.7163L95.7583 10.7459L95.7476 10.7387L92.3975 15.7163ZM103.592 15.7163L100.259 10.7274C100.249 10.7335 100.24 10.7397 100.231 10.7459L103.592 15.7163ZM118.687 20.6274L124.356 18.6641C124.33 18.587 124.301 18.5104 124.271 18.4344L118.687 20.6274ZM121.377 28.397L127.049 26.4419L127.047 26.4337L121.377 28.397ZM121.585 29.0005L115.912 30.9556C116.747 33.376 119.025 35.0005 121.585 35.0005V29.0005ZM121.884 29.0005L127.579 27.1139C126.766 24.6583 124.471 23.0005 121.884 23.0005V29.0005ZM124.457 36.769L118.761 38.6557C119.575 41.1112 121.87 42.769 124.457 42.769V36.769ZM134.59 42.3159L130.327 38.0935C130.315 38.1059 130.303 38.1183 130.291 38.1307L134.59 42.3159ZM125.758 48.4829L123.306 43.0069C121.607 43.7677 120.357 45.2741 119.923 47.0844C119.489 48.8947 119.92 50.804 121.09 52.2523L125.758 48.4829ZM134.944 75.6519H140.944V75.6518L134.944 75.6519ZM133.838 83.5991L129.819 79.1437C128.397 80.4263 127.673 82.3106 127.87 84.2155C128.066 86.1204 129.161 87.8169 130.815 88.7818L133.838 83.5991ZM134.063 83.7397L130.736 88.7323C130.771 88.7558 130.806 88.7789 130.842 88.8017L134.063 83.7397ZM134.458 84.0005L131.062 88.9471C132.062 89.6332 133.246 90.0005 134.458 90.0005V84.0005ZM143.523 86.2007L137.547 86.7307C137.728 88.7773 138.945 90.5888 140.77 91.5316C142.596 92.4745 144.777 92.4177 146.551 91.3811L143.523 86.2007ZM151.35 81.6274L154.377 86.8078C156.218 85.732 157.35 83.7598 157.35 81.6274H151.35ZM151.35 74.8188L145.35 74.8187V74.8188H151.35ZM153.38 69.729L157.717 73.8748C159.184 72.3397 159.731 70.1434 159.154 68.0997C158.578 66.056 156.964 64.4693 154.911 63.9276L153.38 69.729ZM138.693 50.688H132.693V50.6881L138.693 50.688ZM158.381 31.0005L158.381 25.0005H158.381V31.0005ZM178.068 50.688L184.068 50.6881V50.688H178.068ZM163.382 69.729L161.851 63.9276C159.798 64.4693 158.184 66.056 157.607 68.0997C157.031 70.1434 157.577 72.3397 159.044 73.8747L163.382 69.729ZM165.412 74.8188H171.412V74.8187L165.412 74.8188ZM165.412 75.6226H159.412C159.412 77.9402 160.747 80.0506 162.841 81.0437L165.412 75.6226ZM170.693 85.5005L176.693 85.5006V85.5005H170.693ZM170.625 86.8384L164.653 86.2595C164.615 86.6513 164.616 87.0459 164.655 87.4376L170.625 86.8384ZM170.789 93.4663L164.799 93.1266C164.796 93.1786 164.793 93.2306 164.792 93.2826L170.789 93.4663ZM170.763 93.9097L176.751 94.2893C176.752 94.2694 176.753 94.2494 176.754 94.2293L170.763 93.9097ZM170.694 94.7954L176.675 95.2788C176.676 95.2657 176.677 95.2527 176.678 95.2396L170.694 94.7954ZM170.518 96.2329L164.587 95.3254C164.58 95.3687 164.574 95.412 164.568 95.4555L170.518 96.2329ZM169.989 99.1001L164.159 97.6816C164.154 97.7043 164.148 97.7271 164.143 97.7498L169.989 99.1001ZM168.225 104.356L162.76 101.878C162.756 101.887 162.752 101.896 162.748 101.905L168.225 104.356ZM165.514 108.999L160.689 105.432C160.679 105.445 160.669 105.458 160.66 105.472L165.514 108.999ZM160.341 114.331L156.641 109.607C156.63 109.615 156.62 109.624 156.609 109.633L160.341 114.331ZM156.708 116.791L159.736 121.971L159.743 121.966L156.708 116.791ZM156.249 117.052L153.302 111.826C151.181 113.022 149.993 115.381 150.295 117.797L156.249 117.052ZM156.534 121.5L162.534 121.501V121.5H156.534ZM156.532 121.686L150.532 121.65C150.532 121.713 150.533 121.777 150.534 121.84L156.532 121.686ZM145.014 151.869L140.61 147.794C140.532 147.877 140.457 147.964 140.384 148.052L145.014 151.869ZM144.034 153L148.457 157.055V157.055L144.034 153ZM130.034 163L132.415 168.508C132.474 168.482 132.533 168.456 132.591 168.428L130.034 163ZM129.277 163.314L127.027 157.752C126.904 157.802 126.783 157.855 126.663 157.913L129.277 163.314ZM119.306 167.164L117.582 161.417C115.044 162.178 113.306 164.514 113.306 167.164H119.306ZM119.306 178.094H113.306C113.306 179.898 114.117 181.606 115.516 182.746C116.914 183.885 118.751 184.335 120.518 183.971L119.306 178.094ZM127.81 176.34L127.81 170.34C127.403 170.34 126.997 170.382 126.598 170.464L127.81 176.34ZM131.106 177.707L135.367 173.482C135.355 173.47 135.343 173.458 135.331 173.446L131.106 177.707ZM132.474 181.004L138.474 181.005V181.004H132.474ZM127.81 185.668V191.668H127.81L127.81 185.668ZM115.543 185.668L115.543 191.668H115.543V185.668ZM112.014 182.146H106.014V182.147L112.014 182.146ZM112.014 168.973H118.014C118.014 167.176 117.208 165.474 115.819 164.334C114.43 163.195 112.603 162.738 110.841 163.089L112.014 168.973ZM105.668 170L99.7206 170.794C100.156 174.062 103.148 176.366 106.419 175.953L105.668 170ZM105.665 169.978L111.613 169.186C111.398 167.578 110.542 166.124 109.238 165.158C107.934 164.191 106.294 163.794 104.693 164.057L105.665 169.978ZM105.534 170L104.562 164.079C101.662 164.555 99.5342 167.061 99.5342 170H105.534ZM105.534 170V176C108.848 176 111.534 173.314 111.534 170H105.534ZM89.4658 170L83.5823 171.177C84.1432 173.982 86.6057 176 89.4658 176V170ZM89.4639 169.991L95.3474 168.814C94.8417 166.286 92.777 164.363 90.2189 164.038L89.4639 169.991ZM88.5049 169.863L89.3187 163.918C89.2768 163.913 89.2349 163.907 89.1929 163.902L88.5049 169.863ZM82.873 169.121L83.7052 163.179C81.9855 162.938 80.2458 163.454 78.9356 164.593C77.6253 165.733 76.873 167.384 76.873 169.121H82.873ZM82.873 182.146L88.873 182.146V182.146H82.873ZM62.4209 181.004L56.4209 181.004V181.004H62.4209ZM63.7949 177.708L59.5524 173.465L59.5523 173.465L63.7949 177.708ZM67.0918 176.34L68.3089 170.465C67.9085 170.382 67.5007 170.34 67.0918 170.34V176.34ZM75.5957 178.102L74.3786 183.977C76.1458 184.343 77.984 183.895 79.3837 182.755C80.7833 181.616 81.5957 179.907 81.5957 178.102H75.5957ZM75.5957 167.101H81.5957C81.5957 164.454 79.8607 162.119 77.3258 161.356L75.5957 167.101ZM39.7822 121.087L45.7704 121.463C45.9192 119.093 44.6562 116.858 42.549 115.763L39.7822 121.087ZM25.7695 106.483L31.0278 103.593L31.0262 103.59L25.7695 106.483ZM35.3477 93.0337L34.6255 87.0773L34.6234 87.0776L35.3477 93.0337ZM52.3438 90.9731L53.0659 96.9295C54.5688 96.7473 55.9473 96.0037 56.9249 94.8478L52.3438 90.9731ZM54.1553 88.9302L58.5501 93.015C59.6496 91.832 60.2258 90.2558 60.1484 88.6426C60.071 87.0294 59.3465 85.5156 58.1388 84.4434L54.1553 88.9302ZM53.3369 88.2036L49.2894 92.6328C49.3106 92.6522 49.3319 92.6714 49.3534 92.6904L53.3369 88.2036ZM54.9258 84.0005V78.0005H54.9252L54.9258 84.0005ZM61.0811 84.0005V90.0005C64.3948 90.0005 67.0811 87.3142 67.0811 84.0005H61.0811ZM61.0811 83.937L55.0811 83.9083C55.0811 83.9179 55.0811 83.9274 55.0811 83.937H61.0811ZM61.1162 75.6519L55.1162 75.6518V75.6519H61.1162ZM70.3037 48.4771L74.9718 52.2465C76.141 50.7985 76.5721 48.89 76.1388 47.0801C75.7055 45.2702 74.4569 43.7638 72.7588 43.0023L70.3037 48.4771ZM61.4863 42.3159L65.7857 38.1308C65.7735 38.1182 65.7612 38.1057 65.7489 38.0933L61.4863 42.3159ZM63.8418 36.769V30.769H63.8415L63.8418 36.769ZM71.6104 36.769V42.769C74.1971 42.769 76.4926 41.1112 77.306 38.6557L71.6104 36.769ZM74.1836 29.0005V23.0005C71.5968 23.0005 69.3013 24.6583 68.4879 27.1139L74.1836 29.0005ZM74.4424 29.0005V35.0005C77.0025 35.0005 79.2807 33.376 80.1149 30.9556L74.4424 29.0005ZM74.6504 28.397L80.3229 30.3521C80.3248 30.3465 80.3267 30.341 80.3286 30.3354L74.6504 28.397ZM77.3027 20.6274L82.8924 22.8082C83.96 20.0719 86.9564 19.2867 89.0473 20.6939L92.3975 15.7163L95.7476 10.7387C87.0732 4.90044 75.4824 8.78529 71.7131 18.4467L77.3027 20.6274ZM92.3975 15.7163L89.0367 20.6867C94.4603 24.354 101.529 24.354 106.953 20.6867L103.592 15.7163L100.231 10.7459C98.8679 11.6676 97.1214 11.6676 95.7583 10.7459L92.3975 15.7163ZM103.592 15.7163L106.925 20.7052C109.043 19.29 112.03 20.0908 113.102 22.8205L118.687 20.6274L124.271 18.4344C120.507 8.84693 108.984 4.89778 100.259 10.7274L103.592 15.7163ZM118.687 20.6274L113.017 22.5907L115.707 30.3603L121.377 28.397L127.047 26.4337L124.356 18.6641L118.687 20.6274ZM121.377 28.397L115.704 30.3521L115.912 30.9556L121.585 29.0005L127.257 27.0454L127.049 26.4419L121.377 28.397ZM121.585 29.0005V35.0005H121.884V29.0005V23.0005H121.585V29.0005ZM121.884 29.0005L116.188 30.8871L118.761 38.6557L124.457 36.769L130.153 34.8824L127.579 27.1139L121.884 29.0005ZM124.457 36.769V42.769H132.233V36.769V30.769H124.457V36.769ZM132.233 36.769V42.769C129.99 42.769 128.487 39.9516 130.327 38.0935L134.59 42.3159L138.853 46.5383C144.785 40.5487 140.269 30.769 132.233 30.769V36.769ZM134.59 42.3159L130.291 38.1307C128.314 40.1611 125.946 41.8247 123.306 43.0069L125.758 48.4829L128.21 53.959C132.237 52.1556 135.858 49.6146 138.889 46.5011L134.59 42.3159ZM125.758 48.4829L121.09 52.2523C125.91 58.222 128.944 66.2999 128.944 75.6519L134.944 75.6519L140.944 75.6518C140.944 63.6702 137.04 52.9047 130.426 44.7135L125.758 48.4829ZM134.944 75.6519H128.944C128.944 76.4997 128.802 78.0824 128.586 79.6081C128.481 80.3444 128.376 80.9416 128.296 81.3191C128.252 81.5225 128.238 81.555 128.262 81.4771C128.272 81.4458 128.328 81.2642 128.443 81.0113C128.501 80.8825 128.609 80.6567 128.777 80.3867C128.923 80.1527 129.254 79.6533 129.819 79.1437L133.838 83.5991L137.857 88.0545C138.864 87.1454 139.306 86.1129 139.376 85.9572C139.541 85.5928 139.65 85.2661 139.715 85.0596C139.849 84.6311 139.952 84.1928 140.029 83.8335C140.189 83.0858 140.339 82.1907 140.466 81.2967C140.713 79.5622 140.944 77.3333 140.944 75.6519H134.944ZM133.838 83.5991L130.815 88.7818C130.8 88.7733 130.788 88.7658 130.777 88.7589C130.766 88.7521 130.752 88.7435 130.736 88.7323L134.063 83.7397L137.391 78.7472C137.235 78.6429 137.055 78.5298 136.861 78.4165L133.838 83.5991ZM134.063 83.7397L130.842 88.8017C130.928 88.8564 131.001 88.9052 131.062 88.9471L134.458 84.0005L137.854 79.0539C137.69 78.9417 137.501 78.8151 137.285 78.6778L134.063 83.7397ZM134.458 84.0005V90.0005H141.139V84.0005V78.0005H134.458V84.0005ZM141.139 84.0005V90.0005C139.011 90.0005 137.684 88.2737 137.547 86.7307L143.523 86.2007L149.5 85.6706C149.159 81.8235 146.002 78.0005 141.139 78.0005V84.0005ZM143.523 86.2007L146.551 91.3811L154.377 86.8078L151.35 81.6274L148.322 76.4471L140.496 81.0203L143.523 86.2007ZM151.35 81.6274H157.35V74.8188H151.35H145.35V81.6274H151.35ZM151.35 74.8188L157.35 74.819C157.35 74.4313 157.498 74.1043 157.717 73.8748L153.38 69.729L149.043 65.5832C146.754 67.9771 145.35 71.2488 145.35 74.8187L151.35 74.8188ZM153.38 69.729L154.911 63.9276C149.037 62.3776 144.693 56.9947 144.693 50.6879L138.693 50.688L132.693 50.6881C132.694 62.6005 140.861 72.6311 151.849 75.5304L153.38 69.729ZM138.693 50.688H144.693C144.693 43.1651 150.858 37.0005 158.381 37.0005V31.0005V25.0005C144.231 25.0005 132.693 36.5377 132.693 50.688H138.693ZM158.381 31.0005L158.381 37.0005C165.904 37.0006 172.068 43.1653 172.068 50.688H178.068H184.068C184.068 36.5377 172.531 25.0007 158.381 25.0005L158.381 31.0005ZM178.068 50.688L172.068 50.6879C172.068 56.9947 167.725 62.3776 161.851 63.9276L163.382 69.729L164.913 75.5304C175.901 72.6311 184.068 62.6005 184.068 50.6881L178.068 50.688ZM163.382 69.729L159.044 73.8747C159.264 74.1043 159.412 74.4313 159.412 74.819L165.412 74.8188L171.412 74.8187C171.412 71.2488 170.007 67.9771 167.719 65.5833L163.382 69.729ZM165.412 74.8188H159.412V75.6226H165.412H171.412V74.8188H165.412ZM165.412 75.6226L162.841 81.0437C163.032 81.1345 163.493 81.4559 163.938 82.2727C164.371 83.0694 164.693 84.1808 164.693 85.5005H170.693H176.693C176.693 79.2892 173.688 72.9072 167.983 70.2014L165.412 75.6226ZM170.693 85.5005L164.693 85.5004C164.693 85.7266 164.68 85.9766 164.653 86.2595L170.625 86.8384L176.597 87.4173C176.655 86.8237 176.693 86.1812 176.693 85.5006L170.693 85.5005ZM170.625 86.8384L164.655 87.4376C164.84 89.2835 164.908 91.1981 164.799 93.1266L170.789 93.4663L176.779 93.806C176.93 91.1574 176.833 88.6076 176.595 86.2392L170.625 86.8384ZM170.789 93.4663L164.792 93.2826C164.793 93.2363 164.795 93.2155 164.791 93.278C164.79 93.2923 164.789 93.3063 164.788 93.3271C164.786 93.3461 164.785 93.3702 164.783 93.3956C164.78 93.4464 164.775 93.514 164.771 93.59L170.763 93.9097L176.754 94.2293C176.754 94.2299 176.755 94.2224 176.756 94.1985C176.759 94.1564 176.759 94.1607 176.763 94.0934C176.769 94.0082 176.78 93.8412 176.786 93.65L170.789 93.4663ZM170.763 93.9097L164.775 93.53C164.757 93.8161 164.747 93.8605 164.711 94.3512L170.694 94.7954L176.678 95.2396C176.686 95.1336 176.732 94.5878 176.751 94.2893L170.763 93.9097ZM170.694 94.7954L164.714 94.312C164.692 94.5847 164.651 94.9048 164.587 95.3254L170.518 96.2329L176.449 97.1404C176.531 96.5989 176.62 95.9609 176.675 95.2788L170.694 94.7954ZM170.518 96.2329L164.568 95.4555C164.468 96.2189 164.333 96.9661 164.159 97.6816L169.989 99.1001L175.819 100.519C176.109 99.3288 176.318 98.1491 176.467 97.0103L170.518 96.2329ZM169.989 99.1001L164.143 97.7498C163.814 99.1732 163.363 100.55 162.76 101.878L168.225 104.356L173.689 106.834C174.65 104.715 175.345 102.574 175.835 100.45L169.989 99.1001ZM168.225 104.356L162.748 101.905C162.203 103.124 161.526 104.299 160.689 105.432L165.514 108.999L170.338 112.565C171.707 110.715 172.815 108.787 173.701 106.807L168.225 104.356ZM165.514 108.999L160.66 105.472C159.614 106.911 158.294 108.312 156.641 109.607L160.341 114.331L164.04 119.054C166.574 117.07 168.669 114.863 170.368 112.526L165.514 108.999ZM160.341 114.331L156.609 109.633C155.779 110.292 154.803 110.952 153.673 111.615L156.708 116.791L159.743 121.966C161.262 121.075 162.721 120.103 164.073 119.029L160.341 114.331ZM156.708 116.791L153.68 111.611C153.576 111.671 153.468 111.732 153.302 111.826L156.249 117.052L159.196 122.278C159.335 122.2 159.534 122.088 159.736 121.971L156.708 116.791ZM156.249 117.052L150.295 117.797C150.457 119.09 150.534 120.33 150.534 121.5H156.534H162.534C162.534 119.807 162.423 118.069 162.203 116.307L156.249 117.052ZM156.534 121.5L150.534 121.5C150.534 121.485 150.534 121.478 150.534 121.508C150.534 121.517 150.533 121.541 150.533 121.562C150.533 121.585 150.533 121.616 150.532 121.65L156.532 121.686L162.532 121.722C162.532 121.723 162.532 121.724 162.533 121.679C162.533 121.647 162.534 121.578 162.534 121.501L156.534 121.5ZM156.532 121.686L150.534 121.84C150.771 131.057 147.567 140.275 140.61 147.794L145.014 151.869L149.418 155.944C158.537 146.088 162.846 133.819 162.53 121.532L156.532 121.686ZM145.014 151.869L140.384 148.052C140.104 148.392 139.848 148.688 139.611 148.946L144.034 153L148.457 157.055C148.866 156.609 149.261 156.149 149.643 155.686L145.014 151.869ZM144.034 153L139.611 148.946C137.393 151.366 134.417 153.527 131.82 155.145C129.272 156.731 127.366 157.625 127.477 157.573L130.034 163L132.591 168.428C132.654 168.399 142.101 163.989 148.457 157.055L144.034 153ZM130.034 163C127.653 157.493 127.653 157.493 127.654 157.493C127.654 157.493 127.654 157.493 127.654 157.493C127.654 157.493 127.654 157.493 127.654 157.493C127.655 157.493 127.655 157.492 127.655 157.492C127.656 157.492 127.656 157.492 127.656 157.492C127.657 157.491 127.658 157.491 127.658 157.491C127.658 157.491 127.658 157.491 127.656 157.492C127.653 157.493 127.646 157.496 127.635 157.501C127.614 157.51 127.576 157.526 127.523 157.548C127.417 157.592 127.251 157.661 127.027 157.752L129.277 163.314L131.528 168.876C131.798 168.767 132.01 168.679 132.159 168.616C132.234 168.585 132.293 168.56 132.335 168.542C132.357 168.533 132.374 168.525 132.388 168.52C132.394 168.517 132.4 168.514 132.404 168.512C132.407 168.512 132.409 168.511 132.41 168.51C132.411 168.509 132.412 168.509 132.413 168.509C132.413 168.509 132.414 168.508 132.414 168.508C132.414 168.508 132.414 168.508 132.415 168.508C132.415 168.508 132.415 168.508 132.415 168.508C132.415 168.508 132.415 168.508 130.034 163ZM129.277 163.314L126.663 157.913C123.907 159.247 120.883 160.426 117.582 161.417L119.306 167.164L121.03 172.911C124.91 171.747 128.532 170.341 131.891 168.715L129.277 163.314ZM119.306 167.164H113.306V178.094H119.306H125.306V167.164H119.306ZM119.306 178.094L120.518 183.971L129.022 182.217L127.81 176.34L126.598 170.464L118.094 172.218L119.306 178.094ZM127.81 176.34L127.809 182.34C127.424 182.34 127.096 182.18 126.882 181.967L131.106 177.707L135.331 173.446C133.412 171.543 130.745 170.341 127.81 170.34L127.81 176.34ZM131.106 177.707L126.846 181.931C126.64 181.723 126.474 181.394 126.474 181.004H132.474H138.474C138.474 178.036 137.25 175.381 135.367 173.482L131.106 177.707ZM132.474 181.004L126.474 181.004C126.474 180.255 127.06 179.669 127.809 179.668L127.81 185.668L127.81 191.668C133.687 191.668 138.473 186.883 138.474 181.005L132.474 181.004ZM127.81 185.668V179.668H115.543V185.668V191.668H127.81V185.668ZM115.543 185.668L115.543 179.668C116.906 179.669 118.014 180.762 118.014 182.145L112.014 182.146L106.014 182.147C106.014 187.404 110.292 191.668 115.543 191.668L115.543 185.668ZM112.014 182.146H118.014V168.973H112.014H106.014V182.146H112.014ZM112.014 168.973L110.841 163.089C108.941 163.467 106.967 163.789 104.917 164.048L105.668 170L106.419 175.953C108.745 175.66 111.002 175.293 113.186 174.857L112.014 168.973ZM105.668 170L111.615 169.207C111.616 169.214 111.617 169.218 111.617 169.22C111.617 169.222 111.617 169.224 111.617 169.221C111.617 169.22 111.616 169.215 111.616 169.21C111.615 169.204 111.614 169.196 111.613 169.186L105.665 169.978L99.7175 170.77C99.7167 170.764 99.7161 170.759 99.7159 170.757C99.7157 170.756 99.7155 170.755 99.7159 170.757C99.716 170.759 99.7167 170.764 99.7174 170.769C99.7182 170.775 99.7193 170.784 99.7206 170.794L105.668 170ZM105.665 169.978L104.693 164.057L104.562 164.079L105.534 170L106.506 175.92L106.637 175.899L105.665 169.978ZM105.534 170H99.5342V170H105.534H111.534V170H105.534ZM105.534 170V164H89.4658V170V176H105.534V170ZM89.4658 170L95.3493 168.824L95.3474 168.814L89.4639 169.991L83.5804 171.167L83.5823 171.177L89.4658 170ZM89.4639 169.991L90.2189 164.038C89.931 164.002 89.6393 163.962 89.3187 163.918L88.5049 169.863L87.6911 175.807C88.0066 175.851 88.354 175.898 88.7088 175.943L89.4639 169.991ZM88.5049 169.863L89.1929 163.902C87.5846 163.717 85.0598 163.368 83.7052 163.179L82.873 169.121L82.0409 175.063C83.3734 175.249 86.0408 175.618 87.8168 175.823L88.5049 169.863ZM82.873 169.121H76.873V182.146H82.873H88.873V169.121H82.873ZM82.873 182.146L76.873 182.146C76.8731 180.77 77.974 179.668 79.3506 179.668V185.668V191.668C84.602 191.668 88.8728 187.397 88.873 182.146L82.873 182.146ZM79.3506 185.668V179.668H67.085V185.668V191.668H79.3506V185.668ZM67.085 185.668V179.668C67.8342 179.668 68.4209 180.255 68.4209 181.004H62.4209H56.4209C56.4209 186.883 61.2067 191.668 67.085 191.668V185.668ZM62.4209 181.004L68.4209 181.005C68.4209 181.399 68.2553 181.732 68.0376 181.95L63.7949 177.708L59.5523 173.465C57.6437 175.373 56.421 178.045 56.4209 181.004L62.4209 181.004ZM63.7949 177.708L68.0374 181.95C67.8073 182.18 67.4626 182.34 67.0918 182.34V176.34V170.34C64.1425 170.34 61.4734 171.544 59.5524 173.465L63.7949 177.708ZM67.0918 176.34L65.8746 182.216L74.3786 183.977L75.5957 178.102L76.8129 172.227L68.3089 170.465L67.0918 176.34ZM75.5957 178.102H81.5957V167.101H75.5957H69.5957V178.102H75.5957ZM75.5957 167.101L77.3258 161.356C53.8474 154.285 44.7475 137.758 45.7704 121.463L39.7822 121.087L33.794 120.711C32.4001 142.915 45.3882 164.27 73.8656 172.846L75.5957 167.101ZM39.7822 121.087L42.549 115.763C37.4181 113.097 33.6551 108.374 31.0278 103.593L25.7695 106.483L20.5113 109.373C23.7343 115.237 28.9567 122.223 37.0155 126.411L39.7822 121.087ZM25.7695 106.483L31.0262 103.59C30.731 103.054 30.6537 102.404 31.3239 101.464C32.0587 100.433 33.6548 99.2837 36.0719 98.9898L35.3477 93.0337L34.6234 87.0776C29.1865 87.7387 24.4268 90.4665 21.5527 94.498C18.6139 98.6202 17.6745 104.218 20.5128 109.376L25.7695 106.483ZM35.3477 93.0337L36.0698 98.9901L53.0659 96.9295L52.3438 90.9731L51.6216 85.0168L34.6255 87.0773L35.3477 93.0337ZM52.3438 90.9731L56.9249 94.8478C57.4496 94.2274 57.9913 93.6162 58.5501 93.015L54.1553 88.9302L49.7605 84.8454C49.0731 85.5849 48.4072 86.3363 47.7626 87.0985L52.3438 90.9731ZM54.1553 88.9302L58.1388 84.4434L57.3204 83.7168L53.3369 88.2036L49.3534 92.6904L50.1717 93.417L54.1553 88.9302ZM53.3369 88.2036L57.3844 83.7744C59.6578 85.8519 58.3872 90.0001 54.9264 90.0005L54.9258 84.0005L54.9252 78.0005C47.0721 78.0013 43.7451 87.5663 49.2894 92.6328L53.3369 88.2036ZM54.9258 84.0005V90.0005H61.0811V84.0005V78.0005H54.9258V84.0005ZM61.0811 84.0005H67.0811V83.937H61.0811H55.0811V84.0005H61.0811ZM61.0811 83.937L67.081 83.9657C67.0879 82.5135 67.1162 77.7915 67.1162 75.6519H61.1162H55.1162C55.1162 77.7533 55.0883 82.4149 55.0811 83.9083L61.0811 83.937ZM61.1162 75.6519L67.1162 75.6519C67.1162 66.2968 70.1508 58.217 74.9718 52.2465L70.3037 48.4771L65.6356 44.7076C59.0202 52.9002 55.1162 63.6679 55.1162 75.6518L61.1162 75.6519ZM70.3037 48.4771L72.7588 43.0023C70.124 41.8208 67.7598 40.1587 65.7857 38.1308L61.4863 42.3159L57.1869 46.501C60.213 49.6098 63.8277 52.1486 67.8486 53.9518L70.3037 48.4771ZM61.4863 42.3159L65.7489 38.0933C67.5353 39.8966 66.1245 42.7689 63.8421 42.769L63.8418 36.769L63.8415 30.769C55.6897 30.7695 51.3447 40.6038 57.2238 46.5385L61.4863 42.3159ZM63.8418 36.769V42.769H71.6104V36.769V30.769H63.8418V36.769ZM71.6104 36.769L77.306 38.6557L79.8793 30.8871L74.1836 29.0005L68.4879 27.1139L65.9147 34.8824L71.6104 36.769ZM74.1836 29.0005V35.0005H74.4424V29.0005V23.0005H74.1836V29.0005ZM74.4424 29.0005L80.1149 30.9556L80.3229 30.3521L74.6504 28.397L68.9779 26.4419L68.7699 27.0454L74.4424 29.0005ZM74.6504 28.397L80.3286 30.3354L82.981 22.5659L77.3027 20.6274L71.6245 18.689L68.9721 26.4585L74.6504 28.397Z" fill="white" mask="url(#path-1-outside-1_1347_13945)"/>
<path d="M132.473 181.004C132.473 183.568 130.374 185.668 127.809 185.668H115.543C113.599 185.668 112.014 184.083 112.014 182.145V143.53C112.014 141.585 113.599 140 115.543 140H115.776C117.72 140 119.306 141.585 119.306 143.53V178.094L127.809 176.34C129.085 176.34 130.254 176.861 131.107 177.707C131.945 178.552 132.473 179.715 132.473 181.004Z" fill="#474747"/>
<path d="M82.8736 143.53V182.146C82.8736 184.083 81.2884 185.668 79.3509 185.668H67.0849C64.5204 185.668 62.4209 183.569 62.4209 181.004C62.4209 179.722 62.9493 178.552 63.7947 177.707C64.6402 176.862 65.8027 176.34 67.092 176.34L75.5957 178.102V143.53C75.5957 141.593 77.1809 140.007 79.1184 140.007H79.3579C81.2954 140.007 82.8806 141.593 82.8806 143.53H82.8736Z" fill="#474747"/>
<path d="M67.5256 89.1336L35.3474 93.0337C27.4933 93.9888 22.6363 100.788 25.77 106.483C30.6584 115.378 39.9209 125.765 56.0649 123.81C69.5482 122.18 77.4657 113.181 82.0227 104.453C86.3124 96.254 78.3127 87.8202 67.5217 89.1244L67.5256 89.1336Z" fill="#276286"/>
<path d="M170.355 84.6762L170.352 84.6822C170.352 84.6822 170.369 84.7088 170.367 84.7245C170.758 87.4263 170.964 90.3957 170.79 93.4664C170.785 93.6114 170.771 93.7589 170.763 93.9099C170.745 94.2024 170.716 94.4973 170.694 94.7958C170.656 95.2731 170.592 95.7518 170.518 96.2329C170.394 97.1841 170.221 98.1476 169.989 99.1003C169.58 100.874 169.007 102.632 168.225 104.356C167.509 105.956 166.617 107.507 165.514 108.998C164.142 110.887 162.434 112.691 160.341 114.33C159.25 115.197 158.033 116.013 156.709 116.79C153.951 118.402 151.187 119.502 148.457 120.187L148.453 120.193C144.417 121.199 140.474 121.317 136.717 120.823C136.71 120.819 136.701 120.822 136.689 120.815C136.594 120.808 136.494 120.797 136.397 120.78C136.072 120.734 135.747 120.688 135.422 120.642C135.412 120.644 135.394 120.633 135.388 120.63C135.061 120.574 134.73 120.508 134.397 120.449C134.359 120.443 134.334 120.444 134.306 120.436C130.723 119.718 127.347 118.501 124.313 117.069C124.249 117.038 124.195 117.006 124.13 116.976C123.158 116.503 122.332 115.92 121.62 115.257C121.599 115.237 121.581 115.226 121.561 115.206C119.115 112.869 118.284 109.544 118.938 106.177C119.243 104.579 119.893 102.981 120.864 101.477C122.185 99.4262 124.1 97.5495 126.59 96.0976L129.169 94.5924L154.58 79.7394C161.413 75.7506 169.393 78.229 170.337 84.6654L170.355 84.6762Z" fill="#276286"/>
<path d="M155.94 122.891C155.94 123.821 155.904 124.751 155.855 125.653C155.848 125.73 155.841 125.801 155.841 125.871C155.242 134.544 152.044 142.287 146.901 148.768C140.524 156.821 131.154 162.908 120.058 166.361C117.705 167.107 115.267 167.72 112.766 168.221C109.328 168.904 105.77 169.341 102.113 169.524C101.38 169.566 100.641 169.595 99.9009 169.609C99.281 169.616 98.6539 169.623 98.0269 169.623C97.3998 169.623 96.7799 169.616 96.1599 169.609C91.8481 169.51 87.6491 169.059 83.6262 168.291C81.1321 167.812 78.6944 167.206 76.3413 166.473C65.0898 163.028 55.6068 156.906 49.1603 148.775C49.1603 148.775 49.1603 148.768 49.1532 148.768C43.996 142.259 40.7834 134.459 40.2127 125.73C40.2127 125.674 40.2056 125.603 40.1986 125.54C40.1493 124.666 40.1211 123.786 40.1211 122.891C40.1211 121.848 40.1563 120.812 40.2268 119.791C41.2343 105.566 49.1391 92.9481 61.081 84.3809V83.937C61.0881 82.4646 61.1163 77.7724 61.1163 75.6517C61.1163 52.3598 77.6447 35 98.0269 35C98.7314 35 99.436 35.0141 100.133 35.0705C119.543 36.2118 134.945 53.17 134.945 75.6517C134.945 78.181 134.198 83.2748 133.838 83.5989C133.923 83.6482 134 83.6975 134.064 83.7398C134.684 84.1343 134.973 84.3809 134.973 84.3809C146.915 92.9199 154.812 105.524 155.827 119.742C155.904 120.784 155.947 121.834 155.947 122.891H155.94Z" fill="#4B9AE8"/>
<path d="M105.059 74.8766C104.622 78.2443 100.902 83.7045 97.0411 83.7326C93.1802 83.7608 89.1009 78.2232 88.9107 74.5948C88.7205 70.9735 91.433 68.4935 97.1961 68.4583C103.023 68.4231 105.495 71.5089 105.059 74.8766Z" fill="#EAC00F"/>
<path opacity="0.5" d="M105.058 74.8766C104.621 78.2373 100.908 83.7045 97.0406 83.7326C96.4347 83.7326 95.8217 83.6058 95.2158 83.3522C98.3721 82.0558 101.078 77.7159 101.451 74.8766C101.838 71.8823 99.9221 69.1135 95.392 68.5569C95.9556 68.5006 96.5544 68.4654 97.1885 68.4583C103.022 68.4231 105.488 71.516 105.051 74.8766H105.058Z" fill="#AF8F0C"/>
<path d="M117.274 72.0444C121.515 72.0444 124.954 68.6062 124.954 64.365C124.954 60.1237 121.515 56.6855 117.274 56.6855C113.033 56.6855 109.595 60.1237 109.595 64.365C109.595 68.6062 113.033 72.0444 117.274 72.0444Z" fill="white"/>
<path d="M117.275 68.4582C119.536 68.4582 121.368 66.6255 121.368 64.3648C121.368 62.1041 119.536 60.2715 117.275 60.2715C115.014 60.2715 113.182 62.1041 113.182 64.3648C113.182 66.6255 115.014 68.4582 117.275 68.4582Z" fill="#040000"/>
<path d="M77.0173 72.0444C81.2586 72.0444 84.6968 68.6062 84.6968 64.365C84.6968 60.1237 81.2586 56.6855 77.0173 56.6855C72.7761 56.6855 69.3379 60.1237 69.3379 64.365C69.3379 68.6062 72.7761 72.0444 77.0173 72.0444Z" fill="white"/>
<path d="M77.0172 68.4587C79.2779 68.4587 81.1105 66.626 81.1105 64.3653C81.1105 62.1046 79.2779 60.272 77.0172 60.272C74.7565 60.272 72.9238 62.1046 72.9238 64.3653C72.9238 66.626 74.7565 68.4587 77.0172 68.4587Z" fill="#040000"/>
<path d="M144.034 153C149.534 147 156.534 133.5 156.534 121.5C156.534 109.5 150.034 93.5 133.534 84.5C127.034 85.5 127.534 99 97.5339 99C54.3822 99 65.5337 80 57.034 87C48.5342 94 38.0341 110.5 40.0341 128.5C42.0341 146.5 58.5339 158 62.5341 161C66.5343 164 78.5341 170 96.2841 170C114.034 170 130.034 163 130.034 163C130.034 163 138.534 159 144.034 153Z" fill="#433B6B"/>
<path d="M98.0634 104C91.3008 104 84.7717 104.821 78.5342 106.365L89.4662 170H105.534L117.534 106.317C111.297 104.821 104.768 104 98.0634 104Z" fill="#F4F4F4"/>
<path d="M95.3934 119.056L89.5342 107H106.534L100.675 119.056L105.32 147H90.7485L95.3934 119.056Z" fill="#F92F60"/>
<path d="M87.0654 116.496L98.0342 108.331L109.003 116.496C110.454 117.578 112.601 116.821 112.949 115.144L117.534 94C117.534 94 105.5 97 97.2303 97C88.9607 97 78.5342 94 78.5342 94L83.1191 115.144C83.4672 116.821 85.6146 117.578 87.0654 116.496Z" fill="#E0CAFF"/>
<path d="M118.686 20.6274L121.377 28.3964L121.707 29.351L118.686 33.5407L124.264 36.7692H132.234C135.131 36.7692 136.637 40.2504 134.59 42.3162C129.376 47.6719 122.039 51 113.929 51H82.1469C74.0373 51 66.7 47.6719 61.4866 42.3162C59.4398 40.2504 60.9073 36.7692 63.8422 36.7692H71.764L77.3027 33.0601L74.3213 29.351L74.6504 28.3964L77.3027 20.6274C79.721 14.4283 87.0148 12.0936 92.3975 15.7164C95.7909 18.0109 100.198 18.0109 103.592 15.7164C109.013 12.0936 116.268 14.4686 118.686 20.6274Z" fill="#433B6B"/>
<path d="M92.9545 37H124.534L121.884 29H74.1842L71.5342 37H92.9545Z" fill="#321B41"/>
<path d="M56.0337 87L73.5337 90.5C79.0344 107.5 95.0342 141 89.5342 170C34.034 163 28.0342 114.5 56.0337 87Z" fill="#635994"/>
<path d="M139.169 87L121.669 90.5C116.034 115 101.534 139 105.669 170C161.169 163 169.535 112.5 139.169 87Z" fill="#635994"/>
<path d="M77.7301 84C77.7301 84 89.5342 137.907 90.5342 146.953C91.5342 156 91 170 90 170C89 170 82 169 82 169L59.8329 105.95C59.0385 104.549 59.5058 102.774 60.9077 101.98L63.4778 100.532C64.5993 99.8784 64.7862 98.3373 63.8049 97.4965L53.3375 88.2031C51.7019 86.7085 52.73 84 54.9263 84H77.7301Z" fill="#8D65C5"/>
<path d="M118.354 84C118.354 84 107.034 137 105.534 146.953C104.034 156.907 105.534 170 105.534 170L111.534 169L136.226 105.95C137.022 104.549 136.554 102.774 135.15 101.98L132.577 100.532C131.454 99.8784 131.267 98.3373 132.249 97.4965L142.73 88.2031C144.367 86.7085 143.338 84 141.139 84H118.354Z" fill="#8D65C5"/>
<path d="M158.381 67.5625C167.701 67.5625 175.256 60.0076 175.256 50.6875C175.256 41.3674 167.701 33.8125 158.381 33.8125C149.061 33.8125 141.506 41.3674 141.506 50.6875C141.506 60.0076 149.061 67.5625 158.381 67.5625Z" fill="#D7E8FC"/>
<path d="M153.38 69.7287C144.948 67.504 138.693 59.7972 138.693 50.6875C138.693 39.8509 147.544 31 158.381 31C169.217 31 178.068 39.8509 178.068 50.6875C178.068 59.7972 171.813 67.504 163.382 69.7287C164.636 71.0404 165.412 72.8399 165.412 74.8188V92.8187C165.412 96.8125 162.251 100.075 158.381 100.075C154.511 100.075 151.35 96.8125 151.35 92.8187V74.8188C151.35 72.8399 152.126 71.0404 153.38 69.7287ZM142.892 50.6875C142.892 59.2549 149.813 66.1765 158.381 66.1765C166.948 66.1765 173.87 59.2549 173.87 50.6875C173.87 42.1201 166.891 35.1985 158.381 35.1985C149.87 35.1985 142.892 42.1201 142.892 50.6875Z" fill="#321B41"/>
<path d="M163.303 52.0938C166.021 52.0938 168.225 49.8899 168.225 47.1719C168.225 44.4539 166.021 42.25 163.303 42.25C160.585 42.25 158.381 44.4539 158.381 47.1719C158.381 49.8899 160.585 52.0938 163.303 52.0938Z" fill="#F4F4F4"/>
<ellipse cx="162.693" cy="85.5" rx="8" ry="10.5" fill="#276286"/>
<ellipse cx="143" cy="74" rx="5" ry="8" fill="white"/>
</svg>
