<svg width="200" height="200" viewBox="0 0 200 200" fill="none" xmlns="http://www.w3.org/2000/svg">
<mask id="path-1-outside-1_1062_21325" maskUnits="userSpaceOnUse" x="31.001" y="16" width="138" height="170" fill="black">
<rect fill="white" x="31.001" y="16" width="138" height="170"/>
<path d="M100.189 22C113.182 22.0002 123.476 33.0813 122.745 46.0186L121.957 57.3252L133.207 53.4434C145.695 49.1123 159.195 56.4817 162.345 69.3066C165.439 81.9627 157.113 94.5621 144.288 96.7559L133.601 98.5566L141.701 108.568C150.025 118.806 147.72 133.993 136.751 141.362C126.569 148.168 113.021 145.522 106.041 135.838V167.799C109.258 158.064 118.363 151.016 128.765 150.926L144.965 150.869C145.753 150.869 146.428 151.544 146.371 152.388C145.584 167.35 133.209 179.444 118.022 179.444H106.378C106.167 179.444 105.968 179.405 105.788 179.332H95.6176C95.4485 179.404 95.2636 179.444 95.0726 179.444L78.8724 179.388C65.8784 179.275 54.9096 168.307 54.9096 154.807V152.444C54.9096 151.601 55.5848 150.869 56.4848 150.869H68.1283C80.3846 150.869 90.81 158.745 94.7914 169.649V134.925C88.0196 145.351 73.8986 148.378 63.4574 141.362C52.4325 133.994 50.1822 118.806 58.5072 108.568L66.7201 98.4434L56.7074 96.7559C43.8264 94.5621 35.5573 81.9627 38.6508 69.3066C41.8007 56.4818 55.2447 49.1125 67.7318 53.4434L78.8695 57.2686L77.8568 46.5254C76.6193 33.3629 86.9701 22 100.189 22Z"/>
</mask>
<path d="M100.189 22C113.182 22.0002 123.476 33.0813 122.745 46.0186L121.957 57.3252L133.207 53.4434C145.695 49.1123 159.195 56.4817 162.345 69.3066C165.439 81.9627 157.113 94.5621 144.288 96.7559L133.601 98.5566L141.701 108.568C150.025 118.806 147.72 133.993 136.751 141.362C126.569 148.168 113.021 145.522 106.041 135.838V167.799C109.258 158.064 118.363 151.016 128.765 150.926L144.965 150.869C145.753 150.869 146.428 151.544 146.371 152.388C145.584 167.35 133.209 179.444 118.022 179.444H106.378C106.167 179.444 105.968 179.405 105.788 179.332H95.6176C95.4485 179.404 95.2636 179.444 95.0726 179.444L78.8724 179.388C65.8784 179.275 54.9096 168.307 54.9096 154.807V152.444C54.9096 151.601 55.5848 150.869 56.4848 150.869H68.1283C80.3846 150.869 90.81 158.745 94.7914 169.649V134.925C88.0196 145.351 73.8986 148.378 63.4574 141.362C52.4325 133.994 50.1822 118.806 58.5072 108.568L66.7201 98.4434L56.7074 96.7559C43.8264 94.5621 35.5573 81.9627 38.6508 69.3066C41.8007 56.4818 55.2447 49.1125 67.7318 53.4434L78.8695 57.2686L77.8568 46.5254C76.6193 33.3629 86.9701 22 100.189 22Z" fill="#FFB02E"/>
<path d="M100.189 22L100.189 16H100.189V22ZM122.745 46.0186L128.73 46.4352C128.732 46.4092 128.733 46.3832 128.735 46.3571L122.745 46.0186ZM121.957 57.3252L115.972 56.9085C115.832 58.9172 116.709 60.8621 118.307 62.0871C119.905 63.3121 122.011 63.6538 123.914 62.997L121.957 57.3252ZM133.207 53.4434L135.164 59.1152L135.174 59.1121L133.207 53.4434ZM162.345 69.3066L168.174 67.882L168.172 67.8755L162.345 69.3066ZM144.288 96.7559L145.285 102.672C145.29 102.672 145.295 102.671 145.3 102.67L144.288 96.7559ZM133.601 98.5566L132.604 92.64C130.501 92.9944 128.744 94.4383 127.989 96.4327C127.235 98.4272 127.595 100.672 128.936 102.33L133.601 98.5566ZM141.701 108.568L137.036 112.342C137.039 112.346 137.042 112.35 137.045 112.354L141.701 108.568ZM136.751 141.362L140.086 146.351C140.089 146.348 140.093 146.345 140.097 146.343L136.751 141.362ZM106.041 135.838L110.909 132.33C109.387 130.218 106.676 129.328 104.198 130.128C101.72 130.928 100.041 133.234 100.041 135.838H106.041ZM106.041 167.799H100.041C100.041 170.744 102.18 173.254 105.088 173.723C107.996 174.191 110.814 172.478 111.738 169.681L106.041 167.799ZM128.765 150.926L128.744 144.926C128.734 144.926 128.723 144.926 128.713 144.926L128.765 150.926ZM144.965 150.869V144.869C144.958 144.869 144.951 144.869 144.944 144.869L144.965 150.869ZM146.371 152.388L140.385 151.99C140.383 152.017 140.381 152.045 140.38 152.072L146.371 152.388ZM118.022 179.444L118.022 185.444L118.022 185.444L118.022 179.444ZM105.788 179.332L108.031 173.767C107.318 173.48 106.557 173.332 105.788 173.332V179.332ZM95.6176 179.332V173.332C94.8056 173.332 94.002 173.497 93.2556 173.816L95.6176 179.332ZM95.0726 179.444L95.0517 185.444C95.0592 185.444 95.0668 185.444 95.0744 185.444L95.0726 179.444ZM78.8724 179.388L78.8205 185.387C78.8308 185.388 78.8411 185.388 78.8515 185.388L78.8724 179.388ZM94.7914 169.649L89.1553 171.707C90.1536 174.441 92.9702 176.065 95.8363 175.558C98.7024 175.051 100.791 172.56 100.791 169.649H94.7914ZM94.7914 134.925H100.791C100.791 132.268 99.0436 129.927 96.4957 129.172C93.9479 128.417 91.2071 129.428 89.7597 131.657L94.7914 134.925ZM63.4574 141.362L66.8036 136.382C66.7996 136.379 66.7955 136.377 66.7915 136.374L63.4574 141.362ZM58.5072 108.568L63.1623 112.354L63.167 112.348L58.5072 108.568ZM66.7201 98.4434L71.3799 102.223C72.7241 100.566 73.0871 98.3194 72.333 96.3232C71.579 94.327 69.8215 92.8814 67.7173 92.5268L66.7201 98.4434ZM56.7074 96.7559L55.7001 102.671L55.7103 102.672L56.7074 96.7559ZM38.6508 69.3066L32.8239 67.8755L32.8223 67.882L38.6508 69.3066ZM67.7318 53.4434L65.7657 59.1121C65.7715 59.1141 65.7772 59.116 65.7829 59.118L67.7318 53.4434ZM78.8695 57.2686L76.9206 62.9432C78.8481 63.6052 80.9799 63.2435 82.5812 61.9827C84.1825 60.7219 85.0343 58.7345 84.843 56.7055L78.8695 57.2686ZM77.8568 46.5254L71.8832 47.087L71.8833 47.0885L77.8568 46.5254ZM100.189 22L100.189 28C109.679 28.0002 117.294 36.1272 116.754 45.68L122.745 46.0186L128.735 46.3571C129.657 30.0354 116.686 16.0003 100.189 16L100.189 22ZM122.745 46.0186L116.759 45.6019L115.972 56.9085L121.957 57.3252L127.943 57.7419L128.73 46.4352L122.745 46.0186ZM121.957 57.3252L123.914 62.997L135.164 59.1152L133.207 53.4434L131.25 47.7715L120 51.6533L121.957 57.3252ZM133.207 53.4434L135.174 59.1121C144.313 55.9423 154.209 61.3348 156.518 70.7378L162.345 69.3066L168.172 67.8755C164.181 51.6287 147.077 42.2823 131.241 47.7746L133.207 53.4434ZM162.345 69.3066L156.517 70.7312C158.779 79.9881 152.691 89.2314 143.277 90.8418L144.288 96.7559L145.3 102.67C161.535 99.8928 172.098 83.9373 168.174 67.882L162.345 69.3066ZM144.288 96.7559L143.292 90.8393L132.604 92.64L133.601 98.5566L134.598 104.473L145.285 102.672L144.288 96.7559ZM133.601 98.5566L128.936 102.33L137.036 112.342L141.701 108.568L146.365 104.795L138.266 94.7829L133.601 98.5566ZM141.701 108.568L137.045 112.354C143.13 119.836 141.462 130.969 133.405 136.382L136.751 141.362L140.097 146.343C153.978 137.018 156.921 117.775 146.356 104.783L141.701 108.568ZM136.751 141.362L133.417 136.374C125.958 141.36 116.026 139.429 110.909 132.33L106.041 135.838L101.174 139.346C110.017 151.615 127.179 154.977 140.086 146.351L136.751 141.362ZM106.041 135.838H100.041V167.799H106.041H112.041V135.838H106.041ZM106.041 167.799L111.738 169.681C114.194 162.251 121.124 156.992 128.817 156.926L128.765 150.926L128.713 144.926C115.602 145.04 104.323 153.878 100.344 165.916L106.041 167.799ZM128.765 150.926L128.786 156.926L144.986 156.869L144.965 150.869L144.944 144.869L128.744 144.926L128.765 150.926ZM144.965 150.869V156.869C142.363 156.869 140.205 154.688 140.385 151.99L146.371 152.388L152.358 152.786C152.65 148.4 149.144 144.869 144.965 144.869V150.869ZM146.371 152.388L140.38 152.072C139.756 163.921 129.946 173.444 118.022 173.444L118.022 179.444L118.022 185.444C136.473 185.444 151.412 170.779 152.363 152.703L146.371 152.388ZM118.022 179.444V173.444H106.378V179.444V185.444H118.022V179.444ZM106.378 179.444V173.444C106.927 173.444 107.49 173.549 108.031 173.767L105.788 179.332L103.546 184.897C104.447 185.26 105.408 185.444 106.378 185.444V179.444ZM105.788 179.332V173.332H95.6176V179.332V185.332H105.788V179.332ZM95.6176 179.332L93.2556 173.816C93.8091 173.579 94.4255 173.445 95.0709 173.444L95.0726 179.444L95.0744 185.444C96.1017 185.444 97.0878 185.229 97.9795 184.848L95.6176 179.332ZM95.0726 179.444L95.0936 173.444L78.8934 173.388L78.8724 179.388L78.8515 185.388L95.0517 185.444L95.0726 179.444ZM78.8724 179.388L78.9244 173.388C69.2736 173.304 60.9096 165.063 60.9096 154.807H54.9096H48.9096C48.9096 171.55 62.4833 185.246 78.8205 185.387L78.8724 179.388ZM54.9096 154.807H60.9096V152.444H54.9096H48.9096V154.807H54.9096ZM54.9096 152.444H60.9096C60.9096 154.774 59.0372 156.869 56.4848 156.869V150.869V144.869C52.1323 144.869 48.9096 148.427 48.9096 152.444H54.9096ZM56.4848 150.869V156.869H68.1283V150.869V144.869H56.4848V150.869ZM68.1283 150.869V156.869C77.7404 156.869 85.995 163.052 89.1553 171.707L94.7914 169.649L100.427 167.592C95.6251 154.439 83.0289 144.869 68.1283 144.869V150.869ZM94.7914 169.649H100.791V134.925H94.7914H88.7914V169.649H94.7914ZM94.7914 134.925L89.7597 131.657C84.7896 139.308 74.4288 141.505 66.8036 136.382L63.4574 141.362L60.1112 146.343C73.3683 155.25 91.2495 151.393 99.8231 138.193L94.7914 134.925ZM63.4574 141.362L66.7915 136.374C58.7104 130.973 57.0641 119.853 63.1623 112.354L58.5072 108.568L53.8521 104.783C43.3004 117.759 46.1546 137.014 60.1233 146.351L63.4574 141.362ZM58.5072 108.568L63.167 112.348L71.3799 102.223L66.7201 98.4434L62.0603 94.6636L53.8475 104.789L58.5072 108.568ZM66.7201 98.4434L67.7173 92.5268L57.7046 90.8393L56.7074 96.7559L55.7103 102.672L65.723 104.36L66.7201 98.4434ZM56.7074 96.7559L57.7148 90.841C48.2619 89.2311 42.2133 80.0017 44.4792 70.7312L38.6508 69.3066L32.8223 67.882C28.9014 83.9237 39.3908 99.8931 55.7001 102.671L56.7074 96.7559ZM38.6508 69.3066L44.4776 70.7378C46.7902 61.322 56.6394 55.9468 65.7657 59.1121L67.7318 53.4434L69.6979 47.7746C53.85 42.2781 36.8112 51.6416 32.8239 67.8755L38.6508 69.3066ZM67.7318 53.4434L65.7829 59.118L76.9206 62.9432L78.8695 57.2686L80.8185 51.5939L69.6808 47.7687L67.7318 53.4434ZM78.8695 57.2686L84.843 56.7055L83.8303 45.9623L77.8568 46.5254L71.8833 47.0885L72.896 57.8316L78.8695 57.2686ZM77.8568 46.5254L83.8305 45.9638C82.9241 36.3232 90.5038 28 100.189 28V22V16C83.4364 16 70.3145 30.4026 71.8832 47.087L77.8568 46.5254Z" fill="white" mask="url(#path-1-outside-1_1062_21325)"/>
<path d="M106.04 122.35H94.7897V169.649C90.8084 158.745 80.3835 150.869 68.1272 150.869H56.4832C55.5832 150.869 54.9082 151.6 54.9082 152.444V154.807C54.9082 168.307 65.877 179.275 78.871 179.388L95.071 179.444C95.2622 179.444 95.4473 179.404 95.6166 179.332H105.787C105.967 179.404 106.166 179.444 106.377 179.444H118.02C133.208 179.444 145.583 167.35 146.37 152.388C146.427 151.544 145.752 150.869 144.964 150.869L128.764 150.925C118.362 151.015 109.257 158.064 106.04 167.799V122.35Z" fill="#4B9AE8"/>
<path d="M100.187 22C86.9684 22 76.6184 33.3625 77.8559 46.525L78.8685 57.2688L67.7309 53.4438C55.2437 49.1125 41.7999 56.4812 38.6499 69.3062C35.5562 81.9625 43.8249 94.5625 56.7062 96.7562L66.7185 98.4438L58.5062 108.569C50.1812 118.806 52.4312 133.994 63.4562 141.362C74.256 148.619 88.9934 145.131 95.4622 133.825L100.581 125.669L104.743 133.825C111.212 145.131 125.893 148.619 136.75 141.362C147.718 133.994 150.025 118.806 141.7 108.569L133.6 98.5562L144.287 96.7562C157.112 94.5625 165.437 81.9625 162.343 69.3062C159.193 56.4812 145.693 49.1125 133.206 53.4438L121.956 57.325L122.743 46.0187C123.475 33.0813 113.181 22 100.187 22Z" fill="#E6EAEE"/>
<path d="M99.8514 108.4C111.595 108.4 121.114 98.8808 121.114 87.1375C121.114 75.3947 111.595 65.8752 99.8514 65.8752C88.1086 65.8752 78.5889 75.3947 78.5889 87.1375C78.5889 98.8808 88.1086 108.4 99.8514 108.4Z" fill="#FFB02E"/>
<circle cx="89" cy="151" r="4" fill="white"/>
<circle cx="112" cy="150" r="4" fill="white"/>
</svg>
