<svg width="200" height="200" viewBox="0 0 200 200" fill="none" xmlns="http://www.w3.org/2000/svg">
<mask id="path-1-outside-1_1347_16909" maskUnits="userSpaceOnUse" x="14.8984" y="13.4946" width="165" height="172" fill="black">
<rect fill="white" x="14.8984" y="13.4946" width="165" height="172"/>
<path d="M142.187 19.5366C146.233 19.1438 146.703 21.6135 147.129 23.8521C147.179 24.1176 147.229 24.3803 147.284 24.6343C149.162 33.2702 148.241 35.3352 146.075 40.1899C145.706 41.0167 145.3 41.9246 144.867 42.9595C144.144 44.6875 144.542 45.3976 145.081 46.3589C145.126 46.4394 145.172 46.5221 145.219 46.6069C161.918 63.438 173.124 82.862 173.124 102.637C173.124 138.637 162.227 160.94 135.984 171.798L135.985 171.799C135.976 171.803 135.966 171.806 135.956 171.81C135.88 171.841 135.805 171.876 135.729 171.907C135.726 171.906 135.724 171.905 135.722 171.905C132.647 173.163 129.364 174.269 125.863 175.219C124.841 177.921 122.453 180.32 117.226 177.344C117.104 177.275 116.981 177.202 116.855 177.128C116.905 177.158 116.954 177.188 117.004 177.217C111.78 178.177 106.148 178.863 100.09 179.283C85.3718 180.302 72.0015 176.457 60.6436 169.338C60.4382 173.842 58.9612 178.399 56.2334 178.399C46.9595 178.399 36.8131 166.008 38.4004 147.948C28.6606 134.11 22.7699 117.13 21.9863 99.9966L21.9873 99.9956C21.8923 97.9177 21.8732 95.8376 21.9307 93.7603C21.9307 78.7979 40.8484 66.1942 54.0635 66.1938H90.9072C110.37 66.1938 126.177 82.0009 126.177 101.463C125.225 115.03 145.15 120.622 147.664 105.85C150.436 89.5647 144.339 71.1737 133.969 58.0776C132.871 57.813 132.235 57.8145 131.465 58.3394C124.389 65.4146 119.314 65.7207 109.799 63.4819C109.385 63.2159 108.912 63.0563 108.455 62.9019C107.172 62.4683 106.008 62.0743 106.591 59.4829C107.378 55.9848 112.864 49.8758 112.919 49.8149C117.269 44.7173 122.807 43.5747 125.443 43.8823C127.701 44.1457 128.337 43.4952 128.703 43.1196C128.764 43.0568 128.818 43.0013 128.871 42.9595C129.235 42.6701 129.612 40.535 129.618 40.4985C128.696 35.5768 129.861 31.0596 132.694 27.0952C132.694 27.0952 137.66 19.9764 142.187 19.5366ZM116.307 176.794C116.439 176.878 116.571 176.958 116.7 177.036C116.571 176.958 116.439 176.878 116.307 176.794ZM115.003 175.914C115.23 176.078 115.455 176.235 115.677 176.384C115.455 176.235 115.23 176.078 115.003 175.914ZM113.968 175.119C114.09 175.218 114.211 175.317 114.333 175.412C114.211 175.317 114.09 175.218 113.968 175.119ZM113.454 174.688C113.56 174.78 113.667 174.869 113.772 174.958C113.667 174.869 113.56 174.78 113.454 174.688ZM112.871 174.167C112.99 174.277 113.109 174.383 113.228 174.489C113.109 174.383 112.99 174.277 112.871 174.167ZM104.623 157.373C106.026 165.809 109.395 170.897 112.75 174.052C109.395 170.897 106.026 165.808 104.623 157.373ZM104.124 153.259C104.216 154.417 104.343 155.521 104.499 156.576C104.343 155.522 104.217 154.418 104.125 153.261L104.124 153.259ZM115.867 176.512C116.015 176.61 116.162 176.704 116.307 176.794C116.162 176.704 116.015 176.61 115.867 176.512ZM114.471 175.517C114.601 175.618 114.731 175.716 114.86 175.811C114.731 175.716 114.601 175.618 114.471 175.517ZM104.525 156.754C104.554 156.943 104.584 157.13 104.614 157.316C104.584 157.13 104.554 156.943 104.525 156.754Z"/>
</mask>
<path d="M142.187 19.5366C146.233 19.1438 146.703 21.6135 147.129 23.8521C147.179 24.1176 147.229 24.3803 147.284 24.6343C149.162 33.2702 148.241 35.3352 146.075 40.1899C145.706 41.0167 145.3 41.9246 144.867 42.9595C144.144 44.6875 144.542 45.3976 145.081 46.3589C145.126 46.4394 145.172 46.5221 145.219 46.6069C161.918 63.438 173.124 82.862 173.124 102.637C173.124 138.637 162.227 160.94 135.984 171.798L135.985 171.799C135.976 171.803 135.966 171.806 135.956 171.81C135.88 171.841 135.805 171.876 135.729 171.907C135.726 171.906 135.724 171.905 135.722 171.905C132.647 173.163 129.364 174.269 125.863 175.219C124.841 177.921 122.453 180.32 117.226 177.344C117.104 177.275 116.981 177.202 116.855 177.128C116.905 177.158 116.954 177.188 117.004 177.217C111.78 178.177 106.148 178.863 100.09 179.283C85.3718 180.302 72.0015 176.457 60.6436 169.338C60.4382 173.842 58.9612 178.399 56.2334 178.399C46.9595 178.399 36.8131 166.008 38.4004 147.948C28.6606 134.11 22.7699 117.13 21.9863 99.9966L21.9873 99.9956C21.8923 97.9177 21.8732 95.8376 21.9307 93.7603C21.9307 78.7979 40.8484 66.1942 54.0635 66.1938H90.9072C110.37 66.1938 126.177 82.0009 126.177 101.463C125.225 115.03 145.15 120.622 147.664 105.85C150.436 89.5647 144.339 71.1737 133.969 58.0776C132.871 57.813 132.235 57.8145 131.465 58.3394C124.389 65.4146 119.314 65.7207 109.799 63.4819C109.385 63.2159 108.912 63.0563 108.455 62.9019C107.172 62.4683 106.008 62.0743 106.591 59.4829C107.378 55.9848 112.864 49.8758 112.919 49.8149C117.269 44.7173 122.807 43.5747 125.443 43.8823C127.701 44.1457 128.337 43.4952 128.703 43.1196C128.764 43.0568 128.818 43.0013 128.871 42.9595C129.235 42.6701 129.612 40.535 129.618 40.4985C128.696 35.5768 129.861 31.0596 132.694 27.0952C132.694 27.0952 137.66 19.9764 142.187 19.5366ZM116.307 176.794C116.439 176.878 116.571 176.958 116.7 177.036C116.571 176.958 116.439 176.878 116.307 176.794ZM115.003 175.914C115.23 176.078 115.455 176.235 115.677 176.384C115.455 176.235 115.23 176.078 115.003 175.914ZM113.968 175.119C114.09 175.218 114.211 175.317 114.333 175.412C114.211 175.317 114.09 175.218 113.968 175.119ZM113.454 174.688C113.56 174.78 113.667 174.869 113.772 174.958C113.667 174.869 113.56 174.78 113.454 174.688ZM112.871 174.167C112.99 174.277 113.109 174.383 113.228 174.489C113.109 174.383 112.99 174.277 112.871 174.167ZM104.623 157.373C106.026 165.809 109.395 170.897 112.75 174.052C109.395 170.897 106.026 165.808 104.623 157.373ZM104.124 153.259C104.216 154.417 104.343 155.521 104.499 156.576C104.343 155.522 104.217 154.418 104.125 153.261L104.124 153.259ZM115.867 176.512C116.015 176.61 116.162 176.704 116.307 176.794C116.162 176.704 116.015 176.61 115.867 176.512ZM114.471 175.517C114.601 175.618 114.731 175.716 114.86 175.811C114.731 175.716 114.601 175.618 114.471 175.517ZM104.525 156.754C104.554 156.943 104.584 157.13 104.614 157.316C104.584 157.13 104.554 156.943 104.525 156.754Z" fill="#D7E8FC"/>
<path d="M142.187 19.5366L141.607 13.5647L141.606 13.5647L142.187 19.5366ZM147.129 23.8521L153.025 22.741L153.023 22.7294L147.129 23.8521ZM147.284 24.6343L141.421 25.9066L141.421 25.9094L147.284 24.6343ZM146.075 40.1899L151.554 42.6353L151.554 42.6348L146.075 40.1899ZM144.867 42.9595L150.402 45.277L150.402 45.276L144.867 42.9595ZM145.081 46.3589L150.321 43.4356C150.318 43.4314 150.316 43.4272 150.314 43.423L145.081 46.3589ZM145.219 46.6069L139.96 49.4956C140.229 49.9858 140.566 50.4359 140.959 50.8328L145.219 46.6069ZM173.124 102.637L179.124 102.637V102.637H173.124ZM135.984 171.798L133.69 166.254C131.838 167.021 130.491 168.661 130.1 170.627C129.708 172.592 130.324 174.624 131.742 176.041L135.984 171.798ZM135.985 171.799L138.279 177.343C140.131 176.577 141.478 174.937 141.87 172.971C142.261 171.005 141.645 168.974 140.228 167.557L135.985 171.799ZM135.956 171.81L133.664 166.265H133.664L135.956 171.81ZM135.729 171.907L134.874 177.846C135.932 177.998 137.012 177.865 138.002 177.459L135.729 171.907ZM135.722 171.905L136.576 165.966C135.518 165.814 134.438 165.947 133.449 166.352L135.722 171.905ZM125.863 175.219L124.291 169.429C122.435 169.933 120.932 171.297 120.251 173.096L125.863 175.219ZM117.226 177.344L114.257 182.558L114.257 182.559L117.226 177.344ZM116.855 177.128L119.911 171.965C117.059 170.277 113.379 171.221 111.692 174.073C110.004 176.925 110.948 180.604 113.8 182.292L116.855 177.128ZM117.004 177.217L118.088 183.119C120.557 182.665 122.483 180.722 122.914 178.249C123.346 175.777 122.193 173.296 120.024 172.033L117.004 177.217ZM100.09 179.283L100.504 185.268H100.504L100.09 179.283ZM60.6436 169.338L63.83 164.254C62.0221 163.121 59.7485 163.034 57.8586 164.024C55.9687 165.014 54.747 166.934 54.6498 169.065L60.6436 169.338ZM56.2334 178.399L56.2331 184.399H56.2334V178.399ZM38.4004 147.948L44.3773 148.473C44.5014 147.062 44.1222 145.653 43.3069 144.494L38.4004 147.948ZM21.9863 99.9966L17.7437 95.7539C16.5511 96.9465 15.9155 98.5859 15.9926 100.271L21.9863 99.9966ZM21.9873 99.9956L26.2299 104.238C27.4225 103.046 28.0581 101.406 27.981 99.7215L21.9873 99.9956ZM21.9307 93.7603L27.9284 93.9261C27.9299 93.8708 27.9307 93.8155 27.9307 93.7603H21.9307ZM54.0635 66.1938V60.1938H54.0633L54.0635 66.1938ZM126.177 101.463L132.162 101.883C132.172 101.744 132.177 101.603 132.177 101.463H126.177ZM147.664 105.85L153.579 106.857V106.857L147.664 105.85ZM133.969 58.0776L138.672 54.3527C137.84 53.3012 136.679 52.559 135.375 52.2447L133.969 58.0776ZM131.465 58.3394L128.085 53.3821C127.776 53.5928 127.487 53.832 127.222 54.0966L131.465 58.3394ZM109.799 63.4819L106.556 68.5298C107.129 68.8983 107.761 69.1663 108.425 69.3224L109.799 63.4819ZM108.455 62.9019L106.534 68.5861L106.535 68.5864L108.455 62.9019ZM106.591 59.4829L112.445 60.7999L112.445 60.7998L106.591 59.4829ZM112.919 49.8149L117.381 53.8264C117.415 53.788 117.449 53.7491 117.483 53.7099L112.919 49.8149ZM125.443 43.8823L124.748 49.8419L124.748 49.8419L125.443 43.8823ZM128.703 43.1196L132.999 47.3082L133.003 47.3043L128.703 43.1196ZM128.871 42.9595L132.601 47.6594L132.603 47.6573L128.871 42.9595ZM129.618 40.4985L135.528 41.5367C135.652 40.8272 135.648 40.1012 135.515 39.3932L129.618 40.4985ZM132.694 27.0952L137.576 30.5838C137.589 30.5652 137.602 30.5466 137.615 30.5279L132.694 27.0952ZM116.7 177.036L113.608 182.177C116.447 183.885 120.134 182.968 121.842 180.128C123.55 177.289 122.633 173.602 119.793 171.894L116.7 177.036ZM115.003 175.914L118.521 171.053C115.837 169.11 112.086 169.711 110.143 172.395C108.2 175.079 108.8 178.83 111.484 180.773L115.003 175.914ZM115.677 176.384L112.331 181.365C115.081 183.213 118.809 182.481 120.657 179.73C122.505 176.98 121.773 173.252 119.023 171.404L115.677 176.384ZM113.968 175.119L117.757 170.466C115.187 168.374 111.408 168.76 109.315 171.33C107.223 173.899 107.609 177.678 110.179 179.771L113.968 175.119ZM114.333 175.412L110.64 180.141C113.252 182.18 117.023 181.716 119.062 179.104C121.101 176.493 120.638 172.722 118.026 170.683L114.333 175.412ZM113.454 174.688L117.378 170.149C114.872 167.982 111.083 168.257 108.915 170.764C106.748 173.27 107.023 177.059 109.53 179.227L113.454 174.688ZM113.772 174.958L109.932 179.568C112.478 181.688 116.261 181.344 118.382 178.798C120.503 176.252 120.159 172.469 117.613 170.348L113.772 174.958ZM112.871 174.167L116.949 169.766C114.519 167.513 110.723 167.658 108.47 170.088C106.218 172.519 106.362 176.315 108.793 178.567L112.871 174.167ZM113.228 174.489L109.243 178.975C111.721 181.175 115.513 180.951 117.714 178.473C119.914 175.995 119.689 172.203 117.212 170.003L113.228 174.489ZM110.542 156.388C109.998 153.119 106.907 150.91 103.639 151.454C100.37 151.998 98.1607 155.088 98.7044 158.357L104.623 157.373L110.542 156.388ZM112.75 174.052L108.64 178.423C111.053 180.693 114.851 180.577 117.121 178.163C119.391 175.749 119.274 171.952 116.861 169.682L112.75 174.052ZM104.124 153.259L109.491 150.576C108.206 148.007 105.281 146.709 102.515 147.479C99.7479 148.249 97.915 150.872 98.143 153.735L104.124 153.259ZM98.5636 157.454C99.0486 160.732 102.099 162.996 105.377 162.511C108.655 162.026 110.919 158.976 110.434 155.698L104.499 156.576L98.5636 157.454ZM104.125 153.261L110.106 152.785C110.045 152.017 109.836 151.267 109.492 150.578L104.125 153.261ZM115.867 176.512L119.165 171.5C116.397 169.678 112.676 170.446 110.855 173.214C109.033 175.982 109.801 179.703 112.569 181.524L115.867 176.512ZM114.471 175.517L118.127 170.76C115.5 168.741 111.734 169.233 109.714 171.86C107.694 174.487 108.187 178.254 110.814 180.274L114.471 175.517ZM114.86 175.811L111.305 180.644C113.974 182.608 117.73 182.036 119.693 179.366C121.657 176.697 121.085 172.942 118.416 170.978L114.86 175.811ZM110.457 155.853C109.959 152.577 106.9 150.325 103.624 150.823C100.348 151.321 98.0956 154.38 98.5935 157.656L104.525 156.754L110.457 155.853ZM98.6943 158.293C99.2338 161.562 102.322 163.775 105.591 163.236C108.861 162.696 111.074 159.609 110.534 156.339L104.614 157.316L98.6943 158.293ZM142.187 19.5366L142.766 25.5085C143.194 25.467 143.078 25.5486 142.67 25.4094C142.456 25.3367 142.204 25.2168 141.946 25.0341C141.689 24.8518 141.482 24.6462 141.325 24.4491C141.029 24.0788 140.972 23.8168 141.014 23.9526C141.031 24.0085 141.06 24.1117 141.099 24.2917C141.14 24.4789 141.179 24.6813 141.235 24.9747L147.129 23.8521L153.023 22.7294C152.881 21.9846 152.482 19.1935 150.706 16.966C148.383 14.054 144.958 13.2393 141.607 13.5647L142.187 19.5366ZM147.129 23.8521L141.233 24.9631C141.282 25.2265 141.346 25.563 141.421 25.9066L147.284 24.6343L153.148 23.3619C153.112 23.1977 153.076 23.0088 153.025 22.741L147.129 23.8521ZM147.284 24.6343L141.421 25.9094C142.316 30.0247 142.384 31.9146 142.24 33.11C142.099 34.2712 141.735 35.1914 140.596 37.7451L146.075 40.1899L151.554 42.6348C152.581 40.3337 153.761 37.794 154.153 34.5501C154.541 31.3403 154.13 27.8797 153.147 23.3592L147.284 24.6343ZM146.075 40.1899L140.596 37.7445C140.23 38.5648 139.797 39.534 139.332 40.6429L144.867 42.9595L150.402 45.276C150.804 44.3153 151.182 43.4686 151.554 42.6353L146.075 40.1899ZM144.867 42.9595L139.333 40.6419C138.709 42.1307 138.276 43.8831 138.566 45.8304C138.831 47.6085 139.664 48.9656 139.848 49.2948L145.081 46.3589L150.314 43.423C150.151 43.1332 150.168 43.1546 150.199 43.2244C150.256 43.3518 150.374 43.6497 150.435 44.0629C150.572 44.9829 150.301 45.5162 150.402 45.277L144.867 42.9595ZM145.081 46.3589L139.841 49.2822C139.889 49.367 139.925 49.4315 139.96 49.4956L145.219 46.6069L150.478 43.7182C150.42 43.6127 150.363 43.5118 150.321 43.4356L145.081 46.3589ZM145.219 46.6069L140.959 50.8328C157.132 67.1338 167.124 85.1207 167.124 102.637H173.124H179.124C179.124 80.6032 166.703 59.7422 149.478 42.381L145.219 46.6069ZM173.124 102.637L167.124 102.637C167.124 120.106 164.468 133.604 159.083 143.856C153.786 153.942 145.627 161.315 133.69 166.254L135.984 171.798L138.278 177.342C152.584 171.423 162.995 162.215 169.707 149.436C176.332 136.822 179.124 121.168 179.124 102.637L173.124 102.637ZM135.984 171.798L131.742 176.041L131.743 176.042L135.985 171.799L140.228 167.557L140.227 167.556L135.984 171.798ZM135.985 171.799L133.691 166.255C133.746 166.232 133.795 166.213 133.837 166.197C133.878 166.181 133.913 166.168 133.941 166.159C133.968 166.149 133.989 166.141 134.002 166.137C134.008 166.135 134.013 166.133 134.016 166.132C134.019 166.131 134.021 166.13 134.02 166.131C134.02 166.131 134.017 166.132 134.013 166.133C134.009 166.135 134.003 166.137 133.995 166.139C133.98 166.144 133.956 166.153 133.927 166.163C133.898 166.174 133.86 166.188 133.817 166.204C133.773 166.221 133.722 166.241 133.664 166.265L135.956 171.81L138.248 177.355C138.193 177.378 138.144 177.397 138.103 177.413C138.062 177.428 138.027 177.441 138 177.451C137.973 177.461 137.951 177.468 137.939 177.473C137.933 177.475 137.928 177.477 137.925 177.478C137.922 177.478 137.92 177.479 137.921 177.479C137.922 177.479 137.925 177.477 137.929 177.476C137.933 177.475 137.939 177.473 137.947 177.47C137.962 177.465 137.986 177.456 138.016 177.446C138.045 177.435 138.083 177.421 138.127 177.404C138.17 177.388 138.222 177.367 138.279 177.343L135.985 171.799ZM135.956 171.81L133.664 166.265C133.616 166.285 133.573 166.303 133.54 166.317C133.509 166.33 133.479 166.343 133.464 166.35C133.422 166.368 133.434 166.363 133.455 166.354L135.729 171.907L138.002 177.459C138.1 177.419 138.187 177.382 138.22 177.367C138.27 177.346 138.262 177.349 138.248 177.355L135.956 171.81ZM135.729 171.907L136.583 165.968C136.684 165.982 136.778 165.999 136.866 166.015C136.953 166.032 137.034 166.05 137.107 166.067C137.181 166.085 137.249 166.102 137.309 166.119C137.369 166.135 137.424 166.151 137.471 166.165C137.518 166.18 137.56 166.193 137.595 166.205C137.63 166.216 137.66 166.226 137.683 166.234C137.705 166.242 137.723 166.248 137.734 166.252C137.74 166.254 137.744 166.256 137.747 166.257C137.75 166.258 137.752 166.258 137.751 166.258C137.751 166.258 137.751 166.258 137.751 166.258C137.751 166.258 137.751 166.258 137.751 166.258C137.751 166.258 137.75 166.258 137.75 166.258C137.749 166.258 137.748 166.257 137.747 166.257C137.744 166.256 137.739 166.254 137.734 166.252C137.722 166.248 137.704 166.241 137.681 166.233C137.658 166.226 137.628 166.215 137.593 166.204C137.558 166.192 137.515 166.179 137.468 166.164C137.42 166.15 137.366 166.134 137.305 166.117C137.244 166.101 137.177 166.083 137.103 166.066C137.029 166.048 136.948 166.031 136.86 166.014C136.772 165.997 136.678 165.981 136.576 165.966L135.722 171.905L134.867 177.844C134.766 177.829 134.672 177.813 134.584 177.796C134.497 177.779 134.416 177.761 134.342 177.744C134.269 177.727 134.201 177.709 134.141 177.693C134.081 177.676 134.026 177.66 133.979 177.646C133.932 177.632 133.89 177.618 133.855 177.607C133.82 177.595 133.79 177.585 133.768 177.577C133.745 177.57 133.727 177.563 133.716 177.559C133.71 177.557 133.706 177.556 133.703 177.555C133.701 177.554 133.698 177.553 133.699 177.553C133.699 177.553 133.699 177.553 133.699 177.553C133.699 177.553 133.699 177.553 133.699 177.553C133.699 177.553 133.7 177.554 133.7 177.554C133.701 177.554 133.702 177.554 133.703 177.555C133.706 177.556 133.711 177.558 133.717 177.56C133.728 177.564 133.746 177.57 133.769 177.578C133.793 177.586 133.823 177.596 133.858 177.608C133.893 177.619 133.935 177.633 133.983 177.647C134.03 177.662 134.085 177.678 134.146 177.694C134.206 177.711 134.274 177.728 134.348 177.746C134.422 177.763 134.503 177.781 134.591 177.798C134.678 177.815 134.773 177.831 134.874 177.846L135.729 171.907ZM135.722 171.905L133.449 166.352C130.619 167.51 127.572 168.538 124.291 169.429L125.863 175.219L127.435 181.01C131.156 180 134.674 178.817 137.994 177.458L135.722 171.905ZM125.863 175.219L120.251 173.096C120.156 173.35 120.095 173.407 120.143 173.348C120.209 173.266 120.434 173.028 120.844 172.86C121.039 172.78 121.222 172.739 121.369 172.724C121.512 172.709 121.582 172.722 121.557 172.719C121.488 172.708 121.053 172.619 120.194 172.13L117.226 177.344L114.257 182.559C117.716 184.527 121.642 185.503 125.399 183.962C128.991 182.488 130.697 179.4 131.475 177.342L125.863 175.219ZM117.226 177.344L120.195 172.13C120.118 172.087 120.03 172.035 119.911 171.965L116.855 177.128L113.8 182.292C113.931 182.37 114.089 182.463 114.257 182.558L117.226 177.344ZM116.855 177.128L113.8 182.292C113.794 182.289 113.792 182.287 113.797 182.29C113.804 182.294 113.808 182.297 113.826 182.308C113.852 182.323 113.913 182.361 113.984 182.402L117.004 177.217L120.024 172.033C120.036 172.04 120.045 172.045 120.046 172.046C120.046 172.046 120.044 172.045 120.034 172.038C120.027 172.034 120.007 172.022 119.989 172.011C119.969 171.999 119.942 171.983 119.911 171.965L116.855 177.128ZM117.004 177.217L115.92 171.316C110.948 172.229 105.542 172.891 99.6752 173.297L100.09 179.283L100.504 185.268C106.754 184.835 112.613 184.124 118.088 183.119L117.004 177.217ZM100.09 179.283L99.6753 173.297C86.3055 174.223 74.1856 170.745 63.83 164.254L60.6436 169.338L57.4571 174.422C69.8174 182.169 84.4381 186.381 100.504 185.268L100.09 179.283ZM60.6436 169.338L54.6498 169.065C54.5676 170.867 54.2319 172.356 53.877 173.177C53.6994 173.587 53.6534 173.511 53.9181 173.261C54.2655 172.932 55.0767 172.399 56.2334 172.399V178.399V184.399C61.4482 184.399 63.9651 180.082 64.8918 177.938C66.0087 175.355 66.5141 172.313 66.6373 169.612L60.6436 169.338ZM56.2334 178.399L56.2337 172.399C54.2831 172.399 51.0744 170.963 48.2675 166.665C45.5682 162.532 43.691 156.283 44.3773 148.473L38.4004 147.948L32.4234 147.422C31.5225 157.673 33.9248 166.649 38.2204 173.227C42.4083 179.639 48.9098 184.399 56.2331 184.399L56.2334 178.399ZM38.4004 147.948L43.3069 144.494C34.2183 131.582 28.7109 115.703 27.9801 99.7225L21.9863 99.9966L15.9926 100.271C16.8289 118.557 23.1029 136.638 33.4939 151.401L38.4004 147.948ZM21.9863 99.9966L26.229 104.239L26.2299 104.238L21.9873 99.9956L17.7447 95.753L17.7437 95.7539L21.9863 99.9966ZM21.9873 99.9956L27.981 99.7215C27.8927 97.7896 27.875 95.8562 27.9284 93.9261L21.9307 93.7603L15.933 93.5944C15.8714 95.819 15.8919 98.0459 15.9936 100.27L21.9873 99.9956ZM21.9307 93.7603H27.9307C27.9307 88.846 31.1273 83.5072 36.7517 79.0816C42.344 74.6812 49.1078 72.194 54.0636 72.1938L54.0635 66.1938L54.0633 60.1938C45.8041 60.194 36.5015 64.0089 29.3311 69.651C22.1929 75.2679 15.9307 83.7122 15.9307 93.7603H21.9307ZM54.0635 66.1938V72.1938H90.9072V66.1938V60.1938H54.0635V66.1938ZM90.9072 66.1938V72.1938C107.056 72.1938 120.177 85.3146 120.177 101.463H126.177H132.177C132.177 78.6872 113.683 60.1938 90.9072 60.1938V66.1938ZM126.177 101.463L120.191 101.043C119.478 111.218 126.671 118.299 134.215 120.117C138.051 121.041 142.428 120.741 146.228 118.432C150.146 116.051 152.706 111.986 153.579 106.857L147.664 105.85L141.749 104.843C141.365 107.1 140.492 107.876 139.996 108.177C139.382 108.55 138.367 108.774 137.026 108.451C134.217 107.774 131.924 105.276 132.162 101.883L126.177 101.463ZM147.664 105.85L153.579 106.857C156.693 88.5635 149.872 68.4955 138.672 54.3527L133.969 58.0776L129.265 61.8025C138.807 73.8519 144.179 90.5658 141.749 104.843L147.664 105.85ZM133.969 58.0776L135.375 52.2447C134.663 52.0731 133.469 51.818 132.092 51.9334C130.511 52.0659 129.185 52.6319 128.085 53.3821L131.465 58.3394L134.845 63.2966C134.719 63.3827 134.482 63.5262 134.145 63.6535C133.794 63.7857 133.435 63.863 133.095 63.8914C132.504 63.941 132.177 63.8175 132.563 63.9106L133.969 58.0776ZM131.465 58.3394L127.222 54.0966C124.163 57.1556 122.13 58.1613 120.349 58.5242C118.359 58.9295 115.795 58.7291 111.173 57.6414L109.799 63.4819L108.425 69.3224C113.317 70.4736 118.048 71.2395 122.744 70.2826C127.649 69.2833 131.691 66.5984 135.707 62.5821L131.465 58.3394ZM109.799 63.4819L113.042 58.4341C111.901 57.7012 110.71 57.3304 110.375 57.2174L108.455 62.9019L106.535 68.5864C106.594 68.6063 106.64 68.622 106.685 68.6373C106.729 68.6522 106.763 68.6642 106.793 68.6746C106.822 68.685 106.843 68.6927 106.858 68.6983C106.873 68.7039 106.879 68.7067 106.88 68.7069C106.882 68.7077 106.851 68.6951 106.797 68.6682C106.742 68.641 106.659 68.596 106.556 68.5298L109.799 63.4819ZM108.455 62.9019L110.376 57.2176C109.974 57.0819 110.054 57.0988 110.196 57.1686C110.398 57.2686 110.978 57.5861 111.521 58.2698C112.807 59.8882 112.314 61.3815 112.445 60.7999L106.591 59.4829L100.737 58.1659C100.285 60.1757 100.082 63.1617 102.125 65.7334C103.81 67.8554 106.331 68.5174 106.534 68.5861L108.455 62.9019ZM106.591 59.4829L112.445 60.7998C112.435 60.8405 112.55 60.4421 113.077 59.5438C113.55 58.7394 114.17 57.8412 114.832 56.9564C116.154 55.1908 117.405 53.7993 117.381 53.8264L112.919 49.8149L108.457 45.8035C108.378 45.8914 106.858 47.5848 105.227 49.7635C104.413 50.8509 103.51 52.1395 102.73 53.4664C102.006 54.6992 101.14 56.3763 100.737 58.1661L106.591 59.4829ZM112.919 49.8149L117.483 53.7099C118.971 51.9664 120.604 50.9599 122.012 50.4083C122.723 50.1299 123.362 49.9732 123.875 49.8964C124.13 49.8583 124.339 49.8419 124.498 49.8374C124.576 49.8352 124.638 49.8359 124.682 49.8377C124.726 49.8394 124.748 49.8419 124.748 49.8419L125.443 43.8823L126.139 37.9228C121.521 37.384 114.009 39.295 108.355 45.92L112.919 49.8149ZM125.443 43.8823L124.748 49.8419C126.466 50.0423 128.194 49.9741 129.829 49.3809C131.623 48.73 132.648 47.6687 132.999 47.3082L128.703 43.1196L124.407 38.9311C124.316 39.0243 124.494 38.8313 124.759 38.633C125.055 38.411 125.389 38.2263 125.736 38.1003C126.398 37.8605 126.679 37.9858 126.139 37.9227L125.443 43.8823ZM128.703 43.1196L133.003 47.3043C133.046 47.2606 133.014 47.2935 132.97 47.3361C132.923 47.3817 132.791 47.5081 132.601 47.6594L128.871 42.9595L125.141 38.2596C124.898 38.4527 124.713 38.6278 124.61 38.7273C124.511 38.8238 124.422 38.9158 124.403 38.935L128.703 43.1196ZM128.871 42.9595L132.603 47.6573C133.66 46.818 134.178 45.8327 134.322 45.558C134.544 45.1335 134.695 44.7432 134.788 44.484C134.978 43.9548 135.117 43.4275 135.207 43.059C135.395 42.2917 135.517 41.5961 135.528 41.5367L129.618 40.4985L123.709 39.4604C123.713 39.4375 123.644 39.8276 123.55 40.2094C123.5 40.4153 123.476 40.4784 123.493 40.432C123.499 40.4143 123.561 40.2385 123.693 39.9863C123.762 39.8559 123.885 39.6348 124.074 39.3732C124.248 39.132 124.591 38.6964 125.139 38.2617L128.871 42.9595ZM129.618 40.4985L135.515 39.3932C134.917 36.2017 135.616 33.3257 137.576 30.5838L132.694 27.0952L127.813 23.6067C124.106 28.7936 122.474 34.952 123.721 41.6039L129.618 40.4985ZM132.694 27.0952C137.615 30.5279 137.615 30.5289 137.614 30.5298C137.614 30.53 137.613 30.5309 137.613 30.5315C137.612 30.5325 137.611 30.5335 137.611 30.5343C137.61 30.5361 137.609 30.5374 137.608 30.5383C137.607 30.5401 137.607 30.5403 137.608 30.5389C137.61 30.5361 137.616 30.5271 137.627 30.5122C137.648 30.4825 137.686 30.4295 137.74 30.3566C137.848 30.2104 138.017 29.9867 138.237 29.7109C138.682 29.1509 139.303 28.4171 140.018 27.6914C140.749 26.9484 141.47 26.3271 142.105 25.9069C142.797 25.4487 143.003 25.4855 142.767 25.5085L142.187 19.5366L141.606 13.5647C139.107 13.8076 136.994 14.8992 135.483 15.8994C133.914 16.9377 132.544 18.1786 131.469 19.2703C130.376 20.3792 129.472 21.4526 128.845 22.2412C128.528 22.6396 128.274 22.9755 128.093 23.2203C128.002 23.3429 127.929 23.4434 127.876 23.5181C127.849 23.5554 127.827 23.5865 127.81 23.6107C127.801 23.6228 127.794 23.6332 127.788 23.6418C127.785 23.6461 127.782 23.65 127.78 23.6535C127.778 23.6552 127.777 23.6568 127.776 23.6583C127.776 23.6591 127.775 23.6601 127.775 23.6605C127.774 23.6615 127.773 23.6625 132.694 27.0952ZM116.307 176.794L113.118 181.877C113.292 181.986 113.458 182.087 113.608 182.177L116.7 177.036L119.793 171.894C119.683 171.828 119.586 171.769 119.495 171.712L116.307 176.794ZM116.7 177.036L119.793 171.894C119.683 171.828 119.585 171.768 119.495 171.712L116.307 176.794L113.118 181.877C113.293 181.987 113.458 182.087 113.607 182.177L116.7 177.036ZM115.003 175.914L111.484 180.774C111.763 180.975 112.045 181.173 112.331 181.365L115.677 176.384L119.023 171.404C118.864 171.297 118.697 171.181 118.521 171.053L115.003 175.914ZM115.677 176.384L119.023 171.404C118.864 171.297 118.697 171.18 118.522 171.054L115.003 175.914L111.484 180.773C111.764 180.976 112.046 181.173 112.33 181.364L115.677 176.384ZM113.968 175.119L110.179 179.771C110.302 179.871 110.465 180.004 110.64 180.141L114.333 175.412L118.026 170.683C117.957 170.629 117.879 170.566 117.757 170.466L113.968 175.119ZM114.333 175.412L118.026 170.683C117.957 170.629 117.878 170.565 117.757 170.466L113.968 175.119L110.179 179.771C110.302 179.871 110.465 180.004 110.64 180.14L114.333 175.412ZM113.454 174.688L109.53 179.227C109.674 179.351 109.811 179.466 109.932 179.568L113.772 174.958L117.613 170.348C117.523 170.272 117.447 170.208 117.378 170.149L113.454 174.688ZM113.772 174.958L117.613 170.348C117.522 170.272 117.447 170.208 117.379 170.149L113.454 174.688L109.53 179.227C109.674 179.351 109.811 179.467 109.932 179.567L113.772 174.958ZM112.871 174.167L108.793 178.567C108.956 178.719 109.111 178.857 109.243 178.975L113.228 174.489L117.212 170.003C117.107 169.91 117.024 169.834 116.949 169.766L112.871 174.167ZM113.228 174.489L117.212 170.003C117.107 169.91 117.023 169.834 116.95 169.766L112.871 174.167L108.793 178.567C108.956 178.719 109.111 178.857 109.243 178.975L113.228 174.489ZM104.623 157.373L98.7044 158.357C100.317 168.051 104.299 174.341 108.64 178.423L112.75 174.052L116.86 169.681C114.49 167.453 111.736 163.566 110.542 156.388L104.623 157.373ZM112.75 174.052L116.861 169.682C114.491 167.453 111.736 163.566 110.542 156.388L104.623 157.373L98.7044 158.357C100.317 168.05 104.299 174.341 108.639 178.423L112.75 174.052ZM104.124 153.259L98.143 153.735C98.2457 155.027 98.3877 156.265 98.5636 157.454L104.499 156.576L110.434 155.698C110.298 154.778 110.187 153.807 110.105 152.783L104.124 153.259ZM104.499 156.576L110.434 155.698C110.299 154.781 110.188 153.811 110.106 152.785L104.125 153.261L98.1439 153.738C98.2465 155.025 98.3874 156.263 98.5636 157.454L104.499 156.576ZM104.125 153.261L109.492 150.578L109.491 150.576L104.124 153.259L98.7575 155.943L98.7584 155.945L104.125 153.261ZM115.867 176.512L112.57 181.525C112.756 181.647 112.939 181.765 113.118 181.877L116.307 176.794L119.495 171.712C119.384 171.642 119.274 171.572 119.165 171.5L115.867 176.512ZM116.307 176.794L119.495 171.712C119.384 171.642 119.274 171.571 119.165 171.5L115.867 176.512L112.569 181.524C112.756 181.648 112.94 181.765 113.118 181.877L116.307 176.794ZM114.471 175.517L110.814 180.274C110.963 180.388 111.129 180.515 111.305 180.644L114.86 175.811L118.416 170.978C118.333 170.917 118.24 170.847 118.127 170.76L114.471 175.517ZM114.86 175.811L118.416 170.978C118.333 170.917 118.239 170.846 118.128 170.76L114.471 175.517L110.814 180.274C110.963 180.389 111.129 180.515 111.305 180.644L114.86 175.811ZM104.525 156.754L98.5935 157.656C98.6256 157.867 98.6592 158.08 98.6943 158.293L104.614 157.316L110.534 156.339C110.508 156.181 110.483 156.019 110.457 155.853L104.525 156.754ZM104.614 157.316L110.534 156.339C110.508 156.181 110.483 156.019 110.457 155.853L104.525 156.754L98.5935 157.656C98.6256 157.867 98.6592 158.08 98.6943 158.293L104.614 157.316Z" fill="white" mask="url(#path-1-outside-1_1347_16909)"/>
<path d="M145.219 46.6069C161.918 63.4379 173.124 82.8619 173.124 102.637C173.124 138.754 162.157 161.088 135.729 171.907C132.3 171.413 129.215 170.818 126.437 170.116L126.367 173.39C125.781 176.554 123.642 180.997 117.226 177.344C112.506 174.657 105.348 168.622 104.125 153.261C101.247 146.114 100.653 136.899 99.9994 125.313C99.0752 108.939 82.6851 103.429 71.8744 102.813C61.5281 102.225 25.0987 100.187 21.9888 100.013C21.8931 97.9291 21.873 95.8433 21.9306 93.7604C21.9306 78.7979 40.849 66.1942 54.0641 66.1942H90.9078C110.37 66.1942 126.176 82.0008 126.176 101.463C125.224 115.03 145.15 120.623 147.664 105.851C150.436 89.5653 144.34 71.1738 133.969 58.0776C132.871 57.8128 132.235 57.8149 131.465 58.3402C124.389 65.4154 119.314 65.7206 109.799 63.4818C109.385 63.2158 108.913 63.0562 108.455 62.9017C107.172 62.4681 106.008 62.0747 106.591 59.4828C107.382 55.9671 112.919 49.8148 112.919 49.8148C117.27 44.7171 122.807 43.5745 125.444 43.8822C127.702 44.1456 128.337 43.495 128.703 43.1195C128.765 43.0565 128.819 43.0012 128.871 42.9593C129.239 42.6675 129.618 40.4984 129.618 40.4984C128.696 35.5765 129.861 31.0596 132.695 27.0951C132.695 27.0951 137.66 19.9761 142.187 19.5366C146.233 19.1438 146.703 21.6137 147.129 23.8523C147.179 24.1179 147.229 24.3807 147.284 24.6348C149.163 33.2707 148.241 35.3353 146.075 40.1901C145.706 41.0168 145.301 41.9245 144.868 42.9593C144.144 44.6877 144.542 45.3973 145.081 46.3587C145.126 46.4394 145.173 46.5219 145.219 46.6069Z" fill="#4B9AE8"/>
<path d="M56.234 178.399C46.4782 178.399 35.7554 164.688 38.7437 145.088C40.5015 146.213 53.4508 156.631 59.8375 162.754C61.6832 167.5 60.4527 178.399 56.234 178.399Z" fill="#4B9AE8"/>
<path d="M97.2799 98.6926C102.718 98.6926 107.126 94.2843 107.126 88.8463C107.126 83.4083 102.718 79 97.2799 79C91.842 79 87.4336 83.4083 87.4336 88.8463C87.4336 94.2843 91.842 98.6926 97.2799 98.6926Z" fill="white"/>
<path d="M97.1277 94.8203C100.388 94.8203 103.031 92.1774 103.031 88.9172C103.031 85.6571 100.388 83.0142 97.1277 83.0142C93.8675 83.0142 91.2246 85.6571 91.2246 88.9172C91.2246 92.1774 93.8675 94.8203 97.1277 94.8203Z" fill="black"/>
<path d="M126.465 168.667C129.27 169.715 132.427 170.75 135.986 171.8C132.835 173.104 129.462 174.243 125.861 175.221C126.094 174.606 126.256 173.976 126.364 173.39L126.465 168.667Z" fill="#AEDDFF"/>
<path d="M104.12 143.536C103.519 139.198 103.235 134.137 102.899 128.122L102.81 126.544C101.886 110.169 81.6287 100.616 70.818 100C60.4773 99.4121 25.0467 99.9493 21.9863 99.9971C23.8898 141.619 55.927 182.342 100.09 179.283C106.148 178.864 111.78 178.178 117.004 177.218C111.381 173.943 102.581 165.933 104.12 143.536Z" fill="#D7E8FC"/>
</svg>
