<svg width="200" height="200" viewBox="0 0 200 200" fill="none" xmlns="http://www.w3.org/2000/svg">
<mask id="path-1-outside-1_1347_9691" maskUnits="userSpaceOnUse" x="21.8271" y="16.0508" width="157" height="168" fill="black">
<rect fill="white" x="21.8271" y="16.0508" width="157" height="168"/>
<path d="M106.776 37.3779C120.02 20.8811 143.406 23.0882 147.693 23.2158C150.475 23.2986 151.891 23.7149 152.4 24.2441C152.544 24.1629 152.619 24.1201 152.619 24.1201C152.619 24.1201 152.618 24.2857 152.601 24.5723C152.645 24.7252 152.629 24.8822 152.563 25.041C152.463 26.1267 152.172 28.0005 151.317 29.709C150.151 32.043 146.48 42.6187 132.817 51.5215C136.883 51.9251 140.992 52.8835 145.014 54.6641C165.274 63.6334 176.018 84.392 170.608 116.033C165.199 147.675 141.48 173.281 120.122 176.037C109.545 177.402 107.656 173.295 99.5547 173.882C92.9971 174.354 93.3541 177.76 82.165 177.186C75.1948 176.828 68.8834 175.079 63.7637 172.133C62.3802 171.514 45.2073 163.41 34.291 137.687C21.4941 107.551 29.06 79.3155 45.0977 65.9189C63.8144 50.2898 86.001 55.1252 89.2803 55.8652C90.1272 56.063 91.3865 56.2728 92.7881 56.4775C92.6316 55.9201 92.4547 55.3926 92.2441 54.9072C90.6876 51.3348 88.48 47.5071 86.4004 44.9043C84.4078 42.4421 83.1478 40.3837 83.1348 40.3623C83.1348 40.3623 80.6726 40.2349 79.3711 39.7119C78.0698 39.1888 76.2318 39.2267 76.3848 36.9814C76.6399 33.2176 81.463 29.3511 82.624 28.6621C84.831 27.361 88.6965 27.7182 90.1641 28.6621C91.9811 29.8311 91.0777 34.0883 91.0703 34.123C91.0703 34.123 97.5648 43.8707 98.4707 49.8418C98.6123 50.7717 98.8267 52.0063 99.0625 53.4189C99.8019 49.3676 101.768 43.6147 106.776 37.3779Z"/>
</mask>
<path d="M106.776 37.3779C120.02 20.8811 143.406 23.0882 147.693 23.2158C150.475 23.2986 151.891 23.7149 152.4 24.2441C152.544 24.1629 152.619 24.1201 152.619 24.1201C152.619 24.1201 152.618 24.2857 152.601 24.5723C152.645 24.7252 152.629 24.8822 152.563 25.041C152.463 26.1267 152.172 28.0005 151.317 29.709C150.151 32.043 146.48 42.6187 132.817 51.5215C136.883 51.9251 140.992 52.8835 145.014 54.6641C165.274 63.6334 176.018 84.392 170.608 116.033C165.199 147.675 141.48 173.281 120.122 176.037C109.545 177.402 107.656 173.295 99.5547 173.882C92.9971 174.354 93.3541 177.76 82.165 177.186C75.1948 176.828 68.8834 175.079 63.7637 172.133C62.3802 171.514 45.2073 163.41 34.291 137.687C21.4941 107.551 29.06 79.3155 45.0977 65.9189C63.8144 50.2898 86.001 55.1252 89.2803 55.8652C90.1272 56.063 91.3865 56.2728 92.7881 56.4775C92.6316 55.9201 92.4547 55.3926 92.2441 54.9072C90.6876 51.3348 88.48 47.5071 86.4004 44.9043C84.4078 42.4421 83.1478 40.3837 83.1348 40.3623C83.1348 40.3623 80.6726 40.2349 79.3711 39.7119C78.0698 39.1888 76.2318 39.2267 76.3848 36.9814C76.6399 33.2176 81.463 29.3511 82.624 28.6621C84.831 27.361 88.6965 27.7182 90.1641 28.6621C91.9811 29.8311 91.0777 34.0883 91.0703 34.123C91.0703 34.123 97.5648 43.8707 98.4707 49.8418C98.6123 50.7717 98.8267 52.0063 99.0625 53.4189C99.8019 49.3676 101.768 43.6147 106.776 37.3779Z" fill="black"/>
<path d="M106.776 37.3779L111.455 41.1347L111.455 41.1341L106.776 37.3779ZM147.693 23.2158L147.872 17.2185L147.872 17.2185L147.693 23.2158ZM152.4 24.2441L148.078 28.4052C149.978 30.3789 152.973 30.8151 155.357 29.4651L152.4 24.2441ZM152.619 24.1201L158.619 24.1785C158.64 22.032 157.512 20.0378 155.662 18.9491C153.812 17.8603 151.521 17.8429 149.655 18.9035L152.619 24.1201ZM152.601 24.5723L146.611 24.2182C146.57 24.9056 146.648 25.5949 146.842 26.2559L152.601 24.5723ZM152.563 25.041L147.018 22.7497C146.789 23.3038 146.645 23.8891 146.589 24.4861L152.563 25.041ZM151.317 29.709L145.951 27.0257L145.951 27.026L151.317 29.709ZM132.817 51.5215L129.542 46.4945C127.408 47.8846 126.385 50.4697 126.988 52.9434C127.592 55.4171 129.691 57.2406 132.225 57.4921L132.817 51.5215ZM145.014 54.6641L142.585 60.1504L142.585 60.1505L145.014 54.6641ZM170.608 116.033L176.523 117.044V117.044L170.608 116.033ZM120.122 176.037L119.354 170.086L119.354 170.086L120.122 176.037ZM99.5547 173.882L99.9856 179.866L99.9882 179.866L99.5547 173.882ZM82.165 177.186L81.8576 183.178H81.8576L82.165 177.186ZM63.7637 172.133L66.756 166.932C66.5798 166.831 66.3986 166.738 66.213 166.656L63.7637 172.133ZM34.291 137.687L39.8143 135.343L39.8137 135.341L34.291 137.687ZM45.0977 65.9189L41.2519 61.3135L41.2511 61.3141L45.0977 65.9189ZM89.2803 55.8652L90.6444 50.0224C90.63 50.019 90.6156 50.0157 90.6011 50.0124L89.2803 55.8652ZM92.7881 56.4775L91.9208 62.4145C93.9311 62.7082 95.9535 61.9646 97.2947 60.4386C98.636 58.9126 99.1139 56.8116 98.5647 54.8556L92.7881 56.4775ZM92.2441 54.9072L97.7486 52.5197L97.7447 52.5106L92.2441 54.9072ZM86.4004 44.9043L91.0878 41.1589C91.0801 41.1492 91.0723 41.1395 91.0644 41.1298L86.4004 44.9043ZM83.1348 40.3623L88.253 37.2313C87.2203 35.543 85.4214 34.4726 83.4449 34.3703L83.1348 40.3623ZM79.3711 39.7119L77.1333 45.279L77.1341 45.2793L79.3711 39.7119ZM76.3848 36.9814L82.3709 37.3892L82.371 37.3873L76.3848 36.9814ZM82.624 28.6621L79.5769 23.4935C79.5719 23.4964 79.567 23.4993 79.5621 23.5022L82.624 28.6621ZM90.1641 28.6621L93.4104 23.6162L93.4096 23.6157L90.1641 28.6621ZM91.0703 34.123L85.2023 32.8714C84.865 34.4531 85.1804 36.104 86.0771 37.4498L91.0703 34.123ZM98.4707 49.8418L92.5386 50.7418L92.539 50.7447L98.4707 49.8418ZM99.0625 53.4189L93.1444 54.407C93.6245 57.2825 96.102 59.3968 99.0172 59.4188C101.932 59.4408 104.442 57.3641 104.965 54.4961L99.0625 53.4189ZM106.776 37.3779L111.455 41.1341C116.858 34.4042 124.464 31.3051 131.69 29.9616C138.947 28.6126 145.104 29.1414 147.515 29.2132L147.693 23.2158L147.872 17.2185C145.996 17.1626 138.316 16.5241 129.497 18.1638C120.647 19.8091 109.938 23.8549 102.098 33.6218L106.776 37.3779ZM147.693 23.2158L147.515 29.2132C148.08 29.23 148.526 29.2624 148.87 29.3005C149.218 29.3391 149.425 29.3795 149.521 29.4023C149.629 29.4276 149.535 29.416 149.321 29.3168C149.207 29.2644 149.035 29.1758 148.828 29.0375C148.622 28.8996 148.357 28.695 148.078 28.4052L152.4 24.2441L156.723 20.0831C155.25 18.553 153.381 17.9834 152.276 17.7229C150.974 17.4157 149.487 17.2666 147.872 17.2185L147.693 23.2158ZM152.4 24.2441L155.357 29.4651C155.43 29.4237 155.486 29.392 155.524 29.3704C155.543 29.3596 155.558 29.3514 155.567 29.3458C155.572 29.343 155.576 29.3408 155.579 29.3393C155.58 29.3385 155.581 29.338 155.582 29.3375C155.582 29.3373 155.583 29.3372 155.583 29.337C155.583 29.337 155.583 29.3369 155.583 29.3369C155.583 29.3369 155.583 29.3368 155.583 29.3368C155.583 29.3368 155.583 29.3368 155.583 29.3368C155.583 29.3368 155.583 29.3368 155.583 29.3368C155.583 29.3368 155.583 29.3368 152.619 24.1201C149.655 18.9035 149.655 18.9034 149.655 18.9034C149.655 18.9034 149.655 18.9034 149.655 18.9034C149.655 18.9034 149.655 18.9034 149.655 18.9034C149.655 18.9034 149.655 18.9034 149.655 18.9034C149.655 18.9034 149.655 18.9034 149.655 18.9034C149.655 18.9035 149.655 18.9036 149.655 18.9037C149.654 18.9039 149.653 18.9044 149.652 18.9049C149.65 18.9061 149.647 18.9079 149.643 18.9104C149.634 18.9153 149.621 18.9229 149.603 18.9329C149.568 18.9531 149.514 18.9834 149.444 19.0232L152.4 24.2441ZM152.619 24.1201C146.619 24.0617 146.619 24.0614 146.619 24.0612C146.619 24.0611 146.619 24.0609 146.619 24.0607C146.619 24.0604 146.619 24.06 146.619 24.0597C146.619 24.0591 146.619 24.0584 146.619 24.0578C146.619 24.0565 146.619 24.0553 146.62 24.0541C146.62 24.0518 146.62 24.0495 146.62 24.0475C146.62 24.0433 146.62 24.0398 146.62 24.0368C146.62 24.0308 146.62 24.0272 146.62 24.0257C146.62 24.0229 146.62 24.0288 146.619 24.0429C146.618 24.0713 146.616 24.1314 146.611 24.2182L152.601 24.5723L158.59 24.9263C158.602 24.7265 158.609 24.5606 158.613 24.4345C158.615 24.3714 158.616 24.318 158.617 24.2752C158.618 24.2538 158.618 24.2349 158.618 24.2188C158.618 24.2107 158.619 24.2033 158.619 24.1966C158.619 24.1933 158.619 24.1901 158.619 24.1871C158.619 24.1856 158.619 24.1841 158.619 24.1827C158.619 24.182 158.619 24.1813 158.619 24.1806C158.619 24.1802 158.619 24.1799 158.619 24.1795C158.619 24.1794 158.619 24.1791 158.619 24.179C158.619 24.1788 158.619 24.1785 152.619 24.1201ZM152.601 24.5723L146.842 26.2559C146.432 24.8548 146.668 23.5968 147.018 22.7497L152.563 25.041L158.109 27.3323C158.59 26.1677 158.859 24.5956 158.36 22.8886L152.601 24.5723ZM152.563 25.041L146.589 24.4861C146.558 24.826 146.496 25.2829 146.382 25.769C146.266 26.2646 146.117 26.6943 145.951 27.0257L151.317 29.709L156.684 32.3923C158.022 29.717 158.408 26.9906 158.538 25.596L152.563 25.041ZM151.317 29.709L145.951 27.026C144.674 29.579 141.634 38.6151 129.542 46.4945L132.817 51.5215L136.093 56.5485C151.327 46.6223 155.627 34.507 156.684 32.392L151.317 29.709ZM132.817 51.5215L132.225 57.4921C135.752 57.8423 139.228 58.6641 142.585 60.1504L145.014 54.6641L147.443 49.1778C142.757 47.103 138.014 46.0079 133.41 45.5508L132.817 51.5215ZM145.014 54.6641L142.585 60.1505C151.426 64.0645 158.044 70.4461 161.95 79.2744C165.896 88.1912 167.256 100.035 164.694 115.022L170.608 116.033L176.523 117.044C179.37 100.39 178.063 86.0341 172.924 74.4189C167.746 62.7153 158.862 54.2329 147.442 49.1776L145.014 54.6641ZM170.608 116.033L164.694 115.022C162.184 129.706 155.407 143.021 146.812 152.937C138.131 162.952 128.096 168.958 119.354 170.086L120.122 176.037L120.89 181.988C133.506 180.36 146.009 172.185 155.88 160.797C165.836 149.311 173.623 134.001 176.523 117.044L170.608 116.033ZM120.122 176.037L119.354 170.086C115.091 170.637 112.813 170.111 110.522 169.472C107.908 168.743 104.391 167.516 99.1212 167.898L99.5547 173.882L99.9882 179.866C102.82 179.661 104.298 180.194 107.298 181.031C110.621 181.957 114.576 182.803 120.89 181.988L120.122 176.037ZM99.5547 173.882L99.1238 167.897C94.6577 168.219 91.8785 169.76 90.3977 170.344C89.1639 170.83 87.3245 171.442 82.4725 171.193L82.165 177.186L81.8576 183.178C88.1946 183.503 91.7713 182.7 94.7957 181.509C97.5731 180.415 97.8941 180.017 99.9856 179.866L99.5547 173.882ZM82.165 177.186L82.4725 171.193C76.2928 170.876 70.9315 169.335 66.756 166.932L63.7637 172.133L60.7713 177.333C66.8353 180.822 74.0968 182.779 81.8576 183.178L82.165 177.186ZM63.7637 172.133L66.213 166.656C65.7474 166.447 49.9654 159.263 39.8143 135.343L34.291 137.687L28.7678 140.03C40.4492 167.557 59.013 176.581 61.3143 177.61L63.7637 172.133ZM34.291 137.687L39.8137 135.341C27.8281 107.116 35.3396 81.888 48.9442 70.5238L45.0977 65.9189L41.2511 61.3141C22.7805 76.7431 15.1601 107.985 28.7683 140.032L34.291 137.687ZM45.0977 65.9189L48.9434 70.5244C65.3192 56.8501 84.9088 61.0296 87.9594 61.718L89.2803 55.8652L90.6011 50.0124C87.0932 49.2208 62.3097 43.7295 41.2519 61.3135L45.0977 65.9189ZM89.2803 55.8652L87.9162 61.7081C89.0305 61.9683 90.5078 62.2081 91.9208 62.4145L92.7881 56.4775L93.6553 50.5405C92.2652 50.3375 91.224 50.1577 90.6444 50.0224L89.2803 55.8652ZM92.7881 56.4775L98.5647 54.8556C98.3595 54.1246 98.098 53.3251 97.7486 52.5197L92.2441 54.9072L86.7396 57.2948C86.8113 57.46 86.9037 57.7157 87.0115 58.0995L92.7881 56.4775ZM92.2441 54.9072L97.7447 52.5106C96.0299 48.5749 93.5694 44.2647 91.0878 41.1589L86.4004 44.9043L81.7129 48.6497C83.3907 50.7494 85.3453 54.0947 86.7436 57.3039L92.2441 54.9072ZM86.4004 44.9043L91.0644 41.1298C89.2989 38.9482 88.192 37.1315 88.253 37.2313L83.1348 40.3623L78.0165 43.4933C78.1037 43.6358 79.5167 45.936 81.7363 48.6788L86.4004 44.9043ZM83.1348 40.3623C83.4449 34.3703 83.4455 34.3704 83.446 34.3704C83.4461 34.3704 83.4467 34.3704 83.447 34.3704C83.4476 34.3705 83.4482 34.3705 83.4488 34.3705C83.45 34.3706 83.451 34.3706 83.4519 34.3707C83.4536 34.3708 83.4548 34.3709 83.4555 34.3709C83.4568 34.371 83.456 34.3709 83.4532 34.3708C83.4474 34.3704 83.4336 34.3696 83.4126 34.3682C83.3704 34.3655 83.3003 34.3607 83.2088 34.3534C83.0226 34.3385 82.7653 34.3145 82.4848 34.2795C81.7474 34.1874 81.4803 34.0932 81.608 34.1445L79.3711 39.7119L77.1341 45.2793C78.5634 45.8536 80.1781 46.0846 80.9972 46.1869C81.4949 46.2491 81.9345 46.2897 82.2506 46.3151C82.4103 46.3279 82.5427 46.3371 82.6402 46.3434C82.6891 46.3465 82.7295 46.3489 82.7604 46.3507C82.7759 46.3516 82.7891 46.3524 82.7998 46.353C82.8052 46.3533 82.8099 46.3535 82.8141 46.3537C82.8161 46.3538 82.818 46.3539 82.8198 46.354C82.8207 46.3541 82.8215 46.3541 82.8223 46.3542C82.8227 46.3542 82.8233 46.3542 82.8235 46.3542C82.824 46.3543 82.8246 46.3543 83.1348 40.3623ZM79.3711 39.7119L81.6088 34.1448C81.22 33.9885 80.8666 33.875 80.6189 33.7992C80.4443 33.7458 80.0822 33.6405 80.0463 33.6299C79.7225 33.5335 79.9327 33.5724 80.2567 33.7533C80.6789 33.9889 81.3916 34.5103 81.8961 35.4547C82.3855 36.3709 82.3877 37.1418 82.3709 37.3892L76.3848 36.9814L70.3986 36.5737C70.3053 37.9437 70.4799 39.5518 71.3116 41.1088C72.1584 42.6939 73.3832 43.6595 74.4084 44.2317C75.3355 44.7492 76.2396 45.017 76.6216 45.1308C77.2186 45.3086 77.148 45.2849 77.1333 45.279L79.3711 39.7119ZM76.3848 36.9814L82.371 37.3873C82.3554 37.6177 82.3026 37.5439 82.5372 37.1256C82.7591 36.7299 83.1191 36.2393 83.6072 35.7016C84.0846 35.1757 84.5991 34.6985 85.0451 34.3254C85.5393 33.9119 85.7825 33.7647 85.6859 33.822L82.624 28.6621L79.5621 23.5022C78.3876 24.1992 76.4385 25.7452 74.7222 27.6358C73.1455 29.3727 70.67 32.5718 70.3985 36.5756L76.3848 36.9814ZM82.624 28.6621L85.6712 33.8308C85.4858 33.94 85.4523 33.9127 85.6677 33.871C85.8657 33.8327 86.1504 33.8069 86.4835 33.8173C86.8171 33.8277 87.095 33.8713 87.2667 33.9128C87.3488 33.9327 87.3678 33.9427 87.3315 33.9286C87.3051 33.9183 87.149 33.8568 86.9185 33.7085L90.1641 28.6621L93.4096 23.6157C91.3659 22.3013 88.778 21.8833 86.8592 21.8232C84.8433 21.76 82.0408 22.0409 79.5769 23.4935L82.624 28.6621ZM90.1641 28.6621L86.9177 33.708C85.7324 32.9454 85.3899 31.938 85.3305 31.7418C85.2649 31.5249 85.3013 31.5187 85.3014 31.8197C85.3014 32.0747 85.2758 32.3626 85.2419 32.6121C85.2096 32.8502 85.1812 32.9704 85.2023 32.8714L91.0703 34.123L96.9383 35.3746C96.9723 35.2152 97.3019 33.6595 97.3014 31.8161C97.3011 30.9024 97.2231 29.6105 96.816 28.2656C96.4152 26.9413 95.5043 24.9633 93.4104 23.6162L90.1641 28.6621ZM91.0703 34.123C86.0771 37.4498 86.0767 37.4493 86.0764 37.4489C86.0764 37.4488 86.0761 37.4484 86.0759 37.4481C86.0757 37.4477 86.0755 37.4475 86.0754 37.4473C86.0752 37.4471 86.0754 37.4474 86.076 37.4483C86.0772 37.4501 86.0799 37.4542 86.0841 37.4605C86.0925 37.4732 86.1068 37.4948 86.1265 37.5249C86.1661 37.5852 86.2276 37.6795 86.3083 37.8046C86.4697 38.0551 86.7068 38.4275 86.9966 38.8959C87.5785 39.8366 88.3605 41.1448 89.1638 42.617C90.9054 45.809 92.2607 48.91 92.5386 50.7418L98.4707 49.8418L104.403 48.9418C103.775 44.8026 101.43 40.0441 99.6978 36.8695C98.7642 35.1584 97.866 33.6566 97.2019 32.583C96.8686 32.0442 96.5913 31.6084 96.394 31.3025C96.2953 31.1494 96.2164 31.0285 96.1604 30.943C96.1324 30.9003 96.1101 30.8665 96.0938 30.8419C96.0857 30.8296 96.0791 30.8196 96.074 30.812C96.0715 30.8082 96.0693 30.8049 96.0676 30.8023C96.0667 30.801 96.0659 30.7999 96.0653 30.7988C96.0649 30.7983 96.0645 30.7977 96.0643 30.7974C96.0639 30.7968 96.0636 30.7963 91.0703 34.123ZM98.4707 49.8418L92.539 50.7447C92.6892 51.7312 92.9196 53.0604 93.1444 54.407L99.0625 53.4189L104.981 52.4309C104.734 50.9523 104.535 49.8121 104.402 48.9389L98.4707 49.8418ZM99.0625 53.4189L104.965 54.4961C105.541 51.3384 107.124 46.5274 111.455 41.1347L106.776 37.3779L102.098 33.6212C96.412 40.702 94.0624 47.3968 93.16 52.3417L99.0625 53.4189Z" fill="white" mask="url(#path-1-outside-1_1347_9691)"/>
<path d="M75.9776 105.661L69.0242 88.4242L69.2156 60.521C69.2156 60.521 87.9453 57.7141 97.7822 56.3617C107.619 55.0093 127.178 46.7672 145.015 54.6648C165.275 63.6341 176.018 84.3925 170.609 116.034C165.199 147.675 141.481 173.282 120.123 176.038C109.546 177.403 107.657 173.295 99.5556 173.882C92.9977 174.354 93.3549 177.76 82.1656 177.186C70.9763 176.612 61.4838 172.453 55.8955 165.512C50.3072 158.571 75.9776 105.661 75.9776 105.661Z" fill="#4B9AE8"/>
<path d="M45.098 65.9188C29.0603 79.3154 21.4945 107.55 34.2914 137.686C45.6721 164.505 63.8532 172.173 63.8532 172.173C63.8532 172.173 95.6478 170.093 117.835 158.126C140.022 146.158 161.444 125.323 161.444 97.9303C161.444 70.5374 147.167 61.2747 145.623 60.8919C144.08 60.5091 137.713 64.5536 130.568 64.745C123.423 64.9364 117.835 63.2012 117.835 63.2012L95.265 70.7288L74.1622 65.804C74.1622 65.804 73.486 62.8567 75.7698 61.6574C80.516 59.1822 90.4295 63.3926 94.4867 63.2012C98.544 63.0098 102.014 57.6002 102.014 57.6002C102.014 57.6002 92.5602 56.6305 89.2812 55.865C86.0022 55.125 63.8149 50.2895 45.098 65.9188Z" fill="#4B9AE8"/>
<path d="M112.958 118.495C112.54 124.319 105.103 132.878 99.1826 132.467C93.2623 132.055 87.1206 122.561 87.5388 116.728C87.957 110.904 92.1717 106.443 101.011 107.056C109.851 107.669 113.385 112.663 112.967 118.495H112.958Z" fill="#EAC00F"/>
<path d="M133.648 112.276C140.47 112.276 146 106.824 146 100.098C146 93.3715 140.47 87.9189 133.648 87.9189C126.826 87.9189 121.296 93.3715 121.296 100.098C121.296 106.824 126.826 112.276 133.648 112.276Z" fill="white"/>
<path d="M133.16 106.614C136.88 106.614 139.896 103.643 139.896 99.9766C139.896 96.3107 136.88 93.3389 133.16 93.3389C129.439 93.3389 126.423 96.3107 126.423 99.9766C126.423 103.643 129.439 106.614 133.16 106.614Z" fill="black"/>
<path d="M97.1561 66.0845C91.3127 66.3525 75.645 60.8535 74.2288 65.1532C72.7233 69.7208 84.3847 75.7811 98.5851 74.786C113.398 73.7525 122.622 65.5614 120.275 61.1469C117.94 56.7325 108.333 65.5614 97.1561 66.0845Z" fill="#206CB8"/>
<path d="M83.1353 40.3625C83.1353 40.3625 80.6728 40.2349 79.3715 39.7118C78.0701 39.1887 76.2328 39.2269 76.3859 36.9814C76.6411 33.2176 81.4639 29.3517 82.6249 28.6628C84.8322 27.3614 88.698 27.7186 90.1653 28.6628C91.9898 29.8366 91.0711 34.1235 91.0711 34.1235C91.0711 34.1235 97.5653 43.8711 98.4712 49.8421C99.3005 55.2901 102.694 71.1874 97.5653 72.1825C92.8829 73.0884 94.8349 60.8784 92.2449 54.9073C90.6884 51.3349 88.4811 47.5073 86.4015 44.9045C84.3984 42.4294 83.1353 40.3625 83.1353 40.3625Z" fill="#86554A"/>
<path d="M152.504 25.1681C153.027 24.2623 151.981 23.3436 147.694 23.216C143.407 23.0885 120.02 20.8812 106.777 37.3782C97.2588 49.2309 98.726 59.3358 98.726 59.3358L107.427 59.7313L152.504 25.1681Z" fill="#80B365"/>
<path d="M123.785 41.3963C131.657 35.9611 152.62 24.1211 152.62 24.1211C152.62 24.1211 152.62 27.1066 151.318 29.7094C150.017 32.3122 145.603 45.1729 127.677 54.525C110.848 63.3029 99.6204 61.1467 98.7018 59.5902C97.8087 58.0336 110.797 50.3656 123.785 41.3963Z" fill="#9FD583"/>
<path d="M59.4905 70.9615C56.4236 66.4441 48.998 67.72 42.3364 76.8122C33.7537 88.5137 34.2143 104.077 40.0446 105.02C45.8301 105.951 40.7299 99.9852 49.6496 88.1688C56.4798 79.1226 63.3774 76.6973 59.4905 70.9615Z" fill="#7AB9F8"/>
<path d="M67.6481 112.276C74.47 112.276 80.0003 106.824 80.0003 100.098C80.0003 93.3715 74.47 87.9189 67.6481 87.9189C60.8262 87.9189 55.2959 93.3715 55.2959 100.098C55.2959 106.824 60.8262 112.276 67.6481 112.276Z" fill="white"/>
<path d="M67.1597 106.614C70.8803 106.614 73.8965 103.643 73.8965 99.9766C73.8965 96.3107 70.8803 93.3389 67.1597 93.3389C63.439 93.3389 60.4229 96.3107 60.4229 99.9766C60.4229 103.643 63.439 106.614 67.1597 106.614Z" fill="black"/>
</svg>
