<svg width="200" height="200" viewBox="0 0 200 200" fill="none" xmlns="http://www.w3.org/2000/svg">
<mask id="path-1-outside-1_1062_19778" maskUnits="userSpaceOnUse" x="13.2236" y="16.7631" width="177" height="169" fill="black">
<rect fill="white" x="13.2236" y="16.7631" width="177" height="169"/>
<path d="M93.0498 22.7631C114.97 22.7631 132.731 41.4193 132.731 66.4554C132.731 68.3143 132.273 71.8882 131.983 73.9711C135.536 74.2176 138.775 74.7995 141.716 75.9994C144.994 72.1518 150.533 66.1974 156.576 62.0502C168.52 53.8538 179.024 54.563 183.153 55.1449C183.879 55.2461 184.241 56.0726 183.823 56.6771L156.797 95.4828C160.296 106.639 158.969 116.637 154.375 126.328C154.372 126.333 154.367 126.337 154.364 126.341C152.94 133.299 149.896 139.601 145.566 145.061C140.08 151.98 132.537 157.554 123.631 161.413L125.311 167.835L131.348 168.054C132.119 168.082 132.723 168.73 132.695 169.502C132.667 170.274 132.019 170.878 131.247 170.85L126.11 170.664L127.773 176.315C127.992 177.056 127.567 177.834 126.826 178.052C126.085 178.27 125.306 177.846 125.088 177.105L123.646 172.204L118.501 178.796C118.025 179.405 117.146 179.513 116.537 179.037C115.928 178.562 115.819 177.682 116.295 177.073L122.691 168.879L121.018 162.482C113.165 165.504 104.36 167.24 95.0371 167.457C94.3748 167.476 93.7028 167.486 93.0312 167.486C92.3596 167.486 91.6876 167.485 91.0253 167.457C80.4467 167.211 70.5342 165.009 61.9238 161.193L59.7636 166.547L64.54 173.685C64.9694 174.327 64.7971 175.197 64.1552 175.626C63.5132 176.056 62.6436 175.883 62.2138 175.242L58.2382 169.299L53.5986 176.829C53.1931 177.487 52.3306 177.692 51.6728 177.286C51.0153 176.881 50.8108 176.019 51.2158 175.362L55.2031 168.891L48.3769 170.579L48.2363 170.607C47.5343 170.706 46.8565 170.259 46.6826 169.556C46.4976 168.806 46.9552 168.047 47.705 167.862L57.1591 165.525L59.3867 160.004C51.8022 156.246 45.3459 151.183 40.496 145.071V145.061C34.3492 137.31 30.7861 127.86 30.7861 117.245C30.7861 115.881 30.8461 114.528 30.9619 113.189C28.532 112.412 26.2415 111.412 24.1318 110.304C16.4125 106.256 18.0842 95.4305 27.1416 90.6615L27.1455 90.6566L49.3603 78.9437C50.6291 77.8643 51.9507 76.8309 53.3222 75.848C53.3225 75.8031 53.3593 69.1795 53.3593 66.4554C53.3593 41.4194 71.1293 22.7632 93.0498 22.7631Z"/>
</mask>
<path d="M93.0498 22.7631C114.97 22.7631 132.731 41.4193 132.731 66.4554C132.731 68.3143 132.273 71.8882 131.983 73.9711C135.536 74.2176 138.775 74.7995 141.716 75.9994C144.994 72.1518 150.533 66.1974 156.576 62.0502C168.52 53.8538 179.024 54.563 183.153 55.1449C183.879 55.2461 184.241 56.0726 183.823 56.6771L156.797 95.4828C160.296 106.639 158.969 116.637 154.375 126.328C154.372 126.333 154.367 126.337 154.364 126.341C152.94 133.299 149.896 139.601 145.566 145.061C140.08 151.98 132.537 157.554 123.631 161.413L125.311 167.835L131.348 168.054C132.119 168.082 132.723 168.73 132.695 169.502C132.667 170.274 132.019 170.878 131.247 170.85L126.11 170.664L127.773 176.315C127.992 177.056 127.567 177.834 126.826 178.052C126.085 178.27 125.306 177.846 125.088 177.105L123.646 172.204L118.501 178.796C118.025 179.405 117.146 179.513 116.537 179.037C115.928 178.562 115.819 177.682 116.295 177.073L122.691 168.879L121.018 162.482C113.165 165.504 104.36 167.24 95.0371 167.457C94.3748 167.476 93.7028 167.486 93.0312 167.486C92.3596 167.486 91.6876 167.485 91.0253 167.457C80.4467 167.211 70.5342 165.009 61.9238 161.193L59.7636 166.547L64.54 173.685C64.9694 174.327 64.7971 175.197 64.1552 175.626C63.5132 176.056 62.6436 175.883 62.2138 175.242L58.2382 169.299L53.5986 176.829C53.1931 177.487 52.3306 177.692 51.6728 177.286C51.0153 176.881 50.8108 176.019 51.2158 175.362L55.2031 168.891L48.3769 170.579L48.2363 170.607C47.5343 170.706 46.8565 170.259 46.6826 169.556C46.4976 168.806 46.9552 168.047 47.705 167.862L57.1591 165.525L59.3867 160.004C51.8022 156.246 45.3459 151.183 40.496 145.071V145.061C34.3492 137.31 30.7861 127.86 30.7861 117.245C30.7861 115.881 30.8461 114.528 30.9619 113.189C28.532 112.412 26.2415 111.412 24.1318 110.304C16.4125 106.256 18.0842 95.4305 27.1416 90.6615L27.1455 90.6566L49.3603 78.9437C50.6291 77.8643 51.9507 76.8309 53.3222 75.848C53.3225 75.8031 53.3593 69.1795 53.3593 66.4554C53.3593 41.4194 71.1293 22.7632 93.0498 22.7631Z" fill="#194571"/>
<path d="M93.0498 22.7631L93.0498 16.7631L93.0497 16.7631L93.0498 22.7631ZM132.731 66.4554L138.731 66.4557V66.4554H132.731ZM131.983 73.9711L126.041 73.1445C125.811 74.7917 126.276 76.4601 127.324 77.7516C128.372 79.043 129.909 79.8415 131.568 79.9567L131.983 73.9711ZM141.716 75.9994L139.449 81.5547C141.847 82.5334 144.603 81.8623 146.283 79.8905L141.716 75.9994ZM156.576 62.0502L159.971 66.9974L159.971 66.9973L156.576 62.0502ZM183.153 55.1449L182.316 61.0862L182.324 61.0873L183.153 55.1449ZM183.823 56.6771L188.747 60.1062C188.751 60.1007 188.754 60.0952 188.758 60.0897L183.823 56.6771ZM156.797 95.4828L151.873 92.0537C150.812 93.5774 150.516 95.5066 151.072 97.2783L156.797 95.4828ZM154.375 126.328L159.277 129.789C159.475 129.508 159.649 129.21 159.797 128.899L154.375 126.328ZM154.364 126.341L149.466 122.875C148.986 123.554 148.653 124.324 148.486 125.138L154.364 126.341ZM145.566 145.061L140.865 141.333L140.865 141.333L145.566 145.061ZM123.631 161.413L121.245 155.908C118.529 157.085 117.077 160.068 117.826 162.932L123.631 161.413ZM125.311 167.835L119.506 169.354C120.176 171.916 122.447 173.735 125.093 173.831L125.311 167.835ZM131.348 168.054L131.566 162.058L131.565 162.058L131.348 168.054ZM132.695 169.502L138.691 169.72L138.691 169.717L132.695 169.502ZM131.247 170.85L131.03 176.846L131.033 176.846L131.247 170.85ZM126.11 170.664L126.327 164.668C124.399 164.599 122.555 165.46 121.372 166.984C120.188 168.508 119.81 170.508 120.354 172.359L126.11 170.664ZM127.773 176.315L133.529 174.621L133.529 174.621L127.773 176.315ZM126.826 178.052L128.519 183.808L128.522 183.807L126.826 178.052ZM125.088 177.105L119.332 178.798L119.332 178.799L125.088 177.105ZM123.646 172.204L129.403 170.511C128.768 168.353 126.979 166.732 124.77 166.311C122.56 165.889 120.301 166.739 118.917 168.513L123.646 172.204ZM118.501 178.796L123.229 182.49L123.231 182.488L118.501 178.796ZM116.537 179.037L112.844 183.766L112.845 183.767L116.537 179.037ZM116.295 177.073L121.024 180.765L121.024 180.765L116.295 177.073ZM122.691 168.879L127.421 172.571C128.572 171.097 128.969 169.17 128.496 167.361L122.691 168.879ZM121.018 162.482L126.822 160.963C126.39 159.311 125.274 157.922 123.755 157.143C122.236 156.364 120.456 156.269 118.863 156.882L121.018 162.482ZM95.0371 167.457L94.8975 161.459C94.8877 161.459 94.8779 161.46 94.8681 161.46L95.0371 167.457ZM93.0312 167.486L93.0312 161.486L93.0312 167.486ZM91.0253 167.457L91.2786 161.463C91.2408 161.461 91.2028 161.46 91.1649 161.459L91.0253 167.457ZM61.9238 161.193L64.3549 155.707C62.868 155.048 61.1772 155.021 59.67 155.632C58.1627 156.243 56.968 157.44 56.3595 158.948L61.9238 161.193ZM59.7636 166.547L54.1994 164.302C53.4564 166.144 53.6728 168.234 54.7771 169.884L59.7636 166.547ZM64.54 173.685L69.5276 170.35L69.5265 170.348L64.54 173.685ZM64.1552 175.626L67.4904 180.614L67.4929 180.612L64.1552 175.626ZM62.2138 175.242L57.2269 178.578L57.2285 178.58L62.2138 175.242ZM58.2382 169.299L63.2251 165.963C62.0894 164.265 60.1681 163.262 58.1259 163.3C56.0838 163.338 54.2014 164.413 53.13 166.152L58.2382 169.299ZM53.5986 176.829L58.706 179.978L58.7068 179.977L53.5986 176.829ZM51.6728 177.286L48.5238 182.394L48.5255 182.395L51.6728 177.286ZM51.2158 175.362L46.1077 172.214L46.1066 172.216L51.2158 175.362ZM55.2031 168.891L60.3111 172.039C61.5896 169.964 61.4862 167.322 60.0494 165.354C58.6127 163.385 56.1281 162.481 53.7624 163.067L55.2031 168.891ZM48.3769 170.579L49.5221 176.469C49.6212 176.45 49.7197 176.428 49.8176 176.404L48.3769 170.579ZM48.2363 170.607L49.0792 176.547C49.1804 176.533 49.2812 176.516 49.3815 176.497L48.2363 170.607ZM46.6826 169.556L40.8572 170.993L40.8581 170.997L46.6826 169.556ZM47.705 167.862L46.2653 162.037L46.2641 162.037L47.705 167.862ZM57.1591 165.525L58.5989 171.349C60.4685 170.887 62.0026 169.556 62.7232 167.77L57.1591 165.525ZM59.3867 160.004L64.9508 162.249C66.1242 159.341 64.8604 156.02 62.0506 154.628L59.3867 160.004ZM40.496 145.071H34.496C34.496 146.425 34.9542 147.739 35.796 148.8L40.496 145.071ZM40.496 145.061H46.496C46.496 143.707 46.0383 142.393 45.1973 141.333L40.496 145.061ZM30.7861 117.245L24.7861 117.245V117.245H30.7861ZM30.9619 113.189L36.9396 113.705C37.1808 110.914 35.4583 108.328 32.7898 107.474L30.9619 113.189ZM24.1318 110.304L26.9205 104.992L26.9183 104.99L24.1318 110.304ZM27.1416 90.6615L29.937 95.9705C30.6676 95.5858 31.3109 95.0545 31.8268 94.4097L27.1416 90.6615ZM27.1455 90.6566L24.3471 85.3492C23.6177 85.7337 22.9754 86.2646 22.4602 86.9084L27.1455 90.6566ZM49.3603 78.9437L52.1587 84.2512C52.5478 84.046 52.9131 83.7987 53.2481 83.5137L49.3603 78.9437ZM53.3222 75.848L56.8172 80.7251C58.3799 79.6052 59.3114 77.8042 59.3221 75.8816L53.3222 75.848ZM53.3593 66.4554L59.3593 66.4555V66.4554H53.3593ZM93.0498 22.7631V28.7631C111.203 28.7631 126.731 44.2606 126.731 66.4554H132.731H138.731C138.731 38.578 118.738 16.7631 93.0498 16.7631V22.7631ZM132.731 66.4554L126.731 66.4552C126.731 67.8123 126.348 70.9355 126.041 73.1445L131.983 73.9711L137.926 74.7976C138.198 72.8409 138.731 68.8163 138.731 66.4557L132.731 66.4554ZM131.983 73.9711L131.568 79.9567C134.748 80.1773 137.301 80.6784 139.449 81.5547L141.716 75.9994L143.983 70.4441C140.249 68.9206 136.325 68.2579 132.399 67.9855L131.983 73.9711ZM141.716 75.9994L146.283 79.8905C149.458 76.1639 154.588 70.6912 159.971 66.9974L156.576 62.0502L153.181 57.103C146.477 61.7036 140.53 68.1398 137.149 72.1083L141.716 75.9994ZM156.576 62.0502L159.971 66.9973C170.256 59.9394 179.072 60.6291 182.316 61.0862L183.153 55.1449L183.99 49.2036C178.975 48.4969 166.784 47.7681 153.181 57.1031L156.576 62.0502ZM183.153 55.1449L182.324 61.0873C178.611 60.5691 176.773 56.3232 178.888 53.2645L183.823 56.6771L188.758 60.0897C191.709 55.822 189.146 49.9231 183.983 49.2025L183.153 55.1449ZM183.823 56.6771L178.9 53.2481L151.873 92.0537L156.797 95.4828L161.72 98.9118L188.747 60.1062L183.823 56.6771ZM156.797 95.4828L151.072 97.2783C154.063 106.817 152.984 115.256 148.953 123.758L154.375 126.328L159.797 128.899C164.954 118.019 166.528 106.461 162.522 93.6872L156.797 95.4828ZM154.375 126.328L149.473 122.868C149.512 122.814 149.549 122.764 149.583 122.718C149.617 122.672 149.65 122.63 149.68 122.593C149.71 122.555 149.738 122.521 149.763 122.49C149.789 122.46 149.812 122.433 149.832 122.409C149.852 122.386 149.871 122.365 149.886 122.348C149.901 122.331 149.914 122.316 149.924 122.305C149.934 122.294 149.942 122.285 149.947 122.28C149.95 122.277 149.952 122.275 149.953 122.274C149.954 122.273 149.955 122.272 149.955 122.272C149.955 122.272 149.955 122.272 149.954 122.272C149.954 122.272 149.954 122.272 149.954 122.272C149.954 122.273 149.953 122.273 149.952 122.274C149.951 122.276 149.949 122.278 149.946 122.281C149.941 122.286 149.933 122.296 149.923 122.307C149.912 122.318 149.899 122.333 149.883 122.351C149.868 122.368 149.849 122.389 149.829 122.413C149.808 122.437 149.785 122.464 149.759 122.495C149.733 122.526 149.705 122.56 149.675 122.598C149.644 122.636 149.612 122.678 149.577 122.724C149.542 122.77 149.505 122.821 149.466 122.875L154.364 126.341L159.262 129.807C159.224 129.861 159.187 129.911 159.153 129.956C159.118 130.002 159.086 130.043 159.056 130.081C159.026 130.118 158.998 130.152 158.973 130.182C158.948 130.213 158.925 130.24 158.905 130.263C158.885 130.286 158.867 130.307 158.852 130.324C158.837 130.341 158.824 130.355 158.814 130.366C158.804 130.377 158.796 130.385 158.791 130.39C158.789 130.393 158.787 130.395 158.786 130.396C158.785 130.397 158.784 130.398 158.785 130.398C158.785 130.398 158.786 130.397 158.787 130.395C158.788 130.394 158.791 130.391 158.793 130.388C158.799 130.383 158.807 130.373 158.818 130.362C158.828 130.35 158.842 130.335 158.858 130.317C158.873 130.299 158.892 130.278 158.913 130.254C158.934 130.23 158.957 130.202 158.983 130.172C159.009 130.141 159.037 130.106 159.067 130.068C159.098 130.029 159.131 129.987 159.166 129.941C159.201 129.895 159.238 129.844 159.277 129.789L154.375 126.328ZM154.364 126.341L148.486 125.138C147.261 131.127 144.64 136.573 140.865 141.333L145.566 145.061L150.268 148.789C155.151 142.63 158.62 135.471 160.242 127.544L154.364 126.341ZM145.566 145.061L140.865 141.333C136.068 147.383 129.363 152.39 121.245 155.908L123.631 161.413L126.017 166.919C135.711 162.717 144.092 156.577 150.268 148.789L145.566 145.061ZM123.631 161.413L117.826 162.932L119.506 169.354L125.311 167.835L131.115 166.317L129.436 159.895L123.631 161.413ZM125.311 167.835L125.093 173.831L131.13 174.05L131.348 168.054L131.565 162.058L125.528 161.839L125.311 167.835ZM131.348 168.054L131.129 174.05C128.593 173.958 126.608 171.828 126.699 169.288L132.695 169.502L138.691 169.717C138.838 165.633 135.646 162.207 131.566 162.058L131.348 168.054ZM132.695 169.502L126.699 169.284C126.791 166.747 128.922 164.763 131.461 164.854L131.247 170.85L131.033 176.846C135.116 176.992 138.543 173.801 138.691 169.72L132.695 169.502ZM131.247 170.85L131.464 164.854L126.327 164.668L126.11 170.664L125.894 176.661L131.03 176.846L131.247 170.85ZM126.11 170.664L120.354 172.359L122.018 178.009L127.773 176.315L133.529 174.621L131.866 168.97L126.11 170.664ZM127.773 176.315L122.018 178.009C121.299 175.569 122.696 173.014 125.13 172.297L126.826 178.052L128.522 183.807C132.438 182.654 134.684 178.543 133.529 174.621L127.773 176.315ZM126.826 178.052L125.134 172.296C127.566 171.581 130.125 172.969 130.844 175.41L125.088 177.105L119.332 178.799C120.487 182.723 124.604 184.959 128.519 183.808L126.826 178.052ZM125.088 177.105L130.844 175.412L129.403 170.511L123.646 172.204L117.89 173.898L119.332 178.798L125.088 177.105ZM123.646 172.204L118.917 168.513L113.771 175.104L118.501 178.796L123.231 182.488L128.376 175.896L123.646 172.204ZM118.501 178.796L113.773 175.103C115.339 173.098 118.229 172.747 120.229 174.308L116.537 179.037L112.845 183.767C116.063 186.279 120.712 185.712 123.229 182.49L118.501 178.796ZM116.537 179.037L120.23 174.309C122.23 175.871 122.59 178.76 121.024 180.765L116.295 177.073L111.565 173.38C109.049 176.603 109.626 181.253 112.844 183.766L116.537 179.037ZM116.295 177.073L121.024 180.765L127.421 172.571L122.691 168.879L117.962 165.187L111.565 173.38L116.295 177.073ZM122.691 168.879L128.496 167.361L126.822 160.963L121.018 162.482L115.213 164.001L116.887 170.398L122.691 168.879ZM121.018 162.482L118.863 156.882C111.689 159.643 103.569 161.257 94.8975 161.459L95.0371 167.457L95.1766 173.456C105.15 173.224 114.641 171.364 123.172 168.082L121.018 162.482ZM95.0371 167.457L94.8681 161.46C94.2613 161.477 93.6457 161.486 93.0312 161.486V167.486V173.486C93.76 173.486 94.4883 173.475 95.206 173.455L95.0371 167.457ZM93.0312 167.486L93.0312 161.486C92.3402 161.486 91.7938 161.485 91.2786 161.463L91.0253 167.457L90.772 173.452C91.5814 173.486 92.379 173.486 93.0312 173.486L93.0312 167.486ZM91.0253 167.457L91.1649 161.459C81.3225 161.23 72.195 159.182 64.3549 155.707L61.9238 161.193L59.4927 166.678C68.8735 170.836 79.5709 173.192 90.8858 173.456L91.0253 167.457ZM61.9238 161.193L56.3595 158.948L54.1994 164.302L59.7636 166.547L65.3279 168.792L67.488 163.438L61.9238 161.193ZM59.7636 166.547L54.7771 169.884L59.5535 177.022L64.54 173.685L69.5265 170.348L64.7501 163.21L59.7636 166.547ZM64.54 173.685L59.5524 177.02C58.1412 174.91 58.7056 172.054 60.8175 170.64L64.1552 175.626L67.4929 180.612C70.8887 178.339 71.7976 173.744 69.5276 170.35L64.54 173.685ZM64.1552 175.626L60.82 170.639C62.9313 169.227 65.786 169.793 67.1992 171.903L62.2138 175.242L57.2285 178.58C59.5011 181.974 64.095 182.884 67.4904 180.614L64.1552 175.626ZM62.2138 175.242L67.2007 171.905L63.2251 165.963L58.2382 169.299L53.2514 172.636L57.2269 178.578L62.2138 175.242ZM58.2382 169.299L53.13 166.152L48.4903 173.682L53.5986 176.829L58.7068 179.977L63.3465 172.447L58.2382 169.299ZM53.5986 176.829L48.4912 173.681C49.8249 171.517 52.658 170.846 54.8201 172.178L51.6728 177.286L48.5255 182.395C52.0031 184.537 56.5614 183.457 58.706 179.978L53.5986 176.829ZM51.6728 177.286L54.8218 172.179C56.9847 173.513 57.656 176.346 56.325 178.507L51.2158 175.362L46.1066 172.216C43.9656 175.693 45.0459 180.249 48.5238 182.394L51.6728 177.286ZM51.2158 175.362L56.3238 178.509L60.3111 172.039L55.2031 168.891L50.095 165.743L46.1077 172.214L51.2158 175.362ZM55.2031 168.891L53.7624 163.067L46.9362 164.755L48.3769 170.579L49.8176 176.404L56.6438 174.715L55.2031 168.891ZM48.3769 170.579L47.2317 164.69L47.0911 164.717L48.2363 170.607L49.3815 176.497L49.5221 176.469L48.3769 170.579ZM48.2363 170.607L47.3934 164.666C49.7129 164.337 51.9354 165.805 52.507 168.115L46.6826 169.556L40.8581 170.997C41.7776 174.714 45.3558 177.076 49.0792 176.547L48.2363 170.607ZM46.6826 169.556L52.5079 168.119C53.1154 170.581 51.6152 173.075 49.1459 173.686L47.705 167.862L46.2641 162.037C42.2952 163.019 39.8798 167.031 40.8572 170.993L46.6826 169.556ZM47.705 167.862L49.1448 173.686L58.5989 171.349L57.1591 165.525L55.7194 159.7L46.2653 162.037L47.705 167.862ZM57.1591 165.525L62.7232 167.77L64.9508 162.249L59.3867 160.004L53.8226 157.759L51.595 163.28L57.1591 165.525ZM59.3867 160.004L62.0506 154.628C55.1668 151.217 49.4369 146.685 45.1961 141.341L40.496 145.071L35.796 148.8C41.2548 155.68 48.4377 161.275 56.7228 165.38L59.3867 160.004ZM40.496 145.071H46.496V145.061H40.496H34.496V145.071H40.496ZM40.496 145.061L45.1973 141.333C39.8546 134.595 36.7861 126.449 36.7861 117.245H30.7861H24.7861C24.7861 129.272 28.8438 140.024 35.7948 148.789L40.496 145.061ZM30.7861 117.245L36.7861 117.245C36.7861 116.057 36.8384 114.876 36.9396 113.705L30.9619 113.189L24.9842 112.672C24.8539 114.179 24.7861 115.705 24.7861 117.245L30.7861 117.245ZM30.9619 113.189L32.7898 107.474C30.7369 106.817 28.7678 105.961 26.9205 104.992L24.1318 110.304L21.3431 115.617C23.7152 116.862 26.3271 118.006 29.1339 118.904L30.9619 113.189ZM24.1318 110.304L26.9183 104.99C25.5385 104.267 25.0427 103.182 25.2758 101.664C25.5409 99.9394 26.9003 97.5694 29.937 95.9705L27.1416 90.6615L24.3462 85.3525C18.3255 88.5226 14.3204 93.9499 13.415 99.8419C12.4778 105.942 15.0058 112.293 21.3453 115.618L24.1318 110.304ZM27.1416 90.6615L31.8268 94.4097L31.8307 94.4048L27.1455 90.6566L22.4602 86.9084L22.4563 86.9133L27.1416 90.6615ZM27.1455 90.6566L29.9438 95.9641L52.1587 84.2512L49.3603 78.9437L46.5619 73.6363L24.3471 85.3492L27.1455 90.6566ZM49.3603 78.9437L53.2481 83.5137C54.3904 82.542 55.5809 81.611 56.8172 80.7251L53.3222 75.848L49.8273 70.971C48.3205 72.0508 46.8678 73.1867 45.4725 74.3737L49.3603 78.9437ZM53.3222 75.848L59.3221 75.8816C59.3223 75.8447 59.3593 69.2005 59.3593 66.4555L53.3593 66.4554L47.3593 66.4554C47.3593 69.1585 47.3226 75.7614 47.3223 75.8144L53.3222 75.848ZM53.3593 66.4554H59.3593C59.3593 44.2625 74.8948 28.7632 93.0498 28.7631L93.0498 22.7631L93.0497 16.7631C67.3638 16.7632 47.3593 38.5763 47.3593 66.4554H53.3593Z" fill="white" mask="url(#path-1-outside-1_1062_19778)"/>
<path d="M27.145 90.6568L54.1572 76.4155C60.7507 72.9386 68.1604 75.6031 68.7891 81.699C69.7734 91.2114 68.1752 104.228 54.6242 111.37C43.304 117.338 32.3509 114.619 24.1314 110.305C16.4121 106.257 18.0841 95.4312 27.1414 90.6622L27.145 90.6568Z" fill="#276288"/>
<path d="M119.933 152.802C120.633 152.619 121.348 153.001 121.597 153.665L121.641 153.803L125.31 167.835L131.347 168.054C132.119 168.082 132.723 168.731 132.695 169.503C132.667 170.275 132.019 170.878 131.247 170.85L126.11 170.664L127.773 176.315C127.991 177.057 127.567 177.834 126.826 178.052C126.085 178.27 125.306 177.847 125.088 177.105L123.646 172.204L118.501 178.797C118.026 179.405 117.146 179.513 116.537 179.038C115.928 178.562 115.819 177.682 116.295 177.073L122.692 168.88L118.933 154.511L118.904 154.37C118.795 153.669 119.232 152.986 119.933 152.802Z" fill="#474747"/>
<path d="M62.5314 152.235C62.8617 151.607 63.6203 151.319 64.2921 151.59C65.0087 151.879 65.3557 152.695 65.0666 153.411L59.7648 166.547L64.5412 173.685C64.9708 174.327 64.7984 175.196 64.1564 175.626C63.5143 176.056 62.6447 175.883 62.215 175.241L58.2384 169.298L53.5988 176.829C53.1934 177.487 52.3309 177.692 51.673 177.286C51.0155 176.881 50.811 176.019 51.216 175.362L55.2033 168.891L48.3781 170.579L48.2375 170.607C47.5355 170.706 46.8577 170.26 46.6838 169.557C46.4984 168.807 46.9563 168.048 47.7062 167.863L57.1603 165.525L62.4718 152.364L62.5314 152.235Z" fill="#474747"/>
<path d="M155.276 117.246C155.276 127.861 151.713 137.31 145.566 145.062C134.848 158.578 116.286 166.964 95.0368 167.458C94.3745 167.477 93.7029 167.486 93.0313 167.486C92.3597 167.486 91.6881 167.486 91.0258 167.458C69.7768 166.964 51.2143 158.578 40.4965 145.071C40.4965 145.071 40.4965 145.071 40.4965 145.062C34.3494 137.31 30.7861 127.861 30.7861 117.246C30.7861 100.586 39.5637 85.7081 53.3224 75.8485C53.3224 75.8485 53.3597 69.1883 53.3597 66.4553C53.3597 41.4191 71.1294 22.7633 93.05 22.7633C114.971 22.7633 132.731 41.4191 132.731 66.4553C132.731 69.179 131.751 75.5873 131.751 75.5873C145.529 85.4469 155.304 100.586 155.304 117.246H155.276Z" fill="#4B9AE8"/>
<path d="M72.3096 57.1275C76.3897 57.1275 79.6973 53.8199 79.6973 49.7398C79.6973 45.6596 76.3897 42.3521 72.3096 42.3521C68.2295 42.3521 64.9219 45.6596 64.9219 49.7398C64.9219 53.8199 68.2295 57.1275 72.3096 57.1275Z" fill="white"/>
<path d="M72.1947 54.2221C74.6408 54.2221 76.6238 52.2391 76.6238 49.793C76.6238 47.3469 74.6408 45.3639 72.1947 45.3639C69.7486 45.3639 67.7656 47.3469 67.7656 49.793C67.7656 52.2391 69.7486 54.2221 72.1947 54.2221Z" fill="black"/>
<path d="M111.486 54.3291C115.566 54.3291 118.874 51.0215 118.874 46.9414C118.874 42.8613 115.566 39.5537 111.486 39.5537C107.406 39.5537 104.099 42.8613 104.099 46.9414C104.099 51.0215 107.406 54.3291 111.486 54.3291Z" fill="white"/>
<path d="M111.372 51.4237C113.819 51.4237 115.802 49.4407 115.802 46.9946C115.802 44.5485 113.819 42.5656 111.372 42.5656C108.926 42.5656 106.943 44.5485 106.943 46.9946C106.943 49.4407 108.926 51.4237 111.372 51.4237Z" fill="black"/>
<path d="M101.404 59.256C100.622 62.8084 95.0191 67.3885 91.1908 66.5872C87.3624 65.786 84.1857 59.3635 84.9708 55.8117C85.7524 52.2594 88.8938 49.904 94.6067 51.1001C100.386 52.3121 102.189 55.7042 101.404 59.256Z" fill="#EAC00F"/>
<path d="M183.823 56.6773L155.319 97.6088C155.319 97.6088 143.635 91.2502 138.636 79.8062C138.636 79.8062 146.968 68.6444 156.577 62.0509C168.52 53.8544 179.024 54.5636 183.154 55.1455C183.879 55.2467 184.242 56.0727 183.823 56.6773Z" fill="#CCD6DD"/>
<path d="M152.264 102.033L143.754 95.6792C143.879 95.6135 144.303 94.7431 143.918 93.4732C142.828 89.8684 138.614 85.4134 137.248 83.9206C136.826 83.4598 136.696 82.597 137.138 81.9351L138.637 79.8063C142.857 87.313 152.933 95.8588 155.32 97.6089L152.264 102.033Z" fill="#AAB8C2"/>
<path d="M152.264 102.033C152.264 102.033 146.409 110.862 142.048 116.705C137.686 122.547 134.681 125.944 131.73 128.201C128.719 130.503 125.229 129.593 122.478 127.542C119.728 125.491 116.561 120.641 119.256 117.032C120.73 115.056 124.723 116.432 126.519 114.025C127.738 112.393 128.328 111.174 132.714 105.876C139.491 97.6895 143.754 95.6818 143.754 95.6818C143.754 95.6818 146.383 97.531 147.82 98.6139C149.259 99.6927 152.264 102.033 152.264 102.033Z" fill="#31373D"/>
<path d="M137.278 108.134C137.22 107.422 137.447 106.715 137.909 106.171C138.372 105.626 139.032 105.287 139.744 105.229C140.456 105.171 141.163 105.398 141.707 105.861C142.252 106.323 142.591 106.983 142.649 107.695C142.707 108.408 142.48 109.114 142.017 109.659C141.555 110.203 140.895 110.542 140.183 110.6C139.47 110.658 138.764 110.431 138.219 109.969C137.675 109.506 137.336 108.846 137.278 108.134Z" fill="#F5F8FA"/>
<path d="M126.979 120.64C126.921 119.928 127.148 119.222 127.611 118.677C128.073 118.132 128.733 117.793 129.445 117.735C130.158 117.677 130.864 117.904 131.409 118.367C131.953 118.829 132.292 119.489 132.35 120.202C132.379 120.554 132.338 120.909 132.23 121.246C132.121 121.583 131.948 121.895 131.719 122.165C131.49 122.435 131.21 122.657 130.895 122.818C130.58 122.98 130.237 123.078 129.884 123.107C129.531 123.135 129.176 123.094 128.839 122.986C128.503 122.878 128.19 122.704 127.921 122.475C127.651 122.246 127.429 121.966 127.267 121.651C127.106 121.336 127.008 120.993 126.979 120.64Z" fill="#F5F8FA"/>
<path d="M139.735 122.265C144.05 133.075 150.496 131.823 154.375 126.329C159.57 115.372 160.589 104.022 155.177 91.0501C149.766 78.0781 142.09 74.6358 131.798 73.9573C116.437 80.4548 120.548 97.2375 121.944 99.838C123.341 102.438 128.687 102.121 132.918 108.286C137.15 114.451 135.419 111.454 139.735 122.265Z" fill="#276288"/>
<path d="M90.1074 74.5692C91.3803 75.3638 101.219 75.3393 105.654 67.5374" stroke="#194571" stroke-width="2.79837" stroke-linecap="round"/>
</svg>
