<svg width="200" height="200" viewBox="0 0 200 200" fill="none" xmlns="http://www.w3.org/2000/svg">
<mask id="path-1-outside-1_1347_15592" maskUnits="userSpaceOnUse" x="20" y="20" width="160" height="160" fill="black">
<rect fill="white" x="20" y="20" width="160" height="160"/>
<path d="M142.286 26C159.801 26.0002 174 40.1989 174 57.7139C174 65.0042 171.538 71.7182 167.403 77.0742C170.301 84.8718 171.887 93.3078 171.887 102.114C171.887 141.816 139.702 174 100.001 174C60.2996 174 28.1153 141.816 28.1152 102.114C28.1152 93.3083 29.6991 84.8723 32.5967 77.0752C28.4613 71.7191 26 65.0044 26 57.7139C26.0002 40.1989 40.1989 26.0002 57.7139 26C65.5595 26 72.738 28.8505 78.2744 33.5703C85.129 31.3996 92.4282 30.2285 100.001 30.2285C107.573 30.2285 114.871 31.3992 121.725 33.5693C127.261 28.8496 134.441 26 142.286 26Z"/>
</mask>
<path d="M142.286 26C159.801 26.0002 174 40.1989 174 57.7139C174 65.0042 171.538 71.7182 167.403 77.0742C170.301 84.8718 171.887 93.3078 171.887 102.114C171.887 141.816 139.702 174 100.001 174C60.2996 174 28.1153 141.816 28.1152 102.114C28.1152 93.3083 29.6991 84.8723 32.5967 77.0752C28.4613 71.7191 26 65.0044 26 57.7139C26.0002 40.1989 40.1989 26.0002 57.7139 26C65.5595 26 72.738 28.8505 78.2744 33.5703C85.129 31.3996 92.4282 30.2285 100.001 30.2285C107.573 30.2285 114.871 31.3992 121.725 33.5693C127.261 28.8496 134.441 26 142.286 26Z" fill="#EAC00F"/>
<path d="M142.286 26L142.286 20H142.286V26ZM174 57.7139H180V57.7138L174 57.7139ZM167.403 77.0742L162.654 73.4075C161.388 75.0469 161.058 77.2231 161.779 79.1644L167.403 77.0742ZM171.887 102.114H177.887H171.887ZM100.001 174V180V174ZM28.1152 102.114H22.1152H28.1152ZM32.5967 77.0752L38.2209 79.1653C38.9423 77.2239 38.6116 75.0477 37.3459 73.4084L32.5967 77.0752ZM26 57.7139L20 57.7138V57.7139H26ZM57.7139 26V20H57.7138L57.7139 26ZM78.2744 33.5703L74.3819 38.1363C75.9569 39.479 78.1127 39.9152 80.0858 39.2903L78.2744 33.5703ZM100.001 30.2285V24.2285V30.2285ZM121.725 33.5693L119.913 39.2894C121.886 39.9142 124.042 39.478 125.617 38.1354L121.725 33.5693ZM142.286 26L142.286 32C156.487 32.0002 168 43.5126 168 57.7139L174 57.7139L180 57.7138C180 36.8852 163.115 20.0003 142.286 20L142.286 26ZM174 57.7139H168C168 63.6301 166.008 69.0639 162.654 73.4075L167.403 77.0742L172.153 80.7409C177.069 74.3726 180 66.3782 180 57.7139H174ZM167.403 77.0742L161.779 79.1644C164.433 86.304 165.887 94.0329 165.887 102.114H171.887H177.887C177.887 92.5827 176.17 83.4395 173.027 74.984L167.403 77.0742ZM171.887 102.114H165.887C165.887 138.502 136.389 168 100.001 168V174V180C143.016 180 177.887 145.129 177.887 102.114H171.887ZM100.001 174V168C63.6133 168 34.1152 138.502 34.1152 102.114H28.1152H22.1152C22.1153 145.129 56.9859 180 100.001 180V174ZM28.1152 102.114H34.1152C34.1152 94.0327 35.568 86.3039 38.2209 79.1653L32.5967 77.0752L26.9725 74.9851C23.8302 83.4408 22.1152 92.584 22.1152 102.114H28.1152ZM32.5967 77.0752L37.3459 73.4084C33.9923 69.065 32 63.6307 32 57.7139H26H20C20 66.3782 22.9303 74.3732 27.8475 80.742L32.5967 77.0752ZM26 57.7139L32 57.7139C32.0002 43.5126 43.5126 32.0002 57.7139 32L57.7139 26L57.7138 20C36.8852 20.0003 20.0003 36.8852 20 57.7138L26 57.7139ZM57.7139 26V32C64.0788 32 69.8895 34.3065 74.3819 38.1363L78.2744 33.5703L82.167 29.0043C75.5866 23.3945 67.0402 20 57.7139 20V26ZM78.2744 33.5703L80.0858 39.2903C86.3615 37.303 93.0501 36.2285 100.001 36.2285V30.2285V24.2285C91.8064 24.2285 83.8965 25.4962 76.463 27.8503L78.2744 33.5703ZM100.001 30.2285V36.2285C106.951 36.2285 113.639 37.3026 119.913 39.2894L121.725 33.5693L123.536 27.8492C116.103 25.4958 108.194 24.2285 100.001 24.2285V30.2285ZM121.725 33.5693L125.617 38.1354C130.109 34.306 135.921 32 142.286 32V26V20C132.96 20 124.413 23.3933 117.832 29.0032L121.725 33.5693Z" fill="white" mask="url(#path-1-outside-1_1347_15592)"/>
<circle cx="100.001" cy="102.114" r="71.8857" fill="#C63047"/>
<path d="M142.286 26C159.801 26.0002 174 40.1989 174 57.7139C174 73.6742 162.21 86.8785 146.864 89.0977C148.013 93.2408 148.629 97.6055 148.629 102.114C148.629 128.971 126.857 150.743 100 150.743C73.1432 150.743 51.3711 128.971 51.3711 102.114C51.3711 97.6056 51.9865 93.2407 53.1348 89.0977C37.7896 86.8781 26 73.6739 26 57.7139C26.0002 40.1989 40.1989 26.0002 57.7139 26C74.2025 26 87.7505 38.5834 89.2822 54.6709C92.7305 53.8952 96.3175 53.4854 100 53.4854C103.682 53.4854 107.269 53.8954 110.717 54.6709C112.249 38.5834 125.797 26 142.286 26Z" fill="#4B9AE8"/>
<mask id="path-5-outside-2_1347_15592" maskUnits="userSpaceOnUse" x="116.683" y="29.1744" width="52.3259" height="52.3259" fill="black">
<rect fill="white" x="116.683" y="29.1744" width="52.3259" height="52.3259"/>
<path d="M154.575 46.5606C160.103 52.0879 160.102 61.0498 154.575 66.5771C149.047 72.1041 140.086 72.1043 134.559 66.5771C129.951 61.969 129.185 54.9741 132.261 49.572C130.834 48.349 129.633 45.8109 130.339 44.5788C131.136 43.1874 134.596 43.0598 136.237 44.0043C136.532 44.1738 136.799 44.3688 137.034 44.5836C142.502 41.1399 149.813 41.7984 154.575 46.5606Z"/>
</mask>
<path d="M154.575 46.5606C160.103 52.0879 160.102 61.0498 154.575 66.5771C149.047 72.1041 140.086 72.1043 134.559 66.5771C129.951 61.969 129.185 54.9741 132.261 49.572C130.834 48.349 129.633 45.8109 130.339 44.5788C131.136 43.1874 134.596 43.0598 136.237 44.0043C136.532 44.1738 136.799 44.3688 137.034 44.5836C142.502 41.1399 149.813 41.7984 154.575 46.5606Z" fill="#DFB820"/>
<path d="M154.575 46.5606L156.523 44.6126L156.523 44.6126L154.575 46.5606ZM154.575 66.5771L156.523 68.5252L156.523 68.5252L154.575 66.5771ZM134.559 66.5771L132.611 68.5252L132.611 68.5252L134.559 66.5771ZM132.261 49.572L134.655 50.9351L135.779 48.96L134.054 47.4806L132.261 49.572ZM130.339 44.5788L127.949 43.209L127.949 43.209L130.339 44.5788ZM136.237 44.0043L137.612 41.6164L137.611 41.6162L136.237 44.0043ZM137.034 44.5836L135.173 46.6153L136.723 48.035L138.502 46.9148L137.034 44.5836ZM154.575 46.5606L152.627 48.5087C157.078 52.9599 157.078 60.1775 152.627 64.6291L154.575 66.5771L156.523 68.5252C163.126 61.9222 163.127 51.2159 156.523 44.6126L154.575 46.5606ZM154.575 66.5771L152.627 64.629C148.175 69.0803 140.958 69.0803 136.507 64.6291L134.559 66.5771L132.611 68.5252C139.214 75.1283 149.919 75.128 156.523 68.5252L154.575 66.5771ZM134.559 66.5771L136.507 64.6291C132.799 60.9209 132.177 55.2869 134.655 50.9351L132.261 49.572L129.867 48.209C126.193 54.6612 127.103 63.0171 132.611 68.5252L134.559 66.5771ZM132.261 49.572L134.054 47.4806C133.708 47.1843 133.291 46.6159 133.045 46.0235C132.927 45.7399 132.892 45.5526 132.886 45.4794C132.879 45.3888 132.921 45.6132 132.729 45.9485L130.339 44.5788L127.949 43.209C127.403 44.1604 127.331 45.1642 127.395 45.9342C127.46 46.7217 127.683 47.4763 127.955 48.1342C128.49 49.4246 129.387 50.7368 130.467 51.6634L132.261 49.572ZM130.339 44.5788L132.729 45.9486C132.515 46.3225 132.274 46.3753 132.427 46.3116C132.55 46.2605 132.804 46.1908 133.178 46.1628C133.54 46.1356 133.923 46.1547 134.261 46.2138C134.617 46.2759 134.811 46.3621 134.864 46.3923L136.237 44.0043L137.611 41.6162C136.157 40.7795 134.276 40.555 132.765 40.6683C131.97 40.728 131.107 40.8921 130.305 41.2268C129.533 41.5488 128.562 42.1394 127.949 43.209L130.339 44.5788ZM136.237 44.0043L134.863 46.3921C134.991 46.4654 135.093 46.5424 135.173 46.6153L137.034 44.5836L138.894 42.5519C138.505 42.1952 138.073 41.8822 137.612 41.6164L136.237 44.0043ZM137.034 44.5836L138.502 46.9148C142.905 44.1414 148.795 44.6761 152.627 48.5087L154.575 46.5606L156.523 44.6126C150.832 38.9208 142.098 38.1383 135.565 42.2525L137.034 44.5836Z" fill="white" mask="url(#path-5-outside-2_1347_15592)"/>
<path d="M134.56 66.5778C140.088 72.1051 149.049 72.1051 154.576 66.5778C160.104 61.0505 160.104 52.089 154.576 46.5618C149.049 41.0345 140.088 41.0345 134.56 46.5618C129.033 52.089 129.033 61.0505 134.56 66.5778Z" fill="#4B98E6"/>
<circle cx="143.521" cy="50.2826" r="3.70427" transform="rotate(45 143.521 50.2826)" fill="white"/>
<circle cx="143.521" cy="50.2828" r="2.22256" transform="rotate(45 143.521 50.2828)" fill="#161616"/>
<circle cx="143.521" cy="50.2828" r="2.22256" transform="rotate(45 143.521 50.2828)" fill="#161616"/>
<path d="M132.823 49.9772C131.178 49.0302 129.543 45.9717 130.34 44.5802C131.138 43.1886 134.597 43.0615 136.239 44.0062C137.881 44.9509 138.696 46.6289 137.507 48.7021C136.306 50.8004 134.464 50.9219 132.819 49.9749L132.823 49.9772Z" fill="#DFB820"/>
<path d="M63.2174 139.046L62.4636 141.605C62.3546 141.988 62.4315 142.411 62.6832 142.739L64.3394 144.895C65.2244 146.049 64.4163 147.647 62.994 147.562L60.5353 147.41C60.1098 147.384 59.7091 147.575 59.4773 147.92L58.1045 149.929C57.3402 151.048 55.5825 150.759 55.1144 149.429L54.1578 146.743C54.0231 146.37 53.7248 146.072 53.3519 145.937L50.6657 144.981C49.3404 144.509 49.0472 142.755 50.1661 141.991L52.1756 140.618C52.5202 140.386 52.7114 139.985 52.6856 139.56L52.533 137.101C52.4444 135.683 54.0461 134.871 55.2001 135.756L57.356 137.412C57.6845 137.664 58.1075 137.748 58.4903 137.632L61.0495 136.878C62.3429 136.503 63.5961 137.756 63.2174 139.046Z" fill="#FCD53F"/>
<path d="M81.0533 152.4L81.0772 155.068C81.0844 155.466 81.2811 155.848 81.6175 156.089L83.8295 157.67C85.0122 158.516 84.7042 160.28 83.3189 160.613L80.9223 161.183C80.5077 161.282 80.18 161.581 80.0586 161.979L79.3303 164.301C78.9248 165.594 77.159 165.828 76.3242 164.693L74.627 162.402C74.3896 162.084 74.0174 161.886 73.6214 161.866L70.7731 161.732C69.3678 161.667 68.5767 160.074 69.4247 159.017L70.9474 157.119C71.2097 156.797 71.2759 156.358 71.1273 155.958L70.2656 153.65C69.7679 152.319 71.0638 151.076 72.4255 151.587L74.9702 152.544C75.3578 152.689 75.7871 152.647 76.1193 152.424L78.3482 150.957C79.4765 150.222 81.0402 151.056 81.0533 152.4Z" fill="#FCD53F"/>
<path d="M136.597 139.046L137.351 141.605C137.46 141.988 137.383 142.411 137.131 142.739L135.475 144.895C134.59 146.049 135.398 147.647 136.82 147.562L139.279 147.41C139.705 147.384 140.105 147.575 140.337 147.92L141.71 149.929C142.474 151.048 144.232 150.759 144.7 149.429L145.657 146.743C145.791 146.37 146.09 146.072 146.463 145.937L149.149 144.981C150.474 144.509 150.767 142.755 149.648 141.991L147.639 140.618C147.294 140.386 147.103 139.985 147.129 139.56L147.281 137.101C147.37 135.683 145.768 134.871 144.614 135.756L142.458 137.412C142.13 137.664 141.707 137.748 141.324 137.632L138.765 136.878C137.472 136.503 136.218 137.756 136.597 139.046Z" fill="#FCD53F"/>
<path d="M118.761 152.399L118.737 155.067C118.73 155.465 118.533 155.847 118.197 156.088L115.985 157.669C114.802 158.515 115.11 160.279 116.496 160.612L118.892 161.182C119.307 161.281 119.634 161.58 119.756 161.978L120.484 164.3C120.89 165.593 122.655 165.827 123.49 164.692L125.187 162.401C125.425 162.083 125.797 161.885 126.193 161.865L129.041 161.731C130.447 161.666 131.238 160.073 130.39 159.016L128.867 157.118C128.605 156.796 128.539 156.357 128.687 155.957L129.549 153.649C130.047 152.318 128.751 151.075 127.389 151.586L124.844 152.543C124.457 152.688 124.027 152.646 123.695 152.423L121.466 150.956C120.338 150.221 118.774 151.055 118.761 152.399Z" fill="#FCD53F"/>
<path d="M101.027 155.856L102.304 158.199C102.497 158.547 102.851 158.791 103.261 158.846L105.956 159.199C107.398 159.389 107.957 161.091 106.891 162.036L105.045 163.667C104.726 163.95 104.577 164.368 104.657 164.776L105.107 167.167C105.358 168.499 103.911 169.537 102.64 168.928L100.064 167.705C99.7049 167.537 99.2832 167.537 98.9242 167.705L96.3483 168.928C95.0775 169.532 93.63 168.499 93.8807 167.167L94.331 164.776C94.4107 164.368 94.2626 163.95 93.9434 163.667L92.097 162.036C91.0313 161.096 91.5898 159.389 93.0316 159.199L95.7272 158.846C96.1375 158.791 96.4965 158.552 96.6845 158.199L97.9611 155.856C98.6108 154.677 100.383 154.677 101.027 155.856Z" fill="#FCD53F"/>
<path d="M75.9449 92.676C75.1974 90.1969 72.8081 83.1095 68.7771 71.4138C67.9999 69.1588 67.4248 67.6144 67.052 66.7808C66.6917 65.9215 66.3178 65.302 65.9304 64.9224C65.543 64.5428 65.0745 64.3621 64.5249 64.3805C63.9688 64.3798 63.0314 64.6066 61.7128 65.0611L59.2188 65.9207C58.6832 65.4211 58.3067 64.856 58.0893 64.2253C57.6019 62.8111 58.9181 61.1709 62.0378 59.3045C65.151 57.4191 67.5198 56.1964 69.1442 55.6366C70.2526 55.2545 71.0757 55.0992 71.6134 55.1704C72.1636 55.216 72.6331 55.4925 73.0218 55.9999C73.423 56.4817 73.8212 57.2959 74.2164 58.4425L78.3363 70.3962C81.8997 80.7351 84.1507 87.1111 85.0893 89.5243L92.0552 87.1235C92.5974 87.6422 93.0036 88.2933 93.2736 89.0768C93.5041 89.7457 93.5222 90.2633 93.3277 90.6297C93.1524 90.9894 92.6634 91.3076 91.8608 91.5843L70.5906 98.9152C69.9891 98.2245 69.5665 97.5256 69.3228 96.8185C69.1186 96.2261 69.1075 95.7596 69.2894 95.4189C69.4647 95.0591 69.8486 94.7772 70.441 94.573L75.9449 92.676Z" fill="#1F5385" stroke="#1F5385" stroke-width="2.957"/>
<path d="M114.856 72.3255L114.97 67.3776C115.524 67.3728 116.051 67.425 116.552 67.534C117.063 67.6401 117.475 67.8143 117.788 68.0566C118.111 68.2959 118.457 69.0234 118.826 70.239L119.071 71.046L124.123 69.5125C124.413 69.8596 124.626 70.2574 124.762 70.7057C124.877 71.0844 124.885 71.3596 124.785 71.5315C124.684 71.7034 124.435 71.8498 124.036 71.9708L119.747 73.273L121.539 79.1766C122.059 80.8904 122.558 82.0123 123.034 82.5423C123.511 83.0724 124.087 83.251 124.764 83.0783C125.448 82.8925 126.197 82.4038 127.012 81.6122C127.419 81.9131 127.698 82.3126 127.85 82.8108C128.055 83.4884 127.836 84.0556 127.191 84.5125C126.553 84.9565 125.482 85.4068 123.977 85.8635C122.333 86.3626 121.058 86.3907 120.151 85.9479C119.253 85.502 118.518 84.3325 117.943 82.4393L117.153 79.8388C116.654 78.1947 116.069 76.4462 115.398 74.5933L113.873 75.0561C113.564 74.6821 113.343 74.2759 113.209 73.8375C113.107 73.4987 113.099 73.2399 113.186 73.0611C113.283 72.8792 113.491 72.7399 113.81 72.6431L114.856 72.3255Z" fill="#1F5385" stroke="#1F5385" stroke-width="1.14245"/>
<path d="M105.681 74.6373C107.186 74.1806 108.391 73.9727 109.295 74.0136C110.197 74.0446 110.749 74.3938 110.952 75.0614C111.167 75.7688 111.1 76.5725 110.753 77.4722C108.314 77.179 106.521 77.2063 105.375 77.5542C104.767 77.7387 104.349 77.9909 104.119 78.3108C103.9 78.6277 103.855 79.0004 103.986 79.4288C104.122 79.8772 104.434 80.2068 104.922 80.4176C105.421 80.6255 106.459 80.7672 108.039 80.8428C109.875 80.9056 111.245 81.1699 112.148 81.6357C113.061 82.0985 113.685 82.8829 114.021 83.9889C114.475 85.4835 114.21 86.8154 113.226 87.9845C112.253 89.1506 110.725 90.0498 108.642 90.682C106.719 91.2658 105.31 91.5521 104.414 91.5411C103.515 91.5201 102.936 91.0976 102.675 90.2737C102.487 89.6559 102.547 88.974 102.853 88.2279C105.093 88.4729 106.98 88.3625 108.515 87.8967C109.143 87.7062 109.599 87.4533 109.884 87.1382C110.17 86.8231 110.238 86.4214 110.09 85.9332C109.917 85.3653 109.471 85.0057 108.75 84.8544C108.04 84.7002 106.928 84.5697 105.416 84.4629C103.792 84.3465 102.569 84.0648 101.748 83.6177C100.933 83.1576 100.373 82.4243 100.068 81.418C99.6383 80.0031 99.9143 78.6896 100.896 77.4776C101.884 76.2526 103.479 75.3058 105.681 74.6373Z" fill="#1F5385" stroke="#1F5385" stroke-width="1.14245"/>
<path d="M70.3277 90.9221C69.5802 88.443 67.1909 81.3556 63.1599 69.6599C62.3827 67.4049 61.8076 65.8605 61.4348 65.0269C61.0745 64.1676 60.7006 63.5481 60.3132 63.1685C59.9258 62.7889 59.4573 62.6082 58.9078 62.6266C58.3516 62.6259 57.4142 62.8527 56.0956 63.3072L53.6016 64.1668C53.066 63.6672 52.6895 63.1021 52.4721 62.4714C51.9847 61.0572 53.3009 59.417 56.4206 57.5506C59.5338 55.6652 61.9026 54.4425 63.527 53.8827C64.6354 53.5006 65.4585 53.3453 65.9962 53.4165C66.5464 53.4621 67.0159 53.7386 67.4046 54.246C67.8058 54.7278 68.204 55.542 68.5992 56.6886L72.7192 68.6423C76.2825 78.9812 78.5335 85.3572 79.4722 87.7704L86.438 85.3696C86.9802 85.8883 87.3864 86.5394 87.6564 87.3229C87.887 87.9918 87.905 88.5094 87.7105 88.8758C87.5352 89.2355 87.0462 89.5537 86.2436 89.8304L64.9734 97.1613C64.3719 96.4706 63.9493 95.7717 63.7056 95.0646C63.5014 94.4722 63.4903 94.0057 63.6722 93.665C63.8475 93.3052 64.2314 93.0233 64.8239 92.8191L70.3277 90.9221Z" fill="#EAC00F" stroke="#EAC00F" stroke-width="2.957"/>
<path d="M110.569 70.8099L110.683 65.862C111.237 65.8572 111.764 65.9093 112.265 66.0184C112.776 66.1244 113.188 66.2986 113.501 66.541C113.824 66.7803 114.17 67.5077 114.539 68.7233L114.784 69.5304L119.836 67.9969C120.126 68.344 120.339 68.7417 120.475 69.1901C120.59 69.5687 120.598 69.844 120.497 70.0159C120.397 70.1878 120.148 70.3342 119.749 70.4552L115.46 71.7573L117.252 77.661C117.772 79.3748 118.271 80.4967 118.747 81.0267C119.224 81.5568 119.8 81.7354 120.477 81.5626C121.16 81.3769 121.91 80.8882 122.725 80.0966C123.132 80.3975 123.411 80.797 123.562 81.2952C123.768 81.9727 123.549 82.54 122.904 82.9969C122.266 83.4408 121.195 83.8912 119.69 84.3479C118.046 84.847 116.77 84.8751 115.863 84.4322C114.966 83.9864 114.23 82.8168 113.656 80.9237L112.866 78.3231C112.367 76.6791 111.782 74.9306 111.111 73.0777L109.586 73.5405C109.277 73.1665 109.055 72.7602 108.922 72.3218C108.82 71.9831 108.812 71.7243 108.899 71.5454C108.996 71.3636 109.204 71.2243 109.523 71.1275L110.569 70.8099Z" fill="#EAC00F" stroke="#EAC00F" stroke-width="1.14245"/>
<path d="M101.396 73.1217C102.901 72.665 104.105 72.4571 105.01 72.498C105.912 72.5289 106.464 72.8782 106.667 73.5458C106.881 74.2532 106.815 75.0568 106.468 75.9566C104.029 75.6634 102.236 75.6907 101.09 76.0385C100.482 76.2231 100.064 76.4753 99.8343 76.7952C99.6149 77.1121 99.5703 77.4847 99.7003 77.9132C99.8365 78.3616 100.149 78.6912 100.637 78.902C101.136 79.1098 102.174 79.2516 103.753 79.3272C105.59 79.39 106.96 79.6543 107.863 80.1201C108.776 80.5829 109.4 81.3673 109.736 82.4733C110.19 83.9679 109.925 85.2997 108.941 86.4689C107.968 87.635 106.44 88.5342 104.357 89.1664C102.434 89.7501 101.025 90.0365 100.129 90.0255C99.2303 90.0045 98.6504 89.582 98.3894 88.758C98.2019 88.1403 98.2615 87.4584 98.5682 86.7123C100.808 86.9573 102.695 86.8469 104.23 86.3811C104.857 86.1905 105.314 85.9377 105.599 85.6226C105.884 85.3075 105.953 84.9058 105.805 84.4176C105.632 83.8496 105.186 83.49 104.465 83.3388C103.755 83.1845 102.643 83.054 101.131 82.9473C99.5065 82.8309 98.2838 82.5492 97.4625 82.102C96.6481 81.6419 96.0882 80.9087 95.7827 79.9023C95.3531 78.4875 95.6291 77.174 96.6106 75.962C97.5989 74.7369 99.1941 73.7902 101.396 73.1217Z" fill="#EAC00F" stroke="#EAC00F" stroke-width="1.14245"/>
<path d="M135.554 100.21C136.166 100.138 136.613 100.182 136.894 100.342C137.184 100.492 137.363 100.859 137.432 101.443C137.516 102.151 137.368 102.906 136.988 103.708C134.882 103.133 132.26 103.032 129.122 103.405L128.433 103.486C128.487 104.431 128.684 106.343 129.026 109.223L136.26 108.364C136.483 108.852 136.627 109.369 136.691 109.914C136.73 110.239 136.699 110.466 136.598 110.595C136.495 110.714 136.281 110.792 135.956 110.831L129.311 111.62C129.758 115.303 130.051 117.524 130.189 118.284L131.381 118.142C134.605 117.759 137.115 117.078 138.91 116.098C139.406 116.68 139.698 117.339 139.785 118.076C139.848 118.602 139.696 119.003 139.331 119.28C138.966 119.556 138.186 119.765 136.99 119.907L124.232 121.436C124.01 121.035 123.876 120.639 123.829 120.247C123.798 119.988 123.848 119.793 123.978 119.661C124.107 119.52 124.31 119.433 124.587 119.4L125.635 119.275C125.546 118.034 125.194 114.821 124.578 109.635C124.245 106.831 123.977 104.821 123.774 103.603L122.138 103.797C121.916 103.396 121.782 103.005 121.737 102.622C121.705 102.354 121.754 102.154 121.884 102.022C122.013 101.881 122.216 101.794 122.493 101.761L135.554 100.21Z" fill="#1F5385" stroke="#1F5385" stroke-width="2.11429"/>
<path d="M109.128 106.142C108.439 106.224 107.847 106.343 107.351 106.499C107.462 107.844 107.807 110.952 108.385 115.822C108.654 118.09 108.952 119.413 109.278 119.791C109.603 120.16 110.35 120.275 111.517 120.137C112.904 119.972 113.908 119.392 114.527 118.397C115.146 117.401 115.293 115.531 114.967 112.784C114.646 110.077 113.992 108.248 113.006 107.297C112.028 106.336 110.735 105.951 109.128 106.142ZM107.423 103.55C111.748 103.037 114.796 103.373 116.567 104.56C118.337 105.738 119.411 107.92 119.789 111.106C120.208 114.637 119.692 117.4 118.241 119.397C116.799 121.392 114.093 122.625 110.122 123.097L103.105 123.944C102.883 123.544 102.749 123.147 102.702 122.755C102.672 122.497 102.721 122.302 102.851 122.17C102.98 122.028 103.183 121.941 103.46 121.908L104.508 121.784C104.419 120.543 104.067 117.329 103.451 112.143C103.118 109.34 102.85 107.329 102.647 106.111L101.011 106.305C100.789 105.905 100.655 105.513 100.61 105.13C100.578 104.862 100.627 104.663 100.757 104.531C100.886 104.389 101.089 104.302 101.366 104.269L107.423 103.55Z" fill="#1F5385" stroke="#1F5385" stroke-width="2.11429"/>
<path d="M97.6506 104.71C97.8553 105.045 97.9787 105.389 98.0207 105.743C98.0616 106.088 98.0278 106.334 97.9193 106.483C97.8097 106.622 97.6162 106.708 97.3387 106.741L95.9465 106.906C96.0441 108.137 96.2646 110.158 96.6081 112.97C97.2227 118.146 97.6265 121.344 97.8198 122.563L99.743 122.335C99.9465 122.66 100.07 123.004 100.113 123.368C100.153 123.703 100.118 123.945 100.01 124.093C99.9015 124.242 99.7085 124.333 99.431 124.366L91.5372 125.303C91.315 124.902 91.1806 124.506 91.1341 124.114C91.1034 123.855 91.153 123.66 91.2829 123.528C91.4117 123.387 91.6148 123.3 91.8923 123.267L93.227 123.108C93.1295 121.878 92.7729 118.67 92.1572 113.484C91.8148 110.681 91.547 108.671 91.3538 107.452L89.4449 107.678C89.2227 107.278 89.0889 106.886 89.0434 106.503C89.0116 106.235 89.0607 106.036 89.1906 105.904C89.3193 105.762 89.5224 105.675 89.7999 105.642L97.6506 104.71Z" fill="#1F5385" stroke="#1F5385" stroke-width="2.11429"/>
<path d="M76.0935 116.715L77.256 116.577C78.4903 116.431 79.4056 116.089 80.0017 115.553C80.6062 115.005 80.8483 114.225 80.7279 113.21C80.5723 111.9 80.1362 111.005 79.4197 110.528C78.7116 110.039 77.86 109.854 76.8649 109.972C76.2621 110.044 75.775 110.15 75.4036 110.291C75.4274 110.9 75.6062 112.61 75.9402 115.424L76.0935 116.715ZM79.2329 124.77C79.4364 125.095 79.5598 125.439 79.603 125.803C79.6427 126.138 79.6084 126.379 79.4999 126.528C79.3914 126.677 79.2032 126.767 78.9353 126.799L70.8693 127.757C70.6471 127.356 70.5127 126.96 70.4661 126.567C70.4354 126.309 70.485 126.114 70.6149 125.982C70.7437 125.841 70.9468 125.753 71.2243 125.72L72.5591 125.562C72.4615 124.332 72.1049 121.123 71.4892 115.937C71.1564 113.134 70.8934 111.123 70.7001 109.904L68.7913 110.13C68.5786 109.728 68.4496 109.336 68.4042 108.954C68.3724 108.686 68.4166 108.486 68.5369 108.356C68.6657 108.214 68.8688 108.127 69.1463 108.094L76.5952 107.21C79.5804 106.855 81.7588 107.019 83.1302 107.7C84.5112 108.38 85.3101 109.634 85.5271 111.462C85.827 113.988 84.4704 115.925 81.4575 117.272C82.2807 117.504 83.0059 117.932 83.6331 118.556C84.2591 119.171 84.9468 120.06 85.6961 121.222C86.4443 122.376 87.0279 123.083 87.447 123.343C87.8745 123.593 88.4567 123.675 89.1934 123.587C89.5529 124.408 89.594 125 89.3169 125.363C89.0397 125.726 88.2601 125.983 86.978 126.135C85.4853 126.312 84.4332 126.277 83.8216 126.03C83.2185 125.771 82.5907 124.856 81.9383 123.284C81.2848 121.702 80.6436 120.551 80.0146 119.83C79.3941 119.099 78.6198 118.788 77.6916 118.898C77.1941 118.957 76.7596 119.057 76.3883 119.198C76.7363 122.048 76.9908 123.988 77.1518 125.017L79.2329 124.77Z" fill="#1F5385" stroke="#1F5385" stroke-width="2.11429"/>
<path d="M133.441 98.096C134.053 98.0233 134.5 98.0673 134.781 98.228C135.07 98.378 135.25 98.7448 135.319 99.3285C135.403 100.037 135.255 100.792 134.875 101.594C132.769 101.019 130.147 100.918 127.008 101.29L126.319 101.372C126.373 102.317 126.571 104.229 126.913 107.109L134.147 106.25C134.37 106.738 134.513 107.255 134.578 107.8C134.617 108.125 134.585 108.352 134.484 108.481C134.382 108.599 134.168 108.678 133.843 108.717L127.198 109.506C127.645 113.188 127.937 115.41 128.076 116.169L129.267 116.028C132.492 115.645 135.002 114.964 136.797 113.984C137.293 114.566 137.585 115.225 137.672 115.962C137.734 116.488 137.583 116.889 137.218 117.165C136.853 117.442 136.073 117.651 134.877 117.793L122.119 119.322C121.897 118.921 121.762 118.525 121.716 118.132C121.685 117.874 121.735 117.679 121.865 117.547C121.993 117.406 122.197 117.319 122.474 117.286L123.522 117.161C123.433 115.92 123.08 112.707 122.465 107.521C122.132 104.717 121.864 102.706 121.661 101.488L120.025 101.683C119.803 101.282 119.669 100.89 119.624 100.508C119.592 100.24 119.641 100.04 119.771 99.9081C119.899 99.7667 120.103 99.6795 120.38 99.6465L133.441 98.096Z" fill="#EAC00F" stroke="#EAC00F" stroke-width="1.05714"/>
<path d="M107.015 104.028C106.326 104.11 105.733 104.229 105.238 104.384C105.349 105.73 105.694 108.837 106.272 113.708C106.541 115.975 106.839 117.298 107.165 117.677C107.49 118.046 108.236 118.161 109.404 118.022C110.791 117.858 111.795 117.278 112.414 116.282C113.033 115.287 113.18 113.416 112.854 110.67C112.532 107.962 111.878 106.133 110.892 105.183C109.915 104.222 108.622 103.837 107.015 104.028ZM105.31 101.436C109.635 100.922 112.683 101.259 114.454 102.446C116.223 103.624 117.298 105.805 117.676 108.992C118.095 112.522 117.579 115.286 116.128 117.282C114.686 119.278 111.979 120.511 108.009 120.982L100.992 121.83C100.77 121.429 100.635 121.033 100.589 120.641C100.558 120.382 100.608 120.187 100.738 120.055C100.866 119.914 101.07 119.827 101.347 119.794L102.395 119.669C102.306 118.428 101.953 115.215 101.338 110.029C101.005 107.225 100.737 105.215 100.534 103.997L98.898 104.191C98.6758 103.79 98.542 103.399 98.4966 103.016C98.4647 102.748 98.5138 102.548 98.6437 102.416C98.7724 102.275 98.9756 102.188 99.253 102.155L105.31 101.436Z" fill="#EAC00F" stroke="#EAC00F" stroke-width="1.05714"/>
<path d="M95.5374 102.596C95.7421 102.931 95.8654 103.275 95.9074 103.629C95.9483 103.973 95.9145 104.22 95.806 104.369C95.6964 104.508 95.5029 104.594 95.2254 104.627L93.8332 104.792C93.9308 106.023 94.1513 108.044 94.4948 110.856C95.1094 116.032 95.5133 119.23 95.7065 120.449L97.6297 120.221C97.8333 120.546 97.9566 120.89 97.9998 121.254C98.0395 121.589 98.0052 121.83 97.8967 121.979C97.7882 122.128 97.5952 122.219 97.3177 122.252L89.424 123.189C89.2017 122.788 89.0674 122.392 89.0208 121.999C88.9901 121.741 89.0397 121.546 89.1696 121.414C89.2984 121.273 89.5015 121.186 89.779 121.153L91.1137 120.994C91.0162 119.764 90.6596 116.555 90.0439 111.37C89.7015 108.567 89.4337 106.556 89.2405 105.337L87.3316 105.564C87.1094 105.163 86.9756 104.772 86.9301 104.389C86.8983 104.121 86.9474 103.921 87.0773 103.789C87.206 103.648 87.4092 103.561 87.6866 103.528L95.5374 102.596Z" fill="#EAC00F" stroke="#EAC00F" stroke-width="1.05714"/>
<path d="M73.9802 114.601L75.1428 114.463C76.3771 114.316 77.2923 113.975 77.8884 113.438C78.4929 112.891 78.735 112.11 78.6146 111.096C78.459 109.785 78.0229 108.891 77.3064 108.413C76.5983 107.925 75.7467 107.74 74.7516 107.858C74.1488 107.93 73.6617 108.036 73.2904 108.177C73.3141 108.785 73.4929 110.496 73.8269 113.309L73.9802 114.601ZM77.1196 122.655C77.3232 122.981 77.4465 123.325 77.4897 123.689C77.5294 124.023 77.4951 124.265 77.3866 124.414C77.2781 124.563 77.0899 124.653 76.822 124.685L68.756 125.642C68.5338 125.242 68.3994 124.845 68.3528 124.453C68.3221 124.195 68.3718 124 68.5016 123.868C68.6304 123.726 68.8335 123.639 69.111 123.606L70.4458 123.448C70.3482 122.217 69.9916 119.009 69.3759 113.823C69.0431 111.02 68.7801 109.008 68.5869 107.789L66.678 108.016C66.4654 107.614 66.3363 107.222 66.2909 106.839C66.2591 106.571 66.3033 106.372 66.4237 106.241C66.5524 106.1 66.7555 106.013 67.033 105.98L74.4819 105.095C77.4672 104.741 79.6455 104.905 81.0169 105.586C82.3979 106.266 83.1968 107.52 83.4138 109.348C83.7137 111.874 82.3571 113.81 79.3442 115.158C80.1674 115.39 80.8926 115.818 81.5198 116.442C82.1458 117.057 82.8335 117.945 83.5828 119.108C84.331 120.261 84.9147 120.968 85.3337 121.229C85.7612 121.479 86.3434 121.56 87.0801 121.473C87.4396 122.294 87.4807 122.886 87.2036 123.249C86.9265 123.611 86.1468 123.869 84.8647 124.021C83.372 124.198 82.3199 124.163 81.7084 123.915C81.1052 123.657 80.4774 122.742 79.8251 121.17C79.1715 119.588 78.5303 118.437 77.9013 117.716C77.2808 116.984 76.5065 116.673 75.5784 116.784C75.0808 116.843 74.6464 116.943 74.275 117.084C74.6231 119.934 74.8776 121.874 75.0385 122.902L77.1196 122.655Z" fill="#EAC00F" stroke="#EAC00F" stroke-width="1.05714"/>
</svg>
