<svg width="200" height="200" viewBox="0 0 200 200" fill="none" xmlns="http://www.w3.org/2000/svg">
<mask id="path-1-outside-1_898_1504" maskUnits="userSpaceOnUse" x="8.14648" y="30.9469" width="184" height="137" fill="black">
<rect fill="white" x="8.14648" y="30.9469" width="184" height="137"/>
<path d="M87.4541 49.1068C91.2329 41.4216 98.9438 36.9812 107.094 38.1253C116.629 39.464 123.469 47.9919 123.301 58.5501L129.594 52.887C133.227 49.614 137.674 50.4512 139.75 53.8929C142.878 59.0789 142.983 68.3176 135.512 75.0443C133.731 76.6475 131.854 77.7934 129.944 78.5823C130.647 81.384 130.831 84.3159 130.413 87.2825V87.2884C129.704 92.3405 127.372 96.6023 123.925 99.887C122.99 100.777 121.972 101.594 120.883 102.337C127.221 105.242 132.919 108.524 137.74 111.662C149.121 110.391 159.466 107.354 167.634 104.259C176.494 100.905 186 107.392 186 116.77V148.201C186 155.596 179.936 161.59 172.454 161.59H27.6934C20.2109 161.59 14.1466 155.596 14.1465 148.201V109.614C14.1465 101.904 20.7163 95.7824 28.501 96.2474C29.4927 96.3068 30.5247 96.3727 31.5928 96.4437C29.778 94.1346 29.2577 91.357 29.7637 88.764C29.7285 88.6648 29.7155 88.556 29.7324 88.4446C29.7549 88.2978 29.8252 88.1701 29.9238 88.0736C31.0406 83.9217 34.8029 80.4124 40.0537 80.3519C46.1873 80.2822 52.2046 82.3875 56.0068 94.5384C56.5621 96.3137 57.1568 97.7588 57.7725 98.9456C58.2233 99.0032 58.675 99.0629 59.1279 99.1224C59.546 98.7822 59.9718 98.5415 60.2979 98.3987H60.3037C62.78 97.3154 67.9534 95.4278 74.8516 94.3548C74.5117 93.8654 74.1899 93.3671 73.8906 92.8577C71.4837 88.7531 70.4138 84.0145 71.1289 78.9622C71.5842 75.7277 72.7152 72.7315 74.3838 70.0609C68.0658 62.8005 68.2215 53.6571 70.2686 47.9632C71.629 44.1842 76.3962 43.6196 79.9834 47.1077H79.9775L82.9561 50.0081C84.27 49.3147 86.0619 48.9502 87.4541 49.1068Z"/>
</mask>
<path d="M87.4541 49.1068C91.2329 41.4216 98.9438 36.9812 107.094 38.1253C116.629 39.464 123.469 47.9919 123.301 58.5501L129.594 52.887C133.227 49.614 137.674 50.4512 139.75 53.8929C142.878 59.0789 142.983 68.3176 135.512 75.0443C133.731 76.6475 131.854 77.7934 129.944 78.5823C130.647 81.384 130.831 84.3159 130.413 87.2825V87.2884C129.704 92.3405 127.372 96.6023 123.925 99.887C122.99 100.777 121.972 101.594 120.883 102.337C127.221 105.242 132.919 108.524 137.74 111.662C149.121 110.391 159.466 107.354 167.634 104.259C176.494 100.905 186 107.392 186 116.77V148.201C186 155.596 179.936 161.59 172.454 161.59H27.6934C20.2109 161.59 14.1466 155.596 14.1465 148.201V109.614C14.1465 101.904 20.7163 95.7824 28.501 96.2474C29.4927 96.3068 30.5247 96.3727 31.5928 96.4437C29.778 94.1346 29.2577 91.357 29.7637 88.764C29.7285 88.6648 29.7155 88.556 29.7324 88.4446C29.7549 88.2978 29.8252 88.1701 29.9238 88.0736C31.0406 83.9217 34.8029 80.4124 40.0537 80.3519C46.1873 80.2822 52.2046 82.3875 56.0068 94.5384C56.5621 96.3137 57.1568 97.7588 57.7725 98.9456C58.2233 99.0032 58.675 99.0629 59.1279 99.1224C59.546 98.7822 59.9718 98.5415 60.2979 98.3987H60.3037C62.78 97.3154 67.9534 95.4278 74.8516 94.3548C74.5117 93.8654 74.1899 93.3671 73.8906 92.8577C71.4837 88.7531 70.4138 84.0145 71.1289 78.9622C71.5842 75.7277 72.7152 72.7315 74.3838 70.0609C68.0658 62.8005 68.2215 53.6571 70.2686 47.9632C71.629 44.1842 76.3962 43.6196 79.9834 47.1077H79.9775L82.9561 50.0081C84.27 49.3147 86.0619 48.9502 87.4541 49.1068Z" fill="white"/>
<path d="M87.4541 49.1068L86.7835 55.0692C89.299 55.3521 91.7215 54.0258 92.8384 51.7542L87.4541 49.1068ZM107.094 38.1253L107.928 32.1836L107.928 32.1836L107.094 38.1253ZM123.301 58.5501L117.302 58.4547C117.264 60.8411 118.644 63.0231 120.816 64.0115C122.989 64.9998 125.54 64.6066 127.314 63.0101L123.301 58.5501ZM129.594 52.887L133.607 57.347L133.609 57.3451L129.594 52.887ZM139.75 53.8929L134.612 56.9914L134.612 56.9917L139.75 53.8929ZM135.512 75.0443L139.526 79.5035L139.526 79.5032L135.512 75.0443ZM129.944 78.5823L127.653 73.0369C124.903 74.1734 123.401 77.1546 124.124 80.0416L129.944 78.5823ZM130.413 87.2825L124.472 86.4462C124.433 86.7233 124.413 87.0027 124.413 87.2825H130.413ZM130.413 87.2884L136.355 88.1227C136.394 87.8463 136.413 87.5675 136.413 87.2884L130.413 87.2884ZM123.925 99.887L128.063 104.232L128.064 104.231L123.925 99.887ZM120.883 102.337L117.502 97.3801C115.715 98.5992 114.722 100.687 114.904 102.843C115.087 104.999 116.416 106.89 118.383 107.792L120.883 102.337ZM137.74 111.662L134.467 116.691C135.632 117.449 137.025 117.78 138.407 117.625L137.74 111.662ZM167.634 104.259L165.509 98.6478L165.508 98.6483L167.634 104.259ZM186 116.77L192 116.77L192 116.77L186 116.77ZM186 148.201L192 148.201V148.201H186ZM172.454 161.59L172.454 167.59L172.454 167.59L172.454 161.59ZM14.1465 148.201L8.14648 148.201L8.14648 148.201L14.1465 148.201ZM28.501 96.2474L28.8598 90.2581L28.8587 90.2581L28.501 96.2474ZM31.5928 96.4437L31.1951 102.43C33.5589 102.588 35.7939 101.339 36.8994 99.2436C38.005 97.1483 37.7741 94.5986 36.3101 92.736L31.5928 96.4437ZM29.7637 88.764L35.6526 89.9131C35.8583 88.8592 35.7773 87.7693 35.4182 86.7573L29.7637 88.764ZM29.7324 88.4446L23.8013 87.5381L23.8006 87.5427L29.7324 88.4446ZM29.9238 88.0736L34.1218 92.3604C34.8881 91.61 35.4393 90.6678 35.7179 89.6321L29.9238 88.0736ZM40.0537 80.3519L39.9855 74.3523L39.9845 74.3523L40.0537 80.3519ZM56.0068 94.5384L61.7333 92.7474L61.733 92.7466L56.0068 94.5384ZM57.7725 98.9456L52.4465 101.709C53.3532 103.456 55.0597 104.648 57.0128 104.897L57.7725 98.9456ZM59.1279 99.1224L58.346 105.071C59.9823 105.286 61.6349 104.818 62.915 103.776L59.1279 99.1224ZM60.2979 98.3987V92.3987C59.4699 92.3987 58.6509 92.5701 57.8923 92.9021L60.2979 98.3987ZM60.3037 98.3987V104.399C61.1314 104.399 61.9502 104.227 62.7086 103.896L60.3037 98.3987ZM74.8516 94.3548L75.7738 100.284C77.817 99.9657 79.5526 98.6181 80.3669 96.7173C81.1811 94.8166 80.9591 92.6305 79.7795 90.9321L74.8516 94.3548ZM73.8906 92.8577L68.7149 95.8928L68.7173 95.8969L73.8906 92.8577ZM71.1289 78.9622L77.0697 79.8031L77.0703 79.7986L71.1289 78.9622ZM74.3838 70.0609L79.4722 73.2401C80.8706 71.002 80.6424 68.1129 78.91 66.1221L74.3838 70.0609ZM70.2686 47.9632L64.6232 45.9309L64.6224 45.9333L70.2686 47.9632ZM79.9834 47.1077V53.1077C82.4255 53.1077 84.6239 51.6276 85.5426 49.365C86.4613 47.1023 85.917 44.5086 84.1662 42.8061L79.9834 47.1077ZM79.9775 47.1077V41.1077C77.5362 41.1077 75.3384 42.5869 74.4191 44.8485C73.4999 47.1101 74.0426 49.7032 75.7916 51.4064L79.9775 47.1077ZM82.9561 50.0081L78.7702 54.3068C80.6342 56.1219 83.4556 56.5288 85.7566 55.3145L82.9561 50.0081ZM87.4541 49.1068L92.8384 51.7542C95.59 46.1581 100.929 43.3186 106.26 44.067L107.094 38.1253L107.928 32.1836C96.9591 30.6437 86.8758 36.685 82.0698 46.4593L87.4541 49.1068ZM107.094 38.1253L106.26 44.067C112.43 44.9333 117.427 50.5384 117.302 58.4547L123.301 58.5501L129.3 58.6455C129.51 45.4454 120.829 33.9947 107.928 32.1836L107.094 38.1253ZM123.301 58.5501L127.314 63.0101L133.607 57.347L129.594 52.887L125.58 48.4271L119.287 54.0901L123.301 58.5501ZM129.594 52.887L133.609 57.3451C133.968 57.0217 134.233 56.901 134.361 56.8574C134.486 56.8145 134.529 56.8277 134.505 56.8247C134.483 56.822 134.465 56.8124 134.466 56.8129C134.468 56.8143 134.53 56.8549 134.612 56.9914L139.75 53.8929L144.888 50.7943C142.958 47.5936 139.76 45.3927 136.007 44.9192C132.237 44.4433 128.521 45.7779 125.578 48.4289L129.594 52.887ZM139.75 53.8929L134.612 56.9917C136.321 59.8253 136.736 65.8681 131.497 70.5854L135.512 75.0443L139.526 79.5032C149.229 70.767 149.435 58.3325 144.888 50.7941L139.75 53.8929ZM135.512 75.0443L131.497 70.585C130.229 71.7266 128.936 72.5069 127.653 73.0369L129.944 78.5823L132.235 84.1277C134.771 83.08 137.232 81.5684 139.526 79.5035L135.512 75.0443ZM129.944 78.5823L124.124 80.0416C124.645 82.118 124.778 84.2705 124.472 86.4462L130.413 87.2825L136.355 88.1189C136.883 84.3613 136.648 80.65 135.764 77.1231L129.944 78.5823ZM130.413 87.2825H124.413V87.2884H130.413H136.413V87.2825H130.413ZM130.413 87.2884L124.471 86.4541C123.959 90.105 122.3 93.1477 119.786 95.5431L123.925 99.887L128.064 104.231C132.445 100.057 135.449 94.576 136.355 88.1227L130.413 87.2884ZM123.925 99.887L119.787 95.5425C119.1 96.1967 118.337 96.8107 117.502 97.3801L120.883 102.337L124.263 107.294C125.607 106.378 126.88 105.358 128.063 104.232L123.925 99.887ZM120.883 102.337L118.383 107.792C124.41 110.554 129.849 113.684 134.467 116.691L137.74 111.662L141.014 106.634C135.989 103.363 130.033 99.9307 123.383 96.8828L120.883 102.337ZM137.74 111.662L138.407 117.625C150.415 116.283 161.26 113.09 169.76 109.87L167.634 104.259L165.508 98.6483C157.672 101.617 147.828 104.498 137.074 105.7L137.74 111.662ZM167.634 104.259L169.758 109.87C174.774 107.971 180 111.676 180 116.77L186 116.77L192 116.77C192 103.109 178.214 93.8377 165.509 98.6478L167.634 104.259ZM186 116.77H180V148.201H186H192V116.77H186ZM186 148.201L180 148.2C180 152.217 176.688 155.59 172.454 155.59L172.454 161.59L172.454 167.59C183.184 167.59 192 158.975 192 148.201L186 148.201ZM172.454 161.59V155.59H27.6934V161.59V167.59H172.454V161.59ZM27.6934 161.59V155.59C23.4586 155.59 20.1466 152.216 20.1465 148.2L14.1465 148.201L8.14648 148.201C8.14666 158.975 16.9632 167.59 27.6934 167.59V161.59ZM14.1465 148.201H20.1465V109.614H14.1465H8.14648V148.201H14.1465ZM14.1465 109.614H20.1465C20.1465 105.425 23.7403 101.974 28.1433 102.237L28.501 96.2474L28.8587 90.2581C17.6922 89.5911 8.14648 98.3838 8.14648 109.614H14.1465ZM28.501 96.2474L28.1422 102.237C29.1178 102.295 30.1364 102.36 31.1951 102.43L31.5928 96.4437L31.9905 90.4569C30.913 90.3853 29.8676 90.3185 28.8598 90.2581L28.501 96.2474ZM31.5928 96.4437L36.3101 92.736C35.6573 91.9054 35.4538 90.9319 35.6526 89.9131L29.7637 88.764L23.8747 87.6149C23.0616 91.7822 23.8986 96.3638 26.8754 100.151L31.5928 96.4437ZM29.7637 88.764L35.4182 86.7573C35.6917 87.528 35.8055 88.4173 35.6642 89.3466L29.7324 88.4446L23.8006 87.5427C23.6255 88.6946 23.7652 89.8015 24.1092 90.7706L29.7637 88.764ZM29.7324 88.4446L35.6635 89.3512C35.4776 90.5675 34.8934 91.6048 34.1218 92.3604L29.9238 88.0736L25.7259 83.7867C24.757 84.7354 24.0321 86.028 23.8013 87.5381L29.7324 88.4446ZM29.9238 88.0736L35.7179 89.6321C36.1895 87.8786 37.7586 86.3787 40.1229 86.3515L40.0537 80.3519L39.9845 74.3523C31.8472 74.4461 25.8917 79.9649 24.1298 86.515L29.9238 88.0736ZM40.0537 80.3519L40.1219 86.3515C42.4759 86.3247 44.0328 86.7195 45.3307 87.6819C46.7011 88.6981 48.6003 90.9604 50.2806 96.3302L56.0068 94.5384L61.733 92.7466C59.6111 85.9654 56.6005 81.0996 52.4784 78.0429C48.2836 74.9323 43.7651 74.3093 39.9855 74.3523L40.0537 80.3519ZM56.0068 94.5384L50.2804 96.3294C50.9217 98.38 51.6427 100.159 52.4465 101.709L57.7725 98.9456L63.0984 96.1826C62.6709 95.3586 62.2024 94.2473 61.7333 92.7474L56.0068 94.5384ZM57.7725 98.9456L57.0128 104.897C57.4495 104.953 57.887 105.011 58.346 105.071L59.1279 99.1224L59.9098 93.1735C59.463 93.1148 58.997 93.0532 58.5321 92.9939L57.7725 98.9456ZM59.1279 99.1224L62.915 103.776C62.8907 103.796 62.8708 103.809 62.8508 103.822C62.8331 103.832 62.7884 103.858 62.7034 103.895L60.2979 98.3987L57.8923 92.9021C57.1011 93.2483 56.205 93.7654 55.3409 94.4685L59.1279 99.1224ZM60.2979 98.3987V104.399H60.3037V98.3987V92.3987H60.2979V98.3987ZM60.3037 98.3987L62.7086 103.896C64.7786 102.99 69.4542 101.267 75.7738 100.284L74.8516 94.3548L73.9294 88.4261C66.4527 89.5891 60.7814 91.6407 57.8988 92.9018L60.3037 98.3987ZM74.8516 94.3548L79.7795 90.9321C79.5158 90.5524 79.2775 90.1821 79.064 89.8185L73.8906 92.8577L68.7173 95.8969C69.1022 96.5521 69.5076 97.1785 69.9236 97.7775L74.8516 94.3548ZM73.8906 92.8577L79.0664 89.8227C77.3103 86.8281 76.5537 83.4484 77.0697 79.8031L71.1289 78.9622L65.1881 78.1214C64.2739 84.5806 65.657 90.6781 68.7149 95.8928L73.8906 92.8577ZM71.1289 78.9622L77.0703 79.7986C77.404 77.4284 78.2313 75.2263 79.4722 73.2401L74.3838 70.0609L69.2954 66.8816C67.199 70.2367 65.7645 74.0271 65.1875 78.1258L71.1289 78.9622ZM74.3838 70.0609L78.91 66.1221C74.3622 60.896 74.4073 54.1861 75.9147 49.9931L70.2686 47.9632L64.6224 45.9333C62.0357 53.1282 61.7693 64.705 69.8576 73.9996L74.3838 70.0609ZM70.2686 47.9632L75.9139 49.9955C75.8815 50.0854 75.7624 50.3112 75.496 50.5145C75.2409 50.7092 75.0002 50.7696 74.8765 50.7817C74.6389 50.805 75.0482 50.6778 75.8006 51.4093L79.9834 47.1077L84.1662 42.8061C81.3314 40.0496 77.5635 38.4606 73.7054 38.839C69.6809 39.2336 66.1188 41.7766 64.6232 45.9309L70.2686 47.9632ZM79.9834 47.1077V41.1077H79.9775V47.1077V53.1077H79.9834V47.1077ZM79.9775 47.1077L75.7916 51.4064L78.7702 54.3068L82.9561 50.0081L87.1419 45.7095L84.1634 42.8091L79.9775 47.1077ZM82.9561 50.0081L85.7566 55.3145C85.8372 55.2719 86.0566 55.1817 86.3595 55.1207C86.4976 55.093 86.6171 55.0787 86.707 55.0733C86.8006 55.0677 86.8255 55.0739 86.7835 55.0692L87.4541 49.1068L88.1247 43.1443C85.4396 42.8424 82.4455 43.4932 80.1555 44.7018L82.9561 50.0081Z" fill="white" mask="url(#path-1-outside-1_898_1504)"/>
<path d="M67.2975 107.206C65.2393 103.497 59.7452 106.491 56.0069 94.5379C52.2046 82.3869 46.1872 80.2822 40.0535 80.352C30.978 80.4566 26.3501 90.8635 32.1408 97.0844C36.6233 102.596 49.1348 109.166 59.1173 110.962C64.2393 111.881 69.3498 110.922 67.2917 107.206H67.2975Z" fill="#519535"/>
<path d="M58.3324 107.77C58.3324 107.77 54.1813 125.584 65.251 132.846C76.3206 140.107 93.0938 138.898 97.2449 138.724C91.9193 133.014 71.6521 109.846 71.6521 109.846C71.6521 109.846 60.2394 98.6076 58.3382 107.77H58.3324Z" fill="#3F7E34"/>
<path d="M72.309 117.067C72.309 117.067 68.1578 134.881 79.2275 142.142C90.2972 149.404 110.059 150.718 111.221 148.02C113.332 143.125 85.6286 119.142 85.6286 119.142C85.6286 119.142 74.2159 107.904 72.3148 117.067H72.309Z" fill="#539433"/>
<path d="M123.96 132.683C123.96 132.683 132.134 143.509 143.68 142.735C155.221 141.956 161.192 136.253 158.465 134.567C155.739 132.881 151.198 128.02 123.96 132.689V132.683Z" fill="#3F7E34"/>
<path d="M63.1405 106.044C63.1405 106.044 63.6579 117.195 75.5939 124.328C87.524 131.462 97.3495 139.113 119.024 137.166C140.698 135.218 149 126.921 150.035 124.846C142.384 124.067 97.2507 102.276 63.1405 106.038V106.044Z" fill="#E4E588"/>
<path d="M60.3032 98.3983C64.9544 96.3635 79.1229 91.4914 96.3611 94.5088C127.495 99.9565 152.396 122.27 154.215 124.602C154.215 124.602 143.163 140.439 95.4251 124.096C47.6929 107.753 57.5475 99.6018 60.2974 98.3983H60.3032Z" fill="#93C11E"/>
<path d="M87.3961 94.538L94.617 101.846L110.873 104.613L117.861 101.945" stroke="#7EA724" stroke-width="1.72673" stroke-linecap="round" stroke-linejoin="round"/>
<path d="M80.7393 110.927L94.6171 101.846L110.873 104.613L119.024 121.538" stroke="#42580B" stroke-width="1.31976" stroke-linecap="round" stroke-linejoin="round"/>
<path d="M61.0475 98.0845C61.0475 98.0845 84.9311 118.102 110.181 120.695C135.431 123.288 146.343 120.799 149.407 120.189C152.175 121.747 154.215 124.602 154.215 124.602C154.215 124.602 137.768 143.956 84.4078 120.718C59.1696 110.666 52.1232 101.846 61.0533 98.0845H61.0475Z" fill="#BDD145"/>
<path d="M42.1871 89.2763C43.7059 89.2763 44.9371 88.0451 44.9371 86.5263C44.9371 85.0076 43.7059 83.7764 42.1871 83.7764C40.6683 83.7764 39.4371 85.0076 39.4371 86.5263C39.4371 88.0451 40.6683 89.2763 42.1871 89.2763Z" fill="white"/>
<path d="M42.1697 88.4334C43.133 88.4334 43.9139 87.6525 43.9139 86.6892C43.9139 85.726 43.133 84.9451 42.1697 84.9451C41.2064 84.9451 40.4255 85.726 40.4255 86.6892C40.4255 87.6525 41.2064 88.4334 42.1697 88.4334Z" fill="black"/>
<path d="M33.7861 90.8636C33.7861 90.8636 32.6292 88.8868 30.385 88.5438" stroke="#1C4A09" stroke-width="1.31976" stroke-linecap="round" stroke-linejoin="round"/>
<path d="M106.605 102.001C107.03 101.924 107.437 102.206 107.515 102.631L108.747 109.414L111.549 109.731C111.977 109.78 112.286 110.168 112.237 110.597C112.189 111.026 111.801 111.335 111.372 111.286L109.072 111.024L109.632 113.648C109.722 114.071 109.452 114.486 109.029 114.576C108.634 114.66 108.244 114.429 108.123 114.052L108.102 113.974L107.634 111.777L105.067 114.594C104.776 114.913 104.281 114.936 103.962 114.645C103.643 114.354 103.62 113.859 103.911 113.54L107.243 109.884L105.976 102.91C105.899 102.485 106.181 102.078 106.605 102.001Z" fill="#474747"/>
<path d="M79.9776 47.1081L104.518 71.0033C104.518 71.0033 88.588 84.0032 75.6986 71.4509C68.0533 64.0033 68.0882 54.0267 70.2684 47.9628C71.6288 44.1837 76.3963 43.6198 79.9834 47.1081H79.9776Z" fill="#276288"/>
<path d="M130.413 87.288C129.704 92.3403 127.373 96.6019 123.925 99.8867C117.919 105.608 108.518 108.358 98.3671 107.166C98.0473 107.131 97.7275 107.09 97.4078 107.044C97.088 106.997 96.7682 106.951 96.4543 106.898C86.3672 105.241 78.0882 100.003 73.8905 92.8577C71.4836 88.7531 70.4138 84.0147 71.1289 78.9625C72.2452 71.0323 77.4195 64.5323 84.6346 60.7591C84.6346 60.7591 85.0939 57.5847 85.28 56.2882C86.9427 44.3523 96.6578 36.6605 107.094 38.1256C117.53 39.5907 124.739 49.6662 123.065 61.5905C122.884 62.887 122.134 65.4393 121.925 65.5788C122.285 65.8812 122.448 66.0556 122.448 66.0556C128.349 71.6718 131.53 79.352 130.413 87.2822V87.288Z" fill="#4B98E6"/>
<path d="M99.7448 55.9684C102.066 55.9684 103.948 54.0865 103.948 51.765C103.948 49.4435 102.066 47.5615 99.7448 47.5615C97.4233 47.5615 95.5414 49.4435 95.5414 51.765C95.5414 54.0865 97.4233 55.9684 99.7448 55.9684Z" fill="white"/>
<path d="M99.7273 54.073C101.012 54.073 102.053 53.0318 102.053 51.7474C102.053 50.4631 101.012 49.4219 99.7273 49.4219C98.4429 49.4219 97.4017 50.4631 97.4017 51.7474C97.4017 53.0318 98.4429 54.073 99.7273 54.073Z" fill="black"/>
<path d="M114.704 66.2881L129.593 52.887C133.227 49.6138 137.675 50.451 139.75 53.8928C142.878 59.0788 142.983 68.3171 135.512 75.0438C129.274 80.6601 121.867 80.6891 115.948 79.2705C110.39 77.9333 109.71 70.7822 114.704 66.2939V66.2881Z" fill="#276288"/>
<path d="M85.8381 57.5032C83.5765 56.8753 80.6928 53.6951 81.2277 51.7707C81.7626 49.8463 85.8788 48.608 88.1346 49.2359C90.3904 49.8638 91.8788 51.6312 91.0823 54.5091C90.2741 57.416 88.0997 58.1369 85.8381 57.509V57.5032Z" fill="#E8BE0F"/>
<path opacity="0.6" d="M172.454 161.59H27.6931C20.2106 161.59 14.1467 155.596 14.1467 148.2V109.613C14.1467 101.904 20.7164 95.782 28.5013 96.2471C46.5535 97.3285 77.8672 100.241 100.07 107.945C125.192 116.666 150.954 110.578 167.634 104.259C176.494 100.904 186 107.392 186 116.77V148.2C186 155.596 179.936 161.59 172.454 161.59Z" fill="#D3EDEA"/>
<path d="M34.9953 113.718C35.7724 113.718 36.4023 113.088 36.4023 112.311C36.4023 111.534 35.7724 110.904 34.9953 110.904C34.2183 110.904 33.5884 111.534 33.5884 112.311C33.5884 113.088 34.2183 113.718 34.9953 113.718Z" fill="white"/>
<path d="M28.6815 118.317C29.9498 118.317 30.978 117.289 30.978 116.02C30.978 114.752 29.9498 113.724 28.6815 113.724C27.4132 113.724 26.385 114.752 26.385 116.02C26.385 117.289 27.4132 118.317 28.6815 118.317Z" fill="white"/>
<path d="M25.9606 110.183C27.961 110.183 29.5826 108.561 29.5826 106.561C29.5826 104.561 27.961 102.939 25.9606 102.939C23.9602 102.939 22.3385 104.561 22.3385 106.561C22.3385 108.561 23.9602 110.183 25.9606 110.183Z" fill="white"/>
</svg>
