<svg width="200" height="200" viewBox="0 0 200 200" fill="none" xmlns="http://www.w3.org/2000/svg">
<mask id="path-1-outside-1_1347_3907" maskUnits="userSpaceOnUse" x="25.2158" y="23.9346" width="149" height="150" fill="black">
<rect fill="white" x="25.2158" y="23.9346" width="149" height="150"/>
<path d="M99.6475 31.9336C136.89 31.9336 167.08 62.1241 167.08 99.3662C167.08 136.608 136.89 166.799 99.6475 166.799C62.4054 166.799 32.2158 136.608 32.2158 99.3662C32.2159 62.1242 62.4054 31.9337 99.6475 31.9336Z"/>
</mask>
<path d="M99.6475 31.9336C136.89 31.9336 167.08 62.1241 167.08 99.3662C167.08 136.608 136.89 166.799 99.6475 166.799C62.4054 166.799 32.2158 136.608 32.2158 99.3662C32.2159 62.1242 62.4054 31.9337 99.6475 31.9336Z" fill="black"/>
<path d="M99.6475 31.9336V24.9336H99.6474L99.6475 31.9336ZM167.08 99.3662H174.08V99.3662L167.08 99.3662ZM99.6475 166.799L99.6474 173.799H99.6475V166.799ZM32.2158 99.3662L25.2158 99.3662V99.3662H32.2158ZM99.6475 31.9336V38.9336C133.024 38.9336 160.08 65.9901 160.08 99.3662L167.08 99.3662L174.08 99.3662C174.08 58.2581 140.756 24.9336 99.6475 24.9336V31.9336ZM167.08 99.3662H160.08C160.08 132.742 133.024 159.799 99.6475 159.799V166.799V173.799C140.756 173.799 174.08 140.474 174.08 99.3662H167.08ZM99.6475 166.799L99.6475 159.799C66.2715 159.799 39.2158 132.742 39.2158 99.3662H32.2158H25.2158C25.2158 140.474 58.5393 173.799 99.6474 173.799L99.6475 166.799ZM32.2158 99.3662L39.2158 99.3662C39.2159 65.99 66.2716 38.9337 99.6475 38.9336L99.6475 31.9336L99.6474 24.9336C58.5393 24.9337 25.2159 58.2583 25.2158 99.3662L32.2158 99.3662Z" fill="white" mask="url(#path-1-outside-1_1347_3907)"/>
<path d="M167.08 99.3668C167.08 136.609 136.89 166.799 99.6476 166.799C62.4054 166.799 32.2153 136.609 32.2153 99.3668C32.2153 62.1247 62.4054 31.9346 99.6476 31.9346C136.89 31.9346 167.08 62.1247 167.08 99.3668Z" fill="#CAE3FF"/>
<path d="M114.488 105.906C114.051 112.036 106.224 121.034 99.9929 120.604C93.7622 120.173 87.2985 110.181 87.7415 104.05C88.1789 97.9196 92.6148 93.2308 101.913 93.8734C111.319 94.5273 114.931 99.775 114.488 105.906Z" fill="#EAC00F"/>
<path d="M99.9564 169.531C96.8721 169.531 93.8152 169.363 90.8677 169.027L91.5323 163.203C97.3647 163.863 103.615 163.82 110.061 163.046L111.16 168.812L110.785 168.871C107.091 169.312 103.459 169.531 99.9564 169.531ZM71.4941 164.063C65.2852 161.47 59.5128 157.937 54.38 153.586L58.1719 149.11C62.8469 153.071 68.1054 156.287 73.7614 158.644L71.4941 164.063ZM130.252 162.8L127.703 157.523C133.24 154.842 138.365 151.385 142.925 147.257L146.858 151.608C141.883 156.109 136.291 159.878 130.252 162.8ZM41.1907 138.485C37.5811 132.843 34.7686 126.728 32.833 120.316L38.4465 118.611C40.2253 124.506 42.8102 130.127 46.1279 135.315L41.1907 138.485ZM159.656 136.23L154.664 133.153C157.892 127.922 160.343 122.249 161.939 116.313L167.604 117.833C165.856 124.317 163.179 130.513 159.656 136.23ZM29.6236 100.594C29.4239 93.8989 30.1514 87.2082 31.7853 80.7123L37.4692 82.147C35.9668 88.1191 35.2985 94.2706 35.4833 100.426L29.6236 100.594ZM164.136 98.0727C164.017 91.9263 163.018 85.8287 161.169 79.9657L166.759 78.1988C168.776 84.5745 169.863 91.2161 170 97.9515L164.136 98.0727ZM44.5056 65.2479L39.4902 62.2105C42.9778 56.4544 47.3345 51.2723 52.4059 46.8477L56.2642 51.265C51.6474 55.292 47.681 60.0087 44.5056 65.2479ZM153.191 63.4458C149.755 58.3434 145.613 53.754 140.889 49.8147L144.645 45.3114C149.797 49.6048 154.312 54.6075 158.058 60.1699L153.191 63.4458ZM71.6896 41.3358L69.2307 36.0155C75.2817 33.2526 81.6357 31.2086 88.1626 29.9251L89.3158 35.6754C83.2397 36.8684 77.3241 38.7681 71.6896 41.3358ZM125.268 40.1748C119.632 37.7248 113.671 36.1001 107.571 35.3509L108.291 29.5342C114.952 30.3512 121.453 32.1259 127.606 34.7998L125.268 40.1748Z" fill="#4B98E6"/>
<path d="M65.8879 99.1689C73.1674 99.1689 79.0686 93.2677 79.0686 85.9883C79.0686 78.7088 73.1674 72.8076 65.8879 72.8076C58.6085 72.8076 52.7073 78.7088 52.7073 85.9883C52.7073 93.2677 58.6085 99.1689 65.8879 99.1689Z" fill="white"/>
<path d="M65.6833 93.9858C70.0475 93.9858 73.5854 90.4479 73.5854 86.0837C73.5854 81.7195 70.0475 78.1816 65.6833 78.1816C61.3191 78.1816 57.7812 81.7195 57.7812 86.0837C57.7812 90.4479 61.3191 93.9858 65.6833 93.9858Z" fill="black"/>
<path d="M135.038 99.1689C142.318 99.1689 148.219 93.2677 148.219 85.9883C148.219 78.7088 142.318 72.8076 135.038 72.8076C127.759 72.8076 121.857 78.7088 121.857 85.9883C121.857 93.2677 127.759 99.1689 135.038 99.1689Z" fill="white"/>
<path d="M134.833 93.9858C139.198 93.9858 142.736 90.4479 142.736 86.0837C142.736 81.7195 139.198 78.1816 134.833 78.1816C130.469 78.1816 126.931 81.7195 126.931 86.0837C126.931 90.4479 130.469 93.9858 134.833 93.9858Z" fill="black"/>
</svg>
