<svg width="200" height="200" viewBox="0 0 200 200" fill="none" xmlns="http://www.w3.org/2000/svg">
<mask id="path-1-outside-1_762_1883" maskUnits="userSpaceOnUse" x="19" y="24.5459" width="162" height="153" fill="black">
<rect fill="white" x="19" y="24.5459" width="162" height="153"/>
<path d="M100 30.5459C141.421 30.5459 175 58.4316 175 99.7529C175 141.074 141.421 171.454 100 171.454C58.5786 171.454 25 141.074 25 99.7529C25.0001 58.4316 58.5787 30.5459 100 30.5459Z"/>
</mask>
<path d="M100 30.5459C141.421 30.5459 175 58.4316 175 99.7529C175 141.074 141.421 171.454 100 171.454C58.5786 171.454 25 141.074 25 99.7529C25.0001 58.4316 58.5787 30.5459 100 30.5459Z" fill="#F5DB74"/>
<path d="M175 99.7529L181 99.7529L181 99.7529L175 99.7529ZM25 99.7529L19 99.7529V99.7529H25ZM100 30.5459V36.5459C138.756 36.5459 169 62.3585 169 99.7529L175 99.7529L181 99.7529C181 54.5047 144.087 24.5459 100 24.5459V30.5459ZM175 99.7529H169C169 137.417 138.462 165.454 100 165.454V171.454V177.454C144.381 177.454 181 144.731 181 99.7529H175ZM100 171.454V165.454C61.5382 165.454 31 137.417 31 99.7529H25H19C19 144.731 55.6191 177.454 100 177.454V171.454ZM25 99.7529L31 99.7529C31 62.3585 61.2439 36.5459 100 36.5459V30.5459V24.5459C55.9134 24.5459 19.0001 54.5047 19 99.7529L25 99.7529Z" fill="white" mask="url(#path-1-outside-1_762_1883)"/>
<path d="M100 171.455C141.421 171.455 175 141.074 175 99.753C175 58.4316 141.421 30.5455 100 30.5455C58.5786 30.5455 25 58.4316 25 99.753C25 141.074 58.5786 171.455 100 171.455Z" fill="#4D8DCB"/>
<path d="M134.996 71.6861C128.848 72.4416 124.476 78.0381 125.232 84.1861C125.987 90.3342 131.584 94.7057 137.732 93.9502C143.88 93.1947 148.251 87.5982 147.496 81.4502C146.74 75.3021 141.144 70.9306 134.996 71.6861Z" fill="white"/>
<path d="M137.112 75.4067C133.836 75.8094 131.506 78.7919 131.908 82.0683C132.311 85.3448 135.294 87.6745 138.57 87.2719C141.847 86.8692 144.176 83.8867 143.774 80.6103C143.371 77.3338 140.388 75.0041 137.112 75.4067Z" fill="#040000"/>
<path d="M62.2684 71.6861C56.1203 72.4416 51.7488 78.0381 52.5043 84.1861C53.2598 90.3342 58.8563 94.7057 65.0043 93.9502C71.1524 93.1947 75.5239 87.5982 74.7684 81.4502C74.0129 75.3021 68.4164 70.9306 62.2684 71.6861Z" fill="white"/>
<path d="M64.3847 75.4067C61.1082 75.8094 58.7785 78.7919 59.1812 82.0683C59.5838 85.3448 62.5663 87.6745 65.8428 87.2719C69.1192 86.8692 71.4489 83.8867 71.0463 80.6103C70.6437 77.3338 67.6612 75.0041 64.3847 75.4067Z" fill="#040000"/>
<path d="M96.9302 103.448L88.5116 71.4595C88.4709 71.2698 88.4243 71.086 88.3894 70.8903C88.0517 68.7914 88.9133 66.5383 90.5901 65.222C91.0442 64.8662 91.5507 64.5816 92.0863 64.38C92.4415 64.2377 92.8141 64.1606 93.1867 64.0776C93.3788 64.0539 93.5651 64.0243 93.7572 64.0124C95.8415 63.8701 97.9607 64.9611 99.0786 66.7932C99.2823 67.1253 99.4512 67.4751 99.5851 67.8368C99.6549 68.0206 99.7015 68.2044 99.7597 68.3941L108.801 102.754C108.906 103.258 108.953 103.382 108.988 103.904L108.993 104.023C109.028 104.758 108.924 105.499 108.691 106.199C108.528 106.691 108.452 106.798 108.219 107.254L95.859 129.038C95.7542 129.198 95.661 129.364 95.5446 129.524C94.4326 131.102 92.5288 132.062 90.625 131.997C88.5407 131.926 86.5321 130.633 85.5948 128.688C84.9195 127.295 84.8147 125.629 85.3037 124.158C85.4667 123.672 85.5424 123.56 85.7753 123.103L96.9302 103.448Z" fill="#F5DB74"/>
<rect x="153" y="102" width="17" height="8" rx="4" fill="#2A547D"/>
<rect x="30" y="102" width="17" height="8" rx="4" fill="#2A547D"/>
<rect x="105" y="146" width="17" height="8" rx="4" transform="rotate(90 105 146)" fill="#2A547D"/>
<rect x="105" y="36" width="17" height="8" rx="4" transform="rotate(90 105 36)" fill="#2A547D"/>
</svg>
