<svg width="200" height="200" viewBox="0 0 200 200" fill="none" xmlns="http://www.w3.org/2000/svg">
<mask id="path-1-outside-1_1347_2794" maskUnits="userSpaceOnUse" x="21.9102" y="11.708" width="156" height="176" fill="black">
<rect fill="white" x="21.9102" y="11.708" width="156" height="176"/>
<path d="M97.5605 20.7852C98.7804 18.6659 101.57 18.0182 103.545 19.5488C116.733 29.4981 161 66.8797 161 119.625C161 155.123 131.604 183.675 96.1084 181.556C59.6252 179.377 34.6449 144.291 39.3506 107.616C42.1972 85.3052 52.6536 66.1728 64.04 51.3379C66.0153 48.7477 68.0485 69.587 70.082 67.291C72.116 64.9351 90.9955 32.2649 97.5605 20.7852ZM47.2578 38.6514C48.1333 38.2436 49.0551 39.2396 48.6309 40.1074C46.9267 43.5935 44.2661 50.0348 43.9355 56.8203C43.0311 68.4091 31.6466 68.5339 29.459 62.0166C27.7001 57.4416 29.3087 47.0199 47.2578 38.6514ZM153.837 43.6982C153.567 42.9334 154.264 42.1627 155.043 42.3906C169.626 46.6606 171.866 55.8612 171.199 60.2275C170.332 66.6978 159.843 69.1565 157.909 58.8428C156.78 52.4814 154.85 46.5656 153.837 43.6982ZM62.7158 26.0039C65.4379 25.1961 70.9452 26.2592 75.7441 36.4229C76.1652 37.3152 75.0831 38.2512 74.2002 37.8105C72.0989 36.7618 69.0463 35.5427 65.793 35.2607C59.1092 34.5893 59.1068 27.5075 62.7158 26.0039Z"/>
</mask>
<path d="M97.5605 20.7852C98.7804 18.6659 101.57 18.0182 103.545 19.5488C116.733 29.4981 161 66.8797 161 119.625C161 155.123 131.604 183.675 96.1084 181.556C59.6252 179.377 34.6449 144.291 39.3506 107.616C42.1972 85.3052 52.6536 66.1728 64.04 51.3379C66.0153 48.7477 68.0485 69.587 70.082 67.291C72.116 64.9351 90.9955 32.2649 97.5605 20.7852ZM47.2578 38.6514C48.1333 38.2436 49.0551 39.2396 48.6309 40.1074C46.9267 43.5935 44.2661 50.0348 43.9355 56.8203C43.0311 68.4091 31.6466 68.5339 29.459 62.0166C27.7001 57.4416 29.3087 47.0199 47.2578 38.6514ZM153.837 43.6982C153.567 42.9334 154.264 42.1627 155.043 42.3906C169.626 46.6606 171.866 55.8612 171.199 60.2275C170.332 66.6978 159.843 69.1565 157.909 58.8428C156.78 52.4814 154.85 46.5656 153.837 43.6982ZM62.7158 26.0039C65.4379 25.1961 70.9452 26.2592 75.7441 36.4229C76.1652 37.3152 75.0831 38.2512 74.2002 37.8105C72.0989 36.7618 69.0463 35.5427 65.793 35.2607C59.1092 34.5893 59.1068 27.5075 62.7158 26.0039Z" fill="#F47A44"/>
<path d="M97.5605 20.7852L92.3605 17.792C92.3577 17.7968 92.3549 17.8017 92.3521 17.8065L97.5605 20.7852ZM103.545 19.5488L99.8699 24.2916C99.8903 24.3074 99.9108 24.3231 99.9314 24.3386L103.545 19.5488ZM161 119.625H167V119.625L161 119.625ZM96.1084 181.556L95.7508 187.545H95.7508L96.1084 181.556ZM39.3506 107.616L45.3018 108.38L45.3023 108.376L39.3506 107.616ZM64.04 51.3379L68.7997 54.9911C68.8035 54.9861 68.8073 54.9811 68.8111 54.9762L64.04 51.3379ZM70.082 67.291L74.5736 71.2691C74.5904 71.2502 74.607 71.2312 74.6236 71.212L70.082 67.291ZM47.2578 38.6514L44.7246 33.2123L44.7224 33.2134L47.2578 38.6514ZM48.6309 40.1074L54.0213 42.7425L54.0213 42.7425L48.6309 40.1074ZM43.9355 56.8203L49.9174 57.2872C49.9219 57.2289 49.9256 57.1706 49.9284 57.1123L43.9355 56.8203ZM29.459 62.0166L35.1471 60.1073C35.1196 60.0254 35.0904 59.9441 35.0594 59.8635L29.459 62.0166ZM153.837 43.6982L159.494 41.6992L159.494 41.6992L153.837 43.6982ZM155.043 42.3906L156.729 36.6324L156.729 36.6324L155.043 42.3906ZM171.199 60.2275L165.268 59.3213C165.263 59.3576 165.257 59.3939 165.252 59.4302L171.199 60.2275ZM157.909 58.8428L152.002 59.8916C152.005 59.9106 152.008 59.9297 152.012 59.9487L157.909 58.8428ZM62.7158 26.0039L61.0088 20.2518C60.805 20.3123 60.6046 20.3836 60.4083 20.4654L62.7158 26.0039ZM75.7441 36.4229L81.1705 33.8626L81.1698 33.8611L75.7441 36.4229ZM74.2002 37.8105L76.8796 32.442L76.8796 32.442L74.2002 37.8105ZM65.793 35.2607L65.1932 41.2307C65.2204 41.2334 65.2476 41.236 65.2749 41.2383L65.793 35.2607ZM97.5605 20.7852L102.761 23.7783C102.268 24.6338 100.933 25.1151 99.8699 24.2916L103.545 19.5488L107.22 14.806C102.207 10.9214 95.2926 12.698 92.3605 17.792L97.5605 20.7852ZM103.545 19.5488L99.9314 24.3386C106.265 29.1172 120.144 40.5535 132.395 57.1075C144.651 73.669 155 94.9697 155 119.625L161 119.625L167 119.625C167 91.5349 155.215 67.7723 142.041 49.9693C128.861 32.1588 114.012 19.9297 107.158 14.759L103.545 19.5488ZM161 119.625H155C155 151.777 128.407 177.473 96.466 175.566L96.1084 181.556L95.7508 187.545C134.802 189.876 167 158.469 167 119.625H161ZM96.1084 181.556L96.466 175.566C64.0046 173.628 40.9644 142.185 45.3018 108.38L39.3506 107.616L33.3994 106.853C28.3255 146.398 55.2459 185.126 95.7508 187.545L96.1084 181.556ZM39.3506 107.616L45.3023 108.376C47.9711 87.4591 57.8117 69.307 68.7997 54.9911L64.04 51.3379L59.2804 47.6847C47.4956 63.0386 36.4234 83.1513 33.3988 106.857L39.3506 107.616ZM64.04 51.3379L68.8111 54.9762C68.3942 55.5229 66.7739 57.3207 63.9386 57.0968C61.4926 56.9036 60.242 55.3063 60.0595 55.0733C59.5742 54.4535 59.5596 54.0901 59.8201 54.8994C60.2116 56.1153 60.648 58.0724 61.1787 60.4904C61.6585 62.6767 62.2296 65.3079 62.8418 67.2266C63.095 68.0202 63.5902 69.4968 64.4881 70.7161C64.8713 71.2365 66.14 72.8598 68.5035 73.3411C71.4978 73.9509 73.6354 72.3285 74.5736 71.2691L70.082 67.291L65.5904 63.3129C66.2744 62.5406 68.1579 61.0244 70.898 61.5824C73.0074 62.012 74.022 63.4255 74.1511 63.6008C74.5408 64.1301 74.5281 64.3755 74.2739 63.5788C73.8713 62.3168 73.4292 60.3306 72.8997 57.9178C72.421 55.7368 71.8516 53.1132 71.2428 51.222C71.0032 50.4777 70.4897 48.9291 69.5072 47.6745C69.0761 47.124 67.5773 45.3468 64.8835 45.1341C61.8004 44.8905 59.9328 46.8291 59.269 47.6996L64.04 51.3379ZM70.082 67.291L74.6236 71.212C75.2304 70.5091 76.0043 69.31 76.6445 68.3005C77.4024 67.1053 78.3582 65.5484 79.4462 63.7472C81.6259 60.1386 84.3979 55.4476 87.2999 50.4912C93.1068 40.5735 99.4782 29.518 102.769 23.7638L97.5605 20.7852L92.3521 17.8065C89.0778 23.5321 82.727 34.5516 76.9444 44.4279C74.0517 49.3685 71.312 54.0043 69.1747 57.5427C68.1041 59.315 67.2 60.7866 66.5104 61.8739C65.7032 63.1468 65.4421 63.4839 65.5405 63.37L70.082 67.291ZM47.2578 38.6514L49.791 44.0904C47.4582 45.1769 45.1994 44.228 44.051 43.0009C42.9256 41.7985 42.1842 39.6331 43.2404 37.4724L48.6309 40.1074L54.0213 42.7425C55.5018 39.7139 54.5115 36.6166 52.8125 34.8012C51.0904 32.9611 47.9329 31.7181 44.7246 33.2123L47.2578 38.6514ZM48.6309 40.1074L43.2405 37.4723C41.4062 41.2245 38.3321 48.535 37.9427 56.5283L43.9355 56.8203L49.9284 57.1123C50.2002 51.5347 52.4472 45.9624 54.0213 42.7425L48.6309 40.1074ZM43.9355 56.8203L37.9537 56.3535C37.804 58.2727 37.264 59.2516 36.91 59.6951C36.562 60.1311 36.2206 60.2796 35.9693 60.3313C35.673 60.3923 35.426 60.3341 35.289 60.2627C35.1902 60.2112 35.1698 60.1751 35.1471 60.1073L29.459 62.0166L23.7709 63.9259C25.9685 70.473 32.6301 73.2698 38.3877 72.0851C44.7063 70.785 49.2968 65.2386 49.9174 57.2872L43.9355 56.8203ZM29.459 62.0166L35.0594 59.8635C34.9307 59.5289 33.2402 51.807 49.7932 44.0894L47.2578 38.6514L44.7224 33.2134C25.3772 42.2329 20.4695 55.3543 23.8586 64.1697L29.459 62.0166ZM153.837 43.6982L159.494 41.6992C160.758 45.2748 157.548 49.3759 153.357 48.1489L155.043 42.3906L156.729 36.6324C150.981 34.9494 146.376 40.5921 148.18 45.6973L153.837 43.6982ZM155.043 42.3906L153.357 48.1489C159.583 49.9718 162.506 52.6306 163.879 54.6482C165.309 56.7494 165.377 58.6063 165.268 59.3213L171.199 60.2275L177.13 61.1337C177.688 57.4824 176.97 52.5559 173.801 47.8977C170.574 43.1559 165.086 39.0794 156.729 36.6324L155.043 42.3906ZM171.199 60.2275L165.252 59.4302C165.247 59.4698 165.232 59.5425 165.11 59.6474C164.961 59.776 164.783 59.8307 164.683 59.8353C164.649 59.8368 164.677 59.8453 164.648 59.8197C164.597 59.7748 164.102 59.3121 163.806 57.7369L157.909 58.8428L152.012 59.9487C152.684 63.5303 154.225 66.6279 156.712 68.8205C159.22 71.0325 162.287 71.9557 165.225 71.823C170.783 71.572 176.286 67.4385 177.146 61.0249L171.199 60.2275ZM157.909 58.8428L163.817 57.794C162.605 50.9711 160.557 44.7067 159.494 41.6992L153.837 43.6982L148.18 45.6972C149.143 48.4245 150.954 53.9918 152.002 59.8916L157.909 58.8428ZM62.7158 26.0039L64.4228 31.756C64.0224 31.8748 64.3191 31.5974 65.2915 32.1997C66.3252 32.84 68.2383 34.579 70.3185 38.9846L75.7441 36.4229L81.1698 33.8611C75.7548 22.3927 67.8145 18.2322 61.0088 20.2518L62.7158 26.0039ZM75.7441 36.4229L70.3178 38.9831C69.1352 36.4767 70.3021 34.1699 71.485 33.1232C72.6247 32.1147 74.7264 31.3674 76.8796 32.442L74.2002 37.8105L71.5208 43.179C74.5569 44.6943 77.6411 43.6994 79.4373 42.1099C81.2767 40.4823 82.7741 37.2613 81.1705 33.8626L75.7441 36.4229ZM74.2002 37.8105L76.8796 32.442C74.4516 31.2303 70.6264 29.6572 66.3111 29.2832L65.793 35.2607L65.2749 41.2383C67.4662 41.4283 69.7462 42.2934 71.5208 43.1791L74.2002 37.8105ZM65.793 35.2607L66.3927 29.2908C65.7913 29.2304 65.7728 29.0826 65.9605 29.2487C66.1366 29.4045 66.2522 29.6281 66.2908 29.833C66.3215 29.9962 66.3173 30.2072 66.1959 30.474C66.066 30.7597 65.7189 31.2527 65.0233 31.5424L62.7158 26.0039L60.4083 20.4654C55.3674 22.5655 53.7235 27.9444 54.4984 32.0557C55.4091 36.8876 59.3851 40.6472 65.1932 41.2307L65.793 35.2607Z" fill="white" mask="url(#path-1-outside-1_1347_2794)"/>
<path d="M161 119.625C161 155.123 131.604 183.675 96.1082 181.556C59.6251 179.377 34.6444 144.291 39.3501 107.616C42.1967 85.305 52.6537 66.1725 64.0402 51.3375C66.0155 48.7473 68.0486 69.5871 70.082 67.2911C72.1155 64.9362 90.996 32.264 97.5609 20.7845C98.7808 18.6652 101.569 18.0177 103.544 19.5483C116.732 29.4971 161 66.8791 161 119.625Z" fill="#DF6128"/>
<path d="M143.299 129.973C143.299 153.496 122.82 172.405 97.91 171.551C71.0242 170.64 52.581 146.035 56.5331 120.689C62.2217 84.3519 99.5268 61 99.5268 61C99.5268 61 143.299 88.3956 143.299 129.973Z" fill="#F47A44"/>
<path d="M65 109C71.0751 109 76 104.075 76 98C76 91.9249 71.0751 87 65 87C58.9249 87 54 91.9249 54 98C54 104.075 58.9249 109 65 109Z" fill="white"/>
<path d="M64.9539 104.04C68.315 104.04 71.0397 101.315 71.0397 97.9544C71.0397 94.5933 68.315 91.8687 64.9539 91.8687C61.5928 91.8687 58.8682 94.5933 58.8682 97.9544C58.8682 101.315 61.5928 104.04 64.9539 104.04Z" fill="black"/>
<path d="M131 107C137.075 107 142 102.075 142 96C142 89.9249 137.075 85 131 85C124.925 85 120 89.9249 120 96C120 102.075 124.925 107 131 107Z" fill="white"/>
<path d="M130.954 102.04C134.315 102.04 137.04 99.3155 137.04 95.9544C137.04 92.5933 134.315 89.8687 130.954 89.8687C127.593 89.8687 124.868 92.5933 124.868 95.9544C124.868 99.3155 127.593 102.04 130.954 102.04Z" fill="black"/>
<path d="M107.609 107.032C106.869 112.3 99.6743 119.591 94.4178 118.851C89.1495 118.111 84.2701 109.101 85.0223 103.833C85.7745 98.5656 89.8179 94.7844 97.6664 95.897C105.61 97.0163 108.362 101.765 107.609 107.032Z" fill="#FFAC87"/>
<path d="M43.9352 56.82C44.2658 50.0346 46.9264 43.5934 48.6306 40.1074C49.0549 39.2394 48.1329 38.2433 47.2573 38.6516C29.3082 47.0202 27.7001 57.4413 29.459 62.0163C31.6464 68.5339 43.031 68.4092 43.9352 56.82Z" fill="#F47A44"/>
<path d="M157.909 58.8422C156.78 52.4804 154.849 46.5646 153.836 43.6975C153.566 42.9327 154.264 42.1622 155.042 42.3902C169.626 46.6601 171.866 55.8609 171.199 60.2272C170.331 66.6975 159.843 69.1562 157.909 58.8422Z" fill="#F47A44"/>
<path d="M65.7924 35.2601C69.046 35.542 72.099 36.7612 74.2004 37.81C75.0834 38.2507 76.1652 37.3148 75.7438 36.4224C70.9447 26.2583 65.4374 25.1962 62.7155 26.0042C59.1065 27.5078 59.1086 34.5886 65.7924 35.2601Z" fill="#F47A44"/>
</svg>
