<svg width="200" height="200" viewBox="0 0 200 200" fill="none" xmlns="http://www.w3.org/2000/svg">
<mask id="path-1-outside-1_1347_4873" maskUnits="userSpaceOnUse" x="15.0786" y="14" width="170" height="172" fill="black">
<rect fill="white" x="15.0786" y="14" width="170" height="172"/>
<path d="M76.6587 29.8213C97.5226 11.0005 120.666 23.9748 124.7 29.8213C156.61 31.9252 158.013 61.0292 158.714 64.5371C162.602 65.509 178.758 72.7657 178.986 91.5596C179.011 93.1447 178.922 94.8123 178.703 96.5654C178.351 99.3804 177.705 101.859 176.825 104.041C176.817 104.022 176.807 104.003 176.799 103.983C170.637 119.139 153.042 119.942 142.935 119.942C139.288 140.141 121.719 140.281 114.881 140.982C114.081 141.065 113.272 141.145 112.44 141.224C114.422 152.147 117.24 168.461 117.48 173.016C117.761 178.346 114.324 179.679 112.571 179.679C104.272 179.679 86.1302 179.398 79.9585 178.275C74.0758 172.392 77.2644 155.137 80.522 141.904C64.6027 140.453 57.7674 127.564 56.3198 120.995C49.7738 123.216 34.2281 123.238 24.4097 105.565C24.1737 105.141 23.9523 104.716 23.7437 104.291C23.7345 104.312 23.7254 104.333 23.7163 104.354C21.8662 100.568 21.086 96.7953 21.0796 93.1533C20.9705 75.9259 38.2488 61.5811 41.9429 62.4336C46.1509 31.9256 72.8013 28.4186 76.6587 29.8213Z"/>
</mask>
<path d="M76.6587 29.8213C97.5226 11.0005 120.666 23.9748 124.7 29.8213C156.61 31.9252 158.013 61.0292 158.714 64.5371C162.602 65.509 178.758 72.7657 178.986 91.5596C179.011 93.1447 178.922 94.8123 178.703 96.5654C178.351 99.3804 177.705 101.859 176.825 104.041C176.817 104.022 176.807 104.003 176.799 103.983C170.637 119.139 153.042 119.942 142.935 119.942C139.288 140.141 121.719 140.281 114.881 140.982C114.081 141.065 113.272 141.145 112.44 141.224C114.422 152.147 117.24 168.461 117.48 173.016C117.761 178.346 114.324 179.679 112.571 179.679C104.272 179.679 86.1302 179.398 79.9585 178.275C74.0758 172.392 77.2644 155.137 80.522 141.904C64.6027 140.453 57.7674 127.564 56.3198 120.995C49.7738 123.216 34.2281 123.238 24.4097 105.565C24.1737 105.141 23.9523 104.716 23.7437 104.291C23.7345 104.312 23.7254 104.333 23.7163 104.354C21.8662 100.568 21.086 96.7953 21.0796 93.1533C20.9705 75.9259 38.2488 61.5811 41.9429 62.4336C46.1509 31.9256 72.8013 28.4186 76.6587 29.8213Z" fill="#C97D3F"/>
<path d="M76.6587 29.8213L74.6083 35.4601C76.6945 36.2187 79.0292 35.7634 80.6776 34.2765L76.6587 29.8213ZM124.7 29.8213L119.761 33.2286C120.802 34.7375 122.476 35.6877 124.305 35.8083L124.7 29.8213ZM158.714 64.5371L152.831 65.7134C153.285 67.9873 155.01 69.7956 157.259 70.358L158.714 64.5371ZM178.986 91.5596L172.986 91.6323C172.986 91.6395 172.986 91.6466 172.987 91.6538L178.986 91.5596ZM178.703 96.5654L184.656 97.3097L184.656 97.3096L178.703 96.5654ZM176.825 104.041L171.293 106.365C172.235 108.606 174.436 110.058 176.867 110.041C179.298 110.024 181.479 108.541 182.389 106.287L176.825 104.041ZM176.799 103.983L182.326 101.647C181.381 99.4122 179.183 97.9667 176.758 97.9835C174.332 98.0004 172.155 99.4763 171.241 101.723L176.799 103.983ZM142.935 119.942L142.935 113.942C140.033 113.942 137.546 116.02 137.031 118.876L142.935 119.942ZM114.881 140.982L114.269 135.014L114.269 135.014L114.881 140.982ZM112.44 141.224L111.874 135.25C110.201 135.409 108.672 136.261 107.658 137.6C106.643 138.939 106.236 140.642 106.536 142.295L112.44 141.224ZM117.48 173.016L123.472 172.7V172.7L117.48 173.016ZM112.571 179.679V185.679H112.571L112.571 179.679ZM79.9585 178.275L75.7157 182.518C76.5787 183.381 77.6844 183.96 78.8852 184.179L79.9585 178.275ZM80.522 141.904L86.348 143.338C86.7659 141.641 86.4226 139.845 85.4079 138.422C84.3931 136.998 82.8079 136.088 81.0668 135.929L80.522 141.904ZM56.3198 120.995L62.1792 119.704C61.8121 118.038 60.7529 116.607 59.2668 115.769C57.7806 114.931 56.0079 114.765 54.3922 115.313L56.3198 120.995ZM24.4097 105.565L19.1647 108.479L19.1647 108.479L24.4097 105.565ZM23.7437 104.291L29.1286 101.645C28.0997 99.551 25.9505 98.2435 23.6181 98.2923C21.2857 98.3411 19.1931 99.7374 18.2527 101.872L23.7437 104.291ZM23.7163 104.354L18.3256 106.988C19.3518 109.088 21.5041 110.401 23.841 110.352C26.1778 110.304 28.2737 108.903 29.2118 106.762L23.7163 104.354ZM21.0796 93.1533L27.0796 93.1428C27.0796 93.1336 27.0795 93.1245 27.0795 93.1153L21.0796 93.1533ZM41.9429 62.4336L40.5937 68.2799C42.2354 68.6588 43.9607 68.33 45.3479 67.3738C46.7351 66.4177 47.6564 64.9224 47.8866 63.2534L41.9429 62.4336ZM76.6587 29.8213L80.6776 34.2765C89.5773 26.2482 98.6387 25.1477 105.915 26.4738C109.64 27.1528 112.927 28.4816 115.456 29.9219C118.136 31.4481 119.475 32.8133 119.761 33.2286L124.7 29.8213L129.638 26.414C127.908 23.906 124.841 21.4571 121.395 19.4944C117.798 17.4458 113.239 15.6111 108.066 14.6683C97.5463 12.7509 84.6039 14.5736 72.6398 25.3661L76.6587 29.8213ZM124.7 29.8213L124.305 35.8083C138.03 36.7132 144.627 43.1917 148.164 49.5642C151.993 56.4633 152.305 63.0836 152.831 65.7134L158.714 64.5371L164.598 63.3608C164.602 63.3819 164.595 63.3502 164.576 63.2266C164.559 63.111 164.538 62.9632 164.51 62.7646C164.457 62.3866 164.385 61.8481 164.296 61.2474C164.115 60.0232 163.853 58.4356 163.446 56.6177C162.636 53.0012 161.232 48.3826 158.656 43.7412C153.338 34.1588 143.279 25.0333 125.094 23.8343L124.7 29.8213ZM158.714 64.5371L157.259 70.358C158.261 70.6084 162.343 72.1891 166.111 75.7346C169.707 79.1186 172.896 84.1544 172.986 91.6323L178.986 91.5596L184.985 91.4869C184.848 80.1708 179.845 72.1813 174.334 66.9955C168.995 61.9713 163.055 59.4377 160.17 58.7163L158.714 64.5371ZM178.986 91.5596L172.987 91.6538C173.007 92.9477 172.935 94.335 172.749 95.8213L178.703 96.5654L184.656 97.3096C184.909 95.2895 185.015 93.3417 184.985 91.4653L178.986 91.5596ZM178.703 96.5654L172.749 95.8212C172.456 98.1678 171.93 100.137 171.261 101.795L176.825 104.041L182.389 106.287C183.481 103.581 184.246 100.593 184.656 97.3097L178.703 96.5654ZM176.825 104.041L182.356 101.717C182.336 101.667 182.318 101.626 182.306 101.599C182.294 101.574 182.284 101.552 182.283 101.548C182.281 101.544 182.282 101.546 182.283 101.548C182.284 101.55 182.286 101.556 182.29 101.564C182.297 101.579 182.31 101.609 182.326 101.647L176.799 103.983L171.273 106.32C171.293 106.368 171.31 106.407 171.321 106.432C171.327 106.444 171.332 106.455 171.335 106.462C171.338 106.469 171.341 106.475 171.341 106.476C171.342 106.479 171.341 106.476 171.34 106.473C171.338 106.47 171.335 106.463 171.331 106.454C171.324 106.436 171.31 106.405 171.293 106.365L176.825 104.041ZM176.799 103.983L171.241 101.723C169.012 107.207 164.774 110.22 159.488 111.941C154.027 113.72 147.926 113.942 142.935 113.942L142.935 119.942L142.935 125.942C148.051 125.942 155.802 125.763 163.205 123.351C170.784 120.883 178.425 115.916 182.357 106.243L176.799 103.983ZM142.935 119.942L137.031 118.876C135.573 126.948 131.61 130.46 127.578 132.332C123.021 134.447 118.194 134.611 114.269 135.014L114.881 140.982L115.494 146.951C118.406 146.652 125.783 146.395 132.631 143.216C140.005 139.792 146.65 133.135 148.84 121.008L142.935 119.942ZM114.881 140.982L114.269 135.014C113.482 135.094 112.689 135.173 111.874 135.25L112.44 141.224L113.006 147.197C113.855 147.116 114.679 147.035 115.494 146.951L114.881 140.982ZM112.44 141.224L106.536 142.295C107.524 147.738 108.717 154.51 109.692 160.475C110.693 166.604 111.39 171.455 111.488 173.331L117.48 173.016L123.472 172.7C123.331 170.022 122.498 164.438 121.535 158.541C120.545 152.48 119.338 145.633 118.344 140.153L112.44 141.224ZM117.48 173.016L111.488 173.331C111.524 174.009 111.428 174.286 111.423 174.3C111.42 174.309 111.431 174.274 111.472 174.212C111.512 174.149 111.567 174.081 111.637 174.014C111.777 173.879 111.923 173.801 112.04 173.758C112.135 173.723 112.294 173.679 112.571 173.679L112.571 179.679L112.571 185.679C114.74 185.679 117.608 184.912 119.939 182.678C122.464 180.259 123.686 176.777 123.472 172.7L117.48 173.016ZM112.571 179.679V173.679C108.473 173.679 101.93 173.609 95.6659 173.401C89.2271 173.187 83.6052 172.84 81.0318 172.372L79.9585 178.275L78.8852 184.179C82.4835 184.833 89.0182 185.187 95.2679 185.395C101.692 185.608 108.37 185.679 112.571 185.679V179.679ZM79.9585 178.275L84.2013 174.033C83.9415 173.773 83.3789 172.948 83.0117 170.908C82.6555 168.93 82.582 166.352 82.798 163.265C83.2297 157.095 84.7374 149.881 86.348 143.338L80.522 141.904L74.6959 140.47C73.049 147.16 71.3336 155.191 70.8273 162.427C70.5742 166.044 70.603 169.71 71.2016 173.035C71.7893 176.298 73.0342 179.836 75.7157 182.518L79.9585 178.275ZM80.522 141.904L81.0668 135.929C68.7147 134.803 63.3053 124.814 62.1792 119.704L56.3198 120.995L50.4604 122.286C52.2295 130.314 60.4908 146.103 79.9771 147.88L80.522 141.904ZM56.3198 120.995L54.3922 115.313C50.0379 116.79 37.7989 117.311 29.6546 102.652L24.4097 105.565L19.1647 108.479C30.6573 129.166 49.5096 129.641 58.2474 126.677L56.3198 120.995ZM24.4097 105.565L29.6546 102.652C29.4703 102.32 29.2953 101.984 29.1286 101.645L23.7437 104.291L18.3587 106.937C18.6092 107.447 18.8772 107.962 19.1647 108.479L24.4097 105.565ZM23.7437 104.291L18.2527 101.872C18.244 101.892 18.2361 101.91 18.2312 101.922C18.2251 101.936 18.2232 101.94 18.2208 101.945L23.7163 104.354L29.2118 106.762C29.236 106.707 29.2253 106.731 29.2346 106.71L23.7437 104.291ZM23.7163 104.354L29.107 101.719C27.6698 98.7781 27.0844 95.9066 27.0796 93.1428L21.0796 93.1533L15.0796 93.1639C15.0876 97.684 16.0626 102.357 18.3256 106.988L23.7163 104.354ZM21.0796 93.1533L27.0795 93.1153C27.0374 86.4659 30.4085 79.9187 34.6649 74.8898C36.7536 72.4219 38.8801 70.5339 40.5466 69.3691C41.3911 68.7788 41.9842 68.4678 42.2903 68.3401C42.8863 68.0917 42.0615 68.6187 40.5937 68.2799L41.9429 62.4336L43.292 56.5872C40.9007 56.0354 38.7279 56.8242 37.6723 57.2643C36.3269 57.8253 34.965 58.6297 33.6718 59.5335C31.0631 61.357 28.1842 63.972 25.5052 67.1373C20.2262 73.3745 15.0127 82.6133 15.0797 93.1913L21.0796 93.1533ZM41.9429 62.4336L47.8866 63.2534C49.7245 49.9287 56.2862 42.9749 62.4757 39.3318C65.6645 37.4549 68.8373 36.4155 71.3516 35.9233C72.6087 35.6771 73.6333 35.5812 74.3473 35.5675C75.2563 35.55 75.1917 35.6722 74.6083 35.4601L76.6587 29.8213L78.7091 24.1825C77.1613 23.6197 75.4202 23.5447 74.1169 23.5697C72.6187 23.5985 70.8956 23.7847 69.046 24.1468C65.3469 24.871 60.8708 26.3521 56.3888 28.9901C47.2368 34.3769 38.3693 44.4305 35.9991 61.6138L41.9429 62.4336Z" fill="white" mask="url(#path-1-outside-1_1347_4873)"/>
<path d="M142.935 119.943C139.288 140.141 121.719 140.281 114.881 140.983C108.044 141.684 100.644 142.315 82.9707 142.035C65.2971 141.754 57.8396 127.891 56.3201 120.995C49.7742 123.216 34.2279 123.239 24.4093 105.565C12.136 83.4733 37.3839 61.3813 41.9426 62.4333C46.1506 31.9253 72.8013 28.4187 76.6586 29.8213C97.5227 11.0003 120.667 23.975 124.7 29.8213C156.611 31.9253 158.013 61.0306 158.715 64.5373C162.923 65.5893 181.508 74.0053 178.703 96.448C175.897 118.891 154.507 119.943 142.935 119.943Z" fill="#4B98E6"/>
<path d="M76.6589 29.9385C97.523 11.1176 120.667 24.0921 124.7 29.9385C156.61 32.0425 158.013 61.147 158.715 64.6543C162.923 65.7063 181.508 74.1228 178.703 96.5654C178.351 99.3806 177.706 101.859 176.825 104.041C172.246 93.1399 161.747 88.5571 158.715 87.7988C158.013 84.2922 156.611 55.186 124.7 53.082C120.666 47.2356 97.5226 34.2618 76.6589 53.082C72.8016 51.6794 46.1512 55.1865 41.9431 85.6943C39.1622 85.0526 28.6813 93.0237 23.7166 104.354C13.1408 82.7136 37.4758 61.5199 41.9431 62.5508C46.1511 32.0428 72.8016 28.5358 76.6589 29.9385Z" fill="#79B6F3"/>
<path d="M108.976 72.6686C108.682 76.5569 103.426 82.2635 99.2418 81.9906C95.0576 81.7176 90.717 75.3801 91.0145 71.4919C91.3082 67.6036 94.2871 64.6298 100.531 65.0374C106.847 65.4521 109.273 68.7804 108.976 72.6686Z" fill="#EAC00F"/>
<path d="M62.92 80.84C67.2941 80.84 70.84 77.2941 70.84 72.92C70.84 68.5459 67.2941 65 62.92 65C58.5459 65 55 68.5459 55 72.92C55 77.2941 58.5459 80.84 62.92 80.84Z" fill="white"/>
<path d="M62.7973 77.7249C65.4196 77.7249 67.5455 75.5991 67.5455 72.9767C67.5455 70.3544 65.4196 68.2285 62.7973 68.2285C60.1749 68.2285 58.0491 70.3544 58.0491 72.9767C58.0491 75.5991 60.1749 77.7249 62.7973 77.7249Z" fill="black"/>
<path d="M134.92 80.84C139.294 80.84 142.84 77.2941 142.84 72.92C142.84 68.5459 139.294 65 134.92 65C130.546 65 127 68.5459 127 72.92C127 77.2941 130.546 80.84 134.92 80.84Z" fill="white"/>
<path d="M134.797 77.7249C137.42 77.7249 139.545 75.5991 139.545 72.9767C139.545 70.3544 137.42 68.2285 134.797 68.2285C132.175 68.2285 130.049 70.3544 130.049 72.9767C130.049 75.5991 132.175 77.7249 134.797 77.7249Z" fill="black"/>
<path d="M126.948 107.441C128.351 119.785 117.246 131.754 111.519 136.196C113.389 146.248 117.199 167.686 117.48 173.016C117.76 178.346 114.324 179.679 112.571 179.679C104.271 179.679 86.1303 179.398 79.9586 178.276C70.4905 168.808 84.5173 129.884 84.5173 125.676C73.9973 116.559 71.192 105.337 73.9973 101.831C76.8026 98.3239 82.4741 105.061 83.816 106.389C87.7041 110.239 91.5335 107.792 92.2627 104.979C94.7174 95.5112 97.1721 89.5498 102.081 89.5498C107.661 89.5498 106.96 108.143 107.661 111.649C108.363 115.156 112.601 116.34 114.324 113.052C122.039 98.3239 126.549 103.927 126.948 107.441Z" fill="#C97D3F"/>
</svg>
