<svg width="200" height="200" viewBox="0 0 200 200" fill="none" xmlns="http://www.w3.org/2000/svg">
<mask id="path-1-outside-1_1347_9372" maskUnits="userSpaceOnUse" x="20.001" y="31" width="160" height="137" fill="black">
<rect fill="white" x="20.001" y="31" width="160" height="137"/>
<path d="M110.901 38.1689C113.091 38.1308 115.859 37.5488 117.815 38.792C119.081 39.593 120.501 39.9413 121.85 40.5605C126.048 42.4926 130.437 44.0453 134.665 45.9258C138.475 47.62 142.247 49.3949 146.02 51.1699C149.531 52.8215 153.046 54.4754 156.558 56.127C158.092 56.8495 159.625 57.5705 161.126 58.3604C165.178 60.4966 168.827 63.1956 172.662 65.6729C174.273 66.714 173.831 68.2288 173.959 69.5303C174.123 71.1929 172.743 73.4975 172.178 75.0391C171.426 77.0833 170.66 79.1213 169.882 81.1543C168.322 85.2203 166.703 89.2643 165.026 93.2832C164.394 94.8023 163.744 96.3575 162.764 97.6904C161.646 99.2046 160.381 98.7265 158.797 98.1992C157.004 97.6023 155.173 97.0973 153.364 96.5498C150.479 95.5872 147.534 94.7796 144.624 93.8955C143.118 93.4377 140.237 91.8738 140.571 94.4902C141.314 100.282 141.31 106.258 141.579 112.092C141.866 118.317 142.111 124.544 142.317 130.773C142.566 138.288 142.755 145.817 142.373 153.332C142.252 155.722 142.963 159.287 140.284 160.407C138.366 161.211 136.105 160.806 134.088 160.84C129.979 160.909 125.87 160.97 121.762 161.018C113.544 161.112 105.327 161.163 97.1094 161.168C89.9535 161.172 82.7975 161.141 75.6416 161.076C72.0221 161.043 68.4025 161.002 64.7852 160.952C62.5435 160.921 57.7511 161.587 57.7822 158.04C57.7934 156.804 57.4769 155.607 57.4521 154.364C57.4207 152.805 57.3959 151.245 57.3779 149.686C57.3443 146.65 57.3396 143.611 57.3643 140.575C57.4293 132.557 57.692 124.544 58.0488 116.535C58.3899 108.852 58.5537 101.076 59.1865 93.4238C59.2379 92.7982 58.7691 92.691 58.1836 92.875C52.2303 94.7532 46.2544 96.5617 40.2832 98.3838C39.8098 98.5274 39.3225 98.6725 38.8311 98.6299C36.9733 98.4636 36.2435 96.6804 35.6377 95.2129C34.7738 93.1171 33.9125 91.0212 33.0576 88.9209C31.3499 84.7202 29.6758 80.5079 28.0938 76.2578C27.2814 74.0699 25.8141 71.0111 26.0205 68.4238C26.0632 67.8944 26.1753 67.3851 26.375 66.9072C27.3466 64.5982 30.0286 63.5596 32.0459 62.3838C35.3961 60.4338 38.8002 58.5776 42.2402 56.7959C49.1314 53.228 56.1728 49.9608 63.2637 46.8125C66.3827 45.428 69.511 44.066 72.6436 42.7129C75.5989 41.4338 78.6511 40.4577 81.584 39.1338C82.7485 38.6088 83.6911 38.5752 84.9141 38.5752C90.7169 38.5685 96.5197 38.4556 102.32 38.3389C105.181 38.2805 108.04 38.2206 110.901 38.1689ZM61.7549 156.897C61.8047 156.911 61.8595 156.923 61.9199 156.929C61.9293 156.93 61.9388 156.93 61.9482 156.931C61.9335 156.928 61.919 156.925 61.9043 156.924C61.8501 156.918 61.8005 156.909 61.7549 156.897Z"/>
</mask>
<path d="M110.901 38.1689C113.091 38.1308 115.859 37.5488 117.815 38.792C119.081 39.593 120.501 39.9413 121.85 40.5605C126.048 42.4926 130.437 44.0453 134.665 45.9258C138.475 47.62 142.247 49.3949 146.02 51.1699C149.531 52.8215 153.046 54.4754 156.558 56.127C158.092 56.8495 159.625 57.5705 161.126 58.3604C165.178 60.4966 168.827 63.1956 172.662 65.6729C174.273 66.714 173.831 68.2288 173.959 69.5303C174.123 71.1929 172.743 73.4975 172.178 75.0391C171.426 77.0833 170.66 79.1213 169.882 81.1543C168.322 85.2203 166.703 89.2643 165.026 93.2832C164.394 94.8023 163.744 96.3575 162.764 97.6904C161.646 99.2046 160.381 98.7265 158.797 98.1992C157.004 97.6023 155.173 97.0973 153.364 96.5498C150.479 95.5872 147.534 94.7796 144.624 93.8955C143.118 93.4377 140.237 91.8738 140.571 94.4902C141.314 100.282 141.31 106.258 141.579 112.092C141.866 118.317 142.111 124.544 142.317 130.773C142.566 138.288 142.755 145.817 142.373 153.332C142.252 155.722 142.963 159.287 140.284 160.407C138.366 161.211 136.105 160.806 134.088 160.84C129.979 160.909 125.87 160.97 121.762 161.018C113.544 161.112 105.327 161.163 97.1094 161.168C89.9535 161.172 82.7975 161.141 75.6416 161.076C72.0221 161.043 68.4025 161.002 64.7852 160.952C62.5435 160.921 57.7511 161.587 57.7822 158.04C57.7934 156.804 57.4769 155.607 57.4521 154.364C57.4207 152.805 57.3959 151.245 57.3779 149.686C57.3443 146.65 57.3396 143.611 57.3643 140.575C57.4293 132.557 57.692 124.544 58.0488 116.535C58.3899 108.852 58.5537 101.076 59.1865 93.4238C59.2379 92.7982 58.7691 92.691 58.1836 92.875C52.2303 94.7532 46.2544 96.5617 40.2832 98.3838C39.8098 98.5274 39.3225 98.6725 38.8311 98.6299C36.9733 98.4636 36.2435 96.6804 35.6377 95.2129C34.7738 93.1171 33.9125 91.0212 33.0576 88.9209C31.3499 84.7202 29.6758 80.5079 28.0938 76.2578C27.2814 74.0699 25.8141 71.0111 26.0205 68.4238C26.0632 67.8944 26.1753 67.3851 26.375 66.9072C27.3466 64.5982 30.0286 63.5596 32.0459 62.3838C35.3961 60.4338 38.8002 58.5776 42.2402 56.7959C49.1314 53.228 56.1728 49.9608 63.2637 46.8125C66.3827 45.428 69.511 44.066 72.6436 42.7129C75.5989 41.4338 78.6511 40.4577 81.584 39.1338C82.7485 38.6088 83.6911 38.5752 84.9141 38.5752C90.7169 38.5685 96.5197 38.4556 102.32 38.3389C105.181 38.2805 108.04 38.2206 110.901 38.1689ZM61.7549 156.897C61.8047 156.911 61.8595 156.923 61.9199 156.929C61.9293 156.93 61.9388 156.93 61.9482 156.931C61.9335 156.928 61.919 156.925 61.9043 156.924C61.8501 156.918 61.8005 156.909 61.7549 156.897Z" fill="black"/>
<path d="M110.901 38.1689L110.797 32.1699L110.793 32.1699L110.901 38.1689ZM117.815 38.792L114.598 43.8564L114.607 43.8618L117.815 38.792ZM121.85 40.5605L124.358 35.11L124.354 35.108L121.85 40.5605ZM134.665 45.9258L132.227 51.4079L132.227 51.4083L134.665 45.9258ZM146.02 51.1699L143.465 56.5989L143.466 56.5995L146.02 51.1699ZM156.558 56.127L159.113 50.6984L159.111 50.6974L156.558 56.127ZM161.126 58.3604L163.924 53.0526L163.92 53.0505L161.126 58.3604ZM172.662 65.6729L175.919 60.6335L175.918 60.633L172.662 65.6729ZM173.959 69.5303L167.988 70.1169L167.988 70.1185L173.959 69.5303ZM172.178 75.0391L177.809 77.1099L177.811 77.1056L172.178 75.0391ZM169.882 81.1543L175.484 83.303L175.485 83.3003L169.882 81.1543ZM165.026 93.2832L159.489 90.9735L159.488 90.9761L165.026 93.2832ZM162.764 97.6904L167.591 101.253L167.597 101.246L162.764 97.6904ZM158.797 98.1992L156.902 103.892L156.902 103.892L158.797 98.1992ZM153.364 96.5498L151.466 102.241L151.545 102.268L151.626 102.292L153.364 96.5498ZM144.624 93.8955L142.879 99.6361L142.88 99.6365L144.624 93.8955ZM140.571 94.4902L134.62 95.2508L134.62 95.2534L140.571 94.4902ZM141.579 112.092L147.573 111.815V111.815L141.579 112.092ZM142.317 130.773L136.321 130.972V130.972L142.317 130.773ZM142.373 153.332L136.381 153.028L136.381 153.028L142.373 153.332ZM140.284 160.407L137.97 154.871L137.967 154.873L140.284 160.407ZM134.088 160.84L133.988 154.841L133.986 154.841L134.088 160.84ZM121.762 161.018L121.831 167.017L121.762 161.018ZM97.1094 161.168L97.1061 155.168H97.1056L97.1094 161.168ZM75.6416 161.076L75.5858 167.076L75.587 167.076L75.6416 161.076ZM64.7852 160.952L64.7011 166.952L64.7033 166.952L64.7852 160.952ZM57.7822 158.04L51.7825 157.986L51.7825 157.987L57.7822 158.04ZM57.4521 154.364L63.451 154.245L63.4509 154.243L57.4521 154.364ZM57.3779 149.686L51.3783 149.752L51.3783 149.755L57.3779 149.686ZM57.3643 140.575L63.3641 140.624V140.624L57.3643 140.575ZM58.0488 116.535L64.0429 116.802L64.0429 116.801L58.0488 116.535ZM59.1865 93.4238L65.1661 93.9183L65.1664 93.9145L59.1865 93.4238ZM58.1836 92.875L56.3852 87.1509L56.3784 87.153L58.1836 92.875ZM40.2832 98.3838L42.0248 104.125L42.0344 104.123L40.2832 98.3838ZM38.8311 98.6299L38.2963 104.606L38.3044 104.607L38.3125 104.607L38.8311 98.6299ZM35.6377 95.2129L30.0905 97.4995L30.0917 97.5025L35.6377 95.2129ZM33.0576 88.9209L27.4993 91.1804L27.5004 91.183L33.0576 88.9209ZM28.0938 76.2578L22.4689 78.3462L22.4707 78.3509L28.0938 76.2578ZM26.0205 68.4238L20.0399 67.942L20.0395 67.9466L26.0205 68.4238ZM26.375 66.9072L20.8447 64.5801L20.8417 64.5871L20.8388 64.594L26.375 66.9072ZM32.0459 62.3838L29.0276 57.1982L29.0245 57.2001L32.0459 62.3838ZM42.2402 56.7959L39.4816 51.4677L39.4808 51.4681L42.2402 56.7959ZM63.2637 46.8125L60.8294 41.3285L60.8289 41.3287L63.2637 46.8125ZM72.6436 42.7129L75.0228 48.221L75.0267 48.2193L72.6436 42.7129ZM81.584 39.1338L79.118 33.664L79.1154 33.6652L81.584 39.1338ZM84.9141 38.5752V44.5752L84.921 44.5752L84.9141 38.5752ZM102.32 38.3389L102.441 44.3377L102.443 44.3376L102.32 38.3389ZM61.7549 156.897L63.2444 151.085L60.1468 162.678L61.7549 156.897ZM61.9199 156.929L62.5373 150.961L62.5302 150.96L61.9199 156.929ZM61.9482 156.931L61.3359 162.899L62.8919 151.005L61.9482 156.931ZM61.9043 156.924L62.5223 150.956L62.5131 150.955L61.9043 156.924ZM110.901 38.1689L111.006 44.168C111.743 44.1552 112.515 44.0969 113.036 44.0617C113.633 44.0212 114.053 43.9984 114.42 43.9999C115.234 44.0034 115.046 44.1413 114.598 43.8564L117.815 38.792L121.033 33.7276C118.628 32.1995 116.078 32.0069 114.471 32C113.629 31.9965 112.824 32.0485 112.225 32.0891C111.55 32.1348 111.155 32.1636 110.797 32.1699L110.901 38.1689ZM117.815 38.792L114.607 43.8618C115.743 44.5813 116.853 45.0363 117.631 45.3379C118.564 45.7001 118.89 45.804 119.346 46.0131L121.85 40.5605L124.354 35.108C123.46 34.6978 122.403 34.3179 121.972 34.1509C121.386 33.9234 121.153 33.8037 121.024 33.7222L117.815 38.792ZM121.85 40.5605L119.341 46.0111C121.59 47.046 123.863 47.9669 126.008 48.8293C128.194 49.7082 130.234 50.5216 132.227 51.4079L134.665 45.9258L137.103 40.4436C134.869 39.4495 132.6 38.5463 130.485 37.6957C128.328 36.8286 126.307 36.0071 124.358 35.11L121.85 40.5605ZM134.665 45.9258L132.227 51.4083C135.969 53.072 139.683 54.8194 143.465 56.5989L146.02 51.1699L148.574 45.7409C144.812 43.9705 140.982 42.168 137.103 40.4433L134.665 45.9258ZM146.02 51.1699L143.466 56.5995C145.222 57.4251 146.978 58.2513 148.734 59.0777C150.491 59.904 152.248 60.7305 154.004 61.5565L156.558 56.127L159.111 50.6974C157.356 49.8718 155.599 49.0456 153.843 48.2192C152.086 47.3929 150.329 46.5664 148.573 45.7404L146.02 51.1699ZM156.558 56.127L154.002 61.5555C155.558 62.2879 156.969 62.9529 158.332 63.6702L161.126 58.3604L163.92 53.0505C162.281 52.1882 160.627 51.411 159.113 50.6984L156.558 56.127ZM161.126 58.3604L158.328 63.6681C162.074 65.6429 165.142 67.9581 169.406 70.7127L172.662 65.6729L175.918 60.633C172.512 58.4331 168.283 55.3502 163.924 53.0526L161.126 58.3604ZM172.662 65.6729L169.406 70.7122C169.116 70.5252 168.721 70.1786 168.395 69.6414C168.082 69.1239 167.976 68.6652 167.941 68.4468C167.916 68.2862 167.927 68.2239 167.929 68.5549C167.93 68.6619 167.929 68.9248 167.934 69.1512C167.939 69.4017 167.951 69.7387 167.988 70.1169L173.959 69.5303L179.93 68.9437C179.933 68.9702 179.931 68.9928 179.929 68.4949C179.927 68.1433 179.925 67.3932 179.792 66.5611C179.651 65.6711 179.346 64.5572 178.658 63.4221C177.958 62.2675 177.014 61.3411 175.919 60.6335L172.662 65.6729ZM173.959 69.5303L167.988 70.1185C167.939 69.6262 168.023 69.3611 167.999 69.4594C167.981 69.5348 167.923 69.7257 167.78 70.08C167.635 70.4377 167.47 70.8013 167.245 71.3012C167.052 71.7312 166.771 72.3552 166.545 72.9726L172.178 75.0391L177.811 77.1056C177.867 76.9521 177.971 76.7099 178.19 76.2223C178.378 75.8046 178.654 75.1991 178.904 74.5801C179.312 73.5708 180.169 71.3671 179.93 68.942L173.959 69.5303ZM172.178 75.0391L166.546 72.9683C165.804 74.9865 165.048 76.9993 164.279 79.0083L169.882 81.1543L175.485 83.3003C176.273 81.2432 177.048 79.1802 177.809 77.1099L172.178 75.0391ZM169.882 81.1543L164.28 79.0056C162.741 83.0167 161.143 87.007 159.489 90.9735L165.026 93.2832L170.564 95.5929C172.262 91.5216 173.903 87.424 175.484 83.303L169.882 81.1543ZM165.026 93.2832L159.488 90.9761C158.806 92.6114 158.412 93.4811 157.931 94.1348L162.764 97.6904L167.597 101.246C169.077 99.234 169.981 96.9933 170.565 95.5903L165.026 93.2832ZM162.764 97.6904L157.936 94.1277C158.069 93.9468 158.427 93.5318 159.077 93.1858C159.756 92.8248 160.425 92.7134 160.92 92.7105C161.342 92.708 161.577 92.7852 161.468 92.7562C161.335 92.7208 161.18 92.6688 160.692 92.5063L158.797 98.1992L156.902 103.892C157.292 104.022 159.111 104.721 160.99 104.71C163.699 104.694 166.009 103.398 167.591 101.253L162.764 97.6904ZM158.797 98.1992L160.692 92.5064C158.804 91.8778 156.711 91.2942 155.103 90.8072L153.364 96.5498L151.626 102.292C153.634 102.9 155.204 103.327 156.902 103.892L158.797 98.1992ZM153.364 96.5498L155.263 90.8581C152.288 89.8657 149.056 88.9711 146.368 88.1546L144.624 93.8955L142.88 99.6365C146.013 100.588 148.669 101.309 151.466 102.241L153.364 96.5498ZM144.624 93.8955L146.369 88.1549C146.371 88.1555 146.349 88.1487 146.292 88.129C146.236 88.1096 146.165 88.0842 146.069 88.0489C145.918 87.9936 145.591 87.8714 145.325 87.7765C144.817 87.5952 143.828 87.2501 142.738 87.0978C141.905 86.9813 139.223 86.6972 136.918 88.6987C134.385 90.898 134.447 93.8961 134.62 95.2508L140.571 94.4902L146.523 93.7297C146.529 93.7761 146.825 95.9885 144.786 97.7595C143.855 98.5679 142.872 98.8598 142.239 98.9591C141.641 99.053 141.211 99.0009 141.077 98.9823C140.854 98.9511 140.846 98.9193 141.292 99.0783C141.448 99.1342 142.332 99.4697 142.879 99.6361L144.624 93.8955ZM140.571 94.4902L134.62 95.2534C135.321 100.723 135.298 106.15 135.585 112.368L141.579 112.092L147.573 111.815C147.321 106.365 147.307 99.8407 146.523 93.727L140.571 94.4902ZM141.579 112.092L135.585 112.368C135.871 118.566 136.115 124.767 136.321 130.972L142.317 130.773L148.314 130.575C148.107 124.321 147.861 118.067 147.573 111.815L141.579 112.092ZM142.317 130.773L136.321 130.972C136.57 138.482 136.748 145.788 136.381 153.028L142.373 153.332L148.365 153.636C148.761 145.846 148.563 138.095 148.314 130.575L142.317 130.773ZM142.373 153.332L136.381 153.028C136.357 153.5 136.356 153.951 136.359 154.324C136.361 154.619 136.37 155.143 136.373 155.356C136.38 156.01 136.366 156.356 136.337 156.576C136.309 156.797 136.304 156.544 136.555 156.118C136.693 155.885 136.893 155.624 137.168 155.381C137.444 155.137 137.727 154.973 137.97 154.871L140.284 160.407L142.598 165.943C146.821 164.178 147.946 160.369 148.238 158.116C148.382 157.005 148.38 155.942 148.372 155.22C148.362 154.336 148.348 153.987 148.365 153.636L142.373 153.332ZM140.284 160.407L137.967 154.873C138.085 154.823 137.968 154.91 137.203 154.912C136.829 154.913 136.436 154.898 135.873 154.876C135.363 154.856 134.684 154.829 133.988 154.841L134.088 160.84L134.188 166.839C134.501 166.834 134.861 166.845 135.402 166.866C135.89 166.886 136.56 166.914 137.243 166.912C138.592 166.908 140.565 166.794 142.602 165.942L140.284 160.407ZM134.088 160.84L133.986 154.841C129.886 154.91 125.788 154.971 121.693 155.018L121.762 161.018L121.831 167.017C125.953 166.97 130.073 166.909 134.189 166.839L134.088 160.84ZM121.762 161.018L121.693 155.018C113.496 155.112 105.3 155.163 97.1061 155.168L97.1094 161.168L97.1127 167.168C105.353 167.163 113.592 167.112 121.831 167.017L121.762 161.018ZM97.1094 161.168L97.1056 155.168C89.9696 155.172 82.8332 155.141 75.6962 155.076L75.6416 161.076L75.587 167.076C82.7619 167.141 89.9373 167.172 97.1131 167.168L97.1094 161.168ZM75.6416 161.076L75.6974 155.076C72.0859 155.043 68.4751 155.002 64.867 154.953L64.7852 160.952L64.7033 166.952C68.3298 167.001 71.9582 167.042 75.5858 167.076L75.6416 161.076ZM64.7852 160.952L64.8692 154.953C64.456 154.947 64.0221 154.957 63.6954 154.965C63.3304 154.974 63.0274 154.982 62.7201 154.983C62.0744 154.985 61.7213 154.952 61.5535 154.92C61.3291 154.878 61.902 154.927 62.5868 155.55C62.9687 155.898 63.3072 156.357 63.5295 156.896C63.7457 157.42 63.7841 157.855 63.782 158.093L57.7822 158.04L51.7825 157.987C51.7614 160.395 52.6347 162.718 54.5093 164.424C56.154 165.921 58.0592 166.471 59.3093 166.709C60.6159 166.957 61.8792 166.986 62.7617 166.983C64.117 166.978 64.0176 166.942 64.7011 166.952L64.7852 160.952ZM57.7822 158.04L63.782 158.094C63.7919 156.998 63.6557 155.997 63.5785 155.415C63.4849 154.71 63.4553 154.461 63.451 154.245L57.4521 154.364L51.4533 154.484C51.4737 155.51 51.6148 156.481 51.6828 156.994C51.7673 157.63 51.7837 157.846 51.7825 157.986L57.7822 158.04ZM57.4521 154.364L63.4509 154.243C63.4199 152.701 63.3953 151.158 63.3775 149.616L57.3779 149.686L51.3783 149.755C51.3965 151.332 51.4216 152.909 51.4534 154.485L57.4521 154.364ZM57.3779 149.686L63.3776 149.619C63.3443 146.621 63.3397 143.621 63.3641 140.624L57.3643 140.575L51.3645 140.526C51.3395 143.601 51.3442 146.678 51.3783 149.752L57.3779 149.686ZM57.3643 140.575L63.3641 140.624C63.4284 132.703 63.6881 124.766 64.0429 116.802L58.0488 116.535L52.0548 116.268C51.696 124.322 51.4303 132.412 51.3645 140.526L57.3643 140.575ZM58.0488 116.535L64.0429 116.801C64.3924 108.928 64.5458 101.419 65.1661 93.9183L59.1865 93.4238L53.2069 92.9293C52.5616 100.732 52.3874 108.775 52.0547 116.269L58.0488 116.535ZM59.1865 93.4238L65.1664 93.9145C65.2377 93.046 65.1812 91.7756 64.5385 90.4426C63.843 89.0001 62.683 87.9523 61.3666 87.3656C59.1374 86.3719 57.0937 86.9283 56.3852 87.1509L58.1836 92.875L59.982 98.5991C59.859 98.6378 58.3425 99.1557 56.4812 98.3261C55.3487 97.8213 54.3328 96.9061 53.7291 95.6539C53.1782 94.5112 53.161 93.4888 53.2066 92.9332L59.1865 93.4238ZM58.1836 92.875L56.3784 87.153C50.4599 89.0202 44.5221 90.8172 38.532 92.645L40.2832 98.3838L42.0344 104.123C47.9868 102.306 54.0007 100.486 59.9888 98.597L58.1836 92.875ZM40.2832 98.3838L38.5417 92.6421C38.4187 92.6794 38.3664 92.6948 38.328 92.7054C38.2953 92.7145 38.3185 92.707 38.3775 92.6951C38.4878 92.6729 38.8468 92.6087 39.3497 92.6523L38.8311 98.6299L38.3125 104.607C40.1458 104.766 41.7424 104.211 42.0248 104.125L40.2832 98.3838ZM38.8311 98.6299L39.3658 92.6538C39.8615 92.6981 40.3777 92.8698 40.83 93.1546C41.2487 93.4181 41.4762 93.6917 41.5548 93.7958C41.6261 93.8905 41.6137 93.8975 41.5284 93.7218C41.4387 93.5371 41.3479 93.321 41.1837 92.9233L35.6377 95.2129L30.0917 97.5025C30.3299 98.0794 30.9375 99.6475 31.9751 101.023C33.1788 102.618 35.2296 104.332 38.2963 104.606L38.8311 98.6299ZM35.6377 95.2129L41.1849 92.9263C40.3225 90.8341 39.465 88.7473 38.6149 86.6588L33.0576 88.9209L27.5004 91.183C28.3601 93.295 29.2251 95.4002 30.0905 97.4995L35.6377 95.2129ZM33.0576 88.9209L38.6159 86.6614C36.9187 82.4864 35.2694 78.3356 33.7168 74.1647L28.0938 76.2578L22.4707 78.3509C24.0822 82.6802 25.7812 86.9539 27.4993 91.1804L33.0576 88.9209ZM28.0938 76.2578L33.7186 74.1694C33.4916 73.5582 33.1943 72.8215 32.9851 72.287C32.7496 71.6855 32.5474 71.147 32.3812 70.6359C32.2147 70.1237 32.1091 69.7125 32.0513 69.3858C32.0232 69.2273 32.0098 69.1073 32.0042 69.0218C31.9986 68.9364 32.0017 68.8986 32.0015 68.9011L26.0205 68.4238L20.0395 67.9466C19.8413 70.4303 20.4491 72.7461 20.969 74.3453C21.4438 75.8062 22.2397 77.7289 22.4689 78.3462L28.0938 76.2578ZM26.0205 68.4238L32.0011 68.9056C32.0009 68.9084 31.9903 69.0309 31.9112 69.2204L26.375 66.9072L20.8388 64.594C20.3603 65.7393 20.1254 66.8803 20.0399 67.942L26.0205 68.4238ZM26.375 66.9072L31.9053 69.2344C31.7329 69.644 31.5348 69.6202 32.1438 69.2147C32.4326 69.0224 32.7931 68.8146 33.3084 68.5348C33.7425 68.2991 34.4584 67.9224 35.0673 67.5675L32.0459 62.3838L29.0245 57.2001C28.6247 57.4331 28.2489 57.6271 27.5824 57.989C26.9971 58.3069 26.2482 58.7235 25.4928 59.2264C24.0136 60.2114 21.9887 61.8614 20.8447 64.5801L26.375 66.9072ZM32.0459 62.3838L35.0642 67.5694C38.3183 65.6753 41.635 63.8664 44.9997 62.1237L42.2402 56.7959L39.4808 51.4681C35.9654 53.2888 32.474 55.1923 29.0276 57.1982L32.0459 62.3838ZM42.2402 56.7959L44.9989 62.1241C51.7415 58.6332 58.6628 55.42 65.6984 52.2963L63.2637 46.8125L60.8289 41.3287C53.6829 44.5015 46.5213 47.8229 39.4816 51.4677L42.2402 56.7959ZM63.2637 46.8125L65.6979 52.2965C68.7918 50.9232 71.9 49.5699 75.0228 48.221L72.6436 42.7129L70.2643 37.2048C67.122 38.5621 63.9737 39.9328 60.8294 41.3285L63.2637 46.8125ZM72.6436 42.7129L75.0267 48.2193C76.3519 47.6458 77.7103 47.135 79.2527 46.5492C80.7449 45.9824 82.3991 45.3488 84.0526 44.6024L81.584 39.1338L79.1154 33.6652C77.836 34.2427 76.4976 34.7592 74.9917 35.3312C73.5359 35.8841 71.8905 36.501 70.2604 37.2065L72.6436 42.7129ZM81.584 39.1338L84.05 44.6036C84.082 44.5892 84.0829 44.5911 84.0617 44.5971C84.0405 44.6031 84.0315 44.6035 84.0508 44.6008C84.076 44.5973 84.1436 44.5895 84.2859 44.5837C84.4368 44.5775 84.6245 44.5752 84.9141 44.5752V38.5752V32.5752C83.5507 32.5752 81.5145 32.5835 79.118 33.664L81.584 39.1338ZM84.9141 38.5752L84.921 44.5752C90.7888 44.5684 96.646 44.4542 102.441 44.3377L102.32 38.3389L102.2 32.3401C96.3935 32.4569 90.6449 32.5685 84.9071 32.5752L84.9141 38.5752ZM102.32 38.3389L102.443 44.3376C105.309 44.2792 108.158 44.2194 111.01 44.168L110.901 38.1689L110.793 32.1699C107.923 32.2217 105.054 32.2819 102.198 32.3401L102.32 38.3389ZM61.7549 156.897L60.1468 162.678C60.4898 162.773 60.879 162.854 61.3096 162.898L61.9199 156.929L62.5302 150.96C62.8399 150.992 63.1195 151.049 63.363 151.117L61.7549 156.897ZM61.9199 156.929L61.3026 162.897C61.3542 162.902 61.4002 162.906 61.4393 162.909C61.4783 162.913 61.5119 162.915 61.5382 162.917C61.5644 162.918 61.5857 162.92 61.5992 162.92C61.6061 162.921 61.6118 162.921 61.6155 162.921C61.619 162.921 61.622 162.922 61.6223 162.922C61.6235 162.922 61.6217 162.922 61.6197 162.921C61.6173 162.921 61.613 162.921 61.6075 162.921C61.5968 162.92 61.5782 162.919 61.5549 162.918C61.5313 162.916 61.5004 162.914 61.4643 162.911C61.428 162.908 61.3847 162.904 61.3359 162.899L61.9482 156.931L62.5606 150.962C62.5094 150.957 62.4638 150.953 62.4252 150.95C62.3866 150.947 62.3534 150.944 62.3275 150.943C62.3018 150.941 62.2808 150.94 62.2677 150.939C62.261 150.939 62.2555 150.938 62.252 150.938C62.2488 150.938 62.2459 150.938 62.2458 150.938C62.245 150.938 62.2468 150.938 62.2491 150.938C62.2516 150.938 62.2561 150.938 62.2618 150.939C62.273 150.939 62.292 150.94 62.3158 150.942C62.3397 150.943 62.371 150.946 62.4076 150.949C62.4443 150.952 62.488 150.955 62.5373 150.961L61.9199 156.929ZM61.9482 156.931L62.8919 151.005C62.9283 151.011 62.956 151.016 62.9575 151.016C62.9702 151.018 62.9409 151.013 62.9186 151.01C62.8676 151.001 62.716 150.976 62.5223 150.956L61.9043 156.924L61.2863 162.892C61.1073 162.873 60.9703 162.85 60.934 162.844C60.919 162.842 60.8969 162.838 60.9169 162.841C60.9258 162.843 60.9609 162.849 61.0046 162.856L61.9482 156.931ZM61.9043 156.924L62.5131 150.955C62.7587 150.98 63.0034 151.024 63.2444 151.085L61.7549 156.897L60.2654 162.71C60.5975 162.795 60.9415 162.857 61.2955 162.893L61.9043 156.924Z" fill="white" mask="url(#path-1-outside-1_1347_9372)"/>
<path d="M26.0207 68.4243C26.0633 67.8947 26.1755 67.3853 26.3752 66.9074C27.3468 64.5983 30.0284 63.5593 32.0457 62.3835C35.396 60.4335 38.8001 58.5777 42.2401 56.796C49.1314 53.2281 56.173 49.9608 63.264 46.8125C66.3831 45.428 69.5112 44.0659 72.6438 42.7128C75.5991 41.4337 78.651 40.4576 81.5838 39.1336C82.7485 38.6085 83.6909 38.5749 84.9139 38.5749C90.7168 38.5681 96.5198 38.4559 102.32 38.3393C105.182 38.2809 108.04 38.2203 110.901 38.1687C113.092 38.1306 115.858 37.5494 117.815 38.7925C119.081 39.5936 120.501 39.9415 121.85 40.5608C126.048 42.4929 130.438 44.0457 134.665 45.9261C138.475 47.6204 142.248 49.3953 146.02 51.1703C149.532 52.8219 153.046 54.4757 156.557 56.1273C158.092 56.8498 159.625 57.5702 161.126 58.36C165.179 60.4963 168.828 63.1958 172.662 65.6732C174.274 66.7144 173.832 68.2291 173.959 69.5306C174.123 71.1934 172.743 73.4979 172.178 75.0395C171.426 77.0838 170.661 79.1213 169.882 81.1544C168.323 85.2205 166.702 89.2641 165.026 93.2831C164.393 94.8023 163.745 96.3573 162.764 97.6903C161.647 99.2049 160.381 98.727 158.797 98.1996C157.004 97.6027 155.173 97.0978 153.364 96.5503C150.478 95.5877 147.534 94.7798 144.624 93.8957C143.118 93.4379 140.237 91.8739 140.571 94.4903C141.314 100.282 141.31 106.258 141.579 112.092C141.866 118.317 142.111 124.544 142.317 130.773C142.566 138.288 142.755 145.817 142.373 153.332C142.252 155.722 142.963 159.287 140.284 160.407C138.366 161.211 136.106 160.807 134.088 160.84C129.98 160.91 125.871 160.97 121.762 161.018C113.545 161.112 105.327 161.163 97.1099 161.168C89.9539 161.172 82.7978 161.141 75.6418 161.076C72.0222 161.042 68.4027 161.002 64.7854 160.953C62.5437 160.921 57.7505 161.588 57.7819 158.04C57.7932 156.803 57.4768 155.607 57.4521 154.364C57.4207 152.805 57.396 151.245 57.378 149.686C57.3444 146.649 57.3399 143.611 57.3646 140.575C57.4296 132.557 57.6922 124.544 58.049 116.535C58.3901 108.852 58.5539 101.076 59.1867 93.4245C59.2383 92.7984 58.7693 92.6907 58.1836 92.8747C52.2303 94.7529 46.2546 96.5615 40.2834 98.3837C39.8099 98.5273 39.323 98.6731 38.8315 98.6305C36.9735 98.4644 36.2442 96.6805 35.6384 95.2129C34.7744 93.117 33.9127 91.0212 33.0578 88.9208C31.3501 84.7201 29.6761 80.5081 28.0941 76.258C27.2818 74.0701 25.8142 71.0116 26.0207 68.4243ZM136.925 93.2023C136.925 92.381 136.884 91.7415 136.932 91.1109C137.086 89.0913 138.262 88.2992 140.21 88.6672C141.267 88.8669 142.18 89.4032 143.208 89.6793C144.584 90.0518 146.002 90.3233 147.373 90.7855C148.58 91.1917 149.648 92.0983 150.999 92.022C151.863 91.9726 152.599 92.2935 153.34 92.6436C153.64 92.7849 153.925 93.0968 154.219 93.0968C156.048 93.0923 157.65 93.981 159.378 94.3602C159.941 94.4836 160.157 94.45 160.502 93.9047C161.445 92.4169 161.986 90.7586 162.724 89.1856C163.379 87.7876 164.005 86.3716 164.528 84.9198C165.34 82.6713 166.045 80.3825 167.057 78.2148C167.688 76.8616 168.179 75.439 168.659 74.0567C169.222 72.432 169.561 70.7176 170.342 69.1536C170.495 68.8484 170.562 68.5185 170.214 68.3884C169.101 67.971 168.401 66.9926 167.414 66.398C165.908 65.4936 164.503 64.4076 162.894 63.6962C161.4 63.0365 160.114 62.02 158.694 61.2997C156.941 60.411 155.058 59.7244 153.337 58.7684C151.107 57.5298 148.825 56.3674 146.475 55.4429C145.044 54.8796 143.877 53.8811 142.346 53.4704C140.948 53.0934 139.683 52.0612 138.316 51.581C135.074 50.441 132.224 48.4843 128.979 47.3758C127.164 46.7564 125.447 45.8543 123.634 45.2305C121.841 44.6157 120.156 43.7607 118.412 43.0404C117.887 42.8227 117.75 42.807 117.369 43.2648C116.105 44.7817 115.192 46.5724 113.453 47.7236C112.18 48.5651 111.065 49.5838 109.719 50.3266C108.372 51.0693 106.923 51.6438 105.435 52.05C101.151 53.2213 95.9027 52.9341 91.8298 51.1614C90.6742 50.6587 89.5657 50.0528 88.5155 49.3572C87.3666 48.5942 86.2513 47.7617 85.2797 46.7789C84.308 45.796 83.59 44.5483 82.809 43.3635C82.5173 42.9192 82.174 42.8833 81.5951 43.0067C80.1836 43.3119 79.0279 44.1601 77.7623 44.7301C75.6552 45.6793 73.4584 46.4535 71.3311 47.2882C68.8044 48.2801 66.4976 49.7207 63.9013 50.5802C62.0679 51.186 60.3513 52.2946 58.509 52.9924C57.0594 53.54 55.7781 54.4039 54.3285 54.9716C53.009 55.4877 51.5055 55.8804 50.4284 56.6838C48.3123 58.2613 45.7901 58.8986 43.5618 60.1889C40.9656 61.6923 38.1539 62.8368 35.6271 64.4883C35.1671 64.789 34.8328 65.35 34.3458 65.5296C32.784 66.1018 31.5431 67.1183 30.2371 68.0877C29.5482 68.5971 29.6649 69.1311 29.8736 69.5979C30.3426 70.6458 30.4817 71.779 30.9058 72.8427C31.6351 74.6783 32.0054 76.6709 32.8693 78.4302C33.5874 79.8977 34.1596 81.4169 34.6555 82.9339C35.2771 84.83 36.1657 86.6005 36.8456 88.4608C37.5659 90.4287 38.5533 92.271 39.3993 94.1784C39.6326 94.7058 39.9109 94.8898 40.2699 94.625C40.9902 94.0977 41.8609 94.0887 42.6418 93.7857C43.9029 93.2988 45.2336 92.8657 46.5172 92.5919C48.3146 92.2082 50.0155 91.5395 51.7905 91.1064C53.6373 90.6576 55.4482 89.9755 57.2928 89.4526C57.9256 89.2731 58.5606 89.1452 59.1844 88.9051C61.0941 88.1758 62.6043 89.0958 63.0329 91.0862C63.1697 91.719 63.1787 92.3675 63.0979 92.942C62.5885 96.5458 62.6604 100.188 62.3215 103.801C62.0365 106.828 62.6469 109.92 61.6752 112.9C61.6304 113.037 61.6124 113.212 61.6595 113.342C62.308 115.153 61.4621 116.957 61.6483 118.777C61.756 119.829 61.4621 120.909 61.3678 121.963C61.1659 124.225 61.8278 126.51 61.1816 128.805C60.9819 129.512 61.4778 130.398 61.3342 131.141C60.7777 134.016 61.1143 136.911 60.9796 139.792C60.9415 140.604 61.195 141.466 61.0828 142.213C60.7417 144.459 61.0088 146.701 61.0985 148.916C61.1816 151.039 60.8405 153.177 61.2466 155.275C61.3588 155.852 61.02 156.837 61.9198 156.929C62.8309 157.023 63.7689 157.082 64.6238 157.34C65.5169 157.609 66.2821 157.082 67.0989 157.214C68.6226 157.465 70.135 157.409 71.6677 157.306C72.1546 157.272 72.6685 157.16 73.1913 157.254C74.5377 157.495 75.9066 157.427 77.2687 157.427C79.1087 157.427 80.9645 157.326 82.7821 157.537C84.1981 157.701 85.5938 157.56 86.9806 157.533C88.428 157.504 89.8753 157.474 91.325 157.501C92.2023 157.519 93.1583 157.804 93.9392 157.544C95.1038 157.158 96.2684 157.234 97.368 157.342C99.594 157.562 101.822 157.403 104.048 157.566C106.209 157.726 108.417 157.171 110.587 157.279C113 157.398 115.407 157.382 117.817 157.42C119.747 157.452 121.682 157.353 123.605 157.461C124.343 157.504 125.059 157.517 125.79 157.443C127.59 157.259 129.396 157.519 131.214 157.293C132.024 157.192 133 156.96 133.723 157.192C135.273 157.69 136.642 156.922 138.098 156.909C138.469 156.907 139.041 156.424 138.848 155.962C138.168 154.342 138.81 152.672 138.711 151.043C138.59 149.024 139.05 146.878 138.922 144.805C138.725 141.623 139.191 138.448 138.861 135.263C138.787 134.557 138.567 133.733 138.689 133.154C139.077 131.283 138.689 129.452 138.635 127.627C138.567 125.291 138.828 122.935 138.345 120.597C138.152 119.657 138.363 118.584 138.208 117.65C137.89 115.716 137.955 113.777 137.861 111.848C137.654 107.636 137.598 103.417 137.219 99.2117C137.033 97.1539 137.021 95.0805 136.938 93.2045L136.925 93.2023ZM88.3247 41.9678C87.8647 42.0059 87.4204 42.0194 86.9918 42.2034C86.2446 42.522 86.4847 42.9259 86.9918 43.3164C87.6717 43.8415 88.3539 44.3509 89.0114 44.9074C91.3025 46.8439 93.6946 48.2352 96.6701 48.8388C97.9222 49.0924 99.2036 49.2068 100.48 49.1777C105.247 49.07 109.862 46.8754 112.876 43.1728C113.105 42.8923 113.516 42.6297 113.39 42.2213C113.264 41.8129 112.528 41.584 112.172 41.5212C111.319 41.3709 110.414 41.5616 109.562 41.6267C108.556 41.7052 107.549 41.7546 106.541 41.786C104.522 41.8488 102.502 41.8309 100.483 41.8017C96.4457 41.7411 92.3998 41.6244 88.3719 41.9633C88.3562 41.9633 88.3405 41.9655 88.3225 41.9678H88.3247Z" fill="#FEFEFE"/>
<path d="M138.107 94.2905C138.19 96.1687 137.92 96.9368 138.107 98.9946C138.486 103.2 138.49 107.131 138.695 111.343C138.789 113.273 139.552 115.289 139.871 117.223C140.023 118.156 139.675 119.223 139.871 120.163C140.353 122.501 140.129 124.295 140.197 126.631C140.251 128.455 141.435 130.64 141.047 132.511C140.928 133.09 142.071 136.232 140.459 136.039C140.788 139.223 140.002 141.677 140.197 144.859C140.325 146.935 140.076 149.898 140.197 151.916C140.296 153.545 139.519 154.411 140.197 156.032C140.39 156.494 136.685 161.04 136.923 158.972C135.466 158.985 133.777 159.468 132.226 158.972C131.506 158.741 130.687 158.871 129.874 158.972C128.057 159.198 126.97 159.376 125.17 159.56C124.439 159.634 121.205 160.19 120.466 160.148C118.543 160.04 116.516 159.003 114.586 158.972C112.176 158.934 112.882 158.503 110.47 158.384C108.3 158.276 106.163 159.131 104.002 158.972C101.774 158.808 100.936 158.604 98.7098 158.384C97.6103 158.276 96.9344 158.583 95.7698 158.972C94.9889 159.23 93.1213 158.987 92.2417 158.972C90.7943 158.945 89.9133 159.531 88.4659 159.56C87.0791 159.587 85.4255 159.138 84.0096 158.972C82.1919 158.761 80.5575 158.972 78.7175 158.972C77.3531 158.972 76.5358 159.212 75.1894 158.972C74.6643 158.877 71.6613 160.054 71.6613 158.384C70.1287 158.489 69.6569 159.811 68.1333 159.56C67.3164 159.425 65.5005 159.239 64.6052 158.972C63.7502 158.714 62.8154 157.018 61.9044 156.924C61.0023 156.832 61.3411 155.847 61.2312 155.27C60.825 153.17 59.9841 151.686 59.9011 149.564C59.8136 147.349 58.9743 144.754 59.3131 142.507C59.4253 141.76 59.2749 139.201 59.3131 138.391C59.45 135.51 59.9326 134.21 60.4891 131.335C60.6327 130.592 60.2894 129.102 60.4891 128.395C61.1354 126.102 60.2872 124.189 60.4891 121.927C60.5834 120.872 60.5968 120.042 60.4891 118.987C60.3006 117.167 61.1376 116.094 60.4891 114.283C60.442 114.153 59.3185 111.555 60.4891 111.931C61.4608 108.951 60.8811 107.314 61.1661 104.287C61.5072 100.674 62.5731 96.5429 63.0824 92.9369C63.1632 92.3624 63.1543 91.7117 63.0174 91.0811C62.5888 89.0907 61.2227 90.0331 59.3131 90.7624C58.6893 91.0003 57.5916 90.5829 56.961 90.7624C55.1187 91.2853 53.518 92.0754 51.6689 92.5264C49.894 92.9573 48.1743 93.9068 46.3768 94.2905C45.0933 94.5642 44.1099 94.3915 42.8488 94.8785C42.0679 95.1792 40.629 96.1129 39.9087 96.6425C39.5497 96.9073 37.7901 94.8178 37.5567 94.2905C36.7107 92.3831 35.9272 90.9663 35.2046 88.9984C34.5225 87.1404 33.4731 85.0167 32.8538 83.1183C32.3579 81.6013 31.6084 79.8817 30.8903 78.4142C30.0286 76.6549 30.0537 74.9576 29.3244 73.1221C28.9026 72.0584 28.6199 70.6419 28.1486 69.594C27.9399 69.1273 29.2238 67.1633 29.9127 66.654C31.3678 64.0493 32.4692 64.2861 34.0288 63.7139C34.5157 63.5344 34.7448 63.4266 35.2048 63.1259C37.7338 61.4743 40.2527 59.9253 42.8489 58.4218C45.0772 57.1315 46.613 57.0593 48.729 55.4817C49.8062 54.6784 52.1137 54.2338 53.4331 53.7177C54.8827 53.15 56.0974 52.5012 57.5492 51.9537C59.3938 51.258 61.008 50.2097 62.8413 49.6016C65.4398 48.7422 67.9587 47.0632 70.4855 46.0736C72.6105 45.241 74.2585 44.6707 76.3656 43.7215C77.6312 43.1516 79.656 42.8506 81.0697 42.5455C81.6464 42.4198 83.13 42.6892 83.4217 43.1335C84.6918 45.0634 86.2633 46.4104 88.1258 47.8376C91.8665 50.6987 95.1669 51.9649 99.886 51.9537C105.426 51.9402 110.213 50.0589 113.998 46.0736C114.202 45.8581 114.391 45.1197 114.586 44.8975C115.176 44.2199 115.767 43.7354 116.35 43.0375C116.732 42.5797 120.182 40.8773 119.29 42.5455C121.034 43.268 121.614 43.1067 123.406 43.7215C125.22 44.3454 126.297 45.4542 128.111 46.0736C131.355 47.1821 134.276 48.4617 137.519 49.6016C138.883 50.0818 141.999 51.5767 143.399 51.9537C144.931 52.3666 146.674 54.3305 148.103 54.8938C150.452 55.8183 151.753 56.5951 153.983 57.8338C155.704 58.7898 158.701 59.8853 160.451 60.7739C161.872 61.4942 163.661 62.4662 165.155 63.1259C166.764 63.8373 167.14 64.5757 168.646 65.4778C169.633 66.0702 169.334 66.2342 170.447 66.6538C171.87 65.5101 172.799 70.1817 172.211 69.5938C171.433 71.1579 171.011 72.0832 170.447 73.7101C169.967 75.0924 169.277 77.6491 168.646 79.0022C167.636 81.1699 166.556 82.6361 165.743 84.8823C165.22 86.3319 165.811 88.1884 165.155 89.5864C164.419 91.1594 163.158 92.2147 162.215 93.7025C161.87 94.2477 161.014 96.1779 160.451 96.0545C158.723 95.6753 160.509 96.638 158.68 96.6425C159.045 97.839 153.696 94.4318 153.395 94.2905C152.654 93.9404 151.909 93.0651 151.043 93.1145C149.692 93.1907 148.134 92.3446 146.927 91.9384C145.558 91.4762 144.186 91.1349 142.811 90.7624C141.783 90.4842 141.516 90.3741 140.459 90.1744C138.511 89.8064 138.849 89.3308 138.695 91.3504C138.647 91.981 137.519 92.3759 137.519 93.1994L138.107 94.2905Z" fill="#FEFEFE"/>
<path d="M87.7381 41.7568C88.5055 41.685 89.8138 41.6446 90.579 41.6244C93.0698 41.5616 94.194 41.6468 96.631 41.5661C99.1577 41.483 102.418 41.5907 104.945 41.602C106.693 41.6087 108.297 41.4359 110.048 41.4426C110.804 41.4449 111.773 41.3888 112.509 41.2721C113.086 41.1801 113.64 41.3529 113.968 41.9789C114.244 42.504 113.788 42.7419 113.526 43.0628C110.467 46.8215 105.748 49.144 100.91 49.3706C96.1979 49.5905 91.4317 47.82 87.9849 44.5977C87.6057 44.2431 87.2399 44.0434 86.8405 43.7091C86.6475 43.5475 85.7611 42.8227 85.6983 42.6252C85.5345 42.1069 86.6991 41.9363 87.0604 41.8578C87.2826 41.8084 87.5092 41.777 87.7358 41.7545L87.7381 41.7568Z" fill="#E7EAEC"/>
<path d="M87.7381 41.7568C88.5055 41.685 89.8138 41.6446 90.579 41.6244C93.0698 41.5616 94.194 41.6468 96.631 41.5661C99.1577 41.483 102.418 41.5907 104.945 41.602C106.693 41.6087 108.297 41.4359 110.048 41.4426C110.804 41.4449 111.773 41.3888 112.509 41.2721C113.086 41.1801 113.64 41.3529 113.968 41.9789C114.244 42.504 113.788 42.7419 113.526 43.0628C110.467 46.8215 105.748 49.144 100.91 49.3706C96.1979 49.5905 91.4317 47.82 87.9849 44.5977C87.6057 44.2431 87.2399 44.0434 86.8405 43.7091C86.6475 43.5475 85.7611 42.8227 85.6983 42.6252C85.5345 42.1069 86.6991 41.9363 87.0604 41.8578C87.2826 41.8084 87.5092 41.777 87.7358 41.7545L87.7381 41.7568Z" fill="#65A1DB"/>
<path d="M110.901 38.1689C113.091 38.1308 115.859 37.5498 117.815 38.793C119.081 39.594 120.502 39.9412 121.851 40.5605C126.049 42.4926 130.438 44.0454 134.666 45.9258C138.476 47.62 142.248 49.395 146.021 51.1699C149.532 52.8214 153.046 54.4755 156.558 56.127C158.092 56.8495 159.626 57.5705 161.127 58.3604C165.179 60.4966 168.828 63.1956 172.663 65.6729C174.274 66.714 173.832 68.2288 173.96 69.5303C174.124 71.193 172.743 73.4974 172.178 75.0391C171.426 77.0833 170.661 79.1213 169.883 81.1543C168.323 85.2204 166.703 89.2642 165.026 93.2832C164.394 94.8023 163.745 96.3576 162.765 97.6904C161.647 99.205 160.381 98.7265 158.797 98.1992C157.004 97.6024 155.173 97.0983 153.364 96.5508C150.479 95.5881 147.534 94.7796 144.624 93.8955C143.118 93.4376 140.237 91.8742 140.571 94.4902C141.314 100.282 141.31 106.258 141.579 112.092C141.866 118.317 142.111 124.544 142.317 130.773C142.566 138.288 142.755 145.817 142.374 153.332C142.253 155.722 142.963 159.287 140.284 160.407C138.366 161.21 136.106 160.806 134.089 160.84C129.98 160.909 125.871 160.97 121.763 161.018C113.545 161.112 105.328 161.163 97.1104 161.168C89.9544 161.172 82.7985 161.141 75.6426 161.076C72.0231 161.043 68.4033 161.002 64.7861 160.952C62.5444 160.921 57.751 161.588 57.7822 158.04C57.7934 156.804 57.4768 155.607 57.4521 154.364C57.4207 152.805 57.3969 151.245 57.3789 149.686C57.3452 146.65 57.3406 143.611 57.3652 140.575C57.4303 132.557 57.693 124.544 58.0498 116.535C58.3909 108.852 58.5547 101.077 59.1875 93.4248C59.2391 92.7987 58.7693 92.691 58.1836 92.875C52.2306 94.7531 46.2551 96.5618 40.2842 98.3838C39.8107 98.5274 39.3234 98.6735 38.832 98.6309C36.974 98.4648 36.2445 96.6805 35.6387 95.2129C34.7748 93.1171 33.9135 91.0212 33.0586 88.9209C31.3509 84.7202 29.6767 80.5079 28.0947 76.2578C27.2824 74.0699 25.815 71.0111 26.0215 68.4238C26.0641 67.8944 26.1763 67.385 26.376 66.9072C27.3477 64.5985 30.0287 63.5595 32.0459 62.3838C35.3961 60.4338 38.8003 58.5776 42.2402 56.7959C49.1315 53.228 56.1737 49.9608 63.2646 46.8125C66.3837 45.428 69.512 44.066 72.6445 42.7129C75.5997 41.4339 78.6513 40.4576 81.584 39.1338C82.7485 38.6087 83.6912 38.5752 84.9141 38.5752C90.717 38.5685 96.5206 38.4556 102.321 38.3389C105.182 38.2805 108.041 38.2206 110.901 38.1689ZM61.7539 156.896C61.8041 156.911 61.8589 156.922 61.9199 156.929C61.9331 156.93 61.9467 156.931 61.96 156.933C61.9415 156.929 61.9227 156.926 61.9043 156.924C61.8496 156.918 61.7998 156.908 61.7539 156.896ZM112.172 41.5215C111.319 41.3712 110.415 41.5619 109.562 41.627C108.557 41.7055 107.549 41.7547 106.542 41.7861C104.523 41.849 102.503 41.8309 100.483 41.8018C96.4465 41.7412 92.4 41.624 88.3721 41.9629C88.3565 41.9629 88.341 41.9656 88.3232 41.9678H88.3252C87.8652 42.0059 87.4208 42.0191 86.9922 42.2031C86.245 42.5218 86.4851 42.926 86.9922 43.3164C87.6721 43.8415 88.3543 44.3508 89.0117 44.9072C91.3028 46.8438 93.6954 48.2352 96.6709 48.8389C97.9228 49.0924 99.2039 49.2069 100.48 49.1777C105.247 49.07 109.863 46.8754 112.877 43.1729C113.106 42.8925 113.516 42.6298 113.391 42.2217C113.265 41.8133 112.529 41.5843 112.172 41.5215Z" fill="#D7E8FC"/>
<path d="M92.9724 90.2056C98.4703 90.2056 102.927 85.7486 102.927 80.2507C102.927 74.7528 98.4703 70.2959 92.9724 70.2959C87.4745 70.2959 83.0176 74.7528 83.0176 80.2507C83.0176 85.7486 87.4745 90.2056 92.9724 90.2056Z" fill="#4B98E6"/>
<circle cx="89.33" cy="77.6445" r="2.60539" fill="white"/>
<circle cx="89.3308" cy="77.6453" r="1.56324" fill="#161616"/>
<circle cx="89.3308" cy="77.6453" r="1.56324" fill="#161616"/>
<path d="M83.8564 82.814C82.5672 83.1611 80.2331 82.453 79.9376 81.3644C79.6421 80.2757 81.2994 78.4919 82.5858 78.1452C83.8721 77.7986 85.112 78.2279 85.552 79.85C85.998 81.4911 85.1427 82.4673 83.8535 82.8144L83.8564 82.814Z" fill="#DFB820"/>
<path d="M72.4835 88.4254C71.8863 88.4254 71.4248 88.2625 71.0991 87.9368C70.7734 87.5975 70.6105 87.1225 70.6105 86.5118V75.6203C70.6105 74.996 70.7734 74.5209 71.0991 74.1952C71.4248 73.8695 71.8863 73.7066 72.4835 73.7066C73.0942 73.7066 73.5556 73.8695 73.8678 74.1952C74.1935 74.5209 74.3564 74.996 74.3564 75.6203V86.5118C74.3564 87.1225 74.2003 87.5975 73.8882 87.9368C73.576 88.2625 73.1078 88.4254 72.4835 88.4254Z" fill="black"/>
<path d="M109.704 89.4588C109.215 89.4588 108.836 89.3245 108.568 89.0558C108.311 88.787 108.183 88.4084 108.183 87.9198V77.751C108.183 77.2502 108.323 76.8715 108.604 76.615C108.885 76.3463 109.282 76.2119 109.795 76.2119C110.223 76.2119 110.559 76.2974 110.803 76.4684C111.059 76.6272 111.292 76.896 111.499 77.2746L115.438 84.347H114.797L118.718 77.2746C118.938 76.896 119.17 76.6272 119.414 76.4684C119.671 76.2974 120.013 76.2119 120.44 76.2119C120.929 76.2119 121.302 76.3463 121.558 76.615C121.827 76.8715 121.961 77.2502 121.961 77.751V87.9198C121.961 88.4084 121.833 88.787 121.576 89.0558C121.32 89.3245 120.941 89.4588 120.44 89.4588C119.952 89.4588 119.573 89.3245 119.304 89.0558C119.048 88.787 118.92 88.4084 118.92 87.9198V81.617H119.304L116.355 86.7472C116.184 87.0159 116 87.2174 115.805 87.3518C115.622 87.4862 115.371 87.5533 115.054 87.5533C114.748 87.5533 114.498 87.4862 114.302 87.3518C114.107 87.2174 113.93 87.0159 113.771 86.7472L110.803 81.5986H111.224V87.9198C111.224 88.4084 111.096 88.787 110.84 89.0558C110.583 89.3245 110.204 89.4588 109.704 89.4588ZM129.066 89.4588C128.529 89.4588 128.114 89.3123 127.82 89.0191C127.527 88.7137 127.381 88.2801 127.381 87.7182V82.698L128.077 84.5485L123.863 78.4839C123.655 78.1907 123.564 77.867 123.588 77.5128C123.625 77.1464 123.771 76.841 124.028 76.5967C124.296 76.3402 124.675 76.2119 125.164 76.2119C125.506 76.2119 125.817 76.2974 126.098 76.4684C126.379 76.6272 126.642 76.9021 126.886 77.2929L129.451 81.0673H128.791L131.357 77.2746C131.613 76.8837 131.876 76.6089 132.144 76.4501C132.413 76.2913 132.731 76.2119 133.097 76.2119C133.561 76.2119 133.922 76.328 134.178 76.56C134.435 76.7921 134.569 77.0853 134.581 77.4395C134.606 77.7937 134.496 78.1541 134.251 78.5205L130.074 84.5485L130.752 82.698V87.7182C130.752 88.8786 130.19 89.4588 129.066 89.4588Z" fill="black"/>
<path d="M77.1474 116.857C76.4688 116.891 75.9429 116.721 75.5697 116.348C75.2134 115.958 75.0353 115.466 75.0353 114.872C75.0353 114.414 75.1625 114.015 75.417 113.676C75.6715 113.337 76.0532 113.15 76.5621 113.116L77.2747 113.065C77.8854 113.031 78.335 112.887 78.6234 112.633C78.9118 112.361 79.056 111.92 79.056 111.309V100.85C79.056 100.07 79.2596 99.4848 79.6667 99.0946C80.0739 98.6874 80.6507 98.4839 81.3971 98.4839C82.1436 98.4839 82.7204 98.6874 83.1276 99.0946C83.5347 99.4848 83.7383 100.07 83.7383 100.85V111.233C83.7383 112.404 83.5262 113.396 83.1021 114.21C82.678 115.008 82.0418 115.627 81.1936 116.068C80.3623 116.492 79.3189 116.738 78.0635 116.806L77.1474 116.857ZM95.6133 116.933C93.7981 116.933 92.2034 116.552 90.8292 115.788C89.455 115.008 88.3862 113.922 87.6228 112.531C86.8764 111.14 86.5031 109.52 86.5031 107.67C86.5031 106.279 86.7152 105.015 87.1393 103.879C87.5804 102.742 88.1996 101.767 88.997 100.952C89.8113 100.138 90.7783 99.5187 91.898 99.0946C93.0177 98.6535 94.2561 98.433 95.6133 98.433C97.4286 98.433 99.0148 98.8147 100.372 99.5781C101.746 100.342 102.815 101.419 103.578 102.81C104.342 104.184 104.723 105.804 104.723 107.67C104.723 109.062 104.503 110.325 104.062 111.462C103.638 112.599 103.019 113.583 102.204 114.414C101.407 115.228 100.448 115.856 99.3286 116.297C98.2089 116.721 96.9705 116.933 95.6133 116.933ZM95.6133 113.014C96.5125 113.014 97.2759 112.802 97.9036 112.378C98.5313 111.954 99.0148 111.343 99.3541 110.546C99.6934 109.749 99.863 108.79 99.863 107.67C99.863 105.991 99.4898 104.685 98.7433 103.751C97.9969 102.818 96.9535 102.352 95.6133 102.352C94.7311 102.352 93.9677 102.564 93.323 102.988C92.6953 103.395 92.2118 103.997 91.8725 104.795C91.5332 105.575 91.3636 106.534 91.3636 107.67C91.3636 109.35 91.7368 110.665 92.4833 111.615C93.2297 112.548 94.2731 113.014 95.6133 113.014ZM109.931 116.653C109.134 116.653 108.523 116.45 108.099 116.043C107.692 115.618 107.488 115.016 107.488 114.236V101.13C107.488 100.35 107.692 99.7562 108.099 99.3491C108.523 98.9249 109.134 98.7129 109.931 98.7129H116.14C117.43 98.7129 118.524 98.908 119.423 99.2982C120.339 99.6714 121.035 100.206 121.51 100.901C121.985 101.597 122.222 102.411 122.222 103.344C122.222 104.396 121.917 105.295 121.306 106.042C120.712 106.788 119.898 107.297 118.863 107.569V107.161C120.085 107.382 121.026 107.874 121.688 108.637C122.366 109.401 122.706 110.376 122.706 111.564C122.706 113.142 122.137 114.388 121.001 115.305C119.881 116.204 118.346 116.653 116.395 116.653H109.931ZM111.967 113.218H115.759C116.624 113.218 117.251 113.057 117.642 112.734C118.049 112.395 118.252 111.895 118.252 111.233C118.252 110.571 118.049 110.079 117.642 109.757C117.251 109.435 116.624 109.274 115.759 109.274H111.967V113.218ZM111.967 105.838H115.3C116.149 105.838 116.768 105.685 117.158 105.38C117.565 105.075 117.769 104.608 117.769 103.98C117.769 103.353 117.565 102.895 117.158 102.606C116.768 102.301 116.149 102.148 115.3 102.148H111.967V105.838Z" fill="black"/>
<path d="M92.9724 90.2056C98.4703 90.2056 102.927 85.7486 102.927 80.2507C102.927 74.7528 98.4703 70.2959 92.9724 70.2959C87.4745 70.2959 83.0176 74.7528 83.0176 80.2507C83.0176 85.7486 87.4745 90.2056 92.9724 90.2056Z" fill="#4B98E6"/>
<circle cx="89.33" cy="77.6445" r="2.60539" fill="white"/>
<circle cx="89.3308" cy="77.6453" r="1.56324" fill="#161616"/>
<circle cx="89.3308" cy="77.6453" r="1.56324" fill="#161616"/>
<path d="M83.8564 82.814C82.5672 83.1611 80.2331 82.453 79.9376 81.3644C79.6421 80.2757 81.2994 78.4919 82.5858 78.1452C83.8721 77.7986 85.112 78.2279 85.552 79.85C85.998 81.4911 85.1427 82.4673 83.8535 82.8144L83.8564 82.814Z" fill="#DFB820"/>
<path d="M72.4835 88.4254C71.8863 88.4254 71.4248 88.2625 71.0991 87.9368C70.7734 87.5975 70.6105 87.1225 70.6105 86.5118V75.6203C70.6105 74.996 70.7734 74.5209 71.0991 74.1952C71.4248 73.8695 71.8863 73.7066 72.4835 73.7066C73.0942 73.7066 73.5556 73.8695 73.8678 74.1952C74.1935 74.5209 74.3564 74.996 74.3564 75.6203V86.5118C74.3564 87.1225 74.2003 87.5975 73.8882 87.9368C73.576 88.2625 73.1078 88.4254 72.4835 88.4254Z" fill="black"/>
<path d="M109.704 89.4588C109.215 89.4588 108.836 89.3245 108.568 89.0558C108.311 88.787 108.183 88.4084 108.183 87.9198V77.751C108.183 77.2502 108.323 76.8715 108.604 76.615C108.885 76.3463 109.282 76.2119 109.795 76.2119C110.223 76.2119 110.559 76.2974 110.803 76.4684C111.059 76.6272 111.292 76.896 111.499 77.2746L115.438 84.347H114.797L118.718 77.2746C118.938 76.896 119.17 76.6272 119.414 76.4684C119.671 76.2974 120.013 76.2119 120.44 76.2119C120.929 76.2119 121.302 76.3463 121.558 76.615C121.827 76.8715 121.961 77.2502 121.961 77.751V87.9198C121.961 88.4084 121.833 88.787 121.576 89.0558C121.32 89.3245 120.941 89.4588 120.44 89.4588C119.952 89.4588 119.573 89.3245 119.304 89.0558C119.048 88.787 118.92 88.4084 118.92 87.9198V81.617H119.304L116.355 86.7472C116.184 87.0159 116 87.2174 115.805 87.3518C115.622 87.4862 115.371 87.5533 115.054 87.5533C114.748 87.5533 114.498 87.4862 114.302 87.3518C114.107 87.2174 113.93 87.0159 113.771 86.7472L110.803 81.5986H111.224V87.9198C111.224 88.4084 111.096 88.787 110.84 89.0558C110.583 89.3245 110.204 89.4588 109.704 89.4588ZM129.066 89.4588C128.529 89.4588 128.114 89.3123 127.82 89.0191C127.527 88.7137 127.381 88.2801 127.381 87.7182V82.698L128.077 84.5485L123.863 78.4839C123.655 78.1907 123.564 77.867 123.588 77.5128C123.625 77.1464 123.771 76.841 124.028 76.5967C124.296 76.3402 124.675 76.2119 125.164 76.2119C125.506 76.2119 125.817 76.2974 126.098 76.4684C126.379 76.6272 126.642 76.9021 126.886 77.2929L129.451 81.0673H128.791L131.357 77.2746C131.613 76.8837 131.876 76.6089 132.144 76.4501C132.413 76.2913 132.731 76.2119 133.097 76.2119C133.561 76.2119 133.922 76.328 134.178 76.56C134.435 76.7921 134.569 77.0853 134.581 77.4395C134.606 77.7937 134.496 78.1541 134.251 78.5205L130.074 84.5485L130.752 82.698V87.7182C130.752 88.8786 130.19 89.4588 129.066 89.4588Z" fill="black"/>
<path d="M77.1474 116.857C76.4688 116.891 75.9429 116.721 75.5697 116.348C75.2134 115.958 75.0353 115.466 75.0353 114.872C75.0353 114.414 75.1625 114.015 75.417 113.676C75.6715 113.337 76.0532 113.15 76.5621 113.116L77.2747 113.065C77.8854 113.031 78.335 112.887 78.6234 112.633C78.9118 112.361 79.056 111.92 79.056 111.309V100.85C79.056 100.07 79.2596 99.4848 79.6667 99.0946C80.0739 98.6874 80.6507 98.4839 81.3971 98.4839C82.1436 98.4839 82.7204 98.6874 83.1276 99.0946C83.5347 99.4848 83.7383 100.07 83.7383 100.85V111.233C83.7383 112.404 83.5262 113.396 83.1021 114.21C82.678 115.008 82.0418 115.627 81.1936 116.068C80.3623 116.492 79.3189 116.738 78.0635 116.806L77.1474 116.857ZM95.6133 116.933C93.7981 116.933 92.2034 116.552 90.8292 115.788C89.455 115.008 88.3862 113.922 87.6228 112.531C86.8764 111.14 86.5031 109.52 86.5031 107.67C86.5031 106.279 86.7152 105.015 87.1393 103.879C87.5804 102.742 88.1996 101.767 88.997 100.952C89.8113 100.138 90.7783 99.5187 91.898 99.0946C93.0177 98.6535 94.2561 98.433 95.6133 98.433C97.4286 98.433 99.0148 98.8147 100.372 99.5781C101.746 100.342 102.815 101.419 103.578 102.81C104.342 104.184 104.723 105.804 104.723 107.67C104.723 109.062 104.503 110.325 104.062 111.462C103.638 112.599 103.019 113.583 102.204 114.414C101.407 115.228 100.448 115.856 99.3286 116.297C98.2089 116.721 96.9705 116.933 95.6133 116.933ZM95.6133 113.014C96.5125 113.014 97.2759 112.802 97.9036 112.378C98.5313 111.954 99.0148 111.343 99.3541 110.546C99.6934 109.749 99.863 108.79 99.863 107.67C99.863 105.991 99.4898 104.685 98.7433 103.751C97.9969 102.818 96.9535 102.352 95.6133 102.352C94.7311 102.352 93.9677 102.564 93.323 102.988C92.6953 103.395 92.2118 103.997 91.8725 104.795C91.5332 105.575 91.3636 106.534 91.3636 107.67C91.3636 109.35 91.7368 110.665 92.4833 111.615C93.2297 112.548 94.2731 113.014 95.6133 113.014ZM109.931 116.653C109.134 116.653 108.523 116.45 108.099 116.043C107.692 115.618 107.488 115.016 107.488 114.236V101.13C107.488 100.35 107.692 99.7562 108.099 99.3491C108.523 98.9249 109.134 98.7129 109.931 98.7129H116.14C117.43 98.7129 118.524 98.908 119.423 99.2982C120.339 99.6714 121.035 100.206 121.51 100.901C121.985 101.597 122.222 102.411 122.222 103.344C122.222 104.396 121.917 105.295 121.306 106.042C120.712 106.788 119.898 107.297 118.863 107.569V107.161C120.085 107.382 121.026 107.874 121.688 108.637C122.366 109.401 122.706 110.376 122.706 111.564C122.706 113.142 122.137 114.388 121.001 115.305C119.881 116.204 118.346 116.653 116.395 116.653H109.931ZM111.967 113.218H115.759C116.624 113.218 117.251 113.057 117.642 112.734C118.049 112.395 118.252 111.895 118.252 111.233C118.252 110.571 118.049 110.079 117.642 109.757C117.251 109.435 116.624 109.274 115.759 109.274H111.967V113.218ZM111.967 105.838H115.3C116.149 105.838 116.768 105.685 117.158 105.38C117.565 105.075 117.769 104.608 117.769 103.98C117.769 103.353 117.565 102.895 117.158 102.606C116.768 102.301 116.149 102.148 115.3 102.148H111.967V105.838Z" fill="black"/>
</svg>
