<svg width="1024" height="1024" viewBox="0 0 1024 1024" fill="none" xmlns="http://www.w3.org/2000/svg">
<path d="M865.291 678.558C865.291 724.465 828.071 761.684 782.165 761.684H241.847C195.94 761.684 158.721 724.465 158.721 678.558V269.434C158.721 223.527 279.066 138.24 324.972 138.24H753.59C817.888 138.24 865.291 186.287 865.291 249.941V678.558Z" fill="#639A0A"/>
<path d="M823.724 761.684C823.724 807.59 786.505 844.809 740.598 844.809H283.406C237.5 844.809 200.28 807.59 200.28 761.684V262.928C200.28 177.329 199.844 179.802 304.188 179.802H740.598C786.505 179.802 823.724 217.022 823.724 262.928V761.684Z" fill="#C0D6EF"/>
<path d="M782.165 782.465C782.165 816.9 754.255 844.809 719.82 844.809H221.065C186.63 844.809 158.721 816.9 158.721 782.465V283.71C158.721 249.275 186.63 221.365 221.065 221.365H719.82C754.255 221.365 782.165 249.275 782.165 283.71V782.465Z" fill="#D7E8FC"/>
<path d="M782.172 803.248C782.172 849.154 744.953 886.374 699.047 886.374H262.636C216.729 886.374 179.51 849.154 179.51 803.248V346.056C179.51 300.149 216.729 262.93 262.636 262.93H699.047C744.953 262.93 782.172 300.149 782.172 346.056V803.248Z" fill="#8DD41A"/>
<path d="M740.609 803.247C740.609 849.154 703.39 886.373 657.484 886.373H262.636C216.729 886.373 179.51 849.154 179.51 803.247V387.618C179.51 341.712 216.729 304.492 262.636 304.492H664.445C710.352 304.492 740.609 334.75 740.609 380.656V803.247Z" fill="#AAF82B"/>
<path d="M262.628 262.929C227.549 262.929 226.655 222.987 241.847 205.78C259.137 186.225 286.007 179.803 334.075 179.803H366.535V138.24H310.031C227.549 138.24 158.721 190.194 158.721 249.941V803.247C158.721 849.154 195.94 886.373 241.847 886.373H283.41V262.929H262.628Z" fill="#639A0A"/>
</svg>
