<svg width="200" height="200" viewBox="0 0 200 200" fill="none" xmlns="http://www.w3.org/2000/svg">
<mask id="path-1-outside-1_1347_11707" maskUnits="userSpaceOnUse" x="13" y="19" width="173" height="169" fill="black">
<rect fill="white" x="13" y="19" width="173" height="169"/>
<path d="M100.406 25C122.262 25 139.97 43.6005 139.97 68.5625C139.97 70.7855 139.315 75.4701 139.077 77.0967C146.378 75.3594 162.375 71.5713 172.497 69.2354C184.736 66.4115 181.019 89.7315 158.43 100.816C161.016 106.573 162.477 112.775 162.477 119.203H162.449C162.449 129.787 158.896 139.208 152.768 146.937C147.297 153.835 139.776 159.392 130.896 163.24L132.57 169.643L138.591 169.86C139.36 169.888 139.962 170.535 139.935 171.305C139.907 172.074 139.26 172.676 138.49 172.648L133.368 172.463L135.027 178.098C135.245 178.837 134.822 179.611 134.083 179.829C133.344 180.046 132.568 179.624 132.351 178.885L130.912 173.998L125.782 180.571C125.308 181.178 124.431 181.286 123.824 180.812C123.217 180.338 123.109 179.461 123.583 178.854L129.961 170.685L128.292 164.306C120.462 167.319 111.683 169.05 102.388 169.267C101.727 169.285 101.057 169.294 100.388 169.294C99.7183 169.294 99.0488 169.294 98.3887 169.267C87.8417 169.021 77.9589 166.824 69.374 163.02L67.2207 168.357L71.9814 175.475C72.4097 176.115 72.2385 176.982 71.5986 177.41C70.9584 177.838 70.0916 177.666 69.6631 177.026L65.6982 171.102L61.0723 178.609C60.668 179.265 59.8082 179.47 59.1523 179.065C58.4969 178.661 58.2926 177.802 58.6963 177.146L62.6719 170.695L55.8672 172.378L55.7266 172.405C55.0267 172.505 54.3511 172.059 54.1777 171.358C53.9932 170.611 54.4496 169.854 55.1973 169.669L64.624 167.338L66.8438 161.834C59.2816 158.087 52.8443 153.039 48.0088 146.945V146.937C41.88 139.208 38.3272 129.787 38.3271 119.203C38.3271 113.224 39.4604 107.475 41.5518 102.106C18.4283 91.1441 14.5382 67.3862 26.8848 70.2354C37.0983 72.5923 53.2914 76.4281 60.499 78.1436C60.5981 78.0717 60.6973 77.9991 60.7969 77.9277C60.7972 77.8773 60.834 71.2771 60.834 68.5625C60.834 43.6006 78.5507 25.0001 100.406 25Z"/>
</mask>
<path d="M100.406 25C122.262 25 139.97 43.6005 139.97 68.5625C139.97 70.7855 139.315 75.4701 139.077 77.0967C146.378 75.3594 162.375 71.5713 172.497 69.2354C184.736 66.4115 181.019 89.7315 158.43 100.816C161.016 106.573 162.477 112.775 162.477 119.203H162.449C162.449 129.787 158.896 139.208 152.768 146.937C147.297 153.835 139.776 159.392 130.896 163.24L132.57 169.643L138.591 169.86C139.36 169.888 139.962 170.535 139.935 171.305C139.907 172.074 139.26 172.676 138.49 172.648L133.368 172.463L135.027 178.098C135.245 178.837 134.822 179.611 134.083 179.829C133.344 180.046 132.568 179.624 132.351 178.885L130.912 173.998L125.782 180.571C125.308 181.178 124.431 181.286 123.824 180.812C123.217 180.338 123.109 179.461 123.583 178.854L129.961 170.685L128.292 164.306C120.462 167.319 111.683 169.05 102.388 169.267C101.727 169.285 101.057 169.294 100.388 169.294C99.7183 169.294 99.0488 169.294 98.3887 169.267C87.8417 169.021 77.9589 166.824 69.374 163.02L67.2207 168.357L71.9814 175.475C72.4097 176.115 72.2385 176.982 71.5986 177.41C70.9584 177.838 70.0916 177.666 69.6631 177.026L65.6982 171.102L61.0723 178.609C60.668 179.265 59.8082 179.47 59.1523 179.065C58.4969 178.661 58.2926 177.802 58.6963 177.146L62.6719 170.695L55.8672 172.378L55.7266 172.405C55.0267 172.505 54.3511 172.059 54.1777 171.358C53.9932 170.611 54.4496 169.854 55.1973 169.669L64.624 167.338L66.8438 161.834C59.2816 158.087 52.8443 153.039 48.0088 146.945V146.937C41.88 139.208 38.3272 129.787 38.3271 119.203C38.3271 113.224 39.4604 107.475 41.5518 102.106C18.4283 91.1441 14.5382 67.3862 26.8848 70.2354C37.0983 72.5923 53.2914 76.4281 60.499 78.1436C60.5981 78.0717 60.6973 77.9991 60.7969 77.9277C60.7972 77.8773 60.834 71.2771 60.834 68.5625C60.834 43.6006 78.5507 25.0001 100.406 25Z" fill="#276288"/>
<path d="M100.406 25V19H100.406L100.406 25ZM139.97 68.5625H145.97V68.5625L139.97 68.5625ZM139.077 77.0967L133.14 76.2301C132.853 78.1981 133.559 80.1806 135.027 81.5232C136.494 82.8658 138.531 83.3941 140.466 82.9337L139.077 77.0967ZM172.497 69.2354L171.148 63.389L171.148 63.389L172.497 69.2354ZM158.43 100.816L155.787 95.43C152.883 96.8548 151.631 100.325 152.956 103.275L158.43 100.816ZM162.477 119.203V125.203C165.79 125.203 168.477 122.517 168.477 119.203H162.477ZM162.449 119.203V113.203C159.136 113.203 156.449 115.889 156.449 119.203L162.449 119.203ZM152.768 146.937L148.066 143.208L148.066 143.209L152.768 146.937ZM130.896 163.24L128.51 157.735C125.793 158.912 124.342 161.895 125.091 164.759L130.896 163.24ZM132.57 169.643L126.766 171.161C127.436 173.723 129.707 175.543 132.353 175.639L132.57 169.643ZM138.591 169.86L138.809 163.864L138.808 163.864L138.591 169.86ZM139.935 171.305L145.931 171.522L145.931 171.519L139.935 171.305ZM138.49 172.648L138.273 178.645L138.275 178.645L138.49 172.648ZM133.368 172.463L133.585 166.467C131.657 166.397 129.813 167.259 128.629 168.783C127.446 170.307 127.067 172.307 127.612 174.158L133.368 172.463ZM135.027 178.098L140.783 176.404L140.783 176.403L135.027 178.098ZM134.083 179.829L135.776 185.585L135.778 185.585L134.083 179.829ZM132.351 178.885L138.106 177.191L138.106 177.19L132.351 178.885ZM130.912 173.998L136.668 172.304C136.033 170.146 134.244 168.525 132.035 168.104C129.825 167.683 127.566 168.533 126.182 170.307L130.912 173.998ZM125.782 180.571L130.51 184.266L130.512 184.263L125.782 180.571ZM123.824 180.812L120.131 185.541L120.133 185.543L123.824 180.812ZM123.583 178.854L118.854 175.161L118.853 175.162L123.583 178.854ZM129.961 170.685L134.69 174.377C135.841 172.903 136.239 170.976 135.766 169.166L129.961 170.685ZM128.292 164.306L134.097 162.787C133.664 161.135 132.549 159.746 131.03 158.967C129.51 158.188 127.731 158.093 126.137 158.706L128.292 164.306ZM102.388 169.267L102.248 163.268C102.238 163.268 102.229 163.269 102.219 163.269L102.388 169.267ZM100.388 169.294V175.294V169.294ZM98.3887 169.267L98.6419 163.272C98.604 163.27 98.5661 163.269 98.5282 163.268L98.3887 169.267ZM69.374 163.02L71.805 157.534C70.3181 156.875 68.6274 156.848 67.1201 157.459C65.6128 158.07 64.4182 159.267 63.8097 160.775L69.374 163.02ZM67.2207 168.357L61.6564 166.113C60.9137 167.954 61.1298 170.043 62.2336 171.693L67.2207 168.357ZM71.9814 175.475L66.9943 178.811L66.9947 178.811L71.9814 175.475ZM71.5986 177.41L74.9347 182.397L74.9377 182.395L71.5986 177.41ZM69.6631 177.026L64.6766 180.363L64.6773 180.364L69.6631 177.026ZM65.6982 171.102L70.6847 167.765C69.5489 166.067 67.6276 165.064 65.5856 165.103C63.5437 165.141 61.6614 166.215 60.59 167.954L65.6982 171.102ZM61.0723 178.609L66.1801 181.757L66.1805 181.757L61.0723 178.609ZM59.1523 179.065L56.0029 184.172L56.0044 184.173L59.1523 179.065ZM58.6963 177.146L53.5883 173.999L53.5868 174.001L58.6963 177.146ZM62.6719 170.695L67.7798 173.843C69.0583 171.769 68.955 169.127 67.5184 167.158C66.0818 165.19 63.5973 164.286 61.2316 164.871L62.6719 170.695ZM55.8672 172.378L57.0124 178.268C57.1113 178.248 57.2097 178.227 57.3074 178.202L55.8672 172.378ZM55.7266 172.405L56.5693 178.346C56.6705 178.331 56.7714 178.314 56.8718 178.295L55.7266 172.405ZM54.1777 171.358L48.3526 172.796L48.3531 172.799L54.1777 171.358ZM55.1973 169.669L53.757 163.844L53.7564 163.845L55.1973 169.669ZM64.624 167.338L66.0643 173.162C67.934 172.7 69.4681 171.368 70.1885 169.582L64.624 167.338ZM66.8438 161.834L72.4083 164.078C73.581 161.17 72.3171 157.85 69.5076 156.458L66.8438 161.834ZM48.0088 146.945H42.0088C42.0088 148.3 42.4669 149.614 43.3087 150.675L48.0088 146.945ZM48.0088 146.937H54.0088C54.0088 145.583 53.5511 144.269 52.71 143.208L48.0088 146.937ZM38.3271 119.203H32.3271V119.203L38.3271 119.203ZM41.5518 102.106L47.1425 104.284C48.2852 101.351 46.9666 98.0334 44.122 96.6849L41.5518 102.106ZM26.8848 70.2354L28.2339 64.389L26.8848 70.2354ZM60.499 78.1436L59.1098 83.9805C60.8123 84.3857 62.6068 84.0274 64.0231 82.9996L60.499 78.1436ZM60.7969 77.9277L64.2918 82.8048C65.8546 81.6849 66.786 79.8839 66.7968 77.9613L60.7969 77.9277ZM60.834 68.5625L54.834 68.5625V68.5625H60.834ZM100.406 25V31C118.495 31 133.97 46.4418 133.97 68.5625L139.97 68.5625L145.97 68.5625C145.97 40.7593 126.029 19 100.406 19V25ZM139.97 68.5625H133.97C133.97 69.2819 133.848 70.6894 133.653 72.3555C133.469 73.9278 133.255 75.4431 133.14 76.2301L139.077 77.0967L145.014 77.9633C145.227 76.5057 145.97 71.3217 145.97 68.5625H139.97ZM139.077 77.0967L140.466 82.9337C147.766 81.1967 163.745 77.4127 173.846 75.0817L172.497 69.2354L171.148 63.389C161.004 65.7299 144.99 69.5221 137.688 71.2597L139.077 77.0967ZM172.497 69.2354L173.846 75.0817C174.559 74.9173 174.576 75.0775 174.205 74.9368C173.741 74.7611 173.428 74.4047 173.315 74.1863C173.257 74.0759 173.715 75.1852 172.816 77.9611C171.144 83.1222 165.777 90.5275 155.787 95.43L158.43 100.816L161.073 106.203C173.672 100.02 181.458 90.2232 184.232 81.6591C185.556 77.5724 186.06 72.6883 183.963 68.6533C182.83 66.4725 180.975 64.6709 178.461 63.7171C176.039 62.7982 173.495 62.8474 171.148 63.389L172.497 69.2354ZM158.43 100.816L152.956 103.275C155.227 108.33 156.477 113.696 156.477 119.203H162.477H168.477C168.477 111.853 166.804 104.817 163.903 98.3579L158.43 100.816ZM162.477 119.203V113.203H162.449V119.203V125.203H162.477V119.203ZM162.449 119.203L156.449 119.203C156.449 128.375 153.391 136.494 148.066 143.208L152.768 146.937L157.469 150.665C164.402 141.922 168.449 131.199 168.449 119.203L162.449 119.203ZM152.768 146.937L148.066 143.209C143.285 149.238 136.602 154.228 128.51 157.735L130.896 163.24L133.281 168.745C142.949 164.556 151.309 158.433 157.469 150.664L152.768 146.937ZM130.896 163.24L125.091 164.759L126.766 171.161L132.57 169.643L138.375 168.124L136.7 161.722L130.896 163.24ZM132.57 169.643L132.353 175.639L138.374 175.856L138.591 169.86L138.808 163.864L132.787 163.646L132.57 169.643ZM138.591 169.86L138.372 175.856C135.832 175.764 133.848 173.631 133.938 171.091L139.935 171.305L145.931 171.519C146.076 167.439 142.889 164.013 138.809 163.864L138.591 169.86ZM139.935 171.305L133.939 171.087C134.031 168.546 136.164 166.561 138.705 166.652L138.49 172.648L138.275 178.645C142.356 178.791 145.782 175.602 145.931 171.522L139.935 171.305ZM138.49 172.648L138.707 166.652L133.585 166.467L133.368 172.463L133.151 178.459L138.273 178.645L138.49 172.648ZM133.368 172.463L127.612 174.158L129.272 179.792L135.027 178.098L140.783 176.403L139.124 170.768L133.368 172.463ZM135.027 178.098L129.271 179.791C128.553 177.349 129.952 174.791 132.388 174.074L134.083 179.829L135.778 185.585C139.692 184.432 141.937 180.325 140.783 176.404L135.027 178.098ZM134.083 179.829L132.39 174.073C134.827 173.356 137.388 174.748 138.106 177.191L132.351 178.885L126.595 180.579C127.749 184.499 131.861 186.737 135.776 185.585L134.083 179.829ZM132.351 178.885L138.106 177.19L136.668 172.304L130.912 173.998L125.156 175.692L126.595 180.579L132.351 178.885ZM130.912 173.998L126.182 170.307L121.052 176.88L125.782 180.571L130.512 184.263L135.642 177.689L130.912 173.998ZM125.782 180.571L121.055 176.877C122.619 174.876 125.509 174.517 127.515 176.082L123.824 180.812L120.133 185.543C123.353 188.055 127.998 187.48 130.51 184.266L125.782 180.571ZM123.824 180.812L127.517 176.084C129.522 177.649 129.877 180.541 128.313 182.545L123.583 178.854L118.853 175.162C116.341 178.381 116.913 183.028 120.131 185.541L123.824 180.812ZM123.583 178.854L128.312 182.546L134.69 174.377L129.961 170.685L125.232 166.992L118.854 175.161L123.583 178.854ZM129.961 170.685L135.766 169.166L134.097 162.787L128.292 164.306L122.487 165.824L124.156 172.203L129.961 170.685ZM128.292 164.306L126.137 158.706C118.986 161.458 110.892 163.067 102.248 163.268L102.388 169.267L102.527 175.265C112.474 175.034 121.938 173.18 130.447 169.905L128.292 164.306ZM102.388 169.267L102.219 163.269C101.619 163.286 101.006 163.294 100.388 163.294V169.294V175.294C101.109 175.294 101.836 175.285 102.557 175.264L102.388 169.267ZM100.388 169.294V163.294C99.691 163.294 99.1524 163.294 98.6419 163.272L98.3887 169.267L98.1355 175.261C98.9452 175.295 99.7455 175.294 100.388 175.294V169.294ZM98.3887 169.267L98.5282 163.268C88.718 163.04 79.62 160.997 71.805 157.534L69.374 163.02L66.9431 168.505C76.2977 172.651 86.9653 175.002 98.2491 175.265L98.3887 169.267ZM69.374 163.02L63.8097 160.775L61.6564 166.113L67.2207 168.357L72.785 170.602L74.9383 165.264L69.374 163.02ZM67.2207 168.357L62.2336 171.693L66.9943 178.811L71.9814 175.475L76.9686 172.139L72.2078 165.021L67.2207 168.357ZM71.9814 175.475L66.9947 178.811C65.5827 176.701 66.1447 173.842 68.2595 172.425L71.5986 177.41L74.9377 182.395C78.3322 180.121 79.2368 175.529 76.9682 172.138L71.9814 175.475ZM71.5986 177.41L68.2626 172.423C70.3774 171.008 73.2354 171.577 74.6489 173.688L69.6631 177.026L64.6773 180.364C66.9477 183.756 71.5394 184.668 74.9347 182.397L71.5986 177.41ZM69.6631 177.026L74.6496 173.689L70.6847 167.765L65.6982 171.102L60.7118 174.438L64.6766 180.363L69.6631 177.026ZM65.6982 171.102L60.59 167.954L55.9641 175.462L61.0723 178.609L66.1805 181.757L70.8064 174.249L65.6982 171.102ZM61.0723 178.609L55.9644 175.461C57.2976 173.298 60.1334 172.622 62.3003 173.958L59.1523 179.065L56.0044 184.173C59.4831 186.317 64.0384 185.232 66.1801 181.757L61.0723 178.609ZM59.1523 179.065L62.3018 173.958C64.4635 175.292 65.1394 178.126 63.8057 180.292L58.6963 177.146L53.5868 174.001C51.4459 177.479 52.5304 182.031 56.0029 184.172L59.1523 179.065ZM58.6963 177.146L63.8042 180.294L67.7798 173.843L62.6719 170.695L57.5639 167.547L53.5883 173.999L58.6963 177.146ZM62.6719 170.695L61.2316 164.871L54.4269 166.553L55.8672 172.378L57.3074 178.202L64.1121 176.52L62.6719 170.695ZM55.8672 172.378L54.722 166.488L54.5813 166.516L55.7266 172.405L56.8718 178.295L57.0124 178.268L55.8672 172.378ZM55.7266 172.405L54.8839 166.465C57.2005 166.136 59.4292 167.6 60.0023 169.918L54.1777 171.358L48.3531 172.799C49.273 176.519 52.8528 178.873 56.5693 178.346L55.7266 172.405ZM54.1777 171.358L60.0029 169.921C60.6114 172.386 59.1089 174.882 56.6382 175.493L55.1973 169.669L53.7564 163.845C49.7904 164.826 47.3749 168.835 48.3526 172.796L54.1777 171.358ZM55.1973 169.669L56.6376 175.494L66.0643 173.162L64.624 167.338L63.1837 161.513L53.757 163.844L55.1973 169.669ZM64.624 167.338L70.1885 169.582L72.4083 164.078L66.8438 161.834L61.2792 159.59L59.0595 165.094L64.624 167.338ZM66.8438 161.834L69.5076 156.458C62.6458 153.058 56.9351 148.542 52.7088 143.216L48.0088 146.945L43.3087 150.675C48.7535 157.536 55.9174 163.116 64.1799 167.21L66.8438 161.834ZM48.0088 146.945H54.0088V146.937H48.0088H42.0088V146.945H48.0088ZM48.0088 146.937L52.71 143.208C47.3853 136.494 44.3272 128.375 44.3271 119.203L38.3271 119.203L32.3271 119.203C32.3272 131.199 36.3746 141.922 43.3076 150.665L48.0088 146.937ZM38.3271 119.203H44.3271C44.3271 113.991 45.3135 108.979 47.1425 104.284L41.5518 102.106L35.961 99.9284C33.6073 105.97 32.3271 112.457 32.3271 119.203H38.3271ZM41.5518 102.106L44.122 96.6849C33.8903 91.8342 28.3619 84.3484 26.6087 79.0929C25.666 76.2671 26.1112 75.0986 26.0705 75.179C25.9659 75.386 25.6589 75.7504 25.186 75.9332C24.8059 76.0802 24.8166 75.9158 25.5356 76.0817L26.8848 70.2354L28.2339 64.389C25.8663 63.8426 23.2978 63.7973 20.8576 64.7411C18.3245 65.7207 16.4765 67.5593 15.3616 69.7642C13.3005 73.8405 13.8484 78.7624 15.2254 82.8902C18.1115 91.542 26.0897 101.416 38.9815 107.528L41.5518 102.106ZM26.8848 70.2354L25.5356 76.0817C35.7274 78.4337 51.9032 82.2653 59.1098 83.9805L60.499 78.1436L61.8882 72.3066C54.6797 70.591 38.4692 66.751 28.2339 64.389L26.8848 70.2354ZM60.499 78.1436L64.0231 82.9996C64.1467 82.9098 64.2115 82.8623 64.2918 82.8048L60.7969 77.9277L57.3019 73.0507C57.183 73.1359 57.0494 73.2335 56.9749 73.2875L60.499 78.1436ZM60.7969 77.9277L66.7968 77.9613C66.797 77.9191 66.834 71.2981 66.834 68.5625H60.834H54.834C54.834 71.256 54.7973 77.8354 54.797 77.8941L60.7969 77.9277ZM60.834 68.5625L66.834 68.5625C66.834 46.4437 82.3162 31.0001 100.406 31L100.406 25L100.406 19C74.7851 19.0002 54.834 40.7576 54.834 68.5625L60.834 68.5625Z" fill="white" mask="url(#path-1-outside-1_1347_11707)"/>
<path d="M127.21 154.655C127.909 154.472 128.622 154.852 128.869 155.514L128.913 155.651L132.57 169.643L138.591 169.861C139.36 169.889 139.962 170.535 139.935 171.305C139.907 172.075 139.26 172.677 138.49 172.649L133.369 172.463L135.027 178.098C135.245 178.837 134.822 179.612 134.083 179.83C133.344 180.047 132.568 179.624 132.35 178.885L130.912 173.998L125.782 180.572C125.308 181.178 124.431 181.286 123.824 180.813C123.217 180.338 123.109 179.461 123.583 178.853L129.961 170.685L126.214 156.357L126.184 156.217C126.076 155.519 126.512 154.837 127.21 154.655Z" fill="#474747"/>
<path d="M69.9785 154.088C70.3079 153.462 71.0644 153.175 71.7344 153.445C72.4487 153.734 72.794 154.546 72.5059 155.261L67.2207 168.357L71.9814 175.475C72.4098 176.115 72.2388 176.982 71.5986 177.41C70.9584 177.838 70.0916 177.666 69.6631 177.026L65.6982 171.102L61.0723 178.609C60.668 179.265 59.8082 179.47 59.1523 179.065C58.4969 178.661 58.2926 177.802 58.6963 177.146L62.6719 170.695L55.8672 172.378L55.7266 172.405C55.0267 172.505 54.3511 172.059 54.1777 171.358C53.9929 170.611 54.4495 169.854 55.1973 169.669L64.624 167.338L69.9189 154.217L69.9785 154.088Z" fill="#474747"/>
<path d="M162.449 119.203C162.449 129.787 158.896 139.208 152.767 146.936C142.081 160.412 123.574 168.773 102.388 169.266C101.727 169.285 101.058 169.294 100.388 169.294C99.7185 169.294 99.0488 169.294 98.3885 169.266C77.2024 168.773 58.6948 160.412 48.0088 146.946C48.0088 146.946 48.0088 146.946 48.0088 146.936C41.8799 139.208 38.3271 129.787 38.3271 119.203C38.3271 102.592 47.0787 87.7584 60.7967 77.928C60.7967 77.928 60.8339 71.2876 60.8339 68.5626C60.8339 43.6006 78.551 25 100.407 25C122.262 25 139.97 43.6006 139.97 68.5626C139.97 71.2783 138.994 77.6676 138.994 77.6676C152.73 87.498 162.477 102.592 162.477 119.203H162.449Z" fill="#4B9AE8"/>
<path d="M79.7282 59.2619C83.7962 59.2619 87.094 55.9641 87.094 51.8961C87.094 47.8281 83.7962 44.5303 79.7282 44.5303C75.6601 44.5303 72.3623 47.8281 72.3623 51.8961C72.3623 55.9641 75.6601 59.2619 79.7282 59.2619Z" fill="white"/>
<path d="M79.6142 56.3651C82.0531 56.3651 84.0302 54.388 84.0302 51.9492C84.0302 49.5103 82.0531 47.5332 79.6142 47.5332C77.1753 47.5332 75.1982 49.5103 75.1982 51.9492C75.1982 54.388 77.1753 56.3651 79.6142 56.3651Z" fill="black"/>
<path d="M118.789 56.4719C122.857 56.4719 126.155 53.1741 126.155 49.1061C126.155 45.038 122.857 41.7402 118.789 41.7402C114.721 41.7402 111.423 45.038 111.423 49.1061C111.423 53.1741 114.721 56.4719 118.789 56.4719Z" fill="white"/>
<path d="M118.675 53.5751C121.114 53.5751 123.091 51.598 123.091 49.1591C123.091 46.7203 121.114 44.7432 118.675 44.7432C116.236 44.7432 114.259 46.7203 114.259 49.1591C114.259 51.598 116.236 53.5751 118.675 53.5751Z" fill="black"/>
<path d="M108.736 61.3844C107.956 64.9261 102.37 69.4927 98.5528 68.6938C94.7357 67.8949 91.5684 61.4915 92.3512 57.9502C93.1305 54.4084 96.2626 52.06 101.959 53.2525C107.72 54.461 109.518 57.8431 108.736 61.3844Z" fill="#EAC00F"/>
<path d="M26.885 70.2353C37.285 72.6353 53.885 76.5686 60.885 78.2353C70.8852 86.2353 71.885 113.735 45.385 103.735C18.885 93.7353 13.885 67.2353 26.885 70.2353Z" fill="#276288"/>
<path d="M172.497 69.2353C162.097 71.6353 145.497 75.5686 138.497 77.2353C128.497 85.2353 127.497 112.735 153.997 102.735C180.497 92.7353 185.497 66.2353 172.497 69.2353Z" fill="#276288"/>
</svg>
