<svg width="200" height="200" viewBox="0 0 200 200" fill="none" xmlns="http://www.w3.org/2000/svg">
<mask id="path-1-outside-1_1347_4069" maskUnits="userSpaceOnUse" x="11.0039" y="46.2227" width="179" height="109" fill="black">
<rect fill="white" x="11.0039" y="46.2227" width="179" height="109"/>
<path d="M142.103 52.2236C146.944 52.2236 151.367 52.7839 155.368 53.9043C159.41 54.9847 162.851 56.4454 165.692 58.2861C168.534 60.1269 171.055 62.3883 173.256 65.0693C175.456 67.7102 177.217 70.4716 178.537 73.3525C179.858 76.2336 180.939 79.3751 181.779 82.7764C182.62 86.1375 183.199 89.3594 183.52 92.4404C183.84 95.5214 184 98.7229 184 102.044C184 109.647 182.899 116.43 180.698 122.393C178.537 128.355 175.516 133.237 171.635 137.038C167.793 140.839 163.311 143.721 158.189 145.682C153.068 147.642 147.465 148.623 141.383 148.623C136.861 148.623 132.739 148.183 129.018 147.303C125.336 146.462 122.134 145.302 119.413 143.821C116.692 142.341 114.271 140.46 112.15 138.179C110.07 135.898 108.329 133.477 106.929 130.916C105.568 128.315 104.408 125.353 103.447 122.032C102.487 118.671 101.747 115.349 101.227 112.068C100.746 108.787 100.366 105.125 100.086 101.084C100.086 70.7118 114.091 54.4247 142.103 52.2236ZM61.3164 53.9512C64.2317 53.9512 67.2054 54.2619 70.2373 54.8838C73.2691 55.5057 76.2815 56.497 79.2744 57.8574C82.2673 59.2178 84.9108 60.8503 87.2041 62.7549C89.5363 64.6595 91.4221 67.0306 92.8604 69.8682C94.2985 72.7057 95.0176 75.7959 95.0176 79.1387C95.0176 82.1316 94.6092 84.7553 93.793 87.0098C93.0156 89.2254 91.8685 91.0333 90.3525 92.4326C88.8367 93.8318 87.3018 94.9594 85.7471 95.8145C84.1923 96.6307 82.3458 97.3695 80.208 98.0303C86.2327 99.896 90.5283 102.48 93.0938 105.784C95.6981 109.088 97 113.267 97 118.32C97 121.896 96.4753 125.162 95.4258 128.116C94.3763 131.031 93.0151 133.48 91.3438 135.462C89.7112 137.444 87.6902 139.174 85.2803 140.651C82.9092 142.128 80.5381 143.276 78.167 144.092C75.7959 144.947 73.2108 145.628 70.4121 146.133C67.6137 146.638 65.1456 146.969 63.0078 147.124C60.8699 147.28 58.6734 147.356 56.4189 147.356C50.705 147.356 45.6127 146.851 41.1426 145.841C36.6727 144.869 32.6304 143.295 29.0156 141.118C25.4007 138.903 22.5631 135.851 20.5029 131.964C18.4428 128.038 17.276 123.334 17.0039 117.854C17.0041 116.61 17.6264 115.988 18.8701 115.988H46.624C47.3235 115.988 47.8288 116.066 48.1396 116.222C48.4893 116.377 48.6837 116.727 48.7227 117.271V117.388C49.0336 119.875 49.7142 121.78 50.7637 123.102C51.8521 124.423 53.5427 125.084 55.8359 125.084C57.8961 125.084 59.5097 124.481 60.6758 123.276C61.8806 122.033 62.4824 120.458 62.4824 118.554C62.4824 116.999 62.2102 115.677 61.666 114.589C61.1607 113.462 60.5393 112.606 59.8008 112.023C59.0622 111.44 58.1095 110.994 56.9434 110.683C55.7773 110.333 54.7277 110.119 53.7949 110.041C52.8621 109.963 51.7543 109.925 50.4717 109.925H47.9062C46.3903 109.925 45.3409 109.477 44.7578 108.583C44.2137 107.689 43.9414 106.309 43.9414 104.443V100.712C43.9414 97.4857 44.1554 95.1146 44.583 93.5986C45.0106 92.044 45.8461 91.2667 47.0898 91.2666H51.7549C54.8643 91.2665 57.2741 90.6442 58.9844 89.4004C60.6946 88.1177 61.5498 85.708 61.5498 82.1709C61.5498 80.4606 61.0636 79.0413 60.0918 77.9141C59.1201 76.7871 57.8179 76.2236 56.1855 76.2236C53.076 76.2237 51.2098 77.6617 50.5879 80.5381V82.8701C50.1992 84.5027 49.3441 85.5916 48.0225 86.1357C39.8599 86.1357 32.5135 85.9799 25.9834 85.6689C25.6725 85.6689 25.1672 85.6887 24.4678 85.7275C23.807 85.7664 23.301 85.7861 22.9512 85.7861C19.9195 85.7861 18.4035 85.0472 18.4033 83.5703C18.9863 78.0513 19.4529 74.5723 19.8027 73.1338C20.8911 68.625 23.2427 64.932 26.8574 62.0557C27.9458 61.1616 29.1708 60.3253 30.5312 59.5479C34.496 57.2157 38.9661 55.6997 43.9414 55C48.9557 54.3003 54.7474 53.9512 61.3164 53.9512Z"/>
</mask>
<path d="M142.103 52.2236C146.944 52.2236 151.367 52.7839 155.368 53.9043C159.41 54.9847 162.851 56.4454 165.692 58.2861C168.534 60.1269 171.055 62.3883 173.256 65.0693C175.456 67.7102 177.217 70.4716 178.537 73.3525C179.858 76.2336 180.939 79.3751 181.779 82.7764C182.62 86.1375 183.199 89.3594 183.52 92.4404C183.84 95.5214 184 98.7229 184 102.044C184 109.647 182.899 116.43 180.698 122.393C178.537 128.355 175.516 133.237 171.635 137.038C167.793 140.839 163.311 143.721 158.189 145.682C153.068 147.642 147.465 148.623 141.383 148.623C136.861 148.623 132.739 148.183 129.018 147.303C125.336 146.462 122.134 145.302 119.413 143.821C116.692 142.341 114.271 140.46 112.15 138.179C110.07 135.898 108.329 133.477 106.929 130.916C105.568 128.315 104.408 125.353 103.447 122.032C102.487 118.671 101.747 115.349 101.227 112.068C100.746 108.787 100.366 105.125 100.086 101.084C100.086 70.7118 114.091 54.4247 142.103 52.2236ZM61.3164 53.9512C64.2317 53.9512 67.2054 54.2619 70.2373 54.8838C73.2691 55.5057 76.2815 56.497 79.2744 57.8574C82.2673 59.2178 84.9108 60.8503 87.2041 62.7549C89.5363 64.6595 91.4221 67.0306 92.8604 69.8682C94.2985 72.7057 95.0176 75.7959 95.0176 79.1387C95.0176 82.1316 94.6092 84.7553 93.793 87.0098C93.0156 89.2254 91.8685 91.0333 90.3525 92.4326C88.8367 93.8318 87.3018 94.9594 85.7471 95.8145C84.1923 96.6307 82.3458 97.3695 80.208 98.0303C86.2327 99.896 90.5283 102.48 93.0938 105.784C95.6981 109.088 97 113.267 97 118.32C97 121.896 96.4753 125.162 95.4258 128.116C94.3763 131.031 93.0151 133.48 91.3438 135.462C89.7112 137.444 87.6902 139.174 85.2803 140.651C82.9092 142.128 80.5381 143.276 78.167 144.092C75.7959 144.947 73.2108 145.628 70.4121 146.133C67.6137 146.638 65.1456 146.969 63.0078 147.124C60.8699 147.28 58.6734 147.356 56.4189 147.356C50.705 147.356 45.6127 146.851 41.1426 145.841C36.6727 144.869 32.6304 143.295 29.0156 141.118C25.4007 138.903 22.5631 135.851 20.5029 131.964C18.4428 128.038 17.276 123.334 17.0039 117.854C17.0041 116.61 17.6264 115.988 18.8701 115.988H46.624C47.3235 115.988 47.8288 116.066 48.1396 116.222C48.4893 116.377 48.6837 116.727 48.7227 117.271V117.388C49.0336 119.875 49.7142 121.78 50.7637 123.102C51.8521 124.423 53.5427 125.084 55.8359 125.084C57.8961 125.084 59.5097 124.481 60.6758 123.276C61.8806 122.033 62.4824 120.458 62.4824 118.554C62.4824 116.999 62.2102 115.677 61.666 114.589C61.1607 113.462 60.5393 112.606 59.8008 112.023C59.0622 111.44 58.1095 110.994 56.9434 110.683C55.7773 110.333 54.7277 110.119 53.7949 110.041C52.8621 109.963 51.7543 109.925 50.4717 109.925H47.9062C46.3903 109.925 45.3409 109.477 44.7578 108.583C44.2137 107.689 43.9414 106.309 43.9414 104.443V100.712C43.9414 97.4857 44.1554 95.1146 44.583 93.5986C45.0106 92.044 45.8461 91.2667 47.0898 91.2666H51.7549C54.8643 91.2665 57.2741 90.6442 58.9844 89.4004C60.6946 88.1177 61.5498 85.708 61.5498 82.1709C61.5498 80.4606 61.0636 79.0413 60.0918 77.9141C59.1201 76.7871 57.8179 76.2236 56.1855 76.2236C53.076 76.2237 51.2098 77.6617 50.5879 80.5381V82.8701C50.1992 84.5027 49.3441 85.5916 48.0225 86.1357C39.8599 86.1357 32.5135 85.9799 25.9834 85.6689C25.6725 85.6689 25.1672 85.6887 24.4678 85.7275C23.807 85.7664 23.301 85.7861 22.9512 85.7861C19.9195 85.7861 18.4035 85.0472 18.4033 83.5703C18.9863 78.0513 19.4529 74.5723 19.8027 73.1338C20.8911 68.625 23.2427 64.932 26.8574 62.0557C27.9458 61.1616 29.1708 60.3253 30.5312 59.5479C34.496 57.2157 38.9661 55.6997 43.9414 55C48.9557 54.3003 54.7474 53.9512 61.3164 53.9512Z" fill="black"/>
<path d="M142.103 52.2236V46.2236C141.946 46.2236 141.789 46.2298 141.633 46.2421L142.103 52.2236ZM155.368 53.9043L153.75 59.6821C153.773 59.6884 153.796 59.6947 153.819 59.7008L155.368 53.9043ZM165.692 58.2861L168.955 53.2506L168.955 53.2506L165.692 58.2861ZM173.256 65.0693L168.618 68.8763C168.628 68.8877 168.637 68.899 168.646 68.9104L173.256 65.0693ZM178.537 73.3525L183.992 70.8527L183.992 70.8526L178.537 73.3525ZM181.779 82.7764L175.954 84.2155C175.956 84.2208 175.957 84.2262 175.958 84.2315L181.779 82.7764ZM183.52 92.4404L189.487 91.8205V91.8204L183.52 92.4404ZM184 102.044L190 102.044V102.044H184ZM180.698 122.393L175.069 120.315C175.065 120.326 175.061 120.337 175.057 120.348L180.698 122.393ZM171.635 137.038L167.437 132.751C167.429 132.759 167.422 132.766 167.414 132.773L171.635 137.038ZM158.189 145.682L160.334 151.285L160.335 151.285L158.189 145.682ZM141.383 148.623L141.383 154.623H141.383L141.383 148.623ZM129.018 147.303L130.399 141.464C130.383 141.46 130.368 141.457 130.353 141.453L129.018 147.303ZM119.413 143.821L116.545 149.092L116.545 149.092L119.413 143.821ZM112.15 138.179L107.718 142.222C107.731 142.237 107.743 142.25 107.756 142.264L112.15 138.179ZM106.929 130.916L101.612 133.697C101.629 133.73 101.647 133.762 101.665 133.795L106.929 130.916ZM103.447 122.032L97.6781 123.681C97.6799 123.687 97.6816 123.693 97.6834 123.699L103.447 122.032ZM101.227 112.068L95.2898 112.937C95.2933 112.961 95.2968 112.984 95.3006 113.008L101.227 112.068ZM100.086 101.084H94.0859C94.0859 101.222 94.0907 101.361 94.1003 101.499L100.086 101.084ZM61.3164 53.9512V47.9512H61.3164L61.3164 53.9512ZM70.2373 54.8838L71.443 49.0062L71.443 49.0062L70.2373 54.8838ZM79.2744 57.8574L81.7572 52.3952L81.7572 52.3952L79.2744 57.8574ZM87.2041 62.7549L83.3707 67.3707C83.3834 67.3812 83.3961 67.3917 83.4089 67.4021L87.2041 62.7549ZM92.8604 69.8682L98.2122 67.1556L98.2122 67.1556L92.8604 69.8682ZM95.0176 79.1387H101.018V79.1386L95.0176 79.1387ZM93.793 87.0098L88.1513 84.9672C88.1446 84.9859 88.1379 85.0045 88.1314 85.0232L93.793 87.0098ZM90.3525 92.4326L94.4222 96.8415L94.4222 96.8414L90.3525 92.4326ZM85.7471 95.8145L88.5361 101.127C88.5704 101.109 88.6046 101.09 88.6386 101.072L85.7471 95.8145ZM80.208 98.0303L78.4362 92.2979C75.9229 93.0747 74.2087 95.3981 74.208 98.0287C74.2073 100.659 75.9202 102.984 78.4331 103.762L80.208 98.0303ZM93.0938 105.784L88.3547 109.464C88.3636 109.476 88.3726 109.487 88.3816 109.498L93.0938 105.784ZM97 118.32H103V118.32L97 118.32ZM95.4258 128.116L101.071 130.149C101.074 130.141 101.077 130.133 101.08 130.125L95.4258 128.116ZM91.3438 135.462L86.7566 131.594C86.7417 131.612 86.7269 131.63 86.7122 131.648L91.3438 135.462ZM85.2803 140.651L82.1449 135.536C82.1325 135.543 82.1201 135.551 82.1078 135.559L85.2803 140.651ZM78.167 144.092L76.2139 138.419C76.1863 138.428 76.1588 138.438 76.1314 138.448L78.167 144.092ZM70.4121 146.133L71.4782 152.037L71.4782 152.037L70.4121 146.133ZM63.0078 147.124L63.443 153.108H63.4431L63.0078 147.124ZM56.4189 147.356V153.356V147.356ZM41.1426 145.841L42.4657 139.989C42.4495 139.985 42.4334 139.981 42.4172 139.978L41.1426 145.841ZM29.0156 141.118L25.8803 146.234C25.8937 146.242 25.9071 146.25 25.9206 146.258L29.0156 141.118ZM20.5029 131.964L15.19 134.752C15.1938 134.759 15.1977 134.766 15.2015 134.774L20.5029 131.964ZM17.0039 117.854L11.0039 117.853C11.0039 117.952 11.0064 118.052 11.0113 118.151L17.0039 117.854ZM46.624 115.988L46.6243 109.988H46.624V115.988ZM48.1396 116.222L45.4564 121.588C45.5372 121.629 45.6189 121.667 45.7015 121.704L48.1396 116.222ZM48.7227 117.271H54.7227C54.7227 117.128 54.7175 116.985 54.7073 116.842L48.7227 117.271ZM48.7227 117.388H42.7227C42.7227 117.636 42.7381 117.885 42.769 118.132L48.7227 117.388ZM50.7637 123.102L46.065 126.833C46.0872 126.861 46.1096 126.889 46.1323 126.916L50.7637 123.102ZM55.8359 125.084V131.084H55.836L55.8359 125.084ZM60.6758 123.276L56.3661 119.102L56.3642 119.104L60.6758 123.276ZM62.4824 118.554L68.4824 118.554V118.554H62.4824ZM61.666 114.589L56.191 117.043C56.2255 117.12 56.2617 117.197 56.2995 117.272L61.666 114.589ZM59.8008 112.023L63.5187 107.314L63.5186 107.314L59.8008 112.023ZM56.9434 110.683L55.2193 116.43C55.2784 116.447 55.3378 116.464 55.3974 116.48L56.9434 110.683ZM53.7949 110.041L54.2932 104.062L54.2931 104.062L53.7949 110.041ZM47.9062 109.925L47.9062 115.925H47.9062V109.925ZM44.7578 108.583L39.6324 111.702C39.6648 111.756 39.6981 111.808 39.7321 111.861L44.7578 108.583ZM43.9414 100.712L37.9414 100.712V100.712H43.9414ZM44.583 93.5986L50.3577 95.2274C50.3612 95.2148 50.3647 95.2023 50.3682 95.1897L44.583 93.5986ZM47.0898 91.2666V85.2666H47.0895L47.0898 91.2666ZM51.7549 91.2666V97.2666H51.755L51.7549 91.2666ZM58.9844 89.4004L62.5134 94.2528C62.5372 94.2355 62.5609 94.218 62.5845 94.2003L58.9844 89.4004ZM61.5498 82.1709L67.5498 82.1709V82.1709H61.5498ZM60.0918 77.9141L64.6363 73.9964L64.6358 73.9959L60.0918 77.9141ZM56.1855 76.2236V70.2236H56.1854L56.1855 76.2236ZM50.5879 80.5381L44.7234 79.2701C44.6333 79.6867 44.5879 80.1118 44.5879 80.5381H50.5879ZM50.5879 82.8701L56.4247 84.2598C56.5331 83.8045 56.5879 83.3381 56.5879 82.8701H50.5879ZM48.0225 86.1357L48.0225 92.1357C48.8062 92.1357 49.5823 91.9822 50.307 91.6838L48.0225 86.1357ZM25.9834 85.6689L26.2688 79.6757C26.1737 79.6712 26.0786 79.6689 25.9834 79.6689V85.6689ZM24.4678 85.7275L24.135 79.7368C24.1285 79.7371 24.122 79.7375 24.1154 79.7379L24.4678 85.7275ZM22.9512 85.7861L22.9511 91.7861H22.9512V85.7861ZM18.4033 83.5703L12.4365 82.94C12.4144 83.1496 12.4033 83.3602 12.4033 83.5709L18.4033 83.5703ZM19.8027 73.1338L25.6328 74.5516L25.6352 74.5416L19.8027 73.1338ZM26.8574 62.0557L30.5934 66.7506C30.6177 66.7313 30.6419 66.7117 30.6659 66.692L26.8574 62.0557ZM30.5312 59.5479L33.5081 64.7573C33.5299 64.7448 33.5517 64.7322 33.5733 64.7195L30.5312 59.5479ZM43.9414 55L43.1122 49.0576L43.1059 49.0585L43.9414 55ZM142.103 52.2236V58.2236C146.485 58.2236 150.354 58.7311 153.75 59.6821L155.368 53.9043L156.986 48.1265C152.379 46.8367 147.403 46.2236 142.103 46.2236V52.2236ZM155.368 53.9043L153.819 59.7008C157.39 60.6555 160.224 61.8923 162.43 63.3217L165.692 58.2861L168.955 53.2506C165.479 50.9985 161.429 49.3139 156.918 48.1078L155.368 53.9043ZM165.692 58.2861L162.43 63.3216C164.739 64.8179 166.8 66.6612 168.618 68.8763L173.256 65.0693L177.893 61.2624C175.31 58.1153 172.328 55.4359 168.955 53.2506L165.692 58.2861ZM173.256 65.0693L168.646 68.9104C170.535 71.1772 172.001 73.4923 173.083 75.8525L178.537 73.3525L183.992 70.8526C182.432 67.4509 180.378 64.2432 177.865 61.2283L173.256 65.0693ZM178.537 73.3525L173.083 75.8524C174.232 78.3596 175.195 81.142 175.954 84.2155L181.779 82.7764L187.604 81.3373C186.683 77.6082 185.483 74.1076 183.992 70.8527L178.537 73.3525ZM181.779 82.7764L175.958 84.2315C176.738 87.3492 177.264 90.2912 177.552 93.0605L183.52 92.4404L189.487 91.8204C189.135 88.4277 188.501 84.9257 187.6 81.3212L181.779 82.7764ZM183.52 92.4404L177.552 93.0604C177.849 95.9217 178 98.9157 178 102.044H184H190C190 98.5301 189.83 95.1211 189.487 91.8205L183.52 92.4404ZM184 102.044L178 102.044C178 109.073 176.982 115.134 175.069 120.315L180.698 122.393L186.327 124.47C188.816 117.727 190 110.221 190 102.044L184 102.044ZM180.698 122.393L175.057 120.348C173.152 125.605 170.576 129.677 167.437 132.751L171.635 137.038L175.833 141.325C180.456 136.797 183.923 131.104 186.339 124.437L180.698 122.393ZM171.635 137.038L167.414 132.773C164.173 135.981 160.401 138.41 156.044 140.078L158.189 145.682L160.335 151.285C166.222 149.031 171.413 145.698 175.855 141.303L171.635 137.038ZM158.189 145.682L156.044 140.078C151.678 141.75 146.811 142.623 141.383 142.623L141.383 148.623L141.383 154.623C148.119 154.623 154.457 153.535 160.334 151.285L158.189 145.682ZM141.383 148.623L141.383 142.623C137.244 142.623 133.594 142.22 130.399 141.464L129.018 147.303L127.636 153.142C131.884 154.146 136.478 154.623 141.383 154.623L141.383 148.623ZM129.018 147.303L130.353 141.453C127.094 140.709 124.428 139.719 122.281 138.551L119.413 143.821L116.545 149.092C119.84 150.884 123.579 152.216 127.682 153.152L129.018 147.303ZM119.413 143.821L122.281 138.551C120.133 137.382 118.227 135.902 116.544 134.093L112.15 138.179L107.756 142.264C110.316 145.017 113.251 147.299 116.545 149.092L119.413 143.821ZM112.15 138.179L116.583 134.135C114.807 132.188 113.351 130.155 112.193 128.037L106.929 130.916L101.665 133.795C103.307 136.799 105.333 139.608 107.718 142.222L112.15 138.179ZM106.929 130.916L112.245 128.135C111.1 125.946 110.079 123.367 109.211 120.366L103.447 122.032L97.6834 123.699C98.7361 127.339 100.036 130.684 101.612 133.697L106.929 130.916ZM103.447 122.032L109.216 120.384C108.319 117.244 107.633 114.159 107.153 111.129L101.227 112.068L95.3006 113.008C95.8606 116.54 96.6546 120.098 97.6781 123.681L103.447 122.032ZM101.227 112.068L107.163 111.2C106.709 108.098 106.343 104.59 106.072 100.669L100.086 101.084L94.1003 101.499C94.3887 105.66 94.7834 109.477 95.2898 112.937L101.227 112.068ZM100.086 101.084H106.086C106.086 86.7456 109.395 76.6813 115.139 70.0017C120.82 63.3961 129.641 59.2213 142.573 58.2052L142.103 52.2236L141.633 46.2421C126.553 47.427 114.366 52.4963 106.041 62.1776C97.7792 71.7849 94.0859 85.0502 94.0859 101.084H100.086ZM61.3164 53.9512V59.9512C63.803 59.9512 66.3726 60.216 69.0317 60.7614L70.2373 54.8838L71.443 49.0062C68.0383 48.3078 64.6603 47.9512 61.3164 47.9512V53.9512ZM70.2373 54.8838L69.0316 60.7614C71.5969 61.2876 74.182 62.1335 76.7916 63.3196L79.2744 57.8574L81.7572 52.3952C78.3809 50.8606 74.9413 49.7238 71.443 49.0062L70.2373 54.8838ZM79.2744 57.8574L76.7916 63.3196C79.3483 64.4818 81.5279 65.8402 83.3707 67.3707L87.2041 62.7549L91.0375 58.1391C88.2937 55.8605 85.1864 53.9539 81.7572 52.3952L79.2744 57.8574ZM87.2041 62.7549L83.4089 67.4021C85.0572 68.7482 86.4271 70.4472 87.5085 72.5807L92.8604 69.8682L98.2122 67.1556C96.4171 63.614 94.0154 60.5709 90.9993 58.1077L87.2041 62.7549ZM92.8604 69.8682L87.5085 72.5807C88.4988 74.5345 89.0176 76.689 89.0176 79.1387L95.0176 79.1387L101.018 79.1386C101.018 74.9027 100.098 70.8768 98.2122 67.1556L92.8604 69.8682ZM95.0176 79.1387H89.0176C89.0176 81.6006 88.68 83.5071 88.1513 84.9672L93.793 87.0098L99.4346 89.0523C100.538 86.0036 101.018 82.6625 101.018 79.1387H95.0176ZM93.793 87.0098L88.1314 85.0232C87.6334 86.4424 86.9841 87.3765 86.2829 88.0238L90.3525 92.4326L94.4222 96.8414C96.7529 94.69 98.3977 92.0084 99.4546 88.9963L93.793 87.0098ZM90.3525 92.4326L86.2829 88.0237C85.0668 89.1463 83.9215 89.9709 82.8555 90.5572L85.7471 95.8145L88.6386 101.072C90.6821 99.9478 92.6066 98.5174 94.4222 96.8415L90.3525 92.4326ZM85.7471 95.8145L82.9581 90.5021C81.8027 91.1086 80.3128 91.7178 78.4362 92.2979L80.208 98.0303L81.9799 103.763C84.3789 103.021 86.5819 102.153 88.5361 101.127L85.7471 95.8145ZM80.208 98.0303L78.4331 103.762C83.845 105.438 86.8382 107.511 88.3547 109.464L93.0938 105.784L97.8328 102.104C94.2184 97.4495 88.6204 94.3543 81.9829 92.2988L80.208 98.0303ZM93.0938 105.784L88.3816 109.498C89.9931 111.543 91 114.334 91 118.32L97 118.32L103 118.32C103 112.2 101.403 106.633 97.8059 102.07L93.0938 105.784ZM97 118.32H91C91 121.307 90.5626 123.882 89.772 126.108L95.4258 128.116L101.08 130.125C102.388 126.442 103 122.486 103 118.32H97ZM95.4258 128.116L89.7805 126.084C88.9268 128.455 87.8902 130.25 86.7566 131.594L91.3438 135.462L95.9309 139.329C98.14 136.709 99.8258 133.608 101.071 130.149L95.4258 128.116ZM91.3438 135.462L86.7122 131.648C85.5428 133.068 84.0437 134.372 82.1449 135.536L85.2803 140.651L88.4156 145.767C91.3368 143.977 93.8796 141.821 95.9753 139.276L91.3438 135.462ZM85.2803 140.651L82.1078 135.559C80.0766 136.824 78.1123 137.765 76.2139 138.419L78.167 144.092L80.1201 149.765C82.9639 148.786 85.7417 147.433 88.4528 145.744L85.2803 140.651ZM78.167 144.092L76.1314 138.448C74.1124 139.176 71.8556 139.775 69.346 140.228L70.4121 146.133L71.4782 152.037C74.5659 151.48 77.4795 150.718 80.2026 149.736L78.167 144.092ZM70.4121 146.133L69.346 140.228C66.6933 140.707 64.4433 141.004 62.5726 141.14L63.0078 147.124L63.4431 153.108C65.8478 152.933 68.534 152.569 71.4782 152.037L70.4121 146.133ZM63.0078 147.124L62.5726 141.14C60.5882 141.284 58.5372 141.356 56.4189 141.356V147.356V153.356C58.8097 153.356 61.1517 153.275 63.443 153.108L63.0078 147.124ZM56.4189 147.356V141.356C51.0457 141.356 46.4104 140.88 42.4657 139.989L41.1426 145.841L39.8195 151.693C44.815 152.823 50.3642 153.356 56.4189 153.356V147.356ZM41.1426 145.841L42.4172 139.978C38.5358 139.134 35.1171 137.788 32.1107 135.978L29.0156 141.118L25.9206 146.258C30.1438 148.801 34.8096 150.604 39.868 151.704L41.1426 145.841ZM29.0156 141.118L32.151 136.003C29.4868 134.37 27.3816 132.13 25.8044 129.154L20.5029 131.964L15.2015 134.774C17.7445 139.572 21.3145 143.435 25.8803 146.234L29.0156 141.118ZM20.5029 131.964L25.8159 129.176C24.2444 126.181 23.2354 122.368 22.9965 117.556L17.0039 117.854L11.0113 118.151C11.3166 124.3 12.6412 129.895 15.19 134.752L20.5029 131.964ZM17.0039 117.854L23.0039 117.854C23.0039 118.159 22.9233 119.488 21.7119 120.699C20.5011 121.909 19.1728 121.988 18.8701 121.988V115.988V109.988C17.3237 109.988 15.0624 110.379 13.2294 112.211C11.3959 114.043 11.0041 116.305 11.0039 117.853L17.0039 117.854ZM18.8701 115.988V121.988H46.624V115.988V109.988H18.8701V115.988ZM46.624 115.988L46.6237 121.988C46.7703 121.988 46.7504 121.998 46.614 121.977C46.5402 121.965 46.4032 121.941 46.2208 121.889C46.0413 121.837 45.7732 121.747 45.4564 121.588L48.1396 116.222L50.8229 110.855C49.1959 110.042 47.4978 109.988 46.6243 109.988L46.624 115.988ZM48.1396 116.222L45.7015 121.704C44.6317 121.228 43.8084 120.424 43.3037 119.516C42.8506 118.701 42.7596 118.001 42.738 117.699L48.7227 117.271L54.7073 116.842C54.5857 115.143 53.7636 112.156 50.5778 110.739L48.1396 116.222ZM48.7227 117.271H42.7227V117.388H48.7227H54.7227V117.271H48.7227ZM48.7227 117.388L42.769 118.132C43.1547 121.217 44.0765 124.329 46.065 126.833L50.7637 123.102L55.4623 119.37C55.3519 119.231 54.9126 118.533 54.6763 116.643L48.7227 117.388ZM50.7637 123.102L46.1323 126.916C48.7165 130.054 52.3974 131.084 55.8359 131.084V125.084V119.084C55.248 119.084 55.0251 118.997 55.0322 119C55.0412 119.004 55.0972 119.027 55.1772 119.084C55.2587 119.142 55.3343 119.213 55.395 119.287L50.7637 123.102ZM55.8359 125.084L55.836 131.084C59.1246 131.084 62.4419 130.079 64.9874 127.449L60.6758 123.276L56.3642 119.104C56.3826 119.085 56.4115 119.06 56.4463 119.037C56.4807 119.015 56.5002 119.008 56.4919 119.011C56.474 119.018 56.2862 119.084 55.8359 119.084L55.8359 125.084ZM60.6758 123.276L64.9855 127.451C67.3882 124.97 68.4824 121.845 68.4824 118.554L62.4824 118.554L56.4824 118.554C56.4824 118.868 56.4343 119 56.4268 119.019C56.4217 119.033 56.4183 119.039 56.4153 119.043C56.4121 119.048 56.3992 119.068 56.3661 119.102L60.6758 123.276ZM62.4824 118.554H68.4824C68.4824 116.318 68.0925 114.025 67.0326 111.906L61.666 114.589L56.2995 117.272C56.3279 117.329 56.4824 117.68 56.4824 118.554H62.4824ZM61.666 114.589L67.141 112.134C66.3603 110.393 65.217 108.655 63.5187 107.314L59.8008 112.023L56.0828 116.733C55.9717 116.645 55.94 116.592 55.9677 116.63C55.9978 116.672 56.0802 116.796 56.191 117.043L61.666 114.589ZM59.8008 112.023L63.5186 107.314C61.983 106.102 60.23 105.349 58.4893 104.885L56.9434 110.683L55.3974 116.48C55.989 116.638 56.1415 116.779 56.0829 116.733L59.8008 112.023ZM56.9434 110.683L58.6674 104.936C57.2151 104.5 55.7447 104.183 54.2932 104.062L53.7949 110.041L53.2966 116.02C53.7108 116.055 54.3396 116.166 55.2193 116.43L56.9434 110.683ZM53.7949 110.041L54.2931 104.062C53.1456 103.966 51.8629 103.925 50.4717 103.925V109.925V115.925C51.6457 115.925 52.5785 115.96 53.2967 116.02L53.7949 110.041ZM50.4717 109.925V103.925H47.9062V109.925V115.925H50.4717V109.925ZM47.9062 109.925L47.9063 103.925C47.7057 103.925 47.9152 103.891 48.3351 104.07C48.8252 104.279 49.3807 104.688 49.7835 105.305L44.7578 108.583L39.7321 111.861C41.8467 115.103 45.2853 115.925 47.9062 115.925L47.9062 109.925ZM44.7578 108.583L49.8833 105.464C50.0801 105.787 50.0757 105.937 50.0322 105.716C49.9913 105.509 49.9414 105.104 49.9414 104.443H43.9414H37.9414C37.9414 106.665 38.2246 109.389 39.6324 111.702L44.7578 108.583ZM43.9414 104.443H49.9414V100.712H43.9414H37.9414V104.443H43.9414ZM43.9414 100.712L49.9414 100.712C49.9414 97.5872 50.1658 95.9077 50.3577 95.2274L44.583 93.5986L38.8083 91.9699C38.1451 94.3214 37.9414 97.3842 37.9414 100.712L43.9414 100.712ZM44.583 93.5986L50.3682 95.1897C50.4029 95.0636 50.2846 95.6217 49.6171 96.2427C49.2674 96.568 48.8315 96.8467 48.3347 97.0325C47.8467 97.2149 47.4107 97.2666 47.0902 97.2666L47.0898 91.2666L47.0895 85.2666C45.0998 85.2667 43.0756 85.9384 41.4436 87.4566C39.9406 88.8549 39.1907 90.579 38.7978 92.0076L44.583 93.5986ZM47.0898 91.2666V97.2666H51.7549V91.2666V85.2666H47.0898V91.2666ZM51.7549 91.2666L51.755 97.2666C55.564 97.2665 59.3977 96.5188 62.5134 94.2528L58.9844 89.4004L55.4553 84.548C55.1506 84.7696 54.1647 85.2666 51.7548 85.2666L51.7549 91.2666ZM58.9844 89.4004L62.5845 94.2003C66.5732 91.2085 67.5498 86.368 67.5498 82.1709L61.5498 82.1709L55.5498 82.1709C55.5498 83.4984 55.3837 84.2585 55.2539 84.6244C55.1427 84.9379 55.1226 84.7968 55.3842 84.6005L58.9844 89.4004ZM61.5498 82.1709H67.5498C67.5498 79.2496 66.6854 76.3734 64.6363 73.9964L60.0918 77.9141L55.5473 81.8317C55.5437 81.8274 55.5335 81.8145 55.5226 81.7954C55.5117 81.7765 55.5079 81.765 55.509 81.7681C55.51 81.771 55.5498 81.8861 55.5498 82.1709H61.5498ZM60.0918 77.9141L64.6358 73.9959C62.4053 71.4091 59.3724 70.2236 56.1855 70.2236V76.2236V82.2236C56.3046 82.2236 56.2096 82.2419 56.0035 82.1528C55.9055 82.1103 55.8087 82.0546 55.7214 81.9897C55.6349 81.9254 55.578 81.8672 55.5477 81.8322L60.0918 77.9141ZM56.1855 76.2236L56.1854 70.2236C53.7296 70.2237 51.0663 70.7965 48.7912 72.5499C46.478 74.3327 45.257 76.8024 44.7234 79.2701L50.5879 80.5381L56.4524 81.8061C56.4997 81.5872 56.5353 81.5612 56.4853 81.6478C56.4598 81.6921 56.4163 81.7579 56.3503 81.8342C56.2838 81.9111 56.2049 81.9865 56.1165 82.0546C55.9303 82.1981 55.7818 82.2489 55.7526 82.2574C55.7373 82.2618 55.8628 82.2236 56.1857 82.2236L56.1855 76.2236ZM50.5879 80.5381H44.5879V82.8701H50.5879H56.5879V80.5381H50.5879ZM50.5879 82.8701L44.7511 81.4804C44.7157 81.6287 44.7268 81.4719 44.9367 81.2047C45.1692 80.9087 45.4744 80.6962 45.738 80.5877L48.0225 86.1357L50.307 91.6838C53.7402 90.2701 55.6782 87.3952 56.4247 84.2598L50.5879 82.8701ZM48.0225 86.1357L48.0225 80.1357C39.933 80.1357 32.6841 79.9812 26.2688 79.6757L25.9834 85.6689L25.698 91.6622C32.3429 91.9786 39.7867 92.1357 48.0225 92.1357L48.0225 86.1357ZM25.9834 85.6689V79.6689C25.4909 79.6689 24.84 79.6976 24.135 79.7368L24.4678 85.7275L24.8006 91.7183C25.4944 91.6798 25.8541 91.6689 25.9834 91.6689V85.6689ZM24.4678 85.7275L24.1154 79.7379C23.4856 79.7749 23.1207 79.7861 22.9512 79.7861V85.7861V91.7861C23.4813 91.7861 24.1283 91.7579 24.8201 91.7172L24.4678 85.7275ZM22.9512 85.7861L22.9512 79.7861C22.4212 79.7861 22.0929 79.7527 21.9238 79.7252C21.7377 79.695 21.8683 79.692 22.1686 79.8383C22.4888 79.9943 23.1089 80.3762 23.6393 81.1512C24.2007 81.9717 24.4033 82.8564 24.4033 83.5697L18.4033 83.5703L12.4033 83.5709C12.4035 85.0227 12.7955 86.5536 13.736 87.928C14.6454 89.257 15.8341 90.1005 16.9123 90.6258C18.9042 91.5964 21.1399 91.7861 22.9511 91.7861L22.9512 85.7861ZM18.4033 83.5703L24.3701 84.2006C24.967 78.5501 25.398 75.5172 25.6328 74.5516L19.8027 73.1338L13.9727 71.716C13.5078 73.6274 13.0056 77.5524 12.4365 82.94L18.4033 83.5703ZM19.8027 73.1338L25.6352 74.5416C26.4115 71.3256 28.0286 68.7915 30.5934 66.7506L26.8574 62.0557L23.1214 57.3607C18.4568 61.0726 15.3706 65.9244 13.9702 71.7259L19.8027 73.1338ZM26.8574 62.0557L30.6659 66.692C31.4669 66.034 32.4088 65.3855 33.5081 64.7573L30.5312 59.5479L27.5544 54.3384C25.9327 55.2651 24.4247 56.2893 23.049 57.4193L26.8574 62.0557ZM30.5312 59.5479L33.5733 64.7195C36.8 62.8215 40.5083 61.5418 44.7769 60.9415L43.9414 55L43.1059 49.0585C37.4239 49.8575 32.192 51.6099 27.4892 54.3762L30.5312 59.5479ZM43.9414 55L44.7706 60.9424C49.4429 60.2905 54.9475 59.9512 61.3164 59.9512L61.3164 53.9512L61.3164 47.9512C54.5473 47.9512 48.4684 48.3102 43.1122 49.0576L43.9414 55Z" fill="white" mask="url(#path-1-outside-1_1347_4069)"/>
<path d="M56.419 147.356C50.705 147.356 45.6129 146.851 41.1428 145.84C36.6727 144.869 32.6301 143.294 29.0152 141.118C25.4002 138.902 22.5626 135.851 20.5025 131.964C18.4424 128.038 17.2762 123.334 17.0042 117.854C17.0042 116.61 17.6261 115.988 18.8699 115.988H46.6236C47.3232 115.988 47.8286 116.065 48.1395 116.221C48.4894 116.376 48.6837 116.726 48.7226 117.27V117.387C49.0335 119.875 49.7138 121.779 50.7633 123.101C51.8517 124.423 53.5425 125.083 55.8359 125.083C57.896 125.083 59.5092 124.481 60.6753 123.276C61.8803 122.032 62.4828 120.458 62.4828 118.553C62.4828 116.998 62.2107 115.677 61.6665 114.588C61.1612 113.461 60.5392 112.606 59.8007 112.023C59.0622 111.44 58.1098 110.993 56.9437 110.682C55.7776 110.332 54.7281 110.118 53.7952 110.041C52.8623 109.963 51.7545 109.924 50.4718 109.924H47.9063C46.3903 109.924 45.3408 109.477 44.7578 108.583C44.2136 107.689 43.9415 106.309 43.9415 104.443V100.712C43.9415 97.4853 44.1553 95.1142 44.5829 93.5982C45.0104 92.0434 45.8462 91.266 47.09 91.266H51.7545C54.8641 91.266 57.2741 90.6441 58.9844 89.4002C60.6947 88.1175 61.5499 85.7075 61.5499 82.1703C61.5499 80.46 61.064 79.0412 60.0922 77.9139C59.1205 76.7867 57.8183 76.2231 56.1857 76.2231C53.0761 76.2231 51.2103 77.6613 50.5884 80.5377V82.8699C50.1997 84.5025 49.3445 85.5909 48.0229 86.1351C39.8601 86.1351 32.5135 85.9796 25.9833 85.6686C25.6723 85.6686 25.167 85.6881 24.4673 85.7269C23.8065 85.7658 23.3012 85.7852 22.9514 85.7852C19.9194 85.7852 18.4035 85.0467 18.4035 83.5696C18.9866 78.05 19.453 74.5711 19.8028 73.1329C20.8912 68.6239 23.2429 64.9311 26.8579 62.0547C27.9462 61.1607 29.1707 60.325 30.5311 59.5476C34.4959 57.2153 38.9661 55.6994 43.9415 54.9997C48.9558 54.3 54.7475 53.9502 61.3167 53.9502C64.232 53.9502 67.2056 54.2612 70.2375 54.8831C73.2694 55.505 76.2818 56.4962 79.2749 57.8567C82.2679 59.2172 84.9111 60.8497 87.2045 62.7544C89.5367 64.6591 91.422 67.0302 92.8602 69.8677C94.2984 72.7053 95.0175 75.7955 95.0175 79.1384C95.0175 82.1314 94.6094 84.7552 93.7931 87.0097C93.0157 89.2253 91.869 91.0328 90.353 92.4321C88.8371 93.8315 87.3017 94.9587 85.7468 95.8139C84.192 96.6301 82.3457 97.3687 80.2078 98.0295C86.2327 99.8953 90.5279 102.48 93.0934 105.784C95.6977 109.088 96.9999 113.267 96.9999 118.32C96.9999 121.896 96.4751 125.161 95.4256 128.115C94.3761 131.031 93.0157 133.479 91.3442 135.462C89.7116 137.444 87.6904 139.174 85.2804 140.651C82.9093 142.128 80.5382 143.275 78.1671 144.091C75.796 144.946 73.2111 145.627 70.4124 146.132C67.6137 146.637 65.1454 146.968 63.0075 147.123C60.8696 147.279 58.6735 147.356 56.419 147.356Z" fill="#4B9AE8"/>
<path d="M142.103 52.2227C146.945 52.2227 151.367 52.7829 155.368 53.9033C159.41 54.9838 162.851 56.4444 165.693 58.2852C168.534 60.1259 171.055 62.3873 173.256 65.0684C175.457 67.7093 177.217 70.4706 178.537 73.3516C179.858 76.2327 180.939 79.374 181.78 82.7754C182.62 86.1366 183.2 89.3583 183.52 92.4395C183.84 95.5206 184 98.7218 184 102.043C184 109.646 182.899 116.429 180.698 122.392C178.538 128.354 175.516 133.236 171.635 137.037C167.793 140.839 163.312 143.72 158.19 145.681C153.068 147.641 147.465 148.622 141.383 148.622C136.861 148.622 132.739 148.182 129.018 147.302C125.336 146.461 122.134 145.301 119.413 143.82C116.692 142.34 114.271 140.459 112.151 138.178C110.07 135.897 108.329 133.476 106.929 130.915C105.568 128.314 104.408 125.353 103.448 122.031C102.487 118.67 101.747 115.349 101.227 112.067C100.747 108.786 100.366 105.124 100.086 101.083C100.086 70.7107 114.092 54.4236 142.103 52.2227Z" fill="#276288"/>
<circle cx="141.92" cy="100.505" r="19.6707" fill="#4B9AE8"/>
<path d="M146.093 101.058C145.783 102.929 143.125 105.469 141.224 105.16C139.322 104.851 137.622 101.594 137.931 99.7224C138.24 97.8513 139.733 96.5382 142.572 97.0017C145.41 97.4651 146.402 99.1869 146.093 101.058Z" fill="#EAC00F"/>
<path d="M131.591 101.077C133.811 101.077 135.61 99.2773 135.61 97.0578C135.61 94.8383 133.811 93.0391 131.591 93.0391C129.372 93.0391 127.572 94.8383 127.572 97.0578C127.572 99.2773 129.372 101.077 131.591 101.077Z" fill="white"/>
<path d="M131.529 99.4954C132.859 99.4954 133.938 98.4167 133.938 97.0861C133.938 95.7555 132.859 94.6768 131.529 94.6768C130.198 94.6768 129.119 95.7555 129.119 97.0861C129.119 98.4167 130.198 99.4954 131.529 99.4954Z" fill="black"/>
<path d="M152.259 101.077C154.479 101.077 156.278 99.2773 156.278 97.0578C156.278 94.8383 154.479 93.0391 152.259 93.0391C150.04 93.0391 148.24 94.8383 148.24 97.0578C148.24 99.2773 150.04 101.077 152.259 101.077Z" fill="white"/>
<path d="M152.197 99.4954C153.527 99.4954 154.606 98.4167 154.606 97.0861C154.606 95.7555 153.527 94.6768 152.197 94.6768C150.866 94.6768 149.787 95.7555 149.787 97.0861C149.787 98.4167 150.866 99.4954 152.197 99.4954Z" fill="black"/>
<path d="M124.16 76.98L130.5 74.87C130.62 74.83 130.73 74.76 130.8 74.65C130.88 74.55 130.92 74.42 130.92 74.29C130.92 74.17 130.88 74.05 130.8 73.95C130.72 73.85 130.62 73.78 130.5 73.75L125.28 72C124.93 71.88 124.62 71.68 124.36 71.41C124.1 71.15 123.9 70.83 123.77 70.49L122.02 65.42C121.99 65.3 121.92 65.19 121.82 65.12C121.72 65.05 121.6 65 121.48 65C121.35 65 121.23 65.04 121.12 65.12C121.02 65.2 120.94 65.3 120.9 65.42L119.15 70.64C119.03 70.99 118.83 71.31 118.57 71.57C118.31 71.83 117.99 72.03 117.64 72.15L112.42 73.9C112.3 73.93 112.19 74 112.12 74.1C112.04 74.2 112 74.32 112 74.44C112 74.57 112.04 74.69 112.12 74.8C112.2 74.9 112.3 74.98 112.42 75.02L117.64 76.77C117.99 76.88 118.31 77.08 118.58 77.34C118.84 77.6 119.04 77.92 119.15 78.28L120.9 83.5C120.94 83.62 121.01 83.73 121.12 83.8C121.22 83.88 121.35 83.92 121.48 83.92C121.6 83.92 121.72 83.88 121.82 83.8C121.92 83.72 121.99 83.62 122.02 83.5L124.16 76.98Z" fill="#FFD93D"/>
<path d="M70.2833 100.131L75.6448 98.3467C75.7463 98.3129 75.8393 98.2537 75.8985 98.1607C75.9662 98.0761 76 97.9662 76 97.8562C76 97.7548 75.9662 97.6533 75.8985 97.5687C75.8309 97.4841 75.7463 97.4249 75.6448 97.3996L71.2304 95.9197C70.9345 95.8182 70.6723 95.649 70.4524 95.4207C70.2326 95.2008 70.0634 94.9302 69.9535 94.6427L68.4736 90.3552C68.4482 90.2537 68.389 90.1607 68.3044 90.1015C68.2199 90.0423 68.1184 90 68.0169 90C67.907 90 67.8055 90.0338 67.7125 90.1015C67.6279 90.1691 67.5602 90.2537 67.5264 90.3552L66.0465 94.7696C65.945 95.0655 65.7759 95.3362 65.556 95.556C65.3362 95.7759 65.0655 95.945 64.7696 96.0465L60.3552 97.5264C60.2537 97.5518 60.1607 97.611 60.1015 97.6956C60.0338 97.7801 60 97.8816 60 97.9831C60 98.093 60.0338 98.1945 60.1015 98.2875C60.1691 98.3721 60.2537 98.4397 60.3552 98.4736L64.7696 99.9535C65.0655 100.047 65.3362 100.216 65.5645 100.436C65.7844 100.655 65.9535 100.926 66.0465 101.23L67.5264 105.645C67.5602 105.746 67.6194 105.839 67.7125 105.899C67.797 105.966 67.907 106 68.0169 106C68.1184 106 68.2199 105.966 68.3044 105.899C68.389 105.831 68.4482 105.746 68.4736 105.645L70.2833 100.131Z" fill="#FFD93D"/>
<path d="M165.855 127.232L170.211 125.782C170.294 125.754 170.369 125.706 170.418 125.631C170.473 125.562 170.5 125.473 170.5 125.383C170.5 125.301 170.473 125.218 170.418 125.15C170.363 125.081 170.294 125.033 170.211 125.012L166.625 123.81C166.384 123.727 166.171 123.59 165.993 123.404C165.814 123.226 165.677 123.006 165.587 122.772L164.385 119.289C164.364 119.206 164.316 119.131 164.247 119.082C164.179 119.034 164.096 119 164.014 119C163.924 119 163.842 119.027 163.766 119.082C163.698 119.137 163.643 119.206 163.615 119.289L162.413 122.875C162.33 123.116 162.193 123.336 162.014 123.514C161.836 123.693 161.616 123.83 161.375 123.913L157.789 125.115C157.706 125.136 157.631 125.184 157.582 125.253C157.527 125.321 157.5 125.404 157.5 125.486C157.5 125.576 157.527 125.658 157.582 125.734C157.637 125.802 157.706 125.857 157.789 125.885L161.375 127.087C161.616 127.163 161.836 127.3 162.021 127.479C162.2 127.658 162.337 127.877 162.413 128.125L163.615 131.711C163.643 131.794 163.691 131.869 163.766 131.918C163.835 131.973 163.924 132 164.014 132C164.096 132 164.179 131.973 164.247 131.918C164.316 131.863 164.364 131.794 164.385 131.711L165.855 127.232Z" fill="#FFD93D"/>
</svg>
