<svg width="200" height="200" viewBox="0 0 200 200" fill="none" xmlns="http://www.w3.org/2000/svg">
<mask id="path-1-outside-1_1062_20349" maskUnits="userSpaceOnUse" x="19.249" y="16.9999" width="162" height="166" fill="black">
<rect fill="white" x="19.249" y="16.9999" width="162" height="166"/>
<path d="M98.2471 42.1409C114.429 35.4808 139.927 15.3976 161.37 28.1526C162.034 28.5484 162.658 28.9589 163.243 29.3811C163.494 29.53 163.747 29.6841 164 29.8469C170.75 34.1844 174.613 43.1033 174.844 53.4592C175.075 63.8151 170.737 71.7587 165.925 80.9211C161.113 90.0837 161.241 110.038 153.645 127.413C145.214 146.675 127.632 177.782 80.421 176.306C34.1854 174.868 24.779 131.507 25.2667 114.645C25.8698 93.6251 32.5048 83.8079 36.3546 78.5081C36.4096 78.4324 36.4736 78.3547 36.5469 78.2756C36.8741 77.7895 37.2083 77.3068 37.5489 76.8274C50.5483 58.5153 77.7663 50.5719 98.2471 42.1409Z"/>
</mask>
<path d="M98.2471 42.1409C114.429 35.4808 139.927 15.3976 161.37 28.1526C162.034 28.5484 162.658 28.9589 163.243 29.3811C163.494 29.53 163.747 29.6841 164 29.8469C170.75 34.1844 174.613 43.1033 174.844 53.4592C175.075 63.8151 170.737 71.7587 165.925 80.9211C161.113 90.0837 161.241 110.038 153.645 127.413C145.214 146.675 127.632 177.782 80.421 176.306C34.1854 174.868 24.779 131.507 25.2667 114.645C25.8698 93.6251 32.5048 83.8079 36.3546 78.5081C36.4096 78.4324 36.4736 78.3547 36.5469 78.2756C36.8741 77.7895 37.2083 77.3068 37.5489 76.8274C50.5483 58.5153 77.7663 50.5719 98.2471 42.1409Z" fill="#040000"/>
<path d="M98.2471 42.1409L95.9635 36.5924L95.9632 36.5926L98.2471 42.1409ZM161.37 28.1526L164.442 22.9987L164.438 22.9959L161.37 28.1526ZM163.243 29.3811L159.733 34.2474C159.877 34.351 160.025 34.4483 160.178 34.5388L163.243 29.3811ZM164 29.8469L167.244 24.7992L167.244 24.7992L164 29.8469ZM174.844 53.4592L180.842 53.3255L180.842 53.3254L174.844 53.4592ZM165.925 80.9211L160.613 78.1313L160.613 78.1314L165.925 80.9211ZM153.645 127.413L159.141 129.819L159.142 129.817L153.645 127.413ZM80.421 176.306L80.6084 170.309L80.6074 170.309L80.421 176.306ZM25.2667 114.645L31.2642 114.818L31.2642 114.817L25.2667 114.645ZM36.3546 78.5081L31.5009 74.9807L31.5001 74.9818L36.3546 78.5081ZM36.5469 78.2756L40.9469 82.3549C41.1582 82.127 41.3515 81.8829 41.5251 81.625L36.5469 78.2756ZM37.5489 76.8274L42.4403 80.3022L42.4415 80.3005L37.5489 76.8274ZM98.2471 42.1409L100.531 47.6893C104.904 45.8893 109.863 43.2036 114.706 40.6666C119.696 38.0521 124.803 35.4603 129.989 33.4664C140.456 29.4423 149.957 28.3449 158.303 33.3093L161.37 28.1526L164.438 22.9959C151.34 15.2053 137.371 17.7719 125.683 22.2657C119.791 24.5308 114.149 27.4113 109.137 30.037C103.977 32.7401 99.681 35.0624 95.9635 36.5924L98.2471 42.1409ZM161.37 28.1526L158.298 33.3065C158.814 33.6139 159.291 33.9286 159.733 34.2474L163.243 29.3811L166.753 24.5148C166.024 23.9892 165.254 23.4828 164.442 22.9987L161.37 28.1526ZM163.243 29.3811L160.178 34.5388C160.392 34.666 160.581 34.7818 160.757 34.8946L164 29.8469L167.244 24.7992C166.912 24.5864 166.596 24.3941 166.309 24.2234L163.243 29.3811ZM164 29.8469L160.756 34.8946C165.224 37.7655 168.64 44.386 168.845 53.593L174.844 53.4592L180.842 53.3254C180.586 41.8207 176.276 30.6032 167.244 24.7992L164 29.8469ZM174.844 53.4592L168.845 53.593C169.036 62.1404 165.562 68.7084 160.613 78.1313L165.925 80.9211L171.237 83.711C175.912 74.8091 181.114 65.4897 180.842 53.3255L174.844 53.4592ZM165.925 80.9211L160.613 78.1314C159.04 81.1268 158.009 84.7058 157.195 88.272C156.374 91.8687 155.668 95.956 154.927 100.008C153.407 108.316 151.637 117.027 148.147 125.01L153.645 127.413L159.142 129.817C163.249 120.424 165.213 110.47 166.731 102.167C167.509 97.9133 168.148 94.208 168.894 90.9433C169.646 87.6481 170.404 85.2967 171.237 83.7109L165.925 80.9211ZM153.645 127.413L148.148 125.007C144.047 134.376 137.971 146.005 127.609 155.134C117.417 164.114 102.708 171 80.6084 170.309L80.421 176.306L80.2335 182.303C105.345 183.088 123.033 175.158 135.542 164.138C147.881 153.267 154.811 139.712 159.141 129.819L153.645 127.413ZM80.421 176.306L80.6074 170.309C59.733 169.66 47.5713 159.728 40.4341 148.117C33.0913 136.173 31.0471 122.323 31.2642 114.818L25.2667 114.645L19.2692 114.471C18.9986 123.828 21.4137 140.091 30.2112 154.402C39.2141 169.047 54.8734 181.515 80.2345 182.303L80.421 176.306ZM25.2667 114.645L31.2642 114.817C31.8238 95.3152 37.8618 86.6423 41.209 82.0343L36.3546 78.5081L31.5001 74.9818C27.1478 80.9735 19.9159 91.935 19.2691 114.473L25.2667 114.645ZM36.3546 78.5081L41.2082 82.0354C41.1094 82.1714 41.0189 82.2772 40.9469 82.3549L36.5469 78.2756L32.147 74.1963C31.9283 74.4322 31.7098 74.6933 31.5009 74.9807L36.3546 78.5081ZM36.5469 78.2756L41.5251 81.625C41.8221 81.1836 42.1273 80.7428 42.4403 80.3022L37.5489 76.8274L32.6575 73.3526C32.2893 73.8708 31.926 74.3953 31.5688 74.9263L36.5469 78.2756ZM37.5489 76.8274L42.4415 80.3005C48.0716 72.3694 57.0474 66.3479 67.7103 61.1775C78.5097 55.941 89.8018 52.1059 100.531 47.6892L98.2471 42.1409L95.9632 36.5926C86.2117 40.6068 73.6544 44.959 62.4747 50.3799C51.1586 55.867 40.0256 62.9733 32.6563 73.3543L37.5489 76.8274Z" fill="white" mask="url(#path-1-outside-1_1062_20349)"/>
<path d="M89.5837 59.4776C89.5837 59.4776 40.2038 73.2085 36.354 78.5083C32.5043 83.8082 25.8698 93.6251 25.2667 114.645C24.779 131.507 34.1853 174.868 80.4212 176.306C127.632 177.781 145.213 146.675 153.644 127.413C161.241 110.038 161.113 90.0833 165.925 80.9209C170.737 71.7584 175.075 63.815 174.844 53.4591C174.613 43.1032 170.75 34.1845 164 29.8471C157.25 25.5097 151.475 26.2283 148.588 25.5097C145.701 24.791 89.5837 59.4776 89.5837 59.4776Z" fill="#7AC93F"/>
<path d="M98.2469 42.1406C77.766 50.5716 50.5481 58.515 37.5486 76.8271C25.8068 93.3555 21.8929 113.913 37.7925 138C52.3061 159.995 90.9964 169.376 119.934 148.6C146.433 129.569 148.833 101.633 156.789 83.0766C164.745 64.5207 181.479 40.1387 161.37 28.1531C139.927 15.3975 114.429 35.4805 98.2469 42.1406Z" fill="#9FE868"/>
<path d="M156.79 33.466C147.051 27.8453 134.629 30.3348 120.898 37.0848C107.167 43.8347 96.5671 48.8908 91.7548 50.5718C86.9298 52.2529 45.9424 67.2671 38.0375 87.1833C31.5314 103.558 33.2253 125.001 50.3184 140.657C67.4114 156.312 110.542 155.35 127.16 131.738C143.778 108.126 144.497 89.1081 148.116 80.6771C151.734 72.2461 159.614 59.9011 161.847 53.2154C164.49 45.272 163.053 37.0848 156.79 33.466Z" fill="#FFF9B9"/>
<path d="M109.564 79.227C101.851 70.0774 72.4648 72.9647 62.3527 87.4142C52.2406 101.864 56.4497 113.606 61.3903 119.932C67.4088 127.644 83.796 134.625 98.7203 124.269C113.645 113.914 118.021 89.2621 109.564 79.227Z" fill="#4B9AE8"/>
<path d="M93.1639 71.4246C95.1846 68.0845 102.193 65.2578 105.587 67.3057C108.981 69.3536 109.745 76.8639 107.728 80.1967C105.707 83.5368 101.858 84.908 96.7958 81.8577C91.6719 78.7717 91.1508 74.7692 93.1639 71.4246Z" fill="#EAC00F"/>
<path d="M78.6001 95.6781C74.8017 101.247 76.7009 110.23 70.1691 110.654C63.6373 111.077 59.8389 100.593 64.4714 91.8155C69.4762 82.345 81.3335 78.1231 84.7085 82.6145C88.0963 87.1187 82.2061 90.3911 78.6001 95.6781Z" fill="#70B8FF"/>
<path d="M95.6871 111.33C101.699 111.33 106.573 106.456 106.573 100.444C106.573 94.4316 101.699 89.5576 95.6871 89.5576C89.6747 89.5576 84.8008 94.4316 84.8008 100.444C84.8008 106.456 89.6747 111.33 95.6871 111.33Z" fill="white"/>
<path d="M95.6884 106.246C98.8932 106.246 101.491 103.649 101.491 100.444C101.491 97.2391 98.8932 94.6411 95.6884 94.6411C92.4837 94.6411 89.8857 97.2391 89.8857 100.444C89.8857 103.649 92.4837 106.246 95.6884 106.246Z" fill="#040000"/>
</svg>
