<svg width="200" height="200" viewBox="0 0 200 200" fill="none" xmlns="http://www.w3.org/2000/svg">
<mask id="path-1-outside-1_1347_7233" maskUnits="userSpaceOnUse" x="44" y="22" width="112" height="157" fill="black">
<rect fill="white" x="44" y="22" width="112" height="157"/>
<path d="M94.5508 30.0254C97.2508 27.3254 101.638 27.3254 104.338 30.0254C109.677 35.2643 114.183 41.1929 117.775 47.6035C125.256 36.0435 134.522 28.0519 144.557 28.1133C147.144 28.1698 149.225 30.9819 149.225 34.2441L149.281 70.5254C149.281 80.5379 147.257 95.1635 143.713 103.376C136.315 121.669 122.069 130.51 105.294 132.084V162.083C108.167 151.779 117.563 144.195 128.356 144.101L144.557 144.045C145.344 144.045 146.019 144.72 145.963 145.563C145.175 160.526 132.8 172.619 117.612 172.619H105.969C105.724 172.619 105.496 172.565 105.294 172.47V172.507H95.208C95.0387 172.579 94.8533 172.619 94.6621 172.619L78.4629 172.563C65.4692 172.451 54.5002 161.482 54.5 147.982V145.62C54.5 144.776 55.1752 144.045 56.0752 144.045H67.7188C79.6432 144.045 89.8342 151.501 94.0439 161.946V132.067C75.7512 130.241 60.513 119.323 53.7686 98.4258C51.9123 92.9695 50.7312 81.832 50.2812 75.6445C50.1125 73.5071 50 71.3129 50 69.1191L50.0566 69.1758V34.2441C50.0567 30.8693 52.1942 28.1133 54.8379 28.1133C64.7764 28.1135 73.9536 35.9957 81.3779 47.3975C84.8966 41.0961 89.296 35.2593 94.4941 30.0811L94.5508 30.0254Z"/>
</mask>
<path d="M94.5508 30.0254C97.2508 27.3254 101.638 27.3254 104.338 30.0254C109.677 35.2643 114.183 41.1929 117.775 47.6035C125.256 36.0435 134.522 28.0519 144.557 28.1133C147.144 28.1698 149.225 30.9819 149.225 34.2441L149.281 70.5254C149.281 80.5379 147.257 95.1635 143.713 103.376C136.315 121.669 122.069 130.51 105.294 132.084V162.083C108.167 151.779 117.563 144.195 128.356 144.101L144.557 144.045C145.344 144.045 146.019 144.72 145.963 145.563C145.175 160.526 132.8 172.619 117.612 172.619H105.969C105.724 172.619 105.496 172.565 105.294 172.47V172.507H95.208C95.0387 172.579 94.8533 172.619 94.6621 172.619L78.4629 172.563C65.4692 172.451 54.5002 161.482 54.5 147.982V145.62C54.5 144.776 55.1752 144.045 56.0752 144.045H67.7188C79.6432 144.045 89.8342 151.501 94.0439 161.946V132.067C75.7512 130.241 60.513 119.323 53.7686 98.4258C51.9123 92.9695 50.7312 81.832 50.2812 75.6445C50.1125 73.5071 50 71.3129 50 69.1191L50.0566 69.1758V34.2441C50.0567 30.8693 52.1942 28.1133 54.8379 28.1133C64.7764 28.1135 73.9536 35.9957 81.3779 47.3975C84.8966 41.0961 89.296 35.2593 94.4941 30.0811L94.5508 30.0254Z" fill="#4B9AE8"/>
<path d="M94.5508 30.0254L98.7564 34.3048C98.7688 34.2926 98.7811 34.2803 98.7934 34.268L94.5508 30.0254ZM104.338 30.0254L100.095 34.268C100.109 34.2814 100.122 34.2947 100.136 34.3079L104.338 30.0254ZM117.775 47.6035L112.541 50.5365C113.569 52.3711 115.483 53.5336 117.585 53.6005C119.687 53.6674 121.67 52.6288 122.813 50.8633L117.775 47.6035ZM144.557 28.1133L144.688 22.1147C144.656 22.114 144.625 22.1136 144.593 22.1134L144.557 28.1133ZM149.225 34.2441L143.225 34.2443L143.225 34.2535L149.225 34.2441ZM149.281 70.5254H155.281L155.281 70.516L149.281 70.5254ZM143.713 103.376L138.204 100.999C138.186 101.041 138.168 101.084 138.151 101.126L143.713 103.376ZM105.294 132.084L104.733 126.11C101.65 126.399 99.2939 128.987 99.2939 132.084H105.294ZM105.294 162.083H99.2939C99.2939 165.082 101.509 167.621 104.481 168.028C107.453 168.434 110.268 166.584 111.074 163.694L105.294 162.083ZM128.356 144.101L128.336 138.101C128.325 138.101 128.315 138.101 128.304 138.101L128.356 144.101ZM144.557 144.045L144.558 138.045C144.551 138.045 144.543 138.045 144.536 138.045L144.557 144.045ZM145.963 145.563L139.976 145.164C139.974 145.192 139.973 145.22 139.971 145.248L145.963 145.563ZM105.969 172.619L105.969 178.619H105.969V172.619ZM105.294 172.47L107.856 167.044C105.997 166.167 103.819 166.301 102.082 167.402C100.346 168.502 99.2939 170.414 99.2939 172.47H105.294ZM105.294 172.507V178.507C108.608 178.507 111.294 175.821 111.294 172.507H105.294ZM95.208 172.507V166.507C94.3955 166.507 93.5915 166.672 92.8446 166.992L95.208 172.507ZM94.6621 172.619L94.6415 178.619C94.6484 178.619 94.6552 178.619 94.6621 178.619V172.619ZM78.4629 172.563L78.4109 178.563C78.4214 178.563 78.4318 178.563 78.4423 178.563L78.4629 172.563ZM54.5 147.982H48.5V147.982L54.5 147.982ZM94.0439 161.946L88.4789 164.189C89.5529 166.854 92.3655 168.384 95.1862 167.837C98.007 167.29 100.044 164.82 100.044 161.946H94.0439ZM94.0439 132.067H100.044C100.044 128.984 97.7076 126.403 94.6399 126.097L94.0439 132.067ZM53.7686 98.4258L59.4785 96.5829C59.4689 96.553 59.459 96.5231 59.4488 96.4934L53.7686 98.4258ZM50.2812 75.6445L56.2654 75.2093C56.2645 75.197 56.2636 75.1847 56.2626 75.1723L50.2812 75.6445ZM50 69.1191L54.2426 64.8765C52.5267 63.1605 49.9459 62.6472 47.7039 63.5759C45.4619 64.5046 44 66.6924 44 69.1191H50ZM50.0566 69.1758L45.814 73.4184C47.53 75.1344 50.1107 75.6477 52.3527 74.7191C54.5948 73.7904 56.0566 71.6026 56.0566 69.1758H50.0566ZM50.0566 34.2441L44.0566 34.2439V34.2441H50.0566ZM54.8379 28.1133L54.838 22.1133H54.8379V28.1133ZM81.3779 47.3975L76.3499 50.6715C77.4967 52.4326 79.4813 53.4654 81.5816 53.394C83.682 53.3226 85.5919 52.1576 86.6165 50.3227L81.3779 47.3975ZM94.4941 30.0811L90.2886 25.8017C90.2789 25.8112 90.2692 25.8207 90.2596 25.8303L94.4941 30.0811ZM94.5508 30.0254L98.7934 34.268C99.1503 33.9112 99.7384 33.9112 100.095 34.268L104.338 30.0254L108.581 25.7827C103.537 20.7396 95.3513 20.7396 90.3081 25.7827L94.5508 30.0254ZM104.338 30.0254L100.136 34.3079C105.063 39.1436 109.224 44.6167 112.541 50.5365L117.775 47.6035L123.01 44.6705C119.142 37.7691 114.29 31.3849 108.54 25.7429L104.338 30.0254ZM117.775 47.6035L122.813 50.8633C130.062 39.661 137.75 34.0718 144.52 34.1132L144.557 28.1133L144.593 22.1134C131.294 22.032 120.45 32.426 112.738 44.3438L117.775 47.6035ZM144.557 28.1133L144.426 34.1118C143.977 34.1021 143.614 33.9693 143.378 33.833C143.157 33.7052 143.073 33.5924 143.071 33.5907C143.068 33.5867 143.111 33.6449 143.154 33.7755C143.195 33.9025 143.225 34.0632 143.225 34.2443L149.225 34.2441L155.225 34.2439C155.225 31.3809 154.322 28.5776 152.65 26.3624C150.984 24.1545 148.241 22.1924 144.688 22.1147L144.557 28.1133ZM149.225 34.2441L143.225 34.2535L143.281 70.5348L149.281 70.5254L155.281 70.516L155.225 34.2348L149.225 34.2441ZM149.281 70.5254H143.281C143.281 80.1288 141.294 93.8382 138.204 100.999L143.713 103.376L149.222 105.753C153.22 96.4888 155.281 80.947 155.281 70.5254H149.281ZM143.713 103.376L138.151 101.126C131.664 117.165 119.472 124.727 104.733 126.11L105.294 132.084L105.854 138.058C124.666 136.293 140.965 126.173 149.275 105.626L143.713 103.376ZM105.294 132.084H99.2939V162.083H105.294H111.294V132.084H105.294ZM105.294 162.083L111.074 163.694C113.264 155.836 120.421 150.17 128.409 150.1L128.356 144.101L128.304 138.101C114.704 138.219 103.069 147.722 99.5144 160.472L105.294 162.083ZM128.356 144.101L128.377 150.101L144.577 150.045L144.557 144.045L144.536 138.045L128.336 138.101L128.356 144.101ZM144.557 144.045L144.555 150.045C141.957 150.044 139.796 147.867 139.976 145.164L145.963 145.563L151.95 145.963C152.242 141.572 148.731 138.046 144.558 138.045L144.557 144.045ZM145.963 145.563L139.971 145.248C139.348 157.096 129.537 166.619 117.612 166.619V172.619V178.619C136.063 178.619 151.003 163.956 151.955 145.879L145.963 145.563ZM117.612 172.619V166.619H105.969V172.619V178.619H117.612V172.619ZM105.969 172.619L105.969 166.619C106.617 166.619 107.264 166.765 107.856 167.044L105.294 172.47L102.732 177.895C103.729 178.366 104.831 178.619 105.969 178.619L105.969 172.619ZM105.294 172.47H99.2939V172.507H105.294H111.294V172.47H105.294ZM105.294 172.507V166.507H95.208V172.507V178.507H105.294V172.507ZM95.208 172.507L92.8446 166.992C93.4026 166.753 94.0199 166.619 94.6621 166.619V172.619V178.619C95.6868 178.619 96.6748 178.406 97.5714 178.022L95.208 172.507ZM94.6621 172.619L94.6827 166.619L78.4835 166.564L78.4629 172.563L78.4423 178.563L94.6415 178.619L94.6621 172.619ZM78.4629 172.563L78.5148 166.564C68.8643 166.48 60.5001 158.239 60.5 147.982L54.5 147.982L48.5 147.982C48.5002 164.726 62.074 178.422 78.4109 178.563L78.4629 172.563ZM54.5 147.982H60.5V145.62H54.5H48.5V147.982H54.5ZM54.5 145.62H60.5C60.5 147.95 58.6277 150.045 56.0752 150.045V144.045V138.045C51.7227 138.045 48.5 141.603 48.5 145.62H54.5ZM56.0752 144.045V150.045H67.7188V144.045V138.045H56.0752V144.045ZM67.7188 144.045V150.045C77.0701 150.045 85.1363 155.895 88.4789 164.189L94.0439 161.946L99.609 159.703C94.5321 147.106 82.2163 138.045 67.7188 138.045V144.045ZM94.0439 161.946H100.044V132.067H94.0439H88.0439V161.946H94.0439ZM94.0439 132.067L94.6399 126.097C78.6952 124.505 65.4825 115.186 59.4785 96.5829L53.7686 98.4258L48.0586 100.269C55.5435 123.461 72.8072 135.977 93.448 138.038L94.0439 132.067ZM53.7686 98.4258L59.4488 96.4934C58.7202 94.3516 58.0203 90.6966 57.4415 86.4912C56.8791 82.4048 56.4833 78.2045 56.2654 75.2093L50.2812 75.6445L44.2971 76.0797C44.5292 79.272 44.9489 83.7342 45.5536 88.1274C46.1419 92.4018 46.9607 97.0437 48.0883 100.358L53.7686 98.4258ZM50.2812 75.6445L56.2626 75.1723C56.1024 73.1428 56 71.1127 56 69.1191H50H44C44 71.513 44.1226 73.8713 44.2999 76.1167L50.2812 75.6445ZM50 69.1191L45.7574 73.3618L45.814 73.4184L50.0566 69.1758L54.2993 64.9331L54.2426 64.8765L50 69.1191ZM50.0566 69.1758H56.0566V34.2441H50.0566H44.0566V69.1758H50.0566ZM50.0566 34.2441L56.0566 34.2443C56.0567 33.7867 56.2081 33.5761 56.1903 33.599C56.174 33.62 56.0737 33.7417 55.8417 33.8678C55.5952 34.0018 55.2454 34.1133 54.8379 34.1133V28.1133V22.1133C47.5691 22.1133 44.0568 29.0403 44.0566 34.2439L50.0566 34.2441ZM54.8379 28.1133L54.8378 34.1133C61.5536 34.1134 69.1663 39.6393 76.3499 50.6715L81.3779 47.3975L86.4059 44.1234C78.7409 32.352 67.9992 22.1136 54.838 22.1133L54.8379 28.1133ZM81.3779 47.3975L86.6165 50.3227C89.8662 44.5032 93.9288 39.1134 98.7287 34.3318L94.4941 30.0811L90.2596 25.8303C84.6633 31.4053 79.927 37.6891 76.1393 44.4722L81.3779 47.3975ZM94.4941 30.0811L98.6997 34.3604L98.7564 34.3048L94.5508 30.0254L90.3452 25.746L90.2886 25.8017L94.4941 30.0811Z" fill="white" mask="url(#path-1-outside-1_1347_7233)"/>
<path d="M105.294 115.526H94.0438V161.946C89.8341 151.501 79.6432 144.045 67.7188 144.045H56.075C55.175 144.045 54.5 144.776 54.5 145.62V147.982C54.5 161.482 65.4688 172.451 78.4626 172.563L94.6626 172.62C94.8538 172.62 95.0389 172.58 95.2082 172.507H105.294V172.47C105.496 172.566 105.724 172.62 105.969 172.62H117.613C132.8 172.62 145.175 160.526 145.963 145.563C146.019 144.72 145.344 144.045 144.556 144.045L128.356 144.101C117.562 144.195 108.166 151.779 105.294 162.083V115.526Z" fill="#86D72F"/>
<path d="M127.794 119.463H71.4316V85.6C71.4316 64.7312 79.7566 44.7625 94.4941 30.0812L94.5504 30.025C97.2504 27.325 101.638 27.325 104.338 30.025C119.357 44.7625 127.794 64.9563 127.794 85.9938V119.463Z" fill="#276288"/>
<path d="M149.225 34.2444C149.225 30.9819 147.144 28.1694 144.556 28.1131C126.162 28.0006 110.356 54.9444 103.381 81.3259C102.144 85.9946 97.0812 85.8821 95.8437 81.2134C88.925 54.9444 73.175 28.1131 54.8375 28.1131C52.1938 28.1131 50.0563 30.8694 50.0563 34.2444V69.1759L50 69.1196C50 71.3134 50.1125 73.5071 50.2813 75.6446C50.7313 81.8321 51.9125 92.9696 53.7688 98.4259C61.1938 121.432 78.9125 132.345 99.6688 132.345C118.85 132.345 135.5 123.682 143.713 103.376C147.256 95.1634 149.281 80.5384 149.281 70.5259L149.225 34.2444Z" fill="#4B9AE8"/>
</svg>
