<svg width="200" height="200" viewBox="0 0 200 200" fill="none" xmlns="http://www.w3.org/2000/svg">
<path d="M90.0207 51.7994L12.3018 78.2946C12.3018 78.2946 12.8419 83.4476 15.119 87.8853C17.9657 93.4179 23.5567 100.177 34.3298 102.6C50.2562 106.177 69.248 100.381 87.5974 88.0898C105.947 75.7985 115.917 55.3905 112.253 39.4205C108.852 24.6183 99.6261 20.7936 92.8235 20.1074C90.152 19.8448 85.7143 20.0637 83.7436 20.7644C80.6781 21.8301 90.0207 51.7994 90.0207 51.7994Z" fill="#276288"/>
<path d="M55.0453 41.4059C44.272 49.1281 24.8423 46.8946 15.0471 64.0617C6.31762 79.3895 17.6748 95.7391 32.2873 95.7391C46.739 95.7391 65.8623 89.0533 80.1244 79.6085C95.0142 69.7403 115.057 38.6468 99.014 25.6255C80.9272 10.9402 69.0447 31.3771 55.0453 41.4059Z" fill="#4B9AE8"/>
<path d="M37.6211 87C42.3825 87 46.2423 83.1944 46.2423 78.5C46.2423 73.8056 42.3825 70 37.6211 70C32.8598 70 29 73.8056 29 78.5C29 83.1944 32.8598 87 37.6211 87Z" fill="white"/>
<path d="M37.28 83.0483C39.8768 83.0483 41.982 80.9741 41.982 78.4155C41.982 75.8569 39.8768 73.7827 37.28 73.7827C34.6832 73.7827 32.5781 75.8569 32.5781 78.4155C32.5781 80.9741 34.6832 83.0483 37.28 83.0483Z" fill="black"/>
<path d="M91.6211 50C96.3825 50 100.242 46.1944 100.242 41.5C100.242 36.8056 96.3825 33 91.6211 33C86.8598 33 83 36.8056 83 41.5C83 46.1944 86.8598 50 91.6211 50Z" fill="white"/>
<path d="M91.28 46.0483C93.8768 46.0483 95.982 43.9741 95.982 41.4155C95.982 38.8569 93.8768 36.7827 91.28 36.7827C88.6832 36.7827 86.5781 38.8569 86.5781 41.4155C86.5781 43.9741 88.6832 46.0483 91.28 46.0483Z" fill="black"/>
<path d="M67.4047 37.596C65.7405 37.3041 64.2953 41.2455 56.8212 46.1358C46.7196 52.7487 40.5738 51.5517 41.3037 54.9237C41.8875 57.6243 47.6684 59.3323 55.376 56.8507C68.4849 52.6318 71.4921 38.3259 67.4047 37.596Z" fill="#EAC00F"/>
<path d="M74.8839 36.7344C71.5849 34.9388 73.395 30.5595 77.4094 26.9829C81.745 23.1291 86.7959 23.4942 87.9929 25.421C89.5111 27.8443 85.7448 30.8807 83.5405 32.8805C80.8983 35.3037 78.8546 38.9095 74.8839 36.7344Z" fill="#D7E8FC"/>
<path d="M31.7717 60.0182C29.1149 56.6899 23.9035 59.8576 20.8234 63.9887C17.3345 68.6746 15.539 80.1048 20.3416 80.5866C23.9474 80.9515 23.9474 74.2072 26.356 71.0833C28.7646 67.9594 34.6475 63.6238 31.7717 60.0182Z" fill="#D7E8FC"/>
<path d="M133.188 58.7777C133.188 58.7777 136.093 49.8146 140.151 50.2379C144.37 50.6758 148.428 51.1722 153.873 58.588C160.005 66.9232 162.253 78.6453 166.778 84.3239C178.982 99.6078 186.339 100.995 188.208 116.644C189.989 131.533 179.42 150.832 157.64 146.759C131.291 141.839 119.875 109.87 119.875 109.87L133.188 58.7777Z" fill="#276288"/>
<path d="M119.275 58.1494C112.59 66.1928 112.517 79.0536 113.48 86.513C114.444 93.9725 120.137 117.869 130.122 128.336C140.107 138.803 154.69 144.948 165.157 141.343C175.623 137.737 181.083 129.84 179.185 117.329C178.163 110.585 173.886 104.731 167.755 100.279C161.624 95.8265 151.026 84.1629 151.026 84.1629C151.026 84.1629 148.019 68.5285 147.42 62.9959C146.822 57.4634 146.865 52.2374 142.326 50.6753C138.997 49.5075 126.37 49.6095 119.275 58.1494Z" fill="#4B9AE8"/>
<path d="M122.035 70.0177C119.816 70.3827 117.437 73.6234 118.838 86.0023C120.517 100.79 127.48 112.541 132.429 119.344C137.553 126.38 142.53 125.198 142.589 124.468C142.749 122.395 139.465 119.271 135.48 111.592C129.495 100.104 125.918 88.1482 125.407 81.8565C124.677 72.908 124.911 69.5506 122.035 70.0177Z" fill="#D7E8FC"/>
<path d="M80.4726 147.153C80.1077 147.036 28.008 131.65 28.008 131.65C28.008 131.65 27.4824 133.212 27.1905 135.766C26.592 140.963 27.1905 149.824 31.6282 157.488C35.3944 163.984 41.5694 169.079 50.0362 172.903C55.2476 175.268 61.9188 177.239 71.0424 179.137C97.6252 184.655 129.857 177.181 133.156 152.174C134.499 142.029 128.631 134.073 123.566 130.161C116.15 124.424 108.165 125.475 108.165 125.475L80.4726 147.153Z" fill="#276288"/>
<path d="M88.6767 125.592C71.4074 125.592 63.6851 114.439 48.737 115.417C38.4162 116.089 32.3143 121.913 29.8618 126.818C27.4095 131.723 24.884 140.277 30.84 147.036C37.3361 154.394 47.4961 165.05 78.867 170.437C110.705 175.911 126.412 156.715 127.755 145.693C129.098 134.672 122.982 127.198 113.916 125.84C104.851 124.483 92.005 125.592 88.6767 125.592Z" fill="#4B9AE8"/>
<path d="M57.7434 125.344C56.196 130.731 46.8534 126.351 41.1894 129.869C35.1167 133.621 33.1898 140.555 31.7591 140.555C29.6424 140.555 29.4965 128.322 40.3281 122.264C48.4153 117.739 58.8382 121.549 57.7434 125.344Z" fill="#D7E8FC"/>
</svg>
