<svg width="200" height="200" viewBox="0 0 200 200" fill="none" xmlns="http://www.w3.org/2000/svg">
<mask id="path-1-outside-1_898_3232" maskUnits="userSpaceOnUse" x="-3.09425" y="16.5402" width="197.18" height="161.43" fill="black">
<rect fill="white" x="-3.09425" y="16.5402" width="197.18" height="161.43"/>
<path d="M29.1006 138.388C33.1564 134.753 42.9179 135.538 48.2815 141.753C53.6449 147.968 52.3419 157.767 48.302 161.205C45.3247 163.739 27.2925 168.272 18.1659 170.43C16.4685 170.848 14.3786 168.264 14.9441 166.646C18.5295 158.02 25.8845 140.943 29.1006 138.388ZM110.713 38.9986C134.877 19.3108 162.047 28.2689 171.5 32.3962C172.602 32.8922 173.584 33.6193 174.379 34.5288C175.169 35.4614 175.731 36.5647 176.022 37.7514C178.586 47.7428 183.091 75.9554 159.954 96.6764C146.336 108.861 128.337 118.771 113.218 125.81C113.688 134.206 112.785 142.642 110.521 150.78C106.66 162.829 83.4789 162.907 72.3238 162.208C72.2967 162.206 72.2698 162.202 72.2428 162.2C72.2172 162.198 72.1916 162.198 72.1661 162.196C71.4955 162.147 70.8536 161.903 70.3206 161.493C70.3522 161.493 70.384 161.492 70.4155 161.491C69.999 161.168 69.6611 160.753 69.4302 160.276C69.1636 159.726 69.048 159.114 69.0968 158.504C69.1456 157.895 69.3564 157.309 69.707 156.808L82.9152 137.389L83.008 137.325L75.0963 128.03C68.1577 133.645 60.213 137.892 51.6827 140.542C51.4285 140.622 51.1553 140.625 50.8996 140.55C50.644 140.475 50.4162 140.325 50.2459 140.121C50.0756 139.916 49.9703 139.664 49.943 139.399C49.9157 139.134 49.9679 138.867 50.0929 138.632C54.097 130.666 59.5756 123.536 66.2336 117.618L58.3261 108.327L58.2683 108.388L36.936 118.48C36.3854 118.746 35.7735 118.86 35.1639 118.811C34.5543 118.762 33.9686 118.55 33.4678 118.199C32.9671 117.848 32.569 117.37 32.315 116.813C32.061 116.257 31.9603 115.643 32.0231 115.034C33.1027 104.068 36.8955 81.0387 49.42 78.9951C57.8737 78.0547 66.405 78.5198 74.6716 80.3533C83.9757 66.5368 96.5528 50.3901 110.713 38.9986Z"/>
</mask>
<path d="M29.1006 138.388C33.1564 134.753 42.9179 135.538 48.2815 141.753C53.6449 147.968 52.3419 157.767 48.302 161.205C45.3247 163.739 27.2925 168.272 18.1659 170.43C16.4685 170.848 14.3786 168.264 14.9441 166.646C18.5295 158.02 25.8845 140.943 29.1006 138.388ZM110.713 38.9986C134.877 19.3108 162.047 28.2689 171.5 32.3962C172.602 32.8922 173.584 33.6193 174.379 34.5288C175.169 35.4614 175.731 36.5647 176.022 37.7514C178.586 47.7428 183.091 75.9554 159.954 96.6764C146.336 108.861 128.337 118.771 113.218 125.81C113.688 134.206 112.785 142.642 110.521 150.78C106.66 162.829 83.4789 162.907 72.3238 162.208C72.2967 162.206 72.2698 162.202 72.2428 162.2C72.2172 162.198 72.1916 162.198 72.1661 162.196C71.4955 162.147 70.8536 161.903 70.3206 161.493C70.3522 161.493 70.384 161.492 70.4155 161.491C69.999 161.168 69.6611 160.753 69.4302 160.276C69.1636 159.726 69.048 159.114 69.0968 158.504C69.1456 157.895 69.3564 157.309 69.707 156.808L82.9152 137.389L83.008 137.325L75.0963 128.03C68.1577 133.645 60.213 137.892 51.6827 140.542C51.4285 140.622 51.1553 140.625 50.8996 140.55C50.644 140.475 50.4162 140.325 50.2459 140.121C50.0756 139.916 49.9703 139.664 49.943 139.399C49.9157 139.134 49.9679 138.867 50.0929 138.632C54.097 130.666 59.5756 123.536 66.2336 117.618L58.3261 108.327L58.2683 108.388L36.936 118.48C36.3854 118.746 35.7735 118.86 35.1639 118.811C34.5543 118.762 33.9686 118.55 33.4678 118.199C32.9671 117.848 32.569 117.37 32.315 116.813C32.061 116.257 31.9603 115.643 32.0231 115.034C33.1027 104.068 36.8955 81.0387 49.42 78.9951C57.8737 78.0547 66.405 78.5198 74.6716 80.3533C83.9757 66.5368 96.5528 50.3901 110.713 38.9986Z" fill="black"/>
<path d="M29.1006 138.388L32.8322 143.087C32.9256 143.013 33.0167 142.936 33.1055 142.856L29.1006 138.388ZM48.2815 141.753L52.824 137.833L52.8239 137.833L48.2815 141.753ZM48.302 161.205L52.1907 165.775L52.191 165.774L48.302 161.205ZM18.1659 170.43L16.7851 164.591C16.7669 164.595 16.7488 164.6 16.7307 164.604L18.1659 170.43ZM14.9441 166.646L9.4037 164.343C9.35934 164.449 9.31808 164.557 9.27996 164.666L14.9441 166.646ZM110.713 38.9986L114.474 43.6737C114.484 43.6659 114.494 43.658 114.503 43.6502L110.713 38.9986ZM171.5 32.3962L173.963 26.9251C173.942 26.9158 173.921 26.9066 173.901 26.8975L171.5 32.3962ZM174.379 34.5288L178.959 30.6523C178.938 30.6278 178.917 30.6034 178.896 30.5793L174.379 34.5288ZM176.022 37.7514L170.194 39.18C170.199 39.201 170.205 39.2219 170.21 39.2429L176.022 37.7514ZM159.954 96.6764L163.955 101.148L163.957 101.146L159.954 96.6764ZM113.218 125.81L110.685 120.371C108.46 121.407 107.09 123.695 107.227 126.146L113.218 125.81ZM110.521 150.78L116.235 152.61C116.259 152.536 116.281 152.462 116.302 152.387L110.521 150.78ZM72.3238 162.208L72.6989 156.22C72.6892 156.219 72.6795 156.218 72.6698 156.218L72.3238 162.208ZM72.2428 162.2L72.7305 156.219C72.6917 156.216 72.6529 156.214 72.6141 156.211L72.2428 162.2ZM72.1661 162.196L71.7312 168.18C71.7511 168.182 71.7711 168.183 71.791 168.184L72.1661 162.196ZM70.3206 161.493L70.2727 155.493C67.7122 155.514 65.4469 157.157 64.6323 159.584C63.8178 162.012 64.6335 164.689 66.6634 166.25L70.3206 161.493ZM70.4155 161.491L70.469 167.491C73.0232 167.468 75.283 165.831 76.1002 163.411C76.9174 160.991 76.1128 158.319 74.0952 156.752L70.4155 161.491ZM69.4302 160.276L64.0306 162.892L64.0306 162.892L69.4302 160.276ZM69.0968 158.504L63.1159 158.026L63.1159 158.026L69.0968 158.504ZM69.707 156.808L74.6226 160.249C74.638 160.227 74.6532 160.205 74.6682 160.183L69.707 156.808ZM82.9152 137.389L79.4988 132.457C78.8925 132.876 78.3688 133.405 77.954 134.014L82.9152 137.389ZM83.008 137.325L86.4245 142.257C87.8178 141.292 88.7379 139.782 88.9575 138.102C89.177 136.421 88.6755 134.726 87.5769 133.435L83.008 137.325ZM75.0963 128.03L79.6652 124.141C77.555 121.662 73.853 121.318 71.3222 123.366L75.0963 128.03ZM51.6827 140.542L49.9027 134.812C49.8943 134.815 49.8859 134.817 49.8775 134.82L51.6827 140.542ZM50.8996 140.55L49.2067 146.306L49.209 146.307L50.8996 140.55ZM50.2459 140.121L45.6324 143.957L45.6335 143.958L50.2459 140.121ZM49.943 139.399L43.9744 140.013L43.9746 140.015L49.943 139.399ZM50.0929 138.632L55.3911 141.448C55.4125 141.408 55.4334 141.367 55.4538 141.327L50.0929 138.632ZM66.2336 117.618L70.2198 122.102C72.6589 119.934 72.9179 116.214 70.8027 113.729L66.2336 117.618ZM58.3261 108.327L62.8952 104.438C61.7886 103.138 60.1805 102.371 58.4737 102.329C56.7668 102.287 55.1229 102.974 53.9537 104.218L58.3261 108.327ZM58.2683 108.388L60.834 113.812C61.5133 113.491 62.1261 113.045 62.6407 112.497L58.2683 108.388ZM36.936 118.48L34.3703 113.056C34.355 113.063 34.3397 113.07 34.3245 113.078L36.936 118.48ZM35.1639 118.811L34.6806 124.792L34.6808 124.792L35.1639 118.811ZM33.4678 118.199L30.0224 123.111L30.0227 123.111L33.4678 118.199ZM32.315 116.813L26.8568 119.305L26.8569 119.305L32.315 116.813ZM32.0231 115.034L37.9914 115.649C37.9924 115.64 37.9933 115.631 37.9942 115.622L32.0231 115.034ZM49.42 78.9951L48.7567 73.0319C48.6554 73.0431 48.5544 73.057 48.4538 73.0734L49.42 78.9951ZM74.6716 80.3533L73.3724 86.2109C75.7806 86.7451 78.2705 85.7508 79.6483 83.7046L74.6716 80.3533ZM29.1006 138.388L33.1055 142.856C33.3288 142.656 34.7245 141.94 37.3491 142.316C39.7584 142.661 42.1423 143.823 43.7391 145.673L48.2815 141.753L52.8239 137.833C49.0571 133.468 43.8784 131.129 39.0522 130.437C34.4412 129.776 28.9283 130.485 25.0958 133.92L29.1006 138.388ZM48.2815 141.753L43.739 145.673C45.2323 147.403 45.9309 149.814 45.8237 152.258C45.7074 154.911 44.7341 156.363 44.413 156.636L48.302 161.205L52.191 165.774C55.9098 162.609 57.6079 157.443 57.8122 152.783C58.0257 147.914 56.694 142.318 52.824 137.833L48.2815 141.753ZM48.302 161.205L44.4133 156.636C44.6804 156.409 44.6795 156.482 43.9935 156.802C43.4178 157.07 42.6138 157.396 41.5788 157.77C39.5149 158.517 36.8467 159.345 33.8922 160.189C28.0009 161.872 21.3138 163.52 16.7851 164.591L18.1659 170.43L19.5467 176.269C24.1445 175.182 31.0368 173.484 37.1876 171.728C40.2542 170.852 43.2228 169.937 45.6625 169.054C46.8793 168.614 48.0438 168.153 49.0598 167.68C49.9654 167.258 51.1793 166.635 52.1907 165.775L48.302 161.205ZM18.1659 170.43L16.7307 164.604C18.033 164.283 19.0454 164.628 19.508 164.855C19.9702 165.082 20.2085 165.332 20.3141 165.458C20.4239 165.59 20.5834 165.82 20.7036 166.21C20.8144 166.569 21.01 167.475 20.6083 168.625L14.9441 166.646L9.27996 164.666C7.97729 168.394 9.86137 171.661 11.0987 173.145C12.3034 174.589 15.3985 177.291 19.601 176.256L18.1659 170.43ZM14.9441 166.646L20.4845 168.949C22.2658 164.663 24.9563 158.345 27.5815 152.812C28.8983 150.037 30.1565 147.55 31.2448 145.646C31.7903 144.692 32.249 143.963 32.612 143.45C33.0418 142.844 33.1133 142.863 32.8322 143.087L29.1006 138.388L25.3691 133.69C24.284 134.552 23.4221 135.664 22.82 136.514C22.1512 137.458 21.4796 138.549 20.8273 139.69C19.5199 141.977 18.1123 144.776 16.7401 147.668C13.9874 153.469 11.2078 160.002 9.4037 164.343L14.9441 166.646ZM110.713 38.9986L114.503 43.6502C135.905 26.2127 160.127 33.9779 169.099 37.895L171.5 32.3962L173.901 26.8975C163.966 22.56 133.849 12.4089 106.923 34.3471L110.713 38.9986ZM171.5 32.3962L169.037 37.8674C169.354 38.0103 169.636 38.2191 169.862 38.4784L174.379 34.5288L178.896 30.5793C177.532 29.0195 175.849 27.7741 173.963 26.9251L171.5 32.3962ZM174.379 34.5288L169.8 38.4054C169.989 38.6286 170.124 38.8938 170.194 39.18L176.022 37.7514L181.849 36.3227C181.337 34.2357 180.349 32.2942 178.959 30.6523L174.379 34.5288ZM176.022 37.7514L170.21 39.2429C172.645 48.731 176.443 73.8552 155.951 92.2068L159.954 96.6764L163.957 101.146C189.74 78.0555 184.527 46.7545 181.833 36.2599L176.022 37.7514ZM159.954 96.6764L155.953 92.205C142.983 103.81 125.604 113.425 110.685 120.371L113.218 125.81L115.75 131.25C131.07 124.117 149.688 113.913 163.955 101.148L159.954 96.6764ZM113.218 125.81L107.227 126.146C107.661 133.889 106.828 141.668 104.741 149.172L110.521 150.78L116.302 152.387C118.742 143.615 119.716 134.523 119.208 125.475L113.218 125.81ZM110.521 150.78L104.807 148.949C104.417 150.167 103.475 151.391 101.463 152.568C99.3927 153.779 96.5251 154.726 93.0524 155.377C86.1108 156.678 78.1104 156.558 72.6989 156.22L72.3238 162.208L71.9487 168.196C77.6923 168.556 86.8603 168.747 95.2633 167.172C99.463 166.384 103.812 165.096 107.522 162.926C111.291 160.721 114.695 157.417 116.235 152.61L110.521 150.78ZM72.3238 162.208L72.6698 156.218C72.7665 156.223 72.8448 156.23 72.8947 156.235C72.9201 156.238 72.9408 156.24 72.9545 156.242C72.9679 156.243 72.9777 156.244 72.9795 156.245C72.9804 156.245 72.9809 156.245 72.9789 156.244C72.9776 156.244 72.9738 156.244 72.9696 156.243C72.9613 156.242 72.9449 156.24 72.925 156.238C72.8859 156.234 72.8164 156.227 72.7305 156.219L72.2428 162.2L71.7551 168.18C71.6827 168.174 71.6267 168.168 71.6011 168.165C71.5879 168.164 71.5783 168.162 71.5767 168.162C71.5759 168.162 71.5754 168.162 71.5775 168.162C71.5789 168.162 71.5828 168.163 71.587 168.163C71.6017 168.165 71.6511 168.171 71.7123 168.177C71.7757 168.183 71.8675 168.191 71.9778 168.198L72.3238 162.208ZM72.2428 162.2L72.6141 156.211C72.5643 156.208 72.5229 156.206 72.4953 156.205C72.4697 156.204 72.4467 156.203 72.4434 156.203C72.4345 156.202 72.445 156.203 72.4586 156.203C72.4739 156.204 72.5033 156.205 72.5412 156.208L72.1661 162.196L71.791 168.184C71.8416 168.187 71.8838 168.19 71.9119 168.191C71.9382 168.192 71.9615 168.193 71.9654 168.193C71.9749 168.193 71.9647 168.193 71.9519 168.192C71.9371 168.192 71.9085 168.19 71.8715 168.188L72.2428 162.2ZM72.1661 162.196L72.601 156.212C73.1011 156.248 73.5797 156.43 73.9779 156.736L70.3206 161.493L66.6634 166.25C68.1276 167.375 69.8899 168.046 71.7312 168.18L72.1661 162.196ZM70.3206 161.493L70.3686 167.493C70.4063 167.492 70.4384 167.492 70.461 167.491C70.4825 167.491 70.5018 167.491 70.5084 167.49C70.5188 167.49 70.5157 167.49 70.5112 167.49C70.5053 167.491 70.4899 167.491 70.469 167.491L70.4155 161.491L70.3621 155.491C70.3253 155.492 70.2941 155.492 70.2724 155.493C70.2521 155.493 70.2332 155.494 70.2277 155.494C70.2184 155.494 70.2219 155.494 70.2276 155.494C70.2344 155.494 70.2507 155.493 70.2727 155.493L70.3206 161.493ZM70.4155 161.491L74.0952 156.752C74.4014 156.99 74.6549 157.299 74.8299 157.66L69.4302 160.276L64.0306 162.892C64.6674 164.207 65.5966 165.346 66.7359 166.23L70.4155 161.491ZM69.4302 160.276L74.8299 157.66C75.0272 158.067 75.1144 158.523 75.0777 158.983L69.0968 158.504L63.1159 158.026C62.9816 159.705 63.3 161.384 64.0306 162.892L69.4302 160.276ZM69.0968 158.504L75.0776 158.983C75.0411 159.439 74.8834 159.876 74.6226 160.249L69.707 156.808L64.7914 153.368C63.8293 154.742 63.25 156.35 63.1159 158.026L69.0968 158.504ZM69.707 156.808L74.6682 160.183L87.8764 140.763L82.9152 137.389L77.954 134.014L64.7458 153.434L69.707 156.808ZM82.9152 137.389L86.3317 142.321L86.4245 142.257L83.008 137.325L79.5916 132.392L79.4988 132.457L82.9152 137.389ZM83.008 137.325L87.5769 133.435L79.6652 124.141L75.0963 128.03L70.5275 131.919L78.4392 141.214L83.008 137.325ZM75.0963 128.03L71.3222 123.366C64.9742 128.502 57.7062 132.388 49.9027 134.812L51.6827 140.542L53.4627 146.272C62.7198 143.396 71.3411 138.787 78.8705 132.694L75.0963 128.03ZM51.6827 140.542L49.8775 134.82C50.7553 134.543 51.699 134.531 52.5901 134.793L50.8996 140.55L49.209 146.307C50.6116 146.719 52.1017 146.701 53.4879 146.264L51.6827 140.542ZM50.8996 140.55L52.5924 134.794C53.4769 135.054 54.266 135.571 54.8583 136.283L50.2459 140.121L45.6335 143.958C46.5665 145.079 47.8112 145.896 49.2067 146.306L50.8996 140.55ZM50.2459 140.121L54.8594 136.284C55.4547 137 55.8173 137.872 55.9114 138.784L49.943 139.399L43.9746 140.015C44.1233 141.457 44.6964 142.831 45.6324 143.957L50.2459 140.121ZM49.943 139.399L55.9115 138.786C56.0059 139.704 55.8253 140.631 55.3911 141.448L50.0929 138.632L44.7947 135.816C44.1105 137.104 43.8255 138.565 43.9744 140.013L49.943 139.399ZM50.0929 138.632L55.4538 141.327C59.1168 134.039 64.1286 127.517 70.2198 122.102L66.2336 117.618L62.2474 113.133C55.0225 119.556 49.0773 127.292 44.732 135.937L50.0929 138.632ZM66.2336 117.618L70.8027 113.729L62.8952 104.438L58.3261 108.327L53.757 112.216L61.6645 121.507L66.2336 117.618ZM58.3261 108.327L53.9537 104.218L53.896 104.28L58.2683 108.388L62.6407 112.497L62.6985 112.436L58.3261 108.327ZM58.2683 108.388L55.7026 102.965L34.3703 113.056L36.936 118.48L39.5017 123.903L60.834 113.812L58.2683 108.388ZM36.936 118.48L34.3245 113.078C34.7346 112.88 35.191 112.794 35.647 112.831L35.1639 118.811L34.6808 124.792C36.3561 124.927 38.0362 124.612 39.5476 123.882L36.936 118.48ZM35.1639 118.811L35.6472 112.831C36.1054 112.868 36.5416 113.026 36.9129 113.287L33.4678 118.199L30.0227 123.111C31.3955 124.074 33.0031 124.656 34.6806 124.792L35.1639 118.811ZM33.4678 118.199L36.9132 113.287C37.2848 113.548 37.5825 113.904 37.7731 114.322L32.315 116.813L26.8569 119.305C27.5554 120.835 28.6495 122.148 30.0224 123.111L33.4678 118.199ZM32.315 116.813L37.7732 114.322C37.9634 114.738 38.0381 115.197 37.9914 115.649L32.0231 115.034L26.0547 114.419C25.8826 116.088 26.1586 117.775 26.8568 119.305L32.315 116.813ZM32.0231 115.034L37.9942 115.622C38.5174 110.308 39.6772 102.385 42.0773 95.6947C43.2781 92.3475 44.6785 89.6289 46.2206 87.7371C47.7244 85.8922 49.107 85.1255 50.3863 84.9168L49.42 78.9951L48.4538 73.0734C43.4709 73.8865 39.6827 76.7649 36.9191 80.1554C34.1937 83.499 32.2301 87.6062 30.7821 91.6427C27.8848 99.7191 26.6084 108.794 26.0519 114.446L32.0231 115.034ZM49.42 78.9951L50.0834 84.9583C57.8801 84.091 65.7484 84.5199 73.3724 86.2109L74.6716 80.3533L75.9708 74.4956C67.0617 72.5196 57.8673 72.0185 48.7567 73.0319L49.42 78.9951ZM74.6716 80.3533L79.6483 83.7046C88.8268 70.0747 101.007 54.5073 114.474 43.6737L110.713 38.9986L106.952 34.3236C92.0986 46.2729 79.1245 62.9989 69.6948 77.0019L74.6716 80.3533Z" fill="white" mask="url(#path-1-outside-1_898_3232)"/>
<path d="M58.2684 108.389L82.8015 82.6297C72.0758 78.9837 60.679 77.7429 49.42 78.9954C36.8955 81.0389 33.103 104.068 32.0234 115.034C31.9606 115.642 32.0615 116.257 32.3155 116.813C32.5694 117.369 32.9674 117.848 33.4681 118.199C33.9689 118.55 34.5544 118.761 35.164 118.811C35.7737 118.86 36.3854 118.746 36.9361 118.479L58.2684 108.389Z" fill="#4B9AE6"/>
<path d="M48.6575 89.4718C57.3805 88.3966 66.2269 88.9332 74.7561 91.0548L82.7988 82.6689C72.0731 79.023 60.6763 77.7822 49.4173 79.0346C36.896 81.0389 33.1035 104.068 32.0238 115.034C31.96 115.704 32.0991 116.378 32.423 116.968C34.5342 105.49 38.8208 91.0976 48.6575 89.4718Z" fill="#8BBBF1"/>
<path d="M82.9159 137.389L112.263 117.285C114.148 128.443 113.553 139.878 110.521 150.779C106.661 162.829 83.4792 162.907 72.324 162.208C71.7134 162.173 71.1232 161.975 70.6145 161.636C70.1058 161.296 69.697 160.827 69.4303 160.276C69.1636 159.726 69.0487 159.114 69.0975 158.505C69.1462 157.895 69.3569 157.309 69.7077 156.808L82.9159 137.389Z" fill="#4B9AE6"/>
<path d="M99.9359 149.889C102.412 141.44 103.297 132.605 102.546 123.833L112.105 117.273C113.99 128.43 113.396 139.865 110.364 150.767C106.503 162.817 83.3213 162.894 72.1661 162.196C71.4955 162.147 70.854 161.902 70.321 161.493C81.9756 161.4 96.8808 159.31 99.9359 149.889Z" fill="#8BBBF1"/>
<path d="M159.954 96.6761C183.092 75.955 178.586 47.7427 176.021 37.7514C175.731 36.5647 175.168 35.4618 174.379 34.5293C173.584 33.6197 172.602 32.8922 171.5 32.3962C162.047 28.2689 134.877 19.3104 110.713 38.9983C80.8952 62.9855 58.0976 108.058 58.0976 108.058L83.4358 137.826C83.4358 137.826 131.354 122.267 159.954 96.6761Z" fill="#CAE3FF"/>
<path d="M92.6108 107.465C92.9377 106.981 93.0979 106.404 93.0671 105.82C93.0362 105.237 92.816 104.68 92.4398 104.233C92.0635 103.786 91.5519 103.474 90.9823 103.344C90.4128 103.214 89.8165 103.274 89.2838 103.513C81.3 106.822 73.8511 111.296 67.1803 116.791C60.0937 122.867 54.2855 130.291 50.0931 138.632C49.968 138.867 49.9158 139.135 49.9431 139.4C49.9704 139.665 50.0761 139.916 50.2465 140.121C50.417 140.326 50.6446 140.475 50.9003 140.55C51.1561 140.625 51.4284 140.623 51.6826 140.542C60.569 137.782 68.8204 133.288 75.9605 127.321C82.4759 121.576 88.0889 114.882 92.6108 107.465Z" fill="#4B9AE6"/>
<path d="M48.3027 161.206C45.3259 163.739 27.2928 168.272 18.166 170.43C16.4685 170.848 14.3786 168.264 14.9445 166.645C18.5298 158.02 25.8847 140.942 29.1009 138.388C33.1567 134.753 42.9184 135.537 48.2819 141.752C53.6454 147.968 52.3427 157.767 48.3027 161.206Z" fill="#FF8A14"/>
<path d="M44.072 154.21C41.9488 155.98 33.6396 157.333 32.0862 155.465C30.5329 153.597 33.1655 145.489 35.2791 143.837C36.6547 143.051 38.2786 142.822 39.8176 143.196C41.3567 143.571 42.6942 144.52 43.5556 145.849C44.6799 146.921 45.3579 148.378 45.4536 149.928C45.5494 151.478 45.0559 153.008 44.072 154.21Z" fill="#FFE500"/>
<path d="M123.513 60.0697C123.3 62.7196 123.611 65.3855 124.428 67.9153C125.245 70.445 126.553 72.789 128.276 74.8134C129.999 76.8379 132.104 78.5031 134.471 79.714C136.838 80.9248 139.42 81.6577 142.07 81.8708C144.719 82.0838 147.385 81.7728 149.915 80.9555C152.445 80.1382 154.789 78.8307 156.813 77.1076C158.838 75.3844 160.503 73.2794 161.714 70.9127C162.925 68.546 163.658 65.964 163.871 63.314C164.084 60.6641 163.773 57.9981 162.955 55.4684C162.138 52.9387 160.831 50.5947 159.107 48.5703C157.384 46.5458 155.279 44.8806 152.913 43.6697C150.546 42.4588 147.964 41.726 145.314 41.5129C142.664 41.2999 139.998 41.6109 137.468 42.4282C134.939 43.2454 132.595 44.553 130.57 46.2761C128.546 47.9993 126.881 50.1043 125.67 52.471C124.459 54.8377 123.726 57.4197 123.513 60.0697Z" fill="#1D5592"/>
<mask id="mask0_898_3232" style="mask-type:alpha" maskUnits="userSpaceOnUse" x="123" y="41" width="41" height="41">
<circle cx="143.592" cy="61.6073" r="20.1636" transform="rotate(4.59612 143.592 61.6073)" fill="#D9D9D9"/>
</mask>
<g mask="url(#mask0_898_3232)">
<path d="M165.471 77.0507L164.79 85.5209C164.684 86.8379 163.519 87.8309 162.2 87.7249L121.33 84.4393C120.013 84.3335 119.02 83.1689 119.126 81.85L119.754 74.0412C121.565 71.0698 124.25 68.5523 127.52 66.6928C127.437 65.6778 127.433 64.6397 127.517 63.5873C128.294 53.9246 136.094 47.3014 145.002 48.0175C153.91 48.7336 160.548 56.5175 159.772 66.1802C159.687 67.2307 159.521 68.255 159.275 69.2436C161.997 71.4321 164.128 74.0998 165.471 77.0507Z" fill="#4B98E6"/>
<path d="M153.116 64.5118C154.917 64.6566 156.495 63.3137 156.64 61.5123C156.785 59.711 155.442 58.1333 153.641 57.9885C151.839 57.8437 150.262 59.1866 150.117 60.9879C149.972 62.7893 151.315 64.367 153.116 64.5118Z" fill="white"/>
<path d="M153.221 63.0399C154.218 63.1201 155.09 62.3771 155.17 61.3805C155.251 60.3839 154.508 59.5111 153.511 59.431C152.514 59.3508 151.642 60.0938 151.561 61.0904C151.481 62.087 152.224 62.9598 153.221 63.0399Z" fill="black"/>
<path d="M147.609 64.1705C147.344 65.9064 144.91 68.2895 143.145 68.0243C141.38 67.7591 139.768 64.7656 140.035 63.0298C140.3 61.2939 141.671 60.0602 144.304 60.4561C146.967 60.8576 147.876 62.4348 147.609 64.1705Z" fill="#EAC00F"/>
<path d="M134.669 63.0289C136.47 63.1737 138.048 61.8308 138.193 60.0294C138.338 58.2281 136.995 56.6504 135.194 56.5056C133.392 56.3608 131.814 57.7037 131.67 59.505C131.525 61.3064 132.868 62.8841 134.669 63.0289Z" fill="white"/>
<path d="M134.774 61.557C135.771 61.6371 136.644 60.8942 136.724 59.8976C136.804 58.901 136.061 58.0282 135.065 57.948C134.068 57.8679 133.195 58.6109 133.115 59.6075C133.035 60.6041 133.778 61.4769 134.774 61.557Z" fill="black"/>
</g>
</svg>
