<svg width="200" height="200" viewBox="0 0 200 200" fill="none" xmlns="http://www.w3.org/2000/svg">
<path d="M119.224 129.802C120.88 129.802 122.224 131.145 122.224 132.802V149.508C122.221 159.406 125.43 169.037 131.37 176.955L131.506 177.142C132.167 178.084 132.573 179.185 132.68 180.334C132.794 181.56 132.564 182.794 132.017 183.896C131.469 184.999 130.626 185.928 129.581 186.578C128.536 187.228 127.33 187.575 126.099 187.579H74.6963C73.4652 187.575 72.2591 187.228 71.2139 186.578C70.1687 185.928 69.3256 184.999 68.7783 183.896C68.231 182.794 68.001 181.56 68.1152 180.334C68.2295 179.108 68.6831 177.938 69.4248 176.955C75.3645 169.037 78.5742 159.406 78.5713 149.508V132.802C78.5713 131.145 79.9145 129.802 81.5713 129.802H119.224Z" fill="#DEA47A" stroke="white" stroke-width="6" stroke-linejoin="round"/>
<path d="M119.224 129.802C120.88 129.802 122.224 131.145 122.224 132.802V149.514C122.211 154.652 123.084 159.754 124.805 164.595C125.131 165.513 124.992 166.534 124.43 167.33C123.868 168.126 122.953 168.6 121.979 168.6H78.7725C77.7983 168.6 76.8845 168.127 76.3223 167.331C75.7602 166.536 75.6193 165.517 75.9443 164.599C77.6609 159.751 78.5491 154.649 78.5713 149.507V132.802C78.5713 131.145 79.9144 129.802 81.5713 129.802H119.224Z" fill="#BF8256" stroke="white" stroke-width="6" stroke-linejoin="round"/>
<path d="M100.485 11.9131C102.196 11.9131 103.889 12.2643 105.458 12.9453C106.929 13.5837 108.262 14.4993 109.385 15.6406L109.608 15.8721L109.624 15.8896L148.979 58.6562C150.234 60.0176 151.065 61.7155 151.37 63.542C151.674 65.3685 151.44 67.2446 150.694 68.9395C149.948 70.6343 148.724 72.0745 147.172 73.084C145.619 74.0934 143.806 74.6277 141.955 74.6221H141.943C141.613 74.62 141.29 74.7153 141.014 74.8955C140.738 75.0759 140.521 75.3338 140.39 75.6367C140.26 75.9397 140.221 76.2749 140.28 76.5996C140.339 76.9243 140.491 77.2246 140.719 77.4629C140.729 77.4725 140.738 77.4825 140.747 77.4922L158.232 96.2441L158.465 96.502C159.604 97.8077 160.367 99.402 160.668 101.113C160.988 102.938 160.768 104.817 160.036 106.52C159.303 108.222 158.09 109.674 156.545 110.696C154.999 111.719 153.188 112.267 151.335 112.274H148.754C148.584 112.275 148.419 112.324 148.276 112.415C148.134 112.506 148.02 112.637 147.949 112.79C147.878 112.943 147.851 113.114 147.873 113.282C147.895 113.448 147.963 113.605 148.069 113.734L164.901 133.758H164.9C166.493 135.599 167.525 137.858 167.871 140.269C168.219 142.697 167.858 145.176 166.829 147.403C165.864 149.492 164.351 151.276 162.456 152.569L162.072 152.822C160.007 154.125 157.611 154.803 155.171 154.779V154.781H45.5808V154.779C43.1404 154.794 40.7472 154.107 38.6873 152.798C36.6206 151.484 34.9768 149.602 33.9548 147.377C32.9328 145.152 32.576 142.678 32.9265 140.254C33.2753 137.843 34.3102 135.583 35.907 133.743L52.948 113.729C53.0523 113.6 53.1199 113.446 53.1414 113.282C53.1632 113.114 53.1367 112.944 53.0652 112.79C52.9937 112.637 52.8805 112.506 52.738 112.415C52.6312 112.347 52.511 112.302 52.3865 112.284L52.2605 112.274H49.6921V112.273C47.8361 112.277 46.019 111.739 44.4656 110.723C42.9101 109.705 41.6874 108.254 40.947 106.549C40.2067 104.844 39.9812 102.96 40.2996 101.129C40.618 99.2977 41.4656 97.5991 42.738 96.2441L60.2068 77.5098C60.4322 77.2639 60.5816 76.9579 60.6365 76.6289C60.6914 76.2999 60.6497 75.962 60.5164 75.6562C60.3829 75.3505 60.1632 75.0897 59.8845 74.9062C59.6059 74.7228 59.2796 74.6239 58.946 74.6221V74.6211C57.1019 74.6132 55.2996 74.0709 53.7585 73.0576C52.216 72.0433 51.0013 70.6024 50.2634 68.9102C49.5255 67.2178 49.2967 65.347 49.6033 63.5264C49.9099 61.7058 50.7395 60.0136 51.991 58.6562L91.3464 15.8896L91.363 15.8721C92.5313 14.6228 93.9434 13.6263 95.5125 12.9453C97.0817 12.2643 98.7745 11.9131 100.485 11.9131Z" fill="#4B98E6" stroke="white" stroke-width="6" stroke-linejoin="round"/>
<path d="M100.484 11.9131C102.195 11.9131 103.888 12.2643 105.457 12.9453C106.928 13.5838 108.262 14.4992 109.385 15.6406L109.607 15.8721L109.624 15.8896L148.981 58.6582H148.98C150.186 59.9448 151.008 61.5424 151.355 63.2715C151.704 65.013 151.558 66.8177 150.93 68.4795C150.303 70.1413 149.221 71.5936 147.807 72.6699C146.394 73.746 144.707 74.4033 142.938 74.5664C142.008 74.6522 141.091 74.2989 140.458 73.6123L105.123 35.3047V35.3037C104.519 34.6619 103.79 34.1498 102.981 33.7988C102.166 33.445 101.286 33.2627 100.397 33.2627C99.5084 33.2627 98.6286 33.445 97.8132 33.7988C96.998 34.1527 96.264 34.6702 95.657 35.3193L60.3367 73.6123C59.6856 74.3182 58.7357 74.6704 57.782 74.5586C56.0348 74.3538 54.3793 73.6661 53.0007 72.5732C51.6221 71.4803 50.5753 70.0246 49.9773 68.3701C49.3793 66.7157 49.2538 64.9277 49.615 63.2061C49.9729 61.5002 50.7947 59.9268 51.989 58.6582L91.3455 15.8896C91.3509 15.8838 91.3566 15.8779 91.3621 15.8721C92.5304 14.6226 93.9432 13.6263 95.5125 12.9453C97.0815 12.2644 98.7737 11.9131 100.484 11.9131Z" fill="#276288" stroke="white" stroke-width="6" stroke-linejoin="round"/>
<path d="M77.6494 69C85.1477 69 91.2988 75.0043 91.2988 82.5C91.2988 89.9957 85.1477 96 77.6494 96C70.1512 95.9999 64 89.9957 64 82.5C64 75.0044 70.1512 69.0001 77.6494 69Z" fill="white" stroke="white" stroke-width="6" stroke-miterlimit="10" stroke-linejoin="round"/>
<path d="M77.2285 73.6724C82.0509 73.6725 86.036 77.536 86.0361 82.395C86.0361 87.2541 82.051 91.1175 77.2285 91.1177C72.4059 91.1177 68.4199 87.2543 68.4199 82.395C68.42 77.5359 72.406 73.6724 77.2285 73.6724Z" fill="black" stroke="white" stroke-width="6" stroke-linejoin="round"/>
<path d="M124.649 69C132.148 69 138.299 75.0043 138.299 82.5C138.299 89.9957 132.148 96 124.649 96C117.151 95.9999 111 89.9957 111 82.5C111 75.0044 117.151 69.0001 124.649 69Z" fill="white" stroke="white" stroke-width="6" stroke-miterlimit="10" stroke-linejoin="round"/>
<path d="M124.229 73.6724C129.051 73.6725 133.036 77.536 133.036 82.395C133.036 87.2541 129.051 91.1175 124.229 91.1177C119.406 91.1177 115.42 87.2543 115.42 82.395C115.42 77.5359 119.406 73.6724 124.229 73.6724Z" fill="black" stroke="white" stroke-width="6" stroke-linejoin="round"/>
<path d="M91.2344 85.7959C93.8897 83.6743 97.5219 82.7551 101.856 83.0557C106.19 83.3562 109.66 84.7665 111.991 87.2393C114.341 89.7324 115.193 92.9467 114.964 96.1396C114.959 96.2105 114.948 96.2803 114.938 96.3496C114.618 99.76 112.47 103.39 109.983 106.031C107.506 108.663 103.793 111.254 99.8623 110.98C95.9289 110.707 92.62 107.628 90.54 104.677C88.4095 101.654 86.7762 97.6599 87.0254 94.1846C87.2545 90.9931 88.5578 87.9346 91.2344 85.7959Z" fill="#F5DB74" stroke="white" stroke-width="6" stroke-miterlimit="10" stroke-linejoin="round"/>
<path d="M128.975 178.763C129.382 179.301 129.63 179.941 129.692 180.612C129.755 181.284 129.629 181.959 129.33 182.563C129.03 183.167 128.568 183.675 127.996 184.031C127.423 184.387 126.763 184.577 126.089 184.579H74.7057C74.0316 184.577 73.3714 184.387 72.7991 184.031C72.2267 183.675 71.7649 183.167 71.4652 182.563C71.1656 181.959 71.04 181.284 71.1026 180.612C71.1651 179.941 71.4134 179.301 71.8194 178.763C78.1524 170.324 81.5745 160.058 81.5714 149.507V132.802H119.223V149.507C119.22 160.058 122.643 170.324 128.975 178.763Z" fill="#DEA47A"/>
<path d="M121.978 165.6C120.142 160.434 119.21 154.99 119.223 149.507V132.802H81.5712V149.507C81.549 154.99 80.6028 160.431 78.7725 165.6H121.978Z" fill="#BF8256"/>
<path d="M162.605 135.688L145.768 115.659C145.295 115.092 144.993 114.402 144.898 113.67C144.802 112.937 144.917 112.193 145.229 111.523C145.541 110.854 146.037 110.287 146.659 109.889C147.281 109.491 148.003 109.278 148.742 109.275H151.322C152.591 109.269 153.831 108.894 154.889 108.194C155.948 107.494 156.779 106.5 157.281 105.334C157.782 104.168 157.932 102.882 157.713 101.632C157.493 100.382 156.914 99.2233 156.045 98.2982L138.553 79.5378C137.917 78.8736 137.491 78.0369 137.327 77.132C137.164 76.2271 137.271 75.2942 137.635 74.4498C137.999 73.6054 138.604 72.8869 139.373 72.384C140.143 71.8812 141.044 71.6163 141.964 71.6225C143.232 71.6264 144.473 71.2603 145.536 70.569C146.599 69.8778 147.437 68.8914 147.948 67.7309C148.458 66.5703 148.619 65.286 148.411 64.0353C148.202 62.7847 147.634 61.622 146.774 60.6898L107.416 17.9212C106.529 16.9719 105.455 16.215 104.263 15.6975C103.071 15.1801 101.785 14.9131 100.485 14.9131C99.1854 14.9131 97.8995 15.1801 96.7072 15.6975C95.5148 16.215 94.4415 16.9719 93.5538 17.9212L54.1962 60.6898C53.3393 61.6193 52.7712 62.7779 52.5612 64.0246C52.3513 65.2712 52.5085 66.552 53.0138 67.7108C53.519 68.8697 54.3505 69.8565 55.4068 70.5511C56.4631 71.2456 57.6987 71.6179 58.9628 71.6225C59.8774 71.6275 60.7708 71.8979 61.5346 72.4009C62.2984 72.9039 62.8997 73.6179 63.2656 74.4561C63.6314 75.2943 63.746 76.2206 63.5955 77.1227C63.445 78.0248 63.0358 78.8638 62.4176 79.5378L44.9253 98.2982C44.054 99.226 43.4735 100.389 43.2555 101.643C43.0375 102.896 43.1914 104.187 43.6984 105.354C44.2054 106.522 45.0431 107.515 46.1083 108.212C47.1734 108.908 48.4192 109.278 49.6919 109.275H52.2721C53.0106 109.278 53.7331 109.491 54.3551 109.889C54.9771 110.287 55.473 110.854 55.7848 111.523C56.0966 112.193 56.2115 112.937 56.1161 113.67C56.0206 114.402 55.7188 115.092 55.2457 115.659L38.1908 135.688C36.9604 137.097 36.1634 138.832 35.8956 140.683C35.6279 142.535 35.9008 144.424 36.6815 146.125C37.4623 147.825 38.7176 149.263 40.2965 150.266C41.8753 151.27 43.7105 151.796 45.5813 151.781H155.17C157.045 151.804 158.886 151.285 160.471 150.284C162.057 149.284 163.319 147.847 164.105 146.145C164.891 144.443 165.168 142.55 164.902 140.694C164.635 138.839 163.838 137.1 162.605 135.688Z" fill="#4B98E6"/>
<path d="M58.1314 71.5788L93.4658 33.2707C94.3535 32.3213 95.4268 31.5645 96.6192 31.047C97.8115 30.5296 99.0974 30.2625 100.397 30.2625C101.697 30.2625 102.983 30.5296 104.175 31.047C105.367 31.5645 106.441 32.3213 107.328 33.2707L142.663 71.5788C143.871 71.4673 145.024 71.0182 145.99 70.2828C146.955 69.5474 147.695 68.5553 148.123 67.4198C148.552 66.2843 148.653 65.0512 148.414 63.8611C148.175 62.6711 147.607 61.5722 146.773 60.6898L107.416 17.9212C106.528 16.9719 105.455 16.215 104.263 15.6975C103.07 15.1801 101.784 14.9131 100.485 14.9131C99.1848 14.9131 97.8989 15.1801 96.7066 15.6975C95.5143 16.215 94.441 16.9719 93.5533 17.9212L54.1957 60.6898C53.3672 61.5608 52.7976 62.6453 52.5507 63.8217C52.3039 64.9982 52.3896 66.2202 52.7982 67.3507C53.2069 68.4812 53.9222 69.4755 54.8642 70.2223C55.8062 70.9691 56.9375 71.4388 58.1314 71.5788Z" fill="#276288"/>
<path d="M77.6496 93C83.5313 93 88.2993 88.299 88.2993 82.5C88.2993 76.701 83.5313 72 77.6496 72C71.768 72 67 76.701 67 82.5C67 88.299 71.768 93 77.6496 93Z" fill="white"/>
<path d="M77.2282 88.118C80.436 88.118 83.0364 85.5558 83.0364 82.3952C83.0364 79.2346 80.436 76.6724 77.2282 76.6724C74.0204 76.6724 71.4199 79.2346 71.4199 82.3952C71.4199 85.5558 74.0204 88.118 77.2282 88.118Z" fill="black"/>
<path d="M124.65 93C130.531 93 135.299 88.299 135.299 82.5C135.299 76.701 130.531 72 124.65 72C118.768 72 114 76.701 114 82.5C114 88.299 118.768 93 124.65 93Z" fill="white"/>
<path d="M124.228 88.118C127.436 88.118 130.036 85.5558 130.036 82.3952C130.036 79.2346 127.436 76.6724 124.228 76.6724C121.02 76.6724 118.42 79.2346 118.42 82.3952C118.42 85.5558 121.02 88.118 124.228 88.118Z" fill="black"/>
<path d="M111.964 95.9247C111.603 100.953 105.182 108.343 100.071 107.988C94.9591 107.632 89.6564 99.4349 90.0175 94.3994C90.3785 89.3709 94.0175 85.5194 101.649 86.0487C109.281 86.578 112.333 90.8892 111.972 95.9247H111.964Z" fill="#F5DB74"/>
</svg>
