<svg width="200" height="200" viewBox="0 0 200 200" fill="none" xmlns="http://www.w3.org/2000/svg">
<mask id="path-1-outside-1_1347_8418" maskUnits="userSpaceOnUse" x="19.1045" y="20" width="163" height="161" fill="black">
<rect fill="white" x="19.1045" y="20" width="163" height="161"/>
<path d="M129.751 26C137.215 25.9974 141.794 27.0741 144.218 33.373H162.288C170.619 33.373 177.217 42.2241 174.785 54.1992C174.785 54.1992 167.982 93.4333 167.407 95.8535C165.933 102.102 158.902 108.35 150.746 108.35H125.273C121.012 114.4 116.492 119.527 112.104 123.057C113.006 135.387 116.422 144.247 119.589 150.004H129.75C134.09 150.004 137.568 153.737 137.568 158.335V162.5H140.685C143.846 162.5 145.899 165.062 145.899 168.228V169.269C145.899 172.434 146.587 174.996 140.685 174.996H60.501C55.1196 174.996 54.2617 172.434 54.2617 169.269V168.228C54.2617 165.062 57.3354 162.5 60.501 162.5H62.5908V158.335C62.5908 153.736 67.4397 150.004 71.7803 150.004H80.3818C83.6295 144.099 87.1366 134.929 87.9277 122.099C83.9036 118.627 79.7999 113.872 75.9102 108.35H50.4307C42.4458 108.349 34.9857 102.102 33.5986 95.6787C33.0737 93.2504 25.6133 54.1992 25.6133 54.1992C23.1853 42.2241 29.7797 33.373 38.1104 33.373H56.9297C58.9525 27.7178 62.3984 26.1162 67.2695 26.1162C72.9929 26.1162 92.3663 26.0039 100.593 26.0039L129.751 26ZM46.4404 45.8691C41.8379 45.8693 38.4559 48.9933 39.8428 56.9775C39.8428 56.9775 45.7446 83.5309 46.4404 87.5225C47.136 91.5131 50.173 95.8535 54.7715 95.8535H68.1914C60.3985 81.4965 54.7734 65.0396 54.7734 52.4375C54.7734 50.0465 54.828 47.8627 54.9297 45.8691H46.4404ZM146.268 45.8691C146.364 47.8569 146.412 50.0401 146.412 52.4375C146.412 65.0396 140.787 81.4965 132.993 95.8535H145.627C150.225 95.8534 153.267 91.513 153.958 87.5225C154.65 83.5309 160.556 56.9775 160.556 56.9775C161.938 48.9933 158.561 45.8694 153.958 45.8691H146.268Z"/>
</mask>
<path d="M129.751 26C137.215 25.9974 141.794 27.0741 144.218 33.373H162.288C170.619 33.373 177.217 42.2241 174.785 54.1992C174.785 54.1992 167.982 93.4333 167.407 95.8535C165.933 102.102 158.902 108.35 150.746 108.35H125.273C121.012 114.4 116.492 119.527 112.104 123.057C113.006 135.387 116.422 144.247 119.589 150.004H129.75C134.09 150.004 137.568 153.737 137.568 158.335V162.5H140.685C143.846 162.5 145.899 165.062 145.899 168.228V169.269C145.899 172.434 146.587 174.996 140.685 174.996H60.501C55.1196 174.996 54.2617 172.434 54.2617 169.269V168.228C54.2617 165.062 57.3354 162.5 60.501 162.5H62.5908V158.335C62.5908 153.736 67.4397 150.004 71.7803 150.004H80.3818C83.6295 144.099 87.1366 134.929 87.9277 122.099C83.9036 118.627 79.7999 113.872 75.9102 108.35H50.4307C42.4458 108.349 34.9857 102.102 33.5986 95.6787C33.0737 93.2504 25.6133 54.1992 25.6133 54.1992C23.1853 42.2241 29.7797 33.373 38.1104 33.373H56.9297C58.9525 27.7178 62.3984 26.1162 67.2695 26.1162C72.9929 26.1162 92.3663 26.0039 100.593 26.0039L129.751 26ZM46.4404 45.8691C41.8379 45.8693 38.4559 48.9933 39.8428 56.9775C39.8428 56.9775 45.7446 83.5309 46.4404 87.5225C47.136 91.5131 50.173 95.8535 54.7715 95.8535H68.1914C60.3985 81.4965 54.7734 65.0396 54.7734 52.4375C54.7734 50.0465 54.828 47.8627 54.9297 45.8691H46.4404ZM146.268 45.8691C146.364 47.8569 146.412 50.0401 146.412 52.4375C146.412 65.0396 140.787 81.4965 132.993 95.8535H145.627C150.225 95.8534 153.267 91.513 153.958 87.5225C154.65 83.5309 160.556 56.9775 160.556 56.9775C161.938 48.9933 158.561 45.8694 153.958 45.8691H146.268Z" fill="#276288"/>
<path d="M129.751 26L129.752 32L129.753 32L129.751 26ZM144.218 33.373L138.618 35.5275C139.509 37.8444 141.735 39.373 144.218 39.373V33.373ZM174.785 54.1992L168.905 53.0049C168.894 53.0612 168.883 53.1176 168.873 53.1742L174.785 54.1992ZM167.407 95.8535L161.57 94.4663L161.568 94.4756L167.407 95.8535ZM150.746 108.35V114.35H150.746L150.746 108.35ZM125.273 108.35V102.35C123.322 102.35 121.492 103.299 120.368 104.894L125.273 108.35ZM112.104 123.057L108.343 118.381C106.807 119.617 105.976 121.528 106.12 123.495L112.104 123.057ZM119.589 150.004L114.332 152.896C115.386 154.813 117.401 156.004 119.589 156.004V150.004ZM129.75 150.004L129.75 144.004H129.75V150.004ZM137.568 162.5H131.568C131.568 165.814 134.255 168.5 137.568 168.5V162.5ZM60.501 174.996L60.501 180.996H60.501V174.996ZM60.501 162.5V156.5H60.5009L60.501 162.5ZM62.5908 162.5V168.5C65.9045 168.5 68.5908 165.814 68.5908 162.5H62.5908ZM80.3818 150.004V156.004C82.57 156.004 84.5847 154.813 85.6392 152.895L80.3818 150.004ZM87.9277 122.099L93.9164 122.468C94.0317 120.597 93.2661 118.78 91.8468 117.555L87.9277 122.099ZM75.9102 108.35L80.8155 104.895C79.6916 103.299 77.8619 102.35 75.9102 102.35V108.35ZM50.4307 108.35L50.4305 114.35H50.4307V108.35ZM33.5986 95.6787L39.4634 94.4122L39.4632 94.411L33.5986 95.6787ZM25.6133 54.1992L31.5067 53.0733C31.5025 53.0512 31.4981 53.029 31.4936 53.0069L25.6133 54.1992ZM56.9297 33.373V39.373C59.4643 39.373 61.7255 37.7803 62.5792 35.3938L56.9297 33.373ZM67.2695 26.1162V32.1162V26.1162ZM100.593 26.0039V32.0039H100.594L100.593 26.0039ZM46.4404 45.8691V39.8691H46.4402L46.4404 45.8691ZM39.8428 56.9775L33.9313 58.0043C33.9473 58.0964 33.9654 58.1881 33.9857 58.2793L39.8428 56.9775ZM46.4404 87.5225L52.3513 86.4921L52.3513 86.492L46.4404 87.5225ZM54.7715 95.8535L54.7714 101.854H54.7715V95.8535ZM68.1914 95.8535V101.854C70.3068 101.854 72.2659 100.74 73.3477 98.9216C74.4294 97.1037 74.4738 94.8504 73.4647 92.9912L68.1914 95.8535ZM54.7734 52.4375L48.7734 52.4375V52.4375H54.7734ZM54.9297 45.8691L60.9219 46.1749C61.0057 44.5326 60.4118 42.928 59.2791 41.736C58.1464 40.544 56.574 39.8691 54.9297 39.8691V45.8691ZM146.268 45.8691V39.8691C144.626 39.8691 143.056 40.5419 141.923 41.7306C140.791 42.9193 140.195 44.5202 140.275 46.16L146.268 45.8691ZM146.412 52.4375H152.412V52.4375L146.412 52.4375ZM132.993 95.8535L127.72 92.9911C126.711 94.8503 126.755 97.1035 127.837 98.9215C128.919 100.74 130.878 101.854 132.993 101.854V95.8535ZM145.627 95.8535V101.854H145.627L145.627 95.8535ZM153.958 87.5225L148.046 86.4982L148.046 86.4982L153.958 87.5225ZM160.556 56.9775L166.413 58.2802C166.433 58.1877 166.452 58.0947 166.468 58.0013L160.556 56.9775ZM153.958 45.8691L153.958 39.8691H153.958V45.8691ZM129.751 26L129.753 32C133.402 31.9987 135.303 32.3031 136.441 32.808C137.151 33.1229 137.887 33.629 138.618 35.5275L144.218 33.373L149.818 31.2186C148.125 26.8182 145.359 23.6365 141.308 21.839C137.684 20.2314 133.564 19.9987 129.749 20L129.751 26ZM144.218 33.373V39.373H162.288V33.373V27.373H144.218V33.373ZM162.288 33.373V39.373C165.46 39.373 170.88 43.28 168.905 53.0049L174.785 54.1992L180.665 55.3935C183.554 41.1683 175.777 27.373 162.288 27.373V33.373ZM174.785 54.1992C168.873 53.1742 168.873 53.1743 168.873 53.1746C168.873 53.1749 168.873 53.1753 168.873 53.1759C168.873 53.1771 168.873 53.1789 168.872 53.1812C168.871 53.186 168.87 53.193 168.868 53.2024C168.865 53.2212 168.86 53.2493 168.854 53.2864C168.841 53.3606 168.822 53.4708 168.797 53.6146C168.747 53.9023 168.674 54.3247 168.58 54.8631C168.393 55.9401 168.125 57.4814 167.802 59.3386C167.156 63.0532 166.288 68.0305 165.402 73.0827C164.516 78.1363 163.613 83.2595 162.896 87.2678C162.538 89.2731 162.227 90.991 161.989 92.2785C161.87 92.9232 161.771 93.4498 161.694 93.8458C161.656 94.0441 161.625 94.2004 161.601 94.3173C161.574 94.4477 161.565 94.4849 161.57 94.4663L167.407 95.8535L173.245 97.2407C173.587 95.7995 175.481 85.0826 177.222 75.1549C178.109 70.0961 178.977 65.1136 179.624 61.3962C179.948 59.5373 180.216 57.9946 180.403 56.9164C180.497 56.3774 180.57 55.9544 180.62 55.6662C180.645 55.5221 180.664 55.4117 180.677 55.3373C180.684 55.3 180.689 55.2718 180.692 55.2529C180.694 55.2434 180.695 55.2363 180.696 55.2315C180.696 55.2291 180.696 55.2273 180.697 55.2261C180.697 55.2255 180.697 55.225 180.697 55.2247C180.697 55.2244 180.697 55.2243 174.785 54.1992ZM167.407 95.8535L161.568 94.4756C161.196 96.0492 159.966 98.0723 157.859 99.7391C155.801 101.368 153.285 102.35 150.746 102.35L150.746 108.35L150.746 114.35C156.363 114.35 161.441 112.207 165.305 109.15C169.121 106.131 172.144 101.906 173.247 97.2314L167.407 95.8535ZM150.746 108.35V102.35H125.273V108.35V114.35H150.746V108.35ZM125.273 108.35L120.368 104.894C116.301 110.668 112.15 115.32 108.343 118.381L112.104 123.057L115.864 127.732C120.834 123.735 125.722 118.131 130.179 111.805L125.273 108.35ZM112.104 123.057L106.12 123.495C107.089 136.746 110.779 146.438 114.332 152.896L119.589 150.004L124.846 147.112C122.065 142.056 118.922 134.028 118.088 122.619L112.104 123.057ZM119.589 150.004V156.004H129.75V150.004V144.004H119.589V150.004ZM129.75 150.004L129.75 156.004C130.411 156.004 131.568 156.673 131.568 158.335H137.568H143.568C143.568 150.8 137.769 144.004 129.75 144.004L129.75 150.004ZM137.568 158.335H131.568V162.5H137.568H143.568V158.335H137.568ZM137.568 162.5V168.5H140.685V162.5V156.5H137.568V162.5ZM140.685 162.5V168.5C140.651 168.5 140.522 168.49 140.35 168.412C140.181 168.335 140.051 168.229 139.966 168.132C139.802 167.945 139.899 167.919 139.899 168.228H145.899H151.899C151.899 162.514 147.876 156.5 140.685 156.5V162.5ZM145.899 168.228H139.899V169.269H145.899H151.899V168.228H145.899ZM145.899 169.269H139.899C139.899 169.742 139.913 170.232 139.919 170.541C139.926 170.9 139.926 171.106 139.92 171.256C139.914 171.402 139.905 171.375 139.932 171.248C139.961 171.11 140.039 170.811 140.24 170.444C140.451 170.056 140.744 169.694 141.097 169.402C141.436 169.12 141.729 168.987 141.866 168.935C141.992 168.887 141.986 168.908 141.774 168.937C141.564 168.967 141.215 168.996 140.685 168.996V174.996V180.996C143.986 180.996 148.496 180.362 150.771 176.195C151.716 174.465 151.869 172.744 151.91 171.742C151.941 170.97 151.899 169.511 151.899 169.269H145.899ZM140.685 174.996V168.996H60.501V174.996V180.996H140.685V174.996ZM60.501 174.996L60.501 168.996C60.0622 168.996 59.7454 168.97 59.5289 168.939C59.3129 168.908 59.2199 168.877 59.2176 168.876C59.2175 168.876 59.2414 168.884 59.284 168.905C59.3269 168.926 59.3865 168.958 59.4576 169.005C59.6067 169.103 59.7698 169.241 59.9211 169.417C60.0708 169.592 60.172 169.762 60.2357 169.896C60.2967 170.024 60.3149 170.102 60.3141 170.099C60.3128 170.093 60.2978 170.027 60.2844 169.879C60.2709 169.732 60.2617 169.534 60.2617 169.269H54.2617H48.2617C48.2617 171.113 48.4374 174.456 50.8056 177.222C53.3346 180.175 57.014 180.996 60.501 180.996L60.501 174.996ZM54.2617 169.269H60.2617V168.228H54.2617H48.2617V169.269H54.2617ZM54.2617 168.228H60.2617C60.2617 168.424 60.2112 168.573 60.1738 168.649C60.1415 168.714 60.1303 168.706 60.1835 168.658C60.2365 168.611 60.3125 168.563 60.3948 168.53C60.4757 168.498 60.5155 168.5 60.501 168.5L60.501 162.5L60.5009 156.5C54.6975 156.5 48.2617 161.111 48.2617 168.228H54.2617ZM60.501 162.5V168.5H62.5908V162.5V156.5H60.501V162.5ZM62.5908 162.5H68.5908V158.335H62.5908H56.5908V162.5H62.5908ZM62.5908 158.335H68.5908C68.5908 158.219 68.6706 157.681 69.4683 156.996C70.2824 156.296 71.2281 156.004 71.7803 156.004V150.004V144.004C67.9918 144.004 64.3428 145.578 61.6474 147.894C58.9354 150.225 56.5908 153.852 56.5908 158.335H62.5908ZM71.7803 150.004V156.004H80.3818V150.004V144.004H71.7803V150.004ZM80.3818 150.004L85.6392 152.895C89.2836 146.269 93.0669 136.243 93.9164 122.468L87.9277 122.099L81.9391 121.729C81.2062 133.615 77.9754 141.929 75.1245 147.112L80.3818 150.004ZM87.9277 122.099L91.8468 117.555C88.3051 114.5 84.5207 110.155 80.8155 104.895L75.9102 108.35L71.0048 111.805C75.079 117.589 79.5021 122.754 84.0086 126.642L87.9277 122.099ZM75.9102 108.35V102.35H50.4307V108.35V114.35H75.9102V108.35ZM50.4307 108.35L50.4308 102.35C47.9805 102.35 45.3855 101.37 43.2271 99.6889C41.0223 97.9718 39.7931 95.9388 39.4634 94.4122L33.5986 95.6787L27.7338 96.9452C28.7912 101.842 31.9856 106.144 35.8538 109.156C39.7685 112.205 44.8959 114.349 50.4305 114.35L50.4307 108.35ZM33.5986 95.6787L39.4632 94.411C39.2204 93.2877 37.2461 83.036 35.3017 72.8982C34.3366 67.8663 33.3878 62.91 32.6803 59.2116C32.3266 57.3624 32.0331 55.8277 31.8282 54.7554C31.7257 54.2193 31.6453 53.7987 31.5906 53.5122C31.5632 53.3689 31.5422 53.2592 31.5281 53.1853C31.521 53.1483 31.5157 53.1203 31.5121 53.1016C31.5103 53.0922 31.509 53.0851 31.5081 53.0804C31.5076 53.078 31.5073 53.0763 31.507 53.0751C31.5069 53.0745 31.5068 53.0741 31.5068 53.0738C31.5067 53.0735 31.5067 53.0733 25.6133 54.1992C19.7199 55.3251 19.7199 55.3253 19.72 55.3256C19.72 55.3259 19.7201 55.3263 19.7202 55.3269C19.7204 55.3281 19.7208 55.3299 19.7212 55.3323C19.7221 55.337 19.7235 55.3441 19.7253 55.3535C19.7289 55.3723 19.7342 55.4003 19.7413 55.4374C19.7555 55.5114 19.7764 55.6212 19.8038 55.7646C19.8586 56.0513 19.939 56.4721 20.0416 57.0085C20.2466 58.0813 20.5402 59.6165 20.894 61.4663C21.6018 65.1658 22.5509 70.1241 23.5165 75.1586C25.4335 85.1534 27.452 95.6414 27.7341 96.9464L33.5986 95.6787ZM25.6133 54.1992L31.4936 53.0069C29.521 43.2779 34.9399 39.373 38.1104 39.373V33.373V27.373C24.6194 27.373 16.8495 41.1703 19.7329 55.3915L25.6133 54.1992ZM38.1104 33.373V39.373H56.9297V33.373V27.373H38.1104V33.373ZM56.9297 33.373L62.5792 35.3938C63.2828 33.4266 63.9678 32.8691 64.2751 32.6716C64.6528 32.4289 65.4324 32.1162 67.2695 32.1162V26.1162V20.1162C64.2355 20.1162 60.8567 20.6043 57.788 22.5762C54.6488 24.5933 52.5994 27.6642 51.2802 31.3523L56.9297 33.373ZM67.2695 26.1162V32.1162C70.1479 32.1162 76.4414 32.088 83.0181 32.06C89.6103 32.0319 96.4953 32.0039 100.593 32.0039V26.0039V20.0039C96.4638 20.0039 89.5489 20.0321 82.9669 20.0601C76.3693 20.0882 70.1145 20.1162 67.2695 20.1162V26.1162ZM100.593 26.0039L100.594 32.0039L129.752 32L129.751 26L129.75 20L100.592 20.0039L100.593 26.0039ZM46.4404 45.8691L46.4402 39.8691C42.7807 39.8693 38.6577 41.17 35.9829 44.9846C33.4511 48.5953 33.1025 53.2327 33.9313 58.0043L39.8428 56.9775L45.7543 55.9507C45.1962 52.7381 45.8451 51.8214 45.8082 51.874C45.8029 51.8816 45.7813 51.9085 45.7454 51.9377C45.7108 51.9658 45.6907 51.9734 45.7034 51.9678C45.7363 51.9532 45.9534 51.8692 46.4407 51.8691L46.4404 45.8691ZM39.8428 56.9775C33.9857 58.2793 33.9857 58.2794 33.9858 58.2796C33.9858 58.2798 33.9859 58.2801 33.986 58.2805C33.9861 58.2813 33.9864 58.2824 33.9867 58.284C33.9874 58.2872 33.9885 58.292 33.9899 58.2983C33.9927 58.311 33.9969 58.3299 34.0025 58.355C34.0136 58.4051 34.0302 58.4797 34.0519 58.5772C34.0951 58.7722 34.1588 59.0589 34.24 59.4253C34.4025 60.1581 34.6355 61.2097 34.9173 62.4841C35.4809 65.0334 36.2394 68.473 37.0195 72.0363C38.6018 79.2646 40.2103 86.7212 40.5296 88.5529L46.4404 87.5225L52.3513 86.492C51.9748 84.3321 50.2844 76.5163 48.7419 69.4701C47.9595 65.8961 47.199 62.4478 46.6343 59.8936C46.3519 58.6163 46.1184 57.5623 45.9554 56.8273C45.8739 56.4599 45.8101 56.1722 45.7666 55.9762C45.7448 55.8783 45.7282 55.8033 45.7169 55.7527C45.7113 55.7274 45.7071 55.7082 45.7042 55.6953C45.7028 55.6889 45.7017 55.684 45.701 55.6807C45.7006 55.6791 45.7003 55.6779 45.7001 55.677C45.7 55.6766 45.7 55.6763 45.6999 55.6761C45.6999 55.6759 45.6998 55.6757 39.8428 56.9775ZM46.4404 87.5225L40.5296 88.5528C41.0514 91.5465 42.4333 94.691 44.6763 97.1912C46.9763 99.7549 50.4152 101.853 54.7714 101.854L54.7715 95.8535L54.7716 89.8535C54.5293 89.8535 54.1505 89.7819 53.6085 89.1777C53.0095 88.51 52.5251 87.4891 52.3513 86.4921L46.4404 87.5225ZM54.7715 95.8535V101.854H68.1914V95.8535V89.8535H54.7715V95.8535ZM68.1914 95.8535L73.4647 92.9912C65.8881 79.0327 60.7734 63.6079 60.7734 52.4375H54.7734H48.7734C48.7734 66.4713 54.9089 83.9602 62.9181 98.7158L68.1914 95.8535ZM54.7734 52.4375L60.7734 52.4375C60.7734 50.1368 60.8259 48.0556 60.9219 46.1749L54.9297 45.8691L48.9375 45.5634C48.83 47.6697 48.7734 49.9561 48.7734 52.4375L54.7734 52.4375ZM54.9297 45.8691V39.8691H46.4404V45.8691V51.8691H54.9297V45.8691ZM146.268 45.8691L140.275 46.16C140.366 48.0338 140.412 50.1183 140.412 52.4375L146.412 52.4375L152.412 52.4375C152.412 49.9619 152.363 47.6801 152.261 45.5782L146.268 45.8691ZM146.412 52.4375H140.412C140.412 63.6077 135.297 79.0326 127.72 92.9911L132.993 95.8535L138.266 98.716C146.276 83.9604 152.412 66.4714 152.412 52.4375H146.412ZM132.993 95.8535V101.854H145.627V95.8535V89.8535H132.993V95.8535ZM145.627 95.8535L145.627 101.854C149.983 101.853 153.422 99.7556 155.723 97.192C157.967 94.6916 159.35 91.5452 159.87 88.5467L153.958 87.5225L148.046 86.4982C147.874 87.4903 147.391 88.5093 146.792 89.1768C146.25 89.7811 145.87 89.8535 145.627 89.8535L145.627 95.8535ZM153.958 87.5225L159.87 88.5468C160.187 86.7194 161.794 79.2673 163.377 72.0367C164.158 68.4735 164.916 65.034 165.48 62.4849C165.762 61.2104 165.995 60.1589 166.158 59.4261C166.239 59.0597 166.303 58.773 166.346 58.5781C166.368 58.4806 166.385 58.406 166.396 58.3559C166.401 58.3308 166.406 58.3118 166.408 58.2992C166.41 58.2928 166.411 58.2881 166.411 58.2849C166.412 58.2833 166.412 58.2822 166.412 58.2814C166.412 58.281 166.412 58.2807 166.412 58.2805C166.413 58.2803 166.413 58.2802 160.556 56.9775C154.699 55.6748 154.699 55.675 154.699 55.6752C154.699 55.6754 154.699 55.6757 154.699 55.6761C154.698 55.677 154.698 55.6782 154.698 55.6798C154.697 55.6831 154.696 55.688 154.694 55.6944C154.692 55.7073 154.687 55.7265 154.682 55.7518C154.67 55.8024 154.654 55.8774 154.632 55.9754C154.588 56.1713 154.525 56.459 154.443 56.8265C154.28 57.5615 154.046 58.6156 153.764 59.8929C153.199 62.4472 152.438 65.8955 151.655 69.4697C150.113 76.5135 148.421 84.334 148.046 86.4982L153.958 87.5225ZM160.556 56.9775L166.468 58.0013C167.294 53.2312 166.945 48.5953 164.415 44.9856C161.741 41.1706 157.619 39.8693 153.958 39.8691L153.958 45.8691L153.958 51.8691C154.445 51.8692 154.661 51.9532 154.694 51.9675C154.706 51.9729 154.686 51.9651 154.651 51.9369C154.615 51.9076 154.593 51.8806 154.588 51.873C154.552 51.8214 155.2 52.7397 154.644 55.9538L160.556 56.9775ZM153.958 45.8691V39.8691H146.268V45.8691V51.8691H153.958V45.8691Z" fill="white" mask="url(#path-1-outside-1_1347_8418)"/>
<path d="M46.4407 45.869H71.433C76.0316 45.869 79.2512 45.436 79.2512 50.0346V41.7038C79.2512 37.1053 76.0316 33.373 71.433 33.373H38.1099C29.7792 33.373 23.1853 42.2245 25.6136 54.1998C25.6136 54.1998 33.0737 93.2504 33.5986 95.6786C34.9856 102.102 42.4458 108.35 50.4309 108.35H79.4138C84.0167 108.35 79.2512 100.452 79.2512 95.8536V87.5228C79.2512 92.1214 76.0316 95.8536 71.433 95.8536H54.7715C50.1729 95.8536 47.1363 91.5135 46.4407 87.5228C45.7451 83.5322 39.8426 56.978 39.8426 56.978C38.4556 48.9933 41.8379 45.869 46.4407 45.869ZM153.957 45.869H128.965C124.367 45.869 116.74 45.436 116.74 50.0346V41.7038C116.74 37.1053 124.367 33.373 128.965 33.373H162.288C170.619 33.373 177.217 42.2245 174.785 54.1998C174.785 54.1998 167.983 93.4334 167.407 95.8536C165.933 102.102 158.902 108.35 150.746 108.35H120.98C116.381 108.35 116.74 100.452 116.74 95.8536V87.5228C116.74 92.1214 124.367 95.8536 128.965 95.8536H145.627C150.225 95.8536 153.266 91.5135 153.957 87.5228C154.649 83.5322 160.556 56.978 160.556 56.978C161.938 48.9933 158.56 45.869 153.957 45.869ZM111.874 116.681C111.874 87.6978 100.59 116.681 100.59 116.681C100.59 116.681 88.0946 87.6978 88.0946 116.681C88.0946 145.664 74.3862 158.335 74.3862 158.335H125.587C125.583 158.335 111.874 145.663 111.874 116.681Z" fill="#3384D4"/>
<path d="M146.412 52.4376C146.412 80.6581 118.212 128.214 100.592 128.214C82.9688 128.214 54.7734 80.6581 54.7734 52.4376C54.7734 30.7986 58.9386 26.1167 67.2694 26.1167C72.9927 26.1167 92.366 26.0043 100.592 26.0043L129.75 26C141.901 25.9957 146.412 28.8493 146.412 52.4376Z" fill="#4B9AE8"/>
<path d="M107.999 59.3719C107.923 62.8154 103.541 68.0669 99.8116 67.9994C96.0819 67.9318 91.9257 62.5303 92.001 59.0943C92.0763 55.6508 94.5683 52.905 100.129 53.0025C105.757 53.1 108.065 55.9284 107.999 59.3719Z" fill="#EAC00F"/>
<path d="M74.8283 60.6566C79.704 60.6566 83.6566 56.704 83.6566 51.8283C83.6566 46.9526 79.704 43 74.8283 43C69.9526 43 66 46.9526 66 51.8283C66 56.704 69.9526 60.6566 74.8283 60.6566Z" fill="white"/>
<path d="M74.6912 57.1851C77.6143 57.1851 79.9839 54.8154 79.9839 51.8923C79.9839 48.9692 77.6143 46.5996 74.6912 46.5996C71.7681 46.5996 69.3984 48.9692 69.3984 51.8923C69.3984 54.8154 71.7681 57.1851 74.6912 57.1851Z" fill="black"/>
<path d="M125.828 60.6566C130.704 60.6566 134.657 56.704 134.657 51.8283C134.657 46.9526 130.704 43 125.828 43C120.953 43 117 46.9526 117 51.8283C117 56.704 120.953 60.6566 125.828 60.6566Z" fill="white"/>
<path d="M125.691 57.1851C128.614 57.1851 130.984 54.8154 130.984 51.8923C130.984 48.9692 128.614 46.5996 125.691 46.5996C122.768 46.5996 120.398 48.9692 120.398 51.8923C120.398 54.8154 122.768 57.1851 125.691 57.1851Z" fill="black"/>
<path d="M137.568 162.5C137.568 167.098 138.513 170.831 133.915 170.831H67.2686C62.6657 170.831 62.5908 167.098 62.5908 162.5V158.335C62.5908 153.736 67.4393 150.004 71.7798 150.004H129.75C134.09 150.004 137.568 153.736 137.568 158.335V162.5Z" fill="#276288"/>
<path d="M145.9 169.269C145.9 172.434 146.587 174.996 140.685 174.996H60.5009C55.1195 174.996 54.2612 172.434 54.2612 169.269V168.228C54.2612 165.062 57.3353 162.5 60.5009 162.5H140.685C143.846 162.5 145.9 165.062 145.9 168.228V169.269Z" fill="#276288"/>
</svg>
