<svg width="200" height="200" viewBox="0 0 200 200" fill="none" xmlns="http://www.w3.org/2000/svg">
<mask id="path-1-outside-1_1347_4135" maskUnits="userSpaceOnUse" x="28.1794" y="22.2891" width="142" height="161" fill="black">
<rect fill="white" x="28.1794" y="22.2891" width="142" height="161"/>
<path d="M124.482 29.3047C127.707 29.2084 130.938 29.547 134.085 30.3174C134.371 30.3874 134.656 30.4611 134.94 30.5381C139.199 31.6925 143.212 33.6235 146.774 36.2363C148.665 37.6268 150.413 39.1956 151.996 40.9189C152.312 41.2635 152.622 41.614 152.926 41.9707C153.532 42.6844 154.111 43.4224 154.662 44.1826L154.66 44.1816L154.661 44.1826C154.631 44.1729 154.602 44.163 154.572 44.1533C157.901 48.7441 160.129 54.1006 160.999 59.8105C161.811 65.1398 161.403 70.5278 159.874 75.5918C160.147 75.7716 160.413 75.9714 160.671 76.1904C163.531 78.619 165.135 85.7205 162.674 88.6328C160.652 91.0248 155.399 91.1633 152.003 89.79L126.733 124.252L126.732 124.251L99.0964 161.94C96.3191 165.764 92.8138 169.001 88.782 171.466C84.75 173.931 80.2704 175.575 75.6013 176.304C70.9321 177.033 66.1644 176.833 61.573 175.714C56.9817 174.595 52.657 172.58 48.8464 169.785C45.0458 166.999 41.8304 163.492 39.3855 159.463C36.9406 155.434 35.3142 150.962 34.5974 146.305C33.8807 141.647 34.0883 136.894 35.2087 132.316C36.3292 127.739 38.3407 123.427 41.1277 119.627L65.4958 86.3945L96.615 43.9551C96.9076 43.5559 97.211 43.1653 97.5193 42.7793C98.0295 42.1405 98.5606 41.5202 99.1121 40.9189C100.22 39.7113 101.406 38.5797 102.668 37.5352C103.011 37.2511 103.36 36.9744 103.714 36.7031C104.746 35.9112 105.822 35.1727 106.938 34.4951C109.204 33.1199 111.611 32.0034 114.111 31.1621C115.071 30.8391 116.046 30.5593 117.031 30.3184C118.042 30.0712 119.065 29.8648 120.096 29.7061C121.11 29.55 122.129 29.4406 123.149 29.3721C123.593 29.3422 124.038 29.318 124.482 29.3047Z"/>
</mask>
<path d="M124.482 29.3047C127.707 29.2084 130.938 29.547 134.085 30.3174C134.371 30.3874 134.656 30.4611 134.94 30.5381C139.199 31.6925 143.212 33.6235 146.774 36.2363C148.665 37.6268 150.413 39.1956 151.996 40.9189C152.312 41.2635 152.622 41.614 152.926 41.9707C153.532 42.6844 154.111 43.4224 154.662 44.1826L154.66 44.1816L154.661 44.1826C154.631 44.1729 154.602 44.163 154.572 44.1533C157.901 48.7441 160.129 54.1006 160.999 59.8105C161.811 65.1398 161.403 70.5278 159.874 75.5918C160.147 75.7716 160.413 75.9714 160.671 76.1904C163.531 78.619 165.135 85.7205 162.674 88.6328C160.652 91.0248 155.399 91.1633 152.003 89.79L126.733 124.252L126.732 124.251L99.0964 161.94C96.3191 165.764 92.8138 169.001 88.782 171.466C84.75 173.931 80.2704 175.575 75.6013 176.304C70.9321 177.033 66.1644 176.833 61.573 175.714C56.9817 174.595 52.657 172.58 48.8464 169.785C45.0458 166.999 41.8304 163.492 39.3855 159.463C36.9406 155.434 35.3142 150.962 34.5974 146.305C33.8807 141.647 34.0883 136.894 35.2087 132.316C36.3292 127.739 38.3407 123.427 41.1277 119.627L65.4958 86.3945L96.615 43.9551C96.9076 43.5559 97.211 43.1653 97.5193 42.7793C98.0295 42.1405 98.5606 41.5202 99.1121 40.9189C100.22 39.7113 101.406 38.5797 102.668 37.5352C103.011 37.2511 103.36 36.9744 103.714 36.7031C104.746 35.9112 105.822 35.1727 106.938 34.4951C109.204 33.1199 111.611 32.0034 114.111 31.1621C115.071 30.8391 116.046 30.5593 117.031 30.3184C118.042 30.0712 119.065 29.8648 120.096 29.7061C121.11 29.55 122.129 29.4406 123.149 29.3721C123.593 29.3422 124.038 29.318 124.482 29.3047Z" fill="black"/>
<path d="M124.482 29.3047L124.661 35.302L124.661 35.302L124.482 29.3047ZM134.085 30.3174L135.511 24.4895L135.511 24.4894L134.085 30.3174ZM134.94 30.5381L133.371 36.3291L133.371 36.3291L134.94 30.5381ZM146.774 36.2363L150.329 31.403L150.323 31.3981L146.774 36.2363ZM151.996 40.9189L156.414 36.8598L156.414 36.8598L151.996 40.9189ZM152.926 41.9707L148.353 45.8559L148.353 45.8559L152.926 41.9707ZM154.662 44.1826L151.979 49.5492C154.451 50.7853 157.448 50.1726 159.236 48.0654C161.025 45.9581 161.143 42.9016 159.521 40.6631L154.662 44.1826ZM154.66 44.1816L157.343 38.8151C154.711 37.499 151.513 38.2861 149.792 40.6734C148.072 43.0606 148.336 46.3435 150.417 48.4243L154.66 44.1816ZM154.661 44.1826L152.785 49.8818C155.424 50.7505 158.314 49.6937 159.771 47.3275C161.227 44.9612 160.868 41.9047 158.904 39.94L154.661 44.1826ZM154.572 44.1533L156.433 38.4493C153.962 37.6429 151.252 38.5197 149.722 40.6213C148.191 42.7228 148.189 45.5708 149.715 47.6754L154.572 44.1533ZM160.999 59.8105L166.93 58.9066V58.9065L160.999 59.8105ZM159.874 75.5918L154.13 73.8572C153.362 76.3995 154.357 79.1442 156.576 80.604L159.874 75.5918ZM160.671 76.1904L156.783 80.7607L156.787 80.7643L160.671 76.1904ZM162.674 88.6328L167.256 92.5057L167.256 92.5057L162.674 88.6328ZM152.003 89.79L154.252 84.2275C151.706 83.1984 148.787 84.0281 147.164 86.2421L152.003 89.79ZM126.733 124.252L122.491 128.495C123.728 129.732 125.445 130.368 127.191 130.234C128.936 130.101 130.537 129.212 131.572 127.8L126.733 124.252ZM126.732 124.251L130.975 120.008C129.737 118.77 128.02 118.135 126.275 118.268C124.529 118.402 122.929 119.291 121.894 120.703L126.732 124.251ZM99.0964 161.94L94.2578 158.393C94.2526 158.4 94.2473 158.407 94.2421 158.414L99.0964 161.94ZM88.782 171.466L91.9115 176.585L91.9115 176.585L88.782 171.466ZM75.6013 176.304L76.5268 182.232H76.5268L75.6013 176.304ZM61.573 175.714L60.1527 181.543L60.1527 181.543L61.573 175.714ZM48.8464 169.785L52.3949 164.947L52.3939 164.946L48.8464 169.785ZM39.3855 159.463L34.2561 162.576L34.2561 162.576L39.3855 159.463ZM34.5974 146.305L28.6672 147.217L28.6672 147.217L34.5974 146.305ZM35.2087 132.316L29.3808 130.89L29.3808 130.89L35.2087 132.316ZM41.1277 119.627L45.9659 123.175L45.9663 123.175L41.1277 119.627ZM65.4958 86.3945L70.3344 89.9425L70.3344 89.9425L65.4958 86.3945ZM96.615 43.9551L101.454 47.503L101.454 47.5026L96.615 43.9551ZM97.5193 42.7793L102.207 46.5238L102.208 46.5237L97.5193 42.7793ZM99.1121 40.9189L94.6903 36.8634L94.6902 36.8634L99.1121 40.9189ZM102.668 37.5352L106.495 42.1563L106.495 42.1562L102.668 37.5352ZM103.714 36.7031L100.061 31.9427L100.061 31.9427L103.714 36.7031ZM106.938 34.4951L103.826 29.3657L103.825 29.3657L106.938 34.4951ZM114.111 31.1621L116.024 36.8489L116.024 36.8488L114.111 31.1621ZM117.031 30.3184L115.606 24.4901L115.606 24.4901L117.031 30.3184ZM120.096 29.7061L119.184 23.7759L119.184 23.7759L120.096 29.7061ZM123.149 29.3721L122.747 23.3856L122.747 23.3856L123.149 29.3721ZM124.482 29.3047L124.661 35.302C127.347 35.2218 130.038 35.5039 132.658 36.1453L134.085 30.3174L135.511 24.4894C131.838 23.5902 128.067 23.1949 124.303 23.3074L124.482 29.3047ZM134.085 30.3174L132.658 36.1453C132.895 36.2034 133.133 36.2647 133.371 36.3291L134.94 30.5381L136.51 24.747C136.179 24.6575 135.847 24.5715 135.511 24.4895L134.085 30.3174ZM134.94 30.5381L133.371 36.3291C136.917 37.2905 140.259 38.8986 143.226 41.0745L146.774 36.2363L150.323 31.3981C146.165 28.3484 141.481 26.0945 136.51 24.747L134.94 30.5381ZM146.774 36.2363L143.219 41.0697C144.796 42.2298 146.256 43.5392 147.577 44.9781L151.996 40.9189L156.414 36.8598C154.57 34.852 152.533 33.0237 150.329 31.403L146.774 36.2363ZM151.996 40.9189L147.577 44.9781C147.843 45.2673 148.102 45.5599 148.353 45.8559L152.926 41.9707L157.498 38.0855C157.143 37.6681 156.782 37.2596 156.414 36.8598L151.996 40.9189ZM152.926 41.9707L148.353 45.8559C148.859 46.451 149.343 47.067 149.803 47.7021L154.662 44.1826L159.521 40.6631C158.88 39.7779 158.205 38.9178 157.498 38.0855L152.926 41.9707ZM154.662 44.1826L157.345 38.8161L157.343 38.8151L154.66 44.1816L151.977 49.5482L151.979 49.5492L154.662 44.1826ZM154.66 44.1816L150.417 48.4243L150.418 48.4253L154.661 44.1826L158.904 39.94L158.903 39.939L154.66 44.1816ZM154.661 44.1826L156.537 38.4835C156.527 38.4802 156.52 38.4778 156.5 38.4712C156.484 38.4658 156.46 38.4579 156.433 38.4493L154.572 44.1533L152.711 49.8573C152.736 49.8654 152.72 49.8606 152.785 49.8818L154.661 44.1826ZM154.572 44.1533L149.715 47.6754C152.488 51.5008 154.343 55.9616 155.067 60.7146L160.999 59.8105L166.93 58.9065C165.914 52.2396 163.313 45.9874 159.429 40.6312L154.572 44.1533ZM160.999 59.8105L155.067 60.7145C155.743 65.1511 155.404 69.6379 154.13 73.8572L159.874 75.5918L165.618 77.3264C167.402 71.4177 167.879 65.1285 166.93 58.9066L160.999 59.8105ZM159.874 75.5918L156.576 80.604C156.638 80.6452 156.708 80.6967 156.783 80.7607L160.671 76.1904L164.558 71.6202C164.118 71.2461 163.656 70.898 163.172 70.5795L159.874 75.5918ZM160.671 76.1904L156.787 80.7643C156.676 80.6694 156.862 80.8022 157.145 81.3826C157.406 81.916 157.635 82.599 157.767 83.3191C157.902 84.0509 157.905 84.6354 157.856 84.9947C157.802 85.3937 157.739 85.1768 158.091 84.7599L162.674 88.6328L167.256 92.5057C170.264 88.9467 170.119 84.1268 169.568 81.1414C168.986 77.9844 167.448 74.0738 164.554 71.6166L160.671 76.1904ZM162.674 88.6328L158.091 84.7599C158.389 84.4072 158.604 84.3654 158.426 84.4358C158.259 84.5017 157.908 84.5992 157.367 84.6432C156.225 84.7361 155.009 84.5336 154.252 84.2275L152.003 89.79L149.754 95.3526C152.393 96.4197 155.501 96.8347 158.34 96.6036C160.969 96.3898 164.729 95.4964 167.256 92.5057L162.674 88.6328ZM152.003 89.79L147.164 86.2421L121.895 120.704L126.733 124.252L131.572 127.8L156.841 93.338L152.003 89.79ZM126.733 124.252L130.976 120.009L130.975 120.008L126.732 124.251L122.49 128.494L122.491 128.495L126.733 124.252ZM126.732 124.251L121.894 120.703L94.2578 158.393L99.0964 161.94L103.935 165.488L131.571 127.799L126.732 124.251ZM99.0964 161.94L94.2421 158.414C91.929 161.598 89.0099 164.294 85.6524 166.347L88.782 171.466L91.9115 176.585C96.6178 173.708 100.709 169.929 103.951 165.467L99.0964 161.94ZM88.782 171.466L85.6525 166.347C82.2948 168.399 78.5642 169.768 74.6758 170.376L75.6013 176.304L76.5268 182.232C81.9766 181.381 87.2052 179.462 91.9115 176.585L88.782 171.466ZM75.6013 176.304L74.6759 170.376C70.787 170.983 66.8165 170.816 62.9933 169.884L61.573 175.714L60.1527 181.543C65.5124 182.849 71.0773 183.083 76.5268 182.232L75.6013 176.304ZM61.573 175.714L62.9933 169.884C59.1705 168.953 55.5689 167.275 52.3949 164.947L48.8464 169.785L45.2979 174.623C49.7451 177.885 54.793 180.237 60.1527 181.543L61.573 175.714ZM48.8464 169.785L52.3939 164.946C49.2281 162.625 46.5505 159.704 44.5149 156.35L39.3855 159.463L34.2561 162.576C37.1102 167.279 40.8635 171.372 45.2989 174.624L48.8464 169.785ZM39.3855 159.463L44.5149 156.35C42.4793 152.996 41.1247 149.272 40.5276 145.392L34.5974 146.305L28.6672 147.217C29.5037 152.653 31.402 157.872 34.2561 162.576L39.3855 159.463ZM34.5974 146.305L40.5276 145.392C39.9307 141.513 40.1036 137.555 41.0367 133.743L35.2087 132.316L29.3808 130.89C28.073 136.233 27.8307 141.781 28.6672 147.217L34.5974 146.305ZM35.2087 132.316L41.0367 133.743C41.9698 129.931 43.6449 126.34 45.9659 123.175L41.1277 119.627L36.2895 116.078C33.0365 120.514 30.6887 125.547 29.3808 130.89L35.2087 132.316ZM41.1277 119.627L45.9663 123.175L70.3344 89.9425L65.4958 86.3945L60.6573 82.8466L36.2891 116.079L41.1277 119.627ZM65.4958 86.3945L70.3344 89.9425L101.454 47.503L96.615 43.9551L91.7764 40.4071L60.6572 82.8466L65.4958 86.3945ZM96.615 43.9551L101.454 47.5026C101.682 47.1908 101.932 46.869 102.207 46.5238L97.5193 42.7793L92.8311 39.0348C92.4902 39.4616 92.1328 39.921 91.7761 40.4076L96.615 43.9551ZM97.5193 42.7793L102.208 46.5237C102.632 45.9917 103.075 45.4751 103.534 44.9745L99.1121 40.9189L94.6902 36.8634C94.0465 37.5653 93.4265 38.2894 92.8311 39.0349L97.5193 42.7793ZM99.1121 40.9189L103.534 44.9745C104.46 43.9642 105.449 43.0222 106.495 42.1563L102.668 37.5352L98.8408 32.914C97.3638 34.1372 95.9788 35.4584 94.6903 36.8634L99.1121 40.9189ZM102.668 37.5352L106.495 42.1562C106.771 41.9273 107.061 41.6974 107.366 41.4635L103.714 36.7031L100.061 31.9427C99.6591 32.2514 99.2504 32.5748 98.8408 32.9141L102.668 37.5352ZM103.714 36.7031L107.366 41.4636C108.23 40.8005 109.126 40.1858 110.051 39.6245L106.938 34.4951L103.825 29.3657C102.517 30.1597 101.262 31.0218 100.061 31.9427L103.714 36.7031ZM106.938 34.4951L110.051 39.6245C111.938 38.4793 113.942 37.5495 116.024 36.8489L114.111 31.1621L112.198 25.4753C109.279 26.4573 106.471 27.7605 103.826 29.3657L106.938 34.4951ZM114.111 31.1621L116.024 36.8488C116.814 36.5832 117.625 36.3499 118.456 36.1466L117.031 30.3184L115.606 24.4901C114.466 24.7687 113.328 25.095 112.198 25.4754L114.111 31.1621ZM117.031 30.3184L118.456 36.1466C119.309 35.9382 120.16 35.7669 121.009 35.6362L120.096 29.7061L119.184 23.7759C117.969 23.9628 116.775 24.2042 115.606 24.4901L117.031 30.3184ZM120.096 29.7061L121.009 35.6363C121.843 35.5079 122.691 35.4164 123.551 35.3586L123.149 29.3721L122.747 23.3856C121.567 23.4648 120.378 23.5921 119.184 23.7759L120.096 29.7061ZM123.149 29.3721L123.551 35.3586C123.948 35.332 124.314 35.3124 124.661 35.302L124.482 29.3047L124.303 23.3074C123.762 23.3235 123.239 23.3525 122.747 23.3856L123.149 29.3721Z" fill="white" mask="url(#path-1-outside-1_1347_4135)"/>
<path d="M48.846 169.785C45.0454 166.999 41.8309 163.491 39.386 159.462C36.9411 155.433 35.3139 150.962 34.5971 146.305C33.8803 141.647 34.0881 136.894 35.2086 132.316C36.329 127.739 38.3403 123.427 41.1273 119.627L96.5232 44.0806C102.134 36.3934 110.569 31.2501 119.973 29.7821C124.629 29.0552 129.382 29.2525 133.962 30.3627C138.542 31.473 142.858 33.4744 146.665 36.2528C150.471 39.0311 153.693 42.5319 156.146 46.5554C158.599 50.5789 160.236 55.0462 160.963 59.7022C161.69 64.3583 161.493 69.1119 160.382 73.6917C159.272 78.2715 157.271 82.5878 154.492 86.3941L99.0965 161.94C96.319 165.764 92.8136 169.001 88.7816 171.466C84.7496 173.93 80.2704 175.575 75.6012 176.303C70.932 177.032 66.1648 176.832 61.5734 175.713C56.9819 174.594 52.6567 172.58 48.846 169.785Z" fill="#8BBBF1"/>
<path d="M58.9282 132.712L114.324 57.1661C118.81 51.0133 125.131 46.4415 132.379 44.1085C139.627 41.7754 147.429 41.8012 154.661 44.1821C152.459 41.1414 149.798 38.4609 146.774 36.2363C142.974 33.4492 138.662 31.438 134.084 30.3175C129.507 29.1971 124.753 28.9893 120.096 29.7061C115.438 30.4228 110.967 32.0501 106.938 34.495C102.91 36.9398 99.4018 40.1544 96.6155 43.955L41.2196 119.501C38.4325 123.301 36.4213 127.613 35.3008 132.191C34.1804 136.768 33.9726 141.521 34.6894 146.179C35.4061 150.837 37.0334 155.308 39.4783 159.337C41.9231 163.365 45.1377 166.873 48.9383 169.659C51.9693 171.875 55.3258 173.607 58.8879 174.793C54.4628 168.668 52.0844 161.302 52.0916 153.746C52.0988 146.19 54.4914 138.829 58.9282 132.712Z" fill="#CAE3FF"/>
<path d="M96.616 43.9551L68.918 81.7282L126.733 124.252L154.431 86.4784C160.07 78.8116 162.433 69.2188 160.999 59.8102C159.565 50.4017 154.452 41.948 146.785 36.3091C139.119 30.6702 129.526 28.3078 120.117 29.7417C110.709 31.1756 102.255 36.2883 96.616 43.9551Z" fill="#276288"/>
<path d="M160.671 76.1901C163.531 78.6187 165.135 85.7205 162.674 88.6328C160.213 91.5451 152.96 91.12 150.101 88.6886C147.241 86.26 146.534 82.3832 150.207 78.0375C153.924 73.6427 157.812 73.7587 160.671 76.1901Z" fill="#EAC00F"/>
<path d="M154.662 44.1821C152.459 41.1414 149.799 38.4609 146.774 36.2363C142.974 33.4492 138.662 31.438 134.085 30.3175C129.507 29.1971 124.754 28.9893 120.096 29.7061C115.438 30.4228 110.968 32.0501 106.939 34.495C102.91 36.9398 99.4023 40.1544 96.616 43.955L68.918 81.7281L86.7134 94.7769L114.411 57.0038C118.913 50.8973 125.229 46.3693 132.458 44.0667C139.686 41.764 147.458 41.8044 154.662 44.1821Z" fill="#4B98E6"/>
<path d="M142.719 75.4982C147.936 76.0697 152.628 72.3041 153.199 67.0875C153.771 61.871 150.005 57.1789 144.789 56.6074C139.572 56.036 134.88 59.8016 134.309 65.0182C133.737 70.2347 137.503 74.9268 142.719 75.4982Z" fill="white"/>
<path d="M142.98 71.7675C146.107 72.1101 148.92 69.8525 149.263 66.7251C149.605 63.5977 147.348 60.7847 144.22 60.4421C141.093 60.0995 138.28 62.3571 137.937 65.4845C137.595 68.6119 139.852 71.4249 142.98 71.7675Z" fill="black"/>
</svg>
