<svg width="200" height="200" viewBox="0 0 200 200" fill="none" xmlns="http://www.w3.org/2000/svg">
<mask id="path-1-outside-1_922_10054" maskUnits="userSpaceOnUse" x="23" y="24.0006" width="154" height="155" fill="black">
<rect fill="white" x="23" y="24.0006" width="154" height="155"/>
<path d="M132.523 30.1029C145.347 29.1372 157.726 35.0628 165.013 45.6742C168.526 51.0398 170.278 57.4929 170.274 64.2699C170.34 74.0822 166.711 84.5976 159.389 93.4886C156.703 96.6461 155.128 100.599 154.909 104.739C154.172 123.733 151.973 168.459 134.639 172.077C121.268 174.867 126.923 141.75 100.139 142.577C73.3534 141.751 79.5098 174.868 66.1387 172.077C48.8047 168.459 46.1042 123.733 45.3662 104.739C45.1473 100.599 43.5737 96.6461 40.8877 93.4886C28.5842 78.5502 26.7064 59.0263 35.2637 45.9554C42.5975 35.2759 55.0885 29.341 68 30.4017C82.9188 32.0951 86.8076 38.9815 100.139 40.2953C113.47 38.9809 117.358 32.0951 132.276 30.4017C132.39 30.3924 132.503 30.3845 132.616 30.3763C132.585 30.2849 132.555 30.1935 132.523 30.1029Z"/>
</mask>
<path d="M132.523 30.1029C145.347 29.1372 157.726 35.0628 165.013 45.6742C168.526 51.0398 170.278 57.4929 170.274 64.2699C170.34 74.0822 166.711 84.5976 159.389 93.4886C156.703 96.6461 155.128 100.599 154.909 104.739C154.172 123.733 151.973 168.459 134.639 172.077C121.268 174.867 126.923 141.75 100.139 142.577C73.3534 141.751 79.5098 174.868 66.1387 172.077C48.8047 168.459 46.1042 123.733 45.3662 104.739C45.1473 100.599 43.5737 96.6461 40.8877 93.4886C28.5842 78.5502 26.7064 59.0263 35.2637 45.9554C42.5975 35.2759 55.0885 29.341 68 30.4017C82.9188 32.0951 86.8076 38.9815 100.139 40.2953C113.47 38.9809 117.358 32.0951 132.276 30.4017C132.39 30.3924 132.503 30.3845 132.616 30.3763C132.585 30.2849 132.555 30.1935 132.523 30.1029Z" fill="#040000"/>
<path d="M132.523 30.1029L132.073 24.1198C130.217 24.2596 128.531 25.2525 127.509 26.8077C126.487 28.363 126.245 30.3044 126.853 32.0633L132.523 30.1029ZM165.013 45.6742L170.033 42.3876C170.008 42.3507 169.984 42.314 169.959 42.2776L165.013 45.6742ZM170.274 64.2699L164.274 64.2668C164.274 64.2811 164.274 64.2955 164.275 64.3098L170.274 64.2699ZM159.389 93.4886L163.959 97.3764C163.979 97.3522 164 97.3277 164.02 97.3031L159.389 93.4886ZM154.909 104.739L148.918 104.422C148.916 104.45 148.915 104.478 148.914 104.506L154.909 104.739ZM134.639 172.077L135.864 177.951L135.865 177.951L134.639 172.077ZM100.139 142.577L99.9536 148.575C100.077 148.578 100.2 148.578 100.324 148.575L100.139 142.577ZM66.1387 172.077L64.9126 177.951L64.9128 177.951L66.1387 172.077ZM45.3662 104.739L51.3617 104.506C51.3606 104.478 51.3594 104.45 51.3579 104.422L45.3662 104.739ZM40.8877 93.4886L36.2563 97.3031C36.2766 97.3276 36.297 97.352 36.3176 97.3762L40.8877 93.4886ZM35.2637 45.9554L30.3176 42.5589C30.2926 42.5953 30.268 42.632 30.2438 42.669L35.2637 45.9554ZM68 30.4017L68.6767 24.44C68.615 24.433 68.5532 24.4269 68.4913 24.4218L68 30.4017ZM100.139 40.2953L99.5503 46.2663C99.9417 46.3049 100.336 46.3049 100.727 46.2663L100.139 40.2953ZM132.276 30.4017L131.785 24.4218C131.723 24.4269 131.661 24.433 131.6 24.44L132.276 30.4017ZM132.616 30.3763L133.051 36.3605C134.907 36.2255 136.596 35.2371 137.622 33.6848C138.648 32.1324 138.895 30.1919 138.292 28.4315L132.616 30.3763ZM132.523 30.1029L132.974 36.0859C143.668 35.2807 153.99 40.2222 160.067 49.0707L165.013 45.6742L169.959 42.2776C161.461 29.9035 147.026 22.9938 132.073 24.1198L132.523 30.1029ZM165.013 45.6742L159.993 48.9607C162.792 53.2362 164.277 58.5164 164.274 64.2668L170.274 64.2699L176.274 64.273C176.278 56.4695 174.259 48.8434 170.033 42.3876L165.013 45.6742ZM170.274 64.2699L164.275 64.3098C164.33 72.6406 161.236 81.8077 154.757 89.6741L159.389 93.4886L164.02 97.3031C172.187 87.3875 176.35 75.5238 176.274 64.2299L170.274 64.2699ZM159.389 93.4886L154.819 89.6008C151.28 93.76 149.206 98.9673 148.918 104.422L154.909 104.739L160.901 105.055C161.05 102.231 162.125 99.5322 163.959 97.3764L159.389 93.4886ZM154.909 104.739L148.914 104.506C148.544 114.023 147.818 129.512 145.115 142.995C143.758 149.762 141.975 155.634 139.717 159.886C137.404 164.239 135.184 165.834 133.413 166.204L134.639 172.077L135.865 177.951C142.761 176.512 147.316 171.16 150.314 165.515C153.366 159.77 155.429 152.594 156.881 145.354C159.795 130.82 160.537 114.449 160.905 104.971L154.909 104.739ZM134.639 172.077L133.413 166.204C132.973 166.296 133.067 166.189 133.271 166.3C133.312 166.322 132.995 166.16 132.393 165.24C131.793 164.325 131.167 163.065 130.396 161.322C129.714 159.782 128.773 157.515 127.869 155.553C125.972 151.436 123.309 146.483 118.847 142.669C114.183 138.683 108.029 136.331 99.9535 136.58L100.139 142.577L100.324 148.575C105.641 148.41 108.823 149.888 111.05 151.791C113.479 153.867 115.26 156.863 116.969 160.574C117.868 162.525 118.52 164.141 119.423 166.18C120.236 168.017 121.187 170.033 122.355 171.817C123.521 173.597 125.166 175.558 127.561 176.854C130.12 178.238 132.962 178.556 135.864 177.951L134.639 172.077ZM100.139 142.577L100.324 136.58C92.2493 136.331 86.1081 138.683 81.4772 142.696C77.0516 146.531 74.4576 151.507 72.6259 155.626C71.7515 157.593 70.8473 159.858 70.1906 161.399C69.4473 163.142 68.8456 164.395 68.2668 165.303C67.6855 166.214 67.3888 166.353 67.4594 166.314C67.6956 166.185 67.8117 166.297 67.3646 166.204L66.1387 172.077L64.9128 177.951C67.8085 178.555 70.6572 178.244 73.2206 176.841C75.6184 175.528 77.2438 173.544 78.3841 171.756C79.5269 169.964 80.4466 167.941 81.2293 166.105C82.0986 164.066 82.7251 162.449 83.5908 160.502C85.2395 156.794 86.9644 153.82 89.3357 151.765C91.5017 149.888 94.6355 148.41 99.9536 148.575L100.139 142.577ZM66.1387 172.077L67.3649 166.204C65.5742 165.83 63.3221 164.212 60.9621 159.847C58.6589 155.586 56.8186 149.709 55.4015 142.944C52.579 129.468 51.7296 113.975 51.3617 104.506L45.3662 104.739L39.3708 104.972C39.7408 114.496 40.6107 130.863 43.6564 145.404C45.1735 152.647 47.3045 159.817 50.4059 165.554C53.4505 171.185 58.0362 176.515 64.9126 177.951L66.1387 172.077ZM45.3662 104.739L51.3579 104.422C51.0694 98.9681 48.9963 93.7606 45.4579 89.601L40.8877 93.4886L36.3176 97.3762C38.151 99.5316 39.2252 102.23 39.3746 105.056L45.3662 104.739ZM40.8877 93.4886L45.5191 89.6741C34.513 76.311 33.4613 59.6626 40.2836 49.2419L35.2637 45.9554L30.2438 42.669C19.9515 58.39 22.6554 80.7894 36.2563 97.3031L40.8877 93.4886ZM35.2637 45.9554L40.2098 49.3519C46.3255 40.4461 56.7419 35.4971 67.5088 36.3816L68 30.4017L68.4913 24.4218C53.4351 23.185 38.8695 30.1056 30.3176 42.5589L35.2637 45.9554ZM68 30.4017L67.3233 36.3634C73.7879 37.0972 77.7717 38.8992 82.1315 40.9298C86.6638 43.0408 91.7789 45.5005 99.5503 46.2663L100.139 40.2953L100.727 34.3242C95.1674 33.7763 91.6726 32.1359 87.198 30.0518C82.5509 27.8874 77.1309 25.3996 68.6767 24.44L68 30.4017ZM100.139 40.2953L100.727 46.2663C108.499 45.5001 113.613 43.0405 118.145 40.9296C122.505 38.8991 126.488 37.0972 132.953 36.3634L132.276 30.4017L131.6 24.44C123.146 25.3996 117.726 27.8872 113.079 30.0516C108.604 32.1356 105.11 33.7761 99.55 34.3242L100.139 40.2953ZM132.276 30.4017L132.768 36.3815C132.844 36.3753 132.91 36.3708 133.051 36.3605L132.616 30.3763L132.181 24.3921C132.096 24.3983 131.935 24.4095 131.785 24.4218L132.276 30.4017ZM132.616 30.3763L138.292 28.4315C138.283 28.4041 138.273 28.3759 138.256 28.3239C138.241 28.2784 138.218 28.2126 138.194 28.1425L132.523 30.1029L126.853 32.0633C126.906 32.2172 126.853 32.0671 126.94 32.3211L132.616 30.3763Z" fill="white" mask="url(#path-1-outside-1_922_10054)"/>
<path d="M165.013 45.9553C157.679 35.2757 145.188 29.341 132.277 30.4019C117.358 32.0953 113.47 38.9806 100.138 40.2948C86.8071 38.981 82.9187 32.0953 67.9998 30.4019C55.0882 29.3413 42.5974 35.2757 35.2636 45.9553C26.7062 59.0262 28.5845 78.5499 40.888 93.4884C43.574 96.6459 45.1478 100.599 45.3667 104.739C46.1047 123.733 48.8047 168.46 66.1392 172.078C79.5103 174.868 73.3529 141.751 100.138 142.578C126.923 141.75 121.268 174.868 134.639 172.078C151.974 168.46 154.172 123.733 154.91 104.739C155.128 100.599 156.702 96.6459 159.388 93.4884C171.692 78.5499 173.57 59.0262 165.013 45.9553Z" fill="#D7E8FC"/>
<path d="M132.523 30.1025C145.347 29.1368 157.726 35.0632 165.013 45.6748C173.57 58.7456 171.692 78.2696 159.389 93.208C156.703 96.3655 155.128 100.318 154.909 104.458C154.172 123.452 151.974 168.178 134.64 171.797C130.658 172.628 128.363 170.274 126.396 166.581C149.752 110.247 141.091 54.8855 132.523 30.1025Z" fill="#BCD5F3"/>
<path d="M117.408 87.7285C116.96 93.6753 108.946 102.403 102.566 101.986C96.1866 101.568 89.5685 91.8755 90.0221 85.9287C90.4699 79.982 95.0118 75.4338 104.532 76.0572C114.162 76.6915 117.861 81.7817 117.408 87.7285Z" fill="#EAC00F"/>
<path d="M66.4317 89.1626C74.3253 89.1626 80.7242 82.7636 80.7242 74.8701C80.7242 66.9765 74.3253 60.5775 66.4317 60.5775C58.5381 60.5775 52.1392 66.9765 52.1392 74.8701C52.1392 82.7636 58.5381 89.1626 66.4317 89.1626Z" fill="white"/>
<path d="M66.4317 82.4829C70.6362 82.4829 74.0446 79.0745 74.0446 74.8701C74.0446 70.6656 70.6362 67.2572 66.4317 67.2572C62.2272 67.2572 58.8188 70.6656 58.8188 74.8701C58.8188 79.0745 62.2272 82.4829 66.4317 82.4829Z" fill="#040000"/>
<path d="M138.461 89.1626C146.355 89.1626 152.754 82.7636 152.754 74.8701C152.754 66.9765 146.355 60.5775 138.461 60.5775C130.567 60.5775 124.168 66.9765 124.168 74.8701C124.168 82.7636 130.567 89.1626 138.461 89.1626Z" fill="white"/>
<path d="M138.461 82.4829C142.665 82.4829 146.074 79.0745 146.074 74.8701C146.074 70.6656 142.665 67.2572 138.461 67.2572C134.257 67.2572 130.848 70.6656 130.848 74.8701C130.848 79.0745 134.257 82.4829 138.461 82.4829Z" fill="#040000"/>
</svg>
