<svg width="200" height="200" viewBox="0 0 200 200" fill="none" xmlns="http://www.w3.org/2000/svg">
<mask id="path-1-outside-1_1347_20167" maskUnits="userSpaceOnUse" x="18" y="21" width="164" height="158" fill="black">
<rect fill="white" x="18" y="21" width="164" height="158"/>
<path d="M135.31 29.4473C139.114 26.7834 144.113 27.9025 146.418 31.9346L154.93 46.8262C157.231 50.8626 155.314 54.1601 150.67 54.1602H159.111C168.4 54.1603 176 61.7602 176 71.0488C176 78.882 170.595 85.514 163.331 87.4004V155.494C163.331 164.783 155.73 172.383 146.441 172.383H53.5527C44.2641 172.383 36.6643 164.783 36.6641 155.494V138.095C32.6313 136.375 28.3102 132.749 28.2812 129.017C28.2529 125.336 32.5023 121.498 36.6641 119.761V87.3994C29.4022 85.5113 24 78.8802 24 71.0488C24.0002 61.7602 31.6 54.1603 40.8887 54.1602H49.3359C44.692 54.1599 42.7753 50.8629 45.0801 46.8311L53.5928 31.9346C55.8981 27.9025 60.8928 26.7832 64.7012 29.4473L84.8447 43.5498C87.0426 39.7947 91.1166 37.2715 95.7822 37.2715H104.227C108.891 37.2716 112.963 39.7961 115.161 43.5498L135.31 29.4473Z"/>
</mask>
<path d="M135.31 29.4473C139.114 26.7834 144.113 27.9025 146.418 31.9346L154.93 46.8262C157.231 50.8626 155.314 54.1601 150.67 54.1602H159.111C168.4 54.1603 176 61.7602 176 71.0488C176 78.882 170.595 85.514 163.331 87.4004V155.494C163.331 164.783 155.73 172.383 146.441 172.383H53.5527C44.2641 172.383 36.6643 164.783 36.6641 155.494V138.095C32.6313 136.375 28.3102 132.749 28.2812 129.017C28.2529 125.336 32.5023 121.498 36.6641 119.761V87.3994C29.4022 85.5113 24 78.8802 24 71.0488C24.0002 61.7602 31.6 54.1603 40.8887 54.1602H49.3359C44.692 54.1599 42.7753 50.8629 45.0801 46.8311L53.5928 31.9346C55.8981 27.9025 60.8928 26.7832 64.7012 29.4473L84.8447 43.5498C87.0426 39.7947 91.1166 37.2715 95.7822 37.2715H104.227C108.891 37.2716 112.963 39.7961 115.161 43.5498L135.31 29.4473Z" fill="#EAC00F"/>
<path d="M135.31 29.4473L138.75 34.3628L138.751 34.3621L135.31 29.4473ZM146.418 31.9346L151.627 28.9571L151.627 28.9566L146.418 31.9346ZM154.93 46.8262L160.142 43.8546L160.139 43.8487L154.93 46.8262ZM150.67 54.1602L150.67 48.1602C147.356 48.1602 144.67 50.8465 144.67 54.1602C144.67 57.4739 147.356 60.1602 150.67 60.1602L150.67 54.1602ZM159.111 54.1602L159.111 48.1602H159.111V54.1602ZM176 71.0488L182 71.0488L182 71.0487L176 71.0488ZM163.331 87.4004L161.823 81.593C159.178 82.2799 157.331 84.6675 157.331 87.4004H163.331ZM163.331 155.494L169.331 155.494V155.494H163.331ZM53.5527 172.383L53.5527 178.383H53.5527V172.383ZM36.6641 155.494L30.6641 155.494L30.6641 155.494L36.6641 155.494ZM36.6641 138.095H42.6641C42.6641 135.691 41.2292 133.519 39.018 132.576L36.6641 138.095ZM28.2812 129.017L22.2814 129.063L22.2814 129.063L28.2812 129.017ZM36.6641 119.761L38.9751 125.298C41.2092 124.365 42.6641 122.182 42.6641 119.761H36.6641ZM36.6641 87.3994H42.6641C42.6641 84.6672 40.8182 82.28 38.1739 81.5925L36.6641 87.3994ZM24 71.0488L18 71.0487V71.0488H24ZM40.8887 54.1602L40.8887 48.1602L40.8886 48.1602L40.8887 54.1602ZM49.3359 54.1602V60.1602C52.6496 60.1602 55.3359 57.474 55.3359 54.1603C55.336 50.8466 52.6499 48.1603 49.3362 48.1602L49.3359 54.1602ZM45.0801 46.8311L50.289 49.8088L50.2895 49.808L45.0801 46.8311ZM53.5928 31.9346L48.3841 28.9564L48.3834 28.9576L53.5928 31.9346ZM64.7012 29.4473L68.1423 24.5321L68.1404 24.5308L64.7012 29.4473ZM84.8447 43.5498L81.4036 48.465C82.7765 49.4261 84.4889 49.7693 86.1262 49.4114C87.7634 49.0534 89.1764 48.027 90.023 46.5806L84.8447 43.5498ZM104.227 37.2715L104.227 31.2715H104.227V37.2715ZM115.161 43.5498L109.984 46.5818C110.83 48.0277 112.243 49.0537 113.88 49.4114C115.517 49.7692 117.229 49.4262 118.602 48.4654L115.161 43.5498ZM135.31 29.4473L138.751 34.3621C139.278 33.9929 139.755 33.9545 140.115 34.035C140.474 34.1155 140.89 34.3536 141.209 34.9126L146.418 31.9346L151.627 28.9566C147.569 21.8598 138.564 19.8436 131.868 24.5325L135.31 29.4473ZM146.418 31.9346L141.209 34.912L149.721 49.8036L154.93 46.8262L160.139 43.8487L151.627 28.9571L146.418 31.9346ZM154.93 46.8262L149.717 49.7977C149.951 50.2085 149.921 50.3297 149.908 50.1616C149.891 49.9595 149.92 49.5035 150.216 48.9928C150.513 48.4821 150.895 48.2316 151.079 48.1457C151.232 48.0742 151.142 48.1601 150.67 48.1602L150.67 54.1602L150.67 60.1602C154.286 60.1601 158.381 58.8274 160.592 55.0208C162.804 51.2141 161.933 46.9963 160.142 43.8546L154.93 46.8262ZM150.67 54.1602V60.1602H159.111V54.1602V48.1602H150.67V54.1602ZM159.111 54.1602L159.111 60.1602C165.086 60.1602 170 65.0739 170 71.049L176 71.0488L182 71.0487C182 58.4466 171.714 48.1603 159.111 48.1602L159.111 54.1602ZM176 71.0488H170C170 76.0685 166.521 80.373 161.823 81.593L163.331 87.4004L164.839 93.2078C174.67 90.655 182 81.6954 182 71.0488H176ZM163.331 87.4004H157.331V155.494H163.331H169.331V87.4004H163.331ZM163.331 155.494L157.331 155.494C157.331 161.469 152.417 166.383 146.441 166.383V172.383V178.383C159.044 178.383 169.331 168.097 169.331 155.494L163.331 155.494ZM146.441 172.383V166.383H53.5527V172.383V178.383H146.441V172.383ZM53.5527 172.383L53.5528 166.383C47.5779 166.383 42.6642 161.469 42.6641 155.494L36.6641 155.494L30.6641 155.494C30.6644 168.096 40.9503 178.383 53.5527 178.383L53.5527 172.383ZM36.6641 155.494H42.6641V138.095H36.6641H30.6641V155.494H36.6641ZM36.6641 138.095L39.018 132.576C37.6125 131.976 36.1914 131.045 35.2139 130.068C34.1265 128.98 34.2779 128.566 34.2811 128.97L28.2812 129.017L22.2814 129.063C22.3135 133.199 24.6399 136.464 26.7286 138.553C28.927 140.751 31.6829 142.493 34.3102 143.614L36.6641 138.095ZM28.2812 129.017L34.2811 128.97C34.2843 129.391 34.1314 128.953 35.2194 127.826C36.1906 126.819 37.5956 125.874 38.9751 125.298L36.6641 119.761L34.353 114.224C31.5707 115.385 28.7701 117.227 26.5833 119.494C24.5133 121.639 22.2499 124.961 22.2814 129.063L28.2812 129.017ZM36.6641 119.761H42.6641V87.3994H36.6641H30.6641V119.761H36.6641ZM36.6641 87.3994L38.1739 81.5925C33.4776 80.3715 30 76.0675 30 71.0488H24H18C18 81.6929 25.3268 90.6512 35.1543 93.2064L36.6641 87.3994ZM24 71.0488L30 71.049C30.0002 65.0739 34.9138 60.1602 40.8887 60.1602L40.8887 54.1602L40.8886 48.1602C28.2862 48.1603 18.0003 58.4466 18 71.0487L24 71.0488ZM40.8887 54.1602V60.1602H49.3359V54.1602V48.1602H40.8887V54.1602ZM49.3359 54.1602L49.3362 48.1602C48.864 48.1601 48.7739 48.0742 48.9268 48.1456C49.1105 48.2314 49.4932 48.482 49.7904 48.9937C50.0878 49.5056 50.1163 49.9634 50.0996 50.1676C50.0856 50.3377 50.055 50.2182 50.289 49.8088L45.0801 46.8311L39.8711 43.8533C38.076 46.9937 37.2016 51.2126 39.4141 55.0212C41.6253 58.8279 45.7211 60.16 49.3357 60.1602L49.3359 54.1602ZM45.0801 46.8311L50.2895 49.808L58.8022 34.9115L53.5928 31.9346L48.3834 28.9576L39.8707 43.8541L45.0801 46.8311ZM53.5928 31.9346L58.8015 34.9127C59.1219 34.3523 59.5369 34.115 59.8947 34.0348C60.2524 33.9547 60.7306 33.9921 61.262 34.3637L64.7012 29.4473L68.1404 24.5308C61.4418 19.845 52.442 21.8591 48.3841 28.9564L53.5928 31.9346ZM64.7012 29.4473L61.2601 34.3624L81.4036 48.465L84.8447 43.5498L88.2858 38.6346L68.1423 24.5321L64.7012 29.4473ZM84.8447 43.5498L90.023 46.5806C91.1899 44.5869 93.3359 43.2715 95.7822 43.2715V37.2715V31.2715C88.8973 31.2715 82.8953 35.0025 79.6665 40.519L84.8447 43.5498ZM95.7822 37.2715V43.2715H104.227V37.2715V31.2715H95.7822V37.2715ZM104.227 37.2715L104.226 43.2715C106.669 43.2715 108.815 44.5862 109.984 46.5818L115.161 43.5498L120.339 40.5178C117.111 35.006 111.113 31.2716 104.227 31.2715L104.227 37.2715ZM115.161 43.5498L118.602 48.4654L138.75 34.3628L135.31 29.4473L131.869 24.5317L111.721 38.6343L115.161 43.5498Z" fill="white" mask="url(#path-1-outside-1_1347_20167)"/>
<path d="M163.331 155.494C163.331 164.783 155.731 172.383 146.442 172.383H53.553C44.2641 172.383 36.6641 164.783 36.6641 155.494V83.716C36.6641 74.4271 44.2641 66.8271 53.553 66.8271H146.442C155.731 66.8271 163.331 74.4271 163.331 83.716V155.494Z" fill="#4B9AE8"/>
<path d="M40.0729 139.078C35.5889 138.53 28.3188 133.862 28.2813 129.017C28.2437 124.171 35.617 119.052 40.4481 118.813C45.2698 118.575 48.5718 121.979 48.6187 129.211C48.6656 136.523 44.5569 139.626 40.0729 139.078Z" fill="#EAC00F"/>
<path d="M63.6066 125.225C69.5184 125.225 74.3108 120.432 74.3108 114.521C74.3108 108.609 69.5184 103.816 63.6066 103.816C57.6948 103.816 52.9023 108.609 52.9023 114.521C52.9023 120.432 57.6948 125.225 63.6066 125.225Z" fill="white"/>
<path d="M63.4389 121.015C66.9831 121.015 69.8563 118.142 69.8563 114.598C69.8563 111.054 66.9831 108.181 63.4389 108.181C59.8947 108.181 57.0215 111.054 57.0215 114.598C57.0215 118.142 59.8947 121.015 63.4389 121.015Z" fill="black"/>
<path d="M176 71.049C176 80.3379 168.4 87.9379 159.111 87.9379H40.8889C31.6 87.9379 24 80.3379 24 71.049C24 61.7602 31.6 54.1602 40.8889 54.1602H159.111C168.4 54.1602 176 61.7602 176 71.049Z" fill="#4B9AE8"/>
<path d="M36.6641 87.9385H163.331V96.3829H36.6641V87.9385Z" fill="#3682CD"/>
<path d="M104.226 37.2715H95.7819C88.7857 37.2715 83.1152 42.9419 83.1152 49.9382V172.383H116.893V49.9382C116.893 42.9462 111.223 37.2715 104.226 37.2715Z" fill="#EAC00F"/>
<path d="M91.5586 54.1603C96.2031 54.1603 96.8913 51.9817 93.0828 49.3175L64.7011 29.4477C60.8926 26.7835 55.8977 27.9023 53.5924 31.9346L45.0804 46.8306C42.7751 50.8628 44.692 54.1603 49.3364 54.1603H91.5586ZM108.448 54.1603C103.803 54.1603 103.115 51.9817 106.923 49.3175L135.309 29.4477C139.114 26.7835 144.113 27.9023 146.418 31.9346L154.93 46.8263C157.231 50.8628 155.314 54.1603 150.67 54.1603H108.448Z" fill="#EAC00F"/>
</svg>
