<svg width="200" height="200" viewBox="0 0 200 200" fill="none" xmlns="http://www.w3.org/2000/svg">
<mask id="path-1-outside-1_898_3453" maskUnits="userSpaceOnUse" x="28.999" y="28.998" width="144" height="144" fill="black">
<rect fill="white" x="28.999" y="28.998" width="144" height="144"/>
<path d="M100.5 34.998C136.675 34.9982 166.001 64.3238 166.001 100.499C166.001 136.674 136.675 166 100.5 166C64.325 166 34.9994 136.674 34.999 100.499C34.999 64.3238 64.3248 34.998 100.5 34.998Z"/>
</mask>
<path d="M100.5 34.998C136.675 34.9982 166.001 64.3238 166.001 100.499C166.001 136.674 136.675 166 100.5 166C64.325 166 34.9994 136.674 34.999 100.499C34.999 64.3238 64.3248 34.998 100.5 34.998Z" fill="#EEBA68"/>
<path d="M100.5 34.998L100.5 28.998H100.5V34.998ZM166.001 100.499L172.001 100.499V100.499H166.001ZM100.5 166L100.5 172L100.5 172L100.5 166ZM34.999 100.499L28.999 100.499L28.999 100.499L34.999 100.499ZM100.5 34.998L100.5 40.998C133.361 40.9982 160.001 67.6376 160.001 100.499H166.001H172.001C172.001 61.0101 139.989 28.9982 100.5 28.998L100.5 34.998ZM166.001 100.499L160.001 100.499C160.001 133.36 133.361 160 100.5 160L100.5 166L100.5 172C139.989 172 172.001 139.988 172.001 100.499L166.001 100.499ZM100.5 166V160C67.6388 160 40.9994 133.36 40.999 100.499L34.999 100.499L28.999 100.499C28.9994 139.988 61.0112 172 100.5 172V166ZM34.999 100.499H40.999C40.999 67.6375 67.6385 40.998 100.5 40.998V34.998V28.998C61.011 28.998 28.999 61.0101 28.999 100.499H34.999Z" fill="white" mask="url(#path-1-outside-1_898_3453)"/>
<path d="M100.5 164.829C136.029 164.829 164.831 136.027 164.831 100.498C164.831 64.9694 136.029 36.1675 100.5 36.1675C64.9708 36.1675 36.1689 64.9694 36.1689 100.498C36.1689 136.027 64.9708 164.829 100.5 164.829Z" fill="url(#paint0_linear_898_3453)" stroke="url(#paint1_linear_898_3453)" stroke-width="2.34048" stroke-miterlimit="10"/>
<path d="M100.499 160.603C133.694 160.603 160.604 133.694 160.604 100.499C160.604 67.3038 133.694 40.394 100.499 40.394C67.3043 40.394 40.3945 67.3038 40.3945 100.499C40.3945 133.694 67.3043 160.603 100.499 160.603Z" fill="#F5D481" stroke="url(#paint2_linear_898_3453)" stroke-width="1.50429" stroke-miterlimit="10"/>
<path d="M101.832 123.787C116.571 123.787 128.519 111.839 128.519 97.1004C128.519 82.3615 116.571 70.4133 101.832 70.4133C87.0931 70.4133 75.1449 82.3615 75.1449 97.1004C75.1449 111.839 87.0931 123.787 101.832 123.787Z" fill="url(#paint3_linear_898_3453)" stroke="url(#paint4_linear_898_3453)" stroke-width="2.86202" stroke-miterlimit="10"/>
<path d="M95.2332 98.5294C99.4705 98.5294 102.906 95.0944 102.906 90.8571C102.906 86.6198 99.4705 83.1848 95.2332 83.1848C90.996 83.1848 87.561 86.6198 87.561 90.8571C87.561 95.0944 90.996 98.5294 95.2332 98.5294Z" stroke="url(#paint5_linear_898_3453)" stroke-width="2.50427" stroke-miterlimit="10"/>
<path d="M95.2327 94.0143C96.9764 94.0143 98.39 92.6007 98.39 90.857C98.39 89.1133 96.9764 87.6997 95.2327 87.6997C93.489 87.6997 92.0754 89.1133 92.0754 90.857C92.0754 92.6007 93.489 94.0143 95.2327 94.0143Z" fill="url(#paint6_linear_898_3453)"/>
<path d="M75.8159 107.389C72.4733 107.428 67.2514 103.659 67.2126 100.316C67.1738 96.9734 72.3052 93.0812 75.6478 93.0424C78.9904 93.0036 81.7275 95.1566 81.7857 100.146C81.846 105.191 79.1607 107.352 75.8159 107.391V107.389Z" fill="url(#paint7_linear_898_3453)"/>
<path d="M58.068 68.8441C57.7275 68.5036 57.818 67.8721 58.2813 67.426C59.1822 66.5575 59.6391 66.1372 60.5701 65.3204C62.43 63.6912 64.292 63.6933 65.2704 64.9648C65.2769 64.9713 65.2791 64.9756 65.2834 64.9821C66.3911 66.4217 65.626 68.1846 64.0312 69.5898C63.5571 70.0079 63.32 70.2212 62.8545 70.6566C63.2791 71.1134 63.4903 71.3419 63.9149 71.7966C64.2424 72.1501 64.1778 72.7298 63.7726 73.1199C63.3675 73.51 62.7834 73.5595 62.4408 73.2169C60.9817 71.7578 59.5249 70.301 58.0658 68.8419L58.068 68.8441ZM63.0701 68.3915C63.8739 67.6846 64.0248 66.8958 63.5959 66.3786C63.5894 66.3721 63.5873 66.3678 63.5808 66.3614C63.0873 65.7665 62.2899 65.8829 61.4537 66.6178C60.9386 67.0726 60.6822 67.3032 60.1757 67.7751C60.8287 68.4777 61.1563 68.829 61.8093 69.5316C62.3093 69.0661 62.5593 68.8398 63.0701 68.3915Z" fill="url(#paint8_linear_898_3453)"/>
<path d="M68.6415 67.7666C67.4239 66.1287 66.2084 64.4929 64.9907 62.855C64.7041 62.4671 64.8722 61.8658 65.3808 61.4994C67.2148 60.1826 68.1545 59.5706 70.0725 58.4348C70.5424 58.1568 71.1005 58.2387 71.3117 58.6094C71.5229 58.9801 71.3117 59.4865 70.8548 59.7559C69.3506 60.646 68.6092 61.1201 67.1566 62.1244C67.5187 62.6481 67.6997 62.911 68.0618 63.4347C69.273 62.5964 69.8893 62.1977 71.1372 61.4412C71.5811 61.1718 72.1221 61.2602 72.3376 61.6287C72.5531 61.9973 72.3656 62.4951 71.9324 62.7559C70.7148 63.4929 70.1156 63.8809 68.9346 64.6977C69.3096 65.2407 69.4971 65.5123 69.87 66.0532C71.232 65.1114 71.926 64.6675 73.3397 63.8334C73.7621 63.5834 74.2815 63.689 74.4927 64.0597C74.7039 64.4304 74.5315 64.9153 74.1199 65.1567C72.4173 66.161 71.5811 66.7062 69.954 67.8743C69.5079 68.1933 68.9325 68.148 68.6458 67.7623L68.6415 67.7666Z" fill="url(#paint9_linear_898_3453)"/>
<path d="M74.8974 63.4345C74.8479 61.0854 74.8737 58.7902 74.9707 56.4432C75.0009 55.9562 75.2897 55.5316 75.8306 55.2816C75.878 55.26 75.8996 55.2493 75.947 55.2277C76.4901 54.9799 76.9858 55.0467 77.3737 55.3419C79.1969 56.7967 80.9943 58.2578 82.6861 59.8656C82.7874 59.9604 82.8628 60.0509 82.9016 60.1565C83.0611 60.5875 82.8176 61.0703 82.3456 61.2535C81.9296 61.413 81.5676 61.3052 81.2723 61.038C80.8693 60.6694 80.6646 60.4863 80.2529 60.1242C78.7982 60.7298 78.0806 61.0595 76.6603 61.7707C76.6646 62.344 76.6711 62.6306 76.6884 63.2039C76.697 63.5789 76.503 63.9065 76.1496 64.094C75.7078 64.331 75.1948 64.206 74.9772 63.8138C74.9168 63.706 74.9017 63.5724 74.8974 63.4345ZM78.975 59.01C78.0957 58.2622 77.6474 57.8936 76.7293 57.1738C76.6754 58.3376 76.6603 58.9173 76.6517 60.0725C77.5741 59.6264 78.0375 59.413 78.975 59.0078V59.01Z" fill="url(#paint10_linear_898_3453)"/>
<path d="M82.1285 57.1006C82.1285 57.1006 82.1242 57.0876 82.1199 57.079C81.2643 54.5489 83.3052 52.3313 85.6392 51.717C87.053 51.3442 88.1112 51.4153 88.9969 51.717C89.2426 51.8011 89.4819 52.0037 89.5444 52.2989C89.6413 52.7601 89.2685 53.2149 88.7168 53.3399C88.4409 53.4024 88.2362 53.3593 88.0724 53.3183C87.4215 53.1049 86.7728 53.0597 86.0466 53.2558C84.4884 53.6804 83.7147 55.092 84.1263 56.3721C84.1285 56.3808 84.1306 56.3851 84.1328 56.3937C84.5444 57.6738 85.8849 58.4109 87.344 58.0143C88.1349 57.7988 88.6026 57.454 89.0573 56.9432C89.1801 56.7989 89.3612 56.676 89.5853 56.6264C90.0702 56.5165 90.5551 56.7816 90.6456 57.2105C90.7017 57.4734 90.5982 57.7126 90.456 57.8807C89.8202 58.648 89.0228 59.2018 87.7039 59.566C85.5142 60.1716 83.0014 59.3225 82.1285 57.1006Z" fill="url(#paint11_linear_898_3453)"/>
<path d="M91.9302 57.5724C91.553 55.5681 91.1759 53.5639 90.7966 51.5574C90.7082 51.0833 91.1026 50.6199 91.6953 50.5208C93.831 50.1587 94.9064 50.023 97.0594 49.8419C97.5874 49.7967 98.0421 50.1156 98.0702 50.5402C98.1003 50.9648 97.7016 51.329 97.1887 51.3721C95.4991 51.5143 94.6543 51.6135 92.9754 51.8699C93.0724 52.4992 93.1198 52.8139 93.2168 53.4432C94.6176 53.2298 95.3202 53.1436 96.7275 53.01C97.2297 52.9626 97.665 53.2772 97.6995 53.7018C97.734 54.1263 97.3611 54.4927 96.8719 54.538C95.4991 54.6673 94.8137 54.7513 93.4495 54.9604C93.5487 55.6112 93.6004 55.9367 93.6995 56.5897C95.2749 56.3483 96.0659 56.2556 97.6521 56.1242C98.1262 56.0854 98.5378 56.4065 98.568 56.831C98.596 57.2556 98.2426 57.6155 97.7792 57.6543C95.8676 57.8116 94.9129 57.9323 93.0164 58.2556C92.497 58.3439 92.0185 58.0465 91.928 57.5724H91.9302Z" fill="url(#paint12_linear_898_3453)"/>
<path d="M108.419 57.6521C108.161 57.359 108.029 57.2124 107.764 56.9215C107.01 57.4021 106.161 57.693 105.15 57.6435C103.521 57.5637 102.288 56.7017 102.286 55.3116C102.286 55.303 102.286 55.2987 102.286 55.29C102.286 54.2922 102.9 53.5767 104.07 53.1608C103.624 52.6112 103.443 52.1155 103.454 51.5767C103.454 51.5681 103.454 51.5638 103.454 51.5552C103.473 50.4798 104.564 49.4927 106.443 49.6113C108.1 49.7169 109.09 50.7125 108.973 51.8052C108.973 51.8138 108.973 51.8181 108.971 51.8267C108.859 52.8741 108.001 53.3978 106.853 53.6952C107.301 54.137 107.523 54.3612 107.954 54.8116C108.184 54.5638 108.404 54.303 108.631 54.0228C108.738 53.8763 109.025 53.6694 109.415 53.7146C109.872 53.7685 110.206 54.1414 110.154 54.5293C110.139 54.6521 110.083 54.7685 109.993 54.8698C109.687 55.2254 109.346 55.5896 109.001 55.9344C109.29 56.2512 109.432 56.4107 109.712 56.7318C109.865 56.9107 109.954 57.0917 109.922 57.3245C109.865 57.7469 109.471 58.0206 109.01 57.9667C108.756 57.9365 108.594 57.8503 108.419 57.6521ZM106.751 55.8568C106.124 55.2017 105.801 54.8806 105.137 54.2426C104.516 54.4948 104.264 54.859 104.251 55.2512C104.251 55.2599 104.251 55.2642 104.251 55.2728C104.234 55.8224 104.734 56.206 105.445 56.2426C105.894 56.2663 106.329 56.1155 106.751 55.8547V55.8568ZM107.156 51.7621C107.156 51.7621 107.156 51.7492 107.156 51.7405C107.191 51.2944 106.844 50.9841 106.314 50.9518C105.756 50.9173 105.37 51.2255 105.348 51.6953V51.7168C105.331 52.0638 105.48 52.3289 105.844 52.719C106.667 52.5078 107.118 52.2642 107.156 51.7621Z" fill="url(#paint13_linear_898_3453)"/>
<path d="M115.473 51.7835C115.574 51.3115 116.117 51.0378 116.706 51.1714C117.292 51.3072 117.662 51.7921 117.546 52.2598C117.016 54.3869 116.753 55.4515 116.223 57.5787C117.619 57.9235 118.313 58.1196 119.688 58.5549C120.158 58.7036 120.421 59.1584 120.283 59.5722C120.145 59.9859 119.673 60.195 119.214 60.0506C117.514 59.514 116.654 59.2812 114.923 58.8825C114.41 58.764 114.081 58.3071 114.182 57.8351C114.611 55.8179 115.042 53.8007 115.471 51.7835H115.473Z" fill="url(#paint14_linear_898_3453)"/>
<path d="M121.258 56.6113C121.258 56.6113 121.263 56.5984 121.265 56.5898C122.194 54.0424 125.265 53.6652 127.476 54.6092C129.681 55.551 131.553 58.0208 130.351 60.4539C130.347 60.4625 130.344 60.4668 130.34 60.4733C129.107 62.6091 126.368 62.9582 124.258 62.0616C122.157 61.1673 120.554 58.9583 121.258 56.6113ZM128.411 59.5207C128.411 59.5207 128.418 59.5078 128.422 59.5013C129.008 58.2902 128.403 56.7385 126.825 56.0639C125.247 55.3893 123.75 56.0165 123.28 57.2772C123.278 57.2859 123.275 57.2902 123.271 57.2988C122.801 58.5596 123.457 59.9884 124.909 60.6091C126.359 61.2298 127.825 60.7319 128.413 59.5207H128.411Z" fill="url(#paint15_linear_898_3453)"/>
<path d="M131.619 65.0699C131.86 62.8264 131.992 60.5355 132.011 58.279C132.013 58.1282 132.026 57.9816 132.095 57.8545C132.324 57.4299 132.927 57.3329 133.464 57.6347C133.964 57.9148 134.158 58.3265 134.13 58.7122C133.966 60.9687 133.847 62.0872 133.53 64.2962C135.418 63.0656 136.395 62.4794 138.403 61.376C138.681 61.2273 139.158 61.2316 139.595 61.5484C140.091 61.9061 140.274 62.4923 139.992 62.8695C139.912 62.9772 139.778 63.0591 139.67 63.1066C137.602 64.0677 135.55 65.1582 133.597 66.3349C133.19 66.5763 132.744 66.5893 132.298 66.3026C132.255 66.2746 132.233 66.2617 132.192 66.2358C131.746 65.9513 131.569 65.5419 131.617 65.072L131.619 65.0699Z" fill="url(#paint16_linear_898_3453)"/>
<path d="M137.076 68.4666C138.326 66.8546 139.576 65.2426 140.828 63.6305C141.123 63.2491 141.75 63.2534 142.241 63.6499C144.015 65.0809 144.879 65.8417 146.55 67.4559C146.959 67.8503 147.043 68.4257 146.741 68.7274C146.44 69.0291 145.881 68.9451 145.483 68.5593C144.172 67.2942 143.5 66.6886 142.123 65.5378C141.716 66.027 141.511 66.2706 141.104 66.7598C142.252 67.7188 142.815 68.2188 143.916 69.2619C144.308 69.6326 144.379 70.1907 144.082 70.4946C143.785 70.7985 143.241 70.7382 142.86 70.3782C141.787 69.3632 141.239 68.8761 140.119 67.9408C139.696 68.4472 139.485 68.6994 139.063 69.2058C140.354 70.2856 140.985 70.8524 142.213 72.042C142.582 72.3976 142.632 72.9407 142.33 73.2424C142.028 73.5441 141.502 73.4924 141.144 73.1454C139.664 71.7101 138.897 71.0356 137.321 69.764C136.89 69.4171 136.778 68.8481 137.073 68.4666H137.076Z" fill="url(#paint17_linear_898_3453)"/>
<path d="M136.197 105.443L140.652 97.6282H136.059C135.426 97.6282 134.91 97.1303 134.91 96.4967C134.91 95.8631 135.426 95.348 136.059 95.348H142.572C143.309 95.348 143.772 95.7769 143.772 96.5312C143.772 96.9256 143.617 97.4062 143.395 97.8157L138.581 106.555C138.238 107.188 137.826 107.445 137.313 107.445C136.611 107.445 135.96 107.016 135.96 106.262C135.96 106.04 136.063 105.68 136.199 105.438L136.197 105.443Z" fill="url(#paint18_linear_898_3453)"/>
<path d="M146.805 105.443L151.26 97.6282H146.667C146.033 97.6282 145.518 97.1303 145.518 96.4967C145.518 95.8631 146.033 95.348 146.667 95.348H153.18C153.917 95.348 154.38 95.7769 154.38 96.5312C154.38 96.9256 154.225 97.4062 154.003 97.8157L149.189 106.555C148.846 107.188 148.434 107.445 147.921 107.445C147.219 107.445 146.568 107.016 146.568 106.262C146.568 106.04 146.671 105.68 146.807 105.438L146.805 105.443Z" fill="url(#paint19_linear_898_3453)"/>
<path d="M44.9541 105.443L49.4087 97.6282H44.8161C44.1825 97.6282 43.6674 97.1303 43.6674 96.4967C43.6674 95.8631 44.1825 95.348 44.8161 95.348H51.329C52.066 95.348 52.5294 95.7769 52.5294 96.5312C52.5294 96.9256 52.3742 97.4062 52.1522 97.8157L47.3376 106.555C46.995 107.188 46.5833 107.445 46.0704 107.445C45.3679 107.445 44.717 107.016 44.717 106.262C44.717 106.04 44.8204 105.68 44.9562 105.438L44.9541 105.443Z" fill="url(#paint20_linear_898_3453)"/>
<path d="M55.5619 105.443L60.0166 97.6282H55.424C54.7904 97.6282 54.2753 97.1303 54.2753 96.4967C54.2753 95.8631 54.7904 95.348 55.424 95.348H61.9368C62.6739 95.348 63.1372 95.7769 63.1372 96.5312C63.1372 96.9256 62.9821 97.4062 62.7601 97.8157L57.9455 106.555C57.6028 107.188 57.1912 107.445 56.6783 107.445C55.9757 107.445 55.3249 107.016 55.3249 106.262C55.3249 106.04 55.4283 105.68 55.5641 105.438L55.5619 105.443Z" fill="url(#paint21_linear_898_3453)"/>
<path d="M76.1395 144.349L80.1632 141.054C81.9218 139.619 82.6093 138.83 82.6093 137.658C82.6093 136.485 81.8205 135.817 80.7084 135.817C79.8183 135.817 79.1912 136.201 78.4024 137.05C78.1998 137.272 77.8356 137.494 77.3507 137.494C76.5619 137.494 75.9348 136.867 75.9348 136.078C75.9348 135.735 76.077 135.371 76.299 135.108C77.4305 133.794 78.7666 133.026 80.9088 133.026C83.8398 133.026 85.7816 134.744 85.7816 137.393V137.434C85.7816 139.8 84.5683 140.972 82.0618 142.912L79.7558 144.692H84.689C85.4368 144.692 86.0445 145.298 86.0445 146.048C86.0445 146.798 85.4389 147.382 84.689 147.382H77.0059C76.0361 147.382 75.327 146.836 75.327 145.905C75.327 145.3 75.6094 144.774 76.1352 144.349H76.1395Z" fill="url(#paint22_linear_898_3453)"/>
<path d="M87.3378 140.347V140.307C87.3378 136.203 89.8852 132.988 93.6459 132.988C97.4066 132.988 99.9131 136.162 99.9131 140.266V140.307C99.9131 144.41 97.3851 147.625 93.605 147.625C89.8249 147.625 87.3378 144.451 87.3378 140.347ZM96.7192 140.347V140.307C96.7192 137.74 95.4649 135.798 93.605 135.798C91.7451 135.798 90.5318 137.677 90.5318 140.266V140.307C90.5318 142.895 91.7645 144.815 93.6459 144.815C95.5274 144.815 96.7192 142.914 96.7192 140.347Z" fill="url(#paint23_linear_898_3453)"/>
<path d="M101.674 144.349L105.698 141.054C107.456 139.619 108.144 138.83 108.144 137.658C108.144 136.485 107.355 135.817 106.243 135.817C105.353 135.817 104.726 136.201 103.937 137.05C103.734 137.272 103.37 137.494 102.885 137.494C102.096 137.494 101.469 136.867 101.469 136.078C101.469 135.735 101.611 135.371 101.833 135.108C102.965 133.794 104.301 133.026 106.443 133.026C109.374 133.026 111.316 134.744 111.316 137.393V137.434C111.316 139.8 110.103 140.972 107.596 142.912L105.29 144.692H110.223C110.971 144.692 111.579 145.298 111.579 146.048C111.579 146.798 110.973 147.382 110.223 147.382H102.54C101.571 147.382 100.861 146.836 100.861 145.905C100.861 145.3 101.144 144.774 101.67 144.349H101.674Z" fill="url(#paint24_linear_898_3453)"/>
<path d="M112.874 140.347V140.307C112.874 136.203 115.421 132.988 119.182 132.988C122.943 132.988 125.449 136.162 125.449 140.266V140.307C125.449 144.41 122.921 147.625 119.141 147.625C115.361 147.625 112.874 144.451 112.874 140.347ZM122.255 140.347V140.307C122.255 137.74 121.001 135.798 119.141 135.798C117.281 135.798 116.068 137.677 116.068 140.266V140.307C116.068 142.895 117.301 144.815 119.182 144.815C121.063 144.815 122.255 142.914 122.255 140.347Z" fill="url(#paint25_linear_898_3453)"/>
<defs>
<linearGradient id="paint0_linear_898_3453" x1="36.1711" y1="100.498" x2="164.831" y2="100.498" gradientUnits="userSpaceOnUse">
<stop stop-color="#EEBA68"/>
<stop offset="1" stop-color="#AE7E37"/>
</linearGradient>
<linearGradient id="paint1_linear_898_3453" x1="35.0009" y1="34.9994" x2="166.001" y2="34.9994" gradientUnits="userSpaceOnUse">
<stop stop-color="#EEBA68"/>
<stop offset="1" stop-color="#AE7E37"/>
</linearGradient>
<linearGradient id="paint2_linear_898_3453" x1="39.6445" y1="34.9997" x2="161.356" y2="34.9997" gradientUnits="userSpaceOnUse">
<stop stop-color="#EEBA68"/>
<stop offset="1" stop-color="#AE7E37"/>
</linearGradient>
<linearGradient id="paint3_linear_898_3453" x1="75.1471" y1="97.1004" x2="128.519" y2="97.1004" gradientUnits="userSpaceOnUse">
<stop stop-color="#FFD694"/>
<stop offset="1" stop-color="#DEAC61"/>
</linearGradient>
<linearGradient id="paint4_linear_898_3453" x1="73.7139" y1="97.1004" x2="129.952" y2="97.1004" gradientUnits="userSpaceOnUse">
<stop stop-color="#E9B666"/>
<stop offset="1" stop-color="#C9964B"/>
</linearGradient>
<linearGradient id="paint5_linear_898_3453" x1="87.1496" y1="90.8571" x2="103.318" y2="90.8571" gradientUnits="userSpaceOnUse">
<stop stop-color="#E9B666"/>
<stop offset="1" stop-color="#C9964B"/>
</linearGradient>
<linearGradient id="paint6_linear_898_3453" x1="93.0708" y1="89.0205" x2="98.4729" y2="93.0721" gradientUnits="userSpaceOnUse">
<stop stop-color="#C28337"/>
<stop offset="1" stop-color="#DDA54C"/>
</linearGradient>
<linearGradient id="paint7_linear_898_3453" x1="67.2126" y1="100.215" x2="81.7857" y2="100.215" gradientUnits="userSpaceOnUse">
<stop stop-color="#EEBA68"/>
<stop offset="1" stop-color="#AE7E37"/>
</linearGradient>
<linearGradient id="paint8_linear_898_3453" x1="57.8632" y1="68.7493" x2="65.8049" y2="68.7493" gradientUnits="userSpaceOnUse">
<stop stop-color="#EEBA68"/>
<stop offset="1" stop-color="#AE7E37"/>
</linearGradient>
<linearGradient id="paint9_linear_898_3453" x1="64.8506" y1="63.1804" x2="74.5811" y2="63.1804" gradientUnits="userSpaceOnUse">
<stop stop-color="#EEBA68"/>
<stop offset="1" stop-color="#AE7E37"/>
</linearGradient>
<linearGradient id="paint10_linear_898_3453" x1="74.8737" y1="59.6458" x2="82.9512" y2="59.6458" gradientUnits="userSpaceOnUse">
<stop stop-color="#EEBA68"/>
<stop offset="1" stop-color="#AE7E37"/>
</linearGradient>
<linearGradient id="paint11_linear_898_3453" x1="81.9238" y1="55.6092" x2="90.6629" y2="55.6092" gradientUnits="userSpaceOnUse">
<stop stop-color="#EEBA68"/>
<stop offset="1" stop-color="#AE7E37"/>
</linearGradient>
<linearGradient id="paint12_linear_898_3453" x1="90.7836" y1="54.0531" x2="98.5701" y2="54.0531" gradientUnits="userSpaceOnUse">
<stop stop-color="#EEBA68"/>
<stop offset="1" stop-color="#AE7E37"/>
</linearGradient>
<linearGradient id="paint13_linear_898_3453" x1="102.286" y1="53.7879" x2="110.159" y2="53.7879" gradientUnits="userSpaceOnUse">
<stop stop-color="#EEBA68"/>
<stop offset="1" stop-color="#AE7E37"/>
</linearGradient>
<linearGradient id="paint14_linear_898_3453" x1="114.167" y1="55.6175" x2="120.322" y2="55.6175" gradientUnits="userSpaceOnUse">
<stop stop-color="#EEBA68"/>
<stop offset="1" stop-color="#AE7E37"/>
</linearGradient>
<linearGradient id="paint15_linear_898_3453" x1="121.09" y1="58.3311" x2="130.728" y2="58.3311" gradientUnits="userSpaceOnUse">
<stop stop-color="#EEBA68"/>
<stop offset="1" stop-color="#AE7E37"/>
</linearGradient>
<linearGradient id="paint16_linear_898_3453" x1="131.612" y1="61.9859" x2="140.127" y2="61.9859" gradientUnits="userSpaceOnUse">
<stop stop-color="#EEBA68"/>
<stop offset="1" stop-color="#AE7E37"/>
</linearGradient>
<linearGradient id="paint17_linear_898_3453" x1="136.91" y1="68.3934" x2="146.92" y2="68.3934" gradientUnits="userSpaceOnUse">
<stop stop-color="#EEBA68"/>
<stop offset="1" stop-color="#AE7E37"/>
</linearGradient>
<linearGradient id="paint18_linear_898_3453" x1="134.913" y1="101.397" x2="143.77" y2="101.397" gradientUnits="userSpaceOnUse">
<stop stop-color="#EEBA68"/>
<stop offset="1" stop-color="#AE7E37"/>
</linearGradient>
<linearGradient id="paint19_linear_898_3453" x1="145.518" y1="101.397" x2="154.378" y2="101.397" gradientUnits="userSpaceOnUse">
<stop stop-color="#EEBA68"/>
<stop offset="1" stop-color="#AE7E37"/>
</linearGradient>
<linearGradient id="paint20_linear_898_3453" x1="43.6696" y1="101.397" x2="52.5272" y2="101.397" gradientUnits="userSpaceOnUse">
<stop stop-color="#EEBA68"/>
<stop offset="1" stop-color="#AE7E37"/>
</linearGradient>
<linearGradient id="paint21_linear_898_3453" x1="54.2753" y1="101.397" x2="63.1351" y2="101.397" gradientUnits="userSpaceOnUse">
<stop stop-color="#EEBA68"/>
<stop offset="1" stop-color="#AE7E37"/>
</linearGradient>
<linearGradient id="paint22_linear_898_3453" x1="75.3292" y1="140.205" x2="86.0445" y2="140.205" gradientUnits="userSpaceOnUse">
<stop stop-color="#EEBA68"/>
<stop offset="1" stop-color="#AE7E37"/>
</linearGradient>
<linearGradient id="paint23_linear_898_3453" x1="87.3378" y1="140.307" x2="99.9152" y2="140.307" gradientUnits="userSpaceOnUse">
<stop stop-color="#EEBA68"/>
<stop offset="1" stop-color="#AE7E37"/>
</linearGradient>
<linearGradient id="paint24_linear_898_3453" x1="100.864" y1="140.205" x2="111.581" y2="140.205" gradientUnits="userSpaceOnUse">
<stop stop-color="#EEBA68"/>
<stop offset="1" stop-color="#AE7E37"/>
</linearGradient>
<linearGradient id="paint25_linear_898_3453" x1="112.874" y1="140.307" x2="125.449" y2="140.307" gradientUnits="userSpaceOnUse">
<stop stop-color="#EEBA68"/>
<stop offset="1" stop-color="#AE7E37"/>
</linearGradient>
</defs>
</svg>
