<svg width="200" height="200" viewBox="0 0 200 200" fill="none" xmlns="http://www.w3.org/2000/svg">
<mask id="path-1-outside-1_628_2511" maskUnits="userSpaceOnUse" x="44" y="16" width="113" height="169" fill="black">
<rect fill="white" x="44" y="16" width="113" height="169"/>
<path d="M89.3848 24.6045C95.1421 21.4798 105.152 21.0365 115.735 23.9863C119.218 24.9557 122.459 26.2081 125.356 27.6533C126.081 28.0143 126.783 28.3878 127.463 28.7715C127.667 28.887 127.87 29.0037 128.07 29.1211C133.951 32.5652 138.009 36.8064 139.174 40.8867C139.597 42.3661 139.641 43.8237 139.254 45.2139C139.219 45.3397 139.179 45.4638 139.138 45.5869L137.103 52.8945C136.253 55.9505 133.447 58.208 129.402 59.5303C130.554 63.2313 131.008 66.8809 130.998 70.248C130.999 70.3634 131.002 70.479 131.002 70.5947C131.002 70.8009 130.994 71.0278 130.983 71.2695C130.93 73.7601 130.764 75.4767 130.149 77.1504C130.742 77.5225 131.024 77.7531 131.028 77.7568C137.974 82.7277 143.253 89.3733 146.036 96.9785C146.575 97.0309 147.101 97.1379 147.601 97.2969C148.332 97.5298 148.979 97.8724 149.51 98.293C150.034 98.72 150.428 99.2183 150.661 99.7617C150.894 100.299 150.959 100.868 150.849 101.431L150.06 105.61C150.055 105.612 150.051 105.612 150.047 105.613L138.936 164.271C138.489 166.555 137.214 168.716 135.234 170.554C133.255 172.391 130.641 173.841 127.639 174.76H127.652C119.073 177.561 109.724 179.003 100.271 178.978C90.8125 178.952 81.4823 177.464 72.9355 174.617C70.0049 173.686 67.4625 172.243 65.541 170.425C63.6195 168.607 62.3967 166.477 61.9697 164.232L50.835 105.56C50.8337 105.559 50.8323 105.559 50.8311 105.559L50.0479 101.431C49.9574 100.938 49.9952 100.441 50.1621 99.9648C50.1853 99.8962 50.211 99.8276 50.2393 99.7598C50.3848 99.4202 50.5934 99.0981 50.8574 98.8018C51.0156 98.6231 51.1947 98.453 51.3936 98.293C51.924 97.8725 52.5708 97.5298 53.3018 97.2969C53.9675 97.0848 54.682 96.9642 55.4102 96.9443C58.1969 89.3572 63.4691 82.7261 70.3984 77.7637C70.3984 77.7637 70.4098 74.8107 70.417 72.4834C67.0549 71.6391 63.4733 69.3013 63.2246 66.8818C62.8946 63.6728 68.3488 59.3892 72.1143 59.001C72.1491 58.9974 72.184 58.9944 72.2188 58.9912C74.312 52.537 78.1229 47.1296 83.0371 43.3213C82.205 41.3959 81.9823 39.484 82.4834 37.6836L84.625 29.9971C85.2511 27.7496 86.9326 25.9338 89.3848 24.6045Z"/>
</mask>
<path d="M89.3848 24.6045C95.1421 21.4798 105.152 21.0365 115.735 23.9863C119.218 24.9557 122.459 26.2081 125.356 27.6533C126.081 28.0143 126.783 28.3878 127.463 28.7715C127.667 28.887 127.87 29.0037 128.07 29.1211C133.951 32.5652 138.009 36.8064 139.174 40.8867C139.597 42.3661 139.641 43.8237 139.254 45.2139C139.219 45.3397 139.179 45.4638 139.138 45.5869L137.103 52.8945C136.253 55.9505 133.447 58.208 129.402 59.5303C130.554 63.2313 131.008 66.8809 130.998 70.248C130.999 70.3634 131.002 70.479 131.002 70.5947C131.002 70.8009 130.994 71.0278 130.983 71.2695C130.93 73.7601 130.764 75.4767 130.149 77.1504C130.742 77.5225 131.024 77.7531 131.028 77.7568C137.974 82.7277 143.253 89.3733 146.036 96.9785C146.575 97.0309 147.101 97.1379 147.601 97.2969C148.332 97.5298 148.979 97.8724 149.51 98.293C150.034 98.72 150.428 99.2183 150.661 99.7617C150.894 100.299 150.959 100.868 150.849 101.431L150.06 105.61C150.055 105.612 150.051 105.612 150.047 105.613L138.936 164.271C138.489 166.555 137.214 168.716 135.234 170.554C133.255 172.391 130.641 173.841 127.639 174.76H127.652C119.073 177.561 109.724 179.003 100.271 178.978C90.8125 178.952 81.4823 177.464 72.9355 174.617C70.0049 173.686 67.4625 172.243 65.541 170.425C63.6195 168.607 62.3967 166.477 61.9697 164.232L50.835 105.56C50.8337 105.559 50.8323 105.559 50.8311 105.559L50.0479 101.431C49.9574 100.938 49.9952 100.441 50.1621 99.9648C50.1853 99.8962 50.211 99.8276 50.2393 99.7598C50.3848 99.4202 50.5934 99.0981 50.8574 98.8018C51.0156 98.6231 51.1947 98.453 51.3936 98.293C51.924 97.8725 52.5708 97.5298 53.3018 97.2969C53.9675 97.0848 54.682 96.9642 55.4102 96.9443C58.1969 89.3572 63.4691 82.7261 70.3984 77.7637C70.3984 77.7637 70.4098 74.8107 70.417 72.4834C67.0549 71.6391 63.4733 69.3013 63.2246 66.8818C62.8946 63.6728 68.3488 59.3892 72.1143 59.001C72.1491 58.9974 72.184 58.9944 72.2188 58.9912C74.312 52.537 78.1229 47.1296 83.0371 43.3213C82.205 41.3959 81.9823 39.484 82.4834 37.6836L84.625 29.9971C85.2511 27.7496 86.9326 25.9338 89.3848 24.6045Z" fill="#8CA4B8"/>
<path d="M89.3848 24.6045L92.2443 29.8793L92.2469 29.8779L89.3848 24.6045ZM115.735 23.9863L114.124 29.766L114.127 29.7667L115.735 23.9863ZM125.356 27.6533L122.679 33.0226L122.679 33.0229L125.356 27.6533ZM127.463 28.7715L130.413 23.5468L130.412 23.5463L127.463 28.7715ZM128.07 29.1211L125.037 34.2979L125.038 34.2985L128.07 29.1211ZM139.174 40.8867L133.404 42.5343L133.406 42.5382L139.174 40.8867ZM139.254 45.2139L145.034 46.8241L145.034 46.8241L139.254 45.2139ZM139.138 45.5869L133.454 43.6652L133.401 43.8199L133.358 43.9772L139.138 45.5869ZM137.103 52.8945L131.323 51.2848L131.322 51.2873L137.103 52.8945ZM129.402 59.5303L127.538 53.8273L121.916 55.6655L123.673 61.3132L129.402 59.5303ZM130.998 70.248L124.998 70.2308L124.998 70.2653L124.998 70.2997L130.998 70.248ZM131.002 70.5947L137.002 70.5947L137.002 70.5947L131.002 70.5947ZM130.983 71.2695L124.99 70.9946L124.986 71.0682L124.985 71.1418L130.983 71.2695ZM130.149 77.1504L124.517 75.0834L122.842 79.6469L126.959 82.2318L130.149 77.1504ZM131.028 77.7568L127.212 82.3865L127.37 82.5168L127.536 82.636L131.028 77.7568ZM146.036 96.9785L140.402 99.0408L141.699 102.586L145.456 102.95L146.036 96.9785ZM147.601 97.2969L149.422 91.58L149.422 91.5799L147.601 97.2969ZM149.51 98.293L153.3 93.6416L153.269 93.6161L153.237 93.591L149.51 98.293ZM150.661 99.7617L145.146 102.125L145.151 102.137L145.157 102.149L150.661 99.7617ZM150.849 101.431L144.96 100.28L144.956 100.299L144.953 100.318L150.849 101.431ZM150.06 105.61L151.747 111.368L155.274 110.335L155.955 106.723L150.06 105.61ZM150.047 105.613L148.36 99.8553L144.835 100.888L144.152 104.497L150.047 105.613ZM138.936 164.271L144.824 165.423L144.827 165.405L144.831 165.388L138.936 164.271ZM135.234 170.554L139.316 174.952L139.316 174.951L135.234 170.554ZM127.639 174.76L125.883 169.022L127.639 180.76V174.76ZM127.652 174.76L129.515 180.463L127.652 168.76V174.76ZM100.271 178.978L100.255 184.978L100.255 184.978L100.271 178.978ZM72.9355 174.617L74.8316 168.925L74.7925 168.912L74.7533 168.899L72.9355 174.617ZM65.541 170.425L61.4174 174.783L61.4175 174.783L65.541 170.425ZM61.9697 164.232L56.0749 165.351L56.0754 165.354L61.9697 164.232ZM50.835 105.56L56.7297 104.441L56.0294 100.75L52.4035 99.7682L50.835 105.56ZM50.8311 105.559L44.9362 106.677L45.6365 110.368L49.2624 111.35L50.8311 105.559ZM50.0479 101.431L44.1467 102.515L44.1498 102.532L44.153 102.549L50.0479 101.431ZM50.1621 99.9648L55.8246 101.949L55.8351 101.919L55.8453 101.889L50.1621 99.9648ZM50.2393 99.7598L44.7246 97.3958L44.7125 97.4239L44.7008 97.4521L50.2393 99.7598ZM50.8574 98.8018L55.3375 102.793L55.3438 102.786L55.3501 102.779L50.8574 98.8018ZM51.3936 98.293L47.6665 93.5909L47.6489 93.6049L47.6315 93.6189L51.3936 98.293ZM53.3018 97.2969L51.4804 91.58L51.4801 91.5801L53.3018 97.2969ZM55.4102 96.9443L55.5741 102.942L59.6399 102.831L61.0423 99.013L55.4102 96.9443ZM70.3984 77.7637L73.8919 82.6418L76.3865 80.8552L76.3984 77.7868L70.3984 77.7637ZM70.417 72.4834L76.417 72.5018L76.4314 67.8074L71.8783 66.6641L70.417 72.4834ZM63.2246 66.8818L69.1932 66.2683L69.1931 66.2681L63.2246 66.8818ZM72.1143 59.001L71.4992 53.0326L71.499 53.0326L72.1143 59.001ZM72.2188 58.9912L72.7718 64.9657L76.7069 64.6014L77.9261 60.8423L72.2188 58.9912ZM83.0371 43.3213L86.7124 48.0639L90.3911 45.2131L88.5448 40.941L83.0371 43.3213ZM82.4834 37.6836L76.7035 36.0732L76.7031 36.0748L82.4834 37.6836ZM84.625 29.9971L90.4049 31.6074L90.4049 31.6073L84.625 29.9971ZM89.3848 24.6045L92.2469 29.8779C96.0678 27.804 104.276 27.0211 114.124 29.766L115.735 23.9863L117.346 18.2066C106.028 15.052 94.2163 15.1555 86.5227 19.3311L89.3848 24.6045ZM115.735 23.9863L114.127 29.7667C117.254 30.6371 120.135 31.7542 122.679 33.0226L125.356 27.6533L128.034 22.2841C124.782 20.6619 121.182 19.2743 117.344 18.206L115.735 23.9863ZM125.356 27.6533L122.679 33.0229C123.312 33.3382 123.923 33.6635 124.514 33.9967L127.463 28.7715L130.412 23.5463C129.643 23.112 128.849 22.6904 128.034 22.2837L125.356 27.6533ZM127.463 28.7715L124.513 33.9961C124.687 34.0944 124.861 34.195 125.037 34.2979L128.07 29.1211L131.103 23.9442C130.878 23.8123 130.648 23.6796 130.413 23.5468L127.463 28.7715ZM128.07 29.1211L125.038 34.2985C130.409 37.4442 132.868 40.6551 133.404 42.5343L139.174 40.8867L144.943 39.2391C143.149 32.9578 137.493 27.6863 131.103 23.9437L128.07 29.1211ZM139.174 40.8867L133.406 42.5382C133.566 43.0993 133.525 43.4193 133.474 43.6036L139.254 45.2139L145.034 46.8241C145.757 44.2282 145.629 41.6328 144.942 39.2352L139.174 40.8867ZM139.254 45.2139L133.474 43.6036C133.476 43.5964 133.476 43.5972 133.473 43.6077C133.469 43.6185 133.463 43.6367 133.454 43.6652L139.138 45.5869L144.822 47.5086C144.885 47.3214 144.96 47.0878 145.034 46.8241L139.254 45.2139ZM139.138 45.5869L133.358 43.9772L131.323 51.2848L137.103 52.8945L142.883 54.5043L144.918 47.1966L139.138 45.5869ZM137.103 52.8945L131.322 51.2873C131.241 51.5796 130.67 52.8032 127.538 53.8273L129.402 59.5303L131.267 65.2332C136.223 63.6128 141.265 60.3213 142.883 54.5017L137.103 52.8945ZM129.402 59.5303L123.673 61.3132C124.626 64.3731 125.006 67.4098 124.998 70.2308L130.998 70.248L136.998 70.2653C137.009 66.3521 136.483 62.0895 135.131 57.7473L129.402 59.5303ZM130.998 70.248L124.998 70.2997C125.001 70.5829 125.002 70.4783 125.002 70.5947L131.002 70.5947L137.002 70.5947C137.002 70.4902 137.001 70.3955 137 70.3327C136.999 70.2574 136.998 70.2298 136.998 70.1964L130.998 70.248ZM131.002 70.5947H125.002C125.002 70.6679 124.999 70.7909 124.99 70.9946L130.983 71.2695L136.977 71.5445C136.99 71.2647 137.002 70.9339 137.002 70.5947H131.002ZM130.983 71.2695L124.985 71.1418C124.935 73.4951 124.773 74.3837 124.517 75.0834L130.149 77.1504L135.782 79.2174C136.754 76.5698 136.926 74.0251 136.982 71.3972L130.983 71.2695ZM130.149 77.1504L126.959 82.2318C127.145 82.3487 127.257 82.4276 127.3 82.4582C127.321 82.4736 127.325 82.4769 127.312 82.4668C127.305 82.4618 127.295 82.4534 127.28 82.4415C127.268 82.4324 127.245 82.4136 127.212 82.3865L131.028 77.7568L134.845 73.1272C134.64 72.9583 134.149 72.5771 133.34 72.069L130.149 77.1504ZM131.028 77.7568L127.536 82.636C133.604 86.9786 138.074 92.6824 140.402 99.0408L146.036 96.9785L151.671 94.9162C148.431 86.0643 142.344 78.4767 134.52 72.8777L131.028 77.7568ZM146.036 96.9785L145.456 102.95C145.589 102.963 145.698 102.988 145.78 103.014L147.601 97.2969L149.422 91.5799C148.505 91.2878 147.562 91.0984 146.616 91.0066L146.036 96.9785ZM147.601 97.2969L145.779 103.014C145.801 103.021 145.817 103.027 145.829 103.032C145.84 103.037 145.846 103.04 145.847 103.04C145.848 103.04 145.843 103.038 145.832 103.031C145.821 103.024 145.805 103.012 145.783 102.995L149.51 98.293L153.237 93.591C152.094 92.6851 150.789 92.0156 149.422 91.58L147.601 97.2969ZM149.51 98.293L145.72 102.944C145.626 102.868 145.358 102.618 145.146 102.125L150.661 99.7617L156.176 97.3981C155.499 95.8183 154.442 94.5721 153.3 93.6416L149.51 98.293ZM150.661 99.7617L145.157 102.149C144.92 101.604 144.831 100.941 144.96 100.28L150.849 101.431L156.737 102.581C157.086 100.795 156.868 98.9938 156.166 97.3742L150.661 99.7617ZM150.849 101.431L144.953 100.318L144.164 104.497L150.06 105.61L155.955 106.723L156.744 102.544L150.849 101.431ZM150.06 105.61L148.372 99.8525C148.456 99.828 148.53 99.8082 148.593 99.7924C148.655 99.7767 148.709 99.7644 148.75 99.7552C148.77 99.7506 148.789 99.7466 148.804 99.7433C148.82 99.74 148.833 99.7372 148.843 99.7352C148.853 99.7331 148.861 99.7315 148.866 99.7305C148.87 99.7296 148.874 99.7289 148.873 99.7291C148.873 99.7291 148.872 99.7292 148.872 99.7292C148.872 99.7293 148.871 99.7294 148.87 99.7296C148.869 99.7298 148.867 99.7303 148.864 99.7308C148.859 99.7319 148.85 99.7337 148.839 99.7359C148.829 99.7381 148.815 99.7409 148.799 99.7443C148.783 99.7477 148.764 99.7518 148.743 99.7566C148.701 99.766 148.646 99.7786 148.583 99.7946C148.52 99.8105 148.444 99.8306 148.36 99.8553L150.047 105.613L151.734 111.371C151.65 111.396 151.576 111.415 151.514 111.431C151.452 111.447 151.398 111.459 151.357 111.468C151.336 111.473 151.318 111.477 151.303 111.48C151.287 111.484 151.274 111.486 151.264 111.488C151.254 111.49 151.246 111.492 151.241 111.493C151.236 111.494 151.233 111.495 151.234 111.495C151.234 111.495 151.234 111.494 151.234 111.494C151.235 111.494 151.235 111.494 151.236 111.494C151.237 111.494 151.24 111.493 151.242 111.493C151.248 111.492 151.256 111.49 151.267 111.488C151.277 111.486 151.291 111.483 151.307 111.479C151.323 111.476 151.342 111.472 151.363 111.467C151.405 111.458 151.46 111.445 151.523 111.429C151.587 111.413 151.662 111.393 151.747 111.368L150.06 105.61ZM150.047 105.613L144.152 104.497L133.04 163.155L138.936 164.271L144.831 165.388L155.942 106.73L150.047 105.613ZM138.936 164.271L133.047 163.12C132.883 163.962 132.36 165.035 131.153 166.156L135.234 170.554L139.316 174.951C142.068 172.397 144.096 169.149 144.824 165.423L138.936 164.271ZM135.234 170.554L131.153 166.156C129.934 167.287 128.154 168.327 125.883 169.022L127.639 174.76L129.394 180.497C133.127 179.355 136.575 177.495 139.316 174.952L135.234 170.554ZM127.639 174.76V180.76H127.652V174.76V168.76H127.639V174.76ZM127.652 174.76L125.79 169.056C117.844 171.651 109.131 173.002 100.288 172.978L100.271 178.978L100.255 184.978C110.316 185.005 120.302 183.472 129.515 180.463L127.652 174.76ZM100.271 178.978L100.288 172.978C91.4353 172.953 82.7421 171.559 74.8316 168.925L72.9355 174.617L71.0395 180.31C80.2225 183.368 90.1897 184.95 100.255 184.978L100.271 178.978ZM72.9355 174.617L74.7533 168.899C72.5471 168.198 70.8327 167.172 69.6645 166.066L65.541 170.425L61.4175 174.783C64.0922 177.314 67.4628 179.173 71.1178 180.335L72.9355 174.617ZM65.541 170.425L69.6646 166.066C68.5189 164.982 68.022 163.942 67.8641 163.111L61.9697 164.232L56.0754 165.354C56.7715 169.013 58.72 172.231 61.4174 174.783L65.541 170.425ZM61.9697 164.232L67.8645 163.114L56.7297 104.441L50.835 105.56L44.9402 106.678L56.0749 165.351L61.9697 164.232ZM50.835 105.56L52.4035 99.7682C52.3752 99.7606 52.35 99.754 52.3287 99.7485C52.3074 99.743 52.2892 99.7384 52.275 99.7349C52.2609 99.7314 52.2495 99.7287 52.2425 99.727C52.2389 99.7261 52.236 99.7254 52.2342 99.725C52.2333 99.7248 52.2326 99.7246 52.2321 99.7245C52.2319 99.7244 52.2317 99.7244 52.2316 99.7244C52.2314 99.7243 52.2313 99.7243 52.2313 99.7243C52.231 99.7242 52.2323 99.7245 52.2338 99.7249C52.2354 99.7253 52.2381 99.7259 52.2415 99.7268C52.2482 99.7284 52.2593 99.7311 52.273 99.7345C52.2869 99.7379 52.3049 99.7424 52.3258 99.7478C52.3468 99.7532 52.3717 99.7597 52.3998 99.7673L50.8311 105.559L49.2624 111.35C49.2907 111.358 49.3159 111.364 49.3372 111.37C49.3585 111.375 49.3768 111.38 49.391 111.383C49.4051 111.387 49.4165 111.389 49.4235 111.391C49.4271 111.392 49.43 111.393 49.4318 111.393C49.4327 111.393 49.4334 111.394 49.4339 111.394C49.4341 111.394 49.4343 111.394 49.4345 111.394C49.4346 111.394 49.4347 111.394 49.4347 111.394C49.435 111.394 49.4337 111.394 49.4323 111.393C49.4306 111.393 49.4279 111.392 49.4245 111.391C49.4178 111.39 49.4067 111.387 49.393 111.384C49.3791 111.38 49.3612 111.376 49.3403 111.37C49.3193 111.365 49.2944 111.358 49.2664 111.351L50.835 105.56ZM50.8311 105.559L56.7259 104.44L55.9427 100.312L50.0479 101.431L44.153 102.549L44.9362 106.677L50.8311 105.559ZM50.0479 101.431L55.949 100.346C56.0467 100.878 56.0035 101.438 55.8246 101.949L50.1621 99.9648L44.4997 97.9807C43.987 99.4439 43.868 100.999 44.1467 102.515L50.0479 101.431ZM50.1621 99.9648L55.8453 101.889C55.8281 101.94 55.806 102 55.7777 102.067L50.2393 99.7598L44.7008 97.4521C44.616 97.6556 44.5426 97.8529 44.4789 98.0411L50.1621 99.9648ZM50.2393 99.7598L55.7539 102.124C55.6224 102.431 55.4647 102.65 55.3375 102.793L50.8574 98.8018L46.3773 94.8107C45.7222 95.5461 45.1472 96.4098 44.7246 97.3958L50.2393 99.7598ZM50.8574 98.8018L55.3501 102.779C55.2708 102.868 55.2025 102.929 55.1556 102.967L51.3936 98.293L47.6315 93.6189C47.1869 93.9768 46.7604 94.3778 46.3647 94.8248L50.8574 98.8018ZM51.3936 98.293L55.1206 102.995C55.0991 103.012 55.0827 103.023 55.0723 103.03C55.0618 103.037 55.0566 103.04 55.0573 103.039C55.0579 103.039 55.0637 103.036 55.0749 103.031C55.0862 103.027 55.1023 103.02 55.1234 103.014L53.3018 97.2969L51.4801 91.5801C50.1108 92.0164 48.8074 92.6866 47.6665 93.5909L51.3936 98.293ZM53.3018 97.2969L55.1231 103.014C55.2383 102.977 55.3939 102.947 55.5741 102.942L55.4102 96.9443L55.2462 90.9466C53.97 90.9815 52.6968 91.1925 51.4804 91.58L53.3018 97.2969ZM55.4102 96.9443L61.0423 99.013C63.3723 92.6693 67.8377 86.9774 73.8919 82.6418L70.3984 77.7637L66.905 72.8856C59.1004 78.4748 53.0215 86.045 49.7781 94.8757L55.4102 96.9443ZM70.3984 77.7637C76.3984 77.7868 76.3984 77.7868 76.3984 77.7868C76.3984 77.7868 76.3984 77.7867 76.3984 77.7867C76.3984 77.7866 76.3984 77.7865 76.3984 77.7863C76.3984 77.7859 76.3984 77.7854 76.3984 77.7847C76.3984 77.7832 76.3984 77.7811 76.3984 77.7782C76.3984 77.7726 76.3985 77.7641 76.3985 77.753C76.3986 77.7307 76.3987 77.6978 76.3989 77.6552C76.3992 77.5698 76.3997 77.4452 76.4003 77.2885C76.4015 76.9751 76.4031 76.533 76.405 76.0181C76.4087 74.9885 76.4134 73.6672 76.417 72.5018L70.417 72.4834L64.417 72.465C64.4134 73.6269 64.4088 74.9457 64.4051 75.9744C64.4032 76.4887 64.4016 76.9303 64.4004 77.2433C64.3998 77.3998 64.3993 77.5241 64.399 77.6093C64.3988 77.6519 64.3987 77.6847 64.3986 77.7069C64.3986 77.718 64.3985 77.7264 64.3985 77.732C64.3985 77.7348 64.3985 77.737 64.3985 77.7384C64.3985 77.7391 64.3985 77.7396 64.3985 77.74C64.3985 77.7402 64.3985 77.7403 64.3985 77.7404C64.3985 77.7404 64.3985 77.7405 64.3985 77.7405C64.3985 77.7405 64.3985 77.7405 70.3984 77.7637ZM70.417 72.4834L71.8783 66.6641C70.8946 66.4171 69.8834 65.9374 69.2127 65.4431C68.8869 65.2031 68.7848 65.0646 68.8054 65.0924C68.8199 65.1121 69.1154 65.5115 69.1932 66.2683L63.2246 66.8818L57.2561 67.4954C57.6443 71.2719 60.3209 73.797 62.0938 75.1035C64.1167 76.5941 66.5772 77.7055 68.9557 78.3027L70.417 72.4834ZM63.2246 66.8818L69.1931 66.2681C69.2943 67.2519 68.9226 67.7128 69.0676 67.475C69.1757 67.2977 69.4703 66.921 70.0144 66.4596C70.5398 66.014 71.1473 65.6178 71.7255 65.3352C72.0085 65.1968 72.2518 65.1017 72.443 65.0414C72.6391 64.9795 72.7338 64.9689 72.7296 64.9693L72.1143 59.001L71.499 53.0326C68.018 53.3915 64.6117 55.3072 62.2529 57.3076C61.004 58.3667 59.7616 59.6868 58.8222 61.2275C57.9197 62.7075 56.9899 64.9072 57.2561 67.4955L63.2246 66.8818ZM72.1143 59.001L72.7293 64.9694C72.7202 64.9703 72.7137 64.9709 72.711 64.9712C72.7084 64.9714 72.7081 64.9715 72.7119 64.9711C72.7168 64.9707 72.7209 64.9703 72.7322 64.9693C72.7416 64.9684 72.756 64.9671 72.7718 64.9657L72.2188 58.9912L71.6657 53.0168C71.6474 53.0184 71.6653 53.0168 71.6211 53.0208C71.5951 53.0232 71.5509 53.0273 71.4992 53.0326L72.1143 59.001ZM72.2188 58.9912L77.9261 60.8423C79.6629 55.4872 82.7887 51.1046 86.7124 48.0639L83.0371 43.3213L79.3618 38.5787C73.4571 43.1546 68.9612 49.5868 66.5114 57.1402L72.2188 58.9912ZM83.0371 43.3213L88.5448 40.941C88.1361 39.9955 88.2046 39.5048 88.2637 39.2923L82.4834 37.6836L76.7031 36.0748C75.76 39.4633 76.2738 42.7963 77.5295 45.7016L83.0371 43.3213ZM82.4834 37.6836L88.2633 39.294L90.4049 31.6074L84.625 29.9971L78.8451 28.3867L76.7035 36.0732L82.4834 37.6836ZM84.625 29.9971L90.4049 31.6073C90.4718 31.3671 90.7629 30.6823 92.2443 29.8793L89.3848 24.6045L86.5253 19.3297C83.1024 21.1853 80.0305 24.1321 78.8451 28.3868L84.625 29.9971Z" fill="white" mask="url(#path-1-outside-1_628_2511)"/>
<path d="M113.217 118.743V150.97C113.217 152.587 111.89 153.913 110.273 153.913H100.037C97.8959 153.913 96.1426 152.16 96.1426 150.019C96.1426 148.951 96.5825 147.974 97.2877 147.269C97.993 146.564 98.9635 146.124 100.037 146.124L107.135 147.592V118.749C107.135 117.132 108.461 115.806 110.079 115.806H110.279C111.897 115.806 113.223 117.132 113.223 118.749L113.217 118.743Z" fill="#474747"/>
<path d="M86.3436 118.743V150.97C86.3436 152.587 85.0173 153.913 83.3998 153.913H73.1644C71.0229 153.913 69.2695 152.16 69.2695 150.019C69.2695 148.951 69.7095 147.974 70.4147 147.269C71.1199 146.564 72.0904 146.124 73.1644 146.124L80.2619 147.592V118.749C80.2619 117.132 81.5882 115.806 83.2057 115.806H83.4063C85.0238 115.806 86.3501 117.132 86.3501 118.749L86.3436 118.743Z" fill="#474747"/>
<path d="M148.225 109.363C148.225 117.463 145.508 124.677 140.811 130.597C132.633 140.916 118.464 147.315 102.244 147.69C101.733 147.703 101.221 147.71 100.71 147.71C100.199 147.71 99.6881 147.71 99.1769 147.69C82.9569 147.315 68.7943 140.916 60.6098 130.603C60.6098 130.603 60.6098 130.603 60.6098 130.597C55.9191 124.677 53.1953 117.469 53.1953 109.363C53.1953 96.6492 59.8917 85.2881 70.3988 77.7636C70.3988 77.7636 70.4247 72.6782 70.4247 70.5949C70.4247 51.4893 83.9856 37.249 100.717 37.249C117.448 37.249 131.002 51.4893 131.002 70.5949C131.002 72.6718 130.394 76.8513 130.097 77.1166C130.731 77.5113 131.028 77.7571 131.028 77.7571C141.542 85.2816 148.238 96.6428 148.238 109.363H148.225Z" fill="#4D8DCB"/>
<path d="M91.2482 68.6356C94.993 68.6356 98.0287 65.5999 98.0287 61.8552C98.0287 58.1104 94.993 55.0747 91.2482 55.0747C87.5035 55.0747 84.4678 58.1104 84.4678 61.8552C84.4678 65.5999 87.5035 68.6356 91.2482 68.6356Z" fill="white"/>
<path d="M73.5373 72.782C69.7718 73.1702 63.5542 70.097 63.2243 66.8815C62.8943 63.6724 68.3484 59.3893 72.1139 59.0011C75.8794 58.6129 79.1532 60.3986 79.6449 65.1864C80.1366 69.9741 77.3028 72.3938 73.5373 72.782Z" fill="#DDB61E"/>
<path opacity="0.5" d="M108.281 38.2583C108.281 38.2583 116.944 48.6554 119.287 54.776C122.082 62.087 122.14 69.0098 121.603 72.2253C120.386 79.5234 117.197 84.3046 117.197 84.3046C117.197 84.3046 127.827 76.7737 130.137 77.1877C130.816 75.3567 130.958 73.4805 130.997 70.6014C131.081 63.8727 129.328 55.9664 123.822 48.7719C121.629 45.9057 116.375 40.3287 108.281 38.2648V38.2583Z" fill="#2A5D82"/>
<path opacity="0.5" d="M117.198 84.2991C117.198 84.2991 132.247 108.296 124.781 122.827C119.637 132.843 112.158 138.388 97.2705 147.407C137.52 149.969 168.304 105.009 130.131 77.1887C127.543 76.5417 117.191 84.3056 117.191 84.3056L117.198 84.2991Z" fill="#2A5D82"/>
<path opacity="0.5" d="M77.7359 60.6963C77.7359 60.6963 77.3801 62.6179 76.8431 64.7335C76.2608 67.0174 74.5786 68.5637 72.987 69.0619C70.9037 69.7153 69.4933 70.2717 66.2842 70.7052C68.8916 72.3033 71.6219 72.9568 73.5369 72.7821C77.6065 72.4133 79.2758 69.9547 79.5992 67.5803C80.2462 62.9284 77.7359 60.6963 77.7359 60.6963Z" fill="#987D26"/>
<path d="M91.2446 65.4707C93.242 65.4707 94.8613 63.8514 94.8613 61.854C94.8613 59.8565 93.242 58.2373 91.2446 58.2373C89.2472 58.2373 87.6279 59.8565 87.6279 61.854C87.6279 63.8514 89.2472 65.4707 91.2446 65.4707Z" fill="#040000"/>
<path d="M127.652 174.759C119.073 177.561 109.724 179.004 100.271 178.978C90.8123 178.952 81.4827 177.464 72.9359 174.617C70.0051 173.685 67.4624 172.243 65.5408 170.425C63.6193 168.606 62.3965 166.478 61.9694 164.233L50.0519 101.429C49.9484 100.873 50.0131 100.304 50.2395 99.7602C50.4724 99.2167 50.8671 98.7186 51.3911 98.298C51.9217 97.871 52.5687 97.5346 53.2998 97.3016C54.0309 97.0687 54.8202 96.9458 55.6225 96.9458C55.6225 96.9458 79.2247 103.856 101.514 103.856C123.802 103.856 145.269 96.9458 145.269 96.9458C146.072 96.9458 146.861 97.0687 147.592 97.3016C148.323 97.5346 148.97 97.8775 149.501 98.298C150.031 98.725 150.42 99.2232 150.652 99.7602C150.885 100.304 150.95 100.867 150.84 101.429L138.935 164.272C138.489 166.556 137.214 168.716 135.235 170.554C133.255 172.391 130.641 173.841 127.639 174.759H127.652Z" fill="#C0DCEB"/>
<path d="M150.849 101.431L150.06 105.611C144.01 107.383 123.177 112.999 101.678 112.999C80.1781 112.999 57.1841 107.28 50.8306 105.559L50.0478 101.431C49.9443 100.868 50.009 100.299 50.2419 99.7618C50.4748 99.2183 50.863 98.7201 51.3935 98.2931C51.9241 97.8726 52.571 97.5297 53.3021 97.2968C54.0332 97.0638 54.8226 96.9409 55.6248 96.9409C55.6248 96.9409 79.2271 103.857 101.516 103.857C123.805 103.857 145.278 96.9409 145.278 96.9409C146.081 96.9409 146.87 97.0638 147.601 97.2968C148.332 97.5297 148.979 97.8726 149.51 98.2931C150.034 98.7201 150.428 99.2183 150.661 99.7618C150.894 100.299 150.959 100.868 150.849 101.431Z" fill="#8CA4B8"/>
<path d="M139.244 45.2144C141.34 37.6834 130.807 28.192 115.726 23.9931C100.645 19.7876 86.7213 22.4726 84.6251 29.9971L82.4835 37.6834C80.3873 45.2144 90.9203 54.7057 106.002 58.9047C121.083 63.1036 135.013 60.4122 137.103 52.8941L139.244 45.2079V45.2144Z" fill="#C0DCEB"/>
<path d="M108.146 51.2309C123.228 55.4299 137.157 52.7384 139.254 45.2139C141.35 37.6894 130.823 28.1851 115.736 23.9861C100.648 19.7807 86.7245 22.4722 84.6282 29.9967C82.532 37.5212 93.0585 47.0255 108.146 51.2244V51.2309Z" fill="#DAEDF7"/>
<path d="M114.66 27.8293C128.435 31.666 138.372 39.9151 138.411 47.0449C138.774 46.4756 139.058 45.8545 139.252 45.2075C141.349 37.6765 130.816 28.1851 115.734 23.9862C100.646 19.7872 86.7231 22.4722 84.6269 29.9967C84.4587 30.6502 84.381 31.3295 84.394 32.0024C88.1142 25.9142 100.879 23.9926 114.66 27.8293Z" fill="#E8F4FA"/>
<path d="M122.715 41.4349C121.518 41.3314 120.353 41.0143 119.266 40.4967C118.956 40.3415 118.71 40.0827 118.574 39.7656C118.438 39.4486 118.412 39.0928 118.509 38.7563L119.111 36.5889C119.214 36.2072 119.169 35.7996 118.975 35.4502C118.781 35.1073 118.457 34.8485 118.076 34.745L108.714 32.1376C108.332 32.0341 107.924 32.0794 107.575 32.2735C107.232 32.4676 106.973 32.7911 106.87 33.1728L106.242 35.4373C106.158 35.7543 105.977 36.0325 105.718 36.2266C105.459 36.4272 105.149 36.5372 104.819 36.5372C103.518 36.5113 102.244 36.1878 101.092 35.5926C100.808 35.4243 100.594 35.1655 100.471 34.8615C100.355 34.5574 100.335 34.2209 100.432 33.9039L101.487 30.1125C101.914 28.5792 102.936 27.2787 104.321 26.4959C105.705 25.713 107.349 25.5124 108.882 25.9395L121.136 29.3491C122.669 29.7761 123.963 30.7984 124.746 32.1829C125.529 33.5675 125.723 35.2108 125.296 36.7442L124.3 40.3285C124.203 40.665 123.996 40.9626 123.705 41.1631C123.413 41.3637 123.064 41.4608 122.715 41.4284V41.4349Z" fill="#C0DCEB"/>
<path d="M121.123 29.3569L108.869 25.9473C107.336 25.5203 105.692 25.7208 104.308 26.5037C102.923 27.2865 101.901 28.587 101.474 30.1204L100.717 32.8442C101.144 31.3108 102.166 30.0104 103.551 29.2275C104.935 28.4446 106.579 28.2441 108.112 28.6711L120.366 32.0807C121.899 32.5078 123.2 33.53 123.983 34.921C124.765 36.3121 124.96 37.9489 124.533 39.4823L125.29 36.7585C125.717 35.2251 125.522 33.5818 124.74 32.1972C123.957 30.8062 122.656 29.7904 121.123 29.3569Z" fill="#E8F4FA"/>
<path d="M84.8735 160.403C83.4243 160.403 82.0332 160.001 80.9916 159.296C79.9499 158.591 79.3288 157.627 79.2706 156.611L77.569 129.049C77.5366 128.532 77.6466 128.008 77.899 127.522C78.1513 127.031 78.5395 126.584 79.0377 126.203C79.5358 125.821 80.1375 125.51 80.8104 125.29C81.4833 125.07 82.2079 124.947 82.9455 124.922C83.6831 124.896 84.4206 124.98 85.1194 125.155C85.8117 125.329 86.4522 125.607 86.9956 125.957C87.5391 126.306 87.9855 126.733 88.2961 127.205C88.6067 127.678 88.7878 128.189 88.8202 128.706L90.5153 156.275C90.5476 156.792 90.4376 157.316 90.1853 157.808C89.933 158.3 89.5448 158.746 89.0466 159.134C88.5484 159.516 87.9403 159.827 87.2739 160.047C86.601 160.267 85.8764 160.39 85.1388 160.416H84.8865L84.8735 160.403Z" fill="#ADC4D9"/>
<path d="M77.5617 129.049L79.2568 156.617C79.3215 157.633 79.9362 158.597 80.9778 159.302C82.0195 160.007 83.4105 160.402 84.8598 160.409H85.1121C86.0438 160.383 86.9431 160.189 87.7454 159.859L87.1695 159.917C86.322 159.593 85.6038 159.121 85.0862 158.545C84.5686 157.969 84.2775 157.31 84.2322 156.63L82.55 129.055C82.5047 128.318 82.7571 127.587 83.2747 126.946C83.7923 126.306 84.5557 125.775 85.4809 125.426L85.9597 125.445C85.0862 125.089 84.0963 124.908 83.087 124.915C82.0777 124.921 81.0943 125.122 80.2338 125.491C79.3733 125.859 78.6681 126.39 78.1958 127.017C77.7235 127.645 77.5035 128.35 77.5553 129.062H77.5682L77.5617 129.049Z" fill="#8CA4B8"/>
<path d="M113.798 160.384C112.355 160.293 111.015 159.808 110.064 159.038C109.113 158.268 108.622 157.272 108.686 156.25L110.537 128.681C110.64 127.646 111.313 126.689 112.413 125.996C113.513 125.311 114.949 124.948 116.418 125C117.887 125.052 119.271 125.498 120.267 126.255C121.27 127.012 121.807 128.015 121.775 129.05L119.925 156.618C119.892 157.136 119.711 157.647 119.4 158.119C119.083 158.592 118.644 159.012 118.094 159.368C117.544 159.718 116.91 159.989 116.211 160.17C115.512 160.345 114.775 160.423 114.037 160.403L113.798 160.384Z" fill="#ADC4D9"/>
<path d="M110.538 128.682L108.687 156.251C108.616 157.273 109.114 158.269 110.065 159.039C111.017 159.809 112.356 160.288 113.799 160.385L114.044 160.398C114.97 160.43 115.901 160.301 116.736 160.016L116.154 160.036C115.351 159.66 114.698 159.143 114.264 158.535C113.831 157.926 113.624 157.253 113.663 156.574L115.513 129.006C115.565 128.268 115.908 127.557 116.509 126.948C117.111 126.34 117.933 125.868 118.897 125.577L119.376 125.629C118.554 125.221 117.583 124.975 116.581 124.923C115.578 124.872 114.569 125.007 113.663 125.318C112.757 125.635 111.993 126.114 111.444 126.709C110.894 127.304 110.583 127.99 110.544 128.702H110.538V128.682Z" fill="#8CA4B8"/>
</svg>
