<svg width="200" height="200" viewBox="0 0 200 200" fill="none" xmlns="http://www.w3.org/2000/svg">
<mask id="path-1-outside-1_1347_1504" maskUnits="userSpaceOnUse" x="21.9874" y="11" width="156" height="179" fill="black">
<rect fill="white" x="21.9874" y="11" width="156" height="179"/>
<path d="M100.765 17C101.695 17 102.392 17.2926 102.759 18.1924C102.759 18.1956 102.76 18.1989 102.76 18.2021C103.201 18.7129 103.467 19.3108 103.616 19.96C103.621 19.9655 103.625 19.9711 103.629 19.9766C104.58 22.2401 105.176 24.5957 105.556 27.0078L105.706 28.0449L105.795 28.2881C105.986 28.8586 106.063 29.4515 106.043 30.0615C106.725 32.3934 106.674 34.8458 107.206 37.3877C109.306 34.4035 111.697 31.9588 114.719 30.1367C118.933 27.5949 123.177 27.0102 127.638 29.5068C130.12 30.8939 132.534 32.3337 134.326 34.6055L134.325 34.6084C135.193 35.1245 136.083 35.6117 136.921 36.1729C138.278 37.0726 138.188 38.0995 136.703 39.0518C136.703 39.0485 136.702 39.0452 136.702 39.042C134.702 40.4709 132.457 41.4006 130.233 42.3965C127.331 43.6862 124.451 45.0207 121.722 46.6553C119.225 48.1473 117.051 50.0069 115.214 52.2637C115.027 52.4886 114.689 52.736 114.704 52.9609C114.787 54.6705 113.526 55.5925 112.424 56.8672C113.976 57.3246 115.409 57.7598 116.841 58.1797C124.609 60.4666 132.309 62.971 139.148 67.4473C150.635 74.9604 156.319 85.6531 156.229 99.3896C156.206 102.194 156.371 104.99 157.623 107.532C158.92 110.157 159.22 112.939 159.318 115.773C159.685 126.361 159.131 136.925 158.336 147.482C158.164 149.79 157.616 152.083 157.944 154.428C157.95 154.427 157.956 154.427 157.961 154.426C162.055 157.238 166.021 160.208 169.651 163.597C171.51 165.328 171.465 165.584 169.471 167.038C164.934 170.352 160.15 173.262 155.209 175.916C154.744 176.163 154.234 176.329 153.747 176.523L153.739 176.53C153.738 176.53 153.737 176.529 153.735 176.529C153.734 176.532 153.733 176.535 153.732 176.538C150.545 178.458 146.939 178.608 143.4 178.855C134.972 179.448 126.536 179.32 118.115 178.607C116.638 178.48 115.154 178.383 113.819 177.588C113.205 177.228 112.455 177.408 111.765 177.415C104.244 177.558 96.8809 179.027 89.4952 180.242C83.1368 181.292 76.8003 182.485 70.4493 183.609C70.0193 183.683 69.5745 183.684 69.1368 183.713L69.1378 183.714C68.1032 184.134 67.0832 184.052 66.0636 183.677C66.0555 183.673 66.0473 183.668 66.0392 183.664C66.0397 183.666 66.0406 183.667 66.0411 183.669C61.8872 183.437 57.7927 182.717 53.6837 182.154C46.5231 181.172 39.3549 180.197 32.3517 178.322C28.5503 177.31 28.0032 175.781 30.545 172.736C34.564 167.9 39.9402 165.103 45.7286 162.996H45.7355C45.7388 163.002 45.7428 163.007 45.7462 163.013C45.748 163.01 45.7493 163.007 45.7511 163.004C44.8363 146.771 45.0235 130.522 45.256 114.281C45.3085 110.81 45.5786 107.338 45.7511 103.866C45.7733 103.481 45.752 103.075 46.0255 102.747C46.0264 102.74 46.0274 102.733 46.0284 102.727C46.1559 101.707 46.6809 100.852 47.2433 100.042C48.173 98.6999 49.1028 97.3429 50.1749 96.1133C53.519 92.2894 56.503 88.2477 58.5275 83.5391C62.1416 75.1411 68.5904 69.472 76.4034 65.1006C83.4216 61.1791 90.4697 57.3628 98.3126 55.3008C98.6425 55.2108 99.1598 55.2702 99.0323 54.6104C98.9273 54.0559 98.5974 53.9356 98.1027 53.8682C95.4485 53.5233 92.8544 53.9733 90.2677 54.4307C87.7784 54.873 85.3263 55.5026 82.837 55.9375C81.6298 56.1474 80.3476 56.5223 79.1554 55.7725C78.7056 55.0827 78.1878 54.4759 77.3331 54.2959C77.2081 54.2077 77.0907 54.126 76.9659 54.0381C76.3921 53.8726 75.9146 53.5592 75.504 53.1338C75.5067 53.133 75.5092 53.1317 75.5118 53.1309C75.5041 53.129 75.4961 53.1278 75.4884 53.126C75.0386 53.0735 74.6483 52.9015 74.3634 52.5342C74.4309 51.6944 73.6887 52.1735 73.3888 51.9336C70.6446 50.6964 68.0128 49.2045 65.1261 48.2822C64.4138 48.0573 64.2788 47.4351 64.2638 46.8652C64.0988 40.5293 65.2159 34.5903 70.712 30.5938C78.6675 24.8127 87.1555 20.0067 96.7755 17.4873C98.0877 17.1574 99.4151 17 100.765 17Z"/>
</mask>
<path d="M100.765 17C101.695 17 102.392 17.2926 102.759 18.1924C102.759 18.1956 102.76 18.1989 102.76 18.2021C103.201 18.7129 103.467 19.3108 103.616 19.96C103.621 19.9655 103.625 19.9711 103.629 19.9766C104.58 22.2401 105.176 24.5957 105.556 27.0078L105.706 28.0449L105.795 28.2881C105.986 28.8586 106.063 29.4515 106.043 30.0615C106.725 32.3934 106.674 34.8458 107.206 37.3877C109.306 34.4035 111.697 31.9588 114.719 30.1367C118.933 27.5949 123.177 27.0102 127.638 29.5068C130.12 30.8939 132.534 32.3337 134.326 34.6055L134.325 34.6084C135.193 35.1245 136.083 35.6117 136.921 36.1729C138.278 37.0726 138.188 38.0995 136.703 39.0518C136.703 39.0485 136.702 39.0452 136.702 39.042C134.702 40.4709 132.457 41.4006 130.233 42.3965C127.331 43.6862 124.451 45.0207 121.722 46.6553C119.225 48.1473 117.051 50.0069 115.214 52.2637C115.027 52.4886 114.689 52.736 114.704 52.9609C114.787 54.6705 113.526 55.5925 112.424 56.8672C113.976 57.3246 115.409 57.7598 116.841 58.1797C124.609 60.4666 132.309 62.971 139.148 67.4473C150.635 74.9604 156.319 85.6531 156.229 99.3896C156.206 102.194 156.371 104.99 157.623 107.532C158.92 110.157 159.22 112.939 159.318 115.773C159.685 126.361 159.131 136.925 158.336 147.482C158.164 149.79 157.616 152.083 157.944 154.428C157.95 154.427 157.956 154.427 157.961 154.426C162.055 157.238 166.021 160.208 169.651 163.597C171.51 165.328 171.465 165.584 169.471 167.038C164.934 170.352 160.15 173.262 155.209 175.916C154.744 176.163 154.234 176.329 153.747 176.523L153.739 176.53C153.738 176.53 153.737 176.529 153.735 176.529C153.734 176.532 153.733 176.535 153.732 176.538C150.545 178.458 146.939 178.608 143.4 178.855C134.972 179.448 126.536 179.32 118.115 178.607C116.638 178.48 115.154 178.383 113.819 177.588C113.205 177.228 112.455 177.408 111.765 177.415C104.244 177.558 96.8809 179.027 89.4952 180.242C83.1368 181.292 76.8003 182.485 70.4493 183.609C70.0193 183.683 69.5745 183.684 69.1368 183.713L69.1378 183.714C68.1032 184.134 67.0832 184.052 66.0636 183.677C66.0555 183.673 66.0473 183.668 66.0392 183.664C66.0397 183.666 66.0406 183.667 66.0411 183.669C61.8872 183.437 57.7927 182.717 53.6837 182.154C46.5231 181.172 39.3549 180.197 32.3517 178.322C28.5503 177.31 28.0032 175.781 30.545 172.736C34.564 167.9 39.9402 165.103 45.7286 162.996H45.7355C45.7388 163.002 45.7428 163.007 45.7462 163.013C45.748 163.01 45.7493 163.007 45.7511 163.004C44.8363 146.771 45.0235 130.522 45.256 114.281C45.3085 110.81 45.5786 107.338 45.7511 103.866C45.7733 103.481 45.752 103.075 46.0255 102.747C46.0264 102.74 46.0274 102.733 46.0284 102.727C46.1559 101.707 46.6809 100.852 47.2433 100.042C48.173 98.6999 49.1028 97.3429 50.1749 96.1133C53.519 92.2894 56.503 88.2477 58.5275 83.5391C62.1416 75.1411 68.5904 69.472 76.4034 65.1006C83.4216 61.1791 90.4697 57.3628 98.3126 55.3008C98.6425 55.2108 99.1598 55.2702 99.0323 54.6104C98.9273 54.0559 98.5974 53.9356 98.1027 53.8682C95.4485 53.5233 92.8544 53.9733 90.2677 54.4307C87.7784 54.873 85.3263 55.5026 82.837 55.9375C81.6298 56.1474 80.3476 56.5223 79.1554 55.7725C78.7056 55.0827 78.1878 54.4759 77.3331 54.2959C77.2081 54.2077 77.0907 54.126 76.9659 54.0381C76.3921 53.8726 75.9146 53.5592 75.504 53.1338C75.5067 53.133 75.5092 53.1317 75.5118 53.1309C75.5041 53.129 75.4961 53.1278 75.4884 53.126C75.0386 53.0735 74.6483 52.9015 74.3634 52.5342C74.4309 51.6944 73.6887 52.1735 73.3888 51.9336C70.6446 50.6964 68.0128 49.2045 65.1261 48.2822C64.4138 48.0573 64.2788 47.4351 64.2638 46.8652C64.0988 40.5293 65.2159 34.5903 70.712 30.5938C78.6675 24.8127 87.1555 20.0067 96.7755 17.4873C98.0877 17.1574 99.4151 17 100.765 17Z" fill="#ECC632"/>
<path d="M100.765 17V11H100.765L100.765 17ZM102.759 18.1924L108.724 17.5506C108.664 16.9919 108.526 16.4444 108.314 15.9242L102.759 18.1924ZM102.76 18.2021L96.7971 18.8694C96.9317 20.0726 97.4272 21.2068 98.2183 22.1232L102.76 18.2021ZM103.616 19.96L97.77 21.309C97.9646 22.1524 98.3393 22.9437 98.8686 23.6286L103.616 19.96ZM103.629 19.9766L109.16 17.6518C108.958 17.1695 108.693 16.7158 108.372 16.3022L103.629 19.9766ZM105.556 27.0078L111.494 26.1468C111.49 26.1224 111.486 26.0981 111.483 26.0738L105.556 27.0078ZM105.706 28.0449L99.7683 28.906C99.8276 29.3148 99.9289 29.7164 100.071 30.1045L105.706 28.0449ZM105.795 28.2881L111.486 26.3879C111.468 26.3345 111.45 26.2814 111.43 26.2285L105.795 28.2881ZM106.043 30.0615L100.046 29.8683C100.026 30.503 100.106 31.137 100.285 31.7465L106.043 30.0615ZM107.206 37.3877L101.334 38.6176C101.823 40.9564 103.654 42.7816 105.995 43.2641C108.335 43.7466 110.739 42.7944 112.113 40.8401L107.206 37.3877ZM114.719 30.1367L117.817 35.2749L117.818 35.2744L114.719 30.1367ZM127.638 29.5068L124.708 34.7427L124.711 34.7443L127.638 29.5068ZM134.326 34.6055L140.018 36.5028C140.657 34.5859 140.289 32.476 139.037 30.8895L134.326 34.6055ZM134.325 34.6084L128.633 32.711C127.741 35.3874 128.834 38.3238 131.259 39.7656L134.325 34.6084ZM136.921 36.1729L133.583 41.1583C133.59 41.1634 133.598 41.1685 133.605 41.1736L136.921 36.1729ZM136.703 39.0518L130.703 39.0522C130.703 41.2458 131.901 43.2646 133.826 44.3167C135.751 45.3688 138.096 45.2865 139.943 44.1021L136.703 39.0518ZM136.702 39.042L142.702 39.0298C142.698 36.7844 141.44 34.7294 139.442 33.7041C137.444 32.6787 135.041 32.8546 133.214 34.16L136.702 39.042ZM130.233 42.3965L132.669 47.8794C132.675 47.8771 132.68 47.8748 132.685 47.8725L130.233 42.3965ZM121.722 46.6553L124.8 51.8056L124.805 51.8027L121.722 46.6553ZM115.214 52.2637L119.823 56.1048C119.838 56.0871 119.853 56.0692 119.867 56.0513L115.214 52.2637ZM114.704 52.9609L120.697 52.6718C120.696 52.6367 120.694 52.6016 120.691 52.5666L114.704 52.9609ZM112.424 56.8672L107.885 52.9427C106.551 54.4856 106.092 56.6006 106.667 58.5577C107.242 60.5148 108.771 62.0459 110.728 62.6225L112.424 56.8672ZM116.841 58.1797L118.535 52.4239L118.529 52.4221L116.841 58.1797ZM139.148 67.4473L135.861 72.4674L135.863 72.4686L139.148 67.4473ZM156.229 99.3896L162.228 99.4378L162.229 99.4289L156.229 99.3896ZM157.623 107.532L152.241 110.183L152.244 110.191L157.623 107.532ZM159.318 115.773L153.321 115.98L153.321 115.982L159.318 115.773ZM158.336 147.482L152.353 147.032L152.353 147.036L158.336 147.482ZM157.944 154.428L152.002 155.259C152.228 156.873 153.1 158.325 154.418 159.282C155.736 160.24 157.387 160.62 158.991 160.336L157.944 154.428ZM157.961 154.426L161.358 149.48C159.866 148.455 157.992 148.159 156.257 148.673L157.961 154.426ZM169.651 163.597L165.555 167.982L165.561 167.987L169.651 163.597ZM169.471 167.038L165.935 162.19L165.931 162.193L169.471 167.038ZM155.209 175.916L158.028 181.212C158.035 181.209 158.042 181.205 158.048 181.202L155.209 175.916ZM153.747 176.523L151.519 170.953C150.889 171.204 150.307 171.561 149.796 172.008L153.747 176.523ZM153.739 176.53L153.01 182.486C154.704 182.693 156.406 182.169 157.69 181.046L153.739 176.53ZM153.735 176.529L154.481 170.576C152.056 170.272 149.688 171.47 148.497 173.605L153.735 176.529ZM153.732 176.538L156.827 181.678C157.721 181.139 158.459 180.377 158.969 179.466L153.732 176.538ZM143.4 178.855L142.981 172.87L142.979 172.87L143.4 178.855ZM118.115 178.607L117.6 184.585L117.61 184.586L118.115 178.607ZM113.819 177.588L116.889 172.433C116.876 172.425 116.863 172.417 116.851 172.41L113.819 177.588ZM111.765 177.415L111.699 171.415C111.683 171.416 111.667 171.416 111.651 171.416L111.765 177.415ZM89.4952 180.242L88.5215 174.322L88.5179 174.322L89.4952 180.242ZM70.4493 183.609L71.468 189.522C71.4772 189.521 71.4864 189.519 71.4956 189.517L70.4493 183.609ZM69.1368 183.713L68.7397 177.726C66.3902 177.882 64.3491 179.398 63.5206 181.602C62.692 183.806 63.2292 186.291 64.8942 187.956L69.1368 183.713ZM69.1378 183.714L71.3939 189.274C73.2579 188.517 74.6187 186.877 75.0183 184.906C75.4178 182.934 74.8028 180.894 73.3805 179.471L69.1378 183.714ZM66.0636 183.677L63.3733 189.04C63.5748 189.141 63.7819 189.231 63.9935 189.308L66.0636 183.677ZM66.0392 183.664L68.7425 178.308C66.5829 177.218 63.9801 177.531 62.1412 179.103C60.3022 180.674 59.5868 183.196 60.3268 185.499L66.0392 183.664ZM66.0411 183.669L65.7059 189.66C67.6907 189.771 69.6017 188.891 70.8087 187.312C72.0156 185.732 72.3619 183.657 71.7332 181.772L66.0411 183.669ZM53.6837 182.154L52.8683 188.099L52.8701 188.099L53.6837 182.154ZM32.3517 178.322L33.9031 172.526L33.8956 172.524L32.3517 178.322ZM30.545 172.736L35.1507 176.582L35.1596 176.571L30.545 172.736ZM45.7286 162.996V156.996C45.0287 156.996 44.3341 157.119 43.6764 157.358L45.7286 162.996ZM45.7355 162.996L50.8355 159.835C49.7415 158.07 47.8123 156.996 45.7355 156.996V162.996ZM45.7462 163.013L40.6492 166.178C41.7368 167.93 43.6475 169 45.7091 169.013C47.7707 169.025 49.6944 167.979 50.8037 166.241L45.7462 163.013ZM45.7511 163.004L50.7621 166.304C51.4707 165.228 51.8141 163.953 51.7416 162.666L45.7511 163.004ZM45.256 114.281L39.2567 114.191L39.2566 114.195L45.256 114.281ZM45.7511 103.866L39.7611 103.521C39.7601 103.537 39.7593 103.553 39.7585 103.569L45.7511 103.866ZM46.0255 102.747L50.6321 106.592C51.3532 105.727 51.8168 104.678 51.9698 103.563L46.0255 102.747ZM46.0284 102.727L51.9665 103.586C51.9721 103.548 51.9773 103.509 51.9821 103.471L46.0284 102.727ZM47.2433 100.042L52.1715 103.464L52.1754 103.459L47.2433 100.042ZM50.1749 96.1133L45.6584 92.1635L45.6526 92.1701L50.1749 96.1133ZM58.5275 83.5391L53.0162 81.1672L53.0154 81.1691L58.5275 83.5391ZM76.4034 65.1006L73.4768 59.8628L73.4738 59.8644L76.4034 65.1006ZM98.3126 55.3008L99.8382 61.1036C99.856 61.0989 99.8737 61.0942 99.8913 61.0894L98.3126 55.3008ZM99.0323 54.6104L93.1372 55.7273C93.1386 55.7344 93.1399 55.7414 93.1413 55.7484L99.0323 54.6104ZM98.1027 53.8682L98.9133 47.9232C98.9008 47.9215 98.8882 47.9198 98.8757 47.9182L98.1027 53.8682ZM90.2677 54.4307L89.223 48.5223L89.2179 48.5232L90.2677 54.4307ZM82.837 55.9375L83.8651 61.8488L83.8696 61.848L82.837 55.9375ZM79.1554 55.7725L74.1298 59.0502C74.603 59.7758 75.2278 60.3903 75.9611 60.8515L79.1554 55.7725ZM77.3331 54.2959L73.873 59.1977C74.5406 59.6689 75.2973 59.9988 76.0969 60.1672L77.3331 54.2959ZM76.9659 54.0381L80.4239 49.1348C79.8776 48.7495 79.2707 48.4582 78.6284 48.273L76.9659 54.0381ZM75.504 53.1338L73.7511 47.3956C71.7547 48.0054 70.2187 49.6091 69.6955 51.63C69.1723 53.6509 69.7371 55.7985 71.1868 57.3005L75.504 53.1338ZM75.5118 53.1309L77.2562 58.8717C79.8496 58.0837 81.5926 55.6549 81.509 52.9458C81.4254 50.2366 79.5358 47.9199 76.8988 47.2934L75.5118 53.1309ZM75.4884 53.126L76.9084 47.2964C76.6698 47.2383 76.4279 47.1949 76.184 47.1664L75.4884 53.126ZM74.3634 52.5342L68.3827 52.0536C68.2628 53.5456 68.7049 55.0286 69.6223 56.2114L74.3634 52.5342ZM73.3888 51.9336L77.137 47.2484C76.7441 46.9341 76.3134 46.6705 75.8547 46.4638L73.3888 51.9336ZM65.1261 48.2822L66.9521 42.5668C66.9457 42.5648 66.9393 42.5627 66.9329 42.5607L65.1261 48.2822ZM64.2638 46.8652L58.2658 47.0214L58.2659 47.0232L64.2638 46.8652ZM70.712 30.5938L67.1849 25.7399L67.1834 25.741L70.712 30.5938ZM96.7755 17.4873L95.3125 11.6684C95.2934 11.6732 95.2744 11.6781 95.2554 11.6831L96.7755 17.4873ZM100.765 17V23C100.663 23 99.9479 22.9943 99.0739 22.512C98.0648 21.9552 97.4724 21.1174 97.2042 20.4606L102.759 18.1924L108.314 15.9242C107.678 14.3675 106.553 12.9336 104.872 12.0055C103.325 11.152 101.797 11 100.765 11V17ZM102.759 18.1924L96.7933 18.8342C96.7906 18.8091 96.7887 18.7891 96.7876 18.7783C96.7871 18.7728 96.7866 18.7685 96.7865 18.7665C96.7864 18.7655 96.7861 18.763 96.7864 18.7655C96.7865 18.7667 96.7868 18.7705 96.7873 18.7753C96.7878 18.7802 96.7885 18.7874 96.7893 18.7959C96.791 18.8127 96.7936 18.8383 96.7971 18.8694L102.76 18.2021L108.723 17.5349C108.726 17.5644 108.728 17.5884 108.73 17.6035C108.731 17.6113 108.731 17.6175 108.732 17.6217C108.732 17.6256 108.732 17.6286 108.732 17.629C108.732 17.6292 108.732 17.6292 108.732 17.6292C108.732 17.6291 108.732 17.6289 108.732 17.6286C108.732 17.6281 108.732 17.627 108.732 17.6256C108.732 17.6228 108.731 17.6177 108.731 17.6113C108.73 17.5989 108.727 17.5773 108.724 17.5506L102.759 18.1924ZM102.76 18.2021L98.2183 22.1232C97.8942 21.7477 97.791 21.4001 97.77 21.309L103.616 19.96L109.463 18.611C109.142 17.2216 108.508 15.6782 107.301 14.2811L102.76 18.2021ZM103.616 19.96L98.8686 23.6286C98.8599 23.6174 98.8532 23.6086 98.8497 23.604C98.8479 23.6017 98.8466 23.5999 98.8461 23.5993C98.8457 23.5988 98.8454 23.5983 98.8463 23.5995C98.8471 23.6007 98.8522 23.6074 98.8582 23.6152C98.8646 23.6235 98.8741 23.636 98.8857 23.6509L103.629 19.9766L108.372 16.3022C108.382 16.3144 108.389 16.3241 108.393 16.3296C108.396 16.3325 108.397 16.3347 108.398 16.3358C108.399 16.3369 108.4 16.3376 108.399 16.337C108.399 16.3368 108.398 16.335 108.396 16.3331C108.395 16.3311 108.392 16.3279 108.389 16.3242C108.384 16.3169 108.375 16.3053 108.364 16.2913L103.616 19.96ZM103.629 19.9766L98.0977 22.3013C98.8188 24.0169 99.3047 25.8843 99.6289 27.9418L105.556 27.0078L111.483 26.0738C111.047 23.3072 110.342 20.4633 109.16 17.6518L103.629 19.9766ZM105.556 27.0078L99.6179 27.8689L99.7683 28.906L105.706 28.0449L111.644 27.1839L111.494 26.1468L105.556 27.0078ZM105.706 28.0449L100.071 30.1045L100.16 30.3476L105.795 28.2881L111.43 26.2285L111.342 25.9854L105.706 28.0449ZM105.795 28.2881L100.104 30.1883C100.078 30.1101 100.062 30.0376 100.054 29.977C100.046 29.9173 100.046 29.8793 100.046 29.8683L106.043 30.0615L112.04 30.2547C112.08 29.0044 111.923 27.6961 111.486 26.3879L105.795 28.2881ZM106.043 30.0615L100.285 31.7465C100.468 32.3728 100.582 33.117 100.719 34.3235C100.842 35.4002 100.995 37.0013 101.334 38.6176L107.206 37.3877L113.079 36.1577C112.885 35.2322 112.798 34.3362 112.642 32.9683C112.502 31.7302 112.301 30.0822 111.802 28.3765L106.043 30.0615ZM107.206 37.3877L112.113 40.8401C113.856 38.3632 115.671 36.5689 117.817 35.2749L114.719 30.1367L111.621 24.9985C107.723 27.3486 104.755 30.4437 102.299 33.9353L107.206 37.3877ZM114.719 30.1367L117.818 35.2744C119.351 34.3494 120.554 33.985 121.509 33.9174C122.396 33.8546 123.415 34.0193 124.708 34.7427L127.638 29.5068L130.568 24.271C127.399 22.4977 124.066 21.7064 120.662 21.9473C117.327 22.1834 114.3 23.3823 111.62 24.999L114.719 30.1367ZM127.638 29.5068L124.711 34.7443C127.221 36.1475 128.645 37.0909 129.615 38.3214L134.326 34.6055L139.037 30.8895C136.424 27.5764 133.018 25.6404 130.565 24.2694L127.638 29.5068ZM134.326 34.6055L128.634 32.7081L128.633 32.711L134.325 34.6084L140.017 36.5058L140.018 36.5028L134.326 34.6055ZM134.325 34.6084L131.259 39.7656C132.374 40.429 132.92 40.7149 133.583 41.1583L136.921 36.1729L140.259 31.1874C139.246 30.5086 138.012 29.82 137.392 29.4512L134.325 34.6084ZM136.921 36.1729L133.605 41.1736C133.525 41.1204 133.102 40.8326 132.683 40.2071C132.214 39.5073 131.793 38.4286 131.896 37.1209C131.995 35.8729 132.524 35.0085 132.875 34.5711C133.052 34.3513 133.207 34.2063 133.302 34.1256C133.398 34.0437 133.459 34.0047 133.464 34.0014L136.703 39.0518L139.943 44.1021C141.099 43.3607 143.591 41.4701 143.859 38.0643C144.157 34.2879 141.554 32.0455 140.237 31.1721L136.921 36.1729ZM136.703 39.0518L142.703 39.0514C142.703 38.903 142.698 38.7715 142.691 38.6607C142.687 38.6051 142.683 38.5539 142.679 38.5078C142.674 38.4617 142.67 38.4199 142.666 38.3831C142.662 38.3463 142.658 38.3138 142.654 38.2862C142.651 38.2588 142.648 38.2353 142.645 38.2169C142.643 38.1988 142.64 38.184 142.639 38.1748C142.638 38.1702 142.638 38.1663 142.637 38.1639C142.637 38.1617 142.637 38.1598 142.637 38.1597C142.637 38.1591 142.637 38.1607 142.637 38.1623C142.637 38.1642 142.638 38.1675 142.639 38.1716C142.64 38.1797 142.642 38.1934 142.644 38.2105C142.647 38.2278 142.65 38.2503 142.653 38.2767C142.657 38.3032 142.66 38.3348 142.664 38.3706C142.669 38.4064 142.673 38.4473 142.677 38.4926C142.681 38.5378 142.685 38.5882 142.689 38.643C142.696 38.7522 142.702 38.8825 142.702 39.0298L136.702 39.042L130.702 39.0542C130.703 39.2023 130.708 39.3334 130.716 39.4434C130.719 39.4986 130.724 39.5494 130.728 39.5951C130.732 39.6407 130.736 39.682 130.74 39.7183C130.744 39.7544 130.748 39.7865 130.752 39.8134C130.755 39.8402 130.759 39.8631 130.761 39.8808C130.763 39.8983 130.766 39.9124 130.767 39.9209C130.767 39.9252 130.768 39.9287 130.768 39.9308C130.769 39.9327 130.769 39.9344 130.769 39.934C130.769 39.934 130.769 39.9339 130.769 39.9337C130.769 39.9336 130.769 39.9333 130.769 39.933C130.768 39.9325 130.768 39.9316 130.768 39.9304C130.768 39.9282 130.767 39.9246 130.767 39.9201C130.765 39.9114 130.763 39.897 130.761 39.8792C130.758 39.8613 130.755 39.8382 130.752 39.8111C130.748 39.7841 130.744 39.7519 130.74 39.7155C130.736 39.6792 130.732 39.6378 130.728 39.592C130.724 39.5463 130.719 39.4955 130.716 39.4404C130.709 39.3304 130.703 39.1996 130.703 39.0522L136.703 39.0518ZM136.702 39.042L133.214 34.16C131.823 35.154 130.258 35.8111 127.78 36.9205L130.233 42.3965L132.685 47.8725C134.655 46.99 137.582 45.7878 140.19 43.924L136.702 39.042ZM130.233 42.3965L127.796 36.9136C124.867 38.2153 121.702 39.6731 118.639 41.5078L121.722 46.6553L124.805 51.8027C127.2 50.3683 129.795 49.157 132.669 47.8794L130.233 42.3965ZM121.722 46.6553L118.644 41.5049C115.566 43.3443 112.853 45.6594 110.561 48.476L115.214 52.2637L119.867 56.0513C121.249 54.3545 122.884 52.9504 124.8 51.8056L121.722 46.6553ZM115.214 52.2637L110.605 48.4226C110.744 48.2557 110.859 48.1443 110.788 48.2155C110.784 48.2204 110.593 48.4097 110.416 48.6072C110.245 48.7977 109.858 49.242 109.508 49.8719C109.163 50.4923 108.61 51.7249 108.717 53.3553L114.704 52.9609L120.691 52.5666C120.791 54.0845 120.275 55.2018 119.995 55.7056C119.709 56.2188 119.416 56.545 119.351 56.6174C119.28 56.6968 119.207 56.768 119.318 56.6562C119.363 56.6108 119.591 56.384 119.823 56.1048L115.214 52.2637ZM114.704 52.9609L108.711 53.2501C108.703 53.0793 108.71 52.8852 108.742 52.6764C108.773 52.4674 108.824 52.2719 108.887 52.0959C109.012 51.7472 109.156 51.5484 109.17 51.5289C109.177 51.5193 109.162 51.5404 109.109 51.6025C109.053 51.6663 108.979 51.7491 108.863 51.8738C108.805 51.9359 108.746 51.9994 108.674 52.0758C108.605 52.1489 108.526 52.2333 108.445 52.3207C108.283 52.4957 108.089 52.7074 107.885 52.9427L112.424 56.8672L116.962 60.7917C117.144 60.5822 117.288 60.4356 117.651 60.0452C117.946 59.7272 118.407 59.2257 118.847 58.6254C119.83 57.284 120.824 55.2986 120.697 52.6718L114.704 52.9609ZM112.424 56.8672L110.728 62.6225C112.139 63.0382 113.794 63.539 115.153 63.9373L116.841 58.1797L118.529 52.4221C117.023 51.9806 115.814 51.611 114.12 51.1119L112.424 56.8672ZM116.841 58.1797L115.146 63.9354C122.901 66.2183 129.835 68.5222 135.861 72.4674L139.148 67.4473L142.434 62.4272C134.784 57.4198 126.317 54.7149 118.535 52.4239L116.841 58.1797ZM139.148 67.4473L135.863 72.4686C145.628 78.8555 150.306 87.6335 150.229 99.3503L156.229 99.3896L162.229 99.4289C162.332 83.6726 155.641 71.0653 142.432 62.4259L139.148 67.4473ZM156.229 99.3896L150.229 99.3415C150.205 102.278 150.326 106.297 152.241 110.183L157.623 107.532L163.006 104.881C162.416 103.684 162.207 102.11 162.228 99.4378L156.229 99.3896ZM157.623 107.532L152.244 110.191C152.957 111.632 153.231 113.356 153.321 115.98L159.318 115.773L165.314 115.567C165.209 112.522 164.884 108.681 163.002 104.874L157.623 107.532ZM159.318 115.773L153.321 115.982C153.677 126.239 153.142 136.547 152.353 147.032L158.336 147.482L164.319 147.933C165.119 137.304 165.693 126.482 165.314 115.565L159.318 115.773ZM158.336 147.482L152.353 147.036C152.265 148.206 152.157 148.626 151.983 150.334C151.847 151.673 151.74 153.386 152.002 155.259L157.944 154.428L163.887 153.596C163.821 153.124 163.823 152.519 163.922 151.548C163.983 150.946 164.234 149.066 164.319 147.929L158.336 147.482ZM157.944 154.428L158.991 160.336C158.719 160.384 158.502 160.402 158.405 160.41C158.354 160.414 158.314 160.416 158.304 160.417C158.274 160.418 158.314 160.416 158.325 160.415C158.365 160.413 158.529 160.403 158.738 160.376C158.952 160.348 159.279 160.293 159.666 160.179L157.961 154.426L156.257 148.673C156.641 148.559 156.965 148.505 157.177 148.478C157.382 148.451 157.543 148.441 157.581 148.439C157.59 148.438 157.628 148.436 157.598 148.438C157.586 148.438 157.545 148.441 157.492 148.445C157.392 148.452 157.173 148.471 156.898 148.52L157.944 154.428ZM157.961 154.426L154.564 159.372C158.536 162.1 162.233 164.879 165.555 167.982L169.651 163.597L173.746 159.212C169.81 155.536 165.574 152.376 161.358 149.48L157.961 154.426ZM169.651 163.597L165.561 167.987C166.053 168.446 166.061 168.486 165.954 168.348C165.883 168.256 164.897 167.03 165.017 165.058C165.137 163.078 166.271 161.975 166.36 161.887C166.483 161.764 166.479 161.794 165.935 162.19L169.471 167.038L173.006 171.886C173.46 171.555 174.209 171.008 174.844 170.373C175.443 169.774 176.846 168.227 176.995 165.785C177.142 163.351 175.944 161.645 175.42 160.973C174.861 160.255 174.177 159.614 173.74 159.206L169.651 163.597ZM169.471 167.038L165.931 162.193C161.665 165.31 157.126 168.076 152.37 170.63L155.209 175.916L158.048 181.202C163.175 178.448 168.204 175.395 173.01 171.883L169.471 167.038ZM155.209 175.916L152.39 170.62C152.457 170.584 152.46 170.589 152.298 170.653C152.216 170.685 152.132 170.717 151.993 170.769C151.869 170.816 151.698 170.881 151.519 170.953L153.747 176.523L155.975 182.094C156.338 181.949 156.082 182.058 156.675 181.826C157.006 181.696 157.496 181.496 158.028 181.212L155.209 175.916ZM153.747 176.523L149.796 172.008L149.788 172.015L153.739 176.53L157.69 181.046L157.698 181.039L153.747 176.523ZM153.739 176.53L154.469 170.575C154.561 170.586 154.647 170.599 154.726 170.612C154.805 170.625 154.879 170.639 154.946 170.653C155.012 170.667 155.074 170.68 155.128 170.693C155.183 170.706 155.233 170.719 155.276 170.73C155.319 170.742 155.357 170.752 155.389 170.761C155.42 170.771 155.448 170.779 155.469 170.785C155.489 170.791 155.506 170.796 155.516 170.8C155.522 170.801 155.526 170.803 155.529 170.803C155.53 170.804 155.531 170.804 155.532 170.804C155.532 170.805 155.533 170.805 155.533 170.805C155.534 170.805 155.532 170.804 155.53 170.804C155.527 170.803 155.523 170.802 155.518 170.8C155.509 170.797 155.492 170.792 155.472 170.786C155.452 170.78 155.425 170.772 155.394 170.763C155.363 170.754 155.325 170.743 155.283 170.732C155.24 170.721 155.191 170.708 155.137 170.695C155.083 170.682 155.022 170.668 154.956 170.655C154.889 170.641 154.816 170.627 154.738 170.614C154.659 170.6 154.573 170.587 154.481 170.576L153.735 176.529L152.99 182.483C152.898 182.471 152.813 182.458 152.734 182.445C152.655 182.432 152.582 182.418 152.516 182.404C152.45 182.39 152.389 182.377 152.335 182.364C152.281 182.351 152.233 182.338 152.19 182.327C152.148 182.316 152.111 182.305 152.08 182.296C152.048 182.287 152.022 182.279 152.002 182.273C151.982 182.267 151.966 182.262 151.956 182.259C151.951 182.258 151.947 182.257 151.945 182.256C151.943 182.255 151.941 182.255 151.942 182.255C151.942 182.255 151.942 182.255 151.943 182.255C151.944 182.255 151.945 182.256 151.946 182.256C151.949 182.257 151.954 182.258 151.959 182.26C151.969 182.263 151.986 182.269 152.007 182.275C152.028 182.281 152.056 182.289 152.088 182.299C152.12 182.308 152.158 182.318 152.201 182.33C152.244 182.341 152.294 182.354 152.349 182.367C152.404 182.38 152.465 182.394 152.532 182.408C152.599 182.421 152.673 182.435 152.752 182.449C152.832 182.462 152.918 182.475 153.01 182.486L153.739 176.53ZM153.735 176.529L148.497 173.605C148.43 173.724 148.375 173.832 148.33 173.925C148.308 173.971 148.288 174.014 148.27 174.052C148.253 174.091 148.237 174.127 148.224 174.158C148.21 174.189 148.199 174.217 148.189 174.24C148.179 174.264 148.171 174.284 148.165 174.299C148.159 174.315 148.154 174.327 148.151 174.335C148.149 174.339 148.148 174.342 148.147 174.344C148.147 174.345 148.147 174.346 148.147 174.346C148.146 174.346 148.146 174.347 148.146 174.347C148.146 174.347 148.146 174.347 148.146 174.347C148.146 174.347 148.146 174.347 148.146 174.347C148.146 174.347 148.147 174.346 148.147 174.344C148.148 174.342 148.149 174.339 148.151 174.335C148.154 174.328 148.158 174.316 148.165 174.301C148.171 174.285 148.179 174.265 148.188 174.242C148.198 174.219 148.21 174.191 148.223 174.16C148.236 174.13 148.252 174.094 148.269 174.056C148.287 174.017 148.307 173.975 148.329 173.929C148.373 173.837 148.428 173.729 148.495 173.61L153.732 176.538L158.969 179.466C159.036 179.346 159.091 179.238 159.135 179.146C159.158 179.099 159.178 179.056 159.196 179.017C159.213 178.978 159.229 178.943 159.242 178.911C159.256 178.88 159.268 178.852 159.277 178.829C159.287 178.805 159.295 178.785 159.302 178.769C159.308 178.753 159.313 178.741 159.316 178.733C159.317 178.729 159.319 178.726 159.32 178.724C159.32 178.723 159.32 178.722 159.32 178.721C159.321 178.721 159.321 178.72 159.321 178.72C159.321 178.72 159.32 178.721 159.32 178.723C159.319 178.725 159.318 178.728 159.317 178.731C159.314 178.739 159.309 178.751 159.303 178.766C159.297 178.781 159.289 178.801 159.279 178.824C159.27 178.847 159.258 178.874 159.245 178.905C159.232 178.936 159.216 178.971 159.199 179.009C159.181 179.048 159.162 179.09 159.14 179.136C159.095 179.228 159.041 179.335 158.974 179.454L153.735 176.529ZM153.732 176.538L150.636 171.398C148.931 172.425 146.934 172.594 142.981 172.87L143.4 178.855L143.818 184.841C146.943 184.622 152.159 184.49 156.827 181.678L153.732 176.538ZM143.4 178.855L142.979 172.87C134.891 173.439 126.767 173.318 118.621 172.629L118.115 178.607L117.61 184.586C126.305 185.322 135.052 185.457 143.82 184.841L143.4 178.855ZM118.115 178.607L118.631 172.63C118.218 172.594 117.937 172.571 117.649 172.54C117.379 172.511 117.192 172.484 117.052 172.457C116.786 172.405 116.791 172.374 116.889 172.433L113.819 177.588L110.75 182.743C113.488 184.374 116.464 184.487 117.6 184.585L118.115 178.607ZM113.819 177.588L116.851 172.41C115.208 171.448 113.62 171.362 112.806 171.364C112.401 171.365 112.031 171.392 111.875 171.403C111.652 171.418 111.662 171.416 111.699 171.415L111.765 177.415L111.83 183.415C112.212 183.411 112.575 183.383 112.705 183.374C112.904 183.36 112.889 183.364 112.834 183.364C112.721 183.364 111.816 183.367 110.788 182.766L113.819 177.588ZM111.765 177.415L111.651 171.416C103.573 171.569 95.6178 173.155 88.5215 174.322L89.4952 180.242L90.469 186.163C98.1439 184.9 104.915 183.546 111.878 183.414L111.765 177.415ZM89.4952 180.242L88.5179 174.322C82.1176 175.379 75.6649 176.592 69.403 177.701L70.4493 183.609L71.4956 189.517C77.9356 188.377 84.156 187.205 90.4726 186.162L89.4952 180.242ZM70.4493 183.609L69.4307 177.696C69.5386 177.678 69.5757 177.681 69.4418 177.688C69.3737 177.693 69.3052 177.696 69.1785 177.702C69.0674 177.707 68.9091 177.715 68.7397 177.726L69.1368 183.713L69.534 189.7C69.8611 189.678 69.5873 189.701 70.1501 189.668C70.4555 189.65 70.93 189.615 71.468 189.522L70.4493 183.609ZM69.1368 183.713L64.8942 187.956L64.8952 187.957L69.1378 183.714L73.3805 179.471L73.3795 179.47L69.1368 183.713ZM69.1378 183.714L66.8817 178.154C67.1585 178.042 67.4748 177.987 67.7698 177.996C68.0381 178.004 68.1741 178.06 68.1337 178.045L66.0636 183.677L63.9935 189.308C66.0241 190.055 68.6345 190.393 71.3939 189.274L69.1378 183.714ZM66.0636 183.677L68.7539 178.314C68.7715 178.323 68.7869 178.33 68.7996 178.337C68.8123 178.343 68.8231 178.349 68.8312 178.353C68.8393 178.357 68.8456 178.361 68.8493 178.363C68.8527 178.365 68.8552 178.366 68.8543 178.365C68.8542 178.365 68.8542 178.365 68.854 178.365C68.8539 178.365 68.8537 178.365 68.8535 178.365C68.8531 178.365 68.8526 178.364 68.8519 178.364C68.8507 178.363 68.8487 178.362 68.8463 178.361C68.8417 178.359 68.8343 178.355 68.8253 178.35C68.8162 178.345 68.8045 178.339 68.7909 178.332C68.7772 178.325 68.7609 178.317 68.7425 178.308L66.0392 183.664L63.3359 189.021C63.3038 189.004 63.2786 188.991 63.2652 188.984C63.2583 188.981 63.2529 188.978 63.2503 188.976C63.2482 188.975 63.2462 188.974 63.2485 188.975C63.2496 188.976 63.2542 188.978 63.2596 188.981C63.2653 188.984 63.2737 188.989 63.2838 188.994C63.3035 189.004 63.3348 189.02 63.3733 189.04L66.0636 183.677ZM66.0392 183.664L60.3268 185.499C60.3575 185.595 60.387 185.679 60.4127 185.748C60.4384 185.817 60.4616 185.876 60.48 185.922C60.4983 185.967 60.5138 186.003 60.5237 186.026C60.533 186.048 60.5407 186.066 60.541 186.066C60.5421 186.069 60.5405 186.065 60.5394 186.063C60.5378 186.059 60.5347 186.052 60.5309 186.043C60.5234 186.026 60.51 185.995 60.4938 185.955C60.4775 185.915 60.4559 185.862 60.4318 185.798C60.4076 185.735 60.3791 185.657 60.349 185.566L66.0411 183.669L71.7332 181.772C71.703 181.681 71.6744 181.602 71.6501 181.538C71.6258 181.474 71.6041 181.42 71.5875 181.38C71.5711 181.341 71.5576 181.309 71.55 181.291C71.546 181.282 71.5429 181.275 71.5412 181.271C71.54 181.268 71.5383 181.264 71.5393 181.267C71.5395 181.267 71.547 181.284 71.5561 181.306C71.5658 181.328 71.5811 181.364 71.5993 181.409C71.6175 181.454 71.6406 181.512 71.6661 181.581C71.6916 181.65 71.721 181.733 71.7516 181.829L66.0392 183.664ZM66.0411 183.669L66.3764 177.678C62.5424 177.464 58.9079 176.813 54.4973 176.21L53.6837 182.154L52.8701 188.099C56.6775 188.62 61.2319 189.409 65.7059 189.66L66.0411 183.669ZM53.6837 182.154L54.4991 176.21C47.2698 175.218 40.4804 174.287 33.9031 172.526L32.3517 178.322L30.8003 184.118C38.2293 186.107 45.7763 187.126 52.8683 188.099L53.6837 182.154ZM32.3517 178.322L33.8956 172.524C33.1969 172.338 33.0763 172.233 33.2338 172.329C33.4227 172.444 34.3177 173.051 34.7661 174.407C35.2203 175.78 34.8561 176.828 34.752 177.075C34.6683 177.274 34.6889 177.135 35.1507 176.582L30.545 172.736L25.9394 168.891C25.1303 169.86 24.2661 171.053 23.6889 172.427C23.0913 173.849 22.6248 175.913 23.3732 178.176C24.1158 180.421 25.7015 181.79 26.9826 182.572C28.2325 183.335 29.6057 183.8 30.8078 184.12L32.3517 178.322ZM30.545 172.736L35.1596 176.571C38.1939 172.92 42.4182 170.586 47.7809 168.634L45.7286 162.996L43.6764 157.358C37.4622 159.62 30.9341 162.881 25.9305 168.901L30.545 172.736ZM45.7286 162.996V168.996H45.7355V162.996V156.996H45.7286V162.996ZM45.7355 162.996L40.6354 166.157C40.6513 166.182 40.6656 166.205 40.6774 166.223C40.6892 166.242 40.6995 166.258 40.7074 166.27C40.7153 166.282 40.7218 166.292 40.726 166.298C40.7298 166.304 40.7331 166.309 40.7333 166.31C40.7344 166.311 40.7321 166.308 40.7295 166.304C40.7265 166.299 40.7212 166.291 40.7144 166.281C40.7076 166.27 40.6985 166.256 40.6878 166.24C40.6771 166.223 40.664 166.202 40.6492 166.178L45.7462 163.013L50.8433 159.847C50.8276 159.822 50.8136 159.8 50.802 159.782C50.7904 159.764 50.7804 159.748 50.7727 159.736C50.7651 159.725 50.7588 159.715 50.755 159.709C50.753 159.706 50.7513 159.704 50.7503 159.702C50.7493 159.701 50.7484 159.699 50.7484 159.699C50.7481 159.699 50.7486 159.7 50.7493 159.701C50.75 159.702 50.7513 159.704 50.753 159.706C50.7562 159.711 50.7618 159.72 50.7688 159.73C50.7758 159.741 50.7852 159.756 50.7961 159.773C50.8071 159.79 50.8204 159.811 50.8355 159.835L45.7355 162.996ZM45.7462 163.013L50.8037 166.241C50.8581 166.156 50.9035 166.08 50.9397 166.017C50.9759 165.955 51.0053 165.901 51.027 165.861C51.0484 165.822 51.0651 165.79 51.0742 165.772C51.0789 165.763 51.0827 165.756 51.0845 165.752C51.0857 165.75 51.0881 165.745 51.0865 165.748C51.086 165.749 51.0768 165.767 51.0651 165.79C51.0527 165.813 51.0331 165.85 51.0082 165.896C50.9831 165.941 50.9502 166 50.9102 166.067C50.8701 166.135 50.8208 166.215 50.7621 166.304L45.7511 163.004L40.7401 159.704C40.681 159.794 40.6312 159.875 40.5907 159.943C40.5503 160.011 40.5169 160.07 40.4915 160.116C40.4662 160.163 40.4461 160.2 40.4333 160.225C40.4212 160.248 40.4116 160.267 40.4108 160.268C40.409 160.272 40.4112 160.268 40.4121 160.266C40.4138 160.262 40.4174 160.256 40.4219 160.247C40.4307 160.23 40.4469 160.199 40.468 160.16C40.4892 160.12 40.5182 160.068 40.554 160.006C40.5898 159.944 40.6348 159.869 40.6887 159.784L45.7462 163.013ZM45.7511 163.004L51.7416 162.666C50.8404 146.674 51.0227 130.627 51.2554 114.367L45.256 114.281L39.2566 114.195C39.0244 130.417 38.8323 146.867 39.7606 163.341L45.7511 163.004ZM45.256 114.281L51.2553 114.372C51.3058 111.032 51.5598 107.867 51.7437 104.164L45.7511 103.866L39.7585 103.569C39.5975 106.809 39.3111 110.588 39.2567 114.191L45.256 114.281ZM45.7511 103.866L51.7411 104.212C51.7469 104.113 51.7507 104.021 51.7526 103.977C51.7537 103.95 51.7544 103.935 51.755 103.922C51.7555 103.909 51.7558 103.906 51.7557 103.907C51.7556 103.909 51.7536 103.945 51.7481 104.003C51.7425 104.061 51.7322 104.152 51.7132 104.267C51.6321 104.756 51.3879 105.686 50.6321 106.592L46.0255 102.747L41.419 98.9026C40.3896 100.136 40.0193 101.433 39.875 102.303C39.8073 102.711 39.7844 103.056 39.7741 103.243C39.7689 103.337 39.7652 103.426 39.7635 103.465C39.7612 103.518 39.7609 103.524 39.7611 103.521L45.7511 103.866ZM46.0255 102.747L51.9698 103.563C51.9679 103.577 51.9664 103.587 51.9659 103.591C51.9656 103.592 51.9655 103.593 51.9656 103.593C51.9657 103.592 51.9657 103.592 51.9659 103.59C51.9661 103.59 51.9663 103.588 51.9665 103.586L46.0284 102.727L40.0904 101.867C40.0902 101.868 40.0904 101.867 40.0898 101.871C40.0894 101.873 40.0888 101.878 40.088 101.883C40.0866 101.893 40.0841 101.91 40.0812 101.931L46.0255 102.747ZM46.0284 102.727L51.9821 103.471C51.9635 103.62 51.9328 103.741 51.9051 103.827C51.8781 103.911 51.8562 103.955 51.8574 103.952C51.8594 103.948 51.8793 103.909 51.9323 103.823C51.9866 103.736 52.0605 103.624 52.1715 103.464L47.2433 100.042L42.3151 96.6196C41.7067 97.4957 40.3984 99.3937 40.0748 101.982L46.0284 102.727ZM47.2433 100.042L52.1754 103.459C53.1559 102.043 53.888 100.985 54.6972 100.056L50.1749 96.1133L45.6526 92.1701C44.3175 93.7013 43.1901 95.3565 42.3111 96.6253L47.2433 100.042ZM50.1749 96.1133L54.6915 100.063C58.2312 96.0154 61.6647 91.4326 64.0396 85.909L58.5275 83.5391L53.0154 81.1691C51.3412 85.0628 48.8067 88.5633 45.6584 92.1635L50.1749 96.1133ZM58.5275 83.5391L64.0388 85.9109C66.9585 79.1265 72.2227 74.315 79.3331 70.3367L76.4034 65.1006L73.4738 59.8644C64.9581 64.629 57.3247 71.1558 53.0162 81.1672L58.5275 83.5391ZM76.4034 65.1006L79.3301 70.3384C86.3901 66.3936 92.8254 62.9473 99.8382 61.1036L98.3126 55.3008L96.787 49.498C88.114 51.7782 80.4531 55.9647 73.4768 59.8628L76.4034 65.1006ZM98.3126 55.3008L99.8913 61.0894C99.663 61.1516 99.1922 61.2378 99.6865 61.1452C99.852 61.1142 100.673 60.9718 101.571 60.514C102.641 59.9677 103.896 58.9369 104.585 57.2271C105.206 55.6856 105.081 54.2876 104.923 53.4723L99.0323 54.6104L93.1413 55.7484C93.0475 55.263 92.9052 54.105 93.4551 52.7408C94.0729 51.2083 95.2012 50.292 96.1175 49.8246C96.5265 49.6159 96.8752 49.5029 97.0839 49.4438C97.2917 49.385 97.447 49.356 97.4778 49.3502C97.7864 49.2925 97.1272 49.4049 96.7339 49.5122L98.3126 55.3008ZM99.0323 54.6104L104.927 53.4934C104.655 52.0563 103.871 50.3161 102.103 49.1059C100.692 48.1397 99.2427 47.9681 98.9133 47.9232L98.1027 53.8682L97.292 59.8131C97.2838 59.812 97.2317 59.8049 97.1525 59.7897C97.0732 59.7745 96.9436 59.747 96.7811 59.7002C96.462 59.6083 95.919 59.4148 95.3239 59.0074C94.6912 58.5742 94.1479 58.0003 93.7486 57.3253C93.3703 56.686 93.2088 56.1052 93.1372 55.7273L99.0323 54.6104ZM98.1027 53.8682L98.8757 47.9182C95.1675 47.4364 91.6799 48.0879 89.223 48.5223L90.2677 54.4307L91.3124 60.339C94.0288 59.8587 95.7296 59.6103 97.3296 59.8182L98.1027 53.8682ZM90.2677 54.4307L89.2179 48.5232C87.8443 48.7673 86.4976 49.0601 85.2846 49.3223C84.0339 49.5927 82.9128 49.8334 81.8044 50.027L82.837 55.9375L83.8696 61.848C85.2505 61.6067 86.6001 61.3152 87.8201 61.0514C89.0779 60.7795 90.2019 60.5364 91.3175 60.3381L90.2677 54.4307ZM82.837 55.9375L81.809 50.0262C81.6069 50.0614 81.4093 50.0989 81.2678 50.1256C81.1105 50.1553 81.0035 50.1753 80.9055 50.1921C80.7057 50.2264 80.6797 50.2227 80.7372 50.2202C80.8081 50.2172 81.0319 50.2141 81.3447 50.2824C81.6763 50.3549 82.0264 50.4901 82.3497 50.6935L79.1554 55.7725L75.9611 60.8515C77.8797 62.0582 79.8067 62.2703 81.2439 62.2095C82.3842 62.1614 83.7389 61.8707 83.8651 61.8488L82.837 55.9375ZM79.1554 55.7725L84.181 52.4947C83.5546 51.5343 81.891 49.1241 78.5694 48.4246L77.3331 54.2959L76.0969 60.1672C75.3517 60.0103 74.7724 59.6503 74.4062 59.3242C74.111 59.0613 74.0113 58.8685 74.1298 59.0502L79.1554 55.7725ZM77.3331 54.2959L80.7932 49.3941C80.7204 49.3427 80.6513 49.2943 80.5914 49.2523C80.5291 49.2087 80.4768 49.1721 80.4239 49.1348L76.9659 54.0381L73.508 58.9414C73.8336 59.1711 73.5926 58.9997 73.873 59.1977L77.3331 54.2959ZM76.9659 54.0381L78.6284 48.273C78.8946 48.3498 79.1446 48.4641 79.3643 48.602C79.5794 48.7371 79.7296 48.8721 79.8213 48.9671L75.504 53.1338L71.1868 57.3005C72.2156 58.3664 73.5762 59.3051 75.3035 59.8032L76.9659 54.0381ZM75.504 53.1338L77.257 58.872C77.3469 58.8445 77.4261 58.818 77.4926 58.7947C77.5588 58.7715 77.6151 58.7504 77.6585 58.7337C77.6804 58.7253 77.6998 58.7177 77.7161 58.7112C77.7324 58.7048 77.7463 58.6992 77.7571 58.6948C77.7677 58.6905 77.7764 58.687 77.7816 58.6848C77.7843 58.6838 77.7864 58.6829 77.7877 58.6823C77.7884 58.682 77.789 58.6818 77.7893 58.6817C77.7895 58.6816 77.7896 58.6816 77.7897 58.6815C77.7897 58.6815 77.7898 58.6815 77.7898 58.6815C77.7898 58.6815 77.7898 58.6815 77.7898 58.6815C77.7898 58.6815 77.7898 58.6815 77.7898 58.6815C77.7905 58.6812 77.7865 58.6828 77.7818 58.6848C77.7766 58.6869 77.768 58.6904 77.7574 58.6947C77.7466 58.699 77.7328 58.7046 77.7165 58.711C77.7002 58.7175 77.6808 58.7251 77.659 58.7335C77.6155 58.7501 77.5591 58.7712 77.4927 58.7944C77.4261 58.8177 77.3466 58.8442 77.2562 58.8717L75.5118 53.1309L73.7675 47.39C73.6764 47.4177 73.5963 47.4444 73.529 47.4679C73.4619 47.4914 73.4049 47.5127 73.3608 47.5296C73.3386 47.5381 73.3189 47.5459 73.3023 47.5524C73.2857 47.559 73.2715 47.5647 73.2604 47.5692C73.2495 47.5736 73.2406 47.5772 73.2351 47.5795C73.2323 47.5806 73.23 47.5816 73.2285 47.5822C73.2278 47.5825 73.2272 47.5827 73.2268 47.5829C73.2264 47.583 73.2261 47.5832 73.2261 47.5832C73.2251 47.5836 73.2289 47.582 73.2333 47.5802C73.2382 47.5782 73.2465 47.5748 73.2569 47.5706C73.2673 47.5664 73.2809 47.5609 73.2969 47.5546C73.3129 47.5483 73.3319 47.5408 73.3535 47.5325C73.3962 47.5161 73.4519 47.4952 73.5175 47.4722C73.5832 47.4491 73.6618 47.4228 73.7511 47.3956L75.504 53.1338ZM75.5118 53.1309L76.8988 47.2934C76.8544 47.2828 76.815 47.274 76.782 47.2668C76.7491 47.2597 76.7209 47.2538 76.6992 47.2494C76.6777 47.2451 76.6603 47.2417 76.65 47.2397C76.6448 47.2386 76.6405 47.2378 76.638 47.2373C76.6361 47.237 76.6335 47.2365 76.6344 47.2366C76.6345 47.2366 76.635 47.2367 76.6357 47.2369C76.6365 47.237 76.6377 47.2373 76.6391 47.2375C76.642 47.2381 76.6466 47.239 76.6523 47.2401C76.6634 47.2423 76.6814 47.2458 76.7037 47.2504C76.7262 47.2551 76.7552 47.2612 76.789 47.2687C76.8229 47.2762 76.8631 47.2854 76.9084 47.2964L75.4884 53.126L74.0684 58.9555C74.1612 58.9781 74.2373 58.9943 74.2847 59.0041C74.309 59.0091 74.329 59.0131 74.3421 59.0156C74.3544 59.0181 74.3646 59.02 74.3658 59.0202C74.37 59.021 74.3631 59.0197 74.3561 59.0184C74.3478 59.0167 74.3323 59.0137 74.3128 59.0097C74.2749 59.0021 74.2081 58.9881 74.1249 58.9684L75.5118 53.1309ZM75.4884 53.126L76.184 47.1664C76.5036 47.2037 77.0012 47.3063 77.5647 47.5903C78.1547 47.8877 78.6885 48.3206 79.1045 48.8569L74.3634 52.5342L69.6223 56.2114C71.1294 58.1545 73.1682 58.8959 74.7928 59.0855L75.4884 53.126ZM74.3634 52.5342L80.3441 53.0148C80.4099 52.196 80.4427 50.1213 78.8714 48.2551C77.227 46.3023 75.0869 46.0698 74.4372 46.0239C74.062 45.9974 73.7466 46.0081 73.6785 46.01C73.5149 46.0146 73.6598 46.0093 73.7824 46.0115C73.8646 46.0129 75.5469 45.9763 77.137 47.2484L73.3888 51.9336L69.6406 56.6188C70.5486 57.3452 71.4772 57.6771 72.1449 57.8342C72.7845 57.9848 73.316 58.0051 73.5718 58.0096C73.7137 58.0121 73.8317 58.01 73.8996 58.0085C73.9346 58.0077 73.9652 58.0068 73.983 58.0062C74.0073 58.0055 74.0078 58.0055 74.015 58.0053C74.0609 58.004 73.8584 58.0129 73.5905 57.994C73.1555 57.9632 71.207 57.7834 69.6922 55.9845C68.2503 54.2722 68.3506 52.4524 68.3827 52.0536L74.3634 52.5342ZM73.3888 51.9336L75.8547 46.4638C73.8032 45.5389 70.2542 43.6218 66.9521 42.5668L65.1261 48.2822L63.3001 53.9976C65.7713 54.7871 67.486 55.854 70.9228 57.4034L73.3888 51.9336ZM65.1261 48.2822L66.9329 42.5607C67.4799 42.7335 68.0832 43.0401 68.6427 43.5295C69.1992 44.0161 69.5782 44.5657 69.8234 45.067C70.2631 45.9662 70.2613 46.6925 70.2617 46.7073L64.2638 46.8652L58.2659 47.0232C58.2813 47.6078 58.3545 48.9302 59.0435 50.3391C59.8604 52.0093 61.3339 53.3768 63.3193 54.0037L65.1261 48.2822ZM64.2638 46.8652L70.2618 46.7091C70.114 41.0341 71.1707 37.6788 74.2407 35.4465L70.712 30.5938L67.1834 25.741C59.2611 31.5017 58.0837 40.0245 58.2658 47.0214L64.2638 46.8652ZM70.712 30.5938L74.2392 35.4476C81.8503 29.9167 89.6543 25.5546 98.2956 23.2916L96.7755 17.4873L95.2554 11.6831C84.6567 14.4588 75.4846 19.7088 67.1849 25.7399L70.712 30.5938ZM96.7755 17.4873L98.2385 23.3062C99.053 23.1014 99.8881 23 100.765 23L100.765 17L100.765 11C98.9421 11 97.1223 11.2134 95.3125 11.6684L96.7755 17.4873Z" fill="white" mask="url(#path-1-outside-1_1347_1504)"/>
<path d="M46.0283 102.726C46.1558 101.707 46.6806 100.852 47.243 100.042C48.1728 98.6999 49.1025 97.3427 50.1748 96.113C53.5189 92.2889 56.5032 88.2474 58.5277 83.5386C62.1418 75.1407 68.5902 69.4721 76.4033 65.1006C83.4216 61.1791 90.4698 57.3626 98.3129 55.3006C98.6428 55.2106 99.1602 55.2706 99.0327 54.6107C98.9277 54.0559 98.5978 53.9359 98.1029 53.8684C95.4486 53.5235 92.8542 53.9734 90.2674 54.4308C87.778 54.8732 85.3261 55.503 82.8367 55.9379C81.6295 56.1479 80.3473 56.5228 79.1551 55.7729C78.7052 55.0831 78.1879 54.4758 77.3331 54.2958C77.2056 54.2058 77.0856 54.1234 76.9582 54.0334C76.7407 53.2911 76.0734 53.2686 75.4885 53.1261C75.0386 53.0736 74.6487 52.9012 74.3638 52.5337C74.4313 51.694 73.689 52.1738 73.389 51.9339C70.6447 50.6967 68.0129 49.2046 65.1261 48.2823C64.4138 48.0573 64.2788 47.435 64.2638 46.8651C64.0988 40.5292 65.2161 34.5907 70.7122 30.5941C78.6677 24.8131 87.1556 20.0068 96.7758 17.4874C98.0879 17.1575 99.4151 17 100.765 17C101.695 17 102.392 17.2924 102.759 18.1922C102.834 18.8895 103.217 19.4444 103.629 19.9768C104.716 22.5636 105.339 25.2705 105.706 28.0448C105.661 28.7421 105.601 29.4469 106.043 30.0618C106.726 32.3937 106.673 34.8456 107.206 37.3875C109.305 34.4032 111.697 31.9588 114.719 30.1368C118.933 27.5949 123.177 27.01 127.638 29.5069C130.12 30.8941 132.534 32.3337 134.327 34.6057C134.214 35.4979 133.434 35.423 132.864 35.4979C131.852 35.6329 130.967 36.0453 130.113 36.5627C126.011 39.0596 121.985 41.6839 118.101 44.4957C116.061 45.9729 114.314 47.8474 113.152 50.1568C112.889 50.6742 112.642 51.1616 113.309 51.559C113.909 51.9189 114.231 51.529 114.516 51.1016C115.319 49.8719 117.013 49.452 117.456 47.8774C117.501 47.7124 117.388 47.7799 117.546 47.7799C119.458 47.7499 120.155 45.5905 121.925 45.3205C122.165 45.283 122.419 45.208 122.607 45.0356C125.921 42.1038 130.105 40.7541 133.944 38.7821C134.469 38.5122 135.009 38.2498 135.526 37.9648C135.871 37.7774 136.261 37.5524 136.636 37.8224C137.116 38.1673 136.846 38.6172 136.711 39.0371C134.709 40.4692 132.459 41.399 130.233 42.3962C127.331 43.6859 124.451 45.0206 121.722 46.6552C119.225 48.1473 117.051 50.0069 115.214 52.2638C115.026 52.4888 114.689 52.7362 114.704 52.9611C114.786 54.6707 113.527 55.593 112.424 56.8677C113.977 57.3251 115.409 57.76 116.841 58.1799C124.609 60.4668 132.31 62.9712 139.148 67.4476C150.635 74.9607 156.319 85.6531 156.229 99.3897C156.206 102.194 156.371 104.991 157.623 107.533C158.92 110.157 159.22 112.939 159.318 115.773C159.685 126.361 159.13 136.925 158.336 147.483C158.163 149.792 157.616 152.087 157.946 154.434C157.571 158.063 157.406 161.729 156.723 165.313C155.996 169.115 155.681 173.052 153.732 176.538C150.545 178.458 146.938 178.608 143.399 178.855C134.971 179.447 126.536 179.32 118.116 178.608C116.638 178.48 115.154 178.383 113.819 177.588C113.204 177.228 112.454 177.408 111.765 177.415C104.244 177.558 96.8807 179.028 89.4951 180.242C83.1366 181.292 76.8007 182.484 70.4498 183.609C70.0149 183.684 69.565 183.684 69.1226 183.714C67.7504 184.216 67.9079 183.399 67.9679 182.477C68.4103 175.391 68.2903 168.298 68.2978 161.204C68.2978 156.143 68.3203 151.082 68.2978 146.021C68.2753 141.207 67.8254 136.423 67.473 131.624C67.353 129.99 67.3305 128.363 67.1956 126.728C66.7682 121.712 64.3763 117.708 61.0321 114.161C57.3505 110.247 52.8891 107.42 48.1203 105.013C47.183 104.541 45.7958 104.331 46.0283 102.726Z" fill="#272727"/>
<path d="M46.0283 102.727C46.2083 104.031 47.4155 104.234 48.2853 104.624C52.4692 106.491 56.1583 109.152 59.6525 112.017C61.557 113.576 63.2066 115.608 64.5113 117.708C66.1609 120.362 67.3831 123.249 67.593 126.526C67.8929 131.205 68.1404 135.891 68.4703 140.57C69.0027 148.008 68.5978 155.454 68.7252 162.892C68.7927 167.016 68.7927 171.14 68.7252 175.264C68.6803 177.971 68.4403 180.67 68.3203 183.377C68.2903 184.067 68.9277 183.444 69.1376 183.714C68.1029 184.134 67.0831 184.052 66.0634 183.677C63.7765 182.529 62.0369 180.677 60.1699 179.013C56.2633 175.519 52.6417 171.732 49.0426 167.923C47.8504 166.656 46.8156 165.276 45.8859 163.814C45.7284 163.567 45.5485 163.312 45.7509 163.004C44.8361 146.771 45.0236 130.522 45.256 114.281C45.3085 110.81 45.5784 107.338 45.7509 103.866C45.7734 103.476 45.7509 103.064 46.0358 102.734L46.0283 102.727Z" fill="#393536"/>
<path d="M45.7359 162.996C47.3855 165.658 49.59 167.832 51.6745 170.142C54.2014 172.939 56.9982 175.436 59.6825 178.045C61.6245 179.934 63.619 181.771 65.8985 183.264C65.9959 183.324 65.9959 183.534 66.0409 183.668C61.887 183.436 57.793 182.716 53.684 182.154C46.5232 181.172 39.355 180.197 32.3517 178.322C28.5502 177.31 28.0028 175.78 30.5447 172.736C34.5637 167.9 39.9399 165.103 45.7284 162.996H45.7359Z" fill="#272727"/>
<path d="M153.739 176.531C153.372 176.486 153.154 176.313 153.409 175.953C155.089 173.554 155.186 170.697 155.786 167.975C156.739 163.604 157.143 159.158 157.391 154.704C157.428 154.081 157.758 154.486 157.961 154.426C162.055 157.238 166.021 160.207 169.65 163.596C171.51 165.329 171.465 165.583 169.47 167.038C164.934 170.352 160.15 173.262 155.209 175.916C154.744 176.163 154.234 176.328 153.747 176.523L153.739 176.531Z" fill="#1D1D1D"/>
<path d="M136.703 39.0519C136.703 37.8447 136.269 37.8747 135.354 38.452C134.274 39.1269 133.044 39.5468 131.912 40.1391C129.123 41.5937 126.101 42.666 123.612 44.638C122.937 45.1704 122.3 45.5528 121.52 45.8827C120.897 46.1451 119.968 46.1901 119.75 47.2548C119.675 47.6148 118.903 48.2071 118.191 47.9597C117.898 47.8622 117.643 47.8322 117.613 48.1096C117.433 50.2016 114.929 50.2991 114.269 52.0462C114.037 52.661 113.339 51.9562 112.904 51.8137C112.394 51.6563 112.177 51.1464 112.469 50.599C113.939 47.8547 115.896 45.5453 118.498 43.8057C120.425 42.516 122.345 41.2188 124.249 39.8992C126.514 38.3246 128.875 36.8999 131.26 35.5277C132.212 34.9729 133.464 35.4378 134.319 34.6055C135.189 35.1228 136.081 35.6102 136.921 36.1726C138.278 37.0724 138.188 38.0996 136.703 39.0519Z" fill="#3E3E3E"/>
<path d="M75.5035 53.1336C76.5833 52.8037 76.9657 53.0437 76.9732 54.0409C76.3958 53.876 75.9159 53.561 75.5035 53.1336Z" fill="#313131"/>
<path d="M77.3406 54.296C78.7353 53.8236 78.7653 55.0233 79.1627 55.7732C78.5553 55.2783 77.948 54.7834 77.3406 54.296Z" fill="#313131"/>
<path d="M106.044 30.0619C105.294 29.4996 105.181 28.8247 105.706 28.0449C105.961 28.6898 106.066 29.3646 106.044 30.0619Z" fill="#1D1D1D"/>
<path d="M103.622 19.9769C103.022 19.5346 102.429 19.0847 102.752 18.1924C103.202 18.7098 103.472 19.3171 103.622 19.9769Z" fill="#1D1D1D"/>
<path d="M73.4041 51.9412C73.9065 51.5288 74.4988 51.8287 75.0612 51.6562C75.0912 52.2261 74.4614 52.1586 74.3789 52.541C74.0565 52.3386 73.734 52.1436 73.4041 51.9412Z" fill="#313131"/>
<path d="M72.9167 100.492C69.9249 100.184 66.9557 99.9368 64.2638 98.2947C62.2018 97.035 61.1671 95.1005 60.1623 93.076C60.0049 92.7611 60.1174 92.4012 60.2823 92.0713C61.1896 90.2192 62.1419 88.4047 63.2816 86.6801C63.9114 85.7278 64.0989 84.5431 64.2188 83.4559C64.4813 80.914 65.621 78.9195 67.2706 77.03C72.5268 71.0015 79.1627 66.81 86.0385 62.9934C89.3002 61.1789 92.9443 60.1067 96.5584 59.0869C96.8358 59.0119 97.1507 59.0494 97.4506 59.0494C98.3954 59.0494 99.4976 58.9819 99.9475 59.9267C100.42 60.9239 99.4976 61.6438 98.9428 62.3861C96.6483 65.4828 93.5066 67.6798 90.6348 70.1617C85.9785 74.1882 82.5743 79.122 80.5048 84.888C79.3426 88.1197 78.6828 91.5239 77.9704 94.8981C77.6855 96.2402 77.2056 97.5524 76.6808 98.8196C76.2384 99.8843 74.7013 100.484 72.9317 100.484L72.9167 100.492Z" fill="#393536"/>
<path d="M97.9905 53.0884C92.7493 52.5036 88.1004 53.7033 83.4141 54.5206C82.8517 54.618 82.3418 54.5356 81.832 54.2731C77.0557 51.7762 72.2793 49.2944 67.5105 46.805C66.7082 46.3851 66.3483 45.8152 66.3108 44.818C66.1908 42.0961 66.8882 39.5468 67.7055 37.0199C68.3053 35.1678 69.2951 34.9054 70.9822 36.0226C72.3618 36.9374 73.3516 38.2721 74.5513 39.3818C76.0059 40.724 77.3706 42.1861 78.9302 43.3933C80.3773 44.5105 82.0119 45.4553 83.9615 45.3203C89.84 44.9154 94.5338 47.7197 99.1002 50.8615C99.4526 51.1089 99.7826 51.3713 99.5201 51.9637C99.0627 52.9909 98.9728 53.0884 97.9905 53.0809V53.0884Z" fill="#1D1D1D"/>
<path d="M82.1094 25.083C82.8892 25.083 83.3316 25.7054 83.8115 26.1553C85.971 28.1798 87.8455 30.4667 89.675 32.7761C91.4746 35.0556 93.6491 37.0201 95.2387 39.472C96.6558 41.6614 98.163 43.7909 99.5951 45.9654C99.8125 46.2953 100.225 46.7227 99.7751 47.1576C99.2802 47.6375 98.9803 47.0451 98.6353 46.8502C95.3287 44.9981 92.2769 42.7412 89.1352 40.6417C86.5483 38.9021 83.939 36.9301 82.1244 34.3282C80.7822 32.4012 79.0202 30.6017 78.8402 28.0073C78.7952 27.34 78.7652 26.8151 79.4551 26.5602C80.4223 26.2077 80.9322 25.053 82.1094 25.0755V25.083Z" fill="#393536"/>
<path d="M106.906 48.9569C106.846 49.3918 107.048 49.9541 106.403 50.0591C105.744 50.1641 105.789 49.6392 105.684 49.1968C104.761 45.2153 104.244 41.1363 102.992 37.2373C101.905 33.8706 99.8801 30.9988 97.9006 28.0895C96.4084 25.9001 94.6164 23.9281 93.3117 21.5961C92.7343 20.5689 93.2742 20.134 93.8966 19.8566C95.3287 19.2117 96.7159 18.3869 98.328 18.252C99.5802 18.1395 100.705 18.3494 101.357 19.6166C102.272 21.3862 103.074 23.1183 103.577 25.1203C104.087 27.1448 104.401 29.1993 104.851 31.2313C105.429 33.7956 105.451 36.4275 105.639 39.0143C105.864 42.1711 106.568 45.2453 106.853 48.387C106.868 48.582 106.883 48.7844 106.898 48.9569H106.906Z" fill="#1D1D1D"/>
<path d="M80.5274 136.055C85.7892 136.055 90.0548 131.789 90.0548 126.527C90.0548 121.266 85.7892 117 80.5274 117C75.2656 117 71 121.266 71 126.527C71 131.789 75.2656 136.055 80.5274 136.055Z" fill="white"/>
<path d="M80.5273 121.255C83.439 121.255 85.8006 123.616 85.8008 126.527C85.8006 129.439 83.4391 131.801 80.5273 131.801C77.6156 131.801 75.2551 129.439 75.2549 126.527C75.2551 123.616 77.6156 121.255 80.5273 121.255Z" fill="#0D0D0D"/>
<path d="M128.527 136.055C133.789 136.055 138.055 131.789 138.055 126.527C138.055 121.266 133.789 117 128.527 117C123.266 117 119 121.266 119 126.527C119 131.789 123.266 136.055 128.527 136.055Z" fill="white"/>
<path d="M128.527 121.255C131.439 121.255 133.801 123.616 133.801 126.527C133.801 129.439 131.439 131.801 128.527 131.801C125.616 131.801 123.255 129.439 123.255 126.527C123.255 123.616 125.616 121.255 128.527 121.255Z" fill="#0D0D0D"/>
<path d="M116.056 138.412C115.967 142.94 109.976 149.83 104.863 149.734C99.7502 149.639 94.0245 142.518 94.113 137.99C94.2015 133.463 97.6124 129.861 105.244 130.004C112.876 130.147 116.144 133.885 116.056 138.412Z" fill="#ECC632"/>
</svg>
