<svg width="200" height="200" viewBox="0 0 200 200" fill="none" xmlns="http://www.w3.org/2000/svg">
<mask id="path-1-outside-1_1347_16300" maskUnits="userSpaceOnUse" x="35" y="14" width="129" height="172" fill="black">
<rect fill="white" x="35" y="14" width="129" height="172"/>
<path d="M111.801 35.7998C114.617 31.8578 124.19 19.4685 129.821 21.1572C135.453 22.8467 137.706 38.6154 139.396 45.9365C149.028 60.3857 145.889 78.9534 143.018 88.2539C145.262 87.807 149.301 89.1394 144.381 95.4189C144.234 95.6062 144.079 95.7921 143.918 95.9785C143.945 96.0261 143.972 96.0735 143.999 96.1211C144.155 96.079 144.31 96.0576 144.463 96.0576C152.751 101.908 156.711 110.713 155.243 123.934C162.072 152.427 151.736 172.101 141.648 175.464C128.132 179.969 93.2156 181.659 62.2412 174.338C40.5762 169.217 45.0859 135.442 51.1025 112.52C37.5194 103.878 43.1642 80.0067 43.6572 78.0371C40.8415 69.5898 40.8415 60.5793 49.8516 55.5107C54.7659 52.7464 58.5637 52.6175 60.959 53.2314C62.4144 50.0281 64.1711 46.9036 66.1836 43.6836C66.1838 41.9921 67.8737 22.2835 75.1943 21.1572C81.0512 20.2563 89.6491 30.5437 93.2158 35.7998C103.915 34.1104 108.422 35.7998 111.801 35.7998Z"/>
</mask>
<path d="M111.801 35.7998C114.617 31.8578 124.19 19.4685 129.821 21.1572C135.453 22.8467 137.706 38.6154 139.396 45.9365C149.028 60.3857 145.889 78.9534 143.018 88.2539C145.262 87.807 149.301 89.1394 144.381 95.4189C144.234 95.6062 144.079 95.7921 143.918 95.9785C143.945 96.0261 143.972 96.0735 143.999 96.1211C144.155 96.079 144.31 96.0576 144.463 96.0576C152.751 101.908 156.711 110.713 155.243 123.934C162.072 152.427 151.736 172.101 141.648 175.464C128.132 179.969 93.2156 181.659 62.2412 174.338C40.5762 169.217 45.0859 135.442 51.1025 112.52C37.5194 103.878 43.1642 80.0067 43.6572 78.0371C40.8415 69.5898 40.8415 60.5793 49.8516 55.5107C54.7659 52.7464 58.5637 52.6175 60.959 53.2314C62.4144 50.0281 64.1711 46.9036 66.1836 43.6836C66.1838 41.9921 67.8737 22.2835 75.1943 21.1572C81.0512 20.2563 89.6491 30.5437 93.2158 35.7998C103.915 34.1104 108.422 35.7998 111.801 35.7998Z" fill="#1F4D6A"/>
<path d="M111.801 35.7998V41.7998C113.738 41.7998 115.557 40.864 116.683 39.2872L111.801 35.7998ZM129.821 21.1572L131.545 15.4103L131.545 15.4101L129.821 21.1572ZM139.396 45.9365L133.549 47.2857C133.712 47.9915 134.001 48.662 134.403 49.2647L139.396 45.9365ZM143.018 88.2539L137.285 86.4839C136.661 88.5039 137.146 90.703 138.562 92.2727C139.978 93.8425 142.116 94.5512 144.189 94.1384L143.018 88.2539ZM144.381 95.4189L149.104 99.1196L149.104 99.1195L144.381 95.4189ZM143.918 95.9785L139.374 92.0608C137.72 93.9794 137.449 96.7301 138.697 98.9345L143.918 95.9785ZM143.999 96.1211L138.774 99.0707C140.121 101.457 142.915 102.628 145.561 101.914L143.999 96.1211ZM144.463 96.0576L147.923 91.1558C146.911 90.4412 145.702 90.0576 144.463 90.0576V96.0576ZM155.243 123.934L149.28 123.271C149.203 123.961 149.247 124.658 149.408 125.332L155.243 123.934ZM141.648 175.464L143.546 181.156L143.546 181.156L141.648 175.464ZM62.2412 174.338L60.8611 180.177H60.8611L62.2412 174.338ZM51.1025 112.52L56.906 114.043C57.5683 111.519 56.5242 108.857 54.3231 107.457L51.1025 112.52ZM43.6572 78.0371L49.4776 79.4942C49.7549 78.3866 49.7104 77.2229 49.3493 76.1397L43.6572 78.0371ZM49.8516 55.5107L46.91 50.2813L46.9098 50.2814L49.8516 55.5107ZM60.959 53.2314L59.4692 59.0435C62.2876 59.766 65.2181 58.3622 66.4216 55.7133L60.959 53.2314ZM66.1836 43.6836L71.2716 46.8636C71.8674 45.9102 72.1835 44.8086 72.1836 43.6843L66.1836 43.6836ZM75.1943 21.1572L74.2821 15.227L74.282 15.227L75.1943 21.1572ZM93.2158 35.7998L88.251 39.1688C89.5563 41.0925 91.8554 42.089 94.1516 41.7264L93.2158 35.7998ZM111.801 35.7998L116.683 39.2872C118.006 37.4358 120.868 33.6759 123.954 30.653C125.514 29.1242 126.903 28.0132 127.991 27.3942C129.261 26.6721 129.073 27.1967 128.098 26.9044L129.821 21.1572L131.545 15.4101C127.754 14.2734 124.257 15.7134 122.06 16.9625C119.682 18.3147 117.445 20.2307 115.556 22.0809C111.744 25.816 108.412 30.2218 106.918 32.3124L111.801 35.7998ZM129.821 21.1572L128.097 26.9042C127.215 26.6397 127.413 26.2086 128.226 27.6539C128.926 28.8978 129.637 30.7497 130.327 33.1151C131.754 38.0086 132.578 43.0767 133.549 47.2857L139.396 45.9365L145.242 44.5874C144.524 41.4752 143.376 34.9984 141.847 29.7549C141.058 27.0518 140.044 24.1872 138.685 21.7706C137.439 19.5553 135.243 16.5195 131.545 15.4103L129.821 21.1572ZM139.396 45.9365L134.403 49.2647C142.463 61.3545 140.03 77.592 137.285 86.4839L143.018 88.2539L148.751 90.0239C151.748 80.3147 155.594 59.4169 144.388 42.6083L139.396 45.9365ZM143.018 88.2539L144.189 94.1384C143.944 94.1871 143.698 94.1965 143.363 94.1096C143.035 94.0246 142.051 93.6787 141.323 92.5331C140.515 91.2636 140.732 90.1466 140.778 89.9809C140.794 89.9248 140.635 90.4708 139.658 91.7184L144.381 95.4189L149.104 99.1195C150.586 97.2273 151.768 95.252 152.34 93.1939C152.942 91.0262 152.932 88.4266 151.449 86.095C150.046 83.8871 147.938 82.8994 146.376 82.4941C144.806 82.0868 143.213 82.0972 141.846 82.3694L143.018 88.2539ZM144.381 95.4189L139.658 91.7183C139.589 91.8067 139.498 91.9162 139.374 92.0608L143.918 95.9785L148.462 99.8963C148.659 99.6681 148.88 99.4057 149.104 99.1196L144.381 95.4189ZM143.918 95.9785L138.697 98.9345C138.778 99.0778 138.721 98.9773 138.774 99.0707L143.999 96.1211L149.224 93.1715C149.204 93.1355 149.184 93.1018 149.171 93.0783C149.156 93.0516 149.147 93.0368 149.139 93.0225L143.918 95.9785ZM143.999 96.1211L145.561 101.914C145.245 101.999 144.874 102.058 144.463 102.058V96.0576V90.0576C143.745 90.0576 143.065 90.1585 142.437 90.328L143.999 96.1211ZM144.463 96.0576L141.003 100.959C144.31 103.294 146.579 106.073 147.944 109.469C149.33 112.918 149.934 117.384 149.28 123.271L155.243 123.934L161.207 124.596C162.021 117.263 161.378 110.715 159.079 104.994C156.759 99.2205 152.904 94.6715 147.923 91.1558L144.463 96.0576ZM155.243 123.934L149.408 125.332C152.593 138.62 151.692 149.504 149.102 157.211C146.41 165.222 142.271 168.932 139.751 169.772L141.648 175.464L143.546 181.156C151.114 178.633 157.186 170.825 160.477 161.034C163.869 150.941 164.722 137.741 161.078 122.535L155.243 123.934ZM141.648 175.464L139.751 169.772C133.888 171.726 122.525 173.266 108.462 173.336C94.5463 173.404 78.5587 172.029 63.6213 168.499L62.2412 174.338L60.8611 180.177C76.8982 183.968 93.856 185.408 108.521 185.336C123.04 185.264 135.893 183.707 143.546 181.156L141.648 175.464ZM62.2412 174.338L63.6214 168.499C59.8884 167.616 57.4226 165.613 55.6688 162.67C53.8013 159.537 52.6559 155.156 52.2768 149.689C51.5168 138.729 53.9474 125.314 56.906 114.043L51.1025 112.52L45.2991 110.996C42.241 122.647 39.4084 137.581 40.3056 150.519C40.7551 157.002 42.1685 163.458 45.3607 168.814C48.6666 174.36 53.7615 178.499 60.8611 180.177L62.2412 174.338ZM51.1025 112.52L54.3231 107.457C50.143 104.798 48.3071 99.3537 48.0984 92.5915C47.8985 86.1121 49.2819 80.2761 49.4776 79.4942L43.6572 78.0371L37.8368 76.58C37.5395 77.7678 35.8539 84.8524 36.1041 92.9615C36.3456 100.788 38.4788 111.6 47.882 117.582L51.1025 112.52ZM43.6572 78.0371L49.3493 76.1397C48.1063 72.4107 47.713 69.1793 48.2072 66.6633C48.6423 64.4483 49.8156 62.4152 52.7933 60.7401L49.8516 55.5107L46.9098 50.2814C40.8774 53.6748 37.5457 58.6813 36.4322 64.3505C35.3778 69.7187 36.3924 75.2162 37.9651 79.9345L43.6572 78.0371ZM49.8516 55.5107L52.7931 60.7402C56.5899 58.6045 58.8078 58.874 59.4692 59.0435L60.959 53.2314L62.4488 47.4193C58.3196 46.3609 52.9419 46.8883 46.91 50.2813L49.8516 55.5107ZM60.959 53.2314L66.4216 55.7133C67.7342 52.8243 69.3485 49.9405 71.2716 46.8636L66.1836 43.6836L61.0956 40.5036C58.9937 43.8667 57.0946 47.2318 55.4963 50.7496L60.959 53.2314ZM66.1836 43.6836L72.1836 43.6843C72.1836 43.7516 72.189 43.481 72.2485 42.7909C72.3016 42.1738 72.387 41.3465 72.5123 40.3805C72.7649 38.4332 73.1668 36.0235 73.76 33.682C74.3704 31.273 75.1011 29.2713 75.8782 27.9418C76.7504 26.4494 76.9731 26.9542 76.1067 27.0875L75.1943 21.1572L74.282 15.227C69.7552 15.9234 67.0215 19.3141 65.5179 21.8867C63.9191 24.6222 62.8548 27.8645 62.1276 30.7348C60.6778 36.4568 60.1838 42.3019 60.1836 43.6829L66.1836 43.6836ZM75.1943 21.1572L76.1065 27.0875C75.7011 27.1498 75.9399 26.9566 77.105 27.5926C78.1793 28.1789 79.4986 29.1779 80.9625 30.549C83.8808 33.282 86.6421 36.7979 88.251 39.1688L93.2158 35.7998L98.1807 32.4308C96.2228 29.5456 92.9019 25.2897 89.1653 21.7903C87.3018 20.0451 85.1506 18.3127 82.854 17.0593C80.6483 15.8555 77.6161 14.7142 74.2821 15.227L75.1943 21.1572ZM93.2158 35.7998L94.1516 41.7264C104.501 40.0923 106.357 41.7998 111.801 41.7998V35.7998V29.7998C110.487 29.7998 103.329 28.1286 92.28 29.8732L93.2158 35.7998Z" fill="white" mask="url(#path-1-outside-1_1347_16300)"/>
<path d="M75.1943 21.1573C81.0512 20.2562 89.6488 30.5433 93.2155 35.7995C103.915 34.1101 108.422 35.7995 111.801 35.7995C114.616 31.8574 124.19 19.4678 129.822 21.1573C135.453 22.8468 137.706 38.6154 139.396 45.9365C150.659 62.8313 144.464 85.3578 141.648 92.1158C169.131 137.169 155.164 170.959 141.648 175.464C128.132 179.969 93.2159 181.659 62.2415 174.338C31.267 167.016 53.794 101.126 57.7363 92.1158C53.7942 69.0261 57.7363 57.1997 66.1837 43.6838C66.1837 41.9943 67.8732 22.2836 75.1943 21.1573Z" fill="#4B9AE8"/>
<path d="M100.344 133.79C83.6748 133.79 71.6231 114.642 69.9336 100C121.181 112.953 136.387 98.3106 142.018 96.6211C127.939 124.216 121.181 133.79 100.344 133.79Z" fill="#91C7FD"/>
<path d="M83.1235 70.2431C87.8138 70.2431 91.6161 66.4408 91.6161 61.7504C91.6161 57.0601 87.8138 53.2578 83.1235 53.2578C78.4331 53.2578 74.6309 57.0601 74.6309 61.7504C74.6309 66.4408 78.4331 70.2431 83.1235 70.2431Z" fill="white"/>
<path d="M83.1245 66.2772C85.6245 66.2772 87.6513 64.2505 87.6513 61.7504C87.6513 59.2504 85.6245 57.2236 83.1245 57.2236C80.6244 57.2236 78.5977 59.2504 78.5977 61.7504C78.5977 64.2505 80.6244 66.2772 83.1245 66.2772Z" fill="#040000"/>
<path d="M123.672 70.2431C128.363 70.2431 132.165 66.4408 132.165 61.7504C132.165 57.0601 128.363 53.2578 123.672 53.2578C118.982 53.2578 115.18 57.0601 115.18 61.7504C115.18 66.4408 118.982 70.2431 123.672 70.2431Z" fill="white"/>
<path d="M123.671 66.2772C126.171 66.2772 128.198 64.2505 128.198 61.7504C128.198 59.2504 126.171 57.2236 123.671 57.2236C121.171 57.2236 119.145 59.2504 119.145 61.7504C119.145 64.2505 121.171 66.2772 123.671 66.2772Z" fill="#040000"/>
<path d="M75.7566 27.3523C73.0534 28.0766 72.0022 38.9173 71.8145 44.2472C75.1934 41.9945 83.0777 38.6155 88.7093 37.4892C87.0198 35.2366 79.1356 26.4469 75.7566 27.3523Z" fill="#FFB9D5"/>
<path d="M128.132 27.3523C130.835 28.0766 131.886 38.9173 132.074 44.2472C128.695 41.9945 120.811 38.6155 115.179 37.4892C116.869 35.2366 124.753 26.4469 128.132 27.3523Z" fill="#FFB9D5"/>
<path d="M102.011 41.6978C96.9421 41.6978 93.5632 36.063 93 35.4999C100.321 33.8104 108.058 34.3736 112 35.4999C111.437 36.6262 107.079 41.6978 102.011 41.6978Z" fill="#7AB9F8"/>
<path d="M91.5254 78.0371C92.2542 79.5389 94.5863 82.5424 98.0846 82.5424C101.583 82.5424 103.429 79.5389 103.915 78.0371C104.887 79.5389 107.559 82.5424 110.474 82.5424C113.389 82.5424 115.576 79.5389 116.305 78.0371" stroke="#27639F" stroke-width="1.78887" stroke-linecap="round" stroke-linejoin="round"/>
<path d="M110.054 70.6111C111.843 74.1888 107.032 78.661 103.793 78.661C100.553 78.661 96.9332 73.2944 99.3209 69.7166C101.111 67.0339 108.405 67.3129 110.054 70.6111Z" fill="#EAC00F"/>
<path d="M105.741 99.9489C122.811 99.9489 137.075 92.5886 142.073 88.6253C143.606 87.493 150.148 88.0591 144.381 95.4195C138.614 102.78 121.899 109.574 105.164 109.574C89.0157 109.574 69.983 102.78 68.2529 98.2504C66.8688 94.6268 69.5986 92.966 71.1365 92.5886C75.558 95.2308 88.6696 99.9489 105.741 99.9489Z" fill="#B73333"/>
<path d="M102.246 100.563C107.555 100.564 112.057 104.009 113.645 108.785C114.331 108.747 114.987 109.409 115.145 110.326C115.301 111.238 114.907 112.075 114.255 112.274C114.257 112.375 114.259 112.476 114.259 112.577C114.259 119.212 108.88 124.59 102.246 124.59C95.6115 124.59 90.2327 119.212 90.2324 112.577C90.2324 112.474 90.2328 112.372 90.2354 112.27C89.5932 112.061 89.2076 111.23 89.3623 110.326C89.5182 109.416 90.1663 108.756 90.8467 108.783C92.4351 104.008 96.9373 100.563 102.246 100.563Z" fill="#FCD105"/>
<path d="M102.246 119.695V123.255" stroke="#D77603" stroke-width="1.3348" stroke-linecap="round"/>
<path d="M112.256 108.573C108.029 106.348 97.8038 105.349 91.7891 108.573" stroke="#D77603" stroke-width="1.3348" stroke-linecap="round"/>
<path d="M113.59 112.131C108.918 110.352 97.9204 108.908 91.1211 112.131" stroke="#D77603" stroke-width="1.3348" stroke-linecap="round"/>
<circle cx="102.245" cy="116.136" r="4.0044" fill="#D77603"/>
<path d="M80.8263 138.295C82.5158 139.984 92.0896 149.558 88.1475 163.074M72.3789 163.074C79.7 161.197 94.7928 161.385 96.5949 177.153" stroke="#27639F" stroke-width="1.12633" stroke-linecap="round" stroke-linejoin="round"/>
<path d="M125.316 138.295C123.627 139.984 114.053 149.558 117.995 163.074M133.764 163.074C126.443 161.197 111.35 161.385 109.548 177.153" stroke="#27639F" stroke-width="1.12633" stroke-linecap="round" stroke-linejoin="round"/>
<path d="M49.8521 55.5102C57.0606 51.4555 61.8662 53.0699 63.368 54.3839C73.5041 61.1419 75.0064 90.2725 79.1357 105.632C78.3848 111.451 76.3199 118.359 58.2987 115.205C35.7722 111.263 43.0933 80.2894 43.6573 78.0368C40.8415 69.5893 40.8415 60.5787 49.8521 55.5102Z" fill="#428AD1"/>
<path d="M47.5988 67.8994C46.8479 69.4012 45.684 73.3058 47.0356 76.91" stroke="#27639F" stroke-width="1.12633" stroke-linecap="round" stroke-linejoin="round"/>
<path d="M54.3573 67.8994C53.7942 68.4626 53.231 74.6574 54.3573 76.3469M61.6793 67.8994C61.4916 69.7766 61.3414 73.9816 62.2425 75.7837" stroke="#27639F" stroke-width="1.12633" stroke-linecap="round" stroke-linejoin="round"/>
<path d="M73.2734 169.245C73.6948 170.255 74.3283 172.928 73.4912 175.538" stroke="#27639F" stroke-width="1.12633" stroke-linecap="round" stroke-linejoin="round"/>
<path d="M80.6807 169.191C81.2335 170.6 82.0346 173.942 80.817 176.04M87.5305 169.054C88.6134 170.731 90.3469 174.703 88.6183 177.182" stroke="#27639F" stroke-width="1.12633" stroke-linecap="round" stroke-linejoin="round"/>
<path d="M130.947 169.245C130.526 170.255 129.892 172.928 130.729 175.538" stroke="#27639F" stroke-width="1.12633" stroke-linecap="round" stroke-linejoin="round"/>
<path d="M123.538 169.19C122.985 170.599 122.184 173.941 123.402 176.039M116.688 169.053C115.605 170.73 113.872 174.702 115.6 177.181" stroke="#27639F" stroke-width="1.12633" stroke-linecap="round" stroke-linejoin="round"/>
<path d="M118.123 128.721C132.764 119.71 139.394 96.0576 144.463 96.0576C154.037 102.816 157.839 113.516 154.166 130.411C150.493 147.305 131.076 156.175 122.628 155.753C111.365 155.19 109.969 133.739 118.123 128.721Z" fill="#428AD1"/>
<path d="M121.373 136.605C120.435 137.732 118.107 140.097 116.305 140.548" stroke="#27639F" stroke-width="1.12633" stroke-linecap="round" stroke-linejoin="round"/>
<path d="M124.19 142.8C123.064 144.114 120.361 146.967 118.559 147.868M129.822 146.742C128.883 148.244 126.443 151.36 124.19 151.81" stroke="#27639F" stroke-width="1.12633" stroke-linecap="round" stroke-linejoin="round"/>
</svg>
