<svg width="200" height="200" viewBox="0 0 200 200" fill="none" xmlns="http://www.w3.org/2000/svg">
<mask id="path-1-outside-1_1062_20787" maskUnits="userSpaceOnUse" x="15.4287" y="39" width="170" height="122" fill="black">
<rect fill="white" x="15.4287" y="39" width="170" height="122"/>
<path d="M21.4287 98.4286C21.4287 27.1905 100 27.1905 100 98.4286C100 121.476 90.309 155 60.7139 155C31.119 155 21.4287 121.476 21.4287 98.4286ZM100 98.4286C100 27.1905 178.571 27.1905 178.571 98.4286C178.571 121.476 168.881 155 139.286 155C109.691 155 100 121.476 100 98.4286Z"/>
</mask>
<path d="M21.4287 98.4286L15.4287 98.4286L15.4287 98.4286L21.4287 98.4286ZM100 98.4286L94 98.4286L94 98.4286L100 98.4286ZM60.7139 155L60.7138 161H60.7139V155ZM178.571 98.4286L184.571 98.4286V98.4286H178.571ZM139.286 155L139.286 161L139.286 161L139.286 155ZM21.4287 98.4286H27.4287C27.4287 65.0078 45.4002 51 60.7144 51C76.0286 51 94 65.0078 94 98.4286H100H106C106 60.6112 84.6858 39 60.7144 39C36.7429 39 15.4287 60.6112 15.4287 98.4286H21.4287ZM100 98.4286L94 98.4286C94 109.283 91.691 122.36 86.1837 132.491C80.7916 142.41 72.7154 149 60.7139 149V155V161C78.3076 161 89.8743 150.828 96.7266 138.223C103.463 125.83 106 110.622 106 98.4286L100 98.4286ZM60.7139 155L60.7139 149C48.7126 149 40.6366 142.41 35.2447 132.491C29.7375 122.36 27.4287 109.283 27.4287 98.4286L21.4287 98.4286L15.4287 98.4286C15.4287 110.622 17.9651 125.83 24.7018 138.222C31.5538 150.827 43.1203 161 60.7138 161L60.7139 155ZM100 98.4286H106C106 65.0078 123.971 51 139.286 51C154.6 51 172.571 65.0078 172.571 98.4286H178.571H184.571C184.571 60.6112 163.257 39 139.286 39C115.314 39 94 60.6112 94 98.4286H100ZM178.571 98.4286L172.571 98.4286C172.571 109.283 170.262 122.36 164.755 132.491C159.363 142.41 151.287 149 139.286 149L139.286 155L139.286 161C156.88 161 168.446 150.827 175.298 138.222C182.035 125.83 184.571 110.622 184.571 98.4286L178.571 98.4286ZM139.286 155V149C127.285 149 119.208 142.41 113.816 132.491C108.309 122.36 106 109.283 106 98.4286L100 98.4286L94 98.4286C94 110.622 96.5366 125.83 103.273 138.223C110.126 150.828 121.692 161 139.286 161V155Z" fill="white" mask="url(#path-1-outside-1_1062_20787)"/>
<path d="M21.4287 98.4286C21.4287 121.476 31.1192 155 60.7144 155C90.3097 155 100 121.476 100 98.4286C100 27.1905 21.4287 27.1905 21.4287 98.4286ZM100 98.4286C100 121.476 109.691 155 139.286 155C168.881 155 178.572 121.476 178.572 98.4286C178.572 27.1905 100 27.1905 100 98.4286Z" fill="#D7E8FC"/>
<path d="M23.5254 100.262C23.5254 120.167 29.8111 150.81 54.954 150.81C80.0968 150.81 86.3825 119.905 86.3825 100.262C86.1206 32.1669 23.5254 32.1669 23.5254 100.262ZM102.097 100.262C102.097 120.167 108.383 150.81 133.525 150.81C158.668 150.81 164.954 119.905 164.954 100.262C164.692 32.1669 102.097 32.1669 102.097 100.262Z" fill="white"/>
<ellipse cx="56.5" cy="100" rx="14.5" ry="19" fill="black"/>
<ellipse cx="131.5" cy="100" rx="14.5" ry="19" fill="black"/>
</svg>
