<svg width="200" height="200" viewBox="0 0 200 200" fill="none" xmlns="http://www.w3.org/2000/svg">
<mask id="path-1-outside-1_1062_20958" maskUnits="userSpaceOnUse" x="17.7266" y="11" width="164" height="180" fill="black">
<rect fill="white" x="17.7266" y="11" width="164" height="180"/>
<path d="M100.778 17C124.278 17 143.318 36.9999 143.318 63.8398C143.318 65.9526 142.768 70.1331 142.464 72.2832C143.628 71.9363 144.864 71.4263 146.168 70.6777C153.12 66.6864 150.057 68.7778 159.247 60.3369C168.437 51.8962 174.084 56.099 175.28 63.209C175.215 75.3578 171.466 86.1437 161.79 95.6826C165.424 102.653 167.519 110.309 167.519 118.29H167.488C167.488 129.67 163.668 139.8 157.078 148.11C151.196 155.528 143.11 161.502 133.562 165.64L135.363 172.525L141.836 172.76C142.664 172.79 143.311 173.485 143.281 174.312C143.251 175.14 142.555 175.787 141.728 175.757L136.222 175.559L138.006 181.615C138.24 182.41 137.784 183.243 136.989 183.478C136.195 183.711 135.361 183.256 135.127 182.462L133.581 177.207L128.064 184.275C127.555 184.928 126.612 185.044 125.959 184.534C125.306 184.024 125.19 183.082 125.699 182.429L132.557 173.645L130.763 166.785C122.344 170.025 112.903 171.888 102.908 172.12C102.198 172.14 101.479 172.15 100.759 172.15C100.039 172.15 99.3184 172.15 98.6084 172.12C87.2681 171.856 76.6417 169.495 67.4111 165.404L65.0957 171.145L70.2148 178.796C70.6754 179.484 70.491 180.416 69.8027 180.877C69.1144 181.337 68.1823 181.153 67.7217 180.465L63.46 174.096L58.4863 182.167C58.0517 182.872 57.127 183.091 56.4219 182.657C55.717 182.223 55.4976 181.299 55.9316 180.594L60.2061 173.656L52.8887 175.467L52.7373 175.496C51.985 175.603 51.2587 175.124 51.0723 174.37C50.8736 173.566 51.3642 172.753 52.168 172.554L62.3037 170.048L64.6914 164.129C56.56 160.1 49.638 154.673 44.4385 148.12C44.4385 148.12 44.4385 148.12 44.4385 148.11C37.8485 139.8 34.0283 129.67 34.0283 118.29C34.0283 110.122 35.9969 102.354 39.5439 95.3164C29.9314 87.3756 25.2845 77.6556 23.7266 66.3066C23.9832 59.1012 29.0335 54.1959 39.248 61.3633C49.4624 68.5305 46.1518 66.8577 53.5654 69.9062C55.2522 70.5998 56.7942 70.9562 58.2021 71.1143C58.2136 68.7837 58.2285 65.5742 58.2285 63.8398C58.2286 36.9999 77.2784 17 100.778 17Z"/>
</mask>
<path d="M100.778 17C124.278 17 143.318 36.9999 143.318 63.8398C143.318 65.9526 142.768 70.1331 142.464 72.2832C143.628 71.9363 144.864 71.4263 146.168 70.6777C153.12 66.6864 150.057 68.7778 159.247 60.3369C168.437 51.8962 174.084 56.099 175.28 63.209C175.215 75.3578 171.466 86.1437 161.79 95.6826C165.424 102.653 167.519 110.309 167.519 118.29H167.488C167.488 129.67 163.668 139.8 157.078 148.11C151.196 155.528 143.11 161.502 133.562 165.64L135.363 172.525L141.836 172.76C142.664 172.79 143.311 173.485 143.281 174.312C143.251 175.14 142.555 175.787 141.728 175.757L136.222 175.559L138.006 181.615C138.24 182.41 137.784 183.243 136.989 183.478C136.195 183.711 135.361 183.256 135.127 182.462L133.581 177.207L128.064 184.275C127.555 184.928 126.612 185.044 125.959 184.534C125.306 184.024 125.19 183.082 125.699 182.429L132.557 173.645L130.763 166.785C122.344 170.025 112.903 171.888 102.908 172.12C102.198 172.14 101.479 172.15 100.759 172.15C100.039 172.15 99.3184 172.15 98.6084 172.12C87.2681 171.856 76.6417 169.495 67.4111 165.404L65.0957 171.145L70.2148 178.796C70.6754 179.484 70.491 180.416 69.8027 180.877C69.1144 181.337 68.1823 181.153 67.7217 180.465L63.46 174.096L58.4863 182.167C58.0517 182.872 57.127 183.091 56.4219 182.657C55.717 182.223 55.4976 181.299 55.9316 180.594L60.2061 173.656L52.8887 175.467L52.7373 175.496C51.985 175.603 51.2587 175.124 51.0723 174.37C50.8736 173.566 51.3642 172.753 52.168 172.554L62.3037 170.048L64.6914 164.129C56.56 160.1 49.638 154.673 44.4385 148.12C44.4385 148.12 44.4385 148.12 44.4385 148.11C37.8485 139.8 34.0283 129.67 34.0283 118.29C34.0283 110.122 35.9969 102.354 39.5439 95.3164C29.9314 87.3756 25.2845 77.6556 23.7266 66.3066C23.9832 59.1012 29.0335 54.1959 39.248 61.3633C49.4624 68.5305 46.1518 66.8577 53.5654 69.9062C55.2522 70.5998 56.7942 70.9562 58.2021 71.1143C58.2136 68.7837 58.2285 65.5742 58.2285 63.8398C58.2286 36.9999 77.2784 17 100.778 17Z" fill="white"/>
<path d="M143.318 63.8398L149.318 63.8398L149.318 63.8398L143.318 63.8398ZM142.464 72.2832L136.523 71.4434C136.237 73.4669 137 75.4968 138.549 76.8302C140.098 78.1636 142.219 78.6169 144.177 78.0333L142.464 72.2832ZM146.168 70.6777L149.155 75.8812L149.155 75.8811L146.168 70.6777ZM159.247 60.3369L155.188 55.9179L155.188 55.9179L159.247 60.3369ZM175.28 63.209L181.28 63.2411C181.282 62.8968 181.254 62.553 181.197 62.2135L175.28 63.209ZM161.79 95.6826L157.578 91.4098C155.701 93.2602 155.251 96.1188 156.469 98.456L161.79 95.6826ZM167.519 118.29V124.29C170.832 124.29 173.519 121.604 173.519 118.29H167.519ZM167.488 118.29V112.29C164.175 112.29 161.488 114.976 161.488 118.29L167.488 118.29ZM157.078 148.11L152.377 144.382L152.377 144.382L157.078 148.11ZM133.562 165.64L131.177 160.134C128.46 161.312 127.009 164.294 127.758 167.158L133.562 165.64ZM135.363 172.525L129.559 174.043C130.229 176.606 132.499 178.426 135.146 178.521L135.363 172.525ZM141.836 172.76L142.054 166.764L142.053 166.764L141.836 172.76ZM143.281 174.312L149.277 174.531L149.277 174.528L143.281 174.312ZM141.728 175.757L141.512 181.753L141.512 181.753L141.728 175.757ZM136.222 175.559L136.438 169.562C134.509 169.493 132.665 170.355 131.482 171.879C130.299 173.403 129.921 175.403 130.466 177.254L136.222 175.559ZM138.006 181.615L143.762 179.921L143.761 179.92L138.006 181.615ZM136.989 183.478L138.681 189.234L138.685 189.233L136.989 183.478ZM135.127 182.462L129.371 184.155L129.371 184.156L135.127 182.462ZM133.581 177.207L139.337 175.514C138.702 173.356 136.914 171.734 134.704 171.313C132.495 170.892 130.235 171.742 128.851 173.515L133.581 177.207ZM128.064 184.275L132.793 187.969L132.794 187.967L128.064 184.275ZM125.959 184.534L122.265 189.263L122.268 189.265L125.959 184.534ZM125.699 182.429L120.97 178.737L120.969 178.738L125.699 182.429ZM132.557 173.645L137.286 177.337C138.437 175.862 138.835 173.936 138.361 172.126L132.557 173.645ZM130.763 166.785L136.567 165.267C136.135 163.615 135.02 162.225 133.5 161.446C131.981 160.667 130.201 160.572 128.608 161.185L130.763 166.785ZM102.908 172.12L102.769 166.122C102.759 166.122 102.749 166.122 102.739 166.122L102.908 172.12ZM100.759 172.15L100.759 178.15L100.759 178.15L100.759 172.15ZM98.6084 172.12L98.8617 166.125C98.8238 166.124 98.7859 166.123 98.748 166.122L98.6084 172.12ZM67.4111 165.404L69.8421 159.919C68.3551 159.26 66.6644 159.233 65.1571 159.844C63.6498 160.455 62.4552 161.651 61.8468 163.16L67.4111 165.404ZM65.0957 171.145L59.5313 168.9C58.7886 170.741 59.0049 172.831 60.1089 174.481L65.0957 171.145ZM70.2148 178.796L75.2017 175.46L75.2017 175.459L70.2148 178.796ZM69.8027 180.877L73.1371 185.865L73.1404 185.863L69.8027 180.877ZM67.7217 180.465L62.735 183.802L62.7359 183.803L67.7217 180.465ZM63.46 174.096L68.4466 170.759C67.3108 169.062 65.3896 168.059 63.3476 168.097C61.3056 168.135 59.4233 169.209 58.3519 170.948L63.46 174.096ZM58.4863 182.167L63.5939 185.316L63.5944 185.315L58.4863 182.167ZM56.4219 182.657L53.273 187.765L53.2757 187.766L56.4219 182.657ZM55.9316 180.594L50.8234 177.446L50.8223 177.448L55.9316 180.594ZM60.2061 173.656L65.3143 176.804C66.5926 174.729 66.4891 172.087 65.0522 170.119C63.6153 168.15 61.1306 167.247 58.7649 167.832L60.2061 173.656ZM52.8887 175.467L54.0288 181.357C54.1297 181.338 54.2301 181.316 54.3298 181.291L52.8887 175.467ZM52.7373 175.496L53.5783 181.437C53.6784 181.423 53.7782 181.406 53.8774 181.387L52.7373 175.496ZM51.0723 174.37L45.2475 175.809L45.2479 175.811L51.0723 174.37ZM52.168 172.554L50.7279 166.729L50.7252 166.73L52.168 172.554ZM62.3037 170.048L63.7437 175.872C65.6134 175.41 67.1475 174.079 67.868 172.292L62.3037 170.048ZM64.6914 164.129L70.2557 166.374C71.4288 163.466 70.1649 160.145 67.3552 158.753L64.6914 164.129ZM44.4385 148.12L49.1385 144.391C47.5519 142.391 44.874 141.614 42.4637 142.454C40.0534 143.295 38.4385 145.568 38.4385 148.12H44.4385ZM44.4385 148.11H50.4385C50.4385 146.757 49.9807 145.443 49.1397 144.382L44.4385 148.11ZM34.0283 118.29L28.0283 118.29L28.0283 118.29L34.0283 118.29ZM39.5439 95.3164L44.9018 98.017C46.1626 95.5156 45.5248 92.4747 43.3652 90.6906L39.5439 95.3164ZM23.7266 66.3066L17.7304 66.0931C17.7181 66.4371 17.7355 66.7816 17.7823 67.1227L23.7266 66.3066ZM39.248 61.3633L42.6944 56.4518L42.6944 56.4518L39.248 61.3633ZM53.5654 69.9062L51.2836 75.4554L51.2836 75.4554L53.5654 69.9062ZM58.2021 71.1143L57.5327 77.0768C59.2248 77.2668 60.9179 76.7289 62.1901 75.5971C63.4623 74.4654 64.1937 72.8464 64.2021 71.1437L58.2021 71.1143ZM58.2285 63.8398L52.2285 63.8398V63.8398H58.2285ZM100.778 17V23C120.511 23 137.318 39.8412 137.318 63.8399L143.318 63.8398L149.318 63.8398C149.318 34.1587 128.046 11 100.778 11V17ZM143.318 63.8398H137.318C137.318 65.4399 136.846 69.1558 136.523 71.4434L142.464 72.2832L148.405 73.123C148.689 71.1104 149.318 66.4652 149.318 63.8398H143.318ZM142.464 72.2832L144.177 78.0333C145.78 77.5558 147.444 76.8637 149.155 75.8812L146.168 70.6777L143.181 65.4743C142.284 65.9889 141.477 66.3167 140.75 66.5331L142.464 72.2832ZM146.168 70.6777L149.155 75.8811C152.263 74.0968 153.921 73.2581 155.682 71.8073C157.077 70.6588 159.064 68.6518 163.306 64.7559L159.247 60.3369L155.188 55.9179C150.24 60.4629 149.163 61.6306 148.054 62.5445C147.311 63.1561 147.024 63.2673 143.18 65.4744L146.168 70.6777ZM159.247 60.3369L163.306 64.7559C167.38 61.0138 168.84 61.7889 168.4 61.6454C168.007 61.5172 168.926 61.6039 169.363 64.2044L175.28 63.209L181.197 62.2135C180.438 57.7041 177.936 52.1344 172.123 50.2375C166.263 48.3253 160.304 51.2193 155.188 55.9179L159.247 60.3369ZM175.28 63.209L169.28 63.1769C169.223 73.9056 165.999 83.1077 157.578 91.4098L161.79 95.6826L166.002 99.9554C176.933 89.1796 181.208 76.81 181.28 63.2411L175.28 63.209ZM161.79 95.6826L156.469 98.456C159.706 104.666 161.519 111.376 161.519 118.29H167.519H173.519C173.519 109.241 171.141 100.641 167.111 92.9093L161.79 95.6826ZM167.519 118.29V112.29H167.488V118.29V124.29H167.519V118.29ZM167.488 118.29L161.488 118.29C161.488 128.258 158.163 137.086 152.377 144.382L157.078 148.11L161.779 151.838C169.173 142.514 173.488 131.082 173.488 118.29L167.488 118.29ZM157.078 148.11L152.377 144.382C147.184 150.931 139.936 156.338 131.177 160.134L133.562 165.64L135.948 171.145C146.284 166.665 155.208 160.125 161.779 151.838L157.078 148.11ZM133.562 165.64L127.758 167.158L129.559 174.043L135.363 172.525L141.168 171.007L139.367 164.122L133.562 165.64ZM135.363 172.525L135.146 178.521L141.619 178.756L141.836 172.76L142.053 166.764L135.58 166.529L135.363 172.525ZM141.836 172.76L141.618 178.756C139.14 178.666 137.196 176.585 137.285 174.097L143.281 174.312L149.277 174.528C149.426 170.385 146.187 166.914 142.054 166.764L141.836 172.76ZM143.281 174.312L137.285 174.094C137.376 171.606 139.465 169.672 141.943 169.761L141.728 175.757L141.512 181.753C145.645 181.901 149.126 178.673 149.277 174.531L143.281 174.312ZM141.728 175.757L141.943 169.761L136.438 169.562L136.222 175.559L136.006 181.555L141.512 181.753L141.728 175.757ZM136.222 175.559L130.466 177.254L132.25 183.311L138.006 181.615L143.761 179.92L141.977 173.863L136.222 175.559ZM138.006 181.615L132.25 183.309C131.545 180.915 132.92 178.422 135.293 177.722L136.989 183.478L138.685 189.233C142.647 188.065 144.934 183.904 143.762 179.921L138.006 181.615ZM136.989 183.478L135.297 177.721C137.68 177.021 140.181 178.383 140.883 180.768L135.127 182.462L129.371 184.156C130.541 188.13 134.71 190.401 138.681 189.234L136.989 183.478ZM135.127 182.462L140.883 180.769L139.337 175.514L133.581 177.207L127.825 178.9L129.371 184.155L135.127 182.462ZM133.581 177.207L128.851 173.515L123.335 180.584L128.064 184.275L132.794 187.967L138.311 180.899L133.581 177.207ZM128.064 184.275L123.336 180.582C124.868 178.621 127.694 178.278 129.65 179.804L125.959 184.534L122.268 189.265C125.53 191.81 130.242 191.235 132.793 187.969L128.064 184.275ZM125.959 184.534L129.653 179.806C131.608 181.333 131.96 184.158 130.43 186.119L125.699 182.429L120.969 178.738C118.42 182.005 119.005 186.716 122.265 189.263L125.959 184.534ZM125.699 182.429L130.429 186.121L137.286 177.337L132.557 173.645L127.827 169.952L120.97 178.737L125.699 182.429ZM132.557 173.645L138.361 172.126L136.567 165.267L130.763 166.785L124.958 168.303L126.752 175.163L132.557 173.645ZM130.763 166.785L128.608 161.185C120.867 164.164 112.112 165.904 102.769 166.122L102.908 172.12L103.048 178.118C113.694 177.871 123.82 175.886 132.918 172.385L130.763 166.785ZM102.908 172.12L102.739 166.122C102.085 166.141 101.422 166.15 100.759 166.15L100.759 172.15L100.759 178.15C101.535 178.15 102.311 178.139 103.077 178.118L102.908 172.12ZM100.759 172.15V166.15C100.019 166.15 99.4243 166.149 98.8617 166.125L98.6084 172.12L98.3551 178.115C99.2124 178.151 100.059 178.15 100.759 178.15V172.15ZM98.6084 172.12L98.748 166.122C88.144 165.875 78.3025 163.668 69.8421 159.919L67.4111 165.404L64.9802 170.89C74.981 175.322 86.3921 177.838 98.4688 178.118L98.6084 172.12ZM67.4111 165.404L61.8468 163.16L59.5313 168.9L65.0957 171.145L70.6601 173.389L72.9755 167.649L67.4111 165.404ZM65.0957 171.145L60.1089 174.481L65.228 182.132L70.2148 178.796L75.2017 175.459L70.0825 167.808L65.0957 171.145ZM70.2148 178.796L65.228 182.132C63.8473 180.069 64.3986 177.274 66.465 175.891L69.8027 180.877L73.1404 185.863C76.5834 183.558 77.5035 178.9 75.2017 175.46L70.2148 178.796ZM69.8027 180.877L66.4683 175.889C68.5296 174.511 71.3229 175.059 72.7074 177.127L67.7217 180.465L62.7359 183.803C65.0417 187.247 69.6991 188.163 73.1371 185.865L69.8027 180.877ZM67.7217 180.465L72.7083 177.128L68.4466 170.759L63.46 174.096L58.4733 177.432L62.735 183.802L67.7217 180.465ZM63.46 174.096L58.3519 170.948L53.3783 179.019L58.4863 182.167L63.5944 185.315L68.568 177.243L63.46 174.096ZM58.4863 182.167L53.3788 179.018C54.683 176.903 57.4534 176.246 59.5681 177.548L56.4219 182.657L53.2757 187.766C56.8007 189.937 61.4204 188.841 63.5939 185.316L58.4863 182.167ZM56.4219 182.657L59.5707 177.55C61.6851 178.854 62.3435 181.624 61.041 183.739L55.9316 180.594L50.8223 177.448C48.6516 180.974 49.7489 185.592 53.273 187.765L56.4219 182.657ZM55.9316 180.594L61.0399 183.741L65.3143 176.804L60.2061 173.656L55.0978 170.509L50.8234 177.446L55.9316 180.594ZM60.2061 173.656L58.7649 167.832L51.4475 169.642L52.8887 175.467L54.3298 181.291L61.6472 179.481L60.2061 173.656ZM52.8887 175.467L51.7485 169.576L51.5972 169.605L52.7373 175.496L53.8774 181.387L54.0288 181.357L52.8887 175.467ZM52.7373 175.496L51.8963 169.555C54.1619 169.235 56.337 170.667 56.8967 172.929L51.0723 174.37L45.2479 175.811C46.1804 179.58 49.808 181.971 53.5783 181.437L52.7373 175.496ZM51.0723 174.37L56.8971 172.931C57.4928 175.342 56.0229 177.78 53.6108 178.378L52.168 172.554L50.7252 166.73C46.7056 167.726 44.2544 171.791 45.2475 175.809L51.0723 174.37ZM52.168 172.554L53.608 178.378L63.7437 175.872L62.3037 170.048L60.8637 164.223L50.7279 166.729L52.168 172.554ZM62.3037 170.048L67.868 172.292L70.2557 166.374L64.6914 164.129L59.1271 161.884L56.7394 167.803L62.3037 170.048ZM64.6914 164.129L67.3552 158.753C59.924 155.071 53.7287 150.175 49.1385 144.391L44.4385 148.12L39.7384 151.85C45.5473 159.17 53.196 165.129 62.0276 169.505L64.6914 164.129ZM44.4385 148.12C50.4385 148.12 50.4385 148.12 50.4385 148.12C50.4385 148.12 50.4385 148.12 50.4385 148.12C50.4385 148.12 50.4385 148.12 50.4385 148.12C50.4385 148.12 50.4385 148.12 50.4385 148.12C50.4385 148.12 50.4385 148.12 50.4385 148.12C50.4385 148.12 50.4385 148.12 50.4385 148.12C50.4385 148.12 50.4385 148.12 50.4385 148.12C50.4385 148.12 50.4385 148.12 50.4385 148.12C50.4385 148.12 50.4385 148.12 50.4385 148.12C50.4385 148.12 50.4385 148.12 50.4385 148.12C50.4385 148.12 50.4385 148.12 50.4385 148.12C50.4385 148.12 50.4385 148.12 50.4385 148.12C50.4385 148.12 50.4385 148.12 50.4385 148.12C50.4385 148.12 50.4385 148.12 50.4385 148.12C50.4385 148.12 50.4385 148.12 50.4385 148.12C50.4385 148.12 50.4385 148.12 50.4385 148.12C50.4385 148.12 50.4385 148.12 50.4385 148.12C50.4385 148.12 50.4385 148.12 50.4385 148.12C50.4385 148.12 50.4385 148.12 50.4385 148.12C50.4385 148.12 50.4385 148.12 50.4385 148.12C50.4385 148.12 50.4385 148.12 50.4385 148.12C50.4385 148.12 50.4385 148.12 50.4385 148.12C50.4385 148.12 50.4385 148.12 50.4385 148.12C50.4385 148.12 50.4385 148.12 50.4385 148.12C50.4385 148.12 50.4385 148.12 50.4385 148.12C50.4385 148.12 50.4385 148.12 50.4385 148.12C50.4385 148.12 50.4385 148.12 50.4385 148.12C50.4385 148.12 50.4385 148.12 50.4385 148.12C50.4385 148.12 50.4385 148.12 50.4385 148.12C50.4385 148.12 50.4385 148.12 50.4385 148.12C50.4385 148.12 50.4385 148.12 50.4385 148.12C50.4385 148.12 50.4385 148.12 50.4385 148.12C50.4385 148.12 50.4385 148.12 50.4385 148.12C50.4385 148.12 50.4385 148.12 50.4385 148.12C50.4385 148.12 50.4385 148.12 50.4385 148.12C50.4385 148.12 50.4385 148.12 50.4385 148.12C50.4385 148.12 50.4385 148.12 50.4385 148.12C50.4385 148.12 50.4385 148.12 50.4385 148.12C50.4385 148.12 50.4385 148.12 50.4385 148.12C50.4385 148.12 50.4385 148.12 50.4385 148.12C50.4385 148.12 50.4385 148.12 50.4385 148.12C50.4385 148.12 50.4385 148.12 50.4385 148.12C50.4385 148.12 50.4385 148.12 50.4385 148.12C50.4385 148.12 50.4385 148.12 50.4385 148.12C50.4385 148.12 50.4385 148.12 50.4385 148.12C50.4385 148.12 50.4385 148.12 50.4385 148.12C50.4385 148.12 50.4385 148.12 50.4385 148.12C50.4385 148.12 50.4385 148.12 50.4385 148.12C50.4385 148.12 50.4385 148.12 50.4385 148.12C50.4385 148.12 50.4385 148.12 50.4385 148.12C50.4385 148.12 50.4385 148.12 50.4385 148.12C50.4385 148.12 50.4385 148.12 50.4385 148.12C50.4385 148.12 50.4385 148.12 50.4385 148.12C50.4385 148.12 50.4385 148.12 50.4385 148.12C50.4385 148.12 50.4385 148.12 50.4385 148.12C50.4385 148.12 50.4385 148.12 50.4385 148.12C50.4385 148.12 50.4385 148.12 50.4385 148.12C50.4385 148.12 50.4385 148.12 50.4385 148.12C50.4385 148.12 50.4385 148.12 50.4385 148.12C50.4385 148.12 50.4385 148.12 50.4385 148.12C50.4385 148.12 50.4385 148.12 50.4385 148.12C50.4385 148.12 50.4385 148.12 50.4385 148.12C50.4385 148.12 50.4385 148.12 50.4385 148.12C50.4385 148.12 50.4385 148.12 50.4385 148.12C50.4385 148.12 50.4385 148.12 50.4385 148.12C50.4385 148.12 50.4385 148.12 50.4385 148.12C50.4385 148.12 50.4385 148.12 50.4385 148.12C50.4385 148.12 50.4385 148.12 50.4385 148.12C50.4385 148.12 50.4385 148.12 50.4385 148.12C50.4385 148.12 50.4385 148.12 50.4385 148.12C50.4385 148.12 50.4385 148.12 50.4385 148.12C50.4385 148.12 50.4385 148.12 50.4385 148.12C50.4385 148.12 50.4385 148.12 50.4385 148.12C50.4385 148.12 50.4385 148.12 50.4385 148.12C50.4385 148.12 50.4385 148.12 50.4385 148.12C50.4385 148.12 50.4385 148.12 50.4385 148.12C50.4385 148.12 50.4385 148.12 50.4385 148.12C50.4385 148.12 50.4385 148.12 50.4385 148.12C50.4385 148.12 50.4385 148.12 50.4385 148.12C50.4385 148.12 50.4385 148.12 50.4385 148.12C50.4385 148.12 50.4385 148.12 50.4385 148.12C50.4385 148.12 50.4385 148.12 50.4385 148.12C50.4385 148.12 50.4385 148.12 50.4385 148.12C50.4385 148.12 50.4385 148.12 50.4385 148.12C50.4385 148.12 50.4385 148.12 50.4385 148.12C50.4385 148.12 50.4385 148.12 50.4385 148.12C50.4385 148.12 50.4385 148.12 50.4385 148.12C50.4385 148.12 50.4385 148.12 50.4385 148.12C50.4385 148.12 50.4385 148.12 50.4385 148.12C50.4385 148.12 50.4385 148.12 50.4385 148.12C50.4385 148.12 50.4385 148.12 50.4385 148.12C50.4385 148.12 50.4385 148.12 50.4385 148.12C50.4385 148.12 50.4385 148.12 50.4385 148.12C50.4385 148.12 50.4385 148.12 50.4385 148.12C50.4385 148.12 50.4385 148.12 50.4385 148.12C50.4385 148.12 50.4385 148.12 50.4385 148.12C50.4385 148.12 50.4385 148.12 50.4385 148.12C50.4385 148.12 50.4385 148.12 50.4385 148.12C50.4385 148.12 50.4385 148.12 50.4385 148.12C50.4385 148.12 50.4385 148.12 50.4385 148.12C50.4385 148.12 50.4385 148.12 50.4385 148.12C50.4385 148.12 50.4385 148.12 50.4385 148.12C50.4385 148.12 50.4385 148.12 50.4385 148.12C50.4385 148.12 50.4385 148.12 50.4385 148.12C50.4385 148.12 50.4385 148.12 50.4385 148.12C50.4385 148.12 50.4385 148.12 50.4385 148.12C50.4385 148.12 50.4385 148.12 50.4385 148.12C50.4385 148.12 50.4385 148.12 50.4385 148.12C50.4385 148.12 50.4385 148.12 50.4385 148.12C50.4385 148.12 50.4385 148.12 50.4385 148.12C50.4385 148.12 50.4385 148.12 50.4385 148.12C50.4385 148.12 50.4385 148.12 50.4385 148.12C50.4385 148.12 50.4385 148.12 50.4385 148.12C50.4385 148.12 50.4385 148.12 50.4385 148.12C50.4385 148.12 50.4385 148.12 50.4385 148.12C50.4385 148.12 50.4385 148.12 50.4385 148.12C50.4385 148.12 50.4385 148.12 50.4385 148.12C50.4385 148.12 50.4385 148.12 50.4385 148.12C50.4385 148.12 50.4385 148.12 50.4385 148.12C50.4385 148.12 50.4385 148.12 50.4385 148.12C50.4385 148.12 50.4385 148.12 50.4385 148.12C50.4385 148.12 50.4385 148.12 50.4385 148.12C50.4385 148.12 50.4385 148.12 50.4385 148.12C50.4385 148.12 50.4385 148.12 50.4385 148.12C50.4385 148.12 50.4385 148.12 50.4385 148.12C50.4385 148.12 50.4385 148.12 50.4385 148.12C50.4385 148.12 50.4385 148.12 50.4385 148.12C50.4385 148.12 50.4385 148.12 50.4385 148.12C50.4385 148.12 50.4385 148.12 50.4385 148.12C50.4385 148.12 50.4385 148.12 50.4385 148.12C50.4385 148.12 50.4385 148.12 50.4385 148.12C50.4385 148.12 50.4385 148.12 50.4385 148.12C50.4385 148.12 50.4385 148.12 50.4385 148.12C50.4385 148.12 50.4385 148.12 50.4385 148.12C50.4385 148.12 50.4385 148.12 50.4385 148.12C50.4385 148.12 50.4385 148.12 50.4385 148.12C50.4385 148.12 50.4385 148.12 50.4385 148.12C50.4385 148.12 50.4385 148.12 50.4385 148.12C50.4385 148.12 50.4385 148.12 50.4385 148.12C50.4385 148.12 50.4385 148.12 50.4385 148.12C50.4385 148.12 50.4385 148.12 50.4385 148.12C50.4385 148.12 50.4385 148.12 50.4385 148.12C50.4385 148.12 50.4385 148.12 50.4385 148.12C50.4385 148.12 50.4385 148.12 50.4385 148.12C50.4385 148.12 50.4385 148.12 50.4385 148.12C50.4385 148.12 50.4385 148.12 50.4385 148.12C50.4385 148.12 50.4385 148.12 50.4385 148.12C50.4385 148.12 50.4385 148.12 50.4385 148.12C50.4385 148.12 50.4385 148.12 50.4385 148.12C50.4385 148.12 50.4385 148.12 50.4385 148.12C50.4385 148.12 50.4385 148.12 50.4385 148.12C50.4385 148.12 50.4385 148.12 50.4385 148.12C50.4385 148.12 50.4385 148.12 50.4385 148.12C50.4385 148.12 50.4385 148.12 50.4385 148.12C50.4385 148.12 50.4385 148.12 50.4385 148.12C50.4385 148.12 50.4385 148.12 50.4385 148.12C50.4385 148.12 50.4385 148.12 50.4385 148.12C50.4385 148.12 50.4385 148.12 50.4385 148.12C50.4385 148.12 50.4385 148.12 50.4385 148.12C50.4385 148.12 50.4385 148.12 50.4385 148.12C50.4385 148.12 50.4385 148.12 50.4385 148.12C50.4385 148.12 50.4385 148.12 50.4385 148.12C50.4385 148.12 50.4385 148.12 50.4385 148.12C50.4385 148.12 50.4385 148.12 50.4385 148.12C50.4385 148.12 50.4385 148.12 50.4385 148.12C50.4385 148.12 50.4385 148.12 50.4385 148.12C50.4385 148.12 50.4385 148.12 50.4385 148.12C50.4385 148.12 50.4385 148.12 50.4385 148.12C50.4385 148.12 50.4385 148.12 50.4385 148.12C50.4385 148.12 50.4385 148.12 50.4385 148.12C50.4385 148.12 50.4385 148.12 50.4385 148.12C50.4385 148.12 50.4385 148.12 50.4385 148.12C50.4385 148.12 50.4385 148.12 50.4385 148.12C50.4385 148.12 50.4385 148.12 50.4385 148.12C50.4385 148.12 50.4385 148.12 50.4385 148.12C50.4385 148.12 50.4385 148.12 50.4385 148.12C50.4385 148.12 50.4385 148.12 50.4385 148.12C50.4385 148.12 50.4385 148.12 50.4385 148.12C50.4385 148.12 50.4385 148.12 50.4385 148.12C50.4385 148.12 50.4385 148.12 50.4385 148.12C50.4385 148.12 50.4385 148.12 50.4385 148.12C50.4385 148.12 50.4385 148.12 50.4385 148.12C50.4385 148.12 50.4385 148.12 50.4385 148.12C50.4385 148.12 50.4385 148.12 50.4385 148.12C50.4385 148.12 50.4385 148.12 50.4385 148.12C50.4385 148.12 50.4385 148.12 50.4385 148.12C50.4385 148.12 50.4385 148.12 50.4385 148.12C50.4385 148.12 50.4385 148.12 50.4385 148.12C50.4385 148.12 50.4385 148.12 50.4385 148.12C50.4385 148.12 50.4385 148.12 50.4385 148.12C50.4385 148.12 50.4385 148.12 50.4385 148.12C50.4385 148.12 50.4385 148.12 50.4385 148.12C50.4385 148.12 50.4385 148.12 50.4385 148.12C50.4385 148.12 50.4385 148.12 50.4385 148.12C50.4385 148.12 50.4385 148.12 50.4385 148.12C50.4385 148.12 50.4385 148.12 50.4385 148.12C50.4385 148.12 50.4385 148.12 50.4385 148.12C50.4385 148.12 50.4385 148.12 50.4385 148.12C50.4385 148.12 50.4385 148.12 50.4385 148.12C50.4385 148.12 50.4385 148.12 50.4385 148.119C50.4385 148.119 50.4385 148.119 50.4385 148.119C50.4385 148.119 50.4385 148.119 50.4385 148.119C50.4385 148.119 50.4385 148.119 50.4385 148.119C50.4385 148.119 50.4385 148.119 50.4385 148.119C50.4385 148.119 50.4385 148.119 50.4385 148.119C50.4385 148.119 50.4385 148.119 50.4385 148.119C50.4385 148.119 50.4385 148.119 50.4385 148.119C50.4385 148.119 50.4385 148.119 50.4385 148.119C50.4385 148.119 50.4385 148.119 50.4385 148.119C50.4385 148.119 50.4385 148.119 50.4385 148.119C50.4385 148.119 50.4385 148.119 50.4385 148.119C50.4385 148.119 50.4385 148.119 50.4385 148.119C50.4385 148.119 50.4385 148.119 50.4385 148.119C50.4385 148.119 50.4385 148.119 50.4385 148.119C50.4385 148.119 50.4385 148.119 50.4385 148.119C50.4385 148.119 50.4385 148.119 50.4385 148.119C50.4385 148.119 50.4385 148.119 50.4385 148.119C50.4385 148.119 50.4385 148.119 50.4385 148.119C50.4385 148.119 50.4385 148.119 50.4385 148.119C50.4385 148.119 50.4385 148.119 50.4385 148.119C50.4385 148.119 50.4385 148.119 50.4385 148.119C50.4385 148.119 50.4385 148.119 50.4385 148.119C50.4385 148.119 50.4385 148.119 50.4385 148.119C50.4385 148.119 50.4385 148.119 50.4385 148.119C50.4385 148.119 50.4385 148.119 50.4385 148.119C50.4385 148.119 50.4385 148.119 50.4385 148.119C50.4385 148.119 50.4385 148.119 50.4385 148.119C50.4385 148.119 50.4385 148.119 50.4385 148.119C50.4385 148.119 50.4385 148.119 50.4385 148.119C50.4385 148.119 50.4385 148.119 50.4385 148.119C50.4385 148.119 50.4385 148.119 50.4385 148.119C50.4385 148.119 50.4385 148.119 50.4385 148.119C50.4385 148.119 50.4385 148.119 50.4385 148.119C50.4385 148.119 50.4385 148.119 50.4385 148.119C50.4385 148.119 50.4385 148.119 50.4385 148.119C50.4385 148.119 50.4385 148.119 50.4385 148.119C50.4385 148.119 50.4385 148.119 50.4385 148.119C50.4385 148.119 50.4385 148.119 50.4385 148.119C50.4385 148.119 50.4385 148.119 50.4385 148.119C50.4385 148.119 50.4385 148.119 50.4385 148.119C50.4385 148.119 50.4385 148.119 50.4385 148.119C50.4385 148.119 50.4385 148.119 50.4385 148.119C50.4385 148.119 50.4385 148.119 50.4385 148.119C50.4385 148.119 50.4385 148.119 50.4385 148.119C50.4385 148.119 50.4385 148.119 50.4385 148.119C50.4385 148.119 50.4385 148.119 50.4385 148.119C50.4385 148.119 50.4385 148.119 50.4385 148.119C50.4385 148.119 50.4385 148.119 50.4385 148.119C50.4385 148.119 50.4385 148.119 50.4385 148.119C50.4385 148.119 50.4385 148.119 50.4385 148.119C50.4385 148.119 50.4385 148.119 50.4385 148.119C50.4385 148.119 50.4385 148.119 50.4385 148.119C50.4385 148.119 50.4385 148.119 50.4385 148.119C50.4385 148.119 50.4385 148.119 50.4385 148.119C50.4385 148.119 50.4385 148.119 50.4385 148.119C50.4385 148.119 50.4385 148.119 50.4385 148.119C50.4385 148.119 50.4385 148.119 50.4385 148.119C50.4385 148.119 50.4385 148.119 50.4385 148.119C50.4385 148.119 50.4385 148.119 50.4385 148.119C50.4385 148.119 50.4385 148.119 50.4385 148.119C50.4385 148.119 50.4385 148.119 50.4385 148.119C50.4385 148.119 50.4385 148.119 50.4385 148.119C50.4385 148.119 50.4385 148.119 50.4385 148.119C50.4385 148.119 50.4385 148.119 50.4385 148.119C50.4385 148.119 50.4385 148.119 50.4385 148.119C50.4385 148.119 50.4385 148.119 50.4385 148.119C50.4385 148.119 50.4385 148.119 50.4385 148.119C50.4385 148.119 50.4385 148.119 50.4385 148.119C50.4385 148.119 50.4385 148.119 50.4385 148.119C50.4385 148.119 50.4385 148.119 50.4385 148.119C50.4385 148.119 50.4385 148.119 50.4385 148.119C50.4385 148.119 50.4385 148.119 50.4385 148.119C50.4385 148.119 50.4385 148.119 50.4385 148.119C50.4385 148.119 50.4385 148.119 50.4385 148.119C50.4385 148.119 50.4385 148.119 50.4385 148.119C50.4385 148.119 50.4385 148.119 50.4385 148.119C50.4385 148.119 50.4385 148.119 50.4385 148.119C50.4385 148.119 50.4385 148.119 50.4385 148.119C50.4385 148.118 50.4385 148.118 50.4385 148.118C50.4385 148.118 50.4385 148.118 50.4385 148.118C50.4385 148.118 50.4385 148.118 50.4385 148.118C50.4385 148.118 50.4385 148.118 50.4385 148.118C50.4385 148.118 50.4385 148.118 50.4385 148.118C50.4385 148.118 50.4385 148.118 50.4385 148.118C50.4385 148.118 50.4385 148.118 50.4385 148.118C50.4385 148.118 50.4385 148.118 50.4385 148.118C50.4385 148.118 50.4385 148.118 50.4385 148.118C50.4385 148.118 50.4385 148.118 50.4385 148.118C50.4385 148.118 50.4385 148.118 50.4385 148.118C50.4385 148.118 50.4385 148.118 50.4385 148.118C50.4385 148.118 50.4385 148.118 50.4385 148.118C50.4385 148.118 50.4385 148.118 50.4385 148.118C50.4385 148.118 50.4385 148.118 50.4385 148.118C50.4385 148.118 50.4385 148.118 50.4385 148.118C50.4385 148.118 50.4385 148.118 50.4385 148.118C50.4385 148.118 50.4385 148.118 50.4385 148.118C50.4385 148.118 50.4385 148.118 50.4385 148.118C50.4385 148.118 50.4385 148.118 50.4385 148.118C50.4385 148.118 50.4385 148.118 50.4385 148.118C50.4385 148.118 50.4385 148.118 50.4385 148.118C50.4385 148.118 50.4385 148.118 50.4385 148.118C50.4385 148.118 50.4385 148.118 50.4385 148.118C50.4385 148.118 50.4385 148.118 50.4385 148.118C50.4385 148.118 50.4385 148.118 50.4385 148.118C50.4385 148.118 50.4385 148.118 50.4385 148.118C50.4385 148.118 50.4385 148.118 50.4385 148.118C50.4385 148.118 50.4385 148.118 50.4385 148.118C50.4385 148.118 50.4385 148.118 50.4385 148.118C50.4385 148.118 50.4385 148.118 50.4385 148.118C50.4385 148.118 50.4385 148.118 50.4385 148.118C50.4385 148.118 50.4385 148.118 50.4385 148.118C50.4385 148.118 50.4385 148.118 50.4385 148.118C50.4385 148.118 50.4385 148.118 50.4385 148.118C50.4385 148.118 50.4385 148.118 50.4385 148.118C50.4385 148.118 50.4385 148.118 50.4385 148.118C50.4385 148.118 50.4385 148.118 50.4385 148.118C50.4385 148.118 50.4385 148.118 50.4385 148.118C50.4385 148.118 50.4385 148.118 50.4385 148.118C50.4385 148.118 50.4385 148.118 50.4385 148.118C50.4385 148.118 50.4385 148.118 50.4385 148.118C50.4385 148.118 50.4385 148.118 50.4385 148.118C50.4385 148.118 50.4385 148.118 50.4385 148.118C50.4385 148.118 50.4385 148.118 50.4385 148.118C50.4385 148.118 50.4385 148.118 50.4385 148.118C50.4385 148.118 50.4385 148.118 50.4385 148.118C50.4385 148.118 50.4385 148.118 50.4385 148.118C50.4385 148.118 50.4385 148.118 50.4385 148.118C50.4385 148.118 50.4385 148.118 50.4385 148.117C50.4385 148.117 50.4385 148.117 50.4385 148.117C50.4385 148.117 50.4385 148.117 50.4385 148.117C50.4385 148.117 50.4385 148.117 50.4385 148.117C50.4385 148.117 50.4385 148.117 50.4385 148.117C50.4385 148.117 50.4385 148.117 50.4385 148.117C50.4385 148.117 50.4385 148.117 50.4385 148.117C50.4385 148.117 50.4385 148.117 50.4385 148.117C50.4385 148.117 50.4385 148.117 50.4385 148.117C50.4385 148.117 50.4385 148.117 50.4385 148.117C50.4385 148.117 50.4385 148.117 50.4385 148.117C50.4385 148.117 50.4385 148.117 50.4385 148.117C50.4385 148.117 50.4385 148.117 50.4385 148.117C50.4385 148.117 50.4385 148.117 50.4385 148.117C50.4385 148.117 50.4385 148.117 50.4385 148.117C50.4385 148.117 50.4385 148.117 50.4385 148.117C50.4385 148.117 50.4385 148.117 50.4385 148.117C50.4385 148.117 50.4385 148.117 50.4385 148.117C50.4385 148.117 50.4385 148.117 50.4385 148.117C50.4385 148.117 50.4385 148.117 50.4385 148.117C50.4385 148.117 50.4385 148.117 50.4385 148.117C50.4385 148.117 50.4385 148.117 50.4385 148.117C50.4385 148.117 50.4385 148.117 50.4385 148.117C50.4385 148.117 50.4385 148.117 50.4385 148.117C50.4385 148.117 50.4385 148.117 50.4385 148.117C50.4385 148.117 50.4385 148.117 50.4385 148.117C50.4385 148.117 50.4385 148.117 50.4385 148.117C50.4385 148.117 50.4385 148.117 50.4385 148.117C50.4385 148.117 50.4385 148.117 50.4385 148.117C50.4385 148.117 50.4385 148.117 50.4385 148.117C50.4385 148.117 50.4385 148.117 50.4385 148.117C50.4385 148.117 50.4385 148.117 50.4385 148.117C50.4385 148.117 50.4385 148.117 50.4385 148.117C50.4385 148.117 50.4385 148.117 50.4385 148.117C50.4385 148.117 50.4385 148.117 50.4385 148.117C50.4385 148.117 50.4385 148.117 50.4385 148.117C50.4385 148.117 50.4385 148.117 50.4385 148.117C50.4385 148.117 50.4385 148.117 50.4385 148.117C50.4385 148.117 50.4385 148.117 50.4385 148.116C50.4385 148.116 50.4385 148.116 50.4385 148.116C50.4385 148.116 50.4385 148.116 50.4385 148.116C50.4385 148.116 50.4385 148.116 50.4385 148.116C50.4385 148.116 50.4385 148.116 50.4385 148.116C50.4385 148.116 50.4385 148.116 50.4385 148.116C50.4385 148.116 50.4385 148.116 50.4385 148.116C50.4385 148.116 50.4385 148.116 50.4385 148.116C50.4385 148.116 50.4385 148.116 50.4385 148.116C50.4385 148.116 50.4385 148.116 50.4385 148.116C50.4385 148.116 50.4385 148.116 50.4385 148.116C50.4385 148.116 50.4385 148.116 50.4385 148.116C50.4385 148.116 50.4385 148.116 50.4385 148.116C50.4385 148.116 50.4385 148.116 50.4385 148.116C50.4385 148.116 50.4385 148.116 50.4385 148.116C50.4385 148.116 50.4385 148.116 50.4385 148.116C50.4385 148.116 50.4385 148.116 50.4385 148.116C50.4385 148.116 50.4385 148.116 50.4385 148.116C50.4385 148.116 50.4385 148.116 50.4385 148.116C50.4385 148.116 50.4385 148.116 50.4385 148.116C50.4385 148.116 50.4385 148.116 50.4385 148.116C50.4385 148.116 50.4385 148.116 50.4385 148.116C50.4385 148.116 50.4385 148.116 50.4385 148.116C50.4385 148.116 50.4385 148.116 50.4385 148.116C50.4385 148.116 50.4385 148.116 50.4385 148.116C50.4385 148.116 50.4385 148.116 50.4385 148.116C50.4385 148.116 50.4385 148.116 50.4385 148.116C50.4385 148.116 50.4385 148.116 50.4385 148.116C50.4385 148.116 50.4385 148.116 50.4385 148.116C50.4385 148.116 50.4385 148.116 50.4385 148.116C50.4385 148.116 50.4385 148.116 50.4385 148.116C50.4385 148.116 50.4385 148.116 50.4385 148.116C50.4385 148.116 50.4385 148.115 50.4385 148.115C50.4385 148.115 50.4385 148.115 50.4385 148.115C50.4385 148.115 50.4385 148.115 50.4385 148.115C50.4385 148.115 50.4385 148.115 50.4385 148.115C50.4385 148.115 50.4385 148.115 50.4385 148.115C50.4385 148.115 50.4385 148.115 50.4385 148.115C50.4385 148.115 50.4385 148.115 50.4385 148.115C50.4385 148.115 50.4385 148.115 50.4385 148.115C50.4385 148.115 50.4385 148.115 50.4385 148.115C50.4385 148.115 50.4385 148.115 50.4385 148.115C50.4385 148.115 50.4385 148.115 50.4385 148.115C50.4385 148.115 50.4385 148.115 50.4385 148.115C50.4385 148.115 50.4385 148.115 50.4385 148.115C50.4385 148.115 50.4385 148.115 50.4385 148.115C50.4385 148.115 50.4385 148.115 50.4385 148.115C50.4385 148.115 50.4385 148.115 50.4385 148.115C50.4385 148.115 50.4385 148.115 50.4385 148.115C50.4385 148.115 50.4385 148.115 50.4385 148.115C50.4385 148.115 50.4385 148.115 50.4385 148.115C50.4385 148.115 50.4385 148.115 50.4385 148.115C50.4385 148.115 50.4385 148.115 50.4385 148.115C50.4385 148.115 50.4385 148.115 50.4385 148.115C50.4385 148.115 50.4385 148.115 50.4385 148.115C50.4385 148.115 50.4385 148.115 50.4385 148.115C50.4385 148.115 50.4385 148.115 50.4385 148.115C50.4385 148.115 50.4385 148.115 50.4385 148.115C50.4385 148.115 50.4385 148.115 50.4385 148.115C50.4385 148.115 50.4385 148.115 50.4385 148.114C50.4385 148.114 50.4385 148.114 50.4385 148.114C50.4385 148.114 50.4385 148.114 50.4385 148.114C50.4385 148.114 50.4385 148.114 50.4385 148.114C50.4385 148.114 50.4385 148.114 50.4385 148.114C50.4385 148.114 50.4385 148.114 50.4385 148.114C50.4385 148.114 50.4385 148.114 50.4385 148.114C50.4385 148.114 50.4385 148.114 50.4385 148.114C50.4385 148.114 50.4385 148.114 50.4385 148.114C50.4385 148.114 50.4385 148.114 50.4385 148.114C50.4385 148.114 50.4385 148.114 50.4385 148.114C50.4385 148.114 50.4385 148.114 50.4385 148.114C50.4385 148.114 50.4385 148.114 50.4385 148.114C50.4385 148.114 50.4385 148.114 50.4385 148.114C50.4385 148.114 50.4385 148.114 50.4385 148.114C50.4385 148.114 50.4385 148.114 50.4385 148.114C50.4385 148.114 50.4385 148.114 50.4385 148.114C50.4385 148.114 50.4385 148.114 50.4385 148.114C50.4385 148.114 50.4385 148.114 50.4385 148.114C50.4385 148.114 50.4385 148.114 50.4385 148.114C50.4385 148.114 50.4385 148.114 50.4385 148.114C50.4385 148.114 50.4385 148.114 50.4385 148.114C50.4385 148.114 50.4385 148.114 50.4385 148.114C50.4385 148.114 50.4385 148.114 50.4385 148.114C50.4385 148.114 50.4385 148.114 50.4385 148.113C50.4385 148.113 50.4385 148.113 50.4385 148.113C50.4385 148.113 50.4385 148.113 50.4385 148.113C50.4385 148.113 50.4385 148.113 50.4385 148.113C50.4385 148.113 50.4385 148.113 50.4385 148.113C50.4385 148.113 50.4385 148.113 50.4385 148.113C50.4385 148.113 50.4385 148.113 50.4385 148.113C50.4385 148.113 50.4385 148.113 50.4385 148.113C50.4385 148.113 50.4385 148.113 50.4385 148.113C50.4385 148.113 50.4385 148.113 50.4385 148.113C50.4385 148.113 50.4385 148.113 50.4385 148.113C50.4385 148.113 50.4385 148.113 50.4385 148.113C50.4385 148.113 50.4385 148.113 50.4385 148.113C50.4385 148.113 50.4385 148.113 50.4385 148.113C50.4385 148.113 50.4385 148.113 50.4385 148.113C50.4385 148.113 50.4385 148.113 50.4385 148.113C50.4385 148.113 50.4385 148.113 50.4385 148.113C50.4385 148.113 50.4385 148.113 50.4385 148.113C50.4385 148.113 50.4385 148.113 50.4385 148.113C50.4385 148.113 50.4385 148.113 50.4385 148.113C50.4385 148.113 50.4385 148.113 50.4385 148.113C50.4385 148.113 50.4385 148.113 50.4385 148.113C50.4385 148.113 50.4385 148.113 50.4385 148.112C50.4385 148.112 50.4385 148.112 50.4385 148.112C50.4385 148.112 50.4385 148.112 50.4385 148.112C50.4385 148.112 50.4385 148.112 50.4385 148.112C50.4385 148.112 50.4385 148.112 50.4385 148.112C50.4385 148.112 50.4385 148.112 50.4385 148.112C50.4385 148.112 50.4385 148.112 50.4385 148.112C50.4385 148.112 50.4385 148.112 50.4385 148.112C50.4385 148.112 50.4385 148.112 50.4385 148.112C50.4385 148.112 50.4385 148.112 50.4385 148.112C50.4385 148.112 50.4385 148.112 50.4385 148.112C50.4385 148.112 50.4385 148.112 50.4385 148.112C50.4385 148.112 50.4385 148.112 50.4385 148.112C50.4385 148.112 50.4385 148.112 50.4385 148.112C50.4385 148.112 50.4385 148.112 50.4385 148.112C50.4385 148.112 50.4385 148.112 50.4385 148.112C50.4385 148.112 50.4385 148.112 50.4385 148.112C50.4385 148.112 50.4385 148.112 50.4385 148.112C50.4385 148.112 50.4385 148.112 50.4385 148.112C50.4385 148.112 50.4385 148.112 50.4385 148.112C50.4385 148.112 50.4385 148.112 50.4385 148.111C50.4385 148.111 50.4385 148.111 50.4385 148.111C50.4385 148.111 50.4385 148.111 50.4385 148.111C50.4385 148.111 50.4385 148.111 50.4385 148.111C50.4385 148.111 50.4385 148.111 50.4385 148.111C50.4385 148.111 50.4385 148.111 50.4385 148.111C50.4385 148.111 50.4385 148.111 50.4385 148.111C50.4385 148.111 50.4385 148.111 50.4385 148.111C50.4385 148.111 50.4385 148.111 50.4385 148.111C50.4385 148.111 50.4385 148.111 50.4385 148.111C50.4385 148.111 50.4385 148.111 50.4385 148.111C50.4385 148.111 50.4385 148.111 50.4385 148.111C50.4385 148.111 50.4385 148.111 50.4385 148.111C50.4385 148.111 50.4385 148.111 50.4385 148.111C50.4385 148.111 50.4385 148.111 50.4385 148.111C50.4385 148.111 50.4385 148.111 50.4385 148.111C50.4385 148.111 50.4385 148.111 50.4385 148.111C50.4385 148.111 50.4385 148.111 50.4385 148.111C50.4385 148.111 50.4385 148.111 50.4385 148.111C50.4385 148.111 50.4385 148.11 50.4385 148.11C50.4385 148.11 50.4385 148.11 50.4385 148.11C50.4385 148.11 50.4385 148.11 50.4385 148.11H44.4385H38.4385C38.4385 148.11 38.4385 148.11 38.4385 148.11C38.4385 148.11 38.4385 148.11 38.4385 148.11C38.4385 148.11 38.4385 148.111 38.4385 148.111C38.4385 148.111 38.4385 148.111 38.4385 148.111C38.4385 148.111 38.4385 148.111 38.4385 148.111C38.4385 148.111 38.4385 148.111 38.4385 148.111C38.4385 148.111 38.4385 148.111 38.4385 148.111C38.4385 148.111 38.4385 148.111 38.4385 148.111C38.4385 148.111 38.4385 148.111 38.4385 148.111C38.4385 148.111 38.4385 148.111 38.4385 148.111C38.4385 148.111 38.4385 148.111 38.4385 148.111C38.4385 148.111 38.4385 148.111 38.4385 148.111C38.4385 148.111 38.4385 148.111 38.4385 148.111C38.4385 148.111 38.4385 148.111 38.4385 148.111C38.4385 148.111 38.4385 148.111 38.4385 148.111C38.4385 148.111 38.4385 148.111 38.4385 148.111C38.4385 148.111 38.4385 148.111 38.4385 148.111C38.4385 148.111 38.4385 148.111 38.4385 148.111C38.4385 148.111 38.4385 148.111 38.4385 148.111C38.4385 148.111 38.4385 148.111 38.4385 148.111C38.4385 148.111 38.4385 148.111 38.4385 148.111C38.4385 148.112 38.4385 148.112 38.4385 148.112C38.4385 148.112 38.4385 148.112 38.4385 148.112C38.4385 148.112 38.4385 148.112 38.4385 148.112C38.4385 148.112 38.4385 148.112 38.4385 148.112C38.4385 148.112 38.4385 148.112 38.4385 148.112C38.4385 148.112 38.4385 148.112 38.4385 148.112C38.4385 148.112 38.4385 148.112 38.4385 148.112C38.4385 148.112 38.4385 148.112 38.4385 148.112C38.4385 148.112 38.4385 148.112 38.4385 148.112C38.4385 148.112 38.4385 148.112 38.4385 148.112C38.4385 148.112 38.4385 148.112 38.4385 148.112C38.4385 148.112 38.4385 148.112 38.4385 148.112C38.4385 148.112 38.4385 148.112 38.4385 148.112C38.4385 148.112 38.4385 148.112 38.4385 148.112C38.4385 148.112 38.4385 148.112 38.4385 148.112C38.4385 148.112 38.4385 148.112 38.4385 148.112C38.4385 148.112 38.4385 148.112 38.4385 148.112C38.4385 148.112 38.4385 148.112 38.4385 148.112C38.4385 148.112 38.4385 148.112 38.4385 148.112C38.4385 148.112 38.4385 148.112 38.4385 148.112C38.4385 148.113 38.4385 148.113 38.4385 148.113C38.4385 148.113 38.4385 148.113 38.4385 148.113C38.4385 148.113 38.4385 148.113 38.4385 148.113C38.4385 148.113 38.4385 148.113 38.4385 148.113C38.4385 148.113 38.4385 148.113 38.4385 148.113C38.4385 148.113 38.4385 148.113 38.4385 148.113C38.4385 148.113 38.4385 148.113 38.4385 148.113C38.4385 148.113 38.4385 148.113 38.4385 148.113C38.4385 148.113 38.4385 148.113 38.4385 148.113C38.4385 148.113 38.4385 148.113 38.4385 148.113C38.4385 148.113 38.4385 148.113 38.4385 148.113C38.4385 148.113 38.4385 148.113 38.4385 148.113C38.4385 148.113 38.4385 148.113 38.4385 148.113C38.4385 148.113 38.4385 148.113 38.4385 148.113C38.4385 148.113 38.4385 148.113 38.4385 148.113C38.4385 148.113 38.4385 148.113 38.4385 148.113C38.4385 148.113 38.4385 148.113 38.4385 148.113C38.4385 148.113 38.4385 148.113 38.4385 148.113C38.4385 148.113 38.4385 148.113 38.4385 148.113C38.4385 148.113 38.4385 148.113 38.4385 148.113C38.4385 148.113 38.4385 148.113 38.4385 148.113C38.4385 148.113 38.4385 148.113 38.4385 148.113C38.4385 148.114 38.4385 148.114 38.4385 148.114C38.4385 148.114 38.4385 148.114 38.4385 148.114C38.4385 148.114 38.4385 148.114 38.4385 148.114C38.4385 148.114 38.4385 148.114 38.4385 148.114C38.4385 148.114 38.4385 148.114 38.4385 148.114C38.4385 148.114 38.4385 148.114 38.4385 148.114C38.4385 148.114 38.4385 148.114 38.4385 148.114C38.4385 148.114 38.4385 148.114 38.4385 148.114C38.4385 148.114 38.4385 148.114 38.4385 148.114C38.4385 148.114 38.4385 148.114 38.4385 148.114C38.4385 148.114 38.4385 148.114 38.4385 148.114C38.4385 148.114 38.4385 148.114 38.4385 148.114C38.4385 148.114 38.4385 148.114 38.4385 148.114C38.4385 148.114 38.4385 148.114 38.4385 148.114C38.4385 148.114 38.4385 148.114 38.4385 148.114C38.4385 148.114 38.4385 148.114 38.4385 148.114C38.4385 148.114 38.4385 148.114 38.4385 148.114C38.4385 148.114 38.4385 148.114 38.4385 148.114C38.4385 148.114 38.4385 148.114 38.4385 148.114C38.4385 148.114 38.4385 148.114 38.4385 148.114C38.4385 148.114 38.4385 148.114 38.4385 148.114C38.4385 148.114 38.4385 148.114 38.4385 148.114C38.4385 148.114 38.4385 148.114 38.4385 148.114C38.4385 148.114 38.4385 148.114 38.4385 148.114C38.4385 148.115 38.4385 148.115 38.4385 148.115C38.4385 148.115 38.4385 148.115 38.4385 148.115C38.4385 148.115 38.4385 148.115 38.4385 148.115C38.4385 148.115 38.4385 148.115 38.4385 148.115C38.4385 148.115 38.4385 148.115 38.4385 148.115C38.4385 148.115 38.4385 148.115 38.4385 148.115C38.4385 148.115 38.4385 148.115 38.4385 148.115C38.4385 148.115 38.4385 148.115 38.4385 148.115C38.4385 148.115 38.4385 148.115 38.4385 148.115C38.4385 148.115 38.4385 148.115 38.4385 148.115C38.4385 148.115 38.4385 148.115 38.4385 148.115C38.4385 148.115 38.4385 148.115 38.4385 148.115C38.4385 148.115 38.4385 148.115 38.4385 148.115C38.4385 148.115 38.4385 148.115 38.4385 148.115C38.4385 148.115 38.4385 148.115 38.4385 148.115C38.4385 148.115 38.4385 148.115 38.4385 148.115C38.4385 148.115 38.4385 148.115 38.4385 148.115C38.4385 148.115 38.4385 148.115 38.4385 148.115C38.4385 148.115 38.4385 148.115 38.4385 148.115C38.4385 148.115 38.4385 148.115 38.4385 148.115C38.4385 148.115 38.4385 148.115 38.4385 148.115C38.4385 148.115 38.4385 148.115 38.4385 148.115C38.4385 148.115 38.4385 148.115 38.4385 148.115C38.4385 148.115 38.4385 148.115 38.4385 148.115C38.4385 148.115 38.4385 148.115 38.4385 148.115C38.4385 148.115 38.4385 148.115 38.4385 148.115C38.4385 148.115 38.4385 148.115 38.4385 148.115C38.4385 148.115 38.4385 148.116 38.4385 148.116C38.4385 148.116 38.4385 148.116 38.4385 148.116C38.4385 148.116 38.4385 148.116 38.4385 148.116C38.4385 148.116 38.4385 148.116 38.4385 148.116C38.4385 148.116 38.4385 148.116 38.4385 148.116C38.4385 148.116 38.4385 148.116 38.4385 148.116C38.4385 148.116 38.4385 148.116 38.4385 148.116C38.4385 148.116 38.4385 148.116 38.4385 148.116C38.4385 148.116 38.4385 148.116 38.4385 148.116C38.4385 148.116 38.4385 148.116 38.4385 148.116C38.4385 148.116 38.4385 148.116 38.4385 148.116C38.4385 148.116 38.4385 148.116 38.4385 148.116C38.4385 148.116 38.4385 148.116 38.4385 148.116C38.4385 148.116 38.4385 148.116 38.4385 148.116C38.4385 148.116 38.4385 148.116 38.4385 148.116C38.4385 148.116 38.4385 148.116 38.4385 148.116C38.4385 148.116 38.4385 148.116 38.4385 148.116C38.4385 148.116 38.4385 148.116 38.4385 148.116C38.4385 148.116 38.4385 148.116 38.4385 148.116C38.4385 148.116 38.4385 148.116 38.4385 148.116C38.4385 148.116 38.4385 148.116 38.4385 148.116C38.4385 148.116 38.4385 148.116 38.4385 148.116C38.4385 148.116 38.4385 148.116 38.4385 148.116C38.4385 148.116 38.4385 148.116 38.4385 148.116C38.4385 148.116 38.4385 148.116 38.4385 148.116C38.4385 148.116 38.4385 148.116 38.4385 148.116C38.4385 148.116 38.4385 148.116 38.4385 148.116C38.4385 148.116 38.4385 148.116 38.4385 148.116C38.4385 148.116 38.4385 148.116 38.4385 148.116C38.4385 148.116 38.4385 148.116 38.4385 148.116C38.4385 148.116 38.4385 148.116 38.4385 148.116C38.4385 148.116 38.4385 148.116 38.4385 148.116C38.4385 148.117 38.4385 148.117 38.4385 148.117C38.4385 148.117 38.4385 148.117 38.4385 148.117C38.4385 148.117 38.4385 148.117 38.4385 148.117C38.4385 148.117 38.4385 148.117 38.4385 148.117C38.4385 148.117 38.4385 148.117 38.4385 148.117C38.4385 148.117 38.4385 148.117 38.4385 148.117C38.4385 148.117 38.4385 148.117 38.4385 148.117C38.4385 148.117 38.4385 148.117 38.4385 148.117C38.4385 148.117 38.4385 148.117 38.4385 148.117C38.4385 148.117 38.4385 148.117 38.4385 148.117C38.4385 148.117 38.4385 148.117 38.4385 148.117C38.4385 148.117 38.4385 148.117 38.4385 148.117C38.4385 148.117 38.4385 148.117 38.4385 148.117C38.4385 148.117 38.4385 148.117 38.4385 148.117C38.4385 148.117 38.4385 148.117 38.4385 148.117C38.4385 148.117 38.4385 148.117 38.4385 148.117C38.4385 148.117 38.4385 148.117 38.4385 148.117C38.4385 148.117 38.4385 148.117 38.4385 148.117C38.4385 148.117 38.4385 148.117 38.4385 148.117C38.4385 148.117 38.4385 148.117 38.4385 148.117C38.4385 148.117 38.4385 148.117 38.4385 148.117C38.4385 148.117 38.4385 148.117 38.4385 148.117C38.4385 148.117 38.4385 148.117 38.4385 148.117C38.4385 148.117 38.4385 148.117 38.4385 148.117C38.4385 148.117 38.4385 148.117 38.4385 148.117C38.4385 148.117 38.4385 148.117 38.4385 148.117C38.4385 148.117 38.4385 148.117 38.4385 148.117C38.4385 148.117 38.4385 148.117 38.4385 148.117C38.4385 148.117 38.4385 148.117 38.4385 148.117C38.4385 148.117 38.4385 148.117 38.4385 148.117C38.4385 148.117 38.4385 148.117 38.4385 148.117C38.4385 148.117 38.4385 148.117 38.4385 148.117C38.4385 148.117 38.4385 148.117 38.4385 148.117C38.4385 148.117 38.4385 148.117 38.4385 148.117C38.4385 148.117 38.4385 148.117 38.4385 148.117C38.4385 148.117 38.4385 148.117 38.4385 148.117C38.4385 148.117 38.4385 148.117 38.4385 148.117C38.4385 148.117 38.4385 148.117 38.4385 148.117C38.4385 148.118 38.4385 148.118 38.4385 148.118C38.4385 148.118 38.4385 148.118 38.4385 148.118C38.4385 148.118 38.4385 148.118 38.4385 148.118C38.4385 148.118 38.4385 148.118 38.4385 148.118C38.4385 148.118 38.4385 148.118 38.4385 148.118C38.4385 148.118 38.4385 148.118 38.4385 148.118C38.4385 148.118 38.4385 148.118 38.4385 148.118C38.4385 148.118 38.4385 148.118 38.4385 148.118C38.4385 148.118 38.4385 148.118 38.4385 148.118C38.4385 148.118 38.4385 148.118 38.4385 148.118C38.4385 148.118 38.4385 148.118 38.4385 148.118C38.4385 148.118 38.4385 148.118 38.4385 148.118C38.4385 148.118 38.4385 148.118 38.4385 148.118C38.4385 148.118 38.4385 148.118 38.4385 148.118C38.4385 148.118 38.4385 148.118 38.4385 148.118C38.4385 148.118 38.4385 148.118 38.4385 148.118C38.4385 148.118 38.4385 148.118 38.4385 148.118C38.4385 148.118 38.4385 148.118 38.4385 148.118C38.4385 148.118 38.4385 148.118 38.4385 148.118C38.4385 148.118 38.4385 148.118 38.4385 148.118C38.4385 148.118 38.4385 148.118 38.4385 148.118C38.4385 148.118 38.4385 148.118 38.4385 148.118C38.4385 148.118 38.4385 148.118 38.4385 148.118C38.4385 148.118 38.4385 148.118 38.4385 148.118C38.4385 148.118 38.4385 148.118 38.4385 148.118C38.4385 148.118 38.4385 148.118 38.4385 148.118C38.4385 148.118 38.4385 148.118 38.4385 148.118C38.4385 148.118 38.4385 148.118 38.4385 148.118C38.4385 148.118 38.4385 148.118 38.4385 148.118C38.4385 148.118 38.4385 148.118 38.4385 148.118C38.4385 148.118 38.4385 148.118 38.4385 148.118C38.4385 148.118 38.4385 148.118 38.4385 148.118C38.4385 148.118 38.4385 148.118 38.4385 148.118C38.4385 148.118 38.4385 148.118 38.4385 148.118C38.4385 148.118 38.4385 148.118 38.4385 148.118C38.4385 148.118 38.4385 148.118 38.4385 148.118C38.4385 148.118 38.4385 148.118 38.4385 148.118C38.4385 148.118 38.4385 148.118 38.4385 148.118C38.4385 148.118 38.4385 148.118 38.4385 148.118C38.4385 148.118 38.4385 148.118 38.4385 148.118C38.4385 148.118 38.4385 148.118 38.4385 148.118C38.4385 148.118 38.4385 148.118 38.4385 148.118C38.4385 148.118 38.4385 148.118 38.4385 148.118C38.4385 148.118 38.4385 148.118 38.4385 148.118C38.4385 148.118 38.4385 148.118 38.4385 148.118C38.4385 148.118 38.4385 148.118 38.4385 148.118C38.4385 148.118 38.4385 148.118 38.4385 148.118C38.4385 148.118 38.4385 148.118 38.4385 148.118C38.4385 148.118 38.4385 148.118 38.4385 148.118C38.4385 148.118 38.4385 148.118 38.4385 148.119C38.4385 148.119 38.4385 148.119 38.4385 148.119C38.4385 148.119 38.4385 148.119 38.4385 148.119C38.4385 148.119 38.4385 148.119 38.4385 148.119C38.4385 148.119 38.4385 148.119 38.4385 148.119C38.4385 148.119 38.4385 148.119 38.4385 148.119C38.4385 148.119 38.4385 148.119 38.4385 148.119C38.4385 148.119 38.4385 148.119 38.4385 148.119C38.4385 148.119 38.4385 148.119 38.4385 148.119C38.4385 148.119 38.4385 148.119 38.4385 148.119C38.4385 148.119 38.4385 148.119 38.4385 148.119C38.4385 148.119 38.4385 148.119 38.4385 148.119C38.4385 148.119 38.4385 148.119 38.4385 148.119C38.4385 148.119 38.4385 148.119 38.4385 148.119C38.4385 148.119 38.4385 148.119 38.4385 148.119C38.4385 148.119 38.4385 148.119 38.4385 148.119C38.4385 148.119 38.4385 148.119 38.4385 148.119C38.4385 148.119 38.4385 148.119 38.4385 148.119C38.4385 148.119 38.4385 148.119 38.4385 148.119C38.4385 148.119 38.4385 148.119 38.4385 148.119C38.4385 148.119 38.4385 148.119 38.4385 148.119C38.4385 148.119 38.4385 148.119 38.4385 148.119C38.4385 148.119 38.4385 148.119 38.4385 148.119C38.4385 148.119 38.4385 148.119 38.4385 148.119C38.4385 148.119 38.4385 148.119 38.4385 148.119C38.4385 148.119 38.4385 148.119 38.4385 148.119C38.4385 148.119 38.4385 148.119 38.4385 148.119C38.4385 148.119 38.4385 148.119 38.4385 148.119C38.4385 148.119 38.4385 148.119 38.4385 148.119C38.4385 148.119 38.4385 148.119 38.4385 148.119C38.4385 148.119 38.4385 148.119 38.4385 148.119C38.4385 148.119 38.4385 148.119 38.4385 148.119C38.4385 148.119 38.4385 148.119 38.4385 148.119C38.4385 148.119 38.4385 148.119 38.4385 148.119C38.4385 148.119 38.4385 148.119 38.4385 148.119C38.4385 148.119 38.4385 148.119 38.4385 148.119C38.4385 148.119 38.4385 148.119 38.4385 148.119C38.4385 148.119 38.4385 148.119 38.4385 148.119C38.4385 148.119 38.4385 148.119 38.4385 148.119C38.4385 148.119 38.4385 148.119 38.4385 148.119C38.4385 148.119 38.4385 148.119 38.4385 148.119C38.4385 148.119 38.4385 148.119 38.4385 148.119C38.4385 148.119 38.4385 148.119 38.4385 148.119C38.4385 148.119 38.4385 148.119 38.4385 148.119C38.4385 148.119 38.4385 148.119 38.4385 148.119C38.4385 148.119 38.4385 148.119 38.4385 148.119C38.4385 148.119 38.4385 148.119 38.4385 148.119C38.4385 148.119 38.4385 148.119 38.4385 148.119C38.4385 148.119 38.4385 148.119 38.4385 148.119C38.4385 148.119 38.4385 148.119 38.4385 148.119C38.4385 148.119 38.4385 148.119 38.4385 148.119C38.4385 148.119 38.4385 148.119 38.4385 148.119C38.4385 148.119 38.4385 148.119 38.4385 148.119C38.4385 148.119 38.4385 148.119 38.4385 148.119C38.4385 148.119 38.4385 148.119 38.4385 148.119C38.4385 148.119 38.4385 148.119 38.4385 148.119C38.4385 148.119 38.4385 148.119 38.4385 148.119C38.4385 148.119 38.4385 148.119 38.4385 148.119C38.4385 148.119 38.4385 148.119 38.4385 148.119C38.4385 148.119 38.4385 148.119 38.4385 148.119C38.4385 148.119 38.4385 148.119 38.4385 148.119C38.4385 148.119 38.4385 148.119 38.4385 148.119C38.4385 148.119 38.4385 148.119 38.4385 148.119C38.4385 148.119 38.4385 148.119 38.4385 148.119C38.4385 148.119 38.4385 148.119 38.4385 148.119C38.4385 148.119 38.4385 148.119 38.4385 148.119C38.4385 148.119 38.4385 148.119 38.4385 148.119C38.4385 148.119 38.4385 148.119 38.4385 148.119C38.4385 148.119 38.4385 148.119 38.4385 148.119C38.4385 148.119 38.4385 148.119 38.4385 148.119C38.4385 148.119 38.4385 148.119 38.4385 148.119C38.4385 148.119 38.4385 148.119 38.4385 148.119C38.4385 148.119 38.4385 148.119 38.4385 148.119C38.4385 148.119 38.4385 148.119 38.4385 148.119C38.4385 148.119 38.4385 148.119 38.4385 148.119C38.4385 148.119 38.4385 148.119 38.4385 148.119C38.4385 148.119 38.4385 148.119 38.4385 148.119C38.4385 148.119 38.4385 148.119 38.4385 148.119C38.4385 148.119 38.4385 148.119 38.4385 148.119C38.4385 148.12 38.4385 148.12 38.4385 148.12C38.4385 148.12 38.4385 148.12 38.4385 148.12C38.4385 148.12 38.4385 148.12 38.4385 148.12C38.4385 148.12 38.4385 148.12 38.4385 148.12C38.4385 148.12 38.4385 148.12 38.4385 148.12C38.4385 148.12 38.4385 148.12 38.4385 148.12C38.4385 148.12 38.4385 148.12 38.4385 148.12C38.4385 148.12 38.4385 148.12 38.4385 148.12C38.4385 148.12 38.4385 148.12 38.4385 148.12C38.4385 148.12 38.4385 148.12 38.4385 148.12C38.4385 148.12 38.4385 148.12 38.4385 148.12C38.4385 148.12 38.4385 148.12 38.4385 148.12C38.4385 148.12 38.4385 148.12 38.4385 148.12C38.4385 148.12 38.4385 148.12 38.4385 148.12C38.4385 148.12 38.4385 148.12 38.4385 148.12C38.4385 148.12 38.4385 148.12 38.4385 148.12C38.4385 148.12 38.4385 148.12 38.4385 148.12C38.4385 148.12 38.4385 148.12 38.4385 148.12C38.4385 148.12 38.4385 148.12 38.4385 148.12C38.4385 148.12 38.4385 148.12 38.4385 148.12C38.4385 148.12 38.4385 148.12 38.4385 148.12C38.4385 148.12 38.4385 148.12 38.4385 148.12C38.4385 148.12 38.4385 148.12 38.4385 148.12C38.4385 148.12 38.4385 148.12 38.4385 148.12C38.4385 148.12 38.4385 148.12 38.4385 148.12C38.4385 148.12 38.4385 148.12 38.4385 148.12C38.4385 148.12 38.4385 148.12 38.4385 148.12C38.4385 148.12 38.4385 148.12 38.4385 148.12C38.4385 148.12 38.4385 148.12 38.4385 148.12C38.4385 148.12 38.4385 148.12 38.4385 148.12C38.4385 148.12 38.4385 148.12 38.4385 148.12C38.4385 148.12 38.4385 148.12 38.4385 148.12C38.4385 148.12 38.4385 148.12 38.4385 148.12C38.4385 148.12 38.4385 148.12 38.4385 148.12C38.4385 148.12 38.4385 148.12 38.4385 148.12C38.4385 148.12 38.4385 148.12 38.4385 148.12C38.4385 148.12 38.4385 148.12 38.4385 148.12C38.4385 148.12 38.4385 148.12 38.4385 148.12C38.4385 148.12 38.4385 148.12 38.4385 148.12C38.4385 148.12 38.4385 148.12 38.4385 148.12C38.4385 148.12 38.4385 148.12 38.4385 148.12C38.4385 148.12 38.4385 148.12 38.4385 148.12C38.4385 148.12 38.4385 148.12 38.4385 148.12C38.4385 148.12 38.4385 148.12 38.4385 148.12C38.4385 148.12 38.4385 148.12 38.4385 148.12C38.4385 148.12 38.4385 148.12 38.4385 148.12C38.4385 148.12 38.4385 148.12 38.4385 148.12C38.4385 148.12 38.4385 148.12 38.4385 148.12C38.4385 148.12 38.4385 148.12 38.4385 148.12C38.4385 148.12 38.4385 148.12 38.4385 148.12C38.4385 148.12 38.4385 148.12 38.4385 148.12C38.4385 148.12 38.4385 148.12 38.4385 148.12C38.4385 148.12 38.4385 148.12 38.4385 148.12C38.4385 148.12 38.4385 148.12 38.4385 148.12C38.4385 148.12 38.4385 148.12 38.4385 148.12C38.4385 148.12 38.4385 148.12 38.4385 148.12C38.4385 148.12 38.4385 148.12 38.4385 148.12C38.4385 148.12 38.4385 148.12 38.4385 148.12C38.4385 148.12 38.4385 148.12 38.4385 148.12C38.4385 148.12 38.4385 148.12 38.4385 148.12C38.4385 148.12 38.4385 148.12 38.4385 148.12C38.4385 148.12 38.4385 148.12 38.4385 148.12C38.4385 148.12 38.4385 148.12 38.4385 148.12C38.4385 148.12 38.4385 148.12 38.4385 148.12C38.4385 148.12 38.4385 148.12 38.4385 148.12C38.4385 148.12 38.4385 148.12 38.4385 148.12C38.4385 148.12 38.4385 148.12 38.4385 148.12C38.4385 148.12 38.4385 148.12 38.4385 148.12C38.4385 148.12 38.4385 148.12 38.4385 148.12C38.4385 148.12 38.4385 148.12 38.4385 148.12C38.4385 148.12 38.4385 148.12 38.4385 148.12C38.4385 148.12 38.4385 148.12 38.4385 148.12C38.4385 148.12 38.4385 148.12 38.4385 148.12C38.4385 148.12 38.4385 148.12 38.4385 148.12C38.4385 148.12 38.4385 148.12 38.4385 148.12C38.4385 148.12 38.4385 148.12 38.4385 148.12C38.4385 148.12 38.4385 148.12 38.4385 148.12C38.4385 148.12 38.4385 148.12 38.4385 148.12C38.4385 148.12 38.4385 148.12 38.4385 148.12C38.4385 148.12 38.4385 148.12 38.4385 148.12C38.4385 148.12 38.4385 148.12 38.4385 148.12C38.4385 148.12 38.4385 148.12 38.4385 148.12C38.4385 148.12 38.4385 148.12 38.4385 148.12C38.4385 148.12 38.4385 148.12 38.4385 148.12C38.4385 148.12 38.4385 148.12 38.4385 148.12C38.4385 148.12 38.4385 148.12 38.4385 148.12C38.4385 148.12 38.4385 148.12 38.4385 148.12C38.4385 148.12 38.4385 148.12 38.4385 148.12C38.4385 148.12 38.4385 148.12 38.4385 148.12C38.4385 148.12 38.4385 148.12 38.4385 148.12C38.4385 148.12 38.4385 148.12 38.4385 148.12C38.4385 148.12 38.4385 148.12 38.4385 148.12C38.4385 148.12 38.4385 148.12 38.4385 148.12C38.4385 148.12 38.4385 148.12 38.4385 148.12C38.4385 148.12 38.4385 148.12 38.4385 148.12C38.4385 148.12 38.4385 148.12 38.4385 148.12C38.4385 148.12 38.4385 148.12 38.4385 148.12C38.4385 148.12 38.4385 148.12 38.4385 148.12C38.4385 148.12 38.4385 148.12 38.4385 148.12C38.4385 148.12 38.4385 148.12 38.4385 148.12C38.4385 148.12 38.4385 148.12 38.4385 148.12C38.4385 148.12 38.4385 148.12 38.4385 148.12C38.4385 148.12 38.4385 148.12 38.4385 148.12C38.4385 148.12 38.4385 148.12 38.4385 148.12C38.4385 148.12 38.4385 148.12 38.4385 148.12C38.4385 148.12 38.4385 148.12 38.4385 148.12C38.4385 148.12 38.4385 148.12 38.4385 148.12C38.4385 148.12 38.4385 148.12 38.4385 148.12C38.4385 148.12 38.4385 148.12 38.4385 148.12C38.4385 148.12 38.4385 148.12 38.4385 148.12C38.4385 148.12 38.4385 148.12 38.4385 148.12C38.4385 148.12 38.4385 148.12 38.4385 148.12C38.4385 148.12 38.4385 148.12 38.4385 148.12C38.4385 148.12 38.4385 148.12 38.4385 148.12C38.4385 148.12 38.4385 148.12 38.4385 148.12C38.4385 148.12 38.4385 148.12 38.4385 148.12C38.4385 148.12 38.4385 148.12 38.4385 148.12C38.4385 148.12 38.4385 148.12 38.4385 148.12C38.4385 148.12 38.4385 148.12 38.4385 148.12C38.4385 148.12 38.4385 148.12 38.4385 148.12C38.4385 148.12 38.4385 148.12 38.4385 148.12C38.4385 148.12 38.4385 148.12 38.4385 148.12C38.4385 148.12 38.4385 148.12 38.4385 148.12C38.4385 148.12 38.4385 148.12 38.4385 148.12C38.4385 148.12 38.4385 148.12 38.4385 148.12C38.4385 148.12 38.4385 148.12 38.4385 148.12C38.4385 148.12 38.4385 148.12 38.4385 148.12C38.4385 148.12 38.4385 148.12 38.4385 148.12C38.4385 148.12 38.4385 148.12 38.4385 148.12C38.4385 148.12 38.4385 148.12 38.4385 148.12C38.4385 148.12 38.4385 148.12 38.4385 148.12C38.4385 148.12 38.4385 148.12 38.4385 148.12C38.4385 148.12 38.4385 148.12 38.4385 148.12C38.4385 148.12 38.4385 148.12 38.4385 148.12C38.4385 148.12 38.4385 148.12 38.4385 148.12C38.4385 148.12 38.4385 148.12 38.4385 148.12C38.4385 148.12 38.4385 148.12 38.4385 148.12C38.4385 148.12 38.4385 148.12 38.4385 148.12C38.4385 148.12 38.4385 148.12 38.4385 148.12C38.4385 148.12 38.4385 148.12 38.4385 148.12C38.4385 148.12 38.4385 148.12 38.4385 148.12C38.4385 148.12 38.4385 148.12 38.4385 148.12C38.4385 148.12 38.4385 148.12 38.4385 148.12C38.4385 148.12 38.4385 148.12 38.4385 148.12C38.4385 148.12 38.4385 148.12 38.4385 148.12C38.4385 148.12 38.4385 148.12 38.4385 148.12C38.4385 148.12 38.4385 148.12 38.4385 148.12C38.4385 148.12 38.4385 148.12 38.4385 148.12C38.4385 148.12 38.4385 148.12 38.4385 148.12C38.4385 148.12 38.4385 148.12 38.4385 148.12C38.4385 148.12 38.4385 148.12 38.4385 148.12C38.4385 148.12 38.4385 148.12 38.4385 148.12C38.4385 148.12 38.4385 148.12 38.4385 148.12C38.4385 148.12 38.4385 148.12 38.4385 148.12C38.4385 148.12 38.4385 148.12 38.4385 148.12C38.4385 148.12 38.4385 148.12 38.4385 148.12C38.4385 148.12 38.4385 148.12 38.4385 148.12C38.4385 148.12 38.4385 148.12 38.4385 148.12C38.4385 148.12 38.4385 148.12 38.4385 148.12C38.4385 148.12 38.4385 148.12 38.4385 148.12C38.4385 148.12 38.4385 148.12 38.4385 148.12C38.4385 148.12 38.4385 148.12 38.4385 148.12C38.4385 148.12 38.4385 148.12 38.4385 148.12C38.4385 148.12 38.4385 148.12 38.4385 148.12C38.4385 148.12 38.4385 148.12 38.4385 148.12C38.4385 148.12 38.4385 148.12 38.4385 148.12C38.4385 148.12 38.4385 148.12 38.4385 148.12C38.4385 148.12 38.4385 148.12 38.4385 148.12C38.4385 148.12 38.4385 148.12 38.4385 148.12C38.4385 148.12 38.4385 148.12 38.4385 148.12C38.4385 148.12 38.4385 148.12 38.4385 148.12C38.4385 148.12 38.4385 148.12 38.4385 148.12C38.4385 148.12 38.4385 148.12 38.4385 148.12C38.4385 148.12 38.4385 148.12 38.4385 148.12C38.4385 148.12 38.4385 148.12 38.4385 148.12C38.4385 148.12 38.4385 148.12 38.4385 148.12C38.4385 148.12 38.4385 148.12 38.4385 148.12C38.4385 148.12 38.4385 148.12 38.4385 148.12C38.4385 148.12 38.4385 148.12 38.4385 148.12C38.4385 148.12 38.4385 148.12 38.4385 148.12C38.4385 148.12 38.4385 148.12 38.4385 148.12C38.4385 148.12 38.4385 148.12 38.4385 148.12C38.4385 148.12 38.4385 148.12 38.4385 148.12C38.4385 148.12 38.4385 148.12 38.4385 148.12C38.4385 148.12 38.4385 148.12 38.4385 148.12C38.4385 148.12 38.4385 148.12 38.4385 148.12C38.4385 148.12 38.4385 148.12 38.4385 148.12C38.4385 148.12 38.4385 148.12 38.4385 148.12C38.4385 148.12 38.4385 148.12 38.4385 148.12C38.4385 148.12 38.4385 148.12 38.4385 148.12C38.4385 148.12 38.4385 148.12 38.4385 148.12C38.4385 148.12 38.4385 148.12 38.4385 148.12C38.4385 148.12 38.4385 148.12 38.4385 148.12C38.4385 148.12 38.4385 148.12 38.4385 148.12C38.4385 148.12 38.4385 148.12 38.4385 148.12C38.4385 148.12 38.4385 148.12 38.4385 148.12C38.4385 148.12 38.4385 148.12 38.4385 148.12C38.4385 148.12 38.4385 148.12 38.4385 148.12C38.4385 148.12 38.4385 148.12 38.4385 148.12C38.4385 148.12 38.4385 148.12 44.4385 148.12ZM44.4385 148.11L49.1397 144.382C43.3538 137.086 40.0283 128.258 40.0283 118.29L34.0283 118.29L28.0283 118.29C28.0283 131.082 32.3432 142.514 39.7373 151.838L44.4385 148.11ZM34.0283 118.29H40.0283C40.0283 111.104 41.7569 104.256 44.9018 98.017L39.5439 95.3164L34.1861 92.6158C30.2369 100.451 28.0283 109.14 28.0283 118.29H34.0283ZM39.5439 95.3164L43.3652 90.6906C35.0565 83.8269 31.0508 75.5433 29.6708 65.4906L23.7266 66.3066L17.7823 67.1227C19.5182 79.7678 24.8062 90.9243 35.7227 99.9422L39.5439 95.3164ZM23.7266 66.3066L29.7228 66.5202C29.8166 63.8852 30.7162 63.6787 30.3439 63.8569C29.9273 64.0564 31.2735 63.0974 35.8017 66.2748L39.248 61.3633L42.6944 56.4518C37.008 52.4618 30.7218 50.3717 25.1622 53.0334C19.647 55.6738 17.8931 61.5226 17.7304 66.0931L23.7266 66.3066ZM39.248 61.3633L35.8017 66.2748C40.5157 69.5825 42.7482 71.313 44.28 72.2691C46.216 73.4775 47.969 74.0925 51.2836 75.4554L53.5654 69.9062L55.8473 64.3571C51.7482 62.6715 51.4497 62.5986 50.634 62.0894C49.4141 61.328 48.1947 60.3113 42.6944 56.4518L39.248 61.3633ZM53.5654 69.9062L51.2836 75.4554C53.5081 76.3701 55.5949 76.8592 57.5327 77.0768L58.2021 71.1143L58.8716 65.1517C57.9934 65.0531 56.9963 64.8295 55.8472 64.3571L53.5654 69.9062ZM58.2021 71.1143L64.2021 71.1437C64.2135 68.8188 64.2285 65.5923 64.2285 63.8398H58.2285H52.2285C52.2285 65.5561 52.2137 68.7486 52.2022 71.0848L58.2021 71.1143ZM58.2285 63.8398L64.2285 63.8399C64.2286 39.843 81.0439 23 100.778 23V17V11C73.5129 11 52.2286 34.1568 52.2285 63.8398L58.2285 63.8398Z" fill="white" mask="url(#path-1-outside-1_1062_20958)"/>
<path d="M159.247 60.3367C168.437 51.8958 174.084 56.099 175.28 63.2091C175.211 76.2086 170.924 87.6486 159.671 97.6691C148.417 107.69 139.402 107.451 129.142 103.326C117.318 89.9141 129.084 75.6074 131.641 73.7434C134.199 71.8794 139.217 74.6687 146.168 70.6774C153.12 66.6861 150.056 68.7776 159.247 60.3367Z" fill="#276288"/>
<path d="M39.2477 61.3633C29.0331 54.196 23.9835 59.1012 23.7269 66.3066C25.4949 79.1855 31.2398 89.9672 43.7065 98.431C56.1732 106.895 65.0794 105.48 74.7122 100.05C84.6823 85.2072 71.1472 72.561 68.3683 71.0472C65.5894 69.5334 60.9789 72.9546 53.5653 69.9061C46.1516 66.8575 49.4623 68.5307 39.2477 61.3633Z" fill="#276288"/>
<path d="M129.599 156.409C130.35 156.212 131.117 156.622 131.383 157.334L131.43 157.48L135.364 172.525L141.836 172.759C142.664 172.789 143.311 173.485 143.281 174.313C143.251 175.14 142.556 175.787 141.728 175.757L136.222 175.558L138.005 181.616C138.239 182.41 137.784 183.244 136.99 183.478C136.195 183.712 135.361 183.257 135.127 182.462L133.581 177.207L128.064 184.275C127.555 184.928 126.611 185.044 125.959 184.534C125.306 184.024 125.19 183.081 125.7 182.428L132.556 173.644L128.527 158.24L128.496 158.089C128.379 157.338 128.848 156.605 129.599 156.409Z" fill="#474747"/>
<path d="M68.0617 155.8C68.4158 155.127 69.2291 154.819 69.9494 155.109C70.7177 155.419 71.0895 156.293 70.7795 157.061L65.0959 171.144L70.2151 178.796C70.6756 179.484 70.4912 180.416 69.8029 180.877C69.1146 181.337 68.1826 181.153 67.7219 180.465L63.4602 174.096L58.4865 182.167C58.052 182.872 57.1273 183.091 56.4221 182.657C55.7171 182.223 55.4976 181.299 55.9318 180.594L60.2063 173.656L52.8889 175.467L52.7375 175.496C51.9851 175.603 51.2589 175.124 51.0725 174.37C50.8738 173.566 51.3643 172.753 52.1682 172.554L62.3039 170.048L67.9973 155.938L68.0617 155.8Z" fill="#474747"/>
<path d="M167.488 118.29C167.488 129.67 163.668 139.8 157.078 148.11C145.588 162.6 125.688 171.59 102.908 172.12C102.198 172.14 101.478 172.15 100.758 172.15C100.038 172.15 99.3183 172.15 98.6083 172.12C75.8283 171.59 55.9283 162.6 44.4383 148.12C44.4383 148.12 44.4383 148.12 44.4383 148.11C37.8483 139.8 34.0283 129.67 34.0283 118.29C34.0283 100.43 43.4383 84.48 58.1883 73.91C58.1883 73.91 58.2283 66.77 58.2283 63.84C58.2283 37 77.2783 17 100.778 17C124.278 17 143.318 37 143.318 63.84C143.318 66.76 142.268 73.63 142.268 73.63C157.038 84.2 167.518 100.43 167.518 118.29H167.488Z" fill="#4B9AE8"/>
<path d="M81.544 55.84C85.9181 55.84 89.464 52.2941 89.464 47.92C89.464 43.5459 85.9181 40 81.544 40C77.1699 40 73.624 43.5459 73.624 47.92C73.624 52.2941 77.1699 55.84 81.544 55.84Z" fill="white"/>
<path d="M81.4211 52.7253C84.0434 52.7253 86.1692 50.5994 86.1692 47.9771C86.1692 45.3547 84.0434 43.2289 81.4211 43.2289C78.7987 43.2289 76.6729 45.3547 76.6729 47.9771C76.6729 50.5994 78.7987 52.7253 81.4211 52.7253Z" fill="black"/>
<path d="M121.544 55.84C125.918 55.84 129.464 52.2941 129.464 47.92C129.464 43.5459 125.918 40 121.544 40C117.17 40 113.624 43.5459 113.624 47.92C113.624 52.2941 117.17 55.84 121.544 55.84Z" fill="white"/>
<path d="M121.421 52.7253C124.043 52.7253 126.169 50.5994 126.169 47.9771C126.169 45.3547 124.043 43.2289 121.421 43.2289C118.799 43.2289 116.673 45.3547 116.673 47.9771C116.673 50.5994 118.799 52.7253 121.421 52.7253Z" fill="black"/>
<path d="M109.783 55.667C109.585 59.5613 104.471 65.3953 100.281 65.2253C96.0912 65.0553 91.5962 58.8263 91.798 54.9319C91.9961 51.0376 94.901 47.9915 101.153 48.2456C107.478 48.5049 109.985 51.7725 109.783 55.667Z" fill="#EAC00F"/>
<path d="M126.048 34.2757C119.794 34.8712 113.987 38.1469 110.414 43.3582C109.967 44.1027 107.138 42.3159 107.734 41.4226C111.903 35.4668 118.454 31.5956 125.75 31C126.792 31 126.941 34.2757 126.048 34.2757ZM92.8445 43.3582C89.271 38.1469 83.4642 34.8712 77.2106 34.2757C76.3173 34.2757 76.4662 31 77.5084 31C84.8042 31.5956 91.3556 35.4668 95.5246 41.4226C96.1202 42.3159 93.2912 44.1027 92.8445 43.3582Z" fill="#276288"/>
<path d="M138.204 79.7136C136.949 76.0869 132.764 73.9945 128.719 75.2499C126.766 75.8079 125.231 77.2028 124.255 78.8767C114.212 76.6448 107.124 65 107.124 65C107.124 65 105.424 72.8785 112.677 82.7825C111.143 82.2245 109.469 82.2245 107.795 82.643C103.889 83.8984 101.797 87.8042 103.052 91.431C104.308 95.0578 108.492 97.1502 112.538 95.8947C112.817 95.7552 113.096 95.7552 113.375 95.6157C115.467 100.219 121.047 102.73 126.208 101.056C131.648 99.382 134.717 93.9418 132.903 88.7806C133.182 88.7806 133.461 88.6411 133.74 88.6411C137.367 87.3857 139.599 83.4799 138.204 79.7136ZM62.0415 79.7136C63.2969 76.0869 67.4817 73.9945 71.527 75.2499C73.4798 75.8079 75.0143 77.2028 75.8512 78.8767C85.8946 76.6448 93.124 63 93.124 63C93.124 63 94.8221 72.8785 87.5685 82.7825C89.103 82.2245 90.7769 82.2245 92.4508 82.643C96.3565 83.8984 98.5884 87.8042 97.1935 91.431C95.9381 95.0578 91.7533 97.1502 87.708 95.8947C87.4291 95.7552 87.1501 95.7552 86.8711 95.6157C84.7787 100.219 79.199 102.73 74.0378 101.056C68.7371 99.5215 65.8078 93.9418 67.6212 88.7806C67.3422 88.7806 67.0632 88.6411 66.7842 88.6411C62.8785 87.3857 60.6466 83.4799 62.0415 79.7136Z" fill="white"/>
</svg>
