<svg width="200" height="200" viewBox="0 0 200 200" fill="none" xmlns="http://www.w3.org/2000/svg">
<mask id="path-1-outside-1_1347_6979" maskUnits="userSpaceOnUse" x="14.4883" y="21" width="175" height="158" fill="black">
<rect fill="white" x="14.4883" y="21" width="175" height="158"/>
<path d="M29.29 41.7598C39.7834 26.0104 87.0352 20.7591 108.031 36.5078C108.036 36.5114 108.04 36.5159 108.045 36.5195C108.04 36.5118 108.037 36.5078 108.037 36.5078C108.037 36.5078 108.043 36.5141 108.053 36.5264C108.1 36.5662 108.137 36.6085 108.188 36.6475C109.869 36.5849 111.534 36.5078 113.283 36.5078C149.965 36.5079 171.726 50.5852 175.591 83.2373C179.062 95.8512 182.51 114.168 182.51 137.217C182.51 139.69 180.51 141.689 178.037 141.689C175.564 141.689 173.565 139.69 173.564 137.217C173.564 130.507 173.229 124.249 172.701 118.403C172.124 120.125 171.534 121.816 170.822 123.399C167.034 133.942 161.702 146.574 161.702 154.63C161.702 170.571 152.3 173 140.702 173C129.113 173 119.706 170.571 119.706 154.63C119.706 153.659 119.746 152.76 119.764 151.825C117.657 151.928 115.51 151.999 113.287 151.999C109.602 151.999 106.121 151.807 102.735 151.521C102.753 152.558 102.789 153.556 102.789 154.63C102.789 170.571 93.3869 173 81.7891 173C70.1949 173 60.7931 170.571 60.793 154.63C60.793 144.199 53.6234 123.888 51.8789 111.046C51.7356 110.312 51.5567 109.622 51.4316 108.871C48.2066 120.554 46.4886 139.153 50.291 146.762C55.5374 157.251 60.7884 157.251 55.5371 162.511C50.2861 167.749 34.5365 162.511 29.29 151.999C24.0385 141.505 14.7307 63.6008 29.29 41.7598Z"/>
</mask>
<path d="M29.29 41.7598C39.7834 26.0104 87.0352 20.7591 108.031 36.5078C108.036 36.5114 108.04 36.5159 108.045 36.5195C108.04 36.5118 108.037 36.5078 108.037 36.5078C108.037 36.5078 108.043 36.5141 108.053 36.5264C108.1 36.5662 108.137 36.6085 108.188 36.6475C109.869 36.5849 111.534 36.5078 113.283 36.5078C149.965 36.5079 171.726 50.5852 175.591 83.2373C179.062 95.8512 182.51 114.168 182.51 137.217C182.51 139.69 180.51 141.689 178.037 141.689C175.564 141.689 173.565 139.69 173.564 137.217C173.564 130.507 173.229 124.249 172.701 118.403C172.124 120.125 171.534 121.816 170.822 123.399C167.034 133.942 161.702 146.574 161.702 154.63C161.702 170.571 152.3 173 140.702 173C129.113 173 119.706 170.571 119.706 154.63C119.706 153.659 119.746 152.76 119.764 151.825C117.657 151.928 115.51 151.999 113.287 151.999C109.602 151.999 106.121 151.807 102.735 151.521C102.753 152.558 102.789 153.556 102.789 154.63C102.789 170.571 93.3869 173 81.7891 173C70.1949 173 60.7931 170.571 60.793 154.63C60.793 144.199 53.6234 123.888 51.8789 111.046C51.7356 110.312 51.5567 109.622 51.4316 108.871C48.2066 120.554 46.4886 139.153 50.291 146.762C55.5374 157.251 60.7884 157.251 55.5371 162.511C50.2861 167.749 34.5365 162.511 29.29 151.999C24.0385 141.505 14.7307 63.6008 29.29 41.7598Z" fill="black"/>
<path d="M29.29 41.7598L34.2825 45.0878L34.2833 45.0866L29.29 41.7598ZM108.031 36.5078L111.679 31.7438C111.663 31.7318 111.647 31.7198 111.631 31.708L108.031 36.5078ZM108.045 36.5195L104.254 41.1703C106.548 43.0399 109.862 42.958 112.061 40.9775C114.259 38.9969 114.686 35.7092 113.065 33.2333L108.045 36.5195ZM108.037 36.5078L112.58 32.5884C110.498 30.1747 106.891 29.8109 104.369 31.7599C101.846 33.709 101.288 37.2905 103.098 39.9146L108.037 36.5078ZM108.053 36.5264L103.439 40.3625C103.666 40.6348 103.916 40.8865 104.187 41.1147L108.053 36.5264ZM108.188 36.6475L104.521 41.3972C105.632 42.2545 107.008 42.6954 108.41 42.6433L108.188 36.6475ZM113.283 36.5078L113.283 30.5078H113.283V36.5078ZM175.591 83.2373L169.632 83.9425C169.668 84.242 169.726 84.5384 169.806 84.8292L175.591 83.2373ZM182.51 137.217L188.51 137.217V137.217H182.51ZM178.037 141.689L178.037 147.689H178.037V141.689ZM173.564 137.217H167.564V137.217L173.564 137.217ZM172.701 118.403L178.677 117.864C178.421 115.036 176.219 112.774 173.399 112.444C170.579 112.114 167.914 113.805 167.012 116.497L172.701 118.403ZM170.822 123.399L165.35 120.94C165.286 121.081 165.228 121.225 165.176 121.37L170.822 123.399ZM161.702 154.63L167.702 154.63V154.63H161.702ZM140.702 173V179H140.702L140.702 173ZM119.706 154.63H113.706V154.63L119.706 154.63ZM119.764 151.825L125.763 151.939C125.794 150.278 125.135 148.678 123.943 147.52C122.751 146.363 121.131 145.751 119.472 145.832L119.764 151.825ZM113.287 151.999V157.999H113.287L113.287 151.999ZM102.735 151.521L103.241 145.542C101.55 145.399 99.8771 145.979 98.6375 147.138C97.3979 148.297 96.7071 149.927 96.7362 151.623L102.735 151.521ZM102.789 154.63L108.789 154.63V154.63H102.789ZM81.7891 173V179H81.7891L81.7891 173ZM60.793 154.63H54.793V154.63L60.793 154.63ZM51.8789 111.046L57.8243 110.238C57.8087 110.123 57.7898 110.009 57.7675 109.895L51.8789 111.046ZM51.4316 108.871L57.3502 107.886C56.8879 105.108 54.5564 103.026 51.7446 102.879C48.9328 102.732 46.3971 104.56 45.6479 107.275L51.4316 108.871ZM50.291 146.762L44.9239 149.444L44.9248 149.446L50.291 146.762ZM55.5371 162.511L59.7744 166.759L59.7833 166.75L55.5371 162.511ZM29.29 151.999L34.6585 149.32L34.6557 149.314L29.29 151.999ZM29.29 41.7598L34.2833 45.0866C35.9272 42.6193 39.5363 39.9251 45.2709 37.661C50.8594 35.4548 57.8137 33.9187 65.2206 33.3013C80.3311 32.0416 95.6355 34.7103 104.431 41.3076L108.031 36.5078L111.631 31.708C99.431 22.5566 80.6114 19.9766 64.2237 21.3428C55.8814 22.0382 47.743 23.7837 40.8644 26.4994C34.1319 29.1574 27.8996 33.0256 24.2968 38.4329L29.29 41.7598ZM108.031 36.5078L104.384 41.2718C104.278 41.1911 104.195 41.1218 104.143 41.0769C104.091 41.0333 104.052 40.9984 104.046 40.9925C104.043 40.9904 104.042 40.9888 104.042 40.9891C104.042 40.9892 104.042 40.9891 104.042 40.9892C104.042 40.9893 104.042 40.9893 104.042 40.9894C104.042 40.9896 104.043 40.9899 104.043 40.9902C104.044 40.9908 104.045 40.9918 104.046 40.993C104.051 40.9973 104.064 41.0085 104.08 41.0226C104.11 41.0492 104.173 41.1039 104.254 41.1703L108.045 36.5195L111.836 31.8688C111.915 31.9333 111.975 31.9861 112.003 32.0108C112.018 32.0238 112.03 32.034 112.033 32.0373C112.035 32.039 112.037 32.0405 112.036 32.0397C112.036 32.0395 112.034 32.0374 112.031 32.0348C112.022 32.0269 111.98 31.99 111.927 31.9444C111.872 31.8976 111.787 31.8263 111.679 31.7438L108.031 36.5078ZM108.045 36.5195L113.065 33.2333C113.048 33.208 113.033 33.1843 113.018 33.1623C113.01 33.1513 113.003 33.1406 112.996 33.1304C112.993 33.1253 112.989 33.1203 112.986 33.1154C112.984 33.113 112.983 33.1105 112.981 33.1081C112.98 33.1069 112.979 33.1057 112.979 33.1046C112.978 33.104 112.978 33.1034 112.977 33.1028C112.977 33.1025 112.977 33.1022 112.977 33.1019C112.977 33.1017 112.977 33.1016 112.976 33.1015C112.976 33.1014 112.976 33.1013 112.976 33.1012C112.976 33.1011 112.976 33.101 108.037 36.5078C103.098 39.9146 103.098 39.9145 103.098 39.9144C103.098 39.9144 103.098 39.9142 103.098 39.9142C103.098 39.914 103.098 39.9139 103.098 39.9137C103.097 39.9134 103.097 39.9131 103.097 39.9129C103.096 39.9123 103.096 39.9117 103.096 39.9111C103.095 39.9099 103.094 39.9087 103.093 39.9076C103.092 39.9052 103.09 39.9029 103.088 39.9006C103.085 39.8959 103.082 39.8913 103.079 39.8867C103.073 39.8775 103.067 39.8683 103.06 39.8593C103.048 39.8412 103.036 39.8233 103.025 39.8057L108.045 36.5195ZM108.037 36.5078C103.494 40.4273 103.494 40.4272 103.494 40.4271C103.494 40.4271 103.494 40.427 103.494 40.427C103.494 40.4269 103.494 40.4268 103.494 40.4266C103.494 40.4264 103.493 40.4262 103.493 40.426C103.493 40.4256 103.492 40.4252 103.492 40.4248C103.491 40.424 103.491 40.4232 103.49 40.4224C103.489 40.4208 103.487 40.4192 103.486 40.4176C103.483 40.4144 103.481 40.4114 103.478 40.4084C103.473 40.4024 103.468 40.3967 103.463 40.3913C103.454 40.3805 103.446 40.3709 103.439 40.3625L108.053 36.5264L112.666 32.6902C112.649 32.6695 112.633 32.6507 112.619 32.6337C112.612 32.6252 112.605 32.6172 112.598 32.6096C112.595 32.6058 112.592 32.6022 112.589 32.5986C112.587 32.5969 112.586 32.5951 112.584 32.5934C112.584 32.5926 112.583 32.5917 112.582 32.5909C112.582 32.5904 112.581 32.59 112.581 32.5896C112.581 32.5894 112.581 32.5892 112.581 32.589C112.58 32.5889 112.58 32.5888 112.58 32.5887C112.58 32.5886 112.58 32.5885 112.58 32.5885C112.58 32.5884 112.58 32.5884 108.037 36.5078ZM108.053 36.5264L104.187 41.1147C104.095 41.0374 104.026 40.9743 103.994 40.9438C103.977 40.9286 103.966 40.9178 103.965 40.9171C103.965 40.9169 103.965 40.9168 103.969 40.9203C103.971 40.9229 103.977 40.9285 103.984 40.9348C104.027 40.9761 104.236 41.1772 104.521 41.3972L108.188 36.6475L111.854 31.8977C111.976 31.9923 112.074 32.0761 112.142 32.1365C112.175 32.1664 112.202 32.1913 112.221 32.2085C112.239 32.2252 112.252 32.2374 112.254 32.2397C112.255 32.2409 112.256 32.2414 112.253 32.2389C112.251 32.2373 112.246 32.2321 112.24 32.2268C112.229 32.2159 112.207 32.1948 112.18 32.1695C112.125 32.1186 112.034 32.0353 111.919 31.938L108.053 36.5264ZM108.188 36.6475L108.41 42.6433C110.165 42.5781 111.677 42.5078 113.283 42.5078V36.5078V30.5078C111.391 30.5078 109.574 30.5918 107.965 30.6516L108.188 36.6475ZM113.283 36.5078L113.283 42.5078C130.974 42.5079 144.146 45.9213 153.227 52.4897C162.102 58.9086 167.854 68.9127 169.632 83.9425L175.591 83.2373L181.549 82.5321C179.464 64.9098 172.403 51.5493 160.26 42.7665C148.324 34.1331 132.274 30.5079 113.283 30.5078L113.283 36.5078ZM175.591 83.2373L169.806 84.8292C173.152 96.9899 176.51 114.769 176.51 137.217H182.51H188.51C188.51 113.566 184.971 94.7124 181.376 81.6454L175.591 83.2373ZM182.51 137.217L176.51 137.217C176.51 136.377 177.196 135.689 178.037 135.689V141.689V147.689C183.824 147.689 188.509 143.003 188.51 137.217L182.51 137.217ZM178.037 141.689L178.037 135.689C178.878 135.689 179.564 136.376 179.564 137.217L173.564 137.217L167.564 137.217C167.565 143.004 172.25 147.689 178.037 147.689L178.037 141.689ZM173.564 137.217H179.564C179.564 130.306 179.219 123.867 178.677 117.864L172.701 118.403L166.725 118.943C167.239 124.632 167.564 130.708 167.564 137.217H173.564ZM172.701 118.403L167.012 116.497C166.44 118.204 165.929 119.65 165.35 120.94L170.822 123.399L176.295 125.859C177.138 123.982 177.808 122.047 178.39 120.309L172.701 118.403ZM170.822 123.399L165.176 121.37C163.376 126.379 160.975 132.51 159.143 138.07C157.326 143.585 155.702 149.557 155.702 154.63H161.702H167.702C167.702 151.647 168.744 147.275 170.54 141.825C172.321 136.419 174.48 130.962 176.469 125.428L170.822 123.399ZM161.702 154.63L155.702 154.63C155.702 161.387 153.784 163.732 152.164 164.841C149.996 166.324 146.403 167 140.702 167L140.702 173L140.702 179C146.6 179 153.507 178.462 158.939 174.745C164.919 170.654 167.702 163.814 167.702 154.63L161.702 154.63ZM140.702 173V167C135.007 167 131.414 166.324 129.246 164.841C127.625 163.732 125.706 161.386 125.706 154.63L119.706 154.63L113.706 154.63C113.706 163.815 116.491 170.654 122.47 174.745C127.903 178.461 134.809 179 140.702 179V173ZM119.706 154.63H125.706C125.706 153.713 125.741 153.088 125.763 151.939L119.764 151.825L113.765 151.711C113.751 152.431 113.706 153.605 113.706 154.63H119.706ZM119.764 151.825L119.472 145.832C117.427 145.932 115.383 145.999 113.287 145.999L113.287 151.999L113.287 157.999C115.637 157.999 117.887 157.924 120.056 157.818L119.764 151.825ZM113.287 151.999V145.999C109.812 145.999 106.507 145.818 103.241 145.542L102.735 151.521L102.23 157.499C105.736 157.796 109.391 157.999 113.287 157.999V151.999ZM102.735 151.521L96.7362 151.623C96.7567 152.814 96.7891 153.615 96.7891 154.63H102.789H108.789C108.789 153.498 108.75 152.302 108.734 151.418L102.735 151.521ZM102.789 154.63L96.7891 154.63C96.789 161.387 94.8708 163.732 93.2504 164.841C91.0825 166.324 87.4896 167 81.7891 167L81.7891 173L81.7891 179C87.6863 179 94.5934 178.462 100.026 174.745C106.006 170.654 108.789 163.814 108.789 154.63L102.789 154.63ZM81.7891 173V167C76.0906 167 72.4987 166.324 70.3314 164.841C68.7113 163.733 66.793 161.388 66.793 154.63L60.793 154.63L54.793 154.63C54.793 163.814 57.5757 170.654 63.5551 174.745C68.9872 178.462 75.8934 179 81.7891 179V173ZM60.793 154.63H66.793C66.793 148.516 64.7629 140.041 62.8086 132.277C60.7404 124.061 58.6383 116.23 57.8243 110.238L51.8789 111.046L45.9335 111.854C46.864 118.703 49.219 127.449 51.1716 135.207C53.2383 143.417 54.793 150.313 54.793 154.63H60.793ZM51.8789 111.046L57.7675 109.895C57.5076 108.565 57.48 108.666 57.3502 107.886L51.4316 108.871L45.5131 109.856C45.6334 110.579 45.9636 112.06 45.9903 112.197L51.8789 111.046ZM51.4316 108.871L45.6479 107.275C43.9128 113.56 42.612 121.566 42.2337 129.041C42.0441 132.789 42.0799 136.523 42.4462 139.918C42.8034 143.228 43.5148 146.624 44.9239 149.444L50.291 146.762L55.6581 144.079C55.166 143.095 54.6663 141.313 54.377 138.631C54.0968 136.034 54.0507 132.961 54.2184 129.648C54.5548 123 55.7255 115.865 57.2153 110.468L51.4316 108.871ZM50.291 146.762L44.9248 149.446C47.7055 155.005 51.3216 159.12 51.858 159.925C52.251 160.514 51.5069 159.666 51.7672 158.233C51.9517 157.218 52.4688 157.092 51.2909 158.272L55.5371 162.511L59.7833 166.75C61.2311 165.3 63.061 163.201 63.5739 160.379C64.1626 157.139 62.7625 154.648 61.8433 153.269C59.7555 150.137 58.1229 149.007 55.6572 144.078L50.291 146.762ZM55.5371 162.511L51.2998 158.263C51.4285 158.134 51.1449 158.51 49.7464 158.56C48.4076 158.607 46.5783 158.315 44.5187 157.543C40.3025 155.962 36.4407 152.89 34.6585 149.32L29.29 151.999L23.9216 154.678C27.3858 161.619 34.0221 166.423 40.305 168.779C43.495 169.975 46.9156 170.668 50.1707 170.552C53.3659 170.439 57.0203 169.506 59.7744 166.759L55.5371 162.511ZM29.29 151.999L34.6557 149.314C34.3501 148.703 33.7574 146.961 33.0333 143.804C32.3477 140.814 31.6361 136.98 30.9593 132.518C29.6064 123.601 28.4255 112.398 27.8536 100.838C27.2808 89.2584 27.3269 77.4729 28.3773 67.3419C29.4548 56.9503 31.5058 49.2531 34.2825 45.0878L29.29 41.7598L24.2976 38.4318C19.7946 45.1869 17.5493 55.4181 16.4413 66.1042C15.3063 77.0509 15.2777 89.4924 15.8683 101.431C16.4599 113.389 17.6806 124.995 19.095 134.318C19.8018 138.977 20.5652 143.121 21.337 146.486C22.0702 149.683 22.9171 152.671 23.9243 154.684L29.29 151.999Z" fill="white" mask="url(#path-1-outside-1_1347_6979)"/>
<path d="M175.59 83.2375C171.726 50.5853 149.965 36.5086 113.283 36.5086C111.534 36.5086 109.87 36.5848 108.188 36.6474C108.13 36.6026 108.09 36.5533 108.031 36.5086C87.0355 20.7596 39.7836 26.0107 29.2902 41.7601C14.7307 63.6012 24.0387 141.506 29.2902 152C34.5367 162.511 50.2861 167.749 55.5371 162.511C60.7886 157.251 55.5371 157.251 50.2906 146.762C46.4883 139.153 48.2062 120.555 51.4312 108.872C51.5563 109.623 51.7352 110.312 51.8785 111.046C53.6229 123.887 60.7927 144.199 60.7927 154.63C60.7927 170.572 70.1948 173 81.789 173C93.3869 173 102.789 170.572 102.789 154.63C102.789 153.556 102.753 152.559 102.736 151.521C106.122 151.807 109.601 152 113.287 152C115.51 152 117.657 151.928 119.764 151.825C119.746 152.76 119.706 153.659 119.706 154.63C119.706 170.572 129.113 173 140.702 173C152.3 173 161.702 170.572 161.702 154.63C161.702 146.574 167.034 133.943 170.822 123.4C171.534 121.817 172.124 120.126 172.701 118.404C173.229 124.25 173.564 130.507 173.564 137.217C173.564 139.69 175.564 141.69 178.037 141.69C180.511 141.69 182.51 139.69 182.51 137.217C182.51 114.168 179.061 95.8513 175.59 83.2375Z" fill="#4B9AE8"/>
<path d="M108.037 36.5088C108.037 36.5088 124.364 61.177 110.945 83.5416C97.5261 105.906 75.8857 105.906 61.7424 105.906C52.7967 105.906 57.2696 114.852 61.7424 114.852C68.0674 114.852 99.2928 120.269 115.417 88.0149C128.836 61.177 108.037 36.5088 108.037 36.5088Z" fill="#276288"/>
<path d="M50.5586 88.332C56.9099 88.332 62.0586 83.1833 62.0586 76.832C62.0586 70.4808 56.9099 65.332 50.5586 65.332C44.2073 65.332 39.0586 70.4808 39.0586 76.832C39.0586 83.1833 44.2073 88.332 50.5586 88.332Z" fill="white"/>
<path d="M50.3799 83.8095C54.1876 83.8095 57.2743 80.7227 57.2743 76.915C57.2743 73.1073 54.1876 70.0205 50.3799 70.0205C46.5721 70.0205 43.4854 73.1073 43.4854 76.915C43.4854 80.7227 46.5721 83.8095 50.3799 83.8095Z" fill="black"/>
</svg>
