<svg width="200" height="200" viewBox="0 0 200 200" fill="none" xmlns="http://www.w3.org/2000/svg">
<mask id="path-1-outside-1_1062_24093" maskUnits="userSpaceOnUse" x="37" y="11" width="126" height="179" fill="black">
<rect fill="white" x="37" y="11" width="126" height="179"/>
<path d="M110.719 22.6875C111.844 21.1758 118.204 15.7968 119.661 17.2451C120.886 18.4635 119.24 23.6288 118.612 25.4404C120.33 26.2547 121.948 27.1813 123.471 28.2138C125.897 29.8145 128.035 31.6329 129.918 33.6064C134.423 30.8012 140.099 28.2194 143.246 30.4619C148.393 34.1292 150.503 41.1698 138.277 46.4433C144.422 60.5278 143.693 75.6884 143.597 77.8271C143.597 77.8942 143.599 77.9612 143.599 78.0283C143.599 84.2676 142.362 89.346 140.125 93.4531C140.337 93.6379 140.546 93.825 140.754 94.0127C141.532 94.5045 142.325 95.2374 143.117 96.2783C146.805 100.044 149.845 104.296 152.093 108.906C154.995 114.7 156.9 121.729 156.51 130.048C156.027 140.332 150.62 159.343 126.418 168.688C126.092 168.821 125.765 168.954 125.436 169.082L127.271 177.363L133.515 174.56C134.504 174.348 135.494 174.552 136.287 175.055C137.08 175.557 137.684 176.366 137.904 177.355C138.344 179.334 137.08 181.305 135.109 181.745L125.669 183.842C124.177 184.171 122.685 183.221 122.355 181.729L119.96 170.924C113.682 172.734 106.872 173.704 99.7549 173.704C93.0948 173.704 86.7033 172.854 80.7656 171.263L78.9111 181.533C78.6362 183.041 77.1835 184.046 75.6836 183.771L66.166 182.052C64.1792 181.69 62.836 179.766 63.1973 177.779C63.3779 176.782 63.9513 175.95 64.7207 175.416C65.4982 174.882 66.4724 174.638 67.4697 174.818L73.8223 177.371L75.2402 169.521C56.17 162.554 43.0001 147.391 43 127.904C43 115.448 48.3833 104.076 57.2529 95.4277C57.9473 94.6553 58.6109 94.0503 59.2422 93.5849C59.2913 93.5417 59.3403 93.4982 59.3896 93.4551C56.9313 89.3003 55.5645 84.2053 55.5645 78.0283C55.5645 66.4509 57.3099 55.5417 61.2266 46.4453C48.9981 41.1717 51.1076 34.1295 56.2549 30.4619C59.3778 28.2367 64.9898 30.7613 69.4775 33.541C72.3516 30.4663 75.7143 27.8851 79.6055 25.9033C79.2043 24.7976 77.0377 18.5957 78.3955 17.2451C79.8882 15.762 86.5228 21.4394 87.4102 22.79C87.4407 22.8366 87.4591 22.8838 87.4678 22.9316C91.1404 21.967 95.1713 21.4326 99.5811 21.3838C100.936 21.3988 102.256 21.4603 103.54 21.5654C103.659 21.5734 103.779 21.5833 103.899 21.5957C103.901 21.5959 103.903 21.5955 103.905 21.5957C106.298 21.8082 108.568 22.176 110.719 22.6875Z"/>
</mask>
<path d="M110.719 22.6875C111.844 21.1758 118.204 15.7968 119.661 17.2451C120.886 18.4635 119.24 23.6288 118.612 25.4404C120.33 26.2547 121.948 27.1813 123.471 28.2138C125.897 29.8145 128.035 31.6329 129.918 33.6064C134.423 30.8012 140.099 28.2194 143.246 30.4619C148.393 34.1292 150.503 41.1698 138.277 46.4433C144.422 60.5278 143.693 75.6884 143.597 77.8271C143.597 77.8942 143.599 77.9612 143.599 78.0283C143.599 84.2676 142.362 89.346 140.125 93.4531C140.337 93.6379 140.546 93.825 140.754 94.0127C141.532 94.5045 142.325 95.2374 143.117 96.2783C146.805 100.044 149.845 104.296 152.093 108.906C154.995 114.7 156.9 121.729 156.51 130.048C156.027 140.332 150.62 159.343 126.418 168.688C126.092 168.821 125.765 168.954 125.436 169.082L127.271 177.363L133.515 174.56C134.504 174.348 135.494 174.552 136.287 175.055C137.08 175.557 137.684 176.366 137.904 177.355C138.344 179.334 137.08 181.305 135.109 181.745L125.669 183.842C124.177 184.171 122.685 183.221 122.355 181.729L119.96 170.924C113.682 172.734 106.872 173.704 99.7549 173.704C93.0948 173.704 86.7033 172.854 80.7656 171.263L78.9111 181.533C78.6362 183.041 77.1835 184.046 75.6836 183.771L66.166 182.052C64.1792 181.69 62.836 179.766 63.1973 177.779C63.3779 176.782 63.9513 175.95 64.7207 175.416C65.4982 174.882 66.4724 174.638 67.4697 174.818L73.8223 177.371L75.2402 169.521C56.17 162.554 43.0001 147.391 43 127.904C43 115.448 48.3833 104.076 57.2529 95.4277C57.9473 94.6553 58.6109 94.0503 59.2422 93.5849C59.2913 93.5417 59.3403 93.4982 59.3896 93.4551C56.9313 89.3003 55.5645 84.2053 55.5645 78.0283C55.5645 66.4509 57.3099 55.5417 61.2266 46.4453C48.9981 41.1717 51.1076 34.1295 56.2549 30.4619C59.3778 28.2367 64.9898 30.7613 69.4775 33.541C72.3516 30.4663 75.7143 27.8851 79.6055 25.9033C79.2043 24.7976 77.0377 18.5957 78.3955 17.2451C79.8882 15.762 86.5228 21.4394 87.4102 22.79C87.4407 22.8366 87.4591 22.8838 87.4678 22.9316C91.1404 21.967 95.1713 21.4326 99.5811 21.3838C100.936 21.3988 102.256 21.4603 103.54 21.5654C103.659 21.5734 103.779 21.5833 103.899 21.5957C103.901 21.5959 103.903 21.5955 103.905 21.5957C106.298 21.8082 108.568 22.176 110.719 22.6875Z" fill="#BE9C0A"/>
<path d="M110.719 22.6875L109.33 28.5246C111.662 29.0793 114.101 28.1927 115.532 26.2697L110.719 22.6875ZM119.661 17.2451L123.893 12.9913L123.89 12.989L119.661 17.2451ZM118.612 25.4404L112.943 23.4752C111.941 26.3673 113.276 29.5504 116.042 30.8618L118.612 25.4404ZM123.471 28.2138L120.103 33.1794C120.124 33.1939 120.145 33.2082 120.167 33.2223L123.471 28.2138ZM129.918 33.6064L125.576 37.7479C127.539 39.8052 130.676 40.2026 133.09 38.6996L129.918 33.6064ZM143.246 30.4619L146.728 25.5754L146.728 25.5753L143.246 30.4619ZM138.277 46.4433L135.901 40.9341C134.436 41.566 133.283 42.7556 132.697 44.2397C132.111 45.7238 132.14 47.3802 132.778 48.8426L138.277 46.4433ZM143.597 77.8271L137.603 77.5559C137.599 77.6497 137.597 77.7437 137.597 77.8376L143.597 77.8271ZM143.599 78.0283L149.599 78.0283L149.599 78.0283L143.599 78.0283ZM140.125 93.4531L134.856 90.5832C133.511 93.0517 134.061 96.1227 136.178 97.9719L140.125 93.4531ZM140.754 94.0127L136.736 98.469C136.989 98.6969 137.261 98.9029 137.548 99.0847L140.754 94.0127ZM143.117 96.2783L138.343 99.9121C138.493 100.11 138.656 100.299 138.831 100.476L143.117 96.2783ZM152.093 108.906L146.7 111.536C146.709 111.555 146.719 111.574 146.728 111.593L152.093 108.906ZM156.51 130.048L162.503 130.329L162.503 130.329L156.51 130.048ZM126.418 168.688L124.257 163.091C124.222 163.105 124.188 163.118 124.153 163.132L126.418 168.688ZM125.436 169.082L123.266 163.488C120.503 164.56 118.936 167.488 119.578 170.381L125.436 169.082ZM127.271 177.363L121.414 178.662C121.804 180.424 122.967 181.916 124.58 182.725C126.192 183.535 128.083 183.576 129.73 182.837L127.271 177.363ZM133.515 174.56L132.257 168.693C131.844 168.781 131.442 168.913 131.057 169.086L133.515 174.56ZM136.287 175.055L139.499 169.987L139.499 169.987L136.287 175.055ZM137.904 177.355L143.761 176.054L143.761 176.054L137.904 177.355ZM135.109 181.745L136.41 187.602L136.417 187.601L135.109 181.745ZM125.669 183.842L126.963 189.701L126.97 189.699L125.669 183.842ZM122.355 181.729L128.214 180.434L128.213 180.431L122.355 181.729ZM119.96 170.924L125.818 169.625C125.459 168.008 124.448 166.611 123.024 165.765C121.6 164.919 119.889 164.7 118.298 165.159L119.96 170.924ZM99.7549 173.704L99.7549 179.704L99.7549 179.704L99.7549 173.704ZM80.7656 171.263L82.3193 165.467C80.6984 165.033 78.9697 165.297 77.5525 166.196C76.1354 167.094 75.1593 168.545 74.8611 170.197L80.7656 171.263ZM78.9111 181.533L84.8138 182.609L84.8157 182.599L78.9111 181.533ZM75.6836 183.771L76.7651 177.87C76.7602 177.869 76.7553 177.868 76.7505 177.867L75.6836 183.771ZM66.166 182.052L65.0927 187.955L65.0992 187.956L66.166 182.052ZM63.1973 177.779L69.1005 178.853L69.1012 178.849L63.1973 177.779ZM64.7207 175.416L61.3237 170.47C61.3156 170.476 61.3076 170.481 61.2996 170.487L64.7207 175.416ZM67.4697 174.818L69.7069 169.251C69.33 169.1 68.9387 168.987 68.5389 168.914L67.4697 174.818ZM73.8223 177.371L71.5851 182.938C73.2588 183.611 75.1464 183.495 76.7251 182.622C78.3038 181.749 79.406 180.213 79.7267 178.438L73.8223 177.371ZM75.2402 169.521L81.1447 170.588C81.6635 167.716 80.0404 164.887 77.2991 163.886L75.2402 169.521ZM43 127.904L37 127.904L37 127.904L43 127.904ZM57.2529 95.4277L61.4416 99.7237C61.5359 99.6317 61.6271 99.5367 61.7152 99.4388L57.2529 95.4277ZM59.2422 93.5849L62.8024 98.4145C62.9416 98.3119 63.0763 98.2033 63.2061 98.0891L59.2422 93.5849ZM59.3896 93.4551L63.3371 97.9736C65.5143 96.0717 66.0256 92.8876 64.5534 90.3996L59.3896 93.4551ZM55.5645 78.0283L49.5645 78.0283V78.0283H55.5645ZM61.2266 46.4453L66.7374 48.8181C68.0474 45.7758 66.6442 42.2475 63.6026 40.9358L61.2266 46.4453ZM56.2549 30.4619L52.7731 25.5754L52.7731 25.5754L56.2549 30.4619ZM69.4775 33.541L66.3181 38.6418C68.7501 40.1481 71.9073 39.7281 73.8607 37.6382L69.4775 33.541ZM79.6055 25.9033L82.3285 31.2498C85.0275 29.8752 86.2788 26.7044 85.2458 23.8571L79.6055 25.9033ZM78.3955 17.2451L74.1666 12.9887L74.1641 12.9913L78.3955 17.2451ZM87.4102 22.79L92.4256 19.4968L92.4248 19.4955L87.4102 22.79ZM87.4678 22.9316L81.5647 24.0055C81.8638 25.6499 82.8353 27.095 84.2451 27.9927C85.655 28.8904 87.3754 29.1594 88.9919 28.7348L87.4678 22.9316ZM99.5811 21.3838L99.6474 15.3841C99.6032 15.3836 99.5589 15.3836 99.5147 15.3841L99.5811 21.3838ZM103.54 21.5654L103.051 27.5454C103.081 27.5479 103.11 27.5501 103.14 27.5521L103.54 21.5654ZM103.899 21.5957L104.515 15.6273L104.514 15.6273L103.899 21.5957ZM103.905 21.5957L103.289 27.5639C103.317 27.5669 103.346 27.5696 103.375 27.5722L103.905 21.5957ZM110.719 22.6875L115.532 26.2697C115.43 26.4071 115.43 26.3852 115.642 26.1694C115.82 25.9891 116.07 25.7498 116.383 25.4705C117.014 24.9069 117.782 24.2835 118.53 23.7551C119.341 23.1813 119.853 22.915 120.016 22.8504C120.115 22.8113 119.768 22.9738 119.122 22.9972C118.429 23.0223 116.821 22.8814 115.432 21.5012L119.661 17.2451L123.89 12.989C122.137 11.2467 120.011 10.9571 118.687 11.0051C117.41 11.0513 116.318 11.4083 115.598 11.6934C114.124 12.2773 112.702 13.1786 111.601 13.9575C110.435 14.7817 109.312 15.696 108.389 16.5209C107.57 17.2517 106.573 18.209 105.905 19.1053L110.719 22.6875ZM119.661 17.2451L115.43 21.4989C114.599 20.6721 114.304 19.8153 114.203 19.4455C114.147 19.2376 114.124 19.0804 114.113 18.9944C114.103 18.9061 114.103 18.8572 114.103 18.8563C114.103 18.8541 114.103 18.8804 114.099 18.939C114.096 18.9968 114.089 19.0752 114.077 19.1754C114.052 19.3793 114.011 19.6332 113.95 19.9341C113.694 21.2044 113.23 22.647 112.943 23.4752L118.612 25.4404L124.281 27.4056C124.622 26.4222 125.296 24.3763 125.713 22.3064C125.917 21.2959 126.117 20.0079 126.102 18.7134C126.091 17.8103 126.001 15.0882 123.893 12.9913L119.661 17.2451ZM118.612 25.4404L116.042 30.8618C117.485 31.5461 118.837 32.3207 120.103 33.1794L123.471 28.2138L126.839 23.2483C125.06 22.042 123.175 20.9634 121.183 20.019L118.612 25.4404ZM123.471 28.2138L120.167 33.2223C122.199 34.5628 123.992 36.0864 125.576 37.7479L129.918 33.6064L134.259 29.465C132.079 27.1793 129.596 25.0663 126.774 23.2054L123.471 28.2138ZM129.918 33.6064L133.09 38.6996C135.163 37.4082 137.188 36.3786 138.822 35.8861C140.727 35.3121 140.544 35.9039 139.765 35.3485L143.246 30.4619L146.728 25.5753C142.801 22.7775 138.206 23.5389 135.36 24.3964C132.243 25.3356 129.177 26.9994 126.746 28.5132L129.918 33.6064ZM143.246 30.4619L139.764 35.3483C141.47 36.5639 141.292 37.3559 141.322 37.1108C141.362 36.7863 141.34 38.5879 135.901 40.9341L138.277 46.4433L140.654 51.9526C147.44 49.0253 152.475 44.6698 153.231 38.5898C153.976 32.5892 150.169 28.0273 146.728 25.5754L143.246 30.4619ZM138.277 46.4433L132.778 48.8426C138.329 61.5654 137.695 75.512 137.603 77.5559L143.597 77.8271L149.591 78.0984C149.692 75.8649 150.516 59.4902 143.777 44.044L138.277 46.4433ZM143.597 77.8271L137.597 77.8376C137.597 77.9153 137.598 77.9878 137.598 78.0124C137.599 78.0504 137.599 78.0433 137.599 78.0283L143.599 78.0283L149.599 78.0283C149.599 77.9462 149.598 77.872 149.597 77.843C149.597 77.8006 149.597 77.806 149.597 77.8166L143.597 77.8271ZM143.599 78.0283H137.599C137.599 83.4683 136.525 87.5195 134.856 90.5832L140.125 93.4531L145.394 96.323C148.199 91.1725 149.599 85.0668 149.599 78.0283H143.599ZM140.125 93.4531L136.178 97.9719C136.355 98.1271 136.538 98.2906 136.736 98.469L140.754 94.0127L144.772 89.5564C144.553 89.3594 144.318 89.1487 144.072 88.9343L140.125 93.4531ZM140.754 94.0127L137.548 99.0847C137.605 99.1207 137.891 99.3189 138.343 99.9121L143.117 96.2783L147.892 92.6445C146.759 91.156 145.459 89.8884 143.959 88.9407L140.754 94.0127ZM143.117 96.2783L138.831 100.476C142.092 103.807 144.749 107.535 146.7 111.536L152.093 108.906L157.486 106.277C154.941 101.056 151.517 96.2802 147.404 92.0801L143.117 96.2783ZM152.093 108.906L146.728 111.593C149.215 116.559 150.854 122.572 150.516 129.767L156.51 130.048L162.503 130.329C162.946 120.887 160.775 112.841 157.457 106.219L152.093 108.906ZM156.51 130.048L150.516 129.766C150.11 138.407 145.63 154.838 124.257 163.091L126.418 168.688L128.579 174.286C155.61 163.848 161.943 142.256 162.503 130.329L156.51 130.048ZM126.418 168.688L124.153 163.132C123.825 163.266 123.542 163.381 123.266 163.488L125.436 169.082L127.605 174.676C127.989 174.527 128.359 174.376 128.682 174.245L126.418 168.688ZM125.436 169.082L119.578 170.381L121.414 178.662L127.271 177.363L133.129 176.065L131.293 167.783L125.436 169.082ZM127.271 177.363L129.73 182.837L135.973 180.033L133.515 174.56L131.057 169.086L124.813 171.89L127.271 177.363ZM133.515 174.56L134.772 180.426C134.166 180.556 133.558 180.429 133.076 180.123L136.287 175.055L139.499 169.987C137.43 168.675 134.842 168.139 132.257 168.693L133.515 174.56ZM136.287 175.055L133.075 180.122C132.58 179.809 132.188 179.292 132.047 178.657L137.904 177.355L143.761 176.054C143.181 173.44 141.58 171.306 139.499 169.987L136.287 175.055ZM137.904 177.355L132.047 178.657C131.764 177.384 132.56 176.167 133.802 175.889L135.109 181.745L136.417 187.601C141.6 186.444 144.924 181.284 143.761 176.054L137.904 177.355ZM135.109 181.745L133.808 175.888L124.368 177.984L125.669 183.842L126.97 189.699L136.41 187.602L135.109 181.745ZM125.669 183.842L124.375 177.983C126.112 177.599 127.827 178.685 128.214 180.434L122.355 181.729L116.497 183.025C117.543 187.758 122.242 190.744 126.963 189.701L125.669 183.842ZM122.355 181.729L128.213 180.431L125.818 169.625L119.96 170.924L114.102 172.222L116.498 183.028L122.355 181.729ZM119.96 170.924L118.298 165.159C112.579 166.808 106.329 167.704 99.7549 167.704L99.7549 173.704L99.7549 179.704C107.415 179.704 114.786 178.66 121.622 176.689L119.96 170.924ZM99.7549 173.704V167.704C93.6031 167.704 87.7346 166.919 82.3193 165.467L80.7656 171.263L79.212 177.058C85.6719 178.79 92.5866 179.704 99.7549 179.704V173.704ZM80.7656 171.263L74.8611 170.197L73.0066 180.467L78.9111 181.533L84.8157 182.599L86.6701 172.329L80.7656 171.263ZM78.9111 181.533L73.0084 180.457C73.3254 178.719 74.9875 177.544 76.7651 177.87L75.6836 183.771L74.6021 189.673C79.3795 190.549 83.9471 187.363 84.8138 182.609L78.9111 181.533ZM75.6836 183.771L76.7505 177.867L67.2329 176.147L66.166 182.052L65.0992 187.956L74.6167 189.676L75.6836 183.771ZM66.166 182.052L67.2393 176.149C68.4863 176.375 69.3368 177.553 69.1005 178.853L63.1973 177.779L57.294 176.706C56.3352 181.979 59.872 187.006 65.0927 187.955L66.166 182.052ZM63.1973 177.779L69.1012 178.849C68.9845 179.493 68.6133 180.018 68.1418 180.345L64.7207 175.416L61.2996 170.487C59.2892 171.882 57.7713 174.071 57.2933 176.71L63.1973 177.779ZM64.7207 175.416L68.1178 180.362C67.6708 180.669 67.0527 180.84 66.4005 180.722L67.4697 174.818L68.5389 168.914C65.892 168.435 63.3255 169.095 61.3237 170.47L64.7207 175.416ZM67.4697 174.818L65.2325 180.386L71.5851 182.938L73.8223 177.371L76.0595 171.804L69.7069 169.251L67.4697 174.818ZM73.8223 177.371L79.7267 178.438L81.1447 170.588L75.2402 169.521L69.3358 168.455L67.9178 176.304L73.8223 177.371ZM75.2402 169.521L77.2991 163.886C59.9791 157.558 49.0001 144.273 49 127.904L43 127.904L37 127.904C37.0001 150.509 52.3608 167.551 73.1813 175.157L75.2402 169.521ZM43 127.904H49C49 117.252 53.5897 107.379 61.4416 99.7237L57.2529 95.4277L53.0643 91.1318C43.1768 100.772 37 113.644 37 127.904H43ZM57.2529 95.4277L61.7152 99.4388C62.1837 98.9175 62.5502 98.6004 62.8024 98.4145L59.2422 93.5849L55.6819 88.7554C54.6716 89.5002 53.7109 90.393 52.7907 91.4167L57.2529 95.4277ZM59.2422 93.5849L63.2061 98.0891C63.2884 98.0166 63.2949 98.0105 63.3371 97.9736L59.3896 93.4551L55.4422 88.9365C55.3857 88.9858 55.2943 89.0667 55.2782 89.0808L59.2422 93.5849ZM59.3896 93.4551L64.5534 90.3996C62.7213 87.3033 61.5645 83.2965 61.5645 78.0283H55.5645H49.5645C49.5645 85.1142 51.1412 91.2974 54.2259 96.5105L59.3896 93.4551ZM55.5645 78.0283L61.5645 78.0283C61.5645 66.9974 63.2352 56.9519 66.7374 48.8181L61.2266 46.4453L55.7157 44.0724C51.3845 54.1314 49.5645 65.9043 49.5645 78.0283L55.5645 78.0283ZM61.2266 46.4453L63.6026 40.9358C58.1619 38.5895 58.1387 36.7872 58.179 37.1112C58.2094 37.356 58.0308 36.5638 59.7366 35.3483L56.2549 30.4619L52.7731 25.5754C49.3317 28.0276 45.5246 32.5903 46.2706 38.5915C47.0265 44.6719 52.0628 49.0275 58.8505 51.9548L61.2266 46.4453ZM56.2549 30.4619L59.7366 35.3483C58.961 35.901 58.7718 35.3186 60.6434 35.8755C62.2531 36.3544 64.2546 37.3637 66.3181 38.6418L69.4775 33.541L72.6369 28.4402C70.2127 26.9386 67.1643 25.2958 64.0654 24.3738C61.2283 23.5297 56.6717 22.7976 52.7731 25.5754L56.2549 30.4619ZM69.4775 33.541L73.8607 37.6382C76.2761 35.0543 79.082 32.9033 82.3285 31.2498L79.6055 25.9033L76.8824 20.5568C72.3465 22.867 68.4271 25.8783 65.0943 29.4437L69.4775 33.541ZM79.6055 25.9033L85.2458 23.8571C85.0708 23.3748 84.5301 21.8258 84.1918 20.3366C84.0164 19.5649 83.9585 19.0764 83.9537 18.8719C83.9513 18.7712 83.9691 18.9577 83.8856 19.3171C83.8103 19.6412 83.5418 20.5889 82.6269 21.4989L78.3955 17.2451L74.1641 12.9913C72.9098 14.239 72.4119 15.6759 72.1968 16.602C71.9735 17.5634 71.9409 18.4647 71.957 19.1526C71.9891 20.5253 72.2433 21.9097 72.49 22.9955C72.9958 25.2213 73.739 27.3262 73.9652 27.9495L79.6055 25.9033ZM78.3955 17.2451L82.6244 21.5015C81.1998 22.9169 79.5508 23.0277 78.882 22.995C78.251 22.9641 77.923 22.8026 78.044 22.8519C78.2467 22.9346 78.7984 23.232 79.6333 23.8308C80.4059 24.3848 81.1868 25.0273 81.8045 25.588C82.112 25.8671 82.3436 26.0938 82.4926 26.2496C82.7071 26.4739 82.5959 26.3894 82.3955 26.0845L87.4102 22.79L92.4248 19.4955C91.7335 18.4433 90.6109 17.3752 89.8698 16.7025C88.9474 15.8652 87.81 14.9278 86.6264 14.079C85.5052 13.275 84.0628 12.3468 82.5741 11.7398C81.8493 11.4444 80.751 11.072 79.4681 11.0093C78.1473 10.9447 75.9644 11.2025 74.1666 12.9887L78.3955 17.2451ZM87.4102 22.79L82.3947 26.0832C81.9926 25.4709 81.7029 24.7657 81.5647 24.0055L87.4678 22.9316L93.3709 21.8578C93.2152 21.0019 92.8888 20.2022 92.4256 19.4968L87.4102 22.79ZM87.4678 22.9316L88.9919 28.7348C92.1453 27.9066 95.683 27.4273 99.6474 27.3834L99.5811 21.3838L99.5147 15.3841C94.6596 15.4379 90.1356 16.0275 85.9436 17.1284L87.4678 22.9316ZM99.5811 21.3838L99.5147 27.3834C100.731 27.3969 101.91 27.4521 103.051 27.5454L103.54 21.5654L104.029 15.5854C102.602 15.4686 101.141 15.4007 99.6474 15.3841L99.5811 21.3838ZM103.54 21.5654L103.14 27.5521C103.196 27.5558 103.243 27.5599 103.285 27.5641L103.899 21.5957L104.514 15.6273C104.314 15.6067 104.122 15.5909 103.94 15.5787L103.54 21.5654ZM103.899 21.5957L103.284 27.564C103.437 27.5799 103.574 27.588 103.689 27.592C103.747 27.594 103.8 27.5951 103.848 27.5955C103.896 27.5959 103.939 27.5957 103.978 27.5952C104.016 27.5948 104.049 27.594 104.078 27.5931C104.106 27.5923 104.131 27.5914 104.149 27.5906C104.168 27.5898 104.183 27.5891 104.192 27.5887C104.197 27.5884 104.201 27.5883 104.203 27.5881C104.204 27.5881 104.205 27.588 104.206 27.588C104.206 27.588 104.206 27.588 104.207 27.588C104.207 27.588 104.207 27.588 104.207 27.588C104.207 27.588 104.207 27.588 104.207 27.588C104.207 27.5879 104.205 27.588 104.203 27.5881C104.201 27.5882 104.198 27.5884 104.193 27.5886C104.184 27.5891 104.169 27.5898 104.151 27.5905C104.132 27.5913 104.108 27.5922 104.08 27.593C104.052 27.5939 104.018 27.5947 103.98 27.5951C103.942 27.5956 103.899 27.5958 103.851 27.5954C103.804 27.595 103.751 27.5939 103.693 27.5919C103.578 27.5879 103.442 27.5798 103.289 27.5639L103.905 21.5957L104.522 15.6274C104.368 15.6115 104.231 15.6034 104.116 15.5994C104.058 15.5973 104.005 15.5963 103.957 15.5959C103.909 15.5954 103.866 15.5956 103.827 15.5961C103.789 15.5966 103.755 15.5974 103.727 15.5982C103.699 15.5991 103.674 15.6 103.655 15.6008C103.637 15.6015 103.622 15.6022 103.612 15.6027C103.608 15.6029 103.604 15.6031 103.602 15.6032C103.6 15.6033 103.599 15.6033 103.599 15.6034C103.599 15.6034 103.598 15.6034 103.598 15.6034C103.598 15.6034 103.598 15.6034 103.598 15.6034C103.598 15.6034 103.598 15.6034 103.598 15.6034C103.598 15.6034 103.599 15.6033 103.601 15.6032C103.603 15.6031 103.607 15.6029 103.612 15.6027C103.621 15.6023 103.635 15.6016 103.654 15.6008C103.672 15.6001 103.696 15.5992 103.725 15.5983C103.753 15.5975 103.786 15.5967 103.824 15.5962C103.862 15.5957 103.905 15.5956 103.953 15.596C104.001 15.5964 104.054 15.5974 104.111 15.5994C104.226 15.6035 104.362 15.6116 104.515 15.6273L103.899 21.5957ZM103.905 21.5957L103.375 27.5722C105.493 27.7603 107.475 28.0834 109.33 28.5246L110.719 22.6875L112.107 16.8503C109.661 16.2686 107.104 15.8562 104.436 15.6192L103.905 21.5957Z" fill="white" mask="url(#path-1-outside-1_1062_24093)"/>
<path d="M115.767 152.005L122.355 181.73C122.685 183.222 124.177 184.172 125.669 183.842L135.109 181.745C137.08 181.306 138.344 179.334 137.905 177.355C137.685 176.366 137.08 175.557 136.287 175.054C135.494 174.552 134.504 174.348 133.515 174.56L127.271 177.363L121.374 150.757C121.044 149.265 119.552 148.314 118.06 148.644L117.879 148.684C116.387 149.013 115.437 150.505 115.767 151.998V152.005Z" fill="#474747"/>
<path d="M84.3224 151.573L78.9116 181.533C78.6367 183.041 77.1839 184.046 75.6839 183.771L66.1659 182.051C64.1791 181.69 62.8362 179.766 63.1974 177.779C63.3781 176.782 63.9513 175.95 64.7209 175.416C65.4984 174.882 66.4722 174.638 67.4695 174.819L73.8227 177.371L78.6681 150.552C78.943 149.045 80.3958 148.039 81.8958 148.314L82.0842 148.346C83.592 148.621 84.5973 150.073 84.3224 151.573Z" fill="#474747"/>
<path d="M156.509 127.904C156.509 154.974 131.097 173.704 99.7547 173.704C68.4128 173.704 43 154.974 43 127.904C43 112.724 50.9945 99.1538 63.5517 90.162C63.1747 87.7589 62.9784 85.2773 62.9784 82.7565C62.9784 59.5583 79.4465 42.2656 99.7625 42.2656C120.079 42.2656 136.539 59.5583 136.539 82.7565C136.539 85.2852 136.343 87.7589 135.966 90.162C148.523 99.1538 156.517 112.724 156.517 127.904H156.509Z" fill="#4B9AE8"/>
<path d="M79.9872 81.3192C84.4588 81.3192 88.0838 77.6942 88.0838 73.2226C88.0838 68.7509 84.4588 65.126 79.9872 65.126C75.5156 65.126 71.8906 68.7509 71.8906 73.2226C71.8906 77.6942 75.5156 81.3192 79.9872 81.3192Z" fill="white"/>
<path d="M79.988 76.5602C81.8313 76.5602 83.3256 75.0659 83.3256 73.2226C83.3256 71.3793 81.8313 69.885 79.988 69.885C78.1447 69.885 76.6504 71.3793 76.6504 73.2226C76.6504 75.0659 78.1447 76.5602 79.988 76.5602Z" fill="#040000" stroke="#040000" stroke-width="2.29312" stroke-miterlimit="10"/>
<path d="M118.837 81.3192C123.308 81.3192 126.933 77.6942 126.933 73.2226C126.933 68.7509 123.308 65.126 118.837 65.126C114.365 65.126 110.74 68.7509 110.74 73.2226C110.74 77.6942 114.365 81.3192 118.837 81.3192Z" fill="white"/>
<path d="M118.838 76.5602C120.681 76.5602 122.175 75.0659 122.175 73.2226C122.175 71.3793 120.681 69.885 118.838 69.885C116.994 69.885 115.5 71.3793 115.5 73.2226C115.5 75.0659 116.994 76.5602 118.838 76.5602Z" fill="#040000" stroke="#040000" stroke-width="2.29312" stroke-miterlimit="10"/>
<path opacity="0.5" d="M131.709 87.8608C133.256 95.7297 135.039 103.724 135.769 111.711C137.01 125.328 137.521 139.048 129.636 150.89C126.479 155.633 122.576 159.811 118.524 163.793C116.749 165.544 114.958 167.178 112.979 168.693C111.354 169.934 108.048 173.217 106.006 173.444C147.8 168.788 155.913 142.754 156.509 130.048C157.86 101.227 131.709 87.8608 131.709 87.8608Z" fill="#2B5E84"/>
<path d="M118.389 26.0723C118.389 26.0723 121.154 18.7296 119.661 17.2454C118.169 15.7612 111.533 21.439 110.646 22.7897C109.759 24.1405 118.389 26.0723 118.389 26.0723Z" fill="#BD7B24"/>
<path d="M79.6673 26.0723C79.6673 26.0723 76.903 18.7296 78.3951 17.2454C79.8872 15.7612 86.5231 21.439 87.4105 22.7897C88.2979 24.1405 79.6673 26.0723 79.6673 26.0723Z" fill="#BD7B24"/>
<path d="M76.2649 38.4253C76.2649 38.4253 62.0193 26.355 56.2551 30.4622C50.4909 34.5694 48.5355 42.9095 66.26 48.2575" fill="#DCDDDD"/>
<path d="M123.236 38.4253C123.236 38.4253 137.482 26.355 143.246 30.4622C149.01 34.5694 150.966 42.9095 133.241 48.2575" fill="#DCDDDD"/>
<path d="M53.8137 100.3C50.2876 106.339 52.0467 115.583 58.4156 122.823C66.041 131.485 75.8575 130.362 82.6504 127.959C87.0011 126.42 95.4903 121.072 86.3571 114.42C77.2239 107.769 67.7766 96.0674 67.7766 96.0674C67.7766 96.0674 62.6485 85.1594 53.8137 100.3Z" fill="#276288"/>
<path d="M145.435 100.3C148.318 106.669 147.202 115.583 140.834 122.823C133.208 131.485 123.392 130.362 116.599 127.959C112.248 126.42 103.759 121.072 112.892 114.42C122.025 107.769 131.873 96.9156 131.873 96.9156C131.873 96.9156 139.208 86.5494 145.435 100.3Z" fill="#276288"/>
<path d="M99.5813 21.384C67.6269 21.7374 55.5645 47.5743 55.5645 78.0288C55.5645 101.439 75.1738 109.316 99.5813 109.316C123.989 109.316 143.598 102.884 143.598 78.0288C143.598 47.5743 131.536 21.7374 99.5813 21.384ZM133.358 81.013C133.358 92.1173 118.24 100.128 99.5813 100.128C80.9223 100.128 65.8128 91.5362 65.8128 81.013V80.8638C65.8128 62.9979 80.9301 62.6209 99.5813 62.6209C118.233 62.6209 133.358 63.0057 133.358 80.8638V81.013Z" fill="#F2F2F2"/>
<path d="M133.349 77.7302C135.704 80.5809 143.534 79.9134 143.589 78.0287C143.644 76.1439 147.068 26.0487 103.899 21.5959C97.3418 20.9206 93.0226 26.9361 90.9729 31.3967C88.4678 36.8625 88.083 44.0402 92.9048 48.705C96.0304 51.7285 99.7056 54.0609 103.781 56.0791C107.857 58.0974 111.933 59.668 116.095 61.3015C118.718 62.3302 121.616 63.3825 123.721 65.1495C128.668 67.8667 130.898 68.4164 133.349 77.7302Z" fill="#040000"/>
<path d="M99.5815 68.5736C83.1606 68.5736 74.4043 64.4507 74.4043 59.3619C74.4043 54.2731 82.1396 50.1501 99.5815 50.1501C117.023 50.1501 124.759 54.2731 124.759 59.3619C124.759 64.4507 117.173 68.5736 99.5815 68.5736Z" fill="#E7A1A1"/>
<path d="M118.838 49.8437C120.933 49.8437 122.631 48.1455 122.631 46.0506C122.631 43.9558 120.933 42.2576 118.838 42.2576C116.743 42.2576 115.045 43.9558 115.045 46.0506C115.045 48.1455 116.743 49.8437 118.838 49.8437Z" fill="white"/>
<path d="M80.4513 49.8437C82.5461 49.8437 84.2443 48.1455 84.2443 46.0506C84.2443 43.9558 82.5461 42.2576 80.4513 42.2576C78.3564 42.2576 76.6582 43.9558 76.6582 46.0506C76.6582 48.1455 78.3564 49.8437 80.4513 49.8437Z" fill="#040000"/>
<path d="M107.364 62.9979C108.891 62.9979 110.128 61.37 110.128 59.3618C110.128 57.3537 108.891 55.7258 107.364 55.7258C105.837 55.7258 104.6 57.3537 104.6 59.3618C104.6 61.37 105.837 62.9979 107.364 62.9979Z" fill="#3E3A39"/>
<path d="M92.2077 62.9979C93.7344 62.9979 94.972 61.37 94.972 59.3618C94.972 57.3537 93.7344 55.7258 92.2077 55.7258C90.681 55.7258 89.4434 57.3537 89.4434 59.3618C89.4434 61.37 90.681 62.9979 92.2077 62.9979Z" fill="#3E3A39"/>
<path d="M87.3784 103.402C87.3784 103.402 80.1596 155.843 80.5068 156.234C80.8539 156.626 83.1752 160.553 92.1804 162.966C101.186 165.379 105.164 163.139 105.656 162.973C106.148 162.806 126.121 113.783 126.121 113.783C126.121 113.783 115.196 97.8602 87.3744 103.401L87.3784 103.402Z" fill="#F1E2D2" stroke="#B09981" stroke-width="0.968127" stroke-miterlimit="10"/>
<path d="M86.8399 102.311C86.8399 102.311 85.6734 110.055 85.8299 110.967C85.9864 111.879 91.2765 117.301 103.298 120.522C115.32 123.744 122.612 121.693 123.204 120.981C123.794 120.274 126.657 112.98 126.657 112.98C126.657 112.98 100.958 113.276 86.8359 102.31L86.8399 102.311Z" fill="#F1E2D2" stroke="#B09981" stroke-width="0.968127" stroke-miterlimit="10"/>
<path opacity="0.3" d="M105.513 112.257C118.183 115.652 129.234 115.491 130.197 111.898C131.16 108.305 121.669 102.64 108.999 99.2449C96.3295 95.85 85.2781 96.0108 84.3153 99.6041C83.3525 103.197 92.8429 108.862 105.513 112.257Z" fill="#DADBDB" stroke="#040000" stroke-width="0.968127" stroke-miterlimit="10"/>
<path opacity="0.85" d="M105.803 111.171C117.62 114.337 127.85 114.478 128.652 111.484C129.454 108.491 120.524 103.498 108.707 100.331C96.8902 97.165 86.6604 97.0247 85.8583 100.018C85.0563 103.011 93.9857 108.005 105.803 111.171Z" fill="#F9FCFD"/>
<path d="M95.7107 146.647C97.2491 147.059 98.8304 146.146 99.2426 144.608C99.6548 143.069 98.7419 141.488 97.2035 141.076C95.6651 140.664 94.0838 141.576 93.6716 143.115C93.2594 144.653 94.1723 146.235 95.7107 146.647Z" fill="#040000" stroke="#040000" stroke-width="0.383131" stroke-miterlimit="10"/>
<path d="M103.562 153.314C105.101 153.726 106.682 152.813 107.094 151.275C107.506 149.737 106.593 148.155 105.055 147.743C103.517 147.331 101.935 148.244 101.523 149.782C101.111 151.321 102.024 152.902 103.562 153.314Z" fill="#040000" stroke="#040000" stroke-width="0.383131" stroke-miterlimit="10"/>
<path d="M103.281 146.53C104.819 146.943 106.401 146.03 106.813 144.491C107.225 142.953 106.312 141.371 104.774 140.959C103.235 140.547 101.654 141.46 101.242 142.998C100.83 144.537 101.743 146.118 103.281 146.53Z" fill="#040000" stroke="#040000" stroke-width="0.383131" stroke-miterlimit="10"/>
<path d="M100.789 160.257C102.327 160.669 103.909 159.756 104.321 158.218C104.733 156.679 103.82 155.098 102.282 154.686C100.743 154.274 99.1619 155.187 98.7497 156.725C98.3375 158.263 99.2505 159.845 100.789 160.257Z" fill="#040000" stroke="#040000" stroke-width="0.383131" stroke-miterlimit="10"/>
<path d="M96.3045 154.01C97.8429 154.422 99.4242 153.509 99.8364 151.97C100.249 150.432 99.3356 148.851 97.7972 148.439C96.2588 148.026 94.6776 148.939 94.2653 150.478C93.8531 152.016 94.7661 153.597 96.3045 154.01Z" fill="#040000" stroke="#040000" stroke-width="0.383131" stroke-miterlimit="10"/>
<path d="M88.5017 146.293C90.0401 146.706 91.6214 145.793 92.0336 144.254C92.4459 142.716 91.5329 141.135 89.9945 140.722C88.4561 140.31 86.8748 141.223 86.4626 142.762C86.0504 144.3 86.9633 145.881 88.5017 146.293Z" fill="#040000" stroke="#040000" stroke-width="0.383131" stroke-miterlimit="10"/>
<path d="M92.5642 160.582C94.1026 160.994 95.6839 160.081 96.0961 158.543C96.5084 157.005 95.5954 155.423 94.057 155.011C92.5186 154.599 90.9373 155.512 90.5251 157.05C90.1129 158.589 91.0258 160.17 92.5642 160.582Z" fill="#040000" stroke="#040000" stroke-width="0.383131" stroke-miterlimit="10"/>
<path d="M86.6189 154.4C88.1573 154.812 89.7386 153.899 90.1508 152.361C90.563 150.823 89.6501 149.241 88.1117 148.829C86.5733 148.417 84.992 149.33 84.5798 150.868C84.1676 152.407 85.0805 153.988 86.6189 154.4Z" fill="#040000" stroke="#040000" stroke-width="0.383131" stroke-miterlimit="10"/>
<mask id="path-36-outside-2_1062_24093" maskUnits="userSpaceOnUse" x="95.8502" y="120.601" width="11.9886" height="11.2815" fill="black">
<rect fill="white" x="95.8502" y="120.601" width="11.9886" height="11.2815"/>
<path d="M103.113 122.958C104.889 123.434 105.943 125.26 105.467 127.036C104.991 128.813 103.165 129.868 101.388 129.392C99.9074 128.995 98.9294 127.659 98.9204 126.197C98.4856 126.116 97.9407 125.74 97.9395 125.405C97.9382 125.028 98.6281 124.595 99.0738 124.594C99.1539 124.594 99.2312 124.604 99.3043 124.621C100.013 123.274 101.581 122.547 103.113 122.958Z"/>
</mask>
<path d="M103.113 122.958C104.889 123.434 105.943 125.26 105.467 127.036C104.991 128.813 103.165 129.868 101.388 129.392C99.9074 128.995 98.9294 127.659 98.9204 126.197C98.4856 126.116 97.9407 125.74 97.9395 125.405C97.9382 125.028 98.6281 124.595 99.0738 124.594C99.1539 124.594 99.2312 124.604 99.3043 124.621C100.013 123.274 101.581 122.547 103.113 122.958Z" fill="#DFB820"/>
<path d="M103.113 122.958L103.21 122.595L103.21 122.595L103.113 122.958ZM105.467 127.036L105.83 127.134L105.83 127.134L105.467 127.036ZM101.388 129.392L101.291 129.755L101.291 129.755L101.388 129.392ZM98.9204 126.197L99.2963 126.195L99.2944 125.884L98.989 125.827L98.9204 126.197ZM97.9395 125.405L97.5635 125.407L97.5635 125.407L97.9395 125.405ZM99.0738 124.594L99.0733 124.218L99.0731 124.218L99.0738 124.594ZM99.3043 124.621L99.2229 124.988L99.5033 125.05L99.637 124.796L99.3043 124.621ZM103.113 122.958L103.015 123.321C104.591 123.743 105.526 125.363 105.104 126.939L105.467 127.036L105.83 127.134C106.36 125.156 105.187 123.124 103.21 122.595L103.113 122.958ZM105.467 127.036L105.104 126.939C104.682 128.515 103.062 129.451 101.486 129.029L101.388 129.392L101.291 129.755C103.269 130.285 105.301 129.111 105.83 127.134L105.467 127.036ZM101.388 129.392L101.486 129.029C100.173 128.677 99.3043 127.492 99.2963 126.195L98.9204 126.197L98.5444 126.199C98.5545 127.826 99.6422 129.313 101.291 129.755L101.388 129.392ZM98.9204 126.197L98.989 125.827C98.8368 125.799 98.6457 125.712 98.4958 125.598C98.4224 125.542 98.3711 125.488 98.3409 125.444C98.3094 125.399 98.3154 125.386 98.3154 125.404L97.9395 125.405L97.5635 125.407C97.5642 125.592 97.6388 125.752 97.7233 125.873C97.8093 125.997 97.9215 126.105 98.0388 126.195C98.2705 126.372 98.5691 126.514 98.8517 126.567L98.9204 126.197ZM97.9395 125.405L98.3154 125.404C98.3155 125.423 98.3087 125.405 98.3524 125.348C98.3934 125.294 98.4607 125.231 98.5509 125.169C98.7404 125.04 98.9514 124.97 99.0745 124.97L99.0738 124.594L99.0731 124.218C98.7505 124.219 98.3937 124.366 98.1272 124.548C97.9893 124.642 97.8566 124.758 97.7546 124.892C97.6554 125.022 97.5628 125.199 97.5635 125.407L97.9395 125.405ZM99.0738 124.594L99.0744 124.97C99.122 124.97 99.1714 124.976 99.2229 124.988L99.3043 124.621L99.3857 124.254C99.2909 124.232 99.1858 124.218 99.0733 124.218L99.0738 124.594ZM99.3043 124.621L99.637 124.796C100.266 123.601 101.657 122.957 103.015 123.321L103.113 122.958L103.21 122.595C101.505 122.138 99.7602 122.947 98.9716 124.445L99.3043 124.621Z" fill="white" mask="url(#path-36-outside-2_1062_24093)"/>
<path d="M101.388 129.391C103.164 129.867 104.99 128.813 105.467 127.036C105.943 125.26 104.888 123.434 103.112 122.957C101.335 122.481 99.5086 123.536 99.0325 125.312C98.5565 127.089 99.6108 128.915 101.388 129.391Z" fill="#4B98E6"/>
<circle cx="101.298" cy="125.017" r="0.871654" transform="rotate(15 101.298 125.017)" fill="white"/>
<circle cx="101.296" cy="125.017" r="0.522992" transform="rotate(15 101.296 125.017)" fill="#161616"/>
<circle cx="101.296" cy="125.017" r="0.522992" transform="rotate(15 101.296 125.017)" fill="#161616"/>
<path d="M99.081 126.213C98.6344 126.213 97.9414 125.783 97.9401 125.405C97.9389 125.028 98.629 124.595 99.0747 124.594C99.5204 124.594 99.8839 124.84 99.8856 125.402C99.8876 125.971 99.5267 126.212 99.0801 126.213L99.081 126.213Z" fill="#DFB820"/>
<path opacity="0.68" d="M97.5441 118.119C94.5173 116.984 92.1689 115.561 90.3375 114.469L91.3047 107.469C93.4524 108.527 95.982 109.576 98.7866 110.553L97.5401 118.118L97.5441 118.119Z" fill="#EDEDEC"/>
<path opacity="0.68" d="M91.8298 150.831L91.8288 150.835L85.3219 146.819L85.3139 146.817L90.1445 115.513C91.969 116.599 94.0916 117.782 97.3592 119.101L91.852 150.701L91.8298 150.831Z" fill="#EDEDEC"/>
<path opacity="0.85" d="M91.7649 150.986C92.1917 150.308 91.083 148.843 89.2886 147.713C87.4942 146.583 85.6937 146.216 85.2669 146.894C84.8401 147.571 85.9488 149.037 87.7431 150.167C89.5375 151.297 91.3381 151.663 91.7649 150.986Z" fill="#B4B3B4"/>
<path opacity="0.68" d="M98.8932 109.025C96.0385 107.996 93.5028 106.89 91.4279 105.784L91.4872 105.403L91.6983 104.026L91.936 102.487L92.6627 97.785L92.8274 96.7245L95.2624 80.9993C95.2624 80.9993 95.2624 80.9993 95.2646 80.9914L95.2793 80.8887L103.437 83.0745L100.915 97.4841L100.726 98.5722L100.097 102.161L99.4778 105.697L98.9672 108.606L98.8932 109.025Z" fill="#EDEDEC"/>
<path opacity="0.85" d="M98.9825 83.3824C101.235 83.986 103.229 83.8482 103.437 83.0746C103.644 82.301 101.986 81.1845 99.7331 80.5809C97.4804 79.9773 95.4863 80.1152 95.279 80.8888C95.0717 81.6624 96.7298 82.7788 98.9825 83.3824Z" fill="#B4B3B4"/>
<path d="M99.4738 105.696C99.4738 105.696 97.6445 106.857 91.6982 104.026C95.9224 103.606 99.4738 105.696 99.4738 105.696Z" fill="#B4B3B4"/>
<path d="M93.6899 133.046L95.965 130.747L94.3693 130.319C94.1505 130.261 94.0173 130.042 94.077 129.819C94.1367 129.596 94.3627 129.469 94.5815 129.528L96.8418 130.133C97.0965 130.201 97.2202 130.392 97.1498 130.655C97.1135 130.79 97.017 130.944 96.899 131.065L94.4152 133.65C94.2372 133.837 94.0694 133.89 93.8904 133.842C93.6476 133.777 93.4603 133.569 93.5306 133.306C93.5509 133.231 93.6208 133.113 93.691 133.042L93.6899 133.046Z" fill="#040000"/>
<path d="M97.3696 134.032L99.6447 131.733L98.049 131.305C97.8302 131.247 97.6969 131.028 97.7567 130.805C97.8164 130.582 98.0424 130.455 98.2612 130.514L100.521 131.119C100.776 131.187 100.9 131.378 100.829 131.641C100.793 131.776 100.697 131.93 100.579 132.052L98.0949 134.636C97.9169 134.823 97.7491 134.876 97.5701 134.828C97.3273 134.763 97.14 134.555 97.2103 134.292C97.2306 134.217 97.3005 134.099 97.3707 134.028L97.3696 134.032Z" fill="#040000"/>
<path d="M103.262 132.479L102.964 133.591C102.747 134.401 102.327 135.534 101.508 136.075C101.459 135.938 101.299 135.663 101.203 135.567C101.63 135.283 101.904 134.854 102.103 134.406C101.895 134.469 101.694 134.528 101.493 134.583L101.469 133.999C101.69 133.967 101.993 133.908 102.314 133.837C102.356 133.703 102.391 133.572 102.424 133.446L102.47 133.275L101.98 133.359C102.021 133.09 102.02 132.637 101.978 132.28L102.451 132.218C102.501 132.528 102.515 132.91 102.496 133.179L102.857 131.831L104.413 132.248C104.391 132.15 104.359 132.05 104.325 131.96L104.878 131.86C104.954 132.031 105.025 132.239 105.057 132.42L106.761 132.877L106.626 133.38L103.262 132.479ZM103.936 134.682L103.831 135.074L104.063 135.136L104.169 134.744L103.936 134.682ZM104.613 135.284L104.718 134.891L104.476 134.826L104.37 135.219L104.613 135.284ZM104.434 135.775L104.783 135.761C104.842 136.073 104.886 136.484 104.885 136.726L104.5 136.758C104.505 136.679 104.504 136.581 104.5 136.478C103.964 136.399 103.418 136.317 102.995 136.252L103.059 135.773C103.266 135.813 103.514 135.858 103.794 135.905L103.905 135.488L103.395 135.351L103.697 134.224L104.208 134.361L104.274 134.114L103.778 133.981L103.882 133.594L105.353 133.988L105.249 134.376L104.705 134.23L104.638 134.476L105.173 134.62L104.871 135.747L104.336 135.603L104.235 135.981L104.465 136.015C104.455 135.932 104.445 135.853 104.434 135.775ZM103.436 132.822L106.131 133.544C105.619 135.375 105.309 136.473 105.502 136.525C105.561 136.541 105.663 136.261 105.759 135.92C105.808 136.057 105.885 136.245 105.959 136.345C105.766 136.887 105.621 137.091 105.329 137.012C104.744 136.856 104.992 135.833 105.523 133.85L103.779 133.383L103.611 134.012C103.423 134.711 103.064 135.715 102.408 136.262C102.359 136.147 102.212 135.924 102.126 135.847C102.71 135.351 102.984 134.508 103.151 133.884L103.436 132.822Z" fill="#040000"/>
<path d="M107.686 83.8479C107.608 87.8138 103.076 93.8685 99.2206 93.79C95.3647 93.7193 91.069 87.4918 91.1475 83.5259C91.2261 79.5601 93.8019 76.3953 99.5504 76.5052C105.362 76.6152 107.757 79.8821 107.678 83.8401L107.686 83.8479Z" fill="#EAC00F"/>
<path opacity="0.5" d="M101.121 76.5995C101.121 76.5995 104 80.5 103 84.5C102.317 87.8926 100.155 92.9105 99.2207 93.79C102.401 93.79 105.111 90.2797 106.493 87.8609C107.875 85.4421 108.55 81.3192 105.645 78.5549C103.249 76.2854 101.121 76.5995 101.121 76.5995Z" fill="#BE9C0A"/>
<path d="M131.5 115C131.178 116.107 130.597 121.641 128.5 121.5C127.691 123.471 130.006 124.948 124.5 124.5C124.327 124.908 122.681 124.56 122.5 125C122.045 126.076 121.01 127.848 120.5 129.05C119.5 129 117.487 128.257 117.165 128.14C117.11 128.124 117.07 128.116 117.023 128.093C115.28 127.464 112.869 126.208 111.196 124.496C110.215 123.491 109.492 122.328 109.304 121.048C109.233 120.695 109.249 120.499 109.249 120.499C109.209 119.313 109.626 118.041 110.694 116.698C110.937 116.407 111.196 116.109 111.495 115.818C111.722 115.582 111.966 115.363 112.225 115.127C112.547 114.844 112.916 114.554 113.301 114.263C114.549 113.337 115.798 112.331 117.047 111.295C117.934 110.541 118.822 109.779 119.685 109.002C119.945 108.766 125.249 105.736 125.5 105.5C129.937 107.989 133.785 108.299 133 111L131.5 115Z" fill="#276288"/>
<path d="M88.2362 123.704C87.0458 125.406 85.1902 126.807 83.4004 127.75C84.1311 122.636 84.8864 117.638 85.4447 113.75C85.9456 114.142 86.2986 114.593 86.6927 114.985C86.7174 115.01 86.742 115.035 86.7666 115.06C87.9571 116.236 88.7042 117.371 89.0737 118.439C89.7716 120.4 89.2872 122.185 88.2281 123.704H88.2362Z" fill="#276288"/>
</svg>
