<svg width="48" height="48" viewBox="0 0 48 48" fill="none" xmlns="http://www.w3.org/2000/svg">
<rect width="48" height="48" rx="12" fill="url(#paint0_linear_639_2788)"/>
<mask id="path-2-outside-1_639_2788" maskUnits="userSpaceOnUse" x="5.91016" y="9" width="35" height="31" fill="black">
<rect fill="white" x="5.91016" y="9" width="35" height="31"/>
<path d="M25.3606 11C32.6993 11.0001 38.6487 16.9494 38.6487 24.2881C38.6487 31.6268 32.6993 37.5761 25.3606 37.5762C19.2424 37.5762 14.0899 33.4412 12.5452 27.8135C10.7865 27.9476 8.30543 27.0606 7.95633 25.7744C7.56204 24.3212 9.77449 21.9403 11.4915 21.4775C11.7987 21.3947 12.1041 21.3463 12.4016 21.333C13.7451 15.4164 19.0375 11 25.3606 11Z"/>
</mask>
<path d="M25.3606 11C32.6993 11.0001 38.6487 16.9494 38.6487 24.2881C38.6487 31.6268 32.6993 37.5761 25.3606 37.5762C19.2424 37.5762 14.0899 33.4412 12.5452 27.8135C10.7865 27.9476 8.30543 27.0606 7.95633 25.7744C7.56204 24.3212 9.77449 21.9403 11.4915 21.4775C11.7987 21.3947 12.1041 21.3463 12.4016 21.333C13.7451 15.4164 19.0375 11 25.3606 11Z" fill="#DFB820"/>
<path d="M25.3606 11L25.3606 9.5H25.3606V11ZM38.6487 24.2881L40.1487 24.2881V24.2881H38.6487ZM25.3606 37.5762L25.3606 39.0762L25.3606 39.0762L25.3606 37.5762ZM12.5452 27.8135L13.9917 27.4164L13.6643 26.2238L12.4312 26.3178L12.5452 27.8135ZM7.95633 25.7744L6.50867 26.1672L6.5087 26.1673L7.95633 25.7744ZM11.4915 21.4775L11.1012 20.0292L11.1011 20.0292L11.4915 21.4775ZM12.4016 21.333L12.4685 22.8315L13.6111 22.7805L13.8644 21.6652L12.4016 21.333ZM25.3606 11L25.3606 12.5C31.8709 12.5001 37.1487 17.7778 37.1487 24.2881H38.6487H40.1487C40.1487 16.1209 33.5277 9.50011 25.3606 9.5L25.3606 11ZM38.6487 24.2881L37.1487 24.2881C37.1487 30.7983 31.8709 36.0761 25.3606 36.0762L25.3606 37.5762L25.3606 39.0762C33.5277 39.0761 40.1487 32.4552 40.1487 24.2881L38.6487 24.2881ZM25.3606 37.5762V36.0762C19.9352 36.0762 15.3622 32.4095 13.9917 27.4164L12.5452 27.8135L11.0987 28.2105C12.8176 34.4728 18.5497 39.0762 25.3606 39.0762V37.5762ZM12.5452 27.8135L12.4312 26.3178C11.8143 26.3649 10.9895 26.2277 10.2958 25.9406C9.9558 25.7999 9.70319 25.6458 9.5429 25.51C9.37533 25.368 9.38549 25.3135 9.40395 25.3815L7.95633 25.7744L6.5087 26.1673C6.70171 26.8784 7.15292 27.4171 7.6037 27.799C8.06175 28.187 8.60479 28.4875 9.14855 28.7125C10.2224 29.157 11.5174 29.3962 12.6592 29.3091L12.5452 27.8135ZM7.95633 25.7744L9.40399 25.3816C9.42403 25.4555 9.3788 25.3915 9.48818 25.1255C9.59074 24.8761 9.78498 24.5632 10.0691 24.2331C10.6662 23.5393 11.4076 23.0537 11.8818 22.9259L11.4915 21.4775L11.1011 20.0292C9.85839 20.3642 8.63501 21.3004 7.79529 22.2761C7.36092 22.7807 6.96867 23.3644 6.71362 23.9846C6.4654 24.5882 6.29148 25.3667 6.50867 26.1672L7.95633 25.7744ZM11.4915 21.4775L11.8818 22.9259C12.0903 22.8697 12.2873 22.8396 12.4685 22.8315L12.4016 21.333L12.3347 19.8345C11.921 19.853 11.5071 19.9198 11.1012 20.0292L11.4915 21.4775ZM12.4016 21.333L13.8644 21.6652C15.0562 16.4168 19.753 12.5 25.3606 12.5V11V9.5C18.3219 9.5 12.4341 14.4161 10.9389 21.0009L12.4016 21.333Z" fill="white" mask="url(#path-2-outside-1_639_2788)"/>
<path d="M25.3603 37.576C32.699 37.576 38.6483 31.6268 38.6483 24.288C38.6483 16.9492 32.699 11 25.3603 11C18.0215 11 12.0723 16.9492 12.0723 24.288C12.0723 31.6268 18.0215 37.576 25.3603 37.576Z" fill="#4B98E6"/>
<circle cx="20.4924" cy="20.8103" r="3.47775" fill="white"/>
<circle cx="20.4919" cy="20.81" r="2.08665" fill="#161616"/>
<circle cx="20.4919" cy="20.81" r="2.08665" fill="#161616"/>
<path d="M13.1874 27.7094C11.4666 28.1727 8.35093 27.2276 7.9565 25.7744C7.56207 24.3212 9.77435 21.9401 11.4914 21.4774C13.2084 21.0147 14.8634 21.5877 15.4508 23.7529C16.0461 25.9436 14.9044 27.2467 13.1837 27.71L13.1874 27.7094Z" fill="#DFB820"/>
<defs>
<linearGradient id="paint0_linear_639_2788" x1="1.64063" y1="-3.96094" x2="45.3516" y2="53.8594" gradientUnits="userSpaceOnUse">
<stop stop-color="#B1FE33"/>
<stop offset="1" stop-color="#99E915"/>
</linearGradient>
</defs>
</svg>
