<svg width="200" height="200" viewBox="0 0 200 200" fill="none" xmlns="http://www.w3.org/2000/svg">
<mask id="path-1-outside-1_1347_5610" maskUnits="userSpaceOnUse" x="23" y="24" width="154" height="155" fill="black">
<rect fill="white" x="23" y="24" width="154" height="155"/>
<path d="M132.523 30.1025C145.347 29.1369 157.726 35.0633 165.013 45.6748C168.526 51.0405 170.278 57.4936 170.274 64.2705C170.34 74.0826 166.711 84.5975 159.389 93.4883C156.702 96.6458 155.128 100.599 154.909 104.739C154.172 123.734 151.973 168.459 134.639 172.077C121.268 174.867 126.923 141.75 100.139 142.577C73.3533 141.75 79.5098 174.868 66.1387 172.077C48.8048 168.458 46.1042 123.733 45.3662 104.739C45.1473 100.599 43.5737 96.6458 40.8877 93.4883C28.5843 78.5499 26.7064 59.0259 35.2637 45.9551C42.5975 35.2757 55.0885 29.3417 68 30.4023C82.9187 32.0957 86.8076 38.9812 100.139 40.2949C113.47 38.9806 117.358 32.0957 132.276 30.4023C132.39 30.393 132.503 30.3852 132.616 30.377C132.585 30.2852 132.555 30.1934 132.523 30.1025Z"/>
</mask>
<path d="M132.523 30.1025C145.347 29.1369 157.726 35.0633 165.013 45.6748C168.526 51.0405 170.278 57.4936 170.274 64.2705C170.34 74.0826 166.711 84.5975 159.389 93.4883C156.702 96.6458 155.128 100.599 154.909 104.739C154.172 123.734 151.973 168.459 134.639 172.077C121.268 174.867 126.923 141.75 100.139 142.577C73.3533 141.75 79.5098 174.868 66.1387 172.077C48.8048 168.458 46.1042 123.733 45.3662 104.739C45.1473 100.599 43.5737 96.6458 40.8877 93.4883C28.5843 78.5499 26.7064 59.0259 35.2637 45.9551C42.5975 35.2757 55.0885 29.3417 68 30.4023C82.9187 32.0957 86.8076 38.9812 100.139 40.2949C113.47 38.9806 117.358 32.0957 132.276 30.4023C132.39 30.393 132.503 30.3852 132.616 30.377C132.585 30.2852 132.555 30.1934 132.523 30.1025Z" fill="#040000"/>
<path d="M132.523 30.1025L132.073 24.1195C130.217 24.2592 128.531 25.2522 127.509 26.8074C126.487 28.3626 126.245 30.3041 126.853 32.063L132.523 30.1025ZM165.013 45.6748L170.033 42.3883C170.008 42.3514 169.984 42.3147 169.959 42.2783L165.013 45.6748ZM170.274 64.2705L164.274 64.2674C164.274 64.2817 164.274 64.2961 164.275 64.3104L170.274 64.2705ZM159.389 93.4883L163.959 97.3761C163.979 97.3518 164 97.3274 164.02 97.3027L159.389 93.4883ZM154.909 104.739L148.918 104.422C148.916 104.45 148.915 104.478 148.914 104.506L154.909 104.739ZM134.639 172.077L135.864 177.951L135.865 177.951L134.639 172.077ZM100.139 142.577L99.9535 148.574C100.077 148.578 100.2 148.578 100.324 148.574L100.139 142.577ZM66.1387 172.077L64.9125 177.951L64.9127 177.951L66.1387 172.077ZM45.3662 104.739L51.3617 104.506C51.3606 104.478 51.3593 104.45 51.3578 104.422L45.3662 104.739ZM40.8877 93.4883L36.2563 97.3027C36.2765 97.3273 36.2969 97.3517 36.3175 97.3759L40.8877 93.4883ZM35.2637 45.9551L30.3176 42.5585C30.2926 42.5949 30.268 42.6317 30.2438 42.6686L35.2637 45.9551ZM68 30.4023L68.6767 24.4406C68.615 24.4336 68.5532 24.4276 68.4912 24.4225L68 30.4023ZM100.139 40.2949L99.5502 46.266C99.9417 46.3046 100.336 46.3046 100.727 46.266L100.139 40.2949ZM132.276 30.4023L131.785 24.4225C131.723 24.4276 131.661 24.4336 131.6 24.4406L132.276 30.4023ZM132.616 30.377L133.051 36.3611C134.907 36.2262 136.596 35.2378 137.622 33.6854C138.648 32.1331 138.895 30.1925 138.292 28.4322L132.616 30.377ZM132.523 30.1025L132.974 36.0856C143.668 35.2803 153.99 40.2224 160.067 49.0713L165.013 45.6748L169.959 42.2783C161.461 29.9042 147.027 22.9934 132.073 24.1195L132.523 30.1025ZM165.013 45.6748L159.993 48.9613C162.792 53.2369 164.277 58.517 164.274 64.2674L170.274 64.2705L176.274 64.2736C176.278 56.4701 174.259 48.8441 170.033 42.3883L165.013 45.6748ZM170.274 64.2705L164.275 64.3104C164.33 72.6408 161.236 81.8076 154.757 89.6738L159.389 93.4883L164.02 97.3027C172.186 87.3875 176.349 75.5244 176.274 64.2306L170.274 64.2705ZM159.389 93.4883L154.819 89.6005C151.28 93.7599 149.206 98.9682 148.918 104.422L154.909 104.739L160.901 105.056C161.05 102.231 162.125 99.5317 163.959 97.3761L159.389 93.4883ZM154.909 104.739L148.914 104.506C148.544 114.024 147.818 129.512 145.115 142.995C143.758 149.762 141.975 155.634 139.716 159.886C137.404 164.238 135.184 165.834 133.413 166.204L134.639 172.077L135.865 177.951C142.761 176.511 147.316 171.159 150.314 165.515C153.366 159.77 155.429 152.594 156.881 145.354C159.795 130.821 160.537 114.449 160.905 104.972L154.909 104.739ZM134.639 172.077L133.413 166.204C132.972 166.296 133.067 166.189 133.271 166.299C133.312 166.321 132.995 166.16 132.393 165.24C131.793 164.324 131.167 163.065 130.396 161.322C129.714 159.782 128.772 157.515 127.868 155.553C125.972 151.436 123.309 146.483 118.847 142.669C114.183 138.683 108.029 136.331 99.9535 136.58L100.139 142.577L100.324 148.574C105.641 148.41 108.823 149.887 111.05 151.791C113.479 153.866 115.26 156.863 116.969 160.573C117.868 162.525 118.52 164.141 119.423 166.18C120.236 168.016 121.187 170.033 122.355 171.816C123.521 173.596 125.166 175.558 127.561 176.854C130.12 178.238 132.962 178.556 135.864 177.951L134.639 172.077ZM100.139 142.577L100.324 136.58C92.2493 136.331 86.1081 138.683 81.4772 142.696C77.0516 146.531 74.4576 151.506 72.6259 155.626C71.7514 157.592 70.8473 159.858 70.1906 161.399C69.4473 163.142 68.8456 164.395 68.2667 165.302C67.6854 166.214 67.3888 166.352 67.4594 166.314C67.6955 166.184 67.8116 166.297 67.3646 166.204L66.1387 172.077L64.9127 177.951C67.8085 178.555 70.6571 178.243 73.2205 176.84C75.6184 175.528 77.2437 173.543 78.3841 171.755C79.5269 169.964 80.4466 167.941 81.2293 166.105C82.0985 164.066 82.725 162.448 83.5908 160.501C85.2395 156.794 86.9644 153.819 89.3357 151.765C91.5016 149.888 94.6354 148.41 99.9535 148.574L100.139 142.577ZM66.1387 172.077L67.3649 166.204C65.5742 165.83 63.3221 164.212 60.9621 159.847C58.6589 155.586 56.8186 149.709 55.4016 142.944C52.579 129.469 51.7296 113.976 51.3617 104.506L45.3662 104.739L39.3707 104.972C39.7408 114.497 40.6107 130.863 43.6564 145.404C45.1735 152.647 47.3046 159.816 50.4059 165.553C53.4505 171.185 58.0362 176.515 64.9125 177.951L66.1387 172.077ZM45.3662 104.739L51.3578 104.422C51.0695 98.969 48.9966 93.7606 45.4578 89.6006L40.8877 93.4883L36.3175 97.3759C38.1508 99.5311 39.2252 102.23 39.3746 105.056L45.3662 104.739ZM40.8877 93.4883L45.5191 89.6738C34.5131 76.3107 33.4613 59.6622 40.2836 49.2415L35.2637 45.9551L30.2438 42.6686C19.9515 58.3896 22.6555 80.7891 36.2563 97.3027L40.8877 93.4883ZM35.2637 45.9551L40.2097 49.3516C46.3253 40.4462 56.7416 35.4977 67.5088 36.3822L68 30.4023L68.4912 24.4225C53.4354 23.1857 38.8696 30.1052 30.3176 42.5585L35.2637 45.9551ZM68 30.4023L67.3233 36.3641C73.788 37.0979 77.7719 38.8998 82.1317 40.9301C86.6641 43.0408 91.7791 45.5001 99.5502 46.266L100.139 40.2949L100.727 34.3238C95.1672 33.7759 91.6722 32.1357 87.1977 30.0519C82.5506 27.8877 77.1307 25.4002 68.6767 24.4406L68 30.4023ZM100.139 40.2949L100.727 46.266C108.498 45.4998 113.613 43.0405 118.145 40.9299C122.505 38.8996 126.488 37.0979 132.953 36.3641L132.276 30.4023L131.6 24.4406C123.146 25.4002 117.726 27.8875 113.079 30.0517C108.605 32.1354 105.11 33.7757 99.55 34.3239L100.139 40.2949ZM132.276 30.4023L132.768 36.3822C132.844 36.3759 132.91 36.3714 133.051 36.3611L132.616 30.377L132.181 24.3928C132.096 24.399 131.935 24.4101 131.785 24.4225L132.276 30.4023ZM132.616 30.377L138.292 28.4322C138.285 28.41 138.277 28.3862 138.259 28.3333C138.244 28.2884 138.22 28.2178 138.194 28.1421L132.523 30.1025L126.853 32.063C126.924 32.2701 126.826 31.9899 126.94 32.3217L132.616 30.377Z" fill="white" mask="url(#path-1-outside-1_1347_5610)"/>
<path d="M165.013 45.9553C157.679 35.2757 145.188 29.341 132.277 30.4019C117.358 32.0953 113.47 38.9806 100.138 40.2948C86.8071 38.981 82.9187 32.0953 67.9998 30.4019C55.0882 29.3413 42.5974 35.2757 35.2636 45.9553C26.7062 59.0262 28.5845 78.5499 40.888 93.4884C43.574 96.6459 45.1478 100.599 45.3667 104.739C46.1047 123.733 48.8047 168.46 66.1392 172.078C79.5103 174.868 73.3529 141.751 100.138 142.578C126.923 141.75 121.268 174.868 134.639 172.078C151.974 168.46 154.172 123.733 154.91 104.739C155.128 100.599 156.702 96.6459 159.388 93.4884C171.692 78.5499 173.57 59.0262 165.013 45.9553Z" fill="#D7E8FC"/>
<path d="M132.523 30.1021C145.347 29.1364 157.726 35.0629 165.013 45.6743C173.57 58.7452 171.692 78.2691 159.389 93.2075C156.703 96.365 155.128 100.318 154.909 104.458C154.172 123.452 151.974 168.178 134.64 171.796C130.658 172.627 128.363 170.274 126.396 166.581C149.752 110.246 141.091 54.8848 132.523 30.1021Z" fill="#BCD5F3"/>
<path d="M117.408 87.7285C116.96 93.6753 108.946 102.403 102.566 101.986C96.1866 101.568 89.5685 91.8755 90.0221 85.9287C90.4699 79.982 95.0118 75.4338 104.532 76.0572C114.162 76.6915 117.861 81.7817 117.408 87.7285Z" fill="#EAC00F"/>
<path d="M66.4317 89.1627C74.3253 89.1627 80.7242 82.7637 80.7242 74.8702C80.7242 66.9766 74.3253 60.5776 66.4317 60.5776C58.5381 60.5776 52.1392 66.9766 52.1392 74.8702C52.1392 82.7637 58.5381 89.1627 66.4317 89.1627Z" fill="white"/>
<path d="M66.4317 82.4831C70.6362 82.4831 74.0446 79.0747 74.0446 74.8702C74.0446 70.6657 70.6362 67.2573 66.4317 67.2573C62.2272 67.2573 58.8188 70.6657 58.8188 74.8702C58.8188 79.0747 62.2272 82.4831 66.4317 82.4831Z" fill="#040000"/>
<path d="M138.461 89.1627C146.355 89.1627 152.754 82.7637 152.754 74.8702C152.754 66.9766 146.355 60.5776 138.461 60.5776C130.567 60.5776 124.168 66.9766 124.168 74.8702C124.168 82.7637 130.567 89.1627 138.461 89.1627Z" fill="white"/>
<path d="M138.461 82.4831C142.665 82.4831 146.074 79.0747 146.074 74.8702C146.074 70.6657 142.665 67.2573 138.461 67.2573C134.257 67.2573 130.848 70.6657 130.848 74.8702C130.848 79.0747 134.257 82.4831 138.461 82.4831Z" fill="#040000"/>
</svg>
