<svg width="200" height="200" viewBox="0 0 200 200" fill="none" xmlns="http://www.w3.org/2000/svg">
<mask id="path-1-outside-1_1347_7037" maskUnits="userSpaceOnUse" x="28.8135" y="16.5498" width="141" height="171" fill="black">
<rect fill="white" x="28.8135" y="16.5498" width="141" height="171"/>
<path d="M102.434 22.5498C119.415 22.5498 133.826 34.0487 138.998 51.0234C140.741 51.4472 142.597 52.2805 144.202 53.3447L145.661 52.6621L145.658 52.6465C153.424 49.0095 160.845 52.6082 160.913 59.4941C161.001 66.8592 158.562 76.5049 152.019 84.4209C158.935 92.9206 163 103.279 163 114.451C163 124.789 159.523 133.969 153.546 141.517C143.131 154.661 125.077 162.803 104.4 163.291C103.76 163.321 103.105 163.321 102.449 163.321C101.794 163.321 101.137 163.306 100.497 163.291C98.0941 163.234 95.7263 163.073 93.4014 162.812C92.6878 163.619 91.9 164.413 91.0938 165.146C89.1682 166.894 86.879 168.539 84.9248 169.19C83.0911 169.802 81.3632 169.948 80.1055 169.946C80.086 169.946 80.0661 169.944 80.0469 169.944L80.4922 178.935V179.109C80.4473 179.972 79.7561 180.678 78.875 180.722C77.9938 180.765 77.2354 180.131 77.1055 179.277L77.0869 179.103L76.752 172.349L71.8682 177.841C71.2425 178.544 70.1651 178.607 69.4619 177.981C68.7589 177.356 68.6961 176.279 69.3213 175.575L75.2129 168.951L68.4375 166.864L68.2734 166.804C67.4782 166.467 67.0512 165.577 67.3105 164.733C67.5704 163.89 68.4254 163.393 69.2725 163.562L69.4414 163.605L78.6348 166.438C78.6987 166.448 78.801 166.461 78.9346 166.476C79.2074 166.505 79.6126 166.536 80.1104 166.537C81.1138 166.539 82.4554 166.419 83.8457 165.956C85.1158 165.533 86.9793 164.276 88.8008 162.622C88.9423 162.494 89.0792 162.361 89.2168 162.23C77.8243 160.327 67.6388 155.979 59.665 149.724C59.3635 150.014 59.0364 150.326 58.6953 150.639C57.2479 151.967 55.1957 153.679 53.1582 154.281C51.4195 154.795 49.836 154.83 48.6377 154.724L49.0723 163.479V163.653C49.0274 164.516 48.3353 165.222 47.4541 165.266C46.573 165.309 45.8145 164.675 45.6846 163.821L45.667 163.646L45.332 156.893L40.4473 162.385C39.8216 163.088 38.7443 163.151 38.041 162.525C37.338 161.9 37.2749 160.821 37.9004 160.118L43.793 153.494L37.0176 151.407L36.8535 151.348C36.0577 151.011 35.6299 150.12 35.8896 149.276C36.1496 148.433 37.0046 147.937 37.8516 148.106L38.0205 148.149L47.3232 151.017C47.3491 151.024 47.3751 151.032 47.4004 151.041C47.4029 151.042 47.4057 151.042 47.4082 151.043C47.4165 151.046 47.4318 151.051 47.4531 151.058C47.5035 151.073 47.5893 151.099 47.7051 151.128C47.9377 151.186 48.2905 151.26 48.7334 151.31C49.6239 151.41 50.8492 151.41 52.1934 151.013C53.3802 150.662 54.9041 149.49 56.3896 148.127C56.6145 147.921 56.8295 147.717 57.0361 147.521C54.9529 145.654 53.0497 143.644 51.3516 141.501C45.3592 133.953 41.8984 124.758 41.8984 114.436H41.8828C41.8828 98.242 50.4065 83.7562 63.8096 74.165C63.8096 74.165 64.1909 73.8596 64.999 73.3564C64.6177 73.0186 63.8409 67.6996 63.8408 65.0469C63.8408 40.6954 81.1166 22.5499 102.434 22.5498Z"/>
</mask>
<path d="M102.434 22.5498C119.415 22.5498 133.826 34.0487 138.998 51.0234C140.741 51.4472 142.597 52.2805 144.202 53.3447L145.661 52.6621L145.658 52.6465C153.424 49.0095 160.845 52.6082 160.913 59.4941C161.001 66.8592 158.562 76.5049 152.019 84.4209C158.935 92.9206 163 103.279 163 114.451C163 124.789 159.523 133.969 153.546 141.517C143.131 154.661 125.077 162.803 104.4 163.291C103.76 163.321 103.105 163.321 102.449 163.321C101.794 163.321 101.137 163.306 100.497 163.291C98.0941 163.234 95.7263 163.073 93.4014 162.812C92.6878 163.619 91.9 164.413 91.0938 165.146C89.1682 166.894 86.879 168.539 84.9248 169.19C83.0911 169.802 81.3632 169.948 80.1055 169.946C80.086 169.946 80.0661 169.944 80.0469 169.944L80.4922 178.935V179.109C80.4473 179.972 79.7561 180.678 78.875 180.722C77.9938 180.765 77.2354 180.131 77.1055 179.277L77.0869 179.103L76.752 172.349L71.8682 177.841C71.2425 178.544 70.1651 178.607 69.4619 177.981C68.7589 177.356 68.6961 176.279 69.3213 175.575L75.2129 168.951L68.4375 166.864L68.2734 166.804C67.4782 166.467 67.0512 165.577 67.3105 164.733C67.5704 163.89 68.4254 163.393 69.2725 163.562L69.4414 163.605L78.6348 166.438C78.6987 166.448 78.801 166.461 78.9346 166.476C79.2074 166.505 79.6126 166.536 80.1104 166.537C81.1138 166.539 82.4554 166.419 83.8457 165.956C85.1158 165.533 86.9793 164.276 88.8008 162.622C88.9423 162.494 89.0792 162.361 89.2168 162.23C77.8243 160.327 67.6388 155.979 59.665 149.724C59.3635 150.014 59.0364 150.326 58.6953 150.639C57.2479 151.967 55.1957 153.679 53.1582 154.281C51.4195 154.795 49.836 154.83 48.6377 154.724L49.0723 163.479V163.653C49.0274 164.516 48.3353 165.222 47.4541 165.266C46.573 165.309 45.8145 164.675 45.6846 163.821L45.667 163.646L45.332 156.893L40.4473 162.385C39.8216 163.088 38.7443 163.151 38.041 162.525C37.338 161.9 37.2749 160.821 37.9004 160.118L43.793 153.494L37.0176 151.407L36.8535 151.348C36.0577 151.011 35.6299 150.12 35.8896 149.276C36.1496 148.433 37.0046 147.937 37.8516 148.106L38.0205 148.149L47.3232 151.017C47.3491 151.024 47.3751 151.032 47.4004 151.041C47.4029 151.042 47.4057 151.042 47.4082 151.043C47.4165 151.046 47.4318 151.051 47.4531 151.058C47.5035 151.073 47.5893 151.099 47.7051 151.128C47.9377 151.186 48.2905 151.26 48.7334 151.31C49.6239 151.41 50.8492 151.41 52.1934 151.013C53.3802 150.662 54.9041 149.49 56.3896 148.127C56.6145 147.921 56.8295 147.717 57.0361 147.521C54.9529 145.654 53.0497 143.644 51.3516 141.501C45.3592 133.953 41.8984 124.758 41.8984 114.436H41.8828C41.8828 98.242 50.4065 83.7562 63.8096 74.165C63.8096 74.165 64.1909 73.8596 64.999 73.3564C64.6177 73.0186 63.8409 67.6996 63.8408 65.0469C63.8408 40.6954 81.1166 22.5499 102.434 22.5498Z" fill="#276288"/>
<path d="M102.434 22.5498V16.5498H102.434L102.434 22.5498ZM138.998 51.0234L133.259 52.7722C133.877 54.8009 135.52 56.3526 137.581 56.8536L138.998 51.0234ZM144.202 53.3447L140.887 58.3457C142.63 59.5015 144.85 59.6658 146.745 58.7793L144.202 53.3447ZM145.661 52.6621L148.204 58.0967C150.683 56.9368 152.063 54.2464 151.558 51.5564L145.661 52.6621ZM145.658 52.6465L143.113 47.2129C140.636 48.3733 139.257 51.063 139.761 53.7522L145.658 52.6465ZM160.913 59.4941L154.913 59.5538L154.914 59.566L160.913 59.4941ZM152.019 84.4209L147.394 80.5981C145.571 82.8033 145.559 85.9888 147.365 88.2079L152.019 84.4209ZM163 114.451L169 114.451V114.451H163ZM153.546 141.517L158.249 145.243L158.25 145.242L153.546 141.517ZM104.4 163.291L104.259 157.293C104.211 157.294 104.163 157.296 104.115 157.298L104.4 163.291ZM102.449 163.321V157.321V163.321ZM100.497 163.291L100.64 157.293L100.639 157.293L100.497 163.291ZM93.4014 162.812L94.0683 156.85C92.1273 156.633 90.2022 157.374 88.908 158.836L93.4014 162.812ZM91.0938 165.146L95.1279 169.587L95.1281 169.587L91.0938 165.146ZM84.9248 169.19L86.822 174.883L86.8228 174.882L84.9248 169.19ZM80.1055 169.946L80.0895 175.946H80.0958L80.1055 169.946ZM80.0469 169.944L80.079 163.944C78.4306 163.936 76.8512 164.605 75.7117 165.796C74.5721 166.987 73.9727 168.595 74.0542 170.241L80.0469 169.944ZM80.4922 178.935H86.4922C86.4922 178.836 86.4897 178.737 86.4848 178.638L80.4922 178.935ZM80.4922 179.109L86.4841 179.421C86.4895 179.317 86.4922 179.213 86.4922 179.109H80.4922ZM78.875 180.722L79.1707 186.714L79.1734 186.714L78.875 180.722ZM77.1055 179.277L71.139 179.911C71.1485 180.001 71.1602 180.091 71.1738 180.18L77.1055 179.277ZM77.0869 179.103L71.0943 179.4C71.0998 179.512 71.1086 179.624 71.1204 179.736L77.0869 179.103ZM76.752 172.349L82.7446 172.051C82.6239 169.618 81.0434 167.499 78.7452 166.689C76.4469 165.88 73.8874 166.541 72.2682 168.362L76.752 172.349ZM71.8682 177.841L76.3493 181.831L76.3519 181.828L71.8682 177.841ZM69.4619 177.981L65.4734 182.464L65.4751 182.465L69.4619 177.981ZM69.3213 175.575L64.838 171.588L64.8369 171.589L69.3213 175.575ZM75.2129 168.951L79.6961 172.939C81.053 171.413 81.541 169.302 80.9914 167.336C80.4419 165.37 78.9302 163.818 76.9791 163.217L75.2129 168.951ZM68.4375 166.864L66.3602 172.493C66.4629 172.531 66.5666 172.566 66.6713 172.598L68.4375 166.864ZM68.2734 166.804L65.9352 172.329C66.0214 172.366 66.1083 172.4 66.1961 172.433L68.2734 166.804ZM67.3105 164.733L61.5765 162.967L61.5757 162.969L67.3105 164.733ZM69.2725 163.562L70.7514 157.748C70.6514 157.722 70.5508 157.699 70.4496 157.679L69.2725 163.562ZM69.4414 163.605L71.2084 157.872C71.113 157.842 71.017 157.815 70.9203 157.791L69.4414 163.605ZM78.6348 166.438L76.8678 172.172C77.1581 172.262 77.4548 172.329 77.7554 172.374L78.6348 166.438ZM78.9346 166.476L78.3015 172.442L78.3021 172.442L78.9346 166.476ZM80.1104 166.537L80.1003 172.537H80.1006L80.1104 166.537ZM83.8457 165.956L85.7425 171.648L85.7436 171.648L83.8457 165.956ZM88.8008 162.622L92.8349 167.063L92.835 167.063L88.8008 162.622ZM89.2168 162.23L93.3399 166.589C94.9942 165.025 95.6201 162.658 94.9558 160.48C94.2916 158.302 92.4517 156.688 90.2058 156.313L89.2168 162.23ZM59.665 149.724L63.3685 145.003C61.0142 143.156 57.6589 143.326 55.5034 145.402L59.665 149.724ZM58.6953 150.639L62.7519 155.06L62.752 155.059L58.6953 150.639ZM53.1582 154.281L54.8574 160.036L54.8577 160.036L53.1582 154.281ZM48.6377 154.724L49.1675 148.747C47.439 148.594 45.7288 149.196 44.4782 150.399C43.2276 151.602 42.559 153.288 42.6451 155.021L48.6377 154.724ZM49.0723 163.479H55.0723C55.0723 163.379 55.0698 163.28 55.0649 163.181L49.0723 163.479ZM49.0723 163.653L55.0642 163.965C55.0696 163.861 55.0723 163.757 55.0723 163.653H49.0723ZM47.4541 165.266L47.749 171.258L47.7523 171.258L47.4541 165.266ZM45.6846 163.821L39.7147 164.422C39.7248 164.523 39.7376 164.624 39.7529 164.724L45.6846 163.821ZM45.667 163.646L39.6744 163.944C39.6794 164.045 39.687 164.146 39.6971 164.247L45.667 163.646ZM45.332 156.893L51.3247 156.595C51.204 154.162 49.6236 152.043 47.3255 151.233C45.0274 150.424 42.468 151.085 40.8487 152.905L45.332 156.893ZM40.4473 162.385L44.9292 166.374L44.9306 166.372L40.4473 162.385ZM38.041 162.525L34.0519 167.007L34.0542 167.009L38.041 162.525ZM37.9004 160.118L33.4175 156.13L33.4172 156.131L37.9004 160.118ZM43.793 153.494L48.2759 157.482C49.6329 155.957 50.1211 153.846 49.5716 151.879C49.0221 149.913 47.5104 148.361 45.5592 147.76L43.793 153.494ZM37.0176 151.407L34.9698 157.047C35.0629 157.081 35.1568 157.112 35.2514 157.141L37.0176 151.407ZM36.8535 151.348L34.5173 156.874C34.6124 156.914 34.7086 156.952 34.8058 156.987L36.8535 151.348ZM35.8896 149.276L30.1559 147.509L30.1554 147.51L35.8896 149.276ZM37.8516 148.106L39.3305 142.292C39.2305 142.266 39.1299 142.243 39.0288 142.223L37.8516 148.106ZM38.0205 148.149L39.7877 142.416C39.6923 142.386 39.5962 142.359 39.4994 142.335L38.0205 148.149ZM47.3232 151.017L45.556 156.75C45.5644 156.753 45.5729 156.756 45.5813 156.758L47.3232 151.017ZM47.4004 151.041L45.3866 156.693L45.3893 156.694L47.4004 151.041ZM47.4082 151.043L45.4143 156.702C45.4364 156.71 45.4585 156.717 45.4806 156.725L47.4082 151.043ZM47.4531 151.058L45.6753 156.788L45.6765 156.789L47.4531 151.058ZM47.7051 151.128L46.2431 156.947L46.2437 156.947L47.7051 151.128ZM48.7334 151.31L48.0625 157.272L48.0628 157.272L48.7334 151.31ZM52.1934 151.013L53.8927 156.767L53.8933 156.767L52.1934 151.013ZM56.3896 148.127L60.4462 152.548L60.4463 152.548L56.3896 148.127ZM57.0361 147.521L61.1747 151.865C62.3865 150.71 63.061 149.102 63.0354 147.429C63.0098 145.755 62.2864 144.169 61.0399 143.052L57.0361 147.521ZM51.3516 141.501L56.0543 137.775L56.0507 137.77L51.3516 141.501ZM41.8984 114.436H47.8984C47.8984 111.122 45.2121 108.436 41.8984 108.436V114.436ZM41.8828 114.436L35.8828 114.436C35.8828 116.027 36.515 117.553 37.6402 118.678C38.7654 119.803 40.2915 120.436 41.8828 120.436V114.436ZM63.8096 74.165L67.3012 79.0444C67.3894 78.9813 67.4758 78.9159 67.5605 78.8481L63.8096 74.165ZM64.999 73.3564L68.1704 78.4498C69.7781 77.4488 70.8188 75.7474 70.9778 73.8602C71.1368 71.973 70.3955 70.1214 68.9779 68.8655L64.999 73.3564ZM63.8408 65.0469H57.8408V65.0471L63.8408 65.0469ZM102.434 22.5498V28.5498C116.507 28.5498 128.775 38.0564 133.259 52.7722L138.998 51.0234L144.738 49.2747C138.877 30.0409 122.324 16.5498 102.434 16.5498V22.5498ZM138.998 51.0234L137.581 56.8536C138.584 57.0975 139.804 57.6278 140.887 58.3457L144.202 53.3447L147.517 48.3438C145.39 46.9333 142.898 45.7968 140.415 45.1933L138.998 51.0234ZM144.202 53.3447L146.745 58.7793L148.204 58.0967L145.661 52.6621L143.118 47.2275L141.659 47.9101L144.202 53.3447ZM145.661 52.6621L151.558 51.5564L151.555 51.5408L145.658 52.6465L139.761 53.7522L139.764 53.7678L145.661 52.6621ZM145.658 52.6465L148.203 58.0801C150.767 56.8793 152.695 57.1283 153.662 57.5737C154.477 57.9494 154.903 58.5267 154.913 59.5538L160.913 59.4941L166.913 59.4344C166.854 53.5756 163.536 48.9106 158.683 46.6747C153.981 44.5085 148.315 44.7766 143.113 47.2129L145.658 52.6465ZM160.913 59.4941L154.914 59.566C154.987 65.7097 152.914 73.9206 147.394 80.5981L152.019 84.4209L156.643 88.2437C164.211 79.0892 167.015 68.0088 166.913 59.4223L160.913 59.4941ZM152.019 84.4209L147.365 88.2079C153.493 95.739 157 104.784 157 114.451H163H169C169 101.775 164.377 90.1023 156.672 80.6339L152.019 84.4209ZM163 114.451L157 114.451C157 123.372 154.021 131.252 148.842 137.792L153.546 141.517L158.25 145.242C165.025 136.686 169 126.207 169 114.451L163 114.451ZM153.546 141.517L148.843 137.79C139.763 149.251 123.553 156.837 104.259 157.293L104.4 163.291L104.542 169.289C126.601 168.769 146.5 160.07 158.249 145.243L153.546 141.517ZM104.4 163.291L104.115 157.298C103.643 157.32 103.133 157.321 102.449 157.321V163.321V169.321C103.077 169.321 103.878 169.323 104.686 169.284L104.4 163.291ZM102.449 163.321V157.321C101.875 157.321 101.286 157.308 100.64 157.293L100.497 163.291L100.354 169.289C100.989 169.304 101.712 169.321 102.449 169.321V163.321ZM100.497 163.291L100.639 157.293C98.4117 157.24 96.2191 157.09 94.0683 156.85L93.4014 162.812L92.7345 168.775C95.2334 169.055 97.7765 169.228 100.355 169.289L100.497 163.291ZM93.4014 162.812L88.908 158.836C88.3463 159.471 87.7128 160.111 87.0594 160.704L91.0938 165.146L95.1281 169.587C96.0873 168.715 97.0294 167.767 97.8948 166.789L93.4014 162.812ZM91.0938 165.146L87.0596 160.704C85.3174 162.287 83.7772 163.248 83.0269 163.499L84.9248 169.19L86.8228 174.882C89.9809 173.829 93.0191 171.502 95.1279 169.587L91.0938 165.146ZM84.9248 169.19L83.0276 163.498C81.9736 163.85 80.925 163.948 80.1151 163.946L80.1055 169.946L80.0958 175.946C81.8015 175.949 84.2087 175.754 86.822 174.883L84.9248 169.19ZM80.1055 169.946L80.1214 163.946C80.1636 163.946 80.2007 163.947 80.2315 163.948C80.2623 163.948 80.2883 163.949 80.3079 163.95C80.3274 163.951 80.3428 163.951 80.3514 163.952C80.3593 163.952 80.3653 163.952 80.3625 163.952C80.3624 163.952 80.3522 163.952 80.3413 163.951C80.3293 163.951 80.3105 163.95 80.2876 163.949C80.2645 163.948 80.2349 163.947 80.2005 163.946C80.1661 163.945 80.1251 163.945 80.079 163.944L80.0469 169.944L80.0147 175.944C79.9339 175.944 79.87 175.942 79.8353 175.94C79.8172 175.94 79.8032 175.939 79.7962 175.939C79.7902 175.939 79.7849 175.938 79.7897 175.938C79.7918 175.939 79.8027 175.939 79.8155 175.94C79.8291 175.94 79.8493 175.941 79.8737 175.942C79.9213 175.944 79.997 175.946 80.0895 175.946L80.1055 169.946ZM80.0469 169.944L74.0542 170.241L74.4995 179.231L80.4922 178.935L86.4848 178.638L86.0395 169.648L80.0469 169.944ZM80.4922 178.935H74.4922V179.109H80.4922H86.4922V178.935H80.4922ZM80.4922 179.109L74.5003 178.798C74.6135 176.622 76.3488 174.84 78.5766 174.729L78.875 180.722L79.1734 186.714C83.1634 186.516 86.2811 183.322 86.4841 179.421L80.4922 179.109ZM78.875 180.722L78.5793 174.729C80.8032 174.619 82.7087 176.216 83.0372 178.374L77.1055 179.277L71.1738 180.18C71.7622 184.046 75.1845 186.911 79.1707 186.714L78.875 180.722ZM77.1055 179.277L83.072 178.644L83.0534 178.469L77.0869 179.103L71.1204 179.736L71.139 179.911L77.1055 179.277ZM77.0869 179.103L83.0795 178.805L82.7446 172.051L76.752 172.349L70.7593 172.646L71.0943 179.4L77.0869 179.103ZM76.752 172.349L72.2682 168.362L67.3845 173.854L71.8682 177.841L76.3519 181.828L81.2357 176.336L76.752 172.349ZM71.8682 177.841L67.3871 173.851C68.9626 172.081 71.6754 171.921 73.4487 173.498L69.4619 177.981L65.4751 182.465C68.6549 185.293 73.5223 185.006 76.3493 181.831L71.8682 177.841ZM69.4619 177.981L73.4504 173.499C75.2234 175.077 75.38 177.79 73.8057 179.561L69.3213 175.575L64.8369 171.589C62.0121 174.767 62.2943 179.635 65.4734 182.464L69.4619 177.981ZM69.3213 175.575L73.8045 179.563L79.6961 172.939L75.2129 168.951L70.7296 164.964L64.838 171.588L69.3213 175.575ZM75.2129 168.951L76.9791 163.217L70.2037 161.13L68.4375 166.864L66.6713 172.598L73.4467 174.685L75.2129 168.951ZM68.4375 166.864L70.5148 161.235L70.3508 161.175L68.2734 166.804L66.1961 172.433L66.3602 172.493L68.4375 166.864ZM68.2734 166.804L70.6117 161.278C72.6224 162.129 73.6998 164.37 73.0454 166.497L67.3105 164.733L61.5757 162.969C60.4026 166.783 62.3339 170.805 65.9352 172.329L68.2734 166.804ZM67.3105 164.733L73.0446 166.5C72.3896 168.626 70.2391 169.875 68.0953 169.446L69.2725 163.562L70.4496 157.679C66.6117 156.911 62.7512 159.154 61.5765 162.967L67.3105 164.733ZM69.2725 163.562L67.7935 169.377L67.9625 169.42L69.4414 163.605L70.9203 157.791L70.7514 157.748L69.2725 163.562ZM69.4414 163.605L67.6745 169.339L76.8678 172.172L78.6348 166.438L80.4017 160.705L71.2084 157.872L69.4414 163.605ZM78.6348 166.438L77.7554 172.374C77.911 172.397 78.0961 172.42 78.3015 172.442L78.9346 166.476L79.5676 160.509C79.539 160.506 79.5186 160.504 79.5073 160.502C79.4949 160.501 79.4973 160.501 79.5142 160.503L78.6348 166.438ZM78.9346 166.476L78.3021 172.442C78.7374 172.488 79.3543 172.536 80.1003 172.537L80.1104 166.537L80.1204 160.537C79.8708 160.537 79.6775 160.521 79.567 160.509L78.9346 166.476ZM80.1104 166.537L80.1006 172.537C81.5533 172.539 83.5736 172.371 85.7425 171.648L83.8457 165.956L81.9489 160.264C81.3371 160.468 80.6744 160.538 80.1202 160.537L80.1104 166.537ZM83.8457 165.956L85.7436 171.648C88.2196 170.822 90.833 168.882 92.8349 167.063L88.8008 162.622L84.7667 158.181C84.0398 158.841 83.3455 159.383 82.7659 159.773C82.1249 160.205 81.8531 160.296 81.9478 160.264L83.8457 165.956ZM88.8008 162.622L92.835 167.063C93.0358 166.881 93.2781 166.648 93.3399 166.589L89.2168 162.23L85.0937 157.872C84.8804 158.073 84.8488 158.106 84.7666 158.181L88.8008 162.622ZM89.2168 162.23L90.2058 156.313C79.6847 154.554 70.4618 150.568 63.3685 145.003L59.665 149.724L55.9616 154.444C64.8157 161.391 75.964 166.099 88.2278 168.148L89.2168 162.23ZM59.665 149.724L55.5034 145.402C55.2159 145.678 54.9282 145.952 54.6387 146.218L58.6953 150.639L62.752 155.059C63.1446 154.699 63.5112 154.35 63.8267 154.046L59.665 149.724ZM58.6953 150.639L54.6387 146.218C53.9927 146.811 53.3335 147.375 52.6888 147.83C52.006 148.312 51.5946 148.487 51.4587 148.527L53.1582 154.281L54.8577 160.036C58.3872 158.993 61.3623 156.335 62.7519 155.06L58.6953 150.639ZM53.1582 154.281L51.459 148.527C50.5996 148.781 49.7977 148.803 49.1675 148.747L48.6377 154.724L48.1079 160.7C49.8743 160.857 52.2394 160.809 54.8574 160.036L53.1582 154.281ZM48.6377 154.724L42.6451 155.021L43.0796 163.776L49.0723 163.479L55.0649 163.181L54.6303 154.426L48.6377 154.724ZM49.0723 163.479H43.0723V163.653H49.0723H55.0723V163.479H49.0723ZM49.0723 163.653L43.0804 163.342C43.1938 161.161 44.9325 159.384 47.1559 159.273L47.4541 165.266L47.7523 171.258C51.738 171.06 54.8611 167.871 55.0642 163.965L49.0723 163.653ZM47.4541 165.266L47.1592 159.273C49.3817 159.163 51.2877 160.759 51.6163 162.919L45.6846 163.821L39.7529 164.724C40.3413 168.591 43.7644 171.454 47.749 171.258L47.4541 165.266ZM45.6846 163.821L51.6545 163.221L51.6369 163.046L45.667 163.646L39.6971 164.247L39.7147 164.422L45.6846 163.821ZM45.667 163.646L51.6596 163.349L51.3247 156.595L45.332 156.893L39.3394 157.19L39.6744 163.944L45.667 163.646ZM45.332 156.893L40.8487 152.905L35.964 158.397L40.4473 162.385L44.9306 166.372L49.8153 160.88L45.332 156.893ZM40.4473 162.385L35.9653 158.396C37.5419 156.624 40.2555 156.466 42.0279 158.042L38.041 162.525L34.0542 167.009C37.2331 169.836 42.1013 169.551 44.9292 166.374L40.4473 162.385ZM38.041 162.525L42.0301 158.044C43.8007 159.619 43.9607 162.333 42.3836 164.106L37.9004 160.118L33.4172 156.131C30.589 159.31 30.8752 164.18 34.0519 167.007L38.041 162.525ZM37.9004 160.118L42.3833 164.106L48.2759 157.482L43.793 153.494L39.31 149.506L33.4175 156.13L37.9004 160.118ZM43.793 153.494L45.5592 147.76L38.7838 145.673L37.0176 151.407L35.2514 157.141L42.0268 159.228L43.793 153.494ZM37.0176 151.407L39.0653 145.767L38.9013 145.708L36.8535 151.348L34.8058 156.987L34.9698 157.047L37.0176 151.407ZM36.8535 151.348L39.1898 145.821C41.199 146.671 42.2802 148.911 41.6239 151.042L35.8896 149.276L30.1554 147.51C28.9795 151.328 30.9163 155.352 34.5173 156.874L36.8535 151.348ZM35.8896 149.276L41.6234 151.044C40.9669 153.173 38.8138 154.418 36.6743 153.99L37.8516 148.106L39.0288 142.223C35.1954 141.456 31.3323 143.693 30.1559 147.509L35.8896 149.276ZM37.8516 148.106L36.3726 153.921L36.5416 153.964L38.0205 148.149L39.4994 142.335L39.3305 142.292L37.8516 148.106ZM38.0205 148.149L36.2533 153.883L45.556 156.75L47.3232 151.017L49.0905 145.283L39.7877 142.416L38.0205 148.149ZM47.3232 151.017L45.5813 156.758C45.5898 156.761 45.5972 156.763 45.6015 156.764C45.6077 156.766 45.6071 156.766 45.609 156.767C45.6111 156.767 45.6007 156.764 45.5857 156.759C45.557 156.75 45.4828 156.727 45.3866 156.693L47.4004 151.041L49.4142 145.389C49.2927 145.346 49.1928 145.314 49.1383 145.297C49.1104 145.289 49.0872 145.282 49.0763 145.278C49.0717 145.277 49.0647 145.275 49.0643 145.275C49.0622 145.274 49.0631 145.274 49.0652 145.275L47.3232 151.017ZM47.4004 151.041L45.3893 156.694C45.5266 156.743 45.6494 156.781 45.7522 156.81C45.8039 156.825 45.8516 156.838 45.8946 156.849C45.9375 156.86 45.9766 156.87 46.0108 156.878C46.0451 156.886 46.0755 156.893 46.1012 156.899C46.1268 156.904 46.1488 156.909 46.1659 156.913C46.1829 156.916 46.1967 156.919 46.2052 156.921C46.2096 156.922 46.2132 156.923 46.2154 156.923C46.2176 156.923 46.2193 156.924 46.2193 156.924C46.2199 156.924 46.2185 156.924 46.2169 156.923C46.2152 156.923 46.2121 156.922 46.2083 156.922C46.2008 156.92 46.1879 156.917 46.172 156.914C46.1559 156.911 46.1349 156.906 46.1104 156.901C46.0858 156.895 46.0563 156.889 46.0231 156.881C45.9899 156.873 45.9519 156.864 45.91 156.853C45.8681 156.842 45.8214 156.83 45.7708 156.815C45.6701 156.787 45.5495 156.75 45.4143 156.702L47.4082 151.043L49.4021 145.384C49.3339 145.36 49.2696 145.339 49.21 145.32C49.1503 145.301 49.0947 145.285 49.0437 145.27C48.9927 145.256 48.9458 145.243 48.9035 145.232C48.8613 145.221 48.823 145.212 48.7894 145.204C48.7559 145.196 48.7262 145.189 48.7012 145.184C48.6763 145.178 48.655 145.174 48.6386 145.17C48.6223 145.167 48.6092 145.164 48.6013 145.163C48.5973 145.162 48.5941 145.161 48.5921 145.161C48.5904 145.16 48.5889 145.16 48.5893 145.16C48.5893 145.16 48.5894 145.16 48.5895 145.16C48.5897 145.16 48.5899 145.16 48.5902 145.16C48.5907 145.16 48.5916 145.161 48.5927 145.161C48.5948 145.161 48.5982 145.162 48.6024 145.163C48.6106 145.164 48.624 145.167 48.6407 145.171C48.6575 145.174 48.6791 145.179 48.7044 145.185C48.7297 145.19 48.7599 145.197 48.7938 145.205C48.8277 145.213 48.8664 145.223 48.9091 145.234C48.9517 145.245 48.9991 145.258 49.0505 145.272C49.1019 145.287 49.158 145.304 49.2181 145.323C49.2782 145.342 49.3429 145.364 49.4115 145.388L47.4004 151.041ZM47.4082 151.043L45.4806 156.725C45.479 156.724 45.4897 156.728 45.5004 156.732C45.5126 156.736 45.5281 156.741 45.5461 156.747C45.5825 156.759 45.6259 156.773 45.6753 156.788L47.4531 151.058L49.231 145.327C49.259 145.336 49.2841 145.344 49.3055 145.351C49.3257 145.358 49.3433 145.364 49.3358 145.361L47.4082 151.043ZM47.4531 151.058L45.6765 156.789C45.804 156.828 45.9974 156.885 46.2431 156.947L47.7051 151.128L49.1671 145.309C49.1731 145.31 49.1819 145.313 49.1937 145.316C49.2062 145.32 49.2189 145.323 49.2298 145.327L47.4531 151.058ZM47.7051 151.128L46.2437 156.947C46.708 157.064 47.3257 157.189 48.0625 157.272L48.7334 151.31L49.4043 145.347C49.3316 145.339 49.2725 145.33 49.2299 145.322C49.1869 145.314 49.1647 145.308 49.1665 145.309L47.7051 151.128ZM48.7334 151.31L48.0628 157.272C49.5405 157.438 51.6017 157.444 53.8927 156.767L52.1934 151.013L50.4941 145.258C50.0967 145.376 49.7072 145.381 49.404 145.347L48.7334 151.31ZM52.1934 151.013L53.8933 156.767C55.4207 156.316 56.7311 155.496 57.651 154.843C58.6445 154.138 59.6 153.324 60.4462 152.548L56.3896 148.127L52.3331 143.706C51.6938 144.293 51.1445 144.746 50.708 145.056C50.4942 145.207 50.3531 145.292 50.2817 145.331C50.1996 145.375 50.2773 145.322 50.4934 145.259L52.1934 151.013ZM56.3896 148.127L60.4463 152.548C60.712 152.304 60.9583 152.071 61.1747 151.865L57.0361 147.521L52.8976 143.176C52.7007 143.364 52.517 143.537 52.333 143.706L56.3896 148.127ZM57.0361 147.521L61.0399 143.052C59.1983 141.402 57.5312 139.639 56.0543 137.775L51.3516 141.501L46.6488 145.227C48.5683 147.65 50.7075 149.906 53.0324 151.989L57.0361 147.521ZM51.3516 141.501L56.0507 137.77C50.8655 131.239 47.8984 123.348 47.8984 114.436H41.8984H35.8984C35.8984 126.169 39.8529 136.667 46.6524 145.232L51.3516 141.501ZM41.8984 114.436V108.436H41.8828V114.436V120.436H41.8984V114.436ZM41.8828 114.436L47.8828 114.436C47.8828 100.462 55.2259 87.6855 67.3012 79.0444L63.8096 74.165L60.3179 69.2857C45.5872 79.8269 35.8828 96.0216 35.8828 114.436L41.8828 114.436ZM63.8096 74.165C67.5605 78.8481 67.5599 78.8485 67.5594 78.8489C67.5592 78.8491 67.5587 78.8495 67.5584 78.8498C67.5577 78.8503 67.557 78.8509 67.5563 78.8514C67.555 78.8525 67.5536 78.8535 67.5523 78.8546C67.5497 78.8567 67.5471 78.8587 67.5447 78.8607C67.5398 78.8646 67.5353 78.8681 67.5311 78.8714C67.5227 78.878 67.5158 78.8834 67.5104 78.8877C67.4995 78.8961 67.4944 78.9 67.4953 78.8993C67.497 78.898 67.5224 78.8789 67.5722 78.8436C67.6718 78.7729 67.8693 78.6373 68.1704 78.4498L64.999 73.3564L61.8277 68.2631C61.3206 68.5788 60.9234 68.8475 60.6303 69.0553C60.4838 69.1592 60.3633 69.2479 60.2683 69.3196C60.2208 69.3555 60.1796 69.3871 60.1447 69.4142C60.1272 69.4278 60.1114 69.4402 60.097 69.4515C60.0899 69.4572 60.0831 69.4626 60.0767 69.4676C60.0735 69.4702 60.0704 69.4726 60.0674 69.475C60.0659 69.4762 60.0644 69.4774 60.063 69.4786C60.0622 69.4792 60.0615 69.4797 60.0608 69.4803C60.0605 69.4806 60.0599 69.481 60.0597 69.4812C60.0592 69.4816 60.0587 69.482 63.8096 74.165ZM64.999 73.3564L68.9779 68.8655C69.5501 69.3724 69.8871 69.8718 70.0365 70.1087C70.2082 70.3808 70.3188 70.6084 70.3784 70.7385C70.4952 70.9935 70.5523 71.176 70.5617 71.2056C70.5852 71.2803 70.5691 71.241 70.5229 71.0264C70.437 70.6269 70.3271 69.9987 70.2174 69.2263C69.9908 67.6301 69.8408 65.9586 69.8408 65.0467L63.8408 65.0469L57.8408 65.0471C57.8409 66.7879 58.0794 69.1022 58.3365 70.9132C58.4688 71.8443 58.6246 72.7751 58.7915 73.5508C58.8717 73.9238 58.9789 74.3762 59.1179 74.8168C59.185 75.0293 59.2979 75.3634 59.468 75.7347C59.5434 75.8994 59.9947 76.9389 61.0202 77.8474L64.999 73.3564ZM63.8408 65.0469H69.8408C69.8408 43.5365 84.884 28.5499 102.434 28.5498L102.434 22.5498L102.434 16.5498C77.3492 16.5499 57.8408 37.8544 57.8408 65.0469H63.8408Z" fill="white" mask="url(#path-1-outside-1_1347_7037)"/>
<path d="M60.2012 145.016C61.0529 144.872 61.8917 145.394 62.126 146.244C62.3449 147.04 61.9617 147.86 61.252 148.218C61.2383 148.229 61.2202 148.243 61.1992 148.261C61.0651 148.375 60.8775 148.551 60.623 148.796C60.1365 149.265 59.4487 149.947 58.6953 150.639C57.2478 151.967 55.1957 153.68 53.1582 154.281C51.4199 154.795 49.8369 154.83 48.6387 154.724L49.0723 163.479V163.652C49.0276 164.515 48.3363 165.221 47.4551 165.265C46.5736 165.308 45.8144 164.674 45.6846 163.82L45.667 163.646L45.332 156.893L40.4473 162.385C39.8216 163.087 38.7452 163.15 38.042 162.525C37.3386 161.9 37.2757 160.822 37.9014 160.118L43.793 153.494L37.0176 151.407L36.8535 151.348C36.0577 151.011 35.6299 150.12 35.8896 149.276C36.1495 148.433 37.0045 147.937 37.8516 148.106L38.0215 148.149L47.3311 151.018C47.3354 151.019 47.3394 151.021 47.3438 151.022C47.3627 151.028 47.3817 151.034 47.4004 151.041C47.4032 151.042 47.4063 151.043 47.4092 151.044L47.4082 151.043L47.4053 151.042C47.4127 151.044 47.4288 151.05 47.4531 151.058C47.5035 151.073 47.5891 151.099 47.7051 151.128C47.9377 151.186 48.2904 151.26 48.7334 151.31C49.6239 151.41 50.8492 151.409 52.1934 151.012C53.3803 150.661 54.905 149.49 56.3906 148.127C57.1039 147.472 57.723 146.856 58.2578 146.341C58.5135 146.095 58.7649 145.856 58.9834 145.669C59.092 145.576 59.2189 145.474 59.3516 145.382C59.4477 145.315 59.6979 145.144 60.0303 145.053L60.2012 145.016Z" fill="#474747"/>
<path d="M92.7832 157.895C93.2166 157.059 94.2454 156.732 95.0811 157.165C95.9163 157.598 96.2425 158.627 95.8096 159.463C94.873 161.269 93.0344 163.383 91.0938 165.146C89.1681 166.895 86.8792 168.539 84.9248 169.19C83.0909 169.802 81.3633 169.948 80.1055 169.946C80.0858 169.946 80.0663 169.944 80.0469 169.944L80.4932 178.935V179.109C80.4484 179.972 79.7562 180.678 78.875 180.722C77.9937 180.765 77.2353 180.131 77.1055 179.277L77.0879 179.103L76.7529 172.349L71.8682 177.841C71.2425 178.544 70.1652 178.607 69.4619 177.981C68.7589 177.356 68.696 176.278 69.3213 175.575L75.2139 168.95L68.4375 166.864L68.2744 166.804C67.4786 166.467 67.051 165.577 67.3105 164.733C67.5704 163.89 68.4253 163.393 69.2725 163.562L69.4414 163.605L78.6348 166.438C78.6987 166.448 78.8015 166.461 78.9355 166.476C79.2084 166.504 79.6128 166.536 80.1104 166.537C81.1139 166.539 82.4552 166.419 83.8457 165.956C85.1159 165.533 86.9801 164.277 88.8018 162.622C90.6081 160.981 92.1135 159.186 92.7832 157.895Z" fill="#474747"/>
<path d="M145.661 52.6627L92.475 77.5913C92.475 77.5913 110.988 107.601 138.925 94.4984C155.496 86.7275 161.045 70.543 160.913 59.4947C160.845 52.6088 153.424 49.0106 145.659 52.6476L145.661 52.6627Z" fill="#276288"/>
<path d="M41.8981 114.436C41.8981 124.759 45.3594 133.954 51.352 141.502C61.7666 154.646 79.8358 162.803 100.497 163.291C101.138 163.307 101.793 163.322 102.449 163.322C103.105 163.322 103.76 163.322 104.401 163.291C125.077 162.803 143.131 154.661 153.546 141.517C159.523 133.969 163 124.789 163 114.451C163 98.2575 154.461 83.7716 141.073 74.1805C141.073 74.1805 141.042 67.6999 141.042 65.0467C141.042 40.6952 123.766 22.5498 102.434 22.5498C81.1166 22.5498 63.8403 40.6952 63.8403 65.0467C63.8403 67.6999 64.618 73.0216 64.9992 73.357C64.191 73.8602 63.8098 74.1652 63.8098 74.1652C50.4066 83.7564 41.8828 98.2422 41.8828 114.436H41.8981Z" fill="#4B9AE8"/>
<path d="M114.666 63.332C120.004 63.332 124.332 59.0044 124.332 53.666C124.332 48.3276 120.004 44 114.666 44C109.328 44 105 48.3276 105 53.666C105 59.0044 109.328 63.332 114.666 63.332Z" fill="white"/>
<path d="M114.516 59.5314C117.716 59.5314 120.311 56.9369 120.311 53.7364C120.311 50.5359 117.716 47.9414 114.516 47.9414C111.315 47.9414 108.721 50.5359 108.721 53.7364C108.721 56.9369 111.315 59.5314 114.516 59.5314Z" fill="black"/>
<path d="M137.085 68.0701C141.701 67.9285 148.661 63.0783 148.509 59.0357C148.358 54.9932 141.052 50.5791 136.45 50.7187C131.849 50.8583 128.206 53.6214 128.42 59.6408C128.634 65.6603 132.481 68.1947 137.083 68.055L137.085 68.0701Z" fill="#E8BE0F"/>
<path d="M116.542 75.5577L83.8825 93.9127C75.9137 98.3869 73.7289 107.799 79.582 112.503C88.7328 119.842 103.21 126.866 119.593 117.661C133.285 109.959 137.759 96.8764 138.79 85.5217C139.757 74.8676 127.488 69.3968 116.542 75.5398L116.542 75.5577Z" fill="#276288"/>
</svg>
