<svg width="200" height="200" viewBox="0 0 200 200" fill="none" xmlns="http://www.w3.org/2000/svg">
<mask id="path-1-outside-1_1347_5219" maskUnits="userSpaceOnUse" x="11.0002" y="32" width="177" height="136" fill="black">
<rect fill="white" x="11.0002" y="32" width="177" height="136"/>
<path d="M30.7405 38.002C31.1851 37.9931 31.6328 38.0273 32.0764 38.1064C33.7392 38.3573 35.2604 39.1741 36.3792 40.4268C36.9676 39.8998 37.6647 39.5083 38.4211 39.2852C38.8954 39.1453 39.3868 39.0714 39.8792 39.0664H39.8899C40.1853 39.0634 40.481 39.0857 40.7737 39.1328C41.751 39.2748 42.6687 39.6786 43.4221 40.3174C44.1747 40.9555 44.7305 41.7848 45.0364 42.7227C45.4978 42.5912 45.9738 42.5226 46.4514 42.5176H46.4612C46.7497 42.5145 47.0387 42.5351 47.3254 42.5781C48.4446 42.731 49.4819 43.244 50.2844 44.041C51.087 44.8381 51.6055 45.8701 51.7639 46.9893C52.0219 46.9839 52.2803 46.9995 52.5383 47.0312L52.5286 47.0225C53.029 47.0866 53.5137 47.2237 53.967 47.4268C54.7192 47.758 55.388 48.2679 55.9084 48.9219C56.721 49.9429 57.1074 51.2363 57.0002 52.5352L57.0061 52.5371L56.9944 52.6084C56.9941 52.6116 56.9947 52.6149 56.9944 52.6182C56.9939 52.6204 56.9929 52.6228 56.9924 52.625L56.4397 56.2334L56.9475 56.3125C59.4808 56.7622 61.8089 58.0061 63.5901 59.8691V59.875C64.7461 61.0693 65.6475 62.4806 66.2424 64.0254C66.2535 64.0542 66.2638 64.0834 66.2747 64.1123C66.8577 64.3262 67.4146 64.6227 67.9377 64.9932C68.5321 65.2255 69.1302 65.5072 69.7268 65.8418L69.7219 65.8369L78.4329 70.7158C78.5554 70.429 78.6702 70.1549 78.7737 69.8936C78.8629 69.9827 79.0229 70.1123 79.2375 70.2793C80.0822 67.5005 84.3554 64.4147 87.428 64.1006C87.6045 64.0823 87.7803 64.0695 87.9543 64.0615C92.0584 51.8872 102.612 43.7081 114.984 43.708C117.592 43.708 120.119 44.0738 122.523 44.7617C128.264 46.3097 132.474 49.7035 135.064 52.4238C135.187 52.5538 135.311 52.6839 135.433 52.8164C135.541 52.9347 135.646 53.0521 135.748 53.167C135.815 53.2418 135.881 53.317 135.947 53.3926C136.05 53.5117 136.15 53.6287 136.246 53.7432C136.321 53.8314 136.394 53.9205 136.468 54.0098C136.531 54.0871 136.594 54.1627 136.654 54.2373C141.034 59.6576 143.727 66.8333 143.838 74.96C143.841 75.1372 143.843 75.3136 143.844 75.4893C143.85 77.4944 143.581 79.469 143.198 81.2578C144.981 81.4468 146.851 81.9243 148.741 82.7236C148.763 82.7319 160.612 87.3224 163.198 89.2754C163.426 90.3405 162.992 91.5523 162.946 91.6777L174.965 98.3115C181.44 101.882 183.264 109.482 178.558 113.32C178.545 113.331 178.531 113.341 178.518 113.352C178.215 113.633 176.16 115.487 172.357 117.528C168.528 119.622 164.084 121.14 159.207 121.188C158.996 125.392 149.633 144.953 125.942 148.819V158.79C125.942 160.308 124.702 161.547 123.185 161.547H113.592C111.588 161.547 109.945 159.904 109.945 157.9C109.945 156.896 110.354 155.984 111.015 155.323C111.676 154.663 112.587 154.253 113.592 154.253L120.241 155.629V149.418C117.372 149.56 114.322 149.48 111.085 149.137C107.315 148.736 103.886 148.16 100.766 147.438V158.79C100.766 160.308 99.5267 161.547 98.009 161.547H88.4163C86.4126 161.547 84.769 159.904 84.7688 157.9C84.7688 156.896 85.1785 155.984 85.8391 155.323C86.4997 154.663 87.4117 154.253 88.4163 154.253L95.0657 155.629V145.849C73.7696 138.789 70.1158 123.672 69.4758 112.262C69.2755 108.683 69.8431 105.206 70.887 101.965C66.1644 99.6601 61.9965 96.0817 60.1399 92.2842C60.4841 92.2101 60.8286 92.1097 61.1741 91.9883C60.0073 90.1579 59.0553 88.2653 58.2932 86.3604C57.166 86.8655 55.9636 87.2021 54.7239 87.3486C54.2162 87.4005 53.7056 87.4353 53.1946 87.4551C52.6833 87.4749 52.171 87.4797 51.6604 87.4688L52.5559 81.6318C53.0746 81.6155 53.5884 81.5995 54.0852 81.5449C54.9638 81.4259 55.804 81.1278 56.5579 80.6738C56.0129 78.1483 55.7709 75.6892 55.7698 73.416C55.6976 72.3088 55.7571 71.3043 55.926 70.3984C56.0517 69.5248 56.3114 68.7275 56.6848 68.0166C56.9917 67.3483 57.3514 66.8742 57.7073 66.5195C58.3687 65.7382 59.1597 65.1278 60.0256 64.6797C59.9781 64.6127 59.9322 64.5446 59.8821 64.4795C59.7304 64.2822 59.5665 64.0938 59.3918 63.915C58.3763 62.8449 57.0221 62.1675 55.5588 61.9873L51.4973 88.5117C51.328 89.5653 50.8905 90.5593 50.219 91.3945C49.5475 92.2296 48.6744 92.8687 47.6809 93.2617C37.7223 97.2692 28.5878 95.8712 20.2834 89.0684C19.4536 88.3969 18.8088 87.5234 18.4211 86.5244C18.0335 85.5307 17.9083 84.4493 18.0667 83.3955L22.7747 52.6475C22.7379 52.5734 22.7021 52.499 22.6682 52.4238C22.1906 51.4268 22.001 50.3165 22.1184 49.2188C22.1255 49.1326 22.1342 49.046 22.1448 48.96C22.3632 47.5679 23.0675 46.29 24.1321 45.3564C24.0557 44.7725 24.0673 44.1777 24.1545 43.5938C24.4821 41.8194 25.4919 40.2413 26.9768 39.2148C28.0864 38.4451 29.3959 38.0286 30.7297 38.002H30.7405Z"/>
</mask>
<path d="M30.7405 38.002C31.1851 37.9931 31.6328 38.0273 32.0764 38.1064C33.7392 38.3573 35.2604 39.1741 36.3792 40.4268C36.9676 39.8998 37.6647 39.5083 38.4211 39.2852C38.8954 39.1453 39.3868 39.0714 39.8792 39.0664H39.8899C40.1853 39.0634 40.481 39.0857 40.7737 39.1328C41.751 39.2748 42.6687 39.6786 43.4221 40.3174C44.1747 40.9555 44.7305 41.7848 45.0364 42.7227C45.4978 42.5912 45.9738 42.5226 46.4514 42.5176H46.4612C46.7497 42.5145 47.0387 42.5351 47.3254 42.5781C48.4446 42.731 49.4819 43.244 50.2844 44.041C51.087 44.8381 51.6055 45.8701 51.7639 46.9893C52.0219 46.9839 52.2803 46.9995 52.5383 47.0312L52.5286 47.0225C53.029 47.0866 53.5137 47.2237 53.967 47.4268C54.7192 47.758 55.388 48.2679 55.9084 48.9219C56.721 49.9429 57.1074 51.2363 57.0002 52.5352L57.0061 52.5371L56.9944 52.6084C56.9941 52.6116 56.9947 52.6149 56.9944 52.6182C56.9939 52.6204 56.9929 52.6228 56.9924 52.625L56.4397 56.2334L56.9475 56.3125C59.4808 56.7622 61.8089 58.0061 63.5901 59.8691V59.875C64.7461 61.0693 65.6475 62.4806 66.2424 64.0254C66.2535 64.0542 66.2638 64.0834 66.2747 64.1123C66.8577 64.3262 67.4146 64.6227 67.9377 64.9932C68.5321 65.2255 69.1302 65.5072 69.7268 65.8418L69.7219 65.8369L78.4329 70.7158C78.5554 70.429 78.6702 70.1549 78.7737 69.8936C78.8629 69.9827 79.0229 70.1123 79.2375 70.2793C80.0822 67.5005 84.3554 64.4147 87.428 64.1006C87.6045 64.0823 87.7803 64.0695 87.9543 64.0615C92.0584 51.8872 102.612 43.7081 114.984 43.708C117.592 43.708 120.119 44.0738 122.523 44.7617C128.264 46.3097 132.474 49.7035 135.064 52.4238C135.187 52.5538 135.311 52.6839 135.433 52.8164C135.541 52.9347 135.646 53.0521 135.748 53.167C135.815 53.2418 135.881 53.317 135.947 53.3926C136.05 53.5117 136.15 53.6287 136.246 53.7432C136.321 53.8314 136.394 53.9205 136.468 54.0098C136.531 54.0871 136.594 54.1627 136.654 54.2373C141.034 59.6576 143.727 66.8333 143.838 74.96C143.841 75.1372 143.843 75.3136 143.844 75.4893C143.85 77.4944 143.581 79.469 143.198 81.2578C144.981 81.4468 146.851 81.9243 148.741 82.7236C148.763 82.7319 160.612 87.3224 163.198 89.2754C163.426 90.3405 162.992 91.5523 162.946 91.6777L174.965 98.3115C181.44 101.882 183.264 109.482 178.558 113.32C178.545 113.331 178.531 113.341 178.518 113.352C178.215 113.633 176.16 115.487 172.357 117.528C168.528 119.622 164.084 121.14 159.207 121.188C158.996 125.392 149.633 144.953 125.942 148.819V158.79C125.942 160.308 124.702 161.547 123.185 161.547H113.592C111.588 161.547 109.945 159.904 109.945 157.9C109.945 156.896 110.354 155.984 111.015 155.323C111.676 154.663 112.587 154.253 113.592 154.253L120.241 155.629V149.418C117.372 149.56 114.322 149.48 111.085 149.137C107.315 148.736 103.886 148.16 100.766 147.438V158.79C100.766 160.308 99.5267 161.547 98.009 161.547H88.4163C86.4126 161.547 84.769 159.904 84.7688 157.9C84.7688 156.896 85.1785 155.984 85.8391 155.323C86.4997 154.663 87.4117 154.253 88.4163 154.253L95.0657 155.629V145.849C73.7696 138.789 70.1158 123.672 69.4758 112.262C69.2755 108.683 69.8431 105.206 70.887 101.965C66.1644 99.6601 61.9965 96.0817 60.1399 92.2842C60.4841 92.2101 60.8286 92.1097 61.1741 91.9883C60.0073 90.1579 59.0553 88.2653 58.2932 86.3604C57.166 86.8655 55.9636 87.2021 54.7239 87.3486C54.2162 87.4005 53.7056 87.4353 53.1946 87.4551C52.6833 87.4749 52.171 87.4797 51.6604 87.4688L52.5559 81.6318C53.0746 81.6155 53.5884 81.5995 54.0852 81.5449C54.9638 81.4259 55.804 81.1278 56.5579 80.6738C56.0129 78.1483 55.7709 75.6892 55.7698 73.416C55.6976 72.3088 55.7571 71.3043 55.926 70.3984C56.0517 69.5248 56.3114 68.7275 56.6848 68.0166C56.9917 67.3483 57.3514 66.8742 57.7073 66.5195C58.3687 65.7382 59.1597 65.1278 60.0256 64.6797C59.9781 64.6127 59.9322 64.5446 59.8821 64.4795C59.7304 64.2822 59.5665 64.0938 59.3918 63.915C58.3763 62.8449 57.0221 62.1675 55.5588 61.9873L51.4973 88.5117C51.328 89.5653 50.8905 90.5593 50.219 91.3945C49.5475 92.2296 48.6744 92.8687 47.6809 93.2617C37.7223 97.2692 28.5878 95.8712 20.2834 89.0684C19.4536 88.3969 18.8088 87.5234 18.4211 86.5244C18.0335 85.5307 17.9083 84.4493 18.0667 83.3955L22.7747 52.6475C22.7379 52.5734 22.7021 52.499 22.6682 52.4238C22.1906 51.4268 22.001 50.3165 22.1184 49.2188C22.1255 49.1326 22.1342 49.046 22.1448 48.96C22.3632 47.5679 23.0675 46.29 24.1321 45.3564C24.0557 44.7725 24.0673 44.1777 24.1545 43.5938C24.4821 41.8194 25.4919 40.2413 26.9768 39.2148C28.0864 38.4451 29.3959 38.0286 30.7297 38.002H30.7405Z" fill="black"/>
<path d="M30.7405 38.002V44.002C30.7804 44.002 30.8203 44.0016 30.8603 44.0008L30.7405 38.002ZM32.0764 38.1064L31.0223 44.0131C31.0752 44.0226 31.1283 44.0313 31.1814 44.0393L32.0764 38.1064ZM36.3792 40.4268L31.9041 44.4235C32.965 45.6114 34.4547 46.3287 36.0449 46.4174C37.6352 46.5062 39.1954 45.959 40.3819 44.8965L36.3792 40.4268ZM38.4211 39.2852L36.7241 33.5302L36.7237 33.5303L38.4211 39.2852ZM39.8792 39.0664V33.0664C39.8588 33.0664 39.8385 33.0665 39.8182 33.0667L39.8792 39.0664ZM39.8899 39.0664V45.0664C39.9101 45.0664 39.9303 45.0663 39.9506 45.0661L39.8899 39.0664ZM40.7737 39.1328L39.8209 45.0567C39.851 45.0615 39.8811 45.0661 39.9112 45.0705L40.7737 39.1328ZM43.4221 40.3174L47.3024 35.741L47.3022 35.7408L43.4221 40.3174ZM45.0364 42.7227L39.3322 44.5833C40.3324 47.6497 43.578 49.3767 46.68 48.4931L45.0364 42.7227ZM46.4514 42.5176V36.5176C46.4303 36.5176 46.4092 36.5177 46.388 36.5179L46.4514 42.5176ZM46.4612 42.5176V48.5176C46.4826 48.5176 46.504 48.5175 46.5254 48.5172L46.4612 42.5176ZM47.3254 42.5781L46.4354 48.5117C46.4614 48.5156 46.4874 48.5194 46.5134 48.5229L47.3254 42.5781ZM50.2844 44.041L54.5126 39.7839L54.5124 39.7837L50.2844 44.041ZM51.7639 46.9893L45.8231 47.8299C46.2485 50.8364 48.853 53.0512 51.8889 52.988L51.7639 46.9893ZM52.5383 47.0312L51.8055 52.9863C54.4051 53.3062 56.9118 51.9029 57.998 49.5195C59.0843 47.1362 58.499 44.3236 56.5521 42.5715L52.5383 47.0312ZM52.5286 47.0225L53.2909 41.0711C50.6875 40.7376 48.1695 42.135 47.075 44.5206C45.9806 46.9063 46.5638 49.7264 48.5148 51.4822L52.5286 47.0225ZM53.967 47.4268L51.5141 52.9025C51.5257 52.9076 51.5373 52.9128 51.5489 52.9179L53.967 47.4268ZM55.9084 48.9219L60.6032 45.1857L60.6031 45.1856L55.9084 48.9219ZM57.0002 52.5352L51.0205 52.042C50.7933 54.7982 52.4793 57.3527 55.1029 58.2273L57.0002 52.5352ZM57.0061 52.5371L62.9266 53.5103C63.4047 50.602 61.6996 47.7771 58.9035 46.845L57.0061 52.5371ZM56.9944 52.6084L51.0738 51.6352C51.0523 51.7662 51.0351 51.898 51.0223 52.0302L56.9944 52.6084ZM56.9944 52.6182L62.8568 53.8959C62.9063 53.6687 62.9425 53.4389 62.9654 53.2076L56.9944 52.6182ZM56.9924 52.625L51.1339 51.3297C51.1056 51.4578 51.0815 51.5868 51.0616 51.7165L56.9924 52.625ZM56.4397 56.2334L50.5089 55.3249C50.008 58.5946 52.2478 61.6528 55.5162 62.1619L56.4397 56.2334ZM56.9475 56.3125L57.9961 50.4048C57.9545 50.3975 57.9128 50.3905 57.871 50.384L56.9475 56.3125ZM63.5901 59.8691H69.5901C69.5901 58.3245 68.9944 56.8393 67.9269 55.7228L63.5901 59.8691ZM63.5901 59.875H57.5901C57.5901 61.4325 58.1957 62.929 59.279 64.0481L63.5901 59.875ZM66.2424 64.0254L71.8416 61.8691L66.2424 64.0254ZM66.2747 64.1123L60.6594 66.2264C61.2744 67.8597 62.5699 69.1443 64.2084 69.7453L66.2747 64.1123ZM67.9377 64.9932L64.4707 69.89C64.8685 70.1717 65.2992 70.4038 65.7531 70.5813L67.9377 64.9932ZM69.7268 65.8418L66.7921 71.0751C69.4059 72.5408 72.7004 71.8533 74.5097 69.4645C76.3191 67.0757 76.0884 63.7181 73.9694 61.5992L69.7268 65.8418ZM69.7219 65.8369L72.6539 60.6021C70.0399 59.138 66.7465 59.8267 64.9381 62.2155C63.1297 64.6043 63.3607 67.961 65.4793 70.0796L69.7219 65.8369ZM78.4329 70.7158L75.5009 75.9507C76.9864 76.7827 78.7556 76.9444 80.3673 76.3954C81.9791 75.8464 83.2817 74.6385 83.9506 73.0727L78.4329 70.7158ZM78.7737 69.8936L83.0163 65.6509C81.5875 64.2221 79.5355 63.6085 77.5569 64.0182C75.5783 64.428 73.9388 65.8062 73.195 67.6849L78.7737 69.8936ZM79.2375 70.2793L75.5531 75.0148C77.1124 76.228 79.169 76.5958 81.0522 75.9983C82.9353 75.4008 84.4036 73.9145 84.9782 72.0243L79.2375 70.2793ZM87.428 64.1006L88.0382 70.0695L88.047 70.0686L87.428 64.1006ZM87.9543 64.0615L88.2302 70.0552C90.7015 69.9414 92.8497 68.3225 93.64 65.9782L87.9543 64.0615ZM114.984 43.708V37.708H114.984L114.984 43.708ZM122.523 44.7617L120.872 50.5301C120.901 50.5386 120.931 50.5468 120.961 50.5549L122.523 44.7617ZM135.064 52.4238L139.41 48.2877L139.409 48.2868L135.064 52.4238ZM135.433 52.8164L131.012 56.8727L131.013 56.8738L135.433 52.8164ZM135.748 53.167L131.263 57.1525L131.263 57.1526L135.748 53.167ZM135.947 53.3926L140.473 49.4542L140.471 49.4523L135.947 53.3926ZM136.246 53.7432L131.656 57.6067L131.661 57.6132L136.246 53.7432ZM136.468 54.0098L141.107 50.205C141.104 50.201 141.101 50.197 141.098 50.193L136.468 54.0098ZM136.654 54.2373L131.972 57.9903C131.977 57.9964 131.982 58.0026 131.987 58.0088L136.654 54.2373ZM143.838 74.96L137.839 75.042C137.839 75.0482 137.839 75.0543 137.839 75.0604L143.838 74.96ZM143.844 75.4893L149.844 75.4701V75.4688L143.844 75.4893ZM143.198 81.2578L137.331 80.0041C136.976 81.6672 137.343 83.4029 138.341 84.7797C139.339 86.1566 140.875 87.0451 142.566 87.2244L143.198 81.2578ZM148.741 82.7236L146.404 88.2498C146.461 88.2736 146.517 88.2965 146.574 88.3186L148.741 82.7236ZM163.198 89.2754L169.066 88.0221C168.765 86.6114 167.965 85.3564 166.814 84.4871L163.198 89.2754ZM162.946 91.6777L157.321 89.5892C156.287 92.3737 157.446 95.4955 160.046 96.9308L162.946 91.6777ZM174.965 98.3115L172.066 103.565L172.068 103.566L174.965 98.3115ZM178.558 113.32L174.766 108.671L174.765 108.671L178.558 113.32ZM178.518 113.352L174.73 108.698C174.627 108.782 174.527 108.87 174.429 108.96L178.518 113.352ZM172.357 117.528L169.519 112.242C169.505 112.249 169.492 112.256 169.478 112.264L172.357 117.528ZM159.207 121.188L159.148 115.189C155.974 115.22 153.374 117.717 153.215 120.887L159.207 121.188ZM125.942 148.819L124.975 142.898C122.073 143.371 119.942 145.879 119.942 148.819H125.942ZM125.942 158.79L131.942 158.79V158.79H125.942ZM123.185 161.547V167.547H123.186L123.185 161.547ZM109.945 157.9H103.945V157.901L109.945 157.9ZM111.015 155.323L106.772 151.081L106.772 151.081L111.015 155.323ZM113.592 154.253L114.808 148.377C114.408 148.295 114 148.253 113.592 148.253V154.253ZM120.241 155.629L119.026 161.504C120.793 161.87 122.631 161.421 124.03 160.282C125.429 159.142 126.241 157.433 126.241 155.629H120.241ZM120.241 149.418H126.241C126.241 147.775 125.568 146.205 124.378 145.072C123.188 143.94 121.586 143.344 119.946 143.425L120.241 149.418ZM111.085 149.137L110.452 155.103L110.452 155.103L111.085 149.137ZM100.766 147.438L102.119 141.592C100.337 141.18 98.4641 141.602 97.0322 142.741C95.6003 143.879 94.7659 145.608 94.7659 147.438H100.766ZM100.766 158.79L106.766 158.79V158.79H100.766ZM98.009 161.547V167.547H98.0096L98.009 161.547ZM84.7688 157.9H78.7688V157.901L84.7688 157.9ZM85.8391 155.323L81.5965 151.081L81.5965 151.081L85.8391 155.323ZM88.4163 154.253L89.6321 148.377C89.2321 148.295 88.8247 148.253 88.4163 148.253V154.253ZM95.0657 155.629L93.8498 161.504C95.617 161.87 97.4548 161.421 98.8541 160.282C100.253 159.142 101.066 157.433 101.066 155.629H95.0657ZM95.0657 145.849H101.066C101.066 143.262 99.4084 140.967 96.9535 140.153L95.0657 145.849ZM69.4758 112.262L63.4852 112.597L63.4852 112.598L69.4758 112.262ZM70.887 101.965L76.5981 103.804C77.513 100.963 76.2007 97.8817 73.5185 96.5727L70.887 101.965ZM60.1399 92.2842L58.8774 86.4185C57.0734 86.8068 55.5485 88.0035 54.7425 89.6634C53.9365 91.3233 53.9392 93.2618 54.7496 94.9195L60.1399 92.2842ZM61.1741 91.9883L63.1635 97.6489C64.8912 97.0417 66.2471 95.6786 66.8451 93.9477C67.4432 92.2167 67.2179 90.3074 66.2335 88.7631L61.1741 91.9883ZM58.2932 86.3604L63.864 84.1318C63.2572 82.6149 62.0581 81.4111 60.5436 80.7984C59.0292 80.1856 57.3304 80.2169 55.8395 80.885L58.2932 86.3604ZM54.7239 87.3486L55.3336 93.3176C55.3652 93.3144 55.3967 93.3109 55.4282 93.3072L54.7239 87.3486ZM53.1946 87.4551L53.4268 93.4506L53.1946 87.4551ZM51.6604 87.4688L45.7298 86.5589C45.4678 88.2667 45.9547 90.0045 47.0659 91.3276C48.1771 92.6506 49.8047 93.4304 51.5321 93.4674L51.6604 87.4688ZM52.5559 81.6318L52.3665 75.6348C49.4772 75.7261 47.0637 77.8646 46.6253 80.722L52.5559 81.6318ZM54.0852 81.5449L54.7406 87.509C54.7906 87.5035 54.8405 87.4974 54.8904 87.4907L54.0852 81.5449ZM56.5579 80.6738L59.6534 85.8136C61.851 84.4901 62.964 81.9159 62.4229 79.4082L56.5579 80.6738ZM55.7698 73.416L61.7698 73.4131C61.7697 73.2839 61.7655 73.1547 61.7571 73.0257L55.7698 73.416ZM55.926 70.3984L61.8244 71.4982C61.8396 71.4166 61.8531 71.3346 61.8649 71.2524L55.926 70.3984ZM56.6848 68.0166L61.9967 70.8065C62.0461 70.7125 62.093 70.6172 62.1373 70.5207L56.6848 68.0166ZM57.7073 66.5195L61.9429 70.7692C62.0627 70.6498 62.1773 70.5255 62.2865 70.3964L57.7073 66.5195ZM60.0256 64.6797L62.7833 70.0084C64.3256 69.2103 65.4464 67.7831 65.8562 66.0956C66.266 64.4081 65.9245 62.6258 64.9201 61.2092L60.0256 64.6797ZM59.8821 64.4795L55.1251 68.1361L59.8821 64.4795ZM59.3918 63.915L55.0396 68.0452C55.0597 68.0663 55.0799 68.0873 55.1003 68.1082L59.3918 63.915ZM55.5588 61.9873L56.2921 56.0323C53.0715 55.6357 50.1191 57.8716 49.628 61.0791L55.5588 61.9873ZM51.4973 88.5117L57.4213 89.4636C57.4237 89.449 57.426 89.4344 57.4282 89.4199L51.4973 88.5117ZM50.219 91.3945L54.8949 95.1543L54.8952 95.1539L50.219 91.3945ZM47.6809 93.2617L45.4736 87.6825C45.4627 87.6868 45.4518 87.6911 45.441 87.6955L47.6809 93.2617ZM20.2834 89.0684L24.0857 84.4269C24.0764 84.4193 24.0671 84.4117 24.0578 84.4042L20.2834 89.0684ZM18.4211 86.5244L24.0148 84.3539L24.0109 84.3438L18.4211 86.5244ZM18.0667 83.3955L12.1358 82.4874C12.1349 82.4929 12.1341 82.4984 12.1333 82.504L18.0667 83.3955ZM22.7747 52.6475L28.7055 53.5556C28.8926 52.334 28.6979 51.0844 28.148 49.9777L22.7747 52.6475ZM22.6682 52.4238L28.1396 49.9614C28.1201 49.918 28.1 49.8747 28.0794 49.8318L22.6682 52.4238ZM22.1184 49.2188L28.0844 49.857C28.0895 49.8094 28.094 49.7618 28.0979 49.714L22.1184 49.2188ZM22.1448 48.96L16.2173 48.0298C16.207 48.0955 16.1978 48.1614 16.1897 48.2274L22.1448 48.96ZM24.1321 45.3564L28.088 49.8676C29.5933 48.5476 30.341 46.5637 30.0814 44.5786L24.1321 45.3564ZM24.1545 43.5938L18.2542 42.5045C18.2418 42.5717 18.2306 42.6391 18.2205 42.7067L24.1545 43.5938ZM26.9768 39.2148L30.3886 44.1504L30.3968 44.1447L26.9768 39.2148ZM30.7297 38.002V32.002C30.6897 32.002 30.6498 32.0024 30.6098 32.0032L30.7297 38.002ZM30.7405 38.002L30.8603 44.0008C30.9173 43.9996 30.9716 44.0041 31.0223 44.0131L32.0764 38.1064L33.1305 32.1998C32.2939 32.0505 31.453 31.9865 30.6207 32.0031L30.7405 38.002ZM32.0764 38.1064L31.1814 44.0393C31.4757 44.0837 31.7261 44.2242 31.9041 44.4235L36.3792 40.4268L40.8542 36.43C38.7947 34.1241 36.0026 32.6308 32.9714 32.1736L32.0764 38.1064ZM36.3792 40.4268L40.3819 44.8965C40.3171 44.9544 40.2297 45.0073 40.1186 45.04L38.4211 39.2852L36.7237 33.5303C35.0998 34.0093 33.618 34.8452 32.3764 35.9571L36.3792 40.4268ZM38.4211 39.2852L40.1182 45.0402C40.0653 45.0558 40.0063 45.0654 39.9401 45.0661L39.8792 39.0664L39.8182 33.0667C38.7673 33.0774 37.7255 33.2349 36.7241 33.5302L38.4211 39.2852ZM39.8792 39.0664V45.0664H39.8899V39.0664V33.0664H39.8792V39.0664ZM39.8899 39.0664L39.9506 45.0661C39.9034 45.0666 39.8601 45.063 39.8209 45.0567L40.7737 39.1328L41.7265 33.2089C41.1019 33.1085 40.4671 33.0603 39.8292 33.0667L39.8899 39.0664ZM40.7737 39.1328L39.9112 45.0705C39.814 45.0564 39.6765 45.008 39.542 44.8939L43.4221 40.3174L47.3022 35.7408C45.6608 34.3492 43.688 33.4932 41.6362 33.1951L40.7737 39.1328ZM43.4221 40.3174L39.5418 44.8937C39.4435 44.8104 39.3696 44.6982 39.3322 44.5833L45.0364 42.7227L50.7406 40.862C50.0913 38.8714 48.906 37.1007 47.3024 35.741L43.4221 40.3174ZM45.0364 42.7227L46.68 48.4931C46.6249 48.5088 46.5694 48.5167 46.5148 48.5172L46.4514 42.5176L46.388 36.5179C45.3782 36.5286 44.3706 36.6736 43.3927 36.9522L45.0364 42.7227ZM46.4514 42.5176V48.5176H46.4612V42.5176V36.5176H46.4514V42.5176ZM46.4612 42.5176L46.5254 48.5172C46.4852 48.5177 46.4551 48.5147 46.4354 48.5117L47.3254 42.5781L48.2155 36.6445C47.6223 36.5555 47.0141 36.5113 46.3969 36.5179L46.4612 42.5176ZM47.3254 42.5781L46.5134 48.5229C46.338 48.499 46.1769 48.4179 46.0565 48.2983L50.2844 44.041L54.5124 39.7837C52.7868 38.07 50.5512 36.963 48.1374 36.6333L47.3254 42.5781ZM50.2844 44.041L46.0563 48.2981C45.9342 48.1768 45.8486 48.0104 45.8231 47.8299L51.7639 46.9893L57.7047 46.1486C57.3625 43.7297 56.2398 41.4994 54.5126 39.7839L50.2844 44.041ZM51.7639 46.9893L51.8889 52.988C51.8222 52.9893 51.7915 52.9846 51.8055 52.9863L52.5383 47.0312L53.2711 41.0762C52.7691 41.0144 52.2216 40.9784 51.6389 40.9906L51.7639 46.9893ZM52.5383 47.0312L56.5521 42.5715L56.5424 42.5627L52.5286 47.0225L48.5148 51.4822L48.5245 51.491L52.5383 47.0312ZM52.5286 47.0225L51.7662 52.9738C51.6818 52.963 51.5969 52.9395 51.5141 52.9025L53.967 47.4268L56.4199 41.9511C55.4305 41.5078 54.3763 41.2101 53.2909 41.0711L52.5286 47.0225ZM53.967 47.4268L51.5489 52.9179C51.424 52.8629 51.3074 52.7758 51.2137 52.6582L55.9084 48.9219L60.6031 45.1856C59.4686 43.76 58.0144 42.6531 56.3852 41.9356L53.967 47.4268ZM55.9084 48.9219L51.2137 52.658C51.0628 52.4685 51.0038 52.2449 51.0205 52.042L57.0002 52.5352L62.9799 53.0283C63.2109 50.2276 62.3792 47.4174 60.6032 45.1857L55.9084 48.9219ZM57.0002 52.5352L55.1029 58.2273L55.1087 58.2292L57.0061 52.5371L58.9035 46.845L58.8976 46.8431L57.0002 52.5352ZM57.0061 52.5371L51.0856 51.5639L51.0738 51.6352L56.9944 52.6084L62.9149 53.5816L62.9266 53.5103L57.0061 52.5371ZM56.9944 52.6084L51.0223 52.0302C51.0082 52.1755 51.0011 52.3048 50.9975 52.4136C50.9957 52.4682 50.9948 52.5185 50.9945 52.5638C50.9941 52.6091 50.9943 52.6501 50.9948 52.6862C50.9952 52.7222 50.9959 52.7542 50.9967 52.781C50.9975 52.8078 50.9983 52.8308 50.999 52.8485C50.9997 52.866 51.0003 52.8802 51.0007 52.8888C51.0009 52.8932 51.0011 52.8967 51.0012 52.8988C51.0013 52.9008 51.0014 52.9025 51.0013 52.9022C51.0013 52.9022 51.0013 52.9022 51.0013 52.9022C51.0013 52.9021 51.0013 52.9021 51.0013 52.9021C51.0013 52.9021 51.0013 52.902 51.0013 52.9019C51.0013 52.9018 51.0013 52.9016 51.0013 52.9013C51.0013 52.9008 51.0012 52.8999 51.0012 52.8988C51.0011 52.8966 51.0009 52.893 51.0007 52.8886C51.0003 52.88 50.9997 52.8658 50.999 52.8481C50.9983 52.8303 50.9975 52.8073 50.9967 52.7805C50.996 52.7536 50.9953 52.7216 50.9949 52.6855C50.9945 52.6493 50.9943 52.6082 50.9947 52.5628C50.9951 52.5174 50.9961 52.4671 50.998 52.4124C51.0017 52.3035 51.0091 52.1741 51.0234 52.0287L56.9944 52.6182L62.9654 53.2076C62.9798 53.0614 62.9872 52.9312 62.991 52.8215C62.9929 52.7664 62.9938 52.7157 62.9942 52.6699C62.9946 52.6241 62.9945 52.5825 62.9941 52.546C62.9936 52.5095 62.9929 52.4771 62.9922 52.4498C62.9914 52.4225 62.9906 52.3991 62.9899 52.3809C62.9892 52.3628 62.9885 52.3482 62.9881 52.3392C62.9879 52.3345 62.9877 52.3308 62.9876 52.3284C62.9876 52.3272 62.9875 52.3262 62.9875 52.3256C62.9875 52.325 62.9874 52.3244 62.9874 52.3244C62.9874 52.3239 62.9875 52.3254 62.9876 52.3271C62.9877 52.329 62.9878 52.3324 62.988 52.3365C62.9884 52.3447 62.989 52.3585 62.9897 52.3756C62.9904 52.3929 62.9912 52.4155 62.9919 52.4419C62.9927 52.4683 62.9934 52.4998 62.9938 52.5355C62.9943 52.5711 62.9945 52.6118 62.9941 52.6567C62.9938 52.7016 62.9929 52.7515 62.9911 52.8057C62.9876 52.9136 62.9804 53.0421 62.9665 53.1866L56.9944 52.6084ZM56.9944 52.6182L51.132 51.3405C51.1525 51.2466 51.1726 51.1649 51.1901 51.0982C51.1989 51.0645 51.2073 51.0338 51.215 51.0063C51.2226 50.9789 51.2298 50.9541 51.2361 50.9325C51.2424 50.911 51.2481 50.8919 51.253 50.8759C51.2578 50.86 51.262 50.8464 51.2653 50.8358C51.2686 50.8254 51.2712 50.8169 51.2729 50.8117C51.2737 50.8091 51.2744 50.8069 51.2748 50.8056C51.2751 50.8049 51.2752 50.8043 51.2753 50.804C51.2755 50.8036 51.2755 50.8033 51.2756 50.8033C51.2759 50.8024 51.2746 50.8063 51.2733 50.8105C51.2718 50.8153 51.2692 50.8234 51.2661 50.8334C51.2629 50.8436 51.2588 50.8568 51.2541 50.8723C51.2493 50.8879 51.2437 50.9065 51.2375 50.9276C51.2312 50.9488 51.2242 50.9731 51.2166 51.0001C51.209 51.0271 51.2007 51.0574 51.192 51.0905C51.1832 51.1237 51.1738 51.1603 51.1641 51.2C51.1544 51.2397 51.1442 51.283 51.1339 51.3297L56.9924 52.625L62.8509 53.9203C62.8306 54.0125 62.8106 54.0926 62.7933 54.1578C62.7761 54.2229 62.7604 54.2778 62.7483 54.319C62.7421 54.3398 62.7366 54.3582 62.732 54.3734C62.7273 54.3887 62.7233 54.4016 62.7202 54.4115C62.7172 54.4212 62.7147 54.429 62.7133 54.4335C62.712 54.4375 62.7109 54.4411 62.7113 54.4398C62.7113 54.4397 62.7117 54.4386 62.7121 54.4372C62.7126 54.4357 62.7133 54.4334 62.7142 54.4306C62.7159 54.4251 62.7187 54.4164 62.722 54.4056C62.7254 54.3948 62.7297 54.3809 62.7346 54.3647C62.7396 54.3484 62.7454 54.3291 62.7518 54.3072C62.7645 54.264 62.7806 54.2071 62.7982 54.1398C62.8159 54.0725 62.8362 53.9903 62.8568 53.8959L56.9944 52.6182ZM56.9924 52.625L51.0616 51.7165L50.5089 55.3249L56.4397 56.2334L62.3705 57.1419L62.9233 53.5335L56.9924 52.625ZM56.4397 56.2334L55.5162 62.1619L56.024 62.241L56.9475 56.3125L57.871 50.384L57.3632 50.3049L56.4397 56.2334ZM56.9475 56.3125L55.8989 62.2202C57.1801 62.4476 58.3555 63.0764 59.2533 64.0155L63.5901 59.8691L67.9269 55.7228C65.2623 52.9358 61.7815 51.0768 57.9961 50.4048L56.9475 56.3125ZM63.5901 59.8691H57.5901V59.875H63.5901H69.5901V59.8691H63.5901ZM63.5901 59.875L59.279 64.0481C59.8758 64.6646 60.3386 65.3904 60.6433 66.1816L66.2424 64.0254L71.8416 61.8691C70.9565 59.5707 69.6164 57.4739 67.9012 55.7019L63.5901 59.875ZM66.2424 64.0254L60.6433 66.1816C60.6354 66.1612 60.6296 66.1456 60.6265 66.1374C60.6237 66.1298 60.6221 66.1254 60.6238 66.1301C60.6242 66.1311 60.6246 66.1323 60.6253 66.134C60.6258 66.1356 60.6267 66.138 60.6275 66.1403C60.6293 66.145 60.6318 66.152 60.6347 66.1598C60.6403 66.1752 60.649 66.1987 60.6594 66.2264L66.2747 64.1123L71.8899 61.9982C71.8949 62.0115 71.8982 62.0205 71.8985 62.0214C71.8987 62.022 71.8986 62.0216 71.8977 62.0191C71.8972 62.0178 71.8967 62.0165 71.896 62.0145C71.8953 62.0126 71.8944 62.0102 71.8934 62.0075C71.8873 61.9908 71.8669 61.9349 71.8416 61.8691L66.2424 64.0254ZM66.2747 64.1123L64.2084 69.7453C64.2655 69.7662 64.3543 69.8076 64.4707 69.89L67.9377 64.9932L71.4048 60.0963C70.4749 59.4379 69.45 58.8861 68.3409 58.4793L66.2747 64.1123ZM67.9377 64.9932L65.7531 70.5813C66.0868 70.7118 66.4345 70.8746 66.7921 71.0751L69.7268 65.8418L72.6615 60.6085C71.8259 60.1399 70.9773 59.7392 70.1224 59.405L67.9377 64.9932ZM69.7268 65.8418L73.9694 61.5992L73.9646 61.5943L69.7219 65.8369L65.4793 70.0796L65.4842 70.0844L69.7268 65.8418ZM69.7219 65.8369L66.7899 71.0718L75.5009 75.9507L78.4329 70.7158L81.3648 65.481L72.6539 60.6021L69.7219 65.8369ZM78.4329 70.7158L83.9506 73.0727C84.0814 72.7665 84.2201 72.4362 84.3524 72.1022L78.7737 69.8936L73.195 67.6849C73.1203 67.8737 73.0293 68.0916 72.9151 68.359L78.4329 70.7158ZM78.7737 69.8936L74.531 74.1362C74.9331 74.5383 75.406 74.9003 75.5531 75.0148L79.2375 70.2793L82.922 65.5438C82.8791 65.5104 82.846 65.4844 82.8204 65.4641C82.7943 65.4433 82.7819 65.4331 82.7794 65.4311C82.7758 65.4281 82.7938 65.4428 82.826 65.4713C82.8429 65.4863 82.8674 65.5082 82.8976 65.5363C82.9275 65.5641 82.9681 65.6027 83.0163 65.6509L78.7737 69.8936ZM79.2375 70.2793L84.9782 72.0243C84.8871 72.324 84.8201 72.3055 85.0622 72.0133C85.2784 71.7523 85.6222 71.419 86.0767 71.0811C86.5273 70.7462 86.9969 70.4736 87.4127 70.2884C87.8539 70.0918 88.0695 70.0663 88.0382 70.0695L87.428 64.1006L86.8177 58.1317C83.8403 58.4361 80.9915 59.909 78.9179 61.4503C76.9226 62.9335 74.4617 65.3602 73.4969 68.5343L79.2375 70.2793ZM87.428 64.1006L88.047 70.0686C88.1014 70.0629 88.1625 70.0583 88.2302 70.0552L87.9543 64.0615L87.6785 58.0679C87.3982 58.0808 87.1077 58.1016 86.809 58.1326L87.428 64.1006ZM87.9543 64.0615L93.64 65.9782C97.0064 55.992 105.444 49.7081 114.984 49.708L114.984 43.708L114.984 37.708C99.7809 37.7081 87.1104 47.7825 82.2687 62.1449L87.9543 64.0615ZM114.984 43.708V49.708C117.028 49.708 119 49.9943 120.872 50.5301L122.523 44.7617L124.174 38.9934C121.239 38.1533 118.156 37.708 114.984 37.708V43.708ZM122.523 44.7617L120.961 50.5549C125.297 51.7238 128.597 54.3328 130.718 56.5609L135.064 52.4238L139.409 48.2868C136.351 45.0742 131.232 40.8955 124.085 38.9686L122.523 44.7617ZM135.064 52.4238L130.717 56.56C130.849 56.698 130.934 56.7877 131.012 56.8727L135.433 52.8164L139.854 48.7601C139.689 48.5802 139.526 48.4096 139.41 48.2877L135.064 52.4238ZM135.433 52.8164L131.013 56.8738C131.087 56.9542 131.164 57.0409 131.263 57.1525L135.748 53.167L140.233 49.1815C140.128 49.0632 139.996 48.9153 139.853 48.759L135.433 52.8164ZM135.748 53.167L131.263 57.1526C131.313 57.2081 131.365 57.2675 131.422 57.3328L135.947 53.3926L140.471 49.4523C140.397 49.3665 140.317 49.2754 140.233 49.1814L135.748 53.167ZM135.947 53.3926L131.42 57.331C131.499 57.4217 131.577 57.5134 131.656 57.6067L136.246 53.7432L140.837 49.8796C140.723 49.744 140.601 49.6017 140.473 49.4542L135.947 53.3926ZM136.246 53.7432L131.661 57.6132C131.711 57.6722 131.765 57.7374 131.839 57.8265L136.468 54.0098L141.098 50.193C141.024 50.1037 140.931 49.9907 140.831 49.8732L136.246 53.7432ZM136.468 54.0098L131.829 57.8146C131.906 57.9093 131.939 57.9491 131.972 57.9903L136.654 54.2373L141.335 50.4843C141.248 50.3762 141.157 50.265 141.107 50.205L136.468 54.0098ZM136.654 54.2373L131.987 58.0088C135.489 62.3414 137.745 68.2049 137.839 75.042L143.838 74.96L149.838 74.8779C149.709 65.4618 146.58 56.9738 141.32 50.4659L136.654 54.2373ZM143.838 74.96L137.839 75.0604C137.842 75.2241 137.844 75.3713 137.844 75.5097L143.844 75.4893L149.844 75.4688C149.843 75.256 149.84 75.0503 149.837 74.8595L143.838 74.96ZM143.844 75.4893L137.844 75.5085C137.849 76.9805 137.649 78.5163 137.331 80.0041L143.198 81.2578L149.066 82.5116C149.513 80.4217 149.852 78.0083 149.844 75.4701L143.844 75.4893ZM143.198 81.2578L142.566 87.2244C143.734 87.3482 145.031 87.6691 146.404 88.2498L148.741 82.7236L151.078 77.1975C148.672 76.1796 146.228 75.5454 143.831 75.2912L143.198 81.2578ZM148.741 82.7236L146.574 88.3186C146.564 88.3146 149.465 89.4382 152.668 90.7951C154.274 91.4753 155.905 92.1927 157.263 92.8421C157.943 93.1671 158.514 93.4556 158.958 93.6982C159.447 93.9657 159.612 94.0854 159.583 94.0636L163.198 89.2754L166.814 84.4871C165.619 83.5845 163.866 82.6978 162.439 82.0157C160.848 81.2549 159.031 80.458 157.348 79.7454C153.975 78.3167 150.94 77.141 150.909 77.1287L148.741 82.7236ZM163.198 89.2754L157.331 90.5287C157.261 90.202 157.262 89.9679 157.265 89.8699C157.269 89.7652 157.28 89.7104 157.28 89.7088C157.281 89.7028 157.281 89.7032 157.282 89.7C157.284 89.6945 157.294 89.6624 157.321 89.5892L162.946 91.6777L168.57 93.7663C168.663 93.516 168.9 92.8414 169.069 91.9491C169.225 91.1305 169.417 89.666 169.066 88.0221L163.198 89.2754ZM162.946 91.6777L160.046 96.9308L172.066 103.565L174.965 98.3115L177.864 93.0585L165.845 86.4247L162.946 91.6777ZM174.965 98.3115L172.068 103.566C173.969 104.614 174.872 106.08 175.119 107.113C175.342 108.041 175.075 108.418 174.766 108.671L178.558 113.32L182.35 117.97C186.746 114.384 187.921 109.042 186.789 104.318C185.683 99.6991 182.436 95.5796 177.862 93.0574L174.965 98.3115ZM178.558 113.32L174.765 108.671C174.81 108.634 174.847 108.606 174.867 108.59C174.878 108.581 174.886 108.575 174.891 108.572C174.895 108.569 174.898 108.566 174.895 108.568C174.895 108.569 174.889 108.573 174.882 108.579C174.874 108.584 174.863 108.593 174.85 108.603C174.823 108.624 174.781 108.657 174.73 108.698L178.518 113.352L182.305 118.005C182.261 118.041 182.225 118.069 182.206 118.084C182.196 118.092 182.188 118.098 182.184 118.101C182.18 118.104 182.178 118.106 182.18 118.104C182.181 118.103 182.188 118.098 182.195 118.092C182.203 118.086 182.215 118.077 182.229 118.067C182.256 118.046 182.299 118.012 182.351 117.97L178.558 113.32ZM178.518 113.352L174.429 108.96C174.43 108.96 172.787 110.488 169.519 112.242L172.357 117.528L175.194 122.815C179.532 120.487 182.001 118.307 182.607 117.743L178.518 113.352ZM172.357 117.528L169.478 112.264C166.276 114.015 162.798 115.152 159.148 115.189L159.207 121.188L159.267 127.188C165.37 127.127 170.781 125.228 175.235 122.793L172.357 117.528ZM159.207 121.188L153.215 120.887C153.228 120.627 153.09 121.707 151.916 123.992C150.866 126.034 149.228 128.561 146.927 131.108C142.354 136.171 135.263 141.219 124.975 142.898L125.942 148.819L126.908 154.741C140.312 152.554 149.747 145.888 155.832 139.152C158.859 135.801 161.082 132.407 162.588 129.479C163.969 126.793 165.081 123.851 165.2 121.49L159.207 121.188ZM125.942 148.819H119.942V158.79H125.942H131.942V148.819H125.942ZM125.942 158.79L119.942 158.79C119.942 156.993 121.389 155.547 123.184 155.547L123.185 161.547L123.186 167.547C128.016 167.546 131.942 163.622 131.942 158.79L125.942 158.79ZM123.185 161.547V155.547H113.592V161.547V167.547H123.185V161.547ZM113.592 161.547V155.547C114.901 155.547 115.944 156.589 115.945 157.9L109.945 157.9L103.945 157.901C103.945 163.219 108.276 167.547 113.592 167.547V161.547ZM109.945 157.9H115.945C115.945 158.56 115.67 159.154 115.258 159.566L111.015 155.323L106.772 151.081C105.039 152.814 103.945 155.232 103.945 157.9H109.945ZM111.015 155.323L115.257 159.566C114.845 159.978 114.251 160.253 113.592 160.253V154.253V148.253C110.923 148.253 108.506 149.347 106.772 151.081L111.015 155.323ZM113.592 154.253L112.376 160.128L119.026 161.504L120.241 155.629L121.457 149.753L114.808 148.377L113.592 154.253ZM120.241 155.629H126.241V149.418H120.241H114.241V155.629H120.241ZM120.241 149.418L119.946 143.425C117.397 143.551 114.658 143.482 111.719 143.17L111.085 149.137L110.452 155.103C113.987 155.479 117.348 155.568 120.537 155.411L120.241 149.418ZM111.085 149.137L111.719 143.17C108.169 142.793 104.982 142.255 102.119 141.592L100.766 147.438L99.4127 153.283C102.789 154.065 106.46 154.679 110.452 155.103L111.085 149.137ZM100.766 147.438H94.7659V158.79H100.766H106.766V147.438H100.766ZM100.766 158.79L94.7659 158.79C94.7659 156.994 96.2134 155.547 98.0085 155.547L98.009 161.547L98.0096 167.547C102.84 167.546 106.766 163.622 106.766 158.79L100.766 158.79ZM98.009 161.547V155.547H88.4163V161.547V167.547H98.009V161.547ZM88.4163 161.547V155.547C89.7248 155.547 90.7687 156.589 90.7688 157.9L84.7688 157.9L78.7688 157.901C78.7693 163.219 83.1005 167.547 88.4163 167.547V161.547ZM84.7688 157.9H90.7688C90.7688 158.56 90.4939 159.154 90.0817 159.566L85.8391 155.323L81.5965 151.081C79.863 152.814 78.7688 155.232 78.7688 157.9H84.7688ZM85.8391 155.323L90.0817 159.566C89.6696 159.978 89.0756 160.253 88.4163 160.253V154.253V148.253C85.7477 148.253 83.3299 149.347 81.5965 151.081L85.8391 155.323ZM88.4163 154.253L87.2004 160.128L93.8498 161.504L95.0657 155.629L96.2815 149.753L89.6321 148.377L88.4163 154.253ZM95.0657 155.629H101.066V145.849H95.0657H89.0657V155.629H95.0657ZM95.0657 145.849L96.9535 140.153C87.5279 137.029 82.513 132.335 79.6687 127.598C76.7342 122.711 75.7622 117.199 75.4664 111.926L69.4758 112.262L63.4852 112.598C63.8295 118.735 65.0043 126.487 69.3807 133.776C73.8473 141.214 81.3073 147.609 93.1778 151.544L95.0657 145.849ZM69.4758 112.262L75.4665 111.926C75.3138 109.199 75.7416 106.464 76.5981 103.804L70.887 101.965L65.1758 100.126C63.9446 103.949 63.2372 108.166 63.4852 112.597L69.4758 112.262ZM70.887 101.965L73.5185 96.5727C69.5159 94.6194 66.6016 91.8403 65.5302 89.6488L60.1399 92.2842L54.7496 94.9195C57.3915 100.323 62.813 104.701 68.2555 107.357L70.887 101.965ZM60.1399 92.2842L61.4024 98.1498C62.0299 98.0148 62.6188 97.8403 63.1635 97.6489L61.1741 91.9883L59.1847 86.3277C59.0383 86.3791 58.9382 86.4054 58.8774 86.4185L60.1399 92.2842ZM61.1741 91.9883L66.2335 88.7631C65.2793 87.2662 64.4952 85.7097 63.864 84.1318L58.2932 86.3604L52.7224 88.5889C53.6154 90.821 54.7353 93.0496 56.1146 95.2135L61.1741 91.9883ZM58.2932 86.3604L55.8395 80.885C55.2575 81.1458 54.6442 81.3163 54.0196 81.3901L54.7239 87.3486L55.4282 93.3072C57.283 93.0879 59.0744 92.5852 60.7469 91.8357L58.2932 86.3604ZM54.7239 87.3486L54.1141 81.3797C53.7408 81.4178 53.3565 81.4443 52.9624 81.4596L53.1946 87.4551L53.4268 93.4506C54.0548 93.4263 54.6916 93.3832 55.3336 93.3176L54.7239 87.3486ZM53.1946 87.4551L52.9624 81.4596C52.5683 81.4748 52.1763 81.4784 51.7887 81.4701L51.6604 87.4688L51.5321 93.4674C52.1657 93.4809 52.7983 93.4749 53.4268 93.4506L53.1946 87.4551ZM51.6604 87.4688L57.591 88.3786L58.4865 82.5417L52.5559 81.6318L46.6253 80.722L45.7298 86.5589L51.6604 87.4688ZM52.5559 81.6318L52.7453 87.6288C53.216 87.614 53.9698 87.5937 54.7406 87.509L54.0852 81.5449L53.4298 75.5808C53.2069 75.6053 52.9332 75.6169 52.3665 75.6348L52.5559 81.6318ZM54.0852 81.5449L54.8904 87.4907C56.5869 87.2609 58.2056 86.6856 59.6534 85.8136L56.5579 80.6738L53.4623 75.534C53.4025 75.5701 53.3407 75.591 53.2801 75.5992L54.0852 81.5449ZM56.5579 80.6738L62.4229 79.4082C61.9689 77.3046 61.7707 75.269 61.7698 73.4131L55.7698 73.416L49.7698 73.4189C49.7711 76.1095 50.0569 78.9921 50.6929 81.9394L56.5579 80.6738ZM55.7698 73.416L61.7571 73.0257C61.7141 72.3673 61.7557 71.8664 61.8244 71.4982L55.926 70.3984L50.0277 69.2987C49.7585 70.7422 49.6811 72.2504 49.7825 73.8063L55.7698 73.416ZM55.926 70.3984L61.8649 71.2524C61.897 71.0294 61.9529 70.89 61.9967 70.8065L56.6848 68.0166L51.3729 65.2267C50.67 66.565 50.2063 68.0201 49.9871 69.5444L55.926 70.3984ZM56.6848 68.0166L62.1373 70.5207C62.1428 70.5087 62.1299 70.5387 62.0904 70.5951C62.0502 70.6524 61.9996 70.7127 61.9429 70.7692L57.7073 66.5195L53.4716 62.2699C52.6253 63.1135 51.8468 64.1745 51.2323 65.5125L56.6848 68.0166ZM57.7073 66.5195L62.2865 70.3964C62.4128 70.2472 62.5731 70.1172 62.7833 70.0084L60.0256 64.6797L57.268 59.351C55.7463 60.1384 54.3246 61.2292 53.128 62.6426L57.7073 66.5195ZM60.0256 64.6797L64.9201 61.2092C64.9206 61.2099 64.9199 61.209 64.9174 61.2054C64.9147 61.2015 64.9114 61.1968 64.9057 61.1887C64.8967 61.1758 64.8763 61.1466 64.8551 61.1166C64.8123 61.056 64.7354 60.9482 64.6391 60.8229L59.8821 64.4795L55.1251 68.1361C55.1006 68.1043 55.0821 68.0792 55.0708 68.0637C55.065 68.0558 55.0607 68.0497 55.058 68.046C55.0554 68.0424 55.0541 68.0405 55.0545 68.0412C55.055 68.0419 55.0566 68.0441 55.0601 68.0491C55.0619 68.0516 55.0638 68.0544 55.0663 68.0579C55.069 68.0618 55.0713 68.065 55.0747 68.07C55.0808 68.0787 55.0893 68.0907 55.0984 68.1037C55.1077 68.1169 55.1188 68.1327 55.1312 68.1502L60.0256 64.6797ZM59.8821 64.4795L64.6391 60.8229C64.3392 60.4327 64.0193 60.0656 63.6834 59.7219L59.3918 63.915L55.1003 68.1082C55.1138 68.122 55.1217 68.1317 55.1251 68.1361L59.8821 64.4795ZM59.3918 63.915L63.7441 59.7849C61.761 57.6952 59.1231 56.3809 56.2921 56.0323L55.5588 61.9873L54.8256 67.9423C54.921 67.9541 54.9917 67.9947 55.0396 68.0452L59.3918 63.915ZM55.5588 61.9873L49.628 61.0791L45.5664 87.6036L51.4973 88.5117L57.4282 89.4199L61.4897 62.8955L55.5588 61.9873ZM51.4973 88.5117L45.5733 87.5599C45.5672 87.5978 45.5538 87.6215 45.5427 87.6352L50.219 91.3945L54.8952 95.1539C56.2272 93.4971 57.0888 91.5329 57.4213 89.4636L51.4973 88.5117ZM50.219 91.3945L45.5431 87.6348C45.5355 87.6442 45.5275 87.6518 45.5182 87.6586C45.5087 87.6656 45.4945 87.6742 45.4736 87.6825L47.6809 93.2617L49.8882 98.8409C51.8365 98.0701 53.5642 96.8092 54.8949 95.1543L50.219 91.3945ZM47.6809 93.2617L45.441 87.6955C41.2958 89.3636 37.6115 89.7994 34.2696 89.288C30.9277 88.7765 27.5423 87.2586 24.0857 84.4269L20.2834 89.0684L16.4812 93.7098C21.3289 97.681 26.663 100.263 32.4541 101.15C38.2452 102.036 44.1074 101.167 49.9208 98.8279L47.6809 93.2617ZM20.2834 89.0684L24.0578 84.4042C24.0244 84.3772 24.016 84.3569 24.0148 84.3539L18.4211 86.5244L12.8275 88.6949C13.6016 90.6899 14.8829 92.4166 16.5091 93.7325L20.2834 89.0684ZM18.4211 86.5244L24.0109 84.3438C24.0052 84.3293 24.0019 84.3151 24.0006 84.3033C23.9993 84.2917 24.0002 84.286 24 84.2871L18.0667 83.3955L12.1333 82.504C11.8167 84.6108 12.069 86.7506 12.8314 88.705L18.4211 86.5244ZM18.0667 83.3955L23.9975 84.3036L28.7055 53.5556L22.7747 52.6475L16.8438 51.7394L12.1358 82.4874L18.0667 83.3955ZM22.7747 52.6475L28.148 49.9777C28.1405 49.9626 28.1365 49.9545 28.1351 49.9514C28.1337 49.9484 28.1355 49.9522 28.1396 49.9614L22.6682 52.4238L17.1968 54.8862C17.272 55.0535 17.3435 55.2008 17.4014 55.3172L22.7747 52.6475ZM22.6682 52.4238L28.0794 49.8318C28.0843 49.8419 28.0851 49.8504 28.0844 49.857L22.1184 49.2188L16.1525 48.5805C15.9168 50.7826 16.297 53.0117 17.257 55.0159L22.6682 52.4238ZM22.1184 49.2188L28.0979 49.714C28.0995 49.6948 28.1004 49.6883 28.0999 49.6925L22.1448 48.96L16.1897 48.2274C16.168 48.4038 16.1516 48.5704 16.1389 48.7235L22.1184 49.2188ZM22.1448 48.96L28.0722 49.8901C28.0719 49.8921 28.0721 49.8893 28.0753 49.8834C28.0786 49.8775 28.083 49.872 28.088 49.8676L24.1321 45.3564L20.1761 40.8453C18.0597 42.7013 16.6544 45.2446 16.2173 48.0298L22.1448 48.96ZM24.1321 45.3564L30.0814 44.5786C30.0828 44.5887 30.0774 44.5557 30.0886 44.4808L24.1545 43.5938L18.2205 42.7067C18.0571 43.7996 18.0287 44.9563 18.1827 46.1343L24.1321 45.3564ZM24.1545 43.5938L30.0548 44.683C30.0984 44.4471 30.2279 44.2615 30.3886 44.1504L26.9768 39.2148L23.5651 34.2793C20.7559 36.2211 18.8658 39.1918 18.2542 42.5045L24.1545 43.5938ZM26.9768 39.2148L30.3968 44.1447C30.5228 44.0573 30.6815 44.0041 30.8497 44.0008L30.7297 38.002L30.6098 32.0032C28.1104 32.0531 25.65 32.8329 23.5568 34.285L26.9768 39.2148ZM30.7297 38.002V44.002H30.7405V38.002V32.002H30.7297V38.002Z" fill="white" mask="url(#path-1-outside-1_1347_5219)"/>
<path d="M69.7217 65.8367L114.918 91.1538C114.918 91.1538 96.7259 116.367 72.9866 103.073C58.9058 95.1832 55.0566 80.5891 55.8701 70.887C56.3779 64.8321 63.1262 62.1404 69.7271 65.8421L69.7217 65.8367Z" fill="#276286"/>
<path opacity="0.5" d="M58.8842 65.623C57.5466 66.5075 54.3307 68.1509 56.6894 80.3372C58.9989 92.2615 68.0076 100.806 71.5073 102.013C75.007 103.219 78.0482 104.087 78.0482 104.087V100.61C78.0482 100.61 68.9685 94.8112 65.3432 90.4161C61.9908 86.3485 58.5785 80.2717 58.8842 65.623Z" fill="#14465D"/>
<path d="M91.037 78.3399C91.037 78.3399 79.8553 70.9746 78.7742 69.8936C76.2518 76.2652 67.9529 90.6026 60.1399 92.2842C62.9026 97.9352 70.7811 103.106 77.9935 104.307C84.4852 98.1754 91.2772 81.7086 91.037 78.3399Z" fill="black"/>
<path d="M163.194 89.2754L161.529 90.9079L162.943 91.6886C162.943 91.6886 163.44 90.4001 163.2 89.2754H163.194Z" fill="black"/>
<path d="M125.942 128.603V158.79C125.942 160.308 124.702 161.547 123.184 161.547H113.591C111.588 161.547 109.944 159.904 109.944 157.9C109.944 156.896 110.354 155.984 111.014 155.323C111.675 154.663 112.587 154.253 113.591 154.253L120.242 155.629V128.603C120.242 127.085 121.481 125.846 122.999 125.846H123.184C124.702 125.846 125.942 127.085 125.942 128.603Z" fill="#474747"/>
<path d="M100.766 128.603V158.79C100.766 160.308 99.5267 161.547 98.0088 161.547H88.416C86.4122 161.547 84.7688 159.904 84.7688 157.9C84.7688 156.896 85.1783 155.984 85.8389 155.323C86.4996 154.663 87.4113 154.253 88.416 154.253L95.066 155.629V128.603C95.066 127.085 96.3054 125.846 97.8232 125.846H98.0088C99.5267 125.846 100.766 127.085 100.766 128.603Z" fill="#474747"/>
<path d="M160.262 112.425C160.262 120.145 157.669 127.014 153.197 132.654H153.192C145.401 142.487 131.898 148.58 116.447 148.94C115.961 148.951 115.475 148.957 114.989 148.957C114.503 148.957 114.012 148.951 113.526 148.94C98.0695 148.58 84.5728 142.481 76.7816 132.659C76.7816 132.659 76.7816 132.654 76.7762 132.654C72.3046 127.014 69.7112 120.145 69.7112 112.425C69.7112 100.31 76.0937 89.4885 86.1015 82.3144C86.1015 82.3144 86.1234 77.466 86.1234 75.4841C86.1234 57.2811 99.0468 43.708 114.984 43.708C130.921 43.708 143.845 57.2811 143.845 75.4841C143.845 77.466 143.266 81.4408 142.982 81.7028C143.588 82.0796 143.866 82.3089 143.866 82.3089C153.885 89.4831 160.262 100.304 160.262 112.42V112.425Z" fill="#4B98E6"/>
<path d="M88.7661 77.0075C85.239 77.3733 79.4134 74.4905 79.1022 71.4822C78.791 68.4738 83.9014 64.4608 87.4284 64.1005C90.9554 63.7347 94.0239 65.4054 94.4879 69.8933C94.9575 74.4305 92.2931 76.6417 88.7661 77.0075Z" fill="#EAC00F"/>
<path opacity="0.5" d="M122.202 44.6738C122.202 44.6738 130.457 54.5779 132.69 60.409C135.354 67.3703 135.409 73.9712 134.896 77.0341C133.738 83.9899 130.692 88.7837 130.692 88.7837H140.705C140.705 88.7837 143.866 82.3138 143.844 75.489C143.823 69.0737 142.25 61.5392 137.009 54.6871C134.918 51.9518 129.911 46.6394 122.202 44.6738Z" fill="#2A5D82"/>
<path opacity="0.5" d="M136.839 98.3492C136.839 98.3492 145.035 111.415 137.926 125.255C133.023 134.799 125.898 140.084 111.713 148.672C150.069 151.113 159.541 123.519 160.262 115.155C160.497 112.43 136.839 98.3438 136.839 98.3438V98.3492Z" fill="#2A5D82"/>
<path opacity="0.5" d="M92.7019 65.6836C92.7019 65.6836 92.3689 67.4853 91.8666 69.4672C91.3206 71.602 89.7482 73.0598 88.2522 73.5239C86.303 74.1354 84.9763 74.6541 81.9734 75.0635C84.4139 76.565 86.9691 77.171 88.7654 77.0072C92.5763 76.6633 94.1379 74.3592 94.4491 72.1371C95.0551 67.7802 92.7019 65.6836 92.7019 65.6836Z" fill="#987D26"/>
<path d="M105.358 73.1255C108.868 73.1255 111.713 70.2802 111.713 66.7703C111.713 63.2604 108.868 60.415 105.358 60.415C101.848 60.415 99.0029 63.2604 99.0029 66.7703C99.0029 70.2802 101.848 73.1255 105.358 73.1255Z" fill="white"/>
<path d="M105.358 70.1549C107.228 70.1549 108.743 68.6394 108.743 66.7698C108.743 64.9003 107.228 63.3848 105.358 63.3848C103.489 63.3848 101.973 64.9003 101.973 66.7698C101.973 68.6394 103.489 70.1549 105.358 70.1549Z" fill="#040000"/>
<path d="M63.5906 59.8687C61.6906 57.8813 59.1681 56.5982 56.4382 56.2324L55.5592 61.9871C57.0224 62.1672 58.3765 62.8443 59.392 63.9144C60.0908 64.6296 60.6095 65.5032 60.9153 66.4532C61.221 67.4087 61.2975 68.4187 61.1446 69.407C60.746 71.9348 60.1782 74.43 59.452 76.8814C59.1081 78.099 58.4201 79.1855 57.4647 80.0154C56.5092 80.8453 55.3353 81.3749 54.085 81.5441C53.5882 81.5987 53.075 81.6151 52.5563 81.6315L51.6609 87.468C52.6819 87.4899 53.7083 87.4516 54.7238 87.3479C57.1262 87.064 59.392 86.0758 61.2319 84.5033C63.0719 82.9309 64.4041 80.8507 65.0538 78.5194C65.8509 75.8222 66.4734 73.0759 66.9156 70.2969C67.205 68.4187 67.0576 66.5023 66.4788 64.6951C65.9001 62.8879 64.9119 61.2391 63.5906 59.8741V59.8687Z" fill="#D7E8FC"/>
<path d="M47.6807 93.2615C37.722 97.269 28.5878 95.8713 20.2834 89.0684C19.4535 88.3968 18.8092 87.5232 18.4216 86.5241C18.0339 85.5304 17.9084 84.4494 18.0667 83.3956L23.5757 47.4209L57.0061 52.5367L51.4971 88.5115C51.3279 89.5652 50.8911 90.5589 50.2195 91.3942C49.548 92.2296 48.6744 92.8684 47.6807 93.2615Z" fill="#D7E8FC"/>
<path d="M53.2986 55.3157C53.5716 53.5249 47.746 51.1444 40.2879 50.0033C32.8243 48.8622 26.5564 49.3809 26.278 51.1772C26.0651 52.5531 20.9711 77.5263 23.4334 84.2145C24.4763 87.0536 27.9323 88.7953 34.1947 89.7562C40.4626 90.7172 44.279 90.0893 46.1244 87.687C50.4759 82.0361 53.0857 56.6807 53.2931 55.3103L53.2986 55.3157Z" fill="#FFBE3D"/>
<path d="M46.6538 84.2365C44.8084 86.6334 40.992 87.2613 34.7241 86.3058C28.4563 85.3449 25.0057 83.6032 23.9574 80.7641C22.6361 77.1661 23.4988 68.272 24.6126 60.6064C23.2913 68.8344 21.899 80.0652 23.4278 84.2256C24.4706 87.0647 27.9267 88.8064 34.1945 89.7673C40.4624 90.7282 44.2788 90.1004 46.1242 87.7035C48.8268 84.1928 50.8579 73.0603 52.0591 64.816C50.8361 72.4597 49.0016 81.2009 46.6593 84.2474L46.6538 84.2365Z" fill="#FFAA54"/>
<path d="M38.7426 63.8985C43.1596 64.6028 47.6367 64.8103 52.1028 64.5209C52.8071 59.6399 53.2166 55.818 53.293 55.3102C53.566 53.5194 47.7404 51.1389 40.2823 49.9978C32.8187 48.8567 26.5509 49.3809 26.2779 51.1772C26.2014 51.6849 25.4643 55.3812 24.6836 60.1804C29.2371 61.8784 33.9489 63.1232 38.7426 63.8985Z" fill="#FBF8D9"/>
<path d="M52.5398 47.0329C52.2778 47.0002 52.0157 46.9838 51.7536 46.9892C51.5953 45.87 51.0766 44.8381 50.274 44.0409C49.4714 43.2438 48.434 42.7306 47.3148 42.5777C46.5504 42.4631 45.7697 42.5122 45.0271 42.7251C44.7214 41.786 44.1645 40.9561 43.411 40.3173C42.6576 39.684 41.7403 39.2745 40.763 39.1326C39.9823 39.007 39.1797 39.0616 38.4207 39.2854C37.6618 39.5093 36.963 39.9024 36.3733 40.432C35.2541 39.1762 33.7308 38.3573 32.0655 38.1061C30.2911 37.7895 28.4566 38.188 26.977 39.2145C25.4919 40.2409 24.4818 41.8188 24.1543 43.5932C24.0669 44.1774 24.056 44.7726 24.1324 45.3568C23.0678 46.2904 22.3634 47.568 22.145 48.9602C21.9758 50.3361 22.2488 51.7284 22.9258 52.935C23.6028 54.1416 24.6511 55.1025 25.9123 55.6758C25.956 56.8879 26.4365 58.0454 27.2609 58.9408C28.0853 59.8362 29.1991 60.404 30.4057 60.5514C31.7161 60.808 33.0701 60.535 34.1785 59.7925C35.2868 59.05 36.0566 57.8979 36.3187 56.593C36.3842 56.1126 36.3679 55.6212 36.275 55.1462C37.2851 55.37 38.3225 55.5721 39.3981 55.7413C48.5487 57.1445 56.3617 55.7413 56.9732 52.6183C57.1097 51.2916 56.7166 49.9648 55.8867 48.9166C55.0568 47.8737 53.8502 47.1912 52.5289 47.022L52.5398 47.0329Z" fill="#FBF8D9"/>
<path d="M22.8436 52.7766C23.1876 51.7666 23.7882 50.8657 24.5908 50.1614C24.5089 49.5772 24.5143 48.9821 24.6017 48.3924C24.9238 46.6125 25.9393 45.0401 27.4244 44.0082C28.9095 42.9763 30.744 42.5832 32.5184 42.8998C34.1836 43.1455 35.7069 43.97 36.8262 45.2257C37.4159 44.6961 38.1147 44.303 38.8736 44.0792C39.6325 43.8553 40.4297 43.8007 41.2159 43.9263C42.1932 44.0628 43.105 44.4723 43.8639 45.1056C44.6173 45.7389 45.1797 46.5688 45.4855 47.5079C46.228 47.295 47.0087 47.2458 47.7731 47.3605C48.8924 47.5134 49.9297 48.0266 50.7323 48.8237C51.5349 49.6209 52.0536 50.6528 52.2119 51.772C52.474 51.772 52.7361 51.783 52.9982 51.8157C54.3304 52.0123 55.5424 52.7057 56.3887 53.7539C56.689 53.4373 56.9019 53.0442 56.9947 52.6183C57.1258 51.2916 56.7381 49.9648 55.9082 48.922C55.0784 47.8792 53.8717 47.2022 52.5505 47.0329C52.2884 47.0002 52.0263 46.9838 51.7642 46.9892C51.6059 45.87 51.0872 44.8381 50.2846 44.0409C49.482 43.2438 48.4447 42.7306 47.3254 42.5777C46.561 42.4631 45.7803 42.5122 45.0378 42.7251C44.732 41.786 44.1751 40.9561 43.4216 40.3173C42.6682 39.6785 41.7509 39.2745 40.7736 39.1326C39.9929 39.007 39.1903 39.0616 38.4314 39.2854C37.6725 39.5093 36.9736 39.9024 36.3839 40.432C35.2647 39.1762 33.7414 38.3573 32.0762 38.1061C30.3017 37.7895 28.4672 38.188 26.9876 39.2145C25.5025 40.2409 24.4925 41.8188 24.1649 43.5932C24.0775 44.1774 24.0666 44.7726 24.143 45.3568C23.1057 46.2522 22.4123 47.4806 22.1721 48.8292C21.9373 50.1778 22.1721 51.57 22.8436 52.7657V52.7766Z" fill="white"/>
<path d="M35.4127 51.0024C36.0515 51.1007 36.6466 50.6639 36.7394 50.0251C36.8323 49.3863 36.4009 48.7912 35.7621 48.6984C35.1233 48.6001 34.5282 49.0369 34.4354 49.6757C34.3426 50.3145 34.7739 50.9096 35.4127 51.0024Z" fill="#FFEF9E"/>
<path d="M31.3282 46.8361C31.967 46.9344 32.5622 46.4976 32.655 45.8588C32.7533 45.22 32.3165 44.6249 31.6777 44.5321C31.0389 44.4393 30.4438 44.8706 30.3509 45.5094C30.2581 46.1482 30.6894 46.7433 31.3282 46.8361Z" fill="#FFEF9E"/>
<path d="M31.2462 55.0803C31.885 55.1785 32.4802 54.7418 32.573 54.103C32.6658 53.4642 32.2345 52.869 31.5957 52.7762C30.9569 52.6834 30.3618 53.1147 30.2689 53.7535C30.1707 54.3923 30.6074 54.9875 31.2462 55.0803Z" fill="#FFEF9E"/>
<path d="M26.9877 52.0727C27.6265 52.171 28.2216 51.7342 28.3144 51.0954C28.4072 50.4566 27.9759 49.8615 27.3371 49.7687C26.6983 49.6704 26.1032 50.1072 26.0104 50.746C25.9121 51.3848 26.3489 51.9799 26.9877 52.0727Z" fill="#FFEF9E"/>
<path d="M72.2828 74.5992C72.2828 80.6104 68.6138 85.4806 64.0876 85.4806C59.5614 85.4806 56.7278 80.5504 55.8924 74.5992C54.8223 66.9937 59.5614 63.7178 64.0876 63.7178C68.6138 63.7178 72.2828 68.5879 72.2828 74.5992Z" fill="#276288"/>
<path d="M86.101 82.3193C86.101 82.3193 93.1442 91.0878 107.034 91.0878C120.924 91.0878 130.697 88.7892 130.697 88.7892C130.697 88.7892 142.326 84.1429 148.403 89.3516C154.48 94.5602 158.875 117.906 159.202 120.838C159.639 124.748 146.721 152.92 111.085 149.137C75.4489 145.353 70.2512 126.085 69.4759 112.261C68.6241 97.0445 81.6622 83.6843 86.1065 82.3248L86.101 82.3193Z" fill="black"/>
<path d="M83.5024 100.676C83.486 100.84 83.3332 100.96 83.1803 100.943L79.0035 100.468C78.4139 100.403 77.9771 99.9934 78.0262 99.5621L78.3866 96.4173C78.4357 95.9859 78.9544 95.6856 79.5441 95.7512L82.9455 96.1388C83.5352 96.2043 83.972 96.6138 83.9228 97.0451L83.8682 97.5311C83.8519 97.6949 83.699 97.815 83.5461 97.7986L81.859 97.6075C81.6952 97.5911 81.5751 97.4382 81.597 97.2745V97.2417C81.6352 96.9359 81.4441 96.6575 81.1765 96.6302C80.909 96.6029 80.6524 96.8268 80.6196 97.1325L80.363 99.3656C80.3303 99.6713 80.5214 99.9388 80.7944 99.9716C81.0619 100.004 81.3076 99.786 81.3458 99.4748L81.4386 98.6503L80.9527 98.5957L81.0182 98.0061L83.4915 98.29C83.6498 98.3064 83.7645 98.4592 83.7481 98.623L83.5133 100.681L83.5024 100.676Z" fill="black" stroke="black" stroke-width="1.91639" stroke-linecap="round" stroke-linejoin="round"/>
<path d="M90.5456 101.784L88.6129 101.566C88.4491 101.549 88.2853 101.391 88.2689 101.233L88.2034 100.567L87.0404 100.436L86.8166 101.069C86.7675 101.222 86.5709 101.336 86.4126 101.32L84.4743 101.096C84.3433 101.08 84.2723 100.96 84.2887 100.829C84.2887 100.79 84.3051 100.752 84.3269 100.714L86.1287 96.8048C86.1942 96.6629 86.3743 96.5373 86.5381 96.5591L89.5683 96.9031C89.7321 96.9195 89.8741 97.0833 89.9068 97.2361L90.7859 101.451C90.7968 101.5 90.7968 101.549 90.7913 101.593C90.775 101.724 90.6821 101.801 90.5456 101.79V101.784ZM88.1379 99.8459L87.9249 97.7985L87.2643 99.7422L88.1379 99.8405V99.8459Z" fill="black" stroke="black" stroke-width="1.91639" stroke-linecap="round" stroke-linejoin="round"/>
<path d="M96.2297 102.129C96.2133 102.292 96.0604 102.413 95.9075 102.396L91.8618 101.932C91.698 101.916 91.5779 101.763 91.5997 101.599L92.0693 97.4769C92.0857 97.3186 92.2385 97.2039 92.4023 97.2203L94.0894 97.4114C94.2477 97.4278 94.3624 97.5807 94.346 97.7335L93.9529 101.173L96.0167 101.408C96.1751 101.424 96.2897 101.577 96.2733 101.73L96.2297 102.123V102.129Z" fill="black" stroke="black" stroke-width="1.91639" stroke-linecap="round" stroke-linejoin="round"/>
<path d="M103.108 103.221L101.176 103.002C101.012 102.986 100.848 102.828 100.832 102.669L100.766 102.003L99.6032 101.872L99.3793 102.505C99.3302 102.658 99.1336 102.773 98.9753 102.757L97.0371 102.533C96.906 102.516 96.8351 102.396 96.8514 102.265C96.8514 102.227 96.8678 102.189 96.8897 102.151L98.6914 98.2413C98.7569 98.0994 98.9371 97.9738 99.1009 97.9956L102.131 98.3396C102.295 98.356 102.437 98.5198 102.47 98.6727L103.349 102.888C103.36 102.937 103.36 102.986 103.354 103.03C103.338 103.161 103.245 103.237 103.108 103.226V103.221ZM100.695 101.282L100.482 99.235L99.8216 101.179L100.695 101.277V101.282Z" fill="black" stroke="black" stroke-width="1.91639" stroke-linecap="round" stroke-linejoin="round"/>
<path d="M110.048 103.717C110.032 103.875 109.89 103.996 109.726 103.974L108.279 103.81C108.192 103.799 108.11 103.783 108.028 103.717C108.028 103.717 107.946 103.652 107.897 103.542L106.772 101.195L106.532 103.319C106.516 103.477 106.374 103.597 106.215 103.575L104.408 103.368C104.25 103.351 104.141 103.204 104.157 103.046L104.626 98.9125C104.643 98.7542 104.785 98.6341 104.943 98.6559L106.428 98.8251C106.603 98.847 106.701 98.918 106.783 99.0708L107.891 101.49L108.143 99.3111C108.159 99.1527 108.312 99.0381 108.465 99.0545L110.266 99.2619C110.43 99.2783 110.539 99.4312 110.523 99.5841L110.053 103.717H110.048Z" fill="black" stroke="black" stroke-width="1.91639" stroke-linecap="round" stroke-linejoin="round"/>
<path d="M116.6 103.963C116.551 104.394 116.032 104.694 115.442 104.629L111.271 104.154C111.107 104.137 110.987 103.985 111.009 103.821L111.478 99.6986C111.495 99.5403 111.648 99.4256 111.812 99.442L115.983 99.917C116.572 99.9825 117.009 100.392 116.96 100.823L116.6 103.968V103.963ZM114.629 101.014C114.662 100.709 114.416 100.425 114.077 100.387L113.706 100.343L113.324 103.684L113.695 103.728C114.034 103.766 114.334 103.553 114.372 103.247L114.629 101.014Z" fill="black" stroke="black" stroke-width="1.91639" stroke-linecap="round" stroke-linejoin="round"/>
<path d="M123.588 105.557L121.656 105.338C121.492 105.322 121.328 105.164 121.312 105.005L121.246 104.339L120.083 104.208L119.859 104.841C119.81 104.994 119.614 105.109 119.455 105.093L117.517 104.869C117.386 104.852 117.315 104.732 117.331 104.601C117.331 104.563 117.348 104.525 117.37 104.486L119.171 100.577C119.237 100.435 119.417 100.31 119.581 100.332L122.611 100.676C122.775 100.692 122.917 100.856 122.95 101.009L123.829 105.224C123.84 105.273 123.84 105.322 123.834 105.366C123.818 105.497 123.725 105.573 123.588 105.562V105.557ZM121.175 103.618L120.962 101.571L120.302 103.515L121.175 103.613V103.618Z" fill="black" stroke="black" stroke-width="1.91639" stroke-linecap="round" stroke-linejoin="round"/>
<path d="M130.233 105.519C130.184 105.951 129.665 106.251 129.075 106.185L125.674 105.798C125.084 105.732 124.648 105.323 124.697 104.891L124.729 104.602C124.746 104.438 124.899 104.318 125.062 104.34L126.75 104.531C126.908 104.547 127.023 104.7 127.006 104.864L126.99 104.99C126.957 105.295 127.148 105.574 127.421 105.607C127.694 105.639 127.934 105.41 127.973 105.104L128.071 104.258L125.881 104.007C125.292 103.941 124.855 103.532 124.904 103.101L125.112 101.271C125.128 101.108 125.281 100.988 125.445 101.009L127.132 101.2C127.29 101.217 127.405 101.37 127.388 101.534L127.208 103.106C127.175 103.412 127.366 103.679 127.639 103.712C127.912 103.745 128.153 103.526 128.191 103.215L128.371 101.643C128.387 101.479 128.54 101.359 128.704 101.381L130.391 101.572C130.55 101.588 130.664 101.741 130.648 101.905L130.233 105.536V105.519Z" fill="black" stroke="black" stroke-width="1.91639" stroke-linecap="round" stroke-linejoin="round"/>
<path d="M83.5574 100.234C83.541 100.397 83.3881 100.517 83.2352 100.501L79.0585 100.026C78.4688 99.9605 78.032 99.5511 78.0812 99.1197L78.4415 95.9749C78.4906 95.5436 79.0093 95.2433 79.599 95.3088L83.0005 95.6964C83.5901 95.7619 84.0269 96.1714 83.9778 96.6028L83.9232 97.0887C83.9068 97.2525 83.7539 97.3726 83.601 97.3562L81.914 97.1651C81.7502 97.1487 81.63 96.9959 81.6519 96.8321V96.7993C81.6901 96.4936 81.499 96.2151 81.2315 96.1878C80.9639 96.1605 80.7073 96.3844 80.6746 96.6901L80.418 98.9232C80.3852 99.2289 80.5763 99.4965 80.8493 99.5292C81.1223 99.562 81.3625 99.3436 81.4007 99.0324L81.4935 98.2079L81.0076 98.1533L81.0731 97.5637L83.5464 97.8476C83.7048 97.864 83.8194 98.0169 83.803 98.1806L83.5683 100.239L83.5574 100.234Z" fill="#21AD49"/>
<path d="M90.6003 101.342L88.6676 101.123C88.5038 101.107 88.34 100.949 88.3236 100.79L88.2581 100.124L87.0951 99.9932L86.8713 100.627C86.8221 100.779 86.6256 100.894 86.4673 100.878L84.529 100.654C84.398 100.637 84.327 100.517 84.3434 100.386C84.3434 100.348 84.3598 100.31 84.3816 100.272L86.1833 96.3624C86.2489 96.2205 86.429 96.0949 86.5928 96.1167L89.623 96.4607C89.7868 96.4771 89.9288 96.6409 89.9615 96.7938L90.8406 101.009C90.8515 101.058 90.8515 101.107 90.846 101.151C90.8296 101.282 90.7368 101.358 90.6003 101.347V101.342ZM88.1871 99.4035L87.9742 97.3561L87.3135 99.2998L88.1871 99.3981V99.4035Z" fill="#21AD49"/>
<path d="M96.2785 101.691C96.2621 101.855 96.1092 101.975 95.9564 101.959L91.9106 101.495C91.7468 101.478 91.6267 101.325 91.6486 101.162L92.1181 97.0394C92.1345 96.8811 92.2874 96.7664 92.4512 96.7828L94.1382 96.9739C94.2966 96.9903 94.4112 97.1432 94.3948 97.296L94.0017 100.736L96.0655 100.97C96.2239 100.987 96.3385 101.14 96.3222 101.293L96.2785 101.686V101.691Z" fill="#21AD49"/>
<path d="M103.158 102.778L101.225 102.56C101.062 102.544 100.898 102.385 100.881 102.227L100.816 101.561L99.653 101.43L99.4291 102.063C99.38 102.216 99.1835 102.331 99.0251 102.314L97.0869 102.09C96.9559 102.074 96.8849 101.954 96.9013 101.823C96.9013 101.785 96.9176 101.746 96.9395 101.708L98.7412 97.799C98.8067 97.657 98.9869 97.5314 99.1507 97.5533L102.181 97.8972C102.345 97.9136 102.487 98.0774 102.519 98.2303L103.398 102.445C103.409 102.494 103.409 102.544 103.404 102.587C103.388 102.718 103.295 102.795 103.158 102.784V102.778ZM100.745 100.84L100.532 98.7926L99.8714 100.736L100.745 100.835V100.84Z" fill="#21AD49"/>
<path d="M110.097 103.275C110.081 103.433 109.939 103.553 109.775 103.531L108.328 103.368C108.241 103.357 108.159 103.34 108.077 103.275C108.077 103.275 107.995 103.209 107.946 103.1L106.821 100.752L106.581 102.876C106.565 103.035 106.423 103.155 106.265 103.133L104.457 102.925C104.299 102.909 104.19 102.762 104.206 102.603L104.676 98.4701C104.692 98.3118 104.834 98.1917 104.992 98.2135L106.477 98.3828C106.652 98.4046 106.75 98.4756 106.832 98.6285L107.941 101.047L108.192 98.8687C108.208 98.7104 108.361 98.5957 108.514 98.6121L110.316 98.8195C110.48 98.8359 110.589 98.9888 110.572 99.1417L110.103 103.275H110.097Z" fill="#21AD49"/>
<path d="M116.649 103.52C116.6 103.952 116.081 104.252 115.492 104.186L111.32 103.711C111.157 103.695 111.036 103.542 111.058 103.378L111.528 99.2562C111.544 99.0979 111.697 98.9832 111.861 98.9996L116.032 99.4746C116.622 99.5401 117.059 99.9496 117.009 100.381L116.649 103.526V103.52ZM114.678 100.577C114.711 100.272 114.465 99.9878 114.127 99.9496L113.755 99.9059L113.373 103.247L113.744 103.291C114.083 103.329 114.383 103.116 114.421 102.811L114.678 100.577Z" fill="#21AD49"/>
<path d="M123.638 105.114L121.705 104.896C121.541 104.879 121.377 104.721 121.361 104.563L121.295 103.897L120.132 103.766L119.909 104.399C119.859 104.552 119.663 104.667 119.505 104.65L117.566 104.426C117.435 104.41 117.364 104.29 117.381 104.159C117.381 104.121 117.397 104.082 117.419 104.044L119.221 100.135C119.286 99.9929 119.466 99.8674 119.63 99.8892L122.66 100.233C122.824 100.25 122.966 100.413 122.999 100.566L123.878 104.781C123.889 104.83 123.889 104.879 123.883 104.923C123.867 105.054 123.774 105.131 123.638 105.12V105.114ZM121.224 103.176L121.012 101.129L120.351 103.072L121.224 103.171V103.176Z" fill="#21AD49"/>
<path d="M130.283 105.082C130.234 105.513 129.715 105.813 129.125 105.748L125.724 105.36C125.134 105.295 124.697 104.885 124.746 104.454L124.779 104.164C124.796 104.001 124.948 103.881 125.112 103.902L126.799 104.093C126.958 104.11 127.072 104.263 127.056 104.427L127.04 104.552C127.007 104.858 127.198 105.136 127.471 105.169C127.744 105.202 127.984 104.973 128.022 104.667L128.121 103.82L125.931 103.569C125.342 103.504 124.905 103.094 124.954 102.663L125.161 100.834C125.178 100.67 125.331 100.55 125.494 100.572L127.182 100.763C127.34 100.779 127.455 100.932 127.438 101.096L127.258 102.668C127.225 102.974 127.416 103.242 127.689 103.275C127.962 103.307 128.203 103.089 128.241 102.778L128.421 101.205C128.437 101.041 128.59 100.921 128.754 100.943L130.441 101.134C130.599 101.151 130.714 101.304 130.698 101.467L130.283 105.098V105.082Z" fill="#21AD49"/>
<path d="M148.441 83.6739L174.965 98.3116C181.44 101.882 183.264 109.482 178.558 113.321C171.209 119.316 159.547 125.081 146.241 117.743C135.13 111.612 131.412 101.047 130.511 91.8854C129.665 83.2808 139.547 78.771 148.441 83.6739Z" fill="#276288"/>
<path opacity="0.5" d="M130.691 88.7842C129.785 92.8408 132.007 100.572 133.421 103.597C136.883 111.017 142.441 116.94 149.954 119.474C157.575 122.04 165.219 121.003 170.592 118.426C175.899 115.881 178.558 113.315 178.558 113.315C178.558 113.315 167.458 116.121 160.262 115.155C153.066 114.189 144.472 110.301 139.487 104.143C134.502 97.984 133.017 93.7581 130.686 88.7842H130.691Z" fill="#14465D"/>
<path d="M154.026 101.599C150.991 107.834 149.697 114.882 148.993 119.141C144.87 117.694 140.404 114.768 136.32 108.882C135.217 107.293 133.951 104.847 133.356 103.471C133.334 103.439 133.323 103.411 133.312 103.379C133.001 102.707 132.657 101.817 132.307 100.785C131.423 98.1536 130.555 94.6156 130.402 91.6619C130.396 91.6346 130.396 91.6018 130.396 91.569C130.304 90.5044 130.369 89.4998 130.588 88.5661C132.078 82.058 140.208 79.1152 148.741 82.7241C148.741 82.7241 160.611 87.3213 163.199 89.2759C158.946 93.4035 155.637 98.2955 154.032 101.599H154.026Z" fill="black"/>
</svg>
