<svg width="200" height="200" viewBox="0 0 200 200" fill="none" xmlns="http://www.w3.org/2000/svg">
<mask id="path-1-outside-1_1062_24348" maskUnits="userSpaceOnUse" x="13" y="20" width="175" height="177" fill="black">
<rect fill="white" x="13" y="20" width="175" height="177"/>
<path d="M101.04 26C101.655 26 102.271 26.0123 102.88 26.0615C119.831 27.0585 133.281 41.8689 133.281 61.5029C133.281 63.712 132.629 68.1603 132.315 68.4434C132.389 68.4864 132.457 68.5295 132.513 68.5664C133.044 68.9044 133.296 69.1181 133.306 69.126C143.735 76.5834 150.633 87.5912 151.519 100.008C151.586 100.918 151.623 101.835 151.623 102.758H151.617C151.617 103.57 151.586 104.382 151.543 105.17C151.537 105.238 151.531 105.3 151.531 105.361C151.521 105.515 151.508 105.668 151.495 105.82H160.271L181.305 127.176H180.237V130.38H177.033V136.786H169.069V190.44H162.981V189.99L160.974 187.314V136.786H152.089V177.396H146.087V177.456L146.041 177.396H146.001V177.341L143.812 174.423V136.786H129.759C127.529 137.975 125.169 139.017 122.7 139.907V146.349L130.127 144.816C131.241 144.816 132.262 145.272 133.007 146.011C133.739 146.749 134.2 147.765 134.2 148.891C134.2 151.13 132.366 152.964 130.127 152.964H119.415C117.717 152.964 116.332 151.579 116.332 149.887V141.815C115.534 142.007 114.727 142.184 113.912 142.347C110.909 142.944 107.802 143.324 104.608 143.484C103.969 143.521 103.323 143.546 102.677 143.559C102.135 143.565 101.588 143.571 101.04 143.571C100.492 143.571 99.9506 143.565 99.4092 143.559C95.6436 143.472 91.9762 143.079 88.4629 142.408C86.6269 142.056 84.8265 141.622 83.0752 141.112V149.887C83.0752 151.579 81.6901 152.964 79.998 152.964H69.2861C67.0465 152.964 65.213 151.13 65.2129 148.891C65.2129 147.771 65.6747 146.749 66.4131 146.011C67.1514 145.273 68.1662 144.817 69.292 144.817L76.7188 146.355V138.874C75.2053 138.238 73.7399 137.54 72.3262 136.786H54.9707V174.423L53.1377 176.867V177.396H52.7412L52.6963 177.456V177.396H47.0508V136.786H38.5654V187.314L36.3135 190.317V190.44H30.2266V136.786H22.2031V130.38H19V127.176L40.0332 105.82H50.5928C50.5771 105.627 50.5616 105.433 50.5488 105.238C50.5488 105.236 50.5479 105.234 50.5479 105.231C44.6513 104.325 39.5746 101.272 35.749 98.1494C31.3498 94.5622 33.0601 87.468 39.1084 84.127L63.8926 70.4492L63.8867 70.4434C65.5076 69.5495 67.1636 68.9911 68.7734 68.7295C68.7797 67.4336 68.8047 63.3508 68.8047 61.5029C68.8047 41.1612 83.2395 26 101.04 26Z"/>
</mask>
<path d="M101.04 26C101.655 26 102.271 26.0123 102.88 26.0615C119.831 27.0585 133.281 41.8689 133.281 61.5029C133.281 63.712 132.629 68.1603 132.315 68.4434C132.389 68.4864 132.457 68.5295 132.513 68.5664C133.044 68.9044 133.296 69.1181 133.306 69.126C143.735 76.5834 150.633 87.5912 151.519 100.008C151.586 100.918 151.623 101.835 151.623 102.758H151.617C151.617 103.57 151.586 104.382 151.543 105.17C151.537 105.238 151.531 105.3 151.531 105.361C151.521 105.515 151.508 105.668 151.495 105.82H160.271L181.305 127.176H180.237V130.38H177.033V136.786H169.069V190.44H162.981V189.99L160.974 187.314V136.786H152.089V177.396H146.087V177.456L146.041 177.396H146.001V177.341L143.812 174.423V136.786H129.759C127.529 137.975 125.169 139.017 122.7 139.907V146.349L130.127 144.816C131.241 144.816 132.262 145.272 133.007 146.011C133.739 146.749 134.2 147.765 134.2 148.891C134.2 151.13 132.366 152.964 130.127 152.964H119.415C117.717 152.964 116.332 151.579 116.332 149.887V141.815C115.534 142.007 114.727 142.184 113.912 142.347C110.909 142.944 107.802 143.324 104.608 143.484C103.969 143.521 103.323 143.546 102.677 143.559C102.135 143.565 101.588 143.571 101.04 143.571C100.492 143.571 99.9506 143.565 99.4092 143.559C95.6436 143.472 91.9762 143.079 88.4629 142.408C86.6269 142.056 84.8265 141.622 83.0752 141.112V149.887C83.0752 151.579 81.6901 152.964 79.998 152.964H69.2861C67.0465 152.964 65.213 151.13 65.2129 148.891C65.2129 147.771 65.6747 146.749 66.4131 146.011C67.1514 145.273 68.1662 144.817 69.292 144.817L76.7188 146.355V138.874C75.2053 138.238 73.7399 137.54 72.3262 136.786H54.9707V174.423L53.1377 176.867V177.396H52.7412L52.6963 177.456V177.396H47.0508V136.786H38.5654V187.314L36.3135 190.317V190.44H30.2266V136.786H22.2031V130.38H19V127.176L40.0332 105.82H50.5928C50.5771 105.627 50.5616 105.433 50.5488 105.238C50.5488 105.236 50.5479 105.234 50.5479 105.231C44.6513 104.325 39.5746 101.272 35.749 98.1494C31.3498 94.5622 33.0601 87.468 39.1084 84.127L63.8926 70.4492L63.8867 70.4434C65.5076 69.5495 67.1636 68.9911 68.7734 68.7295C68.7797 67.4336 68.8047 63.3508 68.8047 61.5029C68.8047 41.1612 83.2395 26 101.04 26Z" fill="#276286"/>
<path d="M101.04 26L101.04 20H101.04V26ZM102.88 26.0615L102.397 32.042C102.44 32.0456 102.484 32.0486 102.528 32.0512L102.88 26.0615ZM133.281 61.5029L139.281 61.5031V61.5029H133.281ZM132.315 68.4434L128.297 63.9879C126.875 65.2705 126.15 67.1548 126.347 69.0596C126.544 70.9644 127.638 72.6609 129.292 73.6259L132.315 68.4434ZM132.513 68.5664L129.184 73.5587C129.22 73.5823 129.255 73.6055 129.291 73.6283L132.513 68.5664ZM133.306 69.126L129.422 73.6992C129.549 73.8071 129.68 73.9097 129.816 74.0066L133.306 69.126ZM151.519 100.008L145.534 100.435C145.534 100.441 145.535 100.447 145.535 100.453L151.519 100.008ZM151.623 102.758V108.758C153.214 108.758 154.74 108.126 155.866 107C156.991 105.875 157.623 104.349 157.623 102.758L151.623 102.758ZM151.617 102.758V96.7578C148.303 96.7578 145.617 99.4441 145.617 102.758H151.617ZM151.543 105.17L157.518 105.713C157.525 105.641 157.53 105.569 157.534 105.498L151.543 105.17ZM151.531 105.361L157.517 105.775C157.526 105.637 157.531 105.499 157.531 105.361H151.531ZM151.495 105.82L145.515 105.333C145.379 107.003 145.948 108.655 147.083 109.887C148.219 111.119 149.819 111.82 151.495 111.82V105.82ZM160.271 105.82L164.546 101.61C163.419 100.465 161.879 99.8203 160.271 99.8203V105.82ZM181.305 127.176V133.176C183.723 133.176 185.905 131.724 186.839 129.493C187.773 127.262 187.277 124.689 185.579 122.966L181.305 127.176ZM180.237 127.176V121.176C176.924 121.176 174.237 123.862 174.237 127.176H180.237ZM180.237 130.38V136.38C183.551 136.38 186.237 133.694 186.237 130.38H180.237ZM177.033 130.38V124.38C173.719 124.38 171.033 127.066 171.033 130.38H177.033ZM177.033 136.786V142.786C180.347 142.786 183.033 140.1 183.033 136.786H177.033ZM169.069 136.786V130.786C165.756 130.786 163.069 133.472 163.069 136.786H169.069ZM169.069 190.44V196.44C172.383 196.44 175.069 193.754 175.069 190.44H169.069ZM162.981 190.44H156.981C156.981 193.754 159.668 196.44 162.981 196.44V190.44ZM162.981 189.99H168.981C168.981 188.692 168.56 187.428 167.781 186.389L162.981 189.99ZM160.974 187.314H154.974C154.974 188.613 155.395 189.877 156.174 190.916L160.974 187.314ZM160.974 136.786H166.974C166.974 133.472 164.287 130.786 160.974 130.786V136.786ZM152.089 136.786V130.786C148.775 130.786 146.089 133.472 146.089 136.786H152.089ZM152.089 177.396V183.396C155.403 183.396 158.089 180.709 158.089 177.396H152.089ZM146.087 177.396V171.396C142.773 171.396 140.087 174.082 140.087 177.396H146.087ZM146.087 177.456L141.305 181.081C142.862 183.134 145.556 183.964 147.999 183.143C150.441 182.322 152.087 180.033 152.087 177.456H146.087ZM146.041 177.396L150.822 173.771C149.688 172.275 147.919 171.396 146.041 171.396V177.396ZM146.001 177.396H140.001C140.001 180.709 142.687 183.396 146.001 183.396V177.396ZM146.001 177.341H152.001C152.001 176.042 151.58 174.779 150.8 173.74L146.001 177.341ZM143.812 174.423H137.812C137.812 175.722 138.233 176.985 139.012 178.024L143.812 174.423ZM143.812 136.786H149.812C149.812 133.472 147.125 130.786 143.812 130.786V136.786ZM129.759 136.786V130.786C128.774 130.786 127.805 131.028 126.936 131.491L129.759 136.786ZM122.7 139.907L120.665 134.263C118.286 135.121 116.7 137.378 116.7 139.907H122.7ZM122.7 146.349H116.7C116.7 148.153 117.512 149.861 118.91 151C120.309 152.14 122.146 152.589 123.913 152.225L122.7 146.349ZM130.127 144.816V138.816C129.72 138.816 129.313 138.858 128.915 138.94L130.127 144.816ZM133.007 146.011L137.268 141.786C137.256 141.774 137.244 141.762 137.232 141.751L133.007 146.011ZM134.2 148.891L140.2 148.891V148.891H134.2ZM116.332 141.815H122.332C122.332 139.978 121.49 138.242 120.048 137.104C118.605 135.967 116.721 135.552 114.934 135.981L116.332 141.815ZM113.912 142.347L115.082 148.232L115.089 148.23L113.912 142.347ZM104.608 143.484L104.308 137.492C104.293 137.493 104.278 137.493 104.263 137.494L104.608 143.484ZM102.677 143.559L102.745 149.558C102.76 149.558 102.776 149.558 102.791 149.558L102.677 143.559ZM101.04 143.571L101.04 149.571L101.04 149.571L101.04 143.571ZM99.4092 143.559L99.2719 149.557C99.295 149.558 99.318 149.558 99.341 149.558L99.4092 143.559ZM88.4629 142.408L87.331 148.3L87.3378 148.302L88.4629 142.408ZM83.0752 141.112L84.753 135.352C82.9402 134.824 80.9846 135.18 79.4743 136.313C77.964 137.446 77.0752 139.224 77.0752 141.112H83.0752ZM69.2861 152.964L69.2861 158.964H69.2861V152.964ZM65.2129 148.891L59.2129 148.891L59.2129 148.891L65.2129 148.891ZM66.4131 146.011L62.1707 141.768L62.1704 141.768L66.4131 146.011ZM69.292 144.817L70.5088 138.942C70.1083 138.859 69.7005 138.817 69.2915 138.817L69.292 144.817ZM76.7188 146.355L75.502 152.231C77.2692 152.597 79.1073 152.148 80.5068 151.008C81.9064 149.869 82.7188 148.16 82.7188 146.355H76.7188ZM76.7188 138.874H82.7188C82.7188 136.459 81.2704 134.279 79.0437 133.343L76.7188 138.874ZM72.3262 136.786L75.1497 131.492C74.2808 131.029 73.311 130.786 72.3262 130.786V136.786ZM54.9707 136.786V130.786C51.657 130.786 48.9707 133.472 48.9707 136.786H54.9707ZM54.9707 174.423L59.7709 178.023C60.5497 176.984 60.9707 175.721 60.9707 174.423H54.9707ZM53.1377 176.867L48.3375 173.267C47.5587 174.306 47.1377 175.569 47.1377 176.867H53.1377ZM53.1377 177.396V183.396C56.4514 183.396 59.1377 180.709 59.1377 177.396H53.1377ZM52.7412 177.396V171.396C50.8417 171.396 49.0544 172.295 47.9226 173.82L52.7412 177.396ZM52.6963 177.456H46.6963C46.6963 180.044 48.3561 182.341 50.8137 183.153C53.2713 183.965 55.9726 183.11 57.5149 181.031L52.6963 177.456ZM52.6963 177.396H58.6963C58.6963 174.082 56.01 171.396 52.6963 171.396V177.396ZM47.0508 177.396H41.0508C41.0508 180.709 43.7371 183.396 47.0508 183.396V177.396ZM47.0508 136.786H53.0508C53.0508 133.472 50.3645 130.786 47.0508 130.786V136.786ZM38.5654 136.786V130.786C35.2517 130.786 32.5654 133.472 32.5654 136.786H38.5654ZM38.5654 187.314L43.3656 190.914C44.1444 189.876 44.5654 188.613 44.5654 187.314H38.5654ZM36.3135 190.317L31.5133 186.718C30.7345 187.756 30.3135 189.019 30.3135 190.317H36.3135ZM36.3135 190.44V196.44C39.6272 196.44 42.3135 193.754 42.3135 190.44H36.3135ZM30.2266 190.44H24.2266C24.2266 193.754 26.9129 196.44 30.2266 196.44V190.44ZM30.2266 136.786H36.2266C36.2266 133.472 33.5403 130.786 30.2266 130.786V136.786ZM22.2031 136.786H16.2031C16.2031 140.1 18.8894 142.786 22.2031 142.786V136.786ZM22.2031 130.38H28.2031C28.2031 127.066 25.5168 124.38 22.2031 124.38V130.38ZM19 130.38H13C13 133.694 15.6863 136.38 19 136.38V130.38ZM19 127.176L14.7252 122.966C13.6197 124.088 13 125.6 13 127.176H19ZM40.0332 105.82V99.8203C38.4261 99.8203 36.8862 100.465 35.7584 101.61L40.0332 105.82ZM50.5928 105.82V111.82C52.2685 111.82 53.8679 111.12 55.0038 109.888C56.1398 108.656 56.7087 107.005 56.5731 105.335L50.5928 105.82ZM50.5488 105.238H44.5488C44.5488 105.369 44.5531 105.499 44.5616 105.63L50.5488 105.238ZM50.5479 105.231L56.5475 105.169C56.5172 102.231 54.3635 99.7475 51.4594 99.3011L50.5479 105.231ZM35.749 98.1494L39.5432 93.5014L39.5408 93.4994L35.749 98.1494ZM39.1084 84.127L36.2093 78.8738L36.2073 78.875L39.1084 84.127ZM63.8926 70.4492L66.7916 75.7024C68.4426 74.7912 69.5692 73.1569 69.8334 71.2898C70.0976 69.4227 69.4686 67.54 68.1352 66.2066L63.8926 70.4492ZM63.8867 70.4434L60.9894 65.1893C59.3378 66.1 58.2106 67.7344 57.946 69.6018C57.6815 71.4692 58.3104 73.3523 59.6441 74.686L63.8867 70.4434ZM68.7734 68.7295L69.7358 74.6518C72.6292 74.1816 74.7593 71.6896 74.7734 68.7583L68.7734 68.7295ZM68.8047 61.5029L74.8047 61.5029V61.5029H68.8047ZM101.04 26L101.04 32C101.587 32 102.02 32.0116 102.397 32.042L102.88 26.0615L103.363 20.081C102.522 20.013 101.724 20 101.04 20L101.04 26ZM102.88 26.0615L102.528 32.0512C115.893 32.8372 127.281 44.6135 127.281 61.5029H133.281H139.281C139.281 39.1244 123.769 21.2797 103.232 20.0719L102.88 26.0615ZM133.281 61.5029L127.281 61.5028C127.281 61.8024 127.257 62.2965 127.199 62.9405C127.143 63.5629 127.063 64.233 126.976 64.8516C126.886 65.4846 126.797 65.9872 126.732 66.2934C126.696 66.4612 126.689 66.4639 126.72 66.3637C126.734 66.3213 126.794 66.1304 126.911 65.8704C126.971 65.738 127.081 65.5092 127.25 65.2367C127.397 65.0002 127.73 64.4989 128.297 63.9879L132.315 68.4434L136.334 72.8988C137.339 71.9921 137.778 70.9644 137.845 70.8157C138.006 70.4583 138.112 70.1407 138.174 69.9453C138.301 69.539 138.396 69.1305 138.466 68.8069C138.611 68.1304 138.744 67.3298 138.856 66.5392C139.073 65.0112 139.281 63.024 139.281 61.5031L133.281 61.5029ZM132.315 68.4434L129.292 73.6259C129.271 73.6136 129.253 73.6026 129.237 73.5928C129.222 73.583 129.204 73.5719 129.184 73.5587L132.513 68.5664L135.841 63.5741C135.695 63.4766 135.525 63.3693 135.339 63.2608L132.315 68.4434ZM132.513 68.5664L129.291 73.6283C129.581 73.8129 129.613 73.862 129.422 73.6992L133.306 69.126L137.19 64.5527C136.979 64.3742 136.506 63.9959 135.734 63.5046L132.513 68.5664ZM133.306 69.126L129.816 74.0066C139.01 80.5806 144.793 90.051 145.534 100.435L151.519 100.008L157.503 99.5807C156.472 85.1313 148.46 72.5861 136.796 64.2453L133.306 69.126ZM151.519 100.008L145.535 100.453C145.593 101.227 145.623 101.995 145.623 102.758L151.623 102.758L157.623 102.758C157.623 101.675 157.58 100.61 157.502 99.5631L151.519 100.008ZM151.623 102.758V96.7578H151.617V102.758V108.758H151.623V102.758ZM151.617 102.758H145.617C145.617 103.422 145.592 104.117 145.552 104.842L151.543 105.17L157.534 105.498C157.58 104.648 157.617 103.718 157.617 102.758H151.617ZM151.543 105.17L145.568 104.627C145.566 104.648 145.531 104.982 145.531 105.361H151.531H157.531C157.531 105.509 157.525 105.621 157.521 105.676C157.518 105.722 157.514 105.756 157.518 105.713L151.543 105.17ZM151.531 105.361L145.546 104.948C145.538 105.053 145.53 105.147 145.515 105.333L151.495 105.82L157.475 106.308C157.485 106.188 157.503 105.977 157.517 105.775L151.531 105.361ZM151.495 105.82V111.82H160.271V105.82V99.8203H151.495V105.82ZM160.271 105.82L155.997 110.031L177.03 131.386L181.305 127.176L185.579 122.966L164.546 101.61L160.271 105.82ZM181.305 127.176V121.176H180.237V127.176V133.176H181.305V127.176ZM180.237 127.176H174.237V130.38H180.237H186.237V127.176H180.237ZM180.237 130.38V124.38H177.033V130.38V136.38H180.237V130.38ZM177.033 130.38H171.033V136.786H177.033H183.033V130.38H177.033ZM177.033 136.786V130.786H169.069V136.786V142.786H177.033V136.786ZM169.069 136.786H163.069V190.44H169.069H175.069V136.786H169.069ZM169.069 190.44V184.44H162.981V190.44V196.44H169.069V190.44ZM162.981 190.44H168.981V189.99H162.981H156.981V190.44H162.981ZM162.981 189.99L167.781 186.389L165.773 183.713L160.974 187.314L156.174 190.916L158.182 193.591L162.981 189.99ZM160.974 187.314H166.974V136.786H160.974H154.974V187.314H160.974ZM160.974 136.786V130.786H152.089V136.786V142.786H160.974V136.786ZM152.089 136.786H146.089V177.396H152.089H158.089V136.786H152.089ZM152.089 177.396V171.396H146.087V177.396V183.396H152.089V177.396ZM146.087 177.396H140.087V177.456H146.087H152.087V177.396H146.087ZM146.087 177.456L150.868 173.831L150.822 173.771L146.041 177.396L141.26 181.02L141.305 181.081L146.087 177.456ZM146.041 177.396V171.396H146.001V177.396V183.396H146.041V177.396ZM146.001 177.396H152.001V177.341H146.001H140.001V177.396H146.001ZM146.001 177.341L150.8 173.74L148.611 170.822L143.812 174.423L139.012 178.024L141.202 180.942L146.001 177.341ZM143.812 174.423H149.812V136.786H143.812H137.812V174.423H143.812ZM143.812 136.786V130.786H129.759V136.786V142.786H143.812V136.786ZM129.759 136.786L126.936 131.491C124.972 132.538 122.876 133.466 120.665 134.263L122.7 139.907L124.735 145.552C127.462 144.568 130.086 143.411 132.581 142.081L129.759 136.786ZM122.7 139.907H116.7V146.349H122.7H128.7V139.907H122.7ZM122.7 146.349L123.913 152.225L131.339 150.693L130.127 144.816L128.915 138.94L121.488 140.472L122.7 146.349ZM130.127 144.816V150.816C129.576 150.816 129.102 150.588 128.782 150.271L133.007 146.011L137.232 141.751C135.423 139.957 132.905 138.816 130.127 138.816V144.816ZM133.007 146.011L128.746 150.235C128.433 149.919 128.2 149.442 128.2 148.891H134.2H140.2C140.2 146.088 139.045 143.579 137.268 141.786L133.007 146.011ZM134.2 148.891L128.2 148.89C128.2 147.817 129.052 146.964 130.127 146.964V152.964V158.964C135.681 158.964 140.2 154.443 140.2 148.891L134.2 148.891ZM130.127 152.964V146.964H119.415V152.964V158.964H130.127V152.964ZM119.415 152.964V146.964C121.023 146.964 122.332 148.258 122.332 149.887H116.332H110.332C110.332 154.9 114.41 158.964 119.415 158.964V152.964ZM116.332 149.887H122.332V141.815H116.332H110.332V149.887H116.332ZM116.332 141.815L114.934 135.981C114.211 136.154 113.478 136.315 112.735 136.463L113.912 142.347L115.089 148.23C115.976 148.053 116.857 147.86 117.73 147.65L116.332 141.815ZM113.912 142.347L112.742 136.462C110.037 136.999 107.221 137.346 104.308 137.492L104.608 143.484L104.909 149.477C108.383 149.303 111.782 148.888 115.082 148.232L113.912 142.347ZM104.608 143.484L104.263 137.494C103.699 137.527 103.13 137.549 102.562 137.56L102.677 143.559L102.791 149.558C103.515 149.544 104.238 149.516 104.954 149.474L104.608 143.484ZM102.677 143.559L102.609 137.559C102.058 137.565 101.547 137.571 101.04 137.571L101.04 143.571L101.04 149.571C101.628 149.571 102.213 149.564 102.745 149.558L102.677 143.559ZM101.04 143.571V137.571C100.533 137.571 100.029 137.565 99.4774 137.559L99.4092 143.559L99.341 149.558C99.8727 149.564 100.451 149.571 101.04 149.571V143.571ZM99.4092 143.559L99.5464 137.56C96.1085 137.482 92.7716 137.122 89.5879 136.515L88.4629 142.408L87.3378 148.302C91.1808 149.035 95.1787 149.463 99.2719 149.557L99.4092 143.559ZM88.4629 142.408L89.5948 136.516C87.9385 136.198 86.3203 135.808 84.753 135.352L83.0752 141.112L81.3974 146.873C83.3326 147.437 85.3154 147.913 87.331 148.3L88.4629 142.408ZM83.0752 141.112H77.0752V149.887H83.0752H89.0752V141.112H83.0752ZM83.0752 149.887H77.0752C77.0752 148.265 78.3764 146.964 79.998 146.964V152.964V158.964C85.0038 158.964 89.0752 154.892 89.0752 149.887H83.0752ZM79.998 152.964V146.964H69.2861V152.964V158.964H79.998V152.964ZM69.2861 152.964L69.2862 146.964C70.3606 146.964 71.2128 147.817 71.2129 148.89L65.2129 148.891L59.2129 148.891C59.2132 154.444 63.7325 158.964 69.2861 158.964L69.2861 152.964ZM65.2129 148.891H71.2129C71.2129 149.448 70.9806 149.929 70.6557 150.253L66.4131 146.011L62.1704 141.768C60.3689 143.57 59.2129 146.094 59.2129 148.891H65.2129ZM66.4131 146.011L70.6554 150.254C70.3167 150.592 69.8244 150.817 69.2924 150.817L69.292 144.817L69.2915 138.817C66.5081 138.818 63.986 139.953 62.1707 141.768L66.4131 146.011ZM69.292 144.817L68.0752 150.693L75.502 152.231L76.7188 146.355L77.9355 140.48L70.5088 138.942L69.292 144.817ZM76.7188 146.355H82.7188V138.874H76.7188H70.7188V146.355H76.7188ZM76.7188 138.874L79.0437 133.343C77.6995 132.778 76.4006 132.159 75.1497 131.492L72.3262 136.786L69.5026 142.08C71.0793 142.921 72.711 143.698 74.3938 144.405L76.7188 138.874ZM72.3262 136.786V130.786H54.9707V136.786V142.786H72.3262V136.786ZM54.9707 136.786H48.9707V174.423H54.9707H60.9707V136.786H54.9707ZM54.9707 174.423L50.1705 170.823L48.3375 173.267L53.1377 176.867L57.9379 180.467L59.7709 178.023L54.9707 174.423ZM53.1377 176.867H47.1377V177.396H53.1377H59.1377V176.867H53.1377ZM53.1377 177.396V171.396H52.7412V177.396V183.396H53.1377V177.396ZM52.7412 177.396L47.9226 173.82L47.8777 173.881L52.6963 177.456L57.5149 181.031L57.5598 180.971L52.7412 177.396ZM52.6963 177.456H58.6963V177.396H52.6963H46.6963V177.456H52.6963ZM52.6963 177.396V171.396H47.0508V177.396V183.396H52.6963V177.396ZM47.0508 177.396H53.0508V136.786H47.0508H41.0508V177.396H47.0508ZM47.0508 136.786V130.786H38.5654V136.786V142.786H47.0508V136.786ZM38.5654 136.786H32.5654V187.314H38.5654H44.5654V136.786H38.5654ZM38.5654 187.314L33.7652 183.715L31.5133 186.718L36.3135 190.317L41.1137 193.917L43.3656 190.914L38.5654 187.314ZM36.3135 190.317H30.3135V190.44H36.3135H42.3135V190.317H36.3135ZM36.3135 190.44V184.44H30.2266V190.44V196.44H36.3135V190.44ZM30.2266 190.44H36.2266V136.786H30.2266H24.2266V190.44H30.2266ZM30.2266 136.786V130.786H22.2031V136.786V142.786H30.2266V136.786ZM22.2031 136.786H28.2031V130.38H22.2031H16.2031V136.786H22.2031ZM22.2031 130.38V124.38H19V130.38V136.38H22.2031V130.38ZM19 130.38H25V127.176H19H13V130.38H19ZM19 127.176L23.2748 131.386L44.308 110.031L40.0332 105.82L35.7584 101.61L14.7252 122.966L19 127.176ZM40.0332 105.82V111.82H50.5928V105.82V99.8203H40.0332V105.82ZM50.5928 105.82L56.5731 105.335C56.5573 105.141 56.5454 104.989 56.536 104.847L50.5488 105.238L44.5616 105.63C44.5778 105.877 44.5968 106.113 44.6125 106.306L50.5928 105.82ZM50.5488 105.238H56.5488C56.5488 105.126 56.5457 105.023 56.5409 104.929C56.5361 104.836 56.5295 104.75 56.5223 104.674C56.508 104.523 56.4903 104.397 56.4758 104.305C56.4684 104.257 56.4614 104.216 56.4552 104.182C56.4491 104.147 56.4436 104.118 56.4392 104.096C56.4349 104.073 56.4313 104.055 56.429 104.044C56.4278 104.038 56.4269 104.034 56.4263 104.031C56.4257 104.028 56.4252 104.026 56.4252 104.025C56.4247 104.023 56.4263 104.031 56.428 104.039C56.4299 104.049 56.4332 104.065 56.4372 104.086C56.4449 104.125 56.4581 104.195 56.4721 104.282C56.4861 104.369 56.5035 104.489 56.5179 104.633C56.5323 104.776 56.5453 104.958 56.5475 105.169L50.5479 105.231L44.5482 105.293C44.5493 105.4 44.5531 105.499 44.5584 105.588C44.5637 105.677 44.5706 105.759 44.5779 105.832C44.5853 105.905 44.5932 105.971 44.6011 106.029C44.6089 106.087 44.6167 106.14 44.6239 106.185C44.6311 106.229 44.638 106.269 44.6439 106.301C44.6497 106.334 44.655 106.361 44.6591 106.382C44.6632 106.403 44.6665 106.42 44.6685 106.43C44.6703 106.438 44.6719 106.446 44.6715 106.444C44.6715 106.444 44.6714 106.444 44.6712 106.443C44.6711 106.442 44.6708 106.441 44.6705 106.439C44.6699 106.437 44.669 106.432 44.6679 106.427C44.6657 106.416 44.6621 106.398 44.6578 106.376C44.6535 106.354 44.6481 106.325 44.642 106.291C44.6359 106.257 44.6289 106.215 44.6215 106.169C44.6142 106.122 44.6062 106.068 44.5983 106.007C44.5905 105.946 44.5825 105.877 44.5753 105.801C44.5681 105.725 44.5616 105.64 44.5568 105.547C44.552 105.453 44.5488 105.35 44.5488 105.238H50.5488ZM50.5479 105.231L51.4594 99.3011C47.0128 98.6176 42.9129 96.2521 39.5432 93.5014L35.749 98.1494L31.9548 102.797C36.2364 106.293 42.2898 110.033 49.6363 111.162L50.5479 105.231ZM35.749 98.1494L39.5408 93.4994C39.375 93.3642 39.3387 93.2723 39.3179 93.2026C39.2881 93.1025 39.2467 92.8564 39.3451 92.4465C39.5486 91.5989 40.3168 90.314 42.0095 89.3789L39.1084 84.127L36.2073 78.875C31.8517 81.2809 28.7406 85.2137 27.6767 89.6452C26.5868 94.185 27.7139 99.3393 31.9573 102.799L35.749 98.1494ZM39.1084 84.127L42.0075 89.3801L66.7916 75.7024L63.8926 70.4492L60.9935 65.1961L36.2093 78.8738L39.1084 84.127ZM63.8926 70.4492L68.1352 66.2066L68.1294 66.2007L63.8867 70.4434L59.6441 74.686L59.6499 74.6919L63.8926 70.4492ZM63.8867 70.4434L66.784 75.6975C67.8155 75.1287 68.8184 74.8009 69.7358 74.6518L68.7734 68.7295L67.8111 62.8072C65.5087 63.1813 63.1997 63.9704 60.9894 65.1893L63.8867 70.4434ZM68.7734 68.7295L74.7734 68.7583C74.7795 67.4844 74.8047 63.37 74.8047 61.5029L68.8047 61.5029L62.8047 61.5029C62.8047 63.3317 62.7798 67.3828 62.7735 68.7007L68.7734 68.7295ZM68.8047 61.5029H74.8047C74.8047 44.0016 87.0076 32 101.04 32V26V20C79.4715 20 62.8047 38.3209 62.8047 61.5029H68.8047Z" fill="white" mask="url(#path-1-outside-1_1062_24348)"/>
<path d="M63.8926 70.4491L39.1085 84.1271C33.0601 87.4682 31.3496 94.5625 35.7489 98.1497C42.6156 103.755 53.5125 109.139 65.9477 102.278C76.3339 96.5499 79.8042 86.6744 80.641 78.1157C81.4347 70.0737 72.1991 65.8589 63.8864 70.4429L63.8926 70.4491Z" fill="#276286"/>
<path d="M134.2 148.89C134.2 151.13 132.367 152.963 130.127 152.963H119.415C117.716 152.963 116.332 151.579 116.332 149.887V116.162C116.332 114.464 117.716 113.08 119.415 113.08H119.618C121.316 113.08 122.7 114.464 122.7 116.162V146.349L130.127 144.817C131.241 144.817 132.262 145.272 133.007 146.011C133.739 146.749 134.2 147.764 134.2 148.89Z" fill="#474747"/>
<path d="M83.0749 116.163V149.887C83.0749 151.579 81.6905 152.964 79.9985 152.964H69.2861C67.0465 152.964 65.2129 151.13 65.2129 148.89C65.2129 147.77 65.6744 146.749 66.4127 146.011C67.1511 145.272 68.1663 144.817 69.2923 144.817L76.7189 146.355V116.163C76.7189 114.471 78.1033 113.086 79.7954 113.086H80.0046C81.6967 113.086 83.0811 114.471 83.0811 116.163H83.0749Z" fill="#474747"/>
<path d="M151.617 102.758C151.617 103.57 151.587 104.383 151.543 105.17C151.537 105.238 151.531 105.299 151.531 105.361C151.008 112.935 148.215 119.697 143.723 125.358C138.155 132.391 129.971 137.707 120.28 140.722C118.225 141.374 116.096 141.91 113.912 142.346C110.909 142.943 107.802 143.325 104.609 143.485C103.969 143.522 103.323 143.546 102.677 143.559C102.135 143.565 101.588 143.571 101.04 143.571C100.492 143.571 99.9509 143.565 99.4094 143.559C95.6438 143.472 91.9766 143.079 88.4633 142.408C86.2852 141.99 84.1562 141.46 82.1011 140.82C72.2749 137.812 63.993 132.465 58.363 125.364C58.363 125.364 58.363 125.358 58.3568 125.358C53.8529 119.673 51.0471 112.861 50.5487 105.238C50.5487 105.189 50.5426 105.127 50.5364 105.072C50.4934 104.309 50.4688 103.54 50.4688 102.758C50.4688 101.848 50.4995 100.943 50.561 100.051C51.4409 87.6281 58.3445 76.6081 68.7738 69.1261V68.7385C68.78 67.4525 68.8046 63.3546 68.8046 61.5026C68.8046 41.1609 83.2394 26 101.04 26C101.655 26 102.271 26.0123 102.88 26.0615C119.831 27.0583 133.281 41.8685 133.281 61.5026C133.281 63.7115 132.629 68.1601 132.315 68.4431C132.389 68.4862 132.457 68.5293 132.512 68.5662C133.054 68.9108 133.306 69.1261 133.306 69.1261C143.735 76.5835 150.633 87.5912 151.519 100.008C151.587 100.918 151.623 101.835 151.623 102.758H151.617Z" fill="#4B9AE8"/>
<path d="M107.181 58.3004C106.8 61.2416 103.551 66.0101 100.179 66.0347C96.8072 66.0593 93.2446 61.2231 93.0785 58.0543C92.9123 54.8917 95.2812 52.7258 100.314 52.6951C105.403 52.6643 107.563 55.3593 107.181 58.3004Z" fill="#EAC00F"/>
<path d="M117.847 58.3522C121.551 58.3522 124.554 55.3495 124.554 51.6455C124.554 47.9414 121.551 44.9387 117.847 44.9387C114.143 44.9387 111.141 47.9414 111.141 51.6455C111.141 55.3495 114.143 58.3522 117.847 58.3522Z" fill="white"/>
<path d="M117.848 55.2203C119.823 55.2203 121.423 53.6198 121.423 51.6454C121.423 49.6711 119.823 48.0706 117.848 48.0706C115.874 48.0706 114.273 49.6711 114.273 51.6454C114.273 53.6198 115.874 55.2203 117.848 55.2203Z" fill="#040000"/>
<path d="M82.6911 58.3522C86.3951 58.3522 89.3978 55.3495 89.3978 51.6455C89.3978 47.9414 86.3951 44.9387 82.6911 44.9387C78.9871 44.9387 75.9844 47.9414 75.9844 51.6455C75.9844 55.3495 78.9871 58.3522 82.6911 58.3522Z" fill="white"/>
<path d="M82.6901 55.2203C84.6645 55.2203 86.265 53.6198 86.265 51.6454C86.265 49.6711 84.6645 48.0706 82.6901 48.0706C80.7158 48.0706 79.1152 49.6711 79.1152 51.6454C79.1152 53.6198 80.7158 55.2203 82.6901 55.2203Z" fill="#040000"/>
<rect x="30.2266" y="136.522" width="6.08753" height="53.9181" fill="#E4C3A9"/>
<rect x="47.0508" y="131.014" width="6.08753" height="46.3811" fill="#E4C3A9"/>
<path d="M36.291 136.509H38.5659V187.314L36.291 190.347V136.509Z" fill="#C89873"/>
<path d="M52.6953 136.509H54.9702V174.423L52.6953 177.456V136.509Z" fill="#C89873"/>
<rect x="162.982" y="136.522" width="6.08753" height="53.9181" fill="#E4C3A9"/>
<rect x="146.002" y="131.014" width="6.08753" height="46.3811" fill="#E4C3A9"/>
<path d="M146.088 136.509H143.813V174.423L146.088 177.456V136.509Z" fill="#C89873"/>
<path d="M163.248 136.509H160.973V187.314L163.248 190.347V136.509Z" fill="#C89873"/>
<path d="M40.033 105.82H160.272L181.305 127.176H19L40.033 105.82Z" fill="#E4C3A9"/>
<rect x="19" y="127.176" width="161.237" height="3.20338" fill="#C89873"/>
<rect x="22.2031" y="130.38" width="154.83" height="6.40676" fill="#8E6748"/>
<path d="M96.4368 108.774L96.4431 108.774C96.4431 108.774 96.4593 108.797 96.4728 108.802C98.5893 110.075 100.994 111.289 103.616 112.221C103.738 112.269 103.866 112.309 103.995 112.355C104.245 112.442 104.501 112.522 104.758 112.608C105.17 112.744 105.591 112.858 106.018 112.966C106.855 113.196 107.719 113.39 108.595 113.531C110.218 113.811 111.886 113.951 113.598 113.903C115.183 113.868 116.79 113.668 118.421 113.271C120.478 112.79 122.581 111.999 124.683 110.828C125.789 110.222 126.897 109.494 128.009 108.662C130.322 106.927 132.209 105.008 133.738 102.971L133.744 102.97C135.999 99.9565 137.481 96.71 138.388 93.4026C138.387 93.3963 138.393 93.3891 138.391 93.3765C138.418 93.2954 138.444 93.208 138.464 93.1215C138.54 92.8341 138.616 92.5467 138.691 92.2593C138.696 92.2521 138.694 92.2331 138.693 92.2268C138.761 91.934 138.822 91.6357 138.89 91.3366C138.898 91.3032 138.908 91.2825 138.911 91.2564C139.57 88.016 139.739 84.7735 139.609 81.7404C139.606 81.6764 139.599 81.6195 139.596 81.5555C139.542 80.5781 139.346 79.6851 139.044 78.8586C139.034 78.8342 139.031 78.8152 139.021 78.7909C137.931 75.9312 135.449 74.0716 132.411 73.4359C130.971 73.1295 129.411 73.1104 127.815 73.3923C125.642 73.7747 123.404 74.7133 121.32 76.2805L119.159 77.9035L97.8549 93.8852C92.1305 98.1844 91.3974 105.71 96.4342 108.756L96.4368 108.774Z" fill="#276286"/>
</svg>
