<svg width="1024" height="1024" viewBox="0 0 1024 1024" fill="none" xmlns="http://www.w3.org/2000/svg">
<rect width="1024" height="1024" fill="#FE81F8"/>
<mask id="path-1-outside-1_1388_2340" maskUnits="userSpaceOnUse" x="127.72" y="107.24" width="769" height="810" fill="black">
<rect fill="white" x="127.72" y="107.24" width="769" height="810"/>
<path d="M753.59 138.24C817.888 138.24 865.29 186.287 865.29 249.94V678.559C865.29 709.325 848.57 736.188 823.724 750.562V761.684C823.724 795.387 803.662 824.408 774.829 837.455C761.787 866.301 732.76 886.374 699.047 886.374H262.636L262.482 886.373H241.846C195.94 886.373 158.72 849.153 158.72 803.247V249.94C158.72 190.194 227.549 138.24 310.03 138.24H753.59Z"/>
</mask>
<path d="M753.59 138.24C817.888 138.24 865.29 186.287 865.29 249.94V678.559C865.29 709.325 848.57 736.188 823.724 750.562V761.684C823.724 795.387 803.662 824.408 774.829 837.455C761.787 866.301 732.76 886.374 699.047 886.374H262.636L262.482 886.373H241.846C195.94 886.373 158.72 849.153 158.72 803.247V249.94C158.72 190.194 227.549 138.24 310.03 138.24H753.59Z" fill="#276288"/>
<path d="M753.59 138.24L753.59 107.52H753.59V138.24ZM865.29 678.559L896.01 678.559V678.559H865.29ZM823.724 750.562L808.341 723.97C798.849 729.461 793.004 739.596 793.004 750.562H823.724ZM823.724 761.684H854.444H823.724ZM774.829 837.455L762.164 809.467C755.362 812.545 749.913 817.996 746.837 824.799L774.829 837.455ZM699.047 886.374V917.094H699.047L699.047 886.374ZM262.636 886.374L262.44 917.093C262.505 917.094 262.571 917.094 262.636 917.094V886.374ZM262.482 886.373L262.678 855.654C262.613 855.653 262.548 855.653 262.482 855.653V886.373ZM241.846 886.373L241.846 917.093H241.846V886.373ZM753.59 138.24L753.59 168.96C800.805 168.96 834.57 203.136 834.57 249.94H865.29H896.01C896.01 169.438 834.971 107.52 753.59 107.52L753.59 138.24ZM865.29 249.94H834.57V678.559H865.29H896.01V249.94H865.29ZM865.29 678.559L834.57 678.558C834.57 697.913 824.089 714.861 808.341 723.97L823.724 750.562L839.106 777.153C873.052 757.516 896.01 720.738 896.01 678.559L865.29 678.559ZM823.724 750.562H793.004V761.684H823.724H854.444V750.562H823.724ZM823.724 761.684H793.004C793.004 782.883 780.41 801.211 762.164 809.467L774.829 837.455L787.494 865.443C826.913 847.605 854.444 807.892 854.444 761.684H823.724ZM774.829 837.455L746.837 824.799C738.584 843.053 720.251 855.654 699.047 855.654L699.047 886.374L699.047 917.094C745.268 917.094 784.99 889.548 802.821 850.111L774.829 837.455ZM699.047 886.374V855.654H262.636V886.374V917.094H699.047V886.374ZM262.636 886.374L262.831 855.655L262.678 855.654L262.482 886.373L262.287 917.092L262.44 917.093L262.636 886.374ZM262.482 886.373V855.653H241.846V886.373V917.093H262.482V886.373ZM241.846 886.373L241.846 855.653C212.906 855.653 189.44 832.187 189.44 803.247H158.72H128C128 866.12 178.973 917.093 241.846 917.093L241.846 886.373ZM158.72 803.247H189.44V249.94H158.72H128V803.247H158.72ZM158.72 249.94H189.44C189.44 232.458 199.62 212.807 221.772 196.339C243.699 180.039 275.019 168.96 310.03 168.96V138.24V107.52C262.56 107.52 218.225 122.419 185.117 147.032C152.234 171.477 128 207.676 128 249.94H158.72ZM310.03 138.24V168.96H753.59V138.24V107.52H310.03V138.24Z" fill="white" mask="url(#path-1-outside-1_1388_2340)"/>
<path d="M865.291 678.558C865.291 724.465 828.071 761.684 782.165 761.684H241.847C195.94 761.684 158.721 724.465 158.721 678.558V269.434C158.721 223.527 279.066 138.24 324.972 138.24H753.59C817.888 138.24 865.291 186.287 865.291 249.941V678.558Z" fill="#639A0A"/>
<path d="M823.724 761.684C823.724 807.59 786.505 844.809 740.599 844.809H283.406C237.5 844.809 200.28 807.59 200.28 761.684V262.928C200.28 177.329 199.844 179.802 304.188 179.802H740.599C786.505 179.802 823.724 217.022 823.724 262.928V761.684Z" fill="#C0D6EF"/>
<path d="M782.165 782.465C782.165 816.9 754.255 844.809 719.82 844.809H221.065C186.63 844.809 158.721 816.9 158.721 782.465V283.71C158.721 249.275 186.63 221.365 221.065 221.365H719.82C754.255 221.365 782.165 249.275 782.165 283.71V782.465Z" fill="#D7E8FC"/>
<path d="M782.173 803.248C782.173 849.154 744.954 886.374 699.048 886.374H262.637C216.73 886.374 179.511 849.154 179.511 803.248V346.056C179.511 300.149 216.73 262.93 262.637 262.93H699.048C744.954 262.93 782.173 300.149 782.173 346.056V803.248Z" fill="#8DD41A"/>
<path d="M740.61 803.247C740.61 849.154 703.391 886.373 657.484 886.373H262.637C216.73 886.373 179.511 849.154 179.511 803.247V387.618C179.511 341.712 216.73 304.492 262.637 304.492H664.446C710.353 304.492 740.61 334.75 740.61 380.656V803.247Z" fill="#AAF82B"/>
<mask id="path-8-outside-2_1388_2340" maskUnits="userSpaceOnUse" x="336.326" y="443" width="325" height="285" fill="black">
<rect fill="white" x="336.326" y="443" width="325" height="285"/>
<path d="M518.925 458C589.405 458 646.54 515.136 646.54 585.615C646.54 656.095 589.404 713.229 518.925 713.229C460.17 713.229 410.69 673.522 395.854 619.479C378.963 620.773 355.123 612.245 351.77 599.889C347.982 585.933 369.228 563.065 385.718 558.621C388.677 557.824 391.617 557.348 394.481 557.222C407.39 500.408 458.204 458 518.925 458Z"/>
</mask>
<path d="M518.925 458C589.405 458 646.54 515.136 646.54 585.615C646.54 656.095 589.404 713.229 518.925 713.229C460.17 713.229 410.69 673.522 395.854 619.479C378.963 620.773 355.123 612.245 351.77 599.889C347.982 585.933 369.228 563.065 385.718 558.621C388.677 557.824 391.617 557.348 394.481 557.222C407.39 500.408 458.204 458 518.925 458Z" fill="#DFB820"/>
<path d="M518.925 458V443.594V458ZM646.54 585.615L660.946 585.615V585.615H646.54ZM518.925 713.229V727.635V713.229ZM395.854 619.479L409.745 615.665L406.6 604.207L394.753 605.115L395.854 619.479ZM351.77 599.889L337.867 603.662L337.867 603.662L351.77 599.889ZM385.718 558.621L381.969 544.712L381.969 544.712L385.718 558.621ZM394.481 557.222L395.114 571.613L406.094 571.131L408.529 560.413L394.481 557.222ZM518.925 458V472.406C581.449 472.406 632.134 523.092 632.134 585.615H646.54H660.946C660.946 507.18 597.361 443.594 518.925 443.594V458ZM646.54 585.615L632.134 585.615C632.134 648.139 581.448 698.824 518.925 698.824V713.229V727.635C597.36 727.635 660.945 664.051 660.946 585.615L646.54 585.615ZM518.925 713.229V698.824C466.823 698.824 422.909 663.614 409.745 615.665L395.854 619.479L381.962 623.292C398.472 683.43 453.516 727.635 518.925 727.635V713.229ZM395.854 619.479L394.753 605.115C388.833 605.569 380.91 604.252 374.245 601.492C370.979 600.14 368.551 598.659 367.01 597.353C365.399 595.988 365.495 595.463 365.672 596.115L351.77 599.889L337.867 603.662C339.721 610.492 344.055 615.667 348.385 619.335C352.785 623.063 358.001 625.95 363.225 628.113C373.541 632.383 385.983 634.683 396.954 633.842L395.854 619.479ZM351.77 599.889L365.672 596.115C365.865 596.825 365.43 596.21 366.481 593.655C367.465 591.26 369.33 588.254 372.058 585.085C377.793 578.421 384.912 573.758 389.466 572.531L385.718 558.621L381.969 544.712C370.033 547.928 358.284 556.921 350.22 566.291C346.049 571.138 342.282 576.744 339.833 582.7C337.45 588.497 335.78 595.975 337.867 603.662L351.77 599.889ZM385.718 558.621L389.466 572.531C391.509 571.98 393.403 571.689 395.114 571.613L394.481 557.222L393.849 542.83C389.831 543.007 385.845 543.667 381.969 544.712L385.718 558.621ZM394.481 557.222L408.529 560.413C419.98 510.015 465.077 472.406 518.925 472.406V458V443.594C451.331 443.594 394.8 490.801 380.434 554.03L394.481 557.222Z" fill="white" mask="url(#path-8-outside-2_1388_2340)"/>
<path d="M518.919 713.23C589.398 713.23 646.533 656.095 646.533 585.615C646.533 515.135 589.398 458 518.919 458C448.439 458 391.304 515.135 391.304 585.615C391.304 656.095 448.439 713.23 518.919 713.23Z" fill="#55A8FA"/>
<circle cx="472.163" cy="552.216" r="33.3995" fill="white"/>
<circle cx="472.167" cy="552.215" r="20.0397" fill="#161616"/>
<circle cx="472.167" cy="552.215" r="20.0397" fill="#161616"/>
<path d="M402.008 618.472C385.482 622.921 355.56 613.845 351.772 599.889C347.984 585.933 369.23 563.065 385.72 558.621C402.21 554.178 418.105 559.681 423.745 580.475C429.463 601.513 418.499 614.028 401.972 618.477L402.008 618.472Z" fill="#FBD017"/>
<path d="M262.628 262.929C227.549 262.929 226.655 222.987 241.847 205.78C259.137 186.225 286.007 179.803 334.075 179.803H366.535V138.24H310.031C227.549 138.24 158.721 190.194 158.721 249.941V803.247C158.721 849.154 195.94 886.373 241.847 886.373H283.41V262.929H262.628Z" fill="#639A0A"/>
</svg>
