<svg width="200" height="200" viewBox="0 0 200 200" fill="none" xmlns="http://www.w3.org/2000/svg">
<mask id="path-1-outside-1_1062_19600" maskUnits="userSpaceOnUse" x="31" y="24.0001" width="139" height="153" fill="black">
<rect fill="white" x="31" y="24.0001" width="139" height="153"/>
<path d="M86.3566 30.0051C98.302 30.35 110.007 33.0641 120.606 37.9465C125.39 40.1504 129.892 42.7724 134.052 45.7619C134.108 45.8024 134.164 45.8434 134.221 45.884C134.372 45.993 134.523 46.1012 134.673 46.2112C143.25 52.4819 150.303 60.301 155.294 69.2199C160.737 78.9449 163.497 89.5661 163.48 100.245C163.497 106.244 162.65 112.24 160.939 118.083C157.731 129.047 151.58 139.166 143.008 147.582C134.436 155.999 123.693 162.466 111.693 166.435C99.692 170.404 86.786 171.758 74.0675 170.383C61.3489 169.008 49.1921 164.943 38.6281 158.534C38.0352 158.189 37.5701 157.697 37.2912 157.119C37.0818 156.686 36.9841 156.219 37.0021 155.752V155.551C37.0075 155.399 37.0257 155.247 37.0568 155.096C37.1813 154.493 37.5069 153.936 37.9923 153.495C38.478 153.055 39.1019 152.751 39.7843 152.622C45.9303 151.458 51.8861 149.74 57.5285 147.478C65.366 144.258 72.5998 139.992 78.9748 134.831C80.2761 133.745 81.5384 132.615 82.756 131.44C82.7733 131.469 82.7889 131.499 82.8058 131.529C85.7243 128.846 88.4284 125.96 90.8869 122.887C90.9419 122.821 97.6669 114.74 100.961 110.233C97.5006 108.909 93.7351 105.276 94.0128 102.341C94.3469 98.8139 100.614 95.2645 104.418 95.5842C104.809 95.6172 105.191 95.6749 105.56 95.7561C105.674 94.6665 105.743 93.6977 105.77 92.928C105.899 89.1998 105.311 71.6781 101.67 61.7922C98.0293 51.906 91.8441 42.9006 83.6017 35.4826C83.4704 35.368 83.3496 35.2452 83.2404 35.1155C82.8956 34.7219 82.6579 34.2621 82.5519 33.7707C82.415 33.1358 82.5023 32.4794 82.8019 31.8889C83.1015 31.2983 83.5997 30.8015 84.2296 30.4651C84.7827 30.1698 85.4144 30.0106 86.0587 30.0012C86.1577 29.999 86.2572 30 86.3566 30.0051Z"/>
</mask>
<path d="M86.3566 30.0051C98.302 30.35 110.007 33.0641 120.606 37.9465C125.39 40.1504 129.892 42.7724 134.052 45.7619C134.108 45.8024 134.164 45.8434 134.221 45.884C134.372 45.993 134.523 46.1012 134.673 46.2112C143.25 52.4819 150.303 60.301 155.294 69.2199C160.737 78.9449 163.497 89.5661 163.48 100.245C163.497 106.244 162.65 112.24 160.939 118.083C157.731 129.047 151.58 139.166 143.008 147.582C134.436 155.999 123.693 162.466 111.693 166.435C99.692 170.404 86.786 171.758 74.0675 170.383C61.3489 169.008 49.1921 164.943 38.6281 158.534C38.0352 158.189 37.5701 157.697 37.2912 157.119C37.0818 156.686 36.9841 156.219 37.0021 155.752V155.551C37.0075 155.399 37.0257 155.247 37.0568 155.096C37.1813 154.493 37.5069 153.936 37.9923 153.495C38.478 153.055 39.1019 152.751 39.7843 152.622C45.9303 151.458 51.8861 149.74 57.5285 147.478C65.366 144.258 72.5998 139.992 78.9748 134.831C80.2761 133.745 81.5384 132.615 82.756 131.44C82.7733 131.469 82.7889 131.499 82.8058 131.529C85.7243 128.846 88.4284 125.96 90.8869 122.887C90.9419 122.821 97.6669 114.74 100.961 110.233C97.5006 108.909 93.7351 105.276 94.0128 102.341C94.3469 98.8139 100.614 95.2645 104.418 95.5842C104.809 95.6172 105.191 95.6749 105.56 95.7561C105.674 94.6665 105.743 93.6977 105.77 92.928C105.899 89.1998 105.311 71.6781 101.67 61.7922C98.0293 51.906 91.8441 42.9006 83.6017 35.4826C83.4704 35.368 83.3496 35.2452 83.2404 35.1155C82.8956 34.7219 82.6579 34.2621 82.5519 33.7707C82.415 33.1358 82.5023 32.4794 82.8019 31.8889C83.1015 31.2983 83.5997 30.8015 84.2296 30.4651C84.7827 30.1698 85.4144 30.0106 86.0587 30.0012C86.1577 29.999 86.2572 30 86.3566 30.0051Z" fill="#D9D9D9"/>
<path d="M86.3566 30.0051L86.0518 35.9973C86.0956 35.9996 86.1395 36.0013 86.1834 36.0026L86.3566 30.0051ZM120.606 37.9465L123.116 32.497L123.116 32.4969L120.606 37.9465ZM134.052 45.7619L130.55 50.6343L130.558 50.6397L134.052 45.7619ZM134.221 45.884L137.735 41.0209L137.728 41.0155L134.221 45.884ZM134.673 46.2112L131.124 51.0491L131.132 51.0547L134.673 46.2112ZM155.294 69.2199L160.53 66.2897L160.53 66.2897L155.294 69.2199ZM163.48 100.245L157.48 100.235C157.48 100.245 157.48 100.254 157.48 100.263L163.48 100.245ZM160.939 118.083L155.18 116.397L155.18 116.398L160.939 118.083ZM143.008 147.582L147.212 151.864L147.212 151.864L143.008 147.582ZM111.693 166.435L113.577 172.131L113.577 172.131L111.693 166.435ZM74.0675 170.383L73.4225 176.348L73.4226 176.348L74.0675 170.383ZM38.6281 158.534L41.7402 153.405C41.7106 153.387 41.6809 153.369 41.651 153.352L38.6281 158.534ZM37.2912 157.119L31.8888 159.73L31.8888 159.73L37.2912 157.119ZM37.0021 155.752L42.9976 155.984C43.0006 155.906 43.0021 155.829 43.0021 155.752H37.0021ZM37.0021 155.551L31.0059 155.337C31.0034 155.408 31.0021 155.48 31.0021 155.551H37.0021ZM37.0568 155.096L31.1807 153.883L31.1806 153.884L37.0568 155.096ZM37.9923 153.495L33.9617 149.051L33.9611 149.051L37.9923 153.495ZM39.7843 152.622L40.8933 158.519L40.9014 158.517L39.7843 152.622ZM57.5285 147.478L59.7615 153.047C59.7771 153.04 59.7927 153.034 59.8083 153.028L57.5285 147.478ZM78.9748 134.831L82.75 139.495C82.7735 139.476 82.7968 139.457 82.8199 139.437L78.9748 134.831ZM82.756 131.44L87.9224 128.389C86.9886 126.807 85.3821 125.741 83.5623 125.494C81.7426 125.247 79.9101 125.847 78.5889 127.123L82.756 131.44ZM82.8058 131.529L77.6051 134.521C78.514 136.1 80.0917 137.181 81.893 137.459C83.6944 137.736 85.5242 137.179 86.8661 135.946L82.8058 131.529ZM90.8869 122.887L86.2758 119.048C86.2508 119.078 86.2261 119.108 86.2017 119.139L90.8869 122.887ZM100.961 110.233L105.805 113.773C106.908 112.263 107.245 110.326 106.715 108.533C106.186 106.74 104.851 105.296 103.104 104.628L100.961 110.233ZM94.0128 102.341L88.0396 101.775L88.0396 101.776L94.0128 102.341ZM104.418 95.5842L104.922 89.6054L104.921 89.6053L104.418 95.5842ZM105.56 95.7561L104.27 101.616C105.939 101.983 107.685 101.621 109.07 100.622C110.456 99.6222 111.349 98.0793 111.527 96.3801L105.56 95.7561ZM105.77 92.928L111.766 93.1368L111.766 93.1366L105.77 92.928ZM101.67 61.7922L107.3 59.7188L107.3 59.7188L101.67 61.7922ZM83.6017 35.4826L87.6154 31.0228C87.5926 31.0022 87.5695 30.9818 87.5464 30.9616L83.6017 35.4826ZM83.2404 35.1155L87.83 31.2508C87.8048 31.2209 87.7792 31.1911 87.7534 31.1616L83.2404 35.1155ZM82.5519 33.7707L76.6868 35.0357L76.6869 35.0362L82.5519 33.7707ZM82.8019 31.8889L77.4512 29.1742L77.4512 29.1742L82.8019 31.8889ZM84.2296 30.4651L81.4035 25.1724L81.4029 25.1727L84.2296 30.4651ZM86.0587 30.0012L86.146 36.0006C86.1605 36.0003 86.175 36.0001 86.1896 35.9998L86.0587 30.0012ZM86.3566 30.0051L86.1834 36.0026C97.3408 36.3248 108.249 38.8602 118.095 43.3961L120.606 37.9465L123.116 32.4969C111.765 27.2681 99.2633 24.3753 86.5298 24.0076L86.3566 30.0051ZM120.606 37.9465L118.095 43.3961C122.536 45.442 126.706 47.8716 130.55 50.6343L134.052 45.7619L137.553 40.8896C133.078 37.6733 128.243 34.8589 123.116 32.497L120.606 37.9465ZM134.052 45.7619L130.558 50.6397C130.626 50.6885 130.592 50.6644 130.714 50.7525L134.221 45.884L137.728 41.0155C137.708 41.0017 137.69 40.9882 137.657 40.9645C137.628 40.9435 137.589 40.9148 137.546 40.8842L134.052 45.7619ZM134.221 45.884L130.706 50.7471C130.893 50.8818 130.996 50.9554 131.124 51.0491L134.673 46.2112L138.222 41.3732C138.05 41.247 137.85 41.1042 137.735 41.021L134.221 45.884ZM134.673 46.2112L131.132 51.0547C139.058 56.8495 145.514 64.0303 150.058 72.1502L155.294 69.2199L160.53 66.2897C155.091 56.5717 147.442 48.1142 138.214 41.3676L134.673 46.2112ZM155.294 69.2199L150.058 72.1502C155.009 80.9967 157.496 90.6081 157.48 100.235L163.48 100.245L169.48 100.255C169.499 88.5241 166.464 76.8931 160.53 66.2897L155.294 69.2199ZM163.48 100.245L157.48 100.263C157.496 105.683 156.73 111.105 155.18 116.397L160.939 118.083L166.697 119.769C168.569 113.375 169.499 106.806 169.48 100.228L163.48 100.245ZM160.939 118.083L155.18 116.398C152.275 126.326 146.684 135.564 138.804 143.301L143.008 147.582L147.212 151.864C156.476 142.767 163.186 131.767 166.697 119.768L160.939 118.083ZM143.008 147.582L138.804 143.301C130.921 151.041 120.985 157.042 109.809 160.738L111.693 166.435L113.577 172.131C126.402 167.89 137.95 160.957 147.212 151.864L143.008 147.582ZM111.693 166.435L109.809 160.738C98.6321 164.435 86.589 165.702 74.7125 164.418L74.0675 170.383L73.4226 176.348C86.983 177.814 100.752 176.373 113.577 172.131L111.693 166.435ZM74.0675 170.383L74.7125 164.418C62.8358 163.134 51.5262 159.341 41.7402 153.405L38.6281 158.534L35.516 163.664C46.8581 170.545 59.8619 174.882 73.4225 176.348L74.0675 170.383ZM38.6281 158.534L41.651 153.352C42.0113 153.562 42.4149 153.932 42.6935 154.509L37.2912 157.119L31.8888 159.73C32.7254 161.461 34.0592 162.816 35.6051 163.717L38.6281 158.534ZM37.2912 157.119L42.6936 154.509C42.9041 154.945 43.0182 155.452 42.9976 155.984L37.0021 155.752L31.0066 155.521C30.95 156.986 31.2596 158.428 31.8888 159.73L37.2912 157.119ZM37.0021 155.752H43.0021V155.551H37.0021H31.0021V155.752H37.0021ZM37.0021 155.551L42.9983 155.765C42.9918 155.947 42.9702 156.128 42.933 156.308L37.0568 155.096L31.1806 153.884C31.0812 154.365 31.0233 154.851 31.0059 155.337L37.0021 155.551ZM37.0568 155.096L42.9329 156.309C42.7834 157.033 42.4157 157.584 42.0236 157.939L37.9923 153.495L33.9611 149.051C32.5981 150.288 31.5792 151.952 31.1807 153.883L37.0568 155.096ZM37.9923 153.495L42.023 157.94C41.6402 158.287 41.2356 158.455 40.8933 158.519L39.7843 152.622L38.6754 146.726C36.9682 147.047 35.3157 147.823 33.9617 149.051L37.9923 153.495ZM39.7843 152.622L40.9014 158.517C47.4092 157.284 53.7404 155.461 59.7615 153.047L57.5285 147.478L55.2955 141.909C50.0319 144.019 44.4514 145.631 38.6673 146.727L39.7843 152.622ZM57.5285 147.478L59.8083 153.028C68.1671 149.594 75.9077 145.034 82.75 139.495L78.9748 134.831L75.1995 130.168C69.2919 134.95 62.5649 138.922 55.2487 141.928L57.5285 147.478ZM78.9748 134.831L82.8199 139.437C84.2269 138.263 85.597 137.037 86.9232 135.756L82.756 131.44L78.5889 127.123C77.4797 128.194 76.3253 129.227 75.1296 130.225L78.9748 134.831ZM82.756 131.44L77.5896 134.491C77.5657 134.45 77.5473 134.418 77.5367 134.399C77.5313 134.389 77.5272 134.382 77.5249 134.378C77.5227 134.374 77.5214 134.371 77.5223 134.373C77.5228 134.374 77.5233 134.375 77.5245 134.377C77.5255 134.379 77.5272 134.382 77.529 134.385C77.5325 134.392 77.5382 134.402 77.5448 134.414C77.5579 134.437 77.579 134.475 77.6051 134.521L82.8058 131.529L88.0065 128.536C88.0242 128.567 88.037 128.59 88.0418 128.599C88.0445 128.604 88.0493 128.612 88.0397 128.595C88.034 128.585 88.0189 128.557 88.0006 128.525C87.9817 128.491 87.955 128.444 87.9224 128.389L82.756 131.44ZM82.8058 131.529L86.8661 135.946C90.0037 133.062 92.9177 129.953 95.572 126.635L90.8869 122.887L86.2017 119.139C83.9392 121.967 81.4449 124.63 78.7456 127.111L82.8058 131.529ZM90.8869 122.887L95.498 126.726C95.5136 126.707 102.375 118.466 105.805 113.773L100.961 110.233L96.1169 106.692C94.5668 108.813 92.1462 111.858 90.0473 114.448C89.01 115.729 88.0719 116.873 87.3898 117.701C87.0489 118.115 86.7724 118.449 86.58 118.681C86.4839 118.797 86.4087 118.888 86.3571 118.95C86.3313 118.981 86.3114 119.005 86.2977 119.022C86.2908 119.03 86.2855 119.036 86.2818 119.041C86.28 119.043 86.2785 119.045 86.2775 119.046C86.277 119.047 86.2765 119.047 86.2762 119.047C86.2761 119.048 86.276 119.048 86.2759 119.048C86.2758 119.048 86.2758 119.048 86.2758 119.048L90.8869 122.887ZM100.961 110.233L103.104 104.628C102.286 104.316 101.236 103.62 100.48 102.806C100.119 102.418 99.9588 102.145 99.9133 102.05C99.861 101.94 100.047 102.262 99.9861 102.906L94.0128 102.341L88.0396 101.776C87.6557 105.83 89.9703 109.126 91.6906 110.976C93.6124 113.044 96.1754 114.826 98.8179 115.837L100.961 110.233ZM94.0128 102.341L99.9861 102.907C99.915 103.657 99.6038 103.89 99.8334 103.618C100.027 103.388 100.433 103.017 101.069 102.624C101.69 102.24 102.368 101.936 102.98 101.75C103.635 101.55 103.949 101.566 103.916 101.563L104.418 95.5842L104.921 89.6053C101.278 89.2991 97.4661 90.7432 94.7594 92.4164C93.3113 93.3116 91.85 94.4692 90.6559 95.8866C89.4976 97.2616 88.2777 99.261 88.0396 101.775L94.0128 102.341ZM104.418 95.5842L103.915 101.563C104.047 101.574 104.166 101.593 104.27 101.616L105.56 95.7561L106.849 89.8963C106.216 89.757 105.572 89.6601 104.922 89.6054L104.418 95.5842ZM105.56 95.7561L111.527 96.3801C111.652 95.1852 111.733 94.0746 111.766 93.1368L105.77 92.928L99.7733 92.7192C99.7524 93.3208 99.6952 94.1477 99.5923 95.132L105.56 95.7561ZM105.77 92.928L111.766 93.1366C111.843 90.9385 111.709 85.3528 111.106 79.0938C110.51 72.909 109.399 65.4187 107.3 59.7188L101.67 61.7922L96.0397 63.8656C97.5813 68.0516 98.5852 74.2651 99.1614 80.2447C99.7304 86.15 99.8266 91.1892 99.7733 92.7193L105.77 92.928ZM101.67 61.7922L107.3 59.7188C103.305 48.8689 96.5431 39.0575 87.6154 31.0228L83.6017 35.4826L79.588 39.9425C87.1452 46.7438 92.7539 54.9431 96.0397 63.8657L101.67 61.7922ZM83.6017 35.4826L87.5464 30.9616C87.6429 31.0459 87.7384 31.142 87.83 31.2508L83.2404 35.1155L78.6507 38.9801C78.9609 39.3484 79.2978 39.6902 79.6571 40.0037L83.6017 35.4826ZM83.2404 35.1155L87.7534 31.1616C88.035 31.483 88.2939 31.935 88.4169 32.5052L82.5519 33.7707L76.6869 35.0362C77.022 36.5893 77.7562 37.9608 78.7274 39.0693L83.2404 35.1155ZM82.5519 33.7707L88.4171 32.5058C88.5769 33.2467 88.4623 33.9932 88.1527 34.6036L82.8019 31.8889L77.4512 29.1742C76.5423 30.9656 76.2531 33.0248 76.6868 35.0357L82.5519 33.7707ZM82.8019 31.8889L88.1526 34.6036C87.851 35.1982 87.4226 35.5619 87.0564 35.7575L84.2296 30.4651L81.4029 25.1727C79.7769 26.0411 78.3521 27.3984 77.4512 29.1742L82.8019 31.8889ZM84.2296 30.4651L87.0558 35.7578C86.7327 35.9303 86.4203 35.9966 86.146 36.0006L86.0587 30.0012L85.9715 24.0018C84.4084 24.0246 82.8326 24.4092 81.4035 25.1724L84.2296 30.4651ZM86.0587 30.0012L86.1896 35.9998C86.161 36.0004 86.1141 36.0005 86.0518 35.9973L86.3566 30.0051L86.6614 24.0128C86.4003 23.9996 86.1545 23.9977 85.9279 24.0026L86.0587 30.0012Z" fill="white" mask="url(#path-1-outside-1_1062_19600)"/>
<path d="M160.938 118.083C163.933 107.857 164.287 97.1671 161.976 86.8037C159.665 76.4403 154.747 66.6688 147.585 58.2119C140.424 49.755 131.204 42.8292 120.605 37.9469C110.007 33.0645 98.3017 30.3505 86.3563 30.0055C85.621 29.9681 84.8902 30.1296 84.2614 30.4685C83.6325 30.8073 83.1355 31.3075 82.8363 31.9023C82.5372 32.4971 82.4502 33.1583 82.587 33.7979C82.7238 34.4375 83.0779 35.0251 83.602 35.4824C91.8444 42.9004 98.0289 51.9061 101.67 61.7923C105.31 71.6785 105.899 89.2011 105.77 92.9284C105.64 96.6558 104.585 105.048 101.67 109.243C98.7542 113.438 90.8863 122.887 90.8863 122.887C78.69 138.132 60.4706 148.783 39.824 152.738C39.1311 152.876 38.4995 153.192 38.0079 153.645C37.5163 154.098 37.1862 154.669 37.0588 155.287C36.9313 155.905 37.0122 156.542 37.2912 157.119C37.5702 157.697 38.0351 158.189 38.6281 158.535C49.1921 164.944 61.3484 169.008 74.067 170.383C86.7857 171.758 99.692 170.404 111.693 166.435C123.693 162.466 134.435 155.999 143.007 147.582C151.58 139.166 157.73 129.047 160.938 118.083Z" fill="#4B9AE8"/>
<path d="M115.369 35.7613C106.182 32.2756 96.3329 30.3236 86.328 30.0055C85.5914 29.9684 84.8595 30.1287 84.2296 30.4651C83.5997 30.8016 83.1018 31.2981 82.8021 31.8887C82.5025 32.4793 82.4154 33.1358 82.5524 33.7708C82.6894 34.4059 83.0441 34.9892 83.5691 35.4433C85.7931 37.4525 87.878 39.5762 89.8129 41.8032C100.234 42.7699 110.335 45.5295 119.536 49.9239C128.738 54.3182 136.858 60.2607 143.431 67.4105C150.004 74.5604 154.902 82.7767 157.842 91.5883C160.782 100.4 161.707 109.633 160.564 118.759C160.564 118.282 160.89 117.837 161.035 117.36C165.692 101.224 163.657 84.1641 155.294 69.22C146.931 54.276 132.782 42.4188 115.369 35.7613Z" fill="#87BFF2"/>
<path d="M146.68 116.315C146.161 117.873 145.193 119.244 143.897 120.253C142.6 121.263 141.035 121.866 139.396 121.986C137.758 122.107 136.121 121.741 134.69 120.932C133.26 120.124 132.101 118.911 131.359 117.445C130.618 115.979 130.326 114.327 130.522 112.696C130.718 111.065 131.392 109.528 132.46 108.28C133.528 107.031 134.941 106.127 136.522 105.68C138.103 105.234 139.781 105.265 141.344 105.77C142.389 106.108 143.357 106.65 144.192 107.364C145.027 108.078 145.713 108.951 146.209 109.931C146.705 110.911 147.002 111.98 147.083 113.076C147.163 114.171 147.026 115.272 146.68 116.315Z" fill="#8AC1F3"/>
<path d="M82.7556 131.44C71.3996 142.402 56.2742 149.498 39.7841 152.622C39.1017 152.751 38.4781 153.054 37.9924 153.495C37.5068 153.935 37.181 154.493 37.0565 155.096C36.932 155.7 37.0143 156.322 37.2931 156.884C37.5719 157.446 38.0345 157.923 38.6222 158.254C40.8891 159.625 43.2399 160.885 45.664 162.029C59.466 157.016 71.6131 147.208 79.1126 141.545C84.6757 137.306 84.1992 133.884 82.7556 131.44Z" fill="#87BFF2"/>
<path d="M123.431 99.5962C128.639 99.5962 132.861 95.4333 132.861 90.2981C132.861 85.1629 128.639 81 123.431 81C118.222 81 114 85.1629 114 90.2981C114 95.4333 118.222 99.5962 123.431 99.5962Z" fill="white"/>
<path d="M123.057 95.2733C125.898 95.2733 128.201 93.0044 128.201 90.2056C128.201 87.4067 125.898 85.1378 123.057 85.1378C120.217 85.1378 117.914 87.4067 117.914 90.2056C117.914 93.0044 120.217 95.2733 123.057 95.2733Z" fill="black"/>
<path d="M102.984 110.729C99.1853 110.409 93.6785 105.868 94.0125 102.341C94.3466 98.8135 100.615 95.2639 104.418 95.584C108.217 95.9039 111.084 98.4725 110.586 103.739C110.088 109.006 106.788 111.054 102.984 110.734L102.984 110.729Z" fill="#EAC00F"/>
</svg>
