<svg width="200" height="200" viewBox="0 0 200 200" fill="none" xmlns="http://www.w3.org/2000/svg">
<mask id="path-1-outside-1_1347_4840" maskUnits="userSpaceOnUse" x="16.8967" y="16.8965" width="166" height="166" fill="black">
<rect fill="white" x="16.8967" y="16.8965" width="166" height="166"/>
<path d="M94.135 25.2402C97.2592 22.1161 102.324 22.116 105.448 25.2402L174.343 94.1348C177.467 97.259 177.467 102.324 174.343 105.448L105.448 174.343C102.324 177.467 97.2592 177.467 94.135 174.343L25.2405 105.448C22.1163 102.324 22.1163 97.259 25.2405 94.1348L94.135 25.2402Z"/>
</mask>
<path d="M94.135 25.2402C97.2592 22.1161 102.324 22.116 105.448 25.2402L174.343 94.1348C177.467 97.259 177.467 102.324 174.343 105.448L105.448 174.343C102.324 177.467 97.2592 177.467 94.135 174.343L25.2405 105.448C22.1163 102.324 22.1163 97.259 25.2405 94.1348L94.135 25.2402Z" fill="#5E5E5E"/>
<path d="M94.135 25.2402L89.8924 20.9976L89.8924 20.9976L94.135 25.2402ZM105.448 25.2402L101.206 29.4829L105.448 25.2402ZM174.343 94.1348L178.586 89.8922L178.586 89.8921L174.343 94.1348ZM174.343 105.448L178.586 109.691L178.586 109.691L174.343 105.448ZM105.448 174.343L109.691 178.585L105.448 174.343ZM94.135 174.343L89.8924 178.585L89.8925 178.586L94.135 174.343ZM25.2405 105.448L20.9978 109.691H20.9978L25.2405 105.448ZM25.2405 94.1348L20.9978 89.8921L20.9978 89.8921L25.2405 94.1348ZM94.135 25.2402L98.3776 29.4829C99.1587 28.7018 100.425 28.7018 101.206 29.4829L105.448 25.2402L109.691 20.9976C104.224 15.5302 95.3597 15.5303 89.8924 20.9976L94.135 25.2402ZM105.448 25.2402L101.206 29.4829L170.1 98.3774L174.343 94.1348L178.586 89.8921L109.691 20.9976L105.448 25.2402ZM174.343 94.1348L170.1 98.3773C170.881 99.1585 170.881 100.425 170.1 101.206L174.343 105.448L178.586 109.691C184.053 104.223 184.053 95.3595 178.586 89.8922L174.343 94.1348ZM174.343 105.448L170.1 101.206L101.206 170.1L105.448 174.343L109.691 178.585L178.586 109.691L174.343 105.448ZM105.448 174.343L101.206 170.1C100.425 170.881 99.1587 170.881 98.3775 170.1L94.135 174.343L89.8925 178.586C95.3597 184.052 104.224 184.053 109.691 178.585L105.448 174.343ZM94.135 174.343L98.3776 170.1L29.4831 101.206L25.2405 105.448L20.9978 109.691L89.8924 178.585L94.135 174.343ZM25.2405 105.448L29.4831 101.206C28.7021 100.425 28.7021 99.1585 29.4831 98.3774L25.2405 94.1348L20.9978 89.8921C15.5305 95.3595 15.5305 104.224 20.9978 109.691L25.2405 105.448ZM25.2405 94.1348L29.4831 98.3774L98.3776 29.4829L94.135 25.2402L89.8924 20.9976L20.9978 89.8921L25.2405 94.1348Z" fill="white" mask="url(#path-1-outside-1_1347_4840)"/>
<path d="M94.1348 25.2408C97.259 22.1166 102.324 22.1166 105.449 25.2408L174.343 94.1353C177.467 97.2595 177.467 102.325 174.343 105.449L105.449 174.344C102.324 177.468 97.259 177.468 94.1348 174.344L25.2403 105.449C22.1162 102.325 22.1162 97.2595 25.2404 94.1353L94.1348 25.2408Z" fill="#FAB80C"/>
<path d="M95.7574 32.2426C98.1005 29.8995 101.899 29.8995 104.243 32.2426L167.757 95.7574C170.101 98.1005 170.101 101.899 167.757 104.243L104.243 167.757C101.899 170.101 98.1005 170.101 95.7574 167.757L32.2426 104.243C29.8995 101.899 29.8995 98.1005 32.2426 95.7574L95.7574 32.2426Z" stroke="#262728" stroke-width="3" stroke-linecap="round" stroke-linejoin="round"/>
<path d="M91.6142 132.312C92.1912 132.278 92.7328 132.023 93.1261 131.6C93.5193 131.176 93.7336 130.617 93.7243 130.04L93.3023 117.964C93.2521 117.345 93.0143 116.756 92.6206 116.275L87.5564 110.822C87.7736 110.374 87.9475 109.907 88.0758 109.426L88.6602 106.667L92.4907 109.393C92.7164 109.676 93.0036 109.903 93.3305 110.057C93.6574 110.211 94.0152 110.289 94.3767 110.284C94.7381 110.278 95.0935 110.19 95.4158 110.027C95.738 109.863 96.0185 109.628 96.2358 109.339C96.4531 109.05 96.6014 108.715 96.6694 108.36C96.7374 108.005 96.7233 107.639 96.6282 107.29C96.5331 106.942 96.3594 106.619 96.1205 106.348C95.8817 106.077 95.5839 105.864 95.25 105.725L89.7963 101.765L91.1273 95.6294C91.304 94.8977 91.3318 94.1379 91.2091 93.3953C91.0863 92.6526 90.8155 91.9422 90.4127 91.3062C90.01 90.6703 89.4835 90.1218 88.8645 89.6934C88.2456 89.265 87.5468 88.9654 86.8098 88.8124L85.8684 88.6176C84.657 88.3505 83.3914 88.4873 82.2651 89.0071L73.0133 94.0713C72.5088 94.3876 72.13 94.8696 71.9421 95.4347L69.1178 103.453C68.9762 103.998 69.0453 104.577 69.3113 105.073C69.5773 105.57 70.0207 105.948 70.5531 106.133C71.0855 106.317 71.6678 106.294 72.184 106.068C72.7001 105.842 73.1121 105.43 73.3379 104.914L75.8051 97.8369L78.4345 96.4085L76.1297 106.829C75.9174 107.715 75.9174 108.638 76.1297 109.523L75.1234 117.509C74.8637 118.093 70.6436 128.481 70.4163 129.066C70.2991 129.351 70.2393 129.657 70.2403 129.966C70.2413 130.275 70.3031 130.58 70.4221 130.865C70.5412 131.15 70.7152 131.409 70.9342 131.626C71.1532 131.844 71.413 132.016 71.6986 132.133C71.9842 132.251 72.2901 132.31 72.5989 132.309C72.9076 132.308 73.2131 132.247 73.498 132.128C73.7829 132.008 74.0415 131.834 74.2591 131.615C74.4767 131.396 74.649 131.137 74.7663 130.851L79.4409 119.294L79.6681 118.515L80.3173 113.484C81.2801 113.796 82.3016 113.885 83.3039 113.743C83.7908 114.295 88.368 119.23 88.8874 119.749L89.2445 130.202C89.2522 130.499 89.3207 130.792 89.4459 131.061C89.5711 131.331 89.7503 131.572 89.9724 131.77C90.1945 131.968 90.4548 132.118 90.7372 132.211C91.0196 132.304 91.3181 132.339 91.6142 132.312Z" fill="#262728"/>
<path d="M128.62 98.7778L120.018 92.7399L121.219 87.1888C121.41 86.391 121.439 85.563 121.305 84.7538C121.17 83.9445 120.875 83.1705 120.436 82.4774C119.997 81.7843 119.424 81.1863 118.75 80.7187C118.076 80.251 117.315 79.9233 116.512 79.7549C113.266 79.0407 111.707 80.6963 102.618 85.6955C102.262 85.9008 101.952 86.1765 101.706 86.5059C101.461 86.8352 101.285 87.2112 101.19 87.6108L97.9434 96.6353C97.7135 97.3364 97.767 98.0996 98.0925 98.7616C98.418 99.4237 98.9897 99.9322 99.6853 100.178C100.381 100.424 101.145 100.388 101.814 100.078C102.484 99.7677 103.005 99.2079 103.267 98.5181L106.027 90.5649L107.974 89.4936L106.286 97.0898L99.177 112.217C98.9779 112.579 98.8841 112.989 98.9063 113.401C98.9284 113.813 99.0655 114.21 99.3021 114.548C99.5387 114.886 99.8653 115.151 100.245 115.313C100.624 115.475 101.042 115.527 101.449 115.463L103.689 115.301L103.332 117.931V118.58L99.177 128.838C99.0469 129.164 98.9824 129.513 98.9871 129.864C98.9918 130.215 99.0656 130.561 99.2042 130.884C99.3429 131.207 99.5437 131.499 99.7953 131.744C100.047 131.988 100.344 132.181 100.67 132.311C100.996 132.441 101.345 132.506 101.696 132.501C102.047 132.497 102.394 132.423 102.716 132.284C103.039 132.146 103.331 131.945 103.576 131.693C103.821 131.442 104.014 131.144 104.144 130.818L108.266 120.593L108.753 118.612L109.24 114.879L117.064 114.295L121.868 119.456L122.225 130.072C122.234 130.403 122.308 130.729 122.443 131.031C122.579 131.333 122.773 131.606 123.014 131.832C123.256 132.059 123.54 132.235 123.851 132.351C124.161 132.466 124.491 132.519 124.822 132.506C125.491 132.473 126.12 132.179 126.575 131.687C127.03 131.196 127.275 130.546 127.257 129.877L126.867 118.125C126.776 117.429 126.482 116.774 126.023 116.243L123.751 113.775C124.112 113.771 124.466 113.678 124.782 113.505C125.099 113.332 125.368 113.085 125.567 112.784C125.765 112.482 125.887 112.137 125.921 111.778C125.956 111.419 125.902 111.057 125.764 110.724L121.316 100.823L125.342 103.712C125.967 104.16 126.744 104.343 127.504 104.221C128.264 104.1 128.945 103.684 129.399 103.063C129.647 102.737 129.824 102.362 129.919 101.964C130.014 101.566 130.026 101.152 129.952 100.749C129.879 100.346 129.723 99.9627 129.494 99.6234C129.264 99.2841 128.967 98.9961 128.62 98.7778Z" fill="#262728"/>
<path d="M89.7463 87.668C85.0769 88.9192 80.2773 86.1482 79.0262 81.4788C77.775 76.8093 80.546 72.0098 85.2154 70.7586C89.8849 69.5074 94.6844 72.2785 95.9356 76.9479C97.1868 81.6173 94.4157 86.4169 89.7463 87.668Z" fill="#262728"/>
<circle cx="2.29084" cy="2.29084" r="2.29084" transform="matrix(-0.965926 0.258819 0.258819 0.965926 91.6055 73.3643)" fill="white"/>
<circle cx="1.3745" cy="1.3745" r="1.3745" transform="matrix(-0.965926 0.258819 0.258819 0.965926 90.9573 74.4863)" fill="#161616"/>
<circle cx="1.3745" cy="1.3745" r="1.3745" transform="matrix(-0.965926 0.258819 0.258819 0.965926 90.9573 74.4863)" fill="#262728"/>
<path d="M95.8099 79.3138C96.9838 79.3152 98.8051 78.1827 98.8083 77.1908C98.8115 76.199 96.9979 75.0611 95.8266 75.0594C94.6552 75.0577 93.6999 75.7045 93.6953 77.1823C93.69 78.6776 94.6385 79.3121 95.8124 79.3135L95.8099 79.3138Z" fill="#5E5E5E"/>
<path d="M117.829 79.1314C113.005 79.4418 108.843 75.7826 108.533 70.9584C108.222 66.1343 111.881 61.9719 116.706 61.6616C121.53 61.3512 125.692 65.0104 126.002 69.8345C126.313 74.6587 122.654 78.821 117.829 79.1314Z" fill="#262728"/>
<circle cx="2.29084" cy="2.29084" r="2.29084" transform="matrix(-0.997937 0.0642018 0.0642018 0.997937 122.46 65.4717)" fill="white"/>
<circle cx="1.3745" cy="1.3745" r="1.3745" transform="matrix(-0.997937 0.0642018 0.0642018 0.997937 121.604 66.4443)" fill="#161616"/>
<circle cx="1.3745" cy="1.3745" r="1.3745" transform="matrix(-0.997937 0.0642018 0.0642018 0.997937 121.604 66.4443)" fill="#262728"/>
<path d="M125.415 72.1311C126.565 72.3629 128.574 71.6099 128.771 70.6379C128.969 69.666 127.414 68.1943 126.266 67.9628C125.118 67.7312 124.054 68.1779 123.76 69.626C123.461 71.0912 124.266 71.8995 125.417 72.1313L125.415 72.1311Z" fill="#5E5E5E"/>
</svg>
