<svg width="200" height="200" viewBox="0 0 200 200" fill="none" xmlns="http://www.w3.org/2000/svg">
<mask id="path-1-outside-1_1347_10958" maskUnits="userSpaceOnUse" x="21.9971" y="20.1172" width="157" height="161" fill="black">
<rect fill="white" x="21.9971" y="20.1172" width="157" height="161"/>
<path d="M38.8604 26.7002C39.0103 26.0804 40.5942 25.9309 42.3975 26.3672C44.2005 26.8034 45.5401 27.6595 45.3906 28.2793H45.3896L45.3936 28.2803L43.7236 39.417C45.7762 39.6909 47.966 40.0993 50.2197 40.6445C55.3122 41.8766 59.7954 43.5803 62.9277 45.3477C64.4914 46.23 65.739 47.1398 66.5557 48.0293C67.3608 48.9063 67.8189 49.8456 67.5986 50.7559C67.3784 51.6661 66.5417 52.2921 65.4248 52.7041C65.0871 52.8287 64.7138 52.9343 64.3096 53.0273C64.1237 53.5259 63.9021 54.1226 63.6689 54.7295C63.3738 55.4977 63.0631 56.2871 62.7969 56.9219C62.6639 57.2389 62.5403 57.5213 62.4346 57.7441C62.3356 57.9526 62.2349 58.1482 62.1455 58.2607C62.0773 58.3464 61.9852 58.4148 61.9014 58.4678C61.8871 58.4768 61.8716 58.4842 61.8564 58.4932C61.8537 58.5003 61.8513 58.5075 61.8486 58.5146C60.4439 62.2062 58.5671 67.1305 56.6777 72.0586C56.4919 72.5433 56.3038 73.0271 56.1182 73.5107L61.6641 76.6172C61.8077 73.427 67.0253 69.4316 70.6748 69.0586C70.8725 69.038 71.069 69.0252 71.2637 69.0166C75.7039 55.8716 87.1033 47.0461 100.464 47.0459C103.153 47.0459 105.763 47.4028 108.253 48.0811C108.25 48.0779 108.249 48.076 108.248 48.0752C114.078 49.5644 118.477 52.8213 121.368 55.6553C121.412 55.6978 121.455 55.7404 121.498 55.7832C121.62 55.9045 121.74 56.0251 121.856 56.1445C121.945 56.235 122.033 56.3264 122.12 56.418C122.218 56.5201 122.314 56.6204 122.407 56.7207C122.472 56.7903 122.536 56.8604 122.601 56.9307C122.633 56.9664 122.665 57.0026 122.697 57.0381C122.881 57.2403 123.062 57.4449 123.24 57.6523C123.252 57.666 123.264 57.6797 123.275 57.6934C128.471 63.7504 131.651 71.9957 131.651 81.3838C131.651 81.6742 131.639 82.0041 131.618 82.3584C131.543 84.3934 131.228 86.3755 130.816 88.1641C130.85 88.185 130.882 88.2065 130.913 88.2266C132.785 88.5272 134.713 89.1743 136.598 90.2158H136.604L165.267 106.032C172.264 109.892 174.239 118.1 169.147 122.252C169.146 122.253 169.145 122.253 169.144 122.254C169.15 122.252 169.154 122.252 169.154 122.252C169.154 122.252 166.865 124.479 162.143 126.966C161.979 127.054 161.814 127.141 161.647 127.227C161.625 127.238 161.602 127.25 161.579 127.262C161.257 127.427 160.932 127.588 160.603 127.745C160.583 127.755 160.564 127.765 160.544 127.774C160.522 127.785 160.499 127.794 160.477 127.805C160.407 127.837 160.338 127.87 160.269 127.902C160.16 127.953 160.051 128.003 159.94 128.053C156.373 129.663 152.392 130.736 148.104 130.757C146.835 135.313 144.66 139.477 141.743 143.153C140.268 145.015 138.602 146.751 136.77 148.354C131.155 153.646 123.257 158.114 112.295 159.854V171.397C112.295 173.032 110.953 174.375 109.318 174.375H98.9551C96.785 174.375 95.0117 172.601 95.0117 170.431C95.0118 169.346 95.4566 168.365 96.1729 167.642C96.8892 166.925 97.8702 166.487 98.9551 166.487L106.14 167.976V160.532C104.788 160.648 103.419 160.725 102.036 160.757C101.515 160.771 100.986 160.777 100.457 160.777C99.9287 160.777 99.4003 160.778 98.8789 160.757C94.0744 160.645 89.445 160.018 85.0869 158.932V171.397C85.0869 173.032 83.7439 174.375 82.1094 174.375H71.7461C69.5763 174.375 67.8027 172.601 67.8027 170.431C67.8028 169.346 68.2485 168.365 68.9648 167.642C69.6811 166.926 70.6615 166.487 71.7461 166.487L78.9316 167.976V157.025C70.8322 153.996 63.9918 149.242 59.1709 143.167C59.1709 143.167 59.1709 143.167 59.1709 143.16C54.3371 137.067 51.5342 129.639 51.5342 121.3C51.5342 117.425 52.1377 113.673 53.2686 110.108C53.2636 110.105 53.2589 110.102 53.2539 110.099C50.0789 109.002 42.7323 102.339 38.9717 92.627C38.5669 92.5465 38.1479 92.4555 37.7148 92.3506C34.0684 91.4671 31.7402 90.2428 30.2793 89.1855C29.5491 88.6571 29.0379 88.1725 28.6895 87.7969C28.5154 87.6093 28.383 87.4498 28.2852 87.3281C28.2372 87.2685 28.1957 87.2162 28.166 87.1787C28.1506 87.1593 28.1387 87.1438 28.1289 87.1318C28.1241 87.126 28.1201 87.1215 28.1172 87.1182C28.1158 87.1166 28.115 87.1151 28.1143 87.1143L28.1133 87.1133C28.0648 87.0613 28.0413 87.0085 28.0322 86.9854C28.0215 86.958 28.0161 86.9336 28.0127 86.918C28.0059 86.8868 28.0026 86.8569 28.001 86.8369C27.9976 86.7953 27.9968 86.747 27.9971 86.6992C27.9977 86.601 28.0032 86.4668 28.0127 86.3037C28.0319 85.9751 28.0683 85.5059 28.1191 84.9189C28.221 83.7433 28.382 82.0818 28.583 80.0996C28.9851 76.1344 29.5485 70.8767 30.1201 65.6299C30.6918 60.3827 31.2723 55.1445 31.71 51.2188C31.7107 51.2122 31.7112 51.2057 31.7119 51.1992C31.7029 51.1848 31.6928 51.1713 31.6846 51.1572C31.6345 51.0716 31.5843 50.9686 31.5635 50.8604C31.5366 50.7206 31.5364 50.5016 31.5439 50.2705C31.552 50.0241 31.5711 49.7169 31.5977 49.374C31.6509 48.6878 31.7353 47.8437 31.8232 47.0254C31.8927 46.3792 31.9656 45.7471 32.0273 45.2188C31.71 44.9512 31.4262 44.6862 31.1826 44.4209C30.3774 43.5439 29.9204 42.6037 30.1406 41.6934C30.361 40.7834 31.1968 40.1571 32.3135 39.7451C33.4465 39.3273 34.9724 39.0886 36.7666 39.0186C36.9321 39.0121 37.1001 39.0085 37.2705 39.0049L38.8496 26.8242C38.847 26.782 38.8506 26.7406 38.8604 26.7002Z"/>
</mask>
<path d="M38.8604 26.7002L33.0286 25.2893L33.0271 25.2954L38.8604 26.7002ZM42.3975 26.3672L43.8083 20.5354L43.8083 20.5354L42.3975 26.3672ZM45.3906 28.2793V34.2793L51.2234 29.6859L45.3906 28.2793ZM45.3896 28.2793V22.2793L43.9344 34.1002L45.3896 28.2793ZM45.3936 28.2803L51.3272 29.17L46.8488 22.4594L45.3936 28.2803ZM43.7236 39.417L37.79 38.5273L42.93 45.3643L43.7236 39.417ZM50.2197 40.6445L51.6306 34.8128L51.6306 34.8128L50.2197 40.6445ZM62.9277 45.3477L65.8763 40.1222L65.8762 40.1221L62.9277 45.3477ZM66.5557 48.0293L70.9756 43.9717L70.9753 43.9714L66.5557 48.0293ZM67.5986 50.7559L73.4304 52.1669L73.4304 52.1667L67.5986 50.7559ZM65.4248 52.7041L67.5008 58.3335L67.5013 58.3333L65.4248 52.7041ZM64.3096 53.0273L62.9642 47.1801L58.6875 50.9315L64.3096 53.0273ZM63.6689 54.7295L69.2699 56.881L69.2699 56.881L63.6689 54.7295ZM62.7969 56.9219L68.3298 59.2428L68.3298 59.2427L62.7969 56.9219ZM62.4346 57.7441L67.8551 60.3168L67.8551 60.3166L62.4346 57.7441ZM62.1455 58.2607L66.8403 61.997L66.8437 61.9927L62.1455 58.2607ZM61.9014 58.4678L65.1073 63.5395L65.1088 63.5385L61.9014 58.4678ZM61.8564 58.4932L58.7944 53.3333L56.2487 56.3593L61.8564 58.4932ZM61.8486 58.5146L67.4563 60.6486L61.8486 58.5146ZM56.6777 72.0586L62.2801 74.2064L56.6777 72.0586ZM56.1182 73.5107L50.5166 71.3607L53.186 78.7455L56.1182 73.5107ZM61.6641 76.6172L58.7319 81.8519L67.658 76.8871L61.6641 76.6172ZM70.6748 69.0586L71.2849 75.0275L71.2955 75.0264L70.6748 69.0586ZM71.2637 69.0166L71.528 75.0108L76.9481 70.9367L71.2637 69.0166ZM100.464 47.0459V41.0459H100.464L100.464 47.0459ZM108.253 48.0811L106.676 53.8701L112.866 44.2442L108.253 48.0811ZM108.248 48.0752L109.733 42.2619L103.638 51.916L108.248 48.0752ZM121.368 55.6553L117.168 59.94L117.172 59.9441L121.368 55.6553ZM121.498 55.7832L125.722 51.522L125.719 51.5187L121.498 55.7832ZM121.856 56.1445L117.566 60.339L117.568 60.3408L121.856 56.1445ZM122.12 56.418L126.459 52.2741L126.458 52.2732L122.12 56.418ZM122.407 56.7207L118.015 60.8079L118.015 60.8084L122.407 56.7207ZM122.601 56.9307L127.03 52.883L127.029 52.8823L122.601 56.9307ZM122.697 57.0381L118.25 61.0655L118.251 61.0665L122.697 57.0381ZM123.24 57.6523L127.792 53.7437L127.788 53.7385L123.24 57.6523ZM123.275 57.6934L118.716 61.5939L118.721 61.5996L123.275 57.6934ZM131.651 81.3838L137.651 81.3839V81.3838H131.651ZM131.618 82.3584L125.628 82.0092L125.622 82.1366L131.618 82.3584ZM130.816 88.1641L124.969 86.8196L127.63 93.2482L130.816 88.1641ZM130.913 88.2266L127.69 93.2871L129.962 94.1507L130.913 88.2266ZM136.598 90.2158L133.696 95.4676L136.598 96.2158V90.2158ZM136.604 90.2158L139.503 84.9626L136.604 84.2158V90.2158ZM165.267 106.032L162.368 111.285L162.368 111.286L165.267 106.032ZM169.147 122.252L165.355 117.602L165.354 117.603L169.147 122.252ZM169.144 122.254L165.35 117.605L170.602 128.074L169.144 122.254ZM169.154 122.252L173.338 126.553L168.784 116.263L169.154 122.252ZM162.143 126.966L159.347 121.657L159.311 121.676L162.143 126.966ZM161.647 127.227L164.38 132.568L164.4 132.558L161.647 127.227ZM161.579 127.262L158.855 121.916L158.837 121.925L161.579 127.262ZM160.603 127.745L158.021 122.329L157.998 122.34L160.603 127.745ZM160.544 127.774L163.141 133.183L163.141 133.183L160.544 127.774ZM160.477 127.805L163.036 133.231L163.058 133.221L160.477 127.805ZM160.269 127.902L157.744 122.459L157.739 122.462L160.269 127.902ZM159.94 128.053L157.49 122.576L157.472 122.584L159.94 128.053ZM148.104 130.757L148.075 124.757L142.323 129.148L148.104 130.757ZM141.743 143.153L137.043 139.424L137.041 139.427L141.743 143.153ZM136.77 148.354L132.82 143.837L132.654 143.988L136.77 148.354ZM112.295 159.854L111.354 153.929L106.295 159.854H112.295ZM109.318 174.375V180.375H109.319L109.318 174.375ZM95.0117 170.431L89.0117 170.43V170.431H95.0117ZM96.1729 167.642L91.9305 163.399L91.9098 163.42L96.1729 167.642ZM98.9551 166.487L100.172 160.612L98.9551 160.487V166.487ZM106.14 167.976L104.923 173.851L112.14 167.976H106.14ZM106.14 160.532H112.14L105.626 154.554L106.14 160.532ZM102.036 160.757L101.896 154.758L101.876 154.759L102.036 160.757ZM100.457 160.777V166.777V160.777ZM98.8789 160.757L99.1186 154.762L99.0188 154.758L98.8789 160.757ZM85.0869 158.932L86.5381 153.11L79.0869 158.932H85.0869ZM71.7461 174.375L71.7454 180.375H71.7461V174.375ZM67.8027 170.431L61.8027 170.43V170.431H67.8027ZM68.9648 167.642L64.7228 163.398L64.7018 163.42L68.9648 167.642ZM71.7461 166.487L72.963 160.612L71.7454 160.487L71.7461 166.487ZM78.9316 167.976L77.7147 173.851L84.9316 167.976H78.9316ZM78.9316 157.025H84.9316L81.0336 151.406L78.9316 157.025ZM59.1709 143.167L63.8708 139.437L53.1709 143.167H59.1709ZM59.1709 143.16H65.1709L63.8713 139.431L59.1709 143.16ZM51.5342 121.3H45.5342V121.3L51.5342 121.3ZM53.2686 110.108L58.9876 111.923L56.4827 105.042L53.2686 110.108ZM53.2539 110.099L56.4704 105.034L55.2133 104.428L53.2539 110.099ZM38.9717 92.627L44.5669 90.4604L40.1408 86.742L38.9717 92.627ZM37.7148 92.3506L36.302 98.1819L36.3021 98.1819L37.7148 92.3506ZM30.2793 89.1855L26.7614 94.0461L26.7615 94.0461L30.2793 89.1855ZM28.6895 87.7969L24.291 91.8778L24.2911 91.8779L28.6895 87.7969ZM28.2852 87.3281L23.6087 91.0872L23.6087 91.0872L28.2852 87.3281ZM28.166 87.1787L23.4624 90.9037H23.4624L28.166 87.1787ZM28.1289 87.1318L32.7622 83.3197L32.7613 83.3185L28.1289 87.1318ZM28.1172 87.1182L23.5576 91.0181L23.5704 91.0332L28.1172 87.1182ZM28.1143 87.1143L32.5971 83.1263L32.3569 82.8716L28.1143 87.1143ZM28.1133 87.1133L23.7231 91.203L23.8706 91.3559L28.1133 87.1133ZM28.0322 86.9854L22.4442 89.1703L22.4453 89.1731L28.0322 86.9854ZM28.0127 86.918L22.1508 88.1977L22.1522 88.2045L28.0127 86.918ZM28.001 86.8369L22.0212 87.3286L22.0215 87.3327L28.001 86.8369ZM27.9971 86.6992L21.9972 86.6599L21.9972 86.6611L27.9971 86.6992ZM28.0127 86.3037L22.0229 85.9537L22.0229 85.9538L28.0127 86.3037ZM28.1191 84.9189L22.1416 84.4009L22.1415 84.4009L28.1191 84.9189ZM28.583 80.0996L22.6136 79.4942L22.6136 79.4942L28.583 80.0996ZM30.1201 65.6299L24.1554 64.98L30.1201 65.6299ZM31.71 51.2188L25.7469 50.554L31.71 51.2188ZM31.7119 51.1992L37.675 51.864L36.8004 48.0199L31.7119 51.1992ZM31.6846 51.1572L26.5052 54.1861L26.5055 54.1867L31.6846 51.1572ZM31.5635 50.8604L25.6714 51.9932L25.6718 51.9952L31.5635 50.8604ZM31.5439 50.2705L25.5472 50.0741L25.5472 50.0742L31.5439 50.2705ZM31.5977 49.374L25.6156 48.9099L25.6156 48.9099L31.5977 49.374ZM31.8232 47.0254L25.8576 46.3844L25.8576 46.3844L31.8232 47.0254ZM32.0273 45.2188L37.9868 45.9147L35.8948 40.6315L32.0273 45.2188ZM31.1826 44.4209L26.7628 48.4787L26.7631 48.4789L31.1826 44.4209ZM30.1406 41.6934L24.3092 40.2812L24.3088 40.2826L30.1406 41.6934ZM32.3135 39.7451L30.2375 34.1157L30.2368 34.116L32.3135 39.7451ZM36.7666 39.0186L36.5328 33.0231L36.5327 33.0231L36.7666 39.0186ZM37.2705 39.0049L37.397 45.0035L43.2207 39.7763L37.2705 39.0049ZM38.8496 26.8242L44.7998 27.5956L44.838 26.4505L38.8496 26.8242ZM38.8604 26.7002L44.6921 28.111C44.1306 30.4322 42.4252 31.4453 41.8065 31.7405C41.131 32.0628 40.6315 32.1056 40.5717 32.1112C40.3909 32.1283 40.5535 32.0942 40.9866 32.199L42.3975 26.3672L43.8083 20.5354C42.4381 20.2039 40.9071 20.0265 39.4461 20.1641C38.7461 20.2301 37.7099 20.3992 36.6389 20.9102C35.6247 21.3941 33.6651 22.6583 33.0286 25.2893L38.8604 26.7002ZM42.3975 26.3672L40.9866 32.199C41.4201 32.3038 41.549 32.4084 41.3958 32.3105C41.345 32.2781 40.9203 32.0118 40.4669 31.4165C40.0513 30.8711 38.9985 29.1922 39.5578 26.8727L45.3906 28.2793L51.2234 29.6859C51.8575 27.0565 50.6933 25.0382 50.0122 24.1443C49.2933 23.2006 48.449 22.5768 47.8567 22.1983C46.6202 21.4083 45.1778 20.8667 43.8083 20.5354L42.3975 26.3672ZM45.3906 28.2793V22.2793H45.3896V28.2793V34.2793H45.3906V28.2793ZM45.3896 28.2793L43.9344 34.1002L43.9383 34.1011L45.3936 28.2803L46.8488 22.4594L46.8449 22.4584L45.3896 28.2793ZM45.3936 28.2803L39.4599 27.3905L37.79 38.5273L43.7236 39.417L49.6573 40.3067L51.3272 29.17L45.3936 28.2803ZM43.7236 39.417L42.93 45.3643C44.7659 45.6093 46.7497 45.9781 48.8089 46.4763L50.2197 40.6445L51.6306 34.8128C49.1824 34.2205 46.7865 33.7725 44.5173 33.4697L43.7236 39.417ZM50.2197 40.6445L48.8088 46.4763C53.5208 47.6163 57.4523 49.1474 59.9793 50.5732L62.9277 45.3477L65.8762 40.1221C62.1384 38.0131 57.1035 36.1368 51.6306 34.8128L50.2197 40.6445ZM62.9277 45.3477L59.9791 50.5731C61.2769 51.3054 61.9201 51.8521 62.136 52.0872L66.5557 48.0293L70.9753 43.9714C69.5578 42.4276 67.7059 41.1545 65.8763 40.1222L62.9277 45.3477ZM66.5557 48.0293L62.1357 52.0869C62.2331 52.193 62.0736 52.0555 61.9091 51.6537C61.7213 51.195 61.5221 50.3567 61.7669 49.345L67.5986 50.7559L73.4304 52.1667C74.3731 48.27 72.1961 45.3012 70.9756 43.9717L66.5557 48.0293ZM67.5986 50.7559L61.7669 49.3448C62.0117 48.3333 62.5719 47.6788 62.9486 47.3567C63.2786 47.0745 63.4834 47.0251 63.3483 47.0749L65.4248 52.7041L67.5013 58.3333C69.1947 57.7087 72.4876 56.0632 73.4304 52.1669L67.5986 50.7559ZM65.4248 52.7041L63.3488 47.0747C63.3137 47.0876 63.1973 47.1265 62.9642 47.1801L64.3096 53.0273L65.6549 58.8746C66.2303 58.7422 66.8604 58.5697 67.5008 58.3335L65.4248 52.7041ZM64.3096 53.0273L58.6875 50.9315C58.4979 51.4401 58.288 52.005 58.068 52.578L63.6689 54.7295L69.2699 56.881C69.5161 56.2401 69.7495 55.6117 69.9316 55.1232L64.3096 53.0273ZM63.6689 54.7295L58.068 52.5779C57.7805 53.3264 57.4952 54.0497 57.2639 54.601L62.7969 56.9219L68.3298 59.2427C68.6311 58.5245 68.9672 57.6691 69.2699 56.881L63.6689 54.7295ZM62.7969 56.9219L57.264 54.6009C57.1464 54.8813 57.0631 55.0683 57.014 55.1717L62.4346 57.7441L67.8551 60.3166C68.0176 59.9743 68.1814 59.5966 68.3298 59.2428L62.7969 56.9219ZM62.4346 57.7441L57.0141 55.1715C56.9848 55.2332 56.9914 55.2159 57.0232 55.1578C57.0408 55.1255 57.0792 55.0568 57.1371 54.965C57.1909 54.8796 57.2945 54.7213 57.4473 54.5288L62.1455 58.2607L66.8437 61.9927C67.4301 61.2544 67.8029 60.4266 67.8551 60.3168L62.4346 57.7441ZM62.1455 58.2607L57.4508 54.5245C57.7449 54.155 58.0303 53.8962 58.2279 53.7343C58.4289 53.5698 58.5981 53.4577 58.694 53.397L61.9014 58.4678L65.1088 63.5385C65.4086 63.3489 66.1568 62.8557 66.8403 61.997L62.1455 58.2607ZM61.9014 58.4678L58.6955 53.3961C58.7929 53.3345 58.874 53.2873 58.9261 53.2577C58.9527 53.2426 58.9747 53.2304 58.9896 53.2221C59.0043 53.2141 59.0153 53.2081 59.0183 53.2065C59.0199 53.2056 59.021 53.205 59.0197 53.2057C59.019 53.2061 59.0159 53.2078 59.0124 53.2097C59.0054 53.2135 58.9907 53.2215 58.9725 53.2315C58.9367 53.2512 58.8727 53.2869 58.7944 53.3333L61.8564 58.4932L64.9185 63.653C64.8478 63.695 64.7913 63.7264 64.7632 63.7419C64.7488 63.7498 64.7379 63.7557 64.7347 63.7575C64.7331 63.7583 64.7319 63.759 64.7331 63.7583C64.7336 63.758 64.7367 63.7563 64.7401 63.7545C64.7511 63.7485 64.7976 63.7234 64.8549 63.6908C64.9144 63.657 65.0027 63.6056 65.1073 63.5395L61.9014 58.4678ZM61.8564 58.4932L56.2487 56.3593C56.2405 56.3809 56.2333 56.4002 56.2272 56.4167C56.2211 56.4331 56.216 56.4473 56.2119 56.4586C56.2079 56.4697 56.2046 56.4789 56.2025 56.4848C56.2005 56.4903 56.1988 56.4951 56.1987 56.4953C56.1982 56.4969 56.1993 56.4938 56.2006 56.4901C56.202 56.486 56.2047 56.4786 56.2081 56.4693C56.2115 56.4598 56.216 56.4474 56.2214 56.4327C56.2268 56.4181 56.2334 56.4005 56.2409 56.3807L61.8486 58.5146L67.4563 60.6486C67.4646 60.627 67.4718 60.6077 67.4779 60.5912C67.4839 60.5748 67.4891 60.5606 67.4932 60.5493C67.4972 60.5382 67.5005 60.529 67.5026 60.523C67.5046 60.5176 67.5063 60.5127 67.5064 60.5125C67.5069 60.5109 67.5058 60.5139 67.5045 60.5176C67.5031 60.5217 67.5004 60.5291 67.497 60.5385C67.4936 60.5479 67.4891 60.5604 67.4837 60.575C67.4783 60.5897 67.4717 60.6072 67.4642 60.6271L61.8564 58.4932ZM61.8486 58.5146L56.2409 56.3807C54.837 60.0702 52.9621 64.9893 51.0753 69.9107L56.6777 72.0586L62.2801 74.2064C64.172 69.2718 66.0508 64.3422 67.4563 60.6486L61.8486 58.5146ZM56.6777 72.0586L51.0753 69.9107C50.8583 70.4768 50.7465 70.7618 50.5166 71.3607L56.1182 73.5107L61.7197 75.6608C61.8611 75.2924 62.1255 74.6097 62.2801 74.2064L56.6777 72.0586ZM56.1182 73.5107L53.186 78.7455L58.7319 81.8519L61.6641 76.6172L64.5962 71.3825L59.0503 68.276L56.1182 73.5107ZM61.6641 76.6172L67.658 76.8871C67.6257 77.6033 67.3651 77.8326 67.5736 77.5274C67.7436 77.2785 68.0914 76.8822 68.637 76.4392C69.1703 76.0061 69.7653 75.6322 70.3204 75.3687C70.5926 75.2395 70.825 75.1512 71.0073 75.0952C71.1938 75.0379 71.2855 75.0274 71.2849 75.0275L70.6748 69.0586L70.0647 63.0897C66.6886 63.4348 63.3977 65.2355 61.0725 67.1237C59.8395 68.1249 58.6279 69.349 57.6652 70.7581C56.7409 72.1109 55.7742 74.036 55.6701 76.3473L61.6641 76.6172ZM70.6748 69.0586L71.2955 75.0264C71.344 75.0214 71.4169 75.0157 71.528 75.0108L71.2637 69.0166L70.9994 63.0224C70.7211 63.0347 70.4009 63.0547 70.0541 63.0908L70.6748 69.0586ZM71.2637 69.0166L76.9481 70.9367C80.6494 59.9792 89.9324 53.0461 100.464 53.0459L100.464 47.0459L100.464 41.0459C84.2743 41.0462 70.7583 51.764 65.5792 67.0965L71.2637 69.0166ZM100.464 47.0459V53.0459C102.62 53.0459 104.7 53.3317 106.676 53.8701L108.253 48.0811L109.83 42.2921C106.827 41.4739 103.686 41.0459 100.464 41.0459V47.0459ZM108.253 48.0811L112.866 44.2442C112.862 44.2402 112.86 44.2369 112.858 44.2344C112.857 44.2332 112.856 44.2322 112.856 44.2319C112.855 44.2316 112.855 44.2318 112.856 44.232C112.856 44.2322 112.857 44.2331 112.858 44.2344L108.248 48.0752L103.638 51.916C103.64 51.9174 103.641 51.9186 103.641 51.9191C103.641 51.9196 103.642 51.92 103.642 51.9201C103.642 51.9204 103.642 51.9203 103.642 51.9201C103.641 51.9195 103.641 51.9187 103.64 51.9179L108.253 48.0811ZM108.248 48.0752L106.763 53.8885C111.264 55.0382 114.769 57.5886 117.168 59.94L121.368 55.6553L125.568 51.3705C122.185 48.054 116.892 44.0906 109.733 42.2619L108.248 48.0752ZM121.368 55.6553L117.172 59.9441C117.204 59.975 117.238 60.0085 117.277 60.0478L121.498 55.7832L125.719 51.5187C125.672 51.4724 125.619 51.4206 125.564 51.3665L121.368 55.6553ZM121.498 55.7832L117.274 60.0444C117.369 60.1384 117.465 60.236 117.566 60.339L121.856 56.1445L126.147 51.95C126.014 51.8142 125.872 51.6706 125.722 51.522L121.498 55.7832ZM121.856 56.1445L117.568 60.3408C117.63 60.4046 117.698 60.4748 117.782 60.5628L122.12 56.418L126.458 52.2732C126.367 52.1779 126.26 52.0653 126.145 51.9483L121.856 56.1445ZM122.12 56.418L117.781 60.5618C117.894 60.6802 117.955 60.7438 118.015 60.8079L122.407 56.7207L126.8 52.6335C126.673 52.4971 126.541 52.36 126.459 52.2741L122.12 56.418ZM122.407 56.7207L118.015 60.8084C118.062 60.8589 118.113 60.9139 118.172 60.9791L122.601 56.9307L127.029 52.8823C126.96 52.8069 126.882 52.7217 126.799 52.633L122.407 56.7207ZM122.601 56.9307L118.172 60.9783C118.165 60.9715 118.164 60.9696 118.179 60.9863C118.184 60.9918 118.196 61.0056 118.206 61.017C118.218 61.0299 118.233 61.0467 118.25 61.0655L122.697 57.0381L127.145 53.0107C127.146 53.0117 127.145 53.0107 127.14 53.0057C127.135 52.9993 127.131 52.9951 127.12 52.9826C127.102 52.9635 127.069 52.9256 127.03 52.883L122.601 56.9307ZM122.697 57.0381L118.251 61.0665C118.404 61.2357 118.551 61.4019 118.693 61.5662L123.24 57.6523L127.788 53.7385C127.572 53.4879 127.357 53.245 127.144 53.0097L122.697 57.0381ZM123.24 57.6523L118.688 61.561C118.698 61.5723 118.707 61.5832 118.716 61.5939L123.275 57.6934L127.835 53.7928C127.82 53.7762 127.806 53.7598 127.792 53.7437L123.24 57.6523ZM123.275 57.6934L118.721 61.5996C122.944 66.5224 125.651 73.3661 125.651 81.3838H131.651H137.651C137.651 70.6254 133.998 60.9784 127.83 53.7871L123.275 57.6934ZM131.651 81.3838L125.651 81.3837C125.651 81.515 125.645 81.719 125.628 82.0092L131.618 82.3584L137.608 82.7076C137.632 82.2893 137.651 81.8334 137.651 81.3839L131.651 81.3838ZM131.618 82.3584L125.622 82.1366C125.564 83.7105 125.316 85.3088 124.969 86.8196L130.816 88.1641L136.664 89.5085C137.139 87.4421 137.522 85.0763 137.614 82.5802L131.618 82.3584ZM130.816 88.1641L127.63 93.2482C127.61 93.2356 127.595 93.2258 127.587 93.2208C127.58 93.2162 127.576 93.2136 127.582 93.2173C127.583 93.2181 127.584 93.219 127.586 93.2203C127.588 93.2215 127.591 93.2232 127.593 93.225C127.599 93.2285 127.606 93.2335 127.615 93.2391C127.632 93.2503 127.658 93.2673 127.69 93.2871L130.913 88.2266L134.137 83.166C134.152 83.1758 134.162 83.1826 134.164 83.1835C134.164 83.184 134.164 83.1838 134.162 83.1821C134.16 83.1812 134.159 83.1803 134.157 83.1789C134.155 83.1776 134.152 83.1759 134.149 83.1741C134.131 83.162 134.073 83.1238 134.003 83.0799L130.816 88.1641ZM130.913 88.2266L129.962 94.1507C131.139 94.3396 132.407 94.7554 133.696 95.4676L136.598 90.2158L139.499 84.9641C137.018 83.5932 134.432 82.7148 131.864 82.3024L130.913 88.2266ZM136.598 90.2158V96.2158H136.604V90.2158V84.2158H136.598V90.2158ZM136.604 90.2158L133.706 95.4691L162.368 111.285L165.267 106.032L168.165 100.779L139.503 84.9626L136.604 90.2158ZM165.267 106.032L162.368 111.286C164.533 112.48 165.603 114.171 165.905 115.431C166.182 116.583 165.859 117.191 165.355 117.602L169.147 122.252L172.94 126.902C177.527 123.161 178.763 117.589 177.575 112.634C176.413 107.787 172.997 103.445 168.165 100.779L165.267 106.032ZM169.147 122.252L165.354 117.603C165.484 117.497 165.611 117.403 165.731 117.32C165.851 117.236 165.966 117.164 166.071 117.101C166.177 117.037 166.276 116.983 166.365 116.936C166.454 116.89 166.535 116.85 166.607 116.817C166.678 116.783 166.741 116.755 166.794 116.733C166.847 116.71 166.893 116.692 166.928 116.678C166.945 116.671 166.961 116.665 166.974 116.66C166.987 116.654 166.999 116.65 167.007 116.647C167.016 116.644 167.023 116.641 167.027 116.639C167.031 116.638 167.034 116.637 167.034 116.637C167.034 116.637 167.034 116.637 167.034 116.637C167.034 116.637 167.034 116.637 167.034 116.637C167.033 116.637 167.033 116.637 167.033 116.637C167.033 116.637 167.032 116.637 167.032 116.638C167.031 116.638 167.029 116.639 167.027 116.639C167.023 116.641 167.016 116.644 167.007 116.647C166.998 116.65 166.987 116.655 166.973 116.66C166.96 116.665 166.944 116.671 166.927 116.678C166.892 116.692 166.846 116.711 166.793 116.733C166.74 116.756 166.676 116.784 166.605 116.817C166.533 116.851 166.452 116.891 166.363 116.937C166.273 116.984 166.174 117.038 166.069 117.102C165.963 117.165 165.848 117.238 165.728 117.321C165.608 117.404 165.481 117.499 165.35 117.605L169.144 122.254L172.937 126.903C172.806 127.009 172.68 127.103 172.56 127.187C172.439 127.27 172.325 127.342 172.219 127.405C172.114 127.469 172.015 127.523 171.926 127.57C171.837 127.616 171.756 127.656 171.684 127.689C171.613 127.723 171.55 127.75 171.497 127.773C171.444 127.796 171.398 127.814 171.363 127.828C171.346 127.835 171.33 127.841 171.317 127.846C171.304 127.851 171.292 127.856 171.284 127.859C171.275 127.862 171.268 127.865 171.264 127.867C171.26 127.868 171.257 127.869 171.257 127.869C171.257 127.869 171.257 127.869 171.257 127.869C171.257 127.869 171.257 127.869 171.257 127.869C171.258 127.869 171.258 127.869 171.258 127.869C171.258 127.869 171.259 127.869 171.259 127.868C171.26 127.868 171.262 127.867 171.264 127.866C171.268 127.865 171.275 127.862 171.284 127.859C171.293 127.855 171.304 127.851 171.318 127.846C171.331 127.841 171.347 127.835 171.364 127.828C171.399 127.814 171.445 127.795 171.498 127.772C171.552 127.75 171.615 127.722 171.687 127.688C171.758 127.655 171.839 127.615 171.929 127.569C172.018 127.522 172.117 127.467 172.223 127.404C172.329 127.341 172.443 127.268 172.563 127.185C172.684 127.101 172.811 127.007 172.941 126.9L169.147 122.252ZM169.144 122.254L170.602 128.074C170.408 128.123 170.22 128.159 170.04 128.186C169.95 128.2 169.862 128.211 169.776 128.22C169.733 128.224 169.691 128.228 169.649 128.232C169.628 128.233 169.607 128.235 169.586 128.236C169.576 128.237 169.566 128.238 169.555 128.239C169.55 128.239 169.545 128.239 169.54 128.24C169.537 128.24 169.535 128.24 169.532 128.24C169.531 128.24 169.53 128.24 169.528 128.24C169.528 128.24 169.527 128.24 169.527 128.24C169.526 128.24 169.525 128.241 169.154 122.252C168.784 116.263 168.783 116.263 168.782 116.264C168.782 116.264 168.781 116.264 168.78 116.264C168.779 116.264 168.778 116.264 168.776 116.264C168.774 116.264 168.771 116.264 168.769 116.264C168.763 116.265 168.758 116.265 168.753 116.265C168.743 116.266 168.733 116.267 168.722 116.268C168.701 116.269 168.68 116.271 168.659 116.272C168.617 116.276 168.574 116.28 168.531 116.284C168.444 116.293 168.355 116.305 168.263 116.318C168.079 116.346 167.886 116.384 167.685 116.434L169.144 122.254ZM169.154 122.252C164.97 117.951 164.971 117.95 164.972 117.949C164.973 117.949 164.974 117.948 164.974 117.948C164.976 117.946 164.977 117.945 164.978 117.944C164.98 117.942 164.983 117.939 164.985 117.937C164.989 117.933 164.993 117.93 164.996 117.927C165.002 117.921 165.006 117.917 165.008 117.915C165.013 117.911 165.008 117.915 164.995 117.927C164.969 117.951 164.909 118.005 164.814 118.087C164.625 118.249 164.298 118.519 163.831 118.868C162.898 119.564 161.409 120.571 159.347 121.657L162.143 126.966L164.938 132.275C167.599 130.873 169.616 129.524 171.008 128.485C171.704 127.965 172.244 127.523 172.632 127.191C172.825 127.025 172.981 126.886 173.098 126.778C173.157 126.724 173.206 126.678 173.246 126.64C173.266 126.621 173.284 126.605 173.299 126.59C173.307 126.583 173.314 126.576 173.32 126.57C173.324 126.567 173.327 126.564 173.33 126.561C173.331 126.559 173.333 126.558 173.334 126.557C173.335 126.556 173.336 126.555 173.336 126.555C173.337 126.554 173.338 126.553 169.154 122.252ZM162.143 126.966L159.311 121.676C159.166 121.754 159.028 121.827 158.895 121.895L161.647 127.227L164.4 132.558C164.599 132.455 164.791 132.353 164.974 132.256L162.143 126.966ZM161.647 127.227L158.914 121.885C158.902 121.892 158.891 121.897 158.882 121.902C158.874 121.906 158.866 121.91 158.862 121.912C158.85 121.918 158.851 121.918 158.855 121.916L161.579 127.262L164.304 132.608C164.33 132.594 164.354 132.582 164.365 132.576C164.38 132.568 164.381 132.568 164.38 132.568L161.647 127.227ZM161.579 127.262L158.837 121.925C158.568 122.063 158.296 122.198 158.021 122.329L160.603 127.745L163.184 133.162C163.567 132.979 163.946 132.791 164.321 132.599L161.579 127.262ZM160.603 127.745L157.998 122.34C157.953 122.361 157.916 122.38 157.893 122.392C157.88 122.398 157.87 122.403 157.863 122.407C157.857 122.41 157.851 122.413 157.849 122.414C157.846 122.415 157.848 122.414 157.85 122.413C157.853 122.412 157.859 122.409 157.867 122.405C157.882 122.397 157.91 122.383 157.946 122.366L160.544 127.774L163.141 133.183C163.187 133.161 163.225 133.142 163.25 133.13C163.274 133.118 163.294 133.107 163.297 133.106C163.301 133.104 163.3 133.105 163.298 133.105C163.296 133.106 163.29 133.109 163.283 133.113C163.269 133.12 163.242 133.133 163.207 133.15L160.603 127.745ZM160.544 127.774L157.947 122.366C158.006 122.337 158.054 122.316 158.081 122.304C158.094 122.297 158.105 122.293 158.111 122.29C158.116 122.288 158.119 122.286 158.116 122.288C158.115 122.288 158.107 122.292 158.098 122.296C158.088 122.3 158.073 122.307 158.055 122.315C158.02 122.331 157.963 122.356 157.896 122.388L160.477 127.805L163.058 133.221C163.001 133.248 162.956 133.268 162.932 133.279C162.92 133.285 162.91 133.289 162.906 133.291C162.902 133.292 162.899 133.293 162.904 133.291C162.907 133.29 162.916 133.286 162.927 133.281C162.938 133.276 162.954 133.269 162.974 133.261C163.012 133.244 163.071 133.217 163.141 133.183L160.544 127.774ZM160.477 127.805L157.917 122.378C157.839 122.415 157.791 122.437 157.744 122.459L160.269 127.902L162.793 133.345C162.885 133.303 162.976 133.26 163.036 133.231L160.477 127.805ZM160.269 127.902L157.739 122.462C157.634 122.511 157.558 122.546 157.49 122.576L159.94 128.053L162.391 133.529C162.544 133.461 162.686 133.395 162.799 133.343L160.269 127.902ZM159.94 128.053L157.472 122.584C154.515 123.919 151.365 124.741 148.075 124.757L148.104 130.757L148.132 136.757C153.418 136.732 158.231 135.408 162.409 133.521L159.94 128.053ZM148.104 130.757L142.323 129.148C141.28 132.895 139.487 136.344 137.043 139.424L141.743 143.153L146.444 146.882C149.834 142.609 152.39 137.731 153.884 132.366L148.104 130.757ZM141.743 143.153L137.041 139.427C135.803 140.988 134.392 142.462 132.82 143.837L136.77 148.354L140.719 152.87C142.812 151.04 144.732 149.042 146.445 146.88L141.743 143.153ZM136.77 148.354L132.654 143.988C127.907 148.462 121.112 152.379 111.354 153.929L112.295 159.854L113.236 165.78C125.402 163.849 134.403 158.83 140.885 152.719L136.77 148.354ZM112.295 159.854H106.295V171.397H112.295H118.295V159.854H112.295ZM112.295 171.397H106.295C106.295 169.721 107.637 168.375 109.318 168.375L109.318 174.375L109.319 180.375C114.269 180.375 118.295 176.343 118.295 171.397H112.295ZM109.318 174.375V168.375H98.9551V174.375V180.375H109.318V174.375ZM98.9551 174.375V168.375C100.101 168.375 101.012 169.289 101.012 170.431H95.0117H89.0117C89.0117 175.912 93.4694 180.375 98.9551 180.375V174.375ZM95.0117 170.431L101.012 170.431C101.012 171.033 100.756 171.541 100.436 171.864L96.1729 167.642L91.9098 163.42C90.1572 165.189 89.012 167.659 89.0117 170.43L95.0117 170.431ZM96.1729 167.642L100.415 171.885C100.053 172.246 99.5267 172.487 98.9551 172.487V166.487V160.487C96.2136 160.487 93.725 161.604 91.9305 163.399L96.1729 167.642ZM98.9551 166.487L97.738 172.363L104.923 173.851L106.14 167.976L107.357 162.1L100.172 160.612L98.9551 166.487ZM106.14 167.976H112.14V160.532H106.14H100.14V167.976H106.14ZM106.14 160.532L105.626 154.554C104.395 154.66 103.151 154.729 101.896 154.758L102.036 160.757L102.176 166.755C103.687 166.72 105.18 166.637 106.653 166.51L106.14 160.532ZM102.036 160.757L101.876 154.759C101.412 154.771 100.936 154.777 100.457 154.777V160.777V166.777C101.035 166.777 101.617 166.77 102.196 166.755L102.036 160.757ZM100.457 160.777V154.777C99.9037 154.777 99.4986 154.777 99.1186 154.762L98.8789 160.757L98.6392 166.752C99.302 166.779 99.9537 166.777 100.457 166.777V160.777ZM98.8789 160.757L99.0188 154.758C94.6447 154.656 90.4555 154.086 86.5381 153.11L85.0869 158.932L83.6358 164.754C88.4345 165.95 93.5042 166.633 98.739 166.755L98.8789 160.757ZM85.0869 158.932H79.0869V171.397H85.0869H91.0869V158.932H85.0869ZM85.0869 171.397H79.0869C79.0869 169.718 80.4301 168.375 82.1094 168.375V174.375V180.375C87.0576 180.375 91.0869 176.346 91.0869 171.397H85.0869ZM82.1094 174.375V168.375H71.7461V174.375V180.375H82.1094V174.375ZM71.7461 174.375L71.7468 168.375C72.8914 168.375 73.8027 169.288 73.8027 170.431H67.8027H61.8027C61.8027 175.913 66.2611 180.374 71.7454 180.375L71.7461 174.375ZM67.8027 170.431L73.8027 170.431C73.8027 171.036 73.5452 171.543 73.2279 171.864L68.9648 167.642L64.7018 163.42C62.9519 165.186 61.803 167.655 61.8027 170.43L67.8027 170.431ZM68.9648 167.642L73.2069 171.885C72.8462 172.245 72.3196 172.487 71.7467 172.487L71.7461 166.487L71.7454 160.487C69.0033 160.488 66.516 161.606 64.7228 163.398L68.9648 167.642ZM71.7461 166.487L70.5292 172.363L77.7147 173.851L78.9316 167.976L80.1485 162.1L72.963 160.612L71.7461 166.487ZM78.9316 167.976H84.9316V157.025H78.9316H72.9316V167.976H78.9316ZM78.9316 157.025L81.0336 151.406C73.8078 148.703 67.9216 144.542 63.8708 139.437L59.1709 143.167L54.471 146.897C60.0619 153.942 67.8567 159.289 76.8297 162.645L78.9316 157.025ZM59.1709 143.167C65.1709 143.167 65.1709 143.167 65.1709 143.167C65.1709 143.167 65.1709 143.167 65.1709 143.167C65.1709 143.167 65.1709 143.167 65.1709 143.167C65.1709 143.167 65.1709 143.167 65.1709 143.167C65.1709 143.167 65.1709 143.167 65.1709 143.167C65.1709 143.167 65.1709 143.167 65.1709 143.167C65.1709 143.167 65.1709 143.167 65.1709 143.167C65.1709 143.167 65.1709 143.167 65.1709 143.167C65.1709 143.167 65.1709 143.167 65.1709 143.167V143.167C65.1709 143.167 65.1709 143.167 65.1709 143.167V143.167C65.1709 143.167 65.1709 143.167 65.1709 143.167C65.1709 143.167 65.1709 143.167 65.1709 143.167C65.1709 143.167 65.1709 143.167 65.1709 143.167C65.1709 143.167 65.1709 143.167 65.1709 143.167C65.1709 143.167 65.1709 143.167 65.1709 143.167C65.1709 143.167 65.1709 143.167 65.1709 143.167V143.167C65.1709 143.167 65.1709 143.167 65.1709 143.167C65.1709 143.167 65.1709 143.167 65.1709 143.167C65.1709 143.167 65.1709 143.167 65.1709 143.167V143.167C65.1709 143.167 65.1709 143.167 65.1709 143.167C65.1709 143.167 65.1709 143.167 65.1709 143.167C65.1709 143.167 65.1709 143.167 65.1709 143.167V143.167V143.167V143.167V143.167V143.167C65.1709 143.167 65.1709 143.167 65.1709 143.167C65.1709 143.167 65.1709 143.167 65.1709 143.167C65.1709 143.167 65.1709 143.167 65.1709 143.167V143.167V143.167C65.1709 143.167 65.1709 143.167 65.1709 143.167C65.1709 143.167 65.1709 143.167 65.1709 143.167V143.167C65.1709 143.167 65.1709 143.167 65.1709 143.167V143.167C65.1709 143.167 65.1709 143.167 65.1709 143.167V143.167C65.1709 143.167 65.1709 143.167 65.1709 143.167V143.167C65.1709 143.167 65.1709 143.167 65.1709 143.167V143.167C65.1709 143.167 65.1709 143.167 65.1709 143.167C65.1709 143.167 65.1709 143.167 65.1709 143.167C65.1709 143.167 65.1709 143.167 65.1709 143.167C65.1709 143.167 65.1709 143.167 65.1709 143.167V143.167C65.1709 143.167 65.1709 143.167 65.1709 143.167C65.1709 143.167 65.1709 143.167 65.1709 143.167C65.1709 143.167 65.1709 143.167 65.1709 143.167V143.167C65.1709 143.167 65.1709 143.167 65.1709 143.167C65.1709 143.167 65.1709 143.167 65.1709 143.167C65.1709 143.167 65.1709 143.167 65.1709 143.167V143.167C65.1709 143.167 65.1709 143.167 65.1709 143.167C65.1709 143.167 65.1709 143.167 65.1709 143.167C65.1709 143.167 65.1709 143.167 65.1709 143.167C65.1709 143.167 65.1709 143.167 65.1709 143.167C65.1709 143.167 65.1709 143.167 65.1709 143.167V143.166V143.166C65.1709 143.166 65.1709 143.166 65.1709 143.166C65.1709 143.166 65.1709 143.166 65.1709 143.166C65.1709 143.166 65.1709 143.166 65.1709 143.166C65.1709 143.166 65.1709 143.166 65.1709 143.166C65.1709 143.166 65.1709 143.166 65.1709 143.166C65.1709 143.166 65.1709 143.166 65.1709 143.166C65.1709 143.166 65.1709 143.166 65.1709 143.166C65.1709 143.166 65.1709 143.166 65.1709 143.166C65.1709 143.166 65.1709 143.166 65.1709 143.166C65.1709 143.166 65.1709 143.166 65.1709 143.166C65.1709 143.166 65.1709 143.166 65.1709 143.166C65.1709 143.166 65.1709 143.166 65.1709 143.166C65.1709 143.166 65.1709 143.166 65.1709 143.166C65.1709 143.166 65.1709 143.166 65.1709 143.166C65.1709 143.166 65.1709 143.166 65.1709 143.166C65.1709 143.166 65.1709 143.166 65.1709 143.166C65.1709 143.166 65.1709 143.166 65.1709 143.166C65.1709 143.166 65.1709 143.166 65.1709 143.166C65.1709 143.166 65.1709 143.166 65.1709 143.166C65.1709 143.166 65.1709 143.166 65.1709 143.166C65.1709 143.166 65.1709 143.166 65.1709 143.166C65.1709 143.166 65.1709 143.166 65.1709 143.166C65.1709 143.166 65.1709 143.166 65.1709 143.166V143.166V143.166V143.166C65.1709 143.166 65.1709 143.166 65.1709 143.166C65.1709 143.166 65.1709 143.166 65.1709 143.166C65.1709 143.166 65.1709 143.166 65.1709 143.166C65.1709 143.166 65.1709 143.166 65.1709 143.166V143.166V143.166C65.1709 143.166 65.1709 143.166 65.1709 143.166C65.1709 143.166 65.1709 143.166 65.1709 143.166C65.1709 143.166 65.1709 143.166 65.1709 143.166V143.166V143.166C65.1709 143.166 65.1709 143.166 65.1709 143.166C65.1709 143.166 65.1709 143.166 65.1709 143.166V143.166V143.166C65.1709 143.166 65.1709 143.166 65.1709 143.166C65.1709 143.166 65.1709 143.166 65.1709 143.166V143.166C65.1709 143.166 65.1709 143.166 65.1709 143.166C65.1709 143.166 65.1709 143.166 65.1709 143.166V143.166V143.166C65.1709 143.166 65.1709 143.166 65.1709 143.166V143.166C65.1709 143.166 65.1709 143.166 65.1709 143.166C65.1709 143.166 65.1709 143.166 65.1709 143.166V143.166C65.1709 143.166 65.1709 143.166 65.1709 143.166V143.166V143.166C65.1709 143.166 65.1709 143.166 65.1709 143.166V143.166C65.1709 143.166 65.1709 143.166 65.1709 143.166V143.166C65.1709 143.166 65.1709 143.166 65.1709 143.166V143.166C65.1709 143.166 65.1709 143.166 65.1709 143.166V143.166C65.1709 143.166 65.1709 143.166 65.1709 143.166V143.166C65.1709 143.166 65.1709 143.166 65.1709 143.166V143.166C65.1709 143.166 65.1709 143.166 65.1709 143.166V143.166C65.1709 143.166 65.1709 143.166 65.1709 143.166V143.166C65.1709 143.166 65.1709 143.166 65.1709 143.166C65.1709 143.166 65.1709 143.166 65.1709 143.166V143.166C65.1709 143.166 65.1709 143.166 65.1709 143.166C65.1709 143.166 65.1709 143.166 65.1709 143.166V143.166C65.1709 143.166 65.1709 143.166 65.1709 143.166C65.1709 143.166 65.1709 143.166 65.1709 143.166V143.166C65.1709 143.166 65.1709 143.166 65.1709 143.166C65.1709 143.166 65.1709 143.166 65.1709 143.166V143.166C65.1709 143.166 65.1709 143.166 65.1709 143.166C65.1709 143.166 65.1709 143.166 65.1709 143.166C65.1709 143.166 65.1709 143.166 65.1709 143.166V143.166C65.1709 143.166 65.1709 143.166 65.1709 143.166C65.1709 143.166 65.1709 143.166 65.1709 143.166C65.1709 143.166 65.1709 143.166 65.1709 143.166V143.166C65.1709 143.166 65.1709 143.166 65.1709 143.166C65.1709 143.166 65.1709 143.166 65.1709 143.166C65.1709 143.166 65.1709 143.166 65.1709 143.166C65.1709 143.165 65.1709 143.165 65.1709 143.165C65.1709 143.165 65.1709 143.165 65.1709 143.165C65.1709 143.165 65.1709 143.165 65.1709 143.165V143.165C65.1709 143.165 65.1709 143.165 65.1709 143.165C65.1709 143.165 65.1709 143.165 65.1709 143.165C65.1709 143.165 65.1709 143.165 65.1709 143.165C65.1709 143.165 65.1709 143.165 65.1709 143.165C65.1709 143.165 65.1709 143.165 65.1709 143.165C65.1709 143.165 65.1709 143.165 65.1709 143.165C65.1709 143.165 65.1709 143.165 65.1709 143.165C65.1709 143.165 65.1709 143.165 65.1709 143.165C65.1709 143.165 65.1709 143.165 65.1709 143.165C65.1709 143.165 65.1709 143.165 65.1709 143.165C65.1709 143.165 65.1709 143.165 65.1709 143.165C65.1709 143.165 65.1709 143.165 65.1709 143.165C65.1709 143.165 65.1709 143.165 65.1709 143.165C65.1709 143.165 65.1709 143.165 65.1709 143.165C65.1709 143.165 65.1709 143.165 65.1709 143.165C65.1709 143.165 65.1709 143.165 65.1709 143.165C65.1709 143.165 65.1709 143.165 65.1709 143.165C65.1709 143.165 65.1709 143.165 65.1709 143.165C65.1709 143.165 65.1709 143.165 65.1709 143.165C65.1709 143.165 65.1709 143.165 65.1709 143.165C65.1709 143.165 65.1709 143.165 65.1709 143.165C65.1709 143.165 65.1709 143.165 65.1709 143.165C65.1709 143.165 65.1709 143.165 65.1709 143.165C65.1709 143.165 65.1709 143.165 65.1709 143.165C65.1709 143.165 65.1709 143.165 65.1709 143.165C65.1709 143.165 65.1709 143.165 65.1709 143.165C65.1709 143.165 65.1709 143.165 65.1709 143.165C65.1709 143.165 65.1709 143.165 65.1709 143.165C65.1709 143.165 65.1709 143.165 65.1709 143.165C65.1709 143.165 65.1709 143.165 65.1709 143.165C65.1709 143.165 65.1709 143.165 65.1709 143.165C65.1709 143.165 65.1709 143.165 65.1709 143.165C65.1709 143.165 65.1709 143.165 65.1709 143.165C65.1709 143.165 65.1709 143.165 65.1709 143.165C65.1709 143.165 65.1709 143.165 65.1709 143.165C65.1709 143.165 65.1709 143.165 65.1709 143.165C65.1709 143.165 65.1709 143.165 65.1709 143.165C65.1709 143.165 65.1709 143.165 65.1709 143.165C65.1709 143.165 65.1709 143.165 65.1709 143.165C65.1709 143.165 65.1709 143.165 65.1709 143.165C65.1709 143.165 65.1709 143.165 65.1709 143.165C65.1709 143.165 65.1709 143.165 65.1709 143.165C65.1709 143.165 65.1709 143.165 65.1709 143.165C65.1709 143.165 65.1709 143.165 65.1709 143.165C65.1709 143.165 65.1709 143.165 65.1709 143.165C65.1709 143.165 65.1709 143.165 65.1709 143.165C65.1709 143.165 65.1709 143.165 65.1709 143.165C65.1709 143.165 65.1709 143.165 65.1709 143.165C65.1709 143.165 65.1709 143.165 65.1709 143.165C65.1709 143.165 65.1709 143.165 65.1709 143.165C65.1709 143.165 65.1709 143.165 65.1709 143.165C65.1709 143.165 65.1709 143.165 65.1709 143.165C65.1709 143.165 65.1709 143.165 65.1709 143.165C65.1709 143.165 65.1709 143.165 65.1709 143.165C65.1709 143.165 65.1709 143.165 65.1709 143.165C65.1709 143.165 65.1709 143.164 65.1709 143.164C65.1709 143.164 65.1709 143.164 65.1709 143.164C65.1709 143.164 65.1709 143.164 65.1709 143.164C65.1709 143.164 65.1709 143.164 65.1709 143.164C65.1709 143.164 65.1709 143.164 65.1709 143.164C65.1709 143.164 65.1709 143.164 65.1709 143.164C65.1709 143.164 65.1709 143.164 65.1709 143.164C65.1709 143.164 65.1709 143.164 65.1709 143.164C65.1709 143.164 65.1709 143.164 65.1709 143.164C65.1709 143.164 65.1709 143.164 65.1709 143.164C65.1709 143.164 65.1709 143.164 65.1709 143.164C65.1709 143.164 65.1709 143.164 65.1709 143.164C65.1709 143.164 65.1709 143.164 65.1709 143.164C65.1709 143.164 65.1709 143.164 65.1709 143.164C65.1709 143.164 65.1709 143.164 65.1709 143.164C65.1709 143.164 65.1709 143.164 65.1709 143.164C65.1709 143.164 65.1709 143.164 65.1709 143.164C65.1709 143.164 65.1709 143.164 65.1709 143.164C65.1709 143.164 65.1709 143.164 65.1709 143.164C65.1709 143.164 65.1709 143.164 65.1709 143.164C65.1709 143.164 65.1709 143.164 65.1709 143.164C65.1709 143.164 65.1709 143.164 65.1709 143.164C65.1709 143.164 65.1709 143.164 65.1709 143.164C65.1709 143.164 65.1709 143.164 65.1709 143.164C65.1709 143.164 65.1709 143.164 65.1709 143.164C65.1709 143.164 65.1709 143.164 65.1709 143.164C65.1709 143.164 65.1709 143.164 65.1709 143.164C65.1709 143.164 65.1709 143.164 65.1709 143.164C65.1709 143.164 65.1709 143.164 65.1709 143.164C65.1709 143.164 65.1709 143.164 65.1709 143.164C65.1709 143.164 65.1709 143.164 65.1709 143.164C65.1709 143.164 65.1709 143.164 65.1709 143.164C65.1709 143.164 65.1709 143.164 65.1709 143.164C65.1709 143.164 65.1709 143.164 65.1709 143.164C65.1709 143.164 65.1709 143.164 65.1709 143.164C65.1709 143.164 65.1709 143.164 65.1709 143.164C65.1709 143.164 65.1709 143.164 65.1709 143.164C65.1709 143.164 65.1709 143.164 65.1709 143.164C65.1709 143.164 65.1709 143.164 65.1709 143.164C65.1709 143.164 65.1709 143.164 65.1709 143.164C65.1709 143.164 65.1709 143.164 65.1709 143.164C65.1709 143.164 65.1709 143.164 65.1709 143.164C65.1709 143.164 65.1709 143.164 65.1709 143.164C65.1709 143.164 65.1709 143.164 65.1709 143.164C65.1709 143.164 65.1709 143.164 65.1709 143.164C65.1709 143.163 65.1709 143.163 65.1709 143.163C65.1709 143.163 65.1709 143.163 65.1709 143.163C65.1709 143.163 65.1709 143.163 65.1709 143.163C65.1709 143.163 65.1709 143.163 65.1709 143.163C65.1709 143.163 65.1709 143.163 65.1709 143.163C65.1709 143.163 65.1709 143.163 65.1709 143.163C65.1709 143.163 65.1709 143.163 65.1709 143.163C65.1709 143.163 65.1709 143.163 65.1709 143.163C65.1709 143.163 65.1709 143.163 65.1709 143.163C65.1709 143.163 65.1709 143.163 65.1709 143.163C65.1709 143.163 65.1709 143.163 65.1709 143.163C65.1709 143.163 65.1709 143.163 65.1709 143.163C65.1709 143.163 65.1709 143.163 65.1709 143.163C65.1709 143.163 65.1709 143.163 65.1709 143.163C65.1709 143.163 65.1709 143.163 65.1709 143.163C65.1709 143.163 65.1709 143.163 65.1709 143.163C65.1709 143.163 65.1709 143.163 65.1709 143.163C65.1709 143.163 65.1709 143.163 65.1709 143.163C65.1709 143.163 65.1709 143.163 65.1709 143.163C65.1709 143.163 65.1709 143.163 65.1709 143.163C65.1709 143.163 65.1709 143.163 65.1709 143.163C65.1709 143.163 65.1709 143.163 65.1709 143.163C65.1709 143.163 65.1709 143.163 65.1709 143.163C65.1709 143.163 65.1709 143.163 65.1709 143.163C65.1709 143.163 65.1709 143.163 65.1709 143.163C65.1709 143.163 65.1709 143.163 65.1709 143.163C65.1709 143.163 65.1709 143.163 65.1709 143.163C65.1709 143.163 65.1709 143.163 65.1709 143.163C65.1709 143.163 65.1709 143.163 65.1709 143.163C65.1709 143.163 65.1709 143.163 65.1709 143.163C65.1709 143.163 65.1709 143.163 65.1709 143.163C65.1709 143.163 65.1709 143.163 65.1709 143.163C65.1709 143.163 65.1709 143.163 65.1709 143.163C65.1709 143.163 65.1709 143.163 65.1709 143.163C65.1709 143.163 65.1709 143.163 65.1709 143.163C65.1709 143.163 65.1709 143.163 65.1709 143.163C65.1709 143.163 65.1709 143.163 65.1709 143.163C65.1709 143.162 65.1709 143.162 65.1709 143.162C65.1709 143.162 65.1709 143.162 65.1709 143.162C65.1709 143.162 65.1709 143.162 65.1709 143.162C65.1709 143.162 65.1709 143.162 65.1709 143.162C65.1709 143.162 65.1709 143.162 65.1709 143.162C65.1709 143.162 65.1709 143.162 65.1709 143.162C65.1709 143.162 65.1709 143.162 65.1709 143.162C65.1709 143.162 65.1709 143.162 65.1709 143.162C65.1709 143.162 65.1709 143.162 65.1709 143.162C65.1709 143.162 65.1709 143.162 65.1709 143.162C65.1709 143.162 65.1709 143.162 65.1709 143.162C65.1709 143.162 65.1709 143.162 65.1709 143.162C65.1709 143.162 65.1709 143.162 65.1709 143.162C65.1709 143.162 65.1709 143.162 65.1709 143.162C65.1709 143.162 65.1709 143.162 65.1709 143.162C65.1709 143.162 65.1709 143.162 65.1709 143.162C65.1709 143.162 65.1709 143.162 65.1709 143.162C65.1709 143.162 65.1709 143.162 65.1709 143.162C65.1709 143.162 65.1709 143.162 65.1709 143.162C65.1709 143.162 65.1709 143.162 65.1709 143.162C65.1709 143.162 65.1709 143.162 65.1709 143.162C65.1709 143.162 65.1709 143.162 65.1709 143.162C65.1709 143.162 65.1709 143.162 65.1709 143.162C65.1709 143.162 65.1709 143.162 65.1709 143.162C65.1709 143.162 65.1709 143.162 65.1709 143.162C65.1709 143.162 65.1709 143.162 65.1709 143.162C65.1709 143.162 65.1709 143.162 65.1709 143.162C65.1709 143.162 65.1709 143.162 65.1709 143.162C65.1709 143.162 65.1709 143.162 65.1709 143.162C65.1709 143.162 65.1709 143.162 65.1709 143.162C65.1709 143.162 65.1709 143.162 65.1709 143.162C65.1709 143.162 65.1709 143.162 65.1709 143.161C65.1709 143.161 65.1709 143.161 65.1709 143.161C65.1709 143.161 65.1709 143.161 65.1709 143.161C65.1709 143.161 65.1709 143.161 65.1709 143.161C65.1709 143.161 65.1709 143.161 65.1709 143.161C65.1709 143.161 65.1709 143.161 65.1709 143.161C65.1709 143.161 65.1709 143.161 65.1709 143.161C65.1709 143.161 65.1709 143.161 65.1709 143.161C65.1709 143.161 65.1709 143.161 65.1709 143.161C65.1709 143.161 65.1709 143.161 65.1709 143.161C65.1709 143.161 65.1709 143.161 65.1709 143.161C65.1709 143.161 65.1709 143.161 65.1709 143.161C65.1709 143.161 65.1709 143.161 65.1709 143.161C65.1709 143.161 65.1709 143.161 65.1709 143.161C65.1709 143.161 65.1709 143.161 65.1709 143.161C65.1709 143.161 65.1709 143.161 65.1709 143.161C65.1709 143.161 65.1709 143.161 65.1709 143.161C65.1709 143.161 65.1709 143.161 65.1709 143.161C65.1709 143.161 65.1709 143.161 65.1709 143.161C65.1709 143.161 65.1709 143.161 65.1709 143.161C65.1709 143.161 65.1709 143.161 65.1709 143.161C65.1709 143.161 65.1709 143.161 65.1709 143.161C65.1709 143.161 65.1709 143.161 65.1709 143.161C65.1709 143.161 65.1709 143.161 65.1709 143.161C65.1709 143.161 65.1709 143.161 65.1709 143.161C65.1709 143.161 65.1709 143.161 65.1709 143.161C65.1709 143.161 65.1709 143.161 65.1709 143.161C65.1709 143.161 65.1709 143.161 65.1709 143.161C65.1709 143.161 65.1709 143.161 65.1709 143.16C65.1709 143.16 65.1709 143.16 65.1709 143.16C65.1709 143.16 65.1709 143.16 65.1709 143.16C65.1709 143.16 65.1709 143.16 65.1709 143.16C65.1709 143.16 65.1709 143.16 65.1709 143.16C65.1709 143.16 65.1709 143.16 65.1709 143.16C65.1709 143.16 65.1709 143.16 65.1709 143.16C65.1709 143.16 65.1709 143.16 65.1709 143.16C65.1709 143.16 65.1709 143.16 65.1709 143.16C65.1709 143.16 65.1709 143.16 65.1709 143.16H59.1709H53.1709C53.1709 143.16 53.1709 143.16 53.1709 143.16C53.1709 143.16 53.1709 143.16 53.1709 143.16C53.1709 143.16 53.1709 143.16 53.1709 143.16C53.1709 143.16 53.1709 143.16 53.1709 143.16C53.1709 143.16 53.1709 143.16 53.1709 143.16C53.1709 143.16 53.1709 143.16 53.1709 143.16C53.1709 143.16 53.1709 143.16 53.1709 143.16C53.1709 143.16 53.1709 143.16 53.1709 143.16C53.1709 143.16 53.1709 143.16 53.1709 143.16C53.1709 143.161 53.1709 143.161 53.1709 143.161C53.1709 143.161 53.1709 143.161 53.1709 143.161C53.1709 143.161 53.1709 143.161 53.1709 143.161C53.1709 143.161 53.1709 143.161 53.1709 143.161C53.1709 143.161 53.1709 143.161 53.1709 143.161C53.1709 143.161 53.1709 143.161 53.1709 143.161C53.1709 143.161 53.1709 143.161 53.1709 143.161C53.1709 143.161 53.1709 143.161 53.1709 143.161C53.1709 143.161 53.1709 143.161 53.1709 143.161C53.1709 143.161 53.1709 143.161 53.1709 143.161C53.1709 143.161 53.1709 143.161 53.1709 143.161C53.1709 143.161 53.1709 143.161 53.1709 143.161C53.1709 143.161 53.1709 143.161 53.1709 143.161C53.1709 143.161 53.1709 143.161 53.1709 143.161C53.1709 143.161 53.1709 143.161 53.1709 143.161C53.1709 143.161 53.1709 143.161 53.1709 143.161C53.1709 143.161 53.1709 143.161 53.1709 143.161C53.1709 143.161 53.1709 143.161 53.1709 143.161C53.1709 143.161 53.1709 143.161 53.1709 143.161C53.1709 143.161 53.1709 143.161 53.1709 143.161C53.1709 143.161 53.1709 143.161 53.1709 143.161C53.1709 143.161 53.1709 143.161 53.1709 143.161C53.1709 143.161 53.1709 143.161 53.1709 143.161C53.1709 143.161 53.1709 143.161 53.1709 143.161C53.1709 143.161 53.1709 143.161 53.1709 143.161C53.1709 143.161 53.1709 143.161 53.1709 143.161C53.1709 143.161 53.1709 143.161 53.1709 143.161C53.1709 143.161 53.1709 143.161 53.1709 143.161C53.1709 143.162 53.1709 143.162 53.1709 143.162C53.1709 143.162 53.1709 143.162 53.1709 143.162C53.1709 143.162 53.1709 143.162 53.1709 143.162C53.1709 143.162 53.1709 143.162 53.1709 143.162C53.1709 143.162 53.1709 143.162 53.1709 143.162C53.1709 143.162 53.1709 143.162 53.1709 143.162C53.1709 143.162 53.1709 143.162 53.1709 143.162C53.1709 143.162 53.1709 143.162 53.1709 143.162C53.1709 143.162 53.1709 143.162 53.1709 143.162C53.1709 143.162 53.1709 143.162 53.1709 143.162C53.1709 143.162 53.1709 143.162 53.1709 143.162C53.1709 143.162 53.1709 143.162 53.1709 143.162C53.1709 143.162 53.1709 143.162 53.1709 143.162C53.1709 143.162 53.1709 143.162 53.1709 143.162C53.1709 143.162 53.1709 143.162 53.1709 143.162C53.1709 143.162 53.1709 143.162 53.1709 143.162C53.1709 143.162 53.1709 143.162 53.1709 143.162C53.1709 143.162 53.1709 143.162 53.1709 143.162C53.1709 143.162 53.1709 143.162 53.1709 143.162C53.1709 143.162 53.1709 143.162 53.1709 143.162C53.1709 143.162 53.1709 143.162 53.1709 143.162C53.1709 143.162 53.1709 143.162 53.1709 143.162C53.1709 143.162 53.1709 143.162 53.1709 143.162C53.1709 143.162 53.1709 143.162 53.1709 143.162C53.1709 143.162 53.1709 143.162 53.1709 143.162C53.1709 143.162 53.1709 143.162 53.1709 143.162C53.1709 143.162 53.1709 143.162 53.1709 143.162C53.1709 143.162 53.1709 143.162 53.1709 143.162C53.1709 143.162 53.1709 143.162 53.1709 143.162C53.1709 143.162 53.1709 143.162 53.1709 143.162C53.1709 143.162 53.1709 143.162 53.1709 143.162C53.1709 143.162 53.1709 143.162 53.1709 143.163C53.1709 143.163 53.1709 143.163 53.1709 143.163C53.1709 143.163 53.1709 143.163 53.1709 143.163C53.1709 143.163 53.1709 143.163 53.1709 143.163C53.1709 143.163 53.1709 143.163 53.1709 143.163C53.1709 143.163 53.1709 143.163 53.1709 143.163C53.1709 143.163 53.1709 143.163 53.1709 143.163C53.1709 143.163 53.1709 143.163 53.1709 143.163C53.1709 143.163 53.1709 143.163 53.1709 143.163C53.1709 143.163 53.1709 143.163 53.1709 143.163C53.1709 143.163 53.1709 143.163 53.1709 143.163C53.1709 143.163 53.1709 143.163 53.1709 143.163C53.1709 143.163 53.1709 143.163 53.1709 143.163C53.1709 143.163 53.1709 143.163 53.1709 143.163C53.1709 143.163 53.1709 143.163 53.1709 143.163C53.1709 143.163 53.1709 143.163 53.1709 143.163C53.1709 143.163 53.1709 143.163 53.1709 143.163C53.1709 143.163 53.1709 143.163 53.1709 143.163C53.1709 143.163 53.1709 143.163 53.1709 143.163C53.1709 143.163 53.1709 143.163 53.1709 143.163C53.1709 143.163 53.1709 143.163 53.1709 143.163C53.1709 143.163 53.1709 143.163 53.1709 143.163C53.1709 143.163 53.1709 143.163 53.1709 143.163C53.1709 143.163 53.1709 143.163 53.1709 143.163C53.1709 143.163 53.1709 143.163 53.1709 143.163C53.1709 143.163 53.1709 143.163 53.1709 143.163C53.1709 143.163 53.1709 143.163 53.1709 143.163C53.1709 143.163 53.1709 143.163 53.1709 143.163C53.1709 143.163 53.1709 143.163 53.1709 143.163C53.1709 143.163 53.1709 143.163 53.1709 143.163C53.1709 143.163 53.1709 143.163 53.1709 143.163C53.1709 143.163 53.1709 143.163 53.1709 143.163C53.1709 143.163 53.1709 143.163 53.1709 143.163C53.1709 143.163 53.1709 143.163 53.1709 143.163C53.1709 143.163 53.1709 143.163 53.1709 143.163C53.1709 143.163 53.1709 143.163 53.1709 143.163C53.1709 143.163 53.1709 143.163 53.1709 143.163C53.1709 143.163 53.1709 143.163 53.1709 143.164C53.1709 143.164 53.1709 143.164 53.1709 143.164C53.1709 143.164 53.1709 143.164 53.1709 143.164C53.1709 143.164 53.1709 143.164 53.1709 143.164C53.1709 143.164 53.1709 143.164 53.1709 143.164C53.1709 143.164 53.1709 143.164 53.1709 143.164C53.1709 143.164 53.1709 143.164 53.1709 143.164C53.1709 143.164 53.1709 143.164 53.1709 143.164C53.1709 143.164 53.1709 143.164 53.1709 143.164C53.1709 143.164 53.1709 143.164 53.1709 143.164C53.1709 143.164 53.1709 143.164 53.1709 143.164C53.1709 143.164 53.1709 143.164 53.1709 143.164C53.1709 143.164 53.1709 143.164 53.1709 143.164C53.1709 143.164 53.1709 143.164 53.1709 143.164C53.1709 143.164 53.1709 143.164 53.1709 143.164C53.1709 143.164 53.1709 143.164 53.1709 143.164C53.1709 143.164 53.1709 143.164 53.1709 143.164C53.1709 143.164 53.1709 143.164 53.1709 143.164C53.1709 143.164 53.1709 143.164 53.1709 143.164C53.1709 143.164 53.1709 143.164 53.1709 143.164C53.1709 143.164 53.1709 143.164 53.1709 143.164C53.1709 143.164 53.1709 143.164 53.1709 143.164C53.1709 143.164 53.1709 143.164 53.1709 143.164C53.1709 143.164 53.1709 143.164 53.1709 143.164C53.1709 143.164 53.1709 143.164 53.1709 143.164C53.1709 143.164 53.1709 143.164 53.1709 143.164C53.1709 143.164 53.1709 143.164 53.1709 143.164C53.1709 143.164 53.1709 143.164 53.1709 143.164C53.1709 143.164 53.1709 143.164 53.1709 143.164C53.1709 143.164 53.1709 143.164 53.1709 143.164C53.1709 143.164 53.1709 143.164 53.1709 143.164C53.1709 143.164 53.1709 143.164 53.1709 143.164C53.1709 143.164 53.1709 143.164 53.1709 143.164C53.1709 143.164 53.1709 143.164 53.1709 143.164C53.1709 143.164 53.1709 143.164 53.1709 143.164C53.1709 143.164 53.1709 143.164 53.1709 143.164C53.1709 143.164 53.1709 143.164 53.1709 143.164C53.1709 143.164 53.1709 143.164 53.1709 143.164C53.1709 143.164 53.1709 143.164 53.1709 143.164C53.1709 143.164 53.1709 143.164 53.1709 143.164C53.1709 143.164 53.1709 143.164 53.1709 143.164C53.1709 143.164 53.1709 143.164 53.1709 143.164C53.1709 143.164 53.1709 143.164 53.1709 143.164C53.1709 143.164 53.1709 143.164 53.1709 143.164C53.1709 143.164 53.1709 143.164 53.1709 143.164C53.1709 143.164 53.1709 143.165 53.1709 143.165C53.1709 143.165 53.1709 143.165 53.1709 143.165C53.1709 143.165 53.1709 143.165 53.1709 143.165C53.1709 143.165 53.1709 143.165 53.1709 143.165C53.1709 143.165 53.1709 143.165 53.1709 143.165C53.1709 143.165 53.1709 143.165 53.1709 143.165C53.1709 143.165 53.1709 143.165 53.1709 143.165C53.1709 143.165 53.1709 143.165 53.1709 143.165C53.1709 143.165 53.1709 143.165 53.1709 143.165C53.1709 143.165 53.1709 143.165 53.1709 143.165C53.1709 143.165 53.1709 143.165 53.1709 143.165C53.1709 143.165 53.1709 143.165 53.1709 143.165C53.1709 143.165 53.1709 143.165 53.1709 143.165C53.1709 143.165 53.1709 143.165 53.1709 143.165C53.1709 143.165 53.1709 143.165 53.1709 143.165C53.1709 143.165 53.1709 143.165 53.1709 143.165C53.1709 143.165 53.1709 143.165 53.1709 143.165C53.1709 143.165 53.1709 143.165 53.1709 143.165C53.1709 143.165 53.1709 143.165 53.1709 143.165C53.1709 143.165 53.1709 143.165 53.1709 143.165C53.1709 143.165 53.1709 143.165 53.1709 143.165C53.1709 143.165 53.1709 143.165 53.1709 143.165C53.1709 143.165 53.1709 143.165 53.1709 143.165C53.1709 143.165 53.1709 143.165 53.1709 143.165C53.1709 143.165 53.1709 143.165 53.1709 143.165C53.1709 143.165 53.1709 143.165 53.1709 143.165C53.1709 143.165 53.1709 143.165 53.1709 143.165C53.1709 143.165 53.1709 143.165 53.1709 143.165C53.1709 143.165 53.1709 143.165 53.1709 143.165C53.1709 143.165 53.1709 143.165 53.1709 143.165C53.1709 143.165 53.1709 143.165 53.1709 143.165C53.1709 143.165 53.1709 143.165 53.1709 143.165C53.1709 143.165 53.1709 143.165 53.1709 143.165C53.1709 143.165 53.1709 143.165 53.1709 143.165C53.1709 143.165 53.1709 143.165 53.1709 143.165C53.1709 143.165 53.1709 143.165 53.1709 143.165C53.1709 143.165 53.1709 143.165 53.1709 143.165C53.1709 143.165 53.1709 143.165 53.1709 143.165C53.1709 143.165 53.1709 143.165 53.1709 143.165C53.1709 143.165 53.1709 143.165 53.1709 143.165C53.1709 143.165 53.1709 143.165 53.1709 143.165C53.1709 143.165 53.1709 143.165 53.1709 143.165C53.1709 143.165 53.1709 143.165 53.1709 143.165C53.1709 143.165 53.1709 143.165 53.1709 143.165C53.1709 143.165 53.1709 143.165 53.1709 143.165C53.1709 143.165 53.1709 143.165 53.1709 143.165C53.1709 143.165 53.1709 143.165 53.1709 143.165C53.1709 143.165 53.1709 143.165 53.1709 143.165C53.1709 143.165 53.1709 143.165 53.1709 143.165C53.1709 143.165 53.1709 143.165 53.1709 143.165C53.1709 143.165 53.1709 143.165 53.1709 143.165C53.1709 143.165 53.1709 143.165 53.1709 143.165C53.1709 143.165 53.1709 143.165 53.1709 143.165C53.1709 143.165 53.1709 143.165 53.1709 143.165C53.1709 143.165 53.1709 143.165 53.1709 143.165C53.1709 143.165 53.1709 143.165 53.1709 143.165V143.165C53.1709 143.165 53.1709 143.165 53.1709 143.165C53.1709 143.165 53.1709 143.165 53.1709 143.165C53.1709 143.165 53.1709 143.165 53.1709 143.166C53.1709 143.166 53.1709 143.166 53.1709 143.166C53.1709 143.166 53.1709 143.166 53.1709 143.166C53.1709 143.166 53.1709 143.166 53.1709 143.166V143.166C53.1709 143.166 53.1709 143.166 53.1709 143.166C53.1709 143.166 53.1709 143.166 53.1709 143.166C53.1709 143.166 53.1709 143.166 53.1709 143.166V143.166C53.1709 143.166 53.1709 143.166 53.1709 143.166C53.1709 143.166 53.1709 143.166 53.1709 143.166C53.1709 143.166 53.1709 143.166 53.1709 143.166V143.166C53.1709 143.166 53.1709 143.166 53.1709 143.166C53.1709 143.166 53.1709 143.166 53.1709 143.166V143.166C53.1709 143.166 53.1709 143.166 53.1709 143.166C53.1709 143.166 53.1709 143.166 53.1709 143.166V143.166C53.1709 143.166 53.1709 143.166 53.1709 143.166C53.1709 143.166 53.1709 143.166 53.1709 143.166V143.166C53.1709 143.166 53.1709 143.166 53.1709 143.166C53.1709 143.166 53.1709 143.166 53.1709 143.166V143.166C53.1709 143.166 53.1709 143.166 53.1709 143.166V143.166C53.1709 143.166 53.1709 143.166 53.1709 143.166V143.166C53.1709 143.166 53.1709 143.166 53.1709 143.166V143.166C53.1709 143.166 53.1709 143.166 53.1709 143.166V143.166C53.1709 143.166 53.1709 143.166 53.1709 143.166V143.166C53.1709 143.166 53.1709 143.166 53.1709 143.166V143.166C53.1709 143.166 53.1709 143.166 53.1709 143.166V143.166C53.1709 143.166 53.1709 143.166 53.1709 143.166V143.166V143.166C53.1709 143.166 53.1709 143.166 53.1709 143.166V143.166C53.1709 143.166 53.1709 143.166 53.1709 143.166C53.1709 143.166 53.1709 143.166 53.1709 143.166V143.166C53.1709 143.166 53.1709 143.166 53.1709 143.166V143.166V143.166C53.1709 143.166 53.1709 143.166 53.1709 143.166C53.1709 143.166 53.1709 143.166 53.1709 143.166V143.166C53.1709 143.166 53.1709 143.166 53.1709 143.166C53.1709 143.166 53.1709 143.166 53.1709 143.166V143.166V143.166C53.1709 143.166 53.1709 143.166 53.1709 143.166C53.1709 143.166 53.1709 143.166 53.1709 143.166V143.166V143.166C53.1709 143.166 53.1709 143.166 53.1709 143.166C53.1709 143.166 53.1709 143.166 53.1709 143.166C53.1709 143.166 53.1709 143.166 53.1709 143.166V143.166V143.166C53.1709 143.166 53.1709 143.166 53.1709 143.166C53.1709 143.166 53.1709 143.166 53.1709 143.166C53.1709 143.166 53.1709 143.166 53.1709 143.166C53.1709 143.166 53.1709 143.166 53.1709 143.166V143.166V143.166V143.166C53.1709 143.166 53.1709 143.166 53.1709 143.166C53.1709 143.166 53.1709 143.166 53.1709 143.166C53.1709 143.166 53.1709 143.166 53.1709 143.166C53.1709 143.166 53.1709 143.166 53.1709 143.166C53.1709 143.166 53.1709 143.166 53.1709 143.166C53.1709 143.166 53.1709 143.166 53.1709 143.166C53.1709 143.166 53.1709 143.166 53.1709 143.166C53.1709 143.166 53.1709 143.166 53.1709 143.166C53.1709 143.166 53.1709 143.166 53.1709 143.166C53.1709 143.166 53.1709 143.166 53.1709 143.166C53.1709 143.166 53.1709 143.166 53.1709 143.166C53.1709 143.166 53.1709 143.166 53.1709 143.166C53.1709 143.166 53.1709 143.166 53.1709 143.166C53.1709 143.166 53.1709 143.166 53.1709 143.166C53.1709 143.166 53.1709 143.166 53.1709 143.166C53.1709 143.166 53.1709 143.166 53.1709 143.166C53.1709 143.166 53.1709 143.166 53.1709 143.166C53.1709 143.166 53.1709 143.166 53.1709 143.166C53.1709 143.166 53.1709 143.166 53.1709 143.166C53.1709 143.166 53.1709 143.166 53.1709 143.166C53.1709 143.166 53.1709 143.166 53.1709 143.166C53.1709 143.166 53.1709 143.166 53.1709 143.166C53.1709 143.166 53.1709 143.166 53.1709 143.166V143.166V143.167C53.1709 143.167 53.1709 143.167 53.1709 143.167C53.1709 143.167 53.1709 143.167 53.1709 143.167C53.1709 143.167 53.1709 143.167 53.1709 143.167C53.1709 143.167 53.1709 143.167 53.1709 143.167C53.1709 143.167 53.1709 143.167 53.1709 143.167V143.167C53.1709 143.167 53.1709 143.167 53.1709 143.167C53.1709 143.167 53.1709 143.167 53.1709 143.167C53.1709 143.167 53.1709 143.167 53.1709 143.167V143.167C53.1709 143.167 53.1709 143.167 53.1709 143.167C53.1709 143.167 53.1709 143.167 53.1709 143.167C53.1709 143.167 53.1709 143.167 53.1709 143.167V143.167C53.1709 143.167 53.1709 143.167 53.1709 143.167C53.1709 143.167 53.1709 143.167 53.1709 143.167C53.1709 143.167 53.1709 143.167 53.1709 143.167C53.1709 143.167 53.1709 143.167 53.1709 143.167V143.167C53.1709 143.167 53.1709 143.167 53.1709 143.167V143.167C53.1709 143.167 53.1709 143.167 53.1709 143.167V143.167C53.1709 143.167 53.1709 143.167 53.1709 143.167V143.167C53.1709 143.167 53.1709 143.167 53.1709 143.167V143.167C53.1709 143.167 53.1709 143.167 53.1709 143.167C53.1709 143.167 53.1709 143.167 53.1709 143.167V143.167V143.167C53.1709 143.167 53.1709 143.167 53.1709 143.167C53.1709 143.167 53.1709 143.167 53.1709 143.167C53.1709 143.167 53.1709 143.167 53.1709 143.167V143.167V143.167V143.167V143.167V143.167C53.1709 143.167 53.1709 143.167 53.1709 143.167C53.1709 143.167 53.1709 143.167 53.1709 143.167C53.1709 143.167 53.1709 143.167 53.1709 143.167V143.167C53.1709 143.167 53.1709 143.167 53.1709 143.167C53.1709 143.167 53.1709 143.167 53.1709 143.167C53.1709 143.167 53.1709 143.167 53.1709 143.167V143.167C53.1709 143.167 53.1709 143.167 53.1709 143.167C53.1709 143.167 53.1709 143.167 53.1709 143.167C53.1709 143.167 53.1709 143.167 53.1709 143.167C53.1709 143.167 53.1709 143.167 53.1709 143.167C53.1709 143.167 53.1709 143.167 53.1709 143.167C53.1709 143.167 53.1709 143.167 53.1709 143.167V143.167C53.1709 143.167 53.1709 143.167 53.1709 143.167V143.167C53.1709 143.167 53.1709 143.167 53.1709 143.167C53.1709 143.167 53.1709 143.167 53.1709 143.167C53.1709 143.167 53.1709 143.167 53.1709 143.167C53.1709 143.167 53.1709 143.167 53.1709 143.167C53.1709 143.167 53.1709 143.167 53.1709 143.167C53.1709 143.167 53.1709 143.167 53.1709 143.167C53.1709 143.167 53.1709 143.167 53.1709 143.167C53.1709 143.167 53.1709 143.167 53.1709 143.167C53.1709 143.167 53.1709 143.167 59.1709 143.167ZM59.1709 143.16L63.8713 139.431C59.8415 134.352 57.5342 128.226 57.5342 121.3L51.5342 121.3L45.5342 121.3C45.5342 131.052 48.8326 139.783 54.4705 146.889L59.1709 143.16ZM51.5342 121.3H57.5342C57.5342 118.054 58.0391 114.912 58.9876 111.923L53.2686 110.108L47.5495 108.294C46.2363 112.433 45.5342 116.797 45.5342 121.3H51.5342ZM53.2686 110.108L56.4827 105.042C56.5105 105.06 56.5349 105.075 56.5554 105.089C56.5758 105.102 56.5932 105.114 56.6065 105.123C56.6196 105.131 56.6302 105.139 56.6363 105.143C56.6395 105.145 56.642 105.147 56.6434 105.148C56.6447 105.148 56.6457 105.149 56.6452 105.149C56.6452 105.149 56.6436 105.148 56.6419 105.147C56.6399 105.145 56.6369 105.143 56.6333 105.141C56.6261 105.136 56.6146 105.128 56.6004 105.118C56.5861 105.109 56.5677 105.097 56.5462 105.083C56.5247 105.068 56.4992 105.052 56.4704 105.034L53.2539 110.099L50.0374 115.164C50.0098 115.146 49.9856 115.13 49.9653 115.117C49.9451 115.104 49.9279 115.092 49.9148 115.084C49.9018 115.075 49.8915 115.068 49.8856 115.064C49.8825 115.062 49.8801 115.06 49.8788 115.059C49.8776 115.058 49.8767 115.058 49.8772 115.058C49.8774 115.058 49.879 115.059 49.8809 115.061C49.8829 115.062 49.886 115.064 49.8898 115.067C49.8972 115.072 49.9089 115.08 49.9233 115.089C49.9378 115.099 49.9563 115.111 49.978 115.126C49.9997 115.14 50.0254 115.156 50.0544 115.175L53.2686 110.108ZM53.2539 110.099L55.2133 104.428C55.3217 104.465 54.8715 104.296 53.9003 103.539C53.019 102.852 51.9432 101.864 50.8007 100.589C48.5075 98.0303 46.1488 94.5457 44.5669 90.4604L38.9717 92.627L33.3765 94.7935C35.5552 100.42 38.7501 105.123 41.8642 108.598C43.4253 110.34 45.0164 111.829 46.5231 113.004C47.9398 114.108 49.5986 115.184 51.2945 115.77L53.2539 110.099ZM38.9717 92.627L40.1408 86.742C39.8089 86.676 39.4717 86.6026 39.1276 86.5193L37.7148 92.3506L36.3021 98.1819C36.8242 98.3084 37.325 98.4171 37.8026 98.5119L38.9717 92.627ZM37.7148 92.3506L39.1276 86.5193C36.1613 85.8006 34.5642 84.8801 33.7971 84.325L30.2793 89.1855L26.7615 94.0461C28.9162 95.6055 31.9755 97.1337 36.302 98.1819L37.7148 92.3506ZM30.2793 89.1855L33.7971 84.325C33.4078 84.0432 33.1885 83.8245 33.0878 83.7159L28.6895 87.7969L24.2911 91.8779C24.8873 92.5205 25.6905 93.271 26.7614 94.0461L30.2793 89.1855ZM28.6895 87.7969L33.0879 83.716C33.0379 83.6621 33.0003 83.6172 32.9616 83.569L28.2852 87.3281L23.6087 91.0872C23.7657 91.2825 23.9929 91.5565 24.291 91.8778L28.6895 87.7969ZM28.2852 87.3281L32.9616 83.569C32.9265 83.5253 32.895 83.4857 32.8697 83.4537L28.166 87.1787L23.4624 90.9037C23.4964 90.9467 23.5479 91.0116 23.6087 91.0872L28.2852 87.3281ZM28.166 87.1787L32.8697 83.4537C32.8732 83.4581 32.8753 83.4608 32.8744 83.4597C32.8739 83.459 32.8733 83.4583 32.8713 83.4557C32.8697 83.4538 32.8667 83.4499 32.8635 83.4458C32.8574 83.438 32.8449 83.4221 32.8297 83.403C32.8145 83.3839 32.791 83.3547 32.7622 83.3197L28.1289 87.1318L23.4956 90.9439C23.4717 90.915 23.4534 90.8921 23.4437 90.8799C23.4385 90.8734 23.4344 90.8682 23.4318 90.8649C23.4293 90.8617 23.4276 90.8596 23.4273 90.8592C23.4271 90.8589 23.4272 90.8591 23.4289 90.8612C23.4302 90.8628 23.4329 90.8663 23.4358 90.87C23.4418 90.8777 23.4512 90.8896 23.4624 90.9037L28.166 87.1787ZM28.1289 87.1318L32.7613 83.3185C32.715 83.2624 32.6769 83.218 32.6549 83.1927C32.6455 83.1818 32.6366 83.1717 32.6383 83.1737C32.6384 83.1737 32.6391 83.1745 32.64 83.1756C32.641 83.1767 32.6426 83.1786 32.6446 83.1809C32.6484 83.1852 32.6553 83.1931 32.6639 83.2032L28.1172 87.1182L23.5704 91.0332C23.5798 91.044 23.5875 91.0528 23.592 91.0581C23.5965 91.0632 23.6001 91.0674 23.6008 91.0681C23.6042 91.072 23.5972 91.064 23.5897 91.0554C23.5717 91.0347 23.538 90.9955 23.4966 90.9451L28.1289 87.1318ZM28.1172 87.1182L32.6768 83.2182C32.7822 83.3414 32.8662 83.4497 32.9271 83.5315C32.9855 83.6099 33.0292 83.6727 33.0382 83.6856C33.0403 83.6886 33.0429 83.6924 33.0412 83.69C33.0408 83.6893 33.0371 83.6841 33.0325 83.6775C33.0241 83.6655 33.002 83.6339 32.9731 83.594C32.9441 83.554 32.8983 83.4918 32.8399 83.4172C32.7819 83.343 32.7 83.242 32.5971 83.1263L28.1143 87.1143L23.6314 91.1022C23.5287 90.9868 23.447 90.886 23.3892 90.812C23.331 90.7377 23.2854 90.6757 23.2566 90.636C23.2279 90.5964 23.206 90.5651 23.1978 90.5535C23.1933 90.547 23.1898 90.5419 23.1894 90.5414C23.1879 90.5392 23.1906 90.5431 23.1928 90.5462C23.2023 90.5598 23.2465 90.6234 23.3054 90.7025C23.3669 90.785 23.4515 90.8942 23.5576 91.0181L28.1172 87.1182ZM28.1143 87.1143L32.3569 82.8716L32.3559 82.8706L28.1133 87.1133L23.8706 91.3559L23.8716 91.3569L28.1143 87.1143ZM28.1133 87.1133L32.5035 83.0235C33.1551 83.723 33.4728 84.4238 33.6192 84.7976L28.0322 86.9854L22.4453 89.1731C22.6098 89.5932 22.9746 90.3996 23.7231 91.203L28.1133 87.1133ZM28.0322 86.9854L33.6203 84.8004C33.7096 85.029 33.7699 85.227 33.8099 85.3742C33.8487 85.5172 33.8734 85.6325 33.8731 85.6314L28.0127 86.918L22.1522 88.2045C22.1634 88.2554 22.25 88.6737 22.4442 89.1703L28.0322 86.9854ZM28.0127 86.918L33.8746 85.6382C33.9466 85.9678 33.9711 86.228 33.9805 86.3411L28.001 86.8369L22.0215 87.3327C22.0342 87.4858 22.0652 87.8057 22.1508 88.1977L28.0127 86.918ZM28.001 86.8369L33.9808 86.3453C33.991 86.4688 33.9944 86.5649 33.9957 86.619C33.9972 86.6762 33.9971 86.7181 33.9969 86.7373L27.9971 86.6992L21.9972 86.6611C21.9965 86.7702 21.9961 87.0244 22.0212 87.3286L28.001 86.8369ZM27.9971 86.6992L33.9969 86.7385C33.9968 86.7595 33.9965 86.7721 33.9964 86.7745C33.9964 86.7773 33.9964 86.7742 33.9968 86.7644C33.9976 86.7438 33.9993 86.7077 34.0025 86.6536L28.0127 86.3037L22.0229 85.9538C22.0112 86.1535 21.9988 86.4077 21.9972 86.6599L27.9971 86.6992ZM28.0127 86.3037L34.0025 86.6537C34.0166 86.4112 34.0471 86.0094 34.0967 85.437L28.1191 84.9189L22.1415 84.4009C22.0894 85.0024 22.0471 85.539 22.0229 85.9537L28.0127 86.3037ZM28.1191 84.9189L34.0967 85.437C34.1947 84.3062 34.3521 82.6798 34.5524 80.705L28.583 80.0996L22.6136 79.4942C22.4119 81.4837 22.2473 83.1803 22.1416 84.4009L28.1191 84.9189ZM28.583 80.0996L34.5524 80.705C34.9522 76.7631 35.5135 71.5237 36.0848 66.2797L30.1201 65.6299L24.1554 64.98C23.5835 70.2298 23.0181 75.5058 22.6136 79.4942L28.583 80.0996ZM30.1201 65.6299L36.0848 66.2797C36.6558 61.0392 37.2357 55.8063 37.673 51.8835L31.71 51.2188L25.7469 50.554C25.3089 54.4826 24.7278 59.7261 24.1554 64.98L30.1201 65.6299ZM31.71 51.2188L37.673 51.8835C37.6769 51.8488 37.6798 51.8203 37.6815 51.8024C37.6824 51.7933 37.6832 51.7858 37.6836 51.7809C37.6841 51.7764 37.6844 51.7724 37.6845 51.7721C37.6846 51.7707 37.6844 51.7731 37.6841 51.776C37.6838 51.7792 37.6832 51.7851 37.6825 51.7926C37.681 51.8072 37.6785 51.8325 37.675 51.864L31.7119 51.1992L25.7489 50.5344C25.745 50.5692 25.7421 50.5977 25.7403 50.6156C25.7394 50.6247 25.7387 50.6322 25.7383 50.6371C25.7378 50.6416 25.7374 50.6456 25.7374 50.6459C25.7373 50.6472 25.7375 50.6448 25.7378 50.6419C25.7381 50.6387 25.7387 50.6328 25.7394 50.6253C25.7408 50.6107 25.7434 50.5855 25.7469 50.554L31.71 51.2188ZM31.7119 51.1992L36.8004 48.0199C36.7553 47.9478 36.7176 47.8908 36.6968 47.8596C36.6862 47.8438 36.6777 47.831 36.6738 47.8253C36.6719 47.8225 36.6701 47.8199 36.6699 47.8196C36.6693 47.8187 36.6701 47.8199 36.6712 47.8216C36.6741 47.8258 36.6981 47.8612 36.7283 47.908C36.7599 47.9567 36.8079 48.0326 36.8636 48.1278L31.6846 51.1572L26.5055 54.1867C26.5653 54.2889 26.6178 54.3718 26.6538 54.4274C26.6885 54.4811 26.7171 54.5235 26.7247 54.5346C26.7269 54.538 26.7289 54.5409 26.7295 54.5418C26.7305 54.5433 26.7299 54.5423 26.7291 54.5413C26.7276 54.539 26.7214 54.5298 26.7132 54.5175C26.6971 54.4934 26.664 54.4434 26.6235 54.3785L31.7119 51.1992ZM31.6846 51.1572L36.8639 48.1283C36.9232 48.2297 37.0241 48.4113 37.1285 48.6551C37.2316 48.8957 37.3655 49.2601 37.4552 49.7255L31.5635 50.8604L25.6718 51.9952C25.881 53.0814 26.3203 53.87 26.5052 54.1861L31.6846 51.1572ZM31.5635 50.8604L37.4556 49.7275C37.5005 49.961 37.5188 50.1427 37.5269 50.2391C37.5357 50.343 37.5382 50.4182 37.539 50.4531C37.5406 50.5162 37.5386 50.5322 37.5407 50.4669L31.5439 50.2705L25.5472 50.0742C25.5427 50.2096 25.498 51.0913 25.6714 51.9932L31.5635 50.8604ZM31.5439 50.2705L37.5407 50.4669C37.5447 50.3471 37.5563 50.139 37.5797 49.8381L31.5977 49.374L25.6156 48.9099C25.5858 49.2947 25.5594 49.7012 25.5472 50.0741L31.5439 50.2705ZM31.5977 49.374L37.5797 49.8382C37.626 49.2417 37.7028 48.4677 37.7889 47.6664L31.8232 47.0254L25.8576 46.3844C25.7678 47.2198 25.6758 48.1338 25.6156 48.9099L31.5977 49.374ZM31.8232 47.0254L37.7889 47.6664C37.8553 47.0484 37.9257 46.4385 37.9868 45.9147L32.0273 45.2188L26.0678 44.5228C26.0056 45.0558 25.93 45.71 25.8576 46.3844L31.8232 47.0254ZM32.0273 45.2188L35.8948 40.6315C35.7149 40.4799 35.6288 40.3919 35.6022 40.3629L31.1826 44.4209L26.7631 48.4789C27.2237 48.9806 27.7051 49.4226 28.1599 49.806L32.0273 45.2188ZM31.1826 44.4209L35.6024 40.3631C35.5069 40.2591 35.6667 40.3974 35.8311 40.7997C36.0186 41.2583 36.2166 42.0948 35.9724 43.1041L30.1406 41.6934L24.3088 40.2826C23.3673 44.1749 25.537 47.1435 26.7628 48.4787L31.1826 44.4209ZM30.1406 41.6934L35.9721 43.1055C35.7276 44.115 35.1687 44.7688 34.7919 45.0913C34.4617 45.3738 34.2564 45.4236 34.3902 45.3743L32.3135 39.7451L30.2368 34.116C28.5395 34.7421 25.2518 36.3887 24.3092 40.2812L30.1406 41.6934ZM32.3135 39.7451L34.3895 45.3745C34.6885 45.2642 35.5105 45.0721 37.0005 45.014L36.7666 39.0186L36.5327 33.0231C34.4344 33.105 32.2045 33.3903 30.2375 34.1157L32.3135 39.7451ZM36.7666 39.0186L37.0004 45.014C37.1041 45.01 37.2198 45.0073 37.397 45.0035L37.2705 39.0049L37.144 33.0062C36.9804 33.0097 36.7601 33.0142 36.5328 33.0231L36.7666 39.0186ZM37.2705 39.0049L43.2207 39.7763L44.7998 27.5956L38.8496 26.8242L32.8994 26.0528L31.3203 38.2335L37.2705 39.0049ZM38.8496 26.8242L44.838 26.4505C44.8725 27.0038 44.8244 27.5618 44.6936 28.1049L38.8604 26.7002L33.0271 25.2954C32.8769 25.9193 32.8215 26.5603 32.8613 27.198L38.8496 26.8242Z" fill="white" mask="url(#path-1-outside-1_1347_10958)"/>
<g clip-path="url(#clip0_1347_10958)">
<path d="M51.5345 70.9438L100.374 98.2987C100.374 98.2987 80.7116 125.549 55.0608 111.18C39.8428 102.653 35.6836 86.8852 36.5599 76.3967C37.1024 69.8519 44.3984 66.9446 51.5345 70.9438Z" fill="#276288"/>
<path opacity="0.5" d="M39.6206 70.7764C38.1808 71.7292 34.7032 73.5098 37.2489 86.676C39.7388 99.564 49.4761 108.801 53.2598 110.101C57.0434 111.402 60.3332 112.348 60.3332 112.348V108.592C60.3332 108.592 50.5194 102.325 46.6036 97.5748C42.9799 93.1791 39.2937 86.6134 39.6206 70.7833V70.7764Z" fill="#14465D"/>
<path d="M112.294 138.77V171.397C112.294 173.031 110.952 174.374 109.318 174.374H98.9543C96.7843 174.374 95.0107 172.6 95.0107 170.43C95.0107 169.345 95.4559 168.364 96.1723 167.641C96.8886 166.925 97.8693 166.486 98.9543 166.486L106.139 167.975V138.77C106.139 137.135 107.481 135.793 109.116 135.793H109.318C110.952 135.793 112.294 137.135 112.294 138.77Z" fill="#404040"/>
<path d="M85.0864 138.77V171.397C85.0864 173.031 83.7441 174.374 82.1096 174.374H71.7463C69.5763 174.374 67.8027 172.6 67.8027 170.43C67.8027 169.345 68.2479 168.364 68.9643 167.641C69.6806 166.925 70.6613 166.486 71.7463 166.486L78.9311 167.975V138.77C78.9311 137.135 80.2734 135.793 81.9079 135.793H82.1096C83.7441 135.793 85.0864 137.135 85.0864 138.77Z" fill="#404040"/>
<path d="M149.38 121.292C149.38 129.631 146.577 137.059 141.743 143.152C133.321 153.78 118.729 160.366 102.036 160.756C101.514 160.77 100.986 160.777 100.457 160.777C99.9286 160.777 99.4 160.777 98.8783 160.756C82.1789 160.366 67.5938 153.78 59.171 143.166C59.171 143.166 59.171 143.166 59.171 143.159C54.3371 137.066 51.5342 129.638 51.5342 121.299C51.5342 108.209 58.4268 96.5104 69.2491 88.7623C69.2491 88.7623 69.2769 83.525 69.2769 81.3828C69.2769 61.7065 83.243 47.0449 100.464 47.0449C117.685 47.0449 131.651 61.7065 131.651 81.3828C131.651 83.525 131.025 87.8234 130.719 88.1016C131.373 88.505 131.679 88.7553 131.679 88.7553C142.501 96.5035 149.394 108.202 149.394 121.299L149.38 121.292Z" fill="#4B9AE8"/>
<path d="M90.0455 78.8097C93.8368 78.8097 96.9103 75.7362 96.9103 71.9449C96.9103 68.1536 93.8368 65.0801 90.0455 65.0801C86.2541 65.0801 83.1807 68.1536 83.1807 71.9449C83.1807 75.7362 86.2541 78.8097 90.0455 78.8097Z" fill="white"/>
<path d="M72.1144 83.0099C68.3029 83.4064 62.0085 80.2904 61.6746 77.0354C61.3408 73.7873 66.8632 69.4472 70.6747 69.0578C74.4861 68.6613 77.8038 70.4697 78.3045 75.3174C78.8123 80.2209 75.9328 82.6135 72.1213 83.0099H72.1144Z" fill="#EAC00F"/>
<path opacity="0.5" d="M108.247 48.0742C108.247 48.0742 117.171 58.7783 119.577 65.0797C122.457 72.6053 122.512 79.7413 121.963 83.045C120.711 90.5636 117.421 95.7453 117.421 95.7453H128.243C128.243 95.7453 131.658 88.7553 131.637 81.3758C131.617 74.4414 129.913 66.3038 124.251 58.8965C121.991 55.9406 116.579 50.2025 108.247 48.0742Z" fill="#2B5E84"/>
<path opacity="0.5" d="M124.063 106.081C124.063 106.081 132.924 120.2 125.239 135.161C119.939 145.468 112.239 151.186 96.9102 160.471C138.356 163.107 148.594 133.29 149.373 124.248C149.624 121.306 124.063 106.081 124.063 106.081Z" fill="#2B5E84"/>
<path d="M136.604 90.2159L165.267 106.032C172.264 109.892 174.239 118.099 169.148 122.252C161.205 128.734 148.602 134.966 134.226 127.03C122.214 120.402 118.201 108.988 117.227 99.0838C116.309 89.7847 126.992 84.9091 136.597 90.2159H136.604Z" fill="#276288"/>
<path opacity="0.5" d="M76.3708 70.7764C76.3708 70.7764 76.0092 72.7238 75.4667 74.866C74.8824 77.1752 73.1784 78.747 71.5578 79.2478C69.4504 79.9086 68.0176 80.4719 64.7695 80.9101C67.4125 82.5307 70.1737 83.1845 72.1142 83.0106C76.2317 82.642 77.9218 80.145 78.2557 77.7455C78.9095 73.0368 76.3708 70.7764 76.3708 70.7764Z" fill="#9A7D26"/>
<path opacity="0.5" d="M117.42 95.7452C116.44 100.127 118.846 108.48 120.369 111.756C124.111 119.776 130.121 126.181 138.237 128.908C146.472 131.676 154.735 130.563 160.543 127.774C166.35 124.985 169.153 122.252 169.153 122.252C169.153 122.252 157.156 125.284 149.387 124.241C141.611 123.197 132.325 118.997 126.942 112.34C121.559 105.684 119.952 101.115 117.434 95.7383L117.42 95.7452Z" fill="#14465D"/>
<path d="M90.0461 75.603C92.0666 75.603 93.7046 73.9651 93.7046 71.9446C93.7046 69.9241 92.0666 68.2861 90.0461 68.2861C88.0256 68.2861 86.3877 69.9241 86.3877 71.9446C86.3877 73.9651 88.0256 75.603 90.0461 75.603Z" fill="#040000"/>
<path d="M32.8257 44.7221C32.8257 44.7221 28.1101 86.5439 28.3952 86.8499C28.6804 87.1559 30.6 90.2301 37.8057 91.9759C45.0113 93.7216 48.1272 91.8576 48.5167 91.7185C48.9062 91.5794 63.8251 52.2268 63.8251 52.2268C63.8251 52.2268 54.832 39.7839 32.8327 44.7291L32.8257 44.7221Z" fill="#F1E2D2" stroke="#B09981" stroke-width="0.772029" stroke-miterlimit="10"/>
<path d="M32.5755 43.8877C32.5755 43.8877 31.8034 50.0639 31.9426 50.7873C32.0817 51.5106 36.3939 55.7116 46.0129 58.0416C55.632 60.3646 61.384 58.598 61.843 58.0207C62.3021 57.4434 64.4304 51.5941 64.4304 51.5941C64.4304 51.5941 44.0098 52.3313 32.5755 43.8877Z" fill="#F1E2D2" stroke="#B09981" stroke-width="0.772029" stroke-miterlimit="10"/>
<path opacity="0.3" d="M67.223 50.6645C67.9185 47.7896 60.265 43.4711 50.1284 41.0188C39.9918 38.5665 31.2107 38.9091 30.5152 41.7839C29.8197 44.6587 37.4732 48.9772 47.6098 51.4295C57.7464 53.8818 66.5276 53.5393 67.223 50.6645Z" fill="#DADBDB" stroke="#040000" stroke-width="0.772029" stroke-miterlimit="10"/>
<path opacity="0.85" d="M65.9861 50.3657C66.5651 47.9725 59.3709 44.1784 49.9176 41.8914C40.4642 39.6044 32.3314 39.6905 31.7524 42.0837C31.1735 44.4769 38.3676 48.271 47.8209 50.558C57.2743 52.845 65.4071 52.7589 65.9861 50.3657Z" fill="#F9FCFD"/>
<path d="M41.0256 79.0111C42.2893 79.0111 43.3138 77.9866 43.3138 76.7228C43.3138 75.4591 42.2893 74.4346 41.0256 74.4346C39.7618 74.4346 38.7373 75.4591 38.7373 76.7228C38.7373 77.9866 39.7618 79.0111 41.0256 79.0111Z" fill="#040000" stroke="#040000" stroke-width="0.306029" stroke-miterlimit="10"/>
<path d="M47.3976 84.1586C48.6614 84.1586 49.6859 83.1341 49.6859 81.8703C49.6859 80.6065 48.6614 79.582 47.3976 79.582C46.1339 79.582 45.1094 80.6065 45.1094 81.8703C45.1094 83.1341 46.1339 84.1586 47.3976 84.1586Z" fill="#040000" stroke="#040000" stroke-width="0.306029" stroke-miterlimit="10"/>
<path d="M47.0431 78.7748C48.3069 78.7748 49.3314 77.7503 49.3314 76.4865C49.3314 75.2227 48.3069 74.1982 47.0431 74.1982C45.7794 74.1982 44.7549 75.2227 44.7549 76.4865C44.7549 77.7503 45.7794 78.7748 47.0431 78.7748Z" fill="#040000" stroke="#040000" stroke-width="0.306029" stroke-miterlimit="10"/>
<path d="M45.3312 89.7289C46.595 89.7289 47.6195 88.7044 47.6195 87.4406C47.6195 86.1768 46.595 85.1523 45.3312 85.1523C44.0675 85.1523 43.043 86.1768 43.043 87.4406C43.043 88.7044 44.0675 89.7289 45.3312 89.7289Z" fill="#040000" stroke="#040000" stroke-width="0.306029" stroke-miterlimit="10"/>
<path d="M41.6457 84.8539C42.9095 84.8539 43.934 83.8294 43.934 82.5656C43.934 81.3018 42.9095 80.2773 41.6457 80.2773C40.3819 80.2773 39.3574 81.3018 39.3574 82.5656C39.3574 83.8294 40.3819 84.8539 41.6457 84.8539Z" fill="#040000" stroke="#040000" stroke-width="0.306029" stroke-miterlimit="10"/>
<path d="M35.2941 78.8724C36.5579 78.8724 37.5824 77.8479 37.5824 76.5842C37.5824 75.3204 36.5579 74.2959 35.2941 74.2959C34.0304 74.2959 33.0059 75.3204 33.0059 76.5842C33.0059 77.8479 34.0304 78.8724 35.2941 78.8724Z" fill="#040000" stroke="#040000" stroke-width="0.306029" stroke-miterlimit="10"/>
<path d="M38.801 90.1468C40.0647 90.1468 41.0892 89.1223 41.0892 87.8586C41.0892 86.5948 40.0647 85.5703 38.801 85.5703C37.5372 85.5703 36.5127 86.5948 36.5127 87.8586C36.5127 89.1223 37.5372 90.1468 38.801 90.1468Z" fill="#040000" stroke="#040000" stroke-width="0.306029" stroke-miterlimit="10"/>
<path d="M33.9523 85.348C35.2161 85.348 36.2406 84.3235 36.2406 83.0598C36.2406 81.796 35.2161 80.7715 33.9523 80.7715C32.6886 80.7715 31.6641 81.796 31.6641 83.0598C31.6641 84.3235 32.6886 85.348 33.9523 85.348Z" fill="#040000" stroke="#040000" stroke-width="0.306029" stroke-miterlimit="10"/>
<path d="M45.0464 65.998C46.5714 65.998 47.8076 64.7618 47.8076 63.2368C47.8076 61.7118 46.5714 60.4756 45.0464 60.4756C43.5214 60.4756 42.2852 61.7118 42.2852 63.2368C42.2852 64.7618 43.5214 65.998 45.0464 65.998Z" fill="#4E90CD" stroke="#040000" stroke-width="0.229522" stroke-miterlimit="10"/>
<path d="M44.3361 63.4046C44.7817 63.4046 45.1429 63.0434 45.1429 62.5978C45.1429 62.1522 44.7817 61.791 44.3361 61.791C43.8905 61.791 43.5293 62.1522 43.5293 62.5978C43.5293 63.0434 43.8905 63.4046 44.3361 63.4046Z" fill="white" stroke="#040000" stroke-width="0.229522" stroke-miterlimit="10"/>
<path d="M44.3348 62.9314C44.5192 62.9314 44.6687 62.7819 44.6687 62.5975C44.6687 62.4131 44.5192 62.2637 44.3348 62.2637C44.1504 62.2637 44.001 62.4131 44.001 62.5975C44.001 62.7819 44.1504 62.9314 44.3348 62.9314Z" fill="#040000"/>
<path d="M42.2917 64.1064C41.9092 64.0925 41.3389 63.6334 41.3528 63.2578C41.3667 62.8823 41.9718 62.4649 42.3474 62.4789C42.723 62.4928 43.022 62.7501 43.0012 63.3204C42.9803 63.8908 42.6604 64.1203 42.2848 64.1064H42.2917Z" fill="#DFB820" stroke="#040000" stroke-width="0.229522" stroke-miterlimit="10"/>
<path opacity="0.68" d="M41.3876 56.2476C38.9602 55.406 37.0684 54.321 35.5869 53.4864L36.2198 47.9014C37.9447 48.7012 39.9826 49.4872 42.2291 50.2105L41.3876 56.2476Z" fill="#EDEDEC"/>
<path opacity="0.68" d="M37.4865 82.3569L32.2354 79.2897L35.4626 54.3135C36.9371 55.1411 38.6481 56.0384 41.2702 57.026L37.5074 82.2456L37.4935 82.3499L37.4865 82.3569Z" fill="#EDEDEC"/>
<path opacity="0.85" d="M37.4327 82.472C37.7591 81.9243 36.8493 80.7804 35.4007 79.9172C33.9521 79.054 32.5131 78.7983 32.1867 79.3461C31.8603 79.8938 32.77 81.0377 34.2187 81.9009C35.6673 82.7641 37.1062 83.0198 37.4327 82.472Z" fill="#B4B3B4"/>
<path opacity="0.68" d="M42.2845 48.9926C39.9962 48.2345 37.9583 47.3999 36.2891 46.5583L36.3308 46.2523L36.4699 45.1534L36.6299 43.9292L37.1167 40.1804L37.228 39.3318L38.8555 26.7846L38.8694 26.7012L45.3934 28.28L43.6685 39.7839L43.5364 40.6533L43.1052 43.5189L42.6809 46.3427L42.3331 48.6657L42.2845 48.9996V48.9926Z" fill="#EDEDEC"/>
<path opacity="0.85" d="M45.3907 28.279C45.5406 27.6592 44.2003 26.8031 42.397 26.3668C40.5937 25.9306 39.0103 26.0793 38.8604 26.6991C38.7104 27.3189 40.0507 28.175 41.854 28.6112C43.6574 29.0475 45.2408 28.8987 45.3907 28.279Z" fill="#B4B3B4"/>
<path d="M42.6807 46.336C42.6807 46.336 41.248 47.2958 36.4697 45.1605C39.8152 44.7432 42.6807 46.336 42.6807 46.336Z" fill="#B4B3B4"/>
<path d="M37.416 69.6432L39.4817 67.4523L37.9864 67.0906C37.7777 67.0419 37.6525 66.8402 37.7012 66.6316C37.7499 66.4229 37.9585 66.2977 38.1672 66.3464L40.2885 66.8611C40.525 66.9168 40.6433 67.0976 40.5876 67.341C40.5598 67.4662 40.4694 67.6123 40.365 67.7305L38.1116 70.1927C37.9516 70.3735 37.7986 70.4222 37.6316 70.3804C37.4021 70.3248 37.2282 70.137 37.2839 69.8866C37.3048 69.8171 37.3604 69.7058 37.4299 69.6362L37.416 69.6432Z" fill="#040000"/>
<path d="M40.8653 70.4782L42.931 68.2873L41.4356 67.9256C41.2269 67.8769 41.1017 67.6752 41.1504 67.4665C41.1991 67.2579 41.4078 67.1327 41.6164 67.1814L43.7378 67.6961C43.9742 67.7517 44.0925 67.9325 44.0368 68.176C44.009 68.3012 43.9186 68.4472 43.8143 68.5655L41.5608 71.0276C41.4008 71.2085 41.2478 71.2571 41.0809 71.2154C40.8513 71.1598 40.6775 70.972 40.7331 70.7216C40.754 70.652 40.8096 70.5408 40.8792 70.4712L40.8653 70.4782Z" fill="#040000"/>
<path d="M46.6812 71.7607L46.5393 71.7264C46.4351 71.7012 46.2811 71.6339 46.3292 71.4351L46.5044 70.7111C46.5433 70.5502 46.6682 70.5103 46.8243 70.5481L46.9663 70.5824L47.0063 70.4168C46.9248 70.4021 46.8195 70.3816 46.7296 70.3599C46.6775 70.3473 46.5545 70.3175 46.5946 70.1519C46.6301 70.0052 46.7376 70.0162 46.8357 70.0249C47.2729 70.0605 47.4805 70.0306 47.6811 70.009C47.7377 70.0027 47.7801 69.9929 47.8369 70.0066C47.9931 70.0444 48.0971 70.2148 48.0582 70.3757C48.0273 70.5035 47.9341 70.516 47.5844 70.4915L47.5294 70.7187L47.624 70.7416C47.7234 70.7656 47.8822 70.8341 47.8341 71.0328L47.6589 71.7568C47.6189 71.9225 47.4904 71.9565 47.339 71.9199L47.1876 71.8832L47.0891 72.2902C47.1777 72.2966 47.2179 72.2963 47.2722 72.2994C47.2755 72.2652 47.2731 72.1093 47.2834 72.0667C47.3098 71.9579 47.4194 71.9393 47.4857 71.9554C47.5519 71.9714 47.6371 71.992 47.6891 72.4604C47.7229 72.0929 47.7969 71.5798 48.0454 70.553C48.0671 70.463 48.1587 70.0845 48.1585 70.0644C48.1571 70.029 48.1545 69.9983 48.1024 69.9857L46.7822 69.6663C46.7632 69.6617 46.7042 69.6575 46.6824 69.7474C46.3813 70.9919 46.1688 71.6218 45.605 72.1716C45.5077 72.2633 45.1066 72.617 44.9551 72.5804C44.8605 72.5575 44.7972 72.4671 44.8213 72.3677C44.8384 72.2967 45.0646 72.0659 45.102 72.0148C45.233 71.8462 45.6011 71.3391 45.8907 70.1419C45.909 70.0662 45.9808 69.7279 45.998 69.6569C46.0392 69.4866 46.111 69.1483 46.4991 69.2422L48.6238 69.7562C48.9882 69.8444 48.9 70.2087 48.8783 70.2986C48.876 70.3081 48.715 70.8702 48.6942 70.9353C48.6218 71.1933 48.5518 71.4619 48.5106 71.6323C48.4167 72.0203 48.3337 72.446 48.3269 72.4744C48.3177 72.5123 48.3204 72.563 48.3488 72.5699C48.3914 72.5802 48.4742 72.2796 48.4925 72.2039C48.5097 72.133 48.5394 72.0099 48.6767 72.0431C48.847 72.0843 48.8115 72.231 48.7898 72.3209C48.7554 72.4629 48.6258 72.8122 48.5561 72.9557C48.4538 73.1713 48.3021 73.4051 48.0134 73.3353C47.7957 73.2826 47.6999 73.0992 47.6767 72.8431C47.6235 73.0005 47.4907 73.0736 47.3345 73.0358C47.1547 72.9923 47.1774 72.8776 47.2218 72.6529C46.7734 72.7047 46.0343 72.7162 45.9539 72.6968C45.8355 72.6682 45.7813 72.5198 45.8191 72.3636C45.8385 72.2832 45.8895 72.1553 46.0336 72.1601C46.0832 72.1621 46.4319 72.2114 46.5667 72.2339L46.6812 71.7607ZM47.4009 71.5191L47.4948 71.131C47.5096 71.0695 47.4954 71.0661 47.3771 71.0375L47.2535 71.5485C47.315 71.5634 47.3493 71.5667 47.3646 71.5654C47.3858 71.5605 47.394 71.5475 47.4009 71.5191ZM46.7613 70.9536L46.6674 71.3416C46.6537 71.3984 46.6631 71.4007 46.7862 71.4305L46.9087 70.9241C46.8471 70.9093 46.8093 70.9001 46.7928 70.9061C46.781 70.9133 46.7681 70.9252 46.7613 70.9536ZM46.0204 69.0262L45.6895 70.3938C45.5441 70.9948 45.2578 71.5366 44.7945 71.9605C44.6128 72.1319 44.2605 72.3873 44.128 72.3553C44.0239 72.3301 43.976 72.2383 43.9977 72.1484C44.008 72.1058 44.015 72.0975 44.1029 72.0035C44.3277 71.7574 44.5442 71.3389 44.6669 71.018C44.5801 71.0871 44.4955 71.1468 44.4151 71.1273C44.2778 71.0941 44.242 70.8901 44.2855 70.7103C44.3199 70.5683 44.3795 70.4876 44.4714 70.4597C44.5256 70.4428 44.798 70.3935 44.8569 70.3777L44.9359 70.0512C44.9147 70.056 44.8828 70.0634 44.8402 70.0531C44.7787 70.0382 44.7347 69.9925 44.7177 69.9383C44.7008 69.8841 44.6994 69.8487 44.7122 69.5262C44.7175 69.4423 44.6967 69.0315 44.7058 68.9937C44.731 68.8896 44.8299 68.8534 44.9056 68.8717C45.0003 68.8946 45.0986 69.0887 45.1442 69.1899L45.229 68.8397C45.3331 68.4091 45.6691 68.4904 45.9672 68.5625L46.89 68.7857L46.9232 68.6485C46.9793 68.4166 47.1323 68.3434 47.4446 68.419C47.8042 68.506 47.8304 68.6877 47.7892 68.858L47.756 68.9953L49.2892 69.3662C49.4454 69.404 49.4156 69.527 49.4042 69.5743C49.3698 69.7163 49.2753 69.7135 49.1949 69.694L46.1332 68.9533C46.0906 68.943 46.0398 68.9457 46.0204 69.0262Z" fill="#040000"/>
</g>
<defs>
<clipPath id="clip0_1347_10958">
<rect width="144.001" height="148.257" fill="white" transform="translate(27.999 26.1172)"/>
</clipPath>
</defs>
</svg>
