<svg width="200" height="200" viewBox="0 0 200 200" fill="none" xmlns="http://www.w3.org/2000/svg">
<mask id="path-1-outside-1_777_12522" maskUnits="userSpaceOnUse" x="8.00027" y="53.0002" width="183" height="99" fill="black">
<rect fill="white" x="8.00027" y="53.0002" width="183" height="99"/>
<path d="M90.8548 124.872C97.4933 124.872 102.875 129.52 102.875 135.253C102.875 140.987 97.4935 145.635 90.8548 145.635C84.2161 145.635 78.8343 140.987 78.8343 135.253C78.8346 129.52 84.2163 124.872 90.8548 124.872ZM138.937 124.872C145.575 124.872 150.957 129.52 150.957 135.253C150.957 140.987 145.575 145.635 138.937 145.635C132.298 145.635 126.916 140.987 126.916 135.253C126.917 129.52 132.298 124.872 138.937 124.872ZM123.148 64.092C124.458 61.8043 127.486 59.5078 129.371 60.092C131.287 60.6803 132.508 64.3878 132.256 67.0256C136.851 69.2214 140.7 72.2646 143.908 75.6701V75.6652C149.419 80.7995 153.559 89.6303 154.914 93.0529C156.712 97.2286 160.208 100.532 164.596 101.778C169.47 103.16 174.221 102.987 178.442 106.201C182.502 109.293 184.711 114.303 184.828 119.344C184.905 122.669 184.066 126.279 182.012 128.666L181.392 132.301C181.009 134.161 179.93 135.565 178.127 135.565H155.195C153.919 135.551 153.617 135.386 153.143 133.614L152.674 131.363H152.577C152.577 131.363 148.128 123.287 138.189 123.286C128.249 123.286 125.694 131.363 125.694 131.363H125.67C125.671 131.394 125.675 131.424 125.675 131.455V131.752C125.675 133.856 123.966 135.564 121.863 135.565H108.819C106.715 135.565 105.005 133.856 105.005 131.752V131.455C105.005 131.424 105.009 131.394 105.01 131.363H104.907C104.907 131.363 99.9521 122.898 90.5735 122.898C82.351 122.898 77.4389 129.405 76.3528 131.009L75.5559 133.614C75.1168 135.253 74.6996 135.62 72.9212 135.62H57.2854C55.5068 135.62 54.7932 134.707 54.0647 132.4L53.0257 128.983C51.8444 127.718 51.0159 126.064 50.5139 124.311H47.8147C46.6055 124.311 45.6186 123.33 45.6184 122.114V121.559C45.6185 120.349 46.5992 119.362 47.8147 119.362V119.368H49.9417C50.1689 114.304 52.8445 109.927 57.261 107.232C61.8021 104.461 67.2194 103.456 72.3343 102.333V102.32C75.2465 101.679 77.5605 99.4576 78.2825 96.5578C80.7999 86.4573 89.4443 63.4671 116.037 63.467C118.544 63.467 120.912 63.6869 123.148 64.092ZM31.6731 113.02C33.7153 108.547 34.9559 114.308 37.763 113.02C40.9219 111.57 42.8352 119.084 40.8304 121.077C38.8251 123.07 40.4659 120.541 35.9622 120.473C31.4643 120.405 29.6311 117.493 31.6731 113.02ZM17.0628 88.2277C20.37 84.9021 29.5083 86.1421 32.5872 87.7463C35.672 89.3506 38.0285 93.9844 37.387 96.6066H37.3811C36.7456 99.2288 34.1849 97.7052 32.4388 99.7287C30.6926 101.752 34.7275 106.023 29.5755 108.269C25.4605 110.064 28.1314 105.565 22.7141 105.103C16.9765 104.609 17.2226 100.334 16.1985 97.6808C15.1743 95.0277 13.7556 91.5534 17.0628 88.2277Z"/>
</mask>
<path d="M90.8548 124.872C97.4933 124.872 102.875 129.52 102.875 135.253C102.875 140.987 97.4935 145.635 90.8548 145.635C84.2161 145.635 78.8343 140.987 78.8343 135.253C78.8346 129.52 84.2163 124.872 90.8548 124.872ZM138.937 124.872C145.575 124.872 150.957 129.52 150.957 135.253C150.957 140.987 145.575 145.635 138.937 145.635C132.298 145.635 126.916 140.987 126.916 135.253C126.917 129.52 132.298 124.872 138.937 124.872ZM123.148 64.092C124.458 61.8043 127.486 59.5078 129.371 60.092C131.287 60.6803 132.508 64.3878 132.256 67.0256C136.851 69.2214 140.7 72.2646 143.908 75.6701V75.6652C149.419 80.7995 153.559 89.6303 154.914 93.0529C156.712 97.2286 160.208 100.532 164.596 101.778C169.47 103.16 174.221 102.987 178.442 106.201C182.502 109.293 184.711 114.303 184.828 119.344C184.905 122.669 184.066 126.279 182.012 128.666L181.392 132.301C181.009 134.161 179.93 135.565 178.127 135.565H155.195C153.919 135.551 153.617 135.386 153.143 133.614L152.674 131.363H152.577C152.577 131.363 148.128 123.287 138.189 123.286C128.249 123.286 125.694 131.363 125.694 131.363H125.67C125.671 131.394 125.675 131.424 125.675 131.455V131.752C125.675 133.856 123.966 135.564 121.863 135.565H108.819C106.715 135.565 105.005 133.856 105.005 131.752V131.455C105.005 131.424 105.009 131.394 105.01 131.363H104.907C104.907 131.363 99.9521 122.898 90.5735 122.898C82.351 122.898 77.4389 129.405 76.3528 131.009L75.5559 133.614C75.1168 135.253 74.6996 135.62 72.9212 135.62H57.2854C55.5068 135.62 54.7932 134.707 54.0647 132.4L53.0257 128.983C51.8444 127.718 51.0159 126.064 50.5139 124.311H47.8147C46.6055 124.311 45.6186 123.33 45.6184 122.114V121.559C45.6185 120.349 46.5992 119.362 47.8147 119.362V119.368H49.9417C50.1689 114.304 52.8445 109.927 57.261 107.232C61.8021 104.461 67.2194 103.456 72.3343 102.333V102.32C75.2465 101.679 77.5605 99.4576 78.2825 96.5578C80.7999 86.4573 89.4443 63.4671 116.037 63.467C118.544 63.467 120.912 63.6869 123.148 64.092ZM31.6731 113.02C33.7153 108.547 34.9559 114.308 37.763 113.02C40.9219 111.57 42.8352 119.084 40.8304 121.077C38.8251 123.07 40.4659 120.541 35.9622 120.473C31.4643 120.405 29.6311 117.493 31.6731 113.02ZM17.0628 88.2277C20.37 84.9021 29.5083 86.1421 32.5872 87.7463C35.672 89.3506 38.0285 93.9844 37.387 96.6066H37.3811C36.7456 99.2288 34.1849 97.7052 32.4388 99.7287C30.6926 101.752 34.7275 106.023 29.5755 108.269C25.4605 110.064 28.1314 105.565 22.7141 105.103C16.9765 104.609 17.2226 100.334 16.1985 97.6808C15.1743 95.0277 13.7556 91.5534 17.0628 88.2277Z" fill="#DADBDB"/>
<path d="M90.8548 124.872L90.8548 118.872L90.8547 118.872L90.8548 124.872ZM102.875 135.253L108.875 135.253L108.875 135.253L102.875 135.253ZM90.8548 145.635L90.8547 151.635H90.8548V145.635ZM78.8343 135.253L72.8343 135.253V135.253H78.8343ZM138.937 124.872L138.937 118.872H138.937V124.872ZM150.957 135.253L156.957 135.253L156.957 135.253L150.957 135.253ZM138.937 145.635L138.937 151.635L138.937 151.635L138.937 145.635ZM126.916 135.253L120.916 135.253V135.253H126.916ZM123.148 64.092L122.078 69.9959L126.248 70.7513L128.354 67.0742L123.148 64.092ZM129.371 60.092L127.596 65.8232L127.603 65.8254L127.61 65.8276L129.371 60.092ZM132.256 67.0256L126.283 66.4554L125.885 70.6307L129.669 72.4392L132.256 67.0256ZM143.908 75.6701L139.54 79.7838L149.908 90.7918V75.6701H143.908ZM143.908 75.6652L147.997 71.2752L137.908 61.875V75.6652H143.908ZM154.914 93.0529L149.336 95.2616L149.368 95.3442L149.404 95.4259L154.914 93.0529ZM164.596 101.778L162.957 107.549L162.959 107.55L164.596 101.778ZM178.442 106.201L174.806 110.975L174.807 110.975L178.442 106.201ZM184.828 119.344L190.827 119.205L190.827 119.204L184.828 119.344ZM182.012 128.666L177.464 124.752L176.378 126.015L176.097 127.657L182.012 128.666ZM181.392 132.301L187.269 133.511L187.289 133.411L187.306 133.31L181.392 132.301ZM155.195 135.565L155.131 141.564L155.163 141.565H155.195V135.565ZM153.143 133.614L147.269 134.838L147.303 135.004L147.347 135.167L153.143 133.614ZM152.674 131.363L158.548 130.14L157.553 125.363H152.674V131.363ZM152.577 131.363L147.322 134.258L149.032 137.363H152.577V131.363ZM138.189 123.286L138.189 117.286H138.189V123.286ZM125.694 131.363V137.363H130.089L131.414 133.173L125.694 131.363ZM125.67 131.363V125.363H119.447L119.674 131.582L125.67 131.363ZM125.675 131.455L131.675 131.455L131.675 131.454L125.675 131.455ZM125.675 131.752L131.675 131.753V131.752H125.675ZM121.863 135.565L121.863 141.565L121.863 141.565L121.863 135.565ZM105.005 131.752L99.0052 131.752L99.0052 131.753L105.005 131.752ZM105.005 131.455L99.0052 131.454V131.455H105.005ZM105.01 131.363L111.006 131.582L111.233 125.363H105.01V131.363ZM104.907 131.363L99.7281 134.394L101.466 137.363H104.907V131.363ZM90.5735 122.898L90.5735 116.898H90.5735V122.898ZM76.3528 131.009L71.3843 127.645L70.8789 128.392L70.6152 129.254L76.3528 131.009ZM75.5559 133.614L69.8183 131.86L69.7876 131.96L69.7604 132.062L75.5559 133.614ZM72.9212 135.62L72.9212 141.62L72.9214 141.62L72.9212 135.62ZM57.2854 135.62L57.2851 141.62H57.2854V135.62ZM54.0647 132.4L48.3243 134.145L48.3335 134.176L48.3431 134.206L54.0647 132.4ZM53.0257 128.983L58.7661 127.237L58.361 125.905L57.4105 124.887L53.0257 128.983ZM50.5139 124.311L56.2822 122.659L55.0371 118.311H50.5139V124.311ZM45.6184 122.114L39.6184 122.114L39.6184 122.115L45.6184 122.114ZM45.6184 121.559L39.6184 121.559V121.559H45.6184ZM47.8147 119.362H53.8147V113.362H47.8147V119.362ZM47.8147 119.368H41.8147V125.368H47.8147V119.368ZM49.9417 119.368V125.368H55.6784L55.9356 119.637L49.9417 119.368ZM57.261 107.232L54.1363 102.11L54.1357 102.11L57.261 107.232ZM72.3343 102.333L73.6209 108.194L78.3343 107.159V102.333H72.3343ZM72.3343 102.32L71.0432 96.461L66.3343 97.4986V102.32H72.3343ZM78.2825 96.5578L72.4606 95.1068L72.4602 95.1082L78.2825 96.5578ZM116.037 63.467L116.037 57.467L116.037 57.467L116.037 63.467ZM31.6731 113.02L26.2151 110.528L26.215 110.528L31.6731 113.02ZM37.763 113.02L35.2601 107.567L35.2598 107.567L37.763 113.02ZM40.8304 121.077L45.0599 125.333L45.0608 125.332L40.8304 121.077ZM35.9622 120.473L36.0528 114.474L36.0527 114.474L35.9622 120.473ZM17.0628 88.2277L12.8084 83.9968L12.8083 83.9969L17.0628 88.2277ZM32.5872 87.7463L29.8147 93.0673L29.8188 93.0694L32.5872 87.7463ZM37.387 96.6066V102.607H42.0961L43.2151 98.0324L37.387 96.6066ZM37.3811 96.6066V90.6066H32.6616L31.5499 95.1934L37.3811 96.6066ZM32.4388 99.7287L27.8962 95.8088L27.8959 95.8091L32.4388 99.7287ZM29.5755 108.269L27.1778 102.769L27.1764 102.769L29.5755 108.269ZM22.7141 105.103L22.1997 111.081L22.2035 111.081L22.7141 105.103ZM16.1985 97.6808L21.796 95.5202L21.7959 95.52L16.1985 97.6808ZM90.8548 124.872V130.872C95.0354 130.872 96.8752 133.629 96.8753 135.253L102.875 135.253L108.875 135.253C108.875 125.411 99.9512 118.872 90.8548 118.872V124.872ZM102.875 135.253H96.8753C96.8753 136.878 95.0352 139.635 90.8548 139.635V145.635V151.635C99.9518 151.635 108.875 145.095 108.875 135.253H102.875ZM90.8548 145.635L90.8548 139.635C86.6744 139.635 84.8343 136.878 84.8343 135.253H78.8343H72.8343C72.8343 145.095 81.7578 151.635 90.8547 151.635L90.8548 145.635ZM78.8343 135.253L84.8343 135.253C84.8343 133.629 86.6741 130.872 90.8548 130.872L90.8548 124.872L90.8547 118.872C81.7584 118.872 72.8348 125.411 72.8343 135.253L78.8343 135.253ZM138.937 124.872L138.937 130.872C143.117 130.872 144.957 133.629 144.957 135.253L150.957 135.253L156.957 135.253C156.957 125.411 148.033 118.872 138.937 118.872L138.937 124.872ZM150.957 135.253H144.957C144.957 136.878 143.117 139.635 138.937 139.635L138.937 145.635L138.937 151.635C148.034 151.635 156.957 145.095 156.957 135.253H150.957ZM138.937 145.635V139.635C134.756 139.635 132.916 136.878 132.916 135.253H126.916H120.916C120.916 145.095 129.84 151.635 138.937 151.635V145.635ZM126.916 135.253L132.916 135.253C132.916 133.629 134.756 130.872 138.937 130.872V124.872V118.872C129.84 118.872 120.917 125.411 120.916 135.253L126.916 135.253ZM123.148 64.092L128.354 67.0742C128.413 66.9707 128.55 66.7729 128.774 66.5353C128.994 66.3014 129.226 66.107 129.42 65.9752C129.633 65.8299 129.668 65.8494 129.494 65.9012C129.348 65.9443 128.615 66.1391 127.596 65.8232L129.371 60.092L131.147 54.3608C127.449 53.215 124.164 55.037 122.668 56.0549C120.823 57.3107 119.086 59.1123 117.941 61.1098L123.148 64.092ZM129.371 60.092L127.61 65.8276C126.575 65.5098 126.08 64.9247 125.993 64.817C125.885 64.6828 125.931 64.6976 126.029 64.9501C126.117 65.1799 126.199 65.4805 126.247 65.8009C126.296 66.1281 126.293 66.3586 126.283 66.4554L132.256 67.0256L138.229 67.5958C138.453 65.2533 138.036 62.7336 137.224 60.6303C136.808 59.5527 136.206 58.3654 135.338 57.2882C134.491 56.2374 133.125 54.9684 131.133 54.3564L129.371 60.092ZM132.256 67.0256L129.669 72.4392C133.486 74.2633 136.75 76.8222 139.54 79.7838L143.908 75.6701L148.275 71.5564C144.65 67.707 140.216 64.1796 134.843 61.612L132.256 67.0256ZM143.908 75.6701H149.908V75.6652H143.908H137.908V75.6701H143.908ZM143.908 75.6652L139.818 80.0553C144.302 84.2329 148.045 92.0015 149.336 95.2616L154.914 93.0529L160.493 90.8443C159.074 87.2591 154.535 77.3662 147.997 71.2752L143.908 75.6652ZM154.914 93.0529L149.404 95.4259C151.846 101.098 156.672 105.765 162.957 107.549L164.596 101.778L166.235 96.0057C163.745 95.2988 161.579 93.3589 160.425 90.6799L154.914 93.0529ZM164.596 101.778L162.959 107.55C164.44 107.97 165.862 108.258 167.098 108.493C168.407 108.743 169.405 108.918 170.427 109.151C172.348 109.591 173.657 110.099 174.806 110.975L178.442 106.201L182.077 101.428C179.006 99.089 175.829 98.0769 173.101 97.4532C171.799 97.1554 170.431 96.913 169.347 96.7061C168.188 96.4851 167.189 96.2761 166.233 96.0051L164.596 101.778ZM178.442 106.201L174.807 110.975C177.214 112.808 178.749 115.997 178.83 119.483L184.828 119.344L190.827 119.204C190.673 112.608 187.789 105.777 182.076 101.428L178.442 106.201ZM184.828 119.344L178.83 119.483C178.887 121.96 178.203 123.894 177.464 124.752L182.012 128.666L186.56 132.58C189.93 128.664 190.923 123.377 190.827 119.205L184.828 119.344ZM182.012 128.666L176.097 127.657L175.477 131.292L181.392 132.301L187.306 133.31L187.927 129.675L182.012 128.666ZM181.392 132.301L175.515 131.09C175.473 131.295 175.482 130.991 175.9 130.543C176.128 130.297 176.461 130.032 176.902 129.836C177.349 129.637 177.78 129.565 178.127 129.565V135.565V141.565C180.768 141.565 183.057 140.466 184.684 138.718C186.188 137.102 186.927 135.167 187.269 133.511L181.392 132.301ZM178.127 135.565V129.565H155.195V135.565V141.565H178.127V135.565ZM155.195 135.565L155.258 129.565C154.967 129.562 155.223 129.545 155.634 129.631C156.195 129.749 157.065 130.054 157.88 130.787C158.611 131.444 158.916 132.108 158.988 132.276C159.054 132.428 159.037 132.431 158.938 132.062L153.143 133.614L147.347 135.167C147.486 135.684 147.684 136.372 147.98 137.053C148.283 137.75 148.832 138.789 149.857 139.71C152.051 141.683 154.743 141.56 155.131 141.564L155.195 135.565ZM153.143 133.614L159.017 132.391L158.548 130.14L152.674 131.363L146.8 132.587L147.269 134.838L153.143 133.614ZM152.674 131.363V125.363H152.577V131.363V137.363H152.674V131.363ZM152.577 131.363C157.833 128.469 157.832 128.466 157.83 128.464C157.83 128.463 157.828 128.46 157.827 128.459C157.825 128.455 157.823 128.451 157.821 128.448C157.817 128.44 157.813 128.432 157.808 128.424C157.798 128.407 157.788 128.387 157.776 128.366C157.751 128.324 157.722 128.274 157.688 128.217C157.621 128.102 157.532 127.957 157.423 127.787C157.206 127.446 156.904 127 156.513 126.483C155.737 125.456 154.583 124.114 153.016 122.77C149.853 120.058 144.921 117.286 138.189 117.286L138.189 123.286L138.189 129.286C141.397 129.286 143.659 130.554 145.205 131.88C145.993 132.556 146.572 133.232 146.941 133.72C147.122 133.96 147.246 134.145 147.31 134.246C147.342 134.297 147.36 134.325 147.362 134.329C147.363 134.33 147.36 134.326 147.353 134.314C147.35 134.308 147.346 134.301 147.34 134.292C147.338 134.287 147.335 134.282 147.332 134.276C147.33 134.274 147.329 134.271 147.327 134.268C147.326 134.266 147.325 134.264 147.325 134.263C147.323 134.261 147.322 134.258 152.577 131.363ZM138.189 123.286V117.286C131.36 117.286 126.701 120.147 123.824 123.235C122.44 124.72 121.516 126.2 120.928 127.327C120.632 127.895 120.414 128.388 120.26 128.768C120.183 128.958 120.122 129.122 120.075 129.254C120.051 129.32 120.031 129.378 120.014 129.428C120.006 129.453 119.998 129.476 119.991 129.497C119.988 129.508 119.985 129.518 119.982 129.527C119.98 129.532 119.979 129.537 119.977 129.541C119.976 129.543 119.975 129.546 119.975 129.548C119.974 129.551 119.973 129.554 125.694 131.363C131.414 133.173 131.413 133.176 131.412 133.179C131.412 133.18 131.411 133.183 131.41 133.185C131.409 133.189 131.408 133.193 131.407 133.197C131.404 133.204 131.402 133.211 131.4 133.218C131.396 133.231 131.392 133.242 131.388 133.252C131.382 133.272 131.377 133.285 131.375 133.292C131.37 133.306 131.373 133.296 131.386 133.265C131.411 133.203 131.47 133.065 131.568 132.876C131.77 132.488 132.106 131.949 132.604 131.415C133.489 130.464 135.077 129.286 138.189 129.286V123.286ZM125.694 131.363V125.363H125.67V131.363V137.363H125.694V131.363ZM125.67 131.363L119.674 131.582C119.678 131.674 119.682 131.747 119.685 131.786C119.686 131.806 119.687 131.822 119.688 131.829C119.689 131.841 119.688 131.834 119.688 131.832C119.688 131.826 119.684 131.781 119.681 131.722C119.679 131.661 119.675 131.569 119.675 131.456L125.675 131.455L131.675 131.454C131.675 131.326 131.671 131.219 131.667 131.142C131.664 131.068 131.66 131.008 131.658 130.986C131.657 130.977 131.656 130.963 131.657 130.967C131.657 130.967 131.657 130.967 131.657 130.967C131.657 130.967 131.657 130.968 131.657 130.968C131.657 130.969 131.657 130.97 131.657 130.972C131.657 130.975 131.658 130.98 131.658 130.987C131.66 131.01 131.663 131.068 131.666 131.145L125.67 131.363ZM125.675 131.455H119.675V131.752H125.675H131.675V131.455H125.675ZM125.675 131.752L119.675 131.752C119.675 130.542 120.653 129.565 121.862 129.565L121.863 135.565L121.863 141.565C127.28 141.564 131.675 137.17 131.675 131.753L125.675 131.752ZM121.863 135.565V129.565H108.819V135.565V141.565H121.863V135.565ZM108.819 135.565V129.565C110.027 129.565 111.005 130.541 111.005 131.752L105.005 131.752L99.0052 131.753C99.0055 137.171 103.403 141.565 108.819 141.565V135.565ZM105.005 131.752H111.005V131.455H105.005H99.0052V131.752H105.005ZM105.005 131.455L111.005 131.456C111.005 131.569 111.002 131.661 110.999 131.722C110.996 131.781 110.993 131.826 110.992 131.832C110.992 131.834 110.992 131.841 110.993 131.829C110.993 131.822 110.994 131.806 110.995 131.786C110.998 131.747 111.003 131.674 111.006 131.582L105.01 131.363L99.014 131.145C99.0168 131.069 99.0206 131.01 99.0221 130.987C99.0226 130.98 99.0229 130.975 99.0232 130.972C99.0233 130.97 99.0234 130.969 99.0234 130.968C99.0234 130.968 99.0235 130.967 99.0235 130.967C99.0235 130.967 99.0235 130.967 99.0235 130.967C99.0238 130.963 99.0228 130.977 99.0221 130.986C99.0206 131.008 99.0164 131.068 99.0128 131.142C99.0091 131.218 99.0052 131.326 99.0052 131.454L105.005 131.455ZM105.01 131.363V125.363H104.907V131.363V137.363H105.01V131.363ZM104.907 131.363C110.085 128.333 110.084 128.331 110.082 128.329C110.082 128.328 110.081 128.326 110.08 128.324C110.078 128.321 110.076 128.318 110.074 128.315C110.07 128.308 110.066 128.301 110.061 128.293C110.052 128.278 110.042 128.26 110.03 128.241C110.006 128.201 109.977 128.154 109.943 128.099C109.875 127.989 109.784 127.847 109.673 127.679C109.45 127.344 109.139 126.899 108.74 126.381C107.948 125.351 106.774 123.99 105.215 122.621C102.114 119.899 97.1805 116.898 90.5735 116.898L90.5735 122.898L90.5735 128.898C93.3451 128.898 95.5776 130.129 97.2987 131.64C98.1504 132.387 98.8019 133.143 99.2316 133.701C99.4434 133.976 99.5928 134.192 99.6777 134.32C99.7199 134.383 99.7455 134.424 99.7541 134.438C99.7584 134.445 99.7584 134.445 99.7541 134.438C99.752 134.434 99.7487 134.429 99.7444 134.422C99.7422 134.418 99.7398 134.414 99.7371 134.409C99.7357 134.407 99.7343 134.405 99.7328 134.402C99.7321 134.401 99.7309 134.399 99.7305 134.398C99.7293 134.396 99.7281 134.394 104.907 131.363ZM90.5735 122.898V116.898C79.1067 116.898 72.6253 125.812 71.3843 127.645L76.3528 131.009L81.3213 134.373C82.2524 132.997 85.5952 128.898 90.5735 128.898V122.898ZM76.3528 131.009L70.6152 129.254L69.8183 131.86L75.5559 133.614L81.2936 135.369L82.0905 132.764L76.3528 131.009ZM75.5559 133.614L69.7604 132.062C69.6815 132.356 69.6895 132.25 69.812 131.998C69.9655 131.682 70.3338 131.058 71.0581 130.495C71.783 129.932 72.4793 129.728 72.8296 129.657C73.1132 129.599 73.2177 129.62 72.921 129.62L72.9212 135.62L72.9214 141.62C73.8345 141.62 76.2858 141.631 78.4234 139.969C80.5486 138.317 81.1427 135.947 81.3515 135.167L75.5559 133.614ZM72.9212 135.62V129.62H57.2854V135.62V141.62H72.9212V135.62ZM57.2854 135.62L57.2858 129.62C57.3408 129.62 57.707 129.626 58.219 129.815C58.7814 130.024 59.2679 130.361 59.6276 130.739C59.9436 131.071 60.0546 131.322 60.0328 131.277C60.0091 131.227 59.9266 131.037 59.7863 130.593L54.0647 132.4L48.3431 134.206C48.7335 135.443 49.4206 137.42 50.935 139.012C52.843 141.016 55.2159 141.62 57.2851 141.62L57.2854 135.62ZM54.0647 132.4L59.8052 130.654L58.7661 127.237L53.0257 128.983L47.2852 130.728L48.3243 134.145L54.0647 132.4ZM53.0257 128.983L57.4105 124.887C57.0315 124.481 56.5931 123.745 56.2822 122.659L50.5139 124.311L44.7457 125.962C45.4387 128.383 46.6573 130.954 48.6408 133.078L53.0257 128.983ZM50.5139 124.311V118.311H47.8147V124.311V130.311H50.5139V124.311ZM47.8147 124.311V118.311C49.9091 118.311 51.6181 120.006 51.6184 122.114L45.6184 122.114L39.6184 122.115C39.6191 126.654 43.3019 130.311 47.8147 130.311V124.311ZM45.6184 122.114H51.6184V121.559H45.6184H39.6184V122.114H45.6184ZM45.6184 121.559L51.6184 121.559C51.6184 123.652 49.924 125.362 47.8147 125.362V119.362V113.362C43.2745 113.362 39.6185 117.047 39.6184 121.559L45.6184 121.559ZM47.8147 119.362H41.8147V119.368H47.8147H53.8147V119.362H47.8147ZM47.8147 119.368V125.368H49.9417V119.368V113.368H47.8147V119.368ZM49.9417 119.368L55.9356 119.637C56.0692 116.66 57.5927 114.058 60.3863 112.353L57.261 107.232L54.1357 102.11C48.0962 105.795 44.2686 111.948 43.9477 119.099L49.9417 119.368ZM57.261 107.232L60.3858 112.354C63.8708 110.228 68.11 109.403 73.6209 108.194L72.3343 102.333L71.0477 96.4728C66.3288 97.5087 59.7334 98.695 54.1363 102.11L57.261 107.232ZM72.3343 102.333H78.3343V102.32H72.3343H66.3343V102.333H72.3343ZM72.3343 102.32L73.6253 108.18C78.7299 107.055 82.8242 103.151 84.1048 98.0074L78.2825 96.5578L72.4602 95.1082C72.2969 95.7645 71.763 96.3024 71.0432 96.461L72.3343 102.32ZM78.2825 96.5578L84.1044 98.0088C85.2602 93.3717 87.7661 86.0787 92.7544 80.0495C97.5714 74.2275 104.761 69.467 116.037 69.467L116.037 63.467L116.037 57.467C100.72 57.467 90.2915 64.2018 83.5087 72.4C76.8972 80.3911 73.8223 89.6435 72.4606 95.1068L78.2825 96.5578ZM116.037 63.467V69.467C118.191 69.467 120.201 69.6558 122.078 69.9959L123.148 64.092L124.217 58.1881C121.623 57.7181 118.897 57.467 116.037 57.467V63.467ZM31.6731 113.02L37.1312 115.512C37.2636 115.222 37.2304 115.381 36.9549 115.701C36.656 116.048 35.8689 116.813 34.5119 117.143C33.108 117.485 31.9588 117.155 31.3624 116.895C30.86 116.676 30.5951 116.442 30.7235 116.543C30.7634 116.574 30.8186 116.619 30.9428 116.723C31.0471 116.809 31.2181 116.952 31.3984 117.096C31.75 117.377 32.3416 117.83 33.0948 118.231C33.8719 118.644 34.9518 119.075 36.282 119.186C37.6626 119.3 39.0193 119.045 40.2662 118.473L37.763 113.02L35.2598 107.567C36.6701 106.919 38.0686 107.284 38.734 107.638C38.9442 107.75 39.0233 107.828 38.8837 107.717C38.8182 107.665 38.7489 107.607 38.617 107.497C38.505 107.404 38.3282 107.257 38.1389 107.108C37.8092 106.849 37.0981 106.304 36.1522 105.892C35.1123 105.44 33.5223 105.033 31.671 105.484C29.8667 105.924 28.6257 106.982 27.857 107.876C27.1119 108.742 26.5932 109.7 26.2151 110.528L31.6731 113.02ZM37.763 113.02L40.2658 118.473C39.6048 118.776 38.6932 118.95 37.7 118.75C36.7699 118.563 36.1558 118.127 35.8486 117.851C35.6926 117.711 35.5909 117.592 35.5333 117.517C35.475 117.442 35.4467 117.393 35.4406 117.383C35.4325 117.369 35.4697 117.433 35.5183 117.585C35.6274 117.926 35.6595 118.276 35.6502 118.442C35.6462 118.515 35.6416 118.408 35.7214 118.173C35.7972 117.949 36.0223 117.397 36.5999 116.823L40.8304 121.077L45.0608 125.332C47.1179 123.287 47.5472 120.637 47.6319 119.105C47.7291 117.347 47.4613 115.535 46.9479 113.929C46.4659 112.423 45.5566 110.441 43.8651 108.922C42.9656 108.114 41.6995 107.314 40.068 106.986C38.3733 106.645 36.7108 106.901 35.2601 107.567L37.763 113.02ZM40.8304 121.077L36.6008 116.822C36.3911 117.03 36.4043 117.001 36.5423 116.893C36.6223 116.831 36.8225 116.68 37.1212 116.515C37.4199 116.35 37.9289 116.109 38.6136 115.963C39.3465 115.808 40.1708 115.788 41.0201 115.976C41.8371 116.158 42.4521 116.483 42.8434 116.734C43.209 116.97 43.4506 117.189 43.512 117.245C43.5617 117.29 43.6196 117.347 43.513 117.243C43.3628 117.098 43.0025 116.748 42.4988 116.379C41.9823 116.001 41.3797 115.646 40.6734 115.348C39.2754 114.758 37.7306 114.499 36.0528 114.474L35.9622 120.473L35.8716 126.472C36.4456 126.481 36.3846 126.563 36.0082 126.404C35.8128 126.322 35.6055 126.205 35.4071 126.06C35.2214 125.924 35.1019 125.802 35.1534 125.853C35.1541 125.853 35.2095 125.907 35.2398 125.936C35.2807 125.976 35.3496 126.042 35.4325 126.117C35.58 126.252 35.9027 126.538 36.3492 126.825C37.4795 127.553 39.1561 128.115 41.1006 127.703C42.5631 127.393 43.5604 126.638 43.918 126.359C44.3678 126.009 44.7683 125.623 45.0599 125.333L40.8304 121.077ZM35.9622 120.473L36.0527 114.474C35.5396 114.466 35.4409 114.378 35.5979 114.45C35.8008 114.543 36.2146 114.811 36.5314 115.347C36.8405 115.87 36.8454 116.29 36.8419 116.36C36.8401 116.396 36.8514 116.124 37.1313 115.511L31.6731 113.02L26.215 110.528C24.8002 113.627 24.0131 117.749 26.1991 121.45C28.4443 125.251 32.5101 126.421 35.8717 126.472L35.9622 120.473ZM17.0628 88.2277L21.3171 92.4586C21.0691 92.7081 21.0752 92.5431 21.8412 92.3606C22.5515 92.1914 23.5428 92.0991 24.7262 92.1355C25.8879 92.1712 27.0597 92.3254 28.0603 92.5417C28.5561 92.6488 28.974 92.7635 29.2998 92.8705C29.4611 92.9234 29.5873 92.9704 29.6802 93.0082C29.7752 93.0469 29.8169 93.0684 29.8147 93.0673L32.5872 87.7463L35.3597 82.4252C32.7377 81.0591 28.6975 80.252 25.0951 80.1412C23.1957 80.0827 21.0898 80.2038 19.0603 80.6873C17.0864 81.1575 14.7101 82.0846 12.8084 83.9968L17.0628 88.2277ZM32.5872 87.7463L29.8188 93.0694C29.8188 93.0694 29.8197 93.0699 29.8215 93.0709C29.8232 93.0719 29.8258 93.0733 29.8293 93.0754C29.8362 93.0795 29.8463 93.0856 29.8594 93.0942C29.8858 93.1116 29.9224 93.1375 29.9682 93.174C30.0615 93.2482 30.1791 93.3553 30.3125 93.5004C30.5865 93.7982 30.8597 94.1833 31.0838 94.6058C31.3113 95.0349 31.4301 95.3927 31.4767 95.6084C31.5337 95.8722 31.4362 95.6823 31.5589 95.1808L37.387 96.6066L43.2151 98.0324C44.045 94.6401 42.8714 91.2204 41.6852 88.9836C40.4138 86.5862 38.2927 83.9506 35.3556 82.4231L32.5872 87.7463ZM37.387 96.6066V90.6066H37.3811V96.6066V102.607H37.387V96.6066ZM37.3811 96.6066L31.5499 95.1934C31.5945 95.0095 31.7085 94.6458 31.9804 94.214C32.2655 93.7612 32.643 93.3628 33.0744 93.0514C33.8229 92.511 34.4904 92.4356 34.0763 92.5239C33.7469 92.594 30.35 92.9653 27.8962 95.8088L32.4388 99.7287L36.9813 103.649C36.2736 104.469 35.0302 104.59 36.5766 104.26C37.1003 104.149 38.6363 103.836 40.0983 102.781C41.8123 101.544 42.7787 99.809 43.2123 98.0198L37.3811 96.6066ZM32.4388 99.7287L27.8959 95.8091C25.881 98.1445 25.9061 100.81 25.9949 102.035C26.0418 102.681 26.1407 103.301 26.1956 103.653C26.2634 104.088 26.2933 104.288 26.3093 104.462C26.3409 104.808 26.2283 104.301 26.5832 103.59C26.9948 102.766 27.5377 102.612 27.1778 102.769L29.5755 108.269L31.9731 113.769C34.1892 112.803 36.1598 111.272 37.3185 108.953C38.4204 106.746 38.3742 104.624 38.2594 103.369C38.2021 102.742 38.1056 102.145 38.0522 101.803C37.9859 101.378 37.9689 101.241 37.9635 101.167C37.9479 100.952 38.1234 102.325 36.9816 103.648L32.4388 99.7287ZM29.5755 108.269L27.1764 102.769C26.924 102.879 27.0624 102.787 27.4631 102.729C27.9249 102.662 28.8362 102.63 29.8876 103.079C30.9368 103.528 31.5449 104.209 31.8044 104.551C31.9893 104.795 32.0887 105.004 31.8977 104.654C31.6437 104.19 30.8514 102.643 29.2321 101.353C27.5302 99.9965 25.4743 99.3166 23.2248 99.1245L22.7141 105.103L22.2035 111.081C22.6626 111.12 22.3043 111.176 21.7538 110.737C21.2859 110.365 21.0987 109.917 21.3686 110.411C21.4394 110.54 21.7804 111.193 22.2447 111.805C22.7835 112.515 23.7087 113.488 25.1707 114.113C28.0399 115.34 30.724 114.314 31.9746 113.768L29.5755 108.269ZM22.7141 105.103L23.2286 99.1248C22.5379 99.0654 22.4641 98.9328 22.653 99.0537C22.8717 99.1936 22.98 99.3726 22.977 99.367C22.9274 99.2744 22.825 99.034 22.6352 98.3294C22.5876 98.1528 22.4093 97.4654 22.3214 97.1467C22.1982 96.6996 22.0288 96.1234 21.796 95.5202L16.1985 97.6808L10.6011 99.8415C10.7063 100.114 10.7517 100.35 11.0484 101.451C11.2797 102.31 11.6665 103.667 12.4005 105.036C13.1812 106.493 14.3678 107.999 16.1861 109.162C17.9745 110.306 20.0216 110.893 22.1997 111.081L22.7141 105.103ZM16.1985 97.6808L21.7959 95.52C21.5157 94.7943 21.3286 94.312 21.1831 93.8272C21.0454 93.3686 21.0072 93.098 21.0009 92.9494C20.9958 92.8324 21.0112 92.829 20.9998 92.8591C20.9877 92.8912 21.0249 92.7525 21.3172 92.4585L17.0628 88.2277L12.8083 83.9969C9.92523 86.8961 8.87381 90.2445 9.01187 93.4636C9.13115 96.2448 10.1704 98.7259 10.6011 99.8417L16.1985 97.6808Z" fill="white" mask="url(#path-1-outside-1_777_12522)"/>
<path d="M47.8146 119.368H54.2192V124.311H47.8146C46.6052 124.311 45.618 123.33 45.618 122.114V121.559C45.618 120.35 46.5991 119.362 47.8146 119.362V119.368Z" fill="#878787"/>
<path d="M35.9618 120.473C31.4638 120.405 29.6312 117.493 31.6735 113.019C33.7159 108.546 34.956 114.309 37.7635 113.019C40.9226 111.569 42.8353 119.085 40.83 121.078C38.8247 123.071 40.466 120.541 35.9618 120.473Z" fill="#D8D8D8"/>
<path d="M37.3871 96.6069C38.0288 93.9846 35.6718 89.3508 32.5867 87.7466C29.5078 86.1424 20.3699 84.9022 17.0627 88.2279C13.7555 91.5536 15.1747 95.0274 16.1989 97.6805C17.2231 100.334 16.9763 104.61 22.7145 105.103C28.1319 105.566 25.4602 110.064 29.5757 108.268C34.7278 106.023 30.6925 101.753 32.4386 99.729C34.1848 97.7052 36.7454 99.2292 37.3809 96.6069H37.3871Z" fill="#D8D8D8"/>
<path d="M72.9208 129.019H57.2857C55.5069 129.019 52.6079 125.825 52.6079 127.604L54.0649 132.4C54.7934 134.707 55.5069 135.621 57.2857 135.621H72.9208C74.6996 135.621 75.1169 135.254 75.5561 133.614L76.6488 130.043C76.6488 128.264 74.6996 129.019 72.9208 129.019Z" fill="#928379"/>
<path d="M107.486 128.963H123.183C124.558 128.963 125.675 130.08 125.675 131.456V131.752C125.675 133.856 123.966 135.565 121.862 135.565H108.819C106.714 135.565 105.005 133.856 105.005 131.752V131.456C105.005 130.08 106.122 128.963 107.498 128.963H107.486Z" fill="#928379"/>
<path d="M178.127 128.963H155.804C154.001 128.963 152.54 128.918 152.54 130.721L153.143 133.614C153.685 135.639 154.001 135.565 155.804 135.565H178.127C179.93 135.565 181.008 134.161 181.391 132.301L182.101 128.151C182.101 126.348 179.93 128.963 178.127 128.963Z" fill="#928379"/>
<path d="M72.3346 102.32C75.2469 101.679 77.5607 99.4575 78.2826 96.5576C80.8 86.4571 89.4444 63.4672 116.038 63.4672C138.503 63.4672 149.794 81.0212 154.885 92.9851C156.674 97.1931 160.185 100.525 164.596 101.777C169.471 103.16 174.222 102.987 178.442 106.201C182.502 109.293 184.711 114.303 184.828 119.344C184.958 124.946 182.49 131.363 175.98 131.363H152.577C152.577 131.363 148.128 123.287 138.188 123.287C128.248 123.287 125.694 131.363 125.694 131.363H104.907C104.907 131.363 99.9521 122.898 90.5735 122.898C81.1949 122.898 76.1231 131.363 76.1231 131.363H58.4765C52.8617 131.363 50.1839 125.767 49.9433 120.855C49.6656 115.167 52.4175 110.187 57.261 107.232C61.8022 104.461 67.2196 103.456 72.3346 102.333V102.32Z" fill="#4B98E6"/>
<path d="M112.71 77.8832C115.728 77.8832 118.174 75.437 118.174 72.4194C118.174 69.4018 115.728 66.9555 112.71 66.9555C109.693 66.9555 107.246 69.4018 107.246 72.4194C107.246 75.437 109.693 77.8832 112.71 77.8832Z" fill="white"/>
<path d="M112.71 75.3339C114.32 75.3339 115.625 74.029 115.625 72.4195C115.625 70.8099 114.32 69.5051 112.71 69.5051C111.101 69.5051 109.796 70.8099 109.796 72.4195C109.796 74.029 111.101 75.3339 112.71 75.3339Z" fill="#040000"/>
<path d="M138.937 145.635C145.575 145.635 150.957 140.987 150.957 135.254C150.957 129.52 145.575 124.872 138.937 124.872C132.298 124.872 126.916 129.52 126.916 135.254C126.916 140.987 132.298 145.635 138.937 145.635Z" fill="#D1D1D1"/>
<path d="M138.937 140.171C141.954 140.171 144.401 138.214 144.401 135.8C144.401 133.386 141.954 131.429 138.937 131.429C135.919 131.429 133.473 133.386 133.473 135.8C133.473 138.214 135.919 140.171 138.937 140.171Z" fill="#595959"/>
<path d="M90.8549 145.635C97.4936 145.635 102.875 140.987 102.875 135.254C102.875 129.52 97.4936 124.872 90.8549 124.872C84.2161 124.872 78.8344 129.52 78.8344 135.254C78.8344 140.987 84.2161 145.635 90.8549 145.635Z" fill="#D1D1D1"/>
<path d="M90.8548 140.171C93.8724 140.171 96.3187 138.214 96.3187 135.8C96.3187 133.386 93.8724 131.429 90.8548 131.429C87.8372 131.429 85.391 133.386 85.391 135.8C85.391 138.214 87.8372 140.171 90.8548 140.171Z" fill="#595959"/>
<path d="M122.658 65.1887C123.448 62.6219 127.181 59.4134 129.371 60.0921C131.562 60.7647 132.845 65.5157 132.055 68.0825C131.265 70.6492 129.192 72.2905 125.928 71.2847C122.627 70.2667 121.874 67.7554 122.664 65.1887H122.658Z" fill="#E8BE0F"/>
<path d="M143.908 75.6717C143.908 75.6717 135.467 78.9974 132.283 81.3852C129.106 83.773 136.319 96.1935 138.824 99.1428C141.335 102.098 155.199 93.6761 154.977 93.2071C153.689 89.9037 149.504 80.8792 143.908 75.6655V75.6717Z" fill="#DADBDB"/>
</svg>
