<svg width="200" height="200" viewBox="0 0 200 200" fill="none" xmlns="http://www.w3.org/2000/svg">
<mask id="path-1-outside-1_922_9156" maskUnits="userSpaceOnUse" x="24.8701" y="19.625" width="153" height="161" fill="black">
<rect fill="white" x="24.8701" y="19.625" width="153" height="161"/>
<path d="M127.571 25.625C145.899 26.05 154.559 48.5218 141.597 61.4844L139.09 63.9902C148.217 71.2418 154.731 81.6457 157.004 93.5723L171.082 156.685C171.295 157.641 171.401 158.704 171.454 159.767C171.454 167.841 164.92 174.376 156.845 174.376C151.851 174.376 147.495 171.878 144.839 168.106C143.83 166.619 141.651 166.619 140.589 168.106C137.933 171.878 133.523 174.376 128.582 174.376C123.588 174.376 119.232 171.878 116.576 168.106C115.567 166.619 113.389 166.619 112.326 168.106C109.67 171.878 105.261 174.376 100.32 174.376C95.3266 174.376 90.9697 171.878 88.3135 168.106C87.304 166.619 85.1259 166.619 84.0635 168.106C81.3541 171.931 76.9449 174.429 71.9512 174.376C63.8765 174.323 57.4485 167.576 57.4482 159.501V149.934L57.4463 149.938C57.4463 154.612 53.6744 158.438 48.9463 158.438C42.8901 158.437 38.7996 152.275 41.084 146.644L45.1748 136.869C46.4498 133.841 49.3713 131.875 52.665 131.875H57.4463L57.4482 131.877V131.874H56.5449C47.8324 131.874 37.8441 126.987 32.7441 121.834C32.0187 121.109 31.42 120.282 31.1445 119.403L31.1338 119.4C30.7768 118.316 30.7653 117.155 31.2041 116.044L32.7441 112.219C37.1535 101.275 47.0349 93.6788 58.5098 92.085C58.6695 92.0637 58.828 92.0526 58.9844 92.0498C59.0559 91.7634 59.1298 91.4779 59.206 91.1934C55.12 87.6018 52.4478 82.425 52.1865 76.6777C51.7617 66.956 58.0841 58.6158 66.8496 56.0127C68.6027 55.4814 69.7715 53.8873 69.7715 52.0811V52.0283C69.7715 40.6596 78.9623 31.4688 90.331 31.4688C93.3057 31.4688 96.1211 32.1062 98.6709 33.2217C102.708 35.0279 107.49 34.3373 110.89 31.4688C115.193 27.8563 120.771 25.6782 126.827 25.625H127.571Z"/>
</mask>
<path d="M127.571 25.625C145.899 26.05 154.559 48.5218 141.597 61.4844L139.09 63.9902C148.217 71.2418 154.731 81.6457 157.004 93.5723L171.082 156.685C171.295 157.641 171.401 158.704 171.454 159.767C171.454 167.841 164.92 174.376 156.845 174.376C151.851 174.376 147.495 171.878 144.839 168.106C143.83 166.619 141.651 166.619 140.589 168.106C137.933 171.878 133.523 174.376 128.582 174.376C123.588 174.376 119.232 171.878 116.576 168.106C115.567 166.619 113.389 166.619 112.326 168.106C109.67 171.878 105.261 174.376 100.32 174.376C95.3266 174.376 90.9697 171.878 88.3135 168.106C87.304 166.619 85.1259 166.619 84.0635 168.106C81.3541 171.931 76.9449 174.429 71.9512 174.376C63.8765 174.323 57.4485 167.576 57.4482 159.501V149.934L57.4463 149.938C57.4463 154.612 53.6744 158.438 48.9463 158.438C42.8901 158.437 38.7996 152.275 41.084 146.644L45.1748 136.869C46.4498 133.841 49.3713 131.875 52.665 131.875H57.4463L57.4482 131.877V131.874H56.5449C47.8324 131.874 37.8441 126.987 32.7441 121.834C32.0187 121.109 31.42 120.282 31.1445 119.403L31.1338 119.4C30.7768 118.316 30.7653 117.155 31.2041 116.044L32.7441 112.219C37.1535 101.275 47.0349 93.6788 58.5098 92.085C58.6695 92.0637 58.828 92.0526 58.9844 92.0498C59.0559 91.7634 59.1298 91.4779 59.206 91.1934C55.12 87.6018 52.4478 82.425 52.1865 76.6777C51.7617 66.956 58.0841 58.6158 66.8496 56.0127C68.6027 55.4814 69.7715 53.8873 69.7715 52.0811V52.0283C69.7715 40.6596 78.9623 31.4688 90.331 31.4688C93.3057 31.4688 96.1211 32.1062 98.6709 33.2217C102.708 35.0279 107.49 34.3373 110.89 31.4688C115.193 27.8563 120.771 25.6782 126.827 25.625H127.571Z" fill="black"/>
<path d="M127.571 25.625L127.71 19.6266L127.641 19.625H127.571V25.625ZM141.597 61.4844L145.838 65.7278L145.839 65.727L141.597 61.4844ZM139.09 63.9902L134.848 59.7468L130.09 64.503L135.357 68.688L139.09 63.9902ZM157.004 93.5723L151.11 94.6956L151.127 94.7874L151.148 94.8785L157.004 93.5723ZM171.082 156.685L176.939 155.383L176.938 155.378L171.082 156.685ZM171.454 159.767L177.454 159.767L177.454 159.617L177.447 159.467L171.454 159.767ZM156.845 174.376L156.845 180.376H156.845V174.376ZM144.839 168.106L139.874 171.476L139.903 171.519L139.933 171.561L144.839 168.106ZM140.589 168.106L135.707 164.618L135.695 164.635L135.683 164.652L140.589 168.106ZM128.582 174.376L128.582 180.376H128.582V174.376ZM116.576 168.106L111.612 171.476L111.641 171.519L111.671 171.561L116.576 168.106ZM112.326 168.106L107.444 164.619L107.432 164.635L107.421 164.652L112.326 168.106ZM100.32 174.376L100.32 180.376L100.32 180.376L100.32 174.376ZM88.3135 168.106L83.3492 171.476L83.3781 171.519L83.4078 171.561L88.3135 168.106ZM84.0635 168.106L79.1813 164.619L79.1743 164.629L79.1673 164.638L84.0635 168.106ZM71.9512 174.376L72.015 168.376L72.0028 168.376L71.9906 168.376L71.9512 174.376ZM57.4482 159.501L51.4482 159.501L51.4482 159.501L57.4482 159.501ZM57.4482 149.934H63.4482V124.517L52.0817 147.25L57.4482 149.934ZM57.4463 149.938L52.0797 147.254L51.4463 148.521L51.4463 149.937L57.4463 149.938ZM48.9463 158.438L48.9462 164.438H48.9463V158.438ZM41.084 146.644L35.5492 144.327L35.5364 144.358L35.524 144.388L41.084 146.644ZM45.1748 136.869L39.645 134.541L39.64 134.553L45.1748 136.869ZM52.665 131.875L52.665 125.875L52.665 125.875L52.665 131.875ZM57.4463 131.875L61.6889 127.632L59.9316 125.875H57.4463V131.875ZM57.4482 131.877L53.2056 136.12L63.4482 146.362V131.877H57.4482ZM57.4482 131.874H63.4482V125.874H57.4482V131.874ZM32.7441 121.834L37.0087 117.613L36.9978 117.602L36.9868 117.591L32.7441 121.834ZM31.1445 119.403L36.8695 117.608L35.8878 114.478L32.7232 113.615L31.1445 119.403ZM31.1338 119.4L25.4347 121.277L26.4432 124.34L29.5551 125.189L31.1338 119.4ZM31.2041 116.044L25.6382 113.803L25.6307 113.822L25.6234 113.84L31.2041 116.044ZM32.7441 112.219L27.1789 109.976L27.1783 109.978L32.7441 112.219ZM58.5098 92.085L57.7168 86.1376L57.7005 86.1398L57.6843 86.142L58.5098 92.085ZM58.9844 92.0498L59.0912 98.0489L63.6912 97.967L64.8057 93.5032L58.9844 92.0498ZM59.206 91.1934L65.0015 92.7467L65.9663 89.1471L63.1672 86.6868L59.206 91.1934ZM52.1865 76.6777L46.1922 76.9397L46.1927 76.9502L52.1865 76.6777ZM66.8496 56.0127L68.5577 61.7644L68.5737 61.7597L68.5898 61.7548L66.8496 56.0127ZM90.331 31.4688L90.3311 25.4688H90.331V31.4688ZM98.6709 33.2217L101.121 27.7448L101.098 27.7346L101.076 27.7247L98.6709 33.2217ZM110.89 31.4688L107.032 26.8734L107.026 26.8781L107.021 26.8829L110.89 31.4688ZM126.827 25.625V19.625H126.801L126.774 19.6252L126.827 25.625ZM127.571 25.625L127.432 31.6234C140.276 31.9212 146.731 47.8646 137.354 57.2418L141.597 61.4844L145.839 65.727C162.387 49.179 151.523 20.1788 127.71 19.6266L127.571 25.625ZM141.597 61.4844L137.355 57.2409L134.848 59.7468L139.09 63.9902L143.332 68.2337L145.838 65.7278L141.597 61.4844ZM139.09 63.9902L135.357 68.688C143.39 75.0697 149.113 84.2188 151.11 94.6956L157.004 93.5723L162.898 92.449C160.348 79.0727 153.044 67.4139 142.822 59.2925L139.09 63.9902ZM157.004 93.5723L151.148 94.8785L165.226 157.991L171.082 156.685L176.938 155.378L162.86 92.266L157.004 93.5723ZM171.082 156.685L165.225 157.986C165.334 158.478 165.417 159.168 165.462 160.066L171.454 159.767L177.447 159.467C177.385 158.241 177.255 156.803 176.939 155.383L171.082 156.685ZM171.454 159.767L165.454 159.766C165.454 164.528 161.606 168.376 156.845 168.376V174.376V180.376C168.233 180.376 177.454 171.155 177.454 159.767L171.454 159.767ZM156.845 174.376L156.845 168.376C153.921 168.376 151.347 166.927 149.744 164.652L144.839 168.106L139.933 171.561C143.644 176.83 149.781 180.376 156.845 180.376L156.845 174.376ZM144.839 168.106L149.803 164.737C146.354 159.654 139.099 159.87 135.707 164.618L140.589 168.106L145.471 171.595C144.203 173.368 141.305 173.584 139.874 171.476L144.839 168.106ZM140.589 168.106L135.683 164.652C134.088 166.916 131.465 168.376 128.582 168.376V174.376V180.376C135.58 180.376 141.777 176.84 145.494 171.561L140.589 168.106ZM128.582 174.376L128.582 168.376C125.658 168.376 123.084 166.927 121.482 164.652L116.576 168.106L111.671 171.561C115.381 176.83 121.518 180.376 128.582 180.376L128.582 174.376ZM116.576 168.106L121.541 164.737C118.091 159.655 110.837 159.87 107.444 164.619L112.326 168.106L117.208 171.594C115.94 173.369 113.042 173.584 111.612 171.476L116.576 168.106ZM112.326 168.106L107.421 164.652C105.826 166.917 103.203 168.376 100.32 168.376L100.32 174.376L100.32 180.376C107.319 180.376 113.514 176.84 117.232 171.561L112.326 168.106ZM100.32 174.376V168.376C97.3962 168.376 94.821 166.927 93.2191 164.652L88.3135 168.106L83.4078 171.561C87.1184 176.83 93.2569 180.376 100.32 180.376V174.376ZM88.3135 168.106L93.2778 164.737C89.8286 159.655 82.5743 159.869 79.1813 164.619L84.0635 168.106L88.9457 171.594C87.6775 173.369 84.7795 173.583 83.3492 171.476L88.3135 168.106ZM84.0635 168.106L79.1673 164.638C77.5114 166.976 74.8985 168.407 72.015 168.376L71.9512 174.376L71.8873 180.376C78.9913 180.451 85.1968 176.887 88.9596 171.575L84.0635 168.106ZM71.9512 174.376L71.9906 168.376C67.3593 168.346 63.4484 164.425 63.4482 159.501L57.4482 159.501L51.4482 159.501C51.4485 170.727 60.3936 180.3 71.9117 180.376L71.9512 174.376ZM57.4482 159.501H63.4482V149.934H57.4482H51.4482V159.501H57.4482ZM57.4482 149.934L52.0817 147.25L52.0797 147.254L57.4463 149.938L62.8128 152.621L62.8148 152.617L57.4482 149.934ZM57.4463 149.938L51.4463 149.937C51.4463 151.323 50.3363 152.438 48.9463 152.438V158.438V164.438C57.0125 164.438 63.4463 157.902 63.4463 149.938L57.4463 149.938ZM48.9463 158.438L48.9463 152.438C47.2247 152.437 45.9307 150.657 46.6439 148.899L41.084 146.644L35.524 144.388C31.6685 153.892 38.5554 164.437 48.9462 164.437L48.9463 158.438ZM41.084 146.644L46.6188 148.96L50.7096 139.186L45.1748 136.869L39.64 134.553L35.5492 144.327L41.084 146.644ZM45.1748 136.869L50.7046 139.197C51.0545 138.367 51.8153 137.875 52.6651 137.875L52.665 131.875L52.665 125.875C46.9273 125.875 41.8451 129.316 39.645 134.541L45.1748 136.869ZM52.665 131.875V137.875H57.4463V131.875V125.875H52.665V131.875ZM57.4463 131.875L53.2036 136.118L53.2056 136.12L57.4482 131.877L61.6909 127.634L61.6889 127.632L57.4463 131.875ZM57.4482 131.877H63.4482V131.874H57.4482H51.4482V131.877H57.4482ZM57.4482 131.874V125.874H56.5449V131.874V137.874H57.4482V131.874ZM56.5449 131.874V125.874C53.2365 125.874 49.3964 124.925 45.7144 123.298C42.0271 121.669 38.9253 119.55 37.0087 117.613L32.7441 121.834L28.4796 126.055C31.663 129.271 36.1053 132.172 40.8653 134.275C45.6305 136.38 51.1409 137.874 56.5449 137.874V131.874ZM32.7441 121.834L36.9868 117.591C36.9158 117.52 36.8608 117.46 36.8199 117.411C36.7787 117.362 36.7568 117.331 36.7491 117.32C36.7413 117.308 36.753 117.324 36.7751 117.368C36.7972 117.412 36.8334 117.492 36.8695 117.608L31.1445 119.403L25.4195 121.199C26.0933 123.347 27.4053 124.98 28.5015 126.077L32.7441 121.834ZM31.1445 119.403L32.7232 113.615L32.7125 113.612L31.1338 119.4L29.5551 125.189L29.5658 125.192L31.1445 119.403ZM31.1338 119.4L36.8329 117.524C36.8476 117.569 36.8719 117.667 36.87 117.81C36.8681 117.959 36.8381 118.112 36.7848 118.247L31.2041 116.044L25.6234 113.84C24.6207 116.38 24.6827 118.993 25.4347 121.277L31.1338 119.4ZM31.2041 116.044L36.7699 118.285L38.31 114.46L32.7441 112.219L27.1783 109.978L25.6382 113.803L31.2041 116.044ZM32.7441 112.219L38.3094 114.461C41.9095 105.526 49.9728 99.3283 59.3352 98.0279L58.5098 92.085L57.6843 86.142C44.097 88.0292 32.3975 97.0243 27.1789 109.976L32.7441 112.219ZM58.5098 92.085L59.3027 98.0323C59.2171 98.0437 59.1457 98.0479 59.0912 98.0489L58.9844 92.0498L58.8776 86.0508C58.5103 86.0573 58.1218 86.0836 57.7168 86.1376L58.5098 92.085ZM58.9844 92.0498L64.8057 93.5032C64.8688 93.2503 64.9341 92.9982 65.0015 92.7467L59.206 91.1934L53.4106 89.64C53.3255 89.9577 53.2429 90.2765 53.163 90.5965L58.9844 92.0498ZM59.206 91.1934L63.1672 86.6868C60.2413 84.115 58.3637 80.4397 58.1803 76.4053L52.1865 76.6777L46.1927 76.9502C46.5318 84.4104 49.9987 91.0887 55.2449 95.6999L59.206 91.1934ZM52.1865 76.6777L58.1808 76.4158C57.8793 69.5163 62.362 63.6044 68.5577 61.7644L66.8496 56.0127L65.1415 50.261C53.8062 53.6272 45.6441 64.3958 46.1922 76.9397L52.1865 76.6777ZM66.8496 56.0127L68.5898 61.7548C72.8823 60.4539 75.7715 56.5206 75.7715 52.0811H69.7715H63.7715C63.7715 51.2539 64.323 50.5089 65.1094 50.2706L66.8496 56.0127ZM69.7715 52.0811H75.7715V52.0283H69.7715H63.7715V52.0811H69.7715ZM69.7715 52.0283H75.7715C75.7715 43.9733 82.276 37.4688 90.331 37.4688V31.4688V25.4688C75.6486 25.4688 63.7715 37.3459 63.7715 52.0283H69.7715ZM90.331 31.4688L90.3309 37.4687C92.4385 37.4688 94.4376 37.9188 96.2661 38.7187L98.6709 33.2217L101.076 27.7247C97.8046 26.2937 94.173 25.4688 90.3311 25.4688L90.331 31.4688ZM98.6709 33.2217L96.2207 38.6986C102.384 41.4558 109.617 40.3924 114.759 36.0546L110.89 31.4688L107.021 26.8829C105.362 28.2823 103.033 28.5999 101.121 27.7448L98.6709 33.2217ZM110.89 31.4688L114.747 36.0641C118.005 33.3293 122.245 31.6655 126.88 31.6248L126.827 25.625L126.774 19.6252C119.298 19.6909 112.38 22.3834 107.032 26.8734L110.89 31.4688ZM126.827 25.625V31.625H127.571V25.625V19.625H126.827V25.625Z" fill="white" mask="url(#path-1-outside-1_922_9156)"/>
<path d="M64.4068 103.507L68.5506 105.578C71.8975 107.225 74.0225 110.678 74.0225 114.45V126.562H56.5443L31.1341 119.4C30.7772 118.316 30.7649 117.155 31.2037 116.044L32.7443 112.219C37.1537 101.275 47.035 93.6784 58.51 92.0846C60.9006 91.7659 62.9725 93.5721 62.9725 95.9628V101.222C62.9725 102.178 63.5568 103.082 64.4068 103.507Z" fill="#EAC00F"/>
<path d="M32.7445 121.834C37.8445 126.987 47.832 131.874 56.5445 131.874H74.0224V125.181L71.313 119.337H31.1243C31.3899 120.24 32.0007 121.09 32.7445 121.834Z" fill="#D5B013"/>
<path d="M125.074 78.0063V75.6688C117.318 75.0844 110.571 70.9406 106.321 64.9375C103.081 68.9219 98.3526 71.7375 92.987 72.4281C93.1463 73.4906 93.2526 74.6063 93.2526 75.7219C93.2526 87.4094 83.5307 96.8125 71.737 96.2813C61.2182 95.8031 52.6651 87.1969 52.187 76.6781C51.762 66.9563 58.0838 58.6156 66.8495 56.0125C68.6026 55.4813 69.7713 53.8875 69.7713 52.0813V52.0281C69.7713 40.6594 78.962 31.4688 90.3307 31.4688C93.3057 31.4688 96.1213 32.1063 98.6713 33.2219C102.709 35.0281 107.49 34.3375 110.89 31.4688C115.193 27.8562 120.771 25.6781 126.828 25.625H127.571C145.899 26.05 154.559 48.5219 141.596 61.4844L125.074 78.0063Z" fill="#4B9AE6"/>
<path d="M62.8118 139.844L57.4464 149.937C57.4464 154.612 53.6745 158.438 48.9464 158.438C42.8901 158.438 38.7995 152.275 41.0839 146.644L45.1745 136.869C46.4495 133.841 49.3714 131.875 52.6651 131.875H57.4464L62.8118 139.844Z" fill="#4B9AE6"/>
<path d="M171.082 156.685L157.004 93.5724C152.489 69.8787 131.239 52.188 106.004 53.3036C78.7512 54.4724 57.4482 77.3162 57.4482 104.569V159.501C57.4482 167.576 63.8764 174.322 71.9512 174.376C76.945 174.429 81.3543 171.932 84.0637 168.107C85.1262 166.619 87.3043 166.619 88.3137 168.107C90.97 171.879 95.3262 174.376 100.32 174.376C105.261 174.376 109.67 171.879 112.326 168.107C113.389 166.619 115.567 166.619 116.576 168.107C119.232 171.879 123.589 174.376 128.582 174.376C133.523 174.376 137.932 171.879 140.589 168.107C141.651 166.619 143.829 166.619 144.839 168.107C147.495 171.879 151.851 174.376 156.845 174.376C164.92 174.376 171.454 167.841 171.454 159.766C171.401 158.704 171.295 157.641 171.082 156.685Z" fill="#8BBBF1"/>
<path d="M93.1807 113.361C103.222 113.361 111.361 105.222 111.361 95.1807C111.361 85.1398 103.222 77 93.1807 77C83.1398 77 75 85.1398 75 95.1807C75 105.222 83.1398 113.361 93.1807 113.361Z" fill="white"/>
<path d="M92.8987 106.212C98.9184 106.212 103.798 101.332 103.798 95.3119C103.798 89.2922 98.9184 84.4122 92.8987 84.4122C86.879 84.4122 81.999 89.2922 81.999 95.3119C81.999 101.332 86.879 106.212 92.8987 106.212Z" fill="black"/>
</svg>
