<svg width="200" height="200" viewBox="0 0 200 200" fill="none" xmlns="http://www.w3.org/2000/svg">
<mask id="path-1-outside-1_1062_22234" maskUnits="userSpaceOnUse" x="6" y="38.7085" width="189" height="140" fill="black">
<rect fill="white" x="6" y="38.7085" width="189" height="140"/>
<path d="M90.3393 46.0919C94.5416 45.1422 98.7502 45.9934 102.245 48.2384C103.633 47.4778 105.576 47.0606 106.644 47.8576C107.909 48.8011 107.938 51.5034 107.225 53.1183C108.303 54.6967 109.174 56.4937 109.779 58.4777L114.069 53.3556C116.811 50.0795 120.913 50.1455 122.392 53.2404C124.572 57.7951 125.502 65.3121 121.107 71.921C122.364 73.8352 123.294 75.9709 123.818 78.2882C123.882 78.573 123.939 78.8573 123.99 79.1408C129.824 80.9204 135.443 82.505 141.062 82.505C153.888 82.505 171.063 66.6032 182.393 74.2541C193.723 81.9049 188.267 162.215 182.393 168.116C176.519 174.017 24.3892 172.517 18.225 168.116C12.0631 163.715 8.02853 84.9036 18.225 74.2541C28.4215 63.6049 43.5872 82.505 58.978 82.505C62.443 82.505 65.6474 82.0838 68.7094 81.4357C65.1435 77.7588 64.3631 72.8201 64.4506 68.8781C64.5256 65.4475 68.5402 63.6249 72.3774 65.2667L78.6137 67.9347C78.5281 67.6573 78.4543 67.3971 78.4047 67.1779C76.139 57.1535 81.5658 48.0749 90.3393 46.0919Z"/>
</mask>
<path d="M90.3393 46.0919C94.5416 45.1422 98.7502 45.9934 102.245 48.2384C103.633 47.4778 105.576 47.0606 106.644 47.8576C107.909 48.8011 107.938 51.5034 107.225 53.1183C108.303 54.6967 109.174 56.4937 109.779 58.4777L114.069 53.3556C116.811 50.0795 120.913 50.1455 122.392 53.2404C124.572 57.7951 125.502 65.3121 121.107 71.921C122.364 73.8352 123.294 75.9709 123.818 78.2882C123.882 78.573 123.939 78.8573 123.99 79.1408C129.824 80.9204 135.443 82.505 141.062 82.505C153.888 82.505 171.063 66.6032 182.393 74.2541C193.723 81.9049 188.267 162.215 182.393 168.116C176.519 174.017 24.3892 172.517 18.225 168.116C12.0631 163.715 8.02853 84.9036 18.225 74.2541C28.4215 63.6049 43.5872 82.505 58.978 82.505C62.443 82.505 65.6474 82.0838 68.7094 81.4357C65.1435 77.7588 64.3631 72.8201 64.4506 68.8781C64.5256 65.4475 68.5402 63.6249 72.3774 65.2667L78.6137 67.9347C78.5281 67.6573 78.4543 67.3971 78.4047 67.1779C76.139 57.1535 81.5658 48.0749 90.3393 46.0919Z" fill="#61B2E4"/>
<path d="M90.3393 46.0919L89.0166 40.2395L89.0165 40.2396L90.3393 46.0919ZM102.245 48.2384L99.0014 53.2864C100.85 54.4741 103.2 54.5563 105.127 53.5007L102.245 48.2384ZM106.644 47.8576L110.232 43.0486L110.232 43.0483L106.644 47.8576ZM107.225 53.1183L101.736 50.6964C100.898 52.594 101.101 54.7894 102.27 56.5022L107.225 53.1183ZM109.779 58.4777L104.04 60.2278C104.682 62.3336 106.426 63.9186 108.583 64.3573C110.74 64.7961 112.965 64.018 114.378 62.3303L109.779 58.4777ZM114.069 53.3556L118.669 57.2082L118.67 57.2069L114.069 53.3556ZM122.392 53.2404L116.978 55.8273L116.98 55.8309L122.392 53.2404ZM121.107 71.921L116.111 68.5984C114.779 70.6009 114.772 73.2053 116.092 75.2153L121.107 71.921ZM123.818 78.2882L129.67 76.9656L129.67 76.9655L123.818 78.2882ZM123.99 79.1408L118.083 80.1971C118.48 82.4143 120.085 84.2226 122.239 84.8798L123.99 79.1408ZM141.062 82.505L141.062 88.505L141.062 88.505L141.062 82.505ZM182.393 74.2541L185.751 69.2815L185.751 69.2815L182.393 74.2541ZM182.393 168.116L186.645 172.349L186.646 172.349L182.393 168.116ZM18.225 168.116L14.7377 172.999L14.7386 172.999L18.225 168.116ZM18.225 74.2541L13.8913 70.1045L13.8912 70.1046L18.225 74.2541ZM58.978 82.505L58.978 88.505L58.978 88.505L58.978 82.505ZM68.7094 81.4357L69.9518 87.3057C72.0887 86.8534 73.811 85.2755 74.4483 83.1863C75.0856 81.0971 74.5372 78.8266 73.0166 77.2586L68.7094 81.4357ZM64.4506 68.8781L70.4491 69.0112L70.4492 69.0093L64.4506 68.8781ZM72.3774 65.2667L70.0171 70.783L70.0174 70.7831L72.3774 65.2667ZM78.6137 67.9347L76.2537 73.4511C78.4031 74.3706 80.8909 73.958 82.6283 72.3937C84.3658 70.8294 85.0364 68.3985 84.3467 66.1647L78.6137 67.9347ZM78.4047 67.1779L72.5523 68.5006L72.5524 68.5011L78.4047 67.1779ZM90.3393 46.0919L91.6619 51.9443C94.2163 51.3671 96.7894 51.8653 99.0014 53.2864L102.245 48.2384L105.488 43.1905C100.711 40.1216 94.8669 38.9174 89.0166 40.2395L90.3393 46.0919ZM102.245 48.2384L105.127 53.5007C105.262 53.4269 105.376 53.4091 105.313 53.417C105.266 53.4229 105.04 53.4484 104.681 53.3866C104.314 53.3232 103.7 53.147 103.056 52.6668L106.644 47.8576L110.232 43.0483C107.918 41.3223 105.323 41.3212 103.815 41.5109C102.167 41.7183 100.616 42.2893 99.3621 42.9762L102.245 48.2384ZM106.644 47.8576L103.056 52.6665C102.276 52.0846 101.941 51.4289 101.821 51.1358C101.755 50.9751 101.724 50.856 101.71 50.793C101.696 50.7284 101.693 50.6948 101.693 50.6945C101.693 50.6931 101.694 50.7081 101.693 50.7363C101.692 50.7642 101.689 50.7927 101.685 50.8174C101.674 50.8881 101.67 50.8451 101.736 50.6964L107.225 53.1183L112.714 55.5403C113.515 53.7264 113.801 51.6423 113.658 49.7779C113.534 48.1586 112.945 45.0731 110.232 43.0486L106.644 47.8576ZM107.225 53.1183L102.27 56.5022C103 57.5703 103.609 58.815 104.04 60.2278L109.779 58.4777L115.518 56.7276C114.739 54.1723 113.606 51.823 112.18 49.7344L107.225 53.1183ZM109.779 58.4777L114.378 62.3303L118.669 57.2082L114.069 53.3556L109.469 49.503L105.179 54.6251L109.779 58.4777ZM114.069 53.3556L118.67 57.2069C119.107 56.684 119.234 56.9068 118.728 56.9088C118.47 56.9099 118.097 56.8405 117.713 56.6048C117.317 56.3616 117.084 56.0473 116.978 55.8273L122.392 53.2404L127.806 50.6534C126.026 46.93 122.46 44.8939 118.68 44.9089C115.068 44.9233 111.773 46.7512 109.468 49.5043L114.069 53.3556ZM122.392 53.2404L116.98 55.8309C118.484 58.9725 119.061 64.1619 116.111 68.5984L121.107 71.921L126.103 75.2437C131.943 66.4622 130.661 56.6177 127.804 50.6499L122.392 53.2404ZM121.107 71.921L116.092 75.2153C116.967 76.547 117.605 78.0178 117.965 79.611L123.818 78.2882L129.67 76.9655C128.983 73.924 127.762 71.1233 126.122 68.6268L121.107 71.921ZM123.818 78.2882L117.965 79.6108C118.008 79.7989 118.047 79.9939 118.083 80.1971L123.99 79.1408L129.896 78.0845C129.831 77.7207 129.756 77.3471 129.67 76.9656L123.818 78.2882ZM123.99 79.1408L122.239 84.8798C128.01 86.6399 134.431 88.505 141.062 88.505V82.505V76.505C136.455 76.505 131.639 75.2009 125.74 73.4018L123.99 79.1408ZM141.062 82.505L141.062 88.505C145.393 88.505 149.705 87.1859 153.478 85.7451C157.068 84.3743 161.401 82.368 164.578 81.0565C168.142 79.5851 171.128 78.5832 173.685 78.2715C176.107 77.9763 177.732 78.3465 179.035 79.2266L182.393 74.2541L185.751 69.2815C181.389 66.3362 176.618 65.8251 172.233 66.3597C167.982 66.8778 163.748 68.4167 159.999 69.9645C155.862 71.672 152.789 73.163 149.197 74.5347C145.788 75.8364 143.144 76.505 141.062 76.505L141.062 82.505ZM182.393 74.2541L179.035 79.2266C178.637 78.9573 179.294 79.2767 180.163 82.0403C180.924 84.4638 181.563 87.8287 182.037 91.9964C182.982 100.293 183.184 110.916 182.848 121.653C182.512 132.367 181.647 142.985 180.52 151.223C179.954 155.356 179.338 158.773 178.721 161.257C178.411 162.506 178.13 163.398 177.902 163.976C177.605 164.733 177.601 164.425 178.14 163.884L182.393 168.116L186.646 172.349C187.919 171.07 188.647 169.443 189.069 168.371C189.561 167.121 189.988 165.675 190.367 164.149C191.129 161.081 191.814 157.196 192.409 152.85C193.602 144.131 194.495 133.087 194.842 122.029C195.187 110.995 194.996 99.7367 193.96 90.6392C193.445 86.1098 192.697 81.8992 191.611 78.4432C190.632 75.3274 188.982 71.4635 185.751 69.2815L182.393 74.2541ZM182.393 168.116L178.141 163.883C178.914 163.107 179.615 162.919 179.343 163.02C179.247 163.055 178.953 163.149 178.377 163.273C177.239 163.52 175.54 163.778 173.256 164.026C168.722 164.519 162.431 164.921 154.886 165.229C139.827 165.845 120.167 166.073 100.446 165.979C80.7307 165.886 61.0347 165.471 45.9136 164.809C38.3419 164.477 31.9867 164.085 27.3734 163.649C25.0548 163.429 23.2756 163.207 22.0417 162.994C21.4187 162.886 21.0382 162.798 20.8447 162.744C20.4669 162.638 20.9997 162.725 21.7114 163.233L18.225 168.116L14.7386 172.999C15.8356 173.783 17.0388 174.139 17.5986 174.297C18.3427 174.506 19.1671 174.675 19.9984 174.819C21.6729 175.108 23.8 175.364 26.2426 175.595C31.1517 176.06 37.7388 176.462 45.388 176.797C60.7084 177.469 80.5678 177.885 100.389 177.979C120.206 178.073 140.065 177.845 155.375 177.219C163.015 176.907 169.62 176.493 174.554 175.956C177.005 175.689 179.182 175.378 180.921 175.001C181.784 174.813 182.677 174.581 183.502 174.276C184.151 174.036 185.505 173.495 186.645 172.349L182.393 168.116ZM18.225 168.116L21.7123 163.234C22.7077 163.945 22.8664 164.66 22.5795 164.015C22.3981 163.607 22.14 162.875 21.8419 161.736C21.2516 159.482 20.6672 156.276 20.1394 152.301C19.089 144.391 18.3374 134.018 18.089 123.388C17.8404 112.748 18.1006 102.04 19.0227 93.433C19.485 89.1185 20.0977 85.4865 20.84 82.7183C21.2102 81.338 21.5856 80.2751 21.9387 79.4987C22.1127 79.1162 22.2648 78.8396 22.3849 78.6493C22.5065 78.4565 22.571 78.3909 22.5589 78.4035L18.225 74.2541L13.8912 70.1046C11.5109 72.5907 10.1497 76.2534 9.24953 79.6102C8.28486 83.2077 7.58814 87.5143 7.091 92.1548C6.09439 101.457 5.83655 112.724 6.09227 123.669C6.34822 134.623 7.12332 145.443 8.24381 153.881C8.80139 158.08 9.46351 161.837 10.2334 164.776C10.6154 166.235 11.0659 167.657 11.6157 168.893C12.0598 169.891 12.9721 171.738 14.7377 172.999L18.225 168.116ZM18.225 74.2541L22.5588 78.4036C23.7311 77.1792 24.7431 76.8981 26.2004 77.0272C28.1089 77.1963 30.5798 78.1068 34.033 79.7835C37.084 81.2649 41.3102 83.571 45.1873 85.233C49.241 86.9706 53.9474 88.505 58.978 88.505V82.505V76.505C56.3131 76.505 53.3523 75.6769 49.9151 74.2036C46.3014 72.6545 43.2131 70.9011 39.2743 68.9887C35.7377 67.2715 31.5434 65.4537 27.2596 65.0741C22.5246 64.6545 17.8172 66.0043 13.8913 70.1045L18.225 74.2541ZM58.978 82.505L58.978 88.505C62.9402 88.505 66.5675 88.022 69.9518 87.3057L68.7094 81.4357L67.467 75.5657C64.7273 76.1456 61.9457 76.505 58.9779 76.505L58.978 82.505ZM68.7094 81.4357L73.0166 77.2586C71.0691 75.2505 70.3773 72.2482 70.4491 69.0112L64.4506 68.8781L58.4521 68.745C58.349 73.3921 59.218 80.2671 64.4022 85.6128L68.7094 81.4357ZM64.4506 68.8781L70.4492 69.0093C70.4416 69.3555 70.3188 69.7648 70.0689 70.1157C69.8373 70.4409 69.5942 70.5832 69.4883 70.6314C69.3023 70.7161 69.4989 70.5613 70.0171 70.783L72.3774 65.2667L74.7376 59.7505C71.4187 58.3304 67.6894 58.266 64.5181 59.7091C61.2456 61.1983 58.5472 64.3981 58.4521 68.7469L64.4506 68.8781ZM72.3774 65.2667L70.0174 70.7831L76.2537 73.4511L78.6137 67.9347L80.9737 62.4183L74.7373 59.7504L72.3774 65.2667ZM78.6137 67.9347L84.3467 66.1647C84.316 66.0652 84.293 65.9868 84.2764 65.9273C84.2592 65.8653 84.2545 65.8437 84.257 65.8547L78.4047 67.1779L72.5524 68.5011C72.6517 68.9402 72.777 69.3689 72.8807 69.7048L78.6137 67.9347ZM78.4047 67.1779L84.2571 65.8551C82.618 58.6029 86.5623 53.097 91.662 51.9443L90.3393 46.0919L89.0165 40.2396C76.5692 43.0529 69.6601 55.7041 72.5523 68.5006L78.4047 67.1779Z" fill="white" mask="url(#path-1-outside-1_1062_22234)"/>
<path d="M102.621 99.8701L111.632 109.279C112.25 109.869 113.241 109.846 113.831 109.229L117.569 105.315C118.352 104.495 118.322 103.185 117.502 102.402C117.093 102.011 116.562 101.825 116.03 101.835C115.501 101.847 114.982 102.059 114.59 102.469L112.56 105.72L104.841 97.5451C104.224 96.9555 103.233 96.9782 102.643 97.5956L102.57 97.6718C101.981 98.2891 102.003 99.2804 102.621 99.8701Z" fill="#404040"/>
<path d="M116.085 92.3736L127.076 99.3699C127.816 99.7958 128.773 99.5379 129.199 98.798L131.9 94.1069C132.465 93.1246 132.124 91.8596 131.142 91.2941C130.651 91.0114 130.091 90.9573 129.577 91.0931C129.066 91.2307 128.612 91.5605 128.329 92.0516L127.131 95.6918L117.689 89.5873C116.949 89.1614 115.992 89.4192 115.566 90.1591L115.513 90.2504C115.087 90.9903 115.345 91.9477 116.085 92.3736Z" fill="#404040"/>
<path d="M114.07 53.3559L95.2975 75.772C95.2975 75.772 109.953 85.4301 119.812 73.6558C125.66 66.6693 124.766 58.1991 122.393 53.2405C120.914 50.1455 116.812 50.0794 114.07 53.3559Z" fill="#21587B"/>
<path d="M73.9681 89.5511C74.9284 93.7997 77.2117 97.2613 80.376 99.8087C85.8908 104.253 94.0834 105.929 102.632 104.205C102.9 104.152 103.17 104.095 103.439 104.034C103.709 103.973 103.978 103.912 104.241 103.841C112.704 101.72 119.376 96.6848 122.445 90.3077C122.445 90.3077 122.445 90.3077 122.444 90.3042C124.205 86.6435 124.778 82.5364 123.818 78.2878C122.311 71.619 117.452 66.4527 111.046 63.7515C111.046 63.7515 110.429 61.0865 110.182 59.9951C107.917 49.9707 99.1131 44.1094 90.3396 46.0924C81.566 48.0754 76.1391 57.1531 78.4048 67.1775C78.6515 68.2688 79.4653 70.3866 79.6533 70.4931C79.3666 70.7739 79.2396 70.9367 79.2396 70.9367C74.6182 76.1303 72.4537 82.884 73.9618 89.5563L73.9681 89.5511Z" fill="#4B9AE8"/>
<path d="M101.102 49.0734C102.254 47.886 105.224 46.7967 106.645 47.8571C108.067 48.9174 107.929 52.2011 106.929 53.6637C105.932 55.1236 104.209 55.3345 102.089 53.749C99.9462 52.1459 99.9501 50.2607 101.102 49.0734Z" fill="#EAC00F"/>
<path d="M88.0988 71.9927L72.3783 65.267C68.5411 63.6249 64.5262 65.4473 64.4512 68.878C64.3324 74.2316 65.8135 81.4241 73.6997 84.7967C80.2878 87.6152 86.2779 85.6022 90.67 82.8222C94.7951 80.2136 93.372 74.2473 88.1011 71.9956L88.0988 71.9927Z" fill="#276288"/>
<path d="M94.2781 56.643C96.2256 56.1643 97.4163 54.1976 96.9376 52.2501C96.4589 50.3027 94.4922 49.112 92.5447 49.5907C90.5973 50.0694 89.4066 52.0361 89.8853 53.9836C90.3639 55.931 92.3307 57.1217 94.2781 56.643Z" fill="white"/>
<path d="M93.8738 54.9963C94.9119 54.7412 95.5465 53.6928 95.2914 52.6548C95.0362 51.6168 93.9879 50.9821 92.9499 51.2372C91.9118 51.4924 91.2771 52.5407 91.5323 53.5788C91.7874 54.6168 92.8358 55.2515 93.8738 54.9963Z" fill="#040000"/>
<path d="M182.393 74.254C171.063 66.6032 153.888 82.5047 141.062 82.5047C128.237 82.5047 115.411 74.254 100.02 74.254C84.6296 74.254 74.369 82.5047 58.9781 82.5047C43.5873 82.5047 28.4215 63.6044 18.225 74.254C8.02853 84.9035 12.0631 163.716 18.225 168.117C24.3869 172.518 176.519 174.017 182.393 168.117C188.268 162.216 193.724 81.9048 182.393 74.254Z" fill="#61B2E4"/>
<path d="M32 110C33 112 47 124.5 60 122.5C73 120.5 80 112 95.5 113C111 114 110.5 124 144 124" stroke="#90CFF5" stroke-width="2.5" stroke-linecap="round" stroke-linejoin="round"/>
<path d="M37 134C37.8586 135.73 49.8796 146.543 61.0419 144.813C72.2042 143.083 78.2147 135.73 91.5236 136.595C104.832 137.46 105.262 144.813 119 144.813" stroke="#90CFF5" stroke-width="2.5" stroke-linecap="round" stroke-linejoin="round"/>
<path d="M117 93C117.597 94.2583 125.953 102.122 133.712 100.864C141.471 99.6059 145.649 94.2583 154.901 94.8874C164.152 95.5165 164.45 100.864 174 100.864" stroke="#90CFF5" stroke-width="2.5" stroke-linecap="round" stroke-linejoin="round"/>
</svg>
