<svg width="200" height="200" viewBox="0 0 200 200" fill="none" xmlns="http://www.w3.org/2000/svg">
<mask id="path-1-outside-1_774_10058" maskUnits="userSpaceOnUse" x="20.0003" y="46.3451" width="159" height="139" fill="black">
<rect fill="white" x="20.0003" y="46.3451" width="159" height="139"/>
<path d="M45.2952 138.588C58.9115 135.184 69.0532 136.461 75.1048 139.979C81.1563 143.497 89.6197 167.311 84.679 174.374C79.738 181.438 32.5299 180.076 27.9436 174.374C25.046 170.772 28.2751 142.844 45.2952 138.588ZM122.031 142.977C129.973 137.871 147.207 135.53 156.781 137.303C166.355 139.076 177.701 169.571 170.964 174.89C164.227 180.209 119.55 178.79 110.329 177.371C101.11 175.953 112.102 149.36 122.031 142.977ZM114.94 58.6166C116.608 53.2007 122.02 50.6424 125.639 53.5765C131.288 58.1538 137.437 66.0025 134.006 77.1312C133.824 77.7232 133.623 78.2958 133.406 78.849C136.108 80.9221 138.431 83.4707 140.247 86.475L140.255 86.4691C146.655 97.0564 144.596 109.729 136.654 120.363L139.374 122.465L146.241 120.465C147.227 120.178 148.258 120.745 148.545 121.731C148.832 122.716 148.266 123.748 147.281 124.036L143.51 125.133L146.717 127.122C147.589 127.664 147.857 128.81 147.316 129.682C146.774 130.554 145.629 130.822 144.757 130.282L141.488 128.252L142.221 132.701L142.242 132.889C142.301 133.829 141.638 134.68 140.689 134.836C139.739 134.993 138.838 134.4 138.592 133.491L138.553 133.304L137.273 125.537L134.309 123.248C130.908 127.109 126.704 130.625 121.83 133.573C114.282 138.138 106.27 140.651 98.7659 141.045L97.3587 145.615L101.644 151.341C102.259 152.163 102.09 153.329 101.268 153.944C100.446 154.558 99.2813 154.39 98.6663 153.569L96.3138 150.424L95.5784 154.125C95.3781 155.132 94.3988 155.787 93.3919 155.586C92.3853 155.386 91.732 154.407 91.9319 153.401L92.6819 149.626L88.7757 151.875L88.6067 151.962C87.7471 152.347 86.7179 152.026 86.2376 151.193C85.7574 150.359 85.9961 149.306 86.761 148.756L86.9221 148.654L93.7434 144.726L94.8714 141.058C85.1109 140.587 76.5628 136.299 71.5511 128.019C69.2718 124.249 68.0012 120.107 67.6507 115.831C57.6756 114.32 51.3425 107.671 47.6761 102.025C44.9644 97.8535 48.5978 93.4633 54.8391 93.3392L67.011 93.1019C60.2138 80.1186 64.3273 65.136 76.1223 58.0062C88.2936 50.6438 104.084 54.412 112.22 67.4408L114.94 58.6166Z"/>
</mask>
<path d="M45.2952 138.588C58.9115 135.184 69.0532 136.461 75.1048 139.979C81.1563 143.497 89.6197 167.311 84.679 174.374C79.738 181.438 32.5299 180.076 27.9436 174.374C25.046 170.772 28.2751 142.844 45.2952 138.588ZM122.031 142.977C129.973 137.871 147.207 135.53 156.781 137.303C166.355 139.076 177.701 169.571 170.964 174.89C164.227 180.209 119.55 178.79 110.329 177.371C101.11 175.953 112.102 149.36 122.031 142.977ZM114.94 58.6166C116.608 53.2007 122.02 50.6424 125.639 53.5765C131.288 58.1538 137.437 66.0025 134.006 77.1312C133.824 77.7232 133.623 78.2958 133.406 78.849C136.108 80.9221 138.431 83.4707 140.247 86.475L140.255 86.4691C146.655 97.0564 144.596 109.729 136.654 120.363L139.374 122.465L146.241 120.465C147.227 120.178 148.258 120.745 148.545 121.731C148.832 122.716 148.266 123.748 147.281 124.036L143.51 125.133L146.717 127.122C147.589 127.664 147.857 128.81 147.316 129.682C146.774 130.554 145.629 130.822 144.757 130.282L141.488 128.252L142.221 132.701L142.242 132.889C142.301 133.829 141.638 134.68 140.689 134.836C139.739 134.993 138.838 134.4 138.592 133.491L138.553 133.304L137.273 125.537L134.309 123.248C130.908 127.109 126.704 130.625 121.83 133.573C114.282 138.138 106.27 140.651 98.7659 141.045L97.3587 145.615L101.644 151.341C102.259 152.163 102.09 153.329 101.268 153.944C100.446 154.558 99.2813 154.39 98.6663 153.569L96.3138 150.424L95.5784 154.125C95.3781 155.132 94.3988 155.787 93.3919 155.586C92.3853 155.386 91.732 154.407 91.9319 153.401L92.6819 149.626L88.7757 151.875L88.6067 151.962C87.7471 152.347 86.7179 152.026 86.2376 151.193C85.7574 150.359 85.9961 149.306 86.761 148.756L86.9221 148.654L93.7434 144.726L94.8714 141.058C85.1109 140.587 76.5628 136.299 71.5511 128.019C69.2718 124.249 68.0012 120.107 67.6507 115.831C57.6756 114.32 51.3425 107.671 47.6761 102.025C44.9644 97.8535 48.5978 93.4633 54.8391 93.3392L67.011 93.1019C60.2138 80.1186 64.3273 65.136 76.1223 58.0062C88.2936 50.6438 104.084 54.412 112.22 67.4408L114.94 58.6166Z" fill="#313131"/>
<path d="M45.2952 138.588L43.84 132.767L43.8399 132.767L45.2952 138.588ZM75.1048 139.979L78.1202 134.792L78.1201 134.792L75.1048 139.979ZM84.679 174.374L89.5955 177.814L89.5956 177.813L84.679 174.374ZM27.9436 174.374L23.2682 178.135L23.2684 178.135L27.9436 174.374ZM122.031 142.977L118.786 137.93L118.786 137.93L122.031 142.977ZM156.781 137.303L157.873 131.403L157.873 131.403L156.781 137.303ZM170.964 174.89L174.682 179.599L174.682 179.599L170.964 174.89ZM110.329 177.371L109.417 183.302L109.417 183.302L110.329 177.371ZM114.94 58.6166L120.674 60.3838L120.674 60.3829L114.94 58.6166ZM125.639 53.5765L121.86 58.2372L121.862 58.2383L125.639 53.5765ZM134.006 77.1312L128.272 75.3637L128.272 75.3644L134.006 77.1312ZM133.406 78.849L127.821 76.6545L126.169 80.8597L129.754 83.6097L133.406 78.849ZM140.247 86.475L135.113 89.5792L138.543 95.2531L143.847 91.275L140.247 86.475ZM140.255 86.4691L145.39 83.3652L141.96 77.6907L136.655 81.6691L140.255 86.4691ZM136.654 120.363L131.846 116.772L128.314 121.501L132.985 125.11L136.654 120.363ZM139.374 122.465L135.705 127.213L138.121 129.08L141.052 128.226L139.374 122.465ZM146.241 120.465L144.565 114.704L144.564 114.705L146.241 120.465ZM148.545 121.731L154.306 120.054L154.306 120.053L148.545 121.731ZM147.281 124.036L148.958 129.796L148.959 129.796L147.281 124.036ZM143.51 125.133L141.833 119.372L128.907 123.135L140.347 130.232L143.51 125.133ZM146.717 127.122L149.882 122.025L149.88 122.024L146.717 127.122ZM147.316 129.682L152.413 132.846L152.414 132.845L147.316 129.682ZM144.757 130.282L141.593 135.38L141.595 135.381L144.757 130.282ZM141.488 128.252L144.652 123.154L133.416 116.181L135.568 129.228L141.488 128.252ZM142.221 132.701L148.182 132.021L148.165 131.872L148.141 131.724L142.221 132.701ZM142.242 132.889L148.231 132.517L148.221 132.363L148.204 132.21L142.242 132.889ZM140.689 134.836L141.663 140.757L141.666 140.756L140.689 134.836ZM138.592 133.491L132.719 134.72L132.755 134.891L132.801 135.059L138.592 133.491ZM138.553 133.304L132.633 134.28L132.654 134.407L132.68 134.534L138.553 133.304ZM137.273 125.537L143.193 124.562L142.809 122.232L140.94 120.789L137.273 125.537ZM134.309 123.248L137.976 118.5L133.525 115.062L129.807 119.282L134.309 123.248ZM121.83 133.573L124.935 138.707L124.935 138.707L121.83 133.573ZM98.7659 141.045L98.4511 135.054L94.2654 135.273L93.0317 139.279L98.7659 141.045ZM97.3587 145.615L91.6244 143.849L90.7261 146.766L92.5547 149.209L97.3587 145.615ZM101.644 151.341L106.448 147.747L106.448 147.746L101.644 151.341ZM101.268 153.944L104.861 158.749L104.863 158.748L101.268 153.944ZM98.6663 153.569L93.862 157.163L93.8627 157.164L98.6663 153.569ZM96.3138 150.424L101.118 146.83L93.0525 136.049L90.4288 149.255L96.3138 150.424ZM95.5784 154.125L101.463 155.296L101.463 155.295L95.5784 154.125ZM93.3919 155.586L92.2208 161.471L92.2216 161.471L93.3919 155.586ZM91.9319 153.401L86.047 152.231L86.0468 152.232L91.9319 153.401ZM92.6819 149.626L98.5669 150.796L101.143 137.832L89.6882 144.427L92.6819 149.626ZM88.7757 151.875L91.5205 157.211L91.6465 157.146L91.7694 157.075L88.7757 151.875ZM88.6067 151.962L91.059 157.438L91.2072 157.372L91.3515 157.298L88.6067 151.962ZM86.2376 151.193L81.0377 154.186L81.0386 154.188L86.2376 151.193ZM86.761 148.756L83.5398 143.694L83.3959 143.786L83.2575 143.885L86.761 148.756ZM86.9221 148.654L83.9282 143.454L83.813 143.52L83.7009 143.592L86.9221 148.654ZM93.7434 144.726L96.7374 149.926L98.7842 148.747L99.4784 146.49L93.7434 144.726ZM94.8714 141.058L100.606 142.822L102.877 135.437L95.1603 135.065L94.8714 141.058ZM71.5511 128.019L66.4165 131.123L66.4181 131.126L71.5511 128.019ZM67.6507 115.831L73.6306 115.341L73.2427 110.61L68.5496 109.899L67.6507 115.831ZM47.6761 102.025L52.7083 98.7572L52.7066 98.7546L47.6761 102.025ZM54.8391 93.3392L54.7222 87.3404L54.7199 87.3404L54.8391 93.3392ZM67.011 93.1019L67.128 99.1008L76.8252 98.9117L72.3266 90.319L67.011 93.1019ZM76.1223 58.0062L79.2262 63.141L79.2278 63.14L76.1223 58.0062ZM112.22 67.4408L107.131 70.6188L114.086 81.757L117.954 69.208L112.22 67.4408ZM45.2952 138.588L46.7504 144.409C59.5277 141.215 67.891 142.726 72.0895 145.166L75.1048 139.979L78.1201 134.792C70.2154 130.197 58.2953 129.154 43.84 132.767L45.2952 138.588ZM75.1048 139.979L72.0894 145.166C71.9384 145.078 72.1903 145.199 72.7702 145.924C73.3017 146.589 73.926 147.531 74.5964 148.745C75.9367 151.172 77.257 154.313 78.2828 157.623C79.3132 160.948 79.9719 164.204 80.1288 166.868C80.2069 168.195 80.1518 169.237 80.0213 169.995C79.8862 170.78 79.7151 171.003 79.7624 170.935L84.679 174.374L89.5956 177.813C92.0382 174.321 92.3204 169.768 92.108 166.162C91.8784 162.264 90.9694 158.022 89.7451 154.071C88.5162 150.105 86.8948 146.192 85.1007 142.943C84.2038 141.319 83.2127 139.769 82.1423 138.43C81.1203 137.152 79.784 135.759 78.1202 134.792L75.1048 139.979ZM84.679 174.374L79.7624 170.935C80.2776 170.199 80.5496 170.435 79.0081 170.98C77.7383 171.43 75.8873 171.863 73.4871 172.222C68.7183 172.935 62.5554 173.244 56.2569 173.162C49.9685 173.079 43.7828 172.61 38.9914 171.848C36.5804 171.464 34.6832 171.031 33.3614 170.599C32.7009 170.382 32.3092 170.207 32.1198 170.105C31.8705 169.971 32.1969 170.089 32.6188 170.614L27.9436 174.374L23.2684 178.135C24.2637 179.372 25.4963 180.169 26.4448 180.678C27.4533 181.22 28.5509 181.651 29.6298 182.004C31.7869 182.709 34.3688 183.263 37.1057 183.699C42.6101 184.574 49.3952 185.073 56.0997 185.161C62.7942 185.249 69.6464 184.93 75.2621 184.09C78.0541 183.673 80.7377 183.098 83.0132 182.292C85.017 181.583 87.8451 180.316 89.5955 177.814L84.679 174.374ZM27.9436 174.374L32.619 170.614C33.3387 171.509 33.2324 172.085 33.1016 171.148C33.0126 170.51 32.9636 169.503 33.0313 168.164C33.1659 165.499 33.7339 162.056 34.8598 158.57C37.232 151.226 41.3211 145.767 46.7505 144.409L45.2952 138.588L43.8399 132.767C32.2492 135.665 26.2137 146.297 23.4407 154.882C21.994 159.361 21.2344 163.84 21.0466 167.559C20.953 169.411 20.9942 171.21 21.2167 172.806C21.3975 174.102 21.8242 176.339 23.2682 178.135L27.9436 174.374ZM122.031 142.977L125.275 148.024C128.204 146.141 133.524 144.444 139.708 143.49C145.814 142.549 151.79 142.481 155.688 143.203L156.781 137.303L157.873 131.403C152.197 130.352 144.77 130.568 137.88 131.63C131.068 132.681 123.8 134.707 118.786 137.93L122.031 142.977ZM156.781 137.303L155.688 143.203C155.516 143.171 155.814 143.183 156.568 143.813C157.287 144.414 158.159 145.36 159.119 146.689C161.039 149.348 162.914 152.989 164.371 156.874C165.833 160.773 166.74 164.562 166.953 167.46C167.059 168.917 166.97 169.896 166.84 170.45C166.703 171.035 166.646 170.655 167.246 170.181L170.964 174.89L174.682 179.599C176.967 177.796 178.029 175.299 178.523 173.191C179.025 171.053 179.08 168.763 178.921 166.585C178.601 162.214 177.336 157.271 175.607 152.66C173.872 148.034 171.537 143.387 168.847 139.663C167.502 137.801 165.97 136.032 164.262 134.605C162.589 133.207 160.438 131.879 157.873 131.403L156.781 137.303ZM170.964 174.89L167.246 170.181C167.464 170.009 167.094 170.328 165.358 170.758C163.827 171.138 161.779 171.477 159.275 171.758C154.282 172.319 148.005 172.592 141.517 172.657C128.43 172.789 115.353 172.074 111.242 171.441L110.329 177.371L109.417 183.302C114.526 184.088 128.398 184.79 141.638 184.657C148.314 184.589 155.046 184.309 160.614 183.684C163.39 183.372 166.009 182.961 168.247 182.405C170.28 181.901 172.78 181.101 174.682 179.599L170.964 174.89ZM110.329 177.371L111.242 171.441C111.776 171.523 112.451 171.922 112.826 172.505C113.056 172.863 112.9 172.869 112.867 172.059C112.802 170.419 113.32 167.629 114.623 164.128C115.881 160.746 117.686 157.198 119.704 154.18C121.79 151.062 123.793 148.977 125.275 148.024L122.031 142.977L118.786 137.93C115.304 140.168 112.21 143.801 109.73 147.509C107.183 151.317 104.954 155.702 103.376 159.943C101.842 164.066 100.72 168.589 100.877 172.534C100.955 174.517 101.375 176.883 102.73 178.991C104.229 181.325 106.578 182.865 109.417 183.302L110.329 177.371ZM114.94 58.6166L120.674 60.3829C121.06 59.1303 121.771 58.5551 122.117 58.392C122.277 58.3166 122.293 58.3537 122.169 58.3432C122.109 58.3381 122.038 58.3226 121.968 58.2946C121.935 58.2813 121.909 58.2676 121.889 58.2558C121.869 58.2441 121.859 58.2366 121.86 58.2372L125.639 53.5765L129.418 48.9159C125.562 45.7898 120.781 45.7545 116.998 47.5385C113.316 49.275 110.488 52.6869 109.206 56.8503L114.94 58.6166ZM125.639 53.5765L121.862 58.2383C126.741 62.1917 130.631 67.7132 128.272 75.3637L134.006 77.1312L139.74 78.8988C144.243 64.2919 135.835 54.1158 129.416 48.9148L125.639 53.5765ZM134.006 77.1312L128.272 75.3644C128.134 75.8128 127.983 76.2426 127.821 76.6545L133.406 78.849L138.99 81.0435C139.263 80.3489 139.513 79.6337 139.74 78.8981L134.006 77.1312ZM133.406 78.849L129.754 83.6097C131.883 85.2433 133.696 87.2361 135.113 89.5792L140.247 86.475L145.382 83.3707C143.166 79.7053 140.333 76.6008 137.057 74.0883L133.406 78.849ZM140.247 86.475L143.847 91.275L143.855 91.2691L140.255 86.4691L136.655 81.6691L136.647 81.675L140.247 86.475ZM140.255 86.4691L135.12 89.573C139.917 97.5077 138.765 107.509 131.846 116.772L136.654 120.363L141.461 123.953C150.427 111.949 153.393 96.6051 145.39 83.3652L140.255 86.4691ZM136.654 120.363L132.985 125.11L135.705 127.213L139.374 122.465L143.043 117.718L140.322 115.615L136.654 120.363ZM139.374 122.465L141.052 128.226L147.919 126.226L146.241 120.465L144.564 114.705L137.697 116.705L139.374 122.465ZM146.241 120.465L147.918 126.226C145.718 126.866 143.423 125.6 142.785 123.409L148.545 121.731L154.306 120.053C153.093 115.891 148.736 113.49 144.565 114.704L146.241 120.465ZM148.545 121.731L142.784 123.408C142.146 121.214 143.405 118.915 145.602 118.275L147.281 124.036L148.959 129.796C153.127 128.582 155.519 124.219 154.306 120.054L148.545 121.731ZM147.281 124.036L145.603 118.275L141.833 119.372L143.51 125.133L145.187 130.894L148.958 129.796L147.281 124.036ZM143.51 125.133L140.347 130.232L143.554 132.221L146.717 127.122L149.88 122.024L146.673 120.034L143.51 125.133ZM146.717 127.122L143.552 132.22C141.607 131.012 141.013 128.459 142.217 126.519L147.316 129.682L152.414 132.845C154.7 129.16 153.571 124.315 149.882 122.025L146.717 127.122ZM147.316 129.682L142.218 126.518C143.423 124.576 145.975 123.977 147.919 125.182L144.757 130.282L141.595 135.381C145.284 137.668 150.126 136.532 152.413 132.846L147.316 129.682ZM144.757 130.282L147.921 125.184L144.652 123.154L141.488 128.252L138.323 133.35L141.593 135.38L144.757 130.282ZM141.488 128.252L135.568 129.228L136.301 133.677L142.221 132.701L148.141 131.724L147.408 127.276L141.488 128.252ZM142.221 132.701L136.26 133.38L136.281 133.569L142.242 132.889L148.204 132.21L148.182 132.021L142.221 132.701ZM142.242 132.889L136.254 133.261C136.123 131.157 137.596 129.266 139.712 128.916L140.689 134.836L141.666 140.756C145.68 140.094 148.478 136.501 148.231 132.517L142.242 132.889ZM140.689 134.836L139.714 128.916C141.829 128.568 143.832 129.886 144.383 131.922L138.592 133.491L132.801 135.059C133.845 138.914 137.65 141.417 141.663 140.757L140.689 134.836ZM138.592 133.491L144.465 132.261L144.426 132.074L138.553 133.304L132.68 134.534L132.719 134.72L138.592 133.491ZM138.553 133.304L144.473 132.328L143.193 124.562L137.273 125.537L131.353 126.513L132.633 134.28L138.553 133.304ZM137.273 125.537L140.94 120.789L137.976 118.5L134.309 123.248L130.641 127.997L133.605 130.286L137.273 125.537ZM134.309 123.248L129.807 119.282C126.829 122.662 123.102 125.791 118.725 128.439L121.83 133.573L124.935 138.707C130.305 135.459 134.987 131.555 138.811 127.215L134.309 123.248ZM121.83 133.573L118.725 128.439C111.93 132.548 104.867 134.717 98.4511 135.054L98.7659 141.045L99.0807 147.037C107.674 146.586 116.634 143.727 124.935 138.707L121.83 133.573ZM98.7659 141.045L93.0317 139.279L91.6244 143.849L97.3587 145.615L103.093 147.381L104.5 142.811L98.7659 141.045ZM97.3587 145.615L92.5547 149.209L96.8399 154.936L101.644 151.341L106.448 147.746L102.163 142.02L97.3587 145.615ZM101.644 151.341L96.8394 154.935C95.4658 153.099 95.8472 150.506 97.6732 149.14L101.268 153.944L104.863 158.748C108.332 156.151 109.052 151.227 106.448 147.747L101.644 151.341ZM101.268 153.944L97.6748 149.139C99.5063 147.769 102.1 148.143 103.47 149.974L98.6663 153.569L93.8627 157.164C96.4623 160.637 101.386 161.348 104.861 158.749L101.268 153.944ZM98.6663 153.569L103.471 149.974L101.118 146.83L96.3138 150.424L91.5095 154.018L93.862 157.163L98.6663 153.569ZM96.3138 150.424L90.4288 149.255L89.6934 152.956L95.5784 154.125L101.463 155.295L102.199 151.593L96.3138 150.424ZM95.5784 154.125L89.6937 152.955C90.14 150.711 92.3198 149.256 94.5621 149.702L93.3919 155.586L92.2216 161.471C96.4778 162.317 100.616 159.553 101.463 155.296L95.5784 154.125ZM93.3919 155.586L94.563 149.702C96.8089 150.149 98.2617 152.33 97.817 154.569L91.9319 153.401L86.0468 152.232C85.2023 156.484 87.9616 160.623 92.2208 161.471L93.3919 155.586ZM91.9319 153.401L97.8169 154.57L98.5669 150.796L92.6819 149.626L86.797 148.457L86.047 152.231L91.9319 153.401ZM92.6819 149.626L89.6882 144.427L85.7819 146.676L88.7757 151.875L91.7694 157.075L95.6757 154.826L92.6819 149.626ZM88.7757 151.875L86.0309 146.54L85.8619 146.627L88.6067 151.962L91.3515 157.298L91.5205 157.211L88.7757 151.875ZM88.6067 151.962L86.1544 146.486C88.0736 145.627 90.3638 146.335 91.4366 148.198L86.2376 151.193L81.0386 154.188C83.0719 157.717 87.4205 159.068 91.059 157.438L88.6067 151.962ZM86.2376 151.193L91.4374 148.199C92.5077 150.058 91.976 152.396 90.2645 153.627L86.761 148.756L83.2575 143.885C80.0163 146.217 79.0071 150.659 81.0377 154.186L86.2376 151.193ZM86.761 148.756L89.9823 153.818L90.1434 153.716L86.9221 148.654L83.7009 143.592L83.5398 143.694L86.761 148.756ZM86.9221 148.654L89.9161 153.853L96.7374 149.926L93.7434 144.726L90.7495 139.526L83.9282 143.454L86.9221 148.654ZM93.7434 144.726L99.4784 146.49L100.606 142.822L94.8714 141.058L89.1364 139.294L88.0085 142.962L93.7434 144.726ZM94.8714 141.058L95.1603 135.065C87.0249 134.673 80.4842 131.191 76.6841 124.912L71.5511 128.019L66.4181 131.126C72.6415 141.408 83.1968 146.502 94.5824 147.051L94.8714 141.058ZM71.5511 128.019L76.6856 124.915C74.9122 121.981 73.9095 118.742 73.6306 115.341L67.6507 115.831L61.6707 116.322C62.093 121.471 63.6313 126.516 66.4165 131.123L71.5511 128.019ZM67.6507 115.831L68.5496 109.899C60.9589 108.749 55.9033 103.678 52.7083 98.7572L47.6761 102.025L42.6439 105.292C46.7817 111.665 54.3923 119.891 66.7518 121.764L67.6507 115.831ZM47.6761 102.025L52.7066 98.7546C52.6415 98.6545 52.7878 98.8464 52.764 99.2657C52.7408 99.6741 52.5765 99.9245 52.5269 99.9845C52.4946 100.024 52.6095 99.8702 53.0301 99.6935C53.4412 99.5207 54.0812 99.3555 54.9583 99.338L54.8391 93.3392L54.7199 87.3404C50.3382 87.4275 46.0131 89.0262 43.2735 92.3441C40.2541 96.0011 39.8617 101.013 42.6456 105.295L47.6761 102.025ZM54.8391 93.3392L54.9561 99.3381L67.128 99.1008L67.011 93.1019L66.8941 87.1031L54.7222 87.3404L54.8391 93.3392ZM67.011 93.1019L72.3266 90.319C66.9271 80.0054 70.2772 68.5505 79.2262 63.141L76.1223 58.0062L73.0185 52.8714C58.3774 61.7216 53.5005 80.2317 61.6954 95.8848L67.011 93.1019ZM76.1223 58.0062L79.2278 63.14C88.4502 57.5613 100.643 60.2297 107.131 70.6188L112.22 67.4408L117.309 64.2628C107.525 48.5942 88.1369 43.7262 73.0169 52.8724L76.1223 58.0062ZM112.22 67.4408L117.954 69.208L120.674 60.3838L114.94 58.6166L109.206 56.8493L106.486 65.6736L112.22 67.4408Z" fill="white" mask="url(#path-1-outside-1_774_10058)"/>
<path d="M90.7952 25.0567C91.8236 24.9217 92.9467 25.0953 93.8625 25.8985L93.8635 25.8965C94.8216 26.7001 95.2271 27.8063 95.304 28.9151L95.2131 28.9561L95.2991 28.9522L95.6819 37.129L95.6848 37.4229C95.6727 37.8085 95.5977 38.2117 95.4329 38.6006C95.448 38.6104 95.4637 38.62 95.4788 38.6299H95.4778C96.4023 39.2186 96.9711 40.1031 97.1643 41.1329L97.1985 41.3438L97.1995 41.3536L97.2219 41.5694C97.3084 42.645 96.98 43.6507 96.2737 44.4747L96.1575 44.5997C95.4355 45.3094 94.5362 45.7557 93.5286 45.8926L93.5129 45.8946C92.5308 46.0202 91.5102 45.8726 90.5989 45.294L90.592 45.2901C89.6058 44.6588 88.9268 43.6902 88.7659 42.461C88.609 41.2628 88.9962 40.218 89.7454 39.4034C89.3941 38.9612 89.1978 38.4558 89.0979 37.9883L89.0959 37.9825L87.4153 30.0049L87.4104 29.9776C87.2118 28.9658 87.2114 27.7599 87.8987 26.7159C88.6121 25.6323 89.7511 25.1915 90.7952 25.0557V25.0567Z" fill="#292929" stroke="white" stroke-width="4" stroke-linejoin="bevel"/>
<path d="M99.3872 18.3401C100.54 18.1879 101.747 18.4009 102.717 19.2435L102.718 19.2425C102.729 19.2518 102.739 19.2624 102.75 19.2718C102.759 19.2792 102.769 19.2858 102.777 19.2933L102.776 19.2943C103.771 20.1567 104.211 21.3351 104.284 22.5589L104.258 22.5843H104.278L104.724 32.1585L104.725 32.1712C104.749 32.7603 104.648 33.4014 104.332 33.9915C104.435 34.0507 104.539 34.1128 104.64 34.18H104.639C105.63 34.8127 106.247 35.7589 106.458 36.886L106.496 37.1175L106.497 37.1234C106.662 38.3676 106.327 39.5599 105.479 40.5276L105.378 40.6331C104.585 41.4148 103.596 41.9081 102.47 42.0501L102.471 42.0511C101.369 42.193 100.266 42.0164 99.2856 41.3939L99.2837 41.3929C98.1985 40.7023 97.4729 39.6533 97.2974 38.3304C97.1212 37.0024 97.56 35.8462 98.4282 34.9427C98.4713 34.8919 98.5153 34.8425 98.5601 34.7943C98.0769 34.2824 97.8178 33.6578 97.6929 33.0765L97.6919 33.0677L95.7271 23.72L95.7212 23.6937C95.4972 22.5509 95.5119 21.2457 96.2456 20.1312C97.0044 18.9787 98.2225 18.4922 99.3872 18.3411V18.3401Z" fill="#292929" stroke="white" stroke-width="4" stroke-linejoin="bevel"/>
<path d="M122.03 142.976C129.973 137.87 147.206 135.53 156.78 137.303C166.354 139.076 177.701 169.571 170.964 174.89C164.227 180.209 119.548 178.79 110.329 177.372C101.11 175.953 112.102 149.359 122.03 142.976Z" fill="#313131"/>
<path d="M108.103 80.8034L114.939 58.6165C116.608 53.2005 122.02 50.6423 125.639 53.5766C131.288 58.1539 137.437 66.0027 134.006 77.1316C131.141 86.4296 123.797 90.8662 117.062 92.9744C110.738 94.9565 105.808 88.2444 108.104 80.8083L108.103 80.8034Z" fill="#276288"/>
<path d="M98.4307 135.817C97.5108 135.534 96.5391 136 96.1725 136.868L96.1069 137.047L93.7433 144.726L86.9217 148.654L86.7612 148.756C85.9963 149.307 85.7575 150.358 86.2377 151.192C86.7179 152.026 87.747 152.348 88.6066 151.963L88.7761 151.876L92.6824 149.626L91.9316 153.401C91.7316 154.407 92.3853 155.386 93.3919 155.586C94.3988 155.786 95.378 155.132 95.5782 154.125L96.3138 150.424L98.6666 153.569C99.2817 154.391 100.446 154.558 101.268 153.943C102.09 153.328 102.258 152.163 101.644 151.341L97.3588 145.615L99.6609 138.141L99.7074 137.957C99.8924 137.033 99.3506 136.1 98.4307 135.817Z" fill="#474747"/>
<path d="M130.578 118.019C129.99 118.781 130.085 119.854 130.769 120.503L130.913 120.627L137.272 125.538L138.553 133.304L138.592 133.491C138.839 134.4 139.739 134.993 140.689 134.837C141.639 134.68 142.301 133.829 142.242 132.889L142.221 132.7L141.487 128.253L144.757 130.282C145.629 130.822 146.775 130.554 147.316 129.682C147.857 128.81 147.589 127.663 146.717 127.122L143.51 125.133L147.281 124.035C148.266 123.748 148.833 122.716 148.546 121.731C148.259 120.745 147.227 120.178 146.241 120.465L139.375 122.465L133.186 117.684L133.03 117.575C132.23 117.078 131.166 117.257 130.578 118.019Z" fill="#474747"/>
<path d="M80.4117 92.8407L54.8395 93.3394C48.5979 93.4633 44.9644 97.8533 47.676 102.025C51.9066 108.54 59.6871 116.393 72.5169 116.144C83.2323 115.937 89.2314 110.23 92.5549 104.479C95.6842 99.0782 88.9841 92.6695 80.4083 92.8341L80.4117 92.8407Z" fill="#276286"/>
<path d="M140.255 86.4687C149.662 102.03 140.8 122.101 121.831 133.573C102.861 145.045 80.9663 143.574 71.5511 128.019C66.2719 119.287 66.3933 108.56 70.8627 98.8002C69.7999 97.5512 68.8182 96.2004 67.9385 94.7511C59.8756 81.4108 63.8242 65.4395 76.122 58.0058C88.4127 50.571 104.397 54.4857 112.46 67.826C113.339 69.2753 114.082 70.7743 114.684 72.2938C125.41 72.8676 134.968 77.7426 140.247 86.4746L140.255 86.4687Z" fill="#4D8DCB"/>
<path d="M72.634 82.7703C75.1201 82.7703 77.1354 80.7549 77.1354 78.2688C77.1354 75.7828 75.1201 73.7674 72.634 73.7674C70.1479 73.7674 68.1326 75.7828 68.1326 78.2688C68.1326 80.7549 70.1479 82.7703 72.634 82.7703Z" fill="white"/>
<path d="M72.6341 80.67C73.9602 80.67 75.0352 79.595 75.0352 78.2689C75.0352 76.9428 73.9602 75.8679 72.6341 75.8679C71.3081 75.8679 70.2331 76.9428 70.2331 78.2689C70.2331 79.595 71.3081 80.67 72.6341 80.67Z" fill="#040000"/>
<path d="M93.2003 73.5508C95.6864 73.5508 97.7017 71.5355 97.7017 69.0494C97.7017 66.5633 95.6864 64.548 93.2003 64.548C90.7142 64.548 88.6989 66.5633 88.6989 69.0494C88.6989 71.5355 90.7142 73.5508 93.2003 73.5508Z" fill="white"/>
<path d="M93.2004 71.4505C94.5264 71.4505 95.6014 70.3756 95.6014 69.0495C95.6014 67.7234 94.5264 66.6484 93.2004 66.6484C91.8743 66.6484 90.7993 67.7234 90.7993 69.0495C90.7993 70.3756 91.8743 71.4505 93.2004 71.4505Z" fill="#040000"/>
<path d="M86.8317 85.8916C89.2698 85.3885 91.2259 81.1148 90.679 78.7206C90.3018 77.1709 88.5285 74.3508 84.453 75.4681C80.8126 76.2158 79.6544 78.4824 80.2028 80.8713C80.7512 83.2602 84.3936 86.3948 86.8317 85.8916Z" fill="#DDB61E"/>
<path d="M45.2956 138.589C58.9119 135.185 69.0532 136.461 75.1047 139.979C81.1563 143.496 89.6195 167.311 84.6787 174.374C79.738 181.438 32.5304 180.076 27.9441 174.374C25.0463 170.772 28.2752 142.844 45.2956 138.589Z" fill="#313131"/>
</svg>
