<svg width="200" height="200" viewBox="0 0 200 200" fill="none" xmlns="http://www.w3.org/2000/svg">
<mask id="path-1-outside-1_1062_25154" maskUnits="userSpaceOnUse" x="20.2207" y="14.4221" width="171" height="169" fill="black">
<rect fill="white" x="20.2207" y="14.4221" width="171" height="169"/>
<path d="M124.658 23.8637C129.247 19.2749 136.746 19.275 141.335 23.8637L166.13 48.6928C166.173 48.5953 166.195 48.5464 166.196 48.5434L182.481 64.8285C185.055 67.4027 185.055 71.6 182.481 74.1742C182.481 74.1742 123.216 138.867 98.984 155.153C71.3942 173.788 49.0084 176.027 49.0084 176.027C42.0136 177.146 38.4879 176.139 35.9137 173.565L31.9957 169.647C31.9957 169.647 32.2415 169.72 32.7194 169.822L32.7106 169.816C15.4182 154.594 44.1262 150.676 48.3239 140.939L53.9938 127.701C52.0948 126.727 50.7946 124.751 50.7946 122.47C50.7948 119.225 53.4249 116.594 56.6705 116.594H58.7516L62.2946 108.322C59.9107 107.573 58.1823 105.347 58.1823 102.715C58.1824 99.4695 60.8125 96.8393 64.0582 96.8393H67.2135L70.4293 89.3305C68.4482 88.3859 67.0797 86.3652 67.0797 84.0238C67.0797 80.778 69.7099 78.1479 72.9557 78.1479H75.2194L76.5856 74.9584C77.5983 72.5825 77.6628 71.6164 78.4948 70.3617L83.8727 56.2104C87.6222 44.9059 102.005 41.4915 110.456 49.9418L112.862 52.349L99.3043 65.9057C99.4595 65.7795 99.6102 65.6447 99.7545 65.5004L124.546 40.6527C126.84 38.3583 126.84 34.6084 124.546 32.3139C122.252 30.0194 122.251 26.2704 124.546 23.976L124.658 23.8637Z"/>
</mask>
<path d="M124.658 23.8637C129.247 19.2749 136.746 19.275 141.335 23.8637L166.13 48.6928C166.173 48.5953 166.195 48.5464 166.196 48.5434L182.481 64.8285C185.055 67.4027 185.055 71.6 182.481 74.1742C182.481 74.1742 123.216 138.867 98.984 155.153C71.3942 173.788 49.0084 176.027 49.0084 176.027C42.0136 177.146 38.4879 176.139 35.9137 173.565L31.9957 169.647C31.9957 169.647 32.2415 169.72 32.7194 169.822L32.7106 169.816C15.4182 154.594 44.1262 150.676 48.3239 140.939L53.9938 127.701C52.0948 126.727 50.7946 124.751 50.7946 122.47C50.7948 119.225 53.4249 116.594 56.6705 116.594H58.7516L62.2946 108.322C59.9107 107.573 58.1823 105.347 58.1823 102.715C58.1824 99.4695 60.8125 96.8393 64.0582 96.8393H67.2135L70.4293 89.3305C68.4482 88.3859 67.0797 86.3652 67.0797 84.0238C67.0797 80.778 69.7099 78.1479 72.9557 78.1479H75.2194L76.5856 74.9584C77.5983 72.5825 77.6628 71.6164 78.4948 70.3617L83.8727 56.2104C87.6222 44.9059 102.005 41.4915 110.456 49.9418L112.862 52.349L99.3043 65.9057C99.4595 65.7795 99.6102 65.6447 99.7545 65.5004L124.546 40.6527C126.84 38.3583 126.84 34.6084 124.546 32.3139C122.252 30.0194 122.251 26.2704 124.546 23.976L124.658 23.8637Z" fill="#040000"/>
<path d="M124.658 23.8637L120.415 19.621L120.415 19.621L124.658 23.8637ZM141.335 23.8637L145.58 19.624L145.577 19.6209L141.335 23.8637ZM166.13 48.6928L161.884 52.9325C163.283 54.3331 165.282 54.9537 167.228 54.5914C169.174 54.229 170.816 52.9302 171.617 51.1201L166.13 48.6928ZM166.196 48.5434L170.439 44.3007C169.023 42.8852 166.995 42.2689 165.031 42.6575C163.067 43.0462 161.427 44.3887 160.657 46.2368L166.196 48.5434ZM182.481 64.8285L186.724 60.586L186.724 60.5859L182.481 64.8285ZM182.481 74.1742L178.238 69.9316C178.177 69.9935 178.116 70.0567 178.057 70.1213L182.481 74.1742ZM98.984 155.153L95.6372 150.173L95.6256 150.181L98.984 155.153ZM49.0084 176.027L48.4115 170.057C48.2941 170.068 48.177 170.083 48.0605 170.102L49.0084 176.027ZM35.9137 173.565L31.6711 177.807L31.6712 177.808L35.9137 173.565ZM31.9957 169.647L33.7135 163.898C31.081 163.111 28.2505 164.213 26.8429 166.573C25.4354 168.933 25.8103 171.947 27.7531 173.89L31.9957 169.647ZM32.7194 169.822L31.4743 175.691C34.2896 176.288 37.1324 174.802 38.2492 172.15C39.366 169.498 38.4422 166.426 36.0476 164.829L32.7194 169.822ZM32.7106 169.816L28.7462 174.32C28.9471 174.496 29.1596 174.66 29.3824 174.808L32.7106 169.816ZM48.3239 140.939L53.8337 143.314L53.8393 143.301L48.3239 140.939ZM53.9938 127.701L59.5092 130.063C60.7505 127.165 59.537 123.8 56.7314 122.362L53.9938 127.701ZM50.7946 122.47L44.7946 122.47L44.7946 122.47L50.7946 122.47ZM56.6705 116.594L56.6705 110.594L56.6703 110.594L56.6705 116.594ZM58.7516 116.594V122.594C61.1523 122.594 63.3219 121.163 64.267 118.956L58.7516 116.594ZM62.2946 108.322L67.81 110.684C68.4777 109.125 68.4544 107.356 67.7461 105.816C67.0378 104.275 65.7106 103.106 64.0927 102.597L62.2946 108.322ZM58.1823 102.715L52.1823 102.715L52.1823 102.715L58.1823 102.715ZM64.0582 96.8393L64.0582 90.8393L64.0582 90.8393L64.0582 96.8393ZM67.2135 96.8393V102.839C69.6142 102.839 71.7838 101.408 72.729 99.2014L67.2135 96.8393ZM70.4293 89.3305L75.9448 91.6926C77.2124 88.7329 75.9179 85.3002 73.0115 83.9145L70.4293 89.3305ZM67.0797 84.0238L61.0797 84.0238L61.0797 84.0238L67.0797 84.0238ZM72.9557 78.1479L72.9557 72.1479L72.9557 72.1479L72.9557 78.1479ZM75.2194 78.1479V84.1479C77.6199 84.1479 79.7895 82.717 80.7347 80.5104L75.2194 78.1479ZM76.5856 74.9584L82.1009 77.3209L82.1051 77.311L76.5856 74.9584ZM78.4948 70.3617L83.4952 73.6776C83.7413 73.3066 83.9453 72.9093 84.1034 72.4932L78.4948 70.3617ZM83.8727 56.2104L89.4813 58.3418C89.5118 58.2616 89.5406 58.1807 89.5676 58.0993L83.8727 56.2104ZM110.456 49.9418L114.699 45.7L114.698 45.6991L110.456 49.9418ZM112.862 52.349L117.104 56.5918C119.447 54.249 119.448 50.4506 117.105 48.1072L112.862 52.349ZM99.3043 65.9057L95.0618 61.6629C92.8031 63.9215 92.7099 67.5537 94.8498 69.9252C96.9896 72.2967 100.612 72.5759 103.09 70.5603L99.3043 65.9057ZM99.7545 65.5004L103.997 69.743L104.002 69.7382L99.7545 65.5004ZM124.546 40.6527L120.303 36.4101L120.298 36.4149L124.546 40.6527ZM124.546 32.3139L120.303 36.5561L120.303 36.5565L124.546 32.3139ZM124.546 23.976L120.303 19.7333L120.303 19.7336L124.546 23.976ZM124.658 23.8637L128.9 28.1064C131.146 25.8607 134.846 25.8607 137.092 28.1064L141.335 23.8637L145.577 19.6209C138.645 12.6893 127.347 12.6891 120.415 19.621L124.658 23.8637ZM141.335 23.8637L137.089 28.1034L161.884 52.9325L166.13 48.6928L170.375 44.4531L145.58 19.624L141.335 23.8637ZM166.13 48.6928L171.617 51.1201C171.635 51.0777 171.649 51.0466 171.658 51.0261C171.663 51.0146 171.666 51.0088 171.67 50.9994C171.672 50.9964 171.675 50.9893 171.678 50.9818C171.68 50.9785 171.683 50.97 171.688 50.9595C171.69 50.9543 171.695 50.9444 171.7 50.9319C171.703 50.9254 171.717 50.8923 171.735 50.8499L166.196 48.5434L160.657 46.2368C160.662 46.2238 160.667 46.2127 160.671 46.2044C160.674 46.1959 160.677 46.1886 160.68 46.1827C160.685 46.1713 160.689 46.1619 160.691 46.1557C160.697 46.1436 160.701 46.1341 160.703 46.1295C160.705 46.1242 160.707 46.12 160.708 46.1175C160.709 46.1149 160.71 46.1128 160.711 46.1115C160.711 46.1101 160.712 46.1091 160.712 46.1086C160.712 46.108 160.713 46.1077 160.713 46.1076C160.713 46.1075 160.712 46.1079 160.712 46.1092C160.71 46.1129 160.704 46.1259 160.699 46.1392C160.686 46.1684 160.667 46.2104 160.642 46.2655L166.13 48.6928ZM166.196 48.5434L161.953 52.786L178.238 69.0712L182.481 64.8285L186.724 60.5859L170.439 44.3007L166.196 48.5434ZM182.481 64.8285L178.238 69.0711C178.47 69.3023 178.469 69.7006 178.238 69.9316L182.481 74.1742L186.724 78.4168C191.641 73.4994 191.641 65.5032 186.724 60.586L182.481 64.8285ZM182.481 74.1742C178.057 70.1213 178.057 70.1213 178.057 70.1217C178.056 70.1221 178.056 70.1227 178.055 70.1235C178.053 70.1253 178.051 70.128 178.047 70.1317C178.041 70.1391 178.03 70.1503 178.016 70.1655C177.989 70.1957 177.947 70.2413 177.891 70.3018C177.78 70.4228 177.614 70.6035 177.396 70.8404C176.96 71.3142 176.315 72.0128 175.485 72.9087C173.826 74.7006 171.425 77.2811 168.469 80.4296C162.553 86.7282 154.419 95.2914 145.534 104.357C127.567 122.69 107.142 142.441 95.6373 150.173L98.984 155.153L102.331 160.133C115.059 151.579 136.381 130.841 154.105 112.756C163.066 103.613 171.262 94.9847 177.216 88.6444C180.194 85.4734 182.613 82.8725 184.289 81.0629C185.127 80.1581 185.78 79.4509 186.223 78.9691C186.445 78.7282 186.615 78.5436 186.729 78.4188C186.787 78.3564 186.83 78.309 186.86 78.2769C186.874 78.2608 186.886 78.2486 186.893 78.2403C186.897 78.2362 186.9 78.233 186.902 78.2308C186.903 78.2297 186.904 78.2288 186.904 78.2283C186.905 78.2276 186.905 78.2272 182.481 74.1742ZM98.984 155.153L95.6256 150.181C82.3648 159.138 70.401 164.123 61.8245 166.863C57.5361 168.232 54.0973 169.04 51.7716 169.5C50.6091 169.73 49.7256 169.874 49.1542 169.958C48.8686 169.999 48.6611 170.026 48.5359 170.042C48.4733 170.049 48.4313 170.054 48.4104 170.057C48.3999 170.058 48.3947 170.058 48.3949 170.058C48.395 170.058 48.3964 170.058 48.3992 170.058C48.4005 170.058 48.4023 170.057 48.4043 170.057C48.4053 170.057 48.4071 170.057 48.4076 170.057C48.4095 170.057 48.4115 170.057 49.0084 176.027C49.6054 181.997 49.6075 181.997 49.6097 181.997C49.6106 181.996 49.6129 181.996 49.6146 181.996C49.618 181.996 49.6218 181.995 49.6259 181.995C49.6341 181.994 49.6437 181.993 49.6546 181.992C49.6765 181.99 49.7039 181.987 49.7366 181.983C49.8021 181.976 49.8892 181.966 49.9973 181.952C50.2135 181.926 50.5139 181.887 50.8942 181.831C51.6549 181.719 52.7358 181.542 54.103 181.272C56.8368 180.73 60.7189 179.813 65.4756 178.294C74.9895 175.255 88.0134 169.803 102.342 160.125L98.984 155.153ZM49.0084 176.027L48.0605 170.102C44.9252 170.604 43.1053 170.532 42.0292 170.307C41.137 170.121 40.6491 169.815 40.1562 169.322L35.9137 173.565L31.6712 177.808C33.7525 179.889 36.3145 181.373 39.5775 182.054C42.6565 182.697 46.0968 182.569 49.9563 181.951L49.0084 176.027ZM35.9137 173.565L40.1564 169.322L36.2384 165.404L31.9957 169.647L27.7531 173.89L31.6711 177.807L35.9137 173.565ZM31.9957 169.647C30.278 175.396 30.2784 175.396 30.2789 175.396C30.279 175.396 30.2795 175.396 30.2798 175.396C30.2803 175.396 30.2809 175.397 30.2815 175.397C30.2827 175.397 30.2839 175.398 30.2851 175.398C30.2876 175.399 30.2901 175.399 30.2927 175.4C30.2978 175.402 30.3032 175.403 30.3088 175.405C30.32 175.408 30.3323 175.412 30.3455 175.416C30.372 175.423 30.4024 175.432 30.4368 175.441C30.5055 175.46 30.59 175.483 30.6899 175.509C30.8899 175.56 31.1519 175.623 31.4743 175.691L32.7194 169.822L33.9644 163.952C33.809 163.919 33.7092 163.895 33.6668 163.884C33.6456 163.878 33.6387 163.876 33.6464 163.879C33.6503 163.88 33.6578 163.882 33.669 163.885C33.6745 163.887 33.681 163.888 33.6885 163.891C33.6922 163.892 33.6961 163.893 33.7003 163.894C33.7024 163.895 33.7045 163.895 33.7067 163.896C33.7078 163.896 33.7089 163.897 33.71 163.897C33.7106 163.897 33.7112 163.897 33.7117 163.898C33.712 163.898 33.7125 163.898 33.7126 163.898C33.713 163.898 33.7135 163.898 31.9957 169.647ZM32.7194 169.822L36.0476 164.829L36.0388 164.824L32.7106 169.816L29.3824 174.808L29.3912 174.814L32.7194 169.822ZM32.7106 169.816L36.675 165.312C32.8086 161.909 33.2641 160.621 33.2203 160.98C33.2187 160.993 33.398 160.089 36.0273 158.144C37.1898 157.284 38.554 156.416 40.1203 155.454C41.6128 154.537 43.3674 153.488 44.9715 152.436C47.918 150.504 51.9936 147.583 53.8337 143.314L48.3239 140.939L42.814 138.564C42.5553 139.164 41.4683 140.384 38.3919 142.401C36.9844 143.323 35.5124 144.201 33.8388 145.229C32.2388 146.212 30.4972 147.308 28.8896 148.497C25.9787 150.651 21.961 154.19 21.309 159.523C20.6147 165.202 23.9663 170.112 28.7462 174.32L32.7106 169.816ZM48.3239 140.939L53.8393 143.301L59.5092 130.063L53.9938 127.701L48.4784 125.338L42.8085 138.577L48.3239 140.939ZM53.9938 127.701L56.7314 122.362C56.7503 122.371 56.7617 122.382 56.7714 122.398C56.7775 122.408 56.784 122.421 56.7887 122.437C56.7911 122.445 56.7927 122.453 56.7936 122.46C56.794 122.463 56.7943 122.465 56.7944 122.467C56.7946 122.469 56.7946 122.47 56.7946 122.47L50.7946 122.47L44.7946 122.47C44.7946 127.092 47.4358 131.081 51.2561 133.04L53.9938 127.701ZM50.7946 122.47L56.7946 122.471C56.7946 122.47 56.7946 122.472 56.7942 122.476C56.7939 122.479 56.7932 122.484 56.7922 122.489C56.79 122.499 56.7867 122.51 56.7825 122.52C56.7744 122.539 56.7652 122.551 56.7582 122.558C56.7512 122.565 56.7396 122.574 56.7204 122.582C56.7104 122.586 56.6996 122.59 56.689 122.592C56.6839 122.593 56.6794 122.593 56.676 122.594C56.6725 122.594 56.6707 122.594 56.6708 122.594L56.6705 116.594L56.6703 110.594C50.1111 110.594 44.795 115.911 44.7946 122.47L50.7946 122.47ZM56.6705 116.594V122.594H58.7516V116.594V110.594H56.6705V116.594ZM58.7516 116.594L64.267 118.956L67.81 110.684L62.2946 108.322L56.7791 105.96L53.2362 114.232L58.7516 116.594ZM62.2946 108.322L64.0927 102.597C64.128 102.609 64.1452 102.625 64.1544 102.638C64.1608 102.646 64.1685 102.659 64.1745 102.677C64.1775 102.686 64.1796 102.695 64.1809 102.703C64.1815 102.706 64.1819 102.71 64.1821 102.712C64.1823 102.714 64.1823 102.715 64.1823 102.715L58.1823 102.715L52.1823 102.715C52.1823 108.042 55.6836 112.534 60.4965 114.046L62.2946 108.322ZM58.1823 102.715L64.1823 102.716C64.1823 102.715 64.1823 102.717 64.1819 102.721C64.1816 102.724 64.1809 102.728 64.1799 102.734C64.1777 102.744 64.1744 102.755 64.1702 102.765C64.1621 102.784 64.1529 102.796 64.1458 102.803C64.1388 102.81 64.1271 102.819 64.1078 102.827C64.0978 102.831 64.0871 102.835 64.0764 102.837C64.0713 102.838 64.0669 102.839 64.0634 102.839C64.0599 102.839 64.0581 102.839 64.0582 102.839L64.0582 96.8393L64.0582 90.8393C57.4985 90.8393 52.1826 96.156 52.1823 102.715L58.1823 102.715ZM64.0582 96.8393V102.839H67.2135V96.8393V90.8393H64.0582V96.8393ZM67.2135 96.8393L72.729 99.2014L75.9448 91.6926L70.4293 89.3305L64.9139 86.9683L61.6981 94.4771L67.2135 96.8393ZM70.4293 89.3305L73.0115 83.9145C73.0343 83.9254 73.0468 83.9379 73.0563 83.9527C73.0624 83.9622 73.0689 83.9753 73.0738 83.9916C73.0762 83.9996 73.0778 84.0072 73.0787 84.0136C73.0797 84.0202 73.0797 84.0239 73.0797 84.0238L67.0797 84.0238L61.0797 84.0238C61.0797 88.7642 63.8565 92.8438 67.8471 94.7464L70.4293 89.3305ZM67.0797 84.0238L73.0797 84.0239C73.0797 84.0237 73.0797 84.0255 73.0794 84.029C73.079 84.0324 73.0784 84.0368 73.0773 84.0419C73.0752 84.0525 73.0718 84.0633 73.0676 84.0733C73.0595 84.0925 73.0502 84.1042 73.0432 84.1113C73.0361 84.1184 73.0244 84.1276 73.0051 84.1357C72.9952 84.14 72.9844 84.1433 72.9738 84.1455C72.9686 84.1465 72.9642 84.1472 72.9608 84.1475C72.9573 84.1479 72.9555 84.1479 72.9557 84.1479L72.9557 78.1479L72.9557 72.1479C66.3961 72.1479 61.0798 77.4643 61.0797 84.0238L67.0797 84.0238ZM72.9557 78.1479V84.1479H75.2194V78.1479V72.1479H72.9557V78.1479ZM75.2194 78.1479L80.7347 80.5104L82.1009 77.3209L76.5856 74.9584L71.0703 72.5959L69.7041 75.7854L75.2194 78.1479ZM76.5856 74.9584L82.1051 77.311C82.7057 75.9018 83.0605 74.8154 83.2626 74.2459C83.4529 73.7094 83.4833 73.6956 83.4952 73.6776L78.4948 70.3617L73.4943 67.0458C72.6742 68.2825 72.2564 69.3791 71.9533 70.2333C71.6619 71.0545 71.4781 71.639 71.066 72.6058L76.5856 74.9584ZM78.4948 70.3617L84.1034 72.4932L89.4813 58.3418L83.8727 56.2104L78.264 54.0789L72.8861 68.2303L78.4948 70.3617ZM83.8727 56.2104L89.5676 58.0993C91.9095 51.0387 100.914 48.8858 106.213 54.1845L110.456 49.9418L114.698 45.6991C103.096 34.0973 83.3349 38.773 78.1778 54.3215L83.8727 56.2104ZM110.456 49.9418L106.212 54.1836L108.618 56.5908L112.862 52.349L117.105 48.1072L114.699 45.7L110.456 49.9418ZM112.862 52.349L108.619 48.1062L95.0618 61.6629L99.3043 65.9057L103.547 70.1485L117.104 56.5918L112.862 52.349ZM99.3043 65.9057L103.09 70.5603C103.392 70.3153 103.696 70.0438 103.997 69.743L99.7545 65.5004L95.5119 61.2578C95.524 61.2457 95.5272 61.2437 95.5183 61.251L99.3043 65.9057ZM99.7545 65.5004L104.002 69.7382L128.793 44.8905L124.546 40.6527L120.298 36.4149L95.5071 61.2626L99.7545 65.5004ZM124.546 40.6527L128.788 44.8954C133.426 40.2577 133.426 32.7089 128.788 28.0712L124.546 32.3139L120.303 36.5565C120.294 36.5476 120.281 36.5293 120.273 36.5093C120.266 36.4934 120.266 36.485 120.266 36.4833C120.266 36.4816 120.266 36.4732 120.273 36.4573C120.281 36.4373 120.294 36.419 120.303 36.4101L124.546 40.6527ZM124.546 32.3139L128.789 28.0716C128.797 28.0805 128.81 28.0987 128.819 28.1188C128.825 28.1346 128.825 28.1431 128.825 28.1449C128.825 28.1467 128.825 28.1552 128.818 28.1711C128.81 28.1912 128.797 28.2094 128.788 28.2184L124.546 23.976L120.303 19.7336C115.666 24.3712 115.666 31.9188 120.303 36.5561L124.546 32.3139ZM124.546 23.976L128.788 28.2186L128.9 28.1063L124.658 23.8637L120.415 19.621L120.303 19.7333L124.546 23.976Z" fill="white" mask="url(#path-1-outside-1_1062_25154)"/>
<path d="M92.099 73.1113L112.861 52.3487L110.455 49.9423C102.004 41.4919 87.622 44.9056 83.8724 56.2102L74.3027 81.3938L92.099 73.1113Z" fill="#CA202B"/>
<path d="M48.3235 140.939L76.5849 74.9583C78.0399 71.5446 77.5363 71.0409 80.1665 68.4106L83.0766 65.5005C85.3711 63.2061 89.1206 63.2061 91.4151 65.5005C93.7096 67.795 97.4591 67.795 99.7536 65.5005L124.545 40.6529C126.84 38.3584 126.84 34.6089 124.545 32.3144C122.251 30.0199 122.251 26.2704 124.545 23.9759L124.657 23.864C129.246 19.275 136.745 19.275 141.334 23.864L182.467 65.0528C184.985 67.5712 184.985 71.6565 182.467 74.1748L65.9519 170.655C63.4336 173.174 39.8172 175.468 37.2988 172.95L32.7098 169.816C15.4172 154.594 44.1263 150.676 48.3235 140.939Z" fill="#E8EAE5"/>
<path fill-rule="evenodd" clip-rule="evenodd" d="M90.7511 88.1652C91.8144 87.1019 92.486 85.6469 92.486 84.024C92.486 80.7781 89.8557 78.1478 86.6098 78.1478L72.9548 78.1478C69.709 78.1478 67.0787 80.7781 67.0787 84.024C67.0787 87.2698 69.709 89.9001 72.9548 89.9001H86.6098C88.1768 89.9001 89.6878 89.2285 90.7511 88.1652ZM81.8535 106.857C82.9168 105.794 83.5884 104.339 83.5884 102.716C83.5884 99.4698 80.9581 96.8395 77.7122 96.8395H64.0573C60.8114 96.8395 58.1811 99.4698 58.1811 102.716C58.1811 105.961 60.8114 108.592 64.0573 108.592L77.7123 108.592C79.2792 108.592 80.7902 107.92 81.8535 106.857ZM76.2013 122.471C76.2013 124.094 75.5297 125.549 74.4664 126.612C73.4031 127.675 71.9481 128.291 70.3251 128.347H56.6701C53.4243 128.347 50.794 125.716 50.794 122.471C50.794 119.225 53.4243 116.594 56.6701 116.594L70.3251 116.594C73.571 116.594 76.2013 119.225 76.2013 122.471Z" fill="#C5B6B6"/>
<path d="M49.0081 176.027C49.0081 176.027 71.3934 173.788 98.9832 155.153C123.215 138.867 182.48 74.1741 182.48 74.1741C185.054 71.5998 185.055 67.4026 182.48 64.8284L166.195 48.5432C166.195 48.5432 157.494 69.4795 111.18 124.584C64.8655 179.689 31.9953 169.647 31.9953 169.647L35.9128 173.565C38.4871 176.139 42.0127 177.146 49.0081 176.027Z" fill="#DDDDDD"/>
<path d="M107.405 105.291C91.2005 105.987 95.7655 86.609 100.074 76.8333C102.047 81.3218 107.955 88.3373 115.802 80.4906C127.874 68.4188 140.391 39.6883 144.708 28.4124L150.336 34.0406C142.948 57.3348 123.61 104.594 107.405 105.291Z" fill="#C51625"/>
<path d="M112.494 99.2721C115.174 96.5921 115.174 92.2468 112.494 89.5667C109.814 86.8867 105.468 86.8867 102.788 89.5667C100.108 92.2468 100.108 96.5921 102.788 99.2721C105.468 101.952 109.814 101.952 112.494 99.2721Z" fill="white"/>
<path d="M110.229 97.0043C111.657 95.5758 111.657 93.2597 110.229 91.8311C108.8 90.4026 106.484 90.4026 105.055 91.8311C103.627 93.2597 103.627 95.5758 105.055 97.0043C106.484 98.4329 108.8 98.4329 110.229 97.0043Z" fill="#040000"/>
</svg>
