<svg width="200" height="200" viewBox="0 0 200 200" fill="none" xmlns="http://www.w3.org/2000/svg">
<g clip-path="url(#clip0_1347_4272)">
<mask id="path-1-outside-1_1347_4272" maskUnits="userSpaceOnUse" x="3.36963" y="22.6772" width="198" height="150" fill="black">
<rect fill="white" x="3.36963" y="22.6772" width="198" height="150"/>
<path d="M161.728 131.375C178.721 129.218 192.866 133.486 194.767 140.909C195.073 142.084 195.067 143.335 194.712 144.651C194.702 144.692 194.693 144.733 194.681 144.774C192.711 151.608 182.816 151.156 179.341 150.776C179.305 151.047 179.179 151.309 178.962 151.51C178.94 151.531 178.915 151.55 178.891 151.569C180.436 153.695 183.41 158.981 178.647 163.265C173.518 167.878 162.919 161.167 159.639 158.887C159.455 159.144 159.173 159.331 158.836 159.383C158.774 159.393 158.711 159.396 158.65 159.396C158.54 161.736 157.707 166.624 152.661 166.577C143.86 166.605 144.578 158.678 140.647 154.699C138.571 153.141 136.3 151.871 133.897 150.919C133.87 150.939 133.844 150.959 133.817 150.978C132.646 150.524 131.46 150.142 130.417 149.788C129.995 149.658 129.616 149.413 129.323 149.083C129.03 148.752 128.833 148.347 128.755 147.912C128.677 147.476 128.721 147.028 128.88 146.616C129.04 146.204 129.311 145.843 129.662 145.575C138.973 138.199 150.008 133.313 161.728 131.375ZM109.206 51.5347C110.013 51.627 110.757 52.0184 111.291 52.6313L135.462 83.0171C135.814 83.5022 136.021 84.0715 136.069 84.6606L136.28 84.6392L138.859 103.394C138.902 103.873 138.831 104.355 138.653 104.801C138.475 105.248 138.194 105.646 137.833 105.963L127.823 115.502C120.825 121.076 112.745 125.136 104.097 127.427C95.4622 129.726 87.3959 133.786 80.4048 139.351L70.3696 147.327C70.0509 147.585 69.6829 147.777 69.2886 147.89C68.8943 148.004 68.481 148.036 68.0737 147.987C67.6665 147.937 67.273 147.807 66.9175 147.602C66.562 147.397 66.2509 147.124 66.0034 146.796L41.687 115.604C41.3657 115.177 41.1674 114.669 41.1138 114.137L38.5718 95.7407C38.3384 95.2146 38.2448 94.6331 38.311 94.0532C38.4033 93.2457 38.7947 92.5019 39.4077 91.9683L49.4751 83.9897C56.4579 78.4119 64.5273 74.3515 73.1675 72.0669C81.8114 69.7646 89.8884 65.7046 96.8931 60.1411L106.926 52.1323C107.584 51.6554 108.398 51.4424 109.206 51.5347ZM11.9536 30.231C16.7041 27.043 27.2914 28.8095 37.9468 35.0776C45.8561 40.281 52.3129 47.4097 56.7095 55.7944C56.9262 56.1158 57.0406 56.4957 57.0376 56.8833C57.0345 57.2707 56.9135 57.6485 56.6919 57.9663C56.4702 58.284 56.1579 58.5278 55.7954 58.6646C55.4328 58.8013 55.037 58.8251 54.6606 58.7329C51.6293 58.2173 48.5238 58.3315 45.5386 59.0688C41.484 60.5813 39.3597 66.7325 32.937 63.8247C29.4479 62.2403 30.2157 58.6401 30.8862 56.8071C30.824 56.7801 30.7623 56.7497 30.7036 56.7114C30.4194 56.5262 30.2366 56.243 30.1733 55.9351C26.8014 56.5633 17.3192 57.8499 15.1284 52.9604C13.1203 48.4782 16.6459 45.6096 18.5327 44.4565C18.5146 44.4227 18.4981 44.3872 18.4829 44.3511C18.3692 44.08 18.3608 43.791 18.439 43.5298C17.2763 43.1479 15.4211 42.4433 13.6909 41.3667C13.6752 41.4092 13.6579 41.4515 13.6431 41.4946C12.3021 40.8568 11.1838 39.8309 10.4321 38.5503C10.2731 38.2794 10.1329 37.9991 10.0103 37.7124C9.49576 36.7145 9.25041 35.5837 9.42627 34.311C9.57274 33.2434 9.94994 32.3318 10.5229 31.5708C10.7468 31.2735 10.9984 30.9975 11.2808 30.7466C11.3645 30.6722 11.4509 30.6001 11.5396 30.5298C11.6717 30.4249 11.8108 30.3268 11.9536 30.231Z"/>
</mask>
<path d="M161.728 131.375C178.721 129.218 192.866 133.486 194.767 140.909C195.073 142.084 195.067 143.335 194.712 144.651C194.702 144.692 194.693 144.733 194.681 144.774C192.711 151.608 182.816 151.156 179.341 150.776C179.305 151.047 179.179 151.309 178.962 151.51C178.94 151.531 178.915 151.55 178.891 151.569C180.436 153.695 183.41 158.981 178.647 163.265C173.518 167.878 162.919 161.167 159.639 158.887C159.455 159.144 159.173 159.331 158.836 159.383C158.774 159.393 158.711 159.396 158.65 159.396C158.54 161.736 157.707 166.624 152.661 166.577C143.86 166.605 144.578 158.678 140.647 154.699C138.571 153.141 136.3 151.871 133.897 150.919C133.87 150.939 133.844 150.959 133.817 150.978C132.646 150.524 131.46 150.142 130.417 149.788C129.995 149.658 129.616 149.413 129.323 149.083C129.03 148.752 128.833 148.347 128.755 147.912C128.677 147.476 128.721 147.028 128.88 146.616C129.04 146.204 129.311 145.843 129.662 145.575C138.973 138.199 150.008 133.313 161.728 131.375ZM109.206 51.5347C110.013 51.627 110.757 52.0184 111.291 52.6313L135.462 83.0171C135.814 83.5022 136.021 84.0715 136.069 84.6606L136.28 84.6392L138.859 103.394C138.902 103.873 138.831 104.355 138.653 104.801C138.475 105.248 138.194 105.646 137.833 105.963L127.823 115.502C120.825 121.076 112.745 125.136 104.097 127.427C95.4622 129.726 87.3959 133.786 80.4048 139.351L70.3696 147.327C70.0509 147.585 69.6829 147.777 69.2886 147.89C68.8943 148.004 68.481 148.036 68.0737 147.987C67.6665 147.937 67.273 147.807 66.9175 147.602C66.562 147.397 66.2509 147.124 66.0034 146.796L41.687 115.604C41.3657 115.177 41.1674 114.669 41.1138 114.137L38.5718 95.7407C38.3384 95.2146 38.2448 94.6331 38.311 94.0532C38.4033 93.2457 38.7947 92.5019 39.4077 91.9683L49.4751 83.9897C56.4579 78.4119 64.5273 74.3515 73.1675 72.0669C81.8114 69.7646 89.8884 65.7046 96.8931 60.1411L106.926 52.1323C107.584 51.6554 108.398 51.4424 109.206 51.5347ZM11.9536 30.231C16.7041 27.043 27.2914 28.8095 37.9468 35.0776C45.8561 40.281 52.3129 47.4097 56.7095 55.7944C56.9262 56.1158 57.0406 56.4957 57.0376 56.8833C57.0345 57.2707 56.9135 57.6485 56.6919 57.9663C56.4702 58.284 56.1579 58.5278 55.7954 58.6646C55.4328 58.8013 55.037 58.8251 54.6606 58.7329C51.6293 58.2173 48.5238 58.3315 45.5386 59.0688C41.484 60.5813 39.3597 66.7325 32.937 63.8247C29.4479 62.2403 30.2157 58.6401 30.8862 56.8071C30.824 56.7801 30.7623 56.7497 30.7036 56.7114C30.4194 56.5262 30.2366 56.243 30.1733 55.9351C26.8014 56.5633 17.3192 57.8499 15.1284 52.9604C13.1203 48.4782 16.6459 45.6096 18.5327 44.4565C18.5146 44.4227 18.4981 44.3872 18.4829 44.3511C18.3692 44.08 18.3608 43.791 18.439 43.5298C17.2763 43.1479 15.4211 42.4433 13.6909 41.3667C13.6752 41.4092 13.6579 41.4515 13.6431 41.4946C12.3021 40.8568 11.1838 39.8309 10.4321 38.5503C10.2731 38.2794 10.1329 37.9991 10.0103 37.7124C9.49576 36.7145 9.25041 35.5837 9.42627 34.311C9.57274 33.2434 9.94994 32.3318 10.5229 31.5708C10.7468 31.2735 10.9984 30.9975 11.2808 30.7466C11.3645 30.6722 11.4509 30.6001 11.5396 30.5298C11.6717 30.4249 11.8108 30.3268 11.9536 30.231Z" fill="#276288"/>
<path d="M161.728 131.375L160.973 125.422C160.898 125.432 160.823 125.443 160.749 125.455L161.728 131.375ZM194.767 140.909L188.955 142.397C188.957 142.406 188.959 142.414 188.961 142.422L194.767 140.909ZM194.712 144.651L188.919 143.09C188.917 143.099 188.914 143.108 188.912 143.117L194.712 144.651ZM194.681 144.774L200.446 146.436C200.451 146.42 200.455 146.405 200.46 146.39L194.681 144.774ZM179.341 150.776L179.993 144.811C176.751 144.457 173.82 146.757 173.393 149.99L179.341 150.776ZM178.962 151.51L183.045 155.907L183.046 155.906L178.962 151.51ZM178.891 151.569L175.147 146.88C172.641 148.881 172.152 152.5 174.037 155.095L178.891 151.569ZM178.647 163.265L182.659 167.726L182.659 167.726L178.647 163.265ZM159.639 158.887L163.064 153.96C160.37 152.088 156.671 152.726 154.761 155.394L159.639 158.887ZM158.836 159.383L159.76 165.312L159.763 165.311L158.836 159.383ZM158.65 159.396L158.637 153.396C155.438 153.403 152.807 155.918 152.657 159.114L158.65 159.396ZM152.661 166.577L152.717 160.577C152.692 160.577 152.667 160.577 152.641 160.577L152.661 166.577ZM140.647 154.699L144.916 150.482C144.708 150.272 144.485 150.077 144.249 149.9L140.647 154.699ZM133.897 150.919L136.107 145.341C134.198 144.585 132.034 144.858 130.372 146.064L133.897 150.919ZM133.817 150.978L131.65 156.573C133.553 157.31 135.699 157.029 137.349 155.829L133.817 150.978ZM130.417 149.788L132.347 144.106C132.292 144.088 132.237 144.07 132.182 144.053L130.417 149.788ZM129.323 149.083L124.83 153.06L124.831 153.061L129.323 149.083ZM128.755 147.912L122.85 148.971L122.85 148.971L128.755 147.912ZM128.88 146.616L123.286 144.446L123.286 144.446L128.88 146.616ZM129.662 145.575L133.309 150.338C133.335 150.319 133.361 150.298 133.387 150.278L129.662 145.575ZM109.206 51.5347L109.887 45.5735L109.887 45.5734L109.206 51.5347ZM111.291 52.6313L115.986 48.8961C115.931 48.8268 115.874 48.7587 115.816 48.6919L111.291 52.6313ZM135.462 83.0171L140.321 79.4966C140.268 79.4238 140.214 79.3522 140.158 79.2818L135.462 83.0171ZM136.069 84.6606L130.089 85.1509C130.221 86.7573 130.993 88.2431 132.232 89.2738C133.472 90.3044 135.073 90.7931 136.677 90.6298L136.069 84.6606ZM136.28 84.6392L142.224 83.8218C141.784 80.6203 138.887 78.3426 135.672 78.67L136.28 84.6392ZM138.859 103.394L144.835 102.859C144.827 102.765 144.816 102.67 144.803 102.577L138.859 103.394ZM138.653 104.801L144.225 107.026L144.225 107.026L138.653 104.801ZM137.833 105.963L133.869 101.46C133.81 101.512 133.752 101.565 133.694 101.62L137.833 105.963ZM127.823 115.502L131.561 120.196C131.7 120.085 131.833 119.969 131.962 119.846L127.823 115.502ZM104.097 127.427L102.561 121.627L102.554 121.629L104.097 127.427ZM80.4048 139.351L84.1379 144.048L84.1416 144.045L80.4048 139.351ZM70.3696 147.327L66.6365 142.629C66.6214 142.641 66.6065 142.653 66.5915 142.666L70.3696 147.327ZM69.2886 147.89L70.947 153.656H70.947L69.2886 147.89ZM68.0737 147.987L67.3489 153.943L67.3493 153.943L68.0737 147.987ZM66.9175 147.602L63.9247 152.802L63.9251 152.803L66.9175 147.602ZM66.0034 146.796L70.7886 143.177C70.7711 143.154 70.7533 143.13 70.7354 143.107L66.0034 146.796ZM41.687 115.604L36.8919 119.211C36.9127 119.238 36.9337 119.266 36.955 119.293L41.687 115.604ZM41.1138 114.137L47.0835 113.535C47.0761 113.462 47.0674 113.389 47.0573 113.316L41.1138 114.137ZM38.5718 95.7407L44.5153 94.9195C44.4385 94.3634 44.284 93.8209 44.0564 93.3077L38.5718 95.7407ZM38.311 94.0532L32.3498 93.3722L32.3498 93.3725L38.311 94.0532ZM39.4077 91.9683L35.6811 87.2659C35.6088 87.3232 35.5378 87.3821 35.4683 87.4427L39.4077 91.9683ZM49.4751 83.9897L53.2018 88.6921C53.2078 88.6873 53.2138 88.6825 53.2198 88.6777L49.4751 83.9897ZM73.1675 72.0669L74.7013 77.8675L74.7117 77.8648L73.1675 72.0669ZM96.8931 60.1411L100.625 64.8395C100.629 64.8364 100.632 64.8334 100.636 64.8304L96.8931 60.1411ZM106.926 52.1323L103.406 47.2737C103.33 47.3284 103.256 47.3849 103.183 47.4431L106.926 52.1323ZM11.9536 30.231L15.2964 35.2135L15.297 35.2131L11.9536 30.231ZM37.9468 35.0776L41.2444 30.0651C41.1606 30.01 41.0754 29.9569 40.989 29.9061L37.9468 35.0776ZM56.7095 55.7944L51.3957 58.5808C51.4982 58.7762 51.6114 58.9659 51.7348 59.1489L56.7095 55.7944ZM57.0376 56.8833L63.0374 56.9312L63.0374 56.9302L57.0376 56.8833ZM56.6919 57.9663L61.6127 61.3994L61.6136 61.398L56.6919 57.9663ZM55.7954 58.6646L57.9134 64.2783L57.9137 64.2782L55.7954 58.6646ZM54.6606 58.7329L56.0883 52.9052C55.9489 52.8711 55.8083 52.8419 55.6668 52.8179L54.6606 58.7329ZM45.5386 59.0688L44.0999 53.2439C43.8767 53.299 43.6569 53.3669 43.4415 53.4473L45.5386 59.0688ZM32.937 63.8247L30.4562 69.2878L30.4624 69.2906L32.937 63.8247ZM30.8862 56.8071L36.5211 58.8683C37.6127 55.8842 36.1885 52.5665 33.2732 51.3024L30.8862 56.8071ZM30.7036 56.7114L27.4277 61.7382L27.4292 61.7391L30.7036 56.7114ZM30.1733 55.9351L36.0506 54.7278C35.3925 51.524 32.2898 49.4375 29.0744 50.0366L30.1733 55.9351ZM15.1284 52.9604L9.65285 55.4136L9.65295 55.4139L15.1284 52.9604ZM18.5327 44.4565L21.6614 49.5763C24.3761 47.9173 25.3239 44.4279 23.8217 41.6234L18.5327 44.4565ZM18.4829 44.3511L12.9501 46.6722L12.9512 46.6749L18.4829 44.3511ZM18.439 43.5298L24.1873 45.2492C25.119 42.1343 23.4003 38.8441 20.3114 37.8294L18.439 43.5298ZM13.6909 41.3667L16.8609 36.2724C15.3297 35.3197 13.4512 35.1061 11.7453 35.6909C10.0393 36.2757 8.68688 37.5968 8.06228 39.2886L13.6909 41.3667ZM13.6431 41.4946L11.0658 46.9129C12.6089 47.6469 14.3916 47.6881 15.9669 47.0263C17.5422 46.3646 18.7606 45.0625 19.3166 43.4468L13.6431 41.4946ZM10.4321 38.5503L5.25762 41.5875L5.25772 41.5876L10.4321 38.5503ZM10.0103 37.7124L15.5266 35.3524C15.4702 35.2204 15.4089 35.0904 15.3431 34.9628L10.0103 37.7124ZM9.42627 34.311L15.3698 35.1323L15.3706 35.1266L9.42627 34.311ZM10.5229 31.5708L15.316 35.18L15.3167 35.1791L10.5229 31.5708ZM11.2808 30.7466L7.29528 26.2615L7.29496 26.2618L11.2808 30.7466ZM11.5396 30.5298L15.2688 35.2301L15.2688 35.2301L11.5396 30.5298ZM161.728 131.375L162.483 137.327C170.353 136.328 177.282 136.863 182.222 138.308C187.619 139.887 188.832 141.917 188.955 142.397L194.767 140.909L200.579 139.42C198.802 132.478 191.991 128.663 185.591 126.791C178.736 124.785 170.096 124.265 160.973 125.422L161.728 131.375ZM194.767 140.909L188.961 142.422C188.988 142.524 189.02 142.714 188.919 143.09L194.712 144.651L200.506 146.212C201.114 143.956 201.159 141.643 200.573 139.395L194.767 140.909ZM194.712 144.651L188.912 143.117C188.898 143.169 188.887 143.211 188.881 143.238C188.878 143.251 188.875 143.263 188.873 143.27C188.872 143.274 188.871 143.278 188.871 143.28C188.87 143.282 188.87 143.284 188.869 143.284C188.869 143.286 188.869 143.284 188.87 143.28C188.872 143.276 188.873 143.268 188.876 143.258C188.881 143.237 188.89 143.203 188.903 143.158L194.681 144.774L200.46 146.39C200.478 146.325 200.492 146.269 200.503 146.229C200.513 146.189 200.521 146.156 200.525 146.14C200.531 146.116 200.528 146.125 200.528 146.125C200.527 146.131 200.521 146.154 200.513 146.184L194.712 144.651ZM194.681 144.774L188.916 143.112C188.83 143.41 188.556 144.121 186.287 144.62C184.084 145.105 181.507 144.977 179.993 144.811L179.341 150.776L178.689 156.74C180.65 156.955 184.759 157.243 188.864 156.34C192.904 155.452 198.562 152.972 200.446 146.436L194.681 144.774ZM179.341 150.776L173.393 149.99C173.532 148.939 174.029 147.904 174.879 147.114L178.962 151.51L183.046 155.906C184.329 154.715 185.079 153.156 185.29 151.561L179.341 150.776ZM178.962 151.51L174.88 147.113C175.019 146.985 175.131 146.893 175.172 146.861C175.192 146.845 175.208 146.832 175.201 146.838C175.2 146.838 175.192 146.845 175.185 146.851C175.176 146.857 175.163 146.868 175.147 146.88L178.891 151.569L182.635 156.258C182.619 156.27 182.605 156.281 182.617 156.272C182.622 156.268 182.65 156.246 182.683 156.22C182.747 156.168 182.883 156.057 183.045 155.907L178.962 151.51ZM178.891 151.569L174.037 155.095C174.275 155.423 174.552 155.853 174.785 156.329C175.022 156.813 175.158 157.233 175.21 157.56C175.259 157.863 175.227 158.01 175.204 158.079C175.19 158.122 175.109 158.378 174.635 158.804L178.647 163.265L182.659 167.726C186.727 164.068 187.685 159.552 187.058 155.656C186.498 152.169 184.737 149.408 183.745 148.042L178.891 151.569ZM178.647 163.265L174.635 158.804C174.767 158.685 174.752 158.855 174.029 158.848C173.229 158.841 172.056 158.604 170.554 158.042C167.556 156.919 164.571 155.008 163.064 153.96L159.639 158.887L156.215 163.814C157.987 165.046 161.942 167.631 166.345 169.28C168.545 170.103 171.187 170.823 173.92 170.847C176.729 170.873 179.962 170.152 182.659 167.726L178.647 163.265ZM159.639 158.887L154.761 155.394C155.466 154.41 156.576 153.664 157.91 153.455L158.836 159.383L159.763 165.311C161.771 164.997 163.445 163.878 164.517 162.38L159.639 158.887ZM158.836 159.383L157.912 153.455C158.266 153.4 158.537 153.396 158.637 153.396L158.65 159.396L158.663 165.396C158.886 165.396 159.281 165.386 159.76 165.312L158.836 159.383ZM158.65 159.396L152.657 159.114C152.64 159.458 152.598 159.853 152.516 160.227C152.431 160.615 152.334 160.839 152.283 160.929C152.245 160.996 152.314 160.849 152.554 160.701C152.668 160.63 152.768 160.593 152.83 160.577C152.887 160.562 152.86 160.578 152.717 160.577L152.661 166.577L152.604 172.576C157.585 172.623 160.945 169.992 162.73 166.834C164.271 164.107 164.573 161.18 164.643 159.678L158.65 159.396ZM152.661 166.577L152.641 160.577C151.385 160.581 150.976 160.315 150.895 160.263C150.762 160.176 150.485 159.95 150.04 159.168C149.467 158.165 149.202 157.413 148.357 155.648C147.665 154.2 146.625 152.213 144.916 150.482L140.647 154.699L136.378 158.915C136.635 159.175 136.979 159.671 137.532 160.827C137.934 161.667 138.776 163.641 139.616 165.113C140.582 166.807 142.022 168.806 144.351 170.322C146.735 171.872 149.536 172.587 152.68 172.577L152.661 166.577ZM140.647 154.699L144.249 149.9C141.744 148.02 139.004 146.489 136.107 145.341L133.897 150.919L131.687 156.498C133.596 157.254 135.399 158.261 137.045 159.497L140.647 154.699ZM133.897 150.919L130.372 146.064C130.344 146.084 130.319 146.103 130.306 146.112C130.298 146.118 130.294 146.121 130.29 146.124C130.287 146.127 130.285 146.128 130.285 146.128L133.817 150.978L137.349 155.829C137.373 155.81 137.397 155.793 137.407 155.785C137.421 155.775 137.423 155.774 137.422 155.775L133.897 150.919ZM133.817 150.978L135.984 145.383C134.657 144.869 133.276 144.422 132.347 144.106L130.417 149.788L128.488 155.469C129.644 155.862 130.634 156.18 131.65 156.573L133.817 150.978ZM130.417 149.788L132.182 144.053C132.812 144.247 133.377 144.61 133.814 145.104L129.323 149.083L124.831 153.061C125.855 154.217 127.178 155.068 128.653 155.522L130.417 149.788ZM129.323 149.083L133.815 145.105C134.251 145.597 134.544 146.201 134.661 146.852L128.755 147.912L122.85 148.971C123.122 150.492 123.809 151.906 124.83 153.06L129.323 149.083ZM128.755 147.912L134.661 146.852C134.777 147.501 134.713 148.169 134.474 148.785L128.88 146.616L123.286 144.446C122.728 145.887 122.577 147.452 122.85 148.971L128.755 147.912ZM128.88 146.616L134.474 148.785C134.235 149.402 133.831 149.939 133.309 150.338L129.662 145.575L126.014 140.811C124.79 141.748 123.845 143.005 123.286 144.446L128.88 146.616ZM129.662 145.575L133.387 150.278C141.901 143.534 151.991 139.066 162.707 137.294L161.728 131.375L160.749 125.455C148.026 127.559 136.046 132.864 125.936 140.871L129.662 145.575ZM109.206 51.5347L108.524 57.4958C107.842 57.4178 107.215 57.0879 106.765 56.5708L111.291 52.6313L115.816 48.6919C114.299 46.9489 112.184 45.8362 109.887 45.5735L109.206 51.5347ZM111.291 52.6313L106.595 56.3666L130.767 86.7524L135.462 83.0171L140.158 79.2818L115.986 48.8961L111.291 52.6313ZM135.462 83.0171L130.604 86.5376C130.3 86.1188 130.129 85.6363 130.089 85.1509L136.069 84.6606L142.049 84.1704C141.912 82.5068 141.328 80.8857 140.321 79.4966L135.462 83.0171ZM136.069 84.6606L136.677 90.6298L136.888 90.6083L136.28 84.6392L135.672 78.67L135.461 78.6915L136.069 84.6606ZM136.28 84.6392L130.336 85.4566L132.915 104.211L138.859 103.394L144.803 102.577L142.224 83.8218L136.28 84.6392ZM138.859 103.394L132.883 103.929C132.841 103.467 132.91 103.004 133.08 102.577L138.653 104.801L144.225 107.026C144.752 105.706 144.962 104.278 144.835 102.859L138.859 103.394ZM138.653 104.801L133.081 102.576C133.25 102.151 133.519 101.768 133.869 101.46L137.833 105.963L141.798 110.467C142.869 109.524 143.699 108.344 144.225 107.026L138.653 104.801ZM137.833 105.963L133.694 101.62L123.684 111.159L127.823 115.502L131.962 119.846L141.973 110.307L137.833 105.963ZM127.823 115.502L124.085 110.809C117.736 115.866 110.407 119.549 102.561 121.627L104.097 127.427L105.634 133.227C115.084 130.724 123.913 126.287 131.561 120.196L127.823 115.502ZM104.097 127.427L102.554 121.629C93.1191 124.141 84.3062 128.577 76.668 134.657L80.4048 139.351L84.1416 144.045C90.4857 138.995 97.8053 135.311 105.641 133.225L104.097 127.427ZM80.4048 139.351L76.6716 134.654L66.6365 142.629L70.3696 147.327L74.1028 152.024L84.1379 144.048L80.4048 139.351ZM70.3696 147.327L66.5915 142.666C66.8991 142.416 67.2523 142.233 67.6301 142.124L69.2886 147.89L70.947 153.656C72.1135 153.321 73.2026 152.754 74.1477 151.988L70.3696 147.327ZM69.2886 147.89L67.6301 142.124C68.0104 142.015 68.4076 141.983 68.7982 142.031L68.0737 147.987L67.3493 153.943C68.5544 154.09 69.7781 153.993 70.947 153.656L69.2886 147.89ZM68.0737 147.987L68.7986 142.031C69.1857 142.078 69.5639 142.202 69.9098 142.401L66.9175 147.602L63.9251 152.803C64.9821 153.411 66.1473 153.797 67.3489 153.943L68.0737 147.987ZM66.9175 147.602L69.9102 142.402C70.2495 142.597 70.5488 142.86 70.7886 143.177L66.0034 146.796L61.2182 150.416C61.953 151.387 62.8744 152.198 63.9247 152.802L66.9175 147.602ZM66.0034 146.796L70.7354 143.107L46.419 111.915L41.687 115.604L36.955 119.293L61.2714 150.485L66.0034 146.796ZM41.687 115.604L46.4821 111.998C46.8203 112.447 47.0273 112.979 47.0835 113.535L41.1138 114.137L35.1441 114.74C35.3075 116.359 35.911 117.906 36.8919 119.211L41.687 115.604ZM41.1138 114.137L47.0573 113.316L44.5153 94.9195L38.5718 95.7407L32.6283 96.562L35.1702 114.958L41.1138 114.137ZM38.5718 95.7407L44.0564 93.3077C44.2462 93.7358 44.3301 94.2275 44.2723 94.7339L38.311 94.0532L32.3498 93.3725C32.1595 95.0387 32.4306 96.6935 33.0872 98.1737L38.5718 95.7407ZM38.311 94.0532L44.2723 94.7342C44.1943 95.4169 43.8637 96.0442 43.3471 96.4938L39.4077 91.9683L35.4683 87.4427C33.7256 88.9596 32.6123 91.0745 32.3498 93.3722L38.311 94.0532ZM39.4077 91.9683L43.1344 96.6706L53.2018 88.6921L49.4751 83.9897L45.7484 79.2874L35.6811 87.2659L39.4077 91.9683ZM49.4751 83.9897L53.2198 88.6777C59.5508 83.6205 66.8671 79.9391 74.7013 77.8675L73.1675 72.0669L71.6337 66.2663C62.1874 68.764 53.3651 73.2032 45.7304 79.3018L49.4751 83.9897ZM73.1675 72.0669L74.7117 77.8648C84.1527 75.3502 92.9743 70.9159 100.625 64.8395L96.8931 60.1411L93.1614 55.4428C86.8025 60.4933 79.4701 64.179 71.6232 66.269L73.1675 72.0669ZM96.8931 60.1411L100.636 64.8304L110.669 56.8216L106.926 52.1323L103.183 47.4431L93.15 55.4519L96.8931 60.1411ZM106.926 52.1323L110.447 56.9909C109.889 57.395 109.203 57.5734 108.525 57.4959L109.206 51.5347L109.887 45.5734C107.593 45.3114 105.28 45.9159 103.406 47.2737L106.926 52.1323ZM11.9536 30.231L15.297 35.2131C15.7222 34.9278 17.621 34.2809 21.6685 35.0126C25.4263 35.6919 30.0737 37.4074 34.9046 40.2492L37.9468 35.0776L40.989 29.9061C35.1646 26.4798 29.1906 24.1779 23.8033 23.204C18.7056 22.2824 12.9355 22.3462 8.61023 25.2488L11.9536 30.231ZM37.9468 35.0776L34.6492 40.0902C41.7088 44.7345 47.4716 51.0973 51.3957 58.5808L56.7095 55.7944L62.0233 53.0081C57.1541 43.7222 50.0035 35.8275 41.2444 30.0651L37.9468 35.0776ZM56.7095 55.7944L51.7348 59.1489C51.274 58.4655 51.0314 57.6596 51.0378 56.8365L57.0376 56.8833L63.0374 56.9302C63.0499 55.3319 62.5783 53.766 61.6842 52.44L56.7095 55.7944ZM57.0376 56.8833L51.0378 56.8354C51.0444 56.0052 51.3031 55.2045 51.7702 54.5346L56.6919 57.9663L61.6136 61.398C62.5239 60.0925 63.0246 58.5363 63.0374 56.9312L57.0376 56.8833ZM56.6919 57.9663L51.7711 54.5332C52.2387 53.863 52.9011 53.3438 53.6771 53.0509L55.7954 58.6646L57.9137 64.2782C59.4146 63.7118 60.7017 62.705 61.6127 61.3994L56.6919 57.9663ZM55.7954 58.6646L53.6774 53.0508C54.4491 52.7597 55.2894 52.7095 56.0883 52.9052L54.6606 58.7329L53.233 64.5606C54.7846 64.9407 56.4165 64.843 57.9134 64.2783L55.7954 58.6646ZM54.6606 58.7329L55.6668 52.8179C51.8231 52.1641 47.8854 52.3089 44.0999 53.2439L45.5386 59.0688L46.9773 64.8938C49.1622 64.3542 51.4354 64.2705 53.6545 64.648L54.6606 58.7329ZM45.5386 59.0688L43.4415 53.4473C41.4007 54.2085 39.8502 55.4543 38.8621 56.2995C37.5905 57.3871 37.2678 57.7547 36.5547 58.2829C36.0501 58.6566 35.9449 58.6214 36.0733 58.6003C36.2732 58.5674 36.136 58.6867 35.4116 58.3588L32.937 63.8247L30.4624 69.2906C32.9494 70.4166 35.4862 70.8574 38.0175 70.4417C40.4773 70.0379 42.3608 68.9155 43.6969 67.9259C44.8246 67.0907 46.1946 65.8186 46.6624 65.4184C47.4137 64.7758 47.6491 64.6854 47.6356 64.6904L45.5386 59.0688ZM32.937 63.8247L35.4178 58.3616C35.4115 58.3587 35.4882 58.3932 35.6074 58.4902C35.7292 58.5894 35.8617 58.7266 35.9817 58.8998C36.2309 59.2593 36.2949 59.5768 36.3085 59.6894C36.3189 59.7756 36.3004 59.7273 36.338 59.5184C36.3737 59.3204 36.4391 59.0924 36.5211 58.8683L30.8862 56.8071L25.2514 54.7459C24.7928 55.9997 24.0672 58.4149 24.3951 61.1289C24.7771 64.29 26.5896 67.532 30.4562 69.2878L32.937 63.8247ZM30.8862 56.8071L33.2732 51.3024C33.3868 51.3516 33.6551 51.4733 33.9781 51.6837L30.7036 56.7114L27.4292 61.7391C27.8696 62.026 28.2613 62.2087 28.4992 62.3119L30.8862 56.8071ZM30.7036 56.7114L33.9796 51.6847C35.0777 52.4004 35.8013 53.5138 36.0506 54.7278L30.1733 55.9351L24.2961 57.1423C24.6719 58.9721 25.7611 60.652 27.4277 61.7382L30.7036 56.7114ZM30.1733 55.9351L29.0744 50.0366C27.552 50.3202 24.9271 50.6898 22.6199 50.531C21.4662 50.4516 20.7394 50.2599 20.3723 50.0962C20.0766 49.9644 20.3917 50.0334 20.6039 50.507L15.1284 52.9604L9.65295 55.4139C12.2599 61.2319 18.5536 62.2796 21.796 62.5027C25.6206 62.7659 29.4227 62.1781 31.2723 61.8336L30.1733 55.9351ZM15.1284 52.9604L20.604 50.5073C20.4819 50.2347 20.5416 50.2293 20.5264 50.4088C20.513 50.5675 20.4598 50.6377 20.4936 50.5822C20.5405 50.5052 20.6628 50.3441 20.9057 50.1284C21.1427 49.918 21.4128 49.7282 21.6614 49.5763L18.5327 44.4565L15.4041 39.3368C14.1199 40.1216 11.8343 41.7318 10.2463 44.3379C8.45452 47.2782 7.76356 51.1967 9.65285 55.4136L15.1284 52.9604ZM18.5327 44.4565L23.8217 41.6234C23.9106 41.7894 23.9736 41.9295 24.0146 42.0273L18.4829 44.3511L12.9512 46.6749C13.0226 46.8449 13.1185 47.0559 13.2437 47.2896L18.5327 44.4565ZM18.4829 44.3511L24.0158 42.03C24.4598 43.0884 24.4921 44.2303 24.1873 45.2492L18.439 43.5298L12.6906 41.8104C12.2296 43.3518 12.2786 45.0716 12.9501 46.6722L18.4829 44.3511ZM18.439 43.5298L20.3114 37.8294C19.3712 37.5206 18.0187 36.9929 16.8609 36.2724L13.6909 41.3667L10.521 46.461C12.8234 47.8937 15.1814 48.7752 16.5665 49.2301L18.439 43.5298ZM13.6909 41.3667L8.06228 39.2886C8.06637 39.2775 8.06965 39.2688 8.07175 39.2632C8.07382 39.2578 8.07512 39.2544 8.07513 39.2543C8.07516 39.2543 8.07499 39.2547 8.0745 39.256C8.07397 39.2574 8.07335 39.259 8.07231 39.2617C8.0706 39.2661 8.06703 39.2754 8.06327 39.2852C8.04994 39.3201 8.01172 39.4198 7.96954 39.5424L13.6431 41.4946L19.3166 43.4468C19.3019 43.4896 19.2896 43.5232 19.282 43.5439C19.2781 43.5545 19.275 43.5627 19.273 43.5679C19.2711 43.5729 19.2699 43.576 19.2701 43.5756C19.2704 43.5748 19.2709 43.5735 19.2733 43.5673C19.2751 43.5624 19.2788 43.553 19.2827 43.5428C19.2868 43.5321 19.2921 43.5181 19.2982 43.502C19.3043 43.4858 19.3115 43.4665 19.3196 43.4448L13.6909 41.3667ZM13.6431 41.4946L16.2203 36.0763C15.9653 35.955 15.7511 35.7592 15.6065 35.513L10.4321 38.5503L5.25772 41.5876C6.61656 43.9026 8.63902 45.7586 11.0658 46.9129L13.6431 41.4946ZM10.4321 38.5503L15.6066 35.5131C15.5826 35.4722 15.5552 35.4192 15.5266 35.3524L10.0103 37.7124L4.49387 40.0724C4.71057 40.5789 4.96358 41.0865 5.25762 41.5875L10.4321 38.5503ZM10.0103 37.7124L15.3431 34.9628C15.3332 34.9435 15.3497 34.9712 15.3614 35.0348C15.3667 35.0641 15.3692 35.0912 15.3697 35.1132C15.3701 35.135 15.3684 35.1424 15.3698 35.1323L9.42627 34.311L3.48274 33.4898C3.12454 36.082 3.64176 38.4534 4.67737 40.462L10.0103 37.7124ZM9.42627 34.311L15.3706 35.1266C15.3757 35.0896 15.3807 35.0688 15.3825 35.0617C15.3843 35.0548 15.3837 35.0588 15.3786 35.0715C15.3734 35.0843 15.3653 35.1019 15.3537 35.1224C15.3421 35.1429 15.3292 35.1625 15.316 35.18L10.5229 31.5708L5.72987 27.9616C4.50538 29.5877 3.75927 31.4741 3.48195 33.4955L9.42627 34.311ZM10.5229 31.5708L15.3167 35.1791C15.3122 35.1851 15.2957 35.2055 15.2666 35.2314L11.2808 30.7466L7.29496 26.2618C6.70118 26.7895 6.18128 27.3619 5.72919 27.9625L10.5229 31.5708ZM11.2808 30.7466L15.2662 35.2317C15.256 35.2408 15.2557 35.2405 15.2688 35.2301L11.5396 30.5298L7.81028 25.8295C7.6461 25.9598 7.47296 26.1036 7.29528 26.2615L11.2808 30.7466ZM11.5396 30.5298L15.2688 35.2301C15.2468 35.2476 15.2359 35.2552 15.241 35.2515C15.2463 35.2477 15.2628 35.236 15.2964 35.2135L11.9536 30.231L8.61088 25.2484C8.39654 25.3922 8.1142 25.5884 7.81028 25.8295L11.5396 30.5298Z" fill="white" mask="url(#path-1-outside-1_1347_4272)"/>
<path d="M130.417 149.788C129.995 149.658 129.616 149.414 129.323 149.083C129.03 148.752 128.833 148.347 128.755 147.912C128.677 147.477 128.721 147.028 128.88 146.616C129.04 146.204 129.311 145.844 129.662 145.575C138.973 138.2 150.008 133.313 161.728 131.375C181.489 128.867 197.401 135.048 194.681 144.775C192.282 153.097 178.132 150.616 178.132 150.616C178.132 150.616 184.76 157.768 178.647 163.266C172.534 168.763 158.649 158.177 158.649 158.177C158.649 158.177 159.292 166.64 152.66 166.577C143.859 166.605 144.578 158.678 140.646 154.699C137.592 152.406 134.116 150.738 130.417 149.788Z" fill="#CAE3FF"/>
<path d="M130.417 149.788C131.46 150.142 132.645 150.524 133.816 150.978C142.517 144.643 152.588 140.446 163.213 138.728C177.6 136.925 189.959 139.764 194.547 145.149C194.601 145.027 194.645 144.902 194.681 144.775C197.427 135.142 181.489 128.867 161.728 131.375C150.008 133.313 138.973 138.2 129.662 145.575C129.311 145.844 129.04 146.204 128.88 146.616C128.721 147.028 128.677 147.477 128.755 147.912C128.833 148.347 129.03 148.752 129.323 149.083C129.616 149.414 129.995 149.658 130.417 149.788Z" fill="#DDEDFF"/>
<path d="M165.369 141.935C165.618 141.354 166.264 141.066 166.854 141.251L166.971 141.295L167.822 141.672C172.048 143.617 175.855 146.373 179.026 149.786C179.484 150.279 179.456 151.051 178.962 151.51C178.499 151.94 177.792 151.942 177.328 151.534L177.238 151.447L176.639 150.819C173.81 147.929 170.476 145.581 166.802 143.89L166.009 143.537L165.897 143.483C165.356 143.183 165.12 142.515 165.369 141.935Z" fill="#276288"/>
<path d="M151.419 146.98C151.8 146.477 152.497 146.352 153.025 146.673L153.128 146.744L153.463 147.004C156.891 149.732 159.175 153.651 159.853 157.989C159.958 158.654 159.502 159.279 158.837 159.383C158.171 159.487 157.547 159.031 157.443 158.365C156.859 154.632 154.893 151.261 151.943 148.914L151.655 148.69L151.56 148.609C151.107 148.188 151.037 147.484 151.419 146.98Z" fill="#276288"/>
<path d="M54.6611 58.7326C55.0375 58.8248 55.433 58.8009 55.7957 58.6641C56.1583 58.5273 56.471 58.2839 56.6926 57.966C56.9143 57.6481 57.0346 57.2705 57.0376 56.883C57.0406 56.4954 56.9263 56.116 56.7096 55.7947C52.313 47.4098 45.8564 40.2807 37.9469 35.0773C24.1743 26.9754 10.5132 26.3915 9.4267 34.311C8.48478 41.1269 19.6081 43.8794 19.6081 43.8794C19.6081 43.8794 12.4518 46.9856 15.1286 52.9603C17.8054 58.935 31.3695 55.6896 31.3695 55.6896C31.3695 55.6896 28.1533 61.6521 32.9372 63.8244C39.3602 66.7325 41.4844 60.5809 45.5393 59.0687C48.5245 58.3313 51.6297 58.2169 54.6611 58.7326Z" fill="#CAE3FF"/>
<path d="M41.874 43.3745C47.6963 47.0636 52.6983 51.9099 56.5697 57.6127C56.7169 57.3472 56.7941 57.0485 56.7941 56.7449C56.7941 56.4413 56.7169 56.1427 56.5697 55.8771C52.173 47.4923 45.7165 40.3632 37.807 35.1598C24.1746 26.9755 10.5136 26.3916 9.42708 34.3111C9.33016 35.793 9.68021 37.2699 10.4319 38.5506C11.1837 39.8313 12.3025 40.857 13.6436 41.4948C15.9861 34.6869 29.025 35.5605 41.874 43.3745Z" fill="#DDEDFF"/>
<path d="M19.1359 42.7545L19.8296 42.4742C23.0832 41.2099 26.5467 40.5731 30.0371 40.5978L30.7858 40.6136L30.9108 40.624C31.5233 40.7077 31.9855 41.2431 31.964 41.8743C31.9409 42.5478 31.3755 43.0751 30.702 43.0521C27.2898 42.9354 23.892 43.5138 20.7139 44.7486L20.0802 45.004L19.9627 45.0469C19.3714 45.2273 18.728 44.9338 18.4833 44.3514C18.2389 43.7691 18.4798 43.1045 19.0226 42.8086L19.1359 42.7545Z" fill="#276288"/>
<path d="M30.3472 55.0243C32.2658 52.0795 35.2037 49.9515 38.591 49.0442L38.9206 48.9594L39.0434 48.9372C39.6559 48.853 40.2445 49.2443 40.3935 49.858C40.5424 50.472 40.1985 51.0909 39.6152 51.2965L39.4954 51.3317L38.9524 51.4772C36.26 52.2675 33.9309 53.9945 32.3924 56.3558C32.0245 56.9204 31.2682 57.0797 30.7036 56.7118C30.1392 56.344 29.9797 55.5888 30.3472 55.0243Z" fill="#276288"/>
<path d="M137.833 105.963L127.822 115.502C120.824 121.076 112.746 125.137 104.097 127.427C95.4623 129.726 87.3959 133.786 80.4047 139.351L70.3691 147.327C70.0504 147.585 69.6829 147.777 69.2886 147.89C68.8943 148.004 68.4812 148.037 68.0739 147.987C67.6666 147.938 67.2734 147.807 66.9178 147.602C66.5622 147.397 66.2514 147.123 66.0038 146.796L41.6873 115.604C41.366 115.176 41.1677 114.669 41.114 114.137L38.4329 94.7365L136.28 84.6394L138.859 103.394C138.901 103.873 138.831 104.355 138.653 104.801C138.475 105.248 138.194 105.646 137.833 105.963Z" fill="#4B9AE6"/>
<path d="M73.1678 72.0669C64.5274 74.3516 56.4582 78.4125 49.4753 83.9905L39.4072 91.9684C38.7942 92.502 38.403 93.2458 38.3108 94.0533C38.2185 94.8609 38.4319 95.6737 38.9088 96.3318L63.0811 126.718C63.6147 127.331 64.3585 127.722 65.166 127.814C65.9736 127.906 66.7864 127.693 67.4445 127.216L77.5107 119.206C84.51 113.653 92.5736 109.595 101.203 107.282C109.852 104.991 117.93 100.931 124.928 95.3569L134.964 87.3808C135.577 86.8472 135.968 86.1034 136.06 85.2959C136.153 84.4884 135.939 83.6756 135.462 83.0174L111.29 52.6315C110.756 52.0184 110.013 51.6273 109.205 51.535C108.398 51.4428 107.585 51.6561 106.927 52.133L96.8929 60.1415C89.8882 65.705 81.8118 69.7646 73.1678 72.0669Z" fill="#4B9AE6"/>
<path d="M49.9261 97.3668L64.4341 115.566C64.9677 116.179 65.7115 116.57 66.519 116.662C67.3265 116.754 68.1394 116.541 68.7975 116.064L73.9712 111.953C80.9656 106.374 89.0456 102.312 97.6962 100.028C106.331 97.7287 114.398 93.6692 121.389 88.104L124.164 85.9235C124.772 85.3856 125.156 84.64 125.242 83.8331C125.329 83.0262 125.11 82.2161 124.63 81.562L110.153 63.3289C109.619 62.7159 108.875 62.3247 108.068 62.2325C107.26 62.1402 106.447 62.3535 105.789 62.8304L100.577 66.8459C93.5944 72.4239 85.5252 76.4848 76.8848 78.7695C68.2471 81.0882 60.1739 85.1463 53.1597 90.6949L50.4189 92.906C49.7797 93.444 49.372 94.2074 49.2803 95.0378C49.1885 95.8683 49.4198 96.7022 49.9261 97.3668Z" fill="#CAE3FF"/>
<path d="M62.0066 103.261C66.0367 104.495 70.3044 102.229 71.5389 98.1991C72.7733 94.169 70.5071 89.9013 66.477 88.6668C62.4469 87.4324 58.1792 89.6986 56.9447 93.7287C55.7103 97.7588 57.9766 102.026 62.0066 103.261Z" fill="white"/>
<path d="M62.7725 100.357C65.1886 101.097 67.7472 99.738 68.4873 97.3219C69.2274 94.9058 67.8687 92.3472 65.4526 91.6071C63.0365 90.867 60.4779 92.2257 59.7378 94.6418C58.9978 97.0579 60.3564 99.6165 62.7725 100.357Z" fill="black"/>
<path d="M104.386 83.8439C108.416 85.0784 112.684 82.8121 113.918 78.7821C115.152 74.752 112.886 70.4843 108.856 69.2498C104.826 68.0154 100.558 70.2817 99.3239 74.3117C98.0894 78.3418 100.356 82.6095 104.386 83.8439Z" fill="white"/>
<path d="M105.152 80.9396C107.568 81.6797 110.126 80.321 110.866 77.9049C111.607 75.4888 110.248 72.9302 107.832 72.1901C105.416 71.4501 102.857 72.8087 102.117 75.2248C101.377 77.6409 102.736 80.1995 105.152 80.9396Z" fill="black"/>
<path d="M95.8631 85.7273C97.1871 88.9103 94.4285 93.0779 89.6855 95.0457C84.9426 97.0135 79.9682 96.0939 78.6786 92.9415C77.3891 89.7891 80.1133 85.5909 84.8869 83.5887C89.6604 81.5866 94.7035 82.5674 95.8631 85.7273Z" fill="#EAC00F"/>
<path d="M72 131C74.5 127.333 86.6 117.9 99 115.5C114.5 112.5 127.5 101 129.5 99" stroke="#1369BD" stroke-width="3" stroke-linecap="round"/>
</g>
<defs>
<clipPath id="clip0_1347_4272">
<rect width="200" height="200" fill="white"/>
</clipPath>
</defs>
</svg>
