<svg width="200" height="200" viewBox="0 0 200 200" fill="none" xmlns="http://www.w3.org/2000/svg">
<mask id="path-1-outside-1_1347_5394" maskUnits="userSpaceOnUse" x="11.6001" y="20.7305" width="168" height="164" fill="black">
<rect fill="white" x="11.6001" y="20.7305" width="168" height="164"/>
<path d="M86.5327 27.7451C108.677 27.1496 127.104 44.5779 127.748 68.6045C127.816 71.2191 127.68 73.7859 127.331 76.2842C129.249 77.5152 131.075 78.8405 132.801 80.249L144.123 74.5361C144.125 74.5546 144.128 74.5735 144.131 74.5928C144.012 71.7132 145.5 68.8645 148.201 67.4131L159.697 61.8477C163.448 59.8291 168.174 61.2481 170.194 65.0059L172.425 69.1611C174.444 72.9122 173.025 77.6325 169.274 79.6514L169.267 79.6455L157.764 85.2109C154.652 86.8827 150.866 86.1873 148.514 83.7637C148.211 83.4503 147.935 83.1125 147.688 82.7471L147.63 82.6602C148.069 83.3554 148.705 84.2534 149.063 84.6299L141.142 88.7217C147.02 96.2385 150.526 105.142 150.782 114.769H150.789C151.282 133.135 139.776 148.115 122.168 156.519L124.644 164.379C124.675 164.476 124.694 164.574 124.706 164.671L129.156 166.016C130.004 166.272 130.485 167.167 130.229 168.016C129.973 168.864 129.076 169.345 128.228 169.089L125.316 168.209L125.881 172.346C126.001 173.224 125.386 174.033 124.508 174.153C123.63 174.273 122.821 173.658 122.701 172.78L122.205 169.155L118.733 172.255C118.072 172.844 117.057 172.786 116.467 172.125C115.877 171.464 115.935 170.45 116.596 169.859L121.6 165.394C121.594 165.377 121.588 165.361 121.583 165.344L119.218 157.839C110.618 161.453 100.737 163.572 90.188 163.855C83.3749 164.038 76.799 163.44 70.6294 162.147C69.7646 162.566 68.8836 162.952 67.9868 163.301L64.0874 170.178L67.395 173.628C68.0083 174.268 67.9869 175.284 67.3472 175.897C66.7074 176.511 65.6912 176.49 65.0776 175.851L62.4829 173.145L60.4419 177.021C60.0287 177.805 59.0581 178.105 58.2739 177.692C57.4897 177.279 57.1889 176.309 57.6021 175.524L59.228 172.437L53.0425 173.277C52.1643 173.396 51.3553 172.78 51.2358 171.902C51.1166 171.024 51.7325 170.215 52.6108 170.096L61.0972 168.942L63.4897 164.723C57.5941 166.173 51.2462 166.164 44.9634 164.387C26.7139 159.217 15.4295 140.527 19.3921 121.974C20.9027 114.896 24.3526 108.781 29.0464 104.033C32.2527 93.9855 39.1061 85.0931 48.3911 78.4062C47.9188 75.9285 47.6315 73.3686 47.563 70.7539C46.9195 46.7341 64.3885 28.3406 86.5327 27.7451Z"/>
</mask>
<path d="M86.5327 27.7451C108.677 27.1496 127.104 44.5779 127.748 68.6045C127.816 71.2191 127.68 73.7859 127.331 76.2842C129.249 77.5152 131.075 78.8405 132.801 80.249L144.123 74.5361C144.125 74.5546 144.128 74.5735 144.131 74.5928C144.012 71.7132 145.5 68.8645 148.201 67.4131L159.697 61.8477C163.448 59.8291 168.174 61.2481 170.194 65.0059L172.425 69.1611C174.444 72.9122 173.025 77.6325 169.274 79.6514L169.267 79.6455L157.764 85.2109C154.652 86.8827 150.866 86.1873 148.514 83.7637C148.211 83.4503 147.935 83.1125 147.688 82.7471L147.63 82.6602C148.069 83.3554 148.705 84.2534 149.063 84.6299L141.142 88.7217C147.02 96.2385 150.526 105.142 150.782 114.769H150.789C151.282 133.135 139.776 148.115 122.168 156.519L124.644 164.379C124.675 164.476 124.694 164.574 124.706 164.671L129.156 166.016C130.004 166.272 130.485 167.167 130.229 168.016C129.973 168.864 129.076 169.345 128.228 169.089L125.316 168.209L125.881 172.346C126.001 173.224 125.386 174.033 124.508 174.153C123.63 174.273 122.821 173.658 122.701 172.78L122.205 169.155L118.733 172.255C118.072 172.844 117.057 172.786 116.467 172.125C115.877 171.464 115.935 170.45 116.596 169.859L121.6 165.394C121.594 165.377 121.588 165.361 121.583 165.344L119.218 157.839C110.618 161.453 100.737 163.572 90.188 163.855C83.3749 164.038 76.799 163.44 70.6294 162.147C69.7646 162.566 68.8836 162.952 67.9868 163.301L64.0874 170.178L67.395 173.628C68.0083 174.268 67.9869 175.284 67.3472 175.897C66.7074 176.511 65.6912 176.49 65.0776 175.851L62.4829 173.145L60.4419 177.021C60.0287 177.805 59.0581 178.105 58.2739 177.692C57.4897 177.279 57.1889 176.309 57.6021 175.524L59.228 172.437L53.0425 173.277C52.1643 173.396 51.3553 172.78 51.2358 171.902C51.1166 171.024 51.7325 170.215 52.6108 170.096L61.0972 168.942L63.4897 164.723C57.5941 166.173 51.2462 166.164 44.9634 164.387C26.7139 159.217 15.4295 140.527 19.3921 121.974C20.9027 114.896 24.3526 108.781 29.0464 104.033C32.2527 93.9855 39.1061 85.0931 48.3911 78.4062C47.9188 75.9285 47.6315 73.3686 47.563 70.7539C46.9195 46.7341 64.3885 28.3406 86.5327 27.7451Z" fill="#276286"/>
<path d="M86.5327 27.7451L86.3714 21.7473H86.3714L86.5327 27.7451ZM127.748 68.6045L133.746 68.4475L133.745 68.4439L127.748 68.6045ZM127.331 76.2842L121.388 75.4539C121.064 77.7733 122.119 80.0692 124.09 81.3339L127.331 76.2842ZM132.801 80.249L129.008 84.8976C130.843 86.3957 133.389 86.6731 135.504 85.6057L132.801 80.249ZM144.123 74.5361L150.048 73.5938C149.747 71.7018 148.561 70.0672 146.855 69.1946C145.15 68.322 143.13 68.3164 141.42 69.1795L144.123 74.5361ZM144.131 74.5928L138.21 75.5622C138.723 78.6936 141.585 80.8844 144.742 80.5616C147.898 80.2389 150.258 77.5141 150.126 74.3437L144.131 74.5928ZM148.201 67.4131L145.586 62.0126C145.51 62.0495 145.435 62.0879 145.36 62.1279L148.201 67.4131ZM159.697 61.8477L162.311 67.2481C162.388 67.2108 162.465 67.1718 162.54 67.1312L159.697 61.8477ZM170.194 65.0059L175.48 62.1672L175.479 62.1656L170.194 65.0059ZM172.425 69.1611L167.139 71.9998L167.142 72.0047L172.425 69.1611ZM169.274 79.6514L165.369 84.2069C167.252 85.8208 169.934 86.11 172.117 84.9348L169.274 79.6514ZM169.267 79.6455L173.172 75.09C171.361 73.5374 168.801 73.2054 166.654 74.2445L169.267 79.6455ZM157.764 85.2109L155.151 79.8099C155.075 79.8468 154.999 79.8852 154.925 79.9253L157.764 85.2109ZM148.514 83.7637L144.2 87.9335L144.208 87.942L148.514 83.7637ZM147.688 82.7471L142.687 86.0623C142.698 86.0782 142.708 86.0941 142.719 86.1099L147.688 82.7471ZM147.63 82.6602L152.631 79.3449C150.815 76.6047 147.131 75.8367 144.371 77.6227C141.611 79.4087 140.802 83.0835 142.557 85.8635L147.63 82.6602ZM149.063 84.6299L151.817 89.9606C153.495 89.0939 154.666 87.4878 154.98 85.6255C155.293 83.7632 154.712 81.8621 153.41 80.494L149.063 84.6299ZM141.142 88.7217L138.388 83.3909C136.801 84.2108 135.662 85.6954 135.28 87.4406C134.899 89.1858 135.315 91.0103 136.416 92.4175L141.142 88.7217ZM150.782 114.769L144.784 114.928C144.87 118.178 147.53 120.769 150.782 120.769V114.769ZM150.789 114.769L156.786 114.607C156.699 111.358 154.04 108.769 150.789 108.769V114.769ZM122.168 156.519L119.584 151.104C116.886 152.391 115.547 155.469 116.446 158.321L122.168 156.519ZM124.644 164.379L130.367 162.577L130.367 162.577L124.644 164.379ZM124.706 164.671L118.749 165.389C119.034 167.754 120.69 169.726 122.97 170.414L124.706 164.671ZM129.156 166.016L127.42 171.759L127.42 171.759L129.156 166.016ZM130.229 168.016L135.972 169.751L135.973 169.749L130.229 168.016ZM128.228 169.089L126.493 174.832L126.495 174.833L128.228 169.089ZM125.316 168.209L127.051 162.465C125.096 161.875 122.974 162.319 121.42 163.646C119.867 164.972 119.095 166.998 119.371 169.022L125.316 168.209ZM125.881 172.346L131.827 171.536L131.826 171.533L125.881 172.346ZM124.508 174.153L125.321 180.098L125.322 180.098L124.508 174.153ZM122.701 172.78L116.756 173.594L116.756 173.596L122.701 172.78ZM122.205 169.155L128.149 168.342C127.848 166.144 126.36 164.292 124.279 163.525C122.198 162.758 119.863 163.202 118.209 164.68L122.205 169.155ZM118.733 172.255L122.726 176.733L122.729 176.731L118.733 172.255ZM116.467 172.125L111.99 176.12L111.992 176.121L116.467 172.125ZM116.596 169.859L112.601 165.383L112.601 165.383L116.596 169.859ZM121.6 165.394L125.595 169.87C127.409 168.252 128.066 165.699 127.261 163.406L121.6 165.394ZM121.583 165.344L115.86 167.147L115.86 167.147L121.583 165.344ZM119.218 157.839L124.941 156.036C124.434 154.426 123.272 153.104 121.741 152.395C120.209 151.685 118.45 151.654 116.894 152.307L119.218 157.839ZM90.188 163.855L90.349 169.853H90.349L90.188 163.855ZM70.6294 162.147L71.8595 156.275C70.5616 156.003 69.2103 156.169 68.0167 156.746L70.6294 162.147ZM67.9868 163.301L65.8096 157.71C64.523 158.211 63.4485 159.14 62.7675 160.341L67.9868 163.301ZM64.0874 170.178L58.8681 167.218C57.5603 169.525 57.9214 172.416 59.7562 174.33L64.0874 170.178ZM67.395 173.628L71.7269 169.476L71.7262 169.476L67.395 173.628ZM67.3472 175.897L71.4992 180.229L71.4999 180.228L67.3472 175.897ZM65.0776 175.851L60.7468 180.003L60.7479 180.004L65.0776 175.851ZM62.4829 173.145L66.8137 168.992C65.4789 167.6 63.5563 166.934 61.6465 167.203C59.7367 167.472 58.0726 168.642 57.174 170.349L62.4829 173.145ZM60.4419 177.021L65.7499 179.818L65.7508 179.816L60.4419 177.021ZM58.2739 177.692L55.4769 183.001L55.4787 183.001L58.2739 177.692ZM57.6021 175.524L62.9105 178.321L62.911 178.32L57.6021 175.524ZM59.228 172.437L64.537 175.232C65.5839 173.244 65.4322 170.837 64.1438 168.996C62.8554 167.155 60.6464 166.189 58.4199 166.491L59.228 172.437ZM53.0425 173.277L53.8478 179.223L53.8506 179.223L53.0425 173.277ZM51.2358 171.902L45.2904 172.71L45.2906 172.711L51.2358 171.902ZM52.6108 170.096L51.8028 164.15L51.8023 164.15L52.6108 170.096ZM61.0972 168.942L61.9052 174.888C63.7611 174.635 65.3927 173.531 66.3166 171.902L61.0972 168.942ZM63.4897 164.723L68.7091 167.682C69.8908 165.598 69.7194 163.011 68.2731 161.101C66.8267 159.191 64.3828 158.324 62.0563 158.896L63.4897 164.723ZM44.9634 164.387L43.3279 170.16L43.3305 170.16L44.9634 164.387ZM19.3921 121.974L25.2598 123.227L25.2599 123.226L19.3921 121.974ZM29.0464 104.033L33.3134 108.251C33.9784 107.579 34.4749 106.758 34.7624 105.857L29.0464 104.033ZM48.3911 78.4062L51.8975 83.275C53.7906 81.9117 54.7218 79.5745 54.285 77.2829L48.3911 78.4062ZM47.563 70.7539L53.5609 70.5968L53.5608 70.5932L47.563 70.7539ZM86.5327 27.7451L86.694 33.7429C105.353 33.2412 121.19 47.8764 121.75 68.7651L127.748 68.6045L133.745 68.4439C133.018 41.2793 112.001 21.0581 86.3714 21.7473L86.5327 27.7451ZM127.748 68.6045L121.75 68.7615C121.81 71.0654 121.689 73.3012 121.388 75.4539L127.331 76.2842L133.273 77.1144C133.67 74.2706 133.822 71.3729 133.746 68.4475L127.748 68.6045ZM127.331 76.2842L124.09 81.3339C125.818 82.4427 127.46 83.6341 129.008 84.8976L132.801 80.249L136.595 75.6005C134.691 74.0468 132.68 72.5877 130.571 71.2344L127.331 76.2842ZM132.801 80.249L135.504 85.6057L146.826 79.8928L144.123 74.5361L141.42 69.1795L130.098 74.8924L132.801 80.249ZM144.123 74.5361L138.197 75.4784C138.195 75.4674 138.194 75.4597 138.194 75.4582C138.194 75.4574 138.194 75.4572 138.194 75.4587C138.194 75.4594 138.194 75.4602 138.194 75.4615C138.195 75.4627 138.195 75.4643 138.195 75.4661C138.197 75.4773 138.203 75.5161 138.21 75.5622L144.131 74.5928L150.053 73.6233C150.055 73.6381 150.057 73.6494 150.058 73.6557C150.059 73.6616 150.059 73.6651 150.059 73.6622C150.059 73.6616 150.058 73.6609 150.058 73.6597C150.058 73.6586 150.058 73.6571 150.058 73.6555C150.057 73.6522 150.056 73.6474 150.056 73.6419C150.054 73.6311 150.051 73.6141 150.048 73.5938L144.123 74.5361ZM144.131 74.5928L150.126 74.3437C150.097 73.6464 150.464 73.0083 151.041 72.6982L148.201 67.4131L145.36 62.1279C140.536 64.7207 137.926 69.7801 138.137 74.8418L144.131 74.5928ZM148.201 67.4131L150.815 72.8135L162.311 67.2481L159.697 61.8477L157.082 56.4472L145.586 62.0126L148.201 67.4131ZM159.697 61.8477L162.54 67.1312C163.371 66.684 164.458 67.0077 164.909 67.8461L170.194 65.0059L175.479 62.1656C171.891 55.4885 163.524 52.9742 156.853 56.5641L159.697 61.8477ZM170.194 65.0059L164.908 67.8445L167.139 71.9998L172.425 69.1611L177.711 66.3225L175.48 62.1672L170.194 65.0059ZM172.425 69.1611L167.142 72.0047C167.589 72.8354 167.266 73.9183 166.43 74.368L169.274 79.6514L172.117 84.9348C178.784 81.3468 181.299 72.989 177.709 66.3176L172.425 69.1611ZM169.274 79.6514L173.179 75.0958L173.172 75.09L169.267 79.6455L165.362 84.201L165.369 84.2069L169.274 79.6514ZM169.267 79.6455L166.654 74.2445L155.151 79.8099L157.764 85.2109L160.377 90.612L171.88 85.0466L169.267 79.6455ZM157.764 85.2109L154.925 79.9253C154.255 80.2852 153.369 80.1513 152.82 79.5853L148.514 83.7637L144.208 87.942C148.363 92.2232 155.049 93.4802 160.604 90.4966L157.764 85.2109ZM148.514 83.7637L152.828 79.5939C152.759 79.5218 152.704 79.453 152.657 79.3842L147.688 82.7471L142.719 86.1099C143.167 86.7721 143.664 87.3787 144.2 87.9334L148.514 83.7637ZM147.688 82.7471L152.689 79.4318L152.631 79.3449L147.63 82.6602L142.629 85.9754L142.687 86.0623L147.688 82.7471ZM147.63 82.6602L142.557 85.8635C143.018 86.5933 143.919 87.9276 144.716 88.7658L149.063 84.6299L153.41 80.494C153.502 80.5906 153.524 80.6252 153.46 80.5438C153.409 80.4803 153.336 80.3831 153.244 80.2551C153.056 79.9954 152.857 79.6992 152.704 79.4568L147.63 82.6602ZM149.063 84.6299L146.309 79.2991L138.388 83.3909L141.142 88.7217L143.896 94.0524L151.817 89.9606L149.063 84.6299ZM141.142 88.7217L136.416 92.4175C141.579 99.0216 144.566 106.707 144.784 114.928L150.782 114.769L156.78 114.609C156.487 103.578 152.46 93.4554 145.869 85.0258L141.142 88.7217ZM150.782 114.769V120.769H150.789V114.769V108.769H150.782V114.769ZM150.789 114.769L144.791 114.93C145.204 130.327 135.652 143.435 119.584 151.104L122.168 156.519L124.753 161.933C143.9 152.795 157.359 135.943 156.786 114.607L150.789 114.769ZM122.168 156.519L116.446 158.321L118.921 166.181L124.644 164.379L130.367 162.577L127.891 154.716L122.168 156.519ZM124.644 164.379L118.921 166.181C118.822 165.865 118.773 165.592 118.749 165.389L124.706 164.671L130.662 163.953C130.615 163.555 130.528 163.087 130.367 162.577L124.644 164.379ZM124.706 164.671L122.97 170.414L127.42 171.759L129.156 166.016L130.891 160.272L126.441 158.927L124.706 164.671ZM129.156 166.016L127.42 171.759C125.103 171.059 123.782 168.611 124.485 166.283L130.229 168.016L135.973 169.749C137.188 165.724 134.906 161.485 130.891 160.272L129.156 166.016ZM130.229 168.016L124.486 166.28C125.187 163.96 127.636 162.643 129.961 163.345L128.228 169.089L126.495 174.833C130.517 176.047 134.759 173.768 135.972 169.751L130.229 168.016ZM128.228 169.089L129.963 163.345L127.051 162.465L125.316 168.209L123.581 173.953L126.493 174.832L128.228 169.089ZM125.316 168.209L119.371 169.022L119.937 173.158L125.881 172.346L131.826 171.533L131.261 167.396L125.316 168.209ZM125.881 172.346L119.936 173.155C119.609 170.754 121.289 168.538 123.695 168.209L124.508 174.153L125.322 180.098C129.484 179.528 132.392 175.694 131.827 171.536L125.881 172.346ZM124.508 174.153L123.696 168.209C126.104 167.879 128.316 169.565 128.645 171.965L122.701 172.78L116.756 173.596C117.326 177.751 121.156 180.667 125.321 180.098L124.508 174.153ZM122.701 172.78L128.645 171.967L128.149 168.342L122.205 169.155L116.26 169.969L116.756 173.594L122.701 172.78ZM122.205 169.155L118.209 164.68L114.737 167.779L118.733 172.255L122.729 176.731L126.201 173.631L122.205 169.155ZM118.733 172.255L114.74 167.776C116.555 166.158 119.331 166.323 120.943 168.129L116.467 172.125L111.992 176.121C114.784 179.248 119.588 179.531 122.726 176.733L118.733 172.255ZM116.467 172.125L120.944 168.13C122.56 169.942 122.402 172.72 120.591 174.336L116.596 169.859L112.601 165.383C109.468 168.179 109.194 172.986 111.99 176.12L116.467 172.125ZM116.596 169.859L120.591 174.336L125.595 169.87L121.6 165.394L117.605 160.917L112.601 165.383L116.596 169.859ZM121.6 165.394L127.261 163.406C127.248 163.368 127.237 163.338 127.233 163.326C127.231 163.322 127.23 163.319 127.23 163.318C127.229 163.317 127.229 163.316 127.229 163.315C127.229 163.315 127.228 163.314 127.228 163.314C127.228 163.313 127.229 163.316 127.231 163.321C127.235 163.331 127.244 163.358 127.256 163.393C127.269 163.428 127.286 163.479 127.305 163.54L121.583 165.344L115.86 167.147C115.902 167.281 115.94 167.385 115.951 167.416C115.955 167.425 115.957 167.433 115.958 167.436C115.96 167.441 115.959 167.438 115.959 167.437C115.957 167.433 115.949 167.411 115.939 167.381L121.6 165.394ZM121.583 165.344L127.305 163.541L124.941 156.036L119.218 157.839L113.496 159.642L115.86 167.147L121.583 165.344ZM119.218 157.839L116.894 152.307C109.025 155.614 99.8831 157.593 90.027 157.858L90.188 163.855L90.349 169.853C101.59 169.552 112.21 167.292 121.543 163.37L119.218 157.839ZM90.188 163.855L90.027 157.858C83.6664 158.028 77.5578 157.468 71.8595 156.275L70.6294 162.147L69.3993 168.02C76.0401 169.411 83.0834 170.048 90.349 169.853L90.188 163.855ZM70.6294 162.147L68.0167 156.746C67.288 157.099 66.5523 157.421 65.8096 157.71L67.9868 163.301L70.164 168.892C71.2149 168.483 72.2411 168.033 73.2421 167.549L70.6294 162.147ZM67.9868 163.301L62.7675 160.341L58.8681 167.218L64.0874 170.178L69.3067 173.137L73.2061 166.26L67.9868 163.301ZM64.0874 170.178L59.7562 174.33L63.0638 177.78L67.395 173.628L71.7262 169.476L68.4186 166.026L64.0874 170.178ZM67.395 173.628L63.0631 177.779C61.3846 176.028 61.4424 173.247 63.1945 171.567L67.3472 175.897L71.4999 180.228C74.5315 177.321 74.632 172.508 71.7269 169.476L67.395 173.628ZM67.3472 175.897L63.1951 171.566C64.9436 169.89 67.7245 169.943 69.4074 171.697L65.0776 175.851L60.7479 180.004C63.6579 183.038 68.4711 183.132 71.4992 180.229L67.3472 175.897ZM65.0776 175.851L69.4084 171.698L66.8137 168.992L62.4829 173.145L58.1521 177.297L60.7468 180.003L65.0776 175.851ZM62.4829 173.145L57.174 170.349L55.133 174.225L60.4419 177.021L65.7508 179.816L67.7918 175.94L62.4829 173.145ZM60.4419 177.021L55.1339 174.223C56.2657 172.076 58.9229 171.253 61.0692 172.383L58.2739 177.692L55.4787 183.001C59.1933 184.957 63.7917 183.533 65.7499 179.818L60.4419 177.021ZM58.2739 177.692L61.071 172.384C63.2176 173.515 64.042 176.173 62.9105 178.321L57.6021 175.524L52.2936 172.728C50.3358 176.444 51.7617 181.043 55.4769 183.001L58.2739 177.692ZM57.6021 175.524L62.911 178.32L64.537 175.232L59.228 172.437L53.9191 169.641L52.2931 172.729L57.6021 175.524ZM59.228 172.437L58.4199 166.491L52.2343 167.332L53.0425 173.277L53.8506 179.223L60.0362 178.382L59.228 172.437ZM53.0425 173.277L52.2371 167.332C54.6422 167.006 56.8543 168.69 57.1811 171.094L51.2358 171.902L45.2906 172.711C45.8562 176.87 49.6864 179.787 53.8478 179.223L53.0425 173.277ZM51.2358 171.902L57.1813 171.095C57.5083 173.503 55.8205 175.714 53.4193 176.041L52.6108 170.096L51.8023 164.15C47.6445 164.716 44.7248 168.545 45.2904 172.71L51.2358 171.902ZM52.6108 170.096L53.4188 176.041L61.9052 174.888L61.0972 168.942L60.2892 162.997L51.8028 164.15L52.6108 170.096ZM61.0972 168.942L66.3166 171.902L68.7091 167.682L63.4897 164.723L58.2704 161.763L55.8778 165.983L61.0972 168.942ZM63.4897 164.723L62.0563 158.896C57.1434 160.105 51.8526 160.1 46.5962 158.613L44.9634 164.387L43.3305 170.16C50.6397 172.227 58.0448 172.241 64.9232 170.549L63.4897 164.723ZM44.9634 164.387L46.5988 158.614C31.3843 154.304 21.9587 138.683 25.2598 123.227L19.3921 121.974L13.5244 120.72C8.90029 142.371 22.0435 164.13 43.3279 170.16L44.9634 164.387ZM19.3921 121.974L25.2599 123.226C26.5246 117.301 29.4029 112.207 33.3134 108.251L29.0464 104.033L24.7794 99.8151C19.3023 105.356 15.2808 112.491 13.5243 120.721L19.3921 121.974ZM29.0464 104.033L34.7624 105.857C37.5245 97.2015 43.5052 89.319 51.8975 83.275L48.3911 78.4062L44.8847 73.5375C34.707 80.8672 26.9808 90.7696 23.3304 102.209L29.0464 104.033ZM48.3911 78.4062L54.285 77.2829C53.8712 75.1116 53.6206 72.8749 53.5609 70.5968L47.563 70.7539L41.565 70.911C41.6423 73.8623 41.9665 76.7454 42.4972 79.5296L48.3911 78.4062ZM47.563 70.7539L53.5608 70.5932C53.0015 49.7118 68.0333 34.2448 86.694 33.7429L86.5327 27.7451L86.3714 21.7473C60.7437 22.4365 40.8376 43.7564 41.5651 70.9146L47.563 70.7539Z" fill="white" mask="url(#path-1-outside-1_1347_5394)"/>
<path d="M68.5771 159.008L62.1016 170.426" stroke="#474747" stroke-width="3.2104" stroke-miterlimit="10" stroke-linecap="round"/>
<path d="M62.1019 170.426L52.8267 171.685" stroke="#474747" stroke-width="3.2104" stroke-miterlimit="10" stroke-linecap="round"/>
<path d="M62.1018 170.426L59.0215 176.272" stroke="#474747" stroke-width="3.2104" stroke-miterlimit="10" stroke-linecap="round"/>
<path d="M62.1016 170.426L66.2361 174.738" stroke="#474747" stroke-width="3.2104" stroke-miterlimit="10" stroke-linecap="round"/>
<path d="M119.252 152.601L123.113 164.86" stroke="#474747" stroke-width="3.2104" stroke-miterlimit="10" stroke-linecap="round"/>
<path d="M123.387 165.949L117.664 171.056" stroke="#474747" stroke-width="3.2104" stroke-miterlimit="10" stroke-linecap="round"/>
<path d="M123.387 165.949L124.29 172.562" stroke="#474747" stroke-width="3.2104" stroke-miterlimit="10" stroke-linecap="round"/>
<path d="M123.387 165.949L128.692 167.551" stroke="#474747" stroke-width="3.2104" stroke-miterlimit="10" stroke-linecap="round"/>
<path d="M150.788 114.767C151.541 142.792 124.359 162.937 90.1878 163.854C56.0166 164.772 27.7938 146.118 27.0408 118.087C26.6164 102.364 34.9607 88.0779 48.391 78.4056C47.9187 75.9277 47.6312 73.3676 47.5628 70.7527C46.9193 46.7329 64.3883 28.3398 86.5325 27.7443C108.677 27.1488 127.104 44.5767 127.747 68.6033C127.816 71.2182 127.679 73.7851 127.33 76.2836C132.354 79.5077 136.756 83.3684 140.343 87.7219C146.702 95.4433 150.515 104.712 150.782 114.767H150.788Z" fill="#4B98E6"/>
<path d="M96.0129 67.0966C95.359 70.7079 89.8668 75.5373 85.9626 74.8737C82.0585 74.21 78.5971 67.8537 79.2546 64.2428C79.9085 60.6315 82.9959 58.1382 88.8218 59.1289C94.7151 60.1333 96.6704 63.4856 96.0129 67.0966Z" fill="#EAC00F"/>
<path d="M108.804 67.7272C113.113 67.7272 116.607 64.2334 116.607 59.9236C116.607 55.6139 113.113 52.1201 108.804 52.1201C104.494 52.1201 101 55.6139 101 59.9236C101 64.2334 104.494 67.7272 108.804 67.7272Z" fill="white"/>
<path d="M110.157 65.313C112.452 65.313 114.313 63.4521 114.313 61.1565C114.313 58.8609 112.452 57 110.157 57C107.861 57 106 58.8609 106 61.1565C106 63.4521 107.861 65.313 110.157 65.313Z" fill="#040000"/>
<path d="M65.8035 67.6071C70.1133 67.6071 73.6071 64.1133 73.6071 59.8035C73.6071 55.4938 70.1133 52 65.8035 52C61.4938 52 58 55.4938 58 59.8035C58 64.1133 61.4938 67.6071 65.8035 67.6071Z" fill="white"/>
<path d="M67.1565 65.313C69.4521 65.313 71.313 63.4521 71.313 61.1565C71.313 58.8609 69.4521 57 67.1565 57C64.8609 57 63 58.8609 63 61.1565C63 63.4521 64.8609 65.313 67.1565 65.313Z" fill="#040000"/>
<path d="M116.669 116.165C114.166 129.713 102.615 138.937 89.7602 139.322C84.3527 158.552 64.3454 169.867 44.9632 164.386C26.7137 159.216 15.4291 140.526 19.3916 121.973C23.7402 101.598 44.153 89.1957 64.0817 94.4358C64.6473 94.5848 65.1999 94.7419 65.7472 94.9133C72.6432 85.0476 85.4691 80.2487 97.7549 84.2841C111.066 88.6557 119.225 102.392 116.677 116.171L116.669 116.165Z" fill="#C97D3F"/>
<path d="M76.0763 129.08C82.9444 128.381 87.9463 122.248 87.2482 115.38C86.5501 108.511 80.4164 103.51 73.5482 104.208C66.6801 104.906 61.6782 111.039 62.3763 117.908C63.0744 124.776 69.2081 129.778 76.0763 129.08Z" fill="#87491A"/>
<path d="M42.4535 124.534L110.121 92.5016" stroke="#402108" stroke-width="2" stroke-miterlimit="10" stroke-linecap="round"/>
<path d="M44.1695 127.877L110.602 94.9922" stroke="#402108" stroke-width="2" stroke-miterlimit="10" stroke-linecap="round"/>
<path d="M44.0396 132.148L113.155 96.6861" stroke="#402108" stroke-width="2" stroke-miterlimit="10" stroke-linecap="round"/>
<path d="M45.7141 135.418L113.707 99.4028" stroke="#402108" stroke-width="2" stroke-miterlimit="10" stroke-linecap="round"/>
<path d="M47.6709 139.238L114.969 101.126" stroke="#402108" stroke-width="2" stroke-miterlimit="10" stroke-linecap="round"/>
<path d="M41.4441 122.455C40.7687 121.136 39.1519 120.614 37.8328 121.29C36.5137 121.965 35.9919 123.582 36.6673 124.901L45.6148 142.376C46.2902 143.695 47.907 144.217 49.2261 143.541C50.5452 142.866 51.067 141.249 50.3916 139.93L41.4441 122.455Z" fill="#2B1604"/>
<path d="M169.267 79.6439L157.764 85.2097C154.652 86.8814 150.866 86.186 148.514 83.7623C148.03 83.2611 147.615 82.6978 147.274 82.0581L145.042 77.9021C144.618 77.1127 144.348 76.287 144.215 75.4474C143.729 72.2905 145.232 69.007 148.201 67.4118L159.696 61.8467C163.448 59.8279 168.174 61.2465 170.194 65.0044L172.426 69.1604C174.444 72.9114 173.025 77.6312 169.274 79.65L169.267 79.6439Z" fill="#87491A"/>
<path d="M149.063 84.6291L115.535 101.951L109.499 92.0103L144.122 74.5353C144.256 75.375 144.625 77.1126 145.042 77.9027L147.274 82.0587C147.615 82.6984 148.585 84.1272 149.063 84.6291Z" fill="#402108"/>
<path d="M52.4998 83.2627C56.6411 94.1603 69.3937 103.394 79.4288 111.663C90.2716 120.596 57.4382 123.36 45.9999 119C35.0613 114.831 28 95.5 43.1287 83.2627" fill="#276286"/>
<path d="M52.4998 83.2627C56.6411 94.1603 69.3937 103.394 79.4288 111.663C90.2716 120.596 57.4382 123.36 45.9999 119C35.0613 114.831 28 95.5 43.1287 83.2627C48.3552 77.3536 51.5538 80.8006 52.4998 83.2627Z" fill="#276286"/>
<path d="M130.933 85.1456C134.604 86.7331 145.028 95.037 145.944 100.57C146.86 106.103 134.797 124.839 126.456 109.357C118.115 93.8759 126.343 83.1613 130.933 85.1456Z" fill="#276286"/>
</svg>
