<svg width="200" height="200" viewBox="0 0 200 200" fill="none" xmlns="http://www.w3.org/2000/svg">
<mask id="path-1-outside-1_1347_7802" maskUnits="userSpaceOnUse" x="18.8311" y="18.8311" width="164" height="164" fill="black">
<rect fill="white" x="18.8311" y="18.8311" width="164" height="164"/>
<path d="M156.12 27.6572C160.913 23.6498 167.897 23.9044 172.412 28.4199C176.927 32.9354 177.18 39.9169 173.173 44.71L175.21 46.7471L171.649 50.3086L170.998 49.6572L121.804 102.214L122.047 102.457L114.744 109.76L114.742 109.758V109.76L112.632 107.649L63.0215 157.258L63.1191 157.355L35.6699 172.969L33.6553 170.954L27.6113 175.235C26.8558 175.991 25.5964 176.243 25.0928 175.739C24.5891 175.236 24.8412 174.228 25.5967 173.221L29.877 167.177L27.8623 165.162L43.4551 137.75L43.4053 137.7L93.0449 88.0625L91.0703 86.0879L91.1006 86.0586L98.375 78.7852L98.6152 79.0254L142.445 38.001C140.025 35.295 137.264 32.4484 134.387 32.4482C127.084 32.9519 123.306 57.128 113.232 65.1865C108.196 68.9638 102.656 72.2377 97.1162 74.7559C94.3462 76.015 91.5757 77.0222 88.8057 78.2812C88.302 78.2812 87.2947 76.7703 86.791 76.2666C96.6121 71.2301 107.692 64.4312 111.974 57.8838C117.01 50.5807 121.292 30.6858 130.357 27.1602C137.157 24.642 142.194 29.175 146.475 33.4561C146.52 33.5013 146.67 33.643 146.884 33.8467L151.173 29.832L150.637 29.2959L154.197 25.7344L156.12 27.6572Z"/>
</mask>
<path d="M156.12 27.6572C160.913 23.6498 167.897 23.9044 172.412 28.4199C176.927 32.9354 177.18 39.9169 173.173 44.71L175.21 46.7471L171.649 50.3086L170.998 49.6572L121.804 102.214L122.047 102.457L114.744 109.76L114.742 109.758V109.76L112.632 107.649L63.0215 157.258L63.1191 157.355L35.6699 172.969L33.6553 170.954L27.6113 175.235C26.8558 175.991 25.5964 176.243 25.0928 175.739C24.5891 175.236 24.8412 174.228 25.5967 173.221L29.877 167.177L27.8623 165.162L43.4551 137.75L43.4053 137.7L93.0449 88.0625L91.0703 86.0879L91.1006 86.0586L98.375 78.7852L98.6152 79.0254L142.445 38.001C140.025 35.295 137.264 32.4484 134.387 32.4482C127.084 32.9519 123.306 57.128 113.232 65.1865C108.196 68.9638 102.656 72.2377 97.1162 74.7559C94.3462 76.015 91.5757 77.0222 88.8057 78.2812C88.302 78.2812 87.2947 76.7703 86.791 76.2666C96.6121 71.2301 107.692 64.4312 111.974 57.8838C117.01 50.5807 121.292 30.6858 130.357 27.1602C137.157 24.642 142.194 29.175 146.475 33.4561C146.52 33.5013 146.67 33.643 146.884 33.8467L151.173 29.832L150.637 29.2959L154.197 25.7344L156.12 27.6572Z" fill="#D7E8FC"/>
<path d="M156.12 27.6572L151.877 31.8999C154.074 34.0968 157.585 34.2532 159.969 32.2604L156.12 27.6572ZM172.412 28.4199L176.655 24.1775L176.655 24.1773L172.412 28.4199ZM173.173 44.71L168.57 40.8615C166.577 43.2451 166.733 46.7557 168.93 48.9526L173.173 44.71ZM175.21 46.7471L179.453 50.9891C181.796 48.6459 181.796 44.8473 179.453 42.5044L175.21 46.7471ZM171.649 50.3086L167.407 54.5512C168.532 55.6766 170.058 56.3087 171.65 56.3086C173.241 56.3085 174.767 55.6761 175.893 54.5507L171.649 50.3086ZM170.998 49.6572L175.241 45.4146C174.091 44.2651 172.524 43.6312 170.899 43.658C169.274 43.6849 167.729 44.3702 166.618 45.557L170.998 49.6572ZM121.804 102.214L117.423 98.1137C115.211 100.477 115.272 104.168 117.561 106.457L121.804 102.214ZM122.047 102.457L126.29 106.7C128.633 104.357 128.633 100.558 126.29 98.2144L122.047 102.457ZM114.744 109.76L110.502 114.002C112.845 116.346 116.644 116.346 118.987 114.002L114.744 109.76ZM114.742 109.758L118.985 105.515C117.269 103.799 114.688 103.286 112.446 104.215C110.204 105.143 108.742 107.331 108.742 109.758H114.742ZM114.742 109.76L110.5 114.002C112.216 115.718 114.796 116.232 117.038 115.303C119.28 114.374 120.742 112.187 120.742 109.76H114.742ZM112.632 107.649L116.874 103.407C114.531 101.064 110.732 101.064 108.389 103.407L112.632 107.649ZM63.0215 157.258L58.7789 153.015C57.6537 154.14 57.0215 155.666 57.0215 157.258C57.0215 158.849 57.6536 160.375 58.7788 161.5L63.0215 157.258ZM63.1191 157.355L66.0857 162.571C67.7129 161.645 68.8149 160.013 69.0653 158.158C69.3156 156.302 68.6856 154.437 67.3618 153.113L63.1191 157.355ZM35.6699 172.969L31.4273 177.211C33.3374 179.121 36.2884 179.52 38.6364 178.184L35.6699 172.969ZM33.6553 170.954L37.8979 166.711C35.8303 164.644 32.5732 164.368 30.1871 166.058L33.6553 170.954ZM27.6113 175.235L24.1432 170.339C23.867 170.535 23.608 170.753 23.3687 170.993L27.6113 175.235ZM25.0928 175.739L20.85 179.982L20.8501 179.982L25.0928 175.739ZM25.5967 173.221L30.3967 176.821C30.4294 176.777 30.4616 176.733 30.4932 176.688L25.5967 173.221ZM29.877 167.177L34.7734 170.644C36.4632 168.258 36.1871 165.002 34.1196 162.934L29.877 167.177ZM27.8623 165.162L22.647 162.196C21.3114 164.544 21.7095 167.495 23.6197 169.405L27.8623 165.162ZM43.4551 137.75L48.6704 140.717C50.006 138.369 49.6078 135.417 47.6977 133.507L43.4551 137.75ZM43.4053 137.7L39.1627 133.457C38.0375 134.583 37.4053 136.109 37.4053 137.7C37.4053 139.291 38.0374 140.818 39.1626 141.943L43.4053 137.7ZM93.0449 88.0625L97.2875 92.3052C98.4127 91.18 99.0449 89.6539 99.0449 88.0626C99.0449 86.4712 98.4128 84.9451 97.2876 83.8199L93.0449 88.0625ZM91.0703 86.0879L86.8978 81.7763C85.742 82.8948 85.0837 84.4304 85.0705 86.0387C85.0573 87.647 85.6904 89.1933 86.8277 90.3305L91.0703 86.0879ZM91.1006 86.0586L95.2731 90.3702C95.2966 90.3475 95.3199 90.3246 95.3429 90.3015L91.1006 86.0586ZM98.375 78.7852L102.618 74.5425C100.275 72.1995 96.4758 72.1994 94.1326 74.5422L98.375 78.7852ZM98.6152 79.0254L94.3726 83.268C96.6612 85.5566 100.352 85.6176 102.715 83.4059L98.6152 79.0254ZM142.445 38.001L146.545 42.3815C148.926 40.1532 149.091 36.4314 146.917 34.0009L142.445 38.001ZM134.387 32.4482L134.387 26.4482C134.249 26.4482 134.111 26.453 133.974 26.4625L134.387 32.4482ZM113.232 65.1865L116.832 69.9865C116.882 69.949 116.932 69.9108 116.981 69.8717L113.232 65.1865ZM97.1162 74.7559L99.599 80.2181L99.5991 80.218L97.1162 74.7559ZM88.8057 78.2812V84.2812C89.6622 84.2812 90.5087 84.0979 91.2885 83.7435L88.8057 78.2812ZM86.791 76.2666L84.0531 70.9277C82.3466 71.8029 81.1612 73.4411 80.8637 75.3357C80.5661 77.2304 81.1922 79.1531 82.5484 80.5092L86.791 76.2666ZM111.974 57.8838L107.034 54.4774C107.006 54.518 106.979 54.5589 106.952 54.6002L111.974 57.8838ZM130.357 27.1602L128.274 21.5336C128.243 21.5449 128.213 21.5564 128.183 21.5681L130.357 27.1602ZM146.475 33.4561L142.232 37.6987L142.233 37.6998L146.475 33.4561ZM146.884 33.8467L142.747 38.193C145.05 40.3847 148.663 40.3996 150.984 38.2271L146.884 33.8467ZM151.173 29.832L155.273 34.2125C156.46 33.1016 157.145 31.5566 157.172 29.9311C157.199 28.3057 156.565 26.7389 155.415 25.5894L151.173 29.832ZM150.637 29.2959L146.393 25.0538C144.051 27.3971 144.051 31.1956 146.394 33.5385L150.637 29.2959ZM154.197 25.7344L158.44 21.4917C157.315 20.3664 155.788 19.7343 154.197 19.7344C152.605 19.7345 151.079 20.3668 149.954 21.4923L154.197 25.7344ZM156.12 27.6572L159.969 32.2604C162.385 30.2399 165.857 30.3504 168.169 32.6626L172.412 28.4199L176.655 24.1773C169.936 17.4583 159.441 17.0597 152.272 23.0541L156.12 27.6572ZM172.412 28.4199L168.169 32.6624C170.48 34.9734 170.591 38.4438 168.57 40.8615L173.173 44.71L177.776 48.5584C183.769 41.3901 183.374 30.8974 176.655 24.1775L172.412 28.4199ZM173.173 44.71L168.93 48.9526L170.967 50.9897L175.21 46.7471L179.453 42.5044L177.415 40.4673L173.173 44.71ZM175.21 46.7471L170.967 42.505L167.406 46.0665L171.649 50.3086L175.893 54.5507L179.453 50.9891L175.21 46.7471ZM171.649 50.3086L175.892 46.066L175.241 45.4146L170.998 49.6572L166.755 53.8999L167.407 54.5512L171.649 50.3086ZM170.998 49.6572L166.618 45.557L117.423 98.1137L121.804 102.214L126.184 106.314L175.378 53.7574L170.998 49.6572ZM121.804 102.214L117.561 106.457L117.804 106.7L122.047 102.457L126.29 98.2144L126.046 97.9712L121.804 102.214ZM122.047 102.457L117.804 98.2144L110.502 105.517L114.744 109.76L118.987 114.002L126.29 106.7L122.047 102.457ZM114.744 109.76L118.987 105.517L118.985 105.515L114.742 109.758L110.5 114L110.502 114.002L114.744 109.76ZM114.742 109.758H108.742V109.76H114.742H120.742V109.758H114.742ZM114.742 109.76L118.985 105.517L116.874 103.407L112.632 107.649L108.389 111.892L110.5 114.002L114.742 109.76ZM112.632 107.649L108.389 103.407L58.7789 153.015L63.0215 157.258L67.264 161.501L116.874 111.892L112.632 107.649ZM63.0215 157.258L58.7788 161.5L58.8765 161.598L63.1191 157.355L67.3618 153.113L67.2641 153.015L63.0215 157.258ZM63.1191 157.355L60.1526 152.14L32.7034 167.753L35.6699 172.969L38.6364 178.184L66.0857 162.571L63.1191 157.355ZM35.6699 172.969L39.9126 168.726L37.8979 166.711L33.6553 170.954L29.4126 175.197L31.4273 177.211L35.6699 172.969ZM33.6553 170.954L30.1871 166.058L24.1432 170.339L27.6113 175.235L31.0795 180.131L37.1234 175.85L33.6553 170.954ZM27.6113 175.235L23.3687 170.993C23.8729 170.488 24.4546 170.201 25.0803 170.076C25.4124 170.01 25.9522 169.95 26.6345 170.07C27.3164 170.191 28.3805 170.542 29.3354 171.497L25.0928 175.739L20.8501 179.982C23.1996 182.331 26.1737 182.095 27.4349 181.843C29.0051 181.529 30.5942 180.738 31.854 179.478L27.6113 175.235ZM25.0928 175.739L29.3356 171.497C31.0753 173.237 30.8767 175.286 30.7393 175.927C30.6595 176.298 30.5494 176.543 30.4949 176.652C30.4641 176.713 30.4389 176.756 30.4232 176.781C30.4073 176.806 30.3978 176.819 30.3967 176.821L25.5967 173.221L20.7967 169.621C20.0914 170.561 19.3395 171.855 19.0059 173.411C18.6795 174.934 18.6066 177.738 20.85 179.982L25.0928 175.739ZM25.5967 173.221L30.4932 176.688L34.7734 170.644L29.877 167.177L24.9805 163.709L20.7002 169.753L25.5967 173.221ZM29.877 167.177L34.1196 162.934L32.1049 160.919L27.8623 165.162L23.6197 169.405L25.6343 171.419L29.877 167.177ZM27.8623 165.162L33.0776 168.129L48.6704 140.717L43.4551 137.75L38.2398 134.783L22.647 162.196L27.8623 165.162ZM43.4551 137.75L47.6977 133.507L47.6479 133.458L43.4053 137.7L39.1626 141.943L39.2124 141.993L43.4551 137.75ZM43.4053 137.7L47.6478 141.943L97.2875 92.3052L93.0449 88.0625L88.8024 83.8198L39.1627 133.457L43.4053 137.7ZM93.0449 88.0625L97.2876 83.8199L95.313 81.8452L91.0703 86.0879L86.8277 90.3305L88.8023 92.3051L93.0449 88.0625ZM91.0703 86.0879L95.2428 90.3995L95.2731 90.3702L91.1006 86.0586L86.9281 81.747L86.8978 81.7763L91.0703 86.0879ZM91.1006 86.0586L95.3429 90.3015L102.617 83.0281L98.375 78.7852L94.1326 74.5422L86.8582 81.8157L91.1006 86.0586ZM98.375 78.7852L94.1324 83.0278L94.3726 83.268L98.6152 79.0254L102.858 74.7827L102.618 74.5425L98.375 78.7852ZM98.6152 79.0254L102.715 83.4059L146.545 42.3815L142.445 38.001L138.345 33.6204L94.5151 74.6449L98.6152 79.0254ZM142.445 38.001L146.917 34.0009C145.707 32.6473 144.093 30.8884 142.267 29.4704C140.501 28.0994 137.788 26.4484 134.387 26.4482L134.387 32.4482L134.386 38.4482C133.863 38.4482 133.969 38.2206 134.908 38.9494C135.786 39.6313 136.764 40.6486 137.973 42.0011L142.445 38.001ZM134.387 32.4482L133.974 26.4625C131.347 26.6437 129.289 27.8782 127.825 29.1695C126.391 30.4345 125.248 31.9917 124.328 33.4643C122.511 36.3732 120.861 40.1334 119.353 43.5768C117.763 47.2057 116.234 50.7223 114.51 53.8382C112.762 56.9991 111.093 59.2147 109.484 60.5013L113.232 65.1865L116.981 69.8717C120.409 67.1291 122.989 63.3008 125.011 59.6464C127.057 55.9471 128.817 51.8773 130.344 48.3918C131.952 44.7209 133.246 41.839 134.506 39.8214C135.125 38.8307 135.554 38.3536 135.763 38.1686C135.943 38.0099 135.601 38.3787 134.8 38.434L134.387 32.4482ZM113.232 65.1865L109.632 60.3865C104.942 63.9044 99.7764 66.9559 94.6334 69.2937L97.1162 74.7559L99.5991 80.218C105.536 77.5194 111.45 74.0232 116.832 69.9865L113.232 65.1865ZM97.1162 74.7559L94.6334 69.2937C93.3702 69.8679 92.091 70.3919 90.6894 70.9652C89.3207 71.525 87.8297 72.1341 86.3229 72.819L88.8057 78.2812L91.2885 83.7435C92.5517 83.1693 93.8309 82.6452 95.2325 82.0719C96.6012 81.5121 98.0922 80.903 99.599 80.2181L97.1162 74.7559ZM88.8057 78.2812V72.2812C89.5179 72.2812 90.1057 72.4133 90.5248 72.5466C90.9445 72.6801 91.271 72.8391 91.4918 72.9609C91.9131 73.1931 92.1814 73.419 92.2709 73.4964C92.4472 73.6486 92.4932 73.7206 92.3539 73.558C92.2294 73.4128 92.1198 73.275 91.8989 73.0038C91.8051 72.8887 91.6841 72.7413 91.5571 72.593C91.4382 72.4543 91.2537 72.244 91.0337 72.024L86.791 76.2666L82.5484 80.5092C82.421 80.3819 82.3868 80.3271 82.5961 80.5839C82.7214 80.7377 82.9896 81.0721 83.2428 81.3675C83.4812 81.6457 83.9049 82.1269 84.4275 82.5782C84.6902 82.8051 85.1237 83.153 85.6985 83.4698C86.2121 83.753 87.3167 84.2812 88.8057 84.2812V78.2812ZM86.791 76.2666L89.5289 81.6055C94.5735 79.0185 100.052 75.9238 104.882 72.5701C109.587 69.3026 114.207 65.4322 116.995 61.1674L111.974 57.8838L106.952 54.6002C105.459 56.8828 102.398 59.6856 98.0375 62.7135C93.8013 65.6552 88.8296 68.4782 84.0531 70.9277L86.791 76.2666ZM111.974 57.8838L116.913 61.2902C118.56 58.9024 119.978 55.7646 121.219 52.8429C122.569 49.6639 123.733 46.6793 125.131 43.5574C126.496 40.5083 127.849 37.8854 129.263 35.8916C130.72 33.8367 131.845 33.0192 132.532 32.7522L130.357 27.1602L128.183 21.5681C124.336 23.0639 121.527 26.0554 119.474 28.9506C117.378 31.9069 115.646 35.3752 114.178 38.6534C112.743 41.8589 111.326 45.4377 110.173 48.1532C108.911 51.126 107.906 53.2136 107.034 54.4774L111.974 57.8838ZM130.357 27.1602L132.441 32.7867C134.008 32.2063 135.214 32.3763 136.626 33.0993C138.332 33.9723 140.065 35.5321 142.232 37.6987L146.475 33.4561L150.717 29.2134C148.603 27.0989 145.677 24.2517 142.094 22.4175C138.218 20.4333 133.506 19.5958 128.274 21.5336L130.357 27.1602ZM146.475 33.4561L142.233 37.6998C142.29 37.757 142.346 37.8105 142.371 37.8342C142.404 37.8666 142.442 37.9024 142.479 37.9373C142.54 37.9954 142.658 38.1081 142.747 38.193L146.884 33.8467L151.02 29.5003C150.965 29.4479 150.914 29.3997 150.869 29.3571C150.824 29.3138 150.786 29.2777 150.753 29.2467C150.72 29.215 150.698 29.1941 150.684 29.1809C150.678 29.1744 150.676 29.1731 150.679 29.1754C150.679 29.1758 150.694 29.1901 150.716 29.2123L146.475 33.4561ZM146.884 33.8467L150.984 38.2271L155.273 34.2125L151.173 29.832L147.073 25.4516L142.784 29.4662L146.884 33.8467ZM151.173 29.832L155.415 25.5894L154.879 25.0533L150.637 29.2959L146.394 33.5385L146.93 34.0747L151.173 29.832ZM150.637 29.2959L154.88 33.538L158.44 29.9764L154.197 25.7344L149.954 21.4923L146.393 25.0538L150.637 29.2959ZM154.197 25.7344L149.955 29.977L151.877 31.8999L156.12 27.6572L160.363 23.4146L158.44 21.4917L154.197 25.7344Z" fill="white" mask="url(#path-1-outside-1_1347_7802)"/>
<path d="M111.974 57.8829C107.692 64.4305 96.612 71.2298 86.7907 76.2664C87.2943 76.7701 88.3017 78.2811 88.8053 78.2811C91.5754 77.0219 94.3456 76.0146 97.1157 74.7555C102.656 72.2372 108.196 68.9634 113.233 65.186C123.306 57.1274 127.083 32.9519 134.386 32.4482C138.667 32.4482 142.697 38.7439 145.719 41.514L150 37.2329C150.252 36.9811 146.726 33.7073 146.474 33.4555C142.193 29.1744 137.156 24.6415 130.357 27.1598C121.291 30.6854 117.01 50.5799 111.974 57.8829ZM132.12 33.2037C131.868 33.2037 131.868 33.2037 132.12 33.2037V33.2037ZM25.5963 173.221C24.8408 174.228 24.5889 175.235 25.0926 175.739C25.5963 176.243 26.8554 175.991 27.6109 175.235L33.6548 170.954L29.8773 167.177L25.5963 173.221Z" fill="#7CABDA"/>
<path d="M91.0708 86.0881L114.743 109.76L173.671 46.8028L154.028 27.1602L91.0708 86.0881Z" fill="#4B9AE8"/>
<path d="M43.4053 137.7L93.0886 88.0195L112.676 107.607L62.9925 157.288L43.4053 137.7Z" fill="#4B9AE8"/>
<mask id="path-6-outside-2_1347_7802" maskUnits="userSpaceOnUse" x="116.469" y="55.8055" width="28.9914" height="28.9914" fill="black">
<rect fill="white" x="116.469" y="55.8055" width="28.9914" height="28.9914"/>
<path d="M137.65 64.9661C140.908 68.2238 140.908 73.5056 137.65 76.7632C134.393 80.0207 129.111 80.0206 125.853 76.7632C123.137 74.047 122.687 69.9241 124.5 66.7401C123.66 66.0195 122.95 64.5241 123.366 63.7978C123.836 62.9779 125.875 62.9034 126.843 63.4601C127.017 63.5602 127.175 63.6742 127.314 63.8012C130.536 61.7723 134.844 62.1598 137.65 64.9661Z"/>
</mask>
<path d="M137.65 64.9661C140.908 68.2238 140.908 73.5056 137.65 76.7632C134.393 80.0207 129.111 80.0206 125.853 76.7632C123.137 74.047 122.687 69.9241 124.5 66.7401C123.66 66.0195 122.95 64.5241 123.366 63.7978C123.836 62.9779 125.875 62.9034 126.843 63.4601C127.017 63.5602 127.175 63.6742 127.314 63.8012C130.536 61.7723 134.844 62.1598 137.65 64.9661Z" fill="#DFB820"/>
<path d="M137.65 64.9661L138.316 64.3003L138.316 64.3003L137.65 64.9661ZM137.65 76.7632L138.316 77.4291L138.316 77.4291L137.65 76.7632ZM125.853 76.7632L125.187 77.4291L125.187 77.4291L125.853 76.7632ZM124.5 66.7401L125.319 67.2061L125.703 66.5308L125.113 66.0251L124.5 66.7401ZM123.366 63.7978L122.549 63.3292L122.549 63.3296L123.366 63.7978ZM126.843 63.4601L127.312 62.644L127.312 62.6439L126.843 63.4601ZM127.314 63.8012L126.677 64.4952L127.207 64.9811L127.815 64.5981L127.314 63.8012ZM137.65 64.9661L136.984 65.632C139.874 68.5219 139.874 73.2076 136.984 76.0974L137.65 76.7632L138.316 77.4291C141.941 73.8037 141.941 67.9257 138.316 64.3003L137.65 64.9661ZM137.65 76.7632L136.984 76.0974C134.095 78.9871 129.409 78.9871 126.519 76.0974L125.853 76.7632L125.187 77.4291C128.813 81.0542 134.691 81.0543 138.316 77.4291L137.65 76.7632ZM125.853 76.7632L126.519 76.0974C124.111 73.6889 123.71 70.0313 125.319 67.2061L124.5 66.7401L123.682 66.2741C121.664 69.8168 122.163 74.405 125.187 77.4291L125.853 76.7632ZM124.5 66.7401L125.113 66.0251C124.818 65.7723 124.512 65.3451 124.331 64.9097C124.243 64.6962 124.199 64.5157 124.188 64.3843C124.176 64.2469 124.205 64.2274 124.183 64.2659L123.366 63.7978L122.549 63.3296C122.319 63.7313 122.28 64.1711 122.311 64.5409C122.342 64.9167 122.45 65.2912 122.592 65.6325C122.872 66.3064 123.342 66.9873 123.888 67.4551L124.5 66.7401ZM123.366 63.7978L124.183 64.2663C124.159 64.308 124.167 64.2595 124.334 64.19C124.49 64.1248 124.715 64.0721 124.988 64.0517C125.561 64.0089 126.106 64.1225 126.373 64.2762L126.843 63.4601L127.312 62.6439C126.612 62.241 125.653 62.1135 124.848 62.1737C124.431 62.2048 123.998 62.2897 123.609 62.4517C123.231 62.6094 122.808 62.8776 122.549 63.3292L123.366 63.7978ZM126.843 63.4601L126.373 64.2762C126.494 64.3459 126.595 64.42 126.677 64.4952L127.314 63.8012L127.95 63.1072C127.755 62.9284 127.539 62.7746 127.312 62.644L126.843 63.4601ZM127.314 63.8012L127.815 64.5981C130.674 62.7982 134.496 63.1434 136.984 65.632L137.65 64.9661L138.316 64.3003C135.192 61.1761 130.398 60.7465 126.812 63.0043L127.314 63.8012Z" fill="white" mask="url(#path-6-outside-2_1347_7802)"/>
<path d="M125.853 76.7628C129.111 80.0204 134.392 80.0204 137.65 76.7628C140.908 73.5052 140.908 68.2235 137.65 64.9659C134.392 61.7082 129.111 61.7082 125.853 64.9659C122.595 68.2235 122.595 73.5052 125.853 76.7628Z" fill="#4B98E6"/>
<circle cx="131.134" cy="67.1598" r="2.1832" transform="rotate(45 131.134 67.1598)" fill="white"/>
<circle cx="131.134" cy="67.1601" r="1.30992" transform="rotate(45 131.134 67.1601)" fill="#161616"/>
<circle cx="131.134" cy="67.1601" r="1.30992" transform="rotate(45 131.134 67.1601)" fill="#161616"/>
<path d="M124.829 66.9799C123.86 66.4217 122.896 64.6191 123.366 63.799C123.836 62.9788 125.875 62.9039 126.842 63.4607C127.81 64.0175 128.29 65.0065 127.59 66.2283C126.882 67.465 125.797 67.5366 124.827 66.9785L124.829 66.9799Z" fill="#DFB820"/>
<path d="M27.8623 165.162L35.669 172.969L63.1184 157.356L43.4757 137.713L27.8623 165.162ZM98.3744 78.7852L122.046 102.457L114.743 109.76L91.0714 86.0882L98.3744 78.7852Z" fill="#D7E8FC"/>
<path d="M155.287 28.4196L172.411 45.544C177.196 40.7592 177.196 33.2044 172.411 28.4196C167.627 23.6349 160.072 23.6349 155.287 28.4196Z" fill="#4B9AE8"/>
<path d="M150.637 29.2952L154.198 25.7344L175.21 46.747L171.649 50.3078L150.637 29.2952Z" fill="#D7E8FC"/>
</svg>
