<svg width="200" height="200" viewBox="0 0 200 200" fill="none" xmlns="http://www.w3.org/2000/svg">
<mask id="path-1-outside-1_1347_15007" maskUnits="userSpaceOnUse" x="27" y="12.1113" width="146" height="176" fill="black">
<rect fill="white" x="27" y="12.1113" width="146" height="176"/>
<path d="M100.465 18.1113C128.559 18.1113 136.291 49.4422 136.291 52.2773C136.291 54.482 134.666 56.8638 133.786 57.8633C136.507 63.2339 138.125 69.4037 138.305 76.1074C138.354 77.9934 138.288 79.8531 138.111 81.6816L143.684 76.0107C145.088 74.5814 147.459 74.4891 148.985 75.8037L150.82 77.3838C153.479 74.0108 156.315 70.8999 158.677 69.3545C164.038 65.8458 166.103 78.3309 163.107 87.9658L165.781 90.2686C167.396 91.6597 167.407 94.0485 165.806 95.4531L157.459 102.772C157.313 102.9 157.159 103.015 156.999 103.117C170.588 128.291 148.978 150.874 144.201 153.972C134.141 160.494 124.16 164.179 114.732 165.92V172.633L125.174 170.486C126.752 170.486 128.177 171.123 129.219 172.16C130.251 173.198 130.9 174.616 130.9 176.188C130.9 179.321 128.321 181.889 125.174 181.889H110.109C107.726 181.889 105.775 179.947 105.775 177.574V167.029C102.509 167.238 99.3358 167.231 96.2773 167.048V177.574C96.2773 179.947 94.3277 181.888 91.9443 181.889H76.8789C73.732 181.888 71.1524 179.321 71.1523 176.188C71.1523 174.616 71.8031 173.198 72.835 172.16C73.877 171.123 75.3005 170.486 76.8789 170.486L87.3213 172.633V165.991C83.4455 165.307 79.8343 164.371 76.5469 163.295C67.6555 160.503 59.9113 156.101 53.9707 150.393C45.5666 143.869 36.5821 125.389 44.1045 106.386C43.5382 106.239 42.9995 105.967 42.54 105.564L34.1943 98.2451C32.5925 96.8404 32.6036 94.4517 34.2188 93.0605L37.21 90.4834C32.9373 80.7069 34.8653 65.5303 40.709 69.3545C43.5319 71.2019 47.0313 75.2884 50.0977 79.3838L51.0146 78.5947C52.5412 77.2802 54.9119 77.3732 56.3164 78.8027L61.7197 84.3018C61.396 82.31 61.1951 80.2666 61.1406 78.1826C60.937 70.5833 62.6119 63.5686 65.708 57.5537C64.7957 57.1375 64.6387 55.8093 64.6387 52.2773C64.6387 47.3802 72.3708 18.1113 100.465 18.1113Z"/>
</mask>
<path d="M100.465 18.1113C128.559 18.1113 136.291 49.4422 136.291 52.2773C136.291 54.482 134.666 56.8638 133.786 57.8633C136.507 63.2339 138.125 69.4037 138.305 76.1074C138.354 77.9934 138.288 79.8531 138.111 81.6816L143.684 76.0107C145.088 74.5814 147.459 74.4891 148.985 75.8037L150.82 77.3838C153.479 74.0108 156.315 70.8999 158.677 69.3545C164.038 65.8458 166.103 78.3309 163.107 87.9658L165.781 90.2686C167.396 91.6597 167.407 94.0485 165.806 95.4531L157.459 102.772C157.313 102.9 157.159 103.015 156.999 103.117C170.588 128.291 148.978 150.874 144.201 153.972C134.141 160.494 124.16 164.179 114.732 165.92V172.633L125.174 170.486C126.752 170.486 128.177 171.123 129.219 172.16C130.251 173.198 130.9 174.616 130.9 176.188C130.9 179.321 128.321 181.889 125.174 181.889H110.109C107.726 181.889 105.775 179.947 105.775 177.574V167.029C102.509 167.238 99.3358 167.231 96.2773 167.048V177.574C96.2773 179.947 94.3277 181.888 91.9443 181.889H76.8789C73.732 181.888 71.1524 179.321 71.1523 176.188C71.1523 174.616 71.8031 173.198 72.835 172.16C73.877 171.123 75.3005 170.486 76.8789 170.486L87.3213 172.633V165.991C83.4455 165.307 79.8343 164.371 76.5469 163.295C67.6555 160.503 59.9113 156.101 53.9707 150.393C45.5666 143.869 36.5821 125.389 44.1045 106.386C43.5382 106.239 42.9995 105.967 42.54 105.564L34.1943 98.2451C32.5925 96.8404 32.6036 94.4517 34.2188 93.0605L37.21 90.4834C32.9373 80.7069 34.8653 65.5303 40.709 69.3545C43.5319 71.2019 47.0313 75.2884 50.0977 79.3838L51.0146 78.5947C52.5412 77.2802 54.9119 77.3732 56.3164 78.8027L61.7197 84.3018C61.396 82.31 61.1951 80.2666 61.1406 78.1826C60.937 70.5833 62.6119 63.5686 65.708 57.5537C64.7957 57.1375 64.6387 55.8093 64.6387 52.2773C64.6387 47.3802 72.3708 18.1113 100.465 18.1113Z" fill="#F04116"/>
<path d="M100.465 18.1113V12.1113V18.1113ZM136.291 52.2773L142.291 52.2775V52.2773H136.291ZM133.786 57.8633L129.282 53.8988C127.661 55.7411 127.325 58.3855 128.434 60.5749L133.786 57.8633ZM138.305 76.1074L144.303 75.9503L144.303 75.9466L138.305 76.1074ZM138.111 81.6816L132.139 81.106C131.895 83.636 133.272 86.0452 135.575 87.1194C137.879 88.1937 140.61 87.6999 142.391 85.8869L138.111 81.6816ZM143.684 76.0107L139.404 71.8052L139.404 71.8055L143.684 76.0107ZM148.985 75.8037L145.07 80.35L145.07 80.3504L148.985 75.8037ZM150.82 77.3838L146.905 81.9304C148.145 82.9982 149.768 83.5132 151.396 83.3561C153.025 83.199 154.519 82.3834 155.532 81.0983L150.82 77.3838ZM158.677 69.3545L155.391 64.334L155.391 64.334L158.677 69.3545ZM163.107 87.9658L157.378 86.1846C156.668 88.4669 157.381 90.9526 159.192 92.5122L163.107 87.9658ZM165.781 90.2686L169.697 85.7225L169.697 85.7222L165.781 90.2686ZM165.806 95.4531L169.762 99.9643L169.762 99.9642L165.806 95.4531ZM157.459 102.772L161.415 107.284L161.415 107.284L157.459 102.772ZM156.999 103.117L153.777 98.0555C151.123 99.7452 150.224 103.198 151.719 105.967L156.999 103.117ZM144.201 153.972L147.465 159.006L147.465 159.006L144.201 153.972ZM114.732 165.92L113.643 160.02C110.797 160.545 108.732 163.027 108.732 165.92H114.732ZM114.732 172.633H108.732C108.732 174.436 109.543 176.144 110.941 177.283C112.338 178.423 114.174 178.873 115.941 178.51L114.732 172.633ZM125.174 170.486V164.486C124.768 164.486 124.363 164.528 123.966 164.609L125.174 170.486ZM129.219 172.16L133.473 167.929C133.466 167.922 133.459 167.915 133.452 167.908L129.219 172.16ZM130.9 176.188L136.9 176.188V176.188H130.9ZM105.775 167.029H111.775C111.775 165.371 111.089 163.788 109.88 162.653C108.671 161.519 107.047 160.936 105.392 161.042L105.775 167.029ZM96.2773 167.048L96.6353 161.059C94.9848 160.96 93.3667 161.547 92.1632 162.68C90.9597 163.814 90.2773 165.394 90.2773 167.048H96.2773ZM91.9443 181.889V187.889H91.9448L91.9443 181.889ZM76.8789 181.889L76.8785 187.889H76.8789V181.889ZM71.1523 176.188H65.1523V176.188L71.1523 176.188ZM72.835 172.16L68.602 167.908C68.5949 167.915 68.5877 167.922 68.5806 167.929L72.835 172.16ZM76.8789 170.486L78.087 164.609C77.6894 164.527 77.2845 164.486 76.8785 164.486L76.8789 170.486ZM87.3213 172.633L86.1132 178.51C87.8795 178.873 89.7153 178.422 91.1128 177.283C92.5103 176.144 93.3213 174.436 93.3213 172.633H87.3213ZM87.3213 165.991H93.3213C93.3213 163.08 91.2314 160.589 88.3645 160.083L87.3213 165.991ZM76.5469 163.295L78.4133 157.593C78.3903 157.585 78.3672 157.578 78.3441 157.57L76.5469 163.295ZM53.9707 150.393L58.1279 146.066C57.9759 145.92 57.8164 145.782 57.6499 145.653L53.9707 150.393ZM44.1045 106.386L49.6833 108.594C50.3165 106.994 50.2326 105.2 49.4528 103.666C48.673 102.133 47.2724 101.008 45.6068 100.577L44.1045 106.386ZM42.54 105.564L38.5839 110.075L38.5842 110.076L42.54 105.564ZM34.1943 98.2451L38.1505 93.7342L38.1502 93.7339L34.1943 98.2451ZM34.2188 93.0605L38.1345 97.6067L38.1351 97.6061L34.2188 93.0605ZM37.21 90.4834L41.1263 95.029C43.1207 93.3106 43.7621 90.4929 42.7078 88.0806L37.21 90.4834ZM40.709 69.3545L43.9946 64.334L43.9945 64.334L40.709 69.3545ZM50.0977 79.3838L45.2947 82.9799C46.2908 84.3102 47.7941 85.1679 49.4463 85.3483C51.0984 85.5288 52.7514 85.0158 54.0112 83.9318L50.0977 79.3838ZM51.0146 78.5947L54.9282 83.1427L54.9298 83.1413L51.0146 78.5947ZM56.3164 78.8027L52.0364 83.0077L52.0367 83.008L56.3164 78.8027ZM61.7197 84.3018L57.44 88.507C59.2718 90.3712 62.0995 90.8352 64.431 89.6542C66.7625 88.4732 68.0613 85.9189 67.642 83.3392L61.7197 84.3018ZM61.1406 78.1826L67.1386 78.0258L67.1385 78.0219L61.1406 78.1826ZM65.708 57.5537L71.0428 60.2997C71.7936 58.841 71.9144 57.1385 71.377 55.5884C70.8397 54.0384 69.691 52.7759 68.1984 52.095L65.708 57.5537ZM64.6387 52.2773H58.6387V52.2774L64.6387 52.2773ZM100.465 18.1113V24.1113C111.865 24.1113 119.178 30.327 123.917 37.4537C126.302 41.0392 127.941 44.7453 128.979 47.7193C129.495 49.1997 129.848 50.4566 130.064 51.3738C130.33 52.4975 130.291 52.6912 130.291 52.2773H136.291H142.291C142.291 51.1547 142.011 49.7491 141.743 48.6167C141.427 47.2779 140.956 45.6219 140.309 43.7664C139.019 40.0684 136.97 35.4101 133.909 30.8086C127.759 21.5611 117.158 12.1113 100.465 12.1113V18.1113ZM136.291 52.2773L130.291 52.2772C130.291 52.1061 130.32 52.0725 130.28 52.202C130.243 52.3255 130.169 52.5161 130.042 52.7612C129.772 53.2815 129.433 53.7274 129.282 53.8988L133.786 57.8633L138.29 61.8277C139.019 60.9996 139.933 59.755 140.695 58.2833C141.423 56.8789 142.291 54.7405 142.291 52.2775L136.291 52.2773ZM133.786 57.8633L128.434 60.5749C130.747 65.1417 132.151 70.4387 132.307 76.2682L138.305 76.1074L144.303 75.9466C144.099 68.3687 142.267 61.3261 139.138 55.1516L133.786 57.8633ZM138.305 76.1074L132.307 76.2646C132.35 77.906 132.292 79.521 132.139 81.106L138.111 81.6816L144.084 82.2573C144.283 80.1853 144.358 78.0808 144.303 75.9503L138.305 76.1074ZM138.111 81.6816L142.391 85.8869L147.963 80.216L143.684 76.0107L139.404 71.8055L133.832 77.4764L138.111 81.6816ZM143.684 76.0107L147.963 80.2163C147.513 80.6738 146.972 80.8562 146.523 80.8737C146.074 80.8912 145.536 80.7519 145.07 80.35L148.985 75.8037L152.901 71.2574C149.001 67.8985 143.044 68.1015 139.404 71.8052L143.684 76.0107ZM148.985 75.8037L145.07 80.3504L146.905 81.9304L150.82 77.3838L154.735 72.8371L152.9 71.2571L148.985 75.8037ZM150.82 77.3838L155.532 81.0983C158.177 77.7431 160.495 75.3353 161.962 74.3749L158.677 69.3545L155.391 64.334C152.136 66.4644 148.781 70.2785 146.108 73.6692L150.82 77.3838ZM158.677 69.3545L161.962 74.375C161.895 74.4188 161.289 74.7902 160.27 74.746C159.182 74.6989 158.393 74.2132 157.993 73.8455C157.484 73.3778 157.823 73.3788 158.153 74.958C158.739 77.7639 158.599 82.2573 157.378 86.1846L163.107 87.9658L168.837 89.747C170.611 84.0394 170.937 77.4728 169.899 72.5045C169.417 70.1967 168.422 67.1321 166.112 65.0092C164.811 63.8139 163.004 62.8532 160.789 62.7573C158.642 62.6643 156.799 63.413 155.391 64.334L158.677 69.3545ZM163.107 87.9658L159.192 92.5122L161.866 94.8149L165.781 90.2686L169.697 85.7222L167.023 83.4194L163.107 87.9658ZM165.781 90.2686L161.865 94.8146C161.35 94.3709 161.003 93.6648 161 92.8839C160.996 92.1029 161.337 91.392 161.85 90.9421L165.806 95.4531L169.762 99.9642C174.107 96.1534 174.072 89.4913 169.697 85.7225L165.781 90.2686ZM165.806 95.4531L161.85 90.9419L153.503 98.2613L157.459 102.772L161.415 107.284L169.762 99.9643L165.806 95.4531ZM157.459 102.772L153.503 98.261C153.592 98.1835 153.684 98.1151 153.777 98.0555L156.999 103.117L160.221 108.179C160.635 107.915 161.034 107.617 161.415 107.284L157.459 102.772ZM156.999 103.117L151.719 105.967C157.365 116.426 155.797 126.289 152.054 134.277C150.167 138.306 147.754 141.767 145.541 144.39C143.243 147.114 141.435 148.614 140.937 148.937L144.201 153.972L147.465 159.006C149.356 157.78 152.04 155.296 154.713 152.128C157.471 148.859 160.507 144.52 162.921 139.369C167.78 128.998 170.223 114.982 162.279 100.267L156.999 103.117ZM144.201 153.972L140.937 148.937C131.549 155.024 122.309 158.419 113.643 160.02L114.732 165.92L115.822 171.82C126.011 169.938 136.733 165.964 147.465 159.006L144.201 153.972ZM114.732 165.92H108.732V172.633H114.732H120.732V165.92H114.732ZM114.732 172.633L115.941 178.51L126.382 176.363L125.174 170.486L123.966 164.609L113.524 166.756L114.732 172.633ZM125.174 170.486V176.486C125.149 176.486 125.107 176.48 125.063 176.461C125.023 176.444 124.998 176.425 124.986 176.412L129.219 172.16L133.452 167.908C131.335 165.801 128.408 164.486 125.174 164.486V170.486ZM129.219 172.16L124.964 176.391C124.962 176.389 124.947 176.373 124.931 176.335C124.912 176.292 124.9 176.237 124.9 176.188H130.9H136.9C136.9 172.918 135.541 170.009 133.473 167.929L129.219 172.16ZM130.9 176.188L124.9 176.187C124.9 176.074 124.952 175.992 124.984 175.961C125.015 175.93 125.085 175.889 125.174 175.889V181.889V187.889C131.609 187.889 136.9 182.66 136.9 176.188L130.9 176.188ZM125.174 181.889V175.889H110.109V181.889V187.889H125.174V181.889ZM110.109 181.889V175.889C111.014 175.889 111.775 176.608 111.775 177.574H105.775H99.7754C99.7754 183.287 104.438 187.889 110.109 187.889V181.889ZM105.775 177.574H111.775V167.029H105.775H99.7754V177.574H105.775ZM105.775 167.029L105.392 161.042C102.383 161.234 99.4569 161.227 96.6353 161.059L96.2773 167.048L95.9194 173.037C99.2146 173.234 102.636 173.242 106.159 173.017L105.775 167.029ZM96.2773 167.048H90.2773V177.574H96.2773H102.277V167.048H96.2773ZM96.2773 177.574H90.2773C90.2773 176.609 91.0384 175.889 91.9438 175.889L91.9443 181.889L91.9448 187.889C97.6169 187.888 102.277 183.285 102.277 177.574H96.2773ZM91.9443 181.889V175.889H76.8789V181.889V187.889H91.9443V181.889ZM76.8789 181.889L76.8793 175.889C76.9682 175.889 77.0375 175.93 77.0687 175.961C77.1003 175.992 77.1523 176.074 77.1523 176.187L71.1523 176.188L65.1523 176.188C65.1525 182.66 70.4438 187.888 76.8785 187.889L76.8789 181.889ZM71.1523 176.188H77.1523C77.1523 176.238 77.1403 176.293 77.1217 176.337C77.1054 176.375 77.0905 176.39 77.0893 176.391L72.835 172.16L68.5806 167.929C66.5146 170.007 65.1523 172.915 65.1523 176.188H71.1523ZM72.835 172.16L77.0679 176.412C77.0559 176.424 77.0315 176.444 76.9912 176.461C76.9468 176.48 76.9042 176.486 76.8793 176.486L76.8789 170.486L76.8785 164.486C73.6434 164.487 70.7176 165.802 68.602 167.908L72.835 172.16ZM76.8789 170.486L75.6708 176.363L86.1132 178.51L87.3213 172.633L88.5294 166.756L78.087 164.609L76.8789 170.486ZM87.3213 172.633H93.3213V165.991H87.3213H81.3213V172.633H87.3213ZM87.3213 165.991L88.3645 160.083C84.7816 159.45 81.4453 158.585 78.4133 157.593L76.5469 163.295L74.6804 168.997C78.2233 170.157 82.1095 171.164 86.2781 171.9L87.3213 165.991ZM76.5469 163.295L78.3441 157.57C70.2054 155.015 63.3076 151.043 58.1279 146.066L53.9707 150.393L49.8135 154.719C56.5149 161.158 65.1056 165.992 74.7497 169.019L76.5469 163.295ZM53.9707 150.393L57.6499 145.653C54.6066 143.291 50.8759 138.186 48.8094 131.336C46.7849 124.625 46.49 116.661 49.6833 108.594L44.1045 106.386L38.5257 104.177C34.1965 115.114 34.6327 125.891 37.3208 134.802C39.967 143.573 44.9307 150.971 50.2915 155.132L53.9707 150.393ZM44.1045 106.386L45.6068 100.577C45.891 100.65 46.2068 100.8 46.4959 101.053L42.54 105.564L38.5842 110.076C39.7922 111.135 41.1855 111.828 42.6022 112.195L44.1045 106.386ZM42.54 105.564L46.4962 101.054L38.1505 93.7342L34.1943 98.2451L30.2382 102.756L38.5839 110.075L42.54 105.564ZM34.1943 98.2451L38.1502 93.7339C38.6632 94.1838 39.0038 94.8947 39.0001 95.6759C38.9964 96.457 38.6495 97.1631 38.1345 97.6067L34.2188 93.0605L30.303 88.5144C25.9275 92.2832 25.8926 98.9455 30.2385 102.756L34.1943 98.2451ZM34.2188 93.0605L38.1351 97.6061L41.1263 95.029L37.21 90.4834L33.2936 85.9378L30.3024 88.515L34.2188 93.0605ZM37.21 90.4834L42.7078 88.0806C41.0634 84.318 40.5729 79.2315 41.0999 75.7057C41.3876 73.781 41.822 73.3864 41.5521 73.6857C41.2958 73.9699 40.5719 74.591 39.3782 74.7256C38.2168 74.8566 37.5007 74.4256 37.4235 74.375L40.709 69.3545L43.9945 64.334C42.4563 63.3274 40.4017 62.534 38.033 62.8012C35.632 63.0721 33.8322 64.3277 32.6401 65.6498C30.4987 68.0246 29.6224 71.3182 29.2318 73.9316C28.4021 79.4822 29.0838 86.8723 31.7121 92.8862L37.21 90.4834ZM40.709 69.3545L37.4234 74.3749C39.2529 75.5722 42.1907 78.8341 45.2947 82.9799L50.0977 79.3838L54.9006 75.7877C51.8719 71.7426 47.811 66.8317 43.9946 64.334L40.709 69.3545ZM50.0977 79.3838L54.0112 83.9318L54.9282 83.1427L51.0146 78.5947L47.1011 74.0467L46.1841 74.8358L50.0977 79.3838ZM51.0146 78.5947L54.9298 83.1413C54.4629 83.5434 53.9253 83.6827 53.4761 83.6651C53.0268 83.6475 52.4857 83.465 52.0364 83.0077L56.3164 78.8027L60.5964 74.5977C56.9577 70.8942 51.0008 70.6887 47.0995 74.0481L51.0146 78.5947ZM56.3164 78.8027L52.0367 83.008L57.44 88.507L61.7197 84.3018L65.9994 80.0965L60.5961 74.5975L56.3164 78.8027ZM61.7197 84.3018L67.642 83.3392C67.3595 81.6009 67.1857 79.8268 67.1386 78.0258L61.1406 78.1826L55.1427 78.3394C55.2045 80.7063 55.4325 83.0191 55.7974 85.2643L61.7197 84.3018ZM61.1406 78.1826L67.1385 78.0219C66.9614 71.4136 68.417 65.4009 71.0428 60.2997L65.708 57.5537L60.3733 54.8077C56.8068 61.7364 54.9126 69.753 55.1428 78.3433L61.1406 78.1826ZM65.708 57.5537L68.1984 52.095C68.6164 52.2857 69.0397 52.5533 69.4301 52.9072C69.8171 53.2581 70.1 53.6287 70.3003 53.9622C70.4945 54.2857 70.6015 54.5584 70.6572 54.7245C70.7124 54.889 70.7304 54.9884 70.7304 54.9886C70.7308 54.9908 70.7208 54.9361 70.7079 54.8042C70.6951 54.6742 70.6821 54.4961 70.6711 54.2566C70.6485 53.7678 70.6387 53.1313 70.6387 52.2773L64.6387 52.2773L58.6387 52.2774C58.6387 53.953 58.6613 55.7213 58.932 57.1793C59.2175 58.7166 60.0974 61.589 63.2176 63.0124L65.708 57.5537ZM64.6387 52.2773H70.6387C70.6387 52.3223 70.6377 52.1999 70.6813 51.868C70.7218 51.5593 70.7908 51.1458 70.8979 50.6355C71.1122 49.6144 71.4589 48.3012 71.9681 46.7995C72.9907 43.7835 74.6089 40.1822 76.9627 36.7543C81.6028 29.9968 88.892 24.1113 100.465 24.1113V18.1113V12.1113C83.9436 12.1113 73.3197 20.8604 67.0703 29.9616C63.9793 34.463 61.9086 39.0971 60.6035 42.9463C59.3571 46.6225 58.6387 50.0923 58.6387 52.2773H64.6387Z" fill="white" mask="url(#path-1-outside-1_1347_15007)"/>
<path d="M40.7091 69.355C45.6148 72.5655 52.5694 82.5319 55.7288 87.5705C55.9286 87.8892 56.0266 88.2608 55.9952 88.6356C55.6104 93.2287 53.3052 99.1871 51.7364 102.612C51.3737 103.404 50.4922 103.811 49.6931 103.464C46.9305 102.266 42.2914 99.1227 38.4277 92.8318C32.6397 83.4077 34.3715 65.2074 40.7091 69.355Z" fill="#D7E8FC"/>
<path d="M158.678 69.355C153.772 72.5655 146.817 82.5319 143.658 87.5705C143.458 87.8892 143.36 88.2608 143.391 88.6356C143.776 93.2287 146.081 99.1871 147.65 102.612C148.013 103.404 148.895 103.811 149.694 103.464C152.456 102.266 157.095 99.1227 160.959 92.8318C166.747 83.4077 165.015 65.2074 158.678 69.355Z" fill="#D7E8FC"/>
<path d="M96.2773 130.36V177.574C96.2773 179.947 94.3272 181.889 91.9437 181.889H76.879C73.7319 181.889 71.1523 179.321 71.1523 176.188C71.1523 174.616 71.8024 173.198 72.8342 172.161C73.8764 171.123 75.3003 170.486 76.879 170.486L87.3211 172.633V130.37C87.3211 127.997 89.2712 126.056 91.6548 126.056H91.9437C94.3272 126.056 96.2773 127.997 96.2773 130.37V130.36Z" fill="#474747"/>
<path d="M105.775 130.36V177.574C105.775 179.947 107.726 181.889 110.109 181.889H125.174C128.321 181.889 130.9 179.321 130.9 176.188C130.9 174.616 130.25 173.198 129.219 172.161C128.176 171.123 126.752 170.486 125.174 170.486L114.732 172.633V130.37C114.732 127.997 112.781 126.056 110.398 126.056H110.109C107.726 126.056 105.775 127.997 105.775 130.37V130.36Z" fill="#474747"/>
<path d="M56.3165 78.8032L62.7115 85.3122C64.0353 86.6596 64.0413 88.7346 62.7254 90.0887L47.881 105.364C46.4704 106.815 44.0699 106.906 42.5405 105.564L34.1941 98.2454C32.5922 96.8407 32.6036 94.4516 34.2189 93.0605L51.0146 78.5952C52.5412 77.2806 54.9119 77.3735 56.3165 78.8032Z" fill="#F04116"/>
<path d="M143.684 76.0112L137.288 82.5203C135.965 83.8676 135.959 85.9427 137.275 87.2968L152.119 102.572C153.53 104.023 155.93 104.114 157.459 102.772L165.806 95.4534C167.408 94.0487 167.396 91.6596 165.781 90.2685L148.985 75.8033C147.459 74.4886 145.088 74.5815 143.684 76.0112Z" fill="#F04116"/>
<path d="M160.471 119.404C161.198 146.414 135.036 165.822 102.155 166.708C69.267 167.593 42.1156 149.613 41.3895 122.61C40.9868 107.459 49.0074 93.6962 61.9395 84.369C77.8707 88.4258 115.367 93.6955 137.901 82.3198C142.74 85.4267 146.972 89.1483 150.424 93.3393C156.544 100.776 160.214 109.713 160.471 119.404Z" fill="#F04116"/>
<path d="M98.6437 36.737C119.953 36.1619 137.684 52.9582 138.305 76.1075C138.366 78.4445 138.254 80.7417 137.969 82.9885C115.018 93.487 78.8835 88.8197 61.7932 84.7478C61.4254 82.6157 61.2002 80.4226 61.1416 78.1831C60.5213 55.0338 77.3347 37.3121 98.6437 36.737Z" fill="#4B9AE8"/>
<path d="M107.656 72.5881C107.48 76.2688 102.922 81.769 99.1827 81.6004C95.4435 81.4318 91.4282 75.5292 91.6039 71.8485C91.7796 68.1679 94.3655 65.2976 99.9477 65.5528C105.53 65.808 107.831 68.9075 107.656 72.5881Z" fill="#EAC00F"/>
<path d="M64.6387 52.2776C64.6387 56.1953 64.8317 57.4023 66.0345 57.6601C71.1526 50.2156 79.0723 41.7101 101.238 41.7101C118.971 41.7101 130.277 52.5353 133.714 57.9479C134.573 57.0029 136.291 54.5457 136.291 52.2776C136.291 49.4424 128.559 18.1113 100.465 18.1113C72.371 18.1113 64.6387 47.3804 64.6387 52.2776Z" fill="#F04116"/>
<circle cx="100.466" cy="36.2569" r="11.6319" fill="white"/>
<path d="M101.226 48.3647C89.4596 48.3647 83.6288 50.6232 82.8408 50.6232C82.0529 50.6232 64.0021 57.803 70.8308 51.0276C77.6595 44.2522 85.1105 39.979 100.387 39.979C116.749 39.979 123.654 47.11 128.381 50.6232C132.163 53.4337 130.538 54.617 129.312 54.8679C125.46 53.0277 112.992 48.3647 101.226 48.3647Z" fill="#B73110"/>
<path d="M113.494 88.8334C126.056 87.9029 134.431 84.1807 137.688 82.7848C183.285 114.889 150.251 150.051 144.202 153.972C101.862 181.423 60.9176 158.625 56.73 152.111C44.6326 146.527 26.9519 111.167 61.3825 84.6459L88.8338 88.8334L90.9064 96.7148C91.31 98.2498 92.6402 99.3621 94.225 99.4492C98.8984 99.706 105.106 99.8598 108.12 99.7181C109.18 99.6683 110.004 98.9751 110.358 97.9758C111.242 95.4844 112.662 91.1316 113.494 88.8334Z" fill="#0062AD"/>
<path d="M79.5284 72.0837C83.6399 72.0837 86.9729 68.7507 86.9729 64.6393C86.9729 60.5278 83.6399 57.1948 79.5284 57.1948C75.417 57.1948 72.084 60.5278 72.084 64.6393C72.084 68.7507 75.417 72.0837 79.5284 72.0837Z" fill="white"/>
<path d="M79.4123 69.1562C81.8772 69.1562 83.8754 67.158 83.8754 64.6931C83.8754 62.2282 81.8772 60.23 79.4123 60.23C76.9474 60.23 74.9492 62.2282 74.9492 64.6931C74.9492 67.158 76.9474 69.1562 79.4123 69.1562Z" fill="black"/>
<path d="M119.542 72.0837C123.654 72.0837 126.987 68.7507 126.987 64.6393C126.987 60.5278 123.654 57.1948 119.542 57.1948C115.431 57.1948 112.098 60.5278 112.098 64.6393C112.098 68.7507 115.431 72.0837 119.542 72.0837Z" fill="white"/>
<path d="M119.426 69.1562C121.891 69.1562 123.889 67.158 123.889 64.6931C123.889 62.2282 121.891 60.23 119.426 60.23C116.961 60.23 114.963 62.2282 114.963 64.6931C114.963 67.158 116.961 69.1562 119.426 69.1562Z" fill="black"/>
<circle cx="77.5139" cy="106.514" r="6.51389" fill="#FADD1D"/>
<circle cx="124.514" cy="106.514" r="6.51389" fill="#FADD1D"/>
<path d="M93.4863 36.7224L97.1052 30.2085L100.362 33.9797L103.619 30.2085L106.514 36.7224" stroke="#F04116" stroke-width="2.79167" stroke-linecap="round" stroke-linejoin="round"/>
</svg>
