<svg width="200" height="200" viewBox="0 0 200 200" fill="none" xmlns="http://www.w3.org/2000/svg">
<mask id="path-1-outside-1_774_10239" maskUnits="userSpaceOnUse" x="15.5046" y="31.9998" width="168" height="143" fill="black">
<rect fill="white" x="15.5046" y="31.9998" width="168" height="143"/>
<path d="M90.1072 39.5418C108.711 36.207 126.483 48.5425 130.1 68.7156C130.481 70.8403 130.686 72.9547 130.724 75.0379C133.467 75.1005 153.37 66.3868 156.507 67.0301C157.624 67.2575 158.767 68.0804 159.879 69.2459C162.674 67.7458 165.447 66.3669 168.087 65.2137C179.701 60.1403 179.749 72.2564 167.511 82.369C168.577 85.3926 168.129 87.6609 163.799 91.201C159.4 94.7944 153.495 95.9923 153.86 97.5203C154.017 98.1807 155.882 104.168 156.007 104.842C159.21 122.635 148.279 138.657 130.292 147.603L132.998 157.31L138.814 154.316C139.747 154.056 140.694 154.2 141.481 154.644C142.263 155.09 142.881 155.825 143.141 156.758C143.66 158.617 142.56 160.567 140.7 161.086L131.798 163.566C130.389 163.959 128.915 163.127 128.522 161.719L125.219 149.865C120.841 151.6 116.13 152.945 111.17 153.832C105.076 154.921 99.0953 155.232 93.4138 154.826V165.746C93.4138 167.208 92.2178 168.405 90.7556 168.405H81.5134C79.5827 168.405 77.9998 166.822 77.9998 164.891C77.9998 163.923 78.399 163.049 79.032 162.41C79.6713 161.771 80.545 161.379 81.5134 161.379L87.9197 162.701V154.198C69.4356 151.246 55.0753 140.269 52.0417 123.421C51.9543 122.957 51.3104 119.947 50.9998 118.5L48.5193 119.245L44.4294 120.454C41.7946 121.075 39.1142 119.597 38.2546 117.045C37.9512 116.148 37.5521 115.053 37.1394 113.828C22.6593 111.41 17.085 101.786 28.9314 100.165C31.0913 99.8693 33.3884 99.647 35.7537 99.4832C36.1366 98.4043 36.703 97.3968 37.4998 96.4998C39.6963 94.0257 64.729 90.2836 65.4998 89.4998C65.4998 89.4998 65.5029 89.5055 65.5085 89.5164C64.7461 87.3774 63.1185 82.9058 62.74 80.7869C59.1229 60.6137 71.5035 42.8769 90.1072 39.5418Z"/>
</mask>
<path d="M90.1072 39.5418C108.711 36.207 126.483 48.5425 130.1 68.7156C130.481 70.8403 130.686 72.9547 130.724 75.0379C133.467 75.1005 153.37 66.3868 156.507 67.0301C157.624 67.2575 158.767 68.0804 159.879 69.2459C162.674 67.7458 165.447 66.3669 168.087 65.2137C179.701 60.1403 179.749 72.2564 167.511 82.369C168.577 85.3926 168.129 87.6609 163.799 91.201C159.4 94.7944 153.495 95.9923 153.86 97.5203C154.017 98.1807 155.882 104.168 156.007 104.842C159.21 122.635 148.279 138.657 130.292 147.603L132.998 157.31L138.814 154.316C139.747 154.056 140.694 154.2 141.481 154.644C142.263 155.09 142.881 155.825 143.141 156.758C143.66 158.617 142.56 160.567 140.7 161.086L131.798 163.566C130.389 163.959 128.915 163.127 128.522 161.719L125.219 149.865C120.841 151.6 116.13 152.945 111.17 153.832C105.076 154.921 99.0953 155.232 93.4138 154.826V165.746C93.4138 167.208 92.2178 168.405 90.7556 168.405H81.5134C79.5827 168.405 77.9998 166.822 77.9998 164.891C77.9998 163.923 78.399 163.049 79.032 162.41C79.6713 161.771 80.545 161.379 81.5134 161.379L87.9197 162.701V154.198C69.4356 151.246 55.0753 140.269 52.0417 123.421C51.9543 122.957 51.3104 119.947 50.9998 118.5L48.5193 119.245L44.4294 120.454C41.7946 121.075 39.1142 119.597 38.2546 117.045C37.9512 116.148 37.5521 115.053 37.1394 113.828C22.6593 111.41 17.085 101.786 28.9314 100.165C31.0913 99.8693 33.3884 99.647 35.7537 99.4832C36.1366 98.4043 36.703 97.3968 37.4998 96.4998C39.6963 94.0257 64.729 90.2836 65.4998 89.4998C65.4998 89.4998 65.5029 89.5055 65.5085 89.5164C64.7461 87.3774 63.1185 82.9058 62.74 80.7869C59.1229 60.6137 71.5035 42.8769 90.1072 39.5418Z" fill="#F25E5E"/>
<path d="M90.1072 39.5418L89.0485 33.6359L89.0484 33.636L90.1072 39.5418ZM130.1 68.7156L136.006 67.6578L136.006 67.6566L130.1 68.7156ZM130.724 75.0379L124.725 75.1485C124.785 78.3653 127.371 80.9629 130.587 81.0363L130.724 75.0379ZM156.507 67.0301L155.301 72.9078L155.31 72.9096L156.507 67.0301ZM159.879 69.2459L155.537 73.3869C157.4 75.3401 160.337 75.8091 162.716 74.5328L159.879 69.2459ZM168.087 65.2137L165.685 59.7154L165.685 59.7154L168.087 65.2137ZM167.511 82.369L163.689 77.7438C161.75 79.3468 161.016 81.9899 161.853 84.3633L167.511 82.369ZM163.799 91.201L167.595 95.8476L167.596 95.8465L163.799 91.201ZM153.86 97.5203L159.697 96.1303L159.696 96.1275L153.86 97.5203ZM156.007 104.842L161.912 103.778C161.91 103.77 161.909 103.762 161.907 103.753L156.007 104.842ZM130.292 147.603L127.62 142.231C125.043 143.512 123.739 146.443 124.512 149.215L130.292 147.603ZM132.998 157.31L127.218 158.922C127.703 160.659 128.943 162.087 130.596 162.809C132.25 163.531 134.14 163.471 135.744 162.645L132.998 157.31ZM138.814 154.316L137.204 148.536C136.811 148.646 136.431 148.795 136.068 148.982L138.814 154.316ZM141.481 154.644L144.455 149.433C144.446 149.428 144.438 149.423 144.429 149.419L141.481 154.644ZM143.141 156.758L148.921 155.147L148.921 155.147L143.141 156.758ZM140.7 161.086L142.31 166.866L142.311 166.866L140.7 161.086ZM131.798 163.566L130.187 157.786L130.187 157.786L131.798 163.566ZM128.522 161.719L134.302 160.108L134.302 160.108L128.522 161.719ZM125.219 149.865L130.998 148.254C130.541 146.615 129.41 145.247 127.887 144.491C126.363 143.734 124.589 143.66 123.008 144.287L125.219 149.865ZM111.17 153.832L112.226 159.738L112.226 159.738L111.17 153.832ZM93.4138 154.826L93.8414 148.841C92.18 148.723 90.5441 149.3 89.3251 150.435C88.1062 151.57 87.4138 153.16 87.4138 154.826H93.4138ZM90.7556 168.405L90.7556 174.405L90.7559 174.405L90.7556 168.405ZM77.9998 164.891L71.9998 164.891V164.891H77.9998ZM79.032 162.41L74.7897 158.167C74.7826 158.174 74.7754 158.181 74.7683 158.188L79.032 162.41ZM81.5134 161.379L82.7263 155.503C82.3272 155.42 81.9209 155.379 81.5134 155.379V161.379ZM87.9197 162.701L86.7068 168.577C88.4736 168.942 90.3107 168.492 91.7093 167.353C93.108 166.213 93.9197 164.505 93.9197 162.701H87.9197ZM87.9197 154.198H93.9197C93.9197 151.25 91.7774 148.738 88.8659 148.273L87.9197 154.198ZM52.0417 123.421L57.9468 122.357C57.9439 122.341 57.9409 122.325 57.9379 122.309L52.0417 123.421ZM50.9998 118.5L56.866 117.24C56.5144 115.603 55.4942 114.186 54.0523 113.334C52.6103 112.482 50.8777 112.272 49.2736 112.753L50.9998 118.5ZM48.5193 119.245L50.2202 124.999C50.2286 124.996 50.237 124.994 50.2454 124.991L48.5193 119.245ZM44.4294 120.454L45.8066 126.294C45.9153 126.268 46.0232 126.239 46.1303 126.208L44.4294 120.454ZM38.2546 117.045L43.9409 115.13L43.9378 115.121L38.2546 117.045ZM37.1394 113.828L42.8254 111.912C42.1182 109.813 40.3123 108.275 38.1277 107.91L37.1394 113.828ZM28.9314 100.165L28.118 94.2203L28.1179 94.2203L28.9314 100.165ZM35.7537 99.4832L36.1682 105.469C38.551 105.304 40.609 103.741 41.408 101.49L35.7537 99.4832ZM37.4998 96.4998L41.9856 100.484L41.9866 100.483L37.4998 96.4998ZM65.4998 89.4998L70.7319 86.563C69.8083 84.9175 68.1644 83.8024 66.294 83.5526C64.4236 83.3028 62.5447 83.9475 61.2217 85.2929L65.4998 89.4998ZM65.5085 89.5164L60.1697 92.2544C61.612 95.0668 64.9888 96.2781 67.8899 95.0236C70.791 93.7691 72.2214 90.4792 71.1603 87.502L65.5085 89.5164ZM62.74 80.7869L68.6465 79.7317L68.6458 79.728L62.74 80.7869ZM90.1072 39.5418L91.1658 45.4477C106.341 42.7275 121.132 52.6937 124.195 69.7747L130.1 68.7156L136.006 67.6566C131.834 44.3913 111.08 29.6866 89.0485 33.6359L90.1072 39.5418ZM130.1 68.7156L124.194 69.7734C124.519 71.5863 124.693 73.384 124.725 75.1485L130.724 75.0379L136.723 74.9274C136.679 72.5253 136.443 70.0942 136.006 67.6578L130.1 68.7156ZM130.724 75.0379L130.587 81.0363C131.978 81.0681 133.444 80.652 134.131 80.4568C135.109 80.179 136.25 79.8025 137.435 79.3913C139.8 78.571 142.74 77.4719 145.53 76.4507C148.39 75.4037 151.125 74.4263 153.31 73.7517C154.41 73.4123 155.25 73.1874 155.831 73.0666C156.731 72.8796 156.262 73.1047 155.301 72.9078L156.507 67.0301L157.712 61.1524C155.967 60.7946 154.19 61.1514 153.39 61.3175C152.272 61.5499 151.021 61.8997 149.77 62.2857C147.256 63.0621 144.255 64.1386 141.405 65.1818C138.484 66.2508 135.739 67.2782 133.502 68.054C132.387 68.4408 131.499 68.7298 130.85 68.914C129.912 69.1808 130.157 69.0234 130.861 69.0395L130.724 75.0379ZM156.507 67.0301L155.31 72.9096C155.093 72.8655 154.947 72.8073 154.877 72.7756C154.808 72.7445 154.797 72.732 154.845 72.7639C154.892 72.7953 154.977 72.8581 155.1 72.9651C155.222 73.0715 155.368 73.2102 155.537 73.3869L159.879 69.2459L164.221 65.1049C162.839 63.6562 160.64 61.7482 157.703 61.1506L156.507 67.0301ZM159.879 69.2459L162.716 74.5328C165.412 73.086 168.035 71.7837 170.489 70.712L168.087 65.2137L165.685 59.7154C162.858 60.9501 159.936 62.4056 157.042 63.959L159.879 69.2459ZM168.087 65.2137L170.488 70.712C172.883 69.6658 173.183 70.2213 172.383 69.9002C171.839 69.6819 171.309 69.2336 170.988 68.6551C170.711 68.1557 170.747 67.8486 170.744 67.9886C170.738 68.3564 170.505 69.5974 169.296 71.5499C168.146 73.4076 166.309 75.5792 163.689 77.7438L167.511 82.369L171.333 86.9941C174.833 84.1025 177.579 80.9673 179.498 77.8676C181.359 74.8628 182.683 71.4957 182.742 68.2046C182.806 64.6997 181.284 60.5416 176.852 58.7634C173.159 57.2814 169.097 58.2248 165.685 59.7154L168.087 65.2137ZM167.511 82.369L161.853 84.3633C162.004 84.793 162.003 84.9245 162 84.8742C161.994 84.7701 162.014 84.6091 162.06 84.4854C162.092 84.401 162.064 84.532 161.755 84.9012C161.437 85.2811 160.897 85.823 160.001 86.5555L163.799 91.201L167.596 95.8465C170.035 93.8527 172.217 91.5773 173.297 88.6972C174.495 85.5002 173.962 82.6206 173.17 80.3746L167.511 82.369ZM163.799 91.201L160.003 86.5544C158.464 87.8113 156.571 88.7181 154.471 89.7144C153.617 90.1195 152.317 90.7265 151.296 91.4121C150.79 91.7518 149.894 92.4041 149.148 93.4308C148.295 94.6043 147.463 96.5606 148.024 98.9131L153.86 97.5203L159.696 96.1275C160.166 98.0981 159.438 99.6826 158.856 100.484C158.593 100.847 158.347 101.079 158.218 101.191C158.083 101.309 157.993 101.37 157.985 101.375C157.984 101.375 158.098 101.302 158.423 101.136C158.734 100.976 159.113 100.794 159.615 100.556C161.476 99.6729 164.734 98.1841 167.595 95.8476L163.799 91.201ZM153.86 97.5203L148.023 98.9104C148.113 99.2882 148.328 100.007 148.496 100.568C148.697 101.24 148.954 102.088 149.201 102.908C149.452 103.74 149.695 104.55 149.882 105.19C149.976 105.511 150.049 105.768 150.1 105.954C150.178 106.236 150.146 106.147 150.106 105.93L156.007 104.842L161.907 103.753C161.836 103.368 161.718 102.944 161.67 102.768C161.594 102.494 161.501 102.168 161.4 101.823C161.197 101.13 160.941 100.276 160.69 99.4445C160.436 98.6009 160.189 97.7854 159.993 97.1281C159.763 96.3602 159.686 96.0826 159.697 96.1303L153.86 97.5203ZM156.007 104.842L150.102 105.905C152.68 120.225 144.091 134.039 127.62 142.231L130.292 147.603L132.964 152.976C152.468 143.275 165.74 125.045 161.912 103.778L156.007 104.842ZM130.292 147.603L124.512 149.215L127.218 158.922L132.998 157.31L138.777 155.699L136.071 145.992L130.292 147.603ZM132.998 157.31L135.744 162.645L141.56 159.651L138.814 154.316L136.068 148.982L130.252 151.976L132.998 157.31ZM138.814 154.316L140.424 160.096C139.751 160.284 139.064 160.17 138.533 159.87L141.481 154.644L144.429 149.419C142.324 148.231 139.743 147.829 137.204 148.536L138.814 154.316ZM141.481 154.644L138.507 159.855C138.014 159.574 137.556 159.064 137.362 158.369L143.141 156.758L148.921 155.147C148.207 152.585 146.511 150.607 144.455 149.433L141.481 154.644ZM143.141 156.758L137.362 158.368C136.99 157.037 137.757 155.677 139.089 155.306L140.7 161.086L142.311 166.866C147.363 165.458 150.329 160.198 148.921 155.147L143.141 156.758ZM140.7 161.086L139.09 155.306L130.187 157.786L131.798 163.566L133.408 169.346L142.31 166.866L140.7 161.086ZM131.798 163.566L130.187 157.786C131.97 157.289 133.805 158.324 134.302 160.108L128.522 161.719L122.742 163.329C124.025 167.93 128.808 170.628 133.408 169.346L131.798 163.566ZM128.522 161.719L134.302 160.108L130.998 148.254L125.219 149.865L119.439 151.476L122.743 163.329L128.522 161.719ZM125.219 149.865L123.008 144.287C119.012 145.871 114.689 147.107 110.114 147.926L111.17 153.832L112.226 159.738C117.571 158.782 122.669 157.33 127.429 155.443L125.219 149.865ZM111.17 153.832L110.114 147.926C104.492 148.931 99.0102 149.211 93.8414 148.841L93.4138 154.826L92.9862 160.811C99.1804 161.253 105.659 160.912 112.226 159.738L111.17 153.832ZM93.4138 154.826H87.4138V165.746H93.4138H99.4138V154.826H93.4138ZM93.4138 165.746H87.4138C87.4138 163.897 88.9015 162.405 90.7553 162.405L90.7556 168.405L90.7559 174.405C95.5342 174.405 99.4138 170.519 99.4138 165.746H93.4138ZM90.7556 168.405V162.405H81.5134V168.405V174.405H90.7556V168.405ZM81.5134 168.405V162.405C82.8964 162.405 83.9998 163.508 83.9998 164.891H77.9998H71.9998C71.9998 170.136 76.269 174.405 81.5134 174.405V168.405ZM77.9998 164.891L83.9998 164.892C83.9997 165.615 83.6946 166.229 83.2957 166.631L79.032 162.41L74.7683 158.188C73.1034 159.87 72 162.231 71.9998 164.891L77.9998 164.891ZM79.032 162.41L83.2742 166.653C82.8413 167.086 82.2094 167.379 81.5134 167.379V161.379V155.379C78.8807 155.379 76.5014 156.456 74.7897 158.167L79.032 162.41ZM81.5134 161.379L80.3006 167.255L86.7068 168.577L87.9197 162.701L89.1325 156.825L82.7263 155.503L81.5134 161.379ZM87.9197 162.701H93.9197V154.198H87.9197H81.9197V162.701H87.9197ZM87.9197 154.198L88.8659 148.273C72.0599 145.589 60.3942 135.95 57.9468 122.357L52.0417 123.421L46.1367 124.484C49.7564 144.587 66.8112 156.903 86.9735 160.123L87.9197 154.198ZM52.0417 123.421L57.9379 122.309C57.8321 121.748 57.1622 118.62 56.866 117.24L50.9998 118.5L45.1335 119.759C45.2883 120.481 45.526 121.591 45.7356 122.576C45.8405 123.07 45.9375 123.528 46.0132 123.89C46.0511 124.071 46.0828 124.223 46.1071 124.342C46.1192 124.401 46.1288 124.448 46.136 124.484C46.1439 124.523 46.1464 124.536 46.1456 124.532L52.0417 123.421ZM50.9998 118.5L49.2736 112.753L46.7931 113.499L48.5193 119.245L50.2454 124.991L52.7259 124.246L50.9998 118.5ZM48.5193 119.245L46.8184 113.491L42.7286 114.7L44.4294 120.454L46.1303 126.208L50.2202 124.999L48.5193 119.245ZM44.4294 120.454L43.0523 114.614C43.4016 114.532 43.802 114.717 43.9409 115.13L38.2546 117.045L32.5684 118.96C34.4264 124.477 40.1877 127.619 45.8066 126.294L44.4294 120.454ZM38.2546 117.045L43.9378 115.121C43.7724 114.632 43.5824 114.094 43.3991 113.572C43.2106 113.035 43.0186 112.486 42.8254 111.912L37.1394 113.828L31.4534 115.744C31.6729 116.395 31.8868 117.006 32.0769 117.548C32.2721 118.103 32.4334 118.561 32.5715 118.969L38.2546 117.045ZM37.1394 113.828L38.1277 107.91C35.0631 107.398 32.6346 106.53 30.9086 105.608C29.0812 104.632 28.4262 103.81 28.3264 103.642C28.3019 103.6 28.502 103.917 28.5045 104.539C28.5073 105.242 28.2521 105.899 27.8991 106.349C27.3767 107.014 27.337 106.439 29.7448 106.109L28.9314 100.165L28.1179 94.2203C24.6026 94.7013 20.8173 95.9369 18.4607 98.9382C15.6204 102.556 16.2383 106.778 17.9995 109.753C19.6226 112.496 22.3358 114.634 25.2559 116.194C28.2774 117.807 31.9757 119.049 36.1511 119.746L37.1394 113.828ZM28.9314 100.165L29.7448 106.109C31.7441 105.836 33.9046 105.626 36.1682 105.469L35.7537 99.4832L35.3392 93.4976C32.8723 93.6684 30.4385 93.9027 28.118 94.2203L28.9314 100.165ZM35.7537 99.4832L41.408 101.49C41.5563 101.073 41.7472 100.753 41.9856 100.484L37.4998 96.4998L33.014 92.5151C31.6587 94.0408 30.717 95.7359 30.0993 97.4762L35.7537 99.4832ZM37.4998 96.4998L41.9866 100.483C41.6679 100.842 41.3837 101.058 41.2528 101.151C41.1093 101.253 41.0162 101.303 41.0084 101.307C41.0019 101.311 41.1231 101.247 41.4336 101.129C42.0506 100.895 42.986 100.604 44.2382 100.27C46.7199 99.6088 49.9295 98.9142 53.2256 98.2465C56.6638 97.5501 59.5772 97.0033 62.2893 96.459C63.54 96.2079 64.6822 95.9695 65.5596 95.7599C65.9862 95.658 66.4548 95.5384 66.8807 95.4046C67.0858 95.3401 67.3943 95.2375 67.7298 95.0931C67.8251 95.0521 68.8557 94.6445 69.7778 93.7067L65.4998 89.4998L61.2217 85.2929C61.7504 84.7553 62.2542 84.4532 62.4483 84.3412C62.6909 84.2013 62.887 84.1131 62.9859 84.0706C63.0953 84.0235 63.177 83.9934 63.2162 83.9794C63.2586 83.9642 63.283 83.9566 63.2842 83.9562C63.2864 83.9555 63.2759 83.9588 63.2502 83.9662C63.225 83.9734 63.1899 83.9831 63.1437 83.9953C63.0501 84.0202 62.9272 84.0511 62.7713 84.0884C62.1236 84.2431 61.1665 84.445 59.9277 84.6936C57.6607 85.1487 54.0342 85.8391 50.8433 86.4854C47.5103 87.1605 44.0017 87.9143 41.1479 88.6749C39.7323 89.0522 38.3457 89.4655 37.1702 89.9123C36.5846 90.1349 35.9419 90.4067 35.3271 90.7372C34.8091 91.0155 33.8495 91.574 33.0129 92.5163L37.4998 96.4998ZM65.4998 89.4998C60.2676 92.4366 60.2675 92.4364 60.2674 92.4363C60.2674 92.4362 60.2673 92.436 60.2672 92.4359C60.2671 92.4357 60.2669 92.4354 60.2668 92.4352C60.2665 92.4347 60.2663 92.4342 60.266 92.4337C60.2655 92.4328 60.2649 92.4318 60.2644 92.4308C60.2633 92.4289 60.2622 92.427 60.2611 92.425C60.259 92.4212 60.2568 92.4173 60.2547 92.4135C60.2504 92.4058 60.2462 92.3981 60.242 92.3905C60.2336 92.3752 60.2253 92.36 60.2172 92.3448C60.2009 92.3145 60.1851 92.2844 60.1697 92.2544L65.5085 89.5164L70.8474 86.7784C70.8264 86.7375 70.8062 86.6991 70.7869 86.6632C70.7773 86.6453 70.7679 86.6279 70.7587 86.6113C70.7541 86.6029 70.7496 86.5947 70.7451 86.5867C70.7429 86.5827 70.7406 86.5787 70.7384 86.5747C70.7373 86.5728 70.7362 86.5708 70.7352 86.5688C70.7346 86.5679 70.7341 86.5669 70.7335 86.5659C70.7332 86.5654 70.733 86.565 70.7327 86.5645C70.7326 86.5642 70.7324 86.564 70.7323 86.5637C70.7322 86.5636 70.7321 86.5634 70.7321 86.5634C70.732 86.5632 70.7319 86.563 65.4998 89.4998ZM65.5085 89.5164L71.1603 87.502C70.7669 86.3982 70.1973 84.8228 69.673 83.2484C69.1115 81.5624 68.7487 80.3041 68.6465 79.7317L62.74 80.7869L56.8335 81.8421C57.1098 83.3886 57.7501 85.4256 58.2877 87.0399C58.8624 88.7657 59.4878 90.4956 59.8568 91.5309L65.5085 89.5164ZM62.74 80.7869L68.6458 79.728C65.5834 62.6482 75.9899 48.1683 91.1659 45.4477L90.1072 39.5418L89.0484 33.636C67.0172 37.5855 52.6624 58.5792 56.8342 81.8459L62.74 80.7869Z" fill="white" mask="url(#path-1-outside-1_774_10239)"/>
<path d="M93.4142 136.652V165.746C93.4142 167.209 92.2178 168.405 90.7555 168.405H81.5133C79.5826 168.405 78 166.822 78 164.892C78 163.923 78.3988 163.05 79.0318 162.41C79.6712 161.771 80.5448 161.378 81.5133 161.378L87.9195 162.701V136.659C87.9195 135.196 89.116 134 90.5783 134H90.7555C92.2178 134 93.4142 135.196 93.4142 136.659V136.652Z" fill="#474747"/>
<path d="M120.712 133.693L128.522 161.719C128.915 163.128 130.389 163.959 131.797 163.566L140.7 161.085C142.56 160.567 143.66 158.618 143.141 156.758C142.881 155.825 142.263 155.09 141.481 154.644C140.694 154.2 139.747 154.057 138.814 154.317L132.998 157.311L126.007 132.224C125.614 130.815 124.14 129.984 122.732 130.377L122.561 130.424C121.152 130.817 120.321 132.29 120.714 133.699L120.712 133.693Z" fill="#474747"/>
<path d="M71.7536 100.044C71.7536 100.044 46.0386 97.8241 28.9312 100.165C11.8237 102.506 31.0455 121.543 60.9544 111.455" fill="#4B9AE8"/>
<path d="M130.016 88.2959C130.016 88.2959 151.636 72.4004 168.087 65.214C184.538 58.0277 177.787 85.3322 145.779 92.5751" fill="#4B9AE8"/>
<path d="M155.445 104.689C159.669 128.226 139.318 148.685 110.615 153.828C81.9058 158.977 56.7241 146.537 52.5 123C50.1296 109.8 55.5055 99.6301 65.5938 89.754C64.8748 87.7271 63.1335 82.9883 62.7403 80.7874C59.1229 60.614 71.503 42.8773 90.1067 39.5422C108.711 36.2071 126.483 48.5425 130.1 68.7159C130.494 70.9112 130.701 73.0953 130.73 75.2457C143.632 81.0007 153.069 91.4889 155.439 104.689H155.445Z" fill="#4B9AE8"/>
<path d="M103.307 70.5069C103.376 74.1765 99.3925 79.9334 95.8266 79.9994C92.2607 80.0655 88.0699 74.4572 88.0015 70.7875C87.9331 67.1179 90.2113 64.0991 95.5318 64.0024C100.914 63.9034 103.239 66.8372 103.307 70.5069Z" fill="#E8BE0F"/>
<path d="M76.5001 74.0001C80.6423 74.0001 84.0001 70.6423 84.0001 66.5001C84.0001 62.358 80.6423 59.0001 76.5001 59.0001C72.358 59.0001 69.0001 62.358 69.0001 66.5001C69.0001 70.6423 72.358 74.0001 76.5001 74.0001Z" fill="white"/>
<path d="M76.4991 69.5873C78.2039 69.5873 79.5859 68.2053 79.5859 66.5005C79.5859 64.7957 78.2039 63.4136 76.4991 63.4136C74.7943 63.4136 73.4122 64.7957 73.4122 66.5005C73.4122 68.2053 74.7943 69.5873 76.4991 69.5873Z" fill="black" stroke="black" stroke-width="2.12398" stroke-miterlimit="10"/>
<path d="M112.5 67.0001C116.642 67.0001 120 63.6423 120 59.5001C120 55.358 116.642 52.0001 112.5 52.0001C108.358 52.0001 105 55.358 105 59.5001C105 63.6423 108.358 67.0001 112.5 67.0001Z" fill="white"/>
<path d="M112.499 62.5873C114.204 62.5873 115.586 61.2053 115.586 59.5005C115.586 57.7957 114.204 56.4136 112.499 56.4136C110.794 56.4136 109.412 57.7957 109.412 59.5005C109.412 61.2053 110.794 62.5873 112.499 62.5873Z" fill="black" stroke="black" stroke-width="2.12398" stroke-miterlimit="10"/>
<path d="M163.799 91.2008C168.866 87.0586 168.619 84.6572 166.849 80.7501C164.81 76.2329 160.495 67.8421 156.507 67.0305C153.259 66.3644 132.045 75.7277 130.5 75C130.5 75 128.164 91.1112 99.6814 96.1994C71.1985 101.288 65.5001 89.5 65.5001 89.5C64.7304 90.2836 39.6966 94.0259 37.5 96.5C32.4383 102.198 36.6651 112.348 38.255 117.045C39.1145 119.597 41.7943 121.075 44.4291 120.454L48.5189 119.245L51.0001 118.5C51.3107 119.947 51.954 122.957 52.0414 123.42C56.2661 146.885 82.4624 158.965 111.17 153.832C139.878 148.699 160.231 128.307 156.007 104.842C155.883 104.17 154.018 98.1809 153.861 97.5204C153.495 95.9923 159.4 94.7944 163.799 91.2008Z" fill="#714597"/>
<path d="M85.4808 121.998L85.5285 124.408L84.586 124.575L84.7471 132.491L87.0318 132.079L86.984 129.765L89.9607 129.228L90.0561 133.97L80.13 135.754L80.0823 133.326L81.0606 133.153L80.8995 125.237L79.9213 125.41L79.8735 123L85.4748 121.998H85.4808Z" fill="#F25E5E"/>
<path d="M96.5761 120.012L96.6238 122.421L95.5262 122.618L95.6873 130.534L96.7849 130.337L96.8326 132.765L90.945 133.821L90.8973 131.393L92.0127 131.19L91.8517 123.274L90.7362 123.477L90.6885 121.067L96.5761 120.012Z" fill="#F25E5E"/>
<path d="M109.831 120.853C109.705 121.7 109.485 122.946 109.365 123.388L107.647 130.814L103.943 131.477L101.808 124.557C101.712 124.265 101.462 123.263 101.39 122.362L101.318 122.374L101.467 129.562L102.476 129.383L102.523 131.733L97.7214 132.592L97.6736 130.242L98.6281 130.069L98.461 122.028L97.5185 122.195L97.4708 119.844L104.188 118.64L106.12 125.142L107.683 118.013L114.436 116.802L114.484 119.153L113.511 119.326L113.672 127.349L114.645 127.176L114.692 129.544L109.091 130.546L109.043 128.178L110.034 127.999L109.908 121.908L109.884 120.835L109.813 120.847L109.831 120.853Z" fill="#F25E5E"/>
<path d="M121.218 115.591L121.266 118.001L120.168 118.198L120.329 126.114L121.427 125.917L121.475 128.345L115.587 129.401L115.539 126.973L116.655 126.77L116.494 118.854L115.378 119.057L115.331 116.647L121.218 115.591Z" fill="#F25E5E"/>
<path d="M133.924 118.073L131.317 118.538L131.27 116.206L129.778 116.474L129.939 124.39L131.413 124.127L131.46 126.555L124.863 127.736L124.815 125.309L126.271 125.046L126.11 117.13L124.583 117.405L124.63 119.737L122.024 120.202L121.928 115.46L133.823 113.325L133.918 118.067L133.924 118.073Z" fill="#F25E5E"/>
<path d="M84.604 122.022L84.5861 135.491" stroke="#F25E5E" stroke-width="0.399668" stroke-miterlimit="10"/>
<path d="M83.733 122.177L83.7151 135.646" stroke="#F25E5E" stroke-width="0.399668" stroke-miterlimit="10"/>
<path d="M82.862 122.338L82.8441 135.801" stroke="#F25E5E" stroke-width="0.399668" stroke-miterlimit="10"/>
<path d="M81.9912 122.493L81.9733 135.956" stroke="#F25E5E" stroke-width="0.399668" stroke-miterlimit="10"/>
<path d="M81.1203 122.648L81.1024 136.112" stroke="#F25E5E" stroke-width="0.399668" stroke-miterlimit="10"/>
<path d="M80.2493 122.803L80.2255 136.273" stroke="#F25E5E" stroke-width="0.399668" stroke-miterlimit="10"/>
<path d="M79.3785 122.958L79.3546 136.428" stroke="#F25E5E" stroke-width="0.399668" stroke-miterlimit="10"/>
<path d="M78.5076 123.119L78.4838 136.583" stroke="#F25E5E" stroke-width="0.399668" stroke-miterlimit="10"/>
<path d="M77.6365 123.274L77.6127 136.738" stroke="#F25E5E" stroke-width="0.399668" stroke-miterlimit="10"/>
<path d="M76.7657 123.43L76.7418 136.893" stroke="#F25E5E" stroke-width="0.399668" stroke-miterlimit="10"/>
<path d="M75.8768 134.31L75.8708 137.054" stroke="#F25E5E" stroke-width="0.399668" stroke-miterlimit="10"/>
<path d="M75.8948 123.585L75.8888 126.472" stroke="#F25E5E" stroke-width="0.399668" stroke-miterlimit="10"/>
<path d="M75.006 134.471L75 137.209" stroke="#F25E5E" stroke-width="0.399668" stroke-miterlimit="10"/>
<path d="M75.0239 123.74L75.0179 126.627" stroke="#F25E5E" stroke-width="0.399668" stroke-miterlimit="10"/>
<path d="M85.4749 121.867L85.457 135.336" stroke="#F25E5E" stroke-width="0.399668" stroke-miterlimit="10"/>
<path d="M86.3458 121.712L86.3279 135.175" stroke="#F25E5E" stroke-width="0.399668" stroke-miterlimit="10"/>
<path d="M87.2167 121.556L87.1989 135.02" stroke="#F25E5E" stroke-width="0.399668" stroke-miterlimit="10"/>
<path d="M88.0876 121.401L88.0697 134.865" stroke="#F25E5E" stroke-width="0.399668" stroke-miterlimit="10"/>
<path d="M88.9584 121.24L88.9406 134.71" stroke="#F25E5E" stroke-width="0.399668" stroke-miterlimit="10"/>
<path d="M89.8294 121.085L89.8115 134.555" stroke="#F25E5E" stroke-width="0.399668" stroke-miterlimit="10"/>
<path d="M90.7004 120.93L90.6825 134.394" stroke="#F25E5E" stroke-width="0.399668" stroke-miterlimit="10"/>
<path d="M91.5714 120.775L91.5535 134.239" stroke="#F25E5E" stroke-width="0.399668" stroke-miterlimit="10"/>
<path d="M92.4482 120.62L92.4243 134.083" stroke="#F25E5E" stroke-width="0.399668" stroke-miterlimit="10"/>
<path d="M93.319 120.459L93.2952 133.928" stroke="#F25E5E" stroke-width="0.399668" stroke-miterlimit="10"/>
<path d="M94.19 120.304L94.1661 133.773" stroke="#F25E5E" stroke-width="0.399668" stroke-miterlimit="10"/>
<path d="M95.061 120.149L95.0371 133.612" stroke="#F25E5E" stroke-width="0.399668" stroke-miterlimit="10"/>
<path d="M95.9318 119.994L95.908 133.457" stroke="#F25E5E" stroke-width="0.399668" stroke-miterlimit="10"/>
<path d="M96.8028 119.839L96.7789 133.302" stroke="#F25E5E" stroke-width="0.399668" stroke-miterlimit="10"/>
<path d="M97.6736 119.677L97.6498 133.147" stroke="#F25E5E" stroke-width="0.399668" stroke-miterlimit="10"/>
<path d="M98.5446 119.522L98.5208 132.992" stroke="#F25E5E" stroke-width="0.399668" stroke-miterlimit="10"/>
<path d="M99.4155 119.367L99.3916 132.837" stroke="#F25E5E" stroke-width="0.399668" stroke-miterlimit="10"/>
<path d="M100.286 119.212L100.263 132.676" stroke="#F25E5E" stroke-width="0.399668" stroke-miterlimit="10"/>
<path d="M101.157 119.057L101.133 132.521" stroke="#F25E5E" stroke-width="0.399668" stroke-miterlimit="10"/>
<path d="M102.028 118.896L102.005 132.365" stroke="#F25E5E" stroke-width="0.399668" stroke-miterlimit="10"/>
<path d="M102.899 118.741L102.875 132.21" stroke="#F25E5E" stroke-width="0.399668" stroke-miterlimit="10"/>
<path d="M103.77 118.586L103.746 132.055" stroke="#F25E5E" stroke-width="0.399668" stroke-miterlimit="10"/>
<path d="M104.641 118.431L104.617 131.894" stroke="#F25E5E" stroke-width="0.399668" stroke-miterlimit="10"/>
<path d="M105.512 118.276L105.488 131.739" stroke="#F25E5E" stroke-width="0.399668" stroke-miterlimit="10"/>
<path d="M106.383 118.121L106.359 131.584" stroke="#F25E5E" stroke-width="0.399668" stroke-miterlimit="10"/>
<path d="M107.254 117.96L107.23 131.429" stroke="#F25E5E" stroke-width="0.399668" stroke-miterlimit="10"/>
<path d="M108.125 117.804L108.101 131.274" stroke="#F25E5E" stroke-width="0.399668" stroke-miterlimit="10"/>
<path d="M108.996 117.649L108.972 131.113" stroke="#F25E5E" stroke-width="0.399668" stroke-miterlimit="10"/>
<path d="M109.867 117.494L109.849 130.958" stroke="#F25E5E" stroke-width="0.399668" stroke-miterlimit="10"/>
<path d="M110.737 117.339L110.719 130.803" stroke="#F25E5E" stroke-width="0.399668" stroke-miterlimit="10"/>
<path d="M111.608 117.178L111.59 130.647" stroke="#F25E5E" stroke-width="0.399668" stroke-miterlimit="10"/>
<path d="M112.479 117.023L112.461 130.492" stroke="#F25E5E" stroke-width="0.399668" stroke-miterlimit="10"/>
<path d="M113.35 116.868L113.332 130.331" stroke="#F25E5E" stroke-width="0.399668" stroke-miterlimit="10"/>
<path d="M114.221 116.713L114.203 130.176" stroke="#F25E5E" stroke-width="0.399668" stroke-miterlimit="10"/>
<path d="M115.092 116.558L115.074 130.021" stroke="#F25E5E" stroke-width="0.399668" stroke-miterlimit="10"/>
<path d="M115.963 116.397L115.945 129.866" stroke="#F25E5E" stroke-width="0.399668" stroke-miterlimit="10"/>
<path d="M116.834 116.242L116.816 129.711" stroke="#F25E5E" stroke-width="0.399668" stroke-miterlimit="10"/>
<path d="M117.705 116.086L117.687 129.556" stroke="#F25E5E" stroke-width="0.399668" stroke-miterlimit="10"/>
<path d="M118.576 115.931L118.558 129.395" stroke="#F25E5E" stroke-width="0.399668" stroke-miterlimit="10"/>
<path d="M119.447 115.776L119.429 129.24" stroke="#F25E5E" stroke-width="0.399668" stroke-miterlimit="10"/>
<path d="M120.317 115.615L120.3 129.085" stroke="#F25E5E" stroke-width="0.399668" stroke-miterlimit="10"/>
<path d="M121.194 115.46L121.17 128.929" stroke="#F25E5E" stroke-width="0.399668" stroke-miterlimit="10"/>
<path d="M122.065 115.305L122.041 128.774" stroke="#F25E5E" stroke-width="0.399668" stroke-miterlimit="10"/>
<path d="M122.936 115.15L122.912 128.613" stroke="#F25E5E" stroke-width="0.399668" stroke-miterlimit="10"/>
<path d="M123.807 114.995L123.783 128.458" stroke="#F25E5E" stroke-width="0.399668" stroke-miterlimit="10"/>
<path d="M124.678 114.84L124.654 128.303" stroke="#F25E5E" stroke-width="0.399668" stroke-miterlimit="10"/>
<path d="M125.549 114.679L125.525 128.148" stroke="#F25E5E" stroke-width="0.399668" stroke-miterlimit="10"/>
<path d="M126.42 114.524L126.396 127.993" stroke="#F25E5E" stroke-width="0.399668" stroke-miterlimit="10"/>
<path d="M127.291 114.368L127.267 127.832" stroke="#F25E5E" stroke-width="0.399668" stroke-miterlimit="10"/>
<path d="M128.162 114.213L128.138 127.677" stroke="#F25E5E" stroke-width="0.399668" stroke-miterlimit="10"/>
<path d="M129.033 114.058L129.009 127.522" stroke="#F25E5E" stroke-width="0.399668" stroke-miterlimit="10"/>
<path d="M129.904 113.897L129.88 127.367" stroke="#F25E5E" stroke-width="0.399668" stroke-miterlimit="10"/>
<path d="M130.774 113.742L130.751 127.212" stroke="#F25E5E" stroke-width="0.399668" stroke-miterlimit="10"/>
<path d="M131.645 113.587L131.621 127.05" stroke="#F25E5E" stroke-width="0.399668" stroke-miterlimit="10"/>
<path d="M132.516 113.432L132.492 126.895" stroke="#F25E5E" stroke-width="0.399668" stroke-miterlimit="10"/>
<path d="M133.387 113.277L133.363 126.74" stroke="#F25E5E" stroke-width="0.399668" stroke-miterlimit="10"/>
<path d="M134.24 123.972L134.234 126.585" stroke="#F25E5E" stroke-width="0.399668" stroke-miterlimit="10"/>
<path d="M134.258 113.116L134.246 120.071" stroke="#F25E5E" stroke-width="0.399668" stroke-miterlimit="10"/>
<path d="M135.171 123.805V126.418" stroke="#F25E5E" stroke-width="0.399668" stroke-miterlimit="10"/>
<path d="M135.129 112.961L135.117 119.916" stroke="#F25E5E" stroke-width="0.399668" stroke-miterlimit="10"/>
<path d="M136 112.806L135.988 119.761" stroke="#F25E5E" stroke-width="0.399668" stroke-miterlimit="10"/>
<path d="M95.9915 106.393L96.2003 116.79L92.3885 117.476L87.7237 111.338L87.8192 115.931L89.1852 115.687L89.2329 118.037L83.7927 119.015L83.745 116.665L84.7889 116.48L84.6278 108.439L83.6018 108.624L83.5541 106.274L88.6424 105.361L93.1222 111.279L93.0328 106.936L91.8278 107.151L91.7801 104.8L97.1189 103.846L97.1666 106.196L95.9975 106.405L95.9915 106.393Z" fill="#F25E5E"/>
<path d="M97.9482 110.014C97.8706 106.077 100.364 102.897 104.039 102.241C108.381 101.46 110.457 103.78 110.541 107.884C110.624 112.006 108.441 114.923 104.432 115.639C100.728 116.301 98.0376 114.571 97.9482 110.014ZM106.109 108.684C106.061 106.476 105.44 104.812 104.074 105.057C102.995 105.23 102.279 106.972 102.327 109.232C102.374 111.618 103.239 112.985 104.373 112.782C105.488 112.579 106.15 110.944 106.103 108.684H106.109Z" fill="#F25E5E"/>
<path d="M123.581 101.448L123.789 111.845L119.978 112.531L115.313 106.393L115.408 110.986L116.774 110.742L116.822 113.092L111.382 114.07L111.334 111.72L112.378 111.535L112.217 103.494L111.191 103.679L111.143 101.329L116.231 100.416L120.711 106.333L120.622 101.991L119.417 102.205L119.369 99.8551L124.708 98.9007L124.756 101.251L123.587 101.46L123.581 101.448Z" fill="#F25E5E"/>
<path d="M81.7824 106.28L81.7585 119.743" stroke="#F25E5E" stroke-width="0.399668" stroke-miterlimit="10"/>
<path d="M80.8935 117.166L80.8876 119.904" stroke="#F25E5E" stroke-width="0.399668" stroke-miterlimit="10"/>
<path d="M80.9115 106.435L80.9055 108.952" stroke="#F25E5E" stroke-width="0.399668" stroke-miterlimit="10"/>
<path d="M82.6533 106.125L82.6294 119.588" stroke="#F25E5E" stroke-width="0.399668" stroke-miterlimit="10"/>
<path d="M83.5243 105.969L83.5005 119.433" stroke="#F25E5E" stroke-width="0.399668" stroke-miterlimit="10"/>
<path d="M84.3952 105.808L84.3713 119.278" stroke="#F25E5E" stroke-width="0.399668" stroke-miterlimit="10"/>
<path d="M85.266 105.653L85.2422 119.123" stroke="#F25E5E" stroke-width="0.399668" stroke-miterlimit="10"/>
<path d="M86.1369 105.498L86.113 118.962" stroke="#F25E5E" stroke-width="0.399668" stroke-miterlimit="10"/>
<path d="M87.008 105.343L86.9841 118.807" stroke="#F25E5E" stroke-width="0.399668" stroke-miterlimit="10"/>
<path d="M87.8788 105.188L87.855 118.651" stroke="#F25E5E" stroke-width="0.399668" stroke-miterlimit="10"/>
<path d="M88.7497 105.027L88.7318 118.496" stroke="#F25E5E" stroke-width="0.399668" stroke-miterlimit="10"/>
<path d="M89.6207 104.872L89.6028 118.341" stroke="#F25E5E" stroke-width="0.399668" stroke-miterlimit="10"/>
<path d="M90.4915 104.717L90.4736 118.18" stroke="#F25E5E" stroke-width="0.399668" stroke-miterlimit="10"/>
<path d="M91.3625 104.562L91.3446 118.025" stroke="#F25E5E" stroke-width="0.399668" stroke-miterlimit="10"/>
<path d="M92.2333 104.407L92.2155 117.87" stroke="#F25E5E" stroke-width="0.399668" stroke-miterlimit="10"/>
<path d="M93.1043 104.246L93.0864 117.715" stroke="#F25E5E" stroke-width="0.399668" stroke-miterlimit="10"/>
<path d="M93.9753 104.09L93.9574 117.56" stroke="#F25E5E" stroke-width="0.399668" stroke-miterlimit="10"/>
<path d="M94.8461 103.935L94.8282 117.405" stroke="#F25E5E" stroke-width="0.399668" stroke-miterlimit="10"/>
<path d="M95.717 103.78L95.6991 117.244" stroke="#F25E5E" stroke-width="0.399668" stroke-miterlimit="10"/>
<path d="M96.588 103.625L96.5701 117.089" stroke="#F25E5E" stroke-width="0.399668" stroke-miterlimit="10"/>
<path d="M97.4589 103.464L97.441 116.934" stroke="#F25E5E" stroke-width="0.399668" stroke-miterlimit="10"/>
<path d="M98.3299 103.309L98.312 116.778" stroke="#F25E5E" stroke-width="0.399668" stroke-miterlimit="10"/>
<path d="M99.2008 103.154L99.1829 116.623" stroke="#F25E5E" stroke-width="0.399668" stroke-miterlimit="10"/>
<path d="M100.072 102.999L100.054 116.462" stroke="#F25E5E" stroke-width="0.399668" stroke-miterlimit="10"/>
<path d="M100.949 102.844L100.925 116.307" stroke="#F25E5E" stroke-width="0.399668" stroke-miterlimit="10"/>
<path d="M101.819 102.689L101.796 116.152" stroke="#F25E5E" stroke-width="0.399668" stroke-miterlimit="10"/>
<path d="M102.69 102.528L102.667 115.997" stroke="#F25E5E" stroke-width="0.399668" stroke-miterlimit="10"/>
<path d="M103.561 102.372L103.537 115.842" stroke="#F25E5E" stroke-width="0.399668" stroke-miterlimit="10"/>
<path d="M104.432 102.217L104.408 115.681" stroke="#F25E5E" stroke-width="0.399668" stroke-miterlimit="10"/>
<path d="M105.303 102.062L105.279 115.526" stroke="#F25E5E" stroke-width="0.399668" stroke-miterlimit="10"/>
<path d="M106.174 101.907L106.15 115.371" stroke="#F25E5E" stroke-width="0.399668" stroke-miterlimit="10"/>
<path d="M107.045 101.746L107.021 115.216" stroke="#F25E5E" stroke-width="0.399668" stroke-miterlimit="10"/>
<path d="M107.916 101.591L107.892 115.06" stroke="#F25E5E" stroke-width="0.399668" stroke-miterlimit="10"/>
<path d="M108.787 101.436L108.763 114.899" stroke="#F25E5E" stroke-width="0.399668" stroke-miterlimit="10"/>
<path d="M109.658 101.281L109.634 114.744" stroke="#F25E5E" stroke-width="0.399668" stroke-miterlimit="10"/>
<path d="M110.529 101.126L110.505 114.589" stroke="#F25E5E" stroke-width="0.399668" stroke-miterlimit="10"/>
<path d="M111.4 100.965L111.376 114.434" stroke="#F25E5E" stroke-width="0.399668" stroke-miterlimit="10"/>
<path d="M112.27 100.81L112.247 114.279" stroke="#F25E5E" stroke-width="0.399668" stroke-miterlimit="10"/>
<path d="M113.141 100.654L113.117 114.124" stroke="#F25E5E" stroke-width="0.399668" stroke-miterlimit="10"/>
<path d="M114.012 100.499L113.988 113.963" stroke="#F25E5E" stroke-width="0.399668" stroke-miterlimit="10"/>
<path d="M114.883 100.344L114.859 113.808" stroke="#F25E5E" stroke-width="0.399668" stroke-miterlimit="10"/>
<path d="M115.754 100.183L115.73 113.653" stroke="#F25E5E" stroke-width="0.399668" stroke-miterlimit="10"/>
<path d="M116.625 100.028L116.601 113.498" stroke="#F25E5E" stroke-width="0.399668" stroke-miterlimit="10"/>
<path d="M117.496 99.873L117.478 113.342" stroke="#F25E5E" stroke-width="0.399668" stroke-miterlimit="10"/>
<path d="M118.367 99.718L118.349 113.181" stroke="#F25E5E" stroke-width="0.399668" stroke-miterlimit="10"/>
<path d="M119.238 99.5629L119.22 113.026" stroke="#F25E5E" stroke-width="0.399668" stroke-miterlimit="10"/>
<path d="M120.109 99.4078L120.091 112.871" stroke="#F25E5E" stroke-width="0.399668" stroke-miterlimit="10"/>
<path d="M120.98 99.2467L120.962 112.716" stroke="#F25E5E" stroke-width="0.399668" stroke-miterlimit="10"/>
<path d="M121.851 99.0916L121.833 112.561" stroke="#F25E5E" stroke-width="0.399668" stroke-miterlimit="10"/>
<path d="M122.722 98.9365L122.704 112.4" stroke="#F25E5E" stroke-width="0.399668" stroke-miterlimit="10"/>
<path d="M123.592 98.7814L123.574 112.245" stroke="#F25E5E" stroke-width="0.399668" stroke-miterlimit="10"/>
<path d="M124.463 98.6263L124.445 112.09" stroke="#F25E5E" stroke-width="0.399668" stroke-miterlimit="10"/>
<path d="M125.334 98.4653L125.316 111.935" stroke="#F25E5E" stroke-width="0.399668" stroke-miterlimit="10"/>
<path d="M126.205 98.3102L126.187 111.78" stroke="#F25E5E" stroke-width="0.399668" stroke-miterlimit="10"/>
<path d="M127.064 109.083L127.058 111.618" stroke="#F25E5E" stroke-width="0.399668" stroke-miterlimit="10"/>
<path d="M127.076 98.1551V101.036" stroke="#F25E5E" stroke-width="0.399668" stroke-miterlimit="10"/>
<path d="M127.935 108.928L127.929 111.463" stroke="#F25E5E" stroke-width="0.399668" stroke-miterlimit="10"/>
<path d="M127.947 98V100.881" stroke="#F25E5E" stroke-width="0.399668" stroke-miterlimit="10"/>
</svg>
