<svg width="200" height="200" viewBox="0 0 200 200" fill="none" xmlns="http://www.w3.org/2000/svg">
<mask id="path-1-outside-1_1347_645" maskUnits="userSpaceOnUse" x="31" y="20" width="144" height="161" fill="black">
<rect fill="white" x="31" y="20" width="144" height="161"/>
<path d="M134.198 102.834C138.241 102.834 141.778 103.22 144.81 103.993C147.841 104.736 150.264 105.703 152.077 106.892C153.89 108.051 155.376 109.522 156.535 111.305C157.694 113.088 158.497 114.842 158.942 116.566C159.418 118.29 159.73 120.222 159.879 122.362C159.879 122.897 158.853 123.328 156.803 123.655C154.752 123.953 152.151 124.131 149 124.19C145.879 124.25 143.561 124.279 142.045 124.279C140.529 124.279 139.251 124.264 138.211 124.234C137.022 124.234 136.428 123.997 136.428 123.521V121.203C136.16 120.668 135.446 120.4 134.287 120.4C129.472 120.4 127.064 124.295 127.064 132.082V132.795C129.74 129.644 134.02 128.069 139.905 128.069C144.605 128.069 148.726 129.097 152.27 131.151C156.348 128.808 163.688 128.114 166.533 130.824C169.769 133.908 168.142 142.317 164.696 145.45C164.049 146.038 163.351 146.535 162.61 146.924C162.69 147.723 162.732 148.542 162.732 149.381C162.732 152.888 162.168 156.068 161.038 158.922C159.938 161.745 158.482 164.093 156.669 165.966C154.856 167.809 152.716 169.385 150.249 170.692C147.812 171.97 145.315 172.892 142.759 173.457C140.232 174.051 137.616 174.407 134.911 174.526C123.825 174.526 115.517 171.45 109.988 165.298C104.49 159.115 101.74 150.243 101.74 138.681C101.74 131.636 103.018 125.438 105.574 120.088C108.16 114.738 111.906 110.547 116.81 107.516C121.744 104.484 127.54 102.923 134.198 102.834ZM67.499 103.369C70.62 103.369 73.5923 103.622 76.416 104.127C79.2397 104.603 81.9301 105.39 84.4863 106.49C87.0424 107.56 89.2422 108.898 91.085 110.503C92.9573 112.078 94.4433 114.04 95.543 116.388C96.6427 118.736 97.1924 121.352 97.1924 124.235C97.1923 126.762 96.8212 129.11 96.0781 131.279C95.3648 133.449 94.443 135.292 93.3135 136.808C92.2138 138.323 90.8171 139.869 89.123 141.444C87.4585 143.02 85.838 144.388 84.2627 145.547C82.6875 146.676 80.8892 148.044 78.8682 149.648C76.8767 151.253 75.1679 152.77 73.7412 154.196C75.7624 154.196 78.8536 154.136 83.0146 154.018C87.2055 153.899 90.3859 153.839 92.5557 153.839C94.6065 153.839 95.9888 154.538 96.7021 155.935C97.4452 157.302 97.8164 159.278 97.8164 161.864C97.8164 162.667 97.7718 164.035 97.6826 165.967C97.5935 167.869 97.5488 169.325 97.5488 170.336V171.139C97.5488 171.584 97.5194 171.926 97.46 172.164C97.4005 172.402 97.237 172.624 96.9697 172.832C96.7022 173.04 96.3006 173.189 95.7656 173.278H92.5557C90.2966 173.219 85.4815 173.1 78.1104 172.922C66.221 172.922 53.2314 173.159 39.1426 173.635V172.743C38.697 172.476 38.3254 171.941 38.0283 171.139C37.7608 170.336 37.627 169.444 37.627 168.463V155.444C37.627 154.761 38.638 153.75 40.6592 152.412C48.8329 146.884 54.6886 142.872 58.2256 140.375L60.9893 138.234C67.4093 133.241 70.62 128.783 70.6201 124.859C70.6201 123.611 70.2489 122.629 69.5059 121.916C68.7925 121.203 67.826 120.847 66.6074 120.847C65.5671 120.847 64.7345 121.084 64.1104 121.56C63.5159 122.005 63.1001 122.57 62.8623 123.254C62.6542 123.908 62.4758 124.577 62.3271 125.261C62.2083 125.944 62.0154 126.568 61.748 127.133C61.5103 127.698 61.1381 128.039 60.6328 128.158H39.9453C38.2813 128.158 37.4495 127.713 37.4492 126.821C37.8951 122.541 38.9204 118.87 40.5254 115.809C42.1304 112.717 44.2702 110.279 46.9453 108.496C49.6204 106.713 52.6374 105.42 55.9961 104.617C59.3548 103.785 63.1892 103.369 67.499 103.369ZM132.044 26C135.621 26 138.889 26.418 141.846 27.2549C144.832 28.0619 147.374 29.1535 149.474 30.5283C151.573 31.9031 153.435 33.5914 155.062 35.5938C156.688 37.5664 157.988 39.6293 158.964 41.7812C159.939 43.9331 160.739 46.279 161.359 48.8193C161.98 51.3298 162.409 53.7358 162.646 56.0371C162.882 58.3385 163 60.7302 163 63.2109C163 68.8894 162.187 73.9551 160.561 78.4082C158.964 82.8615 156.732 86.5083 153.864 89.3477C151.026 92.187 147.714 94.3392 143.93 95.8037C140.145 97.2681 136.006 98 131.512 98C128.171 98 125.125 97.6712 122.376 97.0137C119.656 96.386 117.291 95.5189 115.28 94.4131C113.27 93.3073 111.481 91.9028 109.914 90.1992C108.377 88.4956 107.09 86.6872 106.056 84.7744C105.05 82.8318 104.193 80.6202 103.483 78.1396C102.774 75.6291 102.227 73.1481 101.843 70.6973C101.488 68.2465 101.207 65.5118 101 62.4932C101 39.8084 111.348 27.644 132.044 26ZM67.3652 26C70.5186 26 73.5219 26.2551 76.375 26.7656C79.2282 27.2461 81.9464 28.0421 84.5293 29.1533C87.1123 30.2345 89.3351 31.5862 91.1973 33.208C93.0894 34.7998 94.5909 36.7826 95.7021 39.1553C96.8133 41.5279 97.3691 44.1708 97.3691 47.084C97.3691 49.6368 96.994 52.0097 96.2432 54.2021C95.5224 56.3944 94.5914 58.2565 93.4502 59.7881C92.3389 61.3198 90.9268 62.8818 89.2148 64.4736C87.533 66.0653 85.8964 67.4469 84.3047 68.6182C82.7129 69.7594 80.8957 71.141 78.8535 72.7627C76.8413 74.3845 75.1135 75.9158 73.6719 77.3574C75.7142 77.3574 78.8381 77.2979 83.043 77.1777C87.2776 77.0576 90.4911 76.9971 92.6836 76.9971C94.756 76.9971 96.1532 77.7036 96.874 79.1152C97.6247 80.4967 98 82.4938 98 85.1064C98 85.9173 97.9553 87.2989 97.8652 89.251C97.7751 91.173 97.7295 92.6449 97.7295 93.666V94.4775C97.7295 94.9279 97.6997 95.2735 97.6396 95.5137C97.5795 95.7538 97.4137 95.9793 97.1436 96.1895C96.8733 96.3995 96.468 96.5496 95.9277 96.6396H92.6836C90.4008 96.5796 85.5351 96.4595 78.0869 96.2793C66.0732 96.2793 52.9482 96.5195 38.7119 97V96.0986C38.2616 95.8283 37.8862 95.2881 37.5859 94.4775C37.3157 93.6667 37.1807 92.7654 37.1807 91.7744V78.6191C37.1808 77.9284 38.2019 76.9071 40.2441 75.5557C48.5033 69.9696 54.4201 65.9154 57.9941 63.3926L60.7871 61.2295C67.2743 56.184 70.5183 51.6792 70.5186 47.7148C70.5186 46.4536 70.1433 45.462 69.3926 44.7412C68.6718 44.0204 67.6953 43.6602 66.4639 43.6602C65.4127 43.6602 64.5712 43.9003 63.9404 44.3809C63.3399 44.8313 62.9199 45.4021 62.6797 46.0928C62.4695 46.7535 62.2888 47.4294 62.1387 48.1201C62.0185 48.8108 61.823 49.4412 61.5527 50.0117C61.3125 50.5824 60.9373 50.9277 60.4268 51.0479H39.5225C37.8408 51.0478 37 50.5972 37 49.6963C37.4505 45.3717 38.4866 41.6627 40.1084 38.5693C41.7302 35.4459 43.8927 32.9827 46.5957 31.1807C49.2987 29.3787 52.3475 28.0726 55.7412 27.2617C59.1351 26.4208 63.0102 26 67.3652 26ZM132.576 42.2295C131.808 42.2295 131.098 42.3339 130.448 42.543C129.798 42.7522 129.22 43.111 128.718 43.6191C128.245 44.0973 127.816 44.5906 127.432 45.0986C127.047 45.6067 126.722 46.2946 126.456 47.1611C126.19 48.0277 125.954 48.8049 125.747 49.4922C125.54 50.1497 125.377 51.0461 125.259 52.1816C125.141 53.2875 125.037 54.1997 124.948 54.917C124.889 55.6043 124.845 56.5903 124.815 57.875C124.786 59.1303 124.771 60.0575 124.771 60.6553V64.2861C124.771 65.4518 124.786 66.4832 124.815 67.3799C124.845 68.2765 124.904 69.3823 124.993 70.6973C125.111 71.9824 125.259 73.1182 125.437 74.1045C125.614 75.0609 125.865 76.0623 126.19 77.1084C126.545 78.1544 126.959 79.0216 127.432 79.709C127.905 80.3964 128.496 80.9638 129.206 81.4121C129.945 81.8305 130.773 82.04 131.689 82.04C132.724 82.04 133.641 81.8155 134.439 81.3672C135.267 80.919 135.932 80.3813 136.435 79.7539C136.967 79.1263 137.411 78.2591 137.766 77.1533C138.12 76.0476 138.386 75.0761 138.563 74.2393C138.741 73.3726 138.874 72.2517 138.963 70.877C139.052 69.4722 139.096 68.4107 139.096 67.6934C139.125 66.9761 139.141 65.9745 139.141 64.6895V64.1074C139.259 63.0912 139.317 61.5064 139.317 59.3545V57.5615C139.347 56.5155 139.362 55.6784 139.362 55.0508C139.362 54.3933 139.317 53.4668 139.229 52.2715C139.14 51.076 139.022 50.0896 138.874 49.3125C138.726 48.5355 138.475 47.6541 138.12 46.668C137.795 45.6817 137.396 44.9038 136.923 44.3359C136.45 43.7382 135.844 43.245 135.104 42.8564C134.365 42.4381 133.522 42.2295 132.576 42.2295Z"/>
</mask>
<path d="M134.198 102.834C138.241 102.834 141.778 103.22 144.81 103.993C147.841 104.736 150.264 105.703 152.077 106.892C153.89 108.051 155.376 109.522 156.535 111.305C157.694 113.088 158.497 114.842 158.942 116.566C159.418 118.29 159.73 120.222 159.879 122.362C159.879 122.897 158.853 123.328 156.803 123.655C154.752 123.953 152.151 124.131 149 124.19C145.879 124.25 143.561 124.279 142.045 124.279C140.529 124.279 139.251 124.264 138.211 124.234C137.022 124.234 136.428 123.997 136.428 123.521V121.203C136.16 120.668 135.446 120.4 134.287 120.4C129.472 120.4 127.064 124.295 127.064 132.082V132.795C129.74 129.644 134.02 128.069 139.905 128.069C144.605 128.069 148.726 129.097 152.27 131.151C156.348 128.808 163.688 128.114 166.533 130.824C169.769 133.908 168.142 142.317 164.696 145.45C164.049 146.038 163.351 146.535 162.61 146.924C162.69 147.723 162.732 148.542 162.732 149.381C162.732 152.888 162.168 156.068 161.038 158.922C159.938 161.745 158.482 164.093 156.669 165.966C154.856 167.809 152.716 169.385 150.249 170.692C147.812 171.97 145.315 172.892 142.759 173.457C140.232 174.051 137.616 174.407 134.911 174.526C123.825 174.526 115.517 171.45 109.988 165.298C104.49 159.115 101.74 150.243 101.74 138.681C101.74 131.636 103.018 125.438 105.574 120.088C108.16 114.738 111.906 110.547 116.81 107.516C121.744 104.484 127.54 102.923 134.198 102.834ZM67.499 103.369C70.62 103.369 73.5923 103.622 76.416 104.127C79.2397 104.603 81.9301 105.39 84.4863 106.49C87.0424 107.56 89.2422 108.898 91.085 110.503C92.9573 112.078 94.4433 114.04 95.543 116.388C96.6427 118.736 97.1924 121.352 97.1924 124.235C97.1923 126.762 96.8212 129.11 96.0781 131.279C95.3648 133.449 94.443 135.292 93.3135 136.808C92.2138 138.323 90.8171 139.869 89.123 141.444C87.4585 143.02 85.838 144.388 84.2627 145.547C82.6875 146.676 80.8892 148.044 78.8682 149.648C76.8767 151.253 75.1679 152.77 73.7412 154.196C75.7624 154.196 78.8536 154.136 83.0146 154.018C87.2055 153.899 90.3859 153.839 92.5557 153.839C94.6065 153.839 95.9888 154.538 96.7021 155.935C97.4452 157.302 97.8164 159.278 97.8164 161.864C97.8164 162.667 97.7718 164.035 97.6826 165.967C97.5935 167.869 97.5488 169.325 97.5488 170.336V171.139C97.5488 171.584 97.5194 171.926 97.46 172.164C97.4005 172.402 97.237 172.624 96.9697 172.832C96.7022 173.04 96.3006 173.189 95.7656 173.278H92.5557C90.2966 173.219 85.4815 173.1 78.1104 172.922C66.221 172.922 53.2314 173.159 39.1426 173.635V172.743C38.697 172.476 38.3254 171.941 38.0283 171.139C37.7608 170.336 37.627 169.444 37.627 168.463V155.444C37.627 154.761 38.638 153.75 40.6592 152.412C48.8329 146.884 54.6886 142.872 58.2256 140.375L60.9893 138.234C67.4093 133.241 70.62 128.783 70.6201 124.859C70.6201 123.611 70.2489 122.629 69.5059 121.916C68.7925 121.203 67.826 120.847 66.6074 120.847C65.5671 120.847 64.7345 121.084 64.1104 121.56C63.5159 122.005 63.1001 122.57 62.8623 123.254C62.6542 123.908 62.4758 124.577 62.3271 125.261C62.2083 125.944 62.0154 126.568 61.748 127.133C61.5103 127.698 61.1381 128.039 60.6328 128.158H39.9453C38.2813 128.158 37.4495 127.713 37.4492 126.821C37.8951 122.541 38.9204 118.87 40.5254 115.809C42.1304 112.717 44.2702 110.279 46.9453 108.496C49.6204 106.713 52.6374 105.42 55.9961 104.617C59.3548 103.785 63.1892 103.369 67.499 103.369ZM132.044 26C135.621 26 138.889 26.418 141.846 27.2549C144.832 28.0619 147.374 29.1535 149.474 30.5283C151.573 31.9031 153.435 33.5914 155.062 35.5938C156.688 37.5664 157.988 39.6293 158.964 41.7812C159.939 43.9331 160.739 46.279 161.359 48.8193C161.98 51.3298 162.409 53.7358 162.646 56.0371C162.882 58.3385 163 60.7302 163 63.2109C163 68.8894 162.187 73.9551 160.561 78.4082C158.964 82.8615 156.732 86.5083 153.864 89.3477C151.026 92.187 147.714 94.3392 143.93 95.8037C140.145 97.2681 136.006 98 131.512 98C128.171 98 125.125 97.6712 122.376 97.0137C119.656 96.386 117.291 95.5189 115.28 94.4131C113.27 93.3073 111.481 91.9028 109.914 90.1992C108.377 88.4956 107.09 86.6872 106.056 84.7744C105.05 82.8318 104.193 80.6202 103.483 78.1396C102.774 75.6291 102.227 73.1481 101.843 70.6973C101.488 68.2465 101.207 65.5118 101 62.4932C101 39.8084 111.348 27.644 132.044 26ZM67.3652 26C70.5186 26 73.5219 26.2551 76.375 26.7656C79.2282 27.2461 81.9464 28.0421 84.5293 29.1533C87.1123 30.2345 89.3351 31.5862 91.1973 33.208C93.0894 34.7998 94.5909 36.7826 95.7021 39.1553C96.8133 41.5279 97.3691 44.1708 97.3691 47.084C97.3691 49.6368 96.994 52.0097 96.2432 54.2021C95.5224 56.3944 94.5914 58.2565 93.4502 59.7881C92.3389 61.3198 90.9268 62.8818 89.2148 64.4736C87.533 66.0653 85.8964 67.4469 84.3047 68.6182C82.7129 69.7594 80.8957 71.141 78.8535 72.7627C76.8413 74.3845 75.1135 75.9158 73.6719 77.3574C75.7142 77.3574 78.8381 77.2979 83.043 77.1777C87.2776 77.0576 90.4911 76.9971 92.6836 76.9971C94.756 76.9971 96.1532 77.7036 96.874 79.1152C97.6247 80.4967 98 82.4938 98 85.1064C98 85.9173 97.9553 87.2989 97.8652 89.251C97.7751 91.173 97.7295 92.6449 97.7295 93.666V94.4775C97.7295 94.9279 97.6997 95.2735 97.6396 95.5137C97.5795 95.7538 97.4137 95.9793 97.1436 96.1895C96.8733 96.3995 96.468 96.5496 95.9277 96.6396H92.6836C90.4008 96.5796 85.5351 96.4595 78.0869 96.2793C66.0732 96.2793 52.9482 96.5195 38.7119 97V96.0986C38.2616 95.8283 37.8862 95.2881 37.5859 94.4775C37.3157 93.6667 37.1807 92.7654 37.1807 91.7744V78.6191C37.1808 77.9284 38.2019 76.9071 40.2441 75.5557C48.5033 69.9696 54.4201 65.9154 57.9941 63.3926L60.7871 61.2295C67.2743 56.184 70.5183 51.6792 70.5186 47.7148C70.5186 46.4536 70.1433 45.462 69.3926 44.7412C68.6718 44.0204 67.6953 43.6602 66.4639 43.6602C65.4127 43.6602 64.5712 43.9003 63.9404 44.3809C63.3399 44.8313 62.9199 45.4021 62.6797 46.0928C62.4695 46.7535 62.2888 47.4294 62.1387 48.1201C62.0185 48.8108 61.823 49.4412 61.5527 50.0117C61.3125 50.5824 60.9373 50.9277 60.4268 51.0479H39.5225C37.8408 51.0478 37 50.5972 37 49.6963C37.4505 45.3717 38.4866 41.6627 40.1084 38.5693C41.7302 35.4459 43.8927 32.9827 46.5957 31.1807C49.2987 29.3787 52.3475 28.0726 55.7412 27.2617C59.1351 26.4208 63.0102 26 67.3652 26ZM132.576 42.2295C131.808 42.2295 131.098 42.3339 130.448 42.543C129.798 42.7522 129.22 43.111 128.718 43.6191C128.245 44.0973 127.816 44.5906 127.432 45.0986C127.047 45.6067 126.722 46.2946 126.456 47.1611C126.19 48.0277 125.954 48.8049 125.747 49.4922C125.54 50.1497 125.377 51.0461 125.259 52.1816C125.141 53.2875 125.037 54.1997 124.948 54.917C124.889 55.6043 124.845 56.5903 124.815 57.875C124.786 59.1303 124.771 60.0575 124.771 60.6553V64.2861C124.771 65.4518 124.786 66.4832 124.815 67.3799C124.845 68.2765 124.904 69.3823 124.993 70.6973C125.111 71.9824 125.259 73.1182 125.437 74.1045C125.614 75.0609 125.865 76.0623 126.19 77.1084C126.545 78.1544 126.959 79.0216 127.432 79.709C127.905 80.3964 128.496 80.9638 129.206 81.4121C129.945 81.8305 130.773 82.04 131.689 82.04C132.724 82.04 133.641 81.8155 134.439 81.3672C135.267 80.919 135.932 80.3813 136.435 79.7539C136.967 79.1263 137.411 78.2591 137.766 77.1533C138.12 76.0476 138.386 75.0761 138.563 74.2393C138.741 73.3726 138.874 72.2517 138.963 70.877C139.052 69.4722 139.096 68.4107 139.096 67.6934C139.125 66.9761 139.141 65.9745 139.141 64.6895V64.1074C139.259 63.0912 139.317 61.5064 139.317 59.3545V57.5615C139.347 56.5155 139.362 55.6784 139.362 55.0508C139.362 54.3933 139.317 53.4668 139.229 52.2715C139.14 51.076 139.022 50.0896 138.874 49.3125C138.726 48.5355 138.475 47.6541 138.12 46.668C137.795 45.6817 137.396 44.9038 136.923 44.3359C136.45 43.7382 135.844 43.245 135.104 42.8564C134.365 42.4381 133.522 42.2295 132.576 42.2295Z" fill="#276288"/>
<path d="M134.198 102.834L134.198 96.834C134.171 96.834 134.145 96.8342 134.118 96.8345L134.198 102.834ZM144.81 103.993L143.328 109.807C143.345 109.812 143.363 109.816 143.381 109.821L144.81 103.993ZM152.077 106.892L148.787 111.909C148.806 111.922 148.826 111.934 148.845 111.947L152.077 106.892ZM156.535 111.305L161.566 108.035L161.566 108.035L156.535 111.305ZM158.942 116.566L153.133 118.069C153.142 118.1 153.15 118.131 153.158 118.162L158.942 116.566ZM159.879 122.362L165.879 122.364C165.879 122.225 165.874 122.086 165.864 121.947L159.879 122.362ZM156.803 123.655L157.663 129.593C157.691 129.589 157.719 129.585 157.747 129.58L156.803 123.655ZM149 124.19L148.887 118.191L148.886 118.192L149 124.19ZM142.045 124.279L142.045 130.279H142.045V124.279ZM138.211 124.234L138.382 118.237C138.325 118.235 138.268 118.234 138.211 118.234V124.234ZM136.428 123.521H130.428V123.522L136.428 123.521ZM136.428 121.203H142.428C142.428 120.272 142.211 119.353 141.794 118.52L136.428 121.203ZM134.287 120.4V114.4H134.287L134.287 120.4ZM127.064 132.795H121.064C121.064 135.311 122.634 137.56 124.996 138.427C127.358 139.294 130.01 138.596 131.638 136.678L127.064 132.795ZM139.905 128.069L139.905 122.069H139.905V128.069ZM152.27 131.151L149.26 136.342C151.114 137.417 153.401 137.421 155.259 136.354L152.27 131.151ZM166.533 130.824L170.672 126.48L170.672 126.48L166.533 130.824ZM164.696 145.45L168.733 149.889L168.733 149.889L164.696 145.45ZM162.61 146.924L159.822 141.611C157.656 142.748 156.397 145.086 156.64 147.521L162.61 146.924ZM162.732 149.381L168.732 149.381V149.381H162.732ZM161.038 158.922L155.459 156.714C155.455 156.724 155.451 156.734 155.447 156.744L161.038 158.922ZM156.669 165.966L160.946 170.174C160.957 170.162 160.968 170.151 160.98 170.139L156.669 165.966ZM150.249 170.692L153.035 176.006C153.043 176.002 153.051 175.998 153.059 175.994L150.249 170.692ZM142.759 173.457L141.464 167.598C141.438 167.604 141.411 167.61 141.385 167.617L142.759 173.457ZM134.911 174.526L134.911 180.526C134.999 180.526 135.087 180.524 135.175 180.521L134.911 174.526ZM109.988 165.298L105.505 169.285C105.512 169.293 105.519 169.301 105.525 169.308L109.988 165.298ZM101.74 138.681H95.7402V138.681L101.74 138.681ZM105.574 120.088L100.172 117.477C100.168 117.485 100.164 117.493 100.16 117.501L105.574 120.088ZM116.81 107.516L113.668 102.404C113.664 102.406 113.659 102.409 113.655 102.412L116.81 107.516ZM67.499 103.369V97.3691H67.499L67.499 103.369ZM76.416 104.127L75.3591 110.033C75.3792 110.037 75.3994 110.04 75.4195 110.044L76.416 104.127ZM84.4863 106.49L82.1151 112.002C82.1332 112.01 82.1513 112.017 82.1694 112.025L84.4863 106.49ZM91.085 110.503L87.1443 115.027C87.1701 115.05 87.1961 115.072 87.2223 115.094L91.085 110.503ZM95.543 116.388L100.977 113.843L100.977 113.843L95.543 116.388ZM97.1924 124.235L103.192 124.235V124.235H97.1924ZM96.0781 131.279L90.4018 129.335C90.3938 129.359 90.386 129.382 90.3783 129.405L96.0781 131.279ZM93.3135 136.808L88.5022 133.223C88.487 133.243 88.4719 133.264 88.4569 133.284L93.3135 136.808ZM89.123 141.444L85.0373 137.05C85.0244 137.062 85.0116 137.074 84.9987 137.087L89.123 141.444ZM84.2627 145.547L87.7588 150.423C87.7789 150.409 87.7989 150.394 87.8188 150.38L84.2627 145.547ZM78.8682 149.648L75.1369 144.95C75.1255 144.959 75.1143 144.968 75.103 144.977L78.8682 149.648ZM73.7412 154.196L69.4986 149.954C67.7826 151.67 67.2692 154.25 68.1979 156.492C69.1266 158.734 71.3144 160.196 73.7412 160.196L73.7412 154.196ZM83.0146 154.018L82.8445 148.02L82.8433 148.02L83.0146 154.018ZM92.5557 153.839V147.839H92.5557L92.5557 153.839ZM96.7021 155.935L91.3587 158.664C91.382 158.709 91.4059 158.755 91.4304 158.8L96.7021 155.935ZM97.8164 161.864H103.816V161.864L97.8164 161.864ZM97.6826 165.967L103.676 166.248L103.676 166.243L97.6826 165.967ZM97.5488 171.139L103.549 171.139V171.139H97.5488ZM97.46 172.164L103.28 173.622L103.281 173.619L97.46 172.164ZM96.9697 172.832L100.653 177.568L100.654 177.568L96.9697 172.832ZM95.7656 173.278V179.278C96.0961 179.278 96.426 179.251 96.752 179.197L95.7656 173.278ZM92.5557 173.278L92.3978 179.276C92.4504 179.278 92.503 179.278 92.5557 179.278V173.278ZM78.1104 172.922L78.2555 166.924C78.2071 166.922 78.1587 166.922 78.1104 166.922V172.922ZM39.1426 173.635H33.1426C33.1426 175.261 33.8028 176.818 34.9721 177.948C36.1414 179.079 37.7195 179.686 39.345 179.631L39.1426 173.635ZM39.1426 172.743H45.1426C45.1426 170.636 44.0375 168.684 42.2311 167.599L39.1426 172.743ZM38.0283 171.139L32.3362 173.036C32.3571 173.099 32.379 173.161 32.4019 173.223L38.0283 171.139ZM37.627 155.444L31.627 155.444V155.444H37.627ZM40.6592 152.412L43.9704 157.416C43.9872 157.405 44.004 157.393 44.0207 157.382L40.6592 152.412ZM58.2256 140.375L61.6857 145.277C61.7582 145.226 61.8295 145.173 61.8997 145.119L58.2256 140.375ZM60.9893 138.234L64.6634 142.978L64.6729 142.97L60.9893 138.234ZM70.6201 124.859L76.6201 124.86V124.859H70.6201ZM69.5059 121.916L65.2632 126.159C65.2921 126.188 65.3212 126.216 65.3506 126.244L69.5059 121.916ZM66.6074 120.847L66.6075 114.847H66.6074V120.847ZM64.1104 121.56L67.7104 126.36C67.7225 126.35 67.7346 126.341 67.7466 126.332L64.1104 121.56ZM62.8623 123.254L57.1954 121.283C57.1778 121.333 57.161 121.384 57.1448 121.435L62.8623 123.254ZM62.3271 125.261L56.4641 123.986C56.4463 124.068 56.4303 124.15 56.4159 124.232L62.3271 125.261ZM61.748 127.133L56.3255 124.565C56.288 124.644 56.2522 124.724 56.2182 124.804L61.748 127.133ZM60.6328 128.158V134.158C61.0955 134.158 61.5567 134.105 62.007 133.999L60.6328 128.158ZM39.9453 128.158L39.9452 134.158H39.9453V128.158ZM37.4492 126.821L31.4815 126.2C31.4599 126.407 31.4492 126.615 31.4492 126.823L37.4492 126.821ZM40.5254 115.809L45.8394 118.595C45.8431 118.588 45.8467 118.581 45.8504 118.573L40.5254 115.809ZM46.9453 108.496L43.6171 103.504L43.6171 103.504L46.9453 108.496ZM55.9961 104.617L57.3905 110.453C57.4067 110.449 57.423 110.445 57.4392 110.441L55.9961 104.617ZM132.044 26V20C131.885 20 131.727 20.0063 131.569 20.0188L132.044 26ZM141.846 27.2549L140.212 33.0281C140.235 33.0346 140.257 33.0409 140.28 33.0471L141.846 27.2549ZM149.474 30.5283L152.761 25.5091L152.761 25.509L149.474 30.5283ZM155.062 35.5938L150.404 39.3761C150.413 39.3875 150.422 39.3989 150.432 39.4103L155.062 35.5938ZM158.964 41.7812L164.428 39.3037L164.428 39.3036L158.964 41.7812ZM161.359 48.8193L155.531 50.2438C155.532 50.2491 155.534 50.2545 155.535 50.2598L161.359 48.8193ZM162.646 56.0371L168.614 55.4237L168.614 55.4236L162.646 56.0371ZM163 63.2109L169 63.211V63.2109H163ZM160.561 78.4082L154.925 76.3502C154.921 76.3612 154.917 76.3723 154.913 76.3833L160.561 78.4082ZM153.864 89.3477L149.643 85.0838C149.636 85.0911 149.628 85.0984 149.621 85.1058L153.864 89.3477ZM143.93 95.8037L146.095 101.399L146.095 101.399L143.93 95.8037ZM131.512 98L131.512 104H131.512V98ZM122.376 97.0137L123.771 91.1782C123.756 91.1745 123.741 91.1709 123.725 91.1673L122.376 97.0137ZM115.28 94.4131L112.389 99.6702L112.389 99.6703L115.28 94.4131ZM109.914 90.1992L105.46 94.219C105.472 94.2331 105.485 94.2471 105.498 94.2611L109.914 90.1992ZM106.056 84.7744L100.727 87.5318C100.744 87.5644 100.761 87.597 100.778 87.6293L106.056 84.7744ZM103.483 78.1396L97.7096 79.7715C97.7113 79.7776 97.713 79.7837 97.7148 79.7897L103.483 78.1396ZM101.843 70.6973L95.9047 71.5569C95.9081 71.5802 95.9116 71.6036 95.9152 71.6269L101.843 70.6973ZM101 62.4932H95C95 62.6301 95.0047 62.767 95.0141 62.9036L101 62.4932ZM67.3652 26L67.3653 20H67.3652V26ZM76.375 26.7656L75.3182 32.6718C75.3383 32.6754 75.3584 32.6789 75.3785 32.6823L76.375 26.7656ZM84.5293 29.1533L82.1581 34.6649C82.1762 34.6727 82.1943 34.6804 82.2125 34.688L84.5293 29.1533ZM91.1973 33.208L87.2566 37.7325C87.2825 37.7551 87.3085 37.7773 87.3347 37.7994L91.1973 33.208ZM95.7021 39.1553L101.136 36.6105L101.136 36.6104L95.7021 39.1553ZM97.3691 47.084L103.369 47.084V47.084H97.3691ZM96.2432 54.2021L90.5668 52.2582C90.5588 52.2814 90.551 52.3048 90.5433 52.3281L96.2432 54.2021ZM93.4502 59.7881L88.6389 56.2032C88.6237 56.2236 88.6086 56.2441 88.5937 56.2647L93.4502 59.7881ZM89.2148 64.4736L85.1292 60.0796C85.1163 60.0916 85.1034 60.1037 85.0906 60.1158L89.2148 64.4736ZM84.3047 68.6182L87.8008 73.4944C87.8209 73.48 87.8408 73.4655 87.8608 73.4508L84.3047 68.6182ZM78.8535 72.7627L75.1223 68.064C75.111 68.073 75.0997 68.082 75.0884 68.0911L78.8535 72.7627ZM73.6719 77.3574L69.4293 73.1147C67.7133 74.8307 67.1999 77.4114 68.1286 79.6535C69.0573 81.8955 71.2451 83.3574 73.6719 83.3574V77.3574ZM83.043 77.1777L82.8728 71.1801L82.8716 71.1802L83.043 77.1777ZM92.6836 76.9971V70.9971H92.6836L92.6836 76.9971ZM96.874 79.1152L91.5304 81.8439C91.5537 81.8896 91.5776 81.9349 91.6021 81.9799L96.874 79.1152ZM98 85.1064H104V85.1064L98 85.1064ZM97.8652 89.251L103.859 89.5319L103.859 89.5276L97.8652 89.251ZM97.7295 93.666L91.7295 93.666V93.666H97.7295ZM97.7295 94.4775L103.729 94.4778V94.4775H97.7295ZM97.6396 95.5137L103.46 96.9711L103.46 96.9689L97.6396 95.5137ZM97.1436 96.1895L100.825 100.927L100.827 100.926L97.1436 96.1895ZM95.9277 96.6396V102.64C96.2582 102.64 96.5882 102.612 96.9142 102.558L95.9277 96.6396ZM92.6836 96.6396L92.5258 102.638C92.5784 102.639 92.631 102.64 92.6836 102.64V96.6396ZM78.0869 96.2793L78.232 90.2811C78.1837 90.2799 78.1353 90.2793 78.0869 90.2793V96.2793ZM38.7119 97H32.7119C32.7119 98.6264 33.3722 100.183 34.5415 101.314C35.7107 102.444 37.2888 103.051 38.9143 102.997L38.7119 97ZM38.7119 96.0986H44.7119C44.7119 93.9913 43.6064 92.0385 41.7996 90.9541L38.7119 96.0986ZM37.5859 94.4775L31.8938 96.3749C31.9147 96.4376 31.9367 96.4999 31.9596 96.5618L37.5859 94.4775ZM37.1807 91.7744H31.1807V91.7746L37.1807 91.7744ZM37.1807 78.6191L31.1807 78.6179V78.6191H37.1807ZM40.2441 75.5557L43.5553 80.5593C43.5721 80.5482 43.5889 80.5369 43.6056 80.5256L40.2441 75.5557ZM57.9941 63.3926L61.4542 68.2944C61.5266 68.2433 61.5979 68.1906 61.668 68.1363L57.9941 63.3926ZM60.7871 61.2295L64.461 65.9732L64.4707 65.9656L60.7871 61.2295ZM70.5186 47.7148L76.5186 47.7152V47.7148H70.5186ZM69.3926 44.7412L65.15 48.9839C65.1787 49.0126 65.2077 49.041 65.237 49.0692L69.3926 44.7412ZM66.4639 43.6602L66.4639 37.6602H66.4639V43.6602ZM63.9404 44.3809L67.5409 49.1805C67.5529 49.1715 67.5648 49.1625 67.5766 49.1535L63.9404 44.3809ZM62.6797 46.0928L57.0127 44.1216C56.9952 44.172 56.9783 44.2227 56.9621 44.2735L62.6797 46.0928ZM62.1387 48.1201L56.2756 46.8455C56.2578 46.9273 56.2418 47.0094 56.2274 47.0919L62.1387 48.1201ZM61.5527 50.0117L56.1303 47.4433C56.0928 47.5225 56.057 47.6025 56.0229 47.6833L61.5527 50.0117ZM60.4268 51.0479V57.0479C60.8894 57.0479 61.3506 56.9943 61.801 56.8884L60.4268 51.0479ZM39.5225 51.0479L39.5222 57.0479H39.5225V51.0479ZM37 49.6963L31.0323 49.0746C31.0108 49.2811 31 49.4886 31 49.6963H37ZM40.1084 38.5693L45.4224 41.3553C45.4261 41.3483 45.4297 41.3413 45.4334 41.3343L40.1084 38.5693ZM46.5957 31.1807L43.2675 26.1883L43.2675 26.1884L46.5957 31.1807ZM55.7412 27.2617L57.1356 33.0974C57.1519 33.0936 57.1681 33.0896 57.1843 33.0856L55.7412 27.2617ZM132.576 42.2295V36.2295H132.576L132.576 42.2295ZM130.448 42.543L128.611 36.831L128.611 36.8312L130.448 42.543ZM128.718 43.6191L124.452 39.3995L124.452 39.3996L128.718 43.6191ZM127.432 45.0986L122.647 41.4788L122.646 41.4794L127.432 45.0986ZM126.456 47.1611L120.72 45.4002V45.4002L126.456 47.1611ZM125.747 49.4922L131.47 51.2934C131.478 51.2696 131.485 51.2458 131.492 51.2219L125.747 49.4922ZM125.259 52.1816L131.225 52.8197C131.225 52.8141 131.226 52.8086 131.227 52.8031L125.259 52.1816ZM124.948 54.917L118.994 54.1807C118.984 54.2546 118.977 54.3287 118.97 54.4029L124.948 54.917ZM124.815 57.875L130.814 58.0163L130.814 58.013L124.815 57.875ZM124.815 67.3799L118.819 67.5776V67.5776L124.815 67.3799ZM124.993 70.6973L119.007 71.101C119.01 71.1498 119.014 71.1984 119.018 71.2471L124.993 70.6973ZM125.437 74.1045L119.531 75.1666C119.533 75.1773 119.535 75.188 119.537 75.1987L125.437 74.1045ZM126.19 77.1084L120.461 78.8897C120.476 78.9385 120.492 78.9872 120.508 79.0356L126.19 77.1084ZM127.432 79.709L122.489 83.1104L122.489 83.1104L127.432 79.709ZM129.206 81.4121L126.001 86.4845C126.083 86.5362 126.166 86.5859 126.25 86.6335L129.206 81.4121ZM131.689 82.04L131.689 88.04H131.689V82.04ZM134.439 81.3672L131.582 76.0913C131.555 76.1059 131.528 76.1207 131.501 76.1357L134.439 81.3672ZM136.435 79.7539L131.858 75.8736C131.822 75.9162 131.787 75.9593 131.752 76.0029L136.435 79.7539ZM137.766 77.1533L143.479 78.9863L143.479 78.9863L137.766 77.1533ZM138.563 74.2393L144.433 75.4835C144.436 75.4698 144.439 75.4561 144.442 75.4423L138.563 74.2393ZM138.963 70.877L144.95 71.2633L144.951 71.2551L138.963 70.877ZM139.096 67.6934L133.101 67.4463C133.097 67.5286 133.096 67.611 133.096 67.6934H139.096ZM139.141 64.1074L133.181 63.4138C133.154 63.6441 133.141 63.8756 133.141 64.1074H139.141ZM139.317 57.5615L133.32 57.392C133.318 57.4485 133.317 57.505 133.317 57.5615H139.317ZM139.362 55.0508H145.362V55.0507L139.362 55.0508ZM139.229 52.2715L145.212 51.8276V51.8275L139.229 52.2715ZM138.874 49.3125L144.768 48.1912L144.768 48.1911L138.874 49.3125ZM138.12 46.668L132.422 48.5469C132.439 48.5978 132.456 48.6484 132.474 48.6988L138.12 46.668ZM136.923 44.3359L132.218 48.0595C132.249 48.0988 132.281 48.1377 132.313 48.1762L136.923 44.3359ZM135.104 42.8564L132.149 48.0779C132.203 48.1086 132.258 48.1384 132.313 48.1674L135.104 42.8564ZM134.198 102.834L134.198 108.834C137.878 108.834 140.897 109.188 143.328 109.807L144.81 103.993L146.292 98.1791C142.659 97.253 138.603 96.834 134.198 96.834L134.198 102.834ZM144.81 103.993L143.381 109.821C146.016 110.466 147.735 111.219 148.787 111.909L152.077 106.892L155.367 101.874C152.793 100.186 149.666 99.006 146.238 98.1657L144.81 103.993ZM152.077 106.892L148.845 111.947C149.947 112.651 150.817 113.517 151.505 114.575L156.535 111.305L161.566 108.035C159.935 105.526 157.833 103.45 155.309 101.837L152.077 106.892ZM156.535 111.305L151.504 114.575C152.376 115.916 152.878 117.079 153.133 118.069L158.942 116.566L164.751 115.064C164.115 112.606 163.012 110.26 161.566 108.035L156.535 111.305ZM158.942 116.566L153.158 118.162C153.509 119.433 153.767 120.961 153.893 122.778L159.879 122.362L165.864 121.947C165.693 119.483 165.327 117.147 164.726 114.971L158.942 116.566ZM159.879 122.362L153.879 122.361C153.879 120.363 154.897 119.013 155.572 118.377C156.179 117.805 156.718 117.584 156.785 117.556C156.944 117.489 156.743 117.589 155.858 117.73L156.803 123.655L157.747 129.58C158.914 129.395 160.25 129.116 161.435 128.618C162.014 128.374 162.938 127.925 163.801 127.111C164.733 126.233 165.878 124.629 165.879 122.364L159.879 122.362ZM156.803 123.655L155.942 117.717C154.231 117.965 151.901 118.135 148.887 118.191L149 124.19L149.113 130.189C152.4 130.127 155.273 129.94 157.663 129.593L156.803 123.655ZM149 124.19L148.886 118.192C145.773 118.251 143.501 118.279 142.045 118.279V124.279V130.279C143.62 130.279 145.986 130.249 149.114 130.189L149 124.19ZM142.045 124.279L142.045 118.279C140.564 118.279 139.347 118.264 138.382 118.237L138.211 124.234L138.04 130.232C139.155 130.264 140.494 130.279 142.045 130.279L142.045 124.279ZM138.211 124.234V118.234C137.839 118.234 138.318 118.172 139.1 118.485C139.544 118.662 140.388 119.08 141.148 119.991C141.996 121.009 142.428 122.273 142.428 123.521L136.428 123.521L130.428 123.522C130.428 125.007 130.934 126.48 131.931 127.675C132.839 128.765 133.906 129.332 134.647 129.628C136.023 130.178 137.394 130.234 138.211 130.234V124.234ZM136.428 123.521H142.428V121.203H136.428H130.428V123.521H136.428ZM136.428 121.203L141.794 118.52C139.825 114.581 135.611 114.4 134.287 114.4V120.4V126.4C134.483 126.4 134.157 126.434 133.585 126.219C132.928 125.973 131.776 125.315 131.061 123.886L136.428 121.203ZM134.287 120.4L134.287 114.4C129.931 114.4 126.131 116.342 123.767 120.166C121.697 123.514 121.064 127.765 121.064 132.082H127.064H133.064C133.064 128.612 133.636 127.022 133.973 126.476C134.088 126.291 134.101 126.344 133.975 126.412C133.862 126.473 133.905 126.4 134.287 126.4L134.287 120.4ZM127.064 132.082H121.064V132.795H127.064H133.064V132.082H127.064ZM127.064 132.795L131.638 136.678C132.753 135.365 135.008 134.069 139.905 134.069V128.069V122.069C133.032 122.069 126.726 123.923 122.491 128.912L127.064 132.795ZM139.905 128.069L139.905 134.069C143.705 134.069 146.758 134.892 149.26 136.342L152.27 131.151L155.279 125.96C150.694 123.303 145.505 122.069 139.905 122.069L139.905 128.069ZM152.27 131.151L155.259 136.354C156.328 135.739 158.219 135.177 160.147 135.086C161.07 135.042 161.791 135.119 162.263 135.233C162.773 135.357 162.686 135.446 162.395 135.168L166.533 130.824L170.672 126.48C167.419 123.381 162.743 122.95 159.58 123.099C156.108 123.264 152.289 124.22 149.281 125.949L152.27 131.151ZM166.533 130.824L162.394 135.168C162.032 134.823 162.113 134.641 162.208 135.122C162.297 135.576 162.326 136.305 162.187 137.226C162.051 138.131 161.782 139.027 161.44 139.772C161.08 140.554 160.756 140.923 160.66 141.011L164.696 145.45L168.733 149.889C171.825 147.077 173.498 142.704 174.054 139.011C174.57 135.575 174.479 130.108 170.672 126.48L166.533 130.824ZM164.696 145.45L160.66 141.011C160.358 141.285 160.075 141.479 159.822 141.611L162.61 146.924L165.399 152.237C166.627 151.592 167.74 150.792 168.733 149.889L164.696 145.45ZM162.61 146.924L156.64 147.521C156.7 148.124 156.732 148.743 156.732 149.381H162.732H168.732C168.732 148.341 168.68 147.322 168.581 146.327L162.61 146.924ZM162.732 149.381L156.732 149.381C156.732 152.239 156.274 154.656 155.459 156.714L161.038 158.922L166.617 161.13C168.061 157.481 168.732 153.537 168.732 149.381L162.732 149.381ZM161.038 158.922L155.447 156.744C154.591 158.943 153.533 160.579 152.358 161.792L156.669 165.966L160.98 170.139C163.431 167.608 165.286 164.548 166.629 161.099L161.038 158.922ZM156.669 165.966L152.392 161.758C151.041 163.13 149.406 164.348 147.439 165.391L150.249 170.692L153.059 175.994C156.026 174.421 158.67 172.487 160.946 170.174L156.669 165.966ZM150.249 170.692L147.463 165.379C145.472 166.423 143.475 167.154 141.464 167.598L142.759 173.457L144.053 179.316C147.155 178.63 150.152 177.518 153.035 176.006L150.249 170.692ZM142.759 173.457L141.385 167.617C139.239 168.121 136.996 168.429 134.648 168.532L134.911 174.526L135.175 180.521C138.236 180.386 141.225 179.982 144.133 179.298L142.759 173.457ZM134.911 174.526L134.911 168.526C124.919 168.526 118.49 165.783 114.451 161.288L109.988 165.298L105.525 169.308C112.543 177.118 122.73 180.526 134.911 180.526L134.911 174.526ZM109.988 165.298L114.472 161.31C110.278 156.596 107.74 149.356 107.74 138.681L101.74 138.681L95.7402 138.681C95.7403 151.13 98.7009 161.635 105.505 169.285L109.988 165.298ZM101.74 138.681H107.74C107.74 132.364 108.884 127.079 110.988 122.674L105.574 120.088L100.16 117.501C97.1523 123.797 95.7402 130.908 95.7402 138.681H101.74ZM105.574 120.088L110.976 122.699C113.081 118.344 116.062 115.032 119.965 112.619L116.81 107.516L113.655 102.412C107.749 106.063 103.239 111.132 100.172 117.477L105.574 120.088ZM116.81 107.516L119.951 112.628C123.832 110.243 128.537 108.91 134.279 108.833L134.198 102.834L134.118 96.8345C126.543 96.936 119.655 98.725 113.668 102.404L116.81 107.516ZM67.499 103.369V109.369C70.2964 109.369 72.9134 109.595 75.3591 110.033L76.416 104.127L77.4729 98.2208C74.2713 97.6479 70.9435 97.3691 67.499 97.3691V103.369ZM76.416 104.127L75.4195 110.044C77.784 110.442 80.0117 111.097 82.1151 112.002L84.4863 106.49L86.8576 100.979C83.8485 99.6841 80.6955 98.7632 77.4125 98.2103L76.416 104.127ZM84.4863 106.49L82.1694 112.025C84.2119 112.88 85.8453 113.896 87.1443 115.027L91.085 110.503L95.0256 105.978C92.6391 103.9 89.8729 102.241 86.8032 100.956L84.4863 106.49ZM91.085 110.503L87.2223 115.094C88.3894 116.076 89.3563 117.325 90.1094 118.933L95.543 116.388L100.977 113.843C99.5303 110.755 97.5252 108.08 94.9477 105.912L91.085 110.503ZM95.543 116.388L90.1094 118.933C90.796 120.398 91.1924 122.132 91.1924 124.235H97.1924H103.192C103.192 120.572 102.49 117.073 100.977 113.843L95.543 116.388ZM97.1924 124.235L91.1924 124.235C91.1923 126.168 90.9097 127.852 90.4018 129.335L96.0781 131.279L101.754 133.223C102.733 130.367 103.192 127.356 103.192 124.235L97.1924 124.235ZM96.0781 131.279L90.3783 129.405C89.8265 131.084 89.1748 132.32 88.5022 133.223L93.3135 136.808L98.1248 140.392C99.7111 138.264 100.903 135.815 101.778 133.153L96.0781 131.279ZM93.3135 136.808L88.4569 133.284C87.6309 134.423 86.5099 135.681 85.0373 137.05L89.123 141.444L93.2088 145.838C95.1243 144.057 96.7966 142.224 98.17 140.331L93.3135 136.808ZM89.123 141.444L84.9987 137.087C83.4838 138.52 82.0524 139.724 80.7066 140.714L84.2627 145.547L87.8188 150.38C89.6237 149.051 91.4332 147.519 93.2474 145.802L89.123 141.444ZM84.2627 145.547L80.7665 140.671C79.0905 141.872 77.2115 143.302 75.1369 144.95L78.8682 149.648L82.5995 154.347C84.5669 152.785 86.2844 151.48 87.7588 150.423L84.2627 145.547ZM78.8682 149.648L75.103 144.977C72.9861 146.683 71.11 148.342 69.4986 149.954L73.7412 154.196L77.9839 158.439C79.2258 157.197 80.7674 155.824 82.6333 154.32L78.8682 149.648ZM73.7412 154.196L73.7412 160.196C75.8526 160.196 79.0149 160.134 83.186 160.015L83.0146 154.018L82.8433 148.02C78.6923 148.139 75.6722 148.196 73.7412 148.196L73.7412 154.196ZM83.0146 154.018L83.1848 160.015C87.3614 159.897 90.4733 159.839 92.5557 159.839L92.5557 153.839L92.5557 147.839C90.2985 147.839 87.0497 147.901 82.8445 148.02L83.0146 154.018ZM92.5557 153.839V159.839C92.9329 159.839 92.7986 159.907 92.4238 159.718C92.2274 159.618 92.0069 159.468 91.7991 159.26C91.5918 159.053 91.4491 158.841 91.3587 158.664L96.7021 155.935L102.046 153.206C99.9835 149.168 96.0482 147.839 92.5557 147.839V153.839ZM96.7021 155.935L91.4304 158.8C91.4274 158.794 91.4552 158.844 91.4975 158.971C91.5397 159.098 91.5916 159.287 91.6411 159.55C91.7419 160.087 91.8164 160.844 91.8164 161.864L97.8164 161.864L103.816 161.864C103.816 158.864 103.413 155.717 101.974 153.069L96.7021 155.935ZM97.8164 161.864H91.8164C91.8164 162.514 91.7782 163.758 91.689 165.69L97.6826 165.967L103.676 166.243C103.765 164.311 103.816 162.82 103.816 161.864H97.8164ZM97.6826 165.967L91.6892 165.686C91.5988 167.615 91.5488 169.183 91.5488 170.336H97.5488H103.549C103.549 169.468 103.588 168.123 103.676 166.248L97.6826 165.967ZM97.5488 170.336H91.5488V171.139H97.5488H103.549V170.336H97.5488ZM97.5488 171.139L91.5488 171.138C91.5488 171.237 91.5452 171.256 91.549 171.212C91.5511 171.188 91.5564 171.134 91.5683 171.056C91.58 170.98 91.6012 170.861 91.6391 170.709L97.46 172.164L103.281 173.619C103.52 172.664 103.549 171.74 103.549 171.139L97.5488 171.139ZM97.46 172.164L91.6397 170.706C92.0113 169.223 92.8968 168.399 93.2855 168.096L96.9697 172.832L100.654 177.568C101.577 176.85 102.79 175.581 103.28 173.622L97.46 172.164ZM96.9697 172.832L93.2861 168.096C93.7438 167.74 94.1512 167.56 94.3821 167.474C94.6167 167.387 94.7651 167.362 94.7792 167.36L95.7656 173.278L96.752 179.197C97.7441 179.031 99.2645 178.648 100.653 177.568L96.9697 172.832ZM95.7656 173.278V167.278H92.5557V173.278V179.278H95.7656V173.278ZM92.5557 173.278L92.7135 167.28C90.4469 167.221 85.6249 167.102 78.2555 166.924L78.1104 172.922L77.9652 178.92C85.3382 179.098 90.1464 179.217 92.3978 179.276L92.5557 173.278ZM78.1104 172.922V166.922C66.1427 166.922 53.0847 167.161 38.9402 167.638L39.1426 173.635L39.345 179.631C53.3782 179.158 66.2994 178.922 78.1104 178.922V172.922ZM39.1426 173.635H45.1426V172.743H39.1426H33.1426V173.635H39.1426ZM39.1426 172.743L42.2311 167.599C42.8958 167.998 43.2778 168.459 43.4578 168.719C43.6339 168.972 43.6791 169.12 43.6547 169.054L38.0283 171.139L32.4019 173.223C32.891 174.543 33.8949 176.591 36.054 177.887L39.1426 172.743ZM38.0283 171.139L43.7204 169.241C43.6864 169.139 43.627 168.9 43.627 168.463H37.627H31.627C31.627 169.988 31.8352 171.533 32.3362 173.036L38.0283 171.139ZM37.627 168.463H43.627V155.444H37.627H31.627V168.463H37.627ZM37.627 155.444L43.627 155.445C43.6269 156.733 43.1658 157.615 42.9692 157.944C42.7562 158.301 42.5837 158.46 42.6278 158.416C42.6532 158.391 42.7649 158.285 43.0068 158.098C43.2423 157.915 43.5586 157.688 43.9704 157.416L40.6592 152.412L37.348 147.409C36.1988 148.169 35.0608 149.013 34.1425 149.931C33.6812 150.392 33.1296 151.015 32.6638 151.796C32.2145 152.549 31.627 153.814 31.627 155.444L37.627 155.444ZM40.6592 152.412L44.0207 157.382C52.1962 151.852 58.0953 147.811 61.6857 145.277L58.2256 140.375L54.7655 135.473C51.2818 137.932 45.4695 141.915 37.2977 147.442L40.6592 152.412ZM58.2256 140.375L61.8997 145.119L64.6634 142.978L60.9893 138.234L57.3151 133.491L54.5515 135.631L58.2256 140.375ZM60.9893 138.234L64.6729 142.97C68.1398 140.274 71.0227 137.51 73.0812 134.652C75.1357 131.799 76.62 128.494 76.6201 124.86L70.6201 124.859L64.6201 124.859C64.6201 125.149 64.499 126.034 63.3432 127.64C62.1912 129.239 60.2588 131.201 57.3056 133.498L60.9893 138.234ZM70.6201 124.859H76.6201C76.6201 122.352 75.828 119.668 73.6611 117.588L69.5059 121.916L65.3506 126.244C65.0662 125.971 64.8537 125.637 64.7301 125.311C64.6151 125.007 64.6201 124.826 64.6201 124.859H70.6201ZM69.5059 121.916L73.7485 117.673C71.6803 115.605 69.0601 114.847 66.6075 114.847L66.6074 120.847L66.6074 126.847C66.6359 126.847 66.4617 126.851 66.1701 126.743C65.8575 126.628 65.5336 126.429 65.2632 126.159L69.5059 121.916ZM66.6074 120.847V114.847C64.6829 114.847 62.44 115.289 60.4741 116.787L64.1104 121.56L67.7466 126.332C67.029 126.879 66.4513 126.847 66.6074 126.847V120.847ZM64.1104 121.56L60.5103 116.76C58.9862 117.903 57.8357 119.442 57.1954 121.283L62.8623 123.254L68.5292 125.225C68.4571 125.433 68.3438 125.658 68.1838 125.876C68.0245 126.092 67.8547 126.251 67.7104 126.36L64.1104 121.56ZM62.8623 123.254L57.1448 121.435C56.8786 122.271 56.6519 123.122 56.4641 123.986L62.3271 125.261L68.1902 126.535C68.2997 126.032 68.4299 125.544 68.5799 125.073L62.8623 123.254ZM62.3271 125.261L56.4159 124.232C56.3793 124.443 56.3365 124.541 56.3255 124.565L61.748 127.133L67.1706 129.701C67.6943 128.595 68.0372 127.445 68.2384 126.289L62.3271 125.261ZM61.748 127.133L56.2182 124.804C56.3641 124.458 56.6625 123.917 57.2304 123.395C57.8251 122.849 58.5383 122.487 59.2586 122.318L60.6328 128.158L62.007 133.999C64.7279 133.359 66.4467 131.435 67.2779 129.461L61.748 127.133ZM60.6328 128.158V122.158H39.9453V128.158V134.158H60.6328V128.158ZM39.9453 128.158L39.9455 122.158C39.4528 122.158 40.0176 122.059 40.9063 122.535C41.4403 122.821 42.1472 123.349 42.6992 124.236C43.2625 125.141 43.449 126.074 43.4492 126.819L37.4492 126.821L31.4492 126.823C31.4496 128.014 31.7402 129.338 32.5115 130.577C33.2715 131.798 34.2905 132.604 35.2404 133.113C36.9611 134.035 38.7737 134.158 39.9452 134.158L39.9453 128.158ZM37.4492 126.821L43.4169 127.443C43.8026 123.74 44.6624 120.84 45.8394 118.595L40.5254 115.809L35.2114 113.023C33.1784 116.901 31.9875 121.342 31.4815 126.2L37.4492 126.821ZM40.5254 115.809L45.8504 118.573C47.0289 116.304 48.5114 114.663 50.2735 113.488L46.9453 108.496L43.6171 103.504C40.029 105.896 37.232 109.131 35.2004 113.044L40.5254 115.809ZM46.9453 108.496L50.2735 113.488C52.3165 112.126 54.6698 111.103 57.3905 110.453L55.9961 104.617L54.6017 98.7815C50.605 99.7364 46.9243 101.299 43.6171 103.504L46.9453 108.496ZM55.9961 104.617L57.4392 110.441C60.2268 109.75 63.5618 109.369 67.499 109.369L67.499 103.369L67.499 97.3691C62.8166 97.3691 58.4828 97.8196 54.553 98.7933L55.9961 104.617ZM132.044 26V32C135.158 32 137.866 32.3641 140.212 33.0281L141.846 27.2549L143.48 21.4817C139.912 20.4719 136.085 20 132.044 20V26ZM141.846 27.2549L140.28 33.0471C142.791 33.7255 144.723 34.589 146.186 35.5476L149.474 30.5283L152.761 25.509C150.026 23.718 146.873 22.3982 143.411 21.4627L141.846 27.2549ZM149.474 30.5283L146.186 35.5476C147.753 36.5741 149.157 37.8411 150.404 39.3761L155.062 35.5938L159.719 31.8114C157.714 29.3417 155.392 27.2321 152.761 25.5091L149.474 30.5283ZM155.062 35.5938L150.432 39.4103C151.749 41.0075 152.758 42.6247 153.499 44.2589L158.964 41.7812L164.428 39.3036C163.218 36.634 161.627 34.1252 159.691 31.7772L155.062 35.5938ZM158.964 41.7812L153.499 44.2588C154.306 46.0391 154.989 48.0285 155.531 50.2438L161.359 48.8193L167.188 47.3949C166.488 44.5294 165.573 41.8271 164.428 39.3037L158.964 41.7812ZM161.359 48.8193L155.535 50.2598C156.096 52.5296 156.472 54.6583 156.677 56.6506L162.646 56.0371L168.614 55.4236C168.346 52.8134 167.864 50.1301 167.184 47.3789L161.359 48.8193ZM162.646 56.0371L156.677 56.6505C156.891 58.7336 157 60.92 157 63.2109H163H169C169 60.5405 168.873 57.9434 168.614 55.4237L162.646 56.0371ZM163 63.2109L157 63.2109C157 68.3222 156.268 72.6723 154.925 76.3502L160.561 78.4082L166.197 80.4662C168.106 75.2379 169 69.4566 169 63.211L163 63.2109ZM160.561 78.4082L154.913 76.3833C153.566 80.1381 151.773 82.975 149.643 85.0838L153.864 89.3477L158.086 93.6115C161.691 90.0416 164.362 85.5849 166.209 80.4331L160.561 78.4082ZM153.864 89.3477L149.621 85.1058C147.38 87.3476 144.778 89.0418 141.764 90.2081L143.93 95.8037L146.095 101.399C150.65 99.6366 154.672 97.0264 158.108 93.5895L153.864 89.3477ZM143.93 95.8037L141.764 90.2081C138.741 91.3778 135.345 92 131.512 92V98V104C136.666 104 141.549 103.158 146.095 101.399L143.93 95.8037ZM131.512 98L131.512 92C128.559 92 125.99 91.7088 123.771 91.1782L122.376 97.0137L120.981 102.849C124.261 103.634 127.783 104 131.512 104L131.512 98ZM122.376 97.0137L123.725 91.1673C121.433 90.6383 119.607 89.9451 118.172 89.1559L115.28 94.4131L112.389 99.6703C114.975 101.093 117.88 102.134 121.027 102.86L122.376 97.0137ZM115.28 94.4131L118.172 89.1559C116.736 88.3659 115.461 87.3664 114.33 86.1373L109.914 90.1992L105.498 94.2611C107.501 96.4391 109.804 98.2486 112.389 99.6702L115.28 94.4131ZM109.914 90.1992L114.368 86.1794C113.133 84.8106 112.129 83.3903 111.333 81.9195L106.056 84.7744L100.778 87.6293C102.052 89.9842 103.62 92.1806 105.46 94.219L109.914 90.1992ZM106.056 84.7744L111.385 82.0171C110.591 80.4841 109.871 78.6532 109.252 76.4896L103.483 78.1396L97.7148 79.7897C98.515 82.5872 99.5096 85.1795 100.727 87.5318L106.056 84.7744ZM103.483 78.1396L109.257 76.5078C108.61 74.2167 108.116 71.9702 107.77 69.7677L101.843 70.6973L95.9152 71.6269C96.3385 74.3259 96.9379 77.0414 97.7096 79.7715L103.483 78.1396ZM101.843 70.6973L107.781 69.8376C107.452 67.5641 107.185 64.9824 106.986 62.0828L101 62.4932L95.0141 62.9036C95.2292 66.0412 95.5242 68.9289 95.9047 71.5569L101.843 70.6973ZM101 62.4932H107C107 51.9847 109.402 44.8631 113.331 40.244C117.189 35.7091 123.263 32.7164 132.519 31.9812L132.044 26L131.569 20.0188C120.129 20.9276 110.681 24.8391 104.191 32.4686C97.7723 40.0139 95 50.3168 95 62.4932H101ZM67.3652 26L67.3652 32C70.1952 32 72.8431 32.2289 75.3182 32.6718L76.375 26.7656L77.4318 20.8594C74.2008 20.2813 70.8421 20 67.3653 20L67.3652 26ZM76.375 26.7656L75.3785 32.6823C77.7726 33.0855 80.0282 33.7486 82.1581 34.6649L84.5293 29.1533L86.9005 23.6417C83.8646 22.3357 80.6837 21.4068 77.3715 20.8489L76.375 26.7656ZM84.5293 29.1533L82.2125 34.688C84.2819 35.5542 85.9383 36.5844 87.2566 37.7325L91.1973 33.208L95.1379 28.6835C92.7319 26.588 89.9426 24.9149 86.8461 23.6187L84.5293 29.1533ZM91.1973 33.208L87.3347 37.7994C88.521 38.7973 89.5035 40.0667 90.2686 41.7002L95.7021 39.1553L101.136 36.6104C99.6782 33.4985 97.6579 30.8023 95.0598 28.6166L91.1973 33.208ZM95.7021 39.1553L90.2685 41.7001C90.9669 43.1912 91.3691 44.9514 91.3691 47.084H97.3691H103.369C103.369 43.3902 102.66 39.8646 101.136 36.6105L95.7021 39.1553ZM97.3691 47.084L91.3691 47.0839C91.3691 49.0428 91.0825 50.7523 90.5668 52.2582L96.2432 54.2021L101.92 56.1461C102.905 53.2672 103.369 50.2307 103.369 47.084L97.3691 47.084ZM96.2432 54.2021L90.5433 52.3281C89.9839 54.0298 89.3228 55.2854 88.6389 56.2032L93.4502 59.7881L98.2615 63.3729C99.86 61.2276 101.061 58.759 101.943 56.0762L96.2432 54.2021ZM93.4502 59.7881L88.5937 56.2647C87.7566 57.4185 86.6204 58.693 85.1292 60.0796L89.2148 64.4736L93.3005 68.8677C95.2332 67.0706 96.9212 65.2211 98.3067 63.3115L93.4502 59.7881ZM89.2148 64.4736L85.0906 60.1158C83.5584 61.5659 82.1108 62.7832 80.7486 63.7855L84.3047 68.6182L87.8608 73.4508C89.682 72.1106 91.5077 70.5647 93.3391 68.8315L89.2148 64.4736ZM84.3047 68.6182L80.8086 63.742C79.116 64.9555 77.2181 66.3997 75.1223 68.064L78.8535 72.7627L82.5848 77.4614C84.5734 75.8822 86.3099 74.5633 87.8008 73.4944L84.3047 68.6182ZM78.8535 72.7627L75.0884 68.0911C72.9524 69.8126 71.0569 71.4872 69.4293 73.1147L73.6719 77.3574L77.9145 81.6001C79.1701 80.3445 80.7301 78.9564 82.6186 77.4343L78.8535 72.7627ZM73.6719 77.3574V83.3574C75.8036 83.3574 78.9979 83.2958 83.2143 83.1753L83.043 77.1777L82.8716 71.1802C78.6784 71.3 75.6248 71.3574 73.6719 71.3574V77.3574ZM83.043 77.1777L83.2131 83.1753C87.4336 83.0556 90.5786 82.9971 92.6836 82.9971L92.6836 76.9971L92.6836 70.9971C90.4036 70.9971 87.1216 71.0596 82.8728 71.1801L83.043 77.1777ZM92.6836 76.9971V82.9971C93.0711 82.9971 92.946 83.0672 92.5787 82.8815C92.3861 82.7841 92.1689 82.6363 91.9639 82.4313C91.7594 82.2269 91.619 82.0174 91.5304 81.8439L96.874 79.1152L102.218 76.3865C100.148 72.3341 96.1982 70.9971 92.6836 70.9971V76.9971ZM96.874 79.1152L91.6021 81.9799C91.6011 81.9782 91.6307 82.0327 91.6744 82.1638C91.7182 82.2951 91.7713 82.4888 91.8217 82.7574C91.9245 83.3043 92 84.0725 92 85.1065L98 85.1064L104 85.1064C104 82.0784 103.592 78.9119 102.146 76.2505L96.874 79.1152ZM98 85.1064H92C92 85.7652 91.9616 87.024 91.8716 88.9743L97.8652 89.251L103.859 89.5276C103.949 87.5739 104 86.0694 104 85.1064H98ZM97.8652 89.251L91.8718 88.97C91.7805 90.9174 91.7295 92.5014 91.7295 93.666L97.7295 93.666L103.729 93.6661C103.729 92.7883 103.77 91.4286 103.859 89.5319L97.8652 89.251ZM97.7295 93.666H91.7295V94.4775H97.7295H103.729V93.666H97.7295ZM97.7295 94.4775L91.7295 94.4773C91.7295 94.5784 91.7258 94.5987 91.7294 94.5569C91.7315 94.5336 91.7366 94.4806 91.7485 94.4036C91.76 94.3282 91.7811 94.2094 91.8188 94.0584L97.6396 95.5137L103.46 96.9689C103.7 96.0117 103.729 95.0844 103.729 94.4778L97.7295 94.4775ZM97.6396 95.5137L91.8193 94.0563C92.1905 92.5742 93.0747 91.753 93.46 91.4533L97.1436 96.1895L100.827 100.926C101.753 100.206 102.969 98.9335 103.46 96.9711L97.6396 95.5137ZM97.1436 96.1895L93.462 91.4517C93.9186 91.0969 94.3245 90.9177 94.5533 90.8329C94.7857 90.7469 94.9312 90.723 94.9413 90.7213L95.9277 96.6396L96.9142 102.558C97.9087 102.392 99.4328 102.009 100.825 100.927L97.1436 96.1895ZM95.9277 96.6396V90.6396H92.6836V96.6396V102.64H95.9277V96.6396ZM92.6836 96.6396L92.8414 90.6417C90.5511 90.5815 85.6787 90.4612 78.232 90.2811L78.0869 96.2793L77.9418 102.278C85.3915 102.458 90.2506 102.578 92.5258 102.638L92.6836 96.6396ZM78.0869 96.2793V90.2793C65.9948 90.2793 52.8013 90.521 38.5095 91.0034L38.7119 97L38.9143 102.997C53.095 102.518 66.1516 102.279 78.0869 102.279V96.2793ZM38.7119 97H44.7119V96.0986H38.7119H32.7119V97H38.7119ZM38.7119 96.0986L41.7996 90.9541C42.462 91.3516 42.842 91.8108 43.0204 92.0677C43.1948 92.3187 43.2383 92.4634 43.2123 92.3932L37.5859 94.4775L31.9596 96.5618C32.4519 97.8907 33.4598 99.9441 35.6242 101.243L38.7119 96.0986ZM37.5859 94.4775L43.278 92.5801C43.2416 92.4708 43.1807 92.2223 43.1807 91.7742L37.1807 91.7744L31.1807 91.7746C31.1807 93.3085 31.3897 94.8627 31.8938 96.3749L37.5859 94.4775ZM37.1807 91.7744H43.1807V78.6191H37.1807H31.1807V91.7744H37.1807ZM37.1807 78.6191L43.1807 78.6204C43.1804 79.906 42.7203 80.7856 42.525 81.113C42.3132 81.468 42.1427 81.6244 42.1893 81.5777C42.2173 81.5497 42.3323 81.4412 42.578 81.2509C42.8173 81.0655 43.1382 80.8353 43.5553 80.5593L40.2441 75.5557L36.933 70.552C35.7733 71.3194 34.6274 72.1691 33.7039 73.0926C33.24 73.5565 32.6865 74.1822 32.2194 74.9652C31.7688 75.7206 31.181 76.9869 31.1807 78.6179L37.1807 78.6191ZM40.2441 75.5557L43.6056 80.5256C51.8668 74.9382 57.8269 70.8548 61.4542 68.2944L57.9941 63.3926L54.5341 58.4907C51.0132 60.976 45.1398 65.001 36.8827 70.5857L40.2441 75.5557ZM57.9941 63.3926L61.668 68.1363L64.461 65.9732L60.7871 61.2295L57.1132 56.4858L54.3203 58.6489L57.9941 63.3926ZM60.7871 61.2295L64.4707 65.9656C67.9712 63.2431 70.8793 60.4547 72.9545 57.5728C75.0258 54.6963 76.5184 51.3696 76.5186 47.7152L70.5186 47.7148L64.5186 47.7145C64.5185 48.0245 64.389 48.9323 63.2165 50.5606C62.0478 52.1836 60.0903 54.1704 57.1035 56.4933L60.7871 61.2295ZM70.5186 47.7148H76.5186C76.5186 45.1929 75.7215 42.5 73.5482 40.4133L69.3926 44.7412L65.237 49.0692C64.9571 48.8004 64.7475 48.4714 64.6258 48.1498C64.5127 47.8511 64.5186 47.6753 64.5186 47.7148H70.5186ZM69.3926 44.7412L73.6352 40.4985C71.5609 38.4243 68.9318 37.6602 66.4639 37.6602L66.4639 43.6602L66.4638 49.6602C66.4977 49.6602 66.3289 49.665 66.0422 49.5593C65.7349 49.4458 65.416 49.2499 65.15 48.9839L69.3926 44.7412ZM66.4639 43.6602V37.6602C64.5269 37.6602 62.2757 38.1061 60.3042 39.6082L63.9404 44.3809L67.5766 49.1535C66.8666 49.6945 66.2984 49.6602 66.4639 49.6602V43.6602ZM63.9404 44.3809L60.3399 39.5812C58.8096 40.7293 57.6552 42.2745 57.0127 44.1216L62.6797 46.0928L68.3467 48.0639C68.2759 48.2675 68.1644 48.4899 68.0065 48.7042C67.8495 48.9176 67.6822 49.0745 67.5409 49.1805L63.9404 44.3809ZM62.6797 46.0928L56.9621 44.2735C56.6944 45.1149 56.4654 45.9725 56.2756 46.8455L62.1387 48.1201L68.0017 49.3947C68.1123 48.8862 68.2445 48.3921 68.3972 47.912L62.6797 46.0928ZM62.1387 48.1201L56.2274 47.0919C56.1904 47.3049 56.146 47.4101 56.1303 47.4433L61.5527 50.0117L66.9752 52.5802C67.5 51.4722 67.8467 50.3166 68.0499 49.1483L62.1387 48.1201ZM61.5527 50.0117L56.0229 47.6833C56.1663 47.3428 56.4621 46.8047 57.028 46.2838C57.6213 45.7378 58.3335 45.3765 59.0525 45.2073L60.4268 51.0479L61.801 56.8884C64.5322 56.2457 66.2512 54.3144 67.0825 52.3401L61.5527 50.0117ZM60.4268 51.0479V45.0479H39.5225V51.0479V57.0479H60.4268V51.0479ZM39.5225 51.0479L39.5227 45.0479C39.0217 45.0478 39.58 44.9474 40.4644 45.4212C40.9962 45.7062 41.7014 46.2327 42.2522 47.118C42.8142 48.0214 43 48.9529 43 49.6963H37H31C31 50.8901 31.2909 52.2158 32.0631 53.4571C32.8241 54.6802 33.8447 55.4883 34.7969 55.9985C36.5221 56.9229 38.3416 57.0478 39.5222 57.0479L39.5225 51.0479ZM37 49.6963L42.9677 50.318C43.3581 46.5709 44.2285 43.6324 45.4224 41.3553L40.1084 38.5693L34.7944 35.7834C32.7448 39.6929 31.543 44.1724 31.0323 49.0746L37 49.6963ZM40.1084 38.5693L45.4334 41.3343C46.6285 39.0326 48.1335 37.3666 49.9239 36.173L46.5957 31.1807L43.2675 26.1884C39.6518 28.5988 36.832 31.8592 34.7834 35.8044L40.1084 38.5693ZM46.5957 31.1807L49.9239 36.173C51.9943 34.7927 54.3793 33.7561 57.1356 33.0974L55.7412 27.2617L54.3468 21.426C50.3156 22.3892 46.6031 23.9647 43.2675 26.1883L46.5957 31.1807ZM55.7412 27.2617L57.1843 33.0856C60.0076 32.386 63.3835 32 67.3652 32V26V20C62.637 20 58.2626 20.4555 54.2982 21.4378L55.7412 27.2617ZM132.576 42.2295L132.576 36.2295C131.262 36.2295 129.925 36.4086 128.611 36.831L130.448 42.543L132.285 48.2549C132.272 48.2592 132.353 48.2295 132.576 48.2295L132.576 42.2295ZM130.448 42.543L128.611 36.8312C127.002 37.3487 125.602 38.2375 124.452 39.3995L128.718 43.6191L132.983 47.8388C132.921 47.9016 132.826 47.9835 132.696 48.0643C132.565 48.1457 132.425 48.21 132.285 48.2548L130.448 42.543ZM128.718 43.6191L124.452 39.3996C123.803 40.0556 123.199 40.7483 122.647 41.4788L127.432 45.0986L132.217 48.7184C132.433 48.433 132.686 48.139 132.983 47.8386L128.718 43.6191ZM127.432 45.0986L122.646 41.4794C121.701 42.7292 121.112 44.1243 120.72 45.4002L126.456 47.1611L132.192 48.922C132.256 48.7135 132.305 48.6006 132.323 48.5609C132.343 48.5198 132.316 48.5873 132.217 48.7179L127.432 45.0986ZM126.456 47.1611L120.72 45.4002C120.451 46.2772 120.212 47.0648 120.002 47.7625L125.747 49.4922L131.492 51.2219C131.696 50.545 131.929 49.7782 132.192 48.922L126.456 47.1611ZM125.747 49.4922L120.024 47.691C119.644 48.8984 119.428 50.2453 119.291 51.5602L125.259 52.1816L131.227 52.8031C131.326 51.8469 131.436 51.401 131.47 51.2934L125.747 49.4922ZM125.259 52.1816L119.293 51.5436C119.176 52.6319 119.077 53.5084 118.994 54.1807L124.948 54.917L130.903 55.6533C130.997 54.891 131.105 53.9431 131.225 52.8197L125.259 52.1816ZM124.948 54.917L118.97 54.4029C118.895 55.28 118.847 56.4149 118.817 57.737L124.815 57.875L130.814 58.013C130.843 56.7658 130.883 55.9287 130.926 55.4311L124.948 54.917ZM124.815 57.875L118.817 57.7337C118.787 58.9991 118.771 59.9841 118.771 60.6553H124.771H130.771C130.771 60.1309 130.784 59.2614 130.814 58.0163L124.815 57.875ZM124.771 60.6553H118.771V64.2861H124.771H130.771V60.6553H124.771ZM124.771 64.2861H118.771C118.771 65.4976 118.786 66.5977 118.819 67.5776L124.815 67.3799L130.812 67.1821C130.785 66.3688 130.771 65.4059 130.771 64.2861H124.771ZM124.815 67.3799L118.819 67.5776C118.851 68.5676 118.915 69.7475 119.007 71.101L124.993 70.6973L130.98 70.2935C130.893 69.0171 130.839 67.9854 130.812 67.1821L124.815 67.3799ZM124.993 70.6973L119.018 71.2471C119.148 72.6574 119.316 73.9702 119.531 75.1666L125.437 74.1045L131.342 73.0424C131.202 72.2662 131.075 71.3074 130.968 70.1475L124.993 70.6973ZM125.437 74.1045L119.537 75.1987C119.763 76.4139 120.074 77.6455 120.461 78.8897L126.19 77.1084L131.92 75.3271C131.656 74.4791 131.465 73.708 131.336 73.0103L125.437 74.1045ZM126.19 77.1084L120.508 79.0356C120.986 80.4436 121.619 81.8463 122.489 83.1104L127.432 79.709L132.374 76.3076C132.298 76.1968 132.105 75.8653 131.872 75.1812L126.19 77.1084ZM127.432 79.709L122.489 83.1104C123.427 84.4733 124.612 85.6069 126.001 86.4845L129.206 81.4121L132.411 76.3397C132.399 76.3319 132.391 76.3266 132.388 76.3241C132.385 76.3216 132.384 76.3206 132.384 76.321C132.385 76.3213 132.385 76.3213 132.384 76.3203C132.383 76.3192 132.38 76.3154 132.374 76.3075L127.432 79.709ZM129.206 81.4121L126.25 86.6335C127.96 87.6017 129.82 88.04 131.689 88.04L131.689 82.04L131.69 76.04C131.689 76.04 131.705 76.04 131.734 76.0435C131.763 76.0471 131.804 76.0538 131.852 76.0661C131.955 76.0921 132.063 76.1348 132.162 76.1907L129.206 81.4121ZM131.689 82.04V88.04C133.618 88.04 135.571 87.6131 137.377 86.5986L134.439 81.3672L131.501 76.1357C131.591 76.0854 131.673 76.057 131.727 76.0437C131.777 76.0313 131.772 76.04 131.689 76.04V82.04ZM134.439 81.3672L137.297 86.6431C138.71 85.878 140.036 84.8549 141.118 83.5049L136.435 79.7539L131.752 76.0029C131.787 75.9591 131.805 75.9472 131.786 75.9621C131.766 75.9783 131.705 76.0249 131.582 76.0913L134.439 81.3672ZM136.435 79.7539L141.011 83.6342C142.216 82.2134 142.974 80.5584 143.479 78.9863L137.766 77.1533L132.052 75.3203C131.956 75.62 131.874 75.8038 131.826 75.8989C131.777 75.9944 131.778 75.9682 131.858 75.8736L136.435 79.7539ZM137.766 77.1533L143.479 78.9863C143.876 77.7485 144.202 76.5735 144.433 75.4835L138.563 74.2393L132.694 72.995C132.57 73.5786 132.365 74.3466 132.052 75.3204L137.766 77.1533ZM138.563 74.2393L144.442 75.4423C144.695 74.202 144.853 72.7805 144.95 71.2633L138.963 70.877L132.975 70.4906C132.896 71.7229 132.786 72.5432 132.685 73.0362L138.563 74.2393ZM138.963 70.877L144.951 71.2551C145.042 69.8183 145.096 68.6048 145.096 67.6934H139.096H133.096C133.096 68.2165 133.061 69.1261 132.975 70.4989L138.963 70.877ZM139.096 67.6934L145.091 67.9404C145.125 67.1025 145.141 66.0065 145.141 64.6895H139.141H133.141C133.141 65.9424 133.125 66.8497 133.101 67.4463L139.096 67.6934ZM139.141 64.6895H145.141V64.1074H139.141H133.141V64.6895H139.141ZM139.141 64.1074L145.1 64.801C145.261 63.4186 145.317 61.5414 145.317 59.3545H139.317H133.317C133.317 61.4715 133.256 62.7639 133.181 63.4138L139.141 64.1074ZM139.317 59.3545H145.317V57.5615H139.317H133.317V59.3545H139.317ZM139.317 57.5615L145.315 57.731C145.345 56.6638 145.362 55.7617 145.362 55.0508H139.362H133.362C133.362 55.5951 133.349 56.3672 133.32 57.392L139.317 57.5615ZM139.362 55.0508L145.362 55.0507C145.362 54.169 145.304 53.0677 145.212 51.8276L139.229 52.2715L133.245 52.7154C133.33 53.866 133.362 54.6175 133.362 55.0509L139.362 55.0508ZM139.229 52.2715L145.212 51.8275C145.114 50.5092 144.975 49.2757 144.768 48.1912L138.874 49.3125L132.98 50.4338C133.069 50.9034 133.165 51.6428 133.245 52.7154L139.229 52.2715ZM138.874 49.3125L144.768 48.1911C144.546 47.0237 144.195 45.8297 143.766 44.6371L138.12 46.668L132.474 48.6988C132.755 49.4784 132.906 50.0474 132.98 50.4339L138.874 49.3125ZM138.12 46.668L143.818 44.789C143.346 43.3575 142.643 41.8281 141.533 40.4956L136.923 44.3359L132.313 48.1762C132.221 48.066 132.205 48.019 132.239 48.0849C132.273 48.1502 132.339 48.2958 132.422 48.5469L138.12 46.668ZM136.923 44.3359L141.628 40.6124C140.587 39.2975 139.306 38.2864 137.896 37.5455L135.104 42.8564L132.313 48.1674C132.353 48.1888 132.353 48.1931 132.327 48.1718C132.299 48.1495 132.259 48.1119 132.218 48.0595L136.923 44.3359ZM135.104 42.8564L138.06 37.635C136.317 36.6483 134.434 36.2295 132.576 36.2295V42.2295V48.2295C132.607 48.2295 132.566 48.2326 132.475 48.2099C132.38 48.1864 132.265 48.1437 132.149 48.0779L135.104 42.8564Z" fill="white" mask="url(#path-1-outside-1_1347_645)"/>
<path d="M134.911 174.527C123.825 174.527 115.517 171.45 109.989 165.297C104.49 159.115 101.74 150.243 101.74 138.68C101.74 131.636 103.018 125.439 105.575 120.088C108.161 114.738 111.906 110.547 116.81 107.515C121.744 104.484 127.54 102.923 134.198 102.834C138.241 102.834 141.778 103.22 144.809 103.993C147.841 104.736 150.264 105.702 152.077 106.891C153.89 108.05 155.376 109.522 156.535 111.305C157.694 113.089 158.497 114.842 158.943 116.566C159.418 118.29 159.73 120.222 159.879 122.362C159.879 122.897 158.854 123.328 156.803 123.655C154.752 123.952 152.151 124.131 149 124.19C145.879 124.25 143.561 124.279 142.045 124.279C140.529 124.279 139.251 124.264 138.211 124.235C137.022 124.235 136.427 123.997 136.427 123.521V121.203C136.16 120.668 135.447 120.4 134.287 120.4C129.472 120.4 127.065 124.294 127.065 132.082V132.795C129.74 129.644 134.02 128.069 139.905 128.069C146.474 128.069 151.913 130.075 156.223 134.088C160.563 138.101 162.733 143.198 162.733 149.381C162.733 152.888 162.168 156.068 161.038 158.922C159.939 161.746 158.482 164.094 156.669 165.966C154.856 167.809 152.716 169.384 150.249 170.692C147.811 171.97 145.315 172.892 142.758 173.457C140.232 174.051 137.616 174.408 134.911 174.527ZM126.351 151.432C126.351 153.869 126.961 155.979 128.179 157.763C129.428 159.546 131.196 160.438 133.485 160.438C134.971 160.438 136.234 160.141 137.275 159.546C138.345 158.922 139.147 158.09 139.682 157.049C140.217 156.009 140.589 154.954 140.797 153.884C141.034 152.784 141.153 151.61 141.153 150.362C141.005 147.449 140.381 145.219 139.281 143.674C138.211 142.128 136.398 141.355 133.841 141.355C132.355 141.355 131.092 141.623 130.052 142.158C129.011 142.693 128.239 143.466 127.733 144.476C127.228 145.457 126.871 146.498 126.663 147.597C126.455 148.697 126.351 149.975 126.351 151.432Z" fill="#4B9AE8"/>
<path d="M97.1926 124.235C97.1926 126.761 96.8211 129.11 96.078 131.279C95.3646 133.449 94.4432 135.292 93.3137 136.808C92.214 138.324 90.817 139.869 89.1227 141.445C87.4582 143.02 85.8383 144.387 84.263 145.547C82.6877 146.676 80.8894 148.043 78.8682 149.648C76.8767 151.253 75.1677 152.769 73.7409 154.196C75.7621 154.196 78.8533 154.137 83.0146 154.018C87.2056 153.899 90.386 153.839 92.5558 153.839C94.6067 153.839 95.9888 154.538 96.7022 155.935C97.4453 157.302 97.8168 159.279 97.8168 161.865C97.8168 162.667 97.7722 164.034 97.6831 165.966C97.5939 167.869 97.5493 169.325 97.5493 170.336V171.138C97.5493 171.584 97.5196 171.926 97.4601 172.164C97.4007 172.402 97.2372 172.624 96.9697 172.832C96.7022 173.041 96.3009 173.189 95.7659 173.278H92.5558C90.2968 173.219 85.4816 173.1 78.1103 172.922C66.2209 172.922 53.2319 173.159 39.143 173.635V172.743C38.6972 172.476 38.3256 171.941 38.0284 171.138C37.7609 170.336 37.6271 169.444 37.6271 168.463V155.444C37.6271 154.761 38.6377 153.75 40.6589 152.413C48.8328 146.884 54.6883 142.871 58.2254 140.375L60.9896 138.235C67.4099 133.241 70.62 128.783 70.62 124.859C70.62 123.611 70.2485 122.63 69.5054 121.916C68.792 121.203 67.826 120.846 66.6073 120.846C65.567 120.846 64.7348 121.084 64.1106 121.56C63.5161 122.006 63.1 122.57 62.8622 123.254C62.6542 123.908 62.4758 124.577 62.3272 125.26C62.2083 125.944 62.0151 126.568 61.7476 127.133C61.5098 127.698 61.1383 128.039 60.633 128.158H39.9455C38.281 128.158 37.4488 127.713 37.4488 126.821C37.8946 122.541 38.9201 118.87 40.5252 115.808C42.1302 112.717 44.2703 110.28 46.9454 108.496C49.6205 106.713 52.6374 105.42 55.9961 104.618C59.3549 103.785 63.1892 103.369 67.499 103.369C70.62 103.369 73.5923 103.622 76.416 104.127C79.2397 104.603 81.9297 105.39 84.4859 106.49C87.0421 107.56 89.2416 108.898 91.0845 110.503C92.9571 112.078 94.4432 114.04 95.543 116.388C96.6427 118.736 97.1926 121.352 97.1926 124.235Z" fill="#276288"/>
<path d="M134.426 165.853C141.841 165.853 147.853 159.841 147.853 152.426C147.853 145.011 141.841 139 134.426 139C127.011 139 121 145.011 121 152.426C121 159.841 127.011 165.853 134.426 165.853Z" fill="white"/>
<path d="M134.425 159.577C138.374 159.577 141.575 156.375 141.575 152.426C141.575 148.477 138.374 145.276 134.425 145.276C130.475 145.276 127.274 148.477 127.274 152.426C127.274 156.375 130.475 159.577 134.425 159.577Z" fill="#040000"/>
<path d="M150.792 132.207C154.244 129.063 163.297 127.741 166.533 130.824C169.769 133.907 168.142 142.317 164.696 145.45C161.25 148.584 156.331 149.124 151.488 144.519C146.6 139.861 147.329 135.344 150.781 132.2L150.792 132.207Z" fill="#E8BE0F"/>
<path d="M131.512 98C128.171 98 125.126 97.6712 122.376 97.0137C119.656 96.3861 117.291 95.5193 115.28 94.4135C113.27 93.3076 111.481 91.9029 109.914 90.1992C108.377 88.4956 107.091 86.6874 106.056 84.7746C105.051 82.8319 104.193 80.6202 103.484 78.1395C102.774 75.6289 102.227 73.1482 101.843 70.6974C101.488 68.2466 101.207 65.5118 101 62.4931C101 39.8082 111.348 27.6438 132.044 26C135.622 26 138.889 26.4184 141.845 27.2553C144.832 28.0623 147.374 29.1532 149.474 30.528C151.573 31.9029 153.435 33.5915 155.062 35.594C156.688 37.5666 157.989 39.6289 158.964 41.7808C159.94 43.9328 160.738 46.279 161.359 48.8194C161.98 51.33 162.409 53.736 162.645 56.0374C162.882 58.3387 163 60.7298 163 63.2105C163 68.8892 162.187 73.9552 160.561 78.4085C158.964 82.8618 156.732 86.5081 153.864 89.3474C151.026 92.1868 147.714 94.3387 143.93 95.8032C140.145 97.2677 136.006 98 131.512 98ZM124.771 64.2864C124.771 65.4521 124.786 66.4832 124.815 67.3798C124.845 68.2765 124.904 69.3823 124.993 70.6974C125.111 71.9826 125.259 73.1183 125.436 74.1046C125.614 75.061 125.865 76.0623 126.19 77.1083C126.545 78.1544 126.959 79.0212 127.432 79.7086C127.905 80.396 128.496 80.9639 129.206 81.4122C129.945 81.8306 130.773 82.0399 131.69 82.0399C132.724 82.0399 133.641 81.8157 134.439 81.3674C135.267 80.9191 135.932 80.3811 136.435 79.7534C136.967 79.1258 137.411 78.259 137.765 77.1532C138.12 76.0473 138.386 75.076 138.564 74.2391C138.741 73.3724 138.874 72.2516 138.963 70.8767C139.052 69.472 139.096 68.411 139.096 67.6936C139.125 66.9763 139.14 65.9751 139.14 64.6899C139.14 64.4209 139.14 64.2267 139.14 64.1071C139.258 63.0909 139.318 61.5068 139.318 59.3549C139.318 59.2055 139.318 58.6077 139.318 57.5616C139.347 56.5156 139.362 55.6787 139.362 55.0511C139.362 54.3935 139.318 53.467 139.229 52.2715C139.14 51.076 139.022 50.0897 138.874 49.3126C138.726 48.5355 138.475 47.6538 138.12 46.6675C137.795 45.6812 137.396 44.9041 136.923 44.3362C136.45 43.7385 135.844 43.2453 135.104 42.8568C134.365 42.4384 133.523 42.2291 132.577 42.2291C131.808 42.2291 131.098 42.3337 130.448 42.543C129.797 42.7522 129.221 43.1108 128.718 43.6189C128.245 44.0971 127.816 44.5903 127.432 45.0984C127.048 45.6065 126.722 46.2939 126.456 47.1606C126.19 48.0274 125.954 48.8045 125.747 49.4919C125.54 50.1494 125.377 51.0461 125.259 52.1818C125.141 53.2877 125.037 54.1993 124.948 54.9166C124.889 55.604 124.845 56.5903 124.815 57.8755C124.786 59.1308 124.771 60.0573 124.771 60.655C124.771 61.2528 124.771 62.1793 124.771 63.4346C124.771 63.8232 124.771 64.1071 124.771 64.2864Z" fill="#276288"/>
<path d="M97.3693 47.0838C97.3693 49.6366 96.9938 52.0093 96.243 54.2018C95.5222 56.3942 94.5911 58.2563 93.4498 59.7881C92.3385 61.3198 90.9269 62.8816 89.2149 64.4734C87.533 66.0651 85.8961 67.4467 84.3043 68.618C82.7125 69.7593 80.8954 71.1409 78.853 72.7627C76.8407 74.3845 75.1137 75.9162 73.6721 77.3579C75.7144 77.3579 78.838 77.2978 83.0428 77.1777C87.2777 77.0575 90.4914 76.9975 92.6839 76.9975C94.7563 76.9975 96.1529 77.7033 96.8737 79.1148C97.6246 80.4964 98 82.4937 98 85.1066C98 85.9175 97.955 87.2991 97.8648 89.2513C97.7747 91.1734 97.7297 92.6451 97.7297 93.6662V94.4772C97.7297 94.9277 97.6997 95.273 97.6396 95.5133C97.5795 95.7536 97.4143 95.9788 97.144 96.1891C96.8737 96.3993 96.4682 96.5495 95.9276 96.6396H92.6839C90.4013 96.5795 85.5357 96.4594 78.0872 96.2792C66.0734 96.2792 52.9483 96.5195 38.712 97V96.099C38.2614 95.8287 37.886 95.2881 37.5857 94.4772C37.3154 93.6662 37.1802 92.7652 37.1802 91.7741V78.6193C37.1802 77.9285 38.2014 76.9074 40.2437 75.5558C48.5032 69.9695 54.42 65.915 57.9941 63.3921L60.7873 61.2297C67.2747 56.184 70.5185 51.6789 70.5185 47.7145C70.5185 46.453 70.143 45.4619 69.3922 44.7411C68.6713 44.0203 67.6952 43.6599 66.4638 43.6599C65.4126 43.6599 64.5716 43.9002 63.9409 44.3807C63.3402 44.8312 62.9197 45.4019 62.6795 46.0926C62.4692 46.7534 62.289 47.4291 62.1388 48.1199C62.0187 48.8107 61.8235 49.4414 61.5532 50.0121C61.3129 50.5827 60.9375 50.9281 60.4269 51.0482H39.5229C37.841 51.0482 37 50.5977 37 49.6967C37.4505 45.3718 38.4867 41.6626 40.1086 38.5692C41.7304 35.4456 43.8929 32.9829 46.596 31.1808C49.2991 29.3788 52.3476 28.0723 55.7415 27.2614C59.1354 26.4205 63.0098 26 67.3648 26C70.5185 26 73.5219 26.2553 76.3752 26.7659C79.2285 27.2464 81.9466 28.0423 84.5295 29.1536C87.1125 30.2348 89.3351 31.5863 91.1972 33.2081C93.0894 34.7999 94.5911 36.7821 95.7024 39.1548C96.8136 41.5275 97.3693 44.1705 97.3693 47.0838Z" fill="#4B9AE8"/>
<path d="M64.4263 65.8525C71.8414 65.8525 77.8526 59.8414 77.8526 52.4263C77.8526 45.0112 71.8414 39 64.4263 39C57.0112 39 51 45.0112 51 52.4263C51 59.8414 57.0112 65.8525 64.4263 65.8525Z" fill="white"/>
<path d="M64.4245 59.5769C68.3736 59.5769 71.575 56.3755 71.575 52.4264C71.575 48.4773 68.3736 45.2759 64.4245 45.2759C60.4754 45.2759 57.274 48.4773 57.274 52.4264C57.274 56.3755 60.4754 59.5769 64.4245 59.5769Z" fill="#040000"/>
</svg>
