<svg width="200" height="200" viewBox="0 0 200 200" fill="none" xmlns="http://www.w3.org/2000/svg">
<mask id="path-1-outside-1_1347_1584" maskUnits="userSpaceOnUse" x="26.55" y="26.5498" width="147" height="147" fill="black">
<rect fill="white" x="26.55" y="26.5498" width="147" height="147"/>
<path d="M99.7746 32.5498C117.604 32.5498 134.703 39.6324 147.31 52.2393C159.917 64.8463 167 81.9454 167 99.7744C167 117.604 159.917 134.702 147.31 147.31C134.703 159.917 117.604 167 99.7746 167C82.9293 167 66.7373 160.676 54.3683 149.345C51.361 150.83 47.1874 151.317 45.1164 149.648C42.4363 147.488 42.5371 141.117 44.4767 138.001C36.7643 126.844 32.55 113.526 32.55 99.7744C32.5501 81.9454 39.6324 64.8463 52.2394 52.2393C64.8465 39.6322 81.9456 32.5499 99.7746 32.5498Z"/>
</mask>
<path d="M99.7746 32.5498C117.604 32.5498 134.703 39.6324 147.31 52.2393C159.917 64.8463 167 81.9454 167 99.7744C167 117.604 159.917 134.702 147.31 147.31C134.703 159.917 117.604 167 99.7746 167C82.9293 167 66.7373 160.676 54.3683 149.345C51.361 150.83 47.1874 151.317 45.1164 149.648C42.4363 147.488 42.5371 141.117 44.4767 138.001C36.7643 126.844 32.55 113.526 32.55 99.7744C32.5501 81.9454 39.6324 64.8463 52.2394 52.2393C64.8465 39.6322 81.9456 32.5499 99.7746 32.5498Z" fill="#276288"/>
<path d="M99.7746 32.5498V26.5498H99.7746L99.7746 32.5498ZM147.31 52.2393L151.552 47.9966L151.552 47.9966L147.31 52.2393ZM167 99.7744H173V99.7744L167 99.7744ZM99.7746 167L99.7746 173H99.7746V167ZM54.3683 149.345L58.4213 144.921C56.5961 143.248 53.9313 142.869 51.7118 143.965L54.3683 149.345ZM45.1164 149.648L41.351 154.32L41.3516 154.32L45.1164 149.648ZM44.4767 138.001L49.5707 141.171C50.834 139.142 50.7717 136.556 49.4123 134.589L44.4767 138.001ZM32.55 99.7744L26.55 99.7744V99.7744H32.55ZM99.7746 32.5498V38.5498C116.012 38.5498 131.585 45.0002 143.067 56.4819L147.31 52.2393L151.552 47.9966C137.82 34.2645 119.195 26.5498 99.7746 26.5498V32.5498ZM147.31 52.2393L143.067 56.4819C154.549 67.9638 161 83.5368 161 99.7745L167 99.7744L173 99.7744C173 80.3539 165.285 61.7288 151.552 47.9966L147.31 52.2393ZM167 99.7744H161C161 116.012 154.549 131.585 143.067 143.067L147.31 147.31L151.552 151.552C165.285 137.82 173 119.195 173 99.7744H167ZM147.31 147.31L143.067 143.067C131.585 154.549 116.012 161 99.7746 161V167V173C119.195 173 137.82 165.284 151.552 151.552L147.31 147.31ZM99.7746 167L99.7746 161C84.4334 161 69.6865 155.24 58.4213 144.921L54.3683 149.345L50.3154 153.769C63.7881 166.111 81.4252 173 99.7746 173L99.7746 167ZM54.3683 149.345L51.7118 143.965C50.8918 144.37 49.8767 144.64 49.0382 144.69C48.6354 144.713 48.4076 144.678 48.3423 144.663C48.2728 144.647 48.5236 144.688 48.8812 144.977L45.1164 149.648L41.3516 154.32C44.0593 156.502 47.3975 156.807 49.7443 156.669C52.2623 156.52 54.8376 155.805 57.0248 154.725L54.3683 149.345ZM45.1164 149.648L48.8818 144.977C49.3345 145.342 49.3629 145.618 49.2673 145.348C49.1819 145.108 49.0808 144.65 49.0615 144.004C49.0426 143.373 49.107 142.719 49.2354 142.148C49.3701 141.549 49.5298 141.237 49.5707 141.171L44.4767 138.001L39.3828 134.831C37.6148 137.671 36.9755 141.307 37.0668 144.363C37.1509 147.175 37.933 151.565 41.351 154.32L45.1164 149.648ZM44.4767 138.001L49.4123 134.589C42.388 124.428 38.55 112.299 38.55 99.7744H32.55H26.55C26.55 114.754 31.1407 129.26 39.5412 141.413L44.4767 138.001ZM32.55 99.7744L38.55 99.7745C38.5501 83.5366 45.0003 67.9637 56.4821 56.4819L52.2394 52.2393L47.9968 47.9966C34.2645 61.7289 26.5501 80.3541 26.55 99.7744L32.55 99.7744ZM52.2394 52.2393L56.4821 56.4819C67.9638 45.0001 83.5368 38.5499 99.7746 38.5498L99.7746 32.5498L99.7746 26.5498C80.3543 26.5499 61.7291 34.2643 47.9968 47.9966L52.2394 52.2393Z" fill="white" mask="url(#path-1-outside-1_1347_1584)"/>
<path d="M32.55 99.7748C32.55 117.604 39.6326 134.703 52.2397 147.31C64.8469 159.917 81.9458 167 99.775 167C117.604 167 134.703 159.917 147.31 147.31C159.917 134.703 167 117.604 167 99.7748C167 81.9456 159.917 64.8467 147.31 52.2396C134.703 39.6324 117.604 32.5498 99.775 32.5498C81.9458 32.5498 64.8469 39.6324 52.2397 52.2396C39.6326 64.8467 32.55 81.9456 32.55 99.7748Z" fill="#7AB9F8"/>
<path d="M57.0867 147.317C54.7868 150.167 47.9632 151.943 45.1162 149.648C42.2692 147.353 42.5598 140.308 44.8597 137.458C47.1595 134.609 50.8838 133.8 55.1374 137.232C59.3909 140.663 59.3888 144.473 57.089 147.322L57.0867 147.317Z" fill="#EAC00F"/>
<path d="M54.5762 128.746C59.7897 128.746 64.0161 124.52 64.0161 119.306C64.0161 114.093 59.7897 109.866 54.5762 109.866C49.3628 109.866 45.1364 114.093 45.1364 119.306C45.1364 124.52 49.3628 128.746 54.5762 128.746Z" fill="white"/>
<path d="M54.5764 124.341C57.3573 124.341 59.6116 122.087 59.6116 119.306C59.6116 116.525 57.3573 114.271 54.5764 114.271C51.7956 114.271 49.5413 116.525 49.5413 119.306C49.5413 122.087 51.7956 124.341 54.5764 124.341Z" fill="#040000"/>
<path d="M99.775 51.7666C115.931 51.779 131.541 57.6089 143.75 68.1895C155.959 78.7701 163.949 93.3935 166.258 109.383C166.728 106.201 166.976 102.991 167 99.7748C167 81.9456 159.917 64.8467 147.31 52.2396C134.703 39.6324 117.604 32.5498 99.775 32.5498C81.9458 32.5498 64.8469 39.6324 52.2397 52.2396C39.6326 64.8467 32.55 81.9456 32.55 99.7748C32.5739 102.991 32.8217 106.201 33.2917 109.383C35.6008 93.3935 43.591 78.7701 55.7998 68.1895C68.0086 57.6089 83.6194 51.779 99.775 51.7666Z" fill="#D7E8FC"/>
<path d="M115.71 40.1914C115.71 40.1914 111.811 67.7463 128.634 92.5596C142.726 113.395 156.717 114.08 162.01 113.912" stroke="#276288" stroke-width="2.52852" stroke-linecap="round" stroke-linejoin="round"/>
<path d="M39.2927 81.5469C42.6641 82.2886 63.6002 87.5697 78.1645 106.989C91.9534 125.396 87.3909 155.11 86.0423 162.46" stroke="#276288" stroke-width="2.52852" stroke-linecap="round" stroke-linejoin="round"/>
<path d="M126.213 44.9151C126.411 43.6603 126.106 42.3779 125.364 41.3468C124.622 40.3157 123.503 39.6192 122.25 39.4086L110.393 37.4629C109.144 37.267 107.869 37.5692 106.841 38.3044C105.813 39.0395 105.115 40.1489 104.897 41.3936C104.789 42.016 104.807 42.6536 104.949 43.2691C105.091 43.8846 105.354 44.4656 105.723 44.9783C106.092 45.4909 106.559 45.9249 107.098 46.2549C107.636 46.5849 108.235 46.8042 108.859 46.9001L120.717 48.8458C121.966 49.0416 123.241 48.7395 124.269 48.0043C125.297 47.2692 125.995 46.1598 126.213 44.9151Z" fill="#B7D0ED"/>
<path d="M127.589 62.6895C127.382 61.4361 126.688 60.3151 125.659 59.5702C124.63 58.8253 123.349 58.5166 122.093 58.7113L110.226 60.5992C108.98 60.8065 107.864 61.495 107.12 62.5165C106.376 63.538 106.063 64.8107 106.248 66.0608C106.342 66.6854 106.56 67.2849 106.888 67.8244C107.217 68.3639 107.649 68.8325 108.161 69.2029C108.673 69.5732 109.253 69.838 109.868 69.9815C110.483 70.1251 111.121 70.1446 111.743 70.039L123.611 68.1511C124.857 67.9438 125.973 67.2553 126.717 66.2338C127.461 65.2123 127.774 63.9396 127.589 62.6895Z" fill="#276288"/>
<path d="M64.9825 81.2664C64.4446 80.941 63.8479 80.7247 63.2264 80.6299C62.6049 80.5351 61.9708 80.5637 61.3603 80.714C60.7498 80.8642 60.1749 81.1333 59.6684 81.5057C59.162 81.8782 58.7338 82.3467 58.4084 82.8847L52.2051 93.201C51.662 94.2895 51.5505 95.543 51.8929 96.7102C52.2353 97.8774 53.0062 98.872 54.0511 99.4947C55.096 100.117 56.3377 100.322 57.5272 100.068C58.7166 99.8134 59.766 99.1188 60.4649 98.1232L66.6345 87.8406C66.9585 87.3006 67.1727 86.7021 67.265 86.0792C67.3573 85.4564 67.3259 84.8214 67.1724 84.2108C67.019 83.6001 66.7465 83.0257 66.3708 82.5204C65.995 82.0152 65.5232 81.5891 64.9825 81.2664Z" fill="#276288"/>
<path d="M45.3949 72.2976C44.7817 72.1189 44.139 72.0648 43.5045 72.1383C42.8701 72.2118 42.2568 72.4115 41.7007 72.7257C41.1446 73.0398 40.657 73.4621 40.2667 73.9676C39.8763 74.4731 39.591 75.0515 39.4276 75.669L36.0562 87.1653C36.0052 88.2584 36.3276 89.3364 36.9704 90.222C37.6132 91.1076 38.5382 91.7482 39.5933 92.0384C40.6484 92.3287 41.7709 92.2514 42.7762 91.8191C43.7815 91.3869 44.6099 90.6255 45.1252 89.6601L48.4965 78.1638C48.8376 76.9747 48.7052 75.6997 48.1269 74.6061C47.5487 73.5125 46.5696 72.6852 45.3949 72.2976Z" fill="#B7D0ED"/>
<path d="M83.8622 96.0657C83.0201 95.1205 81.8379 94.5473 80.5743 94.4715C79.3107 94.3957 78.0685 94.8234 77.1194 95.6612L68.1516 103.618C67.6801 104.036 67.2956 104.543 67.0201 105.11C66.7446 105.677 66.5835 106.293 66.5459 106.922C66.5083 107.551 66.5951 108.182 66.8012 108.777C67.0073 109.373 67.3287 109.923 67.7471 110.394C68.1654 110.866 68.6726 111.25 69.2396 111.526C69.8065 111.801 70.4222 111.962 71.0515 112C71.6807 112.037 72.3112 111.951 72.907 111.744C73.5027 111.538 74.052 111.217 74.5235 110.799L83.4913 102.842C83.9619 102.422 84.345 101.914 84.6185 101.346C84.892 100.777 85.0505 100.161 85.085 99.531C85.1194 98.9013 85.0291 98.2711 84.8193 97.6764C84.6095 97.0817 84.2842 96.5343 83.8622 96.0657Z" fill="#276288"/>
<path d="M95.8642 118.621C95.6965 118.009 95.4099 117.437 95.0208 116.937C94.6317 116.436 94.1477 116.018 93.5966 115.705C93.0455 115.391 92.438 115.19 91.8089 115.112C91.1799 115.034 90.5416 115.081 89.9306 115.249L78.3668 118.621C77.7272 118.763 77.1233 119.034 76.5919 119.417C76.0606 119.8 75.6129 120.288 75.2762 120.85C74.9396 121.412 74.7211 122.037 74.634 122.686C74.5469 123.336 74.5931 123.996 74.7698 124.627C74.9465 125.258 75.2499 125.846 75.6615 126.356C76.0731 126.866 76.5843 127.286 77.1639 127.592C77.7435 127.897 78.3793 128.082 79.0324 128.133C79.6856 128.185 80.3424 128.103 80.9628 127.892L92.5266 124.521C93.1335 124.353 93.7015 124.067 94.1979 123.68C94.6943 123.293 95.1094 122.811 95.4194 122.263C95.7294 121.715 95.9283 121.111 96.0046 120.486C96.081 119.861 96.0333 119.227 95.8642 118.621Z" fill="#276288"/>
<path d="M94.4819 136.86L82.4799 136.591C81.818 136.521 81.1488 136.59 80.5146 136.792C79.8804 136.993 79.2948 137.324 78.7948 137.764C78.2948 138.203 77.8912 138.741 77.6094 139.344C77.3276 139.947 77.1736 140.602 77.1573 141.267C77.1409 141.932 77.2625 142.594 77.5144 143.21C77.7663 143.826 78.143 144.383 78.6209 144.847C79.0987 145.31 79.6673 145.669 80.2908 145.902C80.9144 146.135 81.5794 146.236 82.2439 146.199L94.2797 146.469C95.4886 146.396 96.626 145.871 97.4656 144.999C98.3052 144.126 98.7855 142.969 98.811 141.758C98.8365 140.547 98.4053 139.371 97.6032 138.464C96.8011 137.556 95.6868 136.984 94.4819 136.86Z" fill="#276288"/>
<path d="M93.4031 156.279L81.6371 153.919C81.0193 153.791 80.3824 153.786 79.7629 153.905C79.1433 154.024 78.5535 154.265 78.0271 154.612C77.5008 154.96 77.0484 155.409 76.6959 155.932C76.3434 156.455 76.0978 157.043 75.9732 157.661C75.7341 158.912 75.9959 160.206 76.7022 161.266C77.4085 162.325 78.5027 163.065 79.7491 163.325L91.5152 165.685C92.1329 165.813 92.7698 165.817 93.3893 165.698C94.0089 165.579 94.5987 165.339 95.1251 164.991C95.6514 164.644 96.1038 164.195 96.4563 163.672C96.8088 163.149 97.0544 162.561 97.179 161.943C97.4182 160.692 97.1564 159.398 96.4501 158.338C95.7438 157.279 94.6495 156.539 93.4031 156.279Z" fill="#276288"/>
<path d="M133.219 80.5577C132.88 80.0103 132.434 79.5371 131.907 79.1661C131.381 78.7952 130.785 78.5343 130.156 78.3989C129.526 78.2636 128.876 78.2566 128.244 78.3785C127.612 78.5003 127.01 78.7484 126.476 79.108L116.632 85.6147C115.663 86.3471 115.006 87.4183 114.793 88.6141C114.579 89.8099 114.825 91.0422 115.481 92.0645C116.137 93.0868 117.155 93.8238 118.331 94.1282C119.507 94.4325 120.754 94.2817 121.824 93.706L131.938 87.1992C132.988 86.4876 133.712 85.3886 133.952 84.1434C134.192 82.8982 133.929 81.6086 133.219 80.5577Z" fill="#276288"/>
<path d="M144.884 95.4592C144.354 95.0966 143.756 94.8443 143.127 94.7174C142.497 94.5905 141.849 94.5916 141.219 94.7206C140.59 94.8495 139.994 95.1038 139.465 95.4681C138.936 95.8325 138.486 96.2995 138.141 96.8414L131.398 106.956C130.99 107.48 130.694 108.084 130.53 108.728C130.366 109.372 130.337 110.044 130.445 110.7C130.553 111.356 130.795 111.983 131.157 112.541C131.519 113.099 131.992 113.576 132.547 113.942C133.103 114.308 133.727 114.555 134.383 114.669C135.038 114.782 135.71 114.758 136.355 114.599C137.001 114.44 137.607 114.149 138.134 113.744C138.662 113.34 139.101 112.831 139.422 112.249L146.165 102.134C146.522 101.613 146.772 101.026 146.9 100.407C147.029 99.7885 147.034 99.1506 146.915 98.53C146.796 97.9094 146.555 97.3186 146.206 96.7916C145.858 96.2645 145.408 95.8117 144.884 95.4592Z" fill="#276288"/>
<path d="M162.078 104.629C160.858 104.309 159.56 104.484 158.468 105.115C157.376 105.747 156.577 106.783 156.245 108L153.211 119.632C152.997 120.259 152.915 120.924 152.97 121.584C153.025 122.245 153.215 122.887 153.529 123.47C153.843 124.054 154.274 124.567 154.796 124.976C155.317 125.386 155.917 125.684 156.558 125.851C157.199 126.018 157.868 126.051 158.523 125.949C159.178 125.846 159.804 125.609 160.363 125.253C160.922 124.897 161.402 124.43 161.773 123.88C162.143 123.331 162.396 122.711 162.516 122.059L165.517 110.428C165.824 109.203 165.635 107.907 164.991 106.821C164.347 105.734 163.3 104.947 162.078 104.629Z" fill="#276288"/>
</svg>
