<svg width="200" height="200" viewBox="0 0 200 200" fill="none" xmlns="http://www.w3.org/2000/svg">
<mask id="path-1-outside-1_1062_20222" maskUnits="userSpaceOnUse" x="32" y="17.6418" width="136" height="164" fill="black">
<rect fill="white" x="32" y="17.6418" width="136" height="164"/>
<path d="M100.663 23.8859C128.175 21.6854 150.289 34.4637 150.293 58.2609C150.292 58.3345 150.101 71.8776 149.991 90.0031C154.471 90.0755 161.178 94.8434 161.479 99.4484C161.792 104.245 155.25 110.272 150.792 110.609C150.497 110.631 150.205 110.638 149.916 110.633C149.906 121.778 149.947 133.356 150.087 143.887C150.516 175.842 102.689 179.699 83.5805 170.939C70.4561 164.922 61.0016 154.495 61.0014 144.904C61.0014 141.802 61.169 132.152 61.394 120.193C57.6474 105.766 46.1801 95.0812 40.2817 87.3537C34.0549 79.1959 42.1494 68.924 45.8471 71.3204C47.9598 72.6863 56.4453 79.1922 62.103 83.3009C62.3745 69.0857 62.5902 57.1084 62.5903 53.5822C62.5903 40.1565 72.7747 26.1134 100.663 23.8859Z"/>
</mask>
<path d="M100.663 23.8859C128.175 21.6854 150.289 34.4637 150.293 58.2609C150.292 58.3345 150.101 71.8776 149.991 90.0031C154.471 90.0755 161.178 94.8434 161.479 99.4484C161.792 104.245 155.25 110.272 150.792 110.609C150.497 110.631 150.205 110.638 149.916 110.633C149.906 121.778 149.947 133.356 150.087 143.887C150.516 175.842 102.689 179.699 83.5805 170.939C70.4561 164.922 61.0016 154.495 61.0014 144.904C61.0014 141.802 61.169 132.152 61.394 120.193C57.6474 105.766 46.1801 95.0812 40.2817 87.3537C34.0549 79.1959 42.1494 68.924 45.8471 71.3204C47.9598 72.6863 56.4453 79.1922 62.103 83.3009C62.3745 69.0857 62.5902 57.1084 62.5903 53.5822C62.5903 40.1565 72.7747 26.1134 100.663 23.8859Z" fill="#EAC00F"/>
<path d="M100.663 23.8859L101.14 29.8668L101.141 29.8668L100.663 23.8859ZM150.293 58.2609L156.293 58.3455C156.293 58.3169 156.293 58.2883 156.293 58.2597L150.293 58.2609ZM149.991 90.0031L143.991 89.9664C143.971 93.2565 146.604 95.9491 149.894 96.0023L149.991 90.0031ZM161.479 99.4484L167.466 99.0578L167.466 99.0575L161.479 99.4484ZM150.792 110.609L150.34 104.626L150.335 104.626L150.792 110.609ZM149.916 110.633L150.024 104.634C148.415 104.605 146.862 105.224 145.714 106.351C144.566 107.477 143.918 109.018 143.916 110.627L149.916 110.633ZM150.087 143.887L144.088 143.967L144.088 143.967L150.087 143.887ZM83.5805 170.939L81.08 176.393L81.0801 176.393L83.5805 170.939ZM61.0014 144.904L55.0014 144.904L55.0014 144.905L61.0014 144.904ZM61.394 120.193L67.3929 120.305C67.4032 119.759 67.3387 119.213 67.2013 118.684L61.394 120.193ZM40.2817 87.3537L35.5123 90.9941L35.5123 90.9941L40.2817 87.3537ZM45.8471 71.3204L42.5839 76.3555L42.5897 76.3592L45.8471 71.3204ZM62.103 83.3009L58.5773 88.1558C60.386 89.4693 62.775 89.6684 64.7763 88.6724C66.7776 87.6764 68.0592 85.6505 68.1019 83.4155L62.103 83.3009ZM62.5903 53.5822L68.5903 53.5822V53.5822H62.5903ZM100.663 23.8859L101.141 29.8668C113.941 28.8431 124.923 31.3595 132.498 36.3383C139.871 41.1837 144.291 48.491 144.293 58.2621L150.293 58.2609L156.293 58.2597C156.291 44.2336 149.653 33.2531 139.089 26.3103C128.728 19.5007 114.897 16.7283 100.184 17.905L100.663 23.8859ZM150.293 58.2609L144.294 58.1762C144.293 58.2589 144.102 71.8192 143.991 89.9664L149.991 90.0031L155.991 90.0397C156.101 71.936 156.292 58.4102 156.293 58.3455L150.293 58.2609ZM149.991 90.0031L149.894 96.0023C150.039 96.0046 150.53 96.0674 151.316 96.3962C152.065 96.7101 152.873 97.1801 153.609 97.7545C154.352 98.3351 154.892 98.9214 155.217 99.4016C155.556 99.9027 155.506 100.051 155.492 99.8393L161.479 99.4484L167.466 99.0575C167.15 94.2173 163.781 90.4734 160.995 88.2976C158.103 86.0381 154.072 84.0683 150.088 84.0039L149.991 90.0031ZM161.479 99.4484L155.492 99.8389C155.478 99.6288 155.548 99.8097 155.23 100.429C154.929 101.016 154.409 101.733 153.687 102.453C152.971 103.167 152.184 103.757 151.469 104.154C150.704 104.58 150.311 104.628 150.34 104.626L150.792 110.609L151.245 116.591C155.494 116.27 159.514 113.59 162.162 110.949C164.748 108.369 167.792 104.051 167.466 99.0578L161.479 99.4484ZM150.792 110.609L150.335 104.626C150.246 104.633 150.143 104.636 150.024 104.634L149.916 110.633L149.809 116.632C150.267 116.64 150.749 116.629 151.25 116.591L150.792 110.609ZM149.916 110.633L143.916 110.627C143.906 121.788 143.947 133.397 144.088 143.967L150.087 143.887L156.087 143.807C155.947 133.316 155.906 121.769 155.916 110.639L149.916 110.633ZM150.087 143.887L144.088 143.967C144.173 150.278 141.94 154.967 138.323 158.582C134.569 162.333 129.092 165.132 122.595 166.889C109.389 170.459 94.1304 169.175 86.0809 165.484L83.5805 170.939L81.0801 176.393C92.1395 181.463 110.348 182.63 125.726 178.473C133.52 176.366 141.114 172.757 146.805 167.071C152.631 161.249 156.216 153.473 156.087 143.806L150.087 143.887ZM83.5805 170.939L86.081 165.484C80.1752 162.777 75.2497 159.141 71.8768 155.302C68.4481 151.399 67.0014 147.747 67.0014 144.904L61.0014 144.904L55.0014 144.905C55.0015 151.652 58.2822 158.009 62.8619 163.222C67.4974 168.498 73.8614 173.083 81.08 176.393L83.5805 170.939ZM61.0014 144.904H67.0014C67.0014 141.874 67.1673 132.303 67.3929 120.305L61.394 120.193L55.395 120.08C55.1708 132.002 55.0014 141.729 55.0014 144.904H61.0014ZM61.394 120.193L67.2013 118.684C65.0506 110.403 60.743 103.403 56.4481 97.6656C54.2944 94.7883 52.0893 92.1588 50.1172 89.8345C48.0939 87.4496 46.4059 85.4882 45.0511 83.7132L40.2817 87.3537L35.5123 90.9941C37.1067 93.0829 39.064 95.355 40.9668 97.5978C42.9209 99.9011 44.9228 102.293 46.8414 104.857C50.6915 110 53.9908 115.556 55.5866 121.701L61.394 120.193ZM40.2817 87.3537L45.0511 83.7132C43.666 81.8986 43.7663 79.88 44.6676 78.1444C45.14 77.2346 45.649 76.8022 45.7679 76.7264C46.0456 76.5493 44.5162 77.6078 42.5839 76.3555L45.8471 71.3204L49.1103 66.2854C45.3292 63.8349 41.4013 65.2787 39.3159 66.6085C37.0717 68.0396 35.2529 70.2358 34.0179 72.6141C31.5042 77.4547 30.6706 84.6509 35.5123 90.9941L40.2817 87.3537ZM45.8471 71.3204L42.5897 76.3592C44.5431 77.6221 52.5461 83.7758 58.5773 88.1558L62.103 83.3009L65.6287 78.4461C60.3445 74.6086 51.3765 67.7505 49.1045 66.2817L45.8471 71.3204ZM62.103 83.3009L68.1019 83.4155C68.3726 69.2429 68.5902 57.1827 68.5903 53.5822L62.5903 53.5822L56.5903 53.5821C56.5902 57.0341 56.3764 68.9284 56.1041 83.1863L62.103 83.3009ZM62.5903 53.5822H68.5903C68.5903 48.4587 70.4958 43.2422 75.1979 38.9803C79.9726 34.6526 88.0914 30.9091 101.14 29.8668L100.663 23.8859L100.185 17.9049C85.3459 19.0902 74.4285 23.482 67.139 30.0891C59.7769 36.762 56.5903 45.28 56.5903 53.5822H62.5903Z" fill="white" mask="url(#path-1-outside-1_1062_20222)"/>
<path d="M100.662 23.8864C72.7741 26.1138 62.5896 40.156 62.5896 53.5817C62.5896 63.1728 61.001 135.314 61.001 144.904C61.001 154.495 70.4552 164.922 83.5798 170.939C102.689 179.699 150.516 175.842 150.087 143.887C149.599 107.371 150.293 58.2606 150.293 58.2606C150.288 34.4634 128.175 21.6859 100.662 23.8864Z" fill="#8B4C21"/>
<path d="M71.4839 65.6928C88.685 80.0271 116.933 79.2098 133.572 70.3764C149.55 61.8947 150.901 48.0902 140.365 37.1069C131.386 27.744 109.908 22.8137 91.4011 27.0318C70.58 31.7793 54.6162 51.6326 71.4839 65.6928Z" fill="#BB7D53"/>
<path d="M76.0516 63.7531C90.984 76.1972 114.261 74.7411 129.95 67.8207C144.317 61.4798 146.019 49.5149 135.849 38.9379C128.043 30.8213 109.408 26.5302 93.3394 30.191C75.2665 34.3088 61.4071 51.5463 76.0516 63.7531Z" fill="#FFE8B6"/>
<path d="M63.239 84.1212C57.6562 80.1223 48.1062 72.7818 45.8466 71.321C42.1489 68.9245 34.055 79.1956 40.2818 87.3534C46.5086 95.5112 58.9432 106.965 61.9472 122.636C64.9555 138.308 63.239 84.1212 63.239 84.1212Z" fill="#8B4C21"/>
<path d="M42.4172 83.7357C44.8176 84.3634 47.441 80.4606 47.1394 76.711C46.9991 74.9705 46.2269 73.719 45.1127 73.4277C42.7128 72.8001 40.0894 76.7028 40.391 80.4524C40.5308 82.193 41.3035 83.4444 42.4172 83.7357Z" fill="#BB7748"/>
<path d="M106.717 68.4092C96.4599 68.4092 86.1244 64.9307 81.1169 60.8405C77.4282 57.8275 75.5336 53.7921 75.9219 49.7705C76.2321 46.561 78.1541 41.9049 85.5495 37.9425C96.1677 32.2498 107.142 30.5655 117.272 33.0624C127.753 35.6374 138.718 43.8222 137.709 51.4411C136.632 59.5122 121.257 66.5009 113.665 67.8296C111.396 68.2269 109.064 68.4092 106.717 68.4092ZM107.964 36.5091C101.34 36.5091 94.4602 38.3488 87.704 41.9688C83.2624 44.3473 80.7608 47.2003 80.4686 50.2132C80.2267 52.6874 81.5184 55.2757 84.0063 57.3071C89.4068 61.7169 102.307 65.1954 112.884 63.333C120.859 61.9362 132.573 55.3808 133.185 50.8388C133.769 46.4473 125.187 39.7092 116.185 37.495C113.505 36.833 110.757 36.5091 107.964 36.5091Z" fill="#BB7D53"/>
<path d="M105.645 58.5301C101.143 58.5301 96.9436 57.4344 94.5836 55.5033C92.6071 53.8877 91.5981 51.6915 91.8126 49.4731C91.9816 47.7386 92.9765 45.246 96.7613 43.2146C99.6323 41.6761 106.197 40.2702 110.652 40.731C115.697 41.2381 122.635 44.6981 122.471 49.1899C122.202 56.1473 114.957 57.3567 110.16 58.156C108.658 58.4069 107.133 58.5301 105.645 58.5301ZM108.781 45.2095C105.174 45.2095 100.637 46.3189 98.9111 47.2409C97.3726 48.0672 96.4369 49.0393 96.355 49.9115C96.2911 50.5735 96.7064 51.3402 97.4687 51.9657C99.3036 53.4677 104.266 54.5037 109.406 53.6547C115.825 52.5865 117.81 51.5002 117.902 49.0166C117.724 48.0444 114.04 45.657 110.196 45.2734C109.749 45.2322 109.274 45.2095 108.781 45.2095Z" fill="#DDA27A"/>
<path d="M131.5 130C137.299 130 142 125.299 142 119.5C142 113.701 137.299 109 131.5 109C125.701 109 121 113.701 121 119.5C121 125.299 125.701 130 131.5 130Z" fill="white"/>
<path d="M131.337 125.871C134.814 125.871 137.632 123.052 137.632 119.576C137.632 116.099 134.814 113.281 131.337 113.281C127.86 113.281 125.042 116.099 125.042 119.576C125.042 123.052 127.86 125.871 131.337 125.871Z" fill="black"/>
<path d="M86.3867 171.577L88.2173 142.9L90.4542 173.002L86.3867 171.577ZM141.099 164.055L141.911 130.492L144.148 160.594L141.099 164.055Z" fill="#62371A"/>
<path d="M92.8965 119.716L96.1467 98.7669L96.5577 121.546L98.5891 143.102L92.8965 119.716ZM116.894 170.561L116.082 125.002L119.944 158.765L116.894 170.561ZM129.503 107.509L130.115 78.6262L132.448 94.9413C132.521 95.448 132.493 95.9641 132.361 96.4618L129.503 107.509Z" fill="#BB7D53"/>
<path d="M150.792 110.608C155.249 110.271 161.792 104.246 161.479 99.4488C161.166 94.6518 153.9 89.6755 149.443 90.0166C144.985 90.3533 141.576 93.7685 142.043 100.927C142.518 108.168 146.334 110.949 150.792 110.608Z" fill="#EAC00F"/>
</svg>
