<svg width="200" height="200" viewBox="0 0 200 200" fill="none" xmlns="http://www.w3.org/2000/svg">
<mask id="path-1-outside-1_1347_9834" maskUnits="userSpaceOnUse" x="5.09961" y="11" width="189" height="180" fill="black">
<rect fill="white" x="5.09961" y="11" width="189" height="180"/>
<path d="M98.0723 17C98.8881 17 99.7041 17.0168 100.512 17.082C122.987 18.4036 140.82 38.04 140.82 64.0723C140.82 67.0011 139.956 72.8992 139.54 73.2744C139.638 73.3315 139.727 73.3886 139.801 73.4375C140.519 73.8943 140.854 74.1797 140.854 74.1797C142.523 75.3737 144.124 76.6376 145.651 77.9639L171.743 70.4248C180.546 67.8867 188.801 72.9345 188.034 80.4277L188.051 80.4453L188.045 80.4512C188.045 80.4513 188.044 80.4538 188.045 80.457C188.052 80.4453 188.057 80.4395 188.057 80.4395C188.057 80.4395 187.986 84.3539 186.062 90.3779C186.055 90.3974 186.05 90.4171 186.044 90.4365C185.998 90.598 185.94 90.7595 185.888 90.9268C185.784 91.2497 185.668 91.5726 185.559 91.9014C185.38 92.4263 185.172 92.9457 184.953 93.4648C184.544 94.4974 184.077 95.5304 183.546 96.5342C182.583 98.4089 181.44 100.22 180.073 101.934C178.816 103.526 177.373 105.014 175.712 106.375C173.637 108.104 171.21 109.642 168.398 110.888C168.396 110.889 168.393 110.891 168.391 110.893C167.194 111.487 165.972 111.991 164.732 112.415C164.845 113.312 164.936 114.216 165.001 115.125C165.091 116.332 165.14 117.548 165.14 118.771H165.132C165.132 119.848 165.09 120.926 165.033 121.97C165.025 122.059 165.018 122.141 165.018 122.223C164.324 132.265 160.62 141.231 154.665 148.736C149.707 154.999 143.182 160.231 135.541 164.205L138.842 169.054L149.665 171.514C151.077 171.834 151.961 173.239 151.641 174.65C151.32 176.062 149.915 176.947 148.504 176.626L142.307 175.218L144.885 179.99C145.573 181.264 145.098 182.855 143.824 183.543C142.551 184.23 140.96 183.755 140.272 182.482L137.743 177.801L135.88 183.015C135.392 184.377 133.892 185.088 132.529 184.601C131.167 184.113 130.457 182.613 130.943 181.25L134.339 171.755L130.744 166.474C128.437 167.459 126.047 168.34 123.583 169.106C120.858 169.971 118.035 170.681 115.139 171.26C111.158 172.051 107.038 172.557 102.804 172.77C101.955 172.818 101.099 172.851 100.242 172.867C99.5244 172.875 98.7982 172.884 98.0723 172.884C97.3463 172.884 96.628 172.875 95.9102 172.867C90.9176 172.753 86.0555 172.231 81.3975 171.342C78.5095 170.787 75.6867 170.086 72.9619 169.237C71.6278 168.829 70.3159 168.386 69.0264 167.913L66.4121 171.755L69.8076 181.25C70.2945 182.613 69.5845 184.113 68.2217 184.601C66.8589 185.087 65.3586 184.377 64.8711 183.015L63.0078 177.801L60.4785 182.482C59.7904 183.755 58.2001 184.23 56.9268 183.543C55.6532 182.855 55.1786 181.264 55.8662 179.99L58.4443 175.218L52.2471 176.626C50.8357 176.946 49.4312 176.062 49.1104 174.65C48.7897 173.239 49.6745 171.835 51.0859 171.514L61.9092 169.054L64.0645 165.886C54.9274 161.754 47.1837 155.927 41.4883 148.744C41.4883 148.744 41.4884 148.736 41.4805 148.736C35.5089 141.198 31.7888 132.167 31.1279 122.06C31.1279 121.994 31.1195 121.912 31.1113 121.839C31.0542 120.827 31.0215 119.808 31.0215 118.771C31.0215 117.564 31.062 116.365 31.1436 115.182C31.2125 114.208 31.3104 113.241 31.4346 112.28C28.7364 111.042 26.2092 109.43 23.918 107.41C23.8765 107.374 23.8361 107.336 23.7949 107.299C16.4528 101.297 13.3482 93.6811 12.4346 86.2744C12.359 85.7156 12.2997 85.1632 12.2578 84.6191C11.6973 77.3504 12.8047 72.9053 12.8047 72.9053C12.8047 72.9053 12.8069 72.9136 12.8115 72.9297C12.8127 72.9225 12.8143 72.9154 12.8154 72.9082C14.0179 65.4787 23.2986 62.7397 31.1445 67.4697L49.7061 78.6699C51.4679 77.0844 53.3331 75.585 55.292 74.1797V73.666C55.3001 71.9611 55.333 66.528 55.333 64.0723C55.333 37.1019 74.4712 17.0001 98.0723 17Z"/>
</mask>
<path d="M98.0723 17C98.8881 17 99.7041 17.0168 100.512 17.082C122.987 18.4036 140.82 38.04 140.82 64.0723C140.82 67.0011 139.956 72.8992 139.54 73.2744C139.638 73.3315 139.727 73.3886 139.801 73.4375C140.519 73.8943 140.854 74.1797 140.854 74.1797C142.523 75.3737 144.124 76.6376 145.651 77.9639L171.743 70.4248C180.546 67.8867 188.801 72.9345 188.034 80.4277L188.051 80.4453L188.045 80.4512C188.045 80.4513 188.044 80.4538 188.045 80.457C188.052 80.4453 188.057 80.4395 188.057 80.4395C188.057 80.4395 187.986 84.3539 186.062 90.3779C186.055 90.3974 186.05 90.4171 186.044 90.4365C185.998 90.598 185.94 90.7595 185.888 90.9268C185.784 91.2497 185.668 91.5726 185.559 91.9014C185.38 92.4263 185.172 92.9457 184.953 93.4648C184.544 94.4974 184.077 95.5304 183.546 96.5342C182.583 98.4089 181.44 100.22 180.073 101.934C178.816 103.526 177.373 105.014 175.712 106.375C173.637 108.104 171.21 109.642 168.398 110.888C168.396 110.889 168.393 110.891 168.391 110.893C167.194 111.487 165.972 111.991 164.732 112.415C164.845 113.312 164.936 114.216 165.001 115.125C165.091 116.332 165.14 117.548 165.14 118.771H165.132C165.132 119.848 165.09 120.926 165.033 121.97C165.025 122.059 165.018 122.141 165.018 122.223C164.324 132.265 160.62 141.231 154.665 148.736C149.707 154.999 143.182 160.231 135.541 164.205L138.842 169.054L149.665 171.514C151.077 171.834 151.961 173.239 151.641 174.65C151.32 176.062 149.915 176.947 148.504 176.626L142.307 175.218L144.885 179.99C145.573 181.264 145.098 182.855 143.824 183.543C142.551 184.23 140.96 183.755 140.272 182.482L137.743 177.801L135.88 183.015C135.392 184.377 133.892 185.088 132.529 184.601C131.167 184.113 130.457 182.613 130.943 181.25L134.339 171.755L130.744 166.474C128.437 167.459 126.047 168.34 123.583 169.106C120.858 169.971 118.035 170.681 115.139 171.26C111.158 172.051 107.038 172.557 102.804 172.77C101.955 172.818 101.099 172.851 100.242 172.867C99.5244 172.875 98.7982 172.884 98.0723 172.884C97.3463 172.884 96.628 172.875 95.9102 172.867C90.9176 172.753 86.0555 172.231 81.3975 171.342C78.5095 170.787 75.6867 170.086 72.9619 169.237C71.6278 168.829 70.3159 168.386 69.0264 167.913L66.4121 171.755L69.8076 181.25C70.2945 182.613 69.5845 184.113 68.2217 184.601C66.8589 185.087 65.3586 184.377 64.8711 183.015L63.0078 177.801L60.4785 182.482C59.7904 183.755 58.2001 184.23 56.9268 183.543C55.6532 182.855 55.1786 181.264 55.8662 179.99L58.4443 175.218L52.2471 176.626C50.8357 176.946 49.4312 176.062 49.1104 174.65C48.7897 173.239 49.6745 171.835 51.0859 171.514L61.9092 169.054L64.0645 165.886C54.9274 161.754 47.1837 155.927 41.4883 148.744C41.4883 148.744 41.4884 148.736 41.4805 148.736C35.5089 141.198 31.7888 132.167 31.1279 122.06C31.1279 121.994 31.1195 121.912 31.1113 121.839C31.0542 120.827 31.0215 119.808 31.0215 118.771C31.0215 117.564 31.062 116.365 31.1436 115.182C31.2125 114.208 31.3104 113.241 31.4346 112.28C28.7364 111.042 26.2092 109.43 23.918 107.41C23.8765 107.374 23.8361 107.336 23.7949 107.299C16.4528 101.297 13.3482 93.6811 12.4346 86.2744C12.359 85.7156 12.2997 85.1632 12.2578 84.6191C11.6973 77.3504 12.8047 72.9053 12.8047 72.9053C12.8047 72.9053 12.8069 72.9136 12.8115 72.9297C12.8127 72.9225 12.8143 72.9154 12.8154 72.9082C14.0179 65.4787 23.2986 62.7397 31.1445 67.4697L49.7061 78.6699C51.4679 77.0844 53.3331 75.585 55.292 74.1797V73.666C55.3001 71.9611 55.333 66.528 55.333 64.0723C55.333 37.1019 74.4712 17.0001 98.0723 17Z" fill="#040000"/>
<path d="M98.0723 17V11H98.0722L98.0723 17ZM100.512 17.082L100.028 23.0625L100.16 23.0717L100.512 17.082ZM140.82 64.0723L146.82 64.0724V64.0723H140.82ZM139.54 73.2744L135.521 68.819L136.516 78.4568L139.54 73.2744ZM139.801 73.4375L136.473 78.4298L136.579 78.4995L139.801 73.4375ZM140.854 74.1797L136.962 78.7465L137.364 79.0603L140.854 74.1797ZM145.651 77.9639L141.718 82.4943L147.317 83.7281L145.651 77.9639ZM171.743 70.4248L170.081 64.6597L170.078 64.6606L171.743 70.4248ZM188.034 80.4277L182.065 79.8168L183.672 84.5475L188.034 80.4277ZM188.051 80.4453L192.293 84.688L192.413 76.3256L188.051 80.4453ZM188.045 80.4512L183.802 76.2085L182.35 82.3388L188.045 80.4512ZM188.045 80.457L182.272 82.0933L193.189 83.5447L188.045 80.457ZM188.057 80.4395L194.056 80.5475L183.37 76.6934L188.057 80.4395ZM186.062 90.3779L180.346 88.5519L180.335 88.588L186.062 90.3779ZM186.044 90.4365L180.32 88.6386L180.275 88.7882L186.044 90.4365ZM185.888 90.9268L191.6 92.7628L191.618 92.7052L185.888 90.9268ZM185.559 91.9014L191.238 93.8361L191.251 93.7988L185.559 91.9014ZM184.953 93.4648L179.426 91.131L179.376 91.2526L184.953 93.4648ZM183.546 96.5342L178.242 93.7297L178.209 93.7919L183.546 96.5342ZM180.073 101.934L175.383 98.1912L175.365 98.2146L180.073 101.934ZM175.712 106.375L171.909 101.734L171.871 101.766L175.712 106.375ZM168.398 110.888L165.969 105.402L165.728 105.515L168.398 110.888ZM168.391 110.893L171.058 116.267L171.06 116.266L168.391 110.893ZM164.732 112.415L162.789 106.739L158.779 113.164L164.732 112.415ZM165.001 115.125L159.016 115.552L159.017 115.57L165.001 115.125ZM165.14 118.771V124.771L171.14 118.771H165.14ZM165.132 118.771V112.771L159.132 118.771L165.132 118.771ZM165.033 121.97L171.009 122.513L171.024 122.297L165.033 121.97ZM165.018 122.223L171.003 122.636L171.018 122.223H165.018ZM154.665 148.736L149.965 145.007L149.961 145.012L154.665 148.736ZM135.541 164.205L132.772 158.882L130.581 167.582L135.541 164.205ZM138.842 169.054L133.882 172.43L137.512 174.904L138.842 169.054ZM149.665 171.514L148.335 177.364L148.336 177.365L149.665 171.514ZM151.641 174.65L157.491 175.981L157.492 175.98L151.641 174.65ZM148.504 176.626L147.174 182.477L147.175 182.477L148.504 176.626ZM142.307 175.218L143.636 169.367L137.028 178.07L142.307 175.218ZM144.885 179.99L150.164 177.139L150.164 177.138L144.885 179.99ZM143.824 183.543L146.674 188.823L146.676 188.822L143.824 183.543ZM140.272 182.482L134.994 185.334L134.994 185.335L140.272 182.482ZM137.743 177.801L143.022 174.949L132.093 175.782L137.743 177.801ZM135.88 183.015L141.529 185.036L141.53 185.034L135.88 183.015ZM132.529 184.601L130.509 190.25L130.51 190.251L132.529 184.601ZM130.943 181.25L125.294 179.23L125.293 179.232L130.943 181.25ZM134.339 171.755L139.988 173.775L139.299 168.379L134.339 171.755ZM130.744 166.474L135.704 163.098L128.387 160.956L130.744 166.474ZM123.583 169.106L121.801 163.377L121.768 163.388L123.583 169.106ZM115.139 171.26L116.308 177.145L116.315 177.143L115.139 171.26ZM102.804 172.77L102.504 166.777L102.458 166.779L102.804 172.77ZM100.242 172.867L100.31 178.867L100.356 178.866L100.242 172.867ZM98.0723 172.884L98.0723 178.884H98.0723V172.884ZM95.9102 172.867L95.7729 178.866L95.842 178.867L95.9102 172.867ZM81.3975 171.342L80.2656 177.234L80.2724 177.235L81.3975 171.342ZM72.9619 169.237L74.7457 163.509L74.7186 163.5L72.9619 169.237ZM69.0264 167.913L71.0913 162.28L64.0659 164.538L69.0264 167.913ZM66.4121 171.755L61.4517 168.379L60.7625 173.775L66.4121 171.755ZM69.8076 181.25L75.4579 179.231L75.4572 179.23L69.8076 181.25ZM68.2217 184.601L70.2405 190.251L70.2421 190.25L68.2217 184.601ZM64.8711 183.015L59.2211 185.034L59.2218 185.036L64.8711 183.015ZM63.0078 177.801L68.6579 175.782L57.729 174.949L63.0078 177.801ZM60.4785 182.482L65.7568 185.335L65.7574 185.334L60.4785 182.482ZM56.9268 183.543L54.0752 188.822L54.0763 188.823L56.9268 183.543ZM55.8662 179.99L50.5872 177.138L50.5866 177.14L55.8662 179.99ZM58.4443 175.218L63.7233 178.07L57.1148 169.367L58.4443 175.218ZM52.2471 176.626L53.5757 182.477L53.5766 182.477L52.2471 176.626ZM49.1104 174.65L43.2594 175.98L43.2597 175.981L49.1104 174.65ZM51.0859 171.514L49.7561 165.663L49.756 165.663L51.0859 171.514ZM61.9092 169.054L63.239 174.904L66.87 172.429L61.9092 169.054ZM64.0645 165.886L69.0252 169.261L66.5366 160.419L64.0645 165.886ZM41.4883 148.744L35.489 148.651L36.7868 152.472L41.4883 148.744ZM41.4805 148.736L36.7774 152.462L41.3677 154.735L41.4805 148.736ZM31.1279 122.06H25.1279L25.1407 122.451L31.1279 122.06ZM31.1113 121.839L25.1209 122.177L25.148 122.501L31.1113 121.839ZM31.0215 118.771H25.0215V118.771L31.0215 118.771ZM31.1436 115.182L25.1585 114.758L25.1578 114.769L31.1436 115.182ZM31.4346 112.28L37.3851 113.049L33.9365 106.827L31.4346 112.28ZM23.918 107.41L19.9488 111.91L19.9502 111.911L23.918 107.41ZM23.7949 107.299L27.7853 102.818L27.5924 102.653L23.7949 107.299ZM12.4346 86.2744L18.3894 85.5399L18.3804 85.4699L12.4346 86.2744ZM12.2578 84.6191L18.2401 84.1591L18.2401 84.1578L12.2578 84.6191ZM12.8047 72.9053L18.6011 71.3555L6.98264 71.4548L12.8047 72.9053ZM12.8115 72.9297L7.04361 74.5823L18.7343 73.8893L12.8115 72.9297ZM12.8154 72.9082L18.7378 73.8701L18.7384 73.8668L12.8154 72.9082ZM31.1445 67.4697L34.2444 62.3325L34.2423 62.3313L31.1445 67.4697ZM49.7061 78.6699L46.6062 83.8071L53.7197 83.1299L49.7061 78.6699ZM55.292 74.1797L58.7895 79.0549L61.292 74.1797H55.292ZM55.292 73.666L49.2921 73.6373L49.292 73.666H55.292ZM55.333 64.0723L61.333 64.0723V64.0723H55.333ZM98.0723 17V23C98.8165 23 99.4513 23.0159 100.028 23.0625L100.512 17.082L100.995 11.1015C99.9568 11.0176 98.9596 11 98.0723 11V17ZM100.512 17.082L100.16 23.0717C119.049 24.1824 134.82 40.7847 134.82 64.0723H140.82H146.82C146.82 35.2953 126.925 12.6248 100.864 11.0924L100.512 17.082ZM140.82 64.0723L134.82 64.0721C134.82 65.1202 134.649 67.0042 134.396 68.7873C134.273 69.6523 134.148 70.3673 134.049 70.8337C133.996 71.0815 133.972 71.1511 133.988 71.1008C133.993 71.0833 134.046 70.9131 134.156 70.6689C134.212 70.5444 134.319 70.3224 134.485 70.0553C134.629 69.8242 134.958 69.3271 135.521 68.819L139.54 73.2744L143.559 77.7298C144.57 76.8173 145.015 75.7785 145.09 75.6139C145.259 75.2407 145.372 74.9024 145.441 74.682C145.584 74.2259 145.696 73.7503 145.783 73.3466C145.962 72.51 146.131 71.4971 146.277 70.4746C146.559 68.4826 146.82 65.9532 146.82 64.0724L140.82 64.0723ZM139.54 73.2744L136.516 78.4568C136.502 78.4484 136.492 78.4423 136.487 78.4388C136.481 78.4353 136.476 78.4324 136.473 78.4298L139.801 73.4375L143.129 68.4452C142.978 68.3443 142.785 68.2211 142.564 68.092L139.54 73.2744ZM139.801 73.4375L136.579 78.4995C136.817 78.6509 136.964 78.7562 137.026 78.8018C137.056 78.8246 137.066 78.8325 137.055 78.8238C137.05 78.8195 137.039 78.811 137.024 78.7982C137.016 78.7918 137.007 78.7843 136.997 78.7757C136.991 78.7714 136.986 78.7668 136.98 78.7619C136.977 78.7595 136.974 78.757 136.971 78.7544C136.97 78.7532 136.968 78.7518 136.967 78.7505C136.966 78.7499 136.965 78.7492 136.964 78.7485C136.964 78.7482 136.963 78.7477 136.963 78.7475C136.963 78.747 136.962 78.7465 140.854 74.1797C144.745 69.6129 144.744 69.6124 144.744 69.6119C144.744 69.6117 144.743 69.6112 144.743 69.6108C144.742 69.6101 144.741 69.6094 144.74 69.6087C144.739 69.6074 144.737 69.6059 144.735 69.6045C144.732 69.6017 144.728 69.5988 144.725 69.5958C144.718 69.5898 144.71 69.5835 144.703 69.577C144.687 69.564 144.67 69.55 144.652 69.5349C144.615 69.5047 144.573 69.4703 144.525 69.4321C144.429 69.3557 144.31 69.2637 144.167 69.158C143.882 68.9467 143.502 68.681 143.022 68.3755L139.801 73.4375ZM140.854 74.1797L137.364 79.0603C138.88 80.1443 140.332 81.2912 141.718 82.4943L145.651 77.9639L149.585 73.4334C147.916 71.9839 146.167 70.6031 144.343 69.2991L140.854 74.1797ZM145.651 77.9639L147.317 83.7281L173.409 76.189L171.743 70.4248L170.078 64.6606L143.986 72.1997L145.651 77.9639ZM171.743 70.4248L173.405 76.1899C176.345 75.3422 178.845 75.8621 180.341 76.7796C181.741 77.6382 182.18 78.6933 182.065 79.8168L188.034 80.4277L194.003 81.0387C194.655 74.669 191.35 69.4536 186.614 66.5495C181.973 63.7043 175.944 62.9693 170.081 64.6597L171.743 70.4248ZM188.034 80.4277L183.672 84.5475L183.689 84.5651L188.051 80.4453L192.413 76.3256L192.396 76.308L188.034 80.4277ZM188.051 80.4453L183.808 76.2027L183.802 76.2085L188.045 80.4512L192.288 84.6938L192.293 84.688L188.051 80.4453ZM188.045 80.4512L182.35 82.3388C182.256 82.057 182.196 81.8048 182.156 81.5985C182.115 81.3907 182.091 81.2061 182.075 81.0532C182.06 80.8994 182.052 80.7624 182.048 80.6471C182.044 80.5312 182.044 80.4276 182.046 80.3389C182.049 80.1649 182.06 80.0188 182.069 79.9123C182.079 79.8035 182.09 79.7109 182.1 79.6401C182.119 79.5032 182.138 79.3943 182.15 79.3331C182.162 79.2676 182.174 79.2153 182.18 79.1853C182.187 79.154 182.192 79.1294 182.195 79.1177C182.197 79.1111 182.198 79.1058 182.198 79.1025C182.199 79.0994 182.2 79.0969 182.2 79.0965C182.201 79.0915 182.196 79.1119 182.191 79.1349C182.166 79.2482 182.118 79.4728 182.085 79.7603C182.018 80.3332 182.007 81.1559 182.272 82.0933L188.045 80.457L193.817 78.8208C194.082 79.7549 194.071 80.5748 194.004 81.1456C193.971 81.432 193.924 81.6558 193.899 81.7685C193.893 81.7913 193.889 81.8116 193.89 81.8065C193.89 81.806 193.891 81.8035 193.891 81.8004C193.892 81.7971 193.893 81.7918 193.895 81.7852C193.897 81.7734 193.903 81.7487 193.91 81.7174C193.916 81.6873 193.927 81.635 193.94 81.5695C193.951 81.5083 193.971 81.3993 193.99 81.2623C193.999 81.1916 194.011 81.099 194.021 80.9901C194.03 80.8836 194.041 80.7375 194.044 80.5635C194.046 80.4748 194.046 80.3711 194.042 80.2552C194.038 80.1399 194.03 80.003 194.015 79.8491C193.999 79.6962 193.975 79.5116 193.934 79.3039C193.894 79.0975 193.834 78.8453 193.74 78.5636L188.045 80.4512ZM188.045 80.457L193.189 83.5447C193.117 83.6646 193.044 83.7777 192.969 83.8842C192.932 83.9374 192.894 83.9891 192.857 84.0393C192.838 84.0644 192.819 84.0891 192.8 84.1135C192.791 84.1257 192.781 84.1378 192.772 84.1498C192.767 84.1558 192.762 84.1617 192.758 84.1677C192.755 84.1707 192.753 84.1737 192.751 84.1766C192.749 84.1781 192.748 84.1796 192.747 84.1811C192.747 84.1818 192.746 84.1825 192.745 84.1833C192.745 84.1837 192.745 84.1842 192.744 84.1844C192.744 84.185 192.744 84.1855 188.057 80.4395C183.37 76.6934 183.369 76.694 183.369 76.6945C183.369 76.6947 183.368 76.6953 183.368 76.6956C183.367 76.6964 183.367 76.6971 183.366 76.6978C183.365 76.6993 183.364 76.7008 183.363 76.7023C183.36 76.7053 183.358 76.7083 183.356 76.7112C183.351 76.7172 183.346 76.7232 183.341 76.7293C183.332 76.7414 183.322 76.7536 183.313 76.766C183.293 76.7907 183.274 76.816 183.255 76.8418C183.216 76.8934 183.177 76.9473 183.138 77.0035C183.059 77.1158 182.979 77.2378 182.9 77.3694L188.045 80.457ZM188.057 80.4395C182.058 80.3314 182.058 80.3301 182.058 80.3287C182.058 80.3283 182.058 80.327 182.058 80.3262C182.058 80.3245 182.058 80.3228 182.058 80.3212C182.058 80.3181 182.058 80.3152 182.058 80.3125C182.058 80.3071 182.058 80.3026 182.058 80.299C182.058 80.2919 182.059 80.2885 182.059 80.2887C182.059 80.289 182.058 80.3038 182.057 80.3325C182.054 80.3901 182.048 80.5035 182.034 80.6694C182.008 81.0013 181.954 81.5422 181.846 82.2648C181.631 83.7108 181.2 85.8779 180.346 88.5519L186.062 90.3779L191.777 92.2039C192.847 88.8539 193.414 86.0518 193.715 84.0346C193.866 83.0256 193.95 82.2113 193.997 81.621C194.02 81.3258 194.034 81.0863 194.043 80.9063C194.047 80.8163 194.05 80.741 194.052 80.6811C194.053 80.6511 194.054 80.625 194.054 80.6027C194.055 80.5915 194.055 80.5814 194.055 80.5722C194.055 80.5676 194.055 80.5632 194.055 80.5591C194.055 80.557 194.056 80.555 194.056 80.5531C194.056 80.5521 194.056 80.5507 194.056 80.5503C194.056 80.5489 194.056 80.5475 188.057 80.4395ZM186.062 90.3779L180.335 88.588C180.323 88.6263 180.313 88.6583 180.307 88.6792C180.304 88.6899 180.301 88.699 180.299 88.7053C180.297 88.7111 180.296 88.7167 180.295 88.7182C180.295 88.7207 180.295 88.7197 180.295 88.7179C180.296 88.7158 180.298 88.711 180.299 88.7046C180.303 88.692 180.31 88.6685 180.32 88.6386L186.044 90.4365L191.768 92.2345C191.781 92.1948 191.791 92.1616 191.797 92.1392C191.804 92.1182 191.809 92.0998 191.81 92.0963C191.812 92.0883 191.81 92.0963 191.807 92.1059C191.804 92.1171 191.797 92.1393 191.788 92.1679L186.062 90.3779ZM186.044 90.4365L180.275 88.7882C180.287 88.747 180.292 88.7322 180.269 88.8041C180.263 88.8206 180.239 88.8928 180.225 88.9362C180.207 88.9923 180.183 89.0658 180.157 89.1483L185.888 90.9268L191.618 92.7052C191.618 92.7052 191.619 92.7025 191.621 92.6962C191.623 92.6899 191.626 92.6811 191.63 92.6684C191.643 92.6295 191.646 92.6198 191.667 92.5549C191.697 92.4638 191.755 92.2875 191.813 92.0848L186.044 90.4365ZM185.888 90.9268L180.176 89.0907C180.068 89.4239 180.05 89.4543 179.867 90.004L185.559 91.9014L191.251 93.7988C191.287 93.6909 191.499 93.0756 191.6 92.7628L185.888 90.9268ZM185.559 91.9014L179.879 89.9666C179.765 90.3018 179.618 90.6758 179.426 91.131L184.953 93.4648L190.481 95.7987C190.727 95.2156 190.995 94.5507 191.238 93.8361L185.559 91.9014ZM184.953 93.4648L179.376 91.2526C179.036 92.1095 178.658 92.9419 178.242 93.7297L183.546 96.5342L188.85 99.3387C189.495 98.1189 190.051 96.8853 190.53 95.6771L184.953 93.4648ZM183.546 96.5342L178.209 93.7919C177.41 95.3477 176.479 96.8184 175.383 98.1912L180.073 101.934L184.763 105.676C186.402 103.622 187.755 101.47 188.883 99.2764L183.546 96.5342ZM180.073 101.934L175.365 98.2146C174.366 99.4787 173.226 100.655 171.909 101.734L175.712 106.375L179.515 111.016C181.521 109.372 183.265 107.573 184.782 105.653L180.073 101.934ZM175.712 106.375L171.871 101.766C170.223 103.139 168.271 104.382 165.969 105.402L168.398 110.888L170.828 116.374C174.149 114.903 177.051 113.069 179.553 110.984L175.712 106.375ZM168.398 110.888L165.728 105.515C165.658 105.549 165.595 105.583 165.537 105.614C165.48 105.645 165.428 105.674 165.382 105.701C165.336 105.728 165.294 105.753 165.257 105.776C165.22 105.798 165.187 105.819 165.159 105.837C165.131 105.855 165.106 105.872 165.085 105.885C165.065 105.899 165.047 105.911 165.034 105.92C165.021 105.929 165.01 105.936 165.003 105.94C165 105.943 164.997 105.944 164.996 105.946C164.995 105.946 164.994 105.947 164.994 105.947C164.994 105.947 164.993 105.947 164.993 105.947C164.993 105.947 164.993 105.947 164.993 105.947C164.993 105.948 164.994 105.947 164.995 105.946C164.997 105.945 164.999 105.943 165.003 105.941C165.009 105.937 165.019 105.93 165.032 105.921C165.045 105.912 165.062 105.9 165.083 105.887C165.103 105.874 165.128 105.858 165.156 105.84C165.184 105.822 165.216 105.801 165.253 105.779C165.289 105.756 165.331 105.731 165.377 105.704C165.423 105.678 165.475 105.648 165.532 105.617C165.589 105.587 165.652 105.554 165.721 105.519L168.391 110.893L171.06 116.266C171.13 116.231 171.193 116.198 171.251 116.167C171.308 116.136 171.36 116.107 171.406 116.08C171.453 116.053 171.495 116.028 171.531 116.005C171.568 115.982 171.601 115.962 171.63 115.943C171.658 115.925 171.683 115.909 171.703 115.895C171.724 115.882 171.741 115.87 171.755 115.861C171.768 115.852 171.779 115.845 171.785 115.84C171.789 115.838 171.791 115.836 171.793 115.835C171.794 115.834 171.795 115.834 171.795 115.833C171.795 115.833 171.796 115.833 171.796 115.833C171.796 115.833 171.796 115.833 171.796 115.833C171.796 115.833 171.795 115.833 171.794 115.834C171.792 115.835 171.79 115.837 171.787 115.839C171.78 115.843 171.77 115.851 171.757 115.859C171.744 115.868 171.727 115.88 171.707 115.893C171.687 115.906 171.662 115.922 171.634 115.94C171.606 115.958 171.574 115.979 171.537 116.001C171.501 116.024 171.459 116.049 171.413 116.075C171.367 116.102 171.315 116.131 171.258 116.162C171.202 116.193 171.138 116.226 171.069 116.261L168.398 110.888ZM168.391 110.893L165.723 105.518C164.773 105.99 163.794 106.394 162.789 106.739L164.732 112.415L166.676 118.091C168.15 117.587 169.614 116.984 171.058 116.267L168.391 110.893ZM164.732 112.415L158.779 113.164C158.88 113.962 158.96 114.758 159.016 115.552L165.001 115.125L170.986 114.698C170.913 113.674 170.811 112.663 170.685 111.666L164.732 112.415ZM165.001 115.125L159.017 115.57C159.097 116.641 159.14 117.708 159.14 118.771H165.14H171.14C171.14 117.388 171.084 116.024 170.984 114.68L165.001 115.125ZM165.14 118.771V112.771H165.132V118.771V124.771H165.14V118.771ZM165.132 118.771L159.132 118.771C159.132 119.7 159.096 120.659 159.042 121.642L165.033 121.97L171.024 122.297C171.085 121.192 171.132 119.997 171.132 118.771L165.132 118.771ZM165.033 121.97L159.058 121.426C159.055 121.46 159.018 121.82 159.018 122.223H165.018H171.018C171.018 122.363 171.011 122.468 171.008 122.512C171.007 122.535 171.005 122.549 171.005 122.548C171.006 122.545 171.006 122.539 171.009 122.513L165.033 121.97ZM165.018 122.223L159.032 121.809C158.426 130.581 155.205 138.403 149.965 145.007L154.665 148.736L159.365 152.466C166.036 144.059 170.222 133.949 171.003 122.636L165.018 122.223ZM154.665 148.736L149.961 145.012C145.584 150.54 139.747 155.254 132.772 158.882L135.541 164.205L138.31 169.528C146.617 165.207 153.83 159.457 159.369 152.461L154.665 148.736ZM135.541 164.205L130.581 167.582L133.882 172.43L138.842 169.054L143.802 165.677L140.501 160.829L135.541 164.205ZM138.842 169.054L137.512 174.904L148.335 177.364L149.665 171.514L150.995 165.663L140.172 163.203L138.842 169.054ZM149.665 171.514L148.336 177.365C146.517 176.951 145.376 175.142 145.79 173.321L151.641 174.65L157.492 175.98C158.547 171.336 155.636 166.717 150.994 165.663L149.665 171.514ZM151.641 174.65L145.79 173.32C146.203 171.503 148.011 170.361 149.833 170.775L148.504 176.626L147.175 182.477C151.82 183.532 156.436 180.62 157.491 175.981L151.641 174.65ZM148.504 176.626L149.833 170.775L143.636 169.367L142.307 175.218L140.977 181.069L147.174 182.477L148.504 176.626ZM142.307 175.218L137.028 178.07L139.606 182.842L144.885 179.99L150.164 177.138L147.586 172.366L142.307 175.218ZM144.885 179.99L139.605 182.841C138.72 181.201 139.329 179.152 140.973 178.264L143.824 183.543L146.676 188.822C150.866 186.559 152.426 181.327 150.164 177.139L144.885 179.99ZM143.824 183.543L140.974 178.263C142.615 177.377 144.664 177.988 145.551 179.63L140.272 182.482L134.994 185.335C137.257 189.523 142.486 191.083 146.674 188.823L143.824 183.543ZM140.272 182.482L145.551 179.63L143.022 174.949L137.743 177.801L132.464 180.653L134.994 185.334L140.272 182.482ZM137.743 177.801L132.093 175.782L130.23 180.995L135.88 183.015L141.53 185.034L143.393 179.82L137.743 177.801ZM135.88 183.015L130.231 180.993C130.858 179.239 132.79 178.322 134.549 178.951L132.529 184.601L130.51 190.251C134.994 191.853 139.926 189.516 141.529 185.036L135.88 183.015ZM132.529 184.601L134.55 178.951C136.307 179.579 137.221 181.512 136.594 183.268L130.943 181.25L125.293 179.232C123.692 183.713 126.026 188.647 130.509 190.25L132.529 184.601ZM130.943 181.25L136.593 183.27L139.988 173.775L134.339 171.755L128.689 169.735L125.294 179.23L130.943 181.25ZM134.339 171.755L139.299 168.379L135.704 163.098L130.744 166.474L125.784 169.85L129.379 175.131L134.339 171.755ZM130.744 166.474L128.387 160.956C126.269 161.861 124.071 162.671 121.801 163.377L123.583 169.106L125.365 174.836C128.023 174.009 130.605 173.058 133.102 171.991L130.744 166.474ZM123.583 169.106L121.768 163.388C119.279 164.177 116.671 164.834 113.962 165.376L115.139 171.26L116.315 177.143C119.398 176.527 122.437 175.765 125.398 174.825L123.583 169.106ZM115.139 171.26L113.969 165.375C110.284 166.107 106.455 166.579 102.504 166.777L102.804 172.77L103.104 178.762C107.62 178.536 112.031 177.995 116.308 177.145L115.139 171.26ZM102.804 172.77L102.458 166.779C101.689 166.824 100.91 166.853 100.128 166.868L100.242 172.867L100.356 178.866C101.288 178.848 102.222 178.813 103.149 178.76L102.804 172.77ZM100.242 172.867L100.174 166.868C99.449 166.876 98.7579 166.884 98.0723 166.884V172.884V178.884C98.8385 178.884 99.5998 178.875 100.31 178.867L100.242 172.867ZM98.0723 172.884L98.0723 166.884C97.3867 166.884 96.7039 166.876 95.9783 166.868L95.9102 172.867L95.842 178.867C96.552 178.875 97.3058 178.884 98.0723 178.884L98.0723 172.884ZM95.9102 172.867L96.0474 166.869C91.3827 166.762 86.8511 166.275 82.5225 165.448L81.3975 171.342L80.2724 177.235C85.26 178.187 90.4525 178.744 95.7729 178.866L95.9102 172.867ZM81.3975 171.342L82.5293 165.45C79.849 164.935 77.2445 164.287 74.7457 163.509L72.9619 169.237L71.1781 174.966C74.1289 175.885 77.1701 176.639 80.2656 177.234L81.3975 171.342ZM72.9619 169.237L74.7186 163.5C73.4929 163.125 72.2838 162.717 71.0913 162.28L69.0264 167.913L66.9615 173.547C68.3481 174.055 69.7628 174.533 71.2052 174.974L72.9619 169.237ZM69.0264 167.913L64.0659 164.538L61.4517 168.379L66.4121 171.755L71.3726 175.13L73.9868 171.289L69.0264 167.913ZM66.4121 171.755L60.7625 173.775L64.158 183.27L69.8076 181.25L75.4572 179.23L72.0617 169.735L66.4121 171.755ZM69.8076 181.25L64.1574 183.269C63.5299 181.512 64.4441 179.579 66.2013 178.951L68.2217 184.601L70.2421 190.25C74.7249 188.647 77.0592 183.714 75.4579 179.231L69.8076 181.25ZM68.2217 184.601L66.2029 178.95C67.9606 178.322 69.8923 179.238 70.5204 180.993L64.8711 183.015L59.2218 185.036C60.8249 189.517 65.7573 191.853 70.2405 190.251L68.2217 184.601ZM64.8711 183.015L70.5211 180.995L68.6579 175.782L63.0078 177.801L57.3578 179.82L59.2211 185.034L64.8711 183.015ZM63.0078 177.801L57.729 174.949L55.1997 179.63L60.4785 182.482L65.7574 185.334L68.2867 180.653L63.0078 177.801ZM60.4785 182.482L55.2002 179.629C56.0868 177.989 58.1349 177.377 59.7772 178.263L56.9268 183.543L54.0763 188.823C58.2654 191.084 63.4941 189.522 65.7568 185.335L60.4785 182.482ZM56.9268 183.543L59.7784 178.264C61.4219 179.152 62.0312 181.201 61.1458 182.841L55.8662 179.99L50.5866 177.14C48.3259 181.327 49.8846 186.558 54.0752 188.822L56.9268 183.543ZM55.8662 179.99L61.1452 182.842L63.7233 178.07L58.4443 175.218L53.1654 172.366L50.5872 177.138L55.8662 179.99ZM58.4443 175.218L57.1148 169.367L50.9176 170.775L52.2471 176.626L53.5766 182.477L59.7738 181.069L58.4443 175.218ZM52.2471 176.626L50.9185 170.775C52.7393 170.361 54.5477 171.502 54.961 173.32L49.1104 174.65L43.2597 175.981C44.3148 180.621 48.9321 183.531 53.5757 182.477L52.2471 176.626ZM49.1104 174.65L54.9613 173.321C55.375 175.143 54.2336 176.951 52.4159 177.364L51.0859 171.514L49.756 165.663C45.1153 166.718 42.2043 171.335 43.2594 175.98L49.1104 174.65ZM51.0859 171.514L52.4157 177.364L63.239 174.904L61.9092 169.054L60.5794 163.203L49.7561 165.663L51.0859 171.514ZM61.9092 169.054L66.87 172.429L69.0252 169.261L64.0645 165.886L59.1037 162.511L56.9484 165.679L61.9092 169.054ZM64.0645 165.886L66.5366 160.419C58.1607 156.631 51.2206 151.361 46.1897 145.016L41.4883 148.744L36.7868 152.472C43.1468 160.493 51.6941 166.877 61.5923 171.353L64.0645 165.886ZM41.4883 148.744C47.4876 148.838 47.4876 148.835 47.4876 148.832C47.4877 148.831 47.4877 148.828 47.4877 148.826C47.4878 148.822 47.4878 148.817 47.4879 148.813C47.488 148.805 47.4881 148.797 47.4881 148.788C47.4882 148.772 47.4883 148.755 47.4883 148.738C47.4882 148.703 47.4879 148.667 47.4872 148.631C47.4858 148.557 47.483 148.479 47.4781 148.395C47.4685 148.23 47.4502 148.034 47.4161 147.816C47.3521 147.407 47.2105 146.774 46.8601 146.07C46.4961 145.337 45.8642 144.449 44.8234 143.752C43.7552 143.037 42.6036 142.756 41.5933 142.737L41.4805 148.736L41.3677 154.735C40.3613 154.716 39.2127 154.437 38.1467 153.723C37.1081 153.028 36.4777 152.142 36.1146 151.411C35.7652 150.708 35.624 150.078 35.5602 149.67C35.5262 149.453 35.508 149.258 35.4984 149.093C35.4936 149.009 35.4907 148.931 35.4894 148.857C35.4887 148.821 35.4883 148.785 35.4883 148.751C35.4883 148.733 35.4883 148.716 35.4884 148.7C35.4885 148.691 35.4886 148.683 35.4887 148.675C35.4887 148.671 35.4888 148.667 35.4888 148.663C35.4889 148.661 35.4889 148.658 35.4889 148.657C35.489 148.654 35.489 148.651 41.4883 148.744ZM41.4805 148.736L46.1835 145.011C40.9277 138.376 37.6923 130.495 37.1151 121.668L31.1279 122.06L25.1407 122.451C25.8853 133.839 30.0901 144.021 36.7774 152.462L41.4805 148.736ZM31.1279 122.06H37.1279C37.1279 121.608 37.0772 121.2 37.0746 121.176L31.1113 121.839L25.148 122.501C25.151 122.528 25.1473 122.497 25.1431 122.447C25.1408 122.419 25.1373 122.373 25.1343 122.314C25.1313 122.256 25.1279 122.169 25.1279 122.06H31.1279ZM31.1113 121.839L37.1018 121.501C37.0502 120.587 37.0215 119.681 37.0215 118.771L31.0215 118.771L25.0215 118.771C25.0215 119.934 25.0582 121.068 25.1209 122.177L31.1113 121.839ZM31.0215 118.771H37.0215C37.0215 117.698 37.0575 116.636 37.1293 115.594L31.1436 115.182L25.1578 114.769C25.0664 116.093 25.0215 117.43 25.0215 118.771H31.0215ZM31.1436 115.182L37.1286 115.606C37.1891 114.752 37.2752 113.899 37.3851 113.049L31.4346 112.28L25.4841 111.511C25.3457 112.582 25.236 113.664 25.1585 114.758L31.1436 115.182ZM31.4346 112.28L33.9365 106.827C31.7472 105.822 29.7184 104.525 27.8858 102.909L23.918 107.41L19.9502 111.911C22.7001 114.335 25.7257 116.262 28.9326 117.734L31.4346 112.28ZM23.918 107.41L27.8871 102.911C27.9011 102.923 27.9106 102.931 27.913 102.934C27.9147 102.935 27.914 102.935 27.9045 102.926C27.8981 102.92 27.8799 102.903 27.8621 102.887C27.8428 102.87 27.8162 102.846 27.7853 102.818L23.7949 107.299L19.8046 111.78C19.7942 111.77 19.7881 111.765 19.7893 111.766C19.792 111.768 19.7942 111.77 19.8082 111.783C19.8272 111.8 19.8835 111.852 19.9488 111.91L23.918 107.41ZM23.7949 107.299L27.5924 102.653C21.6778 97.8185 19.1541 91.7396 18.3894 85.5399L12.4346 86.2744L6.4797 87.0089C7.54216 95.6227 11.2277 104.775 19.9975 111.944L23.7949 107.299ZM12.4346 86.2744L18.3804 85.4699C18.3193 85.0183 18.2726 84.581 18.2401 84.1591L12.2578 84.6191L6.27548 85.0792C6.32672 85.7455 6.39864 86.4129 6.48876 87.079L12.4346 86.2744ZM12.2578 84.6191L18.2401 84.1578C17.9902 80.9183 18.1155 78.3507 18.2899 76.6475C18.377 75.7963 18.4762 75.163 18.5463 74.7721C18.5813 74.5767 18.609 74.4422 18.6241 74.3717C18.6317 74.3364 18.6362 74.3172 18.6368 74.3144C18.6371 74.313 18.6365 74.3157 18.6349 74.3226C18.634 74.326 18.633 74.3305 18.6316 74.336C18.6309 74.3388 18.6302 74.3418 18.6294 74.3451C18.629 74.3467 18.6285 74.3484 18.6281 74.3502C18.6279 74.3511 18.6275 74.3524 18.6274 74.3529C18.6271 74.3543 18.6267 74.3557 12.8047 72.9053C6.98264 71.4548 6.98228 71.4563 6.98191 71.4578C6.98179 71.4583 6.98142 71.4597 6.98117 71.4608C6.98066 71.4628 6.98013 71.4649 6.9796 71.4671C6.97852 71.4715 6.97737 71.4761 6.97617 71.481C6.97376 71.4909 6.97109 71.5018 6.96819 71.5139C6.96238 71.538 6.95561 71.5666 6.94796 71.5995C6.93266 71.6654 6.91386 71.7488 6.89225 71.8493C6.84904 72.0502 6.79459 72.3198 6.73455 72.6547C6.61451 73.3244 6.4719 74.2567 6.35225 75.4254C6.11306 77.7619 5.96487 81.0512 6.27557 85.0805L12.2578 84.6191ZM12.8047 72.9053C7.00829 74.455 7.00831 74.4551 7.00834 74.4552C7.00835 74.4553 7.00837 74.4554 7.00839 74.4554C7.00843 74.4556 7.00846 74.4557 7.0085 74.4558C7.00857 74.4561 7.00864 74.4563 7.00871 74.4566C7.00885 74.4571 7.00899 74.4577 7.00913 74.4582C7.00942 74.4593 7.00971 74.4603 7.01 74.4614C7.01058 74.4636 7.01117 74.4658 7.01177 74.468C7.01298 74.4725 7.01423 74.4771 7.01552 74.4818C7.0181 74.4913 7.02086 74.5014 7.0238 74.512C7.02968 74.5332 7.03627 74.5567 7.04361 74.5823L12.8115 72.9297L18.5794 71.2771C18.5822 71.2866 18.5853 71.2978 18.589 71.3109C18.5908 71.3174 18.5927 71.3244 18.5947 71.3318C18.5957 71.3355 18.5967 71.3394 18.5978 71.3433C18.5983 71.3453 18.5989 71.3473 18.5994 71.3493C18.5997 71.3503 18.6 71.3514 18.6003 71.3524C18.6004 71.3529 18.6005 71.3534 18.6007 71.354C18.6007 71.3542 18.6008 71.3545 18.6009 71.3547C18.6009 71.3549 18.6009 71.355 18.601 71.3551C18.601 71.3552 18.601 71.3553 18.601 71.3553C18.6011 71.3554 18.6011 71.3555 12.8047 72.9053ZM12.8115 72.9297L18.7343 73.8893C18.7299 73.9167 18.7257 73.9408 18.7222 73.9609C18.7187 73.981 18.7156 73.9981 18.7132 74.011C18.7109 74.0239 18.7089 74.0342 18.7078 74.04C18.7072 74.043 18.7068 74.0454 18.7065 74.0467C18.7063 74.0478 18.7062 74.0487 18.7063 74.0481C18.7063 74.0479 18.7066 74.0462 18.707 74.0443C18.7074 74.0422 18.708 74.039 18.7087 74.0352C18.7101 74.0278 18.7124 74.0159 18.715 74.0014C18.7177 73.9868 18.7211 73.9682 18.7249 73.9465C18.7287 73.9248 18.7331 73.899 18.7378 73.8701L12.8154 72.9082L6.89303 71.9463C6.89744 71.9192 6.90153 71.8952 6.90502 71.8753C6.90851 71.8554 6.91158 71.8385 6.91394 71.8257C6.91628 71.813 6.91818 71.803 6.91926 71.7973C6.92022 71.7922 6.92104 71.7879 6.92068 71.7898C6.92065 71.79 6.91947 71.7961 6.91812 71.8032C6.91667 71.8109 6.9144 71.8229 6.9117 71.8376C6.90897 71.8524 6.90555 71.8712 6.90173 71.8931C6.89789 71.915 6.89348 71.9409 6.88876 71.9701L12.8115 72.9297ZM12.8154 72.9082L18.7384 73.8668C18.9182 72.7557 19.615 71.8494 21.1926 71.3821C22.877 70.8832 25.4264 71.0285 28.0468 72.6082L31.1445 67.4697L34.2423 62.3313C29.0167 59.1809 23.0028 58.3307 17.7848 59.8762C12.4599 61.4533 7.91515 65.6312 6.89251 71.9496L12.8154 72.9082ZM31.1445 67.4697L28.0447 72.6069L46.6062 83.8071L49.7061 78.6699L52.8059 73.5327L34.2444 62.3325L31.1445 67.4697ZM49.7061 78.6699L53.7197 83.1299C55.3145 81.6946 57.0072 80.3335 58.7895 79.0549L55.292 74.1797L51.7945 69.3045C49.6591 70.8365 47.6213 72.4742 45.6924 74.21L49.7061 78.6699ZM55.292 74.1797H61.292V73.666H55.292H49.292V74.1797H55.292ZM55.292 73.666L61.2919 73.6947C61.3 72.0111 61.333 66.5472 61.333 64.0723L55.333 64.0723L49.333 64.0723C49.333 66.5089 49.3003 71.9111 49.2921 73.6373L55.292 73.666ZM55.333 64.0723H61.333C61.333 39.9422 78.2393 23.0001 98.0723 23L98.0723 17L98.0722 11C70.7031 11.0002 49.333 34.2616 49.333 64.0723H55.333Z" fill="white" mask="url(#path-1-outside-1_1347_9834)"/>
<path d="M130.3 161.162L137.256 171.381M137.256 171.381L133.412 182.131M137.256 171.381L142.579 181.235M137.256 171.381L149.085 174.069" stroke="#474747" stroke-width="5.24228" stroke-linecap="round"/>
<path d="M70.4512 161.162L63.4951 171.381M63.4951 171.381L67.3394 182.131M63.4951 171.381L58.1721 181.235M63.4951 171.381L51.6663 174.069" stroke="#474747" stroke-width="5.24228" stroke-linecap="round"/>
<path d="M188.051 80.4453L188.045 80.451C188.045 80.451 188.057 80.4857 188.051 80.503C187.722 83.6469 187.111 87.0388 186.043 90.4365C185.997 90.598 185.94 90.7595 185.888 90.9268C185.784 91.2499 185.668 91.5729 185.559 91.9017C185.38 92.4267 185.172 92.9458 184.953 93.465C184.544 94.4976 184.076 95.5302 183.546 96.5339C182.582 98.4087 181.44 100.22 180.073 101.933C178.815 103.525 177.373 105.014 175.712 106.375C173.635 108.106 171.207 109.646 168.391 110.892C166.92 111.555 165.323 112.126 163.615 112.623C160.062 113.649 156.647 114.099 153.387 114.094L153.382 114.099C148.565 114.082 144.106 113.096 140.027 111.475C140.022 111.469 140.01 111.469 139.998 111.457C139.895 111.423 139.785 111.382 139.681 111.336C139.329 111.192 138.977 111.048 138.626 110.903C138.614 110.903 138.597 110.886 138.591 110.88C138.239 110.725 137.887 110.557 137.529 110.396C137.489 110.379 137.46 110.373 137.431 110.355C133.613 108.533 130.169 106.208 127.169 103.739C127.106 103.687 127.054 103.635 126.99 103.583C126.033 102.776 125.271 101.887 124.66 100.941C124.642 100.912 124.625 100.895 124.608 100.866C122.525 97.5492 122.537 93.5804 124.227 89.9865C125.023 88.279 126.206 86.6696 127.723 85.2563C129.788 83.3296 132.47 81.7663 135.678 80.8433L139 79.8857L171.743 70.4252C180.546 67.887 188.801 72.9346 188.034 80.428L188.051 80.4453Z" fill="#276286"/>
<path opacity="0.5" d="M124.625 100.884C127.388 105.228 136.104 110.056 139.998 111.469C149.534 114.936 159.594 115.259 168.391 110.892C177.309 106.462 183.101 98.8592 185.553 91.8965C187.976 85.0203 188.056 80.44 188.056 80.44C188.056 80.44 180.788 92.6233 173.646 98.0804C166.493 103.537 155.562 107.662 145.796 106.629C136.035 105.603 131.034 103.197 124.631 100.878L124.625 100.884Z" fill="#14465D"/>
<path d="M63.2803 86.8602L31.1444 67.4698C23.2984 62.7397 14.0184 65.4787 12.816 72.9083C10.9319 84.5089 11.9739 100.59 28.0952 110.321C41.5581 118.449 55.1981 115.887 65.5803 111.174C75.3406 106.754 74.0575 93.3551 63.2833 86.849L63.2803 86.8602Z" fill="#276286"/>
<path opacity="0.5" d="M68.7833 109.07C64.9901 112.551 55.3211 114.958 51.1942 115.316C41.0863 116.197 31.285 113.905 23.9179 107.41C16.4502 100.822 12.8237 91.9795 12.2576 84.6195C11.697 77.3505 12.8045 72.9054 12.8045 72.9054C12.8045 72.9054 16.672 86.5548 22.1578 93.6743C27.6547 100.797 37.1462 107.61 46.8469 109.14C56.5406 110.675 61.9941 109.646 68.7793 109.063L68.7833 109.07Z" fill="#14465D"/>
<path d="M165.131 118.771C165.131 119.848 165.091 120.925 165.033 121.969C165.025 122.059 165.017 122.141 165.017 122.222C164.324 132.265 160.62 141.23 154.665 148.736C147.282 158.061 136.431 165.109 123.582 169.106C120.858 169.971 118.035 170.681 115.139 171.26C111.158 172.052 107.038 172.557 102.804 172.769C101.956 172.818 101.099 172.851 100.242 172.867C99.5245 172.875 98.7984 172.884 98.0723 172.884C97.3463 172.884 96.6284 172.875 95.9105 172.867C90.9177 172.753 86.0555 172.231 81.3973 171.342C78.5094 170.787 75.6867 170.085 72.9619 169.237C59.9335 165.248 48.9528 158.158 41.4882 148.744C41.4882 148.744 41.4882 148.736 41.4801 148.736C35.5084 141.198 31.7883 132.167 31.1275 122.059C31.1275 121.994 31.1194 121.912 31.1112 121.839C31.0541 120.827 31.0215 119.807 31.0215 118.771C31.0215 117.564 31.0623 116.365 31.1439 115.182C32.3105 98.7108 41.4638 84.0998 55.2916 74.1796V73.6657C55.2998 71.9606 55.3324 66.5274 55.3324 64.0718C55.3324 37.1014 74.4711 17 98.0723 17C98.8881 17 99.7039 17.0163 100.512 17.0816C122.987 18.4032 140.82 38.0396 140.82 64.0718C140.82 67.0006 139.956 72.8988 139.54 73.2741C139.637 73.3312 139.727 73.3883 139.801 73.4373C140.519 73.8941 140.853 74.1796 140.853 74.1796C154.681 84.0672 163.826 98.6619 165.001 115.125C165.091 116.332 165.139 117.548 165.139 118.771H165.131Z" fill="#4B9AE8"/>
<path d="M106.214 63.1745C105.708 67.074 101.401 73.3965 96.9301 73.4291C92.4595 73.4618 87.736 67.0496 87.5157 62.8482C87.2954 58.6549 90.4363 55.7833 97.1095 55.7425C103.856 55.7017 106.72 59.275 106.214 63.1745Z" fill="#EAC00F"/>
<path d="M106.214 63.1745C105.708 67.0659 101.409 73.3965 96.9303 73.4291C96.2287 73.4291 95.519 73.2823 94.8174 72.9886C98.4722 71.4875 101.605 66.4622 102.037 63.1745C102.486 59.7073 100.267 56.5012 95.0213 55.8567C95.674 55.7915 96.3674 55.7507 97.1016 55.7425C103.856 55.7017 106.712 59.2831 106.206 63.1745H106.214Z" fill="#CCA80E"/>
<path d="M120.36 59.8949C125.271 59.8949 129.252 55.9137 129.252 51.0026C129.252 46.0915 125.271 42.1104 120.36 42.1104C115.449 42.1104 111.468 46.0915 111.468 51.0026C111.468 55.9137 115.449 59.8949 120.36 59.8949Z" fill="white"/>
<path d="M120.36 55.7426C122.978 55.7426 125.1 53.6205 125.1 51.0027C123.566 49.4691 122.978 53.8582 120.36 53.8582C117.742 53.8582 117.57 49.0527 115.62 51.0027C115.62 53.6205 117.742 55.7426 120.36 55.7426Z" fill="#040000"/>
<path d="M73.7458 59.8949C78.6568 59.8949 82.638 55.9137 82.638 51.0026C82.638 46.0915 78.6568 42.1104 73.7458 42.1104C68.8347 42.1104 64.8535 46.0915 64.8535 51.0026C64.8535 55.9137 68.8347 59.8949 73.7458 59.8949Z" fill="white"/>
<path d="M74.0533 55.5687C76.671 55.5687 78.7931 53.4466 78.7931 50.8289C77.2594 49.2953 76.671 53.6843 74.0533 53.6843C71.4356 53.6843 71.2635 48.8789 69.3135 50.8289C69.3135 53.4466 71.4356 55.5687 74.0533 55.5687Z" fill="#040000"/>
</svg>
