<svg width="200" height="200" viewBox="0 0 200 200" fill="none" xmlns="http://www.w3.org/2000/svg">
<mask id="path-1-outside-1_1347_7710" maskUnits="userSpaceOnUse" x="23.7393" y="14.8984" width="152" height="172" fill="black">
<rect fill="white" x="23.7393" y="14.8984" width="152" height="172"/>
<path d="M64.6152 42.374C68.7424 34.3273 81.0352 20.7684 104.144 21.9736C122.63 22.9379 132.388 35.7531 135.039 42.6904L135.643 43.9326C138.374 43.7933 140.921 45.6257 143.453 54.0029C146.648 64.571 144.054 66.4813 140.471 67.5645C138.79 68.0725 137.358 68.0759 136.06 67.3701C136.083 67.9757 136.098 68.5859 136.098 69.2002C136.098 71.4133 135.509 75.6452 135.137 76.7012C135.094 76.8218 135.135 76.9945 135.241 77.0654C135.844 77.449 136.125 77.6895 136.125 77.6895C138.973 79.7259 141.584 82.0007 143.918 84.4775C145.433 85.4775 146.622 86.841 147.329 88.501C152.533 95.3501 155.786 103.404 156.405 112.076C156.481 113.089 156.521 114.109 156.521 115.136C156.521 115.138 156.519 115.139 156.518 115.139C156.516 115.139 156.515 115.141 156.515 115.143C156.515 116.046 156.481 116.949 156.433 117.825C156.426 117.9 156.419 117.969 156.419 118.037C156.403 118.273 156.384 118.509 156.363 118.743H163C166.314 118.743 169 121.43 169 124.743V174.085C169 177.398 166.314 180.085 163 180.085H36.7393C33.4257 180.085 30.7385 177.398 30.7383 174.085V124.743C30.7383 121.43 33.4248 118.743 36.7383 118.743H44.0371C44.013 118.463 43.9911 118.182 43.9727 117.9C43.9727 117.846 43.9658 117.777 43.959 117.715C43.911 116.865 43.8838 116.009 43.8838 115.139C43.8838 114.125 43.9178 113.117 43.9863 112.124C44.9563 98.4307 52.4988 86.2681 63.916 77.9424C64.1348 77.7828 64.2664 77.5286 64.2666 77.2578C64.2735 75.8259 64.3008 71.2626 64.3008 69.2002C64.3008 68.748 64.3086 68.298 64.3213 67.8506C63.4263 68.103 62.4285 68.0956 61.3027 67.8848C57.6233 67.1955 54.8395 65.5761 56.8721 54.7246C58.5586 45.7205 61.0359 43.8441 63.9326 43.8594C64.1151 43.4051 64.34 42.9106 64.6152 42.374ZM103.795 28.668C85.1363 27.6948 73.8631 37.867 69.0967 45.2148C69.6558 45.5892 70.1092 46.0714 70.4453 46.7148C76.8982 36.252 87.816 29.6671 100.195 29.667C100.88 29.667 101.566 29.6805 102.244 29.7354C111.15 30.2591 119.188 34.2083 125.194 40.5293C120.403 34.5479 113.584 29.1787 103.795 28.668Z"/>
</mask>
<path d="M64.6152 42.374C68.7424 34.3273 81.0352 20.7684 104.144 21.9736C122.63 22.9379 132.388 35.7531 135.039 42.6904L135.643 43.9326C138.374 43.7933 140.921 45.6257 143.453 54.0029C146.648 64.571 144.054 66.4813 140.471 67.5645C138.79 68.0725 137.358 68.0759 136.06 67.3701C136.083 67.9757 136.098 68.5859 136.098 69.2002C136.098 71.4133 135.509 75.6452 135.137 76.7012C135.094 76.8218 135.135 76.9945 135.241 77.0654C135.844 77.449 136.125 77.6895 136.125 77.6895C138.973 79.7259 141.584 82.0007 143.918 84.4775C145.433 85.4775 146.622 86.841 147.329 88.501C152.533 95.3501 155.786 103.404 156.405 112.076C156.481 113.089 156.521 114.109 156.521 115.136C156.521 115.138 156.519 115.139 156.518 115.139C156.516 115.139 156.515 115.141 156.515 115.143C156.515 116.046 156.481 116.949 156.433 117.825C156.426 117.9 156.419 117.969 156.419 118.037C156.403 118.273 156.384 118.509 156.363 118.743H163C166.314 118.743 169 121.43 169 124.743V174.085C169 177.398 166.314 180.085 163 180.085H36.7393C33.4257 180.085 30.7385 177.398 30.7383 174.085V124.743C30.7383 121.43 33.4248 118.743 36.7383 118.743H44.0371C44.013 118.463 43.9911 118.182 43.9727 117.9C43.9727 117.846 43.9658 117.777 43.959 117.715C43.911 116.865 43.8838 116.009 43.8838 115.139C43.8838 114.125 43.9178 113.117 43.9863 112.124C44.9563 98.4307 52.4988 86.2681 63.916 77.9424C64.1348 77.7828 64.2664 77.5286 64.2666 77.2578C64.2735 75.8259 64.3008 71.2626 64.3008 69.2002C64.3008 68.748 64.3086 68.298 64.3213 67.8506C63.4263 68.103 62.4285 68.0956 61.3027 67.8848C57.6233 67.1955 54.8395 65.5761 56.8721 54.7246C58.5586 45.7205 61.0359 43.8441 63.9326 43.8594C64.1151 43.4051 64.34 42.9106 64.6152 42.374ZM103.795 28.668C85.1363 27.6948 73.8631 37.867 69.0967 45.2148C69.6558 45.5892 70.1092 46.0714 70.4453 46.7148C76.8982 36.252 87.816 29.6671 100.195 29.667C100.88 29.667 101.566 29.6805 102.244 29.7354C111.15 30.2591 119.188 34.2083 125.194 40.5293C120.403 34.5479 113.584 29.1787 103.795 28.668Z" fill="#DFB820"/>
<path d="M64.6152 42.374L59.2765 39.6358L59.2765 39.6358L64.6152 42.374ZM104.144 21.9736L104.456 15.9818L104.456 15.9818L104.144 21.9736ZM135.039 42.6904L129.434 44.832C129.497 44.9951 129.566 45.1554 129.642 45.3124L135.039 42.6904ZM135.643 43.9326L130.246 46.5546C131.298 48.7205 133.543 50.0475 135.948 49.9248L135.643 43.9326ZM143.453 54.0029L149.196 52.2669L149.196 52.2668L143.453 54.0029ZM140.471 67.5645L142.207 73.3078L142.207 73.3078L140.471 67.5645ZM136.06 67.3701L138.924 62.0982C137.029 61.0682 134.726 61.135 132.894 62.2733C131.061 63.4116 129.981 65.4461 130.064 67.6018L136.06 67.3701ZM136.098 69.2002L142.098 69.2003V69.2002H136.098ZM135.137 76.7012L129.478 74.7058L129.476 74.7127L135.137 76.7012ZM135.241 77.0654L131.913 82.0577C131.948 82.0813 131.984 82.1045 132.02 82.1273L135.241 77.0654ZM136.125 77.6895L132.225 82.2487C132.357 82.3617 132.494 82.4689 132.635 82.5701L136.125 77.6895ZM143.918 84.4775L139.551 88.5926C139.869 88.93 140.226 89.2294 140.612 89.4849L143.918 84.4775ZM147.329 88.501L141.809 90.8527C142.003 91.3077 142.252 91.7371 142.552 92.1309L147.329 88.501ZM156.405 112.076L150.42 112.503C150.421 112.509 150.421 112.515 150.422 112.521L156.405 112.076ZM156.521 115.136L162.52 115.289C162.521 115.237 162.521 115.186 162.521 115.135L156.521 115.136ZM156.518 115.139V109.139C156.308 109.139 156.098 109.15 155.89 109.172L156.518 115.139ZM156.515 115.143L162.515 115.143V115.143L156.515 115.143ZM156.433 117.825L162.408 118.369C162.414 118.297 162.42 118.225 162.424 118.153L156.433 117.825ZM156.419 118.037L162.405 118.45C162.414 118.313 162.419 118.176 162.419 118.038L156.419 118.037ZM156.363 118.743L150.385 118.227C150.241 119.902 150.806 121.561 151.942 122.799C153.078 124.038 154.682 124.743 156.363 124.743V118.743ZM169 124.743H175V124.743L169 124.743ZM169 174.085L175 174.085V174.085H169ZM30.7383 174.085H24.7383V174.085L30.7383 174.085ZM30.7383 124.743L24.7383 124.743V124.743H30.7383ZM36.7383 118.743V112.743H36.7378L36.7383 118.743ZM44.0371 118.743V124.743C45.7178 124.743 47.3214 124.038 48.4578 122.8C49.5942 121.562 50.1591 119.904 50.015 118.229L44.0371 118.743ZM43.9727 117.9H37.9727C37.9727 118.031 37.9769 118.162 37.9854 118.292L43.9727 117.9ZM43.959 117.715L37.9685 118.053C37.9746 118.161 37.9837 118.27 37.9957 118.377L43.959 117.715ZM43.8838 115.139L37.8838 115.139V115.139H43.8838ZM43.9863 112.124L38.0013 111.7L38.0005 111.711L43.9863 112.124ZM63.916 77.9424L60.3808 73.0945L60.3808 73.0945L63.916 77.9424ZM64.2666 77.2578L58.2667 77.2291C58.2666 77.2375 58.2666 77.2459 58.2666 77.2543L64.2666 77.2578ZM64.3008 69.2002L70.3008 69.2002V69.2002H64.3008ZM64.3213 67.8506L70.3189 68.021C70.3731 66.1126 69.5159 64.2924 68.0103 63.1186C66.5046 61.9448 64.5303 61.5577 62.6928 62.0758L64.3213 67.8506ZM61.3027 67.8848L60.198 73.7822L60.1981 73.7822L61.3027 67.8848ZM56.8721 54.7246L50.9746 53.62L50.9746 53.62L56.8721 54.7246ZM63.9326 43.8594L63.9011 49.8593C66.3626 49.8722 68.5824 48.3803 69.5001 46.0962L63.9326 43.8594ZM103.795 28.668L104.108 22.6761L104.107 22.6761L103.795 28.668ZM69.0967 45.2148L64.063 41.9496C62.2782 44.701 63.0333 48.3757 65.7584 50.2004L69.0967 45.2148ZM70.4453 46.7148L65.1274 49.4932C66.1265 51.4056 68.0755 52.6343 70.2318 52.711C72.3881 52.7878 74.4195 51.7009 75.5522 49.8645L70.4453 46.7148ZM100.195 29.667V23.667H100.195L100.195 29.667ZM102.244 29.7354L101.761 35.7159C101.805 35.7194 101.848 35.7224 101.892 35.725L102.244 29.7354ZM125.194 40.5293L120.845 44.6624C123.06 46.9931 126.718 47.1637 129.14 45.0494C131.562 42.935 131.887 39.2872 129.877 36.778L125.194 40.5293ZM64.6152 42.374L69.954 45.1122C73.2646 38.6574 83.6074 26.9107 103.831 27.9655L104.144 21.9736L104.456 15.9818C78.4631 14.6261 64.2201 29.9971 59.2765 39.6358L64.6152 42.374ZM104.144 21.9736L103.831 27.9655C119.395 28.7773 127.414 39.5456 129.434 44.832L135.039 42.6904L140.644 40.5489C137.362 31.9606 125.864 17.0984 104.456 15.9818L104.144 21.9736ZM135.039 42.6904L129.642 45.3124L130.246 46.5546L135.643 43.9326L141.039 41.3106L140.436 40.0684L135.039 42.6904ZM135.643 43.9326L135.948 49.9248C135.886 49.928 135.621 49.9231 135.302 49.7866C134.993 49.6549 134.936 49.5289 135.096 49.7126C135.546 50.2293 136.518 51.7973 137.71 55.739L143.453 54.0029L149.196 52.2668C147.856 47.8313 146.289 44.2945 144.149 41.8355C141.656 38.9705 138.561 37.776 135.337 37.9404L135.643 43.9326ZM143.453 54.0029L137.71 55.739C138.439 58.1518 138.761 59.8271 138.862 60.9613C138.965 62.1061 138.816 62.4256 138.859 62.3062C138.949 62.0561 139.18 61.7563 139.417 61.5875C139.519 61.5147 139.428 61.6115 138.735 61.8211L140.471 67.5645L142.207 73.3078C144.448 72.6303 148.443 71.1069 150.148 66.3748C151.554 62.4749 150.838 57.6972 149.196 52.2669L143.453 54.0029ZM140.471 67.5645L138.735 61.8211C138.536 61.8813 138.405 61.9077 138.334 61.9188C138.264 61.9296 138.263 61.9239 138.318 61.9257C138.376 61.9276 138.475 61.9374 138.598 61.9701C138.723 62.0033 138.835 62.0497 138.924 62.0982L136.06 67.3701L133.195 72.642C136.387 74.3769 139.615 74.0912 142.207 73.3078L140.471 67.5645ZM136.06 67.3701L130.064 67.6018C130.085 68.1498 130.098 68.6805 130.098 69.2002H136.098H142.098C142.098 68.4913 142.081 67.8017 142.055 67.1384L136.06 67.3701ZM136.098 69.2002L130.098 69.2001C130.098 69.9175 129.99 71.2267 129.808 72.599C129.722 73.2539 129.629 73.8453 129.545 74.3007C129.439 74.8715 129.401 74.9251 129.478 74.7058L135.137 76.7012L140.795 78.6966C141.224 77.4814 141.525 75.5338 141.705 74.1701C141.911 72.6092 142.098 70.696 142.098 69.2003L136.098 69.2002ZM135.137 76.7012L129.476 74.7127C128.993 76.0878 129.057 77.4168 129.341 78.4661C129.618 79.4933 130.316 80.9931 131.913 82.0577L135.241 77.0654L138.569 72.0731C140.06 73.0669 140.685 74.4448 140.926 75.3378C141.173 76.2528 141.238 77.4352 140.798 78.6896L135.137 76.7012ZM135.241 77.0654L132.02 82.1273C132.198 82.241 132.301 82.3155 132.333 82.3394C132.35 82.3514 132.348 82.3508 132.33 82.3361C132.321 82.3288 132.307 82.318 132.29 82.3034C132.281 82.2962 132.271 82.288 132.26 82.2789C132.255 82.2743 132.249 82.2695 132.243 82.2645C132.24 82.262 132.237 82.2594 132.234 82.2568C132.233 82.2555 132.231 82.2541 132.229 82.2528C132.229 82.2521 132.228 82.2514 132.227 82.2508C132.227 82.2504 132.226 82.2499 132.226 82.2497C132.225 82.2492 132.225 82.2487 136.125 77.6895C140.025 73.1302 140.025 73.1297 140.024 73.1292C140.024 73.129 140.023 73.1285 140.023 73.1281C140.022 73.1274 140.021 73.1267 140.021 73.126C140.019 73.1246 140.017 73.1232 140.016 73.1218C140.012 73.1189 140.009 73.116 140.005 73.113C139.998 73.107 139.991 73.1008 139.983 73.0944C139.968 73.0816 139.952 73.0679 139.934 73.0533C139.899 73.0241 139.859 72.9915 139.814 72.9557C139.724 72.8839 139.614 72.7992 139.485 72.7031C139.226 72.5109 138.887 72.2735 138.463 72.0035L135.241 77.0654ZM136.125 77.6895L132.635 82.5701C135.175 84.3863 137.491 86.4062 139.551 88.5926L143.918 84.4775L148.284 80.3625C145.677 77.5953 142.771 75.0655 139.615 72.8088L136.125 77.6895ZM143.918 84.4775L140.612 89.4849C141.228 89.8913 141.601 90.3646 141.809 90.8527L147.329 88.501L152.849 86.1493C151.643 83.3175 149.638 81.0638 147.224 79.4702L143.918 84.4775ZM147.329 88.501L142.552 92.1309C147.109 98.1281 149.891 105.085 150.42 112.503L156.405 112.076L162.39 111.649C161.682 101.724 157.958 92.5722 152.106 84.871L147.329 88.501ZM156.405 112.076L150.422 112.521C150.487 113.397 150.521 114.268 150.521 115.136L156.521 115.136L162.521 115.135C162.521 113.95 162.474 112.781 162.389 111.631L156.405 112.076ZM156.521 115.136L150.523 114.983C150.584 112.593 151.971 110.975 153.149 110.175C154.251 109.426 155.455 109.139 156.518 109.139V115.139V121.139C157.582 121.139 158.787 120.851 159.892 120.101C161.071 119.3 162.459 117.68 162.52 115.289L156.521 115.136ZM156.518 115.139L155.89 109.172C153.7 109.402 152.302 110.705 151.614 111.68C150.923 112.658 150.515 113.861 150.515 115.142L156.515 115.143L162.515 115.143C162.515 116.423 162.107 117.623 161.417 118.6C160.73 119.574 159.333 120.876 157.145 121.106L156.518 115.139ZM156.515 115.143L150.515 115.142C150.515 115.9 150.486 116.687 150.442 117.498L156.433 117.825L162.424 118.153C162.475 117.212 162.515 116.192 162.515 115.143L156.515 115.143ZM156.433 117.825L150.457 117.282C150.457 117.283 150.453 117.324 150.451 117.35C150.448 117.384 150.444 117.435 150.439 117.496C150.43 117.616 150.419 117.806 150.419 118.036L156.419 118.037L162.419 118.038C162.419 118.199 162.411 118.321 162.407 118.371C162.405 118.397 162.404 118.413 162.404 118.411C162.405 118.4 162.405 118.405 162.408 118.369L156.433 117.825ZM156.419 118.037L150.433 117.624C150.42 117.813 150.404 118.011 150.385 118.227L156.363 118.743L162.341 119.259C162.363 119.006 162.385 118.733 162.405 118.45L156.419 118.037ZM156.363 118.743V124.743H163V118.743V112.743H156.363V118.743ZM163 118.743V124.743V124.743L169 124.743L175 124.743C175 118.116 169.627 112.743 163 112.743V118.743ZM169 124.743H163V174.085H169H175V124.743H169ZM169 174.085L163 174.085V174.085V180.085V186.085C169.628 186.085 175 180.712 175 174.085L169 174.085ZM163 180.085V174.085H36.7393V180.085V186.085H163V180.085ZM36.7393 180.085V174.085C36.735 174.085 36.7327 174.085 36.7321 174.085C36.7314 174.085 36.7318 174.085 36.7329 174.085C36.7355 174.085 36.7385 174.086 36.7409 174.087C36.7431 174.088 36.7437 174.089 36.7429 174.088C36.7421 174.088 36.7404 174.086 36.7385 174.084C36.7365 174.083 36.7353 174.081 36.7347 174.08C36.7342 174.079 36.7348 174.08 36.7358 174.082C36.7368 174.085 36.7378 174.088 36.7383 174.091C36.7386 174.092 36.7386 174.092 36.7385 174.092C36.7385 174.091 36.7383 174.089 36.7383 174.085L30.7383 174.085L24.7383 174.085C24.7387 180.713 30.1129 186.085 36.7393 186.085V180.085ZM30.7383 174.085H36.7383V124.743H30.7383H24.7383V174.085H30.7383ZM30.7383 124.743L36.7383 124.743L36.7388 124.743L36.7383 118.743L36.7378 112.743C30.1114 112.744 24.7384 118.116 24.7383 124.743L30.7383 124.743ZM36.7383 118.743V124.743H44.0371V118.743V112.743H36.7383V118.743ZM44.0371 118.743L50.015 118.229C49.9936 117.98 49.975 117.741 49.9599 117.509L43.9727 117.9L37.9854 118.292C38.0071 118.624 38.0325 118.947 38.0592 119.257L44.0371 118.743ZM43.9727 117.9H49.9727C49.9727 117.469 49.9265 117.09 49.9223 117.052L43.959 117.715L37.9957 118.377C37.9968 118.387 37.9924 118.35 37.9877 118.292C37.9852 118.26 37.9817 118.212 37.9788 118.152C37.9759 118.094 37.9727 118.007 37.9727 117.9H43.9727ZM43.959 117.715L49.9494 117.377C49.9071 116.626 49.8838 115.883 49.8838 115.139H43.8838H37.8838C37.8838 116.134 37.915 117.104 37.9685 118.053L43.959 117.715ZM43.8838 115.139L49.8838 115.139C49.8838 114.259 49.9133 113.389 49.9721 112.537L43.9863 112.124L38.0005 111.711C37.9223 112.846 37.8838 113.991 37.8838 115.139L43.8838 115.139ZM43.9863 112.124L49.9713 112.548C50.7987 100.868 57.2466 90.2318 67.4512 82.7903L63.916 77.9424L60.3808 73.0945C47.7511 82.3044 39.114 95.9929 38.0013 111.7L43.9863 112.124ZM63.916 77.9424L67.4512 82.7903C69.1899 81.5224 70.2653 79.4822 70.2666 77.2613L64.2666 77.2578L58.2666 77.2543C58.2676 75.575 59.0798 74.0432 60.3808 73.0945L63.916 77.9424ZM64.2666 77.2578L70.2665 77.2865C70.2733 75.8752 70.3008 71.2817 70.3008 69.2002L64.3008 69.2002L58.3008 69.2002C58.3008 71.2435 58.2736 75.7766 58.2667 77.2291L64.2666 77.2578ZM64.3008 69.2002H70.3008C70.3008 68.8164 70.3074 68.4245 70.3189 68.021L64.3213 67.8506L58.3237 67.6802C58.3097 68.1716 58.3008 68.6797 58.3008 69.2002H64.3008ZM64.3213 67.8506L62.6928 62.0758C62.8269 62.038 62.8949 62.0413 62.8585 62.0415C62.8147 62.0418 62.6737 62.0372 62.4074 61.9873L61.3027 67.8848L60.1981 73.7822C61.899 74.1008 63.8882 74.2067 65.9498 73.6254L64.3213 67.8506ZM61.3027 67.8848L62.4075 61.9873C61.6957 61.854 61.5951 61.7677 61.705 61.8292C61.9591 61.9716 62.2208 62.2448 62.3373 62.4835C62.3928 62.5973 62.2106 62.2954 62.1883 61.146C62.1663 60.0073 62.3055 58.3068 62.7695 55.8292L56.8721 54.7246L50.9746 53.62C49.9302 59.1959 49.7353 64.0227 51.5535 67.7475C53.76 72.2677 57.8956 73.3509 60.198 73.7822L61.3027 67.8848ZM56.8721 54.7246L62.7695 55.8293C63.5673 51.57 64.4062 49.967 64.7519 49.5053C64.8501 49.3741 64.7506 49.5475 64.4064 49.71C64.0754 49.8663 63.8417 49.859 63.9011 49.8593L63.9326 43.8594L63.9642 37.8595C62.5752 37.8522 60.9456 38.0737 59.2826 38.8589C57.6066 39.6503 56.2393 40.8526 55.1452 42.3141C53.1064 45.0378 51.8634 48.8751 50.9746 53.62L56.8721 54.7246ZM63.9326 43.8594L69.5001 46.0962C69.6087 45.8258 69.7559 45.4985 69.954 45.1122L64.6152 42.374L59.2765 39.6358C58.9242 40.3226 58.6215 40.9844 58.3652 41.6226L63.9326 43.8594ZM103.795 28.668L104.107 22.6761C82.8257 21.5661 69.7075 33.2481 64.063 41.9496L69.0967 45.2148L74.1304 48.4801C78.0188 42.4858 87.447 33.8234 103.482 34.6598L103.795 28.668ZM69.0967 45.2148L65.7584 50.2004C65.6664 50.1388 65.5424 50.0402 65.415 49.9C65.2863 49.7585 65.1911 49.6152 65.1274 49.4932L70.4453 46.7148L75.7633 43.9365C74.937 42.3549 73.7816 41.131 72.435 40.2293L69.0967 45.2148ZM70.4453 46.7148L75.5522 49.8645C80.9971 41.0359 90.0538 35.667 100.195 35.667L100.195 29.667L100.195 23.667C85.5781 23.6671 72.7993 31.4681 65.3385 43.5652L70.4453 46.7148ZM100.195 29.667V35.667C100.813 35.667 101.315 35.6799 101.761 35.7159L102.244 29.7354L102.727 23.7548C101.816 23.6812 100.948 23.667 100.195 23.667V29.667ZM102.244 29.7354L101.892 35.725C109.2 36.1547 115.831 39.3865 120.845 44.6624L125.194 40.5293L129.544 36.3962C122.544 29.0302 113.101 24.3634 102.596 23.7457L102.244 29.7354ZM125.194 40.5293L129.877 36.778C124.457 30.0117 116.204 23.3072 104.108 22.6761L103.795 28.668L103.482 34.6598C110.965 35.0502 116.349 39.0842 120.512 44.2806L125.194 40.5293Z" fill="white" mask="url(#path-1-outside-1_1347_7710)"/>
<path d="M156.518 115.139C156.516 115.139 156.515 115.141 156.515 115.142C156.514 116.046 156.48 116.949 156.432 117.825C156.425 117.9 156.419 117.969 156.419 118.037C155.836 126.471 152.726 134.001 147.724 140.304C141.524 148.136 132.411 154.055 121.62 157.413C119.332 158.139 116.961 158.735 114.529 159.221C111.185 159.886 107.725 160.311 104.169 160.489C103.457 160.53 102.737 160.557 102.018 160.571C101.415 160.578 100.805 160.585 100.196 160.585C99.5857 160.585 98.9828 160.578 98.3799 160.571C94.1868 160.475 90.1033 160.037 86.1911 159.29C83.7657 158.824 81.3951 158.235 79.1067 157.522C68.1665 154.172 58.9456 148.22 52.6766 140.315C52.6747 140.313 52.6742 140.311 52.6732 140.309C52.6719 140.305 52.6654 140.303 52.663 140.3C47.65 133.97 44.5272 126.387 43.9724 117.9C43.9724 117.845 43.9655 117.777 43.9587 117.715C43.9107 116.866 43.8833 116.009 43.8833 115.139C43.8833 114.125 43.9176 113.118 43.9861 112.124C44.9559 98.4308 52.4988 86.268 63.9162 77.9422C64.1351 77.7826 64.2664 77.5282 64.2664 77.2573C64.2733 75.8253 64.3007 71.2622 64.3007 69.1999C64.3007 46.549 80.3742 29.667 100.196 29.667C100.881 29.667 101.566 29.6807 102.244 29.7355C121.12 30.8454 136.097 47.3369 136.097 69.1999C136.097 71.413 135.509 75.6448 135.137 76.7008C135.094 76.8215 135.134 76.9945 135.241 77.0654C135.844 77.4491 136.125 77.6889 136.125 77.6889C147.738 85.9929 155.418 98.2502 156.405 112.076C156.48 113.089 156.521 114.109 156.521 115.136C156.521 115.137 156.52 115.139 156.518 115.139Z" fill="#4B9AE8"/>
<rect x="30.7388" y="118.743" width="138.261" height="61.3413" rx="5.84203" fill="#E9F1FA"/>
<rect x="30.7388" y="153.309" width="138.261" height="26.776" rx="5.84203" fill="#D1E1F5"/>
<path d="M107.033 68.4461C106.608 71.7211 102.991 77.031 99.236 77.0584C95.4814 77.0858 91.5144 71.7005 91.3294 68.172C91.1444 64.6504 93.7822 62.2386 99.3867 62.2044C105.053 62.1701 107.458 65.1711 107.033 68.4461Z" fill="#EAC00F"/>
<path d="M118.913 65.6921C123.038 65.6921 126.382 62.3485 126.382 58.224C126.382 54.0994 123.038 50.7559 118.913 50.7559C114.789 50.7559 111.445 54.0994 111.445 58.224C111.445 62.3485 114.789 65.6921 118.913 65.6921Z" fill="white"/>
<path d="M118.455 63.4155C120.654 63.4155 122.436 61.6333 122.436 59.4348C122.436 57.2363 120.654 55.4541 118.455 55.4541C116.257 55.4541 114.475 57.2363 114.475 59.4348C114.475 61.6333 116.257 63.4155 118.455 63.4155Z" fill="#040000"/>
<path d="M79.764 65.6921C83.8885 65.6921 87.2321 62.3485 87.2321 58.224C87.2321 54.0994 83.8885 50.7559 79.764 50.7559C75.6395 50.7559 72.2959 54.0994 72.2959 58.224C72.2959 62.3485 75.6395 65.6921 79.764 65.6921Z" fill="white"/>
<path d="M80.4817 63.9028C82.6802 63.9028 84.4624 62.1206 84.4624 59.9221C84.4624 57.7236 82.6802 55.9414 80.4817 55.9414C78.2832 55.9414 76.501 57.7236 76.501 59.9221C76.501 62.1206 78.2832 63.9028 80.4817 63.9028Z" fill="#040000"/>
<path d="M70.7282 87.1358C70.7265 87.1375 70.7269 87.1404 70.7291 87.1416L98.3225 102.37C105.058 106.09 106.962 113.99 102.063 117.985C94.4172 124.226 82.2832 130.221 68.4364 122.582C56.8712 116.203 53.0069 105.207 52.0751 95.6761C51.1914 86.7227 61.4722 82.0295 70.7274 87.13C70.7295 87.1312 70.73 87.1341 70.7282 87.1358Z" fill="#276286"/>
<path opacity="0.5" d="M52.264 92.4629C52.2617 92.4629 52.2598 92.4644 52.2593 92.4665C51.3228 96.688 53.6309 104.728 55.1035 107.879C58.7074 115.6 64.49 121.767 72.3075 124.398C80.2347 127.063 88.1892 125.987 93.78 123.308C96.2109 122.144 95.029 119.428 92.3521 119.742C89.2242 120.109 85.8441 120.285 83.0369 119.91C75.5483 118.903 66.6071 114.86 61.4206 108.447C56.2349 102.042 54.693 97.6442 52.2683 92.4656C52.2675 92.464 52.2658 92.4629 52.264 92.4629Z" fill="#14465D"/>
<path d="M98.0127 115.545C98.0127 115.548 98.0146 115.55 98.0169 115.55C98.0185 115.55 98.02 115.551 98.0208 115.552C98.0238 115.558 98.0322 115.572 98.0415 115.58C98.0448 115.583 98.0487 115.585 98.0521 115.588C100.113 117.258 102.489 118.908 105.138 120.291C105.262 120.359 105.392 120.421 105.522 120.49C105.775 120.62 106.036 120.743 106.296 120.873C106.714 121.079 107.146 121.264 107.584 121.442C108.441 121.812 109.331 122.148 110.243 122.428C111.928 122.97 113.682 123.367 115.511 123.573C117.204 123.771 118.944 123.799 120.739 123.621C123 123.415 125.357 122.888 127.769 121.956C129.036 121.476 130.324 120.866 131.633 120.147C134.352 118.647 136.646 116.887 138.578 114.949C138.579 114.948 138.581 114.947 138.584 114.947C138.586 114.947 138.588 114.946 138.59 114.944C141.435 112.078 143.495 108.849 144.954 105.47C144.957 105.462 144.959 105.455 144.962 105.447C144.966 105.438 144.968 105.425 144.973 105.416C145.011 105.338 145.05 105.254 145.082 105.17C145.203 104.881 145.324 104.592 145.445 104.303C145.45 104.292 145.457 104.28 145.458 104.268C145.46 104.257 145.461 104.246 145.465 104.235C145.58 103.939 145.687 103.636 145.802 103.333C145.815 103.299 145.829 103.279 145.836 103.251C147.021 99.9009 147.686 96.4751 148.001 93.2275C148.008 93.159 148.008 93.0974 148.015 93.0288C148.104 91.9806 148.028 91.0008 147.83 90.0759C147.823 90.0485 147.823 90.0279 147.816 90.0005C147.083 86.794 144.719 84.444 141.581 83.3135C140.094 82.7722 138.436 82.5187 136.696 82.5804C134.325 82.6626 131.804 83.3272 129.351 84.6838L126.809 86.0883L101.747 99.9146C95.0141 103.634 93.1084 111.529 98.0075 115.525C98.0107 115.527 98.0127 115.531 98.0127 115.536V115.545Z" fill="#276286"/>
<path opacity="0.5" d="M147.812 90.0205C147.814 90.0205 147.816 90.022 147.817 90.0242C148.753 94.2457 146.445 102.286 144.972 105.436C141.369 113.158 135.586 119.324 127.768 121.955C119.841 124.62 111.887 123.545 106.296 120.866C103.865 119.702 105.047 116.985 107.724 117.299C110.852 117.666 114.232 117.843 117.039 117.467C124.528 116.46 133.469 112.418 138.655 106.005C143.841 99.6 145.383 95.2018 147.808 90.0233C147.808 90.0216 147.81 90.0205 147.812 90.0205Z" fill="#14465D"/>
<path d="M70.1968 57.22C68.198 66.4154 65.7475 68.7162 61.3032 67.8838C57.6236 67.1946 54.8392 65.576 56.8719 54.7242C58.9045 43.8723 62.0859 43.3712 65.7655 44.0604C70.3905 44.9267 72.5008 46.6207 70.1968 57.22Z" fill="#404040"/>
<path d="M130.476 57.9244C133.458 66.8496 136.143 68.8719 140.471 67.5635C144.055 66.4803 146.647 64.5701 143.453 54.0018C140.258 43.4335 137.041 43.2795 133.458 44.3627C128.954 45.7242 127.039 47.6366 130.476 57.9244Z" fill="#404040"/>
<path d="M104.144 21.973C122.63 22.9372 132.389 35.7532 135.039 42.6903L135.81 44.2746C136.363 45.4123 136.219 46.7659 135.439 47.7619C133.948 49.6646 130.995 49.3779 129.779 47.2891C125.101 39.2525 117.254 29.3696 103.794 28.6676C85.0762 27.6913 73.7903 37.931 69.0503 45.2841C67.8058 47.2148 65.4842 49.6945 63.8645 48.0656C63.069 47.2656 62.9695 45.5823 64.6152 42.3736C68.7423 34.3268 81.0352 20.7677 104.144 21.973Z" fill="#404040"/>
<g clip-path="url(#clip0_1347_7710)">
<path d="M129.465 140.994H70.6049C67.9909 140.994 65.7991 139.102 65.5252 136.61L60.4207 90.1231C60.1034 87.2324 62.4682 84.7148 65.4984 84.7148H134.57C137.602 84.7148 139.967 87.2324 139.649 90.1231L134.545 136.612C134.271 139.104 132.079 140.996 129.465 140.996V140.994Z" fill="#C0DCEB"/>
<path d="M61.1529 97.3082H138.964L139.695 90.3602C140.013 87.3427 137.647 84.7148 134.613 84.7148H65.5018C62.4699 84.7148 60.1038 87.3427 60.4212 90.3602L61.1529 97.3082Z" fill="#E8F4FA"/>
</g>
<path d="M101.288 120.208C105.399 120.208 108.731 116.876 108.731 112.765C108.731 108.655 105.399 105.322 101.288 105.322C97.1779 105.322 93.8457 108.655 93.8457 112.765C93.8457 116.876 97.1779 120.208 101.288 120.208Z" fill="#4B98E6"/>
<circle cx="98.5607" cy="110.817" r="1.94793" fill="white"/>
<circle cx="98.5608" cy="110.817" r="1.16876" fill="#161616"/>
<circle cx="98.5608" cy="110.817" r="1.16876" fill="#161616"/>
<path d="M94.4692 114.681C93.5053 114.941 91.7602 114.412 91.5393 113.598C91.3184 112.784 92.5575 111.45 93.5192 111.191C94.4809 110.932 95.4079 111.253 95.7369 112.465C96.0704 113.692 95.4309 114.422 94.4671 114.682L94.4692 114.681Z" fill="#DFB820"/>
<defs>
<clipPath id="clip0_1347_7710">
<rect x="60.3921" y="84.7148" width="79.3318" height="58.7455" rx="7.78937" fill="white"/>
</clipPath>
</defs>
</svg>
