<svg width="200" height="200" viewBox="0 0 200 200" fill="none" xmlns="http://www.w3.org/2000/svg">
<mask id="path-1-outside-1_1347_12273" maskUnits="userSpaceOnUse" x="14.3828" y="13.6592" width="172" height="172" fill="black">
<rect fill="white" x="14.3828" y="13.6592" width="172" height="172"/>
<path d="M61.5488 20.3291C77.517 17.0851 83.6213 26.3532 84.4424 32.4043C84.9719 36.3104 84.7207 41.3023 84.5088 45.0098L84.4824 45.5C84.0984 52.0279 86.4951 58.4235 91.0898 63.0977L136.241 108.249C140.823 112.91 147.179 115.426 153.72 115.161L154.21 115.147C157.931 115.002 171.184 114.46 176.759 122.271C177.593 123.437 181.049 130.839 179.686 138.121C178.136 146.383 173.542 148.529 165.796 149.019L165.624 149.024C165.435 149.027 165.195 149.019 164.912 149.005C164.158 148.968 163.102 148.89 161.909 148.866C161.462 148.857 160.996 148.855 160.52 148.866C160.042 148.877 159.555 148.9 159.065 148.94C158.087 149.021 157.102 149.171 156.18 149.43C155.872 149.516 155.572 149.615 155.281 149.727C155.136 149.782 154.993 149.841 154.853 149.904C154.572 150.03 154.302 150.17 154.046 150.325C153.661 150.559 153.307 150.828 152.991 151.137C152.834 151.291 152.683 151.461 152.54 151.644C152.444 151.766 152.352 151.894 152.263 152.027C151.503 153.161 150.961 154.69 150.57 156.329C150.295 157.487 150.094 158.699 149.947 159.865C149.58 162.78 149.545 165.409 149.482 166.179C149.424 166.904 149.344 167.59 149.24 168.239C149.032 169.538 148.728 170.689 148.311 171.712C148.171 172.053 148.02 172.38 147.854 172.693C147.524 173.319 147.142 173.891 146.7 174.414C146.479 174.676 146.244 174.924 145.993 175.162C144.991 176.112 143.746 176.877 142.215 177.5C141.449 177.811 140.613 178.087 139.699 178.333C139.243 178.456 138.767 178.571 138.271 178.68C138.024 178.734 137.771 178.786 137.513 178.837C137.237 178.891 136.963 178.941 136.692 178.986C133.444 179.527 130.579 179.425 128.219 179.058C127.825 178.996 127.446 178.928 127.081 178.854C126.351 178.705 125.68 178.533 125.07 178.354C124.766 178.264 124.477 178.172 124.204 178.08C123.795 177.942 123.422 177.802 123.088 177.668C122.642 177.489 122.264 177.318 121.959 177.171C121.654 177.024 121.421 176.899 121.266 176.812C120.985 176.653 120.715 176.485 120.455 176.31C120.195 176.134 119.946 175.951 119.707 175.76C119.348 175.473 119.012 175.17 118.696 174.852C118.486 174.64 118.285 174.422 118.093 174.197C117.614 173.636 117.191 173.038 116.818 172.411C116.371 171.659 115.996 170.865 115.683 170.047C115.526 169.638 115.385 169.222 115.258 168.803C115.173 168.523 115.094 168.241 115.021 167.958C114.985 167.816 114.95 167.674 114.917 167.532C114.85 167.248 114.789 166.963 114.733 166.677C114.705 166.534 114.679 166.391 114.653 166.248C114.476 165.246 114.361 164.242 114.291 163.26C114.012 159.333 114.46 155.765 114.553 154.143L114.579 153.652C114.687 151.817 114.576 149.991 114.257 148.212C114.15 147.618 114.021 147.03 113.869 146.448C113.819 146.254 113.766 146.061 113.71 145.869C113.599 145.484 113.478 145.102 113.347 144.724C113.085 143.967 112.783 143.224 112.444 142.498C112.275 142.135 112.096 141.775 111.907 141.421C111.531 140.712 111.116 140.022 110.666 139.354C110.215 138.685 109.728 138.037 109.206 137.414C108.814 136.947 108.402 136.494 107.972 136.056L62.3174 89.6064C60.5114 87.7691 59.18 86.4214 58.2305 85.4629C56.6687 84.0593 54.0241 83.6929 51.9531 83.6484L48.7393 83.8096C47.1564 83.9599 36.1645 84.9502 31.7705 83.8457C27.5598 82.7996 20.3696 76.5896 20.3828 64.5801C20.3828 63.8869 20.4085 63.2154 20.458 62.5654C20.7055 59.3146 21.5551 56.6034 22.8477 54.416C25.432 50.0412 29.7842 47.7607 34.6172 47.4463C35.4514 47.3934 36.352 47.4336 39.0264 47.5527C39.0264 47.5527 39.0252 47.5524 39.0234 47.5527C40.6026 47.5884 42.338 47.5879 43.8066 47.4521C45.1751 46.7189 47.9542 44.8217 48.5615 43.7129C48.6099 43.6234 48.6535 43.5337 48.6953 43.4453C48.9752 42.5623 49.1708 41.6122 49.3037 40.6543C49.3239 40.4002 49.3434 40.1406 49.3691 39.873C49.6869 36.4304 49.104 32.9209 49.9912 29.5312C50.0818 29.1835 50.2048 28.8696 50.3545 28.5869C51.7797 23.9261 55.0861 21.6383 61.5488 20.3291Z"/>
</mask>
<path d="M61.5488 20.3291C77.517 17.0851 83.6213 26.3532 84.4424 32.4043C84.9719 36.3104 84.7207 41.3023 84.5088 45.0098L84.4824 45.5C84.0984 52.0279 86.4951 58.4235 91.0898 63.0977L136.241 108.249C140.823 112.91 147.179 115.426 153.72 115.161L154.21 115.147C157.931 115.002 171.184 114.46 176.759 122.271C177.593 123.437 181.049 130.839 179.686 138.121C178.136 146.383 173.542 148.529 165.796 149.019L165.624 149.024C165.435 149.027 165.195 149.019 164.912 149.005C164.158 148.968 163.102 148.89 161.909 148.866C161.462 148.857 160.996 148.855 160.52 148.866C160.042 148.877 159.555 148.9 159.065 148.94C158.087 149.021 157.102 149.171 156.18 149.43C155.872 149.516 155.572 149.615 155.281 149.727C155.136 149.782 154.993 149.841 154.853 149.904C154.572 150.03 154.302 150.17 154.046 150.325C153.661 150.559 153.307 150.828 152.991 151.137C152.834 151.291 152.683 151.461 152.54 151.644C152.444 151.766 152.352 151.894 152.263 152.027C151.503 153.161 150.961 154.69 150.57 156.329C150.295 157.487 150.094 158.699 149.947 159.865C149.58 162.78 149.545 165.409 149.482 166.179C149.424 166.904 149.344 167.59 149.24 168.239C149.032 169.538 148.728 170.689 148.311 171.712C148.171 172.053 148.02 172.38 147.854 172.693C147.524 173.319 147.142 173.891 146.7 174.414C146.479 174.676 146.244 174.924 145.993 175.162C144.991 176.112 143.746 176.877 142.215 177.5C141.449 177.811 140.613 178.087 139.699 178.333C139.243 178.456 138.767 178.571 138.271 178.68C138.024 178.734 137.771 178.786 137.513 178.837C137.237 178.891 136.963 178.941 136.692 178.986C133.444 179.527 130.579 179.425 128.219 179.058C127.825 178.996 127.446 178.928 127.081 178.854C126.351 178.705 125.68 178.533 125.07 178.354C124.766 178.264 124.477 178.172 124.204 178.08C123.795 177.942 123.422 177.802 123.088 177.668C122.642 177.489 122.264 177.318 121.959 177.171C121.654 177.024 121.421 176.899 121.266 176.812C120.985 176.653 120.715 176.485 120.455 176.31C120.195 176.134 119.946 175.951 119.707 175.76C119.348 175.473 119.012 175.17 118.696 174.852C118.486 174.64 118.285 174.422 118.093 174.197C117.614 173.636 117.191 173.038 116.818 172.411C116.371 171.659 115.996 170.865 115.683 170.047C115.526 169.638 115.385 169.222 115.258 168.803C115.173 168.523 115.094 168.241 115.021 167.958C114.985 167.816 114.95 167.674 114.917 167.532C114.85 167.248 114.789 166.963 114.733 166.677C114.705 166.534 114.679 166.391 114.653 166.248C114.476 165.246 114.361 164.242 114.291 163.26C114.012 159.333 114.46 155.765 114.553 154.143L114.579 153.652C114.687 151.817 114.576 149.991 114.257 148.212C114.15 147.618 114.021 147.03 113.869 146.448C113.819 146.254 113.766 146.061 113.71 145.869C113.599 145.484 113.478 145.102 113.347 144.724C113.085 143.967 112.783 143.224 112.444 142.498C112.275 142.135 112.096 141.775 111.907 141.421C111.531 140.712 111.116 140.022 110.666 139.354C110.215 138.685 109.728 138.037 109.206 137.414C108.814 136.947 108.402 136.494 107.972 136.056L62.3174 89.6064C60.5114 87.7691 59.18 86.4214 58.2305 85.4629C56.6687 84.0593 54.0241 83.6929 51.9531 83.6484L48.7393 83.8096C47.1564 83.9599 36.1645 84.9502 31.7705 83.8457C27.5598 82.7996 20.3696 76.5896 20.3828 64.5801C20.3828 63.8869 20.4085 63.2154 20.458 62.5654C20.7055 59.3146 21.5551 56.6034 22.8477 54.416C25.432 50.0412 29.7842 47.7607 34.6172 47.4463C35.4514 47.3934 36.352 47.4336 39.0264 47.5527C39.0264 47.5527 39.0252 47.5524 39.0234 47.5527C40.6026 47.5884 42.338 47.5879 43.8066 47.4521C45.1751 46.7189 47.9542 44.8217 48.5615 43.7129C48.6099 43.6234 48.6535 43.5337 48.6953 43.4453C48.9752 42.5623 49.1708 41.6122 49.3037 40.6543C49.3239 40.4002 49.3434 40.1406 49.3691 39.873C49.6869 36.4304 49.104 32.9209 49.9912 29.5312C50.0818 29.1835 50.2048 28.8696 50.3545 28.5869C51.7797 23.9261 55.0861 21.6383 61.5488 20.3291Z" fill="#EAC00F"/>
<path d="M61.5488 20.3291L62.7401 26.2097L62.7434 26.209L61.5488 20.3291ZM84.4424 32.4043L90.388 31.5982L90.3879 31.5975L84.4424 32.4043ZM84.5088 45.0098L78.5186 44.6674C78.5182 44.6741 78.5178 44.6808 78.5174 44.6875L84.5088 45.0098ZM84.4824 45.5L90.4721 45.8523C90.4727 45.8423 90.4732 45.8323 90.4738 45.8222L84.4824 45.5ZM91.0898 63.0977L86.811 67.3038C86.823 67.316 86.8351 67.3282 86.8472 67.3403L91.0898 63.0977ZM136.241 108.249L140.52 104.043C140.508 104.031 140.496 104.019 140.484 104.006L136.241 108.249ZM153.72 115.161L153.552 109.163C153.527 109.164 153.502 109.165 153.477 109.166L153.72 115.161ZM154.21 115.147L154.377 121.145C154.4 121.145 154.422 121.144 154.445 121.143L154.21 115.147ZM176.759 122.271L171.875 125.757L171.88 125.764L176.759 122.271ZM179.686 138.121L185.583 139.227L185.583 139.226L179.686 138.121ZM165.796 149.019L166 155.015C166.058 155.013 166.117 155.01 166.175 155.007L165.796 149.019ZM165.624 149.024L165.698 155.024C165.742 155.023 165.785 155.022 165.828 155.021L165.624 149.024ZM164.912 149.005L164.617 154.998L164.912 149.005ZM161.909 148.866L161.787 154.865L161.909 148.866ZM160.52 148.866L160.384 142.868L160.52 148.866ZM159.065 148.94L158.571 142.961L159.065 148.94ZM156.18 149.43L157.8 155.207H157.8L156.18 149.43ZM155.281 149.727L153.128 144.126L153.128 144.126L155.281 149.727ZM154.853 149.904L157.305 155.38L157.305 155.38L154.853 149.904ZM154.046 150.325L150.932 145.196L150.932 145.196L154.046 150.325ZM152.991 151.137L148.791 146.852L148.791 146.852L152.991 151.137ZM152.54 151.644L157.263 155.344L157.263 155.344L152.54 151.644ZM152.263 152.027L147.279 148.686L147.279 148.686L152.263 152.027ZM150.57 156.329L156.407 157.719L156.407 157.719L150.57 156.329ZM149.947 159.865L143.994 159.116L143.994 159.116L149.947 159.865ZM149.482 166.179L143.502 165.696L143.502 165.697L149.482 166.179ZM149.24 168.239L155.165 169.189V169.189L149.24 168.239ZM148.311 171.712L142.755 169.445L142.755 169.445L148.311 171.712ZM147.854 172.693L153.162 175.491L153.162 175.491L147.854 172.693ZM146.7 174.414L142.116 170.543L142.116 170.543L146.7 174.414ZM145.993 175.162L150.122 179.516L150.122 179.516L145.993 175.162ZM142.215 177.5L139.954 171.942H139.954L142.215 177.5ZM139.699 178.333L141.258 184.127H141.258L139.699 178.333ZM138.271 178.68L136.989 172.818H136.989L138.271 178.68ZM137.513 178.837L138.669 184.724L138.675 184.723L137.513 178.837ZM136.692 178.986L137.677 184.905H137.677L136.692 178.986ZM128.219 179.058L127.296 184.986H127.296L128.219 179.058ZM127.081 178.854L128.277 172.974H128.277L127.081 178.854ZM125.07 178.354L123.374 184.109L123.374 184.109L125.07 178.354ZM124.204 178.08L126.128 172.397L126.128 172.397L124.204 178.08ZM123.088 177.668L120.85 183.235H120.85L123.088 177.668ZM121.959 177.171L124.569 171.769L124.569 171.769L121.959 177.171ZM121.266 176.812L118.312 182.034L118.319 182.038L121.266 176.812ZM120.455 176.31L117.096 181.281L117.096 181.281L120.455 176.31ZM119.707 175.76L123.448 171.069L123.448 171.069L119.707 175.76ZM118.696 174.852L114.437 179.077L114.437 179.077L118.696 174.852ZM118.093 174.197L122.655 170.3L122.655 170.3L118.093 174.197ZM116.818 172.411L111.661 175.478L111.661 175.478L116.818 172.411ZM115.683 170.047L121.286 167.902L121.286 167.902L115.683 170.047ZM115.258 168.803L109.515 170.541L109.515 170.541L115.258 168.803ZM115.021 167.958L120.834 166.468L120.834 166.468L115.021 167.958ZM114.917 167.532L109.076 168.905L109.076 168.905L114.917 167.532ZM114.733 166.677L120.622 165.526L120.622 165.526L114.733 166.677ZM114.653 166.248L108.745 167.294L108.745 167.294L114.653 166.248ZM114.291 163.26L120.276 162.835L120.276 162.835L114.291 163.26ZM114.553 154.143L120.543 154.485C120.543 154.478 120.544 154.472 120.544 154.465L114.553 154.143ZM114.579 153.652L108.589 153.3C108.589 153.31 108.588 153.32 108.588 153.33L114.579 153.652ZM114.257 148.212L120.163 147.154L120.163 147.154L114.257 148.212ZM113.869 146.448L108.064 147.964L108.064 147.964L113.869 146.448ZM113.71 145.869L119.474 144.204L119.474 144.204L113.71 145.869ZM113.347 144.724L107.676 146.686L107.677 146.686L113.347 144.724ZM112.444 142.498L117.881 139.96L117.881 139.96L112.444 142.498ZM111.907 141.421L106.61 144.238L106.61 144.238L111.907 141.421ZM110.666 139.354L115.642 136.001L115.642 136.001L110.666 139.354ZM109.206 137.414L104.608 141.269L104.608 141.269L109.206 137.414ZM107.972 136.056L103.693 140.262L103.693 140.262L107.972 136.056ZM62.3174 89.6064L66.5965 85.4006L66.5963 85.4004L62.3174 89.6064ZM58.2305 85.4629L62.4931 81.2403C62.4114 81.1579 62.3274 81.0778 62.2411 81.0003L58.2305 85.4629ZM51.9531 83.6484L52.0819 77.6498C51.9388 77.6467 51.7956 77.6488 51.6527 77.656L51.9531 83.6484ZM48.7393 83.8096L48.4388 77.8171C48.3497 77.8216 48.2607 77.828 48.1718 77.8365L48.7393 83.8096ZM31.7705 83.8457L33.2332 78.0267C33.2279 78.0254 33.2225 78.024 33.2171 78.0227L31.7705 83.8457ZM20.3828 64.5801L26.3828 64.5867V64.5802L20.3828 64.5801ZM20.458 62.5654L26.4407 63.0209L26.4407 63.0209L20.458 62.5654ZM22.8477 54.416L28.0131 57.4685L28.0136 57.4677L22.8477 54.416ZM34.6172 47.4463L34.2374 41.4583L34.2276 41.4589L34.6172 47.4463ZM39.0264 47.5527L38.7594 53.5468C41.7866 53.6816 44.4392 51.5381 44.9429 48.55C45.4466 45.562 43.6432 42.6674 40.7391 41.8024L39.0264 47.5527ZM39.0234 47.5527L37.8967 41.6595C34.8827 42.2357 32.7892 44.9933 33.0442 48.0512C33.2991 51.1092 35.8203 53.482 38.8881 53.5512L39.0234 47.5527ZM43.8066 47.4521L44.359 53.4267C45.1577 53.3528 45.9335 53.1196 46.6405 52.7407L43.8066 47.4521ZM48.5615 43.7129L53.8239 46.5952C53.829 46.5858 53.8341 46.5765 53.8392 46.567L48.5615 43.7129ZM48.6953 43.4453L54.1199 46.0094C54.2349 45.766 54.3334 45.5151 54.4148 45.2585L48.6953 43.4453ZM49.3037 40.6543L55.2468 41.479C55.2628 41.3633 55.2755 41.247 55.2848 41.1305L49.3037 40.6543ZM49.3691 39.873L55.3416 40.4469C55.3423 40.4395 55.343 40.432 55.3437 40.4246L49.3691 39.873ZM49.9912 29.5312L55.7957 31.0506L55.7973 31.0443L49.9912 29.5312ZM50.3545 28.5869L55.6574 31.3939C55.8354 31.0577 55.981 30.7053 56.0922 30.3414L50.3545 28.5869ZM61.5488 20.3291L62.7434 26.209C69.4226 24.8521 73.1264 26.2466 75.1191 27.7132C77.2726 29.2983 78.276 31.5835 78.4969 33.2111L84.4424 32.4043L90.3879 31.5975C89.7876 27.174 87.3283 21.7996 82.2324 18.0488C76.9756 14.1796 69.6432 12.5621 60.3543 14.4492L61.5488 20.3291ZM84.4424 32.4043L78.4968 33.2104C78.9352 36.4439 78.737 40.8462 78.5186 44.6674L84.5088 45.0098L90.499 45.3522C90.7044 41.7584 91.0087 36.1768 90.388 31.5982L84.4424 32.4043ZM84.5088 45.0098L78.5174 44.6875L78.4911 45.1778L84.4824 45.5L90.4738 45.8222L90.5001 45.332L84.5088 45.0098ZM84.4824 45.5L78.4928 45.1477C78.0092 53.3683 81.0273 61.4201 86.811 67.3038L91.0898 63.0977L95.3687 58.8915C91.963 55.427 90.1877 50.6874 90.4721 45.8523L84.4824 45.5ZM91.0898 63.0977L86.8472 67.3403L131.999 112.492L136.241 108.249L140.484 104.006L95.3325 58.855L91.0898 63.0977ZM136.241 108.249L131.962 112.455C137.731 118.324 145.73 121.49 153.962 121.156L153.72 115.161L153.477 109.166C148.627 109.362 143.914 107.495 140.52 104.043L136.241 108.249ZM153.72 115.161L153.887 121.159L154.377 121.145L154.21 115.147L154.043 109.15L153.552 109.163L153.72 115.161ZM154.21 115.147L154.445 121.143C156.287 121.071 159.943 120.935 163.705 121.626C167.616 122.346 170.437 123.741 171.875 125.757L176.759 122.271L181.643 118.786C177.507 112.99 170.913 110.751 165.874 109.824C160.685 108.87 155.854 109.079 153.975 109.152L154.21 115.147ZM176.759 122.271L171.88 125.764C171.73 125.554 172.564 126.952 173.261 129.491C173.917 131.883 174.245 134.578 173.788 137.017L179.686 138.121L185.583 139.226C186.49 134.381 185.771 129.734 184.832 126.314C183.934 123.04 182.622 120.154 181.637 118.779L176.759 122.271ZM179.686 138.121L173.788 137.015C173.2 140.15 172.253 141.125 171.605 141.582C170.696 142.224 169.003 142.804 165.417 143.031L165.796 149.019L166.175 155.007C170.335 154.743 174.812 154.006 178.524 151.387C182.497 148.583 184.621 144.354 185.583 139.227L179.686 138.121ZM165.796 149.019L165.591 143.022L165.42 143.028L165.624 149.024L165.828 155.021L166 155.015L165.796 149.019ZM165.624 149.024L165.55 143.025C165.564 143.025 165.544 143.025 165.476 143.023C165.411 143.021 165.324 143.018 165.207 143.012L164.912 149.005L164.617 154.998C164.925 155.013 165.317 155.029 165.698 155.024L165.624 149.024ZM164.912 149.005L165.207 143.012C164.637 142.984 163.335 142.894 162.031 142.867L161.909 148.866L161.787 154.865C162.869 154.887 163.679 154.952 164.617 154.998L164.912 149.005ZM161.909 148.866L162.031 142.867C161.515 142.857 160.962 142.855 160.384 142.868L160.52 148.866L160.655 154.865C161.03 154.856 161.409 154.857 161.787 154.865L161.909 148.866ZM160.52 148.866L160.384 142.868C159.808 142.881 159.199 142.909 158.571 142.961L159.065 148.94L159.56 154.92C159.911 154.891 160.277 154.873 160.655 154.865L160.52 148.866ZM159.065 148.94L158.571 142.961C157.336 143.063 155.953 143.262 154.559 143.653L156.18 149.43L157.8 155.207C158.251 155.08 158.839 154.98 159.56 154.92L159.065 148.94ZM156.18 149.43L154.559 143.653C154.082 143.786 153.604 143.943 153.128 144.126L155.281 149.727L157.434 155.327C157.54 155.286 157.662 155.245 157.8 155.207L156.18 149.43ZM155.281 149.727L153.128 144.126C152.893 144.217 152.649 144.317 152.4 144.428L154.853 149.904L157.305 155.38C157.336 155.366 157.379 155.348 157.434 155.327L155.281 149.727ZM154.853 149.904L152.4 144.428C151.916 144.645 151.423 144.898 150.932 145.196L154.046 150.325L157.159 155.454C157.181 155.441 157.228 155.415 157.305 155.38L154.853 149.904ZM154.046 150.325L150.932 145.196C150.2 145.641 149.471 146.185 148.791 146.852L152.991 151.137L157.191 155.421C157.142 155.47 157.122 155.477 157.16 155.454L154.046 150.325ZM152.991 151.137L148.791 146.852C148.429 147.207 148.106 147.574 147.817 147.943L152.54 151.644L157.263 155.344C157.26 155.347 157.238 155.376 157.192 155.421L152.991 151.137ZM152.54 151.644L147.817 147.943C147.619 148.196 147.44 148.446 147.279 148.686L152.263 152.027L157.246 155.368C157.265 155.341 157.27 155.335 157.263 155.344L152.54 151.644ZM152.263 152.027L147.279 148.686C145.939 150.686 145.192 153.016 144.734 154.939L150.57 156.329L156.407 157.719C156.73 156.364 157.067 155.635 157.247 155.368L152.263 152.027ZM150.57 156.329L144.734 154.939C144.394 156.364 144.16 157.8 143.994 159.116L149.947 159.865L155.9 160.615C156.028 159.597 156.195 158.609 156.407 157.719L150.57 156.329ZM149.947 159.865L143.994 159.116C143.787 160.762 143.677 162.298 143.61 163.491C143.576 164.089 143.553 164.613 143.536 165.011C143.526 165.215 143.519 165.373 143.513 165.503C143.51 165.567 143.507 165.615 143.505 165.651C143.503 165.689 143.501 165.701 143.502 165.696L149.482 166.179L155.463 166.661C155.58 165.213 155.542 163.46 155.9 160.615L149.947 159.865ZM149.482 166.179L143.502 165.697C143.454 166.29 143.391 166.818 143.316 167.29L149.24 168.239L155.165 169.189C155.297 168.362 155.394 167.517 155.463 166.66L149.482 166.179ZM149.24 168.239L143.316 167.29C143.163 168.24 142.964 168.933 142.755 169.445L148.311 171.712L153.866 173.979C154.492 172.445 154.901 170.835 155.165 169.189L149.24 168.239ZM148.311 171.712L142.755 169.445C142.685 169.616 142.616 169.765 142.547 169.896L147.854 172.693L153.162 175.491C153.424 174.995 153.657 174.49 153.866 173.979L148.311 171.712ZM147.854 172.693L142.547 169.896C142.409 170.157 142.265 170.366 142.116 170.543L146.7 174.414L151.285 178.285C152.018 177.417 152.64 176.482 153.162 175.491L147.854 172.693ZM146.7 174.414L142.116 170.543C142.042 170.63 141.959 170.719 141.865 170.808L145.993 175.162L150.122 179.516C150.528 179.13 150.917 178.721 151.285 178.285L146.7 174.414ZM145.993 175.162L141.865 170.808C141.513 171.142 140.946 171.539 139.954 171.942L142.215 177.5L144.476 183.058C146.546 182.216 148.469 181.083 150.122 179.516L145.993 175.162ZM142.215 177.5L139.954 171.942C139.454 172.146 138.856 172.346 138.14 172.539L139.699 178.333L141.258 184.127C142.369 183.828 143.445 183.477 144.476 183.058L142.215 177.5ZM139.699 178.333L138.14 172.539C137.783 172.635 137.4 172.728 136.989 172.818L138.271 178.68L139.554 184.541C140.134 184.414 140.702 184.276 141.258 184.127L139.699 178.333ZM138.271 178.68L136.989 172.818C136.79 172.862 136.579 172.906 136.35 172.951L137.513 178.837L138.675 184.723C138.963 184.666 139.257 184.606 139.554 184.541L138.271 178.68ZM137.513 178.837L136.356 172.949C136.129 172.994 135.913 173.033 135.707 173.068L136.692 178.986L137.677 184.905C138.013 184.849 138.344 184.788 138.669 184.724L137.513 178.837ZM136.692 178.986L135.707 173.068C133.152 173.493 130.935 173.408 129.142 173.129L128.219 179.058L127.296 184.986C130.224 185.442 133.736 185.561 137.677 184.905L136.692 178.986ZM128.219 179.058L129.142 173.129C128.842 173.082 128.554 173.03 128.277 172.974L127.081 178.854L125.885 184.733C126.338 184.825 126.809 184.91 127.296 184.986L128.219 179.058ZM127.081 178.854L128.277 172.974C127.729 172.862 127.225 172.733 126.767 172.598L125.07 178.354L123.374 184.109C124.134 184.333 124.973 184.548 125.885 184.733L127.081 178.854ZM125.07 178.354L126.767 172.598C126.533 172.529 126.32 172.462 126.128 172.397L124.204 178.08L122.28 183.763C122.633 183.883 122.998 183.998 123.374 184.109L125.07 178.354ZM124.204 178.08L126.128 172.397C125.827 172.295 125.559 172.195 125.326 172.101L123.088 177.668L120.85 183.235C121.286 183.41 121.763 183.588 122.28 183.763L124.204 178.08ZM123.088 177.668L125.326 172.101C125.012 171.975 124.758 171.86 124.569 171.769L121.959 177.171L119.348 182.573C119.77 182.777 120.272 183.003 120.85 183.235L123.088 177.668ZM121.959 177.171L124.569 171.769C124.375 171.674 124.254 171.609 124.213 171.585L121.266 176.812L118.319 182.038C118.588 182.19 118.933 182.373 119.349 182.573L121.959 177.171ZM121.266 176.812L124.219 171.589C124.079 171.51 123.944 171.426 123.814 171.338L120.455 176.31L117.096 181.281C117.485 181.544 117.89 181.796 118.312 182.034L121.266 176.812ZM120.455 176.31L123.814 171.338C123.688 171.253 123.566 171.163 123.448 171.069L119.707 175.76L115.966 180.45C116.326 180.738 116.703 181.016 117.096 181.281L120.455 176.31ZM119.707 175.76L123.448 171.069C123.279 170.934 123.116 170.787 122.956 170.626L118.696 174.852L114.437 179.077C114.908 179.552 115.416 180.012 115.966 180.45L119.707 175.76ZM118.696 174.852L122.956 170.626C122.844 170.513 122.744 170.404 122.655 170.3L118.093 174.197L113.531 178.095C113.825 178.439 114.128 178.766 114.437 179.077L118.696 174.852ZM118.093 174.197L122.655 170.3C122.414 170.018 122.187 169.701 121.975 169.344L116.818 172.411L111.661 175.478C112.195 176.375 112.813 177.255 113.531 178.095L118.093 174.197ZM116.818 172.411L121.975 169.344C121.722 168.918 121.491 168.438 121.286 167.902L115.683 170.047L110.079 172.192C110.501 173.293 111.02 174.399 111.661 175.478L116.818 172.411ZM115.683 170.047L121.286 167.902C121.184 167.635 121.089 167.356 121 167.064L115.258 168.803L109.515 170.541C109.681 171.089 109.868 171.641 110.079 172.192L115.683 170.047ZM115.258 168.803L121 167.064C120.939 166.863 120.884 166.664 120.834 166.468L115.021 167.958L109.209 169.448C109.304 169.818 109.407 170.183 109.515 170.541L115.258 168.803ZM115.021 167.958L120.834 166.468C120.808 166.368 120.783 166.265 120.758 166.16L114.917 167.532L109.076 168.905C109.118 169.084 109.162 169.265 109.209 169.448L115.021 167.958ZM114.917 167.532L120.758 166.16C120.71 165.955 120.664 165.743 120.622 165.526L114.733 166.677L108.845 167.827C108.914 168.182 108.991 168.541 109.076 168.905L114.917 167.532ZM114.733 166.677L120.622 165.526C120.6 165.411 120.579 165.304 120.561 165.202L114.653 166.248L108.745 167.294C108.778 167.478 108.811 167.657 108.845 167.827L114.733 166.677ZM114.653 166.248L120.561 165.202C120.426 164.436 120.333 163.642 120.276 162.835L114.291 163.26L108.306 163.685C108.388 164.841 108.526 166.056 108.745 167.294L114.653 166.248ZM114.291 163.26L120.276 162.835C120.034 159.419 120.422 156.599 120.543 154.485L114.553 154.143L108.563 153.8C108.498 154.93 107.991 159.247 108.306 163.685L114.291 163.26ZM114.553 154.143L120.544 154.465L120.57 153.975L114.579 153.652L108.588 153.33L108.561 153.82L114.553 154.143ZM114.579 153.652L120.569 154.005C120.705 151.694 120.565 149.396 120.163 147.154L114.257 148.212L108.351 149.27C108.587 150.587 108.67 151.939 108.589 153.3L114.579 153.652ZM114.257 148.212L120.163 147.154C120.029 146.406 119.866 145.665 119.675 144.933L113.869 146.448L108.064 147.964C108.176 148.395 108.272 148.831 108.351 149.27L114.257 148.212ZM113.869 146.448L119.675 144.933C119.611 144.689 119.544 144.446 119.474 144.204L113.71 145.869L107.946 147.534C107.987 147.677 108.026 147.82 108.064 147.964L113.869 146.448ZM113.71 145.869L119.474 144.204C119.334 143.72 119.182 143.239 119.017 142.762L113.347 144.724L107.677 146.686C107.773 146.965 107.863 147.248 107.946 147.534L113.71 145.869ZM113.347 144.724L119.017 142.762C118.686 141.806 118.307 140.871 117.881 139.96L112.444 142.498L107.008 145.036C107.26 145.577 107.483 146.128 107.676 146.686L113.347 144.724ZM112.444 142.498L117.881 139.96C117.668 139.505 117.443 139.052 117.205 138.604L111.907 141.421L106.61 144.238C106.748 144.499 106.881 144.765 107.008 145.036L112.444 142.498ZM111.907 141.421L117.205 138.604C116.731 137.713 116.21 136.844 115.642 136.001L110.666 139.354L105.69 142.706C106.023 143.201 106.33 143.712 106.61 144.238L111.907 141.421ZM110.666 139.354L115.642 136.001C115.075 135.159 114.461 134.344 113.804 133.559L109.206 137.414L104.608 141.269C104.995 141.73 105.356 142.21 105.69 142.706L110.666 139.354ZM109.206 137.414L113.804 133.559C113.308 132.968 112.79 132.398 112.251 131.85L107.972 136.056L103.693 140.262C104.015 140.59 104.32 140.926 104.608 141.269L109.206 137.414ZM107.972 136.056L112.251 131.85L66.5965 85.4006L62.3174 89.6064L58.0383 93.8123L103.693 140.262L107.972 136.056ZM62.3174 89.6064L66.5963 85.4004C64.7851 83.5578 63.4482 82.2045 62.4931 81.2403L58.2305 85.4629L53.9679 89.6855C54.9117 90.6383 56.2376 91.9805 58.0384 93.8125L62.3174 89.6064ZM58.2305 85.4629L62.2411 81.0003C60.4444 79.3856 58.3368 78.6159 56.7074 78.2176C55.025 77.8064 53.3778 77.6776 52.0819 77.6498L51.9531 83.6484L51.8243 89.6471C52.5994 89.6637 53.3099 89.7404 53.8581 89.8744C54.4591 90.0213 54.4548 90.1366 54.2199 89.9255L58.2305 85.4629ZM51.9531 83.6484L51.6527 77.656L48.4388 77.8171L48.7393 83.8096L49.0397 89.802L52.2536 89.6409L51.9531 83.6484ZM48.7393 83.8096L48.1718 77.8365C47.43 77.9069 44.4167 78.1801 41.0889 78.3023C37.4703 78.4351 34.4716 78.338 33.2332 78.0267L31.7705 83.8457L30.3078 89.6647C33.4634 90.4579 38.1576 90.4179 41.5292 90.2942C45.1915 90.1597 48.4657 89.8626 49.3067 89.7827L48.7393 83.8096ZM31.7705 83.8457L33.2171 78.0227C32.0026 77.721 26.3722 74.1797 26.3828 64.5867L20.3828 64.5801L14.3828 64.5735C14.3669 78.9996 23.117 87.8783 30.3239 89.6687L31.7705 83.8457ZM20.3828 64.5801L26.3828 64.5802C26.3828 64.0353 26.403 63.5157 26.4407 63.0209L20.458 62.5654L14.4753 62.11C14.414 62.915 14.3828 63.7385 14.3828 64.58L20.3828 64.5801ZM20.458 62.5654L26.4407 63.0209C26.628 60.5601 27.249 58.7616 28.0131 57.4685L22.8477 54.416L17.6822 51.3635C15.8611 54.4452 14.7829 58.0691 14.4753 62.11L20.458 62.5654ZM22.8477 54.416L28.0136 57.4677C29.4541 55.0293 31.873 53.6375 35.0067 53.4336L34.6172 47.4463L34.2276 41.4589C27.6955 41.8839 21.4099 45.0531 17.6817 51.3644L22.8477 54.416ZM34.6172 47.4463L34.997 53.4343C35.4214 53.4073 35.9025 53.4196 38.7594 53.5468L39.0264 47.5527L39.2933 41.5587C36.8015 41.4477 35.4814 41.3794 34.2374 41.4583L34.6172 47.4463ZM39.0264 47.5527C40.7391 41.8024 40.7371 41.8018 40.7351 41.8012C40.7345 41.801 40.7325 41.8004 40.7312 41.8C40.7286 41.7993 40.7259 41.7985 40.7233 41.7977C40.718 41.7962 40.7128 41.7946 40.7075 41.7931C40.6968 41.79 40.6862 41.7869 40.6755 41.7838C40.654 41.7777 40.6323 41.7716 40.6103 41.7656C40.5664 41.7536 40.5214 41.7418 40.4754 41.7303C40.3834 41.7074 40.2869 41.6857 40.1861 41.6659C39.9849 41.6262 39.7642 41.5935 39.5261 41.5735C39.0489 41.5336 38.4959 41.5449 37.8967 41.6595L39.0234 47.5527L40.1502 53.446C39.5528 53.5602 39.0013 53.5716 38.525 53.5317C38.2874 53.5118 38.0671 53.4791 37.8662 53.4395C37.7656 53.4197 37.6692 53.398 37.5773 53.3751C37.5313 53.3637 37.4863 53.3519 37.4424 53.3399C37.4204 53.3339 37.3987 53.3278 37.3773 53.3217C37.3665 53.3186 37.3559 53.3155 37.3453 53.3124C37.34 53.3109 37.3347 53.3093 37.3294 53.3078C37.3268 53.307 37.3242 53.3062 37.3215 53.3054C37.3202 53.305 37.3182 53.3045 37.3176 53.3043C37.3156 53.3037 37.3137 53.3031 39.0264 47.5527ZM39.0234 47.5527L38.8881 53.5512C40.516 53.5879 42.5335 53.5954 44.359 53.4267L43.8066 47.4521L43.2543 41.4776C42.1424 41.5804 40.6893 41.5888 39.1587 41.5543L39.0234 47.5527ZM43.8066 47.4521L46.6405 52.7407C47.6291 52.211 48.9195 51.3837 50.0638 50.5276C50.6457 50.0923 51.2809 49.5819 51.864 49.0338C52.3473 48.5795 53.2036 47.7277 53.8239 46.5952L48.5615 43.7129L43.2992 40.8305C43.4915 40.4794 43.6624 40.2816 43.6854 40.2548C43.7244 40.2093 43.7194 40.2204 43.6456 40.2898C43.494 40.4322 43.2351 40.6499 42.8752 40.919C42.136 41.4721 41.3526 41.96 40.9728 42.1636L43.8066 47.4521ZM48.5615 43.7129L53.8392 46.567C53.9645 46.3353 54.0622 46.1314 54.1199 46.0094L48.6953 43.4453L43.2708 40.8813C43.265 40.8934 43.2613 40.9013 43.2588 40.9063C43.2565 40.9112 43.2559 40.9123 43.2569 40.9103C43.2587 40.9067 43.2681 40.8879 43.2838 40.8587L48.5615 43.7129ZM48.6953 43.4453L54.4148 45.2585C54.8215 43.9757 55.08 42.681 55.2468 41.479L49.3037 40.6543L43.3607 39.8296C43.2616 40.5434 43.129 41.1489 42.9758 41.6321L48.6953 43.4453ZM49.3037 40.6543L55.2848 41.1305C55.3079 40.8405 55.322 40.6513 55.3416 40.4469L49.3691 39.873L43.3967 39.2992C43.3649 39.6299 43.34 39.9599 43.3226 40.1781L49.3037 40.6543ZM49.3691 39.873L55.3437 40.4246C55.5354 38.3479 55.4627 36.1001 55.4666 34.6992C55.4712 33.0774 55.5524 31.9799 55.7957 31.0506L49.9912 29.5312L44.1868 28.0119C43.5428 30.4723 43.4719 32.8244 43.4667 34.6654C43.4608 36.7273 43.5206 37.9556 43.3945 39.3215L49.3691 39.873ZM49.9912 29.5312L55.7973 31.0443C55.7751 31.1296 55.7327 31.2516 55.6574 31.3939L50.3545 28.5869L45.0516 25.7799C44.677 26.4877 44.3886 27.2375 44.1851 28.0182L49.9912 29.5312ZM50.3545 28.5869L56.0922 30.3414C56.4689 29.1096 56.9492 28.5208 57.5916 28.0536C58.4081 27.4598 59.8926 26.7865 62.7401 26.2097L61.5488 20.3291L60.3576 14.4485C56.7423 15.1809 53.3423 16.3061 50.5336 18.3487C47.5508 20.5179 45.6653 23.4034 44.6168 26.8324L50.3545 28.5869Z" fill="white" mask="url(#path-1-outside-1_1347_12273)"/>
<path d="M176.759 122.271C171.184 114.458 157.93 115.001 154.21 115.147L153.72 115.16C147.179 115.425 140.823 112.909 136.242 108.249L91.0898 63.0968C86.4951 58.4226 84.0985 52.0273 84.4825 45.4994L84.509 45.0095C84.7209 41.302 84.9724 36.3102 84.4428 32.404C83.6219 26.3529 77.5177 17.0842 61.5492 20.3283C53.3131 21.9966 50.2016 25.2539 49.5792 32.9867C49.4468 34.6285 50.281 43.116 47.0106 46.519C45.3951 48.2006 36.2721 47.3399 34.6301 47.4459C26.8842 47.949 20.3828 53.4838 20.3828 64.5798C20.3696 76.5893 27.9037 83.4481 32.2336 83.713C36.166 83.9512 41.1183 84.1499 44.839 84.0043L56.213 83.4349C56.213 83.4349 57.7357 84.9443 62.3172 89.6052L107.972 136.055C112.567 140.729 114.963 147.124 114.579 153.652L114.553 154.142C114.341 157.849 112.275 171.726 121.266 176.81C122.511 177.512 128.681 180.571 137.513 178.836C145.762 177.208 148.86 173.911 149.483 166.178C149.615 164.536 149.628 154.433 152.991 151.136C156.355 147.839 164.154 149.123 165.795 149.018C173.541 148.528 178.136 146.383 179.685 138.12C181.049 130.838 177.593 123.436 176.759 122.271Z" fill="#6AA6E0"/>
<path d="M43.5 69.7611C48.1944 69.7611 52 66.009 52 61.3806C52 56.7521 48.1944 53 43.5 53C38.8056 53 35 56.7521 35 61.3806C35 66.009 38.8056 69.7611 43.5 69.7611Z" fill="white"/>
<path d="M43.1632 65.8648C45.7235 65.8648 47.799 63.8198 47.799 61.2972C47.799 58.7745 45.7235 56.7295 43.1632 56.7295C40.6029 56.7295 38.5273 58.7745 38.5273 61.2972C38.5273 63.8198 40.6029 65.8648 43.1632 65.8648Z" fill="black"/>
<path d="M72.5 45.7611C77.1944 45.7611 81 42.009 81 37.3806C81 32.7521 77.1944 29 72.5 29C67.8056 29 64 32.7521 64 37.3806C64 42.009 67.8056 45.7611 72.5 45.7611Z" fill="white"/>
<path d="M72.1632 41.8648C74.7235 41.8648 76.799 39.8198 76.799 37.2972C76.799 34.7745 74.7235 32.7295 72.1632 32.7295C69.6029 32.7295 67.5273 34.7745 67.5273 37.2972C67.5273 39.8198 69.6029 41.8648 72.1632 41.8648Z" fill="black"/>
<path d="M49.9911 29.5305C51.0503 25.4655 56.5056 26.0083 57.8563 27.3193C59.2465 28.6565 60.0144 30.5235 60.2661 32.4037C61.2592 40.0968 58.6772 44.5193 55.9893 45.9626C53.2615 47.4059 51.4475 47.6573 47.4091 48.0678C44.9595 48.3194 42.9337 47.9222 43.7943 47.4588C45.1582 46.7305 47.9519 44.8239 48.5611 43.7116C49.2629 42.4139 49.2364 41.2487 49.3688 39.8716C49.6866 36.429 49.1039 32.9202 49.9911 29.5305Z" fill="#3A6B9A"/>
<path d="M179.685 138.107C179.685 138.08 179.698 138.054 179.698 138.028C180.122 135.71 177.421 134.055 175.528 135.446C175.091 135.763 174.601 136.081 174.084 136.372C168.669 139.404 161.201 136.981 156.143 140.57C147.152 146.952 152.409 164.205 146.305 168.31C142.822 170.653 136.069 171.355 132.335 169.462C126.311 166.416 125.397 162.59 125.079 158.405C124.603 152.142 124.536 145.111 123.57 140.239C122.259 133.645 113.944 124.72 113.944 124.72C113.944 124.72 79.835 87.3278 67.0176 75.6888C62.092 71.2266 54.4254 72.7627 48.573 73.4775C41.7273 74.2986 37.1856 73.7292 33.1737 70.2998C29.1618 66.8704 28.0759 58.992 29.7442 53.9868C31.4125 48.9816 39.0262 47.5517 39.0262 47.5517C36.3515 47.4326 35.4512 47.3929 34.6169 47.4459C26.8842 47.949 20.3828 53.4837 20.3828 64.5797C20.3696 76.5893 27.5594 82.7992 31.7702 83.8453C36.5103 85.0369 48.9305 83.7923 48.9305 83.7923C48.9305 83.7923 55.6437 82.8655 58.3977 85.6196C59.3379 86.5596 60.6222 87.8706 62.3172 89.6052L107.972 136.055C112.567 140.729 114.963 147.124 114.579 153.652L114.553 154.142C114.341 157.849 112.275 171.726 121.266 176.81C122.511 177.512 128.681 180.571 137.513 178.836C145.762 177.207 148.86 173.911 149.483 166.178C149.615 164.536 149.628 154.433 152.991 151.136C156.355 147.839 164.154 149.123 165.795 149.017C173.541 148.514 178.149 146.369 179.685 138.107Z" fill="#3A6B9A"/>
<path d="M69.8309 51.8088C71.9535 53.9156 72.5719 59.8879 70.2406 62.2595C67.9092 64.6311 61.9567 64.0906 59.8389 61.9883C57.7163 59.8816 57.5163 56.629 60.9904 53.091C64.5055 49.5098 67.7032 49.7075 69.8309 51.8088Z" fill="#EAC00F"/>
</svg>
