<svg width="200" height="200" viewBox="0 0 200 200" fill="none" xmlns="http://www.w3.org/2000/svg">
<mask id="path-1-outside-1_922_9425" maskUnits="userSpaceOnUse" x="43.4333" y="7.09668" width="113" height="187" fill="black">
<rect fill="white" x="43.4333" y="7.09668" width="113" height="187"/>
<path d="M97.7631 13.0967C96.7164 14.8032 96.1625 16.7666 96.1625 18.7686C96.1625 20.7703 96.7166 22.733 97.7631 24.4395C97.7451 24.4511 97.7273 24.4629 97.7094 24.4746C98.6898 26.1258 100.08 27.4968 101.747 28.4521C103.447 29.426 105.374 29.9343 107.332 29.9258H112.984C115.153 29.9249 117.275 30.5549 119.092 31.7393C120.909 32.9239 122.343 34.6125 123.217 36.5977C124.092 38.5828 124.37 40.7796 124.018 42.9199C123.665 45.0602 122.697 47.0515 121.233 48.6514H125.894C127.614 48.646 129.319 48.9802 130.91 49.6348C132.501 50.2894 133.947 51.2521 135.165 52.4668C136.384 53.6815 137.351 55.1248 138.011 56.7139C138.671 58.3027 139.01 60.0062 139.01 61.7266C139.005 64.1997 138.289 66.6192 136.948 68.6973C141.382 70.4473 145.073 73.6801 147.393 77.8447C149.713 82.0093 150.518 86.8486 149.672 91.54C148.826 96.2315 146.382 100.485 142.753 103.577C139.125 106.669 134.537 108.409 129.771 108.5H132.452C133.021 108.502 133.582 108.633 134.093 108.884C134.604 109.135 135.051 109.498 135.401 109.947C135.75 110.396 135.994 110.919 136.112 111.476C136.23 112.032 136.219 112.608 136.081 113.16L132.329 128.133C132.133 128.947 131.668 129.672 131.009 130.188C130.35 130.705 129.536 130.984 128.699 130.979H126.017L124.78 140.342H124.769L119.829 177.382C119.469 180.079 118.142 182.553 116.093 184.344C114.044 186.135 111.414 187.119 108.693 187.115H90.9574C88.2365 187.119 85.6067 186.134 83.558 184.344C81.5094 182.553 80.1809 180.079 79.8207 177.382L74.8822 140.342H74.8715L73.6342 130.979H70.9535C70.1163 130.984 69.3018 130.705 68.643 130.188C67.984 129.672 67.519 128.947 67.3236 128.133L64.7494 117.862H64.726L63.5707 113.16C63.4332 112.608 63.4226 112.032 63.5404 111.476C63.6583 110.919 63.9018 110.396 64.2514 109.947C64.601 109.498 65.0481 109.135 65.559 108.884C66.0061 108.664 66.4919 108.537 66.9877 108.507L67.2006 108.5H69.8812C68.1046 108.476 66.3515 108.223 64.6625 107.756C64.6835 107.784 64.7039 107.812 64.725 107.84C60.5248 106.716 56.7871 104.293 54.0463 100.918C51.3055 97.5427 49.7021 93.3873 49.4643 89.0459C49.2264 84.7045 50.3664 80.3987 52.7221 76.7441C55.0777 73.0897 58.5283 70.2733 62.5805 68.6973C62.4128 68.4375 62.2548 68.1723 62.1068 67.9023C62.0329 67.7675 61.9619 67.6313 61.893 67.4941C61.7551 67.2197 61.6269 66.941 61.5092 66.6582C61.4502 66.5166 61.394 66.374 61.3402 66.2305C61.2327 65.9438 61.135 65.6537 61.0482 65.3604C60.7443 64.3332 60.5689 63.2681 60.5277 62.1895C60.5219 62.0354 60.5183 61.8811 60.518 61.7266C60.518 61.5114 60.523 61.2965 60.5336 61.082C60.5548 60.6533 60.5975 60.2263 60.6605 59.8027C60.692 59.5913 60.7281 59.3805 60.7699 59.1709C60.8536 58.7509 60.9578 58.335 61.0824 57.9248C61.207 57.5148 61.3521 57.1101 61.517 56.7129C61.9293 55.7197 62.4622 54.7838 63.101 53.9248C63.2286 53.7531 63.3604 53.5843 63.4965 53.4189C63.5646 53.3362 63.6334 53.254 63.7035 53.1729C63.8437 53.0107 63.9888 52.8526 64.1371 52.6973C64.2113 52.6196 64.2865 52.5427 64.3627 52.4668C64.6674 52.1631 64.9859 51.8748 65.3178 51.6035C65.6494 51.3324 65.9938 51.0778 66.35 50.8408C67.0629 50.3665 67.8229 49.9621 68.6185 49.6348C69.0163 49.4711 69.4211 49.3274 69.8314 49.2041C70.0365 49.1425 70.2429 49.0856 70.4506 49.0342C71.4896 48.7769 72.5589 48.648 73.6342 48.6514H77.3881C76.2034 45.2315 75.5652 41.6478 75.4965 38.0322L75.4906 37.3086C75.4902 31.215 77.7801 25.344 81.9057 20.8594C86.0311 16.3749 91.6908 13.6037 97.7631 13.0967Z"/>
</mask>
<path d="M97.7631 13.0967C96.7164 14.8032 96.1625 16.7666 96.1625 18.7686C96.1625 20.7703 96.7166 22.733 97.7631 24.4395C97.7451 24.4511 97.7273 24.4629 97.7094 24.4746C98.6898 26.1258 100.08 27.4968 101.747 28.4521C103.447 29.426 105.374 29.9343 107.332 29.9258H112.984C115.153 29.9249 117.275 30.5549 119.092 31.7393C120.909 32.9239 122.343 34.6125 123.217 36.5977C124.092 38.5828 124.37 40.7796 124.018 42.9199C123.665 45.0602 122.697 47.0515 121.233 48.6514H125.894C127.614 48.646 129.319 48.9802 130.91 49.6348C132.501 50.2894 133.947 51.2521 135.165 52.4668C136.384 53.6815 137.351 55.1248 138.011 56.7139C138.671 58.3027 139.01 60.0062 139.01 61.7266C139.005 64.1997 138.289 66.6192 136.948 68.6973C141.382 70.4473 145.073 73.6801 147.393 77.8447C149.713 82.0093 150.518 86.8486 149.672 91.54C148.826 96.2315 146.382 100.485 142.753 103.577C139.125 106.669 134.537 108.409 129.771 108.5H132.452C133.021 108.502 133.582 108.633 134.093 108.884C134.604 109.135 135.051 109.498 135.401 109.947C135.75 110.396 135.994 110.919 136.112 111.476C136.23 112.032 136.219 112.608 136.081 113.16L132.329 128.133C132.133 128.947 131.668 129.672 131.009 130.188C130.35 130.705 129.536 130.984 128.699 130.979H126.017L124.78 140.342H124.769L119.829 177.382C119.469 180.079 118.142 182.553 116.093 184.344C114.044 186.135 111.414 187.119 108.693 187.115H90.9574C88.2365 187.119 85.6067 186.134 83.558 184.344C81.5094 182.553 80.1809 180.079 79.8207 177.382L74.8822 140.342H74.8715L73.6342 130.979H70.9535C70.1163 130.984 69.3018 130.705 68.643 130.188C67.984 129.672 67.519 128.947 67.3236 128.133L64.7494 117.862H64.726L63.5707 113.16C63.4332 112.608 63.4226 112.032 63.5404 111.476C63.6583 110.919 63.9018 110.396 64.2514 109.947C64.601 109.498 65.0481 109.135 65.559 108.884C66.0061 108.664 66.4919 108.537 66.9877 108.507L67.2006 108.5H69.8812C68.1046 108.476 66.3515 108.223 64.6625 107.756C64.6835 107.784 64.7039 107.812 64.725 107.84C60.5248 106.716 56.7871 104.293 54.0463 100.918C51.3055 97.5427 49.7021 93.3873 49.4643 89.0459C49.2264 84.7045 50.3664 80.3987 52.7221 76.7441C55.0777 73.0897 58.5283 70.2733 62.5805 68.6973C62.4128 68.4375 62.2548 68.1723 62.1068 67.9023C62.0329 67.7675 61.9619 67.6313 61.893 67.4941C61.7551 67.2197 61.6269 66.941 61.5092 66.6582C61.4502 66.5166 61.394 66.374 61.3402 66.2305C61.2327 65.9438 61.135 65.6537 61.0482 65.3604C60.7443 64.3332 60.5689 63.2681 60.5277 62.1895C60.5219 62.0354 60.5183 61.8811 60.518 61.7266C60.518 61.5114 60.523 61.2965 60.5336 61.082C60.5548 60.6533 60.5975 60.2263 60.6605 59.8027C60.692 59.5913 60.7281 59.3805 60.7699 59.1709C60.8536 58.7509 60.9578 58.335 61.0824 57.9248C61.207 57.5148 61.3521 57.1101 61.517 56.7129C61.9293 55.7197 62.4622 54.7838 63.101 53.9248C63.2286 53.7531 63.3604 53.5843 63.4965 53.4189C63.5646 53.3362 63.6334 53.254 63.7035 53.1729C63.8437 53.0107 63.9888 52.8526 64.1371 52.6973C64.2113 52.6196 64.2865 52.5427 64.3627 52.4668C64.6674 52.1631 64.9859 51.8748 65.3178 51.6035C65.6494 51.3324 65.9938 51.0778 66.35 50.8408C67.0629 50.3665 67.8229 49.9621 68.6185 49.6348C69.0163 49.4711 69.4211 49.3274 69.8314 49.2041C70.0365 49.1425 70.2429 49.0856 70.4506 49.0342C71.4896 48.7769 72.5589 48.648 73.6342 48.6514H77.3881C76.2034 45.2315 75.5652 41.6478 75.4965 38.0322L75.4906 37.3086C75.4902 31.215 77.7801 25.344 81.9057 20.8594C86.0311 16.3749 91.6908 13.6037 97.7631 13.0967Z" fill="#85AEE0"/>
<path d="M97.7631 13.0967L102.878 16.2336C104.06 14.3055 104.058 11.8763 102.872 9.95045C101.686 8.02457 99.5178 6.92929 97.2638 7.11749L97.7631 13.0967ZM96.1625 18.7686L90.1625 18.7686L90.1625 18.7686L96.1625 18.7686ZM97.7631 24.4395L101.033 29.4701C103.76 27.6976 104.578 24.0753 102.878 21.3028L97.7631 24.4395ZM97.7094 24.4746L94.4261 19.4526C91.7369 21.2108 90.9099 24.7753 92.5503 27.5379L97.7094 24.4746ZM101.747 28.4521L98.7644 33.6581L98.7645 33.6581L101.747 28.4521ZM107.332 29.9258V23.9258C107.324 23.9258 107.315 23.9258 107.306 23.9258L107.332 29.9258ZM112.984 29.9258L112.984 35.9258L112.986 35.9258L112.984 29.9258ZM119.092 31.7393L122.369 26.7129L122.369 26.7128L119.092 31.7393ZM123.217 36.5977L128.708 34.1789L128.708 34.1788L123.217 36.5977ZM124.018 42.9199L129.938 43.8949L129.938 43.8948L124.018 42.9199ZM121.233 48.6514L116.807 44.5998C115.201 46.3543 114.783 48.892 115.741 51.0691C116.7 53.2461 118.854 54.6514 121.233 54.6514V48.6514ZM125.894 48.6514V54.6514C125.9 54.6514 125.906 54.6514 125.913 54.6513L125.894 48.6514ZM130.91 49.6348L133.193 44.0861L133.192 44.086L130.91 49.6348ZM135.165 52.4668L139.401 48.2175L139.401 48.2175L135.165 52.4668ZM138.011 56.7139L143.553 54.4136L143.553 54.4134L138.011 56.7139ZM139.01 61.7266L145.01 61.7401L145.01 61.7265L139.01 61.7266ZM136.948 68.6973L131.906 65.4441C130.932 66.9543 130.685 68.8218 131.235 70.5329C131.785 72.2441 133.073 73.6186 134.745 74.2784L136.948 68.6973ZM147.393 77.8447L152.635 74.9249L152.635 74.9248L147.393 77.8447ZM149.672 91.54L155.577 92.6047L155.577 92.6047L149.672 91.54ZM142.753 103.577L146.645 108.144L146.645 108.144L142.753 103.577ZM129.771 108.5L129.656 102.501C126.366 102.564 123.74 105.266 123.771 108.557C123.803 111.849 126.48 114.5 129.771 114.5L129.771 108.5ZM132.452 108.5L132.471 102.5C132.465 102.5 132.458 102.5 132.452 102.5L132.452 108.5ZM134.093 108.884L136.737 103.497L136.736 103.497L134.093 108.884ZM135.401 109.947L140.135 106.261L140.135 106.261L135.401 109.947ZM136.112 111.476L141.982 110.233L141.981 110.232L136.112 111.476ZM136.081 113.16L141.901 114.619L141.904 114.61L136.081 113.16ZM132.329 128.133L126.509 126.674C126.504 126.694 126.499 126.713 126.494 126.733L132.329 128.133ZM131.009 130.188L134.711 134.91L134.711 134.91L131.009 130.188ZM128.699 130.979L128.731 124.98C128.72 124.98 128.709 124.979 128.699 124.979L128.699 130.979ZM126.017 130.979V124.979C123.007 124.979 120.463 127.209 120.069 130.193L126.017 130.979ZM124.78 140.342V146.342C127.79 146.342 130.334 144.112 130.728 141.128L124.78 140.342ZM124.769 140.342V134.342C121.762 134.342 119.219 136.568 118.822 139.549L124.769 140.342ZM119.829 177.382L125.777 178.176L125.777 178.175L119.829 177.382ZM116.093 184.344L120.042 188.861L120.042 188.861L116.093 184.344ZM108.693 187.115L108.701 181.115H108.693V187.115ZM90.9574 187.115L90.9574 181.115L90.9487 181.115L90.9574 187.115ZM83.558 184.344L79.6093 188.861L79.6095 188.861L83.558 184.344ZM79.8207 177.382L73.8733 178.175L73.8735 178.176L79.8207 177.382ZM74.8822 140.342L80.8296 139.549C80.4322 136.568 77.8894 134.342 74.8822 134.342V140.342ZM74.8715 140.342L68.9232 141.128C69.3175 144.112 71.8616 146.342 74.8715 146.342V140.342ZM73.6342 130.979L79.5825 130.193C79.1881 127.209 76.644 124.979 73.6342 124.979V130.979ZM70.9535 130.979V124.979C70.9429 124.979 70.9322 124.98 70.9216 124.98L70.9535 130.979ZM68.643 130.188L64.9407 134.91L64.9408 134.91L68.643 130.188ZM67.3236 128.133L73.158 126.733C73.1533 126.713 73.1485 126.694 73.1436 126.674L67.3236 128.133ZM64.7494 117.862L70.5694 116.404C69.9003 113.734 67.5013 111.862 64.7494 111.862V117.862ZM64.726 117.862L58.8993 119.294C59.5583 121.976 61.9637 123.862 64.726 123.862V117.862ZM63.5707 113.16L69.3974 111.729C69.3959 111.722 69.3944 111.716 69.3929 111.71L63.5707 113.16ZM63.5404 111.476L57.6707 110.232L57.6706 110.233L63.5404 111.476ZM64.2514 109.947L59.5175 106.261L59.5173 106.261L64.2514 109.947ZM65.559 108.884L62.9156 103.497L62.9154 103.498L65.559 108.884ZM66.9877 108.507L66.7951 102.51C66.7394 102.512 66.6837 102.514 66.628 102.518L66.9877 108.507ZM67.2006 108.5V102.5C67.1364 102.5 67.0722 102.501 67.008 102.503L67.2006 108.5ZM69.8812 108.5V114.5C73.1793 114.5 75.8591 111.838 75.8811 108.54C75.9031 105.242 73.2591 102.545 69.9613 102.501L69.8812 108.5ZM64.6625 107.756L66.2609 101.973C63.785 101.288 61.1482 102.256 59.7027 104.379C58.2572 106.503 58.3237 109.311 59.8681 111.363L64.6625 107.756ZM64.725 107.84L63.174 113.636C65.6521 114.299 68.2776 113.313 69.7071 111.183C71.1366 109.053 71.0537 106.25 69.501 104.208L64.725 107.84ZM54.0463 100.918L49.3885 104.7L49.3885 104.7L54.0463 100.918ZM49.4643 89.0459L43.4732 89.3741L43.4732 89.3742L49.4643 89.0459ZM52.7221 76.7441L47.679 73.4934L47.679 73.4934L52.7221 76.7441ZM62.5805 68.6973L64.7554 74.2892C66.4353 73.6358 67.7325 72.2618 68.2882 70.5471C68.8439 68.8324 68.5993 66.9587 67.622 65.4441L62.5805 68.6973ZM62.1068 67.9023L56.8453 70.7861L56.8453 70.7861L62.1068 67.9023ZM61.893 67.4941L67.2541 64.8001L67.2541 64.8L61.893 67.4941ZM61.5092 66.6582L55.9698 68.9637L55.9698 68.9637L61.5092 66.6582ZM61.3402 66.2305L66.9582 64.1238L66.9582 64.1237L61.3402 66.2305ZM61.0482 65.3604L55.2948 67.0626L55.2948 67.0627L61.0482 65.3604ZM60.5277 62.1895L66.5234 61.9609L66.5234 61.9608L60.5277 62.1895ZM60.518 61.7266L54.5179 61.7266L54.518 61.7401L60.518 61.7266ZM60.5336 61.082L54.5409 60.7863L54.5409 60.7863L60.5336 61.082ZM60.6605 59.8027L66.5952 60.6856L66.5952 60.6855L60.6605 59.8027ZM60.7699 59.1709L54.8856 57.9981L54.8856 57.9982L60.7699 59.1709ZM61.0824 57.9248L66.8232 59.6693L66.8232 59.6693L61.0824 57.9248ZM61.517 56.7129L55.9756 54.4122L55.9755 54.4124L61.517 56.7129ZM63.101 53.9248L67.9158 57.505L67.9158 57.505L63.101 53.9248ZM63.4965 53.4189L58.8633 49.6067L58.8632 49.6067L63.4965 53.4189ZM63.7035 53.1729L68.2416 57.0979L68.2416 57.0979L63.7035 53.1729ZM64.1371 52.6973L59.7977 48.5537L59.7977 48.5537L64.1371 52.6973ZM64.3627 52.4668L60.1268 48.2174L60.1267 48.2175L64.3627 52.4668ZM65.3178 51.6035L69.1152 56.2489L69.1153 56.2488L65.3178 51.6035ZM66.35 50.8408L63.0263 45.8455L63.0262 45.8456L66.35 50.8408ZM68.6185 49.6348L66.3358 44.086L66.3356 44.0861L68.6185 49.6348ZM69.8314 49.2041L71.5576 54.9504L71.5576 54.9504L69.8314 49.2041ZM70.4506 49.0342L71.8926 54.8583L71.8926 54.8583L70.4506 49.0342ZM73.6342 48.6514L73.6153 54.6513C73.6216 54.6514 73.6279 54.6514 73.6342 54.6514L73.6342 48.6514ZM77.3881 48.6514V54.6514C79.3292 54.6514 81.1503 53.7123 82.276 52.131C83.4017 50.5497 83.6929 48.5215 83.0575 46.6874L77.3881 48.6514ZM75.4965 38.0322L69.4967 38.0808C69.4969 38.1026 69.4971 38.1244 69.4976 38.1462L75.4965 38.0322ZM75.4906 37.3086L69.4906 37.309C69.4906 37.3251 69.4907 37.3411 69.4908 37.3572L75.4906 37.3086ZM81.9057 20.8594L77.4899 16.7972L77.4899 16.7972L81.9057 20.8594ZM97.7631 13.0967L92.6484 9.9598C91.0227 12.6106 90.1625 15.6597 90.1625 18.7686H96.1625H102.162C102.162 17.8735 102.41 16.9959 102.878 16.2336L97.7631 13.0967ZM96.1625 18.7686L90.1625 18.7686C90.1625 21.8779 91.0232 24.9262 92.6482 27.5761L97.7631 24.4395L102.878 21.3028C102.41 20.5399 102.163 19.6626 102.162 18.7685L96.1625 18.7686ZM97.7631 24.4395L94.4931 19.4088C94.4734 19.4217 94.456 19.4331 94.4456 19.4399C94.4322 19.4486 94.4302 19.45 94.4261 19.4526L97.7094 24.4746L100.993 29.4966C101.001 29.4914 101.008 29.4867 101.013 29.4831C101.016 29.4813 101.019 29.4795 101.021 29.4781C101.023 29.4765 101.025 29.4753 101.027 29.4742C101.034 29.4692 101.035 29.4689 101.033 29.4701L97.7631 24.4395ZM97.7094 24.4746L92.5503 27.5379C94.0578 30.0767 96.1968 32.1868 98.7644 33.6581L101.747 28.4521L104.73 23.2462C103.964 22.8068 103.322 22.1749 102.868 21.4113L97.7094 24.4746ZM101.747 28.4521L98.7645 33.6581C101.38 35.1568 104.344 35.9388 107.358 35.9257L107.332 29.9258L107.306 23.9258C106.403 23.9297 105.514 23.6953 104.73 23.2462L101.747 28.4521ZM107.332 29.9258V35.9258H112.984V29.9258V23.9258H107.332V29.9258ZM112.984 29.9258L112.986 35.9258C113.991 35.9254 114.974 36.2173 115.816 36.7657L119.092 31.7393L122.369 26.7128C119.576 24.8925 116.314 23.9244 112.981 23.9258L112.984 29.9258ZM119.092 31.7393L115.816 36.7656C116.656 37.3138 117.321 38.096 117.726 39.0165L123.217 36.5977L128.708 34.1788C127.364 31.129 125.162 28.534 122.369 26.7129L119.092 31.7393ZM123.217 36.5977L117.726 39.0164C118.132 39.9373 118.261 40.9551 118.098 41.9451L124.018 42.9199L129.938 43.8948C130.48 40.604 130.051 37.2282 128.708 34.1789L123.217 36.5977ZM124.018 42.9199L118.098 41.9449C117.935 42.9355 117.486 43.8581 116.807 44.5998L121.233 48.6514L125.658 52.7029C127.909 50.2449 129.396 47.1848 129.938 43.8949L124.018 42.9199ZM121.233 48.6514V54.6514H125.894V48.6514V42.6514H121.233V48.6514ZM125.894 48.6514L125.913 54.6513C126.843 54.6484 127.766 54.8293 128.627 55.1835L130.91 49.6348L133.192 44.086C130.872 43.1312 128.385 42.6436 125.875 42.6514L125.894 48.6514ZM130.91 49.6348L128.627 55.1835C129.487 55.5373 130.269 56.0582 130.929 56.7161L135.165 52.4668L139.401 48.2175C137.624 46.4461 135.515 45.0415 133.193 44.0861L130.91 49.6348ZM135.165 52.4668L130.929 56.7161C131.59 57.3743 132.113 58.1557 132.47 59.0143L138.011 56.7139L143.553 54.4134C142.59 52.094 141.178 49.9887 139.401 48.2175L135.165 52.4668ZM138.011 56.7139L132.47 59.0141C132.826 59.8738 133.01 60.7957 133.01 61.7266L139.01 61.7266L145.01 61.7265C145.01 59.2168 144.515 56.7317 143.553 54.4136L138.011 56.7139ZM139.01 61.7266L133.01 61.713C133.007 63.0364 132.624 64.3316 131.906 65.4441L136.948 68.6973L141.989 71.9504C143.953 68.9069 145.002 65.3629 145.01 61.7401L139.01 61.7266ZM136.948 68.6973L134.745 74.2784C137.889 75.5191 140.506 77.8112 142.151 80.7647L147.393 77.8447L152.635 74.9248C149.64 69.549 144.875 65.3756 139.15 63.1162L136.948 68.6973ZM147.393 77.8447L142.151 80.7646C143.796 83.7174 144.367 87.1487 143.767 90.4754L149.672 91.54L155.577 92.6047C156.669 86.5485 155.629 80.3011 152.635 74.9249L147.393 77.8447ZM149.672 91.54L143.767 90.4753C143.168 93.8022 141.434 96.8182 138.862 99.0105L142.753 103.577L146.645 108.144C151.329 104.152 154.485 98.6608 155.577 92.6047L149.672 91.54ZM142.753 103.577L138.862 99.0104C136.289 101.203 133.036 102.437 129.656 102.501L129.771 108.5L129.886 114.499C136.039 114.381 141.961 112.135 146.645 108.144L142.753 103.577ZM129.771 108.5V114.5H132.452V108.5V102.5H129.771V108.5ZM132.452 108.5L132.432 114.5C132.092 114.499 131.757 114.421 131.45 114.27L134.093 108.884L136.736 103.497C135.408 102.845 133.949 102.505 132.471 102.5L132.452 108.5ZM134.093 108.884L131.45 114.27C131.143 114.119 130.875 113.901 130.667 113.634L135.401 109.947L140.135 106.261C139.227 105.095 138.065 104.15 136.737 103.497L134.093 108.884ZM135.401 109.947L130.667 113.634C130.459 113.367 130.313 113.055 130.242 112.719L136.112 111.476L141.981 110.232C141.674 108.783 141.042 107.425 140.135 106.261L135.401 109.947ZM136.112 111.476L130.242 112.719C130.171 112.382 130.178 112.037 130.259 111.71L136.081 113.16L141.904 114.61C142.26 113.179 142.288 111.682 141.982 110.233L136.112 111.476ZM136.081 113.16L130.261 111.701L126.509 126.674L132.329 128.133L138.148 129.592L141.901 114.619L136.081 113.16ZM132.329 128.133L126.494 126.733C126.614 126.232 126.9 125.786 127.307 125.467L131.009 130.188L134.711 134.91C136.436 133.558 137.652 131.662 138.163 129.533L132.329 128.133ZM131.009 130.188L127.307 125.467C127.713 125.149 128.214 124.977 128.731 124.98L128.699 130.979L128.666 136.979C130.858 136.991 132.988 136.261 134.711 134.91L131.009 130.188ZM128.699 130.979V124.979H126.017V130.979V136.979H128.699V130.979ZM126.017 130.979L120.069 130.193L118.831 139.556L124.78 140.342L130.728 141.128L131.965 131.766L126.017 130.979ZM124.78 140.342V134.342H124.769V140.342V146.342H124.78V140.342ZM124.769 140.342L118.822 139.549L113.882 176.589L119.829 177.382L125.777 178.175L130.716 141.135L124.769 140.342ZM119.829 177.382L113.882 176.587C113.715 177.843 113.097 178.994 112.144 179.826L116.093 184.344L120.042 188.861C123.187 186.112 125.224 182.314 125.777 178.176L119.829 177.382ZM116.093 184.344L112.144 179.826C111.192 180.658 109.968 181.117 108.701 181.115L108.693 187.115L108.684 193.115C112.859 193.121 116.896 191.611 120.042 188.861L116.093 184.344ZM108.693 187.115V181.115H90.9574V187.115V193.115H108.693V187.115ZM90.9574 187.115L90.9487 181.115C89.6825 181.117 88.4592 180.659 87.5065 179.826L83.558 184.344L79.6095 188.861C82.7542 191.61 86.7904 193.121 90.9661 193.115L90.9574 187.115ZM83.558 184.344L87.5067 179.826C86.5533 178.993 85.9354 177.842 85.7679 176.587L79.8207 177.382L73.8735 178.176C74.4264 182.316 76.4654 186.113 79.6093 188.861L83.558 184.344ZM79.8207 177.382L85.7681 176.589L80.8296 139.549L74.8822 140.342L68.9348 141.135L73.8733 178.175L79.8207 177.382ZM74.8822 140.342V134.342H74.8715V140.342V146.342H74.8822V140.342ZM74.8715 140.342L80.8198 139.556L79.5825 130.193L73.6342 130.979L67.6859 131.766L68.9232 141.128L74.8715 140.342ZM73.6342 130.979V124.979H70.9535V130.979V136.979H73.6342V130.979ZM70.9535 130.979L70.9216 124.98C71.4379 124.977 71.9393 125.149 72.3452 125.467L68.643 130.188L64.9408 134.91C66.6644 136.262 68.7947 136.991 70.9855 136.979L70.9535 130.979ZM68.643 130.188L72.3452 125.467C72.7519 125.786 73.0378 126.232 73.158 126.733L67.3236 128.133L61.4892 129.533C62.0002 131.662 63.2162 133.558 64.9407 134.91L68.643 130.188ZM67.3236 128.133L73.1436 126.674L70.5694 116.404L64.7494 117.862L58.9294 119.321L61.5037 129.592L67.3236 128.133ZM64.7494 117.862V111.862H64.726V117.862V123.862H64.7494V117.862ZM64.726 117.862L70.5527 116.431L69.3974 111.729L63.5707 113.16L57.744 114.592L58.8993 119.294L64.726 117.862ZM63.5707 113.16L69.3929 111.71C69.4744 112.037 69.4815 112.382 69.4103 112.719L63.5404 111.476L57.6706 110.233C57.3637 111.682 57.3921 113.179 57.7485 114.61L63.5707 113.16ZM63.5404 111.476L69.4102 112.719C69.339 113.055 69.1929 113.367 68.9854 113.634L64.2514 109.947L59.5173 106.261C58.6106 107.425 57.9777 108.783 57.6707 110.232L63.5404 111.476ZM64.2514 109.947L68.9852 113.634C68.7766 113.902 68.5093 114.119 68.2025 114.27L65.559 108.884L62.9154 103.498C61.5869 104.15 60.4254 105.095 59.5175 106.261L64.2514 109.947ZM65.559 108.884L68.2023 114.27C67.9332 114.402 67.6424 114.478 67.3474 114.496L66.9877 108.507L66.628 102.518C65.3414 102.595 64.0791 102.926 62.9156 103.497L65.559 108.884ZM66.9877 108.507L67.1803 114.504L67.3931 114.497L67.2006 108.5L67.008 102.503L66.7951 102.51L66.9877 108.507ZM67.2006 108.5V114.5H69.8812V108.5V102.5H67.2006V108.5ZM69.8812 108.5L69.9613 102.501C68.7032 102.484 67.4602 102.304 66.2609 101.973L64.6625 107.756L63.0641 113.539C65.2428 114.141 67.5061 114.469 69.8012 114.499L69.8812 108.5ZM64.6625 107.756L59.8681 111.363C59.8645 111.359 59.8616 111.355 59.8598 111.352C59.8579 111.35 59.8568 111.348 59.8567 111.348C59.8567 111.348 59.8572 111.349 59.8589 111.351C59.8621 111.355 59.8613 111.354 59.8663 111.361C59.8768 111.375 59.9098 111.42 59.949 111.472L64.725 107.84L69.501 104.208C69.5112 104.221 69.5186 104.231 69.5216 104.235C69.5243 104.239 69.5254 104.241 69.5211 104.235C69.5189 104.232 69.5087 104.218 69.4996 104.206C69.4892 104.192 69.4744 104.172 69.4569 104.148L64.6625 107.756ZM64.725 107.84L66.276 102.044C63.2977 101.247 60.6474 99.5289 58.704 97.1357L54.0463 100.918L49.3885 104.7C52.9269 109.058 57.752 112.185 63.174 113.636L64.725 107.84ZM54.0463 100.918L58.7041 97.1358C56.761 94.7429 55.624 91.7966 55.4553 88.7176L49.4643 89.0459L43.4732 89.3742C43.7803 94.9781 45.85 100.342 49.3885 104.7L54.0463 100.918ZM49.4643 89.0459L55.4553 88.7177C55.2866 85.6389 56.0951 82.5858 57.7652 79.9948L52.7221 76.7441L47.679 73.4934C44.6378 78.2115 43.1662 83.77 43.4732 89.3741L49.4643 89.0459ZM52.7221 76.7441L57.7651 79.9949C59.4354 77.4038 61.882 75.4068 64.7554 74.2892L62.5805 68.6973L60.4055 63.1053C55.1746 65.1399 50.7201 68.7756 47.679 73.4934L52.7221 76.7441ZM62.5805 68.6973L67.622 65.4441C67.5314 65.3037 67.4468 65.1617 67.3684 65.0186L62.1068 67.9023L56.8453 70.7861C57.0627 71.1829 57.2943 71.5712 57.5389 71.9504L62.5805 68.6973ZM62.1068 67.9023L67.3684 65.0186C67.3339 64.9557 67.2961 64.8836 67.2541 64.8001L61.893 67.4941L56.5318 70.1882C56.6277 70.379 56.732 70.5794 56.8453 70.7861L62.1068 67.9023ZM61.893 67.4941L67.2541 64.8C67.1783 64.6492 67.1098 64.5 67.0485 64.3527L61.5092 66.6582L55.9698 68.9637C56.1439 69.3821 56.3319 69.7903 56.5318 70.1883L61.893 67.4941ZM61.5092 66.6582L67.0486 64.3527C67.0189 64.2814 66.9888 64.2052 66.9582 64.1238L61.3402 66.2305L55.7222 68.3372C55.7993 68.5427 55.8816 68.7518 55.9698 68.9637L61.5092 66.6582ZM61.3402 66.2305L66.9582 64.1237C66.8983 63.9641 66.8463 63.8089 66.8017 63.658L61.0482 65.3604L55.2948 67.0627C55.4238 67.4986 55.5671 67.9236 55.7223 68.3372L61.3402 66.2305ZM61.0482 65.3604L66.8017 63.6581C66.6397 63.1104 66.5455 62.5404 66.5234 61.9609L60.5277 62.1895L54.5321 62.418C54.5922 63.9958 54.849 65.556 55.2948 67.0626L61.0482 65.3604ZM60.5277 62.1895L66.5234 61.9608C66.5198 61.8671 66.5181 61.7853 66.5179 61.713L60.518 61.7266L54.518 61.7401C54.5185 61.9769 54.5239 62.2037 54.5321 62.4181L60.5277 62.1895ZM60.518 61.7266L66.518 61.7265C66.518 61.6051 66.5208 61.4889 66.5263 61.3777L60.5336 61.082L54.5409 60.7863C54.5252 61.104 54.518 61.4177 54.518 61.7266L60.518 61.7266ZM60.5336 61.082L66.5263 61.3778C66.5375 61.1507 66.5604 60.9198 66.5952 60.6856L60.6605 59.8027L54.7259 58.9199C54.6347 59.5329 54.572 60.1558 54.5409 60.7863L60.5336 61.082ZM60.6605 59.8027L66.5952 60.6855C66.6137 60.5616 66.6334 60.448 66.6542 60.3436L60.7699 59.1709L54.8856 57.9982C54.8229 58.313 54.7703 58.6209 54.7258 58.9199L60.6605 59.8027ZM60.7699 59.1709L66.6542 60.3437C66.6998 60.1146 66.7563 59.8895 66.8232 59.6693L61.0824 57.9248L55.3416 56.1803C55.1592 56.7805 55.0074 57.3873 54.8856 57.9981L60.7699 59.1709ZM61.0824 57.9248L66.8232 59.6693C66.8904 59.448 66.969 59.2289 67.0585 59.0133L61.517 56.7129L55.9755 54.4124C55.7352 54.9913 55.5236 55.5816 55.3416 56.1803L61.0824 57.9248ZM61.517 56.7129L67.0584 59.0135C67.2806 58.4784 67.5687 57.9718 67.9158 57.505L63.101 53.9248L58.2862 50.3446C57.3558 51.5959 56.5781 52.9611 55.9756 54.4122L61.517 56.7129ZM63.101 53.9248L67.9158 57.505C67.9874 57.4086 68.0587 57.3174 68.1297 57.2312L63.4965 53.4189L58.8632 49.6067C58.6621 49.8512 58.4699 50.0976 58.2861 50.3447L63.101 53.9248ZM63.4965 53.4189L68.1297 57.2312C68.178 57.1724 68.2136 57.1302 68.2416 57.0979L63.7035 53.1729L59.1655 49.2478C59.0531 49.3777 58.9511 49.4999 58.8633 49.6067L63.4965 53.4189ZM63.7035 53.1729L68.2416 57.0979C68.3059 57.0235 68.3829 56.9389 68.4765 56.8408L64.1371 52.6973L59.7977 48.5537C59.5947 48.7662 59.3816 48.9979 59.1654 49.2478L63.7035 53.1729ZM64.1371 52.6973L68.4765 56.8409C68.5163 56.7992 68.5571 56.7576 68.5986 56.7161L64.3627 52.4668L60.1267 48.2175C60.016 48.3278 59.9063 48.44 59.7977 48.5537L64.1371 52.6973ZM64.3627 52.4668L68.5986 56.7162C68.7669 56.5484 68.9394 56.3926 69.1152 56.2489L65.3178 51.6035L61.5203 46.9582C61.0325 47.357 60.5679 47.7778 60.1268 48.2174L64.3627 52.4668ZM65.3178 51.6035L69.1153 56.2488C69.296 56.1011 69.4824 55.9634 69.6738 55.8361L66.35 50.8408L63.0262 45.8456C62.5053 46.1922 62.0028 46.5637 61.5203 46.9582L65.3178 51.6035ZM66.35 50.8408L69.6737 55.8361C70.0586 55.58 70.4701 55.361 70.9015 55.1835L68.6185 49.6348L66.3356 44.0861C65.1757 44.5633 64.0671 45.153 63.0263 45.8455L66.35 50.8408ZM68.6185 49.6348L70.9013 55.1835C71.118 55.0944 71.337 55.0167 71.5576 54.9504L69.8314 49.2041L68.1053 43.4578C67.5051 43.6381 66.9146 43.8479 66.3358 44.086L68.6185 49.6348ZM69.8314 49.2041L71.5576 54.9504C71.6755 54.915 71.7869 54.8845 71.8926 54.8583L70.4506 49.0342L69.0086 43.21C68.6989 43.2867 68.3976 43.37 68.1053 43.4578L69.8314 49.2041ZM70.4506 49.0342L71.8926 54.8583C72.4535 54.7194 73.0321 54.6495 73.6153 54.6513L73.6342 48.6514L73.653 42.6514C72.0857 42.6465 70.5258 42.8344 69.0086 43.21L70.4506 49.0342ZM73.6342 48.6514V54.6514H77.3881V48.6514V42.6514H73.6342V48.6514ZM77.3881 48.6514L83.0575 46.6874C82.0791 43.8628 81.5521 40.9034 81.4954 37.9182L75.4965 38.0322L69.4976 38.1462C69.5782 42.3922 70.3277 46.6002 71.7186 50.6154L77.3881 48.6514ZM75.4965 38.0322L81.4963 37.9836L81.4904 37.26L75.4906 37.3086L69.4908 37.3572L69.4967 38.0808L75.4965 38.0322ZM75.4906 37.3086L81.4906 37.3082C81.4903 32.7198 83.2146 28.2988 86.3214 24.9216L81.9057 20.8594L77.4899 16.7972C72.3457 22.3892 69.4901 29.7102 69.4906 37.309L75.4906 37.3086ZM81.9057 20.8594L86.3214 24.9216C89.4284 21.5442 93.6903 19.4576 98.2623 19.0759L97.7631 13.0967L97.2638 7.11749C89.6912 7.74978 82.6339 11.2056 77.4899 16.7972L81.9057 20.8594Z" fill="white" mask="url(#path-1-outside-1_922_9425)"/>
<path d="M128.699 130.979H70.9537C70.1164 130.984 69.3021 130.705 68.6432 130.188C67.9843 129.671 67.5194 128.947 67.324 128.133L63.5706 113.161C63.433 112.608 63.4228 112.032 63.5407 111.475C63.6586 110.919 63.9016 110.396 64.2513 109.947C64.601 109.498 65.0481 109.134 65.559 108.884C66.0699 108.633 66.6312 108.502 67.2003 108.5H132.452C133.021 108.502 133.582 108.633 134.093 108.884C134.604 109.134 135.051 109.498 135.401 109.947C135.751 110.396 135.994 110.919 136.112 111.475C136.229 112.032 136.219 112.608 136.082 113.161L132.328 128.133C132.133 128.947 131.668 129.671 131.009 130.188C130.35 130.705 129.536 130.984 128.699 130.979Z" fill="#6CB1F6"/>
<path d="M108.693 187.116H90.9573C88.2362 187.119 85.6065 186.134 83.5577 184.344C81.509 182.553 80.1809 180.079 79.8207 177.381L73.6338 130.979H126.017L119.83 177.381C119.47 180.079 118.141 182.553 116.093 184.344C114.044 186.134 111.414 187.119 108.693 187.116Z" fill="#4B98E6"/>
<path d="M136.948 68.6973C138.288 66.6193 139.004 64.1998 139.01 61.7267C139.01 60.0062 138.67 58.3025 138.011 56.7135C137.351 55.1245 136.384 53.6812 135.166 52.4666C133.947 51.2519 132.501 50.2897 130.91 49.635C129.319 48.9803 127.614 48.6461 125.894 48.6516H121.233C122.698 47.0516 123.665 45.06 124.018 42.9196C124.37 40.7791 124.092 38.5824 123.218 36.5972C122.343 34.6121 120.91 32.9243 119.093 31.7397C117.275 30.555 115.153 29.9248 112.983 29.9257H107.333C105.374 29.9342 103.447 29.4259 101.747 28.4519C100.048 27.478 98.635 26.0729 97.6518 24.3785C96.6686 22.6841 96.1498 20.7603 96.1477 18.8013C96.1456 16.8423 96.6602 14.9175 97.6397 13.2209C91.6106 13.7553 85.9981 16.5209 81.9012 20.9764C77.8044 25.4318 75.5182 31.2562 75.4904 37.3088C75.4827 41.1694 76.1241 45.0037 77.3878 48.6516H73.6344C71.9138 48.6461 70.2092 48.9803 68.6181 49.635C67.027 50.2897 65.5807 51.2519 64.3622 52.4666C63.1437 53.6812 62.1769 55.1245 61.5172 56.7135C60.8576 58.3025 60.518 60.0062 60.518 61.7267C60.5236 64.1998 61.2394 66.6193 62.5803 68.6973C58.1373 70.4521 54.4412 73.6948 52.1233 77.8717C49.8054 82.0487 49.0093 86.9007 49.8711 91.5993C50.733 96.2979 53.1992 100.552 56.8486 103.634C60.4981 106.716 65.1044 108.436 69.8809 108.5H129.771C134.537 108.409 139.125 106.67 142.753 103.577C146.382 100.485 148.827 96.2318 149.673 91.5402C150.519 86.8486 149.713 82.0089 147.393 77.8442C145.073 73.6796 141.382 70.4474 136.948 68.6973Z" fill="#D7E8FC"/>
<path d="M110.976 78.6686C110.682 82.5569 105.426 88.2635 101.242 87.9906C97.0576 87.7176 92.717 81.3801 93.0145 77.4919C93.3082 73.6036 96.2871 70.6298 102.531 71.0374C108.847 71.4521 111.273 74.7804 110.976 78.6686Z" fill="#EAC00F"/>
<path d="M60.518 95.4248C60.5284 91.2537 61.8033 87.1839 64.1744 83.7523C66.5456 80.3208 69.9015 77.6889 73.7993 76.204C72.528 74.2285 71.8143 71.9462 71.7335 69.5984C71.6528 67.2506 72.2081 64.9247 73.3407 62.8666C74.4733 60.8085 76.1411 59.0947 78.1677 57.9066C80.1942 56.7185 82.5042 56.1001 84.8533 56.117H88.6068C87.3638 52.4781 86.723 48.6608 86.7094 44.8155C86.7083 40.7671 87.719 36.7826 89.6495 33.2242C91.58 29.6657 94.3691 26.6461 97.7635 24.4398C96.7168 22.7333 96.1628 20.7704 96.1628 18.7684C96.1628 16.7665 96.7168 14.8036 97.7635 13.097C91.691 13.604 86.0307 16.3745 81.9051 20.8591C77.7796 25.3438 75.49 31.215 75.4904 37.3087C75.4827 41.1692 76.1241 45.0036 77.3878 48.6514H73.6343C71.9138 48.646 70.2091 48.9802 68.618 49.6348C67.0269 50.2895 65.5807 51.2517 64.3622 52.4664C63.1437 53.6811 62.1769 55.1243 61.5172 56.7133C60.8575 58.3024 60.518 60.006 60.518 61.7265C60.5236 64.1996 61.2394 66.6191 62.5803 68.6972C58.528 70.2733 55.0776 73.0898 52.7219 76.7444C50.3662 80.399 49.2259 84.7046 49.4638 89.046C49.7017 93.3875 51.3056 97.5427 54.0465 100.918C56.7874 104.293 60.5249 106.716 64.7251 107.84C62.0098 104.269 60.5328 99.9106 60.518 95.4248Z" fill="#EFF6FF"/>
<path d="M133.219 88.4656V94.0751C133.219 94.8118 133.074 95.5412 132.792 96.2218C132.51 96.9023 132.097 97.5207 131.576 98.0416C131.055 98.5625 130.437 98.9757 129.756 99.2576C129.076 99.5395 128.346 99.6846 127.61 99.6846C126.873 99.6846 126.143 99.5395 125.463 99.2576C124.782 98.9757 124.164 98.5625 123.643 98.0416C123.122 97.5207 122.709 96.9023 122.427 96.2218C122.145 95.5412 122 94.8118 122 94.0751L122 83" stroke="#A9CCF4" stroke-width="3.09348" stroke-linecap="round" stroke-linejoin="round"/>
<path d="M82.9971 104.788V114.151C82.8763 115.561 82.2308 116.874 81.1883 117.831C80.1458 118.788 78.7821 119.319 77.3669 119.319C75.9518 119.319 74.5881 118.788 73.5456 117.831C72.5031 116.874 71.8576 115.561 71.7368 114.151V104.788H82.9971Z" fill="#D7E8FC"/>
<path d="M84.92 75.84C89.2941 75.84 92.84 72.2941 92.84 67.92C92.84 63.5459 89.2941 60 84.92 60C80.5459 60 77 63.5459 77 67.92C77 72.2941 80.5459 75.84 84.92 75.84Z" fill="white"/>
<path d="M84.7973 72.7253C87.4196 72.7253 89.5455 70.5994 89.5455 67.9771C89.5455 65.3547 87.4196 63.2289 84.7973 63.2289C82.1749 63.2289 80.0491 65.3547 80.0491 67.9771C80.0491 70.5994 82.1749 72.7253 84.7973 72.7253Z" fill="black"/>
<path d="M119.92 75.84C124.294 75.84 127.84 72.2941 127.84 67.92C127.84 63.5459 124.294 60 119.92 60C115.546 60 112 63.5459 112 67.92C112 72.2941 115.546 75.84 119.92 75.84Z" fill="white"/>
<path d="M119.797 72.7253C122.42 72.7253 124.545 70.5994 124.545 67.9771C124.545 65.3547 122.42 63.2289 119.797 63.2289C117.175 63.2289 115.049 65.3547 115.049 67.9771C115.049 70.5994 117.175 72.7253 119.797 72.7253Z" fill="black"/>
<path d="M82.2603 105V114.363C82.1395 115.773 81.494 117.086 80.4515 118.043C79.409 119 78.0453 119.531 76.6301 119.531C75.215 119.531 73.8513 119 72.8088 118.043C71.7663 117.086 71.1208 115.773 71 114.363V112.466V109.5" stroke="#A9CCF4" stroke-width="3.09348" stroke-linecap="round" stroke-linejoin="round"/>
</svg>
