<svg width="200" height="200" viewBox="0 0 200 200" fill="none" xmlns="http://www.w3.org/2000/svg">
<mask id="path-1-outside-1_1347_20226" maskUnits="userSpaceOnUse" x="13" y="13.001" width="174" height="174" fill="black">
<rect fill="white" x="13" y="13.001" width="174" height="174"/>
<path d="M134.775 26.4219C146.269 14.9332 158.233 20.3372 168.944 31.0527C179.66 41.7638 185.068 53.7328 173.579 65.2217C172.152 66.6479 170.507 67.76 168.707 68.5693C169.087 69.4008 169.453 70.2399 169.804 71.0859C173.601 80.2527 175.555 90.078 175.555 100C175.555 109.922 173.601 119.747 169.804 128.913C166.007 138.08 160.441 146.41 153.425 153.426C146.409 160.442 138.08 166.007 128.913 169.804C119.746 173.601 109.921 175.556 99.999 175.556C90.0769 175.556 80.2518 173.601 71.085 169.804C70.2397 169.454 69.4019 169.088 68.5713 168.708C67.7623 170.509 66.6503 172.155 65.2236 173.582C53.7348 185.071 41.7657 179.662 31.0547 168.951C20.3392 158.231 14.9311 146.266 26.4199 134.777C27.8465 133.352 29.491 132.239 31.291 131.43C30.9107 130.598 30.5457 129.759 30.1953 128.913C26.3984 119.746 24.4434 109.922 24.4434 100C24.4434 90.0779 26.3983 80.2528 30.1953 71.0859C33.9923 61.9192 39.5574 53.5901 46.5732 46.5742C53.5892 39.5583 61.9182 33.9923 71.085 30.1953C80.2518 26.3983 90.0769 24.4443 99.999 24.4443C109.921 24.4443 119.746 26.3983 128.913 30.1953C129.759 30.5455 130.597 30.911 131.428 31.291C132.237 29.4915 133.35 27.8475 134.775 26.4219ZM34.0479 136.863C26.0943 145.327 30.1449 154.102 38.0244 161.973C45.904 169.848 54.6825 173.901 63.1377 165.952C57.0784 162.566 51.5015 158.354 46.5732 153.426C41.6455 148.498 37.4343 142.922 34.0479 136.863ZM161.976 38.0264C154.097 30.1519 145.318 26.1025 136.863 34.0488C142.922 37.4352 148.497 41.6467 153.425 46.5742C158.352 51.5017 162.563 57.0775 165.949 63.1357C173.904 54.6764 169.855 45.9017 161.976 38.0264Z"/>
</mask>
<path d="M134.775 26.4219C146.269 14.9332 158.233 20.3372 168.944 31.0527C179.66 41.7638 185.068 53.7328 173.579 65.2217C172.152 66.6479 170.507 67.76 168.707 68.5693C169.087 69.4008 169.453 70.2399 169.804 71.0859C173.601 80.2527 175.555 90.078 175.555 100C175.555 109.922 173.601 119.747 169.804 128.913C166.007 138.08 160.441 146.41 153.425 153.426C146.409 160.442 138.08 166.007 128.913 169.804C119.746 173.601 109.921 175.556 99.999 175.556C90.0769 175.556 80.2518 173.601 71.085 169.804C70.2397 169.454 69.4019 169.088 68.5713 168.708C67.7623 170.509 66.6503 172.155 65.2236 173.582C53.7348 185.071 41.7657 179.662 31.0547 168.951C20.3392 158.231 14.9311 146.266 26.4199 134.777C27.8465 133.352 29.491 132.239 31.291 131.43C30.9107 130.598 30.5457 129.759 30.1953 128.913C26.3984 119.746 24.4434 109.922 24.4434 100C24.4434 90.0779 26.3983 80.2528 30.1953 71.0859C33.9923 61.9192 39.5574 53.5901 46.5732 46.5742C53.5892 39.5583 61.9182 33.9923 71.085 30.1953C80.2518 26.3983 90.0769 24.4443 99.999 24.4443C109.921 24.4443 119.746 26.3983 128.913 30.1953C129.759 30.5455 130.597 30.911 131.428 31.291C132.237 29.4915 133.35 27.8475 134.775 26.4219ZM34.0479 136.863C26.0943 145.327 30.1449 154.102 38.0244 161.973C45.904 169.848 54.6825 173.901 63.1377 165.952C57.0784 162.566 51.5015 158.354 46.5732 153.426C41.6455 148.498 37.4343 142.922 34.0479 136.863ZM161.976 38.0264C154.097 30.1519 145.318 26.1025 136.863 34.0488C142.922 37.4352 148.497 41.6467 153.425 46.5742C158.352 51.5017 162.563 57.0775 165.949 63.1357C173.904 54.6764 169.855 45.9017 161.976 38.0264Z" fill="#F4900C"/>
<path d="M134.775 26.4219L130.534 22.1784L130.533 22.1792L134.775 26.4219ZM168.944 31.0527L164.701 35.2945L164.703 35.2963L168.944 31.0527ZM173.579 65.2217L177.821 69.4655L177.822 69.4643L173.579 65.2217ZM168.707 68.5693L166.246 63.0971C164.789 63.7525 163.653 64.9622 163.091 66.458C162.528 67.9538 162.586 69.6121 163.251 71.0653L168.707 68.5693ZM169.804 71.0859L175.347 68.7899L175.347 68.7898L169.804 71.0859ZM175.555 100L181.555 100V100H175.555ZM169.804 128.913L175.347 131.209L175.347 131.209L169.804 128.913ZM153.425 153.426L157.667 157.668L157.667 157.668L153.425 153.426ZM128.913 169.804L131.209 175.347H131.209L128.913 169.804ZM99.999 175.556L99.999 181.556H99.999V175.556ZM71.085 169.804L68.7888 175.347H68.7889L71.085 169.804ZM68.5713 168.708L71.067 163.252C69.6135 162.587 67.9547 162.529 66.4587 163.092C64.9627 163.655 63.753 164.791 63.0981 166.25L68.5713 168.708ZM65.2236 173.582L69.4662 177.825L69.4663 177.825L65.2236 173.582ZM31.0547 168.951L26.8112 173.193L26.812 173.194L31.0547 168.951ZM26.4199 134.777L22.1785 130.533L22.1773 130.535L26.4199 134.777ZM31.291 131.43L33.7504 136.902C35.2082 136.247 36.3444 135.038 36.907 133.542C37.4696 132.046 37.4121 130.387 36.7472 128.934L31.291 131.43ZM30.1953 128.913L24.652 131.209L24.652 131.209L30.1953 128.913ZM24.4434 100H18.4434V100L24.4434 100ZM30.1953 71.0859L24.652 68.7898L24.652 68.7898L30.1953 71.0859ZM46.5732 46.5742L42.3306 42.3316L42.3306 42.3316L46.5732 46.5742ZM71.085 30.1953L68.7889 24.652L68.7888 24.652L71.085 30.1953ZM99.999 24.4443V18.4443H99.999L99.999 24.4443ZM128.913 30.1953L131.209 24.652L131.209 24.652L128.913 30.1953ZM131.428 31.291L128.932 36.7473C130.385 37.4121 132.044 37.4696 133.54 36.9071C135.035 36.3446 136.245 35.2086 136.9 33.7509L131.428 31.291ZM34.0479 136.863L39.2852 133.936C38.352 132.266 36.6785 131.142 34.78 130.908C32.8815 130.675 30.9855 131.36 29.6756 132.754L34.0479 136.863ZM38.0244 161.973L42.2659 157.729L42.2647 157.728L38.0244 161.973ZM63.1377 165.952L67.2475 170.324C68.641 169.013 69.3264 167.118 69.0928 165.219C68.8591 163.321 67.7345 161.648 66.065 160.715L63.1377 165.952ZM46.5732 153.426L42.3306 157.668H42.3306L46.5732 153.426ZM161.976 38.0264L166.217 33.7826L166.217 33.7826L161.976 38.0264ZM136.863 34.0488L132.754 29.6768C131.36 30.9868 130.675 32.8828 130.908 34.7812C131.142 36.6796 132.266 38.3529 133.936 39.2862L136.863 34.0488ZM153.425 46.5742L157.667 42.3316V42.3316L153.425 46.5742ZM165.949 63.1357L160.712 66.0632C161.645 67.7326 163.318 68.8572 165.216 69.0908C167.114 69.3244 169.01 68.6392 170.32 67.2459L165.949 63.1357ZM134.775 26.4219L139.017 30.6654C143.504 26.18 147.348 25.5058 150.878 26.2736C154.965 27.1627 159.633 30.2244 164.701 35.2945L168.944 31.0527L173.188 26.811C167.545 21.1656 160.875 16.1675 153.428 14.5478C145.425 12.8069 137.54 15.1751 130.534 22.1784L134.775 26.4219ZM168.944 31.0527L164.703 35.2963C169.773 40.3643 172.836 45.0333 173.726 49.1217C174.494 52.6524 173.82 56.4951 169.336 60.979L173.579 65.2217L177.822 69.4643C184.827 62.4594 187.193 54.5731 185.451 46.5694C183.83 39.1233 178.832 32.4523 173.186 26.8092L168.944 31.0527ZM173.579 65.2217L169.338 60.9778C168.446 61.8688 167.411 62.5734 166.246 63.0971L168.707 68.5693L171.168 74.0415C173.603 72.9466 175.858 71.427 177.821 69.4655L173.579 65.2217ZM168.707 68.5693L163.251 71.0653C163.601 71.8318 163.938 72.6042 164.26 73.382L169.804 71.0859L175.347 68.7898C174.968 67.8755 174.573 66.9698 174.163 66.0734L168.707 68.5693ZM169.804 71.0859L164.26 73.382C167.756 81.8207 169.555 90.8658 169.555 100H175.555H181.555C181.555 89.2902 179.446 78.6847 175.347 68.7899L169.804 71.0859ZM175.555 100L169.555 100C169.555 109.134 167.756 118.178 164.26 126.617L169.804 128.913L175.347 131.209C179.445 121.315 181.555 110.71 181.555 100L175.555 100ZM169.804 128.913L164.26 126.617C160.765 135.056 155.641 142.724 149.182 149.183L153.425 153.426L157.667 157.668C165.241 150.095 171.248 141.104 175.347 131.209L169.804 128.913ZM153.425 153.426L149.182 149.183C142.723 155.642 135.056 160.765 126.617 164.26L128.913 169.804L131.209 175.347C141.104 171.249 150.094 165.241 157.667 157.668L153.425 153.426ZM128.913 169.804L126.617 164.26C118.178 167.756 109.133 169.556 99.999 169.556V175.556V181.556C110.709 181.556 121.315 179.445 131.209 175.347L128.913 169.804ZM99.999 175.556L99.999 169.556C90.8651 169.556 81.8201 167.756 73.3811 164.26L71.085 169.804L68.7889 175.347C78.6834 179.445 89.2888 181.556 99.999 181.556L99.999 175.556ZM71.085 169.804L73.3811 164.26C72.6053 163.939 71.834 163.603 71.067 163.252L68.5713 168.708L66.0755 174.164C66.9697 174.573 67.8741 174.968 68.7888 175.347L71.085 169.804ZM68.5713 168.708L63.0981 166.25C62.5744 167.415 61.8703 168.45 60.981 169.339L65.2236 173.582L69.4663 177.825C71.4303 175.861 72.9501 173.603 74.0445 171.166L68.5713 168.708ZM65.2236 173.582L60.981 169.339C56.4972 173.823 52.6544 174.497 49.1232 173.729C45.0345 172.839 40.3654 169.777 35.2973 164.709L31.0547 168.951L26.812 173.194C32.455 178.837 39.126 183.834 46.5718 185.454C54.5751 187.196 62.4612 184.83 69.4662 177.825L65.2236 173.582ZM31.0547 168.951L35.2982 164.709C30.2269 159.636 27.1634 154.965 26.2734 150.876C25.5049 147.346 26.1785 143.504 30.6626 139.02L26.4199 134.777L22.1773 130.535C15.1725 137.539 12.8057 145.425 14.5479 153.429C16.1686 160.874 21.167 167.546 26.8112 173.193L31.0547 168.951ZM26.4199 134.777L30.6613 139.021C31.554 138.129 32.5886 137.425 33.7504 136.902L31.291 131.43L28.8317 125.957C26.3934 127.053 24.139 128.574 22.1785 130.533L26.4199 134.777ZM31.291 131.43L36.7472 128.934C36.3983 128.171 36.0622 127.398 35.7386 126.617L30.1953 128.913L24.652 131.209C25.0292 132.12 25.4232 133.026 25.8348 133.926L31.291 131.43ZM30.1953 128.913L35.7386 126.617C32.2431 118.178 30.4434 109.134 30.4434 100L24.4434 100L18.4434 100C18.4434 110.71 20.5537 121.315 24.652 131.209L30.1953 128.913ZM24.4434 100H30.4434C30.4434 90.8661 32.243 81.8211 35.7386 73.382L30.1953 71.0859L24.652 68.7898C20.5536 78.6844 18.4434 89.2897 18.4434 100H24.4434ZM30.1953 71.0859L35.7386 73.382C39.2341 64.9432 44.3572 57.2756 50.8159 50.8168L46.5732 46.5742L42.3306 42.3316C34.7575 49.9047 28.7505 58.8952 24.652 68.7898L30.1953 71.0859ZM46.5732 46.5742L50.8159 50.8169C57.2748 44.3579 64.9425 39.234 73.3811 35.7386L71.085 30.1953L68.7888 24.652C58.8939 28.7507 49.9035 34.7586 42.3306 42.3316L46.5732 46.5742ZM71.085 30.1953L73.3811 35.7386C81.8198 32.2432 90.8647 30.4443 99.999 30.4443L99.999 24.4443L99.999 18.4443C89.2892 18.4443 78.6838 20.5534 68.7889 24.652L71.085 30.1953ZM99.999 24.4443V30.4443C109.133 30.4443 118.178 32.2432 126.617 35.7386L128.913 30.1953L131.209 24.652C121.314 20.5534 110.709 18.4443 99.999 18.4443V24.4443ZM128.913 30.1953L126.617 35.7386C127.395 36.0607 128.166 36.3971 128.932 36.7473L131.428 31.291L133.924 25.8347C133.027 25.4249 132.123 25.0304 131.209 24.652L128.913 30.1953ZM131.428 31.291L136.9 33.7509C137.422 32.5899 138.127 31.556 139.018 30.6645L134.775 26.4219L130.533 22.1792C128.573 24.139 127.051 26.3932 125.955 28.8311L131.428 31.291ZM34.0479 136.863L29.6756 132.754C24.444 138.321 22.7519 144.656 24.2603 151.023C25.6452 156.869 29.5557 161.994 33.7841 166.218L38.0244 161.973L42.2647 157.728C38.6136 154.081 36.5591 150.882 35.9372 148.257C35.4388 146.154 35.6982 143.869 38.4201 140.972L34.0479 136.863ZM38.0244 161.973L33.7829 166.216C38.0103 170.441 43.1371 174.35 48.9814 175.735C55.348 177.244 61.6823 175.556 67.2475 170.324L63.1377 165.952L59.0279 161.581C56.1378 164.298 53.8554 164.558 51.749 164.058C49.1203 163.435 45.9181 161.379 42.2659 157.729L38.0244 161.973ZM63.1377 165.952L66.065 160.715C60.4862 157.597 55.3523 153.72 50.8159 149.183L46.5732 153.426L42.3306 157.668C47.6507 162.989 53.6705 167.534 60.2104 171.19L63.1377 165.952ZM46.5732 153.426L50.8159 149.183C46.28 144.647 42.4031 139.514 39.2852 133.936L34.0479 136.863L28.8105 139.791C32.4655 146.33 37.0111 152.349 42.3306 157.668L46.5732 153.426ZM161.976 38.0264L166.217 33.7826C161.989 29.5573 156.862 25.6505 151.018 24.2663C144.652 22.7586 138.319 24.4467 132.754 29.6768L136.863 34.0488L140.973 38.4208C143.862 35.7046 146.145 35.4442 148.252 35.9433C150.881 36.5658 154.083 38.621 157.734 42.2702L161.976 38.0264ZM136.863 34.0488L133.936 39.2862C139.513 42.4038 144.646 46.2809 149.182 50.8169L153.425 46.5742L157.667 42.3316C152.348 37.0125 146.33 32.4666 139.791 28.8115L136.863 34.0488ZM153.425 46.5742L149.182 50.8168C153.718 55.3524 157.594 60.4854 160.712 66.0632L165.949 63.1357L171.187 60.2082C167.532 53.6697 162.987 47.651 157.667 42.3316L153.425 46.5742ZM165.949 63.1357L170.32 67.2459C175.553 61.6811 177.246 55.3477 175.739 48.9798C174.355 43.1342 170.445 38.0083 166.217 33.7826L161.976 38.0264L157.734 42.2702C161.386 45.9198 163.44 49.1189 164.062 51.7443C164.559 53.8475 164.3 56.1311 161.578 59.0256L165.949 63.1357Z" fill="white" mask="url(#path-1-outside-1_1347_20226)"/>
<path d="M31.055 168.951C41.7661 179.662 53.735 185.071 65.2239 173.582C73.3794 165.426 71.3039 150.129 60.5883 139.409C49.8728 128.697 34.5794 126.622 26.4194 134.777C14.9305 146.266 20.3394 158.231 31.055 168.951ZM60.1794 139.822C68.215 147.857 69.7705 159.333 63.655 165.453C55.0417 174.066 46.0639 170.009 38.0239 161.973C29.9839 153.942 25.9305 144.969 34.5483 136.346C40.6639 130.231 52.1394 131.786 60.1794 139.822ZM168.944 31.053C158.233 20.3375 146.268 14.933 134.775 26.4219C126.619 34.5775 128.695 49.8753 139.411 60.5908C150.126 71.3064 165.415 73.3819 173.579 65.2219C185.068 53.733 179.659 41.7641 168.944 31.053ZM139.819 60.1775C131.784 52.1419 130.228 40.6708 136.344 34.5508C144.957 25.9375 153.935 29.9908 161.975 38.0264C170.015 46.0619 174.068 55.0353 165.451 63.653C159.335 69.7686 147.859 68.213 139.819 60.1775Z" fill="#292F33"/>
<path d="M24.4434 99.9999C24.4434 109.922 26.3977 119.747 30.1947 128.914C33.9917 138.081 39.5571 146.41 46.5731 153.426C53.5891 160.442 61.9182 166.007 71.0851 169.804C80.2519 173.601 90.0768 175.555 99.9989 175.555C109.921 175.555 119.746 173.601 128.913 169.804C138.08 166.007 146.409 160.442 153.425 153.426C160.441 146.41 166.006 138.081 169.803 128.914C173.6 119.747 175.554 109.922 175.554 99.9999C175.554 90.0778 173.6 80.2529 169.803 71.086C166.006 61.9192 160.441 53.59 153.425 46.574C146.409 39.5581 138.08 33.9927 128.913 30.1957C119.746 26.3986 109.921 24.4443 99.9989 24.4443C90.0768 24.4443 80.2519 26.3986 71.0851 30.1957C61.9182 33.9927 53.5891 39.5581 46.5731 46.574C39.5571 53.59 33.9917 61.9192 30.1947 71.086C26.3977 80.2529 24.4434 90.0778 24.4434 99.9999Z" fill="#292F33"/>
<path d="M160.44 100C160.44 133.382 133.377 160.445 99.9952 160.445C66.613 160.445 39.5508 133.382 39.5508 100C39.5508 66.6179 66.613 39.5557 99.9952 39.5557C133.377 39.5557 160.44 66.6179 160.44 100Z" fill="#D7E8FC"/>
<path d="M111.163 95.0995L116.329 83.4126L120.184 78.1697L122.768 69.9451C122.768 69.9451 127.692 66.9418 129.039 73.0414C129.788 76.4554 125.469 79.6197 125.469 79.6197C125.469 79.6197 122.798 88.014 119.708 89.9229C117.738 91.1393 116.356 92.5811 116.356 92.5811L116.755 92.9696C116.755 92.9696 126.197 87.8602 127.337 86.9938C128.468 86.1322 131.972 78.3316 132.443 77.5485C132.905 76.77 133.6 75.8677 134.502 76.356C135.238 76.7449 135.021 77.7401 134.648 78.6732C134.276 79.6064 129.887 88.0933 129.525 88.7266C128.688 90.1897 118.243 95.8579 118.243 95.8579L118.918 96.2926C118.918 96.2926 129.174 91.6685 130.965 91.5882C131.557 91.5603 140.32 95.018 140.851 95.2214C141.382 95.4249 141.886 96.1651 141.625 96.9145C141.353 97.7023 140.314 97.4668 139.637 97.3482C138.96 97.2296 131.742 94.9204 131.301 94.8716C130.86 94.8228 120.121 99.0635 120.121 99.0635L120.769 100.014C120.769 100.014 130.624 97.2309 131.797 97.3992C133.09 97.5854 138.747 100.353 139.574 100.863C140.402 101.372 141.89 102.815 141.304 103.643C140.859 104.282 138.751 103.589 138.316 103.232C137.881 102.875 132.121 99.9289 131.68 99.956C131.239 99.983 122.186 102.856 122.186 102.856L122.824 103.563C122.824 103.563 131.062 102.999 132.017 103.446C132.963 103.898 138.05 108.441 138.376 108.871C138.701 109.302 139.683 110.397 139.217 110.982C138.49 111.903 137.025 110.762 136.439 110.406C135.857 110.058 131.482 106.201 130.835 105.891C130.196 105.576 123.596 106.866 123.596 106.866L107.009 115.743C107.009 115.743 102.915 123.2 102.999 123.608C103.083 124.016 105.117 129.837 105.32 130.525C105.456 130.967 105.714 131.937 104.87 132.394C103.793 132.974 103.474 131.974 102.97 130.972C102.462 129.962 100.049 123.675 100.294 122.653C100.371 122.336 103.67 114.35 104.761 113.719C105.852 113.087 105.411 113.114 105.411 113.114L104.678 112.506C104.678 112.506 101.36 116.949 100.481 118.077C99.5974 119.198 96.6696 122.926 96.5406 123.229C96.3873 123.546 96.8271 130.03 96.7762 130.505C96.7222 131.069 96.3316 131.914 95.5926 132.027C94.9586 132.133 94.4902 131.437 94.3372 130.385C94.1794 129.324 92.9907 122.448 93.1389 122.047C93.2918 121.654 99.4786 114.169 99.9404 113.521C100.402 112.873 103.019 109.978 103.019 109.978L102.247 109.697C102.247 109.697 96.011 114.112 95.1333 114.849C94.2555 115.585 91.1369 118.195 90.975 118.441C90.8131 118.687 90.8882 124.035 90.872 124.664C90.8511 125.284 90.1821 127.433 89.3732 127.368C88.5725 127.299 88.1118 126.11 88.0098 125.408C87.9078 124.706 87.7185 117.773 88.0244 116.987C88.3302 116.201 91.1866 113.852 92.9669 112.44C94.7473 111.029 99.9714 107.156 99.9714 107.156L99.5605 106.709C99.5605 106.709 93.9148 110.098 92.3824 111.018C91.135 111.773 88.1778 113.648 87.3921 113.756C86.0842 113.937 80.98 113.719 79.8108 113.483C79.2899 113.372 75.7109 113.216 75.8945 111.469C76.0323 110.074 78.7386 110.43 79.511 110.45C80.2788 110.462 85.6524 110.676 86.8147 110.318C87.9803 109.948 97.3916 104.465 97.3916 104.465L96.3582 103.075C96.3582 103.075 93.8535 106.145 89.6328 106.795C85.2117 107.475 84.3821 106.456 84.3821 106.456C84.3821 106.456 81.5689 108.204 79.1452 106.271C77.7094 105.124 75.3639 101.994 75.3639 101.994L82.1698 98.2809L85.0546 101.273L103.517 97.6249L111.163 95.0995Z" fill="#4B9AE8"/>
<path d="M117.312 128.991C117.321 130.301 114.957 133.463 113.89 138.059C112.96 142.065 114.391 146.845 118.742 147.488C123.093 148.132 125.063 145.36 125.42 144.23C125.789 143.103 126.579 140.602 126.579 140.602L132.276 139.346L136.518 135.053C136.518 135.053 139.535 136.566 141.971 135.667C144.406 134.767 148.796 130.899 145.406 125.928C142.017 120.956 132.102 122.079 131.308 121.495C129.877 120.432 126.084 110.184 125.095 107.594C124.106 105.004 120.19 95.109 118.977 92.9752C117.587 90.5192 116.343 88.7834 116.343 88.7834C116.343 88.7834 117.189 84.2391 118.359 82.4859C119.528 80.7327 122.832 78.2544 122.832 78.2544C122.832 78.2544 121.348 75.092 122.761 72.7085C124.174 70.3251 127.251 69.5001 127.251 69.5001C127.251 69.5001 130.722 67.7616 131.297 62.2226C131.871 56.6835 125.175 45.8337 120.464 42.3341C115.753 38.8344 111.806 35.153 103.414 32.5787C98.7621 31.153 97.5107 31.6385 96.8229 33.7541C96.1351 35.8697 102.794 39.3173 106.298 42.5708C109.515 45.5552 110.866 46.7619 112.746 49.6514C114.458 52.2898 115.418 53.7776 114.639 54.3479C113.861 54.9182 113.066 54.0525 110.939 51.1108C108.812 48.169 104.65 45.0361 103.078 44.2938C101.551 43.5699 100.242 44.5563 100.157 46.0617C100.072 47.5672 103.84 53.3414 106.407 56.5174C108.975 59.6934 111.693 63.6187 114.228 65.9876C117.738 69.2702 120.951 70.2025 120.951 70.2025C120.951 70.2025 119.405 71.1739 119.216 72.8923C119.026 74.6107 119.442 76.5869 119.442 76.5869C119.442 76.5869 118.389 78.7291 117.881 79.7085C117.372 80.6879 114.396 85.4976 114.396 85.4976C114.396 85.4976 109.132 81.0795 106.167 79.8832C103.208 78.6951 94.474 75.025 93.9518 75.3056C93.3156 75.6523 92.8505 85.8666 92.5599 88.2739C92.2693 90.6812 92.3951 94.1081 92.7037 95.4293C93.0123 96.7505 93.4156 97.8973 93.4156 97.8973C93.4156 97.8973 90.2608 98.4743 88.9071 99.0083C87.5533 99.5422 85.2083 100.335 85.2083 100.335C85.2083 100.335 84.5428 98.8292 82.9314 97.9798C81.9122 97.4397 80.2747 96.9206 80.2747 96.9206C80.2747 96.9206 81.0354 95.0998 80.1933 92.9137C79.3512 90.7276 73.2361 83.0955 71.311 80.841C69.394 78.5817 65.0161 71.3784 63.5187 70.463C62.0213 69.5476 60.2984 71.4148 60.6299 74.2771C60.8409 76.0678 62.2679 79.752 63.7534 82.0546C65.239 84.3572 67.2608 85.9905 66.001 86.8179C64.7411 87.6454 61.431 82.53 59.7367 78.8158C58.0423 75.1016 56.365 66.0301 55.5277 64.6781C54.6905 63.3261 52.4614 62.9866 51.3333 66.857C50.2053 70.7274 48.7288 76.8865 52.3305 85.6588C54.8862 91.874 57.5609 96.4552 60.4599 99.2653C63.3588 102.075 67.1819 105.318 73.1008 104.803C79.0232 104.275 79.5912 98.9685 82.5487 100.603C83.897 101.355 84.7296 103.319 84.7296 103.319C84.7296 103.319 86.2593 101.944 90.3892 101.117C93.9025 100.409 94.8529 101.337 94.8529 101.337C94.8529 101.337 95.4078 102.276 97.4234 105.25C99.8837 108.879 107.733 117.235 108.363 117.892C108.994 118.548 114.585 125.125 115.495 126.152C116.603 127.315 117.315 128.283 117.312 128.991Z" fill="#4B9AE8"/>
<path d="M68.7436 69.1646C70.4598 68.5621 69.5972 67.0726 68.8769 65.5659C67.4127 62.5119 67.0451 58.4424 70.1051 56.5943C73.1651 54.7462 77.2873 59.0869 80.9642 65.305C84.6411 71.5231 92.9593 84.292 92.9593 84.292L94.7459 81.9531C94.7459 81.9531 84.3263 64.8797 82.4963 62.1136C80.6662 59.3475 75.0059 49.8544 68.526 53.4546C62.0462 57.0549 65.4718 65.0162 65.8681 65.7757C66.6077 67.1843 67.407 69.6343 68.7436 69.1646Z" fill="#4B9AE8"/>
<path d="M98.3428 78.1116C98.3428 78.1116 87.9423 59.4946 86.1991 56.2217C84.456 52.9488 80.483 45.9566 86.5781 42.6117C90.68 40.3668 92.6616 41.8931 95.0537 44.8227C96.3661 46.4322 97.1306 48.1089 97.5004 48.9164C97.8064 49.5762 98.0631 50.6013 97.1014 51.1365C96.0535 51.7107 95.3641 50.9144 94.8032 49.9458C94.2423 48.9772 91.293 43.4899 88.3949 45.0921C85.4968 46.6942 86.3112 50.3528 88.7429 54.6834C91.1746 59.014 101.758 78.2098 101.758 78.2098L98.3428 78.1116Z" fill="#4B9AE8"/>
<path d="M118.307 132.275C118.307 132.275 117.066 135.82 120.996 139.435C123.676 141.904 127.44 143.431 132.619 140.736C137.797 138.042 139.492 133.311 138.379 128.76C137.561 125.397 135.078 123.324 134.302 123.165C133.525 123.006 134.87 128.727 134.903 130.773C134.936 132.819 134.858 136.157 131.324 137.975C128.085 139.645 124.733 137.629 123.618 136.699C121.09 134.566 118.99 131.879 118.307 132.275Z" fill="#337CC4"/>
<path d="M119.962 129.86C119.962 129.86 121.441 127.927 124.623 126.009C127.797 124.094 130.649 123.595 130.649 123.595C130.649 123.595 134.332 132.864 130.262 135.221C126.192 137.577 119.962 129.86 119.962 129.86Z" fill="#337CC4"/>
<path d="M116.077 126.751C116.077 126.751 116.603 127.566 116.855 127.964C117.102 128.353 117.323 128.997 117.323 128.997C117.323 128.997 119.987 126.335 123.862 124.167C127.737 121.999 131.347 121.495 131.347 121.495C131.347 121.495 130.751 120.841 130.509 120.405C130.263 119.96 129.927 119.361 129.927 119.361C129.927 119.361 126.395 119.57 122.481 121.913C118.553 124.252 116.077 126.751 116.077 126.751Z" fill="#337CC4"/>
<path d="M110.544 120.346C110.544 120.346 112.93 117.334 117.878 114.393C122.827 111.451 126.397 110.916 126.397 110.916L129.141 117.588C129.141 117.588 125.74 117.796 121.214 120.417C116.689 123.037 114.978 125.507 114.978 125.507L110.544 120.346Z" fill="#337CC4"/>
<path d="M109.35 118.939C109.35 118.939 113.259 114.991 116.694 113.002C120.129 111.013 125.816 109.328 125.816 109.328C125.816 109.328 124.9 106.902 124.012 104.58C123.128 102.265 121.763 99.2516 121.763 99.2516C121.763 99.2516 120.399 107.237 114.879 110.129C109.358 113.022 102.123 110.962 102.123 110.962C102.123 110.962 104.384 113.685 106.073 115.457C107.464 116.901 109.35 118.939 109.35 118.939Z" fill="#73B9FF"/>
<path d="M103.383 86.0471C104.985 86.0471 106.282 84.7492 106.282 83.1481C106.282 81.547 104.985 80.249 103.383 80.249C101.782 80.249 100.484 81.547 100.484 83.1481C100.484 84.7492 101.782 86.0471 103.383 86.0471Z" fill="white"/>
<path d="M103.336 84.9067C104.296 84.9067 105.074 84.1286 105.074 83.1687C105.074 82.2088 104.296 81.4307 103.336 81.4307C102.376 81.4307 101.598 82.2088 101.598 83.1687C101.598 84.1286 102.376 84.9067 103.336 84.9067Z" fill="black"/>
<path d="M96.6588 90.0442C98.2599 90.0442 99.5578 88.7462 99.5578 87.1451C99.5578 85.544 98.2599 84.2461 96.6588 84.2461C95.0577 84.2461 93.7598 85.544 93.7598 87.1451C93.7598 88.7462 95.0577 90.0442 96.6588 90.0442Z" fill="white"/>
<path d="M96.6111 88.9038C97.571 88.9038 98.3491 88.1257 98.3491 87.1658C98.3491 86.2059 97.571 85.4277 96.6111 85.4277C95.6512 85.4277 94.873 86.2059 94.873 87.1658C94.873 88.1257 95.6512 88.9038 96.6111 88.9038Z" fill="black"/>
<path d="M69 137.889C69 140.246 69.9365 142.507 71.6035 144.174C73.2705 145.841 75.5314 146.778 77.8889 146.778C80.2464 146.778 82.5073 145.841 84.1743 144.174C85.8413 142.507 86.7778 140.246 86.7778 137.889C86.7778 135.531 85.8413 133.27 84.1743 131.603C82.5073 129.937 80.2464 129 77.8889 129C75.5314 129 73.2705 129.937 71.6035 131.603C69.9365 133.27 69 135.531 69 137.889Z" fill="#BAD1EC"/>
<path d="M92 146.444C92 147.623 92.4683 148.754 93.3017 149.587C94.1352 150.421 95.2657 150.889 96.4444 150.889C97.6232 150.889 98.7536 150.421 99.5871 149.587C100.421 148.754 100.889 147.623 100.889 146.444C100.889 145.266 100.421 144.135 99.5871 143.302C98.7536 142.468 97.6232 142 96.4444 142C95.2657 142 94.1352 142.468 93.3017 143.302C92.4683 144.135 92 145.266 92 146.444Z" fill="#BAD1EC"/>
<path d="M64.4434 122.222C64.4434 123.401 64.9116 124.531 65.7451 125.364C66.5786 126.198 67.7091 126.666 68.8878 126.666C70.0665 126.666 71.197 126.198 72.0305 125.364C72.864 124.531 73.3322 123.401 73.3322 122.222C73.3322 121.043 72.864 119.913 72.0305 119.079C71.197 118.246 70.0665 117.777 68.8878 117.777C67.7091 117.777 66.5786 118.246 65.7451 119.079C64.9116 119.913 64.4434 121.043 64.4434 122.222Z" fill="#BAD1EC"/>
</svg>
