<svg width="200" height="200" viewBox="0 0 200 200" fill="none" xmlns="http://www.w3.org/2000/svg">
<mask id="path-1-outside-1_1062_16306" maskUnits="userSpaceOnUse" x="11.7754" y="16.5586" width="178" height="161" fill="black">
<rect fill="white" x="11.7754" y="16.5586" width="178" height="161"/>
<path d="M62.7672 22.5586C69.6801 22.5586 76.3896 24.9007 81.8013 29.2021C83.767 30.7645 85.5185 32.5529 87.0279 34.5186C89.6859 37.9623 91.5991 41.9551 92.6041 46.2461C92.8786 46.2263 93.1547 46.2263 93.4293 46.2461L94.0084 46.2607C95.3579 46.3273 96.6875 46.6255 97.9381 47.1445C99.3675 47.7379 100.667 48.6081 101.759 49.7041C102.852 50.8001 103.717 52.1011 104.306 53.5322C104.895 54.9635 105.196 56.4972 105.191 58.0449V60.4111C105.191 63.5306 103.952 66.5227 101.747 68.7285C99.5409 70.9343 96.5487 72.1737 93.4293 72.1738H92.5679C92.0554 74.3869 91.3001 76.5207 90.3267 78.542C94.7553 80.7052 98.943 83.3964 102.792 86.5811C114.02 95.8728 121.664 108.784 124.413 123.097C125.745 129.986 126.418 136.987 126.421 144.004C126.421 147.572 125.718 151.105 124.351 154.401C124.071 155.076 123.762 155.737 123.43 156.385C132.446 154.993 141.011 151.339 148.295 145.701C157.771 138.367 164.545 128.096 167.554 116.498C169.223 110.064 168.531 103.245 165.603 97.2773C162.675 91.3099 157.705 86.59 151.595 83.9727C148.557 82.6664 145.143 82.5253 142.007 83.5771C138.872 84.629 136.233 86.7995 134.597 89.6738C134.148 90.4532 133.548 91.1366 132.835 91.6846C132.121 92.2324 131.306 92.6351 130.437 92.8682C128.682 93.3388 126.812 93.0927 125.238 92.1846C124.458 91.7348 123.775 91.1356 123.227 90.4219C122.679 89.7081 122.277 88.8935 122.044 88.0244C121.81 87.1553 121.751 86.2486 121.869 85.3564C121.986 84.4643 122.277 83.6036 122.727 82.8242C126.299 76.7102 132.04 72.1622 138.809 70.083C145.578 68.0039 152.882 68.5451 159.27 71.5996C167.951 75.7578 174.93 82.7869 179.027 91.4971C183.124 100.207 184.087 110.065 181.754 119.403C178.06 134.183 169.531 147.304 157.523 156.68C145.515 166.056 130.718 171.149 115.483 171.15H99.3219C99.294 171.15 99.2657 171.151 99.2379 171.151H48.5308C47.7068 171.173 46.8998 170.91 46.2467 170.407C45.5936 169.904 45.1332 169.192 44.9439 168.39C44.6711 166.962 44.7208 165.491 45.0894 164.085C45.4582 162.679 46.1373 161.372 47.0758 160.262C48.0142 159.152 49.1892 158.265 50.5142 157.667C51.8393 157.069 53.2816 156.775 54.7349 156.807H57.5679L57.3521 153.221C57.2297 150.578 57.6574 147.938 58.608 145.469C59.5586 143 61.0115 140.754 62.8746 138.876V130.197L46.2808 127.642C46.2854 127.966 46.287 128.29 46.2808 128.615C46.203 132.697 45.2762 136.719 43.5592 140.423C41.8421 144.127 39.3728 147.433 36.3082 150.13C33.2435 152.827 29.6504 154.856 25.7584 156.089C24.5801 156.631 23.2503 156.75 21.9947 156.425C20.739 156.1 19.6332 155.35 18.8658 154.305C18.0986 153.259 17.7164 151.981 17.7828 150.686C17.8493 149.39 18.3606 148.157 19.231 147.195C28.017 137.154 32.3208 131.345 29.9898 113.414C29.8329 112 30.1873 110.576 30.9898 109.4C31.5651 108.558 32.3439 107.884 33.2447 107.434L33.234 107.41L31.1402 102.449L26.2437 104.506C25.559 104.793 24.7705 104.471 24.483 103.786C24.1957 103.101 24.518 102.313 25.2027 102.025L31.2115 99.502C31.2504 99.4808 31.291 99.4619 31.3326 99.4443C31.3762 99.426 31.4202 99.41 31.4644 99.3965L37.5035 96.8613C38.1881 96.5742 38.9757 96.8966 39.2633 97.5811C39.5507 98.2658 39.2292 99.0542 38.5445 99.3418L33.6197 101.408L35.7115 106.365L35.7594 106.494C35.7911 106.597 35.8078 106.702 35.814 106.807C35.8538 106.806 35.8935 106.805 35.9332 106.805C36.8097 106.809 37.6811 107.007 38.483 107.392C39.7659 108.008 40.7862 109.063 41.358 110.366L42.2945 112.606C42.9139 112.367 43.5633 112.208 44.2271 112.135C45.3272 112.014 46.4409 112.133 47.4908 112.482L62.8746 115.207V95.8682C62.2631 95.8703 61.6509 95.8569 61.0387 95.8223C56.6527 95.5739 52.3717 94.384 48.4869 92.333C44.602 90.282 41.204 87.4182 38.525 83.9365C38.5239 83.931 38.5231 83.9254 38.5221 83.9199C35.8682 80.4696 33.9625 76.4701 32.9674 72.1738H32.1422C29.0226 72.1738 26.0307 70.9344 23.8248 68.7285C21.6189 66.5226 20.3795 63.5307 20.3795 60.4111V58.0449C20.3748 56.4973 20.6753 54.9634 21.2642 53.5322C21.8532 52.101 22.7194 50.8001 23.8121 49.7041C24.9048 48.6081 26.203 47.7379 27.6324 47.1445C29.0618 46.5512 30.5945 46.2461 32.1422 46.2461C32.4167 46.2263 32.6928 46.2263 32.9674 46.2461C34.5273 39.5115 38.3223 33.5036 43.734 29.2021C49.1455 24.9008 55.8544 22.5587 62.7672 22.5586Z"/>
</mask>
<path d="M62.7672 22.5586C69.6801 22.5586 76.3896 24.9007 81.8013 29.2021C83.767 30.7645 85.5185 32.5529 87.0279 34.5186C89.6859 37.9623 91.5991 41.9551 92.6041 46.2461C92.8786 46.2263 93.1547 46.2263 93.4293 46.2461L94.0084 46.2607C95.3579 46.3273 96.6875 46.6255 97.9381 47.1445C99.3675 47.7379 100.667 48.6081 101.759 49.7041C102.852 50.8001 103.717 52.1011 104.306 53.5322C104.895 54.9635 105.196 56.4972 105.191 58.0449V60.4111C105.191 63.5306 103.952 66.5227 101.747 68.7285C99.5409 70.9343 96.5487 72.1737 93.4293 72.1738H92.5679C92.0554 74.3869 91.3001 76.5207 90.3267 78.542C94.7553 80.7052 98.943 83.3964 102.792 86.5811C114.02 95.8728 121.664 108.784 124.413 123.097C125.745 129.986 126.418 136.987 126.421 144.004C126.421 147.572 125.718 151.105 124.351 154.401C124.071 155.076 123.762 155.737 123.43 156.385C132.446 154.993 141.011 151.339 148.295 145.701C157.771 138.367 164.545 128.096 167.554 116.498C169.223 110.064 168.531 103.245 165.603 97.2773C162.675 91.3099 157.705 86.59 151.595 83.9727C148.557 82.6664 145.143 82.5253 142.007 83.5771C138.872 84.629 136.233 86.7995 134.597 89.6738C134.148 90.4532 133.548 91.1366 132.835 91.6846C132.121 92.2324 131.306 92.6351 130.437 92.8682C128.682 93.3388 126.812 93.0927 125.238 92.1846C124.458 91.7348 123.775 91.1356 123.227 90.4219C122.679 89.7081 122.277 88.8935 122.044 88.0244C121.81 87.1553 121.751 86.2486 121.869 85.3564C121.986 84.4643 122.277 83.6036 122.727 82.8242C126.299 76.7102 132.04 72.1622 138.809 70.083C145.578 68.0039 152.882 68.5451 159.27 71.5996C167.951 75.7578 174.93 82.7869 179.027 91.4971C183.124 100.207 184.087 110.065 181.754 119.403C178.06 134.183 169.531 147.304 157.523 156.68C145.515 166.056 130.718 171.149 115.483 171.15H99.3219C99.294 171.15 99.2657 171.151 99.2379 171.151H48.5308C47.7068 171.173 46.8998 170.91 46.2467 170.407C45.5936 169.904 45.1332 169.192 44.9439 168.39C44.6711 166.962 44.7208 165.491 45.0894 164.085C45.4582 162.679 46.1373 161.372 47.0758 160.262C48.0142 159.152 49.1892 158.265 50.5142 157.667C51.8393 157.069 53.2816 156.775 54.7349 156.807H57.5679L57.3521 153.221C57.2297 150.578 57.6574 147.938 58.608 145.469C59.5586 143 61.0115 140.754 62.8746 138.876V130.197L46.2808 127.642C46.2854 127.966 46.287 128.29 46.2808 128.615C46.203 132.697 45.2762 136.719 43.5592 140.423C41.8421 144.127 39.3728 147.433 36.3082 150.13C33.2435 152.827 29.6504 154.856 25.7584 156.089C24.5801 156.631 23.2503 156.75 21.9947 156.425C20.739 156.1 19.6332 155.35 18.8658 154.305C18.0986 153.259 17.7164 151.981 17.7828 150.686C17.8493 149.39 18.3606 148.157 19.231 147.195C28.017 137.154 32.3208 131.345 29.9898 113.414C29.8329 112 30.1873 110.576 30.9898 109.4C31.5651 108.558 32.3439 107.884 33.2447 107.434L33.234 107.41L31.1402 102.449L26.2437 104.506C25.559 104.793 24.7705 104.471 24.483 103.786C24.1957 103.101 24.518 102.313 25.2027 102.025L31.2115 99.502C31.2504 99.4808 31.291 99.4619 31.3326 99.4443C31.3762 99.426 31.4202 99.41 31.4644 99.3965L37.5035 96.8613C38.1881 96.5742 38.9757 96.8966 39.2633 97.5811C39.5507 98.2658 39.2292 99.0542 38.5445 99.3418L33.6197 101.408L35.7115 106.365L35.7594 106.494C35.7911 106.597 35.8078 106.702 35.814 106.807C35.8538 106.806 35.8935 106.805 35.9332 106.805C36.8097 106.809 37.6811 107.007 38.483 107.392C39.7659 108.008 40.7862 109.063 41.358 110.366L42.2945 112.606C42.9139 112.367 43.5633 112.208 44.2271 112.135C45.3272 112.014 46.4409 112.133 47.4908 112.482L62.8746 115.207V95.8682C62.2631 95.8703 61.6509 95.8569 61.0387 95.8223C56.6527 95.5739 52.3717 94.384 48.4869 92.333C44.602 90.282 41.204 87.4182 38.525 83.9365C38.5239 83.931 38.5231 83.9254 38.5221 83.9199C35.8682 80.4696 33.9625 76.4701 32.9674 72.1738H32.1422C29.0226 72.1738 26.0307 70.9344 23.8248 68.7285C21.6189 66.5226 20.3795 63.5307 20.3795 60.4111V58.0449C20.3748 56.4973 20.6753 54.9634 21.2642 53.5322C21.8532 52.101 22.7194 50.8001 23.8121 49.7041C24.9048 48.6081 26.203 47.7379 27.6324 47.1445C29.0618 46.5512 30.5945 46.2461 32.1422 46.2461C32.4167 46.2263 32.6928 46.2263 32.9674 46.2461C34.5273 39.5115 38.3223 33.5036 43.734 29.2021C49.1455 24.9008 55.8544 22.5587 62.7672 22.5586Z" fill="#154472"/>
<path d="M62.7672 22.5586L62.7672 16.5586L62.7671 16.5586L62.7672 22.5586ZM81.8013 29.2021L85.5348 24.5052L85.5347 24.5051L81.8013 29.2021ZM87.0279 34.5186L82.2691 38.1729C82.2721 38.1768 82.2751 38.1807 82.2781 38.1846L87.0279 34.5186ZM92.6041 46.2461L86.7622 47.6143C87.4347 50.4856 90.094 52.4425 93.0353 52.2306L92.6041 46.2461ZM93.4293 46.2461L92.998 52.2306C93.0911 52.2373 93.1843 52.2418 93.2776 52.2442L93.4293 46.2461ZM94.0084 46.2607L94.304 40.268C94.256 40.2657 94.2081 40.2639 94.1601 40.2627L94.0084 46.2607ZM97.9381 47.1445L100.238 41.603L100.238 41.6029L97.9381 47.1445ZM101.759 49.7041L106.009 45.4681L106.008 45.4679L101.759 49.7041ZM104.306 53.5322L109.855 51.2488L109.855 51.2488L104.306 53.5322ZM105.191 58.0449L99.191 58.0266C99.191 58.0327 99.191 58.0388 99.191 58.0449L105.191 58.0449ZM101.747 68.7285L105.989 72.9712L105.989 72.971L101.747 68.7285ZM93.4293 72.1738L93.4293 78.1738L93.4295 78.1738L93.4293 72.1738ZM92.5679 72.1738V66.1738C89.7758 66.1738 87.3527 68.0998 86.7227 70.8199L92.5679 72.1738ZM90.3267 78.542L84.9209 75.9388C83.4889 78.9126 84.7276 82.4846 87.6933 83.9332L90.3267 78.542ZM102.792 86.5811L106.617 81.9585L106.617 81.9585L102.792 86.5811ZM124.413 123.097L118.52 124.228L118.522 124.236L124.413 123.097ZM126.421 144.004L132.421 144.004L132.421 144.001L126.421 144.004ZM124.351 154.401L129.894 156.699L129.894 156.699L124.351 154.401ZM123.43 156.385L118.091 153.648C117.062 155.655 117.246 158.068 118.565 159.896C119.885 161.724 122.118 162.659 124.346 162.315L123.43 156.385ZM148.295 145.701L151.968 150.446L151.968 150.446L148.295 145.701ZM167.554 116.498L173.362 118.005L173.362 118.005L167.554 116.498ZM165.603 97.2773L170.99 94.6345L170.99 94.6345L165.603 97.2773ZM151.595 83.9727L149.226 89.4849L149.233 89.4879L151.595 83.9727ZM142.007 83.5771L140.099 77.8887L140.099 77.8887L142.007 83.5771ZM134.597 89.6738L139.794 92.6726C139.8 92.6625 139.806 92.6523 139.812 92.6421L134.597 89.6738ZM132.835 91.6846L136.488 96.444L136.488 96.4438L132.835 91.6846ZM130.437 92.8682L131.991 98.6634L131.991 98.6634L130.437 92.8682ZM125.238 92.1846L122.239 97.3814L122.239 97.3816L125.238 92.1846ZM123.227 90.4219L118.468 94.0755L118.468 94.0756L123.227 90.4219ZM122.044 88.0244L116.248 89.5786L116.248 89.5787L122.044 88.0244ZM121.869 85.3564L115.92 84.5746L115.92 84.5747L121.869 85.3564ZM122.727 82.8242L117.547 79.7974C117.541 79.8067 117.536 79.8161 117.53 79.8254L122.727 82.8242ZM138.809 70.083L137.047 64.3475L137.047 64.3475L138.809 70.083ZM159.27 71.5996L161.862 66.1884L161.858 66.1865L159.27 71.5996ZM179.027 91.4971L184.456 88.9433L184.456 88.9433L179.027 91.4971ZM181.754 119.403L187.575 120.858L187.576 120.857L181.754 119.403ZM157.523 156.68L161.216 161.409L161.216 161.409L157.523 156.68ZM115.483 171.15L115.483 177.15L115.483 177.15L115.483 171.15ZM99.3219 171.15L99.3219 165.15L99.3113 165.15L99.3219 171.15ZM99.2379 171.151L99.2458 165.151H99.2379V171.151ZM48.5308 171.151V165.151C48.4774 165.151 48.4239 165.152 48.3705 165.154L48.5308 171.151ZM46.2467 170.407L42.5857 175.161L42.5861 175.161L46.2467 170.407ZM44.9439 168.39L39.0506 169.516C39.0667 169.6 39.0846 169.684 39.1043 169.768L44.9439 168.39ZM45.0894 164.085L39.2856 162.563L39.2855 162.563L45.0894 164.085ZM47.0758 160.262L42.4934 156.388L42.4933 156.389L47.0758 160.262ZM50.5142 157.667L48.047 152.198L48.0468 152.198L50.5142 157.667ZM54.7349 156.807L54.6062 162.805C54.6491 162.806 54.692 162.807 54.7349 162.807L54.7349 156.807ZM57.5679 156.807V162.807C59.2218 162.807 60.8024 162.124 61.9362 160.92C63.07 159.716 63.6565 158.097 63.5571 156.446L57.5679 156.807ZM57.3521 153.221L51.3586 153.498C51.3598 153.526 51.3613 153.554 51.363 153.581L57.3521 153.221ZM58.608 145.469L53.0086 143.313L53.0086 143.313L58.608 145.469ZM62.8746 138.876L67.1347 143.101C68.2492 141.977 68.8746 140.459 68.8746 138.876H62.8746ZM62.8746 130.197H68.8746C68.8746 127.236 66.7145 124.718 63.7879 124.267L62.8746 130.197ZM46.2808 127.642L47.1942 121.712C45.4492 121.443 43.6745 121.956 42.3425 123.115C41.0106 124.274 40.2566 125.961 40.2814 127.726L46.2808 127.642ZM46.2808 128.615L52.2797 128.73L52.2798 128.73L46.2808 128.615ZM43.5592 140.423L49.0027 142.946L49.0027 142.946L43.5592 140.423ZM36.3082 150.13L40.2722 154.634L40.2722 154.634L36.3082 150.13ZM25.7584 156.089L23.9469 150.369C23.7096 150.444 23.4772 150.534 23.2511 150.638L25.7584 156.089ZM21.9947 156.425L20.4912 162.233L20.4916 162.233L21.9947 156.425ZM18.8658 154.305L14.0283 157.854L14.0286 157.855L18.8658 154.305ZM17.7828 150.686L11.7907 150.378L11.7907 150.378L17.7828 150.686ZM19.231 147.195L23.6792 151.222C23.7019 151.197 23.7243 151.172 23.7465 151.146L19.231 147.195ZM29.9898 113.414L24.0264 114.076C24.0306 114.113 24.035 114.15 24.0399 114.188L29.9898 113.414ZM30.9898 109.4L26.035 106.017L26.0349 106.017L30.9898 109.4ZM33.2447 107.434L35.9277 112.8C38.821 111.354 40.0469 107.874 38.6991 104.934L33.2447 107.434ZM33.234 107.41L27.7061 109.743C27.7298 109.799 27.7542 109.855 27.7796 109.91L33.234 107.41ZM31.1402 102.449L36.6681 100.116C35.3811 97.067 31.8681 95.6357 28.8167 96.9174L31.1402 102.449ZM26.2437 104.506L28.5656 110.038L28.5672 110.038L26.2437 104.506ZM24.483 103.786L18.9502 106.107L18.9508 106.109L24.483 103.786ZM25.2027 102.025L27.5253 107.558L27.5259 107.557L25.2027 102.025ZM31.2115 99.502L33.5347 105.034C33.7197 104.956 33.9006 104.869 34.0769 104.774L31.2115 99.502ZM31.3326 99.4443L29.0017 93.9156L28.9997 93.9164L31.3326 99.4443ZM31.4644 99.3965L33.2138 105.136C33.4082 105.077 33.5995 105.007 33.7869 104.929L31.4644 99.3965ZM37.5035 96.8613L35.1831 91.3282L35.1811 91.329L37.5035 96.8613ZM39.2633 97.5811L44.7955 95.2585L44.7951 95.2574L39.2633 97.5811ZM38.5445 99.3418L40.866 104.874L40.8679 104.874L38.5445 99.3418ZM33.6197 101.408L31.2982 95.8755C29.8289 96.492 28.6652 97.6677 28.0637 99.1432C27.4621 100.619 27.4722 102.273 28.0917 103.741L33.6197 101.408ZM35.7115 106.365L41.3365 104.277C41.3059 104.195 41.2736 104.113 41.2395 104.033L35.7115 106.365ZM35.7594 106.494L41.4949 104.732C41.4612 104.623 41.4243 104.514 41.3843 104.406L35.7594 106.494ZM35.814 106.807L29.8249 107.167C30.0176 110.371 32.6976 112.856 35.9069 112.806L35.814 106.807ZM35.9332 106.805L35.9059 112.805L35.906 112.805L35.9332 106.805ZM38.483 107.392L41.0802 101.983L41.0801 101.983L38.483 107.392ZM41.358 110.366L46.8937 108.052C46.8802 108.02 46.8665 107.988 46.8524 107.956L41.358 110.366ZM42.2945 112.606L36.7588 114.921C38.0128 117.92 41.4282 119.376 44.4604 118.202L42.2945 112.606ZM44.2271 112.135L43.5726 106.171L43.5724 106.171L44.2271 112.135ZM47.4908 112.482L45.5941 118.175C45.8719 118.267 46.1561 118.339 46.4444 118.39L47.4908 112.482ZM62.8746 115.207L61.8282 121.115C63.5754 121.425 65.3699 120.945 66.7296 119.805C68.0892 118.665 68.8746 116.981 68.8746 115.207H62.8746ZM62.8746 95.8682H68.8746C68.8746 94.2733 68.2396 92.744 67.1099 91.6182C65.9801 90.4923 64.4486 89.8627 62.8537 89.8682L62.8746 95.8682ZM61.0387 95.8223L60.6994 101.813L60.6994 101.813L61.0387 95.8223ZM48.4869 92.333L45.6856 97.6389L45.6857 97.639L48.4869 92.333ZM38.525 83.9365L32.6365 85.0878C32.8149 86.0002 33.2028 86.8587 33.7698 87.5955L38.525 83.9365ZM38.5221 83.9199L44.4119 82.7757C44.2343 81.8611 43.846 81.0005 43.278 80.2619L38.5221 83.9199ZM32.9674 72.1738L38.8126 70.8199C38.1826 68.0998 35.7595 66.1738 32.9674 66.1738V72.1738ZM23.8248 68.7285L19.5821 72.9711L19.5821 72.9712L23.8248 68.7285ZM20.3795 60.4111L14.3795 60.4111L20.3795 60.4111ZM20.3795 58.0449H26.3795C26.3795 58.0388 26.3795 58.0327 26.3794 58.0266L20.3795 58.0449ZM21.2642 53.5322L15.7157 51.2488L15.7157 51.2489L21.2642 53.5322ZM23.8121 49.7041L19.563 45.4679L19.563 45.4679L23.8121 49.7041ZM27.6324 47.1445L25.3321 41.603L25.3321 41.603L27.6324 47.1445ZM32.1422 46.2461L32.1421 52.2461C32.286 52.2461 32.4298 52.2409 32.5733 52.2306L32.1422 46.2461ZM32.9674 46.2461L32.5361 52.2306C35.483 52.4429 38.1459 50.4784 38.8126 47.6L32.9674 46.2461ZM43.734 29.2021L40.0006 24.5051L40.0006 24.5052L43.734 29.2021ZM62.7672 22.5586V28.5586C68.324 28.5586 73.7176 30.4412 78.068 33.8991L81.8013 29.2021L85.5347 24.5051C79.0617 19.3601 71.0363 16.5586 62.7672 16.5586V22.5586ZM81.8013 29.2021L78.0679 33.8991C79.6466 35.1539 81.0546 36.5912 82.2691 38.1729L87.0279 34.5186L91.7867 30.8643C89.9824 28.5146 87.8874 26.3752 85.5348 24.5052L81.8013 29.2021ZM87.0279 34.5186L82.2781 38.1846C84.4166 40.9552 85.9545 44.1657 86.7622 47.6143L92.6041 46.2461L98.446 44.8779C97.2437 39.7444 94.9553 34.9695 91.7777 30.8526L87.0279 34.5186ZM92.6041 46.2461L93.0353 52.2306C93.0228 52.2315 93.0106 52.2315 92.998 52.2306L93.4293 46.2461L93.8605 40.2616C93.2988 40.2211 92.7345 40.2211 92.1729 40.2616L92.6041 46.2461ZM93.4293 46.2461L93.2776 52.2442L93.8567 52.2588L94.0084 46.2607L94.1601 40.2627L93.581 40.248L93.4293 46.2461ZM94.0084 46.2607L93.7128 52.2535C94.3755 52.2861 95.0268 52.4325 95.638 52.6862L97.9381 47.1445L100.238 41.6029C98.3481 40.8185 96.3403 40.3685 94.304 40.268L94.0084 46.2607ZM97.9381 47.1445L95.6378 52.6861C96.3381 52.9768 96.975 53.4034 97.5103 53.9403L101.759 49.7041L106.008 45.4679C104.358 43.8127 102.397 42.499 100.238 41.603L97.9381 47.1445ZM101.759 49.7041L97.5101 53.9401C98.0448 54.4765 98.4689 55.1138 98.7577 55.8157L104.306 53.5322L109.855 51.2488C108.966 49.0885 107.659 47.1237 106.009 45.4681L101.759 49.7041ZM104.306 53.5322L98.7577 55.8157C99.0459 56.516 99.1933 57.2675 99.191 58.0266L105.191 58.0449L111.191 58.0632C111.198 55.727 110.745 53.411 109.855 51.2488L104.306 53.5322ZM105.191 58.0449H99.191V60.4111H105.191H111.191V58.0449H105.191ZM105.191 60.4111H99.191C99.191 61.9402 98.5838 63.406 97.5039 64.486L101.747 68.7285L105.989 72.971C109.321 69.6393 111.191 65.121 111.191 60.4111H105.191ZM101.747 68.7285L97.504 64.4859C96.4234 65.5665 94.9573 66.1738 93.4291 66.1738L93.4293 72.1738L93.4295 78.1738C98.1401 78.1737 102.658 76.3021 105.989 72.9712L101.747 68.7285ZM93.4293 72.1738V66.1738H92.5679V72.1738V78.1738H93.4293V72.1738ZM92.5679 72.1738L86.7227 70.8199C86.3112 72.5965 85.7044 74.3117 84.9209 75.9388L90.3267 78.542L95.7326 81.1452C96.8958 78.7297 97.7995 76.1773 98.4132 73.5277L92.5679 72.1738ZM90.3267 78.542L87.6933 83.9332C91.6988 85.8897 95.486 88.3236 98.9664 91.2036L102.792 86.5811L106.617 81.9585C102.4 78.4692 97.8119 75.5207 92.9602 73.1508L90.3267 78.542ZM102.792 86.5811L98.9664 91.2036C109.121 99.6069 116.035 111.283 118.52 124.228L124.413 123.097L130.305 121.965C127.294 106.284 118.919 92.1388 106.617 81.9585L102.792 86.5811ZM124.413 123.097L118.522 124.236C119.781 130.751 120.418 137.372 120.421 144.007L126.421 144.004L132.421 144.001C132.417 136.602 131.708 129.221 130.304 121.958L124.413 123.097ZM126.421 144.004L120.421 144.004C120.421 146.783 119.873 149.536 118.809 152.103L124.351 154.401L129.894 156.699C131.562 152.675 132.421 148.361 132.421 144.004L126.421 144.004ZM124.351 154.401L118.809 152.103C118.597 152.614 118.357 153.129 118.091 153.648L123.43 156.385L128.77 159.121C129.168 158.345 129.546 157.538 129.894 156.699L124.351 154.401ZM123.43 156.385L124.346 162.315C134.359 160.769 143.874 156.71 151.968 150.446L148.295 145.701L144.623 140.956C138.147 145.968 130.532 149.217 122.515 150.455L123.43 156.385ZM148.295 145.701L151.968 150.446C162.494 142.299 170.019 130.889 173.362 118.005L167.554 116.498L161.747 114.991C159.071 125.303 153.048 134.436 144.623 140.956L148.295 145.701ZM167.554 116.498L173.362 118.005C175.391 110.182 174.549 101.89 170.99 94.6345L165.603 97.2773L160.217 99.9202C162.512 104.599 163.055 109.947 161.747 114.991L167.554 116.498ZM165.603 97.2773L170.99 94.6345C167.43 87.3784 161.386 81.6396 153.958 78.4574L151.595 83.9727L149.233 89.4879C154.024 91.5404 157.921 95.2415 160.217 99.9202L165.603 97.2773ZM151.595 83.9727L153.965 78.4604C149.571 76.5716 144.635 76.3673 140.099 77.8887L142.007 83.5771L143.916 89.2656C145.652 88.6833 147.542 88.7612 149.226 89.4849L151.595 83.9727ZM142.007 83.5771L140.099 77.8887C135.565 79.4098 131.749 82.5486 129.383 86.7055L134.597 89.6738L139.812 92.6421C140.718 91.0504 142.179 89.8483 143.916 89.2656L142.007 83.5771ZM134.597 89.6738L129.4 86.675C129.345 86.7715 129.27 86.8568 129.181 86.9253L132.835 91.6846L136.488 96.4438C137.827 95.4164 138.95 94.1349 139.794 92.6726L134.597 89.6738ZM132.835 91.6846L129.181 86.9251C129.09 86.9949 128.988 87.0447 128.883 87.073L130.437 92.8682L131.991 98.6634C133.624 98.2255 135.152 97.4699 136.488 96.444L132.835 91.6846ZM130.437 92.8682L128.883 87.0729C128.666 87.1312 128.433 87.1009 128.236 86.9876L125.238 92.1846L122.239 97.3816C125.191 99.0845 128.698 99.5463 131.991 98.6634L130.437 92.8682ZM125.238 92.1846L128.237 86.9877C128.14 86.932 128.055 86.8574 127.986 86.7682L123.227 90.4219L118.468 94.0756C119.495 95.4139 120.777 96.5376 122.239 97.3814L125.238 92.1846ZM123.227 90.4219L127.986 86.7683C127.917 86.6775 127.867 86.5758 127.839 86.4701L122.044 88.0244L116.248 89.5787C116.686 91.2112 117.442 92.7388 118.468 94.0755L123.227 90.4219ZM122.044 88.0244L127.839 86.4702C127.811 86.3651 127.803 86.2522 127.818 86.1382L121.869 85.3564L115.92 84.5747C115.7 86.245 115.81 87.9456 116.248 89.5786L122.044 88.0244ZM121.869 85.3564L127.818 86.1383C127.832 86.025 127.869 85.9179 127.924 85.823L122.727 82.8242L117.53 79.8254C116.686 81.2893 116.14 82.9036 115.92 84.5746L121.869 85.3564ZM122.727 82.8242L127.908 85.8511C130.72 81.037 135.241 77.4558 140.571 75.8185L138.809 70.083L137.047 64.3475C128.839 66.8687 121.878 72.3834 117.547 79.7974L122.727 82.8242ZM138.809 70.083L140.571 75.8186C145.901 74.1814 151.652 74.6076 156.682 77.0127L159.27 71.5996L161.858 66.1865C154.112 62.4826 145.255 61.8264 137.047 64.3475L138.809 70.083ZM159.27 71.5996L156.678 77.0109C164.112 80.5718 170.089 86.5914 173.598 94.0509L179.027 91.4971L184.456 88.9433C179.771 78.9825 171.79 70.9439 161.862 66.1884L159.27 71.5996ZM179.027 91.4971L173.598 94.0508C177.106 101.51 177.931 109.952 175.933 117.949L181.754 119.403L187.576 120.857C190.243 110.178 189.142 98.9044 184.456 88.9433L179.027 91.4971ZM181.754 119.403L175.934 117.948C172.563 131.43 164.783 143.398 153.83 151.951L157.523 156.68L161.216 161.409C174.278 151.209 183.556 136.936 187.575 120.858L181.754 119.403ZM157.523 156.68L153.83 151.951C142.877 160.503 129.379 165.149 115.483 165.15L115.483 171.15L115.483 177.15C132.056 177.149 148.153 171.608 161.216 161.409L157.523 156.68ZM115.483 171.15V165.15H99.3219V171.15V177.15H115.483V171.15ZM99.3219 171.15L99.3113 165.15C99.2723 165.15 99.2397 165.151 99.218 165.151C99.207 165.151 99.1975 165.151 99.1907 165.152C99.1846 165.152 99.178 165.152 99.1761 165.152C99.1688 165.152 99.1754 165.152 99.1852 165.152C99.196 165.152 99.2176 165.151 99.2458 165.151L99.2379 171.151L99.2299 177.151C99.2721 177.151 99.3077 177.151 99.3325 177.151C99.3562 177.15 99.3769 177.15 99.3836 177.15C99.3948 177.15 99.3896 177.15 99.3838 177.15C99.3761 177.15 99.3574 177.15 99.3324 177.15L99.3219 171.15ZM99.2379 171.151V165.151H48.5308V171.151V177.151H99.2379V171.151ZM48.5308 171.151L48.3705 165.154C48.9278 165.139 49.4697 165.316 49.9072 165.653L46.2467 170.407L42.5861 175.161C44.33 176.504 46.4857 177.208 48.6912 177.149L48.5308 171.151ZM46.2467 170.407L49.9076 165.654C50.345 165.99 50.6555 166.469 50.7836 167.012L44.9439 168.39L39.1043 169.768C39.6109 171.915 40.8423 173.818 42.5857 175.161L46.2467 170.407ZM44.9439 168.39L50.8373 167.263C50.7323 166.714 50.7514 166.148 50.8933 165.606L45.0894 164.085L39.2855 162.563C38.6903 164.834 38.6098 167.21 39.0506 169.516L44.9439 168.39ZM45.0894 164.085L50.8933 165.607C51.0349 165.067 51.2963 164.563 51.6582 164.135L47.0758 160.262L42.4933 156.389C40.9783 158.181 39.8814 160.291 39.2856 162.563L45.0894 164.085ZM47.0758 160.262L51.6581 164.135C52.0193 163.708 52.4718 163.366 52.9817 163.136L50.5142 157.667L48.0468 152.198C45.9065 153.163 44.009 154.595 42.4934 156.388L47.0758 160.262ZM50.5142 157.667L52.9814 163.136C53.4906 162.907 54.046 162.793 54.6062 162.805L54.7349 156.807L54.8637 150.808C52.5173 150.758 50.1879 151.232 48.047 152.198L50.5142 157.667ZM54.7349 156.807V162.807H57.5679V156.807V150.807H54.7349V156.807ZM57.5679 156.807L63.5571 156.446L63.3413 152.86L57.3521 153.221L51.363 153.581L51.5788 157.167L57.5679 156.807ZM57.3521 153.221L63.3457 152.943C63.2617 151.13 63.5552 149.319 64.2074 147.624L58.608 145.469L53.0086 143.313C51.7597 146.557 51.1977 150.026 51.3586 153.498L57.3521 153.221ZM58.608 145.469L64.2073 147.625C64.8596 145.93 65.8565 144.39 67.1347 143.101L62.8746 138.876L58.6145 134.651C56.1664 137.119 54.2576 140.069 53.0086 143.313L58.608 145.469ZM62.8746 138.876H68.8746V130.197H62.8746H56.8746V138.876H62.8746ZM62.8746 130.197L63.7879 124.267L47.1942 121.712L46.2808 127.642L45.3675 133.572L61.9613 136.127L62.8746 130.197ZM46.2808 127.642L40.2814 127.726C40.2855 128.017 40.2863 128.269 40.2819 128.501L46.2808 128.615L52.2798 128.73C52.2877 128.312 52.2853 127.914 52.2802 127.557L46.2808 127.642ZM46.2808 128.615L40.2819 128.501C40.22 131.75 39.4822 134.951 38.1156 137.899L43.5592 140.423L49.0027 142.946C51.0703 138.486 52.186 133.644 52.2797 128.73L46.2808 128.615ZM43.5592 140.423L38.1157 137.899C36.7488 140.848 34.7833 143.479 32.3442 145.626L36.3082 150.13L40.2722 154.634C43.9624 151.386 46.9354 147.406 49.0027 142.946L43.5592 140.423ZM36.3082 150.13L32.3442 145.626C29.9051 147.772 27.0452 149.388 23.9469 150.369L25.7584 156.089L27.5698 161.809C32.2557 160.325 36.5819 157.882 40.2722 154.634L36.3082 150.13ZM25.7584 156.089L23.2511 150.638C23.3276 150.603 23.4145 150.595 23.4978 150.616L21.9947 156.425L20.4916 162.233C23.0862 162.905 25.8325 162.659 28.2657 161.54L25.7584 156.089ZM21.9947 156.425L23.4983 150.616C23.5811 150.638 23.6528 150.686 23.703 150.755L18.8658 154.305L14.0286 157.855C15.6137 160.014 17.8968 161.562 20.4912 162.233L21.9947 156.425ZM18.8658 154.305L23.7033 150.755C23.7546 150.825 23.7792 150.909 23.7749 150.993L17.7828 150.686L11.7907 150.378C11.6535 153.052 12.4427 155.693 14.0283 157.854L18.8658 154.305ZM17.7828 150.686L23.7749 150.993C23.7706 151.076 23.7379 151.157 23.6792 151.222L19.231 147.195L14.7829 143.169C12.9832 145.157 11.928 147.704 11.7907 150.378L17.7828 150.686ZM19.231 147.195L23.7465 151.146C28.0818 146.192 32.0707 141.485 34.3871 135.397C36.757 129.168 37.1731 122.127 35.9398 112.641L29.9898 113.414L24.0399 114.188C25.1376 122.631 24.5673 127.461 23.1714 131.13C21.7222 134.939 19.1663 138.158 14.7156 143.244L19.231 147.195ZM29.9898 113.414L35.9532 112.753C35.9543 112.762 35.9522 112.773 35.9448 112.784L30.9898 109.4L26.0349 106.017C24.4225 108.378 23.7116 111.238 24.0264 114.076L29.9898 113.414ZM30.9898 109.4L35.9447 112.784C35.9377 112.794 35.9308 112.799 35.9277 112.8L33.2447 107.434L30.5617 102.067C28.7571 102.969 27.1926 104.322 26.035 106.017L30.9898 109.4ZM33.2447 107.434L38.6991 104.934L38.6884 104.91L33.234 107.41L27.7796 109.91L27.7903 109.934L33.2447 107.434ZM33.234 107.41L38.7618 105.077L36.6681 100.116L31.1402 102.449L25.6124 104.782L27.7061 109.743L33.234 107.41ZM31.1402 102.449L28.8167 96.9174L23.9202 98.974L26.2437 104.506L28.5672 110.038L33.4637 107.981L31.1402 102.449ZM26.2437 104.506L23.9219 98.9733C26.2931 97.9782 29.0204 99.0939 30.0152 101.464L24.483 103.786L18.9508 106.109C20.5205 109.848 24.8248 111.608 28.5656 110.038L26.2437 104.506ZM24.483 103.786L30.0157 101.465C31.0103 103.835 29.8955 106.563 27.5253 107.558L25.2027 102.025L22.8801 96.4932C19.1405 98.0631 17.3811 102.368 18.9502 106.107L24.483 103.786ZM25.2027 102.025L27.5259 107.557L33.5347 105.034L31.2115 99.502L28.8883 93.97L22.8795 96.4934L25.2027 102.025ZM31.2115 99.502L34.0769 104.774C33.8999 104.87 33.7543 104.935 33.6655 104.972L31.3326 99.4443L28.9997 93.9164C28.8276 93.9891 28.6009 94.0919 28.3461 94.2304L31.2115 99.502ZM31.3326 99.4443L33.6635 104.973C33.5233 105.032 33.3733 105.087 33.2138 105.136L31.4644 99.3965L29.715 93.6572C29.467 93.7328 29.2291 93.8197 29.0017 93.9156L31.3326 99.4443ZM31.4644 99.3965L33.7869 104.929L39.8259 102.394L37.5035 96.8613L35.1811 91.329L29.142 93.8642L31.4644 99.3965ZM37.5035 96.8613L39.8239 102.394C37.4509 103.39 34.7255 102.271 33.7315 99.9047L39.2633 97.5811L44.7951 95.2574C43.226 91.5221 38.9253 89.7588 35.1831 91.3282L37.5035 96.8613ZM39.2633 97.5811L33.731 99.9036C32.7376 97.5373 33.847 94.8071 36.2211 93.8099L38.5445 99.3418L40.8679 104.874C44.6114 103.301 46.3639 98.9943 44.7955 95.2585L39.2633 97.5811ZM38.5445 99.3418L36.223 93.8091L31.2982 95.8755L33.6197 101.408L35.9412 106.941L40.866 104.874L38.5445 99.3418ZM33.6197 101.408L28.0917 103.741L30.1835 108.698L35.7115 106.365L41.2395 104.033L39.1477 99.0755L33.6197 101.408ZM35.7115 106.365L30.0866 108.453L30.1344 108.582L35.7594 106.494L41.3843 104.406L41.3365 104.277L35.7115 106.365ZM35.7594 106.494L30.0238 108.256C29.8937 107.832 29.8423 107.457 29.8249 107.167L35.814 106.807L41.8032 106.446C41.7732 105.948 41.6885 105.363 41.4949 104.732L35.7594 106.494ZM35.814 106.807L35.9069 112.806C35.9231 112.806 35.9376 112.805 35.9498 112.805C35.9618 112.805 35.9724 112.805 35.9804 112.804C35.9844 112.804 35.9881 112.804 35.9911 112.804C35.9926 112.804 35.994 112.804 35.9953 112.804C35.9966 112.804 35.9976 112.804 35.9987 112.804C36.0008 112.804 36.0022 112.804 36.0032 112.804C36.0038 112.804 36.0041 112.804 36.0044 112.804C36.0046 112.804 36.0047 112.804 36.0047 112.804C36.0047 112.804 36.0046 112.804 36.0043 112.804C36.0041 112.804 36.0037 112.804 36.0031 112.804C36.0021 112.804 36.0005 112.804 35.9985 112.804C35.9944 112.804 35.9881 112.804 35.9799 112.804C35.9639 112.805 35.9383 112.805 35.9059 112.805L35.9332 106.805L35.9604 100.805C35.8601 100.804 35.7773 100.806 35.7425 100.807C35.7329 100.807 35.7243 100.807 35.7188 100.807C35.712 100.807 35.71 100.808 35.7073 100.808C35.7026 100.808 35.7095 100.808 35.7212 100.807L35.814 106.807ZM35.9332 106.805L35.906 112.805C35.8976 112.805 35.8906 112.803 35.8858 112.8L38.483 107.392L41.0801 101.983C39.4716 101.21 37.7218 100.813 35.9604 100.805L35.9332 106.805ZM38.483 107.392L35.8857 112.8C35.8766 112.796 35.8685 112.788 35.8636 112.777L41.358 110.366L46.8524 107.956C45.7039 105.338 43.6552 103.219 41.0802 101.983L38.483 107.392ZM41.358 110.366L35.8222 112.68L36.7588 114.921L42.2945 112.606L47.8303 110.292L46.8937 108.052L41.358 110.366ZM42.2945 112.606L44.4604 118.202C44.5961 118.149 44.7377 118.115 44.8819 118.099L44.2271 112.135L43.5724 106.171C42.3889 106.301 41.2316 106.584 40.1287 107.011L42.2945 112.606ZM44.2271 112.135L44.8817 118.099C45.1222 118.073 45.3655 118.099 45.5941 118.175L47.4908 112.482L49.3875 106.79C47.5163 106.167 45.5323 105.955 43.5726 106.171L44.2271 112.135ZM47.4908 112.482L46.4444 118.39L61.8282 121.115L62.8746 115.207L63.921 109.299L48.5372 106.574L47.4908 112.482ZM62.8746 115.207H68.8746V95.8682H62.8746H56.8746V115.207H62.8746ZM62.8746 95.8682L62.8537 89.8682C62.3428 89.87 61.8522 89.8587 61.3779 89.8319L61.0387 95.8223L60.6994 101.813C61.4496 101.855 62.1834 101.871 62.8954 101.868L62.8746 95.8682ZM61.0387 95.8223L61.3779 89.8319C57.852 89.6322 54.4108 88.6756 51.2881 87.0271L48.4869 92.333L45.6857 97.639C50.3327 100.092 55.4534 101.516 60.6994 101.813L61.0387 95.8223ZM48.4869 92.333L51.2882 87.0271C48.1651 85.3782 45.4336 83.0761 43.2802 80.2775L38.525 83.9365L33.7698 87.5955C36.9745 91.7603 41.0389 95.1857 45.6856 97.6389L48.4869 92.333ZM38.525 83.9365L44.4135 82.7853C44.4185 82.811 44.4228 82.8338 44.4263 82.853C44.4298 82.8721 44.4327 82.8885 44.4349 82.901C44.4371 82.9135 44.4388 82.9235 44.4398 82.9294C44.4407 82.9348 44.4414 82.9392 44.4412 82.938C44.4412 82.938 44.4412 82.9376 44.4411 82.9371C44.441 82.9366 44.4409 82.9359 44.4407 82.935C44.4404 82.9332 44.44 82.9304 44.4394 82.927C44.4383 82.9203 44.4364 82.9095 44.4341 82.8962C44.4318 82.8829 44.4288 82.8657 44.4251 82.8458C44.4215 82.8258 44.4171 82.8022 44.4119 82.7757L38.5221 83.9199L32.6322 85.0641C32.6273 85.039 32.6231 85.0168 32.6197 84.9982C32.6164 84.9796 32.6136 84.9639 32.6115 84.9519C32.6094 84.94 32.6078 84.9306 32.6069 84.9253C32.6062 84.9206 32.6055 84.9165 32.6058 84.9184C32.6058 84.9186 32.6068 84.9244 32.6079 84.9312C32.6092 84.9385 32.6111 84.9499 32.6135 84.9637C32.616 84.9777 32.6191 84.9954 32.6229 85.0159C32.6266 85.0365 32.6312 85.0607 32.6365 85.0878L38.525 83.9365ZM38.5221 83.9199L43.278 80.2619C41.1438 77.4872 39.6123 74.2722 38.8126 70.8199L32.9674 72.1738L27.1221 73.5277C28.3127 78.668 30.5927 83.4519 33.7661 87.5779L38.5221 83.9199ZM32.9674 72.1738V66.1738H32.1422V72.1738V78.1738H32.9674V72.1738ZM32.1422 72.1738V66.1738C30.614 66.1738 29.1482 65.5667 28.0674 64.4859L23.8248 68.7285L19.5821 72.9712C22.9131 76.3021 27.4311 78.1738 32.1422 78.1738V72.1738ZM23.8248 68.7285L28.0675 64.4859C26.9866 63.4051 26.3795 61.9392 26.3795 60.4111L20.3795 60.4111L14.3795 60.4111C14.3795 65.1222 16.2512 69.6402 19.5821 72.9711L23.8248 68.7285ZM20.3795 60.4111H26.3795V58.0449H20.3795H14.3795V60.4111H20.3795ZM20.3795 58.0449L26.3794 58.0266C26.3771 57.2676 26.5246 56.5159 26.8128 55.8156L21.2642 53.5322L15.7157 51.2489C14.826 53.4109 14.3724 55.727 14.3795 58.0632L20.3795 58.0449ZM21.2642 53.5322L26.8127 55.8157C27.1009 55.1155 27.5251 54.478 28.0612 53.9403L23.8121 49.7041L19.563 45.4679C17.9137 47.1223 16.6056 49.0865 15.7157 51.2488L21.2642 53.5322ZM23.8121 49.7041L28.0612 53.9403C28.5975 53.4024 29.2337 52.9762 29.9327 52.6861L27.6324 47.1445L25.3321 41.603C23.1723 42.4995 21.2122 43.8137 19.563 45.4679L23.8121 49.7041ZM27.6324 47.1445L29.9327 52.6861C30.6321 52.3958 31.383 52.2461 32.1421 52.2461L32.1422 46.2461L32.1422 40.2461C29.806 40.2461 27.4915 40.7066 25.3321 41.603L27.6324 47.1445ZM32.1422 46.2461L32.5733 52.2306C32.5609 52.2315 32.5488 52.2315 32.5361 52.2306L32.9674 46.2461L33.3986 40.2616C32.8369 40.2211 32.2726 40.2212 31.711 40.2616L32.1422 46.2461ZM32.9674 46.2461L38.8126 47.6C40.0666 42.1862 43.1173 37.3568 47.4674 33.8991L43.734 29.2021L40.0006 24.5052C33.5273 29.6504 28.988 36.8367 27.1221 44.8922L32.9674 46.2461ZM43.734 29.2021L47.4673 33.8992C51.8178 30.4413 57.2108 28.5587 62.7672 28.5586L62.7672 22.5586L62.7671 16.5586C54.498 16.5587 46.4733 19.3604 40.0006 24.5051L43.734 29.2021Z" fill="white" mask="url(#path-1-outside-1_1062_16306)"/>
<path d="M44.0112 116.713L41.3575 110.366C40.7857 109.063 39.766 108.007 38.4831 107.391C37.2002 106.775 35.739 106.639 34.3644 107.008C32.9898 107.376 31.7928 108.225 30.9902 109.4C30.1876 110.576 29.8326 112 29.9895 113.414C32.3205 131.345 28.0172 137.154 19.2312 147.195C18.3606 148.157 17.8488 149.39 17.7823 150.685C17.7158 151.981 18.0986 153.259 18.8661 154.305C19.6335 155.351 20.7385 156.099 21.9942 156.424C23.25 156.749 24.5794 156.631 25.7579 156.089C29.6501 154.856 33.2429 152.827 36.3077 150.13C39.3725 147.432 41.8421 144.126 43.5592 140.422C45.2762 136.718 46.2032 132.697 46.281 128.615C46.3589 124.534 45.5859 120.48 44.0112 116.713Z" fill="#EAC00F"/>
<path d="M30.5991 119.51C31.0817 118.492 31.8434 117.632 32.7956 117.03C33.7479 116.427 34.8515 116.107 35.9783 116.107C37.105 116.107 38.2087 116.427 39.1609 117.03C40.1131 117.632 40.8748 118.492 41.3574 119.51L44.0112 125.858C44.855 127.874 45.4685 129.98 45.8401 132.134C46.6043 126.898 45.9223 121.553 43.8677 116.677L41.3574 110.366C40.7857 109.063 39.7659 108.007 38.483 107.391C37.2001 106.775 35.7389 106.639 34.3643 107.008C32.9897 107.376 31.7927 108.225 30.9901 109.4C30.1875 110.576 29.8325 112 29.9894 113.414C30.2763 115.637 30.5991 117.646 30.5991 119.51Z" fill="#FCD533"/>
<path d="M20.3435 155.408C27.946 146.478 31.9266 140.561 30.5998 125.535C29.8108 134.716 25.7944 139.88 19.4828 147.052C18.973 147.64 18.5914 148.328 18.3626 149.072C18.1337 149.816 18.0626 150.599 18.1537 151.372C18.2448 152.145 18.4962 152.89 18.8918 153.561C19.2874 154.231 19.8184 154.811 20.451 155.264L20.3435 155.408Z" fill="#FCD533"/>
<path d="M34.4728 106.888L31.855 100.684" stroke="#45413C" stroke-width="2.68959" stroke-linecap="round" stroke-linejoin="round"/>
<path d="M38.0235 98.1018L25.7231 103.266" stroke="#45413C" stroke-width="2.68959" stroke-linecap="round" stroke-linejoin="round"/>
<path d="M122.727 82.8247C122.277 83.6041 121.986 84.4644 121.868 85.3566C121.751 86.2488 121.811 87.1553 122.044 88.0245C122.277 88.8936 122.679 89.7083 123.227 90.4221C123.775 91.1359 124.458 91.7347 125.237 92.1845C126.812 93.0928 128.682 93.3386 130.437 92.8678C131.306 92.6347 132.121 92.2327 132.835 91.6847C133.549 91.1368 134.147 90.4536 134.597 89.6742C136.233 86.7997 138.872 84.6291 142.007 83.5772C145.143 82.5253 148.557 82.666 151.595 83.9722C157.705 86.5896 162.675 91.3101 165.603 97.2776C168.531 103.245 169.223 110.064 167.554 116.498C164.544 128.096 157.771 138.367 148.295 145.701C138.82 153.035 127.178 157.017 115.196 157.022H86.5074L83.9971 171.151H115.483C130.718 171.15 145.515 166.056 157.523 156.68C169.531 147.304 178.06 134.183 181.755 119.403C184.087 110.064 183.124 100.207 179.027 91.4967C174.93 82.7866 167.951 75.7583 159.27 71.6001C152.881 68.5456 145.578 68.0042 138.809 70.0834C132.04 72.1626 126.299 76.7105 122.727 82.8247Z" fill="#4B9AE8"/>
<path d="M124.413 123.097C121.664 108.784 114.02 95.8733 102.791 86.5815C91.5623 77.2896 77.4496 72.1958 62.8749 72.1741V115.208L47.4904 112.482C46.4405 112.132 45.3273 112.014 44.2272 112.134C43.1271 112.255 42.0662 112.612 41.1171 113.182C40.168 113.751 39.3533 114.519 38.7288 115.432C38.1043 116.346 37.6848 117.384 37.499 118.475C37.3133 119.566 37.3657 120.684 37.6526 121.753C37.9396 122.822 38.4543 123.816 39.1615 124.667C39.8688 125.518 40.7517 126.206 41.7498 126.684C42.748 127.162 43.8377 127.419 44.9443 127.436L62.8749 130.198V138.876C61.0116 140.754 59.5587 142.999 58.6081 145.469C57.6575 147.938 57.2298 150.577 57.3522 153.22L57.5674 156.807H54.7344C53.2809 156.775 51.8389 157.069 50.5137 157.667C49.1885 158.265 48.0138 159.152 47.0753 160.262C46.1369 161.372 45.4585 162.678 45.0898 164.085C44.721 165.491 44.6713 166.962 44.9443 168.39C45.1336 169.192 45.5935 169.905 46.2467 170.408C46.8998 170.91 47.7063 171.173 48.5304 171.151H99.2381C102.806 171.156 106.34 170.457 109.638 169.095C112.936 167.733 115.932 165.734 118.457 163.213C120.982 160.691 122.985 157.697 124.351 154.401C125.718 151.105 126.421 147.572 126.421 144.004C126.417 136.987 125.745 129.986 124.413 123.097Z" fill="#4B9AE8"/>
<path d="M93.4287 46.2462H92.5681C91.0081 39.5115 87.213 33.5037 81.8013 29.2022C76.3896 24.9007 69.6804 22.5591 62.7674 22.5591C55.8544 22.5591 49.1452 24.9007 43.7335 29.2022C38.3218 33.5037 34.5266 39.5115 32.9667 46.2462C32.6922 46.2264 32.4165 46.2264 32.1419 46.2462C30.5942 46.2462 29.0618 46.5516 27.6323 47.145C26.2029 47.7383 24.9046 48.6079 23.8119 49.704C22.7192 50.8 21.8535 52.101 21.2645 53.5322C20.6755 54.9634 20.3747 56.4968 20.3794 58.0445V60.4114C20.3794 63.531 21.6187 66.5228 23.8246 68.7287C26.0305 70.9346 29.0223 72.1738 32.1419 72.1738H32.9667C34.5266 78.9085 38.3218 84.9163 43.7335 89.2178C49.1452 93.5193 55.8544 95.8609 62.7674 95.8609C69.6804 95.8609 76.3896 93.5193 81.8013 89.2178C87.213 84.9163 91.0081 78.9085 92.5681 72.1738H93.4287C96.5483 72.1738 99.5402 70.9346 101.746 68.7287C103.952 66.5228 105.191 63.531 105.191 60.4114V58.0445C105.196 56.4968 104.895 54.9634 104.306 53.5322C103.717 52.101 102.851 50.8 101.759 49.704C100.666 48.6079 99.3678 47.7383 97.9383 47.145C96.5089 46.5516 94.9764 46.2462 93.4287 46.2462Z" fill="#4B9AE8"/>
<path d="M93.4287 46.2463C93.1541 46.2266 92.8785 46.2266 92.6039 46.2463C91.0286 39.5201 87.2254 33.524 81.8122 29.2321C76.3989 24.9402 69.6936 22.6045 62.7853 22.6045C55.8771 22.6045 49.1717 24.9402 43.7585 29.2321C38.3452 33.524 34.542 39.5201 32.9667 46.2463C32.6922 46.2266 32.4165 46.2266 32.1419 46.2463C30.5942 46.2463 29.0618 46.5518 27.6323 47.1451C26.2029 47.7385 24.9046 48.6081 23.8119 49.7042C22.7192 50.8002 21.8535 52.1011 21.2645 53.5324C20.6755 54.9636 20.3747 56.497 20.3794 58.0447V60.4115C20.4017 61.6307 20.6072 62.8396 20.9891 63.9976C21.7465 61.6316 23.2335 59.5662 25.237 58.0974C27.2406 56.6285 29.6577 55.8318 32.1419 55.8213C32.4165 55.8015 32.6922 55.8015 32.9667 55.8213C34.542 49.095 38.3452 43.099 43.7585 38.807C49.1717 34.5151 55.8771 32.1794 62.7853 32.1794C69.6936 32.1794 76.3989 34.5151 81.8122 38.807C87.2254 43.099 91.0286 49.095 92.6039 55.8213C92.8785 55.8015 93.1541 55.8015 93.4287 55.8213C95.913 55.8318 98.3301 56.6285 100.334 58.0974C102.337 59.5662 103.824 61.6316 104.582 63.9976C104.963 62.8396 105.169 61.6307 105.191 60.4115V58.0447C105.196 56.497 104.895 54.9636 104.306 53.5324C103.717 52.1011 102.851 50.8002 101.759 49.7042C100.666 48.6081 99.3678 47.7385 97.9383 47.1451C96.5089 46.5518 94.9764 46.2463 93.4287 46.2463Z" fill="#7AB9F8"/>
<path d="M79.2274 67.4045C81.1678 69.2575 82.7142 71.4831 83.7741 73.9479C84.8339 76.4127 85.3854 79.066 85.3956 81.749C85.3822 83.3715 85.1653 84.9859 84.75 86.5544C81.695 89.7113 77.9959 92.1732 73.9043 93.7725C69.8126 95.3718 65.4245 96.071 61.0385 95.8226C56.6524 95.5742 52.3713 94.384 48.4864 92.333C44.6015 90.2819 41.204 87.4182 38.525 83.9365C38.3862 83.2268 38.3023 82.5075 38.2739 81.7849C38.2907 79.0996 38.8488 76.4453 39.9148 73.9807C40.9807 71.516 42.5327 69.2916 44.4779 67.4404C41.9859 65.7355 40.1039 63.2789 39.1064 60.429C38.1089 57.5791 38.0482 54.485 38.9331 51.5982C39.8179 48.7113 41.6021 46.1828 44.0253 44.3814C46.4485 42.58 49.3839 41.6 52.4032 41.5845C55.8832 41.568 59.2448 42.8462 61.8347 45.1706C63.2689 43.8514 64.9604 42.8432 66.8029 42.2092C68.6455 41.5752 70.5993 41.3292 72.5415 41.4866C74.4837 41.644 76.3723 42.2015 78.0887 43.1239C79.8051 44.0463 81.3122 45.3138 82.5152 46.8467C83.7181 48.3796 84.5911 50.1447 85.0791 52.0312C85.5671 53.9177 85.6596 55.8847 85.3508 57.8087C85.0421 59.7326 84.3387 61.5719 83.2849 63.2109C82.2311 64.85 80.8497 66.2533 79.2274 67.3328V67.4045Z" fill="#D7E8FC"/>
<path d="M67.5908 65.3997C67.3562 67.4611 64.2104 70.3996 61.7854 70.1791C59.3605 69.9587 56.9448 66.5121 57.1816 64.4508C57.4163 62.3894 59.1949 60.8624 62.8135 61.1915C66.474 61.5257 67.8276 63.3384 67.5908 65.3997Z" fill="#EAC00F"/>
<path d="M73.9888 62.6943C77.8486 62.6943 80.9775 59.5654 80.9775 55.7056C80.9775 51.8458 77.8486 48.7168 73.9888 48.7168C70.129 48.7168 67 51.8458 67 55.7056C67 59.5654 70.129 62.6943 73.9888 62.6943Z" fill="white"/>
<path d="M73.8803 59.9459C76.1944 59.9459 78.0702 58.07 78.0702 55.7559C78.0702 53.4419 76.1944 51.566 73.8803 51.566C71.5663 51.566 69.6904 53.4419 69.6904 55.7559C69.6904 58.07 71.5663 59.9459 73.8803 59.9459Z" fill="black"/>
<path d="M50.0112 62.6963C53.871 62.6963 57 59.5673 57 55.7075C57 51.8477 53.871 48.7188 50.0112 48.7188C46.1514 48.7188 43.0225 51.8477 43.0225 55.7075C43.0225 59.5673 46.1514 62.6963 50.0112 62.6963Z" fill="white"/>
<path d="M49.9028 59.9478C52.2168 59.9478 54.0927 58.0719 54.0927 55.7579C54.0927 53.4439 52.2168 51.568 49.9028 51.568C47.5888 51.568 45.7129 53.4439 45.7129 55.7579C45.7129 58.0719 47.5888 59.9478 49.9028 59.9478Z" fill="black"/>
<path d="M53.3716 79.2385C54.5501 80.6328 56.0008 81.7718 57.6349 82.5857C59.2689 83.3997 61.052 83.8715 62.8748 83.9722C64.6839 83.8558 66.4512 83.3768 68.0715 82.5636C69.6917 81.7504 71.1319 80.6196 72.3063 79.2385" stroke="#234061" stroke-width="2.68959" stroke-linecap="round" stroke-linejoin="round"/>
<path d="M65 115.028L77.6231 117.252" stroke="#154472" stroke-width="2.68959" stroke-linecap="round" stroke-linejoin="round"/>
<path d="M91.6449 103.015L97.2751 118.794C97.9097 120.58 98.0706 122.501 97.7421 124.368C97.4135 126.235 96.6068 127.986 95.4005 129.448C94.1942 130.911 92.6295 132.036 90.8589 132.714C89.0883 133.393 87.1722 133.6 85.2974 133.317L65 130.197" stroke="#154472" stroke-width="2.68959" stroke-linecap="round" stroke-linejoin="round"/>
<path d="M96.9882 154.153C97.1577 151.416 96.7483 148.674 95.7867 146.106C94.8251 143.538 93.333 141.201 91.4076 139.249C89.4821 137.296 87.1668 135.772 84.6124 134.774C82.0581 133.777 79.3222 133.329 76.5832 133.461C72.1764 133.737 68.0377 135.671 65 138.876" stroke="#154472" stroke-width="2.68959" stroke-linecap="round" stroke-linejoin="round"/>
</svg>
