<svg width="200" height="200" viewBox="0 0 200 200" fill="none" xmlns="http://www.w3.org/2000/svg">
<mask id="path-1-outside-1_1347_7242" maskUnits="userSpaceOnUse" x="6.53516" y="32.5303" width="193" height="143" fill="black">
<rect fill="white" x="6.53516" y="32.5303" width="193" height="143"/>
<path d="M56.4629 45.4277C66.0919 39.9345 77.8252 37.9767 89.499 40.8447C90.855 41.178 91.6846 42.5492 91.3516 43.9053C91.2661 44.253 91.1114 44.5652 90.9072 44.833L97.8682 46.543C100.475 47.1834 101.956 51.9396 101.988 59.7646C102.02 67.5898 100.6 77.8436 98.0381 88.2695C96.7996 93.3104 95.3406 98.1909 93.7539 102.671C96.6763 104.431 99.3374 106.405 101.206 108.289C107.965 115.104 111.907 113.969 131.056 113.401C150.205 112.833 150.205 121.92 156.964 125.328C163.722 128.736 182.308 127.6 190.193 138.392C198.078 149.183 186.251 155.43 179.492 157.702C172.734 159.974 166.718 162.366 159.217 163.949C149.5 166 149.086 159.956 130.5 164.5C111.914 169.044 107.5 171.5 96.1367 165.085C84.7737 158.671 65.1598 169.629 62.3438 155.43C59.6079 141.633 76.9127 130.912 77.8955 125.004L71.5918 123.456C71.6484 123.788 71.6412 124.136 71.5557 124.484C71.2218 125.843 69.8512 126.671 68.4951 126.338C56.8197 123.47 47.329 116.296 41.3418 106.964L15.2598 94.542C15.2373 94.5132 9.6819 87.3619 14.501 67.7461C19.3299 48.0904 27.5908 44.3516 27.5908 44.3516L56.4629 45.4277ZM52.3379 112.201C56.266 115.769 60.9618 118.6 66.248 120.408C65.9809 119.858 65.7434 119.217 65.5381 118.488L52.3379 112.201ZM84.7607 45.0576C79.2411 44.2104 73.77 44.5429 68.6377 45.8828L83.2441 46.4277C83.763 45.8783 84.2696 45.4208 84.7607 45.0576Z"/>
</mask>
<path d="M56.4629 45.4277C66.0919 39.9345 77.8252 37.9767 89.499 40.8447C90.855 41.178 91.6846 42.5492 91.3516 43.9053C91.2661 44.253 91.1114 44.5652 90.9072 44.833L97.8682 46.543C100.475 47.1834 101.956 51.9396 101.988 59.7646C102.02 67.5898 100.6 77.8436 98.0381 88.2695C96.7996 93.3104 95.3406 98.1909 93.7539 102.671C96.6763 104.431 99.3374 106.405 101.206 108.289C107.965 115.104 111.907 113.969 131.056 113.401C150.205 112.833 150.205 121.92 156.964 125.328C163.722 128.736 182.308 127.6 190.193 138.392C198.078 149.183 186.251 155.43 179.492 157.702C172.734 159.974 166.718 162.366 159.217 163.949C149.5 166 149.086 159.956 130.5 164.5C111.914 169.044 107.5 171.5 96.1367 165.085C84.7737 158.671 65.1598 169.629 62.3438 155.43C59.6079 141.633 76.9127 130.912 77.8955 125.004L71.5918 123.456C71.6484 123.788 71.6412 124.136 71.5557 124.484C71.2218 125.843 69.8512 126.671 68.4951 126.338C56.8197 123.47 47.329 116.296 41.3418 106.964L15.2598 94.542C15.2373 94.5132 9.6819 87.3619 14.501 67.7461C19.3299 48.0904 27.5908 44.3516 27.5908 44.3516L56.4629 45.4277ZM52.3379 112.201C56.266 115.769 60.9618 118.6 66.248 120.408C65.9809 119.858 65.7434 119.217 65.5381 118.488L52.3379 112.201ZM84.7607 45.0576C79.2411 44.2104 73.77 44.5429 68.6377 45.8828L83.2441 46.4277C83.763 45.8783 84.2696 45.4208 84.7607 45.0576Z" fill="black"/>
<path d="M56.4629 45.4277L56.2394 51.4236C57.3572 51.4652 58.4644 51.1936 59.436 50.6393L56.4629 45.4277ZM89.499 40.8447L90.9312 35.0182L90.9305 35.018L89.499 40.8447ZM91.3516 43.9053L97.1783 45.3368L97.1784 45.3365L91.3516 43.9053ZM90.9072 44.833L86.1352 41.1959C84.9091 42.8046 84.5761 44.9228 85.2494 46.8302C85.9226 48.7375 87.5116 50.1772 89.4759 50.6598L90.9072 44.833ZM97.8682 46.543L99.2999 40.7163L99.2995 40.7162L97.8682 46.543ZM101.988 59.7646L107.988 59.7402V59.7402L101.988 59.7646ZM98.0381 88.2695L103.865 89.701L103.865 89.701L98.0381 88.2695ZM93.7539 102.671L88.0981 100.668C87.1466 103.354 88.2165 106.34 90.6578 107.81L93.7539 102.671ZM101.206 108.289L105.466 104.064L105.466 104.064L101.206 108.289ZM131.056 113.401L130.878 107.404H130.878L131.056 113.401ZM156.964 125.328L154.262 130.686L154.263 130.686L156.964 125.328ZM190.193 138.392L195.038 134.852L195.038 134.852L190.193 138.392ZM179.492 157.702L177.58 152.015L177.58 152.015L179.492 157.702ZM159.217 163.949L160.456 169.82L159.217 163.949ZM130.5 164.5L129.075 158.672L129.075 158.672L130.5 164.5ZM96.1367 165.085L99.0863 159.86L99.0862 159.86L96.1367 165.085ZM62.3438 155.43L56.4584 156.597L56.4584 156.597L62.3438 155.43ZM77.8955 125.004L83.8142 125.988C84.3289 122.894 82.3729 119.925 79.3263 119.177L77.8955 125.004ZM71.5918 123.456L73.0226 117.629C71.0589 117.147 68.9845 117.686 67.5043 119.064C66.0241 120.441 65.3373 122.471 65.6772 124.465L71.5918 123.456ZM71.5557 124.484L77.3823 125.916L77.3824 125.916L71.5557 124.484ZM68.4951 126.338L67.0636 132.165L67.0639 132.165L68.4951 126.338ZM41.3418 106.964L46.3918 103.724C45.7875 102.782 44.932 102.028 43.9217 101.547L41.3418 106.964ZM15.2598 94.542L10.5278 98.231C11.1012 98.9664 11.838 99.5581 12.6798 99.959L15.2598 94.542ZM14.501 67.7461L8.67424 66.3146L8.67424 66.3146L14.501 67.7461ZM27.5908 44.3516L27.8143 38.3557C26.8863 38.3211 25.9629 38.5024 25.1169 38.8854L27.5908 44.3516ZM52.3379 112.201L54.9179 106.784C52.2315 105.505 49.0131 106.387 47.3554 108.858C45.6976 111.329 46.1012 114.642 48.3039 116.643L52.3379 112.201ZM66.248 120.408L64.3065 126.085C66.5988 126.869 69.1376 126.198 70.7425 124.383C72.3474 122.568 72.7036 119.967 71.6454 117.787L66.248 120.408ZM65.5381 118.488L71.3131 116.861C70.844 115.196 69.6795 113.815 68.1181 113.071L65.5381 118.488ZM84.7607 45.0576L88.3282 49.8819C90.2762 48.4413 91.1667 45.9706 90.5856 43.6185C90.0045 41.2664 88.0658 39.4946 85.671 39.1271L84.7607 45.0576ZM68.6377 45.8828L67.122 40.0774C64.2427 40.8291 62.3495 43.5777 62.6733 46.5358C62.9972 49.4939 65.4403 51.7677 68.414 51.8786L68.6377 45.8828ZM83.2441 46.4277L83.0205 52.4236C84.748 52.488 86.4193 51.8042 87.6063 50.5474L83.2441 46.4277ZM56.4629 45.4277L59.436 50.6393C67.7774 45.8806 77.9389 44.1831 88.0675 46.6715L89.499 40.8447L90.9305 35.018C77.7116 31.7704 64.4064 33.9883 53.4897 40.2162L56.4629 45.4277ZM89.499 40.8447L88.0668 46.6713C86.203 46.2132 85.0681 44.3334 85.5247 42.4741L91.3516 43.9053L97.1784 45.3365C98.3012 40.765 95.507 36.1429 90.9312 35.0182L89.499 40.8447ZM91.3516 43.9053L85.5248 42.4738C85.6437 41.99 85.8603 41.5567 86.1352 41.1959L90.9072 44.833L95.6792 48.4701C96.3624 47.5737 96.8886 46.5159 97.1783 45.3368L91.3516 43.9053ZM90.9072 44.833L89.4759 50.6598L96.4368 52.3697L97.8682 46.543L99.2995 40.7162L92.3386 39.0062L90.9072 44.833ZM97.8682 46.543L96.4364 52.3696C95.4489 52.127 94.9509 51.5665 94.85 51.4352C94.7822 51.347 94.9432 51.5318 95.1653 52.2446C95.613 53.6812 95.9735 56.1545 95.9883 59.7891L101.988 59.7646L107.988 59.7402C107.971 55.5497 107.575 51.7325 106.622 48.6746C105.796 46.0233 103.868 41.8387 99.2999 40.7163L97.8682 46.543ZM101.988 59.7646L95.9883 59.7891C96.0176 66.9804 94.6957 76.7258 92.2113 86.838L98.0381 88.2695L103.865 89.701C106.503 78.9613 108.023 68.1991 107.988 59.7402L101.988 59.7646ZM98.0381 88.2695L92.2114 86.838C91.0182 91.6947 89.6153 96.384 88.0981 100.668L93.7539 102.671L99.4097 104.674C101.066 99.9978 102.581 94.9261 103.865 89.701L98.0381 88.2695ZM93.7539 102.671L90.6578 107.81C93.3209 109.415 95.5395 111.096 96.9457 112.514L101.206 108.289L105.466 104.064C103.135 101.713 100.032 99.448 96.85 97.5314L93.7539 102.671ZM101.206 108.289L96.9457 112.514C98.8884 114.473 100.897 116.136 103.257 117.365C105.662 118.617 108.123 119.26 110.783 119.573C115.59 120.139 122.177 119.667 131.234 119.399L131.056 113.401L130.878 107.404C120.786 107.703 115.827 108.084 112.186 107.655C110.622 107.471 109.634 107.156 108.8 106.721C107.922 106.264 106.903 105.513 105.466 104.064L101.206 108.289ZM131.056 113.401L131.234 119.399C139.723 119.147 143 121.012 144.877 122.534C146.092 123.519 146.908 124.493 148.397 126.068C149.752 127.502 151.605 129.346 154.262 130.686L156.964 125.328L159.665 119.971C158.943 119.607 158.262 119.036 157.118 117.826C156.108 116.757 154.46 114.855 152.436 113.214C147.835 109.483 141.538 107.088 130.878 107.404L131.056 113.401ZM156.964 125.328L154.263 130.686C156.806 131.968 160.036 132.657 162.766 133.182C165.829 133.77 168.705 134.223 171.81 134.938C178.073 136.38 182.774 138.407 185.349 141.931L190.193 138.392L195.038 134.852C189.728 127.585 181.193 124.784 174.502 123.244C171.13 122.468 167.6 121.891 165.031 121.397C162.129 120.839 160.501 120.392 159.665 119.971L156.964 125.328ZM190.193 138.392L185.349 141.931C186.734 143.827 186.827 144.917 186.805 145.346C186.784 145.784 186.599 146.405 185.833 147.274C184.086 149.256 180.681 150.973 177.58 152.015L179.492 157.702L181.404 163.389C185.062 162.16 190.95 159.617 194.835 155.209C196.885 152.883 198.601 149.777 198.791 145.938C198.981 142.09 197.595 138.352 195.038 134.852L190.193 138.392ZM179.492 157.702L177.58 152.015C170.481 154.401 165.026 156.591 157.978 158.079L159.217 163.949L160.456 169.82C168.409 168.142 174.987 165.546 181.404 163.389L179.492 157.702ZM159.217 163.949L157.978 158.079C154.598 158.792 153.569 158.199 149.296 157.394C144.731 156.533 139.113 156.218 129.075 158.672L130.5 164.5L131.925 170.328C140.472 168.239 144.354 168.673 147.073 169.186C150.082 169.753 154.119 171.157 160.456 169.82L159.217 163.949ZM130.5 164.5L129.075 158.672C119.219 161.081 114.343 162.591 110.141 162.92C106.776 163.184 104.018 162.644 99.0863 159.86L96.1367 165.085L93.1872 170.31C99.6181 173.94 104.749 175.38 111.079 174.883C116.57 174.453 123.195 172.463 131.925 170.328L130.5 164.5ZM96.1367 165.085L99.0862 159.86C94.995 157.551 90.4884 156.977 86.6252 156.869C83.0024 156.769 78.6195 157.112 75.8889 157.178C72.5919 157.259 70.7243 157.02 69.646 156.541C69.1553 156.324 68.5832 156.048 68.2291 154.262L62.3438 155.43L56.4584 156.597C57.5123 161.911 60.448 165.59 64.782 167.511C68.5285 169.173 72.8025 169.257 76.1814 169.175C80.1267 169.079 82.9538 168.772 86.2924 168.865C89.3907 168.951 91.5969 169.412 93.1873 170.31L96.1367 165.085ZM62.3438 155.43L68.2291 154.263C67.4224 150.194 69.4379 145.982 73.4137 141.003C75.5087 138.379 77.1656 136.671 79.2665 134.162C80.1798 133.071 81.1249 131.876 81.8991 130.656C82.6357 129.495 83.4988 127.884 83.8142 125.988L77.8955 125.004L71.9768 124.019C72.0465 123.601 72.1539 123.617 71.7667 124.227C71.4171 124.778 70.8704 125.498 70.0659 126.458C68.7312 128.052 66.0487 130.995 64.0365 133.515C59.7982 138.822 54.5293 146.869 56.4584 156.597L62.3438 155.43ZM77.8955 125.004L79.3263 119.177L73.0226 117.629L71.5918 123.456L70.161 129.283L76.4647 130.831L77.8955 125.004ZM71.5918 123.456L65.6772 124.465C65.6018 124.023 65.6095 123.539 65.7289 123.053L71.5557 124.484L77.3824 125.916C77.6729 124.734 77.695 123.553 77.5064 122.447L71.5918 123.456ZM71.5557 124.484L65.7291 123.052C66.1867 121.191 68.0675 120.054 69.9263 120.511L68.4951 126.338L67.0639 132.165C71.635 133.287 76.2569 130.495 77.3823 125.916L71.5557 124.484ZM68.4951 126.338L69.9266 120.511C59.7968 118.022 51.5784 111.808 46.3918 103.724L41.3418 106.964L36.2918 110.204C43.0795 120.783 53.8426 128.917 67.0636 132.165L68.4951 126.338ZM41.3418 106.964L43.9217 101.547L17.8397 89.125L15.2598 94.542L12.6798 99.959L38.7619 112.381L41.3418 106.964ZM15.2598 94.542L19.9917 90.853C21.2411 92.4556 15.8887 87.2462 20.3277 69.1776L14.501 67.7461L8.67424 66.3146C3.47505 87.4776 9.23352 96.5708 10.5278 98.231L15.2598 94.542ZM14.501 67.7461L20.3277 69.1776C22.5731 60.0381 25.5151 55.0022 27.572 52.3883C28.6036 51.0773 29.437 50.3437 29.8964 49.9882C30.1278 49.8091 30.2707 49.7211 30.3043 49.701C30.3213 49.6909 30.3115 49.6974 30.2723 49.7179C30.2527 49.7281 30.2258 49.7417 30.1913 49.7585C30.1741 49.7669 30.1549 49.7761 30.1339 49.786C30.1233 49.7909 30.1123 49.796 30.1008 49.8013C30.095 49.804 30.0892 49.8067 30.0832 49.8094C30.0802 49.8108 30.0756 49.8129 30.0741 49.8136C30.0694 49.8157 30.0648 49.8178 27.5908 44.3516C25.1169 38.8854 25.1121 38.8875 25.1074 38.8896C25.1058 38.8904 25.101 38.8926 25.0977 38.894C25.0912 38.897 25.0846 38.9001 25.0778 38.9032C25.0643 38.9094 25.0503 38.9159 25.0358 38.9227C25.0067 38.9364 24.9756 38.9512 24.9426 38.9673C24.8766 38.9994 24.8027 39.0364 24.7215 39.0788C24.5589 39.1637 24.3669 39.2697 24.1486 39.4002C23.7115 39.6614 23.1713 40.019 22.5528 40.4976C21.3124 41.4573 19.7788 42.8869 18.1415 44.9676C14.8607 49.137 11.2578 55.7984 8.67424 66.3146L14.501 67.7461ZM27.5908 44.3516L27.3673 50.3474L56.2394 51.4236L56.4629 45.4277L56.6864 39.4319L27.8143 38.3557L27.5908 44.3516ZM52.3379 112.201L48.3039 116.643C52.8256 120.75 58.2302 124.007 64.3065 126.085L66.248 120.408L68.1896 114.731C63.6934 113.193 59.7064 110.788 56.3719 107.76L52.3379 112.201ZM66.248 120.408L71.6454 117.787C71.5634 117.618 71.4429 117.321 71.3131 116.861L65.5381 118.488L59.763 120.116C60.0439 121.112 60.3983 122.097 60.8507 123.029L66.248 120.408ZM65.5381 118.488L68.1181 113.071L54.9179 106.784L52.3379 112.201L49.7579 117.618L62.958 123.905L65.5381 118.488ZM84.7607 45.0576L85.671 39.1271C79.3264 38.1532 73.0299 38.535 67.122 40.0774L68.6377 45.8828L70.1534 51.6882C74.51 50.5508 79.1557 50.2676 83.8505 50.9882L84.7607 45.0576ZM68.6377 45.8828L68.414 51.8786L83.0205 52.4236L83.2441 46.4277L83.4678 40.4319L68.8614 39.887L68.6377 45.8828ZM83.2441 46.4277L87.6063 50.5474C87.9356 50.1987 88.1792 49.9921 88.3282 49.8819L84.7607 45.0576L81.1933 40.2334C80.3601 40.8495 79.5905 41.5579 78.882 42.3081L83.2441 46.4277Z" fill="white" mask="url(#path-1-outside-1_1347_7242)"/>
<path d="M87.4365 46.585L27.5903 44.3509C27.5903 44.3509 19.3301 48.0896 14.5012 67.7453C9.67221 87.401 15.2595 94.5417 15.2595 94.5417L69.3279 120.294L87.4365 46.585Z" fill="#D7E8FC"/>
<path d="M97.8682 46.543L78.5523 125.166L68.7245 122.751L88.0403 44.1285L97.8682 46.543Z" fill="#3B88C3"/>
<path d="M87.9374 44.104C85.3583 43.4704 81.8673 47.0044 78.2323 53.9287C74.5974 60.853 71.1163 70.6003 68.5549 81.0263C65.9934 91.4524 64.5615 101.703 64.574 109.523C64.5865 117.344 66.0425 122.093 68.6216 122.727C71.2008 123.361 74.6918 119.826 78.3267 112.902C81.9617 105.978 85.4428 96.2306 88.0042 85.8046C90.5656 75.3786 91.9976 65.1278 91.9851 57.3075C91.9726 49.4871 90.5166 44.7377 87.9374 44.104Z" fill="#3B88C3"/>
<path d="M97.8679 46.5426C95.2614 45.9022 91.7442 49.4298 88.0899 56.3493C84.4356 63.2688 80.9436 73.0135 78.3822 83.4395C75.8207 93.8655 74.3996 104.119 74.4315 111.944C74.4634 119.769 75.9456 124.525 78.5521 125.165C81.1586 125.806 84.6759 122.278 88.3302 115.359C91.9845 108.439 95.4764 98.6945 98.0379 88.2685C100.599 77.8424 102.02 67.589 101.989 59.7639C101.957 51.9388 100.474 47.1829 97.8679 46.5426Z" fill="#55ACEE"/>
<path d="M98.1863 49.2255C95.987 48.6852 92.9239 52.0499 89.6708 58.5794C86.4177 65.1089 83.2411 74.2683 80.8397 84.0427C78.4384 93.8171 77.009 103.406 76.8661 110.699C76.7232 117.993 77.8784 122.394 80.0777 122.934C82.2769 123.475 85.34 120.11 88.5931 113.581C91.8462 107.051 95.0229 97.8916 97.4242 88.1172C99.8256 78.3427 101.255 68.754 101.398 61.4604C101.541 54.1668 100.386 49.7658 98.1863 49.2255Z" fill="#004A77"/>
<path d="M35.5995 72.9292C41.3906 49.357 65.5702 34.966 89.4986 40.8446C90.8548 41.1778 91.6851 42.549 91.3519 43.9052C91.0187 45.2615 89.6476 46.0917 88.2914 45.7586C67.0706 40.5451 45.6381 53.2768 40.5134 74.1364C35.3881 94.9985 48.4815 116.21 69.7023 121.423C71.0585 121.756 71.8894 123.125 71.5556 124.484C71.2218 125.843 69.8513 126.67 68.495 126.337C44.5667 120.459 29.8083 96.5013 35.5995 72.9292Z" fill="#99AAB5"/>
<path d="M37.4853 92.6879C33.1782 91.6297 31.6885 82.6247 34.1573 72.5757C36.6261 62.5267 42.119 55.2372 46.4261 56.2953C50.7331 57.3535 45.1488 61.4943 41.9557 74.4916C38.7625 87.489 41.7923 93.746 37.4853 92.6879Z" fill="#474747"/>
<path d="M77.9414 97.0165C83.7613 96.6379 95.7991 102.837 101.206 108.29C107.965 115.105 111.907 113.969 131.056 113.401C150.206 112.833 150.206 121.921 156.964 125.328C163.723 128.736 182.309 127.6 190.194 138.391C198.079 149.183 186.251 155.43 179.493 157.702C172.734 159.974 166.718 162.367 159.217 163.95C149.5 166 149.086 159.956 130.5 164.5C111.914 169.044 107.5 171.5 96.1371 165.085C84.7741 158.671 65.1603 169.629 62.3442 155.43C59.5282 141.231 77.941 130.29 77.9412 124.5C77.9415 118 74.9999 118.5 77.9414 97.0165Z" fill="#4B9AE8"/>
<path d="M122.625 138.031C124.199 141.219 122.734 148.13 119.333 149.851C115.932 151.572 109.594 148.605 108.023 145.415C106.449 142.226 107.401 138.514 112.476 135.946C117.612 133.35 121.054 134.841 122.625 138.031Z" fill="#EAC00F"/>
<path d="M82.92 153.84C87.2941 153.84 90.84 150.294 90.84 145.92C90.84 141.546 87.2941 138 82.92 138C78.5459 138 75 141.546 75 145.92C75 150.294 78.5459 153.84 82.92 153.84Z" fill="white"/>
<path d="M82.797 150.725C85.4194 150.725 87.5452 148.599 87.5452 145.977C87.5452 143.354 85.4194 141.229 82.797 141.229C80.1747 141.229 78.0488 143.354 78.0488 145.977C78.0488 148.599 80.1747 150.725 82.797 150.725Z" fill="black"/>
<path d="M136.92 133.84C141.294 133.84 144.84 130.294 144.84 125.92C144.84 121.546 141.294 118 136.92 118C132.546 118 129 121.546 129 125.92C129 130.294 132.546 133.84 136.92 133.84Z" fill="white"/>
<path d="M136.797 130.725C139.419 130.725 141.545 128.599 141.545 125.977C141.545 123.354 139.419 121.229 136.797 121.229C134.175 121.229 132.049 123.354 132.049 125.977C132.049 128.599 134.175 130.725 136.797 130.725Z" fill="black"/>
</svg>
