<svg width="200" height="200" viewBox="0 0 200 200" fill="none" xmlns="http://www.w3.org/2000/svg">
<mask id="path-1-outside-1_1062_25656" maskUnits="userSpaceOnUse" x="13.4434" y="21" width="174" height="157" fill="black">
<rect fill="white" x="13.4434" y="21" width="174" height="157"/>
<path d="M126.4 27C128.522 27.0001 130.557 27.8433 132.058 29.3438C133.558 30.8443 134.401 32.8798 134.401 35.002C134.401 37.1239 133.558 39.1587 132.058 40.6592C131.302 41.4151 130.41 42.0029 129.439 42.4014L147.855 87.3291C156.707 75.0233 165.173 65.5029 170.229 60.1396C170.073 60.0114 169.922 59.8762 169.778 59.7324C168.595 58.549 167.93 56.9432 167.93 55.2695C167.93 53.5959 168.595 51.991 169.778 50.8076C170.962 49.6242 172.567 48.959 174.24 48.959C175.914 48.959 177.519 49.6242 178.702 50.8076C179.886 51.991 180.551 53.5959 180.551 55.2695C180.551 56.9432 179.886 58.549 178.702 59.7324C177.519 60.9156 175.914 61.5801 174.24 61.5801C174.227 61.5801 174.214 61.5792 174.201 61.5791C173.122 70.5043 171.15 88.1314 169.587 109.479C169.732 109.531 169.875 109.585 170.018 109.644C171.098 110.091 172.08 110.748 172.907 111.575C173.734 112.402 174.39 113.384 174.838 114.465C175.285 115.545 175.517 116.703 175.517 117.873C175.517 119.043 175.286 120.202 174.838 121.282C174.39 122.363 173.734 123.345 172.907 124.172C172.08 124.999 171.098 125.655 170.018 126.103C169.52 126.308 169.006 126.465 168.482 126.578C168.113 133.253 167.808 140.135 167.597 147.102C169.926 147.266 171.761 149.202 171.761 151.574C171.761 154.019 169.813 156 167.382 156.057C167.343 158.277 167.314 160.501 167.298 162.725C169.768 162.737 171.761 164.737 171.761 167.21C171.761 169.69 169.756 171.695 167.275 171.695H32.7217C30.2459 171.695 28.2364 169.69 28.2363 167.21C28.2363 164.734 30.2384 162.732 32.708 162.725C32.6915 160.501 32.6624 158.277 32.623 156.057C30.1927 156.004 28.2363 154.022 28.2363 151.574C28.2365 149.2 30.0785 147.262 32.4082 147.102C32.1979 140.163 31.8935 133.307 31.5264 126.656C29.7091 126.352 28.0173 125.492 26.6973 124.172C25.0268 122.501 24.0879 120.235 24.0879 117.873C24.088 115.511 25.0269 113.246 26.6973 111.575C27.7423 110.53 29.0194 109.77 30.4082 109.349C28.8462 88.0586 26.8812 70.4847 25.8047 61.5781C25.7878 61.5783 25.7708 61.5801 25.7539 61.5801C24.9252 61.5801 24.1045 61.4167 23.3389 61.0996C22.5735 60.7825 21.8779 60.3182 21.292 59.7324C20.706 59.1464 20.241 58.4502 19.9238 57.6846C19.6067 56.919 19.4434 56.0982 19.4434 55.2695C19.4434 54.4409 19.6067 53.6201 19.9238 52.8545C20.241 52.089 20.7061 51.3935 21.292 50.8076C21.8779 50.2217 22.5733 49.7566 23.3389 49.4395C24.1045 49.1223 24.9252 48.959 25.7539 48.959C26.5826 48.959 27.4033 49.1223 28.1689 49.4395C28.9345 49.7566 29.6299 50.2217 30.2158 50.8076C30.8017 51.3935 31.2669 52.089 31.584 52.8545C31.9011 53.6201 32.0644 54.4409 32.0645 55.2695C32.0645 56.0982 31.9011 56.919 31.584 57.6846C31.2668 58.4502 30.8018 59.1464 30.2158 59.7324C30.0745 59.8737 29.926 60.007 29.7725 60.1338C34.8275 65.496 43.2965 75.0187 52.1514 87.3291L70.5635 42.4043C69.591 42.0058 68.697 41.4167 67.9395 40.6592C66.439 39.1587 65.5958 37.1239 65.5957 35.002C65.5957 32.8798 66.4389 30.8443 67.9395 29.3438C69.44 27.8432 71.4755 27 73.5977 27C75.7196 27.0001 77.7544 27.8433 79.2549 29.3438C80.7555 30.8443 81.5986 32.8798 81.5986 35.002C81.5985 37.1239 80.7553 39.1587 79.2549 40.6592C78.6479 41.2661 77.9524 41.7631 77.2002 42.1426L99.9717 87.3291L100.003 87.3477L100.034 87.334L122.806 42.1475C122.05 41.7674 121.352 41.2685 120.742 40.6592C119.242 39.1587 118.399 37.1239 118.398 35.002C118.398 32.8798 119.242 30.8443 120.742 29.3438C122.243 27.8432 124.278 27 126.4 27Z"/>
</mask>
<path d="M126.4 27C128.522 27.0001 130.557 27.8433 132.058 29.3438C133.558 30.8443 134.401 32.8798 134.401 35.002C134.401 37.1239 133.558 39.1587 132.058 40.6592C131.302 41.4151 130.41 42.0029 129.439 42.4014L147.855 87.3291C156.707 75.0233 165.173 65.5029 170.229 60.1396C170.073 60.0114 169.922 59.8762 169.778 59.7324C168.595 58.549 167.93 56.9432 167.93 55.2695C167.93 53.5959 168.595 51.991 169.778 50.8076C170.962 49.6242 172.567 48.959 174.24 48.959C175.914 48.959 177.519 49.6242 178.702 50.8076C179.886 51.991 180.551 53.5959 180.551 55.2695C180.551 56.9432 179.886 58.549 178.702 59.7324C177.519 60.9156 175.914 61.5801 174.24 61.5801C174.227 61.5801 174.214 61.5792 174.201 61.5791C173.122 70.5043 171.15 88.1314 169.587 109.479C169.732 109.531 169.875 109.585 170.018 109.644C171.098 110.091 172.08 110.748 172.907 111.575C173.734 112.402 174.39 113.384 174.838 114.465C175.285 115.545 175.517 116.703 175.517 117.873C175.517 119.043 175.286 120.202 174.838 121.282C174.39 122.363 173.734 123.345 172.907 124.172C172.08 124.999 171.098 125.655 170.018 126.103C169.52 126.308 169.006 126.465 168.482 126.578C168.113 133.253 167.808 140.135 167.597 147.102C169.926 147.266 171.761 149.202 171.761 151.574C171.761 154.019 169.813 156 167.382 156.057C167.343 158.277 167.314 160.501 167.298 162.725C169.768 162.737 171.761 164.737 171.761 167.21C171.761 169.69 169.756 171.695 167.275 171.695H32.7217C30.2459 171.695 28.2364 169.69 28.2363 167.21C28.2363 164.734 30.2384 162.732 32.708 162.725C32.6915 160.501 32.6624 158.277 32.623 156.057C30.1927 156.004 28.2363 154.022 28.2363 151.574C28.2365 149.2 30.0785 147.262 32.4082 147.102C32.1979 140.163 31.8935 133.307 31.5264 126.656C29.7091 126.352 28.0173 125.492 26.6973 124.172C25.0268 122.501 24.0879 120.235 24.0879 117.873C24.088 115.511 25.0269 113.246 26.6973 111.575C27.7423 110.53 29.0194 109.77 30.4082 109.349C28.8462 88.0586 26.8812 70.4847 25.8047 61.5781C25.7878 61.5783 25.7708 61.5801 25.7539 61.5801C24.9252 61.5801 24.1045 61.4167 23.3389 61.0996C22.5735 60.7825 21.8779 60.3182 21.292 59.7324C20.706 59.1464 20.241 58.4502 19.9238 57.6846C19.6067 56.919 19.4434 56.0982 19.4434 55.2695C19.4434 54.4409 19.6067 53.6201 19.9238 52.8545C20.241 52.089 20.7061 51.3935 21.292 50.8076C21.8779 50.2217 22.5733 49.7566 23.3389 49.4395C24.1045 49.1223 24.9252 48.959 25.7539 48.959C26.5826 48.959 27.4033 49.1223 28.1689 49.4395C28.9345 49.7566 29.6299 50.2217 30.2158 50.8076C30.8017 51.3935 31.2669 52.089 31.584 52.8545C31.9011 53.6201 32.0644 54.4409 32.0645 55.2695C32.0645 56.0982 31.9011 56.919 31.584 57.6846C31.2668 58.4502 30.8018 59.1464 30.2158 59.7324C30.0745 59.8737 29.926 60.007 29.7725 60.1338C34.8275 65.496 43.2965 75.0187 52.1514 87.3291L70.5635 42.4043C69.591 42.0058 68.697 41.4167 67.9395 40.6592C66.439 39.1587 65.5958 37.1239 65.5957 35.002C65.5957 32.8798 66.4389 30.8443 67.9395 29.3438C69.44 27.8432 71.4755 27 73.5977 27C75.7196 27.0001 77.7544 27.8433 79.2549 29.3438C80.7555 30.8443 81.5986 32.8798 81.5986 35.002C81.5985 37.1239 80.7553 39.1587 79.2549 40.6592C78.6479 41.2661 77.9524 41.7631 77.2002 42.1426L99.9717 87.3291L100.003 87.3477L100.034 87.334L122.806 42.1475C122.05 41.7674 121.352 41.2685 120.742 40.6592C119.242 39.1587 118.399 37.1239 118.398 35.002C118.398 32.8798 119.242 30.8443 120.742 29.3438C122.243 27.8432 124.278 27 126.4 27Z" fill="#276288"/>
<path d="M126.4 27L126.401 21H126.4V27ZM132.058 29.3438L136.3 25.1011L136.3 25.1011L132.058 29.3438ZM134.401 35.002L140.401 35.0023V35.002H134.401ZM132.058 40.6592L136.3 44.9018L136.3 44.9018L132.058 40.6592ZM129.439 42.4014L127.16 36.8513C124.096 38.1097 122.632 41.6125 123.888 44.677L129.439 42.4014ZM147.855 87.3291L142.304 89.6048C143.131 91.6226 144.988 93.0327 147.153 93.2879C149.319 93.5431 151.453 92.603 152.726 90.8327L147.855 87.3291ZM170.229 60.1396L174.595 64.2552C175.734 63.0467 176.321 61.42 176.217 59.7625C176.112 58.1049 175.325 56.5648 174.044 55.5088L170.229 60.1396ZM169.778 59.7324L165.536 63.9751L165.536 63.9754L169.778 59.7324ZM167.93 55.2695L161.93 55.2693V55.2695L167.93 55.2695ZM169.778 50.8076L165.536 46.5649L165.536 46.565L169.778 50.8076ZM174.24 48.959L174.24 42.959L174.24 42.959L174.24 48.959ZM178.702 50.8076L182.945 46.565L182.945 46.5649L178.702 50.8076ZM180.551 55.2695L186.551 55.2695L186.551 55.2693L180.551 55.2695ZM178.702 59.7324L182.944 63.9754L182.945 63.9751L178.702 59.7324ZM174.24 61.5801L174.24 67.5801H174.24V61.5801ZM174.201 61.5791L174.238 55.5792C171.189 55.5603 168.61 57.8317 168.245 60.8591L174.201 61.5791ZM169.587 109.479L163.603 109.041C163.406 111.736 165.034 114.231 167.581 115.134L169.587 109.479ZM170.018 109.644L172.314 104.1L172.314 104.1L170.018 109.644ZM172.907 111.575L177.15 107.333L177.15 107.333L172.907 111.575ZM174.838 114.465L180.381 112.169L180.381 112.169L174.838 114.465ZM175.517 117.873L181.517 117.873L181.517 117.873L175.517 117.873ZM174.838 121.282L180.381 123.578L180.381 123.578L174.838 121.282ZM172.907 124.172L177.15 128.415L177.15 128.414L172.907 124.172ZM170.018 126.103L172.314 131.646L172.314 131.646L170.018 126.103ZM168.482 126.578L167.22 120.712C164.577 121.281 162.641 123.548 162.492 126.247L168.482 126.578ZM167.597 147.102L161.599 146.92C161.502 150.139 163.963 152.86 167.175 153.087L167.597 147.102ZM171.761 151.574L177.761 151.574L177.761 151.574L171.761 151.574ZM167.382 156.057L167.243 150.058C164.025 150.133 161.44 152.733 161.383 155.95L167.382 156.057ZM167.298 162.725L161.298 162.68C161.286 164.274 161.909 165.807 163.029 166.941C164.149 168.075 165.675 168.717 167.269 168.725L167.298 162.725ZM171.761 167.21L177.761 167.21V167.21H171.761ZM28.2363 167.21L22.2363 167.21L22.2363 167.21L28.2363 167.21ZM32.708 162.725L32.7256 168.725C34.3216 168.72 35.8499 168.08 36.9726 166.945C38.0952 165.811 38.7197 164.276 38.7078 162.68L32.708 162.725ZM32.623 156.057L38.6221 155.95C38.5651 152.729 35.9736 150.127 32.7522 150.058L32.623 156.057ZM28.2363 151.574L22.2363 151.574V151.574H28.2363ZM32.4082 147.102L32.821 153.087C36.0371 152.866 38.5031 150.142 38.4054 146.92L32.4082 147.102ZM31.5264 126.656L37.5172 126.326C37.3625 123.523 35.2849 121.202 32.5162 120.738L31.5264 126.656ZM26.6973 124.172L22.4546 128.415L22.4548 128.415L26.6973 124.172ZM24.0879 117.873L18.0879 117.873V117.873H24.0879ZM26.6973 111.575L22.4546 107.333L22.4546 107.333L26.6973 111.575ZM30.4082 109.349L32.1508 115.09C34.8358 114.275 36.5974 111.708 36.3921 108.91L30.4082 109.349ZM25.8047 61.5781L31.7613 60.8581C31.3949 57.8265 28.81 55.5538 25.7564 55.5783L25.8047 61.5781ZM25.7539 61.5801L25.7539 67.5801H25.7539V61.5801ZM23.3389 61.0996L21.0425 66.6428L21.0428 66.6429L23.3389 61.0996ZM21.292 59.7324L17.0494 63.9751L17.0497 63.9754L21.292 59.7324ZM19.9238 57.6846L14.3805 59.9806L14.3806 59.9807L19.9238 57.6846ZM19.4434 55.2695L13.4434 55.2693L13.4434 55.2695L19.4434 55.2695ZM19.9238 52.8545L14.3807 50.5581L14.3806 50.5584L19.9238 52.8545ZM21.292 50.8076L17.0494 46.5649L17.0494 46.565L21.292 50.8076ZM23.3389 49.4395L21.0428 43.8962L21.0427 43.8962L23.3389 49.4395ZM25.7539 48.959L25.7539 42.959L25.7539 42.959L25.7539 48.959ZM28.1689 49.4395L30.4651 43.8962L30.465 43.8962L28.1689 49.4395ZM30.2158 50.8076L34.4585 46.565L34.4583 46.5649L30.2158 50.8076ZM31.584 52.8545L37.1273 50.5584L37.1271 50.5581L31.584 52.8545ZM32.0645 55.2695L38.0645 55.2695L38.0645 55.2693L32.0645 55.2695ZM31.584 57.6846L37.1273 59.9807L37.1273 59.9806L31.584 57.6846ZM30.2158 59.7324L34.4581 63.9754L34.4585 63.9751L30.2158 59.7324ZM29.7725 60.1338L25.9509 55.5082C24.6716 56.5651 23.8872 58.1047 23.7841 59.7609C23.6809 61.4171 24.2683 63.0421 25.4066 64.2495L29.7725 60.1338ZM52.1514 87.3291L47.2806 90.8327C48.554 92.6031 50.6878 93.5431 52.8536 93.2879C55.0194 93.0326 56.8762 91.6224 57.7032 89.6045L52.1514 87.3291ZM70.5635 42.4043L76.1153 44.6797C76.7188 43.2072 76.7126 41.5553 76.0981 40.0874C75.4836 38.6195 74.3112 37.4558 72.8387 36.8524L70.5635 42.4043ZM67.9395 40.6592L63.6968 44.9018L63.6968 44.9018L67.9395 40.6592ZM65.5957 35.002L59.5957 35.002L59.5957 35.0023L65.5957 35.002ZM67.9395 29.3438L63.6968 25.1011L63.6968 25.1011L67.9395 29.3438ZM73.5977 27L73.598 21H73.5977V27ZM79.2549 29.3438L83.4975 25.1011L83.4975 25.1011L79.2549 29.3438ZM81.5986 35.002L87.5986 35.0023V35.002H81.5986ZM79.2549 40.6592L83.4975 44.9018L83.4975 44.9018L79.2549 40.6592ZM77.2002 42.1426L74.4976 36.7857C71.54 38.2779 70.3513 41.8845 71.8421 44.8428L77.2002 42.1426ZM99.9717 87.3291L94.6136 90.0293C95.1285 91.051 95.9247 91.9041 96.9084 92.4882L99.9717 87.3291ZM100.003 87.3477L96.9397 92.5068C98.6016 93.4935 100.637 93.6193 102.408 92.8446L100.003 87.3477ZM100.034 87.334L102.439 92.8309C103.719 92.2709 104.764 91.2818 105.392 90.0342L100.034 87.334ZM122.806 42.1475L128.164 44.8476C128.88 43.4258 129.002 41.7776 128.503 40.2658C128.004 38.754 126.924 37.5026 125.502 36.7872L122.806 42.1475ZM120.742 40.6592L116.5 44.9018L116.5 44.9018L120.742 40.6592ZM118.398 35.002L112.398 35.002L112.398 35.0023L118.398 35.002ZM120.742 29.3438L116.5 25.1011L116.5 25.1011L120.742 29.3438ZM126.4 27L126.4 33C126.93 33 127.439 33.2107 127.815 33.5864L132.058 29.3438L136.3 25.1011C133.675 22.4759 130.114 21.0002 126.401 21L126.4 27ZM132.058 29.3438L127.815 33.5864C128.19 33.9618 128.401 34.4712 128.401 35.002H134.401H140.401C140.401 31.2884 138.926 27.7268 136.3 25.1011L132.058 29.3438ZM134.401 35.002L128.401 35.0016C128.401 35.5319 128.191 36.0409 127.815 36.4165L132.058 40.6592L136.3 44.9018C138.925 42.2766 140.401 38.7159 140.401 35.0023L134.401 35.002ZM132.058 40.6592L127.815 36.4165C127.63 36.602 127.408 36.7495 127.16 36.8513L129.439 42.4014L131.719 47.9514C133.412 47.2562 134.974 46.2283 136.3 44.9018L132.058 40.6592ZM129.439 42.4014L123.888 44.677L142.304 89.6048L147.855 87.3291L153.407 85.0534L134.991 40.1257L129.439 42.4014ZM147.855 87.3291L152.726 90.8327C161.384 78.7963 169.668 69.4817 174.595 64.2552L170.229 60.1396L165.863 56.0241C160.678 61.524 152.03 71.2503 142.985 83.8255L147.855 87.3291ZM170.229 60.1396L174.044 55.5088C174.018 55.4875 174.012 55.481 174.021 55.4894L169.778 59.7324L165.536 63.9754C165.832 64.2714 166.128 64.5353 166.413 64.7705L170.229 60.1396ZM169.778 59.7324L174.021 55.4898C173.963 55.4315 173.93 55.3518 173.93 55.2695L167.93 55.2695L161.93 55.2695C161.93 58.5346 163.227 61.6665 165.536 63.9751L169.778 59.7324ZM167.93 55.2695L173.93 55.2697C173.93 55.1882 173.962 55.1091 174.021 55.0503L169.778 50.8076L165.536 46.565C163.228 48.8729 161.93 52.0036 161.93 55.2693L167.93 55.2695ZM169.778 50.8076L174.021 55.0503C174.08 54.9913 174.159 54.959 174.24 54.959L174.24 48.959L174.24 42.959C170.974 42.959 167.844 44.2572 165.536 46.5649L169.778 50.8076ZM174.24 48.959V54.959C174.321 54.959 174.4 54.9912 174.46 55.0504L178.702 50.8076L182.945 46.5649C180.637 44.2572 177.506 42.959 174.24 42.959V48.959ZM178.702 50.8076L174.46 55.0503C174.518 55.1091 174.551 55.1882 174.551 55.2697L180.551 55.2695L186.551 55.2693C186.551 52.0036 185.253 48.8729 182.945 46.565L178.702 50.8076ZM180.551 55.2695H174.551C174.551 55.3518 174.518 55.4315 174.46 55.4898L178.702 59.7324L182.945 63.9751C185.253 61.6665 186.551 58.5346 186.551 55.2695H180.551ZM178.702 59.7324L174.46 55.4894C174.402 55.5471 174.323 55.5801 174.24 55.5801V61.5801V67.5801C177.504 67.5801 180.635 66.2842 182.944 63.9754L178.702 59.7324ZM174.24 61.5801L174.24 55.5801C174.273 55.5801 174.302 55.5804 174.326 55.5807C174.351 55.5811 174.371 55.5816 174.388 55.582C174.404 55.5824 174.416 55.5828 174.424 55.5831C174.432 55.5833 174.437 55.5835 174.436 55.5835C174.436 55.5835 174.436 55.5835 174.435 55.5835C174.435 55.5834 174.434 55.5834 174.433 55.5834C174.431 55.5833 174.428 55.5832 174.424 55.5831C174.416 55.5828 174.403 55.5823 174.387 55.5819C174.37 55.5814 174.349 55.5808 174.325 55.5803C174.3 55.5799 174.271 55.5794 174.238 55.5792L174.201 61.5791L174.164 67.579C174.106 67.5786 174.06 67.5774 174.035 67.5767C174.022 67.5763 174.013 67.576 174.008 67.5758C174.005 67.5757 174 67.5756 174.005 67.5757C174.008 67.5758 174.016 67.5761 174.027 67.5765C174.038 67.5769 174.054 67.5774 174.073 67.5779C174.111 67.5789 174.169 67.5801 174.24 67.5801L174.24 61.5801ZM174.201 61.5791L168.245 60.8591C167.158 69.8483 165.175 87.5733 163.603 109.041L169.587 109.479L175.571 109.918C177.126 88.6895 179.087 71.1602 180.158 62.2991L174.201 61.5791ZM169.587 109.479L167.581 115.134C167.663 115.163 167.704 115.18 167.721 115.187L170.018 109.644L172.314 104.1C172.047 103.99 171.8 103.898 171.593 103.825L169.587 109.479ZM170.018 109.644L167.721 115.187C168.072 115.332 168.393 115.546 168.665 115.818L172.907 111.575L177.15 107.333C175.767 105.95 174.125 104.85 172.314 104.1L170.018 109.644ZM172.907 111.575L168.664 115.818C168.934 116.088 169.148 116.408 169.295 116.761L174.838 114.465L180.381 112.169C179.632 110.36 178.534 108.717 177.15 107.333L172.907 111.575ZM174.838 114.465L169.295 116.761C169.442 117.116 169.517 117.494 169.517 117.873L175.517 117.873L181.517 117.873C181.517 115.913 181.129 113.975 180.381 112.169L174.838 114.465ZM175.517 117.873L169.517 117.873C169.517 118.253 169.441 118.632 169.295 118.986L174.838 121.282L180.381 123.578C181.13 121.772 181.517 119.833 181.517 117.873L175.517 117.873ZM174.838 121.282L169.295 118.986C169.148 119.339 168.934 119.66 168.665 119.929L172.907 124.172L177.15 128.414C178.534 127.03 179.632 125.387 180.381 123.578L174.838 121.282ZM172.907 124.172L168.665 119.929C168.395 120.199 168.075 120.413 167.721 120.559L170.018 126.103L172.314 131.646C174.122 130.897 175.765 129.799 177.15 128.415L172.907 124.172ZM170.018 126.103L167.721 120.559C167.58 120.618 167.414 120.671 167.22 120.712L168.482 126.578L169.745 132.444C170.598 132.26 171.46 131.999 172.314 131.646L170.018 126.103ZM168.482 126.578L162.492 126.247C162.12 132.966 161.812 139.899 161.599 146.92L167.597 147.102L173.594 147.283C173.803 140.372 174.107 133.54 174.473 126.909L168.482 126.578ZM167.597 147.102L167.175 153.087C166.385 153.031 165.761 152.375 165.761 151.575L171.761 151.574L177.761 151.574C177.76 146.03 173.468 141.501 168.019 141.116L167.597 147.102ZM171.761 151.574H165.761C165.761 150.75 166.425 150.077 167.243 150.058L167.382 156.057L167.521 162.055C173.201 161.923 177.761 157.288 177.761 151.574H171.761ZM167.382 156.057L161.383 155.95C161.343 158.191 161.315 160.436 161.298 162.68L167.298 162.725L173.298 162.769C173.314 160.567 173.342 158.364 173.381 156.163L167.382 156.057ZM167.298 162.725L167.269 168.725C166.438 168.721 165.761 168.041 165.761 167.21H171.761H177.761C177.761 161.434 173.098 156.753 167.327 156.725L167.298 162.725ZM171.761 167.21L165.761 167.21C165.761 166.377 166.442 165.695 167.275 165.695V171.695V177.695C173.07 177.695 177.761 173.004 177.761 167.21L171.761 167.21ZM167.275 171.695V165.695H32.7217V171.695V177.695H167.275V171.695ZM32.7217 171.695V165.695C33.5559 165.695 34.2363 166.373 34.2363 167.21L28.2363 167.21L22.2363 167.21C22.2365 173.008 26.9359 177.695 32.7217 177.695V171.695ZM28.2363 167.21H34.2363C34.2363 168.045 33.5584 168.722 32.7256 168.725L32.708 162.725L32.6904 156.725C26.9184 156.742 22.2363 161.423 22.2363 167.21H28.2363ZM32.708 162.725L38.7078 162.68C38.6912 160.434 38.6617 158.19 38.6221 155.95L32.623 156.057L26.624 156.163C26.663 158.365 26.6918 160.569 26.7082 162.769L32.708 162.725ZM32.623 156.057L32.7522 150.058C33.5707 150.076 34.2363 150.744 34.2363 151.574H28.2363H22.2363C22.2363 157.299 26.8146 161.933 32.4939 162.055L32.623 156.057ZM28.2363 151.574L34.2363 151.575C34.2363 152.381 33.6098 153.033 32.821 153.087L32.4082 147.102L31.9954 141.116C26.5473 141.492 22.2368 146.018 22.2363 151.574L28.2363 151.574ZM32.4082 147.102L38.4054 146.92C38.1935 139.926 37.8868 133.02 37.5172 126.326L31.5264 126.656L25.5355 126.987C25.9002 133.594 26.2023 140.399 26.411 147.283L32.4082 147.102ZM31.5264 126.656L32.5162 120.738C31.9178 120.638 31.3669 120.356 30.9398 119.929L26.6973 124.172L22.4548 128.415C24.6676 130.627 27.5003 132.066 30.5366 132.574L31.5264 126.656ZM26.6973 124.172L30.9399 119.929C30.3943 119.384 30.0879 118.644 30.0879 117.873H24.0879H18.0879C18.0879 121.827 19.6593 125.619 22.4546 128.415L26.6973 124.172ZM24.0879 117.873L30.0879 117.873C30.0879 117.103 30.394 116.364 30.9399 115.818L26.6973 111.575L22.4546 107.333C19.6598 110.127 18.088 113.918 18.0879 117.873L24.0879 117.873ZM26.6973 111.575L30.9399 115.818C31.2843 115.473 31.7016 115.226 32.1508 115.09L30.4082 109.349L28.6656 103.607C26.3372 104.314 24.2002 105.587 22.4546 107.333L26.6973 111.575ZM30.4082 109.349L36.3921 108.91C34.8214 87.5004 32.8457 69.829 31.7613 60.8581L25.8047 61.5781L19.848 62.2981C20.9168 71.1404 22.871 88.6168 24.4243 109.788L30.4082 109.349ZM25.8047 61.5781L25.7564 55.5783C25.7049 55.5787 25.6591 55.5797 25.6205 55.5809C25.5821 55.582 25.5491 55.5834 25.5236 55.5845C25.4984 55.5856 25.4778 55.5867 25.4654 55.5874C25.4591 55.5877 25.4539 55.588 25.4508 55.5882C25.4492 55.5882 25.4479 55.5883 25.4471 55.5884C25.4459 55.5884 25.4462 55.5884 25.4458 55.5884C25.4455 55.5884 25.4475 55.5883 25.4504 55.5882C25.4535 55.588 25.4585 55.5877 25.4647 55.5874C25.477 55.5868 25.4971 55.5858 25.5223 55.5848C25.5476 55.5837 25.5804 55.5826 25.6186 55.5817C25.657 55.5808 25.7026 55.5801 25.7539 55.5801V61.5801V67.5801C25.8635 67.5801 25.9532 67.5772 26.0109 67.5748C26.0403 67.5736 26.0647 67.5724 26.0812 67.5716C26.0969 67.5708 26.1099 67.57 26.1128 67.5699C26.1193 67.5695 26.1123 67.5699 26.1059 67.5703C26.0978 67.5707 26.0814 67.5715 26.0604 67.5725C26.0195 67.5743 25.9458 67.5772 25.8529 67.5779L25.8047 61.5781ZM25.7539 61.5801L25.7539 55.5801C25.7135 55.5801 25.673 55.5721 25.635 55.5563L23.3389 61.0996L21.0428 66.6429C22.536 67.2614 24.1369 67.5801 25.7539 67.5801L25.7539 61.5801ZM23.3389 61.0996L25.6352 55.5564C25.5959 55.5401 25.5619 55.517 25.5343 55.4894L21.292 59.7324L17.0497 63.9754C18.1938 65.1194 19.5511 66.0249 21.0425 66.6428L23.3389 61.0996ZM21.292 59.7324L25.5346 55.4898C25.5063 55.4614 25.483 55.4268 25.4671 55.3885L19.9238 57.6846L14.3806 59.9807C14.999 61.4736 15.9057 62.8314 17.0494 63.9751L21.292 59.7324ZM19.9238 57.6846L25.4671 55.3886C25.4513 55.3504 25.4434 55.3098 25.4434 55.2695L19.4434 55.2695L13.4434 55.2695C13.4434 56.8866 13.7621 58.4875 14.3805 59.9806L19.9238 57.6846ZM19.4434 55.2695L25.4434 55.2697C25.4434 55.2292 25.4514 55.1885 25.4671 55.1506L19.9238 52.8545L14.3806 50.5584C13.762 52.0517 13.4434 53.6526 13.4434 55.2693L19.4434 55.2695ZM19.9238 52.8545L25.467 55.1509C25.482 55.1148 25.5046 55.0803 25.5346 55.0503L21.292 50.8076L17.0494 46.565C15.9075 47.7068 15 49.0632 14.3807 50.5581L19.9238 52.8545ZM21.292 50.8076L25.5345 55.0503C25.5648 55.0201 25.5992 54.9975 25.635 54.9827L23.3389 49.4395L21.0427 43.8962C19.5474 44.5156 18.1911 45.4233 17.0494 46.5649L21.292 50.8076ZM23.3389 49.4395L25.635 54.9827C25.673 54.967 25.7135 54.959 25.7539 54.959L25.7539 48.959L25.7539 42.959C24.1369 42.959 22.536 43.2777 21.0428 43.8962L23.3389 49.4395ZM25.7539 48.959V54.959C25.7943 54.959 25.8348 54.967 25.8728 54.9827L28.1689 49.4395L30.465 43.8962C28.9718 43.2777 27.371 42.959 25.7539 42.959V48.959ZM28.1689 49.4395L25.8728 54.9827C25.9085 54.9975 25.9429 55.02 25.9733 55.0504L30.2158 50.8076L34.4583 46.5649C33.3168 45.4234 31.9605 44.5156 30.4651 43.8962L28.1689 49.4395ZM30.2158 50.8076L25.9732 55.0503C26.0032 55.0803 26.0259 55.1148 26.0408 55.1509L31.584 52.8545L37.1271 50.5581C36.5078 49.0632 35.6003 47.7068 34.4585 46.565L30.2158 50.8076ZM31.584 52.8545L26.0407 55.1506C26.0564 55.1885 26.0645 55.2292 26.0645 55.2697L32.0645 55.2695L38.0645 55.2693C38.0644 53.6526 37.7458 52.0517 37.1273 50.5584L31.584 52.8545ZM32.0645 55.2695L26.0645 55.2695C26.0645 55.3098 26.0565 55.3504 26.0407 55.3885L31.584 57.6846L37.1273 59.9806C37.7457 58.4875 38.0645 56.8866 38.0645 55.2695L32.0645 55.2695ZM31.584 57.6846L26.0407 55.3885C26.0248 55.4268 26.0015 55.4614 25.9732 55.4898L30.2158 59.7324L34.4585 63.9751C35.6021 62.8314 36.5089 61.4736 37.1273 59.9807L31.584 57.6846ZM30.2158 59.7324L25.9736 55.4894C25.9844 55.4785 25.9793 55.4847 25.9509 55.5082L29.7725 60.1338L33.594 64.7594C33.8726 64.5292 34.1646 64.2689 34.4581 63.9754L30.2158 59.7324ZM29.7725 60.1338L25.4066 64.2495C30.3328 69.4751 38.6195 78.7919 47.2806 90.8327L52.1514 87.3291L57.0222 83.8255C47.9734 71.2456 39.3221 61.5169 34.1383 56.018L29.7725 60.1338ZM52.1514 87.3291L57.7032 89.6045L76.1153 44.6797L70.5635 42.4043L65.0117 40.1289L46.5995 85.0537L52.1514 87.3291ZM70.5635 42.4043L72.8387 36.8524C72.592 36.7513 72.3692 36.6037 72.1821 36.4165L67.9395 40.6592L63.6968 44.9018C65.0247 46.2298 66.5901 47.2603 68.2883 47.9562L70.5635 42.4043ZM67.9395 40.6592L72.1821 36.4166C71.8064 36.0409 71.5957 35.5319 71.5957 35.0016L65.5957 35.002L59.5957 35.0023C59.5959 38.7159 61.0716 42.2766 63.6968 44.9018L67.9395 40.6592ZM65.5957 35.002H71.5957C71.5957 34.4712 71.8067 33.9618 72.1821 33.5864L67.9395 29.3438L63.6968 25.1011C61.0711 27.7268 59.5957 31.2884 59.5957 35.002H65.5957ZM67.9395 29.3438L72.1821 33.5864C72.5575 33.211 73.0669 33 73.5977 33V27V21C69.8841 21 66.3225 22.4754 63.6968 25.1011L67.9395 29.3438ZM73.5977 27L73.5973 33C74.1276 33 74.6366 33.2107 75.0123 33.5864L79.2549 29.3438L83.4975 25.1011C80.8723 22.4759 77.3116 21.0002 73.598 21L73.5977 27ZM79.2549 29.3438L75.0122 33.5864C75.3877 33.9618 75.5986 34.4712 75.5986 35.002H81.5986H87.5986C87.5986 31.2884 86.1232 27.7268 83.4975 25.1011L79.2549 29.3438ZM81.5986 35.002L75.5986 35.0016C75.5986 35.5319 75.3879 36.0409 75.0122 36.4165L79.2549 40.6592L83.4975 44.9018C86.1228 42.2766 87.5984 38.7159 87.5986 35.0023L81.5986 35.002ZM79.2549 40.6592L75.0122 36.4165C74.869 36.5598 74.697 36.6851 74.4976 36.7857L77.2002 42.1426L79.9028 47.4994C81.2079 46.841 82.4269 45.9725 83.4975 44.9018L79.2549 40.6592ZM77.2002 42.1426L71.8421 44.8428L94.6136 90.0293L99.9717 87.3291L105.33 84.6289L82.5583 39.4424L77.2002 42.1426ZM99.9717 87.3291L96.9084 92.4882L96.9397 92.5068L100.003 87.3477L103.066 82.1885L103.035 82.17L99.9717 87.3291ZM100.003 87.3477L102.408 92.8446L102.439 92.8309L100.034 87.334L97.6293 81.837L97.598 81.8507L100.003 87.3477ZM100.034 87.334L105.392 90.0342L128.164 44.8476L122.806 42.1475L117.448 39.4473L94.6761 84.6338L100.034 87.334ZM122.806 42.1475L125.502 36.7872C125.303 36.6874 125.13 36.5617 124.985 36.4165L120.742 40.6592L116.5 44.9018C117.573 45.9753 118.797 46.8474 120.11 47.5077L122.806 42.1475ZM120.742 40.6592L124.985 36.4166C124.609 36.0409 124.398 35.5319 124.398 35.0016L118.398 35.002L112.398 35.0023C112.399 38.7159 113.874 42.2766 116.5 44.9018L120.742 40.6592ZM118.398 35.002H124.398C124.398 34.4712 124.609 33.9618 124.985 33.5864L120.742 29.3438L116.5 25.1011C113.874 27.7268 112.398 31.2884 112.398 35.002H118.398ZM120.742 29.3438L124.985 33.5864C125.36 33.211 125.87 33 126.4 33V27V21C122.687 21 119.125 22.4754 116.5 25.1011L120.742 29.3438Z" fill="white" mask="url(#path-1-outside-1_1062_25656)"/>
<path d="M147.855 87.3296L126.407 35.0016L100.035 87.3341L100.003 87.3476L99.9718 87.3296L73.5992 34.9971L52.1513 87.3296C38.0949 67.7879 25.0117 55.2699 25.0117 55.2699C25.0117 55.2699 32.7262 112.267 32.7262 167.21H167.28C167.28 112.267 174.995 55.2699 174.995 55.2699C174.995 55.2699 161.912 67.7879 147.855 87.3296Z" fill="#6AA6E0"/>
<mask id="path-4-outside-2_1062_25656" maskUnits="userSpaceOnUse" x="76.543" y="97.001" width="46" height="42" fill="black">
<rect fill="white" x="76.543" y="97.001" width="46" height="42"/>
<path d="M101.804 101.001C111.122 101.001 118.677 108.555 118.677 117.874C118.676 127.192 111.122 134.747 101.804 134.747C94.0137 134.747 87.4573 129.468 85.5155 122.292C83.5313 122.257 81.0018 121.138 80.6033 119.613C80.1206 117.765 82.6312 114.79 84.6053 114.236C84.8573 114.166 85.1083 114.115 85.3563 114.089C87.0742 106.592 93.786 101.001 101.804 101.001Z"/>
</mask>
<path d="M101.804 101.001C111.122 101.001 118.677 108.555 118.677 117.874C118.676 127.192 111.122 134.747 101.804 134.747C94.0137 134.747 87.4573 129.468 85.5155 122.292C83.5313 122.257 81.0018 121.138 80.6033 119.613C80.1206 117.765 82.6312 114.79 84.6053 114.236C84.8573 114.166 85.1083 114.115 85.3563 114.089C87.0742 106.592 93.786 101.001 101.804 101.001Z" fill="#DFB820"/>
<path d="M101.804 101.001L101.804 97.7167H101.804V101.001ZM118.677 117.874L121.961 117.874V117.874H118.677ZM101.804 134.747L101.804 138.031L101.804 138.031L101.804 134.747ZM85.5155 122.292L88.6857 121.434L88.0409 119.051L85.5729 119.008L85.5155 122.292ZM80.6033 119.613L77.4256 120.443L77.4258 120.444L80.6033 119.613ZM84.6053 114.236L83.7182 111.074L83.7179 111.074L84.6053 114.236ZM85.3563 114.089L85.7059 117.355L88.0345 117.105L88.5576 114.823L85.3563 114.089ZM101.804 101.001L101.804 104.285C109.308 104.285 115.392 110.369 115.392 117.874H118.677H121.961C121.961 106.741 112.936 97.7168 101.804 97.7167L101.804 101.001ZM118.677 117.874L115.392 117.874C115.392 125.379 109.308 131.463 101.804 131.463L101.804 134.747L101.804 138.031C112.936 138.031 121.961 129.006 121.961 117.874L118.677 117.874ZM101.804 134.747L101.804 131.463C95.5349 131.463 90.25 127.214 88.6857 121.434L85.5155 122.292L82.3452 123.15C84.6646 131.721 92.4925 138.031 101.804 138.031V134.747ZM85.5155 122.292L85.5729 119.008C85.1061 119 84.4665 118.846 83.9579 118.586C83.7156 118.462 83.5968 118.362 83.5667 118.332C83.5316 118.297 83.6904 118.437 83.7809 118.783L80.6033 119.613L77.4258 120.444C77.9832 122.576 79.7594 123.818 80.9716 124.437C82.3235 125.127 83.9407 125.549 85.458 125.576L85.5155 122.292ZM80.6033 119.613L83.7811 118.783C83.8866 119.187 83.77 119.37 83.8353 119.19C83.89 119.039 84.0254 118.777 84.273 118.459C84.5145 118.149 84.7995 117.869 85.0716 117.661C85.3639 117.438 85.5198 117.391 85.4927 117.399L84.6053 114.236L83.7179 111.074C81.8114 111.609 80.1501 113.064 79.093 114.42C78.5265 115.146 78.0015 116.009 77.6595 116.953C77.3281 117.867 77.0787 119.115 77.4256 120.443L80.6033 119.613ZM84.6053 114.236L85.4924 117.399C85.5889 117.371 85.6597 117.359 85.7059 117.355L85.3563 114.089L85.0066 110.823C84.557 110.871 84.1258 110.96 83.7182 111.074L84.6053 114.236ZM85.3563 114.089L88.5576 114.823C89.941 108.786 95.3506 104.285 101.804 104.285V101.001V97.7167C92.2215 97.7167 84.2075 104.399 82.1549 113.355L85.3563 114.089Z" fill="white" mask="url(#path-4-outside-2_1062_25656)"/>
<path d="M101.803 134.746C111.121 134.746 118.676 127.192 118.676 117.873C118.676 108.555 111.121 101 101.803 101C92.484 101 84.9297 108.555 84.9297 117.873C84.9297 127.192 92.484 134.746 101.803 134.746Z" fill="#4B98E6"/>
<circle cx="95.6192" cy="113.457" r="4.41604" fill="white"/>
<circle cx="95.6203" cy="113.456" r="2.64962" fill="#161616"/>
<circle cx="95.6203" cy="113.456" r="2.64962" fill="#161616"/>
<path d="M86.1998 122.354C84.1032 122.692 80.533 121.053 80.2499 119.163C79.9668 117.273 82.8884 114.587 84.9805 114.249C87.0726 113.912 88.96 114.872 89.3814 117.687C89.809 120.536 88.2919 122.016 86.1953 122.354L86.1998 122.354Z" fill="#EAC00F"/>
<path d="M129.141 117.873C129.141 120.742 130.28 123.494 132.309 125.523C134.338 127.552 137.09 128.691 139.959 128.691C142.828 128.691 145.58 127.552 147.608 125.523C149.637 123.494 150.777 120.742 150.777 117.873C150.777 115.004 149.637 112.253 147.608 110.224C145.58 108.195 142.828 107.055 139.959 107.055C137.09 107.055 134.338 108.195 132.309 110.224C130.28 112.253 129.141 115.004 129.141 117.873Z" fill="#276288"/>
<path d="M157.701 117.873C157.701 119.043 157.932 120.201 158.379 121.282C158.827 122.363 159.483 123.345 160.31 124.172C161.137 124.999 162.119 125.655 163.2 126.103C164.281 126.55 165.439 126.781 166.609 126.781C167.778 126.781 168.937 126.55 170.017 126.103C171.098 125.655 172.08 124.999 172.907 124.172C173.734 123.345 174.39 122.363 174.838 121.282C175.286 120.201 175.516 119.043 175.516 117.873C175.516 116.704 175.286 115.545 174.838 114.465C174.39 113.384 173.734 112.402 172.907 111.575C172.08 110.748 171.098 110.092 170.017 109.644C168.937 109.196 167.778 108.966 166.609 108.966C165.439 108.966 164.281 109.196 163.2 109.644C162.119 110.092 161.137 110.748 160.31 111.575C159.483 112.402 158.827 113.384 158.379 114.465C157.932 115.545 157.701 116.704 157.701 117.873Z" fill="#7AB9F8"/>
<path d="M48.834 117.873C48.834 119.294 49.1138 120.701 49.6575 122.013C50.2011 123.326 50.998 124.518 52.0025 125.523C53.0071 126.527 54.1997 127.324 55.5122 127.868C56.8247 128.412 58.2315 128.691 59.6521 128.691C61.0728 128.691 62.4795 128.412 63.7921 127.868C65.1046 127.324 66.2972 126.527 67.3017 125.523C68.3063 124.518 69.1031 123.326 69.6468 122.013C70.1905 120.701 70.4703 119.294 70.4703 117.873C70.4703 115.004 69.3305 112.253 67.3017 110.224C65.2729 108.195 62.5213 107.055 59.6521 107.055C56.783 107.055 54.0313 108.195 52.0025 110.224C49.9738 112.253 48.834 115.004 48.834 117.873Z" fill="#276288"/>
<path d="M24.0879 117.873C24.0879 120.236 25.0264 122.501 26.6968 124.172C28.3673 125.842 30.633 126.781 32.9954 126.781C35.3578 126.781 37.6234 125.842 39.2939 124.172C40.9644 122.501 41.9029 120.236 41.9029 117.873C41.9029 115.511 40.9644 113.245 39.2939 111.575C37.6234 109.904 35.3578 108.966 32.9954 108.966C30.633 108.966 28.3673 109.904 26.6968 111.575C25.0264 113.245 24.0879 115.511 24.0879 117.873Z" fill="#7AB9F8"/>
<path d="M167.276 171.695H32.7215C30.2457 171.695 28.2363 169.69 28.2363 167.21C28.2363 164.73 30.2457 162.725 32.7215 162.725H167.276C169.756 162.725 171.761 164.73 171.761 167.21C171.761 169.69 169.756 171.695 167.276 171.695ZM167.276 156.06H32.7215C30.2457 156.06 28.2363 154.055 28.2363 151.575C28.2363 149.094 30.2457 147.089 32.7215 147.089H167.276C169.756 147.089 171.761 149.094 171.761 151.575C171.761 154.055 169.756 156.06 167.276 156.06Z" fill="#EAC00F"/>
<path d="M19.4434 55.2697C19.4434 56.0984 19.6066 56.919 19.9237 57.6847C20.2409 58.4503 20.7057 59.146 21.2917 59.732C21.8777 60.3179 22.5734 60.7828 23.339 61.0999C24.1046 61.4171 24.9252 61.5803 25.7539 61.5803C26.5827 61.5803 27.4033 61.4171 28.1689 61.0999C28.9345 60.7828 29.6302 60.3179 30.2162 59.732C30.8022 59.146 31.267 58.4503 31.5842 57.6847C31.9013 56.919 32.0645 56.0984 32.0645 55.2697C32.0645 54.441 31.9013 53.6204 31.5842 52.8547C31.267 52.0891 30.8022 51.3934 30.2162 50.8074C29.6302 50.2214 28.9345 49.7566 28.1689 49.4395C27.4033 49.1223 26.5827 48.9591 25.7539 48.9591C24.9252 48.9591 24.1046 49.1223 23.339 49.4395C22.5734 49.7566 21.8777 50.2214 21.2917 50.8074C20.7057 51.3934 20.2409 52.0891 19.9237 52.8547C19.6066 53.6204 19.4434 54.441 19.4434 55.2697Z" fill="#276288"/>
<path d="M65.5957 35.0015C65.5957 37.1236 66.4387 39.1588 67.9393 40.6594C69.4399 42.16 71.4751 43.003 73.5972 43.003C75.7193 43.003 77.7545 42.16 79.2551 40.6594C80.7557 39.1588 81.5987 37.1236 81.5987 35.0015C81.5987 32.8794 80.7557 30.8441 79.2551 29.3436C77.7545 27.843 75.7193 27 73.5972 27C71.4751 27 69.4399 27.843 67.9393 29.3436C66.4387 30.8441 65.5957 32.8794 65.5957 35.0015Z" fill="#276288"/>
<path d="M167.93 55.2697C167.93 56.9434 168.595 58.5485 169.778 59.732C170.961 60.9154 172.567 61.5803 174.24 61.5803C175.914 61.5803 177.519 60.9154 178.703 59.732C179.886 58.5485 180.551 56.9434 180.551 55.2697C180.551 53.596 179.886 51.9909 178.703 50.8074C177.519 49.624 175.914 48.9591 174.24 48.9591C172.567 48.9591 170.961 49.624 169.778 50.8074C168.595 51.9909 167.93 53.596 167.93 55.2697Z" fill="#276288"/>
<path d="M118.398 35.0015C118.398 37.1236 119.241 39.1588 120.742 40.6594C122.243 42.16 124.278 43.003 126.4 43.003C128.522 43.003 130.557 42.16 132.058 40.6594C133.558 39.1588 134.401 37.1236 134.401 35.0015C134.401 32.8794 133.558 30.8441 132.058 29.3436C130.557 27.843 128.522 27 126.4 27C124.278 27 122.243 27.843 120.742 29.3436C119.241 30.8441 118.398 32.8794 118.398 35.0015Z" fill="#276288"/>
</svg>
