<svg width="200" height="200" viewBox="0 0 200 200" fill="none" xmlns="http://www.w3.org/2000/svg">
<mask id="path-1-outside-1_1062_22656" maskUnits="userSpaceOnUse" x="14" y="14" width="172" height="172" fill="black">
<rect fill="white" x="14" y="14" width="172" height="172"/>
<path d="M135.556 20C145.373 20.0001 153.333 27.9598 153.333 37.7773V99.8848C154.302 103.578 154.823 107.521 154.823 111.651C154.823 114.042 154.155 118.723 153.778 119.503C168.325 119.762 180 140.302 180 165V180H56V165C56 160.965 56.3151 157.054 56.9033 153.333H37.7773C27.9598 153.333 20.0001 145.373 20 135.556V37.7773C20.0002 27.9599 27.9599 20.0002 37.7773 20H135.556Z"/>
</mask>
<path d="M135.556 20C145.373 20.0001 153.333 27.9598 153.333 37.7773V99.8848C154.302 103.578 154.823 107.521 154.823 111.651C154.823 114.042 154.155 118.723 153.778 119.503C168.325 119.762 180 140.302 180 165V180H56V165C56 160.965 56.3151 157.054 56.9033 153.333H37.7773C27.9598 153.333 20.0001 145.373 20 135.556V37.7773C20.0002 27.9599 27.9599 20.0002 37.7773 20H135.556Z" fill="#EDF5FF"/>
<path d="M135.556 20L135.556 14H135.556V20ZM153.333 37.7773L159.333 37.7773L159.333 37.7772L153.333 37.7773ZM153.333 99.8848H147.333C147.333 100.399 147.399 100.91 147.529 101.407L153.333 99.8848ZM154.823 111.651L160.823 111.651L160.823 111.651L154.823 111.651ZM153.778 119.503L148.375 116.895C147.486 118.737 147.596 120.905 148.668 122.648C149.74 124.39 151.626 125.466 153.671 125.502L153.778 119.503ZM180 180V186C183.314 186 186 183.314 186 180H180ZM56 180H50C50 183.314 52.6863 186 56 186V180ZM56.9033 153.333L62.8297 154.27C63.1038 152.536 62.6051 150.77 61.4652 149.436C60.3253 148.101 58.6583 147.333 56.9033 147.333V153.333ZM37.7773 153.333L37.7772 159.333H37.7773V153.333ZM20 135.556L14 135.556L14 135.556L20 135.556ZM20 37.7773L14 37.7772V37.7773H20ZM37.7773 20L37.7773 14L37.7772 14L37.7773 20ZM135.556 20L135.556 26C142.059 26 147.333 31.2734 147.333 37.7775L153.333 37.7773L159.333 37.7772C159.333 24.6462 148.687 14.0001 135.556 14L135.556 20ZM153.333 37.7773H147.333V99.8848H153.333H159.333V37.7773H153.333ZM153.333 99.8848L147.529 101.407C148.366 104.596 148.823 108.028 148.823 111.651L154.823 111.651L160.823 111.651C160.823 107.015 160.238 102.56 159.137 98.3623L153.333 99.8848ZM154.823 111.651H148.823C148.823 112.444 148.698 113.9 148.497 115.368C148.401 116.072 148.3 116.683 148.214 117.122C148.17 117.344 148.14 117.471 148.127 117.519C148.087 117.673 148.153 117.354 148.375 116.895L153.778 119.503L159.182 122.111C159.67 121.101 159.902 119.875 159.987 119.445C160.132 118.711 160.269 117.857 160.387 116.994C160.614 115.329 160.823 113.249 160.823 111.651H154.823ZM153.778 119.503L153.671 125.502C157.936 125.578 162.912 128.706 167.14 136.073C171.274 143.277 174 153.522 174 165H180H186C186 151.78 182.888 139.406 177.548 130.101C172.302 120.959 164.168 113.687 153.885 113.504L153.778 119.503ZM180 165H174V180H180H186V165H180ZM180 180V174H56V180V186H180V180ZM56 180H62V165H56H50V180H56ZM56 165H62C62 161.276 62.2909 157.678 62.8297 154.27L56.9033 153.333L50.9769 152.396C50.3393 156.43 50 160.654 50 165H56ZM56.9033 153.333V147.333H37.7773V153.333V159.333H56.9033V153.333ZM37.7773 153.333L37.7775 147.333C31.2734 147.333 26 142.059 26 135.556L20 135.556L14 135.556C14.0001 148.687 24.6462 159.333 37.7772 159.333L37.7773 153.333ZM20 135.556H26V37.7773H20H14V135.556H20ZM20 37.7773L26 37.7775C26.0002 31.2737 31.2737 26.0002 37.7775 26L37.7773 20L37.7772 14C24.6462 14.0003 14.0003 24.6462 14 37.7772L20 37.7773ZM37.7773 20V26H135.556V20V14H37.7773V20Z" fill="white" mask="url(#path-1-outside-1_1062_22656)"/>
<path d="M153.333 135.556C153.333 145.373 145.373 153.333 135.556 153.333H37.7778C27.96 153.333 20 145.373 20 135.556V37.7778C20 27.96 27.96 20 37.7778 20H135.556C145.373 20 153.333 27.96 153.333 37.7778V135.556Z" fill="#DEA286"/>
<path d="M144.442 135.556C144.442 140.462 140.46 144.444 135.553 144.444H37.7756C32.8689 144.444 28.8867 140.462 28.8867 135.556V37.7778C28.8867 32.8667 32.8689 28.8889 37.7756 28.8889H135.553C140.46 28.8889 144.442 32.8667 144.442 37.7778V135.556Z" fill="#5B7E45"/>
<path d="M175.734 161.653C175.783 160.751 175.819 159.821 175.819 158.891H175.826C175.826 157.834 175.783 156.784 175.706 155.742C174.691 141.524 166.794 128.92 154.852 120.381C154.852 120.381 154.563 120.134 153.943 119.74C153.879 119.698 153.802 119.648 153.717 119.599C154.077 119.275 154.823 114.181 154.823 111.652C154.823 89.17 139.422 72.2118 120.012 71.0705C119.315 71.0141 118.61 71 117.906 71C97.5236 71 80.9952 88.3598 80.9952 111.652C80.9952 113.772 80.967 118.465 80.9599 119.937V120.381C69.0181 128.948 61.1132 141.566 60.1057 155.791C60.0352 156.812 60 157.848 60 158.891C60 159.786 60.0282 160.666 60.0775 161.54C60.0845 161.603 60.0916 161.674 60.0916 161.73C60.6623 170.459 63.8749 171.259 69.0321 177.768H166.779C171.923 171.287 175.121 170.544 175.72 161.871C175.72 161.806 175.726 161.742 175.732 161.672L175.734 161.653Z" fill="#4B9AE8"/>
<path d="M124.938 110.877C124.501 114.244 120.781 119.704 116.92 119.733C113.059 119.761 108.98 114.223 108.79 110.595C108.599 106.973 111.312 104.494 117.075 104.458C122.901 104.423 125.374 107.509 124.938 110.877Z" fill="#EAC00F"/>
<path opacity="0.5" d="M124.937 110.877C124.5 114.237 120.787 119.704 116.919 119.733C116.314 119.733 115.701 119.606 115.095 119.352C118.251 118.056 120.956 113.716 121.33 110.877C121.717 107.882 119.801 105.114 115.271 104.557C115.834 104.501 116.433 104.465 117.067 104.458C122.901 104.423 125.367 107.516 124.93 110.877H124.937Z" fill="#AF8F0C"/>
<path d="M137.153 108.044C141.394 108.044 144.833 104.606 144.833 100.365C144.833 96.1237 141.394 92.6855 137.153 92.6855C132.912 92.6855 129.474 96.1237 129.474 100.365C129.474 104.606 132.912 108.044 137.153 108.044Z" fill="white"/>
<path d="M137.154 104.458C139.415 104.458 141.247 102.626 141.247 100.365C141.247 98.1044 139.415 96.2717 137.154 96.2717C134.893 96.2717 133.061 98.1044 133.061 100.365C133.061 102.626 134.893 104.458 137.154 104.458Z" fill="#040000"/>
<path d="M96.8962 108.045C101.137 108.045 104.576 104.606 104.576 100.365C104.576 96.124 101.137 92.6858 96.8962 92.6858C92.655 92.6858 89.2168 96.124 89.2168 100.365C89.2168 104.606 92.655 108.045 96.8962 108.045Z" fill="white"/>
<path d="M96.8961 104.458C99.1568 104.458 100.989 102.626 100.989 100.365C100.989 98.1044 99.1568 96.2717 96.8961 96.2717C94.6354 96.2717 92.8027 98.1044 92.8027 100.365C92.8027 102.626 94.6354 104.458 96.8961 104.458Z" fill="#040000"/>
<path d="M53.4002 59.5469C53.0447 59.9736 52.5824 60.6136 52.5824 61.3603C52.5824 62.9958 53.7913 63.7069 55.3558 63.7069H67.2224C68.5736 63.7069 69.7824 62.9958 69.7824 61.3603C69.7824 59.7247 68.578 59.0136 67.0091 59.0136H60.5069C63.5247 55.2136 69.0358 50.3114 69.0358 45.3691C69.0358 40.858 65.5158 37.978 61.1469 37.978C56.778 37.978 52.7958 41.5647 52.7958 46.0447C52.7958 47.4269 53.6847 48.6358 55.3913 48.6358C58.8047 48.6358 56.8491 42.8803 60.9336 42.8803C62.3913 42.8803 63.4936 44.1603 63.4936 45.618C63.4936 46.898 62.8891 48.0002 62.2491 48.9247C59.5469 52.8314 56.3513 56.0314 53.4002 59.5469ZM47.5913 83.6936H42.4402V78.538C42.4402 77.258 41.6224 76.4091 40.3069 76.4091C38.9958 76.4091 38.178 77.2625 38.178 78.538V83.6936H33.0269C31.7113 83.6936 30.8936 84.5469 30.8936 85.8225C30.8936 87.1025 31.7113 87.9558 33.0269 87.9558H38.178V93.1069C38.178 94.3869 38.9958 95.2358 40.3069 95.2358C41.6224 95.2358 42.4402 94.3869 42.4402 93.1069V87.9558H47.5913C48.9069 87.9558 49.7247 87.1025 49.7247 85.8225C49.7247 84.5469 48.9069 83.6936 47.5913 83.6936ZM67.0091 90.1247H60.5024C63.5247 86.3247 69.0313 81.4225 69.0313 76.4803C69.0313 71.9691 65.5113 69.0891 61.1424 69.0891C56.7736 69.0891 52.7913 72.6803 52.7913 77.1558C52.7913 78.538 53.6802 79.7469 55.3824 79.7469C58.7958 79.7469 56.8402 73.9914 60.9291 73.9914C62.3869 73.9914 63.4891 75.2714 63.4891 76.7291C63.4891 78.0091 62.8847 79.1114 62.2447 80.0358C59.5424 83.9425 56.3469 87.1425 53.3958 90.6625C53.0402 91.0891 52.578 91.7291 52.578 92.4758C52.578 94.1114 53.7869 94.8225 55.3513 94.8225H67.218C68.5691 94.8225 69.778 94.1114 69.778 92.4758C69.778 90.8358 68.5736 90.1247 67.0091 90.1247ZM70.7424 104.311H33.7024C32.4758 104.311 31.4802 103.316 31.4802 102.089C31.4802 100.862 32.4758 99.8669 33.7024 99.8669H70.738C71.9647 99.8669 72.9602 100.862 72.9602 102.089C72.9647 103.316 71.9691 104.311 70.7424 104.311Z" fill="white"/>
<path d="M180 180V165C180 140.145 168.176 119.5 153.5 119.5C153.5 119.5 143 137 118 142C96 136.5 82.5714 120 82.5714 120C67.8996 120 56 140.145 56 165V180H180Z" fill="#D7E8FC"/>
<path d="M152 121C113 139 85 122 83.5 121.5L80.5 134L114 145L150.5 143C151.5 140.167 154.4 131.4 152 121Z" fill="#336EA8"/>
<path d="M123.5 148C123.5 148 142.243 152.092 152.5 155.5C153.815 155.934 149.055 141 149.055 141H87.802C87.802 141 86.7217 150.134 83.5 155.5C99.6083 150.388 118.432 146.833 118.432 146.833" fill="#97B5DA"/>
<path d="M83 120.5C86.5167 124.018 113 141 113 141C113 141 92.8699 146.601 84.0316 154.738C80.8199 157.697 75.6289 155.08 76.021 150.735C76.7741 142.349 77.5708 132.652 77.4214 128.767C77.353 126.883 81.3195 118.809 83 120.5Z" fill="#EDF5FF"/>
<path d="M151.603 121.251C148.087 124.77 122 141 122 141C122 141 142.13 146.601 150.968 154.738C154.18 157.697 159.371 155.08 158.979 150.735C158.226 142.349 157.429 132.652 157.579 128.767C157.647 126.883 153.284 119.561 151.603 121.251Z" fill="#EDF5FF"/>
</svg>
