<svg width="200" height="200" viewBox="0 0 200 200" fill="none" xmlns="http://www.w3.org/2000/svg">
<mask id="path-1-outside-1_1062_23172" maskUnits="userSpaceOnUse" x="17.8066" y="6.99988" width="167" height="185" fill="black">
<rect fill="white" x="17.8066" y="6.99988" width="167" height="185"/>
<path d="M77.3022 20.6272C79.7206 14.4284 87.0142 12.0935 92.3969 15.7161C95.7903 18.0106 100.198 18.0106 103.591 15.7161C109.013 12.0935 116.268 14.4686 118.686 20.6272L121.377 28.3968L121.585 29.0003H121.883L124.456 36.7688H132.234C135.13 36.769 136.636 40.25 134.589 42.3157C132.086 44.8875 129.092 46.99 125.758 48.4827C131.475 55.5631 134.944 64.985 134.944 75.6516C134.944 78.1805 134.198 83.2733 133.838 83.5989C133.923 83.6482 134.001 83.6973 134.064 83.7395C134.215 83.8356 134.346 83.9232 134.458 84.0003H141.138C142.506 84.0003 143.421 85.0484 143.523 86.2005L151.349 81.6272V74.8186C151.349 72.8398 152.126 71.0405 153.379 69.7288C144.948 67.5041 138.693 59.7974 138.693 50.6878C138.693 39.8513 147.544 31.0003 158.38 31.0003C169.217 31.0003 178.068 39.8512 178.068 50.6878C178.068 59.7974 171.813 67.5041 163.381 69.7288C164.635 71.0405 165.412 72.8398 165.412 74.8186V75.6224C168.491 77.0829 170.693 80.9541 170.693 85.5003C170.693 85.9536 170.668 86.4 170.625 86.8382C170.837 88.9454 170.919 91.1776 170.789 93.4661C170.785 93.611 170.771 93.7585 170.763 93.9095C170.745 94.2018 170.716 94.4969 170.694 94.7952C170.655 95.2725 170.592 95.7517 170.518 96.2327C170.394 97.1839 170.221 98.1472 169.989 99.0999C169.579 100.873 169.006 102.632 168.224 104.356C167.508 105.955 166.616 107.507 165.513 108.998C164.141 110.887 162.434 112.691 160.341 114.33C159.25 115.197 158.033 116.013 156.708 116.79C156.555 116.88 156.402 116.967 156.248 117.053C156.439 118.58 156.534 120.069 156.534 121.5C156.534 121.558 156.532 121.616 156.532 121.674C156.811 132.433 153.053 143.184 145.007 151.875C144.678 152.274 144.354 152.651 144.034 153C138.534 159 130.034 163 130.034 163C130.027 163.003 129.764 163.117 129.273 163.316C126.216 164.795 122.894 166.087 119.305 167.163V178.094L127.809 176.34C129.084 176.34 130.253 176.861 131.106 177.706C131.944 178.552 132.473 179.715 132.473 181.004C132.473 183.569 130.373 185.668 127.809 185.668H115.543C113.599 185.668 112.013 184.083 112.013 182.146V168.973C109.971 169.38 107.856 169.724 105.668 170C105.667 169.993 105.666 169.985 105.665 169.978L105.534 170H89.4653L89.4633 169.991C89.1419 169.95 88.8224 169.906 88.5043 169.863C86.8124 169.667 84.2171 169.309 82.8735 169.12V182.146C82.8734 184.083 81.2875 185.668 79.35 185.668H67.0844C64.5199 185.668 62.4203 183.569 62.4203 181.004C62.4204 179.722 62.949 178.553 63.7944 177.707C64.6398 176.862 65.8021 176.34 67.0912 176.34L75.5952 178.102V167.101C49.6175 159.278 38.5733 140.336 39.7817 121.087C33.187 117.66 28.6951 111.805 25.77 106.483C22.6363 100.788 27.493 93.9885 35.3471 93.0335L52.3432 90.9729C52.928 90.2815 53.5315 89.5995 54.1547 88.929L53.3373 88.2034C51.7018 86.7089 52.7299 84.0003 54.9262 84.0003H61.0805V83.9368C61.0876 82.464 61.1157 77.7722 61.1157 75.6516C61.1157 64.982 64.5858 55.5584 70.3041 48.4768C66.976 46.9845 63.986 44.8842 61.4858 42.3157C59.4396 40.2499 60.9075 36.7688 63.8422 36.7688H71.6108L74.184 29.0003H74.4418L74.6498 28.3968L77.3022 20.6272Z"/>
</mask>
<path d="M77.3022 20.6272C79.7206 14.4284 87.0142 12.0935 92.3969 15.7161C95.7903 18.0106 100.198 18.0106 103.591 15.7161C109.013 12.0935 116.268 14.4686 118.686 20.6272L121.377 28.3968L121.585 29.0003H121.883L124.456 36.7688H132.234C135.13 36.769 136.636 40.25 134.589 42.3157C132.086 44.8875 129.092 46.99 125.758 48.4827C131.475 55.5631 134.944 64.985 134.944 75.6516C134.944 78.1805 134.198 83.2733 133.838 83.5989C133.923 83.6482 134.001 83.6973 134.064 83.7395C134.215 83.8356 134.346 83.9232 134.458 84.0003H141.138C142.506 84.0003 143.421 85.0484 143.523 86.2005L151.349 81.6272V74.8186C151.349 72.8398 152.126 71.0405 153.379 69.7288C144.948 67.5041 138.693 59.7974 138.693 50.6878C138.693 39.8513 147.544 31.0003 158.38 31.0003C169.217 31.0003 178.068 39.8512 178.068 50.6878C178.068 59.7974 171.813 67.5041 163.381 69.7288C164.635 71.0405 165.412 72.8398 165.412 74.8186V75.6224C168.491 77.0829 170.693 80.9541 170.693 85.5003C170.693 85.9536 170.668 86.4 170.625 86.8382C170.837 88.9454 170.919 91.1776 170.789 93.4661C170.785 93.611 170.771 93.7585 170.763 93.9095C170.745 94.2018 170.716 94.4969 170.694 94.7952C170.655 95.2725 170.592 95.7517 170.518 96.2327C170.394 97.1839 170.221 98.1472 169.989 99.0999C169.579 100.873 169.006 102.632 168.224 104.356C167.508 105.955 166.616 107.507 165.513 108.998C164.141 110.887 162.434 112.691 160.341 114.33C159.25 115.197 158.033 116.013 156.708 116.79C156.555 116.88 156.402 116.967 156.248 117.053C156.439 118.58 156.534 120.069 156.534 121.5C156.534 121.558 156.532 121.616 156.532 121.674C156.811 132.433 153.053 143.184 145.007 151.875C144.678 152.274 144.354 152.651 144.034 153C138.534 159 130.034 163 130.034 163C130.027 163.003 129.764 163.117 129.273 163.316C126.216 164.795 122.894 166.087 119.305 167.163V178.094L127.809 176.34C129.084 176.34 130.253 176.861 131.106 177.706C131.944 178.552 132.473 179.715 132.473 181.004C132.473 183.569 130.373 185.668 127.809 185.668H115.543C113.599 185.668 112.013 184.083 112.013 182.146V168.973C109.971 169.38 107.856 169.724 105.668 170C105.667 169.993 105.666 169.985 105.665 169.978L105.534 170H89.4653L89.4633 169.991C89.1419 169.95 88.8224 169.906 88.5043 169.863C86.8124 169.667 84.2171 169.309 82.8735 169.12V182.146C82.8734 184.083 81.2875 185.668 79.35 185.668H67.0844C64.5199 185.668 62.4203 183.569 62.4203 181.004C62.4204 179.722 62.949 178.553 63.7944 177.707C64.6398 176.862 65.8021 176.34 67.0912 176.34L75.5952 178.102V167.101C49.6175 159.278 38.5733 140.336 39.7817 121.087C33.187 117.66 28.6951 111.805 25.77 106.483C22.6363 100.788 27.493 93.9885 35.3471 93.0335L52.3432 90.9729C52.928 90.2815 53.5315 89.5995 54.1547 88.929L53.3373 88.2034C51.7018 86.7089 52.7299 84.0003 54.9262 84.0003H61.0805V83.9368C61.0876 82.464 61.1157 77.7722 61.1157 75.6516C61.1157 64.982 64.5858 55.5584 70.3041 48.4768C66.976 46.9845 63.986 44.8842 61.4858 42.3157C59.4396 40.2499 60.9075 36.7688 63.8422 36.7688H71.6108L74.184 29.0003H74.4418L74.6498 28.3968L77.3022 20.6272Z" fill="#276286"/>
<path d="M77.3022 20.6272L71.7125 18.4465C71.6813 18.5266 71.6517 18.6074 71.6239 18.6888L77.3022 20.6272ZM92.3969 15.7161L95.7577 10.7457L95.7469 10.7384L92.3969 15.7161ZM103.591 15.7161L100.258 10.7273C100.249 10.7334 100.24 10.7395 100.23 10.7457L103.591 15.7161ZM118.686 20.6272L124.355 18.6633C124.329 18.5863 124.301 18.5099 124.271 18.4341L118.686 20.6272ZM121.377 28.3968L127.05 26.4417L127.047 26.4328L121.377 28.3968ZM121.585 29.0003L115.913 30.9554C116.747 33.3758 119.025 35.0003 121.585 35.0003V29.0003ZM121.883 29.0003L127.579 27.1137C126.766 24.6581 124.47 23.0003 121.883 23.0003V29.0003ZM124.456 36.7688L118.761 38.6555C119.574 41.111 121.87 42.7688 124.456 42.7688V36.7688ZM132.234 36.7688L132.234 30.7688H132.234V36.7688ZM134.589 42.3157L130.327 38.093C130.314 38.1055 130.302 38.118 130.29 38.1305L134.589 42.3157ZM125.758 48.4827L123.306 43.0067C121.607 43.7675 120.357 45.2739 119.923 47.0842C119.49 48.8945 119.921 50.8037 121.09 52.2521L125.758 48.4827ZM134.944 75.6516L140.944 75.6516L140.944 75.6516L134.944 75.6516ZM133.838 83.5989L129.81 79.1527C128.392 80.4368 127.672 82.3197 127.871 84.2219C128.069 86.124 129.163 87.8176 130.815 88.7814L133.838 83.5989ZM134.064 83.7395L130.736 88.7318C130.771 88.7554 130.807 88.7786 130.843 88.8015L134.064 83.7395ZM134.458 84.0003L131.063 88.9468C132.062 89.633 133.246 90.0003 134.458 90.0003V84.0003ZM143.523 86.2005L137.546 86.7306C137.728 88.7772 138.944 90.5886 140.77 91.5314C142.595 92.4743 144.776 92.4175 146.55 91.3809L143.523 86.2005ZM151.349 81.6272L154.376 86.8076C156.217 85.7318 157.349 83.7596 157.349 81.6272H151.349ZM151.349 74.8186L145.349 74.8185V74.8186H151.349ZM153.379 69.7288L157.717 73.8746C159.184 72.3395 159.731 70.1432 159.154 68.0995C158.577 66.0558 156.963 64.4691 154.91 63.9274L153.379 69.7288ZM138.693 50.6878L132.693 50.6878L132.693 50.6879L138.693 50.6878ZM158.38 31.0003L158.38 25.0003L158.38 25.0003L158.38 31.0003ZM178.068 50.6878L184.068 50.6879V50.6878H178.068ZM163.381 69.7288L161.851 63.9274C159.797 64.4691 158.183 66.0558 157.607 68.0995C157.03 70.1432 157.577 72.3395 159.044 73.8746L163.381 69.7288ZM165.412 74.8186L171.412 74.8186L171.412 74.8185L165.412 74.8186ZM165.412 75.6224H159.412C159.412 77.9401 160.746 80.0505 162.841 81.0436L165.412 75.6224ZM170.693 85.5003L176.693 85.5004V85.5003H170.693ZM170.625 86.8382L164.653 86.2593C164.615 86.6511 164.616 87.0457 164.655 87.4374L170.625 86.8382ZM170.789 93.4661L164.799 93.1264C164.796 93.1783 164.794 93.2304 164.792 93.2824L170.789 93.4661ZM170.763 93.9095L176.751 94.2891C176.752 94.2692 176.754 94.2492 176.755 94.2292L170.763 93.9095ZM170.694 94.7952L176.674 95.2786C176.675 95.2655 176.676 95.2524 176.677 95.2394L170.694 94.7952ZM170.518 96.2327L164.587 95.3252C164.58 95.3685 164.574 95.4118 164.569 95.4553L170.518 96.2327ZM169.989 99.0999L164.159 97.6814C164.153 97.7041 164.148 97.7268 164.143 97.7496L169.989 99.0999ZM168.224 104.356L162.76 101.877C162.756 101.886 162.752 101.895 162.748 101.905L168.224 104.356ZM165.513 108.998L160.689 105.431C160.679 105.445 160.669 105.458 160.659 105.471L165.513 108.998ZM160.341 114.33L156.642 109.607C156.631 109.615 156.62 109.624 156.609 109.632L160.341 114.33ZM156.708 116.79L159.736 121.97L159.744 121.966L156.708 116.79ZM156.248 117.053L153.301 111.827C151.18 113.023 149.993 115.382 150.295 117.798L156.248 117.053ZM156.534 121.5L162.534 121.5V121.5H156.534ZM156.532 121.674L150.532 121.64C150.531 121.704 150.532 121.767 150.534 121.83L156.532 121.674ZM145.007 151.875L140.604 147.799C140.527 147.883 140.452 147.969 140.379 148.057L145.007 151.875ZM144.034 153L148.457 157.055L148.457 157.055L144.034 153ZM130.034 163L132.437 168.498C132.488 168.476 132.538 168.453 132.588 168.429L130.034 163ZM129.273 163.316L127.023 157.753C126.9 157.803 126.779 157.857 126.659 157.915L129.273 163.316ZM119.305 167.163L117.581 161.416C115.043 162.178 113.305 164.514 113.305 167.163H119.305ZM119.305 178.094H113.305C113.305 179.898 114.117 181.606 115.515 182.745C116.914 183.885 118.75 184.335 120.517 183.97L119.305 178.094ZM127.809 176.34L127.809 170.34C127.402 170.34 126.996 170.382 126.597 170.464L127.809 176.34ZM131.106 177.706L135.366 173.481C135.354 173.47 135.342 173.458 135.33 173.446L131.106 177.706ZM132.473 181.004L138.473 181.004V181.004H132.473ZM127.809 185.668L127.809 191.668L127.809 191.668L127.809 185.668ZM112.013 182.146L106.013 182.146L106.013 182.147L112.013 182.146ZM112.013 168.973H118.013C118.013 167.176 117.208 165.474 115.819 164.334C114.429 163.194 112.603 162.737 110.84 163.089L112.013 168.973ZM105.668 170L99.7211 170.793C100.157 174.062 103.148 176.366 106.419 175.953L105.668 170ZM105.665 169.978L111.613 169.186C111.398 167.571 110.536 166.113 109.224 165.147C107.912 164.181 106.264 163.789 104.658 164.063L105.665 169.978ZM105.534 170V176C105.871 176 106.208 175.972 106.541 175.915L105.534 170ZM89.4653 170L83.5818 171.177C84.1427 173.982 86.6052 176 89.4653 176V170ZM89.4633 169.991L95.3468 168.814C94.8411 166.285 92.7764 164.363 90.2184 164.038L89.4633 169.991ZM88.5043 169.863L89.3181 163.918C89.2763 163.912 89.2344 163.907 89.1924 163.902L88.5043 169.863ZM82.8735 169.12L83.7056 163.178C81.9859 162.938 80.2463 163.454 78.936 164.593C77.6258 165.733 76.8735 167.384 76.8735 169.12H82.8735ZM82.8735 182.146L88.8735 182.146V182.146H82.8735ZM67.0844 185.668L67.0843 191.668H67.0844V185.668ZM62.4203 181.004L56.4203 181.004V181.004H62.4203ZM63.7944 177.707L59.5517 173.465L59.5516 173.465L63.7944 177.707ZM67.0912 176.34L68.3084 170.465C67.9079 170.382 67.4999 170.34 67.0909 170.34L67.0912 176.34ZM75.5952 178.102L74.378 183.977C76.1453 184.343 77.9835 183.894 79.3831 182.755C80.7827 181.616 81.5952 179.907 81.5952 178.102H75.5952ZM75.5952 167.101H81.5952C81.5952 164.454 79.8602 162.119 77.3253 161.356L75.5952 167.101ZM39.7817 121.087L45.7699 121.463C45.9187 119.093 44.6556 116.858 42.5485 115.763L39.7817 121.087ZM25.77 106.483L31.0282 103.593L31.0266 103.59L25.77 106.483ZM35.3471 93.0335L34.625 87.0771L34.6229 87.0774L35.3471 93.0335ZM52.3432 90.9729L53.0653 96.9293C54.5683 96.7471 55.9467 96.0035 56.9244 94.8476L52.3432 90.9729ZM54.1547 88.929L58.5495 93.0138C59.6491 91.8308 60.2253 90.2545 60.1478 88.6412C60.0704 87.028 59.3458 85.5141 58.1379 84.4419L54.1547 88.929ZM53.3373 88.2034L49.2899 92.6326C49.3112 92.6521 49.3326 92.6714 49.3542 92.6905L53.3373 88.2034ZM61.0805 84.0003V90.0003C64.3942 90.0003 67.0805 87.314 67.0805 84.0003H61.0805ZM61.0805 83.9368L55.0806 83.9081C55.0805 83.9177 55.0805 83.9272 55.0805 83.9368L61.0805 83.9368ZM61.1157 75.6516L55.1157 75.6516V75.6516H61.1157ZM70.3041 48.4768L74.9722 52.2463C76.1414 50.7984 76.5726 48.8898 76.1392 47.0799C75.7059 45.2699 74.4573 43.7635 72.7591 43.0021L70.3041 48.4768ZM61.4858 42.3157L65.7852 38.1306C65.773 38.1181 65.7609 38.1057 65.7486 38.0934L61.4858 42.3157ZM71.6108 36.7688V42.7688C74.1975 42.7688 76.4931 41.111 77.3064 38.6555L71.6108 36.7688ZM74.184 29.0003V23.0003C71.5973 23.0003 69.3017 24.6581 68.4883 27.1137L74.184 29.0003ZM74.4418 29.0003V35.0003C77.002 35.0003 79.2801 33.3758 80.1144 30.9554L74.4418 29.0003ZM74.6498 28.3968L80.3224 30.3519C80.3243 30.3463 80.3262 30.3408 80.3281 30.3352L74.6498 28.3968ZM77.3022 20.6272L82.8919 22.808C83.9593 20.0719 86.9557 19.2864 89.0469 20.6938L92.3969 15.7161L95.7469 10.7384C87.0727 4.90065 75.4819 8.78482 71.7125 18.4465L77.3022 20.6272ZM92.3969 15.7161L89.0361 20.6865C94.4597 24.3538 101.528 24.3538 106.952 20.6865L103.591 15.7161L100.23 10.7457C98.8673 11.6674 97.1208 11.6674 95.7577 10.7457L92.3969 15.7161ZM103.591 15.7161L106.925 20.7049C109.042 19.2898 112.029 20.0903 113.101 22.8203L118.686 20.6272L124.271 18.4341C120.506 8.84697 108.983 4.89714 100.258 10.7273L103.591 15.7161ZM118.686 20.6272L113.016 22.5912L115.708 30.3607L121.377 28.3968L127.047 26.4328L124.355 18.6633L118.686 20.6272ZM121.377 28.3968L115.705 30.3519L115.913 30.9554L121.585 29.0003L127.258 27.0452L127.05 26.4417L121.377 28.3968ZM121.585 29.0003V35.0003H121.883V29.0003V23.0003H121.585V29.0003ZM121.883 29.0003L116.188 30.8869L118.761 38.6555L124.456 36.7688L130.152 34.8822L127.579 27.1137L121.883 29.0003ZM124.456 36.7688V42.7688H132.234V36.7688V30.7688H124.456V36.7688ZM132.234 36.7688L132.234 42.7688C129.988 42.7687 128.488 39.9495 130.327 38.093L134.589 42.3157L138.852 46.5384C144.784 40.5505 140.272 30.7692 132.234 30.7688L132.234 36.7688ZM134.589 42.3157L130.29 38.1305C128.313 40.1611 125.945 41.8248 123.306 43.0067L125.758 48.4827L128.21 53.9587C132.238 52.1552 135.858 49.6139 138.889 46.5009L134.589 42.3157ZM125.758 48.4827L121.09 52.2521C125.91 58.2215 128.944 66.2995 128.944 75.6517L134.944 75.6516L140.944 75.6516C140.944 63.6705 137.041 52.9048 130.426 44.7133L125.758 48.4827ZM134.944 75.6516H128.944C128.944 76.4997 128.802 78.0824 128.585 79.608C128.481 80.3442 128.376 80.9415 128.296 81.3193C128.252 81.5227 128.238 81.5556 128.262 81.4782C128.272 81.4471 128.328 81.2661 128.442 81.014C128.5 80.8855 128.608 80.6606 128.775 80.3914C128.919 80.1581 129.249 79.661 129.81 79.1527L133.838 83.5989L137.867 88.0452C138.868 87.1378 139.307 86.1102 139.378 85.9536C139.542 85.5899 139.651 85.2636 139.716 85.0572C139.85 84.629 139.953 84.1908 140.03 83.8315C140.19 83.0838 140.339 82.1888 140.466 81.295C140.712 79.5606 140.944 77.3324 140.944 75.6516H134.944ZM133.838 83.5989L130.815 88.7814C130.8 88.7731 130.788 88.7657 130.777 88.7588C130.767 88.7521 130.753 88.7434 130.736 88.7318L134.064 83.7395L137.392 78.7472C137.235 78.6424 137.056 78.5294 136.862 78.4165L133.838 83.5989ZM134.064 83.7395L130.843 88.8015C130.929 88.8564 131.002 88.905 131.063 88.9468L134.458 84.0003L137.854 79.0538C137.691 78.9413 137.501 78.8149 137.285 78.6776L134.064 83.7395ZM134.458 84.0003V90.0003H141.138V84.0003V78.0003H134.458V84.0003ZM141.138 84.0003V90.0003C139.011 90.0003 137.683 88.2734 137.546 86.7306L143.523 86.2005L149.499 85.6704C149.158 81.8233 146.001 78.0003 141.138 78.0003V84.0003ZM143.523 86.2005L146.55 91.3809L154.376 86.8076L151.349 81.6272L148.322 76.4469L140.496 81.0201L143.523 86.2005ZM151.349 81.6272H157.349V74.8186H151.349H145.349V81.6272H151.349ZM151.349 74.8186L157.349 74.8187C157.349 74.4311 157.497 74.1041 157.717 73.8746L153.379 69.7288L149.042 65.583C146.754 67.9769 145.349 71.2486 145.349 74.8185L151.349 74.8186ZM153.379 69.7288L154.91 63.9274C149.036 62.3774 144.693 56.9945 144.693 50.6877L138.693 50.6878L132.693 50.6879C132.693 62.6002 140.86 72.6309 151.849 75.5302L153.379 69.7288ZM138.693 50.6878H144.693C144.693 43.165 150.857 37.0003 158.38 37.0003L158.38 31.0003L158.38 25.0003C144.23 25.0004 132.693 36.5375 132.693 50.6878H138.693ZM158.38 31.0003V37.0003C165.903 37.0003 172.068 43.1649 172.068 50.6878H178.068H184.068C184.068 36.5375 172.531 25.0003 158.38 25.0003V31.0003ZM178.068 50.6878L172.068 50.6877C172.068 56.9945 167.725 62.3774 161.851 63.9274L163.381 69.7288L164.912 75.5302C175.9 72.6309 184.068 62.6002 184.068 50.6879L178.068 50.6878ZM163.381 69.7288L159.044 73.8746C159.263 74.1041 159.412 74.4311 159.412 74.8187L165.412 74.8186L171.412 74.8185C171.411 71.2486 170.007 67.9769 167.719 65.583L163.381 69.7288ZM165.412 74.8186H159.412V75.6224H165.412H171.412V74.8186H165.412ZM165.412 75.6224L162.841 81.0436C163.032 81.1343 163.493 81.4557 163.937 82.2723C164.371 83.069 164.693 84.1805 164.693 85.5003H170.693H176.693C176.693 79.289 173.688 72.9068 167.982 70.2011L165.412 75.6224ZM170.693 85.5003L164.693 85.5002C164.693 85.7344 164.68 85.9858 164.653 86.2593L170.625 86.8382L176.597 87.4171C176.656 86.8141 176.693 86.1729 176.693 85.5004L170.693 85.5003ZM170.625 86.8382L164.655 87.4374C164.841 89.2833 164.908 91.1979 164.799 93.1264L170.789 93.4661L176.78 93.8058C176.93 91.1572 176.833 88.6074 176.595 86.2389L170.625 86.8382ZM170.789 93.4661L164.792 93.2824C164.794 93.2361 164.796 93.2153 164.792 93.2778C164.791 93.2921 164.79 93.3061 164.788 93.3269C164.787 93.3459 164.785 93.37 164.783 93.3954C164.78 93.4462 164.776 93.5138 164.772 93.5897L170.763 93.9095L176.755 94.2292C176.755 94.2297 176.755 94.2222 176.757 94.1983C176.759 94.1562 176.759 94.1605 176.764 94.0932C176.77 94.008 176.781 93.841 176.787 93.6498L170.789 93.4661ZM170.763 93.9095L164.775 93.5298C164.756 93.8352 164.75 93.8149 164.71 94.351L170.694 94.7952L176.677 95.2394C176.682 95.1789 176.733 94.5684 176.751 94.2891L170.763 93.9095ZM170.694 94.7952L164.713 94.3118C164.691 94.5905 164.65 94.9144 164.587 95.3252L170.518 96.2327L176.449 97.1402C176.533 96.5889 176.62 95.9545 176.674 95.2786L170.694 94.7952ZM170.518 96.2327L164.569 95.4553C164.469 96.2146 164.334 96.9623 164.159 97.6814L169.989 99.0999L175.819 100.518C176.107 99.3322 176.318 98.1531 176.467 97.0101L170.518 96.2327ZM169.989 99.0999L164.143 97.7496C163.814 99.1731 163.362 100.55 162.76 101.877L168.224 104.356L173.688 106.834C174.65 104.714 175.344 102.574 175.835 100.45L169.989 99.0999ZM168.224 104.356L162.748 101.905C162.202 103.123 161.526 104.299 160.689 105.431L165.513 108.998L170.338 112.565C171.706 110.714 172.814 108.787 173.701 106.807L168.224 104.356ZM165.513 108.998L160.659 105.471C159.612 106.912 158.294 108.313 156.642 109.607L160.341 114.33L164.041 119.054C166.575 117.07 168.669 114.862 170.367 112.525L165.513 108.998ZM160.341 114.33L156.609 109.632C155.779 110.292 154.804 110.952 153.673 111.615L156.708 116.79L159.744 121.966C161.262 121.075 162.721 120.103 164.073 119.028L160.341 114.33ZM156.708 116.79L153.681 111.61C153.573 111.673 153.457 111.739 153.301 111.827L156.248 117.053L159.196 122.279C159.346 122.194 159.538 122.086 159.736 121.97L156.708 116.79ZM156.248 117.053L150.295 117.798C150.457 119.09 150.534 120.33 150.534 121.5H156.534H162.534C162.534 119.807 162.422 118.069 162.202 116.308L156.248 117.053ZM156.534 121.5L150.534 121.5C150.534 121.478 150.534 121.466 150.533 121.494C150.533 121.503 150.533 121.527 150.533 121.549C150.532 121.572 150.532 121.604 150.532 121.64L156.532 121.674L162.532 121.708C162.532 121.716 162.531 121.723 162.532 121.68C162.533 121.65 162.534 121.58 162.534 121.5L156.534 121.5ZM156.532 121.674L150.534 121.83C150.773 131.052 147.568 140.277 140.604 147.799L145.007 151.875L149.41 155.951C158.538 146.09 162.849 133.813 162.53 121.518L156.532 121.674ZM145.007 151.875L140.379 148.057C140.099 148.396 139.845 148.691 139.611 148.946L144.034 153L148.457 157.055C148.864 156.611 149.257 156.152 149.635 155.694L145.007 151.875ZM144.034 153L139.611 148.946C137.386 151.372 134.402 153.538 131.801 155.156C130.532 155.946 129.419 156.565 128.634 156.982C128.242 157.19 127.935 157.346 127.735 157.446C127.635 157.496 127.562 157.531 127.518 157.553C127.496 157.563 127.482 157.57 127.475 157.573C127.472 157.575 127.47 157.575 127.471 157.575C127.471 157.575 127.472 157.575 127.473 157.574C127.474 157.574 127.475 157.573 127.476 157.573C127.476 157.573 127.477 157.572 127.477 157.572C127.478 157.572 127.479 157.571 130.034 163C132.588 168.429 132.589 168.429 132.59 168.428C132.591 168.428 132.592 168.428 132.592 168.427C132.594 168.427 132.595 168.426 132.597 168.425C132.6 168.424 132.604 168.422 132.609 168.42C132.618 168.415 132.628 168.41 132.641 168.404C132.667 168.392 132.701 168.375 132.743 168.355C132.827 168.315 132.941 168.259 133.084 168.188C133.37 168.045 133.77 167.842 134.262 167.581C135.242 167.06 136.598 166.305 138.141 165.345C141.165 163.463 145.181 160.628 148.457 157.055L144.034 153ZM130.034 163L127.631 157.503C127.683 157.48 127.471 157.572 127.023 157.753L129.273 163.316L131.523 168.878C132.056 168.662 132.371 168.527 132.437 168.498L130.034 163ZM129.273 163.316L126.659 157.915C123.904 159.248 120.881 160.426 117.581 161.416L119.305 167.163L121.029 172.91C124.908 171.747 128.528 170.342 131.886 168.717L129.273 163.316ZM119.305 167.163H113.305V178.094H119.305H125.305V167.163H119.305ZM119.305 178.094L120.517 183.97L129.021 182.216L127.809 176.34L126.597 170.464L118.093 172.218L119.305 178.094ZM127.809 176.34L127.809 182.34C127.423 182.34 127.095 182.179 126.881 181.967L131.106 177.706L135.33 173.446C133.411 171.543 130.745 170.34 127.809 170.34L127.809 176.34ZM131.106 177.706L126.846 181.931C126.639 181.723 126.473 181.394 126.473 181.004H132.473H138.473C138.473 178.036 137.249 175.38 135.366 173.481L131.106 177.706ZM132.473 181.004L126.473 181.004C126.473 180.255 127.06 179.668 127.809 179.668L127.809 185.668L127.809 191.668C133.687 191.668 138.473 186.882 138.473 181.004L132.473 181.004ZM127.809 185.668V179.668H115.543V185.668V191.668H127.809V185.668ZM115.543 185.668V179.668C116.904 179.668 118.013 180.76 118.013 182.145L112.013 182.146L106.013 182.147C106.014 187.406 110.294 191.668 115.543 191.668V185.668ZM112.013 182.146H118.013V168.973H112.013H106.013V182.146H112.013ZM112.013 168.973L110.84 163.089C108.941 163.467 106.967 163.789 104.918 164.047L105.668 170L106.419 175.953C108.746 175.66 111.001 175.293 113.186 174.857L112.013 168.973ZM105.668 170L111.616 169.207C111.617 169.213 111.617 169.218 111.617 169.22C111.618 169.222 111.618 169.223 111.618 169.221C111.617 169.22 111.617 169.215 111.616 169.21C111.615 169.204 111.614 169.196 111.613 169.186L105.665 169.978L99.7179 170.769C99.7171 170.763 99.7165 170.759 99.7163 170.757C99.7161 170.756 99.716 170.754 99.7163 170.757C99.7165 170.759 99.7171 170.764 99.7178 170.769C99.7186 170.775 99.7197 170.783 99.7211 170.793L105.668 170ZM105.665 169.978L104.658 164.063L104.526 164.086L105.534 170L106.541 175.915L106.673 175.893L105.665 169.978ZM105.534 170V164H89.4653V170V176H105.534V170ZM89.4653 170L95.3488 168.824L95.3468 168.814L89.4633 169.991L83.5798 171.167L83.5818 171.177L89.4653 170ZM89.4633 169.991L90.2184 164.038C89.9304 164.002 89.6387 163.962 89.3181 163.918L88.5043 169.863L87.6905 175.807C88.0061 175.85 88.3534 175.898 88.7082 175.943L89.4633 169.991ZM88.5043 169.863L89.1924 163.902C87.5845 163.717 85.0606 163.368 83.7056 163.178L82.8735 169.12L82.0413 175.062C83.3736 175.249 86.0404 175.618 87.8162 175.823L88.5043 169.863ZM82.8735 169.12H76.8735V182.146H82.8735H88.8735V169.12H82.8735ZM82.8735 182.146L76.8735 182.146C76.8735 180.768 77.9756 179.668 79.35 179.668V185.668V191.668C84.5993 191.668 88.8732 187.399 88.8735 182.146L82.8735 182.146ZM79.35 185.668V179.668H67.0844V185.668V191.668H79.35V185.668ZM67.0844 185.668L67.0845 179.668C67.8336 179.668 68.4203 180.255 68.4203 181.004H62.4203H56.4203C56.4203 186.882 61.2063 191.668 67.0843 191.668L67.0844 185.668ZM62.4203 181.004L68.4203 181.004C68.4203 181.399 68.2547 181.732 68.0371 181.95L63.7944 177.707L59.5516 173.465C57.6433 175.373 56.4204 178.045 56.4203 181.004L62.4203 181.004ZM63.7944 177.707L68.037 181.95C67.8065 182.181 67.4618 182.34 67.0916 182.34L67.0912 176.34L67.0909 170.34C64.1423 170.34 61.473 171.543 59.5517 173.465L63.7944 177.707ZM67.0912 176.34L65.8741 182.215L74.378 183.977L75.5952 178.102L76.8123 172.227L68.3084 170.465L67.0912 176.34ZM75.5952 178.102H81.5952V167.101H75.5952H69.5952V178.102H75.5952ZM75.5952 167.101L77.3253 161.356C53.847 154.285 44.747 137.757 45.7699 121.463L39.7817 121.087L33.7935 120.711C32.3996 142.914 45.3879 164.27 73.865 172.846L75.5952 167.101ZM39.7817 121.087L42.5485 115.763C37.4181 113.097 33.6557 108.374 31.0282 103.593L25.77 106.483L20.5117 109.373C23.7345 115.237 28.956 122.223 37.0149 126.411L39.7817 121.087ZM25.77 106.483L31.0266 103.59C30.7312 103.053 30.654 102.403 31.3239 101.463C32.0585 100.433 33.6542 99.2835 36.0713 98.9896L35.3471 93.0335L34.6229 87.0774C29.1859 87.7385 24.4262 90.4664 21.5523 94.4981C18.6138 98.6206 17.6751 104.218 20.5133 109.375L25.77 106.483ZM35.3471 93.0335L36.0692 98.9899L53.0653 96.9293L52.3432 90.9729L51.6211 85.0166L34.625 87.0771L35.3471 93.0335ZM52.3432 90.9729L56.9244 94.8476C57.4511 94.2248 57.9925 93.6131 58.5495 93.0138L54.1547 88.929L49.7599 84.8442C49.0705 85.5859 48.4049 86.3381 47.762 87.0983L52.3432 90.9729ZM54.1547 88.929L58.1379 84.4419L57.3205 83.7163L53.3373 88.2034L49.3542 92.6905L50.1715 93.4161L54.1547 88.929ZM53.3373 88.2034L57.3848 83.7742C59.6573 85.8508 58.3887 90.0003 54.9262 90.0003V84.0003V78.0003C47.0711 78.0003 43.7464 87.5669 49.2899 92.6326L53.3373 88.2034ZM54.9262 84.0003V90.0003H61.0805V84.0003V78.0003H54.9262V84.0003ZM61.0805 84.0003H67.0805V83.9368H61.0805H55.0805V84.0003H61.0805ZM61.0805 83.9368L67.0804 83.9655C67.0874 82.5133 67.1157 77.7913 67.1157 75.6516H61.1157H55.1157C55.1157 77.753 55.0877 82.4147 55.0806 83.9081L61.0805 83.9368ZM61.1157 75.6516L67.1157 75.6517C67.1157 66.2968 70.1508 58.2171 74.9722 52.2463L70.3041 48.4768L65.6361 44.7074C59.0207 52.8997 55.1157 63.6671 55.1157 75.6516L61.1157 75.6516ZM70.3041 48.4768L72.7591 43.0021C70.1237 41.8203 67.759 40.1583 65.7852 38.1306L61.4858 42.3157L57.1864 46.5008C60.213 49.6101 63.8284 52.1487 67.8492 53.9516L70.3041 48.4768ZM61.4858 42.3157L65.7486 38.0934C67.5363 39.8982 66.1225 42.7688 63.8422 42.7688V36.7688V30.7688C55.6925 30.7688 51.3429 40.6016 57.2229 46.538L61.4858 42.3157ZM63.8422 36.7688V42.7688H71.6108V36.7688V30.7688H63.8422V36.7688ZM71.6108 36.7688L77.3064 38.6555L79.8797 30.8869L74.184 29.0003L68.4883 27.1137L65.9151 34.8822L71.6108 36.7688ZM74.184 29.0003V35.0003H74.4418V29.0003V23.0003H74.184V29.0003ZM74.4418 29.0003L80.1144 30.9554L80.3224 30.3519L74.6498 28.3968L68.9773 26.4417L68.7693 27.0452L74.4418 29.0003ZM74.6498 28.3968L80.3281 30.3352L82.9804 22.5657L77.3022 20.6272L71.6239 18.6888L68.9716 26.4583L74.6498 28.3968Z" fill="white" mask="url(#path-1-outside-1_1062_23172)"/>
<path d="M132.473 181.004C132.473 183.568 130.374 185.668 127.809 185.668H115.543C113.599 185.668 112.014 184.083 112.014 182.145V143.53C112.014 141.585 113.599 140 115.543 140H115.776C117.72 140 119.306 141.585 119.306 143.53V178.094L127.809 176.34C129.085 176.34 130.254 176.861 131.107 177.707C131.945 178.552 132.473 179.715 132.473 181.004Z" fill="#474747"/>
<path d="M82.8736 143.53V182.146C82.8736 184.083 81.2884 185.668 79.3509 185.668H67.0849C64.5204 185.668 62.4209 183.569 62.4209 181.004C62.4209 179.722 62.9493 178.552 63.7947 177.707C64.6402 176.862 65.8027 176.34 67.092 176.34L75.5957 178.102V143.53C75.5957 141.593 77.1809 140.007 79.1184 140.007H79.3579C81.2954 140.007 82.8806 141.593 82.8806 143.53H82.8736Z" fill="#474747"/>
<path d="M67.5256 89.1336L35.3474 93.0337C27.4933 93.9888 22.6363 100.788 25.77 106.483C30.6584 115.378 39.9209 125.765 56.0649 123.81C69.5482 122.18 77.4657 113.181 82.0227 104.453C86.3124 96.254 78.3127 87.8202 67.5217 89.1244L67.5256 89.1336Z" fill="#276286"/>
<path d="M170.355 84.6761L170.352 84.6821C170.352 84.6821 170.369 84.7086 170.367 84.7244C170.758 87.4262 170.964 90.3956 170.79 93.4663C170.785 93.6113 170.771 93.7587 170.763 93.9098C170.745 94.2022 170.716 94.4971 170.694 94.7956C170.656 95.273 170.592 95.7517 170.518 96.2328C170.394 97.184 170.221 98.1475 169.989 99.1002C169.58 100.874 169.007 102.632 168.225 104.356C167.509 105.955 166.617 107.507 165.514 108.998C164.142 110.887 162.434 112.691 160.341 114.33C159.25 115.197 158.033 116.013 156.709 116.79C153.951 118.402 151.187 119.502 148.457 120.187L148.453 120.193C144.417 121.198 140.474 121.317 136.717 120.823C136.71 120.819 136.701 120.822 136.689 120.815C136.594 120.808 136.494 120.797 136.397 120.78C136.072 120.734 135.747 120.688 135.422 120.642C135.412 120.644 135.394 120.633 135.388 120.63C135.061 120.574 134.73 120.508 134.397 120.449C134.359 120.443 134.334 120.444 134.306 120.435C130.723 119.718 127.347 118.5 124.313 117.068C124.249 117.038 124.195 117.006 124.13 116.976C123.158 116.502 122.332 115.92 121.62 115.257C121.599 115.237 121.581 115.226 121.561 115.205C119.115 112.869 118.284 109.544 118.938 106.177C119.243 104.579 119.893 102.981 120.864 101.476C122.185 99.4261 124.1 97.5493 126.59 96.0975L129.169 94.5923L154.58 79.7393C161.413 75.7505 169.393 78.2289 170.337 84.6652L170.355 84.6761Z" fill="#276286"/>
<path d="M155.94 122.891C155.94 123.821 155.904 124.751 155.855 125.653C155.848 125.73 155.841 125.801 155.841 125.871C155.242 134.544 152.044 142.287 146.901 148.768C140.524 156.821 131.154 162.908 120.058 166.361C117.705 167.107 115.267 167.72 112.766 168.221C109.328 168.904 105.77 169.341 102.113 169.524C101.38 169.566 100.641 169.595 99.9009 169.609C99.281 169.616 98.6539 169.623 98.0269 169.623C97.3998 169.623 96.7799 169.616 96.1599 169.609C91.8481 169.51 87.6491 169.059 83.6262 168.291C81.1321 167.812 78.6944 167.206 76.3413 166.473C65.0898 163.028 55.6068 156.906 49.1603 148.775C49.1603 148.775 49.1603 148.768 49.1532 148.768C43.996 142.259 40.7834 134.459 40.2127 125.73C40.2127 125.674 40.2056 125.603 40.1986 125.54C40.1493 124.666 40.1211 123.786 40.1211 122.891C40.1211 121.848 40.1563 120.812 40.2268 119.791C41.2343 105.566 49.1391 92.9481 61.081 84.3809V83.937C61.0881 82.4646 61.1163 77.7724 61.1163 75.6517C61.1163 52.3598 77.6447 35 98.0269 35C98.7314 35 99.436 35.0141 100.133 35.0705C119.543 36.2118 134.945 53.17 134.945 75.6517C134.945 78.181 134.198 83.2748 133.838 83.5989C133.923 83.6482 134 83.6975 134.064 83.7398C134.684 84.1343 134.973 84.3809 134.973 84.3809C146.915 92.9199 154.812 105.524 155.827 119.742C155.904 120.784 155.947 121.834 155.947 122.891H155.94Z" fill="#4B9AE8"/>
<path d="M105.059 74.8766C104.622 78.2443 100.902 83.7045 97.0411 83.7326C93.1802 83.7608 89.1009 78.2232 88.9107 74.5948C88.7205 70.9735 91.433 68.4935 97.1961 68.4583C103.023 68.4231 105.495 71.5089 105.059 74.8766Z" fill="#EAC00F"/>
<path opacity="0.5" d="M105.058 74.8766C104.621 78.2373 100.908 83.7045 97.0406 83.7326C96.4347 83.7326 95.8217 83.6058 95.2158 83.3522C98.3721 82.0558 101.078 77.7159 101.451 74.8766C101.838 71.8823 99.9221 69.1135 95.392 68.5569C95.9556 68.5006 96.5544 68.4654 97.1885 68.4583C103.022 68.4231 105.488 71.516 105.051 74.8766H105.058Z" fill="#AF8F0C"/>
<path d="M117.274 72.0444C121.515 72.0444 124.954 68.6062 124.954 64.365C124.954 60.1237 121.515 56.6855 117.274 56.6855C113.033 56.6855 109.595 60.1237 109.595 64.365C109.595 68.6062 113.033 72.0444 117.274 72.0444Z" fill="white"/>
<path d="M117.275 68.4584C119.536 68.4584 121.368 66.6258 121.368 64.3651C121.368 62.1044 119.536 60.2717 117.275 60.2717C115.014 60.2717 113.182 62.1044 113.182 64.3651C113.182 66.6258 115.014 68.4584 117.275 68.4584Z" fill="#040000"/>
<path d="M77.0173 72.0445C81.2586 72.0445 84.6968 68.6063 84.6968 64.3651C84.6968 60.1239 81.2586 56.6857 77.0173 56.6857C72.7761 56.6857 69.3379 60.1239 69.3379 64.3651C69.3379 68.6063 72.7761 72.0445 77.0173 72.0445Z" fill="white"/>
<path d="M77.0172 68.4584C79.2779 68.4584 81.1105 66.6258 81.1105 64.3651C81.1105 62.1044 79.2779 60.2717 77.0172 60.2717C74.7565 60.2717 72.9238 62.1044 72.9238 64.3651C72.9238 66.6258 74.7565 68.4584 77.0172 68.4584Z" fill="#040000"/>
<path d="M144.034 153C149.534 147 156.534 133.5 156.534 121.5C156.534 109.5 150.034 93.5 133.534 84.5C127.034 85.5 127.534 99 97.5339 99C54.3822 99 65.5337 80 57.034 87C48.5342 94 38.0341 110.5 40.0341 128.5C42.0341 146.5 58.5339 158 62.5341 161C66.5343 164 78.5341 170 96.2841 170C114.034 170 130.034 163 130.034 163C130.034 163 138.534 159 144.034 153Z" fill="#433B6B"/>
<path d="M98.0634 104C91.3008 104 84.7717 104.821 78.5342 106.365L89.4662 170H105.534L117.534 106.317C111.297 104.821 104.768 104 98.0634 104Z" fill="#F4F4F4"/>
<path d="M95.3934 119.056L89.5342 107H106.534L100.675 119.056L105.32 147H90.7485L95.3934 119.056Z" fill="#F92F60"/>
<path d="M87.0654 116.496L98.0342 108.331L109.003 116.496C110.454 117.578 112.601 116.821 112.949 115.144L117.534 94C117.534 94 105.5 97 97.2303 97C88.9607 97 78.5342 94 78.5342 94L83.1191 115.144C83.4672 116.821 85.6146 117.578 87.0654 116.496Z" fill="#E0CAFF"/>
<path d="M118.686 20.6274L121.377 28.3964L121.707 29.351L118.686 33.5407L124.264 36.7692H132.234C135.131 36.7692 136.637 40.2504 134.59 42.3162C129.376 47.6719 122.039 51 113.929 51H82.1469C74.0373 51 66.7 47.6719 61.4866 42.3162C59.4398 40.2504 60.9073 36.7692 63.8422 36.7692H71.764L77.3027 33.0601L74.3213 29.351L74.6504 28.3964L77.3027 20.6274C79.721 14.4283 87.0148 12.0936 92.3975 15.7164C95.7909 18.0109 100.198 18.0109 103.592 15.7164C109.013 12.0936 116.268 14.4686 118.686 20.6274Z" fill="#433B6B"/>
<path d="M92.9545 37H124.534L121.884 29H74.1842L71.5342 37H92.9545Z" fill="#321B41"/>
<path d="M56.0337 87L73.5337 90.5C79.0344 107.5 95.0342 141 89.5342 170C34.034 163 28.0342 114.5 56.0337 87Z" fill="#635994"/>
<path d="M139.169 87L121.669 90.5C116.034 115 101.534 139 105.669 170C161.169 163 169.535 112.5 139.169 87Z" fill="#635994"/>
<path d="M77.7301 84C77.7301 84 89.5342 137.907 90.5342 146.953C91.5342 156 91 170 90 170C89 170 82 169 82 169L59.8329 105.95C59.0385 104.549 59.5058 102.774 60.9077 101.98L63.4778 100.532C64.5993 99.8784 64.7862 98.3373 63.8049 97.4965L53.3375 88.2031C51.7019 86.7085 52.73 84 54.9263 84H77.7301Z" fill="#8D65C5"/>
<path d="M118.354 84C118.354 84 107.034 137 105.534 146.953C104.034 156.907 105.534 170 105.534 170L111.534 169L136.226 105.95C137.022 104.549 136.554 102.774 135.15 101.98L132.577 100.532C131.454 99.8784 131.267 98.3373 132.249 97.4965L142.73 88.2031C144.367 86.7085 143.338 84 141.139 84H118.354Z" fill="#8D65C5"/>
<path d="M158.381 67.5625C167.701 67.5625 175.256 60.0076 175.256 50.6875C175.256 41.3674 167.701 33.8125 158.381 33.8125C149.061 33.8125 141.506 41.3674 141.506 50.6875C141.506 60.0076 149.061 67.5625 158.381 67.5625Z" fill="#D7E8FC"/>
<path d="M153.38 69.7287C144.948 67.504 138.693 59.7972 138.693 50.6875C138.693 39.8509 147.544 31 158.381 31C169.217 31 178.068 39.8509 178.068 50.6875C178.068 59.7972 171.813 67.504 163.382 69.7287C164.636 71.0404 165.412 72.8399 165.412 74.8188V92.8187C165.412 96.8125 162.251 100.075 158.381 100.075C154.511 100.075 151.35 96.8125 151.35 92.8187V74.8188C151.35 72.8399 152.126 71.0404 153.38 69.7287ZM142.892 50.6875C142.892 59.2549 149.813 66.1765 158.381 66.1765C166.948 66.1765 173.87 59.2549 173.87 50.6875C173.87 42.1201 166.891 35.1985 158.381 35.1985C149.87 35.1985 142.892 42.1201 142.892 50.6875Z" fill="#321B41"/>
<path d="M163.303 52.0938C166.021 52.0938 168.225 49.8899 168.225 47.1719C168.225 44.4539 166.021 42.25 163.303 42.25C160.585 42.25 158.381 44.4539 158.381 47.1719C158.381 49.8899 160.585 52.0938 163.303 52.0938Z" fill="#F4F4F4"/>
<ellipse cx="162.693" cy="85.5" rx="8" ry="10.5" fill="#276286"/>
<ellipse cx="143" cy="74" rx="5" ry="8" fill="white"/>
</svg>
