<svg width="200" height="200" viewBox="0 0 200 200" fill="none" xmlns="http://www.w3.org/2000/svg">
<mask id="path-1-outside-1_1347_11754" maskUnits="userSpaceOnUse" x="12.5615" y="14" width="175" height="175" fill="black">
<rect fill="white" x="12.5615" y="14" width="175" height="175"/>
<path d="M41.2695 35.749C67.072 12.5643 140.741 16.5022 163.179 37.6191C174.119 47.916 179.99 76.0897 180.882 103.775C181.043 103.798 181.127 103.809 181.129 103.81C181.129 103.82 181.365 109.392 181.128 117.312C181.242 118.707 184.169 156.728 166.543 168.878C134.767 190.781 71.3007 178.996 71.1846 178.975C71.182 178.973 71.1793 178.971 71.1768 178.969C55.6289 177.377 42.3567 173.967 35.2852 168.13C13.2272 149.922 19.0335 109.42 19.8623 104.337C20.9895 76.384 28.206 47.4873 41.2695 35.749Z"/>
</mask>
<path d="M41.2695 35.749C67.072 12.5643 140.741 16.5022 163.179 37.6191C174.119 47.916 179.99 76.0897 180.882 103.775C181.043 103.798 181.127 103.809 181.129 103.81C181.129 103.82 181.365 109.392 181.128 117.312C181.242 118.707 184.169 156.728 166.543 168.878C134.767 190.781 71.3007 178.996 71.1846 178.975C71.182 178.973 71.1793 178.971 71.1768 178.969C55.6289 177.377 42.3567 173.967 35.2852 168.13C13.2272 149.922 19.0335 109.42 19.8623 104.337C20.9895 76.384 28.206 47.4873 41.2695 35.749Z" fill="#276288"/>
<path d="M41.2695 35.749L37.2593 31.286L37.2593 31.286L41.2695 35.749ZM163.179 37.6191L167.291 33.2499L167.291 33.2498L163.179 37.6191ZM180.882 103.775L174.885 103.968C174.979 106.883 177.155 109.308 180.042 109.716L180.882 103.775ZM181.129 103.81L187.123 103.553C187 100.675 184.849 98.2905 181.999 97.8729L181.129 103.81ZM181.128 117.312L175.131 117.132C175.124 117.355 175.13 117.577 175.148 117.799L181.128 117.312ZM166.543 168.878L169.948 173.818H169.948L166.543 168.878ZM71.1846 178.975L67.5071 183.715C68.2628 184.302 69.1477 184.699 70.088 184.874L71.1846 178.975ZM71.1768 178.969L74.8547 174.228C73.9675 173.54 72.9049 173.114 71.7879 173L71.1768 178.969ZM35.2852 168.13L31.4656 172.757L31.4656 172.757L35.2852 168.13ZM19.8623 104.337L25.7841 105.302C25.8232 105.063 25.8477 104.821 25.8574 104.579L19.8623 104.337ZM41.2695 35.749L45.2797 40.212C50.6908 35.3499 59.0496 31.5716 69.4221 29.1311C79.7083 26.7109 91.5037 25.7178 103.308 26.0683C115.109 26.4188 126.729 28.1067 136.651 30.929C146.694 33.7854 154.457 37.6504 159.067 41.9884L163.179 37.6191L167.291 33.2498C160.681 27.0294 150.821 22.4833 139.934 19.3868C128.927 16.2561 116.31 14.4491 103.664 14.0736C91.0207 13.6981 78.1586 14.7478 66.6737 17.4501C55.2752 20.132 44.7495 24.5558 37.2593 31.286L41.2695 35.749ZM163.179 37.6191L159.067 41.9884C163.217 45.8948 167.087 54.0635 169.978 65.6312C172.798 76.9158 174.449 90.4426 174.885 103.968L180.882 103.775L186.879 103.582C186.423 89.4225 184.693 75.0197 181.62 62.7217C178.617 50.707 174.081 39.6403 167.291 33.2499L163.179 37.6191ZM180.882 103.775L180.042 109.716C180.132 109.729 180.202 109.739 180.252 109.746C180.277 109.749 180.296 109.752 180.31 109.753C180.317 109.754 180.323 109.755 180.325 109.756C180.327 109.756 180.327 109.756 180.325 109.756C180.325 109.755 180.322 109.755 180.318 109.754C180.316 109.754 180.311 109.754 180.305 109.753C180.304 109.753 180.284 109.75 180.259 109.746L181.129 103.81L181.999 97.8729C181.974 97.8693 181.954 97.8666 181.953 97.8664C181.946 97.8655 181.942 97.8649 181.939 97.8646C181.935 97.8639 181.931 97.8634 181.93 97.8633C181.927 97.8629 181.924 97.8625 181.923 97.8624C181.92 97.862 181.918 97.8616 181.914 97.8611C181.906 97.8601 181.895 97.8585 181.878 97.8563C181.845 97.8518 181.793 97.8446 181.722 97.8345L180.882 103.775ZM181.129 103.81L175.134 104.066C175.131 103.982 175.362 109.401 175.131 117.132L181.128 117.312L187.125 117.491C187.368 109.383 187.128 103.658 187.123 103.553L181.129 103.81ZM181.128 117.312L175.148 117.799C175.191 118.329 175.916 127.7 174.538 138.288C173.85 143.578 172.663 148.95 170.734 153.587C168.797 158.243 166.274 161.776 163.138 163.938L166.543 168.878L169.948 173.818C175.625 169.905 179.346 164.129 181.814 158.195C184.29 152.243 185.669 145.744 186.438 139.836C187.974 128.026 187.179 117.69 187.108 116.824L181.128 117.312ZM166.543 168.878L163.138 163.938C148.892 173.757 126.742 176.358 107.055 176.148C87.695 175.943 72.1814 173.057 72.2811 173.076L71.1846 178.975L70.088 184.874C70.3038 184.914 86.5816 187.931 106.928 188.148C126.947 188.36 152.418 185.902 169.948 173.818L166.543 168.878ZM71.1846 178.975L74.8621 174.234C74.8423 174.218 74.8248 174.205 74.81 174.194C74.7953 174.183 74.7827 174.173 74.7729 174.166C74.7632 174.159 74.7552 174.153 74.7503 174.149C74.7478 174.147 74.7458 174.146 74.7445 174.145C74.7433 174.144 74.7422 174.143 74.7422 174.143C74.7413 174.142 74.7446 174.145 74.7485 174.148C74.7527 174.151 74.7601 174.156 74.7692 174.163C74.7784 174.17 74.7904 174.179 74.8045 174.19C74.8186 174.2 74.8356 174.213 74.8547 174.228L71.1768 178.969L67.4988 183.709C67.5186 183.725 67.5362 183.738 67.5509 183.749C67.5657 183.76 67.5784 183.77 67.5882 183.777C67.598 183.785 67.6059 183.791 67.6109 183.794C67.6134 183.796 67.6155 183.798 67.6168 183.799C67.618 183.799 67.6191 183.8 67.6191 183.8C67.6201 183.801 67.6168 183.799 67.613 183.796C67.6087 183.793 67.6015 183.787 67.5924 183.78C67.5833 183.774 67.5712 183.765 67.5572 183.754C67.5431 183.743 67.5262 183.73 67.5071 183.715L71.1846 178.975ZM71.1768 178.969L71.7879 173C64.2454 172.228 57.4177 171.029 51.7226 169.378C45.9526 167.706 41.7465 165.683 39.1047 163.503L35.2852 168.13L31.4656 172.757C35.8954 176.414 41.8612 179.014 48.3822 180.904C54.978 182.816 62.5603 184.118 70.5657 184.938L71.1768 178.969ZM35.2852 168.13L39.1047 163.503C29.9443 155.941 26.1199 143.277 24.9658 130.761C23.8306 118.448 25.4063 107.619 25.7841 105.302L19.8623 104.337L13.9405 103.371C13.4895 106.137 11.7477 118.101 13.0165 131.862C14.2666 145.42 18.568 162.111 31.4656 172.757L35.2852 168.13ZM19.8623 104.337L25.8574 104.579C26.4052 90.9933 28.4327 77.2801 31.8468 65.6529C35.3146 53.8425 39.9858 44.9689 45.2797 40.212L41.2695 35.749L37.2593 31.286C29.4898 38.2674 24.021 49.7113 20.3328 62.2721C16.5909 75.016 14.4465 89.7276 13.8672 104.095L19.8623 104.337Z" fill="white" mask="url(#path-1-outside-1_1347_11754)"/>
<path d="M41.2699 35.7491C67.0725 12.5643 140.741 16.5023 163.179 37.6195C185.617 58.7367 186.739 155.041 167.292 168.13C147.844 181.219 55.8525 184.21 34.1632 166.634C12.4739 149.058 15.4674 58.934 41.2699 35.7491Z" fill="#D6EEF0"/>
<path d="M127.325 58.7479C127.325 62.6531 128.877 66.3983 131.638 69.1597C134.399 71.9211 138.145 73.4724 142.05 73.4724C145.955 73.4724 149.7 71.9211 152.461 69.1597C155.223 66.3983 156.774 62.6531 156.774 58.7479C156.774 54.8427 155.223 51.0975 152.461 48.3361C149.7 45.5748 145.955 44.0234 142.05 44.0234C138.145 44.0234 134.399 45.5748 131.638 48.3361C128.877 51.0975 127.325 54.8427 127.325 58.7479Z" fill="#F8E97B"/>
<path d="M78.9451 48.2304C78.9451 50.5443 77.0519 52.4374 74.7381 52.4374H53.7031C51.3892 52.4374 49.4961 50.5443 49.4961 48.2304C49.4961 45.9166 51.3892 44.0234 53.7031 44.0234H74.7381C77.0519 44.0234 78.9451 45.9166 78.9451 48.2304Z" fill="white"/>
<path d="M87.3591 52.4375C87.3591 54.7513 85.466 56.6445 83.1521 56.6445H74.7381C72.4243 56.6445 70.5311 54.7513 70.5311 52.4375C70.5311 50.1236 72.4243 48.2305 74.7381 48.2305H83.1521C85.466 48.2305 87.3591 50.1236 87.3591 52.4375ZM116.808 58.748C116.808 61.0618 114.915 62.9549 112.601 62.9549H104.187C101.873 62.9549 99.9801 61.0618 99.9801 58.748C99.9801 56.4341 101.873 54.541 104.187 54.541H112.601C114.915 54.541 116.808 56.4341 116.808 58.748ZM72.6346 73.4724C72.6346 75.7863 70.7415 77.6794 68.4276 77.6794H60.0136C57.6998 77.6794 55.8066 75.7863 55.8066 73.4724C55.8066 71.1586 57.6998 69.2654 60.0136 69.2654H68.4276C70.7415 69.2654 72.6346 71.1586 72.6346 73.4724Z" fill="white"/>
<path d="M19.9531 103.809C19.9531 103.809 63.0798 106.427 100.415 101.939C137.75 97.4517 181.129 103.809 181.129 103.809C181.129 103.809 183.372 156.163 167.293 168.129C151.213 180.096 58.8428 187.575 35.2852 168.129C11.7275 148.684 19.9531 103.809 19.9531 103.809Z" fill="#42ADE2"/>
<path d="M181.125 117.271C181.125 117.271 3.66232 126.597 71.1846 178.974C71.1846 178.974 134.739 190.801 166.543 168.877C184.5 156.5 181.125 117.271 181.125 117.271Z" fill="#FFDD7D"/>
<path d="M132.505 152.711C132.295 153.762 131.243 154.604 129.981 154.393C128.929 154.183 128.088 153.131 128.298 151.869L138.185 101.806C138.395 100.754 139.447 99.9129 140.709 100.123C141.76 100.334 142.602 101.385 142.392 102.647L132.505 152.711Z" fill="#94989B"/>
<path d="M137.766 114.847C145.549 116.32 144.497 122.42 150.808 123.682C156.908 124.944 158.38 118.844 166.163 120.316L167.846 120.527C168.898 123.472 170.581 122.63 171.632 118.634L172.053 116.951C175.629 98.8607 150.387 89.8156 150.387 89.8156C146.811 87.9225 140.29 86.6604 136.083 87.0811C136.083 87.0811 109.159 86.2397 105.583 104.33L105.162 106.013C104.531 110.009 105.793 111.482 108.107 109.168L109.79 109.378C117.573 110.851 116.521 116.951 122.831 118.213C128.511 119.475 129.983 113.375 137.766 114.847Z" fill="#F27A52"/>
<path d="M147.864 93.6019L147.233 93.3916C146.391 92.9709 145.55 92.5502 144.498 92.3398C145.55 98.44 147.233 108.326 148.284 118.003C148.915 118.844 149.546 119.265 150.388 119.265C151.65 119.475 152.281 119.054 153.964 118.003C156.278 116.53 159.643 114.637 165.112 115.478L165.743 115.689C168.478 101.385 148.074 93.6019 147.864 93.6019Z" fill="#F9F3D9"/>
<path d="M136.502 91.2878H135.871C135.661 91.2878 114.626 91.0775 111.681 105.381L112.312 105.592C117.57 106.643 119.674 109.588 121.146 111.902C122.198 113.585 122.829 114.006 123.881 114.216C124.933 114.426 125.774 114.006 127.247 112.954C127.457 112.954 127.457 112.743 127.667 112.743C132.085 104.54 136.923 96.3362 140.078 91.2878C138.816 91.2878 137.554 91.0775 136.502 91.2878Z" fill="#C94747"/>
<path d="M112.374 132.106L114.203 155.393C114.203 155.393 100.193 154.889 99.2285 142.658C98.6594 135.404 103.165 130.308 107.004 128.175C109.401 126.847 112.104 128.707 112.366 132.105L112.374 132.106Z" fill="#276288"/>
<path d="M73.6292 139.254C73.8909 139.12 74.2118 139.223 74.3465 139.484L75.8932 142.487L80.6508 143.338L80.7558 143.367C80.986 143.459 81.128 143.704 81.0827 143.957C81.0306 144.247 80.7528 144.44 80.4631 144.388L75.8358 143.559L74.9664 145.28C74.8336 145.542 74.5128 145.647 74.2501 145.514C73.9875 145.382 73.8821 145.062 74.0148 144.799L74.7297 143.385L72.9199 143.119C72.6286 143.076 72.4274 142.805 72.4702 142.513C72.5132 142.222 72.7836 142.021 73.0747 142.064L74.5905 142.286L73.3984 139.972C73.2637 139.71 73.3675 139.389 73.6292 139.254Z" fill="#474747"/>
<path d="M80.7522 151.497C81.0458 151.476 81.3021 151.696 81.324 151.989C81.3458 152.283 81.125 152.538 80.8314 152.56L75.1825 152.98L73.7935 155.383C73.6461 155.638 73.3197 155.726 73.0649 155.578C72.8102 155.431 72.7234 155.105 72.8708 154.85L73.9843 152.924L71.211 152.664C70.9181 152.637 70.7033 152.377 70.7306 152.084C70.7582 151.791 71.0184 151.575 71.3115 151.602L73.6144 151.818L72.2428 150.191L72.1827 150.102C72.0639 149.884 72.1104 149.606 72.3075 149.44C72.5045 149.274 72.7864 149.275 72.9809 149.428L73.0588 149.504L75.094 151.918L80.7522 151.497Z" fill="#474747"/>
<path d="M92.9571 168.194C89.4917 167.831 86.5358 166.344 84.224 164.065C80.1809 160.105 78.0874 153.763 78.661 146.815C78.6738 146.593 78.6947 146.381 78.7245 146.16C78.7544 145.94 78.7757 145.719 78.8051 145.507C79.7013 138.595 83.0687 132.834 87.8501 129.804C90.5912 128.066 93.793 127.226 97.2579 127.598C102.694 128.169 107.241 131.543 109.986 136.376C109.986 136.376 112.159 136.613 113.043 136.707C121.204 137.573 126.676 144.009 125.921 151.151C125.164 158.302 118.466 163.452 110.304 162.585C109.412 162.491 107.661 162.039 107.558 161.905C107.364 162.159 107.246 162.272 107.246 162.272C103.553 166.424 98.4009 168.775 92.9656 168.195L92.9571 168.194Z" fill="#4B9AE8"/>
<path d="M115.249 146.43C115.153 148.076 116.41 149.488 118.057 149.584C119.703 149.679 121.115 148.422 121.21 146.776C121.305 145.129 120.048 143.718 118.402 143.622C116.756 143.527 115.344 144.784 115.249 146.43Z" fill="white"/>
<path d="M116.64 146.511C116.59 147.389 117.26 148.141 118.137 148.192C119.015 148.243 119.767 147.573 119.818 146.695C119.869 145.818 119.199 145.065 118.321 145.014C117.444 144.964 116.691 145.634 116.64 146.511Z" fill="#040000"/>
<path d="M114.053 137.873C114.315 136.298 116.258 134.1 117.603 134.324C118.947 134.548 120.086 137.244 119.824 138.819C119.562 140.393 118.47 141.529 116.462 141.201C114.453 140.873 113.783 139.447 114.045 137.864L114.053 137.873Z" fill="#EAC00F"/>
<path d="M109.004 157.237L106.207 170.61C105.524 173.871 102.492 175.67 100.216 174.144C96.6607 171.77 92.6283 167.509 94.0337 160.796C95.2043 155.191 99.2691 152.196 103.098 150.589C106.694 149.082 109.948 152.748 109.012 157.228L109.004 157.237Z" fill="#276288"/>
</svg>
