<svg width="200" height="200" viewBox="0 0 200 200" fill="none" xmlns="http://www.w3.org/2000/svg">
<mask id="path-1-outside-1_777_12631" maskUnits="userSpaceOnUse" x="50.3154" y="12.8781" width="100" height="173" fill="black">
<rect fill="white" x="50.3154" y="12.8781" width="100" height="173"/>
<path d="M71.082 19.8869C75.4819 20.2632 85.819 24.6313 87.9501 25.2707C90.1417 25.1089 90.1201 26.1584 91.0126 26.4836C91.9053 26.8087 94.3642 25.9214 94.3642 31.7668C94.3642 36.1155 98.3509 53.2028 100.393 61.6682C101.621 61.7135 131.155 62.8399 136.52 66.4172C139.808 69.1572 138.165 73.3583 138.713 74.4543C139.262 75.5507 144.192 79.9343 143.279 81.9435H143.278C142.911 82.7521 140.216 84.239 135.386 85.7297C133.281 101.743 125.097 163.968 124.673 166.515C124.186 169.438 121.447 178.937 100.166 178.937H98.7119C77.4297 178.937 74.6921 169.438 74.205 166.515C73.7748 163.933 65.3716 100.04 63.4081 85.1027C59.7781 83.834 57.7446 82.6383 57.4286 81.9435C56.5153 79.9342 61.4461 75.5503 61.9941 74.4543C62.542 73.3582 60.898 69.1572 64.1855 66.4172C68.0204 63.8606 84.1997 62.5568 93.5683 62.0041C91.2123 52.7628 88.2377 34.7212 87.787 32.9836C87.2196 30.7916 86.1617 31.0716 83.664 30.4006C79.5246 29.2875 70.7372 26.4706 68.1982 25.0422C66.8735 24.2957 67.5653 22.9441 68.8232 21.0031C69.3139 20.2469 70.1821 19.8102 71.082 19.8869Z"/>
</mask>
<path d="M71.082 19.8869C75.4819 20.2632 85.819 24.6313 87.9501 25.2707C90.1417 25.1089 90.1201 26.1584 91.0126 26.4836C91.9053 26.8087 94.3642 25.9214 94.3642 31.7668C94.3642 36.1155 98.3509 53.2028 100.393 61.6682C101.621 61.7135 131.155 62.8399 136.52 66.4172C139.808 69.1572 138.165 73.3583 138.713 74.4543C139.262 75.5507 144.192 79.9343 143.279 81.9435H143.278C142.911 82.7521 140.216 84.239 135.386 85.7297C133.281 101.743 125.097 163.968 124.673 166.515C124.186 169.438 121.447 178.937 100.166 178.937H98.7119C77.4297 178.937 74.6921 169.438 74.205 166.515C73.7748 163.933 65.3716 100.04 63.4081 85.1027C59.7781 83.834 57.7446 82.6383 57.4286 81.9435C56.5153 79.9342 61.4461 75.5503 61.9941 74.4543C62.542 73.3582 60.898 69.1572 64.1855 66.4172C68.0204 63.8606 84.1997 62.5568 93.5683 62.0041C91.2123 52.7628 88.2377 34.7212 87.787 32.9836C87.2196 30.7916 86.1617 31.0716 83.664 30.4006C79.5246 29.2875 70.7372 26.4706 68.1982 25.0422C66.8735 24.2957 67.5653 22.9441 68.8232 21.0031C69.3139 20.2469 70.1821 19.8102 71.082 19.8869Z" fill="#88C1F5"/>
<path d="M71.082 19.8869L71.5933 13.9087L71.5912 13.9086L71.082 19.8869ZM87.9501 25.2707L86.226 31.0176L87.2871 31.336L88.3919 31.2544L87.9501 25.2707ZM91.0126 26.4836L88.9588 32.1211L88.9591 32.1212L91.0126 26.4836ZM94.3642 31.7668L100.364 31.7668L100.364 31.7668L94.3642 31.7668ZM100.393 61.6682L94.5597 63.0749L95.6261 67.4963L100.171 67.6641L100.393 61.6682ZM136.52 66.4172L140.362 61.8081L140.115 61.6028L139.849 61.4249L136.52 66.4172ZM138.713 74.4543L133.346 77.1376L133.347 77.1394L138.713 74.4543ZM143.279 81.9435V87.9435H147.143L148.742 84.4258L143.279 81.9435ZM143.278 81.9435V75.9435H139.415L137.816 79.4607L143.278 81.9435ZM135.386 85.7297L133.616 79.9965L129.938 81.1316L129.437 84.9478L135.386 85.7297ZM124.673 166.515L130.591 167.501L130.591 167.501L124.673 166.515ZM100.166 178.937L100.166 184.937L100.166 184.937L100.166 178.937ZM74.205 166.515L68.2866 167.501L68.2867 167.501L74.205 166.515ZM63.4081 85.1027L69.357 84.3208L68.8755 80.6577L65.3878 79.4387L63.4081 85.1027ZM57.4286 81.9435L51.9665 84.4264L51.9669 84.4274L57.4286 81.9435ZM61.9941 74.4543L67.3606 77.1376L67.3609 77.137L61.9941 74.4543ZM64.1855 66.4172L60.8573 61.4249L60.5904 61.6028L60.344 61.8081L64.1855 66.4172ZM93.5683 62.0041L93.9216 67.9937L101.178 67.5656L99.3823 60.5219L93.5683 62.0041ZM87.787 32.9836L81.9785 34.4873L81.9792 34.4898L87.787 32.9836ZM83.664 30.4006L82.1059 36.1947L82.1073 36.1951L83.664 30.4006ZM68.1982 25.0422L65.2526 30.2694L65.2563 30.2714L68.1982 25.0422ZM68.8232 21.0031L63.7901 17.7369L63.788 17.7401L68.8232 21.0031ZM71.082 19.8869L70.5707 25.8651C71.8475 25.9743 74.7694 26.8476 78.3422 28.1283C79.9855 28.7173 81.5651 29.316 82.9137 29.8255C84.1309 30.2853 85.4372 30.781 86.226 31.0176L87.9501 25.2707L89.6742 19.5237C89.3975 19.4407 88.6125 19.1506 87.1546 18.5998C85.8281 18.0987 84.1489 17.462 82.3914 16.8321C79.1629 15.6748 74.7163 14.1758 71.5933 13.9087L71.082 19.8869ZM87.9501 25.2707L88.3919 31.2544C88.4803 31.2479 88.2187 31.2796 87.7606 31.1641C87.5254 31.1048 87.2717 31.015 87.0136 30.8889C86.7558 30.763 86.5454 30.6262 86.387 30.5083C86.2399 30.3989 86.1498 30.3141 86.1623 30.3255C86.175 30.3373 86.1817 30.3437 86.2393 30.3978C86.2833 30.4392 86.3641 30.515 86.4577 30.599C86.8567 30.9572 87.6919 31.6596 88.9588 32.1211L91.0126 26.4836L93.0664 20.846C93.8871 21.145 94.3904 21.5943 94.4739 21.6692C94.4886 21.6824 94.4916 21.6857 94.4572 21.6534C94.4365 21.6339 94.3644 21.5657 94.2963 21.503C94.1471 21.3654 93.8872 21.1316 93.55 20.8807C92.802 20.3242 91.8635 19.823 90.6948 19.5283C89.5965 19.2514 88.5158 19.2126 87.5083 19.287L87.9501 25.2707ZM91.0126 26.4836L88.9591 32.1212C89.4134 32.2867 89.8095 32.3757 90.0731 32.426C90.339 32.4767 90.5682 32.5059 90.6999 32.5217C90.77 32.5301 90.8344 32.5372 90.8789 32.542C90.9327 32.5479 90.9547 32.5502 90.986 32.5537C91.0399 32.5598 91.0386 32.5603 91.0152 32.5567C90.9675 32.5495 90.751 32.5152 90.4576 32.411C90.1476 32.3009 89.7755 32.1218 89.4031 31.84C89.028 31.5562 88.7463 31.239 88.5501 30.9452C88.3617 30.6633 88.2855 30.4538 88.266 30.3943C88.2477 30.3388 88.2754 30.404 88.3059 30.641C88.3362 30.8761 88.3642 31.2406 88.3642 31.7668L94.3642 31.7668L100.364 31.7668C100.364 28.433 99.743 24.6154 96.6432 22.2702C95.1458 21.1374 93.6312 20.816 92.8106 20.6918C92.6092 20.6613 92.4342 20.6409 92.3208 20.6282C92.1571 20.6099 92.1792 20.6131 92.126 20.6067C91.9932 20.5908 92.4672 20.6278 93.0662 20.8459L91.0126 26.4836ZM94.3642 31.7668H88.3642C88.3642 33.4398 88.7088 35.804 89.1068 38.1055C89.5312 40.56 90.1112 43.4528 90.7446 46.4245C92.0129 52.3753 93.5344 58.8235 94.5597 63.0749L100.393 61.6682L106.225 60.2614C105.209 56.0475 103.716 49.7193 102.481 43.923C101.862 41.0211 101.318 38.2976 100.931 36.0606C100.518 33.6706 100.364 32.2681 100.364 31.7668H94.3642ZM100.393 61.6682L100.171 67.6641C100.751 67.6855 108.319 67.9739 116.37 68.6943C120.407 69.0555 124.457 69.516 127.767 70.0855C129.426 70.3709 130.802 70.6672 131.849 70.9627C133.026 71.2945 133.33 71.5011 133.192 71.4095L136.52 66.4172L139.849 61.4249C138.37 60.4389 136.577 59.8278 135.106 59.4132C133.507 58.9621 131.685 58.5832 129.802 58.2592C126.027 57.61 121.611 57.1153 117.44 56.7421C109.076 55.9937 101.263 55.6962 100.614 55.6722L100.393 61.6682ZM136.52 66.4172L132.679 71.0263C132.687 71.0332 132.628 70.969 132.598 70.893C132.589 70.8691 132.634 70.9718 132.65 71.3212C132.669 71.7419 132.642 72.0634 132.607 72.8614C132.594 73.1727 132.573 73.711 132.608 74.2773C132.637 74.7501 132.731 75.9077 133.346 77.1376L138.713 74.4543L144.079 71.771C144.557 72.7269 144.583 73.5134 144.585 73.536C144.592 73.6521 144.584 73.661 144.596 73.3814C144.612 72.9979 144.688 71.8924 144.638 70.7833C144.529 68.3479 143.799 64.6727 140.362 61.8081L136.52 66.4172ZM138.713 74.4543L133.347 77.1394C133.579 77.6023 133.828 77.968 133.975 78.1749C134.141 78.4074 134.306 78.6183 134.445 78.7886C134.715 79.1223 135.023 79.4741 135.283 79.7691C135.858 80.4225 136.377 81.002 136.859 81.6045C137.09 81.8936 137.275 82.1418 137.416 82.3493C137.485 82.451 137.536 82.5322 137.572 82.5937C137.609 82.656 137.623 82.6856 137.623 82.6845C137.622 82.683 137.616 82.6701 137.606 82.6463C137.596 82.6226 137.581 82.5846 137.564 82.533C137.53 82.435 137.476 82.2551 137.438 82.0052C137.362 81.5136 137.32 80.5538 137.817 79.4613L143.279 81.9435L148.742 84.4258C150.145 81.3387 148.924 78.4929 148.433 77.4753C147.793 76.1461 146.906 74.9545 146.23 74.1087C145.524 73.2272 144.765 72.3796 144.29 71.8399C144.024 71.5383 143.864 71.3521 143.764 71.2284C143.574 70.9943 143.822 71.2575 144.078 71.7692L138.713 74.4543ZM143.279 81.9435V75.9435H143.278V81.9435V87.9435H143.279V81.9435ZM143.278 81.9435L137.816 79.4607C138.166 78.6908 138.596 78.2319 138.742 78.0818C138.839 77.9827 138.917 77.9147 138.962 77.8768C139.008 77.8379 139.035 77.8176 139.039 77.8152C139.042 77.8129 138.988 77.8515 138.859 77.9271C138.734 78.0008 138.56 78.096 138.331 78.2101C137.382 78.6825 135.824 79.3151 133.616 79.9965L135.386 85.7297L137.155 91.4629C139.777 90.6536 141.982 89.7974 143.68 88.9516C144.519 88.5337 145.358 88.0575 146.1 87.518C146.612 87.1453 147.965 86.1334 148.74 84.4264L143.278 81.9435ZM135.386 85.7297L129.437 84.9478C128.385 92.954 125.813 112.512 123.451 130.386C122.27 139.323 121.142 147.838 120.283 154.276C119.853 157.495 119.491 160.192 119.223 162.161C119.089 163.147 118.98 163.945 118.898 164.533C118.856 164.828 118.823 165.065 118.797 165.243C118.784 165.332 118.774 165.402 118.766 165.455C118.757 165.512 118.754 165.532 118.754 165.529L124.673 166.515L130.591 167.501C131.038 164.818 139.246 102.399 141.335 86.5116L135.386 85.7297ZM124.673 166.515L118.754 165.528C118.66 166.096 118.339 167.632 116.456 169.147C114.472 170.743 109.979 172.937 100.166 172.937L100.166 178.937L100.166 184.937C111.634 184.937 119.15 182.381 123.978 178.497C128.907 174.531 130.199 169.856 130.591 167.501L124.673 166.515ZM100.166 178.937V172.937H98.7119V178.937V184.937H100.166V178.937ZM98.7119 178.937V172.937C88.8981 172.937 84.4048 170.743 82.4216 169.147C80.5391 167.632 80.2181 166.096 80.1234 165.528L74.205 166.515L68.2867 167.501C68.6791 169.856 69.9704 174.531 74.899 178.496C79.7269 182.381 87.2434 184.937 98.7119 184.937V178.937ZM74.205 166.515L80.1234 165.529C80.124 165.532 80.1205 165.511 80.1117 165.452C80.1035 165.398 80.0929 165.327 80.0797 165.235C80.0532 165.053 80.0189 164.811 79.9768 164.509C79.8926 163.907 79.7805 163.089 79.6435 162.081C79.3697 160.064 78.9992 157.304 78.5599 154.012C77.6814 147.429 76.5297 138.737 75.3298 129.656C72.9301 111.495 70.3386 91.7893 69.357 84.3208L63.4081 85.1027L57.4593 85.8846C59.4062 100.696 67.8338 164.784 68.2866 167.501L74.205 166.515ZM63.4081 85.1027L65.3878 79.4387C63.7662 78.872 62.6703 78.3783 62.0407 78.0361C61.7183 77.8609 61.6341 77.7878 61.6962 77.8367C61.7304 77.8636 61.8705 77.9757 62.0559 78.1785C62.2201 78.3581 62.5837 78.7854 62.8904 79.4597L57.4286 81.9435L51.9669 84.4274C52.6592 85.9497 53.7904 86.8854 54.2753 87.267C54.921 87.7751 55.6313 88.2105 56.3105 88.5796C57.6841 89.3261 59.42 90.0647 61.4285 90.7667L63.4081 85.1027ZM57.4286 81.9435L62.8908 79.4607C63.3874 80.5531 63.3458 81.5129 63.27 82.0045C63.2314 82.2545 63.1776 82.4344 63.1442 82.5323C63.1267 82.584 63.1117 82.622 63.1018 82.6457C63.0919 82.6695 63.0858 82.6824 63.085 82.6839C63.0845 82.6851 63.0988 82.6554 63.1357 82.5931C63.1721 82.5317 63.2232 82.4505 63.2922 82.3488C63.433 82.1413 63.6178 81.8931 63.849 81.604C64.331 81.0015 64.8498 80.422 65.4249 79.7686C65.6846 79.4736 65.9923 79.1218 66.263 78.788C66.4011 78.6177 66.5668 78.4067 66.7322 78.1741C66.8794 77.9671 67.1289 77.6011 67.3606 77.1376L61.9941 74.4543L56.6275 71.771C56.8838 71.2584 57.1332 70.9946 56.9432 71.2287C56.843 71.3523 56.6827 71.5385 56.4173 71.84C55.9423 72.3796 55.1828 73.2272 54.4777 74.1088C53.8012 74.9546 52.9146 76.1463 52.2742 77.4756C51.7839 78.4935 50.5633 81.3393 51.9665 84.4264L57.4286 81.9435ZM61.9941 74.4543L67.3609 77.137C67.9758 75.9069 68.0701 74.7493 68.0993 74.2765C68.1343 73.7101 68.1132 73.1718 68.0997 72.8605C68.0649 72.0624 68.0376 71.741 68.0564 71.3203C68.0721 70.971 68.1179 70.8684 68.1083 70.8924C68.078 70.9686 68.0187 71.0331 68.0269 71.0262L64.1855 66.4172L60.344 61.8081C56.9067 64.673 56.1774 68.3486 56.0684 70.7841C56.0188 71.8932 56.0943 72.9987 56.111 73.3822C56.1232 73.6618 56.1149 73.6529 56.1221 73.5368C56.1235 73.5142 56.1493 72.7276 56.6272 71.7716L61.9941 74.4543ZM64.1855 66.4172L67.5137 71.4095C67.4481 71.4532 68.1767 71.0742 70.3809 70.5834C72.3229 70.151 74.7898 69.7587 77.5488 69.4125C83.0505 68.7221 89.2854 68.2672 93.9216 67.9937L93.5683 62.0041L93.215 56.0145C88.4826 56.2937 81.9435 56.7669 76.0548 57.5058C73.1185 57.8743 70.2359 58.3218 67.773 58.8702C65.5723 59.3602 62.8403 60.1028 60.8573 61.4249L64.1855 66.4172ZM93.5683 62.0041L99.3823 60.5219C98.2598 56.1186 96.9595 49.4818 95.862 43.5825C95.3174 40.6557 94.8336 37.9704 94.452 35.8759C94.1041 33.9667 93.7797 32.1898 93.5949 31.4773L87.787 32.9836L81.9792 34.4898C81.9757 34.4763 82.0334 34.734 82.1742 35.473C82.2983 36.1247 82.4568 36.987 82.6464 38.0272C83.0228 40.0929 83.5144 42.8215 84.0644 45.7774C85.1558 51.6437 86.5209 58.6484 87.7543 63.4863L93.5683 62.0041ZM87.787 32.9836L93.5956 31.4798C93.3446 30.5104 92.9155 29.3045 92.0654 28.1639C91.136 26.917 89.9925 26.1306 88.8865 25.639C87.9511 25.2232 87.026 25.0204 86.5873 24.9227C86.0061 24.7931 85.68 24.7294 85.2207 24.606L83.664 30.4006L82.1073 36.1951C82.8968 36.4072 83.6397 36.5601 83.977 36.6353C84.179 36.6803 84.2563 36.7005 84.2825 36.7079C84.3038 36.714 84.1921 36.6844 84.0122 36.6044C83.8202 36.5191 83.5441 36.3739 83.2412 36.1417C82.9311 35.9039 82.6621 35.628 82.4439 35.3352C82.0298 34.7797 81.9458 34.3607 81.9785 34.4873L87.787 32.9836ZM83.664 30.4006L85.2221 24.6064C83.2979 24.089 80.1881 23.1452 77.2475 22.1539C74.0972 21.0921 71.8282 20.2001 71.1401 19.8129L68.1982 25.0422L65.2563 30.2714C67.1072 31.3127 70.5014 32.5434 73.4144 33.5253C76.5371 34.5779 79.8907 35.599 82.1059 36.1947L83.664 30.4006ZM68.1982 25.0422L71.1438 19.815C71.7079 20.1329 72.6356 20.8647 73.153 22.1967C73.6409 23.4529 73.4686 24.494 73.3708 24.8944C73.2795 25.2681 73.177 25.4056 73.2937 25.1884C73.3943 25.0011 73.5641 24.7202 73.8583 24.2661L68.8232 21.0031L63.788 17.7401C63.2676 18.5431 62.161 20.2154 61.7136 22.0467C61.4512 23.121 61.2757 24.7613 61.9672 26.5415C62.6881 28.3975 64.0261 29.5782 65.2526 30.2694L68.1982 25.0422ZM68.8232 21.0031L73.8562 24.2693C73.1714 25.3247 71.9332 25.9811 70.5727 25.8652L71.082 19.8869L71.5912 13.9086C68.4309 13.6393 65.4565 15.1691 63.7901 17.7369L68.8232 21.0031Z" fill="white" mask="url(#path-1-outside-1_777_12631)"/>
<path d="M135.877 82C135.877 82 125.16 163.592 124.673 166.515C124.186 169.438 121.447 178.936 100.166 178.936H98.7118C77.4297 178.936 74.692 169.438 74.2049 166.515C73.7178 163.592 63 82 63 82H135.877Z" fill="#4E90CD"/>
<path d="M106.999 115.42C107.028 118.173 103.604 122.473 100.576 122.505C97.5473 122.539 94.0298 118.314 94.0003 115.561C93.9709 112.808 95.9262 110.555 100.446 110.506C105.016 110.456 106.971 112.667 107 115.42H106.999Z" fill="#E8BE0F"/>
<path d="M83.9472 114.894C87.2318 114.894 89.8945 112.232 89.8945 108.947C89.8945 105.663 87.2318 103 83.9472 103C80.6627 103 78 105.663 78 108.947C78 112.232 80.6627 114.894 83.9472 114.894Z" fill="white"/>
<path d="M83.7676 112.506C85.7006 112.506 87.2676 110.939 87.2676 109.006C87.2676 107.073 85.7006 105.506 83.7676 105.506C81.8346 105.506 80.2676 107.073 80.2676 109.006C80.2676 110.939 81.8346 112.506 83.7676 112.506Z" fill="black"/>
<path d="M116.947 114.894C120.232 114.894 122.894 112.232 122.894 108.947C122.894 105.663 120.232 103 116.947 103C113.663 103 111 105.663 111 108.947C111 112.232 113.663 114.894 116.947 114.894Z" fill="white"/>
<path d="M116.768 112.506C118.701 112.506 120.268 110.939 120.268 109.006C120.268 107.073 118.701 105.506 116.768 105.506C114.835 105.506 113.268 107.073 113.268 109.006C113.268 110.939 114.835 112.506 116.768 112.506Z" fill="black"/>
<path d="M143.279 81.9436C144.192 79.9343 139.26 75.5502 138.712 74.4542C138.164 73.3582 139.808 69.1568 136.52 66.4168C131.04 62.7634 100.353 61.6674 100.353 61.6674C100.353 61.6674 69.6658 62.7634 64.1857 66.4168C60.8977 69.1568 62.5417 73.3582 61.9937 74.4542C61.4457 75.5502 56.5148 79.9343 57.4282 81.9436C58.3415 83.953 73.6249 90.1638 100.353 90.1638C127.081 90.1638 142.365 83.953 143.278 81.9436H143.279Z" fill="#E7F7FF"/>
<path d="M95.2395 67.0111C95.2395 67.0111 97.177 68.3823 99.6272 68.0572C102.077 67.732 101.567 66.474 101.567 66.474C101.567 66.474 94.3639 37.6123 94.3639 31.7669C94.3639 25.9215 91.9052 26.8092 91.0125 26.4841C90.1199 26.1589 90.1418 25.1092 87.9498 25.2712C85.8186 24.6318 75.482 20.2636 71.0821 19.8873C70.1821 19.8106 69.3139 20.2465 68.8231 21.0028C67.5651 22.944 66.8734 24.2957 68.1984 25.0422C70.7375 26.4707 79.5251 29.2875 83.6644 30.4005C86.1621 31.0715 87.2191 30.7914 87.7866 32.9835C88.3553 35.1755 92.9464 63.365 95.2383 67.0099L95.2395 67.0111Z" fill="#2D3132"/>
<path d="M129.665 65.8744L130.352 66.0033C131.907 66.3092 133.118 66.6609 133.847 67.0687C134.234 67.2851 134.68 67.623 134.762 68.1429C134.855 68.7263 134.45 69.1485 134.078 69.4086C133.677 69.6882 133.094 69.9427 132.356 70.183C131.609 70.4263 130.663 70.668 129.51 70.9066C127.204 71.384 124.032 71.8581 119.882 72.3158C111.562 73.2335 98.6528 73.4769 87.6577 73.2074C82.1581 73.0726 77.1221 72.8089 73.3677 72.4349C71.493 72.2482 69.9218 72.0322 68.7671 71.7875C68.1917 71.6655 67.7 71.5323 67.3189 71.3842C67.1282 71.3101 66.9498 71.227 66.7974 71.1302C66.651 71.0374 66.4895 70.9075 66.3775 70.726H66.3765C66.1619 70.3777 66.0755 69.9993 66.148 69.6176C66.2177 69.2507 66.421 68.9507 66.6528 68.7152C67.1046 68.2565 67.7932 67.913 68.4351 67.6605C69.0947 67.4011 69.7851 67.2083 70.3042 67.0804C70.5652 67.0162 70.7864 66.9675 70.9429 66.9349C71.0209 66.9187 71.0832 66.9062 71.1265 66.8978C71.1481 66.8936 71.1655 66.8903 71.1773 66.8881C71.1831 66.887 71.1877 66.8857 71.1909 66.8851C71.1925 66.8848 71.1939 66.8853 71.1948 66.8851L71.1958 66.8842C71.5267 66.8244 71.844 67.0444 71.9038 67.3754C71.9636 67.7063 71.7435 68.0226 71.4126 68.0824L71.4107 68.0834C71.4086 68.0838 71.4053 68.0845 71.4009 68.0853C71.3916 68.0871 71.3769 68.0895 71.3579 68.0931C71.3199 68.1005 71.2631 68.1113 71.1909 68.1263C71.0465 68.1564 70.8404 68.2019 70.5962 68.2621C70.1045 68.3832 69.4713 68.5623 68.8814 68.7943C68.2736 69.0334 67.7856 69.3011 67.521 69.5697C67.3948 69.6978 67.3546 69.7907 67.3443 69.8451C67.3371 69.8828 67.3349 69.9492 67.4028 70.0668C67.4103 70.073 67.4243 70.0858 67.4497 70.1019C67.513 70.1421 67.6136 70.1924 67.7603 70.2494C68.0536 70.3634 68.4731 70.4801 69.02 70.5961C70.1106 70.8272 71.6304 71.0379 73.4888 71.223C77.201 71.5928 82.2027 71.8552 87.687 71.9896C98.6597 72.2586 111.507 72.0138 119.749 71.1049C123.88 70.6492 127.01 70.1806 129.263 69.7142C130.39 69.481 131.289 69.2495 131.979 69.0248C132.678 68.7971 133.127 68.5875 133.38 68.4105C133.439 68.3693 133.479 68.3332 133.507 68.307C133.462 68.2671 133.386 68.2067 133.252 68.1322C132.696 67.821 131.649 67.5001 130.131 67.2006L129.452 67.0736L129.334 67.0394C129.07 66.9351 128.907 66.6573 128.959 66.3676C129.01 66.0779 129.258 65.873 129.542 65.8656L129.665 65.8744Z" fill="#88C1F5"/>
<path d="M136.685 75.3509C136.708 75.3497 136.823 75.3414 136.951 75.388C137.267 75.5028 137.43 75.8523 137.316 76.1682C137.227 76.412 136.999 76.5632 136.754 76.5676C136.735 76.5714 136.704 76.5783 136.656 76.5901C136.536 76.6201 136.359 76.6694 136.118 76.7385C135.644 76.8748 134.947 77.081 134.055 77.3303C132.266 77.8303 129.677 78.5096 126.382 79.1926C119.792 80.5587 110.379 81.9397 98.8986 81.9397C87.4288 81.9397 78.6477 80.8708 72.7267 79.7991C69.7662 79.2632 67.5206 78.7263 66.0119 78.3225C65.2576 78.1207 64.6872 77.9521 64.3038 77.8333C64.1123 77.7739 63.9672 77.727 63.8693 77.6946C63.8205 77.6785 63.7833 77.6662 63.7579 77.6575C63.7452 77.6532 63.7354 77.6491 63.7286 77.6467C63.7255 77.6457 63.7227 77.6455 63.7208 77.6448L63.7179 77.6438L63.7169 77.6428C63.3998 77.5312 63.2333 77.1836 63.3449 76.8665C63.4566 76.5494 63.8041 76.3828 64.1212 76.4944H64.1222C64.1232 76.4948 64.1248 76.4956 64.1271 76.4964C64.1321 76.4981 64.1406 76.5014 64.1515 76.5051C64.1733 76.5126 64.207 76.5234 64.2521 76.5384C64.3427 76.5683 64.4802 76.6131 64.6642 76.6702C65.0327 76.7844 65.5885 76.949 66.3273 77.1467C67.8048 77.5421 70.0173 78.0712 72.9435 78.6009C78.7963 79.6602 87.5048 80.7219 98.8986 80.7219C110.282 80.7219 119.61 79.3527 126.135 78.0003C129.397 77.3241 131.959 76.652 133.728 76.1575C134.614 75.9097 135.297 75.7069 135.781 75.5676C136.02 75.499 136.218 75.4445 136.362 75.4085C136.433 75.3908 136.505 75.374 136.568 75.3635C136.598 75.3585 136.64 75.3531 136.685 75.3509ZM136.685 76.5657C136.702 76.567 136.717 76.5658 136.729 76.5657C136.708 76.5652 136.688 76.5654 136.667 76.5628C136.674 76.5635 136.68 76.5653 136.685 76.5657ZM136.535 76.5325C136.577 76.5478 136.615 76.5554 136.644 76.5598C136.607 76.5538 136.571 76.5455 136.535 76.5325Z" fill="#88C1F5"/>
<path d="M102.689 67.6662C102.586 68.5796 100.806 69.0947 98.5081 69.0947C96.2101 69.0947 94.4479 68.6648 94.3481 68.157C93.8938 65.8188 96.2223 67.2802 98.5202 67.2802C100.818 67.2802 102.852 66.2024 102.688 67.6662H102.689Z" fill="#88C1F5"/>
</svg>
