<svg width="200" height="200" viewBox="0 0 200 200" fill="none" xmlns="http://www.w3.org/2000/svg">
<mask id="path-1-outside-1_1347_5664" maskUnits="userSpaceOnUse" x="26.5117" y="27" width="148" height="158" fill="black">
<rect fill="white" x="26.5117" y="27" width="148" height="158"/>
<path d="M99 33C115.567 33 129 39.715 129 48C129 50.3964 127.874 52.6597 125.876 54.6689C131.311 61.1747 134.598 69.7784 134.598 79.5039C134.598 79.8435 134.592 80.182 134.584 80.5195L151.674 71.9248C158.863 68.311 166.598 71.3603 167.367 77.9355C168.708 89.3313 164.248 100.171 152.094 109.225C153.388 113.076 154.08 117.133 154.08 121.323L154.07 121.313C154.07 139.519 140.994 153.656 122.128 160.031L124.76 165.713L131.646 165.484L131.868 165.488C132.967 165.563 133.853 166.46 133.891 167.585C133.928 168.71 133.104 169.666 132.012 169.813L131.79 169.831L126.208 170.017L127.145 173.479C127.458 174.639 126.772 175.832 125.613 176.146C124.454 176.459 123.26 175.774 122.946 174.615L122.227 171.952L118.695 175.186C117.81 175.997 116.434 175.937 115.623 175.052C114.863 174.222 114.867 172.96 115.601 172.138L115.757 171.979L120.752 167.405L117.923 161.3C111.943 162.889 105.478 163.736 98.7305 163.736C92.8639 163.736 87.2106 163.095 81.9043 161.884L78.2305 169.815L83.2246 174.389L83.3809 174.548C84.114 175.371 84.1196 176.632 83.3594 177.462C82.5481 178.347 81.1717 178.407 80.2861 177.596L76.7549 174.361L76.0352 177.025C75.7212 178.184 74.5273 178.869 73.3682 178.556C72.2093 178.242 71.5237 177.049 71.8369 175.89L72.7734 172.427L67.1914 172.241L66.9697 172.223C65.8776 172.075 65.0534 171.12 65.0908 169.995C65.1286 168.87 66.0141 167.974 67.1133 167.898L67.3359 167.895L74.2217 168.123L77.6309 160.763C57.5361 154.788 43.3896 140.257 43.3896 121.313C43.3897 116.507 44.3006 111.874 45.9893 107.524C34.2353 98.4915 31.5409 84.6318 32.791 75.3545C33.6288 69.1298 40.7402 66.7038 47.3643 70.8633L62.8887 80.6123C62.879 80.2441 62.8721 79.8746 62.8721 79.5039C62.8721 69.633 66.2607 60.9181 71.8438 54.3789C70.0207 52.4427 69 50.2814 69 48C69 39.7175 82.4326 33 99 33ZM99 38C86.5726 38 76.5 41.9175 76.5 46.75C76.5 47.5853 76.8013 48.3931 77.3633 49.1582C83.3325 44.6187 90.729 42 98.7402 42C106.898 42.0001 114.415 44.717 120.438 49.4111C121.127 48.5717 121.5 47.6783 121.5 46.75C121.5 41.9175 111.427 38 99 38Z"/>
</mask>
<path d="M99 33C115.567 33 129 39.715 129 48C129 50.3964 127.874 52.6597 125.876 54.6689C131.311 61.1747 134.598 69.7784 134.598 79.5039C134.598 79.8435 134.592 80.182 134.584 80.5195L151.674 71.9248C158.863 68.311 166.598 71.3603 167.367 77.9355C168.708 89.3313 164.248 100.171 152.094 109.225C153.388 113.076 154.08 117.133 154.08 121.323L154.07 121.313C154.07 139.519 140.994 153.656 122.128 160.031L124.76 165.713L131.646 165.484L131.868 165.488C132.967 165.563 133.853 166.46 133.891 167.585C133.928 168.71 133.104 169.666 132.012 169.813L131.79 169.831L126.208 170.017L127.145 173.479C127.458 174.639 126.772 175.832 125.613 176.146C124.454 176.459 123.26 175.774 122.946 174.615L122.227 171.952L118.695 175.186C117.81 175.997 116.434 175.937 115.623 175.052C114.863 174.222 114.867 172.96 115.601 172.138L115.757 171.979L120.752 167.405L117.923 161.3C111.943 162.889 105.478 163.736 98.7305 163.736C92.8639 163.736 87.2106 163.095 81.9043 161.884L78.2305 169.815L83.2246 174.389L83.3809 174.548C84.114 175.371 84.1196 176.632 83.3594 177.462C82.5481 178.347 81.1717 178.407 80.2861 177.596L76.7549 174.361L76.0352 177.025C75.7212 178.184 74.5273 178.869 73.3682 178.556C72.2093 178.242 71.5237 177.049 71.8369 175.89L72.7734 172.427L67.1914 172.241L66.9697 172.223C65.8776 172.075 65.0534 171.12 65.0908 169.995C65.1286 168.87 66.0141 167.974 67.1133 167.898L67.3359 167.895L74.2217 168.123L77.6309 160.763C57.5361 154.788 43.3896 140.257 43.3896 121.313C43.3897 116.507 44.3006 111.874 45.9893 107.524C34.2353 98.4915 31.5409 84.6318 32.791 75.3545C33.6288 69.1298 40.7402 66.7038 47.3643 70.8633L62.8887 80.6123C62.879 80.2441 62.8721 79.8746 62.8721 79.5039C62.8721 69.633 66.2607 60.9181 71.8438 54.3789C70.0207 52.4427 69 50.2814 69 48C69 39.7175 82.4326 33 99 33ZM99 38C86.5726 38 76.5 41.9175 76.5 46.75C76.5 47.5853 76.8013 48.3931 77.3633 49.1582C83.3325 44.6187 90.729 42 98.7402 42C106.898 42.0001 114.415 44.717 120.438 49.4111C121.127 48.5717 121.5 47.6783 121.5 46.75C121.5 41.9175 111.427 38 99 38Z" fill="#D7E8FC"/>
<path d="M99 33V27H99L99 33ZM129 48H135H129ZM125.876 54.6689L121.622 50.4377C119.436 52.6354 119.284 56.1366 121.271 58.5155L125.876 54.6689ZM134.598 79.5039H140.598V79.5039L134.598 79.5039ZM134.584 80.5195L128.586 80.3807C128.537 82.4868 129.596 84.4642 131.377 85.5903C133.157 86.7165 135.398 86.8264 137.28 85.8798L134.584 80.5195ZM151.674 71.9248L148.979 66.564L148.978 66.5645L151.674 71.9248ZM167.367 77.9355L161.408 78.633L161.408 78.6366L167.367 77.9355ZM152.094 109.225L148.509 104.413C146.428 105.963 145.58 108.676 146.406 111.136L152.094 109.225ZM154.08 121.323L149.837 125.566C151.553 127.282 154.134 127.795 156.376 126.867C158.618 125.938 160.08 123.75 160.08 121.323H154.08ZM154.07 121.313L158.313 117.071C156.597 115.355 154.016 114.842 151.774 115.77C149.532 116.699 148.07 118.887 148.07 121.313H154.07ZM122.128 160.031L120.207 154.347C118.593 154.893 117.287 156.098 116.615 157.664C115.942 159.23 115.968 161.007 116.684 162.553L122.128 160.031ZM124.76 165.713L119.315 168.235C120.328 170.421 122.551 171.79 124.959 171.71L124.76 165.713ZM131.646 165.484L131.751 159.485C131.649 159.484 131.548 159.484 131.446 159.488L131.646 165.484ZM131.868 165.488L132.277 159.502C132.176 159.495 132.075 159.491 131.973 159.489L131.868 165.488ZM133.891 167.585L139.887 167.386L139.887 167.383L133.891 167.585ZM132.012 169.813L132.486 175.795C132.597 175.786 132.707 175.774 132.817 175.759L132.012 169.813ZM131.79 169.831L131.989 175.828C132.081 175.825 132.173 175.82 132.264 175.812L131.79 169.831ZM126.208 170.017L126.009 164.02C124.177 164.081 122.473 164.976 121.384 166.449C120.294 167.923 119.938 169.814 120.416 171.583L126.208 170.017ZM127.145 173.479L132.937 171.914L132.936 171.913L127.145 173.479ZM125.613 176.146L127.18 181.937L127.181 181.937L125.613 176.146ZM122.946 174.615L117.154 176.181L117.155 176.183L122.946 174.615ZM122.227 171.952L128.019 170.387C127.472 168.365 125.911 166.775 123.9 166.19C121.889 165.606 119.719 166.113 118.175 167.527L122.227 171.952ZM118.695 175.186L114.643 170.76L114.643 170.761L118.695 175.186ZM115.623 175.052L111.198 179.104L111.2 179.106L115.623 175.052ZM115.601 172.138L111.319 167.935C111.251 168.004 111.185 168.074 111.121 168.146L115.601 172.138ZM115.757 171.979L111.705 167.553C111.626 167.625 111.55 167.699 111.475 167.775L115.757 171.979ZM120.752 167.405L124.804 171.831C126.732 170.065 127.295 167.255 126.196 164.883L120.752 167.405ZM117.923 161.3L123.367 158.777C122.142 156.135 119.197 154.753 116.382 155.501L117.923 161.3ZM98.7305 163.736V169.736H98.7305L98.7305 163.736ZM81.9043 161.884L83.239 156.034C80.477 155.404 77.6506 156.791 76.46 159.362L81.9043 161.884ZM78.2305 169.815L72.7861 167.294C71.6876 169.665 72.2508 172.475 74.1784 174.24L78.2305 169.815ZM83.2246 174.389L87.5065 170.186C87.4319 170.11 87.3552 170.036 87.2767 169.964L83.2246 174.389ZM83.3809 174.548L87.8604 170.556C87.7962 170.484 87.7303 170.414 87.6627 170.345L83.3809 174.548ZM83.3594 177.462L87.7829 181.516L87.7845 181.514L83.3594 177.462ZM80.2861 177.596L84.3387 173.171L84.3387 173.171L80.2861 177.596ZM76.7549 174.361L80.8075 169.937C79.263 168.522 77.0925 168.015 75.0812 168.599C73.0699 169.184 71.5088 170.774 70.9625 172.796L76.7549 174.361ZM76.0352 177.025L81.8265 178.594L81.8275 178.59L76.0352 177.025ZM73.3682 178.556L71.7996 184.347L71.8016 184.348L73.3682 178.556ZM71.8369 175.89L66.045 174.323L66.0447 174.324L71.8369 175.89ZM72.7734 172.427L78.5654 173.993C79.0438 172.224 78.6874 170.333 77.5977 168.859C76.508 167.386 74.8045 166.491 72.9728 166.43L72.7734 172.427ZM67.1914 172.241L66.691 178.22C66.7912 178.229 66.8916 178.235 66.9921 178.238L67.1914 172.241ZM66.9697 172.223L66.1643 178.168C66.2657 178.182 66.3674 178.193 66.4693 178.202L66.9697 172.223ZM65.0908 169.995L59.0942 169.794L59.0941 169.796L65.0908 169.995ZM67.1133 167.898L67.008 161.899C66.9067 161.901 66.8054 161.905 66.7042 161.912L67.1133 167.898ZM67.3359 167.895L67.535 161.898C67.4336 161.894 67.3321 161.894 67.2307 161.895L67.3359 167.895ZM74.2217 168.123L74.0227 174.12C76.4309 174.2 78.6533 172.831 79.666 170.645L74.2217 168.123ZM77.6309 160.763L83.0752 163.284C83.8075 161.703 83.8164 159.882 83.0995 158.294C82.3827 156.706 81.0109 155.508 79.3408 155.012L77.6309 160.763ZM43.3896 121.313L37.3896 121.313V121.313H43.3896ZM45.9893 107.524L51.5824 109.696C52.5468 107.213 51.7578 104.39 49.6453 102.767L45.9893 107.524ZM32.791 75.3545L38.7373 76.1558L38.7374 76.1548L32.791 75.3545ZM47.3643 70.8633L50.5551 65.7821L50.555 65.782L47.3643 70.8633ZM62.8887 80.6123L59.6978 85.6935C61.5708 86.8697 63.939 86.9201 65.8604 85.8247C67.7818 84.7292 68.9447 82.6656 68.8866 80.4546L62.8887 80.6123ZM62.8721 79.5039L56.8721 79.5039V79.5039H62.8721ZM71.8438 54.3789L76.4069 58.2748C78.3948 55.9464 78.3108 52.4948 76.2121 50.2658L71.8438 54.3789ZM69 48H63H69ZM99 38V32H99L99 38ZM76.5 46.75H70.5H76.5ZM77.3633 49.1582L72.5277 52.7102C73.4799 54.0066 74.9129 54.8664 76.505 55.0965C78.097 55.3266 79.7148 54.9078 80.9952 53.9341L77.3633 49.1582ZM98.7402 42L98.7403 36H98.7402V42ZM120.438 49.4111L116.75 54.1436C119.318 56.1447 123.013 55.7333 125.077 53.2165L120.438 49.4111ZM121.5 46.75H127.5H121.5ZM99 33V39C106.554 39 113.097 40.5437 117.53 42.7598C122.321 45.1552 123 47.3546 123 48H129H135C135 40.3604 128.963 35.0598 122.896 32.0265C116.47 28.8138 108.013 27 99 27V33ZM129 48H123C123 48.3839 122.844 49.2088 121.622 50.4377L125.876 54.6689L130.13 58.9002C132.905 56.1106 135 52.409 135 48H129ZM125.876 54.6689L121.271 58.5155C125.787 63.9216 128.598 71.1573 128.598 79.5039L134.598 79.5039L140.598 79.5039C140.598 68.3995 136.834 58.4279 130.481 50.8224L125.876 54.6689ZM134.598 79.5039H128.598C128.598 79.7772 128.593 80.0638 128.586 80.3807L134.584 80.5195L140.582 80.6583C140.591 80.3002 140.598 79.9098 140.598 79.5039H134.598ZM134.584 80.5195L137.28 85.8798L154.37 77.2851L151.674 71.9248L148.978 66.5645L131.888 75.1592L134.584 80.5195ZM151.674 71.9248L154.369 77.2856C156.608 76.1596 158.574 76.2454 159.764 76.7054C160.86 77.1294 161.311 77.8036 161.408 78.633L167.367 77.9355L173.327 77.2381C172.654 71.4922 168.853 67.3541 164.092 65.5131C159.424 63.7081 153.928 64.0761 148.979 66.564L151.674 71.9248ZM167.367 77.9355L161.408 78.6366C162.465 87.6229 159.183 96.4624 148.509 104.413L152.094 109.225L155.678 114.036C169.314 103.879 174.95 91.0397 173.326 77.2345L167.367 77.9355ZM152.094 109.225L146.406 111.136C147.5 114.388 148.08 117.8 148.08 121.323H154.08H160.08C160.08 116.466 159.277 111.764 157.781 107.313L152.094 109.225ZM154.08 121.323L158.323 117.081L158.313 117.071L154.07 121.313L149.828 125.556L149.837 125.566L154.08 121.323ZM154.07 121.313H148.07C148.07 136.176 137.454 148.519 120.207 154.347L122.128 160.031L124.049 165.715C144.534 158.793 160.07 142.862 160.07 121.313H154.07ZM122.128 160.031L116.684 162.553L119.315 168.235L124.76 165.713L130.204 163.191L127.572 157.509L122.128 160.031ZM124.76 165.713L124.959 171.71L131.845 171.481L131.646 165.484L131.446 159.488L124.561 159.716L124.76 165.713ZM131.646 165.484L131.54 171.483L131.763 171.487L131.868 165.488L131.973 159.489L131.751 159.485L131.646 165.484ZM131.868 165.488L131.459 171.474C129.518 171.342 127.961 169.768 127.894 167.787L133.891 167.585L139.887 167.383C139.745 163.152 136.416 159.785 132.277 159.502L131.868 165.488ZM133.891 167.585L127.894 167.784C127.828 165.807 129.274 164.129 131.207 163.868L132.012 169.813L132.817 175.759C136.934 175.202 140.028 171.614 139.887 167.386L133.891 167.585ZM132.012 169.813L131.537 163.832L131.316 163.85L131.79 169.831L132.264 175.812L132.486 175.795L132.012 169.813ZM131.79 169.831L131.591 163.834L126.009 164.02L126.208 170.017L126.407 176.013L131.989 175.828L131.79 169.831ZM126.208 170.017L120.416 171.583L121.353 175.046L127.145 173.479L132.936 171.913L132 168.45L126.208 170.017ZM127.145 173.479L121.352 175.045C120.801 173.004 122.009 170.905 124.045 170.354L125.613 176.146L127.181 181.937C131.536 180.758 134.115 176.273 132.937 171.914L127.145 173.479ZM125.613 176.146L124.047 170.354C126.083 169.803 128.185 171.005 128.738 173.047L122.946 174.615L117.155 176.183C118.335 180.543 122.825 183.115 127.18 181.937L125.613 176.146ZM122.946 174.615L128.738 173.05L128.019 170.387L122.227 171.952L116.434 173.518L117.154 176.181L122.946 174.615ZM122.227 171.952L118.175 167.527L114.643 170.76L118.695 175.186L122.747 179.611L126.278 176.377L122.227 171.952ZM118.695 175.186L114.643 170.761C116.198 169.336 118.617 169.439 120.046 170.998L115.623 175.052L111.2 179.106C114.251 182.435 119.421 182.657 122.748 179.61L118.695 175.186ZM115.623 175.052L120.048 170.999C121.385 172.46 121.376 174.674 120.08 176.129L115.601 172.138L111.121 168.146C108.359 171.246 108.34 175.983 111.198 179.104L115.623 175.052ZM115.601 172.138L119.882 176.341L120.039 176.182L115.757 171.979L111.475 167.775L111.319 167.935L115.601 172.138ZM115.757 171.979L119.808 176.404L124.804 171.831L120.752 167.405L116.7 162.98L111.705 167.553L115.757 171.979ZM120.752 167.405L126.196 164.883L123.367 158.777L117.923 161.3L112.479 163.822L115.308 169.928L120.752 167.405ZM117.923 161.3L116.382 155.501C110.925 156.951 104.979 157.736 98.7304 157.736L98.7305 163.736L98.7305 169.736C105.977 169.736 112.962 168.826 119.464 167.099L117.923 161.3ZM98.7305 163.736V157.736C93.2996 157.736 88.0945 157.142 83.239 156.034L81.9043 161.884L80.5696 167.733C86.3266 169.047 92.4282 169.736 98.7305 169.736V163.736ZM81.9043 161.884L76.46 159.362L72.7861 167.294L78.2305 169.815L83.6748 172.337L87.3486 164.406L81.9043 161.884ZM78.2305 169.815L74.1784 174.24L79.1725 178.814L83.2246 174.389L87.2767 169.964L82.2825 165.39L78.2305 169.815ZM83.2246 174.389L78.9427 178.592L79.099 178.751L83.3809 174.548L87.6627 170.345L87.5065 170.186L83.2246 174.389ZM83.3809 174.548L78.9013 178.54C77.6078 177.088 77.5941 174.874 78.9342 173.41L83.3594 177.462L87.7845 181.514C90.6451 178.39 90.6202 173.653 87.8604 170.556L83.3809 174.548ZM83.3594 177.462L78.9359 173.408C80.3651 171.849 82.7835 171.747 84.3387 173.171L80.2861 177.596L76.2335 182.02C79.5599 185.067 84.731 184.846 87.7829 181.516L83.3594 177.462ZM80.2861 177.596L84.3387 173.171L80.8075 169.937L76.7549 174.361L72.7023 178.786L76.2336 182.02L80.2861 177.596ZM76.7549 174.361L70.9625 172.796L70.2428 175.461L76.0352 177.025L81.8275 178.59L82.5472 175.926L76.7549 174.361ZM76.0352 177.025L70.2439 175.457C70.7966 173.416 72.8979 172.213 74.9348 172.764L73.3682 178.556L71.8016 184.348C76.1567 185.526 80.6458 182.953 81.8265 178.594L76.0352 177.025ZM73.3682 178.556L74.9367 172.764C76.9726 173.316 78.1807 175.414 77.6292 177.455L71.8369 175.89L66.0447 174.324C64.8667 178.684 67.4461 183.168 71.7996 184.347L73.3682 178.556ZM71.8369 175.89L77.6288 177.456L78.5654 173.993L72.7734 172.427L66.9815 170.86L66.045 174.323L71.8369 175.89ZM72.7734 172.427L72.9728 166.43L67.3907 166.245L67.1914 172.241L66.9921 178.238L72.5741 178.423L72.7734 172.427ZM67.1914 172.241L67.6919 166.262L67.4702 166.244L66.9697 172.223L66.4693 178.202L66.691 178.22L67.1914 172.241ZM66.9697 172.223L67.7751 166.277C69.7042 166.538 71.1534 168.213 71.0875 170.195L65.0908 169.995L59.0941 169.796C58.9534 174.027 62.0511 177.611 66.1643 178.168L66.9697 172.223ZM65.0908 169.995L71.0874 170.196C71.0209 172.178 69.4627 173.752 67.5224 173.884L67.1133 167.898L66.7042 161.912C62.5654 162.195 59.2362 165.562 59.0942 169.794L65.0908 169.995ZM67.1133 167.898L67.2185 173.898L67.4412 173.894L67.3359 167.895L67.2307 161.895L67.008 161.899L67.1133 167.898ZM67.3359 167.895L67.1369 173.891L74.0227 174.12L74.2217 168.123L74.4207 162.126L67.535 161.898L67.3359 167.895ZM74.2217 168.123L79.666 170.645L83.0752 163.284L77.6309 160.763L72.1865 158.241L68.7773 165.601L74.2217 168.123ZM77.6309 160.763L79.3408 155.012C60.8802 149.523 49.3896 136.76 49.3896 121.313H43.3896H37.3896C37.3896 143.754 54.1921 160.053 75.9209 166.514L77.6309 160.763ZM43.3896 121.313L49.3896 121.313C49.3897 117.275 50.1534 113.377 51.5824 109.696L45.9893 107.524L40.3961 105.353C38.4478 110.371 37.3897 115.739 37.3896 121.313L43.3896 121.313ZM45.9893 107.524L49.6453 102.767C40.0009 95.3552 37.6984 83.865 38.7373 76.1558L32.791 75.3545L26.8448 74.5532C25.3833 85.3987 28.4697 101.628 42.3332 112.282L45.9893 107.524ZM32.791 75.3545L38.7374 76.1548C38.8 75.69 38.9472 75.4615 39.0489 75.3426C39.16 75.2128 39.3605 75.0493 39.7312 74.931C40.482 74.6915 42.0933 74.6383 44.1735 75.9445L47.3643 70.8633L50.555 65.782C46.0111 62.9287 40.7547 62.0088 36.0843 63.4986C31.2549 65.0391 27.5851 69.0523 26.8446 74.5542L32.791 75.3545ZM47.3643 70.8633L44.1734 75.9445L59.6978 85.6935L62.8887 80.6123L66.0795 75.5311L50.5551 65.7821L47.3643 70.8633ZM62.8887 80.6123L68.8866 80.4546C68.8777 80.1144 68.8721 79.8022 68.8721 79.5039H62.8721H56.8721C56.8721 79.947 56.8803 80.3737 56.8907 80.77L62.8887 80.6123ZM62.8721 79.5039L68.8721 79.5039C68.8721 71.0344 71.7685 63.7075 76.4069 58.2748L71.8438 54.3789L67.2806 50.483C60.7529 58.1287 56.8721 68.2316 56.8721 79.5039L62.8721 79.5039ZM71.8438 54.3789L76.2121 50.2658C75.1416 49.1289 75 48.3701 75 48H69H63C63 52.1927 64.8997 55.7565 67.4754 58.492L71.8438 54.3789ZM69 48H75C75 47.3561 75.6787 45.1567 80.4706 42.7606C84.9031 40.5442 91.4461 39 99 39L99 33L99 27C89.9865 27 81.5294 28.8146 75.1038 32.0276C69.0376 35.0609 63 40.3614 63 48H69ZM99 38L99 32C92.2358 32 85.8398 33.0555 80.915 34.9708C78.4716 35.9211 76.085 37.2005 74.2069 38.9274C72.3236 40.6591 70.5 43.2959 70.5 46.75H76.5H82.5C82.5 47.7879 81.9355 48.1228 82.3292 47.7608C82.728 47.3941 83.6362 46.788 85.2644 46.1548C88.4827 44.9032 93.3368 44 99 44L99 38ZM76.5 46.75H70.5C70.5 49.109 71.3691 51.133 72.5277 52.7102L77.3633 49.1582L82.1989 45.6062C82.2103 45.6217 82.2875 45.7308 82.3624 45.9376C82.4404 46.153 82.5 46.4322 82.5 46.75H76.5ZM77.3633 49.1582L80.9952 53.9341C85.9368 50.1761 92.0616 48 98.7402 48V42V36C89.3963 36 80.7282 39.0613 73.7313 44.3823L77.3633 49.1582ZM98.7402 42L98.7402 48C105.539 48.0001 111.763 50.2569 116.75 54.1436L120.438 49.4111L124.127 44.6786C117.068 39.1771 108.257 36.0001 98.7403 36L98.7402 42ZM120.438 49.4111L125.077 53.2165C126.418 51.5819 127.5 49.3872 127.5 46.75H121.5H115.5C115.5 46.3916 115.575 46.0869 115.663 45.8685C115.746 45.6628 115.822 45.5785 115.8 45.6058L120.438 49.4111ZM121.5 46.75H127.5C127.5 43.2959 125.676 40.6591 123.793 38.9274C121.915 37.2005 119.528 35.921 117.085 34.9708C112.16 33.0555 105.764 32 99 32V38V44C104.663 44 109.517 44.9032 112.736 46.1548C114.364 46.788 115.272 47.3941 115.671 47.7608C116.064 48.1227 115.5 47.7879 115.5 46.75H121.5Z" fill="white" mask="url(#path-1-outside-1_1347_5664)"/>
<path d="M79.7204 156.253C80.2251 155.163 81.5173 154.689 82.6071 155.193C83.6968 155.698 84.1716 156.991 83.6669 158.081L78.2306 169.815L83.2242 174.388L83.3803 174.547C84.1137 175.37 84.1199 176.631 83.3596 177.461C82.5484 178.347 81.1718 178.407 80.2861 177.596L76.7551 174.361L76.0351 177.025C75.7213 178.184 74.527 178.869 73.3677 178.556C72.2088 178.242 71.5237 177.048 71.8371 175.889L72.773 172.427L67.1909 172.241L66.9698 172.223C65.8775 172.075 65.0533 171.12 65.0908 169.995C65.1284 168.87 66.0139 167.973 67.1134 167.898L67.3361 167.894L74.2211 168.123L79.7204 156.253Z" fill="#474747"/>
<path d="M119.261 153.844C118.757 152.754 117.464 152.279 116.374 152.784C115.284 153.289 114.81 154.581 115.314 155.671L120.751 167.406L115.757 171.979L115.601 172.138C114.867 172.961 114.862 174.222 115.622 175.052C116.434 175.938 117.809 175.998 118.695 175.186L122.226 171.953L122.946 174.615C123.26 175.775 124.454 176.46 125.613 176.146C126.772 175.833 127.457 174.639 127.144 173.48L126.208 170.017L131.79 169.832L132.011 169.814C133.103 169.666 133.928 168.711 133.89 167.586C133.853 166.461 132.967 165.563 131.868 165.489L131.645 165.485L124.76 165.714L119.261 153.844Z" fill="#474747"/>
<path d="M122.197 86.7516L151.674 71.9254C158.863 68.3114 166.597 71.3604 167.367 77.9357C168.731 89.5279 164.094 100.545 151.459 109.692C140.257 117.797 127.33 112.741 118.553 107.91C110.303 103.38 112.329 91.7197 122.206 86.7516H122.197Z" fill="#276286"/>
<path d="M47.3642 70.8634L92.7196 99.3469C92.7196 99.3469 72.6233 124.44 48.7962 109.478C34.6616 100.604 31.447 85.3292 32.7913 75.3542C33.629 69.1295 40.7401 66.7039 47.3642 70.8634Z" fill="#276286"/>
<path d="M154.07 121.314C154.07 146.378 129.288 163.737 98.7299 163.737C68.1715 163.737 43.3896 146.388 43.3896 121.314C43.3896 107.257 51.1827 94.6809 63.4275 86.3618C63.067 84.131 62.8722 81.8418 62.8722 79.5039C62.8722 58.0147 78.9258 42 98.7396 42C118.553 42 134.597 58.0147 134.597 79.5039C134.597 81.8418 134.412 84.131 134.042 86.3618C146.287 94.6906 154.08 107.257 154.08 121.323L154.07 121.314Z" fill="#4B9AE8"/>
<path d="M80.0486 78.4594C84.0414 78.4594 87.2783 75.2226 87.2783 71.2297C87.2783 67.2369 84.0414 64 80.0486 64C76.0557 64 72.8188 67.2369 72.8188 71.2297C72.8188 75.2226 76.0557 78.4594 80.0486 78.4594Z" fill="white"/>
<path d="M80.0487 75.0866C82.1785 75.0866 83.905 73.3601 83.905 71.2303C83.905 69.1006 82.1785 67.374 80.0487 67.374C77.9189 67.374 76.1924 69.1006 76.1924 71.2303C76.1924 73.3601 77.9189 75.0866 80.0487 75.0866Z" fill="#040000"/>
<path d="M116.197 78.4594C120.189 78.4594 123.426 75.2226 123.426 71.2297C123.426 67.2369 120.189 64 116.197 64C112.204 64 108.967 67.2369 108.967 71.2297C108.967 75.2226 112.204 78.4594 116.197 78.4594Z" fill="white"/>
<path d="M116.197 75.0866C118.327 75.0866 120.053 73.3601 120.053 71.2303C120.053 69.1006 118.327 67.374 116.197 67.374C114.067 67.374 112.341 69.1006 112.341 71.2303C112.341 73.3601 114.067 75.0866 116.197 75.0866Z" fill="#040000"/>
<path d="M106.725 80.1988C106.451 84.137 101.504 89.907 97.5743 89.6327C93.6362 89.3583 89.5564 82.9423 89.8396 79.0041C90.1228 75.066 92.9193 72.0571 98.7867 72.473C104.725 72.889 107.008 76.2607 106.725 80.1988Z" fill="#EAC00F"/>
<path d="M99 33C82.4325 33 69 39.7175 69 48C69 56.2825 82.4325 63 99 63C115.567 63 129 56.285 129 48C129 39.715 115.567 33 99 33ZM99 55.5C86.5725 55.5 76.5 51.5825 76.5 46.75C76.5 41.9175 86.5725 38 99 38C111.427 38 121.5 41.9175 121.5 46.75C121.5 51.5825 111.427 55.5 99 55.5Z" fill="#D7E8FC"/>
</svg>
