<svg width="200" height="200" viewBox="0 0 200 200" fill="none" xmlns="http://www.w3.org/2000/svg">
<mask id="path-1-outside-1_898_4107" maskUnits="userSpaceOnUse" x="14.9258" y="18" width="172" height="172" fill="black">
<rect fill="white" x="14.9258" y="18" width="172" height="172"/>
<path d="M102.998 24C111.868 24.0003 119.058 31.5516 119.059 41.6787C119.059 42.1779 118.991 42.9027 118.904 43.5605L129.601 40.2451C133.533 39.0264 137.282 41.2265 137.006 44.5918C136.605 49.5002 134.675 55.8429 127.856 58.6992C128.074 59.8491 128.189 61.0289 128.189 62.2324H128.182C128.182 66.5257 126.741 70.3517 124.249 73.4873C120.854 77.7694 115.517 80.7742 109.24 81.9756C117.474 87.3829 124.431 97.503 130.11 108.892C130.839 108.82 131.566 108.783 132.291 108.783C163.703 108.783 179.955 177.76 180 177.95L109.979 177.476C110.727 181.315 111.024 183.793 111.024 183.793L36.5156 183.244C37.1728 181.182 39.7232 173.567 44.1416 164.975L20.9258 164.796C25.1706 155.876 57.7136 89.3383 88.6172 79.1377C85.8759 77.6631 83.5301 75.7544 81.7305 73.4873C79.2466 70.3517 77.7979 66.5256 77.7979 62.2324C77.7979 60.3634 78.0714 58.5494 78.585 56.8184C73.9284 53.4892 71.5746 48.4571 70.9365 44.5156C70.3999 41.1807 73.6886 38.8192 77.7441 39.9385L86.9326 42.46C86.9327 42.4406 86.9326 42.4214 86.9326 42.4023C85.1357 41.9969 83.1573 40.7438 83.0264 39.4482C82.85 37.7769 85.6946 35.5382 87.6572 35.3389C87.7579 35.3287 87.8579 35.3226 87.957 35.3184C90.2421 28.5481 96.1144 24 102.998 24Z"/>
</mask>
<path d="M102.998 24C111.868 24.0003 119.058 31.5516 119.059 41.6787C119.059 42.1779 118.991 42.9027 118.904 43.5605L129.601 40.2451C133.533 39.0264 137.282 41.2265 137.006 44.5918C136.605 49.5002 134.675 55.8429 127.856 58.6992C128.074 59.8491 128.189 61.0289 128.189 62.2324H128.182C128.182 66.5257 126.741 70.3517 124.249 73.4873C120.854 77.7694 115.517 80.7742 109.24 81.9756C117.474 87.3829 124.431 97.503 130.11 108.892C130.839 108.82 131.566 108.783 132.291 108.783C163.703 108.783 179.955 177.76 180 177.95L109.979 177.476C110.727 181.315 111.024 183.793 111.024 183.793L36.5156 183.244C37.1728 181.182 39.7232 173.567 44.1416 164.975L20.9258 164.796C25.1706 155.876 57.7136 89.3383 88.6172 79.1377C85.8759 77.6631 83.5301 75.7544 81.7305 73.4873C79.2466 70.3517 77.7979 66.5256 77.7979 62.2324C77.7979 60.3634 78.0714 58.5494 78.585 56.8184C73.9284 53.4892 71.5746 48.4571 70.9365 44.5156C70.3999 41.1807 73.6886 38.8192 77.7441 39.9385L86.9326 42.46C86.9327 42.4406 86.9326 42.4214 86.9326 42.4023C85.1357 41.9969 83.1573 40.7438 83.0264 39.4482C82.85 37.7769 85.6946 35.5382 87.6572 35.3389C87.7579 35.3287 87.8579 35.3226 87.957 35.3184C90.2421 28.5481 96.1144 24 102.998 24Z" fill="#E8BE0F"/>
<path d="M102.998 24L102.998 18H102.998V24ZM119.059 41.6787L125.059 41.6787L125.059 41.6786L119.059 41.6787ZM118.904 43.5605L112.956 42.7739C112.688 44.802 113.471 46.827 115.035 48.1463C116.599 49.4655 118.727 49.8972 120.681 49.2916L118.904 43.5605ZM129.601 40.2451L127.824 34.514L127.824 34.5141L129.601 40.2451ZM137.006 44.5918L131.026 44.102L131.026 44.1036L137.006 44.5918ZM127.856 58.6992L125.538 53.1652C122.926 54.2593 121.435 57.0308 121.961 59.8134L127.856 58.6992ZM128.189 62.2324V68.2324C129.781 68.2324 131.307 67.6003 132.432 66.475C133.557 65.3498 134.189 63.8236 134.189 62.2323L128.189 62.2324ZM128.182 62.2324V56.2324C124.868 56.2324 122.182 58.9187 122.182 62.2324H128.182ZM124.249 73.4873L119.552 69.7546L119.547 69.76L124.249 73.4873ZM109.24 81.9756L108.112 76.0825C105.713 76.5418 103.831 78.4105 103.355 80.8072C102.879 83.2038 103.904 85.6496 105.947 86.9908L109.24 81.9756ZM130.11 108.892L124.741 111.569C125.852 113.796 128.222 115.107 130.698 114.863L130.11 108.892ZM132.291 108.783L132.291 102.783L132.291 102.783L132.291 108.783ZM180 177.95L179.959 183.95C181.799 183.963 183.543 183.13 184.691 181.691C185.838 180.253 186.262 178.367 185.841 176.576L180 177.95ZM109.979 177.476L110.019 171.476C108.22 171.464 106.509 172.26 105.361 173.645C104.212 175.03 103.745 176.858 104.089 178.624L109.979 177.476ZM111.024 183.793L110.98 189.793C112.704 189.806 114.349 189.077 115.498 187.792C116.646 186.507 117.187 184.79 116.982 183.079L111.024 183.793ZM36.5156 183.244L30.7988 181.423C30.2199 183.239 30.5391 185.223 31.6586 186.767C32.7781 188.31 34.5647 189.23 36.4714 189.244L36.5156 183.244ZM44.1416 164.975L49.4775 167.718C50.4302 165.866 50.3536 163.651 49.2753 161.869C48.1969 160.086 46.271 158.991 44.1878 158.975L44.1416 164.975ZM20.9258 164.796L15.508 162.218C14.6269 164.069 14.7523 166.242 15.8405 167.98C16.9288 169.718 18.8292 170.78 20.8796 170.796L20.9258 164.796ZM88.6172 79.1377L90.4979 84.8353C92.7744 84.0839 94.3852 82.0494 94.5943 79.6611C94.8035 77.2729 93.5709 74.9894 91.4595 73.8537L88.6172 79.1377ZM81.7305 73.4873L77.0273 77.213L77.0311 77.2178L81.7305 73.4873ZM77.7979 62.2324L71.7979 62.2323V62.2324H77.7979ZM78.585 56.8184L84.3371 58.525C85.0651 56.0713 84.1565 53.426 82.0745 51.9375L78.585 56.8184ZM70.9365 44.5156L65.0127 45.4689L65.0136 45.4745L70.9365 44.5156ZM77.7441 39.9385L76.1479 45.7223L76.1563 45.7246L77.7441 39.9385ZM86.9326 42.46L85.3448 48.2461C87.1467 48.7405 89.076 48.3673 90.5635 47.2366C92.0511 46.1059 92.9269 44.3467 92.9326 42.4783L86.9326 42.46ZM86.9326 42.4023L92.9326 42.42C92.9408 39.6085 90.9958 37.1684 88.2533 36.5495L86.9326 42.4023ZM83.0264 39.4482L88.9959 38.8448C88.9951 38.8361 88.9942 38.8274 88.9932 38.8187L83.0264 39.4482ZM87.6572 35.3389L87.0513 29.3695L87.051 29.3696L87.6572 35.3389ZM87.957 35.3184L88.2127 41.3129C90.691 41.2072 92.8487 39.5874 93.642 37.2371L87.957 35.3184ZM102.998 24L102.998 30C108.102 30.0001 113.059 34.3945 113.059 41.6788L119.059 41.6787L125.059 41.6786C125.058 28.7086 115.634 18.0004 102.998 18L102.998 24ZM119.059 41.6787H113.059C113.059 41.6751 113.059 41.7073 113.055 41.7812C113.051 41.8522 113.045 41.9429 113.036 42.0519C113.017 42.2723 112.989 42.5243 112.956 42.7739L118.904 43.5605L124.853 44.3472C124.951 43.602 125.059 42.5716 125.059 41.6787H119.059ZM118.904 43.5605L120.681 49.2916L131.377 45.9761L129.601 40.2451L127.824 34.5141L117.128 37.8295L118.904 43.5605ZM129.601 40.2451L131.377 45.9762C131.887 45.8179 132.04 45.9887 131.844 45.8739C131.734 45.8094 131.499 45.6352 131.297 45.2785C131.08 44.8944 130.996 44.4623 131.026 44.102L137.006 44.5918L142.986 45.0816C143.339 40.7715 140.997 37.3317 137.919 35.525C134.935 33.7735 131.246 33.4536 127.824 34.514L129.601 40.2451ZM137.006 44.5918L131.026 44.1036C130.697 48.1315 129.281 51.5972 125.538 53.1652L127.856 58.6992L130.175 64.2333C140.068 60.0887 142.513 50.8689 142.986 45.08L137.006 44.5918ZM127.856 58.6992L121.961 59.8134C122.111 60.608 122.189 61.4149 122.189 62.2326L128.189 62.2324L134.189 62.2323C134.189 60.6429 134.037 59.0901 133.752 57.5851L127.856 58.6992ZM128.189 62.2324V56.2324H128.182V62.2324V68.2324H128.189V62.2324ZM128.182 62.2324H122.182C122.182 65.1149 121.235 67.6364 119.552 69.7546L124.249 73.4873L128.947 77.22C132.247 73.067 134.182 67.9364 134.182 62.2324H128.182ZM124.249 73.4873L119.547 69.76C117.201 72.7191 113.244 75.1004 108.112 76.0825L109.24 81.9756L110.368 87.8686C117.791 86.4481 124.508 82.8198 128.951 77.2146L124.249 73.4873ZM109.24 81.9756L105.947 86.9908C112.814 91.5007 119.187 100.432 124.741 111.569L130.11 108.892L135.48 106.214C129.675 94.5743 122.134 83.265 112.534 76.9604L109.24 81.9756ZM130.11 108.892L130.698 114.863C131.238 114.81 131.769 114.783 132.291 114.783L132.291 108.783L132.291 102.783C131.364 102.783 130.441 102.83 129.523 102.92L130.11 108.892ZM132.291 108.783V114.783C137.785 114.783 143.207 117.781 148.572 123.622C153.916 129.441 158.586 137.441 162.464 145.816C170.201 162.527 174.165 179.348 174.159 179.324L180 177.95L185.841 176.576C185.79 176.362 181.606 158.6 173.353 140.775C169.236 131.882 163.95 122.626 157.41 115.505C150.892 108.408 142.503 102.783 132.291 102.783V108.783ZM180 177.95L180.041 171.95L110.019 171.476L109.979 177.476L109.938 183.475L179.959 183.95L180 177.95ZM109.979 177.476L104.089 178.624C104.446 180.453 104.694 181.951 104.851 182.98C104.93 183.494 104.985 183.89 105.02 184.15C105.038 184.281 105.051 184.377 105.058 184.437C105.062 184.467 105.065 184.488 105.066 184.5C105.067 184.506 105.067 184.509 105.067 184.511C105.068 184.511 105.068 184.511 105.067 184.511C105.067 184.51 105.067 184.51 105.067 184.509C105.067 184.509 105.067 184.509 105.067 184.508C105.067 184.508 105.067 184.508 105.067 184.508C105.067 184.507 105.067 184.507 111.024 183.793C116.982 183.079 116.982 183.078 116.982 183.078C116.982 183.078 116.982 183.078 116.982 183.077C116.982 183.077 116.981 183.076 116.981 183.076C116.981 183.074 116.981 183.073 116.981 183.072C116.981 183.069 116.98 183.065 116.98 183.061C116.979 183.052 116.977 183.042 116.976 183.028C116.972 183.002 116.968 182.966 116.962 182.921C116.951 182.831 116.934 182.703 116.912 182.541C116.868 182.217 116.803 181.754 116.714 181.168C116.535 179.999 116.26 178.337 115.868 176.327L109.979 177.476ZM111.024 183.793L111.069 177.793L36.5598 177.244L36.5156 183.244L36.4714 189.244L110.98 189.793L111.024 183.793ZM36.5156 183.244L42.2324 185.066C42.8344 183.176 45.2678 175.905 49.4775 167.718L44.1416 164.975L38.8057 162.231C34.1786 171.229 31.5111 179.187 30.7988 181.423L36.5156 183.244ZM44.1416 164.975L44.1878 158.975L20.972 158.796L20.9258 164.796L20.8796 170.796L44.0954 170.974L44.1416 164.975ZM20.9258 164.796L26.3436 167.374C28.4184 163.014 37.4781 144.435 49.7853 125.747C55.9417 116.399 62.8164 107.17 69.9382 99.7155C77.1527 92.164 84.1587 86.9277 90.4979 84.8353L88.6172 79.1377L86.7365 73.4401C77.6238 76.4479 68.9731 83.3542 61.2615 91.4261C53.4572 99.595 46.1365 109.47 39.7635 119.147C27.0122 138.509 17.678 157.658 15.508 162.218L20.9258 164.796ZM88.6172 79.1377L91.4595 73.8537C89.3582 72.7233 87.67 71.3192 86.4298 69.7568L81.7305 73.4873L77.0311 77.2178C79.3903 80.1896 82.3936 82.6029 85.7748 84.4217L88.6172 79.1377ZM81.7305 73.4873L86.4336 69.7617C84.7482 67.6341 83.7979 65.1079 83.7979 62.2324H77.7979H71.7979C71.7979 67.9433 73.7449 73.0694 77.0273 77.213L81.7305 73.4873ZM77.7979 62.2324L83.7979 62.2326C83.7979 60.9532 83.9845 59.7135 84.3371 58.525L78.585 56.8184L72.8328 55.1117C72.1583 57.3852 71.7979 59.7736 71.7979 62.2323L77.7979 62.2324ZM78.585 56.8184L82.0745 51.9375C78.9363 49.6938 77.2878 46.2027 76.8594 43.5567L70.9365 44.5156L65.0136 45.4745C65.8615 50.7115 68.9206 57.2846 75.0954 61.6992L78.585 56.8184ZM70.9365 44.5156L76.8603 43.5624C76.9014 43.8177 76.8857 44.2202 76.6949 44.6536C76.51 45.0736 76.2372 45.3499 76.0166 45.5016C75.5824 45.8 75.5294 45.5516 76.1479 45.7222L77.7441 39.9385L79.3404 34.1547C75.9033 33.2061 72.1782 33.5788 69.2199 35.6119C66.127 37.7375 64.361 41.4186 65.0127 45.4689L70.9365 44.5156ZM77.7441 39.9385L76.1563 45.7246L85.3448 48.2461L86.9326 42.46L88.5204 36.6739L79.3319 34.1524L77.7441 39.9385ZM86.9326 42.46L92.9326 42.4783C92.9327 42.4528 92.9326 42.4297 92.9326 42.4221C92.9326 42.4166 92.9326 42.4151 92.9326 42.4142C92.9326 42.4136 92.9326 42.4159 92.9326 42.42L86.9326 42.4023L80.9326 42.3847C80.9326 42.3983 80.9326 42.4102 80.9326 42.4192C80.9326 42.4278 80.9326 42.4359 80.9326 42.44C80.9326 42.4516 80.9326 42.4478 80.9326 42.4417L86.9326 42.46ZM86.9326 42.4023L88.2533 36.5495C88.2084 36.5394 88.1177 36.5125 88.01 36.4648C87.9006 36.4164 87.8435 36.3776 87.8443 36.3782C87.848 36.3808 87.8837 36.4064 87.9426 36.4614C88 36.515 88.101 36.6169 88.2207 36.7747C88.4361 37.0589 88.8863 37.7598 88.9959 38.8448L83.0264 39.4482L77.0568 40.0517C77.3895 43.3426 79.7241 45.3241 80.8652 46.1399C82.2832 47.1538 83.9717 47.8851 85.6119 48.2552L86.9326 42.4023ZM83.0264 39.4482L88.9932 38.8187C89.1381 40.1919 88.6313 41.0736 88.5256 41.2474C88.3826 41.4824 88.3088 41.5124 88.4235 41.415C88.5194 41.3336 88.6357 41.2597 88.7167 41.2201C88.8327 41.1633 88.681 41.2658 88.2635 41.3082L87.6572 35.3389L87.051 29.3696C84.4627 29.6324 82.1552 30.9949 80.6559 32.2681C79.8361 32.9643 78.9616 33.8797 78.2735 35.0108C77.6227 36.0806 76.8264 37.8689 77.0595 40.0778L83.0264 39.4482ZM87.6572 35.3389L88.2632 41.3082C88.2338 41.3112 88.2137 41.3126 88.2055 41.3132C88.1976 41.3137 88.1987 41.3135 88.2127 41.3129L87.957 35.3184L87.7013 29.3238C87.5337 29.331 87.3083 29.3434 87.0513 29.3695L87.6572 35.3389ZM87.957 35.3184L93.642 37.2371C95.1884 32.6552 98.9438 30 102.998 30V24V18C93.2851 18 85.2958 24.4409 82.2721 33.3996L87.957 35.3184Z" fill="white" mask="url(#path-1-outside-1_898_4107)"/>
<path d="M20.46 165.784C20.46 165.784 61.1462 77.8262 96.3047 77.8262C131.463 77.8262 149.05 165.784 149.05 165.784" fill="#319931"/>
<path d="M64.9641 177.951C64.9641 177.951 100.836 108.783 132.291 108.783C163.747 108.783 180 177.951 180 177.951" fill="#73BC5B"/>
<path d="M36.345 183.792C36.345 183.792 50.9497 134.957 79.6224 134.957C105.221 134.957 111.024 183.792 111.024 183.792" fill="#ABDBAB"/>
<path d="M105.281 76.034C105.747 76.0376 106.122 76.4188 106.118 76.8845L106.038 87.0232L108.18 87.6951C108.624 87.8345 108.872 88.3083 108.733 88.7527C108.593 89.197 108.119 89.4439 107.675 89.3045L106.055 88.7957L106.095 90.7918C106.104 91.2571 105.734 91.6419 105.269 91.6511C104.803 91.6601 104.417 91.2896 104.408 90.824L104.379 89.2957L102.099 90.9939C101.725 91.2719 101.196 91.1937 100.918 90.8201C100.641 90.4466 100.718 89.9184 101.091 89.6404L104.35 87.2146L104.432 76.8709C104.436 76.4054 104.816 76.0305 105.281 76.034Z" fill="#0B400B"/>
<path d="M90.8725 75.5581C91.0166 75.1557 91.4448 74.92 91.8686 75.0249C92.3207 75.137 92.5969 75.5944 92.4848 76.0464L90.2104 85.2134L92.479 87.6245C92.7979 87.9635 92.7825 88.4967 92.4438 88.8159C92.1047 89.1349 91.5706 89.1187 91.2514 88.7798L89.5659 86.9898L88.3755 89.9009C88.1991 90.3317 87.7068 90.5389 87.2758 90.3628C86.845 90.1866 86.639 89.6942 86.8149 89.2632L87.7212 87.0464L85.728 87.9038C85.3005 88.0875 84.8048 87.8896 84.6206 87.4624C84.4366 87.0345 84.6341 86.538 85.062 86.354L88.5639 84.8482L90.8471 75.6402L90.8725 75.5581Z" fill="#0B400B"/>
<path d="M77.7441 39.9386L105.543 47.5668C105.543 47.5668 99.0877 63.6205 84.4907 59.6109C75.8275 57.2343 71.8026 49.8668 70.9363 44.5155C70.3996 41.1806 73.6886 38.8193 77.7441 39.9386Z" fill="#276286"/>
<path d="M128.182 62.2329C128.182 66.5261 126.741 70.3517 124.249 73.4873C119.91 78.9612 112.397 82.3498 103.803 82.5491C103.534 82.5491 103.258 82.5568 102.99 82.5568C102.722 82.5568 102.446 82.5568 102.177 82.5491C93.5755 82.3498 86.07 78.9535 81.7307 73.4873C79.2468 70.3517 77.7978 66.5261 77.7978 62.2329C77.7978 55.494 81.3474 49.4681 86.9209 45.4815C86.9209 45.4815 86.9363 42.7829 86.9363 41.679C86.9363 31.5515 94.1275 24 102.998 24C111.868 24 119.059 31.5515 119.059 41.679C119.059 42.7829 118.737 44.9909 118.576 45.1366C118.913 45.3435 119.067 45.4739 119.067 45.4739C124.64 49.4681 128.19 55.4863 128.19 62.2329H128.182Z" fill="#4B9AE8"/>
<path d="M97.5 39C99.433 39 101 37.433 101 35.5C101 33.567 99.433 32 97.5 32C95.567 32 94 33.567 94 35.5C94 37.433 95.567 39 97.5 39Z" fill="white"/>
<path d="M97.5001 37.3668C98.5311 37.3668 99.367 36.531 99.367 35.4999C99.367 34.4689 98.5311 33.6331 97.5001 33.6331C96.469 33.6331 95.6332 34.4689 95.6332 35.4999C95.6332 36.531 96.469 37.3668 97.5001 37.3668Z" fill="#040000"/>
<path d="M113.501 45.2361L129.6 40.2452C133.533 39.0263 137.282 41.2266 137.006 44.5922C136.577 49.8514 134.392 56.7589 126.319 59.2582C119.573 61.3511 113.907 58.7675 109.882 55.5936C106.103 52.6113 108.104 46.9074 113.501 45.2361Z" fill="#276286"/>
<path d="M88.4006 42.5222C86.438 42.7215 83.195 41.1192 83.0264 39.4479C82.85 37.7766 85.6943 35.538 87.6569 35.3386C89.6196 35.1393 91.3292 36.067 91.5822 38.5662C91.8352 41.0655 90.3632 42.3228 88.4006 42.5222Z" fill="#E8BE0F"/>
</svg>
