<svg width="200" height="200" viewBox="0 0 200 200" fill="none" xmlns="http://www.w3.org/2000/svg">
<mask id="path-1-outside-1_1062_19924" maskUnits="userSpaceOnUse" x="23.3154" y="12" width="153" height="172" fill="black">
<rect fill="white" x="23.3154" y="12" width="153" height="172"/>
<path d="M144.916 19.1484C145.446 18.7381 146.2 19.2417 146.028 19.8906L141.764 36.6445L169.404 39.7968C170.132 39.8763 170.265 40.8949 169.577 41.1601L144.208 51.0537C145.289 51.4 146.447 51.7269 147.683 52.0205C159.365 54.7885 165.948 58.2722 167.325 68.6689C168.435 77.0698 162.05 83.1811 157.038 86.6513C158.104 89.2013 158.775 91.7316 158.957 93.9834C159.23 97.3598 158.386 99.8309 156.611 100.853C156.501 100.916 156.388 100.973 156.272 101.024C156.275 101.03 156.278 101.035 156.279 101.038C156.445 101.398 148.212 105.186 145.948 112.785C145.617 113.898 145.736 115.395 145.789 116.07C146.491 125.712 144.77 135.658 140.307 145.009C136.655 152.664 131.538 159.147 125.454 164.283C126.665 168.21 125.355 174.811 122.028 176.592C118.972 178.227 113.484 176.19 110.607 173.381C95.9233 179.573 78.7615 179.7 63.2509 172.305C34.4317 158.557 22.2207 124.056 35.955 95.25C46.5278 73.0859 69.3756 60.7459 92.4677 62.4756C92.4992 62.4779 92.5308 62.48 92.5624 62.4824C92.7544 62.4971 92.9465 62.5126 93.1386 62.5293C93.1679 62.5318 93.1972 62.5345 93.2265 62.5371C93.398 62.5522 93.5695 62.5682 93.7411 62.5849C93.8355 62.5941 93.9299 62.6036 94.0243 62.6132C94.1513 62.6262 94.2782 62.6394 94.4052 62.6533C94.5624 62.6704 94.7196 62.6876 94.8768 62.706C94.9188 62.711 94.9608 62.7156 95.0028 62.7207C95.2141 62.7459 95.4254 62.7722 95.6366 62.7998C95.6542 62.8021 95.6718 62.8043 95.6893 62.8066C101.553 63.5774 107.398 65.2703 113.026 67.9541C114.832 68.816 116.567 69.7672 118.236 70.7861C118.286 70.8167 118.337 70.8471 118.387 70.8779C119.102 71.3175 119.806 71.7676 120.496 72.2314C120.512 72.2442 120.526 72.2578 120.542 72.2705C121.931 73.212 123.269 74.2068 124.558 75.2509L124.572 75.2382C130.613 80.4727 138.976 72.1577 140.681 72.3632C142.433 71.5979 144.838 72.1636 147.436 73.9677C149.844 75.6394 152.247 78.2568 154.251 81.3632C157.925 78.7159 162.06 74.5427 161.391 69.4629C160.623 63.6092 158.345 60.6956 146.293 57.8349C143.127 57.0842 140.396 56.1378 138.09 55.1543L128.267 72.3105C127.963 72.827 127.195 72.7745 126.983 72.205L121.023 56.0869L90.8134 56.3916C90.0718 56.4048 89.8199 55.425 90.4686 55.0674L116.216 41.0283L110.308 19.956C110.124 19.3074 110.878 18.7912 111.421 19.2011L128.202 31.9297L144.916 19.1484Z"/>
</mask>
<path d="M144.916 19.1484C145.446 18.7381 146.2 19.2417 146.028 19.8906L141.764 36.6445L169.404 39.7968C170.132 39.8763 170.265 40.8949 169.577 41.1601L144.208 51.0537C145.289 51.4 146.447 51.7269 147.683 52.0205C159.365 54.7885 165.948 58.2722 167.325 68.6689C168.435 77.0698 162.05 83.1811 157.038 86.6513C158.104 89.2013 158.775 91.7316 158.957 93.9834C159.23 97.3598 158.386 99.8309 156.611 100.853C156.501 100.916 156.388 100.973 156.272 101.024C156.275 101.03 156.278 101.035 156.279 101.038C156.445 101.398 148.212 105.186 145.948 112.785C145.617 113.898 145.736 115.395 145.789 116.07C146.491 125.712 144.77 135.658 140.307 145.009C136.655 152.664 131.538 159.147 125.454 164.283C126.665 168.21 125.355 174.811 122.028 176.592C118.972 178.227 113.484 176.19 110.607 173.381C95.9233 179.573 78.7615 179.7 63.2509 172.305C34.4317 158.557 22.2207 124.056 35.955 95.25C46.5278 73.0859 69.3756 60.7459 92.4677 62.4756C92.4992 62.4779 92.5308 62.48 92.5624 62.4824C92.7544 62.4971 92.9465 62.5126 93.1386 62.5293C93.1679 62.5318 93.1972 62.5345 93.2265 62.5371C93.398 62.5522 93.5695 62.5682 93.7411 62.5849C93.8355 62.5941 93.9299 62.6036 94.0243 62.6132C94.1513 62.6262 94.2782 62.6394 94.4052 62.6533C94.5624 62.6704 94.7196 62.6876 94.8768 62.706C94.9188 62.711 94.9608 62.7156 95.0028 62.7207C95.2141 62.7459 95.4254 62.7722 95.6366 62.7998C95.6542 62.8021 95.6718 62.8043 95.6893 62.8066C101.553 63.5774 107.398 65.2703 113.026 67.9541C114.832 68.816 116.567 69.7672 118.236 70.7861C118.286 70.8167 118.337 70.8471 118.387 70.8779C119.102 71.3175 119.806 71.7676 120.496 72.2314C120.512 72.2442 120.526 72.2578 120.542 72.2705C121.931 73.212 123.269 74.2068 124.558 75.2509L124.572 75.2382C130.613 80.4727 138.976 72.1577 140.681 72.3632C142.433 71.5979 144.838 72.1636 147.436 73.9677C149.844 75.6394 152.247 78.2568 154.251 81.3632C157.925 78.7159 162.06 74.5427 161.391 69.4629C160.623 63.6092 158.345 60.6956 146.293 57.8349C143.127 57.0842 140.396 56.1378 138.09 55.1543L128.267 72.3105C127.963 72.827 127.195 72.7745 126.983 72.205L121.023 56.0869L90.8134 56.3916C90.0718 56.4048 89.8199 55.425 90.4686 55.0674L116.216 41.0283L110.308 19.956C110.124 19.3074 110.878 18.7912 111.421 19.2011L128.202 31.9297L144.916 19.1484Z" fill="#040000"/>
<path d="M144.916 19.1484L148.561 23.9145C148.57 23.907 148.58 23.8994 148.59 23.8918L144.916 19.1484ZM146.028 19.8906L140.229 18.352C140.224 18.3715 140.219 18.391 140.214 18.4105L146.028 19.8906ZM141.764 36.6445L135.949 35.1644C135.522 36.8437 135.841 38.6258 136.825 40.0521C137.809 41.4784 139.362 42.4095 141.084 42.6059L141.764 36.6445ZM169.404 39.7968L168.724 45.7582C168.734 45.7593 168.744 45.7604 168.754 45.7615L169.404 39.7968ZM169.577 41.1601L167.419 35.5615C167.412 35.5644 167.404 35.5673 167.397 35.5702L169.577 41.1601ZM144.208 51.0537L142.028 45.4637C139.661 46.3867 138.132 48.7 138.211 51.239C138.289 53.7781 139.958 55.9926 142.377 56.7676L144.208 51.0537ZM147.683 52.0205L146.297 57.8581L146.3 57.8588L147.683 52.0205ZM167.325 68.6689L173.273 67.8831L173.273 67.8809L167.325 68.6689ZM157.038 86.6513L153.623 81.7183C151.294 83.3306 150.41 86.352 151.502 88.9654L157.038 86.6513ZM158.957 93.9834L164.937 93.5004L164.937 93.5003L158.957 93.9834ZM156.611 100.853L159.604 106.053L159.605 106.052L156.611 100.853ZM156.272 101.024L153.833 95.5427C152.353 96.2011 151.203 97.4295 150.643 98.9489C150.083 100.468 150.16 102.149 150.858 103.611L156.272 101.024ZM156.279 101.038L161.727 98.5235L161.721 98.5114L156.279 101.038ZM145.948 112.785L140.198 111.072L140.197 111.074L145.948 112.785ZM145.789 116.07L151.773 115.635C151.772 115.623 151.771 115.612 151.771 115.601L145.789 116.07ZM140.307 145.009L134.892 142.424L134.891 142.425L140.307 145.009ZM125.454 164.283L121.584 159.698C119.745 161.251 119.011 163.752 119.721 166.052L125.454 164.283ZM122.028 176.592L124.859 181.882L124.859 181.882L122.028 176.592ZM110.607 173.381L114.799 169.088C113.072 167.401 110.501 166.914 108.276 167.852L110.607 173.381ZM63.2509 172.305L60.6676 177.72L60.6687 177.721L63.2509 172.305ZM35.955 95.25L30.5396 92.6667L30.5391 92.6678L35.955 95.25ZM92.4677 62.4756L92.0195 68.4588L92.023 68.4591L92.4677 62.4756ZM92.5624 62.4824L93.0205 56.4999L93.017 56.4996L92.5624 62.4824ZM93.1386 62.5293L92.6203 68.5068L92.6237 68.5071L93.1386 62.5293ZM93.2265 62.5371L93.754 56.5603L93.7505 56.56L93.2265 62.5371ZM93.7411 62.5849L93.1598 68.5567L93.1631 68.557L93.7411 62.5849ZM94.0243 62.6132L94.6352 56.6444L94.6319 56.6441L94.0243 62.6132ZM94.4052 62.6533L93.7544 68.6179L93.7577 68.6182L94.4052 62.6533ZM94.8768 62.706L95.5769 56.747L95.5737 56.7466L94.8768 62.706ZM95.0028 62.7207L94.2896 68.6781L94.2928 68.6785L95.0028 62.7207ZM95.6366 62.7998L96.4162 56.8506L96.4131 56.8502L95.6366 62.7998ZM95.6893 62.8066L94.9043 68.755L94.9074 68.7554L95.6893 62.8066ZM113.026 67.9541L115.611 62.5394L115.609 62.5383L113.026 67.9541ZM118.236 70.7861L121.364 65.6657L121.363 65.6652L118.236 70.7861ZM118.387 70.8779L115.243 75.9886L115.245 75.9896L118.387 70.8779ZM120.496 72.2314L124.293 67.5861C124.149 67.4678 123.999 67.3564 123.844 67.2521L120.496 72.2314ZM120.542 72.2705L116.734 76.9074C116.876 77.0238 117.023 77.1337 117.175 77.2367L120.542 72.2705ZM124.558 75.2509L120.782 79.9136C123.103 81.7931 126.453 81.6798 128.641 79.6477L124.558 75.2509ZM124.572 75.2382L128.501 70.7036C126.187 68.6983 122.734 68.7577 120.489 70.8415L124.572 75.2382ZM140.681 72.3632L139.962 78.3201C141.024 78.4482 142.102 78.2899 143.082 77.8617L140.681 72.3632ZM147.436 73.9677L150.858 69.0391L150.858 69.039L147.436 73.9677ZM154.251 81.3632L149.209 84.6153C150.1 85.9977 151.52 86.9534 153.137 87.2589C154.753 87.5644 156.424 87.1928 157.759 86.2311L154.251 81.3632ZM161.391 69.4629L155.443 70.2436L155.443 70.2454L161.391 69.4629ZM146.293 57.8349L147.679 51.9971L147.677 51.9968L146.293 57.8349ZM138.09 55.1543L140.443 49.6351C137.644 48.4415 134.395 49.5323 132.883 52.1732L138.09 55.1543ZM128.267 72.3105L133.436 75.3584C133.449 75.3362 133.462 75.314 133.474 75.2916L128.267 72.3105ZM126.983 72.205L121.356 74.2859L121.36 74.298L126.983 72.205ZM121.023 56.0869L126.651 54.006C125.772 51.6299 123.496 50.0616 120.963 50.0872L121.023 56.0869ZM90.8134 56.3916L90.7529 50.3919C90.7373 50.392 90.7218 50.3922 90.7062 50.3925L90.8134 56.3916ZM90.4686 55.0674L87.5963 49.7996C87.5881 49.804 87.5798 49.8086 87.5716 49.8131L90.4686 55.0674ZM116.216 41.0283L119.088 46.2961C121.543 44.9576 122.748 42.1009 121.993 39.4087L116.216 41.0283ZM110.308 19.956L116.086 18.3365C116.083 18.328 116.081 18.3195 116.079 18.3111L110.308 19.956ZM111.421 19.2011L115.047 14.4207L115.037 14.413L111.421 19.2011ZM128.202 31.9297L124.576 36.7101C126.727 38.3415 129.702 38.3356 131.847 36.6958L128.202 31.9297ZM144.916 19.1484L148.59 23.8918C144.526 27.0401 138.948 23.1803 140.229 18.352L146.028 19.8906L151.828 21.4292C153.453 15.303 146.366 10.436 141.242 14.405L144.916 19.1484ZM146.028 19.8906L140.214 18.4105L135.949 35.1644L141.764 36.6445L147.578 38.1246L151.843 21.3707L146.028 19.8906ZM141.764 36.6445L141.084 42.6059L168.724 45.7582L169.404 39.7968L170.084 33.8355L142.443 30.6831L141.764 36.6445ZM169.404 39.7968L168.754 45.7615C163.161 45.1514 162.302 37.5337 167.419 35.5615L169.577 41.1601L171.735 46.7587C178.228 44.2562 177.103 34.6012 170.055 33.8322L169.404 39.7968ZM169.577 41.1601L167.397 35.5702L142.028 45.4637L144.208 51.0537L146.388 56.6436L171.757 46.7501L169.577 41.1601ZM144.208 51.0537L142.377 56.7676C143.6 57.1593 144.906 57.5278 146.297 57.8581L147.683 52.0205L149.07 46.1828C147.988 45.9259 146.978 45.6408 146.039 45.3398L144.208 51.0537ZM147.683 52.0205L146.3 57.8588C152.03 59.2166 155.515 60.5544 157.715 62.2432C159.553 63.6543 160.865 65.5945 161.377 69.4569L167.325 68.6689L173.273 67.8809C172.407 61.3465 169.74 56.3466 165.022 52.7246C160.666 49.3804 155.018 47.5924 149.067 46.1821L147.683 52.0205ZM167.325 68.6689L161.377 69.4547C161.998 74.1542 158.451 78.375 153.623 81.7183L157.038 86.6513L160.453 91.5844C165.649 87.9873 174.872 79.9855 173.273 67.8831L167.325 68.6689ZM157.038 86.6513L151.502 88.9654C152.386 91.079 152.857 92.9857 152.976 94.4664L158.957 93.9834L164.937 93.5003C164.693 90.4776 163.822 87.3236 162.574 84.3373L157.038 86.6513ZM158.957 93.9834L152.976 94.4663C153.067 95.5945 152.934 96.186 152.874 96.3621C152.849 96.4331 152.865 96.3543 152.983 96.1992C153.108 96.034 153.317 95.8257 153.618 95.6526L156.611 100.853L159.605 106.052C164.501 103.234 165.265 97.5548 164.937 93.5004L158.957 93.9834ZM156.611 100.853L153.618 95.6523C153.699 95.6058 153.772 95.57 153.833 95.5427L156.272 101.024L158.712 106.506C159.005 106.376 159.304 106.226 159.604 106.053L156.611 100.853ZM156.272 101.024L150.858 103.611C150.879 103.653 150.897 103.69 150.91 103.717C150.924 103.744 150.934 103.765 150.938 103.771C150.938 103.772 150.938 103.772 150.939 103.773C150.939 103.773 150.939 103.773 150.939 103.773C150.939 103.773 150.939 103.773 150.939 103.773C150.939 103.773 150.939 103.773 150.939 103.774C150.939 103.774 150.939 103.773 150.938 103.771C150.936 103.768 150.931 103.758 150.925 103.745C150.918 103.733 150.907 103.711 150.894 103.684C150.887 103.67 150.879 103.653 150.869 103.633C150.86 103.614 150.849 103.591 150.837 103.565L156.279 101.038L161.721 98.5114C161.697 98.4598 161.677 98.4178 161.663 98.3902C161.649 98.3619 161.638 98.3392 161.631 98.3256C161.624 98.312 161.619 98.3012 161.617 98.2973C161.616 98.2951 161.615 98.2933 161.615 98.293C161.614 98.2923 161.615 98.2932 161.615 98.2941C161.619 98.3022 161.65 98.3614 161.686 98.4382L156.272 101.024ZM156.279 101.038L150.832 103.553C149.54 100.754 150.864 98.4312 151.126 97.9944C151.528 97.3245 151.965 96.9081 152.073 96.8053C152.35 96.5412 152.566 96.3966 152.485 96.4548C152.373 96.5346 152.211 96.6394 151.717 96.97C150.873 97.5349 149.58 98.419 148.174 99.5954C145.441 101.883 141.811 105.657 140.198 111.072L145.948 112.785L151.698 114.498C152.349 112.314 153.968 110.394 155.876 108.798C156.79 108.033 157.667 107.427 158.39 106.943C158.68 106.75 159.151 106.44 159.467 106.214C159.599 106.119 159.978 105.849 160.358 105.486C160.517 105.334 160.992 104.875 161.415 104.169C161.699 103.697 163.029 101.345 161.727 98.5235L156.279 101.038ZM145.948 112.785L140.197 111.074C139.49 113.451 139.775 116.121 139.807 116.539L145.789 116.07L151.771 115.601C151.744 115.261 151.722 114.952 151.724 114.642C151.726 114.494 151.733 114.396 151.739 114.344C151.745 114.283 151.744 114.346 151.699 114.497L145.948 112.785ZM145.789 116.07L139.805 116.506C140.433 125.135 138.895 134.038 134.892 142.424L140.307 145.009L145.721 147.593C150.645 137.279 152.549 126.289 151.773 115.635L145.789 116.07ZM140.307 145.009L134.891 142.425C131.614 149.296 127.03 155.101 121.584 159.698L125.454 164.283L129.324 168.868C136.047 163.193 141.696 156.032 145.722 147.592L140.307 145.009ZM125.454 164.283L119.721 166.052C119.932 166.738 120.014 168.224 119.623 169.785C119.442 170.508 119.211 171.027 119.025 171.329C118.828 171.65 118.826 171.5 119.197 171.302L122.028 176.592L124.859 181.882C128.765 179.792 130.526 175.643 131.263 172.7C132.056 169.533 132.187 165.755 131.187 162.515L125.454 164.283ZM122.028 176.592L119.198 171.301C119.542 171.117 119.676 171.176 119.389 171.175C119.114 171.174 118.649 171.115 118.029 170.923C116.727 170.518 115.49 169.763 114.799 169.088L110.607 173.381L106.415 177.674C108.602 179.808 111.547 181.476 114.472 182.383C117.192 183.227 121.243 183.817 124.859 181.882L122.028 176.592ZM110.607 173.381L108.276 167.852C95.1038 173.407 79.7327 173.516 65.8331 166.889L63.2509 172.305L60.6687 177.721C77.7904 185.884 96.7428 185.739 112.939 178.909L110.607 173.381ZM63.2509 172.305L65.8342 166.889C40.0057 154.568 29.0624 123.648 41.3709 97.8322L35.955 95.25L30.5391 92.6678C15.3791 124.464 28.8576 162.546 60.6676 177.72L63.2509 172.305ZM35.955 95.25L41.3704 97.8333C50.8419 77.978 71.313 66.9078 92.0195 68.4588L92.4677 62.4756L92.9158 56.4923C67.4381 54.5839 42.2138 68.1937 30.5396 92.6667L35.955 95.25ZM92.4677 62.4756L92.023 68.4591C92.0522 68.4612 92.0806 68.4632 92.092 68.464C92.1081 68.4652 92.1096 68.4653 92.1078 68.4651L92.5624 62.4824L93.017 56.4996C92.9837 56.4971 92.9536 56.495 92.938 56.4939C92.9284 56.4932 92.9237 56.4929 92.9185 56.4925C92.9163 56.4923 92.9148 56.4922 92.9138 56.4922C92.9127 56.4921 92.9123 56.492 92.9123 56.4921L92.4677 62.4756ZM92.5624 62.4824L92.1043 68.4649C92.2798 68.4783 92.4515 68.4922 92.6203 68.5068L93.1386 62.5293L93.6569 56.5517C93.4415 56.533 93.2291 56.5159 93.0205 56.4999L92.5624 62.4824ZM93.1386 62.5293L92.6237 68.5071C92.6715 68.5112 92.6076 68.5058 92.7024 68.5141L93.2265 62.5371L93.7505 56.56C93.7441 56.5594 93.7378 56.5589 93.7196 56.5572C93.7046 56.5559 93.6802 56.5537 93.6535 56.5514L93.1386 62.5293ZM93.2265 62.5371L92.699 68.5138C92.8505 68.5272 93.004 68.5415 93.1598 68.5567L93.7411 62.5849L94.3224 56.6132C94.1351 56.5949 93.9455 56.5772 93.754 56.5603L93.2265 62.5371ZM93.7411 62.5849L93.1631 68.557C93.241 68.5646 93.3219 68.5728 93.4167 68.5824L94.0243 62.6132L94.6319 56.6441C94.5379 56.6345 94.43 56.6236 94.3191 56.6128L93.7411 62.5849ZM94.0243 62.6132L93.4134 68.5821C93.5351 68.5945 93.6469 68.6062 93.7544 68.6179L94.4052 62.6533L95.0559 56.6887C94.9096 56.6727 94.7674 56.658 94.6352 56.6444L94.0243 62.6132ZM94.4052 62.6533L93.7577 68.6182C93.9114 68.6349 94.0484 68.65 94.18 68.6654L94.8768 62.706L95.5737 56.7466C95.3909 56.7252 95.2134 56.7058 95.0527 56.6883L94.4052 62.6533ZM94.8768 62.706L94.1768 68.665C94.2843 68.6777 94.2367 68.6718 94.2896 68.6781L95.0028 62.7207L95.7161 56.7632C95.6805 56.759 95.6479 56.7552 95.626 56.7527C95.6003 56.7497 95.589 56.7484 95.5769 56.747L94.8768 62.706ZM95.0028 62.7207L94.2928 68.6785C94.4823 68.7011 94.6714 68.7247 94.8602 68.7493L95.6366 62.7998L96.4131 56.8502C96.1793 56.8197 95.9459 56.7906 95.7129 56.7628L95.0028 62.7207ZM95.6366 62.7998L94.857 68.7489C94.8743 68.7512 94.8909 68.7533 94.8972 68.7541C94.9062 68.7553 94.9062 68.7553 94.9043 68.755L95.6893 62.8066L96.4744 56.8582C96.4549 56.8556 96.4373 56.8534 96.4288 56.8523C96.4234 56.8516 96.421 56.8513 96.4184 56.8509C96.4161 56.8506 96.4157 56.8506 96.4162 56.8506L95.6366 62.7998ZM95.6893 62.8066L94.9074 68.7554C100.154 69.4451 105.391 70.9603 110.444 73.3699L113.026 67.9541L115.609 62.5383C109.406 59.5804 102.953 57.7097 96.4713 56.8578L95.6893 62.8066ZM113.026 67.9541L110.441 73.3687C112.047 74.1354 113.602 74.9868 115.109 75.907L118.236 70.7861L121.363 65.6652C119.532 64.5475 117.616 63.4966 115.611 62.5394L113.026 67.9541ZM118.236 70.7861L115.109 75.9065C115.189 75.9559 115.2 75.9622 115.243 75.9886L118.387 70.8779L121.53 65.7671C121.473 65.7321 121.383 65.6776 121.364 65.6657L118.236 70.7861ZM118.387 70.8779L115.245 75.9896C115.901 76.3928 116.535 76.7987 117.148 77.2107L120.496 72.2314L123.844 67.2521C123.077 66.7364 122.303 66.2422 121.528 65.7662L118.387 70.8779ZM120.496 72.2314L116.699 76.8768C116.659 76.8445 116.628 76.8185 116.611 76.8035C116.602 76.7958 116.595 76.7899 116.591 76.7868C116.588 76.7839 116.586 76.7819 116.588 76.7837C116.588 76.7842 116.594 76.7892 116.6 76.7943C116.607 76.8 116.616 76.8085 116.628 76.8187C116.652 76.8386 116.689 76.87 116.734 76.9074L120.542 72.2705L124.35 67.6336C124.387 67.6646 124.417 67.6895 124.432 67.7029C124.44 67.7098 124.447 67.7151 124.449 67.7175C124.451 67.7193 124.453 67.721 124.45 67.7183C124.448 67.7167 124.442 67.7114 124.435 67.7053C124.428 67.6989 124.417 67.6896 124.404 67.6787C124.379 67.6572 124.341 67.6247 124.293 67.5861L120.496 72.2314ZM120.542 72.2705L117.175 77.2367C118.421 78.0815 119.623 78.9749 120.782 79.9136L124.558 75.2509L128.335 70.5883C126.915 69.4387 125.44 68.3424 123.909 67.3043L120.542 72.2705ZM124.558 75.2509L128.641 79.6477L128.655 79.635L124.572 75.2382L120.489 70.8415L120.476 70.8542L124.558 75.2509ZM124.572 75.2382L120.643 79.7729C126.478 84.8284 133.174 82.7773 136.748 81.1432C138.643 80.2768 140.348 79.2249 141.374 78.6109C141.967 78.2561 142.244 78.1004 142.384 78.0319C142.448 78.0008 142.317 78.0712 142.057 78.1515C141.881 78.2059 141.074 78.4541 139.962 78.3201L140.681 72.3632L141.399 66.4064C140.075 66.2467 139.002 66.5358 138.513 66.6868C137.941 66.8638 137.45 67.0867 137.11 67.253C136.443 67.5795 135.739 67.9987 135.214 68.3128C134.004 69.0364 132.922 69.6976 131.758 70.23C129.213 71.3934 128.708 70.8825 128.501 70.7036L124.572 75.2382ZM140.681 72.3632L143.082 77.8617C142.489 78.1207 142.147 77.9904 142.358 78.0404C142.587 78.0945 143.153 78.2979 144.015 78.8965L147.436 73.9677L150.858 69.039C147.685 66.8363 142.933 64.8319 138.279 66.8648L140.681 72.3632ZM147.436 73.9677L144.015 78.8964C145.625 80.0144 147.516 81.9914 149.209 84.6153L154.251 81.3632L159.293 78.1112C156.978 74.5221 154.063 71.2644 150.858 69.0391L147.436 73.9677ZM154.251 81.3632L157.759 86.2311C159.88 84.7022 162.418 82.5412 164.361 79.7709C166.335 76.9581 167.929 73.1561 167.34 68.6804L161.391 69.4629L155.443 70.2454C155.522 70.8495 155.383 71.674 154.538 72.8795C153.662 74.1276 152.295 75.3769 150.743 76.4954L154.251 81.3632ZM161.391 69.4629L167.34 68.6821C166.862 65.0339 165.732 61.1119 161.924 57.9251C158.599 55.1424 153.81 53.4525 147.679 51.9971L146.293 57.8349L144.907 63.6727C150.828 65.0781 153.204 66.2753 154.223 67.128C154.759 67.5765 155.153 68.0381 155.443 70.2436L161.391 69.4629ZM146.293 57.8349L147.677 51.9968C144.861 51.3291 142.454 50.4926 140.443 49.6351L138.09 55.1543L135.736 60.6734C138.338 61.783 141.392 62.8394 144.909 63.6731L146.293 57.8349ZM138.09 55.1543L132.883 52.1732L123.06 69.3294L128.267 72.3105L133.474 75.2916L143.297 58.1354L138.09 55.1543ZM128.267 72.3105L123.099 69.2626C125.252 65.6122 130.983 65.7502 132.606 70.1121L126.983 72.205L121.36 74.298C123.408 79.7988 130.674 80.0419 133.436 75.3584L128.267 72.3105ZM126.983 72.205L132.611 70.1241L126.651 54.006L121.023 56.0869L115.396 58.1678L121.356 74.2859L126.983 72.205ZM121.023 56.0869L120.963 50.0872L90.7529 50.3919L90.8134 56.3916L90.8739 62.3913L121.084 62.0866L121.023 56.0869ZM90.8134 56.3916L90.7062 50.3925C96.4718 50.2896 97.9792 57.7779 93.3656 60.3216L90.4686 55.0674L87.5716 49.8131C81.6607 53.0722 83.6718 62.5201 90.9205 62.3906L90.8134 56.3916ZM90.4686 55.0674L93.341 60.3351L119.088 46.2961L116.216 41.0283L113.343 35.7605L87.5963 49.7996L90.4686 55.0674ZM116.216 41.0283L121.993 39.4087L116.086 18.3365L110.308 19.956L104.531 21.5756L110.438 42.6478L116.216 41.0283ZM110.308 19.956L116.079 18.3111C117.493 23.273 111.796 27.0029 107.805 23.9893L111.421 19.2011L115.037 14.413C109.96 10.5795 102.754 15.3418 104.538 21.6009L110.308 19.956ZM111.421 19.2011L107.795 23.9816L124.576 36.7101L128.202 31.9297L131.828 27.1492L115.047 14.4207L111.421 19.2011ZM128.202 31.9297L131.847 36.6958L148.561 23.9145L144.916 19.1484L141.271 14.3823L124.557 27.1635L128.202 31.9297Z" fill="white" mask="url(#path-1-outside-1_1062_19924)"/>
<path d="M122.865 53.4243L98.5752 53.6627L119.342 42.3389L114.429 24.8035L128.216 35.2665L142.083 24.6578L138.44 38.9351L161.3 41.5575L137.513 50.8285L128.03 67.3838L122.865 53.4243Z" fill="#FFE36C"/>
<path d="M137.618 31.4128L136.611 35.3331L135.115 41.2268L141.154 41.9154L150.346 42.9617L137.419 48.0078L135.671 48.6833L134.744 50.3123L128.546 61.1329L126.003 54.2458L124.705 50.7361L120.97 50.7891L109.169 50.9083L118.758 45.6768L122.467 43.6504L121.328 39.5845L119.116 31.6909L124.996 36.1542L128.215 38.5911L131.42 36.141L137.618 31.4128ZM128.201 31.9293L111.421 19.2016C110.878 18.791 110.123 19.3075 110.308 19.9565L116.215 41.0281L90.4685 55.067C89.8195 55.4246 90.0712 56.4047 90.8128 56.3914L121.023 56.0868L126.983 72.205C127.195 72.7745 127.963 72.8275 128.268 72.311L139.353 52.9479L169.576 41.1605C170.265 40.8956 170.133 39.8758 169.404 39.7964L141.763 36.6442L146.028 19.8903C146.2 19.2413 145.445 18.738 144.916 19.1486L128.201 31.9293Z" fill="#FF8F00"/>
<path d="M140.69 72.3641C139.008 72.1257 130.625 80.4828 124.572 75.2381L124.559 75.2513C121.076 72.4303 117.235 69.9669 113.01 67.9537C84.2037 54.2194 49.7025 66.4306 35.955 95.2501C22.2207 124.056 34.4319 158.558 63.2513 172.305C92.0576 186.039 126.559 173.828 140.306 145.009C144.77 135.658 146.491 125.712 145.79 116.07C145.737 115.395 145.617 113.898 145.948 112.786C148.213 105.183 156.451 101.395 156.279 101.038C156.107 100.667 142.386 72.6025 140.69 72.3641Z" fill="#4B9AE8"/>
<path d="M124.986 163.137C126.921 166.762 125.707 174.623 122.029 176.592C118.35 178.56 111.145 175.21 109.215 171.593C107.281 167.968 108.112 163.748 113.595 160.81C119.143 157.835 123.044 159.517 124.986 163.137Z" fill="#EAC00F"/>
<path d="M141.773 90.5511C143.933 94.3048 146.711 97.4989 149.493 99.4309C152.276 101.363 154.836 101.874 156.611 100.853C158.386 99.8312 159.23 97.3603 158.957 93.9837C158.685 90.6071 157.318 86.6014 155.157 82.8477C152.997 79.094 150.22 75.8999 147.437 73.968C144.654 72.036 142.094 71.5246 140.319 72.5461C138.544 73.5677 137.7 76.0385 137.973 79.4151C138.246 82.7917 139.613 86.7974 141.773 90.5511Z" fill="#276288"/>
<path d="M148.337 88.1949C148.955 89.2656 149.825 90.1328 150.754 90.6056C151.684 91.0783 152.598 91.118 153.294 90.7158C153.991 90.3136 154.414 89.5025 154.469 88.4609C154.524 87.4194 154.208 86.2327 153.59 85.1619C152.972 84.0911 152.102 83.224 151.172 82.7512C150.243 82.2785 149.329 82.2388 148.632 82.641C147.936 83.0432 147.513 83.8543 147.458 84.8958C147.402 85.9374 147.719 87.1241 148.337 88.1949Z" fill="#093049"/>
<path opacity="0.9" d="M86.7988 83.3302C90.4277 93.6342 85.1167 99.7796 78.243 103.713C74.9584 105.594 71.144 106.415 67.8197 108.229C61.3565 111.752 57.4363 118.547 51.8074 123.275C50.4036 124.454 48.801 125.54 46.9733 125.738C44.5364 126.003 42.1524 124.573 40.6955 122.599C39.2519 120.613 33.3317 101.779 54.9463 82.5091C64.6014 73.9003 82.8255 72.0329 86.7988 83.3302Z" fill="#7AB9F8"/>
<path d="M70.8564 64.9869C75.7436 65.1458 85.7297 65.2121 98.3647 70.1787C102.616 71.8474 106.205 74.1784 110.059 76.5624C113.172 78.4828 116.708 80.0854 120.35 79.741C121.635 79.6218 123.052 79.1185 123.555 77.9265C123.86 77.1849 123.833 76.4299 123.569 75.6883C123.251 74.8141 122.165 73.5957 120.496 72.2315C118.152 70.6554 115.662 69.2118 113.026 67.9536C99.3051 61.411 84.2994 60.762 70.8564 64.9869Z" fill="#C6E2FF"/>
<path d="M132.176 112.415C128.971 110.309 125.832 107.448 123.885 100.256C123.633 99.3426 122.786 94.7999 125.236 94.0714C127.355 93.4357 128.931 96.9189 130.759 99.9784C132.745 103.329 135.964 106.23 139.421 108.124C140.427 108.667 145.102 110.772 142.03 113.713C140.003 115.633 134.057 113.66 132.176 112.415Z" fill="#2A71B6"/>
<path d="M148.982 84.4824C149.114 84.4294 162.557 78.3238 161.392 69.4634C160.624 63.6094 158.346 60.6957 146.293 57.8349C134.506 55.0404 128.745 49.5705 128.506 49.3321C127.328 48.1931 127.288 46.2992 128.44 45.1072C129.579 43.9285 131.46 43.8887 132.652 45.0277C132.744 45.1072 137.645 49.6367 147.684 52.0207C159.365 54.7888 165.948 58.272 167.325 68.6687C168.862 80.2972 156.041 87.5418 152.372 89.4622C150.094 90.6674 147.472 85.1446 148.982 84.4824Z" fill="#C69461"/>
<path d="M132.626 45.0413C131.447 43.9023 129.554 43.942 128.415 45.1208C127.276 46.3127 127.302 48.1934 128.481 49.3457C128.653 49.5179 131.792 52.4846 138.083 55.1599L139.341 52.9614L144.188 51.0674C136.494 48.604 132.706 45.1075 132.626 45.0413Z" fill="#F6BC41"/>
<path d="M89.4931 169.69C95.8211 169.69 100.951 164.56 100.951 158.232C100.951 151.904 95.8211 146.774 89.4931 146.774C83.165 146.774 78.0352 151.904 78.0352 158.232C78.0352 164.56 83.165 169.69 89.4931 169.69Z" fill="white"/>
<path d="M89.4941 164.34C92.8671 164.34 95.6015 161.605 95.6015 158.232C95.6015 154.859 92.8671 152.125 89.4941 152.125C86.1211 152.125 83.3867 154.859 83.3867 158.232C83.3867 161.605 86.1211 164.34 89.4941 164.34Z" fill="#040000"/>
<ellipse cx="116.5" cy="63.5" rx="2.5" ry="1.5" fill="white"/>
</svg>
