<svg width="200" height="200" viewBox="0 0 200 200" fill="none" xmlns="http://www.w3.org/2000/svg">
<mask id="path-1-outside-1_1347_5988" maskUnits="userSpaceOnUse" x="12.9717" y="13.0054" width="174" height="174" fill="black">
<rect fill="white" x="12.9717" y="13.0054" width="174" height="174"/>
<path d="M83.2217 21.7983C126.421 12.5364 168.949 40.0569 178.207 83.2563C187.464 126.456 159.949 168.984 116.75 178.242C73.5506 187.499 31.0225 159.984 21.7646 116.785C12.507 73.5851 40.0266 31.056 83.2217 21.7983Z"/>
</mask>
<path d="M83.2217 21.7983C126.421 12.5364 168.949 40.0569 178.207 83.2563C187.464 126.456 159.949 168.984 116.75 178.242C73.5506 187.499 31.0225 159.984 21.7646 116.785C12.507 73.5851 40.0266 31.056 83.2217 21.7983Z" fill="#EAC00F"/>
<path d="M83.2217 21.7983L84.4791 27.6651L84.4795 27.665L83.2217 21.7983ZM178.207 83.2563L184.074 81.9991L184.074 81.9991L178.207 83.2563ZM116.75 178.242L118.007 184.108L116.75 178.242ZM21.7646 116.785L15.8979 118.042L15.8979 118.042L21.7646 116.785ZM83.2217 21.7983L84.4795 27.665C124.438 19.0979 163.777 44.5539 172.34 84.5136L178.207 83.2563L184.074 81.9991C174.122 35.5599 128.404 5.97487 81.9639 15.9317L83.2217 21.7983ZM178.207 83.2563L172.34 84.5136C180.903 124.473 155.452 163.812 115.493 172.375L116.75 178.242L118.007 184.108C164.447 174.156 194.026 128.438 184.074 81.9991L178.207 83.2563ZM116.75 178.242L115.493 172.375C75.5332 180.938 36.1948 155.486 27.6314 115.527L21.7646 116.785L15.8979 118.042C25.8501 164.482 71.5679 194.06 118.007 184.108L116.75 178.242ZM21.7646 116.785L27.6314 115.527C19.0681 75.568 44.524 36.2284 84.4791 27.6651L83.2217 21.7983L81.9643 15.9316C35.5292 25.8837 5.94581 71.6022 15.8979 118.042L21.7646 116.785Z" fill="white" mask="url(#path-1-outside-1_1347_5988)"/>
<path d="M178.207 83.2558C187.465 126.455 159.95 168.984 116.75 178.242C73.5506 187.499 31.0222 159.984 21.7645 116.784C12.5068 73.5848 40.0265 31.0564 83.2216 21.7987C126.421 12.5366 168.95 40.0563 178.207 83.2558Z" fill="#4B9AE8"/>
<path d="M149.463 67.9719C152.238 80.929 143.986 93.6866 131.03 96.4626C118.073 99.2386 105.317 90.9854 102.537 78.0283C99.7615 65.0711 108.014 52.3136 120.97 49.5375C133.927 46.7615 146.687 55.0112 149.463 67.9719Z" fill="#F4F7F9"/>
<path d="M126 75C130.971 75 135 70.9706 135 66C135 61.0294 130.971 57 126 57C121.029 57 117 61.0294 117 66C117 70.9706 121.029 75 126 75Z" fill="black"/>
<path d="M69.5 97C79.165 97 87 89.165 87 79.5C87 69.835 79.165 62 69.5 62C59.835 62 52 69.835 52 79.5C52 89.165 59.835 97 69.5 97Z" fill="white"/>
<path d="M70 93C74.4183 93 78 89.4183 78 85C78 80.5817 74.4183 77 70 77C65.5817 77 62 80.5817 62 85C62 89.4183 65.5817 93 70 93Z" fill="black"/>
<path d="M111.391 142.02C105.289 153.474 93.454 159.136 85.1998 154.659C76.1833 149.769 74.9612 137.249 81.0636 125.795C87.1661 114.34 99.0397 108.699 107.299 113.179C117.316 118.612 117.494 130.565 111.391 142.02Z" fill="#F28282"/>
<path d="M100.453 128.621C98.786 132.621 94.3526 141.621 89.9526 145.621" stroke="#C03817" stroke-width="3" stroke-linecap="round" stroke-linejoin="round"/>
<path d="M120.681 113.786C120.3 120.791 110.265 131.337 102.036 131.075C93.8059 130.814 84.965 119.66 85.3541 112.655C85.7357 105.649 91.4358 100.141 103.717 100.531C116.14 100.931 121.07 106.78 120.681 113.786Z" fill="#EAC00F"/>
</svg>
