<svg width="200" height="200" viewBox="0 0 200 200" fill="none" xmlns="http://www.w3.org/2000/svg">
<mask id="path-1-outside-1_656_9429" maskUnits="userSpaceOnUse" x="28.5088" y="88.5347" width="28" height="40" fill="black">
<rect fill="white" x="28.5088" y="88.5347" width="28" height="40"/>
<path d="M42.9788 95.5505C43.175 95.5126 43.3778 95.5444 43.555 95.6267C43.6009 95.6497 43.6449 95.6764 43.6868 95.7058C43.7121 95.723 43.7349 95.7431 43.7581 95.7625C43.7718 95.7739 43.7862 95.7845 43.7991 95.7966C43.816 95.8124 43.8304 95.8304 43.846 95.8474C43.8966 95.9021 43.9428 95.9604 43.9788 96.0252C43.9798 96.027 43.9808 96.0291 43.9818 96.031C43.983 96.0333 43.9844 96.0355 43.9857 96.0379C44.0806 96.2151 44.1184 96.4178 44.0931 96.614C43.8463 98.443 42.8906 100.924 41.2454 105.846C42.3468 105.4 43.4778 104.781 44.6829 104.162C44.6741 104.165 44.6653 104.169 44.6566 104.173C45.1439 103.919 45.6316 103.678 46.1253 103.444C46.5493 103.21 47.0239 103.09 47.5111 103.077C47.9985 103.071 48.4737 103.172 48.9105 103.387C49.615 103.778 50.2108 104.458 50.3382 105.228C50.3682 105.408 50.3722 105.593 50.347 105.78C50.3403 105.83 50.3308 105.883 50.3216 105.938C50.1465 106.992 49.5114 108.95 48.68 111.167C47.5202 114.263 45.9806 117.867 44.7825 120.219C44.0356 121.688 43.1752 122.163 42.3206 121.637C41.8017 121.315 41.9849 120.581 42.0609 120.081C42.3771 118.076 44.3294 110.605 44.3773 110.572L44.3841 110.566C42.3014 111.471 40.1613 112.218 37.971 112.813C37.5534 112.921 37.1231 112.927 36.7054 112.839C36.2877 112.75 35.8953 112.566 35.5599 112.301C35.2244 112.035 34.9583 111.693 34.7747 111.306C34.5912 110.92 34.5028 110.496 34.5091 110.066C34.5329 108.806 38.4065 100.596 41.8089 96.5593C42.0277 96.2911 42.2473 96.0481 42.4661 95.823C42.5912 95.6922 42.7524 95.6041 42.9261 95.5642C42.9436 95.5598 42.961 95.554 42.9788 95.5505Z"/>
</mask>
<path d="M42.9788 95.5505C43.175 95.5126 43.3778 95.5444 43.555 95.6267C43.6009 95.6497 43.6449 95.6764 43.6868 95.7058C43.7121 95.723 43.7349 95.7431 43.7581 95.7625C43.7718 95.7739 43.7862 95.7845 43.7991 95.7966C43.816 95.8124 43.8304 95.8304 43.846 95.8474C43.8966 95.9021 43.9428 95.9604 43.9788 96.0252C43.9798 96.027 43.9808 96.0291 43.9818 96.031C43.983 96.0333 43.9844 96.0355 43.9857 96.0379C44.0806 96.2151 44.1184 96.4178 44.0931 96.614C43.8463 98.443 42.8906 100.924 41.2454 105.846C42.3468 105.4 43.4778 104.781 44.6829 104.162C44.6741 104.165 44.6653 104.169 44.6566 104.173C45.1439 103.919 45.6316 103.678 46.1253 103.444C46.5493 103.21 47.0239 103.09 47.5111 103.077C47.9985 103.071 48.4737 103.172 48.9105 103.387C49.615 103.778 50.2108 104.458 50.3382 105.228C50.3682 105.408 50.3722 105.593 50.347 105.78C50.3403 105.83 50.3308 105.883 50.3216 105.938C50.1465 106.992 49.5114 108.95 48.68 111.167C47.5202 114.263 45.9806 117.867 44.7825 120.219C44.0356 121.688 43.1752 122.163 42.3206 121.637C41.8017 121.315 41.9849 120.581 42.0609 120.081C42.3771 118.076 44.3294 110.605 44.3773 110.572L44.3841 110.566C42.3014 111.471 40.1613 112.218 37.971 112.813C37.5534 112.921 37.1231 112.927 36.7054 112.839C36.2877 112.75 35.8953 112.566 35.5599 112.301C35.2244 112.035 34.9583 111.693 34.7747 111.306C34.5912 110.92 34.5028 110.496 34.5091 110.066C34.5329 108.806 38.4065 100.596 41.8089 96.5593C42.0277 96.2911 42.2473 96.0481 42.4661 95.823C42.5912 95.6922 42.7524 95.6041 42.9261 95.5642C42.9436 95.5598 42.961 95.554 42.9788 95.5505Z" fill="#F2C100"/>
<path d="M42.9788 95.5505L41.8399 89.6596L41.8387 89.6599L42.9788 95.5505ZM43.555 95.6267L46.24 90.261L46.1614 90.2217L46.0817 90.1847L43.555 95.6267ZM43.6868 95.7058L40.2408 100.618L40.2726 100.64L40.3047 100.662L43.6868 95.7058ZM43.7581 95.7625L47.6259 91.1755L47.6143 91.1657L47.6028 91.1561L43.7581 95.7625ZM43.7991 95.7966L39.6941 100.173L39.6968 100.175L43.7991 95.7966ZM43.846 95.8474L39.4288 99.908L39.4369 99.9168L39.4451 99.9257L43.846 95.8474ZM43.9788 96.0252L49.2677 93.1918L49.2458 93.1509L49.2232 93.1103L43.9788 96.0252ZM43.9818 96.031L38.6753 98.8313L38.6954 98.8693L38.716 98.9071L43.9818 96.031ZM43.9857 96.0379L49.2746 93.2047L49.2745 93.2045L43.9857 96.0379ZM44.0931 96.614L50.0392 97.4164L50.0416 97.3988L50.0439 97.3811L44.0931 96.614ZM41.2454 105.846L35.5548 103.945L31.4238 116.305L43.5008 111.406L41.2454 105.846ZM44.6829 104.162L47.4232 109.5L42.4356 98.5986L44.6829 104.162ZM44.6566 104.173L41.8907 98.8482L46.9637 109.711L44.6566 104.173ZM46.1253 103.444L48.6968 108.865L48.8634 108.786L49.0248 108.697L46.1253 103.444ZM47.5111 103.077L47.4331 97.0774L47.3941 97.0779L47.355 97.0789L47.5111 103.077ZM48.9105 103.387L51.8215 98.1409L51.6936 98.07L51.5625 98.0054L48.9105 103.387ZM50.3382 105.228L44.4186 106.207L44.4201 106.216L50.3382 105.228ZM50.347 105.78L44.4005 104.98L44.3992 104.99L50.347 105.78ZM50.3216 105.938L44.4038 104.948L44.4028 104.955L50.3216 105.938ZM48.68 111.167L43.062 109.06L43.0612 109.062L48.68 111.167ZM44.7825 120.219L39.4358 117.497L39.4345 117.499L44.7825 120.219ZM42.3206 121.637L39.1518 126.732L39.1652 126.741L39.1787 126.749L42.3206 121.637ZM42.0609 120.081L36.1341 119.146L36.1315 119.163L36.129 119.179L42.0609 120.081ZM44.3773 110.572L47.7781 115.515L48.0404 115.335L48.282 115.128L44.3773 110.572ZM44.3841 110.566L48.2889 115.122L41.9924 105.063L44.3841 110.566ZM37.971 112.813L39.4668 118.624L39.5055 118.614L39.5441 118.603L37.971 112.813ZM36.7054 112.839L35.4604 118.708L35.4605 118.708L36.7054 112.839ZM35.5599 112.301L31.8334 117.003L31.8339 117.003L35.5599 112.301ZM34.7747 111.306L29.3558 113.882L29.3559 113.883L34.7747 111.306ZM34.5091 110.066L28.5102 109.953L28.5099 109.966L28.5097 109.978L34.5091 110.066ZM41.8089 96.5593L46.3967 100.426L46.4276 100.389L46.458 100.352L41.8089 96.5593ZM42.4661 95.823L46.7681 100.005L46.7851 99.988L46.802 99.9703L42.4661 95.823ZM42.9261 95.5642L44.2687 101.412L44.327 101.399L44.385 101.384L42.9261 95.5642ZM42.9788 95.5505L44.1178 101.441C42.947 101.668 41.871 101.46 41.0283 101.069L43.555 95.6267L46.0817 90.1847C44.8847 89.6289 43.403 89.3574 41.8399 89.6596L42.9788 95.5505ZM43.555 95.6267L40.87 100.992C40.6246 100.87 40.4152 100.74 40.2408 100.618L43.6868 95.7058L47.1329 90.7941C46.8746 90.6129 46.5772 90.4298 46.24 90.261L43.555 95.6267ZM43.6868 95.7058L40.3047 100.662C40.124 100.538 39.9915 100.432 39.9336 100.385C39.904 100.361 39.8825 100.343 39.8813 100.342C39.8679 100.331 39.8987 100.356 39.9135 100.369L43.7581 95.7625L47.6028 91.1561C47.606 91.1587 47.6251 91.1748 47.6002 91.1539C47.5874 91.1431 47.5542 91.1152 47.5128 91.0815C47.4314 91.0152 47.2749 90.8904 47.069 90.7499L43.6868 95.7058ZM43.7581 95.7625L39.8904 100.349C39.945 100.396 39.9893 100.431 40.0073 100.446C40.0124 100.45 40.0166 100.453 40.0192 100.455C40.0206 100.456 40.0218 100.457 40.0225 100.458C40.0229 100.458 40.0233 100.459 40.0235 100.459C40.0238 100.459 40.0239 100.459 40.0241 100.459C40.0259 100.461 40.0201 100.456 40.0126 100.45C39.9977 100.438 39.9573 100.405 39.9058 100.362C39.8533 100.317 39.7797 100.253 39.6941 100.173L43.7991 95.7966L47.9042 91.4207C47.8121 91.3344 47.7319 91.2644 47.6725 91.214C47.6143 91.1645 47.5669 91.1262 47.5452 91.1087C47.5342 91.0998 47.5249 91.0923 47.5233 91.091C47.5192 91.0878 47.5242 91.0918 47.5296 91.0961C47.5407 91.1051 47.578 91.1351 47.6259 91.1755L43.7581 95.7625ZM43.7991 95.7966L39.6968 100.175C39.5079 99.9981 39.3751 99.8487 39.3431 99.8128C39.3332 99.8017 39.3259 99.7935 39.3249 99.7923C39.3171 99.7835 39.3319 99.8003 39.3329 99.8014C39.3443 99.8144 39.3814 99.8564 39.4288 99.908L43.846 95.8474L48.2632 91.7868C48.3028 91.8299 48.3322 91.8634 48.336 91.8677C48.3532 91.8872 48.3209 91.8504 48.303 91.8303C48.2557 91.7773 48.1072 91.611 47.9015 91.4182L43.7991 95.7966ZM43.846 95.8474L39.4451 99.9257C39.2968 99.7656 39.0084 99.433 38.7345 98.94L43.9788 96.0252L49.2232 93.1103C48.8773 92.4879 48.4965 92.0385 48.2469 91.7692L43.846 95.8474ZM43.9788 96.0252L38.6899 98.8585C38.6712 98.8235 38.655 98.7925 38.6418 98.7667C38.6286 98.741 38.6175 98.7188 38.6089 98.7017C38.6005 98.6847 38.5936 98.6708 38.5893 98.662C38.5852 98.6536 38.582 98.647 38.5819 98.6466C38.5812 98.6453 38.5822 98.6473 38.5825 98.648C38.5832 98.6493 38.5845 98.652 38.5861 98.6554C38.5893 98.6619 38.595 98.6737 38.6023 98.6884C38.6096 98.7032 38.6195 98.7231 38.6314 98.7466C38.6434 98.77 38.6581 98.7987 38.6753 98.8313L43.9818 96.031L49.2882 93.2307C49.3052 93.2629 49.3197 93.2911 49.3313 93.314C49.343 93.337 49.3527 93.3564 49.3598 93.3708C49.3668 93.385 49.3723 93.3963 49.3752 93.4023C49.3776 93.4072 49.3803 93.4126 49.3787 93.4095C49.3783 93.4087 49.3749 93.4016 49.3705 93.3927C49.366 93.3834 49.3589 93.369 49.3502 93.3515C49.3414 93.3339 49.3301 93.3112 49.3166 93.285C49.3031 93.2588 49.2867 93.2273 49.2677 93.1918L43.9788 96.0252ZM43.9818 96.031L38.716 98.9071C38.7319 98.9362 38.7462 98.9618 38.7581 98.9829C38.77 99.004 38.7802 99.0218 38.788 99.0351C38.7956 99.0483 38.8017 99.0588 38.805 99.0644C38.8067 99.0673 38.808 99.0696 38.8086 99.0707C38.809 99.0712 38.8092 99.0716 38.8092 99.0717C38.8093 99.0718 38.8092 99.0716 38.809 99.0713C38.8085 99.0704 38.8047 99.064 38.7999 99.0557C38.7949 99.047 38.7872 99.0338 38.7779 99.0175C38.7597 98.9858 38.7308 98.9348 38.6968 98.8712L43.9857 96.0379L49.2745 93.2045C49.2399 93.1398 49.2104 93.0877 49.1916 93.0547C49.1819 93.0379 49.1739 93.0241 49.1685 93.0149C49.1634 93.006 49.1592 92.999 49.1584 92.9976C49.1562 92.9938 49.1593 92.999 49.1614 93.0027C49.1644 93.0078 49.1702 93.0177 49.1775 93.0303C49.1916 93.0548 49.217 93.099 49.2475 93.155L43.9818 96.031ZM43.9857 96.0379L38.6967 98.871C38.2114 97.9651 38.0051 96.9113 38.1423 95.8469L44.0931 96.614L50.0439 97.3811C50.2316 95.9243 49.9498 94.4651 49.2746 93.2047L43.9857 96.0379ZM44.0931 96.614L38.147 95.8116C38.1018 96.1463 37.9539 96.779 37.4869 98.2171C37.0123 99.6787 36.4277 101.333 35.5548 103.945L41.2454 105.846L46.936 107.748C47.7083 105.438 48.4241 103.39 48.9003 101.923C49.3842 100.433 49.8375 98.9107 50.0392 97.4164L44.0931 96.614ZM41.2454 105.846L43.5008 111.406C44.9276 110.828 46.4358 110.006 47.4232 109.5L44.6829 104.162L41.9427 98.8242C40.5199 99.5546 39.7659 99.9717 38.9901 100.286L41.2454 105.846ZM44.6829 104.162L42.4356 98.5986C42.4244 98.6032 42.4439 98.5953 42.4292 98.6012C42.4256 98.6027 42.4197 98.6051 42.4127 98.6079C42.399 98.6135 42.3765 98.6226 42.3494 98.6339L44.6566 104.173L46.9637 109.711C46.9454 109.719 46.9317 109.725 46.9268 109.727C46.9242 109.728 46.9226 109.728 46.9234 109.728C46.9238 109.728 46.9243 109.728 46.9256 109.727C46.9266 109.727 46.9283 109.726 46.9302 109.725L44.6829 104.162ZM44.6566 104.173L47.4225 109.497C47.8396 109.28 48.2621 109.071 48.6968 108.865L46.1253 103.444L43.5538 98.0231C43.0012 98.2852 42.4483 98.5585 41.8907 98.8482L44.6566 104.173ZM46.1253 103.444L49.0248 108.697C48.5449 108.962 48.0671 109.064 47.6671 109.075L47.5111 103.077L47.355 97.0789C45.9806 97.1147 44.5537 97.4583 43.2258 98.1912L46.1253 103.444ZM47.5111 103.077L47.589 109.076C47.1803 109.082 46.7138 108.994 46.2584 108.77L48.9105 103.387L51.5625 98.0054C50.2335 97.3505 48.8167 97.0595 47.4331 97.0774L47.5111 103.077ZM48.9105 103.387L45.9995 108.634C45.7145 108.476 45.4261 108.251 45.1622 107.922C44.8994 107.595 44.5539 107.026 44.4186 106.207L50.3382 105.228L56.2578 104.249C55.7469 101.16 53.6114 99.134 51.8215 98.1409L48.9105 103.387ZM50.3382 105.228L44.4201 106.216C44.3534 105.817 44.3443 105.399 44.4005 104.98L50.347 105.78L56.2935 106.58C56.4001 105.787 56.383 104.999 56.2563 104.241L50.3382 105.228ZM50.347 105.78L44.3992 104.99C44.4039 104.955 44.408 104.928 44.4107 104.91C44.4134 104.892 44.4153 104.881 44.4156 104.879C44.4158 104.878 44.4155 104.879 44.4132 104.893C44.4124 104.898 44.4108 104.907 44.4094 104.916C44.4078 104.925 44.4059 104.936 44.4038 104.948L50.3216 105.938L56.2394 106.928C56.2402 106.924 56.2409 106.919 56.2438 106.902C56.2462 106.888 56.2504 106.863 56.2549 106.836C56.2637 106.783 56.2793 106.686 56.2948 106.57L50.347 105.78ZM50.3216 105.938L44.4028 104.955C44.4035 104.95 44.3983 104.982 44.3815 105.056C44.3652 105.129 44.3415 105.226 44.3086 105.35C44.242 105.601 44.149 105.92 44.0271 106.304C43.7828 107.075 43.4534 108.016 43.062 109.06L48.68 111.167L54.298 113.274C55.1091 111.111 55.956 108.634 56.2404 106.922L50.3216 105.938ZM48.68 111.167L43.0612 109.062C41.9533 112.02 40.5018 115.404 39.4358 117.497L44.7825 120.219L50.1293 122.942C51.4594 120.33 53.087 116.506 54.2988 113.271L48.68 111.167ZM44.7825 120.219L39.4345 117.499C39.2735 117.816 39.542 117.078 40.622 116.463C41.2541 116.103 42.1231 115.816 43.1419 115.847C44.1452 115.877 44.9391 116.204 45.4626 116.526L42.3206 121.637L39.1787 126.749C41.3636 128.092 44.1354 128.272 46.5619 126.89C48.4725 125.801 49.5446 124.092 50.1305 122.94L44.7825 120.219ZM42.3206 121.637L45.4894 116.543C46.4386 117.133 47.1242 117.978 47.5267 118.877C47.8909 119.69 47.9529 120.385 47.9643 120.725C47.9758 121.071 47.941 121.303 47.9409 121.304C47.9394 121.315 47.94 121.309 47.9495 121.251C47.9545 121.22 47.976 121.092 47.9927 120.982L42.0609 120.081L36.129 119.179C36.1682 118.921 35.937 120.111 35.971 121.126C36.0133 122.392 36.4769 125.069 39.1518 126.732L42.3206 121.637ZM42.0609 120.081L47.9876 121.016C48.0288 120.754 48.1628 120.107 48.3939 119.111C48.6111 118.176 48.8768 117.091 49.1386 116.05C49.3999 115.011 49.6522 114.035 49.8403 113.323C49.935 112.965 50.0095 112.689 50.059 112.51C50.071 112.467 50.0805 112.433 50.0876 112.408C50.0951 112.382 50.0978 112.373 50.0966 112.377C50.0959 112.379 50.0925 112.391 50.0869 112.409C50.0822 112.424 50.0704 112.461 50.0535 112.512C50.0433 112.542 49.9998 112.671 49.9327 112.837C49.904 112.907 49.8226 113.105 49.6955 113.349C49.634 113.467 49.5069 113.702 49.3152 113.98C49.2068 114.137 48.7041 114.878 47.7781 115.515L44.3773 110.572L40.9764 105.629C40.05 106.266 39.5469 107.008 39.438 107.165C39.2458 107.444 39.1182 107.68 39.0561 107.799C38.9277 108.045 38.8449 108.247 38.8146 108.321C38.7441 108.495 38.6964 108.636 38.6812 108.681C38.642 108.798 38.6113 108.9 38.5971 108.947C38.5632 109.061 38.5273 109.188 38.495 109.305C38.4272 109.55 38.3389 109.878 38.239 110.256C38.0376 111.018 37.7731 112.041 37.5008 113.124C36.9913 115.151 36.3437 117.817 36.1341 119.146L42.0609 120.081ZM44.3773 110.572L48.282 115.128L48.2889 115.122L44.3841 110.566L40.4794 106.011L40.4725 106.016L44.3773 110.572ZM44.3841 110.566L41.9924 105.063C40.1822 105.85 38.3161 106.502 36.398 107.023L37.971 112.813L39.5441 118.603C42.0064 117.934 44.4207 117.093 46.7758 116.069L44.3841 110.566ZM37.971 112.813L36.4752 107.003C36.9757 106.874 37.4839 106.87 37.9503 106.969L36.7054 112.839L35.4605 118.708C36.7622 118.984 38.131 118.968 39.4668 118.624L37.971 112.813ZM36.7054 112.839L37.9504 106.969C38.4331 107.072 38.891 107.285 39.2859 107.598L35.5599 112.301L31.8339 117.003C32.8997 117.848 34.1423 118.428 35.4604 118.708L36.7054 112.839ZM35.5599 112.301L39.2864 107.598C39.7061 107.931 40.0032 108.33 40.1935 108.73L34.7747 111.306L29.3559 113.883C29.9134 115.055 30.7426 116.139 31.8334 117.003L35.5599 112.301ZM34.7747 111.306L40.1937 108.731C40.4227 109.212 40.515 109.704 40.5085 110.154L34.5091 110.066L28.5097 109.978C28.4906 111.289 28.7598 112.628 29.3558 113.882L34.7747 111.306ZM34.5091 110.066L40.508 110.179C40.4922 111.017 40.2724 111.525 40.3957 111.146C40.4442 110.997 40.5471 110.715 40.722 110.294C41.0667 109.464 41.5868 108.344 42.2273 107.099C43.5543 104.52 45.1301 101.929 46.3967 100.426L41.8089 96.5593L37.2211 92.6925C35.0853 95.2265 33.0231 98.759 31.5568 101.609C30.8005 103.079 30.1352 104.499 29.6406 105.69C29.3958 106.278 29.1655 106.877 28.9844 107.433C28.878 107.76 28.5319 108.801 28.5102 109.953L34.5091 110.066ZM41.8089 96.5593L46.458 100.352C46.5551 100.233 46.6568 100.12 46.7681 100.005L42.4661 95.823L38.1642 91.6405C37.8377 91.9763 37.5004 92.349 37.1598 92.7665L41.8089 96.5593ZM42.4661 95.823L46.802 99.9703C46.0753 100.73 45.1774 101.203 44.2687 101.412L42.9261 95.5642L41.5835 89.7164C40.3275 90.0047 39.1072 90.6543 38.1303 91.6757L42.4661 95.823ZM42.9261 95.5642L44.385 101.384C44.4627 101.365 44.524 101.348 44.5495 101.341C44.5622 101.337 44.5738 101.334 44.5738 101.334C44.577 101.333 44.5695 101.335 44.56 101.338C44.5414 101.343 44.4878 101.358 44.4178 101.375C44.3462 101.393 44.2436 101.417 44.119 101.441L42.9788 95.5505L41.8387 89.6599C41.7051 89.6857 41.5936 89.7119 41.5132 89.7319C41.4344 89.7516 41.3721 89.7688 41.3446 89.7764C41.3308 89.7803 41.3189 89.7836 41.3177 89.784C41.3134 89.7852 41.3206 89.7832 41.3289 89.7808C41.3457 89.7762 41.3983 89.7616 41.4672 89.7443L42.9261 95.5642Z" fill="white" mask="url(#path-1-outside-1_656_9429)"/>
<mask id="path-3-outside-2_656_9429" maskUnits="userSpaceOnUse" x="114.937" y="34.4229" width="63" height="84" fill="black">
<rect fill="white" x="114.937" y="34.4229" width="63" height="84"/>
<path d="M162.132 40.464C162.535 40.3951 162.95 40.4118 163.35 40.5216C163.926 40.6799 164.438 41.0088 164.812 41.4708C165.185 41.9329 165.406 42.5027 165.444 43.0978C165.476 43.6928 165.324 44.2818 165.008 44.7882C161.982 49.4085 156.229 54.8829 145.421 66.0646C145.702 66.0825 146.002 66.0707 146.289 66.0831C146.153 66.0876 146.017 66.0907 145.882 66.0949C149.299 66.2724 152.983 66.0744 156.85 65.9552C156.83 65.9539 156.81 65.9515 156.791 65.9503C158.424 65.8933 160.058 65.8741 161.691 65.8741C163.141 65.8046 164.584 66.0771 165.9 66.672C167.217 67.267 168.376 68.1727 169.274 69.3058C170.468 70.97 171.17 73.0865 170.964 75.0577C170.871 75.9529 170.591 76.8184 170.085 77.5978C166.249 83.5039 147.473 100.962 136.49 109.401C132.578 112.407 129.641 112.572 128.021 110.053C127.033 108.521 128.47 106.761 129.324 105.521C132.765 100.517 147.639 82.8736 147.814 82.8517L147.821 82.839C141.042 82.5984 134.293 81.8644 127.621 80.6427C126.368 80.3895 125.191 79.8573 124.178 79.0724C123.165 78.2938 122.349 77.2874 121.785 76.1417C121.222 74.996 120.937 73.73 120.937 72.4513C120.937 71.1726 121.24 69.9125 121.816 68.7667C123.51 65.3932 144.489 48.2704 158.858 41.7482C158.857 41.7466 158.857 41.7449 158.855 41.7433C159.805 41.3129 160.729 40.9269 161.615 40.5978C161.784 40.5366 161.957 40.4927 162.132 40.464Z"/>
</mask>
<path d="M162.132 40.464C162.535 40.3951 162.95 40.4118 163.35 40.5216C163.926 40.6799 164.438 41.0088 164.812 41.4708C165.185 41.9329 165.406 42.5027 165.444 43.0978C165.476 43.6928 165.324 44.2818 165.008 44.7882C161.982 49.4085 156.229 54.8829 145.421 66.0646C145.702 66.0825 146.002 66.0707 146.289 66.0831C146.153 66.0876 146.017 66.0907 145.882 66.0949C149.299 66.2724 152.983 66.0744 156.85 65.9552C156.83 65.9539 156.81 65.9515 156.791 65.9503C158.424 65.8933 160.058 65.8741 161.691 65.8741C163.141 65.8046 164.584 66.0771 165.9 66.672C167.217 67.267 168.376 68.1727 169.274 69.3058C170.468 70.97 171.17 73.0865 170.964 75.0577C170.871 75.9529 170.591 76.8184 170.085 77.5978C166.249 83.5039 147.473 100.962 136.49 109.401C132.578 112.407 129.641 112.572 128.021 110.053C127.033 108.521 128.47 106.761 129.324 105.521C132.765 100.517 147.639 82.8736 147.814 82.8517L147.821 82.839C141.042 82.5984 134.293 81.8644 127.621 80.6427C126.368 80.3895 125.191 79.8573 124.178 79.0724C123.165 78.2938 122.349 77.2874 121.785 76.1417C121.222 74.996 120.937 73.73 120.937 72.4513C120.937 71.1726 121.24 69.9125 121.816 68.7667C123.51 65.3932 144.489 48.2704 158.858 41.7482C158.857 41.7466 158.857 41.7449 158.855 41.7433C159.805 41.3129 160.729 40.9269 161.615 40.5978C161.784 40.5366 161.957 40.4927 162.132 40.464Z" fill="#F2C100"/>
<path d="M162.132 40.464L163.1 46.3853L163.122 46.3818L163.144 46.378L162.132 40.464ZM163.35 40.5216L164.94 34.7361L164.939 34.736L163.35 40.5216ZM164.812 41.4708L169.478 37.6993L169.478 37.6992L164.812 41.4708ZM165.444 43.0978L171.436 42.7792L171.434 42.7474L171.432 42.7156L165.444 43.0978ZM165.008 44.7882L170.027 48.0751L170.062 48.022L170.096 47.9682L165.008 44.7882ZM145.421 66.0646L141.107 61.8945L132.085 71.2278L145.04 72.0525L145.421 66.0646ZM146.289 66.0831L146.487 72.0799L146.549 60.0888L146.289 66.0831ZM145.882 66.0949L145.698 60.0977L145.571 72.0868L145.882 66.0949ZM156.85 65.9552L157.035 71.9524L157.258 59.9691L156.85 65.9552ZM156.791 65.9503L156.582 59.954L156.422 71.939L156.791 65.9503ZM161.691 65.8741V71.8741H161.835L161.979 71.8672L161.691 65.8741ZM165.9 66.672L168.371 61.2044L168.371 61.2043L165.9 66.672ZM169.274 69.3058L174.15 65.8088L174.065 65.6907L173.975 65.5769L169.274 69.3058ZM170.964 75.0577L164.997 74.4326L164.996 74.4382L170.964 75.0577ZM170.085 77.5978L165.054 74.3288L165.053 74.3296L170.085 77.5978ZM136.49 109.401L132.835 104.643L132.834 104.643L136.49 109.401ZM128.021 110.053L133.067 106.807L133.064 106.802L128.021 110.053ZM129.324 105.521L134.266 108.924L134.268 108.921L129.324 105.521ZM147.814 82.8517L148.558 88.8055L151.63 88.4221L153.097 85.6963L147.814 82.8517ZM147.821 82.839L153.104 85.6836L157.68 77.185L148.034 76.8428L147.821 82.839ZM127.621 80.6427L126.433 86.5239L126.487 86.5347L126.54 86.5446L127.621 80.6427ZM124.178 79.0724L127.853 74.3299L127.844 74.3227L127.835 74.3156L124.178 79.0724ZM121.785 76.1417L116.401 78.7893L116.401 78.7894L121.785 76.1417ZM120.937 72.4513L114.937 72.4513L114.937 72.4514L120.937 72.4513ZM121.816 68.7667L127.177 71.4618L127.179 71.4581L121.816 68.7667ZM158.858 41.7482L161.338 47.2117L167.732 44.3098L163.869 38.4469L158.858 41.7482ZM158.855 41.7433L156.378 36.2786L149.967 39.185L153.852 45.0549L158.855 41.7433ZM161.615 40.5978L159.565 34.959L159.545 34.966L159.526 34.9732L161.615 40.5978ZM162.132 40.464L163.144 46.378C162.712 46.4519 162.238 46.4384 161.76 46.3072L163.35 40.5216L164.939 34.736C163.662 34.3851 162.358 34.3382 161.12 34.5499L162.132 40.464ZM163.35 40.5216L161.76 46.3071C161.166 46.1441 160.588 45.7904 160.145 45.2425L164.812 41.4708L169.478 37.6992C168.288 36.2273 166.685 35.2157 164.94 34.7361L163.35 40.5216ZM164.812 41.4708L160.145 45.2423C159.733 44.7328 159.497 44.1167 159.457 43.48L165.444 43.0978L171.432 42.7156C171.316 40.8888 170.637 39.1331 169.478 37.6993L164.812 41.4708ZM165.444 43.0978L159.453 43.4164C159.419 42.7818 159.582 42.1489 159.92 41.6082L165.008 44.7882L170.096 47.9682C171.067 46.4147 171.533 44.6038 171.436 42.7792L165.444 43.0978ZM165.008 44.7882L159.988 41.5013C158.792 43.3274 156.922 45.5193 153.777 48.8397C150.624 52.1682 146.608 56.2038 141.107 61.8945L145.421 66.0646L149.735 70.2346C155.043 64.7437 159.307 60.4513 162.489 57.0921C165.679 53.7247 168.198 50.8693 170.027 48.0751L165.008 44.7882ZM145.421 66.0646L145.04 72.0525C145.374 72.0737 145.677 72.075 145.818 72.0758C145.91 72.0763 145.95 72.0764 145.996 72.077C146.034 72.0775 146.041 72.078 146.029 72.0775L146.289 66.0831L146.549 60.0888C146.394 60.082 146.255 60.0793 146.148 60.078C146.048 60.0767 145.941 60.0763 145.887 60.076C145.736 60.0751 145.75 60.0734 145.802 60.0767L145.421 66.0646ZM146.289 66.0831L146.091 60.0864C145.923 60.092 145.94 60.0902 145.698 60.0977L145.882 66.0949L146.066 72.092C146.095 72.0911 146.384 72.0833 146.487 72.0799L146.289 66.0831ZM145.882 66.0949L145.571 72.0868C149.312 72.2812 153.38 72.065 157.035 71.9524L156.85 65.9552L156.665 59.9581C152.586 60.0838 149.285 60.2636 146.193 60.1029L145.882 66.0949ZM156.85 65.9552L157.258 59.9691C157.304 59.9722 157.339 59.9752 157.357 59.9768C157.366 59.9776 157.373 59.9782 157.375 59.9784C157.376 59.9785 157.379 59.9787 157.373 59.9782C157.367 59.9777 157.34 59.9752 157.308 59.9724C157.273 59.9696 157.222 59.9655 157.16 59.9616L156.791 65.9503L156.422 71.939C156.396 71.9373 156.372 71.9357 156.352 71.9342C156.333 71.9328 156.316 71.9314 156.304 71.9304C156.291 71.9293 156.281 71.9284 156.275 71.9279C156.27 71.9274 156.266 71.9271 156.268 71.9272C156.268 71.9272 156.268 71.9273 156.269 71.9273C156.27 71.9274 156.27 71.9275 156.271 71.9276C156.273 71.9277 156.277 71.928 156.28 71.9284C156.288 71.929 156.299 71.9301 156.313 71.9313C156.327 71.9326 156.346 71.9341 156.367 71.9358C156.388 71.9375 156.413 71.9394 156.441 71.9413L156.85 65.9552ZM156.791 65.9503L157 71.9467C158.543 71.8929 160.103 71.8741 161.691 71.8741V65.8741V59.8741C160.013 59.8741 158.306 59.8938 156.582 59.954L156.791 65.9503ZM161.691 65.8741L161.979 71.8672C162.489 71.8428 162.986 71.9392 163.43 72.1397L165.9 66.672L168.371 61.2043C166.182 60.2149 163.792 59.7664 161.404 59.881L161.691 65.8741ZM165.9 66.672L163.429 72.1396C163.87 72.3386 164.266 72.6461 164.574 73.0347L169.274 69.3058L173.975 65.5769C172.485 63.6993 170.564 62.1954 168.371 61.2044L165.9 66.672ZM169.274 69.3058L164.399 72.8028C164.925 73.5365 165.019 74.216 164.997 74.4326L170.964 75.0577L176.931 75.6829C177.322 71.9571 176.011 68.4034 174.15 65.8088L169.274 69.3058ZM170.964 75.0577L164.996 74.4382C164.993 74.4682 164.99 74.4658 164.999 74.4389C165.009 74.4102 165.027 74.3703 165.054 74.3288L170.085 77.5978L175.116 80.8668C176.192 79.2107 176.751 77.4174 176.932 75.6773L170.964 75.0577ZM170.085 77.5978L165.053 74.3296C164.425 75.2963 162.879 77.1443 160.414 79.7376C158.042 82.2323 155.076 85.1508 151.857 88.1791C145.398 94.2544 138.116 100.585 132.835 104.643L136.49 109.401L140.146 114.158C145.848 109.777 153.445 103.16 160.079 96.9199C163.405 93.7907 166.54 90.7098 169.11 88.0063C171.587 85.4014 173.827 82.8523 175.117 80.866L170.085 77.5978ZM136.49 109.401L132.834 104.643C132.108 105.201 131.562 105.522 131.197 105.693C130.824 105.868 130.764 105.829 130.967 105.814C131.22 105.796 131.702 105.832 132.233 106.107C132.751 106.375 133.003 106.707 133.067 106.807L128.021 110.053L122.974 113.299C124.903 116.298 128.087 118.051 131.825 117.784C134.97 117.558 137.817 115.948 140.147 114.158L136.49 109.401ZM128.021 110.053L133.064 106.802C133.509 107.494 133.702 108.292 133.686 109.01C133.672 109.636 133.505 110.021 133.482 110.073C133.457 110.131 133.477 110.072 133.631 109.838C133.703 109.73 133.785 109.61 133.894 109.454C133.985 109.326 134.14 109.107 134.266 108.924L129.324 105.521L124.383 102.117C124.217 102.358 123.124 103.804 122.481 105.282C121.749 106.962 120.936 110.137 122.978 113.304L128.021 110.053ZM129.324 105.521L134.268 108.921C135.803 106.688 140.184 101.257 144.416 96.1437C146.487 93.6416 148.454 91.2968 149.91 89.5819C150.639 88.7222 151.23 88.0331 151.637 87.5658C151.844 87.3277 151.982 87.1714 152.06 87.0859C152.105 87.0357 152.093 87.0507 152.048 87.0973C152.035 87.1104 151.942 87.2056 151.808 87.3263C151.751 87.3773 151.585 87.5261 151.352 87.6964C151.24 87.779 151.01 87.9414 150.699 88.1122C150.515 88.2135 149.708 88.6619 148.558 88.8055L147.814 82.8517L147.071 76.8979C145.92 77.0416 145.111 77.4907 144.924 77.5933C144.611 77.7653 144.379 77.9295 144.263 78.0144C144.024 78.1893 143.849 78.3448 143.783 78.4048C143.629 78.5431 143.51 78.6644 143.464 78.7116C143.352 78.8265 143.245 78.9424 143.172 79.0239C143.01 79.2017 142.808 79.4316 142.585 79.6878C142.131 80.2092 141.504 80.9411 140.761 81.8168C139.271 83.5727 137.271 85.9557 135.172 88.4926C131.063 93.4571 126.286 99.3499 124.381 102.121L129.324 105.521ZM147.814 82.8517L153.097 85.6963L153.104 85.6836L147.821 82.839L142.538 79.9944L142.532 80.0071L147.814 82.8517ZM147.821 82.839L148.034 76.8428C141.546 76.6126 135.087 75.9101 128.702 74.7408L127.621 80.6427L126.54 86.5446C133.499 87.8188 140.537 88.5843 147.609 88.8352L147.821 82.839ZM127.621 80.6427L128.809 74.7615C128.443 74.6875 128.121 74.5373 127.853 74.3299L124.178 79.0724L120.502 83.8149C122.26 85.1774 124.293 86.0914 126.433 86.5239L127.621 80.6427ZM124.178 79.0724L127.835 74.3156C127.567 74.1098 127.335 73.8308 127.169 73.4941L121.785 76.1417L116.401 78.7894C117.362 80.744 118.763 82.4778 120.521 83.8292L124.178 79.0724ZM121.785 76.1417L127.169 73.4942C127.024 73.1986 126.937 72.8418 126.937 72.4512L120.937 72.4513L114.937 72.4514C114.937 74.6182 115.419 76.7934 116.401 78.7893L121.785 76.1417ZM120.937 72.4513H126.937C126.937 72.1253 127.014 71.7865 127.177 71.4618L121.816 68.7667L116.456 66.0716C115.467 68.0385 114.937 70.2199 114.937 72.4513H120.937ZM121.816 68.7667L127.179 71.4581C126.946 71.922 126.873 71.8596 127.654 71.0376C128.271 70.389 129.16 69.5333 130.307 68.5033C132.591 66.4522 135.691 63.8957 139.217 61.2134C146.347 55.7883 154.764 50.1955 161.338 47.2117L158.858 41.7482L156.379 36.2846C148.583 39.8231 139.325 46.0528 131.951 51.663C128.224 54.4984 124.864 57.2627 122.289 59.5748C121.007 60.7264 119.866 61.8128 118.955 62.7718C118.209 63.5574 117.11 64.7681 116.454 66.0753L121.816 68.7667ZM158.858 41.7482L163.869 38.4469C163.904 38.5002 163.934 38.548 163.959 38.5885C163.984 38.6288 164.005 38.6636 164.021 38.6905C164.037 38.7171 164.049 38.7386 164.056 38.7513C164.06 38.7579 164.063 38.7631 164.065 38.7661C164.066 38.7688 164.068 38.7712 164.067 38.7704C164.067 38.7703 164.067 38.7696 164.066 38.7686C164.066 38.7676 164.065 38.766 164.064 38.7642C164.062 38.7605 164.058 38.7546 164.054 38.7474C164.046 38.7334 164.033 38.7106 164.016 38.6827C163.999 38.6545 163.978 38.6185 163.952 38.5769C163.926 38.5352 163.895 38.4862 163.859 38.4317L158.855 41.7433L153.852 45.0549C153.816 45.0008 153.785 44.9522 153.76 44.9109C153.734 44.8697 153.713 44.8341 153.696 44.8063C153.68 44.7788 153.667 44.7565 153.659 44.7428C153.655 44.7358 153.652 44.7302 153.65 44.7267C153.649 44.7249 153.648 44.7235 153.647 44.7226C153.647 44.7221 153.647 44.7217 153.647 44.7215C153.647 44.7212 153.647 44.7211 153.647 44.7211C153.646 44.7204 153.648 44.7231 153.649 44.726C153.651 44.7292 153.654 44.7346 153.658 44.7414C153.666 44.7545 153.679 44.7765 153.695 44.8035C153.711 44.8307 153.732 44.8659 153.757 44.9067C153.782 44.9475 153.813 44.9957 153.848 45.0495L158.858 41.7482ZM158.855 41.7433L161.333 47.208C162.18 46.8238 162.973 46.4938 163.704 46.2223L161.615 40.5978L159.526 34.9732C158.485 35.36 157.429 35.802 156.378 36.2786L158.855 41.7433ZM161.615 40.5978L163.666 46.2366C163.459 46.3117 163.268 46.3579 163.1 46.3853L162.132 40.464L161.163 34.5427C160.645 34.6274 160.108 34.7614 159.565 34.959L161.615 40.5978Z" fill="white" mask="url(#path-3-outside-2_656_9429)"/>
<mask id="path-5-outside-3_656_9429" maskUnits="userSpaceOnUse" x="23.8418" y="27.3623" width="148" height="146" fill="black">
<rect fill="white" x="23.8418" y="27.3623" width="148" height="146"/>
<path d="M49.5322 33.3623C52.2478 33.3623 54.9321 33.9573 57.3945 35.0967C59.8632 36.2361 62.0474 37.9076 63.8008 39.9775C65.5541 42.0474 66.8331 44.4781 67.5547 47.0986C67.9695 48.6013 68.19 50.1481 68.2188 51.7002C68.2228 51.8602 68.2246 52.0207 68.2246 52.1816C68.2246 59.9842 63.4425 66.6705 56.6465 69.4678V72.7363C56.6589 73.108 56.6257 73.4766 56.5527 73.8359C56.9084 73.9973 57.2652 74.1766 57.6211 74.376L66.6602 79.4385C66.789 76.5915 71.4337 73.0316 74.6943 72.6982C74.8671 72.6806 75.0388 72.6686 75.209 72.6611C79.1667 60.9369 89.3342 53.0615 101.256 53.0615C103.651 53.0615 105.976 53.3801 108.193 53.9834V53.9795C108.193 53.9795 108.195 53.9813 108.197 53.9844C108.262 54.002 108.326 54.021 108.391 54.0391C112.285 55.0681 115.456 56.9815 117.871 58.9404C124.666 64.4039 129.064 73.2539 129.064 83.6816C129.064 83.9426 129.053 84.2392 129.034 84.5576C128.967 86.3682 128.687 88.1322 128.321 89.7246C128.348 89.7415 128.374 89.7582 128.399 89.7744C130.073 90.0411 131.797 90.6194 133.483 91.5498V91.5566L159.045 105.66C165.286 109.104 167.046 116.422 162.508 120.125C162.507 120.126 162.505 120.126 162.504 120.127C162.511 120.125 162.515 120.125 162.515 120.125C162.515 120.125 160.226 122.331 155.662 124.641C155.536 124.705 155.408 124.766 155.28 124.829C155.134 124.901 154.987 124.978 154.836 125.05C154.623 125.152 154.406 125.25 154.187 125.347C151.032 126.756 147.518 127.692 143.735 127.709C142.606 131.772 140.668 135.486 138.066 138.768C136.723 140.464 135.201 142.043 133.525 143.497C128.524 148.172 121.51 152.111 111.802 153.651V163.949C111.802 165.411 110.606 166.608 109.144 166.608H99.9014C97.9706 166.608 96.3877 165.025 96.3877 163.095C96.3877 162.126 96.7869 161.253 97.4199 160.613C98.0593 159.974 98.9329 159.582 99.9014 159.582L106.308 160.904V154.262C105.104 154.365 103.885 154.432 102.654 154.46C102.186 154.473 101.717 154.479 101.249 154.479C100.781 154.479 100.306 154.479 99.8379 154.46C95.5549 154.36 91.4285 153.802 87.5439 152.834V163.949C87.5439 165.411 86.3479 166.608 84.8857 166.608H75.6436C73.7128 166.608 72.1299 165.025 72.1299 163.095C72.1299 162.126 72.5291 161.253 73.1621 160.613C73.8014 159.974 74.6752 159.582 75.6436 159.582L82.0498 160.904V151.132C74.8268 148.43 68.7267 144.19 64.4258 138.773V138.768C60.115 133.33 57.6212 126.715 57.6211 119.271C57.6211 115.818 58.1582 112.474 59.165 109.298C59.1582 109.294 59.1513 109.289 59.1445 109.285C56.8942 108.493 52.3259 104.605 48.8594 98.7236C48.7605 98.5572 48.6638 98.39 48.5684 98.2227C48.5386 98.1702 48.5081 98.1181 48.4785 98.0654C48.3451 97.8283 48.2154 97.5902 48.0889 97.3516C48.051 97.2803 48.014 97.2085 47.9766 97.1367C47.857 96.9069 47.7393 96.6772 47.626 96.4463C46.4957 94.1577 45.563 91.629 44.9883 88.9111C44.7427 87.8108 44.5569 86.7226 44.4248 85.6572C43.7293 80.7131 44.1753 78.0132 44.9219 76.4502C44.5781 76.1515 44.276 75.8042 44.0303 75.4141C43.5239 74.6102 43.2711 73.6799 43.3027 72.7305V70.8428C43.2073 70.4858 43.1542 70.1179 43.1445 69.7451C36.349 67.2698 31.3938 60.9632 30.8936 53.4395C30.7343 51.3111 30.9401 49.1674 31.5098 47.0986C32.2251 44.478 33.5103 42.0475 35.2637 39.9775C37.0235 37.9075 39.2074 36.2361 41.6699 35.0967C44.1324 33.9573 46.8166 33.3623 49.5322 33.3623Z"/>
</mask>
<path d="M49.5322 33.3623C52.2478 33.3623 54.9321 33.9573 57.3945 35.0967C59.8632 36.2361 62.0474 37.9076 63.8008 39.9775C65.5541 42.0474 66.8331 44.4781 67.5547 47.0986C67.9695 48.6013 68.19 50.1481 68.2188 51.7002C68.2228 51.8602 68.2246 52.0207 68.2246 52.1816C68.2246 59.9842 63.4425 66.6705 56.6465 69.4678V72.7363C56.6589 73.108 56.6257 73.4766 56.5527 73.8359C56.9084 73.9973 57.2652 74.1766 57.6211 74.376L66.6602 79.4385C66.789 76.5915 71.4337 73.0316 74.6943 72.6982C74.8671 72.6806 75.0388 72.6686 75.209 72.6611C79.1667 60.9369 89.3342 53.0615 101.256 53.0615C103.651 53.0615 105.976 53.3801 108.193 53.9834V53.9795C108.193 53.9795 108.195 53.9813 108.197 53.9844C108.262 54.002 108.326 54.021 108.391 54.0391C112.285 55.0681 115.456 56.9815 117.871 58.9404C124.666 64.4039 129.064 73.2539 129.064 83.6816C129.064 83.9426 129.053 84.2392 129.034 84.5576C128.967 86.3682 128.687 88.1322 128.321 89.7246C128.348 89.7415 128.374 89.7582 128.399 89.7744C130.073 90.0411 131.797 90.6194 133.483 91.5498V91.5566L159.045 105.66C165.286 109.104 167.046 116.422 162.508 120.125C162.507 120.126 162.505 120.126 162.504 120.127C162.511 120.125 162.515 120.125 162.515 120.125C162.515 120.125 160.226 122.331 155.662 124.641C155.536 124.705 155.408 124.766 155.28 124.829C155.134 124.901 154.987 124.978 154.836 125.05C154.623 125.152 154.406 125.25 154.187 125.347C151.032 126.756 147.518 127.692 143.735 127.709C142.606 131.772 140.668 135.486 138.066 138.768C136.723 140.464 135.201 142.043 133.525 143.497C128.524 148.172 121.51 152.111 111.802 153.651V163.949C111.802 165.411 110.606 166.608 109.144 166.608H99.9014C97.9706 166.608 96.3877 165.025 96.3877 163.095C96.3877 162.126 96.7869 161.253 97.4199 160.613C98.0593 159.974 98.9329 159.582 99.9014 159.582L106.308 160.904V154.262C105.104 154.365 103.885 154.432 102.654 154.46C102.186 154.473 101.717 154.479 101.249 154.479C100.781 154.479 100.306 154.479 99.8379 154.46C95.5549 154.36 91.4285 153.802 87.5439 152.834V163.949C87.5439 165.411 86.3479 166.608 84.8857 166.608H75.6436C73.7128 166.608 72.1299 165.025 72.1299 163.095C72.1299 162.126 72.5291 161.253 73.1621 160.613C73.8014 159.974 74.6752 159.582 75.6436 159.582L82.0498 160.904V151.132C74.8268 148.43 68.7267 144.19 64.4258 138.773V138.768C60.115 133.33 57.6212 126.715 57.6211 119.271C57.6211 115.818 58.1582 112.474 59.165 109.298C59.1582 109.294 59.1513 109.289 59.1445 109.285C56.8942 108.493 52.3259 104.605 48.8594 98.7236C48.7605 98.5572 48.6638 98.39 48.5684 98.2227C48.5386 98.1702 48.5081 98.1181 48.4785 98.0654C48.3451 97.8283 48.2154 97.5902 48.0889 97.3516C48.051 97.2803 48.014 97.2085 47.9766 97.1367C47.857 96.9069 47.7393 96.6772 47.626 96.4463C46.4957 94.1577 45.563 91.629 44.9883 88.9111C44.7427 87.8108 44.5569 86.7226 44.4248 85.6572C43.7293 80.7131 44.1753 78.0132 44.9219 76.4502C44.5781 76.1515 44.276 75.8042 44.0303 75.4141C43.5239 74.6102 43.2711 73.6799 43.3027 72.7305V70.8428C43.2073 70.4858 43.1542 70.1179 43.1445 69.7451C36.349 67.2698 31.3938 60.9632 30.8936 53.4395C30.7343 51.3111 30.9401 49.1674 31.5098 47.0986C32.2251 44.478 33.5103 42.0475 35.2637 39.9775C37.0235 37.9075 39.2074 36.2361 41.6699 35.0967C44.1324 33.9573 46.8166 33.3623 49.5322 33.3623Z" fill="white"/>
<path d="M49.5322 33.3623L49.5323 27.3623H49.5322V33.3623ZM57.3945 35.0967L54.8749 40.542L54.8801 40.5444L57.3945 35.0967ZM63.8008 39.9775L68.3791 36.0995L68.379 36.0994L63.8008 39.9775ZM67.5547 47.0986L61.77 48.6915L61.771 48.6951L67.5547 47.0986ZM68.2188 51.7002L62.2198 51.8114L62.2207 51.8521L68.2188 51.7002ZM68.2246 52.1816L74.2246 52.1816L74.2246 52.1815L68.2246 52.1816ZM56.6465 69.4678L54.3627 63.9194L50.6465 69.4678H56.6465ZM56.6465 72.7363H50.6465L50.6498 72.9362L56.6465 72.7363ZM56.5527 73.8359L50.6728 72.6417L54.0739 79.2999L56.5527 73.8359ZM57.6211 74.376L54.6887 79.6106L54.6892 79.6109L57.6211 74.376ZM66.6602 79.4385L63.7283 84.6734L72.654 79.7098L66.6602 79.4385ZM74.6943 72.6982L75.3045 78.6671L75.3053 78.6671L74.6943 72.6982ZM75.209 72.6611L75.4724 78.6553L80.8938 74.5801L75.209 72.6611ZM101.256 53.0615L101.256 47.0615H101.256V53.0615ZM108.193 53.9834L106.618 59.773L114.193 53.9834H108.193ZM108.193 53.9795L113.002 50.3904L102.193 53.9795H108.193ZM108.197 53.9844L103.585 57.8214L106.621 59.7737L108.197 53.9844ZM108.391 54.0391L106.77 59.8161L106.858 59.84L108.391 54.0391ZM117.871 58.9404L114.091 63.6002L114.111 63.6163L117.871 58.9404ZM129.064 83.6816L135.064 83.6818V83.6816H129.064ZM129.034 84.5576L123.044 84.2074L123.038 84.3357L129.034 84.5576ZM128.321 89.7246L122.473 88.3817L125.123 94.8013L128.321 89.7246ZM128.399 89.7744L125.165 94.8282L127.456 95.6997L128.399 89.7744ZM133.483 91.5498H139.483L136.382 86.2963L133.483 91.5498ZM133.483 91.5566H127.483L130.585 96.8101L133.483 91.5566ZM159.045 105.66L156.146 110.914L156.146 110.914L159.045 105.66ZM162.508 120.125L166.301 124.774L166.301 124.774L162.508 120.125ZM162.504 120.127L158.711 115.478L163.961 125.947L162.504 120.127ZM162.515 120.125L166.679 124.445L162.161 114.135L162.515 120.125ZM155.662 124.641L152.953 119.287L152.938 119.295L155.662 124.641ZM155.28 124.829L152.626 119.448L152.626 119.448L155.28 124.829ZM154.836 125.05L152.244 119.638L152.238 119.642L154.836 125.05ZM154.187 125.347L151.765 119.857L151.739 119.868L154.187 125.347ZM143.735 127.709L143.708 121.709L137.954 126.102L143.735 127.709ZM138.066 138.768L133.365 135.04L133.363 135.042L138.066 138.768ZM133.525 143.497L129.593 138.966L129.428 139.114L133.525 143.497ZM111.802 153.651L110.862 147.725L105.802 153.651H111.802ZM109.144 166.608L109.144 172.608L109.144 172.608L109.144 166.608ZM96.3877 163.095L90.3877 163.094V163.095H96.3877ZM97.4199 160.613L93.1776 156.37L93.1562 156.392L97.4199 160.613ZM99.9014 159.582L101.114 153.706L99.9014 153.582V159.582ZM106.308 160.904L105.095 166.78L112.308 160.904H106.308ZM106.308 154.262H112.308L105.797 148.284L106.308 154.262ZM102.654 154.46L102.517 148.462L102.492 148.462L102.654 154.46ZM101.249 154.479V160.479V154.479ZM99.8379 154.46L100.081 148.465L99.9781 148.462L99.8379 154.46ZM87.5439 152.834L88.9946 147.012L81.5439 152.834H87.5439ZM84.8857 166.608L84.8857 172.608L84.8865 172.608L84.8857 166.608ZM72.1299 163.095L66.1299 163.094V163.095H72.1299ZM73.1621 160.613L68.9199 156.37L68.8984 156.392L73.1621 160.613ZM75.6436 159.582L76.8564 153.706L75.6436 153.582V159.582ZM82.0498 160.904L80.837 166.78L88.0498 160.904H82.0498ZM82.0498 151.132H88.0498L84.1519 145.512L82.0498 151.132ZM64.4258 138.773H58.4258L59.7268 142.504L64.4258 138.773ZM64.4258 138.768H70.4258L69.1275 135.04L64.4258 138.768ZM57.6211 119.271L51.6211 119.271L51.6211 119.271L57.6211 119.271ZM59.165 109.298L64.8845 111.111L62.3793 104.231L59.165 109.298ZM59.1445 109.285L62.3624 104.221L61.1361 103.625L59.1445 109.285ZM48.8594 98.7236L54.0282 95.6769L54.0174 95.6586L48.8594 98.7236ZM48.5684 98.2227L43.3505 101.185L43.3559 101.194L48.5684 98.2227ZM48.4785 98.0654L53.7115 95.1301L53.7076 95.1232L48.4785 98.0654ZM48.0889 97.3516L53.3903 94.5417L53.3884 94.5381L48.0889 97.3516ZM47.9766 97.1367L42.6544 99.907L42.6576 99.9132L47.9766 97.1367ZM47.626 96.4463L53.0123 93.803L53.0057 93.7894L47.626 96.4463ZM44.9883 88.9111L50.8585 87.6698L50.8442 87.604L44.9883 88.9111ZM44.4248 85.6572L50.3792 84.9192L50.3663 84.8214L44.4248 85.6572ZM44.9219 76.4502L50.3359 79.0364L48.8572 71.921L44.9219 76.4502ZM44.0303 75.4141L38.9534 78.6118L38.9535 78.612L44.0303 75.4141ZM43.3027 72.7305L49.2994 72.9301L49.3027 72.7305H43.3027ZM43.3027 70.8428H49.3027L49.0991 69.2929L43.3027 70.8428ZM43.1445 69.7451L49.1425 69.5897L45.1981 64.1075L43.1445 69.7451ZM30.8936 53.4395L36.8803 53.0414L36.8768 52.9918L30.8936 53.4395ZM31.5098 47.0986L37.2945 48.6915L37.298 48.6786L31.5098 47.0986ZM35.2637 39.9775L30.6924 36.0912L30.6854 36.0994L35.2637 39.9775ZM41.6699 35.0967L39.1503 29.6514L39.1502 29.6514L41.6699 35.0967ZM49.5322 33.3623L49.5321 39.3623C51.3721 39.3623 53.1972 39.7657 54.8749 40.542L57.3945 35.0967L59.9142 29.6514C56.6671 28.1489 53.1235 27.3624 49.5323 27.3623L49.5322 33.3623ZM57.3945 35.0967L54.8801 40.5444C56.5442 41.3125 58.027 42.4444 59.2226 43.8557L63.8008 39.9775L68.379 36.0994C66.0677 33.3709 63.1821 31.1597 59.909 29.649L57.3945 35.0967ZM63.8008 39.9775L59.2225 43.8556C60.4082 45.2555 61.278 46.905 61.77 48.6915L67.5547 47.0986L73.3394 45.5057C72.3881 42.0512 70.6999 38.8394 68.3791 36.0995L63.8008 39.9775ZM67.5547 47.0986L61.771 48.6951C62.0499 49.7056 62.2002 50.7531 62.2198 51.8114L68.2188 51.7002L74.2177 51.589C74.1798 49.5432 73.889 47.4971 73.3384 45.5022L67.5547 47.0986ZM68.2188 51.7002L62.2207 51.8521C62.2233 51.9558 62.2246 52.0654 62.2246 52.1818L68.2246 52.1816L74.2246 52.1815C74.2246 51.976 74.2223 51.7646 74.2168 51.5483L68.2188 51.7002ZM68.2246 52.1816H62.2246C62.2246 57.4694 58.9881 62.0156 54.3627 63.9194L56.6465 69.4678L58.9302 75.0161C67.897 71.3254 74.2246 62.499 74.2246 52.1816H68.2246ZM56.6465 69.4678H50.6465V72.7363H56.6465H62.6465V69.4678H56.6465ZM56.6465 72.7363L50.6498 72.9362C50.6459 72.8188 50.657 72.7194 50.6728 72.6417L56.5527 73.8359L62.4327 75.0302C62.5944 74.2337 62.6718 73.3972 62.6432 72.5364L56.6465 72.7363ZM56.5527 73.8359L54.0739 79.2999C54.2813 79.3941 54.4864 79.4972 54.6887 79.6106L57.6211 74.376L60.5535 69.1414C60.044 68.8559 59.5356 68.6006 59.0316 68.3719L56.5527 73.8359ZM57.6211 74.376L54.6892 79.6109L63.7283 84.6734L66.6602 79.4385L69.5921 74.2036L60.553 69.1411L57.6211 74.376ZM66.6602 79.4385L72.654 79.7098C72.6179 80.5082 72.3211 80.8275 72.4673 80.6131C72.5756 80.4545 72.8381 80.1467 73.2861 79.7827C73.7219 79.4286 74.2076 79.124 74.6535 78.9125C75.1307 78.6861 75.359 78.6616 75.3045 78.6671L74.6943 72.6982L74.0841 66.7294C70.9041 67.0545 67.8536 68.7351 65.7196 70.4688C64.5828 71.3924 63.4561 72.5292 62.5553 73.8491C61.6926 75.1134 60.7669 76.9452 60.6663 79.1671L66.6602 79.4385ZM74.6943 72.6982L75.3053 78.6671C75.35 78.6625 75.405 78.6583 75.4724 78.6553L75.209 72.6611L74.9456 66.6669C74.6725 66.6789 74.3842 66.6986 74.0833 66.7294L74.6943 72.6982ZM75.209 72.6611L80.8938 74.5801C84.1129 65.044 92.1637 59.0615 101.256 59.0615V53.0615V47.0615C86.5048 47.0615 74.2205 56.8299 69.5241 70.7421L75.209 72.6611ZM101.256 53.0615L101.256 59.0615C103.117 59.0615 104.912 59.3087 106.618 59.773L108.193 53.9834L109.768 48.1938C107.04 47.4516 104.186 47.0615 101.256 47.0615L101.256 53.0615ZM108.193 53.9834H114.193V53.9795H108.193H102.193V53.9834H108.193ZM108.193 53.9795C103.385 57.5686 103.385 57.5688 103.386 57.569C103.386 57.5691 103.386 57.5693 103.386 57.5694C103.386 57.5697 103.386 57.57 103.386 57.5703C103.387 57.5709 103.387 57.5715 103.388 57.572C103.389 57.5732 103.39 57.5744 103.39 57.5755C103.392 57.5778 103.394 57.5802 103.396 57.5825C103.399 57.5872 103.403 57.592 103.406 57.5967C103.414 57.6063 103.421 57.616 103.428 57.6258C103.444 57.6456 103.459 57.6659 103.476 57.687C103.509 57.7289 103.545 57.7739 103.585 57.8214L108.197 53.9844L112.81 50.1473C112.847 50.1918 112.881 50.2344 112.913 50.2746C112.929 50.2948 112.944 50.3145 112.959 50.3338C112.966 50.3434 112.973 50.353 112.981 50.3624C112.984 50.3671 112.988 50.3718 112.991 50.3765C112.993 50.3788 112.995 50.3812 112.996 50.3835C112.997 50.3846 112.998 50.3858 112.999 50.387C112.999 50.3875 113 50.3881 113 50.3887C113 50.389 113.001 50.3893 113.001 50.3896C113.001 50.3897 113.001 50.3899 113.001 50.39C113.001 50.3902 113.002 50.3904 108.193 53.9795ZM108.197 53.9844L106.621 59.7737C106.615 59.7719 106.616 59.7722 106.644 59.7801C106.65 59.782 106.657 59.7839 106.666 59.7864C106.674 59.7887 106.684 59.7915 106.694 59.7945C106.714 59.8004 106.741 59.8079 106.77 59.8161L108.391 54.0391L110.011 48.262C109.999 48.2585 109.991 48.2564 109.944 48.2429C109.908 48.2325 109.845 48.2145 109.773 48.195L108.197 53.9844ZM108.391 54.0391L106.858 59.84C109.751 60.6043 112.174 62.0447 114.091 63.6002L117.871 58.9404L121.651 54.2806C118.738 51.9182 114.82 49.5319 109.923 48.2381L108.391 54.0391ZM117.871 58.9404L114.111 63.6163C119.406 67.8739 123.064 74.9617 123.064 83.6816H129.064H135.064C135.064 71.5462 129.925 60.9339 121.631 54.2645L117.871 58.9404ZM129.064 83.6816L123.064 83.6815C123.064 83.7793 123.06 83.9476 123.044 84.2074L129.034 84.5576L135.024 84.9079C135.046 84.5307 135.064 84.1059 135.064 83.6818L129.064 83.6816ZM129.034 84.5576L123.038 84.3357C122.988 85.6859 122.775 87.0667 122.473 88.3817L128.321 89.7246L134.169 91.0675C134.598 89.1976 134.946 87.0505 135.03 84.7795L129.034 84.5576ZM128.321 89.7246L125.123 94.8013C125.122 94.8004 125.123 94.8014 125.131 94.806C125.134 94.8083 125.139 94.811 125.144 94.8148C125.15 94.8181 125.158 94.8234 125.165 94.8282L128.399 89.7744L131.634 84.7207C131.622 84.7135 131.57 84.6797 131.519 84.6479L128.321 89.7246ZM128.399 89.7744L127.456 95.6997C128.43 95.8549 129.493 96.201 130.585 96.8033L133.483 91.5498L136.382 86.2963C134.101 85.0378 131.717 84.2273 129.343 83.8491L128.399 89.7744ZM133.483 91.5498H127.483V91.5566H133.483H139.483V91.5498H133.483ZM133.483 91.5566L130.585 96.8101L156.146 110.914L159.045 105.66L161.943 100.407L136.382 86.3032L133.483 91.5566ZM159.045 105.66L156.146 110.914C157.934 111.9 158.761 113.265 158.984 114.194C159.181 115.015 158.944 115.289 158.715 115.476L162.508 120.125L166.301 124.774C170.611 121.257 171.762 116.021 170.654 111.396C169.571 106.88 166.397 102.864 161.943 100.407L159.045 105.66ZM162.508 120.125L158.715 115.476C158.851 115.365 158.981 115.268 159.103 115.185C159.225 115.101 159.339 115.029 159.443 114.967C159.547 114.905 159.644 114.852 159.729 114.807C159.815 114.762 159.893 114.725 159.96 114.693C160.027 114.661 160.087 114.635 160.136 114.614C160.186 114.593 160.228 114.575 160.26 114.562C160.277 114.555 160.291 114.55 160.303 114.545C160.315 114.54 160.326 114.536 160.334 114.533C160.342 114.53 160.348 114.527 160.352 114.526C160.355 114.525 160.358 114.523 160.358 114.524C160.358 114.524 160.358 114.524 160.358 114.524C160.358 114.524 160.358 114.524 160.358 114.524C160.358 114.524 160.357 114.524 160.357 114.524C160.357 114.524 160.357 114.524 160.356 114.524C160.355 114.525 160.354 114.525 160.352 114.526C160.348 114.528 160.341 114.53 160.333 114.533C160.325 114.536 160.315 114.54 160.302 114.545C160.29 114.55 160.276 114.556 160.259 114.562C160.227 114.576 160.184 114.593 160.135 114.614C160.085 114.636 160.025 114.662 159.958 114.694C159.891 114.725 159.813 114.763 159.727 114.808C159.641 114.853 159.545 114.906 159.44 114.968C159.336 115.03 159.221 115.102 159.1 115.186C158.978 115.27 158.847 115.367 158.711 115.478L162.504 120.127L166.297 124.776C166.161 124.887 166.03 124.984 165.908 125.068C165.787 125.151 165.672 125.224 165.568 125.285C165.464 125.347 165.368 125.4 165.282 125.445C165.197 125.49 165.119 125.528 165.052 125.559C164.984 125.591 164.925 125.617 164.875 125.638C164.826 125.659 164.784 125.677 164.751 125.69C164.735 125.696 164.721 125.702 164.709 125.707C164.696 125.712 164.686 125.716 164.678 125.719C164.67 125.722 164.664 125.725 164.66 125.726C164.656 125.727 164.653 125.728 164.654 125.728C164.654 125.728 164.654 125.728 164.654 125.728C164.654 125.728 164.654 125.728 164.654 125.728C164.654 125.728 164.654 125.728 164.654 125.728C164.655 125.728 164.655 125.728 164.656 125.728C164.657 125.727 164.658 125.727 164.66 125.726C164.664 125.724 164.671 125.722 164.679 125.719C164.687 125.716 164.697 125.712 164.709 125.707C164.722 125.702 164.736 125.696 164.753 125.689C164.785 125.676 164.827 125.659 164.877 125.638C164.927 125.616 164.986 125.59 165.054 125.558C165.121 125.527 165.199 125.488 165.285 125.444C165.371 125.399 165.467 125.346 165.572 125.284C165.676 125.222 165.791 125.149 165.912 125.066C166.034 124.982 166.165 124.885 166.301 124.774L162.508 120.125ZM162.504 120.127L163.961 125.947C163.769 125.995 163.581 126.032 163.399 126.059C163.307 126.073 163.217 126.084 163.129 126.093C163.085 126.098 163.041 126.102 162.997 126.106C162.976 126.107 162.954 126.109 162.933 126.11C162.922 126.111 162.911 126.112 162.9 126.113C162.895 126.113 162.89 126.113 162.884 126.114C162.882 126.114 162.879 126.114 162.876 126.114C162.875 126.114 162.874 126.114 162.872 126.114C162.872 126.114 162.871 126.114 162.87 126.114C162.869 126.115 162.868 126.115 162.515 120.125C162.161 114.135 162.16 114.135 162.159 114.136C162.159 114.136 162.158 114.136 162.157 114.136C162.156 114.136 162.154 114.136 162.153 114.136C162.15 114.136 162.148 114.136 162.145 114.136C162.14 114.137 162.134 114.137 162.129 114.137C162.118 114.138 162.107 114.139 162.097 114.14C162.075 114.141 162.053 114.143 162.032 114.144C161.988 114.148 161.944 114.152 161.899 114.157C161.81 114.166 161.718 114.177 161.625 114.191C161.439 114.219 161.245 114.257 161.047 114.307L162.504 120.127ZM162.515 120.125C158.35 115.805 158.351 115.804 158.352 115.804C158.353 115.803 158.354 115.802 158.354 115.802C158.356 115.8 158.357 115.799 158.358 115.798C158.36 115.796 158.363 115.794 158.365 115.792C158.369 115.788 158.373 115.784 158.376 115.781C158.382 115.775 158.387 115.771 158.389 115.769C158.393 115.765 158.389 115.769 158.377 115.78C158.352 115.803 158.293 115.855 158.2 115.934C158.016 116.091 157.697 116.351 157.245 116.683C156.341 117.348 154.909 118.297 152.953 119.287L155.662 124.641L158.371 129.994C160.979 128.675 162.973 127.366 164.354 126.351C165.045 125.843 165.584 125.407 165.971 125.078C166.165 124.914 166.32 124.776 166.438 124.669C166.497 124.615 166.547 124.569 166.587 124.532C166.607 124.513 166.625 124.496 166.64 124.482C166.648 124.475 166.655 124.468 166.661 124.462C166.664 124.459 166.668 124.456 166.671 124.453C166.672 124.451 166.673 124.45 166.675 124.449C166.676 124.448 166.677 124.447 166.677 124.447C166.678 124.446 166.679 124.445 162.515 120.125ZM155.662 124.641L152.938 119.295C152.853 119.338 152.846 119.339 152.626 119.448L155.28 124.829L157.935 130.21C157.969 130.193 158.218 130.072 158.386 129.986L155.662 124.641ZM155.28 124.829L152.626 119.448C152.307 119.605 152.383 119.572 152.244 119.638L154.836 125.05L157.428 130.461C157.556 130.4 157.671 130.342 157.752 130.302C157.847 130.254 157.887 130.234 157.935 130.21L155.28 124.829ZM154.836 125.05L152.238 119.642C152.11 119.703 151.961 119.771 151.765 119.857L154.187 125.347L156.608 130.836C156.852 130.729 157.137 130.601 157.434 130.458L154.836 125.05ZM154.187 125.347L151.739 119.868C149.193 121.006 146.504 121.696 143.708 121.709L143.735 127.709L143.762 133.709C148.532 133.687 152.871 132.506 156.634 130.825L154.187 125.347ZM143.735 127.709L137.954 126.102C137.05 129.356 135.493 132.355 133.365 135.04L138.066 138.768L142.768 142.495C145.843 138.617 148.162 134.188 149.516 129.316L143.735 127.709ZM138.066 138.768L133.363 135.042C132.263 136.43 131.003 137.742 129.593 138.966L133.525 143.497L137.458 148.029C139.4 146.344 141.182 144.497 142.769 142.493L138.066 138.768ZM133.525 143.497L129.428 139.114C125.293 142.98 119.376 146.375 110.862 147.725L111.802 153.651L112.742 159.577C123.645 157.848 131.755 153.365 137.623 147.88L133.525 143.497ZM111.802 153.651H105.802V163.949H111.802H117.802V153.651H111.802ZM111.802 163.949H105.802C105.802 162.1 107.289 160.609 109.143 160.608L109.144 166.608L109.144 172.608C113.922 172.608 117.802 168.723 117.802 163.949H111.802ZM109.144 166.608V160.608H99.9014V166.608V172.608H109.144V166.608ZM99.9014 166.608V160.608C101.284 160.608 102.388 161.712 102.388 163.095H96.3877H90.3877C90.3877 168.339 94.6569 172.608 99.9014 172.608V166.608ZM96.3877 163.095L102.388 163.095C102.388 163.818 102.082 164.432 101.684 164.835L97.4199 160.613L93.1562 156.392C91.4915 158.073 90.3878 160.434 90.3877 163.094L96.3877 163.095ZM97.4199 160.613L101.662 164.856C101.229 165.289 100.597 165.582 99.9014 165.582V159.582V153.582C97.2687 153.582 94.8893 154.659 93.1776 156.37L97.4199 160.613ZM99.9014 159.582L98.6885 165.458L105.095 166.78L106.308 160.904L107.52 155.028L101.114 153.706L99.9014 159.582ZM106.308 160.904H112.308V154.262H106.308H100.308V160.904H106.308ZM106.308 154.262L105.797 148.284C104.715 148.376 103.621 148.436 102.517 148.462L102.654 154.46L102.792 160.458C104.15 160.427 105.493 160.353 106.818 160.24L106.308 154.262ZM102.654 154.46L102.492 148.462C102.073 148.473 101.659 148.479 101.249 148.479V154.479V160.479C101.776 160.479 102.299 160.472 102.816 160.458L102.654 154.46ZM101.249 154.479L101.249 148.479C100.767 148.479 100.41 148.478 100.081 148.465L99.8379 154.46L99.5949 160.455C100.203 160.48 100.795 160.479 101.249 160.479L101.249 154.479ZM99.8379 154.46L99.9781 148.462C96.1245 148.372 92.4381 147.87 88.9946 147.012L87.5439 152.834L86.0933 158.656C90.4189 159.734 94.9853 160.348 99.6977 160.458L99.8379 154.46ZM87.5439 152.834H81.5439V163.949H87.5439H93.5439V152.834H87.5439ZM87.5439 163.949H81.5439C81.5439 162.1 83.0319 160.609 84.885 160.608L84.8857 166.608L84.8865 172.608C89.6639 172.608 93.5439 168.723 93.5439 163.949H87.5439ZM84.8857 166.608V160.608H75.6436V166.608V172.608H84.8857V166.608ZM75.6436 166.608V160.608C77.0265 160.608 78.1299 161.712 78.1299 163.095H72.1299H66.1299C66.1299 168.339 70.3991 172.608 75.6436 172.608V166.608ZM72.1299 163.095L78.1299 163.095C78.1298 163.818 77.8246 164.432 77.4258 164.835L73.1621 160.613L68.8984 156.392C67.2337 158.073 66.13 160.434 66.1299 163.094L72.1299 163.095ZM73.1621 160.613L77.4043 164.856C76.9714 165.289 76.3396 165.582 75.6436 165.582V159.582V153.582C73.0108 153.582 70.6315 154.659 68.9199 156.37L73.1621 160.613ZM75.6436 159.582L74.4307 165.458L80.837 166.78L82.0498 160.904L83.2627 155.028L76.8564 153.706L75.6436 159.582ZM82.0498 160.904H88.0498V151.132H82.0498H76.0498V160.904H82.0498ZM82.0498 151.132L84.1519 145.512C77.8026 143.137 72.6561 139.49 69.1248 135.043L64.4258 138.773L59.7268 142.504C64.7974 148.891 71.8511 153.723 79.9477 156.752L82.0498 151.132ZM64.4258 138.773H70.4258V138.768H64.4258H58.4258V138.773H64.4258ZM64.4258 138.768L69.1275 135.04C65.6206 130.617 63.6212 125.303 63.6211 119.27L57.6211 119.271L51.6211 119.271C51.6212 128.126 54.6093 136.043 59.724 142.495L64.4258 138.768ZM57.6211 119.271H63.6211C63.6211 116.446 64.0599 113.713 64.8845 111.111L59.165 109.298L53.4455 107.485C52.2566 111.235 51.6211 115.191 51.6211 119.271H57.6211ZM59.165 109.298L62.3793 104.231C62.3496 104.213 62.3252 104.197 62.3099 104.188C62.302 104.183 62.2956 104.179 62.2914 104.177C62.2875 104.174 62.284 104.172 62.2838 104.172C62.2827 104.171 62.2846 104.173 62.2871 104.174C62.2899 104.176 62.295 104.179 62.3014 104.183C62.314 104.191 62.3355 104.204 62.3624 104.221L59.1445 109.285L55.9266 114.349C55.9569 114.368 55.9819 114.384 55.9979 114.394C56.006 114.399 56.0128 114.403 56.0173 114.406C56.0215 114.408 56.0252 114.411 56.0258 114.411C56.0273 114.412 56.0255 114.411 56.0233 114.41C56.0209 114.408 56.0161 114.405 56.01 114.401C55.9981 114.394 55.977 114.381 55.9508 114.364L59.165 109.298ZM59.1445 109.285L61.1361 103.625C61.2479 103.665 60.2969 103.222 58.6419 101.612C57.1526 100.163 55.4798 98.1394 54.0282 95.6769L48.8594 98.7236L43.6905 101.77C45.7055 105.189 48.0501 108.05 50.2742 110.213C52.3325 112.216 54.7908 114.114 57.153 114.945L59.1445 109.285ZM48.8594 98.7236L54.0174 95.6586C53.942 95.5317 53.8641 95.3972 53.7809 95.2511L48.5684 98.2227L43.3559 101.194C43.4634 101.383 43.5789 101.583 43.7013 101.789L48.8594 98.7236ZM48.5684 98.2227L53.7862 95.2606C53.7723 95.236 53.7596 95.2139 53.7495 95.1963C53.7407 95.1809 53.7296 95.1617 53.7248 95.1533C53.7108 95.1289 53.7094 95.1265 53.7115 95.1301L48.4785 98.0654L43.2455 101.001C43.2772 101.057 43.3059 101.107 43.322 101.135C43.3425 101.171 43.3461 101.177 43.3505 101.185L48.5684 98.2227ZM48.4785 98.0654L53.7076 95.1232C53.6007 94.9332 53.4951 94.7394 53.3903 94.5417L48.0889 97.3516L42.7875 100.161C42.9357 100.441 43.0895 100.723 43.2494 101.008L48.4785 98.0654ZM48.0889 97.3516L53.3884 94.5381C53.3631 94.4906 53.3528 94.47 53.2955 94.3602L47.9766 97.1367L42.6576 99.9132C42.6752 99.947 42.7389 100.07 42.7894 100.165L48.0889 97.3516ZM47.9766 97.1367L53.2988 94.3665C53.1901 94.1578 53.0965 93.9744 53.0123 93.803L47.626 96.4463L42.2396 99.0896C42.3821 99.38 42.5238 99.6561 42.6544 99.907L47.9766 97.1367ZM47.626 96.4463L53.0057 93.7894C52.0704 91.8956 51.3176 89.8409 50.8585 87.6698L44.9883 88.9111L39.1181 90.1525C39.8085 93.4172 40.921 96.4198 42.2463 99.1032L47.626 96.4463ZM44.9883 88.9111L50.8442 87.604C50.6415 86.6962 50.4882 85.7981 50.3792 84.9192L44.4248 85.6572L38.4704 86.3952C38.6255 87.6472 38.8438 88.9254 39.1324 90.2183L44.9883 88.9111ZM44.4248 85.6572L50.3663 84.8214C50.0614 82.6538 50.0395 81.1979 50.1138 80.2595C50.1872 79.3322 50.3462 79.0148 50.3359 79.0364L44.9219 76.4502L39.5079 73.864C38.0197 76.9794 37.72 81.067 38.4833 86.4931L44.4248 85.6572ZM44.9219 76.4502L48.8572 71.921C48.9378 71.9911 49.0263 72.088 49.107 72.2161L44.0303 75.4141L38.9535 78.612C39.5258 79.5204 40.2184 80.3119 40.9866 80.9794L44.9219 76.4502ZM44.0303 75.4141L49.1071 72.2163C49.238 72.424 49.3079 72.6765 49.2994 72.9301L43.3027 72.7305L37.3061 72.5308C37.2344 74.6833 37.8099 76.7964 38.9534 78.6118L44.0303 75.4141ZM43.3027 72.7305H49.3027V70.8428H43.3027H37.3027V72.7305H43.3027ZM43.3027 70.8428L49.0991 69.2929C49.1262 69.3943 49.1401 69.4945 49.1425 69.5897L43.1445 69.7451L37.1465 69.9005C37.1683 70.7412 37.2884 71.5774 37.5064 72.3926L43.3027 70.8428ZM43.1445 69.7451L45.1981 64.1075C40.5769 62.4242 37.2188 58.1319 36.8803 53.0414L30.8936 53.4395L24.9068 53.8375C25.5688 63.7944 32.1212 72.1155 41.091 75.3828L43.1445 69.7451ZM30.8936 53.4395L36.8768 52.9918C36.7687 51.5465 36.9085 50.0932 37.2945 48.6915L31.5098 47.0986L25.7251 45.5057C24.9717 48.2416 24.6999 51.0757 24.9103 53.8871L30.8936 53.4395ZM31.5098 47.0986L37.298 48.6786C37.7808 46.9097 38.6504 45.2622 39.8419 43.8557L35.2637 39.9775L30.6854 36.0994C28.3701 38.8327 26.6693 42.0463 25.7215 45.5187L31.5098 47.0986ZM35.2637 39.9775L39.835 43.8638C41.0416 42.4446 42.5293 41.3102 44.1896 40.542L41.6699 35.0967L39.1502 29.6514C35.8856 31.162 33.0054 33.3705 30.6924 36.0912L35.2637 39.9775ZM41.6699 35.0967L44.1896 40.542C45.8674 39.7656 47.6923 39.3623 49.5322 39.3623V33.3623V27.3623C45.9408 27.3623 42.3974 28.1489 39.1503 29.6514L41.6699 35.0967Z" fill="white" mask="url(#path-5-outside-3_656_9429)"/>
<path d="M147.821 82.8386C141.041 82.5981 134.293 81.8638 127.621 80.642C126.368 80.3888 125.19 79.8571 124.178 79.0721C123.165 78.2935 122.348 77.287 121.785 76.1412C121.221 74.9954 120.937 73.7294 120.937 72.4507C120.937 71.1719 121.24 69.9122 121.816 68.7664C123.621 65.1708 147.34 45.9521 161.609 40.603C162.166 40.3941 162.773 40.3625 163.349 40.5207C163.925 40.679 164.438 41.0082 164.812 41.4703C165.185 41.9324 165.407 42.5021 165.445 43.0972C165.476 43.6922 165.324 44.2809 165.008 44.7874C161.982 49.4085 156.228 54.8841 145.416 66.0697C150.353 66.3799 155.867 65.8418 161.691 65.8798C163.134 65.8039 164.577 66.0824 165.9 66.6774C167.217 67.2725 168.376 68.1777 169.274 69.3108C171.009 71.729 171.705 75.103 170.085 77.5972C166.249 83.5033 147.473 100.962 136.49 109.4C132.578 112.407 129.641 112.572 128.02 110.052C127.033 108.521 128.47 106.761 129.324 105.52C132.768 100.513 147.663 82.845 147.815 82.8513L147.821 82.8386Z" fill="#FFE500"/>
<path d="M169.275 69.3046C168.376 68.1715 167.217 67.2662 165.901 66.6712C164.584 66.0761 163.141 65.8039 161.691 65.8736C160.058 65.8736 158.425 65.8926 156.791 65.9495C158.026 66.0255 159.229 66.361 160.317 66.9371C161.406 67.5131 162.362 68.3234 163.115 69.3046C164.85 71.7227 165.546 75.0968 163.926 77.5909C160.089 83.4971 141.314 100.95 130.331 109.394C129.742 109.844 129.128 110.255 128.482 110.629C130.179 112.496 132.914 112.148 136.484 109.394C147.473 100.95 166.249 83.4971 170.085 77.5909C171.706 75.0968 171.009 71.7227 169.275 69.3046ZM158.842 44.7811C155.949 49.1996 150.556 54.4031 140.637 64.6328C140.516 64.7594 140.434 64.9114 140.402 65.0823C140.371 65.2532 140.39 65.4305 140.453 65.5887C140.516 65.747 140.63 65.8862 140.769 65.9812C140.909 66.0761 141.08 66.1331 141.251 66.1394C142.877 66.1711 144.568 66.1394 146.289 66.0825C145.998 66.0698 145.694 66.0825 145.41 66.0635C156.19 54.8969 161.957 49.4212 164.983 44.8127C165.306 44.3127 165.464 43.7239 165.432 43.1226C165.401 42.5212 165.185 41.9578 164.812 41.4894C164.438 41.0272 163.932 40.6854 163.356 40.5272C162.78 40.3689 162.172 40.3942 161.615 40.5968C160.729 40.926 159.805 41.3121 158.855 41.7426C159.153 42.192 159.311 42.7174 159.311 43.2618C159.311 43.7999 159.146 44.3316 158.849 44.7748L158.842 44.7811Z" fill="#F2C100"/>
<path d="M44.3834 110.566C42.3007 111.471 40.1611 112.218 37.9708 112.813C37.553 112.921 37.1225 112.927 36.7047 112.839C36.2869 112.75 35.8945 112.566 35.559 112.301C35.2235 112.035 34.9576 111.693 34.774 111.307C34.5904 110.921 34.5018 110.496 34.5081 110.066C34.5335 108.724 38.9267 99.5007 42.4653 95.8291C42.6045 95.6836 42.7818 95.5886 42.978 95.5506C43.1743 95.5126 43.3768 95.5443 43.5541 95.6266C43.7313 95.7152 43.8833 95.8545 43.9782 96.0254C44.0732 96.2026 44.1112 96.3989 44.0858 96.6014C43.839 98.4309 42.8894 100.912 41.2372 105.85C42.7691 105.23 44.358 104.274 46.1242 103.451C46.5483 103.223 47.0231 103.096 47.5105 103.084C47.9979 103.071 48.4727 103.179 48.9095 103.394C49.7831 103.875 50.4794 104.793 50.3465 105.78C50.0363 108.116 46.8838 116.092 44.7822 120.22C44.0352 121.688 43.1743 122.163 42.3197 121.638C41.8006 121.315 41.9842 120.581 42.0601 120.08C42.3767 118.074 44.3327 110.591 44.377 110.572L44.3834 110.566Z" fill="#FFE500"/>
<path d="M48.9096 103.388C48.4728 103.172 47.998 103.071 47.5106 103.077C47.0231 103.09 46.5484 103.21 46.1242 103.445C45.6305 103.679 45.143 103.919 44.6556 104.172C45.0354 104.014 45.4532 103.945 45.8647 103.964C46.2762 103.983 46.6813 104.09 47.0485 104.274C47.922 104.755 48.6184 105.673 48.4854 106.66C48.1752 108.996 45.0228 116.972 42.9211 121.1C42.8072 121.321 42.6806 121.536 42.5413 121.739C43.3199 122.056 44.0985 121.555 44.7822 120.213C46.8839 116.08 50.0427 108.11 50.3465 105.774C50.4795 104.787 49.7768 103.869 48.9096 103.388ZM42.2311 97.4877C41.9906 99.2349 41.117 101.583 39.5914 106.103C39.5724 106.16 39.5724 106.217 39.5914 106.274C39.6041 106.331 39.6357 106.382 39.68 106.42C39.7243 106.458 39.775 106.483 39.8319 106.496C39.8889 106.502 39.9459 106.496 40.0029 106.47C40.4966 106.242 41.003 105.996 41.5158 105.73C41.4272 105.768 41.3385 105.818 41.2436 105.85C42.8895 100.925 43.8453 98.4436 44.0922 96.6141C44.1175 96.4179 44.0796 96.2153 43.9846 96.0381C43.8896 95.8608 43.7441 95.7216 43.5605 95.6329C43.3832 95.5443 43.1807 95.519 42.9844 95.5507C42.7882 95.5823 42.6046 95.6773 42.4653 95.8229C42.2438 96.0507 42.0222 96.2976 41.8007 96.5698C41.9526 96.6648 42.0792 96.7977 42.1552 96.9623C42.2311 97.1269 42.2628 97.3105 42.2311 97.4877Z" fill="#F2C100"/>
<path d="M57.6206 74.3762L101.173 98.7731C101.173 98.7731 83.6444 123.075 60.7667 110.256C47.1946 102.654 43.4914 88.594 44.27 79.2379C44.7575 73.4014 51.2587 70.8123 57.6206 74.3762Z" fill="#276286"/>
<path opacity="0.5" d="M46.9989 74.2246C45.7138 75.0792 42.612 76.6618 44.8845 88.4044C47.1065 99.9002 55.7916 108.13 59.1656 109.294C62.5397 110.459 65.4706 111.295 65.4706 111.295V107.946C65.4706 107.946 56.7222 102.363 53.2278 98.1214C49.9994 94.203 46.714 88.3475 47.0052 74.2246H46.9989Z" fill="#14465D"/>
<path d="M111.802 134.856V163.95C111.802 165.412 110.605 166.609 109.143 166.609H99.901C97.9703 166.609 96.3877 165.026 96.3877 163.095C96.3877 162.127 96.7865 161.253 97.4195 160.614C98.0589 159.975 98.9325 159.582 99.901 159.582L106.307 160.905V134.862C106.307 133.4 107.504 132.204 108.966 132.204H109.143C110.605 132.204 111.802 133.4 111.802 134.862V134.856Z" fill="#474747"/>
<path d="M87.5441 134.856V163.95C87.5441 165.412 86.3477 166.609 84.8854 166.609H75.6432C73.7124 166.609 72.1299 165.026 72.1299 163.095C72.1299 162.127 72.5287 161.253 73.1617 160.614C73.8011 159.975 74.6747 159.582 75.6432 159.582L82.0494 160.905V134.862C82.0494 133.4 83.2458 132.204 84.7081 132.204H84.8854C86.3477 132.204 87.5441 133.4 87.5441 134.862V134.856Z" fill="#474747"/>
<path d="M144.871 119.271C144.871 126.709 142.377 133.33 138.066 138.768C130.559 148.245 117.543 154.119 102.655 154.461C102.186 154.473 101.718 154.48 101.249 154.48C100.781 154.48 100.306 154.48 99.8377 154.461C84.9426 154.113 71.9402 148.238 64.4261 138.774C64.4261 138.774 64.4261 138.774 64.4261 138.768C60.1152 133.33 57.6211 126.715 57.6211 119.271C57.6211 107.598 63.7678 97.1655 73.4151 90.2592C73.4151 90.2592 73.4404 85.5874 73.4404 83.682C73.4404 66.1408 85.8921 53.0625 101.256 53.0625C116.619 53.0625 129.065 66.1408 129.065 83.682C129.065 85.5938 128.508 89.4236 128.235 89.6705C128.818 90.0313 129.09 90.2592 129.09 90.2592C138.744 97.1719 144.89 107.604 144.89 119.277L144.871 119.271Z" fill="#4D8DCB"/>
<path d="M91.9632 81.3902C95.3439 81.3902 98.0846 78.6496 98.0846 75.2688C98.0846 71.8881 95.3439 69.1475 91.9632 69.1475C88.5824 69.1475 85.8418 71.8881 85.8418 75.2688C85.8418 78.6496 88.5824 81.3902 91.9632 81.3902Z" fill="white"/>
<path d="M75.978 85.1378C72.5787 85.4859 66.9701 82.7133 66.6662 79.814C66.3687 76.9148 71.2873 73.047 74.693 72.6988C78.0924 72.3506 81.0486 73.9585 81.4917 78.2821C81.9412 82.6563 79.3774 84.7896 75.978 85.1378Z" fill="#DDB61E"/>
<path opacity="0.5" d="M108.193 53.98C108.193 53.98 116.151 63.526 118.296 69.1473C120.86 75.8574 120.917 82.2193 120.423 85.1692C119.309 91.873 116.372 96.4941 116.372 96.4941H126.026C126.026 96.4941 129.071 90.2588 129.052 83.6816C129.033 77.5033 127.513 70.2425 122.462 63.6336C120.449 61.0003 115.619 55.8791 108.193 53.9863V53.98Z" fill="#2A5D82"/>
<path opacity="0.5" d="M122.303 105.705C122.303 105.705 130.203 118.296 123.348 131.634C118.625 140.825 111.757 145.921 98.0898 154.201C135.052 156.55 144.181 129.963 144.877 121.904C145.105 119.277 122.303 105.705 122.303 105.705Z" fill="#2A5D82"/>
<path d="M133.483 91.5569L159.044 105.661C165.286 109.104 167.046 116.422 162.507 120.125C155.423 125.905 144.187 131.463 131.362 124.386C120.651 118.473 117.075 108.294 116.207 99.4634C115.391 91.1708 124.911 86.8219 133.483 91.5506V91.5569Z" fill="#276286"/>
<path opacity="0.5" d="M79.77 74.2246C79.77 74.2246 79.4471 75.9591 78.966 77.8708C78.4406 79.9282 76.9213 81.3335 75.4844 81.783C73.6043 82.3717 72.3256 82.8718 69.4326 83.2642C71.7875 84.7075 74.25 85.2963 75.9781 85.138C79.6497 84.8088 81.1563 82.5869 81.4538 80.4409C82.0362 76.2376 79.77 74.2246 79.77 74.2246Z" fill="#987D26"/>
<path opacity="0.5" d="M116.379 96.4883C115.506 100.4 117.645 107.845 119.013 110.763C122.349 117.916 127.704 123.626 134.946 126.063C142.289 128.532 149.657 127.538 154.836 125.05C159.95 122.601 162.514 120.126 162.514 120.126C162.514 120.126 151.816 122.829 144.884 121.898C137.953 120.967 129.673 117.22 124.868 111.282C120.063 105.344 118.633 101.274 116.386 96.4819L116.379 96.4883Z" fill="#14465D"/>
<path d="M91.9622 78.529C93.7627 78.529 95.2223 77.0694 95.2223 75.2689C95.2223 73.4684 93.7627 72.0088 91.9622 72.0088C90.1617 72.0088 88.7021 73.4684 88.7021 75.2689C88.7021 77.0694 90.1617 78.529 91.9622 78.529Z" fill="#040000"/>
<path d="M53.7847 76.5857C53.7847 74.4777 52.0756 72.7749 49.9739 72.7749C47.8723 72.7749 46.1631 74.4841 46.1631 76.5857V77.5353C46.1631 79.6432 47.8723 81.3461 49.9739 81.3461C52.0756 81.3461 53.7847 79.6369 53.7847 77.5353V76.5857Z" fill="#A9BFD2"/>
<path d="M53.8034 77.2249C51.3409 78.1871 48.6062 78.1871 46.1438 77.2249C45.2765 76.8451 44.5359 76.2184 44.0295 75.4144C43.523 74.6105 43.2698 73.6799 43.3015 72.7304V68.084H56.6457V72.7367C56.6773 73.6863 56.4241 74.6168 55.9177 75.4208C55.4113 76.2247 54.677 76.8514 53.8034 77.2249Z" fill="#A9BFD2"/>
<path d="M53.6462 73.9583C51.1837 74.9205 48.449 74.9205 45.9865 73.9583C45.1193 73.5785 44.3786 72.9518 43.8722 72.1478C43.3658 71.3439 43.1126 70.4133 43.1442 69.4638V64.811H56.4885V69.4638C56.5201 70.4133 56.2669 71.3439 55.7605 72.1478C55.2541 72.9518 54.5198 73.5785 53.6462 73.9583Z" fill="#889FB2"/>
<path d="M53.6462 72.3885C51.1837 73.3507 48.449 73.3507 45.9865 72.3885C45.1193 72.0086 44.3786 71.3819 43.8722 70.578C43.3658 69.7741 43.1126 68.8435 43.1442 67.894V63.2412H56.4885V67.894C56.5201 68.8435 56.2669 69.7741 55.7605 70.578C55.2541 71.3819 54.5198 72.0086 53.6462 72.3885Z" fill="#607887"/>
<path d="M49.5376 70.8691C59.8622 70.8691 68.2245 62.5004 68.2245 52.1821C68.2245 41.8637 59.8559 33.4951 49.5376 33.4951C39.2192 33.4951 30.8506 41.8637 30.8506 52.1821C30.8506 62.5004 39.2192 70.8691 49.5376 70.8691Z" fill="#F5EB8B"/>
<path d="M61.0014 55.3852C61.0014 53.2835 60.4317 51.2262 59.3428 49.4284C58.254 47.6306 56.6968 46.1683 54.8357 45.1998C52.9746 44.2312 50.8793 43.7881 48.7839 43.921C46.6886 44.0603 44.6693 44.7693 42.9538 45.972C41.2319 47.1748 39.8772 48.827 39.029 50.7514C38.1807 52.6758 37.8832 54.7901 38.1554 56.8728C38.4276 58.9554 39.2695 60.9178 40.5862 62.5574C41.9029 64.1906 43.6438 65.4376 45.6125 66.153V67.9887C45.5935 68.5711 45.7454 69.1409 46.0619 69.6346C46.3721 70.1284 46.8216 70.5145 47.3596 70.7424C48.8726 71.3311 50.5501 71.3311 52.063 70.7424C52.5948 70.5082 53.0506 70.122 53.3607 69.6346C53.6709 69.1409 53.8292 68.5711 53.8102 67.9887V66.0074C55.9308 65.1528 57.754 63.6905 59.0327 61.7977C60.3177 59.905 61.0014 57.6704 61.0014 55.3852Z" fill="#F2DB24"/>
<path d="M49.5313 39.414C53.9688 39.414 58.2671 41.0029 61.6411 43.8832C65.0215 46.7635 67.2624 50.7579 67.9651 55.1384C68.4145 52.4607 68.2752 49.7134 67.5536 47.099C66.8319 44.4783 65.5532 42.0474 63.7997 39.9774C62.0463 37.9074 59.8623 36.2362 57.3935 35.0968C54.931 33.9573 52.247 33.3623 49.5313 33.3623C46.8156 33.3623 44.1316 33.9573 41.6691 35.0968C39.2066 36.2362 37.0227 37.9074 35.2629 39.9774C33.5094 42.0474 32.2243 44.4783 31.509 47.099C30.7874 49.7197 30.6481 52.4607 31.0975 55.1384C31.8002 50.7516 34.0411 46.7635 37.4152 43.8832C40.7955 41.0029 45.0874 39.414 49.525 39.414H49.5313Z" fill="#F9F5CC"/>
<path d="M44.0109 48.454C45.7201 45.8016 45.296 42.4782 43.0551 41.0349C40.8141 39.5916 37.6174 40.5728 35.9019 43.2252C34.1927 45.8776 34.6168 49.201 36.8577 50.6443C39.0986 52.0876 42.2954 51.1064 44.0109 48.454Z" fill="white"/>
</svg>
