<svg width="200" height="200" viewBox="0 0 200 200" fill="none" xmlns="http://www.w3.org/2000/svg">
<mask id="path-1-outside-1_1062_19977" maskUnits="userSpaceOnUse" x="11" y="12.0002" width="179" height="173" fill="black">
<rect fill="white" x="11" y="12.0002" width="179" height="173"/>
<path d="M39.251 43.53C39.2519 40.9608 49.6316 42.0963 53.2158 43.53C64.8526 48.1845 67.1802 50.2702 67.1807 52.8396L67.1836 52.8405C67.1875 52.8425 67.1914 52.8444 67.1953 52.8464C67.8294 53.1328 90.9977 63.5302 117.33 66.0593C117.332 66.0566 117.335 66.0542 117.337 66.0515C126.503 66.9309 136.049 66.8633 145.161 65.0817C145.576 65.0004 145.99 64.9153 146.403 64.8269C147.161 64.665 147.915 64.4911 148.665 64.3044C151.028 63.7156 153.354 63.0028 155.628 62.1501C156.582 61.7927 157.549 61.6251 158.517 61.6218H158.519C161.119 61.6131 163.716 62.7946 166.03 64.6784C166.068 64.7089 166.105 64.7394 166.143 64.7702C169.97 67.9366 173 73.0207 173.942 77.7976C180.146 80.4934 183.559 86.346 183.559 94.736V118.011C183.558 120.586 181.477 122.666 178.903 122.666C176.329 122.665 174.249 120.586 174.249 118.011V94.736C174.249 93.784 174.193 92.9148 174.083 92.1237C173.515 111.208 171.506 125.695 168.634 135.97C163.127 162.039 155.004 178.527 150.973 178.527C146.728 178.527 144.037 166.21 142.696 155.252H97.0762C93.6459 166.358 87.4036 178.526 81.1475 178.527C76.076 178.527 85.5454 119.602 45.54 113.572C40.0377 113.668 34.5667 113.76 30.0684 113.76C20.633 113.76 13.1058 97.57 19.1992 91.4997C25.2884 85.4253 43.9078 80.7702 39.2529 62.1501C37.9798 57.0553 42.7333 53.5478 48.9512 51.9196C43.9346 48.6381 39.251 44.8752 39.251 43.53ZM38.6621 149.716C39.159 149.614 39.5653 149.946 39.5654 150.453V154.634C39.5653 155.14 39.159 155.638 38.6621 155.74L34.044 156.684V173.829H34.0274C33.9422 176.141 31.5176 178 28.5215 178C25.4713 178 23 176.077 23 173.705C23.0001 171.333 25.4713 169.41 28.5215 169.41C29.3078 169.41 30.0535 169.541 30.7305 169.772V152.259C30.7307 151.753 31.1369 151.255 31.6348 151.152L38.6621 149.716ZM54.8145 141.018C55.3112 140.916 55.7178 141.249 55.7178 141.756V145.935C55.7178 146.442 55.3112 146.94 54.8145 147.042L50.1953 147.986V165.131H50.1787C50.0937 167.443 47.6699 169.302 44.6738 169.302C41.6237 169.302 39.1517 167.378 39.1514 165.008C39.1514 162.635 41.6235 160.713 44.6738 160.713C45.4598 160.713 46.2051 160.843 46.8818 161.074V143.562C46.8818 143.055 47.289 142.557 47.7871 142.456L54.8145 141.018ZM150.8 19.0105C151.658 18.912 152.36 19.5371 152.36 20.4011V42.3503C152.36 45.237 149.629 47.5776 146.263 47.5778C142.896 47.5778 140.164 45.2371 140.164 42.3503C140.164 39.4628 142.896 37.1237 146.263 37.1237C147.199 37.1238 148.083 37.3104 148.876 37.6345V26.2019L133.195 28.0114V44.0925C133.195 46.9793 130.465 49.32 127.098 49.32C123.731 49.32 121 46.9793 121 44.0925C121 41.205 123.731 38.866 127.098 38.8659C128.034 38.8659 128.918 39.0525 129.711 39.3757V23.0144C129.711 22.1504 130.414 21.3628 131.271 21.2634L150.8 19.0105Z"/>
</mask>
<path d="M39.251 43.53C39.2519 40.9608 49.6316 42.0963 53.2158 43.53C64.8526 48.1845 67.1802 50.2702 67.1807 52.8396L67.1836 52.8405C67.1875 52.8425 67.1914 52.8444 67.1953 52.8464C67.8294 53.1328 90.9977 63.5302 117.33 66.0593C117.332 66.0566 117.335 66.0542 117.337 66.0515C126.503 66.9309 136.049 66.8633 145.161 65.0817C145.576 65.0004 145.99 64.9153 146.403 64.8269C147.161 64.665 147.915 64.4911 148.665 64.3044C151.028 63.7156 153.354 63.0028 155.628 62.1501C156.582 61.7927 157.549 61.6251 158.517 61.6218H158.519C161.119 61.6131 163.716 62.7946 166.03 64.6784C166.068 64.7089 166.105 64.7394 166.143 64.7702C169.97 67.9366 173 73.0207 173.942 77.7976C180.146 80.4934 183.559 86.346 183.559 94.736V118.011C183.558 120.586 181.477 122.666 178.903 122.666C176.329 122.665 174.249 120.586 174.249 118.011V94.736C174.249 93.784 174.193 92.9148 174.083 92.1237C173.515 111.208 171.506 125.695 168.634 135.97C163.127 162.039 155.004 178.527 150.973 178.527C146.728 178.527 144.037 166.21 142.696 155.252H97.0762C93.6459 166.358 87.4036 178.526 81.1475 178.527C76.076 178.527 85.5454 119.602 45.54 113.572C40.0377 113.668 34.5667 113.76 30.0684 113.76C20.633 113.76 13.1058 97.57 19.1992 91.4997C25.2884 85.4253 43.9078 80.7702 39.2529 62.1501C37.9798 57.0553 42.7333 53.5478 48.9512 51.9196C43.9346 48.6381 39.251 44.8752 39.251 43.53ZM38.6621 149.716C39.159 149.614 39.5653 149.946 39.5654 150.453V154.634C39.5653 155.14 39.159 155.638 38.6621 155.74L34.044 156.684V173.829H34.0274C33.9422 176.141 31.5176 178 28.5215 178C25.4713 178 23 176.077 23 173.705C23.0001 171.333 25.4713 169.41 28.5215 169.41C29.3078 169.41 30.0535 169.541 30.7305 169.772V152.259C30.7307 151.753 31.1369 151.255 31.6348 151.152L38.6621 149.716ZM54.8145 141.018C55.3112 140.916 55.7178 141.249 55.7178 141.756V145.935C55.7178 146.442 55.3112 146.94 54.8145 147.042L50.1953 147.986V165.131H50.1787C50.0937 167.443 47.6699 169.302 44.6738 169.302C41.6237 169.302 39.1517 167.378 39.1514 165.008C39.1514 162.635 41.6235 160.713 44.6738 160.713C45.4598 160.713 46.2051 160.843 46.8818 161.074V143.562C46.8818 143.055 47.289 142.557 47.7871 142.456L54.8145 141.018ZM150.8 19.0105C151.658 18.912 152.36 19.5371 152.36 20.4011V42.3503C152.36 45.237 149.629 47.5776 146.263 47.5778C142.896 47.5778 140.164 45.2371 140.164 42.3503C140.164 39.4628 142.896 37.1237 146.263 37.1237C147.199 37.1238 148.083 37.3104 148.876 37.6345V26.2019L133.195 28.0114V44.0925C133.195 46.9793 130.465 49.32 127.098 49.32C123.731 49.32 121 46.9793 121 44.0925C121 41.205 123.731 38.866 127.098 38.8659C128.034 38.8659 128.918 39.0525 129.711 39.3757V23.0144C129.711 22.1504 130.414 21.3628 131.271 21.2634L150.8 19.0105Z" fill="#4B9AE8"/>
<path d="M39.251 43.53L33.251 43.5277V43.53H39.251ZM53.2158 43.53L50.9874 49.1008L50.9876 49.1009L53.2158 43.53ZM67.1807 52.8396L61.1807 52.8406C61.1811 55.4228 62.8336 57.7151 65.2833 58.5317L67.1807 52.8396ZM67.1836 52.8405L69.8669 47.474C69.613 47.347 69.3503 47.2382 69.081 47.1484L67.1836 52.8405ZM67.1953 52.8464L64.5097 58.2118C64.5809 58.2474 64.6528 58.2816 64.7253 58.3144L67.1953 52.8464ZM117.33 66.0593L116.756 72.0318C118.782 72.2263 120.768 71.3812 122.032 69.7869L117.33 66.0593ZM117.337 66.0515L117.91 60.0789C115.885 59.8847 113.9 60.7292 112.636 62.3226L117.337 66.0515ZM145.161 65.0817L146.312 70.9703L146.315 70.9698L145.161 65.0817ZM146.403 64.8269L145.149 58.9594L145.147 58.9599L146.403 64.8269ZM148.665 64.3044L150.114 70.1268L150.116 70.1264L148.665 64.3044ZM155.628 62.1501L153.522 56.5317L153.521 56.5321L155.628 62.1501ZM158.517 61.6218V55.6218C158.51 55.6218 158.503 55.6218 158.496 55.6218L158.517 61.6218ZM158.519 61.6218V67.6218C158.525 67.6218 158.532 67.6218 158.539 67.6217L158.519 61.6218ZM166.03 64.6784L169.819 60.0258L169.818 60.0255L166.03 64.6784ZM166.143 64.7702L162.318 69.3931L162.318 69.3933L166.143 64.7702ZM173.942 77.7976L168.056 78.9591C168.437 80.8924 169.744 82.5151 171.551 83.3005L173.942 77.7976ZM183.559 118.011L189.559 118.012V118.011H183.559ZM178.903 122.666L178.903 128.666H178.903V122.666ZM174.249 118.011L168.249 118.011L168.249 118.012L174.249 118.011ZM174.083 92.1237L180.026 91.3003C179.598 88.2106 176.874 85.9642 173.759 86.1325C170.645 86.3007 168.178 88.8274 168.086 91.9453L174.083 92.1237ZM168.634 135.97L162.855 134.355C162.821 134.479 162.79 134.604 162.763 134.73L168.634 135.97ZM150.973 178.527L150.972 184.527H150.973V178.527ZM142.696 155.252L148.652 154.523C148.284 151.514 145.728 149.252 142.696 149.252V155.252ZM97.0762 155.252V149.252C94.4445 149.252 92.12 150.967 91.3434 153.481L97.0762 155.252ZM81.1475 178.527L81.1475 184.527L81.148 184.527L81.1475 178.527ZM45.54 113.572L46.4343 107.639C46.1037 107.589 45.7694 107.567 45.435 107.573L45.54 113.572ZM30.0684 113.76L30.0681 119.76H30.0684V113.76ZM19.1992 91.4997L23.4338 95.7504L23.4367 95.7475L19.1992 91.4997ZM39.2529 62.1501L33.4319 63.6047L33.4321 63.6053L39.2529 62.1501ZM48.9512 51.9196L50.4711 57.7239C52.766 57.123 54.4913 55.2263 54.873 52.8849C55.2547 50.5436 54.221 48.1971 52.2357 46.8985L48.9512 51.9196ZM38.6621 149.716L39.8638 155.594L39.8639 155.594L38.6621 149.716ZM39.5654 150.453L45.5654 150.453L45.5654 150.451L39.5654 150.453ZM39.5654 154.634L45.5654 154.636V154.634H39.5654ZM38.6621 155.74L37.4603 149.862L37.4601 149.862L38.6621 155.74ZM34.044 156.684L32.8419 150.806C30.0493 151.377 28.044 153.834 28.044 156.684H34.044ZM34.044 173.829V179.829C37.3577 179.829 40.044 177.143 40.044 173.829H34.044ZM34.0274 173.829V167.829C30.7995 167.829 28.1502 170.382 28.0314 173.608L34.0274 173.829ZM28.5215 178L28.5213 184H28.5215V178ZM23 173.705L17 173.705V173.705H23ZM28.5215 169.41L28.5215 163.41L28.5213 163.41L28.5215 169.41ZM30.7305 169.772L28.7943 175.451C30.6266 176.076 32.6478 175.778 34.2221 174.652C35.7964 173.525 36.7305 171.708 36.7305 169.772H30.7305ZM30.7305 152.259L24.7305 152.257V152.259H30.7305ZM31.6348 151.152L30.4331 145.274L30.4217 145.276L31.6348 151.152ZM54.8145 141.018L56.0169 146.897L56.0257 146.895L54.8145 141.018ZM54.8145 147.042L56.0162 152.92L56.0193 152.919L54.8145 147.042ZM50.1953 147.986L48.9935 142.108C46.2008 142.679 44.1953 145.136 44.1953 147.986H50.1953ZM50.1953 165.131V171.131C53.509 171.131 56.1953 168.444 56.1953 165.131H50.1953ZM50.1787 165.131V159.131C46.9508 159.131 44.3014 161.684 44.1828 164.91L50.1787 165.131ZM44.6738 169.302L44.6738 175.302L44.6741 175.302L44.6738 169.302ZM39.1514 165.008L33.1514 165.008L33.1514 165.008L39.1514 165.008ZM44.6738 160.713L44.6741 154.713H44.6738V160.713ZM46.8818 161.074L44.9461 166.753C46.7784 167.378 48.7994 167.08 50.3736 165.953C51.9479 164.827 52.8818 163.01 52.8818 161.074H46.8818ZM47.7871 142.456L48.9864 148.335L48.9896 148.334L47.7871 142.456ZM150.8 19.0105L150.116 13.0496L150.112 13.05L150.8 19.0105ZM152.36 20.4011L158.36 20.4011L158.36 20.4003L152.36 20.4011ZM146.263 47.5778L146.263 53.5778L146.263 53.5778L146.263 47.5778ZM140.164 42.3503L134.164 42.3498V42.3503H140.164ZM146.263 37.1237L146.263 31.1237H146.263V37.1237ZM148.876 37.6345L146.605 43.1883C148.456 43.9447 150.561 43.73 152.221 42.6156C153.88 41.5012 154.876 39.6335 154.876 37.6345H148.876ZM148.876 26.2019H154.876C154.876 24.4908 154.145 22.8611 152.868 21.7226C151.591 20.5842 149.888 20.0453 148.188 20.2414L148.876 26.2019ZM133.195 28.0114L132.507 22.051C129.48 22.4004 127.195 24.9638 127.195 28.0114H133.195ZM127.098 49.32L127.098 55.32H127.098V49.32ZM121 44.0925L115 44.0919V44.0925H121ZM127.098 38.8659L127.098 32.8659L127.098 32.8659L127.098 38.8659ZM129.711 39.3757L127.446 44.9317C129.296 45.686 131.4 45.4698 133.058 44.3552C134.716 43.2405 135.711 41.3736 135.711 39.3757H129.711ZM129.711 23.0144L123.711 23.0134V23.0144H129.711ZM131.271 21.2634L130.584 15.3029L130.581 15.3032L131.271 21.2634ZM39.251 43.53L45.251 43.5322C45.2502 45.5992 44.0712 46.9753 43.2383 47.5823C42.5796 48.0624 42.0916 48.1331 42.2511 48.0971C42.5007 48.0407 43.2813 47.9604 44.6101 48.0224C45.8418 48.0798 47.2102 48.2424 48.4511 48.4675C49.7565 48.7043 50.6298 48.9578 50.9874 49.1008L53.2158 43.53L55.4442 37.9591C52.7996 36.9013 48.5764 36.1943 45.1692 36.0354C43.455 35.9555 41.4165 35.9834 39.6076 36.3919C38.7379 36.5883 37.4108 36.9806 36.1703 37.8848C34.7555 38.9159 33.252 40.8185 33.251 43.5277L39.251 43.53ZM53.2158 43.53L50.9876 49.1009C56.811 51.4301 59.714 52.8979 61.123 53.8834C61.7808 54.3435 61.75 54.4554 61.571 54.1737C61.3033 53.7525 61.1807 53.2274 61.1807 52.8406L67.1807 52.8396L73.1807 52.8385C73.1804 51.167 72.7667 49.4177 71.6988 47.7374C70.7196 46.1965 69.3795 45.0143 68.0007 44.05C65.3367 42.1867 61.2575 40.2844 55.4441 37.9591L53.2158 43.53ZM67.1807 52.8396L65.2833 58.5317L65.2862 58.5326L67.1836 52.8405L69.081 47.1484L69.078 47.1475L67.1807 52.8396ZM67.1836 52.8405L64.5003 58.2071C64.5077 58.2108 64.5071 58.2105 64.5097 58.2118L67.1953 52.8464L69.881 47.481C69.8758 47.4784 69.8673 47.4742 69.8669 47.474L67.1836 52.8405ZM67.1953 52.8464L64.7253 58.3144C65.5192 58.673 89.4171 69.406 116.756 72.0318L117.33 66.0593L117.904 60.0868C92.5782 57.6544 70.1396 47.5926 69.6653 47.3784L67.1953 52.8464ZM117.33 66.0593L122.032 69.7869C121.987 69.8432 121.946 69.8923 121.912 69.9333C121.877 69.9742 121.847 70.0087 121.824 70.0352C121.8 70.0614 121.781 70.0824 121.77 70.0949C121.764 70.1013 121.759 70.1064 121.757 70.1095C121.754 70.1123 121.752 70.1146 121.752 70.1141C121.752 70.1141 121.753 70.1139 121.753 70.1136C121.753 70.1134 121.753 70.1131 121.754 70.1126C121.755 70.1117 121.756 70.1104 121.757 70.1087C121.76 70.1053 121.765 70.0999 121.771 70.0933C121.783 70.0802 121.803 70.0587 121.827 70.032C121.85 70.005 121.881 69.9699 121.916 69.9285C121.951 69.8869 121.992 69.8372 122.037 69.7804L117.337 66.0515L112.636 62.3226C112.681 62.2664 112.721 62.2173 112.756 62.1765C112.791 62.1357 112.821 62.1013 112.844 62.075C112.867 62.0488 112.886 62.028 112.897 62.0156C112.903 62.0092 112.908 62.0041 112.91 62.0011C112.913 61.9984 112.915 61.9961 112.915 61.9967C112.915 61.9967 112.914 61.9969 112.914 61.9971C112.914 61.9974 112.914 61.9978 112.913 61.9982C112.912 61.9991 112.911 62.0005 112.909 62.0022C112.906 62.0056 112.901 62.0111 112.895 62.0178C112.883 62.031 112.864 62.0525 112.84 62.0794C112.816 62.1065 112.785 62.1417 112.75 62.1832C112.715 62.2249 112.674 62.2747 112.628 62.3317L117.33 66.0593ZM117.337 66.0515L116.764 72.024C126.325 72.9414 136.478 72.893 146.312 70.9703L145.161 65.0817L144.01 59.1932C135.619 60.8336 126.681 60.9204 117.91 60.0789L117.337 66.0515ZM145.161 65.0817L146.315 70.9698C146.766 70.8814 147.214 70.7892 147.66 70.6938L146.403 64.8269L145.147 58.9599C144.766 59.0415 144.386 59.1195 144.008 59.1937L145.161 65.0817ZM146.403 64.8269L147.658 70.6943C148.477 70.5191 149.296 70.3303 150.114 70.1268L148.665 64.3044L147.216 58.482C146.533 58.652 145.844 58.8108 145.149 58.9594L146.403 64.8269ZM148.665 64.3044L150.116 70.1264C152.684 69.4863 155.231 68.707 157.735 67.7681L155.628 62.1501L153.521 56.5321C151.478 57.2985 149.372 57.9449 147.214 58.4824L148.665 64.3044ZM155.628 62.1501L157.734 67.7685C158.002 67.668 158.262 67.6227 158.537 67.6217L158.517 61.6218L158.496 55.6218C156.837 55.6275 155.161 55.9174 153.522 56.5317L155.628 62.1501ZM158.517 61.6218V67.6218H158.519V61.6218V55.6218H158.517V61.6218ZM158.519 61.6218L158.539 67.6217C159.307 67.6192 160.599 67.9933 162.242 69.3313L166.03 64.6784L169.818 60.0255C166.834 57.596 162.932 55.6071 158.499 55.6218L158.519 61.6218ZM166.03 64.6784L162.242 69.3311C162.294 69.3732 162.304 69.3817 162.318 69.3931L166.143 64.7702L169.967 60.1474C169.907 60.097 169.842 60.0446 169.819 60.0258L166.03 64.6784ZM166.143 64.7702L162.318 69.3933C165.091 71.6871 167.384 75.5531 168.056 78.9591L173.942 77.7976L179.829 76.6361C178.616 70.4882 174.849 64.1861 169.967 60.1471L166.143 64.7702ZM173.942 77.7976L171.551 83.3005C175.053 84.8221 177.559 88.1236 177.559 94.736H183.559H189.559C189.559 84.5683 185.24 76.1647 176.334 72.2947L173.942 77.7976ZM183.559 94.736H177.559V118.011H183.559H189.559V94.736H183.559ZM183.559 118.011L177.559 118.011C177.559 117.27 178.165 116.666 178.903 116.666V122.666V128.666C184.789 128.666 189.558 123.901 189.559 118.012L183.559 118.011ZM178.903 122.666L178.904 116.666C179.643 116.666 180.249 117.272 180.249 118.011L174.249 118.011L168.249 118.012C168.249 123.899 173.016 128.665 178.903 128.666L178.903 122.666ZM174.249 118.011H180.249V94.736H174.249H168.249V118.011H174.249ZM174.249 94.736H180.249C180.249 93.5504 180.179 92.4027 180.026 91.3003L174.083 92.1237L168.14 92.9471C168.206 93.4268 168.249 94.0177 168.249 94.736H174.249ZM174.083 92.1237L168.086 91.9453C167.526 110.756 165.55 124.716 162.855 134.355L168.634 135.97L174.412 137.586C177.463 126.674 179.504 111.66 180.08 92.3022L174.083 92.1237ZM168.634 135.97L162.763 134.73C160.073 147.468 156.774 157.701 153.751 164.623C152.227 168.114 150.861 170.558 149.799 172.024C149.261 172.768 148.943 173.059 148.884 173.108C148.728 173.234 149.483 172.527 150.973 172.527V178.527V184.527C153.47 184.527 155.361 183.305 156.443 182.428C157.621 181.472 158.642 180.272 159.518 179.063C161.285 176.623 163.05 173.315 164.749 169.425C168.172 161.586 171.688 150.541 174.504 137.21L168.634 135.97ZM150.973 178.527L150.973 172.527C153.061 172.527 153.664 174.008 153.093 173.139C152.679 172.508 152.101 171.25 151.479 169.232C150.262 165.283 149.306 159.871 148.652 154.523L142.696 155.252L136.741 155.98C137.427 161.59 138.486 167.816 140.011 172.765C140.76 175.196 141.735 177.703 143.061 179.723C144.231 181.506 146.762 184.527 150.972 184.527L150.973 178.527ZM142.696 155.252V149.252H97.0762V155.252V161.252H142.696V155.252ZM97.0762 155.252L91.3434 153.481C89.7243 158.723 87.4938 164.021 85.0847 167.872C83.874 169.808 82.7674 171.136 81.8666 171.915C80.9317 172.724 80.7164 172.527 81.1469 172.527L81.1475 178.527L81.148 184.527C84.7066 184.527 87.6177 182.808 89.7199 180.989C91.8563 179.139 93.6977 176.731 95.2583 174.236C98.392 169.226 100.998 162.887 102.809 157.022L97.0762 155.252ZM81.1475 178.527V172.527C84.3304 172.527 85.6181 174.983 85.7056 175.156C85.8819 175.505 85.826 175.552 85.6993 174.877C85.4655 173.631 85.2841 171.655 85.0508 168.746C84.6066 163.206 84.0418 155.258 82.3147 147.072C78.9056 130.915 70.3221 111.24 46.4343 107.639L45.54 113.572L44.6458 119.505C60.7634 121.934 67.4478 134.737 70.5732 149.55C72.1133 156.849 72.6325 164.009 73.0892 169.705C73.3065 172.415 73.5298 175.09 73.9052 177.09C74.083 178.038 74.3828 179.357 74.997 180.572C75.5226 181.611 77.3306 184.527 81.1475 184.527V178.527ZM45.54 113.572L45.435 107.573C39.9207 107.669 34.5044 107.76 30.0684 107.76V113.76V119.76C34.629 119.76 40.1547 119.667 45.6451 119.571L45.54 113.572ZM30.0684 113.76L30.0686 107.76C28.7745 107.76 26.1185 106.279 24.2229 102.317C23.3827 100.561 22.9979 98.8544 23 97.5484C23.0021 96.2394 23.3649 95.8191 23.4338 95.7504L19.1992 91.4997L14.9647 87.249C11.9869 90.2155 11.0055 94.0953 11 97.5292C10.9945 100.966 11.9388 104.446 13.3981 107.496C16.1016 113.146 21.9268 119.76 30.0681 119.76L30.0684 113.76ZM19.1992 91.4997L23.4367 95.7475C24.3668 94.8196 25.978 93.7823 28.7373 92.0568C31.2175 90.5059 34.3786 88.5312 37.217 86.0354C40.1001 83.5003 42.9132 80.2106 44.5547 75.8516C46.223 71.4212 46.495 66.38 45.0738 60.6949L39.2529 62.1501L33.4321 63.6053C34.3383 67.2302 34.0284 69.7534 33.3246 71.6226C32.5938 73.5632 31.2442 75.3081 29.2931 77.0236C27.2974 78.7784 24.9529 80.2702 22.3748 81.8824C20.0759 83.3201 17.0762 85.1426 14.9617 87.252L19.1992 91.4997ZM39.2529 62.1501L45.074 60.6955C45.0213 60.4848 45.0628 60.4879 45.0379 60.5613C45.0283 60.5897 45.0758 60.4173 45.4269 60.0836C46.2178 59.3317 47.8825 58.4018 50.4711 57.7239L48.9512 51.9196L47.4313 46.1153C43.802 47.0657 39.981 48.7036 37.1591 51.3862C34.0965 54.2975 32.1751 58.5751 33.4319 63.6047L39.2529 62.1501ZM48.9512 51.9196L52.2357 46.8985C49.8598 45.3443 47.6472 43.7294 46.0921 42.4155C45.2971 41.7438 44.8139 41.2679 44.5826 41.0028C44.4625 40.865 44.5279 40.9171 44.6541 41.135C44.7072 41.2267 45.251 42.1266 45.251 43.53H39.251H33.251C33.251 45.2697 33.9411 46.5814 34.27 47.1492C34.6719 47.8432 35.1424 48.4356 35.5397 48.8911C36.3434 49.8124 37.3447 50.7345 38.3476 51.5819C40.3885 53.3061 43.026 55.2134 45.6667 56.9408L48.9512 51.9196ZM38.6621 149.716L39.8639 155.594C38.4882 155.875 36.8459 155.598 35.5051 154.503C34.165 153.409 33.5658 151.857 33.5654 150.454L39.5654 150.453L45.5654 150.451C45.565 148.542 44.7625 146.57 43.095 145.209C41.4269 143.846 39.333 143.454 37.4603 143.837L38.6621 149.716ZM39.5654 150.453H33.5654V154.634H39.5654H45.5654V150.453H39.5654ZM39.5654 154.634L33.5654 154.631C33.5659 153.306 34.0747 152.252 34.6518 151.545C35.229 150.838 36.1608 150.127 37.4603 149.862L38.6621 155.74L39.8639 161.618C43.1547 160.946 45.5643 157.99 45.5654 154.636L39.5654 154.634ZM38.6621 155.74L37.4601 149.862L32.8419 150.806L34.044 156.684L35.246 162.563L39.8641 161.618L38.6621 155.74ZM34.044 156.684H28.044V173.829H34.044H40.044V156.684H34.044ZM34.044 173.829V167.829H34.0274V173.829V179.829H34.044V173.829ZM34.0274 173.829L28.0314 173.608C28.0679 172.618 28.5999 172.108 28.7347 172.005C28.8669 171.905 28.8112 172 28.5215 172V178V184C33.3701 184 39.7746 180.805 40.0233 174.05L34.0274 173.829ZM28.5215 178L28.5217 172C28.221 172 28.1633 171.899 28.3009 172.006C28.4469 172.119 29 172.673 29 173.705H23H17C17 180.706 23.6473 184 28.5213 184L28.5215 178ZM23 173.705L29 173.705C29 174.737 28.4469 175.29 28.301 175.404C28.1634 175.511 28.2212 175.41 28.5217 175.41L28.5215 169.41L28.5213 163.41C23.647 163.41 17.0003 166.704 17 173.705L23 173.705ZM28.5215 169.41V175.41C28.6386 175.41 28.7307 175.429 28.7943 175.451L30.7305 169.772L32.6667 164.093C31.3763 163.653 29.977 163.41 28.5215 163.41V169.41ZM30.7305 169.772H36.7305V152.259H30.7305H24.7305V169.772H30.7305ZM30.7305 152.259L36.7305 152.262C36.73 153.588 36.2207 154.642 35.6439 155.349C35.0666 156.056 34.1384 156.762 32.8478 157.028L31.6348 151.152L30.4217 145.276C27.1458 145.952 24.7318 148.897 24.7305 152.257L30.7305 152.259ZM31.6348 151.152L32.8364 157.03L39.8638 155.594L38.6621 149.716L37.4605 143.837L30.4331 145.274L31.6348 151.152ZM54.8145 141.018L56.0257 146.895C54.6434 147.18 52.9972 146.901 51.6561 145.805C50.3171 144.711 49.7178 143.159 49.7178 141.756H55.7178H61.7178C61.7178 139.846 60.9152 137.874 59.2487 136.512C57.5801 135.149 55.4823 134.754 53.6032 135.142L54.8145 141.018ZM55.7178 141.756H49.7178V145.935H55.7178H61.7178V141.756H55.7178ZM55.7178 145.935H49.7178C49.7178 144.608 50.2278 143.552 50.8048 142.846C51.3818 142.139 52.3125 141.43 53.6097 141.164L54.8145 147.042L56.0193 152.919C59.3033 152.246 61.7178 149.295 61.7178 145.935H55.7178ZM54.8145 147.042L53.6127 141.163L48.9935 142.108L50.1953 147.986L51.3971 153.864L56.0162 152.92L54.8145 147.042ZM50.1953 147.986H44.1953V165.131H50.1953H56.1953V147.986H50.1953ZM50.1953 165.131V159.131H50.1787V165.131V171.131H50.1953V165.131ZM50.1787 165.131L44.1828 164.91C44.2191 163.921 44.7505 163.411 44.8854 163.308C45.0177 163.208 44.9625 163.302 44.6735 163.302L44.6738 169.302L44.6741 175.302C49.5252 175.302 55.9263 172.104 56.1747 165.351L50.1787 165.131ZM44.6738 169.302V163.302C44.3743 163.302 44.3161 163.202 44.4529 163.308C44.5973 163.421 45.1512 163.973 45.1514 165.007L39.1514 165.008L33.1514 165.008C33.1522 172.007 39.7991 175.302 44.6738 175.302V169.302ZM39.1514 165.008H45.1514C45.1514 166.04 44.5977 166.594 44.4522 166.707C44.3149 166.813 44.3731 166.713 44.6738 166.713V160.713V154.713C39.8008 154.713 33.1514 158.005 33.1514 165.008H39.1514ZM44.6738 160.713L44.6735 166.713C44.7948 166.713 44.8865 166.733 44.9461 166.753L46.8818 161.074L48.8176 155.395C47.5237 154.954 46.1249 154.713 44.6741 154.713L44.6738 160.713ZM46.8818 161.074H52.8818V143.562H46.8818H40.8818V161.074H46.8818ZM46.8818 143.562H52.8818C52.8818 144.892 52.3702 145.949 51.7917 146.656C51.2128 147.364 50.2814 148.071 48.9864 148.335L47.7871 142.456L46.5879 136.577C43.3047 137.247 40.8818 140.195 40.8818 143.562H46.8818ZM47.7871 142.456L48.9896 148.334L56.0169 146.897L54.8145 141.018L53.612 135.14L46.5847 136.577L47.7871 142.456ZM150.8 19.0105L151.484 24.9713C148.787 25.2809 146.361 23.1286 146.36 20.4018L152.36 20.4011L158.36 20.4003C158.36 15.9456 154.528 12.5431 150.116 13.0496L150.8 19.0105ZM152.36 20.4011H146.36V42.3503H152.36H158.36V20.4011H152.36ZM152.36 42.3503H146.36C146.36 42.109 146.421 41.8915 146.501 41.7295C146.576 41.5766 146.651 41.5063 146.669 41.4911C146.694 41.4696 146.569 41.5778 146.262 41.5778L146.263 47.5778L146.263 53.5778C152.042 53.5775 158.36 49.3848 158.36 42.3503H152.36ZM146.263 47.5778V41.5778C145.956 41.5778 145.83 41.4696 145.855 41.4909C145.873 41.506 145.948 41.5762 146.024 41.7292C146.104 41.8912 146.164 42.1088 146.164 42.3503H140.164H134.164C134.164 49.3857 140.484 53.5778 146.263 53.5778V47.5778ZM140.164 42.3503L146.164 42.3508C146.164 42.5918 146.104 42.8094 146.024 42.9716C145.948 43.1249 145.873 43.1953 145.855 43.2106C145.829 43.2323 145.955 43.1237 146.263 43.1237V37.1237V31.1237C140.486 31.1237 134.165 35.3126 134.164 42.3498L140.164 42.3503ZM146.263 37.1237L146.262 43.1237C146.398 43.1237 146.513 43.1504 146.605 43.1883L148.876 37.6345L151.147 32.0807C149.654 31.4705 148 31.1239 146.263 31.1237L146.263 37.1237ZM148.876 37.6345H154.876V26.2019H148.876H142.876V37.6345H148.876ZM148.876 26.2019L148.188 20.2414L132.507 22.051L133.195 28.0114L133.883 33.9719L149.564 32.1623L148.876 26.2019ZM133.195 28.0114H127.195V44.0925H133.195H139.195V28.0114H133.195ZM133.195 44.0925H127.195C127.195 43.8514 127.256 43.6339 127.335 43.472C127.411 43.319 127.486 43.2488 127.504 43.2335C127.529 43.2118 127.404 43.32 127.098 43.32V49.32V55.32C132.878 55.32 139.195 51.1268 139.195 44.0925H133.195ZM127.098 49.32L127.098 43.32C126.791 43.32 126.666 43.2118 126.691 43.2335C126.709 43.2487 126.784 43.319 126.86 43.4719C126.94 43.6339 127 43.8513 127 44.0925H121H115C115 51.1268 121.318 55.3199 127.098 55.32L127.098 49.32ZM121 44.0925L127 44.0931C127 44.3337 126.94 44.5511 126.86 44.7133C126.784 44.8665 126.709 44.937 126.691 44.9524C126.665 44.9744 126.79 44.8659 127.098 44.8659L127.098 38.8659L127.098 32.8659C121.319 32.866 115.001 37.0559 115 44.0919L121 44.0925ZM127.098 38.8659V44.8659C127.233 44.8659 127.35 44.8925 127.446 44.9317L129.711 39.3757L131.976 33.8197C130.487 33.2126 128.835 32.8659 127.098 32.8659V38.8659ZM129.711 39.3757H135.711V23.0144H129.711H123.711V39.3757H129.711ZM129.711 23.0144L135.711 23.0153C135.711 24.2114 135.236 25.1855 134.648 25.8447C134.061 26.5038 133.148 27.0861 131.962 27.2235L131.271 21.2634L130.581 15.3032C126.7 15.7528 123.712 19.1006 123.711 23.0134L129.711 23.0144ZM131.271 21.2634L131.959 27.2238L151.487 24.9709L150.8 19.0105L150.112 13.05L130.584 15.3029L131.271 21.2634Z" fill="white" mask="url(#path-1-outside-1_1062_19977)"/>
<path d="M174.249 80.7707C174.249 71.4608 164.347 58.8824 155.628 62.1503C118.388 76.1157 67.1825 52.8403 67.1825 52.8403C56.8995 52.8403 35.2628 95.932 43.9071 99.3907C45.1964 99.9076 46.4253 100.448 47.6264 100.987C37.6134 104.451 35.9143 112.467 43.9071 113.356C85.8025 118.011 76.0081 178.527 81.1475 178.527C87.4039 178.527 93.6465 166.358 97.0769 155.251H142.697C144.037 166.21 146.728 178.527 150.973 178.527C155.005 178.527 163.128 162.039 168.634 135.97C172.051 123.746 174.249 105.564 174.249 80.7707Z" fill="#CCD6DD"/>
<path d="M62.5288 113.356C53.2184 113.356 39.5046 113.761 30.069 113.761C20.6334 113.761 13.1057 97.5704 19.1992 91.5C25.288 85.4254 43.9084 80.7704 39.2534 62.15C36.7304 52.0535 57.8734 48.185 67.1838 52.84C89.6023 64.0493 90.4587 99.3904 57.8733 99.3904C57.8733 99.3904 71.8393 113.356 62.5288 113.356ZM155.63 62.15C143.592 66.6657 130.096 67.2752 117.337 66.051C112.193 72.5354 109.079 80.9149 109.079 90.0804C109.079 110.646 124.706 127.321 143.992 127.321C156.035 127.321 166.643 120.823 172.923 110.931C173.766 102.216 174.25 92.2313 174.25 80.7704C174.25 71.4604 164.348 58.8825 155.63 62.15Z" fill="#474747"/>
<path d="M81.1494 124.994C81.1282 137.536 94.6919 145.398 105.565 139.145C110.627 136.234 113.745 130.835 113.735 124.994C113.756 112.452 100.192 104.59 89.3197 110.842C84.2569 113.754 81.1395 119.153 81.1494 124.994Z" fill="#474747"/>
<path d="M146.315 141.286C146.299 148.453 154.048 152.95 160.262 149.38C163.16 147.716 164.943 144.627 164.935 141.286C164.952 134.119 157.203 129.622 150.989 133.192C148.092 134.856 146.308 137.945 146.315 141.286Z" fill="#474747"/>
<path d="M67.1814 52.8404C67.1814 55.4101 64.0574 57.4954 60.1984 57.4954C56.3394 57.4954 39.251 46.1001 39.251 43.5304C39.251 40.9607 49.6317 42.0966 53.2159 43.5304C64.8539 48.1854 67.1814 50.2707 67.1814 52.8404Z" fill="#CCD6DD"/>
<path d="M55.6522 81.0645C59.9863 81.0645 63.4998 77.551 63.4998 73.2169C63.4998 68.8829 59.9863 65.3694 55.6522 65.3694C51.3182 65.3694 47.8047 68.8829 47.8047 73.2169C47.8047 77.551 51.3182 81.0645 55.6522 81.0645Z" fill="white"/>
<path d="M55.5309 77.9781C58.1293 77.9781 60.2357 75.8717 60.2357 73.2734C60.2357 70.675 58.1293 68.5686 55.5309 68.5686C52.9326 68.5686 50.8262 70.675 50.8262 73.2734C50.8262 75.8717 52.9326 77.9781 55.5309 77.9781Z" fill="black"/>
<path d="M178.904 122.666C176.329 122.666 174.249 120.585 174.249 118.011V94.7357C174.249 88.0327 171.637 85.4257 164.938 85.4257C162.364 85.4257 160.283 83.3404 160.283 80.7707C160.283 78.201 162.364 76.1157 164.938 76.1157C176.772 76.1157 183.559 82.9028 183.559 94.7357V118.011C183.559 120.585 181.478 122.666 178.904 122.666Z" fill="#474747"/>
<path d="M150.8 19.0102L131.271 21.2637C130.413 21.3631 129.711 22.1506 129.711 23.0147V39.3759C128.918 39.0527 128.034 38.8663 127.098 38.8663C123.731 38.8663 121 41.2052 121 44.093C121 46.9798 123.731 49.3196 127.098 49.3196C130.465 49.3196 133.196 46.9798 133.196 44.093V28.0114L148.876 26.2021V37.6346C148.083 37.3105 147.199 37.1241 146.262 37.1241C142.895 37.1241 140.164 39.463 140.164 42.3507C140.164 45.2376 142.895 47.5774 146.262 47.5774C149.629 47.5774 152.36 45.2376 152.36 42.3507V20.4013C152.36 19.5372 151.658 18.9117 150.8 19.0102Z" fill="#4B9AE8"/>
<path d="M54.8139 141.019L47.7866 142.455C47.2885 142.557 46.8821 143.055 46.8821 143.562V161.074C46.2051 160.844 45.4597 160.712 44.6733 160.712C41.623 160.712 39.1514 162.635 39.1514 165.007C39.1514 167.378 41.623 169.302 44.6733 169.302C47.6696 169.302 50.0937 167.443 50.1787 165.131H50.1953V147.986L54.8139 147.042C55.3109 146.94 55.7173 146.442 55.7173 145.935V141.755C55.7173 141.248 55.3109 140.916 54.8139 141.019Z" fill="#4B9AE8"/>
<path d="M38.6625 149.715L31.6353 151.152C31.1372 151.255 30.7308 151.753 30.7308 152.26V169.772C30.0538 169.541 29.3083 169.41 28.522 169.41C25.4716 169.41 23 171.333 23 173.705C23 176.077 25.4716 178 28.522 178C31.5182 178 33.9423 176.141 34.0274 173.829H34.0439V156.684L38.6625 155.74C39.1595 155.638 39.5659 155.14 39.5659 154.633V150.453C39.5659 149.946 39.1595 149.614 38.6625 149.715Z" fill="#4B9AE8"/>
</svg>
