<svg width="200" height="200" viewBox="0 0 200 200" fill="none" xmlns="http://www.w3.org/2000/svg">
<mask id="path-1-outside-1_1347_2357" maskUnits="userSpaceOnUse" x="29" y="11.7891" width="144" height="176" fill="black">
<rect fill="white" x="29" y="11.7891" width="144" height="176"/>
<path d="M100.407 44.1621C104.888 25.601 120.494 15.8496 135.936 19.5742C145.862 21.9688 153.305 29.354 156.166 39.2529C159.454 39.2066 161.399 41.1733 162.111 43.9121V43.9062C162.985 47.2641 160.701 53.4078 157.536 54.2402C157.36 54.2863 157.177 54.3135 156.99 54.3291C156.82 55.4253 156.601 56.5341 156.331 57.6523C155.843 59.6726 155.218 61.6173 154.469 63.4727C155.301 64.4844 156.083 65.5289 156.814 66.6016C161.995 66.7126 166.162 70.944 166.162 76.1514C166.162 78.2794 165.465 80.2439 164.288 81.832C164.276 82.0454 164.238 82.2659 164.159 82.4863C164.016 82.8867 163.769 83.2132 163.461 83.4688C164.116 88.0356 163.937 92.7483 162.805 97.4336L162.798 97.4268C158.836 113.846 144.682 123.747 127.68 125.065L129.411 133.808L132.574 135.156C133.499 135.551 133.929 136.62 133.535 137.545C133.141 138.47 132.072 138.901 131.146 138.507L129.705 137.893L129.771 140.357C129.776 140.566 129.744 140.766 129.685 140.954H132.95C134.607 140.954 135.95 142.297 135.95 143.953L135.955 154.711C135.956 156.364 137.293 157.705 138.946 157.71L159.009 157.769C160.662 157.773 162 159.115 162 160.769V178.726C162 180.382 160.657 181.726 159 181.726H44C39.0294 181.726 35 177.696 35 172.726V100.593C35 97.2791 37.6863 94.5928 41 94.5928H65.1289C66.7858 94.5928 68.1289 95.9359 68.1289 97.5928V122.657C68.1289 124.314 69.4723 125.657 71.1289 125.657H81.625C81.3236 125.024 81.4028 124.246 81.8916 123.682L83.0146 122.385L79.1318 122.021L78.9473 121.994C78.0421 121.815 77.4003 120.977 77.4883 120.038C77.5765 119.1 78.3627 118.394 79.2852 118.387L79.4717 118.395L85.9824 119.004L90.5693 114.028C78.9793 104.897 72.9829 91.2062 76.5059 76.6045C79.4334 64.4618 88.1343 55.0754 99.4111 50.1895C99.5898 48.1966 99.9193 46.1825 100.407 44.1621ZM88.9648 121.14L90.6895 124.058C90.9876 124.562 91.0132 125.152 90.8125 125.657H102.259C103.916 125.657 105.259 127 105.259 128.657V137.954C105.259 139.611 106.602 140.954 108.259 140.954H126.215C126.165 140.795 126.134 140.627 126.13 140.452L126.084 138.713L125.093 139.457C124.288 140.06 123.146 139.897 122.543 139.093C121.94 138.288 122.103 137.146 122.907 136.543L125.809 134.366L123.997 125.218C119.707 125.238 115.275 124.727 110.812 123.65C104.376 122.097 98.5345 119.528 93.5371 116.183L88.9648 121.14ZM84.999 125.657H87.4043L86.4287 124.007L84.999 125.657Z"/>
</mask>
<path d="M100.407 44.1621C104.888 25.601 120.494 15.8496 135.936 19.5742C145.862 21.9688 153.305 29.354 156.166 39.2529C159.454 39.2066 161.399 41.1733 162.111 43.9121V43.9062C162.985 47.2641 160.701 53.4078 157.536 54.2402C157.36 54.2863 157.177 54.3135 156.99 54.3291C156.82 55.4253 156.601 56.5341 156.331 57.6523C155.843 59.6726 155.218 61.6173 154.469 63.4727C155.301 64.4844 156.083 65.5289 156.814 66.6016C161.995 66.7126 166.162 70.944 166.162 76.1514C166.162 78.2794 165.465 80.2439 164.288 81.832C164.276 82.0454 164.238 82.2659 164.159 82.4863C164.016 82.8867 163.769 83.2132 163.461 83.4688C164.116 88.0356 163.937 92.7483 162.805 97.4336L162.798 97.4268C158.836 113.846 144.682 123.747 127.68 125.065L129.411 133.808L132.574 135.156C133.499 135.551 133.929 136.62 133.535 137.545C133.141 138.47 132.072 138.901 131.146 138.507L129.705 137.893L129.771 140.357C129.776 140.566 129.744 140.766 129.685 140.954H132.95C134.607 140.954 135.95 142.297 135.95 143.953L135.955 154.711C135.956 156.364 137.293 157.705 138.946 157.71L159.009 157.769C160.662 157.773 162 159.115 162 160.769V178.726C162 180.382 160.657 181.726 159 181.726H44C39.0294 181.726 35 177.696 35 172.726V100.593C35 97.2791 37.6863 94.5928 41 94.5928H65.1289C66.7858 94.5928 68.1289 95.9359 68.1289 97.5928V122.657C68.1289 124.314 69.4723 125.657 71.1289 125.657H81.625C81.3236 125.024 81.4028 124.246 81.8916 123.682L83.0146 122.385L79.1318 122.021L78.9473 121.994C78.0421 121.815 77.4003 120.977 77.4883 120.038C77.5765 119.1 78.3627 118.394 79.2852 118.387L79.4717 118.395L85.9824 119.004L90.5693 114.028C78.9793 104.897 72.9829 91.2062 76.5059 76.6045C79.4334 64.4618 88.1343 55.0754 99.4111 50.1895C99.5898 48.1966 99.9193 46.1825 100.407 44.1621ZM88.9648 121.14L90.6895 124.058C90.9876 124.562 91.0132 125.152 90.8125 125.657H102.259C103.916 125.657 105.259 127 105.259 128.657V137.954C105.259 139.611 106.602 140.954 108.259 140.954H126.215C126.165 140.795 126.134 140.627 126.13 140.452L126.084 138.713L125.093 139.457C124.288 140.06 123.146 139.897 122.543 139.093C121.94 138.288 122.103 137.146 122.907 136.543L125.809 134.366L123.997 125.218C119.707 125.238 115.275 124.727 110.812 123.65C104.376 122.097 98.5345 119.528 93.5371 116.183L88.9648 121.14ZM84.999 125.657H87.4043L86.4287 124.007L84.999 125.657Z" fill="#4B9AE8"/>
<path d="M100.407 44.1621L106.24 45.5706L106.24 45.57L100.407 44.1621ZM135.936 19.5742L137.343 13.7415L137.342 13.7415L135.936 19.5742ZM156.166 39.2529L150.402 40.9187C151.152 43.516 153.547 45.2904 156.251 45.2523L156.166 39.2529ZM162.111 43.9121L156.305 45.423C157.065 48.3449 159.878 50.2468 162.873 49.8636C165.868 49.4803 168.111 46.9314 168.111 43.9121H162.111ZM162.111 43.9062L167.918 42.3956C167.158 39.4736 164.345 37.5716 161.35 37.9548C158.355 38.338 156.111 40.8869 156.111 43.9062H162.111ZM157.536 54.2402L159.05 60.0462L159.062 60.0429L157.536 54.2402ZM156.99 54.3291L156.491 48.3499C153.731 48.5804 151.488 50.6697 151.062 53.406L156.99 54.3291ZM156.331 57.6523L162.163 59.0609L162.163 59.0607L156.331 57.6523ZM154.469 63.4727L148.905 61.2266C148.083 63.2638 148.439 65.5876 149.835 67.2843L154.469 63.4727ZM156.814 66.6016L151.856 69.9807C152.948 71.5829 154.747 72.5586 156.686 72.6002L156.814 66.6016ZM166.162 76.1514L172.162 76.1516V76.1511L166.162 76.1514ZM164.288 81.832L159.467 78.2604C158.768 79.2035 158.362 80.3309 158.297 81.5029L164.288 81.832ZM164.159 82.4863L169.808 84.5095L169.809 84.5075L164.159 82.4863ZM163.461 83.4688L159.628 78.8529C158.023 80.1854 157.226 82.2557 157.522 84.3203L163.461 83.4688ZM162.805 97.4336L158.562 101.676C160.097 103.211 162.34 103.797 164.429 103.21C166.518 102.622 168.127 100.952 168.637 98.8429L162.805 97.4336ZM162.798 97.4268L167.04 93.1841C165.506 91.6494 163.262 91.0631 161.172 91.6511C159.083 92.2391 157.474 93.9096 156.965 96.0195L162.798 97.4268ZM127.68 125.065L127.216 119.083C125.506 119.216 123.935 120.073 122.899 121.439C121.863 122.805 121.461 124.549 121.794 126.231L127.68 125.065ZM129.411 133.808L123.525 134.973C123.911 136.919 125.233 138.549 127.058 139.327L129.411 133.808ZM132.574 135.156L134.927 129.637L134.927 129.637L132.574 135.156ZM133.535 137.545L139.055 139.898L139.055 139.897L133.535 137.545ZM131.146 138.507L128.794 144.027L128.796 144.027L131.146 138.507ZM129.705 137.893L132.057 132.373C130.178 131.572 128.02 131.782 126.331 132.931C124.642 134.08 123.653 136.01 123.707 138.052L129.705 137.893ZM129.771 140.357L135.769 140.203L135.768 140.198L129.771 140.357ZM129.685 140.954L123.965 139.142C123.387 140.965 123.713 142.955 124.843 144.499C125.973 146.042 127.772 146.954 129.685 146.954V140.954ZM135.95 143.953L129.95 143.956V143.956L135.95 143.953ZM135.955 154.711L141.955 154.708V154.708L135.955 154.711ZM138.946 157.71L138.964 151.71H138.964L138.946 157.71ZM159.009 157.769L159.026 151.769H159.026L159.009 157.769ZM44 181.726L44 187.726H44V181.726ZM41 94.5928V88.5928V94.5928ZM68.1289 122.657H62.1289V122.657L68.1289 122.657ZM71.1289 125.657L71.128 131.657H71.1289V125.657ZM81.625 125.657V131.657C83.6838 131.657 85.5988 130.602 86.6981 128.861C87.7974 127.12 87.9274 124.937 87.0425 123.078L81.625 125.657ZM81.8916 123.682L86.4255 127.612L86.4273 127.609L81.8916 123.682ZM83.0146 122.385L87.5504 126.313C89.0218 124.613 89.4201 122.234 88.5824 120.149C87.7447 118.063 85.8115 116.62 83.5736 116.411L83.0146 122.385ZM79.1318 122.021L78.2525 127.957C78.359 127.972 78.4658 127.985 78.5729 127.995L79.1318 122.021ZM78.9473 121.994L77.7844 127.88C77.8785 127.899 77.9731 127.915 78.068 127.929L78.9473 121.994ZM77.4883 120.038L71.5146 119.477L71.5144 119.478L77.4883 120.038ZM79.2852 118.387L79.5362 112.392C79.4363 112.388 79.3362 112.386 79.2361 112.387L79.2852 118.387ZM79.4717 118.395L80.0308 112.421C79.9283 112.411 79.8256 112.404 79.7228 112.4L79.4717 118.395ZM85.9824 119.004L85.4233 124.978C87.2869 125.152 89.1252 124.447 90.3939 123.071L85.9824 119.004ZM90.5693 114.028L94.9808 118.095C96.1141 116.866 96.683 115.219 96.5504 113.553C96.4179 111.886 95.5958 110.35 94.2824 109.315L90.5693 114.028ZM76.5059 76.6045L82.3385 78.0117L82.3387 78.0108L76.5059 76.6045ZM99.4111 50.1895L101.796 55.6949C103.813 54.8211 105.191 52.9144 105.387 50.7252L99.4111 50.1895ZM88.9648 121.14L84.5545 117.072C82.7588 119.018 82.452 121.912 83.7996 124.192L88.9648 121.14ZM90.6895 124.058L95.855 121.005L95.8547 121.005L90.6895 124.058ZM90.8125 125.657L85.2357 123.444C84.5023 125.292 84.7318 127.383 85.8486 129.028C86.9654 130.672 88.8244 131.657 90.8125 131.657V125.657ZM102.259 125.657L102.259 119.657H102.259V125.657ZM126.215 140.954V146.954C128.127 146.954 129.925 146.043 131.055 144.5C132.185 142.958 132.512 140.969 131.936 139.146L126.215 140.954ZM126.13 140.452L132.128 140.295L132.128 140.294L126.13 140.452ZM126.084 138.713L132.082 138.555C132.023 136.311 130.716 134.288 128.695 133.311C126.674 132.334 124.277 132.567 122.482 133.915L126.084 138.713ZM125.093 139.457L128.692 144.257L128.695 144.255L125.093 139.457ZM122.543 139.093L117.743 142.693L117.743 142.693L122.543 139.093ZM122.907 136.543L126.508 141.343L126.508 141.342L122.907 136.543ZM125.809 134.366L129.409 139.166C131.254 137.782 132.142 135.463 131.694 133.201L125.809 134.366ZM123.997 125.218L129.883 124.052C129.324 121.232 126.844 119.204 123.969 119.218L123.997 125.218ZM110.812 123.65L109.404 129.483L109.405 129.483L110.812 123.65ZM93.5371 116.183L96.875 111.197C94.4188 109.552 91.1309 109.942 89.1268 112.115L93.5371 116.183ZM84.999 125.657L80.464 121.729C78.9261 123.504 78.5655 126.014 79.5414 128.15C80.5173 130.287 82.6502 131.657 84.999 131.657V125.657ZM87.4043 125.657V131.657C89.5589 131.657 91.5481 130.502 92.6158 128.631C93.6835 126.759 93.6658 124.459 92.5694 122.604L87.4043 125.657ZM86.4287 124.007L91.5938 120.954C90.6116 119.292 88.8902 118.205 86.968 118.031C85.0457 117.858 83.1574 118.619 81.8937 120.078L86.4287 124.007ZM100.407 44.1621L106.24 45.57C110.059 29.7497 122.768 22.5702 134.529 25.4069L135.936 19.5742L137.342 13.7415C118.22 9.12903 99.717 21.4523 94.5748 42.7542L100.407 44.1621ZM135.936 19.5742L134.529 25.4069C142.26 27.272 148.111 32.9903 150.402 40.9187L156.166 39.2529L161.93 37.5871C158.5 25.7178 149.464 16.6656 137.343 13.7415L135.936 19.5742ZM156.166 39.2529L156.251 45.2523C156.462 45.2494 156.518 45.2795 156.469 45.263C156.447 45.2556 156.411 45.2411 156.367 45.2166C156.324 45.1922 156.282 45.1633 156.246 45.1328C156.17 45.0688 156.151 45.0281 156.17 45.0596C156.191 45.096 156.249 45.2082 156.305 45.423L162.111 43.9121L167.918 42.4013C167.32 40.1049 166.102 37.7395 163.963 35.9434C161.761 34.0941 159.012 33.2122 156.081 33.2535L156.166 39.2529ZM162.111 43.9121H168.111V43.9062H162.111H156.111V43.9121H162.111ZM162.111 43.9062L156.305 45.4169C156.27 45.2821 156.337 45.4701 156.262 46.0318C156.194 46.5482 156.035 47.148 155.799 47.7146C155.557 48.2968 155.309 48.6618 155.173 48.819C155.004 49.0142 155.24 48.64 156.01 48.4376L157.536 54.2402L159.062 60.0429C161.415 59.4242 163.123 57.97 164.245 56.6742C165.4 55.3403 166.263 53.8035 166.878 52.326C168.019 49.5835 168.804 45.8003 167.918 42.3956L162.111 43.9062ZM157.536 54.2402L156.023 48.4343C156.259 48.3726 156.43 48.355 156.491 48.3499L156.99 54.3291L157.49 60.3083C157.924 60.272 158.46 60.2 159.05 60.0462L157.536 54.2402ZM156.99 54.3291L151.062 53.406C150.916 54.3408 150.73 55.2877 150.499 56.2439L156.331 57.6523L162.163 59.0607C162.473 57.7805 162.723 56.5097 162.919 55.2522L156.99 54.3291ZM156.331 57.6523L150.499 56.2438C150.079 57.9809 149.543 59.6457 148.905 61.2266L154.469 63.4727L160.032 65.7188C160.892 63.589 161.607 61.3642 162.163 59.0609L156.331 57.6523ZM154.469 63.4727L149.835 67.2843C150.552 68.1562 151.226 69.0563 151.856 69.9807L156.814 66.6016L161.772 63.2224C160.94 62.0015 160.05 60.8127 159.102 59.661L154.469 63.4727ZM156.814 66.6016L156.686 72.6002C158.614 72.6415 160.162 74.2179 160.162 76.1517L166.162 76.1514L172.162 76.1511C172.162 67.67 165.376 60.7837 156.943 60.6029L156.814 66.6016ZM166.162 76.1514L160.162 76.1511C160.162 76.946 159.906 77.6672 159.467 78.2604L164.288 81.832L169.109 85.4037C171.023 82.8207 172.162 79.6128 172.162 76.1516L166.162 76.1514ZM164.288 81.832L158.297 81.5029C158.312 81.2253 158.367 80.8653 158.51 80.4652L164.159 82.4863L169.809 84.5075C170.109 83.6664 170.24 82.8655 170.279 82.1611L164.288 81.832ZM164.159 82.4863L158.511 80.4632C158.769 79.741 159.205 79.2038 159.628 78.8529L163.461 83.4688L167.294 88.0846C168.332 87.2227 169.262 86.0324 169.808 84.5095L164.159 82.4863ZM163.461 83.4688L157.522 84.3203C158.072 88.1552 157.921 92.0999 156.973 96.0243L162.805 97.4336L168.637 98.8429C169.953 93.3967 170.16 87.916 169.4 82.6172L163.461 83.4688ZM162.805 97.4336L167.047 93.191L167.04 93.1841L162.798 97.4268L158.555 101.669L158.562 101.676L162.805 97.4336ZM162.798 97.4268L156.965 96.0195C153.735 109.406 142.186 117.922 127.216 119.083L127.68 125.065L128.144 131.047C147.179 129.571 163.937 118.286 168.63 98.834L162.798 97.4268ZM127.68 125.065L121.794 126.231L123.525 134.973L129.411 133.808L135.297 132.642L133.565 123.9L127.68 125.065ZM129.411 133.808L127.058 139.327L130.221 140.676L132.574 135.156L134.927 129.637L131.764 128.288L129.411 133.808ZM132.574 135.156L130.221 140.676C128.098 139.77 127.111 137.316 128.015 135.193L133.535 137.545L139.055 139.897C140.748 135.924 138.9 131.331 134.927 129.637L132.574 135.156ZM133.535 137.545L128.016 135.192C128.919 133.073 131.371 132.081 133.497 132.987L131.146 138.507L128.796 144.027C132.772 145.72 137.362 143.867 139.055 139.898L133.535 137.545ZM131.146 138.507L133.499 132.987L132.057 132.373L129.705 137.893L127.353 143.412L128.794 144.027L131.146 138.507ZM129.705 137.893L123.707 138.052L123.773 140.517L129.771 140.357L135.768 140.198L135.703 137.733L129.705 137.893ZM129.771 140.357L123.773 140.512C123.759 140.006 123.838 139.542 123.965 139.142L129.685 140.954L135.404 142.766C135.65 141.99 135.792 141.126 135.769 140.203L129.771 140.357ZM129.685 140.954V146.954H132.95V140.954V134.954H129.685V140.954ZM132.95 140.954V146.954C131.293 146.954 129.951 145.611 129.95 143.956L135.95 143.953L141.95 143.951C141.948 138.982 137.92 134.954 132.95 134.954V140.954ZM135.95 143.953L129.95 143.956L129.955 154.714L135.955 154.711L141.955 154.708L141.95 143.95L135.95 143.953ZM135.955 154.711L129.955 154.713C129.957 159.671 133.969 163.696 138.929 163.71L138.946 157.71L138.964 151.71C140.618 151.715 141.954 153.056 141.955 154.708L135.955 154.711ZM138.946 157.71L138.929 163.71L158.991 163.769L159.009 157.769L159.026 151.769L138.964 151.71L138.946 157.71ZM159.009 157.769L158.991 163.769C157.338 163.764 156 162.422 156 160.769H162H168C168 155.808 163.987 151.783 159.026 151.769L159.009 157.769ZM162 160.769H156V178.726H162H168V160.769H162ZM162 178.726H156C156 177.069 157.343 175.726 159 175.726V181.726V187.726C163.971 187.726 168 183.696 168 178.726H162ZM159 181.726V175.726H44V181.726V187.726H159V181.726ZM44 181.726L44 175.726C42.3431 175.726 41 174.382 41 172.726H35H29C29 181.01 35.7157 187.726 44 187.726L44 181.726ZM35 172.726H41V100.593H35H29V172.726H35ZM35 100.593H41V94.5928V88.5928C34.3726 88.5928 29 93.9654 29 100.593H35ZM41 94.5928V100.593H65.1289V94.5928V88.5928H41V94.5928ZM65.1289 94.5928V100.593C63.4721 100.593 62.1289 99.2496 62.1289 97.5928H68.1289H74.1289C74.1289 92.6222 70.0995 88.5928 65.1289 88.5928V94.5928ZM68.1289 97.5928H62.1289V122.657H68.1289H74.1289V97.5928H68.1289ZM68.1289 122.657L62.1289 122.657C62.1289 127.628 66.1592 131.656 71.128 131.657L71.1289 125.657L71.1298 119.657C72.7853 119.657 74.1289 120.999 74.1289 122.657L68.1289 122.657ZM71.1289 125.657V131.657H81.625V125.657V119.657H71.1289V125.657ZM81.625 125.657L87.0425 123.078C87.7242 124.51 87.5603 126.302 86.4255 127.612L81.8916 123.682L77.3577 119.752C75.2452 122.189 74.9229 125.537 76.2075 128.236L81.625 125.657ZM81.8916 123.682L86.4273 127.609L87.5504 126.313L83.0146 122.385L78.4789 118.457L77.3559 119.754L81.8916 123.682ZM83.0146 122.385L83.5736 116.411L79.6908 116.048L79.1318 122.021L78.5729 127.995L82.4557 128.359L83.0146 122.385ZM79.1318 122.021L80.0111 116.086L79.8266 116.059L78.9473 121.994L78.068 127.929L78.2525 127.957L79.1318 122.021ZM78.9473 121.994L80.1101 116.108C82.1886 116.519 83.6647 118.435 83.4621 120.598L77.4883 120.038L71.5144 119.478C71.136 123.518 73.8955 127.112 77.7844 127.88L78.9473 121.994ZM77.4883 120.038L83.462 120.6C83.2592 122.757 81.4569 124.369 79.3342 124.387L79.2852 118.387L79.2361 112.387C75.2684 112.419 71.8938 115.443 71.5146 119.477L77.4883 120.038ZM79.2852 118.387L79.0341 124.381L79.2206 124.389L79.4717 118.395L79.7228 112.4L79.5362 112.392L79.2852 118.387ZM79.4717 118.395L78.9126 124.368L85.4233 124.978L85.9824 119.004L86.5415 113.03L80.0308 112.421L79.4717 118.395ZM85.9824 119.004L90.3939 123.071L94.9808 118.095L90.5693 114.028L86.1579 109.961L81.571 114.937L85.9824 119.004ZM90.5693 114.028L94.2824 109.315C84.2214 101.389 79.453 89.9715 82.3385 78.0117L76.5059 76.6045L70.6732 75.1973C66.5128 92.4409 73.7371 108.406 86.8563 118.741L90.5693 114.028ZM76.5059 76.6045L82.3387 78.0108C84.7756 67.9035 92.0474 59.9189 101.796 55.6949L99.4111 50.1895L97.0258 44.684C84.2212 50.2319 74.0912 61.0202 70.673 75.1982L76.5059 76.6045ZM99.4111 50.1895L105.387 50.7252C105.539 49.0279 105.821 47.3055 106.24 45.5706L100.407 44.1621L94.5749 42.7536C94.018 45.0595 93.6403 47.3652 93.4351 49.6537L99.4111 50.1895ZM88.9648 121.14L83.7996 124.192L85.5242 127.11L90.6895 124.058L95.8547 121.005L94.1301 118.087L88.9648 121.14ZM90.6895 124.058L85.5239 127.11C84.8327 125.94 84.7856 124.578 85.2357 123.444L90.8125 125.657L96.3893 127.871C97.2407 125.726 97.1425 123.184 95.855 121.005L90.6895 124.058ZM90.8125 125.657V131.657H102.259V125.657V119.657H90.8125V125.657ZM102.259 125.657L102.259 131.657C100.602 131.657 99.2588 130.314 99.2588 128.657H105.259H111.259C111.259 123.687 107.229 119.657 102.259 119.657L102.259 125.657ZM105.259 128.657H99.2588V137.954H105.259H111.259V128.657H105.259ZM105.259 137.954H99.2588C99.2588 142.925 103.288 146.954 108.259 146.954V140.954V134.954C109.916 134.954 111.259 136.297 111.259 137.954H105.259ZM108.259 140.954V146.954H126.215V140.954V134.954H108.259V140.954ZM126.215 140.954L131.936 139.146C132.045 139.491 132.117 139.878 132.128 140.295L126.13 140.452L120.132 140.609C120.152 141.377 120.284 142.1 120.494 142.762L126.215 140.954ZM126.13 140.452L132.128 140.294L132.082 138.555L126.084 138.713L120.086 138.871L120.132 140.61L126.13 140.452ZM126.084 138.713L122.482 133.915L121.491 134.659L125.093 139.457L128.695 144.255L129.686 143.511L126.084 138.713ZM125.093 139.457L121.493 134.657C123.34 133.272 125.958 133.646 127.343 135.492L122.543 139.093L117.743 142.693C120.335 146.148 125.237 146.848 128.692 144.257L125.093 139.457ZM122.543 139.093L127.343 135.493C128.728 137.34 128.353 139.958 126.508 141.343L122.907 136.543L119.307 131.743C115.852 134.335 115.151 139.237 117.743 142.693L122.543 139.093ZM122.907 136.543L126.508 141.342L129.409 139.166L125.809 134.366L122.208 129.567L119.306 131.744L122.907 136.543ZM125.809 134.366L131.694 133.201L129.883 124.052L123.997 125.218L118.111 126.383L119.923 135.532L125.809 134.366ZM123.997 125.218L123.969 119.218C120.174 119.236 116.223 118.783 112.218 117.818L110.812 123.65L109.405 129.483C114.326 130.67 119.24 131.24 124.025 131.218L123.997 125.218ZM110.812 123.65L112.219 117.818C106.442 116.423 101.259 114.132 96.875 111.197L93.5371 116.183L90.1992 121.168C95.8101 124.925 102.31 127.771 109.404 129.483L110.812 123.65ZM93.5371 116.183L89.1268 112.115L84.5545 117.072L88.9648 121.14L93.3752 125.208L97.9475 120.251L93.5371 116.183ZM84.999 125.657V131.657H87.4043V125.657V119.657H84.999V125.657ZM87.4043 125.657L92.5694 122.604L91.5938 120.954L86.4287 124.007L81.2636 127.06L82.2392 128.71L87.4043 125.657ZM86.4287 124.007L81.8937 120.078L80.464 121.729L84.999 125.657L89.534 129.586L90.9637 127.935L86.4287 124.007Z" fill="white" mask="url(#path-1-outside-1_1347_2357)"/>
<path d="M92.4358 112.006C93.1175 111.267 94.2696 111.22 95.009 111.902C95.7484 112.584 95.7952 113.736 95.1135 114.475L88.9651 121.14L90.6897 124.058C91.2013 124.924 90.9146 126.04 90.0491 126.552C89.2374 127.032 88.2049 126.81 87.6575 126.067L87.5549 125.912L86.429 124.007L84.6438 126.068C83.9851 126.828 82.8354 126.909 82.0754 126.25C81.3154 125.592 81.2331 124.442 81.8918 123.682L83.0149 122.385L79.1321 122.022L78.9475 121.995C78.0422 121.816 77.4006 120.977 77.4885 120.039C77.5765 119.1 78.3627 118.395 79.2854 118.387L79.4719 118.395L85.9827 119.004L92.4358 112.006Z" fill="#474747"/>
<path d="M125.095 121.384C126.081 121.189 127.039 121.83 127.234 122.816L129.411 133.808L132.574 135.156C133.499 135.551 133.929 136.62 133.535 137.545C133.141 138.47 132.072 138.901 131.146 138.507L129.705 137.893L129.771 140.357C129.797 141.363 129.002 142.2 127.997 142.226C126.992 142.252 126.156 141.457 126.13 140.452L126.084 138.713L125.093 139.457C124.288 140.06 123.146 139.897 122.543 139.093C121.94 138.288 122.103 137.146 122.907 136.543L125.809 134.366L123.662 123.523C123.467 122.537 124.108 121.579 125.095 121.384Z" fill="#474747"/>
<path d="M162.798 97.4272C157.575 119.074 134.636 129.396 110.811 123.651C86.9792 117.899 71.2836 98.2518 76.5063 76.6051C79.4338 64.4623 88.1337 55.0751 99.4107 50.1891C99.5893 48.1963 99.9192 46.1828 100.407 44.1624C104.888 25.6011 120.494 15.8498 135.935 19.5744C151.377 23.299 160.812 39.0977 156.331 57.6521C155.843 59.6725 155.218 61.6172 154.469 63.4727C162.276 72.9629 165.739 85.2913 162.805 97.4341L162.798 97.4272Z" fill="#4B9AE8"/>
<path d="M138.5 46C142.642 46 146 42.6421 146 38.5C146 34.3579 142.642 31 138.5 31C134.358 31 131 34.3579 131 38.5C131 42.6421 134.358 46 138.5 46Z" fill="white"/>
<path d="M138.5 42.4705C140.693 42.4705 142.471 40.6928 142.471 38.4999C142.471 36.307 140.693 34.5293 138.5 34.5293C136.307 34.5293 134.529 36.307 134.529 38.4999C134.529 40.6928 136.307 42.4705 138.5 42.4705Z" fill="black"/>
<path d="M162.111 43.9066C162.985 47.2644 160.701 53.4076 157.536 54.24C154.365 55.0669 149.383 50.8201 148.51 47.4623C147.636 44.1044 148.999 40.8432 153.73 39.6069C158.512 38.3569 161.238 40.5545 162.112 43.9124L162.111 43.9066Z" fill="#EAC00F"/>
<path d="M150.764 74.2109C151.843 73.5251 153.014 73.1598 154.094 73.2529C155.22 73.3501 156.224 73.9575 156.708 75.0898L157.378 76.6592H157.312C157.544 77.6537 157.351 78.734 156.956 79.6904C156.472 80.8601 155.625 82.0068 154.527 82.9004V82.9014L142.962 92.3018L142.961 92.3008C141.763 93.2791 140.397 93.844 139.137 93.8193C137.811 93.7932 136.603 93.0868 136.158 91.6592L136.148 91.6289L136.146 91.6211C136.144 91.6136 136.14 91.6043 136.137 91.5947C136.132 91.5762 136.122 91.5446 136.113 91.5078L136.114 91.5068C135.606 89.7586 135.896 88.2098 136.302 87.1201C136.506 86.5703 136.743 86.1269 136.931 85.8174C137.026 85.6621 137.11 85.5382 137.173 85.4502C137.2 85.4111 137.224 85.3786 137.243 85.3535C138.378 83.4651 140.759 81.336 143.245 79.415C145.809 77.4338 148.644 75.5528 150.764 74.2109Z" fill="#222222"/>
<path d="M156.606 66.5962C161.883 66.5965 166.162 70.8739 166.162 76.1509C166.162 81.4281 161.883 85.7063 156.606 85.7065C151.329 85.7063 147.051 81.4281 147.051 76.1509C147.051 70.8739 151.329 66.5964 156.606 66.5962Z" fill="#565656"/>
<path d="M151.541 67.272C152.418 66.7872 153.307 66.9341 154.027 67.3296C154.682 67.689 155.276 68.2867 155.81 68.9165C156.87 70.1669 158.132 72.0938 159.505 73.9858C160.21 74.9567 160.909 75.8524 161.556 76.6919C162.193 77.5182 162.792 78.3066 163.254 79.0161C163.698 79.6978 164.113 80.4501 164.247 81.1919C164.318 81.5859 164.321 82.035 164.159 82.4858C163.993 82.9492 163.69 83.3149 163.313 83.5845L163.312 83.5835C162.457 84.1948 161.527 84.0143 160.85 83.6577C160.216 83.3241 159.611 82.7567 159.055 82.146C157.929 80.9094 156.613 79.0477 155.204 77.1069C153.817 75.1953 152.347 73.3153 151.461 71.8618C151.024 71.1446 150.627 70.3742 150.497 69.6499C150.429 69.2712 150.417 68.8153 150.588 68.3589C150.77 67.8734 151.114 67.5091 151.54 67.2729L151.541 67.272Z" fill="#939393"/>
<path d="M35 100.593C35 97.2791 37.6863 94.5928 41 94.5928H65.1294C66.7862 94.5928 68.1294 95.9359 68.1294 97.5928V122.657C68.1294 124.314 69.4725 125.657 71.1294 125.657H102.259C103.916 125.657 105.259 127 105.259 128.657V137.954C105.259 139.611 106.602 140.954 108.259 140.954H132.95C134.607 140.954 135.95 142.297 135.95 143.953L135.955 154.711C135.955 156.364 137.293 157.705 138.946 157.71L159.009 157.768C160.662 157.773 162 159.115 162 160.768V178.726C162 180.383 160.657 181.726 159 181.726H44C39.0294 181.726 35 177.696 35 172.726V100.593Z" fill="#2F4256"/>
<path d="M124.337 62.4837C111.003 59.0739 97.3631 67.0711 96.0122 72.3822C94.6614 77.6933 95.5585 83.1087 105.059 84.6996C115.953 86.5238 125.179 89.829 133.724 96.8891C138.429 100.776 144.58 99.2119 144.533 93.1913C144.701 77.66 138.739 66.1668 124.337 62.4837Z" fill="#276288"/>
<path d="M130.172 57.4511C129.338 53.2912 135.918 47.2909 138.306 46.5498C140.124 50.3832 140.999 55.8893 138.514 59.3641C136.396 62.3249 130.745 60.3097 130.172 57.4511Z" fill="#EBE2E2"/>
</svg>
