<svg width="200" height="200" viewBox="0 0 200 200" fill="none" xmlns="http://www.w3.org/2000/svg">
<mask id="path-1-outside-1_1347_11136" maskUnits="userSpaceOnUse" x="7" y="22" width="187" height="156" fill="black">
<rect fill="white" x="7" y="22" width="187" height="156"/>
<path d="M116.581 61.0674C127.127 47.6366 146.261 48.1791 156.968 58.5791C167.618 68.9234 168.311 87.1878 156.267 98.1621C155.891 98.5038 155.506 98.8311 155.115 99.1475C155.711 99.9783 156.263 100.84 156.767 101.73C158.583 100.627 160.157 99.7026 160.607 99.4805C161.822 98.8847 162.897 99.3375 163.2 100.601C163.504 101.856 166.861 114.711 167.398 117.087C167.667 118.278 166.175 119.256 164.961 118.557C164.544 118.318 162.725 117.174 160.477 115.744C160.477 115.769 160.478 115.794 160.478 115.819C160.477 118.28 160.153 120.731 159.514 123.107C164.058 125.095 167.925 128.365 170.641 132.516C171.666 134.083 172.51 135.751 173.164 137.486C173.166 137.482 173.168 137.478 173.17 137.474C174.623 141.325 175.123 145.47 174.626 149.557C174.129 153.643 172.652 157.548 170.318 160.939C167.985 164.33 164.865 167.106 161.227 169.03C160.199 169.574 159.137 170.041 158.051 170.438C158.016 170.45 157.981 170.463 157.946 170.476C157.775 170.537 157.603 170.597 157.431 170.655C157.406 170.663 157.382 170.672 157.357 170.68C156.612 170.928 155.856 171.141 155.092 171.319C155.05 171.329 155.009 171.339 154.968 171.349C154.825 171.381 154.681 171.412 154.537 171.442C154.43 171.465 154.324 171.487 154.217 171.508C154.105 171.53 153.993 171.551 153.881 171.571C153.739 171.597 153.597 171.621 153.455 171.645C153.372 171.658 153.289 171.674 153.205 171.687C152.984 171.721 152.763 171.752 152.541 171.78C152.452 171.792 152.363 171.801 152.274 171.812C152.122 171.829 151.969 171.846 151.816 171.861C151.742 171.869 151.667 171.876 151.593 171.883C151.412 171.899 151.232 171.913 151.051 171.926C150.996 171.93 150.941 171.933 150.887 171.937C150.693 171.949 150.498 171.959 150.304 171.967C150.252 171.969 150.2 171.971 150.147 171.973C149.905 171.981 149.663 171.987 149.42 171.988H50.293C41.8208 171.898 33.6167 168.954 27.0127 163.621C20.1958 158.116 15.5097 150.408 13.7598 141.822C12.0098 133.236 13.3051 124.308 17.4238 116.574C21.5426 108.84 28.2272 102.782 36.3281 99.4424V96.5107C36.3604 85.8467 40.3876 75.5814 47.6152 67.7402C54.8429 59.8991 64.7469 55.0505 75.373 54.1514C85.999 53.2524 96.5763 56.3677 105.019 62.8828C107.696 64.949 110.096 67.3108 112.185 69.9062C113.113 66.642 114.588 63.6035 116.581 61.0674ZM169.48 77.5596C169.831 76.0886 171.177 75.9038 172.212 76.5557C173.191 77.1722 184.8 84.7899 185.933 85.6982C187.677 87.09 187.12 88.9491 185.439 89.416C184.476 89.6802 170.032 92.0491 168.987 92.2783C167.944 92.5073 167.307 91.5821 167.45 90.6484C167.594 89.7125 169.13 79.0315 169.48 77.5596ZM178.404 48.6543C179.999 48.1984 180.622 49.6643 179.58 51.0508C178.947 51.8964 170.279 65.4087 169.584 66.3301C168.889 67.2599 168.061 67.1023 167.571 66.4883C167.09 65.8652 161.815 56.922 161.049 55.6846C160.283 54.4472 160.244 53.4729 161.673 52.9814C162.573 52.6743 177.188 49.0142 178.404 48.6543ZM109.939 37.9785C109.536 35.7969 111.013 35.4553 112.215 36.4102C113.577 37.4971 124.322 45.4238 125.189 46.0371C126.057 46.6504 126.353 47.7756 125.388 48.5596C124.383 49.3825 116.82 54.499 115.898 55.1748C114.963 55.858 114.156 55.3143 113.89 54.2197C113.654 53.2726 110.229 39.5483 109.939 37.9785ZM145.615 29.8193C146.948 28.121 148.346 29.3924 148.564 30.6641C148.782 31.9358 151.137 45.8049 151.288 46.7949C151.43 47.7847 150.994 48.6376 149.813 48.5654C149.001 48.5172 139.357 47.0114 137.806 46.6572C136.255 46.303 135.995 45.2248 136.774 43.8242C137.361 42.7698 144.283 31.5181 145.615 29.8193Z"/>
</mask>
<path d="M116.581 61.0674C127.127 47.6366 146.261 48.1791 156.968 58.5791C167.618 68.9234 168.311 87.1878 156.267 98.1621C155.891 98.5038 155.506 98.8311 155.115 99.1475C155.711 99.9783 156.263 100.84 156.767 101.73C158.583 100.627 160.157 99.7026 160.607 99.4805C161.822 98.8847 162.897 99.3375 163.2 100.601C163.504 101.856 166.861 114.711 167.398 117.087C167.667 118.278 166.175 119.256 164.961 118.557C164.544 118.318 162.725 117.174 160.477 115.744C160.477 115.769 160.478 115.794 160.478 115.819C160.477 118.28 160.153 120.731 159.514 123.107C164.058 125.095 167.925 128.365 170.641 132.516C171.666 134.083 172.51 135.751 173.164 137.486C173.166 137.482 173.168 137.478 173.17 137.474C174.623 141.325 175.123 145.47 174.626 149.557C174.129 153.643 172.652 157.548 170.318 160.939C167.985 164.33 164.865 167.106 161.227 169.03C160.199 169.574 159.137 170.041 158.051 170.438C158.016 170.45 157.981 170.463 157.946 170.476C157.775 170.537 157.603 170.597 157.431 170.655C157.406 170.663 157.382 170.672 157.357 170.68C156.612 170.928 155.856 171.141 155.092 171.319C155.05 171.329 155.009 171.339 154.968 171.349C154.825 171.381 154.681 171.412 154.537 171.442C154.43 171.465 154.324 171.487 154.217 171.508C154.105 171.53 153.993 171.551 153.881 171.571C153.739 171.597 153.597 171.621 153.455 171.645C153.372 171.658 153.289 171.674 153.205 171.687C152.984 171.721 152.763 171.752 152.541 171.78C152.452 171.792 152.363 171.801 152.274 171.812C152.122 171.829 151.969 171.846 151.816 171.861C151.742 171.869 151.667 171.876 151.593 171.883C151.412 171.899 151.232 171.913 151.051 171.926C150.996 171.93 150.941 171.933 150.887 171.937C150.693 171.949 150.498 171.959 150.304 171.967C150.252 171.969 150.2 171.971 150.147 171.973C149.905 171.981 149.663 171.987 149.42 171.988H50.293C41.8208 171.898 33.6167 168.954 27.0127 163.621C20.1958 158.116 15.5097 150.408 13.7598 141.822C12.0098 133.236 13.3051 124.308 17.4238 116.574C21.5426 108.84 28.2272 102.782 36.3281 99.4424V96.5107C36.3604 85.8467 40.3876 75.5814 47.6152 67.7402C54.8429 59.8991 64.7469 55.0505 75.373 54.1514C85.999 53.2524 96.5763 56.3677 105.019 62.8828C107.696 64.949 110.096 67.3108 112.185 69.9062C113.113 66.642 114.588 63.6035 116.581 61.0674ZM169.48 77.5596C169.831 76.0886 171.177 75.9038 172.212 76.5557C173.191 77.1722 184.8 84.7899 185.933 85.6982C187.677 87.09 187.12 88.9491 185.439 89.416C184.476 89.6802 170.032 92.0491 168.987 92.2783C167.944 92.5073 167.307 91.5821 167.45 90.6484C167.594 89.7125 169.13 79.0315 169.48 77.5596ZM178.404 48.6543C179.999 48.1984 180.622 49.6643 179.58 51.0508C178.947 51.8964 170.279 65.4087 169.584 66.3301C168.889 67.2599 168.061 67.1023 167.571 66.4883C167.09 65.8652 161.815 56.922 161.049 55.6846C160.283 54.4472 160.244 53.4729 161.673 52.9814C162.573 52.6743 177.188 49.0142 178.404 48.6543ZM109.939 37.9785C109.536 35.7969 111.013 35.4553 112.215 36.4102C113.577 37.4971 124.322 45.4238 125.189 46.0371C126.057 46.6504 126.353 47.7756 125.388 48.5596C124.383 49.3825 116.82 54.499 115.898 55.1748C114.963 55.858 114.156 55.3143 113.89 54.2197C113.654 53.2726 110.229 39.5483 109.939 37.9785ZM145.615 29.8193C146.948 28.121 148.346 29.3924 148.564 30.6641C148.782 31.9358 151.137 45.8049 151.288 46.7949C151.43 47.7847 150.994 48.6376 149.813 48.5654C149.001 48.5172 139.357 47.0114 137.806 46.6572C136.255 46.303 135.995 45.2248 136.774 43.8242C137.361 42.7698 144.283 31.5181 145.615 29.8193Z" fill="#D9D9D9"/>
<path d="M116.581 61.0674L121.299 64.7749L121.3 64.7728L116.581 61.0674ZM156.968 58.5791L152.787 62.883L152.787 62.8832L156.968 58.5791ZM156.267 98.1621L160.306 102.599L160.308 102.597L156.267 98.1621ZM155.115 99.1475L151.342 94.4821C148.871 96.4811 148.387 100.061 150.24 102.644L155.115 99.1475ZM156.767 101.73L151.545 104.685C152.344 106.098 153.682 107.127 155.253 107.537C156.824 107.946 158.494 107.701 159.882 106.858L156.767 101.73ZM160.607 99.4805L157.964 94.094L157.956 94.0983L160.607 99.4805ZM163.2 100.601L157.366 102.003L157.368 102.011L163.2 100.601ZM167.398 117.087L173.252 115.768L173.25 115.762L167.398 117.087ZM164.961 118.557L167.955 113.357C167.95 113.354 167.944 113.351 167.939 113.348L164.961 118.557ZM160.477 115.744L163.695 110.681C161.845 109.505 159.501 109.431 157.581 110.489C155.661 111.547 154.471 113.568 154.477 115.76L160.477 115.744ZM160.478 115.819L166.478 115.82V115.819L160.478 115.819ZM159.514 123.107L153.72 121.549C152.948 124.416 154.39 127.415 157.11 128.605L159.514 123.107ZM170.641 132.516L175.662 129.231L175.662 129.231L170.641 132.516ZM173.164 137.486L167.549 139.602C168.43 141.939 170.666 143.486 173.163 143.486C175.66 143.487 177.896 141.941 178.778 139.604L173.164 137.486ZM173.17 137.474L178.784 135.355C177.902 133.019 175.665 131.473 173.168 131.474C170.671 131.474 168.435 133.022 167.555 135.359L173.17 137.474ZM174.626 149.557L180.582 150.28V150.28L174.626 149.557ZM170.318 160.939L175.261 164.341L175.261 164.341L170.318 160.939ZM161.227 169.03L164.031 174.335L164.031 174.335L161.227 169.03ZM158.051 170.438L155.993 164.801L155.991 164.802L158.051 170.438ZM157.946 170.476L159.979 176.121L159.982 176.12L157.946 170.476ZM157.431 170.655L155.519 164.968L155.517 164.969L157.431 170.655ZM157.357 170.68L159.252 176.373L159.254 176.372L157.357 170.68ZM155.092 171.319L153.73 165.476L153.728 165.476L155.092 171.319ZM154.968 171.349L156.3 177.199L156.303 177.198L154.968 171.349ZM154.537 171.442L153.306 165.57L153.304 165.571L154.537 171.442ZM154.217 171.508L155.372 177.395L155.375 177.395L154.217 171.508ZM153.881 171.571L152.804 165.669L152.802 165.669L153.881 171.571ZM153.455 171.645L154.432 177.565L154.434 177.564L153.455 171.645ZM153.205 171.687L152.288 165.757L152.285 165.757L153.205 171.687ZM152.541 171.78L153.302 177.732L153.305 177.731L152.541 171.78ZM152.274 171.812L151.576 165.852L151.573 165.853L152.274 171.812ZM151.816 171.861L152.407 177.832L152.41 177.832L151.816 171.861ZM151.593 171.883L151.054 165.907L151.052 165.907L151.593 171.883ZM151.051 171.926L151.462 177.912L151.464 177.912L151.051 171.926ZM150.887 171.937L150.515 165.948L150.512 165.948L150.887 171.937ZM150.304 171.967L150.539 177.962L150.541 177.962L150.304 171.967ZM150.147 171.973L149.949 165.976L149.947 165.976L150.147 171.973ZM149.42 171.988V177.988C149.43 177.988 149.44 177.988 149.45 177.988L149.42 171.988ZM50.293 171.988L50.2287 177.988C50.2501 177.988 50.2716 177.988 50.293 177.988V171.988ZM27.0127 163.621L23.243 168.289L23.243 168.289L27.0127 163.621ZM13.7598 141.822L7.88063 143.02L7.88064 143.021L13.7598 141.822ZM17.4238 116.574L12.128 113.754L12.128 113.754L17.4238 116.574ZM36.3281 99.4424L38.6151 104.989C40.862 104.063 42.3281 101.873 42.3281 99.4424H36.3281ZM36.3281 96.5107L30.3282 96.4926C30.3281 96.4986 30.3281 96.5047 30.3281 96.5107H36.3281ZM47.6152 67.7402L43.2035 63.6737L43.2035 63.6737L47.6152 67.7402ZM75.373 54.1514L74.8672 48.1727L74.8672 48.1727L75.373 54.1514ZM105.019 62.8828L108.684 58.1328L108.684 58.1328L105.019 62.8828ZM112.185 69.9062L107.51 73.668C108.917 75.4155 111.18 76.2326 113.378 75.7863C115.577 75.34 117.342 73.7049 117.956 71.5474L112.185 69.9062ZM169.48 77.5596L163.644 76.1694L163.644 76.1699L169.48 77.5596ZM172.212 76.5557L169.015 81.633L169.015 81.6333L172.212 76.5557ZM185.933 85.6982L182.179 90.3788C182.182 90.3819 182.186 90.3849 182.19 90.3879L185.933 85.6982ZM185.439 89.416L187.026 95.2025C187.033 95.2006 187.039 95.1988 187.046 95.1969L185.439 89.416ZM168.987 92.2783L167.702 86.4177L167.701 86.4178L168.987 92.2783ZM167.45 90.6484L173.381 91.5589L173.381 91.5588L167.45 90.6484ZM178.404 48.6543L176.755 42.8855C176.737 42.8906 176.719 42.8957 176.701 42.901L178.404 48.6543ZM179.58 51.0508L174.784 47.4458L174.778 47.4532L179.58 51.0508ZM169.584 66.3301L164.793 62.7178C164.788 62.7249 164.783 62.7319 164.777 62.739L169.584 66.3301ZM167.571 66.4883L162.824 70.1575C162.842 70.1813 162.861 70.205 162.88 70.2285L167.571 66.4883ZM161.049 55.6846L155.947 58.8421L155.947 58.8423L161.049 55.6846ZM161.673 52.9814L159.735 47.303C159.731 47.3045 159.726 47.3061 159.721 47.3077L161.673 52.9814ZM109.939 37.9785L115.84 36.8901L115.839 36.8878L109.939 37.9785ZM112.215 36.4102L115.957 31.7203L115.946 31.7117L112.215 36.4102ZM125.189 46.0371L128.654 41.1386L128.653 41.1379L125.189 46.0371ZM125.388 48.5596L121.606 43.9012C121.599 43.9069 121.592 43.9126 121.585 43.9183L125.388 48.5596ZM115.898 55.1748L119.436 60.021L119.447 60.0128L115.898 55.1748ZM113.89 54.2197L119.719 52.8009C119.717 52.7905 119.714 52.78 119.712 52.7696L113.89 54.2197ZM145.615 29.8193L140.895 26.116L140.894 26.1161L145.615 29.8193ZM148.564 30.6641L154.478 29.6507L154.478 29.6504L148.564 30.6641ZM151.288 46.7949L157.227 45.9414C157.225 45.9247 157.222 45.908 157.22 45.8913L151.288 46.7949ZM149.813 48.5654L150.18 42.5766L150.169 42.576L149.813 48.5654ZM137.806 46.6572L136.469 52.5065L136.47 52.5066L137.806 46.6572ZM136.774 43.8242L142.017 46.7414L142.018 46.7411L136.774 43.8242ZM116.581 61.0674L121.3 64.7728C129.395 54.4635 144.336 54.6739 152.787 62.883L156.968 58.5791L161.148 54.2752C148.186 41.6842 124.859 40.8098 111.862 57.362L116.581 61.0674ZM156.968 58.5791L152.787 62.8832C161.091 70.9477 161.579 85.2047 152.226 93.7271L156.267 98.1621L160.308 102.597C175.043 89.1709 174.146 66.899 161.148 54.275L156.968 58.5791ZM156.267 98.1621L152.227 93.7257C151.951 93.9768 151.657 94.2277 151.342 94.4821L155.115 99.1475L158.888 103.813C159.356 103.435 159.831 103.031 160.306 102.599L156.267 98.1621ZM155.115 99.1475L150.24 102.644C150.712 103.303 151.148 103.985 151.545 104.685L156.767 101.73L161.988 98.7755C161.377 97.6957 160.71 96.6531 159.991 95.6506L155.115 99.1475ZM156.767 101.73L159.882 106.858C160.771 106.318 161.591 105.828 162.234 105.451C162.962 105.024 163.268 104.858 163.259 104.863L160.607 99.4805L157.956 94.0983C157.208 94.4665 155.361 95.5638 153.651 96.6026L156.767 101.73ZM160.607 99.4805L163.25 104.867C162.725 105.125 161.43 105.522 159.881 104.858C158.252 104.159 157.561 102.812 157.366 102.003L163.2 100.601L169.034 99.1984C168.536 97.1261 167.156 94.9208 164.61 93.8291C162.143 92.7713 159.704 93.2404 157.964 94.094L160.607 99.4805ZM163.2 100.601L157.368 102.011C157.769 103.668 160.996 115.978 161.546 118.411L167.398 117.087L173.25 115.762C172.726 113.445 169.239 100.044 169.032 99.1903L163.2 100.601ZM167.398 117.087L161.545 118.406C160.999 115.982 162.388 114.17 163.564 113.438C164.777 112.682 166.473 112.504 167.955 113.357L164.961 118.557L161.967 123.756C164.663 125.309 167.712 124.991 169.907 123.624C172.066 122.28 174.066 119.383 173.252 115.768L167.398 117.087ZM164.961 118.557L167.939 113.348C167.953 113.356 167.929 113.342 167.847 113.293C167.774 113.248 167.676 113.188 167.552 113.112C167.306 112.96 166.984 112.759 166.596 112.515C165.821 112.029 164.815 111.393 163.695 110.681L160.477 115.744L157.258 120.808C159.42 122.182 161.407 123.436 161.983 123.765L164.961 118.557ZM160.477 115.744L154.477 115.76C154.477 115.799 154.477 115.832 154.477 115.854C154.478 115.865 154.478 115.874 154.478 115.881C154.478 115.887 154.478 115.893 154.478 115.895C154.478 115.901 154.478 115.894 154.478 115.883C154.478 115.871 154.478 115.849 154.478 115.819L160.478 115.819L166.478 115.819C166.478 115.777 166.477 115.742 166.477 115.718C166.477 115.695 166.476 115.675 166.476 115.669C166.476 115.659 166.476 115.665 166.476 115.672C166.476 115.681 166.476 115.702 166.477 115.728L160.477 115.744ZM160.478 115.819L154.478 115.819C154.477 117.753 154.222 119.68 153.72 121.549L159.514 123.107L165.308 124.666C166.083 121.782 166.477 118.808 166.478 115.82L160.478 115.819ZM159.514 123.107L157.11 128.605C160.585 130.125 163.543 132.625 165.619 135.8L170.641 132.516L175.662 129.231C172.308 124.104 167.532 120.065 161.918 117.61L159.514 123.107ZM170.641 132.516L165.619 135.8C166.403 136.999 167.049 138.274 167.549 139.602L173.164 137.486L178.779 135.371C177.971 133.228 176.928 131.168 175.662 129.231L170.641 132.516ZM173.164 137.486L178.778 139.604C178.74 139.704 178.704 139.792 178.672 139.865C178.641 139.938 178.612 140 178.59 140.047C178.579 140.071 178.569 140.092 178.56 140.109C178.552 140.127 178.544 140.142 178.538 140.154C178.533 140.165 178.528 140.174 178.525 140.179C178.524 140.182 178.523 140.184 178.522 140.186C178.522 140.187 178.521 140.188 178.521 140.187C178.521 140.187 178.522 140.187 178.522 140.187C178.522 140.186 178.522 140.186 178.523 140.185C178.524 140.183 178.525 140.181 178.526 140.178C178.529 140.171 178.534 140.162 178.54 140.15C178.546 140.137 178.554 140.122 178.563 140.104C178.572 140.085 178.582 140.064 178.594 140.039C178.617 139.991 178.646 139.928 178.678 139.853C178.71 139.779 178.747 139.69 178.785 139.588L173.17 137.474L167.555 135.359C167.593 135.259 167.629 135.171 167.661 135.097C167.692 135.024 167.721 134.962 167.743 134.915C167.755 134.891 167.765 134.869 167.773 134.852C167.782 134.834 167.789 134.819 167.795 134.807C167.801 134.796 167.806 134.786 167.808 134.781C167.81 134.778 167.811 134.776 167.812 134.774C167.812 134.773 167.813 134.772 167.813 134.773C167.813 134.773 167.813 134.773 167.812 134.773C167.812 134.773 167.812 134.773 167.812 134.773C167.812 134.774 167.812 134.774 167.811 134.775C167.811 134.777 167.809 134.779 167.808 134.782C167.805 134.788 167.8 134.798 167.794 134.81C167.788 134.822 167.78 134.837 167.772 134.855C167.763 134.873 167.752 134.895 167.741 134.919C167.718 134.968 167.689 135.03 167.657 135.104C167.625 135.179 167.588 135.267 167.55 135.369L173.164 137.486ZM173.17 137.474L167.556 139.592C168.668 142.537 169.05 145.707 168.67 148.833L174.626 149.557L180.582 150.28C181.196 145.233 180.579 140.113 178.784 135.355L173.17 137.474ZM174.626 149.557L168.67 148.833C168.29 151.958 167.16 154.945 165.376 157.538L170.318 160.939L175.261 164.341C178.144 160.152 179.969 155.327 180.582 150.28L174.626 149.557ZM170.318 160.939L165.376 157.538C163.591 160.132 161.205 162.255 158.422 163.726L161.227 169.03L164.031 174.335C168.526 171.958 172.379 168.529 175.261 164.341L170.318 160.939ZM161.227 169.03L158.422 163.726C157.647 164.136 156.836 164.494 155.993 164.801L158.051 170.438L160.108 176.074C161.437 175.589 162.75 175.012 164.031 174.335L161.227 169.03ZM158.051 170.438L155.991 164.802C155.944 164.819 155.93 164.825 155.911 164.831L157.946 170.476L159.982 176.12C160.033 176.101 160.088 176.081 160.111 176.073L158.051 170.438ZM157.946 170.476L155.913 164.831C155.778 164.879 155.647 164.925 155.519 164.968L157.431 170.655L159.342 176.343C159.559 176.27 159.772 176.195 159.979 176.121L157.946 170.476ZM157.431 170.655L155.517 164.969C155.503 164.973 155.507 164.972 155.461 164.987L157.357 170.68L159.254 176.372C159.257 176.371 159.31 176.354 159.345 176.342L157.431 170.655ZM157.357 170.68L155.463 164.987C154.892 165.177 154.314 165.34 153.73 165.476L155.092 171.319L156.453 177.163C157.399 176.943 158.332 176.679 159.252 176.373L157.357 170.68ZM155.092 171.319L153.728 165.476C153.705 165.482 153.685 165.486 153.67 165.49C153.658 165.493 153.641 165.497 153.635 165.498C153.617 165.503 153.622 165.502 153.633 165.499L154.968 171.349L156.303 177.198C156.355 177.186 156.401 177.175 156.424 177.17C156.44 177.166 156.443 177.165 156.451 177.163C156.457 177.162 156.458 177.162 156.456 177.162L155.092 171.319ZM154.968 171.349L153.636 165.498C153.536 165.521 153.428 165.544 153.306 165.57L154.537 171.442L155.768 177.315C155.934 177.28 156.113 177.241 156.3 177.199L154.968 171.349ZM154.537 171.442L153.304 165.571C153.211 165.59 153.131 165.606 153.059 165.621L154.217 171.508L155.375 177.395C155.516 177.367 155.65 177.34 155.771 177.314L154.537 171.442ZM154.217 171.508L153.061 165.62C152.98 165.636 152.894 165.652 152.804 165.669L153.881 171.571L154.957 177.474C155.092 177.449 155.23 177.423 155.372 177.395L154.217 171.508ZM153.881 171.571L152.802 165.669C152.713 165.685 152.613 165.702 152.476 165.725L153.455 171.645L154.434 177.564C154.582 177.54 154.766 177.509 154.96 177.473L153.881 171.571ZM153.455 171.645L152.479 165.725C152.44 165.731 152.405 165.737 152.378 165.741C152.365 165.744 152.352 165.746 152.341 165.748C152.33 165.75 152.321 165.751 152.313 165.753C152.277 165.759 152.277 165.759 152.288 165.757L153.205 171.687L154.123 177.616C154.217 177.601 154.3 177.587 154.347 177.579C154.409 177.568 154.417 177.567 154.432 177.565L153.455 171.645ZM153.205 171.687L152.285 165.757C152.122 165.783 151.954 165.806 151.777 165.829L152.541 171.78L153.305 177.731C153.572 177.697 153.846 177.659 154.125 177.616L153.205 171.687ZM152.541 171.78L151.78 165.829C151.727 165.835 151.754 165.831 151.576 165.852L152.274 171.812L152.973 177.771C153.008 177.767 153.024 177.765 153.091 177.757C153.143 177.751 153.218 177.743 153.302 177.732L152.541 171.78ZM152.274 171.812L151.573 165.853C151.454 165.867 151.337 165.879 151.223 165.891L151.816 171.861L152.41 177.832C152.602 177.813 152.79 177.792 152.975 177.77L152.274 171.812ZM151.816 171.861L151.225 165.891C151.145 165.898 151.098 165.903 151.054 165.907L151.593 171.883L152.131 177.859C152.237 177.849 152.338 177.839 152.407 177.832L151.816 171.861ZM151.593 171.883L151.052 165.907C150.919 165.919 150.782 165.93 150.638 165.94L151.051 171.926L151.464 177.912C151.682 177.896 151.905 177.879 152.133 177.858L151.593 171.883ZM151.051 171.926L150.64 165.94C150.597 165.943 150.555 165.946 150.515 165.948L150.887 171.937L151.259 177.925C151.327 177.921 151.395 177.916 151.462 177.912L151.051 171.926ZM150.887 171.937L150.512 165.948C150.353 165.958 150.205 165.966 150.066 165.971L150.304 171.967L150.541 177.962C150.791 177.952 151.033 177.939 151.261 177.925L150.887 171.937ZM150.304 171.967L150.069 165.971C150.007 165.974 149.978 165.975 149.949 165.976L150.147 171.973L150.346 177.969C150.421 177.967 150.496 177.964 150.539 177.962L150.304 171.967ZM150.147 171.973L149.947 165.976C149.731 165.983 149.552 165.988 149.39 165.988L149.42 171.988L149.45 177.988C149.774 177.987 150.08 177.978 150.348 177.969L150.147 171.973ZM149.42 171.988V165.988H50.293V171.988V177.988H149.42V171.988ZM50.293 171.988L50.3572 165.989C43.2336 165.912 36.3353 163.438 30.7824 158.953L27.0127 163.621L23.243 168.289C30.8982 174.471 40.408 177.883 50.2287 177.988L50.293 171.988ZM27.0127 163.621L30.7824 158.953C25.0505 154.324 21.1103 147.843 19.6389 140.624L13.7598 141.822L7.88064 143.021C9.90915 152.973 15.341 161.908 23.243 168.289L27.0127 163.621ZM13.7598 141.822L19.6389 140.624C18.1674 133.404 19.2566 125.897 22.7197 119.394L17.4238 116.574L12.128 113.754C7.35352 122.719 5.85225 133.068 7.88063 143.02L13.7598 141.822ZM17.4238 116.574L22.7197 119.394C26.1828 112.891 31.8035 107.798 38.6151 104.989L36.3281 99.4424L34.0411 93.8954C24.6508 97.7669 16.9023 104.789 12.128 113.754L17.4238 116.574ZM36.3281 99.4424H42.3281V96.5107H36.3281H30.3281V99.4424H36.3281ZM36.3281 96.5107L42.3281 96.5289C42.3559 87.3654 45.8164 78.5445 52.027 71.8068L47.6152 67.7402L43.2035 63.6737C34.9588 72.6183 30.365 84.328 30.3282 96.4926L36.3281 96.5107ZM47.6152 67.7402L52.0269 71.8068C58.2376 65.0689 66.7481 60.9026 75.8789 60.13L75.373 54.1514L74.8672 48.1727C62.7457 49.1983 51.4482 54.7292 43.2035 63.6737L47.6152 67.7402ZM75.373 54.1514L75.8789 60.13C85.0096 59.3575 94.0985 62.0345 101.353 67.6328L105.019 62.8828L108.684 58.1328C99.054 50.7009 86.9884 47.1472 74.8672 48.1727L75.373 54.1514ZM105.019 62.8828L101.353 67.6328C103.652 69.4072 105.714 71.4364 107.51 73.668L112.185 69.9062L116.859 66.1445C114.477 63.1851 111.74 60.4908 108.684 58.1328L105.019 62.8828ZM112.185 69.9062L117.956 71.5474C118.699 68.9331 119.848 66.62 121.299 64.7749L116.581 61.0674L111.864 57.3599C109.327 60.587 107.526 64.3508 106.413 68.2651L112.185 69.9062ZM169.48 77.5596L175.317 78.9497C175.209 79.4033 174.949 80.0567 174.379 80.693C173.798 81.3417 173.054 81.7929 172.269 82.0218C170.777 82.4565 169.607 82.006 169.015 81.633L172.212 76.5557L175.409 71.4783C173.781 70.4535 171.421 69.7694 168.91 70.5013C166.069 71.3296 164.252 73.6146 163.644 76.1694L169.48 77.5596ZM172.212 76.5557L169.015 81.6333C169.434 81.8969 172.515 83.9115 175.704 86.0213C177.281 87.0649 178.852 88.1106 180.094 88.948C180.717 89.3676 181.243 89.726 181.64 90.0014C182.107 90.3249 182.231 90.421 182.179 90.3788L185.933 85.6982L189.687 81.0176C188.84 80.3387 185.297 77.98 182.326 76.0138C179.182 73.9335 175.969 71.831 175.408 71.478L172.212 76.5557ZM185.933 85.6982L182.19 90.3879C181.79 90.0689 180.695 88.8075 181.074 86.7937C181.436 84.8715 182.86 83.9055 183.833 83.6351L185.439 89.416L187.046 95.1969C189.699 94.4596 192.242 92.3306 192.866 89.0142C193.508 85.6062 191.819 82.7193 189.675 81.0086L185.933 85.6982ZM185.439 89.416L183.853 83.6296C183.97 83.5976 183.306 83.7302 181.578 84.0318C180.088 84.2917 178.174 84.6175 176.242 84.9445C172.553 85.5691 168.412 86.2618 167.702 86.4177L168.987 92.2783L170.273 98.1389C170.25 98.144 170.441 98.1068 170.992 98.01C171.474 97.9254 172.116 97.815 172.872 97.6862C174.383 97.4285 176.307 97.1043 178.246 96.7761C180.176 96.4492 182.118 96.1189 183.641 95.8531C184.924 95.6291 186.427 95.3666 187.026 95.2025L185.439 89.416ZM168.987 92.2783L167.701 86.4178C169.36 86.0537 171.187 86.6524 172.343 88.0109C173.32 89.1582 173.544 90.4952 173.381 91.5589L167.45 90.6484L161.52 89.7379C161.213 91.7353 161.684 94.0018 163.204 95.7878C164.904 97.7851 167.571 98.732 170.274 98.1388L168.987 92.2783ZM167.45 90.6484L173.381 91.5588C173.451 91.1009 173.889 88.0794 174.321 85.1953C174.543 83.716 174.769 82.2359 174.96 81.0414C175.056 80.4428 175.14 79.9323 175.209 79.5371C175.287 79.089 175.322 78.9311 175.317 78.9492L169.48 77.5596L163.644 76.1699C163.392 77.2276 162.871 80.6355 162.454 83.4147C161.995 86.473 161.593 89.26 161.52 89.7381L167.45 90.6484ZM178.404 48.6543L180.054 54.4231C179.565 54.5629 178.581 54.7169 177.392 54.2929C176.122 53.84 175.097 52.886 174.542 51.6951C173.512 49.4845 174.5 47.8234 174.784 47.4458L179.58 51.0508L184.376 54.6558C185.702 52.8917 186.899 49.8044 185.42 46.6282C184.64 44.9545 183.225 43.6328 181.422 42.9899C179.701 42.376 178.041 42.5177 176.755 42.8855L178.404 48.6543ZM179.58 51.0508L174.778 47.4532C174.299 48.0927 171.777 51.9944 169.57 55.3983C168.403 57.1997 167.24 58.993 166.326 60.393C165.868 61.0939 165.48 61.6859 165.187 62.1266C164.839 62.6519 164.745 62.782 164.793 62.7178L169.584 66.3301L174.375 69.9423C174.892 69.256 177.434 65.3288 179.64 61.9257C180.808 60.1232 181.968 58.3338 182.875 56.9416C183.329 56.2447 183.714 55.657 184.002 55.2215C184.348 54.6978 184.435 54.5772 184.382 54.6483L179.58 51.0508ZM169.584 66.3301L164.777 62.739C165.211 62.1588 166.443 60.9885 168.499 60.9881C170.425 60.9877 171.686 62.0245 172.263 62.7481L167.571 66.4883L162.88 70.2285C163.946 71.5661 165.866 72.9887 168.502 72.9881C171.268 72.9875 173.263 71.4312 174.391 69.9212L169.584 66.3301ZM167.571 66.4883L172.319 62.8191C172.465 63.0087 172.289 62.7553 171.585 61.5965C171.023 60.6711 170.304 59.4719 169.567 58.2396C168.131 55.8345 166.567 53.1988 166.151 52.5268L161.049 55.6846L155.947 58.8423C156.297 59.4078 157.753 61.8624 159.266 64.3941C160.004 65.63 160.742 66.8609 161.329 67.8262C161.773 68.5581 162.437 69.6563 162.824 70.1575L167.571 66.4883ZM161.049 55.6846L166.151 52.5271C166.114 52.4681 166.219 52.6204 166.327 52.9492C166.433 53.275 166.619 54.0149 166.463 54.9958C166.29 56.0843 165.76 57.0472 165.043 57.7435C164.406 58.3612 163.809 58.5917 163.624 58.6552L161.673 52.9814L159.721 47.3077C157.884 47.9398 155.17 49.6027 154.612 53.1108C154.181 55.8206 155.413 57.9803 155.947 58.8421L161.049 55.6846ZM161.673 52.9814L163.611 58.6599C163.554 58.6792 164.3 58.4744 165.998 58.0353C167.502 57.6464 169.441 57.1513 171.402 56.6519C175.192 55.686 179.353 54.6309 180.107 54.4076L178.404 48.6543L176.701 42.901C176.708 42.8991 176.647 42.9166 176.473 42.9634C176.317 43.0052 176.111 43.0594 175.858 43.1254C175.353 43.2571 174.689 43.4282 173.914 43.6268C172.364 44.024 170.402 44.5231 168.439 45.0234C164.774 45.9571 160.485 47.0472 159.735 47.303L161.673 52.9814ZM109.939 37.9785L115.839 36.8878C115.851 36.9483 115.963 37.5633 115.686 38.4566C115.373 39.4678 114.593 40.6547 113.197 41.3651C110.637 42.6683 108.725 41.3006 108.483 41.1086L112.215 36.4102L115.946 31.7117C114.502 30.5648 111.251 28.8905 107.753 30.6712C103.666 32.7516 103.67 37.071 104.039 39.0692L109.939 37.9785ZM112.215 36.4102L108.472 41.1C109.966 42.2915 120.818 50.2942 121.726 50.9363L125.189 46.0371L128.653 41.1379C127.826 40.5534 117.188 32.7027 115.957 31.7203L112.215 36.4102ZM125.189 46.0371L121.725 50.9356C121.086 50.484 120.236 49.5523 120.03 48.0414C119.787 46.2454 120.608 44.7118 121.606 43.9012L125.388 48.5596L129.169 53.2179C131.134 51.6233 132.289 49.1352 131.921 46.4273C131.593 44.0045 130.16 42.2036 128.654 41.1386L125.189 46.0371ZM125.388 48.5596L121.585 43.9183C121.62 43.8895 121.533 43.9599 121.218 44.1874C120.945 44.3839 120.59 44.6359 120.168 44.9317C119.325 45.5219 118.275 46.2475 117.211 46.9792C115.181 48.3757 112.908 49.9273 112.35 50.3368L115.898 55.1748L119.447 60.0128C119.447 60.0132 119.45 60.0108 119.458 60.0051C119.466 59.9995 119.476 59.9919 119.49 59.9821C119.518 59.9622 119.554 59.9365 119.6 59.9044C119.691 59.8398 119.809 59.7579 119.952 59.6587C120.237 59.4604 120.603 59.2081 121.029 58.9155C121.841 58.3567 122.977 57.5782 124.013 56.8655C125.976 55.5149 128.434 53.8203 129.19 53.2009L125.388 48.5596ZM115.898 55.1748L112.361 50.3287C112.754 50.0419 113.453 49.6502 114.439 49.5197C115.477 49.3822 116.541 49.5769 117.463 50.0677C119.175 50.9793 119.625 52.4125 119.719 52.8009L113.89 54.2197L108.06 55.6386C108.421 57.1215 109.407 59.3738 111.823 60.6602C114.689 62.1856 117.598 61.3627 119.436 60.0209L115.898 55.1748ZM113.89 54.2197L119.712 52.7696C119.593 52.294 118.68 48.6347 117.761 44.8987C117.301 43.0296 116.841 41.1502 116.48 39.6445C116.299 38.8906 116.145 38.241 116.029 37.7378C115.971 37.4859 115.924 37.2805 115.889 37.1227C115.851 36.9487 115.839 36.8843 115.84 36.8901L109.939 37.9785L104.039 39.0669C104.373 40.8785 107.881 54.92 108.068 55.6699L113.89 54.2197ZM145.615 29.8193L150.336 33.5227C150.154 33.755 149.546 34.4267 148.384 34.7871C147.121 35.1783 145.857 34.9973 144.882 34.523C144.006 34.0966 143.493 33.5099 143.221 33.1056C142.94 32.688 142.742 32.2125 142.651 31.6777L148.564 30.6641L154.478 29.6504C154.125 27.5905 152.811 25.0361 150.133 23.7329C148.615 22.9941 146.737 22.7342 144.831 23.3249C143.025 23.8848 141.743 25.0345 140.895 26.116L145.615 29.8193ZM148.564 30.6641L142.651 31.6774C142.876 32.9921 145.217 46.78 145.357 47.6986L151.288 46.7949L157.22 45.8913C157.058 44.8297 154.689 30.8794 154.478 29.6507L148.564 30.6641ZM151.288 46.7949L145.349 47.6484C145.284 47.1945 145.211 45.8994 146.197 44.5464C147.397 42.8976 149.157 42.5141 150.18 42.5766L149.813 48.5654L149.447 54.5542C151.651 54.689 154.219 53.9151 155.897 51.6105C157.36 49.6016 157.435 47.3851 157.227 45.9414L151.288 46.7949ZM149.813 48.5654L150.169 42.576C150.3 42.5837 149.895 42.5387 148.686 42.3607C147.669 42.211 146.36 42.0104 145.021 41.7993C143.682 41.5881 142.328 41.3688 141.221 41.1819C140.667 41.0882 140.186 41.0047 139.806 40.9356C139.616 40.901 139.46 40.8718 139.338 40.8479C139.278 40.8361 139.23 40.8265 139.194 40.819C139.157 40.8113 139.141 40.8077 139.142 40.8078L137.806 46.6572L136.47 52.5066C137.497 52.7413 140.555 53.2434 143.152 53.6528C145.628 54.0432 148.672 54.5082 149.458 54.5549L149.813 48.5654ZM137.806 46.6572L139.142 40.808C139.5 40.8898 141.368 41.4922 142.114 43.7517C142.428 44.7037 142.367 45.513 142.271 45.9891C142.179 46.449 142.036 46.7077 142.017 46.7414L136.774 43.8242L131.531 40.907C130.818 42.1887 129.782 44.6754 130.719 47.5145C131.788 50.7518 134.561 52.0705 136.469 52.5065L137.806 46.6572ZM136.774 43.8242L142.018 46.7411C142.013 46.7501 142.039 46.7032 142.12 46.5663C142.192 46.4439 142.289 46.2827 142.408 46.0843C142.647 45.6885 142.962 45.1687 143.334 44.561C144.077 43.3466 145.029 41.8035 146.005 40.2401C146.983 38.6739 147.973 37.1036 148.796 35.8292C149.208 35.1908 149.566 34.6436 149.854 34.2162C149.998 34.0026 150.115 33.8317 150.207 33.7016C150.306 33.5607 150.344 33.5119 150.336 33.5225L145.615 29.8193L140.894 26.1161C139.974 27.2899 137.687 30.9032 135.825 33.8867C133.892 36.9839 131.916 40.2155 131.531 40.9074L136.774 43.8242Z" fill="white" mask="url(#path-1-outside-1_1347_11136)"/>
<path d="M116.582 61.0677C108.759 71.0213 108.896 88.7029 118.894 97.468C130.245 107.414 146.221 107.31 156.267 98.1619C168.311 87.1876 167.619 68.9237 156.968 58.5794C146.261 48.1793 127.127 47.637 116.582 61.0677Z" fill="#FCC11A"/>
<path d="M142.982 71.9624C142.802 74.4766 139.591 78.1714 137.035 77.9938C134.48 77.8162 131.828 73.7175 132.009 71.1997C132.189 68.6854 134.009 66.7597 137.825 67.0243C141.641 67.289 143.166 69.4446 142.986 71.9624H142.982Z" fill="#FFEFC1"/>
<path d="M123.5 73C126.538 73 129 70.5376 129 67.5C129 64.4624 126.538 62 123.5 62C120.462 62 118 64.4624 118 67.5C118 70.5376 120.462 73 123.5 73Z" fill="white"/>
<path d="M123.415 70.8369C125.236 70.8369 126.712 69.3606 126.712 67.5395C126.712 65.7185 125.236 64.2422 123.415 64.2422C121.593 64.2422 120.117 65.7185 120.117 67.5395C120.117 69.3606 121.593 70.8369 123.415 70.8369Z" fill="black"/>
<path d="M152.5 73C155.538 73 158 70.5376 158 67.5C158 64.4624 155.538 62 152.5 62C149.462 62 147 64.4624 147 67.5C147 70.5376 149.462 73 152.5 73Z" fill="white"/>
<path d="M152.415 70.8369C154.236 70.8369 155.712 69.3606 155.712 67.5395C155.712 65.7185 154.236 64.2422 152.415 64.2422C150.593 64.2422 149.117 65.7185 149.117 67.5395C149.117 69.3606 150.593 70.8369 152.415 70.8369Z" fill="black"/>
<path d="M136.775 43.8245C135.995 45.2251 136.255 46.3036 137.805 46.6579C139.355 47.012 149 48.5172 149.813 48.5655C150.994 48.6379 151.43 47.7847 151.288 46.7947C151.137 45.8046 148.782 31.9361 148.564 30.6644C148.347 29.3927 146.947 28.1208 145.615 29.8192C144.283 31.5176 137.361 42.7701 136.775 43.8245Z" fill="#FFA722"/>
<path d="M161.673 52.9815C160.244 53.473 160.284 54.4472 161.049 55.6846C161.815 56.9221 167.09 65.8651 167.571 66.4882C168.061 67.1025 168.89 67.2605 169.585 66.3302C170.279 65.4087 178.949 51.8933 179.581 51.0507C180.623 49.6641 179.999 48.1984 178.404 48.6548C177.188 49.0147 162.573 52.6744 161.673 52.9815Z" fill="#FFA722"/>
<path d="M172.213 76.5555C171.178 75.9037 169.832 76.0886 169.481 77.5596C169.131 79.0306 167.594 89.7155 167.451 90.6491C167.307 91.5827 167.944 92.5077 168.988 92.2787C170.031 92.0498 184.476 89.6802 185.44 89.416C187.12 88.9491 187.677 87.0905 185.933 85.6987C184.803 84.7915 173.192 77.1721 172.213 76.5555Z" fill="#FFA722"/>
<path d="M160.607 99.4804C161.822 98.8845 162.897 99.3374 163.201 100.601C163.504 101.856 166.861 114.711 167.399 117.086C167.667 118.278 166.176 119.255 164.961 118.556C163.738 117.857 150.486 109.396 149.636 108.704C148.413 107.727 149.263 106.71 149.861 106.194C151.075 105.137 159.462 100.044 160.607 99.4804Z" fill="#FFA722"/>
<path d="M125.509 106.139C123.963 105.992 123.509 107.358 123.745 108.568C123.972 109.787 126.278 125.202 126.435 126.352C126.662 128.021 128.434 128.713 129.578 127.035C130.722 125.358 138.616 112.856 139.254 111.681C140.407 109.554 139.56 109.096 138.407 108.568C137.263 108.041 127.125 106.294 125.509 106.139Z" fill="#FFA722"/>
<path d="M106.903 90.9866C107.882 89.4522 109.139 89.8547 110.053 91.3208C110.674 92.3234 115.924 99.0688 116.417 99.798C116.91 100.535 117.117 101.933 115.582 102.267C114.03 102.609 101.518 105.746 99.5615 106.08C97.6048 106.414 96.4832 104.948 97.74 103.345C98.4718 102.404 106.347 91.8601 106.903 90.9866Z" fill="#FFA722"/>
<path d="M102.522 79.1886C104.315 80.019 105.16 79.72 105.534 78.3831C106.028 76.631 107.495 68.6012 107.567 66.7744C107.614 65.5869 107.144 64.4411 105.391 64.7317C103.637 65.0223 91.0294 66.8575 89.4195 67.4387C87.5466 68.1196 87.6821 70.2619 88.9254 70.9429C90.3998 71.7483 101.255 78.6073 102.522 79.1886Z" fill="#FFA722"/>
<path d="M125.387 48.5599C126.354 47.7758 126.057 46.6501 125.189 46.0367C124.322 45.4234 113.577 37.4968 112.215 36.4098C111.013 35.4549 109.537 35.7965 109.94 37.9781C110.229 39.5463 113.653 53.2724 113.889 54.2196C114.156 55.3143 114.962 55.8577 115.898 55.1745C116.819 54.4991 124.383 49.3828 125.387 48.5599Z" fill="#FFA722"/>
<path d="M174.802 146.48C174.803 141.52 173.356 136.667 170.641 132.516C167.926 128.365 164.059 125.095 159.514 123.108C160.154 120.731 160.477 118.281 160.478 115.82C160.478 112.056 159.735 108.329 158.292 104.853C156.849 101.376 154.734 98.2189 152.069 95.5613C149.404 92.9037 146.24 90.7982 142.759 89.3655C139.279 87.9327 135.55 87.2009 131.786 87.2119C128.078 87.1997 124.404 87.9259 120.979 89.3481C119.156 78.841 113.461 69.3987 105.019 62.8834C96.5763 56.3681 85.9989 53.2528 75.3728 54.1519C64.7466 55.051 54.8431 59.8992 47.6154 67.7404C40.3877 75.5816 36.3606 85.8465 36.3282 96.5105V99.4425C28.2273 102.783 21.5428 108.84 17.4241 116.574C13.3053 124.309 12.0095 133.236 13.7594 141.822C15.5093 150.408 20.1957 158.116 27.0128 163.622C33.8299 169.127 42.3519 172.085 51.1139 171.989H149.42C156.163 171.955 162.619 169.253 167.376 164.473C172.132 159.693 174.803 153.224 174.802 146.48Z" fill="#F0F0F0"/>
<path d="M149.421 154.019H51.1152C42.6722 154.015 34.475 151.176 27.8372 145.959C21.1993 140.741 16.5052 133.446 14.5071 125.243C13.1339 130.797 13.043 136.591 14.2414 142.186C15.4397 147.781 17.8959 153.029 21.4236 157.534C24.9513 162.038 29.4581 165.681 34.6025 168.185C39.7468 170.689 45.3937 171.99 51.1152 171.988H149.421C153.537 171.969 157.588 170.954 161.227 169.03C164.866 167.106 167.985 164.33 170.318 160.939C172.652 157.548 174.13 153.643 174.627 149.557C175.123 145.471 174.623 141.325 173.17 137.474C171.349 142.31 168.104 146.48 163.864 149.433C159.624 152.387 154.588 153.986 149.421 154.019Z" fill="#D9D9D9"/>
<path d="M119.257 92C114.232 94.5983 109.987 98.4839 106.955 103.26C103.923 108.036 102.213 113.531 102 119.184" stroke="#D9D9D9" stroke-width="3.14143" stroke-linecap="round" stroke-linejoin="round"/>
</svg>
