<svg width="200" height="200" viewBox="0 0 200 200" fill="none" xmlns="http://www.w3.org/2000/svg">
<mask id="path-1-outside-1_1062_19117" maskUnits="userSpaceOnUse" x="24.1201" y="27.1638" width="152" height="152" fill="black">
<rect fill="white" x="24.1201" y="27.1638" width="152" height="152"/>
<path d="M84.0215 34.7842C105.809 30.4268 118 50.0886 121.372 60.4639C133.822 57.351 142.988 57.5242 152.499 65.1329C160.281 71.3581 164.949 90.0337 156.39 100.928C168.84 106.375 175.065 125.828 164.949 143.726C154.833 161.623 125.264 158.51 113.592 151.507C108.923 160.845 99.5848 174.852 72.3496 172.518C45.1148 170.183 44.337 137.501 52.8965 123.494C43.5587 121.16 33.4424 118.825 30.3291 100.149C27.2166 69.0242 59.8969 72.136 59.8985 69.8018C59.8985 67.4674 56.7863 40.2313 84.0215 34.7842Z"/>
</mask>
<path d="M84.0215 34.7842C105.809 30.4268 118 50.0886 121.372 60.4639C133.822 57.351 142.988 57.5242 152.499 65.1329C160.281 71.3581 164.949 90.0337 156.39 100.928C168.84 106.375 175.065 125.828 164.949 143.726C154.833 161.623 125.264 158.51 113.592 151.507C108.923 160.845 99.5848 174.852 72.3496 172.518C45.1148 170.183 44.337 137.501 52.8965 123.494C43.5587 121.16 33.4424 118.825 30.3291 100.149C27.2166 69.0242 59.8969 72.136 59.8985 69.8018C59.8985 67.4674 56.7863 40.2313 84.0215 34.7842Z" fill="#F5DB74"/>
<path d="M84.0215 34.7842L82.8449 28.9007L82.8448 28.9008L84.0215 34.7842ZM121.372 60.4639L115.666 62.3184L117.396 67.6428L122.828 66.2847L121.372 60.4639ZM152.499 65.1329L156.247 60.4477L156.247 60.4476L152.499 65.1329ZM156.39 100.928L151.672 97.2209L146.882 103.317L153.985 106.425L156.39 100.928ZM164.949 143.726L170.173 146.678L170.173 146.678L164.949 143.726ZM113.592 151.507L116.679 146.362L111.123 143.028L108.225 148.824L113.592 151.507ZM72.3496 172.518L71.8372 178.496L71.8372 178.496L72.3496 172.518ZM52.8965 123.494L58.0162 126.623L62.2749 119.654L54.3517 117.673L52.8965 123.494ZM30.3291 100.149L24.3589 100.746L24.3785 100.942L24.4108 101.136L30.3291 100.149ZM59.8985 69.8018L65.8985 69.8057V69.8018H59.8985ZM84.0215 34.7842L85.1982 40.6677C93.846 38.9382 100.466 41.8702 105.552 46.5254C110.82 51.3469 114.226 57.8875 115.666 62.3184L121.372 60.4639L127.078 58.6094C125.146 52.6651 120.771 44.1871 113.654 37.6732C106.355 30.9931 95.985 26.2728 82.8449 28.9007L84.0215 34.7842ZM121.372 60.4639L122.828 66.2847C128.756 64.8022 133.339 64.2564 137.322 64.7349C141.15 65.195 144.787 66.6471 148.751 69.8181L152.499 65.1329L156.247 60.4476C150.7 56.01 144.998 53.5711 138.753 52.8206C132.662 52.0887 126.437 53.0127 119.917 54.6431L121.372 60.4639ZM152.499 65.1329L148.751 69.8181C151.088 71.6882 153.718 76.3111 154.645 82.2109C155.553 87.9909 154.59 93.5069 151.672 97.2209L156.39 100.928L161.108 104.635C166.749 97.4546 167.731 88.1857 166.5 80.3481C165.287 72.6302 161.691 64.8028 156.247 60.4477L152.499 65.1329ZM156.39 100.928L153.985 106.425C162.247 110.039 168.634 125.013 159.726 140.773L164.949 143.726L170.173 146.678C181.496 126.644 175.433 102.71 158.795 95.4308L156.39 100.928ZM164.949 143.726L159.726 140.773C156.103 147.183 148.652 150.437 139.509 150.964C130.363 151.492 121.298 149.134 116.679 146.362L113.592 151.507L110.505 156.652C117.557 160.883 129.113 163.584 140.2 162.944C151.288 162.304 163.68 158.165 170.173 146.678L164.949 143.726ZM113.592 151.507L108.225 148.824C106.061 153.152 103.115 157.927 98.0178 161.456C93.0289 164.91 85.3319 167.608 72.862 166.54L72.3496 172.518L71.8372 178.496C86.6026 179.761 97.1923 176.623 104.848 171.322C112.396 166.097 116.453 159.2 118.958 154.19L113.592 151.507ZM72.3496 172.518L72.8621 166.54C67.3183 166.064 63.477 164.106 60.7676 161.51C57.9943 158.853 56.0808 155.208 55.0243 150.941C52.8496 142.158 54.6379 132.151 58.0162 126.623L52.8965 123.494L47.7768 120.366C42.5956 128.844 40.4929 142.181 43.376 153.825C44.8483 159.771 47.7009 165.61 52.4658 170.175C57.2945 174.801 63.7635 177.804 71.8372 178.496L72.3496 172.518ZM52.8965 123.494L54.3517 117.673C49.4413 116.446 45.8913 115.515 42.9855 113.232C40.3706 111.177 37.6273 107.44 36.2475 99.1629L30.3291 100.149L24.4108 101.136C26.1443 111.534 30.0158 118.302 35.5718 122.668C40.8369 126.804 47.0139 128.208 51.4413 129.315L52.8965 123.494ZM30.3291 100.149L36.2993 99.5524C35.6278 92.8373 36.9286 88.6033 38.6962 85.829C40.4978 83.0014 43.1871 81.0602 46.3511 79.6759C49.5528 78.275 52.9529 77.5681 55.865 77.0632C57.1469 76.8409 58.7348 76.5957 59.8129 76.3539C60.3258 76.2389 61.2245 76.0226 62.0998 75.6081C62.5356 75.4017 63.3411 74.9754 64.1056 74.1895C64.9543 73.3169 65.8971 71.8247 65.8985 69.8057L59.8985 69.8018L53.8985 69.7979C53.8997 67.9248 54.7786 66.5679 55.5038 65.8223C56.1447 65.1634 56.767 64.8559 56.964 64.7626C57.3621 64.5741 57.5615 64.5607 57.1867 64.6448C56.4895 64.8012 55.5483 64.939 53.8148 65.2396C50.6962 65.7803 46.1204 66.6785 41.541 68.6821C36.9238 70.7023 32.0265 73.965 28.5758 79.3809C25.0912 84.8501 23.4742 91.899 24.3589 100.746L30.3291 100.149ZM59.8985 69.8018H65.8985C65.8985 67.9936 65.2092 61.9641 67.4317 55.3789C69.4868 49.2898 74.0136 42.9046 85.1982 40.6677L84.0215 34.7842L82.8448 28.9008C66.7942 32.1109 59.2595 42.0673 56.0618 51.5416C54.5153 56.1237 53.994 60.51 53.8438 63.8412C53.7104 66.7997 53.8985 70.1081 53.8985 69.8018H59.8985Z" fill="white" mask="url(#path-1-outside-1_1062_19117)"/>
<path d="M84.0212 34.7848C105.809 30.4272 118 50.0884 121.372 60.4637C133.822 57.3508 142.988 57.5242 152.499 65.133C160.281 71.3582 164.95 90.0337 156.39 100.928C168.84 106.375 175.066 125.829 164.95 143.726C154.834 161.623 125.264 158.511 113.592 151.507C108.923 160.845 99.5851 174.852 72.3499 172.518C45.1147 170.183 44.3365 137.501 52.8962 123.494C43.5584 121.16 33.4424 118.825 30.3291 100.15C27.2165 69.0237 59.8986 72.1363 59.8986 69.8019C59.8986 67.4674 56.786 40.2318 84.0212 34.7848Z" fill="#4B9AE8"/>
<path d="M120.42 102.201C120.42 111.287 112.566 116.94 103.209 116.94C93.8508 116.94 87.356 113.631 85.3081 103.571C83.409 94.246 88.8491 85.9778 101.143 84.8549C110.5 84.0002 120.42 93.1155 120.42 102.201Z" fill="#F5DB74"/>
</svg>
