<svg width="200" height="200" viewBox="0 0 200 200" fill="none" xmlns="http://www.w3.org/2000/svg">
<mask id="path-1-outside-1_1062_20677" maskUnits="userSpaceOnUse" x="37" y="5.99988" width="125" height="189" fill="black">
<rect fill="white" x="37" y="5.99988" width="125" height="189"/>
<path d="M46.6164 12.1937C49.1816 11.4671 50.9758 12.8613 51.5246 15.0707C52.1176 17.458 51.3165 19.3558 51.3165 19.3558C51.3165 19.3558 54.816 28.4736 55.3947 28.6381C55.897 28.7857 56.2224 21.2348 56.2248 21.1801C56.2248 21.1801 55.4983 19.7414 55.8097 18.0512C56.0617 16.672 57.1593 15.1742 59.2501 15.3373C61.1037 15.4708 62.0078 17.1615 62.0226 18.6888C62.0374 20.394 61.0294 21.9213 61.0294 21.9213C61.0274 21.9446 60.718 25.4242 60.7179 26.6215C60.7179 27.8225 59.7688 35.2815 60.2433 36.1713C60.4805 36.6013 61.489 38.9885 61.9191 39.5668C62.3491 40.145 63.4914 42.2806 63.4914 42.2806L63.6984 33.7689C63.6918 33.758 62.8543 32.3541 63.0167 30.7885C63.165 29.2167 64.3213 27.4523 66.3527 27.556C68.5027 27.6598 69.4669 29.498 69.3781 31.307C69.304 32.9084 68.2804 34.4955 68.2804 34.4955C68.2801 34.5127 68.2208 37.5254 68.2208 39.2406C68.2208 41.3166 68.2804 46.6996 68.2804 46.6996L71.3351 51.9633L71.0373 52.1713C72.669 51.2932 74.8024 50.3887 76.9874 50.1547C79.5783 49.8786 81.6818 50.4512 83.2785 51.2416C84.2734 48.7774 86.2158 43.8469 86.7599 41.5834C87.3234 39.1961 87.3822 34.9103 87.4415 32.3451C87.4563 31.3814 86.819 30.5658 86.8634 29.0092C86.9228 27.2446 87.8872 25.4799 90.2003 25.4056C92.3502 25.3467 93.5956 26.8743 93.6994 28.5941C93.8031 30.3732 92.9726 31.3073 92.9132 32.3451C92.7501 35.1179 92.4386 40.5902 92.4386 40.5902C92.4386 40.5902 96.665 36.6315 97.1398 35.4301C97.6142 34.2289 97.6583 28.1794 97.6583 26.9779V24.101C97.6496 24.0885 96.4276 22.3457 96.4572 20.809C96.472 19.5782 97.3916 17.7247 99.4376 17.6801C101.647 17.6209 102.581 19.0746 102.73 20.6019C102.863 22.1291 102.107 23.5228 102.107 23.5228L101.9 29.9437C101.9 29.9437 104.243 26.8589 105.192 25.5541C106.121 24.2562 107.167 22.1809 107.178 22.1586C107.175 22.1485 106.645 20.4184 106.866 18.7181C107.074 17.176 108.113 15.4854 110.263 15.4262C112.353 15.3818 113.495 16.9982 113.495 18.7181C113.495 21.3279 111.923 23.1078 111.923 23.1078C111.893 23.1665 108.056 30.6849 105.087 34.5844C102.922 37.4313 101.439 39.5374 100.49 40.1156C100.338 40.2102 100.051 40.3798 99.6662 40.6127C101.709 39.463 103.792 38.5306 105.591 38.0248C110.81 36.5569 119.262 36.972 119.886 38.4398C120.509 39.9078 119.366 40.4274 118.002 43.141C116.638 45.8549 112.575 56.6054 107.979 61.7211C103.382 66.8219 95.8634 68.1859 95.8634 68.1859C95.8631 68.2116 95.8324 70.8078 95.5226 73.3012C95.2113 75.807 94.0989 78.2092 91.9044 81.8568C89.7098 85.5046 88.3606 89.2569 89.3986 91.14C90.4367 93.0231 94.4112 92.1775 100.876 90.932C107.297 89.6864 119.559 84.556 129.687 86.4388C139.814 88.3221 143.255 97.6049 143.255 97.6049C143.285 97.5976 146.332 96.8697 147.852 95.2025C148.756 94.2087 150.98 89.9834 152.552 90.1908C152.569 90.193 152.585 90.1967 152.602 90.2006C154.814 89.6912 155.881 95.1882 154.611 100.496C153.23 106.252 148.203 107.411 146.023 107.643C146.1 109.166 146.176 111.363 146.176 114.094C146.176 119.625 145.034 124.325 146.279 130.582C147.525 136.84 151.603 141.748 152.434 143.839C153.264 145.93 152.078 148.673 151.87 156.71C151.648 164.747 153.19 180.51 152.211 184.335C151.662 186.485 150.135 187.938 146.71 188.294C143.403 188.635 140.512 188.191 139.474 186.412C138.436 184.632 142.083 179.723 142.395 178.893C142.706 178.062 142.81 175.127 142.81 171.272C142.81 167.417 142.394 153.523 142.083 149.667C141.772 145.797 133.632 134.943 131.333 132.125C129.035 129.308 124.438 123.154 124.438 123.154C124.438 123.154 123.12 124.503 120.797 126.244C120.441 130.544 120.429 136.3 122.333 139.658C123.771 142.178 127.76 145.5 127.553 148.006C127.345 150.512 126.1 152.944 125.567 156.665C124.721 162.522 123.683 169.921 123.476 171.805C123.268 173.688 123.001 178.76 122.052 180.362C120.806 182.482 112.533 182.348 111.065 180.257C109.596 178.166 111.391 175.617 113.007 172.562C114.89 169.018 117.01 155.525 116.595 151.135C116.18 146.746 113.14 144.254 110.857 140.696C109.635 138.792 107.812 135.338 106.379 132.538C102.639 133.003 99.6994 132.75 99.5265 133.178C99.1559 134.068 98.9631 135.996 98.548 137.671C98.1325 139.349 95.7305 152.307 95.4933 155.243C95.2114 158.654 93.0165 175.868 93.1203 178.374C93.224 180.88 93.6843 182.512 93.4025 184.81C93.18 186.574 90.926 187.45 87.6935 187.45C84.461 187.45 81.9255 186.545 81.6437 184.424C81.3175 181.963 84.3866 178.849 84.6984 177.707C85.0246 176.551 86.6552 162.078 87.0705 156.132C87.4856 150.186 88.3602 139.821 88.464 136.351C88.5678 132.911 88.3904 131.473 87.3527 131.339C86.5966 131.235 86.0325 133.148 85.5431 137.255C85.128 140.799 83.9275 148.407 83.3195 154.516C82.6968 160.877 80.1903 175.942 80.2941 177.826C80.3979 179.709 80.9758 183.164 78.8703 183.817C77.8611 184.128 73.5614 184.572 70.6408 183.89C66.7561 182.985 69.025 179.62 70.2707 178.048C71.5161 176.476 72.7767 173.97 73.8146 168.647C74.8674 163.323 76.0087 152.366 76.1124 146.316C76.2162 140.251 75.8009 128.774 75.8009 128.774C75.7724 128.738 71.2133 123.026 69.3361 119.907C67.4528 116.778 65.2583 110.624 64.7394 100.496C64.222 90.4164 68.138 85.5366 68.839 82.4066C66.0437 82.4765 61.7962 82.5797 58.3634 82.6429C55.0494 82.704 53.4639 81.9035 52.5089 80.9349C50.6787 80.4403 51.1439 79.5511 51.1554 79.5297C51.1554 79.5297 49.2875 78.8468 48.7091 75.2435C48.131 71.6406 49.0201 69.4461 49.6427 68.6156C49.843 68.3548 50.1123 68.2107 50.4152 68.1527C51.3273 67.4393 53.1544 67.1913 54.4337 66.851C55.727 66.5094 57.3417 65.8355 57.8732 65.6078C57.8336 65.6024 57.7942 65.5963 57.755 65.5912C60.0362 64.3913 61.6074 61.6816 61.6105 61.6762C61.5893 61.6533 56.3852 56.0188 53.3664 52.0678C50.3414 48.1086 44.1729 39.9679 45.6408 37.9808C46.8085 36.3961 52.5713 38.374 56.8449 40.8353C56.4477 40.2849 53.657 36.3744 51.7326 32.5531C49.6641 28.4455 46.6971 20.9222 46.6759 20.8685C46.6759 20.8685 45.1334 19.6229 44.3771 17.725C43.532 15.6342 44.0363 12.9351 46.6164 12.1937Z"/>
</mask>
<path d="M46.6164 12.1937C49.1816 11.4671 50.9758 12.8613 51.5246 15.0707C52.1176 17.458 51.3165 19.3558 51.3165 19.3558C51.3165 19.3558 54.816 28.4736 55.3947 28.6381C55.897 28.7857 56.2224 21.2348 56.2248 21.1801C56.2248 21.1801 55.4983 19.7414 55.8097 18.0512C56.0617 16.672 57.1593 15.1742 59.2501 15.3373C61.1037 15.4708 62.0078 17.1615 62.0226 18.6888C62.0374 20.394 61.0294 21.9213 61.0294 21.9213C61.0274 21.9446 60.718 25.4242 60.7179 26.6215C60.7179 27.8225 59.7688 35.2815 60.2433 36.1713C60.4805 36.6013 61.489 38.9885 61.9191 39.5668C62.3491 40.145 63.4914 42.2806 63.4914 42.2806L63.6984 33.7689C63.6918 33.758 62.8543 32.3541 63.0167 30.7885C63.165 29.2167 64.3213 27.4523 66.3527 27.556C68.5027 27.6598 69.4669 29.498 69.3781 31.307C69.304 32.9084 68.2804 34.4955 68.2804 34.4955C68.2801 34.5127 68.2208 37.5254 68.2208 39.2406C68.2208 41.3166 68.2804 46.6996 68.2804 46.6996L71.3351 51.9633L71.0373 52.1713C72.669 51.2932 74.8024 50.3887 76.9874 50.1547C79.5783 49.8786 81.6818 50.4512 83.2785 51.2416C84.2734 48.7774 86.2158 43.8469 86.7599 41.5834C87.3234 39.1961 87.3822 34.9103 87.4415 32.3451C87.4563 31.3814 86.819 30.5658 86.8634 29.0092C86.9228 27.2446 87.8872 25.4799 90.2003 25.4056C92.3502 25.3467 93.5956 26.8743 93.6994 28.5941C93.8031 30.3732 92.9726 31.3073 92.9132 32.3451C92.7501 35.1179 92.4386 40.5902 92.4386 40.5902C92.4386 40.5902 96.665 36.6315 97.1398 35.4301C97.6142 34.2289 97.6583 28.1794 97.6583 26.9779V24.101C97.6496 24.0885 96.4276 22.3457 96.4572 20.809C96.472 19.5782 97.3916 17.7247 99.4376 17.6801C101.647 17.6209 102.581 19.0746 102.73 20.6019C102.863 22.1291 102.107 23.5228 102.107 23.5228L101.9 29.9437C101.9 29.9437 104.243 26.8589 105.192 25.5541C106.121 24.2562 107.167 22.1809 107.178 22.1586C107.175 22.1485 106.645 20.4184 106.866 18.7181C107.074 17.176 108.113 15.4854 110.263 15.4262C112.353 15.3818 113.495 16.9982 113.495 18.7181C113.495 21.3279 111.923 23.1078 111.923 23.1078C111.893 23.1665 108.056 30.6849 105.087 34.5844C102.922 37.4313 101.439 39.5374 100.49 40.1156C100.338 40.2102 100.051 40.3798 99.6662 40.6127C101.709 39.463 103.792 38.5306 105.591 38.0248C110.81 36.5569 119.262 36.972 119.886 38.4398C120.509 39.9078 119.366 40.4274 118.002 43.141C116.638 45.8549 112.575 56.6054 107.979 61.7211C103.382 66.8219 95.8634 68.1859 95.8634 68.1859C95.8631 68.2116 95.8324 70.8078 95.5226 73.3012C95.2113 75.807 94.0989 78.2092 91.9044 81.8568C89.7098 85.5046 88.3606 89.2569 89.3986 91.14C90.4367 93.0231 94.4112 92.1775 100.876 90.932C107.297 89.6864 119.559 84.556 129.687 86.4388C139.814 88.3221 143.255 97.6049 143.255 97.6049C143.285 97.5976 146.332 96.8697 147.852 95.2025C148.756 94.2087 150.98 89.9834 152.552 90.1908C152.569 90.193 152.585 90.1967 152.602 90.2006C154.814 89.6912 155.881 95.1882 154.611 100.496C153.23 106.252 148.203 107.411 146.023 107.643C146.1 109.166 146.176 111.363 146.176 114.094C146.176 119.625 145.034 124.325 146.279 130.582C147.525 136.84 151.603 141.748 152.434 143.839C153.264 145.93 152.078 148.673 151.87 156.71C151.648 164.747 153.19 180.51 152.211 184.335C151.662 186.485 150.135 187.938 146.71 188.294C143.403 188.635 140.512 188.191 139.474 186.412C138.436 184.632 142.083 179.723 142.395 178.893C142.706 178.062 142.81 175.127 142.81 171.272C142.81 167.417 142.394 153.523 142.083 149.667C141.772 145.797 133.632 134.943 131.333 132.125C129.035 129.308 124.438 123.154 124.438 123.154C124.438 123.154 123.12 124.503 120.797 126.244C120.441 130.544 120.429 136.3 122.333 139.658C123.771 142.178 127.76 145.5 127.553 148.006C127.345 150.512 126.1 152.944 125.567 156.665C124.721 162.522 123.683 169.921 123.476 171.805C123.268 173.688 123.001 178.76 122.052 180.362C120.806 182.482 112.533 182.348 111.065 180.257C109.596 178.166 111.391 175.617 113.007 172.562C114.89 169.018 117.01 155.525 116.595 151.135C116.18 146.746 113.14 144.254 110.857 140.696C109.635 138.792 107.812 135.338 106.379 132.538C102.639 133.003 99.6994 132.75 99.5265 133.178C99.1559 134.068 98.9631 135.996 98.548 137.671C98.1325 139.349 95.7305 152.307 95.4933 155.243C95.2114 158.654 93.0165 175.868 93.1203 178.374C93.224 180.88 93.6843 182.512 93.4025 184.81C93.18 186.574 90.926 187.45 87.6935 187.45C84.461 187.45 81.9255 186.545 81.6437 184.424C81.3175 181.963 84.3866 178.849 84.6984 177.707C85.0246 176.551 86.6552 162.078 87.0705 156.132C87.4856 150.186 88.3602 139.821 88.464 136.351C88.5678 132.911 88.3904 131.473 87.3527 131.339C86.5966 131.235 86.0325 133.148 85.5431 137.255C85.128 140.799 83.9275 148.407 83.3195 154.516C82.6968 160.877 80.1903 175.942 80.2941 177.826C80.3979 179.709 80.9758 183.164 78.8703 183.817C77.8611 184.128 73.5614 184.572 70.6408 183.89C66.7561 182.985 69.025 179.62 70.2707 178.048C71.5161 176.476 72.7767 173.97 73.8146 168.647C74.8674 163.323 76.0087 152.366 76.1124 146.316C76.2162 140.251 75.8009 128.774 75.8009 128.774C75.7724 128.738 71.2133 123.026 69.3361 119.907C67.4528 116.778 65.2583 110.624 64.7394 100.496C64.222 90.4164 68.138 85.5366 68.839 82.4066C66.0437 82.4765 61.7962 82.5797 58.3634 82.6429C55.0494 82.704 53.4639 81.9035 52.5089 80.9349C50.6787 80.4403 51.1439 79.5511 51.1554 79.5297C51.1554 79.5297 49.2875 78.8468 48.7091 75.2435C48.131 71.6406 49.0201 69.4461 49.6427 68.6156C49.843 68.3548 50.1123 68.2107 50.4152 68.1527C51.3273 67.4393 53.1544 67.1913 54.4337 66.851C55.727 66.5094 57.3417 65.8355 57.8732 65.6078C57.8336 65.6024 57.7942 65.5963 57.755 65.5912C60.0362 64.3913 61.6074 61.6816 61.6105 61.6762C61.5893 61.6533 56.3852 56.0188 53.3664 52.0678C50.3414 48.1086 44.1729 39.9679 45.6408 37.9808C46.8085 36.3961 52.5713 38.374 56.8449 40.8353C56.4477 40.2849 53.657 36.3744 51.7326 32.5531C49.6641 28.4455 46.6971 20.9222 46.6759 20.8685C46.6759 20.8685 45.1334 19.6229 44.3771 17.725C43.532 15.6342 44.0363 12.9351 46.6164 12.1937Z" fill="#EAC00F"/>
<path d="M46.6164 12.1937L44.9812 6.42084C44.9739 6.42291 44.9666 6.425 44.9593 6.4271L46.6164 12.1937ZM51.5246 15.0707L45.7015 16.5169L45.7015 16.5173L51.5246 15.0707ZM51.3165 19.3558L45.7888 17.0226C45.1858 18.4513 45.1593 20.058 45.715 21.5058L51.3165 19.3558ZM55.3947 28.6381L57.0871 22.8817C57.0699 22.8766 57.0526 22.8717 57.0354 22.8667L55.3947 28.6381ZM56.2248 21.1801L62.2192 21.4379C62.2633 20.4121 62.0435 19.3922 61.5807 18.4757L56.2248 21.1801ZM55.8097 18.0512L61.7104 19.1383L61.712 19.1297L55.8097 18.0512ZM59.2501 15.3373L58.7834 21.3191C58.7954 21.32 58.8073 21.3209 58.8192 21.3218L59.2501 15.3373ZM62.0226 18.6888L68.0224 18.6367L68.0223 18.6308L62.0226 18.6888ZM61.0294 21.9213L56.0217 18.6163C55.474 19.4463 55.1411 20.3994 55.053 21.3899L61.0294 21.9213ZM60.7179 26.6215L54.7179 26.6213V26.6215H60.7179ZM60.2433 36.1713L54.9491 38.9945C54.9624 39.0196 54.976 39.0446 54.9897 39.0695L60.2433 36.1713ZM61.9191 39.5668L57.1044 43.1471L57.1045 43.1473L61.9191 39.5668ZM63.4914 42.2806L58.2006 45.1104C59.4856 47.5131 62.2283 48.7482 64.8791 48.1179C67.53 47.4877 69.4233 45.1505 69.4896 42.4265L63.4914 42.2806ZM63.6984 33.7689L69.6966 33.9148C69.7242 32.7805 69.4296 31.6617 68.847 30.6881L63.6984 33.7689ZM63.0167 30.7885L68.9847 31.4078C68.9866 31.3891 68.9885 31.3704 68.9902 31.3518L63.0167 30.7885ZM66.3527 27.556L66.0467 33.5482C66.0523 33.5485 66.0579 33.5488 66.0634 33.5491L66.3527 27.556ZM69.3781 31.307L63.3853 31.0127C63.385 31.0184 63.3847 31.024 63.3845 31.0296L69.3781 31.307ZM68.2804 34.4955L63.2381 31.2435C62.6346 32.1793 62.3034 33.2646 62.2816 34.3779L68.2804 34.4955ZM68.2208 39.2406L62.2208 39.2406L62.2208 39.2406L68.2208 39.2406ZM68.2804 46.6996L62.2808 46.766C62.2922 47.8012 62.5714 48.8158 63.091 49.7112L68.2804 46.6996ZM71.3351 51.9633L74.7705 56.8824C77.3276 55.0966 78.0901 51.6493 76.5245 48.9517L71.3351 51.9633ZM71.0373 52.1713L67.6019 47.2521C64.9958 49.0721 64.2614 52.6086 65.9272 55.3158C67.5931 58.0229 71.0812 58.9611 73.8803 57.4549L71.0373 52.1713ZM76.9874 50.1547L76.3516 44.1885L76.3484 44.1888L76.9874 50.1547ZM83.2785 51.2416L80.6167 56.6189C82.1137 57.3599 83.8518 57.4433 85.4129 56.8491C86.9739 56.2549 88.2167 55.0369 88.8421 53.488L83.2785 51.2416ZM86.7599 41.5834L92.5937 42.9856C92.5957 42.9777 92.5976 42.9697 92.5995 42.9617L86.7599 41.5834ZM87.4415 32.3451L93.4399 32.4839C93.4403 32.4681 93.4406 32.4524 93.4409 32.4367L87.4415 32.3451ZM86.8634 29.0092L80.8668 28.8074C80.8665 28.8176 80.8662 28.8278 80.8659 28.838L86.8634 29.0092ZM90.2003 25.4056L90.0359 19.4079C90.0265 19.4082 90.0172 19.4084 90.0078 19.4087L90.2003 25.4056ZM93.6994 28.5941L99.6892 28.245L99.6885 28.2327L93.6994 28.5941ZM92.9132 32.3451L98.9029 32.6975L98.9034 32.688L92.9132 32.3451ZM92.4386 40.5902L86.4483 40.2492C86.3089 42.6985 87.6745 44.9859 89.8967 46.0252C92.1189 47.0645 94.7499 46.6463 96.5403 44.9692L92.4386 40.5902ZM97.1398 35.4301L102.72 37.6353L102.72 37.6343L97.1398 35.4301ZM97.6583 26.9779L103.658 26.9779V26.9779H97.6583ZM97.6583 24.101H103.658C103.658 22.8668 103.278 21.6626 102.568 20.6526L97.6583 24.101ZM96.4572 20.809L102.456 20.9244C102.456 20.91 102.457 20.8956 102.457 20.8812L96.4572 20.809ZM99.4376 17.6801L99.5686 23.6786C99.5785 23.6784 99.5884 23.6782 99.5984 23.6779L99.4376 17.6801ZM102.73 20.6019L108.707 20.0803C108.705 20.061 108.703 20.0417 108.702 20.0224L102.73 20.6019ZM102.107 23.5228L96.833 20.6611C96.3875 21.4821 96.1398 22.3958 96.1097 23.3295L102.107 23.5228ZM101.9 29.9437L95.9027 29.7504C95.8185 32.3605 97.4323 34.7253 99.8935 35.5984C102.355 36.4716 105.098 35.6525 106.678 33.5729L101.9 29.9437ZM105.192 25.5541L110.044 29.083C110.053 29.0709 110.062 29.0588 110.07 29.0466L105.192 25.5541ZM107.178 22.1586L112.536 24.8587C113.233 23.476 113.368 21.8775 112.914 20.3973L107.178 22.1586ZM106.866 18.7181L100.92 17.917C100.919 17.9255 100.918 17.934 100.917 17.9424L106.866 18.7181ZM110.263 15.4262L110.136 9.4275C110.123 9.42777 110.11 9.42808 110.098 9.42843L110.263 15.4262ZM113.495 18.7181L119.495 18.7181L119.495 18.7177L113.495 18.7181ZM111.923 23.1078L107.426 19.1356C107.092 19.5136 106.807 19.9323 106.578 20.3816L111.923 23.1078ZM105.087 34.5844L100.313 30.9497L100.311 30.9525L105.087 34.5844ZM100.49 40.1156L97.3685 34.9917C97.3566 34.999 97.3446 35.0064 97.3327 35.0137L100.49 40.1156ZM99.6662 40.6127L96.5621 35.478C93.7574 37.1735 92.8321 40.8059 94.4839 43.6366C96.1357 46.4673 99.7533 47.4489 102.609 45.8413L99.6662 40.6127ZM105.591 38.0248L103.967 32.2489L103.966 32.2489L105.591 38.0248ZM119.886 38.4398L125.409 36.0964L125.408 36.0939L119.886 38.4398ZM118.002 43.141L112.641 40.4461L112.641 40.4461L118.002 43.141ZM107.979 61.7211L112.436 65.7378L112.442 65.7313L107.979 61.7211ZM95.8634 68.1859L94.7923 62.2823C91.9642 62.7954 89.8973 65.242 89.8638 68.1161L95.8634 68.1859ZM95.5226 73.3012L101.477 74.0409L101.477 74.0409L95.5226 73.3012ZM91.9044 81.8568L97.0457 84.9499L97.0457 84.9499L91.9044 81.8568ZM89.3986 91.14L84.1439 94.0363L84.1441 94.0366L89.3986 91.14ZM100.876 90.932L102.011 96.8237L102.019 96.8222L100.876 90.932ZM129.687 86.4388L130.784 80.54L130.783 80.5399L129.687 86.4388ZM143.255 97.6049L137.629 99.6901C138.683 102.534 141.693 104.144 144.643 103.442L143.255 97.6049ZM147.852 95.2025L152.286 99.2445L152.289 99.2412L147.852 95.2025ZM152.552 90.1908L153.345 84.2434L153.337 84.2424L152.552 90.1908ZM152.602 90.2006L151.235 96.0428C152.127 96.2515 153.055 96.2532 153.948 96.0476L152.602 90.2006ZM154.611 100.496L160.446 101.897L160.447 101.892L154.611 100.496ZM146.023 107.643L145.387 101.677C142.221 102.014 139.87 104.765 140.03 107.945L146.023 107.643ZM146.176 114.094L152.176 114.094V114.094H146.176ZM146.279 130.582L152.164 129.411L152.164 129.411L146.279 130.582ZM152.434 143.839L158.01 141.625L158.01 141.625L152.434 143.839ZM151.87 156.71L157.868 156.876L157.868 156.865L151.87 156.71ZM152.211 184.335L146.398 182.848L146.397 182.852L152.211 184.335ZM146.71 188.294L147.326 194.263L147.33 194.262L146.71 188.294ZM139.474 186.412L134.291 189.435L134.292 189.436L139.474 186.412ZM142.395 178.893L148.013 180.999L148.013 180.999L142.395 178.893ZM142.81 171.272L148.81 171.272V171.272H142.81ZM142.083 149.667L136.102 150.148L136.103 150.15L142.083 149.667ZM131.333 132.125L135.982 128.333L135.982 128.333L131.333 132.125ZM124.438 123.154L129.245 119.563C128.195 118.158 126.583 117.282 124.832 117.167C123.082 117.051 121.369 117.708 120.144 118.963L124.438 123.154ZM120.797 126.244L117.2 121.441C115.827 122.47 114.959 124.038 114.817 125.748L120.797 126.244ZM122.333 139.658L117.114 142.617C117.116 142.622 117.119 142.626 117.122 142.631L122.333 139.658ZM127.553 148.006L133.532 148.502L133.532 148.502L127.553 148.006ZM125.567 156.665L131.505 157.522L131.506 157.517L125.567 156.665ZM123.476 171.805L117.512 171.148L117.512 171.148L123.476 171.805ZM122.052 180.362L116.89 177.303C116.887 177.309 116.883 177.315 116.879 177.322L122.052 180.362ZM111.065 180.257L106.154 183.705L106.154 183.705L111.065 180.257ZM113.007 172.562L107.709 169.746L107.704 169.756L113.007 172.562ZM116.595 151.135L122.568 150.57L122.568 150.57L116.595 151.135ZM110.857 140.696L105.807 143.936L105.807 143.936L110.857 140.696ZM106.379 132.538L111.72 129.805C110.572 127.561 108.142 126.274 105.64 126.584L106.379 132.538ZM99.5265 133.178L105.065 135.485C105.073 135.466 105.081 135.446 105.089 135.427L99.5265 133.178ZM98.548 137.671L92.7241 136.228L92.7241 136.228L98.548 137.671ZM95.4933 155.243L101.473 155.737L101.474 155.726L95.4933 155.243ZM93.1203 178.374L87.1254 178.623L87.1254 178.623L93.1203 178.374ZM93.4025 184.81L99.3553 185.561C99.3562 185.554 99.357 185.547 99.3579 185.54L93.4025 184.81ZM87.6935 187.45L87.6935 193.45L87.6935 193.45L87.6935 187.45ZM81.6437 184.424L75.6957 185.213L75.696 185.215L81.6437 184.424ZM84.6984 177.707L78.9237 176.079C78.9191 176.095 78.9147 176.111 78.9102 176.127L84.6984 177.707ZM87.0705 156.132L93.0559 156.55L93.0559 156.55L87.0705 156.132ZM88.464 136.351L82.4667 136.17L82.4667 136.172L88.464 136.351ZM87.3527 131.339L86.5368 137.284C86.553 137.286 86.5693 137.288 86.5855 137.29L87.3527 131.339ZM85.5431 137.255L79.5852 136.545L79.5839 136.557L85.5431 137.255ZM83.3195 154.516L77.349 153.922L77.348 153.931L83.3195 154.516ZM80.2941 177.826L74.3032 178.156L74.3032 178.156L80.2941 177.826ZM78.8703 183.817L80.6391 189.55L80.6463 189.548L78.8703 183.817ZM70.6408 183.89L72.0053 178.047L72.0015 178.046L70.6408 183.89ZM70.2707 178.048L74.973 181.775L74.9732 181.775L70.2707 178.048ZM73.8146 168.647L67.9286 167.483C67.9276 167.488 67.9265 167.493 67.9255 167.499L73.8146 168.647ZM76.1124 146.316L82.1116 146.419L82.1116 146.418L76.1124 146.316ZM75.8009 128.774L81.797 128.557C81.7505 127.272 81.2923 126.036 80.49 125.031L75.8009 128.774ZM69.3361 119.907L74.4768 116.813L74.4767 116.812L69.3361 119.907ZM64.7394 100.496L70.7315 100.189L70.7315 100.189L64.7394 100.496ZM68.839 82.4066L74.694 83.7179C75.0978 81.9146 74.6482 80.0258 73.4751 78.5979C72.3021 77.17 70.5365 76.3623 68.6891 76.4085L68.839 82.4066ZM58.3634 82.6429L58.4739 88.6419L58.4739 88.6419L58.3634 82.6429ZM52.5089 80.9349L56.7815 76.7225C56.035 75.9653 55.1007 75.4201 54.0742 75.1427L52.5089 80.9349ZM51.1554 79.5297L56.4416 82.3681C57.2646 80.8354 57.3818 79.0208 56.7628 77.3949C56.1438 75.769 54.8496 74.4918 53.2156 73.8945L51.1554 79.5297ZM48.7091 75.2435L42.7849 76.1942L42.785 76.1945L48.7091 75.2435ZM49.6427 68.6156L44.8837 64.9615C44.8698 64.9797 44.856 64.998 44.8422 65.0163L49.6427 68.6156ZM50.4152 68.1527L51.5433 74.0457C52.48 73.8664 53.3605 73.4663 54.1117 72.8787L50.4152 68.1527ZM54.4337 66.851L52.9016 61.0499L52.8911 61.0526L54.4337 66.851ZM57.8732 65.6078L60.2363 71.1228C62.7163 70.0602 64.182 67.4728 63.8185 64.7993C63.4549 62.1258 61.3515 60.0237 58.6777 59.662L57.8732 65.6078ZM57.755 65.5912L54.9619 60.281C52.6465 61.4988 51.3871 64.0766 51.8495 66.6516C52.3118 69.2266 54.3893 71.2052 56.9838 71.5414L57.755 65.5912ZM61.6105 61.6762L66.8016 64.6848C68.1211 62.4083 67.8033 59.5376 66.0178 57.6048L61.6105 61.6762ZM53.3664 52.0678L48.5987 55.7105L48.5987 55.7105L53.3664 52.0678ZM45.6408 37.9808L50.4668 41.5459L50.471 41.5402L45.6408 37.9808ZM56.8449 40.8353L53.8504 46.0347C56.301 47.4461 59.4045 46.9546 61.2992 44.8552C63.1939 42.7557 63.3653 39.6182 61.7107 37.3248L56.8449 40.8353ZM51.7326 32.5531L46.3737 35.2517L46.3737 35.2518L51.7326 32.5531ZM46.6759 20.8685L52.2578 18.668C51.8772 17.7026 51.2528 16.8524 50.4454 16.2005L46.6759 20.8685ZM44.3771 17.725L49.9509 15.5039C49.9472 15.4947 49.9435 15.4856 49.9398 15.4764L44.3771 17.725ZM46.6164 12.1937L48.2515 17.9666C48.2298 17.9728 48.0272 18.0248 47.6894 17.9852C47.3406 17.9443 46.9572 17.8173 46.6022 17.5911C45.8834 17.1331 45.7166 16.5778 45.7015 16.5169L51.5246 15.0707L57.3477 13.6245C56.7838 11.3542 55.4456 8.99718 53.0511 7.4713C50.5625 5.88541 47.6595 5.66222 44.9812 6.42084L46.6164 12.1937ZM51.5246 15.0707L45.7015 16.5173C45.7563 16.7376 45.7509 16.9608 45.7213 17.1421C45.7076 17.2258 45.6931 17.2728 45.6949 17.267C45.6961 17.2629 45.7025 17.2425 45.7168 17.2034C45.724 17.1837 45.7334 17.1591 45.7452 17.1292C45.7511 17.1142 45.7577 17.0978 45.7649 17.0801C45.7685 17.0712 45.7723 17.062 45.7763 17.0524C45.7783 17.0477 45.7803 17.0428 45.7824 17.0378C45.7834 17.0353 45.7845 17.0328 45.7856 17.0303C45.7861 17.029 45.7869 17.0271 45.7872 17.0265C45.788 17.0245 45.7888 17.0226 51.3165 19.3558C56.8443 21.6891 56.8451 21.6871 56.8459 21.6852C56.8462 21.6845 56.847 21.6825 56.8476 21.6812C56.8487 21.6786 56.8498 21.6759 56.851 21.6732C56.8533 21.6677 56.8556 21.6622 56.858 21.6565C56.8627 21.645 56.8676 21.6331 56.8728 21.6205C56.883 21.5955 56.894 21.5682 56.9056 21.5387C56.9289 21.4798 56.9548 21.4121 56.9828 21.3359C57.0386 21.1837 57.103 20.9963 57.17 20.777C57.3035 20.3407 57.4521 19.764 57.5646 19.0749C57.7873 17.7104 57.8859 15.7911 57.3476 13.6241L51.5246 15.0707ZM51.3165 19.3558C45.715 21.5058 45.715 21.5059 45.7151 21.5062C45.7152 21.5063 45.7152 21.5065 45.7153 21.5067C45.7155 21.5072 45.7157 21.5078 45.716 21.5085C45.7166 21.51 45.7174 21.512 45.7183 21.5146C45.7203 21.5197 45.7231 21.527 45.7267 21.5364C45.734 21.5552 45.7444 21.5824 45.7579 21.6174C45.785 21.6875 45.8242 21.789 45.874 21.9175C45.9737 22.1745 46.1161 22.5401 46.2885 22.9786C46.6324 23.8531 47.1006 25.03 47.5907 26.2201C48.0736 27.3926 48.6069 28.6494 49.0757 29.6544C49.3019 30.1396 49.5675 30.6839 49.8405 31.163C49.9676 31.386 50.1834 31.7502 50.4704 32.1291C50.6106 32.3143 50.8672 32.6361 51.2325 32.978C51.4917 33.2205 52.3578 34.0125 53.754 34.4094L55.3947 28.6381L57.0354 22.8667C58.3953 23.2534 59.2197 24.0176 59.4316 24.2159C59.7498 24.5136 59.9538 24.775 60.0367 24.8843C60.2088 25.1116 60.2901 25.2631 60.2661 25.221C60.237 25.17 60.1342 24.975 59.951 24.5823C59.6009 23.8314 59.1509 22.7779 58.6866 21.6505C58.2294 20.5405 57.7866 19.4277 57.4562 18.5875C57.2916 18.1687 57.156 17.8207 57.062 17.5783C57.0151 17.4572 56.9786 17.3627 56.954 17.2991C56.9418 17.2674 56.9325 17.2433 56.9265 17.2276C56.9235 17.2197 56.9212 17.214 56.9198 17.2103C56.9191 17.2085 56.9186 17.2072 56.9184 17.2065C56.9182 17.2061 56.9181 17.2059 56.9181 17.2058C56.9181 17.2057 56.9181 17.2058 56.9181 17.2057C56.9181 17.2058 56.9181 17.2059 51.3165 19.3558ZM55.3947 28.6381L53.7023 34.3944C55.6646 34.9714 57.4748 34.4627 58.707 33.6632C59.744 32.9904 60.3133 32.1712 60.5518 31.7957C61.0411 31.0252 61.2581 30.3002 61.3276 30.0655C61.5105 29.4477 61.6129 28.8181 61.6721 28.4158C61.8048 27.5138 61.9051 26.4122 61.9795 25.4455C62.1321 23.4639 62.2174 21.4794 62.2192 21.4379L56.2248 21.1801L50.2303 20.9222C50.2297 20.9355 50.1512 22.7537 50.0149 24.5244C49.9449 25.4339 49.8695 26.1958 49.7998 26.6697C49.7578 26.9554 49.7524 26.8919 49.8213 26.659C49.8338 26.6168 49.9924 26.0389 50.4217 25.3628C50.6302 25.0345 51.1692 24.2493 52.1755 23.5964C53.377 22.8169 55.1561 22.314 57.0871 22.8817L55.3947 28.6381ZM56.2248 21.1801C61.5807 18.4757 61.5816 18.4773 61.5824 18.479C61.5827 18.4796 61.5835 18.4813 61.5841 18.4824C61.5852 18.4846 61.5863 18.4868 61.5874 18.489C61.5896 18.4933 61.5917 18.4976 61.5939 18.5019C61.5981 18.5104 61.6022 18.5186 61.6061 18.5266C61.614 18.5426 61.6213 18.5576 61.628 18.5717C61.6415 18.5998 61.6529 18.6244 61.6624 18.6456C61.6815 18.6878 61.694 18.7182 61.7021 18.7387C61.7169 18.7764 61.7205 18.7911 61.7214 18.7947C61.722 18.7972 61.7276 18.8182 61.7305 18.8624C61.7334 18.9079 61.7352 19.0039 61.7104 19.1383L55.8097 18.0512L49.909 16.9641C49.5517 18.9034 49.8012 20.5908 50.0795 21.7042C50.2231 22.2788 50.3889 22.7587 50.5301 23.119C50.6014 23.3008 50.6683 23.4568 50.7258 23.5843C50.7547 23.6482 50.7814 23.7053 50.8053 23.7553C50.8173 23.7803 50.8287 23.8036 50.8392 23.8252C50.8445 23.8359 50.8497 23.8462 50.8546 23.8561C50.8571 23.8611 50.8595 23.8659 50.8618 23.8706C50.863 23.873 50.8642 23.8753 50.8654 23.8776C50.8659 23.8788 50.8668 23.8805 50.8671 23.8811C50.8679 23.8828 50.8688 23.8845 56.2248 21.1801ZM55.8097 18.0512L61.712 19.1297C61.6459 19.4915 61.4573 20.0168 60.922 20.5137C60.6329 20.782 60.2628 21.0179 59.8321 21.1673C59.3991 21.3175 59.0266 21.3381 58.7834 21.3191L59.2501 15.3373L59.7168 9.35546C57.0117 9.14441 54.5625 10.044 52.7588 11.7181C51.0889 13.2679 50.2256 15.2317 49.9074 16.9726L55.8097 18.0512ZM59.2501 15.3373L58.8192 21.3218C58.3864 21.2906 57.9034 21.1548 57.4454 20.8883C57.0005 20.6294 56.6851 20.3096 56.4778 20.0253C56.1018 19.5096 56.0259 19.0552 56.0229 18.7469L62.0226 18.6888L68.0223 18.6308C67.9913 15.4189 65.905 9.80095 59.6811 9.35278L59.2501 15.3373ZM62.0226 18.6888L56.0228 18.741C56.0205 18.4685 56.0813 18.4269 56.0005 18.6191C55.9747 18.6806 55.9499 18.7275 55.9407 18.7441C55.9371 18.7505 55.9399 18.7451 55.9518 18.7256C55.9579 18.7157 55.9665 18.7018 55.9779 18.6838C55.9836 18.6748 55.9901 18.6647 55.9974 18.6535C56.001 18.6479 56.0049 18.642 56.0089 18.6358C56.011 18.6327 56.013 18.6295 56.0152 18.6263C56.0162 18.6246 56.0173 18.623 56.0184 18.6214C56.0189 18.6205 56.0198 18.6193 56.02 18.6188C56.0209 18.6176 56.0217 18.6163 61.0294 21.9213C66.0372 25.2262 66.038 25.2249 66.0389 25.2237C66.0391 25.2232 66.04 25.2219 66.0406 25.221C66.0417 25.2193 66.0429 25.2175 66.0441 25.2157C66.0465 25.2121 66.0489 25.2084 66.0514 25.2045C66.0564 25.1969 66.0617 25.1887 66.0673 25.1802C66.0784 25.1631 66.0905 25.1442 66.1036 25.1236C66.1298 25.0824 66.16 25.0341 66.1936 24.9791C66.2606 24.8693 66.342 24.7313 66.4327 24.5679C66.6121 24.2448 66.8383 23.8034 67.0626 23.2699C67.4821 22.2721 68.0396 20.6143 68.0224 18.6367L62.0226 18.6888ZM61.0294 21.9213L55.053 21.3899C55.0511 21.4117 54.9706 22.3168 54.8901 23.377C54.817 24.3399 54.7179 25.7507 54.7179 26.6213L60.7179 26.6215L66.7179 26.6217C66.7179 26.295 66.7736 25.3673 66.8557 24.2853C66.9305 23.3005 67.0057 22.4542 67.0059 22.4527L61.0294 21.9213ZM60.7179 26.6215H54.7179C54.7179 26.5705 54.6986 26.9036 54.6025 27.9428C54.5241 28.7906 54.4155 29.9149 54.3236 31.0127C54.2326 32.0997 54.1463 33.2929 54.1194 34.3144C54.1062 34.8151 54.1034 35.3946 54.1408 35.9544C54.1594 36.2328 54.1941 36.6068 54.2696 37.0171C54.3278 37.3329 54.4867 38.1276 54.9491 38.9945L60.2433 36.1713L65.5376 33.348C65.9406 34.1037 66.0513 34.7359 66.0713 34.8441C66.0916 34.9548 66.1021 35.0369 66.107 35.0805C66.1122 35.126 66.114 35.1523 66.1142 35.1551C66.1143 35.1569 66.1115 35.1134 66.1107 35.0128C66.1099 34.9158 66.111 34.7893 66.1152 34.631C66.1328 33.9661 66.1948 33.0526 66.2818 32.0136C66.3679 30.9852 66.4668 29.964 66.5515 29.0476C66.6186 28.3227 66.7179 27.273 66.7179 26.6215H60.7179ZM60.2433 36.1713L54.9897 39.0695C54.9157 38.9353 54.915 38.9198 55.0917 39.3048C55.2092 39.5607 55.393 39.9656 55.5666 40.3397C55.7437 40.7211 55.9536 41.1649 56.162 41.5745C56.2664 41.7796 56.3884 42.0114 56.52 42.2425C56.6336 42.4419 56.8361 42.7864 57.1044 43.1471L61.9191 39.5668L66.7338 35.9865C66.8945 36.2026 66.9715 36.346 66.9467 36.3024C66.9399 36.2906 66.9106 36.2377 66.8563 36.131C66.7474 35.9169 66.6096 35.6286 66.4511 35.2872C66.2892 34.9384 66.1496 34.6298 65.9978 34.299C65.9282 34.1473 65.8539 33.9866 65.7849 33.8414C65.7322 33.7306 65.6226 33.5009 65.4969 33.273L60.2433 36.1713ZM61.9191 39.5668L57.1045 43.1473C57.0087 43.0185 57.022 43.0207 57.1903 43.3034C57.3197 43.5208 57.474 43.7909 57.6309 44.0712C57.7852 44.3469 57.9292 44.6095 58.0353 44.8046C58.088 44.9015 58.1305 44.9802 58.1594 45.0338C58.1738 45.0605 58.1847 45.0809 58.1918 45.094C58.1953 45.1005 58.1978 45.1052 58.1993 45.108C58.2 45.1094 58.2005 45.1103 58.2007 45.1107C58.2008 45.1109 58.2009 45.111 58.2009 45.1109C58.2008 45.1109 58.2008 45.1109 58.2008 45.1108C58.2007 45.1107 58.2007 45.1106 58.2007 45.1106C58.2006 45.1105 58.2006 45.1104 63.4914 42.2806C68.7821 39.4509 68.7821 39.4507 68.782 39.4506C68.782 39.4506 68.7819 39.4504 68.7818 39.4503C68.7817 39.4501 68.7816 39.4498 68.7814 39.4496C68.7811 39.449 68.7808 39.4483 68.7803 39.4475C68.7794 39.4458 68.7783 39.4437 68.7768 39.441C68.774 39.4357 68.7701 39.4283 68.7651 39.4191C68.7552 39.4006 68.7412 39.3745 68.7235 39.3417C68.6882 39.2762 68.6381 39.1836 68.577 39.0713C68.4555 38.8478 68.2871 38.5404 68.1021 38.2099C67.8291 37.7223 67.2312 36.6553 66.7337 35.9863L61.9191 39.5668ZM63.4914 42.2806L69.4896 42.4265L69.6966 33.9148L63.6984 33.7689L57.7002 33.623L57.4931 42.1347L63.4914 42.2806ZM63.6984 33.7689L68.847 30.6881C68.9186 30.8077 68.9494 30.8687 68.9586 30.8878C68.9672 30.9053 68.9659 30.9041 68.9635 30.8973C68.9602 30.8877 68.97 30.9118 68.9798 30.974C68.9896 31.0355 69.0077 31.1865 68.9847 31.4078L63.0167 30.7885L57.0488 30.1691C56.6695 33.8237 58.464 36.7064 58.5498 36.8498L63.6984 33.7689ZM63.0167 30.7885L68.9902 31.3518C68.9572 31.7021 68.8325 32.1192 68.4405 32.5553C68.2187 32.802 67.884 33.0793 67.423 33.2832C66.9461 33.4942 66.4615 33.5694 66.0467 33.5482L66.3527 27.556L66.6586 21.5638C63.6392 21.4097 61.1492 22.7166 59.5166 24.5326C58.0014 26.2179 57.2245 28.3031 57.0432 30.2252L63.0167 30.7885ZM66.3527 27.556L66.0634 33.5491C65.7503 33.5339 65.3147 33.4424 64.8539 33.1891C64.3984 32.9386 64.0549 32.6051 63.8214 32.278C63.3907 31.6746 63.3768 31.1853 63.3853 31.0127L69.3781 31.307L75.3709 31.6013C75.4682 29.6197 75.0166 27.3069 73.5884 25.3062C72.0393 23.1359 69.5796 21.7048 66.6419 21.563L66.3527 27.556ZM69.3781 31.307L63.3845 31.0296C63.3968 30.7635 63.447 30.776 63.3181 31.0662C63.2738 31.1658 63.23 31.2487 63.2037 31.2958C63.1915 31.3176 63.1861 31.3264 63.1902 31.3195C63.1924 31.3159 63.1972 31.3081 63.205 31.2956C63.2089 31.2894 63.2136 31.2819 63.2191 31.2733C63.2218 31.2689 63.2248 31.2643 63.228 31.2593C63.2295 31.2569 63.2312 31.2543 63.2329 31.2517C63.2337 31.2504 63.2346 31.249 63.2355 31.2477C63.2359 31.247 63.2366 31.2459 63.2368 31.2456C63.2375 31.2446 63.2381 31.2435 68.2804 34.4955C73.3227 37.7475 73.3234 37.7464 73.3241 37.7453C73.3243 37.745 73.325 37.7439 73.3255 37.7432C73.3264 37.7417 73.3274 37.7402 73.3283 37.7387C73.3303 37.7357 73.3323 37.7326 73.3344 37.7293C73.3385 37.7228 73.3429 37.7159 73.3476 37.7085C73.357 37.6937 73.3674 37.6772 73.3789 37.6589C73.4017 37.6225 73.4285 37.579 73.4588 37.5288C73.5193 37.4289 73.5944 37.3011 73.6793 37.1491C73.8472 36.8487 74.064 36.4347 74.2849 35.9374C74.6863 35.0337 75.2852 33.452 75.3717 31.5844L69.3781 31.307ZM68.2804 34.4955L62.2816 34.3779C62.2816 34.3778 62.2208 37.4545 62.2208 39.2406H68.2208H74.2208C74.2208 37.5963 74.2786 34.6476 74.2793 34.6131L68.2804 34.4955ZM68.2208 39.2406L62.2208 39.2406C62.2208 40.3113 62.236 42.2043 62.2509 43.8042C62.2584 44.6097 62.2658 45.3498 62.2714 45.8884C62.2742 46.1578 62.2766 46.3769 62.2782 46.5288C62.279 46.6048 62.2797 46.664 62.2801 46.7042C62.2803 46.7243 62.2805 46.7397 62.2806 46.7501C62.2807 46.7553 62.2807 46.7592 62.2807 46.7619C62.2808 46.7632 62.2808 46.7642 62.2808 46.7649C62.2808 46.7652 62.2808 46.7655 62.2808 46.7657C62.2808 46.7658 62.2808 46.7659 62.2808 46.7659C62.2808 46.7659 62.2808 46.766 68.2804 46.6996C74.28 46.6332 74.28 46.6332 74.28 46.6332C74.28 46.6331 74.28 46.6331 74.28 46.633C74.28 46.6329 74.28 46.6326 74.28 46.6323C74.28 46.6317 74.28 46.6308 74.28 46.6295C74.28 46.627 74.2799 46.6232 74.2799 46.6181C74.2798 46.608 74.2796 46.5929 74.2794 46.5731C74.279 46.5334 74.2783 46.4749 74.2775 46.3996C74.2759 46.249 74.2736 46.0314 74.2708 45.7637C74.2652 45.2281 74.2578 44.4927 74.2504 43.6929C74.2354 42.0824 74.2208 40.2459 74.2208 39.2406L68.2208 39.2406ZM68.2804 46.6996L63.091 49.7112L66.1457 54.9749L71.3351 51.9633L76.5245 48.9517L73.4699 43.688L68.2804 46.6996ZM71.3351 51.9633L67.8997 47.0441L67.6019 47.2521L71.0373 52.1713L74.4726 57.0904L74.7705 56.8824L71.3351 51.9633ZM71.0373 52.1713L73.8803 57.4549C75.2025 56.7435 76.5459 56.2363 77.6265 56.1205L76.9874 50.1547L76.3484 44.1888C73.0589 44.5412 70.1356 45.843 68.1942 46.8876L71.0373 52.1713ZM76.9874 50.1547L77.6233 56.1209C78.9333 55.9813 79.899 56.2636 80.6167 56.6189L83.2785 51.2416L85.9402 45.8643C83.4647 44.6389 80.2232 43.7759 76.3516 44.1885L76.9874 50.1547ZM83.2785 51.2416L88.8421 53.488C89.7662 51.1993 91.921 45.7844 92.5937 42.9856L86.7599 41.5834L80.9261 40.1811C80.5107 41.9093 78.7807 46.3556 77.7149 48.9951L83.2785 51.2416ZM86.7599 41.5834L92.5995 42.9617C93.3465 39.7966 93.3892 34.6789 93.4399 32.4839L87.4415 32.3451L81.4432 32.2063C81.3752 35.1418 81.3002 38.5956 80.9204 40.2051L86.7599 41.5834ZM87.4415 32.3451L93.4409 32.4367C93.4549 31.5162 93.3095 30.7504 93.184 30.2297C93.0818 29.8061 92.9193 29.2808 92.8997 29.2137C92.8165 28.9296 92.8651 29.0374 92.861 29.1803L86.8634 29.0092L80.8659 28.838C80.8174 30.5375 81.1624 31.8315 81.383 32.5853C81.4077 32.6696 81.4316 32.7494 81.4499 32.8107C81.4699 32.8776 81.4835 32.9227 81.4959 32.9651C81.521 33.0509 81.5233 33.0632 81.5184 33.0427C81.5068 32.9946 81.4356 32.6922 81.4422 32.2535L87.4415 32.3451ZM86.8634 29.0092L92.86 29.2109C92.8582 29.2647 92.8396 29.738 92.3691 30.3253C92.1143 30.6432 91.7658 30.9375 91.3443 31.1434C90.9259 31.3477 90.576 31.3967 90.3928 31.4026L90.2003 25.4056L90.0078 19.4087C87.1822 19.4994 84.6899 20.7181 83.0044 22.8218C81.4585 24.7511 80.928 26.989 80.8668 28.8074L86.8634 29.0092ZM90.2003 25.4056L90.3648 31.4034C89.8894 31.4164 89.1219 31.2191 88.4872 30.5882C87.9248 30.0291 87.7371 29.4012 87.7103 28.9555L93.6994 28.5941L99.6885 28.2327C99.5578 26.0672 98.6956 23.8156 96.947 22.0775C95.1262 20.2676 92.6612 19.3359 90.0359 19.4079L90.2003 25.4056ZM93.6994 28.5941L87.7095 28.9433C87.6978 28.7426 87.767 28.5838 87.6956 28.7906C87.666 28.8762 87.6377 28.9531 87.5771 29.1196C87.5263 29.2593 87.4459 29.4809 87.3673 29.7236C87.2115 30.2049 86.9798 31.011 86.923 32.0022L92.9132 32.3451L98.9034 32.688C98.8764 33.1603 98.7707 33.4605 98.7841 33.4192C98.7901 33.4006 98.8051 33.3567 98.8537 33.223C98.8926 33.1162 98.9678 32.9118 99.0393 32.7047C99.3721 31.7402 99.8046 30.2247 99.6892 28.245L93.6994 28.5941ZM92.9132 32.3451L86.9236 31.9927C86.8417 33.3842 86.7228 35.4496 86.6246 37.1642C86.5754 38.0221 86.5314 38.7933 86.4996 39.35C86.4837 39.6283 86.4709 39.8531 86.462 40.0083C86.4576 40.0859 86.4542 40.1461 86.4519 40.1869C86.4507 40.2073 86.4498 40.2229 86.4492 40.2334C86.4489 40.2386 86.4487 40.2426 86.4485 40.2452C86.4485 40.2465 86.4484 40.2476 86.4484 40.2482C86.4484 40.2486 86.4483 40.2488 86.4483 40.249C86.4483 40.2491 86.4483 40.2491 86.4483 40.2492C86.4483 40.2492 86.4483 40.2492 92.4386 40.5902C98.4289 40.9312 98.4289 40.9312 98.4289 40.9311C98.4289 40.9311 98.4289 40.931 98.4289 40.9309C98.4289 40.9308 98.429 40.9305 98.429 40.9302C98.429 40.9296 98.4291 40.9286 98.4291 40.9273C98.4293 40.9246 98.4295 40.9207 98.4298 40.9155C98.4304 40.9051 98.4313 40.8896 98.4325 40.8692C98.4348 40.8286 98.4382 40.7685 98.4426 40.691C98.4514 40.5361 98.4642 40.3117 98.4801 40.0337C98.5118 39.4777 98.5558 38.7075 98.6049 37.8507C98.7032 36.136 98.8216 34.0788 98.9029 32.6975L92.9132 32.3451ZM92.4386 40.5902C96.5403 44.9692 96.5406 44.969 96.5408 44.9688C96.5409 44.9687 96.5412 44.9685 96.5414 44.9683C96.5418 44.9679 96.5422 44.9675 96.5428 44.967C96.5438 44.966 96.5451 44.9647 96.5467 44.9633C96.5499 44.9603 96.554 44.9564 96.5592 44.9516C96.5695 44.9419 96.5838 44.9285 96.6017 44.9115C96.6377 44.8777 96.6885 44.8296 96.7522 44.7692C96.8795 44.6483 97.0591 44.4769 97.275 44.2683C97.704 43.8539 98.2894 43.2803 98.8985 42.6581C99.496 42.0479 100.173 41.3333 100.76 40.6482C101.052 40.3077 101.373 39.9154 101.668 39.5066C101.9 39.1843 102.378 38.5008 102.72 37.6353L97.1398 35.4301L91.5597 33.2249C91.7831 32.6597 92.0247 32.3627 91.9352 32.4869C91.908 32.5245 91.8207 32.6386 91.6497 32.8381C91.3109 33.2332 90.8423 33.7336 90.3238 34.2632C89.817 34.7809 89.3161 35.2721 88.9378 35.6374C88.7501 35.8188 88.5958 35.966 88.4901 36.0664C88.4373 36.1165 88.3969 36.1547 88.3707 36.1794C88.3576 36.1918 88.348 36.2007 88.3423 36.2061C88.3395 36.2088 88.3376 36.2106 88.3367 36.2114C88.3362 36.2118 88.336 36.212 88.336 36.212C88.336 36.212 88.3361 36.2119 88.3363 36.2118C88.3363 36.2117 88.3365 36.2116 88.3365 36.2115C88.3367 36.2114 88.3369 36.2112 92.4386 40.5902ZM97.1398 35.4301L102.72 37.6343C103.206 36.4056 103.338 34.9318 103.395 34.3324C103.48 33.42 103.535 32.39 103.572 31.4367C103.647 29.5172 103.658 27.62 103.658 26.9779L97.6583 26.9779L91.6583 26.9779C91.6583 27.5373 91.6477 29.2656 91.5815 30.9715C91.5481 31.831 91.5033 32.6136 91.4472 33.2109C91.419 33.512 91.3938 33.7009 91.3782 33.7952C91.3466 33.987 91.3746 33.6937 91.5593 33.2258L97.1398 35.4301ZM97.6583 26.9779H103.658V24.101H97.6583H91.6583V26.9779H97.6583ZM97.6583 24.101L102.568 20.6526C102.626 20.7341 102.621 20.7323 102.586 20.6739C102.548 20.6127 102.497 20.5221 102.45 20.4246C102.427 20.3778 102.411 20.3396 102.4 20.3116C102.388 20.2827 102.387 20.2764 102.392 20.2927C102.396 20.3078 102.412 20.3647 102.427 20.4597C102.442 20.5538 102.46 20.7125 102.456 20.9244L96.4572 20.809L90.4583 20.6935C90.4161 22.8843 91.2064 24.7339 91.637 25.6286C92.1353 26.6641 92.6429 27.3992 92.7482 27.5493L97.6583 24.101ZM96.4572 20.809L102.457 20.8812C102.449 21.5396 102.259 22.052 101.91 22.498C101.7 22.7666 101.381 23.0711 100.931 23.3105C100.464 23.5591 99.9827 23.6696 99.5686 23.6786L99.4376 17.6801L99.3067 11.6815C96.2685 11.7478 93.9167 13.2418 92.461 15.1014C91.1369 16.793 90.4804 18.8476 90.4576 20.7367L96.4572 20.809ZM99.4376 17.6801L99.5984 23.6779C99.478 23.6811 99.1605 23.6679 98.737 23.5074C98.3011 23.3423 97.8844 23.07 97.541 22.7144C96.8811 22.0312 96.7755 21.3652 96.7577 21.1815L102.73 20.6019L108.702 20.0224C108.536 18.3114 107.889 16.1548 106.172 14.3777C104.323 12.463 101.833 11.6137 99.2769 11.6822L99.4376 17.6801ZM102.73 20.6019L96.7524 21.1236C96.725 20.8105 96.7886 20.6968 96.753 20.808C96.745 20.8333 96.738 20.8485 96.7417 20.84C96.7444 20.8341 96.7517 20.818 96.7657 20.7898C96.7728 20.7756 96.7817 20.758 96.7928 20.7367C96.7983 20.7261 96.8044 20.7145 96.8111 20.7019C96.8145 20.6956 96.8179 20.689 96.8216 20.6822C96.8234 20.6788 96.8253 20.6754 96.8272 20.6718C96.8282 20.6701 96.8291 20.6683 96.8301 20.6665C96.8306 20.6656 96.8313 20.6642 96.8316 20.6638C96.8323 20.6624 96.833 20.6611 102.107 23.5228C107.38 26.3846 107.381 26.3832 107.382 26.3818C107.382 26.3814 107.383 26.38 107.383 26.379C107.384 26.3771 107.385 26.3752 107.386 26.3733C107.388 26.3694 107.39 26.3655 107.393 26.3614C107.397 26.3532 107.402 26.3447 107.406 26.3357C107.416 26.3177 107.426 26.2981 107.437 26.2769C107.459 26.2344 107.484 26.1854 107.512 26.1301C107.567 26.0197 107.632 25.8828 107.704 25.7224C107.845 25.4048 108.019 24.9762 108.183 24.4622C108.492 23.4947 108.868 21.9206 108.707 20.0803L102.73 20.6019ZM102.107 23.5228L96.1097 23.3295L95.9027 29.7504L101.9 29.9437L107.896 30.1371L108.103 23.7162L102.107 23.5228ZM101.9 29.9437C106.678 33.5729 106.678 33.5728 106.678 33.5728C106.678 33.5728 106.678 33.5727 106.678 33.5726C106.678 33.5725 106.678 33.5724 106.678 33.5721C106.678 33.5717 106.679 33.5711 106.68 33.5703C106.681 33.5687 106.683 33.5664 106.685 33.5633C106.689 33.5572 106.696 33.5482 106.705 33.5365C106.723 33.5132 106.749 33.4789 106.782 33.4349C106.849 33.3469 106.945 33.2201 107.063 33.064C107.3 32.7519 107.625 32.3219 107.981 31.8502C108.681 30.9217 109.534 29.7838 110.044 29.083L105.192 25.5541L100.339 22.0252C99.8998 22.6292 99.1075 23.6861 98.3987 24.6263C98.0499 25.0889 97.7302 25.5116 97.4976 25.8187C97.3813 25.9721 97.287 26.0965 97.2219 26.1824C97.1893 26.2253 97.1641 26.2586 97.1471 26.281C97.1385 26.2922 97.1321 26.3007 97.1278 26.3064C97.1257 26.3092 97.124 26.3113 97.123 26.3127C97.1225 26.3134 97.1221 26.3139 97.1219 26.3142C97.1217 26.3144 97.1216 26.3145 97.1216 26.3145C97.1216 26.3146 97.1216 26.3146 97.1215 26.3146C97.1215 26.3146 97.1216 26.3146 101.9 29.9437ZM105.192 25.5541L110.07 29.0466C110.742 28.1089 111.37 27.0212 111.777 26.2867C112.208 25.5089 112.511 24.9085 112.536 24.8587L107.178 22.1586L101.82 19.4585C101.82 19.4585 101.82 19.4584 101.82 19.4584C101.82 19.4584 101.82 19.4583 101.82 19.4582C101.82 19.4581 101.82 19.458 101.82 19.4579C101.82 19.4576 101.82 19.4575 101.82 19.4574C101.82 19.4573 101.82 19.4577 101.82 19.4585C101.819 19.46 101.817 19.4635 101.815 19.4686C101.809 19.479 101.801 19.4963 101.788 19.5201C101.764 19.5676 101.727 19.6401 101.678 19.7324C101.581 19.9181 101.443 20.1774 101.281 20.4693C100.93 21.1026 100.571 21.7014 100.313 22.0615L105.192 25.5541ZM107.178 22.1586L112.914 20.3973C112.964 20.5625 112.908 20.4048 112.86 20.1082C112.837 19.965 112.821 19.8223 112.815 19.6943C112.812 19.6323 112.812 19.5826 112.813 19.5454C112.814 19.5079 112.816 19.4912 112.816 19.4939L106.866 18.7181L100.917 17.9424C100.517 21.0087 101.405 23.8003 101.442 23.9198L107.178 22.1586ZM106.866 18.7181L112.813 19.5193C112.79 19.6891 112.708 20.0674 112.318 20.5054C112.103 20.7464 111.804 20.9904 111.423 21.1709C111.037 21.354 110.681 21.4169 110.428 21.4239L110.263 15.4262L110.098 9.42843C103.918 9.59858 101.355 14.6908 100.92 17.917L106.866 18.7181ZM110.263 15.4262L110.39 21.4248C109.727 21.4389 108.836 21.1341 108.184 20.4025C107.629 19.7797 107.495 19.1355 107.495 18.7186L113.495 18.7181L119.495 18.7177C119.495 16.5809 118.791 14.2686 117.142 12.4186C115.397 10.4599 112.889 9.3691 110.136 9.4275L110.263 15.4262ZM113.495 18.7181H107.495C107.495 18.8181 107.461 18.9753 107.363 19.167C107.32 19.2517 107.283 19.3059 107.276 19.3158C107.274 19.3192 107.282 19.3076 107.304 19.2792C107.316 19.2649 107.331 19.2459 107.351 19.2222C107.361 19.2103 107.373 19.1972 107.385 19.1827C107.391 19.1755 107.398 19.168 107.405 19.1602C107.408 19.1562 107.412 19.1522 107.415 19.1481C107.417 19.1461 107.419 19.144 107.421 19.1419C107.421 19.1409 107.423 19.1393 107.423 19.1388C107.425 19.1372 107.426 19.1356 111.923 23.1078C116.42 27.08 116.421 27.0784 116.423 27.0768C116.423 27.0762 116.425 27.0746 116.426 27.0735C116.427 27.0713 116.429 27.0691 116.431 27.0668C116.435 27.0623 116.44 27.0576 116.444 27.0528C116.452 27.0432 116.461 27.0331 116.47 27.0225C116.488 27.0012 116.508 26.9777 116.53 26.9522C116.573 26.9011 116.622 26.8413 116.677 26.7732C116.785 26.6373 116.916 26.4662 117.061 26.262C117.349 25.8566 117.705 25.3027 118.055 24.6162C118.743 23.2656 119.495 21.2279 119.495 18.7181H113.495ZM111.923 23.1078L106.578 20.3816C106.582 20.3735 105.656 22.1895 104.376 24.4667C103.056 26.8171 101.526 29.3568 100.313 30.9497L105.087 34.5844L109.861 38.219C111.617 35.9124 113.49 32.7432 114.838 30.3449C116.227 27.8733 117.234 25.9008 117.268 25.8339L111.923 23.1078ZM105.087 34.5844L100.311 30.9525C99.1403 32.4922 98.3457 33.5755 97.6384 34.464C97.3018 34.8869 97.0827 35.14 96.9493 35.2808C96.7645 35.4759 96.9259 35.2614 97.3685 34.9917L100.49 40.1156L103.612 45.2395C104.529 44.6807 105.232 43.9861 105.66 43.5347C106.139 43.029 106.604 42.4693 107.027 41.9375C107.84 40.9166 108.869 39.5235 109.863 38.2162L105.087 34.5844ZM100.49 40.1156L97.3327 35.0137C97.2096 35.0899 97.0305 35.1948 96.5621 35.478L99.6662 40.6127L102.77 45.7474C103.072 45.5648 103.465 45.3305 103.648 45.2175L100.49 40.1156ZM99.6662 40.6127L102.609 45.8413C104.393 44.8369 106.023 44.136 107.215 43.8007L105.591 38.0248L103.966 32.2489C101.561 32.9253 99.0237 34.0891 96.723 35.3841L99.6662 40.6127ZM105.591 38.0248L107.215 43.8007C109.046 43.2857 111.803 43.0384 114.243 43.1274C115.448 43.1714 116.314 43.2892 116.771 43.395C117.019 43.4524 116.924 43.4559 116.645 43.3178C116.595 43.2927 115.151 42.639 114.364 40.7858L119.886 38.4398L125.408 36.0939C124.465 33.8737 122.621 32.8859 121.968 32.5629C121.087 32.1269 120.189 31.8686 119.475 31.7036C118.009 31.3647 116.319 31.1952 114.681 31.1354C111.434 31.0169 107.355 31.2959 103.967 32.2489L105.591 38.0248ZM119.886 38.4398L114.362 40.7833C114.287 40.6058 114.18 40.3055 114.116 39.9037C114.049 39.4861 114.041 39.0418 114.102 38.5963C114.218 37.7506 114.542 37.2394 114.498 37.3143C114.485 37.3372 114.445 37.4025 114.33 37.5797C114.24 37.7187 114.062 37.9886 113.902 38.2406C113.544 38.8013 113.103 39.5274 112.641 40.4461L118.002 43.141L123.363 45.8359C123.583 45.3978 123.797 45.0413 124.018 44.6955C124.139 44.5058 124.612 43.7954 124.88 43.3322C125.215 42.7546 125.793 41.6687 125.99 40.2278C126.207 38.6485 125.896 37.2441 125.409 36.0964L119.886 38.4398ZM118.002 43.141L112.641 40.4461C112.208 41.3086 111.603 42.7122 111.012 44.0595C110.373 45.5161 109.628 47.1966 108.794 48.9329C107.051 52.5628 105.194 55.8435 103.516 57.7109L107.979 61.7211L112.442 65.7313C115.36 62.483 117.833 57.8306 119.611 54.1278C120.538 52.1978 121.351 50.3621 122.001 48.8798C122.7 47.2882 123.114 46.3303 123.363 45.8359L118.002 43.141ZM107.979 61.7211L103.522 57.7044C102.082 59.3019 99.9918 60.4888 97.9749 61.293C97.0086 61.6783 96.156 61.9375 95.5608 62.0965C95.2656 62.1754 95.0406 62.2279 94.9048 62.2578C94.8371 62.2727 94.7922 62.2819 94.7725 62.2858C94.7626 62.2878 94.7592 62.2884 94.7624 62.2878C94.764 62.2875 94.7672 62.2869 94.7722 62.286C94.7747 62.2855 94.7776 62.285 94.781 62.2844C94.7827 62.2841 94.7844 62.2837 94.7863 62.2834C94.7873 62.2832 94.7888 62.2829 94.7893 62.2829C94.7908 62.2826 94.7923 62.2823 95.8634 68.1859C96.9345 74.0895 96.9361 74.0892 96.9378 74.089C96.9384 74.0888 96.94 74.0885 96.9412 74.0883C96.9436 74.0879 96.946 74.0874 96.9486 74.087C96.9538 74.086 96.9594 74.085 96.9656 74.0838C96.9778 74.0816 96.9919 74.0789 97.0079 74.0759C97.0398 74.0698 97.0791 74.0621 97.1255 74.0529C97.2182 74.0343 97.3393 74.0092 97.4861 73.9769C97.7794 73.9123 98.1777 73.8183 98.6592 73.6896C99.6174 73.4335 100.932 73.0329 102.42 72.4396C105.311 71.2866 109.279 69.241 112.436 65.7378L107.979 61.7211ZM95.8634 68.1859L89.8638 68.1161C89.864 68.1009 89.8346 70.4182 89.5684 72.5614L95.5226 73.3012L101.477 74.0409C101.83 71.1973 101.862 68.3223 101.863 68.2557L95.8634 68.1859ZM95.5226 73.3012L89.5684 72.5614C89.4226 73.7345 88.8964 75.2178 86.7631 78.7637L91.9044 81.8568L97.0457 84.9499C99.3014 81.2005 101 77.8796 101.477 74.0409L95.5226 73.3012ZM91.9044 81.8568L86.7632 78.7637C85.5104 80.8461 84.3607 83.1761 83.6856 85.4586C83.1177 87.379 82.3926 90.859 84.1439 94.0363L89.3986 91.14L94.6532 88.2437C94.8609 88.6205 94.9569 88.9501 95.0011 89.1701C95.0443 89.3859 95.0426 89.519 95.0422 89.54C95.0418 89.5575 95.0498 89.346 95.193 88.8618C95.4817 87.8854 96.1039 86.5153 97.0457 84.9499L91.9044 81.8568ZM89.3986 91.14L84.1441 94.0366C85.4005 96.3157 87.4445 97.4107 89.1674 97.8725C90.7324 98.292 92.3012 98.2778 93.5104 98.1953C95.9075 98.0319 98.9883 97.406 102.011 96.8237L100.876 90.932L99.7411 85.0403C96.299 85.7035 94.16 86.1232 92.6941 86.2231C91.9718 86.2724 91.9483 86.1943 92.2741 86.2816C92.7578 86.4113 93.9157 86.9059 94.6531 88.2434L89.3986 91.14ZM100.876 90.932L102.019 96.8222C103.925 96.4523 106.163 95.8177 108.299 95.2122C110.534 94.5784 112.851 93.9185 115.26 93.354C120.179 92.2014 124.783 91.63 128.59 92.3378L129.687 86.4388L130.783 80.5399C124.463 79.3649 117.871 80.4172 112.523 81.6705C109.797 82.309 107.212 83.0475 105.026 83.6672C102.74 84.3151 101.037 84.7889 99.7334 85.0418L100.876 90.932ZM129.687 86.4388L128.59 92.3377C131.918 92.9566 134.16 94.7667 135.656 96.565C136.408 97.4696 136.937 98.3343 137.267 98.953C137.431 99.2588 137.54 99.4937 137.6 99.6287C137.63 99.6959 137.647 99.7373 137.651 99.749C137.654 99.7549 137.653 99.7532 137.649 99.7436C137.647 99.7388 137.645 99.732 137.641 99.7231C137.64 99.7186 137.638 99.7137 137.636 99.7082C137.635 99.7054 137.634 99.7026 137.633 99.6996C137.632 99.6981 137.631 99.6957 137.631 99.695C137.63 99.6926 137.629 99.6901 143.255 97.6049C148.881 95.5196 148.88 95.5171 148.879 95.5146C148.879 95.5137 148.878 95.5111 148.877 95.5093C148.876 95.5057 148.874 95.502 148.873 95.4982C148.87 95.4904 148.867 95.4821 148.864 95.4732C148.857 95.4554 148.849 95.4352 148.84 95.4128C148.823 95.3679 148.802 95.3139 148.777 95.2513C148.726 95.1261 148.659 94.9662 148.575 94.7759C148.407 94.396 148.168 93.8909 147.851 93.297C147.22 92.1164 146.255 90.5426 144.882 88.8912C142.125 85.5772 137.583 81.8043 130.784 80.54L129.687 86.4388ZM143.255 97.6049L144.643 103.442C144.822 103.4 145.919 103.131 147.269 102.579C148.479 102.083 150.618 101.074 152.286 99.2445L147.852 95.2025L143.417 91.1605C143.54 91.0259 143.568 91.0395 143.388 91.1485C143.224 91.2478 142.995 91.3613 142.721 91.4738C142.16 91.7035 141.718 91.803 141.867 91.7676L143.255 97.6049ZM147.852 95.2025L152.289 99.2412C152.648 98.8464 152.948 98.4364 153.128 98.185C153.331 97.9016 153.54 97.5938 153.717 97.3325C154.105 96.758 154.426 96.2801 154.753 95.845C155.107 95.3718 155.252 95.2452 155.199 95.2909C155.164 95.3213 154.907 95.5444 154.436 95.7601C153.953 95.9813 153.004 96.3024 151.767 96.1393L152.552 90.1908L153.337 84.2424C150.227 83.832 148.035 85.6239 147.364 86.2023C146.424 87.013 145.662 87.966 145.151 88.6474C144.611 89.3669 144.109 90.1187 143.777 90.6095C143.309 91.3008 143.279 91.3124 143.414 91.1638L147.852 95.2025ZM152.552 90.1908L151.759 96.1382C151.599 96.1168 151.469 96.0926 151.385 96.0755C151.304 96.0591 151.243 96.0446 151.235 96.0428L152.602 90.2006L153.969 84.3583C153.938 84.3511 153.675 84.2874 153.345 84.2434L152.552 90.1908ZM152.602 90.2006L153.948 96.0476C152.928 96.2824 151.814 96.1743 150.825 95.7102C149.929 95.2896 149.427 94.717 149.211 94.4261C148.839 93.925 148.909 93.7316 149.023 94.3142C149.222 95.339 149.238 97.1673 148.776 99.1012L154.611 100.496L160.447 101.892C161.254 98.5174 161.371 94.9431 160.801 92.0197C160.53 90.6282 159.999 88.8243 158.844 87.2699C157.554 85.5342 154.88 83.519 151.255 84.3535L152.602 90.2006ZM154.611 100.496L148.777 99.0961C148.62 99.7527 148.396 100.141 148.214 100.381C148.025 100.63 147.789 100.838 147.492 101.019C146.832 101.421 146.002 101.611 145.387 101.677L146.023 107.643L146.658 113.609C149.481 113.309 158.127 111.558 160.446 101.897L154.611 100.496ZM146.023 107.643L140.03 107.945C140.103 109.379 140.176 111.474 140.176 114.094H146.176H152.176C152.176 111.251 152.096 108.954 152.015 107.34L146.023 107.643ZM146.176 114.094L140.176 114.094C140.176 116.714 139.923 118.599 139.768 121.772C139.625 124.686 139.64 127.963 140.395 131.754L146.279 130.582L152.164 129.411C151.673 126.945 151.637 124.743 151.753 122.36C151.857 120.236 152.176 117.005 152.176 114.094L146.176 114.094ZM146.279 130.582L140.395 131.754C141.196 135.777 142.869 139.204 144.285 141.718C144.989 142.968 145.692 144.097 146.172 144.885C146.763 145.857 146.875 146.097 146.857 146.054L152.434 143.839L158.01 141.625C157.578 140.536 156.868 139.378 156.422 138.646C155.865 137.73 155.315 136.849 154.74 135.829C153.598 133.801 152.609 131.645 152.164 129.411L146.279 130.582ZM152.434 143.839L146.857 146.054C146.618 145.451 146.837 145.066 146.579 147.377C146.364 149.294 145.984 152.239 145.872 156.555L151.87 156.71L157.868 156.865C157.964 153.144 158.281 150.7 158.504 148.713C158.682 147.12 159.08 144.319 158.01 141.625L152.434 143.839ZM151.87 156.71L145.873 156.544C145.754 160.842 146.102 167.121 146.33 172.362C146.447 175.071 146.536 177.541 146.539 179.545C146.541 180.546 146.521 181.364 146.48 181.997C146.436 182.696 146.381 182.918 146.398 182.848L152.211 184.335L158.024 185.822C158.486 184.017 158.543 181.566 158.539 179.526C158.536 177.247 158.436 174.557 158.319 171.842C158.075 166.236 157.764 160.616 157.868 156.876L151.87 156.71ZM152.211 184.335L146.397 182.852C146.385 182.9 146.401 182.814 146.495 182.662C146.595 182.498 146.733 182.346 146.878 182.234C147.158 182.018 147.105 182.221 146.09 182.326L146.71 188.294L147.33 194.262C149.74 194.012 152.163 193.31 154.2 191.741C156.332 190.1 157.483 187.94 158.025 185.819L152.211 184.335ZM146.71 188.294L146.094 182.326C145.482 182.389 144.948 182.409 144.502 182.397C144.049 182.384 143.75 182.338 143.585 182.3C143.412 182.261 143.492 182.253 143.707 182.385C143.948 182.533 144.34 182.846 144.656 183.387L139.474 186.412L134.292 189.436C135.984 192.335 138.814 193.517 140.897 193.996C143.04 194.488 145.309 194.471 147.326 194.263L146.71 188.294ZM139.474 186.412L144.657 183.388C145.221 184.357 145.29 185.228 145.288 185.631C145.287 186.034 145.218 186.252 145.23 186.208C145.259 186.101 145.395 185.74 145.733 185.1C146.047 184.505 146.412 183.9 146.781 183.296C146.947 183.025 147.149 182.695 147.311 182.419C147.395 182.277 147.497 182.099 147.598 181.91C147.677 181.76 147.855 181.42 148.013 180.999L142.395 178.893L136.777 176.787C136.95 176.323 137.138 176.046 136.963 176.344C136.87 176.502 136.745 176.706 136.541 177.039C136.171 177.645 135.63 178.534 135.124 179.493C134.641 180.406 134.039 181.657 133.667 182.998C133.386 184.009 132.73 186.759 134.291 189.435L139.474 186.412ZM142.395 178.893L148.013 180.999C148.365 180.061 148.49 179.097 148.549 178.599C148.625 177.956 148.676 177.24 148.712 176.511C148.784 175.045 148.81 173.234 148.81 171.272L142.81 171.272L136.81 171.272C136.81 173.165 136.784 174.748 136.726 175.922C136.697 176.513 136.663 176.927 136.632 177.189C136.584 177.595 136.58 177.31 136.776 176.787L142.395 178.893ZM142.81 171.272H148.81C148.81 167.327 148.393 153.259 148.064 149.184L142.083 149.667L136.103 150.15C136.396 153.787 136.81 167.506 136.81 171.272H142.81ZM142.083 149.667L148.064 149.186C147.878 146.875 146.748 144.503 145.908 142.902C144.93 141.038 143.686 139.038 142.449 137.179C139.973 133.457 137.247 129.883 135.982 128.333L131.333 132.125L126.684 135.918C127.718 137.186 130.211 140.448 132.458 143.825C133.582 145.515 134.575 147.131 135.283 148.478C136.128 150.089 136.133 150.525 136.102 150.148L142.083 149.667ZM131.333 132.125L135.982 128.333C134.907 127.015 133.241 124.849 131.801 122.953C131.09 122.018 130.45 121.169 129.988 120.554C129.756 120.246 129.57 119.998 129.442 119.826C129.377 119.741 129.328 119.674 129.294 119.63C129.278 119.607 129.265 119.59 129.257 119.579C129.253 119.574 129.249 119.569 129.247 119.567C129.246 119.565 129.246 119.564 129.245 119.564C129.245 119.563 129.245 119.563 129.245 119.563C129.245 119.563 129.245 119.563 129.245 119.563C129.245 119.563 129.245 119.563 124.438 123.154C119.631 126.744 119.631 126.744 119.631 126.745C119.631 126.745 119.631 126.745 119.631 126.745C119.631 126.745 119.631 126.745 119.632 126.746C119.632 126.747 119.633 126.748 119.635 126.75C119.637 126.753 119.641 126.758 119.645 126.764C119.654 126.776 119.668 126.794 119.685 126.817C119.72 126.864 119.772 126.933 119.838 127.021C119.97 127.197 120.16 127.451 120.396 127.765C120.867 128.392 121.52 129.257 122.246 130.213C123.679 132.099 125.461 134.419 126.684 135.918L131.333 132.125ZM124.438 123.154C120.144 118.963 120.144 118.963 120.145 118.962C120.145 118.962 120.145 118.961 120.146 118.961C120.146 118.96 120.147 118.96 120.147 118.959C120.148 118.958 120.15 118.957 120.15 118.956C120.152 118.954 120.154 118.952 120.155 118.951C120.158 118.948 120.16 118.947 120.16 118.946C120.16 118.946 120.156 118.95 120.147 118.959C120.129 118.977 120.092 119.014 120.036 119.068C119.924 119.175 119.739 119.349 119.486 119.576C118.978 120.031 118.203 120.69 117.2 121.441L120.797 126.244L124.394 131.046C125.714 130.057 126.759 129.171 127.491 128.516C127.858 128.188 128.147 127.916 128.355 127.716C128.459 127.616 128.543 127.533 128.606 127.471C128.637 127.44 128.664 127.413 128.685 127.392C128.695 127.382 128.704 127.372 128.712 127.364C128.716 127.36 128.72 127.357 128.723 127.353C128.724 127.352 128.726 127.35 128.728 127.349C128.728 127.348 128.729 127.347 128.73 127.346C128.73 127.346 128.73 127.346 128.731 127.345C128.731 127.345 128.732 127.344 124.438 123.154ZM120.797 126.244L114.817 125.748C114.625 128.078 114.511 130.943 114.736 133.78C114.952 136.492 115.519 139.805 117.114 142.617L122.333 139.658L127.552 136.698C127.243 136.152 126.864 134.909 126.699 132.828C126.543 130.872 126.613 128.709 126.777 126.739L120.797 126.244ZM122.333 139.658L117.122 142.631C117.743 143.72 118.533 144.725 119.128 145.457C119.881 146.383 120.273 146.823 120.85 147.554C121.358 148.197 121.604 148.577 121.709 148.777C121.845 149.037 121.49 148.516 121.573 147.511L127.553 148.006L133.532 148.502C133.719 146.244 132.944 144.368 132.346 143.222C131.715 142.015 130.914 140.936 130.27 140.121C129.697 139.394 128.835 138.374 128.441 137.889C127.89 137.211 127.642 136.855 127.545 136.684L122.333 139.658ZM127.553 148.006L121.573 147.511C121.529 148.047 121.367 148.673 120.921 150.202C120.517 151.591 119.96 153.491 119.627 155.813L125.567 156.665L131.506 157.517C131.706 156.118 132.039 154.942 132.443 153.558C132.805 152.314 133.369 150.472 133.532 148.502L127.553 148.006ZM125.567 156.665L119.628 155.809C118.791 161.611 117.733 169.138 117.512 171.148L123.476 171.805L129.44 172.462C129.633 170.705 130.652 163.434 131.505 157.522L125.567 156.665ZM123.476 171.805L117.512 171.148C117.451 171.697 117.385 172.487 117.323 173.172C117.256 173.92 117.181 174.7 117.088 175.45C116.993 176.216 116.891 176.849 116.788 177.316C116.651 177.933 116.616 177.765 116.89 177.303L122.052 180.362L127.214 183.421C127.962 182.158 128.317 180.755 128.504 179.912C128.724 178.919 128.88 177.866 128.996 176.928C129.186 175.397 129.402 172.808 129.44 172.462L123.476 171.805ZM122.052 180.362L116.879 177.322C117.172 176.823 117.499 176.474 117.754 176.248C118.007 176.023 118.223 175.888 118.35 175.817C118.582 175.687 118.67 175.684 118.508 175.727C118.369 175.763 118.132 175.809 117.8 175.843C117.474 175.877 117.104 175.894 116.716 175.889C116.328 175.884 115.949 175.858 115.606 175.815C115.257 175.771 114.988 175.715 114.806 175.666C114.605 175.611 114.615 175.592 114.761 175.671C114.842 175.715 115.003 175.809 115.206 175.974C115.407 176.139 115.693 176.408 115.975 176.809L111.065 180.257L106.154 183.705C107.802 186.052 110.407 186.904 111.645 187.242C113.244 187.678 114.978 187.868 116.567 187.888C118.149 187.908 119.902 187.763 121.524 187.341C122.336 187.13 123.286 186.807 124.215 186.286C125.108 185.786 126.344 184.9 127.225 183.402L122.052 180.362ZM111.065 180.257L115.975 176.809C116.326 177.309 116.508 177.924 116.52 178.468C116.53 178.9 116.427 179.07 116.516 178.827C116.604 178.586 116.776 178.21 117.114 177.574C117.277 177.266 117.453 176.947 117.66 176.57C117.859 176.206 118.084 175.795 118.31 175.368L113.007 172.562L107.704 169.756C107.165 170.774 105.897 172.919 105.242 174.715C104.474 176.822 103.788 180.336 106.154 183.705L111.065 180.257ZM113.007 172.562L118.305 175.377C119.148 173.791 119.775 171.661 120.242 169.789C120.748 167.759 121.208 165.435 121.584 163.133C122.296 158.776 122.856 153.616 122.568 150.57L116.595 151.135L110.622 151.7C110.749 153.043 110.456 156.825 109.741 161.198C109.404 163.261 109.006 165.25 108.599 166.884C108.395 167.701 108.2 168.383 108.023 168.917C107.935 169.182 107.86 169.388 107.798 169.54C107.734 169.699 107.702 169.759 107.709 169.746L113.007 172.562ZM116.595 151.135L122.568 150.57C122.23 146.995 120.796 144.305 119.391 142.234C118.725 141.253 117.991 140.309 117.428 139.571C116.821 138.776 116.334 138.121 115.906 137.455L110.857 140.696L105.807 143.936C106.521 145.049 107.27 146.041 107.889 146.851C108.55 147.718 109.031 148.338 109.462 148.974C110.251 150.136 110.545 150.886 110.622 151.7L116.595 151.135ZM110.857 140.696L115.906 137.455C114.87 135.839 113.176 132.65 111.72 129.805L106.379 132.538L101.038 135.271C102.447 138.026 104.4 141.744 105.807 143.936L110.857 140.696ZM106.379 132.538L105.64 126.584C104.064 126.78 102.65 126.826 101.378 126.877C100.834 126.898 100.069 126.928 99.417 127.007C99.1166 127.044 98.495 127.128 97.8098 127.358C97.5711 127.438 95.0705 128.192 93.9638 130.929L99.5265 133.178L105.089 135.427C104.516 136.845 103.555 137.665 102.969 138.064C102.385 138.462 101.869 138.654 101.625 138.736C101.351 138.827 101.142 138.871 101.048 138.89C100.944 138.91 100.879 138.918 100.871 138.919C100.866 138.919 100.935 138.911 101.131 138.9C101.318 138.889 101.548 138.879 101.852 138.867C103.028 138.821 104.954 138.761 107.118 138.493L106.379 132.538ZM99.5265 133.178L93.9878 130.871C93.7015 131.558 93.531 132.23 93.4295 132.67C93.319 133.148 93.2262 133.643 93.1513 134.053C92.9827 134.978 92.8737 135.624 92.7241 136.228L98.548 137.671L104.372 139.114C104.637 138.043 104.832 136.887 104.957 136.207C105.028 135.815 105.079 135.556 105.122 135.37C105.174 135.145 105.166 135.243 105.065 135.485L99.5265 133.178ZM98.548 137.671L92.7241 136.228C92.4576 137.304 91.7156 141.191 91.0474 144.929C90.3872 148.623 89.6603 152.934 89.5128 154.759L95.4933 155.243L101.474 155.726C101.564 154.615 102.156 150.979 102.86 147.041C103.197 145.155 103.539 143.312 103.821 141.843C103.962 141.108 104.087 140.475 104.187 139.984C104.237 139.737 104.279 139.535 104.313 139.377C104.33 139.299 104.344 139.236 104.355 139.188C104.36 139.164 104.364 139.146 104.367 139.133C104.371 139.119 104.372 139.113 104.372 139.114L98.548 137.671ZM95.4933 155.243L89.5137 154.748C89.3827 156.333 88.7869 161.292 88.2003 166.473C87.9141 169 87.6361 171.534 87.4356 173.604C87.2568 175.45 87.0782 177.483 87.1254 178.623L93.1203 178.374L99.1151 178.126C99.1178 178.192 99.1139 177.961 99.166 177.223C99.2114 176.581 99.2842 175.747 99.3797 174.761C99.5704 172.792 99.8392 170.339 100.124 167.823C100.679 162.917 101.322 157.563 101.473 155.737L95.4933 155.243ZM93.1203 178.374L87.1254 178.623C87.1854 180.07 87.367 181.522 87.4312 182.22C87.5055 183.027 87.5142 183.532 87.4471 184.08L93.4025 184.81L99.3579 185.54C99.5726 183.789 99.4921 182.33 99.3807 181.12C99.2594 179.802 99.1589 179.184 99.1151 178.126L93.1203 178.374ZM93.4025 184.81L87.4496 184.059C87.5535 183.236 87.9177 182.509 88.3841 181.983C88.8035 181.511 89.1832 181.334 89.2539 181.302C89.3304 181.269 89.2514 181.315 88.9483 181.364C88.6568 181.412 88.2405 181.45 87.6935 181.45L87.6935 187.45L87.6935 193.45C89.7319 193.45 92.0373 193.191 94.0995 192.281C96.2472 191.333 98.8896 189.254 99.3553 185.561L93.4025 184.81ZM87.6935 187.45V181.45C87.1551 181.45 86.7323 181.411 86.4258 181.359C86.1084 181.306 86.0079 181.253 86.0596 181.277C86.1115 181.3 86.4442 181.461 86.8116 181.89C87.2192 182.366 87.5054 182.986 87.5914 183.634L81.6437 184.424L75.696 185.215C76.1887 188.922 78.7444 191.125 81.0646 192.188C83.2331 193.18 85.6407 193.45 87.6935 193.45V187.45ZM81.6437 184.424L87.5917 183.636C87.6884 184.365 87.4983 184.761 87.5553 184.609C87.6013 184.487 87.7314 184.214 88.0245 183.743C88.3483 183.224 88.5966 182.881 89.0398 182.215C89.2217 181.941 89.4611 181.574 89.6818 181.185C89.864 180.865 90.2462 180.168 90.4865 179.288L84.6984 177.707L78.9102 176.127C79.0034 175.786 79.1081 175.546 79.1559 175.442C79.2085 175.327 79.246 175.262 79.2467 175.26C79.2494 175.255 79.2366 175.278 79.1993 175.337C79.1628 175.395 79.114 175.47 79.0476 175.57C78.8378 175.885 78.2808 176.689 77.8391 177.398C77.3668 178.157 76.7712 179.195 76.3238 180.384C75.8873 181.545 75.4359 183.252 75.6957 185.213L81.6437 184.424ZM84.6984 177.707L90.4731 179.336C90.641 178.741 90.7549 177.959 90.8124 177.57C90.8975 176.995 90.9953 176.266 91.1002 175.442C91.3108 173.788 91.562 171.651 91.8144 169.378C92.316 164.86 92.8392 159.653 93.0559 156.55L87.0705 156.132L81.085 155.714C80.8865 158.557 80.3867 163.56 79.8877 168.054C79.6397 170.287 79.3962 172.357 79.1963 173.927C79.0959 174.715 79.0096 175.354 78.9415 175.814C78.8458 176.462 78.8373 176.385 78.9237 176.079L84.6984 177.707ZM87.0705 156.132L93.0559 156.55C93.4535 150.855 94.353 140.153 94.4613 136.53L88.464 136.351L82.4667 136.172C82.3675 139.488 81.5177 149.517 81.085 155.714L87.0705 156.132ZM88.464 136.351L94.4613 136.532C94.5106 134.896 94.5355 133.008 94.2201 131.43C94.0569 130.613 93.6956 129.275 92.7189 128.017C91.5625 126.526 89.9136 125.62 88.1198 125.388L87.3527 131.339L86.5855 137.29C86.0351 137.219 85.3929 137.039 84.7469 136.673C84.0981 136.306 83.5995 135.839 83.2385 135.373C82.5837 134.53 82.4548 133.792 82.4527 133.781C82.4385 133.71 82.4687 133.838 82.4827 134.312C82.4958 134.759 82.4912 135.358 82.4667 136.17L88.464 136.351ZM87.3527 131.339L88.1685 125.395C84.8405 124.938 82.7537 127.035 81.9713 128.108C81.2082 129.155 80.8177 130.279 80.606 130.977C80.1469 132.491 79.8363 134.439 79.5853 136.545L85.5431 137.255L91.501 137.965C91.7393 135.965 91.9554 134.902 92.0897 134.459C92.1747 134.179 92.0976 134.588 91.6682 135.177C91.4309 135.502 90.9203 136.113 90.0405 136.613C89.0629 137.168 87.8348 137.462 86.5368 137.284L87.3527 131.339ZM85.5431 137.255L79.5839 136.557C79.2363 139.524 77.9453 147.93 77.349 153.922L83.3195 154.516L89.29 155.11C89.9098 148.883 91.0196 142.074 91.5024 137.953L85.5431 137.255ZM83.3195 154.516L77.348 153.931C77.0537 156.938 76.2991 162.114 75.5957 166.994C75.2512 169.384 74.9218 171.686 74.6852 173.513C74.5672 174.424 74.4665 175.26 74.3979 175.953C74.3448 176.49 74.2607 177.386 74.3032 178.156L80.2941 177.826L86.285 177.495C86.3015 177.795 86.2731 177.807 86.3396 177.135C86.3907 176.619 86.4736 175.92 86.5857 175.054C86.8094 173.328 87.126 171.113 87.473 168.706C88.1525 163.992 88.9626 158.455 89.2909 155.101L83.3195 154.516ZM80.2941 177.826L74.3032 178.156C74.3207 178.474 74.3472 178.808 74.3674 179.066C74.3896 179.349 74.4081 179.587 74.4222 179.823C74.4518 180.316 74.4479 180.599 74.4346 180.748C74.4169 180.945 74.4101 180.586 74.7158 180.02C74.8883 179.701 75.1716 179.295 75.6129 178.913C76.0658 178.521 76.5802 178.245 77.0942 178.086L78.8703 183.817L80.6463 189.548C85.4798 188.05 86.2437 183.416 86.3868 181.818C86.544 180.062 86.3008 177.782 86.285 177.495L80.2941 177.826ZM78.8703 183.817L77.1014 178.083C77.3708 178 77.3421 178.036 76.8161 178.103C76.4001 178.156 75.8457 178.205 75.2249 178.231C73.8862 178.286 72.7003 178.21 72.0053 178.047L70.6408 183.89L69.2763 189.733C71.5018 190.253 73.9261 190.295 75.7198 190.221C77.3835 190.152 79.3574 189.946 80.6391 189.55L78.8703 183.817ZM70.6408 183.89L72.0015 178.046C71.8715 178.016 72.91 178.222 73.7485 179.469C74.6253 180.774 74.4915 182.027 74.4082 182.431C74.3359 182.782 74.249 182.841 74.4149 182.562C74.5505 182.333 74.745 182.063 74.973 181.775L70.2707 178.048L65.5683 174.322C64.9754 175.07 63.2126 177.306 62.6555 180.007C62.3348 181.563 62.2844 183.925 63.7894 186.164C65.256 188.346 67.4677 189.312 69.28 189.734L70.6408 183.89ZM70.2707 178.048L74.9732 181.775C77.0352 179.172 78.5649 175.636 79.7037 169.795L73.8146 168.647L67.9255 167.499C66.9885 172.304 65.9971 173.78 65.5681 174.322L70.2707 178.048ZM73.8146 168.647L79.7006 169.811C80.8276 164.113 82.0021 152.798 82.1116 146.419L76.1124 146.316L70.1133 146.213C70.0152 151.933 68.9073 162.534 67.9286 167.483L73.8146 168.647ZM76.1124 146.316L82.1116 146.418C82.1658 143.247 82.0846 138.749 81.9937 135.12C81.9479 133.29 81.8988 131.651 81.8611 130.471C81.8423 129.88 81.8263 129.403 81.8151 129.073C81.8094 128.908 81.8049 128.78 81.8018 128.693C81.8003 128.649 81.7991 128.615 81.7983 128.593C81.7979 128.581 81.7976 128.573 81.7973 128.567C81.7972 128.564 81.7972 128.561 81.7971 128.56C81.7971 128.559 81.797 128.558 81.797 128.558C81.797 128.557 81.797 128.557 81.797 128.557C81.797 128.557 81.797 128.557 75.8009 128.774C69.8048 128.991 69.8048 128.991 69.8048 128.991C69.8048 128.991 69.8049 128.991 69.8049 128.991C69.8049 128.991 69.8049 128.992 69.8049 128.992C69.8049 128.993 69.805 128.995 69.8051 128.998C69.8053 129.003 69.8056 129.011 69.8059 129.021C69.8067 129.042 69.8078 129.074 69.8093 129.116C69.8122 129.199 69.8166 129.323 69.8221 129.484C69.8331 129.806 69.8487 130.273 69.8672 130.853C69.9042 132.014 69.9525 133.624 69.9975 135.421C70.0883 139.047 70.1628 143.32 70.1133 146.213L76.1124 146.316ZM75.8009 128.774L80.49 125.031C80.4917 125.033 79.381 123.641 78.0477 121.878C76.6641 120.048 75.2329 118.069 74.4768 116.813L69.3361 119.907L64.1954 123.001C65.3165 124.863 67.1035 127.3 68.4759 129.115C69.8985 130.997 71.0817 132.479 71.1118 132.517L75.8009 128.774ZM69.3361 119.907L74.4767 116.812C73.2472 114.77 71.2167 109.658 70.7315 100.189L64.7394 100.496L58.7473 100.803C59.2999 111.59 61.6585 118.786 64.1955 123.001L69.3361 119.907ZM64.7394 100.496L70.7315 100.189C70.5187 96.0429 71.2089 93.0813 71.9973 90.8221C72.4121 89.6334 72.857 88.6245 73.3346 87.5235C73.7378 86.5937 74.371 85.1599 74.694 83.7179L68.839 82.4066L62.984 81.0954C62.9849 81.0915 62.957 81.21 62.8364 81.5255C62.716 81.8401 62.5565 82.2158 62.3254 82.7487C61.8877 83.758 61.2545 85.1859 60.6674 86.8684C59.4518 90.3516 58.4427 94.8699 58.7473 100.804L64.7394 100.496ZM68.839 82.4066L68.6891 76.4085C65.8938 76.4784 61.664 76.5811 58.2529 76.644L58.3634 82.6429L58.4739 88.6419C61.9285 88.5783 66.1936 88.4746 68.9889 88.4047L68.839 82.4066ZM58.3634 82.6429L58.253 76.644C57.0717 76.6657 56.5704 76.5239 56.4684 76.4895C56.4273 76.4756 56.4671 76.4848 56.5525 76.5385C56.6399 76.5934 56.7202 76.6603 56.7815 76.7225L52.5089 80.9349L48.2364 85.1474C50.6963 87.6425 54.0925 88.7226 58.4739 88.6419L58.3634 82.6429ZM52.5089 80.9349L54.0742 75.1427C54.0786 75.1439 54.4834 75.2486 55.0216 75.6348C55.6108 76.0576 56.3113 76.7896 56.7369 77.8888C57.5732 80.0491 56.7355 81.8208 56.4416 82.3681L51.1554 79.5297L45.8693 76.6912C45.5639 77.26 44.4878 79.487 45.5462 82.221C46.6642 85.1092 49.2412 86.2671 50.9436 86.7272L52.5089 80.9349ZM51.1554 79.5297C53.2156 73.8945 53.22 73.8961 53.2244 73.8977C53.2259 73.8982 53.2303 73.8998 53.2332 73.9009C53.239 73.9031 53.2449 73.9052 53.2507 73.9074C53.2623 73.9117 53.2738 73.9161 53.2852 73.9204C53.3081 73.9291 53.3307 73.9379 53.3531 73.9467C53.3977 73.9643 53.4411 73.9821 53.4835 74.0001C53.5682 74.0362 53.6486 74.0731 53.7249 74.1107C53.8776 74.1859 54.0143 74.264 54.1364 74.3438C54.3846 74.506 54.5611 74.6675 54.6798 74.8042C54.9525 75.1183 54.7651 75.1139 54.6333 74.2926L48.7091 75.2435L42.785 76.1945C43.2315 78.9764 44.2673 81.1151 45.6185 82.6714C46.2765 83.4292 46.9561 83.9867 47.5727 84.3895C47.8789 84.5897 48.166 84.7493 48.4231 84.8759C48.5516 84.9392 48.6727 84.9943 48.7851 85.0421C48.8413 85.066 48.8953 85.0881 48.947 85.1085C48.9729 85.1187 48.9982 85.1285 49.0229 85.1379C49.0352 85.1426 49.0474 85.1472 49.0595 85.1517C49.0655 85.1539 49.0715 85.1562 49.0775 85.1584C49.0804 85.1594 49.0849 85.1611 49.0864 85.1616C49.0908 85.1633 49.0952 85.1649 51.1554 79.5297ZM48.7091 75.2435L54.6333 74.2929C54.4516 73.1604 54.5308 72.4464 54.6015 72.1038C54.6379 71.9278 54.6724 71.8476 54.6702 71.8526C54.669 71.8555 54.6557 71.8865 54.6242 71.9422C54.5941 71.9955 54.5368 72.0901 54.4432 72.2149L49.6427 68.6156L44.8422 65.0163C43.0526 67.4032 42.0043 71.3293 42.7849 76.1942L48.7091 75.2435ZM49.6427 68.6156L54.4017 72.2697C53.5807 73.3389 52.4669 73.8689 51.5433 74.0457L50.4152 68.1527L49.2871 62.2597C47.7577 62.5525 46.1053 63.3706 44.8837 64.9615L49.6427 68.6156ZM50.4152 68.1527L54.1117 72.8787C53.9141 73.0333 53.7511 73.1296 53.6557 73.1813C53.5589 73.2337 53.499 73.2579 53.4924 73.2606C53.4923 73.2606 53.5839 73.2253 53.8243 73.1616C54.0635 73.0982 54.3327 73.0365 54.7119 72.9512C55.0436 72.8765 55.5213 72.7703 55.9763 72.6493L54.4337 66.851L52.8911 61.0526C52.7065 61.1018 52.476 61.1542 52.0769 61.2441C51.7252 61.3232 51.2407 61.432 50.7493 61.5623C49.9664 61.7698 48.2204 62.252 46.7186 63.4267L50.4152 68.1527ZM54.4337 66.851L55.9659 72.652C57.7325 72.1854 59.7121 71.3474 60.2363 71.1228L57.8732 65.6078L55.5101 60.0927C55.2913 60.1865 54.8379 60.3769 54.3113 60.5767C53.7577 60.7866 53.2538 60.9569 52.9016 61.0499L54.4337 66.851ZM57.8732 65.6078L58.6777 59.662C58.6878 59.6633 58.6938 59.6642 58.6923 59.664C58.6887 59.6635 58.6874 59.6633 58.6721 59.6611C58.6519 59.6582 58.5937 59.6497 58.5262 59.641L57.755 65.5912L56.9838 71.5414C56.9677 71.5393 56.9562 71.5377 56.952 71.5372C56.9484 71.5366 56.9477 71.5365 56.9558 71.5377C56.9603 71.5383 56.9787 71.541 56.9948 71.5433C57.013 71.5459 57.0388 71.5496 57.0687 71.5536L57.8732 65.6078ZM57.755 65.5912L60.5481 70.9014C62.7176 69.7603 64.2834 68.0807 65.1786 66.9878C66.1312 65.8249 66.7055 64.8507 66.8016 64.6848L61.6105 61.6762L56.4194 58.6675C56.5123 58.507 56.2995 58.8904 55.8955 59.3837C55.6979 59.6248 55.4929 59.8451 55.2975 60.0215C55.2026 60.1072 55.1226 60.1712 55.0597 60.2167C55.029 60.2389 55.0048 60.2549 54.9876 60.2657C54.9703 60.2765 54.9617 60.2811 54.9619 60.281L57.755 65.5912ZM61.6105 61.6762L66.0178 57.6048C66.0244 57.6119 64.7515 56.2341 63.1118 54.3755C61.4492 52.4911 59.5092 50.2249 58.134 48.425L53.3664 52.0678L48.5987 55.7105C50.2424 57.8617 52.4138 60.3882 54.1134 62.3145C55.8357 64.2667 57.1755 65.7175 57.2032 65.7475L61.6105 61.6762ZM53.3664 52.0678L58.134 48.425C56.6006 46.4181 54.4715 43.6081 52.9065 41.1045C52.1049 39.8221 51.6226 38.8873 51.4129 38.3347C51.3041 38.0479 51.3779 38.1431 51.4076 38.5093C51.433 38.8225 51.4908 40.1597 50.4668 41.5459L45.6408 37.9808L40.8148 34.4158C39.4238 36.2988 39.3532 38.325 39.4468 39.4792C39.5447 40.6865 39.8833 41.7746 40.1936 42.5923C40.8221 44.2486 41.7958 45.969 42.7309 47.4651C44.6395 50.5183 47.1071 53.7583 48.5987 55.7105L53.3664 52.0678ZM45.6408 37.9808L50.471 41.5402C49.7026 42.5829 48.7513 43.0486 48.1835 43.2383C47.649 43.4169 47.2922 43.4122 47.275 43.4122C47.2587 43.4121 47.62 43.4293 48.4346 43.6613C49.9946 44.1056 52.0505 44.998 53.8504 46.0347L56.8449 40.8353L59.8394 35.636C57.3656 34.2113 54.4034 32.8841 51.7217 32.1203C50.4154 31.7483 48.85 31.4143 47.2911 31.4122C46.0894 31.4106 42.8924 31.5962 40.8105 34.4215L45.6408 37.9808ZM56.8449 40.8353L61.7107 37.3248C61.3359 36.8053 58.7868 33.2211 57.0914 29.8544L51.7326 32.5531L46.3737 35.2518C48.5271 39.5278 51.5596 43.7645 51.9791 44.3459L56.8449 40.8353ZM51.7326 32.5531L57.0914 29.8545C56.1606 28.006 54.9715 25.2685 53.9729 22.8779C53.483 21.7053 53.0551 20.6549 52.7484 19.8947C52.5952 19.515 52.4727 19.2087 52.3884 18.997C52.3463 18.8912 52.3137 18.8091 52.2916 18.7533C52.2805 18.7254 52.2721 18.7042 52.2664 18.6898C52.2636 18.6826 52.2614 18.6772 52.26 18.6735C52.2585 18.6698 52.2578 18.668 52.2578 18.668L46.6759 20.8685L41.094 23.0691C41.1123 23.1154 41.8756 25.0507 42.9001 27.5033C43.9074 29.9146 45.2361 32.9926 46.3737 35.2517L51.7326 32.5531ZM46.6759 20.8685C50.4454 16.2005 50.4466 16.2014 50.4477 16.2023C50.4481 16.2026 50.4492 16.2035 50.45 16.2041C50.4515 16.2053 50.4529 16.2065 50.4544 16.2077C50.4573 16.2101 50.4601 16.2124 50.4628 16.2146C50.4683 16.2191 50.4735 16.2233 50.4783 16.2273C50.488 16.2352 50.4965 16.2422 50.5037 16.2482C50.5182 16.2603 50.528 16.2688 50.5337 16.2736C50.5448 16.2833 50.5402 16.2796 50.5234 16.2639C50.4878 16.2306 50.4139 16.1583 50.3251 16.057C50.118 15.8203 49.9942 15.6126 49.9509 15.5039L44.3771 17.725L38.8033 19.946C39.5163 21.7353 40.5419 23.0994 41.2951 23.96C41.6865 24.4073 42.0455 24.765 42.3227 25.0246C42.4624 25.1553 42.5842 25.2638 42.6827 25.349C42.732 25.3916 42.7757 25.4287 42.8131 25.4599C42.8319 25.4756 42.849 25.4898 42.8646 25.5026C42.8724 25.5089 42.8798 25.515 42.8868 25.5207C42.8902 25.5235 42.8936 25.5262 42.8969 25.5289C42.8985 25.5302 42.9002 25.5315 42.9017 25.5328C42.9025 25.5335 42.9037 25.5344 42.9041 25.5347C42.9053 25.5357 42.9064 25.5366 46.6759 20.8685ZM44.3771 17.725L49.9398 15.4764C49.9703 15.5519 50.0769 15.8331 49.9043 16.3508C49.8054 16.6476 49.6086 17.0183 49.2642 17.3566C48.9098 17.7049 48.5343 17.8854 48.2735 17.9604L46.6164 12.1937L44.9593 6.4271C41.6644 7.37391 39.4533 9.75682 38.5202 12.5559C37.6617 15.1312 37.9387 17.8073 38.8144 19.9736L44.3771 17.725Z" fill="white" mask="url(#path-1-outside-1_1062_20677)"/>
<path d="M121.518 120.648L104.184 128.166C104.184 128.166 108.573 137.137 110.856 140.696C113.14 144.255 116.18 146.746 116.595 151.135C117.01 155.524 114.89 169.018 113.006 172.562C111.39 175.616 109.596 178.167 111.064 180.257C112.532 182.348 120.806 182.482 122.052 180.361C123.001 178.76 123.268 173.689 123.475 171.805C123.683 169.922 124.721 162.523 125.566 156.666C126.1 152.944 127.345 150.512 127.553 148.006C127.761 145.5 123.772 142.179 122.333 139.658C119.012 133.801 121.518 120.648 121.518 120.648Z" fill="#4783BE"/>
<path d="M139.472 104.055L145.003 107.703C145.003 107.703 152.832 107.91 154.611 100.496C155.99 94.728 154.611 88.7374 152.002 90.4723C151.379 90.8875 148.977 98.7168 148.977 98.7168L139.472 104.055Z" fill="#A8D0F7"/>
<path d="M62.4412 65.1162L58.0521 65.5313C58.0521 65.5313 56.0057 66.436 54.4339 66.8511C52.8177 67.2811 50.3265 67.5628 49.9113 68.8232C49.4962 70.0689 49.5852 76.8453 51.0532 78.8916C52.0911 80.3597 52.7287 82.7469 58.3634 82.6431C63.9981 82.5394 71.8274 82.3318 71.8274 82.3318L69.4252 67.3108L62.4412 65.1162Z" fill="#A8D0F7"/>
<path d="M86.9666 54.1583C86.9666 54.1583 83.5265 49.4578 76.9872 50.1547C72.4201 50.6439 68.0755 54.0545 68.0755 54.0545C68.0755 54.0545 63.5825 45.8099 59.6234 42.6812C55.6642 39.5524 47.0935 36.0085 45.6403 37.9806C44.1723 39.9677 50.3408 48.1083 53.3658 52.0675C56.3908 56.0266 61.6104 61.6762 61.6104 61.6762C61.6104 61.6762 60.0385 64.3897 57.755 65.5908C60.1572 65.9022 63.2118 66.7029 65.5102 69.9948C67.942 73.4795 69.6176 78.8325 68.8465 82.3764C68.1644 85.5051 64.2201 90.3836 64.7392 100.496C65.2581 110.624 67.4527 116.778 69.3359 119.907C71.219 123.035 75.801 128.774 75.801 128.774C75.801 128.774 76.2161 140.251 76.1124 146.316C76.0086 152.366 74.8668 163.324 73.814 168.647C72.776 173.97 71.5156 176.476 70.2701 178.048C69.0244 179.62 66.7557 182.986 70.6408 183.89C73.5618 184.573 77.8621 184.128 78.8704 183.816C80.976 183.164 80.3978 179.709 80.294 177.826C80.1901 175.943 82.6961 160.877 83.3188 154.516C83.9269 148.407 85.128 140.8 85.5431 137.256C86.0325 133.148 86.5959 131.235 87.3521 131.339C88.3902 131.473 88.5681 132.911 88.4643 136.351C88.3605 139.821 87.4855 150.186 87.0704 156.132C86.6551 162.078 85.0242 176.551 84.6979 177.707C84.3864 178.849 81.317 181.963 81.6433 184.424C81.9251 186.545 84.4607 187.449 87.6932 187.449C90.9258 187.449 93.1796 186.574 93.402 184.81C93.6839 182.512 93.2242 180.88 93.1204 178.374C93.0166 175.869 95.2111 158.653 95.4929 155.242C95.7301 152.306 98.1323 139.347 98.5475 137.671C98.9626 135.995 99.1554 134.068 99.5261 133.178C99.8078 132.481 107.43 133.593 113.895 130.464C120.36 127.336 124.438 123.154 124.438 123.154C124.438 123.154 129.034 129.308 131.333 132.125C133.631 134.943 141.772 145.797 142.083 149.667C142.395 153.522 142.81 167.416 142.81 171.272C142.81 175.127 142.706 178.063 142.395 178.893C142.083 179.724 138.435 184.632 139.473 186.411C140.511 188.191 143.403 188.636 146.71 188.294C150.135 187.939 151.662 186.485 152.211 184.335C153.189 180.51 151.647 164.747 151.87 156.71C152.077 148.673 153.264 145.93 152.433 143.839C151.603 141.749 147.525 136.84 146.28 130.583C145.034 124.325 146.176 119.625 146.176 114.094C146.176 108.563 145.864 105.227 145.864 105.227C145.864 105.227 150.046 103.64 151.766 100.526C153.486 97.3974 154.109 90.3985 152.552 90.1909C150.98 89.9832 148.756 94.2093 147.851 95.2028C146.324 96.8783 143.255 97.6049 143.255 97.6049C143.255 97.6049 139.814 88.3226 129.687 86.4393C119.559 84.5562 107.296 89.6868 100.876 90.9323C94.4105 92.1778 90.4364 93.0231 89.3985 91.1398C88.3605 89.2567 89.7098 85.5051 91.9044 81.8573C94.099 78.2095 95.2112 75.8075 95.5225 73.3016C95.8339 70.7956 95.8636 68.1858 95.8636 68.1858C95.8636 68.1858 103.382 66.8216 107.978 61.7207C112.575 56.6049 116.638 45.8544 118.002 43.1409C119.366 40.4272 120.508 39.9083 119.885 38.4403C119.263 36.9724 110.81 36.5571 105.591 38.0251C100.846 39.3596 94.1139 43.6599 91.4003 47.1C88.6422 50.5105 86.9666 54.1583 86.9666 54.1583Z" fill="#6AA6E0"/>
<path d="M92.9887 61.0831C90.8831 59.0664 91.1796 55.5817 94.5901 51.415C98.0007 47.2483 102.153 44.6682 105.934 43.2002C108.988 42.0139 113.214 40.8573 114.149 41.7322C114.579 42.1474 111.969 47.4263 108.84 52.4826C105.963 57.1387 102.39 60.6531 99.602 61.7058C97.1405 62.6252 94.5901 62.6104 92.9887 61.0831Z" fill="#A8D0F7"/>
<path d="M50.1797 42.058C49.6905 42.9627 52.5374 46.3287 56.4966 51.4592C59.5067 55.359 61.5234 58.2357 63.0358 58.4878C63.97 58.6509 64.9338 57.7464 64.6077 56.2932C64.0293 53.7873 61.8644 50.7623 58.9729 47.7966C55.6218 44.3861 50.6691 41.1534 50.1797 42.058Z" fill="#A8D0F7"/>
<path d="M78.4571 72.7046C82.5755 72.7046 85.9142 69.4129 85.9142 65.3523C85.9142 61.2917 82.5755 58 78.4571 58C74.3387 58 71 61.2917 71 65.3523C71 69.4129 74.3387 72.7046 78.4571 72.7046Z" fill="white"/>
<path d="M78.1618 69.2865C80.4079 69.2865 82.2288 67.4923 82.2288 65.2792C82.2288 63.0661 80.4079 61.272 78.1618 61.272C75.9156 61.272 74.0947 63.0661 74.0947 65.2792C74.0947 67.4923 75.9156 69.2865 78.1618 69.2865Z" fill="black"/>
<path d="M51.6298 77.4385C51.6298 77.4385 55.7521 74.8286 55.7521 72.6934C55.7521 71.0178 54.1507 69.6536 52.5196 68.675C51.6149 68.1412 50.2804 67.7853 49.6428 68.6157C49.0201 69.446 48.1304 71.6406 48.7086 75.2439C49.287 78.8471 51.1554 79.5293 51.1554 79.5293C51.1554 79.5293 50.1173 81.4124 56.5825 81.2493C63.0476 81.0861 63.1514 79.4699 63.003 78.5358C62.84 77.6016 58.9253 77.646 56.8494 77.9574C53.7799 78.432 51.6298 77.4385 51.6298 77.4385Z" fill="#474747"/>
<path d="M82.6817 52.7047C82.6817 52.7047 86.0182 44.6678 86.7596 41.5835C87.323 39.1963 87.3822 34.9109 87.4416 32.3456C87.4565 31.3817 86.8189 30.5661 86.8633 29.0092C86.9227 27.2447 87.8865 25.4801 90.1997 25.4059C92.3498 25.3467 93.5953 26.874 93.6991 28.594C93.8029 30.3735 92.9725 31.3076 92.9133 32.3456C92.7502 35.1184 92.4387 40.59 92.4387 40.59C92.4387 40.59 96.6648 36.631 97.1392 35.4298C97.6137 34.2285 97.6583 28.1789 97.6583 26.9778V24.101C97.6583 24.101 96.4275 22.3514 96.4572 20.8091C96.472 19.5784 97.3914 17.7249 99.4376 17.6804C101.647 17.6212 102.581 19.0742 102.729 20.6016C102.863 22.1289 102.107 23.5228 102.107 23.5228L101.899 29.9434C101.899 29.9434 104.242 26.8591 105.191 25.5542C106.125 24.2494 107.178 22.1586 107.178 22.1586C107.178 22.1586 106.644 20.4237 106.867 18.7185C107.074 17.1762 108.112 15.4858 110.262 15.4266C112.353 15.382 113.495 16.9983 113.495 18.7185C113.495 21.3282 111.923 23.1075 111.923 23.1075C111.923 23.1075 108.068 30.6699 105.087 34.5846C102.922 37.4316 101.44 39.5373 100.49 40.1155C99.5563 40.6938 93.5953 44.0302 90.8818 48.0486C89.1468 50.6139 86.9671 54.1579 86.9671 54.1579C86.9671 54.1579 85.9439 55.6556 84.0459 54.9437C82.5335 54.3655 82.6817 52.7047 82.6817 52.7047Z" fill="#EAC00F"/>
<path d="M46.6755 20.8683C46.6755 20.8683 49.6561 28.4307 51.732 32.553C53.8079 36.6753 56.8922 40.9013 56.8922 40.9013C56.8922 40.9013 61.1479 44.0893 62.5269 45.7501C65.0328 48.7751 67.9096 54.3653 67.9096 54.3653L71.3349 51.9632L68.2803 46.6992C68.2803 46.6992 68.2209 41.3165 68.2209 39.2406C68.2209 37.5204 68.2803 34.4955 68.2803 34.4955C68.2803 34.4955 69.3035 32.9089 69.3776 31.3075C69.4666 29.4983 68.5028 27.6597 66.3526 27.5559C64.3211 27.4521 63.1645 29.2167 63.0163 30.7884C62.8532 32.3602 63.6983 33.769 63.6983 33.769L63.4907 42.2803C63.4907 42.2803 62.349 40.1451 61.919 39.5668C61.4889 38.9886 60.4807 36.6012 60.2434 36.1711C59.769 35.2814 60.7179 27.8228 60.7179 26.6217C60.7179 25.4206 61.0292 21.9212 61.0292 21.9212C61.0292 21.9212 62.0377 20.3939 62.0228 18.6886C62.008 17.1613 61.1035 15.4709 59.2499 15.3374C57.1591 15.1743 56.0618 16.6719 55.8098 18.0511C55.4983 19.7414 56.2249 21.1798 56.2249 21.1798C56.2249 21.1798 55.8987 28.7866 55.3945 28.6384C54.8163 28.4753 51.3168 19.3559 51.3168 19.3559C51.3168 19.3559 52.1176 17.4579 51.5244 15.0705C50.9757 12.8611 49.1816 11.4673 46.6163 12.1939C44.0361 12.9353 43.532 15.634 44.3771 17.7248C45.1334 19.6228 46.6755 20.8683 46.6755 20.8683Z" fill="#EAC00F"/>
</svg>
