<svg width="200" height="200" viewBox="0 0 200 200" fill="none" xmlns="http://www.w3.org/2000/svg">
<mask id="path-1-outside-1_1347_14009" maskUnits="userSpaceOnUse" x="16.1904" y="15" width="171" height="180" fill="black">
<rect fill="white" x="16.1904" y="15" width="171" height="180"/>
<path d="M91.7607 21C101.904 21 111.413 25.171 118.248 32.25H118.254C119.884 33.9543 121.368 35.8052 122.673 37.8184H122.698C129.886 37.8184 136.387 40.82 141 45.6455V30.8193C141 29.1882 142.348 27.8946 143.977 28.0068C145.494 28.1193 146.617 29.413 146.617 30.9316V54.8301C147.139 56.3335 147.522 57.9015 147.753 59.5195C148.835 60.9558 150.583 61.8587 152.516 61.7568C155.548 61.5878 157.851 59.0002 157.851 55.9629V30.8193C157.851 29.1882 159.199 27.8945 160.828 28.0068C162.345 28.1193 163.468 29.413 163.468 30.9316V56.1318C163.468 59.3381 166.164 61.9256 169.366 61.7568C172.399 61.588 174.702 59.0003 174.702 55.9629V30.9316C174.702 29.4131 175.826 28.1195 177.342 28.0068C178.971 27.8943 180.319 29.1881 180.375 30.8193V70.6445C180.375 75.0319 176.836 78.6885 172.455 78.6885H164.929V88.5879C164.929 88.6377 164.924 88.6869 164.918 88.7354C167.12 90.2432 168.493 92.5922 168.394 95.4463C168.126 103.229 165.955 112.955 158.055 119.564C158.359 120.682 158.519 121.675 158.5 122.5C157.374 125.166 154.584 127.155 152.057 127.002C153.475 145.738 139.565 160.737 135.922 163.42C129.197 168.371 122.469 171.857 115.885 174.185V181.095L124.389 179.34C125.664 179.34 126.833 179.862 127.686 180.707C128.524 181.552 129.053 182.715 129.053 184.004C129.053 186.568 126.953 188.668 124.389 188.668H112.123C110.179 188.668 108.593 187.083 108.593 185.146V176.319C96.7614 179.078 85.5921 178.326 75.9775 175.939L72.7939 185.452C72.1787 187.289 70.172 188.289 68.335 187.674L56.7031 183.779C54.2716 182.965 52.9477 180.308 53.7617 177.876C54.1688 176.66 55.0413 175.719 56.1113 175.186C57.1814 174.652 58.4493 174.526 59.6719 174.936L67.1768 179.307L68.96 173.979C63.1999 172.061 57.9328 169.431 53.3369 166.179C51.117 164.724 49.252 163.294 47.792 161.994C40.5453 155.544 31.9244 140.79 34.3486 124.219C34.2953 124.178 34.2423 124.136 34.1895 124.095C34.1156 124.275 34.0771 124.369 34.0771 124.369C31.5784 124.804 28.6803 122.97 27.2178 120.743C27.036 119.679 27.2485 118.291 27.7441 116.706C24.4747 111.139 23.3806 104.827 23.1953 99.4463C22.9681 92.9505 30.3705 89.0732 37.8105 91.7646L42.9326 93.6191C46.4491 91.0814 51.3373 88.6189 55.1973 92.1348C54.8725 92.4525 54.5521 92.7742 54.2344 93.0977C54.4871 92.8981 54.7427 92.6989 55.001 92.5L55.0576 92.5127C55.1184 92.4687 55.1792 92.4246 55.2402 92.3809V91.9375C55.2439 91.1639 55.2496 89.5012 55.2578 87.79C44.0578 85.1935 35.6797 75.1577 35.6797 63.1309C35.6799 49.2356 46.898 37.9078 60.8281 37.8193L60.8506 37.8076C62.1635 35.8023 63.6516 33.9384 65.2646 32.25C72.1096 25.1765 81.6156 21.0001 91.7607 21ZM143.937 76.8799C140.485 82.1909 135.099 86.1339 128.786 87.7002C128.557 89.5022 128.252 91.1471 128.044 91.5303C128.129 91.5901 128.213 91.6511 128.297 91.7109C131.698 87.243 137.032 89.6007 140.895 92.083C140.995 92.1475 141.101 92.2252 141.215 92.3135L153.777 87.7646C154.672 87.441 155.567 87.2128 156.447 87.0723V78.6885H148.92C147.029 78.6884 145.297 78.0064 143.937 76.8799Z"/>
</mask>
<path d="M91.7607 21C101.904 21 111.413 25.171 118.248 32.25H118.254C119.884 33.9543 121.368 35.8052 122.673 37.8184H122.698C129.886 37.8184 136.387 40.82 141 45.6455V30.8193C141 29.1882 142.348 27.8946 143.977 28.0068C145.494 28.1193 146.617 29.413 146.617 30.9316V54.8301C147.139 56.3335 147.522 57.9015 147.753 59.5195C148.835 60.9558 150.583 61.8587 152.516 61.7568C155.548 61.5878 157.851 59.0002 157.851 55.9629V30.8193C157.851 29.1882 159.199 27.8945 160.828 28.0068C162.345 28.1193 163.468 29.413 163.468 30.9316V56.1318C163.468 59.3381 166.164 61.9256 169.366 61.7568C172.399 61.588 174.702 59.0003 174.702 55.9629V30.9316C174.702 29.4131 175.826 28.1195 177.342 28.0068C178.971 27.8943 180.319 29.1881 180.375 30.8193V70.6445C180.375 75.0319 176.836 78.6885 172.455 78.6885H164.929V88.5879C164.929 88.6377 164.924 88.6869 164.918 88.7354C167.12 90.2432 168.493 92.5922 168.394 95.4463C168.126 103.229 165.955 112.955 158.055 119.564C158.359 120.682 158.519 121.675 158.5 122.5C157.374 125.166 154.584 127.155 152.057 127.002C153.475 145.738 139.565 160.737 135.922 163.42C129.197 168.371 122.469 171.857 115.885 174.185V181.095L124.389 179.34C125.664 179.34 126.833 179.862 127.686 180.707C128.524 181.552 129.053 182.715 129.053 184.004C129.053 186.568 126.953 188.668 124.389 188.668H112.123C110.179 188.668 108.593 187.083 108.593 185.146V176.319C96.7614 179.078 85.5921 178.326 75.9775 175.939L72.7939 185.452C72.1787 187.289 70.172 188.289 68.335 187.674L56.7031 183.779C54.2716 182.965 52.9477 180.308 53.7617 177.876C54.1688 176.66 55.0413 175.719 56.1113 175.186C57.1814 174.652 58.4493 174.526 59.6719 174.936L67.1768 179.307L68.96 173.979C63.1999 172.061 57.9328 169.431 53.3369 166.179C51.117 164.724 49.252 163.294 47.792 161.994C40.5453 155.544 31.9244 140.79 34.3486 124.219C34.2953 124.178 34.2423 124.136 34.1895 124.095C34.1156 124.275 34.0771 124.369 34.0771 124.369C31.5784 124.804 28.6803 122.97 27.2178 120.743C27.036 119.679 27.2485 118.291 27.7441 116.706C24.4747 111.139 23.3806 104.827 23.1953 99.4463C22.9681 92.9505 30.3705 89.0732 37.8105 91.7646L42.9326 93.6191C46.4491 91.0814 51.3373 88.6189 55.1973 92.1348C54.8725 92.4525 54.5521 92.7742 54.2344 93.0977C54.4871 92.8981 54.7427 92.6989 55.001 92.5L55.0576 92.5127C55.1184 92.4687 55.1792 92.4246 55.2402 92.3809V91.9375C55.2439 91.1639 55.2496 89.5012 55.2578 87.79C44.0578 85.1935 35.6797 75.1577 35.6797 63.1309C35.6799 49.2356 46.898 37.9078 60.8281 37.8193L60.8506 37.8076C62.1635 35.8023 63.6516 33.9384 65.2646 32.25C72.1096 25.1765 81.6156 21.0001 91.7607 21ZM143.937 76.8799C140.485 82.1909 135.099 86.1339 128.786 87.7002C128.557 89.5022 128.252 91.1471 128.044 91.5303C128.129 91.5901 128.213 91.6511 128.297 91.7109C131.698 87.243 137.032 89.6007 140.895 92.083C140.995 92.1475 141.101 92.2252 141.215 92.3135L153.777 87.7646C154.672 87.441 155.567 87.2128 156.447 87.0723V78.6885H148.92C147.029 78.6884 145.297 78.0064 143.937 76.8799Z" fill="#46A4FB"/>
<path d="M91.7607 21V15H91.7607L91.7607 21ZM118.248 32.25L113.932 36.4177C115.062 37.5887 116.62 38.25 118.248 38.25V32.25ZM118.254 32.25L122.589 28.1022C121.457 26.9191 119.891 26.25 118.254 26.25V32.25ZM122.673 37.8184L117.638 41.0818C118.744 42.7883 120.639 43.8184 122.673 43.8184V37.8184ZM141 45.6455L136.663 49.7918C138.357 51.5636 140.959 52.1268 143.234 51.2142C145.509 50.3016 147 48.0968 147 45.6455H141ZM143.977 28.0068L144.42 22.0233C144.41 22.0225 144.4 22.0218 144.389 22.021L143.977 28.0068ZM146.617 30.9316H152.617V30.9313L146.617 30.9316ZM146.617 54.8301H140.617C140.617 55.4996 140.729 56.1644 140.949 56.797L146.617 54.8301ZM147.753 59.5195L141.813 60.3676C141.956 61.3708 142.351 62.3214 142.961 63.1306L147.753 59.5195ZM152.516 61.7568L152.831 67.7485C152.837 67.7482 152.843 67.7479 152.849 67.7475L152.516 61.7568ZM160.828 28.0068L161.272 22.0233C161.262 22.0225 161.251 22.0218 161.241 22.0211L160.828 28.0068ZM163.468 30.9316H169.468V30.9313L163.468 30.9316ZM163.468 56.1318H157.468V56.1319L163.468 56.1318ZM169.366 61.7568L169.682 67.7485C169.688 67.7482 169.694 67.7479 169.7 67.7476L169.366 61.7568ZM174.702 30.9316L168.702 30.9313V30.9316H174.702ZM177.342 28.0068L176.928 22.0211C176.918 22.0218 176.907 22.0226 176.897 22.0233L177.342 28.0068ZM180.375 30.8193H186.375C186.375 30.7504 186.374 30.6815 186.371 30.6126L180.375 30.8193ZM180.375 70.6445L186.375 70.6447V70.6445H180.375ZM164.929 78.6885V72.6885C161.615 72.6885 158.929 75.3748 158.929 78.6885H164.929ZM164.918 88.7354L158.963 88.0051C158.69 90.2291 159.679 92.4199 161.528 93.6859L164.918 88.7354ZM168.394 95.4463L162.397 95.2365L162.397 95.2398L168.394 95.4463ZM158.055 119.564L154.205 114.962C152.408 116.466 151.65 118.878 152.265 121.139L158.055 119.564ZM158.5 122.5L164.027 124.834C164.321 124.139 164.481 123.395 164.498 122.641L158.5 122.5ZM152.057 127.002L152.42 121.013C150.69 120.908 148.999 121.556 147.782 122.791C146.566 124.026 145.943 125.726 146.074 127.455L152.057 127.002ZM135.922 163.42L139.479 168.252L139.479 168.252L135.922 163.42ZM115.885 174.185L113.885 168.528C111.488 169.375 109.885 171.642 109.885 174.185H115.885ZM115.885 181.095H109.885C109.885 182.899 110.696 184.607 112.095 185.746C113.494 186.886 115.331 187.335 117.097 186.971L115.885 181.095ZM124.389 179.34V173.34C123.981 173.34 123.575 173.381 123.176 173.464L124.389 179.34ZM127.686 180.707L131.946 176.482C131.934 176.47 131.922 176.459 131.91 176.447L127.686 180.707ZM129.053 184.004H135.053V184.004L129.053 184.004ZM108.593 185.146H102.593V185.146L108.593 185.146ZM108.593 176.319H114.593C114.593 174.488 113.757 172.758 112.323 171.62C110.889 170.481 109.013 170.06 107.23 170.476L108.593 176.319ZM75.9775 175.939L77.423 170.116C74.3866 169.362 71.2806 171.068 70.2877 174.035L75.9775 175.939ZM72.7939 185.452L78.4833 187.358L78.4838 187.356L72.7939 185.452ZM68.335 187.674L66.43 193.363L66.4303 193.363L68.335 187.674ZM56.7031 183.779L54.7977 189.469L54.7982 189.469L56.7031 183.779ZM53.7617 177.876L48.0722 175.971L48.072 175.971L53.7617 177.876ZM56.1113 175.186L53.4353 169.815L53.4351 169.815L56.1113 175.186ZM59.6719 174.936L62.6916 169.751C62.3382 169.545 61.9646 169.376 61.5767 169.246L59.6719 174.936ZM67.1768 179.307L64.157 184.491C65.7167 185.4 67.6025 185.558 69.2916 184.922C70.9807 184.285 72.2937 182.923 72.8666 181.211L67.1768 179.307ZM68.96 173.979L74.6498 175.883C75.1553 174.372 75.0394 172.722 74.3276 171.297C73.6157 169.872 72.3664 168.789 70.8549 168.286L68.96 173.979ZM53.3369 166.179L56.8028 161.281C56.7446 161.24 56.6856 161.2 56.626 161.161L53.3369 166.179ZM47.792 161.994L43.8029 166.476H43.8029L47.792 161.994ZM34.3486 124.219L40.2854 125.087C40.5994 122.941 39.7307 120.793 38.0133 119.468L34.3486 124.219ZM34.1895 124.095L37.8901 119.372C36.4103 118.212 34.4726 117.813 32.6552 118.294C30.8377 118.775 29.3507 120.08 28.6377 121.819L34.1895 124.095ZM34.0771 124.369L35.107 130.28C37.1422 129.926 38.8519 128.549 39.6324 126.636L34.0771 124.369ZM27.2178 120.743L21.3034 121.753C21.4426 122.568 21.7488 123.346 22.2028 124.037L27.2178 120.743ZM27.7441 116.706L33.4708 118.496C33.9759 116.881 33.7751 115.127 32.918 113.668L27.7441 116.706ZM23.1953 99.4463L29.1918 99.2398L29.1916 99.2365L23.1953 99.4463ZM37.8105 91.7646L39.8531 86.123L39.8516 86.1225L37.8105 91.7646ZM42.9326 93.6191L40.89 99.2607C42.7557 99.9362 44.8347 99.6457 46.4437 98.4845L42.9326 93.6191ZM55.1973 92.1348L59.3931 96.4237C60.5735 95.269 61.2257 93.6788 61.1963 92.0278C61.1669 90.3768 60.4583 88.8109 59.2376 87.699L55.1973 92.1348ZM54.2344 93.0977L49.9538 88.8933C47.7344 91.1529 47.6536 94.7484 49.7692 97.1054C51.8848 99.4625 55.4681 99.7692 57.9535 97.8059L54.2344 93.0977ZM55.001 92.5L56.3132 86.6453C54.5741 86.2554 52.7516 86.659 51.3396 87.7466L55.001 92.5ZM55.0576 92.5127L53.7453 98.3674C55.423 98.7434 57.1813 98.3818 58.5742 97.3741L55.0576 92.5127ZM55.2402 92.3809L58.7377 97.2561C60.3086 96.1291 61.2402 94.3142 61.2402 92.3809H55.2402ZM55.2402 91.9375L49.2403 91.9088C49.2403 91.9184 49.2402 91.9279 49.2402 91.9375H55.2402ZM55.2578 87.79L61.2577 87.8189C61.2712 85.0164 59.3429 82.578 56.6129 81.9451L55.2578 87.79ZM35.6797 63.1309L29.6797 63.1308V63.1309H35.6797ZM60.8281 37.8193L60.8662 43.8192C61.8197 43.8132 62.7581 43.5799 63.6035 43.1388L60.8281 37.8193ZM60.8506 37.8076L63.626 43.1271C64.5356 42.6525 65.3084 41.9526 65.8704 41.0942L60.8506 37.8076ZM65.2646 32.25L60.9529 28.0776C60.944 28.0868 60.9351 28.0961 60.9262 28.1054L65.2646 32.25ZM143.937 76.8799L147.764 72.259C146.446 71.1672 144.724 70.6904 143.032 70.9485C141.34 71.2066 139.838 72.1752 138.906 73.6104L143.937 76.8799ZM128.786 87.7002L127.341 81.8768C124.937 82.4734 123.146 84.4867 122.834 86.9444L128.786 87.7002ZM128.044 91.5303L122.77 88.669C121.319 91.3437 122.1 94.6812 124.587 96.4344L128.044 91.5303ZM128.297 91.7109L124.824 96.604C127.463 98.4766 131.111 97.9196 133.071 95.3451L128.297 91.7109ZM140.895 92.083L144.139 87.0357L144.138 87.0354L140.895 92.083ZM141.215 92.3135L137.529 97.0479C139.156 98.3144 141.319 98.657 143.258 97.955L141.215 92.3135ZM153.777 87.7646L151.736 82.1225L151.735 82.1231L153.777 87.7646ZM156.447 87.0723L157.393 92.9972C160.305 92.5324 162.447 90.0208 162.447 87.0723H156.447ZM156.447 78.6885H162.447C162.447 75.3748 159.761 72.6885 156.447 72.6885V78.6885ZM148.92 78.6885L148.92 84.6885H148.92V78.6885ZM91.7607 21V27C100.247 27 108.207 30.4889 113.932 36.4177L118.248 32.25L122.564 28.0823C114.618 19.853 103.56 15 91.7607 15V21ZM118.248 32.25V38.25H118.254V32.25V26.25H118.248V32.25ZM118.254 32.25L113.918 36.3978C115.305 37.8467 116.55 39.4036 117.638 41.0818L122.673 37.8184L127.708 34.5549C126.186 32.2067 124.464 30.0619 122.589 28.1022L118.254 32.25ZM122.673 37.8184V43.8184H122.698V37.8184V31.8184H122.673V37.8184ZM122.698 37.8184V43.8184C128.181 43.8184 133.135 46.1012 136.663 49.7918L141 45.6455L145.337 41.4992C139.638 35.5387 131.59 31.8184 122.698 31.8184V37.8184ZM141 45.6455H147V30.8193H141H135V45.6455H141ZM141 30.8193H147C147 32.5646 145.502 34.1263 143.564 33.9926L143.977 28.0068L144.389 22.021C139.194 21.6629 135 25.8119 135 30.8193H141ZM143.977 28.0068L143.533 33.9904C141.703 33.8547 140.617 32.3356 140.617 30.932L146.617 30.9316L152.617 30.9313C152.617 26.4904 149.284 22.3839 144.42 22.0233L143.977 28.0068ZM146.617 30.9316H140.617V54.8301H146.617H152.617V30.9316H146.617ZM146.617 54.8301L140.949 56.797C141.345 57.9386 141.637 59.132 141.813 60.3676L147.753 59.5195L153.693 58.6714C153.407 56.671 152.933 54.7284 152.286 52.8632L146.617 54.8301ZM147.753 59.5195L142.961 63.1306C145.171 66.0632 148.788 67.9616 152.831 67.7485L152.516 61.7568L152.2 55.7652C152.273 55.7613 152.355 55.7785 152.422 55.8108C152.48 55.8388 152.518 55.8733 152.545 55.9084L147.753 59.5195ZM152.516 61.7568L152.849 67.7475C159.264 67.3901 163.851 61.9774 163.851 55.9629H157.851H151.851C151.851 55.9631 151.851 55.96 151.852 55.9548C151.853 55.9499 151.854 55.9444 151.856 55.9385C151.86 55.9283 151.868 55.9133 151.885 55.8944C151.903 55.8749 151.938 55.8443 151.995 55.8164C152.057 55.7862 152.125 55.7693 152.182 55.7661L152.516 61.7568ZM157.851 55.9629H163.851V30.8193H157.851H151.851V55.9629H157.851ZM157.851 30.8193H163.851C163.851 32.5661 162.352 34.1262 160.415 33.9926L160.828 28.0068L161.241 22.0211C156.047 21.6627 151.851 25.8102 151.851 30.8193H157.851ZM160.828 28.0068L160.384 33.9904C158.552 33.8545 157.468 32.3336 157.468 30.932L163.468 30.9316L169.468 30.9313C169.468 26.4923 166.137 22.3842 161.272 22.0233L160.828 28.0068ZM163.468 30.9316H157.468V56.1318H163.468H169.468V30.9316H163.468ZM163.468 56.1318L157.468 56.1319C157.468 62.7343 163.006 68.1004 169.682 67.7485L169.366 61.7568L169.05 55.7652C169.19 55.7578 169.306 55.8193 169.361 55.8719C169.414 55.9222 169.468 56.0182 169.468 56.1318L163.468 56.1318ZM169.366 61.7568L169.7 67.7476C176.113 67.3905 180.702 61.9786 180.702 55.9629H174.702H168.702C168.702 55.9629 168.702 55.9598 168.703 55.9545C168.704 55.9495 168.706 55.9439 168.708 55.938C168.712 55.9277 168.72 55.9128 168.737 55.8939C168.755 55.8745 168.789 55.8441 168.846 55.8162C168.908 55.7862 168.975 55.7693 169.033 55.7661L169.366 61.7568ZM174.702 55.9629H180.702V30.9316H174.702H168.702V55.9629H174.702ZM174.702 30.9316L180.702 30.932C180.702 32.3347 179.617 33.8542 177.787 33.9903L177.342 28.0068L176.897 22.0233C172.034 22.3848 168.702 26.4916 168.702 30.9313L174.702 30.9316ZM177.342 28.0068L177.755 33.9926C175.777 34.1292 174.432 32.5631 174.379 31.0261L180.375 30.8193L186.371 30.6126C186.206 25.813 182.164 21.6595 176.928 22.0211L177.342 28.0068ZM180.375 30.8193H174.375V70.6445H180.375H186.375V30.8193H180.375ZM180.375 70.6445L174.375 70.6444C174.375 71.8371 173.405 72.6885 172.455 72.6885V78.6885V84.6885C180.268 84.6885 186.375 78.2268 186.375 70.6447L180.375 70.6445ZM172.455 78.6885V72.6885H164.929V78.6885V84.6885H172.455V78.6885ZM164.929 78.6885H158.929V88.5879H164.929H170.929V78.6885H164.929ZM164.929 88.5879H158.929C158.929 88.2713 158.959 88.0359 158.963 88.0051L164.918 88.7354L170.873 89.4656C170.889 89.3379 170.929 89.0041 170.929 88.5879H164.929ZM164.918 88.7354L161.528 93.6859C161.91 93.9472 162.118 94.2097 162.229 94.4173C162.331 94.6084 162.41 94.8589 162.397 95.2365L168.394 95.4463L174.39 95.656C174.569 90.5374 172.022 86.3283 168.308 83.7848L164.918 88.7354ZM168.394 95.4463L162.397 95.2398C162.154 102.293 160.201 109.947 154.205 114.962L158.055 119.564L161.905 124.166C171.709 115.964 174.097 104.164 174.39 95.6528L168.394 95.4463ZM158.055 119.564L152.265 121.139C152.371 121.528 152.434 121.832 152.469 122.057C152.504 122.288 152.501 122.38 152.502 122.359L158.5 122.5L164.498 122.641C164.537 121.007 164.225 119.389 163.845 117.99L158.055 119.564ZM158.5 122.5L152.973 120.166C152.931 120.265 152.856 120.397 152.738 120.54C152.62 120.684 152.485 120.807 152.353 120.9C152.22 120.994 152.131 121.027 152.114 121.033C152.097 121.038 152.204 121 152.42 121.013L152.057 127.002L151.693 132.991C157.3 133.331 162.14 129.304 164.027 124.834L158.5 122.5ZM152.057 127.002L146.074 127.455C146.662 135.22 144.079 142.433 140.707 148.204C137.278 154.072 133.404 157.823 132.364 158.588L135.922 163.42L139.479 168.252C142.083 166.334 146.985 161.245 151.068 154.258C155.207 147.174 158.87 137.519 158.04 126.549L152.057 127.002ZM135.922 163.42L132.364 158.588C126.102 163.199 119.897 166.402 113.885 168.528L115.885 174.185L117.884 179.842C125.041 177.312 132.292 173.543 139.479 168.252L135.922 163.42ZM115.885 174.185H109.885V181.095H115.885H121.885V174.185H115.885ZM115.885 181.095L117.097 186.971L125.601 185.216L124.389 179.34L123.176 173.464L114.672 175.219L115.885 181.095ZM124.389 179.34V185.34C124 185.34 123.673 185.178 123.461 184.967L127.686 180.707L131.91 176.447C129.993 174.546 127.328 173.34 124.389 173.34V179.34ZM127.686 180.707L123.425 184.932C123.22 184.725 123.053 184.395 123.053 184.004L129.053 184.004L135.053 184.004C135.053 181.035 133.828 178.38 131.946 176.482L127.686 180.707ZM129.053 184.004H123.053C123.053 183.255 123.639 182.668 124.389 182.668V188.668V194.668C130.267 194.668 135.053 189.882 135.053 184.004H129.053ZM124.389 188.668V182.668H112.123V188.668V194.668H124.389V188.668ZM112.123 188.668V182.668C113.483 182.668 114.593 183.76 114.593 185.145L108.593 185.146L102.593 185.146C102.593 190.406 106.874 194.668 112.123 194.668V188.668ZM108.593 185.146H114.593V176.319H108.593H102.593V185.146H108.593ZM108.593 176.319L107.23 170.476C96.4676 172.986 86.2718 172.313 77.423 170.116L75.9775 175.939L74.5321 181.763C84.9123 184.339 97.0552 185.171 109.955 182.163L108.593 176.319ZM75.9775 175.939L70.2877 174.035L67.1041 183.548L72.7939 185.452L78.4838 187.356L81.6674 177.844L75.9775 175.939ZM72.7939 185.452L67.1046 183.547C67.5418 182.241 68.9354 181.548 70.2396 181.984L68.335 187.674L66.4303 193.363C71.4087 195.03 76.8156 192.337 78.4833 187.358L72.7939 185.452ZM68.335 187.674L70.2399 181.984L58.6081 178.09L56.7031 183.779L54.7982 189.469L66.43 193.363L68.335 187.674ZM56.7031 183.779L58.6085 178.09C59.3196 178.328 59.6889 179.071 59.4514 179.781L53.7617 177.876L48.072 175.971C46.2065 181.544 49.2236 187.602 54.7977 189.469L56.7031 183.779ZM53.7617 177.876L59.4513 179.781C59.3262 180.154 59.0639 180.418 58.7875 180.556L56.1113 175.186L53.4351 169.815C51.0186 171.02 49.0114 173.166 48.0722 175.971L53.7617 177.876ZM56.1113 175.186L58.7874 180.556C58.4967 180.701 58.1193 180.743 57.767 180.625L59.6719 174.936L61.5767 169.246C58.7793 168.309 55.8661 168.604 53.4353 169.815L56.1113 175.186ZM59.6719 174.936L56.6521 180.12L64.157 184.491L67.1768 179.307L70.1965 174.122L62.6916 169.751L59.6719 174.936ZM67.1768 179.307L72.8666 181.211L74.6498 175.883L68.96 173.979L63.2702 172.074L61.487 177.402L67.1768 179.307ZM68.96 173.979L70.8549 168.286C65.6116 166.54 60.8813 164.167 56.8028 161.281L53.3369 166.179L49.871 171.076C54.9843 174.695 60.7881 177.582 67.065 179.671L68.96 173.979ZM53.3369 166.179L56.626 161.161C54.6153 159.843 52.9906 158.589 51.7811 157.512L47.792 161.994L43.8029 166.476C45.5135 167.999 47.6187 169.605 50.0479 171.197L53.3369 166.179ZM47.792 161.994L51.7811 157.512C45.6982 152.098 38.2144 139.245 40.2854 125.087L34.3486 124.219L28.4118 123.35C25.6344 142.336 35.3925 158.99 43.8029 166.476L47.792 161.994ZM34.3486 124.219L38.0133 119.468C37.9799 119.442 37.943 119.413 37.8901 119.372L34.1895 124.095L30.4888 128.818C30.5416 128.859 30.6107 128.913 30.684 128.97L34.3486 124.219ZM34.1895 124.095L28.6377 121.819C28.6001 121.911 28.5715 121.981 28.552 122.028C28.5423 122.052 28.5349 122.07 28.5299 122.083C28.5274 122.089 28.5254 122.093 28.5241 122.097C28.5234 122.098 28.5229 122.1 28.5225 122.101C28.5224 122.101 28.5222 122.101 28.5221 122.102C28.522 122.102 28.522 122.102 28.522 122.102C28.5219 122.102 28.5219 122.102 28.5219 122.102C28.5219 122.102 28.5219 122.102 28.5219 122.102C28.5219 122.102 28.5219 122.102 28.5219 122.102C28.5219 122.102 28.5219 122.102 34.0771 124.369C39.6324 126.636 39.6324 126.636 39.6324 126.636C39.6324 126.636 39.6324 126.636 39.6324 126.636C39.6324 126.636 39.6324 126.636 39.6324 126.636C39.6324 126.636 39.6324 126.636 39.6324 126.636C39.6324 126.636 39.6324 126.636 39.6324 126.636C39.6325 126.636 39.6325 126.636 39.6327 126.635C39.6329 126.635 39.6333 126.634 39.6338 126.633C39.6348 126.63 39.6365 126.626 39.6387 126.621C39.6432 126.61 39.65 126.593 39.6592 126.571C39.6774 126.526 39.7049 126.459 39.7412 126.37L34.1895 124.095ZM34.0771 124.369L33.0473 118.458C33.1836 118.434 33.2921 118.432 33.3648 118.434C33.4364 118.437 33.4743 118.446 33.4759 118.446C33.4775 118.447 33.451 118.441 33.398 118.42C33.3452 118.399 33.2744 118.366 33.189 118.319C33.013 118.22 32.8178 118.08 32.6324 117.908C32.4459 117.736 32.3128 117.571 32.2328 117.449L27.2178 120.743L22.2028 124.037C23.4755 125.975 25.2884 127.648 27.3287 128.79C29.3316 129.911 32.0907 130.806 35.107 130.28L34.0771 124.369ZM27.2178 120.743L33.1321 119.733C33.1739 119.978 33.134 120.009 33.172 119.73C33.2076 119.469 33.2939 119.062 33.4708 118.496L27.7441 116.706L22.0175 114.916C21.4306 116.793 20.8806 119.278 21.3034 121.753L27.2178 120.743ZM27.7441 116.706L32.918 113.668C30.3347 109.269 29.3575 104.054 29.1918 99.2398L23.1953 99.4463L17.1989 99.6528C17.4037 105.601 18.6148 113.009 22.5703 119.744L27.7441 116.706ZM23.1953 99.4463L29.1916 99.2365C29.1702 98.6242 29.3946 98.0092 30.4166 97.4727C31.5372 96.8844 33.4799 96.5786 35.7695 97.4068L37.8105 91.7646L39.8516 86.1225C34.7011 84.2593 29.2226 84.5464 24.8387 86.8479C20.3563 89.2011 16.9932 93.7726 17.199 99.656L23.1953 99.4463ZM37.8105 91.7646L35.7679 97.4063L40.89 99.2607L42.9326 93.6191L44.9752 87.9775L39.8531 86.123L37.8105 91.7646ZM42.9326 93.6191L46.4437 98.4845C47.996 97.3644 49.3155 96.6764 50.2816 96.4541C50.6995 96.3579 50.8792 96.3912 50.9025 96.3961C50.9147 96.3987 50.925 96.4016 50.9462 96.4125C50.9685 96.4241 51.0401 96.4641 51.157 96.5705L55.1973 92.1348L59.2376 87.699C55.5506 84.3408 51.2172 83.9252 47.5907 84.7597C44.2686 85.5241 41.3858 87.3362 39.4215 88.7538L42.9326 93.6191ZM55.1973 92.1348L51.0014 87.8458C50.6402 88.1993 50.2904 88.5506 49.9538 88.8933L54.2344 93.0977L58.5149 97.302C58.8137 96.9978 59.1048 96.7058 59.3931 96.4237L55.1973 92.1348ZM54.2344 93.0977L57.9535 97.8059C58.1847 97.6233 58.4209 97.4393 58.6623 97.2534L55.001 92.5L51.3396 87.7466C51.0645 87.9586 50.7894 88.1728 50.5152 88.3894L54.2344 93.0977ZM55.001 92.5L53.6887 98.3547L53.7453 98.3674L55.0576 92.5127L56.3699 86.658L56.3132 86.6453L55.001 92.5ZM55.0576 92.5127L58.5742 97.3741C58.6423 97.3249 58.6891 97.2909 58.7377 97.2561L55.2402 92.3809L51.7427 87.5057C51.6693 87.5584 51.5945 87.6126 51.541 87.6513L55.0576 92.5127ZM55.2402 92.3809H61.2402V91.9375H55.2402H49.2402V92.3809H55.2402ZM55.2402 91.9375L61.2402 91.9662C61.2453 90.9003 61.2482 89.8096 61.2577 87.8189L55.2578 87.79L49.2579 87.7612C49.251 89.1928 49.2426 91.4275 49.2403 91.9088L55.2402 91.9375ZM55.2578 87.79L56.6129 81.9451C48.0649 79.9634 41.6797 72.2973 41.6797 63.1309H35.6797H29.6797C29.6797 78.0181 40.0508 90.4237 53.9028 93.635L55.2578 87.79ZM35.6797 63.1309L41.6797 63.1309C41.6798 52.5281 50.2412 43.8867 60.8662 43.8192L60.8281 37.8193L60.79 31.8195C43.5547 31.9289 29.6799 45.9431 29.6797 63.1308L35.6797 63.1309ZM60.8281 37.8193L63.6035 43.1388L63.626 43.1271L60.8506 37.8076L58.0752 32.4881L58.0527 32.4998L60.8281 37.8193ZM60.8506 37.8076L65.8704 41.0942C66.9796 39.4 68.2388 37.8227 69.6031 36.3946L65.2646 32.25L60.9262 28.1054C59.0645 30.0542 57.3474 32.2046 55.8308 34.521L60.8506 37.8076ZM65.2646 32.25L69.5764 36.4224C75.3147 30.4925 83.2749 27.0001 91.7608 27L91.7607 21L91.7607 15C79.9563 15.0001 68.9045 19.8605 60.9529 28.0776L65.2646 32.25ZM143.937 76.8799L138.906 73.6104C136.262 77.6786 132.141 80.6857 127.341 81.8768L128.786 87.7002L130.231 93.5236C138.056 91.582 144.708 86.7033 148.967 80.1494L143.937 76.8799ZM128.786 87.7002L122.834 86.9444C122.731 87.7548 122.616 88.4881 122.514 89.0196C122.462 89.2907 122.425 89.4497 122.409 89.5132C122.4 89.5454 122.41 89.504 122.44 89.4138C122.456 89.3665 122.486 89.2823 122.53 89.173C122.572 89.0711 122.65 88.8906 122.77 88.669L128.044 91.5303L133.318 94.3916C133.756 93.584 133.963 92.7618 134.022 92.534C134.129 92.125 134.221 91.6883 134.3 91.275C134.46 90.4378 134.612 89.4476 134.738 88.456L128.786 87.7002ZM128.044 91.5303L124.587 96.4344C124.722 96.5293 124.599 96.4441 124.824 96.604L128.297 91.7109L131.769 86.8178C131.744 86.7997 131.718 86.7811 131.669 86.7463C131.627 86.7159 131.566 86.6724 131.501 86.6262L128.044 91.5303ZM128.297 91.7109L133.071 95.3451C133.275 95.0766 133.315 95.1359 133.163 95.1898C133.061 95.2259 133.131 95.1632 133.52 95.2223C134.471 95.3671 135.896 96.0029 137.651 97.1306L140.895 92.083L144.138 87.0354C142.03 85.6808 138.857 83.8965 135.326 83.3589C131.33 82.7507 126.79 83.7851 123.523 88.0767L128.297 91.7109ZM140.895 92.083L137.65 97.1303C137.593 97.0937 137.555 97.0664 137.538 97.0542C137.521 97.0418 137.517 97.0383 137.529 97.0479L141.215 92.3135L144.901 87.5791C144.706 87.4278 144.445 87.2325 144.139 87.0357L140.895 92.083ZM141.215 92.3135L143.258 97.955L155.82 93.4062L153.777 87.7646L151.735 82.1231L139.172 86.6719L141.215 92.3135ZM153.777 87.7646L155.818 93.4068C156.358 93.2117 156.886 93.0782 157.393 92.9972L156.447 87.0723L155.501 81.1473C154.248 81.3474 152.986 81.6703 151.736 82.1225L153.777 87.7646ZM156.447 87.0723H162.447V78.6885H156.447H150.447V87.0723H156.447ZM156.447 78.6885V72.6885H148.92V78.6885V84.6885H156.447V78.6885ZM148.92 78.6885L148.92 72.6885C148.505 72.6885 148.109 72.5449 147.764 72.259L143.937 76.8799L140.109 81.5007C142.484 83.4679 145.554 84.6883 148.92 84.6885L148.92 78.6885Z" fill="white" mask="url(#path-1-outside-1_1347_14009)"/>
<path d="M129.052 184.004C129.052 186.568 126.953 188.668 124.388 188.668H112.123C110.178 188.668 108.593 187.083 108.593 185.145V146.53C108.593 144.585 110.178 143 112.123 143H112.355C114.3 143 115.885 144.585 115.885 146.53V181.094L124.388 179.34C125.664 179.34 126.833 179.861 127.686 180.707C128.524 181.552 129.052 182.715 129.052 184.004Z" fill="#474747"/>
<path d="M85.0542 148.834L72.7934 185.452C72.1783 187.289 70.1718 188.289 68.3345 187.674L56.7033 183.779C54.2715 182.965 52.9472 180.307 53.7614 177.876C54.1686 176.66 55.041 175.718 56.1111 175.185C57.1812 174.652 58.4491 174.527 59.6717 174.936L67.1762 179.306L78.1529 146.524C78.7681 144.686 80.7746 143.686 82.6118 144.302L82.839 144.378C84.6762 144.993 85.676 146.999 85.0609 148.837L85.0542 148.834Z" fill="#474747"/>
<path d="M68.2866 102.803L37.8103 91.7649C30.3702 89.0734 22.9678 92.95 23.195 99.4458C23.5442 109.589 27.1237 123.038 42.4129 128.578C55.1814 133.207 66.3071 128.749 74.3123 123.015C81.8397 117.634 78.5059 106.498 68.2873 102.793L68.2866 102.803Z" fill="#276288"/>
<path d="M123.301 98.8029L153.778 87.7649C161.218 85.0734 168.62 88.95 168.393 95.4458C168.044 105.589 164.464 119.038 149.175 124.578C136.407 129.207 125.281 124.749 117.276 119.015C109.748 113.634 113.082 102.498 123.301 98.793L123.301 98.8029Z" fill="#276288"/>
<path d="M122.671 37.8187H122.698C136.648 37.8187 148.011 49.1249 148.011 63.1312C148.011 77.0813 136.648 88.4437 122.698 88.4437H60.9922C47.0422 88.4437 35.6797 77.1375 35.6797 63.1312C35.6797 49.2356 46.8979 37.9074 60.8283 37.8192L66.5609 35.0625L65.2649 32.25C72.1099 25.1764 81.6156 21 91.7609 21C101.904 21 111.412 25.1709 118.248 32.25L117.186 35.0625L122.671 37.8187Z" fill="#7D4533"/>
<path d="M122.673 37.8187C121.368 35.8053 119.884 33.9544 118.253 32.25H65.2658C63.6496 33.9417 62.1587 35.8093 60.8438 37.8191C60.8929 37.8189 60.942 37.8187 60.9912 37.8187H122.673Z" fill="#B37A67"/>
<path d="M150.099 130.891C150.099 131.821 150.064 132.751 150.014 133.653C150.007 133.73 150 133.801 150 133.871C149.401 142.544 146.203 150.287 141.06 156.768C134.684 164.821 125.313 170.908 114.217 174.361C111.864 175.107 109.426 175.72 106.925 176.221C103.487 176.904 99.9289 177.341 96.2724 177.524C95.5396 177.566 94.7999 177.595 94.0601 177.609C93.4401 177.616 92.8131 177.623 92.1861 177.623C91.559 177.623 90.939 177.616 90.319 177.609C86.0073 177.51 81.8083 177.059 77.7854 176.291C75.2913 175.812 72.8536 175.206 70.5005 174.473C59.249 171.028 49.766 164.906 43.3195 156.775C43.3195 156.775 43.3195 156.768 43.3124 156.768C38.1552 150.259 34.9425 142.459 34.3719 133.73C34.3719 133.674 34.3648 133.603 34.3578 133.54C34.3085 132.666 34.2803 131.786 34.2803 130.891C34.2803 129.848 34.3155 128.812 34.386 127.791C35.3934 113.566 43.2983 100.948 55.2402 92.3809V91.937C55.2473 90.4646 55.2754 85.7724 55.2754 83.6517C55.2754 60.3598 71.8038 43 92.1861 43C92.8906 43 93.5951 43.0141 94.2926 43.0705C113.703 44.2118 129.104 61.17 129.104 83.6517C129.104 86.181 128.357 91.2748 127.998 91.5989C128.082 91.6482 128.16 91.6975 128.223 91.7398C128.843 92.1343 129.132 92.3809 129.132 92.3809C141.074 100.92 148.972 113.524 149.986 127.742C150.064 128.784 150.106 129.834 150.106 130.891H150.099Z" fill="#4B9AE8"/>
<path d="M100.104 77.2552C99.6787 80.5372 96.0534 85.8583 92.2909 85.8858C88.5283 85.9132 84.5529 80.5166 84.3675 76.9806C84.1821 73.4514 86.8255 71.0346 92.4419 71.0003C98.1201 70.966 100.53 73.9733 100.104 77.2552Z" fill="#EAC00F"/>
<path d="M72.6794 77.3589C76.9207 77.3589 80.3589 73.9207 80.3589 69.6794C80.3589 65.4382 76.9207 62 72.6794 62C68.4382 62 65 65.4382 65 69.6794C65 73.9207 68.4382 77.3589 72.6794 77.3589Z" fill="white"/>
<path d="M72.6793 73.7726C74.94 73.7726 76.7726 71.94 76.7726 69.6793C76.7726 67.4186 74.94 65.5859 72.6793 65.5859C70.4186 65.5859 68.5859 67.4186 68.5859 69.6793C68.5859 71.94 70.4186 73.7726 72.6793 73.7726Z" fill="#040000"/>
<path d="M111.832 77.3589C116.073 77.3589 119.511 73.9207 119.511 69.6794C119.511 65.4382 116.073 62 111.832 62C107.591 62 104.152 65.4382 104.152 69.6794C104.152 73.9207 107.591 77.3589 111.832 77.3589Z" fill="white"/>
<path d="M111.832 73.7726C114.092 73.7726 115.925 71.94 115.925 69.6793C115.925 67.4186 114.092 65.5859 111.832 65.5859C109.571 65.5859 107.738 67.4186 107.738 69.6793C107.738 71.94 109.571 73.7726 111.832 73.7726Z" fill="#040000"/>
<path d="M163.5 88.5884H157.875V111.088H163.5V88.5884Z" fill="#D3D3D3"/>
<path d="M177.342 28.0068C175.826 28.1193 174.702 29.4131 174.702 30.9318V55.9631C174.702 59.0006 172.399 61.5881 169.366 61.7568C166.164 61.9256 163.468 59.3381 163.468 56.1318V30.9318C163.468 29.4131 162.345 28.1193 160.828 28.0068C159.199 27.8943 157.851 29.1881 157.851 30.8193V55.9631C157.851 59.0006 155.548 61.5881 152.515 61.7568C149.313 61.9256 146.617 59.3381 146.617 56.1318V30.9318C146.617 29.4131 145.494 28.1193 143.977 28.0068C142.348 27.8943 141 29.1881 141 30.8193V70.6443C141 75.0318 144.539 78.6881 148.92 78.6881H156.447V88.5881C156.447 89.2631 157.008 89.8256 157.683 89.8256H163.692C164.367 89.8256 164.928 89.2631 164.928 88.5881V78.6881H172.455C176.836 78.6881 180.375 75.0318 180.375 70.6443V30.8193C180.319 29.1881 178.971 27.8943 177.342 28.0068Z" fill="#D3D3D3"/>
<ellipse cx="160" cy="97.5" rx="8" ry="9.5" fill="#276286"/>
<path d="M106 98.5H80.5L74.5 120.5L109 122C113.167 114.333 118.8 98.5 106 98.5Z" fill="#00D26A"/>
<path d="M105.213 98.2811C117.776 97.3506 124.744 92.8961 128.001 91.5003C173.598 123.604 141.727 159.146 135.922 163.42C97.7914 191.495 59.5823 172.489 47.7915 161.995C36.0007 151.5 20.5701 119.021 55.0007 92.5003L80.5536 98.2811L82.6261 106.163C83.0298 107.698 84.3599 108.81 85.9447 108.897C90.6182 109.154 96.8254 109.307 99.8402 109.166C100.899 109.116 101.724 108.423 102.078 107.423C102.962 104.932 104.382 100.579 105.213 98.2811Z" fill="#276288"/>
<path d="M42.7123 93.7769C46.2427 91.1854 51.2565 88.5452 55.1973 92.1349C41.4719 105.562 34.0771 124.369 34.0771 124.369C31.5782 124.804 28.6799 122.97 27.2174 120.743C26.1279 114.364 39.1818 96.3684 42.7123 93.7769Z" fill="#00D26A"/>
<path d="M140.894 92.0829C137.02 89.5933 131.666 87.2291 128.267 91.7504C143.807 105.205 152 127 152 127C154.542 127.187 157.366 125.186 158.5 122.5C158.672 115.184 144.768 94.5726 140.894 92.0829Z" fill="#00D26A"/>
<path d="M93.7686 41C104.255 41 116.959 51.6667 122 57C100.322 54.913 82.6777 54.913 61 57C62.5124 51.4348 80.6612 41 93.7686 41Z" fill="#7D4533"/>
<rect x="69" y="121" width="50" height="30" rx="6" fill="#46A4FB"/>
</svg>
