<svg width="200" height="200" viewBox="0 0 200 200" fill="none" xmlns="http://www.w3.org/2000/svg">
<mask id="path-1-outside-1_898_3595" maskUnits="userSpaceOnUse" x="35.0747" y="39.0944" width="129" height="132" fill="black">
<rect fill="white" x="35.0747" y="39.0944" width="129" height="132"/>
<path d="M87.0288 46.2904C90.6911 43.2637 94.7525 46.9359 94.7525 46.9359L97.5952 47.8188C98.0902 47.4405 98.5294 47.2444 98.8013 47.3139C99.1191 47.3925 99.3931 47.8276 99.6138 48.4457L107.928 51.0297C108.105 50.2012 108.353 49.5901 108.625 49.4779C109.11 49.2745 110.911 50.81 112.127 52.3344L114.894 53.1947C114.894 53.1947 117.447 48.4011 122.747 50.1781C129.415 52.4224 128.536 60.5651 128.531 60.6156C128.543 60.596 131.041 56.4834 135.608 57.8588C142.843 60.0413 142.342 68.0929 142.34 68.1234C142.371 68.0948 145.162 65.5278 148.986 65.5385C151.722 65.5493 156.838 67.1757 157.269 73.2182C157.7 79.2609 153.618 82.3852 153.618 82.3852C153.626 82.4437 154.471 88.5999 155.104 102.085C155.739 115.647 154.888 130.468 154.888 130.468C154.888 130.468 156.762 131.858 157.398 133.764C158.033 135.671 158.486 140.41 156.364 143.167C154.896 145.075 151.433 146.146 149.438 146.626C149.438 146.633 149.438 146.636 149.438 146.636C149.358 146.661 125.749 153.977 104.92 157.472C84.0583 160.972 48.9804 165.399 47.1108 164.581C45.2474 163.763 45.3651 162.373 45.2466 159.454L42.2202 113.417C42.2219 113.417 42.2285 113.417 42.2398 113.416C42.1626 112.168 42.1242 111.218 42.106 110.509C42.0585 109.716 41.9796 107.327 42.6079 105.468C43.9005 101.655 54.5102 85.9716 64.2583 73.8969C73.9862 61.8472 83.9719 52.4582 84.0132 52.4193C84.0132 52.4193 84.0132 48.7895 87.0288 46.2904Z"/>
</mask>
<path d="M87.0288 46.2904C90.6911 43.2637 94.7525 46.9359 94.7525 46.9359L97.5952 47.8188C98.0902 47.4405 98.5294 47.2444 98.8013 47.3139C99.1191 47.3925 99.3931 47.8276 99.6138 48.4457L107.928 51.0297C108.105 50.2012 108.353 49.5901 108.625 49.4779C109.11 49.2745 110.911 50.81 112.127 52.3344L114.894 53.1947C114.894 53.1947 117.447 48.4011 122.747 50.1781C129.415 52.4224 128.536 60.5651 128.531 60.6156C128.543 60.596 131.041 56.4834 135.608 57.8588C142.843 60.0413 142.342 68.0929 142.34 68.1234C142.371 68.0948 145.162 65.5278 148.986 65.5385C151.722 65.5493 156.838 67.1757 157.269 73.2182C157.7 79.2609 153.618 82.3852 153.618 82.3852C153.626 82.4437 154.471 88.5999 155.104 102.085C155.739 115.647 154.888 130.468 154.888 130.468C154.888 130.468 156.762 131.858 157.398 133.764C158.033 135.671 158.486 140.41 156.364 143.167C154.896 145.075 151.433 146.146 149.438 146.626C149.438 146.633 149.438 146.636 149.438 146.636C149.358 146.661 125.749 153.977 104.92 157.472C84.0583 160.972 48.9804 165.399 47.1108 164.581C45.2474 163.763 45.3651 162.373 45.2466 159.454L42.2202 113.417C42.2219 113.417 42.2285 113.417 42.2398 113.416C42.1626 112.168 42.1242 111.218 42.106 110.509C42.0585 109.716 41.9796 107.327 42.6079 105.468C43.9005 101.655 54.5102 85.9716 64.2583 73.8969C73.9862 61.8472 83.9719 52.4582 84.0132 52.4193C84.0132 52.4193 84.0132 48.7895 87.0288 46.2904Z" fill="#DCDCDC"/>
<path d="M87.0288 46.2904L83.2065 41.6655L83.2004 41.6706L87.0288 46.2904ZM94.7525 46.9359L90.7284 51.3864L91.7096 52.2737L92.973 52.666L94.7525 46.9359ZM97.5952 47.8188L95.8158 53.5488L98.7755 54.468L101.238 52.5863L97.5952 47.8188ZM98.8013 47.3139L97.3162 53.1272L97.3382 53.1328L97.3601 53.1382L98.8013 47.3139ZM99.6138 48.4457L93.9632 50.4633L94.971 53.2859L97.8331 54.1754L99.6138 48.4457ZM107.928 51.0297L106.148 56.7594L112.425 58.7104L113.796 52.2809L107.928 51.0297ZM108.625 49.4779L110.906 55.0277L110.926 55.0193L110.947 55.0107L108.625 49.4779ZM112.127 52.3344L107.437 56.076L108.586 57.5165L110.346 58.0637L112.127 52.3344ZM114.894 53.1947L113.112 58.9241L117.855 60.3989L120.19 56.0154L114.894 53.1947ZM122.747 50.1781L124.66 44.4916L124.654 44.4894L122.747 50.1781ZM128.531 60.6156L122.566 59.9643L133.663 63.7242L128.531 60.6156ZM135.608 57.8588L137.341 52.1145L137.338 52.1137L135.608 57.8588ZM142.34 68.1234L136.352 67.7455L135.409 82.6904L146.411 72.5316L142.34 68.1234ZM148.986 65.5385L149.01 59.5385L149.003 59.5385L148.986 65.5385ZM157.269 73.2182L163.254 72.7914L163.254 72.7913L157.269 73.2182ZM153.618 82.3852L149.971 77.6205L147.197 79.7438L147.674 83.2046L153.618 82.3852ZM155.104 102.085L161.097 101.805L161.097 101.804L155.104 102.085ZM154.888 130.468L148.898 130.124L148.712 133.359L151.315 135.288L154.888 130.468ZM157.398 133.764L163.09 131.867L163.09 131.866L157.398 133.764ZM156.364 143.167L161.119 146.827L161.119 146.827L156.364 143.167ZM149.438 146.626L148.035 140.793L143.658 141.846L143.445 146.342L149.438 146.626ZM149.438 146.636L151.215 152.367L155.844 150.932L155.414 146.104L149.438 146.636ZM104.92 157.472L105.913 163.389L105.913 163.389L104.92 157.472ZM47.1108 164.581L44.6977 170.075L44.7068 170.079L47.1108 164.581ZM45.2466 159.454L51.2417 159.21L51.2386 159.135L51.2337 159.06L45.2466 159.454ZM42.2202 113.417L42.0472 107.42L35.8248 107.599L36.2331 113.811L42.2202 113.417ZM42.2398 113.416L42.4209 119.414L48.6101 119.227L48.2283 113.046L42.2398 113.416ZM42.106 110.509L48.104 110.355L48.1013 110.253L48.0952 110.151L42.106 110.509ZM42.6079 105.468L36.9255 103.542L36.9239 103.547L42.6079 105.468ZM64.2583 73.8969L59.5898 70.1279L64.2583 73.8969ZM84.0132 52.4193L88.1227 56.7911L90.0132 55.0139L90.0132 52.4193L84.0132 52.4193ZM87.0288 46.2904L90.8511 50.9154C90.8627 50.9058 90.809 50.9512 90.6885 51.0006C90.5685 51.0498 90.4403 51.0792 90.3234 51.0898C90.1073 51.1094 90.0502 51.0571 90.1999 51.112C90.3484 51.1664 90.5299 51.2647 90.6933 51.3755C90.7654 51.4243 90.8116 51.4605 90.8242 51.4705C90.8298 51.475 90.8255 51.4718 90.8103 51.4588C90.8026 51.4522 90.7921 51.4431 90.7785 51.4312C90.7717 51.4252 90.7642 51.4185 90.7558 51.4111C90.7516 51.4074 90.7473 51.4034 90.7427 51.3993C90.7404 51.3973 90.7381 51.3952 90.7357 51.393C90.7345 51.392 90.7327 51.3903 90.7321 51.3898C90.7302 51.3881 90.7284 51.3864 94.7525 46.9359C98.7765 42.4855 98.7746 42.4838 98.7727 42.482C98.7721 42.4815 98.7702 42.4797 98.7688 42.4785C98.7662 42.4762 98.7635 42.4737 98.7607 42.4712C98.7552 42.4662 98.7493 42.461 98.7432 42.4555C98.7309 42.4446 98.7175 42.4327 98.7029 42.4198C98.6737 42.3942 98.6399 42.3648 98.6016 42.3321C98.5251 42.2668 98.43 42.1876 98.3174 42.0976C98.0935 41.9186 97.7939 41.6916 97.428 41.4435C96.7154 40.9603 95.6527 40.3297 94.3281 39.8444C91.585 38.8394 87.2046 38.3613 83.2065 41.6655L87.0288 46.2904ZM94.7525 46.9359L92.973 52.666L95.8158 53.5488L97.5952 47.8188L99.3747 42.0887L96.5319 41.2059L94.7525 46.9359ZM97.5952 47.8188L101.238 52.5863C101.224 52.5972 101.174 52.6341 101.089 52.6864C101.008 52.7361 100.855 52.8241 100.634 52.9183C100.424 53.0077 100.054 53.1453 99.5545 53.2286C99.0643 53.3103 98.2661 53.3698 97.3162 53.1272L98.8013 47.3139L100.286 41.5006C98.243 40.9786 96.5676 41.6069 95.93 41.8786C95.1146 42.226 94.4427 42.6765 93.9523 43.0512L97.5952 47.8188ZM98.8013 47.3139L97.3601 53.1382C95.4382 52.6627 94.5127 51.384 94.3133 51.0964C94.1575 50.8717 94.0673 50.695 94.026 50.6086C93.982 50.5167 93.9633 50.4637 93.9632 50.4633L99.6138 48.4457L105.264 46.4281C105.062 45.861 104.727 45.0558 104.175 44.2586C103.704 43.5792 102.482 42.0437 100.242 41.4895L98.8013 47.3139ZM99.6138 48.4457L97.8331 54.1754L106.148 56.7594L107.928 51.0297L109.709 45.3L101.394 42.716L99.6138 48.4457ZM107.928 51.0297L113.796 52.2809C113.84 52.0766 113.844 52.147 113.739 52.3873C113.688 52.5045 113.535 52.8385 113.23 53.2461C112.972 53.5912 112.246 54.477 110.906 55.0277L108.625 49.4779L106.345 43.9282C104.868 44.5349 104.009 45.5392 103.622 46.0563C103.189 46.6359 102.912 47.1955 102.743 47.583C102.401 48.364 102.193 49.1543 102.06 49.7785L107.928 51.0297ZM108.625 49.4779L110.947 55.0107C110.051 55.3867 109.236 55.4657 108.665 55.4594C108.097 55.4531 107.644 55.3617 107.355 55.2866C106.804 55.1432 106.442 54.9508 106.341 54.8957C106.117 54.7739 106.089 54.7249 106.275 54.8792C106.61 55.1563 107.077 55.6243 107.437 56.076L112.127 52.3344L116.818 48.5927C115.962 47.52 114.921 46.4581 113.929 45.6373C113.453 45.2425 112.808 44.7525 112.071 44.3524C111.714 44.1581 111.123 43.8673 110.375 43.6729C109.76 43.5128 108.14 43.1748 106.304 43.9451L108.625 49.4779ZM112.127 52.3344L110.346 58.0637L113.112 58.9241L114.894 53.1947L116.676 47.4654L113.909 46.605L112.127 52.3344ZM114.894 53.1947C120.19 56.0154 120.188 56.018 120.187 56.0206C120.186 56.0214 120.185 56.024 120.184 56.0257C120.182 56.0291 120.181 56.0324 120.179 56.0356C120.175 56.0421 120.172 56.0484 120.169 56.0544C120.162 56.0665 120.156 56.0776 120.15 56.0878C120.139 56.1081 120.13 56.1249 120.122 56.1385C120.106 56.1654 120.097 56.1799 120.095 56.184C120.09 56.1911 120.107 56.1637 120.143 56.1164C120.227 56.0066 120.334 55.8941 120.435 55.8188C120.522 55.7532 120.532 55.7689 120.476 55.7803C120.383 55.7991 120.468 55.7423 120.839 55.8668L122.747 50.1781L124.654 44.4894C119.806 42.8636 115.812 44.2843 113.231 46.2214C112.031 47.1223 111.169 48.0972 110.608 48.8306C110.322 49.2049 110.098 49.5382 109.934 49.8004C109.851 49.9322 109.782 50.048 109.726 50.1442C109.698 50.1924 109.674 50.2359 109.653 50.2743C109.642 50.2935 109.632 50.3115 109.623 50.3281C109.619 50.3364 109.614 50.3444 109.61 50.3521C109.608 50.3559 109.606 50.3597 109.604 50.3633C109.603 50.3652 109.602 50.3679 109.601 50.3688C109.6 50.3714 109.598 50.3741 114.894 53.1947ZM122.747 50.1781L120.833 55.8647C121.351 56.0391 121.594 56.2628 121.761 56.4741C121.972 56.7407 122.183 57.1561 122.34 57.7512C122.678 59.0304 122.538 60.2266 122.566 59.9643L128.531 60.6156L134.495 61.267C134.529 60.9542 134.831 58.0538 133.943 54.6879C133.02 51.1918 130.56 46.477 124.66 44.4916L122.747 50.1781ZM128.531 60.6156L133.663 63.7242C133.602 63.8241 133.569 63.8719 133.562 63.8824C133.555 63.8927 133.568 63.8732 133.599 63.8358C133.631 63.7981 133.673 63.7517 133.722 63.7042C133.772 63.6565 133.819 63.6179 133.859 63.5893C133.942 63.5293 133.943 63.5495 133.864 63.567C133.823 63.576 133.786 63.578 133.766 63.5773C133.746 63.5765 133.78 63.5744 133.878 63.6039L135.608 57.8588L137.338 52.1137C132.857 50.7642 129.184 52.1746 126.864 53.8389C124.721 55.3764 123.591 57.1898 123.399 57.5071L128.531 60.6156ZM135.608 57.8588L133.875 63.6031C134.632 63.8316 135.031 64.15 135.283 64.4261C135.57 64.7409 135.818 65.1733 136.008 65.7307C136.42 66.9424 136.332 68.0585 136.352 67.7455L142.34 68.1234L148.328 68.5014C148.35 68.1578 148.514 65.2328 147.368 61.8655C146.158 58.3081 143.318 53.9175 137.341 52.1145L135.608 57.8588ZM142.34 68.1234L146.411 72.5316C146.201 72.7249 146.506 72.4154 147.116 72.0824C147.743 71.7402 148.39 71.5368 148.969 71.5385L148.986 65.5385L149.003 59.5385C142.744 59.5211 138.473 63.5277 138.27 63.7153L142.34 68.1234ZM148.986 65.5385L148.962 71.5384C149.093 71.539 149.381 71.5641 149.728 71.6633C150.068 71.7602 150.356 71.8962 150.569 72.0445C150.767 72.1816 150.896 72.3238 150.991 72.4872C151.081 72.6423 151.237 72.9801 151.284 73.645L157.269 73.2182L163.254 72.7913C162.903 67.8777 160.512 64.3396 157.414 62.1884C154.559 60.2053 151.35 59.5478 149.01 59.5385L148.986 65.5385ZM157.269 73.2182L151.284 73.6449C151.392 75.1563 150.952 76.1961 150.527 76.8724C150.303 77.2275 150.081 77.4816 149.944 77.6234C149.877 77.6925 149.836 77.7284 149.834 77.7297C149.834 77.7301 149.844 77.7214 149.866 77.7034C149.877 77.6944 149.891 77.683 149.908 77.6692C149.917 77.6623 149.927 77.6548 149.937 77.6467C149.942 77.6426 149.948 77.6384 149.953 77.634C149.956 77.6319 149.959 77.6296 149.962 77.6274C149.964 77.6262 149.966 77.6245 149.967 77.624C149.969 77.6222 149.971 77.6205 153.618 82.3852C157.264 87.1499 157.267 87.1481 157.269 87.1463C157.27 87.1457 157.272 87.1439 157.274 87.1427C157.277 87.1402 157.28 87.1377 157.283 87.1352C157.29 87.13 157.297 87.1247 157.304 87.1191C157.319 87.1079 157.334 87.0958 157.35 87.0828C157.383 87.0568 157.42 87.0272 157.461 86.9938C157.543 86.9271 157.64 86.8453 157.75 86.7486C157.97 86.5554 158.245 86.3 158.554 85.9817C159.168 85.3489 159.94 84.4443 160.683 83.263C162.191 80.8664 163.577 77.3228 163.254 72.7914L157.269 73.2182ZM153.618 82.3852L147.674 83.2046C147.655 83.0691 148.486 89.0449 149.111 102.366L155.104 102.085L161.097 101.804C160.457 88.1549 159.596 81.8182 159.561 81.5657L153.618 82.3852ZM155.104 102.085L149.111 102.366C149.419 108.946 149.368 115.884 149.236 121.214C149.171 123.87 149.086 126.108 149.017 127.679C148.983 128.464 148.953 129.081 148.931 129.499C148.921 129.708 148.912 129.867 148.906 129.973C148.904 130.026 148.901 130.065 148.9 130.09C148.899 130.103 148.899 130.112 148.898 130.118C148.898 130.121 148.898 130.123 148.898 130.124C148.898 130.124 148.898 130.124 148.898 130.125C148.898 130.125 148.898 130.125 148.898 130.125C148.898 130.124 148.898 130.124 154.888 130.468C160.878 130.812 160.878 130.812 160.878 130.811C160.878 130.811 160.878 130.811 160.878 130.81C160.878 130.81 160.879 130.809 160.879 130.807C160.879 130.805 160.879 130.801 160.879 130.797C160.88 130.788 160.88 130.776 160.881 130.76C160.883 130.729 160.886 130.683 160.889 130.624C160.895 130.506 160.904 130.333 160.916 130.111C160.938 129.665 160.97 129.019 161.006 128.202C161.077 126.569 161.165 124.255 161.233 121.51C161.368 116.04 161.425 108.786 161.097 101.805L155.104 102.085ZM154.888 130.468C151.315 135.288 151.314 135.287 151.313 135.286C151.312 135.286 151.311 135.285 151.31 135.285C151.309 135.284 151.307 135.283 151.306 135.281C151.303 135.279 151.3 135.277 151.298 135.275C151.292 135.271 151.287 135.267 151.283 135.264C151.273 135.257 151.265 135.251 151.259 135.246C151.246 135.236 151.239 135.231 151.237 135.229C151.233 135.225 151.246 135.236 151.273 135.259C151.331 135.309 151.424 135.394 151.524 135.501C151.794 135.79 151.776 135.873 151.706 135.662L157.398 133.764L163.09 131.866C162.384 129.749 161.112 128.184 160.286 127.302C159.838 126.823 159.423 126.441 159.109 126.171C158.95 126.034 158.812 125.921 158.703 125.834C158.648 125.791 158.6 125.753 158.56 125.722C158.539 125.707 158.521 125.693 158.505 125.681C158.496 125.674 158.489 125.669 158.482 125.663C158.478 125.66 158.474 125.658 158.471 125.655C158.469 125.654 158.468 125.653 158.466 125.652C158.465 125.651 158.464 125.65 158.464 125.65C158.463 125.649 158.461 125.648 154.888 130.468ZM157.398 133.764L151.706 135.661C151.705 135.659 151.728 135.729 151.76 135.878C151.791 136.021 151.825 136.206 151.853 136.426C151.912 136.874 151.941 137.388 151.92 137.9C151.899 138.418 151.83 138.844 151.74 139.156C151.651 139.47 151.574 139.553 151.609 139.508L156.364 143.167L161.119 146.827C163.256 144.05 163.813 140.744 163.91 138.393C164.009 135.986 163.664 133.589 163.09 131.867L157.398 133.764ZM156.364 143.167L151.609 139.508C151.754 139.32 151.808 139.324 151.606 139.458C151.418 139.584 151.12 139.749 150.7 139.933C149.845 140.305 148.852 140.596 148.035 140.793L149.438 146.626L150.841 152.46C152.019 152.177 153.754 151.692 155.497 150.932C157.09 150.237 159.45 148.994 161.119 146.827L156.364 143.167ZM149.438 146.626L143.445 146.342C143.438 146.49 143.436 146.634 143.439 146.771C143.441 146.84 143.444 146.908 143.448 146.974C143.449 147.007 143.451 147.04 143.454 147.072C143.455 147.088 143.456 147.104 143.458 147.12C143.458 147.128 143.459 147.136 143.46 147.144C143.46 147.148 143.46 147.152 143.461 147.156C143.461 147.158 143.461 147.16 143.461 147.162C143.461 147.163 143.461 147.164 143.461 147.165C143.461 147.166 143.461 147.166 143.461 147.167C143.462 147.167 143.462 147.168 149.438 146.636C155.414 146.104 155.414 146.105 155.415 146.106C155.415 146.106 155.415 146.107 155.415 146.107C155.415 146.108 155.415 146.109 155.415 146.11C155.415 146.112 155.415 146.114 155.415 146.116C155.416 146.12 155.416 146.124 155.416 146.128C155.417 146.136 155.418 146.144 155.418 146.152C155.42 146.168 155.421 146.184 155.422 146.2C155.424 146.232 155.427 146.265 155.428 146.297C155.432 146.362 155.435 146.429 155.436 146.496C155.439 146.631 155.438 146.769 155.431 146.91L149.438 146.626ZM149.438 146.636L147.661 140.905C147.67 140.903 141.829 142.713 133.415 144.955C124.979 147.203 114.075 149.852 103.928 151.555L104.92 157.472L105.913 163.389C127.178 159.822 151.126 152.395 151.215 152.367L149.438 146.636ZM104.92 157.472L103.928 151.555C93.6013 153.287 79.7037 155.257 68.1539 156.692C62.3776 157.409 57.2374 157.986 53.452 158.333C51.5488 158.507 50.0569 158.616 49.0235 158.66C48.497 158.682 48.1813 158.683 48.0303 158.678C47.9513 158.675 48.0037 158.674 48.1389 158.691C48.1482 158.692 48.7584 158.753 49.5149 159.084L47.1108 164.581L44.7068 170.079C45.5802 170.461 46.372 170.563 46.625 170.595C47.0039 170.643 47.362 170.663 47.6477 170.672C48.226 170.69 48.8761 170.676 49.5283 170.649C50.8526 170.593 52.5709 170.463 54.5452 170.283C58.5146 169.92 63.7983 169.325 69.6329 168.6C81.305 167.151 95.3775 165.157 105.913 163.389L104.92 157.472ZM47.1108 164.581L49.524 159.088C49.6584 159.147 50.1161 159.377 50.5795 159.91C51.0552 160.458 51.2512 160.996 51.3199 161.252C51.3673 161.429 51.3414 161.431 51.314 160.995C51.3017 160.8 51.2916 160.566 51.2802 160.257C51.2698 159.974 51.257 159.587 51.2417 159.21L45.2466 159.454L39.2515 159.697C39.2884 160.605 39.2851 162.702 39.7288 164.358C40.0158 165.429 40.5392 166.651 41.5206 167.78C42.4897 168.896 43.6316 169.606 44.6977 170.075L47.1108 164.581ZM45.2466 159.454L51.2337 159.06L48.2073 113.024L42.2202 113.417L36.2331 113.811L39.2595 159.847L45.2466 159.454ZM42.2202 113.417L42.3932 119.415C42.4217 119.414 42.4462 119.413 42.4653 119.412C42.4846 119.412 42.5013 119.411 42.5146 119.41C42.5281 119.41 42.5397 119.409 42.5491 119.408C42.5586 119.408 42.5668 119.407 42.5735 119.407C42.5862 119.406 42.5965 119.406 42.602 119.405C42.6077 119.405 42.6123 119.405 42.6137 119.404C42.6145 119.404 42.6153 119.404 42.6154 119.404C42.6156 119.404 42.6153 119.404 42.615 119.404C42.6142 119.404 42.6121 119.405 42.6094 119.405C42.6039 119.405 42.5956 119.406 42.5856 119.406C42.565 119.407 42.5398 119.409 42.5112 119.41C42.4828 119.412 42.4526 119.413 42.4209 119.414L42.2398 113.416L42.0586 107.419C42.0212 107.42 41.986 107.422 41.9531 107.423C41.9201 107.425 41.8911 107.426 41.8672 107.428C41.8555 107.428 41.8458 107.429 41.8389 107.43C41.8356 107.43 41.8329 107.43 41.8315 107.43C41.8309 107.43 41.8303 107.43 41.8303 107.43C41.8301 107.43 41.8305 107.43 41.8311 107.43C41.832 107.43 41.8361 107.43 41.8414 107.429C41.8465 107.429 41.8563 107.428 41.8687 107.428C41.8752 107.427 41.8832 107.427 41.8925 107.426C41.9018 107.426 41.9133 107.425 41.9266 107.425C41.9397 107.424 41.9563 107.423 41.9755 107.422C41.9945 107.422 42.0188 107.421 42.0472 107.42L42.2202 113.417ZM42.2398 113.416L48.2283 113.046C48.1552 111.863 48.1202 110.985 48.104 110.355L42.106 110.509L36.108 110.664C36.1283 111.452 36.1701 112.474 36.2512 113.786L42.2398 113.416ZM42.106 110.509L48.0952 110.151C48.0801 109.898 48.0585 109.351 48.0938 108.729C48.1323 108.054 48.2226 107.595 48.292 107.39L42.6079 105.468L36.9239 103.547C35.8878 106.612 36.0673 110.043 36.1167 110.868L42.106 110.509ZM42.6079 105.468L48.2903 107.394C48.2797 107.426 48.3048 107.349 48.4045 107.133C48.4983 106.93 48.6317 106.66 48.8119 106.32C49.1736 105.637 49.6699 104.769 50.2982 103.731C51.5527 101.659 53.2405 99.0598 55.2177 96.1636C59.172 90.3713 64.1663 83.5626 68.9268 77.6658L64.2583 73.8969L59.5898 70.1279C54.6023 76.3059 49.4176 83.3763 45.3069 89.3977C43.2516 92.4083 41.4353 95.1998 40.0323 97.5176C38.7431 99.6476 37.49 101.877 36.9255 103.542L42.6079 105.468ZM64.2583 73.8969L68.9268 77.6658C78.3996 65.9321 88.1543 56.7613 88.1227 56.7911L84.0132 52.4193L79.9037 48.0476C79.7894 48.1551 69.5728 57.7623 59.5898 70.1279L64.2583 73.8969ZM84.0132 52.4193C90.0132 52.4193 90.0132 52.4217 90.0132 52.4241C90.0132 52.4249 90.0132 52.4273 90.0132 52.4289C90.0132 52.4321 90.0132 52.4352 90.0132 52.4382C90.0131 52.4443 90.0131 52.4503 90.0131 52.456C90.013 52.4675 90.0129 52.4783 90.0128 52.4883C90.0125 52.5084 90.0121 52.5257 90.0117 52.5403C90.0109 52.5694 90.01 52.5881 90.0095 52.5973C90.0085 52.6151 90.009 52.5978 90.0146 52.5527C90.0264 52.457 90.0563 52.2784 90.1227 52.0635C90.2584 51.6241 90.4833 51.2202 90.8572 50.9103L87.0288 46.2904L83.2004 41.6706C80.5587 43.8597 79.2757 46.5203 78.6576 48.5206C78.3471 49.5255 78.1884 50.4105 78.1061 51.0736C78.0645 51.4078 78.0414 51.6936 78.0287 51.9197C78.0222 52.033 78.0184 52.1321 78.0161 52.2156C78.015 52.2574 78.0143 52.2954 78.0138 52.3294C78.0136 52.3464 78.0134 52.3624 78.0133 52.3774C78.0133 52.3849 78.0132 52.3922 78.0132 52.3992C78.0132 52.4027 78.0132 52.4061 78.0132 52.4095C78.0132 52.4111 78.0132 52.4136 78.0132 52.4145C78.0132 52.4169 78.0132 52.4194 84.0132 52.4193Z" fill="white" mask="url(#path-1-outside-1_898_3595)"/>
<path d="M135.823 144.654C136.243 144.019 147.952 146.938 147.952 146.938C147.952 146.938 154.242 145.925 156.364 143.168C158.486 140.41 158.034 135.671 157.398 133.764C156.763 131.858 154.888 130.468 154.888 130.468C154.888 130.468 155.739 115.647 155.104 102.086C154.468 88.5354 153.617 82.3849 153.617 82.3849C153.617 82.3849 157.7 79.2613 157.269 73.2186C156.838 67.1759 151.722 65.5494 148.986 65.5385C145.14 65.5278 142.34 68.1237 142.34 68.1237C142.34 68.1237 142.857 60.0452 135.608 57.8586C131.03 56.4799 128.531 60.6161 128.531 60.6161C128.531 60.6161 129.436 52.4299 122.747 50.1787C117.447 48.4014 104.5 46.9364 104.5 46.9364H94.752C94.752 46.9364 90.6913 43.2634 87.029 46.2902C84.013 48.7892 84.013 52.4191 84.013 52.4191C84.013 52.4191 74.0065 61.8224 64.2584 73.8971C54.5103 85.9718 43.9006 101.655 42.608 105.468C41.8432 107.73 42.1233 110.778 42.1233 110.778C42.1233 110.778 50.2665 122.347 50.4388 126.569C50.6111 130.791 88.2139 139.225 88.3862 140.744C88.5693 142.274 135.823 144.654 135.823 144.654Z" fill="#FFFEFE"/>
<path d="M45.8285 152.927C45.8285 152.927 45.1284 156.535 45.2469 159.454C45.3654 162.373 45.2469 163.763 47.1104 164.581C48.9739 165.4 84.0561 160.973 104.92 157.472C125.784 153.971 149.438 146.636 149.438 146.636C149.438 146.636 150.569 122.971 149.524 110.821C148.361 97.3464 146.842 94.9768 142.178 92.7686C137.514 90.5498 129.08 93.6088 124.621 95.0522C109.541 99.91 83.2482 106.761 54.1009 108.29C44.5253 108.796 42.1124 108.678 42.1124 108.678C42.1124 108.678 42.0155 109.787 42.2418 113.439C42.5433 118.501 43.2542 126.311 43.3296 127.248C43.4374 128.874 45.8285 152.927 45.8285 152.927Z" fill="#FFFEFE"/>
<path d="M93.7283 107.245C110.348 103.874 132.074 96.8726 135.564 96.4093C139.065 95.9462 143.255 96.1723 144.774 102.818C146.292 109.464 146.292 128.454 146.174 131.718C146.055 134.981 145.711 141.972 145.711 141.972C145.711 141.972 132.193 148.381 99.5556 153.508C66.9184 158.635 45.2464 159.454 45.2464 159.454L42.2197 113.417C42.2197 113.417 66.6922 112.717 93.7283 107.245Z" fill="#F5D695"/>
<path d="M72.401 126.946C87.7285 124.781 105.738 121.356 122.746 116.336C132.225 113.546 145.56 108.29 145.56 108.29C145.56 108.29 145.775 110.854 145.958 113.643C146.142 116.433 146.292 122.056 146.292 122.056C146.292 122.056 128.229 130.565 96.4103 136.274C64.5917 141.983 44.1801 143.038 44.1801 143.038L43.3291 130.177C43.3184 130.177 55.0376 129.391 72.401 126.946Z" fill="#FFFEFE"/>
<path d="M95.8293 134.744C111.685 131.944 111.437 119.384 111.437 119.384C111.437 119.384 100.482 122.012 95.1292 123.09C90.7129 123.973 79.5322 125.858 79.5322 125.858C79.5322 125.858 83.5715 136.909 95.8293 134.744Z" fill="#FE4F20"/>
<path d="M146.293 122.045C146.412 121.345 144.128 112.351 131.493 115.055C118.277 117.877 116.403 131.955 117.07 131.804C117.868 131.61 125.526 129.596 132.818 127.226C140.886 124.587 146.293 122.045 146.293 122.045Z" fill="#FE4F20"/>
<path d="M45.1387 142.985C45.1387 142.985 47.7023 131.039 61.2633 130.231C76.8818 129.294 78.4221 139.215 78.4221 139.215C78.4221 139.215 65.9165 141.132 61.1448 141.649C53.4326 142.5 45.1387 142.985 45.1387 142.985Z" fill="#FE4F20"/>
<path d="M50.3529 101.278C49.7713 103.141 53.4766 102.549 59.0993 102.269C68.6535 101.795 84.8966 99.7482 102.723 95.0519C131.041 87.5982 144.882 82.4172 144.882 81.48C144.882 80.5429 124.018 66.5617 113.064 63.1795C102.109 59.7973 88.0095 54.0885 88.0095 54.6701C88.0095 55.2518 74.4268 68.2958 67.8456 76.579C61.1028 85.0991 51.15 98.7788 50.3529 101.278Z" fill="#FFFEFE"/>
<path d="M117 74.5C117 86.9264 114.251 90 98.3756 90C82.5 90 76 86.9264 76 74.5C76 62.0736 85.1782 52 96.5 52C107.822 52 117 62.0736 117 74.5Z" fill="#4B9AE8"/>
<path d="M100.838 71.9745C100.554 73.8146 98.0647 76.3471 96.2767 76.0714C94.4887 75.7957 92.8796 72.6297 93.1631 70.7896C93.4466 68.9496 94.8467 67.638 97.5144 68.0503C100.213 68.4667 101.121 70.1345 100.838 71.9745Z" fill="#E8BE0F"/>
<path d="M85.5001 71.0001C87.9854 71.0001 90.0001 68.9854 90.0001 66.5001C90.0001 64.0148 87.9854 62.0001 85.5001 62.0001C83.0148 62.0001 81.0001 64.0148 81.0001 66.5001C81.0001 68.9854 83.0148 71.0001 85.5001 71.0001Z" fill="white"/>
<path d="M85.5 64.0117C86.8746 64.012 87.9893 65.1263 87.9893 66.501C87.989 67.8754 86.8744 68.99 85.5 68.9902C84.1256 68.99 83.011 67.8754 83.0107 66.501C83.0107 65.1263 84.1254 64.0119 85.5 64.0117Z" fill="black"/>
<path d="M108.5 71.0001C110.985 71.0001 113 68.9854 113 66.5001C113 64.0148 110.985 62.0001 108.5 62.0001C106.015 62.0001 104 64.0148 104 66.5001C104 68.9854 106.015 71.0001 108.5 71.0001Z" fill="white"/>
<path d="M108.5 64.0117C109.875 64.012 110.989 65.1263 110.989 66.501C110.989 67.8754 109.874 68.99 108.5 68.9902C107.126 68.99 106.011 67.8754 106.011 66.501C106.011 65.1263 107.125 64.0119 108.5 64.0117Z" fill="black"/>
<path d="M80.2771 82.1298C73.4019 80.7096 69.0872 84.2382 68 87.061V95L137 92C137.311 87.9422 119.974 76.9194 112.264 80.7096C104.34 84.6048 103.849 79.5 95.5006 79.5C87.1522 79.5 87.1522 83.55 80.2771 82.1298Z" fill="#FFFEFE"/>
</svg>
