<svg width="200" height="200" viewBox="0 0 200 200" fill="none" xmlns="http://www.w3.org/2000/svg">
<mask id="path-1-outside-1_898_4716" maskUnits="userSpaceOnUse" x="26.3824" y="13.0439" width="148" height="174" fill="black">
<rect fill="white" x="26.3824" y="13.0439" width="148" height="174"/>
<path d="M121.63 22.7125C131.612 17.9459 140.364 20.6352 143.492 22.5758C173.295 33.758 158.765 63.5217 157.115 69.8043C165.418 80.9848 162.171 93.9753 158.126 101.128C158.579 102.978 158.861 104.737 159.002 106.405C163.656 117.383 169.099 132.961 167.382 141.048C164.876 152.855 154.183 140.369 152.728 135.649C152.678 135.486 152.621 135.288 152.556 135.059C152.484 135.35 152.412 135.638 152.337 135.923C152.252 135.947 152.165 135.966 152.078 135.989C150.99 141.015 149.749 147.605 148.867 150.962C146.768 151.526 135.622 152.392 121.566 153.092V171.435L131.968 169.288C133.541 169.288 134.96 169.925 135.998 170.963C137.026 172.002 137.673 173.421 137.673 174.994C137.673 178.129 135.103 180.699 131.968 180.699H116.96C114.586 180.699 112.643 178.756 112.643 176.381V153.497C105.444 153.79 97.8638 154.023 90.5813 154.141V176.381C90.5811 178.756 88.6383 180.699 86.2639 180.699H71.2561C70.2762 180.699 69.3514 180.447 68.5432 180.006C68.4456 179.953 68.3502 179.896 68.2561 179.837C66.6364 178.828 65.5512 177.031 65.551 174.994C65.551 173.421 66.1988 172.002 67.2268 170.963C68.265 169.925 69.6835 169.288 71.2561 169.288L81.6584 171.435V154.227C65.4171 154.259 52.3868 153.541 51.3791 151.391C49.6221 147.639 49.269 140.673 49.3323 135.994L48.8371 131.573C48.2191 133.561 47.7392 135.052 47.466 135.803C45.7776 140.445 34.474 152.383 32.5598 140.465C31.2181 132.111 37.758 116.293 43.0217 105.535C36.6263 93.7283 39.7866 82.8533 44.2541 71.233C37.8442 63.6736 29.0698 39.5448 41.2131 28.4625C53.3565 17.3801 60.3455 25.9301 67.4133 27.7857C81.2942 19.6778 88.7353 23.3101 95.0178 24.9596C105.345 17.5978 113.777 20.6507 121.63 22.7125ZM50.7248 125.391C51.6097 125.401 52.5028 125.408 53.4035 125.414C52.5003 125.357 51.6214 125.3 50.7688 125.244C50.7539 125.293 50.7396 125.342 50.7248 125.391Z"/>
</mask>
<path d="M121.63 22.7125C131.612 17.9459 140.364 20.6352 143.492 22.5758C173.295 33.758 158.765 63.5217 157.115 69.8043C165.418 80.9848 162.171 93.9753 158.126 101.128C158.579 102.978 158.861 104.737 159.002 106.405C163.656 117.383 169.099 132.961 167.382 141.048C164.876 152.855 154.183 140.369 152.728 135.649C152.678 135.486 152.621 135.288 152.556 135.059C152.484 135.35 152.412 135.638 152.337 135.923C152.252 135.947 152.165 135.966 152.078 135.989C150.99 141.015 149.749 147.605 148.867 150.962C146.768 151.526 135.622 152.392 121.566 153.092V171.435L131.968 169.288C133.541 169.288 134.96 169.925 135.998 170.963C137.026 172.002 137.673 173.421 137.673 174.994C137.673 178.129 135.103 180.699 131.968 180.699H116.96C114.586 180.699 112.643 178.756 112.643 176.381V153.497C105.444 153.79 97.8638 154.023 90.5813 154.141V176.381C90.5811 178.756 88.6383 180.699 86.2639 180.699H71.2561C70.2762 180.699 69.3514 180.447 68.5432 180.006C68.4456 179.953 68.3502 179.896 68.2561 179.837C66.6364 178.828 65.5512 177.031 65.551 174.994C65.551 173.421 66.1988 172.002 67.2268 170.963C68.265 169.925 69.6835 169.288 71.2561 169.288L81.6584 171.435V154.227C65.4171 154.259 52.3868 153.541 51.3791 151.391C49.6221 147.639 49.269 140.673 49.3323 135.994L48.8371 131.573C48.2191 133.561 47.7392 135.052 47.466 135.803C45.7776 140.445 34.474 152.383 32.5598 140.465C31.2181 132.111 37.758 116.293 43.0217 105.535C36.6263 93.7283 39.7866 82.8533 44.2541 71.233C37.8442 63.6736 29.0698 39.5448 41.2131 28.4625C53.3565 17.3801 60.3455 25.9301 67.4133 27.7857C81.2942 19.6778 88.7353 23.3101 95.0178 24.9596C105.345 17.5978 113.777 20.6507 121.63 22.7125ZM50.7248 125.391C51.6097 125.401 52.5028 125.408 53.4035 125.414C52.5003 125.357 51.6214 125.3 50.7688 125.244C50.7539 125.293 50.7396 125.342 50.7248 125.391Z" fill="#22588D"/>
<path d="M121.63 22.7125L120.106 28.5158C121.479 28.8762 122.935 28.7384 124.216 28.1268L121.63 22.7125ZM143.492 22.5758L140.33 27.6744C140.663 27.8815 141.017 28.0553 141.385 28.1933L143.492 22.5758ZM157.115 69.8043L151.312 68.2807C150.85 70.0425 151.212 71.919 152.298 73.3814L157.115 69.8043ZM158.126 101.128L152.903 98.1752C152.152 99.5046 151.935 101.071 152.298 102.554L158.126 101.128ZM159.002 106.405L153.023 106.909C153.077 107.542 153.23 108.162 153.478 108.747L159.002 106.405ZM167.382 141.048L173.251 142.294L173.251 142.294L167.382 141.048ZM152.728 135.649L146.994 137.416L146.994 137.417L152.728 135.649ZM152.556 135.059L158.326 133.416C157.582 130.801 155.172 129.014 152.454 129.06C149.736 129.106 147.389 130.974 146.733 133.612L152.556 135.059ZM152.337 135.923L153.909 141.714C155.981 141.151 157.595 139.524 158.14 137.447L152.337 135.923ZM152.078 135.989L150.553 130.186C148.369 130.76 146.692 132.512 146.214 134.719L152.078 135.989ZM148.867 150.962L150.423 156.757C152.503 156.199 154.124 154.569 154.671 152.486L148.867 150.962ZM121.566 153.092L121.267 147.1C118.073 147.259 115.566 149.895 115.566 153.092H121.566ZM121.566 171.435H115.566C115.566 173.239 116.377 174.947 117.776 176.087C119.175 177.226 121.012 177.676 122.779 177.311L121.566 171.435ZM131.968 169.288V163.288C131.56 163.288 131.154 163.329 130.755 163.412L131.968 169.288ZM135.998 170.963L140.262 166.742C140.255 166.735 140.248 166.728 140.241 166.721L135.998 170.963ZM137.673 174.994L143.673 174.994V174.994H137.673ZM116.96 180.699L116.96 186.699H116.96V180.699ZM112.643 176.381L106.643 176.381L106.643 176.382L112.643 176.381ZM112.643 153.497H118.643C118.643 151.863 117.977 150.3 116.798 149.168C115.62 148.037 114.031 147.435 112.398 147.502L112.643 153.497ZM90.5813 154.141L90.484 148.142C87.2087 148.195 84.5813 150.865 84.5813 154.141H90.5813ZM90.5813 176.381L96.5813 176.382V176.381H90.5813ZM68.5432 180.006L71.4163 174.739L71.4162 174.739L68.5432 180.006ZM68.2561 179.837L65.0816 184.929L65.0818 184.929L68.2561 179.837ZM65.551 174.994L59.551 174.994L59.551 174.994L65.551 174.994ZM67.2268 170.963L62.9845 166.72C62.9774 166.728 62.9702 166.735 62.9631 166.742L67.2268 170.963ZM71.2561 169.288L72.4691 163.412C72.07 163.329 71.6636 163.288 71.2561 163.288V169.288ZM81.6584 171.435L80.4454 177.311C82.2122 177.676 84.0493 177.226 85.448 176.087C86.8467 174.947 87.6584 173.239 87.6584 171.435H81.6584ZM81.6584 154.227H87.6584C87.6584 152.634 87.0247 151.106 85.8969 149.98C84.7691 148.855 83.2399 148.224 81.6466 148.227L81.6584 154.227ZM51.3791 151.391L45.9455 153.936L45.9464 153.938L51.3791 151.391ZM49.3323 135.994L55.3317 136.075C55.3351 135.825 55.3228 135.575 55.295 135.326L49.3323 135.994ZM48.8371 131.573L54.7999 130.905C54.4838 128.083 52.2328 125.869 49.406 125.6C46.5792 125.331 43.9507 127.08 43.1077 129.791L48.8371 131.573ZM47.466 135.803L53.1045 137.855L53.1045 137.854L47.466 135.803ZM32.5598 140.465L26.6357 141.417L26.6357 141.417L32.5598 140.465ZM43.0217 105.535L48.4112 108.172C49.2637 106.429 49.2213 104.382 48.2974 102.677L43.0217 105.535ZM44.2541 71.233L49.8545 73.3861C50.6416 71.3389 50.2489 69.0254 48.8304 67.3526L44.2541 71.233ZM41.2131 28.4625L37.1685 24.0306L37.1685 24.0306L41.2131 28.4625ZM67.4133 27.7857L65.8897 33.589C67.4288 33.9931 69.0655 33.7693 70.4395 32.9666L67.4133 27.7857ZM95.0178 24.9596L93.4942 30.7629C95.2165 31.2151 97.0507 30.8789 98.5006 29.8452L95.0178 24.9596ZM50.7248 125.391L44.9803 123.659C44.4358 125.465 44.7721 127.422 45.8883 128.942C47.0044 130.462 48.7706 131.369 50.6566 131.391L50.7248 125.391ZM53.4035 125.414L53.3671 131.414C56.615 131.433 59.289 128.865 59.4 125.619C59.5111 122.373 57.019 119.628 53.7773 119.425L53.4035 125.414ZM50.7688 125.244L51.1661 119.257C48.3776 119.072 45.8306 120.836 45.0241 123.512L50.7688 125.244ZM121.63 22.7125L124.216 28.1268C132.126 24.3496 138.714 26.6719 140.33 27.6744L143.492 22.5758L146.655 17.4771C142.015 14.5986 131.098 11.5422 119.045 17.2981L121.63 22.7125ZM143.492 22.5758L141.385 28.1933C147.819 30.6077 151.354 33.8112 153.346 36.9814C155.371 40.2053 156.146 43.9461 156.099 47.9567C155.997 56.6228 152.509 63.7211 151.312 68.2807L157.115 69.8043L162.919 71.3279C163.371 69.6049 167.973 58.6801 168.098 48.0981C168.164 42.4847 167.087 36.2952 163.506 30.5971C159.892 24.8452 154.067 20.1349 145.6 16.9582L143.492 22.5758ZM157.115 69.8043L152.298 73.3814C158.603 81.8713 156.353 92.0745 152.903 98.1752L158.126 101.128L163.349 104.082C167.989 95.8762 172.233 80.0982 161.933 66.2272L157.115 69.8043ZM158.126 101.128L152.298 102.554C152.679 104.11 152.91 105.562 153.023 106.909L159.002 106.405L164.981 105.9C164.813 103.913 164.478 101.845 163.954 99.7028L158.126 101.128ZM159.002 106.405L153.478 108.747C155.749 114.105 158.165 120.476 159.796 126.403C161.511 132.633 162.043 137.303 161.513 139.803L167.382 141.048L173.251 142.294C174.437 136.706 173.107 129.544 171.366 123.218C169.541 116.589 166.909 109.683 164.526 104.063L159.002 106.405ZM167.382 141.048L161.513 139.803C161.036 142.051 160.682 140.656 162.505 140.106C163.249 139.881 163.757 140.028 163.791 140.038C163.804 140.042 163.577 139.966 163.12 139.644C162.194 138.99 161.07 137.856 160.067 136.528C159.585 135.89 159.186 135.28 158.892 134.761C158.746 134.504 158.638 134.29 158.562 134.124C158.484 133.952 158.459 133.873 158.461 133.881L152.728 135.649L146.994 137.417C147.653 139.555 149.059 141.865 150.491 143.761C151.981 145.732 153.96 147.867 156.202 149.449C158.156 150.828 161.824 152.847 165.974 151.593C170.553 150.211 172.475 145.949 173.251 142.294L167.382 141.048ZM152.728 135.649L158.462 133.882C158.434 133.793 158.397 133.664 158.326 133.416L152.556 135.059L146.785 136.703C146.845 136.912 146.921 137.179 146.994 137.416L152.728 135.649ZM152.556 135.059L146.733 133.612C146.659 133.91 146.597 134.16 146.534 134.4L152.337 135.923L158.14 137.447C158.227 137.117 158.308 136.789 158.379 136.506L152.556 135.059ZM152.337 135.923L150.765 130.133C150.786 130.127 150.8 130.124 150.801 130.124C150.801 130.124 150.796 130.125 150.777 130.13C150.763 130.133 150.727 130.142 150.694 130.15C150.657 130.159 150.608 130.171 150.553 130.186L152.078 135.989L153.604 141.792C153.59 141.795 153.578 141.798 153.64 141.783C153.682 141.773 153.789 141.747 153.909 141.714L152.337 135.923ZM152.078 135.989L146.214 134.719C145.053 140.083 143.906 146.234 143.064 149.439L148.867 150.962L154.671 152.486C155.592 148.977 156.927 141.948 157.943 137.258L152.078 135.989ZM148.867 150.962L147.312 145.168C147.399 145.144 147.278 145.179 146.789 145.252C146.357 145.316 145.775 145.389 145.037 145.47C143.565 145.632 141.605 145.81 139.234 145.994C134.5 146.363 128.258 146.752 121.267 147.1L121.566 153.092L121.864 159.085C128.93 158.733 135.289 158.338 140.167 157.958C142.602 157.768 144.7 157.58 146.348 157.399C147.824 157.236 149.379 157.038 150.423 156.757L148.867 150.962ZM121.566 153.092H115.566V171.435H121.566H127.566V153.092H121.566ZM121.566 171.435L122.779 177.311L133.181 175.164L131.968 169.288L130.755 163.412L120.353 165.559L121.566 171.435ZM131.968 169.288V175.288C131.936 175.288 131.887 175.28 131.839 175.259C131.795 175.24 131.769 175.219 131.756 175.206L135.998 170.963L140.241 166.721C138.132 164.611 135.207 163.288 131.968 163.288V169.288ZM135.998 170.963L131.735 175.185C131.731 175.182 131.717 175.166 131.701 175.13C131.684 175.089 131.673 175.038 131.673 174.994H137.673H143.673C143.673 171.733 142.325 168.825 140.262 166.742L135.998 170.963ZM137.673 174.994L131.673 174.993C131.673 174.89 131.721 174.812 131.753 174.779C131.786 174.746 131.864 174.699 131.968 174.699V180.699V186.699C138.417 186.699 143.673 181.442 143.673 174.994L137.673 174.994ZM131.968 180.699V174.699H116.96V180.699V186.699H131.968V180.699ZM116.96 180.699L116.96 174.699C117.9 174.699 118.643 175.442 118.643 176.381L112.643 176.381L106.643 176.382C106.643 182.069 111.272 186.699 116.96 186.699L116.96 180.699ZM112.643 176.381H118.643V153.497H112.643H106.643V176.381H112.643ZM112.643 153.497L112.398 147.502C105.24 147.793 97.709 148.025 90.484 148.142L90.5813 154.141L90.6786 160.14C98.0187 160.021 105.649 159.787 112.887 159.492L112.643 153.497ZM90.5813 154.141H84.5813V176.381H90.5813H96.5813V154.141H90.5813ZM90.5813 176.381L84.5813 176.381C84.5814 175.443 85.3241 174.699 86.2639 174.699V180.699V186.699C91.9526 186.699 96.5808 182.069 96.5813 176.382L90.5813 176.381ZM86.2639 180.699V174.699H71.2561V180.699V186.699H86.2639V180.699ZM71.2561 180.699V174.699C71.2815 174.699 71.3115 174.702 71.3423 174.71C71.3721 174.718 71.3969 174.728 71.4163 174.739L68.5432 180.006L65.6701 185.274C67.3289 186.179 69.2378 186.699 71.2561 186.699V180.699ZM68.5432 180.006L71.4162 174.739C71.4364 174.75 71.4483 174.757 71.4503 174.758C71.4521 174.759 71.4464 174.756 71.4304 174.746L68.2561 179.837L65.0818 184.929C65.2359 185.025 65.437 185.147 65.6702 185.274L68.5432 180.006ZM68.2561 179.837L71.4305 174.746C71.4618 174.765 71.4865 174.79 71.5072 174.827C71.5325 174.871 71.551 174.933 71.551 174.993L65.551 174.994L59.551 174.994C59.5513 179.21 61.7984 182.882 65.0816 184.929L68.2561 179.837ZM65.551 174.994H71.551C71.551 175.04 71.5401 175.09 71.5226 175.131C71.5074 175.167 71.4931 175.182 71.4905 175.185L67.2268 170.963L62.9631 166.742C60.9021 168.824 59.551 171.731 59.551 174.994H65.551ZM67.2268 170.963L71.469 175.206C71.4568 175.219 71.4307 175.24 71.3864 175.259C71.3378 175.28 71.2889 175.288 71.2561 175.288V169.288V163.288C68.0158 163.288 65.0926 164.613 62.9845 166.72L67.2268 170.963ZM71.2561 169.288L70.043 175.164L80.4454 177.311L81.6584 171.435L82.8715 165.559L72.4691 163.412L71.2561 169.288ZM81.6584 171.435H87.6584V154.227H81.6584H75.6584V171.435H81.6584ZM81.6584 154.227L81.6466 148.227C73.5778 148.243 66.4581 148.071 61.2969 147.647C58.6864 147.433 56.7882 147.17 55.5868 146.896C54.968 146.755 54.773 146.663 54.8336 146.691C54.8719 146.709 55.1184 146.824 55.4464 147.086C55.7644 147.339 56.3671 147.896 56.8119 148.845L51.3791 151.391L45.9464 153.938C47.0091 156.205 48.9969 157.211 49.7731 157.572C50.8027 158.051 51.9178 158.367 52.9161 158.595C54.9488 159.059 57.5122 159.377 60.3154 159.607C65.9816 160.072 73.4977 160.243 81.6703 160.227L81.6584 154.227ZM51.3791 151.391L56.8128 148.846C56.3698 147.901 55.9215 146.034 55.6388 143.4C55.3717 140.91 55.3023 138.251 55.3317 136.075L49.3323 135.994L43.3328 135.913C43.299 138.416 43.3745 141.579 43.7073 144.68C44.0246 147.637 44.6313 151.13 45.9455 153.936L51.3791 151.391ZM49.3323 135.994L55.295 135.326L54.7999 130.905L48.8371 131.573L42.8744 132.241L43.3695 136.662L49.3323 135.994ZM48.8371 131.573L43.1077 129.791C42.4809 131.807 42.0433 133.159 41.8275 133.752L47.466 135.803L53.1045 137.854C53.4351 136.946 53.9572 135.314 54.5666 133.354L48.8371 131.573ZM47.466 135.803L41.8276 133.752C41.8305 133.744 41.8018 133.822 41.7148 133.99C41.6309 134.152 41.5121 134.36 41.3537 134.609C41.0346 135.112 40.6059 135.701 40.0926 136.315C39.0241 137.592 37.8452 138.668 36.8871 139.275C36.4146 139.574 36.1839 139.639 36.1973 139.635C36.231 139.627 36.7458 139.506 37.4775 139.767C39.2715 140.408 38.8483 141.783 38.4839 139.514L32.5598 140.465L26.6357 141.417C27.2284 145.107 28.936 149.458 33.4405 151.068C37.5228 152.526 41.2867 150.693 43.308 149.413C45.6262 147.944 47.7094 145.911 49.2951 144.016C50.82 142.194 52.3397 139.957 53.1045 137.855L47.466 135.803ZM32.5598 140.465L38.4839 139.514C38.0671 136.919 38.8881 132.12 41.0029 125.808C43.0131 119.807 45.8418 113.423 48.4112 108.172L43.0217 105.535L37.6322 102.898C34.9378 108.405 31.8648 115.309 29.6245 121.996C27.4889 128.37 25.7108 135.658 26.6357 141.417L32.5598 140.465ZM43.0217 105.535L48.2974 102.677C43.294 93.4403 45.4184 84.9246 49.8545 73.3861L44.2541 71.233L38.6538 69.0799C34.1548 80.782 29.9586 94.0163 37.746 108.393L43.0217 105.535ZM44.2541 71.233L48.8304 67.3526C46.4444 64.5387 43.0156 57.6608 41.6847 50.1253C40.3323 42.4676 41.4822 36.34 45.2577 32.8943L41.2131 28.4625L37.1685 24.0306C28.8007 31.6673 28.2662 43.1452 29.8676 52.2124C31.4906 61.4017 35.6539 70.3679 39.6779 75.1134L44.2541 71.233ZM41.2131 28.4625L45.2577 32.8943C47.8078 30.5671 49.7448 29.584 51.13 29.1763C52.4491 28.7881 53.6065 28.8197 54.8317 29.1103C56.1922 29.4331 57.5698 30.0504 59.4331 30.9516C61.0691 31.7429 63.4296 32.9432 65.8897 33.589L67.4133 27.7857L68.937 21.9824C67.8631 21.7005 66.6995 21.1362 64.6578 20.1487C62.8434 19.2712 60.3895 18.0958 57.6015 17.4344C54.678 16.7409 51.3695 16.5969 47.742 17.6645C44.1806 18.7127 40.6902 20.8167 37.1685 24.0306L41.2131 28.4625ZM67.4133 27.7857L70.4395 32.9666C76.583 29.3782 80.8298 28.6408 83.927 28.712C87.3751 28.7914 89.6504 29.7537 93.4942 30.7629L95.0178 24.9596L96.5414 19.1562C94.1027 18.516 89.5161 16.8374 84.2029 16.7152C78.5387 16.5849 72.1246 18.0853 64.3871 22.6048L67.4133 27.7857ZM95.0178 24.9596L98.5006 29.8452C102.582 26.9356 105.995 26.2289 109.114 26.3006C112.6 26.3808 115.788 27.3821 120.106 28.5158L121.63 22.7125L123.154 16.9092C119.619 15.9811 114.664 14.4251 109.39 14.3038C103.747 14.174 97.7803 15.6218 91.535 20.0739L95.0178 24.9596ZM50.7248 125.391L50.6566 131.391C51.5556 131.401 52.4601 131.408 53.3671 131.414L53.4035 125.414L53.44 119.414C52.5455 119.408 51.6637 119.401 50.7931 119.392L50.7248 125.391ZM53.4035 125.414L53.7773 119.425C52.8833 119.37 52.0124 119.313 51.1661 119.257L50.7688 125.244L50.3715 131.231C51.2305 131.288 52.1173 131.345 53.0297 131.402L53.4035 125.414ZM50.7688 125.244L45.0241 123.512C45.0119 123.553 45.0006 123.591 44.994 123.613C44.986 123.64 44.9828 123.651 44.9803 123.659L50.7248 125.391L56.4693 127.123C56.4816 127.083 56.493 127.044 56.4996 127.022C56.5076 126.995 56.5108 126.984 56.5135 126.975L50.7688 125.244Z" fill="white" mask="url(#path-1-outside-1_898_4716)"/>
<path d="M32.5602 140.466C30.646 128.548 44.768 101.443 48.3497 95.5017L58.282 99.8253C55.2395 110.271 48.8167 132.091 47.4659 135.804C45.7775 140.445 34.4744 152.383 32.5602 140.466Z" fill="#276286"/>
<path d="M167.382 141.049C169.888 129.241 157.136 101.465 153.855 95.3531L143.719 99.1759C146.237 109.76 151.563 131.873 152.727 135.649C154.182 140.368 164.876 152.856 167.382 141.049Z" fill="#276286"/>
<path d="M90.5815 129.136V176.381C90.5815 178.756 88.6386 180.699 86.2641 180.699H71.256C68.1207 180.699 65.5508 178.129 65.5508 174.993C65.5508 173.421 66.1985 172.002 67.2264 170.964C68.2646 169.926 69.6832 169.288 71.256 169.288L81.6588 171.437V129.147C81.6588 126.772 83.6017 124.829 85.9762 124.829H86.2641C88.6386 124.829 90.5815 126.772 90.5815 129.147V129.136Z" fill="#4B9AE8"/>
<path d="M112.643 129.136V176.381C112.643 178.756 114.586 180.699 116.96 180.699H131.968C135.104 180.699 137.674 178.129 137.674 174.993C137.674 173.421 137.026 172.002 135.998 170.964C134.96 169.926 133.541 169.288 131.968 169.288L121.566 171.437V129.147C121.566 126.772 119.623 124.829 117.248 124.829H116.96C114.586 124.829 112.643 126.772 112.643 129.147V129.136Z" fill="#4B9AE8"/>
<path d="M51.3793 151.391C49.2277 146.796 49.1809 137.382 49.4265 133.25C79.3474 134.389 130.701 132.762 153.031 131.908C151.794 136.62 150.022 146.564 148.868 150.962C142.546 152.66 54.0689 157.133 51.3793 151.391Z" fill="#AE601E"/>
<path d="M49.4003 136.601L48.1407 125.357C83.6951 125.961 134.243 122.499 155.466 120.796C154.779 123.413 153.822 130.269 152.337 135.924C133.473 141.044 75.8526 138.509 49.4003 136.601Z" fill="#EBF5FF"/>
<path d="M121.631 22.7127C131.612 17.9461 140.364 20.6355 143.492 22.5761C173.295 33.7582 158.765 63.5216 157.116 69.8041C165.419 80.9849 162.171 93.9758 158.126 101.129C160.547 111.026 158.126 118.334 154.915 122.951C132.47 129.146 74.1244 126.924 47.7571 125.038C44.0274 121.582 43.768 115.932 44.0274 107.27C36.3212 94.7878 39.5689 83.4207 44.2545 71.2333C37.8446 63.6743 29.0694 39.5448 41.2129 28.4623C53.3564 17.3798 60.3455 25.9303 67.4134 27.7859C81.2943 19.6779 88.7352 23.3103 95.0177 24.9597C105.345 17.5977 113.777 20.6509 121.631 22.7127Z" fill="#4B9AE8"/>
<path d="M68.7985 71.2416C75.9732 71.2416 81.7895 65.4254 81.7895 58.2507C81.7895 51.076 75.9732 45.2598 68.7985 45.2598C61.6238 45.2598 55.8076 51.076 55.8076 58.2507C55.8076 65.4254 61.6238 71.2416 68.7985 71.2416Z" fill="white"/>
<path d="M68.7988 65.1802C72.6257 65.1802 75.7281 62.0778 75.7281 58.2509C75.7281 54.4239 72.6257 51.3215 68.7988 51.3215C64.9718 51.3215 61.8694 54.4239 61.8694 58.2509C61.8694 62.0778 64.9718 65.1802 68.7988 65.1802Z" fill="#040000"/>
<path d="M130.505 71.2416C137.68 71.2416 143.496 65.4254 143.496 58.2507C143.496 51.076 137.68 45.2598 130.505 45.2598C123.331 45.2598 117.515 51.076 117.515 58.2507C117.515 65.4254 123.331 71.2416 130.505 71.2416Z" fill="white"/>
<path d="M130.506 65.1802C134.333 65.1802 137.435 62.0778 137.435 58.2509C137.435 54.4239 134.333 51.3215 130.506 51.3215C126.679 51.3215 123.576 54.4239 123.576 58.2509C123.576 62.0778 126.679 65.1802 130.506 65.1802Z" fill="#040000"/>
<path d="M111.444 72.4407C111.443 77.7608 105.33 85.9798 100.022 85.9776C94.7021 85.9762 88.6185 77.731 88.6318 72.4101C88.645 67.0891 92.124 62.7829 100.051 62.7946C108.073 62.7997 111.457 67.1198 111.444 72.4407Z" fill="#EAC00F"/>
<path d="M93 134.5C93 132.552 102.088 127.265 102.088 127.265C102.088 127.265 109.395 132.462 109.395 135.709C109.395 138.957 102.624 150 101 150C99.3761 150 93 136.449 93 134.5Z" fill="#E03756"/>
<path d="M91.412 137.82C88.252 137.82 74.9802 127.752 72.4523 126.453C80.0362 126.453 93.9246 127.265 102.088 127.265C102.088 127.265 94.572 137.82 91.412 137.82Z" fill="white"/>
<path d="M111.952 137.82C115.112 137.82 128.383 127.752 130.911 126.453C123.327 126.453 109.845 126.994 101.682 126.994C101.682 126.994 108.792 137.82 111.952 137.82Z" fill="white"/>
<circle cx="141.061" cy="89.9163" r="7.3074" fill="#6DB4FB"/>
<ellipse cx="142.5" cy="35.5" rx="7.5" ry="6.5" fill="#6DB4FB"/>
<ellipse cx="53" cy="37" rx="6" ry="5" fill="#6DB4FB"/>
<ellipse cx="59.0553" cy="91.54" rx="6.49546" ry="5.68353" fill="#6DB4FB"/>
<ellipse cx="73.6702" cy="107.779" rx="8.11933" ry="7.3074" fill="#6DB4FB"/>
<circle cx="131.317" cy="106.155" r="4.05966" fill="#6DB4FB"/>
<path d="M90.5811 176.381C90.5811 178.755 88.6383 180.698 86.2637 180.698H71.2559C68.1207 180.698 65.5508 178.128 65.5508 174.993C65.5509 173.42 66.1987 172.002 67.2266 170.964C68.2648 169.926 69.6832 169.288 71.2559 169.288L81.6592 171.437V167.05H90.5811V176.381Z" fill="#1D1C1C"/>
<path d="M112.643 176.381C112.643 178.755 114.586 180.698 116.96 180.698H131.968C135.103 180.698 137.673 178.128 137.673 174.993C137.673 173.42 137.025 172.002 135.998 170.964C134.959 169.926 133.541 169.288 131.968 169.288L121.565 171.437V167.05H112.643V176.381Z" fill="#1D1C1C"/>
<path d="M80.9103 81.7364C77.3627 75.3122 66.6863 65.0218 52.3613 75.2542" stroke="#22588D" stroke-width="2" stroke-linecap="round"/>
<path d="M124.61 81.2947C126.941 74.6581 135.113 63.6281 149.149 72.6005" stroke="#22588D" stroke-width="2" stroke-linecap="round"/>
</svg>
