<svg width="200" height="200" viewBox="0 0 200 200" fill="none" xmlns="http://www.w3.org/2000/svg">
<mask id="path-1-outside-1_1062_25886" maskUnits="userSpaceOnUse" x="22" y="22" width="156" height="161" fill="black">
<rect fill="white" x="22" y="22" width="156" height="161"/>
<path d="M100 28C148.009 28 172 60.2354 172 100C172 113.364 169.29 125.877 163.87 136.603C163.914 136.735 163.958 136.867 164 137C171.371 160.096 139.14 188.505 117.146 170.486C111.818 171.478 106.103 172 100 172C51.9904 172 28 139.765 28 100C28 60.2354 51.9904 28 100 28Z"/>
</mask>
<path d="M100 28C148.009 28 172 60.2354 172 100C172 113.364 169.29 125.877 163.87 136.603C163.914 136.735 163.958 136.867 164 137C171.371 160.096 139.14 188.505 117.146 170.486C111.818 171.478 106.103 172 100 172C51.9904 172 28 139.765 28 100C28 60.2354 51.9904 28 100 28Z" fill="#276288"/>
<path d="M100 28L100 22H100V28ZM172 100L178 100V100H172ZM163.87 136.603L158.515 133.896C157.796 135.32 157.673 136.971 158.173 138.486L163.87 136.603ZM164 137L169.716 135.176L169.716 135.176L164 137ZM117.146 170.486L120.948 165.845C119.58 164.724 117.787 164.264 116.048 164.588L117.146 170.486ZM100 172L100 178L100 172ZM28 100L22 100V100L28 100ZM100 28L100 34C122.586 34 138.891 41.535 149.59 53.1528C160.363 64.8515 166 81.2903 166 100H172H178C178 78.9451 171.641 59.3839 158.417 45.0238C145.118 30.5828 125.423 22 100 22L100 28ZM172 100L166 100C166 112.566 163.451 124.129 158.515 133.896L163.87 136.603L169.225 139.309C175.129 127.626 178 114.161 178 100L172 100ZM163.87 136.603L158.173 138.486C158.219 138.624 158.253 138.726 158.284 138.824L164 137L169.716 135.176C169.663 135.008 169.609 134.846 169.567 134.719L163.87 136.603ZM164 137L158.284 138.824C160.949 147.175 156.56 157.649 147.887 164.436C139.422 171.061 129.081 172.508 120.948 165.845L117.146 170.486L113.343 175.128C127.204 186.483 143.976 182.735 155.283 173.886C166.381 165.2 174.422 149.921 169.716 135.176L164 137ZM117.146 170.486L116.048 164.588C111.107 165.507 105.761 166 100 166L100 172L100 178C106.446 178 112.53 177.448 118.243 176.385L117.146 170.486ZM100 172V166C77.4139 166 61.1088 158.465 50.41 146.847C39.6367 135.149 34 118.71 34 100L28 100L22 100C22 121.055 28.3585 140.616 41.5828 154.976C54.8816 169.417 74.5765 178 100 178V172ZM28 100H34C34 81.2903 39.6367 64.8515 50.41 53.1528C61.1088 41.535 77.4139 34 100 34V28V22C74.5764 22 54.8816 30.5827 41.5828 45.0238C28.3585 59.384 22 78.9452 22 100H28Z" fill="white" mask="url(#path-1-outside-1_1062_25886)"/>
<path d="M100 172C148.009 172 172 139.765 172 100C172 60.2354 148.009 28 100 28C51.9904 28 28 60.2354 28 100C28 139.765 51.9904 172 100 172Z" fill="#4B9AE8"/>
<path d="M66.5 92C56.835 92 49 84.165 49 74.5C49 64.835 56.835 57 66.5 57C76.165 57 84 64.835 84 74.5C84 84.165 76.165 92 66.5 92Z" fill="white"/>
<path d="M61.4957 74.3699C61.6537 73.5663 62.0153 72.5812 62.7028 71.8403C63.292 71.2052 64.3391 70.4997 66.4843 70.4997C68.5929 70.4997 69.6666 71.2199 70.2866 71.8932C71.0032 72.6716 71.3485 73.6641 71.4612 74.3056C71.7717 76.0738 73.4726 77.2584 75.2603 76.9516C77.0483 76.6445 78.2459 74.9617 77.9354 73.1935C77.6758 71.7151 76.9323 69.4578 75.1443 67.5162C73.2594 65.4695 70.4125 64 66.4843 64C62.5933 64 59.7581 65.4017 57.8617 67.4453C56.0637 69.383 55.3366 71.6479 55.0454 73.1292C54.699 74.8912 55.8622 76.5971 57.6434 76.9396C59.4246 77.2821 61.1493 76.1317 61.4957 74.3699Z" fill="#040000"/>
<path d="M131.428 92C121.763 92 113.928 84.165 113.928 74.5C113.928 64.835 121.763 57 131.428 57C141.093 57 148.928 64.835 148.928 74.5C148.928 84.165 141.093 92 131.428 92Z" fill="white"/>
<path d="M126.423 74.3699C126.581 73.5663 126.943 72.5812 127.631 71.8403C128.22 71.2052 129.267 70.4997 131.412 70.4997C133.521 70.4997 134.594 71.2199 135.214 71.8932C135.931 72.6716 136.276 73.6641 136.389 74.3056C136.699 76.0738 138.4 77.2584 140.188 76.9516C141.976 76.6445 143.174 74.9617 142.863 73.1935C142.604 71.7151 141.86 69.4578 140.072 67.5162C138.187 65.4695 135.34 64 131.412 64C127.521 64 124.686 65.4017 122.789 67.4453C120.991 69.383 120.264 71.6479 119.973 73.1292C119.627 74.8912 120.79 76.5971 122.571 76.9396C124.352 77.2821 126.077 76.1317 126.423 74.3699Z" fill="#040000"/>
<path d="M113.915 94.5053C113.161 100.017 106.734 108.954 100.063 109C93.3926 109.046 86.3448 99.9825 86.0161 94.044C85.6875 88.1171 90.3739 84.0581 100.331 84.0005C110.398 83.9428 114.67 88.9934 113.915 94.5053Z" fill="#EAC00F"/>
<path d="M108.501 98.5C126.5 94.0003 156.5 113.5 164 137C171.5 160.5 138.001 189.5 116.002 169.5C94.0023 149.5 94.5014 102 108.501 98.5Z" fill="#276288"/>
</svg>
