<svg width="200" height="200" viewBox="0 0 200 200" fill="none" xmlns="http://www.w3.org/2000/svg">
<mask id="path-1-outside-1_922_10369" maskUnits="userSpaceOnUse" x="41.9333" y="24.825" width="115" height="150" fill="black">
<rect fill="white" x="41.9333" y="24.825" width="115" height="150"/>
<path d="M48.3027 99.9994C51.5506 64.3231 75.411 29.1991 105.957 31.9798C130.462 34.2108 146.327 59.6596 149.968 88.058C149.978 88.1351 149.986 88.2123 149.996 88.2894C150.275 90.5082 150.48 92.7442 150.608 94.9886C150.613 95.0781 150.618 95.1677 150.623 95.2572C150.645 95.6528 150.664 96.0486 150.681 96.4447C150.685 96.5423 150.688 96.64 150.692 96.7377C150.781 98.9871 150.793 101.242 150.726 103.493C150.723 103.565 150.722 103.637 150.72 103.709C150.708 104.08 150.694 104.451 150.678 104.822C150.67 104.989 150.662 105.156 150.654 105.324C150.637 105.674 150.619 106.025 150.598 106.375C150.592 106.463 150.587 106.551 150.581 106.639C150.525 107.525 150.461 108.41 150.381 109.292C148.405 131 138.821 149.877 124.197 160.195C124.035 160.309 123.873 160.422 123.71 160.534C122.33 161.482 120.907 162.355 119.441 163.148C118.467 163.675 117.474 164.166 116.463 164.62C116.349 164.672 116.234 164.722 116.119 164.773C115.256 165.152 114.381 165.505 113.493 165.829C113.162 165.951 112.829 166.067 112.494 166.18C112.248 166.264 112 166.346 111.752 166.425C111.561 166.486 111.37 166.546 111.179 166.604C106.993 167.878 102.551 168.551 97.8867 168.54C96.4594 168.537 95.0115 168.471 93.5439 168.337C93.0546 168.293 92.5683 168.242 92.0859 168.184C91.6038 168.126 91.1254 168.06 90.6503 167.989C90.1748 167.917 89.7028 167.839 89.2343 167.754C87.0136 167.352 84.8731 166.8 82.8144 166.111C82.5624 166.026 82.312 165.939 82.0625 165.851C81.4549 165.636 80.8545 165.409 80.2617 165.169C80.0306 165.076 79.801 164.98 79.5722 164.883C79.1787 164.717 78.7881 164.546 78.4013 164.369C78.187 164.27 77.974 164.17 77.7617 164.069C76.7611 163.591 75.7834 163.078 74.8291 162.532C73.8641 161.979 72.9228 161.392 72.0058 160.771C71.3602 160.334 70.726 159.881 70.1044 159.411C54.0522 147.289 46.0681 124.546 48.3027 99.9994Z"/>
</mask>
<path d="M48.3027 99.9994C51.5506 64.3231 75.411 29.1991 105.957 31.9798C130.462 34.2108 146.327 59.6596 149.968 88.058C149.978 88.1351 149.986 88.2123 149.996 88.2894C150.275 90.5082 150.48 92.7442 150.608 94.9886C150.613 95.0781 150.618 95.1677 150.623 95.2572C150.645 95.6528 150.664 96.0486 150.681 96.4447C150.685 96.5423 150.688 96.64 150.692 96.7377C150.781 98.9871 150.793 101.242 150.726 103.493C150.723 103.565 150.722 103.637 150.72 103.709C150.708 104.08 150.694 104.451 150.678 104.822C150.67 104.989 150.662 105.156 150.654 105.324C150.637 105.674 150.619 106.025 150.598 106.375C150.592 106.463 150.587 106.551 150.581 106.639C150.525 107.525 150.461 108.41 150.381 109.292C148.405 131 138.821 149.877 124.197 160.195C124.035 160.309 123.873 160.422 123.71 160.534C122.33 161.482 120.907 162.355 119.441 163.148C118.467 163.675 117.474 164.166 116.463 164.62C116.349 164.672 116.234 164.722 116.119 164.773C115.256 165.152 114.381 165.505 113.493 165.829C113.162 165.951 112.829 166.067 112.494 166.18C112.248 166.264 112 166.346 111.752 166.425C111.561 166.486 111.37 166.546 111.179 166.604C106.993 167.878 102.551 168.551 97.8867 168.54C96.4594 168.537 95.0115 168.471 93.5439 168.337C93.0546 168.293 92.5683 168.242 92.0859 168.184C91.6038 168.126 91.1254 168.06 90.6503 167.989C90.1748 167.917 89.7028 167.839 89.2343 167.754C87.0136 167.352 84.8731 166.8 82.8144 166.111C82.5624 166.026 82.312 165.939 82.0625 165.851C81.4549 165.636 80.8545 165.409 80.2617 165.169C80.0306 165.076 79.801 164.98 79.5722 164.883C79.1787 164.717 78.7881 164.546 78.4013 164.369C78.187 164.27 77.974 164.17 77.7617 164.069C76.7611 163.591 75.7834 163.078 74.8291 162.532C73.8641 161.979 72.9228 161.392 72.0058 160.771C71.3602 160.334 70.726 159.881 70.1044 159.411C54.0522 147.289 46.0681 124.546 48.3027 99.9994Z" fill="black"/>
<path d="M48.3027 99.9994L42.3274 99.4554L42.3274 99.4554L48.3027 99.9994ZM105.957 31.9798L106.501 26.0046L106.501 26.0046L105.957 31.9798ZM149.968 88.058L144.016 88.8209L144.017 88.8216L149.968 88.058ZM149.996 88.2894L155.949 87.5406L155.949 87.5399L149.996 88.2894ZM150.608 94.9886L144.618 95.3307L144.618 95.3312L150.608 94.9886ZM150.623 95.2572L156.614 94.9314L156.614 94.9309L150.623 95.2572ZM150.681 96.4447L144.686 96.6983L144.686 96.6988L150.681 96.4447ZM150.692 96.7377L156.688 96.5018L156.688 96.5014L150.692 96.7377ZM150.726 103.493L144.728 103.314L144.728 103.314L150.726 103.493ZM150.72 103.709L156.717 103.901L156.717 103.901L150.72 103.709ZM150.678 104.822L156.672 105.083L156.672 105.083L150.678 104.822ZM150.654 105.324L144.661 105.031L144.661 105.031L150.654 105.324ZM150.598 106.375L156.587 106.734L156.587 106.734L150.598 106.375ZM150.581 106.639L144.593 106.264L144.593 106.264L150.581 106.639ZM150.381 109.292L156.356 109.836L156.356 109.836L150.381 109.292ZM124.197 160.195L120.738 155.292L120.738 155.292L124.197 160.195ZM123.71 160.534L127.108 165.478L127.109 165.478L123.71 160.534ZM119.441 163.148L116.588 157.87L116.588 157.87L119.441 163.148ZM116.463 164.62L118.923 170.093L118.923 170.093L116.463 164.62ZM116.119 164.773L113.705 159.28L113.705 159.28L116.119 164.773ZM113.493 165.829L115.554 171.464L115.554 171.464L113.493 165.829ZM112.494 166.18L110.569 160.497L110.568 160.497L112.494 166.18ZM111.752 166.425L113.577 172.141L113.577 172.141L111.752 166.425ZM111.179 166.604L109.432 160.864L109.432 160.864L111.179 166.604ZM97.8867 168.54L97.9001 162.54L97.9 162.54L97.8867 168.54ZM93.5439 168.337L92.9999 174.313L93 174.313L93.5439 168.337ZM92.0859 168.184L91.3673 174.141L91.3673 174.141L92.0859 168.184ZM90.6503 167.989L91.5444 162.056L91.5444 162.056L90.6503 167.989ZM89.2343 167.754L90.3047 161.851L90.3047 161.851L89.2343 167.754ZM82.8144 166.111L84.7182 160.421L84.7182 160.421L82.8144 166.111ZM82.0625 165.851L80.0582 171.506L80.0582 171.506L82.0625 165.851ZM80.2617 165.169L82.5081 159.606L82.5081 159.606L80.2617 165.169ZM79.5722 164.883L77.2325 170.408L77.2326 170.408L79.5722 164.883ZM78.4013 164.369L80.8996 158.913L80.8995 158.913L78.4013 164.369ZM77.7617 164.069L75.1765 169.483L75.1766 169.483L77.7617 164.069ZM74.8291 162.532L77.8122 157.326L77.8121 157.326L74.8291 162.532ZM72.0058 160.771L68.6424 165.739L68.6426 165.74L72.0058 160.771ZM70.1044 159.411L73.7205 154.624L73.7203 154.623L70.1044 159.411ZM48.3027 99.9994L54.278 100.543C55.8068 83.7497 62.2012 67.1816 71.6004 55.2885C81.0053 43.3882 92.8158 36.8084 105.413 37.9551L105.957 31.9798L106.501 26.0046C88.5522 24.3706 73.1594 33.9624 62.1856 47.8479C51.2061 61.7407 44.0464 80.5727 42.3274 99.4554L48.3027 99.9994ZM105.957 31.9798L105.413 37.9551C115.557 38.8786 124.221 44.5945 130.951 53.7577C137.717 62.9709 142.298 75.4171 144.016 88.8209L149.968 88.058L155.919 87.295C153.997 72.3004 148.825 57.823 140.623 46.6545C132.383 35.436 120.863 27.3121 106.501 26.0046L105.957 31.9798ZM149.968 88.058L144.017 88.8216C144.04 89.0029 144.006 88.7463 144.043 89.0389L149.996 88.2894L155.949 87.5399C155.947 87.5226 155.945 87.504 155.939 87.4589C155.935 87.4209 155.927 87.3601 155.919 87.2943L149.968 88.058ZM149.996 88.2894L144.043 89.0383C144.305 91.1229 144.498 93.2233 144.618 95.3307L150.608 94.9886L156.599 94.6466C156.463 92.2651 156.245 89.8934 155.949 87.5406L149.996 88.2894ZM150.608 94.9886L144.618 95.3312C144.623 95.4107 144.626 95.4734 144.632 95.5835L150.623 95.2572L156.614 94.9309C156.61 94.8619 156.604 94.7456 156.599 94.6461L150.608 94.9886ZM150.623 95.2572L144.632 95.5829C144.652 95.9567 144.67 96.3284 144.686 96.6983L150.681 96.4447L156.675 96.191C156.657 95.7688 156.637 95.3489 156.614 94.9314L150.623 95.2572ZM150.681 96.4447L144.686 96.6988C144.69 96.7846 144.693 96.8666 144.697 96.9739L150.692 96.7377L156.688 96.5014C156.684 96.4134 156.68 96.3001 156.675 96.1906L150.681 96.4447ZM150.692 96.7377L144.697 96.9735C144.78 99.0865 144.791 101.203 144.728 103.314L150.726 103.493L156.723 103.671C156.794 101.281 156.782 98.8877 156.688 96.5018L150.692 96.7377ZM150.726 103.493L144.728 103.314C144.721 103.546 144.727 103.378 144.723 103.517L150.72 103.709L156.717 103.901C156.719 103.842 156.72 103.788 156.721 103.752C156.722 103.71 156.722 103.69 156.723 103.671L150.726 103.493ZM150.72 103.709L144.723 103.517C144.712 103.866 144.699 104.213 144.683 104.56L150.678 104.822L156.672 105.083C156.689 104.689 156.704 104.295 156.717 103.901L150.72 103.709ZM150.678 104.822L144.683 104.56C144.677 104.712 144.669 104.868 144.661 105.031L150.654 105.324L156.647 105.616C156.655 105.445 156.664 105.266 156.672 105.083L150.678 104.822ZM150.654 105.324L144.661 105.031C144.645 105.366 144.628 105.694 144.608 106.017L150.598 106.375L156.587 106.734C156.61 106.356 156.629 105.983 156.647 105.616L150.654 105.324ZM150.598 106.375L144.608 106.017C144.604 106.097 144.6 106.144 144.593 106.264L150.581 106.639L156.569 107.014C156.573 106.959 156.581 106.83 156.587 106.734L150.598 106.375ZM150.581 106.639L144.593 106.264C144.54 107.111 144.479 107.937 144.406 108.748L150.381 109.292L156.356 109.836C156.443 108.882 156.511 107.939 156.569 107.014L150.581 106.639ZM150.381 109.292L144.406 108.748C142.547 129.167 133.585 146.228 120.738 155.292L124.197 160.195L127.656 165.097C144.057 153.526 154.262 132.834 156.356 109.836L150.381 109.292ZM124.197 160.195L120.738 155.292C120.603 155.388 120.462 155.486 120.311 155.589L123.71 160.534L127.109 165.478C127.284 165.357 127.468 165.23 127.656 165.097L124.197 160.195ZM123.71 160.534L120.311 155.589C119.101 156.421 117.86 157.182 116.588 157.87L119.441 163.148L122.295 168.426C123.954 167.529 125.559 166.543 127.108 165.478L123.71 160.534ZM119.441 163.148L116.588 157.87C115.741 158.328 114.879 158.754 114.003 159.148L116.463 164.62L118.923 170.093C120.069 169.578 121.193 169.022 122.295 168.426L119.441 163.148ZM116.463 164.62L114.003 159.148C113.913 159.188 113.819 159.23 113.705 159.28L116.119 164.773L118.533 170.266C118.649 170.215 118.784 170.156 118.923 170.093L116.463 164.62ZM116.119 164.773L113.705 159.28C112.956 159.609 112.199 159.914 111.432 160.195L113.493 165.829L115.554 171.464C116.564 171.095 117.557 170.695 118.533 170.266L116.119 164.773ZM113.493 165.829L111.432 160.194C111.158 160.295 110.872 160.395 110.569 160.497L112.494 166.18L114.42 171.863C114.785 171.739 115.166 171.606 115.554 171.464L113.493 165.829ZM112.494 166.18L110.568 160.497C110.342 160.574 110.13 160.644 109.927 160.709L111.752 166.425L113.577 172.141C113.87 172.047 114.153 171.953 114.42 171.863L112.494 166.18ZM111.752 166.425L109.927 160.709C109.763 160.762 109.598 160.813 109.432 160.864L111.179 166.604L112.926 172.344C113.143 172.278 113.36 172.21 113.577 172.141L111.752 166.425ZM111.179 166.604L109.432 160.864C105.821 161.963 101.972 162.55 97.9001 162.54L97.8867 168.54L97.8733 174.54C103.13 174.552 108.166 173.793 112.926 172.344L111.179 166.604ZM97.8867 168.54L97.9 162.54C96.6499 162.538 95.379 162.48 94.0878 162.362L93.5439 168.337L93 174.313C94.6439 174.462 96.2689 174.537 97.8733 174.54L97.8867 168.54ZM93.5439 168.337L94.0879 162.362C93.6492 162.322 93.2216 162.277 92.8045 162.227L92.0859 168.184L91.3673 174.141C91.9149 174.207 92.4599 174.263 92.9999 174.313L93.5439 168.337ZM92.0859 168.184L92.8045 162.227C92.3862 162.177 91.9664 162.119 91.5444 162.056L90.6503 167.989L89.7563 173.922C90.2843 174.001 90.8215 174.075 91.3673 174.141L92.0859 168.184ZM90.6503 167.989L91.5444 162.056C91.1229 161.992 90.7098 161.924 90.3047 161.851L89.2343 167.754L88.164 173.658C88.6957 173.754 89.2268 173.842 89.7563 173.922L90.6503 167.989ZM89.2343 167.754L90.3047 161.851C88.3663 161.499 86.5043 161.018 84.7182 160.421L82.8144 166.111L80.9106 171.801C83.242 172.581 85.661 173.204 88.164 173.658L89.2343 167.754ZM82.8144 166.111L84.7182 160.421C84.5092 160.351 84.2937 160.276 84.0667 160.196L82.0625 165.851L80.0582 171.506C80.3302 171.603 80.6157 171.702 80.9106 171.801L82.8144 166.111ZM82.0625 165.851L84.0667 160.196C83.5372 160.008 83.0177 159.811 82.5081 159.606L80.2617 165.169L78.0152 170.733C78.6913 171.006 79.3725 171.263 80.0582 171.506L82.0625 165.851ZM80.2617 165.169L82.5081 159.606C82.3204 159.53 82.1248 159.448 81.9118 159.358L79.5722 164.883L77.2326 170.408C77.4773 170.512 77.7408 170.622 78.0153 170.733L80.2617 165.169ZM79.5722 164.883L81.9119 159.358C81.5613 159.21 81.2246 159.062 80.8996 158.913L78.4013 164.369L75.903 169.824C76.3517 170.029 76.7962 170.223 77.2325 170.408L79.5722 164.883ZM78.4013 164.369L80.8995 158.913C80.7229 158.832 80.5403 158.747 80.3467 158.654L77.7617 164.069L75.1766 169.483C75.4076 169.594 75.6511 169.708 75.9031 169.824L78.4013 164.369ZM77.7617 164.069L80.3468 158.654C79.4806 158.241 78.6357 157.798 77.8122 157.326L74.8291 162.532L71.8459 167.737C72.9311 168.359 74.0416 168.941 75.1765 169.483L77.7617 164.069ZM74.8291 162.532L77.8121 157.326C76.9765 156.847 76.1621 156.339 75.3691 155.802L72.0058 160.771L68.6426 165.74C69.6836 166.444 70.7517 167.11 71.846 167.738L74.8291 162.532ZM72.0058 160.771L75.3693 155.802C74.8066 155.421 74.2568 155.029 73.7205 154.624L70.1044 159.411L66.4884 164.199C67.1952 164.733 67.9137 165.246 68.6424 165.739L72.0058 160.771ZM70.1044 159.411L73.7203 154.623C59.7943 144.107 52.1709 123.689 54.278 100.543L48.3027 99.9994L42.3274 99.4554C39.9654 125.402 48.3101 150.472 66.4886 164.2L70.1044 159.411Z" fill="white" mask="url(#path-1-outside-1_922_10369)"/>
<path d="M93.5434 168.338C124.852 171.188 147.237 143.82 150.38 109.292C153.628 73.6159 136.503 34.7605 105.957 31.9798C75.4106 29.199 51.5504 64.3233 48.3026 99.9998C45.1594 134.527 62.2345 165.487 93.5434 168.338Z" fill="#112D3F"/>
<path d="M108.026 93.0935C107.386 96.9125 101.674 102.083 97.5601 101.436C93.4465 100.79 89.7243 94.1312 90.3686 90.3126C91.0091 86.4935 94.223 83.8207 100.361 84.786C106.571 85.7648 108.67 89.2748 108.026 93.0935Z" fill="#EAC00F"/>
<path d="M150.379 109.285C147.236 143.813 124.857 171.188 93.5436 168.338C62.2299 165.487 45.1624 134.521 48.3056 99.9932C51.5482 140.603 87.0686 150.123 110.404 136.317C135.567 121.43 148.807 62.0605 119.519 35.9154C141.435 47.0681 153.108 79.311 150.379 109.285Z" fill="#062032"/>
<path d="M75.3985 90.5486C80.9255 91.0518 85.814 86.9791 86.3171 81.452C86.8203 75.925 82.7476 71.0365 77.2205 70.5334C71.6935 70.0302 66.805 74.1029 66.3019 79.63C65.7987 85.157 69.8714 90.0455 75.3985 90.5486Z" fill="white"/>
<path d="M75.6018 86.5987C78.9153 86.9004 81.8461 84.4587 82.1477 81.1451C82.4494 77.8315 80.0077 74.9008 76.6941 74.5992C73.3805 74.2975 70.4498 76.7392 70.1481 80.0528C69.8465 83.3663 72.2882 86.2971 75.6018 86.5987Z" fill="black"/>
<path d="M122.635 94.8487C128.162 95.3518 133.05 91.2791 133.553 85.7521C134.056 80.225 129.984 75.3366 124.457 74.8334C118.93 74.3303 114.041 78.4029 113.538 83.93C113.035 89.4571 117.107 94.3455 122.635 94.8487Z" fill="white"/>
<path d="M122.838 90.8988C126.151 91.2004 129.082 88.7588 129.384 85.4452C129.685 82.1316 127.244 79.2009 123.93 78.8992C120.617 78.5976 117.686 81.0392 117.384 84.3528C117.083 87.6664 119.524 90.5971 122.838 90.8988Z" fill="black"/>
</svg>
