<svg width="200" height="200" viewBox="0 0 200 200" fill="none" xmlns="http://www.w3.org/2000/svg">
<g clip-path="url(#clip0_1347_19972)">
<mask id="path-1-outside-1_1347_19972" maskUnits="userSpaceOnUse" x="12.1445" y="15.6719" width="175" height="168" fill="black">
<rect fill="white" x="12.1445" y="15.6719" width="175" height="168"/>
<path d="M100.087 21.6719C109.951 21.6719 118.687 22.5067 126.411 24.0713C126.362 24.0375 126.313 24.0057 126.267 23.9727C131.309 24.8626 136.597 26.4891 141.532 28.5371C172.196 40.9536 181.017 68.8159 181.017 100.517C181.017 135.98 171.013 165.154 130.209 174.241C122.748 176.1 114.134 177.183 104.183 177.183C103.456 177.183 102.735 177.178 102.022 177.172C101.382 177.178 100.737 177.183 100.087 177.183C87.398 177.183 76.5353 175.845 67.2705 173.371C53.4062 169.912 44.3286 164.341 37.9551 157.668C23.1569 143.422 18.1446 122.61 18.1445 99.4277C18.1445 56.4846 30.7902 21.6719 100.087 21.6719Z"/>
</mask>
<path d="M100.087 21.6719C109.951 21.6719 118.687 22.5067 126.411 24.0713C126.362 24.0375 126.313 24.0057 126.267 23.9727C131.309 24.8626 136.597 26.4891 141.532 28.5371C172.196 40.9536 181.017 68.8159 181.017 100.517C181.017 135.98 171.013 165.154 130.209 174.241C122.748 176.1 114.134 177.183 104.183 177.183C103.456 177.183 102.735 177.178 102.022 177.172C101.382 177.178 100.737 177.183 100.087 177.183C87.398 177.183 76.5353 175.845 67.2705 173.371C53.4062 169.912 44.3286 164.341 37.9551 157.668C23.1569 143.422 18.1446 122.61 18.1445 99.4277C18.1445 56.4846 30.7902 21.6719 100.087 21.6719Z" fill="black"/>
<path d="M100.087 21.6719L100.087 15.6719H100.087V21.6719ZM126.411 24.0713L125.22 29.9519C128.016 30.5181 130.823 29.038 131.936 26.4117C133.048 23.7853 132.158 20.7387 129.807 19.1246L126.411 24.0713ZM126.267 23.9727L127.309 18.064C124.549 17.5768 121.819 19.0657 120.734 21.6502C119.649 24.2346 120.498 27.2259 122.779 28.8551L126.267 23.9727ZM141.532 28.5371L139.233 34.079C139.249 34.0855 139.264 34.092 139.28 34.0985L141.532 28.5371ZM181.017 100.517H187.017V100.517L181.017 100.517ZM130.209 174.241L128.905 168.385C128.856 168.396 128.807 168.407 128.759 168.419L130.209 174.241ZM104.183 177.183L104.183 183.183H104.183V177.183ZM102.022 177.172L102.076 171.172C102.038 171.172 102 171.172 101.962 171.172L102.022 177.172ZM100.087 177.183V183.183H100.087L100.087 177.183ZM67.2705 173.371L68.8181 167.574C68.7865 167.566 68.7548 167.557 68.723 167.55L67.2705 173.371ZM37.9551 157.668L42.2941 153.524C42.2361 153.463 42.1768 153.404 42.1162 153.345L37.9551 157.668ZM18.1445 99.4277H12.1445V99.4277L18.1445 99.4277ZM100.087 21.6719L100.087 27.6719C109.617 27.6719 117.948 28.4789 125.22 29.9519L126.411 24.0713L127.602 18.1907C119.426 16.5346 110.284 15.6719 100.087 15.6719L100.087 21.6719ZM126.411 24.0713L129.807 19.1246C129.774 19.1021 129.746 19.0829 129.727 19.0704C129.718 19.0641 129.709 19.0582 129.703 19.0544C129.697 19.05 129.693 19.0477 129.69 19.0458C129.685 19.042 129.69 19.0452 129.699 19.0518C129.709 19.0586 129.729 19.072 129.754 19.0903L126.267 23.9727L122.779 28.8551C122.872 28.9213 122.952 28.9751 122.985 28.9976C122.994 29.0038 123.003 29.0097 123.009 29.0135C123.015 29.0179 123.019 29.0202 123.022 29.0222C123.027 29.0261 123.024 29.0236 123.016 29.018L126.411 24.0713ZM126.267 23.9727L125.224 29.8814C129.77 30.6837 134.635 32.1712 139.233 34.079L141.532 28.5371L143.832 22.9953C138.558 20.807 132.849 19.0415 127.309 18.064L126.267 23.9727ZM141.532 28.5371L139.28 34.0985C153.199 39.7344 161.966 48.7334 167.372 59.9084C172.864 71.26 175.017 85.1421 175.017 100.517L181.017 100.517L187.017 100.517C187.017 84.1904 184.759 68.291 178.174 54.6821C171.505 40.8966 160.529 29.7563 143.784 22.9757L141.532 28.5371ZM181.017 100.517H175.017C175.017 117.82 172.549 132.711 165.749 144.217C159.112 155.447 147.934 164.147 128.905 168.385L130.209 174.241L131.513 180.098C153.288 175.248 167.513 164.817 176.08 150.323C184.482 136.105 187.017 118.677 187.017 100.517H181.017ZM130.209 174.241L128.759 168.419C121.821 170.147 113.698 171.183 104.183 171.183V177.183V183.183C114.569 183.183 123.675 182.052 131.659 180.063L130.209 174.241ZM104.183 177.183L104.183 171.183C103.479 171.183 102.778 171.178 102.076 171.172L102.022 177.172L101.969 183.172C102.693 183.178 103.432 183.183 104.183 183.183L104.183 177.183ZM102.022 177.172L101.962 171.172C101.335 171.179 100.711 171.183 100.087 171.183L100.087 177.183L100.087 183.183C100.763 183.183 101.429 183.178 102.083 183.172L102.022 177.172ZM100.087 177.183V171.183C87.8096 171.183 77.4812 169.887 68.8181 167.574L67.2705 173.371L65.7229 179.168C75.5895 181.802 86.9863 183.183 100.087 183.183V177.183ZM67.2705 173.371L68.723 167.55C55.789 164.322 47.77 159.258 42.2941 153.524L37.9551 157.668L33.6161 161.812C40.8873 169.425 51.0233 175.501 65.818 179.193L67.2705 173.371ZM37.9551 157.668L42.1162 153.345C29.0349 140.753 24.1446 121.927 24.1445 99.4277L18.1445 99.4277L12.1445 99.4277C12.1446 123.293 17.2788 146.092 33.7939 161.991L37.9551 157.668ZM18.1445 99.4277H24.1445C24.1445 78.2896 27.3193 60.6874 37.7231 48.306C47.9435 36.1427 66.336 27.6719 100.087 27.6719V21.6719V15.6719C64.5411 15.6719 41.9624 24.6074 28.5359 40.5862C15.2926 56.3469 12.1445 77.6227 12.1445 99.4277H18.1445Z" fill="white" mask="url(#path-1-outside-1_1347_19972)"/>
<path d="M181.017 100.517C181.017 143.46 166.348 177.183 100.087 177.183C35.3422 177.183 18.1445 142.371 18.1445 99.4274C18.1445 56.4842 30.7899 21.6719 100.087 21.6719C164.831 21.6719 181.017 57.5736 181.017 100.517Z" fill="#1C385D"/>
<path d="M20.9062 124.732C72.4365 111.114 147.892 117.524 179.178 122.432C177.798 126.573 172.276 177.183 104.183 177.183C36.0893 177.183 30.1081 149.117 20.9062 124.732Z" fill="#2C587D"/>
<path opacity="0.5" d="M149.731 44.6768C157.553 40.9961 156.043 36.5085 149.271 32.2544C142.5 28.0002 134.088 25.3529 126.267 23.9727C129.487 26.2731 140.07 30.4139 139.662 36.3952C139.255 42.3599 114.951 45.1217 94.7398 47.4183L94.5723 47.4374C74.3282 49.7378 69.2149 59.3997 71.0553 68.6016C72.8957 77.8034 97.7929 75.503 106.535 77.8034C115.24 80.0942 114.528 88.1496 114.307 90.6545L114.304 90.686C112.924 106.329 119.877 108.63 119.877 89.7658C119.877 70.9021 103.315 73.2025 87.6716 70.9021C72.0284 68.6016 80.2576 57.0993 89.4595 54.7988C98.6613 52.4984 141.91 48.3576 149.731 44.6768Z" fill="#32F399"/>
<path opacity="0.2" d="M172.162 96.4401C177.316 99.4081 178.486 96.6625 178.987 91.2965C179.487 85.9306 178.715 77.1765 176.416 72.2188C176.386 74.9412 176.404 85.3788 172.87 87.5C169.346 89.6154 158.225 76.9824 148.976 66.4768L148.9 66.3897C139.636 55.8669 132.175 56.7792 127.71 61.4357C123.245 66.0923 134.339 79.2416 136.482 85.0805C138.624 90.9194 136.108 92.2876 135.173 93.7115C134.237 95.1353 124.347 104.731 134.986 97.315C145.624 89.8988 137.809 81.4541 132.951 71.7196C128.093 61.985 137.818 62.1081 142.736 66.3978C147.654 70.6875 167.008 93.4722 172.162 96.4401Z" fill="#32F399"/>
<path opacity="0.6" d="M68.8333 37.4441C72.0303 29.4127 67.8358 28.2965 60.0104 28.687C52.1851 29.0776 44.8305 34.5543 38.3893 39.6154C42.3128 39.095 52.0335 33.6297 55.8219 38.2762C59.5999 42.9098 43.739 61.5307 30.5492 77.0158L30.4398 77.1442C17.2285 92.6546 20.0954 103.203 27.7259 108.666C35.3565 114.128 51.9658 95.4385 59.921 91.1461C67.8763 86.8537 70.3693 90.1919 72.6129 91.2431C74.8565 92.2943 90.7245 104.541 77.837 90.766C64.9494 76.9909 54.4264 89.9862 41.4315 98.9936C28.4366 108.001 26.5876 93.9794 31.7355 86.0129C36.8834 78.0464 65.6364 45.4755 68.8333 37.4441Z" fill="#32F399"/>
<path d="M80.8353 136.426C96.5194 134.361 128.845 130.287 132.677 130.512L140.285 135.863L147.892 136.136V141.214L132.677 165.999L95.4863 167.689L61.3945 158.394V153.316L71.1149 147.41L80.8353 136.426Z" fill="#ADC0DC"/>
<path d="M80.8353 131.576C96.5194 129.51 128.845 125.436 132.677 125.661L147.892 136.364L132.677 161.148L95.4863 162.838L61.3945 153.544L80.8353 131.576Z" fill="#DCEAFF"/>
<path d="M124.155 145.897C120.446 145.897 110.065 147.142 107.402 148.801C104.738 147.142 94.3565 145.897 90.6475 145.897C86.381 145.897 88.7156 147.544 88.7156 149.577C88.7156 151.611 86.381 153.259 90.6475 153.259C94.3565 153.259 104.738 152.015 107.402 150.356C110.066 152.015 120.448 153.259 124.155 153.259C128.423 153.259 126.087 151.611 126.087 149.579C126.087 147.546 128.425 145.897 124.155 145.897Z" fill="#EAC00F"/>
<path d="M130.687 119.404C128.567 115.17 125.342 110.942 122.306 108.015C118.15 98.8129 116.604 92.5264 107.403 92.5264C98.2019 92.5264 96.6565 98.8112 92.5 108.015C89.4627 110.944 86.2372 115.17 84.1174 119.405C79.9829 127.666 78.8331 138.761 80.5934 139.639C82.0739 140.379 84.5346 137.01 87.7295 131.03C88.184 149.452 99.6802 149.578 107.403 149.578C115.124 149.578 126.622 149.454 127.077 131.033C130.272 137.01 132.732 140.379 134.211 139.639C135.971 138.76 134.823 127.664 130.687 119.404Z" fill="#4B9AE8"/>
<path d="M113.59 104.488C112.159 105.512 109.933 106.488 107.402 106.488C104.871 106.488 102.645 105.514 101.214 104.49C95.6543 108.094 91.7598 116.397 91.7598 126.074C91.7598 139.052 98.7626 149.577 107.402 149.577C116.043 149.577 123.046 139.053 123.046 126.074C123.046 116.397 119.151 108.092 113.59 104.488Z" fill="#F5F8FA"/>
<path d="M125.309 102.648H115.367C108.782 102.648 107.418 101.207 107.418 99.4267C107.418 97.6487 106.795 96.207 113.38 96.207C123.322 96.2089 127.297 102.648 125.309 102.648Z" fill="#EAC00F"/>
<path d="M103.721 101.727C105.245 101.727 106.48 100.491 106.48 98.9668C106.48 97.4426 105.245 96.207 103.721 96.207C102.197 96.207 100.961 97.4426 100.961 98.9668C100.961 100.491 102.197 101.727 103.721 101.727Z" fill="white"/>
<path d="M103.678 100.641C104.592 100.641 105.332 99.9003 105.332 98.9866C105.332 98.0728 104.592 97.332 103.678 97.332C102.764 97.332 102.023 98.0728 102.023 98.9866C102.023 99.9003 102.764 100.641 103.678 100.641Z" fill="black"/>
</g>
<defs>
<clipPath id="clip0_1347_19972">
<rect width="200" height="200" fill="white"/>
</clipPath>
</defs>
</svg>
