<svg width="200" height="200" viewBox="0 0 200 200" fill="none" xmlns="http://www.w3.org/2000/svg">
<mask id="path-1-outside-1_1347_16275" maskUnits="userSpaceOnUse" x="15" y="15" width="170" height="170" fill="black">
<rect fill="white" x="15" y="15" width="170" height="170"/>
<path d="M129.298 33.3408C134.36 22.8784 147.636 18.21 158.323 22.71C158.447 22.7632 158.57 22.8205 158.693 22.876C160.643 23.5027 164.344 24.8245 167.438 26.8164C177.506 33.3976 178.688 42.3415 178.688 49.3164C178.687 64.785 171.712 81.5474 160.855 92.5723L159.783 93.6592C160.993 95.4531 161.699 97.6148 161.699 99.9414C161.699 106.154 156.662 111.191 150.449 111.191C148.182 111.191 146.074 110.519 144.308 109.365L103.927 150.348C104.964 152.051 105.562 154.051 105.562 156.191C105.562 162.404 100.526 167.441 94.3125 167.441C92.1156 167.441 90.067 166.809 88.335 165.721C78.862 173.548 67.3977 178.095 54.9375 178.578L49.3125 178.691C41.9438 178.691 36.3184 176.61 32.0996 173.966C25.181 169.578 21.1876 161.816 21.1875 153.66V150.636C21.1869 150.631 21.1861 150.627 21.1855 150.622C20.0607 141.678 23.9421 132.116 35.417 126.941C41.6045 124.129 44.2484 121.316 49.0859 116.422L118.555 47.1787C122.942 42.735 126.654 38.797 129.298 33.3408Z"/>
</mask>
<path d="M129.298 33.3408C134.36 22.8784 147.636 18.21 158.323 22.71C158.447 22.7632 158.57 22.8205 158.693 22.876C160.643 23.5027 164.344 24.8245 167.438 26.8164C177.506 33.3976 178.688 42.3415 178.688 49.3164C178.687 64.785 171.712 81.5474 160.855 92.5723L159.783 93.6592C160.993 95.4531 161.699 97.6148 161.699 99.9414C161.699 106.154 156.662 111.191 150.449 111.191C148.182 111.191 146.074 110.519 144.308 109.365L103.927 150.348C104.964 152.051 105.562 154.051 105.562 156.191C105.562 162.404 100.526 167.441 94.3125 167.441C92.1156 167.441 90.067 166.809 88.335 165.721C78.862 173.548 67.3977 178.095 54.9375 178.578L49.3125 178.691C41.9438 178.691 36.3184 176.61 32.0996 173.966C25.181 169.578 21.1876 161.816 21.1875 153.66V150.636C21.1869 150.631 21.1861 150.627 21.1855 150.622C20.0607 141.678 23.9421 132.116 35.417 126.941C41.6045 124.129 44.2484 121.316 49.0859 116.422L118.555 47.1787C122.942 42.735 126.654 38.797 129.298 33.3408Z" fill="#276288"/>
<path d="M129.298 33.3408L134.697 35.9571L134.699 35.9542L129.298 33.3408ZM158.323 22.71L160.687 17.1951C160.675 17.1901 160.663 17.1851 160.652 17.1801L158.323 22.71ZM158.693 22.876L156.234 28.3486C156.437 28.44 156.645 28.5199 156.857 28.5881L158.693 22.876ZM167.438 26.8164L170.72 21.7941C170.709 21.7866 170.697 21.7791 170.686 21.7716L167.438 26.8164ZM178.688 49.3164L184.688 49.3165V49.3164H178.688ZM160.855 92.5723L165.127 96.786L165.131 96.7821L160.855 92.5723ZM159.783 93.6592L155.512 89.4454C153.506 91.4792 153.211 94.6456 154.809 97.0141L159.783 93.6592ZM161.699 99.9414H167.699V99.9413L161.699 99.9414ZM150.449 111.191L150.449 117.191H150.449V111.191ZM144.308 109.365L147.589 104.342C145.198 102.78 142.038 103.12 140.034 105.154L144.308 109.365ZM103.927 150.348L99.6529 146.136C97.7216 148.096 97.3711 151.119 98.8025 153.469L103.927 150.348ZM105.562 156.191H111.562V156.191L105.562 156.191ZM94.3125 167.441V173.441H94.3127L94.3125 167.441ZM88.335 165.721L91.5281 160.641C89.3366 159.263 86.5087 159.447 84.5132 161.095L88.335 165.721ZM54.9375 178.578L55.0583 184.577C55.0955 184.576 55.1327 184.575 55.1699 184.574L54.9375 178.578ZM49.3125 178.691V184.691C49.3528 184.691 49.393 184.691 49.4333 184.69L49.3125 178.691ZM32.0996 173.966L28.8863 179.033C28.8954 179.039 28.9044 179.044 28.9135 179.05L32.0996 173.966ZM21.1875 153.66H15.1875V153.66L21.1875 153.66ZM21.1875 150.636H27.1875C27.1875 150.389 27.1723 150.143 27.1419 149.898L21.1875 150.636ZM21.1855 150.622L27.1406 149.889C27.1399 149.884 27.1393 149.878 27.1386 149.873L21.1855 150.622ZM35.417 126.941L37.8836 132.411C37.889 132.408 37.8944 132.406 37.8998 132.404L35.417 126.941ZM49.0859 116.422L44.8502 112.172C44.8397 112.183 44.8293 112.193 44.8188 112.204L49.0859 116.422ZM118.555 47.1787L122.79 51.4282C122.802 51.417 122.813 51.4056 122.824 51.3942L118.555 47.1787ZM129.298 33.3408L134.699 35.9542C138.305 28.5009 148.109 24.9192 155.995 28.2398L158.323 22.71L160.652 17.1801C147.163 11.5008 130.415 17.2559 123.897 30.7274L129.298 33.3408ZM158.323 22.71L155.96 28.2248C156.024 28.2524 155.995 28.2412 156.234 28.3486L158.693 22.876L161.153 17.4033C161.145 17.3998 160.871 17.274 160.687 17.1951L158.323 22.71ZM158.693 22.876L156.857 28.5881C158.678 29.1735 161.772 30.3048 164.189 31.8612L167.438 26.8164L170.686 21.7716C166.915 19.3442 162.608 17.8319 160.53 17.1639L158.693 22.876ZM167.438 26.8164L164.155 31.8387C171.721 36.7843 172.688 43.1634 172.688 49.3164H178.688H184.688C184.688 41.5196 183.291 30.011 170.72 21.7941L167.438 26.8164ZM178.688 49.3164L172.688 49.3164C172.687 63.183 166.35 78.4408 156.58 88.3625L160.855 92.5723L165.131 96.7821C177.073 84.6539 184.687 66.3871 184.688 49.3165L178.688 49.3164ZM160.855 92.5723L156.584 88.3585L155.512 89.4454L159.783 93.6592L164.055 97.8729L165.127 96.786L160.855 92.5723ZM159.783 93.6592L154.809 97.0141C155.371 97.8476 155.699 98.8469 155.699 99.9416L161.699 99.9414L167.699 99.9413C167.699 96.3827 166.615 93.0586 164.758 90.3043L159.783 93.6592ZM161.699 99.9414H155.699C155.699 102.841 153.348 105.191 150.449 105.191V111.191V117.191C159.976 117.191 167.699 109.468 167.699 99.9414H161.699ZM150.449 111.191L150.449 105.191C149.387 105.191 148.413 104.88 147.589 104.342L144.308 109.365L141.027 114.389C143.735 116.157 146.977 117.191 150.449 117.191L150.449 111.191ZM144.308 109.365L140.034 105.154L99.6529 146.136L103.927 150.348L108.201 154.559L148.582 113.576L144.308 109.365ZM103.927 150.348L98.8025 153.469C99.2841 154.26 99.5625 155.185 99.5625 156.192L105.562 156.191L111.562 156.191C111.562 152.918 110.644 149.842 109.051 147.226L103.927 150.348ZM105.562 156.191H99.5625C99.5625 159.09 97.2119 161.441 94.3123 161.441L94.3125 167.441L94.3127 173.441C103.839 173.441 111.562 165.718 111.562 156.191H105.562ZM94.3125 167.441V161.441C93.283 161.441 92.3359 161.149 91.5281 160.641L88.335 165.721L85.1419 170.8C87.7981 172.47 90.9483 173.441 94.3125 173.441V167.441ZM88.335 165.721L84.5132 161.095C76.0185 168.114 65.8055 172.152 54.7051 172.583L54.9375 178.578L55.1699 184.574C68.9899 184.038 81.7055 178.981 92.1567 170.346L88.335 165.721ZM54.9375 178.578L54.8167 172.579L49.1917 172.693L49.3125 178.691L49.4333 184.69L55.0583 184.577L54.9375 178.578ZM49.3125 178.691V172.691C43.1508 172.691 38.6197 170.971 35.2857 168.882L32.0996 173.966L28.9135 179.05C34.017 182.248 40.7367 184.691 49.3125 184.691V178.691ZM32.0996 173.966L35.3129 168.899C30.2409 165.682 27.1876 159.897 27.1875 153.66L21.1875 153.66L15.1875 153.66C15.1876 163.736 20.121 173.474 28.8863 179.033L32.0996 173.966ZM21.1875 153.66H27.1875V150.636H21.1875H15.1875V153.66H21.1875ZM21.1875 150.636L27.1419 149.898C27.1383 149.869 27.135 149.843 27.1321 149.822C27.1292 149.801 27.1266 149.783 27.1246 149.769C27.1226 149.755 27.1209 149.744 27.1199 149.737C27.1194 149.734 27.1189 149.731 27.1186 149.729C27.1185 149.728 27.1184 149.727 27.1183 149.727C27.1182 149.726 27.1182 149.726 27.1182 149.726C27.1181 149.725 27.1183 149.726 27.1185 149.728C27.1187 149.729 27.1191 149.732 27.1195 149.735C27.1204 149.741 27.122 149.751 27.1239 149.764C27.1258 149.777 27.1283 149.795 27.131 149.815C27.1338 149.836 27.1371 149.86 27.1406 149.889L21.1855 150.622L15.2305 151.355C15.2342 151.385 15.2376 151.411 15.2405 151.432C15.2434 151.454 15.2461 151.472 15.2481 151.487C15.2502 151.501 15.2519 151.512 15.253 151.52C15.2536 151.523 15.254 151.526 15.2543 151.528C15.2546 151.53 15.2548 151.532 15.2549 151.532C15.255 151.533 15.2548 151.532 15.2547 151.531C15.2545 151.529 15.2541 151.527 15.2537 151.524C15.2528 151.518 15.2513 151.508 15.2495 151.496C15.2476 151.483 15.2452 151.466 15.2425 151.446C15.2397 151.426 15.2365 151.402 15.2331 151.374L21.1875 150.636ZM21.1855 150.622L27.1386 149.873C26.3273 143.423 28.9187 136.454 37.8836 132.411L35.417 126.941L32.9503 121.472C18.9656 127.779 13.794 139.934 15.2324 151.371L21.1855 150.622ZM35.417 126.941L37.8998 132.404C45.2005 129.085 48.5278 125.521 53.353 120.64L49.0859 116.422L44.8188 112.204C39.9691 117.11 38.0084 119.173 32.9342 121.479L35.417 126.941ZM49.0859 116.422L53.3217 120.671L122.79 51.4282L118.555 47.1787L114.319 42.9292L44.8502 112.172L49.0859 116.422ZM118.555 47.1787L122.824 51.3942C127.21 46.9525 131.577 42.3969 134.697 35.9571L129.298 33.3408L123.898 30.7245C121.731 35.1972 118.675 38.5175 114.285 42.9632L118.555 47.1787Z" fill="white" mask="url(#path-1-outside-1_1347_16275)"/>
<path d="M161.7 99.9414C161.7 106.154 156.663 111.191 150.45 111.191C144.237 111.191 139.2 106.154 139.2 99.9414C139.2 93.728 144.237 88.6914 150.45 88.6914C156.663 88.6914 161.7 93.728 161.7 99.9414ZM105.562 156.191C105.562 162.404 100.526 167.441 94.3125 167.441C88.0991 167.441 83.0625 162.404 83.0625 156.191C83.0625 149.978 88.0991 144.941 94.3125 144.941C100.526 144.941 105.562 149.978 105.562 156.191Z" fill="#474747"/>
<path d="M167.438 26.8163C163.331 24.1725 158.156 22.71 157.425 22.485C147.356 19.6163 141.394 29.7413 136.725 39.4725C134.081 44.9288 130.538 49.9913 126.15 54.435L56.4562 125.029C51.6187 129.923 45.9375 133.86 39.8062 136.729C33.225 139.766 21.1875 150.566 21.1875 150.566V153.66C21.1875 161.816 25.1812 169.579 32.0999 173.966C36.3187 176.61 41.9438 178.691 49.3125 178.691L54.9375 178.579C69.45 178.016 82.6126 171.941 92.8501 161.591L160.856 92.5726C171.713 81.5476 178.688 64.785 178.688 49.3163C178.688 42.3413 177.506 33.3975 167.438 26.8163Z" fill="#7AB9F8"/>
<path d="M158.324 22.71C147.636 18.21 134.361 22.8788 129.299 33.3413C126.655 38.7975 122.942 42.735 118.555 47.1788L49.086 116.422C44.2485 121.316 41.6048 124.129 35.4173 126.941C23.9423 132.116 20.0611 141.679 21.1861 150.622C22.5923 162.041 35.5861 173.516 49.3111 172.954L51.9548 173.01C66.4673 172.447 77.83 168.566 88.0675 158.216L156.636 86.61C167.717 75.36 173.624 60.06 173.005 44.31C172.611 34.0163 166.199 26.085 158.324 22.71Z" fill="#4B9AE8"/>
<path d="M66.0645 150.173C63.4519 151.922 57.3798 152.659 55.0063 149.987C52.6328 147.314 54.0038 141.096 56.4157 138.751C58.8227 136.411 62.2043 136.788 65.7425 140.782C69.3193 144.82 68.6771 148.424 66.0645 150.173Z" fill="#EAC00F"/>
<path d="M57.5401 134.08C61.7044 134.08 65.0802 130.704 65.0802 126.54C65.0802 122.376 61.7044 119 57.5401 119C53.3758 119 50 122.376 50 126.54C50 130.704 53.3758 134.08 57.5401 134.08Z" fill="white"/>
<path d="M57.5406 130.56C59.7603 130.56 61.5597 128.76 61.5597 126.541C61.5597 124.321 59.7603 122.521 57.5406 122.521C55.3209 122.521 53.5215 124.321 53.5215 126.541C53.5215 128.76 55.3209 130.56 57.5406 130.56Z" fill="#040000"/>
<path d="M81.5401 153.08C85.7044 153.08 89.0802 149.704 89.0802 145.54C89.0802 141.376 85.7044 138 81.5401 138C77.3758 138 74 141.376 74 145.54C74 149.704 77.3758 153.08 81.5401 153.08Z" fill="white"/>
<path d="M81.5406 149.56C83.7603 149.56 85.5597 147.76 85.5597 145.541C85.5597 143.321 83.7603 141.521 81.5406 141.521C79.3209 141.521 77.5215 143.321 77.5215 145.541C77.5215 147.76 79.3209 149.56 81.5406 149.56Z" fill="#040000"/>
<path fill-rule="evenodd" clip-rule="evenodd" d="M128.062 57.6416C128.062 59.1949 126.803 60.4541 125.25 60.4541C123.696 60.4541 122.438 59.1949 122.438 57.6416C122.438 56.0883 123.696 54.8291 125.25 54.8291C126.803 54.8291 128.062 56.0883 128.062 57.6416ZM144.937 74.6294C144.937 76.1825 143.678 77.4419 142.125 77.4419C140.571 77.4419 139.312 76.1825 139.312 74.6294C139.312 73.0758 140.571 71.8169 142.125 71.8169C143.678 71.8169 144.937 73.0758 144.937 74.6294ZM114 71.7039C115.553 71.7039 116.812 70.445 116.812 68.8914C116.812 67.3383 115.553 66.0789 114 66.0789C112.446 66.0789 111.188 67.3383 111.188 68.8914C111.188 70.445 112.446 71.7039 114 71.7039ZM133.688 85.8794C133.688 87.4325 132.428 88.6919 130.875 88.6919C129.321 88.6919 128.062 87.4325 128.062 85.8794C128.062 84.3258 129.321 83.0669 130.875 83.0669C132.428 83.0669 133.688 84.3258 133.688 85.8794Z" fill="#276288"/>
</svg>
