<svg width="200" height="200" viewBox="0 0 200 200" fill="none" xmlns="http://www.w3.org/2000/svg">
<mask id="path-1-outside-1_1062_21211" maskUnits="userSpaceOnUse" x="25.6523" y="15.9998" width="149" height="168" fill="black">
<rect fill="white" x="25.6523" y="15.9998" width="149" height="168"/>
<path d="M130.621 41.3359C130.892 34.561 142.002 12.6129 157.718 28.8711C173.435 45.1297 152.028 56.24 148.234 60.3047C151.215 66.8081 156.093 95.5317 157.718 104.203C169.641 112.332 173.977 137.804 157.718 153.792C141.46 169.78 114.904 177.639 100.271 177.639C90.787 177.639 66.1281 175.47 43.9079 153.792C21.6878 132.114 34.6947 108.539 43.9079 100.951C43.637 80.3574 49.598 63.0153 50.9528 58.9502C36.591 51.3628 30.3591 35.9164 45.5339 27.2451C60.7081 18.5746 68.8377 33.4776 71.5476 41.3359C81.9531 35.483 96.4777 35.2847 102.439 35.917C110.298 36.1138 125.472 39.981 130.621 41.3359Z"/>
</mask>
<path d="M130.621 41.3359C130.892 34.561 142.002 12.6129 157.718 28.8711C173.435 45.1297 152.028 56.24 148.234 60.3047C151.215 66.8081 156.093 95.5317 157.718 104.203C169.641 112.332 173.977 137.804 157.718 153.792C141.46 169.78 114.904 177.639 100.271 177.639C90.787 177.639 66.1281 175.47 43.9079 153.792C21.6878 132.114 34.6947 108.539 43.9079 100.951C43.637 80.3574 49.598 63.0153 50.9528 58.9502C36.591 51.3628 30.3591 35.9164 45.5339 27.2451C60.7081 18.5746 68.8377 33.4776 71.5476 41.3359C81.9531 35.483 96.4777 35.2847 102.439 35.917C110.298 36.1138 125.472 39.981 130.621 41.3359Z" fill="#305C86"/>
<path d="M130.621 41.3359L129.094 47.1384C130.852 47.6012 132.726 47.2414 134.188 46.1603C135.65 45.0791 136.543 43.3932 136.616 41.5762L130.621 41.3359ZM157.718 28.8711L162.032 24.701L162.032 24.7009L157.718 28.8711ZM148.234 60.3047L143.848 56.2107C142.188 57.9889 141.766 60.5933 142.78 62.8046L148.234 60.3047ZM157.718 104.203L151.821 105.309C152.115 106.876 153.021 108.262 154.338 109.16L157.718 104.203ZM157.718 153.792L161.925 158.07L161.925 158.07L157.718 153.792ZM100.271 177.639L100.271 183.639L100.271 183.639L100.271 177.639ZM43.9079 153.792L39.718 158.087L39.718 158.087L43.9079 153.792ZM43.9079 100.951L47.7222 105.583C49.1275 104.425 49.9313 102.693 49.9074 100.872L43.9079 100.951ZM50.9528 58.9502L56.645 60.8473C57.573 58.063 56.3506 55.016 53.7556 53.645L50.9528 58.9502ZM45.5339 27.2451L42.5572 22.0356L42.557 22.0357L45.5339 27.2451ZM71.5476 41.3359L65.8753 43.2919C66.4555 44.9743 67.7525 46.3124 69.4161 46.9446C71.0796 47.5768 72.938 47.4379 74.489 46.5654L71.5476 41.3359ZM102.439 35.917L101.806 41.8835C101.967 41.9005 102.128 41.9111 102.289 41.9151L102.439 35.917ZM130.621 41.3359L136.616 41.5762C136.638 41.0211 137.024 39.2192 138.167 36.8438C139.258 34.5732 140.742 32.4114 142.393 30.9243C144.019 29.4599 145.434 28.9564 146.666 29.0028C147.894 29.0491 150.162 29.6871 153.405 33.0412L157.718 28.8711L162.032 24.7009C157.417 19.926 152.403 17.2107 147.118 17.0114C141.839 16.8122 137.512 19.1707 134.362 22.0078C131.237 24.8224 128.911 28.4017 127.352 31.6438C125.843 34.7811 124.739 38.2633 124.626 41.0957L130.621 41.3359ZM157.718 28.8711L153.405 33.0412C156.62 36.3678 157.341 38.7882 157.406 40.3245C157.474 41.9191 156.881 43.6471 155.438 45.6352C153.972 47.6536 151.917 49.5391 149.74 51.3107C148.632 52.2118 147.674 52.9425 146.658 53.7446C145.794 54.4267 144.683 55.3162 143.848 56.2107L148.234 60.3047L152.62 64.3987C152.619 64.3998 152.65 64.3672 152.726 64.2963C152.801 64.227 152.902 64.1369 153.035 64.0229C153.308 63.7899 153.653 63.5106 154.093 63.1631C154.913 62.5161 156.126 61.5849 157.314 60.6188C159.726 58.656 162.752 55.9855 165.148 52.6859C167.566 49.3561 169.615 45.004 169.395 39.8156C169.172 34.569 166.675 29.5037 162.032 24.701L157.718 28.8711ZM148.234 60.3047L142.78 62.8046C143.248 63.8253 143.996 66.2907 144.912 70.0935C145.786 73.7199 146.707 78.0991 147.598 82.6049C149.39 91.6624 150.983 100.839 151.821 105.309L157.718 104.203L163.616 103.097C162.828 98.8953 161.17 89.3749 159.37 80.2768C158.466 75.7049 157.508 71.1419 156.578 67.2825C155.691 63.5996 154.711 60.0358 153.688 57.8048L148.234 60.3047ZM157.718 104.203L154.338 109.16C158.318 111.874 161.827 118.262 162.296 126.397C162.752 134.291 160.247 142.89 153.512 149.514L157.718 153.792L161.925 158.07C171.448 148.706 174.904 136.575 174.277 125.705C173.662 115.074 169.042 104.662 161.098 99.2458L157.718 104.203ZM157.718 153.792L153.512 149.514C146.146 156.757 136.241 162.332 126.266 166.097C116.264 169.872 106.694 171.639 100.271 171.639L100.271 177.639L100.271 183.639C108.481 183.639 119.506 181.475 130.504 177.324C141.53 173.163 153.032 166.815 161.925 158.07L157.718 153.792ZM100.271 177.639V171.639C91.6372 171.639 68.7726 169.668 48.0979 149.497L43.9079 153.792L39.718 158.087C63.4836 181.273 89.9367 183.639 100.271 183.639V177.639ZM43.9079 153.792L48.0979 149.497C38.386 140.022 36.7432 130.686 38.0353 123.094C39.3984 115.086 44.1288 108.542 47.7222 105.583L43.9079 100.951L40.0937 96.3196C34.4738 100.948 28.0941 109.985 26.2055 121.081C24.2459 132.593 27.2097 145.883 39.718 158.087L43.9079 153.792ZM43.9079 100.951L49.9074 100.872C49.6507 81.3575 55.3161 64.8345 56.645 60.8473L50.9528 58.9502L45.2607 57.0531C43.8798 61.1961 37.6233 79.3574 37.9084 101.03L43.9079 100.951ZM50.9528 58.9502L53.7556 53.645C47.5435 50.3632 43.9106 45.7828 42.9919 42.0648C42.5614 40.3226 42.707 38.7769 43.3773 37.3677C44.0662 35.9196 45.533 34.1561 48.5107 32.4546L45.5339 27.2451L42.557 22.0357C37.9473 24.6698 34.5027 28.0888 32.5409 32.2129C30.5606 36.3758 30.3165 40.7917 31.3423 44.9434C33.3363 53.0133 40.0003 59.9498 48.1501 64.2554L50.9528 58.9502ZM45.5339 27.2451L48.5106 32.4546C51.4387 30.7815 53.5479 30.5032 55.0083 30.6527C56.4858 30.8038 57.9062 31.4556 59.3311 32.6657C62.3866 35.2603 64.6529 39.7471 65.8753 43.2919L71.5476 41.3359L77.2198 39.3799C75.7323 35.0664 72.579 28.1725 67.0986 23.5187C64.2556 21.1045 60.6291 19.1651 56.2298 18.715C51.8135 18.2631 47.2161 19.3735 42.5572 22.0356L45.5339 27.2451ZM71.5476 41.3359L74.489 46.5654C78.7554 44.1657 84.1377 42.7996 89.3964 42.1491C94.6209 41.503 99.283 41.6159 101.806 41.8835L102.439 35.917L103.072 29.9505C99.6339 29.5858 94.0529 29.4818 87.9234 30.2399C81.828 30.9938 74.7452 32.6533 68.6061 36.1064L71.5476 41.3359ZM102.439 35.917L102.289 41.9151C105.601 41.9981 110.87 42.8983 116.29 44.0591C121.577 45.1915 126.555 46.4703 129.094 47.1384L130.621 41.3359L132.148 35.5335C129.538 34.8467 124.355 33.5144 118.803 32.3252C113.383 31.1645 107.136 30.0327 102.589 29.9189L102.439 35.917Z" fill="white" mask="url(#path-1-outside-1_1062_21211)"/>
<path d="M71.5475 41.3365C81.9531 35.4833 96.4775 35.2846 102.439 35.9169C110.297 36.1136 125.472 39.9815 130.621 41.3365C130.892 34.562 142.002 12.6128 157.719 28.8715C173.435 45.1301 152.028 56.2402 148.234 60.3049C151.215 66.8084 156.093 95.5321 157.719 104.203C169.642 112.333 173.977 137.805 157.719 153.792C141.46 169.78 114.904 177.638 100.271 177.638C90.787 177.638 66.1281 175.471 43.9079 153.792C21.6877 132.114 34.6947 108.539 43.9079 100.952C43.637 80.3573 49.5985 63.0147 50.9532 58.95C36.5913 51.3626 30.3588 35.9169 45.5336 27.2456C60.7084 18.5743 68.8377 33.4781 71.5475 41.3365Z" fill="#6AA6E0"/>
<path d="M106.716 117.643C106.449 120.726 101.67 125.25 97.8663 125.033C94.0621 124.817 90.1157 119.793 90.3862 116.71C90.6532 113.628 93.3616 111.27 99.0384 111.593C104.781 111.922 106.987 114.561 106.716 117.643Z" fill="#305C86"/>
<path d="M73.925 65.021C71.0346 65.2016 64.7118 67.1888 62.5439 73.6923" stroke="#12497F" stroke-width="3" stroke-linecap="round"/>
<path d="M125.953 65.021C128.843 65.2016 135.166 67.1888 137.334 73.6923" stroke="#12497F" stroke-width="3" stroke-linecap="round"/>
<path d="M71.7562 121.636C69.227 122.901 63.6268 125.538 61.459 125.972" stroke="#12497F" stroke-width="3" stroke-linecap="round"/>
<path d="M128.12 121.636C130.649 122.901 136.249 125.538 138.417 125.972" stroke="#12497F" stroke-width="3" stroke-linecap="round"/>
<path d="M67.1494 124.075C68.9559 131.301 77.9343 145.753 99.3958 145.753C120.857 145.753 130.197 131.301 132.184 124.075" stroke="#12497F" stroke-width="3" stroke-linecap="round"/>
<path d="M77.8589 110.601C83.1755 110.601 87.4854 106.291 87.4854 100.975C87.4854 95.6581 83.1755 91.3481 77.8589 91.3481C72.5424 91.3481 68.2324 95.6581 68.2324 100.975C68.2324 106.291 72.5424 110.601 77.8589 110.601Z" fill="white"/>
<path d="M77.7107 106.815C80.8981 106.815 83.482 104.231 83.482 101.044C83.482 97.8566 80.8981 95.2727 77.7107 95.2727C74.5234 95.2727 71.9395 97.8566 71.9395 101.044C71.9395 104.231 74.5234 106.815 77.7107 106.815Z" fill="black"/>
<path d="M120.215 110.601C125.532 110.601 129.842 106.291 129.842 100.975C129.842 95.6581 125.532 91.3481 120.215 91.3481C114.899 91.3481 110.589 95.6581 110.589 100.975C110.589 106.291 114.899 110.601 120.215 110.601Z" fill="white"/>
<path d="M120.067 106.815C123.255 106.815 125.838 104.231 125.838 101.044C125.838 97.8566 123.255 95.2727 120.067 95.2727C116.88 95.2727 114.296 97.8566 114.296 101.044C114.296 104.231 116.88 106.815 120.067 106.815Z" fill="black"/>
<path d="M90.8545 109.638C93.7424 106.269 102.406 105.788 107.701 110.12" stroke="#305C86" stroke-width="2.88795" stroke-linecap="round"/>
</svg>
