<svg width="200" height="200" viewBox="0 0 200 200" fill="none" xmlns="http://www.w3.org/2000/svg">
<mask id="path-1-outside-1_898_4873" maskUnits="userSpaceOnUse" x="30.0002" y="25.9999" width="139" height="152" fill="black">
<rect fill="white" x="30.0002" y="25.9999" width="139" height="152"/>
<path d="M38.2786 119.57C44.2656 104.174 142.816 110.985 156.488 115.172C168.458 118.838 161.475 159.163 154.991 167.229C148.507 175.294 54.2392 171.628 45.76 167.229C37.2809 162.829 33.0819 132.939 38.2786 119.57ZM100.025 57.2062C100.771 57.1871 101.526 57.4546 102.034 58.0109C102.114 58.0981 102.195 58.1893 102.279 58.2814C102.697 58.6519 103.09 59.0967 103.44 59.5812C108.682 65.5274 118.312 77.6131 118.965 86.8351C118.988 87.162 119 87.4855 119 87.8048C119 87.9423 118.998 88.0793 118.993 88.2159C118.734 96.8207 110.374 103.73 100.099 103.73C100.075 103.73 100.051 103.729 100.027 103.729C99.9952 103.729 99.9634 103.73 99.9319 103.73C89.4015 103.729 80.8645 96.5995 80.8645 87.8048C80.8645 79.004 89.9652 67.1646 95.5921 60.6837C96.2579 59.4733 97.2604 58.3347 98.3225 57.7072C98.7319 57.4095 99.231 57.2462 99.7405 57.213C99.7797 57.2097 99.8187 57.2085 99.8577 57.2072C99.8824 57.2065 99.9071 57.2042 99.9319 57.2042H99.9885C100.001 57.2045 100.013 57.2057 100.025 57.2062ZM99.1419 32.3263C99.5432 31.891 100.321 31.8911 100.722 32.3263C102.688 34.4595 107.646 40.2468 107.646 44.3781C107.646 47.9357 104.192 50.8204 99.9319 50.8204C95.6723 50.8203 92.219 47.9356 92.219 44.3781C92.2193 40.2468 97.1756 34.4595 99.1419 32.3263Z"/>
</mask>
<path d="M38.2786 119.57C44.2656 104.174 142.816 110.985 156.488 115.172C168.458 118.838 161.475 159.163 154.991 167.229C148.507 175.294 54.2392 171.628 45.76 167.229C37.2809 162.829 33.0819 132.939 38.2786 119.57ZM100.025 57.2062C100.771 57.1871 101.526 57.4546 102.034 58.0109C102.114 58.0981 102.195 58.1893 102.279 58.2814C102.697 58.6519 103.09 59.0967 103.44 59.5812C108.682 65.5274 118.312 77.6131 118.965 86.8351C118.988 87.162 119 87.4855 119 87.8048C119 87.9423 118.998 88.0793 118.993 88.2159C118.734 96.8207 110.374 103.73 100.099 103.73C100.075 103.73 100.051 103.729 100.027 103.729C99.9952 103.729 99.9634 103.73 99.9319 103.73C89.4015 103.729 80.8645 96.5995 80.8645 87.8048C80.8645 79.004 89.9652 67.1646 95.5921 60.6837C96.2579 59.4733 97.2604 58.3347 98.3225 57.7072C98.7319 57.4095 99.231 57.2462 99.7405 57.213C99.7797 57.2097 99.8187 57.2085 99.8577 57.2072C99.8824 57.2065 99.9071 57.2042 99.9319 57.2042H99.9885C100.001 57.2045 100.013 57.2057 100.025 57.2062ZM99.1419 32.3263C99.5432 31.891 100.321 31.8911 100.722 32.3263C102.688 34.4595 107.646 40.2468 107.646 44.3781C107.646 47.9357 104.192 50.8204 99.9319 50.8204C95.6723 50.8203 92.219 47.9356 92.219 44.3781C92.2193 40.2468 97.1756 34.4595 99.1419 32.3263Z" fill="#908F8F"/>
<path d="M38.2786 119.57L32.6865 117.396L32.6862 117.397L38.2786 119.57ZM156.488 115.172L158.245 109.435L158.245 109.435L156.488 115.172ZM154.991 167.229L159.668 170.988L159.668 170.988L154.991 167.229ZM45.76 167.229L42.9968 172.554L42.9968 172.555L45.76 167.229ZM100.025 57.2062L99.7925 63.2017C99.921 63.2067 100.05 63.2075 100.178 63.2042L100.025 57.2062ZM102.034 58.0109L106.464 53.9634L106.462 53.962L102.034 58.0109ZM102.279 58.2814L97.8364 62.3146C97.9831 62.4761 98.1384 62.6295 98.3017 62.7741L102.279 58.2814ZM103.44 59.5812L98.5725 63.0897C98.6871 63.2487 98.8094 63.402 98.939 63.549L103.44 59.5812ZM118.965 86.8351L112.98 87.2589L112.98 87.2627L118.965 86.8351ZM119 87.8048L125 87.8048V87.8048H119ZM118.993 88.2159L112.996 88.0339L112.996 88.0354L118.993 88.2159ZM100.099 103.73L100.099 109.73H100.099V103.73ZM100.027 103.729L100.046 97.7287C100.031 97.7286 100.017 97.7286 100.002 97.7287L100.027 103.729ZM99.9319 103.73L99.9318 109.73H99.9319V103.73ZM80.8645 87.8048L74.8645 87.8048L74.8645 87.8048L80.8645 87.8048ZM95.5921 60.6837L100.123 64.6173C100.401 64.2968 100.645 63.9476 100.849 63.5757L95.5921 60.6837ZM98.3225 57.7072L101.375 62.8729C101.538 62.7761 101.697 62.6717 101.851 62.5598L98.3225 57.7072ZM99.7405 57.213L100.13 63.2004C100.169 63.1978 100.208 63.1949 100.247 63.1916L99.7405 57.213ZM99.8577 57.2072L99.7065 51.2091C99.6867 51.2096 99.6669 51.2102 99.6471 51.2109L99.8577 57.2072ZM99.9319 57.2042L99.9319 51.2042L99.9314 51.2042L99.9319 57.2042ZM99.9885 57.2042L100.124 51.2058C100.079 51.2047 100.034 51.2042 99.9885 51.2042L99.9885 57.2042ZM99.1419 32.3263L94.7308 28.259L94.7301 28.2599L99.1419 32.3263ZM100.722 32.3263L105.134 28.2597L105.133 28.259L100.722 32.3263ZM107.646 44.3781L113.646 44.3781L113.646 44.3777L107.646 44.3781ZM99.9319 50.8204L99.9318 56.8204H99.9319V50.8204ZM92.219 44.3781L86.219 44.3777V44.3781H92.219ZM38.2786 119.57L43.8707 121.745C43.6394 122.34 43.6549 121.56 46.6877 120.382C49.3628 119.344 53.2405 118.443 58.1951 117.739C68.0461 116.341 81.0026 115.877 94.4344 116.027C107.817 116.176 121.452 116.93 132.567 117.905C143.954 118.903 152.024 120.08 154.731 120.909L156.488 115.172L158.245 109.435C154.115 108.17 144.74 106.926 133.615 105.951C122.22 104.952 108.28 104.18 94.568 104.028C80.9049 103.876 67.2468 104.334 56.5087 105.858C51.1687 106.616 46.2581 107.676 42.3444 109.196C38.7884 110.577 34.4145 112.952 32.6865 117.396L38.2786 119.57ZM156.488 115.172L154.731 120.909C154.347 120.791 155.495 120.906 156.343 124.95C157.097 128.544 157.189 133.511 156.685 139.002C156.188 144.422 155.145 149.98 153.862 154.604C152.501 159.511 151.104 162.488 150.315 163.469L154.991 167.229L159.668 170.988C162.121 167.937 164.028 162.848 165.426 157.812C166.902 152.491 168.072 146.226 168.635 140.099C169.191 134.042 169.189 127.737 168.088 122.487C167.081 117.686 164.614 111.386 158.245 109.435L156.488 115.172ZM154.991 167.229L150.315 163.469C150.908 162.732 151.358 162.72 150.581 163.027C149.98 163.265 149.002 163.553 147.572 163.848C144.729 164.435 140.779 164.913 135.944 165.266C126.317 165.969 113.862 166.131 101.232 165.904C88.6198 165.677 75.9691 165.063 65.9864 164.239C60.9871 163.826 56.7263 163.366 53.504 162.888C51.8887 162.648 50.6068 162.413 49.6589 162.195C48.5787 161.946 48.3403 161.808 48.5232 161.903L45.76 167.229L42.9968 172.555C44.2396 173.199 45.7314 173.605 46.9668 173.889C48.3344 174.204 49.9536 174.492 51.7401 174.757C55.3214 175.289 59.8671 175.775 64.9992 176.198C75.2791 177.047 88.1906 177.671 101.016 177.902C113.823 178.133 126.681 177.974 136.818 177.234C141.865 176.865 146.409 176.341 149.996 175.601C151.781 175.233 153.502 174.777 154.998 174.185C156.318 173.662 158.264 172.734 159.668 170.988L154.991 167.229ZM45.76 167.229L48.5232 161.903C48.569 161.927 48.2349 161.753 47.6497 160.946C47.0859 160.168 46.4575 159.032 45.8257 157.508C44.5602 154.456 43.5051 150.392 42.824 145.869C41.4259 136.588 41.8285 126.998 43.8709 121.744L38.2786 119.57L32.6862 117.397C29.532 125.511 29.4357 137.551 30.9578 147.657C31.7367 152.828 32.9964 157.897 34.7406 162.104C36.3506 165.987 38.8896 170.424 42.9968 172.554L45.76 167.229ZM100.025 57.2062L100.178 63.2042C99.4808 63.2221 98.4553 62.988 97.6065 62.0598L102.034 58.0109L106.462 53.962C104.596 51.9211 102.061 51.1521 99.8712 51.2081L100.025 57.2062ZM102.034 58.0109L97.6053 62.0584C97.7225 62.1867 97.6416 62.1001 97.8364 62.3146L102.279 58.2814L106.721 54.2481C106.692 54.2165 106.664 54.1847 106.618 54.1344C106.578 54.0895 106.522 54.0278 106.464 53.9634L102.034 58.0109ZM102.279 58.2814L98.3017 62.7741C98.3439 62.8114 98.4458 62.914 98.5725 63.0897L103.44 59.5812L108.307 56.0726C107.735 55.2794 107.051 54.4924 106.255 53.7886L102.279 58.2814ZM103.44 59.5812L98.939 63.549C101.458 66.4068 104.956 70.657 107.868 75.2121C110.905 79.9613 112.765 84.2212 112.98 87.2589L118.965 86.8351L124.95 86.4113C124.512 80.227 121.23 73.8331 117.978 68.7474C114.602 63.4675 110.663 58.7018 107.94 55.6134L103.44 59.5812ZM118.965 86.8351L112.98 87.2627C112.994 87.4524 113 87.6331 113 87.8048H119H125C125 87.3378 124.983 86.8717 124.95 86.4075L118.965 86.8351ZM119 87.8048L113 87.8048C113 87.8652 112.999 87.9391 112.996 88.0339L118.993 88.2159L124.991 88.398C124.996 88.2196 125 88.0193 125 87.8048L119 87.8048ZM118.993 88.2159L112.996 88.0354C112.861 92.525 108.081 97.7296 100.099 97.7296V103.73V109.73C112.667 109.73 124.608 101.117 124.991 88.3965L118.993 88.2159ZM100.099 103.73L100.099 97.7296C100.13 97.7296 100.153 97.7299 100.166 97.7301C100.178 97.7302 100.186 97.7304 100.18 97.7303C100.178 97.7303 100.172 97.7301 100.166 97.73C100.16 97.7299 100.15 97.7297 100.139 97.7296C100.118 97.7292 100.085 97.7288 100.046 97.7287L100.027 103.729L100.007 109.729C99.9801 109.729 99.9594 109.728 99.9499 109.728C99.9424 109.728 99.9356 109.728 99.946 109.728C99.9517 109.728 99.972 109.729 99.9956 109.729C100.02 109.729 100.056 109.73 100.099 109.73L100.099 103.73ZM100.027 103.729L100.002 97.7287C99.9722 97.7288 99.9465 97.7291 99.9289 97.7293C99.9129 97.7295 99.8963 97.7298 99.8927 97.7298C99.8856 97.7299 99.8883 97.7299 99.8936 97.7298C99.8996 97.7297 99.9133 97.7296 99.9319 97.7296V103.73V109.73C99.9662 109.73 99.9957 109.729 100.018 109.729C100.039 109.729 100.057 109.729 100.066 109.729C100.078 109.728 100.077 109.728 100.077 109.728C100.075 109.728 100.065 109.729 100.051 109.729L100.027 103.729ZM99.9319 103.73L99.932 97.7296C91.6578 97.7295 86.8645 92.3191 86.8645 87.8048L80.8645 87.8048L74.8645 87.8048C74.8645 100.88 87.1451 109.729 99.9318 109.73L99.9319 103.73ZM80.8645 87.8048H86.8645C86.8645 85.1504 88.3685 81.1945 91.2368 76.5048C93.9713 72.0337 97.4155 67.7354 100.123 64.6173L95.5921 60.6837L91.0614 56.7501C88.1417 60.113 84.2221 64.9748 80.9996 70.2438C77.9108 75.2941 74.8645 81.6584 74.8645 87.8048H80.8645ZM95.5921 60.6837L100.849 63.5757C100.96 63.3736 101.106 63.1698 101.253 63.0081C101.41 62.8349 101.471 62.816 101.375 62.8729L98.3225 57.7072L95.2704 52.5415C93.0597 53.8476 91.3777 55.8963 90.335 57.7918L95.5921 60.6837ZM98.3225 57.7072L101.851 62.5598C101.235 63.0081 100.612 63.169 100.13 63.2004L99.7405 57.213L99.351 51.2257C97.8497 51.3234 96.229 51.8109 94.7938 52.8545L98.3225 57.7072ZM99.7405 57.213L100.247 63.1916C100.161 63.1989 100.096 63.2021 100.069 63.2033C100.062 63.2036 100.056 63.2039 100.052 63.204C100.05 63.2041 100.049 63.2041 100.048 63.2042C100.047 63.2042 100.046 63.2042 100.046 63.2042C100.046 63.2042 100.047 63.2042 100.048 63.2042C100.049 63.2041 100.05 63.2041 100.052 63.204C100.054 63.204 100.062 63.2037 100.068 63.2035L99.8577 57.2072L99.6471 51.2109C99.6434 51.211 99.6419 51.211 99.6344 51.2113C99.6286 51.2115 99.6201 51.2118 99.6106 51.2121C99.5917 51.2128 99.563 51.2139 99.5293 51.2154C99.4629 51.2184 99.359 51.2238 99.2343 51.2344L99.7405 57.213ZM99.8577 57.2072L100.009 63.2053C100.081 63.2034 100.139 63.2008 100.171 63.1992C100.187 63.1984 100.2 63.1977 100.206 63.1974C100.209 63.1972 100.212 63.197 100.213 63.197C100.214 63.197 100.213 63.197 100.212 63.1971C100.209 63.1972 100.2 63.1977 100.187 63.1983C100.174 63.1989 100.155 63.1998 100.132 63.2006C100.087 63.2022 100.018 63.2042 99.9324 63.2042L99.9319 57.2042L99.9314 51.2042C99.8336 51.2042 99.7518 51.2065 99.6942 51.2086C99.6384 51.2106 99.5934 51.213 99.5778 51.2138C99.5735 51.2141 99.5591 51.2148 99.5648 51.2145C99.565 51.2145 99.5669 51.2144 99.5696 51.2143C99.5724 51.2141 99.5766 51.2139 99.5819 51.2137C99.6012 51.2127 99.647 51.2106 99.7065 51.2091L99.8577 57.2072ZM99.9319 57.2042V63.2042H99.9885V57.2042V51.2042H99.9319V57.2042ZM99.9885 57.2042L99.8528 63.2027C99.7785 63.201 99.7183 63.1982 99.6802 63.1962C99.6607 63.1951 99.6447 63.1942 99.6339 63.1935C99.6234 63.1929 99.6155 63.1924 99.6137 63.1923C99.6128 63.1922 99.612 63.1921 99.6132 63.1922C99.6139 63.1923 99.6164 63.1924 99.6192 63.1926C99.6249 63.193 99.6364 63.1937 99.6507 63.1946C99.6784 63.1963 99.7293 63.1992 99.7925 63.2017L100.025 57.2062L100.257 51.2107C100.314 51.2129 100.359 51.2155 100.381 51.2168C100.392 51.2175 100.4 51.2181 100.403 51.2182C100.404 51.2183 100.405 51.2184 100.405 51.2183C100.404 51.2183 100.402 51.2182 100.4 51.218C100.392 51.2175 100.357 51.2152 100.315 51.213C100.271 51.2106 100.205 51.2076 100.124 51.2058L99.9885 57.2042ZM99.1419 32.3263L103.553 36.3936C102.438 37.6023 101.029 37.9999 99.9317 37.9999C98.8347 37.9998 97.4253 37.6022 96.3109 36.3936L100.722 32.3263L105.133 28.259C103.617 26.6152 101.619 25.9999 99.9322 25.9999C98.2457 25.9998 96.2467 26.615 94.7308 28.259L99.1419 32.3263ZM100.722 32.3263L96.3103 36.3929C97.1961 37.3539 98.6909 39.0723 99.9274 40.9288C100.544 41.8549 101.02 42.7014 101.325 43.4144C101.652 44.1773 101.646 44.469 101.646 44.3784L107.646 44.3781L113.646 44.3777C113.646 40.3734 111.449 36.581 109.915 34.277C108.181 31.6738 106.214 29.432 105.134 28.2597L100.722 32.3263ZM107.646 44.3781H101.646C101.646 44.1109 101.791 44.1189 101.54 44.3282C101.277 44.5481 100.727 44.8204 99.9319 44.8204V50.8204V56.8204C106.448 56.8204 113.646 52.2161 113.646 44.3781H107.646ZM99.9319 50.8204L99.9321 44.8204C99.1366 44.8204 98.5876 44.5481 98.3246 44.3284C98.0742 44.1193 98.219 44.1113 98.219 44.3781H92.219H86.219C86.219 52.2153 93.4151 56.8203 99.9318 56.8204L99.9319 50.8204ZM92.219 44.3781L98.219 44.3784C98.219 44.4688 98.2131 44.177 98.5398 43.4141C98.8452 42.701 99.3206 41.8545 99.9372 40.9285C101.174 39.072 102.668 37.3536 103.554 36.3927L99.1419 32.3263L94.7301 28.2599C93.6494 29.4323 91.6827 31.6741 89.9492 34.2773C88.4148 36.5814 86.2193 40.3737 86.219 44.3777L92.219 44.3781Z" fill="white" mask="url(#path-1-outside-1_898_4873)"/>
<path d="M80.8643 87.8048C80.8643 96.5996 89.4016 103.73 99.9322 103.73C110.463 103.73 119 96.5996 119 87.8048C119 77.5917 106.746 63.2851 101.885 58.0113C100.893 56.935 98.9714 56.935 97.9791 58.0113C93.1181 63.2851 80.8643 77.5917 80.8643 87.8048Z" fill="#4E90CD"/>
<path d="M93.4329 81.1692C96.2328 81.1692 98.5025 78.8995 98.5025 76.0997C98.5025 73.2999 96.2328 71.0302 93.4329 71.0302C90.6331 71.0302 88.3634 73.2999 88.3634 76.0997C88.3634 78.8995 90.6331 81.1692 93.4329 81.1692Z" fill="white"/>
<path d="M93.4323 78.1865C94.5847 78.1865 95.5189 77.2523 95.5189 76.0999C95.5189 74.9476 94.5847 74.0134 93.4323 74.0134C92.28 74.0134 91.3458 74.9476 91.3458 76.0999C91.3458 77.2523 92.28 78.1865 93.4323 78.1865Z" fill="black" stroke="black" stroke-width="1.08103" stroke-miterlimit="10"/>
<path d="M88.7588 97.3601C99.197 97.3601 107.659 90.2299 107.659 81.435C107.659 74.5501 102.141 65.814 97.0675 59.2297C97.4611 58.7867 97.8323 58.3739 98.1633 58.0113C99.1465 56.935 101.051 56.935 102.035 58.0113C106.854 63.2844 119 77.5917 119 87.8046C119 96.5995 110.538 103.73 100.099 103.73C93.7176 103.73 88.1002 101.046 84.6779 96.965C85.9951 97.2103 87.3542 97.3601 88.7588 97.3601Z" fill="#276288"/>
<path d="M94.7796 63.2822C94.8343 60.8519 97.6271 57.1508 99.9887 57.2042C102.35 57.2577 104.971 61.0832 104.916 63.5135C104.861 65.9438 103.272 67.8794 99.748 67.7984C96.1838 67.7174 94.7248 65.7125 94.7796 63.2822Z" fill="#E8BE0F"/>
<path d="M92.2189 44.3784C92.2189 47.9359 95.6724 50.8201 99.9321 50.8201C104.192 50.8201 107.645 47.9359 107.645 44.3784C107.645 40.247 102.688 34.4598 100.722 32.3265C100.321 31.8912 99.5434 31.8912 99.142 32.3265C97.1757 34.4598 92.2189 40.247 92.2189 44.3784Z" fill="#6AAAE5"/>
<path d="M156.488 115.172C168.458 118.838 161.475 159.164 154.991 167.229C148.507 175.294 54.239 171.628 45.7599 167.229C37.2807 162.83 33.0816 132.939 38.2783 119.571C44.2636 104.174 142.816 110.985 156.488 115.172Z" fill="#908F8F"/>
</svg>
