<svg width="200" height="200" viewBox="0 0 200 200" fill="none" xmlns="http://www.w3.org/2000/svg">
<mask id="path-1-outside-1_1062_29849" maskUnits="userSpaceOnUse" x="10.1543" y="16" width="180" height="168" fill="black">
<rect fill="white" x="10.1543" y="16" width="180" height="168"/>
<path d="M132.458 22C148.447 22.0002 161.921 33.6778 164.796 48.8887C165.395 52.0626 162.82 54.9375 159.586 54.9375H140.954C151.439 65.4798 152.617 81.9684 144.488 93.8633C142.811 96.3184 139.158 96.5581 137.062 94.4023L126.698 84.0381C125.893 88.6098 122.495 92.2845 118.076 93.4951V133.518C137.686 136.803 155.077 146.616 167.942 160.648C171.262 161.629 173.766 163.111 177.847 163.151C180.901 163.212 183.895 166.505 183.955 169.559C184.015 170.457 184.015 171.416 183.955 172.374C183.895 175.368 181.439 177.764 178.445 177.764H22.6221C19.029 177.764 16.1544 174.889 16.1543 171.296C16.1543 168.421 18.1307 165.846 20.9453 165.067C26.6343 163.57 29.988 159.798 38.252 159.798C38.8116 159.798 39.3413 159.816 39.8438 159.849C52.4604 146.426 69.2738 136.995 88.1934 133.649V81.4736C85.1319 80.7146 82.5385 78.7737 80.9248 76.1611L80.1113 76.9756L61.7256 95.3604C59.5098 97.5159 55.7972 97.3366 54.0605 94.7617C45.753 82.6565 46.9134 65.7897 57.4805 54.9375H40.4131C37.1794 54.9374 34.5444 52.0027 35.2031 48.8887C38.0777 33.6777 51.5523 22 67.542 22C83.7254 22.0001 97.3194 33.8924 100 49.3525C102.68 33.8924 116.275 22 132.458 22Z"/>
</mask>
<path d="M132.458 22C148.447 22.0002 161.921 33.6778 164.796 48.8887C165.395 52.0626 162.82 54.9375 159.586 54.9375H140.954C151.439 65.4798 152.617 81.9684 144.488 93.8633C142.811 96.3184 139.158 96.5581 137.062 94.4023L126.698 84.0381C125.893 88.6098 122.495 92.2845 118.076 93.4951V133.518C137.686 136.803 155.077 146.616 167.942 160.648C171.262 161.629 173.766 163.111 177.847 163.151C180.901 163.212 183.895 166.505 183.955 169.559C184.015 170.457 184.015 171.416 183.955 172.374C183.895 175.368 181.439 177.764 178.445 177.764H22.6221C19.029 177.764 16.1544 174.889 16.1543 171.296C16.1543 168.421 18.1307 165.846 20.9453 165.067C26.6343 163.57 29.988 159.798 38.252 159.798C38.8116 159.798 39.3413 159.816 39.8438 159.849C52.4604 146.426 69.2738 136.995 88.1934 133.649V81.4736C85.1319 80.7146 82.5385 78.7737 80.9248 76.1611L80.1113 76.9756L61.7256 95.3604C59.5098 97.5159 55.7972 97.3366 54.0605 94.7617C45.753 82.6565 46.9134 65.7897 57.4805 54.9375H40.4131C37.1794 54.9374 34.5444 52.0027 35.2031 48.8887C38.0777 33.6777 51.5523 22 67.542 22C83.7254 22.0001 97.3194 33.8924 100 49.3525C102.68 33.8924 116.275 22 132.458 22Z" fill="#FFD0B1"/>
<path d="M132.458 22L132.458 16H132.458V22ZM164.796 48.8887L170.692 47.7762L170.692 47.7745L164.796 48.8887ZM159.586 54.9375L159.586 60.9375L159.586 60.9375L159.586 54.9375ZM140.954 54.9375V48.9375C138.53 48.9375 136.345 50.3958 135.414 52.6339C134.483 54.8719 134.991 57.45 136.7 59.1686L140.954 54.9375ZM144.488 93.8633L139.535 90.4779L139.534 90.4793L144.488 93.8633ZM137.062 94.4023L141.364 90.2198C141.345 90.1996 141.325 90.1796 141.305 90.1597L137.062 94.4023ZM126.698 84.0381L130.941 79.7954C129.359 78.2133 127.028 77.6429 124.894 78.3159C122.76 78.9889 121.177 80.7934 120.789 82.997L126.698 84.0381ZM118.076 93.4951L116.491 87.7084C113.884 88.4227 112.076 90.7921 112.076 93.4951H118.076ZM118.076 133.518H112.076C112.076 136.449 114.194 138.951 117.085 139.435L118.076 133.518ZM167.942 160.648L163.52 164.703C164.256 165.507 165.198 166.094 166.243 166.403L167.942 160.648ZM177.847 163.151L177.965 157.153C177.945 157.152 177.925 157.152 177.906 157.152L177.847 163.151ZM183.955 169.559L177.956 169.677C177.958 169.77 177.962 169.864 177.968 169.958L183.955 169.559ZM183.955 172.374L177.967 172C177.961 172.084 177.958 172.169 177.956 172.254L183.955 172.374ZM178.445 177.764L178.445 183.764L178.445 183.764L178.445 177.764ZM16.1543 171.296L10.1543 171.296L10.1543 171.296L16.1543 171.296ZM20.9453 165.067L19.4183 159.265C19.3941 159.271 19.3699 159.278 19.3458 159.285L20.9453 165.067ZM38.252 159.798L38.252 153.798L38.2519 153.798L38.252 159.798ZM39.8438 159.849L39.4498 165.836C41.2392 165.953 42.9874 165.265 44.2156 163.958L39.8438 159.849ZM88.1934 133.649L89.2382 139.558C92.1044 139.051 94.1934 136.56 94.1934 133.649H88.1934ZM88.1934 81.4736H94.1934C94.1934 78.716 92.3137 76.3135 89.6371 75.6499L88.1934 81.4736ZM80.9248 76.1611L86.0296 73.0082C85.0655 71.4472 83.4402 70.4132 81.6178 70.2013C79.7954 69.9894 77.9762 70.6229 76.6796 71.921L80.9248 76.1611ZM80.1113 76.9756L84.3539 81.2183L84.3565 81.2157L80.1113 76.9756ZM61.7256 95.3604L65.9094 99.661C65.9291 99.6418 65.9487 99.6225 65.9681 99.6031L61.7256 95.3604ZM54.0605 94.7617L59.0349 91.4067C59.0259 91.3933 59.0168 91.38 59.0076 91.3667L54.0605 94.7617ZM57.4805 54.9375L61.7792 59.1233C63.4621 57.395 63.9463 54.827 63.0083 52.6046C62.0704 50.3821 59.8927 48.9375 57.4805 48.9375V54.9375ZM40.4131 54.9375L40.4128 60.9375H40.4131V54.9375ZM35.2031 48.8887L41.0732 50.1304C41.0822 50.088 41.0907 50.0454 41.0988 50.0028L35.2031 48.8887ZM67.542 22L67.542 16H67.542V22ZM100 49.3525L94.0882 50.3776C94.5868 53.2529 97.0818 55.3526 100 55.3525C102.918 55.3525 105.413 53.2527 105.912 50.3773L100 49.3525ZM132.458 22L132.458 28C145.483 28.0002 156.546 37.5467 158.9 50.0028L164.796 48.8887L170.692 47.7745C167.296 29.809 151.411 16.0002 132.458 16L132.458 22ZM164.796 48.8887L158.9 50.0011C158.871 49.8466 158.878 49.6677 158.927 49.5008C158.972 49.3438 159.043 49.232 159.107 49.159C159.225 49.0233 159.398 48.9375 159.586 48.9375L159.586 54.9375L159.586 60.9375C166.26 60.9375 172.046 54.9517 170.692 47.7762L164.796 48.8887ZM159.586 54.9375V48.9375H140.954V54.9375V60.9375H159.586V54.9375ZM140.954 54.9375L136.7 59.1686C145.105 67.6195 146.079 80.9025 139.535 90.4779L144.488 93.8633L149.442 97.2487C159.156 83.0342 157.773 63.3401 145.208 50.7064L140.954 54.9375ZM144.488 93.8633L139.534 90.4793C139.83 90.0447 140.254 89.8948 140.512 89.8767C140.761 89.8592 141.093 89.9408 141.364 90.2198L137.062 94.4023L132.761 98.5849C137.36 103.315 145.514 103 149.443 97.2472L144.488 93.8633ZM137.062 94.4023L141.305 90.1597L130.941 79.7954L126.698 84.0381L122.456 88.2807L132.82 98.645L137.062 94.4023ZM126.698 84.0381L120.789 82.997C120.39 85.2621 118.693 87.1049 116.491 87.7084L118.076 93.4951L119.662 99.2818C126.296 97.464 131.395 91.9576 132.607 85.0791L126.698 84.0381ZM118.076 93.4951H112.076V133.518H118.076H124.076V93.4951H118.076ZM118.076 133.518L117.085 139.435C135.334 142.493 151.53 151.626 163.52 164.703L167.942 160.648L172.365 156.594C158.624 141.606 140.037 131.114 119.068 127.6L118.076 133.518ZM167.942 160.648L166.243 166.403C166.886 166.593 167.52 166.816 168.271 167.088C168.979 167.345 169.865 167.673 170.774 167.965C172.705 168.585 174.969 169.123 177.788 169.151L177.847 163.151L177.906 157.152C176.644 157.139 175.616 156.916 174.444 156.54C173.802 156.334 173.185 156.105 172.362 155.807C171.582 155.524 170.658 155.194 169.642 154.894L167.942 160.648ZM177.847 163.151L177.729 169.15C177.433 169.144 177.301 169.066 177.342 169.087C177.382 169.107 177.503 169.183 177.648 169.338C177.793 169.492 177.893 169.651 177.945 169.766C178 169.886 177.96 169.86 177.956 169.677L183.955 169.559L189.954 169.441C189.888 166.097 188.299 163.152 186.399 161.127C184.507 159.111 181.559 157.223 177.965 157.153L177.847 163.151ZM183.955 169.559L177.968 169.958C178.01 170.582 178.012 171.282 177.967 172L183.955 172.374L189.943 172.748C190.018 171.549 190.02 170.332 189.942 169.159L183.955 169.559ZM183.955 172.374L177.956 172.254C177.962 171.966 178.188 171.764 178.445 171.764L178.445 177.764L178.445 183.764C184.69 183.764 189.828 178.77 189.954 172.494L183.955 172.374ZM178.445 177.764V171.764H22.6221V177.764V183.764H178.445V177.764ZM22.6221 177.764V171.764C22.4615 171.764 22.3581 171.709 22.2835 171.635C22.2089 171.56 22.1543 171.456 22.1543 171.296L16.1543 171.296L10.1543 171.296C10.1546 178.202 15.7151 183.764 22.6221 183.764V177.764ZM16.1543 171.296H22.1543C22.1543 171.245 22.1715 171.156 22.2513 171.052C22.3312 170.948 22.4361 170.88 22.5448 170.85L20.9453 165.067L19.3458 159.285C13.9784 160.769 10.1543 165.675 10.1543 171.296H16.1543ZM20.9453 165.067L22.4723 170.87C25.9094 169.965 29.2306 168.159 31.0386 167.368C33.1041 166.464 35.1762 165.798 38.252 165.798L38.252 159.798L38.2519 153.798C33.0637 153.798 29.327 155.018 26.2274 156.375C22.8703 157.844 21.6702 158.672 19.4183 159.265L20.9453 165.067ZM38.252 159.798V165.798C38.6849 165.798 39.083 165.812 39.4498 165.836L39.8438 159.849L40.2377 153.862C39.5995 153.82 38.9384 153.798 38.252 153.798V159.798ZM39.8438 159.849L44.2156 163.958C55.9734 151.449 71.6312 142.671 89.2382 139.558L88.1934 133.649L87.1485 127.741C66.9164 131.319 48.9473 141.403 35.4719 155.739L39.8438 159.849ZM88.1934 133.649H94.1934V81.4736H88.1934H82.1934V133.649H88.1934ZM88.1934 81.4736L89.6371 75.6499C88.1307 75.2765 86.8367 74.3149 86.0296 73.0082L80.9248 76.1611L75.82 79.3141C78.2402 83.2325 82.133 86.1528 86.7496 87.2973L88.1934 81.4736ZM80.9248 76.1611L76.6796 71.921L75.8661 72.7355L80.1113 76.9756L84.3565 81.2157L85.17 80.4012L80.9248 76.1611ZM80.1113 76.9756L75.8688 72.7328L57.4831 91.1176L61.7256 95.3604L65.9681 99.6031L84.3539 81.2183L80.1113 76.9756ZM61.7256 95.3604L57.5418 91.0597C57.7034 90.9025 57.9111 90.8345 58.1227 90.8489C58.37 90.8659 58.7736 91.0193 59.0349 91.4067L54.0605 94.7617L49.0862 98.1167C53.1518 104.145 61.3272 104.119 65.9094 99.661L61.7256 95.3604ZM54.0605 94.7617L59.0076 91.3667C52.2911 81.5797 53.2415 67.8914 61.7792 59.1233L57.4805 54.9375L53.1817 50.7517C40.5854 63.688 39.215 83.7333 49.1135 98.1568L54.0605 94.7617ZM57.4805 54.9375V48.9375H40.4131V54.9375V60.9375H57.4805V54.9375ZM40.4131 54.9375L40.4134 48.9375C40.628 48.9375 40.7761 49.0292 40.8678 49.1342C40.9763 49.2585 41.1797 49.6272 41.0732 50.1304L35.2031 48.8887L29.333 47.6469C27.7901 54.9409 33.8388 60.9372 40.4128 60.9375L40.4131 54.9375ZM35.2031 48.8887L41.0988 50.0028C43.4527 37.5466 54.5161 28 67.542 28V22V16C48.5885 16 32.7026 29.8087 29.3075 47.7745L35.2031 48.8887ZM67.542 22L67.542 28C80.7426 28.0001 91.895 37.7287 94.0882 50.3776L100 49.3525L105.912 48.3275C102.744 30.0562 86.7083 16.0001 67.542 16L67.542 22ZM100 49.3525L105.912 50.3773C108.104 37.7287 119.257 28 132.458 28V22V16C113.292 16 97.2555 30.056 94.0882 48.3277L100 49.3525Z" fill="white" mask="url(#path-1-outside-1_1062_29849)"/>
<path d="M114.962 54.0988H91.3074C89.5707 54.0988 88.1934 55.4761 88.1934 57.2128V159.498C88.1934 161.235 89.5707 162.612 91.3074 162.612H114.962C116.699 162.612 118.076 161.235 118.076 159.498V57.2727C118.076 55.536 116.699 54.0988 114.962 54.0988Z" fill="#593B39"/>
<path d="M176.608 171.775H30.4355C46.0469 148.002 72.9459 132.31 103.522 132.31C134.098 132.31 160.997 148.002 176.608 171.775Z" fill="#F49758"/>
<path d="M99.5203 54.9373H40.4133C37.1795 54.9373 34.5445 52.0029 35.2032 48.8888C38.0778 33.6778 51.5521 22 67.5418 22C83.7254 22 97.3195 33.8925 100 49.3528C102.68 33.8925 116.274 22 132.458 22C148.447 22 161.921 33.6778 164.796 48.8888C165.395 52.0627 162.82 54.9373 159.586 54.9373H99.5203Z" fill="#96C34A"/>
<path d="M98.496 58.5904L80.1111 76.9753L61.7261 95.3603C59.5103 97.5162 55.7974 97.3366 54.0607 94.7615C45.6766 82.5447 46.9342 65.4772 57.7736 54.6378C68.6129 43.7985 85.6206 42.5409 97.8972 50.9249C99.1602 51.7767 99.8471 53.1182 99.9644 54.5185C100.129 53.2512 100.777 52.0578 101.91 51.2845C113.827 43.14 130.355 44.3976 140.895 54.8777C151.435 65.4174 152.633 81.9459 144.488 93.8632C142.812 96.3185 139.159 96.558 137.063 94.4021L119.217 76.5561L101.371 58.7104C100.516 57.8558 100.04 56.7424 99.9417 55.6096C99.8039 56.7035 99.3213 57.7653 98.496 58.5904Z" fill="#608842"/>
<path d="M102.987 69.9088C102.987 76.4902 97.6517 81.8261 91.0696 81.8261C84.4882 81.8261 79.1523 76.4902 79.1523 69.9088C79.1523 63.327 84.4882 57.9915 91.0696 57.9915C97.6517 57.9915 102.987 63.327 102.987 69.9088ZM126.881 81.9458C126.881 88.5608 121.519 93.923 114.904 93.923C108.289 93.923 102.927 88.5608 102.927 81.9458C102.927 75.3308 108.289 69.9686 114.904 69.9686C121.519 69.9686 126.881 75.3308 126.881 81.9458Z" fill="#8B5C56"/>
<path d="M183.955 169.559C183.895 166.505 180.901 163.211 177.846 163.151C171.738 163.091 169.163 159.798 162.096 159.798C151.796 159.798 151.796 165.786 141.496 165.786C131.195 165.786 131.195 159.798 120.835 159.798C110.535 159.798 110.535 165.786 100.174 165.786C89.8739 165.786 89.8739 159.798 79.5136 159.798C69.2132 159.798 69.2132 165.786 58.9129 165.786C48.6125 165.786 48.6125 159.798 38.2522 159.798C29.9879 159.798 26.6343 163.57 20.9452 165.068C18.1305 165.846 16.1543 168.421 16.1543 171.296C16.1543 174.889 19.0288 177.763 22.622 177.763H178.445C181.439 177.763 183.895 175.368 183.955 172.374C184.015 171.415 184.015 170.457 183.955 169.559Z" fill="#4B9AE8"/>
<path d="M69.5 157C73.0899 157 76 154.09 76 150.5C76 146.91 73.0899 144 69.5 144C65.9102 144 63 146.91 63 150.5C63 154.09 65.9102 157 69.5 157Z" fill="white"/>
<path d="M69.5018 153.965C71.4153 153.965 72.9665 152.413 72.9665 150.5C72.9665 148.586 71.4153 147.035 69.5018 147.035C67.5883 147.035 66.0371 148.586 66.0371 150.5C66.0371 152.413 67.5883 153.965 69.5018 153.965Z" fill="#040000"/>
<path d="M136.5 157C140.09 157 143 154.09 143 150.5C143 146.91 140.09 144 136.5 144C132.91 144 130 146.91 130 150.5C130 154.09 132.91 157 136.5 157Z" fill="white"/>
<path d="M136.502 153.965C138.415 153.965 139.966 152.413 139.966 150.5C139.966 148.586 138.415 147.035 136.502 147.035C134.588 147.035 133.037 148.586 133.037 150.5C133.037 152.413 134.588 153.965 136.502 153.965Z" fill="#040000"/>
<path d="M110.131 151.602C109.916 154.442 106.077 158.611 103.02 158.411C99.964 158.212 96.7932 153.582 97.0106 150.742C97.2251 147.902 99.4012 145.73 103.962 146.027C108.576 146.33 110.348 148.761 110.131 151.602Z" fill="#FFD0B1"/>
</svg>
