<svg width="200" height="200" viewBox="0 0 200 200" fill="none" xmlns="http://www.w3.org/2000/svg">
<mask id="path-1-outside-1_1347_12573" maskUnits="userSpaceOnUse" x="10" y="11" width="181" height="179" fill="black">
<rect fill="white" x="10" y="11" width="181" height="179"/>
<path d="M102.028 17C143.028 17.0001 165.528 36.5 174.528 53.5C198.966 101.586 171.035 143.587 153.31 159.316C153.83 159.739 153.862 160.358 153.326 161.223C150.384 165.975 131.875 169.325 111.009 170.396C110.799 177.669 104.839 183.5 97.5156 183.5C90.2113 183.5 84.2619 177.699 84.0234 170.452C68.0027 169.642 53.9924 167.208 48.3262 162.723C46.8416 161.548 46.4984 160.767 47.0869 160.283C46.872 160.184 46.6848 160.091 46.5283 160C8.02832 113 13.0283 80 23.5283 57.5C34.0284 35.0001 61.0284 17 102.028 17Z"/>
</mask>
<path d="M102.028 17C143.028 17.0001 165.528 36.5 174.528 53.5C198.966 101.586 171.035 143.587 153.31 159.316C153.83 159.739 153.862 160.358 153.326 161.223C150.384 165.975 131.875 169.325 111.009 170.396C110.799 177.669 104.839 183.5 97.5156 183.5C90.2113 183.5 84.2619 177.699 84.0234 170.452C68.0027 169.642 53.9924 167.208 48.3262 162.723C46.8416 161.548 46.4984 160.767 47.0869 160.283C46.872 160.184 46.6848 160.091 46.5283 160C8.02832 113 13.0283 80 23.5283 57.5C34.0284 35.0001 61.0284 17 102.028 17Z" fill="#D77603"/>
<path d="M102.028 17L102.028 11H102.028V17ZM174.528 53.5L179.877 50.7817C179.862 50.7519 179.847 50.7222 179.831 50.6927L174.528 53.5ZM153.31 159.316L149.327 154.829C148.01 155.998 147.273 157.686 147.311 159.447C147.349 161.208 148.159 162.863 149.526 163.973L153.31 159.316ZM153.326 161.223L158.427 164.381L158.428 164.381L153.326 161.223ZM111.009 170.396L110.701 164.404C107.578 164.565 105.101 167.097 105.011 170.223L111.009 170.396ZM97.5156 183.5L97.5154 189.5H97.5156L97.5156 183.5ZM84.0234 170.452L90.0202 170.255C89.9176 167.137 87.4424 164.617 84.3266 164.46L84.0234 170.452ZM48.3262 162.723L44.6023 167.427L44.6023 167.427L48.3262 162.723ZM47.0869 160.283L50.8991 164.917C52.4944 163.604 53.3022 161.563 53.0374 159.514C52.7726 157.465 51.4724 155.697 49.5958 154.833L47.0869 160.283ZM46.5283 160L41.8868 163.802C42.3398 164.355 42.888 164.823 43.5056 165.183L46.5283 160ZM23.5283 57.5L18.0912 54.9627L18.0912 54.9627L23.5283 57.5ZM102.028 17L102.028 23C140.893 23.0001 161.306 41.3478 169.226 56.3073L174.528 53.5L179.831 50.6927C169.751 31.6523 145.163 11.0001 102.028 11L102.028 17ZM174.528 53.5L169.179 56.2183C191.823 100.775 166.105 139.94 149.327 154.829L153.31 159.316L157.292 163.804C175.964 147.235 206.108 102.398 179.877 50.7817L174.528 53.5ZM153.31 159.316L149.526 163.973C149.119 163.642 148.646 163.139 148.278 162.428C147.902 161.701 147.729 160.935 147.715 160.219C147.689 158.903 148.197 158.109 148.225 158.064L153.326 161.223L158.428 164.381C158.991 163.471 159.75 161.936 159.713 159.988C159.669 157.703 158.558 155.85 157.093 154.659L153.31 159.316ZM153.326 161.223L148.225 158.064C148.581 157.489 148.508 157.999 146.161 158.946C144.154 159.757 141.301 160.567 137.679 161.313C130.469 162.798 120.947 163.878 110.701 164.404L111.009 170.396L111.316 176.389C121.936 175.843 132.102 174.713 140.099 173.066C144.08 172.247 147.71 171.262 150.653 170.074C153.256 169.023 156.6 167.332 158.427 164.381L153.326 161.223ZM111.009 170.396L105.011 170.223C104.895 174.261 101.582 177.5 97.5156 177.5L97.5156 183.5L97.5156 189.5C108.095 189.5 116.703 181.077 117.006 170.569L111.009 170.396ZM97.5156 183.5L97.5158 177.5C93.459 177.5 90.1526 174.277 90.0202 170.255L84.0234 170.452L78.0267 170.65C78.3713 181.12 86.9636 189.5 97.5154 189.5L97.5156 183.5ZM84.0234 170.452L84.3266 164.46C76.4976 164.064 69.3124 163.277 63.4938 162.087C57.4285 160.847 53.7091 159.331 52.05 158.018L48.3262 162.723L44.6023 167.427C48.6095 170.599 54.7284 172.543 61.09 173.844C67.6983 175.195 75.5286 176.03 83.7203 176.444L84.0234 170.452ZM48.3262 162.723L52.05 158.018C51.829 157.843 51.764 157.771 51.7904 157.799C51.7935 157.803 52.0554 158.071 52.3139 158.597C52.5802 159.139 52.9869 160.262 52.7371 161.718C52.472 163.263 51.618 164.325 50.8991 164.917L47.0869 160.283L43.2748 155.65C42.2616 156.484 41.2298 157.825 40.9099 159.689C40.6053 161.464 41.0803 162.946 41.5445 163.891C42.3659 165.562 43.7362 166.742 44.6023 167.427L48.3262 162.723ZM47.0869 160.283L49.5958 154.833C49.5656 154.819 49.5418 154.808 49.5233 154.799C49.5047 154.79 49.4933 154.784 49.488 154.782C49.4827 154.779 49.4855 154.78 49.4953 154.786C49.5049 154.791 49.5241 154.801 49.5511 154.817L46.5283 160L43.5056 165.183C43.9042 165.415 44.2903 165.601 44.578 165.733L47.0869 160.283ZM46.5283 160L51.1699 156.198C32.4329 133.324 24.6685 114.335 22.6011 98.7724C20.5405 83.2605 24.0587 70.5517 28.9654 60.0373L23.5283 57.5L18.0912 54.9627C12.4979 66.9483 8.26619 81.9895 10.7056 100.353C13.1381 118.665 22.1238 139.676 41.8868 163.802L46.5283 160ZM23.5283 57.5L28.9654 60.0373C38.2476 40.1471 62.7558 23 102.028 23V17V11C59.301 11 29.8091 29.8531 18.0912 54.9627L23.5283 57.5Z" fill="white" mask="url(#path-1-outside-1_1347_12573)"/>
<path d="M174.528 53.5C199.328 102.3 170.195 144.833 152.528 160C102.028 173 52.5283 163.5 46.528 160C8.02802 113 13.028 80 23.528 57.5C34.028 35 61.028 17 102.028 17C143.028 17 165.528 36.5 174.528 53.5Z" fill="#4B9AE8"/>
<path d="M162.019 75.5391C182.671 113.695 158.41 146.952 143.697 158.811C101.642 168.975 60.42 161.547 55.423 158.811C23.3611 122.062 27.525 96.2592 36.2692 78.6667C45.0133 61.0741 67.4983 47 101.642 47C135.786 47 154.524 62.2469 162.019 75.5391Z" fill="#F6F6F6"/>
<path d="M78 77C87.3889 77 95 67.8218 95 56.5C95 45.1782 87.3889 36 78 36C68.6112 36 61 45.1782 61 56.5C61 67.8218 68.6112 77 78 77Z" fill="white"/>
<ellipse cx="80.9431" cy="58.8428" rx="5.85714" ry="7.61428" fill="black"/>
<ellipse cx="82.6995" cy="60.6002" rx="1.75714" ry="2.34286" fill="white"/>
<path d="M123.152 77C113.763 77 106.152 67.8218 106.152 56.5C106.152 45.1782 113.763 36 123.152 36C132.541 36 140.152 45.1782 140.152 56.5C140.152 67.8218 132.541 77 123.152 77Z" fill="white"/>
<ellipse cx="5.85714" cy="7.61428" rx="5.85714" ry="7.61428" transform="matrix(-1 0 0 1 126.066 51.2285)" fill="black"/>
<ellipse cx="1.75714" cy="2.34286" rx="1.75714" ry="2.34286" transform="matrix(-1 0 0 1 120.21 58.2573)" fill="white"/>
<path d="M80.7847 88.0443C69.867 85.1329 47.4202 79.0481 44.9746 78" stroke="#BDC8CE" stroke-width="1.31013"/>
<path d="M81.2213 99.8354C67.9745 99.981 41.3062 100.272 40.6074 100.272M81.2213 112.5C69.2846 114.247 45.1492 117.915 44.1011 118.614" stroke="#BDC8CE" stroke-width="1.31013"/>
<path d="M117.032 88.0443C127.949 85.1329 150.396 79.0481 152.842 78" stroke="#BDC8CE" stroke-width="1.31013"/>
<path d="M116.595 99.8354C129.842 99.981 156.51 100.272 157.209 100.272M116.595 112.5C128.532 114.247 152.667 117.915 153.715 118.614" stroke="#BDC8CE" stroke-width="1.31013"/>
<circle cx="100.001" cy="77.9997" r="13.9997" fill="#EAC00F"/>
<ellipse cx="95.9999" cy="72.9999" rx="5.99987" ry="5.49988" fill="#FFF0AF"/>
<path d="M50.3377 111C49.0899 121.19 56.8261 141.57 97.7528 141.57C138.68 141.57 148.911 121.19 148.911 111" stroke="#276288" stroke-width="2.62025" stroke-linecap="round"/>
<path d="M48.3267 162.722C39.5003 155.736 70.9993 162.722 99 162.722C127.001 162.722 157.517 154.453 153.326 161.222C146.826 171.722 64.324 175.384 48.3267 162.722Z" fill="#DD4039"/>
<path d="M97.5156 156.5C103.482 156.5 108.545 160.371 110.329 165.738C111.099 165.699 111.835 166.443 112.011 167.472C112.186 168.496 111.744 169.437 111.012 169.661C111.014 169.774 111.016 169.887 111.016 170C111.016 177.456 104.971 183.5 97.5156 183.5C90.06 183.5 84.0156 177.456 84.0156 170C84.0156 169.885 84.0167 169.77 84.0195 169.656C83.2974 169.422 82.8643 168.488 83.0381 167.472C83.213 166.45 83.9395 165.709 84.7031 165.737C86.4877 160.371 91.5496 156.5 97.5156 156.5Z" fill="#FCD105"/>
<path d="M97.5166 178V182" stroke="#D77603" stroke-width="1.5" stroke-linecap="round"/>
<path d="M108.767 165.5C104.017 163 92.5258 161.878 85.7666 165.5" stroke="#D77603" stroke-width="1.5" stroke-linecap="round"/>
<path d="M110.267 169.5C105.017 167.5 92.6574 165.878 85.0166 169.5" stroke="#D77603" stroke-width="1.5" stroke-linecap="round"/>
<circle cx="97.5166" cy="174" r="4.5" fill="#D77603"/>
</svg>
