<svg width="200" height="200" viewBox="0 0 200 200" fill="none" xmlns="http://www.w3.org/2000/svg">
<mask id="path-1-outside-1_1347_14302" maskUnits="userSpaceOnUse" x="17.0352" y="18.0029" width="165" height="164" fill="black">
<rect fill="white" x="17.0352" y="18.0029" width="165" height="164"/>
<path d="M100.509 24.0029C142.307 24.0029 176 48.3216 176 78.2139C176 80.9454 175.071 83.4462 173.334 85.7188C173.85 86.5726 174.219 87.5352 174.478 88.6006C175.715 93.4674 175.742 98.7096 174.203 103.786C174.31 104.059 174.41 104.334 174.504 104.611C175.553 106.954 176 109.256 176 111.399C176 115.495 175.327 119.391 173.918 123.028C175.271 125.693 176 128.572 176 131.666C176 162.065 148.387 175.997 100.509 175.997C52.3774 175.997 25.0188 162.065 25.0186 131.666C25.0186 128.714 25.6792 125.957 26.915 123.396C26.2009 121.191 25.6856 118.865 25.374 116.416C25.1356 114.781 25.0186 113.108 25.0186 111.399C25.0186 111.329 25.0206 111.259 25.0215 111.188C25.0195 111.006 25.0186 110.823 25.0186 110.64C25.0305 108.558 25.3725 106.574 26.0146 104.688C23.0991 97.4622 23.5893 90.0133 26.2754 83.4805C25.4503 81.8315 25.0186 80.0763 25.0186 78.2139C25.0187 48.3217 58.7104 24.003 100.509 24.0029Z"/>
</mask>
<path d="M100.509 24.0029C142.307 24.0029 176 48.3216 176 78.2139C176 80.9454 175.071 83.4462 173.334 85.7188C173.85 86.5726 174.219 87.5352 174.478 88.6006C175.715 93.4674 175.742 98.7096 174.203 103.786C174.31 104.059 174.41 104.334 174.504 104.611C175.553 106.954 176 109.256 176 111.399C176 115.495 175.327 119.391 173.918 123.028C175.271 125.693 176 128.572 176 131.666C176 162.065 148.387 175.997 100.509 175.997C52.3774 175.997 25.0188 162.065 25.0186 131.666C25.0186 128.714 25.6792 125.957 26.915 123.396C26.2009 121.191 25.6856 118.865 25.374 116.416C25.1356 114.781 25.0186 113.108 25.0186 111.399C25.0186 111.329 25.0206 111.259 25.0215 111.188C25.0195 111.006 25.0186 110.823 25.0186 110.64C25.0305 108.558 25.3725 106.574 26.0146 104.688C23.0991 97.4622 23.5893 90.0133 26.2754 83.4805C25.4503 81.8315 25.0186 80.0763 25.0186 78.2139C25.0187 48.3217 58.7104 24.003 100.509 24.0029Z" fill="#7AB9F8"/>
<path d="M100.509 24.0029V18.0029H100.509L100.509 24.0029ZM176 78.2139H182V78.2138L176 78.2139ZM173.334 85.7188L168.567 82.0745C167.07 84.0334 166.923 86.7092 168.198 88.8201L173.334 85.7188ZM174.478 88.6006L168.646 90.0142C168.652 90.0358 168.657 90.0574 168.663 90.0789L174.478 88.6006ZM174.203 103.786L168.461 102.046C168.07 103.336 168.125 104.72 168.617 105.976L174.203 103.786ZM174.504 104.611L168.822 106.54C168.883 106.718 168.952 106.893 169.028 107.065L174.504 104.611ZM176 111.399H182V111.399L176 111.399ZM173.918 123.028L168.323 120.861C167.708 122.45 167.797 124.226 168.568 125.745L173.918 123.028ZM176 131.666L182 131.666V131.666H176ZM100.509 175.997L100.509 181.997H100.509V175.997ZM25.0186 131.666H19.0186V131.666L25.0186 131.666ZM26.915 123.396L32.3187 126.004C32.9899 124.613 33.099 123.017 32.6232 121.548L26.915 123.396ZM25.374 116.416L31.326 115.659C31.3214 115.622 31.3165 115.586 31.3112 115.55L25.374 116.416ZM25.0186 111.399L19.0186 111.399V111.399H25.0186ZM25.0215 111.188L31.021 111.267C31.0216 111.219 31.0217 111.171 31.0211 111.122L25.0215 111.188ZM25.0186 110.64L19.0187 110.605C19.0186 110.617 19.0186 110.628 19.0186 110.64L25.0186 110.64ZM26.0146 104.688L31.6945 106.621C32.1581 105.259 32.1171 103.776 31.5787 102.442L26.0146 104.688ZM26.2754 83.4805L31.8246 85.7621C32.4842 84.1579 32.4173 82.3468 31.6412 80.7956L26.2754 83.4805ZM25.0186 78.2139L19.0186 78.2138V78.2139H25.0186ZM100.509 24.0029V30.0029C120.294 30.0029 137.909 35.7673 150.425 44.7698C162.952 53.7792 170 65.689 170 78.2139L176 78.2139L182 78.2138C182 60.8465 172.202 45.6508 157.432 35.0279C142.653 24.3979 122.522 18.0029 100.509 18.0029V24.0029ZM176 78.2139H170C170 79.4761 169.603 80.7207 168.567 82.0745L173.334 85.7188L178.1 89.363C180.54 86.1716 182 82.4147 182 78.2139H176ZM173.334 85.7188L168.198 88.8201C168.335 89.048 168.501 89.4153 168.646 90.0142L174.478 88.6006L180.309 87.187C179.937 85.6552 179.364 84.0973 178.47 82.6174L173.334 85.7188ZM174.478 88.6006L168.663 90.0789C169.652 93.9728 169.658 98.0977 168.461 102.046L174.203 103.786L179.945 105.527C181.826 99.3214 181.777 92.9619 180.293 87.1222L174.478 88.6006ZM174.203 103.786L168.617 105.976C168.686 106.153 168.754 106.34 168.822 106.54L174.504 104.611L180.185 102.682C180.065 102.328 179.934 101.965 179.789 101.596L174.203 103.786ZM174.504 104.611L169.028 107.065C169.732 108.635 170 110.101 170 111.399L176 111.399L182 111.399C182 108.411 181.375 105.272 179.979 102.158L174.504 104.611ZM176 111.399H170C170 114.83 169.438 117.982 168.323 120.861L173.918 123.028L179.513 125.195C181.216 120.799 182 116.16 182 111.399H176ZM173.918 123.028L168.568 125.745C169.511 127.601 170 129.552 170 131.666H176H182C182 127.592 181.032 123.785 179.268 120.311L173.918 123.028ZM176 131.666L170 131.666C170 144.604 164.348 153.74 153.257 160.007C141.697 166.54 124.052 169.997 100.509 169.997V175.997V181.997C124.844 181.997 144.944 178.488 159.16 170.455C173.845 162.156 182 149.127 182 131.666L176 131.666ZM100.509 175.997L100.509 169.997C76.8331 169.997 59.194 166.538 47.6719 160.011C36.6267 153.754 31.0186 144.626 31.0186 131.666L25.0186 131.666L19.0186 131.666C19.0187 149.105 27.09 162.143 41.7571 170.452C55.9471 178.49 76.0531 181.997 100.509 181.997L100.509 175.997ZM25.0186 131.666H31.0186C31.0186 129.642 31.4643 127.775 32.3187 126.004L26.915 123.396L21.5114 120.789C19.894 124.14 19.0186 127.786 19.0186 131.666H25.0186ZM26.915 123.396L32.6232 121.548C32.03 119.716 31.5929 117.756 31.326 115.659L25.374 116.416L19.422 117.173C19.7782 119.973 20.3718 122.666 21.2068 125.245L26.915 123.396ZM25.374 116.416L31.3112 115.55C31.1168 114.217 31.0186 112.834 31.0186 111.399H25.0186H19.0186C19.0186 113.382 19.1544 115.346 19.4369 117.282L25.374 116.416ZM25.0186 111.399L31.0186 111.399C31.0186 111.418 31.0183 111.425 31.0187 111.399C31.0189 111.394 31.019 111.387 31.0191 111.379C31.0193 111.371 31.0195 111.36 31.0197 111.35C31.02 111.328 31.0205 111.299 31.021 111.267L25.0215 111.188L19.022 111.11C19.0218 111.128 19.0217 111.127 19.0206 111.189C19.0198 111.233 19.0186 111.311 19.0186 111.399L25.0186 111.399ZM25.0215 111.188L31.0211 111.122C31.0194 110.964 31.0186 110.803 31.0186 110.64L25.0186 110.64L19.0186 110.64C19.0186 110.843 19.0196 111.048 19.0218 111.255L25.0215 111.188ZM25.0186 110.64L31.0185 110.674C31.0267 109.239 31.2603 107.896 31.6945 106.621L26.0146 104.688L20.3348 102.754C19.4846 105.251 19.0342 107.877 19.0187 110.605L25.0186 110.64ZM26.0146 104.688L31.5787 102.442C29.3215 96.8485 29.657 91.0341 31.8246 85.7621L26.2754 83.4805L20.7262 81.1988C17.5217 88.9925 16.8767 98.076 20.4506 106.933L26.0146 104.688ZM26.2754 83.4805L31.6412 80.7956C31.2182 79.9504 31.0186 79.1115 31.0186 78.2139H25.0186H19.0186C19.0186 81.0412 19.6824 83.7127 20.9096 86.1653L26.2754 83.4805ZM25.0186 78.2139L31.0186 78.2139C31.0186 65.689 38.0667 53.7792 50.5928 44.7698C63.1091 35.7673 80.7232 30.003 100.509 30.0029L100.509 24.0029L100.509 18.0029C78.4959 18.003 58.365 24.398 43.5859 35.0279C28.8165 45.6509 19.0186 60.8466 19.0186 78.2138L25.0186 78.2139Z" fill="white" mask="url(#path-1-outside-1_1347_14302)"/>
<path d="M176 131.665C176 162.064 148.388 175.997 100.509 175.997C52.3776 175.997 25.0186 162.064 25.0186 131.665C25.0186 87.0803 176 87.0803 176 131.665Z" fill="#4B9AE8"/>
<path d="M175.493 110.639C175.493 141.038 148.134 154.971 100.256 154.971C52.631 154.971 25.0186 141.038 25.0186 110.639C25.2719 66.3077 175.493 66.3077 175.493 110.639Z" fill="#BA8443"/>
<path d="M25.0186 111.4C25.0186 98.7333 39.9647 81.2539 100.509 81.2539C161.054 81.2539 176 98.9866 176 111.4C176 134.452 154.721 151.172 100.509 151.172C46.2978 151.172 25.0186 134.452 25.0186 111.4Z" fill="#826046"/>
<path d="M26.5371 98.2267C26.5371 85.5605 41.2299 68.0811 100.508 68.0811C159.786 68.0811 174.479 85.8138 174.479 98.2267C174.479 121.279 153.706 137.999 100.508 137.999C47.3097 137.999 26.5371 121.279 26.5371 98.2267Z" fill="#68472C"/>
<path d="M27.042 81.7605C30.5886 74.1608 39.9616 73.6542 70.3606 86.5737C100.76 99.4933 106.586 106.333 103.039 114.186C96.453 128.119 78.467 138.505 51.1079 126.852C23.7488 115.199 20.2023 95.9467 27.042 81.7605Z" fill="#EF4D3C"/>
<path d="M29.5752 73.1473C33.1218 65.5475 42.4948 65.0409 72.8938 77.9604C103.293 90.88 109.119 97.7198 105.573 105.573C98.9862 119.506 81.0002 129.892 53.6411 118.239C26.282 106.586 22.7355 87.0801 29.5752 73.1473Z" fill="#D33B23"/>
<path d="M93.1608 106.333C91.1342 98.2265 98.2273 92.4 130.906 85.3069C163.585 78.2138 172.451 80.2404 174.478 88.6001C178.278 103.546 170.678 122.039 141.292 128.372C112.16 134.705 96.7073 121.279 93.1608 106.333Z" fill="#EF4D3C"/>
<path d="M89.8698 98.2264C87.8432 90.12 94.9363 84.2936 127.615 77.2005C160.294 70.1074 169.16 72.134 171.187 80.4937C174.987 95.4399 167.387 113.933 138.001 120.266C108.869 126.599 93.6697 113.173 89.8698 98.2264Z" fill="#D33B23"/>
<path d="M43.5088 97.2134L94.1737 145.852L143.825 97.2134H43.5088Z" fill="#EAC00F"/>
<path d="M172.704 84.5469C172.704 84.5469 174.984 93.1599 172.704 95.6932C170.678 97.9731 164.344 95.4398 161.558 97.4664C159.025 99.2397 159.785 106.079 156.745 107.599C153.958 109.119 148.638 104.813 145.598 106.079C142.812 107.093 141.798 113.933 138.759 114.946C135.719 115.706 131.159 110.639 128.119 111.146C125.079 111.653 123.052 118.239 119.759 118.746C116.719 119.252 112.919 113.426 109.626 113.679C106.586 113.933 103.546 120.012 100.253 120.012C96.96 120.012 94.1734 113.679 90.8802 113.679C87.587 113.426 84.0404 119.252 80.7472 118.746C77.454 118.239 75.4274 111.906 72.3875 111.146C69.0943 110.386 64.7878 115.706 61.7479 114.946C58.708 113.933 57.6947 107.346 54.9081 106.079C51.8682 104.813 46.2951 109.119 43.7618 107.599C40.7219 106.079 41.4819 99.2397 38.9486 97.4664C36.1621 95.4398 29.829 97.9731 27.8024 95.6932C25.5224 93.1599 27.8024 84.5469 27.8024 84.5469H172.704Z" fill="#6DD627"/>
<path d="M176 78.2139C176 94.68 142.308 102.786 100.509 102.786C58.7108 102.786 25.0186 94.68 25.0186 78.2139C25.0186 48.3216 58.7108 24.0024 100.509 24.0024C142.308 24.0024 176 48.3216 176 78.2139Z" fill="#4B9AE8"/>
<path d="M112.927 80.6649C112.281 85.7358 106.772 93.9574 101.054 93.9998C95.3365 94.0423 89.2955 85.7039 89.0138 80.2405C88.7321 74.7877 92.749 71.0535 101.284 71.0004C109.912 70.9474 113.574 75.594 112.927 80.6649Z" fill="#EAC00F"/>
<path d="M63.5 87.3589C69.8513 87.3589 75 82.2102 75 75.8589C75 69.5076 69.8513 64.3589 63.5 64.3589C57.1487 64.3589 52 69.5076 52 75.8589C52 82.2102 57.1487 87.3589 63.5 87.3589Z" fill="white"/>
<path d="M63.4999 81.9886C66.8853 81.9886 69.6298 79.2442 69.6298 75.8588C69.6298 72.4734 66.8853 69.729 63.4999 69.729C60.1145 69.729 57.3701 72.4734 57.3701 75.8588C57.3701 79.2442 60.1145 81.9886 63.4999 81.9886Z" fill="#040000"/>
<path d="M138.5 88C144.851 88 150 82.8513 150 76.5C150 70.1487 144.851 65 138.5 65C132.149 65 127 70.1487 127 76.5C127 82.8513 132.149 88 138.5 88Z" fill="white"/>
<path d="M138.5 82.6298C141.885 82.6298 144.63 79.8853 144.63 76.4999C144.63 73.1145 141.885 70.3701 138.5 70.3701C135.115 70.3701 132.37 73.1145 132.37 76.4999C132.37 79.8853 135.115 82.6298 138.5 82.6298Z" fill="#040000"/>
<path d="M78.976 43.7999L75.1761 47.5997L71.3763 43.7999L75.1761 40L78.976 43.7999ZM166.12 59.7593L163.586 62.2926L161.053 59.7593L163.586 57.2261L166.12 59.7593ZM114.188 48.8664L110.388 52.6662L106.588 48.8664L110.388 45.0665L114.188 48.8664ZM139.521 50.6396L135.721 54.4395L131.668 50.6396L135.721 46.8398L139.521 50.6396ZM50.6036 60.7726L46.8038 64.5725L43.0039 60.7726L46.8038 56.9728L50.6036 60.7726Z" fill="#7AB9F8"/>
</svg>
