<svg width="200" height="200" viewBox="0 0 200 200" fill="none" xmlns="http://www.w3.org/2000/svg">
<mask id="path-1-outside-1_898_1592" maskUnits="userSpaceOnUse" x="9.50024" y="16.9999" width="180" height="176" fill="black">
<rect fill="white" x="9.50024" y="16.9999" width="180" height="176"/>
<path d="M93.8942 162.164C95.6782 157.704 101.981 157.704 103.765 162.164L110.425 178.636C111.853 182.204 109.236 186.069 105.371 186.128H92.2888C88.4236 186.128 85.8069 182.204 87.2341 178.636L93.8942 162.164ZM84.5261 31.8741C89.3962 21.3751 104.183 21.3752 109.053 31.8741L119.322 53.9932C121.259 58.122 125.073 61.0124 129.532 61.6612L153.648 65.377C164.562 67.0286 168.962 80.4173 161.335 88.3213L142.968 107.255C139.976 110.322 138.627 114.687 139.331 118.934L143.555 144.945C145.374 156.153 133.521 164.529 123.605 159.043L103.362 147.777C99.2542 145.477 94.3253 145.477 90.2175 147.777L69.9743 159.043C60.058 164.528 48.2051 156.153 50.0241 144.945L54.2487 118.934C54.9528 114.687 53.6035 110.322 50.611 107.255L32.2448 88.3213C24.5585 80.3585 29.0178 67.0288 39.9314 65.377L64.0476 61.6612C68.5069 60.9534 72.3213 58.0631 74.2575 53.9932L84.5261 31.8741ZM176.927 113.214C180.958 112.911 183.997 116.725 182.695 120.479L178.478 133.132C177.238 136.885 172.525 138.218 169.424 135.675L155.223 124.051C151.441 120.903 153.487 114.849 158.448 114.485L176.927 113.214ZM22.3581 113.213L40.0788 114.462C44.8359 114.759 46.7985 120.765 43.112 123.857L29.4939 135.274C26.5801 137.772 22.0016 136.464 20.8122 132.777L16.7692 120.349C15.5802 116.662 18.4932 112.916 22.3581 113.213ZM53.1335 25.0391C56.2851 22.7796 60.685 24.3847 61.6364 28.1309L65.9177 45.376C67.0471 50.0735 61.9338 53.76 57.8903 51.2032L42.8454 41.8077C39.5752 39.7858 39.3971 35.0885 42.5485 32.71L53.1335 25.0391ZM133.939 28.1124C134.891 24.3661 139.29 22.7601 142.442 25.0792L153.027 32.7501C156.179 35.0097 156 39.7674 152.729 41.7891L137.626 51.1837C133.582 53.7406 128.468 49.9947 129.657 45.3565L133.939 28.1124Z"/>
</mask>
<path d="M93.8942 162.164C95.6782 157.704 101.981 157.704 103.765 162.164L110.425 178.636C111.853 182.204 109.236 186.069 105.371 186.128H92.2888C88.4236 186.128 85.8069 182.204 87.2341 178.636L93.8942 162.164ZM84.5261 31.8741C89.3962 21.3751 104.183 21.3752 109.053 31.8741L119.322 53.9932C121.259 58.122 125.073 61.0124 129.532 61.6612L153.648 65.377C164.562 67.0286 168.962 80.4173 161.335 88.3213L142.968 107.255C139.976 110.322 138.627 114.687 139.331 118.934L143.555 144.945C145.374 156.153 133.521 164.529 123.605 159.043L103.362 147.777C99.2542 145.477 94.3253 145.477 90.2175 147.777L69.9743 159.043C60.058 164.528 48.2051 156.153 50.0241 144.945L54.2487 118.934C54.9528 114.687 53.6035 110.322 50.611 107.255L32.2448 88.3213C24.5585 80.3585 29.0178 67.0288 39.9314 65.377L64.0476 61.6612C68.5069 60.9534 72.3213 58.0631 74.2575 53.9932L84.5261 31.8741ZM176.927 113.214C180.958 112.911 183.997 116.725 182.695 120.479L178.478 133.132C177.238 136.885 172.525 138.218 169.424 135.675L155.223 124.051C151.441 120.903 153.487 114.849 158.448 114.485L176.927 113.214ZM22.3581 113.213L40.0788 114.462C44.8359 114.759 46.7985 120.765 43.112 123.857L29.4939 135.274C26.5801 137.772 22.0016 136.464 20.8122 132.777L16.7692 120.349C15.5802 116.662 18.4932 112.916 22.3581 113.213ZM53.1335 25.0391C56.2851 22.7796 60.685 24.3847 61.6364 28.1309L65.9177 45.376C67.0471 50.0735 61.9338 53.76 57.8903 51.2032L42.8454 41.8077C39.5752 39.7858 39.3971 35.0885 42.5485 32.71L53.1335 25.0391ZM133.939 28.1124C134.891 24.3661 139.29 22.7601 142.442 25.0792L153.027 32.7501C156.179 35.0097 156 39.7674 152.729 41.7891L137.626 51.1837C133.582 53.7406 128.468 49.9947 129.657 45.3565L133.939 28.1124Z" fill="black"/>
<path d="M93.8942 162.164L99.4567 164.413C99.4595 164.406 99.4623 164.399 99.465 164.393L93.8942 162.164ZM103.765 162.164L98.1945 164.393C98.1973 164.399 98.2001 164.406 98.2028 164.413L103.765 162.164ZM110.425 178.636L115.996 176.407C115.994 176.401 115.991 176.394 115.988 176.387L110.425 178.636ZM105.371 186.128V192.128C105.402 192.128 105.432 192.128 105.463 192.127L105.371 186.128ZM87.2341 178.636L81.6716 176.387C81.6688 176.394 81.666 176.401 81.6632 176.407L87.2341 178.636ZM84.5261 31.8741L89.9682 34.4005L89.969 34.3989L84.5261 31.8741ZM109.053 31.8741L103.611 34.3989L103.611 34.4005L109.053 31.8741ZM119.322 53.9932L113.88 56.5197C113.883 56.5269 113.887 56.5342 113.89 56.5414L119.322 53.9932ZM129.532 61.6612L130.446 55.7312C130.429 55.7286 130.412 55.7261 130.396 55.7237L129.532 61.6612ZM153.648 65.377L152.734 71.307C152.74 71.3079 152.745 71.3087 152.75 71.3095L153.648 65.377ZM161.335 88.3213L165.641 92.499C165.645 92.4953 165.649 92.4916 165.652 92.4879L161.335 88.3213ZM142.968 107.255L147.263 111.445C147.267 111.441 147.271 111.437 147.275 111.433L142.968 107.255ZM139.331 118.934L145.253 117.972C145.252 117.965 145.251 117.959 145.25 117.952L139.331 118.934ZM143.555 144.945L149.478 143.984L149.478 143.984L143.555 144.945ZM123.605 159.043L120.687 164.286C120.692 164.288 120.696 164.291 120.701 164.293L123.605 159.043ZM103.362 147.777L100.43 153.012C100.435 153.015 100.44 153.018 100.444 153.02L103.362 147.777ZM90.2175 147.777L93.1352 153.02C93.1399 153.018 93.1447 153.015 93.1494 153.012L90.2175 147.777ZM69.9743 159.043L72.8786 164.293C72.8831 164.291 72.8876 164.288 72.892 164.286L69.9743 159.043ZM50.0241 144.945L44.1017 143.984L44.1016 143.984L50.0241 144.945ZM54.2487 118.934L48.3295 117.952C48.3284 117.959 48.3274 117.965 48.3263 117.972L54.2487 118.934ZM50.611 107.255L46.3044 111.433C46.3084 111.437 46.3124 111.441 46.3165 111.445L50.611 107.255ZM32.2448 88.3213L27.9279 92.4884C27.9313 92.4919 27.9347 92.4954 27.9382 92.499L32.2448 88.3213ZM39.9314 65.377L40.8292 71.3094C40.8345 71.3087 40.8398 71.3078 40.8451 71.307L39.9314 65.377ZM64.0476 61.6612L64.9613 67.5912C64.9702 67.5898 64.9792 67.5884 64.9881 67.587L64.0476 61.6612ZM74.2575 53.9932L79.6756 56.5708C79.6837 56.5538 79.6917 56.5368 79.6997 56.5197L74.2575 53.9932ZM176.927 113.214L177.339 119.2C177.352 119.199 177.364 119.198 177.377 119.197L176.927 113.214ZM182.695 120.479L177.026 118.513C177.018 118.536 177.01 118.559 177.003 118.582L182.695 120.479ZM178.478 133.132L172.786 131.235C172.784 131.24 172.783 131.244 172.781 131.249L178.478 133.132ZM169.424 135.675L173.228 131.035L173.224 131.032L169.424 135.675ZM155.223 124.051L151.385 128.663C151.398 128.673 151.41 128.683 151.423 128.694L155.223 124.051ZM158.448 114.485L158.036 108.5C158.027 108.5 158.018 108.501 158.01 108.501L158.448 114.485ZM22.3581 113.213L21.8984 119.195C21.911 119.196 21.9236 119.197 21.9363 119.198L22.3581 113.213ZM40.0788 114.462L39.657 120.447C39.6728 120.448 39.6887 120.449 39.7045 120.45L40.0788 114.462ZM43.112 123.857L46.9668 128.455L46.9679 128.454L43.112 123.857ZM29.4939 135.274L25.6391 130.677C25.6224 130.691 25.6058 130.705 25.5893 130.719L29.4939 135.274ZM20.8122 132.777L26.5224 130.935C26.5209 130.931 26.5194 130.926 26.5179 130.921L20.8122 132.777ZM16.7692 120.349L11.0589 122.19C11.0605 122.195 11.062 122.2 11.0635 122.205L16.7692 120.349ZM53.1335 25.0391L49.6375 20.1629C49.6292 20.1688 49.6209 20.1748 49.6127 20.1808L53.1335 25.0391ZM61.6364 28.1309L67.4597 26.6853C67.4571 26.6748 67.4545 26.6644 67.4518 26.654L61.6364 28.1309ZM65.9177 45.376L71.7514 43.9734C71.748 43.9591 71.7445 43.9447 71.7409 43.9304L65.9177 45.376ZM57.8903 51.2032L61.097 46.132C61.0875 46.126 61.078 46.12 61.0685 46.114L57.8903 51.2032ZM42.8454 41.8077L46.0236 36.7185C46.0159 36.7138 46.0083 36.709 46.0006 36.7043L42.8454 41.8077ZM42.5485 32.71L39.0277 27.8517C38.9963 27.8744 38.965 27.8975 38.934 27.9209L42.5485 32.71ZM133.939 28.1124L128.124 26.6354C128.121 26.6457 128.119 26.656 128.116 26.6663L133.939 28.1124ZM142.442 25.0792L138.886 29.9118C138.898 29.9204 138.909 29.929 138.921 29.9375L142.442 25.0792ZM153.027 32.7501L149.506 37.6084C149.514 37.6144 149.523 37.6203 149.531 37.6262L153.027 32.7501ZM152.729 41.7891L149.574 36.6856C149.57 36.6885 149.565 36.6914 149.56 36.6943L152.729 41.7891ZM137.626 51.1837L134.457 46.0888C134.444 46.0967 134.431 46.1046 134.419 46.1125L137.626 51.1837ZM129.657 45.3565L135.469 46.8468C135.473 46.832 135.476 46.8173 135.48 46.8026L129.657 45.3565ZM93.8942 162.164L99.465 164.393C99.442 164.45 99.3489 164.596 99.1763 164.707C99.033 164.799 98.9101 164.819 98.8298 164.819C98.7495 164.819 98.6266 164.799 98.4833 164.707C98.3107 164.596 98.2176 164.45 98.1945 164.393L103.765 162.164L109.336 159.936C105.541 150.447 92.119 150.447 88.3234 159.936L93.8942 162.164ZM103.765 162.164L98.2028 164.413L104.863 180.885L110.425 178.636L115.988 176.387L109.328 159.915L103.765 162.164ZM110.425 178.636L104.855 180.864C104.831 180.805 104.811 180.699 104.825 180.58C104.838 180.474 104.874 180.394 104.911 180.339C104.948 180.284 105.001 180.232 105.075 180.191C105.159 180.144 105.239 180.129 105.279 180.129L105.371 186.128L105.463 192.127C113.44 192.005 119.02 183.966 115.996 176.407L110.425 178.636ZM105.371 186.128V180.128H92.2888V186.128V192.128H105.371V186.128ZM92.2888 186.128V180.128C92.3573 180.128 92.4653 180.15 92.5699 180.208C92.6627 180.259 92.7212 180.32 92.7569 180.373C92.7924 180.426 92.8236 180.498 92.835 180.592C92.8479 180.699 92.8304 180.8 92.8049 180.864L87.2341 178.636L81.6632 176.407C78.6781 183.87 84.129 192.128 92.2888 192.128V186.128ZM87.2341 178.636L92.7966 180.885L99.4567 164.413L93.8942 162.164L88.3317 159.915L81.6716 176.387L87.2341 178.636ZM84.5261 31.8741L89.969 34.3989C92.6897 28.5336 100.89 28.5335 103.611 34.3989L109.053 31.8741L114.496 29.3492C107.477 14.2169 86.1027 14.2166 79.0832 29.3493L84.5261 31.8741ZM109.053 31.8741L103.611 34.4005L113.88 56.5197L119.322 53.9932L124.764 51.4668L114.496 29.3476L109.053 31.8741ZM119.322 53.9932L113.89 56.5414C116.656 62.4377 122.151 66.6504 128.668 67.5987L129.532 61.6612L130.396 55.7237C127.995 55.3744 125.862 53.8062 124.754 51.4451L119.322 53.9932ZM129.532 61.6612L128.618 67.5912L152.734 71.307L153.648 65.377L154.562 59.447L130.446 55.7312L129.532 61.6612ZM153.648 65.377L152.75 71.3095C158.755 72.2181 161.326 79.6898 157.017 84.1548L161.335 88.3213L165.652 92.4879C176.599 81.1449 170.369 61.8391 154.546 59.4446L153.648 65.377ZM161.335 88.3213L157.028 84.1437L138.662 103.077L142.968 107.255L147.275 111.433L165.641 92.499L161.335 88.3213ZM142.968 107.255L138.674 103.065C134.328 107.518 132.4 113.811 133.412 119.915L139.331 118.934L145.25 117.952C144.854 115.563 145.623 113.126 147.263 111.445L142.968 107.255ZM139.331 118.934L133.408 119.896L137.633 145.907L143.555 144.945L149.478 143.984L145.253 117.972L139.331 118.934ZM143.555 144.945L137.633 145.907C138.655 152.207 132.013 156.837 126.51 153.793L123.605 159.043L120.701 164.293C135.03 172.22 152.093 160.098 149.478 143.984L143.555 144.945ZM123.605 159.043L126.523 153.8L106.28 142.535L103.362 147.777L100.444 153.02L120.687 164.286L123.605 159.043ZM103.362 147.777L106.294 142.543C100.365 139.222 93.2149 139.222 87.2856 142.543L90.2175 147.777L93.1494 153.012C95.4357 151.732 98.1438 151.732 100.43 153.012L103.362 147.777ZM90.2175 147.777L87.2998 142.535L67.0566 153.8L69.9743 159.043L72.892 164.286L93.1352 153.02L90.2175 147.777ZM69.9743 159.043L67.07 153.793C61.5666 156.837 54.9241 152.207 55.9466 145.907L50.0241 144.945L44.1016 143.984C41.4862 160.098 58.5494 172.22 72.8786 164.293L69.9743 159.043ZM50.0241 144.945L55.9465 145.907L60.1711 119.896L54.2487 118.934L48.3263 117.972L44.1017 143.984L50.0241 144.945ZM54.2487 118.934L60.168 119.915C61.1799 113.811 59.2507 107.518 54.9056 103.065L50.611 107.255L46.3165 111.445C47.9563 113.126 48.7257 115.563 48.3295 117.952L54.2487 118.934ZM50.611 107.255L54.9177 103.077L36.5515 84.1437L32.2448 88.3213L27.9382 92.499L46.3044 111.433L50.611 107.255ZM32.2448 88.3213L36.5618 84.1543C32.2193 79.6556 34.7908 72.2234 40.8292 71.3094L39.9314 65.377L39.0335 59.4446C23.2448 61.8342 16.8977 81.0614 27.9279 92.4884L32.2448 88.3213ZM39.9314 65.377L40.8451 71.307L64.9613 67.5912L64.0476 61.6612L63.1339 55.7312L39.0177 59.447L39.9314 65.377ZM64.0476 61.6612L64.9881 67.587C71.4294 66.5646 76.9026 62.3998 79.6756 56.5708L74.2575 53.9932L68.8394 51.4156C67.7401 53.7263 65.5843 55.3422 63.107 55.7354L64.0476 61.6612ZM74.2575 53.9932L79.6997 56.5197L89.9682 34.4005L84.5261 31.8741L79.0839 29.3476L68.8154 51.4668L74.2575 53.9932ZM176.927 113.214L177.377 119.197C177.381 119.197 177.367 119.198 177.339 119.193C177.312 119.188 177.282 119.179 177.253 119.166C177.196 119.141 177.15 119.104 177.114 119.059C177.078 119.013 177.034 118.936 177.012 118.821C176.988 118.692 177.005 118.575 177.026 118.513L182.695 120.479L188.364 122.445C191.155 114.396 184.585 106.622 176.478 107.231L176.927 113.214ZM182.695 120.479L177.003 118.582L172.786 131.235L178.478 133.132L184.17 135.029L188.387 122.376L182.695 120.479ZM178.478 133.132L172.781 131.249C172.799 131.194 172.845 131.118 172.909 131.059C172.963 131.01 173.005 130.994 173.023 130.989C173.041 130.984 173.07 130.979 173.114 130.988C173.138 130.992 173.163 131 173.187 131.012C173.199 131.017 173.209 131.022 173.216 131.027C173.22 131.029 173.223 131.031 173.225 131.033C173.227 131.034 173.228 131.035 173.228 131.035L169.424 135.675L165.619 140.315C171.889 145.455 181.578 142.875 184.175 135.015L178.478 133.132ZM169.424 135.675L173.224 131.032L159.024 119.408L155.223 124.051L151.423 128.694L165.623 140.318L169.424 135.675ZM155.223 124.051L159.062 119.439C159.059 119.437 159.095 119.467 159.14 119.539C159.184 119.608 159.22 119.691 159.243 119.778C159.287 119.947 159.265 120.073 159.242 120.142C159.218 120.212 159.171 120.292 159.08 120.366C158.965 120.459 158.865 120.471 158.886 120.469L158.448 114.485L158.01 108.501C147.984 109.236 143.209 121.858 151.385 128.663L155.223 124.051ZM158.448 114.485L158.86 120.471L177.339 119.2L176.927 113.214L176.516 107.228L158.036 108.5L158.448 114.485ZM22.3581 113.213L21.9363 119.198L39.657 120.447L40.0788 114.462L40.5007 108.477L22.78 107.228L22.3581 113.213ZM40.0788 114.462L39.7045 120.45C39.618 120.445 39.4351 120.393 39.2701 120.257C39.1331 120.145 39.0773 120.033 39.0545 119.963C39.0316 119.892 39.0138 119.777 39.0545 119.62C39.1041 119.429 39.2101 119.299 39.2561 119.261L43.112 123.857L46.9679 128.454C54.7378 121.937 50.7059 109.114 40.4531 108.474L40.0788 114.462ZM43.112 123.857L39.2573 119.26L25.6391 130.677L29.4939 135.274L33.3486 139.872L46.9668 128.455L43.112 123.857ZM29.4939 135.274L25.5893 130.719C25.6623 130.656 25.7766 130.597 25.9022 130.572C26.0138 130.55 26.1007 130.56 26.1612 130.578C26.2219 130.595 26.293 130.63 26.3648 130.697C26.4465 130.774 26.5003 130.867 26.5224 130.935L20.8122 132.777L15.102 134.62C17.5879 142.325 27.1827 145.158 33.3984 139.83L29.4939 135.274ZM20.8122 132.777L26.5179 130.921L22.475 118.493L16.7692 120.349L11.0635 122.205L15.1065 134.633L20.8122 132.777ZM16.7692 120.349L22.4796 118.507C22.4987 118.566 22.5096 118.665 22.4895 118.769C22.4718 118.861 22.436 118.93 22.3965 118.981C22.3568 119.032 22.293 119.09 22.1943 119.135C22.083 119.186 21.9702 119.201 21.8984 119.195L22.3581 113.213L22.8178 107.231C14.6351 106.602 8.58032 114.506 11.0589 122.19L16.7692 120.349ZM53.1335 25.0391L56.6295 29.9154C56.3571 30.1107 55.9132 29.9707 55.821 29.6078L61.6364 28.1309L67.4518 26.654C65.4568 18.7987 56.2132 15.4485 49.6375 20.1629L53.1335 25.0391ZM61.6364 28.1309L55.8132 29.5766L60.0944 46.8217L65.9177 45.376L71.7409 43.9304L67.4597 26.6853L61.6364 28.1309ZM65.9177 45.376L60.0839 46.7787C60.0839 46.7787 60.0837 46.7778 60.0834 46.7761C60.083 46.7743 60.0825 46.7717 60.082 46.7684C60.0809 46.7616 60.0796 46.7521 60.0786 46.7399C60.0766 46.7151 60.0759 46.683 60.0786 46.6452C60.0843 46.567 60.1029 46.4869 60.1321 46.4133C60.1882 46.272 60.2661 46.1928 60.3253 46.15C60.3841 46.1074 60.4924 46.0518 60.6636 46.0419C60.8698 46.03 61.0365 46.0937 61.097 46.132L57.8903 51.2032L54.6836 56.2744C63.3737 61.7694 74.1144 53.8012 71.7514 43.9734L65.9177 45.376ZM57.8903 51.2032L61.0685 46.114L46.0236 36.7185L42.8454 41.8077L39.6673 46.8968L54.7122 56.2923L57.8903 51.2032ZM42.8454 41.8077L46.0006 36.7043C46.0627 36.7426 46.1473 36.822 46.2092 36.9324C46.2649 37.0317 46.283 37.1205 46.2853 37.1861C46.2876 37.252 46.2749 37.3186 46.2451 37.3827C46.2298 37.4156 46.2114 37.4444 46.1928 37.4675C46.1737 37.4912 46.1607 37.5008 46.163 37.4991L42.5485 32.71L38.934 27.9209C32.5508 32.7386 32.6875 42.5815 39.6902 46.9111L42.8454 41.8077ZM42.5485 32.71L46.0694 37.5684L56.6543 29.8975L53.1335 25.0391L49.6127 20.1808L39.0277 27.8517L42.5485 32.71ZM133.939 28.1124L139.755 29.5893C139.742 29.6398 139.701 29.7301 139.622 29.8152C139.551 29.8916 139.472 29.94 139.396 29.9674C139.319 29.995 139.225 30.0087 139.118 29.9945C139 29.9785 138.916 29.9339 138.886 29.9118L142.442 25.0792L145.998 20.2465C139.402 15.3928 130.119 18.7803 128.124 26.6354L133.939 28.1124ZM142.442 25.0792L138.921 29.9375L149.506 37.6084L153.027 32.7501L156.548 27.8917L145.963 20.2208L142.442 25.0792ZM153.027 32.7501L149.531 37.6262C149.47 37.5828 149.394 37.4994 149.344 37.3919C149.299 37.297 149.288 37.2147 149.29 37.1516C149.292 37.0888 149.309 37.0082 149.36 36.9169C149.417 36.8136 149.501 36.7308 149.574 36.6856L152.729 41.7891L155.884 46.8927C162.793 42.6219 163.159 32.6318 156.523 27.874L153.027 32.7501ZM152.729 41.7891L149.56 36.6943L134.457 46.0888L137.626 51.1837L140.795 56.2785L155.898 46.8839L152.729 41.7891ZM137.626 51.1837L134.419 46.1125C134.49 46.0676 134.668 46.0025 134.88 46.0157C135.056 46.0267 135.165 46.0841 135.222 46.1261C135.279 46.1681 135.362 46.2505 135.422 46.405C135.496 46.5929 135.488 46.7716 135.469 46.8468L129.657 45.3565L123.845 43.8663C121.321 53.7082 132.149 61.7461 140.832 56.2548L137.626 51.1837ZM129.657 45.3565L135.48 46.8026L139.762 29.5584L133.939 28.1124L128.116 26.6663L123.834 43.9104L129.657 45.3565Z" fill="white" mask="url(#path-1-outside-1_898_1592)"/>
<path d="M176.928 113.214L158.448 114.485C153.487 114.848 151.441 120.902 155.223 124.05L169.424 135.674C172.525 138.217 177.238 136.885 178.478 133.132L182.695 120.479C183.997 116.725 180.958 112.911 176.928 113.214Z" fill="#FAD122"/>
<path d="M133.939 28.1119L129.657 45.3566C128.468 49.9949 133.582 53.7411 137.625 51.1841L152.729 41.7888C156 39.767 156.178 35.0097 153.027 32.7501L142.442 25.0792C139.29 22.7601 134.89 24.3656 133.939 28.1119Z" fill="#FAD122"/>
<path d="M42.8457 41.8077L57.8902 51.2031C61.9338 53.7601 67.0474 50.0733 65.9176 45.3756L61.6365 28.1308C60.6851 24.3845 56.2846 22.7791 53.133 25.0387L42.5483 32.7096C39.3967 35.0882 39.5752 39.7859 42.8457 41.8077Z" fill="#FAD122"/>
<path d="M29.4942 135.275L43.1116 123.857C46.7984 120.765 44.836 114.759 40.0789 114.462L22.3585 113.213C18.4933 112.916 15.5795 116.662 16.7688 120.349L20.8124 132.777C22.0017 136.464 26.5804 137.772 29.4942 135.275Z" fill="#FAD122"/>
<path d="M110.425 178.636L103.765 162.164C101.981 157.704 95.6781 157.704 93.8941 162.164L87.2341 178.636C85.8069 182.204 88.4234 186.128 92.2886 186.128H105.371C109.236 186.069 111.852 182.204 110.425 178.636Z" fill="#FAD122"/>
<path d="M109.053 31.8743L119.322 53.9931C121.258 58.122 125.072 61.0121 129.532 61.661L153.648 65.3769C164.562 67.0285 168.963 80.4176 161.334 88.3216L142.969 107.255C139.976 110.322 138.627 114.687 139.331 118.934L143.556 144.945C145.375 156.153 133.522 164.528 123.605 159.043L103.362 147.777C99.2541 145.476 94.3256 145.476 90.2178 147.777L69.9743 159.043C60.058 164.528 48.2051 156.153 50.0242 144.945L54.2489 118.934C54.953 114.687 53.6034 110.322 50.6109 107.255L32.245 88.3216C24.5582 80.3587 29.0177 67.0285 39.9317 65.3769L64.048 61.661C68.5073 60.9532 72.3214 58.063 74.2576 53.9931L84.5265 31.8743C89.3966 21.3752 104.183 21.3752 109.053 31.8743Z" fill="#6AA6E0"/>
<path d="M108.601 92.0241C107.861 97.2925 100.666 104.583 95.4095 103.843C90.1412 103.103 85.2618 94.0927 86.014 88.8252C86.7662 83.5577 90.8096 79.7764 98.6581 80.8891C106.602 82.0084 109.353 86.7566 108.601 92.0241Z" fill="#EAC00F"/>
<path d="M55 94C61.0751 94 66 89.0751 66 83C66 76.9249 61.0751 72 55 72C48.9249 72 44 76.9249 44 83C44 89.0751 48.9249 94 55 94Z" fill="white"/>
<path d="M54.9539 89.04C58.315 89.04 61.0397 86.3154 61.0397 82.9543C61.0397 79.5932 58.315 76.8685 54.9539 76.8685C51.5928 76.8685 48.8682 79.5932 48.8682 82.9543C48.8682 86.3154 51.5928 89.04 54.9539 89.04Z" fill="black"/>
<path d="M140 94C146.075 94 151 89.0751 151 83C151 76.9249 146.075 72 140 72C133.925 72 129 76.9249 129 83C129 89.0751 133.925 94 140 94Z" fill="white"/>
<path d="M139.954 89.04C143.315 89.04 146.04 86.3154 146.04 82.9543C146.04 79.5932 143.315 76.8685 139.954 76.8685C136.593 76.8685 133.868 79.5932 133.868 82.9543C133.868 86.3154 136.593 89.04 139.954 89.04Z" fill="black"/>
</svg>
