<svg width="200" height="200" viewBox="0 0 200 200" fill="none" xmlns="http://www.w3.org/2000/svg">
<mask id="path-1-outside-1_1062_16075" maskUnits="userSpaceOnUse" x="10.3545" y="14" width="165" height="181" fill="black">
<rect fill="white" x="10.3545" y="14" width="165" height="181"/>
<path d="M101.75 20C119.914 20 135.41 31.9501 141.512 49.7705C141.773 50.1857 141.945 50.5655 142.003 50.8828C142.038 51.0754 142.057 51.2689 142.062 51.4609C143.038 54.6833 143.709 58.0844 144.044 61.6299C148.241 65.4127 151.384 70.9423 151.286 73.5723C151.189 76.2004 149.68 78.553 147.523 79.957C159.995 90.4532 168.49 105.211 168.49 121.29H168.46C168.46 132.67 164.64 142.8 158.05 151.11C151.197 159.753 141.35 166.437 129.687 170.538L131.795 177.903L139.466 179.733C140.237 180.036 140.618 180.907 140.317 181.678C140.014 182.449 139.143 182.829 138.372 182.527L132.649 181.161L134.107 186.914C134.31 187.717 133.824 188.533 133.022 188.736C132.219 188.94 131.402 188.454 131.198 187.651L129.648 181.53L125.011 184.507C124.314 184.954 123.386 184.751 122.939 184.055C122.491 183.358 122.694 182.43 123.391 181.982L128.841 178.483L126.835 171.479C119.713 173.672 111.979 174.932 103.88 175.12C103.17 175.14 102.45 175.15 101.731 175.15C101.011 175.15 100.29 175.15 99.5802 175.12C93.0672 174.969 86.79 174.124 80.8771 172.659L79.0675 177.145L84.1866 184.796C84.6472 185.484 84.4628 186.416 83.7745 186.877C83.0862 187.337 82.1541 187.153 81.6935 186.465L77.4318 180.096L72.4581 188.167C72.0235 188.872 71.0988 189.091 70.3937 188.657C69.6889 188.223 69.4694 187.299 69.9034 186.594L74.1779 179.656L66.8605 181.467L66.7091 181.496C65.9568 181.603 65.2305 181.124 65.0441 180.37C64.8454 179.566 65.3361 178.753 66.1398 178.554L76.2755 176.048L77.9581 171.876C64.4644 167.982 53.0689 160.772 45.4103 151.12C45.4103 151.12 45.4103 151.12 45.4103 151.11C39.0168 143.048 35.231 133.273 35.0109 122.305C30.3515 121.447 26.0157 119.776 22.1818 117.806C13.1068 113.144 14.9485 100.462 25.5011 94.7793L25.5079 94.7832L56.9796 77.8379C57.7002 77.4499 58.4293 77.1236 59.1603 76.8594C59.1638 76.2168 59.2003 69.6255 59.2003 66.8398C59.2003 65.2904 59.2666 63.764 59.3907 62.2627C57.9921 61.1973 57.1765 59.4101 57.4962 57.6484C57.6974 56.5409 59.0772 54.7687 60.9259 53.2529C66.1144 33.5237 82.4265 20.0001 101.75 20Z"/>
</mask>
<path d="M101.75 20C119.914 20 135.41 31.9501 141.512 49.7705C141.773 50.1857 141.945 50.5655 142.003 50.8828C142.038 51.0754 142.057 51.2689 142.062 51.4609C143.038 54.6833 143.709 58.0844 144.044 61.6299C148.241 65.4127 151.384 70.9423 151.286 73.5723C151.189 76.2004 149.68 78.553 147.523 79.957C159.995 90.4532 168.49 105.211 168.49 121.29H168.46C168.46 132.67 164.64 142.8 158.05 151.11C151.197 159.753 141.35 166.437 129.687 170.538L131.795 177.903L139.466 179.733C140.237 180.036 140.618 180.907 140.317 181.678C140.014 182.449 139.143 182.829 138.372 182.527L132.649 181.161L134.107 186.914C134.31 187.717 133.824 188.533 133.022 188.736C132.219 188.94 131.402 188.454 131.198 187.651L129.648 181.53L125.011 184.507C124.314 184.954 123.386 184.751 122.939 184.055C122.491 183.358 122.694 182.43 123.391 181.982L128.841 178.483L126.835 171.479C119.713 173.672 111.979 174.932 103.88 175.12C103.17 175.14 102.45 175.15 101.731 175.15C101.011 175.15 100.29 175.15 99.5802 175.12C93.0672 174.969 86.79 174.124 80.8771 172.659L79.0675 177.145L84.1866 184.796C84.6472 185.484 84.4628 186.416 83.7745 186.877C83.0862 187.337 82.1541 187.153 81.6935 186.465L77.4318 180.096L72.4581 188.167C72.0235 188.872 71.0988 189.091 70.3937 188.657C69.6889 188.223 69.4694 187.299 69.9034 186.594L74.1779 179.656L66.8605 181.467L66.7091 181.496C65.9568 181.603 65.2305 181.124 65.0441 180.37C64.8454 179.566 65.3361 178.753 66.1398 178.554L76.2755 176.048L77.9581 171.876C64.4644 167.982 53.0689 160.772 45.4103 151.12C45.4103 151.12 45.4103 151.12 45.4103 151.11C39.0168 143.048 35.231 133.273 35.0109 122.305C30.3515 121.447 26.0157 119.776 22.1818 117.806C13.1068 113.144 14.9485 100.462 25.5011 94.7793L25.5079 94.7832L56.9796 77.8379C57.7002 77.4499 58.4293 77.1236 59.1603 76.8594C59.1638 76.2168 59.2003 69.6255 59.2003 66.8398C59.2003 65.2904 59.2666 63.764 59.3907 62.2627C57.9921 61.1973 57.1765 59.4101 57.4962 57.6484C57.6974 56.5409 59.0772 54.7687 60.9259 53.2529C66.1144 33.5237 82.4265 20.0001 101.75 20Z" fill="#E3ECF7"/>
<path d="M101.75 20L101.75 14L101.75 14L101.75 20ZM141.512 49.7705L135.835 51.7143C135.985 52.152 136.185 52.571 136.432 52.9628L141.512 49.7705ZM142.003 50.8828L147.907 49.8113L147.906 49.8095L142.003 50.8828ZM142.062 51.4609L136.063 51.5941C136.075 52.1386 136.161 52.6789 136.319 53.2001L142.062 51.4609ZM144.044 61.6299L138.071 62.1941C138.212 63.6909 138.91 65.0801 140.027 66.0867L144.044 61.6299ZM151.286 73.5723L157.282 73.7946L157.282 73.7945L151.286 73.5723ZM147.523 79.957L144.249 74.9285C142.657 75.9647 141.65 77.6936 141.534 79.5896C141.418 81.4855 142.206 83.3246 143.659 84.5477L147.523 79.957ZM168.49 121.29V127.29C171.804 127.29 174.49 124.604 174.49 121.29H168.49ZM168.46 121.29V115.29C165.146 115.29 162.46 117.976 162.46 121.29L168.46 121.29ZM158.05 151.11L153.349 147.382L153.349 147.382L158.05 151.11ZM129.687 170.538L127.696 164.878C124.701 165.931 123.044 169.136 123.918 172.189L129.687 170.538ZM131.795 177.903L126.027 179.555C126.623 181.637 128.295 183.237 130.403 183.74L131.795 177.903ZM139.466 179.733L141.655 174.147C141.396 174.045 141.13 173.962 140.858 173.897L139.466 179.733ZM140.317 181.678L145.903 183.866L145.904 183.864L140.317 181.678ZM138.372 182.527L140.559 176.94C140.301 176.839 140.035 176.756 139.765 176.691L138.372 182.527ZM132.649 181.161L134.042 175.325C131.999 174.838 129.851 175.453 128.377 176.948C126.902 178.443 126.317 180.6 126.832 182.635L132.649 181.161ZM134.107 186.914L139.923 185.441L139.923 185.44L134.107 186.914ZM133.022 188.736L134.494 194.553L134.498 194.552L133.022 188.736ZM131.198 187.651L125.382 189.125L125.382 189.126L131.198 187.651ZM129.648 181.53L135.464 180.057C134.99 178.186 133.645 176.658 131.851 175.949C130.056 175.241 128.03 175.439 126.406 176.481L129.648 181.53ZM125.011 184.507L128.251 189.557L128.252 189.556L125.011 184.507ZM122.939 184.055L117.889 187.295L117.89 187.298L122.939 184.055ZM123.391 181.982L120.149 176.933L120.148 176.934L123.391 181.982ZM128.841 178.483L132.082 183.532C134.311 182.101 135.338 179.378 134.609 176.832L128.841 178.483ZM126.835 171.479L132.603 169.827C132.159 168.277 131.111 166.971 129.693 166.203C128.276 165.435 126.609 165.27 125.069 165.744L126.835 171.479ZM103.88 175.12L103.74 169.122C103.731 169.122 103.721 169.122 103.711 169.122L103.88 175.12ZM101.731 175.15L101.731 181.15L101.731 181.15L101.731 175.15ZM99.5802 175.12L99.8335 169.125C99.7956 169.124 99.7577 169.123 99.7198 169.122L99.5802 175.12ZM80.8771 172.659L82.3202 166.835C79.419 166.116 76.4311 167.642 75.3128 170.414L80.8771 172.659ZM79.0675 177.145L73.5033 174.9C72.7604 176.741 72.9766 178.831 74.0807 180.481L79.0675 177.145ZM84.1866 184.796L89.1735 181.46L89.1735 181.459L84.1866 184.796ZM83.7745 186.877L87.1086 191.865L87.1122 191.863L83.7745 186.877ZM81.6935 186.465L76.7068 189.802L76.7077 189.803L81.6935 186.465ZM77.4318 180.096L82.4184 176.759C81.2826 175.062 79.3614 174.059 77.3194 174.097C75.2774 174.135 73.3951 175.209 72.3237 176.948L77.4318 180.096ZM72.4581 188.167L77.5655 191.316L77.5662 191.315L72.4581 188.167ZM70.3937 188.657L67.2445 193.764L67.2475 193.766L70.3937 188.657ZM69.9034 186.594L64.7952 183.446L64.794 183.448L69.9034 186.594ZM74.1779 179.656L79.2861 182.804C80.5644 180.729 80.4609 178.087 79.024 176.119C77.5871 174.15 75.1024 173.247 72.7367 173.832L74.1779 179.656ZM66.8605 181.467L68.0006 187.357C68.1015 187.338 68.2018 187.316 68.3016 187.291L66.8605 181.467ZM66.7091 181.496L67.5496 187.437C67.6499 187.423 67.7498 187.406 67.8492 187.387L66.7091 181.496ZM65.0441 180.37L59.2193 181.809L59.2197 181.811L65.0441 180.37ZM66.1398 178.554L64.6997 172.729L64.6965 172.73L66.1398 178.554ZM76.2755 176.048L77.7155 181.872C79.5853 181.41 81.1195 180.078 81.84 178.292L76.2755 176.048ZM77.9581 171.876L83.5226 174.12C84.1577 172.545 84.0959 170.775 83.3523 169.249C82.6087 167.722 81.2531 166.582 79.6216 166.111L77.9581 171.876ZM45.4103 151.12L50.1103 147.391C48.5237 145.391 45.8458 144.614 43.4355 145.454C41.0252 146.295 39.4103 148.568 39.4103 151.12H45.4103ZM45.4103 151.11H51.4103C51.4103 149.757 50.9525 148.443 50.1115 147.382L45.4103 151.11ZM35.0109 122.305L41.0097 122.184C40.9525 119.335 38.8992 116.919 36.0966 116.404L35.0109 122.305ZM22.1818 117.806L24.9247 112.469L24.9233 112.469L22.1818 117.806ZM25.5011 94.7793L28.4779 89.5698C26.6801 88.5425 24.4795 88.5148 22.6564 89.4965L25.5011 94.7793ZM25.5079 94.7832L22.5311 99.9927C24.3289 101.02 26.5293 101.048 28.3524 100.066L25.5079 94.7832ZM56.9796 77.8379L59.8241 83.1208L59.8242 83.1207L56.9796 77.8379ZM59.1603 76.8594L61.2 82.502C63.5653 81.647 65.1462 79.4076 65.1602 76.8926L59.1603 76.8594ZM59.2003 66.8398L53.2003 66.8398V66.8398H59.2003ZM59.3907 62.2627L65.3703 62.7572C65.5391 60.7165 64.6555 58.7305 63.0265 57.4897L59.3907 62.2627ZM57.4962 57.6484L51.5928 56.5763L51.5927 56.5769L57.4962 57.6484ZM60.9259 53.2529L64.7302 57.8927C65.7077 57.0912 66.4071 56.0015 66.7286 54.779L60.9259 53.2529ZM101.75 20V26C117.096 26 130.479 36.0713 135.835 51.7143L141.512 49.7705L147.188 47.8267C140.34 27.8289 122.732 14 101.75 14V20ZM141.512 49.7705L136.432 52.9628C136.446 52.9863 136.409 52.9313 136.352 52.8023C136.3 52.6859 136.179 52.393 136.1 51.9562L142.003 50.8828L147.906 49.8095C147.65 48.4021 147.025 47.2673 146.592 46.5783L141.512 49.7705ZM142.003 50.8828L136.1 51.9544C136.078 51.8358 136.066 51.7155 136.063 51.5941L142.062 51.4609L148.06 51.3278C148.049 50.8223 147.998 50.3151 147.907 49.8113L142.003 50.8828ZM142.062 51.4609L136.319 53.2001C137.177 56.032 137.773 59.0391 138.071 62.1941L144.044 61.6299L150.017 61.0656C149.646 57.1298 148.898 53.3347 147.804 49.7218L142.062 51.4609ZM144.044 61.6299L140.027 66.0867C141.64 67.5405 143.101 69.3881 144.118 71.099C144.622 71.9478 144.959 72.6656 145.151 73.1897C145.378 73.8096 145.273 73.8069 145.29 73.35L151.286 73.5723L157.282 73.7945C157.348 72.0226 156.887 70.3425 156.421 69.0676C155.92 67.6971 155.227 66.303 154.433 64.9677C152.854 62.3106 150.645 59.5021 148.061 57.1731L144.044 61.6299ZM151.286 73.5723L145.29 73.35C145.274 73.7871 144.985 74.4496 144.249 74.9285L147.523 79.957L150.796 84.9856C154.374 82.6565 157.103 78.6137 157.282 73.7946L151.286 73.5723ZM147.523 79.957L143.659 84.5477C155.118 94.191 162.49 107.383 162.49 121.29H168.49H174.49C174.49 103.038 164.872 86.7155 151.386 75.3664L147.523 79.957ZM168.49 121.29V115.29H168.46V121.29V127.29H168.49V121.29ZM168.46 121.29L162.46 121.29C162.46 131.258 159.135 140.086 153.349 147.382L158.05 151.11L162.751 154.838C170.145 145.514 174.46 134.082 174.46 121.29L168.46 121.29ZM158.05 151.11L153.349 147.382C147.297 155.014 138.453 161.096 127.696 164.878L129.687 170.538L131.677 176.198C144.248 171.778 155.096 164.492 162.751 154.838L158.05 151.11ZM129.687 170.538L123.918 172.189L126.027 179.555L131.795 177.903L137.563 176.252L135.455 168.887L129.687 170.538ZM131.795 177.903L130.403 183.74L138.074 185.57L139.466 179.733L140.858 173.897L133.187 172.067L131.795 177.903ZM139.466 179.733L137.276 185.32C134.967 184.415 133.822 181.809 134.729 179.491L140.317 181.678L145.904 183.864C147.414 180.005 145.507 175.657 141.655 174.147L139.466 179.733ZM140.317 181.678L134.73 179.489C135.638 177.173 138.248 176.036 140.559 176.94L138.372 182.527L136.185 188.115C140.039 189.623 144.391 187.725 145.903 183.866L140.317 181.678ZM138.372 182.527L139.765 176.691L134.042 175.325L132.649 181.161L131.256 186.997L136.979 188.363L138.372 182.527ZM132.649 181.161L126.832 182.635L128.29 188.388L134.107 186.914L139.923 185.44L138.465 179.687L132.649 181.161ZM134.107 186.914L128.29 188.387C127.68 185.979 129.137 183.532 131.545 182.921L133.022 188.736L134.498 194.552C138.511 193.533 140.94 189.455 139.923 185.441L134.107 186.914ZM133.022 188.736L131.549 182.92C133.95 182.312 136.402 183.761 137.014 186.177L131.198 187.651L125.382 189.126C126.402 193.147 130.487 195.567 134.494 194.553L133.022 188.736ZM131.198 187.651L137.015 186.178L135.464 180.057L129.648 181.53L123.831 183.004L125.382 189.125L131.198 187.651ZM129.648 181.53L126.406 176.481L121.77 179.458L125.011 184.507L128.252 189.556L132.889 186.579L129.648 181.53ZM125.011 184.507L121.771 179.457C123.864 178.114 126.645 178.723 127.987 180.812L122.939 184.055L117.89 187.298C120.127 190.779 124.764 191.794 128.251 189.557L125.011 184.507ZM122.939 184.055L127.989 180.815C129.331 182.907 128.722 185.689 126.633 187.031L123.391 181.982L120.148 176.934C116.666 179.171 115.651 183.808 117.889 187.295L122.939 184.055ZM123.391 181.982L126.632 187.031L132.082 183.532L128.841 178.483L125.599 173.434L120.149 176.933L123.391 181.982ZM128.841 178.483L134.609 176.832L132.603 169.827L126.835 171.479L121.067 173.13L123.073 180.135L128.841 178.483ZM126.835 171.479L125.069 165.744C118.495 167.77 111.309 168.946 103.74 169.122L103.88 175.12L104.02 181.118C112.648 180.918 120.931 179.575 128.601 177.213L126.835 171.479ZM103.88 175.12L103.711 169.122C103.057 169.141 102.394 169.15 101.731 169.15L101.731 175.15L101.731 181.15C102.507 181.15 103.283 181.139 104.049 181.118L103.88 175.12ZM101.731 175.15V169.15C100.99 169.15 100.396 169.149 99.8335 169.125L99.5802 175.12L99.3269 181.115C100.184 181.151 101.031 181.15 101.731 181.15V175.15ZM99.5802 175.12L99.7198 169.122C93.6339 168.98 87.7943 168.192 82.3202 166.835L80.8771 172.659L79.4339 178.483C85.7856 180.057 92.5005 180.957 99.4406 181.118L99.5802 175.12ZM80.8771 172.659L75.3128 170.414L73.5033 174.9L79.0675 177.145L84.6317 179.389L86.4413 174.904L80.8771 172.659ZM79.0675 177.145L74.0807 180.481L79.1998 188.132L84.1866 184.796L89.1735 181.459L84.0543 173.808L79.0675 177.145ZM84.1866 184.796L79.1998 188.132C77.8191 186.069 78.3704 183.274 80.4368 181.891L83.7745 186.877L87.1122 191.863C90.5552 189.558 91.4753 184.9 89.1735 181.46L84.1866 184.796ZM83.7745 186.877L80.4405 181.889C82.5013 180.511 85.2945 181.059 86.6792 183.127L81.6935 186.465L76.7077 189.803C79.0137 193.247 83.6711 194.163 87.1086 191.865L83.7745 186.877ZM81.6935 186.465L86.6801 183.128L82.4184 176.759L77.4318 180.096L72.4451 183.432L76.7068 189.802L81.6935 186.465ZM77.4318 180.096L72.3237 176.948L67.3501 185.019L72.4581 188.167L77.5662 191.315L82.5398 183.243L77.4318 180.096ZM72.4581 188.167L67.3507 185.018C68.6548 182.903 71.4249 182.246 73.5399 183.548L70.3937 188.657L67.2475 193.766C70.7727 195.937 75.3922 194.841 77.5655 191.316L72.4581 188.167ZM70.3937 188.657L73.5429 183.55C75.6568 184.854 76.3153 187.623 75.0129 189.739L69.9034 186.594L64.794 183.448C62.6235 186.974 63.721 191.592 67.2445 193.764L70.3937 188.657ZM69.9034 186.594L75.0117 189.741L79.2861 182.804L74.1779 179.656L69.0696 176.509L64.7952 183.446L69.9034 186.594ZM74.1779 179.656L72.7367 173.832L65.4193 175.642L66.8605 181.467L68.3016 187.291L75.619 185.481L74.1779 179.656ZM66.8605 181.467L65.7203 175.576L65.569 175.605L66.7091 181.496L67.8492 187.387L68.0006 187.357L66.8605 181.467ZM66.7091 181.496L65.8686 175.555C68.1334 175.235 70.3087 176.666 70.8685 178.929L65.0441 180.37L59.2197 181.811C60.1523 185.581 63.7802 187.97 67.5496 187.437L66.7091 181.496ZM65.0441 180.37L70.8689 178.931C71.4647 181.342 69.9944 183.78 67.583 184.378L66.1398 178.554L64.6965 172.73C60.6778 173.726 58.2262 177.79 59.2193 181.809L65.0441 180.37ZM66.1398 178.554L67.5798 184.378L77.7155 181.872L76.2755 176.048L74.8355 170.223L64.6997 172.729L66.1398 178.554ZM76.2755 176.048L81.84 178.292L83.5226 174.12L77.9581 171.876L72.3937 169.632L70.7111 173.804L76.2755 176.048ZM77.9581 171.876L79.6216 166.111C67.1287 162.506 56.8739 155.914 50.1103 147.391L45.4103 151.12L40.7102 154.85C49.2638 165.629 61.8001 173.458 76.2946 177.641L77.9581 171.876ZM45.4103 151.12C51.4103 151.12 51.4103 151.12 51.4103 151.12C51.4103 151.12 51.4103 151.12 51.4103 151.12C51.4103 151.12 51.4103 151.12 51.4103 151.12C51.4103 151.12 51.4103 151.12 51.4103 151.12C51.4103 151.12 51.4103 151.12 51.4103 151.12C51.4103 151.12 51.4103 151.12 51.4103 151.12C51.4103 151.12 51.4103 151.12 51.4103 151.12C51.4103 151.12 51.4103 151.12 51.4103 151.12C51.4103 151.12 51.4103 151.12 51.4103 151.12C51.4103 151.12 51.4103 151.12 51.4103 151.12C51.4103 151.12 51.4103 151.12 51.4103 151.12C51.4103 151.12 51.4103 151.12 51.4103 151.12C51.4103 151.12 51.4103 151.12 51.4103 151.12C51.4103 151.12 51.4103 151.12 51.4103 151.12C51.4103 151.12 51.4103 151.12 51.4103 151.12C51.4103 151.12 51.4103 151.12 51.4103 151.12C51.4103 151.12 51.4103 151.12 51.4103 151.12C51.4103 151.12 51.4103 151.12 51.4103 151.12C51.4103 151.12 51.4103 151.12 51.4103 151.12C51.4103 151.12 51.4103 151.12 51.4103 151.12C51.4103 151.12 51.4103 151.12 51.4103 151.12C51.4103 151.12 51.4103 151.12 51.4103 151.12C51.4103 151.12 51.4103 151.12 51.4103 151.12C51.4103 151.12 51.4103 151.12 51.4103 151.12C51.4103 151.12 51.4103 151.12 51.4103 151.12C51.4103 151.12 51.4103 151.12 51.4103 151.12C51.4103 151.12 51.4103 151.12 51.4103 151.12C51.4103 151.12 51.4103 151.12 51.4103 151.12C51.4103 151.12 51.4103 151.12 51.4103 151.12C51.4103 151.12 51.4103 151.12 51.4103 151.12C51.4103 151.12 51.4103 151.12 51.4103 151.12C51.4103 151.12 51.4103 151.12 51.4103 151.12C51.4103 151.12 51.4103 151.12 51.4103 151.12C51.4103 151.12 51.4103 151.12 51.4103 151.12C51.4103 151.12 51.4103 151.12 51.4103 151.12C51.4103 151.12 51.4103 151.12 51.4103 151.12C51.4103 151.12 51.4103 151.12 51.4103 151.12C51.4103 151.12 51.4103 151.12 51.4103 151.12C51.4103 151.12 51.4103 151.12 51.4103 151.12C51.4103 151.12 51.4103 151.12 51.4103 151.12C51.4103 151.12 51.4103 151.12 51.4103 151.12C51.4103 151.12 51.4103 151.12 51.4103 151.12C51.4103 151.12 51.4103 151.12 51.4103 151.12C51.4103 151.12 51.4103 151.12 51.4103 151.12C51.4103 151.12 51.4103 151.12 51.4103 151.12C51.4103 151.12 51.4103 151.12 51.4103 151.12C51.4103 151.12 51.4103 151.12 51.4103 151.12C51.4103 151.12 51.4103 151.12 51.4103 151.12C51.4103 151.12 51.4103 151.12 51.4103 151.12C51.4103 151.12 51.4103 151.12 51.4103 151.12C51.4103 151.12 51.4103 151.12 51.4103 151.12C51.4103 151.12 51.4103 151.12 51.4103 151.12C51.4103 151.12 51.4103 151.12 51.4103 151.12C51.4103 151.12 51.4103 151.12 51.4103 151.12C51.4103 151.12 51.4103 151.12 51.4103 151.12C51.4103 151.12 51.4103 151.12 51.4103 151.12C51.4103 151.12 51.4103 151.12 51.4103 151.12C51.4103 151.12 51.4103 151.12 51.4103 151.12C51.4103 151.12 51.4103 151.12 51.4103 151.12C51.4103 151.12 51.4103 151.12 51.4103 151.12C51.4103 151.12 51.4103 151.12 51.4103 151.12C51.4103 151.12 51.4103 151.12 51.4103 151.12C51.4103 151.12 51.4103 151.12 51.4103 151.12C51.4103 151.12 51.4103 151.12 51.4103 151.12C51.4103 151.12 51.4103 151.12 51.4103 151.12C51.4103 151.12 51.4103 151.12 51.4103 151.12C51.4103 151.12 51.4103 151.12 51.4103 151.12C51.4103 151.12 51.4103 151.12 51.4103 151.12C51.4103 151.12 51.4103 151.12 51.4103 151.12C51.4103 151.12 51.4103 151.12 51.4103 151.12C51.4103 151.12 51.4103 151.12 51.4103 151.12C51.4103 151.12 51.4103 151.12 51.4103 151.12C51.4103 151.12 51.4103 151.12 51.4103 151.12C51.4103 151.12 51.4103 151.12 51.4103 151.12C51.4103 151.12 51.4103 151.12 51.4103 151.12C51.4103 151.12 51.4103 151.12 51.4103 151.12C51.4103 151.12 51.4103 151.12 51.4103 151.12C51.4103 151.12 51.4103 151.12 51.4103 151.12C51.4103 151.12 51.4103 151.12 51.4103 151.12C51.4103 151.12 51.4103 151.12 51.4103 151.12C51.4103 151.12 51.4103 151.12 51.4103 151.12C51.4103 151.12 51.4103 151.12 51.4103 151.12C51.4103 151.12 51.4103 151.12 51.4103 151.12C51.4103 151.12 51.4103 151.12 51.4103 151.12C51.4103 151.12 51.4103 151.12 51.4103 151.12C51.4103 151.12 51.4103 151.12 51.4103 151.12C51.4103 151.12 51.4103 151.12 51.4103 151.12C51.4103 151.12 51.4103 151.12 51.4103 151.12C51.4103 151.12 51.4103 151.12 51.4103 151.12C51.4103 151.12 51.4103 151.12 51.4103 151.12C51.4103 151.12 51.4103 151.12 51.4103 151.12C51.4103 151.12 51.4103 151.12 51.4103 151.12C51.4103 151.12 51.4103 151.12 51.4103 151.12C51.4103 151.12 51.4103 151.12 51.4103 151.12C51.4103 151.12 51.4103 151.12 51.4103 151.12C51.4103 151.12 51.4103 151.12 51.4103 151.12C51.4103 151.12 51.4103 151.12 51.4103 151.12C51.4103 151.12 51.4103 151.12 51.4103 151.12C51.4103 151.12 51.4103 151.12 51.4103 151.12C51.4103 151.12 51.4103 151.12 51.4103 151.12C51.4103 151.12 51.4103 151.12 51.4103 151.12C51.4103 151.12 51.4103 151.12 51.4103 151.12C51.4103 151.12 51.4103 151.12 51.4103 151.12C51.4103 151.12 51.4103 151.12 51.4103 151.12C51.4103 151.12 51.4103 151.12 51.4103 151.12C51.4103 151.12 51.4103 151.12 51.4103 151.12C51.4103 151.12 51.4103 151.12 51.4103 151.12C51.4103 151.12 51.4103 151.12 51.4103 151.12C51.4103 151.12 51.4103 151.12 51.4103 151.12C51.4103 151.12 51.4103 151.12 51.4103 151.12C51.4103 151.12 51.4103 151.12 51.4103 151.12C51.4103 151.12 51.4103 151.12 51.4103 151.12C51.4103 151.12 51.4103 151.12 51.4103 151.12C51.4103 151.12 51.4103 151.12 51.4103 151.12C51.4103 151.12 51.4103 151.12 51.4103 151.12C51.4103 151.12 51.4103 151.12 51.4103 151.12C51.4103 151.12 51.4103 151.12 51.4103 151.12C51.4103 151.12 51.4103 151.12 51.4103 151.12C51.4103 151.12 51.4103 151.12 51.4103 151.12C51.4103 151.12 51.4103 151.12 51.4103 151.12C51.4103 151.12 51.4103 151.12 51.4103 151.12C51.4103 151.12 51.4103 151.12 51.4103 151.12C51.4103 151.12 51.4103 151.12 51.4103 151.12C51.4103 151.12 51.4103 151.12 51.4103 151.12C51.4103 151.12 51.4103 151.12 51.4103 151.12C51.4103 151.12 51.4103 151.12 51.4103 151.12C51.4103 151.12 51.4103 151.12 51.4103 151.12C51.4103 151.12 51.4103 151.12 51.4103 151.12C51.4103 151.12 51.4103 151.12 51.4103 151.12C51.4103 151.12 51.4103 151.12 51.4103 151.12C51.4103 151.12 51.4103 151.12 51.4103 151.12C51.4103 151.12 51.4103 151.12 51.4103 151.12C51.4103 151.12 51.4103 151.12 51.4103 151.12C51.4103 151.12 51.4103 151.12 51.4103 151.12C51.4103 151.12 51.4103 151.12 51.4103 151.12C51.4103 151.12 51.4103 151.12 51.4103 151.12C51.4103 151.12 51.4103 151.12 51.4103 151.12C51.4103 151.12 51.4103 151.12 51.4103 151.12C51.4103 151.12 51.4103 151.12 51.4103 151.12C51.4103 151.12 51.4103 151.12 51.4103 151.12C51.4103 151.12 51.4103 151.12 51.4103 151.12C51.4103 151.12 51.4103 151.12 51.4103 151.12C51.4103 151.12 51.4103 151.12 51.4103 151.12C51.4103 151.12 51.4103 151.12 51.4103 151.12C51.4103 151.12 51.4103 151.12 51.4103 151.12C51.4103 151.12 51.4103 151.12 51.4103 151.12C51.4103 151.12 51.4103 151.12 51.4103 151.12C51.4103 151.12 51.4103 151.12 51.4103 151.12C51.4103 151.12 51.4103 151.12 51.4103 151.12C51.4103 151.12 51.4103 151.12 51.4103 151.12C51.4103 151.12 51.4103 151.12 51.4103 151.12C51.4103 151.12 51.4103 151.12 51.4103 151.12C51.4103 151.12 51.4103 151.12 51.4103 151.12C51.4103 151.12 51.4103 151.12 51.4103 151.12C51.4103 151.12 51.4103 151.12 51.4103 151.12C51.4103 151.12 51.4103 151.12 51.4103 151.12C51.4103 151.12 51.4103 151.12 51.4103 151.12C51.4103 151.12 51.4103 151.12 51.4103 151.12C51.4103 151.12 51.4103 151.12 51.4103 151.12C51.4103 151.12 51.4103 151.12 51.4103 151.12C51.4103 151.12 51.4103 151.12 51.4103 151.12C51.4103 151.12 51.4103 151.12 51.4103 151.12C51.4103 151.12 51.4103 151.12 51.4103 151.12C51.4103 151.12 51.4103 151.12 51.4103 151.12C51.4103 151.12 51.4103 151.12 51.4103 151.12C51.4103 151.12 51.4103 151.12 51.4103 151.12C51.4103 151.12 51.4103 151.12 51.4103 151.12C51.4103 151.12 51.4103 151.12 51.4103 151.12C51.4103 151.12 51.4103 151.12 51.4103 151.12C51.4103 151.12 51.4103 151.12 51.4103 151.12C51.4103 151.12 51.4103 151.12 51.4103 151.12C51.4103 151.12 51.4103 151.12 51.4103 151.12C51.4103 151.12 51.4103 151.12 51.4103 151.12C51.4103 151.12 51.4103 151.12 51.4103 151.12C51.4103 151.12 51.4103 151.12 51.4103 151.12C51.4103 151.12 51.4103 151.12 51.4103 151.12C51.4103 151.12 51.4103 151.12 51.4103 151.12C51.4103 151.12 51.4103 151.12 51.4103 151.12C51.4103 151.12 51.4103 151.12 51.4103 151.12C51.4103 151.12 51.4103 151.12 51.4103 151.12C51.4103 151.12 51.4103 151.12 51.4103 151.12C51.4103 151.12 51.4103 151.12 51.4103 151.12C51.4103 151.12 51.4103 151.12 51.4103 151.12C51.4103 151.12 51.4103 151.12 51.4103 151.12C51.4103 151.12 51.4103 151.12 51.4103 151.12C51.4103 151.12 51.4103 151.12 51.4103 151.12C51.4103 151.12 51.4103 151.12 51.4103 151.12C51.4103 151.12 51.4103 151.12 51.4103 151.12C51.4103 151.12 51.4103 151.12 51.4103 151.12C51.4103 151.12 51.4103 151.12 51.4103 151.12C51.4103 151.12 51.4103 151.12 51.4103 151.12C51.4103 151.12 51.4103 151.12 51.4103 151.12C51.4103 151.12 51.4103 151.12 51.4103 151.12C51.4103 151.12 51.4103 151.12 51.4103 151.12C51.4103 151.12 51.4103 151.12 51.4103 151.12C51.4103 151.12 51.4103 151.12 51.4103 151.12C51.4103 151.12 51.4103 151.12 51.4103 151.12C51.4103 151.12 51.4103 151.12 51.4103 151.12C51.4103 151.12 51.4103 151.12 51.4103 151.12C51.4103 151.12 51.4103 151.12 51.4103 151.119C51.4103 151.119 51.4103 151.119 51.4103 151.119C51.4103 151.119 51.4103 151.119 51.4103 151.119C51.4103 151.119 51.4103 151.119 51.4103 151.119C51.4103 151.119 51.4103 151.119 51.4103 151.119C51.4103 151.119 51.4103 151.119 51.4103 151.119C51.4103 151.119 51.4103 151.119 51.4103 151.119C51.4103 151.119 51.4103 151.119 51.4103 151.119C51.4103 151.119 51.4103 151.119 51.4103 151.119C51.4103 151.119 51.4103 151.119 51.4103 151.119C51.4103 151.119 51.4103 151.119 51.4103 151.119C51.4103 151.119 51.4103 151.119 51.4103 151.119C51.4103 151.119 51.4103 151.119 51.4103 151.119C51.4103 151.119 51.4103 151.119 51.4103 151.119C51.4103 151.119 51.4103 151.119 51.4103 151.119C51.4103 151.119 51.4103 151.119 51.4103 151.119C51.4103 151.119 51.4103 151.119 51.4103 151.119C51.4103 151.119 51.4103 151.119 51.4103 151.119C51.4103 151.119 51.4103 151.119 51.4103 151.119C51.4103 151.119 51.4103 151.119 51.4103 151.119C51.4103 151.119 51.4103 151.119 51.4103 151.119C51.4103 151.119 51.4103 151.119 51.4103 151.119C51.4103 151.119 51.4103 151.119 51.4103 151.119C51.4103 151.119 51.4103 151.119 51.4103 151.119C51.4103 151.119 51.4103 151.119 51.4103 151.119C51.4103 151.119 51.4103 151.119 51.4103 151.119C51.4103 151.119 51.4103 151.119 51.4103 151.119C51.4103 151.119 51.4103 151.119 51.4103 151.119C51.4103 151.119 51.4103 151.119 51.4103 151.119C51.4103 151.119 51.4103 151.119 51.4103 151.119C51.4103 151.119 51.4103 151.119 51.4103 151.119C51.4103 151.119 51.4103 151.119 51.4103 151.119C51.4103 151.119 51.4103 151.119 51.4103 151.119C51.4103 151.119 51.4103 151.119 51.4103 151.119C51.4103 151.119 51.4103 151.119 51.4103 151.119C51.4103 151.119 51.4103 151.119 51.4103 151.119C51.4103 151.119 51.4103 151.119 51.4103 151.119C51.4103 151.119 51.4103 151.119 51.4103 151.119C51.4103 151.119 51.4103 151.119 51.4103 151.119C51.4103 151.119 51.4103 151.119 51.4103 151.119C51.4103 151.119 51.4103 151.119 51.4103 151.119C51.4103 151.119 51.4103 151.119 51.4103 151.119C51.4103 151.119 51.4103 151.119 51.4103 151.119C51.4103 151.119 51.4103 151.119 51.4103 151.119C51.4103 151.119 51.4103 151.119 51.4103 151.119C51.4103 151.119 51.4103 151.119 51.4103 151.119C51.4103 151.119 51.4103 151.119 51.4103 151.119C51.4103 151.119 51.4103 151.119 51.4103 151.119C51.4103 151.119 51.4103 151.119 51.4103 151.119C51.4103 151.119 51.4103 151.119 51.4103 151.119C51.4103 151.119 51.4103 151.119 51.4103 151.119C51.4103 151.119 51.4103 151.119 51.4103 151.119C51.4103 151.119 51.4103 151.119 51.4103 151.119C51.4103 151.119 51.4103 151.119 51.4103 151.119C51.4103 151.119 51.4103 151.119 51.4103 151.119C51.4103 151.119 51.4103 151.119 51.4103 151.119C51.4103 151.119 51.4103 151.119 51.4103 151.119C51.4103 151.119 51.4103 151.119 51.4103 151.119C51.4103 151.119 51.4103 151.119 51.4103 151.119C51.4103 151.119 51.4103 151.119 51.4103 151.119C51.4103 151.119 51.4103 151.119 51.4103 151.119C51.4103 151.119 51.4103 151.119 51.4103 151.119C51.4103 151.119 51.4103 151.119 51.4103 151.119C51.4103 151.119 51.4103 151.119 51.4103 151.119C51.4103 151.119 51.4103 151.119 51.4103 151.119C51.4103 151.119 51.4103 151.119 51.4103 151.119C51.4103 151.119 51.4103 151.119 51.4103 151.119C51.4103 151.119 51.4103 151.119 51.4103 151.119C51.4103 151.119 51.4103 151.119 51.4103 151.119C51.4103 151.119 51.4103 151.119 51.4103 151.119C51.4103 151.119 51.4103 151.119 51.4103 151.119C51.4103 151.119 51.4103 151.119 51.4103 151.119C51.4103 151.119 51.4103 151.119 51.4103 151.119C51.4103 151.119 51.4103 151.119 51.4103 151.119C51.4103 151.119 51.4103 151.119 51.4103 151.119C51.4103 151.119 51.4103 151.119 51.4103 151.119C51.4103 151.119 51.4103 151.119 51.4103 151.119C51.4103 151.119 51.4103 151.119 51.4103 151.119C51.4103 151.119 51.4103 151.119 51.4103 151.119C51.4103 151.118 51.4103 151.118 51.4103 151.118C51.4103 151.118 51.4103 151.118 51.4103 151.118C51.4103 151.118 51.4103 151.118 51.4103 151.118C51.4103 151.118 51.4103 151.118 51.4103 151.118C51.4103 151.118 51.4103 151.118 51.4103 151.118C51.4103 151.118 51.4103 151.118 51.4103 151.118C51.4103 151.118 51.4103 151.118 51.4103 151.118C51.4103 151.118 51.4103 151.118 51.4103 151.118C51.4103 151.118 51.4103 151.118 51.4103 151.118C51.4103 151.118 51.4103 151.118 51.4103 151.118C51.4103 151.118 51.4103 151.118 51.4103 151.118C51.4103 151.118 51.4103 151.118 51.4103 151.118C51.4103 151.118 51.4103 151.118 51.4103 151.118C51.4103 151.118 51.4103 151.118 51.4103 151.118C51.4103 151.118 51.4103 151.118 51.4103 151.118C51.4103 151.118 51.4103 151.118 51.4103 151.118C51.4103 151.118 51.4103 151.118 51.4103 151.118C51.4103 151.118 51.4103 151.118 51.4103 151.118C51.4103 151.118 51.4103 151.118 51.4103 151.118C51.4103 151.118 51.4103 151.118 51.4103 151.118C51.4103 151.118 51.4103 151.118 51.4103 151.118C51.4103 151.118 51.4103 151.118 51.4103 151.118C51.4103 151.118 51.4103 151.118 51.4103 151.118C51.4103 151.118 51.4103 151.118 51.4103 151.118C51.4103 151.118 51.4103 151.118 51.4103 151.118C51.4103 151.118 51.4103 151.118 51.4103 151.118C51.4103 151.118 51.4103 151.118 51.4103 151.118C51.4103 151.118 51.4103 151.118 51.4103 151.118C51.4103 151.118 51.4103 151.118 51.4103 151.118C51.4103 151.118 51.4103 151.118 51.4103 151.118C51.4103 151.118 51.4103 151.118 51.4103 151.118C51.4103 151.118 51.4103 151.118 51.4103 151.118C51.4103 151.118 51.4103 151.118 51.4103 151.118C51.4103 151.118 51.4103 151.118 51.4103 151.118C51.4103 151.118 51.4103 151.118 51.4103 151.118C51.4103 151.118 51.4103 151.118 51.4103 151.118C51.4103 151.118 51.4103 151.118 51.4103 151.118C51.4103 151.118 51.4103 151.118 51.4103 151.118C51.4103 151.118 51.4103 151.118 51.4103 151.118C51.4103 151.118 51.4103 151.118 51.4103 151.118C51.4103 151.118 51.4103 151.118 51.4103 151.118C51.4103 151.118 51.4103 151.118 51.4103 151.118C51.4103 151.118 51.4103 151.118 51.4103 151.118C51.4103 151.118 51.4103 151.118 51.4103 151.118C51.4103 151.118 51.4103 151.118 51.4103 151.118C51.4103 151.118 51.4103 151.118 51.4103 151.118C51.4103 151.118 51.4103 151.118 51.4103 151.118C51.4103 151.118 51.4103 151.118 51.4103 151.118C51.4103 151.118 51.4103 151.118 51.4103 151.118C51.4103 151.118 51.4103 151.118 51.4103 151.117C51.4103 151.117 51.4103 151.117 51.4103 151.117C51.4103 151.117 51.4103 151.117 51.4103 151.117C51.4103 151.117 51.4103 151.117 51.4103 151.117C51.4103 151.117 51.4103 151.117 51.4103 151.117C51.4103 151.117 51.4103 151.117 51.4103 151.117C51.4103 151.117 51.4103 151.117 51.4103 151.117C51.4103 151.117 51.4103 151.117 51.4103 151.117C51.4103 151.117 51.4103 151.117 51.4103 151.117C51.4103 151.117 51.4103 151.117 51.4103 151.117C51.4103 151.117 51.4103 151.117 51.4103 151.117C51.4103 151.117 51.4103 151.117 51.4103 151.117C51.4103 151.117 51.4103 151.117 51.4103 151.117C51.4103 151.117 51.4103 151.117 51.4103 151.117C51.4103 151.117 51.4103 151.117 51.4103 151.117C51.4103 151.117 51.4103 151.117 51.4103 151.117C51.4103 151.117 51.4103 151.117 51.4103 151.117C51.4103 151.117 51.4103 151.117 51.4103 151.117C51.4103 151.117 51.4103 151.117 51.4103 151.117C51.4103 151.117 51.4103 151.117 51.4103 151.117C51.4103 151.117 51.4103 151.117 51.4103 151.117C51.4103 151.117 51.4103 151.117 51.4103 151.117C51.4103 151.117 51.4103 151.117 51.4103 151.117C51.4103 151.117 51.4103 151.117 51.4103 151.117C51.4103 151.117 51.4103 151.117 51.4103 151.117C51.4103 151.117 51.4103 151.117 51.4103 151.117C51.4103 151.117 51.4103 151.117 51.4103 151.117C51.4103 151.117 51.4103 151.117 51.4103 151.117C51.4103 151.117 51.4103 151.117 51.4103 151.117C51.4103 151.117 51.4103 151.117 51.4103 151.117C51.4103 151.117 51.4103 151.117 51.4103 151.117C51.4103 151.117 51.4103 151.117 51.4103 151.117C51.4103 151.117 51.4103 151.117 51.4103 151.117C51.4103 151.117 51.4103 151.117 51.4103 151.117C51.4103 151.117 51.4103 151.117 51.4103 151.117C51.4103 151.117 51.4103 151.117 51.4103 151.117C51.4103 151.117 51.4103 151.117 51.4103 151.117C51.4103 151.117 51.4103 151.117 51.4103 151.117C51.4103 151.117 51.4103 151.117 51.4103 151.116C51.4103 151.116 51.4103 151.116 51.4103 151.116C51.4103 151.116 51.4103 151.116 51.4103 151.116C51.4103 151.116 51.4103 151.116 51.4103 151.116C51.4103 151.116 51.4103 151.116 51.4103 151.116C51.4103 151.116 51.4103 151.116 51.4103 151.116C51.4103 151.116 51.4103 151.116 51.4103 151.116C51.4103 151.116 51.4103 151.116 51.4103 151.116C51.4103 151.116 51.4103 151.116 51.4103 151.116C51.4103 151.116 51.4103 151.116 51.4103 151.116C51.4103 151.116 51.4103 151.116 51.4103 151.116C51.4103 151.116 51.4103 151.116 51.4103 151.116C51.4103 151.116 51.4103 151.116 51.4103 151.116C51.4103 151.116 51.4103 151.116 51.4103 151.116C51.4103 151.116 51.4103 151.116 51.4103 151.116C51.4103 151.116 51.4103 151.116 51.4103 151.116C51.4103 151.116 51.4103 151.116 51.4103 151.116C51.4103 151.116 51.4103 151.116 51.4103 151.116C51.4103 151.116 51.4103 151.116 51.4103 151.116C51.4103 151.116 51.4103 151.116 51.4103 151.116C51.4103 151.116 51.4103 151.116 51.4103 151.116C51.4103 151.116 51.4103 151.116 51.4103 151.116C51.4103 151.116 51.4103 151.116 51.4103 151.116C51.4103 151.116 51.4103 151.116 51.4103 151.116C51.4103 151.116 51.4103 151.116 51.4103 151.116C51.4103 151.116 51.4103 151.116 51.4103 151.116C51.4103 151.116 51.4103 151.116 51.4103 151.116C51.4103 151.116 51.4103 151.116 51.4103 151.116C51.4103 151.116 51.4103 151.116 51.4103 151.116C51.4103 151.116 51.4103 151.116 51.4103 151.116C51.4103 151.116 51.4103 151.116 51.4103 151.116C51.4103 151.116 51.4103 151.116 51.4103 151.116C51.4103 151.116 51.4103 151.115 51.4103 151.115C51.4103 151.115 51.4103 151.115 51.4103 151.115C51.4103 151.115 51.4103 151.115 51.4103 151.115C51.4103 151.115 51.4103 151.115 51.4103 151.115C51.4103 151.115 51.4103 151.115 51.4103 151.115C51.4103 151.115 51.4103 151.115 51.4103 151.115C51.4103 151.115 51.4103 151.115 51.4103 151.115C51.4103 151.115 51.4103 151.115 51.4103 151.115C51.4103 151.115 51.4103 151.115 51.4103 151.115C51.4103 151.115 51.4103 151.115 51.4103 151.115C51.4103 151.115 51.4103 151.115 51.4103 151.115C51.4103 151.115 51.4103 151.115 51.4103 151.115C51.4103 151.115 51.4103 151.115 51.4103 151.115C51.4103 151.115 51.4103 151.115 51.4103 151.115C51.4103 151.115 51.4103 151.115 51.4103 151.115C51.4103 151.115 51.4103 151.115 51.4103 151.115C51.4103 151.115 51.4103 151.115 51.4103 151.115C51.4103 151.115 51.4103 151.115 51.4103 151.115C51.4103 151.115 51.4103 151.115 51.4103 151.115C51.4103 151.115 51.4103 151.115 51.4103 151.115C51.4103 151.115 51.4103 151.115 51.4103 151.115C51.4103 151.115 51.4103 151.115 51.4103 151.115C51.4103 151.115 51.4103 151.115 51.4103 151.115C51.4103 151.115 51.4103 151.115 51.4103 151.115C51.4103 151.115 51.4103 151.115 51.4103 151.115C51.4103 151.115 51.4103 151.115 51.4103 151.115C51.4103 151.115 51.4103 151.115 51.4103 151.115C51.4103 151.115 51.4103 151.115 51.4103 151.114C51.4103 151.114 51.4103 151.114 51.4103 151.114C51.4103 151.114 51.4103 151.114 51.4103 151.114C51.4103 151.114 51.4103 151.114 51.4103 151.114C51.4103 151.114 51.4103 151.114 51.4103 151.114C51.4103 151.114 51.4103 151.114 51.4103 151.114C51.4103 151.114 51.4103 151.114 51.4103 151.114C51.4103 151.114 51.4103 151.114 51.4103 151.114C51.4103 151.114 51.4103 151.114 51.4103 151.114C51.4103 151.114 51.4103 151.114 51.4103 151.114C51.4103 151.114 51.4103 151.114 51.4103 151.114C51.4103 151.114 51.4103 151.114 51.4103 151.114C51.4103 151.114 51.4103 151.114 51.4103 151.114C51.4103 151.114 51.4103 151.114 51.4103 151.114C51.4103 151.114 51.4103 151.114 51.4103 151.114C51.4103 151.114 51.4103 151.114 51.4103 151.114C51.4103 151.114 51.4103 151.114 51.4103 151.114C51.4103 151.114 51.4103 151.114 51.4103 151.114C51.4103 151.114 51.4103 151.114 51.4103 151.114C51.4103 151.114 51.4103 151.114 51.4103 151.114C51.4103 151.114 51.4103 151.114 51.4103 151.114C51.4103 151.114 51.4103 151.114 51.4103 151.114C51.4103 151.114 51.4103 151.114 51.4103 151.114C51.4103 151.114 51.4103 151.114 51.4103 151.114C51.4103 151.114 51.4103 151.114 51.4103 151.113C51.4103 151.113 51.4103 151.113 51.4103 151.113C51.4103 151.113 51.4103 151.113 51.4103 151.113C51.4103 151.113 51.4103 151.113 51.4103 151.113C51.4103 151.113 51.4103 151.113 51.4103 151.113C51.4103 151.113 51.4103 151.113 51.4103 151.113C51.4103 151.113 51.4103 151.113 51.4103 151.113C51.4103 151.113 51.4103 151.113 51.4103 151.113C51.4103 151.113 51.4103 151.113 51.4103 151.113C51.4103 151.113 51.4103 151.113 51.4103 151.113C51.4103 151.113 51.4103 151.113 51.4103 151.113C51.4103 151.113 51.4103 151.113 51.4103 151.113C51.4103 151.113 51.4103 151.113 51.4103 151.113C51.4103 151.113 51.4103 151.113 51.4103 151.113C51.4103 151.113 51.4103 151.113 51.4103 151.113C51.4103 151.113 51.4103 151.113 51.4103 151.113C51.4103 151.113 51.4103 151.113 51.4103 151.113C51.4103 151.113 51.4103 151.113 51.4103 151.113C51.4103 151.113 51.4103 151.113 51.4103 151.113C51.4103 151.113 51.4103 151.113 51.4103 151.113C51.4103 151.113 51.4103 151.113 51.4103 151.113C51.4103 151.113 51.4103 151.113 51.4103 151.113C51.4103 151.113 51.4103 151.113 51.4103 151.112C51.4103 151.112 51.4103 151.112 51.4103 151.112C51.4103 151.112 51.4103 151.112 51.4103 151.112C51.4103 151.112 51.4103 151.112 51.4103 151.112C51.4103 151.112 51.4103 151.112 51.4103 151.112C51.4103 151.112 51.4103 151.112 51.4103 151.112C51.4103 151.112 51.4103 151.112 51.4103 151.112C51.4103 151.112 51.4103 151.112 51.4103 151.112C51.4103 151.112 51.4103 151.112 51.4103 151.112C51.4103 151.112 51.4103 151.112 51.4103 151.112C51.4103 151.112 51.4103 151.112 51.4103 151.112C51.4103 151.112 51.4103 151.112 51.4103 151.112C51.4103 151.112 51.4103 151.112 51.4103 151.112C51.4103 151.112 51.4103 151.112 51.4103 151.112C51.4103 151.112 51.4103 151.112 51.4103 151.112C51.4103 151.112 51.4103 151.112 51.4103 151.112C51.4103 151.112 51.4103 151.112 51.4103 151.112C51.4103 151.112 51.4103 151.112 51.4103 151.112C51.4103 151.112 51.4103 151.112 51.4103 151.112C51.4103 151.112 51.4103 151.112 51.4103 151.112C51.4103 151.112 51.4103 151.112 51.4103 151.111C51.4103 151.111 51.4103 151.111 51.4103 151.111C51.4103 151.111 51.4103 151.111 51.4103 151.111C51.4103 151.111 51.4103 151.111 51.4103 151.111C51.4103 151.111 51.4103 151.111 51.4103 151.111C51.4103 151.111 51.4103 151.111 51.4103 151.111C51.4103 151.111 51.4103 151.111 51.4103 151.111C51.4103 151.111 51.4103 151.111 51.4103 151.111C51.4103 151.111 51.4103 151.111 51.4103 151.111C51.4103 151.111 51.4103 151.111 51.4103 151.111C51.4103 151.111 51.4103 151.111 51.4103 151.111C51.4103 151.111 51.4103 151.111 51.4103 151.111C51.4103 151.111 51.4103 151.111 51.4103 151.111C51.4103 151.111 51.4103 151.111 51.4103 151.111C51.4103 151.111 51.4103 151.111 51.4103 151.111C51.4103 151.111 51.4103 151.111 51.4103 151.111C51.4103 151.111 51.4103 151.111 51.4103 151.111C51.4103 151.111 51.4103 151.111 51.4103 151.111C51.4103 151.111 51.4103 151.111 51.4103 151.111C51.4103 151.111 51.4103 151.11 51.4103 151.11C51.4103 151.11 51.4103 151.11 51.4103 151.11C51.4103 151.11 51.4103 151.11 51.4103 151.11H45.4103H39.4103C39.4103 151.11 39.4103 151.11 39.4103 151.11C39.4103 151.11 39.4103 151.11 39.4103 151.11C39.4103 151.11 39.4103 151.111 39.4103 151.111C39.4103 151.111 39.4103 151.111 39.4103 151.111C39.4103 151.111 39.4103 151.111 39.4103 151.111C39.4103 151.111 39.4103 151.111 39.4103 151.111C39.4103 151.111 39.4103 151.111 39.4103 151.111C39.4103 151.111 39.4103 151.111 39.4103 151.111C39.4103 151.111 39.4103 151.111 39.4103 151.111C39.4103 151.111 39.4103 151.111 39.4103 151.111C39.4103 151.111 39.4103 151.111 39.4103 151.111C39.4103 151.111 39.4103 151.111 39.4103 151.111C39.4103 151.111 39.4103 151.111 39.4103 151.111C39.4103 151.111 39.4103 151.111 39.4103 151.111C39.4103 151.111 39.4103 151.111 39.4103 151.111C39.4103 151.111 39.4103 151.111 39.4103 151.111C39.4103 151.111 39.4103 151.111 39.4103 151.111C39.4103 151.111 39.4103 151.111 39.4103 151.111C39.4103 151.111 39.4103 151.111 39.4103 151.111C39.4103 151.111 39.4103 151.111 39.4103 151.111C39.4103 151.111 39.4103 151.111 39.4103 151.111C39.4103 151.112 39.4103 151.112 39.4103 151.112C39.4103 151.112 39.4103 151.112 39.4103 151.112C39.4103 151.112 39.4103 151.112 39.4103 151.112C39.4103 151.112 39.4103 151.112 39.4103 151.112C39.4103 151.112 39.4103 151.112 39.4103 151.112C39.4103 151.112 39.4103 151.112 39.4103 151.112C39.4103 151.112 39.4103 151.112 39.4103 151.112C39.4103 151.112 39.4103 151.112 39.4103 151.112C39.4103 151.112 39.4103 151.112 39.4103 151.112C39.4103 151.112 39.4103 151.112 39.4103 151.112C39.4103 151.112 39.4103 151.112 39.4103 151.112C39.4103 151.112 39.4103 151.112 39.4103 151.112C39.4103 151.112 39.4103 151.112 39.4103 151.112C39.4103 151.112 39.4103 151.112 39.4103 151.112C39.4103 151.112 39.4103 151.112 39.4103 151.112C39.4103 151.112 39.4103 151.112 39.4103 151.112C39.4103 151.112 39.4103 151.112 39.4103 151.112C39.4103 151.112 39.4103 151.112 39.4103 151.112C39.4103 151.112 39.4103 151.112 39.4103 151.112C39.4103 151.112 39.4103 151.112 39.4103 151.112C39.4103 151.113 39.4103 151.113 39.4103 151.113C39.4103 151.113 39.4103 151.113 39.4103 151.113C39.4103 151.113 39.4103 151.113 39.4103 151.113C39.4103 151.113 39.4103 151.113 39.4103 151.113C39.4103 151.113 39.4103 151.113 39.4103 151.113C39.4103 151.113 39.4103 151.113 39.4103 151.113C39.4103 151.113 39.4103 151.113 39.4103 151.113C39.4103 151.113 39.4103 151.113 39.4103 151.113C39.4103 151.113 39.4103 151.113 39.4103 151.113C39.4103 151.113 39.4103 151.113 39.4103 151.113C39.4103 151.113 39.4103 151.113 39.4103 151.113C39.4103 151.113 39.4103 151.113 39.4103 151.113C39.4103 151.113 39.4103 151.113 39.4103 151.113C39.4103 151.113 39.4103 151.113 39.4103 151.113C39.4103 151.113 39.4103 151.113 39.4103 151.113C39.4103 151.113 39.4103 151.113 39.4103 151.113C39.4103 151.113 39.4103 151.113 39.4103 151.113C39.4103 151.113 39.4103 151.113 39.4103 151.113C39.4103 151.113 39.4103 151.113 39.4103 151.113C39.4103 151.113 39.4103 151.113 39.4103 151.113C39.4103 151.113 39.4103 151.113 39.4103 151.113C39.4103 151.113 39.4103 151.113 39.4103 151.113C39.4103 151.114 39.4103 151.114 39.4103 151.114C39.4103 151.114 39.4103 151.114 39.4103 151.114C39.4103 151.114 39.4103 151.114 39.4103 151.114C39.4103 151.114 39.4103 151.114 39.4103 151.114C39.4103 151.114 39.4103 151.114 39.4103 151.114C39.4103 151.114 39.4103 151.114 39.4103 151.114C39.4103 151.114 39.4103 151.114 39.4103 151.114C39.4103 151.114 39.4103 151.114 39.4103 151.114C39.4103 151.114 39.4103 151.114 39.4103 151.114C39.4103 151.114 39.4103 151.114 39.4103 151.114C39.4103 151.114 39.4103 151.114 39.4103 151.114C39.4103 151.114 39.4103 151.114 39.4103 151.114C39.4103 151.114 39.4103 151.114 39.4103 151.114C39.4103 151.114 39.4103 151.114 39.4103 151.114C39.4103 151.114 39.4103 151.114 39.4103 151.114C39.4103 151.114 39.4103 151.114 39.4103 151.114C39.4103 151.114 39.4103 151.114 39.4103 151.114C39.4103 151.114 39.4103 151.114 39.4103 151.114C39.4103 151.114 39.4103 151.114 39.4103 151.114C39.4103 151.114 39.4103 151.114 39.4103 151.114C39.4103 151.114 39.4103 151.114 39.4103 151.114C39.4103 151.114 39.4103 151.114 39.4103 151.114C39.4103 151.114 39.4103 151.114 39.4103 151.114C39.4103 151.114 39.4103 151.114 39.4103 151.114C39.4103 151.115 39.4103 151.115 39.4103 151.115C39.4103 151.115 39.4103 151.115 39.4103 151.115C39.4103 151.115 39.4103 151.115 39.4103 151.115C39.4103 151.115 39.4103 151.115 39.4103 151.115C39.4103 151.115 39.4103 151.115 39.4103 151.115C39.4103 151.115 39.4103 151.115 39.4103 151.115C39.4103 151.115 39.4103 151.115 39.4103 151.115C39.4103 151.115 39.4103 151.115 39.4103 151.115C39.4103 151.115 39.4103 151.115 39.4103 151.115C39.4103 151.115 39.4103 151.115 39.4103 151.115C39.4103 151.115 39.4103 151.115 39.4103 151.115C39.4103 151.115 39.4103 151.115 39.4103 151.115C39.4103 151.115 39.4103 151.115 39.4103 151.115C39.4103 151.115 39.4103 151.115 39.4103 151.115C39.4103 151.115 39.4103 151.115 39.4103 151.115C39.4103 151.115 39.4103 151.115 39.4103 151.115C39.4103 151.115 39.4103 151.115 39.4103 151.115C39.4103 151.115 39.4103 151.115 39.4103 151.115C39.4103 151.115 39.4103 151.115 39.4103 151.115C39.4103 151.115 39.4103 151.115 39.4103 151.115C39.4103 151.115 39.4103 151.115 39.4103 151.115C39.4103 151.115 39.4103 151.115 39.4103 151.115C39.4103 151.115 39.4103 151.115 39.4103 151.115C39.4103 151.115 39.4103 151.115 39.4103 151.115C39.4103 151.115 39.4103 151.115 39.4103 151.115C39.4103 151.115 39.4103 151.115 39.4103 151.115C39.4103 151.115 39.4103 151.115 39.4103 151.115C39.4103 151.115 39.4103 151.116 39.4103 151.116C39.4103 151.116 39.4103 151.116 39.4103 151.116C39.4103 151.116 39.4103 151.116 39.4103 151.116C39.4103 151.116 39.4103 151.116 39.4103 151.116C39.4103 151.116 39.4103 151.116 39.4103 151.116C39.4103 151.116 39.4103 151.116 39.4103 151.116C39.4103 151.116 39.4103 151.116 39.4103 151.116C39.4103 151.116 39.4103 151.116 39.4103 151.116C39.4103 151.116 39.4103 151.116 39.4103 151.116C39.4103 151.116 39.4103 151.116 39.4103 151.116C39.4103 151.116 39.4103 151.116 39.4103 151.116C39.4103 151.116 39.4103 151.116 39.4103 151.116C39.4103 151.116 39.4103 151.116 39.4103 151.116C39.4103 151.116 39.4103 151.116 39.4103 151.116C39.4103 151.116 39.4103 151.116 39.4103 151.116C39.4103 151.116 39.4103 151.116 39.4103 151.116C39.4103 151.116 39.4103 151.116 39.4103 151.116C39.4103 151.116 39.4103 151.116 39.4103 151.116C39.4103 151.116 39.4103 151.116 39.4103 151.116C39.4103 151.116 39.4103 151.116 39.4103 151.116C39.4103 151.116 39.4103 151.116 39.4103 151.116C39.4103 151.116 39.4103 151.116 39.4103 151.116C39.4103 151.116 39.4103 151.116 39.4103 151.116C39.4103 151.116 39.4103 151.116 39.4103 151.116C39.4103 151.116 39.4103 151.116 39.4103 151.116C39.4103 151.116 39.4103 151.116 39.4103 151.116C39.4103 151.116 39.4103 151.116 39.4103 151.116C39.4103 151.116 39.4103 151.116 39.4103 151.116C39.4103 151.116 39.4103 151.116 39.4103 151.116C39.4103 151.116 39.4103 151.116 39.4103 151.116C39.4103 151.116 39.4103 151.116 39.4103 151.116C39.4103 151.116 39.4103 151.116 39.4103 151.116C39.4103 151.117 39.4103 151.117 39.4103 151.117C39.4103 151.117 39.4103 151.117 39.4103 151.117C39.4103 151.117 39.4103 151.117 39.4103 151.117C39.4103 151.117 39.4103 151.117 39.4103 151.117C39.4103 151.117 39.4103 151.117 39.4103 151.117C39.4103 151.117 39.4103 151.117 39.4103 151.117C39.4103 151.117 39.4103 151.117 39.4103 151.117C39.4103 151.117 39.4103 151.117 39.4103 151.117C39.4103 151.117 39.4103 151.117 39.4103 151.117C39.4103 151.117 39.4103 151.117 39.4103 151.117C39.4103 151.117 39.4103 151.117 39.4103 151.117C39.4103 151.117 39.4103 151.117 39.4103 151.117C39.4103 151.117 39.4103 151.117 39.4103 151.117C39.4103 151.117 39.4103 151.117 39.4103 151.117C39.4103 151.117 39.4103 151.117 39.4103 151.117C39.4103 151.117 39.4103 151.117 39.4103 151.117C39.4103 151.117 39.4103 151.117 39.4103 151.117C39.4103 151.117 39.4103 151.117 39.4103 151.117C39.4103 151.117 39.4103 151.117 39.4103 151.117C39.4103 151.117 39.4103 151.117 39.4103 151.117C39.4103 151.117 39.4103 151.117 39.4103 151.117C39.4103 151.117 39.4103 151.117 39.4103 151.117C39.4103 151.117 39.4103 151.117 39.4103 151.117C39.4103 151.117 39.4103 151.117 39.4103 151.117C39.4103 151.117 39.4103 151.117 39.4103 151.117C39.4103 151.117 39.4103 151.117 39.4103 151.117C39.4103 151.117 39.4103 151.117 39.4103 151.117C39.4103 151.117 39.4103 151.117 39.4103 151.117C39.4103 151.117 39.4103 151.117 39.4103 151.117C39.4103 151.117 39.4103 151.117 39.4103 151.117C39.4103 151.117 39.4103 151.117 39.4103 151.117C39.4103 151.117 39.4103 151.117 39.4103 151.117C39.4103 151.117 39.4103 151.117 39.4103 151.117C39.4103 151.117 39.4103 151.117 39.4103 151.117C39.4103 151.117 39.4103 151.117 39.4103 151.117C39.4103 151.117 39.4103 151.117 39.4103 151.117C39.4103 151.117 39.4103 151.117 39.4103 151.117C39.4103 151.117 39.4103 151.117 39.4103 151.117C39.4103 151.118 39.4103 151.118 39.4103 151.118C39.4103 151.118 39.4103 151.118 39.4103 151.118C39.4103 151.118 39.4103 151.118 39.4103 151.118C39.4103 151.118 39.4103 151.118 39.4103 151.118C39.4103 151.118 39.4103 151.118 39.4103 151.118C39.4103 151.118 39.4103 151.118 39.4103 151.118C39.4103 151.118 39.4103 151.118 39.4103 151.118C39.4103 151.118 39.4103 151.118 39.4103 151.118C39.4103 151.118 39.4103 151.118 39.4103 151.118C39.4103 151.118 39.4103 151.118 39.4103 151.118C39.4103 151.118 39.4103 151.118 39.4103 151.118C39.4103 151.118 39.4103 151.118 39.4103 151.118C39.4103 151.118 39.4103 151.118 39.4103 151.118C39.4103 151.118 39.4103 151.118 39.4103 151.118C39.4103 151.118 39.4103 151.118 39.4103 151.118C39.4103 151.118 39.4103 151.118 39.4103 151.118C39.4103 151.118 39.4103 151.118 39.4103 151.118C39.4103 151.118 39.4103 151.118 39.4103 151.118C39.4103 151.118 39.4103 151.118 39.4103 151.118C39.4103 151.118 39.4103 151.118 39.4103 151.118C39.4103 151.118 39.4103 151.118 39.4103 151.118C39.4103 151.118 39.4103 151.118 39.4103 151.118C39.4103 151.118 39.4103 151.118 39.4103 151.118C39.4103 151.118 39.4103 151.118 39.4103 151.118C39.4103 151.118 39.4103 151.118 39.4103 151.118C39.4103 151.118 39.4103 151.118 39.4103 151.118C39.4103 151.118 39.4103 151.118 39.4103 151.118C39.4103 151.118 39.4103 151.118 39.4103 151.118C39.4103 151.118 39.4103 151.118 39.4103 151.118C39.4103 151.118 39.4103 151.118 39.4103 151.118C39.4103 151.118 39.4103 151.118 39.4103 151.118C39.4103 151.118 39.4103 151.118 39.4103 151.118C39.4103 151.118 39.4103 151.118 39.4103 151.118C39.4103 151.118 39.4103 151.118 39.4103 151.118C39.4103 151.118 39.4103 151.118 39.4103 151.118C39.4103 151.118 39.4103 151.118 39.4103 151.118C39.4103 151.118 39.4103 151.118 39.4103 151.118C39.4103 151.118 39.4103 151.118 39.4103 151.118C39.4103 151.118 39.4103 151.118 39.4103 151.118C39.4103 151.118 39.4103 151.118 39.4103 151.118C39.4103 151.118 39.4103 151.118 39.4103 151.118C39.4103 151.118 39.4103 151.118 39.4103 151.118C39.4103 151.118 39.4103 151.118 39.4103 151.118C39.4103 151.118 39.4103 151.118 39.4103 151.118C39.4103 151.118 39.4103 151.118 39.4103 151.118C39.4103 151.118 39.4103 151.118 39.4103 151.118C39.4103 151.118 39.4103 151.118 39.4103 151.118C39.4103 151.118 39.4103 151.118 39.4103 151.118C39.4103 151.118 39.4103 151.118 39.4103 151.118C39.4103 151.118 39.4103 151.118 39.4103 151.119C39.4103 151.119 39.4103 151.119 39.4103 151.119C39.4103 151.119 39.4103 151.119 39.4103 151.119C39.4103 151.119 39.4103 151.119 39.4103 151.119C39.4103 151.119 39.4103 151.119 39.4103 151.119C39.4103 151.119 39.4103 151.119 39.4103 151.119C39.4103 151.119 39.4103 151.119 39.4103 151.119C39.4103 151.119 39.4103 151.119 39.4103 151.119C39.4103 151.119 39.4103 151.119 39.4103 151.119C39.4103 151.119 39.4103 151.119 39.4103 151.119C39.4103 151.119 39.4103 151.119 39.4103 151.119C39.4103 151.119 39.4103 151.119 39.4103 151.119C39.4103 151.119 39.4103 151.119 39.4103 151.119C39.4103 151.119 39.4103 151.119 39.4103 151.119C39.4103 151.119 39.4103 151.119 39.4103 151.119C39.4103 151.119 39.4103 151.119 39.4103 151.119C39.4103 151.119 39.4103 151.119 39.4103 151.119C39.4103 151.119 39.4103 151.119 39.4103 151.119C39.4103 151.119 39.4103 151.119 39.4103 151.119C39.4103 151.119 39.4103 151.119 39.4103 151.119C39.4103 151.119 39.4103 151.119 39.4103 151.119C39.4103 151.119 39.4103 151.119 39.4103 151.119C39.4103 151.119 39.4103 151.119 39.4103 151.119C39.4103 151.119 39.4103 151.119 39.4103 151.119C39.4103 151.119 39.4103 151.119 39.4103 151.119C39.4103 151.119 39.4103 151.119 39.4103 151.119C39.4103 151.119 39.4103 151.119 39.4103 151.119C39.4103 151.119 39.4103 151.119 39.4103 151.119C39.4103 151.119 39.4103 151.119 39.4103 151.119C39.4103 151.119 39.4103 151.119 39.4103 151.119C39.4103 151.119 39.4103 151.119 39.4103 151.119C39.4103 151.119 39.4103 151.119 39.4103 151.119C39.4103 151.119 39.4103 151.119 39.4103 151.119C39.4103 151.119 39.4103 151.119 39.4103 151.119C39.4103 151.119 39.4103 151.119 39.4103 151.119C39.4103 151.119 39.4103 151.119 39.4103 151.119C39.4103 151.119 39.4103 151.119 39.4103 151.119C39.4103 151.119 39.4103 151.119 39.4103 151.119C39.4103 151.119 39.4103 151.119 39.4103 151.119C39.4103 151.119 39.4103 151.119 39.4103 151.119C39.4103 151.119 39.4103 151.119 39.4103 151.119C39.4103 151.119 39.4103 151.119 39.4103 151.119C39.4103 151.119 39.4103 151.119 39.4103 151.119C39.4103 151.119 39.4103 151.119 39.4103 151.119C39.4103 151.119 39.4103 151.119 39.4103 151.119C39.4103 151.119 39.4103 151.119 39.4103 151.119C39.4103 151.119 39.4103 151.119 39.4103 151.119C39.4103 151.119 39.4103 151.119 39.4103 151.119C39.4103 151.119 39.4103 151.119 39.4103 151.119C39.4103 151.119 39.4103 151.119 39.4103 151.119C39.4103 151.119 39.4103 151.119 39.4103 151.119C39.4103 151.119 39.4103 151.119 39.4103 151.119C39.4103 151.119 39.4103 151.119 39.4103 151.119C39.4103 151.119 39.4103 151.119 39.4103 151.119C39.4103 151.119 39.4103 151.119 39.4103 151.119C39.4103 151.119 39.4103 151.119 39.4103 151.119C39.4103 151.119 39.4103 151.119 39.4103 151.119C39.4103 151.119 39.4103 151.119 39.4103 151.119C39.4103 151.119 39.4103 151.119 39.4103 151.119C39.4103 151.119 39.4103 151.119 39.4103 151.119C39.4103 151.119 39.4103 151.119 39.4103 151.119C39.4103 151.119 39.4103 151.119 39.4103 151.119C39.4103 151.119 39.4103 151.119 39.4103 151.119C39.4103 151.119 39.4103 151.119 39.4103 151.119C39.4103 151.119 39.4103 151.119 39.4103 151.119C39.4103 151.119 39.4103 151.119 39.4103 151.119C39.4103 151.119 39.4103 151.119 39.4103 151.119C39.4103 151.119 39.4103 151.119 39.4103 151.119C39.4103 151.119 39.4103 151.119 39.4103 151.119C39.4103 151.119 39.4103 151.119 39.4103 151.119C39.4103 151.119 39.4103 151.119 39.4103 151.119C39.4103 151.119 39.4103 151.119 39.4103 151.119C39.4103 151.119 39.4103 151.119 39.4103 151.119C39.4103 151.119 39.4103 151.119 39.4103 151.119C39.4103 151.119 39.4103 151.119 39.4103 151.119C39.4103 151.119 39.4103 151.119 39.4103 151.119C39.4103 151.119 39.4103 151.119 39.4103 151.119C39.4103 151.119 39.4103 151.119 39.4103 151.119C39.4103 151.119 39.4103 151.119 39.4103 151.119C39.4103 151.12 39.4103 151.12 39.4103 151.12C39.4103 151.12 39.4103 151.12 39.4103 151.12C39.4103 151.12 39.4103 151.12 39.4103 151.12C39.4103 151.12 39.4103 151.12 39.4103 151.12C39.4103 151.12 39.4103 151.12 39.4103 151.12C39.4103 151.12 39.4103 151.12 39.4103 151.12C39.4103 151.12 39.4103 151.12 39.4103 151.12C39.4103 151.12 39.4103 151.12 39.4103 151.12C39.4103 151.12 39.4103 151.12 39.4103 151.12C39.4103 151.12 39.4103 151.12 39.4103 151.12C39.4103 151.12 39.4103 151.12 39.4103 151.12C39.4103 151.12 39.4103 151.12 39.4103 151.12C39.4103 151.12 39.4103 151.12 39.4103 151.12C39.4103 151.12 39.4103 151.12 39.4103 151.12C39.4103 151.12 39.4103 151.12 39.4103 151.12C39.4103 151.12 39.4103 151.12 39.4103 151.12C39.4103 151.12 39.4103 151.12 39.4103 151.12C39.4103 151.12 39.4103 151.12 39.4103 151.12C39.4103 151.12 39.4103 151.12 39.4103 151.12C39.4103 151.12 39.4103 151.12 39.4103 151.12C39.4103 151.12 39.4103 151.12 39.4103 151.12C39.4103 151.12 39.4103 151.12 39.4103 151.12C39.4103 151.12 39.4103 151.12 39.4103 151.12C39.4103 151.12 39.4103 151.12 39.4103 151.12C39.4103 151.12 39.4103 151.12 39.4103 151.12C39.4103 151.12 39.4103 151.12 39.4103 151.12C39.4103 151.12 39.4103 151.12 39.4103 151.12C39.4103 151.12 39.4103 151.12 39.4103 151.12C39.4103 151.12 39.4103 151.12 39.4103 151.12C39.4103 151.12 39.4103 151.12 39.4103 151.12C39.4103 151.12 39.4103 151.12 39.4103 151.12C39.4103 151.12 39.4103 151.12 39.4103 151.12C39.4103 151.12 39.4103 151.12 39.4103 151.12C39.4103 151.12 39.4103 151.12 39.4103 151.12C39.4103 151.12 39.4103 151.12 39.4103 151.12C39.4103 151.12 39.4103 151.12 39.4103 151.12C39.4103 151.12 39.4103 151.12 39.4103 151.12C39.4103 151.12 39.4103 151.12 39.4103 151.12C39.4103 151.12 39.4103 151.12 39.4103 151.12C39.4103 151.12 39.4103 151.12 39.4103 151.12C39.4103 151.12 39.4103 151.12 39.4103 151.12C39.4103 151.12 39.4103 151.12 39.4103 151.12C39.4103 151.12 39.4103 151.12 39.4103 151.12C39.4103 151.12 39.4103 151.12 39.4103 151.12C39.4103 151.12 39.4103 151.12 39.4103 151.12C39.4103 151.12 39.4103 151.12 39.4103 151.12C39.4103 151.12 39.4103 151.12 39.4103 151.12C39.4103 151.12 39.4103 151.12 39.4103 151.12C39.4103 151.12 39.4103 151.12 39.4103 151.12C39.4103 151.12 39.4103 151.12 39.4103 151.12C39.4103 151.12 39.4103 151.12 39.4103 151.12C39.4103 151.12 39.4103 151.12 39.4103 151.12C39.4103 151.12 39.4103 151.12 39.4103 151.12C39.4103 151.12 39.4103 151.12 39.4103 151.12C39.4103 151.12 39.4103 151.12 39.4103 151.12C39.4103 151.12 39.4103 151.12 39.4103 151.12C39.4103 151.12 39.4103 151.12 39.4103 151.12C39.4103 151.12 39.4103 151.12 39.4103 151.12C39.4103 151.12 39.4103 151.12 39.4103 151.12C39.4103 151.12 39.4103 151.12 39.4103 151.12C39.4103 151.12 39.4103 151.12 39.4103 151.12C39.4103 151.12 39.4103 151.12 39.4103 151.12C39.4103 151.12 39.4103 151.12 39.4103 151.12C39.4103 151.12 39.4103 151.12 39.4103 151.12C39.4103 151.12 39.4103 151.12 39.4103 151.12C39.4103 151.12 39.4103 151.12 39.4103 151.12C39.4103 151.12 39.4103 151.12 39.4103 151.12C39.4103 151.12 39.4103 151.12 39.4103 151.12C39.4103 151.12 39.4103 151.12 39.4103 151.12C39.4103 151.12 39.4103 151.12 39.4103 151.12C39.4103 151.12 39.4103 151.12 39.4103 151.12C39.4103 151.12 39.4103 151.12 39.4103 151.12C39.4103 151.12 39.4103 151.12 39.4103 151.12C39.4103 151.12 39.4103 151.12 39.4103 151.12C39.4103 151.12 39.4103 151.12 39.4103 151.12C39.4103 151.12 39.4103 151.12 39.4103 151.12C39.4103 151.12 39.4103 151.12 39.4103 151.12C39.4103 151.12 39.4103 151.12 39.4103 151.12C39.4103 151.12 39.4103 151.12 39.4103 151.12C39.4103 151.12 39.4103 151.12 39.4103 151.12C39.4103 151.12 39.4103 151.12 39.4103 151.12C39.4103 151.12 39.4103 151.12 39.4103 151.12C39.4103 151.12 39.4103 151.12 39.4103 151.12C39.4103 151.12 39.4103 151.12 39.4103 151.12C39.4103 151.12 39.4103 151.12 39.4103 151.12C39.4103 151.12 39.4103 151.12 39.4103 151.12C39.4103 151.12 39.4103 151.12 39.4103 151.12C39.4103 151.12 39.4103 151.12 39.4103 151.12C39.4103 151.12 39.4103 151.12 39.4103 151.12C39.4103 151.12 39.4103 151.12 39.4103 151.12C39.4103 151.12 39.4103 151.12 39.4103 151.12C39.4103 151.12 39.4103 151.12 39.4103 151.12C39.4103 151.12 39.4103 151.12 39.4103 151.12C39.4103 151.12 39.4103 151.12 39.4103 151.12C39.4103 151.12 39.4103 151.12 39.4103 151.12C39.4103 151.12 39.4103 151.12 39.4103 151.12C39.4103 151.12 39.4103 151.12 39.4103 151.12C39.4103 151.12 39.4103 151.12 39.4103 151.12C39.4103 151.12 39.4103 151.12 39.4103 151.12C39.4103 151.12 39.4103 151.12 39.4103 151.12C39.4103 151.12 39.4103 151.12 39.4103 151.12C39.4103 151.12 39.4103 151.12 39.4103 151.12C39.4103 151.12 39.4103 151.12 39.4103 151.12C39.4103 151.12 39.4103 151.12 39.4103 151.12C39.4103 151.12 39.4103 151.12 39.4103 151.12C39.4103 151.12 39.4103 151.12 39.4103 151.12C39.4103 151.12 39.4103 151.12 39.4103 151.12C39.4103 151.12 39.4103 151.12 39.4103 151.12C39.4103 151.12 39.4103 151.12 39.4103 151.12C39.4103 151.12 39.4103 151.12 39.4103 151.12C39.4103 151.12 39.4103 151.12 39.4103 151.12C39.4103 151.12 39.4103 151.12 39.4103 151.12C39.4103 151.12 39.4103 151.12 39.4103 151.12C39.4103 151.12 39.4103 151.12 39.4103 151.12C39.4103 151.12 39.4103 151.12 39.4103 151.12C39.4103 151.12 39.4103 151.12 39.4103 151.12C39.4103 151.12 39.4103 151.12 39.4103 151.12C39.4103 151.12 39.4103 151.12 39.4103 151.12C39.4103 151.12 39.4103 151.12 39.4103 151.12C39.4103 151.12 39.4103 151.12 39.4103 151.12C39.4103 151.12 39.4103 151.12 39.4103 151.12C39.4103 151.12 39.4103 151.12 39.4103 151.12C39.4103 151.12 39.4103 151.12 39.4103 151.12C39.4103 151.12 39.4103 151.12 39.4103 151.12C39.4103 151.12 39.4103 151.12 39.4103 151.12C39.4103 151.12 39.4103 151.12 39.4103 151.12C39.4103 151.12 39.4103 151.12 39.4103 151.12C39.4103 151.12 39.4103 151.12 39.4103 151.12C39.4103 151.12 39.4103 151.12 39.4103 151.12C39.4103 151.12 39.4103 151.12 39.4103 151.12C39.4103 151.12 39.4103 151.12 39.4103 151.12C39.4103 151.12 39.4103 151.12 39.4103 151.12C39.4103 151.12 39.4103 151.12 39.4103 151.12C39.4103 151.12 39.4103 151.12 39.4103 151.12C39.4103 151.12 39.4103 151.12 39.4103 151.12C39.4103 151.12 39.4103 151.12 39.4103 151.12C39.4103 151.12 39.4103 151.12 39.4103 151.12C39.4103 151.12 39.4103 151.12 39.4103 151.12C39.4103 151.12 39.4103 151.12 39.4103 151.12C39.4103 151.12 39.4103 151.12 39.4103 151.12C39.4103 151.12 39.4103 151.12 39.4103 151.12C39.4103 151.12 39.4103 151.12 39.4103 151.12C39.4103 151.12 39.4103 151.12 39.4103 151.12C39.4103 151.12 39.4103 151.12 39.4103 151.12C39.4103 151.12 39.4103 151.12 39.4103 151.12C39.4103 151.12 39.4103 151.12 39.4103 151.12C39.4103 151.12 39.4103 151.12 39.4103 151.12C39.4103 151.12 39.4103 151.12 39.4103 151.12C39.4103 151.12 39.4103 151.12 39.4103 151.12C39.4103 151.12 39.4103 151.12 39.4103 151.12C39.4103 151.12 39.4103 151.12 39.4103 151.12C39.4103 151.12 39.4103 151.12 39.4103 151.12C39.4103 151.12 39.4103 151.12 39.4103 151.12C39.4103 151.12 39.4103 151.12 39.4103 151.12C39.4103 151.12 39.4103 151.12 39.4103 151.12C39.4103 151.12 39.4103 151.12 39.4103 151.12C39.4103 151.12 39.4103 151.12 39.4103 151.12C39.4103 151.12 39.4103 151.12 39.4103 151.12C39.4103 151.12 39.4103 151.12 39.4103 151.12C39.4103 151.12 39.4103 151.12 39.4103 151.12C39.4103 151.12 39.4103 151.12 39.4103 151.12C39.4103 151.12 39.4103 151.12 39.4103 151.12C39.4103 151.12 39.4103 151.12 39.4103 151.12C39.4103 151.12 39.4103 151.12 39.4103 151.12C39.4103 151.12 39.4103 151.12 39.4103 151.12C39.4103 151.12 39.4103 151.12 39.4103 151.12C39.4103 151.12 39.4103 151.12 39.4103 151.12C39.4103 151.12 39.4103 151.12 39.4103 151.12C39.4103 151.12 39.4103 151.12 39.4103 151.12C39.4103 151.12 39.4103 151.12 39.4103 151.12C39.4103 151.12 39.4103 151.12 39.4103 151.12C39.4103 151.12 39.4103 151.12 39.4103 151.12C39.4103 151.12 39.4103 151.12 39.4103 151.12C39.4103 151.12 39.4103 151.12 39.4103 151.12C39.4103 151.12 39.4103 151.12 39.4103 151.12C39.4103 151.12 39.4103 151.12 39.4103 151.12C39.4103 151.12 39.4103 151.12 39.4103 151.12C39.4103 151.12 39.4103 151.12 39.4103 151.12C39.4103 151.12 39.4103 151.12 39.4103 151.12C39.4103 151.12 39.4103 151.12 39.4103 151.12C39.4103 151.12 39.4103 151.12 39.4103 151.12C39.4103 151.12 39.4103 151.12 39.4103 151.12C39.4103 151.12 39.4103 151.12 39.4103 151.12C39.4103 151.12 39.4103 151.12 39.4103 151.12C39.4103 151.12 39.4103 151.12 39.4103 151.12C39.4103 151.12 39.4103 151.12 39.4103 151.12C39.4103 151.12 39.4103 151.12 39.4103 151.12C39.4103 151.12 39.4103 151.12 39.4103 151.12C39.4103 151.12 39.4103 151.12 39.4103 151.12C39.4103 151.12 39.4103 151.12 39.4103 151.12C39.4103 151.12 39.4103 151.12 39.4103 151.12C39.4103 151.12 39.4103 151.12 39.4103 151.12C39.4103 151.12 39.4103 151.12 39.4103 151.12C39.4103 151.12 39.4103 151.12 39.4103 151.12C39.4103 151.12 39.4103 151.12 39.4103 151.12C39.4103 151.12 39.4103 151.12 39.4103 151.12C39.4103 151.12 39.4103 151.12 39.4103 151.12C39.4103 151.12 39.4103 151.12 39.4103 151.12C39.4103 151.12 39.4103 151.12 39.4103 151.12C39.4103 151.12 39.4103 151.12 45.4103 151.12ZM45.4103 151.11L50.1115 147.382C44.496 140.301 41.2023 131.781 41.0097 122.184L35.0109 122.305L29.0121 122.425C29.2597 134.764 33.5376 145.795 40.7091 154.838L45.4103 151.11ZM35.0109 122.305L36.0966 116.404C32.1396 115.676 28.3638 114.237 24.9247 112.469L22.1818 117.806L19.4388 123.142C23.6677 125.316 28.5634 127.219 33.9252 128.206L35.0109 122.305ZM22.1818 117.806L24.9233 112.469C22.8744 111.416 22.1059 109.702 22.4194 107.534C22.763 105.157 24.5525 102.105 28.3458 100.062L25.5011 94.7793L22.6564 89.4965C15.8972 93.1363 11.4895 99.2669 10.5428 105.817C9.56602 112.575 12.4142 119.534 19.4402 123.143L22.1818 117.806ZM25.5011 94.7793L22.5243 99.9888L22.5311 99.9927L25.5079 94.7832L28.4848 89.5737L28.4779 89.5698L25.5011 94.7793ZM25.5079 94.7832L28.3524 100.066L59.8241 83.1208L56.9796 77.8379L54.1351 72.555L22.6635 89.5003L25.5079 94.7832ZM56.9796 77.8379L59.8242 83.1207C60.2937 82.8679 60.7542 82.6632 61.2 82.502L59.1603 76.8594L57.1205 71.2167C56.1043 71.5841 55.1066 72.0319 54.135 72.5551L56.9796 77.8379ZM59.1603 76.8594L65.1602 76.8926C65.1637 76.2585 65.2003 69.6464 65.2003 66.8398H59.2003H53.2003C53.2003 69.6046 53.164 76.1751 53.1604 76.8261L59.1603 76.8594ZM59.2003 66.8398L65.2003 66.8399C65.2003 65.4616 65.2593 64.1003 65.3703 62.7572L59.3907 62.2627L53.4112 61.7682C53.2739 63.4277 53.2003 65.1192 53.2003 66.8398L59.2003 66.8398ZM59.3907 62.2627L63.0265 57.4897C63.1534 57.5864 63.2536 57.7104 63.3243 57.8775C63.3997 58.0555 63.4667 58.3513 63.3998 58.72L57.4962 57.6484L51.5927 56.5769C50.8205 60.8313 52.7939 64.7801 55.755 67.0357L59.3907 62.2627ZM57.4962 57.6484L63.3996 58.7206C63.3442 59.0257 63.2695 59.2435 63.225 59.3591C63.1787 59.4793 63.1429 59.5464 63.1369 59.5575C63.129 59.5721 63.1786 59.4808 63.3247 59.2934C63.6193 58.9155 64.1041 58.406 64.7302 57.8927L60.9259 53.2529L57.1216 48.6132C55.899 49.6156 54.7695 50.7501 53.8617 51.9142C53.0948 52.8976 51.9591 54.5591 51.5928 56.5763L57.4962 57.6484ZM60.9259 53.2529L66.7286 54.779C71.3002 37.3953 85.442 26 101.75 26L101.75 20L101.75 14C79.411 14.0001 60.9286 29.6521 55.1232 51.7269L60.9259 53.2529Z" fill="white" mask="url(#path-1-outside-1_1062_16075)"/>
<path d="M25.5073 94.7833L56.9795 77.8378C64.6642 73.6998 73.3618 76.7441 74.1611 83.8715C75.4085 94.9951 73.6728 110.245 57.8812 118.746C44.691 125.845 31.8437 122.772 22.1815 117.805C13.1065 113.144 14.9482 100.462 25.5007 94.7791L25.5073 94.7833Z" fill="#276286"/>
<path d="M125.591 161.678C124.844 161.892 124.393 162.635 124.527 163.383L124.561 163.533L128.84 178.483L123.391 181.982C122.694 182.43 122.491 183.358 122.938 184.055C123.386 184.752 124.313 184.954 125.01 184.507L129.647 181.53L131.198 187.652C131.402 188.454 132.218 188.94 133.021 188.737C133.824 188.533 134.31 187.717 134.106 186.914L132.648 181.161L138.372 182.528C139.143 182.83 140.014 182.449 140.316 181.678C140.618 180.907 140.237 180.036 139.466 179.734L131.794 177.903L127.446 162.708L127.396 162.562C127.114 161.857 126.337 161.465 125.591 161.678Z" fill="#474747"/>
<path d="M82.0334 161.8C82.3875 161.127 83.2008 160.819 83.9211 161.109C84.6893 161.419 85.0612 162.293 84.7512 163.061L79.0676 177.144L84.1867 184.796C84.6473 185.484 84.4629 186.416 83.7746 186.877C83.0863 187.337 82.1542 187.153 81.6936 186.465L77.4318 180.096L72.4582 188.167C72.0237 188.872 71.099 189.091 70.3938 188.657C69.6888 188.223 69.4693 187.299 69.9035 186.594L74.1779 179.656L66.8606 181.467L66.7092 181.496C65.9568 181.603 65.2306 181.124 65.0442 180.37C64.8455 179.566 65.336 178.753 66.1399 178.554L76.2756 176.048L81.969 161.938L82.0334 161.8Z" fill="#474747"/>
<path d="M168.46 121.29C168.46 132.67 164.64 142.8 158.05 151.11C146.56 165.6 126.66 174.59 103.88 175.12C103.17 175.14 102.45 175.15 101.73 175.15C101.01 175.15 100.29 175.15 99.58 175.12C76.8 174.59 56.9 165.6 45.41 151.12C45.41 151.12 45.41 151.12 45.41 151.11C38.82 142.8 35 132.67 35 121.29C35 103.43 44.41 87.48 59.16 76.91C59.16 76.91 59.2 69.77 59.2 66.84C59.2 40 78.25 20 101.75 20C125.25 20 144.29 40 144.29 66.84C144.29 69.76 143.24 76.63 143.24 76.63C158.01 87.2 168.49 103.43 168.49 121.29H168.46Z" fill="#4B98E6"/>
<path d="M107.71 87.6795C109.817 91.9196 99.9853 104.64 92.9628 111C66.9796 94.7463 75.4066 86.2661 80.3223 84.8527C85.2381 83.4394 88.4888 86.88 92 89C96.5 83.5 104.143 80.5 107.71 87.6795Z" fill="#F8BDBD"/>
<path d="M79.5802 57.84C83.9543 57.84 87.5002 54.2941 87.5002 49.92C87.5002 45.5459 83.9543 42 79.5802 42C75.2061 42 71.6602 45.5459 71.6602 49.92C71.6602 54.2941 75.2061 57.84 79.5802 57.84Z" fill="white"/>
<path d="M79.4572 54.7253C82.0796 54.7253 84.2054 52.5994 84.2054 49.9771C84.2054 47.3547 82.0796 45.2289 79.4572 45.2289C76.8348 45.2289 74.709 47.3547 74.709 49.9771C74.709 52.5994 76.8348 54.7253 79.4572 54.7253Z" fill="black"/>
<path d="M123.31 57.84C127.684 57.84 131.23 54.2941 131.23 49.92C131.23 45.5459 127.684 42 123.31 42C118.936 42 115.39 45.5459 115.39 49.92C115.39 54.2941 118.936 57.84 123.31 57.84Z" fill="white"/>
<path d="M123.187 54.7253C125.809 54.7253 127.935 52.5994 127.935 49.9771C127.935 47.3547 125.809 45.2289 123.187 45.2289C120.564 45.2289 118.438 47.3547 118.438 49.9771C118.438 52.5994 120.564 54.7253 123.187 54.7253Z" fill="black"/>
<path d="M110.976 55.6686C110.682 59.5569 105.426 65.2635 101.242 64.9906C97.0576 64.7176 92.717 58.3801 93.0145 54.4919C93.3082 50.6036 96.2871 47.6298 102.531 48.0374C108.847 48.4521 111.273 51.7804 110.976 55.6686Z" fill="#EAC00F"/>
<path d="M137.894 81.5786L102.919 88.9544C94.3792 90.7552 89.702 98.6949 93.6927 104.654C99.921 113.955 111.091 124.48 128.64 120.779C143.296 117.685 151.123 107.044 155.296 97.0138C159.218 87.5952 149.624 79.0986 137.897 81.5712L137.894 81.5786Z" fill="#276286"/>
<path d="M136.981 80.653C131.503 75.2593 135.962 63.9897 138.355 60.1299C145.028 62.2476 151.425 71.8366 151.286 75.5722C151.056 81.7983 142.902 86.4837 136.981 80.653Z" fill="#E3ECF7"/>
<path d="M135.526 54.9251C132.252 52.8679 133.224 46.8506 133.982 44.696C137.489 45.0149 141.667 49.0334 142.003 50.8833C142.563 53.9663 139.064 57.149 135.526 54.9251Z" fill="#E3ECF7"/>
<path d="M65.0671 62.3729C68.8934 59.9684 67.7573 52.9351 66.8707 50.4167C62.7721 50.7895 57.8884 55.4865 57.496 57.6486C56.8419 61.2522 60.9308 64.9722 65.0671 62.3729Z" fill="#E3ECF7"/>
</svg>
