<svg width="200" height="200" viewBox="0 0 200 200" fill="none" xmlns="http://www.w3.org/2000/svg">
<mask id="path-1-outside-1_1062_26051" maskUnits="userSpaceOnUse" x="22" y="15" width="155" height="170" fill="black">
<rect fill="white" x="22" y="15" width="155" height="170"/>
<path d="M76.6251 21C80.3939 21 83.8821 22.9689 85.7384 26.2314L99.5382 48.9131L113.304 26.2871C115.216 23.0247 118.648 21.0566 122.417 21.0566H159.426C167.526 21.0566 172.7 29.8309 168.65 36.9746C161.282 50.0809 150.819 61.2193 138.163 69.4316C136.175 70.9748 133.98 72.1888 131.652 73.0469C146.334 83.4993 155.946 100.908 155.946 120.618C155.946 152.585 130.662 178.499 99.4718 178.499C68.2812 178.499 42.9962 152.585 42.9962 120.618C42.9962 100.868 52.6485 83.4276 67.3819 72.9824C65.0546 72.1248 62.855 70.9135 60.8731 69.375C48.2731 61.1626 37.8099 50.0252 30.3849 36.9189C26.3912 29.8315 31.5101 21.0569 39.6661 21.0566H40.5011C40.4905 21.0377 40.4794 21.019 40.4689 21H76.6251Z"/>
</mask>
<path d="M76.6251 21C80.3939 21 83.8821 22.9689 85.7384 26.2314L99.5382 48.9131L113.304 26.2871C115.216 23.0247 118.648 21.0566 122.417 21.0566H159.426C167.526 21.0566 172.7 29.8309 168.65 36.9746C161.282 50.0809 150.819 61.2193 138.163 69.4316C136.175 70.9748 133.98 72.1888 131.652 73.0469C146.334 83.4993 155.946 100.908 155.946 120.618C155.946 152.585 130.662 178.499 99.4718 178.499C68.2812 178.499 42.9962 152.585 42.9962 120.618C42.9962 100.868 52.6485 83.4276 67.3819 72.9824C65.0546 72.1248 62.855 70.9135 60.8731 69.375C48.2731 61.1626 37.8099 50.0252 30.3849 36.9189C26.3912 29.8315 31.5101 21.0569 39.6661 21.0566H40.5011C40.4905 21.0377 40.4794 21.019 40.4689 21H76.6251Z" fill="#EAC00F"/>
<path d="M85.7384 26.2314L80.5234 29.1986C80.5524 29.2495 80.5821 29.3 80.6125 29.3501L85.7384 26.2314ZM99.5382 48.9131L94.4124 52.0317C95.501 53.821 97.4438 54.9131 99.5382 54.9131C101.633 54.9131 103.575 53.8209 104.664 52.0317L99.5382 48.9131ZM113.304 26.2871L118.43 29.4057C118.447 29.3778 118.463 29.3497 118.48 29.3215L113.304 26.2871ZM168.65 36.9746L163.431 34.0156C163.427 34.0217 163.424 34.0279 163.42 34.0341L168.65 36.9746ZM138.163 69.4316L134.897 64.3984C134.755 64.4904 134.618 64.5884 134.484 64.6921L138.163 69.4316ZM131.652 73.0469L129.577 67.4172C127.49 68.1866 126 70.0477 125.705 72.2527C125.411 74.4577 126.36 76.6446 128.173 77.9347L131.652 73.0469ZM155.946 120.618L161.946 120.618L161.946 120.618L155.946 120.618ZM99.4718 178.499L99.4718 184.499L99.4718 184.499L99.4718 178.499ZM42.9962 120.618L36.9962 120.618V120.618H42.9962ZM67.3819 72.9824L70.852 77.8772C72.6686 76.5893 73.6226 74.4013 73.3299 72.1938C73.0372 69.9864 71.5461 68.1225 69.4566 67.3525L67.3819 72.9824ZM60.8731 69.375L64.5524 64.6355C64.4221 64.5343 64.2876 64.4385 64.1494 64.3484L60.8731 69.375ZM30.3849 36.9189L25.1576 39.8644L25.1644 39.8765L30.3849 36.9189ZM39.6661 21.0566L39.6661 15.0566L39.666 15.0566L39.6661 21.0566ZM40.5011 21.0566V27.0566C42.627 27.0566 44.5942 25.9317 45.6723 24.0994C46.7504 22.2671 46.7785 20.0012 45.746 18.1428L40.5011 21.0566ZM40.4689 21V15C38.3435 15 36.3768 16.1243 35.2985 17.9558C34.2202 19.7872 34.1912 22.0525 35.2223 23.9109L40.4689 21ZM76.6251 21V27C78.3079 27 79.7686 27.872 80.5234 29.1986L85.7384 26.2314L90.9534 23.2643C87.9956 18.0659 82.4798 15 76.6251 15V21ZM85.7384 26.2314L80.6125 29.3501L94.4124 52.0317L99.5382 48.9131L104.664 45.7945L90.8642 23.1128L85.7384 26.2314ZM99.5382 48.9131L104.664 52.0317L118.43 29.4057L113.304 26.2871L108.178 23.1685L94.4123 45.7945L99.5382 48.9131ZM113.304 26.2871L118.48 29.3215C119.319 27.8909 120.784 27.0566 122.417 27.0566V21.0566V15.0566C116.513 15.0566 111.114 18.1585 108.128 23.2527L113.304 26.2871ZM122.417 21.0566V27.0566H159.426V21.0566V15.0566H122.417V21.0566ZM159.426 21.0566V27.0566C162.934 27.0566 165.21 30.8772 163.431 34.0156L168.65 36.9746L173.87 39.9336C180.191 28.7846 172.117 15.0566 159.426 15.0566V21.0566ZM168.65 36.9746L163.42 34.0341C156.529 46.2912 146.742 56.7126 134.897 64.3984L138.163 69.4316L141.429 74.4649C154.897 65.7259 166.034 53.8705 173.881 39.9151L168.65 36.9746ZM138.163 69.4316L134.484 64.6921C132.983 65.8572 131.329 66.7713 129.577 67.4172L131.652 73.0469L133.728 78.6766C136.631 77.6062 139.367 76.0924 141.842 74.1712L138.163 69.4316ZM131.652 73.0469L128.173 77.9347C141.309 87.287 149.946 102.893 149.946 120.618L155.946 120.618L161.946 120.618C161.946 98.9238 151.36 79.7117 135.132 68.159L131.652 73.0469ZM155.946 120.618H149.946C149.946 149.411 127.21 172.499 99.4718 172.499L99.4718 178.499L99.4718 184.499C134.114 184.499 161.946 155.759 161.946 120.618H155.946ZM99.4718 178.499V172.499C71.733 172.499 48.9962 149.411 48.9962 120.618H42.9962H36.9962C36.9962 155.759 64.8293 184.499 99.4718 184.499V178.499ZM42.9962 120.618L48.9962 120.618C48.9962 102.856 57.6695 87.2228 70.852 77.8772L67.3819 72.9824L63.9118 68.0877C47.6274 79.6324 36.9962 98.8787 36.9962 120.618L42.9962 120.618ZM67.3819 72.9824L69.4566 67.3525C67.6975 66.7043 66.0406 65.7907 64.5524 64.6355L60.8731 69.375L57.1939 74.1145C59.6693 76.0362 62.4116 77.5452 65.3072 78.6123L67.3819 72.9824ZM60.8731 69.375L64.1494 64.3484C52.3546 56.6609 42.5577 46.2334 35.6053 33.9614L30.3849 36.9189L25.1644 39.8765C33.062 53.817 44.1917 65.6643 57.5969 74.4016L60.8731 69.375ZM30.3849 36.9189L35.6121 33.9735C33.8731 30.8874 36.0992 27.0567 39.6663 27.0566L39.6661 21.0566L39.666 15.0566C26.921 15.057 18.9093 28.7757 25.1576 39.8644L30.3849 36.9189ZM39.6661 21.0566V27.0566H40.5011V21.0566V15.0566H39.6661V21.0566ZM40.5011 21.0566L45.746 18.1428C45.7286 18.1114 45.7137 18.0853 45.7038 18.0678C45.6944 18.0514 45.6859 18.0367 45.6844 18.034C45.6808 18.0279 45.6841 18.0335 45.6884 18.041C45.6933 18.0495 45.703 18.0667 45.7154 18.0891L40.4689 21L35.2223 23.9109C35.24 23.9428 35.255 23.9694 35.2653 23.9874C35.275 24.0043 35.2836 24.0194 35.2856 24.0227C35.2894 24.0294 35.2863 24.024 35.2824 24.0172C35.2778 24.0091 35.2683 23.9924 35.2561 23.9705L40.5011 21.0566ZM40.4689 21V27H76.6251V21V15H40.4689V21Z" fill="white" mask="url(#path-1-outside-1_1062_26051)"/>
<path d="M106.998 74.4937C105.873 74.3812 104.748 74.2687 103.623 74.0437C96.6475 72.8062 90.1225 69.6562 84.835 64.8188C69.4225 52.95 51.0287 37.9875 41.6349 21.0563H39.6662C31.5099 21.0563 26.3912 29.8313 30.3849 36.9188C37.8099 50.0251 48.2724 61.1625 60.8724 69.375C65.1474 72.6937 70.435 74.4937 75.835 74.4937H106.998Z" fill="#0074BA"/>
<path d="M103.678 73.2816L100.419 50.3624L85.7382 26.2312C83.8819 22.9687 80.3939 21 76.6251 21H64.375L99.3355 74.2997C98.7966 74.3734 98.2578 74.4398 97.7194 74.4938V74.55H123.201C128.657 74.55 133.888 72.75 138.163 69.4312C150.819 61.2189 161.282 50.0813 168.651 36.9751C172.701 29.8313 167.526 21.0563 159.426 21.0563H157.457C142.213 36.9751 124.044 52.9501 108.632 64.8188C106.283 66.9675 105.91 68.7838 105.609 70.2469C105.344 71.5373 105.135 72.5531 103.678 73.2816Z" fill="#F8312F"/>
<path d="M102.695 66.342L103.711 73.4857C109.697 71.9861 115.264 69.047 119.886 64.8188C135.298 52.95 148.067 37.9875 157.461 21.0563H131.755L102.695 66.342Z" fill="#D3D3D3"/>
<path d="M101.637 74.4938H101.377L102.503 75.8438L101.637 74.4938Z" fill="#D3D3D3"/>
<path d="M99.3501 74.3182C98.8068 74.3852 98.2628 74.4392 97.7194 74.4938L96.5944 75.8438L97.7751 74.0033C90.8851 72.7382 84.4433 69.6039 79.2132 64.8188C63.8004 52.9501 49.8625 37.9312 40.4688 21H65.1504L99.3501 74.3182Z" fill="#D3D3D3"/>
<path d="M133.891 21.0563H122.416C118.648 21.0563 115.216 23.0251 113.304 26.2876L83.9414 74.55H99.5789L133.891 21.0563Z" fill="#00A6ED"/>
<path d="M102.952 97.8939L107.62 107.569C108.183 108.694 109.252 109.538 110.489 109.706L120.895 111.281C123.989 111.731 125.283 115.669 122.977 117.919L115.777 125.119C114.708 126.188 114.37 127.763 114.82 129.225L118.139 138.844C119.264 142.05 116.114 145.088 113.02 143.738L100.983 138.338C100.027 137.888 98.9016 137.888 97.9453 138.338L85.9078 143.738C82.8703 145.088 79.6641 142.05 80.7891 138.844L84.1078 129.225C84.6141 127.763 84.2203 126.188 83.1516 125.119L75.9516 117.919C73.7016 115.669 74.9391 111.731 78.0328 111.281L88.4391 109.706C89.6766 109.538 90.7453 108.75 91.3078 107.569L95.9766 97.8939C97.4953 94.9689 101.545 94.9689 102.952 97.8939Z" fill="#D3883E"/>
<path d="M99.4713 178.499C130.661 178.499 155.946 152.585 155.946 120.618C155.946 88.6513 130.661 62.7371 99.4713 62.7371C68.2806 62.7371 42.9961 88.6513 42.9961 120.618C42.9961 152.585 68.2806 178.499 99.4713 178.499Z" fill="#4B9AE8"/>
<path d="M99.5301 171.524C86.2551 171.524 73.7676 166.237 64.4301 156.618C55.0364 146.999 49.8613 134.231 49.8613 120.618C49.8613 107.006 55.0364 94.2369 64.4301 84.6181C83.7801 64.7616 115.28 64.7616 134.686 84.6181C154.036 104.474 154.036 136.762 134.686 156.618C125.236 166.237 112.749 171.524 99.5301 171.524ZM99.4738 76.6306C88.5051 76.6306 77.4801 80.9056 69.1551 89.5119C61.0551 97.8369 56.6113 108.862 56.6113 120.618C56.6113 132.374 61.0551 143.399 69.1551 151.724C77.2551 160.049 88.0551 164.606 99.4738 164.606C110.949 164.606 121.693 160.049 129.793 151.724C146.499 134.568 146.499 106.668 129.793 89.5119C121.468 80.9056 110.499 76.6306 99.4738 76.6306Z" fill="#266FB7"/>
<mask id="path-12-outside-2_1062_26051" maskUnits="userSpaceOnUse" x="72.1641" y="95.4976" width="54" height="49" fill="black">
<rect fill="white" x="72.1641" y="95.4976" width="54" height="49"/>
<path d="M101.04 99.4976C112.268 99.4976 121.369 108.599 121.369 119.827C121.369 131.054 112.268 140.156 101.04 140.156C91.624 140.156 83.7044 133.754 81.3938 125.065C79.2358 124.859 76.6787 123.533 76.2385 121.802C75.6722 119.573 78.4515 116.029 80.6614 115.389C80.8501 115.335 81.0385 115.291 81.2259 115.26C83.2982 106.232 91.3829 99.4976 101.04 99.4976Z"/>
</mask>
<path d="M101.04 99.4976C112.268 99.4976 121.369 108.599 121.369 119.827C121.369 131.054 112.268 140.156 101.04 140.156C91.624 140.156 83.7044 133.754 81.3938 125.065C79.2358 124.859 76.6787 123.533 76.2385 121.802C75.6722 119.573 78.4515 116.029 80.6614 115.389C80.8501 115.335 81.0385 115.291 81.2259 115.26C83.2982 106.232 91.3829 99.4976 101.04 99.4976Z" fill="#DFB820"/>
<path d="M101.04 99.4976L101.04 95.5405L101.04 95.5405L101.04 99.4976ZM121.369 119.827L125.326 119.827L125.326 119.827L121.369 119.827ZM101.04 140.156L101.04 144.113H101.04V140.156ZM81.3938 125.065L85.218 124.048L84.5106 121.388L81.7703 121.126L81.3938 125.065ZM76.2385 121.802L72.4033 122.777L72.4035 122.777L76.2385 121.802ZM80.6614 115.389L79.5608 111.588L79.5607 111.588L80.6614 115.389ZM81.2259 115.26L81.8751 119.164L84.4897 118.729L85.0826 116.146L81.2259 115.26ZM101.04 99.4976V103.455C110.082 103.455 117.412 110.785 117.412 119.827L121.369 119.827L125.326 119.827C125.326 106.414 114.453 95.5405 101.04 95.5405V99.4976ZM121.369 119.827H117.412C117.412 128.869 110.082 136.199 101.04 136.199V140.156V144.113C114.453 144.113 125.326 133.24 125.326 119.827H121.369ZM101.04 140.156L101.04 136.199C93.4627 136.199 87.0792 131.047 85.218 124.048L81.3938 125.065L77.5697 126.082C80.3296 136.46 89.7853 144.113 101.04 144.113L101.04 140.156ZM81.3938 125.065L81.7703 121.126C81.2773 121.079 80.6603 120.881 80.1951 120.605C79.9748 120.474 79.8772 120.377 79.8615 120.36C79.8442 120.34 79.9877 120.489 80.0736 120.827L76.2385 121.802L72.4035 122.777C72.9986 125.118 74.7932 126.6 76.1488 127.406C77.6117 128.276 79.3522 128.845 81.0173 129.004L81.3938 125.065ZM76.2385 121.802L80.0738 120.828C80.1784 121.24 80.0668 121.405 80.1393 121.185C80.2015 120.995 80.3503 120.685 80.6151 120.319C80.8748 119.96 81.1764 119.644 81.4539 119.419C81.7589 119.171 81.8798 119.156 81.7621 119.19L80.6614 115.389L79.5607 111.588C77.2753 112.25 75.3713 114.065 74.2026 115.681C73.5671 116.559 72.9892 117.593 72.6206 118.715C72.2621 119.806 72.0155 121.25 72.4033 122.777L76.2385 121.802ZM80.6614 115.389L81.762 119.19C81.809 119.176 81.8467 119.168 81.8751 119.164L81.2259 115.26L80.5766 111.357C80.2303 111.414 79.8913 111.493 79.5608 111.588L80.6614 115.389ZM81.2259 115.26L85.0826 116.146C86.7515 108.875 93.2678 103.455 101.04 103.455L101.04 99.4976L101.04 95.5405C89.4981 95.5405 79.8449 103.589 77.3691 114.375L81.2259 115.26Z" fill="white" mask="url(#path-12-outside-2_1062_26051)"/>
<path d="M101.042 140.156C112.27 140.156 121.371 131.054 121.371 119.827C121.371 108.599 112.27 99.4976 101.042 99.4976C89.8146 99.4976 80.7129 108.599 80.7129 119.827C80.7129 131.054 89.8146 140.156 101.042 140.156Z" fill="#4B98E6"/>
<circle cx="93.5921" cy="114.506" r="5.3206" fill="white"/>
<circle cx="93.5947" cy="114.505" r="3.19236" fill="#161616"/>
<circle cx="93.5947" cy="114.505" r="3.19236" fill="#161616"/>
<path d="M83.1456 124.942C80.9582 125.579 76.9255 124.013 76.3612 121.784C75.7968 119.554 78.537 116.016 80.7196 115.381C82.9023 114.745 85.0472 115.685 85.8877 119.007C86.7394 122.368 85.3283 124.307 83.1409 124.943L83.1456 124.942Z" fill="#EAC00F"/>
</svg>
