<svg width="200" height="200" viewBox="0 0 200 200" fill="none" xmlns="http://www.w3.org/2000/svg">
<mask id="path-1-outside-1_1062_16442" maskUnits="userSpaceOnUse" x="24.4438" y="20" width="151" height="162" fill="black">
<rect fill="white" x="24.4438" y="20" width="151" height="162"/>
<path d="M99.7749 26C108.88 26 117.895 27.7932 126.307 31.2773C134.719 34.7616 142.362 39.8686 148.8 46.3066C155.238 52.7446 160.344 60.3882 163.829 68.7998C167.313 77.2113 169.107 86.2265 169.107 95.3311C169.107 144.287 146.572 135.179 146.572 164.584C146.572 170.237 140.094 175.027 134.441 175.027C123.527 175.027 121.564 167.922 120.897 161.719C120.763 160.636 120.238 159.639 119.421 158.916C118.605 158.193 117.551 157.793 116.46 157.792C115.253 157.792 114.094 158.272 113.24 159.126C112.386 159.98 111.907 161.139 111.907 162.347C111.907 165.564 110.628 168.65 108.353 170.925C106.078 173.2 102.992 174.478 99.7749 174.478C96.5579 174.477 93.4726 173.199 91.1978 170.925C88.9228 168.65 87.6441 165.564 87.644 162.347C87.644 161.139 87.1641 159.98 86.3101 159.126C85.4561 158.272 84.2979 157.792 83.0903 157.792C81.9995 157.793 80.9463 158.193 80.1294 158.916C79.3125 159.639 78.7878 160.636 78.6538 161.719C77.9864 167.922 76.0233 175.027 65.1099 175.027C59.4566 175.027 52.978 170.237 52.978 164.584C52.9779 135.179 30.4438 144.287 30.4438 95.3311C30.4439 76.9433 37.7484 59.3087 50.7505 46.3066C63.7526 33.3046 81.3872 26.0001 99.7749 26Z"/>
</mask>
<path d="M99.7749 26C108.88 26 117.895 27.7932 126.307 31.2773C134.719 34.7616 142.362 39.8686 148.8 46.3066C155.238 52.7446 160.344 60.3882 163.829 68.7998C167.313 77.2113 169.107 86.2265 169.107 95.3311C169.107 144.287 146.572 135.179 146.572 164.584C146.572 170.237 140.094 175.027 134.441 175.027C123.527 175.027 121.564 167.922 120.897 161.719C120.763 160.636 120.238 159.639 119.421 158.916C118.605 158.193 117.551 157.793 116.46 157.792C115.253 157.792 114.094 158.272 113.24 159.126C112.386 159.98 111.907 161.139 111.907 162.347C111.907 165.564 110.628 168.65 108.353 170.925C106.078 173.2 102.992 174.478 99.7749 174.478C96.5579 174.477 93.4726 173.199 91.1978 170.925C88.9228 168.65 87.6441 165.564 87.644 162.347C87.644 161.139 87.1641 159.98 86.3101 159.126C85.4561 158.272 84.2979 157.792 83.0903 157.792C81.9995 157.793 80.9463 158.193 80.1294 158.916C79.3125 159.639 78.7878 160.636 78.6538 161.719C77.9864 167.922 76.0233 175.027 65.1099 175.027C59.4566 175.027 52.978 170.237 52.978 164.584C52.9779 135.179 30.4438 144.287 30.4438 95.3311C30.4439 76.9433 37.7484 59.3087 50.7505 46.3066C63.7526 33.3046 81.3872 26.0001 99.7749 26Z" fill="black"/>
<path d="M99.7749 26L99.7749 20L99.7749 20L99.7749 26ZM126.307 31.2773L128.603 25.7341L128.603 25.7341L126.307 31.2773ZM148.8 46.3066L153.043 42.064L153.043 42.064L148.8 46.3066ZM163.829 68.7998L169.372 66.5037L169.372 66.5037L163.829 68.7998ZM169.107 95.3311L175.107 95.3311L175.107 95.331L169.107 95.3311ZM146.572 164.584L140.572 164.584V164.584H146.572ZM134.441 175.027L134.441 181.027H134.441V175.027ZM120.897 161.719L126.863 161.077C126.859 161.045 126.855 161.014 126.852 160.982L120.897 161.719ZM119.421 158.916L123.398 154.423L123.398 154.423L119.421 158.916ZM116.46 157.792L116.468 151.792H116.46V157.792ZM113.24 159.126L108.997 154.883L108.997 154.883L113.24 159.126ZM111.907 162.347L117.907 162.347V162.347L111.907 162.347ZM108.353 170.925L112.596 175.168L112.596 175.167L108.353 170.925ZM99.7749 174.478L99.7747 180.478H99.7749V174.478ZM91.1978 170.925L86.9551 175.167L86.9553 175.168L91.1978 170.925ZM87.644 162.347L81.644 162.347L81.644 162.347L87.644 162.347ZM86.3101 159.126L90.5527 154.883L90.5523 154.883L86.3101 159.126ZM83.0903 157.792L83.0906 151.792L83.0831 151.792L83.0903 157.792ZM80.1294 158.916L76.1532 154.423L76.1531 154.423L80.1294 158.916ZM78.6538 161.719L72.6992 160.982C72.6953 161.014 72.6917 161.045 72.6882 161.077L78.6538 161.719ZM65.1099 175.027L65.1099 181.027L65.1099 181.027L65.1099 175.027ZM52.978 164.584L58.978 164.584L58.978 164.584L52.978 164.584ZM30.4438 95.3311L24.4438 95.331V95.3311H30.4438ZM50.7505 46.3066L46.5078 42.064L46.5078 42.064L50.7505 46.3066ZM99.7749 26V32C108.092 32 116.327 33.638 124.011 36.8206L126.307 31.2773L128.603 25.7341C119.464 21.9483 109.667 20 99.7749 20V26ZM126.307 31.2773L124.011 36.8206C131.695 40.0033 138.677 44.6685 144.558 50.5493L148.8 46.3066L153.043 42.064C146.048 35.0688 137.743 29.5198 128.603 25.7341L126.307 31.2773ZM148.8 46.3066L144.558 50.5493C150.438 56.4298 155.103 63.4119 158.285 71.0959L163.829 68.7998L169.372 66.5037C165.586 57.3645 160.038 49.0594 153.043 42.064L148.8 46.3066ZM163.829 68.7998L158.285 71.0959C161.468 78.7798 163.107 87.0148 163.107 95.3311L169.107 95.3311L175.107 95.331C175.107 85.4382 173.157 75.6428 169.372 66.5037L163.829 68.7998ZM169.107 95.3311H163.107C163.107 107.121 161.749 115.074 159.881 120.813C158.038 126.474 155.612 130.256 153.038 133.691C150.609 136.933 147.187 140.844 144.774 145.465C142.166 150.461 140.572 156.376 140.572 164.584L146.572 164.584L152.572 164.584C152.572 158.09 153.795 154.116 155.412 151.02C157.224 147.549 159.436 145.164 162.641 140.887C165.701 136.804 168.909 131.846 171.291 124.527C173.648 117.286 175.107 108.019 175.107 95.3311H169.107ZM146.572 164.584H140.572C140.572 165.058 140.254 166.114 138.826 167.283C137.416 168.437 135.693 169.027 134.441 169.027V175.027V181.027C138.842 181.027 143.185 179.223 146.427 176.568C149.651 173.929 152.572 169.764 152.572 164.584H146.572ZM134.441 175.027L134.441 169.027C130.44 169.027 129.176 167.823 128.604 167.07C127.721 165.906 127.178 164.008 126.863 161.077L120.897 161.719L114.931 162.361C115.283 165.633 116.056 170.388 119.049 174.328C122.354 178.679 127.528 181.027 134.441 181.027L134.441 175.027ZM120.897 161.719L126.852 160.982C126.538 158.449 125.311 156.116 123.398 154.423L119.421 158.916L115.445 163.409C115.166 163.162 114.988 162.823 114.942 162.456L120.897 161.719ZM119.421 158.916L123.398 154.423C121.485 152.731 119.021 151.795 116.468 151.792L116.46 157.792L116.453 163.792C116.082 163.792 115.724 163.656 115.445 163.409L119.421 158.916ZM116.46 157.792V151.792C113.662 151.792 110.977 152.904 108.997 154.883L113.24 159.126L117.482 163.369C117.211 163.64 116.844 163.792 116.46 163.792V157.792ZM113.24 159.126L108.997 154.883C107.015 156.865 105.907 159.551 105.907 162.347L111.907 162.347L117.907 162.347C117.907 162.727 117.756 163.095 117.482 163.369L113.24 159.126ZM111.907 162.347L105.907 162.347C105.907 163.972 105.261 165.532 104.11 166.682L108.353 170.925L112.596 175.167C115.995 171.768 117.907 167.156 117.907 162.347L111.907 162.347ZM108.353 170.925L104.111 166.682C102.961 167.831 101.401 168.478 99.7749 168.478V174.478V180.478C104.583 180.478 109.195 178.568 112.596 175.168L108.353 170.925ZM99.7749 174.478L99.7751 168.478C98.1493 168.477 96.59 167.832 95.4402 166.682L91.1978 170.925L86.9553 175.168C90.3553 178.567 94.9665 180.477 99.7747 180.478L99.7749 174.478ZM91.1978 170.925L95.4404 166.682C94.2902 165.532 93.6441 163.972 93.644 162.347L87.644 162.347L81.644 162.347C81.6441 167.156 83.5554 171.768 86.9551 175.167L91.1978 170.925ZM87.644 162.347L93.644 162.347C93.644 159.548 92.5321 156.863 90.5527 154.883L86.3101 159.126L82.0674 163.369C81.7961 163.097 81.644 162.73 81.644 162.347L87.644 162.347ZM86.3101 159.126L90.5523 154.883C88.5742 152.905 85.8907 151.792 83.0906 151.792L83.0903 157.792L83.0901 163.792C82.7052 163.792 82.3379 163.639 82.0678 163.369L86.3101 159.126ZM83.0903 157.792L83.0831 151.792C80.5298 151.795 78.0652 152.731 76.1532 154.423L80.1294 158.916L84.1056 163.409C83.8274 163.656 83.4692 163.792 83.0975 163.792L83.0903 157.792ZM80.1294 158.916L76.1531 154.423C74.2398 156.116 73.0126 158.45 72.6992 160.982L78.6538 161.719L84.6084 162.456C84.563 162.823 84.3852 163.162 84.1057 163.409L80.1294 158.916ZM78.6538 161.719L72.6882 161.077C72.3729 164.008 71.83 165.906 70.9462 167.07C70.3743 167.823 69.1108 169.027 65.1098 169.027L65.1099 175.027L65.1099 181.027C72.0224 181.027 77.1971 178.679 80.502 174.328C83.4949 170.388 84.2673 165.633 84.6194 162.361L78.6538 161.719ZM65.1099 175.027V169.027C63.8576 169.027 62.1345 168.437 60.7244 167.283C59.2956 166.113 58.978 165.057 58.978 164.584H52.978H46.978C46.978 169.764 49.8997 173.93 53.1235 176.569C56.3661 179.223 60.7088 181.027 65.1099 181.027V175.027ZM52.978 164.584L58.978 164.584C58.978 156.376 57.3842 150.461 54.7757 145.466C52.3627 140.844 48.9417 136.933 46.5124 133.691C43.9385 130.256 41.5131 126.475 39.6701 120.813C37.8021 115.074 36.4438 107.121 36.4438 95.3311H30.4438H24.4438C24.4438 108.019 25.9023 117.286 28.2594 124.527C30.6416 131.846 33.8498 136.804 36.9093 140.887C40.1136 145.163 42.3261 147.549 44.1383 151.02C45.755 154.116 46.978 158.09 46.978 164.584L52.978 164.584ZM30.4438 95.3311L36.4438 95.3311C36.4439 78.5346 43.1163 62.4261 54.9931 50.5493L50.7505 46.3066L46.5078 42.064C32.3805 56.1913 24.4439 75.352 24.4438 95.331L30.4438 95.3311ZM50.7505 46.3066L54.9931 50.5493C66.87 38.6724 82.9785 32.0001 99.7749 32L99.7749 26L99.7749 20C79.7959 20.0001 60.6351 27.9367 46.5078 42.064L50.7505 46.3066Z" fill="white" mask="url(#path-1-outside-1_1062_16442)"/>
<path d="M99.7752 26C81.3874 26 63.7527 33.3045 50.7505 46.3067C37.7484 59.3088 30.4438 76.9436 30.4438 95.3314C30.4438 144.287 52.9785 135.179 52.9785 164.584C52.9785 170.238 59.4562 175.027 65.1095 175.027C76.0235 175.027 77.9865 167.921 78.6539 161.718C78.7879 160.636 79.3126 159.639 80.1295 158.916C80.9465 158.193 81.9993 157.794 83.0902 157.792C84.298 157.792 85.4563 158.272 86.3104 159.126C87.1644 159.98 87.6442 161.139 87.6442 162.346C87.6442 165.564 88.9223 168.649 91.1973 170.924C93.4723 173.199 96.5579 174.478 99.7752 174.478C102.993 174.478 106.078 173.199 108.353 170.924C110.628 168.649 111.906 165.564 111.906 162.346C111.906 161.139 112.386 159.98 113.24 159.126C114.094 158.272 115.253 157.792 116.46 157.792C117.551 157.794 118.604 158.193 119.421 158.916C120.238 159.639 120.763 160.636 120.897 161.718C121.564 167.921 123.527 175.027 134.441 175.027C140.094 175.027 146.572 170.238 146.572 164.584C146.572 135.179 169.107 144.287 169.107 95.3314C169.107 86.2267 167.313 77.2111 163.829 68.7994C160.345 60.3877 155.238 52.7447 148.8 46.3067C142.362 39.8687 134.719 34.7618 126.307 31.2775C117.896 27.7933 108.88 26 99.7752 26Z" fill="#4B9AE8"/>
<path d="M86.039 137.625C86.5122 132.364 94.9802 124.644 101.722 125.013C108.463 125.382 115.456 133.956 114.977 139.217C114.503 144.477 109.704 148.501 99.6444 147.949C89.468 147.388 85.5596 142.885 86.039 137.625Z" fill="#1A4F82"/>
<path d="M67.017 119.917C75.2462 119.917 81.9172 113.246 81.9172 105.016C81.9172 96.7873 75.2462 90.1162 67.017 90.1162C58.7878 90.1162 52.1167 96.7873 52.1167 105.016C52.1167 113.246 58.7878 119.917 67.017 119.917Z" fill="white"/>
<path d="M66.7856 114.057C71.7191 114.057 75.7186 110.057 75.7186 105.124C75.7186 100.19 71.7191 96.1909 66.7856 96.1909C61.852 96.1909 57.8525 100.19 57.8525 105.124C57.8525 110.057 61.852 114.057 66.7856 114.057Z" fill="black"/>
<path d="M134.745 119.917C142.975 119.917 149.646 113.246 149.646 105.016C149.646 96.7873 142.975 90.1162 134.745 90.1162C126.516 90.1162 119.845 96.7873 119.845 105.016C119.845 113.246 126.516 119.917 134.745 119.917Z" fill="white"/>
<path d="M134.514 114.057C139.448 114.057 143.447 110.057 143.447 105.124C143.447 100.19 139.448 96.1909 134.514 96.1909C129.581 96.1909 125.581 100.19 125.581 105.124C125.581 110.057 129.581 114.057 134.514 114.057Z" fill="black"/>
</svg>
