<svg width="200" height="200" viewBox="0 0 200 200" fill="none" xmlns="http://www.w3.org/2000/svg">
<mask id="path-1-outside-1_1062_29598" maskUnits="userSpaceOnUse" x="5.80078" y="34.6769" width="189" height="131" fill="black">
<rect fill="white" x="5.80078" y="34.6769" width="189" height="131"/>
<path d="M90.5508 41.6813C99.777 38.8276 111.309 42.3945 111.31 48.1012C111.31 50.3206 109.458 52.3981 106.339 53.7926C112.914 54.9171 119.008 57.272 124.494 60.5895C132.904 62.4465 138.682 65.1774 139.408 68.4147C139.414 68.4411 139.42 68.4674 139.426 68.4938C139.43 68.513 139.433 68.5322 139.437 68.5514C139.471 68.7359 139.49 68.9213 139.49 69.1081C139.49 70.1177 138.979 71.0934 138.027 72.0231C145.35 80.4004 150.517 90.8985 152.873 102.154C156.281 102.496 160.603 100.003 165.06 89.8034C169.483 79.6761 172.023 76.3297 176.961 76.0475C194.349 75.049 187.761 81.6479 182.26 84.5094C181.641 84.8302 180.87 85.5195 180.016 86.5622C180.017 86.5616 180.018 86.5617 180.02 86.5612C179.216 87.5405 178.338 88.8324 177.445 90.4254C177.432 90.4497 177.419 90.4743 177.405 90.4987C177.062 91.1144 176.716 91.7743 176.372 92.4782C176.349 92.5258 176.326 92.5738 176.303 92.6217C176.089 93.0622 175.877 93.5198 175.665 93.9938C175.404 94.5793 175.144 95.1899 174.888 95.8258C174.809 96.022 174.731 96.2206 174.652 96.4215C174.009 98.0756 173.39 99.8907 172.822 101.862C172.791 101.97 172.759 102.078 172.729 102.186C172.462 103.127 172.208 104.103 171.968 105.113C171.942 105.222 171.914 105.332 171.889 105.442C171.766 105.967 171.645 106.518 171.521 107.09C169.538 116.238 166.963 130.819 150.588 132.062C147.649 137.495 143.163 141.466 137.828 144.36C136.78 144.94 135.699 145.479 134.591 145.98C136.152 147.039 137.017 148.195 137.017 149.427C137.016 152.959 129.48 156.222 117.246 157.988C90.8856 161.793 57.9347 157.037 57.9336 149.427C57.9336 148.249 58.7742 147.101 60.3477 146.028C58.5744 145.219 56.8718 144.311 55.2607 143.292C51.1511 140.763 47.6398 137.513 45.0879 133.343C43.5222 133.644 41.9791 133.812 40.4668 133.851C40.2405 133.859 40.0147 133.863 39.79 133.863L39.7871 133.862L39.7861 133.863C38.4273 133.863 37.0947 133.755 35.792 133.544C35.7774 133.541 35.7626 133.54 35.748 133.538C31.7987 132.89 28.1277 131.276 24.8545 128.722C15.2166 121.199 11.8009 106.486 11.8008 97.529C11.8008 85.558 18.3801 73.4333 30.9541 73.4333C38.5953 73.4333 41.8724 76.0869 45.3418 78.8893C46.6415 79.9418 47.9705 81.0152 49.708 82.1129C51.7894 78.5112 54.1969 75.1294 56.8984 72.0368C55.9646 71.1138 55.4609 70.1343 55.4609 69.1081C55.4609 68.702 55.5449 68.2993 55.709 67.901C56.4586 66.0635 58.8998 64.3596 62.6113 62.9001C62.606 62.9031 62.6001 62.9058 62.5947 62.9088C64.7702 62.0511 67.4015 61.2724 70.4297 60.5983C75.9192 57.2764 82.018 54.9184 88.5977 53.7926C85.6162 52.4672 83.6309 50.469 83.6309 48.1012C83.6311 45.4529 86.269 43.0057 90.5508 41.6813ZM30.9551 83.8913C30.7725 83.8913 30.5925 83.8961 30.415 83.904C30.2678 83.9105 30.1223 83.9195 29.9785 83.9313C29.7837 83.9474 29.5918 83.9672 29.4033 83.9928C29.3909 83.9945 29.3786 83.996 29.3662 83.9977C23.4002 84.8298 20.6071 90.3997 20.4795 97.0592C20.4718 97.0195 20.4655 96.9792 20.458 96.9391C20.4534 97.1347 20.4502 97.3316 20.4502 97.529C20.4503 105.096 23.456 115.081 30.1729 120.32C33.392 122.838 37.1415 123.914 41.3379 123.56C40.8746 121.219 40.6289 118.687 40.6289 115.95C40.6289 107.463 42.2626 99.0872 45.2754 91.3522C43.0121 89.9395 41.3383 88.5854 39.9043 87.4264C36.9047 84.9997 35.536 83.8915 30.9551 83.8913Z"/>
</mask>
<path d="M90.5508 41.6813C99.777 38.8276 111.309 42.3945 111.31 48.1012C111.31 50.3206 109.458 52.3981 106.339 53.7926C112.914 54.9171 119.008 57.272 124.494 60.5895C132.904 62.4465 138.682 65.1774 139.408 68.4147C139.414 68.4411 139.42 68.4674 139.426 68.4938C139.43 68.513 139.433 68.5322 139.437 68.5514C139.471 68.7359 139.49 68.9213 139.49 69.1081C139.49 70.1177 138.979 71.0934 138.027 72.0231C145.35 80.4004 150.517 90.8985 152.873 102.154C156.281 102.496 160.603 100.003 165.06 89.8034C169.483 79.6761 172.023 76.3297 176.961 76.0475C194.349 75.049 187.761 81.6479 182.26 84.5094C181.641 84.8302 180.87 85.5195 180.016 86.5622C180.017 86.5616 180.018 86.5617 180.02 86.5612C179.216 87.5405 178.338 88.8324 177.445 90.4254C177.432 90.4497 177.419 90.4743 177.405 90.4987C177.062 91.1144 176.716 91.7743 176.372 92.4782C176.349 92.5258 176.326 92.5738 176.303 92.6217C176.089 93.0622 175.877 93.5198 175.665 93.9938C175.404 94.5793 175.144 95.1899 174.888 95.8258C174.809 96.022 174.731 96.2206 174.652 96.4215C174.009 98.0756 173.39 99.8907 172.822 101.862C172.791 101.97 172.759 102.078 172.729 102.186C172.462 103.127 172.208 104.103 171.968 105.113C171.942 105.222 171.914 105.332 171.889 105.442C171.766 105.967 171.645 106.518 171.521 107.09C169.538 116.238 166.963 130.819 150.588 132.062C147.649 137.495 143.163 141.466 137.828 144.36C136.78 144.94 135.699 145.479 134.591 145.98C136.152 147.039 137.017 148.195 137.017 149.427C137.016 152.959 129.48 156.222 117.246 157.988C90.8856 161.793 57.9347 157.037 57.9336 149.427C57.9336 148.249 58.7742 147.101 60.3477 146.028C58.5744 145.219 56.8718 144.311 55.2607 143.292C51.1511 140.763 47.6398 137.513 45.0879 133.343C43.5222 133.644 41.9791 133.812 40.4668 133.851C40.2405 133.859 40.0147 133.863 39.79 133.863L39.7871 133.862L39.7861 133.863C38.4273 133.863 37.0947 133.755 35.792 133.544C35.7774 133.541 35.7626 133.54 35.748 133.538C31.7987 132.89 28.1277 131.276 24.8545 128.722C15.2166 121.199 11.8009 106.486 11.8008 97.529C11.8008 85.558 18.3801 73.4333 30.9541 73.4333C38.5953 73.4333 41.8724 76.0869 45.3418 78.8893C46.6415 79.9418 47.9705 81.0152 49.708 82.1129C51.7894 78.5112 54.1969 75.1294 56.8984 72.0368C55.9646 71.1138 55.4609 70.1343 55.4609 69.1081C55.4609 68.702 55.5449 68.2993 55.709 67.901C56.4586 66.0635 58.8998 64.3596 62.6113 62.9001C62.606 62.9031 62.6001 62.9058 62.5947 62.9088C64.7702 62.0511 67.4015 61.2724 70.4297 60.5983C75.9192 57.2764 82.018 54.9184 88.5977 53.7926C85.6162 52.4672 83.6309 50.469 83.6309 48.1012C83.6311 45.4529 86.269 43.0057 90.5508 41.6813ZM30.9551 83.8913C30.7725 83.8913 30.5925 83.8961 30.415 83.904C30.2678 83.9105 30.1223 83.9195 29.9785 83.9313C29.7837 83.9474 29.5918 83.9672 29.4033 83.9928C29.3909 83.9945 29.3786 83.996 29.3662 83.9977C23.4002 84.8298 20.6071 90.3997 20.4795 97.0592C20.4718 97.0195 20.4655 96.9792 20.458 96.9391C20.4534 97.1347 20.4502 97.3316 20.4502 97.529C20.4503 105.096 23.456 115.081 30.1729 120.32C33.392 122.838 37.1415 123.914 41.3379 123.56C40.8746 121.219 40.6289 118.687 40.6289 115.95C40.6289 107.463 42.2626 99.0872 45.2754 91.3522C43.0121 89.9395 41.3383 88.5854 39.9043 87.4264C36.9047 84.9997 35.536 83.8915 30.9551 83.8913Z" fill="#3071B1"/>
<path d="M90.5508 41.6813L88.7778 35.9492L88.7778 35.9493L90.5508 41.6813ZM111.31 48.1012L117.31 48.1012L117.31 48.1007L111.31 48.1012ZM106.339 53.7926L103.89 48.3153C101.478 49.3937 100.055 51.9227 100.386 54.5439C100.717 57.165 102.723 59.2614 105.327 59.7068L106.339 53.7926ZM124.494 60.5895L121.39 65.7239C121.95 66.0625 122.561 66.3073 123.201 66.4484L124.494 60.5895ZM139.408 68.4147L133.554 69.7279C133.557 69.7433 133.561 69.7586 133.564 69.774L139.408 68.4147ZM139.426 68.4938L145.311 67.3268C145.308 67.3126 145.306 67.2984 145.303 67.2842L139.426 68.4938ZM139.437 68.5514L133.531 69.6112C133.533 69.6245 133.536 69.6377 133.538 69.651L139.437 68.5514ZM139.49 69.1081L145.49 69.1081L145.49 69.108L139.49 69.1081ZM138.027 72.0231L133.835 67.7304C131.557 69.9557 131.414 73.5737 133.51 75.9718L138.027 72.0231ZM152.873 102.154L147 103.383C147.537 105.944 149.67 107.863 152.274 108.124L152.873 102.154ZM165.06 89.8034L170.558 92.2055L170.558 92.205L165.06 89.8034ZM176.961 76.0475L177.303 82.0377L177.305 82.0376L176.961 76.0475ZM182.26 84.5094L185.023 89.8353L185.029 89.8323L182.26 84.5094ZM180.016 86.5622L175.375 82.7586C173.623 84.8963 173.558 87.9544 175.218 90.1648C176.877 92.3751 179.832 93.1657 182.374 92.0794L180.016 86.5622ZM180.02 86.5612L184.658 90.3668C186.414 88.2271 186.478 85.1643 184.813 82.953C183.149 80.7418 180.188 79.9558 177.646 81.0505L180.02 86.5612ZM177.445 90.4254L172.211 87.4919L172.211 87.4932L177.445 90.4254ZM177.405 90.4987L182.646 93.4206L182.646 93.4193L177.405 90.4987ZM176.372 92.4782L170.982 89.8418L170.982 89.8428L176.372 92.4782ZM176.303 92.6217L181.702 95.2393L181.702 95.2383L176.303 92.6217ZM175.665 93.9938L170.187 91.5469L170.186 91.5477L175.665 93.9938ZM174.888 95.8258L180.454 98.0659L180.454 98.0653L174.888 95.8258ZM174.652 96.4215L169.061 94.2446L169.061 94.2452L174.652 96.4215ZM172.822 101.862L178.587 103.524L178.588 103.524L172.822 101.862ZM172.729 102.186L166.955 100.552L166.955 100.552L172.729 102.186ZM171.968 105.113L166.131 103.722L166.131 103.722L171.968 105.113ZM171.889 105.442L177.731 106.808L177.731 106.806L171.889 105.442ZM171.521 107.09L165.657 105.817L165.657 105.82L171.521 107.09ZM150.588 132.062L150.134 126.079C148.099 126.234 146.282 127.412 145.311 129.207L150.588 132.062ZM137.828 144.36L134.967 139.086C134.952 139.094 134.937 139.102 134.923 139.11L137.828 144.36ZM134.591 145.98L132.118 140.513C130.139 141.408 128.799 143.303 128.613 145.467C128.427 147.631 129.425 149.727 131.223 150.946L134.591 145.98ZM137.017 149.427L143.017 149.428V149.427H137.017ZM117.246 157.988L118.103 163.926L118.103 163.926L117.246 157.988ZM57.9336 149.427L51.9336 149.427L51.9336 149.428L57.9336 149.427ZM60.3477 146.028L63.7285 150.985C65.5177 149.764 66.5104 147.675 66.3258 145.517C66.1413 143.359 64.8081 141.468 62.8376 140.569L60.3477 146.028ZM55.2607 143.292L58.4682 138.221C58.4472 138.208 58.4261 138.195 58.405 138.182L55.2607 143.292ZM45.0879 133.343L50.2055 130.211C48.9009 128.08 46.4114 126.98 43.957 127.451L45.0879 133.343ZM40.4668 133.851L40.3109 127.853C40.2973 127.854 40.2837 127.854 40.27 127.854L40.4668 133.851ZM39.79 133.863L37.8927 139.555C38.5045 139.759 39.1451 139.863 39.79 139.863V133.863ZM39.7871 133.862L41.6845 128.17C39.5285 127.451 37.1515 128.012 35.5445 129.619L39.7871 133.862ZM39.7861 133.863L39.7861 139.863C41.3774 139.863 42.9035 139.231 44.0288 138.106L39.7861 133.863ZM35.792 133.544L34.8304 139.466L34.832 139.466L35.792 133.544ZM35.748 133.538L36.7206 127.617L36.719 127.617L35.748 133.538ZM24.8545 128.722L21.1627 133.452L21.1636 133.453L24.8545 128.722ZM11.8008 97.529L5.80078 97.529L5.80078 97.529L11.8008 97.529ZM30.9541 73.4333L30.9542 67.4333H30.9541V73.4333ZM45.3418 78.8893L49.1176 74.2264L49.112 74.2218L45.3418 78.8893ZM49.708 82.1129L46.5033 87.1854C47.8833 88.0573 49.559 88.3293 51.1439 87.9386C52.7289 87.5479 54.0862 86.5284 54.903 85.115L49.708 82.1129ZM56.8984 72.0368L61.4172 75.984C63.5029 73.5963 63.371 69.9979 61.1161 67.7693L56.8984 72.0368ZM55.4609 69.1081L49.4609 69.1081V69.1081H55.4609ZM55.709 67.901L61.2568 70.1863C61.2593 70.18 61.2619 70.1737 61.2645 70.1674L55.709 67.901ZM62.6113 62.9001L65.5431 68.135C68.2964 66.5931 69.3847 63.182 68.0332 60.3304C66.6817 57.4788 63.3523 56.1614 60.4156 57.3163L62.6113 62.9001ZM62.5947 62.9088L59.6546 57.6786C56.9045 59.2245 55.8214 62.6361 57.1761 65.4853C58.5308 68.3345 61.8606 69.6478 64.7955 68.4907L62.5947 62.9088ZM70.4297 60.5983L71.7335 66.4549C72.3696 66.3133 72.9784 66.069 73.536 65.7316L70.4297 60.5983ZM88.5977 53.7926L89.6095 59.7067C92.2159 59.2608 94.2231 57.1611 94.5513 54.5373C94.8794 51.9135 93.4513 49.3842 91.035 48.31L88.5977 53.7926ZM83.6309 48.1012L77.6309 48.1006V48.1012H83.6309ZM30.9551 83.8913L30.9554 77.8913L30.9537 77.8913L30.9551 83.8913ZM30.415 83.904L30.6795 89.8981L30.6818 89.898L30.415 83.904ZM29.9785 83.9313L29.488 77.9514L29.4853 77.9516L29.9785 83.9313ZM29.4033 83.9928L30.2079 89.9386L30.2112 89.9382L29.4033 83.9928ZM29.3662 83.9977L28.5408 78.0548L28.5374 78.0552L29.3662 83.9977ZM20.4795 97.0592L14.5897 98.204C15.1752 101.217 17.9397 103.302 20.9972 103.037C24.0548 102.772 26.4196 100.243 26.4784 97.1742L20.4795 97.0592ZM20.458 96.9391L26.3556 95.8356C25.7907 92.8162 23.0365 90.7112 19.9748 90.9586C16.913 91.206 14.5326 93.7259 14.4597 96.7968L20.458 96.9391ZM20.4502 97.529L14.4502 97.529L14.4502 97.5291L20.4502 97.529ZM30.1729 120.32L33.8694 115.594L33.8631 115.589L30.1729 120.32ZM41.3379 123.56L41.8422 129.539C43.5434 129.395 45.1029 128.534 46.1302 127.17C47.1575 125.807 47.5552 124.07 47.2237 122.395L41.3379 123.56ZM40.6289 115.95L34.6289 115.95V115.95H40.6289ZM45.2754 91.3522L50.8663 93.5298C51.9132 90.842 50.8993 87.7897 48.4524 86.2623L45.2754 91.3522ZM39.9043 87.4264L36.1306 92.0911L36.1328 92.0929L39.9043 87.4264ZM90.5508 41.6813L92.3238 47.4134C95.7081 46.3666 99.6595 46.4985 102.617 47.4132C104.09 47.8688 104.972 48.413 105.371 48.7681C105.738 49.0957 105.31 48.8767 105.31 48.1018L111.31 48.1012L117.31 48.1007C117.309 44.4724 115.439 41.6675 113.356 39.8105C111.303 37.981 108.726 36.7418 106.163 35.949C101.047 34.367 94.6197 34.1423 88.7778 35.9492L90.5508 41.6813ZM111.31 48.1012H105.31C105.31 47.4469 105.601 47.1658 105.485 47.2971C105.343 47.4594 104.883 47.871 103.89 48.3153L106.339 53.7926L108.788 59.27C112.664 57.5371 117.31 53.9136 117.31 48.1012H111.31ZM106.339 53.7926L105.327 59.7068C111.128 60.6988 116.516 62.7769 121.39 65.7239L124.494 60.5895L127.599 55.4552C121.5 51.7672 114.699 49.1354 107.35 47.8785L106.339 53.7926ZM124.494 60.5895L123.201 66.4484C127.156 67.3219 130.155 68.3337 132.106 69.3291C133.079 69.8252 133.591 70.2175 133.81 70.4266C134.032 70.6382 133.71 70.424 133.554 69.7279L139.408 68.4147L145.263 67.1016C144.268 62.6661 140.386 60.082 137.559 58.6398C134.338 56.9962 130.242 55.7141 125.788 54.7306L124.494 60.5895ZM139.408 68.4147L133.564 69.774C133.566 69.7803 133.564 69.7749 133.562 69.7643C133.56 69.753 133.555 69.7317 133.549 69.7034L139.426 68.4938L145.303 67.2842C145.281 67.1795 145.261 67.0919 145.252 67.0554L139.408 68.4147ZM139.426 68.4938L133.54 69.6608C133.536 69.6393 133.533 69.6232 133.532 69.6154C133.53 69.6082 133.53 69.6046 133.531 69.6112L139.437 68.5514L145.342 67.4916C145.338 67.4695 145.326 67.4039 145.311 67.3268L139.426 68.4938ZM139.437 68.5514L133.538 69.651C133.514 69.5214 133.49 69.3364 133.49 69.1081L139.49 69.1081L145.49 69.108C145.49 68.5062 145.428 67.9505 145.335 67.4519L139.437 68.5514ZM139.49 69.1081H133.49C133.49 68.5642 133.635 68.1367 133.765 67.8811C133.881 67.6525 133.957 67.6114 133.835 67.7304L138.027 72.0231L142.219 76.3158C143.851 74.7224 145.49 72.2964 145.49 69.1081H139.49ZM138.027 72.0231L133.51 75.9718C140.13 83.5452 144.847 93.0976 147 103.383L152.873 102.154L158.746 100.925C156.186 88.6993 150.57 77.2556 142.545 68.0744L138.027 72.0231ZM152.873 102.154L152.274 108.124C159.98 108.897 165.969 102.709 170.558 92.2055L165.06 89.8034L159.561 87.4012C157.506 92.1066 155.734 94.4162 154.562 95.47C154.009 95.967 153.663 96.1187 153.548 96.1603C153.516 96.1717 153.495 96.1776 153.483 96.1805C153.471 96.1834 153.465 96.1841 153.465 96.1841C153.464 96.1842 153.466 96.1839 153.469 96.1839C153.472 96.1839 153.473 96.1841 153.472 96.1839L152.873 102.154ZM165.06 89.8034L170.558 92.205C172.785 87.106 174.228 84.4947 175.402 83.1045C176.195 82.1655 176.556 82.0804 177.303 82.0377L176.961 76.0475L176.619 70.0573C172.428 70.2967 169.051 72.026 166.233 75.3625C163.797 78.248 161.757 82.3735 159.561 87.4018L165.06 89.8034ZM176.961 76.0475L177.305 82.0376C179.313 81.9223 180.865 81.9237 182.039 81.9958C183.238 82.0695 183.893 82.2085 184.173 82.2926C184.509 82.3936 183.997 82.3189 183.365 81.6494C183.018 81.2808 182.671 80.7677 182.445 80.1153C182.219 79.4643 182.171 78.8405 182.216 78.319C182.259 77.8181 182.383 77.451 182.469 77.2441C182.556 77.0372 182.63 76.928 182.638 76.9175C182.64 76.9139 182.521 77.0768 182.189 77.3756C181.523 77.9739 180.522 78.6504 179.491 79.1865L182.26 84.5094L185.029 89.8323C186.749 88.9377 188.634 87.7163 190.207 86.3037C190.994 85.597 191.833 84.7263 192.533 83.705C193.2 82.7335 194.01 81.2359 194.172 79.3429C194.357 77.1856 193.643 75.0567 192.093 73.4139C190.729 71.9679 189.029 71.2214 187.624 70.7995C184.846 69.9656 181.139 69.7977 176.617 70.0574L176.961 76.0475ZM182.26 84.5094L179.497 79.1836C177.802 80.0626 176.413 81.4928 175.375 82.7586L180.016 86.5622L184.656 90.3657C184.941 90.018 185.148 89.8091 185.263 89.7042C185.318 89.6539 185.333 89.6453 185.307 89.6647C185.283 89.682 185.188 89.7497 185.023 89.8353L182.26 84.5094ZM180.016 86.5622L182.374 92.0794C182.262 92.127 182.156 92.1682 182.057 92.2041C181.958 92.24 181.865 92.2707 181.78 92.297C181.694 92.3233 181.615 92.3455 181.544 92.3642C181.473 92.3829 181.408 92.3985 181.352 92.4114C181.295 92.4243 181.245 92.4349 181.203 92.4433C181.161 92.4518 181.126 92.4585 181.098 92.4636C181.071 92.4685 181.049 92.4724 181.036 92.4746C181.03 92.4757 181.024 92.4766 181.021 92.4772C181.018 92.4776 181.016 92.478 181.017 92.4779C181.017 92.4779 181.018 92.4778 181.018 92.4776C181.019 92.4774 181.021 92.4772 181.023 92.4769C181.027 92.4762 181.032 92.4752 181.04 92.474C181.054 92.4715 181.077 92.4675 181.105 92.4623C181.134 92.4571 181.17 92.4501 181.213 92.4413C181.256 92.4326 181.307 92.4218 181.365 92.4085C181.422 92.3953 181.488 92.3794 181.559 92.3603C181.631 92.3412 181.711 92.3186 181.797 92.2919C181.883 92.2652 181.977 92.2341 182.076 92.1978C182.175 92.1615 182.281 92.1198 182.393 92.0719L180.02 86.5612L177.646 81.0505C177.757 81.0026 177.863 80.961 177.963 80.9248C178.062 80.8885 178.155 80.8575 178.241 80.8308C178.327 80.8042 178.406 80.7816 178.478 80.7626C178.55 80.7435 178.615 80.7276 178.672 80.7144C178.73 80.7013 178.781 80.6904 178.823 80.6817C178.866 80.6731 178.903 80.6661 178.931 80.6609C178.959 80.6557 178.982 80.6517 178.996 80.6493C179.003 80.6481 179.009 80.6471 179.013 80.6465C179.014 80.6461 179.016 80.6459 179.017 80.6457C179.018 80.6456 179.018 80.6455 179.018 80.6455C179.019 80.6453 179.017 80.6458 179.014 80.6463C179.011 80.6468 179.005 80.6477 178.998 80.6489C178.985 80.6511 178.963 80.655 178.936 80.66C178.908 80.665 178.872 80.6718 178.83 80.6803C178.788 80.6888 178.738 80.6994 178.681 80.7123C178.625 80.7252 178.56 80.7409 178.489 80.7596C178.417 80.7784 178.338 80.8007 178.253 80.827C178.167 80.8533 178.074 80.8841 177.974 80.92C177.875 80.956 177.769 80.9973 177.658 81.045L180.016 86.5622ZM180.02 86.5612L175.381 82.7556C174.31 84.0605 173.24 85.6573 172.211 87.4919L177.445 90.4254L182.679 93.3589C183.437 92.0074 184.122 91.0206 184.658 90.3668L180.02 86.5612ZM177.445 90.4254L172.211 87.4932C172.193 87.5239 172.179 87.5501 172.169 87.5689C172.159 87.5867 172.151 87.6025 172.147 87.6083C172.143 87.6171 172.144 87.6145 172.146 87.6113C172.148 87.6067 172.155 87.5946 172.164 87.5781L177.405 90.4987L182.646 93.4193C182.662 93.3906 182.676 93.3662 182.685 93.3495C182.693 93.334 182.701 93.3191 182.703 93.3158C182.707 93.3093 182.705 93.3128 182.702 93.3185C182.698 93.325 182.69 93.3391 182.68 93.3577L177.445 90.4254ZM177.405 90.4987L172.165 87.5768C171.768 88.2889 171.372 89.0442 170.982 89.8418L176.372 92.4782L181.762 95.1146C182.06 94.5045 182.356 93.9398 182.646 93.4206L177.405 90.4987ZM176.372 92.4782L170.982 89.8428C170.961 89.8847 170.943 89.923 170.931 89.9485C170.916 89.9788 170.91 89.9912 170.903 90.0052L176.303 92.6217L181.702 95.2383C181.759 95.1206 181.737 95.1651 181.762 95.1135L176.372 92.4782ZM176.303 92.6217L170.904 90.0042C170.66 90.5067 170.421 91.0216 170.187 91.5469L175.665 93.9938L181.143 96.4407C181.332 96.018 181.518 95.6177 181.702 95.2393L176.303 92.6217ZM175.665 93.9938L170.186 91.5477C169.896 92.1984 169.606 92.8779 169.321 93.5864L174.888 95.8258L180.454 98.0653C180.681 97.5018 180.911 96.9602 181.144 96.4399L175.665 93.9938ZM174.888 95.8258L169.322 93.5857C169.231 93.8097 169.144 94.0309 169.061 94.2446L174.652 96.4215L180.243 98.5985C180.317 98.4104 180.386 98.2342 180.454 98.0659L174.888 95.8258ZM174.652 96.4215L169.061 94.2452C168.35 96.0718 167.674 98.0587 167.057 100.2L172.822 101.862L178.588 103.524C179.107 101.723 179.667 100.079 180.244 98.5979L174.652 96.4215ZM172.822 101.862L167.057 100.2C167.045 100.242 166.989 100.434 166.955 100.552L172.729 102.186L178.502 103.82C178.53 103.721 178.538 103.697 178.587 103.524L172.822 101.862ZM172.729 102.186L166.955 100.552C166.665 101.578 166.39 102.635 166.131 103.722L171.968 105.113L177.804 106.504C178.027 105.571 178.259 104.676 178.502 103.82L172.729 102.186ZM171.968 105.113L166.131 103.722C166.131 103.722 166.069 103.978 166.046 104.078L171.889 105.442L177.731 106.806C177.76 106.685 177.752 106.722 177.804 106.504L171.968 105.113ZM171.889 105.442L166.046 104.076C165.912 104.651 165.782 105.241 165.657 105.817L171.521 107.09L177.384 108.364C177.507 107.796 177.62 107.284 177.731 106.808L171.889 105.442ZM171.521 107.09L165.657 105.82C164.6 110.698 163.628 115.547 161.294 119.475C159.24 122.93 156.159 125.622 150.134 126.079L150.588 132.062L151.042 138.045C161.391 137.259 167.786 132.039 171.609 125.606C175.152 119.646 176.459 112.631 177.384 108.361L171.521 107.09ZM150.588 132.062L145.311 129.207C143.038 133.409 139.508 136.623 134.967 139.086L137.828 144.36L140.689 149.634C146.818 146.309 152.261 141.58 155.865 134.917L150.588 132.062ZM137.828 144.36L134.923 139.11C134.026 139.606 133.091 140.073 132.118 140.513L134.591 145.98L137.063 151.447C138.308 150.884 139.534 150.274 140.734 149.61L137.828 144.36ZM134.591 145.98L131.223 150.946C131.629 151.221 131.637 151.308 131.508 151.128C131.343 150.897 131.017 150.3 131.017 149.427H137.017H143.017C143.017 145.154 140.045 142.43 137.959 141.015L134.591 145.98ZM137.017 149.427L131.017 149.426C131.017 148.016 131.79 147.402 131.574 147.601C131.366 147.793 130.719 148.264 129.335 148.864C126.606 150.045 122.246 151.204 116.389 152.049L117.246 157.988L118.103 163.926C124.48 163.006 130.005 161.65 134.103 159.876C136.132 158.997 138.133 157.88 139.721 156.412C141.301 154.951 143.016 152.605 143.017 149.428L137.017 149.427ZM117.246 157.988L116.389 152.049C103.812 153.865 89.5621 153.637 78.5622 152.05C73.0272 151.251 68.641 150.153 65.7993 148.971C64.3558 148.37 63.6483 147.885 63.3983 147.661C63.1456 147.436 63.9334 148.027 63.9336 149.426L57.9336 149.427L51.9336 149.428C51.9341 152.731 53.7518 155.135 55.4043 156.611C57.0595 158.089 59.1324 159.194 61.1901 160.05C65.3507 161.781 70.85 163.061 76.848 163.927C88.9138 165.668 104.32 165.916 118.103 163.926L117.246 157.988ZM57.9336 149.427H63.9336C63.9336 150.344 63.5888 150.958 63.4295 151.18C63.3017 151.359 63.3144 151.267 63.7285 150.985L60.3477 146.028L56.9668 141.071C54.8907 142.487 51.9336 145.202 51.9336 149.427H57.9336ZM60.3477 146.028L62.8376 140.569C61.2874 139.862 59.8274 139.081 58.4682 138.221L55.2607 143.292L52.0533 148.362C53.9163 149.541 55.8614 150.576 57.8577 151.487L60.3477 146.028ZM55.2607 143.292L58.405 138.182C54.9593 136.061 52.1851 133.446 50.2055 130.211L45.0879 133.343L39.9703 136.476C43.0945 141.58 47.3429 145.465 52.1165 148.402L55.2607 143.292ZM45.0879 133.343L43.957 127.451C42.7018 127.692 41.4848 127.823 40.3109 127.853L40.4668 133.851L40.6227 139.849C42.4735 139.801 44.3427 139.596 46.2188 139.236L45.0879 133.343ZM40.4668 133.851L40.27 127.854C40.0982 127.86 39.9388 127.863 39.79 127.863V133.863V139.863C40.0906 139.863 40.3829 139.857 40.6636 139.848L40.4668 133.851ZM39.79 133.863L41.6874 128.171L41.6845 128.17L39.7871 133.862L37.8897 139.554L37.8927 139.555L39.79 133.863ZM39.7871 133.862L35.5445 129.619L35.5435 129.62L39.7861 133.863L44.0288 138.106L44.0298 138.105L39.7871 133.862ZM39.7861 133.863L39.7862 127.863C38.7468 127.863 37.7352 127.78 36.752 127.621L35.792 133.544L34.832 139.466C36.4541 139.729 38.1078 139.863 39.7861 139.863L39.7861 133.863ZM35.792 133.544L36.7536 127.621C36.709 127.614 36.6692 127.608 36.6353 127.603C36.6016 127.598 36.5724 127.594 36.5495 127.591C36.5268 127.589 36.5081 127.586 36.4963 127.585C36.4903 127.584 36.4852 127.583 36.4819 127.583C36.4789 127.583 36.4761 127.582 36.4758 127.582C36.4731 127.582 36.4797 127.583 36.488 127.584C36.4971 127.585 36.5129 127.587 36.5329 127.589C36.5531 127.592 36.5795 127.596 36.6105 127.6C36.6416 127.605 36.6787 127.61 36.7206 127.617L35.748 133.538L34.7755 139.458C34.8652 139.473 34.9387 139.483 34.9851 139.489C35.0087 139.492 35.0283 139.495 35.041 139.496C35.053 139.498 35.0632 139.499 35.0643 139.499C35.068 139.499 35.0619 139.499 35.0548 139.498C35.0466 139.497 35.0316 139.495 35.0126 139.493C34.9754 139.488 34.9109 139.479 34.8304 139.466L35.792 133.544ZM35.748 133.538L36.719 127.617C33.7872 127.136 31.0467 125.943 28.5454 123.992L24.8545 128.722L21.1636 133.453C25.2088 136.609 29.8102 138.644 34.7771 139.459L35.748 133.538ZM24.8545 128.722L28.5463 123.993C24.9204 121.162 22.1885 116.731 20.361 111.637C18.5439 106.572 17.8008 101.342 17.8008 97.5289L11.8008 97.529L5.80078 97.529C5.80084 102.673 6.76573 109.278 9.06592 115.689C11.3558 122.072 15.1507 128.759 21.1627 133.452L24.8545 128.722ZM11.8008 97.529H17.8008C17.8008 92.5426 19.1887 87.7956 21.5535 84.467C23.8064 81.2958 26.8736 79.4333 30.9541 79.4333V73.4333V67.4333C22.4606 67.4333 15.9511 71.6331 11.7709 77.517C7.70255 83.2435 5.80078 90.5443 5.80078 97.529H11.8008ZM30.9541 73.4333L30.954 79.4333C34.0307 79.4333 35.8885 79.957 37.2091 80.5632C38.6384 81.2194 39.779 82.1088 41.5716 83.5568L45.3418 78.8893L49.112 74.2218C47.4352 72.8674 45.2026 71.0288 42.2157 69.6576C39.12 68.2364 35.5187 67.4333 30.9542 67.4333L30.9541 73.4333ZM45.3418 78.8893L41.566 83.5523C42.8651 84.6042 44.437 85.8799 46.5033 87.1854L49.708 82.1129L52.9128 77.0405C51.5041 76.1505 50.4179 75.2793 49.1176 74.2264L45.3418 78.8893ZM49.708 82.1129L54.903 85.115C56.796 81.8391 58.9789 78.7754 61.4172 75.984L56.8984 72.0368L52.3796 68.0896C49.415 71.4835 46.7827 75.1833 44.513 79.1109L49.708 82.1129ZM56.8984 72.0368L61.1161 67.7693C61.0095 67.664 61.0893 67.7129 61.2032 67.9421C61.33 68.1974 61.4609 68.604 61.4609 69.1081H55.4609H49.4609C49.4609 72.2597 51.0407 74.6833 52.6808 76.3042L56.8984 72.0368ZM55.4609 69.1081L61.4609 69.1081C61.4609 69.5503 61.3658 69.9215 61.2568 70.1863L55.709 67.901L50.1612 65.6158C49.7241 66.677 49.4609 67.8538 49.4609 69.1081L55.4609 69.1081ZM55.709 67.901L61.2645 70.1674C61.0458 70.7036 60.856 70.6298 61.5475 70.1335C62.1814 69.6787 63.2341 69.1024 64.8071 68.4838L62.6113 62.9001L60.4156 57.3163C58.2771 58.1572 56.2534 59.1626 54.5513 60.384C52.907 61.564 51.1218 63.261 50.1535 65.6347L55.709 67.901ZM62.6113 62.9001L59.6796 57.6651C59.7109 57.6475 59.7386 57.6324 59.7613 57.6202C59.784 57.608 59.8032 57.5978 59.8177 57.5902C59.832 57.5826 59.8435 57.5767 59.8499 57.5734C59.8532 57.5717 59.8558 57.5704 59.8571 57.5697C59.8582 57.5691 59.8593 57.5685 59.8585 57.569C59.8584 57.569 59.8516 57.5725 59.8437 57.5766C59.8352 57.581 59.8217 57.588 59.8053 57.5966C59.7888 57.6053 59.7674 57.6166 59.7426 57.63C59.7178 57.6435 59.6881 57.6598 59.6546 57.6786L62.5947 62.9088L65.5349 68.1391C65.5027 68.1572 65.4743 68.1727 65.4509 68.1854C65.4275 68.1981 65.4075 68.2087 65.3923 68.2166C65.3773 68.2246 65.3652 68.2308 65.3581 68.2345C65.3545 68.2364 65.3516 68.2379 65.3499 68.2387C65.3484 68.2395 65.3472 68.2401 65.3476 68.2399C65.3476 68.2399 65.3481 68.2397 65.3486 68.2394C65.3491 68.2391 65.35 68.2387 65.351 68.2381C65.3531 68.2371 65.3564 68.2354 65.3604 68.2333C65.3682 68.2293 65.381 68.2226 65.3968 68.2144C65.4126 68.2061 65.4333 68.1951 65.4573 68.1822C65.4814 68.1692 65.5104 68.1533 65.5431 68.135L62.6113 62.9001ZM62.5947 62.9088L64.7955 68.4907C66.6078 67.7761 68.9251 67.0801 71.7335 66.4549L70.4297 60.5983L69.1259 54.7417C65.8779 55.4647 62.9326 56.3261 60.394 57.327L62.5947 62.9088ZM70.4297 60.5983L73.536 65.7316C78.4124 62.7807 83.8045 60.6999 89.6095 59.7067L88.5977 53.7926L87.5858 47.8786C80.2315 49.1369 73.426 51.7721 67.3234 55.465L70.4297 60.5983ZM88.5977 53.7926L91.035 48.31C90.0621 47.8775 89.5969 47.4798 89.4469 47.314C89.3861 47.2467 89.4342 47.2806 89.4994 47.4322C89.5705 47.5975 89.6309 47.8329 89.6309 48.1012H83.6309H77.6309C77.6309 54.1641 82.5602 57.6748 86.1603 59.2753L88.5977 53.7926ZM83.6309 48.1012L89.6309 48.1018C89.6308 48.9038 89.214 49.12 89.566 48.7934C89.9309 48.4548 90.7889 47.8881 92.3238 47.4134L90.5508 41.6813L88.7778 35.9493C86.0308 36.7989 83.429 38.118 81.4045 39.9962C79.3671 41.8864 77.6312 44.6503 77.6309 48.1006L83.6309 48.1012ZM30.9551 83.8913L30.9537 77.8913C30.6683 77.8913 30.3985 77.8988 30.1483 77.9099L30.415 83.904L30.6818 89.898C30.7866 89.8934 30.8768 89.8913 30.9564 89.8913L30.9551 83.8913ZM30.415 83.904L30.1506 77.9098C29.9321 77.9194 29.7111 77.9331 29.488 77.9514L29.9785 83.9313L30.469 89.9112C30.5335 89.9059 30.6035 89.9015 30.6795 89.8981L30.415 83.904ZM29.9785 83.9313L29.4853 77.9516C29.2106 77.9743 28.911 78.0046 28.5954 78.0475L29.4033 83.9928L30.2112 89.9382C30.2727 89.9298 30.3567 89.9205 30.4717 89.911L29.9785 83.9313ZM29.4033 83.9928L28.5987 78.047C28.6096 78.0455 28.6177 78.0445 28.6206 78.0441C28.622 78.0439 28.6248 78.0436 28.6182 78.0444C28.6141 78.045 28.6038 78.0463 28.5916 78.0479C28.579 78.0496 28.5614 78.0519 28.5408 78.0548L29.3662 83.9977L30.1917 89.9407C30.1772 89.9427 30.1658 89.9442 30.1594 89.945C30.1534 89.9458 30.1493 89.9464 30.1513 89.9461C30.1518 89.946 30.1522 89.946 30.1531 89.9459C30.1539 89.9458 30.1551 89.9456 30.1564 89.9454C30.159 89.9451 30.1629 89.9446 30.1675 89.944C30.1766 89.9428 30.1908 89.941 30.2079 89.9386L29.4033 83.9928ZM29.3662 83.9977L28.5374 78.0552C23.6417 78.7381 19.9638 81.4651 17.6498 85.1563C15.4432 88.6761 14.5582 92.8949 14.4806 96.9443L20.4795 97.0592L26.4784 97.1742C26.5284 94.564 27.1038 92.6681 27.8171 91.5301C28.4231 90.5634 29.1248 90.0895 30.195 89.9402L29.3662 83.9977ZM20.4795 97.0592L26.3693 95.9145C26.3745 95.9413 26.3782 95.9615 26.3799 95.9712C26.3815 95.98 26.3823 95.9849 26.3809 95.9767C26.3808 95.976 26.3789 95.9653 26.3781 95.9604C26.3768 95.9531 26.375 95.9429 26.373 95.9314C26.369 95.9087 26.363 95.8751 26.3556 95.8356L20.458 96.9391L14.5604 98.0427C14.5567 98.0232 14.5543 98.0096 14.5539 98.007C14.5536 98.0055 14.5536 98.0054 14.5541 98.0081C14.555 98.0132 14.5548 98.0126 14.5564 98.0219C14.5585 98.0338 14.5628 98.0587 14.568 98.0875C14.5733 98.1171 14.5806 98.1573 14.5897 98.204L20.4795 97.0592ZM20.458 96.9391L14.4597 96.7968C14.4544 97.0215 14.4502 97.2688 14.4502 97.529H20.4502H26.4502C26.4502 97.3943 26.4524 97.2478 26.4563 97.0815L20.458 96.9391ZM20.4502 97.529L14.4502 97.5291C14.4503 106.136 17.7713 118.256 26.4826 125.051L30.1729 120.32L33.8631 115.589C29.1407 111.905 26.4503 104.056 26.4502 97.5289L20.4502 97.529ZM30.1729 120.32L26.4763 125.046C30.9418 128.539 36.2076 130.014 41.8422 129.539L41.3379 123.56L40.8336 117.581C38.0754 117.814 35.8421 117.137 33.8694 115.594L30.1729 120.32ZM41.3379 123.56L47.2237 122.395C46.8422 120.468 46.6289 118.328 46.6289 115.95H40.6289H34.6289C34.6289 119.047 34.9069 121.971 35.452 124.725L41.3379 123.56ZM40.6289 115.95L46.6289 115.95C46.6289 108.228 48.1165 100.59 50.8663 93.5298L45.2754 91.3522L39.6845 89.1746C36.4088 97.5847 34.6289 106.697 34.6289 115.95L40.6289 115.95ZM45.2754 91.3522L48.4524 86.2623C46.5279 85.0611 45.1019 83.9126 43.6758 82.76L39.9043 87.4264L36.1328 92.0929C37.5746 93.2582 39.4963 94.8179 42.0984 96.4421L45.2754 91.3522ZM39.9043 87.4264L43.678 82.7618C42.3334 81.674 40.6195 80.238 38.485 79.2774C36.1503 78.2268 33.7365 77.8914 30.9554 77.8913L30.9551 83.8913L30.9548 89.8913C32.7546 89.8913 33.3155 90.1102 33.5603 90.2204C34.0053 90.4206 34.4755 90.7521 36.1306 92.0911L39.9043 87.4264Z" fill="white" mask="url(#path-1-outside-1_1062_29598)"/>
<path d="M57.9336 149.427C57.9336 157.037 90.8851 161.793 117.246 157.988C129.481 156.222 137.017 152.958 137.017 149.427C137.017 141.817 104.066 137.061 77.7046 140.866C65.4706 142.632 57.9336 145.895 57.9336 149.427Z" fill="#3071B1"/>
<path d="M66.1953 150.796C66.1953 150.796 82.4913 154.537 97.6853 154.098C110.235 153.732 125.433 152.338 129.837 150.356C129.837 150.356 124.554 157.182 98.1248 157.182C71.6958 157.182 66.1953 150.796 66.1953 150.796Z" fill="#4B9AE8"/>
<path d="M55.4609 69.108C55.4609 77.669 90.4714 83.02 118.48 78.7395C131.479 76.7525 139.487 73.0815 139.487 69.108C139.487 60.547 104.476 55.1965 76.4674 59.477C63.4684 61.4635 55.4609 65.135 55.4609 69.108Z" fill="#3071B1"/>
<path d="M176.961 76.0474C194.35 75.0489 187.761 81.6479 182.26 84.5094C179.764 85.8044 174.772 93.0999 171.89 105.437C169.641 115.065 167.703 133.403 146.124 132.083C131.325 131.178 145.901 97.0689 145.901 97.0689C145.901 97.0689 155.149 112.485 165.059 89.8029C169.483 79.6754 172.023 76.3294 176.961 76.0474ZM39.7863 133.862C34.2903 133.862 29.2188 132.127 24.8543 128.722C15.2163 121.199 11.8008 106.485 11.8008 97.5284C11.8008 85.5574 18.3798 73.4329 30.9538 73.4329C38.5953 73.4329 41.8723 76.0869 45.3418 78.8894C47.2893 80.4664 49.3013 82.0924 52.6573 83.7729L48.7918 93.3174C44.5958 91.2219 41.9958 89.1159 39.9048 87.4259C36.9048 84.9989 35.5358 83.8914 30.9538 83.8914C23.7373 83.8914 20.4503 90.0899 20.4503 97.5284C20.4503 105.096 23.4558 115.08 30.1728 120.319C34.2358 123.497 39.1438 124.382 44.7288 122.988L46.8298 132.958C44.4273 133.561 42.0698 133.862 39.7863 133.862Z" fill="#4B9AE8"/>
<path d="M154.311 115.95C154.311 148.211 120.206 151.898 97.4699 151.898C74.7334 151.898 40.6289 148.211 40.6289 115.95C40.6289 83.6889 64.2299 53.0444 97.4699 53.0444C130.71 53.0444 154.311 83.6889 154.311 115.95Z" fill="#4B9AE8"/>
<path d="M128.252 106.505C133.362 106.505 137.505 102.362 137.505 97.2524C137.505 92.1424 133.362 88 128.252 88C123.142 88 119 92.1424 119 97.2524C119 102.362 123.142 106.505 128.252 106.505Z" fill="white"/>
<path d="M128.108 102.866C131.171 102.866 133.655 100.383 133.655 97.3191C133.655 94.2556 131.171 91.7721 128.108 91.7721C125.044 91.7721 122.561 94.2556 122.561 97.3191C122.561 100.383 125.044 102.866 128.108 102.866Z" fill="black"/>
<path d="M156.715 127.012C154.298 127.204 151.431 123.27 151.431 123.27C147.245 133.398 134.913 145.952 96.3744 145.952C61.8004 145.952 49.0284 135.38 42.2024 126.354C42.2024 126.354 43.8334 132.295 33.3944 130.096C30.1919 129.419 23.8749 126.3 18.7344 121.901C20.4149 124.491 22.4369 126.834 24.8584 128.722C29.2229 132.127 34.2989 133.862 39.7904 133.862C41.5404 133.862 43.3394 133.63 45.1634 133.279C55.1474 149.59 79.4259 152.294 97.1654 152.294C115.349 152.294 141.071 149.496 150.536 132.043C167.959 130.733 169.803 114.363 171.889 105.442C174.059 96.1494 177.425 89.7239 180.02 86.5609C179.871 86.6249 179.768 86.6399 179.614 86.7139C170.589 91.1179 170.367 125.909 156.715 127.012ZM35.1544 81.2079C31.9909 79.4184 25.4664 80.1054 22.1599 85.6119C19.9754 89.2494 19.8319 93.7274 20.4794 97.0589C20.6179 89.8329 23.8949 83.8914 30.9579 83.8914C35.5349 83.8914 36.9089 84.9989 39.9094 87.4259C41.3374 88.5824 43.0529 89.9364 45.3064 91.3454L46.1669 88.9134C46.1669 88.9134 40.2204 84.0694 35.1544 81.2079ZM132.342 62.8999C133.746 63.6859 134.547 64.5214 134.547 65.4009C134.547 69.4934 117.949 72.8149 97.4769 72.8149C77.0044 72.8149 60.4064 69.4934 60.4064 65.4009C60.4064 64.5214 61.2074 63.6859 62.6109 62.8999C58.0984 64.6744 55.4639 66.8099 55.4639 69.1079C55.4639 75.2519 74.2759 80.2289 97.4769 80.2289C120.678 80.2289 139.49 75.2519 139.49 69.1079C139.49 66.8099 136.855 64.6744 132.342 62.8999Z" fill="#3071B1"/>
<path d="M83.6309 48.1015C83.6309 53.809 95.1634 57.376 104.39 54.5225C108.672 53.198 111.31 50.7505 111.31 48.1015C111.31 42.3945 99.7769 38.827 90.5504 41.681C86.2684 43.0055 83.6309 45.453 83.6309 48.1015Z" fill="#EAC00F"/>
<path d="M175.652 78.4549C175.652 79.7254 179.965 80.5199 183.415 79.8844C185.016 79.5894 186.002 79.0444 186.002 78.4549C186.002 77.1839 181.69 76.3894 178.24 77.0249C176.639 77.3199 175.652 77.8649 175.652 78.4549Z" fill="#3071B1"/>
</svg>
