<svg width="200" height="200" viewBox="0 0 200 200" fill="none" xmlns="http://www.w3.org/2000/svg">
<mask id="path-1-outside-1_1062_23371" maskUnits="userSpaceOnUse" x="13.9707" y="17.9999" width="173" height="164" fill="black">
<rect fill="white" x="13.9707" y="17.9999" width="173" height="164"/>
<path d="M31.2941 30.4941C43.6578 20.7647 160.222 22.9759 172.588 30.4941C180.459 35.2806 181.888 86.038 178.927 125.26C179.146 133.605 179.32 161.889 171.932 169.105C171.505 169.523 170.891 169.91 170.112 170.272C170.056 170.334 170.003 170.396 169.946 170.452C169.561 170.604 169.103 170.746 168.577 170.884C162.373 173.015 149.788 174.102 135.907 174.609C130.936 175.243 101.347 175.201 86.2854 175.136L77.4865 175.087H40.2404C37.9755 175.363 33.2511 175.404 29.5197 171.843C28.4886 170.858 27.761 169.229 27.2561 167.257C24.8956 161.914 23.1605 154.035 21.9777 144.708C21.0721 140.196 19.9117 129.956 20.3947 125.906C18.4587 86.5529 23.3354 36.7575 31.2941 30.4941Z"/>
</mask>
<path d="M31.2941 30.4941C43.6578 20.7647 160.222 22.9759 172.588 30.4941C180.459 35.2806 181.888 86.038 178.927 125.26C179.146 133.605 179.32 161.889 171.932 169.105C171.505 169.523 170.891 169.91 170.112 170.272C170.056 170.334 170.003 170.396 169.946 170.452C169.561 170.604 169.103 170.746 168.577 170.884C162.373 173.015 149.788 174.102 135.907 174.609C130.936 175.243 101.347 175.201 86.2854 175.136L77.4865 175.087H40.2404C37.9755 175.363 33.2511 175.404 29.5197 171.843C28.4886 170.858 27.761 169.229 27.2561 167.257C24.8956 161.914 23.1605 154.035 21.9777 144.708C21.0721 140.196 19.9117 129.956 20.3947 125.906C18.4587 86.5529 23.3354 36.7575 31.2941 30.4941Z" fill="#ADD6FF"/>
<path d="M31.2941 30.4941L27.5837 25.779L27.5835 25.7791L31.2941 30.4941ZM172.588 30.4941L175.706 25.3676L175.705 25.3673L172.588 30.4941ZM178.927 125.26L172.944 124.808C172.929 125.011 172.924 125.214 172.929 125.417L178.927 125.26ZM171.932 169.105L176.124 173.398L176.124 173.398L171.932 169.105ZM170.112 170.272L167.58 164.833C166.855 165.17 166.205 165.649 165.668 166.241L170.112 170.272ZM169.946 170.452L172.141 176.037C172.91 175.734 173.609 175.276 174.193 174.691L169.946 170.452ZM168.577 170.884L167.06 165.079C166.914 165.117 166.77 165.16 166.628 165.209L168.577 170.884ZM135.907 174.609L135.688 168.613C135.508 168.62 135.328 168.635 135.149 168.657L135.907 174.609ZM86.2854 175.136L86.2521 181.136L86.2592 181.136L86.2854 175.136ZM77.4865 175.087L77.5198 169.087C77.5087 169.087 77.4976 169.087 77.4865 169.087L77.4865 175.087ZM40.2404 175.087V169.087C39.9974 169.087 39.7546 169.102 39.5134 169.131L40.2404 175.087ZM29.5197 171.843L25.377 176.183L25.377 176.183L29.5197 171.843ZM27.2561 167.257L33.0686 165.769C32.9865 165.448 32.8781 165.135 32.7443 164.832L27.2561 167.257ZM21.9777 144.708L27.9301 143.953C27.912 143.81 27.8887 143.668 27.8604 143.527L21.9777 144.708ZM20.3947 125.906L26.3525 126.617C26.3923 126.283 26.404 125.947 26.3875 125.611L20.3947 125.906ZM31.2941 30.4941L35.0046 35.2092C34.9796 35.2289 35.4001 34.9306 36.6948 34.4953C37.895 34.0917 39.5101 33.6799 41.555 33.2816C45.6409 32.4858 51.0103 31.8257 57.3336 31.3126C69.9546 30.2885 85.8791 29.8887 101.889 30.026C117.891 30.1633 133.847 30.8359 146.516 31.9318C152.859 32.4806 158.289 33.1281 162.45 33.8485C164.533 34.2092 166.215 34.5741 167.493 34.9292C168.129 35.1059 168.617 35.2671 168.977 35.4053C169.353 35.5499 169.489 35.6317 169.471 35.6209L172.588 30.4941L175.705 25.3673C174.217 24.4627 172.401 23.8383 170.706 23.3673C168.912 22.8687 166.809 22.4247 164.497 22.0245C159.869 21.223 154.066 20.5402 147.55 19.9765C134.498 18.8474 118.222 18.1656 101.992 18.0265C85.7693 17.8873 69.4616 18.2891 56.3631 19.3519C49.8266 19.8823 43.9644 20.5868 39.2608 21.503C36.911 21.9607 34.742 22.4917 32.8704 23.121C31.0932 23.7185 29.1542 24.5431 27.5837 25.779L31.2941 30.4941ZM172.588 30.4941L169.471 35.6206C168.725 35.1669 169 34.9213 169.689 36.6035C170.269 38.0223 170.869 40.1309 171.429 42.9683C172.545 48.6114 173.349 56.3104 173.828 65.2835C174.784 83.1828 174.408 105.418 172.944 124.808L178.927 125.26L184.91 125.711C186.407 105.88 186.798 83.1253 185.811 64.6439C185.319 55.4266 184.476 47.0874 183.202 40.6417C182.568 37.4345 181.788 34.4861 180.795 32.0597C179.91 29.8967 178.419 27.0179 175.706 25.3676L172.588 30.4941ZM178.927 125.26L172.929 125.417C173.036 129.501 173.128 138.38 172.308 147.041C171.898 151.382 171.275 155.486 170.377 158.828C169.421 162.392 168.383 164.185 167.739 164.813L171.932 169.105L176.124 173.398C179.175 170.418 180.885 165.969 181.967 161.939C183.108 157.688 183.813 152.846 184.255 148.171C185.141 138.8 185.037 129.364 184.925 125.103L178.927 125.26ZM171.932 169.105L167.74 164.813C167.814 164.741 167.871 164.694 167.9 164.671C167.931 164.648 167.941 164.642 167.925 164.652C167.909 164.662 167.874 164.684 167.815 164.716C167.756 164.747 167.679 164.787 167.58 164.833L170.112 170.272L172.643 175.712C173.741 175.201 175.023 174.473 176.124 173.398L171.932 169.105ZM170.112 170.272L165.668 166.241C165.652 166.258 165.637 166.274 165.626 166.288C165.614 166.301 165.603 166.313 165.596 166.321C165.587 166.331 165.583 166.335 165.579 166.34C165.575 166.344 165.575 166.345 165.575 166.344C165.576 166.343 165.589 166.329 165.609 166.308C165.629 166.286 165.66 166.253 165.7 166.213L169.946 170.452L174.193 174.691C174.325 174.559 174.43 174.443 174.483 174.385C174.509 174.355 174.535 174.326 174.544 174.316C174.558 174.301 174.558 174.301 174.555 174.304L170.112 170.272ZM169.946 170.452L167.752 164.868C167.659 164.904 167.444 164.978 167.06 165.079L168.577 170.884L170.095 176.689C170.762 176.514 171.463 176.303 172.141 176.037L169.946 170.452ZM168.577 170.884L166.628 165.209C164.202 166.043 160.071 166.795 154.487 167.389C149.02 167.97 142.555 168.362 135.688 168.613L135.907 174.609L136.127 180.605C143.141 180.349 149.908 179.944 155.755 179.322C161.485 178.713 166.749 177.856 170.527 176.558L168.577 170.884ZM135.907 174.609L135.149 168.657C133.124 168.916 124.981 169.073 114.844 169.135C104.974 169.195 93.8357 169.169 86.3116 169.136L86.2854 175.136L86.2592 181.136C93.7971 181.169 104.984 181.196 114.917 181.135C124.582 181.076 133.719 180.937 136.666 180.561L135.907 174.609ZM86.2854 175.136L86.3187 169.136L77.5198 169.087L77.4865 175.087L77.4532 181.087L86.2521 181.136L86.2854 175.136ZM77.4865 175.087V169.087H40.2404V175.087V181.087H77.4865V175.087ZM40.2404 175.087L39.5134 169.131C37.8921 169.329 35.4452 169.204 33.6625 167.502L29.5197 171.843L25.377 176.183C31.057 181.604 38.0589 181.398 40.9675 181.043L40.2404 175.087ZM29.5197 171.843L33.6625 167.502C33.8156 167.649 33.7594 167.656 33.597 167.318C33.4406 166.993 33.253 166.489 33.0686 165.769L27.2561 167.257L21.4435 168.745C22.0363 171.06 23.1146 174.024 25.377 176.183L29.5197 171.843ZM27.2561 167.257L32.7443 164.832C30.7418 160.299 29.0919 153.116 27.9301 143.953L21.9777 144.708L16.0254 145.463C17.229 154.955 19.0494 163.528 21.7678 169.681L27.2561 167.257ZM21.9777 144.708L27.8604 143.527C27.4616 141.54 26.9697 138.072 26.6389 134.569C26.2931 130.909 26.1962 127.927 26.3525 126.617L20.3947 125.906L14.437 125.196C14.1102 127.935 14.352 132.098 14.6921 135.698C15.0471 139.456 15.5882 143.364 16.0951 145.889L21.9777 144.708ZM20.3947 125.906L26.3875 125.611C25.4351 106.253 26.1603 84.2813 28.0988 66.4395C29.0693 57.5062 30.3277 49.7642 31.781 43.9703C32.5097 41.0649 33.2502 38.802 33.9586 37.1822C34.7446 35.385 35.2063 35.0505 35.0048 35.2091L31.2941 30.4941L27.5835 25.7791C25.3923 27.5035 23.9606 30.0952 22.9641 32.3738C21.89 34.8298 20.9589 37.7922 20.1415 41.0508C18.5025 47.5849 17.1704 55.9258 16.169 65.1434C14.1634 83.6035 13.4183 106.206 14.402 126.201L20.3947 125.906Z" fill="white" mask="url(#path-1-outside-1_1062_23371)"/>
<path d="M31.2937 30.4944C43.657 20.7647 160.225 22.976 172.588 30.4944C184.951 38.0128 181.427 158.953 169.946 170.452C156.97 175.55 62.558 172.5 30.5011 172.5C14 155 18.9305 40.224 31.2937 30.4944Z" fill="#B4D7EE"/>
<path d="M73.3174 41.6112C73.3174 43.465 71.6953 45.0871 69.8415 45.0871H39.9486C38.0948 45.0871 36.4727 43.465 36.4727 41.6112C36.4727 39.7574 38.0948 38.1353 39.9486 38.1353H69.8415C71.6953 38.1353 73.3174 39.7574 73.3174 41.6112Z" fill="#D7E8FC"/>
<path d="M86.5245 34.8912C86.5245 36.745 84.9024 38.3671 83.0485 38.3671H53.1556C51.3018 38.3671 49.6797 36.745 49.6797 34.8912C49.9114 33.0374 51.3018 31.4153 53.1556 31.4153H83.2803C85.1341 31.4153 86.5245 33.0374 86.5245 34.8912ZM167.166 72.1994C167.166 74.0533 165.544 75.6754 163.69 75.6754H133.797C131.943 75.6754 130.321 74.0533 130.321 72.1994C130.321 70.3456 131.943 68.7235 133.797 68.7235H163.69C165.544 68.7235 167.166 70.3456 167.166 72.1994Z" fill="#D7E8FC"/>
<path d="M159.292 65.4792C159.292 67.333 157.67 68.9551 155.816 68.9551H125.923C124.069 68.9551 122.447 67.333 122.447 65.4792C122.447 63.6254 124.069 62.0033 125.923 62.0033H155.816C157.67 62.0033 159.292 63.6254 159.292 65.4792Z" fill="#D7E8FC"/>
<path d="M138.894 97.9211H175.971V140.327H129.625V107.19C129.625 102.092 133.796 97.9211 138.894 97.9211Z" fill="#7C8D93"/>
<path d="M168.555 105.568H169.482C170.409 105.568 171.336 106.495 171.336 107.886V140.328H166.702V107.886C166.702 106.495 167.629 105.568 168.555 105.568ZM156.969 105.568H157.896C158.823 105.568 159.75 106.495 159.75 107.886V140.328H155.115V107.886C155.115 106.495 156.042 105.568 156.969 105.568Z" fill="#D6EEF0"/>
<path d="M146.541 91.6645H172.031V98.3846H146.541V91.6645ZM27.6641 91.8962H58.0205V79.8463L27.6641 86.7982V91.8962Z" fill="#7C8D93"/>
<path d="M27.6641 91.6647H57.7887V140.328H27.6641V91.6647Z" fill="#7C8D93"/>
<path d="M49.6782 110.203C49.6782 111.362 48.7513 112.52 47.3609 112.52H40.4091C39.0187 112.52 38.0918 111.362 38.0918 110.203V105.568C38.0918 104.178 39.0187 103.251 40.4091 103.251H47.3609C48.7513 103.251 49.6782 104.178 49.6782 105.568V110.203ZM49.6782 128.741C49.6782 129.9 48.7513 131.058 47.3609 131.058H40.4091C39.0187 131.058 38.0918 129.9 38.0918 128.741V124.107C38.0918 122.716 39.0187 121.789 40.4091 121.789H47.3609C48.7513 121.789 49.6782 122.716 49.6782 124.107V128.741Z" fill="#D6EEF0"/>
<path d="M80.9619 36.0499L57.7891 62.2352V140.328H104.135V62.2352L80.9619 36.0499Z" fill="#62727A"/>
<path d="M97.1841 91.6646C97.1841 92.8233 96.0255 93.9819 94.8669 93.9819H67.0595C65.9008 93.9819 64.7422 92.8233 64.7422 91.6646V87.0301C64.7422 85.6397 65.9008 84.7128 67.0595 84.7128H94.8669C96.0255 84.7128 97.1841 85.6397 97.1841 87.0301V91.6646Z" fill="#D6EEF0"/>
<path d="M97.1841 128.741C97.1841 129.9 96.0255 131.058 94.8669 131.058H67.0595C65.9008 131.058 64.7422 129.9 64.7422 128.741V124.107C64.7422 122.716 65.9008 121.789 67.0595 121.789H94.8669C96.0255 121.789 97.1841 122.716 97.1841 124.107V128.741Z" fill="#FFDD7D"/>
<path d="M97.1841 73.1264C97.1841 74.285 96.0255 75.4437 94.8669 75.4437H67.0595C65.9008 75.4437 64.7422 74.285 64.7422 73.1264V68.4918C64.7422 67.1015 65.9008 66.1746 67.0595 66.1746H94.8669C96.0255 66.1746 97.1841 67.1015 97.1841 68.4918V73.1264Z" fill="#D6EEF0"/>
<path d="M143.529 80.0782V70.8091L129.625 66.1745V40.6844H124.99V66.1745L111.087 70.8091V80.0782H104.135V140.328H150.48V80.0782H143.529Z" fill="#62727A"/>
<path d="M123.833 96.2993C123.833 97.4579 122.674 98.6165 121.515 98.6165H114.563C113.405 98.6165 112.246 97.4579 112.246 96.2993V91.6647C112.246 90.2743 113.405 89.3474 114.563 89.3474H121.515C122.674 89.3474 123.833 90.2743 123.833 91.6647V96.2993ZM142.371 114.838C142.371 115.996 141.212 117.155 140.053 117.155H133.102C131.943 117.155 130.784 115.996 130.784 114.838V110.203C130.784 108.813 131.943 107.886 133.102 107.886H140.053C141.212 107.886 142.371 108.813 142.371 110.203V114.838Z" fill="#D6EEF0"/>
<path d="M123.833 133.376C123.833 134.534 122.674 135.693 121.515 135.693H114.563C113.405 135.693 112.246 134.534 112.246 133.376V128.741C112.246 127.351 113.405 126.424 114.563 126.424H121.515C122.674 126.424 123.833 127.351 123.833 128.741V133.376ZM142.371 133.376C142.371 134.534 141.212 135.693 140.053 135.693H133.102C131.943 135.693 130.784 134.534 130.784 133.376V128.741C130.784 127.351 131.943 126.424 133.102 126.424H140.053C141.212 126.424 142.371 127.351 142.371 128.741V133.376Z" fill="#6ADBC6"/>
<path d="M97.1841 110.203C97.1841 111.362 96.0255 112.52 94.8669 112.52H67.0595C65.9008 112.52 64.7422 111.362 64.7422 110.203V105.568C64.7422 104.178 65.9008 103.251 67.0595 103.251H94.8669C96.0255 103.251 97.1841 104.178 97.1841 105.568V110.203Z" fill="#D6EEF0"/>
<path d="M136.994 121.326C137.976 121.326 138.713 121.558 139.696 121.789C140.678 116.228 145.591 112.057 151.732 112.057C156.645 112.057 160.82 114.837 162.785 118.777C164.505 117.618 166.47 116.691 168.926 116.691C174.33 116.691 178.751 120.862 178.751 125.96C178.751 131.058 174.33 135.23 168.926 135.23H136.994C132.818 135.23 129.625 132.217 129.625 128.278C129.625 124.57 132.818 121.326 136.994 121.326Z" fill="#ADD6FF"/>
<path d="M26.7383 149.365C26.7383 154.281 28.6914 158.997 32.168 162.473C35.6446 165.95 40.3599 167.903 45.2765 167.903C50.1932 167.903 54.9085 165.95 58.3851 162.473C61.8617 158.997 63.8148 154.281 63.8148 149.365C63.8148 144.448 61.8617 139.733 58.3851 136.256C54.9085 132.78 50.1932 130.826 45.2765 130.826C40.3599 130.826 35.6446 132.78 32.168 136.256C28.6914 139.733 26.7383 144.448 26.7383 149.365Z" fill="#ADD6FF"/>
<path d="M48.2895 125.265C49.4481 125.265 50.6068 125.497 51.5337 125.96C52.6923 118.313 58.949 112.288 66.3643 112.288C72.3892 112.288 77.4872 116.228 80.0362 121.557C82.1218 119.704 84.6708 118.777 87.4515 118.777C94.1716 118.777 99.5014 124.57 99.5014 131.753C99.5014 138.937 94.1716 144.73 87.4515 144.73H48.2895C43.1914 144.73 39.2521 140.327 39.2521 134.998C39.2521 129.668 43.1914 125.265 48.2895 125.265ZM26.7379 146.352C32.5311 146.352 38.0934 156.085 39.0203 161.646C39.9473 161.183 40.6424 160.951 41.5694 160.951C45.5087 160.951 48.5212 163.964 48.5212 167.903C48.5212 171.611 45.5087 174.855 41.5694 174.855C41.5694 174.855 34.6172 176.709 29.5192 171.843C24.4211 166.977 26.7379 146.352 26.7379 146.352Z" fill="#ADD6FF"/>
<path d="M162.245 122.929C156.018 122.929 150.483 125.007 146.101 128.701C140.796 117.619 129.726 110 116.58 110C100.436 110 87.0595 121.775 84.5225 137.013C82.4468 136.089 79.9099 135.628 77.6036 135.628C66.764 135.628 58 144.401 58 155.022C58 165.642 66.764 174.416 77.6036 174.416C77.6036 174.416 163.236 177.599 171.932 169.105C180.627 160.611 178.85 122.929 178.85 122.929C173.777 122.929 167.088 122.929 162.245 122.929Z" fill="#4B9AE8"/>
<path d="M118.898 126.394C118.987 128.615 117.12 132.57 114.544 133.041C111.969 133.512 108.617 130.422 108.079 128.107C107.543 125.796 109.074 123.88 112.92 123.181C116.808 122.475 118.809 124.173 118.898 126.394Z" fill="#EAC00F"/>
<path d="M98.5746 132.449C101.39 132.449 103.673 130.166 103.673 127.351C103.673 124.535 101.39 122.253 98.5746 122.253C95.759 122.253 93.4766 124.535 93.4766 127.351C93.4766 130.166 95.759 132.449 98.5746 132.449Z" fill="white"/>
<path d="M98.5729 130.068C100.074 130.068 101.29 128.852 101.29 127.351C101.29 125.85 100.074 124.633 98.5729 124.633C97.0721 124.633 95.8555 125.85 95.8555 127.351C95.8555 128.852 97.0721 130.068 98.5729 130.068Z" fill="#040000"/>
<path d="M126.381 125.96C129.197 125.96 131.479 123.678 131.479 120.862C131.479 118.047 129.197 115.764 126.381 115.764C123.566 115.764 121.283 118.047 121.283 120.862C121.283 123.678 123.566 125.96 126.381 125.96Z" fill="white"/>
<path d="M126.381 123.58C127.882 123.58 129.099 122.363 129.099 120.862C129.099 119.362 127.882 118.145 126.381 118.145C124.881 118.145 123.664 119.362 123.664 120.862C123.664 122.363 124.881 123.58 126.381 123.58Z" fill="#040000"/>
<path d="M164.847 143.34C163.457 143.34 162.067 143.571 160.908 144.035C159.518 135.229 151.871 128.509 142.601 128.509C135.186 128.509 128.698 132.912 125.917 139.169C123.368 137.083 120.124 135.924 116.648 135.924C108.537 135.924 101.817 142.645 101.817 150.755C101.817 158.866 108.537 165.586 116.648 165.586H164.847C171.104 165.586 175.97 160.719 175.97 154.463C175.97 148.438 171.104 143.34 164.847 143.34ZM92.5481 161.183C91.6212 161.183 90.926 161.415 89.9991 161.646C89.0722 156.085 84.4376 151.914 78.6444 151.914C74.0098 151.914 70.0705 154.694 68.2166 158.634C66.5945 157.243 64.509 156.548 62.4234 156.548C57.3254 156.548 53.1543 160.719 53.1543 165.817C53.1543 170.915 57.3254 175.087 62.4234 175.087H92.5481C96.4875 175.087 99.4999 172.074 99.4999 168.135C99.4999 164.195 96.4875 161.183 92.5481 161.183Z" fill="#ADD6FF"/>
<path d="M136.5 174.5C139.5 173.5 120.588 156.085 109.234 156.085C97.8789 156.085 79.5723 164.427 77.4868 175.087C77.4868 175.087 133.5 175.5 136.5 174.5ZM77.4868 175.087C73.5474 166.744 66.1321 161.183 57.7899 161.183C49.4477 161.183 42.0324 166.744 38.093 175.087H77.4868ZM20.7128 124.57C19.3224 127.351 21.6403 145.426 22.5672 146.816C23.4941 148.206 50.3746 144.73 50.3746 144.73C48.289 134.302 22.1032 121.789 20.7128 124.57Z" fill="#ADD6FF"/>
</svg>
