<svg width="200" height="200" viewBox="0 0 200 200" fill="none" xmlns="http://www.w3.org/2000/svg">
<mask id="path-1-outside-1_660_9848" maskUnits="userSpaceOnUse" x="22.5107" y="46" width="155" height="108" fill="black">
<rect fill="white" x="22.5107" y="46" width="155" height="108"/>
<path d="M101.41 74.6872C110.213 72.3357 138.904 35.9107 163.62 62.9304C188.337 89.9501 135.254 124.853 106.105 145.821C103.17 148.564 88.7328 142.294 49.763 118.779C10.7931 95.2637 36.2647 55.8757 57.9798 55.8757C79.6946 55.8759 92.6061 77.0384 101.41 74.6872Z"/>
</mask>
<path d="M101.41 74.6872C110.213 72.3357 138.904 35.9107 163.62 62.9304C188.337 89.9501 135.254 124.853 106.105 145.821C103.17 148.564 88.7328 142.294 49.763 118.779C10.7931 95.2637 36.2647 55.8757 57.9798 55.8757C79.6946 55.8759 92.6061 77.0384 101.41 74.6872Z" fill="#F5DB74"/>
<path d="M101.41 74.6872L103.185 81.3359L103.185 81.3358L101.41 74.6872ZM163.62 62.9304L168.698 58.2856L168.698 58.2856L163.62 62.9304ZM106.105 145.821L102.086 140.235L101.728 140.492L101.405 140.794L106.105 145.821ZM49.763 118.779L46.2076 124.671L46.2076 124.671L49.763 118.779ZM57.9798 55.8757L57.9799 48.9941L57.9798 48.9941L57.9798 55.8757ZM101.41 74.6872L103.185 81.3358C105.578 80.6968 107.872 79.2016 109.533 78.0434C111.378 76.7565 113.485 75.115 115.568 73.5101C119.901 70.1718 124.666 66.5804 129.77 63.8749C134.886 61.1634 139.774 59.6573 144.331 59.909C148.63 60.1463 153.43 61.9865 158.543 67.5752L163.62 62.9304L168.698 58.2856C161.452 50.3645 153.398 46.6254 145.09 46.1666C137.041 45.7221 129.572 48.4031 123.325 51.7143C117.066 55.0315 111.463 59.2985 107.168 62.607C104.938 64.3254 103.165 65.7043 101.66 66.754C99.9704 67.9323 99.4421 68.0898 99.6336 68.0387L101.41 74.6872ZM163.62 62.9304L158.543 67.5752C163.097 72.554 163.882 77.3733 162.507 82.5735C160.985 88.3291 156.677 94.8719 150.045 101.935C136.802 116.04 116.982 129.52 102.086 140.235L106.105 145.821L110.123 151.408C124.377 141.154 145.673 126.699 160.079 111.356C167.272 103.694 173.422 95.1345 175.813 86.0913C178.351 76.4927 176.502 66.8167 168.698 58.2856L163.62 62.9304ZM106.105 145.821L101.405 140.794C102.612 139.666 103.833 139.554 104.027 139.542C104.217 139.531 103.995 139.571 103.148 139.368C101.466 138.965 98.6747 137.943 94.3777 135.921C85.873 131.918 72.7779 124.629 53.3184 112.887L49.763 118.779L46.2076 124.671C65.718 136.444 79.3265 144.048 88.5167 148.374C93.0671 150.515 96.8709 152.016 99.9391 152.752C101.468 153.118 103.159 153.382 104.853 153.28C106.55 153.178 108.864 152.662 110.805 150.848L106.105 145.821ZM49.763 118.779L53.3184 112.887C44.6029 107.628 40.0522 101.838 37.9569 96.5111C35.8611 91.1822 35.9848 85.7205 37.6508 80.6618C39.3374 75.5406 42.5804 70.9438 46.4813 67.6665C50.4311 64.3483 54.5822 62.7574 57.9798 62.7574L57.9798 55.8757L57.9798 48.9941C50.5199 48.9941 43.3439 52.3266 37.6282 57.1285C31.8636 61.9714 27.1027 68.6913 24.5782 76.3565C22.0332 84.0842 21.7387 92.8786 25.1486 101.549C28.5592 110.22 35.4383 118.173 46.2076 124.671L49.763 118.779ZM57.9798 55.8757L57.9798 62.7574C66.5485 62.7574 73.6855 66.9023 80.5544 71.7757C83.6871 73.9984 87.3452 76.8156 90.4529 78.6588C93.4266 80.4225 98.0707 82.7018 103.185 81.3359L101.41 74.6872L99.6339 68.0386C100.347 67.8483 100.076 68.364 97.4738 66.8209C95.0061 65.3573 92.4284 63.3248 88.5185 60.5507C81.3021 55.4307 71.1259 48.9942 57.9799 48.9941L57.9798 55.8757Z" fill="white" mask="url(#path-1-outside-1_660_9848)"/>
<path d="M163.622 62.9303C188.338 89.95 135.255 124.854 106.106 145.822C103.172 148.565 88.734 142.294 49.7641 118.779C10.7942 95.2638 36.2655 55.8757 57.9806 55.8757C79.6958 55.8757 92.6075 77.0395 101.411 74.6879C110.214 72.3363 138.906 35.9106 163.622 62.9303Z" fill="#F6A1A1"/>
<path d="M56.5718 89.1636C63.7199 89.1636 69.5147 83.4503 69.5147 76.4026C69.5147 69.3549 63.7199 63.6416 56.5718 63.6416C49.4236 63.6416 43.6289 69.3549 43.6289 76.4026C43.6289 83.4503 49.4236 89.1636 56.5718 89.1636Z" fill="white"/>
<path d="M144.103 89.1636C151.251 89.1636 157.046 83.4503 157.046 76.4026C157.046 69.3549 151.251 63.6416 144.103 63.6416C136.955 63.6416 131.16 69.3549 131.16 76.4026C131.16 83.4503 136.955 89.1636 144.103 89.1636Z" fill="white"/>
<path d="M56.059 83.2306C59.9575 83.2306 63.1179 80.1167 63.1179 76.2755C63.1179 72.4342 59.9575 69.3203 56.059 69.3203C52.1604 69.3203 49 72.4342 49 76.2755C49 80.1167 52.1604 83.2306 56.059 83.2306Z" fill="black"/>
<path d="M143.591 83.2306C147.49 83.2306 150.65 80.1167 150.65 76.2755C150.65 72.4342 147.49 69.3203 143.591 69.3203C139.693 69.3203 136.532 72.4342 136.532 76.2755C136.532 80.1167 139.693 83.2306 143.591 83.2306Z" fill="black"/>
<path d="M118.397 102.977C117.818 110.926 107.516 122.607 99.3155 122.045C91.1151 121.484 82.6079 108.526 83.1872 100.566C83.7664 92.6175 89.6044 86.5293 101.848 87.366C114.092 88.2027 118.988 95.0175 118.408 102.977H118.397Z" fill="#F5DB74"/>
</svg>
