<svg width="200" height="200" viewBox="0 0 200 200" fill="none" xmlns="http://www.w3.org/2000/svg">
<mask id="path-1-outside-1_1062_20456" maskUnits="userSpaceOnUse" x="18.21" y="17.0001" width="164" height="165" fill="black">
<rect fill="white" x="18.21" y="17.0001" width="164" height="165"/>
<path d="M25.4248 25.272C26.4786 24.2013 28.0217 23.7634 29.4834 24.1245L57.2754 31.0288C59.1959 31.509 60.3777 33.2426 60.501 35.231C60.4627 37.2068 59.0684 38.9028 57.1309 39.315C56.8277 39.3803 53.0921 40.2363 49.1846 42.7124L57.0186 50.5454C61.3556 48.7766 66.1003 47.7993 71.0732 47.7993C83.5524 47.7994 94.5742 53.9605 101.33 63.3804C108.09 53.9605 119.104 47.7994 131.587 47.7993C152.152 47.7993 168.825 64.4683 168.825 85.0376C168.825 87.9524 168.456 90.7782 167.814 93.4976C166.338 102.688 162.356 112.021 156.83 120.883C163.971 126.274 170.686 132.894 170.741 132.949C174.085 136.598 175.858 141.128 175.854 144.404C175.854 147.098 174.681 149.248 172.561 150.799C170.746 152.117 168.341 152.609 165.413 152.609C163.08 152.609 160.456 152.155 157.727 151.347L160.771 154.394C162.433 156.055 162.378 158.796 160.717 160.458C159.892 161.282 158.753 161.749 157.661 161.749C156.573 161.749 155.592 161.23 154.759 160.402L151.746 157.387C152.545 160.1 152.994 162.708 152.994 165.029C152.994 167.961 152.501 170.361 151.184 172.175C149.633 174.296 147.483 175.468 144.789 175.468C141.517 175.468 136.983 173.697 133.338 170.353C133.338 170.353 127.302 164.236 122.051 157.459C114.935 162.537 107.808 166.469 101.33 168.824C75.7299 159.514 40.0089 125.624 34.8379 93.4927C34.2048 90.7777 33.835 87.9523 33.835 85.0376C33.835 72.6045 39.9274 61.5977 49.2881 54.8345L43.0166 48.563C41.5617 50.7207 40.4791 53.346 40.1143 56.5269C39.8806 58.5536 38.2445 60.13 36.2051 60.2788C34.1741 60.4318 32.3169 59.1146 31.79 57.1431L24.3545 29.3462C24.2568 28.9852 24.21 28.62 24.21 28.2505C24.21 27.1502 24.639 26.0793 25.4248 25.272Z"/>
</mask>
<path d="M25.4248 25.272C26.4786 24.2013 28.0217 23.7634 29.4834 24.1245L57.2754 31.0288C59.1959 31.509 60.3777 33.2426 60.501 35.231C60.4627 37.2068 59.0684 38.9028 57.1309 39.315C56.8277 39.3803 53.0921 40.2363 49.1846 42.7124L57.0186 50.5454C61.3556 48.7766 66.1003 47.7993 71.0732 47.7993C83.5524 47.7994 94.5742 53.9605 101.33 63.3804C108.09 53.9605 119.104 47.7994 131.587 47.7993C152.152 47.7993 168.825 64.4683 168.825 85.0376C168.825 87.9524 168.456 90.7782 167.814 93.4976C166.338 102.688 162.356 112.021 156.83 120.883C163.971 126.274 170.686 132.894 170.741 132.949C174.085 136.598 175.858 141.128 175.854 144.404C175.854 147.098 174.681 149.248 172.561 150.799C170.746 152.117 168.341 152.609 165.413 152.609C163.08 152.609 160.456 152.155 157.727 151.347L160.771 154.394C162.433 156.055 162.378 158.796 160.717 160.458C159.892 161.282 158.753 161.749 157.661 161.749C156.573 161.749 155.592 161.23 154.759 160.402L151.746 157.387C152.545 160.1 152.994 162.708 152.994 165.029C152.994 167.961 152.501 170.361 151.184 172.175C149.633 174.296 147.483 175.468 144.789 175.468C141.517 175.468 136.983 173.697 133.338 170.353C133.338 170.353 127.302 164.236 122.051 157.459C114.935 162.537 107.808 166.469 101.33 168.824C75.7299 159.514 40.0089 125.624 34.8379 93.4927C34.2048 90.7777 33.835 87.9523 33.835 85.0376C33.835 72.6045 39.9274 61.5977 49.2881 54.8345L43.0166 48.563C41.5617 50.7207 40.4791 53.346 40.1143 56.5269C39.8806 58.5536 38.2445 60.13 36.2051 60.2788C34.1741 60.4318 32.3169 59.1146 31.79 57.1431L24.3545 29.3462C24.2568 28.9852 24.21 28.62 24.21 28.2505C24.21 27.1502 24.639 26.0793 25.4248 25.272Z" fill="#2C71B6"/>
<path d="M25.4248 25.272L21.1484 21.0634C21.1407 21.0712 21.1331 21.079 21.1255 21.0868L25.4248 25.272ZM29.4834 24.1245L30.93 18.3015L30.9227 18.2997L29.4834 24.1245ZM57.2754 31.0288L58.7306 25.208L58.722 25.2058L57.2754 31.0288ZM60.501 35.231L66.4999 35.3471C66.503 35.1845 66.4995 35.0219 66.4895 34.8597L60.501 35.231ZM57.1309 39.315L55.8825 33.4463C55.8774 33.4474 55.8724 33.4484 55.8674 33.4495L57.1309 39.315ZM49.1846 42.7124L45.9729 37.6444C44.4339 38.6196 43.4215 40.2413 43.221 42.0523C43.0205 43.8632 43.6538 45.6671 44.9422 46.9553L49.1846 42.7124ZM57.0186 50.5454L52.7762 54.7883C54.4838 56.4957 57.0485 57.0131 59.2844 56.1011L57.0186 50.5454ZM71.0732 47.7993L71.0733 41.7993H71.0732V47.7993ZM101.33 63.3804L96.4544 66.8772C97.5811 68.4483 99.3959 69.3801 101.329 69.3804C103.263 69.3807 105.078 68.4494 106.205 66.8787L101.33 63.3804ZM131.587 47.7993L131.587 41.7993L131.587 41.7993L131.587 47.7993ZM168.825 85.0376L174.825 85.0376L174.825 85.0376L168.825 85.0376ZM167.814 93.4976L161.975 92.1198C161.942 92.2607 161.913 92.4027 161.89 92.5456L167.814 93.4976ZM156.83 120.883L151.739 117.709C150.095 120.345 150.735 123.8 153.215 125.672L156.83 120.883ZM170.741 132.949L175.165 128.896C175.097 128.821 175.027 128.748 174.955 128.677L170.741 132.949ZM175.854 144.404L169.854 144.396V144.404H175.854ZM172.561 150.799L176.086 155.655C176.091 155.651 176.097 155.646 176.103 155.642L172.561 150.799ZM165.413 152.609L165.413 158.609H165.413V152.609ZM157.727 151.347L159.429 145.594C156.798 144.815 153.973 145.921 152.57 148.279C151.167 150.638 151.543 153.647 153.483 155.588L157.727 151.347ZM160.771 154.394L156.527 158.635L156.529 158.637L160.771 154.394ZM160.717 160.458L164.959 164.7L164.96 164.7L160.717 160.458ZM157.661 161.749L157.661 167.749H157.661V161.749ZM154.759 160.402L150.515 164.643C150.519 164.647 150.523 164.651 150.527 164.655L154.759 160.402ZM151.746 157.387L155.99 153.146C154.051 151.205 151.043 150.827 148.683 152.228C146.324 153.628 145.216 156.45 145.99 159.082L151.746 157.387ZM152.994 165.029L158.994 165.029V165.029H152.994ZM151.184 172.175L156.026 175.718C156.031 175.712 156.035 175.706 156.039 175.7L151.184 172.175ZM144.789 175.468L144.789 181.468L144.789 181.468L144.789 175.468ZM133.338 170.353L129.067 174.567C129.137 174.638 129.209 174.707 129.282 174.775L133.338 170.353ZM122.051 157.459L126.794 153.784C124.821 151.237 121.188 150.703 118.566 152.575L122.051 157.459ZM101.33 168.824L99.2795 174.462C100.604 174.944 102.056 174.944 103.38 174.463L101.33 168.824ZM34.8379 93.4927L40.7617 92.5394C40.7396 92.4021 40.7127 92.2656 40.6812 92.1303L34.8379 93.4927ZM33.835 85.0376L27.835 85.0376V85.0376H33.835ZM49.2881 54.8345L52.8019 59.6979C54.2269 58.6683 55.1287 57.0656 55.269 55.3132C55.4092 53.5607 54.7738 51.835 53.5307 50.5919L49.2881 54.8345ZM43.0166 48.563L47.2592 44.3204C45.9921 43.0532 44.2248 42.4188 42.441 42.5907C40.6573 42.7626 39.0437 43.7228 38.0418 45.2087L43.0166 48.563ZM40.1143 56.5269L46.0748 57.2142L46.0752 57.2105L40.1143 56.5269ZM36.2051 60.2788L35.7684 54.2947L35.7545 54.2958L36.2051 60.2788ZM31.79 57.1431L37.5866 55.594L37.5863 55.5926L31.79 57.1431ZM24.3545 29.3462L30.1507 27.7958C30.1492 27.7903 30.1478 27.7848 30.1463 27.7793L24.3545 29.3462ZM24.21 28.2505L18.21 28.2505L18.21 28.251L24.21 28.2505ZM25.4248 25.272L29.7012 29.4806C29.2702 29.9186 28.6414 30.0969 28.0441 29.9494L29.4834 24.1245L30.9227 18.2997C27.4021 17.4298 23.6869 18.4839 21.1484 21.0634L25.4248 25.272ZM29.4834 24.1245L28.0368 29.9475L55.8288 36.8518L57.2754 31.0288L58.722 25.2058L30.93 18.3015L29.4834 24.1245ZM57.2754 31.0288L55.8202 36.8497C55.3519 36.7326 54.9695 36.4437 54.7449 36.1412C54.5442 35.871 54.5163 35.6644 54.5125 35.6023L60.501 35.231L66.4895 34.8597C66.2394 30.8272 63.6989 26.45 58.7306 25.208L57.2754 31.0288ZM60.501 35.231L54.5021 35.1149C54.5177 34.3112 55.083 33.6163 55.8825 33.4463L57.1309 39.315L58.3792 45.1837C63.0538 44.1893 66.4078 40.1023 66.4999 35.3471L60.501 35.231ZM57.1309 39.315L55.8674 33.4495C55.2196 33.5891 50.7177 34.6376 45.9729 37.6444L49.1846 42.7124L52.3962 47.7805C55.4664 45.835 58.4358 45.1715 58.3943 45.1804L57.1309 39.315ZM49.1846 42.7124L44.9422 46.9553L52.7762 54.7883L57.0186 50.5454L61.2609 46.3025L53.4269 38.4695L49.1846 42.7124ZM57.0186 50.5454L59.2844 56.1011C62.9165 54.6198 66.8926 53.7993 71.0732 53.7993V47.7993V41.7993C65.3079 41.7993 59.7948 42.9333 54.7527 44.9897L57.0186 50.5454ZM71.0732 47.7993L71.0732 53.7993C81.5255 53.7994 90.77 58.9513 96.4544 66.8772L101.33 63.3804L106.206 59.8836C98.3784 48.9698 85.5793 41.7994 71.0733 41.7993L71.0732 47.7993ZM101.33 63.3804L106.205 66.8787C111.895 58.9502 121.132 53.7994 131.587 53.7993L131.587 47.7993L131.587 41.7993C117.075 41.7994 104.286 48.9709 96.4554 59.8822L101.33 63.3804ZM131.587 47.7993V53.7993C148.839 53.7993 162.825 67.7825 162.825 85.0376L168.825 85.0376L174.825 85.0376C174.825 61.1542 155.465 41.7993 131.587 41.7993V47.7993ZM168.825 85.0376H162.825C162.825 87.4429 162.521 89.8053 161.975 92.1198L167.814 93.4976L173.654 94.8754C174.391 91.7512 174.825 88.462 174.825 85.0376H168.825ZM167.814 93.4976L161.89 92.5456C160.575 100.733 156.974 109.312 151.739 117.709L156.83 120.883L161.921 124.058C167.738 114.729 172.1 104.643 173.738 94.4495L167.814 93.4976ZM156.83 120.883L153.215 125.672C156.588 128.218 159.906 131.091 162.415 133.364C164.912 135.626 166.541 137.233 166.528 137.22L170.741 132.949L174.955 128.677C174.87 128.593 167.92 121.738 160.445 116.095L156.83 120.883ZM170.741 132.949L166.317 137.002C168.867 139.785 169.855 142.922 169.854 144.396L175.854 144.404L181.854 144.411C181.86 139.334 179.303 133.412 175.165 128.896L170.741 132.949ZM175.854 144.404H169.854C169.854 144.854 169.763 145.101 169.684 145.252C169.601 145.41 169.427 145.657 169.018 145.957L172.561 150.799L176.103 155.642C179.681 153.025 181.854 149.117 181.854 144.404H175.854ZM172.561 150.799L169.036 145.944C168.71 146.18 167.803 146.609 165.413 146.609V152.609V158.609C168.878 158.609 172.782 158.053 176.086 155.655L172.561 150.799ZM165.413 152.609L165.413 146.609C163.814 146.609 161.781 146.29 159.429 145.594L157.727 151.347L156.024 157.101C159.131 158.02 162.345 158.609 165.413 158.609L165.413 152.609ZM157.727 151.347L153.483 155.588L156.527 158.635L160.771 154.394L165.015 150.153L161.971 147.106L157.727 151.347ZM160.771 154.394L156.529 158.637C155.748 157.856 155.892 156.797 156.474 156.215L160.717 160.458L164.96 164.7C168.864 160.796 169.117 154.255 165.014 150.151L160.771 154.394ZM160.717 160.458L156.474 156.215C156.634 156.055 156.804 155.948 156.971 155.878C157.135 155.809 157.363 155.749 157.661 155.749V161.749V167.749C160.38 167.749 163.035 166.625 164.959 164.7L160.717 160.458ZM157.661 161.749L157.661 155.749C158.099 155.749 158.464 155.858 158.711 155.977C158.939 156.086 159.023 156.18 158.991 156.148L154.759 160.402L150.527 164.655C152.116 166.237 154.535 167.748 157.661 167.749L157.661 161.749ZM154.759 160.402L159.003 156.161L155.99 153.146L151.746 157.387L147.502 161.629L150.515 164.643L154.759 160.402ZM151.746 157.387L145.99 159.082C146.678 161.419 146.994 163.439 146.994 165.029H152.994H158.994C158.994 161.977 158.411 158.782 157.502 155.693L151.746 157.387ZM152.994 165.029L146.994 165.029C146.994 167.42 146.566 168.323 146.328 168.651L151.184 172.175L156.039 175.7C158.436 172.399 158.994 168.501 158.994 165.029L152.994 165.029ZM151.184 172.175L146.341 168.633C146.041 169.042 145.794 169.216 145.636 169.299C145.486 169.378 145.239 169.468 144.789 169.468L144.789 175.468L144.789 181.468C149.503 181.468 153.41 179.295 156.026 175.718L151.184 172.175ZM144.789 175.468V169.468C143.311 169.468 140.168 168.476 137.394 165.931L133.338 170.353L129.282 174.775C133.799 178.917 139.724 181.468 144.789 181.468V175.468ZM133.338 170.353C137.609 166.139 137.609 166.139 137.609 166.139C137.609 166.139 137.609 166.139 137.609 166.139C137.61 166.14 137.61 166.14 137.61 166.14C137.609 166.14 137.609 166.139 137.608 166.138C137.607 166.137 137.604 166.134 137.599 166.129C137.59 166.12 137.576 166.105 137.556 166.085C137.516 166.044 137.454 165.981 137.372 165.897C137.209 165.728 136.965 165.476 136.655 165.15C136.033 164.499 135.146 163.556 134.099 162.406C131.993 160.096 129.286 157.001 126.794 153.784L122.051 157.459L117.308 161.133C120.066 164.694 123.003 168.046 125.229 170.489C126.346 171.715 127.297 172.725 127.971 173.432C128.308 173.786 128.577 174.065 128.764 174.257C128.858 174.354 128.931 174.428 128.982 174.481C129.007 174.507 129.027 174.527 129.042 174.542C129.049 174.549 129.055 174.555 129.059 174.559C129.061 174.561 129.063 174.563 129.064 174.564C129.065 174.565 129.065 174.566 129.066 174.566C129.066 174.566 129.066 174.567 129.067 174.567C129.067 174.567 129.067 174.567 133.338 170.353ZM122.051 157.459L118.566 152.575C111.765 157.428 105.12 161.062 99.2801 163.185L101.33 168.824L103.38 174.463C110.497 171.875 118.104 167.646 125.536 162.343L122.051 157.459ZM101.33 168.824L103.381 163.185C91.7083 158.94 77.1371 148.795 64.8039 135.616C52.4477 122.413 43.0826 106.961 40.7617 92.5394L34.8379 93.4927L28.9141 94.4461C31.7642 112.155 42.8451 129.714 56.0422 143.816C69.2623 157.943 85.3517 169.398 99.2795 174.462L101.33 168.824ZM34.8379 93.4927L40.6812 92.1303C40.1399 89.809 39.835 87.4423 39.835 85.0376H33.835H27.835C27.835 88.4623 28.2698 91.7465 28.9946 94.8552L34.8379 93.4927ZM33.835 85.0376L39.835 85.0376C39.835 74.6125 44.9352 65.3817 52.8019 59.6979L49.2881 54.8345L45.7742 49.9711C34.9196 57.8136 27.835 70.5966 27.835 85.0376L33.835 85.0376ZM49.2881 54.8345L53.5307 50.5919L47.2592 44.3204L43.0166 48.563L38.774 52.8057L45.0454 59.0771L49.2881 54.8345ZM43.0166 48.563L38.0418 45.2087C36.0777 48.1216 34.6336 51.6557 34.1533 55.8433L40.1143 56.5269L46.0752 57.2105C46.3245 55.0364 47.0457 53.3199 47.9914 51.9174L43.0166 48.563ZM40.1143 56.5269L34.1537 55.8396C34.249 55.0139 34.9226 54.3565 35.7684 54.2948L36.2051 60.2788L36.6417 66.2629C41.5663 65.9036 45.5122 62.0933 46.0748 57.2142L40.1143 56.5269ZM36.2051 60.2788L35.7545 54.2958C36.6025 54.2319 37.3688 54.7788 37.5866 55.594L31.79 57.1431L25.9935 58.6922C27.2651 63.4505 31.7456 66.6317 36.6557 66.2619L36.2051 60.2788ZM31.79 57.1431L37.5863 55.5926L30.1507 27.7958L24.3545 29.3462L18.5583 30.8967L25.9938 58.6936L31.79 57.1431ZM24.3545 29.3462L30.1463 27.7793C30.1908 27.9437 30.2099 28.1059 30.21 28.25L24.21 28.2505L18.21 28.251C18.21 29.1341 18.3229 30.0268 18.5627 30.9132L24.3545 29.3462ZM24.21 28.2505H30.21C30.21 28.7105 30.0309 29.1421 29.7241 29.4572L25.4248 25.272L21.1255 21.0868C19.2471 23.0165 18.21 25.5899 18.21 28.2505H24.21Z" fill="white" mask="url(#path-1-outside-1_1062_20456)"/>
<path d="M92.0579 97.5978L32.5678 38.1163C30.9065 36.4592 36.9145 30.4511 38.5759 32.1039L98.066 91.5898C99.7273 93.2511 92.8864 98.4306 92.0579 97.5978Z" fill="#E84C29"/>
<path d="M168.825 85.0377C168.825 64.4683 152.152 47.7996 131.587 47.7996C119.104 47.7996 108.09 53.9606 101.33 63.3806C94.5742 53.9606 83.5524 47.7996 71.0731 47.7996C50.508 47.7996 33.835 64.4683 33.835 85.0377C33.835 87.9525 34.2046 90.7781 34.8377 93.4932C40.0087 125.624 75.73 159.514 101.33 168.823C126.926 159.518 162.652 125.624 167.814 93.4974C168.456 90.7781 168.825 87.9525 168.825 85.0377Z" fill="#4B9AE8"/>
<path d="M67.0927 89.1854C73.7714 89.1854 79.1854 83.7713 79.1854 77.0927C79.1854 70.4141 73.7714 65 67.0927 65C60.4141 65 55 70.4141 55 77.0927C55 83.7713 60.4141 89.1854 67.0927 89.1854Z" fill="white"/>
<path d="M66.9061 84.4298C70.9101 84.4298 74.1559 81.184 74.1559 77.18C74.1559 73.176 70.9101 69.9302 66.9061 69.9302C62.9021 69.9302 59.6562 73.176 59.6562 77.18C59.6562 81.184 62.9021 84.4298 66.9061 84.4298Z" fill="black"/>
<path d="M136.093 89.1854C142.771 89.1854 148.185 83.7713 148.185 77.0927C148.185 70.4141 142.771 65 136.093 65C129.414 65 124 70.4141 124 77.0927C124 83.7713 129.414 89.1854 136.093 89.1854Z" fill="white"/>
<path d="M135.906 84.4298C139.91 84.4298 143.156 81.184 143.156 77.18C143.156 73.176 139.91 69.9302 135.906 69.9302C131.902 69.9302 128.656 73.176 128.656 77.18C128.656 81.184 131.902 84.4298 135.906 84.4298Z" fill="black"/>
<path d="M170.742 132.949C170.742 132.949 151.583 114.041 143.506 114.041L119.469 114.003L114.392 119.08L114.43 143.117C114.43 151.194 133.338 170.353 133.338 170.353C136.983 173.697 141.517 175.469 144.789 175.469C147.483 175.469 149.633 174.296 151.184 172.176C152.501 170.361 152.994 167.961 152.994 165.029C152.994 159.701 150.631 152.86 147.088 146.703C153.244 150.242 160.085 152.609 165.413 152.609C168.341 152.609 170.746 152.116 172.56 150.799C174.68 149.248 175.853 147.098 175.853 144.404C175.857 141.128 174.086 136.599 170.742 132.949Z" fill="#FA7B5E"/>
<path d="M157.661 161.749C156.574 161.749 155.592 161.231 154.759 160.402L97.8696 103.474C96.2082 101.813 102.216 95.8047 103.878 97.4618L160.772 154.394C162.433 156.055 162.378 158.796 160.716 160.457C159.892 161.282 158.753 161.749 157.661 161.749Z" fill="#E84C29"/>
<path d="M24.21 28.2502C24.21 27.1497 24.6391 26.079 25.4252 25.2717C26.4789 24.2009 28.0213 23.7633 29.483 24.1245L57.2756 31.0291C59.1961 31.5092 60.3773 33.2428 60.5006 35.2313C60.4623 37.2071 59.0687 38.9024 57.1311 39.3146C56.5193 39.4463 41.6818 42.854 40.1139 56.5272C39.8802 58.554 38.2444 60.1304 36.2049 60.2791C34.1738 60.4321 32.317 59.1149 31.7902 57.1433L24.3544 29.3465C24.2567 28.9853 24.21 28.6199 24.21 28.2502Z" fill="#FA7B5E"/>
<path d="M117.781 91.5261C117.649 93.5953 116.018 95.3077 113.889 95.4819C100.003 96.6249 97.9551 104.49 95.9708 112.095L95.5119 113.842C94.8873 116.106 92.5504 117.436 90.2899 116.816C88.0295 116.191 86.708 113.867 87.3156 111.594L87.7533 109.954C89.831 101.987 93.3025 88.6538 113.196 87.0136C115.537 86.8224 117.59 88.5603 117.781 90.8972C117.794 91.1139 117.794 91.3221 117.781 91.5261Z" fill="#2C71B6"/>
</svg>
