<svg width="200" height="200" viewBox="0 0 200 200" fill="none" xmlns="http://www.w3.org/2000/svg">
<mask id="path-1-outside-1_1347_2733" maskUnits="userSpaceOnUse" x="28" y="27.001" width="144" height="145" fill="black">
<rect fill="white" x="28" y="27.001" width="144" height="145"/>
<path d="M99.501 34C135.676 34.0001 165.002 63.3268 165.002 99.502C165.002 135.677 135.676 165.003 99.501 165.003C63.326 165.003 34.0004 135.677 34 99.502C34 63.3267 63.3257 34 99.501 34Z"/>
</mask>
<path d="M99.501 34C135.676 34.0001 165.002 63.3268 165.002 99.502C165.002 135.677 135.676 165.003 99.501 165.003C63.326 165.003 34.0004 135.677 34 99.502C34 63.3267 63.3257 34 99.501 34Z" fill="#EEBA68"/>
<path d="M99.501 34L99.501 28H99.501V34ZM165.002 99.502L171.002 99.502V99.502H165.002ZM99.501 165.003V171.003H99.501L99.501 165.003ZM34 99.502H28V99.502L34 99.502ZM99.501 34L99.501 40C132.362 40.0001 159.002 66.6404 159.002 99.502H165.002H171.002C171.002 60.0132 138.99 28.0001 99.501 28L99.501 34ZM165.002 99.502L159.002 99.5019C159.002 132.363 132.362 159.003 99.501 159.003L99.501 165.003L99.501 171.003C138.99 171.003 171.002 138.99 171.002 99.502L165.002 99.502ZM99.501 165.003V159.003C66.6397 159.003 40.0003 132.363 40 99.5019L34 99.502L28 99.502C28.0004 138.991 60.0122 171.003 99.501 171.003V165.003ZM34 99.502H40C40 66.6403 66.6396 40 99.501 40V34V28C60.0119 28 28 60.0131 28 99.502H34Z" fill="white" mask="url(#path-1-outside-1_1347_2733)"/>
<path d="M99.5008 163.832C135.03 163.832 163.832 135.03 163.832 99.5013C163.832 63.9723 135.03 35.1704 99.5008 35.1704C63.9718 35.1704 35.1699 63.9723 35.1699 99.5013C35.1699 135.03 63.9718 163.832 99.5008 163.832Z" fill="url(#paint0_linear_1347_2733)" stroke="url(#paint1_linear_1347_2733)" stroke-width="2.34048" stroke-miterlimit="10"/>
<path d="M99.5001 159.606C132.695 159.606 159.605 132.696 159.605 99.5016C159.605 66.3067 132.695 39.397 99.5001 39.397C66.3053 39.397 39.3955 66.3067 39.3955 99.5016C39.3955 132.696 66.3053 159.606 99.5001 159.606Z" fill="#F5D481" stroke="url(#paint2_linear_1347_2733)" stroke-width="1.50429" stroke-miterlimit="10"/>
<path d="M100.833 122.791C115.572 122.791 127.52 110.842 127.52 96.1036C127.52 81.3647 115.572 69.4165 100.833 69.4165C86.0942 69.4165 74.146 81.3647 74.146 96.1036C74.146 110.842 86.0942 122.791 100.833 122.791Z" fill="url(#paint3_linear_1347_2733)" stroke="url(#paint4_linear_1347_2733)" stroke-width="2.86202" stroke-miterlimit="10"/>
<path d="M94.2343 97.5326C98.4716 97.5326 101.907 94.0976 101.907 89.8603C101.907 85.623 98.4716 82.188 94.2343 82.188C89.997 82.188 86.562 85.623 86.562 89.8603C86.562 94.0976 89.997 97.5326 94.2343 97.5326Z" stroke="url(#paint5_linear_1347_2733)" stroke-width="2.50427" stroke-miterlimit="10"/>
<path d="M94 94C96.2091 94 98 92.2091 98 90C98 87.7909 96.2091 86 94 86C91.7909 86 90 87.7909 90 90C90 92.2091 91.7909 94 94 94Z" fill="url(#paint6_linear_1347_2733)"/>
<path d="M74.8169 106.392C71.4743 106.431 66.2524 102.662 66.2136 99.319C66.1748 95.9764 71.3062 92.0842 74.6488 92.0454C77.9914 92.0066 80.7284 94.1596 80.7866 99.1488C80.847 104.194 78.1617 106.356 74.8169 106.394V106.392Z" fill="url(#paint7_linear_1347_2733)"/>
<path d="M57.069 67.847C56.7285 67.5065 56.819 66.875 57.2824 66.4289C58.1832 65.5604 58.6401 65.1402 59.5711 64.3234C61.431 62.6941 63.2931 62.6962 64.2715 63.9678C64.278 63.9742 64.2801 63.9785 64.2844 63.985C65.3922 65.4246 64.6271 67.1875 63.0323 68.5927C62.5582 69.0108 62.3211 69.2241 61.8556 69.6595C62.2801 70.1164 62.4913 70.3448 62.9159 70.7996C63.2435 71.153 63.1788 71.7327 62.7737 72.1228C62.3685 72.5129 61.7845 72.5625 61.4418 72.2198C59.9828 70.7608 58.5259 69.3039 57.0669 67.8449L57.069 67.847ZM62.0711 67.3944C62.875 66.6875 63.0258 65.8988 62.5969 65.3815C62.5905 65.3751 62.5883 65.3708 62.5819 65.3643C62.0883 64.7695 61.2909 64.8859 60.4547 65.6208C59.9397 66.0755 59.6832 66.3061 59.1767 66.7781C59.8297 67.4806 60.1573 67.8319 60.8103 68.5345C61.3103 68.069 61.5603 67.8427 62.0711 67.3944Z" fill="url(#paint8_linear_1347_2733)"/>
<path d="M67.6424 66.7696C66.4248 65.1317 65.2093 63.496 63.9916 61.8581C63.705 61.4701 63.8731 60.8689 64.3817 60.5025C66.2157 59.1857 67.1553 58.5736 69.0734 57.4379C69.5432 57.1599 70.1014 57.2418 70.3126 57.6124C70.5238 57.9831 70.3126 58.4896 69.8557 58.759C68.3514 59.649 67.6101 60.1232 66.1575 61.1275C66.5196 61.6512 66.7006 61.9141 67.0627 62.4378C68.2739 61.5994 68.8902 61.2007 70.1381 60.4443C70.582 60.1749 71.123 60.2633 71.3385 60.6318C71.554 61.0003 71.3665 61.4982 70.9333 61.7589C69.7156 62.496 69.1165 62.8839 67.9355 63.7007C68.3105 64.2438 68.498 64.5153 68.8708 65.0563C70.2329 64.1145 70.9268 63.6705 72.3406 62.8365C72.763 62.5865 73.2824 62.6921 73.4936 63.0628C73.7048 63.4335 73.5324 63.9184 73.1208 64.1597C71.4182 65.164 70.582 65.7093 68.9549 66.8774C68.5088 67.1963 67.9334 67.1511 67.6467 66.7653L67.6424 66.7696Z" fill="url(#paint9_linear_1347_2733)"/>
<path d="M73.8984 62.4375C73.8488 60.0884 73.8747 57.7932 73.9716 55.4463C74.0018 54.9592 74.2906 54.5346 74.8315 54.2846C74.879 54.2631 74.9005 54.2523 74.9479 54.2308C75.491 53.9829 75.9867 54.0497 76.3746 54.345C78.1979 55.7997 79.9952 57.2609 81.687 58.8686C81.7883 58.9635 81.8638 59.054 81.9025 59.1596C82.062 59.5906 81.8185 60.0733 81.3465 60.2565C80.9306 60.416 80.5685 60.3083 80.2733 60.041C79.8702 59.6725 79.6655 59.4893 79.2539 59.1272C77.7992 59.7328 77.0815 60.0626 75.6613 60.7738C75.6656 61.347 75.672 61.6337 75.6893 62.2069C75.6979 62.5819 75.5039 62.9095 75.1505 63.097C74.7087 63.3341 74.1958 63.2091 73.9781 62.8168C73.9178 62.7091 73.9027 62.5755 73.8984 62.4375ZM77.9759 58.013C77.0966 57.2652 76.6483 56.8967 75.7302 56.1769C75.6764 57.3406 75.6613 57.9204 75.6526 59.0755C76.575 58.6294 77.0384 58.416 77.9759 58.0109V58.013Z" fill="url(#paint10_linear_1347_2733)"/>
<path d="M81.1294 56.1035C81.1294 56.1035 81.1251 56.0906 81.1208 56.0819C80.2652 53.5518 82.3061 51.3342 84.6401 50.72C86.0539 50.3471 87.1121 50.4182 87.9978 50.72C88.2435 50.804 88.4827 51.0066 88.5452 51.3019C88.6422 51.7631 88.2694 52.2178 87.7177 52.3428C87.4418 52.4053 87.2371 52.3622 87.0733 52.3212C86.4224 52.1079 85.7737 52.0626 85.0474 52.2587C83.4893 52.6833 82.7156 54.0949 83.1272 55.3751C83.1294 55.3837 83.1315 55.388 83.1337 55.3966C83.5453 56.6768 84.8858 57.4138 86.3448 57.0173C87.1358 56.8018 87.6034 56.4569 88.0582 55.9462C88.181 55.8018 88.362 55.6789 88.5862 55.6294C89.0711 55.5195 89.556 55.7845 89.6465 56.2134C89.7025 56.4763 89.5991 56.7156 89.4568 56.8837C88.8211 57.6509 88.0237 58.2048 86.7047 58.569C84.5151 59.1746 82.0022 58.3254 81.1294 56.1035Z" fill="url(#paint11_linear_1347_2733)"/>
<path d="M90.9311 56.5756C90.554 54.5713 90.1768 52.567 89.7975 50.5606C89.7092 50.0865 90.1035 49.6231 90.6962 49.524C92.8319 49.1619 93.9074 49.0261 96.0603 48.8451C96.5883 48.7998 97.0431 49.1188 97.0711 49.5434C97.1013 49.9679 96.7026 50.3321 96.1897 50.3752C94.5 50.5175 93.6552 50.6166 91.9764 50.8731C92.0733 51.5024 92.1208 51.817 92.2177 52.4463C93.6186 52.233 94.3212 52.1468 95.7285 52.0132C96.2306 51.9657 96.6659 52.2804 96.7004 52.705C96.7349 53.1295 96.3621 53.4959 95.8728 53.5411C94.5 53.6705 93.8147 53.7545 92.4505 53.9636C92.5496 54.6144 92.6013 54.9398 92.7005 55.5928C94.2759 55.3515 95.0668 55.2588 96.653 55.1273C97.1271 55.0885 97.5388 55.4096 97.5689 55.8342C97.597 56.2588 97.2435 56.6187 96.7802 56.6575C94.8685 56.8148 93.9138 56.9355 92.0173 57.2588C91.4979 57.3471 91.0195 57.0497 90.929 56.5756H90.9311Z" fill="url(#paint12_linear_1347_2733)"/>
<path d="M107.42 56.655C107.162 56.3619 107.03 56.2154 106.765 55.9244C106.011 56.405 105.162 56.6959 104.151 56.6464C102.522 56.5666 101.289 55.7046 101.287 54.3145C101.287 54.3059 101.287 54.3016 101.287 54.293C101.287 53.2951 101.901 52.5796 103.071 52.1637C102.625 51.6141 102.444 51.1185 102.455 50.5797C102.455 50.571 102.455 50.5667 102.455 50.5581C102.474 49.4827 103.565 48.4957 105.444 48.6142C107.101 48.7198 108.091 49.7155 107.974 50.8081C107.974 50.8167 107.974 50.821 107.972 50.8297C107.86 51.8771 107.002 52.4008 105.854 52.6982C106.302 53.14 106.524 53.3641 106.955 53.8145C107.185 53.5667 107.405 53.3059 107.632 53.0258C107.739 52.8792 108.026 52.6723 108.416 52.7176C108.873 52.7714 109.207 53.1443 109.155 53.5322C109.14 53.6551 109.084 53.7714 108.994 53.8727C108.688 54.2283 108.347 54.5925 108.002 54.9374C108.291 55.2542 108.433 55.4136 108.713 55.7348C108.866 55.9136 108.955 56.0947 108.923 56.3274C108.866 56.7498 108.472 57.0235 108.011 56.9697C107.757 56.9395 107.595 56.8533 107.42 56.655ZM105.752 54.8598C105.125 54.2046 104.802 53.8835 104.138 53.2456C103.517 53.4977 103.265 53.8619 103.252 54.2542C103.252 54.2628 103.252 54.2671 103.252 54.2757C103.235 54.8253 103.735 55.2089 104.446 55.2455C104.895 55.2692 105.33 55.1184 105.752 54.8576V54.8598ZM106.157 50.765C106.157 50.765 106.157 50.7521 106.157 50.7435C106.192 50.2973 105.845 49.987 105.315 49.9547C104.757 49.9202 104.371 50.2284 104.349 50.6982V50.7198C104.332 51.0667 104.481 51.3318 104.845 51.7219C105.668 51.5107 106.119 51.2672 106.157 50.765Z" fill="url(#paint13_linear_1347_2733)"/>
<path d="M114.474 50.7865C114.575 50.3146 115.118 50.0409 115.706 50.1745C116.293 50.3103 116.663 50.7952 116.547 51.2628C116.017 53.3899 115.754 54.4546 115.224 56.5817C116.62 56.9265 117.314 57.1226 118.689 57.558C119.159 57.7067 119.422 58.1614 119.284 58.5752C119.146 58.989 118.674 59.198 118.215 59.0536C116.515 58.517 115.655 58.2843 113.924 57.8856C113.411 57.767 113.082 57.3101 113.183 56.8382C113.612 54.821 114.043 52.8038 114.472 50.7865H114.474Z" fill="url(#paint14_linear_1347_2733)"/>
<path d="M120.259 55.6144C120.259 55.6144 120.264 55.6014 120.266 55.5928C121.195 53.0454 124.266 52.6683 126.477 53.6122C128.682 54.554 130.554 57.0238 129.352 59.457C129.348 59.4656 129.345 59.4699 129.341 59.4764C128.108 61.6121 125.369 61.9612 123.259 61.0647C121.158 60.1703 119.555 57.9613 120.259 55.6144ZM127.412 58.5238C127.412 58.5238 127.419 58.5109 127.423 58.5044C128.009 57.2932 127.404 55.7415 125.826 55.067C124.248 54.3924 122.751 55.0195 122.281 56.2803C122.279 56.2889 122.277 56.2932 122.272 56.3018C121.802 57.5626 122.458 58.9915 123.91 59.6121C125.361 60.2328 126.826 59.735 127.414 58.5238H127.412Z" fill="url(#paint15_linear_1347_2733)"/>
<path d="M130.62 64.0729C130.861 61.8294 130.993 59.5385 131.012 57.2821C131.014 57.1312 131.027 56.9847 131.096 56.8575C131.324 56.433 131.928 56.336 132.465 56.6377C132.965 56.9179 133.158 57.3295 133.13 57.7153C132.967 59.9717 132.848 61.0902 132.531 63.2992C134.419 62.0687 135.396 61.4825 137.404 60.379C137.682 60.2303 138.158 60.2346 138.596 60.5514C139.092 60.9092 139.275 61.4954 138.992 61.8725C138.913 61.9803 138.779 62.0622 138.671 62.1096C136.602 63.0708 134.551 64.1613 132.598 65.338C132.191 65.5794 131.745 65.5923 131.299 65.3057C131.255 65.2777 131.234 65.2647 131.193 65.2389C130.747 64.9544 130.57 64.5449 130.618 64.0751L130.62 64.0729Z" fill="url(#paint16_linear_1347_2733)"/>
<path d="M136.077 67.4698C137.327 65.8578 138.577 64.2457 139.829 62.6337C140.124 62.2522 140.751 62.2565 141.242 62.6531C143.016 64.0841 143.88 64.8449 145.551 66.4591C145.96 66.8534 146.044 67.4289 145.742 67.7306C145.441 68.0323 144.882 67.9483 144.484 67.5625C143.173 66.2974 142.501 65.6918 141.124 64.541C140.717 65.0302 140.512 65.2737 140.105 65.7629C141.253 66.722 141.816 67.222 142.917 68.2651C143.309 68.6357 143.38 69.1939 143.083 69.4978C142.786 69.8017 142.242 69.7413 141.861 69.3814C140.788 68.3663 140.24 67.8793 139.12 66.944C138.697 67.4504 138.486 67.7026 138.064 68.209C139.355 69.2887 139.986 69.8555 141.214 71.0452C141.583 71.4008 141.633 71.9439 141.331 72.2456C141.029 72.5473 140.503 72.4956 140.145 72.1486C138.665 70.7133 137.898 70.0387 136.322 68.7672C135.891 68.4202 135.779 67.8513 136.074 67.4698H136.077Z" fill="url(#paint17_linear_1347_2733)"/>
<path d="M135.198 104.446L139.653 96.6312H135.06C134.426 96.6312 133.911 96.1334 133.911 95.4998C133.911 94.8662 134.426 94.3511 135.06 94.3511H141.573C142.31 94.3511 142.773 94.78 142.773 95.5342C142.773 95.9286 142.618 96.4092 142.396 96.8187L137.582 105.558C137.239 106.191 136.827 106.448 136.314 106.448C135.612 106.448 134.961 106.019 134.961 105.265C134.961 105.043 135.064 104.683 135.2 104.441L135.198 104.446Z" fill="url(#paint18_linear_1347_2733)"/>
<path d="M145.806 104.446L150.261 96.6312H145.668C145.034 96.6312 144.519 96.1334 144.519 95.4998C144.519 94.8662 145.034 94.3511 145.668 94.3511H152.181C152.918 94.3511 153.381 94.78 153.381 95.5342C153.381 95.9286 153.226 96.4092 153.004 96.8187L148.189 105.558C147.847 106.191 147.435 106.448 146.922 106.448C146.22 106.448 145.569 106.019 145.569 105.265C145.569 105.043 145.672 104.683 145.808 104.441L145.806 104.446Z" fill="url(#paint19_linear_1347_2733)"/>
<path d="M43.9551 104.446L48.4097 96.6312H43.8171C43.1835 96.6312 42.6685 96.1334 42.6685 95.4998C42.6685 94.8662 43.1835 94.3511 43.8171 94.3511H50.33C51.067 94.3511 51.5304 94.78 51.5304 95.5342C51.5304 95.9286 51.3752 96.4092 51.1532 96.8187L46.3387 105.558C45.996 106.191 45.5844 106.448 45.0714 106.448C44.3689 106.448 43.718 106.019 43.718 105.265C43.718 105.043 43.8215 104.683 43.9572 104.441L43.9551 104.446Z" fill="url(#paint20_linear_1347_2733)"/>
<path d="M54.563 104.446L59.0177 96.6312H54.4251C53.7914 96.6312 53.2764 96.1334 53.2764 95.4998C53.2764 94.8662 53.7914 94.3511 54.4251 94.3511H60.9379C61.6749 94.3511 62.1383 94.78 62.1383 95.5342C62.1383 95.9286 61.9831 96.4092 61.7611 96.8187L56.9466 105.558C56.6039 106.191 56.1923 106.448 55.6793 106.448C54.9768 106.448 54.3259 106.019 54.3259 105.265C54.3259 105.043 54.4294 104.683 54.5651 104.441L54.563 104.446Z" fill="url(#paint21_linear_1347_2733)"/>
<path d="M119.256 145.48C117.436 145.48 116.196 144.96 115.216 143.98C114.196 142.96 113.556 141.46 113.556 138.68V138.64C113.556 134.32 115.516 131 119.696 131C121.096 131 122.236 131.34 123.076 131.84C123.556 132.12 123.876 132.54 123.876 133.16C123.876 133.96 123.216 134.58 122.416 134.58C122.156 134.58 121.876 134.48 121.656 134.36C121.016 134 120.436 133.8 119.596 133.8C117.856 133.8 116.976 135.2 116.776 137.04C117.476 136.58 118.296 136.14 119.676 136.14C122.456 136.14 124.596 137.68 124.596 140.6V140.64C124.596 143.5 122.296 145.48 119.256 145.48ZM119.136 142.84C120.656 142.84 121.536 141.98 121.536 140.78V140.74C121.536 139.56 120.616 138.7 119.096 138.7C117.576 138.7 116.696 139.54 116.696 140.72V140.76C116.696 141.94 117.616 142.84 119.136 142.84Z" fill="url(#paint22_linear_1347_2733)"/>
<path d="M100.875 143.78C100.875 143.18 101.155 142.66 101.675 142.24L105.655 138.98C107.395 137.56 108.075 136.78 108.075 135.62C108.075 134.44 107.295 133.8 106.195 133.8C105.315 133.8 104.695 134.18 103.915 135.02C103.715 135.24 103.355 135.46 102.875 135.46C102.095 135.46 101.475 134.84 101.475 134.06C101.475 133.72 101.615 133.36 101.835 133.1C102.955 131.8 104.275 131.04 106.395 131.04C109.295 131.04 111.215 132.74 111.215 135.36V135.4C111.215 137.74 110.015 138.9 107.535 140.82L105.255 142.58H110.135C110.875 142.58 111.475 143.18 111.475 143.92C111.475 144.66 110.875 145.24 110.135 145.24H102.535C101.575 145.24 100.875 144.7 100.875 143.78Z" fill="url(#paint23_linear_1347_2733)"/>
<path d="M92.8809 145.48C89.1409 145.48 86.6809 142.34 86.6809 138.28V138.24C86.6809 134.18 89.2009 131 92.9209 131C96.6209 131 99.1209 134.14 99.1209 138.2V138.24C99.1209 142.3 96.6209 145.48 92.8809 145.48ZM92.9209 142.7C94.7809 142.7 95.9609 140.82 95.9609 138.28V138.24C95.9609 135.7 94.7209 133.78 92.8809 133.78C91.0409 133.78 89.8409 135.64 89.8409 138.2V138.24C89.8409 140.8 91.0609 142.7 92.9209 142.7Z" fill="url(#paint24_linear_1347_2733)"/>
<path d="M74 143.78C74 143.18 74.28 142.66 74.8 142.24L78.78 138.98C80.52 137.56 81.2 136.78 81.2 135.62C81.2 134.44 80.42 133.8 79.32 133.8C78.44 133.8 77.82 134.18 77.04 135.02C76.84 135.24 76.48 135.46 76 135.46C75.22 135.46 74.6 134.84 74.6 134.06C74.6 133.72 74.74 133.36 74.96 133.1C76.08 131.8 77.4 131.04 79.52 131.04C82.42 131.04 84.34 132.74 84.34 135.36V135.4C84.34 137.74 83.14 138.9 80.66 140.82L78.38 142.58H83.26C84 142.58 84.6 143.18 84.6 143.92C84.6 144.66 84 145.24 83.26 145.24H75.66C74.7 145.24 74 144.7 74 143.78Z" fill="url(#paint25_linear_1347_2733)"/>
<defs>
<linearGradient id="paint0_linear_1347_2733" x1="35.1721" y1="99.5012" x2="163.832" y2="99.5012" gradientUnits="userSpaceOnUse">
<stop stop-color="#EEBA68"/>
<stop offset="1" stop-color="#AE7E37"/>
</linearGradient>
<linearGradient id="paint1_linear_1347_2733" x1="34.0018" y1="34.0023" x2="165.002" y2="34.0023" gradientUnits="userSpaceOnUse">
<stop stop-color="#EEBA68"/>
<stop offset="1" stop-color="#AE7E37"/>
</linearGradient>
<linearGradient id="paint2_linear_1347_2733" x1="38.6455" y1="34.0027" x2="160.357" y2="34.0027" gradientUnits="userSpaceOnUse">
<stop stop-color="#EEBA68"/>
<stop offset="1" stop-color="#AE7E37"/>
</linearGradient>
<linearGradient id="paint3_linear_1347_2733" x1="74.1482" y1="96.1036" x2="127.52" y2="96.1036" gradientUnits="userSpaceOnUse">
<stop stop-color="#FFD694"/>
<stop offset="1" stop-color="#DEAC61"/>
</linearGradient>
<linearGradient id="paint4_linear_1347_2733" x1="72.715" y1="96.1036" x2="128.953" y2="96.1036" gradientUnits="userSpaceOnUse">
<stop stop-color="#E9B666"/>
<stop offset="1" stop-color="#C9964B"/>
</linearGradient>
<linearGradient id="paint5_linear_1347_2733" x1="86.1506" y1="89.8603" x2="102.319" y2="89.8603" gradientUnits="userSpaceOnUse">
<stop stop-color="#E9B666"/>
<stop offset="1" stop-color="#C9964B"/>
</linearGradient>
<linearGradient id="paint6_linear_1347_2733" x1="91.2611" y1="87.6734" x2="98.1051" y2="92.8064" gradientUnits="userSpaceOnUse">
<stop stop-color="#C28337"/>
<stop offset="1" stop-color="#DDA54C"/>
</linearGradient>
<linearGradient id="paint7_linear_1347_2733" x1="67.5" y1="95.5" x2="79.5" y2="104" gradientUnits="userSpaceOnUse">
<stop stop-color="#EEBA68"/>
<stop offset="1" stop-color="#B37C2A"/>
</linearGradient>
<linearGradient id="paint8_linear_1347_2733" x1="56.8643" y1="67.7522" x2="64.806" y2="67.7522" gradientUnits="userSpaceOnUse">
<stop stop-color="#EEBA68"/>
<stop offset="1" stop-color="#AE7E37"/>
</linearGradient>
<linearGradient id="paint9_linear_1347_2733" x1="63.8515" y1="62.1835" x2="73.582" y2="62.1835" gradientUnits="userSpaceOnUse">
<stop stop-color="#EEBA68"/>
<stop offset="1" stop-color="#AE7E37"/>
</linearGradient>
<linearGradient id="paint10_linear_1347_2733" x1="73.8747" y1="58.6488" x2="81.9521" y2="58.6488" gradientUnits="userSpaceOnUse">
<stop stop-color="#EEBA68"/>
<stop offset="1" stop-color="#AE7E37"/>
</linearGradient>
<linearGradient id="paint11_linear_1347_2733" x1="80.9247" y1="54.6121" x2="89.6637" y2="54.6121" gradientUnits="userSpaceOnUse">
<stop stop-color="#EEBA68"/>
<stop offset="1" stop-color="#AE7E37"/>
</linearGradient>
<linearGradient id="paint12_linear_1347_2733" x1="89.7846" y1="53.0562" x2="97.5711" y2="53.0562" gradientUnits="userSpaceOnUse">
<stop stop-color="#EEBA68"/>
<stop offset="1" stop-color="#AE7E37"/>
</linearGradient>
<linearGradient id="paint13_linear_1347_2733" x1="101.287" y1="52.7908" x2="109.16" y2="52.7908" gradientUnits="userSpaceOnUse">
<stop stop-color="#EEBA68"/>
<stop offset="1" stop-color="#AE7E37"/>
</linearGradient>
<linearGradient id="paint14_linear_1347_2733" x1="113.168" y1="54.6205" x2="119.323" y2="54.6205" gradientUnits="userSpaceOnUse">
<stop stop-color="#EEBA68"/>
<stop offset="1" stop-color="#AE7E37"/>
</linearGradient>
<linearGradient id="paint15_linear_1347_2733" x1="120.091" y1="57.3342" x2="129.729" y2="57.3342" gradientUnits="userSpaceOnUse">
<stop stop-color="#EEBA68"/>
<stop offset="1" stop-color="#AE7E37"/>
</linearGradient>
<linearGradient id="paint16_linear_1347_2733" x1="130.613" y1="60.9889" x2="139.128" y2="60.9889" gradientUnits="userSpaceOnUse">
<stop stop-color="#EEBA68"/>
<stop offset="1" stop-color="#AE7E37"/>
</linearGradient>
<linearGradient id="paint17_linear_1347_2733" x1="135.911" y1="67.3965" x2="145.921" y2="67.3965" gradientUnits="userSpaceOnUse">
<stop stop-color="#EEBA68"/>
<stop offset="1" stop-color="#AE7E37"/>
</linearGradient>
<linearGradient id="paint18_linear_1347_2733" x1="133.914" y1="100.401" x2="142.771" y2="100.401" gradientUnits="userSpaceOnUse">
<stop stop-color="#EEBA68"/>
<stop offset="1" stop-color="#AE7E37"/>
</linearGradient>
<linearGradient id="paint19_linear_1347_2733" x1="144.519" y1="100.401" x2="153.379" y2="100.401" gradientUnits="userSpaceOnUse">
<stop stop-color="#EEBA68"/>
<stop offset="1" stop-color="#AE7E37"/>
</linearGradient>
<linearGradient id="paint20_linear_1347_2733" x1="42.6706" y1="100.401" x2="51.5282" y2="100.401" gradientUnits="userSpaceOnUse">
<stop stop-color="#EEBA68"/>
<stop offset="1" stop-color="#AE7E37"/>
</linearGradient>
<linearGradient id="paint21_linear_1347_2733" x1="53.2764" y1="100.401" x2="62.1361" y2="100.401" gradientUnits="userSpaceOnUse">
<stop stop-color="#EEBA68"/>
<stop offset="1" stop-color="#AE7E37"/>
</linearGradient>
<linearGradient id="paint22_linear_1347_2733" x1="113.556" y1="138.24" x2="124.596" y2="138.24" gradientUnits="userSpaceOnUse">
<stop stop-color="#EEBA68"/>
<stop offset="1" stop-color="#AE7E37"/>
</linearGradient>
<linearGradient id="paint23_linear_1347_2733" x1="100.875" y1="138.14" x2="111.475" y2="138.14" gradientUnits="userSpaceOnUse">
<stop stop-color="#EEBA68"/>
<stop offset="1" stop-color="#AE7E37"/>
</linearGradient>
<linearGradient id="paint24_linear_1347_2733" x1="86.6809" y1="138.24" x2="99.1209" y2="138.24" gradientUnits="userSpaceOnUse">
<stop stop-color="#EEBA68"/>
<stop offset="1" stop-color="#AE7E37"/>
</linearGradient>
<linearGradient id="paint25_linear_1347_2733" x1="74" y1="138.14" x2="84.6" y2="138.14" gradientUnits="userSpaceOnUse">
<stop stop-color="#EEBA68"/>
<stop offset="1" stop-color="#AE7E37"/>
</linearGradient>
</defs>
</svg>
