<svg width="200" height="200" viewBox="0 0 200 200" fill="none" xmlns="http://www.w3.org/2000/svg">
<mask id="path-1-outside-1_1347_13276" maskUnits="userSpaceOnUse" x="8" y="32.9951" width="176" height="149" fill="black">
<rect fill="white" x="8" y="32.9951" width="176" height="149"/>
<path d="M86.2637 38.9951C91.8505 38.9953 96.6954 42.2765 99.0898 47.0742C101.534 46.7589 103.727 46.7495 105.547 46.8701C107.976 42.1836 112.762 38.9953 118.27 38.9951H163.113C171.077 38.9953 177.533 45.6628 177.533 53.8867V160.613C177.533 168.837 171.077 175.505 163.113 175.505H118.27C110.306 175.505 103.85 168.837 103.85 160.613V159.783C103.154 160.556 102.471 161.311 101.801 162.048C101.341 162.554 100.879 163.024 100.419 163.462C99.1318 170.323 93.2843 175.505 86.2637 175.505H41.4199C33.4559 175.505 27 168.837 27 160.613V140.199C20.9392 138.229 19.6676 135.791 18.5684 133.822C16.7227 130.495 16.638 123.204 19.748 119.83C22.858 116.456 24.3238 113.85 19.0889 111.376C13.8536 108.902 12.6509 101.457 15.5127 98.8115C17.8351 96.6627 18.4372 99.8575 27 102.922V53.8867C27 45.6628 33.4559 38.9954 41.4199 38.9951H86.2637Z"/>
</mask>
<path d="M86.2637 38.9951C91.8505 38.9953 96.6954 42.2765 99.0898 47.0742C101.534 46.7589 103.727 46.7495 105.547 46.8701C107.976 42.1836 112.762 38.9953 118.27 38.9951H163.113C171.077 38.9953 177.533 45.6628 177.533 53.8867V160.613C177.533 168.837 171.077 175.505 163.113 175.505H118.27C110.306 175.505 103.85 168.837 103.85 160.613V159.783C103.154 160.556 102.471 161.311 101.801 162.048C101.341 162.554 100.879 163.024 100.419 163.462C99.1318 170.323 93.2843 175.505 86.2637 175.505H41.4199C33.4559 175.505 27 168.837 27 160.613V140.199C20.9392 138.229 19.6676 135.791 18.5684 133.822C16.7227 130.495 16.638 123.204 19.748 119.83C22.858 116.456 24.3238 113.85 19.0889 111.376C13.8536 108.902 12.6509 101.457 15.5127 98.8115C17.8351 96.6627 18.4372 99.8575 27 102.922V53.8867C27 45.6628 33.4559 38.9954 41.4199 38.9951H86.2637Z" fill="#858585"/>
<path d="M86.2637 38.9951L86.2638 32.9951H86.2637V38.9951ZM99.0898 47.0742L93.7213 49.7535C94.8619 52.0389 97.3242 53.3516 99.8573 53.0249L99.0898 47.0742ZM105.547 46.8701L105.15 52.857C107.53 53.0147 109.777 51.7482 110.874 49.6309L105.547 46.8701ZM118.27 38.9951V32.9951H118.269L118.27 38.9951ZM163.113 38.9951L163.113 32.9951H163.113V38.9951ZM163.113 175.505V181.505H163.113L163.113 175.505ZM118.27 175.505L118.269 181.505H118.27V175.505ZM103.85 159.783H109.85C109.85 157.299 108.318 155.071 105.998 154.181C103.679 153.291 101.05 153.923 99.3887 155.771L103.85 159.783ZM101.801 162.048L106.241 166.084L106.241 166.084L101.801 162.048ZM100.419 163.462L96.2834 159.115C95.3705 159.983 94.7542 161.117 94.5218 162.356L100.419 163.462ZM86.2637 175.505V181.505H86.2638L86.2637 175.505ZM41.4199 175.505L41.4197 181.505H41.4199V175.505ZM27 140.199H33C33 137.6 31.3267 135.297 28.855 134.493L27 140.199ZM18.5684 133.822L13.3214 136.733C13.3242 136.738 13.327 136.743 13.3298 136.748L18.5684 133.822ZM19.748 119.83L24.1596 123.897L24.1596 123.897L19.748 119.83ZM19.0889 111.376L21.6526 105.951L21.6525 105.951L19.0889 111.376ZM15.5127 98.8115L19.5852 103.218L19.5875 103.216L15.5127 98.8115ZM27 102.922L24.9783 108.571C26.816 109.229 28.8588 108.951 30.4547 107.827C32.0506 106.704 33 104.874 33 102.922H27ZM41.4199 38.9951V32.9951H41.4197L41.4199 38.9951ZM86.2637 38.9951L86.2635 44.9951C89.4149 44.9952 92.2683 46.8422 93.7213 49.7535L99.0898 47.0742L104.458 44.3949C101.122 37.7108 94.2862 32.9953 86.2638 32.9951L86.2637 38.9951ZM99.0898 47.0742L99.8573 53.0249C101.867 52.7658 103.666 52.7587 105.15 52.857L105.547 46.8701L105.944 40.8832C103.789 40.7404 101.202 40.7521 98.3223 41.1235L99.0898 47.0742ZM105.547 46.8701L110.874 49.6309C112.347 46.7895 115.162 44.9952 118.27 44.9951L118.27 38.9951L118.269 32.9951C110.362 32.9953 103.605 37.5777 100.22 44.1093L105.547 46.8701ZM118.27 38.9951V44.9951H163.113V38.9951V32.9951H118.27V38.9951ZM163.113 38.9951L163.113 44.9951C167.583 44.9952 171.533 48.793 171.533 53.8867H177.533H183.533C183.533 42.5326 174.572 32.9954 163.113 32.9951L163.113 38.9951ZM177.533 53.8867H171.533V160.613H177.533H183.533V53.8867H177.533ZM177.533 160.613H171.533C171.533 165.707 167.583 169.505 163.113 169.505L163.113 175.505L163.113 181.505C174.572 181.505 183.533 171.967 183.533 160.613H177.533ZM163.113 175.505V169.505H118.27V175.505V181.505H163.113V175.505ZM118.27 175.505L118.27 169.505C113.8 169.505 109.85 165.707 109.85 160.613H103.85H97.8496C97.8496 171.967 106.811 181.505 118.269 181.505L118.27 175.505ZM103.85 160.613H109.85V159.783H103.85H97.8496V160.613H103.85ZM103.85 159.783L99.3887 155.771C98.7025 156.534 98.0265 157.28 97.361 158.012L101.801 162.048L106.241 166.084C106.915 165.341 107.606 164.579 108.311 163.796L103.85 159.783ZM101.801 162.048L97.361 158.012C97.0007 158.408 96.6409 158.775 96.2834 159.115L100.419 163.462L104.555 167.809C105.118 167.273 105.681 166.699 106.241 166.084L101.801 162.048ZM100.419 163.462L94.5218 162.356C93.7317 166.568 90.2098 169.505 86.2635 169.505L86.2637 175.505L86.2638 181.505C96.3587 181.505 104.532 174.079 106.316 164.568L100.419 163.462ZM86.2637 175.505V169.505H41.4199V175.505V181.505H86.2637V175.505ZM41.4199 175.505L41.4201 169.505C36.9502 169.505 33 165.707 33 160.613H27H21C21 171.967 29.9616 181.505 41.4197 181.505L41.4199 175.505ZM27 160.613H33V140.199H27H21V160.613H27ZM27 140.199L28.855 134.493C26.3934 133.693 25.3796 132.952 24.9581 132.569C24.5529 132.201 24.3709 131.907 23.8069 130.897L18.5684 133.822L13.3298 136.748C13.8651 137.706 14.8685 139.615 16.8891 141.451C18.8934 143.272 21.5458 144.735 25.145 145.905L27 140.199ZM18.5684 133.822L23.8153 130.912C23.6135 130.548 23.1906 129.12 23.2919 127.152C23.3947 125.153 23.9563 124.117 24.1596 123.897L19.748 119.83L15.3365 115.763C12.4297 118.917 11.4786 123.213 11.3077 126.535C11.1352 129.888 11.6775 133.769 13.3214 136.733L18.5684 133.822ZM19.748 119.83L24.1596 123.897C24.9981 122.987 25.9482 121.895 26.722 120.707C27.4726 119.553 28.3764 117.834 28.5319 115.702C28.9217 110.357 24.7571 107.418 21.6526 105.951L19.0889 111.376L16.5251 116.801C16.9561 117.004 17.2079 117.158 17.3344 117.246C17.4625 117.334 17.4059 117.316 17.2728 117.16C17.1288 116.991 16.9085 116.675 16.7472 116.209C16.5821 115.731 16.5329 115.251 16.5637 114.829C16.5927 114.432 16.6858 114.17 16.7228 114.079C16.7577 113.992 16.7596 114.015 16.6645 114.161C16.5714 114.304 16.4215 114.51 16.1896 114.793C15.9594 115.073 15.6787 115.392 15.3365 115.763L19.748 119.83ZM19.0889 111.376L21.6525 105.951C21.0245 105.654 20.3718 104.901 20.1003 103.764C19.9722 103.228 19.9913 102.829 20.0252 102.649C20.0637 102.443 20.0571 102.782 19.5852 103.218L15.5127 98.8115L11.4402 94.4053C7.74042 97.8249 7.58531 103.021 8.4285 106.552C9.35162 110.417 11.9179 114.623 16.5252 116.801L19.0889 111.376ZM15.5127 98.8115L19.5875 103.216C19.52 103.278 18.395 104.254 16.5603 104.093C15.8944 104.035 15.4725 103.842 15.4253 103.821C15.3887 103.804 15.4689 103.839 15.8132 104.047C17.2426 104.911 20.0383 106.803 24.9783 108.571L27 102.922L29.0217 97.2727C25.3989 95.9762 23.6122 94.739 22.0192 93.7765C21.4505 93.4328 19.728 92.3248 17.6061 92.1391C14.7378 91.8882 12.6666 93.2706 11.4379 94.4074L15.5127 98.8115ZM27 102.922H33V53.8867H27H21V102.922H27ZM27 53.8867H33C33 48.793 36.9502 44.9952 41.4201 44.9951L41.4199 38.9951L41.4197 32.9951C29.9616 32.9955 21 42.5326 21 53.8867H27ZM41.4199 38.9951V44.9951H86.2637V38.9951V32.9951H41.4199V38.9951Z" fill="white" mask="url(#path-1-outside-1_1347_13276)"/>
<path d="M86.2634 38.9956H41.4205C33.4563 38.9956 27 45.6625 27 53.8866V160.614C27 168.838 33.4563 175.505 41.4205 175.505H86.2634C94.2276 175.505 100.684 168.838 100.684 160.614V53.8866C100.684 45.6625 94.2276 38.9956 86.2634 38.9956Z" fill="#5B5B5B"/>
<path d="M111.038 47.7757C111.038 47.7757 87.0406 39.9807 69.7908 68.4304C52.5333 96.8801 41.0929 107.32 28.9777 103.581C18.5146 100.347 18.0027 96.5078 15.5129 98.8114C12.6509 101.456 13.8531 108.902 19.0885 111.376C24.324 113.851 22.8581 116.457 19.7478 119.831C16.6376 123.205 16.7229 130.495 18.5689 133.823C20.4226 137.143 22.765 141.796 47.7399 143.293C53.5261 144.139 46.1732 151.181 49.8341 155.827C52.6651 159.418 58.7072 163.94 72.3193 160.07C78.4545 157.759 75.7243 161.722 78.6406 164.615C81.5647 167.508 91.8029 173.046 101.801 162.048C111.798 151.049 124.86 136.39 132.6 108.98C140.419 81.3212 139.426 55.9119 111.038 47.7834V47.7757Z" fill="#4B9AE8"/>
<path d="M89.989 79.6459C85.9196 79.6459 82.6206 76.347 82.6206 72.2776C82.6206 68.2081 85.9196 64.9092 89.989 64.9092C94.0585 64.9092 97.3574 68.2081 97.3574 72.2776C97.3574 76.347 94.0585 79.6459 89.989 79.6459Z" fill="white"/>
<path d="M90.103 76.7481C87.6633 76.7481 85.6855 74.7703 85.6855 72.3306C85.6855 69.8909 87.6633 67.9131 90.103 67.9131C92.5427 67.9131 94.5205 69.8909 94.5205 72.3306C94.5205 74.7703 92.5427 76.7481 90.103 76.7481Z" fill="black"/>
<path d="M123.511 85.4165C119.442 85.4165 116.143 82.1175 116.143 78.0481C116.143 73.9786 119.442 70.6797 123.511 70.6797C127.581 70.6797 130.88 73.9786 130.88 78.0481C130.88 82.1175 127.581 85.4165 123.511 85.4165Z" fill="white"/>
<path d="M123.625 82.5186C121.186 82.5186 119.208 80.5408 119.208 78.1011C119.208 75.6614 121.186 73.6836 123.625 73.6836C126.065 73.6836 128.043 75.6614 128.043 78.1011C128.043 80.5408 126.065 82.5186 123.625 82.5186Z" fill="black"/>
<path d="M112.75 84.0368C112.821 87.2365 108.781 92.2645 105.169 92.3191C101.557 92.3737 97.3112 87.4821 97.2399 84.2824C97.1686 81.0827 99.4816 78.4493 104.868 78.3606C110.318 78.2719 112.678 80.8371 112.75 84.0368Z" fill="#EAC00F"/>
<path d="M120.507 108.108C120.507 108.108 112.86 106.154 108.113 112.646C103.483 118.975 105.135 121.852 107.57 122.131C110.005 122.411 117.645 115.802 117.645 115.802" stroke="#0D447B" stroke-width="2.32686" stroke-miterlimit="10" stroke-linecap="round"/>
<path d="M68.0413 94.5697C76.3214 96.5399 84.5794 102.03 80.2324 111.645C79.4494 113.372 77.9231 113.761 76.2629 112.738C73.6962 111.153 71.0266 108.641 70.1115 105.685" stroke="#0D447B" stroke-width="2.32686" stroke-miterlimit="10" stroke-linecap="round"/>
<path d="M163.113 38.9956H118.27C110.306 38.9956 103.85 45.6625 103.85 53.8866V160.614C103.85 168.838 110.306 175.505 118.27 175.505H163.113C171.077 175.505 177.533 168.838 177.533 160.614V53.8866C177.533 45.6625 171.077 38.9956 163.113 38.9956Z" fill="#858585"/>
</svg>
