<svg width="200" height="200" viewBox="0 0 200 200" fill="none" xmlns="http://www.w3.org/2000/svg">
<mask id="path-1-outside-1_922_10203" maskUnits="userSpaceOnUse" x="14.002" y="13.2776" width="172" height="173" fill="black">
<rect fill="white" x="14.002" y="13.2776" width="172" height="173"/>
<path d="M24.7681 19.4453C25.1748 19.3032 25.6076 19.2513 26.0337 19.29C26.4596 19.3287 26.8791 19.4517 27.2534 19.6582L85.8716 48.0185C86.8765 47.7684 87.9799 47.6308 89.1372 47.6308C92.9672 47.6309 96.2007 49.1445 97.2554 51.2197L101.802 52.9531C118.633 47.0767 137.633 41.2219 151.532 36.7441C146.872 34.3413 143.256 31.03 146.727 27.2119C151.633 21.8102 156.581 28.3401 159.636 34.0859C160.034 33.952 160.425 33.8221 160.807 33.6923L163.729 24.8877H163.725C163.757 24.7912 163.793 24.696 163.834 24.6035C164.093 23.9759 164.556 23.4522 165.158 23.125L166.901 22.1699C167.43 21.8794 168.024 21.7303 168.625 21.7431C169.225 21.756 169.812 21.9242 170.329 22.2275C170.845 22.5374 171.278 22.9702 171.575 23.4931C171.836 23.9526 171.987 24.4668 172.02 24.9921C172.025 25.0668 172.027 25.1418 172.027 25.2168V43.5703C172.02 43.5756 171.84 43.7233 171.511 43.9951C177.129 46.4359 182.647 50.1882 178.618 54.6093C173.995 59.6956 169.334 54.1893 166.255 48.7304C160.935 53.8864 153.375 62.326 150.038 71.3486L156.062 73.6464C156.475 73.7691 156.856 73.9758 157.178 74.2597C157.501 74.5438 157.773 74.8857 157.954 75.2666C158.141 75.6538 158.243 76.0735 158.256 76.5058C158.269 76.9382 158.199 77.3645 158.038 77.7646L155.326 84.2334C155.151 84.6271 154.9 84.9829 154.584 85.2734C154.267 85.5638 153.892 85.7828 153.486 85.9248C153.079 86.0602 152.647 86.1122 152.221 86.08C151.795 86.0413 151.375 85.9185 151 85.7119L148.473 84.4746C149.405 102.523 154.566 130.448 137.094 141.216C138.346 142.128 139.487 143.189 140.492 144.38C142.228 146.433 143.519 148.835 144.274 151.417L144.771 153.115L155.411 146.969C155.791 146.762 156.243 146.711 156.663 146.82C157.082 146.93 157.45 147.201 157.676 147.569L157.702 147.557C157.915 147.937 157.973 148.383 157.857 148.803C157.741 149.222 157.469 149.583 157.095 149.803L109.724 177.155C106.742 179.002 103.326 180.029 99.8208 180.132C97.9101 180.17 96.025 179.783 94.2886 178.995C92.5521 178.208 91.0223 177.033 89.8023 175.567C89.6731 175.387 89.5766 175.192 89.5249 174.979C89.4733 174.766 89.4604 174.547 89.4927 174.334C89.525 174.121 89.6018 173.915 89.7114 173.727C89.8211 173.54 89.9699 173.379 90.1441 173.25C90.3183 173.121 90.5121 173.023 90.7251 172.972C90.9381 172.92 91.1577 172.907 91.3706 172.939C91.5837 172.972 91.7908 173.049 91.978 173.159C92.1652 173.269 92.3265 173.418 92.4556 173.592C93.3594 174.644 94.4891 175.476 95.7544 176.038C97.0197 176.593 98.3948 176.865 99.7827 176.826C102.713 176.716 105.567 175.839 108.052 174.276L118.917 168.008L118.723 167.033C118.252 164.606 117.238 162.321 115.766 160.339C114.466 158.594 112.828 157.12 110.955 156.013C104.114 159.079 96.6822 160.681 89.1372 160.681C83.5678 160.681 78.0601 159.807 72.8062 158.117C72.5648 158.117 72.3197 158.115 72.0747 158.104C71.6479 158.094 71.2479 158.081 70.8726 158.065L65.3159 161.274C62.3334 163.121 58.918 164.148 55.4126 164.251C53.5083 164.29 51.6168 163.902 49.8804 163.108C48.1503 162.321 46.6136 161.146 45.3999 159.674C45.2708 159.5 45.1742 159.306 45.1226 159.093C45.0709 158.88 45.0581 158.66 45.0903 158.447C45.1226 158.234 45.2003 158.027 45.3101 157.84C45.4198 157.653 45.5685 157.491 45.7427 157.362C45.9169 157.233 46.1108 157.137 46.3237 157.085C46.5367 157.033 46.7563 157.02 46.9692 157.053C47.1822 157.085 47.3886 157.163 47.5757 157.272C47.7629 157.382 47.9242 157.531 48.0532 157.705C48.957 158.757 50.0804 159.59 51.3521 160.151C52.6238 160.707 53.9993 160.977 55.3872 160.938C58.318 160.822 61.1714 159.944 63.6567 158.389L65.8257 157.135C64.8961 156.558 64.5648 155.674 63.9116 154.338C63.0999 153.902 62.298 153.445 61.5073 152.966C50.0463 146.345 46.905 139.126 46.0435 132.616C43.9833 129.579 42.4826 126.116 41.7593 122.192C40.1777 113.614 40.1402 106.59 41.0239 100.856C41.0217 100.839 41.0193 100.822 41.0171 100.805C44.0004 81.5014 57.4525 76.8596 57.5044 76.8418C57.5044 76.8418 57.5049 76.8475 57.5064 76.8584C57.5253 76.8514 57.5393 76.8475 57.5474 76.8447C60.5967 72.8262 64.4315 69.255 69.2554 66.4433C69.3043 66.4129 69.3528 66.3817 69.4019 66.3515C72.8957 64.3346 77.6548 62.1517 83.2173 59.8867V56.3037C82.1487 55.6829 81.3555 54.8956 80.9526 54.0127L22.1987 31.7041C21.7921 31.5814 21.4111 31.3683 21.0884 31.0908C20.7657 30.8132 20.5011 30.4712 20.314 30.0839C20.1268 29.6967 20.0228 29.2774 20.0034 28.8515C19.9905 28.4255 20.0624 27.9988 20.2173 27.5986L22.9282 21.1367C23.1025 20.743 23.3542 20.3881 23.6704 20.0976C23.9867 19.8071 24.3614 19.5808 24.7681 19.4453ZM116.767 152.966C115.995 153.433 115.212 153.88 114.42 154.307C115.668 155.215 116.806 156.273 117.806 157.459C119.549 159.512 120.834 161.913 121.583 164.502L122.08 166.193L141.615 154.916L141.421 153.947C140.963 151.514 139.962 149.222 138.484 147.24C137.236 145.567 135.678 144.152 133.902 143.072L116.767 152.966Z"/>
</mask>
<path d="M24.7681 19.4453C25.1748 19.3032 25.6076 19.2513 26.0337 19.29C26.4596 19.3287 26.8791 19.4517 27.2534 19.6582L85.8716 48.0185C86.8765 47.7684 87.9799 47.6308 89.1372 47.6308C92.9672 47.6309 96.2007 49.1445 97.2554 51.2197L101.802 52.9531C118.633 47.0767 137.633 41.2219 151.532 36.7441C146.872 34.3413 143.256 31.03 146.727 27.2119C151.633 21.8102 156.581 28.3401 159.636 34.0859C160.034 33.952 160.425 33.8221 160.807 33.6923L163.729 24.8877H163.725C163.757 24.7912 163.793 24.696 163.834 24.6035C164.093 23.9759 164.556 23.4522 165.158 23.125L166.901 22.1699C167.43 21.8794 168.024 21.7303 168.625 21.7431C169.225 21.756 169.812 21.9242 170.329 22.2275C170.845 22.5374 171.278 22.9702 171.575 23.4931C171.836 23.9526 171.987 24.4668 172.02 24.9921C172.025 25.0668 172.027 25.1418 172.027 25.2168V43.5703C172.02 43.5756 171.84 43.7233 171.511 43.9951C177.129 46.4359 182.647 50.1882 178.618 54.6093C173.995 59.6956 169.334 54.1893 166.255 48.7304C160.935 53.8864 153.375 62.326 150.038 71.3486L156.062 73.6464C156.475 73.7691 156.856 73.9758 157.178 74.2597C157.501 74.5438 157.773 74.8857 157.954 75.2666C158.141 75.6538 158.243 76.0735 158.256 76.5058C158.269 76.9382 158.199 77.3645 158.038 77.7646L155.326 84.2334C155.151 84.6271 154.9 84.9829 154.584 85.2734C154.267 85.5638 153.892 85.7828 153.486 85.9248C153.079 86.0602 152.647 86.1122 152.221 86.08C151.795 86.0413 151.375 85.9185 151 85.7119L148.473 84.4746C149.405 102.523 154.566 130.448 137.094 141.216C138.346 142.128 139.487 143.189 140.492 144.38C142.228 146.433 143.519 148.835 144.274 151.417L144.771 153.115L155.411 146.969C155.791 146.762 156.243 146.711 156.663 146.82C157.082 146.93 157.45 147.201 157.676 147.569L157.702 147.557C157.915 147.937 157.973 148.383 157.857 148.803C157.741 149.222 157.469 149.583 157.095 149.803L109.724 177.155C106.742 179.002 103.326 180.029 99.8208 180.132C97.9101 180.17 96.025 179.783 94.2886 178.995C92.5521 178.208 91.0223 177.033 89.8023 175.567C89.6731 175.387 89.5766 175.192 89.5249 174.979C89.4733 174.766 89.4604 174.547 89.4927 174.334C89.525 174.121 89.6018 173.915 89.7114 173.727C89.8211 173.54 89.9699 173.379 90.1441 173.25C90.3183 173.121 90.5121 173.023 90.7251 172.972C90.9381 172.92 91.1577 172.907 91.3706 172.939C91.5837 172.972 91.7908 173.049 91.978 173.159C92.1652 173.269 92.3265 173.418 92.4556 173.592C93.3594 174.644 94.4891 175.476 95.7544 176.038C97.0197 176.593 98.3948 176.865 99.7827 176.826C102.713 176.716 105.567 175.839 108.052 174.276L118.917 168.008L118.723 167.033C118.252 164.606 117.238 162.321 115.766 160.339C114.466 158.594 112.828 157.12 110.955 156.013C104.114 159.079 96.6822 160.681 89.1372 160.681C83.5678 160.681 78.0601 159.807 72.8062 158.117C72.5648 158.117 72.3197 158.115 72.0747 158.104C71.6479 158.094 71.2479 158.081 70.8726 158.065L65.3159 161.274C62.3334 163.121 58.918 164.148 55.4126 164.251C53.5083 164.29 51.6168 163.902 49.8804 163.108C48.1503 162.321 46.6136 161.146 45.3999 159.674C45.2708 159.5 45.1742 159.306 45.1226 159.093C45.0709 158.88 45.0581 158.66 45.0903 158.447C45.1226 158.234 45.2003 158.027 45.3101 157.84C45.4198 157.653 45.5685 157.491 45.7427 157.362C45.9169 157.233 46.1108 157.137 46.3237 157.085C46.5367 157.033 46.7563 157.02 46.9692 157.053C47.1822 157.085 47.3886 157.163 47.5757 157.272C47.7629 157.382 47.9242 157.531 48.0532 157.705C48.957 158.757 50.0804 159.59 51.3521 160.151C52.6238 160.707 53.9993 160.977 55.3872 160.938C58.318 160.822 61.1714 159.944 63.6567 158.389L65.8257 157.135C64.8961 156.558 64.5648 155.674 63.9116 154.338C63.0999 153.902 62.298 153.445 61.5073 152.966C50.0463 146.345 46.905 139.126 46.0435 132.616C43.9833 129.579 42.4826 126.116 41.7593 122.192C40.1777 113.614 40.1402 106.59 41.0239 100.856C41.0217 100.839 41.0193 100.822 41.0171 100.805C44.0004 81.5014 57.4525 76.8596 57.5044 76.8418C57.5044 76.8418 57.5049 76.8475 57.5064 76.8584C57.5253 76.8514 57.5393 76.8475 57.5474 76.8447C60.5967 72.8262 64.4315 69.255 69.2554 66.4433C69.3043 66.4129 69.3528 66.3817 69.4019 66.3515C72.8957 64.3346 77.6548 62.1517 83.2173 59.8867V56.3037C82.1487 55.6829 81.3555 54.8956 80.9526 54.0127L22.1987 31.7041C21.7921 31.5814 21.4111 31.3683 21.0884 31.0908C20.7657 30.8132 20.5011 30.4712 20.314 30.0839C20.1268 29.6967 20.0228 29.2774 20.0034 28.8515C19.9905 28.4255 20.0624 27.9988 20.2173 27.5986L22.9282 21.1367C23.1025 20.743 23.3542 20.3881 23.6704 20.0976C23.9867 19.8071 24.3614 19.5808 24.7681 19.4453ZM116.767 152.966C115.995 153.433 115.212 153.88 114.42 154.307C115.668 155.215 116.806 156.273 117.806 157.459C119.549 159.512 120.834 161.913 121.583 164.502L122.08 166.193L141.615 154.916L141.421 153.947C140.963 151.514 139.962 149.222 138.484 147.24C137.236 145.567 135.678 144.152 133.902 143.072L116.767 152.966Z" fill="#E8F4FA"/>
<path d="M24.7681 19.4453L26.6655 25.1373L26.7059 25.1239L26.7462 25.1098L24.7681 19.4453ZM26.0337 19.29L26.5774 13.3147L26.5769 13.3146L26.0337 19.29ZM27.2534 19.6582L24.3553 24.9118L24.4958 24.9893L24.6403 25.0592L27.2534 19.6582ZM85.8716 48.0185L83.2585 53.4196L85.2133 54.3654L87.3206 53.8409L85.8716 48.0185ZM89.1372 47.6308L89.1373 41.6308H89.1372V47.6308ZM97.2554 51.2197L91.9065 53.9381L92.9552 56.0016L95.1181 56.8261L97.2554 51.2197ZM101.802 52.9531L99.6649 58.5595L101.712 59.3398L103.78 58.6177L101.802 52.9531ZM151.532 36.7441L153.372 42.455L167.113 38.0278L154.282 31.4113L151.532 36.7441ZM146.727 27.2119L151.167 31.248L151.169 31.2456L146.727 27.2119ZM159.636 34.0859L154.339 36.9026L156.727 41.3941L161.548 39.7731L159.636 34.0859ZM160.807 33.6923L162.738 39.373L165.562 38.4129L166.502 35.5821L160.807 33.6923ZM163.729 24.8877L169.424 26.7774L172.042 18.8877H163.729V24.8877ZM163.725 24.8877L158.028 23.0048L155.423 30.8877H163.725V24.8877ZM163.834 24.6035L169.323 27.0246L169.351 26.9616L169.377 26.898L163.834 24.6035ZM165.158 23.125L168.024 28.3959L168.032 28.3914L168.041 28.3869L165.158 23.125ZM166.901 22.1699L169.784 27.4318L169.787 27.4299L166.901 22.1699ZM168.625 21.7431L168.754 15.7445L168.753 15.7445L168.625 21.7431ZM170.329 22.2275L173.416 17.0825L173.392 17.0681L173.367 17.0539L170.329 22.2275ZM171.575 23.4931L176.792 20.5303L176.792 20.5302L171.575 23.4931ZM172.02 24.9921L166.032 25.3666L166.032 25.3776L172.02 24.9921ZM172.027 43.5703L175.753 48.2729L178.027 46.4712V43.5703H172.027ZM171.511 43.9951L167.685 39.3733L160.159 45.6041L169.12 49.498L171.511 43.9951ZM178.618 54.6093L174.183 50.5675L174.178 50.5738L178.618 54.6093ZM166.255 48.7304L171.482 45.7831L167.663 39.0117L162.08 44.4216L166.255 48.7304ZM150.038 71.3486L144.41 69.2673L142.35 74.838L147.899 76.9546L150.038 71.3486ZM156.062 73.6464L153.924 79.2525L154.136 79.3335L154.354 79.3982L156.062 73.6464ZM157.178 74.2597L161.142 69.7554L161.141 69.755L157.178 74.2597ZM157.954 75.2666L152.533 77.8392L152.542 77.8584L152.552 77.8776L157.954 75.2666ZM158.256 76.5058L164.254 76.3268L164.254 76.3259L158.256 76.5058ZM158.038 77.7646L163.571 80.0844L163.587 80.046L163.603 80.0073L158.038 77.7646ZM155.326 84.2334L160.812 86.6618L160.836 86.6077L160.859 86.5531L155.326 84.2334ZM154.584 85.2734L158.641 89.693L158.642 89.6926L154.584 85.2734ZM153.486 85.9248L155.383 91.617L155.424 91.6034L155.464 91.5893L153.486 85.9248ZM152.221 86.08L151.678 92.0554L151.723 92.0595L151.769 92.063L152.221 86.08ZM151 85.7119L153.899 80.4584L153.77 80.3875L153.639 80.323L151 85.7119ZM148.473 84.4746L151.111 79.0857L141.956 74.6033L142.481 84.7839L148.473 84.4746ZM137.094 141.216L133.946 136.108L126.334 140.799L133.561 146.065L137.094 141.216ZM140.492 144.38L135.905 148.248L135.911 148.255L140.492 144.38ZM144.274 151.417L138.515 153.101L138.516 153.102L144.274 151.417ZM144.771 153.115L139.013 154.801L141.158 162.131L147.772 158.311L144.771 153.115ZM155.411 146.969L152.552 141.694L152.48 141.733L152.409 141.773L155.411 146.969ZM156.663 146.82L158.181 141.016L158.181 141.015L156.663 146.82ZM157.676 147.569L152.563 150.709L155.441 155.395L160.36 152.936L157.676 147.569ZM157.702 147.557L162.938 144.628L160.142 139.628L155.018 142.19L157.702 147.557ZM157.857 148.803L163.639 150.405L163.639 150.404L157.857 148.803ZM157.095 149.803L160.095 154.999L160.113 154.989L160.13 154.978L157.095 149.803ZM109.724 177.155L106.724 171.959L106.644 172.005L106.566 172.054L109.724 177.155ZM99.8208 180.132L99.9422 186.131L99.9699 186.13L99.9975 186.129L99.8208 180.132ZM94.2886 178.995L91.8103 184.459L91.8104 184.459L94.2886 178.995ZM89.8023 175.567L84.9199 179.055L85.0491 179.236L85.1913 179.407L89.8023 175.567ZM89.5249 174.979L83.6936 176.392L83.6938 176.393L89.5249 174.979ZM89.4927 174.334L83.5606 173.434L83.5604 173.435L89.4927 174.334ZM89.7114 173.727L84.5352 170.693L84.5349 170.694L89.7114 173.727ZM90.1441 173.25L86.5727 168.429L86.5718 168.429L90.1441 173.25ZM90.7251 172.972L89.3115 167.141L89.3114 167.141L90.7251 172.972ZM91.3706 172.939L92.2694 167.007L92.2685 167.007L91.3706 172.939ZM91.978 173.159L95.0133 167.983L95.0124 167.983L91.978 173.159ZM92.4556 173.592L87.6342 177.163L87.763 177.337L87.904 177.501L92.4556 173.592ZM95.7544 176.038L93.3202 181.522L93.3319 181.527L93.3436 181.532L95.7544 176.038ZM99.7827 176.826L99.9501 182.824L99.9787 182.823L100.007 182.822L99.7827 176.826ZM108.052 174.276L105.054 169.079L104.955 169.136L104.859 169.197L108.052 174.276ZM118.917 168.008L121.915 173.205L125.638 171.056L124.802 166.84L118.917 168.008ZM118.723 167.033L112.833 168.177L112.835 168.189L112.838 168.201L118.723 167.033ZM115.766 160.339L120.583 156.761L120.577 156.754L115.766 160.339ZM110.955 156.013L114.008 150.848L111.334 149.267L108.5 150.538L110.955 156.013ZM89.1372 160.681L89.1372 166.681L89.1372 166.681L89.1372 160.681ZM72.8062 158.117L74.6433 152.405L73.7513 152.118L72.8143 152.117L72.8062 158.117ZM72.0747 158.104L72.3353 152.11L72.2757 152.108L72.216 152.106L72.0747 158.104ZM70.8726 158.065L71.1211 152.071L69.3805 151.998L67.872 152.87L70.8726 158.065ZM65.3159 161.274L62.3153 156.079L62.2358 156.124L62.1578 156.173L65.3159 161.274ZM55.4126 164.251L55.5345 170.25L55.5619 170.249L55.5893 170.248L55.4126 164.251ZM49.8804 163.108L52.3753 157.652L52.3663 157.648L49.8804 163.108ZM45.3999 159.674L40.5786 163.245L40.6714 163.371L40.7707 163.491L45.3999 159.674ZM45.1226 159.093L39.2915 160.506L39.2916 160.507L45.1226 159.093ZM45.0903 158.447L39.158 157.548L39.1579 157.549L45.0903 158.447ZM45.3101 157.84L40.1348 154.804L40.1339 154.805L45.3101 157.84ZM45.7427 157.362L42.1723 152.54L42.1713 152.541L45.7427 157.362ZM46.3237 157.085L44.9113 151.254L44.9101 151.254L46.3237 157.085ZM46.9692 157.053L47.8695 151.121L47.8681 151.12L46.9692 157.053ZM47.5757 157.272L50.6105 152.097L50.61 152.096L47.5757 157.272ZM48.0532 157.705L43.2319 161.276L43.3607 161.45L43.5017 161.614L48.0532 157.705ZM51.3521 160.151L48.9281 165.64L48.9398 165.645L48.9515 165.65L51.3521 160.151ZM55.3872 160.938L55.5546 166.936L55.5898 166.935L55.625 166.934L55.3872 160.938ZM63.6567 158.389L60.6538 153.194L60.5625 153.247L60.4732 153.303L63.6567 158.389ZM65.8257 157.135L68.8287 162.329L77.4979 157.317L68.9897 152.037L65.8257 157.135ZM63.9116 154.338L69.3024 151.704L68.4534 149.966L66.7497 149.052L63.9116 154.338ZM61.5073 152.966L64.6159 147.834L64.5626 147.802L64.5086 147.77L61.5073 152.966ZM46.0435 132.616L51.9916 131.829L51.8054 130.422L51.0088 129.248L46.0435 132.616ZM41.7593 122.192L47.6599 121.105L47.6598 121.104L41.7593 122.192ZM41.0239 100.856L46.9539 101.77L47.0831 100.933L46.975 100.092L41.0239 100.856ZM41.0171 100.805L35.0875 99.8882L34.958 100.726L35.0658 101.568L41.0171 100.805ZM57.5044 76.8418L63.4821 76.325L62.8203 68.67L55.554 71.1676L57.5044 76.8418ZM57.5064 76.8584L51.5597 77.6564L52.5528 85.057L59.5661 82.4937L57.5064 76.8584ZM57.5474 76.8447L59.5341 82.5062L61.2365 81.9088L62.3271 80.4716L57.5474 76.8447ZM69.2554 66.4433L72.2768 71.627L72.3499 71.5845L72.4217 71.5398L69.2554 66.4433ZM69.4019 66.3515L66.4021 61.1552L66.3279 61.198L66.2551 61.2429L69.4019 66.3515ZM83.2173 59.8867L85.4801 65.4436L89.2173 63.9219V59.8867H83.2173ZM83.2173 56.3037H89.2173V52.8504L86.2314 51.1157L83.2173 56.3037ZM80.9526 54.0127L86.4112 51.5219L85.3876 49.2786L83.0825 48.4034L80.9526 54.0127ZM22.1987 31.7041L24.3286 26.0948L24.1324 26.0203L23.9316 25.9597L22.1987 31.7041ZM21.0884 31.0908L17.1757 35.6395L17.1762 35.6399L21.0884 31.0908ZM20.314 30.0839L14.9118 32.6948L14.9119 32.695L20.314 30.0839ZM20.0034 28.8515L14.0062 29.0333L14.0076 29.079L14.0097 29.1247L20.0034 28.8515ZM20.2173 27.5986L14.6845 25.2774L14.6521 25.3546L14.6219 25.4326L20.2173 27.5986ZM22.9282 21.1367L17.4417 18.7082L17.418 18.7616L17.3954 18.8155L22.9282 21.1367ZM23.6704 20.0976L19.612 15.6784L19.6114 15.6789L23.6704 20.0976ZM116.767 152.966L113.767 147.77L113.712 147.801L113.659 147.834L116.767 152.966ZM114.42 154.307L111.576 149.024L103.18 153.545L110.889 159.157L114.42 154.307ZM117.806 157.459L113.219 161.327L113.226 161.335L113.232 161.342L117.806 157.459ZM121.583 164.502L115.819 166.169L115.822 166.182L115.826 166.194L121.583 164.502ZM122.08 166.193L116.323 167.885L118.474 175.203L125.079 171.39L122.08 166.193ZM141.615 154.916L144.615 160.112L148.341 157.961L147.499 153.742L141.615 154.916ZM141.421 153.947L135.525 155.058L135.531 155.09L135.537 155.122L141.421 153.947ZM138.484 147.24L143.293 143.653L143.293 143.653L138.484 147.24ZM133.902 143.072L137.02 137.946L133.982 136.098L130.902 137.876L133.902 143.072ZM24.7681 19.4453L26.7462 25.1098C26.3348 25.2535 25.9074 25.3033 25.4905 25.2654L26.0337 19.29L26.5769 13.3146C25.3079 13.1993 24.0148 13.353 22.79 13.7807L24.7681 19.4453ZM26.0337 19.29L25.4901 25.2653C25.1421 25.2337 24.7522 25.1307 24.3553 24.9118L27.2534 19.6582L30.1516 14.4045C29.0061 13.7726 27.7772 13.4238 26.5774 13.3147L26.0337 19.29ZM27.2534 19.6582L24.6403 25.0592L83.2585 53.4196L85.8716 48.0185L88.4847 42.6174L29.8665 14.2571L27.2534 19.6582ZM85.8716 48.0185L87.3206 53.8409C87.8338 53.7132 88.4496 53.6308 89.1372 53.6308V47.6308V41.6308C87.5101 41.6308 85.9193 41.8236 84.4226 42.1961L85.8716 48.0185ZM89.1372 47.6308L89.1371 53.6308C90.2948 53.6308 91.2103 53.8649 91.7772 54.1197C92.0541 54.2441 92.1802 54.3428 92.1993 54.359C92.221 54.3775 92.068 54.2558 91.9065 53.9381L97.2554 51.2197L102.604 48.5013C101.252 45.8404 98.8794 44.1555 96.6969 43.1745C94.4258 42.1537 91.8096 41.6309 89.1373 41.6308L89.1372 47.6308ZM97.2554 51.2197L95.1181 56.8261L99.6649 58.5595L101.802 52.9531L103.94 47.3467L99.3927 45.6133L97.2554 51.2197ZM101.802 52.9531L103.78 58.6177C120.519 52.7732 139.364 46.9678 153.372 42.455L151.532 36.7441L149.692 31.0332C135.902 35.476 116.746 41.3802 99.8245 47.2884L101.802 52.9531ZM151.532 36.7441L154.282 31.4113C153.315 30.9128 152.527 30.4295 151.937 29.9852C151.647 29.7669 151.437 29.5819 151.292 29.4366C151.145 29.2896 151.095 29.2141 151.098 29.2189C151.119 29.2508 151.402 29.7252 151.336 30.4898C151.271 31.2397 150.936 31.5015 151.167 31.248L146.727 27.2119L142.288 23.1757C140.782 24.8313 139.598 26.9389 139.38 29.4586C139.162 31.993 139.989 34.1613 141.063 35.7986C143.014 38.7743 146.285 40.7892 148.782 42.0769L151.532 36.7441ZM146.727 27.2119L151.169 31.2456C151.641 30.726 151.474 31.1537 150.672 31.1922C149.992 31.2248 149.813 30.9217 150.274 31.2673C150.73 31.6094 151.383 32.2765 152.166 33.3542C152.923 34.3966 153.66 35.6258 154.339 36.9026L159.636 34.0859L164.934 31.2692C163.354 28.2979 160.842 24.1951 157.477 21.67C155.706 20.34 153.179 19.0581 150.096 19.206C146.891 19.3598 144.266 20.9969 142.285 23.1781L146.727 27.2119ZM159.636 34.0859L161.548 39.7731C161.917 39.649 162.346 39.5065 162.738 39.373L160.807 33.6923L158.876 28.0117C158.505 28.1377 158.151 28.2551 157.724 28.3987L159.636 34.0859ZM160.807 33.6923L166.502 35.5821L169.424 26.7774L163.729 24.8877L158.034 22.9979L155.113 31.8026L160.807 33.6923ZM163.729 24.8877V18.8877H163.725V24.8877V30.8877H163.729V24.8877ZM163.725 24.8877L169.422 26.7705C169.405 26.8229 169.373 26.9113 169.323 27.0246L163.834 24.6035L158.344 22.1823C158.212 22.4806 158.109 22.7594 158.028 23.0048L163.725 24.8877ZM163.834 24.6035L169.377 26.898C169.125 27.509 168.658 28.0511 168.024 28.3959L165.158 23.125L162.291 17.854C160.454 18.8534 159.062 20.4427 158.29 22.3089L163.834 24.6035ZM165.158 23.125L168.041 28.3869L169.784 27.4318L166.901 22.1699L164.018 16.9079L162.275 17.863L165.158 23.125ZM166.901 22.1699L169.787 27.4299C169.418 27.6325 168.975 27.752 168.496 27.7417L168.625 21.7431L168.753 15.7445C167.073 15.7085 165.442 16.1263 164.014 16.9099L166.901 22.1699ZM168.625 21.7431L168.496 27.7417C168.062 27.7324 167.649 27.612 167.29 27.4011L170.329 22.2275L173.367 17.0539C171.976 16.2364 170.388 15.7797 168.754 15.7445L168.625 21.7431ZM170.329 22.2275L167.242 27.3725C166.916 27.177 166.596 26.8755 166.357 26.4561L171.575 23.4931L176.792 20.5302C175.96 19.065 174.774 17.8977 173.416 17.0825L170.329 22.2275ZM171.575 23.4931L166.357 26.456C166.163 26.1136 166.055 25.7412 166.032 25.3666L172.02 24.9921L178.008 24.6177C177.919 23.1924 177.508 21.7916 176.792 20.5303L171.575 23.4931ZM172.02 24.9921L166.032 25.3776C166.028 25.3043 166.027 25.2491 166.027 25.2168H172.027H178.027C178.027 25.0345 178.022 24.8292 178.008 24.6067L172.02 24.9921ZM172.027 25.2168H166.027V43.5703H172.027H178.027V25.2168H172.027ZM172.027 43.5703L168.301 38.8676C168.23 38.9236 167.985 39.1249 167.685 39.3733L171.511 43.9951L175.337 48.6168C175.497 48.4851 175.619 48.3844 175.7 48.3171C175.741 48.2835 175.772 48.2585 175.791 48.2426C175.801 48.2345 175.807 48.2295 175.81 48.2272C175.812 48.2259 175.811 48.2266 175.808 48.2286C175.807 48.2295 175.804 48.2323 175.799 48.2362C175.797 48.2382 175.792 48.2417 175.787 48.2462C175.783 48.2491 175.77 48.2596 175.753 48.2729L172.027 43.5703ZM171.511 43.9951L169.12 49.498C170.356 50.0352 171.485 50.6016 172.418 51.1745C173.387 51.7696 173.93 52.2415 174.175 52.5203C174.422 52.8007 174.033 52.4932 174.002 51.657C173.965 50.7006 174.43 50.2965 174.183 50.5675L178.618 54.6093L183.052 58.6512C184.82 56.7116 186.106 54.1806 185.993 51.2008C185.884 48.3414 184.521 46.1143 183.189 44.5989C180.676 41.7387 176.821 39.7604 173.902 38.4921L171.511 43.9951ZM178.618 54.6093L174.178 50.5738C173.725 51.0714 173.846 50.7066 174.571 50.6341C175.242 50.5668 175.508 50.8479 175.193 50.6369C174.853 50.4098 174.289 49.9004 173.562 48.9705C172.86 48.0736 172.155 46.9776 171.482 45.7831L166.255 48.7304L161.029 51.6778C162.634 54.5228 165.142 58.3513 168.522 60.6117C170.334 61.8239 172.825 62.8691 175.767 62.5743C178.762 62.2742 181.199 60.6904 183.058 58.6449L178.618 54.6093ZM166.255 48.7304L162.08 44.4216C156.635 49.6982 148.238 58.9179 144.41 69.2673L150.038 71.3486L155.665 73.4299C158.511 65.7341 165.234 58.0745 170.431 53.0393L166.255 48.7304ZM150.038 71.3486L147.899 76.9546L153.924 79.2525L156.062 73.6464L158.2 68.0404L152.176 65.7425L150.038 71.3486ZM156.062 73.6464L154.354 79.3982C153.965 79.2826 153.569 79.0755 153.215 78.7645L157.178 74.2597L161.141 69.755C160.143 68.8762 158.985 68.2556 157.77 67.8947L156.062 73.6464ZM157.178 74.2597L153.214 78.764C153.015 78.5883 152.749 78.2948 152.533 77.8392L157.954 75.2666L163.374 72.6939C162.796 71.4767 161.987 70.4992 161.142 69.7554L157.178 74.2597ZM157.954 75.2666L152.552 77.8776C152.37 77.5019 152.271 77.0928 152.259 76.6857L158.256 76.5058L164.254 76.3259C164.216 75.0541 163.912 73.8056 163.356 72.6555L157.954 75.2666ZM158.256 76.5058L152.259 76.6848C152.249 76.3442 152.304 75.9404 152.473 75.5219L158.038 77.7646L163.603 80.0073C164.094 78.7887 164.29 77.5321 164.254 76.3268L158.256 76.5058ZM158.038 77.7646L152.504 75.4448L149.792 81.9136L155.326 84.2334L160.859 86.5531L163.571 80.0844L158.038 77.7646ZM155.326 84.2334L149.839 81.8049C149.987 81.4711 150.212 81.1417 150.525 80.8542L154.584 85.2734L158.642 89.6926C159.588 88.8241 160.316 87.7832 160.812 86.6618L155.326 84.2334ZM154.584 85.2734L150.526 80.8538C150.843 80.5619 151.187 80.3723 151.508 80.2602L153.486 85.9248L155.464 91.5893C156.598 91.1932 157.691 90.5656 158.641 89.693L154.584 85.2734ZM153.486 85.9248L151.589 80.2326C151.95 80.112 152.318 80.0702 152.674 80.0971L152.221 86.08L151.769 92.063C152.977 92.1543 154.208 92.0085 155.383 91.617L153.486 85.9248ZM152.221 86.08L152.764 80.1047C153.11 80.1361 153.5 80.2382 153.899 80.4584L151 85.7119L148.102 90.9653C149.25 91.5987 150.48 91.9465 151.678 92.0554L152.221 86.08ZM151 85.7119L153.639 80.323L151.111 79.0857L148.473 84.4746L145.835 89.8634L148.362 91.1007L151 85.7119ZM148.473 84.4746L142.481 84.7839C142.984 94.518 144.443 105.041 143.701 115.136C142.97 125.088 140.187 132.262 133.946 136.108L137.094 141.216L140.242 146.324C151.474 139.402 154.846 127.228 155.669 116.014C156.482 104.943 154.894 92.4791 154.465 84.1653L148.473 84.4746ZM137.094 141.216L133.561 146.065C134.426 146.695 135.213 147.427 135.905 148.248L140.492 144.38L145.079 140.512C143.762 138.95 142.266 137.56 140.628 136.366L137.094 141.216ZM140.492 144.38L135.911 148.255C137.105 149.666 137.995 151.322 138.515 153.101L144.274 151.417L150.033 149.733C149.043 146.348 147.352 143.199 145.073 140.505L140.492 144.38ZM144.274 151.417L138.516 153.102L139.013 154.801L144.771 153.115L150.529 151.43L150.032 149.731L144.274 151.417ZM144.771 153.115L147.772 158.311L158.412 152.164L155.411 146.969L152.409 141.773L141.77 147.92L144.771 153.115ZM155.411 146.969L158.27 152.244C157.285 152.777 156.169 152.893 155.145 152.625L156.663 146.82L158.181 141.015C156.317 140.528 154.298 140.747 152.552 141.694L155.411 146.969ZM156.663 146.82L155.144 152.625C154.083 152.347 153.156 151.674 152.563 150.709L157.676 147.569L162.789 144.43C161.745 142.729 160.081 141.513 158.181 141.016L156.663 146.82ZM157.676 147.569L160.36 152.936L160.385 152.923L157.702 147.557L155.018 142.19L154.993 142.203L157.676 147.569ZM157.702 147.557L152.465 150.486C151.931 149.531 151.756 148.352 152.075 147.201L157.857 148.803L163.639 150.404C164.19 148.414 163.898 146.344 162.938 144.628L157.702 147.557ZM157.857 148.803L152.075 147.2C152.361 146.169 153.043 145.223 154.06 144.627L157.095 149.803L160.13 154.978C161.896 153.943 163.121 152.275 163.639 150.405L157.857 148.803ZM157.095 149.803L154.095 144.607L106.724 171.959L109.724 177.155L112.724 182.351L160.095 154.999L157.095 149.803ZM109.724 177.155L106.566 172.054C104.48 173.345 102.093 174.062 99.6441 174.134L99.8208 180.132L99.9975 186.129C104.559 185.995 109.003 184.658 112.882 182.257L109.724 177.155ZM99.8208 180.132L99.6994 174.133C98.6838 174.154 97.6871 173.948 96.7668 173.531L94.2886 178.995L91.8104 184.459C94.363 185.617 97.1364 186.187 99.9422 186.131L99.8208 180.132ZM94.2886 178.995L96.7669 173.531C95.8691 173.124 95.0642 172.51 94.4132 171.728L89.8023 175.567L85.1913 179.407C86.9805 181.555 89.2352 183.291 91.8103 184.459L94.2886 178.995ZM89.8023 175.567L94.6847 172.08C94.9174 172.406 95.1957 172.905 95.356 173.566L89.5249 174.979L83.6938 176.393C83.9574 177.48 84.4289 178.367 84.9199 179.055L89.8023 175.567ZM89.5249 174.979L95.3562 173.567C95.4714 174.042 95.5194 174.609 95.425 175.233L89.4927 174.334L83.5604 173.435C83.4014 174.484 83.4753 175.491 83.6936 176.392L89.5249 174.979ZM89.4927 174.334L95.4248 175.234C95.3329 175.84 95.1281 176.351 94.888 176.761L89.7114 173.727L84.5349 170.694C84.0755 171.478 83.7171 172.402 83.5606 173.434L89.4927 174.334ZM89.7114 173.727L94.8876 176.762C94.5615 177.318 94.1473 177.751 93.7163 178.071L90.1441 173.25L86.5718 168.429C85.7924 169.007 85.0808 169.763 84.5352 170.693L89.7114 173.727ZM90.1441 173.25L93.7154 178.071C93.3402 178.349 92.8124 178.639 92.1388 178.803L90.7251 172.972L89.3114 167.141C88.2117 167.407 87.2965 167.892 86.5727 168.429L90.1441 173.25ZM90.7251 172.972L92.1387 178.803C91.6616 178.918 91.0945 178.966 90.4727 178.872L91.3706 172.939L92.2685 167.007C91.2208 166.848 90.2145 166.922 89.3115 167.141L90.7251 172.972ZM91.3706 172.939L90.4718 178.872C89.8546 178.778 89.3433 178.57 88.9437 178.335L91.978 173.159L95.0124 167.983C94.2384 167.529 93.3127 167.165 92.2694 167.007L91.3706 172.939ZM91.978 173.159L88.9428 178.335C88.3883 178.01 87.9549 177.596 87.6342 177.163L92.4556 173.592L97.2769 170.02C96.6982 169.239 95.942 168.528 95.0133 167.983L91.978 173.159ZM92.4556 173.592L87.904 177.501C89.3994 179.242 91.2573 180.606 93.3202 181.522L95.7544 176.038L98.1886 170.554C97.721 170.346 97.3193 170.046 97.0071 169.682L92.4556 173.592ZM95.7544 176.038L93.3436 181.532C95.414 182.441 97.669 182.887 99.9501 182.824L99.7827 176.826L99.6153 170.828C99.1206 170.842 98.6254 170.746 98.1652 170.544L95.7544 176.038ZM99.7827 176.826L100.007 182.822C103.988 182.673 107.865 181.481 111.245 179.356L108.052 174.276L104.859 169.197C103.268 170.196 101.439 170.76 99.5581 170.83L99.7827 176.826ZM108.052 174.276L111.051 179.473L121.915 173.205L118.917 168.008L115.918 162.811L105.054 169.079L108.052 174.276ZM118.917 168.008L124.802 166.84L124.608 165.866L118.723 167.033L112.838 168.201L113.031 169.175L118.917 168.008ZM118.723 167.033L124.613 165.89C123.969 162.572 122.585 159.457 120.583 156.761L115.766 160.339L110.949 163.916C111.891 165.184 112.535 166.64 112.833 168.177L118.723 167.033ZM115.766 160.339L120.577 156.754C118.803 154.372 116.568 152.361 114.008 150.848L110.955 156.013L107.901 161.177C109.088 161.879 110.129 162.815 110.955 163.924L115.766 160.339ZM110.955 156.013L108.5 150.538C102.429 153.26 95.8328 154.681 89.1372 154.681L89.1372 160.681L89.1372 166.681C97.5316 166.681 105.8 164.899 113.409 161.488L110.955 156.013ZM89.1372 160.681V154.681C84.1956 154.681 79.3075 153.905 74.6433 152.405L72.8062 158.117L70.9691 163.829C76.8127 165.709 82.9401 166.681 89.1372 166.681V160.681ZM72.8062 158.117L72.8143 152.117C72.5848 152.117 72.4462 152.115 72.3353 152.11L72.0747 158.104L71.8141 164.099C72.1932 164.115 72.5448 164.117 72.798 164.117L72.8062 158.117ZM72.0747 158.104L72.216 152.106C71.8271 152.097 71.4629 152.085 71.1211 152.071L70.8726 158.065L70.624 164.06C71.0328 164.077 71.4687 164.092 71.9335 164.103L72.0747 158.104ZM70.8726 158.065L67.872 152.87L62.3153 156.079L65.3159 161.274L68.3165 166.47L73.8732 163.261L70.8726 158.065ZM65.3159 161.274L62.1578 156.173C60.0722 157.464 57.685 158.181 55.2359 158.254L55.4126 164.251L55.5893 170.248C60.151 170.114 64.5947 168.777 68.4741 166.376L65.3159 161.274ZM55.4126 164.251L55.2907 158.252C54.2799 158.273 53.2837 158.067 52.3753 157.652L49.8804 163.108L47.3854 168.565C49.95 169.738 52.7368 170.307 55.5345 170.25L55.4126 164.251ZM49.8804 163.108L52.3663 157.648C51.4625 157.236 50.6599 156.622 50.0291 155.857L45.3999 159.674L40.7707 163.491C42.5672 165.67 44.8381 167.405 47.3945 168.569L49.8804 163.108ZM45.3999 159.674L50.2213 156.102C50.51 156.492 50.794 157.021 50.9535 157.679L45.1226 159.093L39.2916 160.507C39.5545 161.591 40.0316 162.507 40.5786 163.245L45.3999 159.674ZM45.1226 159.093L50.9537 157.679C51.0693 158.156 51.1169 158.723 51.0228 159.345L45.0903 158.447L39.1579 157.549C38.9993 158.597 39.0726 159.603 39.2915 160.506L45.1226 159.093ZM45.0903 158.447L51.0226 159.346C50.9291 159.963 50.7205 160.475 50.4863 160.874L45.3101 157.84L40.1339 154.805C39.6802 155.579 39.3161 156.505 39.158 157.548L45.0903 158.447ZM45.3101 157.84L50.4854 160.876C50.1606 161.429 49.7474 161.863 49.3141 162.184L45.7427 157.362L42.1713 152.541C41.3896 153.12 40.679 153.876 40.1348 154.804L45.3101 157.84ZM45.7427 157.362L49.313 162.184C48.9248 162.472 48.3968 162.756 47.7373 162.916L46.3237 157.085L44.9101 151.254C43.8249 151.517 42.909 151.995 42.1723 152.54L45.7427 157.362ZM46.3237 157.085L47.7361 162.916C47.2613 163.031 46.6942 163.079 46.0704 162.985L46.9692 157.053L47.8681 151.12C46.8185 150.961 45.812 151.035 44.9113 151.254L46.3237 157.085ZM46.9692 157.053L46.069 162.985C45.4476 162.89 44.9362 162.68 44.5414 162.449L47.5757 157.272L50.61 152.096C49.8409 151.645 48.9167 151.28 47.8695 151.121L46.9692 157.053ZM47.5757 157.272L44.5409 162.448C43.9858 162.123 43.5523 161.709 43.2319 161.276L48.0532 157.705L52.8746 154.134C52.296 153.353 51.5399 152.641 50.6105 152.097L47.5757 157.272ZM48.0532 157.705L43.5017 161.614C44.9909 163.348 46.8423 164.719 48.9281 165.64L51.3521 160.151L53.776 154.663C53.3185 154.461 52.9231 154.166 52.6047 153.796L48.0532 157.705ZM51.3521 160.151L48.9515 165.65C51.0231 166.555 53.2745 167 55.5546 166.936L55.3872 160.938L55.2198 154.941C54.724 154.955 54.2246 154.859 53.7526 154.652L51.3521 160.151ZM55.3872 160.938L55.625 166.934C59.5956 166.776 63.4652 165.587 66.8403 163.474L63.6567 158.389L60.4732 153.303C58.8776 154.302 57.0403 154.868 55.1494 154.943L55.3872 160.938ZM63.6567 158.389L66.6597 163.583L68.8287 162.329L65.8257 157.135L62.8227 151.94L60.6538 153.194L63.6567 158.389ZM65.8257 157.135L68.9897 152.037C69.0991 152.105 69.2117 152.185 69.3233 152.277C69.4348 152.369 69.5335 152.463 69.6188 152.555C69.7889 152.738 69.8756 152.878 69.8869 152.896C69.892 152.904 69.8827 152.89 69.8563 152.84C69.8295 152.79 69.7931 152.718 69.7409 152.612C69.6875 152.503 69.6302 152.384 69.5545 152.226C69.4826 152.076 69.396 151.895 69.3024 151.704L63.9116 154.338L58.5208 156.972C58.7683 157.478 59.8858 160.51 62.6617 162.233L65.8257 157.135ZM63.9116 154.338L66.7497 149.052C66.0283 148.664 65.3167 148.258 64.6159 147.834L61.5073 152.966L58.3988 158.098C59.2793 158.631 60.1714 159.14 61.0735 159.624L63.9116 154.338ZM61.5073 152.966L64.5086 147.77C59.3954 144.817 56.4903 141.936 54.774 139.393C53.0776 136.879 52.3293 134.381 51.9916 131.829L46.0435 132.616L40.0953 133.403C40.6192 137.361 41.8722 141.727 44.8272 146.106C47.7622 150.455 52.1582 154.494 58.5061 158.161L61.5073 152.966ZM46.0435 132.616L51.0088 129.248C49.3891 126.86 48.2246 124.168 47.6599 121.105L41.7593 122.192L35.8587 123.28C36.7407 128.064 38.5774 132.298 41.0781 135.984L46.0435 132.616ZM41.7593 122.192L47.6598 121.104C46.1809 113.083 46.1875 106.743 46.9539 101.77L41.0239 100.856L35.094 99.9423C34.0929 106.437 34.1744 114.145 35.8587 123.28L41.7593 122.192ZM41.0239 100.856L46.975 100.092C46.9731 100.077 46.9714 100.064 46.9702 100.055C46.969 100.046 46.9679 100.038 46.9674 100.034C46.9668 100.029 46.9668 100.029 46.9668 100.03C46.967 100.031 46.9675 100.035 46.9684 100.042L41.0171 100.805L35.0658 101.568C35.0678 101.583 35.0695 101.596 35.0707 101.605C35.072 101.615 35.0731 101.623 35.0736 101.627C35.0743 101.632 35.0743 101.632 35.0743 101.632C35.0742 101.632 35.0737 101.627 35.0729 101.621L41.0239 100.856ZM41.0171 100.805L46.9467 101.721C49.4454 85.5534 60.4337 82.1794 59.4548 82.5159L57.5044 76.8418L55.554 71.1676C54.4712 71.5398 38.5554 77.4494 35.0875 99.8882L41.0171 100.805ZM57.5044 76.8418C51.5267 77.3586 51.5267 77.3588 51.5267 77.3591C51.5268 77.3592 51.5268 77.3594 51.5268 77.3596C51.5268 77.3599 51.5269 77.3603 51.5269 77.3606C51.5269 77.3613 51.527 77.362 51.5271 77.3627C51.5272 77.3641 51.5273 77.3655 51.5274 77.3669C51.5277 77.3697 51.5279 77.3725 51.5282 77.3754C51.5287 77.381 51.5292 77.3867 51.5297 77.3924C51.5308 77.4039 51.5319 77.4155 51.533 77.4272C51.5353 77.4508 51.5378 77.475 51.5406 77.4998C51.546 77.5494 51.5523 77.6017 51.5597 77.6564L57.5064 76.8584L63.453 76.0603C63.4589 76.1042 63.4643 76.1482 63.4691 76.1922C63.4715 76.2142 63.4738 76.2363 63.476 76.2584C63.4771 76.2695 63.4781 76.2806 63.4791 76.2916C63.4796 76.2972 63.4801 76.3027 63.4806 76.3083C63.4809 76.3111 63.4811 76.3138 63.4814 76.3166C63.4815 76.318 63.4816 76.3194 63.4817 76.3208C63.4818 76.3215 63.4819 76.3222 63.4819 76.3229C63.482 76.3232 63.482 76.3236 63.482 76.3239C63.482 76.3241 63.4821 76.3243 63.4821 76.3244C63.4821 76.3247 63.4821 76.325 57.5044 76.8418ZM57.5064 76.8584L59.5661 82.4937C59.5181 82.5113 59.4752 82.5262 59.4388 82.5385C59.4028 82.5506 59.3739 82.5599 59.3578 82.5651C59.3539 82.5664 59.3506 82.5674 59.3485 82.5681C59.3474 82.5684 59.3465 82.5687 59.346 82.5689C59.3454 82.5691 59.345 82.5692 59.345 82.5692C59.344 82.5695 59.3471 82.5685 59.3486 82.5681C59.3508 82.5673 59.3551 82.566 59.3604 82.5643C59.3657 82.5626 59.3733 82.5602 59.3823 82.5573C59.3913 82.5544 59.4029 82.5506 59.4165 82.5462C59.43 82.5417 59.4467 82.5362 59.4658 82.5297C59.4849 82.5233 59.5079 82.5154 59.5341 82.5062L57.5474 76.8447L55.5606 71.1832C55.6094 71.1661 55.6487 71.153 55.6717 71.1454C55.6952 71.1377 55.7133 71.1319 55.7201 71.1298C55.7258 71.128 55.7324 71.1259 55.7267 71.1277C55.7239 71.1286 55.715 71.1314 55.7041 71.1349C55.6554 71.1504 55.5622 71.1807 55.4467 71.223L57.5064 76.8584ZM57.5474 76.8447L62.3271 80.4716C64.9365 77.0329 68.1881 74.0102 72.2768 71.627L69.2554 66.4433L66.234 61.2596C60.675 64.4997 56.2569 68.6196 52.7677 73.2178L57.5474 76.8447ZM69.2554 66.4433L72.4217 71.5398C72.4677 71.5112 72.513 71.4826 72.5294 71.4723C72.5535 71.457 72.554 71.4568 72.5487 71.4601L69.4019 66.3515L66.2551 61.2429C66.2007 61.2764 66.1524 61.3069 66.1278 61.3224C66.1123 61.3322 66.1055 61.3365 66.0974 61.3416C66.0906 61.3459 66.0885 61.3471 66.0891 61.3468L69.2554 66.4433ZM69.4019 66.3515L72.4017 71.5478C75.5427 69.7345 80.0068 67.6723 85.4801 65.4436L83.2173 59.8867L80.9545 54.3297C75.3029 56.631 70.2487 58.9346 66.4021 61.1552L69.4019 66.3515ZM83.2173 59.8867H89.2173V56.3037H83.2173H77.2173V59.8867H83.2173ZM83.2173 56.3037L86.2314 51.1157C86.0844 51.0303 86.0529 50.9885 86.0921 51.028C86.1318 51.0679 86.2752 51.2237 86.4112 51.5219L80.9526 54.0127L75.4941 56.5034C76.5609 58.8413 78.4163 60.4535 80.2032 61.4917L83.2173 56.3037ZM80.9526 54.0127L83.0825 48.4034L24.3286 26.0948L22.1987 31.7041L20.0689 37.3133L78.8228 59.6219L80.9526 54.0127ZM22.1987 31.7041L23.9316 25.9597C24.3607 26.0892 24.7156 26.2965 25.0006 26.5417L21.0884 31.0908L17.1762 35.6399C18.1066 36.4401 19.2236 37.0736 20.4659 37.4484L22.1987 31.7041ZM21.0884 31.0908L25.0011 26.5421C25.2962 26.7959 25.5414 27.1114 25.7161 27.4729L20.314 30.0839L14.9119 32.695C15.4609 33.8309 16.2352 34.8305 17.1757 35.6395L21.0884 31.0908ZM20.314 30.0839L25.7161 27.4731C25.8894 27.8315 25.9804 28.2092 25.9972 28.5784L20.0034 28.8515L14.0097 29.1247C14.0653 30.3457 14.3643 31.562 14.9118 32.6948L20.314 30.0839ZM20.0034 28.8515L26.0007 28.6698C26.0118 29.0369 25.9503 29.4092 25.8127 29.7646L20.2173 27.5986L14.6219 25.4326C14.1745 26.5885 13.9692 27.814 14.0062 29.0333L20.0034 28.8515ZM20.2173 27.5986L25.7501 29.9198L28.4611 23.4578L22.9282 21.1367L17.3954 18.8155L14.6845 25.2774L20.2173 27.5986ZM22.9282 21.1367L28.4148 23.5652C28.2646 23.9046 28.0379 24.2329 27.7294 24.5163L23.6704 20.0976L19.6114 15.6789C18.6706 16.5432 17.9404 17.5814 17.4417 18.7082L22.9282 21.1367ZM23.6704 20.0976L27.7289 24.5168C27.4575 24.766 27.1046 24.991 26.6655 25.1373L24.7681 19.4453L22.8706 13.7532C21.6182 14.1707 20.516 14.8482 19.612 15.6784L23.6704 20.0976ZM116.767 152.966L113.659 147.834C112.975 148.248 112.281 148.644 111.576 149.024L114.42 154.307L117.265 159.589C118.144 159.116 119.015 158.619 119.876 158.098L116.767 152.966ZM114.42 154.307L110.889 159.157C111.748 159.783 112.531 160.511 113.219 161.327L117.806 157.459L122.393 153.591C121.08 152.034 119.588 150.647 117.952 149.456L114.42 154.307ZM117.806 157.459L113.232 161.342C114.422 162.743 115.304 164.388 115.819 166.169L121.583 164.502L127.346 162.834C126.364 159.438 124.676 156.28 122.38 153.576L117.806 157.459ZM121.583 164.502L115.826 166.194L116.323 167.885L122.08 166.193L127.836 164.502L127.339 162.81L121.583 164.502ZM122.08 166.193L125.079 171.39L144.615 160.112L141.615 154.916L138.615 149.72L119.08 160.997L122.08 166.193ZM141.615 154.916L147.499 153.742L147.305 152.773L141.421 153.947L135.537 155.122L135.731 156.09L141.615 154.916ZM141.421 153.947L147.318 152.837C146.692 149.513 145.322 146.373 143.293 143.653L138.484 147.24L133.674 150.828C134.602 152.071 135.234 153.514 135.525 155.058L141.421 153.947ZM138.484 147.24L143.293 143.653C141.583 141.36 139.45 139.425 137.02 137.946L133.902 143.072L130.784 148.198C131.905 148.88 132.888 149.773 133.675 150.828L138.484 147.24ZM133.902 143.072L130.902 137.876L113.767 147.77L116.767 152.966L119.767 158.162L136.902 148.268L133.902 143.072Z" fill="white" mask="url(#path-1-outside-1_922_10203)"/>
<path d="M157.676 147.569C157.45 147.201 157.082 146.93 156.663 146.82C156.243 146.711 155.791 146.762 155.41 146.969L144.771 153.115L144.274 151.417C143.519 148.835 142.228 146.433 140.491 144.38C138.755 142.321 136.612 140.649 134.191 139.467C133.784 139.306 133.332 139.306 132.932 139.467C132.525 139.629 132.202 139.945 132.022 140.339C131.854 140.746 131.847 141.198 132.015 141.604C132.183 142.011 132.499 142.334 132.9 142.508C135.094 143.638 137.005 145.258 138.484 147.24C139.962 149.222 140.963 151.514 141.421 153.947L141.615 154.916L122.08 166.194L121.583 164.502C120.834 161.914 119.549 159.512 117.806 157.459C116.07 155.4 113.92 153.728 111.499 152.553C111.093 152.385 110.641 152.385 110.24 152.553C109.834 152.714 109.511 153.031 109.33 153.424C109.156 153.831 109.156 154.283 109.317 154.69C109.479 155.096 109.801 155.426 110.202 155.594C112.39 156.736 114.295 158.363 115.766 160.338C117.238 162.32 118.252 164.606 118.723 167.033L118.917 168.008L108.052 174.276C105.567 175.838 102.713 176.716 99.7824 176.826C98.3945 176.865 97.0194 176.594 95.7541 176.038C94.4888 175.477 93.3591 174.644 92.4553 173.592C92.3262 173.417 92.1648 173.269 91.9776 173.159C91.7904 173.049 91.5838 172.972 91.3708 172.94C91.1578 172.907 90.9383 172.92 90.7252 172.972C90.5122 173.024 90.3185 173.12 90.1442 173.25C89.9699 173.379 89.8214 173.54 89.7117 173.727C89.602 173.914 89.5245 174.121 89.4922 174.334C89.4599 174.547 89.4728 174.767 89.5245 174.98C89.5761 175.193 89.673 175.386 89.8021 175.567C91.0222 177.033 92.5522 178.207 94.2887 178.995C96.0253 179.783 97.9103 180.17 99.8211 180.131C103.327 180.028 106.742 179.002 109.724 177.155L157.095 149.803C157.47 149.583 157.741 149.222 157.857 148.802C157.973 148.383 157.915 147.937 157.702 147.556L157.676 147.569Z" fill="#B6CDE7"/>
<path d="M113.268 131.656C113.042 131.282 112.68 131.017 112.254 130.901C111.835 130.791 111.383 130.843 111.002 131.056L100.363 137.202L99.866 135.51C99.1107 132.928 97.8196 130.527 96.083 128.474C94.3465 126.414 92.1968 124.742 89.7824 123.561C89.3757 123.4 88.9238 123.4 88.5235 123.561C88.1168 123.722 87.7941 124.039 87.6198 124.432C87.4455 124.839 87.4455 125.291 87.6068 125.698C87.7747 126.104 88.091 126.427 88.4913 126.602C90.6862 127.731 92.597 129.352 94.0753 131.334C95.5537 133.315 96.5543 135.607 97.0126 138.041L97.2063 139.016L77.6717 150.294L77.1746 148.596C76.4258 146.007 75.1411 143.612 73.4046 141.553C71.668 139.493 69.5183 137.828 67.0974 136.653C66.6907 136.485 66.2389 136.485 65.8386 136.653C65.4319 136.814 65.1091 137.131 64.9284 137.531C64.8444 137.731 64.7993 137.944 64.7928 138.164C64.7928 138.383 64.8315 138.596 64.9155 138.796C64.9994 138.996 65.1156 139.184 65.2705 139.338C65.4255 139.493 65.6062 139.616 65.8063 139.7C67.9948 140.843 69.8927 142.469 71.371 144.451C72.8429 146.433 73.8564 148.718 74.3277 151.139L74.5214 152.114L63.6566 158.389C61.1712 159.945 58.3179 160.823 55.387 160.939C53.9991 160.978 52.624 160.706 51.3523 160.151C50.0805 159.59 48.9572 158.757 48.0535 157.705C47.9244 157.53 47.763 157.382 47.5758 157.272C47.3885 157.162 47.182 157.085 46.9689 157.053C46.7559 157.02 46.5364 157.033 46.3234 157.085C46.1103 157.137 45.9167 157.233 45.7424 157.362C45.5681 157.492 45.4196 157.653 45.3098 157.84C45.2001 158.027 45.1226 158.234 45.0904 158.447C45.0581 158.66 45.071 158.88 45.1226 159.093C45.1743 159.306 45.2711 159.499 45.4002 159.674C46.6139 161.145 48.1503 162.32 49.8804 163.108C51.6169 163.902 53.5084 164.289 55.4128 164.251C58.9182 164.147 62.3332 163.121 65.3157 161.275L112.687 133.922C113.068 133.703 113.339 133.341 113.455 132.915C113.571 132.489 113.513 132.044 113.294 131.663L113.268 131.656Z" fill="#B6CDE7"/>
<path d="M163.731 24.8872L160.807 33.6991C138.477 41.2909 87.3166 56.0161 69.4023 66.3579C45.7168 80.0308 45.7168 111.934 45.7168 125.614C45.7168 133.586 45.7168 143.844 61.5072 152.966C69.8413 158.014 79.3956 160.68 89.1371 160.68C98.8786 160.68 108.433 158.014 116.767 152.966L136.502 141.572C156.236 130.178 148.341 97.7514 148.341 80.0373C148.341 62.3232 172.027 43.5697 172.027 43.5697V25.2165C172.027 24.6161 171.872 24.0222 171.575 23.4993C171.278 22.9764 170.845 22.5374 170.329 22.234C169.813 21.9241 169.219 21.7627 168.618 21.7498C168.018 21.7369 167.424 21.8854 166.895 22.1759L165.223 23.0926C164.513 23.4799 163.977 24.1255 163.725 24.8872H163.731Z" fill="#FAB80C"/>
<path d="M160.807 33.6927C138.477 41.2845 87.3166 56.0097 69.4024 66.3516C64.3089 69.489 59.8868 73.6076 56.4008 78.4687C52.9084 83.3298 50.4165 88.8299 49.0737 94.6593C69.9059 117.938 131.318 79.0174 146.379 64.0727C160.362 50.2061 170.381 37.1465 172.027 25.8234V25.2101C172.027 24.6097 171.872 24.0158 171.575 23.4929C171.278 22.97 170.845 22.5375 170.329 22.2276C169.813 21.9242 169.225 21.7564 168.625 21.7435C168.024 21.7305 167.43 21.879 166.901 22.1695L165.158 23.1249C164.493 23.4865 163.996 24.0868 163.757 24.8034L160.807 33.6927Z" fill="#FFD054"/>
<path d="M84.3403 55.306L87.1356 48.6309L27.2536 19.6583C26.8791 19.4517 26.4595 19.329 26.0334 19.2903C25.6074 19.2515 25.1749 19.3032 24.7682 19.4452C24.3615 19.5808 23.987 19.8067 23.6707 20.0972C23.3544 20.3877 23.1026 20.7428 22.9283 21.1366L20.217 27.5986C20.062 27.9989 19.991 28.4249 20.0039 28.851C20.0233 29.2771 20.1266 29.6967 20.3138 30.084C20.501 30.4714 20.7657 30.8135 21.0885 31.0911C21.4112 31.3687 21.7921 31.5817 22.1988 31.7044L84.3403 55.2995V55.306ZM93.3588 57.4751L96.154 50.8L156.062 73.6463C156.475 73.769 156.856 73.9756 157.179 74.2596C157.501 74.5436 157.773 74.8858 157.953 75.2667C158.141 75.654 158.244 76.0736 158.257 76.5062C158.27 76.9387 158.199 77.3647 158.037 77.765L155.326 84.2335C155.152 84.6273 154.9 84.9823 154.584 85.2728C154.267 85.5633 153.893 85.7828 153.486 85.9248C153.079 86.0604 152.647 86.1121 152.221 86.0798C151.795 86.0411 151.375 85.9184 151.001 85.7118L93.3459 57.488L93.3588 57.4751Z" fill="#B6CDE7"/>
<path d="M83.2173 52.6851V68.6304C83.2173 70.5218 85.8705 72.0518 89.1371 72.0518C92.4036 72.0518 95.0568 70.5218 95.0568 68.6304V52.6851H83.2173Z" fill="#91B5DD"/>
<path d="M89.1369 57.7398C93.8237 57.7398 97.6196 55.4739 97.6196 52.6851C97.6196 49.8963 93.8237 47.6304 89.1369 47.6304C84.4502 47.6304 80.6543 49.8963 80.6543 52.6851C80.6543 55.4739 84.4502 57.7398 89.1369 57.7398Z" fill="#D7E8FC"/>
<path d="M57.5562 76.8418C57.5562 76.8418 60.0351 97.4158 93.0813 91.425C103.313 115.143 103.83 142.192 97.0257 148.402C90.2279 154.612 46.8399 149.751 41.7594 122.192C34.8261 84.5885 57.5562 76.8418 57.5562 76.8418Z" fill="#C0DBFB"/>
<path d="M57.5047 76.8418C57.5047 76.8418 44.006 81.464 41.0171 100.805C41.2108 102.316 41.4302 103.865 41.7337 105.479C46.8142 133.038 90.1958 137.892 96.9935 131.688C99.3756 128.822 100.77 125.272 100.983 121.56C99.821 111.179 97.142 101.031 93.0362 91.425C59.9836 97.4158 57.5047 76.8418 57.5047 76.8418Z" fill="#E9F3FF"/>
<mask id="mask0_922_10203" style="mask-type:luminance" maskUnits="userSpaceOnUse" x="41" y="76" width="60" height="59">
<path d="M57.5047 76.8418C57.5047 76.8418 44.006 81.464 41.0171 100.805C41.2108 102.316 41.4302 103.865 41.7337 105.479C46.8142 133.038 90.1958 137.892 96.9935 131.688C99.3756 128.822 100.77 125.272 100.983 121.56C99.821 111.179 97.142 101.031 93.0362 91.425C59.9836 97.4158 57.5047 76.8418 57.5047 76.8418Z" fill="white"/>
</mask>
<g mask="url(#mask0_922_10203)">
<path d="M100.266 136.072C100.266 140.726 98.704 144.871 96.0055 148.279C91.3059 154.212 83.1589 157.885 73.8371 158.105C73.5466 158.111 73.2496 158.118 72.9591 158.118C72.6686 158.118 72.3716 158.118 72.0747 158.105C62.7528 157.885 54.6059 154.212 49.9062 148.286C47.2078 144.884 45.6455 140.739 45.6455 136.078C45.6455 128.771 49.493 122.237 55.5355 117.912C55.5355 117.912 55.5484 114.988 55.5484 113.794C55.5484 102.813 63.3467 94.627 72.9591 94.627C82.5715 94.627 90.3698 102.813 90.3698 113.794C90.3698 114.988 90.0212 117.389 89.8469 117.544C90.2149 117.77 90.3827 117.912 90.3827 117.912C96.4252 122.237 100.273 128.771 100.273 136.078L100.266 136.072Z" fill="#4B9AE8"/>
<path d="M67.1427 112.36C69.2605 112.36 70.9773 110.644 70.9773 108.526C70.9773 106.408 69.2605 104.691 67.1427 104.691C65.0249 104.691 63.3081 106.408 63.3081 108.526C63.3081 110.644 65.0249 112.36 67.1427 112.36Z" fill="white"/>
<path d="M57.1364 114.704C55.006 114.923 51.4942 113.187 51.307 111.373C51.1198 109.559 54.1991 107.138 56.3294 106.918C58.4598 106.699 60.3061 107.706 60.5901 110.417C60.8742 113.129 59.2667 114.491 57.1364 114.71V114.704Z" fill="#EAC00F"/>
<path opacity="0.5" d="M77.3033 95.2014C77.3033 95.2014 82.287 101.179 83.6298 104.698C85.2372 108.9 85.2695 112.883 84.9597 114.723C84.2625 118.919 82.4226 121.811 82.4226 121.811H88.465C88.465 121.811 90.3694 117.906 90.3565 113.794C90.3436 109.927 89.3946 105.382 86.2314 101.244C84.9726 99.5977 81.9514 96.3892 77.2969 95.2014H77.3033Z" fill="#2A5D82"/>
<path opacity="0.5" d="M86.1353 127.583C86.1353 127.583 91.0802 135.465 86.7873 143.812C83.8306 149.57 79.5312 152.759 70.9775 157.937C94.1144 159.409 99.8276 142.766 100.267 137.718C100.409 136.078 86.1353 127.576 86.1353 127.576V127.583Z" fill="#2A5D82"/>
<path d="M93.1328 118.726L109.136 127.557C113.042 129.713 114.146 134.297 111.305 136.614C106.87 140.229 99.8337 143.709 91.8094 139.28C85.102 135.581 82.8684 129.21 82.3197 123.677C81.8097 118.487 87.7682 115.763 93.1328 118.726Z" fill="#276286"/>
<path opacity="0.5" d="M59.5121 107.874C59.5121 107.874 59.3119 108.958 59.0085 110.153C58.6793 111.444 57.7303 112.315 56.8265 112.599C55.6516 112.967 54.8511 113.284 53.0371 113.529C54.509 114.433 56.0519 114.801 57.1364 114.704C59.4346 114.497 60.3771 113.103 60.5643 111.766C60.9323 109.139 59.5121 107.874 59.5121 107.874Z" fill="#987D26"/>
<path opacity="0.5" d="M82.4228 121.812C81.8741 124.258 83.2168 128.919 84.069 130.746C86.1606 135.226 89.511 138.796 94.0429 140.32C98.6392 141.869 103.249 141.243 106.496 139.687C109.698 138.151 111.299 136.608 111.299 136.608C111.299 136.608 104.604 138.299 100.26 137.718C95.915 137.137 90.7376 134.787 87.7293 131.075C84.721 127.357 83.8301 124.813 82.4228 121.812Z" fill="#14465D"/>
<path d="M67.1425 110.566C68.2691 110.566 69.1825 109.652 69.1825 108.526C69.1825 107.399 68.2691 106.486 67.1425 106.486C66.0159 106.486 65.1025 107.399 65.1025 108.526C65.1025 109.652 66.0159 110.566 67.1425 110.566Z" fill="#040000"/>
</g>
<path d="M162.673 40.839C162.673 40.839 154.642 18.4962 146.727 27.2112C139.549 35.1064 162.673 40.839 162.673 40.839ZM162.673 40.981C162.673 40.981 170.703 63.3173 178.618 54.6088C185.796 46.7329 162.673 40.981 162.673 40.981Z" fill="#B6CDE7"/>
<path d="M167.489 43.6279C169.342 40.413 168.69 36.5655 166.03 35.029C163.37 33.4926 159.71 34.8547 157.857 38.0696C156.004 41.2845 156.656 45.132 159.316 46.6685C161.976 48.2049 165.636 46.8428 167.489 43.6279Z" fill="#D7E8FC"/>
</svg>
