<svg width="200" height="200" viewBox="0 0 200 200" fill="none" xmlns="http://www.w3.org/2000/svg">
<mask id="path-1-outside-1_1062_23287" maskUnits="userSpaceOnUse" x="6" y="40" width="189" height="120" fill="black">
<rect fill="white" x="6" y="40" width="189" height="120"/>
<path d="M127.59 56.584H134.895C136.658 56.5843 138.128 58.0546 138.128 60.1123C138.128 62.1701 136.658 63.9335 134.895 63.6396H129.19L131.657 74.5186H137.539L150.747 117.442H185.164V120.97H183.404V128.026H185.462C187.226 128.026 188.401 129.496 188.401 131.554C188.401 133.612 186.932 135.082 185.462 135.082H184.761L178.109 152.722H162.217C162.42 152.822 162.622 152.921 162.823 153.016H140.479C140.307 152.917 140.133 152.82 139.959 152.722H86.9688C72.8505 152.722 59.9493 145.343 49.4111 136.258H49.0459C44.0479 131.848 39.6373 127.438 36.1094 123.028H36.3418C28.2207 113.54 23.0256 104.99 21.9219 103.12L12 88.6309H41.8643C41.0621 86.8731 40.6221 84.9314 40.6221 82.8467C40.6221 77.6227 43.3733 72.9535 47.6924 69.8613C47.6924 69.8582 47.6959 68.8737 47.6992 67.9805C46.9211 67.8479 46.0267 67.4218 45.3477 66.874C45.342 66.8697 45.3357 66.8657 45.3301 66.8613L45.332 66.8604C44.7099 66.3541 44.2718 65.7497 44.2783 65.1846C44.2935 63.8817 46.6792 62.4116 48.208 62.4297C48.2554 62.4302 48.3028 62.4334 48.3496 62.4355C50.0069 56.9391 54.6646 53.2121 60.1494 53.2119C67.0222 53.2119 72.5966 59.0635 72.5967 66.916C72.5967 67.7708 72.3468 69.4859 72.2246 69.5977C72.4806 69.7556 72.603 69.8548 72.6074 69.8584C72.7286 69.9451 72.8481 70.0339 72.9668 70.123L83.3271 72.0986C86.5341 72.7092 88.0165 75.4706 86.502 77.6094C85.1025 79.588 82.739 81.6712 79.6768 82.8311C79.6768 82.8362 79.6777 82.8416 79.6777 82.8467L79.6719 82.8438C79.6719 84.9295 79.2325 86.8724 78.4297 88.6309H80.4395L88.4414 74.5186H111.959L114.426 63.6396H108.729C106.965 63.6396 105.494 62.17 105.494 60.1123C105.494 58.0544 106.965 56.584 108.729 56.584H116.026L118.427 46H125.189L127.59 56.584ZM157.238 128.026H166.94V120.97H157.238V128.026ZM170.174 128.026H180.17V120.97H170.174V128.026ZM153.853 127.535C153.903 127.567 153.954 127.598 154.004 127.63V120.97H151.832L153.853 127.535ZM29.5293 102.742H37.8721V95.9805H24.9365L29.5293 102.742ZM44.3398 102.742H50.2676L47.0576 101.676C46.2357 101.403 45.7866 100.507 46.0596 99.6855C46.1961 99.2748 46.4884 98.9592 46.8506 98.7754C47.2118 98.5943 47.6381 98.5522 48.0488 98.6885L50.583 100.155L51.5918 97.1162C50.709 96.7877 49.8635 96.4083 49.0615 95.9805H44.3398V102.742ZM52.4844 102.226C52.4157 102.432 52.2938 102.608 52.1396 102.742H55.8057V98.2393C55.1708 98.1314 54.5481 97.9988 53.9385 97.8447L52.4844 102.226ZM62.2744 102.742H62.2998C62.2915 102.731 62.2824 102.72 62.2744 102.708V102.742ZM71.2295 95.9805C70.4875 96.3763 69.7089 96.732 68.8975 97.043V102.209C68.8975 102.4 68.8503 102.581 68.7686 102.742H72.4375L76.2725 95.9805H71.2295ZM66.4414 97.8223C65.1109 98.1641 63.7163 98.3977 62.2744 98.5137V100.939C62.3303 100.858 62.394 100.781 62.4639 100.71C62.7497 100.424 63.1414 100.249 63.5742 100.249L66.4414 100.844V97.8223Z"/>
</mask>
<path d="M127.59 56.584H134.895C136.658 56.5843 138.128 58.0546 138.128 60.1123C138.128 62.1701 136.658 63.9335 134.895 63.6396H129.19L131.657 74.5186H137.539L150.747 117.442H185.164V120.97H183.404V128.026H185.462C187.226 128.026 188.401 129.496 188.401 131.554C188.401 133.612 186.932 135.082 185.462 135.082H184.761L178.109 152.722H162.217C162.42 152.822 162.622 152.921 162.823 153.016H140.479C140.307 152.917 140.133 152.82 139.959 152.722H86.9688C72.8505 152.722 59.9493 145.343 49.4111 136.258H49.0459C44.0479 131.848 39.6373 127.438 36.1094 123.028H36.3418C28.2207 113.54 23.0256 104.99 21.9219 103.12L12 88.6309H41.8643C41.0621 86.8731 40.6221 84.9314 40.6221 82.8467C40.6221 77.6227 43.3733 72.9535 47.6924 69.8613C47.6924 69.8582 47.6959 68.8737 47.6992 67.9805C46.9211 67.8479 46.0267 67.4218 45.3477 66.874C45.342 66.8697 45.3357 66.8657 45.3301 66.8613L45.332 66.8604C44.7099 66.3541 44.2718 65.7497 44.2783 65.1846C44.2935 63.8817 46.6792 62.4116 48.208 62.4297C48.2554 62.4302 48.3028 62.4334 48.3496 62.4355C50.0069 56.9391 54.6646 53.2121 60.1494 53.2119C67.0222 53.2119 72.5966 59.0635 72.5967 66.916C72.5967 67.7708 72.3468 69.4859 72.2246 69.5977C72.4806 69.7556 72.603 69.8548 72.6074 69.8584C72.7286 69.9451 72.8481 70.0339 72.9668 70.123L83.3271 72.0986C86.5341 72.7092 88.0165 75.4706 86.502 77.6094C85.1025 79.588 82.739 81.6712 79.6768 82.8311C79.6768 82.8362 79.6777 82.8416 79.6777 82.8467L79.6719 82.8438C79.6719 84.9295 79.2325 86.8724 78.4297 88.6309H80.4395L88.4414 74.5186H111.959L114.426 63.6396H108.729C106.965 63.6396 105.494 62.17 105.494 60.1123C105.494 58.0544 106.965 56.584 108.729 56.584H116.026L118.427 46H125.189L127.59 56.584ZM157.238 128.026H166.94V120.97H157.238V128.026ZM170.174 128.026H180.17V120.97H170.174V128.026ZM153.853 127.535C153.903 127.567 153.954 127.598 154.004 127.63V120.97H151.832L153.853 127.535ZM29.5293 102.742H37.8721V95.9805H24.9365L29.5293 102.742ZM44.3398 102.742H50.2676L47.0576 101.676C46.2357 101.403 45.7866 100.507 46.0596 99.6855C46.1961 99.2748 46.4884 98.9592 46.8506 98.7754C47.2118 98.5943 47.6381 98.5522 48.0488 98.6885L50.583 100.155L51.5918 97.1162C50.709 96.7877 49.8635 96.4083 49.0615 95.9805H44.3398V102.742ZM52.4844 102.226C52.4157 102.432 52.2938 102.608 52.1396 102.742H55.8057V98.2393C55.1708 98.1314 54.5481 97.9988 53.9385 97.8447L52.4844 102.226ZM62.2744 102.742H62.2998C62.2915 102.731 62.2824 102.72 62.2744 102.708V102.742ZM71.2295 95.9805C70.4875 96.3763 69.7089 96.732 68.8975 97.043V102.209C68.8975 102.4 68.8503 102.581 68.7686 102.742H72.4375L76.2725 95.9805H71.2295ZM66.4414 97.8223C65.1109 98.1641 63.7163 98.3977 62.2744 98.5137V100.939C62.3303 100.858 62.394 100.781 62.4639 100.71C62.7497 100.424 63.1414 100.249 63.5742 100.249L66.4414 100.844V97.8223Z" fill="#DAE3EA"/>
<path d="M127.59 56.584L121.738 57.9111C122.358 60.6441 124.787 62.584 127.59 62.584V56.584ZM134.895 56.584L134.895 50.584H134.895V56.584ZM138.128 60.1123L144.128 60.1129V60.1123H138.128ZM134.895 63.6396L135.88 57.7212C135.555 57.6669 135.225 57.6396 134.895 57.6396V63.6396ZM129.19 63.6396V57.6396C127.366 57.6396 125.641 58.4698 124.502 59.8954C123.364 61.321 122.936 63.1872 123.339 64.9665L129.19 63.6396ZM131.657 74.5186L125.806 75.8454C126.426 78.5785 128.855 80.5186 131.657 80.5186V74.5186ZM137.539 74.5186L143.274 72.754C142.499 70.2364 140.173 68.5186 137.539 68.5186V74.5186ZM150.747 117.442L145.012 119.207C145.787 121.724 148.113 123.442 150.747 123.442V117.442ZM185.164 117.442H191.164C191.164 114.129 188.478 111.442 185.164 111.442V117.442ZM185.164 120.97V126.97C188.478 126.97 191.164 124.283 191.164 120.97H185.164ZM183.404 120.97V114.97C180.091 114.97 177.404 117.656 177.404 120.97H183.404ZM183.404 128.026H177.404C177.404 131.34 180.091 134.026 183.404 134.026V128.026ZM185.462 128.026L185.462 122.026H185.462V128.026ZM188.401 131.554L194.401 131.554L194.401 131.554L188.401 131.554ZM185.462 135.082L185.462 141.082L185.462 141.082L185.462 135.082ZM184.761 135.082V129.082C182.264 129.082 180.028 130.629 179.147 132.965L184.761 135.082ZM178.109 152.722V158.722C180.606 158.722 182.842 157.175 183.724 154.839L178.109 152.722ZM162.217 152.722V146.722C159.428 146.722 157.006 148.644 156.373 151.36C155.74 154.076 157.062 156.87 159.564 158.103L162.217 152.722ZM162.823 153.016V159.016C165.632 159.016 168.064 157.068 168.678 154.327C169.292 151.587 167.923 148.787 165.383 147.589L162.823 153.016ZM140.479 153.016L137.503 158.225C138.409 158.743 139.435 159.016 140.479 159.016V153.016ZM139.959 152.722L142.915 147.501C142.014 146.99 140.995 146.722 139.959 146.722V152.722ZM86.9688 152.722L86.9687 158.722H86.9688V152.722ZM49.4111 136.258L53.3289 131.713C52.2397 130.774 50.8493 130.258 49.4111 130.258V136.258ZM49.0459 136.258L45.0762 140.757C46.1724 141.724 47.584 142.258 49.0459 142.258V136.258ZM36.1094 123.028V117.028C33.8029 117.028 31.7007 118.35 30.7015 120.429C29.7024 122.508 29.9834 124.975 31.4242 126.777L36.1094 123.028ZM36.3418 123.028V129.028C38.6842 129.028 40.8124 127.665 41.792 125.537C42.7715 123.41 42.4233 120.907 40.9002 119.127L36.3418 123.028ZM21.9219 103.12L27.0886 100.07C27.0204 99.9542 26.9483 99.8409 26.8724 99.7301L21.9219 103.12ZM12 88.6309V82.6309C9.77384 82.6309 7.73067 83.8634 6.69246 85.8326C5.65425 87.8019 5.79168 90.1841 7.04946 92.0209L12 88.6309ZM41.8643 88.6309V94.6309C43.9058 94.6309 45.8073 93.5927 46.9113 91.8754C48.0153 90.1581 48.1703 87.9972 47.3227 86.1399L41.8643 88.6309ZM40.6221 82.8467L34.6221 82.8467L34.6221 82.8468L40.6221 82.8467ZM47.6924 69.8613L51.1851 74.7399C52.7497 73.6198 53.6821 71.8173 53.6923 69.8932L47.6924 69.8613ZM47.6992 67.9805L53.6992 68.0025C53.7099 65.0694 51.5986 62.5585 48.7072 62.0657L47.6992 67.9805ZM45.3477 66.874L49.1152 62.2043C49.0867 62.1814 49.058 62.1587 49.0291 62.1362L45.3477 66.874ZM45.3301 66.8613L42.6468 61.4948C40.8063 62.415 39.5658 64.2142 39.3601 66.2617C39.1545 68.3091 40.0124 70.3191 41.6331 71.587L45.3301 66.8613ZM45.332 66.8604L48.0153 72.2269C49.8376 71.3158 51.073 69.5422 51.296 67.5172C51.519 65.4921 50.6992 63.4922 49.1189 62.2063L45.332 66.8604ZM44.2783 65.1846L38.2787 65.1147L38.2787 65.1148L44.2783 65.1846ZM48.208 62.4297L48.1369 68.4293L48.1469 68.4294L48.208 62.4297ZM48.3496 62.4355L48.0772 68.4294C50.8221 68.5541 53.3009 66.7984 54.0941 64.1677L48.3496 62.4355ZM60.1494 53.2119L60.1494 47.2119L60.1492 47.2119L60.1494 53.2119ZM72.5967 66.916L78.5967 66.916L78.5967 66.9159L72.5967 66.916ZM72.2246 69.5977L68.1754 65.1701C66.7869 66.4399 66.0745 68.2874 66.2511 70.1606C66.4276 72.0338 67.4726 73.7158 69.0738 74.7038L72.2246 69.5977ZM72.6074 69.8584L68.8191 74.5112C68.9152 74.5895 69.0138 74.6648 69.1147 74.737L72.6074 69.8584ZM72.9668 70.123L69.3616 74.9191C70.094 75.4697 70.9428 75.8452 71.8429 76.0168L72.9668 70.123ZM83.3271 72.0986L82.2033 77.9924L82.205 77.9928L83.3271 72.0986ZM86.502 77.6094L81.6054 74.1419L81.6033 74.1448L86.502 77.6094ZM79.6768 82.8311L77.5515 77.2201C75.2172 78.1042 73.6742 80.3412 73.6768 82.8372L79.6768 82.8311ZM79.6777 82.8467L76.9945 88.2132C78.8544 89.1432 81.0632 89.0438 82.8321 87.9506C84.601 86.8573 85.6777 84.9261 85.6777 82.8467H79.6777ZM79.6719 82.8438L82.3552 77.4772C80.4952 76.5472 78.2864 76.6466 76.5175 77.7398C74.7486 78.8331 73.6719 80.7642 73.6719 82.8437L79.6719 82.8438ZM78.4297 88.6309L72.9717 86.1389C72.1237 87.9962 72.2784 90.1573 73.3823 91.8749C74.4863 93.5925 76.3879 94.6309 78.4297 94.6309V88.6309ZM80.4395 88.6309V94.6309C82.5997 94.6309 84.5932 93.4695 85.6588 91.5903L80.4395 88.6309ZM88.4414 74.5186V68.5186C86.2811 68.5186 84.2876 69.6799 83.2221 71.5591L88.4414 74.5186ZM111.959 74.5186V80.5186C114.761 80.5186 117.191 78.5785 117.81 75.8454L111.959 74.5186ZM114.426 63.6396L120.277 64.9665C120.681 63.1872 120.253 61.321 119.114 59.8954C117.976 58.4698 116.25 57.6396 114.426 57.6396V63.6396ZM105.494 60.1123L99.4941 60.1123L99.4941 60.1129L105.494 60.1123ZM116.026 56.584V62.584C118.829 62.584 121.258 60.6441 121.878 57.9111L116.026 56.584ZM118.427 46V40C115.624 40 113.195 41.9399 112.575 44.6729L118.427 46ZM125.189 46L131.041 44.6729C130.421 41.9399 127.992 40 125.189 40V46ZM157.238 128.026H151.238C151.238 131.34 153.925 134.026 157.238 134.026V128.026ZM166.94 128.026V134.026C170.254 134.026 172.94 131.34 172.94 128.026H166.94ZM166.94 120.97H172.94C172.94 117.656 170.254 114.97 166.94 114.97V120.97ZM157.238 120.97V114.97C153.925 114.97 151.238 117.656 151.238 120.97H157.238ZM170.174 128.026H164.174C164.174 131.34 166.86 134.026 170.174 134.026V128.026ZM180.17 128.026V134.026C183.484 134.026 186.17 131.34 186.17 128.026H180.17ZM180.17 120.97H186.17C186.17 117.656 183.484 114.97 180.17 114.97V120.97ZM170.174 120.97V114.97C166.86 114.97 164.174 117.656 164.174 120.97H170.174ZM153.853 127.535L148.118 129.3C148.538 130.666 149.433 131.837 150.64 132.603L153.853 127.535ZM154.004 127.63L150.794 132.699C152.642 133.869 154.981 133.941 156.897 132.886C158.813 131.831 160.004 129.817 160.004 127.63H154.004ZM154.004 120.97H160.004C160.004 117.656 157.318 114.97 154.004 114.97V120.97ZM151.832 120.97V114.97C149.928 114.97 148.137 115.874 147.006 117.405C145.874 118.937 145.537 120.915 146.097 122.735L151.832 120.97ZM29.5293 102.742L24.566 106.113C25.6828 107.758 27.5416 108.742 29.5293 108.742V102.742ZM37.8721 102.742V108.742C41.1858 108.742 43.8721 106.056 43.8721 102.742H37.8721ZM37.8721 95.9805H43.8721C43.8721 92.6668 41.1858 89.9805 37.8721 89.9805V95.9805ZM24.9365 95.9805V89.9805C22.7144 89.9805 20.6743 91.2086 19.6343 93.1722C18.5943 95.1359 18.7247 97.5136 19.9732 99.3517L24.9365 95.9805ZM44.3398 102.742H38.3398C38.3398 106.056 41.0261 108.742 44.3398 108.742V102.742ZM50.2676 102.742V108.742C53.2115 108.742 55.7205 106.606 56.1906 103.7C56.6607 100.794 54.953 97.9763 52.1592 97.0482L50.2676 102.742ZM47.0576 101.676L48.9493 95.9818L48.9485 95.9815L47.0576 101.676ZM46.0596 99.6855L40.3658 97.7932L40.3653 97.7946L46.0596 99.6855ZM46.8506 98.7754L44.1624 93.4113C44.1534 93.4158 44.1443 93.4204 44.1353 93.4249L46.8506 98.7754ZM48.0488 98.6885L51.0545 93.4956C50.7005 93.2907 50.3265 93.1226 49.9383 92.9938L48.0488 98.6885ZM50.583 100.155L47.5773 105.348C49.1393 106.252 51.0252 106.405 52.7124 105.765C54.3996 105.124 55.7089 103.758 56.2775 102.046L50.583 100.155ZM51.5918 97.1162L57.2863 99.0064C58.304 95.9406 56.7117 92.6193 53.6841 91.4928L51.5918 97.1162ZM49.0615 95.9805L51.8854 90.6866C51.0164 90.223 50.0465 89.9805 49.0615 89.9805V95.9805ZM44.3398 95.9805V89.9805C41.0261 89.9805 38.3398 92.6668 38.3398 95.9805H44.3398ZM52.4844 102.226L58.1786 104.116L58.1789 104.116L52.4844 102.226ZM52.1396 102.742L48.1948 98.2213C46.3102 99.8658 45.6435 102.507 46.5216 104.849C47.3997 107.191 49.6385 108.742 52.1396 108.742V102.742ZM55.8057 102.742V108.742C59.1194 108.742 61.8057 106.056 61.8057 102.742H55.8057ZM55.8057 98.2393H61.8057C61.8057 95.3134 59.6953 92.8142 56.8107 92.324L55.8057 98.2393ZM53.9385 97.8447L55.4087 92.0276C52.3605 91.2572 49.2344 92.9706 48.244 95.9546L53.9385 97.8447ZM62.2744 102.742H56.2744C56.2744 106.056 58.9607 108.742 62.2744 108.742V102.742ZM62.2998 102.742V108.742C64.5544 108.742 66.6186 107.478 67.6437 105.47C68.6688 103.462 68.4817 101.049 67.1594 99.223L62.2998 102.742ZM62.2744 102.708L67.2267 99.3205C65.7414 97.1491 63.0148 96.1986 60.5015 96.9759C57.9882 97.7533 56.2744 100.077 56.2744 102.708H62.2744ZM71.2295 95.9805V89.9805C70.2443 89.9805 69.2743 90.2231 68.4051 90.6868L71.2295 95.9805ZM68.8975 97.043L66.7502 91.4403C64.4296 92.3297 62.8975 94.5577 62.8975 97.043H68.8975ZM68.7686 102.742L63.4198 100.024C62.4744 101.884 62.5632 104.101 63.6543 105.88C64.7454 107.658 66.6821 108.742 68.7686 108.742V102.742ZM72.4375 102.742V108.742C74.5976 108.742 76.5909 107.581 77.6565 105.702L72.4375 102.742ZM76.2725 95.9805L81.4915 98.9405C82.5449 97.0831 82.5318 94.8057 81.4571 92.9605C80.3823 91.1154 78.4078 89.9805 76.2725 89.9805V95.9805ZM66.4414 97.8223H72.4414C72.4414 95.9678 71.5839 94.2176 70.1185 93.0811C68.6531 91.9446 66.7445 91.5495 64.9484 92.011L66.4414 97.8223ZM62.2744 98.5137L61.7934 92.533C58.6763 92.7837 56.2744 95.3865 56.2744 98.5137H62.2744ZM62.2744 100.939H56.2744C56.2744 103.571 57.9895 105.896 60.5042 106.672C63.0188 107.449 65.746 106.496 67.2298 104.322L62.2744 100.939ZM62.4639 100.71L58.2224 96.4662C58.2152 96.4734 58.208 96.4806 58.2008 96.4879L62.4639 100.71ZM63.5742 100.249L64.7928 94.3741C64.392 94.2909 63.9836 94.249 63.5742 94.249V100.249ZM66.4414 100.844L65.2228 106.719C66.9902 107.085 68.8288 106.637 70.2288 105.497C71.6288 104.358 72.4414 102.649 72.4414 100.844H66.4414ZM127.59 56.584V62.584H134.895V56.584V50.584H127.59V56.584ZM134.895 56.584L134.894 62.584C134.06 62.5839 133.306 62.2227 132.803 61.688C132.296 61.149 132.128 60.5401 132.128 60.1123H138.128H144.128C144.128 55.0902 140.311 50.5848 134.895 50.584L134.895 56.584ZM138.128 60.1123L132.128 60.1117C132.128 59.7696 132.236 59.2797 132.688 58.7716C133.186 58.2118 134.338 57.4643 135.88 57.7212L134.895 63.6396L133.909 69.5581C137.214 70.1088 139.984 68.6266 141.657 66.7441C143.284 64.9133 144.128 62.5129 144.128 60.1129L138.128 60.1123ZM134.895 63.6396V57.6396H129.19V63.6396V69.6396H134.895V63.6396ZM129.19 63.6396L123.339 64.9665L125.806 75.8454L131.657 74.5186L137.509 73.1917L135.042 62.3128L129.19 63.6396ZM131.657 74.5186V80.5186H137.539V74.5186V68.5186H131.657V74.5186ZM137.539 74.5186L131.804 76.2832L145.012 119.207L150.747 117.442L156.482 115.678L143.274 72.754L137.539 74.5186ZM150.747 117.442V123.442H185.164V117.442V111.442H150.747V117.442ZM185.164 117.442H179.164V120.97H185.164H191.164V117.442H185.164ZM185.164 120.97V114.97H183.404V120.97V126.97H185.164V120.97ZM183.404 120.97H177.404V128.026H183.404H189.404V120.97H183.404ZM183.404 128.026V134.026H185.462V128.026V122.026H183.404V128.026ZM185.462 128.026L185.462 134.026C184.534 134.026 183.576 133.579 182.962 132.833C182.424 132.179 182.401 131.628 182.401 131.554L188.401 131.554L194.401 131.554C194.401 129.422 193.791 127.106 192.225 125.204C190.581 123.208 188.154 122.026 185.462 122.026L185.462 128.026ZM188.401 131.554H182.401C182.401 131.135 182.559 130.602 182.983 130.121C183.364 129.689 184.184 129.082 185.462 129.082L185.462 135.082L185.462 141.082C190.931 141.082 194.401 136.196 194.401 131.554H188.401ZM185.462 135.082V129.082H184.761V135.082V141.082H185.462V135.082ZM184.761 135.082L179.147 132.965L172.495 150.605L178.109 152.722L183.724 154.839L190.375 137.199L184.761 135.082ZM178.109 152.722V146.722H162.217V152.722V158.722H178.109V152.722ZM162.217 152.722L159.564 158.103C159.774 158.207 160.013 158.324 160.263 158.442L162.823 153.016L165.383 147.589C165.23 147.517 165.066 147.437 164.87 147.34L162.217 152.722ZM162.823 153.016V147.016H140.479V153.016V159.016H162.823V153.016ZM140.479 153.016L143.456 147.806C143.284 147.707 143.025 147.563 142.915 147.501L139.959 152.722L137.003 157.943C137.241 158.078 137.331 158.127 137.503 158.225L140.479 153.016ZM139.959 152.722V146.722H86.9688V152.722V158.722H139.959V152.722ZM86.9688 152.722L86.9688 146.722C74.9347 146.722 63.3947 140.391 53.3289 131.713L49.4111 136.258L45.4933 140.802C56.5039 150.295 70.7663 158.722 86.9687 158.722L86.9688 152.722ZM49.4111 136.258V130.258H49.0459V136.258V142.258H49.4111V136.258ZM49.0459 136.258L53.0156 131.759C48.1738 127.487 44.0343 123.33 40.7946 119.28L36.1094 123.028L31.4242 126.777C35.2404 131.547 39.922 136.209 45.0762 140.757L49.0459 136.258ZM36.1094 123.028V129.028H36.3418V123.028V117.028H36.1094V123.028ZM36.3418 123.028L40.9002 119.127C33.0869 109.998 28.0915 101.768 27.0886 100.07L21.9219 103.12L16.7551 106.17C17.9597 108.211 23.3544 117.081 31.7834 126.93L36.3418 123.028ZM21.9219 103.12L26.8724 99.7301L16.9505 85.2409L12 88.6309L7.04946 92.0209L16.9713 106.51L21.9219 103.12ZM12 88.6309V94.6309H41.8643V88.6309V82.6309H12V88.6309ZM41.8643 88.6309L47.3227 86.1399C46.8763 85.1617 46.6221 84.0692 46.6221 82.8466L40.6221 82.8467L34.6221 82.8468C34.6221 85.7936 35.2479 88.5845 36.4058 91.1218L41.8643 88.6309ZM40.6221 82.8467H46.6221C46.6221 79.8449 48.191 76.8835 51.1851 74.7399L47.6924 69.8613L44.1996 64.9827C38.5555 69.0235 34.6221 75.4004 34.6221 82.8467H40.6221ZM47.6924 69.8613L53.6923 69.8932C53.6923 69.8835 53.6959 68.8884 53.6992 68.0025L47.6992 67.9805L41.6993 67.9585C41.696 68.859 41.6924 69.833 41.6925 69.8295L47.6924 69.8613ZM47.6992 67.9805L48.7072 62.0657C48.8437 62.089 48.9333 62.1158 48.9759 62.1298C49.0205 62.1445 49.043 62.1549 49.0478 62.1572C49.0532 62.1598 49.0559 62.1612 49.0599 62.1638C49.0635 62.166 49.082 62.1776 49.1152 62.2043L45.3477 66.874L41.5802 71.5437C42.9428 72.6431 44.7661 73.5671 46.6913 73.8952L47.6992 67.9805ZM45.3477 66.874L49.0291 62.1362C48.9851 62.102 48.9459 62.0725 48.913 62.0482C48.8802 62.024 48.852 62.0036 48.8303 61.9881C48.8088 61.9727 48.7912 61.9604 48.7807 61.9531C48.7753 61.9493 48.771 61.9462 48.7683 61.9444C48.767 61.9434 48.7658 61.9427 48.7652 61.9422C48.7648 61.942 48.7645 61.9418 48.7644 61.9416C48.7643 61.9416 48.7642 61.9415 48.7642 61.9415C48.7641 61.9415 48.7641 61.9415 48.7641 61.9414C48.7638 61.9412 48.7657 61.9425 48.7681 61.9442C48.7707 61.946 48.775 61.949 48.7803 61.9528C48.7907 61.96 48.808 61.9722 48.8294 61.9876C48.8509 62.003 48.879 62.0233 48.9116 62.0476C48.9443 62.0718 48.9833 62.1014 49.0271 62.1356L45.3301 66.8613L41.6331 71.587C41.6782 71.6224 41.7187 71.653 41.7528 71.6784C41.7869 71.7037 41.8164 71.7251 41.8394 71.7415C41.8623 71.7579 41.8811 71.7712 41.893 71.7795C41.9041 71.7873 41.9134 71.7938 41.9136 71.7939C41.9148 71.7947 41.9132 71.7936 41.9117 71.7926C41.9098 71.7912 41.9061 71.7887 41.9015 71.7854C41.8925 71.7791 41.8764 71.7679 41.8564 71.7535C41.8361 71.7391 41.8094 71.7198 41.778 71.6966C41.7466 71.6734 41.7088 71.6449 41.6662 71.6118L45.3477 66.874ZM45.3301 66.8613L48.0134 72.2279L48.0153 72.2269L45.332 66.8604L42.6487 61.4938L42.6468 61.4948L45.3301 66.8613ZM45.332 66.8604L49.1189 62.2063C49.1476 62.2297 49.3522 62.3958 49.5903 62.7596C49.8111 63.0971 50.2929 63.9667 50.2779 65.2543L44.2783 65.1846L38.2787 65.1148C38.2572 66.9676 38.9548 68.422 39.5485 69.3295C40.1595 70.2634 40.8943 70.9848 41.5452 71.5144L45.332 66.8604ZM44.2783 65.1846L50.2779 65.2545C50.2608 66.7237 49.6151 67.6347 49.4184 67.8874C49.287 68.0563 49.1781 68.1606 49.121 68.2116C49.0611 68.265 49.0229 68.2912 49.0118 68.2987C49.0021 68.3052 48.9982 68.3095 48.9565 68.3243C48.9513 68.3261 48.6644 68.4355 48.1369 68.4293L48.208 62.4297L48.2791 56.4301C45.9046 56.402 43.7448 57.3845 42.3393 58.3249C41.5604 58.8459 40.6889 59.566 39.9491 60.5164C39.253 61.4107 38.3034 62.994 38.2787 65.1147L44.2783 65.1846ZM48.208 62.4297L48.1469 68.4294C48.1009 68.4289 48.0636 68.4279 48.038 68.427C48.0129 68.4261 47.9951 68.4253 47.9902 68.425C47.9875 68.4249 47.9866 68.4249 47.989 68.425C47.9925 68.4252 47.9945 68.4253 48.0031 68.4257C48.0155 68.4264 48.0443 68.4279 48.0772 68.4294L48.3496 62.4355L48.622 56.4417C48.6315 56.4422 48.6369 56.4425 48.6257 56.4419C48.6201 56.4416 48.5939 56.4402 48.5679 56.439C48.5145 56.4364 48.404 56.4314 48.2691 56.43L48.208 62.4297ZM48.3496 62.4355L54.0941 64.1677C55.0687 60.9356 57.5824 59.212 60.1496 59.2119L60.1494 53.2119L60.1492 47.2119C51.7468 47.2122 44.9452 52.9426 42.6051 60.7034L48.3496 62.4355ZM60.1494 53.2119V59.2119C63.2564 59.2119 66.5966 61.9063 66.5967 66.9161L72.5967 66.916L78.5967 66.9159C78.5965 56.2207 70.788 47.2119 60.1494 47.2119V53.2119ZM72.5967 66.916H66.5967C66.5967 66.8791 66.5971 66.9499 66.5797 67.1444C66.5641 67.3177 66.5412 67.5138 66.5156 67.6951C66.503 67.7838 66.4912 67.8592 66.4812 67.9179C66.4706 67.98 66.4653 68.0047 66.467 67.9968C66.468 67.9919 66.4735 67.9665 66.4839 67.925C66.4932 67.8878 66.5143 67.806 66.549 67.6953C66.577 67.6055 66.6506 67.3769 66.7809 67.0886C66.8472 66.9418 66.9623 66.703 67.1356 66.4232C67.2875 66.1779 67.6188 65.6791 68.1754 65.1701L72.2246 69.5977L76.2739 74.0252C77.2423 73.1395 77.6601 72.1542 77.7169 72.0285C77.8643 71.7023 77.9558 71.4246 78.0024 71.2756C78.1002 70.9628 78.1645 70.68 78.2016 70.5066C78.282 70.1308 78.3473 69.7297 78.3973 69.3759C78.4901 68.7202 78.5967 67.757 78.5967 66.916H72.5967ZM72.2246 69.5977L69.0738 74.7038C69.1015 74.7209 69.0114 74.6678 68.8191 74.5112L72.6074 69.8584L76.3958 65.2056C76.1946 65.0419 75.8598 64.7904 75.3754 64.4915L72.2246 69.5977ZM72.6074 69.8584L69.1147 74.737C69.1826 74.7856 69.2609 74.8435 69.3616 74.9191L72.9668 70.123L76.572 65.327C76.4353 65.2242 76.2746 65.1047 76.1002 64.9798L72.6074 69.8584ZM72.9668 70.123L71.8429 76.0168L82.2033 77.9924L83.3271 72.0986L84.451 66.2048L74.0907 64.2292L72.9668 70.123ZM83.3271 72.0986L82.205 77.9928C82.3802 78.0261 81.8849 77.9848 81.4568 77.2245C81.2403 76.84 81.0748 76.3059 81.1011 75.6801C81.128 75.04 81.3476 74.5058 81.6054 74.1419L86.502 77.6094L91.3985 81.0769C93.5493 78.0397 93.5882 74.3119 91.9135 71.3373C90.3211 68.509 87.4811 66.7817 84.4493 66.2045L83.3271 72.0986ZM86.502 77.6094L81.6033 74.1448C80.8297 75.2386 79.3964 76.5213 77.5515 77.2201L79.6768 82.8311L81.802 88.442C86.0816 86.8211 89.3753 83.9375 91.4006 81.074L86.502 77.6094ZM79.6768 82.8311L73.6768 82.8372C73.6769 82.9316 73.6792 83.0148 73.682 83.0837C73.6849 83.1525 73.6886 83.2112 73.6917 83.256C73.6933 83.2787 73.6948 83.2988 73.6962 83.3156C73.6975 83.3325 73.6988 83.3469 73.6998 83.3581C73.7007 83.3692 73.7015 83.3782 73.702 83.3837C73.7023 83.3866 73.7025 83.3889 73.7026 83.3903C73.7027 83.391 73.7028 83.3916 73.7028 83.392C73.7028 83.3922 73.7028 83.3924 73.7028 83.3925C73.7029 83.3926 73.7029 83.3927 73.7029 83.3927C73.7029 83.3935 73.7026 83.3896 73.7022 83.385C73.7017 83.3798 73.7009 83.3713 73.7 83.3606C73.699 83.3498 73.6978 83.3357 73.6965 83.3193C73.6952 83.3028 73.6937 83.2831 73.6922 83.2608C73.6891 83.2168 73.6855 83.1589 73.6827 83.0908C73.6799 83.0227 73.6777 82.9403 73.6777 82.8467H79.6777H85.6777C85.6777 82.7518 85.6755 82.6681 85.6726 82.5987C85.6698 82.5293 85.6662 82.4701 85.663 82.4248C85.6614 82.4018 85.6599 82.3815 85.6585 82.3644C85.6571 82.3473 85.6559 82.3326 85.6549 82.3211C85.6539 82.3098 85.6531 82.3005 85.6525 82.2947C85.6523 82.2918 85.652 82.2894 85.6519 82.2878C85.6518 82.2864 85.6516 82.2851 85.6516 82.2851C85.6515 82.2839 85.6519 82.2877 85.6523 82.292C85.6527 82.2969 85.6535 82.3052 85.6544 82.3157C85.6553 82.3262 85.6565 82.34 85.6578 82.3562C85.6591 82.3724 85.6606 82.3918 85.6621 82.4139C85.6652 82.4574 85.6687 82.5148 85.6716 82.5823C85.6744 82.6499 85.6767 82.7318 85.6768 82.8249L79.6768 82.8311ZM79.6777 82.8467L82.361 77.4801L82.3552 77.4772L79.6719 82.8438L76.9886 88.2103L76.9945 88.2132L79.6777 82.8467ZM79.6719 82.8438L73.6719 82.8437C73.6719 84.0693 73.4175 85.1624 72.9717 86.1389L78.4297 88.6309L83.8877 91.1229C85.0476 88.5825 85.6719 85.7897 85.6719 82.8438L79.6719 82.8438ZM78.4297 88.6309V94.6309H80.4395V88.6309V82.6309H78.4297V88.6309ZM80.4395 88.6309L85.6588 91.5903L93.6607 77.478L88.4414 74.5186L83.2221 71.5591L75.2201 85.6714L80.4395 88.6309ZM88.4414 74.5186V80.5186H111.959V74.5186V68.5186H88.4414V74.5186ZM111.959 74.5186L117.81 75.8454L120.277 64.9665L114.426 63.6396L108.574 62.3128L106.108 73.1917L111.959 74.5186ZM114.426 63.6396V57.6396H108.729V63.6396V69.6396H114.426V63.6396ZM108.729 63.6396V57.6396C109.562 57.6396 110.315 58.0002 110.818 58.5347C111.326 59.0737 111.494 59.6831 111.494 60.1117L105.494 60.1123L99.4941 60.1129C99.4947 65.1376 103.315 69.6396 108.729 69.6396V63.6396ZM105.494 60.1123H111.494C111.494 60.5407 111.326 61.1498 110.819 61.6886C110.316 62.223 109.562 62.584 108.729 62.584V56.584V50.584C103.313 50.584 99.4941 55.0885 99.4941 60.1123H105.494ZM108.729 56.584V62.584H116.026V56.584V50.584H108.729V56.584ZM116.026 56.584L121.878 57.9111L124.278 47.3271L118.427 46L112.575 44.6729L110.175 55.2569L116.026 56.584ZM118.427 46V52H125.189V46V40H118.427V46ZM125.189 46L119.338 47.3271L121.738 57.9111L127.59 56.584L133.441 55.2569L131.041 44.6729L125.189 46ZM157.238 128.026V134.026H166.94V128.026V122.026H157.238V128.026ZM166.94 128.026H172.94V120.97H166.94H160.94V128.026H166.94ZM166.94 120.97V114.97H157.238V120.97V126.97H166.94V120.97ZM157.238 120.97H151.238V128.026H157.238H163.238V120.97H157.238ZM170.174 128.026V134.026H180.17V128.026V122.026H170.174V128.026ZM180.17 128.026H186.17V120.97H180.17H174.17V128.026H180.17ZM180.17 120.97V114.97H170.174V120.97V126.97H180.17V120.97ZM170.174 120.97H164.174V128.026H170.174H176.174V120.97H170.174ZM153.853 127.535L150.64 132.603C150.69 132.635 150.737 132.664 150.76 132.678C150.773 132.686 150.781 132.691 150.788 132.695C150.794 132.699 150.795 132.7 150.794 132.699L154.004 127.63L157.214 122.561C157.164 122.529 157.118 122.501 157.097 122.488C157.069 122.47 157.065 122.468 157.065 122.468L153.853 127.535ZM154.004 127.63H160.004V120.97H154.004H148.004V127.63H154.004ZM154.004 120.97V114.97H151.832V120.97V126.97H154.004V120.97ZM151.832 120.97L146.097 122.735L148.118 129.3L153.853 127.535L159.587 125.77L157.567 119.205L151.832 120.97ZM29.5293 102.742V108.742H37.8721V102.742V96.7422H29.5293V102.742ZM37.8721 102.742H43.8721V95.9805H37.8721H31.8721V102.742H37.8721ZM37.8721 95.9805V89.9805H24.9365V95.9805V101.98H37.8721V95.9805ZM24.9365 95.9805L19.9732 99.3517L24.566 106.113L29.5293 102.742L34.4926 99.3709L29.8999 92.6092L24.9365 95.9805ZM44.3398 102.742V108.742H50.2676V102.742V96.7422H44.3398V102.742ZM50.2676 102.742L52.1592 97.0482L48.9493 95.9818L47.0576 101.676L45.166 107.37L48.3759 108.436L50.2676 102.742ZM47.0576 101.676L48.9485 95.9815C51.2708 96.7527 52.5254 99.2529 51.7538 101.576L46.0596 99.6855L40.3653 97.7946C39.0479 101.762 41.2006 106.053 45.1667 107.37L47.0576 101.676ZM46.0596 99.6855L51.7533 101.578C51.357 102.77 50.5132 103.645 49.5658 104.126L46.8506 98.7754L44.1353 93.4249C42.4635 94.2733 41.0352 95.7792 40.3658 97.7932L46.0596 99.6855ZM46.8506 98.7754L49.5388 104.139C48.5343 104.643 47.3165 104.767 46.1594 104.383L48.0488 98.6885L49.9383 92.9938C47.9597 92.3373 45.8894 92.5458 44.1624 93.4113L46.8506 98.7754ZM48.0488 98.6885L45.0432 103.881L47.5773 105.348L50.583 100.155L53.5887 94.9624L51.0545 93.4956L48.0488 98.6885ZM50.583 100.155L56.2775 102.046L57.2863 99.0064L51.5918 97.1162L45.8973 95.226L44.8885 98.265L50.583 100.155ZM51.5918 97.1162L53.6841 91.4928C53.043 91.2543 52.4427 90.9838 51.8854 90.6866L49.0615 95.9805L46.2376 101.274C47.2844 101.833 48.3749 102.321 49.4995 102.74L51.5918 97.1162ZM49.0615 95.9805V89.9805H44.3398V95.9805V101.98H49.0615V95.9805ZM44.3398 95.9805H38.3398V102.742H44.3398H50.3398V95.9805H44.3398ZM52.4844 102.226L46.7901 100.335C47.0757 99.4747 47.5816 98.7564 48.1948 98.2213L52.1396 102.742L56.0845 107.263C57.006 106.459 57.7557 105.39 58.1786 104.116L52.4844 102.226ZM52.1396 102.742V108.742H55.8057V102.742V96.7422H52.1396V102.742ZM55.8057 102.742H61.8057V98.2393H55.8057H49.8057V102.742H55.8057ZM55.8057 98.2393L56.8107 92.324C56.3376 92.2436 55.8701 92.1442 55.4087 92.0276L53.9385 97.8447L52.4682 103.662C53.2262 103.853 54.0041 104.019 54.8006 104.154L55.8057 98.2393ZM53.9385 97.8447L48.244 95.9546L46.7899 100.335L52.4844 102.226L58.1789 104.116L59.633 99.7349L53.9385 97.8447ZM62.2744 102.742V108.742H62.2998V102.742V96.7422H62.2744V102.742ZM62.2998 102.742L67.1594 99.223C67.1214 99.1705 67.0902 99.1292 67.0742 99.1081C67.0661 99.0974 67.0594 99.0887 67.057 99.0856C67.0524 99.0795 67.0561 99.0844 67.0573 99.0859C67.0616 99.0916 67.0827 99.1191 67.1096 99.1557C67.1375 99.1935 67.1786 99.2502 67.2267 99.3205L62.2744 102.708L57.3221 106.095C57.3743 106.172 57.4195 106.234 57.4516 106.278C57.4827 106.32 57.5081 106.353 57.5167 106.364C57.52 106.369 57.5259 106.376 57.5234 106.373C57.5232 106.373 57.5187 106.367 57.5127 106.359C57.501 106.344 57.4741 106.308 57.4403 106.261L62.2998 102.742ZM62.2744 102.708H56.2744V102.742H62.2744H68.2744V102.708H62.2744ZM71.2295 95.9805L68.4051 90.6868C67.8844 90.9646 67.3321 91.2173 66.7502 91.4403L68.8975 97.043L71.0447 102.646C72.0857 102.247 73.0906 101.788 74.0539 101.274L71.2295 95.9805ZM68.8975 97.043H62.8975V102.209H68.8975H74.8975V97.043H68.8975ZM68.8975 102.209H62.8975C62.8975 101.402 63.0985 100.656 63.4198 100.024L68.7686 102.742L74.1173 105.461C74.602 104.507 74.8975 103.399 74.8975 102.209H68.8975ZM68.7686 102.742V108.742H72.4375V102.742V96.7422H68.7686V102.742ZM72.4375 102.742L77.6565 105.702L81.4915 98.9405L76.2725 95.9805L71.0534 93.0205L67.2185 99.7822L72.4375 102.742ZM76.2725 95.9805V89.9805H71.2295V95.9805V101.98H76.2725V95.9805ZM66.4414 97.8223L64.9484 92.011C63.9579 92.2655 62.9022 92.4438 61.7934 92.533L62.2744 98.5137L62.7555 104.494C64.5304 104.352 66.2639 104.063 67.9344 103.634L66.4414 97.8223ZM62.2744 98.5137H56.2744V100.939H62.2744H68.2744V98.5137H62.2744ZM62.2744 100.939L67.2298 104.322C67.0787 104.544 66.9101 104.747 66.727 104.932L62.4639 100.71L58.2008 96.4879C57.8779 96.8139 57.582 97.1714 57.319 97.5566L62.2744 100.939ZM62.4639 100.71L66.7053 104.954C65.9161 105.743 64.8014 106.249 63.5742 106.249V100.249V94.249C61.4814 94.249 59.5834 95.1059 58.2224 96.4662L62.4639 100.71ZM63.5742 100.249L62.3556 106.124L65.2228 106.719L66.4414 100.844L67.66 94.9688L64.7928 94.3741L63.5742 100.249ZM66.4414 100.844H72.4414V97.8223H66.4414H60.4414V100.844H66.4414Z" fill="white" mask="url(#path-1-outside-1_1062_23287)"/>
<path d="M83.3277 72.0987L61.3824 67.915C61.3824 67.915 60.3921 81.2894 71.9186 83.4859C78.7575 84.7884 84.077 81.0392 86.5025 77.6098C88.0173 75.471 86.5348 72.7093 83.3277 72.0987Z" fill="#21587B"/>
<path d="M68.8978 89.188V102.209C68.8978 102.861 68.3621 103.397 67.7098 103.397H63.5739C62.7078 103.397 62 102.689 62 101.823C62 101.39 62.1776 100.999 62.4636 100.71C62.7495 100.424 63.1408 100.249 63.5739 100.249L66.4412 100.844V89.188C66.4412 88.5357 66.977 88 67.6293 88H67.7098C68.3621 88 68.8978 88.5357 68.8978 89.188Z" fill="#404040"/>
<path d="M56.5879 89.8683L52.4843 102.226C52.2787 102.845 51.6015 103.185 50.9824 102.979L47.0572 101.676C46.2353 101.403 45.7867 100.508 46.0596 99.686C46.1961 99.275 46.488 98.9596 46.8503 98.7757C47.2117 98.5945 47.6383 98.5518 48.0493 98.6883L50.5833 100.156L54.2565 89.0942C54.4621 88.4751 55.1394 88.1355 55.7584 88.3411L55.8348 88.3664C56.4539 88.572 56.7935 89.2493 56.5879 89.8683Z" fill="#404040"/>
<path d="M79.6717 82.8437C79.6717 86.1718 78.553 89.1364 76.6239 91.5679C73.2624 95.8093 67.4388 98.438 60.777 98.5934C60.5688 98.599 60.3578 98.6017 60.1469 98.6017C59.9359 98.6017 59.725 98.6017 59.5168 98.5934C52.8521 98.438 47.0313 95.8093 43.6699 91.5735C43.6699 91.5735 43.6699 91.5735 43.6699 91.5707C41.7407 89.1391 40.6221 86.1746 40.6221 82.8464C40.6221 77.6224 43.3729 72.9536 47.692 69.8614C47.692 69.8614 47.7031 67.7712 47.7031 66.9163C47.7031 59.0636 53.2768 53.2123 60.1496 53.2123C67.0225 53.2123 72.5962 59.0636 72.5962 66.9163C72.5962 67.7712 72.3464 69.4866 72.2243 69.5977C72.4852 69.7587 72.6073 69.8586 72.6073 69.8586C76.9264 72.9508 79.6772 77.6197 79.6772 82.8464L79.6717 82.8437Z" fill="#4B9AE8"/>
<path d="M48.1471 68.027C46.6178 68.0115 44.2632 66.4906 44.2784 65.1848C44.2933 63.8818 46.6797 62.4113 48.2087 62.4296C49.7379 62.4452 50.9714 63.3126 50.9502 65.2575C50.9293 67.2248 49.6791 68.0429 48.1498 68.0274L48.1471 68.027Z" fill="#EAC00F"/>
<path d="M59.8509 70.904L70.3421 78.6903C72.9032 80.5907 73.2461 83.9422 71.0107 85.3124C67.523 87.4519 62.2057 89.2435 56.9437 85.3369C52.5471 82.0738 51.5695 77.3453 51.7135 73.3762C51.8471 69.6493 56.3327 68.2917 59.8481 70.9036L59.8509 70.904Z" fill="#276288"/>
<path opacity="0.5" d="M50.3901 63.3693C50.3901 63.3693 50.1584 64.1251 49.8462 64.9499C49.5098 65.839 48.7629 66.385 48.0976 66.5101C47.2321 66.6766 46.6384 66.835 45.3307 66.8615C46.3052 67.6239 47.3704 68.0083 48.1477 68.0273C49.797 68.0678 50.5804 67.1544 50.8215 66.2181C51.2942 64.3807 50.3901 63.3693 50.3901 63.3693Z" fill="#B5950D"/>
<path d="M55.74 64.48C57.2533 64.48 58.48 63.2533 58.48 61.74C58.48 60.2267 57.2533 59 55.74 59C54.2267 59 53 60.2267 53 61.74C53 63.2533 54.2267 64.48 55.74 64.48Z" fill="white"/>
<path d="M55.7398 63.2005C56.5464 63.2005 57.2003 62.5466 57.2003 61.74C57.2003 60.9334 56.5464 60.2795 55.7398 60.2795C54.9332 60.2795 54.2793 60.9334 54.2793 61.74C54.2793 62.5466 54.9332 63.2005 55.7398 63.2005Z" fill="#040000"/>
<path d="M154.004 118.03H157.238V132.142H154.004V118.03ZM180.17 118.03H183.404V132.142H180.17V118.03ZM166.94 118.03H170.174V132.142H166.94V118.03Z" fill="#3E4347"/>
<path d="M137.539 74.5184H88.4417L72.2715 103.036L154.004 128.026L137.539 74.5184Z" fill="#DAE3EA"/>
<path d="M135.185 117.442H185.164V120.97H135.185V117.442Z" fill="#3E4347"/>
<path d="M131.657 74.5182H111.959L118.427 46H125.189L131.657 74.5182Z" fill="#C5D0D8"/>
<path d="M81.678 88.6304H12L30.522 115.678L35.5201 111.562L24.9361 95.9803H37.8719V110.092H44.3401V95.9803H55.8061V110.092H62.274V95.9803H81.678V88.6304Z" fill="#DAE3EA"/>
<path d="M144.89 128.026C143.42 128.026 142.538 129.496 142.832 131.554V131.848C143.42 133.612 144.89 135.082 146.654 135.082H185.462C186.932 135.082 188.402 133.612 188.402 131.554C188.402 129.496 187.226 128.026 185.462 128.026H144.89Z" fill="#3E4347"/>
<path d="M178.109 152.722H86.9692C50.2191 152.722 21.7012 102.742 21.7012 102.742H72.2691C137.537 102.742 153.413 134.788 171.347 134.788H184.871L178.109 152.722Z" fill="#F15744"/>
<path d="M49.0455 136.258H72.2714C105.787 136.258 126.073 144.784 140.48 153.016H162.823C147.241 145.666 127.25 123.028 72.2714 123.028H36.1094C39.6374 127.438 44.0474 131.848 49.0455 136.258Z" fill="#C94747"/>
<path d="M90.7931 79.8104L79.0332 101.272H127.837L121.369 79.8104H90.7931ZM102.259 113.62C100.495 113.62 99.0253 115.09 99.0253 117.148V124.204C99.0253 126.262 100.495 127.732 102.259 127.732H108.727C110.491 127.732 111.961 126.262 111.961 124.204V117.148C111.961 115.09 110.491 113.62 108.727 113.62H102.259ZM82.5612 113.62C80.7972 113.62 79.3271 115.09 79.3271 117.148V124.204C79.3271 126.262 80.7972 127.732 82.5612 127.732H89.0291C90.7931 127.732 92.2632 126.262 92.2632 124.204V117.148C92.2632 115.09 90.7931 113.62 89.0291 113.62H82.5612Z" fill="#3E4347"/>
<path d="M138.128 60.1119C138.128 58.054 136.658 56.5839 134.894 56.5839H108.728C106.964 56.5839 105.494 58.054 105.494 60.1119C105.494 62.1698 106.964 63.6399 108.728 63.6399H134.894C136.658 63.9341 138.128 62.1701 138.128 60.1119Z" fill="#DAE3EA"/>
</svg>
