<svg width="200" height="200" viewBox="0 0 200 200" fill="none" xmlns="http://www.w3.org/2000/svg">
<mask id="path-1-outside-1_1062_19218" maskUnits="userSpaceOnUse" x="20.001" y="10.9998" width="161" height="179" fill="black">
<rect fill="white" x="20.001" y="10.9998" width="161" height="179"/>
<path d="M86.2117 20.0912C92.983 17.0957 100.511 16.251 107.778 17.6713C115.045 19.0916 121.7 22.7091 126.845 28.0336C131.438 32.0046 134.933 37.0903 136.992 42.8021C138.57 47.1796 139.263 51.812 139.051 56.433C139.047 56.5121 139.044 56.5912 139.04 56.6703C139.039 56.6898 139.038 56.7093 139.037 56.7289C138.974 57.8996 138.851 59.0672 138.672 60.2279C139.518 60.7765 140.327 61.3835 141.09 62.0472C147.236 56.4271 154.556 52.2038 162.548 49.6996C172.108 47.1938 174.306 53.0156 174.653 57.4105C174.723 58.5651 174.335 59.7011 173.573 60.5716C173.566 60.5562 173.557 60.5412 173.55 60.5257C173.548 60.5271 173.548 60.5293 173.547 60.5306C172.826 61.3882 171.797 61.9287 170.682 62.0365C162.711 62.9003 155.004 65.3088 147.985 69.1048C149.173 70.6602 150.149 72.3723 150.879 74.1986C151.987 76.9724 152.507 79.9467 152.407 82.932C152.277 88.3527 152.979 93.7613 154.489 98.9691C154.521 99.0918 154.551 99.2153 154.582 99.3382C160.169 120.941 151.461 144.365 134.44 161.385C117.323 178.502 93.7681 187.215 72.0632 181.394C66.8543 179.889 61.4458 179.187 56.0251 179.313C53.0399 179.413 50.0664 178.892 47.2927 177.784C44.5189 176.675 42.0045 175.004 39.9099 172.874L36.3249 169.288C34.1979 167.19 32.5251 164.677 31.4109 161.905C30.2967 159.132 29.765 156.161 29.8484 153.174C29.9919 147.755 29.3021 142.346 27.8044 137.136C27.4261 135.726 27.1098 134.306 26.8523 132.881C26.8489 132.899 26.8459 132.916 26.8425 132.934C26.2973 129.913 26.0243 126.866 26.0027 123.816C26.002 123.745 26.0021 123.675 26.0017 123.604C26.0011 123.418 26.0004 123.231 26.0017 123.045C26.0752 105.609 34.32 88.0679 47.8132 74.6048C61.3086 61.1398 78.7643 52.8772 96.1453 52.7972C92.5174 49.4489 89.5592 45.4289 87.4412 40.9506C84.9289 35.6386 83.6645 29.8222 83.7439 23.9466C83.7286 23.1324 83.9544 22.3318 84.3933 21.6459C84.6964 21.1723 85.0934 20.77 85.5544 20.4574C85.7615 20.317 85.9804 20.1926 86.2117 20.0912Z"/>
</mask>
<path d="M86.2117 20.0912C92.983 17.0957 100.511 16.251 107.778 17.6713C115.045 19.0916 121.7 22.7091 126.845 28.0336C131.438 32.0046 134.933 37.0903 136.992 42.8021C138.57 47.1796 139.263 51.812 139.051 56.433C139.047 56.5121 139.044 56.5912 139.04 56.6703C139.039 56.6898 139.038 56.7093 139.037 56.7289C138.974 57.8996 138.851 59.0672 138.672 60.2279C139.518 60.7765 140.327 61.3835 141.09 62.0472C147.236 56.4271 154.556 52.2038 162.548 49.6996C172.108 47.1938 174.306 53.0156 174.653 57.4105C174.723 58.5651 174.335 59.7011 173.573 60.5716C173.566 60.5562 173.557 60.5412 173.55 60.5257C173.548 60.5271 173.548 60.5293 173.547 60.5306C172.826 61.3882 171.797 61.9287 170.682 62.0365C162.711 62.9003 155.004 65.3088 147.985 69.1048C149.173 70.6602 150.149 72.3723 150.879 74.1986C151.987 76.9724 152.507 79.9467 152.407 82.932C152.277 88.3527 152.979 93.7613 154.489 98.9691C154.521 99.0918 154.551 99.2153 154.582 99.3382C160.169 120.941 151.461 144.365 134.44 161.385C117.323 178.502 93.7681 187.215 72.0632 181.394C66.8543 179.889 61.4458 179.187 56.0251 179.313C53.0399 179.413 50.0664 178.892 47.2927 177.784C44.5189 176.675 42.0045 175.004 39.9099 172.874L36.3249 169.288C34.1979 167.19 32.5251 164.677 31.4109 161.905C30.2967 159.132 29.765 156.161 29.8484 153.174C29.9919 147.755 29.3021 142.346 27.8044 137.136C27.4261 135.726 27.1098 134.306 26.8523 132.881C26.8489 132.899 26.8459 132.916 26.8425 132.934C26.2973 129.913 26.0243 126.866 26.0027 123.816C26.002 123.745 26.0021 123.675 26.0017 123.604C26.0011 123.418 26.0004 123.231 26.0017 123.045C26.0752 105.609 34.32 88.0679 47.8132 74.6048C61.3086 61.1398 78.7643 52.8772 96.1453 52.7972C92.5174 49.4489 89.5592 45.4289 87.4412 40.9506C84.9289 35.6386 83.6645 29.8222 83.7439 23.9466C83.7286 23.1324 83.9544 22.3318 84.3933 21.6459C84.6964 21.1723 85.0934 20.77 85.5544 20.4574C85.7615 20.317 85.9804 20.1926 86.2117 20.0912Z" fill="#FFF48C"/>
<path d="M86.2117 20.0912L88.6218 25.5858C88.6275 25.5833 88.6333 25.5808 88.639 25.5783L86.2117 20.0912ZM107.778 17.6713L108.929 11.7827L108.929 11.7827L107.778 17.6713ZM126.845 28.0336L122.531 32.2029C122.655 32.3318 122.786 32.4551 122.921 32.5723L126.845 28.0336ZM136.992 42.8021L142.636 40.7672L142.636 40.7671L136.992 42.8021ZM139.051 56.433L133.057 56.157L133.057 56.1632L139.051 56.433ZM139.04 56.6703L145.031 56.9865L145.032 56.9807L139.04 56.6703ZM139.037 56.7289L133.046 56.4028L133.045 56.4085L139.037 56.7289ZM138.672 60.2279L132.742 59.309C132.38 61.6459 133.424 63.9775 135.409 65.2633L138.672 60.2279ZM141.09 62.0472L137.15 66.573C139.451 68.5754 142.888 68.5333 145.139 66.4751L141.09 62.0472ZM162.548 49.6996L161.026 43.8956C160.935 43.9196 160.844 43.9458 160.753 43.9741L162.548 49.6996ZM174.653 57.4105L180.642 57.0466C180.64 57.0105 180.637 56.9744 180.634 56.9383L174.653 57.4105ZM173.573 60.5716L168.165 63.1703C169.038 64.9873 170.765 66.2444 172.763 66.5167C174.76 66.7889 176.761 66.04 178.088 64.5229L173.573 60.5716ZM173.55 60.5257L178.943 57.8963C178.052 56.0694 176.297 54.8177 174.28 54.5703C172.262 54.323 170.257 55.1137 168.951 56.6713L173.55 60.5257ZM173.547 60.5306L178.14 64.3911L178.14 64.3907L173.547 60.5306ZM170.682 62.0365L170.105 56.0643C170.082 56.0666 170.059 56.0689 170.036 56.0714L170.682 62.0365ZM147.985 69.1048L145.131 63.8272C143.587 64.6619 142.487 66.1304 142.119 67.8461C141.751 69.5617 142.152 71.3525 143.217 72.747L147.985 69.1048ZM150.879 74.1986L156.45 71.9726L156.45 71.9725L150.879 74.1986ZM152.407 82.932L146.41 82.7311C146.41 82.7499 146.409 82.7688 146.409 82.7877L152.407 82.932ZM154.489 98.9691L160.298 97.4686C160.284 97.4115 160.268 97.3547 160.252 97.2982L154.489 98.9691ZM154.582 99.3382L148.762 100.799C148.766 100.813 148.769 100.827 148.773 100.841L154.582 99.3382ZM134.44 161.385L138.683 165.628L138.683 165.628L134.44 161.385ZM72.0632 181.394L70.3974 187.158C70.4345 187.169 70.4717 187.179 70.509 187.189L72.0632 181.394ZM56.0251 179.313L55.8862 173.314C55.8655 173.315 55.8449 173.316 55.8242 173.316L56.0251 179.313ZM47.2927 177.784L45.0667 183.355L45.0668 183.355L47.2927 177.784ZM39.9099 172.874L44.1875 168.667C44.1761 168.655 44.1646 168.644 44.1531 168.632L39.9099 172.874ZM36.3249 169.288L40.5682 165.046C40.5583 165.037 40.5485 165.027 40.5386 165.017L36.3249 169.288ZM31.4109 161.905L25.8437 164.142L25.8437 164.142L31.4109 161.905ZM29.8484 153.174L35.8461 153.342L35.8463 153.333L29.8484 153.174ZM27.8044 137.136L22.0092 138.69C22.0185 138.725 22.0281 138.759 22.038 138.794L27.8044 137.136ZM26.8523 132.881L32.7567 131.814C32.243 128.972 29.7768 126.899 26.8882 126.881C23.9997 126.864 21.5088 128.907 20.9611 131.744L26.8523 132.881ZM26.8425 132.934L20.9379 133.999C21.451 136.843 23.9184 138.917 26.808 138.934C29.6977 138.95 32.1887 136.905 32.7345 134.067L26.8425 132.934ZM26.0027 123.816L32.0025 123.773C32.0025 123.768 32.0025 123.763 32.0024 123.758L26.0027 123.816ZM26.0017 123.604L20.0017 123.623C20.0018 123.628 20.0018 123.634 20.0018 123.639L26.0017 123.604ZM26.0017 123.045L32.0016 123.086C32.0016 123.081 32.0016 123.076 32.0016 123.071L26.0017 123.045ZM47.8132 74.6048L43.5754 70.3574L43.5753 70.3575L47.8132 74.6048ZM96.1453 52.7972L96.1728 58.7972C98.6384 58.7858 100.846 57.2674 101.738 54.969C102.631 52.6707 102.026 50.0604 100.215 48.3882L96.1453 52.7972ZM87.4412 40.9506L82.0172 43.5158L82.0172 43.5158L87.4412 40.9506ZM83.7439 23.9466L89.7433 24.0277C89.7442 23.9632 89.744 23.8987 89.7428 23.8342L83.7439 23.9466ZM84.3933 21.6459L79.3397 18.4115L79.3394 18.4119L84.3933 21.6459ZM85.5544 20.4574L88.9219 25.4233L88.9225 25.4229L85.5544 20.4574ZM86.2117 20.0912L88.639 25.5783C94.2869 23.0798 100.566 22.3752 106.627 23.5598L107.778 17.6713L108.929 11.7827C100.456 10.1267 91.6792 11.1117 83.7844 14.6041L86.2117 20.0912ZM107.778 17.6713L106.627 23.5598C112.688 24.7444 118.239 27.7616 122.531 32.2029L126.845 28.0336L131.16 23.8642C125.162 17.6566 117.402 13.4388 108.929 11.7827L107.778 17.6713ZM126.845 28.0336L122.921 32.5723C126.736 35.8703 129.637 40.0938 131.348 44.8371L136.992 42.8021L142.636 40.7671C140.228 34.0869 136.141 28.139 130.77 23.4948L126.845 28.0336ZM136.992 42.8021L131.348 44.837C132.658 48.4711 133.234 52.3181 133.057 56.157L139.051 56.433L145.044 56.7089C145.293 51.3059 144.483 45.8881 142.636 40.7672L136.992 42.8021ZM139.051 56.433L133.057 56.1632C133.051 56.2923 133.051 56.3058 133.048 56.3599L139.04 56.6703L145.032 56.9807C145.037 56.8766 145.043 56.7318 145.044 56.7028L139.051 56.433ZM139.04 56.6703L133.048 56.3541C133.047 56.3687 133.047 56.3813 133.046 56.3905C133.046 56.3989 133.045 56.4076 133.045 56.4107C133.045 56.4153 133.045 56.4156 133.045 56.4148C133.045 56.4137 133.045 56.4093 133.046 56.4028L139.037 56.7289L145.028 57.055C145.03 57.0244 145.031 56.9975 145.031 56.9884C145.032 56.9818 145.032 56.9807 145.032 56.9794C145.032 56.9788 145.032 56.9817 145.031 56.9865L139.04 56.6703ZM139.037 56.7289L133.045 56.4085C132.994 57.374 132.892 58.3419 132.742 59.309L138.672 60.2279L144.601 61.1467C144.811 59.7926 144.955 58.4252 145.028 57.0493L139.037 56.7289ZM138.672 60.2279L135.409 65.2633C136.024 65.6618 136.606 66.0991 137.15 66.573L141.09 62.0472L145.029 57.5214C144.048 56.6679 143.013 55.8913 141.934 55.1925L138.672 60.2279ZM141.09 62.0472L145.139 66.4751C150.638 61.4459 157.19 57.6663 164.342 55.4251L162.548 49.6996L160.753 43.9741C151.923 46.7413 143.833 51.4084 137.041 57.6194L141.09 62.0472ZM162.548 49.6996L164.069 55.5035C165.882 55.0284 166.927 55.0616 167.427 55.1459C167.667 55.1864 167.791 55.2395 167.839 55.2631C167.886 55.286 167.91 55.3051 167.932 55.3257C167.98 55.3715 168.142 55.5512 168.313 56.0285C168.488 56.5137 168.614 57.1469 168.672 57.8827L174.653 57.4105L180.634 56.9383C180.421 54.2338 179.591 49.8367 176.179 46.6089C172.371 43.0059 167.015 42.3262 161.026 43.8956L162.548 49.6996ZM174.653 57.4105L168.664 57.7744C168.638 57.351 168.781 56.9369 169.058 56.6204L173.573 60.5716L178.088 64.5229C179.889 62.4653 180.808 59.7793 180.642 57.0466L174.653 57.4105ZM173.573 60.5716L178.981 57.973C178.951 57.9099 178.925 57.8584 178.907 57.8248C178.899 57.8077 178.891 57.7934 178.886 57.7834C178.881 57.7738 178.877 57.7659 178.876 57.7633C178.873 57.7588 178.875 57.7619 178.876 57.7645C178.878 57.768 178.882 57.7761 178.888 57.7868C178.898 57.8075 178.918 57.8464 178.943 57.8963L173.55 60.5257L168.156 63.1552C168.171 63.1845 168.184 63.2105 168.195 63.2324C168.206 63.2543 168.215 63.2731 168.223 63.2877C168.23 63.3022 168.237 63.3141 168.24 63.3215C168.242 63.3252 168.244 63.3284 168.245 63.3304C168.246 63.3314 168.246 63.3323 168.246 63.3329C168.247 63.3336 168.247 63.3337 168.247 63.334C168.248 63.3353 168.245 63.3311 168.242 63.3254C168.239 63.3192 168.234 63.3087 168.227 63.2954C168.22 63.282 168.211 63.2645 168.201 63.2439C168.191 63.2232 168.178 63.1984 168.165 63.1703L173.573 60.5716ZM173.55 60.5257L168.951 56.6713C168.87 56.7685 168.798 56.8606 168.735 56.9452C168.672 57.0299 168.617 57.109 168.569 57.1806C168.52 57.2522 168.478 57.3182 168.442 57.3768C168.406 57.4354 168.375 57.4886 168.348 57.5346C168.322 57.5806 168.299 57.6214 168.281 57.6552C168.262 57.689 168.247 57.7181 168.235 57.7402C168.224 57.7622 168.214 57.78 168.209 57.7907C168.206 57.7961 168.204 57.8005 168.203 57.8032C168.201 57.8056 168.2 57.8077 168.2 57.8074C168.2 57.8074 168.2 57.8074 168.2 57.8074C168.2 57.8073 168.2 57.8073 168.2 57.8073C168.201 57.8073 168.201 57.8072 168.201 57.8071C168.201 57.8069 168.201 57.8067 168.201 57.8063C168.201 57.8056 168.202 57.8045 168.203 57.8032C168.204 57.8005 168.206 57.7961 168.209 57.7906C168.215 57.7799 168.224 57.7621 168.235 57.7401C168.247 57.7179 168.262 57.6889 168.281 57.655C168.299 57.6211 168.322 57.5803 168.349 57.5342C168.375 57.4882 168.406 57.435 168.443 57.3763C168.479 57.3177 168.521 57.2516 168.569 57.18C168.618 57.1084 168.673 57.0292 168.736 56.9445C168.799 56.8598 168.872 56.7677 168.953 56.6706L173.547 60.5306L178.14 64.3907C178.222 64.2934 178.294 64.2011 178.357 64.1162C178.421 64.0314 178.476 63.952 178.525 63.8802C178.573 63.8083 178.615 63.7421 178.652 63.6832C178.688 63.6244 178.72 63.571 178.746 63.5247C178.773 63.4785 178.796 63.4375 178.814 63.4033C178.833 63.3693 178.848 63.34 178.86 63.3176C178.872 63.2954 178.881 63.2773 178.887 63.2664C178.89 63.2609 178.892 63.2563 178.893 63.2535C178.894 63.2521 178.895 63.2509 178.895 63.2502C178.895 63.2499 178.895 63.2495 178.896 63.2494C178.896 63.2492 178.896 63.249 178.896 63.249C178.896 63.2485 178.895 63.2505 178.894 63.2528C178.892 63.2554 178.89 63.2597 178.888 63.2651C178.882 63.2755 178.873 63.2931 178.862 63.3149C178.85 63.3368 178.835 63.3656 178.817 63.3992C178.798 63.4328 178.776 63.4734 178.749 63.5192C178.723 63.565 178.692 63.6179 178.656 63.6763C178.62 63.7347 178.578 63.8006 178.53 63.872C178.482 63.9434 178.427 64.0223 178.364 64.1068C178.301 64.1913 178.229 64.2832 178.148 64.3801L173.55 60.5257ZM173.547 60.5306L168.953 56.6702C169.244 56.3244 169.658 56.1076 170.105 56.0643L170.682 62.0365L171.26 68.0086C173.937 67.7498 176.408 66.452 178.14 64.3911L173.547 60.5306ZM170.682 62.0365L170.036 56.0714C161.289 57.0193 152.832 59.6622 145.131 63.8272L147.985 69.1048L150.839 74.3825C157.176 70.9554 164.133 68.7813 171.329 68.0016L170.682 62.0365ZM147.985 69.1048L143.217 72.747C144.078 73.8739 144.782 75.1104 145.307 76.4247L150.879 74.1986L156.45 71.9725C155.516 69.6342 154.269 67.4465 152.753 65.4627L147.985 69.1048ZM150.879 74.1986L145.307 76.4246C146.107 78.4269 146.483 80.5747 146.41 82.7311L152.407 82.932L158.404 83.1329C158.531 79.3186 157.867 75.5179 156.45 71.9726L150.879 74.1986ZM152.407 82.932L146.409 82.7877C146.264 88.8222 147.045 94.843 148.726 100.64L154.489 98.9691L160.252 97.2982C158.912 92.6796 158.29 87.8832 158.405 83.0763L152.407 82.932ZM154.489 98.9691L148.68 100.47C148.705 100.568 148.719 100.628 148.762 100.799L154.582 99.3382L160.401 97.8775C160.382 97.8025 160.336 97.6161 160.298 97.4686L154.489 98.9691ZM154.582 99.3382L148.773 100.841C153.698 119.885 146.122 141.218 130.198 157.142L134.44 161.385L138.683 165.628C156.799 147.512 166.64 121.998 160.391 97.8358L154.582 99.3382ZM134.44 161.385L130.198 157.142C114.178 173.162 92.7371 180.727 73.6175 175.599L72.0632 181.394L70.509 187.189C94.799 193.704 120.468 183.843 138.683 165.628L134.44 161.385ZM72.0632 181.394L73.729 175.63C67.9334 173.955 61.9162 173.175 55.8862 173.314L56.0251 179.313L56.1641 185.311C60.9753 185.2 65.7752 185.822 70.3974 187.158L72.0632 181.394ZM56.0251 179.313L55.8242 173.316C53.6696 173.388 51.5224 173.012 49.5187 172.212L47.2927 177.784L45.0668 183.355C48.6105 184.771 52.4103 185.437 56.2261 185.309L56.0251 179.313ZM47.2927 177.784L49.5188 172.212C47.515 171.411 45.6993 170.204 44.1875 168.667L39.9099 172.874L35.6323 177.082C38.3096 179.804 41.5228 181.939 45.0667 183.355L47.2927 177.784ZM39.9099 172.874L44.1531 168.632L40.5682 165.046L36.3249 169.288L32.0817 173.531L35.6667 177.116L39.9099 172.874ZM36.3249 169.288L40.5386 165.017C38.9972 163.497 37.7852 161.675 36.9781 159.667L31.4109 161.905L25.8437 164.142C27.2649 167.678 29.3986 170.884 32.1113 173.56L36.3249 169.288ZM31.4109 161.905L36.9781 159.667C36.1709 157.659 35.7856 155.506 35.846 153.342L29.8484 153.174L23.8507 153.007C23.7444 156.816 24.4225 160.606 25.8437 164.142L31.4109 161.905ZM29.8484 153.174L35.8463 153.333C36.0061 147.3 35.2381 141.278 33.5709 135.478L27.8044 137.136L22.038 138.794C23.3662 143.414 23.9778 148.211 23.8505 153.015L29.8484 153.174ZM27.8044 137.136L33.5996 135.582C33.2654 134.336 32.9852 133.079 32.7567 131.814L26.8523 132.881L20.9479 133.948C21.2344 135.533 21.5868 137.115 22.0092 138.69L27.8044 137.136ZM26.8523 132.881L20.9611 131.744C20.9561 131.769 20.9521 131.791 20.9493 131.806C20.9467 131.82 20.9444 131.833 20.9438 131.837C20.9426 131.843 20.9433 131.839 20.9441 131.835C20.9451 131.829 20.9474 131.817 20.9505 131.801L26.8425 132.934L32.7345 134.067C32.7393 134.042 32.7432 134.021 32.7459 134.007C32.7483 133.994 32.7506 133.981 32.751 133.979C32.752 133.973 32.7513 133.977 32.7503 133.983C32.7491 133.989 32.7467 134.002 32.7435 134.019L26.8523 132.881ZM26.8425 132.934L32.7472 131.868C32.2651 129.197 32.0218 126.493 32.0025 123.773L26.0027 123.816L20.0028 123.858C20.0268 127.239 20.3295 130.628 20.9379 133.999L26.8425 132.934ZM26.0027 123.816L32.0024 123.758C32.0017 123.687 32.0025 123.715 32.0016 123.569L26.0017 123.604L20.0018 123.639C20.0019 123.663 20.002 123.685 20.0021 123.728C20.0022 123.766 20.0024 123.817 20.003 123.874L26.0027 123.816ZM26.0017 123.604L32.0017 123.584C32.001 123.391 32.0005 123.237 32.0016 123.086L26.0017 123.045L20.0018 123.004C20.0003 123.226 20.0012 123.444 20.0017 123.623L26.0017 123.604ZM26.0017 123.045L32.0016 123.071C32.0674 107.486 39.4757 91.3995 52.0511 78.8522L47.8132 74.6048L43.5753 70.3575C29.1643 84.7363 20.0831 103.732 20.0018 123.02L26.0017 123.045ZM47.8132 74.6048L52.0511 78.8523C64.6471 66.2846 80.6554 58.8685 96.1728 58.7972L96.1453 52.7972L96.1177 46.7973C76.8732 46.8858 57.9702 55.995 43.5754 70.3574L47.8132 74.6048ZM96.1453 52.7972L100.215 48.3882C97.151 45.5605 94.6533 42.1661 92.8651 38.3853L87.4412 40.9506L82.0172 43.5158C84.4652 48.6917 87.8838 53.3372 92.0759 57.2063L96.1453 52.7972ZM87.4412 40.9506L92.8651 38.3853C90.744 33.9004 89.6763 28.9892 89.7433 24.0277L83.7439 23.9466L77.7444 23.8656C77.6528 30.6552 79.1137 37.3768 82.0172 43.5158L87.4412 40.9506ZM83.7439 23.9466L89.7428 23.8342C89.7497 24.2025 89.6477 24.5665 89.4472 24.8798L84.3933 21.6459L79.3394 18.4119C78.2611 20.0971 77.7075 22.0624 77.7449 24.059L83.7439 23.9466ZM84.3933 21.6459L89.4469 24.8802C89.2984 25.1123 89.1146 25.2926 88.9219 25.4233L85.5544 20.4574L82.187 15.4915C81.0722 16.2474 80.0944 17.2324 79.3397 18.4115L84.3933 21.6459ZM85.5544 20.4574L88.9225 25.4229C88.8662 25.4611 88.7661 25.5226 88.6218 25.5858L86.2117 20.0912L83.8015 14.5965C83.1948 14.8626 82.6567 15.1728 82.1863 15.4919L85.5544 20.4574Z" fill="white" mask="url(#path-1-outside-1_1062_19218)"/>
<path d="M154.488 98.9695C152.978 93.7615 152.276 88.3526 152.406 82.9317C152.506 79.9464 151.986 76.9728 150.878 74.199C149.769 71.4251 148.098 68.9114 145.968 66.8169L142.344 63.2315C140.26 61.0992 137.753 59.4252 134.985 58.3166C132.217 57.208 129.248 56.6892 126.268 56.7933C120.828 56.8834 115.407 56.1424 110.192 54.5958C88.5252 48.7744 64.9698 57.4872 47.814 74.6044C30.6583 91.7216 21.984 115.431 27.8054 137.136C29.3031 142.346 29.9922 147.755 29.8487 153.174C29.7653 156.161 30.2972 159.133 31.4115 161.905C32.5257 164.677 34.1984 167.191 36.3255 169.289L39.9108 172.874C42.0054 175.004 44.5191 176.675 47.2929 177.784C50.0667 178.892 53.0403 179.412 56.0257 179.312C61.4463 179.187 66.8544 179.889 72.0634 181.394C93.7683 187.216 117.324 178.503 134.441 161.386C151.558 144.268 160.271 120.674 154.488 98.9695Z" fill="#FFE500"/>
<path d="M47.8156 93.9962C64.9714 76.879 88.5268 68.1662 110.193 73.9876C115.415 75.4951 120.836 76.1971 126.269 76.0694C129.25 75.9653 132.219 76.4842 134.987 77.5928C137.755 78.7014 140.261 80.3753 142.346 82.5077L145.97 86.093C148.099 88.1876 149.771 90.7013 150.879 93.4751C151.987 96.2489 152.508 99.2225 152.408 102.208C152.28 107.629 152.982 113.037 154.49 118.246C154.837 119.633 155.145 121.021 155.415 122.448C156.786 114.645 156.471 106.64 154.49 98.9695C152.98 93.7615 152.278 88.3526 152.408 82.9317C152.508 79.9464 151.987 76.9728 150.879 74.199C149.771 71.4251 148.099 68.9114 145.97 66.8169L142.346 63.2315C140.261 61.0992 137.755 59.4252 134.987 58.3166C132.219 57.208 129.25 56.6892 126.269 56.7933C120.83 56.8834 115.409 56.1424 110.193 54.5958C88.5268 48.7744 64.9714 57.4872 47.8156 74.6044C31.8936 90.7578 23.1422 112.424 26.8432 132.934C29.6931 118.117 37.0121 104.529 47.8156 93.9962Z" fill="#FFF48C"/>
<path d="M137.026 66.1617C143.864 58.5025 152.641 52.8289 162.432 49.7384C171.993 47.1554 173.998 52.9768 174.538 57.4489C174.624 58.566 174.268 59.6723 173.547 60.5302C172.826 61.388 171.798 61.9288 170.682 62.0366C160.715 63.1167 151.161 66.6101 142.848 72.2144C137.643 72.5999 137.026 66.1617 137.026 66.1617Z" fill="#DEBB7E"/>
<path d="M139.417 71.0576C145.858 64.577 153.805 59.7951 162.548 57.1402C169.102 55.4054 172.147 57.6028 173.574 60.5714C174.336 59.7008 174.724 58.5648 174.653 57.4101C174.306 53.0151 172.109 47.1937 162.548 49.6996C152.711 52.7822 143.891 58.4708 137.026 66.1614C137.252 68.0153 138.093 69.7397 139.417 71.0576Z" fill="#F0D5A8"/>
<path d="M137.216 66.1616C139.475 59.5259 139.694 52.3656 137.846 45.6041C135.997 38.8425 132.166 32.7897 126.845 28.2261C121.722 22.8693 115.077 19.216 107.809 17.7611C100.541 16.3061 93.0014 17.1196 86.2111 20.0916C85.4651 20.4188 84.8328 20.9595 84.3937 21.6456C83.9546 22.3317 83.7284 23.1324 83.7437 23.9468C83.6644 29.8224 84.9292 35.6384 87.4415 40.9504C89.9539 46.2623 93.6472 50.9297 98.2394 54.5959C113.468 66.1616 129.043 52.8225 137.216 66.1616Z" fill="#7AC93F"/>
<path d="M86.2122 31.4643C92.9895 28.4846 100.517 27.6522 107.781 29.0789C115.046 30.5056 121.699 34.1231 126.846 39.4447C133.059 44.9726 137.206 52.4505 138.605 60.6484C139.607 54.6599 139.052 48.5143 136.993 42.8023C134.934 37.0904 131.439 32.0043 126.846 28.0332C121.701 22.7086 115.045 19.0918 107.778 17.6715C100.511 16.2512 92.9836 17.0959 86.2122 20.0914C85.4663 20.4186 84.8339 20.9594 84.3948 21.6454C83.9557 22.3315 83.7296 23.1322 83.7449 23.9466C83.7802 26.8882 84.103 29.8193 84.7087 32.698C85.1044 32.1728 85.6199 31.7498 86.2122 31.4643Z" fill="#9FE868"/>
<path d="M66.5 120C73.9559 120 80 113.956 80 106.5C80 99.0443 73.9559 93.0001 66.5 93.0001C59.0442 93.0001 53 99.0443 53 106.5C53 113.956 59.0442 120 66.5 120Z" fill="white"/>
<path d="M66.2908 114.691C70.7607 114.691 74.3843 111.067 74.3843 106.598C74.3843 102.128 70.7607 98.504 66.2908 98.504C61.8209 98.504 58.1973 102.128 58.1973 106.598C58.1973 111.067 61.8209 114.691 66.2908 114.691Z" fill="black"/>
<path d="M130.5 136C137.956 136 144 129.956 144 122.5C144 115.044 137.956 109 130.5 109C123.044 109 117 115.044 117 122.5C117 129.956 123.044 136 130.5 136Z" fill="white"/>
<path d="M130.291 130.691C134.761 130.691 138.384 127.067 138.384 122.598C138.384 118.128 134.761 114.504 130.291 114.504C125.821 114.504 122.197 118.128 122.197 122.598C122.197 127.067 125.821 130.691 130.291 130.691Z" fill="black"/>
<path d="M107.14 133.274C104.755 138.842 94.5964 144.696 88.9401 142.282C83.2837 139.867 80.4911 128.492 82.8707 122.937C85.2552 117.369 90.874 114.432 99.3099 118.027C107.848 121.664 109.512 127.701 107.14 133.274Z" fill="#FFFDEB"/>
</svg>
