<svg width="48" height="48" viewBox="0 0 48 48" fill="none" xmlns="http://www.w3.org/2000/svg">
<mask id="mask0_709_990" style="mask-type:alpha" maskUnits="userSpaceOnUse" x="0" y="0" width="48" height="48">
<circle cx="24" cy="24" r="24" fill="#D9D9D9"/>
</mask>
<g mask="url(#mask0_709_990)">
<mask id="path-2-outside-1_709_990" maskUnits="userSpaceOnUse" x="9.59039" y="8.4122" width="30.4772" height="32.2058" fill="black">
<rect fill="white" x="9.59039" y="8.4122" width="30.4772" height="32.2058"/>
<path d="M26.2503 12.095C32.4543 12.8926 36.8361 18.5723 36.038 24.7804C35.607 28.1324 33.7523 30.9503 31.1619 32.7108C31.2343 32.8392 32.906 35.8206 32.4608 36.5542C32.0053 37.3036 27.409 37.1621 23.382 36.6445C19.355 36.1268 14.143 35.1869 14.1795 34.2042C14.2156 33.2375 16.4773 31.1674 16.5518 31.0994C14.3156 28.7163 13.1222 25.3882 13.5715 21.8924C14.3696 15.6842 20.0462 11.2974 26.2503 12.095Z"/>
</mask>
<path d="M26.2503 12.095C32.4543 12.8926 36.8361 18.5723 36.038 24.7804C35.607 28.1324 33.7523 30.9503 31.1619 32.7108C31.2343 32.8392 32.906 35.8206 32.4608 36.5542C32.0053 37.3036 27.409 37.1621 23.382 36.6445C19.355 36.1268 14.143 35.1869 14.1795 34.2042C14.2156 33.2375 16.4773 31.1674 16.5518 31.0994C14.3156 28.7163 13.1222 25.3882 13.5715 21.8924C14.3696 15.6842 20.0462 11.2974 26.2503 12.095Z" fill="#B59AE1"/>
<path d="M26.2503 12.095L26.4416 10.6072L26.4416 10.6072L26.2503 12.095ZM36.038 24.7804L37.5258 24.9717L37.5258 24.9717L36.038 24.7804ZM31.1619 32.7108L30.3187 31.4701L29.1778 32.2456L29.8552 33.4473L31.1619 32.7108ZM32.4608 36.5542L33.7425 37.3333L33.7431 37.3325L32.4608 36.5542ZM23.382 36.6445L23.1907 38.1322L23.1907 38.1322L23.382 36.6445ZM14.1795 34.2042L12.6806 34.1482L12.6806 34.1484L14.1795 34.2042ZM16.5518 31.0994L17.5624 32.2079L18.6869 31.1827L17.6456 30.073L16.5518 31.0994ZM13.5715 21.8924L12.0837 21.7011L12.0837 21.7011L13.5715 21.8924ZM26.2503 12.095L26.059 13.5827C31.4402 14.2746 35.2428 19.2016 34.5502 24.5892L36.038 24.7804L37.5258 24.9717C38.4293 17.943 33.4683 11.5107 26.4416 10.6072L26.2503 12.095ZM36.038 24.7804L34.5502 24.5892C34.1764 27.4967 32.5698 29.9403 30.3187 31.4701L31.1619 32.7108L32.005 33.9514C34.9349 31.9602 37.0377 28.7682 37.5258 24.9717L36.038 24.7804ZM31.1619 32.7108L29.8552 33.4473C29.8839 33.4983 30.2899 34.2226 30.6301 35.0042C30.8028 35.401 30.9342 35.7577 30.9998 36.0228C31.0151 36.0848 31.0247 36.1334 31.0303 36.1693C31.0361 36.2062 31.0362 36.2205 31.0361 36.2157C31.036 36.2127 31.035 36.1711 31.0484 36.1028C31.0617 36.0348 31.0946 35.9141 31.1784 35.776L32.4608 36.5542L33.7431 37.3325C34.0119 36.8895 34.0413 36.43 34.0354 36.1517C34.0289 35.8479 33.974 35.5527 33.9118 35.3018C33.787 34.7974 33.5794 34.2632 33.3808 33.8069C32.9783 32.8823 32.5122 32.0516 32.4686 31.9742L31.1619 32.7108ZM32.4608 36.5542L31.179 35.7751C31.3914 35.4255 31.6709 35.355 31.5755 35.3911C31.5376 35.4054 31.4208 35.4397 31.1929 35.474C30.7452 35.5414 30.0895 35.5776 29.2663 35.5745C27.6342 35.5684 25.5423 35.4098 23.5732 35.1567L23.382 36.6445L23.1907 38.1322C25.2486 38.3968 27.4684 38.5678 29.2551 38.5745C30.1412 38.5778 30.9717 38.5412 31.6397 38.4405C31.9698 38.3908 32.3182 38.3173 32.6346 38.1979C32.8934 38.1002 33.4162 37.8702 33.7425 37.3333L32.4608 36.5542ZM23.382 36.6445L23.5732 35.1567C21.5804 34.9005 19.3285 34.5438 17.5994 34.1383C16.7235 33.9329 16.0513 33.7307 15.6271 33.5488C15.4066 33.4542 15.3392 33.4008 15.3519 33.4113C15.362 33.4196 15.4368 33.4813 15.5137 33.6076C15.5974 33.745 15.6893 33.971 15.6785 34.2599L14.1795 34.2042L12.6806 34.1484C12.6496 34.9809 13.1787 35.5083 13.4467 35.7286C13.7532 35.9806 14.1184 36.166 14.4443 36.3058C15.113 36.5926 15.9886 36.842 16.9145 37.0591C18.7889 37.4987 21.1566 37.8707 23.1907 38.1322L23.382 36.6445ZM14.1795 34.2042L15.6785 34.2601C15.6708 34.467 15.6007 34.4598 15.8073 34.1464C15.9679 33.9029 16.202 33.6133 16.4687 33.3154C16.9978 32.7246 17.5384 32.2298 17.5624 32.2079L16.5518 31.0994L15.5412 29.991C15.4906 30.0371 14.8632 30.6113 14.2338 31.3142C13.9213 31.6632 13.5786 32.0766 13.3026 32.4952C13.0727 32.844 12.7064 33.458 12.6806 34.1482L14.1795 34.2042ZM16.5518 31.0994L17.6456 30.073C15.7029 28.0027 14.6694 25.1166 15.0593 22.0836L13.5715 21.8924L12.0837 21.7011C11.5749 25.6599 12.9282 29.4298 15.4579 32.1258L16.5518 31.0994ZM13.5715 21.8924L15.0593 22.0836C15.7518 16.6961 20.6776 12.891 26.0591 13.5827L26.2503 12.095L26.4416 10.6072C19.4148 9.70393 12.9873 14.6722 12.0837 21.7011L13.5715 21.8924Z" fill="white" mask="url(#path-2-outside-1_709_990)"/>
<path d="M23.3591 34.5769C29.5632 35.3744 35.2395 30.9882 36.0376 24.78C36.8357 18.5718 32.4532 12.8925 26.2491 12.095C20.045 11.2974 14.3687 15.6836 13.5706 21.8918C12.7725 28.1 17.155 33.7793 23.3591 34.5769Z" fill="#BCB6FF"/>
<path d="M33.0325 27.7178C31.7761 29.5664 30.0562 29.7378 29.8094 29.2203C29.6001 28.7842 30.9953 28.0135 31.8116 26.8166C32.6279 25.6197 33.1465 24.0592 33.619 24.1606C34.6197 24.3754 33.8488 26.5209 33.0325 27.7178Z" fill="#E8E7FF"/>
<path d="M29.5145 30.135C29.4755 30.4387 28.9606 30.7602 28.6572 30.7211C28.3537 30.6821 28.1632 30.3968 28.2022 30.0931C28.2412 29.7894 28.7666 29.4789 29.0701 29.5179C29.3736 29.5569 29.5562 29.8292 29.5172 30.1329L29.5145 30.135Z" fill="#E8E7FF"/>
<path d="M23.382 36.6439C19.355 36.1262 14.1434 35.1869 14.1799 34.2042C14.2165 33.2214 16.5543 31.0981 16.5543 31.0981C23.7164 33.7958 29.2597 33.3145 31.1598 32.7063C31.1598 32.7063 32.916 35.8047 32.4605 36.5541C32.005 37.3035 27.4091 37.1616 23.382 36.6439Z" fill="#7846C8"/>
</g>
</svg>
