<svg width="200" height="200" viewBox="0 0 200 200" fill="none" xmlns="http://www.w3.org/2000/svg">
<mask id="path-1-outside-1_1062_18617" maskUnits="userSpaceOnUse" x="20.2188" y="14" width="158" height="173" fill="black">
<rect fill="white" x="20.2188" y="14" width="158" height="173"/>
<path d="M86.0332 55.5078C86.1707 55.5301 104.046 55.5392 104.158 55.5215L104.682 60.5146H104.681C105.168 64.9978 105.795 70.4115 106.582 76.1738H106.583C107.245 81.0281 108.024 86.1071 108.928 91.0869H108.934C108.979 91.3393 109.027 91.5912 109.073 91.8428C109.942 91.9244 110.854 92.1487 111.782 92.5352L120.462 96.1504C120.684 83.748 129.571 74.5576 140.505 74.5576C151.578 74.5577 160.548 83.9837 160.548 96.626C160.548 98.0032 160.146 100.762 159.95 100.942C160.367 101.2 160.562 101.365 160.565 101.367C167.523 106.349 171.954 113.868 171.954 122.281L171.94 122.276C171.94 127.637 170.142 132.41 167.035 136.329C161.624 143.159 152.243 147.393 141.513 147.64C141.175 147.649 140.838 147.653 140.5 147.653C140.162 147.653 139.82 147.653 139.482 147.64C138.743 147.622 138.01 147.584 137.284 147.529L135.01 153.401C142.313 162.5 151.434 171.858 162.72 180.4H136.648C127.222 174.037 115.105 169.768 101.68 168.689V180.4H88.2568V168.688C74.8274 169.766 62.7094 174.035 53.2803 180.4H27.2188C50.8799 162.514 65.0023 141.133 72.7988 125.963H72.3955C72.0377 125.963 70.0911 124.411 69.7646 123.815C69.4914 123.318 68.5791 107.923 68.5791 107.923C68.5569 107.552 68.7266 107.189 69.0352 106.961L72.9502 104.089C73.1516 103.941 73.4022 103.86 73.6572 103.86H78.5156C79.5345 99.8653 80.452 95.5357 81.2598 91.0869H81.2588C82.1626 86.1071 82.9411 81.0281 83.6035 76.1738H83.6025C84.39 70.4112 85.0211 64.997 85.5039 60.5137H85.5049C85.7063 58.6572 85.8809 57.0021 86.0332 55.5078ZM81.6611 137.945C78.0103 144.442 73.4327 151.627 67.7061 159.05C74.1775 157.075 81.0678 155.75 88.2568 155.236V137.945H81.6611ZM101.68 155.235C108.866 155.749 115.753 157.072 122.224 159.05C119.881 156.013 117.732 153.016 115.759 150.09L114.203 151.913C113.519 152.714 112.303 152.81 111.502 152.126L106.436 147.802C105.377 146.898 105.25 145.29 106.153 144.231C106.606 143.701 107.234 143.408 107.88 143.354C108.53 143.302 109.193 143.496 109.724 143.949L112.616 147.673L113.493 146.645C111.57 143.643 109.834 140.732 108.269 137.945H101.68V155.235ZM129.529 146.175C130.379 147.362 131.26 148.559 132.172 149.764L133.234 147.02C131.968 146.795 130.731 146.513 129.529 146.175ZM97.1797 20C97.6275 20 97.9941 20.3495 97.9941 20.7832L98.9111 37.5977H103.829C105.117 37.5979 106.159 38.5993 106.159 39.834V45.7314H106.164V51.6279C106.164 52.8142 105.198 53.7828 103.983 53.8574C104.042 54.4158 104.104 54.9818 104.159 55.5205C104.047 55.5382 86.1683 55.5291 86.0342 55.5068C86.0896 54.9716 86.1497 54.4088 86.208 53.8535C85.0275 53.7428 84.1064 52.7885 84.1064 51.6279V39.834C84.1065 38.5992 85.1536 37.5977 86.4375 37.5977H91.6543L92.5713 20.7832C92.5713 20.3495 92.9339 20 93.3857 20H97.1797Z"/>
</mask>
<path d="M86.0332 55.5078C86.1707 55.5301 104.046 55.5392 104.158 55.5215L104.682 60.5146H104.681C105.168 64.9978 105.795 70.4115 106.582 76.1738H106.583C107.245 81.0281 108.024 86.1071 108.928 91.0869H108.934C108.979 91.3393 109.027 91.5912 109.073 91.8428C109.942 91.9244 110.854 92.1487 111.782 92.5352L120.462 96.1504C120.684 83.748 129.571 74.5576 140.505 74.5576C151.578 74.5577 160.548 83.9837 160.548 96.626C160.548 98.0032 160.146 100.762 159.95 100.942C160.367 101.2 160.562 101.365 160.565 101.367C167.523 106.349 171.954 113.868 171.954 122.281L171.94 122.276C171.94 127.637 170.142 132.41 167.035 136.329C161.624 143.159 152.243 147.393 141.513 147.64C141.175 147.649 140.838 147.653 140.5 147.653C140.162 147.653 139.82 147.653 139.482 147.64C138.743 147.622 138.01 147.584 137.284 147.529L135.01 153.401C142.313 162.5 151.434 171.858 162.72 180.4H136.648C127.222 174.037 115.105 169.768 101.68 168.689V180.4H88.2568V168.688C74.8274 169.766 62.7094 174.035 53.2803 180.4H27.2188C50.8799 162.514 65.0023 141.133 72.7988 125.963H72.3955C72.0377 125.963 70.0911 124.411 69.7646 123.815C69.4914 123.318 68.5791 107.923 68.5791 107.923C68.5569 107.552 68.7266 107.189 69.0352 106.961L72.9502 104.089C73.1516 103.941 73.4022 103.86 73.6572 103.86H78.5156C79.5345 99.8653 80.452 95.5357 81.2598 91.0869H81.2588C82.1626 86.1071 82.9411 81.0281 83.6035 76.1738H83.6025C84.39 70.4112 85.0211 64.997 85.5039 60.5137H85.5049C85.7063 58.6572 85.8809 57.0021 86.0332 55.5078ZM81.6611 137.945C78.0103 144.442 73.4327 151.627 67.7061 159.05C74.1775 157.075 81.0678 155.75 88.2568 155.236V137.945H81.6611ZM101.68 155.235C108.866 155.749 115.753 157.072 122.224 159.05C119.881 156.013 117.732 153.016 115.759 150.09L114.203 151.913C113.519 152.714 112.303 152.81 111.502 152.126L106.436 147.802C105.377 146.898 105.25 145.29 106.153 144.231C106.606 143.701 107.234 143.408 107.88 143.354C108.53 143.302 109.193 143.496 109.724 143.949L112.616 147.673L113.493 146.645C111.57 143.643 109.834 140.732 108.269 137.945H101.68V155.235ZM129.529 146.175C130.379 147.362 131.26 148.559 132.172 149.764L133.234 147.02C131.968 146.795 130.731 146.513 129.529 146.175ZM97.1797 20C97.6275 20 97.9941 20.3495 97.9941 20.7832L98.9111 37.5977H103.829C105.117 37.5979 106.159 38.5993 106.159 39.834V45.7314H106.164V51.6279C106.164 52.8142 105.198 53.7828 103.983 53.8574C104.042 54.4158 104.104 54.9818 104.159 55.5205C104.047 55.5382 86.1683 55.5291 86.0342 55.5068C86.0896 54.9716 86.1497 54.4088 86.208 53.8535C85.0275 53.7428 84.1064 52.7885 84.1064 51.6279V39.834C84.1065 38.5992 85.1536 37.5977 86.4375 37.5977H91.6543L92.5713 20.7832C92.5713 20.3495 92.9339 20 93.3857 20H97.1797Z" fill="#276286"/>
<path d="M86.0332 55.5078L86.9929 49.5851C85.3613 49.3207 83.693 49.7411 82.3816 50.747C81.0701 51.7529 80.2317 53.2552 80.0641 54.8995L86.0332 55.5078ZM104.158 55.5215L110.126 54.8959C109.954 53.2587 109.117 51.7638 107.811 50.7616C106.505 49.7593 104.845 49.3377 103.219 49.5955L104.158 55.5215ZM104.682 60.5146V66.5146C106.382 66.5146 108.002 65.7934 109.14 64.53C110.278 63.2667 110.826 61.58 110.649 59.8891L104.682 60.5146ZM104.681 60.5146V54.5146C102.976 54.5146 101.353 55.2394 100.214 56.508C99.0764 57.7767 98.5315 59.4694 98.7159 61.1637L104.681 60.5146ZM106.582 76.1738L100.637 76.9862C101.043 79.9583 103.582 82.1738 106.582 82.1738V76.1738ZM106.583 76.1738L112.528 75.3626C112.122 72.3899 109.583 70.1738 106.583 70.1738V76.1738ZM108.928 91.0869L103.024 92.1584C103.542 95.0122 106.027 97.0869 108.928 97.0869V91.0869ZM108.934 91.0869L114.837 90.015C114.319 87.1614 111.834 85.0869 108.934 85.0869V91.0869ZM109.073 91.8428L103.173 92.9332C103.661 95.5715 105.841 97.5653 108.512 97.8164L109.073 91.8428ZM111.782 92.5352L109.475 98.0737L109.475 98.0739L111.782 92.5352ZM120.462 96.1504L118.155 101.689C119.989 102.453 122.083 102.26 123.746 101.172C125.409 100.085 126.425 98.2445 126.461 96.2578L120.462 96.1504ZM140.505 74.5576L140.505 68.5576H140.505V74.5576ZM160.548 96.626L166.548 96.626L166.548 96.6259L160.548 96.626ZM159.95 100.942L155.893 96.5222C154.51 97.792 153.8 99.636 153.977 101.505C154.153 103.375 155.194 105.054 156.79 106.043L159.95 100.942ZM160.565 101.367L156.719 105.972C156.833 106.067 156.951 106.159 157.072 106.245L160.565 101.367ZM171.954 122.281L169.936 127.932C171.774 128.588 173.815 128.31 175.41 127.186C177.005 126.062 177.954 124.232 177.954 122.281H171.954ZM171.94 122.276L173.958 116.626C172.121 115.97 170.079 116.248 168.484 117.372C166.889 118.496 165.94 120.325 165.94 122.276H171.94ZM167.035 136.329L162.333 132.602L162.332 132.603L167.035 136.329ZM141.513 147.64L141.375 141.641C141.367 141.641 141.359 141.642 141.351 141.642L141.513 147.64ZM140.5 147.653V153.653V147.653ZM139.482 147.64L139.725 141.645C139.691 141.643 139.657 141.642 139.623 141.641L139.482 147.64ZM137.284 147.529L137.735 141.546C135.099 141.348 132.644 142.897 131.689 145.362L137.284 147.529ZM135.01 153.401L129.415 151.234C128.642 153.231 128.991 155.488 130.331 157.157L135.01 153.401ZM162.72 180.4V186.4C165.297 186.4 167.587 184.754 168.408 182.31C169.228 179.867 168.396 177.172 166.341 175.616L162.72 180.4ZM136.648 180.4L133.291 185.373C134.283 186.043 135.452 186.4 136.648 186.4V180.4ZM101.68 168.689L102.16 162.709C100.491 162.575 98.8413 163.144 97.6105 164.28C96.3797 165.416 95.6797 167.015 95.6797 168.689H101.68ZM101.68 180.4V186.4C104.993 186.4 107.68 183.714 107.68 180.4H101.68ZM88.2568 180.4H82.2568C82.2568 183.714 84.9431 186.4 88.2568 186.4V180.4ZM88.2568 168.688H94.2568C94.2568 167.014 93.5569 165.415 92.3263 164.279C91.0957 163.144 89.4464 162.574 87.7771 162.708L88.2568 168.688ZM53.2803 180.4V186.4C54.4767 186.4 55.6458 186.043 56.6375 185.373L53.2803 180.4ZM27.2188 180.4L23.6006 175.614C21.5437 177.169 20.7103 179.864 21.5303 182.309C22.3502 184.753 24.6403 186.4 27.2187 186.4L27.2188 180.4ZM72.7988 125.963L78.1353 128.706C79.0912 126.846 79.0097 124.622 77.9202 122.837C76.8306 121.052 74.8901 119.963 72.7988 119.963V125.963ZM69.7646 123.815L75.0253 120.93L75.0225 120.925L69.7646 123.815ZM68.5791 107.923L74.5686 107.568L74.5684 107.565L68.5791 107.923ZM69.0352 106.961L65.4861 102.123C65.4798 102.128 65.4735 102.132 65.4671 102.137L69.0352 106.961ZM72.9502 104.089L76.4992 108.927L76.4993 108.927L72.9502 104.089ZM78.5156 103.86V109.86C81.2583 109.86 83.6518 108.001 84.3295 105.343L78.5156 103.86ZM81.2598 91.0869L87.1632 92.1589C87.481 90.4086 87.0058 88.6075 85.8658 87.2419C84.7259 85.8763 83.0387 85.0869 81.2598 85.0869V91.0869ZM81.2588 91.0869L75.3552 90.0154C75.0376 91.7656 75.5129 93.5666 76.6529 94.9321C77.7928 96.2976 79.48 97.0869 81.2588 97.0869V91.0869ZM83.6035 76.1738L89.5484 76.9851C89.7827 75.2682 89.2633 73.5339 88.1239 72.2284C86.9845 70.923 85.3363 70.1738 83.6035 70.1738V76.1738ZM83.6025 76.1738L77.6578 75.3615C77.4232 77.0785 77.9424 78.8131 79.0818 80.1188C80.2212 81.4245 81.8696 82.1738 83.6025 82.1738V76.1738ZM85.5039 60.5137V54.5137C82.4389 54.5137 79.8666 56.8238 79.5384 59.8712L85.5039 60.5137ZM85.5049 60.5137V66.5137C88.5682 66.5137 91.1396 64.2061 91.4699 61.1607L85.5049 60.5137ZM81.6611 137.945V131.945C79.4926 131.945 77.4929 133.115 76.4305 135.006L81.6611 137.945ZM67.7061 159.05L62.9555 155.385C61.3604 157.452 61.2857 160.314 62.7708 162.462C64.2559 164.61 66.9597 165.551 69.4573 164.789L67.7061 159.05ZM88.2568 155.236L88.6847 161.221C91.8244 160.997 94.2568 158.384 94.2568 155.236H88.2568ZM88.2568 137.945H94.2568C94.2568 134.632 91.5705 131.945 88.2568 131.945V137.945ZM101.68 155.235H95.6797C95.6797 158.383 98.1124 160.996 101.252 161.22L101.68 155.235ZM122.224 159.05L120.47 164.788C122.968 165.551 125.672 164.611 127.158 162.463C128.644 160.315 128.57 157.453 126.974 155.385L122.224 159.05ZM115.759 150.09L120.733 146.735C119.685 145.18 117.97 144.205 116.098 144.099C114.225 143.994 112.412 144.769 111.194 146.195L115.759 150.09ZM114.203 151.913L118.766 155.81L118.767 155.808L114.203 151.913ZM111.502 152.126L107.607 156.69L107.607 156.69L111.502 152.126ZM106.436 147.802L102.54 152.365L102.54 152.365L106.436 147.802ZM106.153 144.231L101.59 140.336L101.59 140.336L106.153 144.231ZM107.88 143.354L107.407 137.372C107.397 137.373 107.387 137.374 107.377 137.375L107.88 143.354ZM109.724 143.949L114.462 140.268C114.212 139.946 113.929 139.651 113.619 139.386L109.724 143.949ZM112.616 147.673L107.878 151.354C108.985 152.779 110.675 153.63 112.479 153.671C114.283 153.712 116.01 152.939 117.182 151.566L112.616 147.673ZM113.493 146.645L118.058 150.538C119.773 148.528 119.97 145.633 118.545 143.408L113.493 146.645ZM108.269 137.945L113.5 135.007C112.438 133.116 110.438 131.945 108.269 131.945V137.945ZM101.68 137.945V131.945C98.366 131.945 95.6797 134.632 95.6797 137.945H101.68ZM129.529 146.175L131.155 140.399C128.703 139.709 126.082 140.642 124.619 142.727C123.155 144.812 123.167 147.593 124.649 149.665L129.529 146.175ZM132.172 149.764L127.388 153.386C128.702 155.12 130.851 156.008 133.005 155.706C135.16 155.403 136.982 153.959 137.767 151.93L132.172 149.764ZM133.234 147.02L138.83 149.186C139.477 147.513 139.343 145.638 138.462 144.074C137.581 142.511 136.047 141.424 134.281 141.111L133.234 147.02ZM97.9941 20.7832H91.9941C91.9941 20.8922 91.9971 21.0011 92.003 21.1099L97.9941 20.7832ZM98.9111 37.5977L92.92 37.9244C93.0936 41.1064 95.7244 43.5977 98.9111 43.5977V37.5977ZM103.829 37.5977L103.83 31.5977H103.829V37.5977ZM106.159 39.834L112.159 39.834L112.159 39.8338L106.159 39.834ZM106.159 45.7314H100.159C100.159 49.0452 102.845 51.7314 106.159 51.7314V45.7314ZM106.164 45.7314H112.164C112.164 42.4177 109.478 39.7314 106.164 39.7314V45.7314ZM103.983 53.8574L103.615 47.8687C101.982 47.9691 100.461 48.7319 99.4041 49.9806C98.347 51.2292 97.8456 52.8554 98.016 54.4825L103.983 53.8574ZM104.159 55.5205L105.099 61.4465C108.246 60.9475 110.455 58.0746 110.127 54.9045L104.159 55.5205ZM86.0342 55.5068L80.0661 54.8886C79.7394 58.0425 81.9231 60.9062 85.051 61.4257L86.0342 55.5068ZM86.208 53.8535L92.1752 54.4802C92.3426 52.8861 91.8652 51.2912 90.8494 50.0513C89.8337 48.8113 88.364 48.0293 86.7681 47.8797L86.208 53.8535ZM84.1064 39.834L78.1064 39.8338V39.834H84.1064ZM91.6543 37.5977V43.5977C94.8411 43.5977 97.4719 41.1064 97.6454 37.9244L91.6543 37.5977ZM92.5713 20.7832L98.5624 21.1099C98.5683 21.0011 98.5713 20.8922 98.5713 20.7832L92.5713 20.7832ZM93.3857 20L93.3857 14L93.3852 14L93.3857 20ZM86.0332 55.5078L85.0735 61.4306C85.3206 61.4706 85.5171 61.4857 85.5543 61.4887C85.6282 61.4947 85.6875 61.4981 85.7191 61.4998C85.784 61.5032 85.8365 61.505 85.8606 61.5058C85.9139 61.5075 85.962 61.5084 85.9908 61.5089C86.0542 61.51 86.1283 61.5109 86.2025 61.5116C86.3551 61.513 86.5653 61.5143 86.8189 61.5155C87.3286 61.5178 88.0445 61.52 88.8944 61.5218C90.5956 61.5255 92.8499 61.5282 95.1015 61.5296C97.3533 61.5311 99.6055 61.5313 101.303 61.53C102.151 61.5293 102.864 61.5283 103.37 61.5269C103.622 61.5262 103.829 61.5253 103.977 61.5244C104.05 61.5239 104.12 61.5233 104.178 61.5225C104.204 61.5222 104.247 61.5215 104.294 61.5203C104.315 61.5198 104.362 61.5185 104.42 61.5159C104.448 61.5147 104.505 61.512 104.575 61.507C104.593 61.5058 104.819 61.4917 105.098 61.4475L104.158 55.5215L103.219 49.5955C103.497 49.5514 103.721 49.5375 103.737 49.5364C103.806 49.5315 103.86 49.529 103.884 49.5279C103.937 49.5255 103.976 49.5245 103.986 49.5243C104.012 49.5236 104.026 49.5235 104.016 49.5236C104 49.5238 103.963 49.5242 103.898 49.5246C103.773 49.5255 103.584 49.5262 103.336 49.5269C102.843 49.5283 102.139 49.5293 101.294 49.53C99.6037 49.5312 97.3574 49.5311 95.1091 49.5297C92.8607 49.5282 90.6132 49.5256 88.9206 49.5219C88.0736 49.52 87.3695 49.5179 86.8749 49.5156C86.6263 49.5144 86.4382 49.5132 86.3139 49.5121C86.2495 49.5115 86.2154 49.511 86.2031 49.5108C86.1941 49.5106 86.2125 49.5109 86.2444 49.5119C86.2578 49.5123 86.3018 49.5138 86.3602 49.5169C86.3886 49.5184 86.4452 49.5216 86.5169 49.5274C86.552 49.5302 86.7469 49.5452 86.9929 49.5851L86.0332 55.5078ZM104.158 55.5215L98.1909 56.147L98.7143 61.1402L104.682 60.5146L110.649 59.8891L110.126 54.8959L104.158 55.5215ZM104.682 60.5146V54.5146H104.681V60.5146V66.5146H104.682V60.5146ZM104.681 60.5146L98.7159 61.1637C99.207 65.6775 99.8398 71.1501 100.637 76.9862L106.582 76.1738L112.527 75.3615C111.749 69.673 111.13 64.318 110.645 59.8656L104.681 60.5146ZM106.582 76.1738V82.1738H106.583V76.1738V70.1738H106.582V76.1738ZM106.583 76.1738L100.638 76.9851C101.309 81.9044 102.101 87.0728 103.024 92.1584L108.928 91.0869L114.831 90.0154C113.947 85.1415 113.181 80.1518 112.528 75.3626L106.583 76.1738ZM108.928 91.0869V97.0869H108.934V91.0869V85.0869H108.928V91.0869ZM108.934 91.0869L103.03 92.1589C103.078 92.4225 103.131 92.7059 103.173 92.9332L109.073 91.8428L114.973 90.7523C114.922 90.4764 114.881 90.2562 114.837 90.015L108.934 91.0869ZM109.073 91.8428L108.512 97.8164C108.751 97.8389 109.076 97.9077 109.475 98.0737L111.782 92.5352L114.09 86.9966C112.633 86.3896 111.133 86.0099 109.635 85.8691L109.073 91.8428ZM111.782 92.5352L109.475 98.0739L118.155 101.689L120.462 96.1504L122.769 90.6116L114.089 86.9964L111.782 92.5352ZM120.462 96.1504L126.461 96.2578C126.633 86.6695 133.282 80.5576 140.505 80.5576V74.5576V68.5576C125.86 68.5576 114.735 80.8264 114.463 96.043L120.462 96.1504ZM140.505 74.5576L140.505 80.5576C147.81 80.5577 154.548 86.8244 154.548 96.6261L160.548 96.626L166.548 96.6259C166.548 81.1431 155.346 68.5578 140.505 68.5576L140.505 74.5576ZM160.548 96.626H154.548C154.548 96.7204 154.539 96.9549 154.506 97.3218C154.475 97.6676 154.431 98.0454 154.382 98.3942C154.33 98.7575 154.284 99.0129 154.259 99.1328C154.243 99.2071 154.255 99.1322 154.305 98.9745C154.327 98.903 154.395 98.6899 154.519 98.4137C154.583 98.273 154.695 98.0396 154.865 97.7644C154.952 97.6227 155.072 97.4426 155.228 97.243C155.381 97.0469 155.6 96.7914 155.893 96.5222L159.95 100.942L164.008 105.363C164.976 104.473 165.397 103.482 165.459 103.345C165.611 103.008 165.708 102.716 165.76 102.549C165.869 102.2 165.945 101.87 165.994 101.638C166.099 101.147 166.19 100.593 166.264 100.072C166.404 99.0813 166.548 97.7272 166.548 96.626H160.548ZM159.95 100.942L156.79 106.043C156.871 106.093 156.902 106.117 156.887 106.105C156.879 106.1 156.86 106.085 156.829 106.061C156.814 106.05 156.796 106.035 156.776 106.019C156.765 106.01 156.754 106.001 156.743 105.992C156.737 105.987 156.732 105.983 156.726 105.978C156.721 105.974 156.714 105.968 156.719 105.972L160.565 101.367L164.412 96.7625C164.417 96.7664 164.409 96.7599 164.403 96.7549C164.396 96.7495 164.39 96.7437 164.382 96.7376C164.367 96.7254 164.352 96.7125 164.335 96.6989C164.301 96.6718 164.264 96.6423 164.224 96.6106C164.143 96.5471 164.048 96.4752 163.939 96.3959C163.72 96.2373 163.445 96.0496 163.11 95.842L159.95 100.942ZM160.565 101.367L157.072 106.245C162.706 110.28 165.954 116.091 165.954 122.281H171.954H177.954C177.954 111.645 172.34 102.419 164.059 96.4889L160.565 101.367ZM171.954 122.281L173.972 116.631L173.958 116.626L171.94 122.276L169.922 127.927L169.936 127.932L171.954 122.281ZM171.94 122.276H165.94C165.94 126.226 164.637 129.697 162.333 132.602L167.035 136.329L171.737 140.057C175.648 135.123 177.94 129.049 177.94 122.276H171.94ZM167.035 136.329L162.332 132.603C158.254 137.751 150.718 141.427 141.375 141.641L141.513 147.64L141.65 153.638C153.769 153.36 164.994 148.567 171.738 140.055L167.035 136.329ZM141.513 147.64L141.351 141.642C141.067 141.649 140.784 141.653 140.5 141.653V147.653V153.653C140.891 153.653 141.283 153.648 141.675 153.637L141.513 147.64ZM140.5 147.653L140.5 141.653C140.141 141.653 139.921 141.652 139.725 141.645L139.482 147.64L139.239 153.635C139.719 153.654 140.184 153.653 140.5 153.653L140.5 147.653ZM139.482 147.64L139.623 141.641C138.998 141.627 138.369 141.594 137.735 141.546L137.284 147.529L136.834 153.512C137.651 153.574 138.488 153.618 139.342 153.638L139.482 147.64ZM137.284 147.529L131.689 145.362L129.415 151.234L135.01 153.401L140.605 155.568L142.879 149.696L137.284 147.529ZM135.01 153.401L130.331 157.157C137.903 166.59 147.371 176.307 159.098 185.184L162.72 180.4L166.341 175.616C155.497 167.408 146.724 158.409 139.689 149.645L135.01 153.401ZM162.72 180.4V174.4H136.648V180.4V186.4H162.72V180.4ZM136.648 180.4L140.006 175.428C129.657 168.441 116.533 163.864 102.16 162.709L101.68 168.689L101.199 174.67C113.678 175.673 124.787 179.632 133.291 185.373L136.648 180.4ZM101.68 168.689H95.6797V180.4H101.68H107.68V168.689H101.68ZM101.68 180.4V174.4H88.2568V180.4V186.4H101.68V180.4ZM88.2568 180.4H94.2568V168.688H88.2568H82.2568V180.4H88.2568ZM88.2568 168.688L87.7771 162.708C73.3999 163.861 60.2744 168.439 49.9231 175.428L53.2803 180.4L56.6375 185.373C65.1444 179.63 76.2549 175.67 88.7365 174.669L88.2568 168.688ZM53.2803 180.4V174.4H27.2188V180.4V186.4H53.2803V180.4ZM27.2188 180.4L30.8369 185.187C55.4123 166.609 70.0556 144.426 78.1353 128.706L72.7988 125.963L67.4624 123.22C59.949 137.839 46.3475 158.419 23.6006 175.614L27.2188 180.4ZM72.7988 125.963V119.963H72.3955V125.963V131.963H72.7988V125.963ZM72.3955 125.963V119.963C72.9042 119.963 73.3154 120.029 73.581 120.085C73.8574 120.142 74.0807 120.21 74.2356 120.263C74.5358 120.364 74.7533 120.467 74.8546 120.518C74.9695 120.574 75.0495 120.62 75.0868 120.642C75.1274 120.666 75.1498 120.681 75.1521 120.682C75.1543 120.684 75.1223 120.663 75.0573 120.615C74.9954 120.569 74.9209 120.511 74.8399 120.446C74.6664 120.306 74.5303 120.183 74.4619 120.116C74.4272 120.082 74.4517 120.103 74.5131 120.175C74.5364 120.202 74.7757 120.475 75.0252 120.93L69.7646 123.815L64.504 126.701C65.0543 127.704 65.824 128.453 66.0644 128.688C66.4639 129.08 66.898 129.456 67.2967 129.779C67.6893 130.096 68.147 130.441 68.6067 130.74C68.8266 130.883 69.1509 131.084 69.5316 131.272C69.7211 131.366 70.0174 131.503 70.3855 131.628C70.6754 131.726 71.421 131.963 72.3955 131.963V125.963ZM69.7646 123.815L75.0225 120.925C75.313 121.453 75.4504 121.901 75.4879 122.023C75.5446 122.208 75.5783 122.352 75.5936 122.421C75.6109 122.499 75.6217 122.557 75.6268 122.585C75.6323 122.615 75.6352 122.634 75.6356 122.637C75.6362 122.641 75.6328 122.618 75.6256 122.561C75.6187 122.506 75.6101 122.433 75.5999 122.339C75.5576 121.952 75.5048 121.373 75.4441 120.633C75.3239 119.165 75.1866 117.229 75.056 115.281C74.9258 113.34 74.8039 111.411 74.7145 109.966C74.6698 109.243 74.6333 108.643 74.6079 108.224C74.5953 108.014 74.5854 107.85 74.5787 107.738C74.5754 107.682 74.5728 107.639 74.5711 107.611C74.5703 107.596 74.5696 107.585 74.5692 107.578C74.569 107.575 74.5688 107.572 74.5687 107.57C74.5687 107.569 74.5686 107.569 74.5686 107.568C74.5686 107.568 74.5686 107.568 74.5686 107.568C74.5686 107.568 74.5686 107.568 68.5791 107.923C62.5896 108.278 62.5896 108.278 62.5896 108.278C62.5896 108.278 62.5896 108.278 62.5897 108.279C62.5897 108.279 62.5897 108.28 62.5898 108.281C62.5899 108.283 62.5901 108.286 62.5903 108.29C62.5908 108.297 62.5914 108.309 62.5923 108.323C62.5941 108.353 62.5967 108.397 62.6001 108.454C62.6069 108.568 62.6169 108.735 62.6297 108.947C62.6554 109.371 62.6923 109.978 62.7374 110.707C62.8275 112.164 62.9508 114.115 63.0828 116.084C63.2145 118.047 63.3565 120.054 63.4842 121.612C63.5474 122.385 63.6107 123.091 63.6706 123.64C63.6997 123.907 63.7349 124.201 63.777 124.473C63.7971 124.603 63.8305 124.805 63.8809 125.031C63.9059 125.144 63.949 125.325 64.0149 125.54C64.0615 125.692 64.2078 126.162 64.5068 126.706L69.7646 123.815ZM68.5791 107.923L74.5684 107.565C74.6696 109.258 73.8945 110.83 72.6032 111.785L69.0352 106.961L65.4671 102.137C63.5588 103.549 62.4443 105.845 62.5898 108.281L68.5791 107.923ZM69.0352 106.961L72.5842 111.799L76.4992 108.927L72.9502 104.089L69.4012 99.2511L65.4861 102.123L69.0352 106.961ZM72.9502 104.089L76.4993 108.927C75.6439 109.554 74.6442 109.86 73.6572 109.86V103.86V97.8604C72.1602 97.8604 70.6593 98.3281 69.4011 99.2511L72.9502 104.089ZM73.6572 103.86V109.86H78.5156V103.86V97.8604H73.6572V103.86ZM78.5156 103.86L84.3295 105.343C85.3901 101.185 86.336 96.7144 87.1632 92.1589L81.2598 91.0869L75.3563 90.015C74.5679 94.357 73.6789 98.546 72.7017 102.378L78.5156 103.86ZM81.2598 91.0869V85.0869H81.2588V91.0869V97.0869H81.2598V91.0869ZM81.2588 91.0869L87.1623 92.1584C88.0854 87.0728 88.8771 81.9044 89.5484 76.9851L83.6035 76.1738L77.6586 75.3626C77.0051 80.1518 76.2399 85.1415 75.3552 90.0154L81.2588 91.0869ZM83.6035 76.1738V70.1738H83.6025V76.1738V82.1738H83.6035V76.1738ZM83.6025 76.1738L89.5473 76.9862C90.3444 71.1526 90.9823 65.6796 91.4694 61.1561L85.5039 60.5137L79.5384 59.8712C79.0599 64.3144 78.4355 69.6698 77.6578 75.3615L83.6025 76.1738ZM85.5039 60.5137V66.5137H85.5049V60.5137V54.5137H85.5039V60.5137ZM85.5049 60.5137L91.4699 61.1607C91.6724 59.2942 91.8484 57.6259 92.0023 56.1162L86.0332 55.5078L80.0641 54.8995C79.9134 56.3782 79.7402 58.0202 79.5399 59.8666L85.5049 60.5137ZM81.6611 137.945L76.4305 135.006C72.9033 141.282 68.483 148.22 62.9555 155.385L67.7061 159.05L72.4566 162.715C78.3825 155.034 83.1173 147.601 86.8918 140.885L81.6611 137.945ZM67.7061 159.05L69.4573 164.789C75.5084 162.942 81.9551 161.702 88.6847 161.221L88.2568 155.236L87.8289 149.252C80.1805 149.798 72.8465 151.208 65.9548 153.311L67.7061 159.05ZM88.2568 155.236H94.2568V137.945H88.2568H82.2568V155.236H88.2568ZM88.2568 137.945V131.945H81.6611V137.945V143.945H88.2568V137.945ZM101.68 155.235L101.252 161.22C107.979 161.701 114.421 162.939 120.47 164.788L122.224 159.05L123.977 153.312C117.085 151.205 109.753 149.797 102.107 149.251L101.68 155.235ZM122.224 159.05L126.974 155.385C124.714 152.455 122.64 149.562 120.733 146.735L115.759 150.09L110.785 153.445C112.824 156.469 115.047 159.571 117.473 162.715L122.224 159.05ZM115.759 150.09L111.194 146.195L109.639 148.019L114.203 151.913L118.767 155.808L120.323 153.984L115.759 150.09ZM114.203 151.913L109.641 148.017C111.108 146.298 113.679 146.096 115.397 147.562L111.502 152.126L107.607 156.69C110.927 159.524 115.929 159.131 118.766 155.81L114.203 151.913ZM111.502 152.126L115.397 147.562L110.331 143.238L106.436 147.802L102.54 152.365L107.607 156.69L111.502 152.126ZM106.436 147.802L110.331 143.238C111.792 144.486 111.965 146.664 110.717 148.127L106.153 144.231L101.59 140.336C98.5344 143.916 98.9621 149.311 102.54 152.365L106.436 147.802ZM106.153 144.231L110.717 148.127C110.074 148.88 109.202 149.264 108.383 149.332L107.88 143.354L107.377 137.375C105.266 137.552 103.139 138.522 101.59 140.336L106.153 144.231ZM107.88 143.354L108.352 149.335C107.492 149.403 106.565 149.141 105.828 148.513L109.724 143.949L113.619 139.386C111.821 137.851 109.567 137.202 107.407 137.372L107.88 143.354ZM109.724 143.949L104.985 147.63L107.878 151.354L112.616 147.673L117.355 143.992L114.462 140.268L109.724 143.949ZM112.616 147.673L117.182 151.566L118.058 150.538L113.493 146.645L108.928 142.751L108.051 143.78L112.616 147.673ZM113.493 146.645L118.545 143.408C116.688 140.508 115.011 137.697 113.5 135.007L108.269 137.945L103.037 140.884C104.657 143.767 106.453 146.777 108.441 149.881L113.493 146.645ZM108.269 137.945V131.945H101.68V137.945V143.945H108.269V137.945ZM101.68 137.945H95.6797V155.235H101.68H107.68V137.945H101.68ZM129.529 146.175L124.649 149.665C125.531 150.899 126.445 152.139 127.388 153.386L132.172 149.764L136.955 146.142C136.075 144.979 135.226 143.826 134.41 142.684L129.529 146.175ZM132.172 149.764L137.767 151.93L138.83 149.186L133.234 147.02L127.639 144.853L126.577 147.597L132.172 149.764ZM133.234 147.02L134.281 141.111C133.204 140.921 132.161 140.682 131.155 140.399L129.529 146.175L127.904 151.95C129.301 152.344 130.731 152.67 132.188 152.928L133.234 147.02ZM97.1797 20V26C94.5529 26 91.9941 23.8973 91.9941 20.7832H97.9941H103.994C103.994 16.8016 100.702 14 97.1797 14V20ZM97.9941 20.7832L92.003 21.1099L92.92 37.9244L98.9111 37.5977L104.902 37.2709L103.985 20.4565L97.9941 20.7832ZM98.9111 37.5977V43.5977H103.829V37.5977V31.5977H98.9111V37.5977ZM103.829 37.5977L103.828 43.5977C102.036 43.5973 100.159 42.1407 100.159 39.8342L106.159 39.834L112.159 39.8338C112.159 35.0579 108.199 31.5985 103.83 31.5977L103.829 37.5977ZM106.159 39.834H100.159V45.7314H106.159H112.159V39.834H106.159ZM106.159 45.7314V51.7314H106.164V45.7314V39.7314H106.159V45.7314ZM106.164 45.7314H100.164V51.6279H106.164H112.164V45.7314H106.164ZM106.164 51.6279H100.164C100.164 49.3977 101.916 47.9732 103.615 47.8687L103.983 53.8574L104.352 59.8461C108.479 59.5924 112.164 56.2306 112.164 51.6279H106.164ZM103.983 53.8574L98.016 54.4825C98.0798 55.0914 98.1342 55.5874 98.1909 56.1366L104.159 55.5205L110.127 54.9045C110.073 54.3762 110.004 53.7402 109.951 53.2324L103.983 53.8574ZM104.159 55.5205L103.22 49.5945C103.498 49.5504 103.722 49.5365 103.738 49.5354C103.807 49.5306 103.861 49.528 103.885 49.5269C103.938 49.5246 103.977 49.5236 103.987 49.5233C104.013 49.5226 104.027 49.5225 104.017 49.5226C104.001 49.5229 103.964 49.5232 103.899 49.5237C103.774 49.5245 103.585 49.5253 103.337 49.5259C102.843 49.5273 102.14 49.5283 101.294 49.529C99.6039 49.5303 97.3574 49.5301 95.1088 49.5287C92.8602 49.5273 90.6126 49.5246 88.9202 49.5209C88.0732 49.519 87.3693 49.5169 86.875 49.5146C86.6264 49.5135 86.4386 49.5123 86.3144 49.5111C86.2501 49.5105 86.2162 49.51 86.2041 49.5098C86.1951 49.5097 86.2138 49.5099 86.2461 49.511C86.2597 49.5114 86.3044 49.5129 86.3637 49.5161C86.3925 49.5176 86.4503 49.5209 86.5237 49.5269C86.5578 49.5297 86.7612 49.5454 87.0173 49.5879L86.0342 55.5068L85.051 61.4257C85.3082 61.4685 85.5132 61.4843 85.5494 61.4873C85.6249 61.4934 85.6854 61.4969 85.7174 61.4986C85.7831 61.5022 85.8364 61.504 85.8605 61.5048C85.9141 61.5065 85.9624 61.5074 85.9912 61.5079C86.0547 61.5091 86.1288 61.5099 86.2028 61.5106C86.3553 61.512 86.5654 61.5133 86.8189 61.5145C87.3284 61.5169 88.0442 61.519 88.8939 61.5208C90.595 61.5246 92.8494 61.5272 95.1012 61.5287C97.3532 61.5301 99.6057 61.5303 101.303 61.529C102.152 61.5283 102.865 61.5273 103.371 61.5259C103.623 61.5252 103.829 61.5244 103.978 61.5234C104.051 61.5229 104.121 61.5223 104.179 61.5215C104.205 61.5212 104.248 61.5205 104.295 61.5193C104.316 61.5188 104.363 61.5175 104.421 61.5149C104.449 61.5137 104.506 61.511 104.576 61.506C104.594 61.5048 104.82 61.4907 105.099 61.4465L104.159 55.5205ZM86.0342 55.5068L92.0022 56.1251C92.0573 55.5941 92.1153 55.0507 92.1752 54.4802L86.208 53.8535L80.2408 53.2268C80.1841 53.7669 80.122 54.3492 80.0661 54.8886L86.0342 55.5068ZM86.208 53.8535L86.7681 47.8797C88.4377 48.0362 90.1064 49.4631 90.1064 51.6279H84.1064H78.1064C78.1064 56.1139 81.6173 59.4494 85.648 59.8273L86.208 53.8535ZM84.1064 51.6279H90.1064V39.834H84.1064H78.1064V51.6279H84.1064ZM84.1064 39.834L90.1064 39.8342C90.1064 42.1502 88.225 43.5977 86.4375 43.5977V37.5977V31.5977C82.0822 31.5977 78.1066 35.0482 78.1064 39.8338L84.1064 39.834ZM86.4375 37.5977V43.5977H91.6543V37.5977V31.5977H86.4375V37.5977ZM91.6543 37.5977L97.6454 37.9244L98.5624 21.1099L92.5713 20.7832L86.5802 20.4565L85.6632 37.2709L91.6543 37.5977ZM92.5713 20.7832H98.5713C98.5713 23.8787 96.028 25.9998 93.3863 26L93.3857 20L93.3852 14C89.8397 14.0003 86.5713 16.8203 86.5713 20.7832H92.5713ZM93.3857 20V26H97.1797V20V14H93.3857V20Z" fill="white" mask="url(#path-1-outside-1_1062_18617)"/>
<path d="M127.817 135.964L114.203 151.913C113.519 152.714 112.303 152.81 111.502 152.126L106.435 147.801C105.377 146.898 105.25 145.29 106.153 144.231C106.607 143.701 107.234 143.408 107.88 143.354C108.53 143.303 109.192 143.496 109.723 143.95L112.616 147.672L124.802 133.396C125.486 132.595 126.702 132.499 127.504 133.183L127.601 133.266C128.402 133.95 128.498 135.166 127.814 135.967L127.817 135.964Z" fill="#474747"/>
<path d="M88.2568 135.659H101.679V180.401H88.2568V135.659Z" fill="#BA3C4E"/>
<path d="M108.909 106.393L81.021 106.402C80.8909 106.867 68.7391 149.014 27.2188 180.401H53.2806C64.2558 172.991 78.8732 168.419 94.9623 168.419C111.051 168.419 125.673 172.991 136.649 180.401H162.72C121.356 149.09 109.039 106.858 108.909 106.393ZM94.9669 154.996C85.3429 154.996 76.1662 156.468 67.7057 159.05C73.4324 151.627 78.0098 144.441 81.6607 137.945H108.269C111.92 144.446 116.497 151.627 122.224 159.05C113.763 156.464 104.591 154.996 94.9669 154.996Z" fill="#EE5B6E"/>
<path d="M111.782 92.535L144.995 106.371C144.995 106.371 134.471 125.23 117.025 117.959C106.675 113.648 102.852 103.891 102.63 97.1282C102.492 92.9092 106.931 90.5138 111.782 92.535Z" fill="#276286"/>
<path d="M140.412 139.458L132.837 159.011C132.456 159.994 131.341 160.486 130.358 160.106L124.146 157.699C122.849 157.197 122.197 155.721 122.7 154.423C122.952 153.772 123.448 153.289 124.04 153.024C124.636 152.761 125.325 152.725 125.976 152.977L129.937 155.534L136.717 138.032C137.098 137.049 138.214 136.556 139.197 136.937L139.316 136.983C140.298 137.364 140.791 138.48 140.41 139.462L140.412 139.458Z" fill="#474747"/>
<path d="M171.94 122.277C171.94 127.637 170.142 132.41 167.035 136.329C161.624 143.159 152.244 147.393 141.513 147.639C141.175 147.648 140.838 147.653 140.5 147.653C140.162 147.653 139.82 147.653 139.483 147.639C128.747 147.388 119.376 143.154 113.96 136.334C113.96 136.334 113.96 136.334 113.96 136.329C110.853 132.41 109.056 127.642 109.056 122.277C109.056 113.863 113.486 106.344 120.439 101.367C120.439 101.367 120.457 97.9998 120.457 96.6265C120.457 83.9839 129.432 74.5579 140.505 74.5579C151.578 74.5579 160.548 83.9839 160.548 96.6265C160.548 98.0043 160.146 100.765 159.95 100.943C160.37 101.203 160.566 101.367 160.566 101.367C167.524 106.349 171.954 113.868 171.954 122.281L171.94 122.277Z" fill="#4B9AE8"/>
<path d="M144.019 93.8727C144.05 95.7331 141.94 98.5745 140.05 98.5412C138.161 98.5045 135.943 95.5837 135.912 93.72C135.881 91.8597 137.088 90.372 139.906 90.427C142.756 90.482 143.988 92.0124 144.019 93.8727Z" fill="#DDB61E"/>
<path d="M129.835 93.3838C132.271 93.3838 134.247 91.4086 134.247 88.972C134.247 86.5353 132.271 84.5601 129.835 84.5601C127.398 84.5601 125.423 86.5353 125.423 88.972C125.423 91.4086 127.398 93.3838 129.835 93.3838Z" fill="white"/>
<path d="M129.834 91.3216C131.132 91.3216 132.184 90.2697 132.184 88.972C132.184 87.6743 131.132 86.6223 129.834 86.6223C128.536 86.6223 127.484 87.6743 127.484 88.972C127.484 90.2697 128.536 91.3216 129.834 91.3216Z" fill="#040000"/>
<path d="M150.749 93.3838C153.185 93.3838 155.161 91.4086 155.161 88.972C155.161 86.5353 153.185 84.5601 150.749 84.5601C148.312 84.5601 146.337 86.5353 146.337 88.972C146.337 91.4086 148.312 93.3838 150.749 93.3838Z" fill="white"/>
<path d="M150.748 91.3216C152.046 91.3216 153.098 90.2697 153.098 88.972C153.098 87.6743 152.046 86.6223 150.748 86.6223C149.45 86.6223 148.398 87.6743 148.398 88.972C148.398 90.2697 149.45 91.3216 150.748 91.3216Z" fill="#040000"/>
<path d="M81.2602 91.0864C80.2536 96.63 79.0815 101.99 77.748 106.746H112.445C111.108 101.99 109.94 96.63 108.933 91.0864H81.2602Z" fill="#EE5B6E"/>
<path d="M120.994 106.961L117.079 104.089C116.878 103.941 116.627 103.86 116.372 103.86H73.6571C73.402 103.86 73.1515 103.941 72.9501 104.089L69.0356 106.961C68.7269 107.189 68.5568 107.552 68.5791 107.923C68.5791 107.923 69.4916 123.318 69.7648 123.815C70.0913 124.41 72.0376 125.963 72.3954 125.963H117.634C117.992 125.963 119.934 124.415 120.265 123.815C120.542 123.314 121.451 107.923 121.451 107.923C121.477 107.552 121.307 107.189 120.994 106.961ZM106.583 76.1741H83.6034C82.941 81.0284 82.1626 86.1068 81.2588 91.0865H108.927C108.024 86.1068 107.245 81.0284 106.583 76.1741Z" fill="#CDD6DD"/>
<path d="M104.681 60.5138H85.5039C85.021 64.9971 84.39 70.411 83.6025 76.1737H106.582C105.794 70.411 105.168 64.9971 104.681 60.5138Z" fill="#EE5B6E"/>
<path d="M104.158 55.5213C104.046 55.5391 86.1673 55.53 86.0332 55.5077C85.8809 57.0021 85.7063 58.6575 85.5049 60.5143H104.682L104.158 55.5213Z" fill="#CDD6DD"/>
<path d="M104.159 55.5209C103.895 52.9663 103.555 49.7892 103.555 49.7892H86.638C86.638 49.7892 86.2979 52.9617 86.0342 55.5073C86.1683 55.5296 104.047 55.5387 104.159 55.5209Z" fill="#AAB8C2"/>
<path d="M84.1064 45.7313V51.6281C84.1064 52.8629 85.149 53.8654 86.4374 53.8654H103.833C105.117 53.8654 106.164 52.8629 106.164 51.6281V45.7313H84.1064Z" fill="#E1E8ED"/>
<path d="M103.829 37.5972H98.9116L97.9946 20.7829C97.9946 20.3492 97.6277 20 97.1799 20H93.3858C92.9339 20 92.5715 20.3492 92.5715 20.7829L91.6545 37.5972H86.4374C85.1535 37.5972 84.1064 38.5992 84.1064 39.834V45.7313H106.16V39.834C106.16 38.5992 105.117 37.5972 103.829 37.5972Z" fill="#EE5B6E"/>
<path d="M112.338 106.251L133.125 102.992C138.201 102.196 142.436 105.586 141.487 109.7C140.006 116.12 136.062 124.249 125.632 125.884C116.92 127.248 110.387 123.031 105.992 118.385C101.864 114.023 105.365 107.341 112.335 106.248L112.338 106.251Z" fill="#276286"/>
</svg>
