<svg width="200" height="200" viewBox="0 0 200 200" fill="none" xmlns="http://www.w3.org/2000/svg">
<mask id="path-1-outside-1_898_2889" maskUnits="userSpaceOnUse" x="5.52979" y="28.1625" width="189" height="144" fill="black">
<rect fill="white" x="5.52979" y="28.1625" width="189" height="144"/>
<path d="M93.6224 35.7353C107.909 32.7225 121.93 41.8381 125.198 57.3408C125.553 59.0309 125.767 60.7095 125.838 62.37C135.938 66.5156 143.476 74.3976 145.611 84.5449C146.268 87.6621 146.359 90.7257 145.947 93.6855C154.509 95.6909 161.955 98.3768 167.436 101.839C192.564 117.715 193.252 147.315 177.138 156.17C143.013 174.928 43.8822 162.794 21.2093 146.478C-1.0556 130.457 24.5609 107.801 41.6478 97.415C45.3704 88.7296 51.5391 81.505 58.721 77.3613C53.8871 68.4702 51.4547 57.8381 58.9779 61.1367C63.1346 62.9594 68.0772 64.886 73.1273 66.4374C70.9087 51.6675 79.8881 38.6304 93.6224 35.7353Z"/>
</mask>
<path d="M93.6224 35.7353C107.909 32.7225 121.93 41.8381 125.198 57.3408C125.553 59.0309 125.767 60.7095 125.838 62.37C135.938 66.5156 143.476 74.3976 145.611 84.5449C146.268 87.6621 146.359 90.7257 145.947 93.6855C154.509 95.6909 161.955 98.3768 167.436 101.839C192.564 117.715 193.252 147.315 177.138 156.17C143.013 174.928 43.8822 162.794 21.2093 146.478C-1.0556 130.457 24.5609 107.801 41.6478 97.415C45.3704 88.7296 51.5391 81.505 58.721 77.3613C53.8871 68.4702 51.4547 57.8381 58.9779 61.1367C63.1346 62.9594 68.0772 64.886 73.1273 66.4374C70.9087 51.6675 79.8881 38.6304 93.6224 35.7353Z" fill="#276288"/>
<path d="M93.6224 35.7353L94.86 41.6063L94.8604 41.6062L93.6224 35.7353ZM125.198 57.3408L131.069 56.1047L131.069 56.1032L125.198 57.3408ZM125.838 62.37L119.844 62.627C119.944 64.9653 121.395 67.0319 123.56 67.9207L125.838 62.37ZM145.611 84.5449L139.739 85.7802L139.74 85.7826L145.611 84.5449ZM145.947 93.6855L140.004 92.8584C139.576 95.9294 141.559 98.8203 144.578 99.5274L145.947 93.6855ZM167.436 101.839L170.641 96.7664L170.64 96.766L167.436 101.839ZM177.138 156.17L174.249 150.911L174.248 150.912L177.138 156.17ZM21.2093 146.478L17.7048 151.349L17.7048 151.349L21.2093 146.478ZM41.6478 97.415L44.7642 102.542C45.8319 101.893 46.6704 100.927 47.1626 99.7787L41.6478 97.415ZM58.721 77.3613L61.7195 82.5583C64.5385 80.9319 65.5469 77.3546 63.9923 74.4953L58.721 77.3613ZM58.9779 61.1367L61.3875 55.6417L61.3872 55.6416L58.9779 61.1367ZM73.1273 66.4374L71.3653 72.1729C73.3362 72.7784 75.4801 72.3294 77.0425 70.984C78.6049 69.6386 79.367 67.5852 79.0607 65.5462L73.1273 66.4374ZM93.6224 35.7353L94.8604 41.6062C105.737 39.3126 116.706 46.1477 119.327 58.5783L125.198 57.3408L131.069 56.1032C127.153 37.5286 110.082 26.1324 92.3844 29.8644L93.6224 35.7353ZM125.198 57.3408L119.326 58.5768C119.617 59.9565 119.787 61.3076 119.844 62.627L125.838 62.37L131.833 62.1131C131.747 60.1114 131.49 58.1054 131.069 56.1047L125.198 57.3408ZM125.838 62.37L123.56 67.9207C132.198 71.4661 138.091 77.9447 139.739 85.7802L145.611 84.5449L151.482 83.3095C148.861 70.8505 139.678 61.565 128.117 56.8194L125.838 62.37ZM145.611 84.5449L139.74 85.7826C140.254 88.2224 140.32 90.5875 140.004 92.8584L145.947 93.6855L151.889 94.5126C152.397 90.864 152.282 87.1017 151.482 83.3071L145.611 84.5449ZM145.947 93.6855L144.578 99.5274C152.827 101.459 159.548 103.953 164.232 106.912L167.436 101.839L170.64 96.766C164.361 92.8002 156.191 89.9225 147.315 87.8436L145.947 93.6855ZM167.436 101.839L164.231 106.911C175.361 113.943 180.732 123.766 181.798 132.375C182.885 141.152 179.578 147.983 174.249 150.911L177.138 156.17L180.028 161.428C190.812 155.502 195.218 143.105 193.707 130.9C192.175 118.527 184.639 105.611 170.641 96.7664L167.436 101.839ZM177.138 156.17L174.248 150.912C166.822 154.994 155.231 157.663 141.051 158.886C127.026 160.095 111.081 159.841 95.3906 158.499C79.7051 157.156 64.4253 154.739 51.7461 151.681C38.82 148.563 29.3665 144.956 24.7138 141.608L21.2093 146.478L17.7048 151.349C24.3885 156.158 35.8287 160.186 48.9327 163.346C62.2837 166.566 78.1705 169.069 94.3674 170.455C110.559 171.84 127.213 172.123 142.081 170.841C156.794 169.573 170.391 166.725 180.028 161.428L177.138 156.17ZM21.2093 146.478L24.7139 141.608C20.1886 138.352 18.8249 135.348 18.5761 132.905C18.3034 130.229 19.2375 126.942 21.7203 123.075C26.7451 115.25 36.5022 107.564 44.7642 102.542L41.6478 97.415L38.5314 92.2878C29.7065 97.6517 18.1119 106.486 11.6229 116.591C8.34886 121.69 5.98555 127.719 6.63787 134.122C7.31397 140.758 11.0976 146.594 17.7048 151.349L21.2093 146.478ZM41.6478 97.415L47.1626 99.7787C50.4449 92.1207 55.8057 85.9703 61.7195 82.5583L58.721 77.3613L55.7226 72.1642C47.2724 77.0396 40.296 85.3385 36.133 95.0513L41.6478 97.415ZM58.721 77.3613L63.9923 74.4953C61.7273 70.3293 60.3682 66.3195 60.1959 64.1934C60.1578 63.7223 60.2064 63.6309 60.1681 63.8002C60.1291 63.9724 59.9148 64.7622 59.0745 65.5106C57.0412 67.3214 55.1787 66.0223 56.5686 66.6317L58.9779 61.1367L61.3872 55.6416C59.0154 54.6017 54.6358 53.3947 51.0937 56.5491C48.0477 59.2618 48.0795 63.241 48.2351 65.1623C48.6068 69.7504 50.8808 75.5022 53.4498 80.2272L58.721 77.3613ZM58.9779 61.1367L56.5683 66.6316C60.888 68.5258 66.0499 70.5399 71.3653 72.1729L73.1273 66.4374L74.8893 60.702C70.1046 59.2321 65.3813 57.3931 61.3875 55.6417L58.9779 61.1367ZM73.1273 66.4374L79.0607 65.5462C77.291 53.7647 84.3839 43.8145 94.86 41.6063L93.6224 35.7353L92.3848 29.8643C75.3922 33.4462 64.5263 49.5703 67.1939 67.3287L73.1273 66.4374Z" fill="white" mask="url(#path-1-outside-1_898_2889)"/>
<path d="M42.5774 96.8569C25.5149 106.969 -1.4637 130.164 21.2092 146.479C43.8821 162.794 143.013 174.928 177.138 156.169C193.252 147.315 192.564 117.715 167.436 101.839C139.342 84.0941 59.634 86.7452 42.5715 96.851L42.5774 96.8569Z" fill="#4DACC2"/>
<path d="M135.709 104.541C136.394 103.818 137.537 103.786 138.261 104.47L145.116 110.958L151.502 109.923C152.486 109.763 153.413 110.431 153.572 111.415C153.722 112.337 153.145 113.209 152.262 113.447L152.081 113.486L148.279 114.103L149.471 115.303C150.174 116.01 150.17 117.152 149.463 117.854C148.756 118.557 147.613 118.554 146.91 117.846L145.008 115.932L144.018 117.898C143.569 118.787 142.483 119.145 141.593 118.696C140.703 118.247 140.345 117.161 140.794 116.271L142.307 113.271L135.779 107.093C135.056 106.408 135.024 105.265 135.709 104.541Z" fill="#0D4754"/>
<path d="M114.982 114.636C115.913 114.281 116.956 114.748 117.312 115.679L120.676 124.498L126.88 126.332C127.836 126.615 128.382 127.62 128.099 128.576C127.834 129.472 126.935 130.007 126.036 129.838L125.856 129.795L122.163 128.702L122.718 130.3C123.044 131.241 122.545 132.27 121.603 132.596C120.662 132.922 119.634 132.423 119.307 131.482L118.422 128.932L116.677 130.274C115.887 130.881 114.755 130.732 114.147 129.942C113.54 129.152 113.688 128.018 114.478 127.411L117.142 125.363L113.94 116.966C113.584 116.035 114.051 114.991 114.982 114.636Z" fill="#0D4754"/>
<path d="M92.9785 69.4255C83.3168 70.4498 68.9069 65.4907 58.9774 61.1365C48.2539 56.4347 57.759 80.0367 65.6121 86.5561C71.1267 91.1337 85.6287 94.4483 94.4614 81.3493" fill="#276288"/>
<path d="M145.611 84.5449C149.424 102.633 134.182 118.919 112.138 123.563C90.0938 128.206 69.5737 119.465 65.7603 101.376C63.6193 91.2287 67.3378 80.9806 74.8994 73.1106C74.3004 71.5567 73.8082 69.9317 73.4523 68.2474C70.1845 52.7447 79.3296 38.7483 93.6225 35.7355C107.909 32.7228 121.93 41.8382 125.197 57.3409C125.553 59.0312 125.767 60.7096 125.838 62.3701C135.938 66.5157 143.476 74.3975 145.611 84.5449Z" fill="#4B9AE8"/>
<path d="M83.1076 61.5102C86.0555 61.5102 88.4452 59.1204 88.4452 56.1726C88.4452 53.2247 86.0555 50.835 83.1076 50.835C80.1597 50.835 77.77 53.2247 77.77 56.1726C77.77 59.1204 80.1597 61.5102 83.1076 61.5102Z" fill="white"/>
<path d="M83.1073 58.9984C84.6679 58.9984 85.9331 57.7332 85.9331 56.1726C85.9331 54.6119 84.6679 53.3468 83.1073 53.3468C81.5466 53.3468 80.2815 54.6119 80.2815 56.1726C80.2815 57.7332 81.5466 58.9984 83.1073 58.9984Z" fill="black"/>
<path d="M108.016 57.9518C110.964 57.9518 113.354 55.5621 113.354 52.6142C113.354 49.6663 110.964 47.2766 108.016 47.2766C105.068 47.2766 102.678 49.6663 102.678 52.6142C102.678 55.5621 105.068 57.9518 108.016 57.9518Z" fill="white"/>
<path d="M108.016 55.44C109.577 55.44 110.842 54.1749 110.842 52.6142C110.842 51.0536 109.577 49.7885 108.016 49.7885C106.456 49.7885 105.19 51.0536 105.19 52.6142C105.19 54.1749 106.456 55.44 108.016 55.44Z" fill="black"/>
<path d="M102.463 60.6677C102.67 63.3773 99.8865 67.809 97.1769 68.0157C94.4674 68.2223 91.0414 64.2636 90.8347 61.5541C90.6281 58.8445 92.2308 56.5162 96.2722 56.2039C100.359 55.8916 102.252 57.9582 102.458 60.6631L102.463 60.6677Z" fill="#EAC00F"/>
<path d="M103.99 115.206C102.667 136.687 90.6277 155.078 68.5004 153.714C45.2522 152.279 36.6409 134.268 37.9635 112.787C39.286 91.3058 56.135 72.5531 73.4407 73.6206C90.7464 74.6881 105.312 93.7196 103.99 115.2V115.206Z" fill="#ECECEC"/>
<path d="M82.3423 127.269C82.3423 127.269 82.3603 127.317 82.3663 127.341C82.3603 127.311 82.3543 127.287 82.3483 127.269H82.3423Z" fill="black"/>
<path d="M27.472 120.295C27.472 120.295 27.466 120.271 27.46 120.253C27.46 120.265 27.46 120.283 27.472 120.301V120.295Z" fill="black"/>
<path d="M31.1251 129.701C33.7406 124.559 46.0052 116.043 56.538 116.701C67.0768 117.36 67.8952 126.214 78.3095 127.246C88.7237 128.278 89.5184 119.228 103.331 121.517C117.138 123.8 114.315 134.47 126.265 135.3C138.215 136.13 132.018 130.953 142.616 132.418C154.477 134.054 147.728 145.922 153.659 147.653C159.583 149.379 157.881 160.885 150.539 162.397C143.191 163.909 40.3948 155.31 34.8615 150.476C29.3282 145.649 27.5312 136.771 31.1192 129.701H31.1251Z" fill="#4DACC2"/>
<path d="M125.849 77.4217C128.704 81.2187 128.979 88.3935 124.563 89.0762C120.146 89.7589 114.336 90.5951 111.392 91.4329C108.448 92.2708 99.4618 95.1823 92.9197 100.239C86.2498 103.397 85.5374 94.652 87.7906 88.2815C90.1882 81.4971 94.9809 74.1773 104.562 71.602C116.034 68.5203 121.394 71.4957 125.849 77.4217Z" fill="#276288"/>
</svg>
