<svg width="200" height="200" viewBox="0 0 200 200" fill="none" xmlns="http://www.w3.org/2000/svg">
<mask id="path-1-outside-1_898_2844" maskUnits="userSpaceOnUse" x="16.5935" y="18.0001" width="163" height="168" fill="black">
<rect fill="white" x="16.5935" y="18.0001" width="163" height="168"/>
<path d="M102.509 26.0162C126.458 25.3707 146.387 44.2227 147.084 70.2047C147.159 73.0313 147.01 75.8064 146.631 78.5143C152.07 82.0012 156.825 86.1787 160.706 90.8824C167.583 99.229 171.708 109.26 171.998 120.136C172.457 137.212 163.329 151.58 148.665 161.051L151.939 167.311L152.018 167.484C152.027 167.507 152.034 167.532 152.042 167.555L156.966 168.132C157.983 168.252 158.711 169.173 158.592 170.19C158.473 171.207 157.552 171.936 156.535 171.817L153.452 171.455L154.784 175.578C155.098 176.552 154.563 177.598 153.588 177.913C152.614 178.227 151.568 177.692 151.253 176.717L150.43 174.167L149.55 175.929C149.092 176.845 147.978 177.218 147.062 176.76C146.146 176.303 145.775 175.188 146.232 174.272L148.759 169.21C148.756 169.204 148.751 169.199 148.748 169.194L148.651 169.031L145.486 162.978C134.613 169.161 121.13 172.834 106.457 173.229C90.5319 173.657 75.804 170.155 64.1323 163.606L60.7036 168.821L63.9692 172.714L64.0835 172.867C64.6113 173.644 64.4754 174.712 63.7397 175.329C63.0038 175.946 61.929 175.893 61.2553 175.237L61.1264 175.098L58.6274 172.119L56.2299 176.017C55.6931 176.889 54.5515 177.161 53.6792 176.625C52.807 176.088 52.535 174.946 53.0717 174.074L54.9253 171.058L48.4272 171.511C47.4055 171.582 46.5189 170.811 46.4477 169.79C46.3768 168.768 47.1479 167.883 48.1694 167.811L57.352 167.17L60.9497 161.695C47.3376 152.966 38.5943 139.768 38.1626 123.735C38.0235 118.509 38.7792 113.43 40.3139 108.597C28.216 95.0029 16.2896 63.6707 32.4038 70.4801C40.7572 74.0097 51.022 77.7682 61.1753 80.357C60.714 77.8213 60.4308 75.2079 60.3608 72.5348C59.6634 46.5526 78.56 26.6617 102.509 26.0162Z"/>
</mask>
<path d="M102.509 26.0162C126.458 25.3707 146.387 44.2227 147.084 70.2047C147.159 73.0313 147.01 75.8064 146.631 78.5143C152.07 82.0012 156.825 86.1787 160.706 90.8824C167.583 99.229 171.708 109.26 171.998 120.136C172.457 137.212 163.329 151.58 148.665 161.051L151.939 167.311L152.018 167.484C152.027 167.507 152.034 167.532 152.042 167.555L156.966 168.132C157.983 168.252 158.711 169.173 158.592 170.19C158.473 171.207 157.552 171.936 156.535 171.817L153.452 171.455L154.784 175.578C155.098 176.552 154.563 177.598 153.588 177.913C152.614 178.227 151.568 177.692 151.253 176.717L150.43 174.167L149.55 175.929C149.092 176.845 147.978 177.218 147.062 176.76C146.146 176.303 145.775 175.188 146.232 174.272L148.759 169.21C148.756 169.204 148.751 169.199 148.748 169.194L148.651 169.031L145.486 162.978C134.613 169.161 121.13 172.834 106.457 173.229C90.5319 173.657 75.804 170.155 64.1323 163.606L60.7036 168.821L63.9692 172.714L64.0835 172.867C64.6113 173.644 64.4754 174.712 63.7397 175.329C63.0038 175.946 61.929 175.893 61.2553 175.237L61.1264 175.098L58.6274 172.119L56.2299 176.017C55.6931 176.889 54.5515 177.161 53.6792 176.625C52.807 176.088 52.535 174.946 53.0717 174.074L54.9253 171.058L48.4272 171.511C47.4055 171.582 46.5189 170.811 46.4477 169.79C46.3768 168.768 47.1479 167.883 48.1694 167.811L57.352 167.17L60.9497 161.695C47.3376 152.966 38.5943 139.768 38.1626 123.735C38.0235 118.509 38.7792 113.43 40.3139 108.597C28.216 95.0029 16.2896 63.6707 32.4038 70.4801C40.7572 74.0097 51.022 77.7682 61.1753 80.357C60.714 77.8213 60.4308 75.2079 60.3608 72.5348C59.6634 46.5526 78.56 26.6617 102.509 26.0162Z" fill="#276288"/>
<path d="M102.509 26.0162L102.321 19.0187L102.321 19.0187L102.509 26.0162ZM147.084 70.2047L154.082 70.021L154.082 70.0168L147.084 70.2047ZM146.631 78.5143L139.699 77.5456C139.32 80.2524 140.552 82.9317 142.853 84.4069L146.631 78.5143ZM160.706 90.8824L166.108 86.4309L166.105 86.428L160.706 90.8824ZM171.998 120.136L165 120.323L165 120.325L171.998 120.136ZM148.665 161.051L144.867 155.171C141.827 157.134 140.785 161.09 142.462 164.296L148.665 161.051ZM151.939 167.311L158.304 164.398C158.253 164.286 158.199 164.176 158.142 164.067L151.939 167.311ZM152.018 167.484L158.519 164.889C158.476 164.782 158.431 164.676 158.383 164.571L152.018 167.484ZM152.042 167.555L145.444 169.891C146.334 172.406 148.577 174.197 151.228 174.508L152.042 167.555ZM156.966 168.132L157.783 161.18L157.781 161.18L156.966 168.132ZM158.592 170.19L165.544 171.007L165.545 171.004L158.592 170.19ZM156.535 171.817L155.718 178.769L155.722 178.77L156.535 171.817ZM153.452 171.455L154.269 164.503C151.901 164.224 149.555 165.17 148.042 167.012C146.53 168.853 146.058 171.339 146.791 173.607L153.452 171.455ZM154.784 175.578L161.446 173.431L161.445 173.426L154.784 175.578ZM153.588 177.913L155.738 184.575L155.741 184.574L153.588 177.913ZM151.253 176.717L144.592 178.867L144.593 178.871L151.253 176.717ZM150.43 174.167L157.092 172.017C156.218 169.31 153.794 167.401 150.957 167.186C148.121 166.972 145.437 168.495 144.167 171.04L150.43 174.167ZM149.55 175.929L155.812 179.058L155.813 179.056L149.55 175.929ZM147.062 176.76L143.933 183.022L143.935 183.023L147.062 176.76ZM146.232 174.272L139.969 171.145L139.968 171.147L146.232 174.272ZM148.759 169.21L155.022 172.336C156.149 170.078 155.974 167.389 154.563 165.296L148.759 169.21ZM148.748 169.194L142.726 172.764C142.788 172.868 142.852 172.971 142.92 173.071L148.748 169.194ZM148.651 169.031L142.448 172.275C142.505 172.385 142.566 172.493 142.629 172.6L148.651 169.031ZM145.486 162.978L151.689 159.734C150.809 158.051 149.283 156.798 147.461 156.262C145.638 155.727 143.677 155.954 142.026 156.893L145.486 162.978ZM106.457 173.229L106.645 180.227L106.645 180.227L106.457 173.229ZM64.1323 163.606L67.5575 157.501C64.3524 155.703 60.3023 156.69 58.2833 159.76L64.1323 163.606ZM60.7036 168.821L54.8546 164.975C53.156 167.559 53.3534 170.95 55.3403 173.319L60.7036 168.821ZM63.9692 172.714L69.5692 168.514C69.493 168.413 69.4141 168.313 69.3325 168.216L63.9692 172.714ZM64.0835 172.867L69.8751 168.935C69.8134 168.844 69.7495 168.755 69.6835 168.667L64.0835 172.867ZM63.7397 175.329L68.2369 180.693L68.2379 180.692L63.7397 175.329ZM61.2553 175.237L56.1284 180.003C56.2078 180.088 56.2894 180.172 56.373 180.253L61.2553 175.237ZM61.1264 175.098L55.7632 179.597C55.8396 179.688 55.9184 179.777 55.9994 179.864L61.1264 175.098ZM58.6274 172.119L63.9907 167.62C62.5449 165.897 60.3587 164.973 58.1149 165.138C55.8711 165.302 53.8433 166.535 52.6647 168.452L58.6274 172.119ZM56.2299 176.017L62.1913 179.686L62.1926 179.684L56.2299 176.017ZM53.6792 176.625L50.0096 182.586L50.0115 182.587L53.6792 176.625ZM53.0717 174.074L59.0336 177.742L59.0353 177.739L53.0717 174.074ZM54.9253 171.058L60.8889 174.724C62.2622 172.489 62.2713 169.675 60.9124 167.431C59.5535 165.188 57.0547 163.893 54.4383 164.075L54.9253 171.058ZM48.4272 171.511L48.912 178.495L48.9142 178.494L48.4272 171.511ZM46.4477 169.79L39.4645 170.274L39.4647 170.276L46.4477 169.79ZM48.1694 167.811L47.6815 160.828L47.6811 160.828L48.1694 167.811ZM57.352 167.17L57.8399 174.153C60.0191 174 62.0022 172.839 63.2019 171.014L57.352 167.17ZM60.9497 161.695L66.7996 165.539C67.8266 163.976 68.1856 162.068 67.7965 160.239C67.4074 158.409 66.3026 156.812 64.7284 155.802L60.9497 161.695ZM38.1626 123.735L31.165 123.921L31.1651 123.923L38.1626 123.735ZM40.3139 108.597L46.9856 110.716C47.7331 108.362 47.185 105.789 45.5431 103.944L40.3139 108.597ZM32.4038 70.4801L29.6791 76.928L29.6792 76.9281L32.4038 70.4801ZM61.1753 80.357L59.4458 87.14C61.7556 87.7289 64.2063 87.102 65.9495 85.4762C67.6927 83.8505 68.4889 81.4494 68.0622 79.1042L61.1753 80.357ZM60.3608 72.5348L67.3584 72.3516L67.3583 72.3469L60.3608 72.5348ZM102.509 26.0162L102.698 33.0137C122.58 32.4778 139.488 48.0704 140.087 70.3926L147.084 70.2047L154.082 70.0168C153.286 40.375 130.337 18.2637 102.321 19.0187L102.509 26.0162ZM147.084 70.2047L140.087 70.3883C140.151 72.8489 140.021 75.2379 139.699 77.5456L146.631 78.5143L153.564 79.4829C153.998 76.3748 154.166 73.2137 154.082 70.021L147.084 70.2047ZM146.631 78.5143L142.853 84.4069C147.717 87.5259 151.916 91.2275 155.306 95.3369L160.706 90.8824L166.105 86.428C161.735 81.1299 156.422 76.4766 150.41 72.6216L146.631 78.5143ZM160.706 90.8824L155.303 95.3339C161.292 102.601 164.756 111.161 165 120.323L171.998 120.136L178.995 119.95C178.66 107.359 173.874 95.8565 166.108 86.431L160.706 90.8824ZM171.998 120.136L165 120.325C165.381 134.488 157.907 146.749 144.867 155.171L148.665 161.051L152.462 166.932C168.752 156.411 179.533 139.935 178.995 119.948L171.998 120.136ZM148.665 161.051L142.462 164.296L145.736 170.556L151.939 167.311L158.142 164.067L154.867 157.807L148.665 161.051ZM151.939 167.311L145.574 170.224L145.653 170.397L152.018 167.484L158.383 164.571L158.304 164.398L151.939 167.311ZM152.018 167.484L145.517 170.079C145.472 169.967 145.438 169.873 145.416 169.81C145.395 169.748 145.379 169.701 145.375 169.689C145.373 169.683 145.371 169.677 145.373 169.683C145.374 169.686 145.379 169.699 145.384 169.715C145.394 169.745 145.415 169.81 145.444 169.891L152.042 167.555L158.641 165.22C158.666 165.289 158.683 165.342 158.689 165.36C158.692 165.37 158.695 165.377 158.694 165.374C158.694 165.374 158.692 165.37 158.691 165.367C158.69 165.363 158.688 165.357 158.686 165.35C158.678 165.326 158.659 165.267 158.633 165.193C158.607 165.118 158.569 165.013 158.519 164.889L152.018 167.484ZM152.042 167.555L151.228 174.508L156.151 175.085L156.966 168.132L157.781 161.18L152.857 160.603L152.042 167.555ZM156.966 168.132L156.149 175.085C153.33 174.753 151.309 172.2 151.64 169.376L158.592 170.19L165.545 171.004C166.114 166.146 162.636 161.751 157.783 161.18L156.966 168.132ZM158.592 170.19L151.64 169.373C151.971 166.557 154.521 164.534 157.347 164.864L156.535 171.817L155.722 178.77C160.582 179.338 164.975 175.857 165.544 171.007L158.592 170.19ZM156.535 171.817L157.352 164.865L154.269 164.503L153.452 171.455L152.635 178.407L155.718 178.769L156.535 171.817ZM153.452 171.455L146.791 173.607L148.123 177.73L154.784 175.578L161.445 173.426L160.113 169.303L153.452 171.455ZM154.784 175.578L148.121 177.725C147.251 175.024 148.731 172.126 151.436 171.252L153.588 177.913L155.741 184.574C160.394 183.07 162.945 178.08 161.446 173.431L154.784 175.578ZM153.588 177.913L151.439 171.251C154.145 170.378 157.041 171.864 157.914 174.563L151.253 176.717L144.593 178.871C146.096 183.519 151.083 186.076 155.738 184.575L153.588 177.913ZM151.253 176.717L157.915 174.567L157.092 172.017L150.43 174.167L143.768 176.317L144.592 178.867L151.253 176.717ZM150.43 174.167L144.167 171.04L143.287 172.803L149.55 175.929L155.813 179.056L156.693 177.293L150.43 174.167ZM149.55 175.929L143.289 172.8C144.557 170.262 147.644 169.227 150.189 170.498L147.062 176.76L143.935 183.023C148.313 185.209 153.628 183.429 155.812 179.058L149.55 175.929ZM147.062 176.76L150.191 170.499C152.736 171.771 153.761 174.86 152.495 177.397L146.232 174.272L139.968 171.147C137.788 175.516 139.556 180.835 143.933 183.022L147.062 176.76ZM146.232 174.272L152.495 177.399L155.022 172.336L148.759 169.21L142.496 166.083L139.969 171.145L146.232 174.272ZM148.759 169.21L154.563 165.296C154.51 165.218 154.463 165.151 154.423 165.096C154.383 165.041 154.349 164.995 154.323 164.961C154.31 164.944 154.298 164.929 154.288 164.916C154.278 164.903 154.27 164.892 154.263 164.884C154.257 164.876 154.252 164.87 154.249 164.866C154.247 164.864 154.246 164.862 154.245 164.862C154.245 164.861 154.244 164.86 154.245 164.861C154.245 164.861 154.245 164.862 154.246 164.863C154.247 164.864 154.249 164.866 154.251 164.868C154.254 164.873 154.26 164.88 154.267 164.889C154.274 164.898 154.283 164.909 154.293 164.923C154.304 164.936 154.316 164.952 154.33 164.97C154.357 165.006 154.392 165.054 154.433 165.11C154.474 165.167 154.522 165.236 154.575 165.316L148.748 169.194L142.92 173.071C142.974 173.153 143.023 173.224 143.065 173.282C143.106 173.339 143.143 173.388 143.171 173.425C143.199 173.462 143.222 173.492 143.237 173.511C143.251 173.528 143.262 173.543 143.262 173.543C143.264 173.545 143.261 173.542 143.259 173.54C143.257 173.537 143.252 173.531 143.247 173.523C143.235 173.509 143.215 173.483 143.19 173.45C143.165 173.417 143.131 173.373 143.093 173.319C143.054 173.266 143.007 173.2 142.955 173.123L148.759 169.21ZM148.748 169.194L154.769 165.624L154.672 165.461L148.651 169.031L142.629 172.6L142.726 172.764L148.748 169.194ZM148.651 169.031L154.854 165.787L151.689 159.734L145.486 162.978L139.283 166.222L142.448 172.275L148.651 169.031ZM145.486 162.978L142.026 156.893C132.256 162.448 119.919 165.864 106.268 166.232L106.457 173.229L106.645 180.227C122.342 179.804 136.97 175.873 148.946 169.063L145.486 162.978ZM106.457 173.229L106.268 166.232C91.4465 166.63 77.9956 163.358 67.5575 157.501L64.1323 163.606L60.707 169.711C73.6125 176.952 89.6173 180.685 106.645 180.227L106.457 173.229ZM64.1323 163.606L58.2833 159.76L54.8546 164.975L60.7036 168.821L66.5526 172.667L69.9813 167.452L64.1323 163.606ZM60.7036 168.821L55.3403 173.319L58.6059 177.213L63.9692 172.714L69.3325 168.216L66.0669 164.323L60.7036 168.821ZM63.9692 172.714L58.3692 176.914L58.4835 177.067L64.0835 172.867L69.6835 168.667L69.5692 168.514L63.9692 172.714ZM64.0835 172.867L58.2918 176.798C56.8251 174.638 57.195 171.682 59.2415 169.965L63.7397 175.329L68.2379 180.692C71.7558 177.742 72.3975 172.651 69.8751 168.935L64.0835 172.867ZM63.7397 175.329L59.2425 169.964C61.2939 168.245 64.2697 168.403 66.1376 170.221L61.2553 175.237L56.373 180.253C59.5884 183.383 64.7137 183.647 68.2369 180.693L63.7397 175.329ZM61.2553 175.237L66.3823 170.471L66.2534 170.332L61.1264 175.098L55.9994 179.864L56.1284 180.003L61.2553 175.237ZM61.1264 175.098L66.4897 170.6L63.9907 167.62L58.6274 172.119L53.2641 176.617L55.7632 179.597L61.1264 175.098ZM58.6274 172.119L52.6647 168.452L50.2673 172.35L56.2299 176.017L62.1926 179.684L64.5901 175.786L58.6274 172.119ZM56.2299 176.017L50.2686 172.348C51.758 169.928 54.9271 169.174 57.3468 170.662L53.6792 176.625L50.0115 182.587C54.1759 185.149 59.6282 183.851 62.1913 179.686L56.2299 176.017ZM53.6792 176.625L57.3488 170.664C59.7669 172.152 60.5233 175.321 59.0336 177.742L53.0717 174.074L47.1099 170.405C44.5466 174.571 45.8471 180.023 50.0096 182.586L53.6792 176.625ZM53.0717 174.074L59.0353 177.739L60.8889 174.724L54.9253 171.058L48.9617 167.393L47.1081 170.408L53.0717 174.074ZM54.9253 171.058L54.4383 164.075L47.9403 164.528L48.4272 171.511L48.9142 178.494L55.4122 178.041L54.9253 171.058ZM48.4272 171.511L47.9425 164.528C50.7748 164.332 53.2331 166.467 53.4308 169.303L46.4477 169.79L39.4647 170.276C39.8048 175.156 44.0363 178.833 48.912 178.495L48.4272 171.511ZM46.4477 169.79L53.4309 169.305C53.6279 172.143 51.4869 174.596 48.6577 174.794L48.1694 167.811L47.6811 160.828C42.8089 161.169 39.1258 165.393 39.4645 170.274L46.4477 169.79ZM48.1694 167.811L48.6573 174.794L57.8399 174.153L57.352 167.17L56.8641 160.187L47.6815 160.828L48.1694 167.811ZM57.352 167.17L63.2019 171.014L66.7996 165.539L60.9497 161.695L55.0998 157.851L51.5021 163.325L57.352 167.17ZM60.9497 161.695L64.7284 155.802C52.7119 148.096 45.5188 136.87 45.16 123.547L38.1626 123.735L31.1651 123.923C31.6698 142.666 41.9634 157.835 57.1709 167.587L60.9497 161.695ZM38.1626 123.735L45.1601 123.549C45.0424 119.126 45.6805 114.825 46.9856 110.716L40.3139 108.597L33.6423 106.478C31.8778 112.034 31.0046 117.892 31.165 123.921L38.1626 123.735ZM40.3139 108.597L45.5431 103.944C40.2345 97.9784 34.7182 87.6952 32.5101 79.9648C31.9745 78.0896 31.697 76.5763 31.6174 75.4642C31.5295 74.2356 31.7249 74.0651 31.5536 74.4568C31.2139 75.2333 30.2619 76.2232 28.9556 76.4769C28.1762 76.6283 28.2242 76.3132 29.6791 76.928L32.4038 70.4801L35.1285 64.0321C32.5548 62.9446 29.4506 62.1191 26.2862 62.7337C22.5951 63.4507 20.0256 65.8774 18.727 68.8462C17.5968 71.4301 17.4917 74.2072 17.6531 76.4633C17.8229 78.8359 18.3443 81.3444 19.0485 83.8098C21.7996 93.4417 28.2955 105.622 35.0847 113.251L40.3139 108.597ZM32.4038 70.4801L29.6792 76.9281C38.2504 80.5497 48.8579 84.4404 59.4458 87.14L61.1753 80.357L62.9047 73.574C53.1861 71.0961 43.264 67.4697 35.1283 64.0321L32.4038 70.4801ZM61.1753 80.357L68.0622 79.1042C67.6623 76.9055 67.4186 74.6498 67.3584 72.3516L60.3608 72.5348L53.3632 72.7179C53.443 75.7661 53.7657 78.7372 54.2883 81.6099L61.1753 80.357ZM60.3608 72.5348L67.3583 72.3469C66.7592 50.0274 82.8115 33.5497 102.698 33.0137L102.509 26.0162L102.321 19.0187C74.3084 19.7737 52.5676 43.0778 53.3633 72.7226L60.3608 72.5348Z" fill="white" mask="url(#path-1-outside-1_898_2844)"/>
<path d="M142.996 154.212C143.904 153.737 145.024 154.088 145.499 154.996L151.94 167.312L152.019 167.484C152.028 167.507 152.034 167.532 152.042 167.555L156.966 168.132C157.983 168.251 158.711 169.172 158.592 170.19C158.473 171.207 157.552 171.936 156.534 171.816L153.451 171.454L154.783 175.577C155.098 176.552 154.563 177.597 153.588 177.912C152.613 178.227 151.568 177.691 151.253 176.717L150.43 174.167L149.551 175.929C149.093 176.845 147.979 177.217 147.063 176.76C146.146 176.302 145.775 175.188 146.232 174.272L148.759 169.21C148.755 169.205 148.752 169.2 148.748 169.194L148.651 169.031L142.212 156.715C141.737 155.807 142.088 154.687 142.996 154.212Z" fill="#474747"/>
<path d="M64.6475 156.071C65.2103 155.216 66.3604 154.978 67.2162 155.54C68.0716 156.103 68.3091 157.253 67.747 158.109L60.7045 168.823L63.9689 172.715L64.0831 172.867C64.611 173.645 64.475 174.712 63.7392 175.329C63.0033 175.945 61.9291 175.893 61.2555 175.238L61.1256 175.099L58.6282 172.12L56.2305 176.018C55.6937 176.89 54.5517 177.162 53.6793 176.625C52.807 176.088 52.5352 174.947 53.072 174.074L54.9262 171.058L48.4274 171.512C47.4056 171.583 46.5195 170.812 46.4482 169.79C46.377 168.768 47.1478 167.882 48.1697 167.811L57.3517 167.17L64.6475 156.071Z" fill="#474747"/>
<path d="M88.3642 83.3279C72.5339 85.2198 48.7914 77.4049 32.4035 70.4804C14.7084 63.003 30.8241 101.52 43.8516 112.035C52.9951 119.416 76.8618 124.542 91.0636 102.857" fill="#276288"/>
<path d="M171.998 120.137C172.814 150.452 143.412 172.235 106.456 173.229C69.4937 174.223 38.9784 154.043 38.1623 123.735C37.7097 106.73 46.7241 91.2832 61.2584 80.8146C60.7465 78.1363 60.4348 75.3689 60.3607 72.5347C59.6632 46.5526 78.5601 26.6616 102.509 26.0161C126.459 25.3706 146.387 44.2229 147.084 70.2051C147.158 73.0318 147.01 75.8066 146.632 78.5146C152.07 82.0017 156.826 86.1787 160.706 90.8825C167.584 99.2292 171.709 109.26 171.998 120.137Z" fill="#4B9AE8"/>
<path d="M128 67C132.971 67 137 62.9706 137 58C137 53.0294 132.971 49 128 49C123.029 49 119 53.0294 119 58C119 62.9706 123.029 67 128 67Z" fill="white"/>
<path d="M127.86 63.4606C130.84 63.4606 133.256 61.0448 133.256 58.0649C133.256 55.0849 130.84 52.6692 127.86 52.6692C124.88 52.6692 122.465 55.0849 122.465 58.0649C122.465 61.0448 124.88 63.4606 127.86 63.4606Z" fill="black"/>
<path d="M81 67C85.9706 67 90 62.9706 90 58C90 53.0294 85.9706 49 81 49C76.0295 49 72 53.0294 72 58C72 62.9706 76.0295 67 81 67Z" fill="white"/>
<path d="M80.8603 63.4606C83.8402 63.4606 86.256 61.0448 86.256 58.0649C86.256 55.0849 83.8402 52.6692 80.8603 52.6692C77.8803 52.6692 75.4646 55.0849 75.4646 58.0649C75.4646 61.0448 77.8803 63.4606 80.8603 63.4606Z" fill="black"/>
<path d="M113.128 69.5086C112.418 73.8078 106.31 79.6435 101.941 78.933C97.5721 78.2225 93.6648 70.739 94.3757 66.4399C95.0866 62.1407 98.5173 59.1238 105.039 60.1886C111.561 61.2534 113.839 65.2095 113.128 69.5086Z" fill="#EAC00F"/>
<path d="M139.168 88.3044C139.168 88.3044 120.375 93.2011 109.914 95.9759C99.4598 98.7507 90.5716 104.404 103.229 106.853C115.893 109.301 117.726 105.361 115.411 113.129C113.104 120.905 102.999 131.418 112.087 134.281C126.533 138.837 148.649 119.035 152.292 104.018" fill="#276288"/>
<path d="M139.168 88.3044C139.168 88.3044 120.375 93.2011 109.914 95.9759C99.4598 98.7507 90.5716 104.404 103.229 106.853C115.893 109.301 117.726 105.361 115.411 113.129C113.104 120.905 102.999 131.418 112.087 134.281C126.533 138.837 148.649 119.035 152.292 104.018C154.053 97.8006 153.892 85.9529 139.168 88.3044Z" fill="#276288"/>
</svg>
