<svg width="342" height="452" viewBox="0 0 342 452" fill="none" xmlns="http://www.w3.org/2000/svg">
<rect width="342" height="452" fill="#F9E0F9"/>
<mask id="mask0_552_1275" style="mask-type:alpha" maskUnits="userSpaceOnUse" x="0" y="0" width="342" height="452">
<rect width="342" height="452" fill="white"/>
</mask>
<g mask="url(#mask0_552_1275)">
<path d="M296.985 310.985C296.985 312.995 296.908 315.005 296.802 316.954C296.786 317.122 296.771 317.274 296.771 317.427C295.473 336.174 288.542 352.911 277.396 366.922C263.579 384.329 243.273 397.487 219.227 404.949C214.127 406.563 208.845 407.888 203.425 408.969C195.974 410.447 188.264 411.391 180.34 411.787C178.752 411.878 177.149 411.939 175.546 411.97C174.202 411.985 172.844 412 171.485 412C170.126 412 168.782 411.985 167.439 411.97C158.095 411.756 148.996 410.782 140.278 409.122C134.873 408.086 129.59 406.776 124.491 405.193C100.109 397.745 79.5583 384.511 65.5884 366.937C65.5884 366.937 65.5884 366.922 65.5731 366.922C54.3972 352.85 47.4352 335.991 46.1985 317.122C46.1985 317 46.1832 316.848 46.1679 316.711C46.0611 314.822 46 312.919 46 310.985C46 308.731 46.0763 306.492 46.229 304.284C48.4123 273.536 65.5426 246.26 91.4212 227.742V226.782C91.4365 223.599 91.4976 213.457 91.4976 208.873C91.4976 158.525 127.315 121 171.485 121C173.012 121 174.538 121.03 176.05 121.152C218.112 123.619 251.487 160.276 251.487 208.873C251.487 214.34 249.869 225.351 249.09 226.051C249.273 226.158 249.441 226.264 249.579 226.356C250.922 227.209 251.548 227.742 251.548 227.742C277.427 246.199 294.542 273.445 296.74 304.177C296.908 306.431 297 308.7 297 310.985H296.985Z" fill="#4D8DCB"/>
<path d="M208.34 185.014C216.812 185.014 223.68 178.146 223.68 169.674C223.68 161.202 216.812 154.334 208.34 154.334C199.868 154.334 193 161.202 193 169.674C193 178.146 199.868 185.014 208.34 185.014Z" fill="white"/>
<path d="M208.34 177.851C212.856 177.851 216.516 174.19 216.516 169.674C216.516 165.158 212.856 161.497 208.34 161.497C203.824 161.497 200.163 165.158 200.163 169.674C200.163 174.19 203.824 177.851 208.34 177.851Z" fill="#040000"/>
<path d="M134.34 185.014C142.812 185.014 149.68 178.146 149.68 169.674C149.68 161.202 142.812 154.334 134.34 154.334C125.868 154.334 119 161.202 119 169.674C119 178.146 125.868 185.014 134.34 185.014Z" fill="white"/>
<path d="M134.34 177.851C138.856 177.851 142.517 174.19 142.517 169.674C142.517 165.158 138.856 161.497 134.34 161.497C129.824 161.497 126.164 165.158 126.164 169.674C126.164 174.19 129.824 177.851 134.34 177.851Z" fill="#040000"/>
<rect x="-24" y="262" width="390" height="225" fill="#FFF9FF"/>
<rect x="-24" y="380" width="390" height="107" fill="#F4E7F4"/>
<ellipse cx="171" cy="315.72" rx="108.295" ry="44.8157" fill="#BFE7F3"/>
<ellipse cx="171" cy="312.988" rx="82.2905" ry="35.6216" fill="#93D7EA"/>
<path d="M258.461 203.053C262.463 192.181 272.034 185.697 279.837 188.57C287.64 191.443 290.722 202.584 286.72 213.455C283.2 223.016 275.373 229.182 268.229 228.575L261.008 245.737C260.179 247.707 257.91 248.631 255.94 247.802C253.971 246.973 253.046 244.704 253.875 242.734L261.225 225.267C256.588 220.59 255.265 211.735 258.461 203.053Z" fill="#C3C3C3"/>
<ellipse cx="254.5" cy="255.127" rx="32.5" ry="22" fill="#276286"/>
<path d="M72.6013 191.192C71.0438 191.798 70.2899 193.513 70.8846 195.041L75.1161 205.914C75.4249 206.707 75.03 207.605 74.2366 207.914C73.4432 208.223 72.5451 207.828 72.2363 207.035L68.0505 196.279C67.4558 194.751 65.7657 193.886 64.2556 194.44C62.6753 194.987 61.8741 196.754 62.4802 198.312L66.7117 209.185C67.0205 209.978 66.6256 210.876 65.8322 211.185C65.0388 211.494 64.1407 211.099 63.8319 210.305L59.6461 199.55C59.0514 198.022 57.3613 197.157 55.8512 197.711C54.2709 198.258 53.4697 200.025 54.0758 201.583L61.3037 220.155C62.7212 223.797 65.7108 226.354 69.1899 227.351C72.3869 228.201 74.6711 234.07 74.6711 234.07L82.8295 252.84C83.6415 254.926 86.0092 255.968 88.0957 255.156L89.036 254.79C91.1224 253.978 92.1635 251.61 91.3515 249.523L83.1816 230.724C83.1816 230.724 80.8528 224.74 82.6511 222.112C84.5641 219.019 85.05 215.093 83.6257 211.433L76.4092 192.891C75.8439 191.351 74.1293 190.597 72.6013 191.192Z" fill="#C3C3C3"/>
<ellipse cx="88.5" cy="255.127" rx="32.5" ry="22" fill="#276286"/>
<path d="M185.753 195.072C183.169 201.344 173.169 209.956 165.705 208.014C158.241 206.073 153.233 193.279 154.742 186.18C156.247 179.094 162.763 175.711 173.901 178.623C185.161 181.567 188.337 188.8 185.753 195.072Z" fill="#DDB61E"/>
<path opacity="0.5" d="M185.754 195.072C183.174 201.331 173.183 209.96 165.705 208.014C164.536 207.701 163.419 207.14 162.381 206.337C169.141 205.468 176.605 198.492 178.794 193.207C181.089 187.63 178.823 181.297 170.37 177.881C171.487 178.063 172.661 178.305 173.888 178.619C185.162 181.567 188.32 188.81 185.74 195.068L185.754 195.072Z" fill="#987D26"/>
<path d="M291.251 244.803C291.251 244.803 297.99 301.729 298.463 302.046C298.937 302.364 302.437 305.844 312.535 305.921C322.633 305.997 326.186 302.557 326.66 302.252C327.133 301.946 334.692 245.124 334.692 245.124C334.692 245.124 318.9 231.417 291.262 244.81L291.251 244.803Z" fill="#F1E2D2" stroke="#B09981" stroke-width="1.05154" stroke-miterlimit="10"/>
<path d="M290.659 243.774C290.659 243.774 291.554 252.204 291.964 253.12C292.373 254.036 299.397 258.268 312.877 258.369C326.355 258.462 333.434 254.332 333.863 253.424C334.292 252.515 335.298 244.097 335.298 244.097C335.298 244.097 308.446 251.419 290.659 243.774Z" fill="#F1E2D2" stroke="#B09981" stroke-width="1.05154" stroke-miterlimit="10"/>
<path opacity="0.3" d="M338.711 241.997C338.741 237.968 327.249 234.619 313.045 234.516C298.84 234.413 287.302 237.596 287.273 241.624C287.243 245.653 298.735 249.002 312.939 249.105C327.144 249.208 338.682 246.025 338.711 241.997Z" fill="#DADBDB" stroke="#040000" stroke-width="1.05154" stroke-miterlimit="10"/>
<path opacity="0.85" d="M336.978 241.984C337.002 238.63 326.283 235.834 313.036 235.738C299.789 235.642 289.031 238.283 289.006 241.637C288.982 244.99 299.701 247.787 312.948 247.882C326.195 247.978 336.954 245.338 336.978 241.984Z" fill="#F9FCFD"/>
<path d="M312.778 287.728C314.454 287.335 315.494 285.658 315.101 283.982C314.709 282.306 313.032 281.266 311.356 281.659C309.68 282.051 308.64 283.728 309.032 285.404C309.425 287.08 311.102 288.12 312.778 287.728Z" fill="#040000" stroke="#040000" stroke-width="0.416826" stroke-miterlimit="10"/>
<path d="M322.826 292.574C324.502 292.181 325.542 290.504 325.15 288.828C324.757 287.152 323.08 286.112 321.404 286.505C319.728 286.897 318.688 288.574 319.081 290.25C319.473 291.926 321.15 292.966 322.826 292.574Z" fill="#040000" stroke="#040000" stroke-width="0.416826" stroke-miterlimit="10"/>
<path d="M320.683 285.544C322.359 285.151 323.399 283.474 323.007 281.799C322.614 280.123 320.937 279.082 319.261 279.475C317.585 279.868 316.545 281.544 316.937 283.22C317.33 284.896 319.007 285.937 320.683 285.544Z" fill="#040000" stroke="#040000" stroke-width="0.416826" stroke-miterlimit="10"/>
<path d="M321.816 300.603C323.492 300.21 324.533 298.533 324.14 296.857C323.747 295.181 322.07 294.141 320.394 294.534C318.718 294.926 317.678 296.603 318.071 298.279C318.463 299.955 320.14 300.995 321.816 300.603Z" fill="#040000" stroke="#040000" stroke-width="0.416826" stroke-miterlimit="10"/>
<path d="M315.414 295.283C317.09 294.89 318.13 293.213 317.738 291.537C317.345 289.861 315.668 288.821 313.992 289.214C312.316 289.606 311.276 291.283 311.668 292.959C312.061 294.635 313.738 295.676 315.414 295.283Z" fill="#040000" stroke="#040000" stroke-width="0.416826" stroke-miterlimit="10"/>
<path d="M305.135 289.323C306.811 288.931 307.851 287.254 307.458 285.578C307.066 283.902 305.389 282.861 303.713 283.254C302.037 283.647 300.997 285.324 301.389 287C301.782 288.675 303.459 289.716 305.135 289.323Z" fill="#040000" stroke="#040000" stroke-width="0.416826" stroke-miterlimit="10"/>
<path d="M313.286 303.185C314.962 302.793 316.002 301.116 315.61 299.44C315.217 297.764 313.54 296.724 311.864 297.116C310.188 297.509 309.148 299.186 309.54 300.862C309.933 302.538 311.61 303.578 313.286 303.185Z" fill="#040000" stroke="#040000" stroke-width="0.416826" stroke-miterlimit="10"/>
<path d="M305.366 298.328C307.042 297.935 308.082 296.258 307.69 294.582C307.297 292.907 305.62 291.866 303.944 292.259C302.268 292.651 301.228 294.328 301.621 296.004C302.013 297.68 303.69 298.721 305.366 298.328Z" fill="#040000" stroke="#040000" stroke-width="0.416826" stroke-miterlimit="10"/>
<path d="M313.208 269.32C315.285 269.32 316.969 267.636 316.969 265.559C316.969 263.482 315.285 261.798 313.208 261.798C311.131 261.798 309.447 263.482 309.447 265.559C309.447 267.636 311.131 269.32 313.208 269.32Z" fill="#4E90CD"/>
<path d="M312.069 266.03C312.676 266.03 313.168 265.538 313.168 264.931C313.168 264.324 312.676 263.832 312.069 263.832C311.462 263.832 310.97 264.324 310.97 264.931C310.97 265.538 311.462 266.03 312.069 266.03Z" fill="white"/>
<path d="M312.068 265.499C312.382 265.499 312.637 265.245 312.637 264.931C312.637 264.617 312.382 264.362 312.068 264.362C311.754 264.362 311.5 264.617 311.5 264.931C311.5 265.245 311.754 265.499 312.068 265.499Z" fill="#040000"/>
<path d="M309.841 267.215C309.329 267.315 308.43 266.884 308.332 266.381C308.234 265.879 308.906 265.138 309.409 265.039C309.911 264.941 310.388 265.19 310.537 265.952C310.687 266.715 310.334 267.119 309.831 267.217L309.841 267.215Z" fill="#DFB820"/>
<path opacity="0.68" d="M306.185 257.426C302.705 257.064 299.859 256.213 297.635 255.567L296.739 247.964C299.275 248.488 302.222 248.897 305.426 249.159L306.185 257.426Z" fill="#EDEDEC"/>
<path opacity="0.68" d="M309.122 293.263L301.205 290.827L297.725 256.702C299.938 257.342 302.485 258 306.269 258.495L309.115 293.109L309.129 293.252L309.122 293.263Z" fill="#EDEDEC"/>
<path opacity="0.85" d="M309.087 293.432C309.35 292.604 307.788 291.37 305.599 290.675C303.41 289.981 301.422 290.089 301.159 290.916C300.897 291.744 302.458 292.979 304.648 293.673C306.837 294.368 308.825 294.26 309.087 293.432Z" fill="#B4B3B4"/>
<path opacity="0.68" d="M305.121 247.528C301.851 247.233 298.889 246.759 296.414 246.162L296.375 245.743L296.218 244.243L296.049 242.57L295.53 237.447L295.414 236.287L293.675 219.142L293.667 219.027L302.809 219.094L304.096 234.886L304.191 236.08L304.509 240.014L304.824 243.89L305.084 247.079L305.123 247.537L305.121 247.528Z" fill="#EDEDEC"/>
<path opacity="0.85" d="M302.804 219.093C302.811 218.225 300.767 217.506 298.24 217.487C295.713 217.469 293.66 218.158 293.653 219.027C293.647 219.895 295.691 220.614 298.218 220.632C300.745 220.651 302.798 219.961 302.804 219.093Z" fill="#B4B3B4"/>
<path d="M304.821 243.881C304.821 243.881 303.219 245.599 296.219 244.251C300.526 242.659 304.821 243.881 304.821 243.881Z" fill="#B4B3B4"/>
<path d="M305.08 276.425L307.139 272.878L305.044 272.862C304.752 272.863 304.523 272.634 304.523 272.342C304.523 272.05 304.76 271.82 305.052 271.819L308.025 271.843C308.356 271.843 308.569 272.046 308.571 272.386C308.573 272.561 308.499 272.783 308.397 272.972L306.173 276.937C306.017 277.227 305.83 277.339 305.595 277.335C305.274 277.333 304.985 277.138 304.981 276.789C304.987 276.69 305.026 276.525 305.097 276.411L305.08 276.425Z" fill="#040000"/>
<path d="M309.915 276.46L311.974 272.913L309.878 272.898C309.586 272.898 309.358 272.669 309.357 272.378C309.357 272.086 309.595 271.855 309.887 271.855L312.86 271.878C313.191 271.878 313.404 272.082 313.406 272.422C313.408 272.596 313.333 272.818 313.231 273.007L311.008 276.973C310.852 277.262 310.664 277.374 310.43 277.371C310.108 277.368 309.819 277.173 309.815 276.824C309.821 276.725 309.86 276.56 309.931 276.446L309.915 276.46Z" fill="#040000"/>
<path d="M318.027 275.82L317.828 275.819C317.682 275.818 317.457 275.777 317.459 275.498L317.467 274.483C317.468 274.258 317.621 274.166 317.84 274.168L318.039 274.169L318.041 273.937C317.928 273.943 317.782 273.949 317.656 273.948C317.583 273.947 317.411 273.946 317.412 273.714C317.414 273.508 317.56 273.489 317.693 273.47C318.284 273.382 318.55 273.278 318.809 273.187C318.882 273.161 318.935 273.135 319.015 273.135C319.234 273.137 319.425 273.331 319.423 273.556C319.422 273.735 319.302 273.781 318.831 273.857L318.828 274.175L318.961 274.176C319.1 274.177 319.332 274.218 319.33 274.497L319.323 275.512C319.321 275.744 319.161 275.829 318.949 275.827L318.737 275.826L318.733 276.396C318.852 276.377 318.905 276.364 318.978 276.351C318.972 276.305 318.92 276.099 318.921 276.039C318.922 275.887 319.062 275.828 319.155 275.829C319.247 275.829 319.367 275.83 319.581 276.435C319.512 275.937 319.451 275.234 319.461 273.795C319.462 273.669 319.466 273.139 319.459 273.112C319.446 273.065 319.433 273.026 319.361 273.025L317.51 273.012C317.484 273.011 317.404 273.024 317.403 273.15C317.391 274.894 317.305 275.795 316.728 276.7C316.627 276.851 316.205 277.445 315.993 277.444C315.86 277.443 315.748 277.342 315.749 277.203C315.75 277.104 315.978 276.727 316.012 276.648C316.133 276.384 316.464 275.597 316.476 273.919C316.477 273.813 316.467 273.342 316.468 273.243C316.469 273.004 316.459 272.533 317.003 272.537L319.981 272.559C320.491 272.562 320.488 273.073 320.487 273.199C320.486 273.212 320.448 274.008 320.44 274.1C320.424 274.465 320.415 274.843 320.413 275.082C320.409 275.626 320.432 276.216 320.431 276.256C320.431 276.309 320.45 276.375 320.49 276.375C320.55 276.376 320.566 275.952 320.567 275.845C320.568 275.746 320.569 275.574 320.761 275.575C321 275.577 320.998 275.782 320.997 275.908C320.996 276.107 320.933 276.611 320.885 276.823C320.816 277.14 320.688 277.498 320.283 277.495C319.978 277.492 319.794 277.279 319.684 276.947C319.662 277.172 319.509 277.31 319.29 277.308C319.038 277.307 319.032 277.147 319.021 276.836C318.443 277.044 317.466 277.289 317.353 277.288C317.188 277.287 317.07 277.107 317.071 276.888C317.072 276.775 317.1 276.59 317.292 276.551C317.359 276.538 317.837 276.496 318.022 276.484L318.027 275.82ZM318.907 275.276L318.91 274.733C318.911 274.646 318.891 274.646 318.725 274.645L318.72 275.361C318.806 275.362 318.853 275.356 318.873 275.349C318.899 275.336 318.906 275.316 318.907 275.276ZM317.883 274.725L317.879 275.269C317.878 275.349 317.891 275.349 318.064 275.35L318.069 274.64C317.983 274.64 317.93 274.639 317.91 274.652C317.896 274.666 317.883 274.685 317.883 274.725ZM316.301 272.399L316.287 274.316C316.281 275.158 316.07 275.965 315.587 276.672C315.4 276.955 315.012 277.403 314.826 277.402C314.68 277.401 314.588 277.294 314.589 277.168C314.589 277.109 314.596 277.095 314.683 276.943C314.905 276.547 315.062 275.925 315.125 275.461C315.032 275.58 314.938 275.685 314.825 275.685C314.633 275.683 314.522 275.424 314.524 275.172C314.525 274.973 314.579 274.847 314.692 274.782C314.759 274.742 315.105 274.592 315.178 274.553L315.182 274.096C315.155 274.109 315.115 274.128 315.055 274.128C314.969 274.127 314.896 274.08 314.857 274.014C314.818 273.947 314.805 273.901 314.722 273.469C314.703 273.356 314.548 272.818 314.548 272.765C314.549 272.619 314.669 272.54 314.775 272.541C314.908 272.542 315.098 272.769 315.19 272.889L315.194 272.398C315.198 271.795 315.669 271.798 316.087 271.801L317.38 271.81L317.381 271.618C317.384 271.293 317.564 271.149 318.001 271.152C318.505 271.155 318.596 271.388 318.595 271.627L318.593 271.819L320.742 271.835C320.961 271.836 320.959 272.009 320.959 272.075C320.958 272.274 320.831 272.3 320.719 272.299L316.428 272.268C316.369 272.267 316.302 272.287 316.301 272.399Z" fill="#040000"/>
</g>
</svg>
