<svg width="557" height="452" viewBox="0 0 557 452" fill="none" xmlns="http://www.w3.org/2000/svg">
<g clip-path="url(#clip0_557_1921)">
<rect width="557" height="452" fill="#F9E0F9"/>
<path d="M432.985 310.985C432.985 312.995 432.908 315.005 432.802 316.954C432.786 317.122 432.771 317.274 432.771 317.427C431.473 336.174 424.542 352.911 413.396 366.922C399.579 384.329 379.273 397.487 355.227 404.949C350.127 406.563 344.845 407.888 339.425 408.969C331.974 410.447 324.264 411.391 316.34 411.787C314.752 411.878 313.149 411.939 311.546 411.97C310.202 411.985 308.844 412 307.485 412C306.126 412 304.782 411.985 303.439 411.97C294.095 411.756 284.996 410.782 276.278 409.122C270.873 408.086 265.59 406.776 260.491 405.193C236.109 397.745 215.558 384.511 201.588 366.937C201.588 366.937 201.588 366.922 201.573 366.922C190.397 352.85 183.435 335.991 182.198 317.122C182.198 317 182.183 316.848 182.168 316.711C182.061 314.822 182 312.919 182 310.985C182 308.731 182.076 306.492 182.229 304.284C184.412 273.536 201.543 246.26 227.421 227.742V226.782C227.436 223.599 227.498 213.457 227.498 208.873C227.498 158.525 263.315 121 307.485 121C309.012 121 310.538 121.03 312.05 121.152C354.112 123.619 387.487 160.276 387.487 208.873C387.487 214.34 385.869 225.351 385.09 226.051C385.273 226.158 385.441 226.264 385.579 226.356C386.922 227.209 387.548 227.742 387.548 227.742C413.427 246.199 430.542 273.445 432.74 304.177C432.908 306.431 433 308.7 433 310.985H432.985Z" fill="#4D8DCB"/>
<path d="M344.34 185.014C352.812 185.014 359.68 178.146 359.68 169.674C359.68 161.202 352.812 154.334 344.34 154.334C335.868 154.334 329 161.202 329 169.674C329 178.146 335.868 185.014 344.34 185.014Z" fill="white"/>
<path d="M344.34 177.851C348.856 177.851 352.516 174.19 352.516 169.674C352.516 165.158 348.856 161.497 344.34 161.497C339.824 161.497 336.163 165.158 336.163 169.674C336.163 174.19 339.824 177.851 344.34 177.851Z" fill="#040000"/>
<path d="M270.34 185.014C278.812 185.014 285.68 178.146 285.68 169.674C285.68 161.202 278.812 154.334 270.34 154.334C261.868 154.334 255 161.202 255 169.674C255 178.146 261.868 185.014 270.34 185.014Z" fill="white"/>
<path d="M270.34 177.851C274.856 177.851 278.516 174.19 278.516 169.674C278.516 165.158 274.856 161.497 270.34 161.497C265.824 161.497 262.163 165.158 262.163 169.674C262.163 174.19 265.824 177.851 270.34 177.851Z" fill="#040000"/>
<path d="M394.462 203.052C398.464 192.181 408.034 185.698 415.837 188.57C423.64 191.443 426.722 202.584 422.72 213.455C419.2 223.016 411.374 229.182 404.23 228.576L397.008 245.737C396.179 247.706 393.91 248.631 391.941 247.803C389.971 246.974 389.047 244.705 389.876 242.735L397.226 225.266C392.589 220.589 391.266 211.735 394.462 203.052Z" fill="#C3C3C3"/>
<path d="M208.601 191.192C207.044 191.798 206.29 193.513 206.885 195.041L211.116 205.914C211.425 206.707 211.03 207.605 210.237 207.914C209.443 208.223 208.545 207.828 208.236 207.035L204.051 196.279C203.456 194.751 201.766 193.886 200.256 194.44C198.675 194.987 197.874 196.754 198.48 198.312L202.712 209.185C203.021 209.978 202.626 210.876 201.832 211.185C201.039 211.494 200.141 211.099 199.832 210.305L195.646 199.55C195.051 198.022 193.361 197.157 191.851 197.711C190.271 198.258 189.47 200.025 190.076 201.583L197.304 220.155C198.721 223.797 201.711 226.354 205.19 227.351C208.387 228.201 210.671 234.07 210.671 234.07L218.83 252.84C219.642 254.926 222.009 255.968 224.096 255.156L225.036 254.79C227.122 253.978 228.163 251.61 227.351 249.523L219.182 230.724C219.182 230.724 216.853 224.74 218.651 222.112C220.564 219.019 221.05 215.093 219.626 211.433L212.409 192.891C211.844 191.351 210.129 190.597 208.601 191.192Z" fill="#C3C3C3"/>
<path d="M321.753 195.072C319.169 201.344 309.169 209.956 301.705 208.014C294.241 206.073 289.233 193.279 290.742 186.18C292.247 179.094 298.763 175.711 309.901 178.623C321.161 181.567 324.337 188.8 321.753 195.072Z" fill="#DDB61E"/>
<path opacity="0.5" d="M321.753 195.072C319.173 201.331 309.182 209.96 301.705 208.015C300.536 207.701 299.419 207.14 298.381 206.337C305.141 205.468 312.605 198.492 314.793 193.207C317.089 187.63 314.823 181.297 306.37 177.881C307.486 178.064 308.66 178.305 309.887 178.619C321.161 181.567 324.32 188.81 321.74 195.068L321.753 195.072Z" fill="#987D26"/>
<rect y="262" width="557" height="225" fill="#FFF9FF"/>
<rect y="380" width="557" height="107" fill="#F4E7F4"/>
<path d="M427.251 244.803C427.251 244.803 433.99 301.729 434.463 302.046C434.937 302.364 438.437 305.844 448.535 305.921C458.633 305.997 462.186 302.557 462.66 302.252C463.133 301.946 470.692 245.124 470.692 245.124C470.692 245.124 454.9 231.417 427.262 244.81L427.251 244.803Z" fill="#F1E2D2" stroke="#B09981" stroke-width="1.05154" stroke-miterlimit="10"/>
<path d="M426.659 243.774C426.659 243.774 427.554 252.204 427.964 253.12C428.373 254.036 435.397 258.268 448.877 258.369C462.355 258.462 469.434 254.332 469.863 253.424C470.292 252.515 471.298 244.097 471.298 244.097C471.298 244.097 444.446 251.419 426.659 243.774Z" fill="#F1E2D2" stroke="#B09981" stroke-width="1.05154" stroke-miterlimit="10"/>
<path opacity="0.3" d="M474.711 241.997C474.741 237.968 463.249 234.619 449.045 234.516C434.84 234.413 423.302 237.596 423.273 241.624C423.243 245.653 434.735 249.002 448.939 249.105C463.144 249.208 474.682 246.025 474.711 241.997Z" fill="#DADBDB" stroke="#040000" stroke-width="1.05154" stroke-miterlimit="10"/>
<path opacity="0.85" d="M472.978 241.984C473.002 238.63 462.283 235.834 449.036 235.738C435.789 235.642 425.03 238.283 425.006 241.637C424.982 244.99 435.701 247.787 448.948 247.882C462.195 247.978 472.953 245.338 472.978 241.984Z" fill="#F9FCFD"/>
<path d="M448.778 287.728C450.454 287.335 451.494 285.658 451.101 283.982C450.709 282.306 449.032 281.266 447.356 281.659C445.68 282.051 444.64 283.728 445.032 285.404C445.425 287.08 447.102 288.12 448.778 287.728Z" fill="#040000" stroke="#040000" stroke-width="0.416826" stroke-miterlimit="10"/>
<path d="M458.826 292.574C460.501 292.181 461.542 290.504 461.149 288.828C460.757 287.152 459.08 286.112 457.404 286.504C455.728 286.897 454.687 288.574 455.08 290.25C455.473 291.926 457.15 292.966 458.826 292.574Z" fill="#040000" stroke="#040000" stroke-width="0.416826" stroke-miterlimit="10"/>
<path d="M456.683 285.544C458.359 285.151 459.399 283.474 459.007 281.799C458.614 280.123 456.937 279.082 455.261 279.475C453.585 279.868 452.545 281.544 452.937 283.22C453.33 284.896 455.007 285.937 456.683 285.544Z" fill="#040000" stroke="#040000" stroke-width="0.416826" stroke-miterlimit="10"/>
<path d="M457.817 300.603C459.493 300.21 460.533 298.533 460.14 296.857C459.748 295.181 458.071 294.141 456.395 294.534C454.719 294.926 453.679 296.603 454.071 298.279C454.464 299.955 456.141 300.995 457.817 300.603Z" fill="#040000" stroke="#040000" stroke-width="0.416826" stroke-miterlimit="10"/>
<path d="M451.414 295.283C453.09 294.89 454.131 293.213 453.738 291.537C453.345 289.861 451.669 288.821 449.993 289.214C448.317 289.606 447.276 291.283 447.669 292.959C448.062 294.635 449.738 295.675 451.414 295.283Z" fill="#040000" stroke="#040000" stroke-width="0.416826" stroke-miterlimit="10"/>
<path d="M441.134 289.323C442.81 288.931 443.85 287.254 443.458 285.578C443.065 283.902 441.388 282.861 439.712 283.254C438.036 283.647 436.996 285.324 437.389 287C437.781 288.675 439.458 289.716 441.134 289.323Z" fill="#040000" stroke="#040000" stroke-width="0.416826" stroke-miterlimit="10"/>
<path d="M449.285 303.185C450.961 302.793 452.002 301.116 451.609 299.44C451.217 297.764 449.54 296.724 447.864 297.116C446.188 297.509 445.147 299.186 445.54 300.862C445.933 302.538 447.61 303.578 449.285 303.185Z" fill="#040000" stroke="#040000" stroke-width="0.416826" stroke-miterlimit="10"/>
<path d="M441.366 298.328C443.042 297.935 444.082 296.258 443.689 294.582C443.297 292.907 441.62 291.866 439.944 292.259C438.268 292.651 437.227 294.328 437.62 296.004C438.013 297.68 439.69 298.721 441.366 298.328Z" fill="#040000" stroke="#040000" stroke-width="0.416826" stroke-miterlimit="10"/>
<path d="M449.207 269.32C451.284 269.32 452.968 267.636 452.968 265.559C452.968 263.482 451.284 261.798 449.207 261.798C447.13 261.798 445.446 263.482 445.446 265.559C445.446 267.636 447.13 269.32 449.207 269.32Z" fill="#4E90CD"/>
<path d="M448.069 266.03C448.676 266.03 449.168 265.538 449.168 264.931C449.168 264.324 448.676 263.832 448.069 263.832C447.462 263.832 446.97 264.324 446.97 264.931C446.97 265.538 447.462 266.03 448.069 266.03Z" fill="white"/>
<path d="M448.068 265.499C448.382 265.499 448.637 265.245 448.637 264.931C448.637 264.617 448.382 264.362 448.068 264.362C447.754 264.362 447.5 264.617 447.5 264.931C447.5 265.245 447.754 265.499 448.068 265.499Z" fill="#040000"/>
<path d="M445.84 267.215C445.328 267.315 444.43 266.884 444.331 266.381C444.233 265.879 444.906 265.138 445.408 265.039C445.911 264.941 446.387 265.19 446.537 265.952C446.686 266.715 446.333 267.119 445.831 267.217L445.84 267.215Z" fill="#DFB820"/>
<path opacity="0.68" d="M442.185 257.426C438.704 257.064 435.858 256.213 433.635 255.567L432.739 247.964C435.275 248.488 438.221 248.897 441.425 249.159L442.185 257.426Z" fill="#EDEDEC"/>
<path opacity="0.68" d="M445.122 293.263L437.205 290.827L433.725 256.702C435.938 257.342 438.485 258 442.269 258.495L445.115 293.109L445.129 293.252L445.122 293.263Z" fill="#EDEDEC"/>
<path opacity="0.85" d="M445.087 293.432C445.35 292.604 443.788 291.37 441.599 290.675C439.41 289.981 437.422 290.089 437.159 290.916C436.897 291.744 438.458 292.979 440.648 293.673C442.837 294.368 444.825 294.26 445.087 293.432Z" fill="#B4B3B4"/>
<path opacity="0.68" d="M441.121 247.528C437.851 247.233 434.889 246.759 432.414 246.162L432.375 245.743L432.218 244.243L432.049 242.57L431.53 237.447L431.414 236.287L429.675 219.142L429.667 219.027L438.809 219.094L440.096 234.885L440.191 236.079L440.509 240.014L440.824 243.89L441.084 247.079L441.123 247.537L441.121 247.528Z" fill="#EDEDEC"/>
<path opacity="0.85" d="M438.804 219.093C438.81 218.225 436.767 217.506 434.24 217.487C431.713 217.469 429.659 218.158 429.653 219.027C429.647 219.895 431.69 220.614 434.217 220.632C436.744 220.651 438.798 219.961 438.804 219.093Z" fill="#B4B3B4"/>
<path d="M440.822 243.881C440.822 243.881 439.22 245.599 432.22 244.251C436.527 242.659 440.822 243.881 440.822 243.881Z" fill="#B4B3B4"/>
<path d="M441.081 276.425L443.14 272.877L441.044 272.862C440.752 272.863 440.524 272.634 440.523 272.342C440.523 272.05 440.761 271.82 441.053 271.819L444.026 271.843C444.357 271.843 444.57 272.046 444.572 272.386C444.574 272.561 444.499 272.783 444.397 272.972L442.174 276.937C442.018 277.227 441.83 277.339 441.596 277.335C441.274 277.333 440.985 277.138 440.981 276.789C440.987 276.69 441.027 276.525 441.097 276.411L441.081 276.425Z" fill="#040000"/>
<path d="M445.915 276.46L447.974 272.913L445.878 272.898C445.586 272.898 445.358 272.669 445.357 272.377C445.357 272.086 445.595 271.855 445.887 271.855L448.86 271.878C449.191 271.878 449.404 272.081 449.406 272.422C449.408 272.596 449.333 272.818 449.231 273.007L447.008 276.972C446.852 277.262 446.664 277.374 446.43 277.371C446.108 277.368 445.819 277.173 445.815 276.824C445.821 276.725 445.86 276.56 445.931 276.446L445.915 276.46Z" fill="#040000"/>
<path d="M454.028 275.82L453.829 275.819C453.683 275.818 453.458 275.777 453.46 275.498L453.467 274.483C453.469 274.258 453.622 274.166 453.841 274.168L454.04 274.169L454.041 273.937C453.929 273.943 453.783 273.949 453.657 273.948C453.584 273.947 453.411 273.946 453.413 273.714C453.414 273.508 453.56 273.489 453.693 273.47C454.284 273.382 454.55 273.278 454.809 273.187C454.883 273.161 454.936 273.135 455.015 273.135C455.234 273.137 455.425 273.331 455.423 273.556C455.422 273.735 455.302 273.781 454.831 273.857L454.829 274.175L454.961 274.176C455.101 274.177 455.332 274.218 455.33 274.497L455.323 275.512C455.321 275.744 455.162 275.829 454.949 275.827L454.737 275.826L454.733 276.396C454.853 276.377 454.906 276.364 454.979 276.351C454.972 276.305 454.921 276.099 454.921 276.039C454.922 275.887 455.062 275.828 455.155 275.829C455.248 275.829 455.367 275.83 455.582 276.435C455.512 275.937 455.451 275.234 455.462 273.795C455.462 273.669 455.466 273.139 455.46 273.112C455.447 273.065 455.434 273.026 455.361 273.025L453.511 273.012C453.484 273.011 453.405 273.024 453.404 273.15C453.391 274.894 453.305 275.795 452.728 276.7C452.628 276.851 452.206 277.445 451.993 277.444C451.861 277.443 451.749 277.342 451.75 277.203C451.75 277.104 451.979 276.727 452.012 276.648C452.134 276.384 452.464 275.597 452.476 273.919C452.477 273.813 452.467 273.342 452.468 273.243C452.47 273.004 452.46 272.533 453.004 272.537L455.981 272.559C456.492 272.562 456.488 273.073 456.487 273.199C456.487 273.212 456.448 274.008 456.441 274.1C456.425 274.465 456.415 274.843 456.414 275.082C456.41 275.626 456.432 276.216 456.432 276.256C456.431 276.309 456.451 276.375 456.491 276.375C456.55 276.376 456.567 275.952 456.567 275.845C456.568 275.746 456.569 275.574 456.762 275.575C457 275.577 456.999 275.782 456.998 275.908C456.997 276.107 456.933 276.611 456.885 276.823C456.817 277.14 456.688 277.498 456.284 277.495C455.979 277.492 455.794 277.279 455.684 276.947C455.663 277.172 455.509 277.31 455.29 277.308C455.038 277.307 455.033 277.147 455.022 276.836C454.443 277.044 453.467 277.289 453.354 277.288C453.188 277.287 453.07 277.107 453.072 276.888C453.072 276.775 453.1 276.59 453.293 276.551C453.359 276.538 453.837 276.496 454.023 276.484L454.028 275.82ZM454.907 275.276L454.911 274.733C454.912 274.646 454.892 274.646 454.726 274.645L454.721 275.361C454.807 275.362 454.853 275.356 454.873 275.349C454.9 275.336 454.907 275.316 454.907 275.276ZM453.883 274.725L453.879 275.269C453.879 275.349 453.892 275.349 454.064 275.35L454.069 274.64C453.983 274.64 453.93 274.639 453.91 274.652C453.897 274.666 453.883 274.685 453.883 274.725ZM452.302 272.399L452.288 274.316C452.282 275.158 452.07 275.965 451.588 276.672C451.4 276.955 451.012 277.403 450.826 277.402C450.681 277.401 450.589 277.294 450.589 277.168C450.59 277.109 450.597 277.095 450.684 276.943C450.906 276.547 451.063 275.925 451.126 275.461C451.032 275.58 450.938 275.685 450.826 275.685C450.633 275.683 450.523 275.424 450.524 275.172C450.526 274.973 450.58 274.847 450.693 274.782C450.76 274.742 451.105 274.592 451.179 274.553L451.182 274.096C451.155 274.109 451.115 274.128 451.056 274.128C450.97 274.127 450.897 274.08 450.858 274.014C450.818 273.947 450.805 273.901 450.722 273.469C450.703 273.356 450.548 272.818 450.548 272.765C450.549 272.619 450.669 272.54 450.776 272.541C450.908 272.542 451.099 272.769 451.191 272.889L451.194 272.398C451.199 271.795 451.67 271.798 452.087 271.801L453.38 271.81L453.382 271.618C453.384 271.293 453.564 271.149 454.002 271.152C454.506 271.155 454.597 271.388 454.595 271.627L454.594 271.819L456.742 271.835C456.961 271.836 456.96 272.009 456.959 272.075C456.958 272.274 456.832 272.3 456.719 272.299L452.429 272.268C452.369 272.267 452.303 272.287 452.302 272.399Z" fill="#040000"/>
<ellipse cx="390.5" cy="255.127" rx="32.5" ry="22" fill="#276286"/>
<ellipse cx="224.5" cy="255.127" rx="32.5" ry="22" fill="#276286"/>
<ellipse cx="307" cy="315.72" rx="108.295" ry="44.8157" fill="#BFE7F3"/>
<ellipse cx="307" cy="312.987" rx="82.2905" ry="35.6216" fill="#93D7EA"/>
<rect x="112" y="380" width="390" height="107" fill="#F4E7F4"/>
</g>
<defs>
<clipPath id="clip0_557_1921">
<rect width="557" height="452" fill="white"/>
</clipPath>
</defs>
</svg>
