<svg width="200" height="200" viewBox="0 0 200 200" fill="none" xmlns="http://www.w3.org/2000/svg">
<mask id="path-1-outside-1_898_3070" maskUnits="userSpaceOnUse" x="23.0002" y="77.9998" width="139" height="100" fill="black">
<rect fill="white" x="23.0002" y="77.9998" width="139" height="100"/>
<path d="M52.003 85.8206C61.3577 77.0162 97.6764 102.329 101.528 114.986C108.865 108.749 126.181 99.3577 136.746 111.684C139.967 115.441 142.136 119.657 143.15 124.123C146.903 125.696 154.205 129.081 154.956 131.883C155.684 134.604 147.112 137.725 142.221 139.27C138.934 148.879 130.446 158.594 115.835 166.711C92.0633 179.918 72.5476 163.043 65.7608 152.954C60.0746 156.623 47.1612 163.409 40.9981 161.208C33.2942 158.457 24.49 133.695 31.6436 130.944C38.7972 128.193 52.0036 135.346 71.2628 133.145C57.506 120.489 42.6486 94.6252 52.003 85.8206Z"/>
</mask>
<path d="M52.003 85.8206C61.3577 77.0162 97.6764 102.329 101.528 114.986C108.865 108.749 126.181 99.3577 136.746 111.684C139.967 115.441 142.136 119.657 143.15 124.123C146.903 125.696 154.205 129.081 154.956 131.883C155.684 134.604 147.112 137.725 142.221 139.27C138.934 148.879 130.446 158.594 115.835 166.711C92.0633 179.918 72.5476 163.043 65.7608 152.954C60.0746 156.623 47.1612 163.409 40.9981 161.208C33.2942 158.457 24.49 133.695 31.6436 130.944C38.7972 128.193 52.0036 135.346 71.2628 133.145C57.506 120.489 42.6486 94.6252 52.003 85.8206Z" fill="black"/>
<path d="M52.003 85.8206L47.8908 81.4514L47.8907 81.4515L52.003 85.8206ZM101.528 114.986L95.7883 116.733L98.4497 125.477L105.414 119.557L101.528 114.986ZM136.746 111.684L141.302 107.779L141.302 107.779L136.746 111.684ZM143.15 124.123L137.3 125.453L137.984 128.463L140.831 129.657L143.15 124.123ZM154.956 131.883L160.752 130.332L160.752 130.33L154.956 131.883ZM142.221 139.27L140.413 133.549L137.524 134.461L136.544 137.328L142.221 139.27ZM115.835 166.711L118.749 171.956L118.749 171.956L115.835 166.711ZM65.7608 152.954L70.7391 149.605L67.4538 144.722L62.5081 147.913L65.7608 152.954ZM40.9981 161.208L38.9801 166.859L38.9801 166.859L40.9981 161.208ZM31.6436 130.944L29.49 125.344L29.4897 125.344L31.6436 130.944ZM71.2628 133.145L71.944 139.106L84.9843 137.616L75.3251 128.729L71.2628 133.145ZM52.003 85.8206L56.1152 90.1898C55.9393 90.3553 56.9931 89.3969 61.5349 90.6631C65.5413 91.78 70.5232 94.1905 75.6143 97.4213C80.6612 100.624 85.5164 104.443 89.2786 108.134C93.2495 112.03 95.2901 115.096 95.7883 116.733L101.528 114.986L107.268 113.239C105.841 108.548 101.897 103.703 97.6825 99.5682C93.2592 95.2285 87.7277 90.8963 82.0442 87.2894C76.4047 83.7105 70.3122 80.6525 64.7574 79.1039C59.7381 77.7046 52.744 76.8837 47.8908 81.4514L52.003 85.8206ZM101.528 114.986L105.414 119.557C108.608 116.842 113.947 113.508 119.336 112.206C124.511 110.956 128.844 111.685 132.191 115.589L136.746 111.684L141.302 107.779C134.083 99.357 124.476 98.6186 116.517 100.542C108.773 102.413 101.785 106.893 97.6425 110.414L101.528 114.986ZM136.746 111.684L132.191 115.589C134.828 118.665 136.518 122.012 137.3 125.453L143.15 124.123L149.001 122.794C147.754 117.303 145.106 112.217 141.302 107.779L136.746 111.684ZM143.15 124.123L140.831 129.657C142.621 130.407 145.104 131.528 147.156 132.725C148.193 133.33 148.94 133.851 149.392 134.243C150.027 134.794 149.456 134.54 149.161 133.436L154.956 131.883L160.752 130.33C160.081 127.825 158.316 126.098 157.253 125.176C156.008 124.097 154.553 123.148 153.202 122.36C150.477 120.77 147.433 119.413 145.47 118.59L143.15 124.123ZM154.956 131.883L149.16 133.435C148.397 130.582 150.437 129.067 149.949 129.506C149.786 129.653 149.213 130.059 148.042 130.636C145.802 131.741 142.79 132.798 140.413 133.549L142.221 139.27L144.028 144.991C146.543 144.197 150.263 142.92 153.35 141.398C154.842 140.662 156.582 139.68 157.973 138.429C159.041 137.469 161.88 134.544 160.752 130.332L154.956 131.883ZM142.221 139.27L136.544 137.328C133.884 145.104 126.693 153.815 112.921 161.466L115.835 166.711L118.749 171.956C134.199 163.373 143.984 152.654 147.898 141.212L142.221 139.27ZM115.835 166.711L112.921 161.466C102.859 167.057 94.0274 166.238 86.8458 163.077C79.3904 159.795 73.636 153.911 70.7391 149.605L65.7608 152.954L60.7825 156.303C64.6724 162.086 72.0692 169.684 82.0113 174.06C92.2272 178.557 105.04 179.572 118.749 171.956L115.835 166.711ZM65.7608 152.954L62.5081 147.913C59.9081 149.59 55.604 152.005 51.3338 153.71C49.198 154.563 47.2429 155.168 45.6204 155.455C44.8186 155.597 44.1854 155.646 43.7111 155.637C43.4791 155.633 43.3071 155.615 43.1877 155.596C43.129 155.586 43.0861 155.577 43.0574 155.57C43.0288 155.562 43.0157 155.558 43.0161 155.558L40.9981 161.208L38.9801 166.859C41.9472 167.918 45.1164 167.732 47.7151 167.271C50.4249 166.791 53.2091 165.882 55.7828 164.855C60.9317 162.799 65.9274 159.987 69.0136 157.996L65.7608 152.954ZM40.9981 161.208L43.0161 155.558C43.0441 155.568 41.9632 154.965 40.3039 152.425C38.8341 150.174 37.4453 147.221 36.4471 144.196C35.43 141.114 34.9628 138.395 35.0025 136.578C35.0542 134.219 35.7198 135.804 33.7975 136.544L31.6436 130.944L29.4897 125.344C23.9907 127.459 23.0742 133.171 23.0054 136.315C22.9248 140 23.7988 144.16 25.0515 147.956C26.3232 151.81 28.1328 155.734 30.257 158.987C32.1916 161.949 35.1002 165.473 38.9801 166.859L40.9981 161.208ZM31.6436 130.944L33.7973 136.544C34.2656 136.364 35.3032 136.187 37.5587 136.408C39.8019 136.628 42.3859 137.13 45.8674 137.746C52.6012 138.938 61.42 140.309 71.944 139.106L71.2628 133.145L70.5815 127.184C61.8464 128.182 54.4323 127.076 47.9598 125.93C44.8381 125.377 41.5755 124.744 38.7288 124.465C35.8943 124.187 32.5985 124.148 29.49 125.344L31.6436 130.944ZM71.2628 133.145L75.3251 128.729C69.0197 122.928 62.3353 113.936 58.4044 105.503C56.4344 101.277 55.3312 97.5614 55.1143 94.6966C54.8972 91.8306 55.5936 90.6807 56.1153 90.1897L52.003 85.8206L47.8907 81.4515C43.7352 85.3628 42.7809 90.7476 43.1485 95.6027C43.5163 100.459 45.2334 105.651 47.528 110.573C52.1264 120.438 59.7491 130.705 67.2004 137.56L71.2628 133.145Z" fill="white" mask="url(#path-1-outside-1_898_3070)"/>
<mask id="path-3-outside-2_898_3070" maskUnits="userSpaceOnUse" x="82.4208" y="18.3721" width="97.2463" height="74.9213" fill="black">
<rect fill="white" x="82.4208" y="18.3721" width="97.2463" height="74.9213"/>
<path d="M103.197 32.6678C108.372 26.6922 132.191 39.9125 135.342 47.4192C139.443 43.1417 149.455 36.3083 156.695 43.1922C158.886 45.2758 160.472 47.7009 161.376 50.3494C163.907 51.1038 169.422 52.9435 170.147 54.8472C170.871 56.7537 164.46 59.7026 161.447 60.9687C159.73 66.6928 155.211 72.6994 147.342 78.1885C133.616 87.7627 120.611 78.6546 115.825 72.9038C112.574 75.5058 105.094 80.4697 101.183 79.5088C96.2941 78.3071 89.3527 63.6992 93.5596 61.5667C97.7667 59.4345 106.3 62.986 117.952 60.4321C108.737 53.5458 98.0218 38.6438 103.197 32.6678Z"/>
</mask>
<path d="M103.197 32.6678C108.372 26.6922 132.191 39.9125 135.342 47.4192C139.443 43.1417 149.455 36.3083 156.695 43.1922C158.886 45.2758 160.472 47.7009 161.376 50.3494C163.907 51.1038 169.422 52.9435 170.147 54.8472C170.871 56.7537 164.46 59.7026 161.447 60.9687C159.73 66.6928 155.211 72.6994 147.342 78.1885C133.616 87.7627 120.611 78.6546 115.825 72.9038C112.574 75.5058 105.094 80.4697 101.183 79.5088C96.2941 78.3071 89.3527 63.6992 93.5596 61.5667C97.7667 59.4345 106.3 62.986 117.952 60.4321C108.737 53.5458 98.0218 38.6438 103.197 32.6678Z" fill="black"/>
<path d="M103.197 32.6678L98.6615 28.7397L98.6613 28.74L103.197 32.6678ZM135.342 47.4192L129.81 49.7415L133.348 58.1695L139.673 51.5715L135.342 47.4192ZM156.695 43.1922L160.829 38.844L160.829 38.844L156.695 43.1922ZM161.376 50.3494L155.698 52.288L156.698 55.2157L159.663 56.0994L161.376 50.3494ZM170.147 54.8472L175.755 52.7153L175.754 52.7123L170.147 54.8472ZM161.447 60.9687L159.122 55.4374L156.513 56.5341L155.7 59.245L161.447 60.9687ZM147.342 78.1885L150.774 83.1095L150.775 83.1095L147.342 78.1885ZM115.825 72.9038L120.436 69.0654L116.671 64.5416L112.075 68.2194L115.825 72.9038ZM101.183 79.5088L99.7504 85.3354L99.7512 85.3356L101.183 79.5088ZM93.5596 61.5667L90.8472 56.2148L90.8468 56.215L93.5596 61.5667ZM117.952 60.4321L119.236 66.2929L132.057 63.4829L121.543 55.6259L117.952 60.4321ZM103.197 32.6678L107.732 36.596C106.766 37.7121 106.18 36.8353 108.945 37.3098C111.163 37.6902 114.139 38.7516 117.346 40.3546C120.507 41.9343 123.579 43.8829 125.974 45.7956C127.17 46.7506 128.122 47.6374 128.812 48.4024C129.154 48.7813 129.402 49.0985 129.573 49.3483C129.658 49.4713 129.717 49.568 129.757 49.6384C129.796 49.7092 129.811 49.7434 129.81 49.7415L135.342 47.4192L140.875 45.0969C139.469 41.7485 136.352 38.7267 133.462 36.4186C130.343 33.928 126.546 31.5375 122.711 29.6207C118.923 27.7273 114.777 26.1348 110.974 25.4825C107.72 24.9242 102.216 24.6358 98.6615 28.7397L103.197 32.6678ZM135.342 47.4192L139.673 51.5715C141.293 49.8822 144.059 47.7583 146.837 46.7786C149.407 45.8723 151.097 46.1485 152.56 47.5404L156.695 43.1922L160.829 38.844C155.053 33.3519 148.117 33.6029 142.846 35.4617C137.783 37.2471 133.493 40.6786 131.011 43.2669L135.342 47.4192ZM156.695 43.1922L152.56 47.5404C154.108 49.0117 155.131 50.6277 155.698 52.288L161.376 50.3494L167.055 48.4109C165.813 44.7741 163.664 41.5399 160.829 38.844L156.695 43.1922ZM161.376 50.3494L159.663 56.0994C160.842 56.4509 162.568 57.014 164.006 57.6518C164.737 57.9763 165.201 58.2365 165.431 58.3941C165.54 58.4691 165.481 58.4433 165.342 58.2981C165.22 58.1718 164.828 57.7407 164.539 56.982L170.147 54.8472L175.754 52.7123C174.889 50.4416 173.09 49.0965 172.222 48.5006C171.135 47.7543 169.926 47.1505 168.872 46.6828C166.738 45.7363 164.442 45.0023 163.09 44.5994L161.376 50.3494ZM170.147 54.8472L164.538 56.9791C163.952 55.4371 164.245 54.0598 164.575 53.2769C164.861 52.596 165.205 52.2575 165.205 52.257C165.208 52.2539 164.915 52.521 164.11 53.0037C162.601 53.9097 160.567 54.8302 159.122 55.4374L161.447 60.9687L163.772 66.5C165.34 65.8411 168.018 64.6541 170.286 63.2925C171.371 62.6414 172.732 61.7347 173.828 60.6029C174.513 59.8951 177.317 56.8239 175.755 52.7153L170.147 54.8472ZM161.447 60.9687L155.7 59.245C154.484 63.301 151.035 68.2966 143.909 73.2675L147.342 78.1885L150.775 83.1095C159.386 77.1022 164.977 70.0847 167.194 62.6924L161.447 60.9687ZM147.342 78.1885L143.909 73.2675C138.757 76.8613 134.065 76.8732 130.077 75.5839C125.804 74.2027 122.26 71.257 120.436 69.0654L115.825 72.9038L111.213 76.7423C114.176 80.3015 119.528 84.7852 126.386 87.0021C133.528 89.3111 142.201 89.0899 150.774 83.1095L147.342 78.1885ZM115.825 72.9038L112.075 68.2194C110.676 69.3397 108.317 70.9986 105.971 72.2255C104.797 72.8394 103.791 73.2579 103.019 73.4776C102.14 73.7282 102.121 73.561 102.614 73.6821L101.183 79.5088L99.7512 85.3356C102.2 85.9371 104.583 85.5097 106.307 85.0185C108.14 84.4963 109.94 83.6915 111.532 82.8592C114.716 81.1939 117.722 79.0699 119.574 77.5883L115.825 72.9038ZM101.183 79.5088L102.615 73.6823C103.147 73.8132 103.285 74.0009 103.023 73.7918C102.801 73.6146 102.447 73.2741 102.001 72.723C101.105 71.6162 100.169 70.0725 99.4371 68.4363C98.6804 66.7452 98.33 65.3779 98.2692 64.6206C98.2385 64.238 98.3131 64.3743 98.1672 64.809C97.9823 65.3602 97.4401 66.3265 96.2724 66.9184L93.5596 61.5667L90.8468 56.215C86.2488 58.5457 86.1407 63.5015 86.3077 65.581C86.518 68.2001 87.4197 70.9597 88.4836 73.3374C89.572 75.7699 91.0253 78.2368 92.6742 80.2736C94.105 82.041 96.5134 84.5397 99.7504 85.3354L101.183 79.5088ZM93.5596 61.5667L96.272 66.9186C96.0623 67.0249 96.2503 66.8545 97.533 66.849C98.8035 66.8435 100.284 66.977 102.524 67.1414C106.772 67.4533 112.531 67.7626 119.236 66.2929L117.952 60.4321L116.667 54.5712C111.72 55.6554 107.386 55.466 103.403 55.1736C101.527 55.036 99.358 54.841 97.4813 54.8491C95.6167 54.8571 93.1605 55.0424 90.8472 56.2148L93.5596 61.5667ZM117.952 60.4321L121.543 55.6259C117.56 52.6488 113.109 47.7883 110.33 43.1331C108.935 40.7964 108.173 38.8612 107.929 37.4991C107.684 36.1359 108.072 36.2036 107.733 36.5957L103.197 32.6678L98.6613 28.74C95.7341 32.1201 95.5207 36.2915 96.1176 39.6184C96.7147 42.9463 98.2375 46.2875 100.026 49.284C103.615 55.2955 109.129 61.3291 114.36 65.2382L117.952 60.4321Z" fill="white" mask="url(#path-3-outside-2_898_3070)"/>
<path d="M170.146 54.8472C169.201 52.365 160.114 49.9908 160.114 49.9908L159.938 61.5823C159.938 61.5823 171.091 57.3294 170.146 54.8472Z" fill="#EAC00F"/>
<path d="M156.695 43.1923C149.455 36.3083 139.443 43.1424 135.342 47.4199C132.191 39.9132 108.372 26.6924 103.197 32.6684C98.0213 38.6444 108.737 53.5466 117.952 60.4327C106.299 62.9868 97.7661 59.4349 93.5592 61.5674C89.3522 63.6999 96.2935 78.3075 101.182 79.5093C105.093 80.4706 112.573 75.5069 115.824 72.9048C120.611 78.6556 133.616 87.7637 147.341 78.1895C164.498 66.2217 165.745 51.7973 156.695 43.1923Z" fill="#DBDBDB"/>
<path d="M149.843 52.9041C151.216 52.7635 152.216 51.5361 152.075 50.1626C151.935 48.789 150.707 47.7895 149.334 47.9301C147.96 48.0706 146.961 49.298 147.101 50.6716C147.242 52.0451 148.469 53.0446 149.843 52.9041Z" fill="black"/>
<path d="M154.956 131.883C153.941 128.094 140.948 123.24 140.948 123.24L138.947 140.243C138.947 140.243 155.972 135.672 154.956 131.883Z" fill="#EAC00F"/>
<path d="M136.746 111.684C126.181 99.3577 108.865 108.749 101.528 114.986C97.6765 102.329 61.3583 77.0165 52.0036 85.8209C42.6489 94.6253 57.5064 120.488 71.2633 133.145C52.0036 135.346 38.7969 128.192 31.6433 130.944C24.4898 133.695 33.2942 158.457 40.998 161.209C47.1611 163.41 60.0743 156.623 65.7605 152.955C72.5472 163.043 92.0637 179.918 115.836 166.712C145.551 150.203 149.953 127.092 136.746 111.684Z" fill="#DBDBDB"/>
<path d="M123.873 125.746C126.012 125.746 127.746 124.012 127.746 121.873C127.746 119.734 126.012 118 123.873 118C121.734 118 120 119.734 120 121.873C120 124.012 121.734 125.746 123.873 125.746Z" fill="black"/>
</svg>
