<svg width="200" height="200" viewBox="0 0 200 200" fill="none" xmlns="http://www.w3.org/2000/svg">
<mask id="path-1-outside-1_1347_20601" maskUnits="userSpaceOnUse" x="14.8203" y="13.7627" width="172" height="173" fill="black">
<rect fill="white" x="14.8203" y="13.7627" width="172" height="173"/>
<path d="M20.9746 20.9727C23.1184 18.8296 47.5122 33.4905 64.7031 44.5742C64.5327 44.2593 64.3664 43.9501 64.2012 43.6445C60.9878 37.689 65.4327 39.7505 68.2549 41.7061C69.6148 42.6488 74.7622 44.612 79.8428 46.4316C79.0385 44.5128 78.4917 42.6998 78.1348 40.9775C77.5837 38.3286 76.1306 29.2043 81.2861 36.2754C82.6202 38.1098 86.5017 38.9928 90.7656 41.3486C94.7785 39.3063 99.9723 37.5976 105.831 36.4043C109.071 35.7421 114.071 38.1639 116.2 42.0527C116.569 38.7951 115.271 35.9244 114.777 35.1777C125.564 34.2577 135.209 33.5553 144.995 38.6084C150.275 41.3284 163.777 53.1418 164.444 70.5771C165.569 63.4306 164.16 52.7735 161.8 46.9424C174.302 55.2801 176.666 64.08 179.995 68.6934V108.217C179.997 108.224 179.999 108.233 180.001 108.24V180.004H121.175C120.65 166 123.374 153.493 121.348 140.969C116.788 112.703 113.267 114.246 113.232 114.262C113.232 125.746 105.805 131.293 93.7031 133.706C81.8765 143.773 85.3121 146.573 79.7832 152.382C69.6099 163.057 54.4451 158.026 48.5918 147.671C42.9609 137.702 48.6185 129.83 54.4141 116.666C59.8858 104.24 57.3225 86.6306 66.04 70.2402L65.5361 70.3428C63.2699 70.7481 53.9545 71.7616 49.9023 62.04C54.2637 63.4478 58.4296 62.249 62.3887 59.9443C61.3456 59.0964 60.2196 58.1762 59.0283 57.1992C59.0262 57.2006 59.0246 57.2027 59.0225 57.2041L55.4043 54.2217C55.4057 54.221 55.4068 54.2194 55.4082 54.2188C52.7325 52.0039 49.8598 49.6025 46.9551 47.1377C46.9536 47.1388 46.9526 47.1405 46.9512 47.1416C45.8001 46.1638 44.6394 45.1776 43.4883 44.1865C43.4901 44.1854 43.4914 44.1828 43.4932 44.1816C40.7499 41.824 38.0374 39.4524 35.4932 37.1719C35.4914 37.1735 35.49 37.1762 35.4883 37.1777C34.3505 36.1555 33.2355 35.1506 32.1777 34.1729C32.1795 34.1714 32.1809 34.1694 32.1826 34.168C24.9305 27.4861 19.8556 22.0917 20.9746 20.9727Z"/>
</mask>
<path d="M20.9746 20.9727C23.1184 18.8296 47.5122 33.4905 64.7031 44.5742C64.5327 44.2593 64.3664 43.9501 64.2012 43.6445C60.9878 37.689 65.4327 39.7505 68.2549 41.7061C69.6148 42.6488 74.7622 44.612 79.8428 46.4316C79.0385 44.5128 78.4917 42.6998 78.1348 40.9775C77.5837 38.3286 76.1306 29.2043 81.2861 36.2754C82.6202 38.1098 86.5017 38.9928 90.7656 41.3486C94.7785 39.3063 99.9723 37.5976 105.831 36.4043C109.071 35.7421 114.071 38.1639 116.2 42.0527C116.569 38.7951 115.271 35.9244 114.777 35.1777C125.564 34.2577 135.209 33.5553 144.995 38.6084C150.275 41.3284 163.777 53.1418 164.444 70.5771C165.569 63.4306 164.16 52.7735 161.8 46.9424C174.302 55.2801 176.666 64.08 179.995 68.6934V108.217C179.997 108.224 179.999 108.233 180.001 108.24V180.004H121.175C120.65 166 123.374 153.493 121.348 140.969C116.788 112.703 113.267 114.246 113.232 114.262C113.232 125.746 105.805 131.293 93.7031 133.706C81.8765 143.773 85.3121 146.573 79.7832 152.382C69.6099 163.057 54.4451 158.026 48.5918 147.671C42.9609 137.702 48.6185 129.83 54.4141 116.666C59.8858 104.24 57.3225 86.6306 66.04 70.2402L65.5361 70.3428C63.2699 70.7481 53.9545 71.7616 49.9023 62.04C54.2637 63.4478 58.4296 62.249 62.3887 59.9443C61.3456 59.0964 60.2196 58.1762 59.0283 57.1992C59.0262 57.2006 59.0246 57.2027 59.0225 57.2041L55.4043 54.2217C55.4057 54.221 55.4068 54.2194 55.4082 54.2188C52.7325 52.0039 49.8598 49.6025 46.9551 47.1377C46.9536 47.1388 46.9526 47.1405 46.9512 47.1416C45.8001 46.1638 44.6394 45.1776 43.4883 44.1865C43.4901 44.1854 43.4914 44.1828 43.4932 44.1816C40.7499 41.824 38.0374 39.4524 35.4932 37.1719C35.4914 37.1735 35.49 37.1762 35.4883 37.1777C34.3505 36.1555 33.2355 35.1506 32.1777 34.1729C32.1795 34.1714 32.1809 34.1694 32.1826 34.168C24.9305 27.4861 19.8556 22.0917 20.9746 20.9727Z" fill="#FFDE55"/>
<path d="M20.9746 20.9727L16.7327 16.7292L16.732 16.73L20.9746 20.9727ZM64.7031 44.5742L61.4519 49.617C63.7544 51.1015 66.7702 50.8379 68.7802 48.9762C70.7902 47.1146 71.2839 44.1279 69.9799 41.7185L64.7031 44.5742ZM64.2012 43.6445L58.9207 46.4936L58.9238 46.4992L64.2012 43.6445ZM68.2549 41.7061L71.6731 36.7749L71.6722 36.7743L68.2549 41.7061ZM79.8428 46.4316L77.8197 52.0803C80.0586 52.8822 82.5598 52.286 84.1963 50.5604C85.8328 48.8348 86.2957 46.3055 85.3763 44.1122L79.8428 46.4316ZM78.1348 40.9775L84.0099 39.7598L84.009 39.7554L78.1348 40.9775ZM81.2861 36.2754L86.1386 32.7464L86.1343 32.7406L81.2861 36.2754ZM90.7656 41.3486L87.864 46.6003C89.6065 47.5631 91.713 47.5989 93.4872 46.6959L90.7656 41.3486ZM105.831 36.4043L107.029 42.2836L107.033 42.2828L105.831 36.4043ZM116.2 42.0527L110.937 44.934C112.193 47.2283 114.791 48.4446 117.357 47.9401C119.924 47.4356 121.868 45.3266 122.162 42.7276L116.2 42.0527ZM114.777 35.1777L114.267 29.1994C112.158 29.3793 110.3 30.6576 109.377 32.563C108.454 34.4684 108.604 36.719 109.771 38.4853L114.777 35.1777ZM144.995 38.6084L142.242 43.9397L142.247 43.9422L144.995 38.6084ZM164.444 70.5771L158.449 70.8065C158.567 73.8925 161.008 76.3849 164.091 76.5667C167.174 76.7486 169.891 74.5604 170.371 71.5096L164.444 70.5771ZM161.8 46.9424L165.129 41.9506C162.938 40.4898 160.052 40.6277 158.01 42.2905C155.969 43.9534 155.25 46.7527 156.238 49.1933L161.8 46.9424ZM179.995 68.6934H185.995C185.995 67.433 185.598 66.2046 184.861 65.1825L179.995 68.6934ZM179.995 108.217H173.995C173.995 108.708 174.055 109.197 174.174 109.673L179.995 108.217ZM180.001 108.24H186.001C186.001 107.75 185.941 107.261 185.822 106.785L180.001 108.24ZM180.001 180.004V186.004C183.315 186.004 186.001 183.318 186.001 180.004H180.001ZM121.175 180.004L115.179 180.228C115.3 183.452 117.948 186.004 121.175 186.004V180.004ZM121.348 140.969L115.424 141.924L115.425 141.927L121.348 140.969ZM113.232 114.262L110.728 108.809C108.598 109.788 107.232 111.917 107.232 114.262H113.232ZM93.7031 133.706L92.5298 127.822C91.5273 128.022 90.5925 128.475 89.8141 129.137L93.7031 133.706ZM79.7832 152.382L84.1268 156.521L84.1293 156.518L79.7832 152.382ZM48.5918 147.671L43.3676 150.622L43.3685 150.623L48.5918 147.671ZM54.4141 116.666L48.9229 114.248L48.9227 114.248L54.4141 116.666ZM66.04 70.2402L71.3374 73.0577C72.428 71.0072 72.2372 68.5115 70.8477 66.6505C69.4582 64.7895 67.1195 63.8976 64.8436 64.3607L66.04 70.2402ZM65.5361 70.3428L66.5925 76.2491C66.6393 76.2407 66.686 76.2318 66.7325 76.2223L65.5361 70.3428ZM49.9023 62.04L51.7454 56.3301C49.517 55.6109 47.0738 56.2537 45.4879 57.9764C43.9021 59.6992 43.4633 62.1871 44.3642 64.3485L49.9023 62.04ZM62.3887 59.9443L65.4073 65.1297C67.1101 64.1385 68.2177 62.3744 68.3706 60.41C68.5235 58.4457 67.7023 56.5314 66.1734 55.2886L62.3887 59.9443ZM59.0283 57.1992L62.8331 52.5598C60.7849 50.8801 57.8776 50.7423 55.6797 52.2206L59.0283 57.1992ZM59.0225 57.2041L55.2061 61.834C57.2536 63.5217 60.1665 63.6641 62.3689 62.1842L59.0225 57.2041ZM55.4043 54.2217L52.8541 48.7906C50.9923 49.6648 49.7081 51.4318 49.4513 53.4725C49.1944 55.5132 50.0008 57.5433 51.588 58.8515L55.4043 54.2217ZM55.4082 54.2188L57.9622 59.648C59.8207 58.7738 61.1029 57.0096 61.3607 54.972C61.6186 52.9344 60.8163 50.9065 59.2341 49.5968L55.4082 54.2188ZM46.9551 47.1377L50.8372 42.5628C48.6716 40.7252 45.5142 40.6577 43.272 42.4011L46.9551 47.1377ZM46.9512 47.1416L43.0668 51.7145C45.2318 53.5536 48.3898 53.6223 50.6328 51.8793L46.9512 47.1416ZM43.4883 44.1865L40.2064 39.1636C38.6277 40.1951 37.6258 41.9088 37.5014 43.7905C37.3769 45.6722 38.1443 47.5029 39.5734 48.7334L43.4883 44.1865ZM43.4932 44.1816L46.778 49.2026C48.3563 48.17 49.3573 46.4553 49.4804 44.5732C49.6035 42.6911 48.8344 40.8607 47.404 39.6313L43.4932 44.1816ZM35.4932 37.1719L39.4979 32.704C37.2173 30.6598 33.763 30.6613 31.4843 32.7077L35.4932 37.1719ZM35.4883 37.1777L31.4783 41.641C33.7581 43.6891 37.2149 43.6901 39.4957 41.6432L35.4883 37.1777ZM32.1777 34.1729L28.2929 29.6003C26.9845 30.7119 26.215 32.3308 26.179 34.0473C26.1431 35.7638 26.8442 37.4134 28.105 38.5788L32.1777 34.1729ZM32.1826 34.168L36.0382 38.7652C37.3601 37.6566 38.1408 36.0326 38.181 34.3078C38.2212 32.583 37.517 30.9244 36.2482 29.7554L32.1826 34.168ZM20.9746 20.9727L25.2165 25.2161C23.7399 26.6921 22.0739 26.7534 21.7824 26.7608C21.341 26.7721 21.1484 26.6995 21.3634 26.7511C21.7555 26.8453 22.5718 27.1199 23.8951 27.6972C26.4714 28.821 30.0498 30.6811 34.2579 33.0447C42.6238 37.7436 52.9064 44.1074 61.4519 49.617L64.7031 44.5742L67.9544 39.5315C59.3089 33.9574 48.7991 27.4488 40.1345 22.5821C35.8273 20.1629 31.8309 18.0669 28.6931 16.6981C27.1595 16.0291 25.584 15.4234 24.1645 15.0827C23.4738 14.9168 22.5205 14.7382 21.4778 14.7647C20.5851 14.7874 18.4773 14.9853 16.7327 16.7292L20.9746 20.9727ZM64.7031 44.5742L69.9799 41.7185C69.7828 41.3542 69.6806 41.1634 69.4786 40.7899L64.2012 43.6445L58.9238 46.4992C59.0523 46.7367 59.2826 47.1644 59.4263 47.43L64.7031 44.5742ZM64.2012 43.6445L69.4816 40.7955C69.1709 40.2197 69.0374 39.894 68.993 39.7687C68.927 39.5823 69.0916 39.9435 69.0814 40.6414C69.0701 41.4218 68.8038 43.0632 67.3055 44.3901C65.9129 45.6235 64.4195 45.7158 63.8778 45.708C63.5636 45.7034 63.3349 45.6654 63.2187 45.6421C63.0968 45.6177 63.0286 45.5954 63.0224 45.5934C63.0195 45.5924 63.1206 45.6271 63.3323 45.7311C63.7588 45.9408 64.3046 46.2685 64.8376 46.6378L68.2549 41.7061L71.6722 36.7743C70.794 36.1658 69.7259 35.5025 68.6257 34.9617C67.7573 34.5349 66.0093 33.7376 64.0516 33.7093C62.9787 33.6937 61.0485 33.902 59.3495 35.4066C57.5449 37.0049 57.103 39.0728 57.0827 40.4669C57.0492 42.7719 58.099 44.9706 58.9207 46.4936L64.2012 43.6445ZM68.2549 41.7061L64.8367 46.6372C66.191 47.576 68.5233 48.5507 70.4268 49.3115C72.6175 50.1871 75.2527 51.1609 77.8197 52.0803L79.8428 46.4316L81.8658 40.783C79.3523 39.8828 76.8735 38.9652 74.8804 38.1685C73.881 37.7691 73.0518 37.4192 72.4238 37.1314C71.6924 36.7964 71.54 36.6827 71.6731 36.7749L68.2549 41.7061ZM79.8428 46.4316L85.3763 44.1122C84.7203 42.5472 84.2883 41.1031 84.0099 39.7598L78.1348 40.9775L72.2596 42.1952C72.6952 44.2965 73.3566 46.4783 74.3092 48.751L79.8428 46.4316ZM78.1348 40.9775L84.009 39.7554C83.8978 39.221 83.7357 38.3289 83.6275 37.4209C83.5738 36.9701 83.5391 36.5626 83.5256 36.2232C83.5111 35.8585 83.5269 35.7034 83.5257 35.7129C83.5243 35.7242 83.5077 35.8634 83.4423 36.0862C83.3823 36.2907 83.2295 36.7456 82.8741 37.28C82.5036 37.837 81.8309 38.5967 80.7385 39.1167C79.6 39.6586 78.4571 39.7246 77.5461 39.5714C76.0508 39.3199 75.3374 38.523 75.5559 38.7267C75.6185 38.7851 75.9056 39.08 76.4379 39.8102L81.2861 36.2754L86.1343 32.7406C85.3778 31.703 84.5825 30.7362 83.7399 29.9505C83.0532 29.3101 81.6119 28.0867 79.5364 27.7376C78.3353 27.5356 76.9393 27.635 75.581 28.2816C74.2687 28.9062 73.4095 29.8417 72.8821 30.6346C71.9403 32.0508 71.703 33.5355 71.6152 34.25C71.4165 35.8676 71.5679 37.6334 71.7118 38.841C71.87 40.1678 72.0962 41.4096 72.2606 42.1997L78.1348 40.9775ZM81.2861 36.2754L76.4337 39.8043C77.4207 41.1616 78.6534 42.0511 79.6029 42.6311C80.5682 43.2207 81.6065 43.7053 82.4842 44.0966C84.419 44.9591 86.0304 45.5873 87.864 46.6003L90.7656 41.3486L93.6673 36.0969C91.2369 34.7541 88.7756 33.7628 87.3702 33.1363C86.5777 32.7831 86.129 32.5558 85.8581 32.3903C85.5714 32.2152 85.8186 32.3064 86.1386 32.7464L81.2861 36.2754ZM90.7656 41.3486L93.4872 46.6959C96.8939 44.962 101.543 43.4009 107.029 42.2836L105.831 36.4043L104.634 30.525C98.4021 31.7942 92.6631 33.6505 88.0441 36.0014L90.7656 41.3486ZM105.831 36.4043L107.033 42.2828C106.873 42.3153 106.956 42.2657 107.323 42.3404C107.67 42.4108 108.131 42.5655 108.643 42.8341C109.72 43.3999 110.541 44.2094 110.937 44.934L116.2 42.0527L121.463 39.1715C119.731 36.0073 116.986 33.6615 114.222 32.2097C111.561 30.8125 108.06 29.8248 104.63 30.5258L105.831 36.4043ZM116.2 42.0527L122.162 42.7276C122.723 37.7769 120.872 33.5174 119.783 31.8702L114.777 35.1777L109.771 38.4853C109.646 38.2949 109.662 38.2835 109.76 38.507C109.84 38.6902 109.941 38.959 110.033 39.2872C110.223 39.9686 110.314 40.7047 110.238 41.3779L116.2 42.0527ZM114.777 35.1777L115.287 41.156C126.235 40.2223 134.193 39.7835 142.242 43.9397L144.995 38.6084L147.748 33.2771C136.224 27.3271 124.893 28.2932 114.267 29.1994L114.777 35.1777ZM144.995 38.6084L142.247 43.9422C143.964 44.8267 147.993 47.8158 151.656 52.6826C155.249 57.4564 158.174 63.6185 158.449 70.8065L164.444 70.5771L170.44 70.3478C170.048 60.1005 165.889 51.6382 161.244 45.4665C156.669 39.3877 151.306 35.1101 147.743 33.2746L144.995 38.6084ZM164.444 70.5771L170.371 71.5096C171.047 67.2175 170.933 62.1803 170.387 57.5621C169.842 52.9534 168.808 48.2655 167.362 44.6915L161.8 46.9424L156.238 49.1933C157.151 51.4503 158.002 55.0065 158.47 58.9708C158.938 62.9256 158.966 66.7902 158.517 69.6447L164.444 70.5771ZM161.8 46.9424L158.471 51.9341C169.79 59.4833 170.635 65.9756 175.13 72.2042L179.995 68.6934L184.861 65.1825C182.697 62.1845 178.813 51.0769 165.129 41.9506L161.8 46.9424ZM179.995 68.6934H173.995V108.217H179.995H185.995V68.6934H179.995ZM179.995 108.217L174.174 109.673C174.176 109.68 174.178 109.687 174.18 109.695L180.001 108.24L185.822 106.785C185.82 106.778 185.818 106.769 185.816 106.761L179.995 108.217ZM180.001 108.24H174.001V180.004H180.001H186.001V108.24H180.001ZM180.001 180.004V174.004H121.175V180.004V186.004H180.001V180.004ZM121.175 180.004L127.171 179.779C126.922 173.141 127.441 166.916 127.815 160.268C128.18 153.774 128.395 146.96 127.271 140.01L121.348 140.969L115.425 141.927C116.327 147.501 116.193 153.203 115.834 159.595C115.483 165.832 114.903 172.863 115.179 180.228L121.175 180.004ZM121.348 140.969L127.271 140.013C124.977 125.79 122.857 118.424 121.039 114.491C120.159 112.588 119.041 110.79 117.398 109.597C115.291 108.068 112.766 107.873 110.728 108.809L113.232 114.262L115.737 119.714C113.716 120.642 111.644 120.249 110.349 119.309C109.518 118.706 109.573 118.286 110.147 119.528C111.238 121.886 113.159 127.882 115.424 141.924L121.348 140.969ZM113.232 114.262H107.232C107.232 118.555 105.918 121.139 103.927 122.986C101.713 125.038 98.0686 126.717 92.5298 127.822L93.7031 133.706L94.8765 139.59C101.44 138.281 107.56 135.981 112.085 131.786C116.833 127.384 119.232 121.453 119.232 114.262H113.232ZM93.7031 133.706L89.8141 129.137C83.3961 134.6 80.7278 138.448 78.9897 142.008C77.296 145.478 77.3596 146.225 75.4371 148.245L79.7832 152.382L84.1293 156.518C87.7357 152.729 88.8459 149.172 89.7733 147.273C90.6563 145.464 92.1835 142.879 97.5922 138.275L93.7031 133.706ZM79.7832 152.382L75.4396 148.243C71.8771 151.981 67.6939 152.859 63.8015 152.041C59.6993 151.179 55.8957 148.399 53.8151 144.718L48.5918 147.671L43.3685 150.623C47.1412 157.298 53.8467 162.211 61.3335 163.785C69.0302 165.402 77.516 163.458 84.1268 156.521L79.7832 152.382ZM48.5918 147.671L53.816 144.72C51.9653 141.444 51.8922 138.724 52.9724 135.066C53.5627 133.067 54.4868 130.859 55.7224 128.161C56.8919 125.608 58.4451 122.401 59.9055 119.084L54.4141 116.666L48.9227 114.248C47.4853 117.513 46.1579 120.227 44.8126 123.164C43.5334 125.956 42.3083 128.807 41.4636 131.668C39.6738 137.729 39.5874 143.929 43.3676 150.622L48.5918 147.671ZM54.4141 116.666L59.9052 119.084C63.0674 111.903 63.8902 103.274 64.9507 95.7806C66.0688 87.88 67.5015 80.2699 71.3374 73.0577L66.04 70.2402L60.7427 67.4228C55.8611 76.6009 54.2166 85.9908 53.0691 94.0991C51.8639 102.615 51.2325 109.003 48.9229 114.248L54.4141 116.666ZM66.04 70.2402L64.8436 64.3607L64.3397 64.4633L65.5361 70.3428L66.7325 76.2223L67.2365 76.1197L66.04 70.2402ZM65.5361 70.3428L64.4798 64.4365C63.7747 64.5626 61.9258 64.7715 60.0716 64.2297C58.5015 63.771 56.6954 62.7422 55.4405 59.7316L49.9023 62.04L44.3642 64.3485C47.1614 71.0594 52.0391 74.3846 56.7063 75.7482C61.0895 77.0288 65.0314 76.5283 66.5925 76.2491L65.5361 70.3428ZM49.9023 62.04L48.0593 67.75C54.7015 69.8939 60.7052 67.8669 65.4073 65.1297L62.3887 59.9443L59.3701 54.759C56.1541 56.6311 53.8259 57.0017 51.7454 56.3301L49.9023 62.04ZM62.3887 59.9443L66.1734 55.2886C65.1387 54.4475 64.0196 53.533 62.8331 52.5598L59.0283 57.1992L55.2236 61.8386C56.4195 62.8194 57.5525 63.7453 58.6039 64.6001L62.3887 59.9443ZM59.0283 57.1992L55.6797 52.2206C55.5516 52.3068 55.4414 52.3881 55.3504 52.4586C55.3047 52.494 55.2632 52.5273 55.2261 52.5577C55.189 52.588 55.1558 52.616 55.1268 52.6408C55.0978 52.6656 55.0724 52.6878 55.0511 52.7067C55.0298 52.7255 55.0117 52.7418 54.9978 52.7544C54.9839 52.7669 54.9728 52.7771 54.966 52.7833C54.9626 52.7865 54.9598 52.7891 54.9581 52.7906C54.9572 52.7914 54.9565 52.7921 54.9561 52.7925C54.9559 52.7927 54.9557 52.7929 54.9556 52.793C54.9555 52.793 54.9555 52.7931 54.9554 52.7931C54.9554 52.7931 54.9554 52.7932 54.9554 52.7932C54.9551 52.7934 54.9564 52.7922 54.9579 52.7909C54.9595 52.7894 54.9622 52.7869 54.9656 52.7838C54.9721 52.7777 54.9831 52.7677 54.9968 52.7553C55.0106 52.7428 55.0285 52.7267 55.0496 52.708C55.0708 52.6893 55.0961 52.6672 55.1249 52.6426C55.1537 52.6179 55.1868 52.5901 55.2237 52.5599C55.2607 52.5296 55.3021 52.4965 55.3476 52.4612C55.4383 52.3909 55.5482 52.3099 55.6761 52.224L59.0225 57.2041L62.3689 62.1842C62.4972 62.098 62.6077 62.0165 62.6989 61.9459C62.7446 61.9104 62.7863 61.8771 62.8235 61.8466C62.8606 61.8162 62.894 61.7882 62.9231 61.7633C62.9521 61.7385 62.9777 61.7162 62.9991 61.6972C63.0204 61.6784 63.0386 61.662 63.0526 61.6493C63.0665 61.6367 63.0777 61.6265 63.0845 61.6202C63.088 61.617 63.0908 61.6144 63.0926 61.6128C63.0935 61.612 63.0942 61.6113 63.0946 61.6109C63.0949 61.6107 63.0951 61.6105 63.0952 61.6104C63.0953 61.6103 63.0954 61.6102 63.0954 61.6102C63.0957 61.6099 63.0945 61.611 63.093 61.6124C63.0915 61.6138 63.0888 61.6163 63.0854 61.6193C63.0789 61.6253 63.068 61.6353 63.0544 61.6476C63.0407 61.6601 63.0229 61.6761 63.0019 61.6947C62.9808 61.7134 62.9556 61.7354 62.9268 61.76C62.8981 61.7846 62.8651 61.8123 62.8282 61.8425C62.7914 61.8726 62.7501 61.9057 62.7047 61.9409C62.6142 62.0111 62.5045 62.092 62.3769 62.1778L59.0283 57.1992ZM59.0225 57.2041L62.8388 52.5743L59.2206 49.5918L55.4043 54.2217L51.588 58.8515L55.2061 61.834L59.0225 57.2041ZM55.4043 54.2217L57.9545 59.6527C58.0953 59.5866 58.2248 59.5192 58.3428 59.4529C58.4607 59.3867 58.5678 59.3213 58.6638 59.2591C58.7598 59.1971 58.8459 59.1375 58.9217 59.0826C58.9975 59.0278 59.0646 58.9765 59.1223 58.931C59.1799 58.8856 59.23 58.8443 59.2713 58.8095C59.3126 58.7747 59.3474 58.7444 59.374 58.721C59.3874 58.7092 59.3992 58.6986 59.4092 58.6897C59.4191 58.6808 59.4276 58.6732 59.4341 58.6673C59.4406 58.6614 59.4458 58.6566 59.449 58.6537C59.4507 58.6522 59.452 58.651 59.4528 58.6503C59.4532 58.6499 59.4535 58.6496 59.4537 58.6494C59.4538 58.6493 59.4539 58.6492 59.454 58.6492C59.454 58.6491 59.4541 58.6491 59.4541 58.6491C59.4545 58.6487 59.4521 58.6509 59.4493 58.6535C59.4462 58.6563 59.4411 58.6609 59.4347 58.6667C59.4222 58.678 59.4014 58.6969 59.3752 58.7199C59.3489 58.7431 59.3143 58.7732 59.2732 58.8078C59.2321 58.8425 59.1823 58.8835 59.125 58.9288C59.0676 58.9741 59.0008 59.0251 58.9253 59.0797C58.8498 59.1343 58.7641 59.1937 58.6685 59.2556C58.5729 59.3175 58.4662 59.3827 58.3488 59.4487C58.2313 59.5148 58.1024 59.5821 57.9622 59.648L55.4082 54.2188L52.8542 48.7895C52.7139 48.8555 52.5847 48.9229 52.4671 48.989C52.3495 49.0552 52.2426 49.1205 52.1468 49.1825C52.0511 49.2445 51.9652 49.304 51.8895 49.3587C51.8139 49.4135 51.7469 49.4646 51.6894 49.51C51.6319 49.5554 51.5819 49.5966 51.5407 49.6314C51.4994 49.6661 51.4647 49.6963 51.4382 49.7197C51.4119 49.7429 51.3909 49.7618 51.3783 49.7733C51.3718 49.7791 51.3666 49.7839 51.3634 49.7868C51.3618 49.7882 51.3605 49.7894 51.3597 49.7902C51.3593 49.7905 51.3589 49.7908 51.3587 49.791C51.3586 49.7911 51.3586 49.7912 51.3585 49.7912C51.3585 49.7913 51.3585 49.7913 51.3584 49.7913C51.3584 49.7913 51.3584 49.7913 51.3584 49.7913C51.358 49.7917 51.3604 49.7895 51.3632 49.7869C51.3663 49.7841 51.3715 49.7794 51.3779 49.7736C51.3844 49.7677 51.3928 49.7601 51.4026 49.7513C51.4125 49.7425 51.4242 49.732 51.4376 49.7203C51.464 49.697 51.4986 49.6668 51.5398 49.6322C51.581 49.5975 51.6309 49.5564 51.6883 49.511C51.7458 49.4657 51.8128 49.4145 51.8884 49.3598C51.9641 49.3051 52.05 49.2456 52.1458 49.1836C52.2417 49.1216 52.3486 49.0563 52.4664 48.9902C52.5842 48.924 52.7135 48.8566 52.8541 48.7906L55.4043 54.2217ZM55.4082 54.2188L59.2341 49.5968C56.5739 47.3948 53.7202 45.0093 50.8372 42.5628L46.9551 47.1377L43.073 51.7126C45.9993 54.1958 48.8911 56.613 51.5823 58.8407L55.4082 54.2188ZM46.9551 47.1377L43.272 42.4011C43.1241 42.5161 42.9986 42.6248 42.896 42.7191C42.8445 42.7664 42.7979 42.8108 42.7566 42.8513C42.7152 42.8918 42.6784 42.929 42.6464 42.962C42.6144 42.995 42.5865 43.0246 42.5632 43.0496C42.5399 43.0746 42.5202 43.0962 42.5051 43.1129C42.49 43.1295 42.478 43.143 42.4707 43.1512C42.467 43.1554 42.464 43.1587 42.4621 43.1608C42.4612 43.1619 42.4605 43.1627 42.46 43.1633C42.4598 43.1635 42.4596 43.1637 42.4594 43.1639C42.4594 43.1639 42.4593 43.164 42.4593 43.164C42.4593 43.164 42.4593 43.1641 42.4593 43.1641C42.4593 43.1641 42.4592 43.1641 42.4592 43.1641C42.459 43.1644 42.4604 43.1628 42.462 43.161C42.4638 43.159 42.4667 43.1557 42.4704 43.1516C42.4775 43.1435 42.4895 43.1301 42.5044 43.1136C42.5194 43.097 42.539 43.0756 42.5622 43.0507C42.5853 43.0258 42.6132 42.9964 42.645 42.9635C42.6769 42.9307 42.7137 42.8935 42.7549 42.8531C42.7962 42.8127 42.8426 42.7685 42.894 42.7213C42.9965 42.6272 43.1218 42.5187 43.2695 42.4039L46.9512 47.1416L50.6328 51.8793C50.7809 51.7642 50.9066 51.6554 51.0093 51.5611C51.0609 51.5137 51.1075 51.4693 51.149 51.4287C51.1904 51.3882 51.2273 51.3509 51.2593 51.3178C51.2913 51.2848 51.3193 51.2552 51.3427 51.2301C51.366 51.2051 51.3857 51.1835 51.4009 51.1667C51.416 51.1501 51.4281 51.1365 51.4354 51.1283C51.4392 51.1241 51.4422 51.1206 51.444 51.1186C51.445 51.1175 51.4458 51.1166 51.4462 51.1161C51.4465 51.1158 51.4467 51.1156 51.4468 51.1154C51.4469 51.1154 51.4469 51.1153 51.4469 51.1153C51.447 51.1152 51.447 51.1152 51.447 51.1152C51.4473 51.1149 51.4459 51.1164 51.4443 51.1182C51.4426 51.1202 51.4396 51.1235 51.436 51.1276C51.4289 51.1356 51.417 51.149 51.4021 51.1654C51.3871 51.1819 51.3676 51.2033 51.3445 51.2281C51.3213 51.253 51.2936 51.2824 51.2618 51.3152C51.2299 51.348 51.1932 51.3851 51.152 51.4255C51.1108 51.4658 51.0645 51.51 51.0131 51.5572C50.9108 51.6511 50.7857 51.7596 50.6381 51.8743L46.9551 47.1377ZM46.9512 47.1416L50.8355 42.5687C49.6825 41.5893 48.5367 40.6157 47.4031 39.6397L43.4883 44.1865L39.5734 48.7334C40.7421 49.7396 41.9176 50.7384 43.0668 51.7145L46.9512 47.1416ZM43.4883 44.1865L46.7702 49.2094C46.91 49.118 47.0349 49.0281 47.145 48.9435C47.255 48.8589 47.3526 48.7779 47.4375 48.7036C47.5225 48.6294 47.5973 48.5598 47.6616 48.4975C47.7259 48.4353 47.782 48.3782 47.8293 48.3286C47.8767 48.2791 47.9174 48.2347 47.9505 48.1979C47.9836 48.1611 48.0114 48.1293 48.0323 48.1051C48.0531 48.081 48.0697 48.0613 48.0796 48.0496C48.0847 48.0435 48.0888 48.0386 48.0913 48.0356C48.0926 48.0341 48.0937 48.0329 48.0943 48.0321C48.0946 48.0317 48.0949 48.0314 48.0951 48.0312C48.0951 48.0311 48.0952 48.031 48.0953 48.0309C48.0953 48.0309 48.0953 48.0308 48.0953 48.0308C48.0957 48.0304 48.0939 48.0326 48.0917 48.0352C48.0893 48.0381 48.0853 48.0428 48.0803 48.0487C48.0707 48.0602 48.0543 48.0796 48.0337 48.1034C48.013 48.1274 47.9855 48.1589 47.9527 48.1954C47.9198 48.232 47.8794 48.276 47.8323 48.3253C47.7853 48.3746 47.7295 48.4314 47.6655 48.4933C47.6015 48.5552 47.5271 48.6245 47.4425 48.6985C47.3579 48.7725 47.2608 48.8532 47.1513 48.9375C47.0417 49.0218 46.9172 49.1115 46.778 49.2026L43.4932 44.1816L40.2083 39.1607C40.0689 39.2519 39.9442 39.3418 39.8344 39.4262C39.7246 39.5107 39.6273 39.5916 39.5425 39.6658C39.4577 39.7399 39.3831 39.8094 39.3189 39.8715C39.2547 39.9337 39.1987 39.9907 39.1515 40.0402C39.1042 40.0897 39.0636 40.1339 39.0305 40.1707C38.9975 40.2075 38.9698 40.2392 38.9489 40.2634C38.9281 40.2874 38.9116 40.307 38.9017 40.3187C38.8966 40.3248 38.8925 40.3296 38.8901 40.3326C38.8888 40.3341 38.8878 40.3354 38.8871 40.3361C38.8868 40.3365 38.8865 40.3368 38.8864 40.337C38.8863 40.3371 38.8862 40.3372 38.8862 40.3372C38.8862 40.3373 38.8861 40.3373 38.8861 40.3373C38.8861 40.3373 38.8861 40.3373 38.8861 40.3373C38.8858 40.3378 38.8876 40.3355 38.8898 40.3329C38.8922 40.33 38.8962 40.3252 38.9012 40.3193C38.9109 40.3078 38.9274 40.2884 38.948 40.2645C38.9687 40.2404 38.9963 40.2089 39.0292 40.1723C39.0621 40.1357 39.1026 40.0916 39.1497 40.0422C39.1969 39.9929 39.2528 39.936 39.3169 39.874C39.381 39.8119 39.4556 39.7425 39.5403 39.6684C39.6251 39.5944 39.7224 39.5135 39.8322 39.4291C39.9421 39.3447 40.0668 39.2549 40.2064 39.1636L43.4883 44.1865ZM43.4932 44.1816L47.404 39.6313C44.6851 37.2946 42.0047 34.951 39.4979 32.704L35.4932 37.1719L31.4884 41.6397C34.07 43.9537 36.8147 46.3534 39.5824 48.732L43.4932 44.1816ZM35.4932 37.1719L31.4843 32.7077C31.398 32.7852 31.3207 32.8591 31.2523 32.9275C31.1839 32.9958 31.1229 33.06 31.0694 33.1184C31.0159 33.1768 30.9684 33.2309 30.9273 33.2791C30.8862 33.3273 30.8501 33.3712 30.8194 33.4093C30.7887 33.4474 30.7621 33.4813 30.7403 33.5096C30.7186 33.5378 30.7003 33.562 30.6864 33.5806C30.6726 33.5991 30.6615 33.6141 30.6549 33.6231C30.6515 33.6277 30.6488 33.6314 30.6471 33.6337C30.6462 33.6349 30.6455 33.6358 30.6451 33.6364C30.6449 33.6367 30.6447 33.637 30.6446 33.6371C30.6445 33.6372 30.6445 33.6373 30.6445 33.6373C30.6444 33.6374 30.6444 33.6374 30.6444 33.6374C30.6442 33.6377 30.6454 33.636 30.6469 33.6341C30.6484 33.6319 30.6511 33.6282 30.6544 33.6237C30.6609 33.6149 30.6718 33.6001 30.6854 33.5819C30.6992 33.5635 30.7173 33.5395 30.7389 33.5115C30.7606 33.4834 30.787 33.4497 30.8175 33.4118C30.8481 33.3739 30.884 33.3302 30.925 33.2821C30.966 33.2341 31.0133 33.1802 31.0667 33.122C31.12 33.0638 31.1809 32.9997 31.2492 32.9316C31.3174 32.8634 31.3946 32.7896 31.4808 32.7123L35.4883 37.1777L39.4957 41.6432C39.5821 41.5657 39.6596 41.4916 39.728 41.4233C39.7965 41.3549 39.8576 41.2906 39.9112 41.2322C39.9648 41.1737 40.0123 41.1196 40.0534 41.0714C40.0946 41.0231 40.1308 40.9791 40.1616 40.941C40.1923 40.9028 40.2189 40.8688 40.2408 40.8405C40.2626 40.8123 40.2809 40.788 40.2948 40.7693C40.3087 40.7508 40.3198 40.7358 40.3264 40.7267C40.3298 40.722 40.3326 40.7183 40.3343 40.716C40.3352 40.7148 40.3359 40.7138 40.3363 40.7132C40.3365 40.7129 40.3367 40.7127 40.3368 40.7125C40.3369 40.7124 40.337 40.7122 40.337 40.7122C40.3373 40.7118 40.3361 40.7135 40.3346 40.7155C40.3331 40.7176 40.3304 40.7213 40.3271 40.7257C40.3207 40.7345 40.3099 40.7492 40.2963 40.7674C40.2826 40.7857 40.2644 40.8097 40.2429 40.8377C40.2213 40.8657 40.1949 40.8993 40.1644 40.9372C40.1339 40.9751 40.098 41.0187 40.0571 41.0667C40.0162 41.1146 39.969 41.1685 39.9157 41.2266C39.8624 41.2848 39.8016 41.3488 39.7334 41.4169C39.6652 41.485 39.5881 41.5588 39.502 41.6361L35.4932 37.1719ZM35.4883 37.1777L39.4982 32.7145C38.3609 31.6927 37.2739 30.7129 36.2505 29.7669L32.1777 34.1729L28.105 38.5788C29.197 39.5883 30.3402 40.6184 31.4783 41.641L35.4883 37.1777ZM32.1777 34.1729L36.0626 38.7454C36.1572 38.665 36.2386 38.5908 36.3058 38.5271C36.3728 38.4635 36.4287 38.4077 36.4712 38.3642C36.4926 38.3423 36.5114 38.3227 36.5271 38.3062C36.5428 38.2897 36.5561 38.2755 36.5663 38.2646C36.5764 38.2537 36.5845 38.245 36.5892 38.2398C36.5934 38.2353 36.5973 38.231 36.5963 38.2322C36.5962 38.2322 36.5952 38.2334 36.5938 38.2348C36.5924 38.2364 36.5902 38.2388 36.5874 38.2418C36.5821 38.2476 36.5734 38.257 36.5626 38.2685C36.5517 38.2801 36.5377 38.295 36.5213 38.3122C36.5048 38.3295 36.4852 38.3498 36.4629 38.3726C36.4186 38.4176 36.3606 38.4753 36.291 38.5407C36.2212 38.6063 36.1366 38.6827 36.0382 38.7652L32.1826 34.168L28.327 29.5708C28.2282 29.6536 28.1432 29.7303 28.073 29.7963C28.0029 29.8622 27.9445 29.9202 27.8999 29.9657C27.8556 30.0108 27.8204 30.0481 27.7989 30.071C27.788 30.0828 27.7791 30.0924 27.7735 30.0984C27.7707 30.1015 27.7683 30.104 27.7668 30.1056C27.7654 30.1072 27.7642 30.1085 27.7641 30.1086C27.7628 30.11 27.7665 30.106 27.7705 30.1016C27.7751 30.0967 27.783 30.0881 27.7929 30.0775C27.8122 30.0568 27.8452 30.0218 27.8868 29.9791C27.9289 29.9361 27.9843 29.8806 28.051 29.8175C28.1178 29.7541 28.1987 29.6803 28.2929 29.6003L32.1777 34.1729ZM32.1826 34.168L36.2482 29.7554C32.6575 26.447 29.769 23.6044 27.9529 21.5309C27.0059 20.4498 26.5827 19.8374 26.4634 19.6252C26.384 19.4841 26.6279 19.8533 26.7514 20.574C26.8825 21.3399 26.9861 23.4465 25.2172 25.2153L20.9746 20.9727L16.732 16.73C14.6834 18.7786 14.7007 21.2986 14.9236 22.5997C15.1387 23.8557 15.6522 24.8821 16.0045 25.5085C16.7486 26.8313 17.8376 28.195 18.926 29.4376C21.1806 32.0115 24.4556 35.2071 28.117 38.5805L32.1826 34.168Z" fill="white" mask="url(#path-1-outside-1_1347_20601)"/>
<path d="M180.001 108.24C168.97 64.1025 131.139 28.4847 91.2502 50.3647C91.2502 50.3647 71.1524 43.7158 68.2546 41.7069C65.4324 39.7514 60.988 37.6892 64.2013 43.6447C66.0813 47.1203 68.0902 51.0758 74.8813 58.3869C55.5569 77.5914 61.2413 101.165 54.4146 116.667C48.6191 129.831 42.9613 137.702 48.5924 147.671C54.4458 158.027 69.6102 163.058 79.7835 152.382C85.3124 146.574 81.8769 143.774 93.7035 133.707C105.806 131.294 113.232 125.747 113.232 114.262C113.232 114.262 116.766 112.565 121.348 140.969C123.375 153.494 120.65 166 121.175 180.005H180.001V108.24Z" fill="#6AA6E0"/>
<path d="M161.8 46.9421C164.16 52.7732 165.569 63.431 164.445 70.5776C163.778 53.1421 150.276 41.3287 144.996 38.6087C135.209 33.5554 125.565 34.2576 114.778 35.1776C115.271 35.9243 116.569 38.7954 116.2 42.0532C114.071 38.1643 109.071 35.7421 105.831 36.4043C99.7868 37.6354 94.449 39.4132 90.3868 41.5421C88.1468 41.9954 84.8357 43.3776 79.8446 46.4354C71.3512 51.6398 61.289 65.7154 49.9023 62.0398C54.5335 73.151 66.0401 70.2398 66.0401 70.2398C71.4046 61.5732 84.1157 53.4443 93.4534 50.4532C127.316 42.6976 149.516 65.7376 162.036 92.2221C165.449 99.4443 173.64 123.92 179.996 137.964V68.6932C176.667 64.0798 174.302 55.2798 161.8 46.9421Z" fill="#276288"/>
<path d="M81.2861 36.2755C83.8328 39.7777 95.6683 39.8043 101.713 53.2532C107.753 66.7021 93.0772 64.9421 87.7572 58.7199C81.8283 51.7821 79.175 45.9955 78.135 40.9777C77.5839 38.3288 76.1305 29.2043 81.2861 36.2755Z" fill="#D7E8FC"/>
<path d="M83.1511 42.0537C87.4 44.6004 92.7689 48.787 94.3378 53.5915C95.8978 58.3959 91.1955 57.5515 88.3422 53.4048C85.4933 49.2537 84.1644 44.627 82.6311 43.347C81.0933 42.0626 83.1511 42.0537 83.1511 42.0537Z" fill="#7697BD"/>
<path d="M87.7973 93.9853C92.9073 93.9853 97.0497 89.8428 97.0497 84.7329C97.0497 79.6229 92.9073 75.4805 87.7973 75.4805C82.6874 75.4805 78.5449 79.6229 78.5449 84.7329C78.5449 89.8428 82.6874 93.9853 87.7973 93.9853Z" fill="white"/>
<path d="M87.6525 90.3469C90.716 90.3469 93.1995 87.8635 93.1995 84.7999C93.1995 81.7364 90.716 79.2529 87.6525 79.2529C84.589 79.2529 82.1055 81.7364 82.1055 84.7999C82.1055 87.8635 84.589 90.3469 87.6525 90.3469Z" fill="black"/>
<path d="M58.3515 139.453C58.8804 142.378 57.5471 145.067 55.3737 145.458C53.196 145.853 51.0004 143.805 50.4671 140.88C49.9382 137.951 51.276 135.258 53.4493 134.862C55.6271 134.471 57.8226 136.52 58.3515 139.453Z" fill="#3C73A8"/>
<path d="M81.5306 56.1067L81.5439 56.0978L81.5217 56.0667L81.4506 56.0045C81.4151 55.9734 81.4017 55.92 81.3662 55.8934C81.3262 55.8623 81.2728 55.8445 81.2284 55.8134C76.0951 51.4578 24.1484 17.8 20.9751 20.9734C17.7351 24.2134 66.4151 63.2978 69.5528 65.6889L69.6017 65.7156L72.0062 67.6667C72.0417 67.6978 72.0506 67.7467 72.0862 67.7734C72.1439 67.8178 72.2106 67.84 72.2728 67.88L72.4817 68.0489L72.4417 67.9778C74.9528 69.5823 78.7839 68.4845 81.2373 65.3467C83.7217 62.1689 83.8017 58.1245 81.5306 56.1067Z" fill="#EAC00F"/>
<path d="M40.7822 30.0003L40.8222 29.8892C39.4844 29.1159 38.1822 28.3737 36.92 27.667C36.8488 27.8359 36.8222 27.9737 36.7377 28.1559C36.24 29.2359 35.6 30.307 34.8311 31.3381C34.0933 32.3337 33.28 33.2225 32.4266 33.9825C32.3377 34.0625 32.2666 34.0981 32.1777 34.1737C33.2355 35.1514 34.3511 36.1559 35.4888 37.1781C36.5288 36.2448 37.5155 35.1825 38.3955 33.9914C39.3466 32.7159 40.1511 31.3737 40.7822 30.0003ZM50.8933 43.0892C52.2533 41.267 53.2088 39.4359 53.8266 37.7025C52.5288 36.8981 51.2311 36.1025 49.9333 35.3114C49.5955 36.6359 48.8355 38.4181 47.3288 40.4314C45.9511 42.2848 44.6044 43.4581 43.4888 44.187C44.64 45.1781 45.8 46.1648 46.9511 47.1425C48.3466 46.0581 49.7022 44.6892 50.8933 43.0892ZM63.8622 52.5337C65.4844 50.3559 66.5688 48.1648 67.1244 46.147L63.0977 43.5425C62.9955 44.8581 62.3333 47.1425 60.2933 49.8759C58.4622 52.3381 56.6444 53.6403 55.4044 54.2225L59.0222 57.2048C60.7155 56.067 62.4044 54.4892 63.8622 52.5337Z" fill="#FFDE55"/>
</svg>
