<svg width="200" height="200" viewBox="0 0 200 200" fill="none" xmlns="http://www.w3.org/2000/svg">
<mask id="path-1-outside-1_1062_25478" maskUnits="userSpaceOnUse" x="15.25" y="15.25" width="170" height="170" fill="black">
<rect fill="white" x="15.25" y="15.25" width="170" height="170"/>
<path d="M156.25 21.25C168.676 21.25 178.75 31.3236 178.75 43.75V156.25C178.75 168.676 168.676 178.75 156.25 178.75H43.75C31.3236 178.75 21.25 168.676 21.25 156.25V43.75C21.25 31.3236 31.3236 21.25 43.75 21.25H156.25Z"/>
</mask>
<path d="M156.25 21.25C168.676 21.25 178.75 31.3236 178.75 43.75V156.25C178.75 168.676 168.676 178.75 156.25 178.75H43.75C31.3236 178.75 21.25 168.676 21.25 156.25V43.75C21.25 31.3236 31.3236 21.25 43.75 21.25H156.25Z" fill="white"/>
<path d="M156.25 21.25V27.25C165.363 27.25 172.75 34.6373 172.75 43.75H178.75H184.75C184.75 28.0098 171.99 15.25 156.25 15.25V21.25ZM178.75 43.75H172.75V156.25H178.75H184.75V43.75H178.75ZM178.75 156.25H172.75C172.75 165.362 165.362 172.75 156.25 172.75V178.75V184.75C171.99 184.75 184.75 171.99 184.75 156.25H178.75ZM156.25 178.75V172.75H43.75V178.75V184.75H156.25V178.75ZM43.75 178.75V172.75C34.6373 172.75 27.25 165.363 27.25 156.25H21.25H15.25C15.25 171.99 28.0098 184.75 43.75 184.75V178.75ZM21.25 156.25H27.25V43.75H21.25H15.25V156.25H21.25ZM21.25 43.75H27.25C27.25 34.6373 34.6373 27.25 43.75 27.25V21.25V15.25C28.0099 15.25 15.25 28.0099 15.25 43.75H21.25ZM43.75 21.25V27.25H156.25V21.25V15.25H43.75V21.25Z" fill="white" mask="url(#path-1-outside-1_1062_25478)"/>
<path d="M21.25 43.75C21.25 31.3236 31.3236 21.25 43.75 21.25H156.25C168.676 21.25 178.75 31.3236 178.75 43.75V156.25C178.75 168.676 168.676 178.75 156.25 178.75H43.75C31.3236 178.75 21.25 168.676 21.25 156.25V43.75Z" fill="#4B9AE8"/>
<path d="M119.303 66.25C127.069 66.25 133.365 59.954 133.365 52.1875C133.365 44.421 127.069 38.125 119.303 38.125C111.536 38.125 105.24 44.421 105.24 52.1875C105.24 59.954 111.536 66.25 119.303 66.25Z" fill="white"/>
<path d="M138.038 73.2502H104.493C99.3565 73.2502 94.7648 76.4458 92.9789 81.2591L87.4697 96.1018H77.5028C74.4726 96.1018 71.8677 98.4294 71.7271 101.456C71.5757 104.687 74.1492 107.352 77.3447 107.352H88.2961C92.4867 107.352 96.2768 104.711 97.732 100.781L103.325 85.6607C103.491 85.2174 103.885 84.8799 104.355 84.8518C105.027 84.8096 105.586 85.3406 105.586 86.0049V157.815C105.586 160.846 107.913 163.45 110.94 163.591C114.171 163.742 116.836 161.169 116.836 157.973V118.81C116.836 117.313 117.968 116.005 119.462 115.907C121.049 115.907 122.461 117.098 122.461 118.712V157.815C122.461 160.846 124.788 163.45 127.815 163.591C131.046 163.742 133.711 161.169 133.711 157.973L133.816 87.6536C133.816 86.1067 135.071 84.8484 136.622 84.8484C138.172 84.8484 139.427 86.1034 139.427 87.6536L139.322 114.942C139.322 118.138 141.987 120.711 145.218 120.56C148.244 120.419 150.572 117.811 150.572 114.784V85.7799C150.568 78.8612 144.957 73.2502 138.038 73.2502Z" fill="white"/>
<mask id="path-6-outside-2_1062_25478" maskUnits="userSpaceOnUse" x="51.7965" y="104.358" width="35.6506" height="36.7487" fill="black">
<rect fill="white" x="51.7965" y="104.358" width="35.6506" height="36.7487"/>
<path d="M61.9992 116.936C64.5295 112.553 70.1334 111.052 74.5157 113.582C78.8977 116.113 80.3991 121.716 77.8692 126.098C75.7469 129.774 71.462 131.423 67.5493 130.365C66.9823 131.16 65.8914 131.859 65.1172 131.64C64.1196 131.359 63.3629 129.476 63.6108 128.47C63.632 128.384 63.6591 128.301 63.6892 128.221C60.6312 125.378 59.8226 120.706 61.9992 116.936Z"/>
</mask>
<path d="M61.9992 116.936C64.5295 112.553 70.1334 111.052 74.5157 113.582C78.8977 116.113 80.3991 121.716 77.8692 126.098C75.7469 129.774 71.462 131.423 67.5493 130.365C66.9823 131.16 65.8914 131.859 65.1172 131.64C64.1196 131.359 63.3629 129.476 63.6108 128.47C63.632 128.384 63.6591 128.301 63.6892 128.221C60.6312 125.378 59.8226 120.706 61.9992 116.936Z" fill="#DFB820"/>
<path d="M61.9992 116.936L59.4012 115.435L59.4011 115.436L61.9992 116.936ZM74.5157 113.582L76.0158 110.984L76.0157 110.984L74.5157 113.582ZM77.8692 126.098L80.4673 127.598L80.4674 127.598L77.8692 126.098ZM67.5493 130.365L68.3319 127.469L66.3189 126.925L65.1075 128.622L67.5493 130.365ZM65.1172 131.64L64.3019 134.528L64.3034 134.528L65.1172 131.64ZM63.6108 128.47L60.6979 127.752L60.6979 127.752L63.6108 128.47ZM63.6892 128.221L66.498 129.275L67.2041 127.393L65.732 126.024L63.6892 128.221ZM61.9992 116.936L64.5972 118.436C66.2989 115.489 70.0681 114.479 73.0157 116.181L74.5157 113.582L76.0157 110.984C70.1988 107.626 62.76 109.618 59.4012 115.435L61.9992 116.936ZM74.5157 113.582L73.0156 116.181C75.9628 117.882 76.9726 121.651 75.2711 124.598L77.8692 126.098L80.4674 127.598C83.8255 121.781 81.8326 114.343 76.0158 110.984L74.5157 113.582ZM77.8692 126.098L75.2712 124.598C73.8459 127.067 70.9648 128.181 68.3319 127.469L67.5493 130.365L66.7667 133.261C71.9593 134.665 77.6478 132.482 80.4673 127.598L77.8692 126.098ZM67.5493 130.365L65.1075 128.622C65.1078 128.622 65.1017 128.631 65.0882 128.645C65.0749 128.66 65.0578 128.677 65.0377 128.696C64.9938 128.735 64.9577 128.758 64.9445 128.765C64.9258 128.776 64.9806 128.741 65.1141 128.712C65.2461 128.684 65.5442 128.644 65.931 128.753L65.1172 131.64L64.3034 134.528C65.8016 134.95 67.1355 134.415 67.8774 134C68.7016 133.538 69.4497 132.867 69.9911 132.108L67.5493 130.365ZM65.1172 131.64L65.9325 128.753C66.1802 128.823 66.3586 128.925 66.468 129.001C66.5767 129.077 66.6384 129.141 66.6621 129.168C66.7026 129.213 66.6782 129.198 66.6348 129.101C66.594 129.01 66.5711 128.923 66.5635 128.876C66.5602 128.855 66.5636 128.865 66.5633 128.906C66.5631 128.943 66.5594 129.043 66.5236 129.188L63.6108 128.47L60.6979 127.752C60.351 129.16 60.7343 130.605 61.159 131.553C61.3985 132.088 61.7349 132.659 62.1901 133.168C62.6289 133.658 63.3237 134.251 64.3019 134.528L65.1172 131.64ZM63.6108 128.47L66.5236 129.188C66.5167 129.216 66.5103 129.238 66.5057 129.252C66.5011 129.267 66.4981 129.275 66.498 129.275L63.6892 128.221L60.8804 127.167C60.8202 127.328 60.7539 127.525 60.6979 127.752L63.6108 128.47ZM63.6892 128.221L65.732 126.024C63.6747 124.111 63.1358 120.967 64.5972 118.436L61.9992 116.936L59.4011 115.436C56.5093 120.444 57.5878 126.644 61.6463 130.418L63.6892 128.221Z" fill="white" mask="url(#path-6-outside-2_1062_25478)"/>
<path d="M77.8674 126.098C80.3976 121.716 78.8961 116.112 74.5137 113.582C70.1313 111.052 64.5275 112.553 61.9973 116.936C59.4671 121.318 60.9687 126.922 65.3511 129.452C69.7335 131.982 75.3372 130.481 77.8674 126.098Z" fill="#4B98E6"/>
<circle cx="66.1781" cy="123.226" r="2.39805" transform="rotate(-60 66.1781 123.226)" fill="white"/>
<circle cx="66.1784" cy="123.225" r="1.43883" transform="rotate(-60 66.1784 123.225)" fill="#161616"/>
<circle cx="66.1784" cy="123.225" r="1.43883" transform="rotate(-60 66.1784 123.225)" fill="#161616"/>
<path d="M67.9078 129.624C67.6707 130.601 66.1631 131.79 65.1663 131.506C64.1695 131.222 63.3953 129.384 63.6318 128.408C63.8682 127.433 64.7119 126.824 66.197 127.247C67.6998 127.675 68.1443 128.648 67.9071 129.626L67.9078 129.624Z" fill="#DFB820"/>
<path d="M84.7499 119.688V156.25H54.625V119.688C54.625 118.134 53.3664 116.875 51.8125 116.875C50.2586 116.875 49 118.134 49 119.688V157.656C49 159.987 50.8879 161.875 53.2187 161.875H86.1561C88.4871 161.875 90.3749 159.987 90.3749 157.656V119.688C90.3749 118.134 89.1166 116.875 87.5624 116.875C86.0088 116.875 84.7499 118.134 84.7499 119.688Z" fill="white"/>
</svg>
