<svg width="200" height="200" viewBox="0 0 200 200" fill="none" xmlns="http://www.w3.org/2000/svg">
<mask id="path-1-outside-1_898_5333" maskUnits="userSpaceOnUse" x="21.2388" y="21.5579" width="156" height="157" fill="black">
<rect fill="white" x="21.2388" y="21.5579" width="156" height="157"/>
<path d="M137.023 27.9733C161.105 24.7624 170.738 40.8173 170.738 53.6608C170.738 69.2159 164.316 69.7155 160.24 77.0133C159.429 78.4645 158.986 80.2675 160.134 81.4694C176.865 98.9815 185.307 172.464 100.097 172.464C23.0353 172.465 17.0387 110.97 40.0199 81.4108C41.0436 80.0943 41.222 78.3327 40.1 77.0992C35.5798 72.1326 26.0845 59.6864 31.0629 47.2399C37.4846 31.1856 50.3277 27.9743 59.9604 27.9742C69.1917 27.9742 84.3213 33.872 88.392 51.3199C88.7171 52.7125 90.0139 53.6616 91.4438 53.6617L110.442 53.6608C111.866 53.6606 113.122 52.7238 113.497 51.3492C115.217 45.0365 121.459 30.0485 137.023 27.9733Z"/>
</mask>
<path d="M137.023 27.9733C161.105 24.7624 170.738 40.8173 170.738 53.6608C170.738 69.2159 164.316 69.7155 160.24 77.0133C159.429 78.4645 158.986 80.2675 160.134 81.4694C176.865 98.9815 185.307 172.464 100.097 172.464C23.0353 172.465 17.0387 110.97 40.0199 81.4108C41.0436 80.0943 41.222 78.3327 40.1 77.0992C35.5798 72.1326 26.0845 59.6864 31.0629 47.2399C37.4846 31.1856 50.3277 27.9743 59.9604 27.9742C69.1917 27.9742 84.3213 33.872 88.392 51.3199C88.7171 52.7125 90.0139 53.6616 91.4438 53.6617L110.442 53.6608C111.866 53.6606 113.122 52.7238 113.497 51.3492C115.217 45.0365 121.459 30.0485 137.023 27.9733Z" fill="black"/>
<path d="M137.023 27.9733L136.23 22.0259L136.23 22.0259L137.023 27.9733ZM170.738 53.6608L176.738 53.6608L176.738 53.6607L170.738 53.6608ZM160.24 77.0133L165.478 79.9395L165.478 79.9392L160.24 77.0133ZM160.134 81.4694L155.795 85.6134L155.796 85.6141L160.134 81.4694ZM100.097 172.464L100.097 166.464L100.097 166.464L100.097 172.464ZM40.0199 81.4108L35.2833 77.7278L35.2831 77.728L40.0199 81.4108ZM40.1 77.0992L44.5386 73.062L44.5374 73.0607L40.1 77.0992ZM31.0629 47.2399L25.492 45.0115L25.492 45.0116L31.0629 47.2399ZM59.9604 27.9742L59.9604 21.9742L59.9603 21.9742L59.9604 27.9742ZM88.392 51.3199L82.5489 52.6832L82.5491 52.684L88.392 51.3199ZM91.4438 53.6617L91.4433 59.6617L91.4441 59.6617L91.4438 53.6617ZM110.442 53.6608L110.442 59.6608L110.442 59.6608L110.442 53.6608ZM113.497 51.3492L119.285 52.9281L119.285 52.9274L113.497 51.3492ZM137.023 27.9733L137.816 33.9206C148.34 32.5175 154.849 35.3631 158.749 39.1186C162.822 43.0406 164.738 48.6157 164.738 53.6608L170.738 53.6608L176.738 53.6607C176.738 45.8623 173.837 36.9883 167.073 30.4747C160.136 23.7947 149.788 20.2182 136.23 22.0259L137.023 27.9733ZM170.738 53.6608H164.738C164.738 60.4789 163.37 63.2047 162.124 64.9621C161.32 66.0946 160.484 66.9538 159.124 68.4768C157.852 69.9012 156.342 71.6874 155.001 74.0874L160.24 77.0133L165.478 79.9392C166.175 78.6903 166.997 77.6773 168.075 76.4695C169.066 75.3602 170.6 73.7539 171.911 71.905C174.894 67.6993 176.738 62.3978 176.738 53.6608H170.738ZM160.24 77.0133L155.002 74.0871C154.354 75.247 153.643 76.8947 153.475 78.8114C153.295 80.8656 153.751 83.4731 155.795 85.6134L160.134 81.4694L164.473 77.3253C164.864 77.7343 165.148 78.238 165.304 78.7602C165.45 79.2532 165.448 79.6456 165.43 79.8582C165.399 80.2101 165.315 80.2308 165.478 79.9395L160.24 77.0133ZM160.134 81.4694L155.796 85.6141C158.909 88.8723 162.219 95.5261 163.904 104.217C165.56 112.761 165.497 122.561 162.619 131.738C159.767 140.829 154.147 149.362 144.49 155.691C134.778 162.055 120.556 166.464 100.097 166.464V172.464V178.464C122.243 178.464 138.92 173.688 151.067 165.728C163.27 157.731 170.471 146.799 174.068 135.33C177.639 123.947 177.654 112.093 175.685 101.933C173.744 91.9211 169.725 82.8225 164.473 77.3246L160.134 81.4694ZM100.097 172.464L100.097 166.464C63.2796 166.465 45.1134 151.95 38.0481 135.638C30.7347 118.753 34.4919 98.2964 44.7567 85.0935L40.0199 81.4108L35.2831 77.728C22.5668 94.084 17.8316 119.155 27.0366 140.407C36.4897 162.232 59.8528 178.465 100.097 178.464L100.097 172.464ZM40.0199 81.4108L44.7566 85.0937C47.0262 82.1748 48.1665 77.0506 44.5386 73.062L40.1 77.0992L35.6614 81.1364C35.0855 80.5032 34.8398 79.6779 34.87 78.9687C34.8969 78.3369 35.1244 77.9322 35.2833 77.7278L40.0199 81.4108ZM40.1 77.0992L44.5374 73.0607C42.491 70.8122 39.463 67.0132 37.5153 62.567C35.5775 58.1435 34.9499 53.678 36.6338 49.4681L31.0629 47.2399L25.492 45.0116C22.1975 53.2482 23.8284 61.2291 26.5237 67.382C29.2091 73.5123 33.1888 78.4196 35.6627 81.1378L40.1 77.0992ZM31.0629 47.2399L36.6338 49.4682C39.3403 42.7019 43.2158 38.9892 47.1522 36.8695C51.214 34.6823 55.7587 33.9743 59.9604 33.9742L59.9604 27.9742L59.9603 21.9742C54.5294 21.9743 47.8362 22.872 41.4628 26.304C34.9641 29.8035 29.2072 35.7236 25.492 45.0115L31.0629 47.2399ZM59.9604 27.9742V33.9742C67.2558 33.9742 79.287 38.7018 82.5489 52.6832L88.392 51.3199L94.2351 49.9567C89.3556 29.0422 71.1276 21.9742 59.9604 21.9742V27.9742ZM88.392 51.3199L82.5491 52.684C83.5605 57.0163 87.463 59.6614 91.4433 59.6617L91.4438 53.6617L91.4442 47.6617C92.5649 47.6618 93.8737 48.4086 94.2349 49.9559L88.392 51.3199ZM91.4438 53.6617L91.4441 59.6617L110.442 59.6608L110.442 53.6608L110.442 47.6608L91.4435 47.6617L91.4438 53.6617ZM110.442 53.6608L110.442 59.6608C114.507 59.6603 118.181 56.9752 119.285 52.9281L113.497 51.3492L107.708 49.7703C108.062 48.4724 109.226 47.6609 110.441 47.6608L110.442 53.6608ZM113.497 51.3492L119.285 52.9274C120.011 50.2646 121.718 45.7341 124.809 41.7504C127.835 37.8507 131.987 34.6979 137.816 33.9206L137.023 27.9733L136.23 22.0259C126.495 23.3239 119.744 28.7027 115.328 34.394C110.977 40.0013 108.703 46.1211 107.708 49.7711L113.497 51.3492Z" fill="white" mask="url(#path-1-outside-1_898_5333)"/>
<path d="M110.441 53.6612C111.866 53.6612 113.122 52.7237 113.496 51.3489C115.217 45.0361 121.459 30.0488 137.023 27.9735C161.105 24.7626 170.737 40.8175 170.737 53.661C170.737 69.2162 164.316 69.7155 160.239 77.0134C159.429 78.4647 158.986 80.2679 160.134 81.4697C176.865 98.9819 185.307 172.465 100.097 172.465C23.0353 172.466 17.0387 110.97 40.0199 81.4108C41.0437 80.0943 41.2218 78.3328 40.0996 77.0993C35.5793 72.1326 26.084 59.686 31.0626 47.2394C37.4844 31.1849 50.3281 27.974 59.9608 27.974C69.1922 27.974 84.3214 33.8716 88.3921 51.3196C88.7171 52.7124 90.014 53.6616 91.444 53.6616L110.441 53.6612Z" fill="#6AA6E0"/>
<path d="M96.9167 117.259C96.39 121.096 92.042 123.468 88.3435 122.922C84.645 122.376 80.519 118.757 81.0457 114.92C81.5723 111.082 84.4187 108.332 89.9339 109.142C95.5142 109.965 97.4434 113.421 96.9167 117.259Z" fill="#276286"/>
<path d="M117.917 118.259C117.39 122.096 113.042 124.468 109.343 123.922C105.645 123.376 101.519 119.757 102.046 115.92C102.572 112.082 105.419 109.332 110.934 110.142C116.514 110.965 118.443 114.421 117.917 118.259Z" fill="#276286"/>
<path d="M58.3553 133.934C58.3553 133.934 100.097 172.465 145.05 133.934" stroke="#276286" stroke-width="4.28165" stroke-miterlimit="10" stroke-linecap="round" stroke-linejoin="round"/>
<path d="M57.5528 68.1055C65.0378 68.1055 71.1055 62.0378 71.1055 54.5528C71.1055 47.0678 65.0378 41 57.5528 41C50.0678 41 44 47.0678 44 54.5528C44 62.0378 50.0678 68.1055 57.5528 68.1055Z" fill="white"/>
<path d="M57.1435 62.6617C61.5485 62.6617 65.1195 59.0907 65.1195 54.6858C65.1195 50.2808 61.5485 46.7098 57.1435 46.7098C52.7385 46.7098 49.1676 50.2808 49.1676 54.6858C49.1676 59.0907 52.7385 62.6617 57.1435 62.6617Z" fill="black"/>
<path d="M144.553 68.1055C152.038 68.1055 158.106 62.0378 158.106 54.5528C158.106 47.0678 152.038 41 144.553 41C137.068 41 131 47.0678 131 54.5528C131 62.0378 137.068 68.1055 144.553 68.1055Z" fill="white"/>
<path d="M144.144 62.6617C148.548 62.6617 152.119 59.0907 152.119 54.6858C152.119 50.2808 148.548 46.7098 144.144 46.7098C139.739 46.7098 136.168 50.2808 136.168 54.6858C136.168 59.0907 139.739 62.6617 144.144 62.6617Z" fill="black"/>
</svg>
