<svg width="200" height="200" viewBox="0 0 200 200" fill="none" xmlns="http://www.w3.org/2000/svg">
<mask id="path-1-outside-1_1062_24642" maskUnits="userSpaceOnUse" x="7.80273" y="26" width="185" height="148" fill="black">
<rect fill="white" x="7.80273" y="26" width="185" height="148"/>
<path d="M115.603 33.3081C122.6 31.2499 129.033 39.9482 132.562 46.1665C139.028 42.1594 154.099 34.1553 163.614 38.9859C169.606 42.0276 170.935 52.7027 169.77 62.3911C173.497 63.7695 176.241 65.8585 176.591 69.0054C177.076 73.3734 173.875 81.1776 168.928 88.0093C172.828 96.1465 175.717 106.549 175.623 117.136C178.336 116.956 181.155 116.833 183.958 116.808L185 116.803C185.661 116.803 186.197 117.339 186.197 118.001C186.197 118.62 185.726 119.131 185.122 119.192L185 119.198L183.975 119.203C181.142 119.228 178.29 119.355 175.551 119.541C175.309 124.144 174.477 128.751 172.893 133.194C175.16 133.552 177.207 133.898 178.649 134.186C179.298 134.316 179.718 134.946 179.589 135.594C179.459 136.242 178.829 136.663 178.181 136.534C176.661 136.23 174.445 135.858 172.005 135.477C170.425 139.221 168.274 142.821 165.454 146.174C165.858 146.38 166.259 146.587 166.655 146.794C168.407 147.712 170.081 148.645 171.447 149.508C172.767 150.342 173.942 151.197 174.562 151.971C174.974 152.487 174.891 153.241 174.375 153.654C173.859 154.067 173.105 153.982 172.692 153.466C172.354 153.043 171.504 152.376 170.169 151.533C168.88 150.718 167.268 149.819 165.544 148.916C164.973 148.617 164.391 148.32 163.807 148.025C153.607 158.831 135.816 166.681 106.748 167.683C69.1067 168.981 47.8784 160.291 36.4717 147.884C35.794 148.224 35.1175 148.569 34.4561 148.916C32.7316 149.819 31.12 150.718 29.8311 151.533C28.4964 152.376 27.6461 153.043 27.3076 153.466L26.373 152.718L25.4385 151.971C26.0577 151.197 27.2328 150.342 28.5527 149.508C29.9186 148.645 31.5926 147.712 33.3447 146.794C33.8409 146.535 34.3452 146.276 34.8516 146.019C32.1132 142.676 30.0278 139.099 28.4746 135.402C25.8462 135.808 23.4376 136.21 21.8193 136.534C21.1713 136.663 20.541 136.242 20.4111 135.594C20.2816 134.946 20.7023 134.316 21.3506 134.186C22.8944 133.877 25.1296 133.502 27.5879 133.118C25.997 128.674 25.1224 124.093 24.7686 119.562C21.9317 119.364 18.9679 119.229 16.0254 119.203L15 119.198L14.8779 119.192C14.2742 119.131 13.803 118.62 13.8027 118.001C13.8027 117.339 14.3388 116.803 15 116.803L16.042 116.808C18.9311 116.834 21.8377 116.964 24.6279 117.154C23.9183 98.9481 31.1061 82.1145 33.1201 79.0923C25.937 62.9303 31.9234 44.3735 40.3037 43.1763C47.008 42.2186 62.2521 48.3647 69.0361 51.5571C77.9666 49.207 89.8576 48.0109 101.186 47.4722C105.56 40.3801 111.434 34.5342 115.603 33.3081ZM27.3076 153.466C26.8946 153.982 26.1412 154.067 25.625 153.654C25.1088 153.241 25.0258 152.487 25.4385 151.971L27.3076 153.466Z"/>
</mask>
<path d="M115.603 33.3081C122.6 31.2499 129.033 39.9482 132.562 46.1665C139.028 42.1594 154.099 34.1553 163.614 38.9859C169.606 42.0276 170.935 52.7027 169.77 62.3911C173.497 63.7695 176.241 65.8585 176.591 69.0054C177.076 73.3734 173.875 81.1776 168.928 88.0093C172.828 96.1465 175.717 106.549 175.623 117.136C178.336 116.956 181.155 116.833 183.958 116.808L185 116.803C185.661 116.803 186.197 117.339 186.197 118.001C186.197 118.62 185.726 119.131 185.122 119.192L185 119.198L183.975 119.203C181.142 119.228 178.29 119.355 175.551 119.541C175.309 124.144 174.477 128.751 172.893 133.194C175.16 133.552 177.207 133.898 178.649 134.186C179.298 134.316 179.718 134.946 179.589 135.594C179.459 136.242 178.829 136.663 178.181 136.534C176.661 136.23 174.445 135.858 172.005 135.477C170.425 139.221 168.274 142.821 165.454 146.174C165.858 146.38 166.259 146.587 166.655 146.794C168.407 147.712 170.081 148.645 171.447 149.508C172.767 150.342 173.942 151.197 174.562 151.971C174.974 152.487 174.891 153.241 174.375 153.654C173.859 154.067 173.105 153.982 172.692 153.466C172.354 153.043 171.504 152.376 170.169 151.533C168.88 150.718 167.268 149.819 165.544 148.916C164.973 148.617 164.391 148.32 163.807 148.025C153.607 158.831 135.816 166.681 106.748 167.683C69.1067 168.981 47.8784 160.291 36.4717 147.884C35.794 148.224 35.1175 148.569 34.4561 148.916C32.7316 149.819 31.12 150.718 29.8311 151.533C28.4964 152.376 27.6461 153.043 27.3076 153.466L26.373 152.718L25.4385 151.971C26.0577 151.197 27.2328 150.342 28.5527 149.508C29.9186 148.645 31.5926 147.712 33.3447 146.794C33.8409 146.535 34.3452 146.276 34.8516 146.019C32.1132 142.676 30.0278 139.099 28.4746 135.402C25.8462 135.808 23.4376 136.21 21.8193 136.534C21.1713 136.663 20.541 136.242 20.4111 135.594C20.2816 134.946 20.7023 134.316 21.3506 134.186C22.8944 133.877 25.1296 133.502 27.5879 133.118C25.997 128.674 25.1224 124.093 24.7686 119.562C21.9317 119.364 18.9679 119.229 16.0254 119.203L15 119.198L14.8779 119.192C14.2742 119.131 13.803 118.62 13.8027 118.001C13.8027 117.339 14.3388 116.803 15 116.803L16.042 116.808C18.9311 116.834 21.8377 116.964 24.6279 117.154C23.9183 98.9481 31.1061 82.1145 33.1201 79.0923C25.937 62.9303 31.9234 44.3735 40.3037 43.1763C47.008 42.2186 62.2521 48.3647 69.0361 51.5571C77.9666 49.207 89.8576 48.0109 101.186 47.4722C105.56 40.3801 111.434 34.5342 115.603 33.3081ZM27.3076 153.466C26.8946 153.982 26.1412 154.067 25.625 153.654C25.1088 153.241 25.0258 152.487 25.4385 151.971L27.3076 153.466Z" fill="#276288"/>
<path d="M115.603 33.3081L113.91 27.5519L113.909 27.552L115.603 33.3081ZM132.562 46.1665L127.344 49.1283C128.15 50.5471 129.498 51.5768 131.079 51.9802C132.66 52.3836 134.337 52.1259 135.723 51.2664L132.562 46.1665ZM163.614 38.9859L166.33 33.6358L166.33 33.6358L163.614 38.9859ZM169.77 62.3911L163.812 61.6745C163.481 64.4314 165.084 67.0557 167.689 68.0187L169.77 62.3911ZM176.591 69.0054L182.554 68.3424L182.554 68.3424L176.591 69.0054ZM168.928 88.0093L164.068 84.4902C162.778 86.2724 162.566 88.6181 163.517 90.6024L168.928 88.0093ZM175.623 117.136L169.623 117.083C169.608 118.753 170.29 120.353 171.504 121.499C172.718 122.645 174.355 123.234 176.021 123.123L175.623 117.136ZM183.958 116.808L183.93 110.808C183.922 110.808 183.913 110.808 183.905 110.808L183.958 116.808ZM185 116.803V110.803C184.991 110.803 184.981 110.803 184.972 110.803L185 116.803ZM186.197 118.001L192.197 118.003V118.001H186.197ZM185.122 119.192L185.41 125.185C185.515 125.18 185.621 125.172 185.726 125.161L185.122 119.192ZM185 119.198L185.029 125.198C185.115 125.197 185.201 125.195 185.288 125.191L185 119.198ZM183.975 119.203L183.946 113.203C183.938 113.203 183.93 113.203 183.922 113.203L183.975 119.203ZM175.551 119.541L175.144 113.554C172.116 113.76 169.718 116.195 169.559 119.226L175.551 119.541ZM172.893 133.194L167.241 131.179C166.641 132.861 166.822 134.722 167.734 136.258C168.645 137.793 170.194 138.842 171.957 139.121L172.893 133.194ZM178.649 134.186L179.826 128.303L179.826 128.303L178.649 134.186ZM179.589 135.594L185.472 136.773L185.473 136.77L179.589 135.594ZM178.181 136.534L177.004 142.417L177.006 142.418L178.181 136.534ZM172.005 135.477L172.93 129.549C170.209 129.124 167.548 130.607 166.477 133.145L172.005 135.477ZM165.454 146.174L160.862 142.312C159.685 143.712 159.21 145.573 159.574 147.366C159.937 149.159 161.098 150.688 162.728 151.519L165.454 146.174ZM166.655 146.794L169.439 141.479L169.439 141.479L166.655 146.794ZM171.447 149.508L174.652 144.436L174.652 144.436L171.447 149.508ZM174.562 151.971L179.248 148.225L179.247 148.223L174.562 151.971ZM174.375 153.654L178.123 158.339L178.123 158.339L174.375 153.654ZM172.692 153.466L168.007 157.214L168.008 157.216L172.692 153.466ZM170.169 151.533L173.374 146.46L173.374 146.46L170.169 151.533ZM165.544 148.916L168.327 143.6L168.327 143.6L165.544 148.916ZM163.807 148.025L166.509 142.668C164.139 141.472 161.265 141.976 159.443 143.906L163.807 148.025ZM106.748 167.683L106.955 173.68L106.955 173.68L106.748 167.683ZM36.4717 147.884L40.8886 143.823C39.0755 141.851 36.1748 141.32 33.7805 142.522L36.4717 147.884ZM34.4561 148.916L31.6726 143.6L31.6726 143.6L34.4561 148.916ZM29.8311 151.533L26.6265 146.46L26.6264 146.46L29.8311 151.533ZM27.3076 153.466L31.9918 157.216L31.9928 157.214L27.3076 153.466ZM26.373 152.718L30.1224 148.034L30.1194 148.032L26.373 152.718ZM25.4385 151.971L20.7533 148.223L20.7517 148.225L25.4385 151.971ZM28.5527 149.508L25.3482 144.436L25.3481 144.436L28.5527 149.508ZM33.3447 146.794L30.5613 141.479L30.5612 141.479L33.3447 146.794ZM34.8516 146.019L37.5649 151.37C39.1866 150.548 40.348 149.035 40.7227 147.256C41.0975 145.476 40.6452 143.623 39.4929 142.217L34.8516 146.019ZM28.4746 135.402L34.0064 133.078C32.9396 130.538 30.2804 129.051 27.558 129.472L28.4746 135.402ZM21.8193 136.534L22.994 142.418L22.996 142.417L21.8193 136.534ZM20.4111 135.594L14.5275 136.77L14.5282 136.773L20.4111 135.594ZM21.3506 134.186L20.174 128.303L20.1739 128.303L21.3506 134.186ZM27.5879 133.118L28.514 139.046C30.2812 138.77 31.833 137.72 32.7464 136.182C33.6599 134.644 33.8396 132.779 33.2368 131.095L27.5879 133.118ZM24.7686 119.562L30.7503 119.095C30.5189 116.131 28.1519 113.784 25.1863 113.577L24.7686 119.562ZM16.0254 119.203L16.0784 113.203C16.0703 113.203 16.0621 113.203 16.054 113.203L16.0254 119.203ZM15 119.198L14.7123 125.191C14.7986 125.195 14.885 125.197 14.9714 125.198L15 119.198ZM14.8779 119.192L14.2736 125.161C14.3789 125.172 14.4845 125.18 14.5903 125.185L14.8779 119.192ZM13.8027 118.001L7.80273 118.001L7.80273 118.003L13.8027 118.001ZM15 116.803L15.0281 110.803C15.0187 110.803 15.0094 110.803 15 110.803L15 116.803ZM16.042 116.808L16.0948 110.808C16.0866 110.808 16.0784 110.808 16.0701 110.808L16.042 116.808ZM24.6279 117.154L24.2208 123.14C25.9195 123.256 27.5874 122.644 28.8087 121.457C30.03 120.271 30.6897 118.622 30.6234 116.92L24.6279 117.154ZM33.1201 79.0923L38.113 82.4196C39.253 80.709 39.4379 78.5339 38.603 76.6555L33.1201 79.0923ZM40.3037 43.1763L39.4553 37.2366L39.4552 37.2366L40.3037 43.1763ZM69.0361 51.5571L66.4814 56.9861C67.7559 57.5858 69.2008 57.7181 70.5631 57.3596L69.0361 51.5571ZM101.186 47.4722L101.471 53.4654C103.449 53.3713 105.253 52.3073 106.292 50.6218L101.186 47.4722ZM25.625 153.654L21.8768 158.339L21.8772 158.339L25.625 153.654ZM115.603 33.3081L117.296 39.0643C117.737 38.9344 118.938 38.8533 121.317 41.0459C123.571 43.1232 125.7 46.2309 127.344 49.1283L132.562 46.1665L137.781 43.2047C135.896 39.8838 133.043 35.5332 129.449 32.2214C125.98 29.0248 120.466 25.6236 113.91 27.5519L115.603 33.3081ZM132.562 46.1665L135.723 51.2664C138.769 49.3789 143.696 46.6484 148.821 44.9611C154.226 43.1816 158.37 43.0523 160.898 44.3359L163.614 38.9859L166.33 33.6358C159.343 30.0889 151.194 31.5463 145.068 33.563C138.663 35.6719 132.822 38.947 129.402 41.0666L132.562 46.1665ZM163.614 38.9859L160.898 44.3359C161.478 44.6303 162.715 45.8385 163.516 49.483C164.265 52.8971 164.342 57.2762 163.812 61.6745L169.77 62.3911L175.727 63.1078C176.363 57.8177 176.358 52.015 175.236 46.909C174.165 42.0334 171.742 36.3832 166.33 33.6358L163.614 38.9859ZM169.77 62.3911L167.689 68.0187C169.144 68.5568 169.987 69.0893 170.409 69.4729C170.598 69.645 170.65 69.7399 170.65 69.7402C170.65 69.7407 170.644 69.7285 170.637 69.7068C170.634 69.6969 170.631 69.6876 170.63 69.6798C170.628 69.672 170.628 69.6679 170.628 69.6684L176.591 69.0054L182.554 68.3424C181.803 61.5845 176.022 58.306 171.85 56.7635L169.77 62.3911ZM176.591 69.0054L170.628 69.6684C170.704 70.3526 170.476 72.2688 169.236 75.3299C168.076 78.1915 166.285 81.4291 164.068 84.4902L168.928 88.0093L173.787 91.5284C176.518 87.7579 178.801 83.6774 180.357 79.8371C181.833 76.1961 182.964 72.0261 182.554 68.3424L176.591 69.0054ZM168.928 88.0093L163.517 90.6024C167.091 98.0593 169.708 107.56 169.623 117.083L175.623 117.136L181.623 117.189C181.726 105.538 178.564 94.2338 174.338 85.4161L168.928 88.0093ZM175.623 117.136L176.021 123.123C178.643 122.949 181.345 122.831 184.011 122.808L183.958 116.808L183.905 110.808C180.966 110.834 178.03 110.963 175.225 111.149L175.623 117.136ZM183.958 116.808L183.986 122.808L185.028 122.803L185 116.803L184.972 110.803L183.93 110.808L183.958 116.808ZM185 116.803V122.803C182.347 122.803 180.197 120.653 180.197 118.001H186.197H192.197C192.197 114.026 188.975 110.803 185 110.803V116.803ZM186.197 118.001L180.197 117.998C180.198 115.513 182.084 113.469 184.518 113.222L185.122 119.192L185.726 125.161C189.367 124.793 192.196 121.728 192.197 118.003L186.197 118.001ZM185.122 119.192L184.834 113.199L184.712 113.205L185 119.198L185.288 125.191L185.41 125.185L185.122 119.192ZM185 119.198L184.971 113.198L183.946 113.203L183.975 119.203L184.003 125.203L185.029 125.198L185 119.198ZM183.975 119.203L183.922 113.203C180.949 113.229 177.977 113.362 175.144 113.554L175.551 119.541L175.957 125.527C178.603 125.347 181.335 125.226 184.028 125.202L183.975 119.203ZM175.551 119.541L169.559 119.226C169.344 123.32 168.607 127.347 167.241 131.179L172.893 133.194L178.544 135.209C180.346 130.155 181.274 124.967 181.543 119.855L175.551 119.541ZM172.893 133.194L171.957 139.121C174.211 139.476 176.157 139.806 177.473 140.07L178.649 134.186L179.826 128.303C178.257 127.989 176.11 127.627 173.828 127.267L172.893 133.194ZM178.649 134.186L177.473 140.07C174.876 139.55 173.185 137.023 173.705 134.418L179.589 135.594L185.473 136.77C186.252 132.869 183.72 129.081 179.826 128.303L178.649 134.186ZM179.589 135.594L173.706 134.415C174.226 131.821 176.75 130.13 179.355 130.65L178.181 136.534L177.006 142.418C180.907 143.196 184.692 140.663 185.472 136.773L179.589 135.594ZM178.181 136.534L179.357 130.65C177.706 130.32 175.385 129.932 172.93 129.549L172.005 135.477L171.08 141.405C173.505 141.784 175.617 142.14 177.004 142.417L178.181 136.534ZM172.005 135.477L166.477 133.145C165.123 136.354 163.282 139.435 160.862 142.312L165.454 146.174L170.046 150.036C173.266 146.208 175.728 142.088 177.533 137.81L172.005 135.477ZM165.454 146.174L162.728 151.519C163.117 151.718 163.499 151.915 163.872 152.11L166.655 146.794L169.439 141.479C169.019 141.259 168.598 141.042 168.181 140.83L165.454 146.174ZM166.655 146.794L163.872 152.11C165.554 152.991 167.07 153.84 168.243 154.581L171.447 149.508L174.652 144.436C173.093 143.451 171.261 142.433 169.439 141.479L166.655 146.794ZM171.447 149.508L168.243 154.581C168.815 154.942 169.265 155.252 169.596 155.508C169.758 155.633 169.862 155.723 169.92 155.777C169.983 155.835 169.954 155.816 169.876 155.719L174.562 151.971L179.247 148.223C177.927 146.573 175.942 145.251 174.652 144.436L171.447 149.508ZM174.562 151.971L169.875 155.717C168.224 153.652 168.55 150.63 170.627 148.969L174.375 153.654L178.123 158.339C181.232 155.852 181.725 151.323 179.248 148.225L174.562 151.971ZM174.375 153.654L170.627 148.968C172.703 147.308 175.723 147.652 177.377 149.717L172.692 153.466L168.008 157.216C170.487 160.313 175.014 160.826 178.123 158.339L174.375 153.654ZM172.692 153.466L177.378 149.718C176.333 148.413 174.663 147.275 173.374 146.46L170.169 151.533L166.964 156.605C167.526 156.96 167.909 157.23 168.141 157.409C168.256 157.497 168.302 157.539 168.298 157.536C168.295 157.533 168.268 157.508 168.223 157.462C168.181 157.418 168.103 157.335 168.007 157.214L172.692 153.466ZM170.169 151.533L173.374 146.46C171.891 145.524 170.121 144.539 168.327 143.6L165.544 148.916L162.76 154.231C164.416 155.098 165.869 155.913 166.964 156.605L170.169 151.533ZM165.544 148.916L168.327 143.6C167.719 143.282 167.107 142.97 166.509 142.668L163.807 148.025L161.104 153.382C161.674 153.669 162.227 153.951 162.76 154.231L165.544 148.916ZM163.807 148.025L159.443 143.906C150.718 153.15 134.709 160.716 106.541 161.687L106.748 167.683L106.955 173.68C136.924 172.646 156.495 164.512 168.17 152.143L163.807 148.025ZM106.748 167.683L106.541 161.687C69.7328 162.956 50.6052 154.392 40.8886 143.823L36.4717 147.884L32.0548 151.945C45.1516 166.19 68.4807 175.006 106.955 173.68L106.748 167.683ZM36.4717 147.884L33.7805 142.522C33.0814 142.872 32.3729 143.234 31.6726 143.6L34.4561 148.916L37.2395 154.231C37.8621 153.905 38.5065 153.576 39.1628 153.247L36.4717 147.884ZM34.4561 148.916L31.6726 143.6C29.8794 144.539 28.1089 145.524 26.6265 146.46L29.8311 151.533L33.0356 156.605C34.131 155.913 35.5839 155.098 37.2395 154.231L34.4561 148.916ZM29.8311 151.533L26.6264 146.46C25.337 147.275 23.6666 148.413 22.6224 149.718L27.3076 153.466L31.9928 157.214C31.8966 157.335 31.8192 157.418 31.7768 157.462C31.7325 157.508 31.7052 157.533 31.7018 157.536C31.6982 157.539 31.7443 157.497 31.8591 157.409C32.0911 157.23 32.4741 156.96 33.0357 156.605L29.8311 151.533ZM27.3076 153.466L31.057 148.782L30.1224 148.034L26.373 152.718L22.6237 157.403L23.5583 158.151L27.3076 153.466ZM26.373 152.718L30.1194 148.032L29.1849 147.285L25.4385 151.971L21.6921 156.658L22.6267 157.405L26.373 152.718ZM25.4385 151.971L30.1237 155.719C30.0463 155.816 30.0174 155.835 30.0804 155.777C30.1384 155.723 30.2421 155.633 30.4039 155.508C30.7346 155.252 31.1855 154.942 31.7574 154.581L28.5527 149.508L25.3481 144.436C24.0576 145.251 22.0735 146.573 20.7533 148.223L25.4385 151.971ZM28.5527 149.508L31.7573 154.581C32.9302 153.84 34.4458 152.991 36.1282 152.11L33.3447 146.794L30.5612 141.479C28.7394 142.433 26.907 143.451 25.3482 144.436L28.5527 149.508ZM33.3447 146.794L36.1282 152.11C36.5954 151.865 37.0755 151.619 37.5649 151.37L34.8516 146.019L32.1382 140.668C31.6149 140.933 31.0864 141.204 30.5613 141.479L33.3447 146.794ZM34.8516 146.019L39.4929 142.217C37.1433 139.349 35.3496 136.276 34.0064 133.078L28.4746 135.402L22.9428 137.726C24.706 141.923 27.0831 146.004 30.2102 149.821L34.8516 146.019ZM28.4746 135.402L27.558 129.472C24.9147 129.881 22.3974 130.299 20.6427 130.65L21.8193 136.534L22.996 142.417C24.4778 142.121 26.7777 141.735 29.3912 141.331L28.4746 135.402ZM21.8193 136.534L20.6447 130.65C23.25 130.13 25.7742 131.821 26.2941 134.415L20.4111 135.594L14.5282 136.773C15.3078 140.663 19.0926 143.196 22.994 142.418L21.8193 136.534ZM20.4111 135.594L26.2948 134.418C26.8153 137.023 25.1243 139.55 22.5273 140.07L21.3506 134.186L20.1739 128.303C16.2803 129.081 13.7479 132.869 14.5275 136.77L20.4111 135.594ZM21.3506 134.186L22.5272 140.07C23.94 139.787 26.0711 139.427 28.514 139.046L27.5879 133.118L26.6617 127.19C24.1882 127.576 21.8487 127.968 20.174 128.303L21.3506 134.186ZM27.5879 133.118L33.2368 131.095C31.8514 127.226 31.0692 123.178 30.7503 119.095L24.7686 119.562L18.7868 120.029C19.1756 125.008 20.1426 130.122 21.939 135.14L27.5879 133.118ZM24.7686 119.562L25.1863 113.577C22.253 113.372 19.1653 113.23 16.0784 113.203L16.0254 119.203L15.9724 125.202C18.7705 125.227 21.6105 125.356 24.3508 125.547L24.7686 119.562ZM16.0254 119.203L16.054 113.203L15.0286 113.198L15 119.198L14.9714 125.198L15.9968 125.203L16.0254 119.203ZM15 119.198L15.2877 113.205L15.1656 113.199L14.8779 119.192L14.5903 125.185L14.7123 125.191L15 119.198ZM14.8779 119.192L15.4823 113.222C17.9156 113.469 19.8018 115.513 19.8027 117.998L13.8027 118.001L7.80273 118.003C7.80418 121.728 10.6328 124.793 14.2736 125.161L14.8779 119.192ZM13.8027 118.001H19.8027C19.8027 120.653 17.6525 122.803 15 122.803V116.803V110.803C11.0251 110.803 7.80273 114.026 7.80273 118.001H13.8027ZM15 116.803L14.9719 122.803L16.0139 122.808L16.042 116.808L16.0701 110.808L15.0281 110.803L15 116.803ZM16.042 116.808L15.9891 122.808C18.7369 122.832 21.5229 122.956 24.2208 123.14L24.6279 117.154L25.0351 111.168C22.1525 110.972 19.1253 110.835 16.0948 110.808L16.042 116.808ZM24.6279 117.154L30.6234 116.92C30.3003 108.632 31.779 100.529 33.6219 94.0771C34.5385 90.8681 35.5283 88.1269 36.3884 86.0471C36.8185 85.007 37.2072 84.1541 37.5271 83.5065C37.6869 83.1832 37.8224 82.9254 37.9307 82.7304C37.9844 82.6336 38.028 82.5586 38.0611 82.5033C38.0775 82.476 38.0903 82.4553 38.0995 82.4407C38.1088 82.4259 38.1133 82.4192 38.113 82.4196L33.1201 79.0923L28.1272 75.765C26.6166 78.0318 24.1109 83.683 22.0834 90.7813C20.0063 98.0531 18.2459 107.469 18.6325 117.388L24.6279 117.154ZM33.1201 79.0923L38.603 76.6555C35.5884 69.8727 35.3484 62.5544 36.7076 56.9325C37.3874 54.1209 38.406 51.9875 39.4282 50.6304C39.9308 49.9632 40.372 49.5654 40.691 49.3464C40.9977 49.1357 41.1497 49.1164 41.1522 49.116L40.3037 43.1763L39.4552 37.2366C35.2533 37.8369 32.0412 40.4924 29.8432 43.4105C27.6105 46.3745 26.0102 50.115 25.0437 54.1125C23.1104 62.1088 23.4687 72.1499 27.6372 81.5291L33.1201 79.0923ZM40.3037 43.1763L41.1522 49.116C41.8154 49.0213 43.2301 49.068 45.5004 49.5182C47.6533 49.9452 50.1465 50.6449 52.7581 51.5076C57.9805 53.2328 63.2603 55.4703 66.4814 56.9861L69.0361 51.5571L71.5909 46.1282C68.0279 44.4515 62.2937 42.0198 56.522 40.1132C53.6365 39.16 50.6376 38.3033 47.8347 37.7475C45.1491 37.2149 42.1442 36.8525 39.4553 37.2366L40.3037 43.1763ZM69.0361 51.5571L70.5631 57.3596C78.8705 55.1734 90.2547 53.9988 101.471 53.4654L101.186 47.4722L100.901 41.479C89.4606 42.023 77.0626 43.2406 67.5092 45.7547L69.0361 51.5571ZM101.186 47.4722L106.292 50.6218C108.253 47.4431 110.522 44.5943 112.684 42.4626C114.996 40.1832 116.646 39.2553 117.296 39.0643L115.603 33.3081L113.909 27.552C110.391 28.587 107.02 31.1951 104.258 33.9182C101.347 36.7889 98.4923 40.4092 96.0787 44.3225L101.186 47.4722ZM27.3076 153.466L22.6235 149.717C24.2765 147.652 27.2967 147.308 29.3728 148.968L25.625 153.654L21.8772 158.339C24.9857 160.826 29.5126 160.313 31.9918 157.216L27.3076 153.466ZM25.625 153.654L29.3732 148.969C31.4495 150.63 31.7764 153.652 30.1252 155.717L25.4385 151.971L20.7517 148.225C18.2752 151.323 18.7682 155.852 21.8768 158.339L25.625 153.654ZM25.4385 151.971L21.6906 156.657L23.5597 158.152L27.3076 153.466L31.0555 148.781L29.1863 147.286L25.4385 151.971Z" fill="white" mask="url(#path-1-outside-1_1062_24642)"/>
<path d="M40.3036 43.1764C47.0078 42.2187 62.252 48.3642 69.036 51.5567C87.2327 46.7681 117.722 46.768 130.692 47.3665C135.48 44.174 153.002 33.599 163.614 38.9862C174.226 44.3735 170.218 73.7045 163.614 79.0918C179.796 100.641 193.557 164.69 106.748 167.683C-5.72015 171.561 28.3327 86.2749 33.1205 79.0918C25.9374 62.9299 31.9233 44.3736 40.3036 43.1764Z" fill="#4B9AE8"/>
<path d="M109.396 134.62C108.88 138.316 104.483 144.307 99.9195 144.338C95.3562 144.369 90.5347 138.293 90.3099 134.311C90.085 130.338 93.291 127.616 100.103 127.578C106.989 127.539 109.912 130.925 109.396 134.62Z" fill="#EAC00F"/>
<path d="M62.8875 129.972C55.6144 129.972 49.7184 124.076 49.7184 116.803C49.7184 109.53 55.6144 103.634 62.8875 103.634C70.1606 103.634 76.0566 109.53 76.0566 116.803C76.0566 124.076 70.1606 129.972 62.8875 129.972Z" fill="white"/>
<path d="M62.877 123.822C59.0002 123.822 55.8575 120.679 55.8575 116.802C55.8575 112.926 59.0002 109.783 62.877 109.783C66.7537 109.783 69.8965 112.926 69.8965 116.802C69.8965 120.679 66.7537 123.822 62.877 123.822Z" fill="#040000"/>
<path d="M137.112 129.972C129.839 129.972 123.943 124.076 123.943 116.803C123.943 109.53 129.839 103.634 137.112 103.634C144.385 103.634 150.281 109.53 150.281 116.803C150.281 124.076 144.385 129.972 137.112 129.972Z" fill="white"/>
<path d="M137.104 123.822C133.227 123.822 130.084 120.679 130.084 116.802C130.084 112.926 133.227 109.783 137.104 109.783C140.98 109.783 144.123 112.926 144.123 116.802C144.123 120.679 140.98 123.822 137.104 123.822Z" fill="#040000"/>
<path d="M115.602 33.3081C125.778 30.3152 134.757 50.0687 135.356 51.8644C133.56 66.8293 117.398 84.7869 101.236 75.8081C85.0743 66.8292 105.426 36.3011 115.602 33.3081Z" fill="#184877"/>
<path d="M176.591 69.0053C175.419 58.4632 147.381 59.7948 145.493 59.9366C132.385 67.3763 128.418 87.2427 142.945 98.6793C157.472 110.116 177.763 79.5475 176.591 69.0053Z" fill="#184877"/>
<circle cx="122.746" cy="60.5353" r="8.38028" fill="#3A6EA2"/>
<circle cx="146.691" cy="73.7043" r="8.38028" fill="#3A6EA2"/>
<circle cx="135.316" cy="67.1198" r="14.9648" fill="#184877"/>
<path d="M41.9366 120.394C37.5469 119.596 26.0141 118 15 118" stroke="#276288" stroke-width="2.39437" stroke-linecap="round"/>
<path d="M41.9361 132.366C37.9455 132.765 26.3727 134.401 21.584 135.359" stroke="#276288" stroke-width="2.39437" stroke-linecap="round"/>
<path d="M43.7322 143.141C38.7439 145.336 28.2885 150.324 26.373 152.718" stroke="#276288" stroke-width="2.39437" stroke-linecap="round"/>
<path d="M158.063 120.394C162.453 119.596 173.986 118 185 118" stroke="#276288" stroke-width="2.39437" stroke-linecap="round"/>
<path d="M158.064 132.366C162.055 132.765 173.627 134.401 178.416 135.359" stroke="#276288" stroke-width="2.39437" stroke-linecap="round"/>
<path d="M156.268 143.141C161.256 145.336 171.711 150.324 173.627 152.718" stroke="#276288" stroke-width="2.39437" stroke-linecap="round"/>
</svg>
