<svg width="200" height="200" viewBox="0 0 200 200" fill="none" xmlns="http://www.w3.org/2000/svg">
<mask id="path-1-outside-1_784_13237" maskUnits="userSpaceOnUse" x="9.694" y="28.952" width="180" height="139" fill="black">
<rect fill="white" x="9.694" y="28.952" width="180" height="139"/>
<path d="M93.712 53.6874C97.9845 43.737 119.155 26.9783 117.587 39.3036C116.797 45.5017 116.227 53.0976 116.5 60.2704C119.117 58.7358 122.072 57.0302 123.083 56.7148C139.117 51.6697 155.5 56.7151 161.5 74.4999C164.526 82.3865 163.213 90.9659 158.796 97.9569C163.512 96.8409 164.085 99.8326 162.48 104.172C168.142 105.19 173.092 106.274 177.252 107.345C181.151 108.348 183.445 112.244 182.704 116.201L175.539 154.473C174.83 158.257 171.526 161 167.676 161H29.3292C25.3062 161 21.9099 158.02 21.4083 154.028C20.0449 143.179 18.0956 127.168 16.7394 114.492C16.3018 110.403 19.0747 106.672 23.1212 105.938C26.3482 105.354 29.5489 104.811 32.7218 104.309L32.5255 104.022L32.4171 103.847C31.9292 102.949 32.1914 101.81 33.0528 101.222C33.9141 100.634 35.0692 100.804 35.7276 101.584L35.8526 101.749L37.1417 103.636C39.2611 103.323 41.3674 103.027 43.4601 102.75C43.2444 101.105 43.1146 99.424 43.0685 97.7167C42.2089 65.9514 59.0974 55.8276 78.6769 54.704C84.1499 54.3891 88.9282 54.4291 93.2384 54.9696C93.382 54.5161 93.5402 54.0872 93.712 53.6874Z"/>
</mask>
<path d="M93.712 53.6874C97.9845 43.737 119.155 26.9783 117.587 39.3036C116.797 45.5017 116.227 53.0976 116.5 60.2704C119.117 58.7358 122.072 57.0302 123.083 56.7148C139.117 51.6697 155.5 56.7151 161.5 74.4999C164.526 82.3865 163.213 90.9659 158.796 97.9569C163.512 96.8409 164.085 99.8326 162.48 104.172C168.142 105.19 173.092 106.274 177.252 107.345C181.151 108.348 183.445 112.244 182.704 116.201L175.539 154.473C174.83 158.257 171.526 161 167.676 161H29.3292C25.3062 161 21.9099 158.02 21.4083 154.028C20.0449 143.179 18.0956 127.168 16.7394 114.492C16.3018 110.403 19.0747 106.672 23.1212 105.938C26.3482 105.354 29.5489 104.811 32.7218 104.309L32.5255 104.022L32.4171 103.847C31.9292 102.949 32.1914 101.81 33.0528 101.222C33.9141 100.634 35.0692 100.804 35.7276 101.584L35.8526 101.749L37.1417 103.636C39.2611 103.323 41.3674 103.027 43.4601 102.75C43.2444 101.105 43.1146 99.424 43.0685 97.7167C42.2089 65.9514 59.0974 55.8276 78.6769 54.704C84.1499 54.3891 88.9282 54.4291 93.2384 54.9696C93.382 54.5161 93.5402 54.0872 93.712 53.6874Z" fill="#EAC00F"/>
<path d="M93.712 53.6874L99.2247 56.056L99.2253 56.0547L93.712 53.6874ZM117.587 39.3036L123.539 40.0625L123.539 40.0609L117.587 39.3036ZM116.5 60.2704L110.504 60.4991C110.585 62.6077 111.767 64.519 113.618 65.5327C115.468 66.5464 117.715 66.5135 119.536 65.4459L116.5 60.2704ZM123.083 56.7148L124.87 62.4426C124.874 62.4411 124.879 62.4396 124.884 62.4381L123.083 56.7148ZM161.5 74.4999L155.815 76.4179C155.841 76.4956 155.869 76.5727 155.898 76.6493L161.5 74.4999ZM158.796 97.9569L153.724 94.7522C152.421 96.8134 152.496 99.4578 153.912 101.442C155.329 103.427 157.805 104.357 160.178 103.796L158.796 97.9569ZM162.48 104.172L156.852 102.09C156.236 103.755 156.389 105.608 157.271 107.15C158.152 108.691 159.671 109.763 161.418 110.077L162.48 104.172ZM177.252 107.345L178.747 101.534L178.747 101.534L177.252 107.345ZM182.704 116.201L188.602 117.305L188.602 117.305L182.704 116.201ZM175.539 154.473L181.437 155.577L181.437 155.577L175.539 154.473ZM167.676 161L167.676 167L167.676 167L167.676 161ZM29.3292 161L29.3291 167H29.3292V161ZM21.4083 154.028L15.4551 154.776L15.4551 154.776L21.4083 154.028ZM16.7394 114.492L10.7734 115.13L10.7734 115.13L16.7394 114.492ZM23.1212 105.938L22.0515 100.035L22.0515 100.035L23.1212 105.938ZM32.7218 104.309L33.6589 110.236C35.6909 109.915 37.4167 108.574 38.2313 106.685C39.046 104.796 38.8359 102.621 37.6749 100.923L32.7218 104.309ZM32.5255 104.022L27.4185 107.172C27.4679 107.252 27.5192 107.331 27.5724 107.409L32.5255 104.022ZM32.4171 103.847L27.146 106.713C27.1981 106.809 27.2528 106.903 27.3101 106.996L32.4171 103.847ZM33.0528 101.222L29.6698 96.2662L29.6679 96.2676L33.0528 101.222ZM35.7276 101.584L40.5106 97.9613C40.4469 97.8772 40.3811 97.7949 40.3131 97.7143L35.7276 101.584ZM35.8526 101.749L40.8067 98.3641C40.7516 98.2835 40.6946 98.2042 40.6356 98.1263L35.8526 101.749ZM37.1417 103.636L32.1876 107.02C33.4828 108.916 35.7464 109.907 38.0178 109.571L37.1417 103.636ZM43.4601 102.75L44.249 108.698C47.5304 108.263 49.8394 105.252 49.4092 101.97L43.4601 102.75ZM43.0685 97.7167L49.0663 97.5545L49.0663 97.5544L43.0685 97.7167ZM78.6769 54.704L79.0206 60.6942L79.0216 60.6941L78.6769 54.704ZM93.2384 54.9696L92.4917 60.923C95.3643 61.2833 98.0844 59.541 98.9584 56.781L93.2384 54.9696ZM93.712 53.6874L99.2253 56.0547C99.9062 54.4688 101.515 52.1377 103.877 49.5759C106.173 47.0851 108.841 44.7441 111.252 43.0775C112.458 42.2437 113.494 41.6522 114.301 41.2904C115.203 40.8864 115.413 40.9532 115.097 40.952C114.525 40.95 113.021 40.6361 112.094 39.1468C111.451 38.1156 111.764 37.5313 111.635 38.5463L117.587 39.3036L123.539 40.0609C123.802 37.9946 123.796 35.2379 122.28 32.8029C120.478 29.9098 117.544 28.9608 115.141 28.9521C112.994 28.9443 110.972 29.6329 109.396 30.339C107.725 31.0873 106.037 32.0941 104.428 33.2068C101.208 35.4329 97.8799 38.377 95.0542 41.4418C92.294 44.4357 89.6541 47.9308 88.1987 51.3201L93.712 53.6874ZM117.587 39.3036L111.635 38.5447C110.818 44.953 110.214 52.8963 110.504 60.4991L116.5 60.2704L122.496 60.0417C122.239 53.2989 122.775 46.0503 123.539 40.0625L117.587 39.3036ZM116.5 60.2704L119.536 65.4459C120.843 64.6793 122.175 63.9049 123.292 63.2891C123.851 62.9805 124.312 62.7362 124.662 62.5627C125.1 62.3453 125.108 62.3684 124.87 62.4426L123.083 56.7148L121.297 50.9869C120.09 51.3631 118.525 52.214 117.496 52.7817C116.227 53.4813 114.774 54.327 113.465 55.0949L116.5 60.2704ZM123.083 56.7148L124.884 62.4381C131.844 60.2481 138.459 60.3815 143.747 62.5847C148.897 64.7301 153.329 69.0505 155.815 76.4179L161.5 74.4999L167.185 72.5819C163.671 62.1644 156.912 55.0698 148.362 51.5076C139.95 48.0031 130.356 48.1363 121.282 50.9914L123.083 56.7148ZM161.5 74.4999L155.898 76.6493C158.164 82.5545 157.257 89.1589 153.724 94.7522L158.796 97.9569L163.868 101.162C169.169 92.7728 170.888 82.2184 167.102 72.3506L161.5 74.4999ZM158.796 97.9569L160.178 103.796C160.857 103.635 160.656 103.815 159.988 103.63C159.603 103.524 159.101 103.304 158.608 102.891C158.11 102.475 157.77 101.987 157.562 101.536C157.189 100.729 157.316 100.238 157.282 100.542C157.256 100.777 157.15 101.285 156.852 102.09L162.48 104.172L168.107 106.253C168.612 104.889 169.037 103.395 169.207 101.885C169.369 100.442 169.36 98.4594 168.455 96.501C167.422 94.2672 165.516 92.7084 163.186 92.064C161.135 91.4967 159.093 91.7209 157.414 92.1182L158.796 97.9569ZM162.48 104.172L161.418 110.077C166.953 111.072 171.757 112.126 175.757 113.155L177.252 107.345L178.747 101.534C174.427 100.423 169.332 99.3072 163.541 98.2664L162.48 104.172ZM177.252 107.345L175.757 113.155C176.376 113.315 177.009 114.014 176.807 115.097L182.704 116.201L188.602 117.305C189.881 110.473 185.926 103.381 178.747 101.534L177.252 107.345ZM182.704 116.201L176.807 115.097L169.642 153.368L175.539 154.473L181.437 155.577L188.602 117.305L182.704 116.201ZM175.539 154.473L169.642 153.368C169.465 154.314 168.639 155 167.676 155L167.676 161L167.676 167C174.414 167 180.196 162.2 181.437 155.577L175.539 154.473ZM167.676 161V155H29.3292V161V167H167.676V161ZM29.3292 161L29.3293 155C28.3134 155 27.4838 154.254 27.3615 153.28L21.4083 154.028L15.4551 154.776C16.336 161.786 22.2989 167 29.3291 167L29.3292 161ZM21.4083 154.028L27.3615 153.28C25.9994 142.442 24.0557 126.474 22.7053 113.854L16.7394 114.492L10.7734 115.13C12.1356 127.861 14.0903 143.916 15.4551 154.776L21.4083 154.028ZM16.7394 114.492L22.7053 113.854C22.5999 112.869 23.261 112.011 24.1909 111.842L23.1212 105.938L22.0515 100.035C14.8884 101.332 10.0037 107.937 10.7734 115.13L16.7394 114.492ZM23.1212 105.938L24.1909 111.842C27.3737 111.266 30.5302 110.731 33.6589 110.236L32.7218 104.309L31.7846 98.3831C28.5676 98.8918 25.3227 99.4418 22.0515 100.035L23.1212 105.938ZM32.7218 104.309L37.6749 100.923L37.4786 100.636L32.5255 104.022L27.5724 107.409L27.7687 107.696L32.7218 104.309ZM32.5255 104.022L37.6325 100.873L37.5241 100.697L32.4171 103.847L27.3101 106.996L27.4185 107.172L32.5255 104.022ZM32.4171 103.847L37.6881 100.98C38.6582 102.764 38.1404 105.012 36.4378 106.176L33.0528 101.222L29.6679 96.2676C26.2425 98.6081 25.2002 103.135 27.146 106.713L32.4171 103.847ZM33.0528 101.222L36.4358 106.177C34.7315 107.34 32.4497 107.003 31.1422 105.453L35.7276 101.584L40.3131 97.7143C37.6888 94.6046 33.0967 93.9267 29.6698 96.2662L33.0528 101.222ZM35.7276 101.584L30.9447 105.206L31.0697 105.372L35.8526 101.749L40.6356 98.1263L40.5106 97.9613L35.7276 101.584ZM35.8526 101.749L30.8985 105.134L32.1876 107.02L37.1417 103.636L42.0958 100.251L40.8067 98.3641L35.8526 101.749ZM37.1417 103.636L38.0178 109.571C40.1088 109.263 42.186 108.971 44.249 108.698L43.4601 102.75L42.6711 96.802C40.5488 97.0835 38.4134 97.3829 36.2656 97.7L37.1417 103.636ZM43.4601 102.75L49.4092 101.97C49.2216 100.539 49.1071 99.0648 49.0663 97.5545L43.0685 97.7167L37.0706 97.8789C37.1221 99.7831 37.2672 101.67 37.511 103.53L43.4601 102.75ZM43.0685 97.7167L49.0663 97.5544C48.6652 82.7332 52.4119 74.0627 57.4763 68.9366C62.6156 63.7347 70.0683 61.2079 79.0206 60.6942L78.6769 54.704L78.3331 48.7139C67.706 49.3237 56.9247 52.4207 48.9398 60.5029C40.8799 68.6609 36.6121 80.935 37.0706 97.879L43.0685 97.7167ZM78.6769 54.704L79.0216 60.6941C84.2875 60.3911 88.6718 60.4439 92.4917 60.923L93.2384 54.9696L93.985 49.0163C89.1847 48.4142 84.0123 48.3871 78.3321 48.7139L78.6769 54.704ZM93.2384 54.9696L98.9584 56.781C99.0484 56.4969 99.1389 56.2556 99.2247 56.056L93.712 53.6874L88.1993 51.3188C87.9416 51.9187 87.7156 52.5352 87.5183 53.1583L93.2384 54.9696Z" fill="white" mask="url(#path-1-outside-1_784_13237)"/>
<path d="M23.121 105.938C93.2141 93.2378 150.975 100.586 177.252 107.345C181.151 108.348 183.445 112.244 182.704 116.201L175.539 154.472C174.831 158.257 171.526 161 167.676 161H29.3293C25.3062 161 21.9095 158.02 21.4079 154.029C20.0445 143.179 18.096 127.168 16.7397 114.492C16.3021 110.403 19.0745 106.671 23.121 105.938Z" fill="#E8F3FF"/>
<path d="M119.358 76.39C115.416 66.865 116.132 50.7156 117.587 39.3039C119.156 26.978 97.984 43.7371 93.7117 53.6876C90.7109 60.6718 91.6876 76.4271 107.672 81.4817" fill="#276286"/>
<path d="M122.111 103.756C132.038 106.532 147.483 100.79 158.641 97.9919C170.692 94.9693 156.573 117.981 147.202 123.409C140.623 127.218 124.864 128.128 117.948 112.858" fill="#276286"/>
<path d="M101.695 132.392C87.5704 134.252 76.5643 133.797 66.3392 130.836C50.6757 126.308 43.4844 113.088 43.0687 97.7166C42.2091 65.9513 59.0974 55.8274 78.6768 54.7037C93.4189 53.8554 103.122 55.5745 112.206 62.749C113.785 61.9512 121.336 57.26 123.083 56.715C139.117 51.6699 155.5 56.715 161.5 74.5C167.051 88.9668 158.006 105.767 141.971 110.813C139 112 131.937 111.206 130.19 111.453C126.853 122.543 117.948 130.257 101.7 132.392H101.695Z" fill="#4B9AE8"/>
<path d="M51.3376 104.626C52.4286 104.406 53.4914 105.113 53.7112 106.204C53.9307 107.295 53.2253 108.357 52.1347 108.577L40.386 110.944L39.7043 117.18L39.6713 117.384C39.4582 118.383 38.5189 119.079 37.4817 118.965C36.3756 118.844 35.577 117.849 35.6977 116.743L36.1804 112.331L33.7957 113.252C32.7574 113.653 31.5906 113.136 31.1899 112.098C30.7895 111.06 31.306 109.893 32.3439 109.493L35.4436 108.296L32.5243 104.022L32.4171 103.847C31.9291 102.95 32.1912 101.81 33.0527 101.221C33.9141 100.633 35.0694 100.804 35.7277 101.585L35.8528 101.749L39.4541 107.02L51.3376 104.626Z" fill="#474747"/>
<path d="M46.5258 103.808C46.6798 102.693 47.7086 101.914 48.8237 102.067C49.9387 102.221 50.7183 103.25 50.5647 104.365L48.9054 116.374L54.6353 119.105L54.818 119.205C55.7008 119.742 56.0517 120.87 55.5976 121.823C55.113 122.839 53.896 123.27 52.8799 122.785L48.8275 120.853L48.9118 123.438C48.9482 124.563 48.0658 125.505 46.9408 125.541C45.8158 125.577 44.8745 124.694 44.838 123.57L44.7282 120.209L39.6737 121.572L39.4704 121.616C38.4508 121.783 37.45 121.153 37.1753 120.134C36.9009 119.115 37.4497 118.068 38.4148 117.7L38.6137 117.636L44.8472 115.955L46.5258 103.808Z" fill="#474747"/>
<path d="M135 74C138.866 74 142 70.866 142 67C142 63.134 138.866 60 135 60C131.134 60 128 63.134 128 67C128 70.866 131.134 74 135 74Z" fill="white"/>
<path d="M135 70.7339C137.062 70.7339 138.734 69.0622 138.734 67.0001C138.734 64.938 137.062 63.2663 135 63.2663C132.938 63.2663 131.266 64.938 131.266 67.0001C131.266 69.0622 132.938 70.7339 135 70.7339Z" fill="#040000"/>
<path d="M149 100C152.866 100 156 96.866 156 93C156 89.134 152.866 86 149 86C145.134 86 142 89.134 142 93C142 96.866 145.134 100 149 100Z" fill="white"/>
<path d="M149 96.7339C151.062 96.7339 152.734 95.0622 152.734 93.0001C152.734 90.938 151.062 89.2663 149 89.2663C146.938 89.2663 145.266 90.938 145.266 93.0001C145.266 95.0622 146.938 96.7339 149 96.7339Z" fill="#040000"/>
<path d="M136.235 90.5361C133.242 92.0302 126.898 90.9147 125.404 87.9267C123.91 84.9387 126.827 79.1948 129.82 77.7008C132.813 76.2068 136.215 76.9487 138.446 81.4156C140.677 85.8825 139.228 89.0472 136.235 90.5412V90.5361Z" fill="#EAC00F"/>
</svg>
