<svg width="200" height="200" viewBox="0 0 200 200" fill="none" xmlns="http://www.w3.org/2000/svg">
<mask id="path-1-outside-1_898_4325" maskUnits="userSpaceOnUse" x="9.69452" y="28.952" width="180" height="139" fill="black">
<rect fill="white" x="9.69452" y="28.952" width="180" height="139"/>
<path d="M93.7116 53.6873C97.9839 43.737 119.156 26.9783 117.588 39.3036C116.797 45.5019 116.226 53.0982 116.5 60.2713C119.116 58.7367 122.071 57.0303 123.083 56.7147C139.117 51.6696 155.5 56.715 161.5 74.4998C164.525 82.386 163.213 90.965 158.797 97.9559C163.512 96.8403 164.085 99.8329 162.48 104.172C168.143 105.189 173.092 106.274 177.253 107.345C181.151 108.348 183.445 112.244 182.704 116.201L175.539 154.473C174.83 158.257 171.526 161 167.675 161H29.3297C25.3067 161 21.9095 158.02 21.4079 154.028C20.0444 143.179 18.0962 127.168 16.7399 114.492C16.3024 110.403 19.0744 106.672 23.1207 105.938C26.3476 105.354 29.5486 104.811 32.7213 104.309L32.525 104.022L32.4176 103.847C31.9297 102.949 32.1911 101.81 33.0524 101.222C33.9138 100.633 35.0697 100.803 35.7282 101.584L35.8532 101.749L37.1422 103.636C39.2617 103.323 41.3679 103.027 43.4606 102.75C43.2449 101.105 43.1152 99.4239 43.069 97.7166C42.2094 65.9516 59.0972 55.8277 78.6764 54.7039C84.1493 54.389 88.9279 54.429 93.2379 54.9696C93.3816 54.516 93.5398 54.0871 93.7116 53.6873Z"/>
</mask>
<path d="M93.7116 53.6873C97.9839 43.737 119.156 26.9783 117.588 39.3036C116.797 45.5019 116.226 53.0982 116.5 60.2713C119.116 58.7367 122.071 57.0303 123.083 56.7147C139.117 51.6696 155.5 56.715 161.5 74.4998C164.525 82.386 163.213 90.965 158.797 97.9559C163.512 96.8403 164.085 99.8329 162.48 104.172C168.143 105.189 173.092 106.274 177.253 107.345C181.151 108.348 183.445 112.244 182.704 116.201L175.539 154.473C174.83 158.257 171.526 161 167.675 161H29.3297C25.3067 161 21.9095 158.02 21.4079 154.028C20.0444 143.179 18.0962 127.168 16.7399 114.492C16.3024 110.403 19.0744 106.672 23.1207 105.938C26.3476 105.354 29.5486 104.811 32.7213 104.309L32.525 104.022L32.4176 103.847C31.9297 102.949 32.1911 101.81 33.0524 101.222C33.9138 100.633 35.0697 100.803 35.7282 101.584L35.8532 101.749L37.1422 103.636C39.2617 103.323 41.3679 103.027 43.4606 102.75C43.2449 101.105 43.1152 99.4239 43.069 97.7166C42.2094 65.9516 59.0972 55.8277 78.6764 54.7039C84.1493 54.389 88.9279 54.429 93.2379 54.9696C93.3816 54.516 93.5398 54.0871 93.7116 53.6873Z" fill="#EAC00F"/>
<path d="M93.7116 53.6873L99.2243 56.0559L99.2249 56.0545L93.7116 53.6873ZM117.588 39.3036L123.539 40.0625L123.54 40.0608L117.588 39.3036ZM116.5 60.2713L110.504 60.5001C110.584 62.6086 111.767 64.5199 113.617 65.5336C115.468 66.5473 117.715 66.5144 119.535 65.4469L116.5 60.2713ZM123.083 56.7147L124.87 62.4424C124.874 62.441 124.879 62.4395 124.883 62.4381L123.083 56.7147ZM161.5 74.4998L155.814 76.4179C155.841 76.4955 155.868 76.5727 155.898 76.6492L161.5 74.4998ZM158.797 97.9559L153.724 94.7513C152.422 96.8125 152.496 99.4567 153.913 101.441C155.329 103.426 157.805 104.356 160.178 103.795L158.797 97.9559ZM162.48 104.172L156.853 102.09C156.237 103.755 156.39 105.608 157.271 107.15C158.152 108.691 159.671 109.763 161.419 110.077L162.48 104.172ZM177.253 107.345L178.748 101.534L178.747 101.534L177.253 107.345ZM182.704 116.201L188.601 117.305L188.601 117.305L182.704 116.201ZM175.539 154.473L181.436 155.577L181.436 155.577L175.539 154.473ZM21.4079 154.028L15.4547 154.776L15.4547 154.776L21.4079 154.028ZM16.7399 114.492L22.7058 113.854L16.7399 114.492ZM23.1207 105.938L22.051 100.034L22.0508 100.034L23.1207 105.938ZM32.7213 104.309L33.6585 110.236C35.6905 109.914 37.4162 108.574 38.2309 106.685C39.0455 104.796 38.8355 102.621 37.6744 100.923L32.7213 104.309ZM32.525 104.022L27.4053 107.151C27.4587 107.238 27.5142 107.324 27.572 107.409L32.525 104.022ZM32.4176 103.847L27.1467 106.713C27.1949 106.802 27.2453 106.889 27.2979 106.975L32.4176 103.847ZM33.0524 101.222L29.6686 96.2667L29.6669 96.2679L33.0524 101.222ZM35.7282 101.584L40.5111 97.9612C40.4476 97.8774 40.3819 97.7952 40.3141 97.7148L35.7282 101.584ZM35.8532 101.749L40.8073 98.3641C40.7522 98.2834 40.6951 98.2041 40.6361 98.1263L35.8532 101.749ZM37.1422 103.636L32.1881 107.02C33.4834 108.916 35.7469 109.907 38.0184 109.571L37.1422 103.636ZM43.4606 102.75L44.2495 108.698C47.5309 108.263 49.8399 105.252 49.4097 101.97L43.4606 102.75ZM43.069 97.7166L49.0668 97.5544L49.0668 97.5543L43.069 97.7166ZM78.6764 54.7039L79.0202 60.6941L79.0211 60.694L78.6764 54.7039ZM93.2379 54.9696L92.4913 60.9229C95.3639 61.2832 98.084 59.5409 98.958 56.7809L93.2379 54.9696ZM93.7116 53.6873L99.2249 56.0545C99.9057 54.4688 101.514 52.1377 103.876 49.576C106.173 47.0852 108.841 44.7442 111.252 43.0775C112.458 42.2438 113.494 41.6522 114.302 41.2904C115.203 40.8864 115.413 40.9532 115.098 40.952C114.525 40.9499 113.022 40.6362 112.094 39.147C111.452 38.1157 111.765 37.5314 111.636 38.5463L117.588 39.3036L123.54 40.0608C123.802 37.9945 123.797 35.2377 122.28 32.8026C120.478 29.9097 117.545 28.9608 115.141 28.9521C112.995 28.9443 110.972 29.6329 109.396 30.339C107.725 31.0873 106.037 32.094 104.428 33.2067C101.208 35.4328 97.8797 38.3769 95.0539 41.4417C92.2936 44.4356 89.6536 47.9307 88.1983 51.3201L93.7116 53.6873ZM117.588 39.3036L111.636 38.5446C110.819 44.9526 110.214 52.8965 110.504 60.5001L116.5 60.2713L122.495 60.0426C122.238 53.2999 122.776 46.0512 123.539 40.0625L117.588 39.3036ZM116.5 60.2713L119.535 65.4469C120.843 64.6799 122.175 63.9052 123.292 63.2892C123.851 62.9804 124.312 62.736 124.662 62.5624C125.101 62.3449 125.108 62.3681 124.87 62.4424L123.083 56.7147L121.296 50.987C120.089 51.3634 118.523 52.215 117.494 52.7826C116.226 53.4823 114.773 54.3282 113.464 55.0958L116.5 60.2713ZM123.083 56.7147L124.883 62.4381C131.844 60.248 138.458 60.3814 143.747 62.5846C148.896 64.73 153.329 69.0505 155.814 76.4179L161.5 74.4998L167.185 72.5818C163.67 62.1644 156.912 55.0697 148.361 51.5075C139.95 48.003 130.356 48.1362 121.282 50.9913L123.083 56.7147ZM161.5 74.4998L155.898 76.6492C158.164 82.5543 157.257 89.1584 153.724 94.7513L158.797 97.9559L163.869 101.16C169.169 92.7716 170.887 82.2177 167.101 72.3505L161.5 74.4998ZM158.797 97.9559L160.178 103.795C160.857 103.634 160.655 103.814 159.987 103.629C159.602 103.523 159.101 103.303 158.607 102.89C158.11 102.474 157.77 101.986 157.562 101.536C157.189 100.729 157.317 100.239 157.282 100.542C157.256 100.778 157.15 101.285 156.853 102.09L162.48 104.172L168.107 106.253C168.612 104.889 169.037 103.395 169.207 101.884C169.37 100.441 169.36 98.4589 168.455 96.5008C167.423 94.2677 165.517 92.7086 163.188 92.0638C161.136 91.4959 159.094 91.7199 157.415 92.1171L158.797 97.9559ZM162.48 104.172L161.419 110.077C166.953 111.072 171.757 112.126 175.758 113.155L177.253 107.345L178.747 101.534C174.427 100.423 169.332 99.3071 163.542 98.2663L162.48 104.172ZM177.253 107.345L175.758 113.155C176.375 113.314 177.009 114.013 176.806 115.097L182.704 116.201L188.601 117.305C189.88 110.475 185.928 103.381 178.748 101.534L177.253 107.345ZM182.704 116.201L176.806 115.097L169.641 153.368L175.539 154.473L181.436 155.577L188.601 117.305L182.704 116.201ZM175.539 154.473L169.641 153.368C169.464 154.314 168.638 155 167.675 155V161V167C174.414 167 180.196 162.2 181.436 155.577L175.539 154.473ZM167.675 161V155H29.3297V161V167H167.675V161ZM29.3297 161V155C28.3131 155 27.4833 154.253 27.361 153.28L21.4079 154.028L15.4547 154.776C16.3356 161.787 22.3003 167 29.3297 167V161ZM21.4079 154.028L27.361 153.28C25.999 142.442 24.0562 126.474 22.7058 113.854L16.7399 114.492L10.7739 115.13C12.1361 127.861 14.0898 143.915 15.4547 154.776L21.4079 154.028ZM16.7399 114.492L22.7058 113.854C22.6004 112.868 23.2616 112.011 24.1907 111.842L23.1207 105.938L22.0508 100.034C14.8872 101.333 10.0043 107.938 10.7739 115.13L16.7399 114.492ZM23.1207 105.938L24.1905 111.842C27.3731 111.266 30.5299 110.731 33.6585 110.236L32.7213 104.309L31.7842 98.3831C28.5673 98.8917 25.3221 99.4418 22.051 100.034L23.1207 105.938ZM32.7213 104.309L37.6744 100.923L37.4781 100.636L32.525 104.022L27.572 107.409L27.7682 107.696L32.7213 104.309ZM32.525 104.022L37.6447 100.894L37.5373 100.718L32.4176 103.847L27.2979 106.975L27.4053 107.151L32.525 104.022ZM32.4176 103.847L37.6885 100.98C38.6567 102.76 38.1436 105.009 36.4379 106.175L33.0524 101.222L29.6669 96.2679C26.2386 98.6109 25.2027 103.139 27.1467 106.713L32.4176 103.847ZM33.0524 101.222L36.4361 106.176C34.7321 107.34 32.4501 107.003 31.1422 105.453L35.7282 101.584L40.3141 97.7148C37.6894 94.6037 33.0954 93.9265 29.6686 96.2667L33.0524 101.222ZM35.7282 101.584L30.9452 105.206L31.0702 105.371L35.8532 101.749L40.6361 98.1263L40.5111 97.9612L35.7282 101.584ZM35.8532 101.749L30.8991 105.134L32.1881 107.02L37.1422 103.636L42.0963 100.251L40.8073 98.3641L35.8532 101.749ZM37.1422 103.636L38.0184 109.571C40.1094 109.263 42.1866 108.971 44.2495 108.698L43.4606 102.75L42.6717 96.8019C40.5493 97.0834 38.414 97.3829 36.2661 97.6999L37.1422 103.636ZM43.4606 102.75L49.4097 101.97C49.2221 100.539 49.1076 99.0648 49.0668 97.5544L43.069 97.7166L37.0712 97.8789C37.1227 99.783 37.2677 101.67 37.5115 103.53L43.4606 102.75ZM43.069 97.7166L49.0668 97.5543C48.6657 82.7331 52.4123 74.0626 57.4765 68.9366C62.6156 63.7347 70.0679 61.2079 79.0202 60.6941L78.6764 54.7039L78.3326 48.7138C67.7056 49.3237 56.9245 52.4208 48.9398 60.503C40.8802 68.6611 36.6127 80.9351 37.0712 97.8789L43.069 97.7166ZM78.6764 54.7039L79.0211 60.694C84.2869 60.391 88.6714 60.4439 92.4913 60.9229L93.2379 54.9696L93.9846 49.0162C89.1843 48.4142 84.0118 48.387 78.3317 48.7139L78.6764 54.7039ZM93.2379 54.9696L98.958 56.7809C99.048 56.4968 99.1385 56.2556 99.2243 56.0559L93.7116 53.6873L88.1989 51.3188C87.9411 51.9187 87.7152 52.5351 87.5179 53.1583L93.2379 54.9696Z" fill="white" mask="url(#path-1-outside-1_898_4325)"/>
<path d="M23.121 105.938C93.2141 93.2378 150.975 100.586 177.252 107.345C181.151 108.348 183.445 112.244 182.704 116.201L175.539 154.472C174.831 158.257 171.526 161 167.676 161H29.3293C25.3062 161 21.9095 158.02 21.4079 154.029C20.0445 143.179 18.096 127.168 16.7397 114.492C16.3021 110.403 19.0745 106.671 23.121 105.938Z" fill="#E8F3FF"/>
<path d="M119.358 76.39C115.416 66.865 116.132 50.7156 117.587 39.3039C119.156 26.978 97.984 43.7371 93.7117 53.6876C90.7109 60.6718 91.6876 76.4271 107.672 81.4817" fill="#276286"/>
<path d="M122.111 103.756C132.038 106.532 147.483 100.79 158.641 97.9919C170.692 94.9693 156.573 117.981 147.202 123.409C140.623 127.218 124.864 128.128 117.948 112.858" fill="#276286"/>
<path d="M101.695 132.392C87.5704 134.252 76.5643 133.797 66.3392 130.836C50.6757 126.308 43.4844 113.088 43.0687 97.7166C42.2091 65.9514 59.0974 55.8274 78.6768 54.7038C93.4189 53.8554 103.122 55.5746 112.206 62.749C113.785 61.9512 121.336 57.26 123.083 56.7151C139.117 51.6699 155.5 56.7151 161.5 74.5C167.051 88.9669 158.006 105.768 141.971 110.813C139 112 131.937 111.206 130.19 111.453C126.853 122.543 117.948 130.257 101.7 132.392H101.695Z" fill="#4B9AE8"/>
<path d="M51.3379 104.625C52.4289 104.406 53.4916 105.112 53.7115 106.203C53.9313 107.294 53.2253 108.357 52.1345 108.577L40.3863 110.943L39.705 117.181L39.6711 117.384C39.458 118.383 38.5187 119.079 37.4815 118.965C36.3754 118.844 35.577 117.849 35.698 116.742L36.1802 112.331L33.7955 113.252C32.7572 113.653 31.5904 113.136 31.1897 112.098C30.7892 111.06 31.3058 109.894 32.3437 109.493L35.4439 108.295L32.5246 104.022L32.4169 103.847C31.9289 102.95 32.191 101.81 33.0525 101.222C33.9139 100.633 35.0691 100.804 35.7275 101.585L35.8526 101.75L39.4539 107.02L51.3379 104.625Z" fill="#474747"/>
<path d="M46.5258 103.808C46.6798 102.693 47.7086 101.914 48.8237 102.067C49.9387 102.221 50.7183 103.25 50.5647 104.365L48.9054 116.374L54.6353 119.105L54.818 119.205C55.7008 119.741 56.0517 120.87 55.5976 121.823C55.113 122.839 53.896 123.27 52.8799 122.785L48.8275 120.853L48.9118 123.437C48.9482 124.563 48.0658 125.505 46.9408 125.541C45.8158 125.577 44.8745 124.694 44.838 123.569L44.7282 120.209L39.6737 121.572L39.4704 121.616C38.4508 121.783 37.45 121.153 37.1753 120.134C36.9009 119.115 37.4497 118.068 38.4148 117.7L38.6137 117.636L44.8472 115.955L46.5258 103.808Z" fill="#474747"/>
<path d="M135 74C138.866 74 142 70.866 142 67C142 63.134 138.866 60 135 60C131.134 60 128 63.134 128 67C128 70.866 131.134 74 135 74Z" fill="white"/>
<path d="M135 70.7339C137.062 70.7339 138.734 69.0622 138.734 67.0001C138.734 64.938 137.062 63.2664 135 63.2664C132.938 63.2664 131.266 64.938 131.266 67.0001C131.266 69.0622 132.938 70.7339 135 70.7339Z" fill="#040000"/>
<path d="M149 100C152.866 100 156 96.866 156 93C156 89.134 152.866 86 149 86C145.134 86 142 89.134 142 93C142 96.866 145.134 100 149 100Z" fill="white"/>
<path d="M149 96.7339C151.062 96.7339 152.734 95.0622 152.734 93.0001C152.734 90.938 151.062 89.2664 149 89.2664C146.938 89.2664 145.266 90.938 145.266 93.0001C145.266 95.0622 146.938 96.7339 149 96.7339Z" fill="#040000"/>
<path d="M136.235 90.5361C133.242 92.0302 126.898 90.9147 125.404 87.9267C123.91 84.9387 126.827 79.1948 129.82 77.7008C132.813 76.2068 136.215 76.9487 138.446 81.4156C140.677 85.8825 139.228 89.0472 136.235 90.5412V90.5361Z" fill="#EAC00F"/>
</svg>
