<svg width="200" height="200" viewBox="0 0 200 200" fill="none" xmlns="http://www.w3.org/2000/svg">
<mask id="path-1-outside-1_922_9641" maskUnits="userSpaceOnUse" x="15.0007" y="19.7043" width="170" height="167" fill="black">
<rect fill="white" x="15.0007" y="19.7043" width="170" height="167"/>
<path d="M96.5001 27.7233C96.6804 27.003 97.4106 26.5647 98.131 26.7448C98.8469 26.9238 99.2826 27.6459 99.1114 28.362C107.082 30.6547 111.66 37.6168 112.838 44.9381L112.859 44.9362C113.594 44.8323 114.275 45.3444 114.379 46.0797C114.483 46.8151 113.971 47.4962 113.235 47.6002L113.119 47.6159C113.455 54.6622 110.655 61.5555 104.705 64.4928C104.641 64.6797 104.537 64.8562 104.389 65.0055C103.966 65.4305 103.329 65.5123 102.822 65.2526C102.682 65.2977 102.539 65.3424 102.396 65.3834C102.253 65.4214 102.111 65.4553 101.971 65.4899C101.972 65.7109 101.973 65.9322 101.971 66.154C101.955 68.0025 101.836 69.8777 101.617 71.7653C143.282 66.3884 158.308 74.2066 169.747 89.3395C171.713 92.1573 173.343 95.1633 174.63 98.2956C174.702 98.4693 174.773 98.6434 174.843 98.818C174.865 98.8736 174.886 98.9294 174.908 98.985C175.802 101.248 176.511 103.577 177.029 105.953C178.047 110.557 178.368 115.318 177.951 120.077C177.395 139.56 172.756 159.331 163.901 166.612V172.328C163.901 174.395 163.083 176.378 161.624 177.843C160.166 179.308 158.186 180.137 156.119 180.146H152.21C151.173 180.146 150.179 179.734 149.445 179.001C148.713 178.268 148.301 177.273 148.301 176.237V167.787C145.96 166.73 143.86 165.214 142.122 163.333C142.108 163.347 142.096 163.362 142.081 163.376C141.572 163.851 140.793 163.855 140.279 163.407L140.18 163.311L139.768 162.861C139.674 162.757 139.582 162.652 139.489 162.548C127.606 164.834 115.42 165.125 103.435 163.398C101.666 163.134 99.9564 162.849 98.3331 162.547C98.1897 162.757 98.0444 162.966 97.8966 163.173C97.4657 163.778 96.6256 163.92 96.0206 163.489C95.9438 163.434 95.8743 163.373 95.8126 163.306C94.6597 164.739 93.2725 165.968 91.7081 166.941V172.328C91.7081 174.395 90.8892 176.378 89.4308 177.843C87.9724 179.308 85.993 180.137 83.9259 180.146H80.0167C78.98 180.146 77.9852 179.734 77.2521 179.001C76.5192 178.268 76.1076 177.274 76.1075 176.237V166.97C69.2684 162.547 64.4161 152.506 64.4161 140.696C63.7132 139.249 63.0902 137.765 62.5509 136.25C56.9921 122.12 56.4541 103.829 60.5782 95.2936C59.9226 95.1525 59.2955 94.9921 58.6954 94.817C49.7804 94.1521 39.8273 97.3013 33.215 97.3014C27.2943 97.3014 22.2516 93.6791 21.2823 84.6305C20.8508 81.7133 20.9127 78.7268 21.4855 75.7985C21.4861 75.7936 21.4868 75.7887 21.4874 75.7838C22.8756 64.8049 36.8042 56.7222 44.9347 52.8961C44.6528 52.7369 44.3867 52.5676 44.1359 52.3893C44.118 52.405 44.0999 52.4204 44.0821 52.4362C42.509 51.2865 41.5598 49.7796 41.2296 48.1393C40.3261 43.9376 43.5228 38.8256 50.7521 36.693C50.8782 36.6559 51.0046 36.6194 51.131 36.5827C51.8034 36.3869 52.478 36.1957 53.1544 36.0094C54.6394 35.6006 56.133 35.2179 57.631 34.8747C63.0002 33.6431 68.4252 32.9145 73.712 33.2985C74.5216 32.4873 75.457 31.68 76.5294 30.9264L76.5177 30.9059L76.4562 30.7829C76.1792 30.1601 76.4135 29.4158 77.0177 29.07C77.6222 28.7243 78.382 28.9002 78.7784 29.4547L78.8253 29.526C82.4164 27.6436 87.193 26.48 93.4425 27.2321C94.4241 27.35 95.4418 27.5159 96.4972 27.7331L96.5001 27.7233ZM101.606 71.8747C101.61 71.8741 101.614 71.8732 101.618 71.8727C101.616 71.8532 101.614 71.8336 101.611 71.8141C101.609 71.8342 101.608 71.8546 101.606 71.8747Z"/>
</mask>
<path d="M96.5001 27.7233C96.6804 27.003 97.4106 26.5647 98.131 26.7448C98.8469 26.9238 99.2826 27.6459 99.1114 28.362C107.082 30.6547 111.66 37.6168 112.838 44.9381L112.859 44.9362C113.594 44.8323 114.275 45.3444 114.379 46.0797C114.483 46.8151 113.971 47.4962 113.235 47.6002L113.119 47.6159C113.455 54.6622 110.655 61.5555 104.705 64.4928C104.641 64.6797 104.537 64.8562 104.389 65.0055C103.966 65.4305 103.329 65.5123 102.822 65.2526C102.682 65.2977 102.539 65.3424 102.396 65.3834C102.253 65.4214 102.111 65.4553 101.971 65.4899C101.972 65.7109 101.973 65.9322 101.971 66.154C101.955 68.0025 101.836 69.8777 101.617 71.7653C143.282 66.3884 158.308 74.2066 169.747 89.3395C171.713 92.1573 173.343 95.1633 174.63 98.2956C174.702 98.4693 174.773 98.6434 174.843 98.818C174.865 98.8736 174.886 98.9294 174.908 98.985C175.802 101.248 176.511 103.577 177.029 105.953C178.047 110.557 178.368 115.318 177.951 120.077C177.395 139.56 172.756 159.331 163.901 166.612V172.328C163.901 174.395 163.083 176.378 161.624 177.843C160.166 179.308 158.186 180.137 156.119 180.146H152.21C151.173 180.146 150.179 179.734 149.445 179.001C148.713 178.268 148.301 177.273 148.301 176.237V167.787C145.96 166.73 143.86 165.214 142.122 163.333C142.108 163.347 142.096 163.362 142.081 163.376C141.572 163.851 140.793 163.855 140.279 163.407L140.18 163.311L139.768 162.861C139.674 162.757 139.582 162.652 139.489 162.548C127.606 164.834 115.42 165.125 103.435 163.398C101.666 163.134 99.9564 162.849 98.3331 162.547C98.1897 162.757 98.0444 162.966 97.8966 163.173C97.4657 163.778 96.6256 163.92 96.0206 163.489C95.9438 163.434 95.8743 163.373 95.8126 163.306C94.6597 164.739 93.2725 165.968 91.7081 166.941V172.328C91.7081 174.395 90.8892 176.378 89.4308 177.843C87.9724 179.308 85.993 180.137 83.9259 180.146H80.0167C78.98 180.146 77.9852 179.734 77.2521 179.001C76.5192 178.268 76.1076 177.274 76.1075 176.237V166.97C69.2684 162.547 64.4161 152.506 64.4161 140.696C63.7132 139.249 63.0902 137.765 62.5509 136.25C56.9921 122.12 56.4541 103.829 60.5782 95.2936C59.9226 95.1525 59.2955 94.9921 58.6954 94.817C49.7804 94.1521 39.8273 97.3013 33.215 97.3014C27.2943 97.3014 22.2516 93.6791 21.2823 84.6305C20.8508 81.7133 20.9127 78.7268 21.4855 75.7985C21.4861 75.7936 21.4868 75.7887 21.4874 75.7838C22.8756 64.8049 36.8042 56.7222 44.9347 52.8961C44.6528 52.7369 44.3867 52.5676 44.1359 52.3893C44.118 52.405 44.0999 52.4204 44.0821 52.4362C42.509 51.2865 41.5598 49.7796 41.2296 48.1393C40.3261 43.9376 43.5228 38.8256 50.7521 36.693C50.8782 36.6559 51.0046 36.6194 51.131 36.5827C51.8034 36.3869 52.478 36.1957 53.1544 36.0094C54.6394 35.6006 56.133 35.2179 57.631 34.8747C63.0002 33.6431 68.4252 32.9145 73.712 33.2985C74.5216 32.4873 75.457 31.68 76.5294 30.9264L76.5177 30.9059L76.4562 30.7829C76.1792 30.1601 76.4135 29.4158 77.0177 29.07C77.6222 28.7243 78.382 28.9002 78.7784 29.4547L78.8253 29.526C82.4164 27.6436 87.193 26.48 93.4425 27.2321C94.4241 27.35 95.4418 27.5159 96.4972 27.7331L96.5001 27.7233ZM101.606 71.8747C101.61 71.8741 101.614 71.8732 101.618 71.8727C101.616 71.8532 101.614 71.8336 101.611 71.8141C101.609 71.8342 101.608 71.8546 101.606 71.8747Z" fill="#81AADB"/>
<path d="M96.5001 27.7233L102.247 29.4474C102.274 29.3589 102.298 29.2699 102.321 29.1803L96.5001 27.7233ZM98.131 26.7448L99.5867 20.924L99.5857 20.9238L98.131 26.7448ZM99.1114 28.362L93.2759 26.9669C92.53 30.0868 94.3701 33.2414 97.4528 34.1281L99.1114 28.362ZM112.838 44.9381L106.914 45.8909C107.416 49.0143 110.258 51.211 113.407 50.9111L112.838 44.9381ZM112.859 44.9362L113.427 50.9091C113.518 50.9005 113.608 50.8899 113.698 50.8771L112.859 44.9362ZM114.379 46.0797L120.32 45.2401L120.32 45.239L114.379 46.0797ZM113.235 47.6002L114.035 53.5467C114.049 53.5449 114.062 53.543 114.076 53.5411L113.235 47.6002ZM113.119 47.6159L112.32 41.6694C109.234 42.0843 106.978 44.7909 107.126 47.901L113.119 47.6159ZM104.705 64.4928L102.049 59.1128C100.628 59.8144 99.5421 61.0498 99.0287 62.5493L104.705 64.4928ZM104.389 65.0055L108.641 69.239L108.641 69.2384L104.389 65.0055ZM102.822 65.2526L105.56 59.9133C104.147 59.1892 102.505 59.0543 100.993 59.5381L102.822 65.2526ZM102.396 65.3834L103.938 71.1819C103.973 71.1725 104.009 71.1627 104.044 71.1526L102.396 65.3834ZM101.971 65.4899L100.532 59.665C97.8462 60.3284 95.9622 62.7421 95.9708 65.5086L101.971 65.4899ZM101.971 66.154L95.9711 66.0909L95.971 66.104L101.971 66.154ZM101.617 71.7653L95.657 71.0758C95.4449 72.9097 96.0888 74.7391 97.4027 76.0358C98.7166 77.3325 100.554 77.9522 102.385 77.7159L101.617 71.7653ZM169.747 89.3395L174.668 85.907C174.625 85.8443 174.58 85.7824 174.534 85.7214L169.747 89.3395ZM174.63 98.2956L169.08 100.575C169.082 100.581 169.084 100.586 169.086 100.591L174.63 98.2956ZM174.843 98.818L180.42 96.6054L180.415 96.5923L174.843 98.818ZM174.908 98.985L169.323 101.176L169.328 101.189L174.908 98.985ZM177.029 105.953L171.167 107.231C171.168 107.237 171.17 107.242 171.171 107.247L177.029 105.953ZM177.951 120.077L171.974 119.553C171.964 119.671 171.957 119.788 171.954 119.905L177.951 120.077ZM163.901 166.612L160.091 161.978C158.705 163.117 157.901 164.818 157.901 166.612H163.901ZM163.901 172.328L157.901 172.328L157.901 172.328L163.901 172.328ZM161.624 177.843L165.876 182.076L165.877 182.076L161.624 177.843ZM156.119 180.146V186.146C156.128 186.146 156.138 186.146 156.147 186.146L156.119 180.146ZM152.21 180.146V186.146V180.146ZM149.445 179.001L145.202 183.243L145.203 183.243L149.445 179.001ZM148.301 176.237L142.301 176.237L142.301 176.237L148.301 176.237ZM148.301 167.787H154.301C154.301 165.428 152.919 163.288 150.769 162.318L148.301 167.787ZM142.122 163.333L146.53 159.262C145.415 158.055 143.855 157.358 142.212 157.333C140.569 157.309 138.989 157.959 137.838 159.132L142.122 163.333ZM142.081 163.376L146.176 167.761L146.179 167.759L142.081 163.376ZM140.279 163.407L136.122 167.734C136.191 167.799 136.26 167.863 136.332 167.925L140.279 163.407ZM140.18 163.311L135.754 167.362C135.841 167.457 135.93 167.549 136.023 167.638L140.18 163.311ZM139.768 162.861L135.312 166.879C135.322 166.89 135.332 166.901 135.342 166.912L139.768 162.861ZM139.489 162.548L143.992 158.582C142.587 156.987 140.443 156.254 138.356 156.656L139.489 162.548ZM103.435 163.398L102.549 169.332C102.559 169.334 102.569 169.335 102.579 169.337L103.435 163.398ZM98.3331 162.547L99.4334 156.648C97.0943 156.212 94.7185 157.199 93.3772 159.164L98.3331 162.547ZM97.8966 163.173L102.784 166.654L102.784 166.654L97.8966 163.173ZM96.0206 163.489L92.5389 168.375L92.5404 168.376L96.0206 163.489ZM95.8126 163.306L100.217 159.232C99.0326 157.951 97.3493 157.25 95.6059 157.31C93.8624 157.37 92.2315 158.186 91.1379 159.545L95.8126 163.306ZM91.7081 166.941L88.5395 161.846C86.7787 162.941 85.7081 164.868 85.7081 166.941H91.7081ZM91.7081 172.328L85.7081 172.328L85.7081 172.328L91.7081 172.328ZM89.4308 177.843L93.6832 182.076L93.6832 182.076L89.4308 177.843ZM83.9259 180.146V186.146C83.9352 186.146 83.9444 186.146 83.9537 186.146L83.9259 180.146ZM80.0167 180.146V186.146V180.146ZM77.2521 179.001L73.009 183.243L73.0094 183.243L77.2521 179.001ZM76.1075 176.237L70.1075 176.237L70.1075 176.237L76.1075 176.237ZM76.1075 166.97H82.1075C82.1075 164.935 81.0753 163.038 79.366 161.932L76.1075 166.97ZM64.4161 140.696H70.4161C70.4161 139.788 70.2099 138.891 69.8129 138.074L64.4161 140.696ZM62.5509 136.25L68.2036 134.238C68.1815 134.176 68.1585 134.114 68.1344 134.053L62.5509 136.25ZM60.5782 95.2936L65.9807 97.9039C66.7813 96.2468 66.7772 94.3139 65.9695 92.6602C65.1617 91.0065 63.6397 89.815 61.8405 89.4279L60.5782 95.2936ZM58.6954 94.817L60.3761 89.0572C59.9736 88.9398 59.5599 88.8648 59.1417 88.8337L58.6954 94.817ZM33.215 97.3014L33.215 103.301L33.215 103.301L33.215 97.3014ZM21.2823 84.6305L27.2482 83.9914C27.2397 83.9116 27.2295 83.832 27.2178 83.7525L21.2823 84.6305ZM21.4855 75.7985L27.3739 76.9502C27.3999 76.8174 27.4213 76.6837 27.4383 76.5495L21.4855 75.7985ZM21.4874 75.7838L15.5348 75.0312L15.5348 75.0312L21.4874 75.7838ZM44.9347 52.8961L47.4894 58.3251C49.5197 57.3697 50.8472 55.3613 50.9305 53.1191C51.0139 50.8769 49.8392 48.7755 47.8856 47.6719L44.9347 52.8961ZM44.1359 52.3893L47.6114 47.4985C45.3386 45.8833 42.2527 46.0467 40.1632 47.8929L44.1359 52.3893ZM44.0821 52.4362L40.5418 57.2804C42.825 58.949 45.9634 58.7968 48.0745 56.9152L44.0821 52.4362ZM41.2296 48.1393L47.1116 46.9554C47.1064 46.9295 47.1011 46.9037 47.0955 46.8779L41.2296 48.1393ZM50.7521 36.693L49.0607 30.9363L49.0545 30.9382L50.7521 36.693ZM51.131 36.5827L52.8084 42.3434L52.8085 42.3434L51.131 36.5827ZM53.1544 36.0094L51.5618 30.2247L51.5616 30.2247L53.1544 36.0094ZM57.631 34.8747L58.9712 40.7231L58.9724 40.7228L57.631 34.8747ZM73.712 33.2985L73.2774 39.2827C75.0176 39.4091 76.7266 38.7718 77.959 37.5368L73.712 33.2985ZM76.5294 30.9264L79.9792 35.8354C82.513 34.0548 83.2753 30.6384 81.7389 27.9496L76.5294 30.9264ZM76.5177 30.9059L71.1511 33.5892C71.2008 33.6885 71.2532 33.7864 71.3082 33.8827L76.5177 30.9059ZM76.4562 30.7829L70.9737 33.2206C71.0105 33.3033 71.0491 33.3852 71.0896 33.4661L76.4562 30.7829ZM77.0177 29.07L74.0396 23.8612L74.0374 23.8625L77.0177 29.07ZM78.7784 29.4547L83.7918 26.1583C83.7489 26.0931 83.7048 26.0288 83.6594 25.9654L78.7784 29.4547ZM78.8253 29.526L73.812 32.8225C75.5066 35.3997 78.8791 36.2722 81.611 34.8402L78.8253 29.526ZM93.4425 27.2321L92.7256 33.1891L92.7271 33.1893L93.4425 27.2321ZM96.4972 27.7331L95.2879 33.6099C98.3323 34.2364 101.351 32.4342 102.244 29.4571L96.4972 27.7331ZM101.606 71.8747L95.6467 71.1736C95.4307 73.0091 96.0727 74.8417 97.3869 76.1411C98.7011 77.4406 100.541 78.0619 102.374 77.8253L101.606 71.8747ZM101.618 71.8727L102.386 77.8234C103.97 77.619 105.407 76.7918 106.379 75.525C107.351 74.2581 107.777 72.6561 107.565 71.0736L101.618 71.8727ZM101.611 71.8141L107.556 71.004C107.148 68.0089 104.576 65.7851 101.553 65.8144C98.5306 65.8437 96.0017 68.117 95.6518 71.1195L101.611 71.8141ZM96.5001 27.7233L102.321 29.1803C101.697 31.6718 99.1716 33.1894 96.6762 32.5657L98.131 26.7448L99.5857 20.9238C95.6495 19.9401 91.664 22.3342 90.6797 26.2663L96.5001 27.7233ZM98.131 26.7448L96.6753 32.5655C94.1874 31.9433 92.6853 29.4373 93.2759 26.9669L99.1114 28.362L104.947 29.757C105.88 25.8545 103.506 21.9043 99.5867 20.924L98.131 26.7448ZM99.1114 28.362L97.4528 34.1281C102.635 35.6188 106.004 40.2352 106.914 45.8909L112.838 44.9381L118.762 43.9854C117.316 34.9984 111.529 25.6905 100.77 22.5958L99.1114 28.362ZM112.838 44.9381L113.407 50.9111L113.427 50.9091L112.859 44.9362L112.29 38.9632L112.269 38.9652L112.838 44.9381ZM112.859 44.9362L113.698 50.8771C111.154 51.2367 108.799 49.4667 108.438 46.9205L114.379 46.0797L120.32 45.239C119.751 41.2221 116.034 38.4278 112.019 38.9952L112.859 44.9362ZM114.379 46.0797L108.438 46.9194C108.079 44.3757 109.848 42.0196 112.395 41.6593L113.235 47.6002L114.076 53.5411C118.094 52.9729 120.887 49.2546 120.32 45.2401L114.379 46.0797ZM113.235 47.6002L112.436 41.6537L112.32 41.6694L113.119 47.6159L113.919 53.5624L114.035 53.5467L113.235 47.6002ZM113.119 47.6159L107.126 47.901C107.392 53.4975 105.13 57.5919 102.049 59.1128L104.705 64.4928L107.361 69.8729C116.18 65.519 119.517 55.8269 119.112 47.3307L113.119 47.6159ZM104.705 64.4928L99.0287 62.5493C99.2352 61.9461 99.5917 61.3198 100.136 60.7726L104.389 65.0055L108.641 69.2384C109.483 68.3925 110.047 67.4132 110.382 66.4363L104.705 64.4928ZM104.389 65.0055L100.137 60.772C101.616 59.2871 103.821 59.0221 105.56 59.9133L102.822 65.2526L100.085 70.5918C102.837 72.0026 106.316 71.5739 108.641 69.239L104.389 65.0055ZM102.822 65.2526L100.993 59.5381C100.865 59.5791 100.797 59.6002 100.747 59.6143L102.396 65.3834L104.044 71.1526C104.282 71.0846 104.498 71.0162 104.651 70.967L102.822 65.2526ZM102.396 65.3834L100.854 59.585C100.779 59.6047 100.733 59.6153 100.532 59.665L101.971 65.4899L103.41 71.3148C103.489 71.2952 103.726 71.2381 103.938 71.1819L102.396 65.3834ZM101.971 65.4899L95.9708 65.5086C95.9716 65.7648 95.9729 65.9227 95.9711 66.0909L101.971 66.154L107.97 66.217C107.973 65.9417 107.971 65.6569 107.971 65.4712L101.971 65.4899ZM101.971 66.154L95.971 66.104C95.9575 67.7279 95.8521 69.3893 95.657 71.0758L101.617 71.7653L107.578 72.4547C107.819 70.3661 107.953 68.2772 107.971 66.2039L101.971 66.154ZM101.617 71.7653L102.385 77.7159C122.879 75.0712 136.063 75.7899 145.265 78.5997C154.161 81.3164 159.8 86.1299 164.961 92.9576L169.747 89.3395L174.534 85.7214C168.255 77.4162 160.661 70.7542 148.769 67.1228C137.182 63.5845 122.021 63.0825 100.849 65.8146L101.617 71.7653ZM169.747 89.3395L164.826 92.7719C166.537 95.2246 167.958 97.8434 169.08 100.575L174.63 98.2956L180.18 96.0156C178.729 92.4832 176.888 89.0901 174.668 85.907L169.747 89.3395ZM174.63 98.2956L169.086 100.591C169.152 100.749 169.213 100.899 169.271 101.044L174.843 98.818L180.415 96.5923C180.333 96.3878 180.252 96.1895 180.174 96.0004L174.63 98.2956ZM174.843 98.818L169.266 101.031C169.284 101.077 169.284 101.078 169.323 101.176L174.908 98.985L180.494 96.7939C180.489 96.7807 180.446 96.6705 180.42 96.6054L174.843 98.818ZM174.908 98.985L169.328 101.189C170.103 103.152 170.718 105.173 171.167 107.231L177.029 105.953L182.892 104.674C182.305 101.982 181.501 99.3432 180.489 96.7814L174.908 98.985ZM177.029 105.953L171.171 107.247C172.057 111.26 172.337 115.409 171.974 119.553L177.951 120.077L183.928 120.6C184.399 115.228 184.036 109.854 182.888 104.658L177.029 105.953ZM177.951 120.077L171.954 119.905C171.686 129.274 170.436 138.582 168.263 146.292C166.023 154.238 163.07 159.528 160.091 161.978L163.901 166.612L167.712 171.246C173.588 166.415 177.38 158.178 179.813 149.548C182.312 140.682 183.66 130.362 183.949 120.248L177.951 120.077ZM163.901 166.612H157.901V172.328H163.901H169.901V166.612H163.901ZM163.901 172.328L157.901 172.328C157.901 172.808 157.711 173.27 157.372 173.611L161.624 177.843L165.877 182.076C168.454 179.487 169.901 175.982 169.901 172.328L163.901 172.328ZM161.624 177.843L157.372 173.61C157.032 173.952 156.572 174.144 156.092 174.146L156.119 180.146L156.147 186.146C159.801 186.129 163.299 184.665 165.876 182.076L161.624 177.843ZM156.119 180.146V174.146H152.21V180.146V186.146H156.119V180.146ZM152.21 180.146L152.21 174.146C152.766 174.146 153.297 174.367 153.688 174.758L149.445 179.001L145.203 183.243C147.06 185.101 149.581 186.146 152.21 186.146L152.21 180.146ZM149.445 179.001L153.689 174.759C154.081 175.151 154.301 175.683 154.301 176.237L148.301 176.237L142.301 176.237C142.301 178.864 143.344 181.384 145.202 183.243L149.445 179.001ZM148.301 176.237H154.301V167.787H148.301H142.301V176.237H148.301ZM148.301 167.787L150.769 162.318C149.164 161.593 147.723 160.554 146.53 159.262L142.122 163.333L137.714 167.403C139.997 169.875 142.756 171.867 145.833 173.256L148.301 167.787ZM142.122 163.333L137.838 159.132C137.778 159.193 137.731 159.244 137.709 159.268C137.697 159.28 137.688 159.29 137.686 159.293C137.681 159.298 137.685 159.293 137.689 159.289C137.698 159.279 137.733 159.242 137.779 159.194C137.826 159.145 137.896 159.075 137.984 158.993L142.081 163.376L146.179 167.759C146.274 167.67 146.351 167.592 146.405 167.536C146.458 167.482 146.499 167.437 146.515 167.42C146.519 167.415 146.523 167.411 146.525 167.409C146.526 167.408 146.527 167.406 146.527 167.406C146.528 167.405 146.528 167.405 146.528 167.405C146.529 167.404 146.523 167.41 146.515 167.419C146.5 167.436 146.46 167.479 146.406 167.534L142.122 163.333ZM142.081 163.376L137.986 158.99C139.748 157.345 142.444 157.33 144.227 158.889L140.279 163.407L136.332 167.925C139.141 170.38 143.396 170.356 146.176 167.761L142.081 163.376ZM140.279 163.407L144.436 159.08L144.337 158.985L140.18 163.311L136.023 167.638L136.122 167.734L140.279 163.407ZM140.18 163.311L144.606 159.26L144.193 158.81L139.768 162.861L135.342 166.912L135.754 167.362L140.18 163.311ZM139.768 162.861L144.223 158.843C144.157 158.769 144.087 158.69 143.992 158.582L139.489 162.548L134.986 166.513C135.076 166.615 135.191 166.745 135.312 166.879L139.768 162.861ZM139.489 162.548L138.356 156.656C127.127 158.816 115.614 159.091 104.29 157.459L103.435 163.398L102.579 169.337C115.227 171.159 128.085 170.852 140.623 168.439L139.489 162.548ZM103.435 163.398L104.32 157.464C102.616 157.209 100.978 156.936 99.4334 156.648L98.3331 162.547L97.2329 168.445C98.9349 168.762 100.717 169.059 102.549 169.332L103.435 163.398ZM98.3331 162.547L93.3772 159.164C93.2517 159.348 93.1297 159.524 93.0094 159.693L97.8966 163.173L102.784 166.654C102.959 166.408 103.128 166.165 103.289 165.929L98.3331 162.547ZM97.8966 163.173L93.0095 159.693C94.5007 157.599 97.4066 157.11 99.5008 158.601L96.0206 163.489L92.5404 168.376C95.8446 170.729 100.431 169.958 102.784 166.654L97.8966 163.173ZM96.0206 163.489L99.5023 158.602C99.7547 158.782 99.9953 158.992 100.217 159.232L95.8126 163.306L91.4081 167.381C91.7532 167.754 92.1329 168.086 92.5389 168.375L96.0206 163.489ZM95.8126 163.306L91.1379 159.545C90.4083 160.452 89.5302 161.23 88.5395 161.846L91.7081 166.941L94.8768 172.036C97.0148 170.706 98.9111 169.026 100.487 167.068L95.8126 163.306ZM91.7081 166.941H85.7081V172.328H91.7081H97.7081V166.941H91.7081ZM91.7081 172.328L85.7081 172.328C85.7081 172.808 85.5177 173.27 85.1783 173.611L89.4308 177.843L93.6832 182.076C96.2606 179.487 97.7081 175.982 97.7081 172.328L91.7081 172.328ZM89.4308 177.843L85.1784 173.611C84.8391 173.951 84.3785 174.144 83.8981 174.146L83.9259 180.146L83.9537 186.146C87.6075 186.129 91.1058 184.666 93.6832 182.076L89.4308 177.843ZM83.9259 180.146V174.146H80.0167V180.146V186.146H83.9259V180.146ZM80.0167 180.146L80.0167 174.146C80.5726 174.146 81.1036 174.367 81.4947 174.758L77.2521 179.001L73.0094 183.243C74.8668 185.101 77.3873 186.146 80.0167 186.146L80.0167 180.146ZM77.2521 179.001L81.4951 174.758C81.8875 175.151 82.1075 175.683 82.1075 176.237L76.1075 176.237L70.1075 176.237C70.1076 178.864 71.1508 181.384 73.009 183.243L77.2521 179.001ZM76.1075 176.237H82.1075V166.97H76.1075H70.1075V176.237H76.1075ZM76.1075 166.97L79.366 161.932C74.7425 158.942 70.4161 151.158 70.4161 140.696H64.4161H58.4161C58.4161 153.855 63.7942 166.152 72.8491 172.008L76.1075 166.97ZM64.4161 140.696L69.8129 138.074C69.2058 136.824 68.6684 135.544 68.2036 134.238L62.5509 136.25L56.8982 138.261C57.512 139.986 58.2206 141.674 59.0194 143.318L64.4161 140.696ZM62.5509 136.25L68.1344 134.053C65.6306 127.689 64.2176 120.252 63.9281 113.42C63.6312 106.412 64.5486 100.868 65.9807 97.9039L60.5782 95.2936L55.1758 92.6833C52.4838 98.2549 51.6081 106.123 51.9389 113.928C52.277 121.907 53.9124 130.681 56.9674 138.446L62.5509 136.25ZM60.5782 95.2936L61.8405 89.4279C61.3301 89.318 60.8425 89.1933 60.3761 89.0572L58.6954 94.817L57.0147 100.577C57.7484 100.791 58.515 100.987 59.316 101.159L60.5782 95.2936ZM58.6954 94.817L59.1417 88.8337C53.9231 88.4444 48.597 89.1772 44.1496 89.8843C39.3413 90.6487 35.9027 91.3014 33.2149 91.3014L33.215 97.3014L33.215 103.301C37.1395 103.301 41.9837 102.379 46.0338 101.735C50.4448 101.034 54.5528 100.525 58.2491 100.8L58.6954 94.817ZM33.215 97.3014V91.3014C31.5059 91.3014 30.3536 90.805 29.5467 90.0305C28.7077 89.2252 27.6265 87.5232 27.2482 83.9914L21.2823 84.6305L15.3165 85.2696C15.9074 90.7864 17.8322 95.4198 21.2371 98.6879C24.674 101.987 29.0034 103.301 33.215 103.301V97.3014ZM21.2823 84.6305L27.2178 83.7525C26.8851 81.5038 26.9331 79.2038 27.3739 76.9502L21.4855 75.7985L15.597 74.6468C14.8923 78.2499 14.8165 81.9228 15.3469 85.5085L21.2823 84.6305ZM21.4855 75.7985L27.4383 76.5495C27.4359 76.5686 27.4339 76.5838 27.4327 76.5925C27.4321 76.597 27.4316 76.6006 27.4313 76.6025C27.4311 76.6042 27.4309 76.6056 27.431 76.6047C27.4311 76.6045 27.4314 76.602 27.4318 76.5992C27.4322 76.5962 27.4328 76.5916 27.4336 76.586C27.435 76.5751 27.4373 76.5577 27.44 76.5364L21.4874 75.7838L15.5348 75.0312C15.5372 75.0124 15.5392 74.9975 15.5403 74.989C15.5409 74.9846 15.5414 74.9812 15.5416 74.9794C15.5418 74.9779 15.542 74.9766 15.5419 74.9776C15.5418 74.978 15.5414 74.9805 15.541 74.9835C15.5406 74.9866 15.54 74.9914 15.5392 74.9971C15.5377 75.0083 15.5354 75.026 15.5326 75.0475L21.4855 75.7985ZM21.4874 75.7838L27.44 76.5365C27.8478 73.3115 30.2569 69.8026 34.5109 66.2777C38.6299 62.8646 43.6363 60.1383 47.4894 58.3251L44.9347 52.8961L42.3799 47.4672C38.1026 49.48 32.0794 52.7081 26.8544 57.0376C21.7645 61.2553 16.5152 67.2772 15.5348 75.0312L21.4874 75.7838ZM44.9347 52.8961L47.8856 47.6719C47.7824 47.6137 47.6915 47.5554 47.6114 47.4985L44.1359 52.3893L40.6603 57.2801C41.0819 57.5798 41.5233 57.8602 41.9838 58.1203L44.9347 52.8961ZM44.1359 52.3893L40.1632 47.8929C40.1753 47.8822 40.1841 47.8745 40.1869 47.8721C40.1883 47.8709 40.1905 47.869 40.1825 47.8759C40.1772 47.8804 40.1647 47.8913 40.15 47.9041C40.1349 47.9173 40.1141 47.9356 40.0898 47.9572L44.0821 52.4362L48.0745 56.9152C48.0591 56.9289 48.0472 56.9393 48.041 56.9447C48.0353 56.9497 48.0317 56.9528 48.0354 56.9496C48.0358 56.9492 48.0404 56.9452 48.0432 56.9428C48.0468 56.9397 48.052 56.9352 48.058 56.93C48.0698 56.9198 48.0875 56.9043 48.1085 56.8857L44.1359 52.3893ZM44.0821 52.4362L47.6224 47.592C47.3844 47.418 47.2663 47.2717 47.2088 47.184C47.1521 47.0974 47.1256 47.0246 47.1116 46.9554L41.2296 48.1393L35.3476 49.3232C35.9915 52.5226 37.8338 55.3013 40.5418 57.2804L44.0821 52.4362ZM41.2296 48.1393L47.0955 46.8779C47.0707 46.7625 47.0065 46.1971 47.6993 45.2952C48.3895 44.3967 49.8349 43.2192 52.4497 42.4479L50.7521 36.693L49.0545 30.9382C40.1358 33.569 33.5455 40.9453 35.3637 49.4007L41.2296 48.1393ZM50.7521 36.693L52.4434 42.4497C52.5613 42.4151 52.6636 42.3856 52.8084 42.3434L51.131 36.5827L49.4535 30.8219C49.3456 30.8533 49.1952 30.8968 49.0607 30.9363L50.7521 36.693ZM51.131 36.5827L52.8085 42.3434C53.4532 42.1556 54.0997 41.9724 54.7472 41.7941L53.1544 36.0094L51.5616 30.2247C50.8564 30.4189 50.1535 30.6181 49.4535 30.8219L51.131 36.5827ZM53.1544 36.0094L54.747 41.7942C56.164 41.4041 57.5722 41.0436 58.9712 40.7231L57.631 34.8747L56.2907 29.0263C54.6938 29.3922 53.1149 29.7971 51.5618 30.2247L53.1544 36.0094ZM57.631 34.8747L58.9724 40.7228C64.0224 39.5644 68.8056 38.958 73.2774 39.2827L73.712 33.2985L74.1466 27.3142C68.0447 26.8711 61.9781 27.7217 56.2895 29.0265L57.631 34.8747ZM73.712 33.2985L77.959 37.5368C78.5422 36.9524 79.2131 36.3738 79.9792 35.8354L76.5294 30.9264L73.0796 26.0174C71.7009 26.9862 70.5009 28.0222 69.465 29.0602L73.712 33.2985ZM76.5294 30.9264L81.7389 27.9496L81.7271 27.9291L76.5177 30.9059L71.3082 33.8827L71.3199 33.9032L76.5294 30.9264ZM76.5177 30.9059L81.8843 28.2226L81.8227 28.0996L76.4562 30.7829L71.0896 33.4661L71.1511 33.5892L76.5177 30.9059ZM76.4562 30.7829L81.9386 28.3451C82.8989 30.5046 82.0946 33.0775 79.998 34.2774L77.0177 29.07L74.0374 23.8625C70.7323 25.754 69.4596 29.8155 70.9737 33.2206L76.4562 30.7829ZM77.0177 29.07L79.9958 34.2787C77.8949 35.4799 75.2697 34.8636 73.8974 32.9441L78.7784 29.4547L83.6594 25.9654C81.4944 22.9368 77.3494 21.9688 74.0396 23.8612L77.0177 29.07ZM78.7784 29.4547L73.7651 32.7512L73.812 32.8225L78.8253 29.526L83.8386 26.2296L83.7918 26.1583L78.7784 29.4547ZM78.8253 29.526L81.611 34.8402C84.089 33.5412 87.6391 32.577 92.7256 33.1891L93.4425 27.2321L94.1594 21.2751C86.747 20.383 80.7438 21.7459 76.0396 24.2119L78.8253 29.526ZM93.4425 27.2321L92.7271 33.1893C93.5344 33.2862 94.3873 33.4246 95.2879 33.6099L96.4972 27.7331L97.7065 21.8562C96.4964 21.6072 95.3137 21.4137 94.1579 21.2749L93.4425 27.2321ZM96.4972 27.7331L102.244 29.4571L102.247 29.4474L96.5001 27.7233L90.7532 25.9992L90.7502 26.009L96.4972 27.7331ZM101.606 71.8747L102.374 77.8253C102.411 77.8205 102.444 77.8159 102.471 77.8119C102.498 77.808 102.521 77.8045 102.539 77.8017C102.556 77.7989 102.57 77.7966 102.579 77.7952C102.584 77.7945 102.587 77.7939 102.59 77.7935C102.591 77.7933 102.592 77.7931 102.592 77.793C102.593 77.7929 102.594 77.7928 102.594 77.7928C102.594 77.7927 102.593 77.793 102.591 77.7932C102.589 77.7935 102.586 77.794 102.582 77.7947C102.575 77.7959 102.561 77.7981 102.545 77.8007C102.528 77.8033 102.506 77.8067 102.48 77.8105C102.454 77.8142 102.422 77.8187 102.386 77.8234L101.618 71.8727L100.85 65.922C100.813 65.9269 100.78 65.9314 100.753 65.9354C100.726 65.9393 100.703 65.9429 100.685 65.9456C100.668 65.9484 100.653 65.9507 100.645 65.9521C100.64 65.9529 100.637 65.9535 100.634 65.9539C100.632 65.9542 100.63 65.9545 100.63 65.9545C100.63 65.9546 100.631 65.9544 100.633 65.9541C100.634 65.9538 100.638 65.9533 100.641 65.9527C100.649 65.9514 100.662 65.9493 100.679 65.9467C100.695 65.9441 100.717 65.9407 100.743 65.9369C100.769 65.9331 100.801 65.9287 100.837 65.924L101.606 71.8747ZM101.618 71.8727L107.565 71.0736C107.571 71.1212 107.576 71.1588 107.578 71.1792C107.579 71.1897 107.58 71.1977 107.58 71.2013C107.581 71.2043 107.581 71.2067 107.581 71.2029C107.58 71.2007 107.58 71.1929 107.579 71.1839C107.577 71.1744 107.576 71.1607 107.574 71.1444C107.57 71.1123 107.565 71.0633 107.556 71.004L101.611 71.8141L95.6664 72.6242C95.6596 72.5747 95.655 72.5354 95.6524 72.5131C95.6511 72.5017 95.6501 72.4928 95.6496 72.4883C95.6492 72.4842 95.6489 72.4812 95.6492 72.4839C95.6493 72.4849 95.6501 72.4923 95.6509 72.5002C95.6518 72.5087 95.6533 72.5215 95.655 72.5369C95.6584 72.5671 95.664 72.6144 95.6717 72.6718L101.618 71.8727ZM101.611 71.8141L95.6518 71.1195C95.6444 71.1827 95.6393 71.2347 95.6362 71.2679C95.6346 71.2848 95.6333 71.2989 95.6325 71.3083C95.6317 71.317 95.631 71.325 95.6309 71.3263C95.6307 71.3294 95.6309 71.3262 95.6313 71.3218C95.6318 71.3169 95.6326 71.3074 95.6338 71.295C95.6361 71.2708 95.6403 71.2278 95.6467 71.1736L101.606 71.8747L107.564 72.5757C107.572 72.5114 107.577 72.4584 107.581 72.4241C107.582 72.4067 107.584 72.3921 107.584 72.3821C107.585 72.3727 107.586 72.3644 107.586 72.3625C107.586 72.3587 107.586 72.3616 107.586 72.3653C107.585 72.3697 107.585 72.3787 107.584 72.3906C107.581 72.4136 107.577 72.4556 107.571 72.5087L101.611 71.8141Z" fill="white" mask="url(#path-1-outside-1_922_9641)"/>
<path d="M76.1072 162.394H91.7077V172.328C91.7077 174.395 90.889 176.378 89.4305 177.843C87.9721 179.309 85.9927 180.136 83.9254 180.146H80.0163C78.9795 180.146 77.9852 179.734 77.2521 179.001C76.519 178.268 76.1072 177.274 76.1072 176.237V162.394Z" fill="#6F91B9"/>
<path d="M148.301 162.394H163.901V172.328C163.901 174.395 163.083 176.378 161.624 177.843C160.166 179.309 158.186 180.136 156.119 180.146H152.21C151.173 180.146 150.179 179.734 149.446 179.001C148.713 178.268 148.301 177.274 148.301 176.237V162.394Z" fill="#6F91B9"/>
<path d="M50.7517 50.4282C50.7517 50.4282 23.4598 60.183 21.4873 75.7835C19.5148 91.3841 25.6474 97.3015 33.2146 97.3015C40.7817 97.3015 52.7242 93.1772 62.479 95.3649C72.2338 97.5525 76.1071 64.128 76.1071 64.128C76.1071 64.128 72.2338 39.9203 50.7517 50.4282Z" fill="#4B98E6"/>
<path d="M23.6761 85.8972C25.6486 70.2966 52.9405 60.5418 52.9405 60.5418C66.1023 54.1223 72.6653 60.5418 75.7496 66.7462C76.0006 65.0965 76.1082 64.0564 76.1082 64.0564C76.1082 64.0564 72.235 39.9204 50.7528 50.4284C50.7528 50.4284 23.4609 60.1832 21.4884 75.7837C20.4443 81.106 21.0835 86.6213 23.3174 91.5636C23.3218 89.6692 23.4415 87.7769 23.6761 85.8972Z" fill="#74BAFF"/>
<path d="M47.0933 71.1129C50.9905 71.1129 54.1497 67.9536 54.1497 64.0564C54.1497 60.1593 50.9905 57 47.0933 57C43.1962 57 40.0369 60.1593 40.0369 64.0564C40.0369 67.9536 43.1962 71.1129 47.0933 71.1129Z" fill="white"/>
<path d="M46.9839 68.3379C49.3203 68.3379 51.2144 66.4439 51.2144 64.1074C51.2144 61.771 49.3203 59.877 46.9839 59.877C44.6475 59.877 42.7534 61.771 42.7534 64.1074C42.7534 66.4439 44.6475 68.3379 46.9839 68.3379Z" fill="black"/>
<path d="M169.746 89.4475C158.306 74.3132 143.279 66.495 101.606 71.8745C103.04 59.6809 100.386 47.9895 91.851 40.6734C79.5499 30.2013 64.6666 32.6042 50.7516 36.6926C38.594 40.2789 37.8409 52.2931 48.815 54.2297C59.7892 56.1663 62.4789 54.2297 62.4789 54.2297L60.5782 69.9378C58.0724 69.9071 55.6157 70.6335 53.5297 72.0221C51.4436 73.4106 49.8254 75.3967 48.8868 77.7202C46.3046 85.1797 49.2454 92.8545 60.5782 95.2932C56.4539 103.829 56.9919 122.119 62.5507 136.249C63.09 137.765 63.7126 139.249 64.4156 140.696C64.4156 156.655 73.2738 169.387 83.9252 169.387C86.452 169.255 88.9137 168.538 91.1166 167.294C93.3196 166.049 95.2037 164.31 96.6208 162.214C98.7367 162.644 101.032 163.039 103.435 163.398C115.984 165.206 128.752 164.805 141.163 162.214C143.151 164.731 145.74 166.707 148.692 167.96C151.644 169.213 154.863 169.704 158.055 169.387C171.073 167.235 177.636 142.166 177.995 118.174C178.583 107.94 175.674 97.8102 169.746 89.4475Z" fill="#C0DBFB"/>
<path d="M44.0822 52.4365C45.9929 50.7333 48.2782 49.5047 50.7527 48.8502C64.6677 44.69 79.4434 42.2872 91.7445 52.7593C95.1645 55.9487 97.8428 59.85 99.5903 64.1878C101.338 68.5255 102.112 73.194 101.858 77.8636C101.845 78.5982 101.987 79.3274 102.274 80.0037C102.561 80.6799 102.988 81.2882 103.526 81.7888C104.063 82.2894 104.701 82.6712 105.396 82.9094C106.091 83.1476 106.828 83.2369 107.56 83.1713C144.75 79.2622 158.881 86.9011 169.747 101.246C174.216 107.423 176.963 114.675 177.709 122.262C179.276 110.678 176.435 98.9278 169.747 89.3398C158.307 74.2055 143.28 66.3873 101.607 71.7668C103.041 59.5733 100.388 47.8818 91.8521 40.5657C79.551 30.2012 64.6677 32.6041 50.7527 36.6925C40.7828 39.7409 38.4875 48.3481 44.0822 52.4365Z" fill="#E0EEFF"/>
<path d="M60.5787 69.938C58.073 69.9072 55.6163 70.6336 53.5302 72.0222C51.4442 73.4108 49.8259 75.3968 48.8873 77.7203C48.1941 79.4501 47.8925 81.3119 48.0041 83.1721C48.1157 85.0323 48.6378 86.8447 49.5328 88.4793C50.2679 86.9887 51.3141 85.6731 52.601 84.6214C53.8878 83.5696 55.3853 82.8062 56.9924 82.3825C58.0135 82.1338 58.9217 81.55 59.5718 80.7243C60.222 79.8986 60.5765 78.8788 60.5787 77.8279V69.938Z" fill="#C0DBFB"/>
<path d="M69.2224 39.9203C69.2224 39.9203 75.7137 22.3473 98.4868 28.193C116.598 32.7476 117.961 60.9361 102.396 65.3832C88.9114 68.9695 86.7954 57.565 86.7954 57.565C86.7954 57.565 97.8413 57.565 96.5502 49.7827C95.2592 42.0003 84.5002 44.5825 82.8863 49.7827C72.6653 53.0821 69.2224 39.9203 69.2224 39.9203Z" fill="#E6C94E"/>
<path d="M98.4868 34.3615C102.359 35.488 105.801 37.7585 108.361 40.8751C110.921 43.9918 112.48 47.8092 112.832 51.8269C114.123 42.2873 109.246 30.9186 98.4868 28.193C75.7137 22.3473 69.2224 39.8844 69.2224 39.8844C69.5772 41.1204 70.0454 42.321 70.6211 43.4708C73.526 38.7727 81.4518 30.0938 98.4868 34.3615Z" fill="#F9DF73"/>
<path d="M77.6858 30.2373L86.544 45.7302" stroke="#A98E20" stroke-width="2.68975" stroke-linecap="round" stroke-linejoin="round"/>
<path d="M97.8046 28.0498L93.501 45.2642" stroke="#A98E20" stroke-width="2.68975" stroke-linecap="round" stroke-linejoin="round"/>
<path d="M113.047 46.2681L96.2988 48.635" stroke="#A98E20" stroke-width="2.68975" stroke-linecap="round" stroke-linejoin="round"/>
<path d="M103.435 64.0563L95.6172 56.2739" stroke="#A98E20" stroke-width="2.68975" stroke-linecap="round" stroke-linejoin="round"/>
<path d="M103.615 140.158C103.807 148.112 101.416 155.913 96.8008 162.393" stroke="#81AADB" stroke-width="2.68975" stroke-linecap="round" stroke-linejoin="round"/>
<path d="M141.163 162.393C136.887 157.814 133.958 152.142 132.699 146.004" stroke="#81AADB" stroke-width="2.68975" stroke-linecap="round" stroke-linejoin="round"/>
</svg>
