<svg width="200" height="200" viewBox="0 0 200 200" fill="none" xmlns="http://www.w3.org/2000/svg">
<mask id="path-1-outside-1_1347_15852" maskUnits="userSpaceOnUse" x="11.6836" y="27" width="176" height="153" fill="black">
<rect fill="white" x="11.6836" y="27" width="176" height="153"/>
<path d="M120.359 33.5498C123.428 32.3918 126.844 33.0873 129.16 35.4033L136.672 42.9141C141.362 39.1259 147.33 36.8564 153.828 36.8564C168.918 36.8565 181.151 49.0904 181.151 64.1807C181.151 77.758 171.248 89.0194 158.271 91.1416C158.127 91.185 157.979 91.2227 157.825 91.2441C155.849 91.5197 153.847 91.5816 151.858 91.4326C151.767 91.4261 151.677 91.4195 151.586 91.4121C151.538 91.4081 151.49 91.4037 151.442 91.3994C151.205 91.3789 150.968 91.3547 150.732 91.3281L147.168 100.601C146.299 102.859 145.026 104.828 143.347 106.507L79.0752 170.777C75.8906 174.02 70.68 174.02 67.4375 170.777L21.1152 124.456C17.873 121.271 17.8728 116.06 21.1152 112.817L85.3867 48.5469C87.0659 46.8677 89.0927 45.5941 91.293 44.7256L120.359 33.5498ZM153.828 42.751C148.958 42.751 144.468 44.3758 140.869 47.1123L156.49 62.7324C158.806 65.0485 159.501 68.5233 158.343 71.5342L152.938 85.5898C153.234 85.6019 153.53 85.6104 153.828 85.6104C165.663 85.6103 175.258 76.0161 175.258 64.1807C175.258 52.3455 165.663 42.7511 153.828 42.751ZM125.516 56.248C122.91 56.2481 120.305 57.2322 118.336 59.2588C116.22 61.3746 115.225 64.1722 115.351 66.9297C115.475 69.3593 116.468 71.7536 118.333 73.6182C121.225 76.5097 125.488 77.2735 129.133 75.918C128.197 73.9393 127.511 71.8708 127.075 69.7607C127.06 69.686 127.045 69.6111 127.03 69.5361C127.008 69.4239 126.987 69.3116 126.966 69.1992C126.946 69.0949 126.926 68.9905 126.908 68.8857C126.886 68.757 126.866 68.628 126.846 68.499C126.832 68.4128 126.818 68.3267 126.805 68.2402C126.788 68.1248 126.772 68.0092 126.756 67.8936C126.739 67.7691 126.722 67.6445 126.707 67.5195C126.697 67.4359 126.688 67.3522 126.679 67.2686C126.664 67.1363 126.649 67.0039 126.636 66.8711C126.623 66.7368 126.612 66.6022 126.601 66.4678C126.593 66.3816 126.585 66.2954 126.579 66.209C126.567 66.0489 126.558 65.8887 126.549 65.7285C126.546 65.6693 126.541 65.6101 126.538 65.5508C126.528 65.3425 126.52 65.1342 126.515 64.9258C126.513 64.8494 126.511 64.7729 126.51 64.6963L126.504 64.1807C126.504 61.5016 126.891 58.9123 127.609 56.4658C126.92 56.3217 126.218 56.248 125.516 56.248ZM132.913 59.4873C132.576 60.9976 132.397 62.5686 132.397 64.1807C132.397 64.5201 132.406 64.8577 132.422 65.1934C132.428 65.3243 132.436 65.4551 132.444 65.5859C132.594 67.9001 133.112 70.1137 133.938 72.1699C136.576 68.2835 136.234 63.0144 132.913 59.4873Z"/>
</mask>
<path d="M120.359 33.5498C123.428 32.3918 126.844 33.0873 129.16 35.4033L136.672 42.9141C141.362 39.1259 147.33 36.8564 153.828 36.8564C168.918 36.8565 181.151 49.0904 181.151 64.1807C181.151 77.758 171.248 89.0194 158.271 91.1416C158.127 91.185 157.979 91.2227 157.825 91.2441C155.849 91.5197 153.847 91.5816 151.858 91.4326C151.767 91.4261 151.677 91.4195 151.586 91.4121C151.538 91.4081 151.49 91.4037 151.442 91.3994C151.205 91.3789 150.968 91.3547 150.732 91.3281L147.168 100.601C146.299 102.859 145.026 104.828 143.347 106.507L79.0752 170.777C75.8906 174.02 70.68 174.02 67.4375 170.777L21.1152 124.456C17.873 121.271 17.8728 116.06 21.1152 112.817L85.3867 48.5469C87.0659 46.8677 89.0927 45.5941 91.293 44.7256L120.359 33.5498ZM153.828 42.751C148.958 42.751 144.468 44.3758 140.869 47.1123L156.49 62.7324C158.806 65.0485 159.501 68.5233 158.343 71.5342L152.938 85.5898C153.234 85.6019 153.53 85.6104 153.828 85.6104C165.663 85.6103 175.258 76.0161 175.258 64.1807C175.258 52.3455 165.663 42.7511 153.828 42.751ZM125.516 56.248C122.91 56.2481 120.305 57.2322 118.336 59.2588C116.22 61.3746 115.225 64.1722 115.351 66.9297C115.475 69.3593 116.468 71.7536 118.333 73.6182C121.225 76.5097 125.488 77.2735 129.133 75.918C128.197 73.9393 127.511 71.8708 127.075 69.7607C127.06 69.686 127.045 69.6111 127.03 69.5361C127.008 69.4239 126.987 69.3116 126.966 69.1992C126.946 69.0949 126.926 68.9905 126.908 68.8857C126.886 68.757 126.866 68.628 126.846 68.499C126.832 68.4128 126.818 68.3267 126.805 68.2402C126.788 68.1248 126.772 68.0092 126.756 67.8936C126.739 67.7691 126.722 67.6445 126.707 67.5195C126.697 67.4359 126.688 67.3522 126.679 67.2686C126.664 67.1363 126.649 67.0039 126.636 66.8711C126.623 66.7368 126.612 66.6022 126.601 66.4678C126.593 66.3816 126.585 66.2954 126.579 66.209C126.567 66.0489 126.558 65.8887 126.549 65.7285C126.546 65.6693 126.541 65.6101 126.538 65.5508C126.528 65.3425 126.52 65.1342 126.515 64.9258C126.513 64.8494 126.511 64.7729 126.51 64.6963L126.504 64.1807C126.504 61.5016 126.891 58.9123 127.609 56.4658C126.92 56.3217 126.218 56.248 125.516 56.248ZM132.913 59.4873C132.576 60.9976 132.397 62.5686 132.397 64.1807C132.397 64.5201 132.406 64.8577 132.422 65.1934C132.428 65.3243 132.436 65.4551 132.444 65.5859C132.594 67.9001 133.112 70.1137 133.938 72.1699C136.576 68.2835 136.234 63.0144 132.913 59.4873Z" fill="#B7B7B7"/>
<path d="M120.359 33.5498L118.241 27.9362C118.229 27.9406 118.218 27.945 118.206 27.9495L120.359 33.5498ZM129.16 35.4033L124.918 39.646L124.918 39.6462L129.16 35.4033ZM136.672 42.9141L132.43 47.157C134.599 49.3262 138.055 49.5094 140.442 47.5816L136.672 42.9141ZM153.828 36.8564L153.828 30.8564H153.828V36.8564ZM181.151 64.1807L187.151 64.1808V64.1807H181.151ZM158.271 91.1416L157.302 85.2203C157.044 85.2625 156.788 85.3216 156.538 85.3973L158.271 91.1416ZM157.825 91.2441L158.654 97.1866L158.656 97.1863L157.825 91.2441ZM151.858 91.4326L152.306 85.4494C152.299 85.4488 152.292 85.4483 152.285 85.4478L151.858 91.4326ZM151.586 91.4121L151.08 97.3907C151.086 97.3913 151.093 97.3919 151.1 97.3924L151.586 91.4121ZM151.442 91.3994L151.979 85.4235C151.973 85.4229 151.966 85.4223 151.959 85.4217L151.442 91.3994ZM150.732 91.3281L151.405 85.3659C148.691 85.0598 146.112 86.6256 145.132 89.1752L150.732 91.3281ZM147.168 100.601L152.768 102.754L152.768 102.753L147.168 100.601ZM143.347 106.507L147.589 110.75L147.589 110.749L143.347 106.507ZM79.0752 170.777L74.8326 166.535C74.8198 166.547 74.8071 166.56 74.7945 166.573L79.0752 170.777ZM67.4375 170.777L71.6801 166.535L71.6801 166.535L67.4375 170.777ZM21.1152 124.456L25.3578 120.213C25.3452 120.201 25.3324 120.188 25.3197 120.176L21.1152 124.456ZM21.1152 112.817L16.8726 108.575L16.8726 108.575L21.1152 112.817ZM85.3867 48.5469L89.6293 52.7895L89.6294 52.7895L85.3867 48.5469ZM91.293 44.7256L89.1397 39.1253C89.1231 39.1317 89.1065 39.1381 89.09 39.1447L91.293 44.7256ZM153.828 42.751L153.828 36.751H153.828V42.751ZM140.869 47.1123L137.237 42.3362C135.858 43.3848 135 44.9784 134.883 46.7069C134.766 48.4354 135.402 50.1301 136.627 51.3551L140.869 47.1123ZM156.49 62.7324L160.733 58.4898L160.733 58.4896L156.49 62.7324ZM158.343 71.5342L152.743 69.3803L152.742 69.3809L158.343 71.5342ZM152.938 85.5898L147.338 83.4366C146.644 85.2412 146.863 87.2696 147.925 88.8853C148.986 90.501 150.762 91.506 152.694 91.5849L152.938 85.5898ZM153.828 85.6104V91.6104H153.828L153.828 85.6104ZM175.258 64.1807L181.258 64.1808V64.1807H175.258ZM125.516 56.248V50.248H125.516L125.516 56.248ZM118.336 59.2588L122.579 63.5014C122.599 63.4809 122.619 63.4603 122.64 63.4395L118.336 59.2588ZM115.351 66.9297L109.357 67.2018C109.357 67.2132 109.358 67.2245 109.358 67.2359L115.351 66.9297ZM118.333 73.6182L114.09 77.8608L114.09 77.8608L118.333 73.6182ZM129.133 75.918L131.224 81.5416C132.8 80.9557 134.057 79.736 134.69 78.1794C135.324 76.6227 135.275 74.8717 134.557 73.3525L129.133 75.918ZM127.075 69.7607L132.951 68.5475L132.95 68.5415L127.075 69.7607ZM127.03 69.5361L121.144 70.7004L121.145 70.7058L127.03 69.5361ZM126.966 69.1992L132.866 68.1083L132.865 68.1039L126.966 69.1992ZM126.908 68.8857L120.996 69.9083L120.997 69.9119L126.908 68.8857ZM126.846 68.499L132.772 67.5606L132.771 67.558L126.846 68.499ZM126.805 68.2402L120.87 69.1223L120.87 69.1243L126.805 68.2402ZM126.756 67.8936L132.701 67.0869L132.701 67.0857L126.756 67.8936ZM126.707 67.5195L120.751 68.2448L120.751 68.2453L126.707 67.5195ZM126.679 67.2686L132.641 66.5978V66.5978L126.679 67.2686ZM126.636 66.8711L132.607 66.2873L132.607 66.2867L126.636 66.8711ZM126.601 66.4678L120.621 66.9634L120.621 66.9645L126.601 66.4678ZM126.579 66.209L132.563 65.7698L132.563 65.7685L126.579 66.209ZM126.549 65.7285L120.558 66.0632L120.558 66.0647L126.549 65.7285ZM126.538 65.5508L132.531 65.2547L132.531 65.2532L126.538 65.5508ZM126.515 64.9258L120.517 65.0865L120.517 65.0877L126.515 64.9258ZM126.51 64.6963L120.51 64.7645C120.51 64.7788 120.511 64.7931 120.511 64.8074L126.51 64.6963ZM126.504 64.1807H120.504C120.504 64.2034 120.504 64.2261 120.504 64.2488L126.504 64.1807ZM127.609 56.4658L133.366 58.157C133.838 56.5505 133.617 54.8199 132.757 53.3834C131.897 51.9469 130.476 50.9351 128.837 50.5927L127.609 56.4658ZM132.913 59.4873L137.281 55.3742C135.759 53.7571 133.468 53.1135 131.326 53.7011C129.184 54.2887 127.542 56.0115 127.057 58.1791L132.913 59.4873ZM132.397 64.1807H126.397V64.1808L132.397 64.1807ZM132.422 65.1934L126.428 65.4723L126.428 65.4725L132.422 65.1934ZM132.444 65.5859L126.457 65.9733L126.457 65.9736L132.444 65.5859ZM133.938 72.1699L128.372 74.4082C129.199 76.4655 131.093 77.8989 133.298 78.1356C135.502 78.3724 137.658 77.3739 138.903 75.5392L133.938 72.1699ZM120.359 33.5498L122.478 39.1634C123.4 38.8155 124.312 39.0409 124.918 39.646L129.16 35.4033L133.403 31.1606C129.376 27.1337 123.456 25.9682 118.241 27.9362L120.359 33.5498ZM129.16 35.4033L124.918 39.6462L132.43 47.157L136.672 42.9141L140.914 38.6711L133.403 31.1604L129.16 35.4033ZM136.672 42.9141L140.442 47.5816C144.104 44.6237 148.752 42.8564 153.828 42.8564V36.8564V30.8564C145.908 30.8564 138.62 33.628 132.902 38.2465L136.672 42.9141ZM153.828 36.8564L153.828 42.8564C165.604 42.8565 175.151 52.4039 175.151 64.1807H181.151H187.151C187.151 45.777 172.232 30.8565 153.828 30.8564L153.828 36.8564ZM181.151 64.1807L175.151 64.1806C175.151 74.7697 167.426 83.5647 157.302 85.2203L158.271 91.1416L159.239 97.0629C175.069 94.4741 187.151 80.7462 187.151 64.1808L181.151 64.1807ZM158.271 91.1416L156.538 85.3973C156.552 85.393 156.728 85.3392 156.994 85.3019L157.825 91.2441L158.656 97.1863C159.23 97.1061 159.701 96.9771 160.003 96.8859L158.271 91.1416ZM157.825 91.2441L156.996 85.3017C155.447 85.5177 153.874 85.5667 152.306 85.4494L151.858 91.4326L151.41 97.4159C153.821 97.5964 156.251 97.5218 158.654 97.1866L157.825 91.2441ZM151.858 91.4326L152.285 85.4478C152.201 85.4418 152.133 85.4368 152.072 85.4318L151.586 91.4121L151.1 97.3924C151.22 97.4022 151.334 97.4105 151.432 97.4174L151.858 91.4326ZM151.586 91.4121L152.092 85.4335C152.064 85.4311 152.035 85.4285 151.979 85.4235L151.442 91.3994L150.905 97.3753C150.945 97.3789 151.012 97.385 151.08 97.3907L151.586 91.4121ZM151.442 91.3994L151.959 85.4217C151.783 85.4065 151.599 85.3878 151.405 85.3659L150.732 91.3281L150.06 97.2903C150.338 97.3216 150.627 97.3513 150.925 97.3771L151.442 91.3994ZM150.732 91.3281L145.132 89.1752L141.568 98.4477L147.168 100.601L152.768 102.753L156.333 93.481L150.732 91.3281ZM147.168 100.601L141.568 98.4467C140.995 99.9371 140.178 101.191 139.104 102.264L143.347 106.507L147.589 110.749C149.874 108.465 151.604 105.78 152.768 102.754L147.168 100.601ZM143.347 106.507L139.104 102.264L74.8326 166.535L79.0752 170.777L83.3178 175.02L147.589 110.75L143.347 106.507ZM79.0752 170.777L74.7945 166.573C73.9825 167.4 72.6009 167.455 71.6801 166.535L67.4375 170.777L63.1949 175.02C68.7592 180.584 77.7987 180.64 83.3559 174.982L79.0752 170.777ZM67.4375 170.777L71.6801 166.535L25.3578 120.213L21.1152 124.456L16.8726 128.699L63.1949 175.02L67.4375 170.777ZM21.1152 124.456L25.3197 120.176C24.4927 119.363 24.4374 117.98 25.3579 117.06L21.1152 112.817L16.8726 108.575C11.3082 114.139 11.2533 123.18 16.9108 128.737L21.1152 124.456ZM21.1152 112.817L25.3578 117.06L89.6293 52.7895L85.3867 48.5469L81.1441 44.3042L16.8726 108.575L21.1152 112.817ZM85.3867 48.5469L89.6294 52.7895C90.6723 51.7466 91.9839 50.9034 93.496 50.3065L91.293 44.7256L89.09 39.1447C86.2014 40.2849 83.4595 41.9888 81.1441 44.3042L85.3867 48.5469ZM91.293 44.7256L93.4462 50.3259L122.513 39.1501L120.359 33.5498L118.206 27.9495L89.1397 39.1253L91.293 44.7256ZM153.828 42.751V36.751C147.601 36.751 141.844 38.8336 137.237 42.3362L140.869 47.1123L144.501 51.8884C147.092 49.9179 150.315 48.751 153.828 48.751V42.751ZM140.869 47.1123L136.627 51.3551L152.248 66.9752L156.49 62.7324L160.733 58.4896L145.112 42.8695L140.869 47.1123ZM156.49 62.7324L152.248 66.9751C152.856 67.584 153.065 68.5419 152.743 69.3803L158.343 71.5342L163.943 73.6881C165.936 68.5047 164.756 62.513 160.733 58.4898L156.49 62.7324ZM158.343 71.5342L152.742 69.3809L147.338 83.4366L152.938 85.5898L158.539 87.7431L163.943 73.6875L158.343 71.5342ZM152.938 85.5898L152.694 91.5849C153.035 91.5988 153.42 91.6104 153.828 91.6104V85.6104V79.6104C153.641 79.6104 153.432 79.605 153.183 79.5948L152.938 85.5898ZM153.828 85.6104L153.828 91.6104C168.977 91.6103 181.258 79.3299 181.258 64.1808L175.258 64.1807L169.258 64.1805C169.258 72.7024 162.349 79.6103 153.828 79.6104L153.828 85.6104ZM175.258 64.1807H181.258C181.258 49.0318 168.977 36.7511 153.828 36.751L153.828 42.751L153.828 48.751C162.35 48.751 169.258 55.6593 169.258 64.1807H175.258ZM125.516 56.248L125.516 50.248C121.397 50.2481 117.204 51.8128 114.032 55.0781L118.336 59.2588L122.64 63.4395C123.405 62.6517 124.423 62.2481 125.516 62.248L125.516 56.248ZM118.336 59.2588L114.093 55.0162C110.744 58.3651 109.158 62.8191 109.357 67.2018L115.351 66.9297L121.344 66.6576C121.293 65.5253 121.696 64.3841 122.579 63.5014L118.336 59.2588ZM115.351 66.9297L109.358 67.2359C109.556 71.1007 111.142 74.9122 114.09 77.8608L118.333 73.6182L122.576 69.3755C121.795 68.5949 121.394 67.6179 121.343 66.6235L115.351 66.9297ZM118.333 73.6182L114.09 77.8608C118.735 82.5051 125.507 83.6683 131.224 81.5416L129.133 75.918L127.041 70.2944C125.47 70.8786 123.714 70.5143 122.576 69.3755L118.333 73.6182ZM129.133 75.918L134.557 73.3525C133.827 71.8106 133.292 70.1966 132.951 68.5475L127.075 69.7607L121.199 70.974C121.73 73.5451 122.566 76.068 123.709 78.4835L129.133 75.918ZM127.075 69.7607L132.95 68.5415C132.941 68.4997 132.938 68.4795 132.915 68.3665L127.03 69.5361L121.145 70.7058C121.153 70.7427 121.178 70.8723 121.2 70.98L127.075 69.7607ZM127.03 69.5361L132.916 68.3718C132.899 68.2845 132.882 68.1967 132.866 68.1083L126.966 69.1992L121.066 70.2901C121.091 70.4266 121.117 70.5633 121.144 70.7004L127.03 69.5361ZM126.966 69.1992L132.865 68.1039C132.836 67.9501 132.83 67.9182 132.82 67.8596L126.908 68.8857L120.997 69.9119C121.023 70.0628 121.056 70.2396 121.067 70.2946L126.966 69.1992ZM126.908 68.8857L132.82 67.8632C132.808 67.7897 132.798 67.7272 132.772 67.5606L126.846 68.499L120.92 69.4374C120.934 69.5288 120.964 69.7244 120.996 69.9083L126.908 68.8857ZM126.846 68.499L132.771 67.558C132.746 67.4001 132.747 67.4077 132.739 67.3562L126.805 68.2402L120.87 69.1243C120.888 69.2457 120.918 69.4256 120.92 69.4401L126.846 68.499ZM126.805 68.2402L132.74 67.3582C132.728 67.2807 132.716 67.1947 132.701 67.0869L126.756 67.8936L120.81 68.7002C120.827 68.8236 120.847 68.9689 120.87 69.1223L126.805 68.2402ZM126.756 67.8936L132.701 67.0857C132.685 66.9653 132.673 66.8751 132.663 66.7938L126.707 67.5195L120.751 68.2453C120.772 68.4139 120.793 68.5729 120.811 68.7015L126.756 67.8936ZM126.707 67.5195L132.663 66.7943C132.657 66.7443 132.658 66.7489 132.641 66.5978L126.679 67.2686L120.716 67.9393C120.718 67.9556 120.737 68.1276 120.751 68.2448L126.707 67.5195ZM126.679 67.2686L132.641 66.5978C132.624 66.4486 132.615 66.3666 132.607 66.2873L126.636 66.8711L120.664 67.4549C120.682 67.6413 120.703 67.824 120.716 67.9393L126.679 67.2686ZM126.636 66.8711L132.607 66.2867C132.599 66.2076 132.593 66.1285 132.58 65.971L126.601 66.4678L120.621 66.9645C120.63 67.076 120.646 67.2659 120.664 67.4554L126.636 66.8711ZM126.601 66.4678L132.58 65.9721C132.566 65.8022 132.567 65.824 132.563 65.7698L126.579 66.209L120.595 66.6482C120.604 66.7668 120.621 66.9609 120.621 66.9634L126.601 66.4678ZM126.579 66.209L132.563 65.7685C132.555 65.6618 132.548 65.5434 132.539 65.3923L126.549 65.7285L120.558 66.0647C120.568 66.234 120.58 66.4361 120.595 66.6495L126.579 66.209ZM126.549 65.7285L132.539 65.3938C132.538 65.3595 132.536 65.3293 132.534 65.3066C132.533 65.2867 132.531 65.2627 132.531 65.2544C132.529 65.2267 132.53 65.2359 132.531 65.2547L126.538 65.5508L120.545 65.8468C120.549 65.925 120.554 65.9935 120.556 66.025C120.559 66.0691 120.558 66.0657 120.558 66.0632L126.549 65.7285ZM126.538 65.5508L132.531 65.2532C132.523 65.0994 132.517 64.9374 132.512 64.7639L126.515 64.9258L120.517 65.0877C120.523 65.3309 120.532 65.5856 120.545 65.8484L126.538 65.5508ZM126.515 64.9258L132.512 64.7651C132.511 64.7176 132.51 64.6659 132.509 64.5852L126.51 64.6963L120.511 64.8074C120.512 64.8798 120.514 64.9811 120.517 65.0865L126.515 64.9258ZM126.51 64.6963L132.509 64.6281L132.504 64.1125L126.504 64.1807L120.504 64.2488L120.51 64.7645L126.51 64.6963ZM126.504 64.1807H132.504C132.504 62.0817 132.807 60.0617 133.366 58.157L127.609 56.4658L121.853 54.7746C120.975 57.763 120.504 60.9215 120.504 64.1807H126.504ZM127.609 56.4658L128.837 50.5927C127.75 50.3657 126.637 50.248 125.516 50.248V56.248V62.248C125.798 62.248 126.089 62.2777 126.382 62.339L127.609 56.4658ZM132.913 59.4873L127.057 58.1791C126.625 60.1157 126.397 62.1253 126.397 64.1807H132.397H138.397C138.397 63.0119 138.527 61.8796 138.769 60.7955L132.913 59.4873ZM132.397 64.1807L126.397 64.1808C126.397 64.6235 126.409 65.0547 126.428 65.4723L132.422 65.1934L138.415 64.9144C138.404 64.6608 138.397 64.4168 138.397 64.1805L132.397 64.1807ZM132.422 65.1934L126.428 65.4725C126.437 65.656 126.447 65.8278 126.457 65.9733L132.444 65.5859L138.432 65.1985C138.424 65.0825 138.419 64.9926 138.415 64.9142L132.422 65.1934ZM132.444 65.5859L126.457 65.9736C126.649 68.9337 127.311 71.7713 128.372 74.4082L133.938 72.1699L139.505 69.9317C138.912 68.456 138.54 66.8665 138.432 65.1982L132.444 65.5859ZM133.938 72.1699L138.903 75.5392C143.099 69.3568 142.554 60.974 137.281 55.3742L132.913 59.4873L128.545 63.6004C129.914 65.0548 130.053 67.2102 128.974 68.8007L133.938 72.1699Z" fill="white" mask="url(#path-1-outside-1_1347_15852)"/>
<path d="M153.828 42.7503C141.992 42.7503 132.398 52.3447 132.398 64.1799C132.398 76.0156 141.992 85.6099 153.828 85.6099C165.663 85.6099 175.257 76.0156 175.257 64.1799C175.257 52.3447 165.663 42.7503 153.828 42.7503ZM126.504 64.1799C126.504 49.0896 138.737 36.8564 153.828 36.8564C168.918 36.8564 181.151 49.0896 181.151 64.1799C181.151 79.2703 168.918 91.5038 153.828 91.5038C138.737 91.5038 126.504 79.2703 126.504 64.1799Z" fill="#B7B7B7"/>
<path d="M147.168 100.6L158.343 71.5337C159.501 68.5228 158.806 65.0487 156.49 62.7326L129.16 35.403C126.844 33.0869 123.428 32.3921 120.359 33.5501L91.2925 44.7252C89.0923 45.5937 87.0657 46.8675 85.3865 48.5467L21.1155 112.818C17.873 116.06 17.873 121.271 21.1155 124.456L67.437 170.777C70.6795 174.02 75.8906 174.02 79.0752 170.777L143.346 106.506C145.025 104.827 146.299 102.859 147.168 100.6ZM118.333 73.6182C114.337 69.6229 114.337 63.1958 118.333 59.2006C122.328 55.2054 128.755 55.2054 132.75 59.2006C136.745 63.1958 136.745 69.6229 132.75 73.6182C128.755 77.5555 122.27 77.5555 118.333 73.6182Z" fill="#4B9AE8"/>
<mask id="path-5-outside-2_1347_15852" maskUnits="userSpaceOnUse" x="49.1525" y="67.3148" width="73.5391" height="73.5391" fill="black">
<rect fill="white" x="49.1525" y="67.3148" width="73.5391" height="73.5391"/>
<path d="M102.68 91.8509C110.619 99.7899 110.619 112.661 102.68 120.601C94.7409 128.54 81.8694 128.54 73.9303 120.601C67.3114 113.982 66.212 103.936 70.6295 96.1764C68.5805 94.42 66.8538 90.7738 67.8681 89.0038C69.0137 87.0053 73.9823 86.8231 76.3403 88.18C76.7635 88.4236 77.1482 88.7014 77.4852 89.01C85.3389 84.0642 95.8401 85.011 102.68 91.8509Z"/>
</mask>
<path d="M102.68 91.8509C110.619 99.7899 110.619 112.661 102.68 120.601C94.7409 128.54 81.8694 128.54 73.9303 120.601C67.3114 113.982 66.212 103.936 70.6295 96.1764C68.5805 94.42 66.8538 90.7738 67.8681 89.0038C69.0137 87.0053 73.9823 86.8231 76.3403 88.18C76.7635 88.4236 77.1482 88.7014 77.4852 89.01C85.3389 84.0642 95.8401 85.011 102.68 91.8509Z" fill="#DFB820"/>
<path d="M102.68 91.8509L105.478 89.0528L102.68 91.8509ZM102.68 120.601L105.478 123.399L105.478 123.399L102.68 120.601ZM73.9303 120.601L71.1322 123.399L73.9303 120.601ZM70.6295 96.1764L74.0683 98.1342L75.6837 95.2968L73.2048 93.172L70.6295 96.1764ZM67.8681 89.0038L64.4351 87.0358L64.4348 87.0364L67.8681 89.0038ZM76.3403 88.18L78.3139 84.7503L78.3139 84.7502L76.3403 88.18ZM77.4852 89.01L74.8124 91.9281L77.0389 93.9674L79.5938 92.3585L77.4852 89.01ZM102.68 91.8509L99.8819 94.6489C106.276 101.043 106.275 111.409 99.8819 117.803L102.68 120.601L105.478 123.399C114.962 113.914 114.962 98.5372 105.478 89.0528L102.68 91.8509ZM102.68 120.601L99.8819 117.803C93.4882 124.196 83.1221 124.196 76.7284 117.803L73.9303 120.601L71.1322 123.399C80.6166 132.883 95.9936 132.883 105.478 123.399L102.68 120.601ZM73.9303 120.601L76.7284 117.803C71.4021 112.476 70.5096 104.385 74.0683 98.1342L70.6295 96.1764L67.1907 94.2186C61.9144 103.486 63.2207 115.487 71.1322 123.399L73.9303 120.601ZM70.6295 96.1764L73.2048 93.172C72.7084 92.7465 72.1082 91.9301 71.7551 91.0789C71.5861 90.6715 71.5358 90.4024 71.527 90.2973C71.5162 90.167 71.5775 90.4895 71.3014 90.9712L67.8681 89.0038L64.4348 87.0364C63.6516 88.4032 63.5483 89.8451 63.64 90.9512C63.7338 92.0825 64.053 93.1666 64.445 94.1115C65.2139 95.965 66.5016 97.8499 68.0543 99.1808L70.6295 96.1764ZM67.8681 89.0038L71.3011 90.9718C70.9933 91.5087 70.6479 91.5846 70.8672 91.4931C71.0429 91.4199 71.4079 91.3199 71.9449 91.2797C72.4653 91.2407 73.015 91.2682 73.5015 91.3532C74.0126 91.4426 74.2913 91.5664 74.3666 91.6098L76.3403 88.18L78.3139 84.7502C76.225 83.5482 73.5234 83.2253 71.3542 83.3876C70.2111 83.4732 68.9718 83.7086 67.82 84.1892C66.7118 84.6515 65.3157 85.4996 64.4351 87.0358L67.8681 89.0038ZM76.3403 88.18L74.3666 91.6097C74.5625 91.7225 74.7083 91.8326 74.8124 91.9281L77.4852 89.01L80.1579 86.092C79.5881 85.5701 78.9646 85.1247 78.3139 84.7503L76.3403 88.18ZM77.4852 89.01L79.5938 92.3585C85.9184 88.3756 94.377 89.144 99.8819 94.6489L102.68 91.8509L105.478 89.0528C97.3032 80.878 84.7594 79.7528 75.3765 85.6616L77.4852 89.01Z" fill="white" mask="url(#path-5-outside-2_1347_15852)"/>
<path d="M73.9317 120.602C81.8708 128.541 94.7425 128.541 102.682 120.602C110.621 112.663 110.621 99.7916 102.682 91.8525C94.7425 83.9134 81.8708 83.9134 73.9317 91.8525C65.9926 99.7916 65.9926 112.663 73.9317 120.602Z" fill="#4B98E6"/>
<circle cx="86.8008" cy="97.1963" r="5.3206" transform="rotate(45 86.8008 97.1963)" fill="white"/>
<circle cx="86.8027" cy="97.1973" r="3.19236" transform="rotate(45 86.8027 97.1973)" fill="#161616"/>
<circle cx="86.8027" cy="97.1973" r="3.19236" transform="rotate(45 86.8027 97.1973)" fill="#161616"/>
<path d="M71.4359 96.7582C69.0732 95.3979 66.725 91.0049 67.8704 89.0062C69.0157 87.0074 73.9849 86.8248 76.3429 88.1817C78.701 89.5387 79.8715 91.9489 78.1645 94.9266C76.4387 97.9405 73.794 98.1151 71.4312 96.7548L71.4359 96.7582Z" fill="#DFB820"/>
<path d="M125.516 56.2474C128.121 56.2474 130.727 57.2317 132.695 59.2583C136.691 63.2535 136.691 69.6806 132.695 73.6759C130.727 75.6445 128.121 76.6868 125.516 76.6868C122.91 76.6868 120.304 75.7024 118.336 73.6759C114.34 69.6806 114.34 63.2535 118.336 59.2583C120.304 57.2317 122.91 56.2474 125.516 56.2474ZM125.516 50.8047C121.347 50.8047 117.409 52.4259 114.456 55.3789C108.377 61.4586 108.377 71.3598 114.456 77.4974C117.409 80.4504 121.347 82.0716 125.516 82.0716C129.684 82.0716 133.622 80.4504 136.575 77.4974C142.654 71.4177 142.654 61.5165 136.575 55.3789C133.622 52.4259 129.684 50.8047 125.516 50.8047Z" fill="#276288"/>
<path d="M129.451 61.2334C131.079 61.2334 132.398 62.553 132.398 64.1806C132.398 69.69 134.487 75.1825 138.657 79.3515C140.294 80.9889 142.122 82.305 144.028 83.2581L144.042 83.2645C148.068 85.3032 152.613 86.0206 157.01 85.4068C158.622 85.1822 160.111 86.3066 160.336 87.9186C160.561 89.53 159.437 91.0193 157.825 91.2445C152.266 92.0198 146.507 91.1171 141.386 88.526C138.894 87.2794 136.556 85.5858 134.489 83.5192C129.162 78.1923 126.504 71.1775 126.504 64.1806C126.504 62.553 127.823 61.2334 129.451 61.2334Z" fill="#B7B7B7"/>
</svg>
