<svg width="200" height="200" viewBox="0 0 200 200" fill="none" xmlns="http://www.w3.org/2000/svg">
<mask id="path-1-outside-1_1347_8521" maskUnits="userSpaceOnUse" x="24.9092" y="12" width="152" height="180" fill="black">
<rect fill="white" x="24.9092" y="12" width="152" height="180"/>
<path d="M100.153 18C115.316 18 128.621 26.3282 136.153 39.4463C137.578 34.7684 142.097 33.9417 146.775 35.6455C158.048 42.1195 165.884 51.4924 169.048 66.2246C172.07 80.2966 167.956 87.9719 160.044 94.6357C164.365 102.143 166.894 110.52 166.894 119.29H166.864C166.864 130.67 163.044 140.8 156.454 149.11C150.572 156.528 142.486 162.502 132.938 166.64L134.739 173.524L141.212 173.759C142.039 173.789 142.687 174.485 142.657 175.312C142.627 176.14 141.931 176.787 141.104 176.757L135.598 176.558L137.381 182.615C137.615 183.41 137.16 184.243 136.365 184.478C135.571 184.711 134.737 184.256 134.503 183.462L132.957 178.207L127.44 185.274C126.931 185.927 125.987 186.044 125.334 185.534C124.681 185.024 124.566 184.081 125.075 183.428L131.932 174.645L130.138 167.785C121.719 171.025 112.279 172.888 102.284 173.12C101.574 173.14 100.854 173.15 100.134 173.15C99.4138 173.15 98.6934 173.15 97.9834 173.12C86.6431 172.856 76.0167 170.495 66.7861 166.404L64.4707 172.145L69.5898 179.796C70.0504 180.484 69.866 181.416 69.1777 181.877C68.4894 182.337 67.5573 182.153 67.0967 181.465L62.835 175.096L57.8613 183.167C57.4267 183.872 56.502 184.091 55.7969 183.657C55.0922 183.223 54.8727 182.299 55.3066 181.594L59.5811 174.656L52.2637 176.467L52.1123 176.496C51.36 176.602 50.6337 176.124 50.4473 175.37C50.2487 174.566 50.7394 173.753 51.543 173.554L61.6787 171.048L64.0664 165.129C55.9351 161.1 49.0129 155.673 43.8135 149.12C43.8135 149.12 43.8135 149.12 43.8135 149.11C37.2235 140.8 33.4033 130.67 33.4033 119.29C33.4033 110.213 35.835 101.629 40.1621 93.9941C32.7404 87.4751 28.9777 79.8475 31.9033 66.2246C35.0672 51.4922 42.9039 42.1195 54.1768 35.6455C58.6131 34.0298 62.9057 34.69 64.5527 38.752C72.1547 26.0349 85.2595 18.0002 100.153 18Z"/>
</mask>
<path d="M100.153 18C115.316 18 128.621 26.3282 136.153 39.4463C137.578 34.7684 142.097 33.9417 146.775 35.6455C158.048 42.1195 165.884 51.4924 169.048 66.2246C172.07 80.2966 167.956 87.9719 160.044 94.6357C164.365 102.143 166.894 110.52 166.894 119.29H166.864C166.864 130.67 163.044 140.8 156.454 149.11C150.572 156.528 142.486 162.502 132.938 166.64L134.739 173.524L141.212 173.759C142.039 173.789 142.687 174.485 142.657 175.312C142.627 176.14 141.931 176.787 141.104 176.757L135.598 176.558L137.381 182.615C137.615 183.41 137.16 184.243 136.365 184.478C135.571 184.711 134.737 184.256 134.503 183.462L132.957 178.207L127.44 185.274C126.931 185.927 125.987 186.044 125.334 185.534C124.681 185.024 124.566 184.081 125.075 183.428L131.932 174.645L130.138 167.785C121.719 171.025 112.279 172.888 102.284 173.12C101.574 173.14 100.854 173.15 100.134 173.15C99.4138 173.15 98.6934 173.15 97.9834 173.12C86.6431 172.856 76.0167 170.495 66.7861 166.404L64.4707 172.145L69.5898 179.796C70.0504 180.484 69.866 181.416 69.1777 181.877C68.4894 182.337 67.5573 182.153 67.0967 181.465L62.835 175.096L57.8613 183.167C57.4267 183.872 56.502 184.091 55.7969 183.657C55.0922 183.223 54.8727 182.299 55.3066 181.594L59.5811 174.656L52.2637 176.467L52.1123 176.496C51.36 176.602 50.6337 176.124 50.4473 175.37C50.2487 174.566 50.7394 173.753 51.543 173.554L61.6787 171.048L64.0664 165.129C55.9351 161.1 49.0129 155.673 43.8135 149.12C43.8135 149.12 43.8135 149.12 43.8135 149.11C37.2235 140.8 33.4033 130.67 33.4033 119.29C33.4033 110.213 35.835 101.629 40.1621 93.9941C32.7404 87.4751 28.9777 79.8475 31.9033 66.2246C35.0672 51.4922 42.9039 42.1195 54.1768 35.6455C58.6131 34.0298 62.9057 34.69 64.5527 38.752C72.1547 26.0349 85.2595 18.0002 100.153 18Z" fill="#276288"/>
<path d="M100.153 18V12H100.153L100.153 18ZM136.153 39.4463L130.95 42.4341C132.141 44.5088 134.451 45.6775 136.829 45.4082C139.206 45.1389 141.196 43.4831 141.893 41.1944L136.153 39.4463ZM146.775 35.6455L149.763 30.4425C149.465 30.2711 149.152 30.1256 148.829 30.0078L146.775 35.6455ZM169.048 66.2246L174.914 64.9648V64.9648L169.048 66.2246ZM160.044 94.6357L156.179 90.0465C153.957 91.9177 153.395 95.1116 154.844 97.6291L160.044 94.6357ZM166.894 119.29V125.29C170.207 125.29 172.894 122.604 172.894 119.29H166.894ZM166.864 119.29V113.29C163.551 113.29 160.864 115.976 160.864 119.29L166.864 119.29ZM156.454 149.11L151.753 145.382L151.753 145.382L156.454 149.11ZM132.938 166.64L130.552 161.134C127.836 162.312 126.385 165.294 127.134 168.158L132.938 166.64ZM134.739 173.524L128.935 175.043C129.605 177.605 131.875 179.425 134.522 179.52L134.739 173.524ZM141.212 173.759L141.43 167.763L141.429 167.763L141.212 173.759ZM142.657 175.312L148.653 175.531L148.653 175.528L142.657 175.312ZM141.104 176.757L140.887 182.753L140.888 182.753L141.104 176.757ZM135.598 176.558L135.815 170.562C133.886 170.492 132.042 171.354 130.859 172.877C129.675 174.401 129.297 176.401 129.842 178.252L135.598 176.558ZM137.381 182.615L143.137 180.921L143.137 180.921L137.381 182.615ZM136.365 184.478L138.058 190.234L138.061 190.233L136.365 184.478ZM134.503 183.462L128.747 185.155L128.747 185.156L134.503 183.462ZM132.957 178.207L138.713 176.514C138.078 174.356 136.29 172.734 134.08 172.313C131.871 171.892 129.611 172.742 128.227 174.515L132.957 178.207ZM127.44 185.274L132.169 188.968L132.17 188.966L127.44 185.274ZM125.334 185.534L121.64 190.262L121.642 190.264L125.334 185.534ZM125.075 183.428L129.805 187.12L129.805 187.12L125.075 183.428ZM131.932 174.645L136.661 178.337C137.812 176.862 138.21 174.936 137.736 173.126L131.932 174.645ZM130.138 167.785L135.942 166.267C135.51 164.615 134.395 163.225 132.875 162.446C131.356 161.667 129.576 161.572 127.983 162.185L130.138 167.785ZM102.284 173.12L102.145 167.122C102.135 167.122 102.125 167.122 102.115 167.122L102.284 173.12ZM100.134 173.15V179.15V173.15ZM97.9834 173.12L98.2367 167.125C98.1988 167.124 98.1609 167.123 98.123 167.122L97.9834 173.12ZM66.7861 166.404L69.2171 160.919C67.7302 160.26 66.0394 160.233 64.5321 160.844C63.0248 161.455 61.8302 162.651 61.2218 164.16L66.7861 166.404ZM64.4707 172.145L58.9063 169.9C58.1636 171.741 58.3799 173.831 59.4839 175.481L64.4707 172.145ZM69.5898 179.796L74.5767 176.46L74.5767 176.459L69.5898 179.796ZM69.1777 181.877L72.5115 186.866L72.5154 186.863L69.1777 181.877ZM67.0967 181.465L62.11 184.802L62.1109 184.803L67.0967 181.465ZM62.835 175.096L67.8216 171.759C66.6858 170.062 64.7646 169.059 62.7226 169.097C60.6806 169.135 58.7983 170.209 57.7269 171.948L62.835 175.096ZM57.8613 183.167L62.9687 186.316L62.9694 186.315L57.8613 183.167ZM55.7969 183.657L52.6472 188.764L52.6507 188.766L55.7969 183.657ZM55.3066 181.594L50.1984 178.446L50.1971 178.448L55.3066 181.594ZM59.5811 174.656L64.6893 177.804C65.9676 175.729 65.8641 173.087 64.4272 171.119C62.9903 169.15 60.5056 168.247 58.1399 168.832L59.5811 174.656ZM52.2637 176.467L53.4038 182.357C53.5047 182.338 53.6051 182.316 53.7048 182.291L52.2637 176.467ZM52.1123 176.496L52.9523 182.437C53.0528 182.423 53.1528 182.406 53.2524 182.387L52.1123 176.496ZM50.4473 175.37L44.6224 176.809L44.6229 176.811L50.4473 175.37ZM51.543 173.554L50.1029 167.729L50.0993 167.73L51.543 173.554ZM61.6787 171.048L63.1187 176.872C64.9884 176.41 66.5225 175.079 67.243 173.292L61.6787 171.048ZM64.0664 165.129L69.6307 167.374C70.8038 164.466 69.5399 161.145 66.7302 159.753L64.0664 165.129ZM43.8135 149.12L48.5135 145.391C46.9269 143.391 44.249 142.614 41.8387 143.454C39.4284 144.295 37.8135 146.568 37.8135 149.12H43.8135ZM43.8135 149.11H49.8135C49.8135 147.757 49.3557 146.443 48.5147 145.382L43.8135 149.11ZM33.4033 119.29H27.4033V119.29L33.4033 119.29ZM40.1621 93.9941L45.382 96.9526C46.7837 94.4795 46.2575 91.3622 44.1218 89.4862L40.1621 93.9941ZM31.9033 66.2246L26.0371 64.9648L26.0371 64.9648L31.9033 66.2246ZM54.1768 35.6455L52.1235 30.0078C51.8 30.1256 51.4872 30.271 51.1887 30.4425L54.1768 35.6455ZM64.5527 38.752L58.9924 41.0065C59.8477 43.1159 61.823 44.5597 64.0925 44.7343C66.362 44.9089 68.5348 43.7842 69.7027 41.8305L64.5527 38.752ZM100.153 18V24C113 24 124.401 31.0285 130.95 42.4341L136.153 39.4463L141.357 36.4585C132.84 21.6278 117.633 12 100.153 12V18ZM136.153 39.4463L141.893 41.1944C142.001 40.8399 142.092 40.7876 142.034 40.8469C141.973 40.9088 141.926 40.9128 141.998 40.8907C142.243 40.8158 143.144 40.7084 144.722 41.2832L146.775 35.6455L148.829 30.0078C145.729 28.8787 142.031 28.3328 138.491 29.4147C134.621 30.5973 131.687 33.5165 130.414 37.6981L136.153 39.4463ZM146.775 35.6455L143.787 40.8485C153.703 46.5433 160.402 54.5438 163.182 67.4845L169.048 66.2246L174.914 64.9648C171.365 48.441 162.393 37.6957 149.763 30.4425L146.775 35.6455ZM169.048 66.2246L163.182 67.4844C164.528 73.7519 164.16 77.9884 163.007 81.1585C161.851 84.3391 159.667 87.1092 156.179 90.0465L160.044 94.6357L163.909 99.225C168.334 95.4985 172.162 91.099 174.285 85.258C176.412 79.4064 176.59 72.7694 174.914 64.9648L169.048 66.2246ZM160.044 94.6357L154.844 97.6291C158.707 104.34 160.894 111.695 160.894 119.29H166.894H172.894C172.894 109.345 170.024 99.9458 165.244 91.6424L160.044 94.6357ZM166.894 119.29V113.29H166.864V119.29V125.29H166.894V119.29ZM166.864 119.29L160.864 119.29C160.864 129.258 157.539 138.086 151.753 145.382L156.454 149.11L161.155 152.838C168.549 143.514 172.864 132.082 172.864 119.29L166.864 119.29ZM156.454 149.11L151.753 145.382C146.56 151.931 139.312 157.338 130.552 161.134L132.938 166.64L135.324 172.145C145.66 167.665 154.585 161.125 161.155 152.838L156.454 149.11ZM132.938 166.64L127.134 168.158L128.935 175.043L134.739 173.524L140.544 172.006L138.743 165.121L132.938 166.64ZM134.739 173.524L134.522 179.52L140.995 179.755L141.212 173.759L141.429 167.763L134.956 167.528L134.739 173.524ZM141.212 173.759L140.993 179.755C138.512 179.664 136.572 177.581 136.661 175.097L142.657 175.312L148.653 175.528C148.802 171.389 145.567 167.914 141.43 167.763L141.212 173.759ZM142.657 175.312L136.661 175.094C136.752 172.606 138.841 170.672 141.319 170.761L141.104 176.757L140.888 182.753C145.021 182.901 148.502 179.673 148.653 175.531L142.657 175.312ZM141.104 176.757L141.32 170.761L135.815 170.562L135.598 176.558L135.381 182.554L140.887 182.753L141.104 176.757ZM135.598 176.558L129.842 178.252L131.625 184.31L137.381 182.615L143.137 180.921L141.353 174.863L135.598 176.558ZM137.381 182.615L131.625 184.309C130.922 181.921 132.29 179.423 134.669 178.722L136.365 184.478L138.061 190.233C142.029 189.064 144.307 184.898 143.137 180.921L137.381 182.615ZM136.365 184.478L134.673 178.721C137.056 178.021 139.557 179.383 140.259 181.768L134.503 183.462L128.747 185.156C129.917 189.13 134.085 191.402 138.058 190.234L136.365 184.478ZM134.503 183.462L140.259 181.769L138.713 176.514L132.957 178.207L127.201 179.9L128.747 185.155L134.503 183.462ZM132.957 178.207L128.227 174.515L122.711 181.583L127.44 185.274L132.17 188.966L137.687 181.899L132.957 178.207ZM127.44 185.274L122.712 181.581C124.239 179.626 127.064 179.273 129.026 180.805L125.334 185.534L121.642 190.264C124.91 192.815 129.622 192.228 132.169 188.968L127.44 185.274ZM125.334 185.534L129.028 180.806C130.987 182.337 131.333 185.163 129.805 187.12L125.075 183.428L120.346 179.735C117.798 182.998 118.376 187.712 121.64 190.262L125.334 185.534ZM125.075 183.428L129.805 187.12L136.661 178.337L131.932 174.645L127.202 170.952L120.346 179.736L125.075 183.428ZM131.932 174.645L137.736 173.126L135.942 166.267L130.138 167.785L124.333 169.303L126.127 176.163L131.932 174.645ZM130.138 167.785L127.983 162.185C120.243 165.164 111.488 166.904 102.145 167.122L102.284 173.12L102.424 179.118C113.07 178.871 123.195 176.886 132.293 173.385L130.138 167.785ZM102.284 173.12L102.115 167.122C101.461 167.141 100.797 167.15 100.134 167.15V173.15V179.15C100.91 179.15 101.687 179.139 102.453 179.118L102.284 173.12ZM100.134 173.15V167.15C99.3937 167.15 98.7993 167.149 98.2367 167.125L97.9834 173.12L97.7301 179.115C98.5875 179.151 99.4339 179.15 100.134 179.15V173.15ZM97.9834 173.12L98.123 167.122C87.5189 166.875 77.6775 164.668 69.2171 160.919L66.7861 166.404L64.3552 171.89C74.356 176.322 85.7672 178.837 97.8438 179.118L97.9834 173.12ZM66.7861 166.404L61.2218 164.16L58.9063 169.9L64.4707 172.145L70.0351 174.389L72.3505 168.649L66.7861 166.404ZM64.4707 172.145L59.4839 175.481L64.603 183.132L69.5898 179.796L74.5767 176.459L69.4575 168.808L64.4707 172.145ZM69.5898 179.796L64.603 183.132C63.2223 181.069 63.7736 178.274 65.84 176.891L69.1777 181.877L72.5154 186.863C75.9584 184.558 76.8785 179.9 74.5767 176.46L69.5898 179.796ZM69.1777 181.877L65.8439 176.888C67.9044 175.511 70.6975 176.058 72.0824 178.127L67.0967 181.465L62.1109 184.803C64.4171 188.247 69.0744 189.163 72.5115 186.866L69.1777 181.877ZM67.0967 181.465L72.0833 178.128L67.8216 171.759L62.835 175.096L57.8483 178.432L62.11 184.802L67.0967 181.465ZM62.835 175.096L57.7269 171.948L52.7533 180.019L57.8613 183.167L62.9694 186.315L67.943 178.243L62.835 175.096ZM57.8613 183.167L52.754 180.018C54.058 177.903 56.8281 177.246 58.9431 178.548L55.7969 183.657L52.6507 188.766C56.1759 190.937 60.7954 189.841 62.9687 186.316L57.8613 183.167ZM55.7969 183.657L58.9466 178.55C61.0596 179.854 61.7188 182.623 60.4162 184.739L55.3066 181.594L50.1971 178.448C48.0265 181.975 49.1248 186.592 52.6472 188.764L55.7969 183.657ZM55.3066 181.594L60.4149 184.741L64.6893 177.804L59.5811 174.656L54.4728 171.509L50.1984 178.446L55.3066 181.594ZM59.5811 174.656L58.1399 168.832L50.8225 170.642L52.2637 176.467L53.7048 182.291L61.0222 180.481L59.5811 174.656ZM52.2637 176.467L51.1235 170.576L50.9722 170.605L52.1123 176.496L53.2524 182.387L53.4038 182.357L52.2637 176.467ZM52.1123 176.496L51.2723 170.555C53.5363 170.235 55.7118 171.666 56.2717 173.929L50.4473 175.37L44.6229 176.811C45.5556 180.581 49.1838 182.97 52.9523 182.437L52.1123 176.496ZM50.4473 175.37L56.2722 173.931C56.8678 176.342 55.3977 178.78 52.9867 179.377L51.543 173.554L50.0993 167.73C46.0811 168.726 43.6296 172.79 44.6224 176.809L50.4473 175.37ZM51.543 173.554L52.983 179.378L63.1187 176.872L61.6787 171.048L60.2387 165.223L50.1029 167.729L51.543 173.554ZM61.6787 171.048L67.243 173.292L69.6307 167.374L64.0664 165.129L58.5021 162.884L56.1144 168.803L61.6787 171.048ZM64.0664 165.129L66.7302 159.753C59.2991 156.071 53.1036 151.175 48.5135 145.391L43.8135 149.12L39.1134 152.85C44.9222 160.17 52.5712 166.129 61.4026 170.505L64.0664 165.129ZM43.8135 149.12C49.8135 149.12 49.8135 149.12 49.8135 149.12C49.8135 149.12 49.8135 149.12 49.8135 149.12V149.12C49.8135 149.12 49.8135 149.12 49.8135 149.12C49.8135 149.12 49.8135 149.12 49.8135 149.12C49.8135 149.12 49.8135 149.12 49.8135 149.12C49.8135 149.12 49.8135 149.12 49.8135 149.12C49.8135 149.12 49.8135 149.12 49.8135 149.12C49.8135 149.12 49.8135 149.12 49.8135 149.12C49.8135 149.12 49.8135 149.12 49.8135 149.12C49.8135 149.12 49.8135 149.12 49.8135 149.12C49.8135 149.12 49.8135 149.12 49.8135 149.12C49.8135 149.12 49.8135 149.12 49.8135 149.12C49.8135 149.12 49.8135 149.12 49.8135 149.12C49.8135 149.12 49.8135 149.12 49.8135 149.12C49.8135 149.12 49.8135 149.12 49.8135 149.12V149.12V149.12V149.12V149.12V149.12C49.8135 149.12 49.8135 149.12 49.8135 149.12C49.8135 149.12 49.8135 149.12 49.8135 149.12C49.8135 149.12 49.8135 149.12 49.8135 149.12C49.8135 149.12 49.8135 149.12 49.8135 149.12C49.8135 149.12 49.8135 149.12 49.8135 149.12V149.12C49.8135 149.12 49.8135 149.12 49.8135 149.12C49.8135 149.12 49.8135 149.12 49.8135 149.12C49.8135 149.12 49.8135 149.12 49.8135 149.12V149.12V149.12V149.12V149.12V149.12C49.8135 149.12 49.8135 149.12 49.8135 149.12C49.8135 149.12 49.8135 149.12 49.8135 149.12C49.8135 149.12 49.8135 149.12 49.8135 149.12C49.8135 149.12 49.8135 149.12 49.8135 149.12V149.12C49.8135 149.12 49.8135 149.12 49.8135 149.12C49.8135 149.119 49.8135 149.119 49.8135 149.119C49.8135 149.119 49.8135 149.119 49.8135 149.119V149.119C49.8135 149.119 49.8135 149.119 49.8135 149.119V149.119C49.8135 149.119 49.8135 149.119 49.8135 149.119C49.8135 149.119 49.8135 149.119 49.8135 149.119C49.8135 149.119 49.8135 149.119 49.8135 149.119C49.8135 149.119 49.8135 149.119 49.8135 149.119C49.8135 149.119 49.8135 149.119 49.8135 149.119C49.8135 149.119 49.8135 149.119 49.8135 149.119C49.8135 149.119 49.8135 149.119 49.8135 149.119C49.8135 149.119 49.8135 149.119 49.8135 149.119C49.8135 149.119 49.8135 149.119 49.8135 149.119V149.119C49.8135 149.119 49.8135 149.119 49.8135 149.119C49.8135 149.119 49.8135 149.119 49.8135 149.119V149.119C49.8135 149.119 49.8135 149.119 49.8135 149.119C49.8135 149.119 49.8135 149.119 49.8135 149.119V149.119C49.8135 149.119 49.8135 149.119 49.8135 149.119C49.8135 149.119 49.8135 149.119 49.8135 149.119V149.119C49.8135 149.119 49.8135 149.119 49.8135 149.119C49.8135 149.119 49.8135 149.119 49.8135 149.119C49.8135 149.119 49.8135 149.119 49.8135 149.119V149.119V149.119C49.8135 149.119 49.8135 149.119 49.8135 149.119C49.8135 149.119 49.8135 149.119 49.8135 149.119C49.8135 149.119 49.8135 149.119 49.8135 149.119C49.8135 149.119 49.8135 149.119 49.8135 149.119V149.119V149.119C49.8135 149.119 49.8135 149.119 49.8135 149.119C49.8135 149.119 49.8135 149.119 49.8135 149.119C49.8135 149.119 49.8135 149.119 49.8135 149.119C49.8135 149.119 49.8135 149.119 49.8135 149.119C49.8135 149.119 49.8135 149.119 49.8135 149.119C49.8135 149.119 49.8135 149.119 49.8135 149.119C49.8135 149.119 49.8135 149.119 49.8135 149.119V149.119V149.119V149.119V149.119V149.119V149.119V149.119V149.119V149.119V149.119V149.119V149.119V149.119V149.119V149.119V149.119C49.8135 149.119 49.8135 149.119 49.8135 149.119C49.8135 149.119 49.8135 149.119 49.8135 149.119C49.8135 149.119 49.8135 149.119 49.8135 149.119C49.8135 149.119 49.8135 149.119 49.8135 149.119C49.8135 149.119 49.8135 149.119 49.8135 149.119C49.8135 149.119 49.8135 149.119 49.8135 149.119C49.8135 149.119 49.8135 149.119 49.8135 149.118V149.118V149.118V149.118C49.8135 149.118 49.8135 149.118 49.8135 149.118C49.8135 149.118 49.8135 149.118 49.8135 149.118C49.8135 149.118 49.8135 149.118 49.8135 149.118C49.8135 149.118 49.8135 149.118 49.8135 149.118V149.118V149.118C49.8135 149.118 49.8135 149.118 49.8135 149.118C49.8135 149.118 49.8135 149.118 49.8135 149.118C49.8135 149.118 49.8135 149.118 49.8135 149.118V149.118V149.118C49.8135 149.118 49.8135 149.118 49.8135 149.118C49.8135 149.118 49.8135 149.118 49.8135 149.118V149.118V149.118C49.8135 149.118 49.8135 149.118 49.8135 149.118C49.8135 149.118 49.8135 149.118 49.8135 149.118V149.118V149.118C49.8135 149.118 49.8135 149.118 49.8135 149.118C49.8135 149.118 49.8135 149.118 49.8135 149.118V149.118C49.8135 149.118 49.8135 149.118 49.8135 149.118C49.8135 149.118 49.8135 149.118 49.8135 149.118V149.118C49.8135 149.118 49.8135 149.118 49.8135 149.118C49.8135 149.118 49.8135 149.118 49.8135 149.118V149.118C49.8135 149.118 49.8135 149.118 49.8135 149.118V149.118C49.8135 149.118 49.8135 149.118 49.8135 149.118C49.8135 149.118 49.8135 149.118 49.8135 149.118V149.118C49.8135 149.118 49.8135 149.118 49.8135 149.118V149.118C49.8135 149.118 49.8135 149.118 49.8135 149.118V149.118V149.118C49.8135 149.118 49.8135 149.118 49.8135 149.118V149.118C49.8135 149.118 49.8135 149.118 49.8135 149.118V149.118C49.8135 149.118 49.8135 149.118 49.8135 149.118V149.118C49.8135 149.118 49.8135 149.118 49.8135 149.118V149.118C49.8135 149.118 49.8135 149.118 49.8135 149.117C49.8135 149.117 49.8135 149.117 49.8135 149.117V149.117C49.8135 149.117 49.8135 149.117 49.8135 149.117V149.117C49.8135 149.117 49.8135 149.117 49.8135 149.117V149.117C49.8135 149.117 49.8135 149.117 49.8135 149.117C49.8135 149.117 49.8135 149.117 49.8135 149.117V149.117C49.8135 149.117 49.8135 149.117 49.8135 149.117V149.117C49.8135 149.117 49.8135 149.117 49.8135 149.117C49.8135 149.117 49.8135 149.117 49.8135 149.117V149.117C49.8135 149.117 49.8135 149.117 49.8135 149.117C49.8135 149.117 49.8135 149.117 49.8135 149.117C49.8135 149.117 49.8135 149.117 49.8135 149.117V149.117C49.8135 149.117 49.8135 149.117 49.8135 149.117C49.8135 149.117 49.8135 149.117 49.8135 149.117V149.117C49.8135 149.117 49.8135 149.117 49.8135 149.117C49.8135 149.117 49.8135 149.117 49.8135 149.117C49.8135 149.117 49.8135 149.117 49.8135 149.117V149.117C49.8135 149.117 49.8135 149.117 49.8135 149.117C49.8135 149.117 49.8135 149.117 49.8135 149.117C49.8135 149.117 49.8135 149.117 49.8135 149.117C49.8135 149.117 49.8135 149.117 49.8135 149.117V149.117C49.8135 149.117 49.8135 149.117 49.8135 149.117C49.8135 149.117 49.8135 149.117 49.8135 149.117C49.8135 149.117 49.8135 149.117 49.8135 149.117C49.8135 149.117 49.8135 149.117 49.8135 149.117C49.8135 149.117 49.8135 149.117 49.8135 149.117C49.8135 149.117 49.8135 149.117 49.8135 149.117C49.8135 149.117 49.8135 149.117 49.8135 149.117V149.117C49.8135 149.116 49.8135 149.116 49.8135 149.116C49.8135 149.116 49.8135 149.116 49.8135 149.116C49.8135 149.116 49.8135 149.116 49.8135 149.116C49.8135 149.116 49.8135 149.116 49.8135 149.116C49.8135 149.116 49.8135 149.116 49.8135 149.116C49.8135 149.116 49.8135 149.116 49.8135 149.116C49.8135 149.116 49.8135 149.116 49.8135 149.116C49.8135 149.116 49.8135 149.116 49.8135 149.116C49.8135 149.116 49.8135 149.116 49.8135 149.116C49.8135 149.116 49.8135 149.116 49.8135 149.116C49.8135 149.116 49.8135 149.116 49.8135 149.116C49.8135 149.116 49.8135 149.116 49.8135 149.116C49.8135 149.116 49.8135 149.116 49.8135 149.116C49.8135 149.116 49.8135 149.116 49.8135 149.116C49.8135 149.116 49.8135 149.116 49.8135 149.116C49.8135 149.116 49.8135 149.116 49.8135 149.116C49.8135 149.116 49.8135 149.116 49.8135 149.116C49.8135 149.116 49.8135 149.116 49.8135 149.116C49.8135 149.116 49.8135 149.116 49.8135 149.116C49.8135 149.116 49.8135 149.116 49.8135 149.116C49.8135 149.116 49.8135 149.116 49.8135 149.116C49.8135 149.116 49.8135 149.116 49.8135 149.116C49.8135 149.116 49.8135 149.116 49.8135 149.116C49.8135 149.116 49.8135 149.116 49.8135 149.116C49.8135 149.116 49.8135 149.116 49.8135 149.116C49.8135 149.116 49.8135 149.116 49.8135 149.116C49.8135 149.116 49.8135 149.116 49.8135 149.116C49.8135 149.116 49.8135 149.116 49.8135 149.116C49.8135 149.116 49.8135 149.116 49.8135 149.116C49.8135 149.116 49.8135 149.116 49.8135 149.116C49.8135 149.116 49.8135 149.116 49.8135 149.116C49.8135 149.116 49.8135 149.115 49.8135 149.115C49.8135 149.115 49.8135 149.115 49.8135 149.115C49.8135 149.115 49.8135 149.115 49.8135 149.115C49.8135 149.115 49.8135 149.115 49.8135 149.115C49.8135 149.115 49.8135 149.115 49.8135 149.115C49.8135 149.115 49.8135 149.115 49.8135 149.115C49.8135 149.115 49.8135 149.115 49.8135 149.115C49.8135 149.115 49.8135 149.115 49.8135 149.115C49.8135 149.115 49.8135 149.115 49.8135 149.115C49.8135 149.115 49.8135 149.115 49.8135 149.115C49.8135 149.115 49.8135 149.115 49.8135 149.115C49.8135 149.115 49.8135 149.115 49.8135 149.115C49.8135 149.115 49.8135 149.115 49.8135 149.115C49.8135 149.115 49.8135 149.115 49.8135 149.115C49.8135 149.115 49.8135 149.115 49.8135 149.115C49.8135 149.115 49.8135 149.115 49.8135 149.115C49.8135 149.115 49.8135 149.115 49.8135 149.115C49.8135 149.115 49.8135 149.115 49.8135 149.115C49.8135 149.115 49.8135 149.115 49.8135 149.115C49.8135 149.115 49.8135 149.115 49.8135 149.115C49.8135 149.115 49.8135 149.115 49.8135 149.115C49.8135 149.115 49.8135 149.115 49.8135 149.115C49.8135 149.115 49.8135 149.115 49.8135 149.115C49.8135 149.115 49.8135 149.115 49.8135 149.115C49.8135 149.115 49.8135 149.115 49.8135 149.115C49.8135 149.115 49.8135 149.115 49.8135 149.115C49.8135 149.115 49.8135 149.115 49.8135 149.115C49.8135 149.115 49.8135 149.115 49.8135 149.114C49.8135 149.114 49.8135 149.114 49.8135 149.114C49.8135 149.114 49.8135 149.114 49.8135 149.114C49.8135 149.114 49.8135 149.114 49.8135 149.114C49.8135 149.114 49.8135 149.114 49.8135 149.114C49.8135 149.114 49.8135 149.114 49.8135 149.114C49.8135 149.114 49.8135 149.114 49.8135 149.114C49.8135 149.114 49.8135 149.114 49.8135 149.114C49.8135 149.114 49.8135 149.114 49.8135 149.114C49.8135 149.114 49.8135 149.114 49.8135 149.114C49.8135 149.114 49.8135 149.114 49.8135 149.114C49.8135 149.114 49.8135 149.114 49.8135 149.114C49.8135 149.114 49.8135 149.114 49.8135 149.114C49.8135 149.114 49.8135 149.114 49.8135 149.114C49.8135 149.114 49.8135 149.114 49.8135 149.114C49.8135 149.114 49.8135 149.114 49.8135 149.114C49.8135 149.114 49.8135 149.114 49.8135 149.114C49.8135 149.114 49.8135 149.114 49.8135 149.114C49.8135 149.114 49.8135 149.114 49.8135 149.114C49.8135 149.114 49.8135 149.114 49.8135 149.114C49.8135 149.114 49.8135 149.114 49.8135 149.114C49.8135 149.114 49.8135 149.114 49.8135 149.114C49.8135 149.114 49.8135 149.114 49.8135 149.114C49.8135 149.114 49.8135 149.114 49.8135 149.114C49.8135 149.114 49.8135 149.114 49.8135 149.113C49.8135 149.113 49.8135 149.113 49.8135 149.113C49.8135 149.113 49.8135 149.113 49.8135 149.113C49.8135 149.113 49.8135 149.113 49.8135 149.113C49.8135 149.113 49.8135 149.113 49.8135 149.113C49.8135 149.113 49.8135 149.113 49.8135 149.113C49.8135 149.113 49.8135 149.113 49.8135 149.113C49.8135 149.113 49.8135 149.113 49.8135 149.113C49.8135 149.113 49.8135 149.113 49.8135 149.113C49.8135 149.113 49.8135 149.113 49.8135 149.113C49.8135 149.113 49.8135 149.113 49.8135 149.113C49.8135 149.113 49.8135 149.113 49.8135 149.113C49.8135 149.113 49.8135 149.113 49.8135 149.113C49.8135 149.113 49.8135 149.113 49.8135 149.113C49.8135 149.113 49.8135 149.113 49.8135 149.113C49.8135 149.113 49.8135 149.113 49.8135 149.113C49.8135 149.113 49.8135 149.113 49.8135 149.113C49.8135 149.113 49.8135 149.113 49.8135 149.113C49.8135 149.113 49.8135 149.113 49.8135 149.113C49.8135 149.113 49.8135 149.113 49.8135 149.113C49.8135 149.113 49.8135 149.113 49.8135 149.113C49.8135 149.113 49.8135 149.113 49.8135 149.113C49.8135 149.113 49.8135 149.113 49.8135 149.112C49.8135 149.112 49.8135 149.112 49.8135 149.112C49.8135 149.112 49.8135 149.112 49.8135 149.112C49.8135 149.112 49.8135 149.112 49.8135 149.112C49.8135 149.112 49.8135 149.112 49.8135 149.112C49.8135 149.112 49.8135 149.112 49.8135 149.112C49.8135 149.112 49.8135 149.112 49.8135 149.112C49.8135 149.112 49.8135 149.112 49.8135 149.112C49.8135 149.112 49.8135 149.112 49.8135 149.112C49.8135 149.112 49.8135 149.112 49.8135 149.112C49.8135 149.112 49.8135 149.112 49.8135 149.112C49.8135 149.112 49.8135 149.112 49.8135 149.112C49.8135 149.112 49.8135 149.112 49.8135 149.112C49.8135 149.112 49.8135 149.112 49.8135 149.112C49.8135 149.112 49.8135 149.112 49.8135 149.112C49.8135 149.112 49.8135 149.112 49.8135 149.112C49.8135 149.112 49.8135 149.112 49.8135 149.112C49.8135 149.112 49.8135 149.112 49.8135 149.112C49.8135 149.112 49.8135 149.112 49.8135 149.112C49.8135 149.112 49.8135 149.112 49.8135 149.112C49.8135 149.112 49.8135 149.112 49.8135 149.111C49.8135 149.111 49.8135 149.111 49.8135 149.111C49.8135 149.111 49.8135 149.111 49.8135 149.111C49.8135 149.111 49.8135 149.111 49.8135 149.111C49.8135 149.111 49.8135 149.111 49.8135 149.111C49.8135 149.111 49.8135 149.111 49.8135 149.111C49.8135 149.111 49.8135 149.111 49.8135 149.111C49.8135 149.111 49.8135 149.111 49.8135 149.111C49.8135 149.111 49.8135 149.111 49.8135 149.111C49.8135 149.111 49.8135 149.111 49.8135 149.111C49.8135 149.111 49.8135 149.111 49.8135 149.111C49.8135 149.111 49.8135 149.111 49.8135 149.111C49.8135 149.111 49.8135 149.111 49.8135 149.111C49.8135 149.111 49.8135 149.111 49.8135 149.111C49.8135 149.111 49.8135 149.111 49.8135 149.111C49.8135 149.111 49.8135 149.111 49.8135 149.111C49.8135 149.111 49.8135 149.111 49.8135 149.111C49.8135 149.111 49.8135 149.111 49.8135 149.111C49.8135 149.111 49.8135 149.111 49.8135 149.111C49.8135 149.111 49.8135 149.11 49.8135 149.11C49.8135 149.11 49.8135 149.11 49.8135 149.11C49.8135 149.11 49.8135 149.11 49.8135 149.11H43.8135H37.8135C37.8135 149.11 37.8135 149.11 37.8135 149.11C37.8135 149.11 37.8135 149.11 37.8135 149.11C37.8135 149.11 37.8135 149.111 37.8135 149.111C37.8135 149.111 37.8135 149.111 37.8135 149.111C37.8135 149.111 37.8135 149.111 37.8135 149.111C37.8135 149.111 37.8135 149.111 37.8135 149.111C37.8135 149.111 37.8135 149.111 37.8135 149.111C37.8135 149.111 37.8135 149.111 37.8135 149.111C37.8135 149.111 37.8135 149.111 37.8135 149.111C37.8135 149.111 37.8135 149.111 37.8135 149.111C37.8135 149.111 37.8135 149.111 37.8135 149.111C37.8135 149.111 37.8135 149.111 37.8135 149.111C37.8135 149.111 37.8135 149.111 37.8135 149.111C37.8135 149.111 37.8135 149.111 37.8135 149.111C37.8135 149.111 37.8135 149.111 37.8135 149.111C37.8135 149.111 37.8135 149.111 37.8135 149.111C37.8135 149.111 37.8135 149.111 37.8135 149.111C37.8135 149.111 37.8135 149.111 37.8135 149.111C37.8135 149.111 37.8135 149.111 37.8135 149.111C37.8135 149.111 37.8135 149.111 37.8135 149.111C37.8135 149.111 37.8135 149.111 37.8135 149.111C37.8135 149.112 37.8135 149.112 37.8135 149.112C37.8135 149.112 37.8135 149.112 37.8135 149.112C37.8135 149.112 37.8135 149.112 37.8135 149.112C37.8135 149.112 37.8135 149.112 37.8135 149.112C37.8135 149.112 37.8135 149.112 37.8135 149.112C37.8135 149.112 37.8135 149.112 37.8135 149.112C37.8135 149.112 37.8135 149.112 37.8135 149.112C37.8135 149.112 37.8135 149.112 37.8135 149.112C37.8135 149.112 37.8135 149.112 37.8135 149.112C37.8135 149.112 37.8135 149.112 37.8135 149.112C37.8135 149.112 37.8135 149.112 37.8135 149.112C37.8135 149.112 37.8135 149.112 37.8135 149.112C37.8135 149.112 37.8135 149.112 37.8135 149.112C37.8135 149.112 37.8135 149.112 37.8135 149.112C37.8135 149.112 37.8135 149.112 37.8135 149.112C37.8135 149.112 37.8135 149.112 37.8135 149.112C37.8135 149.112 37.8135 149.112 37.8135 149.112C37.8135 149.112 37.8135 149.112 37.8135 149.112C37.8135 149.112 37.8135 149.112 37.8135 149.112C37.8135 149.112 37.8135 149.112 37.8135 149.112C37.8135 149.113 37.8135 149.113 37.8135 149.113C37.8135 149.113 37.8135 149.113 37.8135 149.113C37.8135 149.113 37.8135 149.113 37.8135 149.113C37.8135 149.113 37.8135 149.113 37.8135 149.113C37.8135 149.113 37.8135 149.113 37.8135 149.113C37.8135 149.113 37.8135 149.113 37.8135 149.113C37.8135 149.113 37.8135 149.113 37.8135 149.113C37.8135 149.113 37.8135 149.113 37.8135 149.113C37.8135 149.113 37.8135 149.113 37.8135 149.113C37.8135 149.113 37.8135 149.113 37.8135 149.113C37.8135 149.113 37.8135 149.113 37.8135 149.113C37.8135 149.113 37.8135 149.113 37.8135 149.113C37.8135 149.113 37.8135 149.113 37.8135 149.113C37.8135 149.113 37.8135 149.113 37.8135 149.113C37.8135 149.113 37.8135 149.113 37.8135 149.113C37.8135 149.113 37.8135 149.113 37.8135 149.113C37.8135 149.113 37.8135 149.113 37.8135 149.113C37.8135 149.113 37.8135 149.113 37.8135 149.113C37.8135 149.113 37.8135 149.113 37.8135 149.113C37.8135 149.113 37.8135 149.113 37.8135 149.113C37.8135 149.113 37.8135 149.113 37.8135 149.113C37.8135 149.113 37.8135 149.113 37.8135 149.113C37.8135 149.114 37.8135 149.114 37.8135 149.114C37.8135 149.114 37.8135 149.114 37.8135 149.114C37.8135 149.114 37.8135 149.114 37.8135 149.114C37.8135 149.114 37.8135 149.114 37.8135 149.114C37.8135 149.114 37.8135 149.114 37.8135 149.114C37.8135 149.114 37.8135 149.114 37.8135 149.114C37.8135 149.114 37.8135 149.114 37.8135 149.114C37.8135 149.114 37.8135 149.114 37.8135 149.114C37.8135 149.114 37.8135 149.114 37.8135 149.114C37.8135 149.114 37.8135 149.114 37.8135 149.114C37.8135 149.114 37.8135 149.114 37.8135 149.114C37.8135 149.114 37.8135 149.114 37.8135 149.114C37.8135 149.114 37.8135 149.114 37.8135 149.114C37.8135 149.114 37.8135 149.114 37.8135 149.114C37.8135 149.114 37.8135 149.114 37.8135 149.114C37.8135 149.114 37.8135 149.114 37.8135 149.114C37.8135 149.114 37.8135 149.114 37.8135 149.114C37.8135 149.114 37.8135 149.114 37.8135 149.114C37.8135 149.114 37.8135 149.114 37.8135 149.114C37.8135 149.114 37.8135 149.114 37.8135 149.114C37.8135 149.114 37.8135 149.114 37.8135 149.114C37.8135 149.114 37.8135 149.114 37.8135 149.114C37.8135 149.114 37.8135 149.114 37.8135 149.114C37.8135 149.114 37.8135 149.114 37.8135 149.114C37.8135 149.115 37.8135 149.115 37.8135 149.115C37.8135 149.115 37.8135 149.115 37.8135 149.115C37.8135 149.115 37.8135 149.115 37.8135 149.115C37.8135 149.115 37.8135 149.115 37.8135 149.115C37.8135 149.115 37.8135 149.115 37.8135 149.115C37.8135 149.115 37.8135 149.115 37.8135 149.115C37.8135 149.115 37.8135 149.115 37.8135 149.115C37.8135 149.115 37.8135 149.115 37.8135 149.115C37.8135 149.115 37.8135 149.115 37.8135 149.115C37.8135 149.115 37.8135 149.115 37.8135 149.115C37.8135 149.115 37.8135 149.115 37.8135 149.115C37.8135 149.115 37.8135 149.115 37.8135 149.115C37.8135 149.115 37.8135 149.115 37.8135 149.115C37.8135 149.115 37.8135 149.115 37.8135 149.115C37.8135 149.115 37.8135 149.115 37.8135 149.115C37.8135 149.115 37.8135 149.115 37.8135 149.115C37.8135 149.115 37.8135 149.115 37.8135 149.115C37.8135 149.115 37.8135 149.115 37.8135 149.115C37.8135 149.115 37.8135 149.115 37.8135 149.115C37.8135 149.115 37.8135 149.115 37.8135 149.115C37.8135 149.115 37.8135 149.115 37.8135 149.115C37.8135 149.115 37.8135 149.115 37.8135 149.115C37.8135 149.115 37.8135 149.115 37.8135 149.115C37.8135 149.115 37.8135 149.115 37.8135 149.115C37.8135 149.115 37.8135 149.115 37.8135 149.115C37.8135 149.115 37.8135 149.115 37.8135 149.115C37.8135 149.115 37.8135 149.115 37.8135 149.115C37.8135 149.115 37.8135 149.116 37.8135 149.116C37.8135 149.116 37.8135 149.116 37.8135 149.116C37.8135 149.116 37.8135 149.116 37.8135 149.116C37.8135 149.116 37.8135 149.116 37.8135 149.116C37.8135 149.116 37.8135 149.116 37.8135 149.116C37.8135 149.116 37.8135 149.116 37.8135 149.116C37.8135 149.116 37.8135 149.116 37.8135 149.116C37.8135 149.116 37.8135 149.116 37.8135 149.116C37.8135 149.116 37.8135 149.116 37.8135 149.116C37.8135 149.116 37.8135 149.116 37.8135 149.116C37.8135 149.116 37.8135 149.116 37.8135 149.116C37.8135 149.116 37.8135 149.116 37.8135 149.116C37.8135 149.116 37.8135 149.116 37.8135 149.116C37.8135 149.116 37.8135 149.116 37.8135 149.116C37.8135 149.116 37.8135 149.116 37.8135 149.116C37.8135 149.116 37.8135 149.116 37.8135 149.116C37.8135 149.116 37.8135 149.116 37.8135 149.116C37.8135 149.116 37.8135 149.116 37.8135 149.116C37.8135 149.116 37.8135 149.116 37.8135 149.116C37.8135 149.116 37.8135 149.116 37.8135 149.116C37.8135 149.116 37.8135 149.116 37.8135 149.116C37.8135 149.116 37.8135 149.116 37.8135 149.116C37.8135 149.116 37.8135 149.116 37.8135 149.116C37.8135 149.116 37.8135 149.116 37.8135 149.116C37.8135 149.116 37.8135 149.116 37.8135 149.116C37.8135 149.116 37.8135 149.116 37.8135 149.116C37.8135 149.116 37.8135 149.116 37.8135 149.116C37.8135 149.116 37.8135 149.116 37.8135 149.116C37.8135 149.116 37.8135 149.116 37.8135 149.116C37.8135 149.116 37.8135 149.116 37.8135 149.116C37.8135 149.116 37.8135 149.116 37.8135 149.116C37.8135 149.116 37.8135 149.116 37.8135 149.117V149.117C37.8135 149.117 37.8135 149.117 37.8135 149.117C37.8135 149.117 37.8135 149.117 37.8135 149.117C37.8135 149.117 37.8135 149.117 37.8135 149.117C37.8135 149.117 37.8135 149.117 37.8135 149.117C37.8135 149.117 37.8135 149.117 37.8135 149.117C37.8135 149.117 37.8135 149.117 37.8135 149.117C37.8135 149.117 37.8135 149.117 37.8135 149.117V149.117C37.8135 149.117 37.8135 149.117 37.8135 149.117C37.8135 149.117 37.8135 149.117 37.8135 149.117C37.8135 149.117 37.8135 149.117 37.8135 149.117C37.8135 149.117 37.8135 149.117 37.8135 149.117V149.117C37.8135 149.117 37.8135 149.117 37.8135 149.117C37.8135 149.117 37.8135 149.117 37.8135 149.117C37.8135 149.117 37.8135 149.117 37.8135 149.117V149.117C37.8135 149.117 37.8135 149.117 37.8135 149.117C37.8135 149.117 37.8135 149.117 37.8135 149.117V149.117C37.8135 149.117 37.8135 149.117 37.8135 149.117C37.8135 149.117 37.8135 149.117 37.8135 149.117C37.8135 149.117 37.8135 149.117 37.8135 149.117V149.117C37.8135 149.117 37.8135 149.117 37.8135 149.117C37.8135 149.117 37.8135 149.117 37.8135 149.117V149.117C37.8135 149.117 37.8135 149.117 37.8135 149.117V149.117C37.8135 149.117 37.8135 149.117 37.8135 149.117C37.8135 149.117 37.8135 149.117 37.8135 149.117V149.117C37.8135 149.117 37.8135 149.117 37.8135 149.117V149.117C37.8135 149.117 37.8135 149.117 37.8135 149.117V149.117C37.8135 149.117 37.8135 149.117 37.8135 149.117C37.8135 149.118 37.8135 149.118 37.8135 149.118V149.118C37.8135 149.118 37.8135 149.118 37.8135 149.118V149.118C37.8135 149.118 37.8135 149.118 37.8135 149.118V149.118C37.8135 149.118 37.8135 149.118 37.8135 149.118V149.118C37.8135 149.118 37.8135 149.118 37.8135 149.118V149.118V149.118C37.8135 149.118 37.8135 149.118 37.8135 149.118V149.118C37.8135 149.118 37.8135 149.118 37.8135 149.118V149.118C37.8135 149.118 37.8135 149.118 37.8135 149.118C37.8135 149.118 37.8135 149.118 37.8135 149.118V149.118C37.8135 149.118 37.8135 149.118 37.8135 149.118V149.118C37.8135 149.118 37.8135 149.118 37.8135 149.118C37.8135 149.118 37.8135 149.118 37.8135 149.118V149.118C37.8135 149.118 37.8135 149.118 37.8135 149.118C37.8135 149.118 37.8135 149.118 37.8135 149.118V149.118C37.8135 149.118 37.8135 149.118 37.8135 149.118C37.8135 149.118 37.8135 149.118 37.8135 149.118V149.118V149.118C37.8135 149.118 37.8135 149.118 37.8135 149.118C37.8135 149.118 37.8135 149.118 37.8135 149.118V149.118V149.118C37.8135 149.118 37.8135 149.118 37.8135 149.118C37.8135 149.118 37.8135 149.118 37.8135 149.118V149.118V149.118C37.8135 149.118 37.8135 149.118 37.8135 149.118C37.8135 149.118 37.8135 149.118 37.8135 149.118C37.8135 149.118 37.8135 149.118 37.8135 149.118V149.118V149.118C37.8135 149.118 37.8135 149.118 37.8135 149.118C37.8135 149.118 37.8135 149.118 37.8135 149.118C37.8135 149.118 37.8135 149.118 37.8135 149.118C37.8135 149.118 37.8135 149.118 37.8135 149.118V149.118V149.118V149.118C37.8135 149.119 37.8135 149.119 37.8135 149.119C37.8135 149.119 37.8135 149.119 37.8135 149.119C37.8135 149.119 37.8135 149.119 37.8135 149.119C37.8135 149.119 37.8135 149.119 37.8135 149.119C37.8135 149.119 37.8135 149.119 37.8135 149.119C37.8135 149.119 37.8135 149.119 37.8135 149.119C37.8135 149.119 37.8135 149.119 37.8135 149.119V149.119V149.119V149.119V149.119V149.119V149.119V149.119V149.119V149.119V149.119V149.119V149.119V149.119V149.119V149.119V149.119C37.8135 149.119 37.8135 149.119 37.8135 149.119C37.8135 149.119 37.8135 149.119 37.8135 149.119C37.8135 149.119 37.8135 149.119 37.8135 149.119C37.8135 149.119 37.8135 149.119 37.8135 149.119C37.8135 149.119 37.8135 149.119 37.8135 149.119C37.8135 149.119 37.8135 149.119 37.8135 149.119C37.8135 149.119 37.8135 149.119 37.8135 149.119V149.119V149.119C37.8135 149.119 37.8135 149.119 37.8135 149.119C37.8135 149.119 37.8135 149.119 37.8135 149.119C37.8135 149.119 37.8135 149.119 37.8135 149.119C37.8135 149.119 37.8135 149.119 37.8135 149.119V149.119V149.119C37.8135 149.119 37.8135 149.119 37.8135 149.119C37.8135 149.119 37.8135 149.119 37.8135 149.119C37.8135 149.119 37.8135 149.119 37.8135 149.119V149.119C37.8135 149.119 37.8135 149.119 37.8135 149.119C37.8135 149.119 37.8135 149.119 37.8135 149.119V149.119C37.8135 149.119 37.8135 149.119 37.8135 149.119C37.8135 149.119 37.8135 149.119 37.8135 149.119V149.119C37.8135 149.119 37.8135 149.119 37.8135 149.119C37.8135 149.119 37.8135 149.119 37.8135 149.119V149.119C37.8135 149.119 37.8135 149.119 37.8135 149.119C37.8135 149.119 37.8135 149.119 37.8135 149.119C37.8135 149.119 37.8135 149.119 37.8135 149.119C37.8135 149.119 37.8135 149.119 37.8135 149.119C37.8135 149.119 37.8135 149.119 37.8135 149.119C37.8135 149.119 37.8135 149.119 37.8135 149.119C37.8135 149.119 37.8135 149.119 37.8135 149.119C37.8135 149.119 37.8135 149.119 37.8135 149.119C37.8135 149.119 37.8135 149.119 37.8135 149.119V149.119C37.8135 149.119 37.8135 149.119 37.8135 149.119V149.119C37.8135 149.119 37.8135 149.119 37.8135 149.119C37.8135 149.119 37.8135 149.119 37.8135 149.12C37.8135 149.12 37.8135 149.12 37.8135 149.12V149.12C37.8135 149.12 37.8135 149.12 37.8135 149.12C37.8135 149.12 37.8135 149.12 37.8135 149.12C37.8135 149.12 37.8135 149.12 37.8135 149.12C37.8135 149.12 37.8135 149.12 37.8135 149.12V149.12V149.12V149.12V149.12V149.12C37.8135 149.12 37.8135 149.12 37.8135 149.12C37.8135 149.12 37.8135 149.12 37.8135 149.12C37.8135 149.12 37.8135 149.12 37.8135 149.12V149.12C37.8135 149.12 37.8135 149.12 37.8135 149.12C37.8135 149.12 37.8135 149.12 37.8135 149.12C37.8135 149.12 37.8135 149.12 37.8135 149.12C37.8135 149.12 37.8135 149.12 37.8135 149.12C37.8135 149.12 37.8135 149.12 37.8135 149.12V149.12V149.12V149.12V149.12V149.12C37.8135 149.12 37.8135 149.12 37.8135 149.12C37.8135 149.12 37.8135 149.12 37.8135 149.12C37.8135 149.12 37.8135 149.12 37.8135 149.12C37.8135 149.12 37.8135 149.12 37.8135 149.12C37.8135 149.12 37.8135 149.12 37.8135 149.12C37.8135 149.12 37.8135 149.12 37.8135 149.12C37.8135 149.12 37.8135 149.12 37.8135 149.12C37.8135 149.12 37.8135 149.12 37.8135 149.12C37.8135 149.12 37.8135 149.12 37.8135 149.12C37.8135 149.12 37.8135 149.12 37.8135 149.12C37.8135 149.12 37.8135 149.12 37.8135 149.12C37.8135 149.12 37.8135 149.12 37.8135 149.12C37.8135 149.12 37.8135 149.12 37.8135 149.12V149.12C37.8135 149.12 37.8135 149.12 37.8135 149.12C37.8135 149.12 37.8135 149.12 43.8135 149.12ZM43.8135 149.11L48.5147 145.382C42.7288 138.086 39.4033 129.258 39.4033 119.29L33.4033 119.29L27.4033 119.29C27.4033 132.082 31.7182 143.514 39.1123 152.838L43.8135 149.11ZM33.4033 119.29H39.4033C39.4033 111.308 41.5369 103.737 45.382 96.9526L40.1621 93.9941L34.9422 91.0357C30.133 99.5211 27.4033 109.118 27.4033 119.29H33.4033ZM40.1621 93.9941L44.1218 89.4862C40.9096 86.6648 38.8924 83.9611 37.8338 80.8438C36.7718 77.717 36.4657 73.5555 37.7696 67.4844L31.9033 66.2246L26.0371 64.9648C24.4153 72.5166 24.5277 78.9803 26.4712 84.7028C28.4179 90.4348 31.9929 94.8044 36.2025 98.502L40.1621 93.9941ZM31.9033 66.2246L37.7696 67.4844C40.5487 54.5439 47.2485 46.5434 57.1648 40.8485L54.1768 35.6455L51.1887 30.4425C38.5592 37.6956 29.5858 48.4406 26.0371 64.9648L31.9033 66.2246ZM54.1768 35.6455L56.23 41.2832C57.7137 40.7429 58.6131 40.8027 58.9184 40.8811C59.0294 40.9095 59.0035 40.9226 58.9373 40.8654C58.8663 40.804 58.9091 40.8011 58.9924 41.0065L64.5527 38.752L70.113 36.4974C68.5551 32.655 65.5296 30.1894 61.903 29.2581C58.5412 28.3949 55.0762 28.9324 52.1235 30.0078L54.1768 35.6455ZM64.5527 38.752L69.7027 41.8305C76.3068 30.7828 87.5316 24.0001 100.153 24L100.153 18L100.153 12C82.9873 12.0002 68.0026 21.287 59.4027 35.6734L64.5527 38.752Z" fill="white" mask="url(#path-1-outside-1_1347_8521)"/>
<path d="M128.975 157.409C129.726 157.212 130.493 157.622 130.759 158.333L130.806 158.48L134.739 173.525L141.212 173.759C142.039 173.789 142.687 174.485 142.657 175.313C142.627 176.14 141.931 176.787 141.104 176.757L135.598 176.558L137.381 182.615C137.615 183.41 137.16 184.244 136.365 184.478C135.571 184.711 134.737 184.257 134.503 183.462L132.957 178.207L127.44 185.275C126.93 185.928 125.987 186.044 125.334 185.534C124.682 185.024 124.566 184.081 125.075 183.428L131.932 174.644L127.903 159.239L127.872 159.089C127.755 158.338 128.224 157.605 128.975 157.409Z" fill="#474747"/>
<path d="M67.437 156.8C67.7911 156.127 68.6044 155.819 69.3247 156.109C70.0929 156.419 70.4648 157.293 70.1548 158.062L64.4712 172.145L69.5903 179.796C70.0509 180.484 69.8665 181.416 69.1782 181.877C68.4899 182.337 67.5579 182.153 67.0972 181.465L62.8354 175.096L57.8618 183.167C57.4273 183.872 56.5026 184.091 55.7974 183.657C55.0924 183.223 54.8729 182.299 55.3071 181.594L59.5815 174.656L52.2642 176.467L52.1128 176.496C51.3604 176.603 50.6342 176.124 50.4478 175.37C50.2491 174.566 50.7396 173.753 51.5435 173.554L61.6792 171.048L67.3726 156.938L67.437 156.8Z" fill="#474747"/>
<path d="M166.864 119.29C166.864 130.67 163.044 140.8 156.454 149.11C144.964 163.6 125.064 172.59 102.284 173.12C101.574 173.14 100.854 173.15 100.134 173.15C99.4138 173.15 98.6938 173.15 97.9838 173.12C75.2038 172.59 55.3038 163.6 43.8138 149.12C43.8138 149.12 43.8138 149.12 43.8138 149.11C37.2238 140.8 33.4038 130.67 33.4038 119.29C33.4038 101.43 42.8138 85.48 57.5638 74.91C57.5638 74.91 57.6038 67.77 57.6038 64.84C57.6038 38 76.6538 18 100.154 18C123.654 18 142.694 38 142.694 64.84C142.694 67.76 141.644 74.63 141.644 74.63C156.414 85.2 166.894 101.43 166.894 119.29H166.864Z" fill="#4B9AE8"/>
<path d="M77.984 60.0998C82.3581 60.0998 85.904 56.5539 85.904 52.1798C85.904 47.8057 82.3581 44.2598 77.984 44.2598C73.6099 44.2598 70.064 47.8057 70.064 52.1798C70.064 56.5539 73.6099 60.0998 77.984 60.0998Z" fill="white"/>
<path d="M77.861 56.9847C80.4834 56.9847 82.6092 54.8588 82.6092 52.2365C82.6092 49.6141 80.4834 47.4883 77.861 47.4883C75.2386 47.4883 73.1128 49.6141 73.1128 52.2365C73.1128 54.8588 75.2386 56.9847 77.861 56.9847Z" fill="black"/>
<path d="M121.713 60.0998C126.088 60.0998 129.633 56.5539 129.633 52.1798C129.633 47.8057 126.088 44.2598 121.713 44.2598C117.339 44.2598 113.793 47.8057 113.793 52.1798C113.793 56.5539 117.339 60.0998 121.713 60.0998Z" fill="white"/>
<path d="M121.59 56.9847C124.213 56.9847 126.339 54.8588 126.339 52.2365C126.339 49.6141 124.213 47.4883 121.59 47.4883C118.968 47.4883 116.842 49.6141 116.842 52.2365C116.842 54.8588 118.968 56.9847 121.59 56.9847Z" fill="black"/>
<path d="M109.38 61.6686C109.086 65.5569 103.83 71.2635 99.6456 70.9906C95.4614 70.7176 91.1208 64.3801 91.4183 60.4919C91.712 56.6036 94.6909 53.6298 100.935 54.0374C107.251 54.4521 109.677 57.7804 109.38 61.6686Z" fill="#EAC00F"/>
<path d="M64.5856 48.1751C67.3936 36.0168 60.9513 33.1783 54.1767 35.6458C42.9038 42.1198 35.0677 51.4924 31.9038 66.2248C28.7399 80.9571 33.395 88.6807 42.0445 95.57C59.5445 99.2381 66.1838 81.9451 66.5435 78.8012C66.9032 75.6572 62.0013 72.6685 62.0434 64.6526C62.0854 56.6368 61.7777 60.3334 64.5856 48.1751Z" fill="#276288"/>
<path d="M136.366 48.1751C133.558 36.0168 140 33.1783 146.775 35.6458C158.048 42.1198 165.884 51.4924 169.048 66.2248C172.212 80.9571 167.557 88.6807 158.907 95.57C141.407 99.2381 134.768 81.9451 134.408 78.8012C134.048 75.6572 138.95 72.6685 138.908 64.6526C138.866 56.6368 139.174 60.3334 136.366 48.1751Z" fill="#276288"/>
</svg>
