<svg width="200" height="200" viewBox="0 0 200 200" fill="none" xmlns="http://www.w3.org/2000/svg">
<mask id="path-1-outside-1_1062_23864" maskUnits="userSpaceOnUse" x="14" y="14" width="173" height="171" fill="black">
<rect fill="white" x="14" y="14" width="173" height="171"/>
<path d="M161.976 20C166.887 20 169.753 24.9998 170.864 28.8887L179.753 60C181.237 65 175.771 68.8887 170.864 68.8887H157.776V111.406C163.001 113.651 166.664 118.845 166.664 124.894C166.664 130.939 163.001 136.131 157.776 138.375V145.076C167.907 146.975 175.305 152.938 175.305 160C175.305 160.756 175.194 161.494 175.029 162.223H156.882V168.889C156.882 174.289 152.504 178.667 147.104 178.667C141.704 178.667 137.331 174.289 137.331 168.889V167.579C135.893 168.411 134.225 168.889 132.444 168.889H49.333L49.3311 168.888V168.889C49.3311 174.289 44.9527 178.667 39.5527 178.667C34.1529 178.667 29.7754 174.289 29.7754 168.889V138.723C24.0815 136.708 20.0001 131.276 20 124.894C20 116.787 26.5692 110.223 34.667 110.223C35.7746 110.223 36.8533 110.346 37.8906 110.578V105.338C37.8906 105.053 37.9051 104.772 37.9297 104.493C38.1964 97.4568 44.0093 90.7366 54.1709 85.751C64.5762 80.6458 78.6889 77.7774 93.4043 77.7773C108.12 77.7773 122.232 80.6458 132.638 85.751C137.704 88.2367 141.687 91.1557 144.443 94.3281V68.8887H130.864C125.958 68.8886 120.682 64.4444 121.976 60L130.864 28.8887C131.975 24.0711 134.847 20.0002 139.753 20H161.976Z"/>
</mask>
<path d="M161.976 20C166.887 20 169.753 24.9998 170.864 28.8887L179.753 60C181.237 65 175.771 68.8887 170.864 68.8887H157.776V111.406C163.001 113.651 166.664 118.845 166.664 124.894C166.664 130.939 163.001 136.131 157.776 138.375V145.076C167.907 146.975 175.305 152.938 175.305 160C175.305 160.756 175.194 161.494 175.029 162.223H156.882V168.889C156.882 174.289 152.504 178.667 147.104 178.667C141.704 178.667 137.331 174.289 137.331 168.889V167.579C135.893 168.411 134.225 168.889 132.444 168.889H49.333L49.3311 168.888V168.889C49.3311 174.289 44.9527 178.667 39.5527 178.667C34.1529 178.667 29.7754 174.289 29.7754 168.889V138.723C24.0815 136.708 20.0001 131.276 20 124.894C20 116.787 26.5692 110.223 34.667 110.223C35.7746 110.223 36.8533 110.346 37.8906 110.578V105.338C37.8906 105.053 37.9051 104.772 37.9297 104.493C38.1964 97.4568 44.0093 90.7366 54.1709 85.751C64.5762 80.6458 78.6889 77.7774 93.4043 77.7773C108.12 77.7773 122.232 80.6458 132.638 85.751C137.704 88.2367 141.687 91.1557 144.443 94.3281V68.8887H130.864C125.958 68.8886 120.682 64.4444 121.976 60L130.864 28.8887C131.975 24.0711 134.847 20.0002 139.753 20H161.976Z" fill="#7AB9F8"/>
<path d="M161.976 20L161.976 14H161.976V20ZM170.864 28.8887L176.633 27.2404L176.633 27.2403L170.864 28.8887ZM179.753 60L173.984 61.6483C173.989 61.6681 173.995 61.6879 174.001 61.7077L179.753 60ZM157.776 68.8887V62.8887C154.463 62.8887 151.776 65.575 151.776 68.8887H157.776ZM157.776 111.406H151.776C151.776 113.805 153.205 115.972 155.408 116.919L157.776 111.406ZM166.664 124.894L172.664 124.894V124.894H166.664ZM157.776 138.375L155.408 132.862C153.205 133.809 151.776 135.977 151.776 138.375H157.776ZM157.776 145.076H151.776C151.776 147.964 153.833 150.442 156.671 150.974L157.776 145.076ZM175.305 160L181.305 160V160H175.305ZM175.029 162.223V168.223C177.834 168.223 180.265 166.279 180.882 163.543L175.029 162.223ZM156.882 162.223V156.223C153.568 156.223 150.882 158.909 150.882 162.223H156.882ZM147.104 178.667L147.104 184.667L147.105 184.667L147.104 178.667ZM137.331 167.579H143.331C143.331 165.435 142.187 163.453 140.329 162.382C138.472 161.31 136.184 161.312 134.327 162.385L137.331 167.579ZM49.333 168.889L46.6497 174.255C47.4829 174.672 48.4015 174.889 49.333 174.889V168.889ZM49.3311 168.888L52.0143 163.521C50.1544 162.591 47.9456 162.691 46.1767 163.784C44.4078 164.877 43.3311 166.808 43.3311 168.888H49.3311ZM39.5527 178.667L39.5525 184.667H39.5527V178.667ZM29.7754 138.723H35.7754C35.7754 136.181 34.1735 133.914 31.7771 133.066L29.7754 138.723ZM20 124.894L14 124.894L14 124.894L20 124.894ZM34.667 110.223L34.6671 104.223H34.667V110.223ZM37.8906 110.578L36.5781 116.433C38.3558 116.831 40.2184 116.401 41.6406 115.262C43.0628 114.123 43.8906 112.4 43.8906 110.578H37.8906ZM37.9297 104.493L43.9064 105.021C43.9152 104.921 43.9216 104.821 43.9254 104.72L37.9297 104.493ZM54.1709 85.751L51.5281 80.3644L51.5281 80.3644L54.1709 85.751ZM93.4043 77.7773L93.4043 71.7773L93.4043 71.7773L93.4043 77.7773ZM132.638 85.751L135.281 80.3644L135.281 80.3644L132.638 85.751ZM144.443 94.3281L139.914 98.2631C141.556 100.153 144.199 100.825 146.544 99.9485C148.889 99.0721 150.443 96.8317 150.443 94.3281H144.443ZM144.443 68.8887H150.443C150.443 65.575 147.757 62.8887 144.443 62.8887V68.8887ZM130.864 68.8887L130.864 74.8887H130.864V68.8887ZM121.976 60L127.737 61.6765C127.739 61.6671 127.742 61.6577 127.745 61.6483L121.976 60ZM130.864 28.8887L136.633 30.537C136.662 30.4377 136.688 30.3377 136.711 30.2371L130.864 28.8887ZM139.753 20L139.753 14L139.753 14L139.753 20ZM161.976 20L161.976 26C162.152 26 162.555 26.0238 163.265 26.8624C164.03 27.7662 164.697 29.1453 165.095 30.5371L170.864 28.8887L176.633 27.2403C175.92 24.7432 174.598 21.678 172.425 19.1097C170.196 16.4761 166.71 14 161.976 14L161.976 20ZM170.864 28.8887L165.095 30.537L173.984 61.6483L179.753 60L185.522 58.3517L176.633 27.2404L170.864 28.8887ZM179.753 60L174.001 61.7077C174.005 61.7202 173.988 61.5977 174.028 61.4845C174.047 61.4317 174.009 61.5767 173.716 61.8376C173.424 62.0973 172.982 62.376 172.423 62.5857C171.866 62.7947 171.317 62.8887 170.864 62.8887V68.8887V74.8887C174.749 74.8887 178.772 73.4019 181.694 70.8011C184.745 68.0861 187.075 63.5812 185.505 58.2923L179.753 60ZM170.864 68.8887V62.8887H157.776V68.8887V74.8887H170.864V68.8887ZM157.776 68.8887H151.776V111.406H157.776H163.776V68.8887H157.776ZM157.776 111.406L155.408 116.919C158.509 118.251 160.664 121.329 160.664 124.894H166.664H172.664C172.664 116.36 167.492 109.05 160.145 105.893L157.776 111.406ZM166.664 124.894L160.664 124.893C160.664 128.452 158.511 131.529 155.408 132.862L157.776 138.375L160.145 143.888C167.49 140.732 172.664 133.425 172.664 124.894L166.664 124.894ZM157.776 138.375H151.776V145.076H157.776H163.776V138.375H157.776ZM157.776 145.076L156.671 150.974C160.938 151.773 164.311 153.378 166.486 155.201C168.653 157.016 169.305 158.718 169.305 160H175.305H181.305C181.305 154.219 178.258 149.409 174.193 146.003C170.136 142.603 164.745 140.278 158.882 139.179L157.776 145.076ZM175.305 160L169.305 160C169.305 160.173 169.279 160.447 169.176 160.902L175.029 162.223L180.882 163.543C181.108 162.541 181.305 161.338 181.305 160L175.305 160ZM175.029 162.223V156.223H156.882V162.223V168.223H175.029V162.223ZM156.882 162.223H150.882V168.889H156.882H162.882V162.223H156.882ZM156.882 168.889H150.882C150.882 170.976 149.19 172.667 147.104 172.667L147.104 178.667L147.105 184.667C155.819 184.667 162.882 177.602 162.882 168.889H156.882ZM147.104 178.667V172.667C145.022 172.667 143.331 170.979 143.331 168.889H137.331H131.331C131.331 177.598 138.387 184.667 147.104 184.667V178.667ZM137.331 168.889H143.331V167.579H137.331H131.331V168.889H137.331ZM137.331 167.579L134.327 162.385C133.773 162.706 133.137 162.889 132.444 162.889V168.889V174.889C135.313 174.889 138.013 174.116 140.335 172.773L137.331 167.579ZM132.444 168.889V162.889H49.333V168.889V174.889H132.444V168.889ZM49.333 168.889L52.0163 163.522L52.0143 163.521L49.3311 168.888L46.6478 174.254L46.6497 174.255L49.333 168.889ZM49.3311 168.888H43.3311V168.889H49.3311H55.3311V168.888H49.3311ZM49.3311 168.889H43.3311C43.3311 170.975 41.639 172.667 39.5527 172.667V178.667V184.667C48.2664 184.667 55.3311 177.602 55.3311 168.889H49.3311ZM39.5527 178.667L39.553 172.667C37.4672 172.667 35.7754 170.975 35.7754 168.889H29.7754H23.7754C23.7754 177.602 30.8386 184.667 39.5525 184.667L39.5527 178.667ZM29.7754 168.889H35.7754V138.723H29.7754H23.7754V168.889H29.7754ZM29.7754 138.723L31.7771 133.066C28.4023 131.872 26.0001 128.653 26 124.893L20 124.894L14 124.894C14.0002 133.899 19.7606 141.543 27.7737 144.379L29.7754 138.723ZM20 124.894H26C26 120.101 29.8826 116.223 34.667 116.223V110.223V104.223C23.2558 104.223 14 113.473 14 124.894H20ZM34.667 110.223L34.6669 116.223C35.3294 116.223 35.968 116.296 36.5781 116.433L37.8906 110.578L39.2032 104.723C37.7386 104.395 36.2198 104.223 34.6671 104.223L34.667 110.223ZM37.8906 110.578H43.8906V105.338H37.8906H31.8906V110.578H37.8906ZM37.8906 105.338H43.8906C43.8906 105.256 43.8948 105.152 43.9064 105.021L37.9297 104.493L31.953 103.965C31.9154 104.391 31.8906 104.851 31.8906 105.338H37.8906ZM37.9297 104.493L43.9254 104.72C44.0657 101.019 47.3547 95.7785 56.8137 91.1376L54.1709 85.751L51.5281 80.3644C40.6639 85.6947 32.3271 93.8948 31.934 104.266L37.9297 104.493ZM54.1709 85.751L56.8137 91.1376C66.2054 86.5297 79.3655 83.7774 93.4043 83.7773L93.4043 77.7773L93.4043 71.7773C78.0124 71.7774 62.947 74.7619 51.5281 80.3644L54.1709 85.751ZM93.4043 77.7773V83.7773C107.443 83.7773 120.603 86.5297 129.995 91.1376L132.638 85.751L135.281 80.3644C123.862 74.7619 108.796 71.7773 93.4043 71.7773V77.7773ZM132.638 85.751L129.995 91.1376C134.548 93.3717 137.816 95.8482 139.914 98.2631L144.443 94.3281L148.973 90.3932C145.559 86.4633 140.86 83.1018 135.281 80.3644L132.638 85.751ZM144.443 94.3281H150.443V68.8887H144.443H138.443V94.3281H144.443ZM144.443 68.8887V62.8887H130.864V68.8887V74.8887H144.443V68.8887ZM130.864 68.8887L130.864 62.8887C130.527 62.8887 130.061 62.8075 129.535 62.5879C129.01 62.3689 128.547 62.062 128.207 61.7421C127.859 61.4141 127.758 61.1869 127.749 61.163C127.748 61.1612 127.77 61.2192 127.776 61.3287C127.782 61.4438 127.768 61.5671 127.737 61.6765L121.976 60L116.215 58.3235C114.716 63.4719 117.241 67.8993 119.982 70.4798C122.751 73.0862 126.732 74.8886 130.864 74.8887L130.864 68.8887ZM121.976 60L127.745 61.6483L136.633 30.537L130.864 28.8887L125.095 27.2404L116.206 58.3517L121.976 60ZM130.864 28.8887L136.711 30.2371C137.114 28.4895 137.749 27.3085 138.329 26.6698C138.786 26.1658 139.169 26 139.753 26L139.753 20L139.753 14C130.573 14.0004 126.349 21.7684 125.018 27.5402L130.864 28.8887ZM139.753 20V26H161.976V20V14H139.753V20Z" fill="white" mask="url(#path-1-outside-1_1062_23864)"/>
<path d="M157.777 151.111C157.777 154.791 154.79 157.778 151.11 157.778C147.43 157.778 144.443 154.791 144.443 151.111V44.4444C144.443 40.7599 147.43 37.7777 151.11 37.7777C154.79 37.7777 157.777 40.7599 157.777 44.4444V151.111Z" fill="#CCD6DD"/>
<path d="M175.029 162.222C175.194 161.493 175.305 160.756 175.305 160C175.305 151.409 164.358 144.444 150.86 144.444C137.363 144.444 126.416 151.409 126.416 160C126.416 160.756 126.527 161.493 126.692 162.222H175.029Z" fill="#CCD6DD"/>
<path d="M179.753 60C181.238 65 175.771 68.8889 170.864 68.8889H130.864C125.958 68.8889 120.682 64.4444 121.976 60L130.864 28.8889C131.976 24.0711 134.847 20 139.753 20H161.976C166.887 20 169.753 25 170.864 28.8889L179.753 60Z" fill="#FCAB40"/>
<path d="M148.917 149.338C148.917 154.738 144.397 159.111 138.824 159.111H47.984C42.4106 159.111 37.8906 154.738 37.8906 149.338V105.338C37.8906 99.9378 42.4106 95.5601 47.984 95.5601H138.824C144.397 95.5601 148.917 99.9378 148.917 105.338V149.338Z" fill="#4B9AE8"/>
<path d="M142.222 159.111C142.222 164.511 137.845 168.889 132.445 168.889H49.3334C43.9334 168.889 39.5557 164.511 39.5557 159.111V154.222C39.5557 148.822 43.9334 144.444 49.3334 144.444H132.445C137.845 144.444 142.222 148.822 142.222 154.222V159.111Z" fill="#276288"/>
<path d="M37.9199 105C37.9199 112.22 43.7656 119.144 54.1709 124.249C64.5763 129.354 78.689 132.222 93.4044 132.222C108.12 132.222 122.232 129.354 132.638 124.249C143.043 119.144 148.889 112.22 148.889 105C148.889 97.7802 143.043 90.8561 132.638 85.7509C122.232 80.6458 108.12 77.7777 93.4044 77.7777C78.689 77.7777 64.5763 80.6458 54.1709 85.7509C43.7656 90.8561 37.9199 97.7802 37.9199 105Z" fill="#4B9AE8"/>
<path d="M100.157 109.419C99.7205 112.786 96.0005 118.246 92.1397 118.275C88.2788 118.303 84.1996 112.765 84.0093 109.137C83.8191 105.515 86.5316 103.036 92.2947 103C98.1212 102.965 100.594 106.051 100.157 109.419Z" fill="#EAC00F"/>
<path d="M57.8041 111.608C62.1142 111.608 65.6083 108.114 65.6083 103.804C65.6083 99.4939 62.1142 95.9999 57.8041 95.9999C53.494 95.9999 50 99.4939 50 103.804C50 108.114 53.494 111.608 57.8041 111.608Z" fill="white"/>
<path d="M57.8045 107.936C60.0863 107.936 61.9361 106.086 61.9361 103.804C61.9361 101.522 60.0863 99.6724 57.8045 99.6724C55.5226 99.6724 53.6729 101.522 53.6729 103.804C53.6729 106.086 55.5226 107.936 57.8045 107.936Z" fill="black"/>
<path d="M128.804 111.608C133.114 111.608 136.608 108.114 136.608 103.804C136.608 99.4939 133.114 95.9999 128.804 95.9999C124.494 95.9999 121 99.4939 121 103.804C121 108.114 124.494 111.608 128.804 111.608Z" fill="white"/>
<path d="M128.804 107.936C131.086 107.936 132.936 106.086 132.936 103.804C132.936 101.522 131.086 99.6724 128.804 99.6724C126.523 99.6724 124.673 101.522 124.673 103.804C124.673 106.086 126.523 107.936 128.804 107.936Z" fill="black"/>
<path d="M49.3333 124.893C49.3333 132.991 42.7644 139.56 34.6667 139.56C26.5689 139.56 20 132.991 20 124.893C20 116.787 26.5689 110.222 34.6667 110.222C42.7689 110.222 49.3333 116.787 49.3333 124.893Z" fill="#7AB9F8"/>
<path d="M49.3309 168.889C49.3309 174.289 44.9532 178.667 39.5532 178.667C34.1532 178.667 29.7754 174.289 29.7754 168.889V124.893C29.7754 119.493 34.1532 115.115 39.5532 115.115C44.9532 115.115 49.3309 119.493 49.3309 124.893V168.889ZM137.331 124.893C137.331 132.991 143.895 139.56 151.998 139.56C160.091 139.56 166.664 132.991 166.664 124.893C166.664 116.791 160.091 110.222 151.998 110.222C143.9 110.222 137.331 116.787 137.331 124.893Z" fill="#7AB9F8"/>
<path d="M137.331 168.889C137.331 174.289 141.704 178.667 147.104 178.667C152.504 178.667 156.882 174.289 156.882 168.889V124.893C156.882 119.493 152.504 115.115 147.104 115.115C141.704 115.115 137.331 119.493 137.331 124.893V168.889ZM93.3311 144.444C93.3311 149.844 88.9533 154.222 83.5533 154.222H59.1088C53.7088 154.222 49.3311 149.844 49.3311 144.444C49.3311 139.044 53.7088 134.667 59.1088 134.667H83.5533C88.9533 134.667 93.3311 139.044 93.3311 144.444ZM137.331 144.444C137.331 149.844 132.953 154.222 127.553 154.222H103.109C97.7088 154.222 93.3311 149.844 93.3311 144.444C93.3311 139.044 97.7088 134.667 103.109 134.667H127.553C132.953 134.667 137.331 139.044 137.331 144.444Z" fill="#7AB9F8"/>
<path d="M46.665 144.444H139.998V157.778H46.665V144.444Z" fill="#7AB9F8"/>
</svg>
