<svg width="200" height="200" viewBox="0 0 200 200" fill="none" xmlns="http://www.w3.org/2000/svg">
<mask id="path-1-outside-1_1062_19644" maskUnits="userSpaceOnUse" x="11.3994" y="34.4296" width="178" height="128" fill="black">
<rect fill="white" x="11.3994" y="34.4296" width="178" height="128"/>
<path d="M92.8047 47.1279C94.3295 44.0965 98.3095 40.9439 101.226 41.4921C103.695 41.9565 105.913 45.1732 106.732 48.2031C116.779 48.9506 127.194 49.6852 130.54 49.9199C132.62 49.6007 134.735 50.5364 135.472 51.9033C136.714 54.2093 149.915 85.5395 157.564 100.301C162.782 110.369 170.947 127.182 175.612 136.855L175.916 128.87C175.916 128.87 177.2 127.379 179.479 127.489C181.757 127.6 183 128.387 183 128.387L181.923 146.807C181.923 146.807 181.08 148.008 179.051 148.008C177.028 148.008 175.238 147.062 175.226 147.056L175.304 144.984L171.577 145.619C170.922 146.714 163.235 149.344 157.907 149.956C153.861 150.412 144.43 149.707 143.712 148.506C143.644 148.392 143.539 148.003 143.402 147.383L121.311 148.724C121.247 149.344 121.19 149.833 121.136 150.163C120.831 151.958 111.802 153.518 106.665 153.629C101.563 153.752 92.4781 154.104 91.2607 152.943C83.7533 153.388 77.0112 153.548 77.0908 152.676C77.095 152.63 77.1109 152.565 77.1367 152.48C77.1199 152.477 77.103 152.473 77.0859 152.47L77.1016 154.595C77.0805 154.606 75.175 155.672 73.7471 155.672C72.3118 155.672 70.0349 154.955 70.0322 154.954L69.7598 150.784C62.9404 149.103 52.7841 146.314 41.5459 142.265C33.4248 139.338 28.3008 137.213 25.0752 135.718L25.1318 136.534C25.1103 136.553 23.6549 137.818 21.873 137.818C20.0779 137.818 18.3936 136.879 18.3936 136.879L17.3994 118.956C17.3994 118.956 18.4072 117.907 20.3125 117.782C22.218 117.672 23.9033 118.832 23.9033 118.832L24.21 123.261C29.1339 113.081 37.2086 96.4467 44.0449 82.6679C54.7184 61.1551 59.1235 45.4415 60.9463 44.0742C63.0727 42.4724 78.0001 45.8693 90.4551 46.9326C91.1853 46.9949 91.9716 47.0597 92.8047 47.1279Z"/>
</mask>
<path d="M92.8047 47.1279C94.3295 44.0965 98.3095 40.9439 101.226 41.4921C103.695 41.9565 105.913 45.1732 106.732 48.2031C116.779 48.9506 127.194 49.6852 130.54 49.9199C132.62 49.6007 134.735 50.5364 135.472 51.9033C136.714 54.2093 149.915 85.5395 157.564 100.301C162.782 110.369 170.947 127.182 175.612 136.855L175.916 128.87C175.916 128.87 177.2 127.379 179.479 127.489C181.757 127.6 183 128.387 183 128.387L181.923 146.807C181.923 146.807 181.08 148.008 179.051 148.008C177.028 148.008 175.238 147.062 175.226 147.056L175.304 144.984L171.577 145.619C170.922 146.714 163.235 149.344 157.907 149.956C153.861 150.412 144.43 149.707 143.712 148.506C143.644 148.392 143.539 148.003 143.402 147.383L121.311 148.724C121.247 149.344 121.19 149.833 121.136 150.163C120.831 151.958 111.802 153.518 106.665 153.629C101.563 153.752 92.4781 154.104 91.2607 152.943C83.7533 153.388 77.0112 153.548 77.0908 152.676C77.095 152.63 77.1109 152.565 77.1367 152.48C77.1199 152.477 77.103 152.473 77.0859 152.47L77.1016 154.595C77.0805 154.606 75.175 155.672 73.7471 155.672C72.3118 155.672 70.0349 154.955 70.0322 154.954L69.7598 150.784C62.9404 149.103 52.7841 146.314 41.5459 142.265C33.4248 139.338 28.3008 137.213 25.0752 135.718L25.1318 136.534C25.1103 136.553 23.6549 137.818 21.873 137.818C20.0779 137.818 18.3936 136.879 18.3936 136.879L17.3994 118.956C17.3994 118.956 18.4072 117.907 20.3125 117.782C22.218 117.672 23.9033 118.832 23.9033 118.832L24.21 123.261C29.1339 113.081 37.2086 96.4467 44.0449 82.6679C54.7184 61.1551 59.1235 45.4415 60.9463 44.0742C63.0727 42.4724 78.0001 45.8693 90.4551 46.9326C91.1853 46.9949 91.9716 47.0597 92.8047 47.1279Z" fill="#EAC00F"/>
<path d="M92.8047 47.1279L92.3151 53.1079C94.752 53.3074 97.0661 52.0083 98.1648 49.824L92.8047 47.1279ZM101.226 41.4921L102.334 35.5955L102.334 35.5954L101.226 41.4921ZM106.732 48.2031L100.94 49.7693C101.605 52.227 103.748 53.9976 106.287 54.1865L106.732 48.2031ZM130.54 49.9199L130.12 55.9052C130.564 55.9363 131.01 55.9179 131.45 55.8505L130.54 49.9199ZM135.472 51.9033L140.753 49.0568L140.753 49.0566L135.472 51.9033ZM157.564 100.301L152.237 103.061L152.237 103.061L157.564 100.301ZM175.612 136.855L170.208 139.462C171.405 141.944 174.14 143.292 176.838 142.729C179.536 142.166 181.503 139.838 181.608 137.083L175.612 136.855ZM175.916 128.87L171.369 124.955C170.483 125.985 169.972 127.284 169.92 128.642L175.916 128.87ZM179.479 127.489L179.769 121.496L179.769 121.496L179.479 127.489ZM183 128.387L188.99 128.737C189.117 126.559 188.052 124.484 186.209 123.317L183 128.387ZM181.923 146.807L186.835 150.252C187.474 149.34 187.848 148.269 187.913 147.157L181.923 146.807ZM179.051 148.008L179.051 154.008L179.051 154.008L179.051 148.008ZM175.226 147.056L169.23 146.829C169.143 149.131 170.382 151.28 172.417 152.358L175.226 147.056ZM175.304 144.984L181.299 145.21C181.368 143.405 180.618 141.664 179.26 140.473C177.901 139.282 176.078 138.766 174.296 139.07L175.304 144.984ZM171.577 145.619L170.57 139.704C168.842 139.999 167.329 141.034 166.429 142.538L171.577 145.619ZM157.907 149.956L158.579 155.918L158.592 155.917L157.907 149.956ZM143.712 148.506L138.56 151.581L138.562 151.584L143.712 148.506ZM143.402 147.383L149.262 146.093C148.627 143.208 145.987 141.215 143.039 141.394L143.402 147.383ZM121.311 148.724L120.947 142.735C118.013 142.913 115.64 145.19 115.342 148.115L121.311 148.724ZM121.136 150.163L127.051 151.167C127.053 151.155 127.055 151.143 127.057 151.131L121.136 150.163ZM106.665 153.629L106.536 147.63C106.531 147.63 106.526 147.63 106.52 147.631L106.665 153.629ZM91.2607 152.943L95.4019 148.602C94.1969 147.452 92.5683 146.855 90.906 146.954L91.2607 152.943ZM77.0908 152.676L71.1158 152.129L71.1156 152.131L77.0908 152.676ZM77.1367 152.48L82.8729 154.24C83.3672 152.629 83.1609 150.884 82.3045 149.432C81.4481 147.98 80.0205 146.955 78.371 146.609L77.1367 152.48ZM77.0859 152.47L78.3223 146.598C76.5453 146.224 74.6945 146.675 73.2885 147.824C71.8825 148.974 71.0727 150.698 71.0861 152.514L77.0859 152.47ZM77.1016 154.595L80.0332 159.83C81.9418 158.761 83.1175 156.738 83.1014 154.551L77.1016 154.595ZM73.7471 155.672L73.7471 161.672L73.748 161.672L73.7471 155.672ZM70.0322 154.954L64.045 155.345C64.2064 157.815 65.8681 159.933 68.229 160.677L70.0322 154.954ZM69.7598 150.784L75.747 150.393C75.5765 147.783 73.7354 145.585 71.1962 144.959L69.7598 150.784ZM41.5459 142.265L39.5118 147.909L39.5118 147.909L41.5459 142.265ZM25.0752 135.718L27.5983 130.274C25.6732 129.382 23.4199 129.573 21.6724 130.776C19.9248 131.979 18.9427 134.016 19.0896 136.133L25.0752 135.718ZM25.1318 136.534L29.0786 141.053C30.4929 139.818 31.2474 137.992 31.1174 136.119L25.1318 136.534ZM21.873 137.818L21.8729 143.818H21.873V137.818ZM18.3936 136.879L12.4028 137.211C12.5167 139.265 13.6747 141.117 15.4711 142.119L18.3936 136.879ZM17.3994 118.956L13.0717 114.8C11.9188 116.001 11.3164 117.626 11.4086 119.288L17.3994 118.956ZM20.3125 117.782L19.9652 111.792C19.9507 111.793 19.9362 111.794 19.9218 111.795L20.3125 117.782ZM23.9033 118.832L29.889 118.418C29.7627 116.594 28.8117 114.927 27.3058 113.89L23.9033 118.832ZM24.21 123.261L18.2243 123.675C18.4122 126.389 20.4019 128.636 23.0726 129.152C25.7434 129.667 28.4268 128.322 29.6112 125.873L24.21 123.261ZM44.0449 82.6679L49.4197 85.3346L49.4197 85.3346L44.0449 82.6679ZM60.9463 44.0742L64.5467 48.8738L64.5563 48.8666L60.9463 44.0742ZM90.4551 46.9326L89.9447 52.9108L89.9447 52.9108L90.4551 46.9326ZM92.8047 47.1279L98.1648 49.824C98.2747 49.6055 98.4934 49.2659 98.841 48.8743C99.1827 48.4893 99.5751 48.1376 99.9627 47.863C100.362 47.5803 100.649 47.4543 100.771 47.4139C100.908 47.3688 100.648 47.4887 100.117 47.3888L101.226 41.4921L102.334 35.5954C98.5071 34.8759 95.0852 36.6117 93.0241 38.0723C90.7828 39.6607 88.7045 41.9269 87.4446 44.4317L92.8047 47.1279ZM101.226 41.4921L100.117 47.3888C99.661 47.3031 99.449 47.1378 99.4773 47.1584C99.5027 47.177 99.6473 47.2938 99.8624 47.5702C100.313 48.1489 100.728 48.9818 100.94 49.7693L106.732 48.2031L112.524 46.6368C111.918 44.3944 110.814 42.1041 109.333 40.2008C107.948 38.421 105.624 36.214 102.334 35.5955L101.226 41.4921ZM106.732 48.2031L106.287 54.1865C116.346 54.935 126.771 55.6703 130.12 55.9052L130.54 49.9199L130.96 43.9346C127.616 43.7001 117.211 42.9662 107.178 42.2196L106.732 48.2031ZM130.54 49.9199L131.45 55.8505C131.35 55.8657 131.292 55.8553 131.213 55.8224C131.162 55.8013 131.039 55.7435 130.872 55.6061C130.709 55.4723 130.435 55.2038 130.19 54.7499L135.472 51.9033L140.753 49.0566C139.555 46.8335 137.575 45.469 135.806 44.7361C133.965 43.9735 131.81 43.6548 129.63 43.9893L130.54 49.9199ZM135.472 51.9033L130.19 54.7498C130.171 54.7147 130.226 54.8192 130.397 55.1887C130.548 55.5127 130.744 55.9465 130.987 56.4894C131.472 57.5735 132.111 59.026 132.878 60.7726C134.404 64.2532 136.418 68.8647 138.629 73.86C143.032 83.8055 148.315 95.4926 152.237 103.061L157.564 100.301L162.892 97.54C159.164 90.3477 154.023 78.989 149.602 69.0026C147.402 64.0319 145.404 59.4559 143.867 55.9522C142.421 52.6553 141.215 49.9138 140.753 49.0568L135.472 51.9033ZM157.564 100.301L152.237 103.061C157.409 113.04 165.536 129.776 170.208 139.462L175.612 136.855L181.017 134.249C176.358 124.589 168.155 107.697 162.892 97.54L157.564 100.301ZM175.612 136.855L181.608 137.083L181.912 129.098L175.916 128.87L169.92 128.642L169.617 136.627L175.612 136.855ZM175.916 128.87C180.463 132.785 180.461 132.787 180.459 132.789C180.459 132.79 180.457 132.792 180.456 132.793C180.453 132.796 180.451 132.798 180.449 132.801C180.444 132.806 180.44 132.812 180.435 132.817C180.426 132.827 180.418 132.837 180.409 132.847C180.392 132.866 180.375 132.884 180.359 132.902C180.327 132.937 180.298 132.968 180.271 132.996C180.217 133.051 180.17 133.095 180.129 133.131C180.051 133.201 179.978 133.255 179.902 133.3C179.735 133.399 179.472 133.496 179.188 133.482L179.479 127.489L179.769 121.496C177.207 121.372 175.162 122.16 173.784 122.977C173.102 123.381 172.565 123.801 172.175 124.146C171.978 124.32 171.813 124.48 171.68 124.617C171.614 124.685 171.554 124.748 171.503 124.805C171.477 124.833 171.453 124.86 171.431 124.885C171.419 124.897 171.409 124.91 171.399 124.921C171.393 124.927 171.388 124.933 171.384 124.938C171.381 124.941 171.379 124.944 171.376 124.947C171.375 124.948 171.373 124.95 171.373 124.951C171.371 124.953 171.369 124.955 175.916 128.87ZM179.479 127.489L179.188 133.482C179.685 133.506 179.99 133.6 180.094 133.636C180.147 133.655 180.151 133.661 180.103 133.637C180.079 133.624 180.041 133.605 179.989 133.576C179.963 133.561 179.934 133.544 179.901 133.524C179.884 133.514 179.867 133.504 179.849 133.492C179.839 133.487 179.83 133.481 179.82 133.475C179.816 133.472 179.811 133.469 179.806 133.466C179.803 133.464 179.801 133.463 179.798 133.461C179.797 133.46 179.795 133.459 179.795 133.459C179.793 133.457 179.791 133.456 183 128.387C186.209 123.317 186.207 123.316 186.205 123.315C186.205 123.314 186.203 123.313 186.202 123.312C186.199 123.311 186.196 123.309 186.194 123.307C186.189 123.304 186.183 123.301 186.178 123.297C186.167 123.291 186.156 123.284 186.144 123.276C186.121 123.262 186.096 123.247 186.07 123.231C186.018 123.2 185.959 123.166 185.895 123.13C185.767 123.057 185.614 122.975 185.437 122.887C185.085 122.712 184.636 122.514 184.093 122.322C183.006 121.938 181.55 121.583 179.769 121.496L179.479 127.489ZM183 128.387L177.01 128.036L175.933 146.456L181.923 146.807L187.913 147.157L188.99 128.737L183 128.387ZM181.923 146.807C177.011 143.361 177.013 143.358 177.015 143.356C177.015 143.355 177.017 143.352 177.018 143.35C177.021 143.347 177.024 143.343 177.026 143.339C177.031 143.332 177.036 143.325 177.041 143.318C177.051 143.304 177.061 143.29 177.071 143.276C177.091 143.249 177.111 143.222 177.131 143.196C177.17 143.144 177.209 143.095 177.248 143.048C177.325 142.954 177.403 142.867 177.481 142.788C177.636 142.63 177.804 142.489 177.99 142.369C178.405 142.1 178.806 142.008 179.05 142.008L179.051 148.008L179.051 154.008C181.325 154.008 183.162 153.315 184.506 152.445C185.156 152.025 185.662 151.584 186.038 151.201C186.227 151.008 186.386 150.828 186.517 150.669C186.583 150.589 186.642 150.513 186.695 150.444C186.721 150.409 186.746 150.376 186.769 150.344C186.781 150.328 186.792 150.312 186.803 150.297C186.809 150.289 186.814 150.282 186.819 150.274C186.822 150.271 186.825 150.267 186.827 150.263C186.828 150.261 186.83 150.259 186.831 150.258C186.833 150.255 186.835 150.252 181.923 146.807ZM179.051 148.008V142.008C179.005 142.008 178.906 142.001 178.756 141.972C178.609 141.943 178.454 141.9 178.305 141.85C177.996 141.745 177.85 141.656 178.034 141.754L175.226 147.056L172.417 152.358C172.596 152.453 175.483 154.008 179.051 154.008V148.008ZM175.226 147.056L181.221 147.282L181.299 145.21L175.304 144.984L169.308 144.758L169.23 146.829L175.226 147.056ZM175.304 144.984L174.296 139.07L170.57 139.704L171.577 145.619L172.585 151.534L176.311 150.899L175.304 144.984ZM171.577 145.619L166.429 142.538C166.864 141.811 167.342 141.394 167.488 141.27C167.681 141.106 167.816 141.022 167.829 141.014C167.854 140.998 167.739 141.07 167.417 141.217C166.795 141.502 165.835 141.873 164.634 142.264C162.204 143.057 159.361 143.749 157.222 143.995L157.907 149.956L158.592 155.917C161.781 155.55 165.446 154.622 168.355 153.673C169.824 153.194 171.241 152.664 172.411 152.128C172.985 151.866 173.62 151.547 174.211 151.176C174.537 150.971 175.845 150.171 176.726 148.7L171.577 145.619ZM157.907 149.956L157.236 143.994C155.791 144.156 152.877 144.13 150.107 143.877C148.752 143.754 147.65 143.595 146.938 143.44C146.563 143.359 146.481 143.317 146.584 143.358C146.635 143.379 146.881 143.478 147.211 143.691C147.48 143.866 148.245 144.395 148.862 145.428L143.712 148.506L138.562 151.584C139.269 152.767 140.192 153.442 140.68 153.759C141.229 154.115 141.754 154.351 142.14 154.505C142.912 154.813 143.716 155.02 144.39 155.166C145.775 155.467 147.418 155.682 149.017 155.827C152.153 156.113 155.978 156.211 158.579 155.918L157.907 149.956ZM143.712 148.506L148.864 145.431C148.962 145.595 149.035 145.737 149.086 145.841C149.139 145.947 149.179 146.038 149.209 146.108C149.266 146.244 149.304 146.349 149.323 146.405C149.361 146.514 149.376 146.573 149.369 146.547C149.356 146.501 149.321 146.362 149.262 146.093L143.402 147.383L137.543 148.673C137.62 149.024 137.705 149.389 137.796 149.721C137.806 149.755 138.035 150.701 138.56 151.581L143.712 148.506ZM143.402 147.383L143.039 141.394L120.947 142.735L121.311 148.724L121.674 154.713L143.766 153.372L143.402 147.383ZM121.311 148.724L115.342 148.115C115.279 148.729 115.236 149.06 115.214 149.195L121.136 150.163L127.057 151.131C127.143 150.607 127.216 149.96 127.28 149.332L121.311 148.724ZM121.136 150.163L115.22 149.159C115.571 147.096 116.911 146.117 117.036 146.023C117.321 145.81 117.441 145.792 117.178 145.901C116.693 146.101 115.777 146.378 114.457 146.66C111.858 147.216 108.694 147.584 106.536 147.63L106.665 153.629L106.794 159.627C109.772 159.563 113.691 159.096 116.967 158.395C118.585 158.049 120.304 157.593 121.759 156.992C122.466 156.7 123.381 156.265 124.238 155.622C124.936 155.099 126.625 153.679 127.051 151.167L121.136 150.163ZM106.665 153.629L106.52 147.631C103.877 147.694 100.501 147.808 97.5878 147.768C96.1234 147.748 94.9546 147.691 94.1573 147.598C93.7491 147.55 93.5999 147.511 93.6272 147.519C93.6453 147.524 93.8108 147.568 94.0599 147.681C94.2751 147.779 94.8195 148.046 95.4019 148.602L91.2607 152.943L87.1196 157.285C88.4239 158.529 89.9614 158.959 90.4986 159.104C91.2757 159.314 92.0758 159.437 92.7702 159.517C94.1782 159.681 95.8278 159.745 97.4246 159.767C100.633 159.811 104.351 159.686 106.81 159.627L106.665 153.629ZM91.2607 152.943L90.906 146.954C87.1791 147.175 83.7745 147.316 81.3614 147.304C80.1109 147.297 79.3617 147.249 79.0268 147.203C78.791 147.171 79.1126 147.187 79.6397 147.402C79.8839 147.502 80.6347 147.826 81.3884 148.576C82.2728 149.457 83.2616 151.076 83.066 153.221L77.0908 152.676L71.1156 152.131C70.9101 154.385 71.9422 156.104 72.9203 157.079C73.7677 157.923 74.6626 158.332 75.0981 158.51C76.008 158.882 76.902 159.025 77.4043 159.093C78.5458 159.249 79.9364 159.296 81.2999 159.303C84.1148 159.318 87.835 159.157 91.6155 158.933L91.2607 152.943ZM77.0908 152.676L83.0658 153.223C83.0324 153.588 82.971 153.862 82.9438 153.977C82.912 154.111 82.8835 154.206 82.8729 154.24L77.1367 152.48L71.4006 150.721C71.3608 150.85 71.1806 151.421 71.1158 152.129L77.0908 152.676ZM77.1367 152.48L78.371 146.609C78.3077 146.595 78.4116 146.617 78.3223 146.598L77.0859 152.47L75.8496 158.341C75.853 158.342 75.8568 158.342 75.8665 158.344C75.8745 158.346 75.888 158.349 75.9024 158.352L77.1367 152.48ZM77.0859 152.47L71.0861 152.514L71.1017 154.639L77.1016 154.595L83.1014 154.551L83.0858 152.426L77.0859 152.47ZM77.1016 154.595L74.1699 149.36C74.2316 149.325 74.1958 149.347 74.0953 149.397C73.9921 149.448 73.8471 149.516 73.6887 149.581C73.5223 149.649 73.4026 149.687 73.3418 149.703C73.3158 149.71 73.3312 149.705 73.3842 149.696C73.4344 149.689 73.5598 149.672 73.7462 149.672L73.7471 155.672L73.748 161.672C75.6747 161.672 77.4029 161.025 78.215 160.694C79.1899 160.297 79.9097 159.899 80.0332 159.83L77.1016 154.595ZM73.7471 155.672V149.672C73.8356 149.672 73.7739 149.678 73.5202 149.637C73.2947 149.6 73.0282 149.545 72.7496 149.478C72.1893 149.344 71.766 149.21 71.8354 149.231L70.0322 154.954L68.229 160.677C68.3011 160.699 69.0176 160.924 69.9553 161.148C70.7643 161.342 72.2759 161.672 73.7471 161.672V155.672ZM70.0322 154.954L76.0195 154.563L75.747 150.393L69.7598 150.784L63.7725 151.175L64.045 155.345L70.0322 154.954ZM69.7598 150.784L71.1962 144.959C64.5189 143.312 54.5716 140.581 43.58 136.62L41.5459 142.265L39.5118 147.909C50.9966 152.048 61.3618 154.893 68.3233 156.61L69.7598 150.784ZM41.5459 142.265L43.58 136.62C35.5584 133.729 30.6106 131.67 27.5983 130.274L25.0752 135.718L22.5521 141.161C25.9909 142.755 31.2911 144.947 39.5118 147.909L41.5459 142.265ZM25.0752 135.718L19.0896 136.133L19.1462 136.949L25.1318 136.534L31.1174 136.119L31.0608 135.302L25.0752 135.718ZM25.1318 136.534L21.1851 132.015C21.2915 131.922 21.3389 131.888 21.3429 131.885C21.3448 131.883 21.3287 131.895 21.3083 131.906C21.2847 131.918 21.3029 131.905 21.3699 131.885C21.4378 131.864 21.6119 131.818 21.873 131.818V137.818V143.818C24.1323 143.818 25.9495 143.038 27.0168 142.461C28.1283 141.86 28.8676 141.238 29.0786 141.053L25.1318 136.534ZM21.873 137.818L21.8732 131.818C21.9438 131.818 21.8111 131.819 21.5116 131.71C21.3946 131.668 21.302 131.626 21.2529 131.603C21.2299 131.592 21.2215 131.588 21.2303 131.592C21.2348 131.594 21.2439 131.599 21.258 131.607C21.2651 131.611 21.2734 131.615 21.283 131.62C21.2879 131.623 21.293 131.626 21.2985 131.629C21.3013 131.63 21.3041 131.632 21.307 131.634C21.3085 131.635 21.31 131.635 21.3115 131.636C21.3122 131.637 21.3134 131.637 21.3137 131.637C21.3149 131.638 21.316 131.639 18.3936 136.879C15.4711 142.119 15.4722 142.12 15.4734 142.12C15.4738 142.121 15.475 142.121 15.4758 142.122C15.4774 142.123 15.479 142.123 15.4807 142.124C15.484 142.126 15.4875 142.128 15.491 142.13C15.4982 142.134 15.5058 142.138 15.5138 142.143C15.53 142.151 15.548 142.161 15.5678 142.172C15.6075 142.193 15.6545 142.218 15.7086 142.246C15.8165 142.302 15.9537 142.371 16.1167 142.448C16.4395 142.601 16.8802 142.795 17.4086 142.987C18.4001 143.348 20.0071 143.818 21.8729 143.818L21.873 137.818ZM18.3936 136.879L24.3843 136.547L23.3902 118.624L17.3994 118.956L11.4086 119.288L12.4028 137.211L18.3936 136.879ZM17.3994 118.956C21.7271 123.112 21.7253 123.114 21.7235 123.116C21.723 123.116 21.7212 123.118 21.72 123.119C21.7176 123.122 21.7152 123.124 21.7129 123.127C21.7081 123.132 21.7034 123.136 21.6988 123.141C21.6895 123.151 21.6803 123.16 21.6712 123.169C21.6531 123.188 21.6355 123.205 21.6184 123.222C21.5842 123.256 21.5518 123.286 21.5212 123.315C21.4603 123.371 21.4054 123.418 21.3561 123.458C21.259 123.537 21.1753 123.593 21.101 123.635C20.9447 123.724 20.8027 123.763 20.7032 123.769L20.3125 117.782L19.9218 111.795C17.917 111.926 16.3185 112.552 15.1819 113.196C14.6176 113.516 14.1629 113.843 13.8172 114.122C13.6436 114.262 13.4952 114.392 13.3716 114.507C13.3098 114.564 13.2539 114.617 13.204 114.666C13.179 114.691 13.1555 114.714 13.1335 114.737C13.1225 114.748 13.1118 114.759 13.1015 114.769C13.0964 114.775 13.0913 114.78 13.0863 114.785C13.0839 114.788 13.0814 114.79 13.0789 114.793C13.0777 114.794 13.0759 114.796 13.0753 114.796C13.0735 114.798 13.0717 114.8 17.3994 118.956ZM20.3125 117.782L20.6598 123.772C20.3608 123.789 20.3031 123.715 20.5043 123.8C20.5694 123.827 20.6199 123.854 20.6385 123.865C20.6458 123.869 20.6401 123.866 20.6191 123.853C20.6085 123.846 20.5936 123.836 20.5741 123.823C20.5643 123.817 20.5534 123.81 20.5412 123.801C20.5351 123.797 20.5287 123.793 20.522 123.788C20.5186 123.786 20.5152 123.784 20.5116 123.781C20.5099 123.78 20.5081 123.779 20.5063 123.778C20.5054 123.777 20.504 123.776 20.5036 123.776C20.5022 123.775 20.5008 123.774 23.9033 118.832C27.3058 113.89 27.3044 113.889 27.303 113.888C27.3025 113.888 27.3011 113.887 27.3002 113.886C27.2983 113.885 27.2963 113.884 27.2944 113.882C27.2904 113.879 27.2864 113.877 27.2822 113.874C27.2739 113.868 27.265 113.862 27.2557 113.856C27.237 113.843 27.2163 113.829 27.1938 113.814C27.1487 113.785 27.0957 113.75 27.0352 113.712C26.9146 113.636 26.7624 113.543 26.5819 113.44C26.225 113.237 25.7351 112.981 25.1407 112.732C24.0228 112.263 22.1697 111.664 19.9652 111.792L20.3125 117.782ZM23.9033 118.832L17.9177 119.246L18.2243 123.675L24.21 123.261L30.1956 122.846L29.889 118.418L23.9033 118.832ZM24.21 123.261L29.6112 125.873C34.5338 115.697 42.5976 99.0849 49.4197 85.3346L44.0449 82.6679L38.6701 80.0012C31.8197 93.8085 23.734 110.466 18.8087 120.648L24.21 123.261ZM44.0449 82.6679L49.4197 85.3346C54.8686 74.3523 58.7109 64.8623 61.4001 58.0079C62.7676 54.5224 63.7713 51.8899 64.5738 49.9687C64.9741 49.0105 65.2572 48.3937 65.449 48.0276C65.5447 47.845 65.5645 47.8279 65.5102 47.9065C65.5045 47.9148 65.1944 48.388 64.5467 48.8738L60.9463 44.0742L57.3458 39.2745C56.4703 39.9313 55.9122 40.6875 55.6365 41.0867C55.3122 41.5562 55.04 42.0378 54.82 42.4578C54.3803 43.2968 53.9369 44.3 53.501 45.3434C52.6314 47.4253 51.525 50.3222 50.2291 53.6251C47.5917 60.3475 43.8947 69.4707 38.6701 80.0012L44.0449 82.6679ZM60.9463 44.0742L64.5563 48.8666C63.3809 49.752 62.3545 49.715 62.8619 49.6684C63.0671 49.6496 63.5346 49.6379 64.3551 49.6855C65.9765 49.7795 68.2123 50.0542 70.9911 50.4454C76.3543 51.2004 83.4996 52.3606 89.9447 52.9108L90.4551 46.9326L90.9654 40.9543C84.9556 40.4413 78.4097 39.3714 72.6638 38.5626C69.8881 38.1718 67.2149 37.8312 65.0501 37.7056C63.9776 37.6434 62.8327 37.6207 61.7659 37.7186C61.0013 37.7887 59.0432 37.9959 57.3363 39.2817L60.9463 44.0742ZM90.4551 46.9326L89.9447 52.9108C90.6862 52.9741 91.4815 53.0396 92.3151 53.1079L92.8047 47.1279L93.2942 41.1479C92.4617 41.0797 91.6844 41.0157 90.9654 40.9543L90.4551 46.9326Z" fill="white" mask="url(#path-1-outside-1_1062_19644)"/>
<path d="M130.305 68.6252L105.768 145.454L119.451 148.837L148.808 147.056L147.385 97.4429L130.305 68.6252Z" fill="#173A50"/>
<path d="M60.9466 44.0744C59.1238 45.4414 54.719 61.1551 44.0453 82.6683C33.3716 104.181 19.6738 132.654 19.6738 132.654C19.6738 132.654 21.2756 134.96 41.5459 142.265C61.8163 149.569 78.5658 152.773 78.5658 152.773C78.5658 152.773 123.718 82.4889 124.078 80.9008C124.437 79.2991 131.645 49.9981 131.645 49.9981C131.645 49.9981 102.91 47.996 90.4547 46.9327C77.9997 45.8694 63.073 42.4726 60.9466 44.0744Z" fill="#4B9AE8"/>
<path d="M80.2555 70.511C85.3672 70.511 89.511 66.3672 89.511 61.2555C89.511 56.1438 85.3672 52 80.2555 52C75.1438 52 71 56.1438 71 61.2555C71 66.3672 75.1438 70.511 80.2555 70.511Z" fill="white"/>
<path d="M80.1124 66.8712C83.1769 66.8712 85.6612 64.3869 85.6612 61.3223C85.6612 58.2577 83.1769 55.7734 80.1124 55.7734C77.0478 55.7734 74.5635 58.2577 74.5635 61.3223C74.5635 64.3869 77.0478 66.8712 80.1124 66.8712Z" fill="black"/>
<path d="M164.041 146.904L179.202 144.322C179.202 144.322 165.214 115.062 157.565 100.301C149.915 85.54 136.714 54.2095 135.472 51.9034C134.229 49.5973 129.065 48.5205 126.759 52.6214C124.453 56.7224 105.204 98.9618 101.586 105.714C97.5129 113.308 77.2701 150.715 77.0905 152.676C76.9111 154.636 111.169 151.392 111.169 151.392L120.006 125.363L130.68 79.1194L132.461 79.4784L140.995 117.189L164.041 146.904Z" fill="#2B7CCC"/>
<path d="M121.136 150.163C120.832 151.958 111.802 153.518 106.665 153.629C101.515 153.753 92.3045 154.112 91.2275 152.911C90.1505 151.709 102.826 140.469 110.973 125.75C119.106 111.03 123.898 100.867 125.085 96.794C126.286 92.7206 128.675 80.528 129.628 78.4843C130.581 76.4407 132.5 76.8135 133.094 78.7191C133.688 80.6385 139.915 104.209 142.069 109.829C144.223 115.449 153.074 127.172 155.712 130.886C158.349 134.601 171.384 144.488 171.619 145.44C171.853 146.393 163.555 149.307 157.907 149.956C153.861 150.411 144.43 149.707 143.712 148.506C142.994 147.304 138.12 115.449 136.325 104.803C134.53 94.1567 131.423 79.9204 131.423 79.9204C131.423 79.9204 124.367 114.137 123.401 123.237C122.448 132.336 121.605 147.291 121.136 150.163Z" fill="#276288"/>
<path d="M17.3994 118.956C17.3994 118.956 18.4074 117.907 20.3129 117.782C22.2184 117.672 23.9031 118.832 23.9031 118.832L25.132 136.534C25.132 136.534 23.6684 137.818 21.8732 137.818C20.078 137.818 18.3936 136.879 18.3936 136.879L17.3994 118.956Z" fill="#276288"/>
<path d="M68.8447 136.755C68.8447 136.755 70.405 135.443 72.7939 135.443C75.1827 135.443 76.9777 136.644 76.9777 136.644L77.102 154.595C77.102 154.595 75.1826 155.672 73.7466 155.672C72.3106 155.672 70.0322 154.954 70.0322 154.954L68.8447 136.755Z" fill="#276288"/>
<path d="M175.916 128.87C175.916 128.87 177.2 127.379 179.479 127.489C181.757 127.6 183 128.387 183 128.387L181.923 146.807C181.923 146.807 181.08 148.008 179.051 148.008C177.021 148.008 175.226 147.055 175.226 147.055L175.916 128.87Z" fill="#276288"/>
<path d="M106.982 51.5025C107.615 48.1169 104.662 42.1386 101.225 41.4924C97.7884 40.8462 92.8733 45.3407 92.2424 48.719C91.61 52.1047 93.3379 55.2688 98.462 56.2354C103.648 57.2148 106.342 54.8866 106.982 51.5025Z" fill="#EAC00F"/>
</svg>
