<svg width="200" height="200" viewBox="0 0 200 200" fill="none" xmlns="http://www.w3.org/2000/svg">
<mask id="path-1-outside-1_1347_7657" maskUnits="userSpaceOnUse" x="15.8911" y="15.8911" width="168" height="168" fill="black">
<rect fill="white" x="15.8911" y="15.8911" width="168" height="168"/>
<path d="M95.064 24.9351C97.7898 22.2095 102.209 22.2095 104.935 24.9351L175.063 95.064C177.789 97.7898 177.789 102.209 175.063 104.935L104.935 175.063C102.209 177.789 97.7898 177.789 95.064 175.063L24.9351 104.935C22.2095 102.209 22.2096 97.7898 24.9351 95.064L95.064 24.9351Z"/>
</mask>
<path d="M95.064 24.9351C97.7898 22.2095 102.209 22.2095 104.935 24.9351L175.063 95.064C177.789 97.7898 177.789 102.209 175.063 104.935L104.935 175.063C102.209 177.789 97.7898 177.789 95.064 175.063L24.9351 104.935C22.2095 102.209 22.2096 97.7898 24.9351 95.064L95.064 24.9351Z" fill="#303030"/>
<path d="M95.064 24.9351L90.8216 20.6922L90.8213 20.6924L95.064 24.9351ZM104.935 24.9351L109.178 20.6924L109.178 20.6923L104.935 24.9351ZM175.063 95.064L170.82 99.3066L170.82 99.3066L175.063 95.064ZM104.935 175.063L100.692 170.82L104.935 175.063ZM95.064 175.063L99.3066 170.82L99.3066 170.82L95.064 175.063ZM24.9351 104.935L20.6923 109.178L20.6924 109.178L24.9351 104.935ZM24.9351 95.064L20.6924 90.8213L20.6921 90.8217L24.9351 95.064ZM95.064 24.9351L99.3064 29.1779C99.6892 28.7951 100.31 28.7953 100.693 29.1778L104.935 24.9351L109.178 20.6923C104.109 15.6236 95.8904 15.6239 90.8216 20.6922L95.064 24.9351ZM104.935 24.9351L100.692 29.1777L170.82 99.3066L175.063 95.064L179.306 90.8214L109.178 20.6924L104.935 24.9351ZM175.063 95.064L170.82 99.3066C171.203 99.6893 171.203 100.31 170.82 100.692L175.063 104.935L179.306 109.178C184.375 104.109 184.375 95.8903 179.306 90.8213L175.063 95.064ZM175.063 104.935L170.82 100.692L100.692 170.82L104.935 175.063L109.178 179.306L179.306 109.178L175.063 104.935ZM104.935 175.063L100.692 170.82C100.31 171.203 99.6893 171.203 99.3066 170.82L95.064 175.063L90.8213 179.306C95.8903 184.375 104.109 184.375 109.178 179.306L104.935 175.063ZM95.064 175.063L99.3066 170.82L29.1777 100.692L24.9351 104.935L20.6924 109.178L90.8214 179.306L95.064 175.063ZM24.9351 104.935L29.1778 100.693C28.7954 100.31 28.7951 99.6892 29.178 99.3063L24.9351 95.064L20.6921 90.8217C15.6241 95.8904 15.6236 104.109 20.6923 109.178L24.9351 104.935ZM24.9351 95.064L29.1777 99.3066L99.3066 29.1777L95.064 24.9351L90.8213 20.6924L20.6924 90.8213L24.9351 95.064Z" fill="white" mask="url(#path-1-outside-1_1347_7657)"/>
<path d="M95.0639 24.9357L24.9356 95.0639C22.2098 97.7898 22.2098 102.209 24.9356 104.935L95.0639 175.063C97.7897 177.789 102.209 177.789 104.935 175.063L175.063 104.935C177.789 102.209 177.789 97.7898 175.063 95.0639L104.935 24.9357C102.209 22.2098 97.7897 22.2098 95.0639 24.9357Z" fill="#FAB80C"/>
<path d="M31.8992 96.4716L96.4779 31.8928C98.4263 29.9445 101.585 29.9445 103.534 31.8928L168.113 96.4716C170.061 98.4199 170.061 101.579 168.113 103.527L103.534 168.106C101.585 170.055 98.4263 170.055 96.4779 168.106L31.8992 103.527C29.9508 101.579 29.9508 98.4199 31.8992 96.4716Z" stroke="#262728" stroke-width="2.87718"/>
<mask id="path-5-outside-2_1347_7657" maskUnits="userSpaceOnUse" x="66.0703" y="65.9893" width="68" height="72" fill="black">
<rect fill="white" x="66.0703" y="65.9893" width="68" height="72"/>
<path d="M78.9902 70C79.4555 69.8864 80.2978 70.6846 81.2559 71.8643C83.1951 74.121 85.8025 78.4511 86.5205 79.6631C88.3167 79.3558 93.2817 79.1816 95.5 79.1963C95.51 79.2162 95.5181 79.2406 95.5264 79.2686C96.5964 79.2453 97.6319 79.2436 98.6279 79.2588C103.06 79.1007 107.067 79.5926 109.056 79.8604C109.526 79.8911 109.953 79.9158 110.334 79.9268C110.866 79.7349 111.755 78.7346 112.808 77.4414C114.719 75.0601 117.115 71.7073 119.039 70.5146C119.467 70.2345 119.857 70.0752 120.195 70.0791C120.272 70.0731 120.347 70.0711 120.421 70.0771C122.935 70.2845 124.441 88.9704 124.734 89.9229C125.004 90.0648 125.752 90.5328 126.636 91.7295C127.23 92.4898 127.879 93.5059 128.477 94.8213L129.052 96.835C129.05 96.837 129.048 96.8388 129.047 96.8408C129.358 97.849 129.648 98.9984 129.899 100.309C134.1 122.215 109.304 133.874 96.207 134.714C83.1161 135.554 74.0644 123.463 70.8535 115.154C69.4601 111.554 70.117 106.48 71.333 101.776C71.3149 101.77 71.3043 101.767 71.3027 101.766C72.8076 95.7895 74.9187 90.7791 75.2861 89.667C75.9977 87.5185 77.4213 70.3863 78.9902 70Z"/>
</mask>
<path d="M78.9902 70C79.4555 69.8864 80.2978 70.6846 81.2559 71.8643C83.1951 74.121 85.8025 78.4511 86.5205 79.6631C88.3167 79.3558 93.2817 79.1816 95.5 79.1963C95.51 79.2162 95.5181 79.2406 95.5264 79.2686C96.5964 79.2453 97.6319 79.2436 98.6279 79.2588C103.06 79.1007 107.067 79.5926 109.056 79.8604C109.526 79.8911 109.953 79.9158 110.334 79.9268C110.866 79.7349 111.755 78.7346 112.808 77.4414C114.719 75.0601 117.115 71.7073 119.039 70.5146C119.467 70.2345 119.857 70.0752 120.195 70.0791C120.272 70.0731 120.347 70.0711 120.421 70.0771C122.935 70.2845 124.441 88.9704 124.734 89.9229C125.004 90.0648 125.752 90.5328 126.636 91.7295C127.23 92.4898 127.879 93.5059 128.477 94.8213L129.052 96.835C129.05 96.837 129.048 96.8388 129.047 96.8408C129.358 97.849 129.648 98.9984 129.899 100.309C134.1 122.215 109.304 133.874 96.207 134.714C83.1161 135.554 74.0644 123.463 70.8535 115.154C69.4601 111.554 70.117 106.48 71.333 101.776C71.3149 101.77 71.3043 101.767 71.3027 101.766C72.8076 95.7895 74.9187 90.7791 75.2861 89.667C75.9977 87.5185 77.4213 70.3863 78.9902 70Z" fill="#303030"/>
<path d="M78.9902 70L78.2787 67.0856L78.273 67.087L78.9902 70ZM81.2559 71.8643L78.9271 73.7555C78.9446 73.7771 78.9624 73.7984 78.9805 73.8195L81.2559 71.8643ZM86.5205 79.6631L83.9395 81.1922C84.5731 82.2618 85.8009 82.8298 87.0264 82.6201L86.5205 79.6631ZM95.5 79.1963L98.1789 77.8458C97.6722 76.8407 96.6454 76.2038 95.5198 76.1964L95.5 79.1963ZM95.5264 79.2686L92.6486 80.1161C93.0313 81.4156 94.2373 82.2973 95.5916 82.2678L95.5264 79.2686ZM98.6279 79.2588L98.5823 82.2584C98.6332 82.2592 98.684 82.2587 98.7348 82.2569L98.6279 79.2588ZM109.056 79.8604L108.655 82.8335C108.723 82.8427 108.791 82.8495 108.86 82.8539L109.056 79.8604ZM110.334 79.9268L110.248 82.9255C110.624 82.9363 110.998 82.8764 111.352 82.7488L110.334 79.9268ZM112.808 77.4414L115.134 79.3352C115.139 79.3299 115.143 79.3246 115.147 79.3193L112.808 77.4414ZM119.039 70.5146L120.619 73.0646C120.64 73.0517 120.661 73.0385 120.682 73.025L119.039 70.5146ZM120.195 70.0791L120.161 73.0789C120.25 73.0799 120.34 73.077 120.429 73.07L120.195 70.0791ZM120.421 70.0771L120.667 67.0873L120.667 67.0872L120.421 70.0771ZM124.734 89.9229L121.867 90.8059C122.102 91.5678 122.63 92.205 123.336 92.5768L124.734 89.9229ZM126.636 91.7295L124.223 93.5119C124.239 93.5336 124.255 93.5552 124.272 93.5765L126.636 91.7295ZM128.477 94.8213L131.361 93.9973C131.32 93.8545 131.269 93.715 131.208 93.5798L128.477 94.8213ZM129.052 96.835L131.498 98.5715C132.025 97.8288 132.187 96.8868 131.936 96.011L129.052 96.835ZM129.047 96.8408L126.602 95.1026C126.061 95.8633 125.905 96.8323 126.18 97.7243L129.047 96.8408ZM129.899 100.309L126.953 100.873L126.953 100.874L129.899 100.309ZM96.207 134.714L96.015 131.72H96.015L96.207 134.714ZM70.8535 115.154L73.6519 114.073L73.6513 114.072L70.8535 115.154ZM71.333 101.776L74.2375 102.527C74.6218 101.041 73.8217 99.504 72.3835 98.9663L71.333 101.776ZM71.3027 101.766L68.3935 101.033C68.0708 102.315 68.6249 103.657 69.7579 104.337L71.3027 101.766ZM75.2861 89.667L72.4383 88.7238L72.4376 88.7258L75.2861 89.667ZM78.9902 70L79.7018 72.9144C79.2591 73.0225 78.8787 72.9954 78.6192 72.9459C78.3656 72.8974 78.1866 72.8204 78.0967 72.7768C77.9323 72.697 77.8901 72.6428 77.9865 72.7255C78.1702 72.8828 78.4867 73.2132 78.9271 73.7555L81.2559 71.8643L83.5846 69.973C83.067 69.3356 82.4834 68.6772 81.89 68.1689C81.598 67.9187 81.1981 67.6125 80.7149 67.3782C80.2795 67.167 79.3748 66.818 78.2787 67.0856L78.9902 70ZM81.2559 71.8643L78.9805 73.8195C80.716 75.8391 83.1898 79.9269 83.9395 81.1922L86.5205 79.6631L89.1016 78.134C88.4151 76.9753 85.6741 72.4029 83.5312 69.9091L81.2559 71.8643ZM86.5205 79.6631L87.0264 82.6201C88.5368 82.3617 93.2669 82.1816 95.4802 82.1962L95.5 79.1963L95.5198 76.1964C93.2964 76.1817 88.0967 76.3499 86.0147 76.706L86.5205 79.6631ZM95.5 79.1963L92.8211 80.5467C92.7532 80.4119 92.7107 80.3002 92.6881 80.2368C92.6653 80.1731 92.6514 80.1257 92.6486 80.1161L95.5264 79.2686L98.4041 78.421C98.391 78.3764 98.3204 78.1266 98.1789 77.8458L95.5 79.1963ZM95.5264 79.2686L95.5916 82.2678C96.6227 82.2454 97.6211 82.2438 98.5823 82.2584L98.6279 79.2588L98.6735 76.2591C97.6427 76.2435 96.5702 76.2451 95.4611 76.2693L95.5264 79.2686ZM98.6279 79.2588L98.7348 82.2569C102.908 82.1081 106.713 82.572 108.655 82.8335L109.056 79.8604L109.456 76.8872C107.421 76.6132 103.212 76.0934 98.521 76.2607L98.6279 79.2588ZM109.056 79.8604L108.86 82.8539C109.337 82.8852 109.81 82.9129 110.248 82.9255L110.334 79.9268L110.42 76.928C110.097 76.9187 109.715 76.8971 109.252 76.8668L109.056 79.8604ZM110.334 79.9268L111.352 82.7488C111.949 82.5336 112.41 82.193 112.681 81.9736C112.988 81.7257 113.278 81.4464 113.535 81.1801C114.048 80.6483 114.599 79.9927 115.134 79.3352L112.808 77.4414L110.481 75.5477C109.963 76.1834 109.544 76.6745 109.217 77.0142C109.053 77.1835 108.954 77.2711 108.912 77.3051C108.835 77.3676 108.985 77.224 109.316 77.1047L110.334 79.9268ZM112.808 77.4414L115.147 79.3193C116.204 78.0031 117.15 76.7312 118.216 75.4608C119.298 74.1725 120.108 73.3813 120.619 73.0646L119.039 70.5146L117.459 67.9647C116.045 68.8407 114.696 70.3222 113.621 71.6037C112.53 72.9032 111.323 74.4984 110.468 75.5635L112.808 77.4414ZM119.039 70.5146L120.682 73.025C120.774 72.9647 120.787 72.9677 120.728 72.9903C120.672 73.0119 120.47 73.0825 120.161 73.0789L120.195 70.0791L120.23 67.0793C118.996 67.0651 117.991 67.615 117.397 68.0043L119.039 70.5146ZM120.195 70.0791L120.429 73.07C120.413 73.0712 120.316 73.0787 120.175 73.0671L120.421 70.0771L120.667 67.0872C120.378 67.0635 120.131 67.075 119.962 67.0882L120.195 70.0791ZM120.421 70.0771L120.174 73.067C119.38 73.0015 118.908 72.5935 118.764 72.4501C118.618 72.3051 118.599 72.2294 118.665 72.3554C118.796 72.6022 118.994 73.1082 119.224 73.9352C119.673 75.5492 120.084 77.7871 120.444 80.1686C120.8 82.525 121.089 84.9153 121.311 86.799C121.42 87.7298 121.515 88.5581 121.59 89.1717C121.628 89.4787 121.664 89.7562 121.697 89.9807C121.716 90.1091 121.768 90.483 121.867 90.8059L124.734 89.9229L127.601 89.0398C127.664 89.2436 127.67 89.36 127.633 89.1098C127.611 88.9559 127.582 88.7341 127.545 88.4386C127.473 87.8472 127.382 87.0578 127.27 86.0995C127.047 84.2053 126.748 81.7326 126.377 79.2725C126.009 76.8376 125.554 74.3056 125.005 72.3279C124.735 71.3591 124.4 70.3638 123.967 69.5453C123.751 69.1387 123.441 68.6393 122.997 68.1973C122.554 67.757 121.776 67.1787 120.667 67.0873L120.421 70.0771ZM124.734 89.9229L123.336 92.5768C123.207 92.509 123.608 92.6798 124.223 93.5119L126.636 91.7295L129.049 89.9471C127.896 88.3859 126.8 87.6206 126.133 87.2689L124.734 89.9229ZM126.636 91.7295L124.272 93.5765C124.72 94.1499 125.245 94.9628 125.745 96.0628L128.477 94.8213L131.208 93.5798C130.512 92.0491 129.74 90.8297 129 89.8825L126.636 91.7295ZM128.477 94.8213L125.592 95.6453L126.167 97.6589L129.052 96.835L131.936 96.011L131.361 93.9973L128.477 94.8213ZM129.052 96.835L126.605 95.0985C126.639 95.0516 126.67 95.011 126.696 94.9774C126.723 94.9439 126.746 94.9157 126.764 94.8943C126.782 94.873 126.797 94.8561 126.806 94.8461C126.811 94.8409 126.814 94.8368 126.816 94.8343C126.818 94.8321 126.82 94.8302 126.82 94.8306C126.82 94.8306 126.82 94.8306 126.82 94.8307C126.82 94.8307 126.82 94.8308 126.82 94.8309C126.819 94.8311 126.819 94.8314 126.819 94.8317C126.818 94.8324 126.817 94.8335 126.816 94.8348C126.814 94.8375 126.81 94.8418 126.805 94.8471C126.796 94.8575 126.781 94.8747 126.762 94.8963C126.744 94.9181 126.72 94.9466 126.693 94.9805C126.666 95.0145 126.635 95.0554 126.602 95.1026L129.047 96.8408L131.492 98.579C131.459 98.6257 131.428 98.6661 131.402 98.6996C131.375 98.733 131.352 98.761 131.334 98.7823C131.316 98.8034 131.301 98.8202 131.292 98.8301C131.288 98.8352 131.284 98.8393 131.282 98.8417C131.28 98.8438 131.278 98.8457 131.279 98.8452C131.279 98.8452 131.279 98.845 131.279 98.8448C131.279 98.8446 131.28 98.8443 131.28 98.844C131.281 98.8433 131.282 98.8421 131.283 98.8408C131.285 98.8381 131.289 98.8337 131.294 98.8283C131.303 98.8177 131.319 98.8004 131.337 98.7786C131.356 98.7567 131.379 98.7281 131.406 98.694C131.433 98.6599 131.464 98.6188 131.498 98.5715L129.052 96.835ZM129.047 96.8408L126.18 97.7243C126.457 98.6225 126.722 99.6652 126.953 100.873L129.899 100.309L132.846 99.7441C132.575 98.3316 132.258 97.0754 131.914 95.9574L129.047 96.8408ZM129.899 100.309L126.953 100.874C128.779 110.396 124.413 117.755 117.683 123.054C110.861 128.427 101.972 131.338 96.015 131.72L96.207 134.714L96.3991 137.708C103.539 137.25 113.596 133.911 121.396 127.768C129.289 121.552 135.22 112.127 132.846 99.7437L129.899 100.309ZM96.207 134.714L96.015 131.72C90.5142 132.073 85.7456 129.735 81.8563 126.157C77.9422 122.556 75.1164 117.863 73.6519 114.073L70.8535 115.154L68.0552 116.236C69.8015 120.755 73.107 126.261 77.7942 130.573C82.5063 134.908 88.8089 138.195 96.3991 137.708L96.207 134.714ZM70.8535 115.154L73.6513 114.072C73.1703 112.829 72.9811 111.141 73.109 109.063C73.2354 107.012 73.6581 104.768 74.2375 102.527L71.333 101.776L68.4285 101.026C67.7919 103.488 67.2782 106.133 67.1204 108.695C66.9642 111.23 67.1433 113.879 68.0557 116.237L70.8535 115.154ZM71.333 101.776L72.3835 98.9663C72.3314 98.9468 72.2901 98.9328 72.2703 98.9261C72.2489 98.9189 72.2753 98.9277 72.293 98.9339C72.3029 98.9373 72.3436 98.9515 72.3954 98.9717C72.4218 98.982 72.4699 99.0012 72.5291 99.0278C72.5597 99.0415 72.6012 99.0607 72.6498 99.0851C72.6964 99.1085 72.7659 99.1449 72.8475 99.1939L71.3027 101.766L69.7579 104.337C69.9068 104.427 70.0307 104.483 70.0771 104.504C70.1367 104.531 70.1852 104.55 70.2121 104.56C70.2648 104.581 70.3068 104.596 70.3181 104.6C70.3388 104.607 70.3693 104.617 70.353 104.612C70.3434 104.608 70.3164 104.599 70.2825 104.586L71.333 101.776ZM71.3027 101.766L74.2119 102.498C75.6885 96.6341 77.6546 92.0611 78.1347 90.6082L75.2861 89.667L72.4376 88.7258C72.1827 89.4971 69.9266 94.945 68.3935 101.033L71.3027 101.766ZM75.2861 89.667L78.134 90.6102C78.3096 90.08 78.4417 89.3441 78.5461 88.7039C78.6632 87.9863 78.7878 87.1055 78.9176 86.1427C79.1832 84.1724 79.4667 81.8926 79.788 79.5867C80.1075 77.2933 80.4422 75.1432 80.7822 73.566C80.9556 72.762 81.1066 72.2215 81.2199 71.9181C81.2804 71.7564 81.2846 71.7874 81.2047 71.9089C81.2024 71.9124 80.7584 72.6542 79.7075 72.913L78.9902 70L78.273 67.087C77.026 67.394 76.3869 68.315 76.1911 68.6129C75.9176 69.0289 75.7297 69.4697 75.5996 69.8176C75.3321 70.5335 75.1089 71.4116 74.917 72.3016C74.5266 74.1125 74.1668 76.4522 73.8454 78.7586C73.5257 81.0526 73.2218 83.4829 72.9714 85.3412C72.8431 86.2928 72.7275 87.1059 72.6244 87.7379C72.5728 88.0539 72.5276 88.305 72.4888 88.4943C72.4454 88.706 72.4261 88.7604 72.4383 88.7238L75.2861 89.667Z" fill="white" mask="url(#path-5-outside-2_1347_7657)"/>
<path d="M86.7129 79.9838C86.7129 79.9838 80.9643 70.0978 79.4106 70.4833C77.857 70.8689 76.309 87.3781 75.607 89.49C74.905 91.6018 67.7293 107.081 70.8539 115.154C74.0648 123.464 82.9088 135.84 96 135C109.097 134.16 134.1 122.215 129.899 100.308C128.167 91.268 124.628 89.8697 124.628 89.8697C124.628 89.8697 122.787 70.2877 120.267 70.0805C117.746 69.8734 112.09 79.2932 110.335 79.9262C106.376 79.8127 97.403 78.421 86.7129 79.9895V79.9838Z" fill="#4B9AE8"/>
<path d="M95.5 79.1962C96.2058 80.5952 92.3994 102.134 92.3527 103.217C92.3061 104.3 91.297 104.804 90.3171 104.347C88.8706 103.668 89 87.9 85 87.5001C81.897 87.1899 78.7152 91.4174 76.5519 95.5496C72.8073 102.702 71.3025 101.766 71.3025 101.766C72.8073 95.7896 74.9188 90.7792 75.2862 89.6671C75.9978 87.5189 77.421 70.3864 78.99 70.0001C80.5648 69.6138 86.4792 79.6697 86.4792 79.6697C88.2393 79.3579 93.2644 79.1815 95.5 79.1962Z" fill="#276288"/>
<path d="M129.052 96.835C127.222 99.4129 124.678 100.636 120.851 101.741C117.024 102.846 114.538 99.7269 113.744 97.8337C112.95 95.9405 110.798 89.4899 106.851 89.4266C102.909 89.3633 102.276 92.1484 100.596 96.1016C98.9212 100.055 97.4883 105.044 95.411 103.939C93.3222 101.171 96.5401 80.4349 97.9787 79.2841C103.733 78.9964 108.912 79.8595 110.113 80.0009C111.966 79.7765 117.424 69.8308 120.421 70.0773C122.941 70.2844 124.449 89.0665 124.737 89.9298C125.312 90.2173 127.038 91.6559 128.477 94.821L129.052 96.835Z" fill="#276288"/>
<path d="M119.189 74.7565C118.234 74.6894 110.924 84.8914 117.399 86.1159C123.873 87.3405 120.144 74.8237 119.189 74.7565Z" fill="#81CDFD"/>
<path d="M81.3426 75.9605C80.4639 76.2638 78.5764 83.922 80.4175 85.7684C82.2643 87.6153 83.7251 82.246 83.7193 81.2165C83.7142 80.1813 82.2213 75.6571 81.3426 75.9605Z" fill="#81CDFD"/>
<path d="M86.7246 121.766C86.7246 121.766 90.534 125.253 93.0084 121.145C93.1695 120.708 93.2903 120.293 93.3882 119.908C93.837 118.135 93.7219 116.961 93.7219 116.961" stroke="#1C4771" stroke-width="2.26146" stroke-miterlimit="10" stroke-linecap="round"/>
<path d="M102.722 120.638C102.722 120.638 98.6245 123.619 96.1329 122.957C93.6413 122.295 93.3823 119.913 93.3823 119.913" stroke="#1C4771" stroke-width="2.26146" stroke-miterlimit="10" stroke-linecap="round"/>
<path d="M83.088 103.83C85.9549 103.83 88.279 101.506 88.279 98.6392C88.279 95.7723 85.9549 93.4482 83.088 93.4482C80.2211 93.4482 77.897 95.7723 77.897 98.6392C77.897 101.506 80.2211 103.83 83.088 103.83Z" fill="#F4F7F9"/>
<path d="M83.0071 101.789C84.7259 101.789 86.1192 100.395 86.1192 98.6766C86.1192 96.9578 84.7259 95.5645 83.0071 95.5645C81.2884 95.5645 79.895 96.9578 79.895 98.6766C79.895 100.395 81.2884 101.789 83.0071 101.789Z" fill="#262728"/>
<path d="M106.91 104.628C109.777 104.628 112.101 102.304 112.101 99.4366C112.101 96.5697 109.777 94.2456 106.91 94.2456C104.043 94.2456 101.719 96.5697 101.719 99.4366C101.719 102.304 104.043 104.628 106.91 104.628Z" fill="#F4F7F9"/>
<path d="M106.829 102.586C108.548 102.586 109.941 101.193 109.941 99.4739C109.941 97.7552 108.548 96.3618 106.829 96.3618C105.11 96.3618 103.717 97.7552 103.717 99.4739C103.717 101.193 105.11 102.586 106.829 102.586Z" fill="#262728"/>
<path d="M88.2063 108.709C87.0842 109.664 89.2249 115.953 93.0285 117.622C96.8264 119.291 100.153 109.923 99.4169 108.703C98.7379 107.581 90.5829 106.677 88.2121 108.703L88.2063 108.709Z" fill="#1C4771"/>
<path d="M100.657 46.6362V46.6372C101.414 46.6228 102.08 46.9143 102.599 47.4409C103.125 47.9751 103.394 48.6466 103.365 49.3989L103.367 49.3999L103.29 52.1919L103.289 52.2261L103.286 52.2603L102.435 61.0874L102.434 61.1001L102.432 61.1128C102.347 61.8062 102.04 62.402 101.533 62.8638C101.025 63.326 100.403 63.5757 99.7012 63.5757C99.0165 63.5756 98.3871 63.3442 97.8711 62.8853L97.8623 62.8774V62.8765C97.3569 62.416 97.0531 61.8264 96.959 61.1509L96.957 61.1362L96.9561 61.1216L95.9854 52.3013L95.9814 52.2651L95.9805 52.23L95.876 49.438L95.875 49.4185V49.3999C95.8751 48.6668 96.1449 48.0014 96.6582 47.4692C97.1813 46.9271 97.8481 46.6471 98.584 46.6362H100.657ZM103.87 67.6665C103.87 68.7949 103.479 69.7724 102.672 70.5376L102.667 70.5425C101.869 71.2898 100.862 71.6528 99.7227 71.6528C98.5963 71.6528 97.5829 71.3117 96.7725 70.5708C95.9483 69.8172 95.549 68.8276 95.54 67.7085C95.5311 66.5777 95.9341 65.5788 96.752 64.8022C97.5552 64.0396 98.5504 63.6607 99.6797 63.6519C100.741 63.6436 101.69 63.9684 102.474 64.6294L102.629 64.7661L102.633 64.77C103.451 65.5372 103.861 66.5258 103.87 67.6587V67.6665Z" fill="#262728" stroke="white" stroke-width="2"/>
</svg>
