<svg width="200" height="200" viewBox="0 0 200 200" fill="none" xmlns="http://www.w3.org/2000/svg">
<mask id="path-1-outside-1_1347_16563" maskUnits="userSpaceOnUse" x="22" y="14.3623" width="155" height="173" fill="black">
<rect fill="white" x="22" y="14.3623" width="155" height="173"/>
<path d="M34.5723 24C43.0711 17.9784 74.9082 21.25 74.9082 21.25L75.0049 21.2764L74.9951 21.25H114.144C117.165 21.2502 119.496 23.909 119.101 26.9043L115.002 57.9424C116.035 57.22 117.32 56.8579 118.771 56.9873C122.973 57.3596 128.13 59.0222 132.628 62.4336C139.076 56.8841 147.733 55.1276 155.588 58.2705C167.261 62.9413 172.751 76.667 167.414 90.0039C166.833 91.4559 165.243 94.2001 164.96 94.3057C165.291 94.7533 165.432 95.0054 165.434 95.0088C170.668 103.196 172.166 112.995 168.614 121.872L168.606 121.863C166.345 127.516 162.43 131.791 157.501 134.609C150.343 138.708 141.044 139.741 131.536 137.507L130.354 148.221C130.223 149.407 129.141 150.274 127.955 150.143L120.435 149.312C118.86 149.137 117.716 147.708 117.89 146.134C117.977 145.347 118.378 144.671 118.956 144.203C119.533 143.741 120.28 143.502 121.067 143.589L126.161 145.244L127.154 136.248C126.707 136.096 126.259 135.939 125.812 135.772C125.455 135.64 125.095 135.502 124.736 135.358C124.378 135.215 124.02 135.072 123.672 134.916C115.935 131.609 109.681 126.574 105.617 120.657L95.4199 124.98C94.3213 125.446 93.037 124.926 92.5713 123.827L89.6182 116.861C88.9999 115.403 89.6869 113.705 91.1455 113.087C91.8747 112.778 92.6604 112.798 93.3506 113.073C94.0362 113.351 94.6108 113.885 94.9199 114.614L95.9668 119.867L103.319 116.75C102.59 115.276 101.988 113.764 101.528 112.224C101.528 112.224 101.528 112.223 101.53 112.219C99.9063 106.778 100.021 100.983 102.283 95.3301C102.903 93.7821 103.655 92.3211 104.521 90.9492C104.016 91.202 103.493 91.4275 102.951 91.6182L72 102.607L70.7178 106.918C70.3803 107.987 70.4928 109.169 70.999 110.237L78.9297 126.943L78.9014 126.935C78.9076 126.947 78.9154 126.959 78.9189 126.971C80.5315 132.331 79.0663 138.205 74.9365 142.188L69.5361 147.306C67.9049 148.824 67.905 151.412 69.5361 152.931L82.7461 165.279C87.776 169.981 84.6569 178.318 77.9521 178.731C77.9708 178.744 77.9789 178.75 77.9746 178.75C77.9746 178.75 38.5772 184 33.0752 177C27.6446 170.09 29.7678 140.158 29.8232 139.39V131.443L29.8242 131.439V93.624L29.8232 93.6211C29.8132 93.4511 26.0855 30.0157 34.5723 24Z"/>
</mask>
<path d="M34.5723 24C43.0711 17.9784 74.9082 21.25 74.9082 21.25L75.0049 21.2764L74.9951 21.25H114.144C117.165 21.2502 119.496 23.909 119.101 26.9043L115.002 57.9424C116.035 57.22 117.32 56.8579 118.771 56.9873C122.973 57.3596 128.13 59.0222 132.628 62.4336C139.076 56.8841 147.733 55.1276 155.588 58.2705C167.261 62.9413 172.751 76.667 167.414 90.0039C166.833 91.4559 165.243 94.2001 164.96 94.3057C165.291 94.7533 165.432 95.0054 165.434 95.0088C170.668 103.196 172.166 112.995 168.614 121.872L168.606 121.863C166.345 127.516 162.43 131.791 157.501 134.609C150.343 138.708 141.044 139.741 131.536 137.507L130.354 148.221C130.223 149.407 129.141 150.274 127.955 150.143L120.435 149.312C118.86 149.137 117.716 147.708 117.89 146.134C117.977 145.347 118.378 144.671 118.956 144.203C119.533 143.741 120.28 143.502 121.067 143.589L126.161 145.244L127.154 136.248C126.707 136.096 126.259 135.939 125.812 135.772C125.455 135.64 125.095 135.502 124.736 135.358C124.378 135.215 124.02 135.072 123.672 134.916C115.935 131.609 109.681 126.574 105.617 120.657L95.4199 124.98C94.3213 125.446 93.037 124.926 92.5713 123.827L89.6182 116.861C88.9999 115.403 89.6869 113.705 91.1455 113.087C91.8747 112.778 92.6604 112.798 93.3506 113.073C94.0362 113.351 94.6108 113.885 94.9199 114.614L95.9668 119.867L103.319 116.75C102.59 115.276 101.988 113.764 101.528 112.224C101.528 112.224 101.528 112.223 101.53 112.219C99.9063 106.778 100.021 100.983 102.283 95.3301C102.903 93.7821 103.655 92.3211 104.521 90.9492C104.016 91.202 103.493 91.4275 102.951 91.6182L72 102.607L70.7178 106.918C70.3803 107.987 70.4928 109.169 70.999 110.237L78.9297 126.943L78.9014 126.935C78.9076 126.947 78.9154 126.959 78.9189 126.971C80.5315 132.331 79.0663 138.205 74.9365 142.188L69.5361 147.306C67.9049 148.824 67.905 151.412 69.5361 152.931L82.7461 165.279C87.776 169.981 84.6569 178.318 77.9521 178.731C77.9708 178.744 77.9789 178.75 77.9746 178.75C77.9746 178.75 38.5772 184 33.0752 177C27.6446 170.09 29.7678 140.158 29.8232 139.39V131.443L29.8242 131.439V93.624L29.8232 93.6211C29.8132 93.4511 26.0855 30.0157 34.5723 24Z" fill="#040000"/>
<path d="M34.5723 24L31.1035 19.1043L31.1025 19.105L34.5723 24ZM74.9082 21.25L76.4869 15.4614C76.1706 15.3751 75.8477 15.3149 75.5215 15.2814L74.9082 21.25ZM75.0049 21.2764L73.4262 27.0649C75.5952 27.6565 77.913 26.9858 79.431 25.3273C80.9489 23.6688 81.4122 21.3008 80.6314 19.1925L75.0049 21.2764ZM74.9951 21.25V15.25C73.0316 15.25 71.1922 16.2108 70.0705 17.8224C68.9488 19.434 68.6866 21.4926 69.3686 23.3339L74.9951 21.25ZM114.144 21.25L114.144 15.25H114.144V21.25ZM119.101 26.9043L125.049 27.6898L125.049 27.6897L119.101 26.9043ZM115.002 57.9424L109.054 57.1569C108.742 59.5154 109.854 61.8351 111.887 63.0703C113.92 64.3054 116.491 64.2227 118.44 62.8594L115.002 57.9424ZM118.771 56.9873L118.237 62.9636L118.241 62.9639L118.771 56.9873ZM132.628 62.4336L129.002 67.2142C131.256 68.9235 134.398 68.8265 136.542 66.9814L132.628 62.4336ZM155.588 58.2705L157.817 52.6999L157.817 52.6999L155.588 58.2705ZM167.414 90.0039L172.985 92.2329L172.985 92.2329L167.414 90.0039ZM164.96 94.3057L162.862 88.6844C161.096 89.3433 159.743 90.7936 159.207 92.6006C158.672 94.4076 159.016 96.3612 160.138 97.8759L164.96 94.3057ZM165.434 95.0088L160.184 97.9134C160.245 98.0245 160.31 98.1336 160.378 98.2406L165.434 95.0088ZM168.614 121.872L164.13 125.858C165.511 127.412 167.599 128.14 169.647 127.783C171.695 127.425 173.412 126.032 174.185 124.101L168.614 121.872ZM168.606 121.863L173.091 117.877C171.709 116.323 169.622 115.595 167.574 115.953C165.525 116.311 163.808 117.704 163.036 119.634L168.606 121.863ZM157.501 134.609L154.522 129.401L154.52 129.402L157.501 134.609ZM131.536 137.507L132.908 131.666C131.237 131.273 129.477 131.615 128.074 132.606C126.672 133.597 125.761 135.142 125.572 136.849L131.536 137.507ZM130.354 148.221L136.317 148.879L136.317 148.879L130.354 148.221ZM127.955 150.143L127.296 156.106L127.296 156.106L127.955 150.143ZM120.435 149.312L119.775 155.275L119.776 155.275L120.435 149.312ZM117.89 146.134L111.926 145.474L111.926 145.475L117.89 146.134ZM118.956 144.203L115.205 139.52C115.198 139.526 115.19 139.532 115.182 139.538L118.956 144.203ZM121.067 143.589L122.922 137.883C122.533 137.756 122.132 137.67 121.726 137.625L121.067 143.589ZM126.161 145.244L124.307 150.95C126.023 151.508 127.9 151.264 129.416 150.285C130.932 149.306 131.927 147.696 132.125 145.903L126.161 145.244ZM127.154 136.248L133.118 136.906C133.427 134.11 131.751 131.474 129.087 130.568L127.154 136.248ZM125.812 135.772L127.911 130.151C127.905 130.149 127.898 130.147 127.892 130.144L125.812 135.772ZM124.736 135.358L126.965 129.788L124.736 135.358ZM123.672 134.916L126.122 129.439C126.091 129.425 126.061 129.412 126.03 129.399L123.672 134.916ZM105.617 120.657L110.563 117.26C108.948 114.909 105.901 114.02 103.275 115.133L105.617 120.657ZM95.4199 124.98L97.761 130.505L97.7619 130.505L95.4199 124.98ZM92.5713 123.827L98.0955 121.486L98.0954 121.485L92.5713 123.827ZM89.6182 116.861L84.0939 119.203L84.0941 119.203L89.6182 116.861ZM91.1455 113.087L88.8043 107.563L88.8039 107.563L91.1455 113.087ZM93.3506 113.073L95.601 107.511C95.5919 107.508 95.5827 107.504 95.5735 107.5L93.3506 113.073ZM94.9199 114.614L100.804 113.442C100.724 113.041 100.604 112.649 100.444 112.273L94.9199 114.614ZM95.9668 119.867L90.0825 121.04C90.4353 122.81 91.566 124.327 93.1613 125.171C94.7567 126.015 96.6472 126.096 98.3088 125.391L95.9668 119.867ZM103.319 116.75L105.661 122.274C107.182 121.629 108.37 120.385 108.945 118.836C109.519 117.287 109.43 115.57 108.697 114.089L103.319 116.75ZM101.528 112.224L107.112 110.027C105.935 107.035 102.609 105.503 99.5699 106.552C96.531 107.602 94.8593 110.86 95.7792 113.94L101.528 112.224ZM101.53 112.219L107.101 114.448C107.604 113.191 107.667 111.8 107.28 110.503L101.53 112.219ZM102.283 95.3301L96.7126 93.101L96.7126 93.1011L102.283 95.3301ZM104.521 90.9492L109.594 94.1535C111.032 91.8767 110.777 88.9205 108.971 86.9236C107.164 84.9267 104.248 84.3783 101.839 85.5824L104.521 90.9492ZM102.951 91.6182L100.958 85.9591C100.953 85.9607 100.948 85.9623 100.944 85.964L102.951 91.6182ZM72 102.607L69.9925 96.9532C68.1865 97.5945 66.7955 99.0598 66.249 100.897L72 102.607ZM70.7178 106.918L76.4393 108.725C76.4494 108.693 76.4592 108.661 76.4687 108.629L70.7178 106.918ZM70.999 110.237L65.5766 112.806L65.5788 112.81L70.999 110.237ZM78.9297 126.943L77.1513 132.674C79.4261 133.38 81.903 132.673 83.4632 130.874C85.0234 129.074 85.3714 126.522 84.3499 124.37L78.9297 126.943ZM78.9014 126.935L80.6798 121.204C78.3992 120.496 75.9159 121.208 74.3568 123.017C72.7977 124.826 72.4595 127.387 73.4957 129.538L78.9014 126.935ZM78.9189 126.971L84.6646 125.242L84.6643 125.241L78.9189 126.971ZM74.9365 142.188L79.0638 146.542C79.0764 146.53 79.0889 146.519 79.1014 146.507L74.9365 142.188ZM69.5361 147.306L73.6246 151.697C73.6376 151.685 73.6506 151.673 73.6635 151.661L69.5361 147.306ZM69.5361 152.931L73.6335 148.548L73.6248 148.539L69.5361 152.931ZM82.7461 165.279L86.8435 160.896L86.8434 160.896L82.7461 165.279ZM77.9521 178.731L77.5829 172.743C75.011 172.901 72.8275 174.684 72.1581 177.173C71.4888 179.661 72.483 182.299 74.6282 183.727L77.9521 178.731ZM77.9746 178.75L77.6983 172.756C77.5257 172.764 77.3534 172.78 77.1821 172.803L77.9746 178.75ZM33.0752 177L28.3577 180.707L28.358 180.708L33.0752 177ZM29.8232 139.39L35.8077 139.822C35.818 139.678 35.8232 139.534 35.8232 139.39H29.8232ZM29.8232 131.443L24.0024 129.988C23.8834 130.464 23.8232 130.953 23.8232 131.443H29.8232ZM29.8242 131.439L35.6451 132.895C35.7641 132.419 35.8242 131.93 35.8242 131.439H29.8242ZM29.8242 93.624H35.8242C35.8242 92.9791 35.7203 92.3385 35.5163 91.7267L29.8242 93.624ZM29.8232 93.6211L23.8336 93.9737C23.8646 94.4994 23.9646 95.0188 24.1311 95.5185L29.8232 93.6211ZM34.5723 24L38.041 28.8957C38.8659 28.3113 41.1426 27.5085 45.229 26.9805C49.0286 26.4895 53.5033 26.3351 57.8839 26.3667C62.2368 26.3982 66.3541 26.6118 69.3926 26.819C70.9081 26.9224 72.1462 27.0235 73.0001 27.0983C73.4269 27.1357 73.7572 27.1664 73.9776 27.1875C74.0877 27.198 74.1704 27.2061 74.2238 27.2114C74.2506 27.2141 74.27 27.216 74.2819 27.2173C74.2878 27.2179 74.2919 27.2183 74.2941 27.2185C74.2952 27.2186 74.2958 27.2187 74.2959 27.2187C74.296 27.2187 74.2957 27.2187 74.2958 27.2187C74.2954 27.2186 74.2949 27.2186 74.9082 21.25C75.5215 15.2814 75.5208 15.2814 75.5199 15.2813C75.5195 15.2812 75.5185 15.2811 75.5176 15.281C75.5158 15.2808 75.5135 15.2806 75.5107 15.2803C75.5052 15.2798 75.4977 15.279 75.4883 15.278C75.4695 15.2762 75.4432 15.2735 75.4094 15.2702C75.3419 15.2634 75.2447 15.2539 75.1196 15.242C74.8695 15.218 74.5074 15.1844 74.0471 15.1441C73.1268 15.0635 71.8112 14.9561 70.2091 14.8468C67.0126 14.6288 62.6394 14.4008 57.9706 14.367C53.3296 14.3335 48.2515 14.4902 43.6913 15.0794C39.418 15.6316 34.528 16.6779 31.1035 19.1043L34.5723 24ZM74.9082 21.25L73.3295 27.0386L73.4262 27.0649L75.0049 21.2764L76.5836 15.4878L76.4869 15.4614L74.9082 21.25ZM75.0049 21.2764L80.6314 19.1925L80.6216 19.1661L74.9951 21.25L69.3686 23.3339L69.3784 23.3603L75.0049 21.2764ZM74.9951 21.25V27.25H114.144V21.25V15.25H74.9951V21.25ZM114.144 21.25L114.143 27.25C113.54 27.25 113.073 26.7188 113.152 26.1189L119.101 26.9043L125.049 27.6897C125.919 21.0992 120.79 15.2503 114.144 15.25L114.144 21.25ZM119.101 26.9043L113.152 26.1188L109.054 57.1569L115.002 57.9424L120.95 58.7279L125.049 27.6898L119.101 26.9043ZM115.002 57.9424L118.44 62.8594C118.379 62.9022 118.308 62.9346 118.243 62.9515C118.178 62.9683 118.168 62.9574 118.237 62.9636L118.771 56.9873L119.304 51.0111C116.495 50.7603 113.794 51.4659 111.564 53.0253L115.002 57.9424ZM118.771 56.9873L118.241 62.9639C121.411 63.2447 125.474 64.5382 129.002 67.2142L132.628 62.4336L136.254 57.653C130.786 53.5062 124.535 51.4745 119.3 51.0107L118.771 56.9873ZM132.628 62.4336L136.542 66.9814C141.439 62.7672 147.754 61.5984 153.359 63.8411L155.588 58.2705L157.817 52.6999C147.712 48.6567 136.714 51.0011 128.714 57.8858L132.628 62.4336ZM155.588 58.2705L153.359 63.8411C161.535 67.1128 166.124 77.0771 161.843 87.7749L167.414 90.0039L172.985 92.2329C179.377 76.2569 172.986 58.7698 157.817 52.6999L155.588 58.2705ZM167.414 90.0039L161.843 87.7749C161.791 87.9054 161.671 88.1727 161.476 88.5568C161.29 88.922 161.077 89.3144 160.872 89.6728C160.658 90.044 160.492 90.3117 160.4 90.4485C160.346 90.5293 160.375 90.4782 160.472 90.3598C160.515 90.3067 160.654 90.1372 160.871 89.929C160.982 89.8229 161.173 89.648 161.434 89.4557C161.569 89.3566 161.748 89.2336 161.968 89.106C162.185 88.9806 162.486 88.8247 162.862 88.6844L164.96 94.3057L167.058 99.927C168.303 99.4621 169.073 98.6897 169.184 98.5829C169.456 98.3221 169.659 98.0814 169.774 97.9403C170.014 97.6459 170.219 97.3519 170.362 97.1378C170.666 96.685 170.986 96.1561 171.279 95.6466C171.838 94.6729 172.541 93.3427 172.985 92.2329L167.414 90.0039ZM164.96 94.3057L160.138 97.8759C160.224 97.9923 160.267 98.0584 160.273 98.068C160.276 98.0728 160.27 98.0636 160.256 98.0395C160.249 98.0275 160.239 98.0117 160.228 97.9921C160.222 97.9823 160.216 97.9714 160.209 97.9596C160.206 97.9536 160.202 97.9473 160.199 97.9406C160.197 97.9373 160.195 97.9337 160.193 97.9298C160.191 97.9269 160.188 97.921 160.184 97.9134L165.434 95.0088L170.684 92.1042C170.554 91.8702 170.271 91.3958 169.782 90.7354L164.96 94.3057ZM165.434 95.0088L160.378 98.2406C164.734 105.054 165.771 112.828 163.044 119.643L168.614 121.872L174.185 124.101C178.562 113.162 176.601 101.338 170.489 91.7769L165.434 95.0088ZM168.614 121.872L173.099 117.886L173.091 117.877L168.606 121.863L164.122 125.849L164.13 125.858L168.614 121.872ZM168.606 121.863L163.036 119.634C161.299 123.975 158.328 127.224 154.522 129.401L157.501 134.609L160.48 139.818C166.532 136.357 171.39 131.057 174.177 124.092L168.606 121.863ZM157.501 134.609L154.52 129.402C148.921 132.608 141.231 133.621 132.908 131.666L131.536 137.507L130.164 143.348C140.858 145.86 151.766 144.807 160.482 139.816L157.501 134.609ZM131.536 137.507L125.572 136.849L124.39 147.562L130.354 148.221L136.317 148.879L137.5 138.165L131.536 137.507ZM130.354 148.221L124.39 147.562C124.622 145.457 126.504 143.946 128.614 144.179L127.955 150.143L127.296 156.106C131.778 156.601 135.823 153.357 136.317 148.879L130.354 148.221ZM127.955 150.143L128.614 144.179L121.094 143.348L120.435 149.312L119.776 155.275L127.296 156.106L127.955 150.143ZM120.435 149.312L121.094 143.348C122.814 143.538 124.043 145.074 123.853 146.793L117.89 146.134L111.926 145.475C111.388 150.342 114.906 154.737 119.775 155.275L120.435 149.312ZM117.89 146.134L123.853 146.793C123.755 147.684 123.296 148.41 122.73 148.868L118.956 144.203L115.182 139.538C113.461 140.931 112.199 143.01 111.926 145.474L117.89 146.134ZM118.956 144.203L122.707 148.886C122.093 149.378 121.266 149.647 120.409 149.553L121.067 143.589L121.726 137.625C119.294 137.356 116.974 138.104 115.205 139.52L118.956 144.203ZM121.067 143.589L119.213 149.295L124.307 150.95L126.161 145.244L128.015 139.538L122.922 137.883L121.067 143.589ZM126.161 145.244L132.125 145.903L133.118 136.906L127.154 136.248L121.191 135.59L120.197 144.586L126.161 145.244ZM127.154 136.248L129.087 130.568C128.67 130.426 128.282 130.29 127.911 130.151L125.812 135.772L123.714 141.394C124.236 141.588 124.744 141.766 125.222 141.928L127.154 136.248ZM125.812 135.772L127.892 130.144C127.585 130.031 127.274 129.911 126.965 129.788L124.736 135.358L122.507 140.929C122.915 141.092 123.326 141.25 123.733 141.4L125.812 135.772ZM124.736 135.358L126.965 129.788C126.588 129.637 126.342 129.537 126.122 129.439L123.672 134.916L121.222 140.393C121.698 140.606 122.168 140.793 122.507 140.929L124.736 135.358ZM123.672 134.916L126.03 129.399C119.217 126.487 113.912 122.135 110.563 117.26L105.617 120.657L100.672 124.054C105.451 131.013 112.653 136.731 121.314 140.433L123.672 134.916ZM105.617 120.657L103.275 115.133L93.0779 119.456L95.4199 124.98L97.7619 130.505L107.959 126.181L105.617 120.657ZM95.4199 124.98L93.0789 119.456C95.0335 118.628 97.269 119.536 98.0955 121.486L92.5713 123.827L87.0471 126.169C88.8049 130.316 93.6091 132.264 97.761 130.505L95.4199 124.98ZM92.5713 123.827L98.0954 121.485L95.1422 114.519L89.6182 116.861L84.0941 119.203L87.0472 126.169L92.5713 123.827ZM89.6182 116.861L95.1424 114.52C95.8175 116.113 95.079 117.936 93.4871 118.611L91.1455 113.087L88.8039 107.563C84.2948 109.474 82.1824 114.693 84.0939 119.203L89.6182 116.861ZM91.1455 113.087L93.4867 118.611C92.66 118.962 91.8015 118.915 91.1277 118.646L93.3506 113.073L95.5735 107.5C93.5193 106.681 91.0893 106.594 88.8043 107.563L91.1455 113.087ZM93.3506 113.073L91.1002 118.635C90.3757 118.342 89.7345 117.755 89.3957 116.956L94.9199 114.614L100.444 112.273C99.4871 110.015 97.6967 108.359 95.601 107.511L93.3506 113.073ZM94.9199 114.614L89.0356 115.787L90.0825 121.04L95.9668 119.867L101.851 118.694L100.804 113.442L94.9199 114.614ZM95.9668 119.867L98.3088 125.391L105.661 122.274L103.319 116.75L100.977 111.226L93.6248 114.343L95.9668 119.867ZM103.319 116.75L108.697 114.089C108.109 112.901 107.635 111.705 107.277 110.507L101.528 112.224L95.7792 113.94C96.3417 115.824 97.0709 117.651 97.9417 119.411L103.319 116.75ZM101.528 112.224L95.9381 114.403C101.507 118.224 107.104 114.441 107.105 114.439C107.105 114.438 107.105 114.437 107.105 114.437C107.105 114.436 107.106 114.436 107.105 114.436C107.105 114.437 107.105 114.437 107.105 114.437C107.105 114.438 107.104 114.439 107.104 114.439C107.104 114.441 107.103 114.442 107.103 114.443C107.102 114.444 107.102 114.445 107.102 114.446C107.101 114.448 107.101 114.449 107.1 114.449C107.1 114.45 107.1 114.45 107.1 114.45C107.1 114.45 107.1 114.451 107.1 114.451C107.1 114.451 107.1 114.45 107.101 114.448L101.53 112.219L95.9597 109.99C95.9587 109.992 95.958 109.994 95.9575 109.995C95.9572 109.996 95.9568 109.997 95.9564 109.998C95.9562 109.999 95.9557 110 95.9551 110.001C95.9548 110.002 95.9543 110.003 95.9537 110.005C95.9534 110.005 95.953 110.007 95.9525 110.008C95.9522 110.008 95.9519 110.009 95.9516 110.01C95.9514 110.01 95.9513 110.011 95.9512 110.011C95.9511 110.011 95.9513 110.011 95.9514 110.011C95.9514 110.01 95.9518 110.009 95.9521 110.009C95.953 110.007 101.55 106.224 107.119 110.044L101.528 112.224ZM101.53 112.219L107.28 110.503C106.026 106.302 106.117 101.9 107.854 97.5591L102.283 95.3301L96.7126 93.1011C93.9258 100.066 93.7869 107.254 95.7809 113.935L101.53 112.219ZM102.283 95.3301L107.854 97.5592C108.334 96.3591 108.918 95.2238 109.594 94.1535L104.521 90.9492L99.4488 87.7449C98.3918 89.4183 97.4713 91.2051 96.7126 93.101L102.283 95.3301ZM104.521 90.9492L101.839 85.5824C101.537 85.7331 101.244 85.8582 100.958 85.9591L102.951 91.6182L104.945 97.2773C105.741 96.9968 106.494 96.671 107.204 96.3161L104.521 90.9492ZM102.951 91.6182L100.944 85.964L69.9925 96.9532L72 102.607L74.0075 108.262L104.959 97.2724L102.951 91.6182ZM72 102.607L66.249 100.897L64.9668 105.207L70.7178 106.918L76.4687 108.629L77.751 104.318L72 102.607ZM70.7178 106.918L64.9963 105.111C64.1548 107.776 64.4938 110.52 65.5766 112.806L70.999 110.237L76.4215 107.669C76.4918 107.817 76.6057 108.198 76.4393 108.725L70.7178 106.918ZM70.999 110.237L65.5788 112.81L73.5094 129.516L78.9297 126.943L84.3499 124.37L76.4193 107.664L70.999 110.237ZM78.9297 126.943L80.7081 121.213L80.6798 121.204L78.9014 126.935L77.123 132.665L77.1513 132.674L78.9297 126.943ZM78.9014 126.935L73.4957 129.538C73.5582 129.668 73.6119 129.767 73.6314 129.803C73.6399 129.819 73.6502 129.838 73.6457 129.83C73.6451 129.829 73.6338 129.808 73.6196 129.781C73.5929 129.731 73.5258 129.605 73.4498 129.437C73.3723 129.266 73.2682 129.014 73.1736 128.7L78.9189 126.971L84.6643 125.241C84.5679 124.921 84.4614 124.664 84.3813 124.487C84.3027 124.313 84.2325 124.18 84.2026 124.125C84.1869 124.095 84.174 124.072 84.1718 124.068C84.1656 124.056 84.1742 124.072 84.1811 124.085C84.1972 124.114 84.2477 124.208 84.3071 124.331L78.9014 126.935ZM78.9189 126.971L73.1733 128.699C74.1461 131.933 73.2637 135.465 70.7716 137.868L74.9365 142.188L79.1014 146.507C84.869 140.945 86.9169 132.729 84.6646 125.242L78.9189 126.971ZM74.9365 142.188L70.8092 137.833L65.4088 142.951L69.5361 147.306L73.6635 151.661L79.0638 146.542L74.9365 142.188ZM69.5361 147.306L65.4476 142.914C61.2676 146.806 61.2681 153.43 65.4474 157.322L69.5361 152.931L73.6248 148.539C74.5419 149.393 74.5423 150.843 73.6246 151.697L69.5361 147.306ZM69.5361 152.931L65.4388 157.314L78.6488 169.662L82.7461 165.279L86.8434 160.896L73.6335 148.548L69.5361 152.931ZM82.7461 165.279L78.6487 169.662C79.0031 169.994 79.139 170.302 79.1947 170.562C79.2574 170.855 79.2402 171.207 79.11 171.565C78.8489 172.284 78.3047 172.698 77.5829 172.743L77.9521 178.731L78.3214 184.72C90.2149 183.987 95.7681 169.239 86.8435 160.896L82.7461 165.279ZM77.9521 178.731L74.6282 183.727C74.6225 183.723 74.5871 183.699 74.5407 183.667C74.5117 183.647 74.3813 183.557 74.2218 183.429C74.1435 183.366 73.982 183.234 73.7925 183.05C73.6796 182.94 73.1878 182.467 72.7606 181.716C72.5268 181.305 70.8512 178.192 73.2075 175.108C74.1906 173.821 75.4128 173.277 76.0989 173.051C76.8002 172.82 77.3894 172.771 77.6983 172.756L77.9746 178.75L78.2509 184.744C78.5604 184.729 79.15 184.68 79.8516 184.449C80.5381 184.223 81.7605 183.679 82.7438 182.392C85.1005 179.306 83.4248 176.193 83.1905 175.782C82.7629 175.03 82.2703 174.556 82.1562 174.445C81.9655 174.259 81.8024 174.126 81.7222 174.062C81.5589 173.931 81.4233 173.837 81.3876 173.812C81.3345 173.775 81.2911 173.746 81.2761 173.736L77.9521 178.731ZM77.9746 178.75C77.1821 172.803 77.1825 172.803 77.1828 172.802C77.1827 172.802 77.1828 172.802 77.1826 172.803C77.1821 172.803 77.1811 172.803 77.1795 172.803C77.1762 172.803 77.1706 172.804 77.1626 172.805C77.1468 172.807 77.1216 172.811 77.0874 172.815C77.019 172.824 76.9146 172.837 76.7764 172.855C76.5 172.89 76.0885 172.941 75.5599 173.004C74.5021 173.13 72.9775 173.304 71.1282 173.491C67.4204 173.867 62.45 174.293 57.3393 174.505C52.1829 174.719 47.092 174.706 43.069 174.262C41.0483 174.04 39.5109 173.73 38.455 173.384C37.2472 172.988 37.3868 172.776 37.7924 173.292L33.0752 177L28.358 180.708C30.1391 182.974 32.7134 184.129 34.7133 184.786C36.8651 185.492 39.3083 185.921 41.7548 186.19C46.6662 186.731 52.4563 186.718 57.837 186.495C63.2634 186.269 68.4862 185.82 72.3374 185.43C74.2676 185.235 75.8639 185.053 76.9822 184.92C77.5415 184.853 77.9818 184.798 78.2852 184.76C78.4369 184.74 78.5544 184.725 78.6354 184.715C78.676 184.709 78.7074 184.705 78.7294 184.702C78.7404 184.701 78.7491 184.7 78.7554 184.699C78.7585 184.699 78.7611 184.698 78.7631 184.698C78.764 184.698 78.765 184.698 78.7655 184.698C78.7664 184.698 78.7671 184.697 77.9746 178.75ZM33.0752 177L37.7927 173.293C37.7975 173.299 37.7109 173.187 37.569 172.886C37.4302 172.592 37.2702 172.185 37.1024 171.647C36.7628 170.557 36.4572 169.143 36.2029 167.433C35.6942 164.013 35.4596 159.893 35.3911 155.791C35.2544 147.613 35.7844 140.144 35.8077 139.822L29.8232 139.39L23.8388 138.958C23.8066 139.403 23.2473 147.285 23.3928 155.992C23.4653 160.333 23.7148 165.039 24.3335 169.199C24.643 171.28 25.0621 173.344 25.6457 175.216C26.2081 177.021 27.0368 179.027 28.3577 180.707L33.0752 177ZM29.8232 139.39H35.8232V131.443H29.8232H23.8232V139.39H29.8232ZM29.8232 131.443L35.6441 132.899L35.6451 132.895L29.8242 131.439L24.0034 129.984L24.0024 129.988L29.8232 131.443ZM29.8242 131.439H35.8242V93.624H29.8242H23.8242V131.439H29.8242ZM29.8242 93.624L35.5163 91.7267L35.5153 91.7237L29.8232 93.6211L24.1311 95.5185L24.1321 95.5214L29.8242 93.624ZM29.8232 93.6211L35.8129 93.2685C35.81 93.22 34.8852 77.4775 35.0113 61.0487C35.0745 52.8097 35.4017 44.5827 36.2027 38.1316C36.6055 34.8881 37.1033 32.3062 37.6663 30.4746C38.3435 28.2718 38.7488 28.394 38.042 28.895L34.5723 24L31.1025 19.105C28.2741 21.1099 26.9394 24.5304 26.196 26.9488C25.3385 29.7385 24.7353 33.1008 24.2942 36.6529C23.4076 43.7932 23.0761 52.5636 23.0116 60.9566C22.8824 77.7919 23.8265 93.8522 23.8336 93.9737L29.8232 93.6211Z" fill="white" mask="url(#path-1-outside-1_1347_16563)"/>
<path d="M112.98 67.0791L126.565 105.623C126.565 105.623 148.62 94.8791 141.483 74.6351C137.248 62.6245 126.425 57.6657 118.771 56.9876C113.995 56.5614 110.994 61.447 112.98 67.0791Z" fill="#21587B"/>
<path d="M73.5012 123.423C72.8023 122.968 72.4411 122.228 72.2551 121.415L69.5742 109.702C69.385 108.875 69.0377 108.083 68.8994 107.246C68.4615 104.595 70.5678 101.86 73.249 100.788L103.455 88.638C107.224 87.1192 109.868 83.7443 110.543 79.8068L116.811 25.3803C116.929 24.3601 116.52 23.35 115.726 22.6987C114.273 21.7536 112.577 21.2505 110.844 21.2505H94.3146C93.315 21.2505 92.3201 21.3867 91.3573 21.6555L86.8276 22.9198C84.8968 23.4587 82.8555 23.4598 80.9241 22.9229L75.8047 21.4997C75.2082 21.3339 74.612 21.2197 73.9954 21.1637C68.7305 20.6856 42.2156 18.5855 34.573 24.0005C26.7627 29.5344 29.2969 83.6967 29.7587 92.4348C29.8017 93.2495 29.9382 94.0179 30.1646 94.8016L34.2623 108.99C34.8216 110.927 34.838 112.98 34.3098 114.925L30.2084 130.029C29.9532 130.968 29.824 131.938 29.824 132.911V137.959C29.824 139.062 29.9898 140.159 30.316 141.212L37.8551 165.565C39.069 169.487 42.3653 172.406 46.4045 173.137L76.7667 178.63C77.2084 178.71 77.6564 178.751 78.1052 178.751C84.9254 178.751 88.2212 170.399 83.239 165.741L69.5365 152.932C67.9052 151.413 67.9052 148.826 69.5365 147.307L74.9365 142.188C79.0663 138.206 80.5322 132.332 78.9195 126.971C78.7403 126.376 75.2514 124.562 73.5012 123.423Z" fill="#D3D3D3"/>
<path d="M108.576 41.1625L111.614 21.25H114.144C117.165 21.25 119.496 23.9091 119.101 26.9045L112.064 80.2C111.445 85.4312 107.901 89.875 102.951 91.6188L71.9012 102.644L53.2262 109.169C47.9387 111.025 29.8247 117.044 29.8247 117.044V93.5312L71.1137 81.6062C78.0889 79.5812 83.1514 73.6187 84.0514 66.4187L85.5701 54.2125C85.9076 51.5125 85.5701 48.8125 84.6139 46.2812L74.9951 21.25H92.8264L97.2701 43.2437C97.4388 44.0875 97.4388 44.9313 97.3263 45.775L94.9638 62.9312C94.7388 64.3937 96.4263 65.2937 97.5513 64.3375L101.826 60.625C102.558 59.95 103.12 59.1625 103.458 58.2062L107.733 44.875C108.07 43.6375 108.408 42.4 108.576 41.1625ZM43.2684 145.45L29.8247 139.375C29.8247 139.375 27.5742 170 33.0755 177C38.5769 184 77.9747 178.75 77.9747 178.75C78.1434 178.75 63.1809 170.706 56.9934 167.387C55.3059 166.488 53.9559 165.025 53.2247 163.281L47.4309 149.725C46.5872 147.813 45.1247 146.294 43.2684 145.45Z" fill="#9B9B9B"/>
<path d="M72.0117 102.571L70.718 106.919C70.3805 107.988 70.493 109.169 70.9992 110.238L78.9305 126.944L62.2805 121.882C58.1742 120.644 53.7867 120.926 49.9055 122.613L29.8242 131.501V117.044L72.0117 102.571Z" fill="#636363"/>
<path d="M132.969 124.546L130.354 148.221C130.223 149.408 129.141 150.274 127.955 150.143L120.435 149.312C118.861 149.138 117.716 147.709 117.89 146.135C117.977 145.347 118.378 144.671 118.956 144.204C119.533 143.741 120.28 143.502 121.067 143.589L126.162 145.245L128.503 124.052C128.634 122.866 129.715 122 130.902 122.131L131.048 122.147C132.234 122.278 133.1 123.359 132.969 124.546Z" fill="#404040"/>
<path d="M117.351 115.685L95.4203 124.981C94.3217 125.446 93.0369 124.927 92.5712 123.828L89.6185 116.862C89.0002 115.403 89.687 113.706 91.1456 113.088C91.875 112.779 92.661 112.798 93.3513 113.074C94.037 113.351 94.6109 113.886 94.9201 114.615L95.9667 119.868L115.598 111.547C116.696 111.081 117.981 111.601 118.447 112.7L118.504 112.835C118.97 113.934 118.45 115.219 117.351 115.685Z" fill="#404040"/>
<path d="M168.607 121.865C166.345 127.517 162.431 131.792 157.502 134.611C148.91 139.53 137.233 140.037 125.813 135.773C125.455 135.641 125.095 135.502 124.737 135.359C124.379 135.216 124.02 135.072 123.672 134.917C112.459 130.123 104.359 121.703 101.529 112.224C101.529 112.224 101.529 112.224 101.531 112.22C99.9067 106.779 100.022 100.984 102.283 95.3312C105.834 86.4587 113.679 80.3986 123.116 78.082C123.116 78.082 124.555 74.5397 125.136 73.0876C130.473 59.7507 143.916 53.6007 155.588 58.2715C167.261 62.9423 172.751 76.6681 167.414 90.0051C166.833 91.4571 165.243 94.2008 164.96 94.3064C165.294 94.7571 165.434 95.0099 165.434 95.0099C170.668 103.197 172.167 112.996 168.615 121.873L168.607 121.865Z" fill="#4B9AE8"/>
<path d="M127.184 72.9782C124.77 71.9419 122.142 67.836 123.116 65.6562C124.087 63.4808 128.94 62.591 131.352 63.6317C133.765 64.668 135.09 66.9375 133.642 70.1852C132.179 73.4705 129.601 74.0168 127.188 72.9805L127.184 72.9782Z" fill="#EAC00F"/>
<path d="M132.807 86.7804L118.169 67.8879C114.596 63.2758 108.453 62.7758 106.032 66.9161C102.251 73.3759 99.1761 83.1689 106.52 92.6446C112.655 100.562 121.34 102.171 128.594 101.757C135.405 101.371 137.718 93.1158 132.808 86.7854L132.807 86.7804Z" fill="#276288"/>
<path d="M141.845 75.2847C138.934 74.3237 137.352 71.1843 138.313 68.2725C139.274 65.3608 142.414 63.7794 145.326 64.7404C148.237 65.7014 149.819 68.8409 148.858 71.7526C147.897 74.6644 144.757 76.2457 141.845 75.2847Z" fill="white"/>
<path d="M142.653 72.8208C141.101 72.3086 140.258 70.6352 140.77 69.0831C141.283 67.5311 142.956 66.6882 144.508 67.2004C146.06 67.7127 146.903 69.3861 146.391 70.9381C145.879 72.4902 144.205 73.3331 142.653 72.8208Z" fill="#040000"/>
</svg>
