<svg width="200" height="200" viewBox="0 0 200 200" fill="none" xmlns="http://www.w3.org/2000/svg">
<mask id="path-1-outside-1_1347_1555" maskUnits="userSpaceOnUse" x="50.3162" y="13.8789" width="100" height="172" fill="black">
<rect fill="white" x="50.3162" y="13.8789" width="100" height="172"/>
<path d="M71.0818 19.8877C75.4817 20.264 85.8188 24.6321 87.95 25.2715C90.1416 25.1096 90.12 26.1591 91.0125 26.4844C91.9051 26.8095 94.364 25.9222 94.364 31.7676C94.364 36.1164 98.3517 53.2038 100.393 61.6689C101.633 61.7147 131.155 62.8406 136.52 66.417C139.808 69.157 138.165 73.3591 138.713 74.4551C139.261 75.5516 144.192 79.9352 143.279 81.9443H143.278C142.911 82.7529 140.216 84.2398 135.385 85.7305C133.281 101.744 125.097 163.97 124.673 166.516C124.185 169.438 121.447 178.938 100.166 178.938H98.7117C77.4297 178.937 74.6919 169.438 74.2048 166.516C73.7748 163.935 65.3714 100.041 63.408 85.1035C59.778 83.8348 57.7444 82.6391 57.4285 81.9443C56.5152 79.935 61.4456 75.5513 61.9939 74.4551C62.5419 73.3591 60.8974 69.157 64.1853 66.417C68.0202 63.8604 84.1995 62.5576 93.5681 62.0049C91.2122 52.7638 88.2376 34.7223 87.7869 32.9844C87.2194 30.7925 86.1622 31.0722 83.6648 30.4014C79.5255 29.2883 70.7371 26.4714 68.198 25.043C66.8735 24.2965 67.5653 22.9447 68.823 21.0039C69.3137 20.2478 70.182 19.8111 71.0818 19.8877Z"/>
</mask>
<path d="M71.0818 19.8877C75.4817 20.264 85.8188 24.6321 87.95 25.2715C90.1416 25.1096 90.12 26.1591 91.0125 26.4844C91.9051 26.8095 94.364 25.9222 94.364 31.7676C94.364 36.1164 98.3517 53.2038 100.393 61.6689C101.633 61.7147 131.155 62.8406 136.52 66.417C139.808 69.157 138.165 73.3591 138.713 74.4551C139.261 75.5516 144.192 79.9352 143.279 81.9443H143.278C142.911 82.7529 140.216 84.2398 135.385 85.7305C133.281 101.744 125.097 163.97 124.673 166.516C124.185 169.438 121.447 178.938 100.166 178.938H98.7117C77.4297 178.937 74.6919 169.438 74.2048 166.516C73.7748 163.935 65.3714 100.041 63.408 85.1035C59.778 83.8348 57.7444 82.6391 57.4285 81.9443C56.5152 79.935 61.4456 75.5513 61.9939 74.4551C62.5419 73.3591 60.8974 69.157 64.1853 66.417C68.0202 63.8604 84.1995 62.5576 93.5681 62.0049C91.2122 52.7638 88.2376 34.7223 87.7869 32.9844C87.2194 30.7925 86.1622 31.0722 83.6648 30.4014C79.5255 29.2883 70.7371 26.4714 68.198 25.043C66.8735 24.2965 67.5653 22.9447 68.823 21.0039C69.3137 20.2478 70.182 19.8111 71.0818 19.8877Z" fill="#88C1F5"/>
<path d="M71.0818 19.8877L71.5931 13.9095L71.5906 13.9093L71.0818 19.8877ZM87.95 25.2715L86.2259 31.0184L87.287 31.3368L88.3919 31.2552L87.95 25.2715ZM91.0125 26.4844L88.958 32.1217L88.9589 32.122L91.0125 26.4844ZM94.364 31.7676H88.364V31.7676L94.364 31.7676ZM100.393 61.6689L94.5605 63.0756L95.6269 67.497L100.172 67.6649L100.393 61.6689ZM136.52 66.417L140.361 61.8077L140.115 61.6023L139.848 61.4244L136.52 66.417ZM138.713 74.4551L133.346 77.1384L133.347 77.1402L138.713 74.4551ZM143.279 81.9443V87.9443H147.143L148.741 84.4272L143.279 81.9443ZM143.278 81.9443V75.9443H139.415L137.816 79.4615L143.278 81.9443ZM135.385 85.7305L133.616 79.9973L129.938 81.1323L129.437 84.9486L135.385 85.7305ZM124.673 166.516L130.591 167.502L130.591 167.502L124.673 166.516ZM98.7117 178.938L98.7117 184.938H98.7117V178.938ZM74.2048 166.516L68.2865 167.502L68.2865 167.502L74.2048 166.516ZM63.408 85.1035L69.3568 84.3216L68.8753 80.6585L65.3876 79.4395L63.408 85.1035ZM57.4285 81.9443L51.9663 84.4272L51.9668 84.4284L57.4285 81.9443ZM61.9939 74.4551L67.3601 77.1391L67.3605 77.1384L61.9939 74.4551ZM64.1853 66.417L60.8571 61.4247L60.5904 61.6025L60.3441 61.8077L64.1853 66.417ZM93.5681 62.0049L93.9215 67.9945L101.178 67.5664L99.3821 60.5226L93.5681 62.0049ZM87.7869 32.9844L81.9784 34.4881L81.979 34.4905L87.7869 32.9844ZM83.6648 30.4014L82.1067 36.1955L82.1082 36.1959L83.6648 30.4014ZM68.198 25.043L65.2521 30.27L65.2561 30.2722L68.198 25.043ZM68.823 21.0039L63.7899 17.7377L63.7878 17.7409L68.823 21.0039ZM71.0818 19.8877L70.5705 25.8659C71.8474 25.9751 74.7693 26.8484 78.3421 28.129C79.9853 28.7181 81.5649 29.3168 82.9135 29.8263C84.1307 30.2861 85.437 30.7818 86.2259 31.0184L87.95 25.2715L89.674 19.5245C89.3973 19.4415 88.6123 19.1514 87.1544 18.6006C85.828 18.0995 84.1487 17.4628 82.3913 16.8329C79.1627 15.6756 74.7161 14.1766 71.5931 13.9095L71.0818 19.8877ZM87.95 25.2715L88.3919 31.2552C88.4804 31.2487 88.2188 31.2804 87.7607 31.1649C87.5255 31.1056 87.2718 31.0158 87.0137 30.8897C86.7558 30.7638 86.5454 30.627 86.3869 30.5091C86.2397 30.3996 86.1496 30.3147 86.162 30.3261C86.1747 30.3379 86.1814 30.3443 86.239 30.3984C86.2829 30.4396 86.3637 30.5155 86.4572 30.5995C86.856 30.9575 87.6911 31.66 88.958 32.1217L91.0125 26.4844L93.0669 20.8471C93.8876 21.1462 94.3908 21.5955 94.4741 21.6703C94.4887 21.6835 94.4917 21.6867 94.4573 21.6543C94.4366 21.6348 94.3644 21.5667 94.2963 21.5039C94.147 21.3662 93.8872 21.1324 93.5499 20.8814C92.8018 20.3248 91.8632 19.8237 90.6944 19.529C89.5961 19.2521 88.5154 19.2134 87.508 19.2878L87.95 25.2715ZM91.0125 26.4844L88.9589 32.122C89.4132 32.2875 89.8093 32.3765 90.0729 32.4268C90.3389 32.4775 90.5681 32.5067 90.6998 32.5225C90.7699 32.5309 90.8343 32.538 90.8788 32.5428C90.9326 32.5487 90.9546 32.551 90.986 32.5545C91.0398 32.5606 91.0385 32.5611 91.0152 32.5575C90.9674 32.5503 90.751 32.516 90.4576 32.4118C90.1475 32.3017 89.7754 32.1226 89.403 31.8408C89.0278 31.557 88.7462 31.2398 88.5499 30.946C88.3616 30.6641 88.2853 30.4545 88.2658 30.395C88.2475 30.3395 88.2752 30.4048 88.3057 30.6418C88.336 30.8769 88.364 31.2413 88.364 31.7676H94.364H100.364C100.364 28.4338 99.7429 24.6161 96.643 22.2709C95.1455 21.1381 93.6309 20.8167 92.8103 20.6926C92.6089 20.6621 92.4339 20.6417 92.3205 20.629C92.1568 20.6107 92.1789 20.6139 92.1257 20.6075C91.9929 20.5916 92.467 20.6286 93.066 20.8467L91.0125 26.4844ZM94.364 31.7676L88.364 31.7676C88.364 33.4408 88.7087 35.805 89.1068 38.1066C89.5314 40.5611 90.1115 43.4539 90.7449 46.4256C92.0135 52.3764 93.5353 58.8245 94.5605 63.0756L100.393 61.6689L106.226 60.2622C105.21 56.0482 103.717 49.72 102.481 43.9237C101.863 41.0217 101.318 38.2983 100.931 36.0613C100.518 33.6713 100.364 32.2688 100.364 31.7675L94.364 31.7676ZM100.393 61.6689L100.172 67.6649C100.757 67.6865 108.325 67.9749 116.375 68.6951C120.411 69.0562 124.459 69.5166 127.769 70.0859C129.428 70.3712 130.802 70.6674 131.85 70.9628C133.026 71.2945 133.33 71.5011 133.192 71.4095L136.52 66.417L139.848 61.4244C138.369 60.4388 136.577 59.8279 135.107 59.4133C133.508 58.9624 131.686 58.5835 129.803 58.2596C126.03 57.6105 121.615 57.116 117.444 56.7429C109.082 55.9946 101.269 55.6972 100.615 55.673L100.393 61.6689ZM136.52 66.417L132.679 71.0263C132.687 71.0332 132.628 70.9688 132.598 70.8928C132.588 70.869 132.634 70.9717 132.65 71.3212C132.669 71.742 132.642 72.0637 132.607 72.8618C132.593 73.1731 132.572 73.7114 132.607 74.2778C132.637 74.7505 132.731 75.9083 133.346 77.1384L138.713 74.4551L144.079 71.7718C144.557 72.7279 144.583 73.5146 144.585 73.537C144.592 73.6531 144.583 73.6619 144.596 73.3823C144.612 72.9987 144.688 71.8931 144.638 70.7838C144.529 68.3483 143.799 64.6724 140.361 61.8077L136.52 66.417ZM138.713 74.4551L133.347 77.1402C133.579 77.6032 133.828 77.9689 133.975 78.1758C134.141 78.4083 134.306 78.6192 134.444 78.7894C134.715 79.1232 135.023 79.475 135.283 79.77C135.858 80.4234 136.377 81.0029 136.859 81.6054C137.09 81.8945 137.275 82.1426 137.416 82.3502C137.485 82.4519 137.536 82.5331 137.572 82.5945C137.609 82.6568 137.623 82.6864 137.623 82.6852C137.622 82.6837 137.616 82.6708 137.606 82.647C137.596 82.6233 137.581 82.5853 137.564 82.5336C137.53 82.4356 137.476 82.2557 137.438 82.0057C137.362 81.514 137.32 80.554 137.817 79.4615L143.279 81.9443L148.741 84.4272C150.145 81.3399 148.924 78.4939 148.433 77.4762C147.793 76.1469 146.906 74.9553 146.229 74.1095C145.524 73.2279 144.765 72.3803 144.29 71.8407C144.024 71.5391 143.864 71.3529 143.763 71.2291C143.573 70.9951 143.822 71.2582 144.078 71.7699L138.713 74.4551ZM143.279 81.9443V75.9443H143.278V81.9443V87.9443H143.279V81.9443ZM143.278 81.9443L137.816 79.4615C138.166 78.6917 138.595 78.2327 138.742 78.0827C138.839 77.9835 138.916 77.9155 138.961 77.8776C139.007 77.8387 139.035 77.8185 139.039 77.816C139.042 77.8137 138.988 77.8523 138.859 77.9279C138.734 78.0016 138.559 78.0968 138.33 78.2108C137.382 78.6832 135.824 79.3159 133.616 79.9973L135.385 85.7305L137.155 91.4637C139.777 90.6544 141.982 89.7982 143.68 88.9523C144.519 88.5344 145.358 88.0583 146.1 87.5187C146.612 87.1461 147.964 86.1342 148.74 84.4272L143.278 81.9443ZM135.385 85.7305L129.437 84.9486C128.384 92.955 125.812 112.513 123.451 130.387C122.27 139.325 121.142 147.839 120.282 154.277C119.853 157.497 119.491 160.193 119.223 162.163C119.089 163.148 118.98 163.946 118.897 164.535C118.856 164.829 118.823 165.066 118.797 165.244C118.784 165.333 118.774 165.403 118.766 165.455C118.757 165.513 118.754 165.533 118.754 165.529L124.673 166.516L130.591 167.502C131.038 164.82 139.246 102.4 141.334 86.5124L135.385 85.7305ZM124.673 166.516L118.754 165.529C118.66 166.097 118.338 167.633 116.456 169.148C114.472 170.744 109.979 172.938 100.166 172.938V178.938V184.938C111.634 184.938 119.15 182.382 123.978 178.497C128.907 174.532 130.198 169.857 130.591 167.502L124.673 166.516ZM100.166 178.938V172.938H98.7117V178.938V184.938H100.166V178.938ZM98.7117 178.938L98.7117 172.938C88.8981 172.937 84.4047 170.744 82.4214 169.148C80.5389 167.633 80.2179 166.097 80.1232 165.529L74.2048 166.516L68.2865 167.502C68.6789 169.857 69.9703 174.532 74.8989 178.497C79.7268 182.382 87.2433 184.937 98.7117 184.938L98.7117 178.938ZM74.2048 166.516L80.1232 165.529C80.1238 165.533 80.1203 165.512 80.1115 165.453C80.1033 165.399 80.0927 165.328 80.0795 165.236C80.053 165.054 80.0187 164.812 79.9766 164.51C79.8925 163.908 79.7804 163.091 79.6434 162.082C79.3696 160.066 78.9991 157.305 78.5598 154.013C77.6813 147.431 76.5296 138.739 75.3297 129.658C72.93 111.497 70.3385 91.7903 69.3568 84.3216L63.408 85.1035L57.4591 85.8854C59.406 100.697 67.8338 164.786 68.2865 167.502L74.2048 166.516ZM63.408 85.1035L65.3876 79.4395C63.7662 78.8728 62.6702 78.3791 62.0406 78.0369C61.7182 77.8617 61.6339 77.7886 61.696 77.8374C61.7301 77.8643 61.8703 77.9764 62.0557 78.1792C62.2198 78.3587 62.5835 78.7861 62.8901 79.4603L57.4285 81.9443L51.9668 84.4284C52.6592 85.9506 53.7903 86.8862 54.2752 87.2678C54.9209 87.7759 55.6311 88.2113 56.3104 88.5804C57.684 89.3269 59.4198 90.0655 61.4283 90.7675L63.408 85.1035ZM57.4285 81.9443L62.8907 79.4615C63.3872 80.5538 63.3456 81.5136 63.2698 82.0053C63.2312 82.2552 63.1774 82.4351 63.1441 82.5331C63.1265 82.5847 63.1115 82.6228 63.1017 82.6465C63.0918 82.6703 63.0856 82.6832 63.0848 82.6847C63.0843 82.6858 63.0987 82.6562 63.1355 82.5939C63.1719 82.5325 63.223 82.4513 63.292 82.3496C63.4328 82.1421 63.6175 81.894 63.8488 81.6049C64.3307 81.0023 64.8495 80.4229 65.4246 79.7695C65.6843 79.4745 65.9919 79.1227 66.2627 78.7889C66.4007 78.6187 66.5664 78.4077 66.7318 78.1751C66.879 77.9682 67.1284 77.6023 67.3601 77.1391L61.9939 74.4551L56.6277 71.771C56.8839 71.2589 57.1329 70.9954 56.943 71.2295C56.8427 71.3532 56.6824 71.5393 56.417 71.8409C55.942 72.3805 55.1825 73.2282 54.4774 74.1097C53.8009 74.9556 52.9144 76.1473 52.274 77.4766C51.7836 78.4944 50.5631 81.3402 51.9663 84.4272L57.4285 81.9443ZM61.9939 74.4551L67.3605 77.1384C67.9757 75.908 68.0699 74.75 68.0991 74.2771C68.1341 73.7107 68.113 73.1723 68.0994 72.861C68.0647 72.0627 68.0373 71.7411 68.0561 71.3203C68.0718 70.9708 68.1176 70.8682 68.108 70.8923C68.0777 70.9685 68.0184 71.033 68.0265 71.0263L64.1853 66.417L60.3441 61.8077C56.9061 64.6728 56.1769 68.3491 56.0681 70.7848C56.0185 71.894 56.0941 72.9997 56.1108 73.3832C56.123 73.6628 56.1148 73.6539 56.1219 73.5377C56.1233 73.5151 56.1491 72.7282 56.6273 71.7718L61.9939 74.4551ZM64.1853 66.417L67.5135 71.4093C67.4478 71.4531 68.1762 71.0741 70.3805 70.5834C72.3225 70.1511 74.7893 69.7589 77.5483 69.4128C83.0501 68.7227 89.2851 68.268 93.9215 67.9945L93.5681 62.0049L93.2148 56.0153C88.4826 56.2945 81.9436 56.7675 76.0548 57.5061C73.1185 57.8744 70.236 58.3218 67.773 58.8701C65.5723 59.36 62.8403 60.1026 60.8571 61.4247L64.1853 66.417ZM93.5681 62.0049L99.3821 60.5226C98.2596 56.1194 96.9594 49.4827 95.8618 43.5835C95.3173 40.6566 94.8335 37.9714 94.4518 35.8769C94.1039 33.9676 93.7795 32.1907 93.5948 31.4782L87.7869 32.9844L81.979 34.4905C81.9755 34.477 82.0333 34.7349 82.174 35.4739C82.2981 36.1256 82.4567 36.9879 82.6462 38.0281C83.0227 40.0939 83.5143 42.8225 84.0642 45.7784C85.1557 51.6446 86.5207 58.6492 87.7541 63.4871L93.5681 62.0049ZM87.7869 32.9844L93.5954 31.4806C93.3445 30.5116 92.9156 29.3059 92.0659 28.1655C91.1369 26.9187 89.9936 26.132 88.8876 25.6401C87.9521 25.2241 87.0269 25.0213 86.5881 24.9235C86.0067 24.7939 85.6809 24.7302 85.2214 24.6068L83.6648 30.4014L82.1082 36.1959C82.8974 36.4079 83.6402 36.5609 83.9772 36.636C84.179 36.681 84.2562 36.7012 84.2822 36.7085C84.3034 36.7145 84.1916 36.6849 84.0115 36.6048C83.8194 36.5194 83.5432 36.374 83.2403 36.1418C82.9302 35.9039 82.6614 35.628 82.4433 35.3353C82.0295 34.7799 81.9455 34.3612 81.9784 34.4881L87.7869 32.9844ZM83.6648 30.4014L85.2229 24.6072C83.2987 24.0898 80.1886 23.146 77.2477 22.1547C74.0972 21.0928 71.828 20.2008 71.1399 19.8137L68.198 25.043L65.2561 30.2722C67.1071 31.3136 70.5017 32.5443 73.4149 33.5262C76.5379 34.5788 79.8916 35.5999 82.1067 36.1955L83.6648 30.4014ZM68.198 25.043L71.1439 19.8159C71.7082 20.134 72.6358 20.866 73.1531 22.1979C73.6408 23.4538 73.4686 24.4947 73.3708 24.8951C73.2795 25.2687 73.177 25.4061 73.2937 25.1889C73.3943 25.0018 73.564 24.7208 73.8582 24.2669L68.823 21.0039L63.7878 17.7409C63.2673 18.5441 62.1608 20.2163 61.7135 22.0476C61.4511 23.1218 61.2757 24.7619 61.9669 26.5419C62.6877 28.3978 64.0255 29.5787 65.2521 30.27L68.198 25.043ZM68.823 21.0039L73.8561 24.2701C73.1709 25.3259 71.9329 25.9818 70.573 25.8661L71.0818 19.8877L71.5906 13.9093C68.431 13.6404 65.4565 15.1696 63.7899 17.7377L68.823 21.0039Z" fill="white" mask="url(#path-1-outside-1_1347_1555)"/>
<path d="M135.877 82C135.877 82 125.16 163.592 124.673 166.515C124.186 169.438 121.447 178.936 100.166 178.936H98.7118C77.4297 178.936 74.692 169.438 74.2049 166.515C73.7178 163.592 63 82 63 82H135.877Z" fill="#4E90CD"/>
<path d="M106.999 115.421C107.028 118.173 103.604 122.474 100.576 122.506C97.5473 122.539 94.0298 118.314 94.0003 115.561C93.9709 112.809 95.9262 110.555 100.446 110.507C105.016 110.457 106.971 112.668 107 115.421H106.999Z" fill="#E8BE0F"/>
<path d="M83.9472 114.894C87.2318 114.894 89.8945 112.232 89.8945 108.947C89.8945 105.663 87.2318 103 83.9472 103C80.6627 103 78 105.663 78 108.947C78 112.232 80.6627 114.894 83.9472 114.894Z" fill="white"/>
<path d="M83.7676 112.506C85.7006 112.506 87.2676 110.939 87.2676 109.006C87.2676 107.073 85.7006 105.506 83.7676 105.506C81.8346 105.506 80.2676 107.073 80.2676 109.006C80.2676 110.939 81.8346 112.506 83.7676 112.506Z" fill="black"/>
<path d="M116.947 114.894C120.232 114.894 122.894 112.232 122.894 108.947C122.894 105.663 120.232 103 116.947 103C113.663 103 111 105.663 111 108.947C111 112.232 113.663 114.894 116.947 114.894Z" fill="white"/>
<path d="M116.768 112.506C118.701 112.506 120.268 110.939 120.268 109.006C120.268 107.073 118.701 105.506 116.768 105.506C114.835 105.506 113.268 107.073 113.268 109.006C113.268 110.939 114.835 112.506 116.768 112.506Z" fill="black"/>
<path d="M143.279 81.9443C144.192 79.9349 139.26 75.5508 138.712 74.4548C138.164 73.3588 139.808 69.1574 136.52 66.4174C131.04 62.764 100.353 61.668 100.353 61.668C100.353 61.668 69.6658 62.764 64.1857 66.4174C60.8977 69.1574 62.5417 73.3588 61.9937 74.4548C61.4457 75.5508 56.5148 79.9349 57.4282 81.9443C58.3415 83.9536 73.6249 90.1644 100.353 90.1644C127.081 90.1644 142.365 83.9536 143.278 81.9443H143.279Z" fill="#E7F7FF"/>
<path d="M95.2395 67.0114C95.2395 67.0114 97.177 68.3826 99.6272 68.0575C102.077 67.7323 101.567 66.4743 101.567 66.4743C101.567 66.4743 94.3639 37.6126 94.3639 31.7672C94.3639 25.9218 91.9052 26.8095 91.0125 26.4844C90.1199 26.1592 90.1418 25.1095 87.9498 25.2715C85.8186 24.6321 75.482 20.2639 71.0821 19.8876C70.1821 19.8109 69.3139 20.2468 68.8231 21.0031C67.5651 22.9443 66.8734 24.296 68.1984 25.0425C70.7375 26.471 79.5251 29.2878 83.6644 30.4008C86.1621 31.0718 87.2191 30.7917 87.7866 32.9838C88.3553 35.1758 92.9464 63.3653 95.2383 67.0102L95.2395 67.0114Z" fill="#2D3132"/>
<path d="M129.665 65.875L130.352 66.0039C131.907 66.3099 133.118 66.6615 133.847 67.0693C134.234 67.2857 134.68 67.6236 134.762 68.1436C134.855 68.727 134.45 69.1491 134.078 69.4092C133.677 69.6888 133.094 69.9433 132.356 70.1836C131.609 70.427 130.663 70.6686 129.51 70.9072C127.204 71.3846 124.032 71.8587 119.882 72.3164C111.562 73.2341 98.6528 73.4775 87.6577 73.208C82.1581 73.0732 77.1221 72.8096 73.3677 72.4355C71.493 72.2488 69.9218 72.0328 68.7671 71.7881C68.1917 71.6661 67.7 71.5329 67.3189 71.3848C67.1282 71.3107 66.9498 71.2276 66.7974 71.1309C66.651 71.038 66.4895 70.9081 66.3775 70.7266H66.3765C66.1619 70.3783 66.0755 69.9999 66.148 69.6182C66.2177 69.2513 66.421 68.9513 66.6528 68.7158C67.1046 68.2571 67.7932 67.9136 68.4351 67.6611C69.0947 67.4017 69.7851 67.209 70.3042 67.0811C70.5652 67.0168 70.7864 66.9681 70.9429 66.9355C71.0209 66.9193 71.0832 66.9068 71.1265 66.8984C71.1481 66.8943 71.1655 66.8909 71.1773 66.8887C71.1831 66.8876 71.1877 66.8863 71.1909 66.8857C71.1925 66.8855 71.1939 66.8859 71.1948 66.8857L71.1958 66.8848C71.5267 66.825 71.844 67.045 71.9038 67.376C71.9636 67.7069 71.7435 68.0232 71.4126 68.083L71.4107 68.084C71.4086 68.0844 71.4053 68.0851 71.4009 68.0859C71.3916 68.0877 71.3769 68.0901 71.3579 68.0938C71.3199 68.1011 71.2631 68.1119 71.1909 68.127C71.0465 68.157 70.8404 68.2025 70.5962 68.2627C70.1045 68.3838 69.4713 68.5629 68.8814 68.7949C68.2736 69.034 67.7856 69.3017 67.521 69.5703C67.3948 69.6985 67.3546 69.7914 67.3443 69.8457C67.3371 69.8834 67.3349 69.9498 67.4028 70.0674C67.4103 70.0736 67.4243 70.0864 67.4497 70.1025C67.513 70.1427 67.6136 70.193 67.7603 70.25C68.0536 70.364 68.4731 70.4807 69.02 70.5967C70.1106 70.8278 71.6304 71.0385 73.4888 71.2236C77.201 71.5934 82.2027 71.8558 87.687 71.9902C98.6597 72.2592 111.507 72.0144 119.749 71.1055C123.88 70.6498 127.01 70.1813 129.263 69.7148C130.39 69.4816 131.289 69.2501 131.979 69.0254C132.678 68.7977 133.127 68.5881 133.38 68.4111C133.439 68.3699 133.479 68.3339 133.507 68.3076C133.463 68.2677 133.386 68.2073 133.252 68.1328C132.696 67.8216 131.649 67.5007 130.131 67.2012L129.452 67.0742L129.334 67.04C129.07 66.9357 128.907 66.658 128.959 66.3682C129.01 66.0785 129.258 65.8737 129.542 65.8662L129.665 65.875Z" fill="#88C1F5"/>
<path d="M136.685 75.3509C136.708 75.3497 136.823 75.3415 136.951 75.388C137.267 75.5028 137.43 75.8523 137.316 76.1683C137.227 76.4121 136.999 76.5633 136.754 76.5677C136.735 76.5714 136.704 76.5784 136.656 76.5902C136.536 76.6202 136.359 76.6695 136.118 76.7386C135.644 76.8749 134.947 77.081 134.055 77.3304C132.266 77.8304 129.677 78.5097 126.382 79.1927C119.792 80.5587 110.379 81.9398 98.8986 81.9398C87.4288 81.9398 78.6477 80.8709 72.7267 79.7992C69.7662 79.2633 67.5206 78.7264 66.0119 78.3226C65.2576 78.1207 64.6872 77.9522 64.3038 77.8333C64.1123 77.7739 63.9672 77.7271 63.8693 77.6947C63.8205 77.6785 63.7833 77.6662 63.7579 77.6576C63.7452 77.6532 63.7354 77.6492 63.7286 77.6468C63.7255 77.6457 63.7227 77.6455 63.7208 77.6449L63.7179 77.6439L63.7169 77.6429C63.3998 77.5312 63.2333 77.1837 63.3449 76.8665C63.4566 76.5495 63.8041 76.3829 64.1212 76.4945H64.1222C64.1232 76.4948 64.1248 76.4956 64.1271 76.4964C64.1321 76.4982 64.1406 76.5015 64.1515 76.5052C64.1733 76.5127 64.207 76.5235 64.2521 76.5384C64.3427 76.5684 64.4802 76.6132 64.6642 76.6702C65.0327 76.7845 65.5885 76.9491 66.3273 77.1468C67.8048 77.5422 70.0173 78.0713 72.9435 78.6009C78.7963 79.6603 87.5048 80.722 98.8986 80.722C110.282 80.722 119.61 79.3527 126.135 78.0003C129.397 77.3242 131.959 76.6521 133.728 76.1576C134.614 75.9097 135.297 75.707 135.781 75.5677C136.02 75.499 136.218 75.4445 136.362 75.4085C136.433 75.3909 136.505 75.3741 136.568 75.3636C136.598 75.3585 136.64 75.3532 136.685 75.3509ZM136.685 76.5658C136.702 76.5671 136.717 76.5659 136.729 76.5658C136.708 76.5653 136.688 76.5654 136.667 76.5628C136.674 76.5636 136.68 76.5654 136.685 76.5658ZM136.535 76.5326C136.577 76.5479 136.615 76.5555 136.644 76.5599C136.607 76.5538 136.571 76.5455 136.535 76.5326Z" fill="#88C1F5"/>
<path d="M102.689 67.6662C102.586 68.5795 100.806 69.0947 98.5081 69.0947C96.2101 69.0947 94.4479 68.6648 94.3481 68.1569C93.8938 65.8188 96.2223 67.2801 98.5202 67.2801C100.818 67.2801 102.852 66.2024 102.688 67.6662H102.689Z" fill="#88C1F5"/>
</svg>
