<svg width="200" height="200" viewBox="0 0 200 200" fill="none" xmlns="http://www.w3.org/2000/svg">
<mask id="path-1-outside-1_1062_19348" maskUnits="userSpaceOnUse" x="15.876" y="25" width="168" height="150" fill="black">
<rect fill="white" x="15.876" y="25" width="168" height="150"/>
<path d="M98.7543 31C134.842 31 164.338 59.7358 166.389 95.9658C166.94 96.0116 167.492 96.1008 168.042 96.2324C175.077 97.916 179.136 106.15 177.108 114.624C175.12 122.93 168.021 128.382 161.116 127.009C150.795 151.693 126.76 169 98.7543 169C70.2165 169 45.8001 151.029 35.8187 125.594C28.965 126.249 22.7659 120.239 21.9623 112.148C21.2319 104.794 25.211 98.2475 31.0853 96.5869C32.8321 60.0649 62.4609 31.0003 98.7543 31Z"/>
</mask>
<path d="M98.7543 31C134.842 31 164.338 59.7358 166.389 95.9658C166.94 96.0116 167.492 96.1008 168.042 96.2324C175.077 97.916 179.136 106.15 177.108 114.624C175.12 122.93 168.021 128.382 161.116 127.009C150.795 151.693 126.76 169 98.7543 169C70.2165 169 45.8001 151.029 35.8187 125.594C28.965 126.249 22.7659 120.239 21.9623 112.148C21.2319 104.794 25.211 98.2475 31.0853 96.5869C32.8321 60.0649 62.4609 31.0003 98.7543 31Z" fill="#1D446A"/>
<path d="M98.7543 31L98.7543 25L98.7542 25L98.7543 31ZM166.389 95.9658L160.399 96.3049C160.568 99.2918 162.911 101.698 165.893 101.945L166.389 95.9658ZM168.042 96.2324L169.439 90.3972L169.439 90.3972L168.042 96.2324ZM177.108 114.624L182.943 116.021L182.943 116.021L177.108 114.624ZM161.116 127.009L162.286 121.124C159.486 120.567 156.681 122.06 155.58 124.694L161.116 127.009ZM98.7543 169L98.7542 175H98.7543V169ZM35.8187 125.594L41.4041 123.402C40.4258 120.909 37.914 119.366 35.2481 119.621L35.8187 125.594ZM21.9623 112.148L15.9917 112.741L15.9917 112.741L21.9623 112.148ZM31.0853 96.5869L32.7175 102.361C35.1994 101.659 36.9553 99.4498 37.0785 96.8736L31.0853 96.5869ZM98.7543 31V37C131.547 37 158.521 63.138 160.399 96.3049L166.389 95.9658L172.379 95.6267C170.155 56.3337 138.137 25 98.7543 25V31ZM166.389 95.9658L165.893 101.945C166.132 101.965 166.383 102.005 166.646 102.068L168.042 96.2324L169.439 90.3972C168.602 90.1968 167.749 90.058 166.885 89.9864L166.389 95.9658ZM168.042 96.2324L166.646 102.068C169.488 102.748 172.784 106.913 171.273 113.227L177.108 114.624L182.943 116.021C185.488 105.388 180.666 93.0842 169.439 90.3972L168.042 96.2324ZM177.108 114.624L171.273 113.227C169.798 119.39 165.117 121.687 162.286 121.124L161.116 127.009L159.945 132.894C170.925 135.077 180.442 126.47 182.943 116.021L177.108 114.624ZM161.116 127.009L155.58 124.694C146.14 147.273 124.206 163 98.7543 163V169V175C129.314 175 155.451 156.114 166.651 129.323L161.116 127.009ZM98.7543 169L98.7543 163C72.8191 163 50.5342 146.668 41.4041 123.402L35.8187 125.594L30.2334 127.786C41.0659 155.39 67.6139 175 98.7542 175L98.7543 169ZM35.8187 125.594L35.2481 119.621C32.5664 119.877 28.5049 117.314 27.9329 111.555L21.9623 112.148L15.9917 112.741C17.0268 123.163 25.3636 132.62 36.3893 131.567L35.8187 125.594ZM21.9623 112.148L27.9329 111.556C27.4223 106.414 30.2507 103.058 32.7175 102.361L31.0853 96.5869L29.4531 90.8132C20.1713 93.4371 15.0416 103.174 15.9917 112.741L21.9623 112.148ZM31.0853 96.5869L37.0785 96.8736C38.6776 63.438 65.7743 37.0002 98.7543 37L98.7543 31L98.7542 25C59.1475 25.0003 26.9866 56.6918 25.0922 96.3003L31.0853 96.5869Z" fill="white" mask="url(#path-1-outside-1_1062_19348)"/>
<path d="M98.7553 31C134.843 31.0002 164.338 59.7359 166.389 95.9658C166.94 96.0116 167.493 96.1007 168.043 96.2324C175.078 97.9162 179.136 106.15 177.108 114.624C175.12 122.93 168.022 128.382 161.117 127.009C150.797 151.693 126.761 169 98.7553 169C70.2173 169 45.8012 151.029 35.8197 125.594C28.9657 126.249 22.7669 120.239 21.9633 112.148C21.2329 104.794 25.2116 98.2472 31.0863 96.5869C32.8331 60.0647 62.4617 31 98.7553 31Z" fill="#6AA6E0"/>
<path d="M104.013 99.7803C102.628 98.7496 92.7039 98.5 90.6273 106.25C89.061 114.469 99.8465 115.447 105.763 114.03" stroke="#1D446A" stroke-width="3" stroke-linecap="round"/>
<path d="M81.3695 56.282C79.8695 54.532 76.2695 52.532 73.8695 58.532C70.8695 66.032 72.1195 74.032 80.1195 72.532C88.1195 71.032 91.1196 64.032 87.1196 61.282C83.1196 58.532 81.6196 71.032 89.1196 73.782C96.6196 76.532 108.87 73.782 113.37 67.532C117.87 61.282 107.87 58.032 107.62 62.782C107.37 67.532 117.12 77.782 127.62 65.032" stroke="#1D446A" stroke-width="3" stroke-linecap="round"/>
<path d="M74 104C79.5229 104 84 99.523 84 94.0001C84 88.4773 79.5229 84.0001 74 84.0001C68.4772 84.0001 64 88.4773 64 94.0001C64 99.523 68.4772 104 74 104Z" fill="white"/>
<path d="M73.8448 100.067C77.1559 100.067 79.84 97.3833 79.84 94.0722C79.84 90.7612 77.1559 88.077 73.8448 88.077C70.5338 88.077 67.8496 90.7612 67.8496 94.0722C67.8496 97.3833 70.5338 100.067 73.8448 100.067Z" fill="black"/>
<path d="M123 104C128.523 104 133 99.523 133 94.0001C133 88.4773 128.523 84.0001 123 84.0001C117.477 84.0001 113 88.4773 113 94.0001C113 99.523 117.477 104 123 104Z" fill="white"/>
<path d="M122.845 100.067C126.156 100.067 128.84 97.3833 128.84 94.0722C128.84 90.7612 126.156 88.077 122.845 88.077C119.534 88.077 116.85 90.7612 116.85 94.0722C116.85 97.3833 119.534 100.067 122.845 100.067Z" fill="black"/>
<path d="M62.877 125.5C67.127 131.25 80.277 142.75 98.877 142.75C117.477 142.75 131.794 130.25 136.627 124" stroke="#1D446A" stroke-width="3" stroke-linecap="round"/>
</svg>
