<svg width="200" height="200" viewBox="0 0 200 200" fill="none" xmlns="http://www.w3.org/2000/svg">
<mask id="path-1-outside-1_1347_1389" maskUnits="userSpaceOnUse" x="13" y="20.9971" width="173" height="155" fill="black">
<rect fill="white" x="13" y="20.9971" width="173" height="155"/>
<path d="M102.393 27C114.297 27.1537 124.523 33.6042 129.391 44.1758H133.327C135.827 44.1696 138.265 44.9515 140.3 46.4092C142.328 47.8669 143.854 49.9265 144.647 52.2959C148.17 62.9054 149.267 74.1011 147.942 85.0752C147.984 85.085 148.026 85.0936 148.067 85.1035C154.18 86.5563 159.629 88.3323 164.122 90.4277C164.262 90.4932 164.403 90.558 164.541 90.624C168.753 92.6401 172.518 100.493 173.876 106.857C173.899 106.962 173.918 107.068 173.935 107.173C174.047 107.764 174.054 108.367 173.961 108.96C173.691 111.006 172.421 112.654 170.831 112.402C169.456 112.198 168.08 111.999 166.703 111.806L178.306 135.013C178.765 135.937 179.006 136.954 179.006 137.99V156.624C179 157.474 178.678 158.286 178.095 158.906C177.512 159.526 176.717 159.905 175.874 159.961C175.25 160.003 174.625 160.041 174 160.082V164.204C174 165.674 173.417 167.082 172.375 168.124C171.339 169.166 169.925 169.749 168.455 169.749H29.5449C28.0749 169.749 26.6671 169.166 25.625 168.124C24.583 167.088 24.0001 165.674 24 164.204V160.083C23.3734 160.042 22.7467 160.003 22.1201 159.961C21.2765 159.899 20.4822 159.527 19.9053 158.906C19.3286 158.286 19.0001 157.474 19 156.624V137.983C19.0001 136.954 19.2361 135.931 19.7012 135.007L31.1748 112.063C30.4039 112.174 29.6328 112.288 28.8623 112.402C27.4611 112.604 26.307 111.346 25.8682 109.645C25.8618 109.623 25.8537 109.602 25.8477 109.58C25.6287 108.792 25.5982 107.969 25.752 107.173C25.7686 107.068 25.7881 106.962 25.8105 106.857C27.1442 100.487 30.9223 92.6342 35.1465 90.6182H35.1406C40.5127 88.0555 47.3006 85.9651 54.9834 84.3457C53.7933 73.6056 54.92 62.6704 58.3643 52.2959C59.1582 49.9264 60.6783 47.8669 62.7129 46.4092C64.7474 44.9516 67.1849 44.1758 69.6846 44.1758H74.6279C79.64 33.3098 90.2254 26.843 102.393 27Z"/>
</mask>
<path d="M102.393 27C114.297 27.1537 124.523 33.6042 129.391 44.1758H133.327C135.827 44.1696 138.265 44.9515 140.3 46.4092C142.328 47.8669 143.854 49.9265 144.647 52.2959C148.17 62.9054 149.267 74.1011 147.942 85.0752C147.984 85.085 148.026 85.0936 148.067 85.1035C154.18 86.5563 159.629 88.3323 164.122 90.4277C164.262 90.4932 164.403 90.558 164.541 90.624C168.753 92.6401 172.518 100.493 173.876 106.857C173.899 106.962 173.918 107.068 173.935 107.173C174.047 107.764 174.054 108.367 173.961 108.96C173.691 111.006 172.421 112.654 170.831 112.402C169.456 112.198 168.08 111.999 166.703 111.806L178.306 135.013C178.765 135.937 179.006 136.954 179.006 137.99V156.624C179 157.474 178.678 158.286 178.095 158.906C177.512 159.526 176.717 159.905 175.874 159.961C175.25 160.003 174.625 160.041 174 160.082V164.204C174 165.674 173.417 167.082 172.375 168.124C171.339 169.166 169.925 169.749 168.455 169.749H29.5449C28.0749 169.749 26.6671 169.166 25.625 168.124C24.583 167.088 24.0001 165.674 24 164.204V160.083C23.3734 160.042 22.7467 160.003 22.1201 159.961C21.2765 159.899 20.4822 159.527 19.9053 158.906C19.3286 158.286 19.0001 157.474 19 156.624V137.983C19.0001 136.954 19.2361 135.931 19.7012 135.007L31.1748 112.063C30.4039 112.174 29.6328 112.288 28.8623 112.402C27.4611 112.604 26.307 111.346 25.8682 109.645C25.8618 109.623 25.8537 109.602 25.8477 109.58C25.6287 108.792 25.5982 107.969 25.752 107.173C25.7686 107.068 25.7881 106.962 25.8105 106.857C27.1442 100.487 30.9223 92.6342 35.1465 90.6182H35.1406C40.5127 88.0555 47.3006 85.9651 54.9834 84.3457C53.7933 73.6056 54.92 62.6704 58.3643 52.2959C59.1582 49.9264 60.6783 47.8669 62.7129 46.4092C64.7474 44.9516 67.1849 44.1758 69.6846 44.1758H74.6279C79.64 33.3098 90.2254 26.843 102.393 27Z" fill="#14465D"/>
<path d="M102.393 27L102.47 21.0005L102.47 21.0005L102.393 27ZM129.391 44.1758L123.941 46.6852C124.92 48.8128 127.048 50.1758 129.391 50.1758V44.1758ZM133.327 44.1758V50.1758C133.332 50.1758 133.337 50.1758 133.342 50.1758L133.327 44.1758ZM140.3 46.4092L143.801 41.537L143.794 41.5318L140.3 46.4092ZM144.647 52.2959L150.342 50.4054C150.34 50.4001 150.338 50.3949 150.337 50.3896L144.647 52.2959ZM147.942 85.0752L141.986 84.3563C141.62 87.3878 143.589 90.2105 146.56 90.9139L147.942 85.0752ZM148.067 85.1035L146.68 90.9408L146.68 90.9409L148.067 85.1035ZM164.122 90.4277L161.586 95.8655L161.587 95.8659L164.122 90.4277ZM164.541 90.624L167.132 85.2121L167.124 85.2085L164.541 90.624ZM173.876 106.857L168.008 108.11C168.01 108.117 168.011 108.125 168.013 108.132L173.876 106.857ZM173.935 107.173L168.012 108.131C168.02 108.184 168.03 108.238 168.04 108.291L173.935 107.173ZM173.961 108.96L168.034 108.025C168.026 108.075 168.019 108.126 168.012 108.176L173.961 108.96ZM170.831 112.402L171.769 106.476C171.751 106.473 171.733 106.47 171.715 106.468L170.831 112.402ZM166.703 111.806L167.536 105.864C165.328 105.554 163.132 106.494 161.831 108.304C160.53 110.114 160.34 112.495 161.336 114.489L166.703 111.806ZM178.306 135.013L183.68 132.344C183.677 132.339 183.675 132.334 183.672 132.33L178.306 135.013ZM179.006 156.624L185.006 156.668C185.006 156.654 185.006 156.639 185.006 156.624H179.006ZM178.095 158.906L182.466 163.016L182.467 163.015L178.095 158.906ZM175.874 159.961L175.477 153.974L175.471 153.974L175.874 159.961ZM174 160.082L173.607 154.095C170.453 154.302 168 156.921 168 160.082H174ZM174 164.204L180 164.204V164.204H174ZM172.375 168.124L168.132 163.881C168.128 163.886 168.124 163.89 168.12 163.894L172.375 168.124ZM168.455 169.749V175.749H168.455L168.455 169.749ZM29.5449 169.749L29.5447 175.749H29.5449V169.749ZM25.625 168.124L29.8676 163.881C29.8634 163.877 29.8592 163.873 29.855 163.869L25.625 168.124ZM24 164.204H18V164.204L24 164.204ZM24 160.083H30C30 156.922 27.5472 154.303 24.3927 154.096L24 160.083ZM22.1201 159.961L21.6801 165.945C21.6926 165.946 21.7051 165.947 21.7175 165.947L22.1201 159.961ZM19.9053 158.906L15.5111 162.992L15.5116 162.992L19.9053 158.906ZM19 156.624H13V156.624L19 156.624ZM19 137.983L13 137.983V137.983H19ZM19.7012 135.007L25.0607 137.704C25.063 137.7 25.0653 137.695 25.0676 137.69L19.7012 135.007ZM31.1748 112.063L36.5412 114.747C37.5399 112.75 37.347 110.363 36.0404 108.553C34.7339 106.742 32.5299 105.806 30.3197 106.125L31.1748 112.063ZM28.8623 112.402L29.717 118.341C29.7267 118.34 29.7365 118.338 29.7462 118.337L28.8623 112.402ZM25.8682 109.645L31.6781 108.146C31.6616 108.082 31.644 108.018 31.6253 107.955L25.8682 109.645ZM25.8477 109.58L20.0664 111.186L20.0695 111.196L25.8477 109.58ZM25.752 107.173L31.6432 108.31C31.6561 108.243 31.6679 108.176 31.6785 108.109L25.752 107.173ZM25.8105 106.857L31.6784 108.11C31.68 108.102 31.6816 108.095 31.6832 108.087L25.8105 106.857ZM35.1465 90.6182L37.7308 96.0331C40.2607 94.8257 41.6174 92.0274 40.9984 89.2933C40.3794 86.5592 37.9497 84.6182 35.1465 84.6182V90.6182ZM35.1406 90.6182L32.5572 85.2028C30.027 86.4099 28.6698 89.2082 29.2886 91.9425C29.9074 94.6768 32.3372 96.6182 35.1406 96.6182V90.6182ZM54.9834 84.3457L56.2209 90.2167C59.2423 89.5798 61.287 86.7539 60.9469 83.6849L54.9834 84.3457ZM58.3643 52.2959L52.6751 50.3896C52.6734 50.3949 52.6716 50.4001 52.6699 50.4054L58.3643 52.2959ZM62.7129 46.4092L59.2185 41.5317L59.2184 41.5318L62.7129 46.4092ZM69.6846 44.1758V38.1758H69.6845L69.6846 44.1758ZM74.6279 44.1758V50.1758C76.9687 50.1758 79.0958 48.8145 80.0763 46.6889L74.6279 44.1758ZM102.393 27L102.315 32.9995C112.006 33.1247 120.082 38.3057 123.941 46.6852L129.391 44.1758L134.841 41.6663C128.964 28.9026 116.588 21.1828 102.47 21.0005L102.393 27ZM129.391 44.1758V50.1758H133.327V44.1758V38.1758H129.391V44.1758ZM133.327 44.1758L133.342 50.1758C134.579 50.1727 135.791 50.5596 136.805 51.2866L140.3 46.4092L143.794 41.5318C140.74 39.3434 137.075 38.1665 133.312 38.1758L133.327 44.1758ZM140.3 46.4092L136.798 51.2814C137.811 52.0094 138.567 53.0344 138.958 54.2022L144.647 52.2959L150.337 50.3896C149.14 46.8185 146.845 43.7244 143.801 41.537L140.3 46.4092ZM144.647 52.2959L138.953 54.1864C142.195 63.9509 143.205 74.2552 141.986 84.3563L147.942 85.0752L153.899 85.7941C155.329 73.9471 154.145 61.86 150.342 50.4054L144.647 52.2959ZM147.942 85.0752L146.56 90.9139C146.599 90.9231 146.633 90.9307 146.657 90.9361C146.679 90.9412 146.701 90.9459 146.709 90.9477C146.72 90.9503 146.719 90.9501 146.716 90.9493C146.712 90.9484 146.699 90.9453 146.68 90.9408L148.067 85.1035L149.455 79.2662C149.415 79.2568 149.381 79.2489 149.356 79.2433C149.332 79.2379 149.31 79.233 149.301 79.231C149.288 79.2282 149.289 79.2283 149.291 79.2287C149.294 79.2294 149.306 79.2323 149.324 79.2365L147.942 85.0752ZM148.067 85.1035L146.68 90.9409C152.531 92.3317 157.568 93.9917 161.586 95.8655L164.122 90.4277L166.658 84.9899C161.689 82.6728 155.828 80.7809 149.455 79.2661L148.067 85.1035ZM164.122 90.4277L161.587 95.8659C161.749 95.9415 161.851 95.9885 161.958 96.0396L164.541 90.624L167.124 85.2085C166.954 85.1274 166.776 85.0448 166.657 84.9895L164.122 90.4277ZM164.541 90.624L161.95 96.0359C161.95 96.0359 161.958 96.0395 161.973 96.0479C161.988 96.0563 162.009 96.0693 162.037 96.0878C162.095 96.1253 162.174 96.1825 162.275 96.2656C162.48 96.4349 162.74 96.6852 163.044 97.0375C163.662 97.7527 164.337 98.743 165.008 99.9768C166.359 102.462 167.445 105.47 168.008 108.11L173.876 106.857L179.744 105.605C178.949 101.88 177.473 97.7799 175.549 94.2436C173.766 90.9646 171.011 87.0692 167.132 85.2121L164.541 90.624ZM173.876 106.857L168.013 108.132C168.011 108.122 168.009 108.114 168.008 108.108C168.007 108.103 168.006 108.1 168.006 108.1C168.006 108.1 168.007 108.102 168.008 108.108C168.009 108.113 168.01 108.12 168.012 108.131L173.935 107.173L179.858 106.215C179.831 106.05 179.793 105.83 179.739 105.583L173.876 106.857ZM173.935 107.173L168.04 108.291C168.022 108.195 168.022 108.103 168.034 108.025L173.961 108.96L179.888 109.895C180.087 108.631 180.072 107.333 179.829 106.055L173.935 107.173ZM173.961 108.96L168.012 108.176C167.998 108.286 167.987 108.041 168.352 107.619C168.554 107.386 168.938 107.027 169.557 106.757C170.215 106.471 170.992 106.353 171.769 106.476L170.831 112.402L169.894 118.329C173.252 118.86 175.903 117.233 177.43 115.467C178.896 113.771 179.654 111.68 179.91 109.744L173.961 108.96ZM170.831 112.402L171.715 106.468C170.323 106.26 168.93 106.059 167.536 105.864L166.703 111.806L165.871 117.748C167.23 117.938 168.589 118.135 169.947 118.337L170.831 112.402ZM166.703 111.806L161.336 114.489L172.939 137.696L178.306 135.013L183.672 132.33L172.07 109.123L166.703 111.806ZM178.306 135.013L172.932 137.681C172.982 137.783 173.006 137.888 173.006 137.99H179.006H185.006C185.006 136.021 184.547 134.09 183.68 132.344L178.306 135.013ZM179.006 137.99H173.006V156.624H179.006H185.006V137.99H179.006ZM179.006 156.624L173.006 156.58C173.011 155.932 173.26 155.289 173.722 154.797L178.095 158.906L182.467 163.015C184.095 161.283 184.988 159.015 185.006 156.668L179.006 156.624ZM178.095 158.906L173.723 154.797C174.165 154.327 174.784 154.02 175.477 153.974L175.874 159.961L176.271 165.948C178.651 165.79 180.859 164.726 182.466 163.016L178.095 158.906ZM175.874 159.961L175.471 153.974C174.836 154.017 174.286 154.05 173.607 154.095L174 160.082L174.393 166.069C174.963 166.032 175.663 165.989 176.277 165.947L175.874 159.961ZM174 160.082H168V164.204H174H180V160.082H174ZM174 164.204L168 164.204C168 164.081 168.05 163.964 168.132 163.881L172.375 168.124L176.618 172.367C178.784 170.2 180 167.267 180 164.204L174 164.204ZM172.375 168.124L168.12 163.894C168.221 163.793 168.343 163.749 168.455 163.749L168.455 169.749L168.455 175.749C171.508 175.749 174.458 174.54 176.63 172.354L172.375 168.124ZM168.455 169.749V163.749H29.5449V169.749V175.749H168.455V169.749ZM29.5449 169.749L29.5451 163.749C29.6677 163.749 29.7855 163.799 29.8676 163.881L25.625 168.124L21.3824 172.367C23.5486 174.533 26.4821 175.749 29.5447 175.749L29.5449 169.749ZM25.625 168.124L29.855 163.869C29.9566 163.97 30 164.092 30 164.204L24 164.204L18 164.204C18.0001 167.257 19.2093 170.207 21.395 172.379L25.625 168.124ZM24 164.204H30V160.083H24H18V164.204H24ZM24 160.083L24.3927 154.096C23.7277 154.052 23.1522 154.017 22.5227 153.974L22.1201 159.961L21.7175 165.947C22.3411 165.989 23.0191 166.032 23.6073 166.07L24 160.083ZM22.1201 159.961L22.5601 153.977C23.186 154.023 23.8172 154.302 24.2989 154.82L19.9053 158.906L15.5116 162.992C17.1471 164.751 19.367 165.775 21.6801 165.945L22.1201 159.961ZM19.9053 158.906L24.2994 154.821C24.7263 155.28 24.9999 155.916 25 156.624L19 156.624L13 156.624C13.0002 159.031 13.9309 161.292 15.5111 162.992L19.9053 158.906ZM19 156.624H25V137.983H19H13V156.624H19ZM19 137.983L25 137.984C25 137.866 25.0277 137.77 25.0607 137.704L19.7012 135.007L14.3417 132.309C13.4445 134.092 13.0001 136.042 13 137.983L19 137.983ZM19.7012 135.007L25.0676 137.69L36.5412 114.747L31.1748 112.063L25.8084 109.38L14.3348 132.323L19.7012 135.007ZM31.1748 112.063L30.3197 106.125C29.5383 106.237 28.7576 106.352 27.9784 106.468L28.8623 112.402L29.7462 118.337C30.508 118.223 31.2695 118.112 32.0299 118.002L31.1748 112.063ZM28.8623 112.402L28.0076 106.464C29.5079 106.248 30.6501 106.916 31.1774 107.426C31.4182 107.659 31.5433 107.86 31.5998 107.964C31.6585 108.072 31.6754 108.136 31.6781 108.146L25.8682 109.645L20.0582 111.143C20.4868 112.805 21.3457 114.61 22.8313 116.048C24.3956 117.563 26.8155 118.759 29.717 118.341L28.8623 112.402ZM25.8682 109.645L31.6253 107.955C31.6132 107.914 31.6021 107.877 31.5926 107.847C31.5831 107.816 31.5747 107.79 31.5683 107.771C31.5619 107.751 31.5566 107.735 31.5534 107.726C31.5519 107.721 31.5505 107.717 31.5498 107.715C31.5494 107.714 31.5491 107.712 31.5489 107.712C31.5487 107.711 31.5487 107.711 31.5487 107.711C31.5487 107.711 31.5493 107.713 31.5501 107.716C31.551 107.718 31.5523 107.722 31.5541 107.728C31.5574 107.738 31.5628 107.754 31.5693 107.775C31.5759 107.795 31.5842 107.822 31.5937 107.853C31.6031 107.884 31.6141 107.922 31.6259 107.964L25.8477 109.58L20.0695 111.196C20.0957 111.29 20.1196 111.367 20.1357 111.418C20.1512 111.466 20.1645 111.506 20.1669 111.513C20.1699 111.522 20.168 111.517 20.1675 111.515C20.1662 111.511 20.1627 111.501 20.158 111.486C20.1491 111.459 20.1316 111.404 20.111 111.334L25.8682 109.645ZM25.8477 109.58L31.6289 107.975C31.6603 108.088 31.6636 108.204 31.6432 108.31L25.752 107.173L19.8607 106.036C19.5329 107.734 19.5971 109.495 20.0664 111.186L25.8477 109.58ZM25.752 107.173L31.6785 108.109C31.6781 108.112 31.6779 108.112 31.6784 108.11L25.8105 106.857L19.9427 105.605C19.8983 105.813 19.8591 106.024 19.8254 106.237L25.752 107.173ZM25.8105 106.857L31.6832 108.087C32.2337 105.457 33.3132 102.456 34.6644 99.9734C36.1541 97.2368 37.3921 96.1947 37.7308 96.0331L35.1465 90.6182L32.5622 85.2033C28.6766 87.0577 25.9135 90.95 24.1247 94.2364C22.1973 97.7771 20.721 101.887 19.9379 105.628L25.8105 106.857ZM35.1465 90.6182V84.6182H35.1406V90.6182V96.6182H35.1465V90.6182ZM35.1406 90.6182L37.724 96.0335C42.5209 93.7452 48.8123 91.7783 56.2209 90.2167L54.9834 84.3457L53.7459 78.4747C45.7889 80.152 38.5044 82.3657 32.5572 85.2028L35.1406 90.6182ZM54.9834 84.3457L60.9469 83.6849C59.8515 73.7997 60.8885 63.735 64.0586 54.1864L58.3643 52.2959L52.6699 50.4054C48.9514 61.6057 47.7351 73.4115 49.0199 85.0065L54.9834 84.3457ZM58.3643 52.2959L64.0534 54.2022C64.4466 53.0285 65.1991 52.0089 66.2073 51.2866L62.7129 46.4092L59.2184 41.5318C56.1575 43.7248 53.8698 46.8242 52.6751 50.3896L58.3643 52.2959ZM62.7129 46.4092L66.2073 51.2866C67.214 50.5654 68.4274 50.1758 69.6846 50.1758L69.6846 44.1758L69.6845 38.1758C65.9424 38.1758 62.2809 39.3378 59.2185 41.5317L62.7129 46.4092ZM69.6846 44.1758V50.1758H74.6279V44.1758V38.1758H69.6846V44.1758ZM74.6279 44.1758L80.0763 46.6889C84.0549 38.0633 92.4167 32.8718 102.315 32.9995L102.393 27L102.47 21.0005C88.0341 20.8143 75.2251 28.5564 69.1796 41.6627L74.6279 44.1758Z" fill="white" mask="url(#path-1-outside-1_1347_1389)"/>
<path d="M133.321 44.1758H69.6846C67.1848 44.1758 64.7471 44.9512 62.7125 46.4089C60.6779 47.8666 59.1582 49.926 58.3642 52.2955C53.2157 67.803 53.2467 84.5635 58.451 100.052C59.2326 102.453 60.7523 104.543 62.7931 106.026C64.8339 107.508 67.2903 108.302 69.8149 108.302H133.197C135.722 108.302 138.178 107.508 140.219 106.026C142.26 104.543 143.779 102.453 144.561 100.052C149.765 84.5635 149.796 67.803 144.648 52.2955C143.854 49.926 142.328 47.8666 140.3 46.4089C138.265 44.9512 135.827 44.1696 133.327 44.1758H133.321Z" fill="#DEEDFF"/>
<path d="M174 143.083H23.9996V164.204C23.9996 165.674 24.5827 167.089 25.6248 168.124C26.6669 169.167 28.075 169.75 29.5451 169.75H168.455C169.925 169.75 171.339 169.167 172.375 168.124C173.417 167.082 174 165.674 174 164.204V143.083Z" fill="#DEEDFF"/>
<path d="M148.475 96.7773C148.184 119.176 126.951 134.411 101.01 134.076C75.0626 133.741 54.233 117.967 54.5245 95.5616C54.6858 82.9943 61.4471 71.8475 71.9363 64.5466C71.651 62.5492 71.5145 60.5022 71.5455 58.4118C71.7875 39.2074 85.5829 26.7828 102.393 26.9999C119.203 27.217 132.67 39.9889 132.422 59.1934C132.397 61.2838 132.211 63.3308 131.87 65.3158C142.167 72.8896 148.636 84.2039 148.475 96.7773Z" fill="#4B9AE8"/>
<path d="M85.7318 57.407C89.4351 57.407 92.4373 54.4048 92.4373 50.7015C92.4373 46.9982 89.4351 43.9961 85.7318 43.9961C82.0285 43.9961 79.0264 46.9982 79.0264 50.7015C79.0264 54.4048 82.0285 57.407 85.7318 57.407Z" fill="white"/>
<path d="M85.96 54.5684C88.1691 54.5684 89.96 52.9377 89.96 50.9262C88.6657 49.7477 88.1691 53.1203 85.96 53.1203C83.7509 53.1203 83.6056 49.4277 81.96 50.9262C81.96 52.9377 83.7509 54.5684 85.96 54.5684Z" fill="#1E1E1E"/>
<path d="M117.882 57.823C121.585 57.823 124.587 54.8209 124.587 51.1175C124.587 47.4142 121.585 44.4121 117.882 44.4121C114.179 44.4121 111.176 47.4142 111.176 51.1175C111.176 54.8209 114.179 57.823 117.882 57.823Z" fill="white"/>
<path d="M117.96 54.5693C120.169 54.5693 121.96 52.9387 121.96 50.9271C120.666 49.7486 120.169 53.1213 117.96 53.1213C115.751 53.1213 115.606 49.4287 113.96 50.9271C113.96 52.9387 115.751 54.5693 117.96 54.5693Z" fill="#1E1E1E"/>
<path d="M109 56.2743C108.906 59.0615 105.017 64.1011 101.754 63.9985C98.4917 63.8958 94.9076 58.624 95.0018 55.8368C95.096 53.0496 97.3007 50.8512 102.164 51.0079C107.083 51.1645 109.089 53.4872 108.994 56.2797L109 56.2743Z" fill="#E8BE0F"/>
<path d="M72.4512 75.7432L91.7363 84.3095C96.0102 86.1332 97.6353 90.7668 94.937 93.4651C90.719 97.6831 83.7903 102.025 75.0068 98.2786C67.6687 95.1461 64.6726 88.7756 63.5313 83.1061" fill="#4D8ECC"/>
<path d="M131.839 76.8906L112.336 84.9607C108.013 86.6727 106.27 91.263 108.9 94.0357C113.006 98.3592 119.817 102.881 128.7 99.3641C136.119 96.4239 139.276 90.134 140.566 84.4893" fill="#4D8ECC"/>
<path d="M155.671 89.749H42.3357L19.7009 135.006C19.2357 135.93 19 136.954 19 137.983V156.617C19 157.467 19.3288 158.28 19.9056 158.9C20.4825 159.52 21.2765 159.892 22.1201 159.954C73.3134 163.397 124.68 163.397 175.874 159.954C176.717 159.899 177.511 159.52 178.094 158.906C178.677 158.286 179 157.473 179.006 156.623V137.99C179.006 136.954 178.764 135.937 178.305 135.012L155.677 89.749H155.671Z" fill="#FFDF3D"/>
<path d="M175.874 139.963C124.68 143.405 73.3134 143.405 22.1201 139.963C21.3695 139.901 20.6624 139.591 20.1103 139.076C19.5583 138.561 19.2047 137.872 19.0992 137.128C19.0496 137.413 19.0124 137.705 19 137.996V156.624C19 157.474 19.3288 158.286 19.9056 158.907C20.4825 159.527 21.2765 159.899 22.1201 159.961C73.3134 163.404 124.68 163.404 175.874 159.961C176.717 159.905 177.511 159.527 178.094 158.907C178.671 158.286 179 157.474 179 156.624V137.996C178.988 137.711 178.95 137.419 178.901 137.134C178.795 137.878 178.436 138.567 177.883 139.082C177.331 139.597 176.624 139.907 175.874 139.963Z" fill="#FFC44D"/>
<path d="M35.1464 90.6173C30.9222 92.6333 27.1445 100.486 25.8109 106.857C25.203 109.704 26.7537 112.706 28.8628 112.402C75.9249 105.393 123.769 105.393 170.831 112.402C172.946 112.737 174.497 109.71 173.876 106.857C172.518 100.493 168.753 92.6395 164.541 90.6235C135.331 76.6916 64.3315 76.6916 35.1402 90.6173H35.1464Z" fill="#DEEDFF"/>
<path d="M27.2376 111.918C29.0675 106.919 31.9767 102.13 35.1464 100.617C64.3377 86.6909 135.325 86.6909 164.516 100.617C167.692 102.13 170.601 106.931 172.431 111.925C173.095 111.28 173.579 110.473 173.827 109.58C174.081 108.687 174.093 107.75 173.864 106.851C172.505 100.486 168.74 92.6333 164.528 90.6174C135.337 76.6979 64.3501 76.6979 35.1588 90.6174C30.9346 92.6333 27.1569 100.486 25.8233 106.857C25.5938 107.75 25.6 108.687 25.8481 109.58C26.0962 110.467 26.5739 111.28 27.2314 111.925L27.2376 111.918Z" fill="#F1F7FF"/>
<path d="M108.763 81.8347L126.61 69.0255C130.964 65.8992 136.509 67.0716 137.558 71.3454C139.195 78.0261 139.338 87.4546 130.387 93.8809C122.913 99.2465 114.836 98.3905 108.559 96.1264C102.66 93.9988 102.784 86.1272 108.77 81.8347H108.763Z" fill="#276286"/>
<path opacity="0.5" d="M106.586 95.047C108.962 96.9017 114.712 97.857 117.138 97.8756C123.074 97.919 128.688 96.1263 132.682 91.9951C136.733 87.8081 138.439 82.4797 138.426 78.1562C138.414 73.8328 137.564 71.3516 137.564 71.3516C137.564 71.3516 135.945 79.4961 133.073 83.9002C130.201 88.3105 124.978 92.7271 119.395 94.0731C113.813 95.4192 110.581 95.0718 106.599 95.0532L106.586 95.047Z" fill="#14465D"/>
<path d="M94.2485 83.0811L77.4136 68.9693C73.3072 65.5266 67.6935 66.2772 66.3227 70.4642C64.1888 77.0021 63.339 86.3997 71.7813 93.4773C78.8341 99.3887 86.9476 99.1406 93.3801 97.3542C99.4218 95.6794 99.887 87.814 94.2485 83.0873V83.0811Z" fill="#276286"/>
<path opacity="0.5" d="M95.4271 96.4175C92.9211 98.0923 87.1151 98.6072 84.6959 98.4459C78.772 98.0427 73.3134 95.8344 69.6412 91.4117C65.9132 86.927 64.6168 81.4869 64.958 77.1821C65.2929 72.9268 66.3288 70.458 66.3288 70.458C66.3288 70.458 67.3337 78.7018 69.8645 83.3106C72.3953 87.9256 77.2709 92.7206 82.7419 94.4822C88.2068 96.2439 91.4571 96.1446 95.4271 96.4175Z" fill="#14465D"/>
</svg>
