<svg width="200" height="200" viewBox="0 0 200 200" fill="none" xmlns="http://www.w3.org/2000/svg">
<mask id="path-1-outside-1_1062_17954" maskUnits="userSpaceOnUse" x="14.0005" y="18.0002" width="170" height="170" fill="black">
<rect fill="white" x="14.0005" y="18.0002" width="170" height="170"/>
<path d="M120.739 40.7903C137.359 27.1089 161.248 17.8462 172.292 28.8899C175.547 32.1458 177.038 36.5215 177.175 41.4993C177.263 44.1515 176.977 46.9757 176.379 49.8899C176.365 49.8393 176.349 49.789 176.335 49.7385C174.017 60.5505 167.225 72.6599 159.092 82.0647C157.545 84.1438 155.758 86.0321 153.766 87.6897L151.331 89.7063L153.728 92.0774L157.775 111.163C158.267 111.014 158.782 110.937 159.305 110.937C160.698 110.937 162.033 111.489 163.017 112.474L170.442 119.899C171.427 120.883 171.979 122.218 171.979 123.611C171.979 125.003 171.427 126.339 170.442 127.324L162.815 134.949L166.067 150.278C166.453 152.318 166.244 154.426 165.467 156.352L162.579 163.515C162.232 164.356 161.673 165.092 160.957 165.652C160.24 166.211 159.39 166.575 158.49 166.707C157.59 166.84 156.671 166.736 155.824 166.407C154.976 166.077 154.228 165.533 153.654 164.827L129.03 133.392L129.016 133.403L118.441 119.94L116.8 118.321L79.5104 149.218L80.1853 152.448L81.8786 160.028C81.8479 160.053 81.8157 160.077 81.7849 160.103L84.5036 173.115C84.7003 174.119 84.61 175.159 84.2419 176.115L82.8161 179.602C82.6481 180.019 82.3729 180.384 82.0183 180.66C81.6636 180.937 81.242 181.114 80.7966 181.175C80.3512 181.236 79.8979 181.178 79.4821 181.007C79.0664 180.836 78.7032 180.559 78.4294 180.202L65.2194 167.001C65.21 167.001 65.2006 167.002 65.1911 167.002L58.614 160.447C53.8708 160.34 49.3335 158.482 45.8786 155.227C44.1891 153.435 42.8763 151.35 41.9899 149.097C41.9735 149.14 41.9572 149.183 41.9411 149.227C41.3901 147.749 41.0212 146.217 40.8347 144.664C40.7358 143.937 40.6784 143.202 40.6638 142.461L24.8825 126.69H24.7292L20.9792 122.94C20.6249 122.658 20.3504 122.289 20.1833 121.868C20.0524 121.539 19.9911 121.187 20.0017 120.835C19.9976 120.688 20.0049 120.54 20.0261 120.394C20.0906 119.946 20.2716 119.523 20.5505 119.167C20.8295 118.811 21.1976 118.534 21.6169 118.365L25.1413 116.865C26.106 116.564 27.1395 116.564 28.1042 116.865L51.8132 121.742L82.905 84.2923L81.279 82.6653L39.1804 49.6878L39.0534 49.7395L36.4284 47.677C35.8494 47.2229 35.376 46.6525 35.0329 46.0061C34.8854 45.7631 34.755 45.5091 34.6481 45.2434C34.3044 44.389 34.1918 43.459 34.321 42.5471C34.4502 41.6353 34.8169 40.7734 35.3845 40.0481C35.952 39.3229 36.7003 38.7599 37.5544 38.4153L44.7165 35.5647C46.6412 34.7767 48.7604 34.5942 50.7917 35.0403L66.2712 38.3479L73.8425 30.7776C74.827 29.7932 76.1621 29.2395 77.5544 29.2395C78.9467 29.2395 80.2818 29.7932 81.2663 30.7776L88.6911 38.2024C89.6756 39.1869 90.2291 40.522 90.2292 41.9143C90.2292 42.4294 90.1518 42.9365 90.0065 43.4212L99.3483 45.4182L109.217 47.4895L110.42 48.7327L111.515 49.8303L113.491 47.4524C115.152 45.4508 117.053 43.6619 119.153 42.1272C119.673 41.6772 120.203 41.2314 120.739 40.7903Z"/>
</mask>
<path d="M120.739 40.7903C137.359 27.1089 161.248 17.8462 172.292 28.8899C175.547 32.1458 177.038 36.5215 177.175 41.4993C177.263 44.1515 176.977 46.9757 176.379 49.8899C176.365 49.8393 176.349 49.789 176.335 49.7385C174.017 60.5505 167.225 72.6599 159.092 82.0647C157.545 84.1438 155.758 86.0321 153.766 87.6897L151.331 89.7063L153.728 92.0774L157.775 111.163C158.267 111.014 158.782 110.937 159.305 110.937C160.698 110.937 162.033 111.489 163.017 112.474L170.442 119.899C171.427 120.883 171.979 122.218 171.979 123.611C171.979 125.003 171.427 126.339 170.442 127.324L162.815 134.949L166.067 150.278C166.453 152.318 166.244 154.426 165.467 156.352L162.579 163.515C162.232 164.356 161.673 165.092 160.957 165.652C160.24 166.211 159.39 166.575 158.49 166.707C157.59 166.84 156.671 166.736 155.824 166.407C154.976 166.077 154.228 165.533 153.654 164.827L129.03 133.392L129.016 133.403L118.441 119.94L116.8 118.321L79.5104 149.218L80.1853 152.448L81.8786 160.028C81.8479 160.053 81.8157 160.077 81.7849 160.103L84.5036 173.115C84.7003 174.119 84.61 175.159 84.2419 176.115L82.8161 179.602C82.6481 180.019 82.3729 180.384 82.0183 180.66C81.6636 180.937 81.242 181.114 80.7966 181.175C80.3512 181.236 79.8979 181.178 79.4821 181.007C79.0664 180.836 78.7032 180.559 78.4294 180.202L65.2194 167.001C65.21 167.001 65.2006 167.002 65.1911 167.002L58.614 160.447C53.8708 160.34 49.3335 158.482 45.8786 155.227C44.1891 153.435 42.8763 151.35 41.9899 149.097C41.9735 149.14 41.9572 149.183 41.9411 149.227C41.3901 147.749 41.0212 146.217 40.8347 144.664C40.7358 143.937 40.6784 143.202 40.6638 142.461L24.8825 126.69H24.7292L20.9792 122.94C20.6249 122.658 20.3504 122.289 20.1833 121.868C20.0524 121.539 19.9911 121.187 20.0017 120.835C19.9976 120.688 20.0049 120.54 20.0261 120.394C20.0906 119.946 20.2716 119.523 20.5505 119.167C20.8295 118.811 21.1976 118.534 21.6169 118.365L25.1413 116.865C26.106 116.564 27.1395 116.564 28.1042 116.865L51.8132 121.742L82.905 84.2923L81.279 82.6653L39.1804 49.6878L39.0534 49.7395L36.4284 47.677C35.8494 47.2229 35.376 46.6525 35.0329 46.0061C34.8854 45.7631 34.755 45.5091 34.6481 45.2434C34.3044 44.389 34.1918 43.459 34.321 42.5471C34.4502 41.6353 34.8169 40.7734 35.3845 40.0481C35.952 39.3229 36.7003 38.7599 37.5544 38.4153L44.7165 35.5647C46.6412 34.7767 48.7604 34.5942 50.7917 35.0403L66.2712 38.3479L73.8425 30.7776C74.827 29.7932 76.1621 29.2395 77.5544 29.2395C78.9467 29.2395 80.2818 29.7932 81.2663 30.7776L88.6911 38.2024C89.6756 39.1869 90.2291 40.522 90.2292 41.9143C90.2292 42.4294 90.1518 42.9365 90.0065 43.4212L99.3483 45.4182L109.217 47.4895L110.42 48.7327L111.515 49.8303L113.491 47.4524C115.152 45.4508 117.053 43.6619 119.153 42.1272C119.673 41.6772 120.203 41.2314 120.739 40.7903Z" fill="#EAC00F"/>
<path d="M120.739 40.7903L124.55 45.4248L124.552 45.4226L120.739 40.7903ZM172.292 28.8899L176.534 24.6474L176.534 24.6473L172.292 28.8899ZM177.175 41.4993L171.178 41.6648C171.178 41.6752 171.178 41.6857 171.179 41.6961L177.175 41.4993ZM176.379 49.8899L170.585 51.45C171.308 54.1349 173.781 55.9713 176.56 55.8872C179.339 55.8031 181.697 53.8205 182.256 51.0969L176.379 49.8899ZM176.335 49.7385L182.113 48.1227C181.37 45.4646 178.909 43.6565 176.15 43.7414C173.392 43.8262 171.047 45.7821 170.468 48.4808L176.335 49.7385ZM159.092 82.0647L154.553 78.1398C154.457 78.2512 154.365 78.3661 154.277 78.4843L159.092 82.0647ZM153.766 87.6897L157.593 92.3112C157.597 92.3078 157.601 92.3044 157.605 92.3011L153.766 87.6897ZM151.331 89.7063L147.504 85.0849C146.199 86.1658 145.411 87.7483 145.337 89.4415C145.262 91.1347 145.907 92.7806 147.112 93.9724L151.331 89.7063ZM153.728 92.0774L159.598 90.8329C159.355 89.6861 158.781 88.6357 157.947 87.8114L153.728 92.0774ZM157.775 111.163L151.906 112.408C152.254 114.053 153.278 115.476 154.726 116.331C156.174 117.185 157.915 117.393 159.523 116.903L157.775 111.163ZM159.305 110.937L159.306 104.937H159.305V110.937ZM163.017 112.474L167.26 108.231L167.26 108.231L163.017 112.474ZM170.442 119.899L174.685 115.656L174.685 115.656L170.442 119.899ZM171.979 123.611L177.979 123.611L177.979 123.61L171.979 123.611ZM170.442 127.324L174.684 131.566L174.685 131.566L170.442 127.324ZM162.815 134.949L158.573 130.707C157.136 132.143 156.524 134.208 156.946 136.195L162.815 134.949ZM166.067 150.278L171.962 149.162C171.954 149.119 171.946 149.075 171.936 149.032L166.067 150.278ZM165.467 156.352L159.903 154.105L159.902 154.108L165.467 156.352ZM162.579 163.515L168.125 165.803C168.132 165.788 168.138 165.773 168.144 165.758L162.579 163.515ZM160.957 165.652L164.649 170.381L164.649 170.381L160.957 165.652ZM158.49 166.707L159.363 172.643L159.363 172.643L158.49 166.707ZM155.824 166.407L153.65 171.999L153.65 171.999L155.824 166.407ZM153.654 164.827L148.931 168.527C148.954 168.557 148.977 168.586 149.001 168.615L153.654 164.827ZM129.03 133.392L133.753 129.692C132.771 128.438 131.331 127.626 129.749 127.435C128.168 127.244 126.576 127.69 125.323 128.674L129.03 133.392ZM129.016 133.403L124.298 137.109C125.281 138.36 126.721 139.17 128.301 139.36C129.881 139.55 131.472 139.104 132.723 138.121L129.016 133.403ZM118.441 119.94L123.159 116.233C123.003 116.034 122.835 115.846 122.654 115.668L118.441 119.94ZM116.8 118.321L121.013 114.049C118.819 111.885 115.344 111.735 112.971 113.701L116.8 118.321ZM79.5104 149.218L75.6823 144.598C73.9694 146.017 73.1823 148.268 73.6373 150.445L79.5104 149.218ZM80.1853 152.448L74.3121 153.675C74.3177 153.702 74.3236 153.729 74.3296 153.756L80.1853 152.448ZM81.8786 160.028L85.7274 164.631C87.4494 163.191 88.2237 160.91 87.7343 158.719L81.8786 160.028ZM81.7849 160.103L77.9527 155.486C76.2425 156.906 75.4571 159.154 75.9117 161.33L81.7849 160.103ZM84.5036 173.115L90.3919 171.962C90.387 171.937 90.382 171.912 90.3768 171.887L84.5036 173.115ZM84.2419 176.115L89.7956 178.385C89.811 178.348 89.826 178.31 89.8406 178.272L84.2419 176.115ZM82.8161 179.602L77.2624 177.331C77.2586 177.34 77.2548 177.35 77.2511 177.359L82.8161 179.602ZM82.0183 180.66L85.7055 185.394L85.7056 185.394L82.0183 180.66ZM80.7966 181.175L81.6092 187.12L81.6095 187.12L80.7966 181.175ZM79.4821 181.007L77.2011 186.557L77.2014 186.557L79.4821 181.007ZM78.4294 180.202L83.1872 176.547C83.028 176.34 82.8554 176.143 82.6706 175.958L78.4294 180.202ZM65.2194 167.001L69.4607 162.757C68.3407 161.638 66.8237 161.007 65.2403 161.001L65.2194 167.001ZM65.1911 167.002L60.9554 171.252C62.0727 172.365 63.5836 172.994 65.1611 173.002L65.1911 167.002ZM58.614 160.447L62.8497 156.197C61.758 155.109 60.2895 154.483 58.7486 154.448L58.614 160.447ZM45.8786 155.227L41.5127 159.342C41.594 159.429 41.6779 159.513 41.7642 159.594L45.8786 155.227ZM41.9899 149.097L47.5735 146.901C46.6659 144.593 44.4323 143.082 41.9528 143.097C39.4732 143.112 37.2586 144.651 36.3796 146.97L41.9899 149.097ZM41.9411 149.227L36.319 151.322C37.1944 153.671 39.4376 155.228 41.944 155.227C44.4505 155.226 46.6921 153.666 47.5653 151.317L41.9411 149.227ZM40.8347 144.664L46.7918 143.949C46.7881 143.918 46.7842 143.887 46.78 143.856L40.8347 144.664ZM40.6638 142.461L46.6626 142.343C46.632 140.792 46.0021 139.314 44.9051 138.217L40.6638 142.461ZM24.8825 126.69L29.1238 122.446C27.9987 121.321 26.4732 120.69 24.8825 120.69V126.69ZM24.7292 126.69L20.4866 130.932C21.6118 132.058 23.1379 132.69 24.7292 132.69L24.7292 126.69ZM20.9792 122.94L25.2218 118.697C25.0599 118.535 24.8888 118.383 24.7094 118.24L20.9792 122.94ZM20.1833 121.868L14.6074 124.084L14.6078 124.085L20.1833 121.868ZM20.0017 120.835L25.9989 121.016C26.0024 120.9 26.0026 120.784 25.9993 120.668L20.0017 120.835ZM20.0261 120.394L14.0874 119.538L14.0874 119.538L20.0261 120.394ZM20.5505 119.167L15.8274 115.467L15.8271 115.467L20.5505 119.167ZM21.6169 118.365L23.8689 123.926C23.9015 123.913 23.9341 123.899 23.9666 123.885L21.6169 118.365ZM25.1413 116.865L23.3594 111.135C23.1667 111.195 22.9773 111.265 22.7916 111.344L25.1413 116.865ZM28.1042 116.865L26.3222 122.594C26.5106 122.652 26.7018 122.702 26.8951 122.741L28.1042 116.865ZM51.8132 121.742L50.6041 127.619C52.7744 128.066 55.0142 127.28 56.4296 125.575L51.8132 121.742ZM82.905 84.2923L87.5214 88.1249C89.5005 85.741 89.3391 82.2424 87.1489 80.0509L82.905 84.2923ZM81.279 82.6653L85.5229 78.4239C85.3515 78.2524 85.1699 78.0915 84.979 77.942L81.279 82.6653ZM39.1804 49.6878L42.8804 44.9644C41.1854 43.6367 38.909 43.3189 36.9152 44.1318L39.1804 49.6878ZM39.0534 49.7395L35.3465 54.4574C37.042 55.7896 39.3219 56.1096 41.3186 55.2955L39.0534 49.7395ZM36.4284 47.677L40.1353 42.9591L40.131 42.9557L36.4284 47.677ZM35.0329 46.0061L40.3327 43.1933C40.2787 43.0915 40.2218 42.9914 40.162 42.8929L35.0329 46.0061ZM34.6481 45.2434L29.0818 47.4831L29.0819 47.4834L34.6481 45.2434ZM34.321 42.5471L28.3803 41.7055L28.3803 41.7056L34.321 42.5471ZM35.3845 40.0481L30.6594 36.3504L30.6593 36.3505L35.3845 40.0481ZM37.5544 38.4153L35.3356 32.8406C35.3268 32.8441 35.3181 32.8476 35.3093 32.8512L37.5544 38.4153ZM44.7165 35.5647L46.9353 41.1394C46.9535 41.1321 46.9717 41.1248 46.9899 41.1174L44.7165 35.5647ZM50.7917 35.0403L49.5046 40.9006C49.5157 40.9031 49.5268 40.9055 49.5379 40.9079L50.7917 35.0403ZM66.2712 38.3479L65.0174 44.2155C67.0064 44.6405 69.0753 44.0289 70.5136 42.5908L66.2712 38.3479ZM73.8425 30.7776L78.0848 35.0205L78.0849 35.0205L73.8425 30.7776ZM77.5544 29.2395L77.5544 23.2395L77.5544 23.2395L77.5544 29.2395ZM81.2663 30.7776L85.5089 26.535L85.5087 26.5347L81.2663 30.7776ZM88.6911 38.2024L84.4485 42.4451L88.6911 38.2024ZM90.2292 41.9143L96.2292 41.9143L96.2292 41.914L90.2292 41.9143ZM90.0065 43.4212L84.2591 41.6987C83.7782 43.3034 83.99 45.0361 84.8434 46.4777C85.6968 47.9192 87.114 48.9384 88.7522 49.2886L90.0065 43.4212ZM99.3483 45.4182L98.094 51.2857C98.1013 51.2872 98.1085 51.2888 98.1158 51.2903L99.3483 45.4182ZM109.217 47.4895L113.528 43.3169C112.694 42.4556 111.622 41.8637 110.449 41.6175L109.217 47.4895ZM110.42 48.7327L106.108 52.9053C106.13 52.9276 106.151 52.9496 106.173 52.9716L110.42 48.7327ZM111.515 49.8303L107.269 54.0692C108.462 55.264 110.103 55.9011 111.789 55.8241C113.476 55.7471 115.052 54.9631 116.13 53.6646L111.515 49.8303ZM113.491 47.4524L118.106 51.2866L118.109 51.2835L113.491 47.4524ZM119.153 42.1272L122.693 46.9713C122.826 46.8746 122.954 46.7726 123.078 46.6654L119.153 42.1272ZM120.739 40.7903L124.552 45.4226C132.371 38.9858 141.77 33.7175 150.227 31.3452C158.967 28.8935 164.867 29.9505 168.049 33.1326L172.292 28.8899L176.534 24.6473C168.673 16.7856 157.106 16.9521 146.986 19.7912C136.582 22.7096 125.726 28.9134 116.926 36.158L120.739 40.7903ZM172.292 28.8899L168.049 33.1325C169.948 35.0321 171.071 37.7878 171.178 41.6648L177.175 41.4993L183.173 41.3338C183.005 35.2552 181.146 29.2596 176.534 24.6474L172.292 28.8899ZM177.175 41.4993L171.179 41.6961C171.247 43.7904 171.024 46.1366 170.501 48.683L176.379 49.8899L182.256 51.0969C182.93 47.8149 183.278 44.5127 183.172 41.3025L177.175 41.4993ZM176.379 49.8899L182.172 48.3298C182.156 48.2706 182.142 48.22 182.131 48.1824C182.12 48.1459 182.111 48.1145 182.106 48.0991C182.102 48.0852 182.104 48.0899 182.101 48.0812C182.1 48.0776 182.1 48.0775 182.101 48.0791C182.101 48.0819 182.106 48.0985 182.113 48.1227L176.335 49.7385L170.556 51.3544C170.57 51.4038 170.582 51.4456 170.591 51.4736C170.595 51.4879 170.599 51.5004 170.601 51.5093C170.603 51.5138 170.604 51.518 170.605 51.5212C170.606 51.5248 170.606 51.527 170.607 51.5292C170.61 51.539 170.608 51.5328 170.605 51.5216C170.601 51.5092 170.594 51.4839 170.585 51.45L176.379 49.8899ZM176.335 49.7385L170.468 48.4808C168.416 58.052 162.221 69.2739 154.553 78.1398L159.092 82.0647L163.63 85.9896C172.23 76.0459 179.617 63.049 182.201 50.9963L176.335 49.7385ZM159.092 82.0647L154.277 78.4843C153.014 80.1822 151.554 81.7244 149.928 83.0784L153.766 87.6897L157.605 92.3011C159.961 90.3397 162.076 88.1055 163.906 85.6451L159.092 82.0647ZM153.766 87.6897L149.94 83.0683L147.504 85.0849L151.331 89.7063L155.157 94.3278L157.593 92.3112L153.766 87.6897ZM151.331 89.7063L147.112 93.9724L149.509 96.3435L153.728 92.0774L157.947 87.8114L155.55 85.4403L151.331 89.7063ZM153.728 92.0774L147.859 93.322L151.906 112.408L157.775 111.163L163.645 109.919L159.598 90.8329L153.728 92.0774ZM157.775 111.163L159.523 116.903C159.443 116.927 159.37 116.937 159.305 116.937V110.937V104.937C158.195 104.937 157.09 105.1 156.027 105.424L157.775 111.163ZM159.305 110.937L159.305 116.937C159.108 116.937 158.916 116.858 158.775 116.717L163.017 112.474L167.26 108.231C165.149 106.121 162.288 104.937 159.306 104.937L159.305 110.937ZM163.017 112.474L158.775 116.717L166.199 124.141L170.442 119.899L174.685 115.656L167.26 108.231L163.017 112.474ZM170.442 119.899L166.199 124.141C166.058 124 165.979 123.808 165.979 123.611L171.979 123.611L177.979 123.61C177.979 120.628 176.795 117.767 174.685 115.656L170.442 119.899ZM171.979 123.611L165.979 123.611C165.979 123.414 166.057 123.223 166.199 123.081L170.442 127.324L174.685 131.566C176.796 129.455 177.979 126.592 177.979 123.611L171.979 123.611ZM170.442 127.324L166.2 123.081L158.573 130.707L162.815 134.949L167.058 139.192L174.684 131.566L170.442 127.324ZM162.815 134.949L156.946 136.195L160.198 151.523L166.067 150.278L171.936 149.032L168.684 133.704L162.815 134.949ZM166.067 150.278L160.172 151.393C160.344 152.303 160.251 153.244 159.903 154.105L165.467 156.352L171.03 158.599C172.238 155.609 172.563 152.333 171.962 149.162L166.067 150.278ZM165.467 156.352L159.902 154.108L157.014 161.272L162.579 163.515L168.144 165.758L171.031 158.595L165.467 156.352ZM162.579 163.515L157.032 161.227C157.08 161.11 157.16 161.004 157.265 160.922L160.957 165.652L164.649 170.381C166.187 169.18 167.384 167.601 168.125 165.803L162.579 163.515ZM160.957 165.652L157.265 160.922C157.368 160.842 157.489 160.79 157.617 160.771L158.49 166.707L159.363 172.643C161.29 172.36 163.112 171.581 164.649 170.381L160.957 165.652ZM158.49 166.707L157.617 160.771C157.746 160.752 157.876 160.767 157.997 160.814L155.824 166.407L153.65 171.999C155.466 172.705 157.435 172.927 159.363 172.643L158.49 166.707ZM155.824 166.407L157.998 160.814C158.118 160.861 158.225 160.938 158.307 161.04L153.654 164.827L149.001 168.615C150.232 170.127 151.834 171.293 153.65 171.999L155.824 166.407ZM153.654 164.827L158.377 161.127L133.753 129.692L129.03 133.392L124.307 137.092L148.931 168.527L153.654 164.827ZM129.03 133.392L125.323 128.674L125.309 128.685L129.016 133.403L132.723 138.121L132.737 138.11L129.03 133.392ZM129.016 133.403L133.735 129.696L123.159 116.233L118.441 119.94L113.723 123.646L124.298 137.109L129.016 133.403ZM118.441 119.94L122.654 115.668L121.013 114.049L116.8 118.321L112.586 122.592L114.228 124.211L118.441 119.94ZM116.8 118.321L112.971 113.701L75.6823 144.598L79.5104 149.218L83.3386 153.838L120.628 122.941L116.8 118.321ZM79.5104 149.218L73.6373 150.445L74.3121 153.675L80.1853 152.448L86.0584 151.22L85.3836 147.991L79.5104 149.218ZM80.1853 152.448L74.3296 153.756L76.0229 161.336L81.8786 160.028L87.7343 158.719L86.0409 151.139L80.1853 152.448ZM81.8786 160.028L78.0299 155.425C78.0655 155.395 78.0934 155.372 78.1079 155.361C78.1208 155.35 78.1302 155.343 78.1213 155.35C78.119 155.352 78.1112 155.358 78.1034 155.364C78.095 155.371 78.083 155.38 78.0692 155.391C78.0419 155.413 78.001 155.446 77.9527 155.486L81.7849 160.103L85.617 164.72C85.5841 164.747 85.5588 164.767 85.5472 164.776C85.5378 164.784 85.5298 164.79 85.5422 164.78C85.5491 164.775 85.5742 164.755 85.6028 164.732C85.6329 164.708 85.6764 164.673 85.7274 164.631L81.8786 160.028ZM81.7849 160.103L75.9117 161.33L78.6304 174.342L84.5036 173.115L90.3768 171.887L87.658 158.876L81.7849 160.103ZM84.5036 173.115L78.6154 174.267C78.5956 174.166 78.6041 174.059 78.6432 173.957L84.2419 176.115L89.8406 178.272C90.6159 176.26 90.805 174.072 90.3919 171.962L84.5036 173.115ZM84.2419 176.115L78.6881 173.844L77.2624 177.331L82.8161 179.602L88.3699 181.872L89.7956 178.385L84.2419 176.115ZM82.8161 179.602L77.2511 177.359C77.4776 176.797 77.8493 176.302 78.331 175.927L82.0183 180.66L85.7056 185.394C86.8966 184.466 87.8185 183.241 88.3811 181.845L82.8161 179.602ZM82.0183 180.66L78.3311 175.927C78.8124 175.552 79.3828 175.313 79.9836 175.23L80.7966 181.175L81.6095 187.12C83.1013 186.916 84.5148 186.321 85.7055 185.394L82.0183 180.66ZM80.7966 181.175L79.984 175.23C80.5872 175.148 81.201 175.227 81.7629 175.458L79.4821 181.007L77.2014 186.557C78.5948 187.129 80.1152 187.324 81.6092 187.12L80.7966 181.175ZM79.4821 181.007L81.7631 175.458C82.3235 175.688 82.8154 176.063 83.1872 176.547L78.4294 180.202L73.6716 183.858C74.591 185.055 75.8094 185.985 77.2011 186.557L79.4821 181.007ZM78.4294 180.202L82.6706 175.958L69.4607 162.757L65.2194 167.001L60.9782 171.245L74.1882 184.446L78.4294 180.202ZM65.2194 167.001L65.2403 161.001C65.1817 161.001 65.1295 161.002 65.0855 161.003C65.0415 161.004 65.0037 161.005 64.9743 161.006C64.9452 161.007 64.9214 161.008 64.9068 161.009C64.8993 161.01 64.8932 161.01 64.8893 161.01C64.8873 161.01 64.8857 161.01 64.8846 161.01C64.8837 161.01 64.8827 161.01 64.8827 161.01C64.8819 161.01 64.8841 161.01 64.8869 161.01C64.89 161.01 64.8953 161.01 64.902 161.009C64.915 161.009 64.9372 161.008 64.9647 161.007C64.9925 161.006 65.0287 161.004 65.0711 161.003C65.1136 161.003 65.1641 161.002 65.2212 161.002L65.1911 167.002L65.1611 173.002C65.2205 173.002 65.2734 173.002 65.3182 173.001C65.363 173 65.4015 172.999 65.4317 172.998C65.4616 172.996 65.4861 172.995 65.5015 172.994C65.5094 172.994 65.5158 172.994 65.5201 172.993C65.5241 172.993 65.5275 172.993 65.5279 172.993C65.5291 172.993 65.5271 172.993 65.5248 172.993C65.5221 172.993 65.5171 172.994 65.5109 172.994C65.4986 172.995 65.4772 172.996 65.4504 172.997C65.4234 172.998 65.3879 172.999 65.3463 173C65.3046 173.001 65.2548 173.001 65.1986 173.001L65.2194 167.001ZM65.1911 167.002L69.4268 162.753L62.8497 156.197L58.614 160.447L54.3783 164.696L60.9554 171.252L65.1911 167.002ZM58.614 160.447L58.7486 154.448C55.4871 154.375 52.3678 153.097 49.993 150.86L45.8786 155.227L41.7642 159.594C46.2992 163.866 52.2545 166.305 58.4793 166.445L58.614 160.447ZM45.8786 155.227L50.2446 151.111C49.0841 149.88 48.1825 148.449 47.5735 146.901L41.9899 149.097L36.4064 151.293C37.5701 154.252 39.2941 156.989 41.5127 159.342L45.8786 155.227ZM41.9899 149.097L36.3796 146.97C36.3609 147.019 36.3395 147.076 36.3169 147.137L41.9411 149.227L47.5653 151.317C47.575 151.291 47.5862 151.261 47.6003 151.224L41.9899 149.097ZM41.9411 149.227L47.5632 147.131C47.18 146.103 46.9223 145.035 46.7918 143.949L40.8347 144.664L34.8775 145.38C35.1201 147.399 35.6003 149.394 36.319 151.322L41.9411 149.227ZM40.8347 144.664L46.78 143.856C46.7121 143.357 46.6727 142.852 46.6626 142.343L40.6638 142.461L34.6649 142.58C34.6841 143.552 34.7595 144.517 34.8894 145.473L40.8347 144.664ZM40.6638 142.461L44.9051 138.217L29.1238 122.446L24.8825 126.69L20.6412 130.934L36.4224 146.705L40.6638 142.461ZM24.8825 126.69V120.69H24.7292V126.69V132.69H24.8825V126.69ZM24.7292 126.69L28.9718 122.447L25.2218 118.697L20.9792 122.94L16.7366 127.182L20.4866 130.932L24.7292 126.69ZM20.9792 122.94L24.7094 118.24C25.1784 118.612 25.5392 119.099 25.7588 119.652L20.1833 121.868L14.6078 124.085C15.1616 125.478 16.0714 126.705 17.249 127.639L20.9792 122.94ZM20.1833 121.868L25.7592 119.653C25.9321 120.088 26.0129 120.552 25.9989 121.016L20.0017 120.835L14.0044 120.655C13.9692 121.823 14.1727 122.99 14.6074 124.084L20.1833 121.868ZM20.0017 120.835L25.9993 120.668C26.0039 120.833 25.9965 121.029 25.9648 121.249L20.0261 120.394L14.0874 119.538C14.0134 120.052 13.9912 120.544 14.004 121.003L20.0017 120.835ZM20.0261 120.394L25.9647 121.25C25.8793 121.843 25.6401 122.4 25.2738 122.867L20.5505 119.167L15.8271 115.467C14.9031 116.647 14.3019 118.05 14.0874 119.538L20.0261 120.394ZM20.5505 119.167L25.2736 122.868C24.9039 123.339 24.4191 123.703 23.8689 123.926L21.6169 118.365L19.3649 112.803C17.9761 113.366 16.755 114.283 15.8274 115.467L20.5505 119.167ZM21.6169 118.365L23.9666 123.885L27.491 122.385L25.1413 116.865L22.7916 111.344L19.2672 112.844L21.6169 118.365ZM25.1413 116.865L26.9233 122.594C26.7274 122.655 26.5181 122.655 26.3222 122.594L28.1042 116.865L29.8862 111.135C27.7609 110.474 25.4846 110.474 23.3594 111.135L25.1413 116.865ZM28.1042 116.865L26.8951 122.741L50.6041 127.619L51.8132 121.742L53.0223 115.866L29.3133 110.988L28.1042 116.865ZM51.8132 121.742L56.4296 125.575L87.5214 88.1249L82.905 84.2923L78.2886 80.4596L47.1968 117.91L51.8132 121.742ZM82.905 84.2923L87.1489 80.0509L85.5229 78.4239L81.279 82.6653L77.0351 86.9067L78.6611 88.5336L82.905 84.2923ZM81.279 82.6653L84.979 77.942L42.8804 44.9644L39.1804 49.6878L35.4804 54.4111L77.579 87.3887L81.279 82.6653ZM39.1804 49.6878L36.9152 44.1318L36.7883 44.1835L39.0534 49.7395L41.3186 55.2955L41.4455 55.2438L39.1804 49.6878ZM39.0534 49.7395L42.7603 45.0216L40.1353 42.9591L36.4284 47.677L32.7215 52.3949L35.3465 54.4574L39.0534 49.7395ZM36.4284 47.677L40.131 42.9557C40.2235 43.0282 40.2896 43.112 40.3327 43.1933L35.0329 46.0061L29.7331 48.819C30.4624 50.1931 31.4753 51.4176 32.7258 52.3984L36.4284 47.677ZM35.0329 46.0061L40.162 42.8929C40.1627 42.8941 40.1853 42.9313 40.2143 43.0035L34.6481 45.2434L29.0819 47.4834C29.3248 48.0869 29.6081 48.6322 29.9038 49.1194L35.0329 46.0061ZM34.6481 45.2434L40.2144 43.0037C40.2643 43.1277 40.2798 43.2605 40.2617 43.3887L34.321 42.5471L28.3803 41.7056C28.1038 43.6575 28.3444 45.6503 29.0818 47.4831L34.6481 45.2434ZM34.321 42.5471L40.2617 43.3887C40.2433 43.5187 40.1909 43.6419 40.1097 43.7458L35.3845 40.0481L30.6593 36.3505C29.4428 37.9049 28.6571 39.7518 28.3803 41.7055L34.321 42.5471ZM35.3845 40.0481L40.1096 43.7459C40.028 43.8501 39.9208 43.9305 39.7995 43.9794L37.5544 38.4153L35.3093 32.8512C33.4799 33.5893 31.8761 34.7957 30.6594 36.3504L35.3845 40.0481ZM37.5544 38.4153L39.7732 43.99L46.9353 41.1394L44.7165 35.5647L42.4977 29.99L35.3356 32.8406L37.5544 38.4153ZM44.7165 35.5647L46.9899 41.1174C47.7854 40.7917 48.6626 40.7157 49.5046 40.9006L50.7917 35.0403L52.0788 29.18C48.8581 28.4726 45.4969 28.7618 42.4431 30.0121L44.7165 35.5647ZM50.7917 35.0403L49.5379 40.9079L65.0174 44.2155L66.2712 38.3479L67.525 32.4804L52.0455 29.1728L50.7917 35.0403ZM66.2712 38.3479L70.5136 42.5908L78.0848 35.0205L73.8425 30.7776L69.6001 26.5347L62.0288 34.105L66.2712 38.3479ZM73.8425 30.7776L78.0849 35.0205C77.9456 35.1597 77.7553 35.2395 77.5544 35.2395L77.5544 29.2395L77.5544 23.2395C74.5689 23.2395 71.7084 24.4267 69.6001 26.5347L73.8425 30.7776ZM77.5544 29.2395V35.2395C77.3535 35.2395 77.1631 35.1597 77.0239 35.0205L81.2663 30.7776L85.5087 26.5347C83.4004 24.4267 80.5399 23.2395 77.5544 23.2395V29.2395ZM81.2663 30.7776L77.0237 35.0203L84.4485 42.4451L88.6911 38.2024L92.9338 33.9598L85.5089 26.535L81.2663 30.7776ZM88.6911 38.2024L84.4485 42.4451C84.3088 42.3053 84.2292 42.1149 84.2292 41.9146L90.2292 41.9143L96.2292 41.914C96.229 38.9292 95.0425 36.0685 92.9338 33.9598L88.6911 38.2024ZM90.2292 41.9143H84.2292C84.2292 41.8274 84.2423 41.7548 84.2591 41.6987L90.0065 43.4212L95.754 45.1436C96.0613 44.1183 96.2292 43.0314 96.2292 41.9143H90.2292ZM90.0065 43.4212L88.7522 49.2886L98.094 51.2857L99.3483 45.4182L100.603 39.5508L91.2609 37.5537L90.0065 43.4212ZM99.3483 45.4182L98.1158 51.2903L107.984 53.3616L109.217 47.4895L110.449 41.6175L100.581 39.5462L99.3483 45.4182ZM109.217 47.4895L104.905 51.6622L106.108 52.9053L110.42 48.7327L114.731 44.56L113.528 43.3169L109.217 47.4895ZM110.42 48.7327L106.173 52.9716L107.269 54.0692L111.515 49.8303L115.762 45.5915L114.666 44.4938L110.42 48.7327ZM111.515 49.8303L116.13 53.6646L118.106 51.2866L113.491 47.4524L108.876 43.6182L106.9 45.9961L111.515 49.8303ZM113.491 47.4524L118.109 51.2835C119.454 49.6622 120.994 48.2137 122.693 46.9713L119.153 42.1272L115.613 37.2831C113.113 39.1101 110.849 41.2394 108.873 43.6214L113.491 47.4524ZM119.153 42.1272L123.078 46.6654C123.559 46.2494 124.05 45.8357 124.55 45.4248L120.739 40.7903L116.928 36.1558C116.355 36.6271 115.788 37.105 115.228 37.589L119.153 42.1272Z" fill="white" mask="url(#path-1-outside-1_1062_17954)"/>
<path d="M78.4288 180.202L20.9788 122.79C20.6245 122.508 20.3502 122.139 20.183 121.719C20.0159 121.299 19.9619 120.842 20.0264 120.394C20.0909 119.946 20.2717 119.523 20.5507 119.167C20.8296 118.811 21.1971 118.534 21.6163 118.365L25.1413 116.865C26.1061 116.565 27.1391 116.565 28.1038 116.865L56.7163 122.752L78.5413 144.577L84.5038 173.115C84.7005 174.119 84.6095 175.159 84.2413 176.115L82.8163 179.602C82.6483 180.019 82.3729 180.384 82.0183 180.661C81.6636 180.937 81.2422 181.115 80.7967 181.175C80.3513 181.236 79.8976 181.178 79.4818 181.008C79.066 180.837 78.7027 180.559 78.4288 180.202Z" fill="#4B9AE8"/>
<path d="M66.6163 142.14L70.9288 137.077L56.7163 122.752L28.1038 116.865C27.1126 116.649 26.0792 116.74 25.1413 117.127L21.6163 118.515C21.1971 118.684 20.8296 118.961 20.5507 119.317C20.2717 119.673 20.0909 120.096 20.0264 120.544C19.9619 120.992 20.0159 121.449 20.183 121.869C20.3502 122.289 20.6245 122.658 20.9788 122.94L24.7288 126.69H25.1788C26.1167 126.303 27.1501 126.211 28.1413 126.427L56.7163 132.127L66.6163 142.14Z" fill="#7AB9F8"/>
<path d="M78.4284 144.577L76.5159 142.665L53.1909 155.04L65.1909 167.002C67.0325 167.012 68.8651 166.746 70.6284 166.215C74.7435 164.9 78.5642 162.798 81.8784 160.027L78.4284 144.577Z" fill="#2C7AC6"/>
<path d="M163.017 112.474L170.442 119.899C171.426 120.883 171.98 122.219 171.98 123.611C171.98 125.003 171.426 126.339 170.442 127.323L149.998 147.767L135.148 132.918L155.593 112.474C156.577 111.489 157.913 110.936 159.305 110.936C160.697 110.936 162.033 111.489 163.017 112.474Z" fill="#6AA6E0"/>
<path d="M81.2666 30.7774L88.6913 38.2021C89.6758 39.1866 90.229 40.522 90.229 41.9144C90.229 43.3068 89.6758 44.6421 88.6913 45.6267L68.2736 66.0444L53.4243 51.1951L73.842 30.7774C74.8266 29.7929 76.1619 29.2397 77.5543 29.2397C78.9467 29.2397 80.2821 29.7929 81.2666 30.7774Z" fill="#6AA6E0"/>
<path d="M153.654 164.827L118.404 119.827L81.2791 82.6646L36.2791 47.4146C35.5543 46.8463 34.9918 46.0974 34.648 45.2429C34.3042 44.3885 34.1913 43.4587 34.3205 42.5468C34.4496 41.6349 34.8164 40.7731 35.384 40.0478C35.9516 39.3224 36.7 38.7592 37.5541 38.4146L44.7166 35.5646C46.6413 34.7766 48.7603 34.5935 50.7916 35.0396L109.217 47.5271L153.729 92.1146L166.067 150.277C166.453 152.318 166.245 154.426 165.467 156.352L162.579 163.515C162.232 164.355 161.673 165.092 160.956 165.651C160.239 166.211 159.389 166.575 158.49 166.707C157.59 166.839 156.671 166.736 155.823 166.406C154.976 166.076 154.228 165.532 153.654 164.827Z" fill="#4B9AE8"/>
<path d="M150.354 88.7397L153.729 92.0772L157.966 112.065L129.016 133.402L118.441 119.94L115.666 117.202L150.354 88.7397Z" fill="#2C7AC6"/>
<path d="M111.504 49.8523L104.604 58.1398L50.9785 46.8898C48.9349 46.4406 46.8031 46.6237 44.866 47.4148L39.0535 49.7398L36.4285 47.6773C35.7038 47.109 35.1412 46.3601 34.7975 45.5056C34.4537 44.6512 34.3407 43.7214 34.4699 42.8095C34.5991 41.8976 34.9659 41.0358 35.5334 40.3105C36.101 39.5851 36.8494 39.0219 37.7035 38.6773L44.866 35.7898C46.8119 35.0359 48.9326 34.8538 50.9785 35.2648L109.216 47.4898L111.504 49.8523Z" fill="#7AB9F8"/>
<path d="M45.4659 143.114L113.491 61.2895C115.161 59.2857 117.062 57.4857 119.153 55.927C135.803 41.527 160.928 31.3645 172.291 42.727C174.244 44.725 175.652 47.1913 176.378 49.8895C178.103 41.4895 177.241 33.8395 172.291 28.8895C161.041 17.6395 135.803 27.727 119.153 42.127C117.054 43.6617 115.152 45.4503 113.491 47.452L45.4659 129.389C43.1602 132.08 41.6173 135.339 40.9974 138.827C40.3775 142.316 40.7033 145.907 41.9409 149.227C42.7659 147.007 43.9574 144.941 45.4659 143.114Z" fill="white"/>
<path d="M159.091 82.0647C173.491 65.4147 183.691 40.2897 172.291 28.8897C160.891 17.4897 135.804 27.7272 119.154 42.1272C117.054 43.6619 115.152 45.4505 113.491 47.4522L45.4662 129.39C42.2993 132.972 40.5858 137.608 40.6621 142.388C40.7384 147.169 42.5991 151.748 45.8787 155.227C49.357 158.504 53.9323 160.366 58.7104 160.45C63.4885 160.533 68.1259 158.831 71.7162 155.677L153.766 87.6897C155.758 86.032 157.545 84.1438 159.091 82.0647Z" fill="#D7E8FC"/>
<path d="M82.92 71.84C87.2941 71.84 90.84 68.2941 90.84 63.92C90.84 59.5459 87.2941 56 82.92 56C78.5459 56 75 59.5459 75 63.92C75 68.2941 78.5459 71.84 82.92 71.84Z" fill="white"/>
<path d="M82.797 68.7254C85.4194 68.7254 87.5452 66.5996 87.5452 63.9772C87.5452 61.3548 85.4194 59.229 82.797 59.229C80.1747 59.229 78.0488 61.3548 78.0488 63.9772C78.0488 66.5996 80.1747 68.7254 82.797 68.7254Z" fill="black"/>
<path d="M140.92 125.84C145.294 125.84 148.84 122.294 148.84 117.92C148.84 113.546 145.294 110 140.92 110C136.546 110 133 113.546 133 117.92C133 122.294 136.546 125.84 140.92 125.84Z" fill="white"/>
<path d="M140.797 122.725C143.419 122.725 145.545 120.6 145.545 117.977C145.545 115.355 143.419 113.229 140.797 113.229C138.175 113.229 136.049 115.355 136.049 117.977C136.049 120.6 138.175 122.725 140.797 122.725Z" fill="black"/>
<path d="M157.329 43.852C154.19 40.7945 150.373 38.5215 146.19 37.2182C142.006 35.9149 137.574 35.6181 133.254 36.352L131.979 47.602C131.926 48.0085 131.97 48.4217 132.105 48.8084C132.241 49.1951 132.466 49.5446 132.761 49.829C133.056 50.1133 133.414 50.3245 133.806 50.4457C134.197 50.5669 134.612 50.5948 135.016 50.527C138.766 49.8895 144.879 49.927 148.029 53.077C151.179 56.227 151.254 62.4895 150.579 66.127C150.511 66.5312 150.539 66.9457 150.66 67.3373C150.781 67.7289 150.992 68.0866 151.277 68.3819C151.561 68.6771 151.911 68.9017 152.297 69.0376C152.684 69.1735 153.097 69.217 153.504 69.1645L164.754 67.8895C165.476 63.5813 165.181 59.164 163.891 54.9903C162.602 50.8166 160.355 47.0023 157.329 43.852Z" fill="#276288"/>
<path d="M133.254 36.277L131.979 47.527C131.926 47.9336 131.97 48.3467 132.105 48.7335C132.241 49.1202 132.466 49.4697 132.761 49.754C133.056 50.0384 133.414 50.2496 133.806 50.3708C134.197 50.492 134.612 50.5198 135.016 50.452C137.161 50.0997 139.342 50.0367 141.504 50.2645L156.954 43.327C153.809 40.412 150.036 38.2599 145.926 37.0373C141.816 35.8148 137.48 35.5546 133.254 36.277Z" fill="#4B9AE8"/>
<path d="M45.9534 155.227C45.4591 154.736 45.0668 154.151 44.7991 153.508C44.5314 152.864 44.3936 152.174 44.3936 151.477C44.3936 150.78 44.5314 150.09 44.7991 149.446C45.0668 148.803 45.4591 148.219 45.9534 147.727L66.3909 127.29C67.3855 126.295 68.7344 125.736 70.1409 125.736C71.5475 125.736 72.8964 126.295 73.8909 127.29C74.8855 128.284 75.4442 129.633 75.4442 131.04C75.4442 132.446 74.8855 133.795 73.8909 134.79L53.4534 155.227C52.962 155.721 52.3778 156.114 51.7342 156.381C51.0906 156.649 50.4005 156.787 49.7034 156.787C49.0064 156.787 48.3163 156.649 47.6727 156.381C47.0291 156.114 46.4448 155.721 45.9534 155.227Z" fill="#4B9AE8"/>
<path d="M104.317 82.1701C107.576 78.7591 116.87 77.4554 120.574 80.9213C124.277 84.3872 123.474 93.6447 120.212 97.0527C116.954 100.464 111.886 100.959 106.359 95.7867C100.771 90.5521 101.056 85.5781 104.317 82.1701Z" fill="#EAC00F"/>
</svg>
