<svg width="200" height="200" viewBox="0 0 200 200" fill="none" xmlns="http://www.w3.org/2000/svg">
<mask id="path-1-outside-1_898_2948" maskUnits="userSpaceOnUse" x="19" y="23.9717" width="162" height="153" fill="black">
<rect fill="white" x="19" y="23.9717" width="162" height="153"/>
<path d="M100 29.9717C141.421 29.9717 175 61.3448 175 100.045C175 138.745 144.343 171.212 100 170.117C55.3833 171.349 25.0001 138.745 25 100.045C25 90.8962 26.8769 82.1566 30.29 74.1445C32.4532 74.1134 34.7271 73.8454 37.0605 73.3438C36.9654 73.3199 36.8734 73.2941 36.7852 73.2656C34.6509 67.6873 37.9966 64.3162 40.5479 63.127C41.4069 56.3083 46.776 54.9443 49.0156 53.6416C50.068 45.905 59.7493 45.688 62.1074 45.417C65.5077 43.6762 68.1228 43.3684 69.8545 43.5723C70.2377 40.9349 70.0425 38.4113 69.2012 36.1338C78.5974 32.175 89.0233 29.9717 100 29.9717Z"/>
</mask>
<path d="M100 29.9717C141.421 29.9717 175 61.3448 175 100.045C175 138.745 144.343 171.212 100 170.117C55.3833 171.349 25.0001 138.745 25 100.045C25 90.8962 26.8769 82.1566 30.29 74.1445C32.4532 74.1134 34.7271 73.8454 37.0605 73.3438C36.9654 73.3199 36.8734 73.2941 36.7852 73.2656C34.6509 67.6873 37.9966 64.3162 40.5479 63.127C41.4069 56.3083 46.776 54.9443 49.0156 53.6416C50.068 45.905 59.7493 45.688 62.1074 45.417C65.5077 43.6762 68.1228 43.3684 69.8545 43.5723C70.2377 40.9349 70.0425 38.4113 69.2012 36.1338C78.5974 32.175 89.0233 29.9717 100 29.9717Z" fill="#174C6E"/>
<path d="M100 29.9717L100 23.9717H100V29.9717ZM175 100.045L181 100.045L181 100.045L175 100.045ZM100 170.117L100.148 164.119C100.044 164.116 99.939 164.117 99.8344 164.119L100 170.117ZM25 100.045L19 100.045L19 100.045L25 100.045ZM30.29 74.1445L30.2038 68.1452C27.8305 68.1793 25.7003 69.6093 24.77 71.793L30.29 74.1445ZM37.0605 73.3438L38.3217 79.2097C41.0484 78.6235 43.0117 76.2356 43.0597 73.447C43.1076 70.6584 41.2277 68.2044 38.5228 67.5247L37.0605 73.3438ZM36.7852 73.2656L31.1813 75.4096C31.8304 77.1063 33.2134 78.4176 34.9422 78.9756L36.7852 73.2656ZM40.5479 63.127L43.0829 68.5651C44.9523 67.6937 46.243 65.9232 46.5008 63.8769L40.5479 63.127ZM49.0156 53.6416L52.0324 58.828C53.6311 57.8981 54.7116 56.2829 54.9609 54.4503L49.0156 53.6416ZM62.1074 45.417L62.7925 51.3778C63.5072 51.2956 64.2013 51.0856 64.8417 50.7577L62.1074 45.417ZM69.8545 43.5723L69.153 49.5311C72.3811 49.9111 75.3248 47.6515 75.7922 44.4349L69.8545 43.5723ZM69.2012 36.1338L66.8716 30.6045C63.9143 31.8505 62.4609 35.2027 63.5729 38.2129L69.2012 36.1338ZM100 29.9717L100 35.9717C138.498 35.9717 169 65.0359 169 100.045L175 100.045L181 100.045C181 57.6536 144.345 23.9717 100 23.9717L100 29.9717ZM175 100.045L169 100.045C169 135.343 141.151 165.131 100.148 164.119L100 170.117L99.8519 176.115C147.535 177.293 181 142.147 181 100.045L175 100.045ZM100 170.117L99.8344 164.119C58.6041 165.258 31.0001 135.376 31 100.045L25 100.045L19 100.045C19.0001 142.115 52.1625 177.44 100.166 176.115L100 170.117ZM25 100.045L31 100.045C31 91.7259 32.7051 83.7847 35.81 76.496L30.29 74.1445L24.77 71.793C21.0488 80.5285 19 90.0664 19 100.045L25 100.045ZM30.29 74.1445L30.3763 80.1439C32.9703 80.1066 35.6386 79.7866 38.3217 79.2097L37.0605 73.3438L35.7994 67.4778C33.8156 67.9043 31.9362 68.1203 30.2038 68.1452L30.29 74.1445ZM37.0605 73.3438L38.5228 67.5247C38.5255 67.5253 38.5641 67.535 38.6281 67.5557L36.7852 73.2656L34.9422 78.9756C35.1827 79.0532 35.4054 79.1144 35.5983 79.1628L37.0605 73.3438ZM36.7852 73.2656L42.389 71.1216C42.1187 70.4151 42.0974 69.9846 42.1071 69.7813C42.1166 69.583 42.1618 69.4535 42.2193 69.3443C42.3749 69.0485 42.7349 68.7273 43.0829 68.5651L40.5479 63.127L38.0128 57.6888C35.8096 58.7159 33.2211 60.6749 31.5996 63.7565C29.86 67.0628 29.5351 71.1068 31.1813 75.4096L36.7852 73.2656ZM40.5479 63.127L46.5008 63.8769C46.7101 62.2156 47.3311 61.5354 47.9662 61.0374C48.3791 60.7137 48.886 60.4153 49.5608 60.0764C49.9225 59.8948 50.2212 59.7552 50.6541 59.5461C51.0228 59.3679 51.5348 59.1174 52.0324 58.828L49.0156 53.6416L45.9988 48.4552C45.3758 48.8176 35.9245 51.8228 34.5949 62.377L40.5479 63.127ZM49.0156 53.6416L54.9609 54.4503C55.0448 53.833 55.243 53.5501 55.4547 53.3346C55.7424 53.0416 56.2694 52.6847 57.1573 52.3556C59.121 51.6277 61.0645 51.5763 62.7925 51.3778L62.1074 45.417L61.4224 39.4562C60.7922 39.5287 56.716 39.7213 52.9864 41.1038C49.0166 42.5753 44.011 45.9176 43.0704 52.8329L49.0156 53.6416ZM62.1074 45.417L64.8417 50.7577C67.3916 49.4523 68.8154 49.4914 69.153 49.5311L69.8545 43.5723L70.5559 37.6134C67.4303 37.2455 63.6238 37.9 59.3731 40.0762L62.1074 45.417ZM69.8545 43.5723L75.7922 44.4349C76.2949 40.9748 76.0723 37.4191 74.8294 34.0546L69.2012 36.1338L63.5729 38.2129C64.0127 39.4035 64.1805 40.895 63.9168 42.7096L69.8545 43.5723ZM69.2012 36.1338L71.5308 41.6631C80.1959 38.0123 89.8302 35.9717 100 35.9717V29.9717V23.9717C88.2164 23.9717 76.9989 26.3376 66.8716 30.6045L69.2012 36.1338Z" fill="white" mask="url(#path-1-outside-1_898_2948)"/>
<path d="M62.1072 45.4173C67.5229 42.6445 70.947 43.5054 71.982 44.2825C58.6898 68.9564 41.9031 74.9176 36.7854 73.2658C34.6509 67.6871 37.9968 64.316 40.5481 63.1268C41.4071 56.3081 46.7757 54.9445 49.0153 53.6418C50.0674 45.905 59.7491 45.6883 62.1072 45.4173Z" fill="#843E0F"/>
<path d="M100 29.9719C141.421 29.9719 175 61.3449 175 100.045C175 138.745 144.343 171.212 100 170.117C55.3833 171.349 25.0001 138.745 25 100.045C25 90.8963 26.8769 82.1569 30.29 74.1448C36.9179 74.0495 44.5886 71.746 51.8076 67.2307C65.3789 58.742 72.6242 45.4001 69.2012 36.134C78.5974 32.1752 89.0233 29.9719 100 29.9719Z" fill="#4B9AE8"/>
<path d="M78.0438 90.0876C84.6954 90.0876 90.0876 84.6954 90.0876 78.0438C90.0876 71.3922 84.6954 66 78.0438 66C71.3922 66 66 71.3922 66 78.0438C66 84.6954 71.3922 90.0876 78.0438 90.0876Z" fill="white"/>
<path d="M77.993 84.657C81.673 84.657 84.6563 81.6738 84.6563 77.9938C84.6563 74.3138 81.673 71.3306 77.993 71.3306C74.3131 71.3306 71.3298 74.3138 71.3298 77.9938C71.3298 81.6738 74.3131 84.657 77.993 84.657Z" fill="black"/>
<path d="M122.044 90.0876C128.695 90.0876 134.088 84.6954 134.088 78.0438C134.088 71.3922 128.695 66 122.044 66C115.392 66 110 71.3922 110 78.0438C110 84.6954 115.392 90.0876 122.044 90.0876Z" fill="white"/>
<path d="M121.994 84.657C125.674 84.657 128.657 81.6738 128.657 77.9938C128.657 74.3138 125.674 71.3306 121.994 71.3306C118.314 71.3306 115.33 74.3138 115.33 77.9938C115.33 81.6738 118.314 84.657 121.994 84.657Z" fill="black"/>
<ellipse cx="100.137" cy="108.868" rx="22.0347" ry="19.0237" fill="#EAC00F"/>
<ellipse cx="58.7839" cy="107.377" rx="20.2449" ry="19.0237" transform="rotate(65.074 58.7839 107.377)" fill="#A2D0FD"/>
<ellipse cx="20.2449" cy="19.0237" rx="20.2449" ry="19.0237" transform="matrix(-0.421448 0.906853 0.906853 0.421448 133.064 82)" fill="#A2D0FD"/>
<ellipse cx="102.464" cy="98.877" rx="4.37956" ry="3.83212" fill="#FAFAF7"/>
<path d="M53.6727 88.2966C60.0109 87.3374 73.6523 89.4381 77.513 105.514C81.6381 122.691 64.3037 126.703 60.5775 127.597" stroke="#40678D" stroke-width="1.91606" stroke-linecap="round"/>
<path d="M146.544 88.2966C140.206 87.3374 126.565 89.4381 122.704 105.514C118.579 122.691 135.913 126.703 139.64 127.597" stroke="#40678D" stroke-width="1.91606" stroke-linecap="round"/>
</svg>
