<svg width="200" height="200" viewBox="0 0 200 200" fill="none" xmlns="http://www.w3.org/2000/svg">
<mask id="path-1-outside-1_1062_16847" maskUnits="userSpaceOnUse" x="12.9995" y="24.835" width="174" height="155" fill="black">
<rect fill="white" x="12.9995" y="24.835" width="174" height="155"/>
<path d="M62.9028 30.835C73.0466 30.835 82.328 34.3446 89.7534 40.1328L70.604 72.042C68.9315 74.8359 69.5104 78.4263 71.9839 80.5439L98.6558 103.407L79.1021 132.976C77.6828 135.12 77.6254 137.888 78.9468 140.09L98.9136 173.373C98.8024 173.418 98.682 173.476 98.5708 173.516C68.3885 162.544 26.2783 122.587 20.1831 84.708C19.4357 81.5003 18.9995 78.1719 18.9995 74.7373C18.9997 50.4859 38.6558 30.8351 62.9028 30.835ZM136.243 30.8438C160.485 30.8438 180.141 50.495 180.146 74.751C180.146 78.1856 179.71 81.5139 178.954 84.7217C173.668 117.582 141.266 151.991 113.068 167.691L94.5552 136.838L115.039 105.863C116.894 103.056 116.374 99.3051 113.82 97.1162L86.9526 74.0889L104.935 44.1152C112.894 35.9647 123.941 30.8439 136.243 30.8438Z"/>
</mask>
<path d="M62.9028 30.835C73.0466 30.835 82.328 34.3446 89.7534 40.1328L70.604 72.042C68.9315 74.8359 69.5104 78.4263 71.9839 80.5439L98.6558 103.407L79.1021 132.976C77.6828 135.12 77.6254 137.888 78.9468 140.09L98.9136 173.373C98.8024 173.418 98.682 173.476 98.5708 173.516C68.3885 162.544 26.2783 122.587 20.1831 84.708C19.4357 81.5003 18.9995 78.1719 18.9995 74.7373C18.9997 50.4859 38.6558 30.8351 62.9028 30.835ZM136.243 30.8438C160.485 30.8438 180.141 50.495 180.146 74.751C180.146 78.1856 179.71 81.5139 178.954 84.7217C173.668 117.582 141.266 151.991 113.068 167.691L94.5552 136.838L115.039 105.863C116.894 103.056 116.374 99.3051 113.82 97.1162L86.9526 74.0889L104.935 44.1152C112.894 35.9647 123.941 30.8439 136.243 30.8438Z" fill="#040000"/>
<path d="M62.9028 30.835L62.9028 24.835L62.9028 24.835L62.9028 30.835ZM89.7534 40.1328L94.8981 43.2203C96.4584 40.6203 95.8336 37.2648 93.4422 35.4007L89.7534 40.1328ZM70.604 72.042L65.4593 68.9546L65.4559 68.9603L70.604 72.042ZM71.9839 80.5439L75.8888 75.9885L75.8859 75.9861L71.9839 80.5439ZM98.6558 103.407L103.66 106.717C105.329 104.193 104.858 100.821 102.561 98.8518L98.6558 103.407ZM79.1021 132.976L84.1055 136.287L84.1067 136.285L79.1021 132.976ZM78.9468 140.09L84.0919 137.003L84.0917 137.003L78.9468 140.09ZM98.9136 173.373L101.142 178.944C102.775 178.291 104.038 176.955 104.6 175.289C105.161 173.622 104.963 171.794 104.059 170.286L98.9136 173.373ZM98.5708 173.516L96.521 179.155C97.8391 179.634 99.2835 179.636 100.603 179.161L98.5708 173.516ZM20.1831 84.708L26.1069 83.7548C26.0849 83.6178 26.0581 83.4816 26.0266 83.3464L20.1831 84.708ZM18.9995 74.7373L12.9995 74.7372V74.7373H18.9995ZM136.243 30.8438L136.243 24.8437L136.243 24.8438L136.243 30.8438ZM180.146 74.751L186.146 74.751L186.146 74.7498L180.146 74.751ZM178.954 84.7217L173.114 83.3447C173.081 83.4851 173.053 83.6265 173.03 83.7688L178.954 84.7217ZM113.068 167.691L107.923 170.778C109.589 173.555 113.158 174.509 115.987 172.934L113.068 167.691ZM94.5552 136.838L89.5505 133.528C88.276 135.456 88.2214 137.944 89.4103 139.925L94.5552 136.838ZM115.039 105.863L120.043 109.173L120.044 109.171L115.039 105.863ZM113.82 97.1162L117.725 92.5607L117.724 92.5605L113.82 97.1162ZM86.9526 74.0889L81.8075 71.0021C80.3022 73.5113 80.8263 76.7404 83.0481 78.6445L86.9526 74.0889ZM104.935 44.1152L100.642 39.9233C100.316 40.2573 100.03 40.6282 99.79 41.0285L104.935 44.1152ZM62.9028 30.835V36.835C71.6302 36.835 79.6284 39.8479 86.0647 44.865L89.7534 40.1328L93.4422 35.4007C85.0275 28.8414 74.4631 24.835 62.9028 24.835V30.835ZM89.7534 40.1328L84.6087 37.0454L65.4593 68.9546L70.604 72.042L75.7487 75.1294L94.8981 43.2203L89.7534 40.1328ZM70.604 72.042L65.4559 68.9603C62.2869 74.2542 63.3776 81.0744 68.0818 85.1018L71.9839 80.5439L75.8859 75.9861C75.6432 75.7782 75.5761 75.4177 75.7521 75.1237L70.604 72.042ZM71.9839 80.5439L68.079 85.0993L94.7508 107.963L98.6558 103.407L102.561 98.8518L75.8888 75.9885L71.9839 80.5439ZM98.6558 103.407L93.6511 100.098L74.0974 129.666L79.1021 132.976L84.1067 136.285L103.66 106.717L98.6558 103.407ZM79.1021 132.976L74.0986 129.664C71.4006 133.741 71.2941 138.997 73.8018 143.177L78.9468 140.09L84.0917 137.003C83.9567 136.778 83.965 136.499 84.1055 136.287L79.1021 132.976ZM78.9468 140.09L73.8016 143.176L93.7684 176.46L98.9136 173.373L104.059 170.286L84.0919 137.003L78.9468 140.09ZM98.9136 173.373L96.685 167.802C96.5896 167.84 96.5087 167.875 96.4585 167.896C96.4325 167.908 96.409 167.918 96.393 167.925C96.3737 167.933 96.3666 167.936 96.3571 167.94C96.3396 167.948 96.352 167.942 96.3767 167.932C96.4018 167.922 96.4593 167.899 96.5385 167.87L98.5708 173.516L100.603 179.161C100.738 179.112 100.852 179.067 100.935 179.033C101.017 178.999 101.087 178.969 101.127 178.952C101.191 178.924 101.175 178.931 101.199 178.92C101.206 178.917 101.182 178.928 101.142 178.944L98.9136 173.373ZM98.5708 173.516L100.621 167.877C86.6578 162.801 69.344 150.724 54.7252 135.103C40.0835 119.456 28.89 101.051 26.1069 83.7548L20.1831 84.708L14.2593 85.6612C17.5714 106.245 30.4806 126.757 45.9634 143.302C61.4691 159.871 80.3015 173.259 96.521 179.155L98.5708 173.516ZM20.1831 84.708L26.0266 83.3464C25.3705 80.5307 24.9995 77.6609 24.9995 74.7373H18.9995H12.9995C12.9995 78.6829 13.5009 82.4698 14.3396 86.0696L20.1831 84.708ZM18.9995 74.7373L24.9995 74.7374C24.9997 53.8001 41.969 36.8351 62.9029 36.835L62.9028 30.835L62.9028 24.835C35.3427 24.8351 12.9998 47.1716 12.9995 74.7372L18.9995 74.7373ZM136.243 30.8438V36.8438C157.171 36.8438 174.142 53.8084 174.146 74.7521L180.146 74.751L186.146 74.7498C186.141 47.1816 163.8 24.8438 136.243 24.8438V30.8438ZM180.146 74.751H174.146C174.146 77.6744 173.775 80.5395 173.114 83.3447L178.954 84.7217L184.793 86.0986C185.645 82.4884 186.146 78.6968 186.146 74.751H180.146ZM178.954 84.7217L173.03 83.7688C170.621 98.7418 161.901 114.581 150.003 128.789C138.148 142.947 123.556 154.984 110.149 162.449L113.068 167.691L115.987 172.934C130.778 164.698 146.486 151.681 159.203 136.494C171.877 121.358 182 103.562 184.877 85.6745L178.954 84.7217ZM113.068 167.691L118.213 164.604L99.7001 133.751L94.5552 136.838L89.4103 139.925L107.923 170.778L113.068 167.691ZM94.5552 136.838L99.5598 140.147L120.043 109.173L115.039 105.863L110.034 102.554L89.5505 133.528L94.5552 136.838ZM115.039 105.863L120.044 109.171C123.562 103.848 122.582 96.7243 117.725 92.5607L113.82 97.1162L109.915 101.672C110.165 101.886 110.225 102.264 110.033 102.555L115.039 105.863ZM113.82 97.1162L117.724 92.5605L90.8572 69.5332L86.9526 74.0889L83.0481 78.6445L109.915 101.672L113.82 97.1162ZM86.9526 74.0889L92.0977 77.1756L110.08 47.202L104.935 44.1152L99.79 41.0285L81.8075 71.0021L86.9526 74.0889ZM104.935 44.1152L109.228 48.3072C116.126 41.2434 125.652 36.8438 136.243 36.8437L136.243 30.8438L136.243 24.8438C122.231 24.8439 109.663 30.686 100.642 39.9233L104.935 44.1152Z" fill="white" mask="url(#path-1-outside-1_1062_16847)"/>
<path d="M78.9464 140.09C77.625 137.887 77.6828 135.12 79.1021 132.976L98.6556 103.407L71.9836 80.5437C69.5099 78.426 68.9316 74.8356 70.6044 72.0416L89.7531 40.1331C82.3276 34.3449 73.0469 30.8346 62.9031 30.8346C38.6559 30.8346 19 50.486 19 74.7377C19 78.1724 19.436 81.5003 20.1834 84.708C26.2786 122.587 68.3888 162.544 98.5711 173.515C98.6823 173.475 98.8024 173.417 98.9136 173.373L78.9464 140.09Z" fill="#4B9AE8"/>
<path d="M136.243 30.8438C123.941 30.8438 112.894 35.9646 104.935 44.1152L86.9521 74.0884L113.82 97.1166C116.374 99.3056 116.894 103.056 115.039 105.863L94.5556 136.838L113.068 167.692C141.266 151.991 173.668 117.582 178.954 84.7216C179.71 81.5139 180.146 78.186 180.146 74.7513C180.142 50.4952 160.486 30.8438 136.243 30.8438Z" fill="#4B9AE8"/>
<path d="M152.646 73C158.445 73 163.146 68.299 163.146 62.5C163.146 56.701 158.445 52 152.646 52C146.847 52 142.146 56.701 142.146 62.5C142.146 68.299 146.847 73 152.646 73Z" fill="white"/>
<path d="M152.646 68.0968C155.737 68.0968 158.243 65.591 158.243 62.5C158.243 59.409 155.737 56.9032 152.646 56.9032C149.555 56.9032 147.049 59.409 147.049 62.5C147.049 65.591 149.555 68.0968 152.646 68.0968Z" fill="#040000"/>
<path d="M41.646 73C47.445 73 52.146 68.299 52.146 62.5C52.146 56.701 47.445 52 41.646 52C35.847 52 31.146 56.701 31.146 62.5C31.146 68.299 35.847 73 41.646 73Z" fill="white"/>
<path d="M41.6461 68.0968C44.7371 68.0968 47.2429 65.591 47.2429 62.5C47.2429 59.409 44.7371 56.9032 41.6461 56.9032C38.5551 56.9032 36.0493 59.409 36.0493 62.5C36.0493 65.591 38.5551 68.0968 41.6461 68.0968Z" fill="#040000"/>
</svg>
