<svg width="200" height="200" viewBox="0 0 200 200" fill="none" xmlns="http://www.w3.org/2000/svg">
<g clip-path="url(#clip0_628_2561)">
<path d="M113.217 118.743V150.97C113.217 152.587 111.89 153.913 110.273 153.913H100.037C97.8959 153.913 96.1426 152.16 96.1426 150.019C96.1426 148.951 96.5825 147.974 97.2877 147.269C97.993 146.564 98.9635 146.124 100.037 146.124L107.135 147.592V118.749C107.135 117.132 108.461 115.806 110.079 115.806H110.279C111.897 115.806 113.223 117.132 113.223 118.749L113.217 118.743Z" fill="#474747"/>
<path d="M86.3436 118.743V150.97C86.3436 152.587 85.0173 153.913 83.3998 153.913H73.1644C71.0229 153.913 69.2695 152.16 69.2695 150.019C69.2695 148.951 69.7095 147.974 70.4147 147.269C71.1199 146.564 72.0904 146.124 73.1644 146.124L80.2619 147.592V118.749C80.2619 117.132 81.5882 115.806 83.2057 115.806H83.4063C85.0238 115.806 86.3501 117.132 86.3501 118.749L86.3436 118.743Z" fill="#474747"/>
<path d="M148.225 109.363C148.225 117.463 145.508 124.677 140.811 130.597C132.633 140.916 118.464 147.315 102.244 147.69C101.733 147.703 101.221 147.71 100.71 147.71C100.199 147.71 99.6881 147.71 99.1769 147.69C82.9569 147.315 68.7943 140.916 60.6098 130.603C60.6098 130.603 60.6098 130.603 60.6098 130.597C55.9191 124.677 53.1953 117.469 53.1953 109.363C53.1953 96.6492 59.8917 85.2881 70.3988 77.7636C70.3988 77.7636 70.4247 72.6782 70.4247 70.5949C70.4247 51.4893 83.9856 37.249 100.717 37.249C117.448 37.249 131.002 51.4893 131.002 70.5949C131.002 72.6718 130.394 76.8513 130.097 77.1166C130.731 77.5113 131.028 77.7571 131.028 77.7571C141.542 85.2816 148.238 96.6428 148.238 109.363H148.225Z" fill="#4D8DCB"/>
<path d="M91.2482 68.6356C94.993 68.6356 98.0287 65.5999 98.0287 61.8552C98.0287 58.1104 94.993 55.0747 91.2482 55.0747C87.5035 55.0747 84.4678 58.1104 84.4678 61.8552C84.4678 65.5999 87.5035 68.6356 91.2482 68.6356Z" fill="white"/>
<path d="M73.5373 72.782C69.7718 73.1702 63.5542 70.097 63.2243 66.8815C62.8943 63.6724 68.3484 59.3893 72.1139 59.0011C75.8794 58.6129 79.1532 60.3986 79.6449 65.1864C80.1366 69.9741 77.3028 72.3938 73.5373 72.782Z" fill="#DDB61E"/>
<path opacity="0.5" d="M108.281 38.2583C108.281 38.2583 116.944 48.6554 119.287 54.776C122.082 62.087 122.14 69.0098 121.603 72.2253C120.386 79.5234 117.197 84.3046 117.197 84.3046C117.197 84.3046 127.827 76.7737 130.137 77.1877C130.816 75.3567 130.958 73.4805 130.997 70.6014C131.081 63.8727 129.328 55.9664 123.822 48.7719C121.629 45.9057 116.375 40.3287 108.281 38.2648V38.2583Z" fill="#2A5D82"/>
<path opacity="0.5" d="M117.198 84.2991C117.198 84.2991 132.247 108.296 124.781 122.827C119.637 132.843 112.158 138.388 97.2705 147.407C137.52 149.969 168.304 105.009 130.131 77.1887C127.543 76.5417 117.191 84.3056 117.191 84.3056L117.198 84.2991Z" fill="#2A5D82"/>
<path opacity="0.5" d="M77.7369 60.6963C77.7369 60.6963 77.381 62.6179 76.844 64.7335C76.2618 67.0174 74.5796 68.5637 72.988 69.0619C70.9047 69.7153 69.4942 70.2717 66.2852 70.7052C68.8925 72.3033 71.6228 72.9568 73.5379 72.7821C77.6075 72.4133 79.2767 69.9547 79.6002 67.5803C80.2472 62.9284 77.7369 60.6963 77.7369 60.6963Z" fill="#987D26"/>
<path d="M91.2446 65.4707C93.242 65.4707 94.8613 63.8514 94.8613 61.854C94.8613 59.8565 93.242 58.2373 91.2446 58.2373C89.2472 58.2373 87.6279 59.8565 87.6279 61.854C87.6279 63.8514 89.2472 65.4707 91.2446 65.4707Z" fill="#040000"/>
<path d="M127.653 174.759C119.074 177.561 109.725 179.004 100.272 178.978C90.8133 178.952 81.4837 177.464 72.9369 174.617C70.006 173.685 67.4634 172.243 65.5418 170.425C63.6202 168.606 62.3974 166.478 61.9704 164.233L50.0529 101.429C49.9493 100.873 50.014 100.304 50.2405 99.7602C50.4734 99.2167 50.8681 98.7186 51.3921 98.298C51.9227 97.871 52.5696 97.5346 53.3007 97.3016C54.0318 97.0687 54.8212 96.9458 55.6234 96.9458C55.6234 96.9458 79.2257 103.856 101.514 103.856C123.803 103.856 145.27 96.9458 145.27 96.9458C146.073 96.9458 146.862 97.0687 147.593 97.3016C148.324 97.5346 148.971 97.8775 149.502 98.298C150.032 98.725 150.421 99.2232 150.653 99.7602C150.886 100.304 150.951 100.867 150.841 101.429L138.936 164.272C138.49 166.556 137.215 168.716 135.236 170.554C133.256 172.391 130.642 173.841 127.64 174.759H127.653Z" fill="#C0DCEB"/>
<path d="M150.849 101.431L150.06 105.611C144.01 107.383 123.177 112.999 101.678 112.999C80.1781 112.999 57.1841 107.28 50.8306 105.559L50.0478 101.431C49.9443 100.868 50.009 100.299 50.2419 99.7618C50.4748 99.2183 50.863 98.7201 51.3935 98.2931C51.9241 97.8726 52.571 97.5297 53.3021 97.2968C54.0332 97.0638 54.8226 96.9409 55.6248 96.9409C55.6248 96.9409 79.2271 103.857 101.516 103.857C123.805 103.857 145.278 96.9409 145.278 96.9409C146.081 96.9409 146.87 97.0638 147.601 97.2968C148.332 97.5297 148.979 97.8726 149.51 98.2931C150.034 98.7201 150.428 99.2183 150.661 99.7618C150.894 100.299 150.959 100.868 150.849 101.431Z" fill="#8CA4B8"/>
<path d="M139.244 45.2144C141.34 37.6834 130.807 28.192 115.726 23.9931C100.645 19.7876 86.7213 22.4726 84.6251 29.9971L82.4835 37.6834C80.3873 45.2144 90.9203 54.7057 106.002 58.9047C121.083 63.1036 135.013 60.4122 137.103 52.8941L139.244 45.2079V45.2144Z" fill="#C0DCEB"/>
<path d="M108.146 51.2309C123.228 55.4299 137.157 52.7384 139.254 45.2139C141.35 37.6894 130.823 28.1851 115.736 23.9861C100.648 19.7807 86.7245 22.4722 84.6282 29.9967C82.532 37.5212 93.0585 47.0255 108.146 51.2244V51.2309Z" fill="#DAEDF7"/>
<path d="M114.66 27.8293C128.435 31.666 138.372 39.9151 138.411 47.0449C138.774 46.4756 139.058 45.8545 139.252 45.2075C141.349 37.6765 130.816 28.1851 115.734 23.9862C100.646 19.7872 86.7231 22.4722 84.6269 29.9967C84.4587 30.6502 84.381 31.3295 84.394 32.0024C88.1142 25.9142 100.879 23.9926 114.66 27.8293Z" fill="#E8F4FA"/>
<path d="M122.715 41.4349C121.518 41.3314 120.353 41.0143 119.266 40.4967C118.956 40.3415 118.71 40.0827 118.574 39.7656C118.438 39.4486 118.412 39.0928 118.509 38.7563L119.111 36.5889C119.214 36.2072 119.169 35.7996 118.975 35.4502C118.781 35.1073 118.457 34.8485 118.076 34.745L108.714 32.1376C108.332 32.0341 107.924 32.0794 107.575 32.2735C107.232 32.4676 106.973 32.7911 106.87 33.1728L106.242 35.4373C106.158 35.7543 105.977 36.0325 105.718 36.2266C105.459 36.4272 105.149 36.5372 104.819 36.5372C103.518 36.5113 102.244 36.1878 101.092 35.5926C100.808 35.4243 100.594 35.1655 100.471 34.8615C100.355 34.5574 100.335 34.2209 100.432 33.9039L101.487 30.1125C101.914 28.5792 102.936 27.2787 104.321 26.4959C105.705 25.713 107.349 25.5124 108.882 25.9395L121.136 29.3491C122.669 29.7761 123.963 30.7984 124.746 32.1829C125.529 33.5675 125.723 35.2108 125.296 36.7442L124.3 40.3285C124.203 40.665 123.996 40.9626 123.705 41.1631C123.413 41.3637 123.064 41.4608 122.715 41.4284V41.4349Z" fill="#C0DCEB"/>
<path d="M121.123 29.3569L108.869 25.9473C107.336 25.5203 105.692 25.7208 104.308 26.5037C102.923 27.2865 101.901 28.587 101.474 30.1204L100.717 32.8442C101.144 31.3108 102.166 30.0104 103.551 29.2275C104.935 28.4446 106.579 28.2441 108.112 28.6711L120.366 32.0807C121.899 32.5078 123.2 33.53 123.983 34.921C124.765 36.3121 124.96 37.9489 124.533 39.4823L125.29 36.7585C125.717 35.2251 125.522 33.5818 124.74 32.1972C123.957 30.8062 122.656 29.7904 121.123 29.3569Z" fill="#E8F4FA"/>
<path d="M84.8735 160.403C83.4243 160.403 82.0332 160.001 80.9916 159.296C79.9499 158.591 79.3288 157.627 79.2706 156.611L77.569 129.049C77.5366 128.532 77.6466 128.008 77.899 127.522C78.1513 127.031 78.5395 126.584 79.0377 126.203C79.5358 125.821 80.1375 125.51 80.8104 125.29C81.4833 125.07 82.2079 124.947 82.9455 124.922C83.6831 124.896 84.4206 124.98 85.1194 125.155C85.8117 125.329 86.4522 125.607 86.9956 125.957C87.5391 126.306 87.9855 126.733 88.2961 127.205C88.6067 127.678 88.7878 128.189 88.8202 128.706L90.5153 156.275C90.5476 156.792 90.4376 157.316 90.1853 157.808C89.933 158.3 89.5448 158.746 89.0466 159.134C88.5484 159.516 87.9403 159.827 87.2739 160.047C86.601 160.267 85.8764 160.39 85.1388 160.416H84.8865L84.8735 160.403Z" fill="#ADC4D9"/>
<path d="M77.5617 129.049L79.2568 156.617C79.3215 157.633 79.9362 158.597 80.9778 159.302C82.0195 160.007 83.4105 160.402 84.8598 160.409H85.1121C86.0438 160.383 86.9431 160.189 87.7454 159.859L87.1695 159.917C86.322 159.593 85.6038 159.121 85.0862 158.545C84.5686 157.969 84.2775 157.31 84.2322 156.63L82.55 129.055C82.5047 128.318 82.7571 127.587 83.2747 126.946C83.7923 126.306 84.5557 125.775 85.4809 125.426L85.9597 125.445C85.0862 125.089 84.0963 124.908 83.087 124.915C82.0777 124.921 81.0943 125.122 80.2338 125.491C79.3733 125.859 78.6681 126.39 78.1958 127.017C77.7235 127.645 77.5035 128.35 77.5553 129.062H77.5682L77.5617 129.049Z" fill="#8CA4B8"/>
<path d="M113.798 160.384C112.355 160.293 111.015 159.808 110.064 159.038C109.113 158.268 108.622 157.272 108.686 156.25L110.537 128.681C110.64 127.646 111.313 126.689 112.413 125.996C113.513 125.311 114.949 124.948 116.418 125C117.887 125.052 119.271 125.498 120.267 126.255C121.27 127.012 121.807 128.015 121.775 129.05L119.925 156.618C119.892 157.136 119.711 157.647 119.4 158.119C119.083 158.592 118.644 159.012 118.094 159.368C117.544 159.718 116.91 159.989 116.211 160.17C115.512 160.345 114.775 160.423 114.037 160.403L113.798 160.384Z" fill="#ADC4D9"/>
<path d="M110.538 128.682L108.687 156.251C108.616 157.273 109.114 158.269 110.065 159.039C111.017 159.809 112.356 160.288 113.799 160.385L114.044 160.398C114.97 160.43 115.901 160.301 116.736 160.016L116.154 160.036C115.351 159.66 114.698 159.143 114.264 158.535C113.831 157.926 113.624 157.253 113.663 156.574L115.513 129.006C115.565 128.268 115.908 127.557 116.509 126.948C117.111 126.34 117.933 125.868 118.897 125.577L119.376 125.629C118.554 125.221 117.583 124.975 116.581 124.923C115.578 124.872 114.569 125.007 113.663 125.318C112.757 125.635 111.993 126.114 111.444 126.709C110.894 127.304 110.583 127.99 110.544 128.702H110.538V128.682Z" fill="#8CA4B8"/>
</g>
<defs>
<clipPath id="clip0_628_2561">
<rect width="100.898" height="156.979" fill="white" transform="translate(50 22)"/>
</clipPath>
</defs>
</svg>
