<svg width="200" height="200" viewBox="0 0 200 200" fill="none" xmlns="http://www.w3.org/2000/svg">
<mask id="path-1-outside-1_1062_29503" maskUnits="userSpaceOnUse" x="13" y="13.0012" width="174" height="174" fill="black">
<rect fill="white" x="13" y="13.0012" width="174" height="174"/>
<path d="M134.775 26.4222C146.268 14.9334 158.233 20.3376 168.944 31.0531C179.659 41.7642 185.068 53.7332 173.579 65.222C172.152 66.6484 170.506 67.7603 168.706 68.5697C169.087 69.4011 169.453 70.2402 169.803 71.0863C173.6 80.253 175.554 90.0784 175.554 100C175.554 109.922 173.6 119.747 169.803 128.913C166.006 138.08 160.44 146.41 153.424 153.426C146.408 160.442 138.079 166.007 128.913 169.804C119.746 173.601 109.921 175.555 99.9984 175.555C90.0764 175.555 80.2511 173.601 71.0844 169.804C70.2394 169.454 69.402 169.088 68.5717 168.708C67.7627 170.509 66.6507 172.156 65.224 173.582C53.7351 185.071 41.7662 179.662 31.0551 168.951C20.3396 158.231 14.9305 146.267 26.4193 134.778C27.8461 133.352 29.4911 132.239 31.2914 131.43C30.9111 130.599 30.5452 129.76 30.1947 128.913C26.3978 119.747 24.4428 109.922 24.4428 100C24.4428 90.0783 26.3977 80.2531 30.1947 71.0863C33.9917 61.9195 39.5567 53.5896 46.5727 46.5736C53.5885 39.5578 61.9178 33.9927 71.0844 30.1957C80.2511 26.3987 90.0764 24.4447 99.9984 24.4447C109.921 24.4447 119.746 26.3987 128.913 30.1957C129.758 30.546 130.597 30.9112 131.428 31.2914C132.237 29.492 133.349 27.8478 134.775 26.4222ZM34.0482 136.864C26.0944 145.327 30.1442 154.102 38.0238 161.973C45.9036 169.848 54.6826 173.902 63.1381 165.952C57.0786 162.565 51.501 158.354 46.5727 153.426C41.6451 148.499 37.4346 142.922 34.0482 136.864ZM161.975 38.0267C154.096 30.1522 145.317 26.1026 136.863 34.0492C142.921 37.4355 148.497 41.6462 153.424 46.5736C158.352 51.5012 162.563 57.0777 165.95 63.1361C173.904 54.6769 169.855 45.902 161.975 38.0267Z"/>
</mask>
<path d="M134.775 26.4222C146.268 14.9334 158.233 20.3376 168.944 31.0531C179.659 41.7642 185.068 53.7332 173.579 65.222C172.152 66.6484 170.506 67.7603 168.706 68.5697C169.087 69.4011 169.453 70.2402 169.803 71.0863C173.6 80.253 175.554 90.0784 175.554 100C175.554 109.922 173.6 119.747 169.803 128.913C166.006 138.08 160.44 146.41 153.424 153.426C146.408 160.442 138.079 166.007 128.913 169.804C119.746 173.601 109.921 175.555 99.9984 175.555C90.0764 175.555 80.2511 173.601 71.0844 169.804C70.2394 169.454 69.402 169.088 68.5717 168.708C67.7627 170.509 66.6507 172.156 65.224 173.582C53.7351 185.071 41.7662 179.662 31.0551 168.951C20.3396 158.231 14.9305 146.267 26.4193 134.778C27.8461 133.352 29.4911 132.239 31.2914 131.43C30.9111 130.599 30.5452 129.76 30.1947 128.913C26.3978 119.747 24.4428 109.922 24.4428 100C24.4428 90.0783 26.3977 80.2531 30.1947 71.0863C33.9917 61.9195 39.5567 53.5896 46.5727 46.5736C53.5885 39.5578 61.9178 33.9927 71.0844 30.1957C80.2511 26.3987 90.0764 24.4447 99.9984 24.4447C109.921 24.4447 119.746 26.3987 128.913 30.1957C129.758 30.546 130.597 30.9112 131.428 31.2914C132.237 29.492 133.349 27.8478 134.775 26.4222ZM34.0482 136.864C26.0944 145.327 30.1442 154.102 38.0238 161.973C45.9036 169.848 54.6826 173.902 63.1381 165.952C57.0786 162.565 51.501 158.354 46.5727 153.426C41.6451 148.499 37.4346 142.922 34.0482 136.864ZM161.975 38.0267C154.096 30.1522 145.317 26.1026 136.863 34.0492C142.921 37.4355 148.497 41.6462 153.424 46.5736C158.352 51.5012 162.563 57.0777 165.95 63.1361C173.904 54.6769 169.855 45.902 161.975 38.0267Z" fill="#F4900C"/>
<path d="M134.775 26.4222L130.533 22.1788L130.532 22.1796L134.775 26.4222ZM168.944 31.0531L164.7 35.2949L164.702 35.2966L168.944 31.0531ZM173.579 65.222L177.821 69.4658L177.822 69.4647L173.579 65.222ZM168.706 68.5697L166.246 63.0975C164.788 63.7528 163.653 64.9625 163.09 66.4583C162.528 67.9541 162.585 69.6124 163.25 71.0656L168.706 68.5697ZM169.803 71.0863L175.346 68.7902L175.346 68.7902L169.803 71.0863ZM175.554 100L181.554 100L181.554 100L175.554 100ZM169.803 128.913L175.346 131.21L175.346 131.21L169.803 128.913ZM153.424 153.426L157.667 157.669L157.667 157.669L153.424 153.426ZM128.913 169.804L131.209 175.347L131.209 175.347L128.913 169.804ZM99.9984 175.555L99.9984 181.555H99.9984L99.9984 175.555ZM71.0844 169.804L68.7882 175.347L68.7883 175.347L71.0844 169.804ZM68.5717 168.708L71.0674 163.252C69.6138 162.587 67.9551 162.53 66.459 163.093C64.963 163.655 63.7534 164.792 63.0985 166.25L68.5717 168.708ZM65.224 173.582L69.4667 177.825L69.4667 177.825L65.224 173.582ZM31.0551 168.951L26.8116 173.192L26.8124 173.193L31.0551 168.951ZM26.4193 134.778L22.1779 130.534L22.1767 130.535L26.4193 134.778ZM31.2914 131.43L33.7505 136.903C35.2084 136.248 36.3447 135.038 36.9073 133.542C37.47 132.046 37.4125 130.388 36.7476 128.934L31.2914 131.43ZM30.1947 128.913L24.6514 131.21L24.6515 131.21L30.1947 128.913ZM24.4428 100L18.4428 100L18.4428 100L24.4428 100ZM30.1947 71.0863L24.6515 68.7902L24.6514 68.7902L30.1947 71.0863ZM46.5727 46.5736L42.33 42.331L42.33 42.331L46.5727 46.5736ZM71.0844 30.1957L68.7883 24.6524L68.7882 24.6524L71.0844 30.1957ZM99.9984 24.4447L99.9984 18.4447L99.9984 18.4447L99.9984 24.4447ZM128.913 30.1957L131.209 24.6524L131.209 24.6524L128.913 30.1957ZM131.428 31.2914L128.932 36.7476C130.386 37.4124 132.044 37.4699 133.54 36.9075C135.036 36.345 136.245 35.209 136.901 33.7513L131.428 31.2914ZM34.0482 136.864L39.2856 133.936C38.3523 132.267 36.6789 131.142 34.7804 130.908C32.8819 130.675 30.9859 131.361 29.676 132.755L34.0482 136.864ZM38.0238 161.973L42.2653 157.729L42.2641 157.728L38.0238 161.973ZM63.1381 165.952L67.2481 170.323C68.6415 169.013 69.3268 167.117 69.0931 165.218C68.8595 163.32 67.7348 161.647 66.0653 160.714L63.1381 165.952ZM46.5727 153.426L42.33 157.669L42.33 157.669L46.5727 153.426ZM161.975 38.0267L166.216 33.7829L166.216 33.7829L161.975 38.0267ZM136.863 34.0492L132.753 29.6773C131.36 30.9872 130.674 32.8832 130.908 34.7816C131.141 36.68 132.266 38.3533 133.935 39.2865L136.863 34.0492ZM153.424 46.5736L157.667 42.331L157.667 42.3309L153.424 46.5736ZM165.95 63.1361L160.712 66.0636C161.645 67.733 163.318 68.8575 165.217 69.0912C167.115 69.3248 169.011 68.6395 170.321 67.2462L165.95 63.1361ZM134.775 26.4222L139.017 30.6657C143.504 26.1802 147.347 25.5061 150.877 26.2739C154.965 27.163 159.632 30.2247 164.7 35.2949L168.944 31.0531L173.187 26.8113C167.544 21.166 160.874 16.1678 153.428 14.5481C145.424 12.8072 137.539 15.1754 130.533 22.1788L134.775 26.4222ZM168.944 31.0531L164.702 35.2966C169.772 40.3646 172.835 45.0338 173.725 49.1223C174.494 52.6531 173.821 56.4956 169.337 60.9794L173.579 65.222L177.822 69.4647C184.827 62.4596 187.193 54.5732 185.451 46.5696C183.83 39.1235 178.831 32.4526 173.186 26.8096L168.944 31.0531ZM173.579 65.222L169.338 60.9783C168.447 61.8685 167.412 62.5732 166.246 63.0975L168.706 68.5697L171.167 74.0419C173.601 72.9474 175.858 71.4283 177.821 69.4658L173.579 65.222ZM168.706 68.5697L163.25 71.0656C163.601 71.8321 163.938 72.6046 164.26 73.3824L169.803 71.0863L175.346 68.7902C174.968 67.8758 174.573 66.9701 174.163 66.0738L168.706 68.5697ZM169.803 71.0863L164.26 73.3824C167.755 81.8211 169.554 90.8662 169.554 100L175.554 100L181.554 100C181.554 89.2906 179.445 78.685 175.346 68.7902L169.803 71.0863ZM175.554 100L169.554 100C169.554 109.134 167.755 118.179 164.26 126.617L169.803 128.913L175.346 131.21C179.445 121.315 181.554 110.71 181.554 100L175.554 100ZM169.803 128.913L164.26 126.617C160.764 135.056 155.64 142.725 149.182 149.184L153.424 153.426L157.667 157.669C165.24 150.096 171.248 141.104 175.346 131.21L169.803 128.913ZM153.424 153.426L149.182 149.183C142.723 155.642 135.055 160.765 126.616 164.261L128.913 169.804L131.209 175.347C141.103 171.249 150.094 165.242 157.667 157.669L153.424 153.426ZM128.913 169.804L126.616 164.261C118.178 167.756 109.133 169.555 99.9984 169.555L99.9984 175.555L99.9984 181.555C110.708 181.555 121.314 179.446 131.209 175.347L128.913 169.804ZM99.9984 175.555L99.9985 169.555C90.8642 169.555 81.8191 167.756 73.3805 164.261L71.0844 169.804L68.7883 175.347C78.6831 179.446 89.2887 181.555 99.9984 181.555L99.9984 175.555ZM71.0844 169.804L73.3805 164.261C72.6066 163.94 71.8358 163.604 71.0674 163.252L68.5717 168.708L66.076 174.165C66.9683 174.573 67.8723 174.968 68.7882 175.347L71.0844 169.804ZM68.5717 168.708L63.0985 166.25C62.5748 167.416 61.8708 168.45 60.9814 169.34L65.224 173.582L69.4667 177.825C71.4307 175.861 72.9505 173.603 74.0449 171.167L68.5717 168.708ZM65.224 173.582L60.9814 169.34C56.4976 173.824 52.655 174.497 49.1239 173.729C45.0351 172.839 40.3659 169.776 35.2977 164.708L31.0551 168.951L26.8124 173.193C32.4553 178.836 39.1262 183.834 46.5719 185.454C54.5753 187.196 62.4615 184.83 69.4667 177.825L65.224 173.582ZM31.0551 168.951L35.2986 164.709C30.2271 159.635 27.1634 154.965 26.2732 150.876C25.5046 147.346 26.1779 143.504 30.662 139.02L26.4193 134.778L22.1767 130.535C15.1719 137.54 12.8053 145.425 14.5479 153.429C16.1689 160.874 21.1675 167.546 26.8116 173.192L31.0551 168.951ZM26.4193 134.778L30.6608 139.022C31.5529 138.13 32.5876 137.425 33.7505 136.903L31.2914 131.43L28.8323 125.957C26.3946 127.052 24.1393 128.574 22.1779 130.534L26.4193 134.778ZM31.2914 131.43L36.7476 128.934C36.397 128.168 36.0602 127.395 35.738 126.617L30.1947 128.913L24.6515 131.21C25.0302 132.124 25.4251 133.03 25.8352 133.926L31.2914 131.43ZM30.1947 128.913L35.738 126.617C32.2425 118.178 30.4428 109.134 30.4428 100L24.4428 100L18.4428 100C18.4428 110.71 20.5531 121.315 24.6514 131.21L30.1947 128.913ZM24.4428 100L30.4428 100C30.4428 90.8665 32.2425 81.8215 35.738 73.3824L30.1947 71.0863L24.6514 68.7902C20.553 78.6847 18.4428 89.2901 18.4428 100L24.4428 100ZM30.1947 71.0863L35.738 73.3824C39.2336 64.9432 44.3567 57.2749 50.8153 50.8163L46.5727 46.5736L42.33 42.331C34.7567 49.9043 28.7499 58.8957 24.6515 68.7902L30.1947 71.0863ZM46.5727 46.5736L50.8153 50.8163C57.2739 44.3577 64.9417 39.2345 73.3805 35.7389L71.0844 30.1957L68.7882 24.6524C58.8938 28.7509 49.9031 34.7579 42.33 42.331L46.5727 46.5736ZM71.0844 30.1957L73.3805 35.739C81.8191 32.2436 90.8642 30.4447 99.9985 30.4447L99.9984 24.4447L99.9984 18.4447C89.2887 18.4447 78.6831 20.5538 68.7883 24.6524L71.0844 30.1957ZM99.9984 24.4447L99.9984 30.4447C109.133 30.4447 118.178 32.2435 126.616 35.739L128.913 30.1957L131.209 24.6524C121.314 20.5538 110.708 18.4447 99.9984 18.4447L99.9984 24.4447ZM128.913 30.1957L126.616 35.739C127.396 36.0618 128.168 36.398 128.932 36.7476L131.428 31.2914L133.924 25.8351C133.026 25.4244 132.121 25.0302 131.209 24.6524L128.913 30.1957ZM131.428 31.2914L136.901 33.7513C137.423 32.5888 138.127 31.5552 139.017 30.6649L134.775 26.4222L130.532 22.1796C128.571 24.1405 127.051 26.3952 125.956 28.8314L131.428 31.2914ZM34.0482 136.864L29.676 132.755C24.4445 138.321 22.7518 144.656 24.26 151.023C25.6446 156.869 29.555 161.994 33.7835 166.218L38.0238 161.973L42.2641 157.728C38.613 154.081 36.5587 150.883 35.937 148.258C35.4388 146.154 35.6982 143.869 38.4205 140.973L34.0482 136.864ZM38.0238 161.973L33.7824 166.217C38.0099 170.442 43.137 174.35 48.9816 175.735C55.3484 177.244 61.683 175.555 67.2481 170.323L63.1381 165.952L59.028 161.58C56.1378 164.298 53.8551 164.558 51.7486 164.059C49.1199 163.436 45.9176 161.38 42.2653 157.729L38.0238 161.973ZM63.1381 165.952L66.0653 160.714C60.4858 157.596 55.3512 153.719 50.8153 149.184L46.5727 153.426L42.33 157.669C47.6508 162.99 53.6715 167.534 60.2108 171.189L63.1381 165.952ZM46.5727 153.426L50.8153 149.184C46.2798 144.648 42.4037 139.514 39.2856 133.936L34.0482 136.864L28.8109 139.791C32.4656 146.33 37.0103 152.349 42.33 157.669L46.5727 153.426ZM161.975 38.0267L166.216 33.7829C161.989 29.5577 156.862 25.6508 151.018 24.2666C144.652 22.7588 138.318 24.447 132.753 29.6773L136.863 34.0492L140.972 38.4211C143.862 35.7048 146.145 35.4445 148.252 35.9435C150.88 36.5661 154.082 38.6213 157.734 42.2705L161.975 38.0267ZM136.863 34.0492L133.935 39.2865C139.513 42.4043 144.646 46.2807 149.182 50.8163L153.424 46.5736L157.667 42.3309C152.348 37.0117 146.329 32.4667 139.79 28.8118L136.863 34.0492ZM153.424 46.5736L149.182 50.8163C153.717 55.3521 157.594 60.4856 160.712 66.0636L165.95 63.1361L171.187 60.2086C167.532 53.6697 162.986 47.6504 157.667 42.331L153.424 46.5736ZM165.95 63.1361L170.321 67.2462C175.553 61.6812 177.246 55.3477 175.738 48.9799C174.354 43.1344 170.444 38.0086 166.216 33.7829L161.975 38.0267L157.734 42.2705C161.385 45.9201 163.44 49.1194 164.061 51.745C164.559 53.8482 164.3 56.1317 161.578 59.026L165.95 63.1361Z" fill="white" mask="url(#path-1-outside-1_1062_29503)"/>
<path d="M31.055 168.951C41.7661 179.662 53.735 185.071 65.2239 173.582C73.3794 165.427 71.3039 150.129 60.5883 139.409C49.8728 128.698 34.5794 126.622 26.4194 134.778C14.9305 146.267 20.3394 158.231 31.055 168.951ZM60.1794 139.822C68.215 147.858 69.7705 159.333 63.655 165.453C55.0417 174.067 46.0639 170.009 38.0239 161.973C29.9839 153.942 25.9305 144.969 34.5483 136.347C40.6639 130.231 52.1394 131.787 60.1794 139.822ZM168.944 31.0533C158.233 20.3377 146.268 14.9333 134.775 26.4222C126.619 34.5777 128.695 49.8755 139.411 60.5911C150.126 71.3066 165.415 73.3822 173.579 65.2222C185.068 53.7333 179.659 41.7644 168.944 31.0533ZM139.819 60.1777C131.784 52.1422 130.228 40.6711 136.344 34.5511C144.957 25.9377 153.935 29.9911 161.975 38.0266C170.015 46.0622 174.068 55.0355 165.451 63.6533C159.335 69.7688 147.859 68.2133 139.819 60.1777Z" fill="#292F33"/>
<path d="M24.4434 99.9999C24.4434 109.922 26.3977 119.747 30.1947 128.914C33.9917 138.081 39.5571 146.41 46.5731 153.426C53.5891 160.442 61.9182 166.007 71.0851 169.804C80.2519 173.601 90.0768 175.555 99.9989 175.555C109.921 175.555 119.746 173.601 128.913 169.804C138.08 166.007 146.409 160.442 153.425 153.426C160.441 146.41 166.006 138.081 169.803 128.914C173.6 119.747 175.554 109.922 175.554 99.9999C175.554 90.0778 173.6 80.2529 169.803 71.086C166.006 61.9192 160.441 53.59 153.425 46.574C146.409 39.5581 138.08 33.9927 128.913 30.1957C119.746 26.3986 109.921 24.4443 99.9989 24.4443C90.0768 24.4443 80.2519 26.3986 71.0851 30.1957C61.9182 33.9927 53.5891 39.5581 46.5731 46.574C39.5571 53.59 33.9917 61.9192 30.1947 71.086C26.3977 80.2529 24.4434 90.0778 24.4434 99.9999Z" fill="#292F33"/>
<path d="M160.44 99.9999C160.44 133.382 133.377 160.444 99.9952 160.444C66.613 160.444 39.5508 133.382 39.5508 99.9999C39.5508 66.6176 66.613 39.5554 99.9952 39.5554C133.377 39.5554 160.44 66.6176 160.44 99.9999Z" fill="#D7E8FC"/>
<path d="M111.163 95.0997L116.329 83.4128L120.184 78.1699L122.768 69.9453C122.768 69.9453 127.692 66.942 129.039 73.0417C129.788 76.4557 125.469 79.62 125.469 79.62C125.469 79.62 122.798 88.0142 119.708 89.9231C117.738 91.1396 116.356 92.5814 116.356 92.5814L116.755 92.9699C116.755 92.9699 126.197 87.8605 127.337 86.9941C128.468 86.1324 131.972 78.3319 132.443 77.5487C132.905 76.7702 133.6 75.8679 134.502 76.3562C135.238 76.7451 135.021 77.7404 134.648 78.6735C134.276 79.6066 129.887 88.0936 129.525 88.7268C128.688 90.1899 118.243 95.8581 118.243 95.8581L118.918 96.2929C118.918 96.2929 129.174 91.6688 130.965 91.5885C131.557 91.5606 140.32 95.0182 140.851 95.2217C141.382 95.4251 141.886 96.1654 141.625 96.9147C141.353 97.7026 140.314 97.4671 139.637 97.3485C138.96 97.2299 131.742 94.9206 131.301 94.8718C130.86 94.823 120.121 99.0638 120.121 99.0638L120.769 100.014C120.769 100.014 130.624 97.2312 131.797 97.3994C133.09 97.5856 138.747 100.353 139.574 100.863C140.402 101.373 141.89 102.815 141.304 103.643C140.859 104.282 138.751 103.589 138.316 103.232C137.881 102.876 132.121 99.9292 131.68 99.9562C131.239 99.9833 122.186 102.856 122.186 102.856L122.824 103.563C122.824 103.563 131.062 102.999 132.017 103.446C132.963 103.898 138.05 108.441 138.376 108.872C138.701 109.303 139.683 110.397 139.217 110.982C138.49 111.903 137.025 110.762 136.439 110.406C135.857 110.059 131.482 106.201 130.835 105.891C130.196 105.576 123.596 106.866 123.596 106.866L107.009 115.743C107.009 115.743 102.915 123.2 102.999 123.608C103.083 124.016 105.117 129.838 105.32 130.525C105.456 130.967 105.714 131.938 104.87 132.394C103.793 132.974 103.474 131.974 102.97 130.972C102.462 129.963 100.049 123.675 100.294 122.653C100.371 122.337 103.67 114.351 104.761 113.719C105.852 113.087 105.411 113.114 105.411 113.114L104.678 112.506C104.678 112.506 101.36 116.949 100.481 118.078C99.5974 119.198 96.6696 122.926 96.5406 123.229C96.3873 123.546 96.8271 130.03 96.7762 130.505C96.7222 131.069 96.3316 131.915 95.5926 132.027C94.9586 132.134 94.4902 131.438 94.3372 130.385C94.1794 129.324 92.9907 122.448 93.1389 122.047C93.2918 121.654 99.4786 114.169 99.9404 113.521C100.402 112.874 103.019 109.978 103.019 109.978L102.247 109.697C102.247 109.697 96.011 114.112 95.1333 114.849C94.2555 115.585 91.1369 118.196 90.975 118.441C90.8131 118.687 90.8882 124.035 90.872 124.664C90.8511 125.285 90.1821 127.433 89.3732 127.369C88.5725 127.3 88.1118 126.11 88.0098 125.408C87.9078 124.707 87.7185 117.773 88.0244 116.987C88.3302 116.202 91.1866 113.852 92.9669 112.44C94.7473 111.029 99.9714 107.156 99.9714 107.156L99.5605 106.709C99.5605 106.709 93.9148 110.098 92.3824 111.018C91.135 111.773 88.1778 113.649 87.3921 113.756C86.0842 113.937 80.98 113.719 79.8108 113.483C79.2899 113.372 75.7109 113.216 75.8945 111.469C76.0323 110.074 78.7386 110.431 79.511 110.451C80.2788 110.463 85.6524 110.677 86.8147 110.319C87.9803 109.948 97.3916 104.465 97.3916 104.465L96.3582 103.075C96.3582 103.075 93.8535 106.145 89.6328 106.796C85.2117 107.476 84.3821 106.456 84.3821 106.456C84.3821 106.456 81.5689 108.205 79.1452 106.271C77.7094 105.125 75.3639 101.994 75.3639 101.994L82.1698 98.2812L85.0546 101.273L103.517 97.6252L111.163 95.0997Z" fill="#4B9AE8"/>
<path d="M117.312 128.991C117.321 130.301 114.957 133.463 113.89 138.059C112.96 142.065 114.391 146.845 118.742 147.488C123.093 148.132 125.063 145.36 125.42 144.23C125.789 143.103 126.579 140.602 126.579 140.602L132.276 139.346L136.518 135.053C136.518 135.053 139.535 136.566 141.971 135.667C144.406 134.767 148.796 130.899 145.406 125.928C142.017 120.956 132.102 122.079 131.308 121.495C129.877 120.432 126.084 110.184 125.095 107.594C124.106 105.004 120.19 95.109 118.977 92.9752C117.587 90.5192 116.343 88.7834 116.343 88.7834C116.343 88.7834 117.189 84.2391 118.359 82.4859C119.528 80.7327 122.832 78.2544 122.832 78.2544C122.832 78.2544 121.348 75.092 122.761 72.7085C124.174 70.3251 127.251 69.5001 127.251 69.5001C127.251 69.5001 130.722 67.7616 131.297 62.2226C131.871 56.6835 125.175 45.8337 120.464 42.3341C115.753 38.8344 111.806 35.153 103.414 32.5787C98.7621 31.153 97.5107 31.6385 96.8229 33.7541C96.1351 35.8697 102.794 39.3173 106.298 42.5708C109.515 45.5552 110.866 46.7619 112.746 49.6514C114.458 52.2898 115.418 53.7776 114.639 54.3479C113.861 54.9182 113.066 54.0525 110.939 51.1108C108.812 48.169 104.65 45.0361 103.078 44.2938C101.551 43.5699 100.242 44.5563 100.157 46.0617C100.072 47.5672 103.84 53.3414 106.407 56.5174C108.975 59.6934 111.693 63.6187 114.228 65.9876C117.738 69.2702 120.951 70.2025 120.951 70.2025C120.951 70.2025 119.405 71.1739 119.216 72.8923C119.026 74.6107 119.442 76.5869 119.442 76.5869C119.442 76.5869 118.389 78.7291 117.881 79.7085C117.372 80.6879 114.396 85.4976 114.396 85.4976C114.396 85.4976 109.132 81.0795 106.167 79.8832C103.208 78.6951 94.474 75.025 93.9518 75.3056C93.3156 75.6523 92.8505 85.8666 92.5599 88.2739C92.2693 90.6812 92.3951 94.1081 92.7037 95.4293C93.0123 96.7505 93.4156 97.8973 93.4156 97.8973C93.4156 97.8973 90.2608 98.4743 88.9071 99.0083C87.5533 99.5422 85.2083 100.335 85.2083 100.335C85.2083 100.335 84.5428 98.8292 82.9314 97.9798C81.9122 97.4397 80.2747 96.9206 80.2747 96.9206C80.2747 96.9206 81.0354 95.0998 80.1933 92.9137C79.3512 90.7276 73.2361 83.0955 71.311 80.841C69.394 78.5817 65.0161 71.3784 63.5187 70.463C62.0213 69.5476 60.2984 71.4149 60.6299 74.2771C60.8409 76.0678 62.2679 79.752 63.7534 82.0546C65.239 84.3572 67.2608 85.9905 66.001 86.8179C64.7411 87.6454 61.431 82.53 59.7367 78.8158C58.0423 75.1016 56.365 66.0301 55.5277 64.6781C54.6905 63.3261 52.4614 62.9866 51.3333 66.857C50.2053 70.7274 48.7288 76.8865 52.3305 85.6588C54.8862 91.874 57.5609 96.4552 60.4599 99.2653C63.3588 102.075 67.1819 105.318 73.1008 104.803C79.0232 104.275 79.5912 98.9685 82.5487 100.603C83.897 101.355 84.7296 103.319 84.7296 103.319C84.7296 103.319 86.2593 101.944 90.3892 101.117C93.9026 100.409 94.8529 101.337 94.8529 101.337C94.8529 101.337 95.4078 102.276 97.4234 105.25C99.8837 108.879 107.733 117.235 108.363 117.892C108.994 118.548 114.585 125.125 115.495 126.152C116.603 127.315 117.315 128.283 117.312 128.991Z" fill="#4B9AE8"/>
<path d="M68.7436 69.1646C70.4598 68.5621 69.5972 67.0726 68.8769 65.5659C67.4127 62.5119 67.0451 58.4424 70.1051 56.5943C73.1651 54.7462 77.2873 59.0869 80.9642 65.305C84.6411 71.5231 92.9593 84.292 92.9593 84.292L94.7459 81.9531C94.7459 81.9531 84.3264 64.8797 82.4963 62.1136C80.6662 59.3475 75.0059 49.8544 68.526 53.4546C62.0462 57.0549 65.4718 65.0162 65.8681 65.7757C66.6077 67.1843 67.407 69.6343 68.7436 69.1646Z" fill="#4B9AE8"/>
<path d="M98.3428 78.1114C98.3428 78.1114 87.9423 59.4944 86.1991 56.2214C84.456 52.9485 80.483 45.9563 86.5781 42.6115C90.68 40.3666 92.6616 41.8928 95.0537 44.8225C96.3661 46.4319 97.1306 48.1087 97.5004 48.9162C97.8064 49.5759 98.0631 50.6011 97.1014 51.1363C96.0535 51.7105 95.3641 50.9141 94.8032 49.9455C94.2423 48.9769 91.293 43.4897 88.3949 45.0918C85.4968 46.694 86.3112 50.3526 88.7429 54.6832C91.1746 59.0138 101.758 78.2095 101.758 78.2095L98.3428 78.1114Z" fill="#4B9AE8"/>
<path d="M118.307 132.275C118.307 132.275 117.066 135.819 120.996 139.434C123.676 141.904 127.44 143.43 132.619 140.736C137.797 138.042 139.492 133.31 138.379 128.76C137.561 125.396 135.078 123.324 134.302 123.165C133.525 123.006 134.87 128.726 134.903 130.772C134.936 132.819 134.858 136.157 131.324 137.975C128.085 139.644 124.733 137.629 123.618 136.699C121.09 134.565 118.99 131.879 118.307 132.275Z" fill="#337CC4"/>
<path d="M119.962 129.859C119.962 129.859 121.441 127.927 124.623 126.008C127.797 124.094 130.649 123.595 130.649 123.595C130.649 123.595 134.332 132.863 130.262 135.22C126.192 137.577 119.962 129.859 119.962 129.859Z" fill="#337CC4"/>
<path d="M116.077 126.752C116.077 126.752 116.603 127.566 116.855 127.964C117.102 128.353 117.323 128.997 117.323 128.997C117.323 128.997 119.987 126.335 123.862 124.167C127.737 121.999 131.347 121.496 131.347 121.496C131.347 121.496 130.751 120.841 130.509 120.405C130.263 119.961 129.927 119.362 129.927 119.362C129.927 119.362 126.395 119.57 122.481 121.913C118.553 124.252 116.077 126.752 116.077 126.752Z" fill="#337CC4"/>
<path d="M110.544 120.346C110.544 120.346 112.93 117.334 117.878 114.392C122.827 111.451 126.397 110.916 126.397 110.916L129.141 117.587C129.141 117.587 125.74 117.796 121.214 120.417C116.689 123.037 114.978 125.506 114.978 125.506L110.544 120.346Z" fill="#337CC4"/>
<path d="M109.35 118.939C109.35 118.939 113.259 114.991 116.694 113.002C120.129 111.013 125.816 109.328 125.816 109.328C125.816 109.328 124.9 106.902 124.012 104.58C123.128 102.266 121.763 99.2519 121.763 99.2519C121.763 99.2519 120.399 107.237 114.879 110.13C109.358 113.022 102.123 110.963 102.123 110.963C102.123 110.963 104.384 113.685 106.073 115.457C107.464 116.902 109.35 118.939 109.35 118.939Z" fill="#73B9FF"/>
<path d="M103.383 86.0469C104.985 86.0469 106.282 84.7489 106.282 83.1478C106.282 81.5467 104.985 80.2488 103.383 80.2488C101.782 80.2488 100.484 81.5467 100.484 83.1478C100.484 84.7489 101.782 86.0469 103.383 86.0469Z" fill="white"/>
<path d="M103.336 84.9067C104.296 84.9067 105.074 84.1286 105.074 83.1687C105.074 82.2088 104.296 81.4307 103.336 81.4307C102.376 81.4307 101.598 82.2088 101.598 83.1687C101.598 84.1286 102.376 84.9067 103.336 84.9067Z" fill="black"/>
<path d="M96.6588 90.0437C98.2599 90.0437 99.5578 88.7457 99.5578 87.1446C99.5578 85.5436 98.2599 84.2456 96.6588 84.2456C95.0577 84.2456 93.7598 85.5436 93.7598 87.1446C93.7598 88.7457 95.0577 90.0437 96.6588 90.0437Z" fill="white"/>
<path d="M96.6111 88.9036C97.571 88.9036 98.3491 88.1254 98.3491 87.1655C98.3491 86.2056 97.571 85.4275 96.6111 85.4275C95.6512 85.4275 94.873 86.2056 94.873 87.1655C94.873 88.1254 95.6512 88.9036 96.6111 88.9036Z" fill="black"/>
<path d="M69 137.889C69 140.246 69.9365 142.507 71.6035 144.174C73.2705 145.841 75.5314 146.778 77.8889 146.778C80.2464 146.778 82.5073 145.841 84.1743 144.174C85.8413 142.507 86.7778 140.246 86.7778 137.889C86.7778 135.531 85.8413 133.27 84.1743 131.603C82.5073 129.937 80.2464 129 77.8889 129C75.5314 129 73.2705 129.937 71.6035 131.603C69.9365 133.27 69 135.531 69 137.889Z" fill="#BAD1EC"/>
<path d="M92 146.444C92 147.623 92.4683 148.754 93.3017 149.587C94.1352 150.421 95.2657 150.889 96.4444 150.889C97.6232 150.889 98.7536 150.421 99.5871 149.587C100.421 148.754 100.889 147.623 100.889 146.444C100.889 145.266 100.421 144.135 99.5871 143.302C98.7536 142.468 97.6232 142 96.4444 142C95.2657 142 94.1352 142.468 93.3017 143.302C92.4683 144.135 92 145.266 92 146.444Z" fill="#BAD1EC"/>
<path d="M64.4434 122.222C64.4434 123.401 64.9116 124.531 65.7451 125.365C66.5786 126.198 67.7091 126.667 68.8878 126.667C70.0665 126.667 71.197 126.198 72.0305 125.365C72.864 124.531 73.3322 123.401 73.3322 122.222C73.3322 121.044 72.864 119.913 72.0305 119.08C71.197 118.246 70.0665 117.778 68.8878 117.778C67.7091 117.778 66.5786 118.246 65.7451 119.08C64.9116 119.913 64.4434 121.044 64.4434 122.222Z" fill="#BAD1EC"/>
</svg>
