<svg width="200" height="200" viewBox="0 0 200 200" fill="none" xmlns="http://www.w3.org/2000/svg">
<path d="M60.8377 56.8125C56.3638 54.9012 51.5098 54.0456 46.652 54.3123C41.7942 54.5789 37.0631 55.9605 32.8252 58.35" stroke="#45413C" stroke-width="2.8125" stroke-linecap="round" stroke-linejoin="round"/>
<path d="M112.287 43.9125C108.05 27.3375 91.5499 19.2 74.7874 21.4125C62.4499 23.1375 49.8874 30.375 44.7874 40.1625C44.595 40.5569 44.4852 40.9864 44.4645 41.4247C44.4439 41.863 44.5129 42.301 44.6673 42.7117C44.8218 43.1224 45.0585 43.4973 45.3628 43.8134C45.6672 44.1295 46.0328 44.3801 46.4374 44.55L64.0249 52.35C64.3259 52.4688 64.5843 52.6753 64.7663 52.9428C64.9483 53.2103 65.0457 53.5264 65.0457 53.85C65.0457 54.1736 64.9483 54.4897 64.7663 54.7572C64.5843 55.0247 64.3259 55.2313 64.0249 55.35L50.0374 60.75C49.5818 60.9183 49.1701 61.1874 48.8331 61.5371C48.496 61.8868 48.2423 62.3082 48.0908 62.7697C47.9394 63.2312 47.8942 63.7209 47.9585 64.2024C48.0229 64.6838 48.1951 65.1445 48.4624 65.55C55.4374 76.0875 70.5124 82.05 81.8749 82.2375C70.8124 100.613 54.7624 120.825 59.3749 137.963C66.3499 165.338 89.3749 130.463 89.3749 130.463C82.9999 106.913 119.825 73.275 112.287 43.9125Z" fill="#4B9AE8"/>
<path d="M46.4371 44.8127L48.0121 45.5252C54.9501 37.8498 64.3832 32.8808 74.6371 31.5002C91.5496 29.1377 108.05 37.2752 112.137 54.0002C112.434 55.1476 112.66 56.3123 112.812 57.4877C113.453 52.9985 113.224 48.4278 112.137 44.0252C107.9 27.4502 91.3996 19.3127 74.6371 21.5252C62.2996 23.2502 49.7371 30.4877 44.6371 40.2752C44.4229 40.6859 44.2996 41.1379 44.2758 41.6004C44.2519 42.063 44.3279 42.5253 44.4987 42.9558C44.6695 43.3864 44.9311 43.7751 45.2656 44.0955C45.6 44.4159 45.9996 44.6605 46.4371 44.8127Z" fill="#7AB9F8"/>
<path d="M84.9497 168.525C84.9497 168.525 106.475 184.65 140.937 177.562C175.4 170.475 171.912 145.012 171.912 145.012C171.912 145.012 153.162 169.425 118.137 158.025C97.5872 151.5 84.9497 168.525 84.9497 168.525Z" fill="#4B9AE8"/>
<path d="M84.9497 168.525C84.9497 168.525 106.475 184.65 140.937 177.562C175.4 170.475 171.912 145.012 171.912 145.012C171.912 145.012 153.162 169.425 118.137 158.025C97.5872 151.5 84.9497 168.525 84.9497 168.525Z" fill="#4B9AE8"/>
<path d="M139.249 177.75C143.972 172.562 147.188 166.182 148.549 159.3C138.46 161.858 127.84 161.376 118.024 157.912C97.4744 151.237 84.8369 168.412 84.8369 168.412C84.8369 168.412 105.837 184.087 139.249 177.75Z" fill="#276288"/>
<path d="M87.9879 118.95C99.9401 113.282 113.051 110.483 126.275 110.775C129.756 110.775 133.095 112.158 135.556 114.619C138.018 117.081 139.4 120.419 139.4 123.9C139.4 127.381 138.018 130.719 135.556 133.181C133.095 135.642 129.756 137.025 126.275 137.025C112.806 136.826 99.4603 139.618 87.2004 145.2C76.0052 150.548 63.7572 153.328 51.3504 153.338C49.5803 153.433 47.8094 153.166 46.1457 152.554C44.4821 151.942 42.9606 150.998 41.674 149.778C40.3874 148.559 39.3627 147.09 38.6625 145.462C37.9622 143.833 37.6011 142.079 37.6011 140.306C37.6011 138.534 37.9622 136.78 38.6625 135.151C39.3627 133.523 40.3874 132.054 41.674 130.835C42.9606 129.615 44.4821 128.671 46.1457 128.059C47.8094 127.447 49.5803 127.18 51.3504 127.275C64.0344 127.298 76.5593 124.452 87.9879 118.95Z" fill="#4B9AE8"/>
<path d="M51.3505 136.125H51.9505C64.4192 136.13 76.7316 133.35 87.988 127.987C99.3137 122.59 111.704 119.796 124.251 119.812H126.463C129.121 119.817 131.713 120.635 133.892 122.157C136.071 123.679 137.731 125.831 138.651 128.325C139.207 126.889 139.499 125.365 139.513 123.825C139.513 120.364 138.138 117.045 135.691 114.597C133.243 112.15 129.924 110.775 126.463 110.775H124.251C111.768 110.787 99.4441 113.579 88.1755 118.95C76.9191 124.313 64.6067 127.093 52.138 127.087H51.538C49.4297 127.062 47.3472 127.554 45.473 128.52C43.5988 129.486 41.9899 130.896 40.7872 132.628C39.5846 134.36 38.8247 136.36 38.5743 138.454C38.3238 140.548 38.5903 142.671 39.3505 144.637C40.2627 142.176 41.8958 140.047 44.0365 138.529C46.1773 137.01 48.7262 136.172 51.3505 136.125Z" fill="#7AB9F8"/>
<path d="M44.1123 177.75C35.4873 177.75 28.5498 171.938 28.5498 164.738C28.5498 157.538 35.4873 151.5 44.1123 151.5C59.0743 151.617 73.919 148.854 87.8373 143.363C102.396 137.685 117.927 134.92 133.55 135.225C142.137 135.225 149.112 141.075 149.112 148.238C149.112 155.4 142.137 161.288 133.55 161.288C117.577 161.037 101.7 163.798 86.7498 169.425C73.1936 174.878 58.7241 177.703 44.1123 177.75Z" fill="#4B9AE8"/>
<path d="M44.1123 161.287H44.8248C59.5483 161.323 74.1445 158.562 87.8373 153.15C101.545 147.743 116.152 144.982 130.887 145.012H133.55C136.468 144.904 139.359 145.608 141.901 147.044C144.443 148.481 146.537 150.594 147.95 153.15C148.691 151.619 149.076 149.939 149.075 148.237C149.075 141.075 142.137 135.225 133.55 135.225H130.887C116.152 135.194 101.545 137.955 87.8373 143.362C74.1445 148.774 59.5483 151.536 44.8248 151.5H44.1123C35.4873 151.5 28.5498 157.35 28.5498 164.55C28.5511 166.243 28.9492 167.913 29.7123 169.425C31.1219 166.867 33.2152 164.751 35.7581 163.314C38.3011 161.877 41.1936 161.175 44.1123 161.287Z" fill="#7AB9F8"/>
<path d="M103.926 58.5001C103.926 60.5626 101.263 62.2501 98.0007 62.2501C94.7382 62.2501 92.0757 60.5626 92.0757 58.5001C92.0757 56.4376 94.7382 54.7501 98.0007 54.7501C101.263 54.7501 103.926 56.4376 103.926 58.5001Z" fill="#D7E8FC"/>
<path d="M82.2881 51.8086C87.2703 51.8086 91.3091 47.7697 91.3091 42.7876C91.3091 37.8054 87.2703 33.7666 82.2881 33.7666C77.3059 33.7666 73.2671 37.8054 73.2671 42.7876C73.2671 47.7697 77.3059 51.8086 82.2881 51.8086Z" fill="white"/>
<path d="M82.148 48.2609C85.1349 48.2609 87.5563 45.8395 87.5563 42.8526C87.5563 39.8657 85.1349 37.4443 82.148 37.4443C79.1611 37.4443 76.7397 39.8657 76.7397 42.8526C76.7397 45.8395 79.1611 48.2609 82.148 48.2609Z" fill="black"/>
<path d="M32.8252 50.175L39.6877 55.35" stroke="#45413C" stroke-width="2.8125" stroke-linecap="round" stroke-linejoin="round"/>
</svg>
