<svg width="1024" height="1024" viewBox="0 0 1024 1024" fill="none" xmlns="http://www.w3.org/2000/svg">
<rect width="1024" height="1024" fill="black"/>
<mask id="path-1-outside-1_1397_2870" maskUnits="userSpaceOnUse" x="45.3262" y="131.949" width="929" height="798" fill="black">
<rect fill="white" x="45.3262" y="131.949" width="929" height="798"/>
<path d="M459.619 192.807C557.669 175.229 651.337 240.241 670.402 346.563C672.409 357.765 673.495 368.911 673.697 379.895C688.175 380.21 793.042 334.294 809.573 337.684C815.462 338.882 821.485 343.215 827.342 349.354C842.076 341.448 856.691 334.185 870.605 328.106C931.817 301.367 932.078 365.231 867.581 418.528C873.194 434.461 870.827 446.415 848.006 465.07C824.822 484.01 793.703 490.324 795.628 498.378C796.457 501.86 806.287 533.426 806.938 536.966C823.822 630.743 766.221 715.207 671.42 762.355L685.673 813.495L716.325 797.714C721.242 796.344 726.233 797.1 730.384 799.441C734.502 801.792 737.763 805.663 739.133 810.58C741.865 820.382 736.069 830.656 726.267 833.388L679.345 846.464C671.921 848.533 664.154 844.151 662.085 836.728L644.678 774.265C621.604 783.41 596.775 790.487 570.631 795.162C538.514 800.905 506.994 802.558 477.051 800.419V857.953C477.051 865.66 470.745 871.966 463.038 871.966H414.328C404.152 871.966 395.812 863.625 395.812 853.449C395.812 848.345 397.914 843.741 401.25 840.371C404.62 837.001 409.224 834.933 414.328 834.933L448.092 841.905V797.095C350.672 781.537 274.986 723.677 258.999 634.881C258.538 632.437 255.148 616.575 253.511 608.949L240.435 612.873L218.88 619.245C204.993 622.52 190.87 614.731 186.34 601.278C184.742 596.558 182.638 590.791 180.465 584.342C104.143 571.599 74.7615 520.859 137.199 512.315C148.584 510.758 160.691 509.582 173.158 508.719C175.177 503.034 178.162 497.726 182.36 493C193.937 479.96 325.875 460.237 329.932 456.106C329.932 456.106 329.95 456.144 329.987 456.217C325.973 444.954 317.383 421.362 315.387 410.186C296.322 303.863 361.57 210.384 459.619 192.807Z"/>
</mask>
<path d="M459.619 192.807C557.669 175.229 651.337 240.241 670.402 346.563C672.409 357.765 673.495 368.911 673.697 379.895C688.175 380.21 793.042 334.294 809.573 337.684C815.462 338.882 821.485 343.215 827.342 349.354C842.076 341.448 856.691 334.185 870.605 328.106C931.817 301.367 932.078 365.231 867.581 418.528C873.194 434.461 870.827 446.415 848.006 465.07C824.822 484.01 793.703 490.324 795.628 498.378C796.457 501.86 806.287 533.426 806.938 536.966C823.822 630.743 766.221 715.207 671.42 762.355L685.673 813.495L716.325 797.714C721.242 796.344 726.233 797.1 730.384 799.441C734.502 801.792 737.763 805.663 739.133 810.58C741.865 820.382 736.069 830.656 726.267 833.388L679.345 846.464C671.921 848.533 664.154 844.151 662.085 836.728L644.678 774.265C621.604 783.41 596.775 790.487 570.631 795.162C538.514 800.905 506.994 802.558 477.051 800.419V857.953C477.051 865.66 470.745 871.966 463.038 871.966H414.328C404.152 871.966 395.812 863.625 395.812 853.449C395.812 848.345 397.914 843.741 401.25 840.371C404.62 837.001 409.224 834.933 414.328 834.933L448.092 841.905V797.095C350.672 781.537 274.986 723.677 258.999 634.881C258.538 632.437 255.148 616.575 253.511 608.949L240.435 612.873L218.88 619.245C204.993 622.52 190.87 614.731 186.34 601.278C184.742 596.558 182.638 590.791 180.465 584.342C104.143 571.599 74.7615 520.859 137.199 512.315C148.584 510.758 160.691 509.582 173.158 508.719C175.177 503.034 178.162 497.726 182.36 493C193.937 479.96 325.875 460.237 329.932 456.106C329.932 456.106 329.95 456.144 329.987 456.217C325.973 444.954 317.383 421.362 315.387 410.186C296.322 303.863 361.57 210.384 459.619 192.807Z" fill="#F25E5E"/>
<path d="M459.619 192.807L449.49 136.305V136.305L459.619 192.807ZM670.402 346.563L726.905 336.443L726.903 336.432L670.402 346.563ZM673.697 379.895L616.305 380.949C616.871 411.749 641.647 436.611 672.445 437.283L673.697 379.895ZM809.573 337.684L798.042 393.916C798.07 393.921 798.099 393.927 798.127 393.933L809.573 337.684ZM827.342 349.354L785.806 388.975C803.628 407.659 831.732 412.144 854.484 399.934L827.342 349.354ZM870.605 328.106L847.627 275.504L847.627 275.504L870.605 328.106ZM867.581 418.528L831.016 374.279C812.459 389.614 805.441 414.898 813.441 437.603L867.581 418.528ZM848.006 465.07L884.322 509.524C884.327 509.52 884.331 509.517 884.335 509.514L848.006 465.07ZM795.628 498.378L851.468 485.079C851.465 485.065 851.462 485.051 851.458 485.037L795.628 498.378ZM806.938 536.966L863.432 526.795C863.419 526.723 863.406 526.651 863.393 526.579L806.938 536.966ZM671.42 762.355L645.858 710.959C621.21 723.218 608.734 751.249 616.125 777.766L671.42 762.355ZM685.673 813.495L630.378 828.906C635.012 845.533 646.881 859.191 662.699 866.099C678.516 873.007 696.603 872.431 711.948 864.531L685.673 813.495ZM716.325 797.714L700.916 742.419C697.158 743.466 693.518 744.893 690.05 746.678L716.325 797.714ZM730.384 799.441L758.836 749.587C758.753 749.539 758.67 749.492 758.587 749.446L730.384 799.441ZM739.133 810.58L794.428 795.17V795.17L739.133 810.58ZM726.267 833.388L741.676 888.683L741.676 888.683L726.267 833.388ZM679.345 846.464L663.935 791.169L663.935 791.169L679.345 846.464ZM662.085 836.728L606.79 852.137L606.79 852.137L662.085 836.728ZM644.678 774.265L699.973 758.855C695.603 743.175 684.783 730.088 670.203 722.85C655.624 715.612 638.658 714.904 623.526 720.902L644.678 774.265ZM570.631 795.162L580.734 851.668H580.734L570.631 795.162ZM477.051 800.419L481.141 743.163C465.247 742.027 449.596 747.55 437.934 758.408C426.272 769.267 419.649 784.484 419.649 800.419H477.051ZM414.328 871.966L414.328 929.368H414.328V871.966ZM395.812 853.449H338.409L338.409 853.449L395.812 853.449ZM401.25 840.371L360.661 799.782C360.593 799.849 360.526 799.917 360.459 799.984L401.25 840.371ZM414.328 834.933L425.937 778.717C422.118 777.928 418.228 777.53 414.328 777.53L414.328 834.933ZM448.092 841.905L436.482 898.121C453.386 901.612 470.963 897.311 484.345 886.41C497.727 875.509 505.494 859.165 505.494 841.905H448.092ZM448.092 797.095H505.494C505.494 768.887 484.999 744.859 457.144 740.411L448.092 797.095ZM258.999 634.881L315.493 624.71C315.465 624.555 315.437 624.401 315.408 624.246L258.999 634.881ZM253.511 608.949L309.634 596.898C306.27 581.234 296.513 567.688 282.721 559.535C268.93 551.382 252.358 549.364 237.013 553.969L253.511 608.949ZM240.435 612.873L256.708 667.92C256.783 667.898 256.858 667.876 256.933 667.853L240.435 612.873ZM218.88 619.245L232.055 675.115C233.095 674.87 234.128 674.595 235.153 674.292L218.88 619.245ZM186.34 601.278L240.74 582.959C240.731 582.93 240.721 582.901 240.711 582.872L186.34 601.278ZM180.465 584.342L234.862 566.013C228.096 545.933 210.818 531.213 189.918 527.723L180.465 584.342ZM137.199 512.315L129.417 455.443H129.417L137.199 512.315ZM173.158 508.719L177.124 565.984C199.919 564.405 219.607 549.457 227.252 527.925L173.158 508.719ZM182.36 493L225.276 531.121C225.279 531.118 225.283 531.114 225.286 531.111L182.36 493ZM329.932 456.106L381.658 431.218C373.551 414.37 357.748 402.526 339.301 399.474C320.855 396.422 302.079 402.545 288.978 415.885L329.932 456.106ZM329.987 456.217L278.988 482.563C292.852 509.399 325.141 520.9 352.847 508.871C380.554 496.841 394.199 465.398 384.058 436.946L329.987 456.217ZM315.387 410.186L371.894 400.09C371.892 400.078 371.89 400.066 371.888 400.054L315.387 410.186ZM459.619 192.807L469.748 249.308C534.998 237.611 600.141 279.957 613.901 356.695L670.402 346.563L726.903 336.432C702.533 200.526 580.339 112.848 449.49 136.305L459.619 192.807ZM670.402 346.563L613.899 356.684C615.375 364.922 616.159 373.037 616.305 380.949L673.697 379.895L731.09 378.84C730.832 364.786 729.442 350.608 726.905 336.443L670.402 346.563ZM673.697 379.895L672.445 437.283C684.243 437.54 695.624 434.125 698.716 433.245C704.573 431.58 711.128 429.407 717.528 427.186C730.266 422.766 746.177 416.819 760.598 411.54C775.694 406.014 789.536 401.076 800.339 397.741C805.808 396.052 809.352 395.135 811.261 394.739C816.218 393.709 808.917 396.146 798.042 393.916L809.573 337.684L821.104 281.452C806.097 278.374 791.902 281.505 787.904 282.335C780.857 283.8 773.384 285.911 766.47 288.046C752.509 292.357 736.13 298.242 721.133 303.732C705.461 309.469 691.408 314.73 679.894 318.725C674.169 320.712 670.026 322.048 667.313 322.82C661.834 324.378 666.771 322.328 674.95 322.506L673.697 379.895ZM809.573 337.684L798.127 393.933C791.725 392.63 787.756 390.186 786.431 389.295C785.033 388.355 784.855 387.978 785.806 388.975L827.342 349.354L868.878 309.734C860.422 300.87 844.299 286.171 821.019 281.434L809.573 337.684ZM827.342 349.354L854.484 399.934C868.257 392.544 881.446 386.011 893.584 380.709L870.605 328.106L847.627 275.504C831.937 282.358 815.895 290.352 800.2 298.775L827.342 349.354ZM870.605 328.106L893.584 380.709C897.64 378.937 898.889 378.955 897.729 379.098C896.627 379.234 891.132 379.736 883.647 376.732C875.337 373.397 867.945 367.03 863.352 358.749C859.18 351.223 858.794 344.866 858.841 342.276C858.919 337.935 860.038 339.908 855.066 347.937C850.657 355.059 842.93 364.434 831.016 374.279L867.581 418.528L904.146 462.777C924.48 445.974 940.908 427.379 952.676 408.373C963.882 390.273 973.204 367.959 973.627 344.332C974.086 318.661 962.584 284.706 926.405 270.187C897.287 258.501 867.799 266.693 847.627 275.504L870.605 328.106ZM867.581 418.528L813.441 437.603C813.743 438.46 812.993 436.67 812.793 433.207C812.564 429.231 813.15 424.779 814.711 420.618C816.131 416.832 817.704 415.038 817.471 415.317C817.153 415.697 815.598 417.422 811.677 420.627L848.006 465.07L884.335 509.514C898.362 498.047 914.106 482.523 922.202 460.938C931.436 436.321 927.007 414.456 921.721 399.454L867.581 418.528ZM848.006 465.07L811.689 420.617C806.418 424.923 799.373 428.452 787.793 433.947C783.879 435.804 775.058 439.87 767.741 444.784C764.125 447.211 756.484 452.654 749.929 461.681C742.351 472.115 734.616 490.036 739.798 511.719L795.628 498.378L851.458 485.037C853.576 493.901 853.376 502.933 851.21 511.288C849.145 519.256 845.666 525.224 842.822 529.142C837.69 536.208 832.345 539.688 831.739 540.095C830.507 540.922 830.078 541.067 831.441 540.369C832.679 539.733 834.33 538.938 837.01 537.666C846.304 533.256 866.41 524.158 884.322 509.524L848.006 465.07ZM795.628 498.378L739.788 511.677C740.277 513.731 740.942 516.007 741.2 516.898C741.615 518.326 742.122 520.034 742.659 521.831C743.729 525.406 745.102 529.94 746.389 534.212C747.711 538.599 748.964 542.778 749.915 546.033C750.395 547.677 750.74 548.884 750.956 549.669C751.43 551.39 750.935 549.803 750.484 547.353L806.938 536.966L863.393 526.579C862.779 523.244 861.835 519.896 861.643 519.199C861.194 517.566 860.657 515.7 860.111 513.832C859.01 510.064 857.631 505.47 856.311 501.088C854.956 496.591 853.674 492.359 852.647 488.926C852.136 487.218 851.734 485.861 851.45 484.883C851.01 483.367 851.186 483.895 851.468 485.079L795.628 498.378ZM806.938 536.966L750.445 547.137C761.348 607.695 726.141 671.031 645.858 710.959L671.42 762.355L696.982 813.752C806.301 759.383 886.297 653.791 863.432 526.795L806.938 536.966ZM671.42 762.355L616.125 777.766L630.378 828.906L685.673 813.495L740.968 798.084L726.715 746.944L671.42 762.355ZM685.673 813.495L711.948 864.531L742.601 848.749L716.325 797.714L690.05 746.678L659.397 762.46L685.673 813.495ZM716.325 797.714L731.735 853.009C721.296 855.918 710.652 854.216 702.18 849.437L730.384 799.441L758.587 749.446C741.815 739.984 721.189 736.769 700.916 742.419L716.325 797.714ZM730.384 799.441L701.932 849.296C693.849 844.683 686.808 836.647 683.838 825.99L739.133 810.58L794.428 795.17C788.717 774.678 775.156 758.9 758.836 749.587L730.384 799.441ZM739.133 810.58L683.838 825.99C678.059 805.253 690.121 783.871 710.857 778.093L726.267 833.388L741.676 888.683C782.016 877.441 805.67 835.512 794.428 795.17L739.133 810.58ZM726.267 833.388L710.857 778.093L663.935 791.169L679.345 846.464L694.754 901.759L741.676 888.683L726.267 833.388ZM679.345 846.464L663.935 791.169C687.049 784.727 710.938 798.203 717.38 821.318L662.085 836.728L606.79 852.137C617.37 890.1 656.792 912.338 694.754 901.759L679.345 846.464ZM662.085 836.728L717.38 821.318L699.973 758.855L644.678 774.265L589.383 789.674L606.79 852.137L662.085 836.728ZM644.678 774.265L623.526 720.902C604.123 728.593 583.002 734.638 560.527 738.656L570.631 795.162L580.734 851.668C610.548 846.337 639.086 838.228 665.829 827.628L644.678 774.265ZM570.631 795.162L560.528 738.656C532.911 743.594 506.159 744.95 481.141 743.163L477.051 800.419L472.961 857.675C507.828 860.166 544.117 858.215 580.734 851.668L570.631 795.162ZM477.051 800.419H419.649V857.953H477.051H534.453V800.419H477.051ZM477.051 857.953H419.649C419.649 833.958 439.043 814.564 463.038 814.564V871.966V929.368C502.447 929.368 534.453 897.362 534.453 857.953H477.051ZM463.038 871.966V814.564H414.328V871.966V929.368H463.038V871.966ZM414.328 871.966L414.328 814.564C435.855 814.564 453.214 831.922 453.214 853.449L395.812 853.449L338.409 853.449C338.409 895.327 372.45 929.368 414.328 929.368L414.328 871.966ZM395.812 853.449H453.214C453.214 864.52 448.584 874.15 442.041 880.758L401.25 840.371L360.459 799.984C347.244 813.332 338.409 832.169 338.409 853.449H395.812ZM401.25 840.371L441.839 880.961C434.965 887.835 425.169 892.335 414.328 892.335L414.328 834.933L414.328 777.53C393.278 777.531 374.274 786.168 360.661 799.782L401.25 840.371ZM414.328 834.933L402.719 891.149L436.482 898.121L448.092 841.905L459.701 785.689L425.937 778.717L414.328 834.933ZM448.092 841.905H505.494V797.095H448.092H390.69V841.905H448.092ZM448.092 797.095L457.144 740.411C375.78 727.417 325.873 682.363 315.493 624.71L258.999 634.881L202.505 645.052C224.099 764.991 325.564 835.657 439.039 853.779L448.092 797.095ZM258.999 634.881L315.408 624.246C314.771 620.87 311.136 603.896 309.634 596.898L253.511 608.949L197.388 621C198.201 624.787 199.448 630.615 200.547 635.786C201.097 638.376 201.602 640.763 201.993 642.632C202.444 644.786 202.606 645.595 202.591 645.515L258.999 634.881ZM253.511 608.949L237.013 553.969L223.936 557.893L240.435 612.873L256.933 667.853L270.009 663.929L253.511 608.949ZM240.435 612.873L224.161 557.826L202.607 564.198L218.88 619.245L235.153 674.292L256.708 667.92L240.435 612.873ZM218.88 619.245L205.705 563.375C220.371 559.917 235.719 568.049 240.74 582.959L186.34 601.278L131.939 619.598C146.021 661.413 189.616 685.123 232.055 675.115L218.88 619.245ZM186.34 601.278L240.711 582.872C239.778 580.116 238.713 577.1 237.773 574.426C236.784 571.611 235.821 568.858 234.862 566.013L180.465 584.342L126.068 602.671C127.282 606.275 128.458 609.63 129.463 612.491C130.518 615.493 131.304 617.72 131.969 619.685L186.34 601.278ZM180.465 584.342L189.918 527.723C176.153 525.425 166.082 521.652 159.769 518.28C152.486 514.391 153.453 512.883 156.198 517.521C157.813 520.25 160.693 526.375 160.728 535.27C160.767 544.941 157.385 554.014 152.039 560.825C143.102 572.211 134.673 570.598 144.982 569.188L137.199 512.315L129.417 455.443C108.506 458.305 80.3365 466.238 61.7325 489.939C38.5053 519.531 44.251 553.773 57.3965 575.987C69.2221 595.971 87.9432 610.072 105.684 619.547C124.394 629.539 146.616 636.887 171.012 640.96L180.465 584.342ZM137.199 512.315L144.981 569.188C154.84 567.839 165.643 566.779 177.124 565.984L173.158 508.719L169.193 451.454C155.74 452.385 142.328 453.677 129.417 455.443L137.199 512.315ZM173.158 508.719L227.252 527.925C227.156 528.194 226.958 528.676 226.604 529.286C226.245 529.906 225.796 530.537 225.276 531.121L182.36 493L139.445 454.879C129.91 465.612 123.332 477.494 119.064 489.513L173.158 508.719ZM182.36 493L225.286 531.111C219.319 537.831 213.499 540.806 213.057 541.043C211.689 541.779 211.207 541.895 212.253 541.498C214.305 540.718 218.266 539.447 224.514 537.781C236.795 534.508 253.069 530.975 270.362 527.472C289.018 523.693 302.834 521.121 318.087 518.059C324.705 516.731 331.122 515.396 336.24 514.174C338.683 513.59 341.836 512.796 344.939 511.821C346.416 511.357 348.972 510.516 351.883 509.262C352.49 509.001 362.16 505.213 370.885 496.328L329.932 456.106L288.978 415.885C294.093 410.677 298.997 407.725 300.958 406.594C303.383 405.194 305.388 404.287 306.485 403.815C308.659 402.879 310.242 402.385 310.527 402.295C311.246 402.07 311.137 402.136 309.562 402.512C306.642 403.209 301.996 404.195 295.493 405.5C284.506 407.706 263.853 411.654 247.57 414.953C229.925 418.527 210.79 422.627 194.95 426.849C187.138 428.931 178.86 431.372 171.465 434.183C167.787 435.581 163.28 437.462 158.704 439.921C155.056 441.882 146.849 446.539 139.435 454.889L182.36 493ZM329.932 456.106C278.205 480.994 278.206 480.996 278.207 480.997C278.207 480.998 278.208 480.999 278.208 481C278.209 481.002 278.21 481.004 278.211 481.006C278.213 481.009 278.214 481.013 278.216 481.017C278.22 481.024 278.223 481.032 278.227 481.039C278.234 481.054 278.241 481.069 278.249 481.084C278.263 481.114 278.278 481.144 278.293 481.175C278.322 481.236 278.352 481.297 278.383 481.36C278.444 481.484 278.507 481.612 278.572 481.743C278.702 482.004 278.841 482.278 278.988 482.563L329.987 456.217L380.986 429.871C381.096 430.083 381.207 430.302 381.319 430.526C381.375 430.638 381.431 430.752 381.487 430.867C381.516 430.925 381.544 430.983 381.572 431.042C381.587 431.071 381.601 431.1 381.615 431.13C381.622 431.145 381.629 431.159 381.636 431.174C381.64 431.181 381.644 431.189 381.647 431.196C381.649 431.2 381.651 431.204 381.652 431.207C381.653 431.209 381.654 431.211 381.655 431.213C381.656 431.214 381.656 431.215 381.656 431.216C381.657 431.217 381.658 431.218 329.932 456.106ZM329.987 456.217L384.058 436.946C381.932 430.982 379.049 423.009 376.391 415.029C375.074 411.075 373.939 407.495 373.074 404.514C372.118 401.217 371.863 399.914 371.894 400.09L315.387 410.186L258.879 420.281C260.71 430.531 264.686 442.95 267.47 451.308C270.609 460.734 274.028 470.189 275.917 475.488L329.987 456.217ZM315.387 410.186L371.888 400.054C358.129 323.326 404.492 261.007 469.748 249.308L459.619 192.807L449.49 136.305C318.647 159.761 234.514 284.401 258.886 420.317L315.387 410.186Z" fill="white" mask="url(#path-1-outside-1_1397_2870)"/>
<path d="M459.619 192.807L449.49 136.305V136.305L459.619 192.807ZM670.402 346.563L726.905 336.443L726.903 336.432L670.402 346.563ZM673.697 379.895L616.305 380.949C616.871 411.749 641.647 436.611 672.445 437.283L673.697 379.895ZM809.573 337.684L798.042 393.916C798.07 393.921 798.099 393.927 798.127 393.933L809.573 337.684ZM827.342 349.354L785.806 388.975C803.628 407.659 831.732 412.144 854.484 399.934L827.342 349.354ZM870.605 328.106L847.627 275.504L847.627 275.504L870.605 328.106ZM867.581 418.528L831.016 374.279C812.459 389.614 805.441 414.898 813.441 437.603L867.581 418.528ZM848.006 465.07L884.322 509.524C884.327 509.52 884.331 509.517 884.335 509.514L848.006 465.07ZM795.628 498.378L851.468 485.079C851.465 485.065 851.462 485.051 851.458 485.037L795.628 498.378ZM806.938 536.966L863.432 526.795C863.419 526.723 863.406 526.651 863.393 526.579L806.938 536.966ZM671.42 762.355L645.858 710.959C621.21 723.218 608.734 751.249 616.125 777.766L671.42 762.355ZM685.673 813.495L630.378 828.906C635.012 845.533 646.881 859.191 662.699 866.099C678.516 873.007 696.603 872.431 711.948 864.531L685.673 813.495ZM716.325 797.714L700.916 742.419C697.158 743.466 693.518 744.893 690.05 746.678L716.325 797.714ZM730.384 799.441L758.836 749.587C758.753 749.539 758.67 749.492 758.587 749.446L730.384 799.441ZM739.133 810.58L794.428 795.17V795.17L739.133 810.58ZM726.267 833.388L741.676 888.683L741.676 888.683L726.267 833.388ZM679.345 846.464L663.935 791.169L663.935 791.169L679.345 846.464ZM662.085 836.728L606.79 852.137L606.79 852.137L662.085 836.728ZM644.678 774.265L699.973 758.855C695.603 743.175 684.783 730.088 670.203 722.85C655.624 715.612 638.658 714.904 623.526 720.902L644.678 774.265ZM570.631 795.162L580.734 851.668H580.734L570.631 795.162ZM477.051 800.419L481.141 743.163C465.247 742.027 449.596 747.55 437.934 758.408C426.272 769.267 419.649 784.484 419.649 800.419H477.051ZM414.328 871.966L414.328 929.368H414.328V871.966ZM395.812 853.449H338.409L338.409 853.449L395.812 853.449ZM401.25 840.371L360.661 799.782C360.593 799.849 360.526 799.917 360.459 799.984L401.25 840.371ZM414.328 834.933L425.937 778.717C422.118 777.928 418.228 777.53 414.328 777.53L414.328 834.933ZM448.092 841.905L436.482 898.121C453.386 901.612 470.963 897.311 484.345 886.41C497.727 875.509 505.494 859.165 505.494 841.905H448.092ZM448.092 797.095H505.494C505.494 768.887 484.999 744.859 457.144 740.411L448.092 797.095ZM258.999 634.881L315.493 624.71C315.465 624.555 315.437 624.401 315.408 624.246L258.999 634.881ZM253.511 608.949L309.634 596.898C306.27 581.234 296.513 567.688 282.721 559.535C268.93 551.382 252.358 549.364 237.013 553.969L253.511 608.949ZM240.435 612.873L256.708 667.92C256.783 667.898 256.858 667.876 256.933 667.853L240.435 612.873ZM218.88 619.245L232.055 675.115C233.095 674.87 234.128 674.595 235.153 674.292L218.88 619.245ZM186.34 601.278L240.74 582.959C240.731 582.93 240.721 582.901 240.711 582.872L186.34 601.278ZM180.465 584.342L234.862 566.013C228.096 545.933 210.818 531.213 189.918 527.723L180.465 584.342ZM137.199 512.315L129.417 455.443H129.417L137.199 512.315ZM173.158 508.719L177.124 565.984C199.919 564.405 219.607 549.457 227.252 527.925L173.158 508.719ZM182.36 493L225.276 531.121C225.279 531.118 225.283 531.114 225.286 531.111L182.36 493ZM329.932 456.106L381.658 431.218C373.551 414.37 357.748 402.526 339.301 399.474C320.855 396.422 302.079 402.545 288.978 415.885L329.932 456.106ZM329.987 456.217L278.988 482.563C292.852 509.399 325.141 520.9 352.847 508.871C380.554 496.841 394.199 465.398 384.058 436.946L329.987 456.217ZM315.387 410.186L371.894 400.09C371.892 400.078 371.89 400.066 371.888 400.054L315.387 410.186ZM459.619 192.807L469.748 249.308C534.998 237.611 600.141 279.957 613.901 356.695L670.402 346.563L726.903 336.432C702.533 200.526 580.339 112.848 449.49 136.305L459.619 192.807ZM670.402 346.563L613.899 356.684C615.375 364.922 616.159 373.037 616.305 380.949L673.697 379.895L731.09 378.84C730.832 364.786 729.442 350.608 726.905 336.443L670.402 346.563ZM673.697 379.895L672.445 437.283C684.243 437.54 695.624 434.125 698.716 433.245C704.573 431.58 711.128 429.407 717.528 427.186C730.266 422.766 746.177 416.819 760.598 411.54C775.694 406.014 789.536 401.076 800.339 397.741C805.808 396.052 809.352 395.135 811.261 394.739C816.218 393.709 808.917 396.146 798.042 393.916L809.573 337.684L821.104 281.452C806.097 278.374 791.902 281.505 787.904 282.335C780.857 283.8 773.384 285.911 766.47 288.046C752.509 292.357 736.13 298.242 721.133 303.732C705.461 309.469 691.408 314.73 679.894 318.725C674.169 320.712 670.026 322.048 667.313 322.82C661.834 324.378 666.771 322.328 674.95 322.506L673.697 379.895ZM809.573 337.684L798.127 393.933C791.725 392.63 787.756 390.186 786.431 389.295C785.033 388.355 784.855 387.978 785.806 388.975L827.342 349.354L868.878 309.734C860.422 300.87 844.299 286.171 821.019 281.434L809.573 337.684ZM827.342 349.354L854.484 399.934C868.257 392.544 881.446 386.011 893.584 380.709L870.605 328.106L847.627 275.504C831.937 282.358 815.895 290.352 800.2 298.775L827.342 349.354ZM870.605 328.106L893.584 380.709C897.64 378.937 898.889 378.955 897.729 379.098C896.627 379.234 891.132 379.736 883.647 376.732C875.337 373.397 867.945 367.03 863.352 358.749C859.18 351.223 858.794 344.866 858.841 342.276C858.919 337.935 860.038 339.908 855.066 347.937C850.657 355.059 842.93 364.434 831.016 374.279L867.581 418.528L904.146 462.777C924.48 445.974 940.908 427.379 952.676 408.373C963.882 390.273 973.204 367.959 973.627 344.332C974.086 318.661 962.584 284.706 926.405 270.187C897.287 258.501 867.799 266.693 847.627 275.504L870.605 328.106ZM867.581 418.528L813.441 437.603C813.743 438.46 812.993 436.67 812.793 433.207C812.564 429.231 813.15 424.779 814.711 420.618C816.131 416.832 817.704 415.038 817.471 415.317C817.153 415.697 815.598 417.422 811.677 420.627L848.006 465.07L884.335 509.514C898.362 498.047 914.106 482.523 922.202 460.938C931.436 436.321 927.007 414.456 921.721 399.454L867.581 418.528ZM848.006 465.07L811.689 420.617C806.418 424.923 799.373 428.452 787.793 433.947C783.879 435.804 775.058 439.87 767.741 444.784C764.125 447.211 756.484 452.654 749.929 461.681C742.351 472.115 734.616 490.036 739.798 511.719L795.628 498.378L851.458 485.037C853.576 493.901 853.376 502.933 851.21 511.288C849.145 519.256 845.666 525.224 842.822 529.142C837.69 536.208 832.345 539.688 831.739 540.095C830.507 540.922 830.078 541.067 831.441 540.369C832.679 539.733 834.33 538.938 837.01 537.666C846.304 533.256 866.41 524.158 884.322 509.524L848.006 465.07ZM795.628 498.378L739.788 511.677C740.277 513.731 740.942 516.007 741.2 516.898C741.615 518.326 742.122 520.034 742.659 521.831C743.729 525.406 745.102 529.94 746.389 534.212C747.711 538.599 748.964 542.778 749.915 546.033C750.395 547.677 750.74 548.884 750.956 549.669C751.43 551.39 750.935 549.803 750.484 547.353L806.938 536.966L863.393 526.579C862.779 523.244 861.835 519.896 861.643 519.199C861.194 517.566 860.657 515.7 860.111 513.832C859.01 510.064 857.631 505.47 856.311 501.088C854.956 496.591 853.674 492.359 852.647 488.926C852.136 487.218 851.734 485.861 851.45 484.883C851.01 483.367 851.186 483.895 851.468 485.079L795.628 498.378ZM806.938 536.966L750.445 547.137C761.348 607.695 726.141 671.031 645.858 710.959L671.42 762.355L696.982 813.752C806.301 759.383 886.297 653.791 863.432 526.795L806.938 536.966ZM671.42 762.355L616.125 777.766L630.378 828.906L685.673 813.495L740.968 798.084L726.715 746.944L671.42 762.355ZM685.673 813.495L711.948 864.531L742.601 848.749L716.325 797.714L690.05 746.678L659.397 762.46L685.673 813.495ZM716.325 797.714L731.735 853.009C721.296 855.918 710.652 854.216 702.18 849.437L730.384 799.441L758.587 749.446C741.815 739.984 721.189 736.769 700.916 742.419L716.325 797.714ZM730.384 799.441L701.932 849.296C693.849 844.683 686.808 836.647 683.838 825.99L739.133 810.58L794.428 795.17C788.717 774.678 775.156 758.9 758.836 749.587L730.384 799.441ZM739.133 810.58L683.838 825.99C678.059 805.253 690.121 783.871 710.857 778.093L726.267 833.388L741.676 888.683C782.016 877.441 805.67 835.512 794.428 795.17L739.133 810.58ZM726.267 833.388L710.857 778.093L663.935 791.169L679.345 846.464L694.754 901.759L741.676 888.683L726.267 833.388ZM679.345 846.464L663.935 791.169C687.049 784.727 710.938 798.203 717.38 821.318L662.085 836.728L606.79 852.137C617.37 890.1 656.792 912.338 694.754 901.759L679.345 846.464ZM662.085 836.728L717.38 821.318L699.973 758.855L644.678 774.265L589.383 789.674L606.79 852.137L662.085 836.728ZM644.678 774.265L623.526 720.902C604.123 728.593 583.002 734.638 560.527 738.656L570.631 795.162L580.734 851.668C610.548 846.337 639.086 838.228 665.829 827.628L644.678 774.265ZM570.631 795.162L560.528 738.656C532.911 743.594 506.159 744.95 481.141 743.163L477.051 800.419L472.961 857.675C507.828 860.166 544.117 858.215 580.734 851.668L570.631 795.162ZM477.051 800.419H419.649V857.953H477.051H534.453V800.419H477.051ZM477.051 857.953H419.649C419.649 833.958 439.043 814.564 463.038 814.564V871.966V929.368C502.447 929.368 534.453 897.362 534.453 857.953H477.051ZM463.038 871.966V814.564H414.328V871.966V929.368H463.038V871.966ZM414.328 871.966L414.328 814.564C435.855 814.564 453.214 831.922 453.214 853.449L395.812 853.449L338.409 853.449C338.409 895.327 372.45 929.368 414.328 929.368L414.328 871.966ZM395.812 853.449H453.214C453.214 864.52 448.584 874.15 442.041 880.758L401.25 840.371L360.459 799.984C347.244 813.332 338.409 832.169 338.409 853.449H395.812ZM401.25 840.371L441.839 880.961C434.965 887.835 425.169 892.335 414.328 892.335L414.328 834.933L414.328 777.53C393.278 777.531 374.274 786.168 360.661 799.782L401.25 840.371ZM414.328 834.933L402.719 891.149L436.482 898.121L448.092 841.905L459.701 785.689L425.937 778.717L414.328 834.933ZM448.092 841.905H505.494V797.095H448.092H390.69V841.905H448.092ZM448.092 797.095L457.144 740.411C375.78 727.417 325.873 682.363 315.493 624.71L258.999 634.881L202.505 645.052C224.099 764.991 325.564 835.657 439.039 853.779L448.092 797.095ZM258.999 634.881L315.408 624.246C314.771 620.87 311.136 603.896 309.634 596.898L253.511 608.949L197.388 621C198.201 624.787 199.448 630.615 200.547 635.786C201.097 638.376 201.602 640.763 201.993 642.632C202.444 644.786 202.606 645.595 202.591 645.515L258.999 634.881ZM253.511 608.949L237.013 553.969L223.936 557.893L240.435 612.873L256.933 667.853L270.009 663.929L253.511 608.949ZM240.435 612.873L224.161 557.826L202.607 564.198L218.88 619.245L235.153 674.292L256.708 667.92L240.435 612.873ZM218.88 619.245L205.705 563.375C220.371 559.917 235.719 568.049 240.74 582.959L186.34 601.278L131.939 619.598C146.021 661.413 189.616 685.123 232.055 675.115L218.88 619.245ZM186.34 601.278L240.711 582.872C239.778 580.116 238.713 577.1 237.773 574.426C236.784 571.611 235.821 568.858 234.862 566.013L180.465 584.342L126.068 602.671C127.282 606.275 128.458 609.63 129.463 612.491C130.518 615.493 131.304 617.72 131.969 619.685L186.34 601.278ZM180.465 584.342L189.918 527.723C176.153 525.425 166.082 521.652 159.769 518.28C152.486 514.391 153.453 512.883 156.198 517.521C157.813 520.25 160.693 526.375 160.728 535.27C160.767 544.941 157.385 554.014 152.039 560.825C143.102 572.211 134.673 570.598 144.982 569.188L137.199 512.315L129.417 455.443C108.506 458.305 80.3365 466.238 61.7325 489.939C38.5053 519.531 44.251 553.773 57.3965 575.987C69.2221 595.971 87.9432 610.072 105.684 619.547C124.394 629.539 146.616 636.887 171.012 640.96L180.465 584.342ZM137.199 512.315L144.981 569.188C154.84 567.839 165.643 566.779 177.124 565.984L173.158 508.719L169.193 451.454C155.74 452.385 142.328 453.677 129.417 455.443L137.199 512.315ZM173.158 508.719L227.252 527.925C227.156 528.194 226.958 528.676 226.604 529.286C226.245 529.906 225.796 530.537 225.276 531.121L182.36 493L139.445 454.879C129.91 465.612 123.332 477.494 119.064 489.513L173.158 508.719ZM182.36 493L225.286 531.111C219.319 537.831 213.499 540.806 213.057 541.043C211.689 541.779 211.207 541.895 212.253 541.498C214.305 540.718 218.266 539.447 224.514 537.781C236.795 534.508 253.069 530.975 270.362 527.472C289.018 523.693 302.834 521.121 318.087 518.059C324.705 516.731 331.122 515.396 336.24 514.174C338.683 513.59 341.836 512.796 344.939 511.821C346.416 511.357 348.972 510.516 351.883 509.262C352.49 509.001 362.16 505.213 370.885 496.328L329.932 456.106L288.978 415.885C294.093 410.677 298.997 407.725 300.958 406.594C303.383 405.194 305.388 404.287 306.485 403.815C308.659 402.879 310.242 402.385 310.527 402.295C311.246 402.07 311.137 402.136 309.562 402.512C306.642 403.209 301.996 404.195 295.493 405.5C284.506 407.706 263.853 411.654 247.57 414.953C229.925 418.527 210.79 422.627 194.95 426.849C187.138 428.931 178.86 431.372 171.465 434.183C167.787 435.581 163.28 437.462 158.704 439.921C155.056 441.882 146.849 446.539 139.435 454.889L182.36 493ZM329.932 456.106C278.205 480.994 278.206 480.996 278.207 480.997C278.207 480.998 278.208 480.999 278.208 481C278.209 481.002 278.21 481.004 278.211 481.006C278.213 481.009 278.214 481.013 278.216 481.017C278.22 481.024 278.223 481.032 278.227 481.039C278.234 481.054 278.241 481.069 278.249 481.084C278.263 481.114 278.278 481.144 278.293 481.175C278.322 481.236 278.352 481.297 278.383 481.36C278.444 481.484 278.507 481.612 278.572 481.743C278.702 482.004 278.841 482.278 278.988 482.563L329.987 456.217L380.986 429.871C381.096 430.083 381.207 430.302 381.319 430.526C381.375 430.638 381.431 430.752 381.487 430.867C381.516 430.925 381.544 430.983 381.572 431.042C381.587 431.071 381.601 431.1 381.615 431.13C381.622 431.145 381.629 431.159 381.636 431.174C381.64 431.181 381.644 431.189 381.647 431.196C381.649 431.2 381.651 431.204 381.652 431.207C381.653 431.209 381.654 431.211 381.655 431.213C381.656 431.214 381.656 431.215 381.656 431.216C381.657 431.217 381.658 431.218 329.932 456.106ZM329.987 456.217L384.058 436.946C381.932 430.982 379.049 423.009 376.391 415.029C375.074 411.075 373.939 407.495 373.074 404.514C372.118 401.217 371.863 399.914 371.894 400.09L315.387 410.186L258.879 420.281C260.71 430.531 264.686 442.95 267.47 451.308C270.609 460.734 274.028 470.189 275.917 475.488L329.987 456.217ZM315.387 410.186L371.888 400.054C358.129 323.326 404.492 261.007 469.748 249.308L459.619 192.807L449.49 136.305C318.647 159.761 234.514 284.401 258.886 420.317L315.387 410.186Z" fill="url(#paint0_linear_1397_2870)" mask="url(#path-1-outside-1_1397_2870)"/>
<mask id="path-3-outside-2_1397_2870" maskUnits="userSpaceOnUse" x="71.3262" y="157.949" width="877" height="746" fill="black">
<rect fill="white" x="71.3262" y="157.949" width="877" height="746"/>
<path d="M459.619 192.807C557.669 175.229 651.337 240.242 670.402 346.564C672.409 357.766 673.495 368.912 673.697 379.895C688.175 380.21 793.042 334.294 809.573 337.684C815.462 338.882 821.485 343.215 827.342 349.354C842.076 341.448 856.691 334.186 870.605 328.107C931.817 301.368 932.078 365.232 867.581 418.529C873.194 434.462 870.827 446.416 848.006 465.071C824.823 484.011 793.704 490.324 795.628 498.378C796.457 501.859 806.287 533.424 806.938 536.966C823.822 630.743 766.221 715.208 671.42 762.356L685.673 813.495L716.325 797.715C721.242 796.345 726.233 797.101 730.384 799.442C734.502 801.793 737.762 805.663 739.133 810.58C741.865 820.382 736.069 830.657 726.267 833.389L679.345 846.465C671.921 848.534 664.154 844.151 662.085 836.728L644.678 774.266C621.604 783.411 596.775 790.489 570.631 795.163C538.514 800.906 506.994 802.559 477.051 800.42V857.954C477.051 865.661 470.745 871.966 463.038 871.966H414.328C404.152 871.966 395.812 863.625 395.812 853.449C395.812 848.345 397.913 843.741 401.249 840.371C404.619 837.001 409.224 834.934 414.328 834.934L448.091 841.906V797.095C350.672 781.537 274.986 723.677 258.999 634.881C258.538 632.435 255.148 616.574 253.511 608.949L240.435 612.873L218.88 619.246C204.993 622.521 190.87 614.732 186.34 601.279C184.742 596.559 182.638 590.792 180.465 584.343C104.143 571.6 74.7615 520.859 137.199 512.315C148.584 510.758 160.691 509.583 173.158 508.72C175.177 503.035 178.162 497.726 182.36 493C193.939 479.961 325.871 460.238 329.932 456.107C329.932 456.107 329.951 456.145 329.989 456.22C325.975 444.958 317.383 421.362 315.387 410.186C296.322 303.864 361.57 210.384 459.619 192.807Z"/>
</mask>
<path d="M459.619 192.807C557.669 175.229 651.337 240.242 670.402 346.564C672.409 357.766 673.495 368.912 673.697 379.895C688.175 380.21 793.042 334.294 809.573 337.684C815.462 338.882 821.485 343.215 827.342 349.354C842.076 341.448 856.691 334.186 870.605 328.107C931.817 301.368 932.078 365.232 867.581 418.529C873.194 434.462 870.827 446.416 848.006 465.071C824.823 484.011 793.704 490.324 795.628 498.378C796.457 501.859 806.287 533.424 806.938 536.966C823.822 630.743 766.221 715.208 671.42 762.356L685.673 813.495L716.325 797.715C721.242 796.345 726.233 797.101 730.384 799.442C734.502 801.793 737.762 805.663 739.133 810.58C741.865 820.382 736.069 830.657 726.267 833.389L679.345 846.465C671.921 848.534 664.154 844.151 662.085 836.728L644.678 774.266C621.604 783.411 596.775 790.489 570.631 795.163C538.514 800.906 506.994 802.559 477.051 800.42V857.954C477.051 865.661 470.745 871.966 463.038 871.966H414.328C404.152 871.966 395.812 863.625 395.812 853.449C395.812 848.345 397.913 843.741 401.249 840.371C404.619 837.001 409.224 834.934 414.328 834.934L448.091 841.906V797.095C350.672 781.537 274.986 723.677 258.999 634.881C258.538 632.435 255.148 616.574 253.511 608.949L240.435 612.873L218.88 619.246C204.993 622.521 190.87 614.732 186.34 601.279C184.742 596.559 182.638 590.792 180.465 584.343C104.143 571.6 74.7615 520.859 137.199 512.315C148.584 510.758 160.691 509.583 173.158 508.72C175.177 503.035 178.162 497.726 182.36 493C193.939 479.961 325.871 460.238 329.932 456.107C329.932 456.107 329.951 456.145 329.989 456.22C325.975 444.958 317.383 421.362 315.387 410.186C296.322 303.864 361.57 210.384 459.619 192.807Z" fill="#F25E5E"/>
<path d="M459.619 192.807L454.039 161.68V161.68L459.619 192.807ZM670.402 346.564L701.529 340.989L701.528 340.983L670.402 346.564ZM673.697 379.895L642.08 380.476C642.392 397.443 656.041 411.139 673.007 411.509L673.697 379.895ZM809.573 337.684L803.221 368.662C803.237 368.665 803.252 368.668 803.268 368.671L809.573 337.684ZM827.342 349.354L804.46 371.181C814.278 381.474 829.76 383.944 842.294 377.219L827.342 349.354ZM870.605 328.107L857.947 299.129L857.947 299.129L870.605 328.107ZM867.581 418.529L847.437 394.153C837.215 402.6 833.349 416.529 837.755 429.037L867.581 418.529ZM848.006 465.071L868.012 489.561L868.019 489.555L848.006 465.071ZM795.628 498.378L826.39 491.052C826.388 491.045 826.387 491.039 826.385 491.032L795.628 498.378ZM806.938 536.966L838.061 531.363C838.053 531.322 838.046 531.282 838.039 531.242L806.938 536.966ZM671.42 762.356L657.338 734.042C643.76 740.796 636.887 756.238 640.958 770.846L671.42 762.356ZM685.673 813.495L655.211 821.985C657.764 831.144 664.303 838.669 673.016 842.474C681.73 846.28 691.693 845.963 700.147 841.611L685.673 813.495ZM716.325 797.715L707.836 767.253C705.767 767.83 703.761 768.616 701.851 769.599L716.325 797.715ZM730.384 799.442L746.058 771.978C746.012 771.952 745.967 771.926 745.921 771.9L730.384 799.442ZM739.133 810.58L769.594 802.091L769.594 802.09L739.133 810.58ZM726.267 833.389L734.756 863.85L726.267 833.389ZM679.345 846.465L687.834 876.927L687.834 876.927L679.345 846.465ZM662.085 836.728L692.547 828.238V828.238L662.085 836.728ZM644.678 774.266L675.139 765.776C672.732 757.139 666.771 749.929 658.74 745.942C650.708 741.954 641.361 741.564 633.026 744.868L644.678 774.266ZM570.631 795.163L576.197 826.292H576.197L570.631 795.163ZM477.051 800.42L479.304 768.878C470.548 768.252 461.926 771.295 455.502 777.277C449.077 783.258 445.428 791.642 445.428 800.42H477.051ZM477.051 857.954L508.673 857.955V857.954H477.051ZM463.038 871.966V903.588H463.038L463.038 871.966ZM395.812 853.449L364.189 853.448V853.449H395.812ZM401.249 840.371L378.889 818.011C378.851 818.048 378.814 818.085 378.777 818.122L401.249 840.371ZM414.328 834.934L420.724 803.965C418.62 803.53 416.477 803.311 414.328 803.311V834.934ZM448.091 841.906L441.695 872.875C451.007 874.798 460.69 872.429 468.062 866.424C475.435 860.419 479.713 851.415 479.713 841.906H448.091ZM448.091 797.095H479.713C479.713 781.555 468.423 768.319 453.078 765.868L448.091 797.095ZM258.999 634.881L290.121 629.278C290.106 629.192 290.09 629.107 290.074 629.022L258.999 634.881ZM253.511 608.949L284.428 602.31C282.576 593.681 277.2 586.219 269.603 581.727C262.005 577.236 252.876 576.124 244.422 578.661L253.511 608.949ZM240.435 612.873L249.401 643.198C249.442 643.186 249.482 643.173 249.523 643.161L240.435 612.873ZM218.88 619.246L226.138 650.024C226.711 649.889 227.281 649.738 227.846 649.571L218.88 619.246ZM186.34 601.279L216.309 591.187C216.303 591.171 216.298 591.155 216.292 591.139L186.34 601.279ZM180.465 584.343L210.432 574.246C206.705 563.183 197.186 555.074 185.672 553.152L180.465 584.343ZM137.199 512.315L132.912 480.985H132.912L137.199 512.315ZM173.158 508.72L175.343 540.267C187.901 539.397 198.747 531.162 202.958 519.3L173.158 508.72ZM182.36 493L206.002 514.001L206.006 513.996L182.36 493ZM329.932 456.107L358.156 441.846C353.561 432.752 344.865 426.429 334.797 424.862C324.73 423.294 314.523 426.673 307.38 433.939L329.932 456.107ZM329.989 456.22L301.899 470.743C309.54 485.522 327.327 491.853 342.588 485.224C357.848 478.596 365.362 461.276 359.776 445.603L329.989 456.22ZM315.387 410.186L346.516 404.624C346.515 404.618 346.514 404.611 346.513 404.604L315.387 410.186ZM459.619 192.807L465.199 223.933C545.18 209.595 623.134 262.121 639.276 352.146L670.402 346.564L701.528 340.983C679.541 218.363 570.158 140.864 454.039 161.68L459.619 192.807ZM670.402 346.564L639.275 352.139C640.989 361.709 641.909 371.185 642.08 380.476L673.697 379.895L705.314 379.314C705.081 366.639 703.828 353.823 701.529 340.989L670.402 346.564ZM673.697 379.895L673.007 411.509C680.319 411.669 688.036 409.481 691.664 408.449C696.816 406.984 702.829 404.999 709.077 402.831C721.54 398.507 737.034 392.714 751.736 387.332C766.809 381.814 781.221 376.663 792.734 373.108C798.527 371.32 802.953 370.135 806.016 369.498C810.758 368.513 808.284 369.7 803.221 368.662L809.573 337.684L815.925 306.706C806.73 304.82 797.362 306.7 793.149 307.576C787.256 308.801 780.664 310.644 774.075 312.678C760.823 316.77 745.014 322.443 729.995 327.941C714.604 333.575 700.133 338.99 688.345 343.081C682.468 345.12 677.784 346.644 674.365 347.616C669.422 349.022 670.695 348.199 674.387 348.28L673.697 379.895ZM809.573 337.684L803.268 368.671C802.128 368.439 801.358 368.133 800.99 367.967C800.627 367.803 800.571 367.737 800.82 367.905C801.066 368.07 801.516 368.4 802.162 368.963C802.805 369.522 803.574 370.252 804.46 371.181L827.342 349.354L850.224 327.528C842.935 319.887 831.348 309.844 815.879 306.696L809.573 337.684ZM827.342 349.354L842.294 377.219C856.497 369.597 870.327 362.737 883.264 357.086L870.605 328.107L857.947 299.129C843.055 305.634 827.654 313.299 812.389 321.49L827.342 349.354ZM870.605 328.107L883.264 357.086C895.885 351.572 897.465 354.5 893.249 352.808C890.383 351.658 887.588 349.296 885.899 346.248C884.44 343.617 884.63 342 884.617 342.738C884.582 344.678 883.357 351.218 876.985 361.509C870.923 371.3 861.243 382.745 847.437 394.153L867.581 418.529L887.725 442.906C906.168 427.665 920.642 411.141 930.757 394.803C940.564 378.964 947.541 361.217 947.851 343.871C948.182 325.398 940.159 303.485 916.804 294.113C897.338 286.301 875.932 291.273 857.947 299.129L870.605 328.107ZM867.581 418.529L837.755 429.037C838.552 431.298 838.545 431.989 838.53 431.722C838.498 431.172 838.605 430.323 838.848 429.673C839.015 429.23 838.866 429.921 837.236 431.868C835.559 433.871 832.715 436.727 827.992 440.588L848.006 465.071L868.019 489.555C880.872 479.049 892.373 467.06 898.065 451.885C904.383 435.04 901.579 419.864 897.407 408.021L867.581 418.529ZM848.006 465.071L827.999 440.582C819.89 447.207 809.912 451.986 798.845 457.238C794.346 459.373 787.495 462.572 782.113 466.186C779.446 467.977 774.721 471.415 770.79 476.828C766.296 483.015 761.91 493.326 764.871 505.724L795.628 498.378L826.385 491.032C828.865 501.416 825.031 509.768 821.961 513.995C820.573 515.907 819.275 517.13 818.596 517.724C817.886 518.346 817.41 518.665 817.368 518.693C817.365 518.695 817.964 518.308 819.675 517.431C821.317 516.589 823.31 515.633 825.958 514.376C835.766 509.722 852.938 501.875 868.012 489.561L848.006 465.071ZM795.628 498.378L764.866 505.704C765.34 507.694 766.472 511.481 767.357 514.441C768.417 517.984 769.769 522.451 771.072 526.773C772.394 531.159 773.675 535.431 774.66 538.801C775.155 540.496 775.543 541.851 775.811 542.827C776.221 544.317 776.05 543.84 775.838 542.69L806.938 536.966L838.039 531.242C837.664 529.207 837.043 526.968 836.788 526.041C836.391 524.598 835.897 522.88 835.366 521.062C834.298 517.41 832.948 512.909 831.627 508.525C830.287 504.079 828.986 499.779 827.949 496.314C826.738 492.267 826.331 490.802 826.39 491.052L795.628 498.378ZM806.938 536.966L775.816 542.569C789.405 618.046 744.141 690.872 657.338 734.042L671.42 762.356L685.502 790.67C788.301 739.544 858.239 643.44 838.061 531.363L806.938 536.966ZM671.42 762.356L640.958 770.846L655.211 821.985L685.673 813.495L716.134 805.005L701.881 753.867L671.42 762.356ZM685.673 813.495L700.147 841.611L730.799 825.83L716.325 797.715L701.851 769.599L671.199 785.38L685.673 813.495ZM716.325 797.715L724.814 828.177C721.272 829.164 717.649 828.566 714.847 826.985L730.384 799.442L745.921 771.9C734.817 765.636 721.213 763.525 707.836 767.253L716.325 797.715ZM730.384 799.442L714.709 826.907C712.108 825.422 709.693 822.735 708.671 819.07L739.133 810.58L769.594 802.09C765.832 788.592 756.895 778.163 746.058 771.978L730.384 799.442ZM739.133 810.58L708.671 819.069C706.715 812.049 710.755 804.884 717.778 802.927L726.267 833.389L734.756 863.85C761.383 856.43 777.014 828.716 769.594 802.091L739.133 810.58ZM726.267 833.389L717.778 802.927L670.856 816.003L679.345 846.465L687.834 876.927L734.756 863.85L726.267 833.389ZM679.345 846.465L670.856 816.003C680.258 813.383 689.928 818.842 692.547 828.238L662.085 836.728L631.623 845.217C638.38 869.461 663.583 883.685 687.834 876.927L679.345 846.465ZM662.085 836.728L692.547 828.238L675.139 765.776L644.678 774.266L614.216 782.755L631.623 845.217L662.085 836.728ZM644.678 774.266L633.026 744.868C611.974 753.213 589.188 759.721 565.065 764.034L570.631 795.163L576.197 826.292C604.362 821.256 631.235 813.61 656.33 803.663L644.678 774.266ZM570.631 795.163L565.065 764.034C535.427 769.334 506.534 770.823 479.304 768.878L477.051 800.42L474.798 831.962C507.454 834.295 541.601 832.478 576.197 826.292L570.631 795.163ZM477.051 800.42H445.428V857.954H477.051H508.673V800.42H477.051ZM477.051 857.954L445.428 857.953C445.429 848.194 453.282 840.344 463.038 840.343L463.038 871.966L463.038 903.588C488.207 903.588 508.673 883.128 508.673 857.955L477.051 857.954ZM463.038 871.966V840.343H414.328V871.966V903.588H463.038V871.966ZM414.328 871.966V840.343C421.617 840.343 427.434 846.16 427.434 853.449H395.812H364.189C364.189 881.09 386.688 903.588 414.328 903.588V871.966ZM395.812 853.449L427.434 853.45C427.434 857.251 425.83 860.489 423.721 862.62L401.249 840.371L378.777 818.122C369.996 826.992 364.189 839.438 364.189 853.448L395.812 853.449ZM401.249 840.371L423.609 862.732C421.332 865.009 418.002 866.556 414.328 866.556V834.934V803.311C400.445 803.311 387.906 808.993 378.889 818.011L401.249 840.371ZM414.328 834.934L407.932 865.903L441.695 872.875L448.091 841.906L454.487 810.937L420.724 803.965L414.328 834.934ZM448.091 841.906H479.713V797.095H448.091H416.468V841.906H448.091ZM448.091 797.095L453.078 765.868C364.504 751.723 303.019 700.917 290.121 629.278L258.999 634.881L227.877 640.484C246.953 746.436 336.84 811.351 443.104 828.321L448.091 797.095ZM258.999 634.881L290.074 629.022C289.516 626.063 285.992 609.59 284.428 602.31L253.511 608.949L222.593 615.588C223.409 619.386 224.66 625.234 225.764 630.428C226.316 633.028 226.827 635.443 227.226 637.349C227.425 638.303 227.592 639.107 227.72 639.731C227.784 640.043 227.835 640.292 227.873 640.482C227.914 640.689 227.928 640.759 227.924 640.74L258.999 634.881ZM253.511 608.949L244.422 578.661L231.346 582.585L240.435 612.873L249.523 643.161L262.599 639.237L253.511 608.949ZM240.435 612.873L231.469 582.548L209.914 588.921L218.88 619.246L227.846 649.571L249.401 643.198L240.435 612.873ZM218.88 619.246L211.622 588.468C213.465 588.033 215.577 589.015 216.309 591.187L186.34 601.279L156.371 611.371C166.163 640.448 196.522 657.008 226.138 650.024L218.88 619.246ZM186.34 601.279L216.292 591.139C215.42 588.561 214.417 585.722 213.452 582.975C212.459 580.149 211.448 577.261 210.432 574.246L180.465 584.343L150.498 594.44C151.655 597.874 152.783 601.094 153.784 603.944C154.813 606.872 155.662 609.277 156.387 611.419L186.34 601.279ZM180.465 584.343L185.672 553.152C169.52 550.455 156.721 545.88 147.624 541.021C137.993 535.877 134.539 531.542 134.012 530.651C133.882 530.431 134.936 532.097 134.949 535.374C134.963 539.078 133.62 542.538 131.761 544.907C129.008 548.414 128.798 545.382 141.486 543.646L137.199 512.315L132.912 480.985C114.382 483.521 94.4305 490.035 82.011 505.857C67.0449 524.924 70.3018 547.175 79.5826 562.859C88.1364 577.314 102.436 588.587 117.829 596.808C133.755 605.314 153.249 611.859 175.257 615.534L180.465 584.343ZM137.199 512.315L141.486 543.646C152.029 542.203 163.417 541.092 175.343 540.267L173.158 508.72L170.974 477.173C157.966 478.074 145.139 479.312 132.912 480.985L137.199 512.315ZM173.158 508.72L202.958 519.3C203.738 517.103 204.744 515.417 206.002 514.001L182.36 493L158.718 471.999C151.579 480.036 146.615 488.967 143.358 498.14L173.158 508.72ZM182.36 493L206.006 513.996C204.327 515.888 202.829 517.022 202.14 517.513C201.384 518.052 200.893 518.314 200.852 518.336C200.818 518.355 201.457 518.022 203.094 517.4C206.345 516.164 211.276 514.63 217.875 512.871C230.955 509.385 247.871 505.725 265.243 502.206C283.365 498.535 298.718 495.654 313.012 492.785C319.604 491.462 325.624 490.205 330.248 489.101C332.496 488.564 334.966 487.933 337.21 487.228C338.292 486.888 339.917 486.347 341.686 485.586C342.188 485.37 347.622 483.221 352.483 478.275L329.932 456.107L307.38 433.939C310.168 431.104 312.824 429.511 313.848 428.921C315.126 428.183 316.161 427.718 316.682 427.494C317.259 427.245 317.689 427.087 317.896 427.013C318.119 426.933 318.249 426.892 318.255 426.891C318.266 426.887 318.211 426.904 318.076 426.943C317.943 426.981 317.758 427.032 317.515 427.097C317.021 427.227 316.373 427.391 315.552 427.587C312.138 428.402 307.094 429.466 300.566 430.777C288.619 433.175 269.504 436.814 252.687 440.22C235.121 443.778 216.629 447.751 201.589 451.759C194.128 453.748 186.82 455.926 180.624 458.281C177.538 459.454 174.151 460.886 170.91 462.628C168.181 464.095 163.123 467.038 158.714 472.004L182.36 493ZM329.932 456.107C301.708 470.369 301.708 470.369 301.708 470.369C301.708 470.369 301.708 470.369 301.708 470.37C301.708 470.37 301.708 470.37 301.709 470.371C301.709 470.371 301.709 470.372 301.71 470.373C301.71 470.374 301.711 470.375 301.712 470.377C301.713 470.379 301.714 470.382 301.716 470.385C301.719 470.391 301.722 470.397 301.725 470.403C301.731 470.415 301.737 470.427 301.744 470.44C301.757 470.467 301.772 470.496 301.788 470.527C301.82 470.589 301.857 470.661 301.899 470.743L329.989 456.22L358.079 441.697C358.083 441.704 358.091 441.72 358.104 441.745C358.111 441.757 358.118 441.772 358.127 441.789C358.131 441.797 358.135 441.806 358.14 441.816C358.143 441.821 358.145 441.826 358.148 441.831C358.149 441.833 358.15 441.836 358.152 441.838C358.152 441.84 358.153 441.841 358.154 441.842C358.154 441.843 358.154 441.844 358.155 441.844C358.155 441.845 358.155 441.845 358.155 441.845C358.155 441.845 358.155 441.846 358.155 441.846C358.156 441.846 358.156 441.846 329.932 456.107ZM329.989 456.22L359.776 445.603C357.704 439.788 354.7 431.483 351.933 423.177C348.971 414.283 347.056 407.644 346.516 404.624L315.387 410.186L284.257 415.747C285.714 423.904 289.094 434.651 291.93 443.165C294.962 452.266 298.261 461.389 300.202 466.836L329.989 456.22ZM315.387 410.186L346.513 404.604C330.371 314.585 385.215 238.272 465.199 223.933L459.619 192.807L454.039 161.68C337.924 182.496 262.272 293.142 284.261 415.767L315.387 410.186Z" fill="black" mask="url(#path-3-outside-2_1397_2870)"/>
<path d="M477.051 704.616V857.953C477.051 865.66 470.745 871.965 463.038 871.965H414.328C404.152 871.965 395.812 863.625 395.812 853.449C395.812 848.344 397.913 843.74 401.25 840.37C404.619 837.001 409.223 834.932 414.328 834.932L448.092 841.905V704.649C448.092 696.942 454.397 690.637 462.104 690.637H463.038C470.745 690.637 477.051 696.942 477.051 704.649V704.616Z" fill="#747474"/>
<path d="M620.922 689.019L662.086 836.727C664.155 844.151 671.921 848.533 679.345 846.464L726.268 833.388C736.07 830.656 741.865 820.382 739.134 810.58C737.763 805.663 734.503 801.792 730.384 799.442C726.234 797.1 721.243 796.344 716.326 797.714L685.674 813.495L648.827 681.277C646.758 673.853 638.992 669.472 631.568 671.54L630.668 671.791C623.244 673.86 618.862 681.627 620.931 689.051L620.922 689.019Z" fill="#747474"/>
<path d="M362.89 511.678C362.89 511.678 227.362 499.978 137.198 512.315C47.0352 524.653 148.342 624.985 305.974 571.818" fill="#42A1FF"/>
<path d="M669.955 449.758C669.955 449.758 783.903 365.982 870.606 328.107C957.308 290.232 921.728 434.138 753.036 472.311" fill="#42A1FF"/>
<path d="M803.977 536.156C826.24 660.203 718.983 768.034 567.705 795.14C416.397 822.276 283.679 756.71 261.417 632.662C248.924 563.093 277.257 509.494 330.426 457.442C326.637 446.76 317.459 421.785 315.387 410.185C296.322 303.863 361.57 210.383 459.619 192.806C557.669 175.228 651.337 240.241 670.402 346.563C672.475 358.133 673.57 369.644 673.718 380.978C741.719 411.309 791.455 466.586 803.948 536.156H803.977Z" fill="#42A1FF"/>
<path d="M529.192 356.002C529.553 375.343 508.559 405.683 489.765 406.031C470.972 406.38 448.884 376.822 448.523 357.481C448.163 338.14 460.17 322.23 488.212 321.721C516.576 321.199 528.832 336.661 529.192 356.002Z" fill="#EAC00F"/>
<path d="M387.907 374.412C409.738 374.412 427.435 356.714 427.435 334.884C427.435 313.053 409.738 295.355 387.907 295.355C366.076 295.355 348.379 313.053 348.379 334.884C348.379 356.714 366.076 374.412 387.907 374.412Z" fill="white"/>
<path d="M387.901 313.025C399.977 313.026 409.765 322.814 409.765 334.89C409.764 346.965 399.977 356.753 387.901 356.753C375.825 356.753 366.038 346.966 366.037 334.89C366.037 322.813 375.825 313.025 387.901 313.025Z" fill="black"/>
<path d="M577.642 337.52C599.473 337.52 617.17 319.823 617.17 297.992C617.17 276.161 599.473 258.464 577.642 258.464C555.812 258.464 538.114 276.161 538.114 297.992C538.114 319.823 555.812 337.52 577.642 337.52Z" fill="white"/>
<path d="M577.637 276.133C589.713 276.133 599.5 285.921 599.5 297.997C599.5 310.073 589.713 319.86 577.637 319.86C565.561 319.86 555.773 310.073 555.772 297.997C555.772 285.921 565.56 276.133 577.637 276.133Z" fill="black"/>
<path d="M848.006 465.064C874.713 443.233 873.41 430.577 864.083 409.985C853.335 386.177 830.596 341.955 809.573 337.677C792.46 334.166 680.651 383.515 672.508 379.68C672.508 379.68 660.197 464.592 510.081 491.409C359.965 518.226 329.932 456.1 329.932 456.1C325.875 460.231 193.937 479.954 182.36 492.993C155.682 523.026 177.96 576.521 186.339 601.272C190.869 614.725 204.993 622.513 218.879 619.239L240.434 612.866L253.511 608.942C255.148 616.568 258.538 632.43 258.999 634.874C281.265 758.544 419.33 822.209 570.631 795.156C721.932 768.103 829.204 660.629 806.938 536.959C806.287 533.419 796.457 501.853 795.628 498.371C793.703 490.317 824.822 484.004 848.006 465.064Z" fill="#9D49E6"/>
<path d="M435.238 627.382L435.49 640.083L430.522 640.963L431.371 682.683L443.412 680.514L443.161 668.315L458.849 665.486L459.352 690.48L407.037 699.88L406.786 687.084L411.942 686.173L411.093 644.453L405.937 645.365L405.686 632.664L435.207 627.382H435.238Z" fill="#F25E5E"/>
<path d="M493.716 616.913L493.967 629.614L488.183 630.652L489.031 672.371L494.816 671.334L495.068 684.13L464.037 689.694L463.786 676.899L469.665 675.83L468.816 634.11L462.937 635.179L462.686 622.478L493.716 616.913Z" fill="#F25E5E"/>
<path d="M563.572 621.343C562.912 625.807 561.749 632.378 561.12 634.705L552.066 673.846L532.542 677.336L521.287 640.867C520.784 639.326 519.463 634.045 519.086 629.297L518.709 629.36L519.495 667.244L524.808 666.301L525.059 678.688L499.751 683.215L499.5 670.828L504.53 669.916L503.65 627.537L498.682 628.417L498.431 616.03L533.831 609.679L544.017 643.948L552.254 606.378L587.843 599.996L588.095 612.383L582.97 613.295L583.819 655.58L588.943 654.668L589.195 667.15L559.674 672.431L559.422 659.95L564.641 659.007L563.981 626.908L563.855 621.249L563.478 621.312L563.572 621.343Z" fill="#F25E5E"/>
<path d="M623.589 593.613L623.84 606.315L618.056 607.352L618.904 649.072L624.689 648.034L624.941 660.83L593.91 666.394L593.659 653.599L599.538 652.53L598.689 610.81L592.81 611.879L592.559 599.178L623.589 593.613Z" fill="#F25E5E"/>
<path d="M690.554 606.692L676.815 609.145L676.564 596.852L668.704 598.267L669.553 639.986L677.318 638.603L677.57 651.399L642.798 657.624L642.547 644.828L650.218 643.445L649.369 601.725L641.32 603.171L641.572 615.464L627.833 617.916L627.33 592.922L690.019 581.667L690.522 606.661L690.554 606.692Z" fill="#F25E5E"/>
<path d="M430.617 627.506L430.522 698.495" stroke="#F25E5E" stroke-width="2.10641" stroke-miterlimit="10"/>
<path d="M426.026 628.323L425.932 699.312" stroke="#F25E5E" stroke-width="2.10641" stroke-miterlimit="10"/>
<path d="M421.437 629.173L421.343 700.131" stroke="#F25E5E" stroke-width="2.10641" stroke-miterlimit="10"/>
<path d="M416.847 629.991L416.753 700.949" stroke="#F25E5E" stroke-width="2.10641" stroke-miterlimit="10"/>
<path d="M412.255 630.81L412.161 701.767" stroke="#F25E5E" stroke-width="2.10641" stroke-miterlimit="10"/>
<path d="M407.667 631.628L407.541 702.617" stroke="#F25E5E" stroke-width="2.10641" stroke-miterlimit="10"/>
<path d="M403.077 632.441L402.951 703.431" stroke="#F25E5E" stroke-width="2.10641" stroke-miterlimit="10"/>
<path d="M398.486 633.291L398.36 704.249" stroke="#F25E5E" stroke-width="2.10641" stroke-miterlimit="10"/>
<path d="M393.895 634.109L393.77 705.067" stroke="#F25E5E" stroke-width="2.10641" stroke-miterlimit="10"/>
<path d="M389.305 634.927L389.18 705.884" stroke="#F25E5E" stroke-width="2.10641" stroke-miterlimit="10"/>
<path d="M384.621 692.273L384.59 706.735" stroke="#F25E5E" stroke-width="2.10641" stroke-miterlimit="10"/>
<path d="M384.715 635.745L384.684 650.962" stroke="#F25E5E" stroke-width="2.10641" stroke-miterlimit="10"/>
<path d="M380.031 693.118L380 707.549" stroke="#F25E5E" stroke-width="2.10641" stroke-miterlimit="10"/>
<path d="M380.126 636.563L380.095 651.78" stroke="#F25E5E" stroke-width="2.10641" stroke-miterlimit="10"/>
<path d="M435.208 626.692L435.113 697.682" stroke="#F25E5E" stroke-width="2.10641" stroke-miterlimit="10"/>
<path d="M439.796 625.874L439.702 696.832" stroke="#F25E5E" stroke-width="2.10641" stroke-miterlimit="10"/>
<path d="M444.386 625.056L444.292 696.013" stroke="#F25E5E" stroke-width="2.10641" stroke-miterlimit="10"/>
<path d="M448.976 624.237L448.882 695.195" stroke="#F25E5E" stroke-width="2.10641" stroke-miterlimit="10"/>
<path d="M453.568 623.388L453.474 694.377" stroke="#F25E5E" stroke-width="2.10641" stroke-miterlimit="10"/>
<path d="M458.157 622.569L458.062 693.559" stroke="#F25E5E" stroke-width="2.10641" stroke-miterlimit="10"/>
<path d="M462.749 621.751L462.654 692.709" stroke="#F25E5E" stroke-width="2.10641" stroke-miterlimit="10"/>
<path d="M467.338 620.938L467.244 691.896" stroke="#F25E5E" stroke-width="2.10641" stroke-miterlimit="10"/>
<path d="M471.959 620.119L471.833 691.077" stroke="#F25E5E" stroke-width="2.10641" stroke-miterlimit="10"/>
<path d="M476.549 619.271L476.423 690.26" stroke="#F25E5E" stroke-width="2.10641" stroke-miterlimit="10"/>
<path d="M481.138 618.452L481.013 689.441" stroke="#F25E5E" stroke-width="2.10641" stroke-miterlimit="10"/>
<path d="M485.729 617.634L485.604 688.592" stroke="#F25E5E" stroke-width="2.10641" stroke-miterlimit="10"/>
<path d="M490.319 616.815L490.193 687.773" stroke="#F25E5E" stroke-width="2.10641" stroke-miterlimit="10"/>
<path d="M494.91 616.002L494.784 686.96" stroke="#F25E5E" stroke-width="2.10641" stroke-miterlimit="10"/>
<path d="M499.5 615.153L499.374 686.142" stroke="#F25E5E" stroke-width="2.10641" stroke-miterlimit="10"/>
<path d="M504.09 614.335L503.964 685.324" stroke="#F25E5E" stroke-width="2.10641" stroke-miterlimit="10"/>
<path d="M508.679 613.516L508.554 684.505" stroke="#F25E5E" stroke-width="2.10641" stroke-miterlimit="10"/>
<path d="M513.271 612.698L513.146 683.656" stroke="#F25E5E" stroke-width="2.10641" stroke-miterlimit="10"/>
<path d="M517.86 611.885L517.734 682.843" stroke="#F25E5E" stroke-width="2.10641" stroke-miterlimit="10"/>
<path d="M522.45 611.035L522.324 682.024" stroke="#F25E5E" stroke-width="2.10641" stroke-miterlimit="10"/>
<path d="M527.04 610.217L526.914 681.206" stroke="#F25E5E" stroke-width="2.10641" stroke-miterlimit="10"/>
<path d="M531.631 609.398L531.505 680.388" stroke="#F25E5E" stroke-width="2.10641" stroke-miterlimit="10"/>
<path d="M536.221 608.58L536.095 679.538" stroke="#F25E5E" stroke-width="2.10641" stroke-miterlimit="10"/>
<path d="M540.81 607.763L540.685 678.72" stroke="#F25E5E" stroke-width="2.10641" stroke-miterlimit="10"/>
<path d="M545.4 606.944L545.274 677.902" stroke="#F25E5E" stroke-width="2.10641" stroke-miterlimit="10"/>
<path d="M549.991 606.1L549.865 677.089" stroke="#F25E5E" stroke-width="2.10641" stroke-miterlimit="10"/>
<path d="M554.581 605.281L554.455 676.27" stroke="#F25E5E" stroke-width="2.10641" stroke-miterlimit="10"/>
<path d="M559.171 604.463L559.045 675.421" stroke="#F25E5E" stroke-width="2.10641" stroke-miterlimit="10"/>
<path d="M563.76 603.645L563.666 674.602" stroke="#F25E5E" stroke-width="2.10641" stroke-miterlimit="10"/>
<path d="M568.351 602.826L568.257 673.784" stroke="#F25E5E" stroke-width="2.10641" stroke-miterlimit="10"/>
<path d="M572.942 601.977L572.848 672.966" stroke="#F25E5E" stroke-width="2.10641" stroke-miterlimit="10"/>
<path d="M577.532 601.163L577.438 672.152" stroke="#F25E5E" stroke-width="2.10641" stroke-miterlimit="10"/>
<path d="M582.121 600.346L582.026 671.303" stroke="#F25E5E" stroke-width="2.10641" stroke-miterlimit="10"/>
<path d="M586.712 599.527L586.617 670.485" stroke="#F25E5E" stroke-width="2.10641" stroke-miterlimit="10"/>
<path d="M591.3 598.709L591.206 669.667" stroke="#F25E5E" stroke-width="2.10641" stroke-miterlimit="10"/>
<path d="M595.891 597.859L595.797 668.849" stroke="#F25E5E" stroke-width="2.10641" stroke-miterlimit="10"/>
<path d="M600.482 597.041L600.388 668.03" stroke="#F25E5E" stroke-width="2.10641" stroke-miterlimit="10"/>
<path d="M605.073 596.223L604.979 667.212" stroke="#F25E5E" stroke-width="2.10641" stroke-miterlimit="10"/>
<path d="M609.662 595.41L609.567 666.368" stroke="#F25E5E" stroke-width="2.10641" stroke-miterlimit="10"/>
<path d="M614.252 594.592L614.157 665.55" stroke="#F25E5E" stroke-width="2.10641" stroke-miterlimit="10"/>
<path d="M618.841 593.742L618.747 664.731" stroke="#F25E5E" stroke-width="2.10641" stroke-miterlimit="10"/>
<path d="M623.463 592.924L623.337 663.913" stroke="#F25E5E" stroke-width="2.10641" stroke-miterlimit="10"/>
<path d="M628.053 592.105L627.928 663.095" stroke="#F25E5E" stroke-width="2.10641" stroke-miterlimit="10"/>
<path d="M632.643 591.287L632.518 662.245" stroke="#F25E5E" stroke-width="2.10641" stroke-miterlimit="10"/>
<path d="M637.233 590.474L637.107 661.431" stroke="#F25E5E" stroke-width="2.10641" stroke-miterlimit="10"/>
<path d="M641.824 589.655L641.698 660.613" stroke="#F25E5E" stroke-width="2.10641" stroke-miterlimit="10"/>
<path d="M646.414 588.807L646.288 659.796" stroke="#F25E5E" stroke-width="2.10641" stroke-miterlimit="10"/>
<path d="M651.004 587.988L650.878 658.977" stroke="#F25E5E" stroke-width="2.10641" stroke-miterlimit="10"/>
<path d="M655.594 587.17L655.468 658.128" stroke="#F25E5E" stroke-width="2.10641" stroke-miterlimit="10"/>
<path d="M660.184 586.356L660.059 657.314" stroke="#F25E5E" stroke-width="2.10641" stroke-miterlimit="10"/>
<path d="M664.774 585.538L664.648 656.496" stroke="#F25E5E" stroke-width="2.10641" stroke-miterlimit="10"/>
<path d="M669.364 584.688L669.238 655.678" stroke="#F25E5E" stroke-width="2.10641" stroke-miterlimit="10"/>
<path d="M673.954 583.87L673.828 654.859" stroke="#F25E5E" stroke-width="2.10641" stroke-miterlimit="10"/>
<path d="M678.545 583.052L678.419 654.009" stroke="#F25E5E" stroke-width="2.10641" stroke-miterlimit="10"/>
<path d="M683.135 582.232L683.009 653.19" stroke="#F25E5E" stroke-width="2.10641" stroke-miterlimit="10"/>
<path d="M687.725 581.415L687.6 652.373" stroke="#F25E5E" stroke-width="2.10641" stroke-miterlimit="10"/>
<path d="M692.221 637.789L692.189 651.559" stroke="#F25E5E" stroke-width="2.10641" stroke-miterlimit="10"/>
<path d="M692.315 580.571L692.252 617.229" stroke="#F25E5E" stroke-width="2.10641" stroke-miterlimit="10"/>
<path d="M697.125 636.908V650.678" stroke="#F25E5E" stroke-width="2.10641" stroke-miterlimit="10"/>
<path d="M696.906 579.753L696.843 616.411" stroke="#F25E5E" stroke-width="2.10641" stroke-miterlimit="10"/>
<path d="M701.495 578.935L701.432 615.592" stroke="#F25E5E" stroke-width="2.10641" stroke-miterlimit="10"/>
<path d="M490.634 545.136L491.735 599.934L471.645 603.55L447.06 571.199L447.563 595.407L454.762 594.118L455.014 606.505L426.342 611.661L426.09 599.274L431.592 598.3L430.743 555.92L425.336 556.895L425.084 544.508L451.901 539.697L475.512 570.885L475.041 547.997L468.69 549.129L468.438 536.742L496.576 531.712L496.828 544.099L490.666 545.199L490.634 545.136Z" fill="#F25E5E"/>
<path d="M500.947 564.22C500.538 543.47 513.68 526.713 533.046 523.255C555.934 519.136 566.874 531.366 567.314 552.996C567.755 574.72 556.248 590.094 535.121 593.866C515.597 597.356 501.418 588.239 500.947 564.22ZM543.955 557.209C543.704 545.576 540.434 536.805 533.235 538.094C527.544 539.005 523.771 548.186 524.023 560.101C524.274 572.677 528.833 579.876 534.807 578.807C540.686 577.738 544.175 569.124 543.924 557.209H543.955Z" fill="#F25E5E"/>
<path d="M636.041 519.072L637.141 573.87L617.051 577.485L592.466 545.135L592.969 569.343L600.169 568.054L600.42 580.441L571.748 585.597L571.496 573.21L576.998 572.235L576.149 529.855L570.742 530.83L570.49 518.443L597.308 513.633L620.918 544.82L620.447 521.933L614.096 523.065L613.845 510.678L641.982 505.647L642.234 518.034L636.072 519.135L636.041 519.072Z" fill="#F25E5E"/>
<path d="M415.746 544.538L415.62 615.496" stroke="#F25E5E" stroke-width="2.10641" stroke-miterlimit="10"/>
<path d="M411.061 601.915L411.029 616.346" stroke="#F25E5E" stroke-width="2.10641" stroke-miterlimit="10"/>
<path d="M411.156 545.356L411.125 558.624" stroke="#F25E5E" stroke-width="2.10641" stroke-miterlimit="10"/>
<path d="M420.336 543.725L420.21 614.682" stroke="#F25E5E" stroke-width="2.10641" stroke-miterlimit="10"/>
<path d="M424.927 542.906L424.801 613.864" stroke="#F25E5E" stroke-width="2.10641" stroke-miterlimit="10"/>
<path d="M429.516 542.058L429.391 613.047" stroke="#F25E5E" stroke-width="2.10641" stroke-miterlimit="10"/>
<path d="M434.106 541.239L433.98 612.228" stroke="#F25E5E" stroke-width="2.10641" stroke-miterlimit="10"/>
<path d="M438.696 540.42L438.57 611.378" stroke="#F25E5E" stroke-width="2.10641" stroke-miterlimit="10"/>
<path d="M443.287 539.603L443.161 610.56" stroke="#F25E5E" stroke-width="2.10641" stroke-miterlimit="10"/>
<path d="M447.877 538.789L447.751 609.747" stroke="#F25E5E" stroke-width="2.10641" stroke-miterlimit="10"/>
<path d="M452.467 537.939L452.373 608.929" stroke="#F25E5E" stroke-width="2.10641" stroke-miterlimit="10"/>
<path d="M457.057 537.121L456.963 608.11" stroke="#F25E5E" stroke-width="2.10641" stroke-miterlimit="10"/>
<path d="M461.647 536.303L461.553 607.26" stroke="#F25E5E" stroke-width="2.10641" stroke-miterlimit="10"/>
<path d="M466.238 535.484L466.144 606.442" stroke="#F25E5E" stroke-width="2.10641" stroke-miterlimit="10"/>
<path d="M470.828 534.665L470.733 605.623" stroke="#F25E5E" stroke-width="2.10641" stroke-miterlimit="10"/>
<path d="M475.418 533.816L475.323 604.806" stroke="#F25E5E" stroke-width="2.10641" stroke-miterlimit="10"/>
<path d="M480.006 533.004L479.912 603.993" stroke="#F25E5E" stroke-width="2.10641" stroke-miterlimit="10"/>
<path d="M484.596 532.186L484.502 603.175" stroke="#F25E5E" stroke-width="2.10641" stroke-miterlimit="10"/>
<path d="M489.188 531.367L489.094 602.325" stroke="#F25E5E" stroke-width="2.10641" stroke-miterlimit="10"/>
<path d="M493.778 530.548L493.684 601.506" stroke="#F25E5E" stroke-width="2.10641" stroke-miterlimit="10"/>
<path d="M498.367 529.699L498.272 600.688" stroke="#F25E5E" stroke-width="2.10641" stroke-miterlimit="10"/>
<path d="M502.959 528.881L502.864 599.87" stroke="#F25E5E" stroke-width="2.10641" stroke-miterlimit="10"/>
<path d="M507.548 528.067L507.454 599.057" stroke="#F25E5E" stroke-width="2.10641" stroke-miterlimit="10"/>
<path d="M512.137 527.25L512.043 598.208" stroke="#F25E5E" stroke-width="2.10641" stroke-miterlimit="10"/>
<path d="M516.759 526.431L516.633 597.388" stroke="#F25E5E" stroke-width="2.10641" stroke-miterlimit="10"/>
<path d="M521.348 525.612L521.223 596.57" stroke="#F25E5E" stroke-width="2.10641" stroke-miterlimit="10"/>
<path d="M525.939 524.764L525.813 595.753" stroke="#F25E5E" stroke-width="2.10641" stroke-miterlimit="10"/>
<path d="M530.53 523.944L530.404 594.934" stroke="#F25E5E" stroke-width="2.10641" stroke-miterlimit="10"/>
<path d="M535.121 523.132L534.995 594.09" stroke="#F25E5E" stroke-width="2.10641" stroke-miterlimit="10"/>
<path d="M539.71 522.313L539.584 593.271" stroke="#F25E5E" stroke-width="2.10641" stroke-miterlimit="10"/>
<path d="M544.3 521.495L544.174 592.453" stroke="#F25E5E" stroke-width="2.10641" stroke-miterlimit="10"/>
<path d="M548.889 520.646L548.764 591.636" stroke="#F25E5E" stroke-width="2.10641" stroke-miterlimit="10"/>
<path d="M553.479 519.827L553.354 590.816" stroke="#F25E5E" stroke-width="2.10641" stroke-miterlimit="10"/>
<path d="M558.07 519.009L557.944 589.967" stroke="#F25E5E" stroke-width="2.10641" stroke-miterlimit="10"/>
<path d="M562.66 518.195L562.534 589.153" stroke="#F25E5E" stroke-width="2.10641" stroke-miterlimit="10"/>
<path d="M567.251 517.377L567.125 588.335" stroke="#F25E5E" stroke-width="2.10641" stroke-miterlimit="10"/>
<path d="M571.841 516.528L571.715 587.518" stroke="#F25E5E" stroke-width="2.10641" stroke-miterlimit="10"/>
<path d="M576.43 515.71L576.305 586.699" stroke="#F25E5E" stroke-width="2.10641" stroke-miterlimit="10"/>
<path d="M581.02 514.892L580.895 585.881" stroke="#F25E5E" stroke-width="2.10641" stroke-miterlimit="10"/>
<path d="M585.61 514.072L585.484 585.03" stroke="#F25E5E" stroke-width="2.10641" stroke-miterlimit="10"/>
<path d="M590.201 513.26L590.075 584.217" stroke="#F25E5E" stroke-width="2.10641" stroke-miterlimit="10"/>
<path d="M594.791 512.411L594.665 583.4" stroke="#F25E5E" stroke-width="2.10641" stroke-miterlimit="10"/>
<path d="M599.381 511.592L599.255 582.581" stroke="#F25E5E" stroke-width="2.10641" stroke-miterlimit="10"/>
<path d="M603.97 510.773L603.876 581.763" stroke="#F25E5E" stroke-width="2.10641" stroke-miterlimit="10"/>
<path d="M608.561 509.955L608.467 580.913" stroke="#F25E5E" stroke-width="2.10641" stroke-miterlimit="10"/>
<path d="M613.15 509.137L613.056 580.094" stroke="#F25E5E" stroke-width="2.10641" stroke-miterlimit="10"/>
<path d="M617.743 508.323L617.648 579.281" stroke="#F25E5E" stroke-width="2.10641" stroke-miterlimit="10"/>
<path d="M622.333 507.475L622.238 578.464" stroke="#F25E5E" stroke-width="2.10641" stroke-miterlimit="10"/>
<path d="M626.922 506.656L626.828 577.645" stroke="#F25E5E" stroke-width="2.10641" stroke-miterlimit="10"/>
<path d="M631.512 505.838L631.418 576.796" stroke="#F25E5E" stroke-width="2.10641" stroke-miterlimit="10"/>
<path d="M636.101 505.02L636.007 575.977" stroke="#F25E5E" stroke-width="2.10641" stroke-miterlimit="10"/>
<path d="M640.692 504.201L640.598 575.159" stroke="#F25E5E" stroke-width="2.10641" stroke-miterlimit="10"/>
<path d="M645.283 503.352L645.188 574.341" stroke="#F25E5E" stroke-width="2.10641" stroke-miterlimit="10"/>
<path d="M649.872 502.538L649.777 573.527" stroke="#F25E5E" stroke-width="2.10641" stroke-miterlimit="10"/>
<path d="M654.399 559.314L654.367 572.676" stroke="#F25E5E" stroke-width="2.10641" stroke-miterlimit="10"/>
<path d="M654.463 501.72V516.905" stroke="#F25E5E" stroke-width="2.10641" stroke-miterlimit="10"/>
<path d="M658.99 558.496L658.959 571.858" stroke="#F25E5E" stroke-width="2.10641" stroke-miterlimit="10"/>
<path d="M659.053 500.902V516.087" stroke="#F25E5E" stroke-width="2.10641" stroke-miterlimit="10"/>
<defs>
<linearGradient id="paint0_linear_1397_2870" x1="802.673" y1="189.949" x2="237.562" y2="888.683" gradientUnits="userSpaceOnUse">
<stop stop-color="#B568F5"/>
<stop offset="0.451923" stop-color="#7D90F1"/>
<stop offset="0.644231" stop-color="#7BF197"/>
<stop offset="1" stop-color="#CCFE5E"/>
</linearGradient>
</defs>
</svg>
