<svg width="200" height="200" viewBox="0 0 200 200" fill="none" xmlns="http://www.w3.org/2000/svg">
<mask id="path-1-outside-1_1347_4416" maskUnits="userSpaceOnUse" x="24.2878" y="25.2852" width="150" height="149" fill="black">
<rect fill="white" x="24.2878" y="25.2852" width="150" height="149"/>
<path d="M120.406 32.3047C121.936 32.366 123.533 32.5752 125.177 32.9277C126.118 33.1292 127.073 33.378 128.041 33.6719C130.217 34.3329 132.455 35.2243 134.712 36.3359C135.213 36.5829 135.716 36.8409 136.219 37.1094C136.722 37.378 137.225 37.6573 137.729 37.9473C138.233 38.2373 138.737 38.5376 139.241 38.8486C139.493 39.0041 139.744 39.1625 139.996 39.3232C140.499 39.6446 141.001 39.9763 141.503 40.3184C142.004 40.6605 142.505 41.0134 143.004 41.376C143.503 41.7384 144 42.1105 144.496 42.4932C145.239 43.0672 145.978 43.6645 146.711 44.2832C147.2 44.6958 147.686 45.1177 148.17 45.5498C148.411 45.7657 148.651 45.9844 148.891 46.2051C149.611 46.8677 150.324 47.5522 151.028 48.2578C154.933 51.9513 158.25 56.1821 160.895 60.8008C167.956 72.639 169.203 84.5491 162.997 90.7285L90.0593 163.666C83.0594 170.666 62.7488 166.604 47.697 151.589C34.4533 138.377 29.7475 121.038 33.5759 112.295C33.5869 112.27 33.598 112.245 33.6091 112.22C33.734 111.94 33.867 111.669 34.0095 111.407C34.0456 111.341 34.0826 111.275 34.1199 111.21C34.1468 111.163 34.1734 111.116 34.2009 111.069C34.2688 110.955 34.3384 110.842 34.4099 110.731C34.4357 110.692 34.4627 110.653 34.489 110.613C34.5465 110.527 34.605 110.442 34.6648 110.358C34.6879 110.326 34.7107 110.294 34.7341 110.262C34.8129 110.154 34.8928 110.048 34.9753 109.945C34.9994 109.915 35.0242 109.886 35.0486 109.856C35.121 109.768 35.195 109.682 35.2703 109.598C35.2882 109.577 35.3059 109.557 35.324 109.537C35.4201 109.431 35.5182 109.327 35.6189 109.227L108.556 36.2891C111.317 33.5161 115.223 32.2305 119.755 32.2871C119.97 32.2898 120.188 32.2959 120.406 32.3047Z"/>
</mask>
<path d="M120.406 32.3047C121.936 32.366 123.533 32.5752 125.177 32.9277C126.118 33.1292 127.073 33.378 128.041 33.6719C130.217 34.3329 132.455 35.2243 134.712 36.3359C135.213 36.5829 135.716 36.8409 136.219 37.1094C136.722 37.378 137.225 37.6573 137.729 37.9473C138.233 38.2373 138.737 38.5376 139.241 38.8486C139.493 39.0041 139.744 39.1625 139.996 39.3232C140.499 39.6446 141.001 39.9763 141.503 40.3184C142.004 40.6605 142.505 41.0134 143.004 41.376C143.503 41.7384 144 42.1105 144.496 42.4932C145.239 43.0672 145.978 43.6645 146.711 44.2832C147.2 44.6958 147.686 45.1177 148.17 45.5498C148.411 45.7657 148.651 45.9844 148.891 46.2051C149.611 46.8677 150.324 47.5522 151.028 48.2578C154.933 51.9513 158.25 56.1821 160.895 60.8008C167.956 72.639 169.203 84.5491 162.997 90.7285L90.0593 163.666C83.0594 170.666 62.7488 166.604 47.697 151.589C34.4533 138.377 29.7475 121.038 33.5759 112.295C33.5869 112.27 33.598 112.245 33.6091 112.22C33.734 111.94 33.867 111.669 34.0095 111.407C34.0456 111.341 34.0826 111.275 34.1199 111.21C34.1468 111.163 34.1734 111.116 34.2009 111.069C34.2688 110.955 34.3384 110.842 34.4099 110.731C34.4357 110.692 34.4627 110.653 34.489 110.613C34.5465 110.527 34.605 110.442 34.6648 110.358C34.6879 110.326 34.7107 110.294 34.7341 110.262C34.8129 110.154 34.8928 110.048 34.9753 109.945C34.9994 109.915 35.0242 109.886 35.0486 109.856C35.121 109.768 35.195 109.682 35.2703 109.598C35.2882 109.577 35.3059 109.557 35.324 109.537C35.4201 109.431 35.5182 109.327 35.6189 109.227L108.556 36.2891C111.317 33.5161 115.223 32.2305 119.755 32.2871C119.97 32.2898 120.188 32.2959 120.406 32.3047Z" fill="#6DA5E5"/>
<path d="M120.406 32.3047L120.686 25.3103L120.686 25.3103L120.406 32.3047ZM125.177 32.9277L123.71 39.7722L123.71 39.7723L125.177 32.9277ZM128.041 33.6719L130.075 26.974L130.075 26.974L128.041 33.6719ZM134.712 36.3359L131.619 42.6157L131.619 42.6157L134.712 36.3359ZM136.219 37.1094L139.515 30.9342L139.515 30.9342L136.219 37.1094ZM137.729 37.9473L134.238 44.0143L134.238 44.0143L137.729 37.9473ZM139.241 38.8486L142.919 32.893L142.919 32.893L139.241 38.8486ZM139.996 39.3232L136.227 45.222L136.227 45.222L139.996 39.3232ZM141.503 40.3184L145.448 34.5358L145.448 34.5358L141.503 40.3184ZM143.004 41.376L138.889 47.039L138.889 47.039L143.004 41.376ZM144.496 42.4932L148.774 36.9529L148.774 36.9529L144.496 42.4932ZM146.711 44.2832L142.196 49.6329L142.196 49.6329L146.711 44.2832ZM148.17 45.5498L152.836 40.3317L152.836 40.3317L148.17 45.5498ZM148.891 46.2051L144.151 51.3561L144.151 51.3561L148.891 46.2051ZM151.028 48.2578L146.072 53.2016C146.12 53.2494 146.169 53.2966 146.218 53.343L151.028 48.2578ZM160.895 60.8008L154.821 64.2797C154.841 64.3155 154.862 64.3512 154.883 64.3866L160.895 60.8008ZM162.997 90.7285L158.058 85.7682C158.054 85.7717 158.051 85.7752 158.047 85.7788L162.997 90.7285ZM90.0593 163.666L85.1096 158.716L90.0593 163.666ZM47.697 151.589L42.7532 156.545L42.7533 156.545L47.697 151.589ZM33.5759 112.295L39.9882 115.103L39.991 115.096L33.5759 112.295ZM33.6091 112.22L27.2162 109.368L27.2133 109.375L33.6091 112.22ZM34.0095 111.407L40.1562 114.757L40.1591 114.751L34.0095 111.407ZM34.1199 111.21L28.0451 107.732L28.0423 107.737L34.1199 111.21ZM34.2009 111.069L40.2213 114.641L40.224 114.636L34.2009 111.069ZM34.4099 110.731L28.5331 106.928L28.5306 106.932L34.4099 110.731ZM34.489 110.613L40.3108 114.5L40.3132 114.496L34.489 110.613ZM34.6648 110.358L28.9699 106.288L28.9677 106.291L34.6648 110.358ZM34.7341 110.262L40.3778 114.403L40.3798 114.4L34.7341 110.262ZM34.9753 109.945L29.514 105.567L29.5124 105.569L34.9753 109.945ZM35.0486 109.856L40.4541 114.304L40.4556 114.302L35.0486 109.856ZM35.2703 109.598L30.0382 104.947L30.0373 104.948L35.2703 109.598ZM35.324 109.537L40.513 114.235L40.5138 114.234L35.324 109.537ZM35.6189 109.227L30.6691 104.277L30.6688 104.277L35.6189 109.227ZM108.556 36.2891L113.506 41.2388C113.51 41.2353 113.513 41.2317 113.517 41.2282L108.556 36.2891ZM119.755 32.2871L119.667 39.2866L119.667 39.2866L119.755 32.2871ZM120.406 32.3047L120.126 39.2991C121.217 39.3428 122.416 39.4947 123.71 39.7722L125.177 32.9277L126.645 26.0832C124.65 25.6557 122.655 25.3892 120.686 25.3103L120.406 32.3047ZM125.177 32.9277L123.71 39.7723C124.447 39.9302 125.213 40.1289 126.007 40.3698L128.041 33.6719L130.075 26.974C128.933 26.6271 127.788 26.3283 126.645 26.0832L125.177 32.9277ZM128.041 33.6719L126.007 40.3698C127.789 40.911 129.673 41.6571 131.619 42.6157L134.712 36.3359L137.804 30.0562C135.237 28.7915 132.646 27.7547 130.075 26.974L128.041 33.6719ZM134.712 36.3359L131.619 42.6157C132.05 42.8278 132.484 43.0508 132.922 43.2845L136.219 37.1094L139.515 30.9342C138.947 30.6309 138.377 30.338 137.804 30.0562L134.712 36.3359ZM136.219 37.1094L132.922 43.2845C133.359 43.5178 133.798 43.7611 134.238 44.0143L137.729 37.9473L141.221 31.8802C140.653 31.5536 140.085 31.2382 139.515 30.9342L136.219 37.1094ZM137.729 37.9473L134.238 44.0143C134.68 44.269 135.122 44.5322 135.563 44.8043L139.241 38.8486L142.919 32.893C142.353 32.5429 141.786 32.2055 141.221 31.8802L137.729 37.9473ZM139.241 38.8486L135.563 44.8043C135.78 44.9386 136.001 45.0778 136.227 45.222L139.996 39.3232L143.765 33.4245C143.487 33.2472 143.205 33.0697 142.919 32.893L139.241 38.8486ZM139.996 39.3232L136.227 45.222C136.671 45.5056 137.115 45.7985 137.558 46.1009L141.503 40.3184L145.448 34.5358C144.888 34.1541 144.327 33.7836 143.765 33.4245L139.996 39.3232ZM141.503 40.3184L137.558 46.1009C137.999 46.402 138.443 46.7148 138.889 47.039L143.004 41.376L147.118 35.713C146.566 35.3119 146.009 34.9191 145.448 34.5358L141.503 40.3184ZM143.004 41.376L138.889 47.039C139.337 47.3642 139.78 47.6954 140.217 48.0334L144.496 42.4932L148.774 36.9529C148.221 36.5257 147.668 36.1127 147.118 35.7129L143.004 41.376ZM144.496 42.4932L140.217 48.0334C140.876 48.5424 141.536 49.0759 142.196 49.6329L146.711 44.2832L151.225 38.9335C150.419 38.2531 149.602 37.592 148.774 36.9529L144.496 42.4932ZM146.711 44.2832L142.196 49.6329C142.638 50.0057 143.074 50.3837 143.504 50.768L148.17 45.5498L152.836 40.3317C152.299 39.8517 151.761 39.3859 151.225 38.9335L146.711 44.2832ZM148.17 45.5498L143.504 50.7679C143.716 50.9574 143.931 51.1532 144.151 51.3561L148.891 46.2051L153.631 41.054C153.372 40.8155 153.107 40.574 152.836 40.3317L148.17 45.5498ZM148.891 46.2051L144.151 51.3561C144.798 51.9506 145.438 52.566 146.072 53.2016L151.028 48.2578L155.984 43.314C155.21 42.5384 154.425 41.7848 153.631 41.054L148.891 46.2051ZM151.028 48.2578L146.218 53.343C149.621 56.5627 152.514 60.2514 154.821 64.2797L160.895 60.8008L166.97 57.3219C163.986 52.1127 160.244 47.3399 155.839 43.1726L151.028 48.2578ZM160.895 60.8008L154.883 64.3866C158.019 69.6428 159.632 74.5497 159.943 78.4451C160.255 82.3351 159.265 84.5662 158.058 85.7682L162.997 90.7285L167.936 95.6888C172.935 90.7114 174.425 83.8978 173.899 77.3284C173.374 70.7643 170.833 63.7971 166.907 57.2149L160.895 60.8008ZM162.997 90.7285L158.047 85.7788L85.1096 158.716L90.0593 163.666L95.0091 168.616L167.947 95.6783L162.997 90.7285ZM90.0593 163.666L85.1096 158.716C84.8084 159.017 83.8938 159.643 81.7826 159.892C79.7104 160.137 76.9336 159.952 73.6432 159.104C67.0669 157.411 59.3183 153.295 52.6408 146.633L47.697 151.589L42.7533 156.545C51.1275 164.899 61.06 170.321 70.152 172.662C74.6957 173.832 79.2498 174.288 83.4249 173.795C87.561 173.307 91.8103 171.815 95.0091 168.616L90.0593 163.666ZM47.697 151.589L52.6408 146.633C46.7842 140.791 42.8827 134.091 40.877 128.058C38.7849 121.765 39.0609 117.22 39.9881 115.103L33.5759 112.295L27.1637 109.487C24.2625 116.113 24.9771 124.609 27.5918 132.474C30.2928 140.599 35.3661 149.175 42.7532 156.545L47.697 151.589ZM33.5759 112.295L39.991 115.096C39.9923 115.093 39.9957 115.085 40.005 115.065L33.6091 112.22L27.2133 109.375C27.2003 109.404 27.1815 109.446 27.1608 109.494L33.5759 112.295ZM33.6091 112.22L40.0021 115.071C40.0583 114.945 40.1101 114.841 40.1562 114.757L34.0095 111.407L27.8628 108.058C27.624 108.496 27.4096 108.935 27.2162 109.368L33.6091 112.22ZM34.0095 111.407L40.1591 114.751C40.1631 114.744 40.1737 114.725 40.1974 114.683L34.1199 111.21L28.0423 107.737C27.9915 107.826 27.9282 107.938 27.86 108.063L34.0095 111.407ZM34.1199 111.21L40.1947 114.688C40.2047 114.671 40.2144 114.653 40.2202 114.643C40.2271 114.631 40.2305 114.625 40.2333 114.62C40.2388 114.611 40.2329 114.621 40.2213 114.641L34.2009 111.069L28.1806 107.498C28.1414 107.564 28.1085 107.621 28.0871 107.658C28.0764 107.677 28.0664 107.695 28.0598 107.706C28.0522 107.719 28.0485 107.726 28.0451 107.732L34.1199 111.21ZM34.2009 111.069L40.224 114.636C40.2471 114.597 40.2689 114.562 40.2892 114.531L34.4099 110.731L28.5306 106.932C28.4079 107.122 28.2904 107.312 28.1779 107.502L34.2009 111.069ZM34.4099 110.731L40.2867 114.534C40.2729 114.556 40.2622 114.572 40.2563 114.581C40.2505 114.59 40.2474 114.594 40.2498 114.591C40.251 114.589 40.2526 114.586 40.2558 114.582C40.2585 114.578 40.2633 114.571 40.268 114.564C40.2776 114.549 40.293 114.527 40.3108 114.5L34.489 110.613L28.6673 106.726C28.6719 106.72 28.674 106.716 28.6704 106.722C28.6685 106.725 28.6666 106.727 28.6627 106.733C28.6593 106.738 28.6542 106.746 28.6488 106.754C28.6287 106.783 28.5845 106.849 28.5331 106.928L34.4099 110.731ZM34.489 110.613L40.3132 114.496C40.3314 114.469 40.3476 114.446 40.3619 114.426L34.6648 110.358L28.9677 106.291C28.8625 106.438 28.7616 106.585 28.6649 106.73L34.489 110.613ZM34.6648 110.358L40.3597 114.429C40.3702 114.414 40.3797 114.401 40.3855 114.393C40.3888 114.388 40.3909 114.385 40.3931 114.382C40.3951 114.379 40.3963 114.377 40.3971 114.376C40.3989 114.374 40.3976 114.376 40.3946 114.38C40.3915 114.384 40.3857 114.392 40.3777 114.403L34.7341 110.262L29.0905 106.121C29.0522 106.173 29.0203 106.217 29.0016 106.244C28.9584 106.304 28.9943 106.254 28.9699 106.288L34.6648 110.358ZM34.7341 110.262L40.3798 114.4C40.423 114.341 40.4391 114.321 40.4383 114.322L34.9753 109.945L29.5124 105.569C29.3464 105.776 29.2028 105.967 29.0885 106.123L34.7341 110.262ZM34.9753 109.945L40.4367 114.324C40.4227 114.342 40.4117 114.355 40.4054 114.363C40.3993 114.37 40.3958 114.374 40.3976 114.372C40.3985 114.371 40.3999 114.369 40.4028 114.366C40.4051 114.363 40.4096 114.358 40.4139 114.353C40.4228 114.342 40.4373 114.324 40.4541 114.304L35.0486 109.856L29.643 105.409C29.6477 105.403 29.65 105.401 29.6466 105.405C29.6448 105.407 29.6431 105.409 29.6393 105.413C29.6361 105.417 29.6313 105.423 29.626 105.429C29.6068 105.452 29.5641 105.504 29.514 105.567L34.9753 109.945ZM35.0486 109.856L40.4556 114.302C40.4622 114.294 40.477 114.276 40.5033 114.247L35.2703 109.598L30.0373 104.948C29.9131 105.088 29.7797 105.243 29.6416 105.411L35.0486 109.856ZM35.2703 109.598L40.5023 114.248C40.5157 114.233 40.5272 114.22 40.5341 114.212C40.5375 114.208 40.5409 114.204 40.5427 114.202C40.5449 114.2 40.5458 114.199 40.5465 114.198C40.5478 114.197 40.5447 114.2 40.5395 114.206C40.5342 114.212 40.525 114.222 40.513 114.235L35.324 109.537L30.1349 104.839C30.0946 104.883 30.0616 104.921 30.0476 104.937C30.0438 104.941 30.0403 104.945 30.038 104.947C30.0354 104.95 30.0343 104.952 30.0333 104.953C30.0313 104.955 30.0338 104.952 30.0382 104.947L35.2703 109.598ZM35.324 109.537L40.5138 114.234C40.5404 114.205 40.5586 114.186 40.569 114.176L35.6189 109.227L30.6688 104.277C30.4779 104.468 30.2998 104.657 30.1341 104.84L35.324 109.537ZM35.6189 109.227L40.5686 114.176L113.506 41.2388L108.556 36.2891L103.607 31.3393L30.6691 104.277L35.6189 109.227ZM108.556 36.2891L113.517 41.2282C114.602 40.1386 116.482 39.2468 119.667 39.2866L119.755 32.2871L119.842 25.2877C113.964 25.2142 108.033 26.8937 103.596 31.35L108.556 36.2891ZM119.755 32.2871L119.667 39.2866C119.81 39.2883 119.962 39.2925 120.126 39.2991L120.406 32.3047L120.686 25.3103C120.413 25.2994 120.131 25.2913 119.842 25.2877L119.755 32.2871Z" fill="white" mask="url(#path-1-outside-1_1347_4416)"/>
<path d="M151.028 48.2577C136.013 33.2059 116.971 27.8381 108.557 36.2888L35.6192 109.226C28.6192 116.226 32.6451 136.573 47.6968 151.589C62.7486 166.604 83.0594 170.667 90.0594 163.667L162.997 90.729C171.448 82.3146 166.08 63.2732 151.028 48.2577Z" fill="#4B9AE6"/>
<path d="M107.289 102.27C107.319 102.507 107.427 102.727 107.596 102.897C107.766 103.066 107.986 103.174 108.223 103.204C110.849 103.594 119.182 104.582 123.139 102.163C127.87 99.2653 127.876 94.5755 125.599 92.2986C124.895 91.6764 124.065 91.2124 123.166 90.938C122.267 90.6636 121.32 90.585 120.389 90.7077C120.309 90.7136 120.23 90.7023 120.155 90.6747C120.081 90.647 120.013 90.6037 119.957 90.5475C119.901 90.4914 119.858 90.4238 119.83 90.3494C119.803 90.275 119.791 90.1954 119.797 90.1163C119.92 89.1846 119.841 88.2374 119.567 87.3386C119.292 86.4398 118.828 85.6103 118.206 84.906C115.929 82.6291 111.222 82.6528 108.342 87.3662C105.911 91.3109 106.899 99.6438 107.289 102.27Z" fill="#F6A1A1"/>
<path d="M125.599 92.2986C124.895 91.6764 124.065 91.2124 123.166 90.938C122.267 90.6636 121.32 90.585 120.389 90.7077C120.309 90.7136 120.23 90.7023 120.155 90.6747C120.081 90.647 120.013 90.6037 119.957 90.5475C119.901 90.4914 119.858 90.4238 119.83 90.3494C119.803 90.275 119.791 90.1954 119.797 90.1163C119.92 89.1846 119.841 88.2374 119.567 87.3386C119.292 86.4398 118.828 85.6103 118.206 84.906C115.929 82.6291 111.222 82.6528 108.342 87.3662C107.804 88.2944 107.419 89.3027 107.2 90.3528C107.283 90.1754 107.354 89.9862 107.449 89.8206C109.696 85.941 113.67 86.1539 115.699 88.1824C116.925 89.4361 117.615 91.1184 117.621 92.8722C119.381 92.8628 121.074 93.542 122.34 94.7647C124.369 96.7932 124.599 100.785 120.702 103.015C120.536 103.109 120.347 103.18 120.17 103.263C121.211 103.055 122.213 102.683 123.139 102.163C127.876 99.2594 127.876 94.5755 125.599 92.2986Z" fill="#FFDDDD"/>
<path d="M79.2159 132.235C79.1858 131.998 79.0776 131.777 78.9085 131.608C78.7393 131.439 78.5188 131.331 78.2815 131.301C75.6557 130.911 67.3228 129.923 63.3663 132.342C58.635 135.24 58.6291 139.929 60.906 142.206C61.6103 142.829 62.4398 143.292 63.3386 143.567C64.2374 143.841 65.1846 143.92 66.1163 143.797C66.1955 143.791 66.275 143.803 66.3494 143.83C66.4238 143.858 66.4914 143.901 66.5475 143.957C66.6037 144.014 66.6471 144.081 66.6747 144.156C66.7023 144.23 66.7136 144.309 66.7077 144.389C66.5851 145.32 66.6636 146.268 66.938 147.166C67.2125 148.065 67.6764 148.895 68.2986 149.599C70.5755 151.876 75.2831 151.852 78.1632 147.139C80.5939 143.194 79.6062 134.861 79.2159 132.235Z" fill="#F6A1A1"/>
<path d="M60.906 142.206C61.6103 142.829 62.4398 143.292 63.3386 143.567C64.2374 143.841 65.1846 143.92 66.1163 143.797C66.1955 143.791 66.275 143.803 66.3494 143.83C66.4238 143.858 66.4914 143.901 66.5475 143.957C66.6037 144.014 66.6471 144.081 66.6747 144.156C66.7023 144.23 66.7136 144.309 66.7077 144.389C66.5851 145.32 66.6636 146.268 66.938 147.166C67.2125 148.065 67.6764 148.895 68.2986 149.599C70.5755 151.876 75.2831 151.852 78.1632 147.139C78.7008 146.21 79.0862 145.202 79.3046 144.152C79.2218 144.329 79.1508 144.519 79.0562 144.684C76.8089 148.564 72.8347 148.351 70.8061 146.322C69.5798 145.069 68.8903 143.386 68.8841 141.633C67.1242 141.642 65.4305 140.963 64.1647 139.74C62.1362 137.712 61.9055 133.72 65.8029 131.49C65.9685 131.395 66.1577 131.324 66.3351 131.242C65.2939 131.45 64.292 131.822 63.3663 132.342C58.6291 135.246 58.6291 139.929 60.906 142.206Z" fill="#FFDDDD"/>
<path d="M40.4432 128.884L115.738 53.5893C124.443 44.8846 143.702 49.9623 158.717 65.0504C161.541 67.8708 164.103 70.9421 166.37 74.2265C163.793 64.3026 158.477 55.3037 151.028 48.2577C136.013 33.2059 116.971 27.8381 108.557 36.2888L35.6193 109.226C30.7593 114.086 31.2308 125.402 37.0338 136.936C37.2367 133.946 38.4373 131.111 40.4432 128.884Z" fill="#8BBBF1"/>
<path d="M155.888 83.6198C150.303 89.2416 136.774 84.7442 125.64 73.6458C114.505 62.5474 110.044 48.9827 115.666 43.3972C121.287 37.8117 134.779 42.2728 145.914 53.3712C157.049 64.4696 161.474 78.0344 155.888 83.6198Z" fill="#DAEDF7"/>
<path d="M115.666 51.5578C121.251 45.9723 134.78 50.4334 145.914 61.5318C151.439 66.7698 155.501 73.3579 157.702 80.6457C159.987 74.0447 155.381 62.8375 145.914 53.3712C134.78 42.2728 121.251 37.8117 115.666 43.3972C114.426 44.9375 113.607 46.7733 113.289 48.7251C112.971 50.6768 113.165 52.6776 113.852 54.5319C114.226 53.417 114.846 52.4005 115.666 51.5578Z" fill="#C0DCEB"/>
<path d="M133.328 46.6255L126.909 53.154C124.261 55.8016 126.401 62.2576 131.732 67.6617C137.064 73.0658 143.484 75.1331 146.24 72.4855L152.66 65.957L133.328 46.6255Z" fill="#DAEDF7"/>
<path d="M131.588 60.1177L138.153 53.8793L151.536 67.2627L152.697 66.1021L133.329 46.6255L126.909 53.154C124.334 55.7291 126.329 61.9311 131.37 67.1902C130.732 66.1122 130.413 64.8747 130.451 63.6223C130.49 62.3699 130.884 61.1543 131.588 60.1177Z" fill="white"/>
<path d="M133.328 46.6255L126.909 53.154C124.261 55.8016 126.401 62.2576 131.732 67.6617C137.064 73.0658 143.484 75.1331 146.24 72.4855L152.66 65.957L133.328 46.6255Z" stroke="#6DA5E5" stroke-width="2.7202" stroke-linecap="round" stroke-linejoin="round"/>
<path d="M152.66 65.9573C149.976 68.605 143.556 66.4651 138.152 61.1698C132.748 55.8744 130.717 49.4185 133.365 46.662C136.012 43.9056 142.468 46.1905 147.872 51.4859C153.277 56.7812 155.199 63.3096 152.66 65.9573Z" fill="#DAEDF7"/>
<path d="M136.919 53.8794C139.566 51.1955 146.022 53.3716 151.426 58.6669C152.18 59.4404 152.894 60.2515 153.566 61.097C152.597 57.429 150.61 54.1098 147.836 51.5219C142.432 46.2628 135.976 44.0867 133.328 46.6255C130.68 49.1644 132.312 53.8794 135.976 58.5944C135.734 57.7914 135.694 56.9414 135.858 56.1192C136.023 55.2969 136.387 54.5278 136.919 53.8794Z" fill="white"/>
<path d="M152.66 65.9573C149.976 68.605 143.556 66.4651 138.152 61.1698C132.748 55.8744 130.717 49.4185 133.365 46.662C136.012 43.9056 142.468 46.1905 147.872 51.4859C153.277 56.7812 155.199 63.3096 152.66 65.9573Z" stroke="#6DA5E5" stroke-width="2.7202" stroke-linecap="round" stroke-linejoin="round"/>
</svg>
