<svg width="200" height="200" viewBox="0 0 200 200" fill="none" xmlns="http://www.w3.org/2000/svg">
<mask id="path-1-outside-1_1062_21444" maskUnits="userSpaceOnUse" x="14" y="14" width="173" height="173" fill="black">
<rect fill="white" x="14" y="14" width="173" height="173"/>
<path d="M100.374 20C142.907 20.0001 177.596 52.8353 180.544 94.6025C180.549 94.6722 180.554 94.7418 180.559 94.8115C180.583 95.1641 180.604 95.5173 180.623 95.8711C180.629 95.9775 180.636 96.0839 180.642 96.1904C180.662 96.5907 180.68 96.9917 180.694 97.3936C180.7 97.5594 180.705 97.7255 180.71 97.8916C180.716 98.1004 180.722 98.3094 180.727 98.5186C180.732 98.7673 180.737 99.0163 180.74 99.2656C180.742 99.3928 180.743 99.5201 180.744 99.6475C180.746 99.8897 180.75 100.132 180.75 100.375V104.126C180.721 104.108 180.691 104.09 180.662 104.072C180.011 118.515 175.565 132.151 168.157 143.51C168.103 143.395 168.048 143.28 167.994 143.165C164.815 148.241 161.054 152.984 156.751 157.287C141.728 172.31 121.353 180.75 100.107 180.75C78.8617 180.75 58.4859 172.31 43.4629 157.287C28.4399 142.264 20 121.888 20 100.643C20 89.3629 22.3784 78.3283 26.8584 68.21C26.805 68.215 26.7516 68.2196 26.6982 68.2246C33.1283 53.4894 43.8448 41.1651 56.9727 32.5918C57.0703 32.5911 57.168 32.5914 57.2656 32.5908C69.6963 24.6162 84.6501 20 100.374 20Z"/>
</mask>
<path d="M100.374 20C142.907 20.0001 177.596 52.8353 180.544 94.6025C180.549 94.6722 180.554 94.7418 180.559 94.8115C180.583 95.1641 180.604 95.5173 180.623 95.8711C180.629 95.9775 180.636 96.0839 180.642 96.1904C180.662 96.5907 180.68 96.9917 180.694 97.3936C180.7 97.5594 180.705 97.7255 180.71 97.8916C180.716 98.1004 180.722 98.3094 180.727 98.5186C180.732 98.7673 180.737 99.0163 180.74 99.2656C180.742 99.3928 180.743 99.5201 180.744 99.6475C180.746 99.8897 180.75 100.132 180.75 100.375V104.126C180.721 104.108 180.691 104.09 180.662 104.072C180.011 118.515 175.565 132.151 168.157 143.51C168.103 143.395 168.048 143.28 167.994 143.165C164.815 148.241 161.054 152.984 156.751 157.287C141.728 172.31 121.353 180.75 100.107 180.75C78.8617 180.75 58.4859 172.31 43.4629 157.287C28.4399 142.264 20 121.888 20 100.643C20 89.3629 22.3784 78.3283 26.8584 68.21C26.805 68.215 26.7516 68.2196 26.6982 68.2246C33.1283 53.4894 43.8448 41.1651 56.9727 32.5918C57.0703 32.5911 57.168 32.5914 57.2656 32.5908C69.6963 24.6162 84.6501 20 100.374 20Z" fill="#D7E8FC"/>
<path d="M100.374 20L100.374 14H100.374V20ZM180.544 94.6025L174.559 95.0249L174.559 95.0295L180.544 94.6025ZM180.559 94.8115L186.545 94.4045L186.544 94.4001L180.559 94.8115ZM180.623 95.8711L174.632 96.2001L174.632 96.2038L180.623 95.8711ZM180.642 96.1904L186.634 95.8849L186.634 95.8814L180.642 96.1904ZM180.694 97.3936L174.698 97.6109L174.698 97.6135L180.694 97.3936ZM180.71 97.8916L186.707 97.7107L186.707 97.7085L180.71 97.8916ZM180.727 98.5186L174.728 98.6537L174.728 98.6553L180.727 98.5186ZM180.74 99.2656L186.74 99.185L186.74 99.1839L180.74 99.2656ZM180.744 99.6475L174.744 99.7003L174.744 99.701L180.744 99.6475ZM180.75 100.375L186.75 100.375L186.75 100.375L180.75 100.375ZM180.75 104.126L177.603 109.234C179.454 110.375 181.777 110.425 183.676 109.364C185.574 108.304 186.75 106.3 186.75 104.126H180.75ZM180.662 104.072L183.807 98.9625C181.997 97.8485 179.733 97.7752 177.854 98.7698C175.976 99.7645 174.764 101.679 174.668 103.802L180.662 104.072ZM168.157 143.51L162.721 146.049C163.643 148.022 165.562 149.341 167.735 149.495C169.908 149.648 171.993 148.612 173.183 146.787L168.157 143.51ZM167.994 143.165L173.426 140.616C172.493 138.628 170.548 137.308 168.356 137.176C166.164 137.044 164.075 138.119 162.909 139.98L167.994 143.165ZM156.751 157.287L160.994 161.53L160.994 161.53L156.751 157.287ZM100.107 180.75L100.107 186.75L100.107 186.75L100.107 180.75ZM43.4629 157.287L39.2202 161.53L39.2203 161.53L43.4629 157.287ZM20 100.643L14 100.643V100.643H20ZM26.8584 68.21L32.3447 70.6391C33.2068 68.692 32.9723 66.4338 31.7285 64.7054C30.4847 62.9769 28.4179 62.0373 26.2978 62.2362L26.8584 68.21ZM26.6982 68.2246L21.199 65.8249C20.3494 67.772 20.5927 70.0232 21.8387 71.7438C23.0847 73.4644 25.1477 74.3978 27.2627 74.198L26.6982 68.2246ZM56.9727 32.5918L56.9313 26.5919C55.7802 26.5999 54.6557 26.9388 53.6919 27.5682L56.9727 32.5918ZM57.2656 32.5908L57.2997 38.5907C58.4367 38.5843 59.5484 38.2549 60.5054 37.6409L57.2656 32.5908ZM100.374 20L100.374 26C139.737 26.0001 171.832 56.3794 174.559 95.0249L180.544 94.6025L186.529 94.1802C183.361 49.2911 146.077 14.0001 100.374 14L100.374 20ZM180.544 94.6025L174.559 95.0295C174.564 95.0947 174.568 95.1591 174.573 95.2229L180.559 94.8115L186.544 94.4001C186.539 94.3246 186.534 94.2497 186.529 94.1756L180.544 94.6025ZM180.559 94.8115L174.572 95.2185C174.594 95.5382 174.614 95.8644 174.632 96.2001L180.623 95.8711L186.614 95.5421C186.594 95.1702 186.571 94.7899 186.545 94.4045L180.559 94.8115ZM180.623 95.8711L174.632 96.2038C174.646 96.4499 174.642 96.3618 174.65 96.4995L180.642 96.1904L186.634 95.8814C186.629 95.7997 186.625 95.7237 186.622 95.6691C186.618 95.6071 186.616 95.5731 186.614 95.5384L180.623 95.8711ZM180.642 96.1904L174.649 96.496C174.668 96.8695 174.685 97.241 174.698 97.6109L180.694 97.3936L186.69 97.1762C186.675 96.7425 186.656 96.3119 186.634 95.8849L180.642 96.1904ZM180.694 97.3936L174.698 97.6135C174.704 97.7549 174.707 97.8795 174.713 98.0747L180.71 97.8916L186.707 97.7085C186.703 97.5714 186.697 97.3639 186.69 97.1736L180.694 97.3936ZM180.71 97.8916L174.713 98.0725C174.719 98.2677 174.724 98.4613 174.728 98.6537L180.727 98.5186L186.725 98.3834C186.72 98.1574 186.714 97.9331 186.707 97.7107L180.71 97.8916ZM180.727 98.5186L174.728 98.6553C174.733 98.8868 174.738 99.1175 174.741 99.3473L180.74 99.2656L186.74 99.1839C186.736 98.9151 186.731 98.6477 186.725 98.3818L180.727 98.5186ZM180.74 99.2656L174.741 99.3463C174.742 99.4566 174.743 99.5683 174.744 99.7003L180.744 99.6475L186.744 99.5946C186.743 99.4719 186.742 99.3291 186.74 99.185L180.74 99.2656ZM180.744 99.6475L174.744 99.701C174.747 99.9946 174.75 100.167 174.75 100.375L180.75 100.375L186.75 100.375C186.75 100.097 186.746 99.7849 186.744 99.5939L180.744 99.6475ZM180.75 100.375H174.75V104.126H180.75H186.75V100.375H180.75ZM180.75 104.126L183.897 99.0175C183.867 98.999 183.839 98.982 183.826 98.9742C183.809 98.9636 183.807 98.9625 183.807 98.9625L180.662 104.072L177.517 109.182C177.546 109.2 177.574 109.217 177.586 109.224C177.602 109.234 177.604 109.235 177.603 109.234L180.75 104.126ZM180.662 104.072L174.668 103.802C174.064 117.193 169.943 129.787 163.132 140.232L168.157 143.51L173.183 146.787C181.187 134.514 185.957 119.837 186.656 104.343L180.662 104.072ZM168.157 143.51L173.594 140.971C173.557 140.892 173.521 140.817 173.494 140.761C173.465 140.698 173.445 140.656 173.426 140.616L167.994 143.165L162.563 145.714C162.699 146.005 162.626 145.845 162.721 146.049L168.157 143.51ZM167.994 143.165L162.909 139.98C159.968 144.677 156.488 149.065 152.508 153.044L156.751 157.287L160.994 161.53C165.62 156.904 169.662 151.805 173.079 146.35L167.994 143.165ZM156.751 157.287L152.508 153.044C138.611 166.942 119.762 174.75 100.107 174.75L100.107 180.75L100.107 186.75C122.944 186.75 144.846 177.678 160.994 161.53L156.751 157.287ZM100.107 180.75V174.75C80.453 174.75 61.6033 166.942 47.7055 153.044L43.4629 157.287L39.2203 161.53C55.3685 177.678 77.2704 186.75 100.107 186.75V180.75ZM43.4629 157.287L47.7055 153.044C33.8078 139.147 26 120.297 26 100.643H20H14C14 123.48 23.072 145.382 39.2202 161.53L43.4629 157.287ZM20 100.643L26 100.643C26 90.2075 28.2001 79.9997 32.3447 70.6391L26.8584 68.21L21.3721 65.7808C16.5566 76.6569 14 88.5183 14 100.643L20 100.643ZM26.8584 68.21L26.2978 62.2362C26.2843 62.2375 26.2693 62.2388 26.2398 62.2415C26.2143 62.2438 26.1753 62.2473 26.1338 62.2512L26.6982 68.2246L27.2627 74.198C27.4822 74.1773 27.1354 74.2103 27.419 74.1837L26.8584 68.21ZM26.6982 68.2246L32.1975 70.6243C38.1418 57.002 48.0672 45.5738 60.2534 37.6154L56.9727 32.5918L53.6919 27.5682C39.6225 36.7563 28.1147 49.9767 21.199 65.8249L26.6982 68.2246ZM56.9727 32.5918L57.014 38.5917C57.2035 38.5903 57.0394 38.5922 57.2997 38.5907L57.2656 32.5908L57.2315 26.5909C57.1967 26.5911 57.1606 26.5912 57.108 26.5913C57.0599 26.5914 56.9971 26.5915 56.9313 26.5919L56.9727 32.5918ZM57.2656 32.5908L60.5054 37.6409C71.9899 30.2734 85.8228 26 100.374 26V20V14C83.4773 14 67.4027 18.9591 54.0258 27.5407L57.2656 32.5908Z" fill="white" mask="url(#path-1-outside-1_1062_21444)"/>
<path d="M20 100.643C20 121.888 28.4398 142.264 43.4628 157.287C58.4858 172.31 78.8614 180.75 100.107 180.75C121.353 180.75 141.728 172.31 156.751 157.287C171.774 142.264 180.214 121.888 180.214 100.643C180.214 79.397 171.774 59.0215 156.751 43.9985C141.728 28.9755 121.353 20.5356 100.107 20.5356C78.8614 20.5356 58.4858 28.9755 43.4628 43.9985C28.4398 59.0215 20 79.397 20 100.643Z" fill="#4B9AE8"/>
<path d="M115.627 126.788C113.189 133.742 100.805 141.587 93.3011 139.043C85.7973 136.498 80.9742 122.808 83.4188 115.856C85.8565 108.903 92.7482 104.932 103.945 108.73C115.272 112.576 118.072 119.837 115.627 126.788Z" fill="#EAC00F"/>
<path d="M133.719 116.033C142.565 116.033 149.735 108.862 149.735 100.017C149.735 91.1709 142.565 84 133.719 84C124.873 84 117.702 91.1709 117.702 100.017C117.702 108.862 124.873 116.033 133.719 116.033Z" fill="white"/>
<path d="M133.47 109.734C138.774 109.734 143.073 105.435 143.073 100.132C143.073 94.8289 138.774 90.5298 133.47 90.5298C128.167 90.5298 123.868 94.8289 123.868 100.132C123.868 105.435 128.167 109.734 133.47 109.734Z" fill="black"/>
<path d="M63.7598 114.033C72.6056 114.033 79.7765 106.862 79.7765 98.0167C79.7765 89.1709 72.6056 82 63.7598 82C54.9141 82 47.7432 89.1709 47.7432 98.0167C47.7432 106.862 54.9141 114.033 63.7598 114.033Z" fill="white"/>
<path d="M63.5115 107.734C68.8147 107.734 73.1138 103.435 73.1138 98.1321C73.1138 92.8289 68.8147 88.5298 63.5115 88.5298C58.2083 88.5298 53.9092 92.8289 53.9092 98.1321C53.9092 103.435 58.2083 107.734 63.5115 107.734Z" fill="black"/>
<path d="M100.374 20C84.2989 20 69.0276 24.8225 56.4355 33.1279C103.857 57.5083 145.384 94.7487 168.157 143.51C176.194 131.185 180.749 116.182 180.749 100.375C180.749 55.9008 144.848 20 100.374 20Z" fill="#B2C9E5"/>
<path d="M102.786 24.2866C88.0504 24.2866 74.3866 28.5733 62.8662 36.075C107.608 56.7045 147.528 87.7829 168.425 131.989C176.731 116.45 176.195 97.4279 176.195 97.4279C175.927 56.9725 143.241 24.2866 102.786 24.2866Z" fill="#D7E8FC"/>
<path d="M56.9728 32.5922C95.8207 32.3243 134.401 41.4334 169.23 58.848C176.464 70.9043 180.75 85.1038 180.75 100.375V104.126C134.665 75.736 80.5859 63.1331 26.6982 68.2251C33.1282 53.4897 43.8449 41.1655 56.9728 32.5922Z" fill="#B2C9E5"/>
<path d="M60.1887 36.3432C96.6254 36.0753 134.134 47.0598 166.82 62.0632C175.661 79.4778 176.197 93.9453 176.197 93.9453C131.99 70.6365 81.3542 58.8482 34.4688 63.4028C34.4688 63.4028 45.7213 42.5053 60.1887 36.3432Z" fill="#D7E8FC"/>
</svg>
