<svg width="200" height="200" viewBox="0 0 200 200" fill="none" xmlns="http://www.w3.org/2000/svg">
<mask id="path-1-outside-1_1347_9282" maskUnits="userSpaceOnUse" x="-3.094" y="16.5398" width="197.18" height="161.43" fill="black">
<rect fill="white" x="-3.094" y="16.5398" width="197.18" height="161.43"/>
<path d="M29.1005 138.388C33.1562 134.753 42.9177 135.537 48.2813 141.752C53.6448 147.967 52.3419 157.767 48.3019 161.205C45.3246 163.739 27.2924 168.272 18.1658 170.43C16.4684 170.848 14.3785 168.264 14.944 166.646C18.5293 158.02 25.8843 140.943 29.1005 138.388ZM110.713 38.9977C134.877 19.3102 162.046 28.2689 171.5 32.3962C172.601 32.8921 173.583 33.6196 174.378 34.5289C175.167 35.4614 175.731 36.5647 176.021 37.7514C178.586 47.7428 183.091 75.9554 159.954 96.6764C146.336 108.861 128.337 118.771 113.218 125.81C113.688 134.206 112.784 142.642 110.521 150.78C106.66 162.829 83.4788 162.906 72.3237 162.208C72.2874 162.206 72.2513 162.201 72.2151 162.198C72.1987 162.197 72.1823 162.196 72.1659 162.195C71.4954 162.146 70.8535 161.903 70.3205 161.493C70.3521 161.493 70.3838 161.492 70.4154 161.491C69.9989 161.168 69.661 160.753 69.4301 160.276C69.1634 159.726 69.0479 159.114 69.0967 158.504C69.1454 157.895 69.3563 157.309 69.7069 156.808L82.9151 137.389L83.0079 137.325L75.0962 128.03C68.1576 133.645 60.2129 137.892 51.6826 140.542C51.4284 140.622 51.1552 140.625 50.8995 140.55C50.6439 140.475 50.4161 140.325 50.2458 140.121C50.0754 139.916 49.9702 139.664 49.9429 139.399C49.9156 139.134 49.9678 138.867 50.0928 138.632C54.097 130.666 59.5752 123.535 66.2334 117.617L58.326 108.327L58.2682 108.388L36.9359 118.48C36.3852 118.746 35.7734 118.859 35.1637 118.81C34.5541 118.761 33.9685 118.55 33.4677 118.199C32.967 117.848 32.5689 117.37 32.3149 116.813C32.0609 116.257 31.9602 115.642 32.0229 115.034C33.1026 104.068 36.8954 81.0387 49.4199 78.9951C57.8736 78.0547 66.4049 78.5197 74.6714 80.3532C83.9756 66.5368 96.5526 50.3891 110.713 38.9977Z"/>
</mask>
<path d="M29.1005 138.388C33.1562 134.753 42.9177 135.537 48.2813 141.752C53.6448 147.967 52.3419 157.767 48.3019 161.205C45.3246 163.739 27.2924 168.272 18.1658 170.43C16.4684 170.848 14.3785 168.264 14.944 166.646C18.5293 158.02 25.8843 140.943 29.1005 138.388ZM110.713 38.9977C134.877 19.3102 162.046 28.2689 171.5 32.3962C172.601 32.8921 173.583 33.6196 174.378 34.5289C175.167 35.4614 175.731 36.5647 176.021 37.7514C178.586 47.7428 183.091 75.9554 159.954 96.6764C146.336 108.861 128.337 118.771 113.218 125.81C113.688 134.206 112.784 142.642 110.521 150.78C106.66 162.829 83.4788 162.906 72.3237 162.208C72.2874 162.206 72.2513 162.201 72.2151 162.198C72.1987 162.197 72.1823 162.196 72.1659 162.195C71.4954 162.146 70.8535 161.903 70.3205 161.493C70.3521 161.493 70.3838 161.492 70.4154 161.491C69.9989 161.168 69.661 160.753 69.4301 160.276C69.1634 159.726 69.0479 159.114 69.0967 158.504C69.1454 157.895 69.3563 157.309 69.7069 156.808L82.9151 137.389L83.0079 137.325L75.0962 128.03C68.1576 133.645 60.2129 137.892 51.6826 140.542C51.4284 140.622 51.1552 140.625 50.8995 140.55C50.6439 140.475 50.4161 140.325 50.2458 140.121C50.0754 139.916 49.9702 139.664 49.9429 139.399C49.9156 139.134 49.9678 138.867 50.0928 138.632C54.097 130.666 59.5752 123.535 66.2334 117.617L58.326 108.327L58.2682 108.388L36.9359 118.48C36.3852 118.746 35.7734 118.859 35.1637 118.81C34.5541 118.761 33.9685 118.55 33.4677 118.199C32.967 117.848 32.5689 117.37 32.3149 116.813C32.0609 116.257 31.9602 115.642 32.0229 115.034C33.1026 104.068 36.8954 81.0387 49.4199 78.9951C57.8736 78.0547 66.4049 78.5197 74.6714 80.3532C83.9756 66.5368 96.5526 50.3891 110.713 38.9977Z" fill="black"/>
<path d="M29.1005 138.388L32.8321 143.087C32.9254 143.013 33.0166 142.936 33.1054 142.856L29.1005 138.388ZM48.2813 141.752L52.8237 137.832L52.8236 137.832L48.2813 141.752ZM48.3019 161.205L52.1906 165.775L52.1909 165.774L48.3019 161.205ZM18.1658 170.43L16.785 164.591C16.7668 164.595 16.7487 164.6 16.7306 164.604L18.1658 170.43ZM14.944 166.646L9.40359 164.343C9.35921 164.449 9.31793 164.557 9.27979 164.666L14.944 166.646ZM110.713 38.9977L114.474 43.6727C114.484 43.6649 114.493 43.6571 114.503 43.6492L110.713 38.9977ZM171.5 32.3962L173.963 26.9251C173.942 26.9158 173.921 26.9066 173.901 26.8975L171.5 32.3962ZM174.378 34.5289L178.958 30.6524C178.937 30.6278 178.916 30.6033 178.895 30.5791L174.378 34.5289ZM176.021 37.7514L170.194 39.18C170.199 39.201 170.204 39.2219 170.21 39.2428L176.021 37.7514ZM159.954 96.6764L163.954 101.148L163.956 101.146L159.954 96.6764ZM113.218 125.81L110.685 120.371C108.459 121.407 107.09 123.695 107.227 126.146L113.218 125.81ZM110.521 150.78L116.235 152.61C116.259 152.537 116.281 152.462 116.302 152.387L110.521 150.78ZM72.3237 162.208L72.6987 156.22C72.689 156.219 72.6793 156.218 72.6696 156.218L72.3237 162.208ZM72.2151 162.198L72.7508 156.222C72.6965 156.217 72.6422 156.213 72.5878 156.21L72.2151 162.198ZM72.1659 162.195L71.731 168.179C71.7509 168.181 71.7709 168.182 71.7908 168.183L72.1659 162.195ZM70.3205 161.493L70.2726 155.493C67.7121 155.514 65.4467 157.157 64.6322 159.584C63.8177 162.012 64.6335 164.689 66.6634 166.25L70.3205 161.493ZM70.4154 161.491L70.4688 167.491C73.0231 167.468 75.2829 165.831 76.1001 163.411C76.9173 160.991 76.1126 158.318 74.095 156.752L70.4154 161.491ZM69.4301 160.276L64.0305 162.892L64.0305 162.892L69.4301 160.276ZM69.0967 158.504L63.1158 158.026L63.1158 158.026L69.0967 158.504ZM69.7069 156.808L74.6225 160.249C74.6379 160.227 74.653 160.205 74.6681 160.183L69.7069 156.808ZM82.9151 137.389L79.4987 132.456C78.8924 132.876 78.3687 133.405 77.9539 134.014L82.9151 137.389ZM83.0079 137.325L86.4244 142.257C87.8177 141.292 88.7378 139.782 88.9574 138.102C89.1769 136.421 88.6754 134.726 87.5768 133.435L83.0079 137.325ZM75.0962 128.03L79.6651 124.141C77.5549 121.662 73.8528 121.318 71.3221 123.366L75.0962 128.03ZM51.6826 140.542L49.9026 134.812C49.8942 134.815 49.8858 134.817 49.8774 134.82L51.6826 140.542ZM50.8995 140.55L49.2069 146.306L49.2089 146.307L50.8995 140.55ZM50.2458 140.121L45.6325 143.957L45.6334 143.958L50.2458 140.121ZM49.9429 139.399L43.9744 140.013L43.9745 140.015L49.9429 139.399ZM50.0928 138.632L55.391 141.448C55.4124 141.408 55.4332 141.367 55.4537 141.327L50.0928 138.632ZM66.2334 117.617L70.2196 122.101C72.6588 119.933 72.9177 116.213 70.8024 113.728L66.2334 117.617ZM58.326 108.327L62.8949 104.438C61.7883 103.138 60.1802 102.371 58.4734 102.329C56.7666 102.287 55.1228 102.974 53.9536 104.218L58.326 108.327ZM58.2682 108.388L60.8339 113.812C61.5132 113.491 62.126 113.045 62.6406 112.497L58.2682 108.388ZM36.9359 118.48L34.3702 113.056C34.3549 113.063 34.3396 113.07 34.3244 113.078L36.9359 118.48ZM35.1637 118.81L34.6804 124.791L34.6804 124.791L35.1637 118.81ZM33.4677 118.199L30.0224 123.111L30.0226 123.111L33.4677 118.199ZM32.3149 116.813L26.8566 119.305L26.8568 119.305L32.3149 116.813ZM32.0229 115.034L37.9913 115.649C37.9923 115.64 37.9932 115.631 37.9941 115.622L32.0229 115.034ZM49.4199 78.9951L48.7566 73.0319C48.6553 73.0431 48.5543 73.057 48.4537 73.0734L49.4199 78.9951ZM74.6714 80.3532L73.3722 86.2109C75.7805 86.745 78.2703 85.7508 79.6482 83.7046L74.6714 80.3532ZM29.1005 138.388L33.1054 142.856C33.3288 142.656 34.7247 141.939 37.3492 142.316C39.7586 142.661 42.1423 143.822 43.739 145.672L48.2813 141.752L52.8236 137.832C49.0566 133.467 43.8779 131.129 39.0517 130.437C34.4406 129.776 28.928 130.485 25.0957 133.92L29.1005 138.388ZM48.2813 141.752L43.7389 145.672C45.2322 147.402 45.9308 149.813 45.8237 152.257C45.7073 154.91 44.7339 156.363 44.4129 156.636L48.3019 161.205L52.1909 165.774C55.9098 162.609 57.6079 157.442 57.8121 152.783C58.0256 147.913 56.694 142.317 52.8237 137.832L48.2813 141.752ZM48.3019 161.205L44.4132 156.636C44.6803 156.409 44.6793 156.482 43.9934 156.802C43.4176 157.07 42.6137 157.396 41.5787 157.77C39.5148 158.517 36.8466 159.345 33.8921 160.189C28.0008 161.872 21.3137 163.52 16.785 164.591L18.1658 170.43L19.5465 176.269C24.1444 175.182 31.0367 173.484 37.1875 171.728C40.2541 170.852 43.2226 169.937 45.6624 169.054C46.8792 168.614 48.0437 168.153 49.0596 167.68C49.9653 167.258 51.1792 166.635 52.1906 165.775L48.3019 161.205ZM18.1658 170.43L16.7306 164.604C18.0329 164.283 19.0453 164.628 19.5079 164.855C19.9701 165.082 20.2084 165.332 20.314 165.458C20.4238 165.59 20.5833 165.82 20.7035 166.21C20.8143 166.569 21.0099 167.475 20.6082 168.625L14.944 166.646L9.27979 164.666C7.97726 168.394 9.86127 171.661 11.0986 173.144C12.3033 174.589 15.3983 177.291 19.6009 176.256L18.1658 170.43ZM14.944 166.646L20.4844 168.949C22.2657 164.663 24.9562 158.345 27.5814 152.812C28.8981 150.037 30.1564 147.55 31.2447 145.646C31.7902 144.692 32.2489 143.963 32.6119 143.45C33.0417 142.844 33.1132 142.863 32.8321 143.087L29.1005 138.388L25.369 133.69C24.2838 134.552 23.4219 135.664 22.8199 136.514C22.1511 137.458 21.4795 138.549 20.8272 139.69C19.5198 141.977 18.1122 144.776 16.74 147.668C13.9873 153.469 11.2076 160.002 9.40359 164.343L14.944 166.646ZM110.713 38.9977L114.503 43.6492C135.905 26.2122 160.127 33.9778 169.099 37.895L171.5 32.3962L173.901 26.8975C163.966 22.56 133.849 12.4083 106.923 34.3461L110.713 38.9977ZM171.5 32.3962L169.037 37.8673C169.352 38.0092 169.633 38.2177 169.862 38.4788L174.378 34.5289L178.895 30.5791C177.533 29.0215 175.851 27.775 173.963 26.9251L171.5 32.3962ZM174.378 34.5289L169.799 38.4055C169.989 38.631 170.125 38.8967 170.194 39.18L176.021 37.7514L181.849 36.3227C181.337 34.2327 180.346 32.2919 178.958 30.6524L174.378 34.5289ZM176.021 37.7514L170.21 39.2428C172.645 48.731 176.443 73.8553 155.951 92.2068L159.954 96.6764L163.956 101.146C189.74 78.0555 184.526 46.7546 181.833 36.2599L176.021 37.7514ZM159.954 96.6764L155.953 92.205C142.983 103.81 125.604 113.425 110.685 120.371L113.218 125.81L115.75 131.25C131.07 124.117 149.688 113.913 163.954 101.148L159.954 96.6764ZM113.218 125.81L107.227 126.146C107.661 133.889 106.828 141.668 104.74 149.172L110.521 150.78L116.302 152.387C118.741 143.615 119.716 134.523 119.208 125.475L113.218 125.81ZM110.521 150.78L104.807 148.949C104.417 150.167 103.475 151.391 101.463 152.568C99.3926 153.779 96.525 154.726 93.0523 155.377C86.1106 156.678 78.1103 156.558 72.6987 156.22L72.3237 162.208L71.9486 168.196C77.6922 168.556 86.8602 168.747 95.2632 167.172C99.4628 166.384 103.812 165.096 107.522 162.926C111.291 160.721 114.695 157.417 116.235 152.61L110.521 150.78ZM72.3237 162.208L72.6696 156.218C72.7274 156.221 72.7745 156.225 72.8063 156.228C72.8374 156.23 72.8599 156.232 72.8652 156.233C72.868 156.233 72.8693 156.233 72.8657 156.233C72.864 156.233 72.8548 156.232 72.8468 156.231C72.8295 156.229 72.7939 156.226 72.7508 156.222L72.2151 162.198L71.6795 168.174C71.6662 168.173 71.6556 168.172 71.6489 168.171C71.6422 168.17 71.6379 168.17 71.6377 168.17C71.6376 168.17 71.6379 168.17 71.6394 168.17C71.6427 168.171 71.641 168.17 71.6459 168.171C71.6513 168.171 71.6616 168.172 71.6735 168.174C71.7151 168.178 71.8324 168.189 71.9777 168.198L72.3237 162.208ZM72.2151 162.198L72.5878 156.21C72.5737 156.209 72.5616 156.208 72.5528 156.207C72.5444 156.207 72.5365 156.206 72.5333 156.206C72.5288 156.206 72.5286 156.206 72.5293 156.206C72.5304 156.206 72.5347 156.206 72.541 156.207L72.1659 162.195L71.7908 168.183C71.8053 168.184 71.8178 168.185 71.8271 168.185C71.8359 168.186 71.844 168.186 71.8477 168.187C71.8527 168.187 71.853 168.187 71.8528 168.187C71.8522 168.187 71.8483 168.187 71.8425 168.186L72.2151 162.198ZM72.1659 162.195L72.6008 156.211C73.0955 156.247 73.5752 156.427 73.9776 156.736L70.3205 161.493L66.6634 166.25C68.1318 167.379 69.8952 168.046 71.731 168.179L72.1659 162.195ZM70.3205 161.493L70.3685 167.493C70.4062 167.492 70.4383 167.492 70.4609 167.491C70.4824 167.491 70.5018 167.491 70.5083 167.49C70.5187 167.49 70.5156 167.49 70.5111 167.49C70.5052 167.491 70.4898 167.491 70.4688 167.491L70.4154 161.491L70.362 155.491C70.3252 155.492 70.294 155.492 70.2723 155.493C70.2519 155.493 70.233 155.494 70.2275 155.494C70.2183 155.494 70.2218 155.494 70.2275 155.494C70.2343 155.494 70.2506 155.493 70.2726 155.493L70.3205 161.493ZM70.4154 161.491L74.095 156.752C74.4013 156.99 74.6548 157.299 74.8297 157.66L69.4301 160.276L64.0305 162.892C64.6672 164.206 65.5964 165.346 66.7359 166.231L70.4154 161.491ZM69.4301 160.276L74.8297 157.66C75.0271 158.067 75.1143 158.523 75.0776 158.983L69.0967 158.504L63.1158 158.026C62.9815 159.705 63.2998 161.384 64.0305 162.892L69.4301 160.276ZM69.0967 158.504L75.0775 158.983C75.041 159.44 74.8833 159.876 74.6225 160.249L69.7069 156.808L64.7912 153.368C63.8293 154.742 63.2499 156.35 63.1158 158.026L69.0967 158.504ZM69.7069 156.808L74.6681 160.183L87.8763 140.763L82.9151 137.389L77.9539 134.014L64.7457 153.434L69.7069 156.808ZM82.9151 137.389L86.3316 142.321L86.4244 142.257L83.0079 137.325L79.5915 132.392L79.4987 132.456L82.9151 137.389ZM83.0079 137.325L87.5768 133.435L79.6651 124.141L75.0962 128.03L70.5274 131.919L78.4391 141.214L83.0079 137.325ZM75.0962 128.03L71.3221 123.366C64.9741 128.502 57.7061 132.388 49.9026 134.812L51.6826 140.542L53.4625 146.272C62.7197 143.396 71.341 138.787 78.8704 132.694L75.0962 128.03ZM51.6826 140.542L49.8774 134.82C50.7552 134.543 51.6989 134.531 52.59 134.793L50.8995 140.55L49.2089 146.307C50.6115 146.719 52.1016 146.701 53.4878 146.264L51.6826 140.542ZM50.8995 140.55L52.5921 134.794C53.4769 135.054 54.266 135.571 54.8581 136.283L50.2458 140.121L45.6334 143.958C46.5662 145.079 47.8109 145.896 49.2069 146.306L50.8995 140.55ZM50.2458 140.121L54.859 136.284C55.4547 137.001 55.8172 137.872 55.9112 138.784L49.9429 139.399L43.9745 140.015C44.1231 141.457 44.6961 142.831 45.6325 143.957L50.2458 140.121ZM49.9429 139.399L55.9114 138.785C56.0059 139.704 55.8251 140.631 55.391 141.448L50.0928 138.632L44.7946 135.816C44.1104 137.103 43.8253 138.564 43.9744 140.013L49.9429 139.399ZM50.0928 138.632L55.4537 141.327C59.1169 134.039 64.1285 127.516 70.2196 122.101L66.2334 117.617L62.2472 113.132C55.0219 119.555 49.0772 127.293 44.7319 135.937L50.0928 138.632ZM66.2334 117.617L70.8024 113.728L62.8949 104.438L58.326 108.327L53.757 112.216L61.6645 121.506L66.2334 117.617ZM58.326 108.327L53.9536 104.218L53.8959 104.28L58.2682 108.388L62.6406 112.497L62.6984 112.436L58.326 108.327ZM58.2682 108.388L55.7025 102.965L34.3702 113.056L36.9359 118.48L39.5016 123.903L60.8339 113.812L58.2682 108.388ZM36.9359 118.48L34.3244 113.078C34.7403 112.877 35.1974 112.793 35.647 112.83L35.1637 118.81L34.6804 124.791C36.3494 124.926 38.0302 124.615 39.5474 123.882L36.9359 118.48ZM35.1637 118.81L35.647 112.83C36.0992 112.866 36.5366 113.023 36.9128 113.287L33.4677 118.199L30.0226 123.111C31.4004 124.078 33.009 124.656 34.6804 124.791L35.1637 118.81ZM33.4677 118.199L36.913 113.287C37.2848 113.548 37.5824 113.904 37.7729 114.321L32.3149 116.813L26.8568 119.305C27.5553 120.835 28.6492 122.148 30.0224 123.111L33.4677 118.199ZM32.3149 116.813L37.7731 114.322C37.9633 114.739 38.038 115.197 37.9913 115.649L32.0229 115.034L26.0546 114.419C25.8825 116.088 26.1585 117.775 26.8566 119.305L32.3149 116.813ZM32.0229 115.034L37.9941 115.622C38.5172 110.308 39.677 102.385 42.0772 95.6946C43.2779 92.3475 44.6784 89.6289 46.2205 87.737C47.7243 85.8921 49.1068 85.1255 50.3862 84.9168L49.4199 78.9951L48.4537 73.0734C43.4708 73.8865 39.6826 76.7648 36.9189 80.1554C34.1936 83.499 32.23 87.6062 30.782 91.6427C27.8847 99.7191 26.6083 108.794 26.0518 114.446L32.0229 115.034ZM49.4199 78.9951L50.0833 84.9583C57.8799 84.091 65.7482 84.5199 73.3722 86.2109L74.6714 80.3532L75.9707 74.4956C67.0615 72.5196 57.8672 72.0184 48.7566 73.0319L49.4199 78.9951ZM74.6714 80.3532L79.6482 83.7046C88.8268 70.0745 101.007 54.5063 114.474 43.6727L110.713 38.9977L106.952 34.3226C92.0983 46.272 79.1243 62.999 69.6947 77.0019L74.6714 80.3532Z" fill="white" mask="url(#path-1-outside-1_1347_9282)"/>
<path d="M58.2682 108.389L82.8012 82.6299C72.0755 78.9839 60.6788 77.7431 49.4197 78.9956C36.8953 81.0392 33.1028 104.068 32.0231 115.034C31.9604 115.643 32.0612 116.257 32.3152 116.813C32.5692 117.37 32.9671 117.848 33.4679 118.199C33.9687 118.551 34.5541 118.762 35.1638 118.811C35.7734 118.86 36.3852 118.746 36.9359 118.48L58.2682 108.389Z" fill="#4B9AE6"/>
<path d="M48.6575 89.4718C57.3805 88.3966 66.2269 88.9332 74.7561 91.0548L82.7988 82.6689C72.0731 79.023 60.6763 77.7822 49.4173 79.0346C36.896 81.0389 33.1035 104.068 32.0238 115.034C31.96 115.704 32.0991 116.378 32.423 116.968C34.5342 105.49 38.8208 91.0976 48.6575 89.4718Z" fill="#8BBBF1"/>
<path d="M82.9159 137.389L112.263 117.286C114.148 128.443 113.553 139.878 110.521 150.78C106.661 162.83 83.4792 162.907 72.324 162.208C71.7134 162.173 71.1232 161.976 70.6145 161.636C70.1058 161.296 69.697 160.827 69.4303 160.277C69.1636 159.726 69.0487 159.115 69.0975 158.505C69.1462 157.895 69.3569 157.31 69.7077 156.808L82.9159 137.389Z" fill="#4B9AE6"/>
<path d="M99.9356 149.889C102.412 141.44 103.297 132.605 102.545 123.833L112.105 117.273C113.99 128.43 113.395 139.865 110.363 150.767C106.503 162.817 83.321 162.894 72.1659 162.196C71.4953 162.147 70.8538 161.902 70.3208 161.493C81.9754 161.4 96.8806 159.31 99.9356 149.889Z" fill="#8BBBF1"/>
<path d="M159.954 96.6763C183.092 75.9551 178.586 47.7428 176.021 37.7515C175.731 36.5649 175.168 35.4619 174.379 34.5294C173.584 33.6199 172.602 32.8923 171.5 32.3964C162.047 28.269 134.877 19.3105 110.713 38.9984C80.8952 62.9856 58.0976 108.058 58.0976 108.058L83.4358 137.827C83.4358 137.827 131.354 122.267 159.954 96.6763Z" fill="#CAE3FF"/>
<path d="M92.6108 107.466C92.9377 106.981 93.0979 106.404 93.0671 105.821C93.0362 105.237 92.816 104.68 92.4397 104.233C92.0635 103.786 91.5519 103.474 90.9823 103.344C90.4128 103.215 89.8165 103.274 89.2838 103.514C81.3 106.822 73.8511 111.297 67.1803 116.791C60.0937 122.867 54.2855 130.292 50.0931 138.632C49.968 138.868 49.9158 139.135 49.9431 139.4C49.9704 139.665 50.0761 139.916 50.2465 140.121C50.417 140.326 50.6446 140.476 50.9003 140.551C51.1561 140.626 51.4284 140.623 51.6826 140.543C60.569 137.782 68.8204 133.289 75.9605 127.322C82.4759 121.576 88.0889 114.883 92.6108 107.466Z" fill="#4B9AE6"/>
<path d="M48.3022 161.206C45.3254 163.739 27.2923 168.272 18.1655 170.43C16.4681 170.848 14.3781 168.264 14.944 166.645C18.5293 158.02 25.8842 140.942 29.1004 138.388C33.1562 134.753 42.9179 135.537 48.2814 141.752C53.645 147.967 52.3422 157.767 48.3022 161.206Z" fill="#FF8A14"/>
<path d="M44.072 154.21C41.9488 155.981 33.6396 157.333 32.0862 155.465C30.5329 153.597 33.1655 145.49 35.2791 143.837C36.6547 143.052 38.2786 142.823 39.8176 143.197C41.3567 143.571 42.6942 144.52 43.5556 145.849C44.6799 146.921 45.3579 148.378 45.4536 149.929C45.5494 151.479 45.0559 153.008 44.072 154.21Z" fill="#FFE500"/>
<path d="M123.514 60.07C123.301 62.72 123.612 65.3859 124.429 67.9157C125.246 70.4454 126.554 72.7894 128.277 74.8138C130 76.8382 132.105 78.5034 134.472 79.7143C136.838 80.9252 139.42 81.6581 142.07 81.8711C144.72 82.0842 147.386 81.7732 149.916 80.9559C152.446 80.1386 154.79 78.8311 156.814 77.1079C158.838 75.3848 160.504 73.2797 161.715 70.913C162.925 68.5464 163.658 65.9643 163.871 63.3144C164.084 60.6645 163.773 57.9985 162.956 55.4688C162.139 52.939 160.831 50.595 159.108 48.5706C157.385 46.5462 155.28 44.881 152.913 43.6701C150.547 42.4592 147.965 41.7263 145.315 41.5133C142.665 41.3003 139.999 41.6113 137.469 42.4285C134.939 43.2458 132.595 44.5534 130.571 46.2765C128.546 47.9997 126.881 50.1047 125.67 52.4714C124.459 54.8381 123.727 57.4201 123.514 60.07Z" fill="#1D5592"/>
<mask id="mask0_1347_9282" style="mask-type:alpha" maskUnits="userSpaceOnUse" x="123" y="41" width="41" height="41">
<circle cx="143.592" cy="61.6076" r="20.1636" transform="rotate(4.59612 143.592 61.6076)" fill="#D9D9D9"/>
</mask>
<g mask="url(#mask0_1347_9282)">
<path d="M165.471 77.0508L164.79 85.521C164.685 86.838 163.52 87.8311 162.201 87.725L121.331 84.4395C120.014 84.3336 119.021 83.169 119.127 81.8501L119.754 74.0413C121.565 71.0699 124.251 68.5524 127.521 66.6929C127.438 65.6779 127.433 64.6398 127.518 63.5874C128.295 53.9247 136.095 47.3015 145.003 48.0176C153.911 48.7337 160.549 56.5176 159.772 66.1803C159.688 67.2308 159.521 68.2551 159.276 69.2437C161.997 71.4322 164.129 74.0999 165.471 77.0508Z" fill="#4B98E6"/>
<path d="M153.117 64.512C154.918 64.6568 156.496 63.3139 156.641 61.5126C156.786 59.7112 155.443 58.1336 153.642 57.9888C151.84 57.844 150.262 59.1868 150.118 60.9882C149.973 62.7895 151.316 64.3672 153.117 64.512Z" fill="white"/>
<path d="M153.222 63.0402C154.219 63.1203 155.092 62.3773 155.172 61.3808C155.252 60.3842 154.509 59.5113 153.512 59.4312C152.516 59.3511 151.643 60.094 151.563 61.0906C151.483 62.0872 152.226 62.9601 153.222 63.0402Z" fill="black"/>
<path d="M147.61 64.1704C147.345 65.9063 144.91 68.2894 143.145 68.0242C141.381 67.759 139.769 64.7654 140.035 63.0297C140.3 61.2938 141.671 60.0601 144.304 60.456C146.968 60.8575 147.876 62.4346 147.61 64.1704Z" fill="#EAC00F"/>
<path d="M134.67 63.0291C136.471 63.1739 138.049 61.831 138.194 60.0297C138.338 58.2283 136.996 56.6507 135.194 56.5059C133.393 56.361 131.815 57.7039 131.67 59.5053C131.526 61.3066 132.868 62.8843 134.67 63.0291Z" fill="white"/>
<path d="M134.775 61.5573C135.772 61.6374 136.645 60.8944 136.725 59.8978C136.805 58.9012 136.062 58.0284 135.065 57.9483C134.069 57.8682 133.196 58.6111 133.116 59.6077C133.036 60.6043 133.779 61.4772 134.775 61.5573Z" fill="black"/>
</g>
</svg>
