<svg width="200" height="200" viewBox="0 0 200 200" fill="none" xmlns="http://www.w3.org/2000/svg">
<mask id="path-1-outside-1_1062_23829" maskUnits="userSpaceOnUse" x="14" y="14" width="172" height="172" fill="black">
<rect fill="white" x="14" y="14" width="172" height="172"/>
<path d="M148.888 20C159.927 20.0002 171.109 26.1067 171.109 37.7773V91.0508C171.11 91.071 171.112 91.0911 171.112 91.1113C171.112 91.1312 171.11 91.151 171.109 91.1709V108.627L175.556 108.889C178.013 108.889 180 110.875 180 113.333C180 115.791 178.013 117.777 175.556 117.777V117.778C175.541 117.954 171.081 171.11 153.333 171.11L153.334 171.111C153.334 172.278 153.105 173.434 152.658 174.513C152.211 175.591 151.556 176.571 150.73 177.396C149.905 178.222 148.925 178.877 147.847 179.323C146.768 179.77 145.613 180 144.445 180C143.278 180 142.122 179.77 141.044 179.323C139.966 178.877 138.986 178.222 138.16 177.396C137.335 176.571 136.68 175.591 136.233 174.513C135.842 173.569 135.617 172.566 135.567 171.548L135.557 171.111H82.2207L82.21 171.552C82.101 173.749 81.18 175.834 79.6172 177.396C77.9502 179.063 75.6894 180 73.332 180C70.9746 180 68.7138 179.063 67.0469 177.396C65.3799 175.73 64.4434 173.469 64.4434 171.111C64.4434 170.653 64.4795 170.198 64.5488 169.75C45.5389 163.894 28.3004 139.737 24.4443 108.889C21.9911 108.889 20 106.902 20 104.444C20.0001 101.987 21.9911 100 24.4443 100L33.6309 100.54C37.54 95.0379 43.5092 90.9159 50.5938 89.293C51.1596 86.2396 52.3032 83.2673 54.0498 80.5127C54.3182 80.0894 54.595 79.671 54.8945 79.2734C60.6905 71.2205 70.59 67.5071 80.709 69.2109C82.2131 67.1184 85.2815 64.9631 87.6318 65.6113C90.2358 66.3298 91.9831 70.588 91.707 73.3066C91.9862 73.4728 92.2649 73.6427 92.542 73.8184C94.0616 74.7819 96.838 77.1709 96.8965 77.5107C96.9582 77.4788 97.017 77.4507 97.0664 77.4287C97.5305 77.2108 97.788 77.13 97.7979 77.127C107.479 73.2048 118.062 73.2619 126.991 78.0693C127.647 78.42 128.294 78.7947 128.929 79.1973L128.927 79.2012C129.486 79.5555 130.031 79.9315 130.554 80.3047C130.598 80.3384 130.637 80.3697 130.68 80.3965C135.663 84.0607 139.096 88.9325 141.031 94.4922C141.071 94.6049 141.107 94.7188 141.146 94.832C147.942 97.0355 153.638 101.68 156.974 107.795L162.221 108.104V95.5547C159.864 95.5543 157.605 95.087 155.938 94.2539C154.272 93.4204 153.335 92.2901 153.335 91.1113C153.335 89.9326 154.272 88.8022 155.938 87.9688C157.605 87.1356 159.864 86.6674 162.221 86.667V37.7773C162.22 30.7468 153.501 28.8888 148.888 28.8887C144.274 28.8887 135.554 30.7466 135.554 37.7773C135.554 37.9466 135.543 38.1139 135.524 38.2783C140.72 39.4932 144.445 42.7909 144.445 46.667H144.446C146.904 46.6671 148.891 48.6581 148.891 51.1113C148.891 53.5646 146.904 55.5556 144.446 55.5557H117.779C115.322 55.5556 113.335 53.5646 113.335 51.1113C113.335 48.6584 115.321 46.6676 117.778 46.667L117.782 46.4375C117.926 42.6622 121.604 39.4712 126.693 38.2793C126.675 38.1147 126.665 37.9469 126.665 37.7773C126.665 26.1065 137.848 20 148.888 20Z"/>
</mask>
<path d="M148.888 20C159.927 20.0002 171.109 26.1067 171.109 37.7773V91.0508C171.11 91.071 171.112 91.0911 171.112 91.1113C171.112 91.1312 171.11 91.151 171.109 91.1709V108.627L175.556 108.889C178.013 108.889 180 110.875 180 113.333C180 115.791 178.013 117.777 175.556 117.777V117.778C175.541 117.954 171.081 171.11 153.333 171.11L153.334 171.111C153.334 172.278 153.105 173.434 152.658 174.513C152.211 175.591 151.556 176.571 150.73 177.396C149.905 178.222 148.925 178.877 147.847 179.323C146.768 179.77 145.613 180 144.445 180C143.278 180 142.122 179.77 141.044 179.323C139.966 178.877 138.986 178.222 138.16 177.396C137.335 176.571 136.68 175.591 136.233 174.513C135.842 173.569 135.617 172.566 135.567 171.548L135.557 171.111H82.2207L82.21 171.552C82.101 173.749 81.18 175.834 79.6172 177.396C77.9502 179.063 75.6894 180 73.332 180C70.9746 180 68.7138 179.063 67.0469 177.396C65.3799 175.73 64.4434 173.469 64.4434 171.111C64.4434 170.653 64.4795 170.198 64.5488 169.75C45.5389 163.894 28.3004 139.737 24.4443 108.889C21.9911 108.889 20 106.902 20 104.444C20.0001 101.987 21.9911 100 24.4443 100L33.6309 100.54C37.54 95.0379 43.5092 90.9159 50.5938 89.293C51.1596 86.2396 52.3032 83.2673 54.0498 80.5127C54.3182 80.0894 54.595 79.671 54.8945 79.2734C60.6905 71.2205 70.59 67.5071 80.709 69.2109C82.2131 67.1184 85.2815 64.9631 87.6318 65.6113C90.2358 66.3298 91.9831 70.588 91.707 73.3066C91.9862 73.4728 92.2649 73.6427 92.542 73.8184C94.0616 74.7819 96.838 77.1709 96.8965 77.5107C96.9582 77.4788 97.017 77.4507 97.0664 77.4287C97.5305 77.2108 97.788 77.13 97.7979 77.127C107.479 73.2048 118.062 73.2619 126.991 78.0693C127.647 78.42 128.294 78.7947 128.929 79.1973L128.927 79.2012C129.486 79.5555 130.031 79.9315 130.554 80.3047C130.598 80.3384 130.637 80.3697 130.68 80.3965C135.663 84.0607 139.096 88.9325 141.031 94.4922C141.071 94.6049 141.107 94.7188 141.146 94.832C147.942 97.0355 153.638 101.68 156.974 107.795L162.221 108.104V95.5547C159.864 95.5543 157.605 95.087 155.938 94.2539C154.272 93.4204 153.335 92.2901 153.335 91.1113C153.335 89.9326 154.272 88.8022 155.938 87.9688C157.605 87.1356 159.864 86.6674 162.221 86.667V37.7773C162.22 30.7468 153.501 28.8888 148.888 28.8887C144.274 28.8887 135.554 30.7466 135.554 37.7773C135.554 37.9466 135.543 38.1139 135.524 38.2783C140.72 39.4932 144.445 42.7909 144.445 46.667H144.446C146.904 46.6671 148.891 48.6581 148.891 51.1113C148.891 53.5646 146.904 55.5556 144.446 55.5557H117.779C115.322 55.5556 113.335 53.5646 113.335 51.1113C113.335 48.6584 115.321 46.6676 117.778 46.667L117.782 46.4375C117.926 42.6622 121.604 39.4712 126.693 38.2793C126.675 38.1147 126.665 37.9469 126.665 37.7773C126.665 26.1065 137.848 20 148.888 20Z" fill="#99AAB5"/>
<path d="M148.888 20L148.888 14H148.888V20ZM171.109 37.7773L177.109 37.7773L177.109 37.7772L171.109 37.7773ZM171.109 91.0508H165.109C165.109 91.1053 165.11 91.1597 165.112 91.2142L171.109 91.0508ZM171.112 91.1113L177.112 91.1114V91.1113H171.112ZM171.109 91.1709L165.112 91.0101C165.11 91.0637 165.109 91.1173 165.109 91.1709L171.109 91.1709ZM171.109 108.627H165.109C165.109 111.804 167.586 114.43 170.757 114.617L171.109 108.627ZM175.556 108.889L175.203 114.878C175.32 114.885 175.438 114.889 175.556 114.889L175.556 108.889ZM180 113.333L186 113.333L186 113.333L180 113.333ZM175.556 117.777L175.556 111.777C172.242 111.777 169.556 114.464 169.556 117.777H175.556ZM175.556 117.778L181.535 118.278C181.549 118.112 181.556 117.945 181.556 117.778L175.556 117.778ZM153.333 171.11V165.11C150.906 165.11 148.718 166.572 147.79 168.814C146.861 171.056 147.374 173.637 149.09 175.353L153.333 171.11ZM153.334 171.111L159.334 171.111C159.334 169.52 158.702 167.994 157.577 166.869L153.334 171.111ZM152.658 174.513L158.201 176.809L158.202 176.809L152.658 174.513ZM150.73 177.396L154.973 181.639L154.973 181.639L150.73 177.396ZM147.847 179.323L150.143 184.867L150.143 184.867L147.847 179.323ZM144.445 180L144.445 186H144.445V180ZM141.044 179.323L138.748 184.867L138.748 184.867L141.044 179.323ZM138.16 177.396L133.917 181.639L133.918 181.639L138.16 177.396ZM136.233 174.513L130.69 176.809L130.69 176.809L136.233 174.513ZM135.567 171.548L129.569 171.695C129.57 171.745 129.572 171.794 129.575 171.843L135.567 171.548ZM135.557 171.111L141.555 170.964C141.475 167.709 138.813 165.111 135.557 165.111V171.111ZM82.2207 171.111V165.111C78.964 165.111 76.3019 167.709 76.2225 170.965L82.2207 171.111ZM82.21 171.552L88.2026 171.849C88.2051 171.799 88.207 171.748 88.2082 171.698L82.21 171.552ZM79.6172 177.396L83.8597 181.639L83.8598 181.639L79.6172 177.396ZM73.332 180L73.3319 186H73.332L73.332 180ZM67.0469 177.396L62.8042 181.639L62.8042 181.639L67.0469 177.396ZM64.4434 171.111L58.4434 171.111L58.4434 171.111L64.4434 171.111ZM64.5488 169.75L70.4781 170.669C70.9342 167.725 69.1618 164.893 66.3151 164.016L64.5488 169.75ZM24.4443 108.889L30.398 108.144C30.0227 105.142 27.4704 102.889 24.4445 102.889L24.4443 108.889ZM20 104.444L14 104.444V104.444H20ZM24.4443 100L24.7964 94.0103C24.6792 94.0034 24.5617 94 24.4442 94L24.4443 100ZM33.6309 100.54L33.2788 106.53C35.3431 106.651 37.3244 105.701 38.5221 104.015L33.6309 100.54ZM50.5938 89.293L51.9335 95.1415C54.2655 94.6072 56.0573 92.7387 56.4933 90.3863L50.5938 89.293ZM54.0498 80.5127L48.9826 77.2996L48.9826 77.2997L54.0498 80.5127ZM54.8945 79.2734L59.6865 82.8841C59.7128 82.8492 59.7388 82.8139 59.7644 82.7784L54.8945 79.2734ZM80.709 69.2109L79.7127 75.1277C81.9693 75.5076 84.2455 74.5709 85.581 72.7128L80.709 69.2109ZM87.6318 65.6113L89.2276 59.8274L89.2271 59.8273L87.6318 65.6113ZM91.707 73.3066L85.7377 72.7004C85.502 75.0216 86.6332 77.2689 88.638 78.4623L91.707 73.3066ZM92.542 73.8184L95.7551 68.7512L95.755 68.7512L92.542 73.8184ZM96.8965 77.5107L90.9833 78.528C91.3077 80.4135 92.5118 82.0312 94.2249 82.8831C95.938 83.735 97.9546 83.7189 99.6538 82.8396L96.8965 77.5107ZM97.0664 77.4287L99.5005 82.9128C99.5393 82.8956 99.5779 82.8779 99.6164 82.8599L97.0664 77.4287ZM97.7979 77.127L99.5807 82.8559C99.7397 82.8065 99.8965 82.7504 100.051 82.6879L97.7979 77.127ZM126.991 78.0693L124.147 83.3524C124.152 83.3551 124.157 83.3579 124.163 83.3607L126.991 78.0693ZM128.929 79.1973L134.295 81.8805C135.672 79.1271 134.742 75.7786 132.142 74.1301L128.929 79.1973ZM128.927 79.2012L123.56 76.5179C122.184 79.2713 123.114 82.6198 125.714 84.2683L128.927 79.2012ZM130.554 80.3047L134.212 75.5493C134.155 75.5053 134.097 75.4624 134.039 75.4205L130.554 80.3047ZM130.68 80.3965L134.234 75.5627C134.123 75.481 134.009 75.4032 133.893 75.3293L130.68 80.3965ZM141.031 94.4922L135.365 96.4645L135.367 96.4703L141.031 94.4922ZM141.146 94.832L135.459 96.746C136.065 98.5465 137.488 99.9537 139.295 100.54L141.146 94.832ZM156.974 107.795L151.707 110.669C152.698 112.485 154.555 113.663 156.621 113.785L156.974 107.795ZM162.221 108.104L161.868 114.093C163.518 114.19 165.135 113.603 166.337 112.469C167.539 111.335 168.221 109.756 168.221 108.104H162.221ZM162.221 95.5547H168.221C168.221 92.2414 165.535 89.5553 162.222 89.5547L162.221 95.5547ZM155.938 94.2539L153.255 99.6205L153.255 99.6205L155.938 94.2539ZM153.335 91.1113L147.335 91.1113L147.335 91.1114L153.335 91.1113ZM155.938 87.9688L153.255 82.6022L153.255 82.6022L155.938 87.9688ZM162.221 86.667L162.222 92.667C165.535 92.6664 168.221 89.9803 168.221 86.667H162.221ZM162.221 37.7773L168.221 37.7773L168.221 37.777L162.221 37.7773ZM148.888 28.8887L148.888 22.8887H148.888V28.8887ZM135.554 37.7773L129.554 37.777V37.7773H135.554ZM135.524 38.2783L129.562 37.6102C129.223 40.6315 131.198 43.4284 134.158 44.1207L135.524 38.2783ZM144.445 46.667H138.445C138.445 49.9807 141.132 52.667 144.445 52.667V46.667ZM144.446 46.667L144.447 40.667H144.446V46.667ZM148.891 51.1113L154.891 51.1113V51.1113H148.891ZM144.446 55.5557L144.446 61.5557L144.447 61.5557L144.446 55.5557ZM117.779 55.5557L117.779 61.5557H117.779V55.5557ZM113.335 51.1113L107.335 51.1113L107.335 51.1113L113.335 51.1113ZM117.778 46.667L117.78 52.667C121.053 52.6662 123.722 50.042 123.777 46.7691L117.778 46.667ZM117.782 46.4375L111.787 46.2098C111.785 46.2517 111.784 46.2935 111.783 46.3354L117.782 46.4375ZM126.693 38.2793L128.061 44.1213C131.021 43.4281 132.995 40.631 132.656 37.61L126.693 38.2793ZM126.665 37.7773L120.665 37.7772V37.7773H126.665ZM148.888 20L148.888 26C153.4 26.0001 157.673 27.2657 160.649 29.3929C163.466 31.4077 165.109 34.1318 165.109 37.7775L171.109 37.7773L177.109 37.7772C177.109 29.7522 173.161 23.5877 167.628 19.6315C162.252 15.7878 155.415 14.0001 148.888 14L148.888 20ZM171.109 37.7773H165.109V91.0508H171.109H177.109V37.7773H171.109ZM171.109 91.0508L165.112 91.2142C165.114 91.3072 165.118 91.3819 165.121 91.4227C165.122 91.4436 165.123 91.4605 165.124 91.4683C165.124 91.4722 165.124 91.4759 165.124 91.4765C165.124 91.478 165.124 91.4768 165.124 91.475C165.124 91.4715 165.123 91.4592 165.122 91.4427C165.121 91.4258 165.12 91.4012 165.118 91.3713C165.116 91.3126 165.112 91.2222 165.112 91.1113H171.112H177.112C177.112 90.9903 177.109 90.8899 177.106 90.821C177.103 90.7546 177.099 90.7014 177.098 90.6871C177.098 90.6828 177.098 90.679 177.097 90.678C177.097 90.6761 177.097 90.6772 177.098 90.6786C177.098 90.6815 177.099 90.6933 177.099 90.7091C177.101 90.7398 177.105 90.8045 177.107 90.8874L171.109 91.0508ZM171.112 91.1113L165.112 91.1113C165.112 90.9976 165.116 90.905 165.119 90.8449C165.12 90.8144 165.121 90.7892 165.122 90.7721C165.123 90.7553 165.124 90.7428 165.125 90.7394C165.125 90.7377 165.125 90.7365 165.125 90.7381C165.125 90.7389 165.124 90.7427 165.124 90.7468C165.123 90.7551 165.122 90.7727 165.121 90.7944C165.118 90.8367 165.114 90.914 165.112 91.0101L171.109 91.1709L177.107 91.3317C177.105 91.4179 177.101 91.4852 177.099 91.5177C177.098 91.5344 177.097 91.5469 177.097 91.5503C177.097 91.552 177.097 91.5532 177.097 91.5516C177.097 91.5507 177.097 91.547 177.098 91.5428C177.099 91.529 177.102 91.475 177.105 91.4075C177.109 91.3375 177.112 91.235 177.112 91.1114L171.112 91.1113ZM171.109 91.1709H165.109V108.627H171.109H177.109V91.1709H171.109ZM171.109 108.627L170.757 114.617L175.203 114.878L175.556 108.889L175.908 102.899L171.462 102.637L171.109 108.627ZM175.556 108.889L175.556 114.889C174.699 114.889 174 114.189 174 113.333L180 113.333L186 113.333C186 107.562 181.327 102.889 175.556 102.889L175.556 108.889ZM180 113.333H174C174 112.477 174.7 111.777 175.556 111.777L175.556 117.777L175.556 123.777C181.327 123.777 186 119.105 186 113.333H180ZM175.556 117.777H169.556V117.778H175.556H181.556V117.777H175.556ZM175.556 117.778L169.577 117.278C169.579 117.246 169.309 120.487 168.63 125.358C167.95 130.242 166.872 136.676 165.274 143.052C163.655 149.514 161.598 155.518 159.111 159.774C156.469 164.295 154.42 165.11 153.333 165.11V171.11V177.11C161.12 177.11 166.285 171.282 169.471 165.829C172.812 160.113 175.199 152.817 176.915 145.969C180.371 132.172 181.521 118.447 181.535 118.278L175.556 117.778ZM153.333 171.11L149.09 175.353L149.091 175.354L153.334 171.111L157.577 166.869L157.576 166.868L153.333 171.11ZM153.334 171.111L147.334 171.111C147.334 171.493 147.259 171.869 147.115 172.217L152.658 174.513L158.202 176.809C158.951 175 159.334 173.064 159.334 171.111L153.334 171.111ZM152.658 174.513L147.115 172.217C146.971 172.565 146.758 172.884 146.488 173.154L150.73 177.396L154.973 181.639C156.354 180.258 157.452 178.617 158.201 176.809L152.658 174.513ZM150.73 177.396L146.488 173.154C146.22 173.422 145.901 173.635 145.551 173.78L147.847 179.323L150.143 184.867C151.949 184.118 153.59 183.022 154.973 181.639L150.73 177.396ZM147.847 179.323L145.551 173.78C145.2 173.925 144.824 174 144.445 174V180V186C146.401 186 148.337 185.614 150.143 184.867L147.847 179.323ZM144.445 180L144.445 174C144.067 174 143.691 173.925 143.34 173.78L141.044 179.323L138.748 184.867C140.554 185.615 142.49 186 144.445 186L144.445 180ZM141.044 179.323L143.34 173.78C142.989 173.635 142.671 173.422 142.403 173.154L138.16 177.396L133.918 181.639C135.3 183.022 136.942 184.118 138.748 184.867L141.044 179.323ZM138.16 177.396L142.403 173.154C142.135 172.886 141.922 172.567 141.777 172.217L136.233 174.513L130.69 176.809C131.438 178.615 132.535 180.256 133.917 181.639L138.16 177.396ZM136.233 174.513L141.777 172.217C141.649 171.909 141.576 171.583 141.56 171.253L135.567 171.548L129.575 171.843C129.659 173.549 130.036 175.229 130.69 176.809L136.233 174.513ZM135.567 171.548L141.566 171.4L141.555 170.964L135.557 171.111L129.558 171.259L129.569 171.695L135.567 171.548ZM135.557 171.111V165.111H82.2207V171.111V177.111H135.557V171.111ZM82.2207 171.111L76.2225 170.965L76.2117 171.405L82.21 171.552L88.2082 171.698L88.2189 171.258L82.2207 171.111ZM82.21 171.552L76.2173 171.255C76.182 171.968 75.8827 172.646 75.3745 173.154L79.6172 177.396L83.8598 181.639C86.4774 179.022 88.0201 175.53 88.2026 171.849L82.21 171.552ZM79.6172 177.396L75.3746 173.154C74.8326 173.696 74.0978 174 73.332 174L73.332 180L73.332 186C77.281 186 81.0678 184.431 83.8597 181.639L79.6172 177.396ZM73.332 180L73.3322 174C72.5661 174 71.8313 173.696 71.2895 173.154L67.0469 177.396L62.8042 181.639C65.5963 184.431 69.3832 186 73.3319 186L73.332 180ZM67.0469 177.396L71.2896 173.154C70.7477 172.612 70.4434 171.877 70.4434 171.111L64.4434 171.111L58.4434 171.111C58.4434 175.06 60.0122 178.847 62.8042 181.639L67.0469 177.396ZM64.4434 171.111H70.4434C70.4434 170.968 70.4547 170.82 70.4781 170.669L64.5488 169.75L58.6196 168.831C58.5042 169.576 58.4434 170.338 58.4434 171.111H64.4434ZM64.5488 169.75L66.3151 164.016C58.4907 161.606 50.4393 155.198 43.7882 145.337C37.1804 135.54 32.2167 122.694 30.398 108.144L24.4443 108.889L18.4907 109.633C20.528 125.932 26.1116 140.589 33.8396 152.047C41.5242 163.44 51.597 172.039 62.7825 175.484L64.5488 169.75ZM24.4443 108.889L24.4445 102.889C25.3007 102.889 26 103.584 26 104.444H20H14C14 110.22 18.6814 114.889 24.4442 114.889L24.4443 108.889ZM20 104.444L26 104.444C26 105.304 25.3009 106 24.4445 106L24.4443 100L24.4442 94C18.6813 94.0001 14.0001 98.669 14 104.444L20 104.444ZM24.4443 100L24.0922 105.99L33.2788 106.53L33.6309 100.54L33.983 94.5504L24.7964 94.0103L24.4443 100ZM33.6309 100.54L38.5221 104.015C41.5851 99.7038 46.2948 96.4332 51.9335 95.1415L50.5938 89.293L49.254 83.4445C40.7237 85.3986 33.4949 90.3719 28.7397 97.065L33.6309 100.54ZM50.5938 89.293L56.4933 90.3863C56.9213 88.0771 57.7855 85.8256 59.117 83.7257L54.0498 80.5127L48.9826 77.2997C46.8208 80.709 45.398 84.4022 44.6942 88.1996L50.5938 89.293ZM54.0498 80.5127L59.117 83.7258C59.3505 83.3575 59.5284 83.094 59.6865 82.8841L54.8945 79.2734L50.1026 75.6627C49.6616 76.248 49.2859 76.8213 48.9826 77.2996L54.0498 80.5127ZM54.8945 79.2734L59.7644 82.7784C64.1058 76.7463 71.6416 73.7687 79.7127 75.1277L80.709 69.2109L81.7052 63.2942C69.5384 61.2456 57.2752 65.6946 50.0247 75.7685L54.8945 79.2734ZM80.709 69.2109L85.581 72.7128C85.6885 72.5633 85.8733 72.3477 86.1263 72.1182C86.3776 71.8902 86.6317 71.707 86.8477 71.5825C87.0747 71.4518 87.1584 71.4438 87.0804 71.4612C86.9969 71.4799 86.6045 71.552 86.0366 71.3954L87.6318 65.6113L89.2271 59.8273C85.8128 58.8856 82.7183 60.1128 80.8583 61.1841C78.8579 62.3364 77.0787 63.9815 75.8369 65.7091L80.709 69.2109ZM87.6318 65.6113L86.036 71.3952C85.7089 71.305 85.4705 71.1797 85.3222 71.0844C85.1769 70.991 85.106 70.9191 85.0962 70.909C85.0906 70.9032 85.2056 71.029 85.3553 71.3364C85.499 71.6314 85.6138 71.97 85.6798 72.2858C85.75 72.6217 85.7311 72.7657 85.7377 72.7004L91.707 73.3066L97.6763 73.9129C97.951 71.2081 97.2452 68.343 96.1435 66.0814C95.1252 63.9909 92.9929 60.8663 89.2276 59.8274L87.6318 65.6113ZM91.707 73.3066L88.638 78.4623C88.8821 78.6076 89.111 78.7473 89.329 78.8856L92.542 73.8184L95.755 68.7512C95.4188 68.538 95.0903 68.338 94.776 68.1509L91.707 73.3066ZM92.542 73.8184L89.3289 78.8855C89.4956 78.9912 89.7955 79.2014 90.2003 79.5123C90.5879 79.81 90.9997 80.1447 91.3738 80.4637C91.759 80.7922 92.0453 81.054 92.2026 81.2083C92.2918 81.2959 92.2636 81.2747 92.1768 81.1723C92.1386 81.1271 92.002 80.9649 91.8403 80.7187C91.7579 80.5934 91.6217 80.375 91.4808 80.0835C91.4083 79.9333 91.3199 79.7339 91.2347 79.4926C91.1509 79.2557 91.0521 78.9279 90.9833 78.528L96.8965 77.5107L102.81 76.4935C102.582 75.1683 101.954 74.2576 101.869 74.129C101.659 73.81 101.456 73.5607 101.333 73.4158C101.077 73.1139 100.811 72.8428 100.608 72.6436C100.18 72.2243 99.6667 71.7649 99.1605 71.3332C98.1889 70.5046 96.8664 69.4559 95.7551 68.7512L92.542 73.8184ZM96.8965 77.5107L99.6538 82.8396C99.6341 82.8498 99.6132 82.8603 99.5904 82.8713C99.5682 82.882 99.5383 82.896 99.5005 82.9128L97.0664 77.4287L94.6323 71.9446C94.4637 72.0195 94.2969 72.1002 94.1392 72.1818L96.8965 77.5107ZM97.0664 77.4287L99.6164 82.8599C99.7201 82.8112 99.772 82.7913 99.7671 82.7932C99.762 82.7952 99.7014 82.8184 99.5807 82.8559L97.7979 77.127L96.015 71.398C95.7525 71.4797 95.238 71.6588 94.5164 71.9975L97.0664 77.4287ZM97.7979 77.127L100.051 82.6879C108.324 79.3361 117.012 79.5109 124.147 83.3524L126.991 78.0693L129.835 72.7863C119.112 67.0129 106.633 67.0735 95.5449 71.566L97.7979 77.127ZM126.991 78.0693L124.163 83.3607C124.697 83.6465 125.215 83.9469 125.716 84.2645L128.929 79.1973L132.142 74.1301C131.373 73.6425 130.597 73.1935 129.82 72.778L126.991 78.0693ZM128.929 79.1973L123.562 76.514L123.56 76.5179L128.927 79.2012L134.293 81.8845L134.295 81.8805L128.929 79.1973ZM128.927 79.2012L125.714 84.2683C126.147 84.5428 126.595 84.8508 127.069 85.1888L130.554 80.3047L134.039 75.4205C133.466 75.0122 132.824 74.5681 132.14 74.134L128.927 79.2012ZM130.554 80.3047L126.895 85.0601C126.899 85.0629 126.9 85.0639 126.908 85.0704C126.915 85.0754 126.925 85.0833 126.937 85.0922C126.959 85.1096 126.997 85.1381 127.042 85.1715C127.131 85.2373 127.279 85.3444 127.467 85.4637L130.68 80.3965L133.893 75.3293C134.039 75.4217 134.145 75.4998 134.193 75.5349C134.217 75.5529 134.234 75.5656 134.235 75.5668C134.236 75.5676 134.236 75.5673 134.232 75.564C134.229 75.5622 134.22 75.5549 134.212 75.5493L130.554 80.3047ZM130.68 80.3965L127.125 85.2303C131.082 88.1398 133.808 91.9911 135.365 96.4645L141.031 94.4922L146.698 92.5199C144.385 85.8738 140.243 79.9815 134.234 75.5627L130.68 80.3965ZM141.031 94.4922L135.367 96.4703C135.394 96.5476 135.387 96.5322 135.459 96.746L141.146 94.832L146.832 92.9181C146.828 92.9054 146.747 92.6621 146.696 92.514L141.031 94.4922ZM141.146 94.832L139.295 100.54C144.689 102.288 149.133 105.951 151.707 110.669L156.974 107.795L162.241 104.921C158.142 97.4094 151.196 91.7829 142.996 89.1245L141.146 94.832ZM156.974 107.795L156.621 113.785L161.868 114.093L162.221 108.104L162.573 102.114L157.326 101.805L156.974 107.795ZM162.221 108.104H168.221V95.5547H162.221H156.221V108.104H162.221ZM162.221 95.5547L162.222 89.5547C160.554 89.5544 159.263 89.2079 158.622 88.8873L155.938 94.2539L153.255 99.6205C155.947 100.966 159.174 101.554 162.22 101.555L162.221 95.5547ZM155.938 94.2539L158.622 88.8874C158.316 88.7346 158.407 88.7124 158.632 88.9842C158.886 89.2904 159.335 90.0244 159.335 91.1113L153.335 91.1113L147.335 91.1114C147.335 95.7139 150.845 98.4154 153.255 99.6205L155.938 94.2539ZM153.335 91.1113H159.335C159.335 92.1983 158.886 92.9323 158.632 93.2384C158.407 93.5103 158.316 93.4881 158.622 93.3353L155.938 87.9688L153.255 82.6022C150.845 83.8073 147.335 86.5088 147.335 91.1113H153.335ZM155.938 87.9688L158.622 93.3353C159.264 93.0141 160.557 92.6673 162.222 92.667L162.221 86.667L162.22 80.667C159.172 80.6675 155.945 81.2572 153.255 82.6022L155.938 87.9688ZM162.221 86.667H168.221V37.7773H162.221H156.221V86.667H162.221ZM162.221 37.7773L168.221 37.777C168.22 31.1457 163.873 27.2328 159.913 25.303C156.096 23.4432 151.793 22.8887 148.888 22.8887L148.888 28.8887L148.888 34.8887C150.596 34.8887 152.959 35.2633 154.656 36.0902C155.459 36.4818 155.853 36.8485 156.021 37.068C156.125 37.2043 156.221 37.3626 156.221 37.7777L162.221 37.7773ZM148.888 28.8887V22.8887C145.983 22.8887 141.679 23.4431 137.863 25.3027C133.902 27.2325 129.554 31.1453 129.554 37.777L135.554 37.7773L141.554 37.7777C141.554 37.3627 141.65 37.2044 141.754 37.0681C141.922 36.8486 142.315 36.4819 143.119 36.0902C144.816 35.2632 147.179 34.8887 148.888 34.8887V28.8887ZM135.554 37.7773H129.554C129.554 37.6906 129.559 37.6325 129.562 37.6102L135.524 38.2783L141.487 38.9464C141.526 38.5954 141.554 38.2026 141.554 37.7773H135.554ZM135.524 38.2783L134.158 44.1207C135.945 44.5384 137.18 45.2524 137.861 45.8813C138.189 46.1848 138.339 46.4209 138.4 46.5448C138.43 46.6051 138.44 46.6408 138.443 46.653C138.446 46.6641 138.445 46.6666 138.445 46.667H144.445H150.445C150.445 38.5872 143.123 33.8934 136.891 32.4359L135.524 38.2783ZM144.445 46.667V52.667H144.446V46.667V40.667H144.445V46.667ZM144.446 46.667L144.446 52.667C143.587 52.667 142.891 51.9681 142.891 51.1113H148.891H154.891C154.891 45.348 150.221 40.6673 144.447 40.667L144.446 46.667ZM148.891 51.1113L142.891 51.1113C142.891 50.2545 143.587 49.5557 144.446 49.5557L144.446 55.5557L144.447 61.5557C150.221 61.5554 154.891 56.8746 154.891 51.1113L148.891 51.1113ZM144.446 55.5557V49.5557H117.779V55.5557V61.5557H144.446V55.5557ZM117.779 55.5557L117.779 49.5557C118.639 49.5557 119.335 50.2547 119.335 51.1113L113.335 51.1113L107.335 51.1113C107.335 56.8745 112.004 61.5555 117.779 61.5557L117.779 55.5557ZM113.335 51.1113H119.335C119.335 51.9679 118.639 52.6668 117.78 52.667L117.778 46.667L117.777 40.667C112.003 40.6684 107.335 45.3488 107.335 51.1113H113.335ZM117.778 46.667L123.777 46.7691L123.781 46.5396L117.782 46.4375L111.783 46.3354L111.779 46.5649L117.778 46.667ZM117.782 46.4375L123.778 46.6652C123.778 46.6646 123.778 46.6638 123.778 46.662C123.779 46.66 123.779 46.6548 123.782 46.6457C123.787 46.6284 123.8 46.5872 123.834 46.5215C123.905 46.3869 124.066 46.1471 124.4 45.8461C125.09 45.2241 126.314 44.5304 128.061 44.1213L126.693 38.2793L125.325 32.4373C119.187 33.8747 112.083 38.3981 111.787 46.2098L117.782 46.4375ZM126.693 38.2793L132.656 37.61C132.661 37.6593 132.665 37.7151 132.665 37.7773H126.665H120.665C120.665 38.1787 120.688 38.57 120.731 38.9485L126.693 38.2793ZM126.665 37.7773L132.665 37.7775C132.665 34.1319 134.308 31.4077 137.126 29.3929C140.102 27.2656 144.375 26 148.888 26V20V14C142.361 14 135.523 15.7876 130.147 19.6313C124.614 23.5875 120.665 29.752 120.665 37.7772L126.665 37.7773Z" fill="white" mask="url(#path-1-outside-1_1062_23829)"/>
<path d="M128.926 79.2015C129.485 79.5558 130.031 79.9313 130.554 80.3045C130.598 80.3383 130.637 80.3694 130.679 80.3962C135.663 84.0605 139.096 88.9325 141.031 94.4925C143.441 101.392 143.528 109.341 141.375 117.324C140.927 119.023 140.366 120.721 139.714 122.415C138.815 124.741 137.722 127.045 136.439 129.312C136.185 129.768 135.92 130.224 135.646 130.673C135.414 131.049 135.18 131.428 134.941 131.805C134.702 132.182 134.462 132.552 134.221 132.921C132.519 135.475 130.648 137.826 128.654 139.951C127.416 141.267 126.123 142.501 124.786 143.635C118.429 149.083 111.137 152.449 103.796 153.224C103.796 153.224 103.792 153.222 103.789 153.226C97.9123 153.845 92.0019 152.803 86.5394 149.82C86.5055 149.799 86.4605 149.776 86.4197 149.756C85.876 149.453 85.336 149.135 84.7984 148.794C84.1719 148.396 83.563 147.981 82.976 147.549C74.8127 141.524 70.2426 131.966 69.6448 121.527L69.3781 121.358C68.496 120.792 65.6874 118.988 64.4131 118.18C50.4176 109.305 46.2841 92.7595 54.0499 80.5124C54.3184 80.0891 54.5953 79.6711 54.8949 79.2735C62.9761 68.0455 79.0337 65.2526 92.5424 73.8183C94.0621 74.782 96.8383 77.1715 96.8961 77.5109C96.958 77.4789 97.0172 77.4511 97.0667 77.4291C97.54 77.2069 97.7982 77.1273 97.7982 77.1273C107.479 73.2052 118.062 73.2619 126.991 78.0693C127.647 78.42 128.294 78.7946 128.929 79.1972L128.926 79.2015Z" fill="#4B9AE8"/>
<path d="M94.1228 105.262L114.271 123.682C119.189 128.179 126.2 127.548 128.121 122.417C131.121 114.411 132.679 102.791 122.571 93.5523C114.127 85.833 104.039 85.7102 95.9543 87.5856C88.3628 89.3434 87.3637 99.0851 94.1209 105.256L94.1228 105.262Z" fill="#276288"/>
<path d="M80.0485 70.3501C81.0512 68.0142 84.8458 64.8424 87.6319 65.6111C90.4179 66.3798 92.2239 71.2011 91.6194 73.8529C91.0164 76.4995 88.5563 77.7311 84.3989 76.5788C80.1959 75.4135 79.0457 72.686 80.0485 70.3501Z" fill="#EAC00F"/>
<path d="M74.2609 87.6694C77.522 87.8049 80.2755 85.271 80.4109 82.0099C80.5464 78.7488 78.0125 75.9953 74.7514 75.8599C71.4903 75.7244 68.7369 78.2583 68.6014 81.5194C68.466 84.7805 70.9998 87.534 74.2609 87.6694Z" fill="white"/>
<path d="M74.3771 84.9122C76.1154 84.9844 77.5831 83.6338 77.6553 81.8956C77.7275 80.1573 76.3769 78.6896 74.6386 78.6174C72.9003 78.5452 71.4327 79.8958 71.3605 81.6341C71.2883 83.3724 72.6389 84.84 74.3771 84.9122Z" fill="#040000"/>
<path d="M59.8006 142.56C69.554 141.534 77.6479 135.879 81.9358 128.132C86.0994 132.068 92.0181 134.235 98.3208 133.572C101.037 133.286 103.574 132.501 105.843 131.322C110.552 141.922 122.079 148.768 134.714 147.439C150.251 145.804 161.578 132.422 160.013 117.55C158.448 102.679 144.584 91.948 129.046 93.5831C122.276 94.2956 116.305 97.2382 111.852 101.563C107.674 96.8395 101.194 94.1318 94.2473 94.8628C88.9926 95.4158 84.4083 97.8381 81.1435 101.361C75.6617 92.7713 65.3319 87.5257 54.1331 88.7042C38.5957 90.3393 27.2687 103.721 28.8337 118.593C30.3987 133.464 44.2632 144.195 59.8006 142.56Z" fill="#C4DDFA"/>
<path d="M153.335 91.1113C153.335 92.2901 154.271 93.4205 155.938 94.254C157.605 95.0875 159.866 95.5558 162.224 95.5558C164.581 95.5558 166.842 95.0875 168.509 94.254C170.176 93.4205 171.113 92.2901 171.113 91.1113C171.113 89.9326 170.176 88.8021 168.509 87.9686C166.842 87.1351 164.581 86.6669 162.224 86.6669C159.866 86.6669 157.605 87.1351 155.938 87.9686C154.271 88.8021 153.335 89.9326 153.335 91.1113Z" fill="#99AAB5"/>
<path d="M166.665 113.333C164.207 113.333 162.221 111.347 162.221 108.889V37.7778C162.221 30.7467 153.501 28.8889 148.887 28.8889C144.274 28.8889 135.554 30.7467 135.554 37.7778C135.554 40.2311 133.567 42.2222 131.109 42.2222C128.652 42.2222 126.665 40.2311 126.665 37.7778C126.665 26.1067 137.847 20 148.887 20C159.927 20 171.109 26.1067 171.109 37.7778V108.889C171.109 111.347 169.123 113.333 166.665 113.333Z" fill="#CCD6DD"/>
<path d="M144.445 46.6665C144.445 51.5731 138.476 51.1109 131.112 51.1109C123.747 51.1109 117.778 51.5731 117.778 46.6665C117.778 41.7598 123.747 37.7776 131.112 37.7776C138.476 37.7776 144.445 41.7598 144.445 46.6665Z" fill="#99AAB5"/>
<path d="M148.891 51.1113C148.891 53.5646 146.904 55.5558 144.446 55.5558H117.779C115.322 55.5558 113.335 53.5646 113.335 51.1113C113.335 48.658 115.322 46.6669 117.779 46.6669H144.446C146.904 46.6669 148.891 48.658 148.891 51.1113Z" fill="#CCD6DD"/>
<path d="M64.4434 171.111C64.4434 173.469 65.3799 175.73 67.0469 177.397C68.7138 179.064 70.9748 180 73.3322 180C75.6897 180 77.9506 179.064 79.6176 177.397C81.2846 175.73 82.2211 173.469 82.2211 171.111C82.2211 168.754 81.2846 166.493 79.6176 164.826C77.9506 163.159 75.6897 162.222 73.3322 162.222C70.9748 162.222 68.7138 163.159 67.0469 164.826C65.3799 166.493 64.4434 168.754 64.4434 171.111Z" fill="#99AAB5"/>
<path d="M135.557 171.111C135.557 172.279 135.787 173.434 136.233 174.513C136.68 175.591 137.335 176.571 138.16 177.397C138.986 178.222 139.965 178.877 141.044 179.324C142.122 179.77 143.278 180 144.446 180C145.613 180 146.769 179.77 147.847 179.324C148.926 178.877 149.906 178.222 150.731 177.397C151.556 176.571 152.211 175.591 152.658 174.513C153.105 173.434 153.334 172.279 153.334 171.111C153.334 168.754 152.398 166.493 150.731 164.826C149.064 163.159 146.803 162.222 144.446 162.222C142.088 162.222 139.827 163.159 138.16 164.826C136.493 166.493 135.557 168.754 135.557 171.111Z" fill="#99AAB5"/>
<path d="M153.333 171.111H73.3334C51.1111 171.111 28.8889 144.445 24.4445 108.889C23.3422 100.071 28.0533 104.445 37.8711 104.445C37.8711 104.445 95.5556 113.333 153.333 113.333C162.222 113.333 175.556 107.96 175.556 117.778C175.556 117.778 171.111 171.111 153.333 171.111Z" fill="#CCD6DD"/>
<path d="M180 113.333C180 115.791 178.013 117.778 175.556 117.778L24.4444 108.889C21.9911 108.889 20 106.902 20 104.444C20 101.987 21.9911 100 24.4444 100L175.556 108.889C178.013 108.889 180 110.876 180 113.333Z" fill="#99AAB5"/>
</svg>
