<svg width="200" height="200" viewBox="0 0 200 200" fill="none" xmlns="http://www.w3.org/2000/svg">
<mask id="path-1-outside-1_1062_16744" maskUnits="userSpaceOnUse" x="43.998" y="10" width="113" height="182" fill="black">
<rect fill="white" x="43.998" y="10" width="113" height="182"/>
<path d="M71.6445 16C76.4737 16 80.3887 17.3445 80.3887 19.0029L82.0225 37.416L88.0977 36.583C88.2196 36.5002 88.3426 36.4183 88.4668 36.3379C88.4668 36.3379 88.5784 34.154 88.6211 33.2666C88.643 32.8096 88.6827 32.3597 88.7393 31.918C87.3331 31.3292 85.8609 29.9434 85.9785 28.8525C86.1252 27.4973 88.75 26.2058 90.3369 26.376C90.3968 26.3824 90.4559 26.3925 90.5146 26.4014C92.9267 22.0294 97.3589 19.3394 102.296 19.5742C109.479 19.9155 115.006 26.3051 114.614 34.5029C114.572 35.3985 114.222 37.1728 114.094 37.2842C114.352 37.4594 114.472 37.5695 114.478 37.5742C118.076 40.4191 120.504 44.3282 121.094 48.6768C126.368 49.3751 131.146 50.3292 135.229 51.4873C139.728 52.7632 143.442 54.3014 146.054 56.0527C148.629 57.7796 150.362 59.8766 150.362 62.3145C150.362 64.7521 148.629 66.8494 146.054 68.5762C145.275 69.0983 144.398 69.6002 143.432 70.083C143.266 71.459 143.064 73.1038 142.845 74.7822C142.567 76.9089 142.264 79.0985 141.979 80.8682C141.836 81.7519 141.696 82.541 141.565 83.1689C141.443 83.7555 141.306 84.3094 141.15 84.6475L141.151 84.6484C141.032 84.9076 140.842 85.1368 140.663 85.3223C140.629 85.3576 140.592 85.3918 140.555 85.4277C140.553 85.4375 140.553 85.4473 140.552 85.457C139.256 95.663 137.518 109.278 135.753 122.911C133.988 136.544 132.194 150.198 130.785 160.481C130.081 165.622 129.472 169.926 129.012 172.964C128.782 174.481 128.587 175.692 128.436 176.535C128.36 176.954 128.292 177.297 128.234 177.546C128.206 177.667 128.174 177.788 128.141 177.891C128.124 177.94 128.1 178.011 128.064 178.085C128.047 178.122 128.016 178.179 127.973 178.242C127.936 178.295 127.848 178.416 127.693 178.519H127.692C127.692 178.519 127.691 178.521 127.689 178.521C127.687 178.523 127.683 178.525 127.679 178.528C127.669 178.535 127.657 178.545 127.642 178.557C127.609 178.581 127.569 178.612 127.519 178.652C127.42 178.73 127.284 178.837 127.126 178.959C126.804 179.207 126.372 179.529 125.816 179.897C124.705 180.635 123.115 181.55 120.942 182.44C116.596 184.222 109.949 185.896 100.18 185.896C90.4105 185.895 83.7664 184.222 79.4209 182.44C77.2493 181.55 75.6596 180.636 74.5479 179.898C73.9925 179.53 73.5592 179.208 73.2373 178.96C73.0792 178.838 72.9427 178.73 72.8447 178.653C72.7939 178.614 72.7538 178.583 72.7217 178.559C72.706 178.547 72.6939 178.537 72.6846 178.53C72.6801 178.527 72.6763 178.525 72.6738 178.523C72.6714 178.522 72.6699 178.521 72.6699 178.521C72.5157 178.419 72.4265 178.299 72.3896 178.246C72.3455 178.183 72.315 178.125 72.2969 178.088C72.2608 178.013 72.2361 177.942 72.2197 177.893C72.1856 177.789 72.1535 177.668 72.125 177.547C72.0666 177.298 71.9995 176.955 71.9238 176.536C71.7715 175.693 71.5761 174.483 71.3457 172.965C70.8843 169.926 70.2756 165.623 69.5713 160.481C68.1624 150.198 66.3694 136.544 64.6045 122.911C62.8395 109.278 61.103 95.663 59.8076 85.457C59.8063 85.4466 59.805 85.4362 59.8037 85.4258C59.7675 85.3907 59.7317 85.3569 59.6982 85.3223C59.5189 85.1367 59.3284 84.9077 59.209 84.6484C59.0533 84.3104 58.9185 83.7548 58.7959 83.166C58.6651 82.5376 58.5254 81.7481 58.3828 80.8643C58.0973 79.0941 57.7933 76.9046 57.5156 74.7783C57.2966 73.1012 57.0938 71.4579 56.9277 70.083C56.4366 69.8375 55.9692 69.5859 55.5254 69.3301H54.3467L54.9902 69.0117C54.7551 68.8674 54.5264 68.7235 54.3066 68.5762C51.7314 66.8494 49.9984 64.7521 49.998 62.3145C49.998 59.8766 51.7314 57.7796 54.3066 56.0527C56.9185 54.3014 60.6322 52.7632 65.1309 51.4873C65.5437 51.3702 65.9638 51.2555 66.3906 51.1426L62.9268 19.2334C62.9268 19.2334 62.9268 19.2332 62.9268 19.2217C62.9115 19.1492 62.9004 19.0767 62.9004 19.0029C62.9004 17.3445 66.8155 16.0001 71.6445 16Z"/>
</mask>
<path d="M71.6445 16L71.6445 10L71.6444 10L71.6445 16ZM80.3887 19.0029H74.3887C74.3887 19.18 74.3965 19.3569 74.4122 19.5332L80.3887 19.0029ZM82.0225 37.416L76.0459 37.9463C76.191 39.5809 76.9992 41.0848 78.2824 42.1077C79.5656 43.1306 81.2117 43.5833 82.8375 43.3604L82.0225 37.416ZM88.0977 36.583L88.9127 42.5274C89.8285 42.4018 90.7029 42.0664 91.4676 41.5472L88.0977 36.583ZM88.4668 36.3379L91.7268 41.375C93.3443 40.3281 94.3606 38.5683 94.459 36.6442L88.4668 36.3379ZM88.6211 33.2666L94.6142 33.5547L94.6142 33.5535L88.6211 33.2666ZM88.7393 31.918L94.6906 32.6806C95.0337 30.003 93.5465 27.426 91.0564 26.3835L88.7393 31.918ZM85.9785 28.8525L80.0133 28.207L80.0131 28.2092L85.9785 28.8525ZM90.3369 26.376L90.9771 20.4102L90.9766 20.4102L90.3369 26.376ZM90.5146 26.4014L89.619 32.3341C92.1017 32.7089 94.5552 31.4982 95.7681 29.2998L90.5146 26.4014ZM102.296 19.5742L102.011 25.5674L102.011 25.5675L102.296 19.5742ZM114.614 34.5029L108.621 34.2162L108.621 34.2175L114.614 34.5029ZM114.094 37.2842L110.155 32.7576C108.75 33.9803 107.992 35.7864 108.105 37.6458C108.217 39.5052 109.186 41.207 110.729 42.2517L114.094 37.2842ZM114.478 37.5742L110.409 41.9842C110.521 42.0875 110.637 42.1865 110.756 42.2809L114.478 37.5742ZM121.094 48.6768L115.148 49.4833C115.512 52.164 117.624 54.2698 120.306 54.6248L121.094 48.6768ZM135.229 51.4873L136.867 45.715L136.867 45.715L135.229 51.4873ZM146.054 56.0527L149.395 51.0694L149.395 51.0693L146.054 56.0527ZM150.362 62.3145L156.362 62.3153V62.3145H150.362ZM146.054 68.5762L149.395 73.5597L149.395 73.5596L146.054 68.5762ZM143.432 70.083L140.75 64.7159C138.947 65.6168 137.716 67.3629 137.475 69.364L143.432 70.083ZM142.845 74.7822L148.794 75.559L148.794 75.559L142.845 74.7822ZM141.979 80.8682L147.902 81.8237L147.902 81.8237L141.979 80.8682ZM141.565 83.1689L147.439 84.3932L147.439 84.393L141.565 83.1689ZM141.15 84.6475L135.702 82.1345C134.649 84.4167 135.131 87.113 136.908 88.8901L141.15 84.6475ZM141.151 84.6484L146.601 87.1594C147.652 84.8776 147.171 82.1823 145.394 80.4058L141.151 84.6484ZM140.663 85.3223L144.977 89.4924L144.977 89.492L140.663 85.3223ZM140.555 85.4277L136.381 81.1172C135.402 82.0656 134.774 83.3193 134.602 84.6719L140.555 85.4277ZM140.552 85.457L146.504 86.2129L140.552 85.457ZM135.753 122.911L141.703 123.682L135.753 122.911ZM130.785 160.481L136.73 161.296L136.73 161.296L130.785 160.481ZM129.012 172.964L134.944 173.863L134.944 173.863L129.012 172.964ZM128.436 176.535L134.341 177.599L134.341 177.599L128.436 176.535ZM128.234 177.546L134.077 178.91L134.077 178.91L128.234 177.546ZM128.141 177.891L133.841 179.763L133.841 179.763L128.141 177.891ZM128.064 178.085L133.471 180.687L133.472 180.684L128.064 178.085ZM127.973 178.242L132.907 181.656L132.908 181.654L127.973 178.242ZM127.693 178.519V184.519C128.878 184.519 130.036 184.168 131.022 183.511L127.693 178.519ZM127.692 178.519V172.519C126.242 172.519 124.841 173.044 123.749 173.997L127.692 178.519ZM127.689 178.521L131.084 183.469C131.098 183.459 131.112 183.449 131.127 183.439L127.689 178.521ZM127.679 178.528L124.162 173.667L124.157 173.671L127.679 178.528ZM127.642 178.557L124.02 173.773L124.019 173.774L127.642 178.557ZM127.519 178.652L123.812 173.934L123.812 173.934L127.519 178.652ZM127.126 178.959L130.793 183.708L130.793 183.708L127.126 178.959ZM125.816 179.897L129.133 184.898L129.133 184.897L125.816 179.897ZM120.942 182.44L123.218 187.992L123.218 187.992L120.942 182.44ZM100.18 185.896L100.18 191.896H100.18V185.896ZM79.4209 182.44L77.1446 187.992L77.1447 187.992L79.4209 182.44ZM74.5479 179.898L71.2321 184.899L71.2322 184.899L74.5479 179.898ZM73.2373 178.96L69.5749 183.713L69.575 183.713L73.2373 178.96ZM72.8447 178.653L76.5422 173.928L76.5421 173.928L72.8447 178.653ZM72.7217 178.559L69.1123 183.352L69.1128 183.352L72.7217 178.559ZM72.6846 178.53L76.1854 173.657L76.1756 173.65L72.6846 178.53ZM72.6738 178.523L69.2475 183.449L69.2556 183.455L72.6738 178.523ZM72.6699 178.521L78.2391 176.288C77.7852 175.156 76.9969 174.189 75.9794 173.516L72.6699 178.521ZM72.3896 178.246L67.4683 181.678L67.4694 181.68L72.3896 178.246ZM72.2969 178.088L66.8974 180.704L66.8976 180.705L72.2969 178.088ZM72.2197 177.893L66.5227 179.775L66.5229 179.776L72.2197 177.893ZM72.125 177.547L66.2835 178.917L66.2836 178.917L72.125 177.547ZM71.9238 176.536L66.0193 177.602L66.0193 177.602L71.9238 176.536ZM71.3457 172.965L65.4137 173.866L65.4137 173.866L71.3457 172.965ZM69.5713 160.481L63.6268 161.296L63.6268 161.296L69.5713 160.481ZM64.6045 122.911L58.6541 123.681L58.6541 123.681L64.6045 122.911ZM59.8076 85.457L53.8554 86.2125L59.8076 85.457ZM59.8037 85.4258L65.756 84.6703C65.5846 83.3202 64.9594 82.0685 63.9829 81.1206L59.8037 85.4258ZM59.6982 85.3223L55.3841 89.4922L55.3848 89.4929L59.6982 85.3223ZM59.209 84.6484L53.759 87.158L53.7597 87.1594L59.209 84.6484ZM58.7959 83.166L52.9218 84.3889L52.9219 84.3891L58.7959 83.166ZM58.3828 80.8643L52.4593 81.8195L52.4594 81.8196L58.3828 80.8643ZM57.5156 74.7783L51.5661 75.5552L51.5661 75.5552L57.5156 74.7783ZM56.9277 70.083L62.8845 69.3637C62.6428 67.3628 61.4128 65.6169 59.61 64.7159L56.9277 70.083ZM55.5254 69.3301L58.5216 64.1317C57.6104 63.6065 56.5771 63.3301 55.5254 63.3301V69.3301ZM54.3467 69.3301L51.6863 63.9521C49.1878 65.1881 47.8696 67.9819 48.5043 70.6962C49.1389 73.4104 51.5592 75.3301 54.3467 75.3301V69.3301ZM54.9902 69.0117L57.6506 74.3897C59.608 73.4214 60.8848 71.466 60.984 69.2844C61.0833 67.1029 59.9894 65.0397 58.1281 63.8976L54.9902 69.0117ZM54.3066 68.5762L50.9651 73.5596L50.9652 73.5596L54.3066 68.5762ZM49.998 62.3145L43.998 62.3145L43.998 62.3153L49.998 62.3145ZM54.3066 56.0527L50.9651 51.0693L50.965 51.0694L54.3066 56.0527ZM65.1309 51.4873L63.4938 45.715L63.4937 45.715L65.1309 51.4873ZM66.3906 51.1426L67.9247 56.9432C70.7926 56.1847 72.6757 53.4442 72.3556 50.4951L66.3906 51.1426ZM62.9268 19.2334H56.9268C56.9268 19.4497 56.9385 19.6659 56.9618 19.8809L62.9268 19.2334ZM62.9268 19.2217H68.9268C68.9268 18.8067 68.8837 18.3929 68.7983 17.9868L62.9268 19.2217ZM62.9004 19.0029L56.9004 19.0029L56.9004 19.0034L62.9004 19.0029ZM71.6445 16V22C73.5784 22 75.0755 22.2784 75.8787 22.5542C76.3095 22.7022 76.2282 22.7427 75.9196 22.4921C75.6598 22.2811 74.3887 21.138 74.3887 19.0029H80.3887H86.3887C86.3887 16.0386 84.6282 14.1055 83.4835 13.1761C82.2898 12.207 80.928 11.6004 79.7764 11.2049C77.4149 10.3939 74.5398 10 71.6445 10V16ZM80.3887 19.0029L74.4122 19.5332L76.0459 37.9463L82.0225 37.416L87.999 36.8857L86.3652 18.4726L80.3887 19.0029ZM82.0225 37.416L82.8375 43.3604L88.9127 42.5274L88.0977 36.583L87.2826 30.6386L81.2074 31.4716L82.0225 37.416ZM88.0977 36.583L91.4676 41.5472C91.5613 41.4836 91.6469 41.4267 91.7268 41.375L88.4668 36.3379L85.2067 31.3008C85.0382 31.4099 84.878 31.5168 84.7277 31.6188L88.0977 36.583ZM88.4668 36.3379C94.459 36.6442 94.459 36.6442 94.459 36.6442C94.459 36.6441 94.459 36.6441 94.459 36.6441C94.459 36.644 94.459 36.6439 94.459 36.6438C94.459 36.6435 94.459 36.6431 94.4591 36.6425C94.4591 36.6415 94.4592 36.6399 94.4593 36.6378C94.4595 36.6336 94.4598 36.6274 94.4603 36.6192C94.4611 36.6029 94.4623 36.5789 94.4639 36.5481C94.467 36.4865 94.4716 36.3975 94.4771 36.2879C94.4883 36.0689 94.5036 35.7675 94.5203 35.4382C94.5535 34.7825 94.5924 34.0072 94.6142 33.5547L88.6211 33.2666L82.628 32.9785C82.6071 33.4134 82.5689 34.1737 82.5356 34.8318C82.519 35.1594 82.5038 35.4595 82.4927 35.6776C82.4871 35.7867 82.4826 35.8753 82.4795 35.9365C82.4779 35.9672 82.4767 35.991 82.4759 36.0071C82.4755 36.0152 82.4751 36.0213 82.4749 36.0254C82.4748 36.0275 82.4748 36.029 82.4747 36.0301C82.4747 36.0306 82.4747 36.031 82.4746 36.0312C82.4746 36.0314 82.4746 36.0314 82.4746 36.0315C82.4746 36.0315 82.4746 36.0316 82.4746 36.0316C82.4746 36.0316 82.4746 36.0316 88.4668 36.3379ZM88.6211 33.2666L94.6142 33.5535C94.6285 33.2547 94.6543 32.9635 94.6906 32.6806L88.7393 31.918L82.7879 31.1553C82.711 31.7558 82.6574 32.3644 82.628 32.9797L88.6211 33.2666ZM88.7393 31.918L91.0564 26.3835C91.1134 26.4073 91.087 26.388 91.1354 26.4389C91.1702 26.4755 91.357 26.6743 91.5496 27.0672C91.734 27.4431 92.0721 28.3077 91.9439 29.4959L85.9785 28.8525L80.0131 28.2092C79.6602 31.4812 81.5899 33.8148 82.4395 34.7082C83.5461 35.8719 84.9589 36.8399 86.4221 37.4525L88.7393 31.918ZM85.9785 28.8525L91.9437 29.4981C91.7878 30.9389 91.0702 31.7672 90.8627 31.9871C90.7223 32.136 90.6115 32.223 90.5578 32.2625C90.5011 32.3042 90.4694 32.3212 90.4668 32.3226C90.463 32.3247 90.4685 32.3216 90.4788 32.3175C90.4895 32.3134 90.4877 32.3151 90.4674 32.3201C90.4492 32.3247 90.3864 32.3396 90.2781 32.35C90.175 32.36 89.9747 32.3715 89.6972 32.3418L90.3369 26.376L90.9766 20.4102C88.582 20.1534 86.2943 20.9386 84.7684 21.7619C83.9249 22.217 82.9726 22.8635 82.1338 23.7527C81.3433 24.5906 80.2426 26.0886 80.0133 28.207L85.9785 28.8525ZM90.3369 26.376L89.6967 32.3417C89.6505 32.3368 89.6129 32.332 89.5868 32.3285C89.561 32.3251 89.5429 32.3224 89.5372 32.3215C89.5329 32.3209 89.5319 32.3207 89.5477 32.3232C89.5584 32.3248 89.5879 32.3295 89.619 32.3341L90.5146 26.4014L91.4103 20.4686C91.412 20.4689 91.4121 20.4689 91.3933 20.466C91.3797 20.4638 91.3492 20.4591 91.3153 20.454C91.2478 20.4439 91.1256 20.4262 90.9771 20.4102L90.3369 26.376ZM90.5146 26.4014L95.7681 29.2998C97.1734 26.7527 99.5557 25.4507 102.011 25.5674L102.296 19.5742L102.581 13.581C95.1622 13.2281 88.6801 17.3061 85.2612 23.5029L90.5146 26.4014ZM102.296 19.5742L102.011 25.5675C105.432 25.73 108.877 28.8589 108.621 34.2162L114.614 34.5029L120.607 34.7897C121.136 23.7513 113.526 14.1011 102.581 13.581L102.296 19.5742ZM114.614 34.5029L108.621 34.2175C108.622 34.1882 108.618 34.2691 108.59 34.4751C108.564 34.6596 108.53 34.8681 108.493 35.0617C108.474 35.1566 108.458 35.2384 108.443 35.3036C108.436 35.3358 108.43 35.3612 108.426 35.3797C108.421 35.3987 108.419 35.4066 108.42 35.4047C108.42 35.4039 108.425 35.3835 108.436 35.3477C108.446 35.3158 108.468 35.2415 108.505 35.1397C108.534 35.0579 108.613 34.8444 108.747 34.5748C108.815 34.4378 108.933 34.2128 109.108 33.9493C109.26 33.7211 109.598 33.2428 110.155 32.7576L114.094 37.2842L118.032 41.8108C118.997 40.9709 119.439 40.0238 119.494 39.9141C119.647 39.6058 119.746 39.3419 119.797 39.1991C119.905 38.8993 119.981 38.6252 120.026 38.4525C120.124 38.0795 120.21 37.6761 120.279 37.3136C120.407 36.6434 120.566 35.6541 120.607 34.7883L114.614 34.5029ZM114.094 37.2842L110.729 42.2517C110.733 42.2546 110.619 42.1774 110.409 41.9842L114.478 37.5742L118.546 33.1642C118.326 32.9617 117.972 32.6643 117.459 32.3167L114.094 37.2842ZM114.478 37.5742L110.756 42.2809C113.303 44.2944 114.794 46.872 115.148 49.4833L121.094 48.6768L127.039 47.8702C126.214 41.7843 122.849 36.5438 118.199 32.8675L114.478 37.5742ZM121.094 48.6768L120.306 54.6248C125.356 55.2935 129.842 56.1961 133.592 57.2597L135.229 51.4873L136.867 45.715C132.449 44.4622 127.38 43.4567 121.881 42.7287L121.094 48.6768ZM135.229 51.4873L133.592 57.2596C137.798 58.4523 140.838 59.7796 142.712 61.0361L146.054 56.0527L149.395 51.0693C146.045 48.8232 141.659 47.0741 136.867 45.715L135.229 51.4873ZM146.054 56.0527L142.712 61.0361C143.624 61.6479 144.1 62.1404 144.311 62.4318C144.486 62.6735 144.362 62.6041 144.362 62.3145H150.362H156.362C156.362 56.8049 152.482 53.1394 149.395 51.0694L146.054 56.0527ZM150.362 62.3145L144.362 62.3136C144.362 62.0243 144.486 61.9553 144.311 62.1972C144.1 62.4888 143.624 62.9813 142.712 63.5928L146.054 68.5762L149.395 73.5596C152.483 71.4891 156.361 67.8235 156.362 62.3153L150.362 62.3145ZM146.054 68.5762L142.712 63.5927C142.183 63.9478 141.532 64.3246 140.75 64.7159L143.432 70.083L146.114 75.4502C147.263 74.8758 148.367 74.2487 149.395 73.5597L146.054 68.5762ZM143.432 70.083L137.475 69.364C137.31 70.7324 137.111 72.3552 136.895 74.0055L142.845 74.7822L148.794 75.559C149.017 73.8524 149.221 72.1855 149.388 70.8021L143.432 70.083ZM142.845 74.7822L136.895 74.0055C136.62 76.1136 136.326 78.2327 136.055 79.9127L141.979 80.8682L147.902 81.8237C148.202 79.9642 148.514 77.7043 148.794 75.559L142.845 74.7822ZM141.979 80.8682L136.055 79.9126C135.919 80.7569 135.796 81.445 135.692 81.9449L141.565 83.1689L147.439 84.393C147.597 83.637 147.753 82.7469 147.902 81.8237L141.979 80.8682ZM141.565 83.1689L135.692 81.9447C135.668 82.0584 135.646 82.157 135.627 82.2419C135.607 82.3278 135.591 82.3889 135.58 82.429C135.569 82.4715 135.568 82.4708 135.579 82.4374C135.585 82.4192 135.597 82.3849 135.615 82.3376C135.634 82.291 135.662 82.2214 135.702 82.1345L141.15 84.6475L146.599 87.1604C147.083 86.1105 147.333 84.9016 147.439 84.3932L141.565 83.1689ZM141.15 84.6475L136.908 88.8901L136.909 88.8911L141.151 84.6484L145.394 80.4058L145.393 80.4048L141.15 84.6475ZM141.151 84.6484L135.702 82.1375C135.861 81.792 136.028 81.5488 136.131 81.4109C136.237 81.27 136.32 81.1818 136.349 81.1526L140.663 85.3223L144.977 89.492C145.346 89.1102 146.069 88.3128 146.601 87.1594L141.151 84.6484ZM140.663 85.3223L136.349 81.1521C136.381 81.1187 136.408 81.0924 136.425 81.0754C136.442 81.0587 136.454 81.0475 136.455 81.0459C136.456 81.0449 136.456 81.0451 136.453 81.0478C136.452 81.0491 136.451 81.0505 136.448 81.0527C136.446 81.0547 136.443 81.0575 136.44 81.0604C136.429 81.0712 136.407 81.0924 136.381 81.1172L140.555 85.4277L144.728 89.7383C144.721 89.7451 144.718 89.7486 144.725 89.7418C144.727 89.7394 144.747 89.7203 144.765 89.7037C144.801 89.6688 144.882 89.5907 144.977 89.4924L140.663 85.3223ZM140.555 85.4277L134.602 84.6719C134.597 84.7126 134.593 84.7489 134.59 84.7797C134.586 84.8105 134.584 84.8371 134.582 84.8579C134.58 84.8786 134.578 84.8956 134.577 84.9063C134.577 84.9118 134.576 84.9163 134.576 84.9193C134.576 84.9221 134.576 84.9246 134.576 84.9249C134.576 84.9258 134.576 84.9245 134.576 84.923C134.576 84.9212 134.576 84.9179 134.577 84.9136C134.577 84.9053 134.579 84.8908 134.58 84.8725C134.582 84.8541 134.585 84.83 134.588 84.8017C134.591 84.7733 134.595 84.7394 134.6 84.7012L140.552 85.457L146.504 86.2129C146.509 86.1722 146.513 86.1359 146.517 86.1051C146.52 86.0743 146.523 86.0477 146.525 86.0269C146.527 86.0062 146.528 85.9892 146.529 85.9785C146.53 85.973 146.53 85.9684 146.53 85.9655C146.531 85.9627 146.531 85.9602 146.531 85.9599C146.531 85.959 146.531 85.9602 146.531 85.9618C146.531 85.9635 146.53 85.9669 146.53 85.9711C146.529 85.9794 146.528 85.9939 146.526 86.0122C146.524 86.0306 146.522 86.0547 146.519 86.083C146.516 86.1114 146.512 86.1453 146.507 86.1836L140.555 85.4277ZM140.552 85.457L134.6 84.7012C133.304 94.9044 131.567 108.514 129.803 122.141L135.753 122.911L141.703 123.682C143.47 110.042 145.208 96.4215 146.504 86.2129L140.552 85.457ZM135.753 122.911L129.803 122.141C128.038 135.77 126.246 149.406 124.841 159.667L130.785 160.481L136.73 161.296C138.141 150.989 139.937 137.318 141.703 123.682L135.753 122.911ZM130.785 160.481L124.841 159.667C124.137 164.801 123.534 169.07 123.08 172.064L129.012 172.964L134.944 173.863C135.411 170.781 136.025 166.443 136.73 161.296L130.785 160.481ZM129.012 172.964L123.08 172.064C122.851 173.57 122.667 174.713 122.531 175.472L128.436 176.535L134.341 177.599C134.508 176.67 134.712 175.393 134.944 173.863L129.012 172.964ZM128.436 176.535L122.531 175.472C122.461 175.861 122.414 176.084 122.392 176.182L128.234 177.546L134.077 178.91C134.171 178.51 134.26 178.048 134.341 177.599L128.436 176.535ZM128.234 177.546L122.392 176.181C122.389 176.191 122.391 176.184 122.396 176.164C122.401 176.146 122.415 176.094 122.44 176.019L128.141 177.891L133.841 179.763C133.952 179.425 134.029 179.115 134.077 178.91L128.234 177.546ZM128.141 177.891L122.44 176.018C122.447 175.999 122.519 175.772 122.657 175.486L128.064 178.085L133.472 180.684C133.681 180.25 133.802 179.881 133.841 179.763L128.141 177.891ZM128.064 178.085L122.658 175.483C122.744 175.304 122.866 175.078 123.037 174.83L127.973 178.242L132.908 181.654C133.167 181.28 133.349 180.94 133.471 180.687L128.064 178.085ZM127.973 178.242L123.038 174.829C123.188 174.612 123.61 174.03 124.365 173.526L127.693 178.519L131.022 183.511C132.086 182.802 132.684 181.977 132.907 181.656L127.973 178.242ZM127.693 178.519V172.519H127.692V178.519V184.519H127.693V178.519ZM127.692 178.519L123.749 173.997C123.575 174.149 123.446 174.279 123.38 174.346C123.31 174.419 123.257 174.478 123.234 174.503C123.212 174.528 123.192 174.551 123.198 174.544C123.198 174.544 123.203 174.538 123.209 174.531C123.215 174.524 123.225 174.514 123.236 174.501C123.277 174.455 123.382 174.34 123.525 174.202C123.663 174.069 123.91 173.843 124.252 173.604L127.689 178.521L131.127 183.439C131.469 183.2 131.717 182.973 131.855 182.84C131.999 182.701 132.105 182.585 132.146 182.539C132.158 182.526 132.168 182.515 132.174 182.508C132.18 182.501 132.185 182.496 132.185 182.495C132.192 182.488 132.172 182.511 132.15 182.535C132.127 182.56 132.074 182.619 132.004 182.691C131.939 182.759 131.81 182.889 131.636 183.04L127.692 178.519ZM127.689 178.521L124.295 173.574C124.37 173.522 124.433 173.482 124.477 173.454C124.52 173.426 124.556 173.405 124.575 173.393C124.585 173.387 124.594 173.382 124.599 173.379C124.604 173.376 124.608 173.373 124.608 173.373C124.612 173.371 124.601 173.378 124.589 173.384C124.537 173.416 124.367 173.518 124.162 173.667L127.679 178.528L131.196 183.389C130.994 183.535 130.829 183.635 130.78 183.664C130.77 183.671 130.759 183.677 130.764 183.674C130.764 183.674 130.78 183.664 130.8 183.653C130.82 183.64 130.856 183.618 130.9 183.59C130.945 183.562 131.008 183.521 131.084 183.469L127.689 178.521ZM127.679 178.528L124.157 173.671C124.105 173.708 124.064 173.739 124.042 173.756C124.019 173.774 124 173.788 123.995 173.792C123.976 173.807 123.998 173.789 124.02 173.773L127.642 178.557L131.264 183.34C131.284 183.324 131.302 183.311 131.313 183.302C131.319 183.298 131.323 183.294 131.326 183.292C131.328 183.291 131.329 183.29 131.329 183.29C131.33 183.289 131.33 183.289 131.33 183.289C131.33 183.289 131.327 183.292 131.322 183.295C131.318 183.299 131.31 183.304 131.301 183.312C131.291 183.319 131.278 183.329 131.262 183.341C131.246 183.353 131.225 183.368 131.2 183.386L127.679 178.528ZM127.642 178.557L124.019 173.774C123.936 173.837 123.85 173.904 123.812 173.934L127.519 178.652L131.225 183.371C131.237 183.361 131.247 183.353 131.256 183.346C131.265 183.339 131.271 183.334 131.275 183.331C131.28 183.328 131.281 183.327 131.28 183.328C131.278 183.329 131.273 183.333 131.264 183.339L127.642 178.557ZM127.519 178.652L123.812 173.934C123.705 174.018 123.593 174.106 123.459 174.21L127.126 178.959L130.793 183.708C130.976 183.567 131.135 183.441 131.225 183.371L127.519 178.652ZM127.126 178.959L123.459 174.21C123.22 174.395 122.906 174.628 122.5 174.897L125.816 179.897L129.133 184.897C129.837 184.43 130.389 184.02 130.793 183.708L127.126 178.959ZM125.816 179.897L122.5 174.897C121.69 175.435 120.446 176.159 118.667 176.889L120.942 182.44L123.218 187.992C125.783 186.941 127.72 185.835 129.133 184.898L125.816 179.897ZM120.942 182.44L118.667 176.889C115.113 178.346 109.248 179.896 100.18 179.896V185.896V191.896C110.65 191.896 118.079 190.099 123.218 187.992L120.942 182.44ZM100.18 185.896L100.18 179.896C91.1114 179.895 85.2499 178.346 81.6971 176.889L79.4209 182.44L77.1447 187.992C82.2828 190.099 89.7095 191.895 100.18 191.896L100.18 185.896ZM79.4209 182.44L81.6972 176.889C79.917 176.159 78.6737 175.435 77.8635 174.898L74.5479 179.898L71.2322 184.899C72.6456 185.836 74.5816 186.941 77.1446 187.992L79.4209 182.44ZM74.5479 179.898L77.8636 174.898C77.4572 174.628 77.1423 174.394 76.8996 174.207L73.2373 178.96L69.575 183.713C69.9761 184.022 70.5278 184.432 71.2321 184.899L74.5479 179.898ZM73.2373 178.96L76.8997 174.207C76.7643 174.103 76.676 174.033 76.5422 173.928L72.8447 178.653L69.1473 183.379C69.2095 183.427 69.3941 183.573 69.5749 183.713L73.2373 178.96ZM72.8447 178.653L76.5421 173.928C76.4691 173.871 76.3988 173.817 76.3305 173.765L72.7217 178.559L69.1128 183.352C69.1088 183.349 69.1187 183.356 69.1474 183.379L72.8447 178.653ZM72.7217 178.559L76.331 173.766C76.3636 173.79 76.3936 173.814 76.3758 173.8C76.372 173.797 76.3504 173.78 76.3241 173.76C76.2979 173.74 76.2482 173.703 76.1853 173.657L72.6846 178.53L69.1838 183.403C69.1534 183.381 69.1277 183.362 69.1079 183.348C69.0881 183.333 69.0717 183.321 69.0601 183.312C69.0485 183.303 69.0393 183.296 69.0342 183.292C69.0315 183.29 69.0293 183.288 69.028 183.287C69.0266 183.286 69.0258 183.285 69.0257 183.285C69.0256 183.285 69.0256 183.285 69.0259 183.285C69.0262 183.286 69.0263 183.286 69.0269 183.286C69.0278 183.287 69.0295 183.288 69.0314 183.29C69.0352 183.293 69.0414 183.297 69.0489 183.303C69.0639 183.315 69.0859 183.332 69.1123 183.352L72.7217 178.559ZM72.6846 178.53L76.1756 173.65C75.9833 173.513 75.8249 173.417 75.7758 173.388C75.7664 173.382 75.7548 173.375 75.7609 173.379C75.7618 173.379 75.778 173.389 75.7985 173.401C75.8195 173.414 75.8567 173.437 75.9027 173.466C75.9485 173.496 76.0143 173.538 76.092 173.592L72.6738 178.523L69.2556 183.455C69.334 183.509 69.4004 183.552 69.4469 183.582C69.4936 183.612 69.5316 183.635 69.5534 183.648C69.5746 183.661 69.5917 183.671 69.5934 183.672C69.5942 183.673 69.595 183.673 69.5947 183.673C69.5947 183.673 69.5945 183.673 69.5943 183.673C69.594 183.673 69.5936 183.673 69.5931 183.672C69.5911 183.671 69.5867 183.668 69.5812 183.665C69.5356 183.638 69.3814 183.544 69.1935 183.41L72.6846 178.53ZM72.6738 178.523L76.1002 173.598C76.1954 173.664 76.277 173.725 76.3435 173.777C76.3774 173.803 76.4088 173.828 76.4378 173.851C76.4524 173.863 76.4665 173.874 76.4801 173.886C76.487 173.891 76.4938 173.897 76.5006 173.903C76.504 173.905 76.5077 173.908 76.5116 173.912C76.5134 173.913 76.5159 173.915 76.5189 173.918C76.5201 173.919 76.5228 173.921 76.5262 173.924C76.5274 173.925 76.5318 173.929 76.5373 173.933C76.5408 173.936 76.5508 173.945 76.5574 173.95C76.5767 173.967 77.5553 175.037 78.2391 176.288L72.6699 178.521L67.1007 180.753C67.7845 182.004 68.7632 183.074 68.7824 183.091C68.789 183.096 68.7991 183.105 68.8025 183.108C68.8081 183.112 68.8124 183.116 68.8136 183.117C68.8171 183.12 68.8198 183.122 68.821 183.123C68.8239 183.126 68.8264 183.128 68.8283 183.129C68.8322 183.133 68.8358 183.136 68.8392 183.138C68.8461 183.144 68.853 183.15 68.8598 183.156C68.8736 183.167 68.8878 183.178 68.9026 183.19C68.9319 183.214 68.9639 183.239 68.9984 183.266C69.0663 183.319 69.1499 183.381 69.2475 183.449L72.6738 178.523ZM72.6699 178.521L75.9794 173.516C76.7243 174.008 77.1463 174.578 77.3099 174.812L72.3896 178.246L67.4694 181.68C67.7067 182.02 68.3071 182.829 69.3605 183.525L72.6699 178.521ZM72.3896 178.246L77.311 174.814C77.4941 175.076 77.6176 175.309 77.6962 175.471L72.2969 178.088L66.8976 180.705C67.0124 180.942 67.1969 181.289 67.4683 181.678L72.3896 178.246ZM72.2969 178.088L77.6963 175.471C77.8357 175.759 77.9093 175.988 77.9166 176.01L72.2197 177.893L66.5229 179.776C66.5628 179.897 66.6858 180.268 66.8974 180.704L72.2969 178.088ZM72.2197 177.893L77.9168 176.01C77.9411 176.084 77.9551 176.134 77.9602 176.153C77.966 176.174 77.9678 176.183 77.9664 176.177L72.125 177.547L66.2836 178.917C66.3336 179.131 66.4118 179.439 66.5227 179.775L72.2197 177.893ZM72.125 177.547L77.9665 176.177C77.9451 176.086 77.9004 175.869 77.8283 175.47L71.9238 176.536L66.0193 177.602C66.0987 178.042 66.1881 178.51 66.2835 178.917L72.125 177.547ZM71.9238 176.536L77.8283 175.47C77.6911 174.71 77.5057 173.566 77.2777 172.064L71.3457 172.965L65.4137 173.866C65.6466 175.399 65.8519 176.675 66.0193 177.602L71.9238 176.536ZM71.3457 172.965L77.2777 172.064C76.8231 169.07 76.2192 164.802 75.5158 159.667L69.5713 160.481L63.6268 161.296C64.3321 166.444 64.9456 170.783 65.4137 173.866L71.3457 172.965ZM69.5713 160.481L75.5158 159.667C74.11 149.406 72.3193 135.77 70.5548 122.141L64.6045 122.911L58.6541 123.681C60.4194 137.317 62.2148 150.989 63.6268 161.296L69.5713 160.481ZM64.6045 122.911L70.5548 122.141C68.7908 108.514 67.0549 94.9048 65.7599 84.7015L59.8076 85.457L53.8554 86.2125C55.1511 96.4212 56.8883 110.041 58.6541 123.681L64.6045 122.911ZM59.8076 85.457L65.7599 84.7015C65.7602 84.7045 65.7605 84.7063 65.7605 84.7064C65.7605 84.7065 65.7605 84.7063 65.7604 84.7057C65.7603 84.705 65.7602 84.7042 65.76 84.7028C65.7598 84.7006 65.7592 84.6959 65.7585 84.6908C65.7579 84.6855 65.757 84.6784 65.756 84.6703L59.8037 85.4258L53.8515 86.1813C53.8511 86.1783 53.8509 86.1765 53.8508 86.1764C53.8508 86.1763 53.8509 86.1765 53.8509 86.1771C53.851 86.1778 53.8511 86.1786 53.8513 86.18C53.8516 86.1822 53.8522 86.1869 53.8528 86.192C53.8535 86.1973 53.8543 86.2044 53.8554 86.2125L59.8076 85.457ZM59.8037 85.4258L63.9829 81.1206C63.9734 81.1114 63.9649 81.1032 63.958 81.0965C63.9514 81.0901 63.945 81.084 63.941 81.0801C63.9364 81.0757 63.934 81.0734 63.9321 81.0715C63.9304 81.0699 63.9303 81.0698 63.9314 81.0708C63.9331 81.0725 63.9419 81.0811 63.9549 81.094C63.9679 81.107 63.9876 81.1267 64.0117 81.1517L59.6982 85.3223L55.3848 89.4929C55.4641 89.5749 55.5318 89.6412 55.5685 89.6768C55.5872 89.6949 55.6044 89.7115 55.6123 89.7192C55.6173 89.724 55.6199 89.7265 55.6223 89.7288C55.6244 89.7309 55.625 89.7314 55.6245 89.7309L59.8037 85.4258ZM59.6982 85.3223L64.0123 81.1523C64.0366 81.1774 64.119 81.2641 64.2246 81.4043C64.3279 81.5415 64.4969 81.7872 64.6583 82.1375L59.209 84.6484L53.7597 87.1594C54.2946 88.3204 55.0246 89.1203 55.3841 89.4922L59.6982 85.3223ZM59.209 84.6484L64.6589 82.1389C64.7002 82.2285 64.7294 82.3004 64.748 82.3484C64.7669 82.3973 64.7791 82.4327 64.7854 82.4516C64.797 82.4861 64.796 82.4872 64.7843 82.4435C64.7732 82.4022 64.7574 82.3394 64.7369 82.2507C64.7167 82.1629 64.6945 82.061 64.6699 81.9429L58.7959 83.166L52.9219 84.3891C53.0229 84.8741 53.2723 86.1009 53.759 87.158L59.209 84.6484ZM58.7959 83.166L64.6699 81.9431C64.5656 81.4421 64.4424 80.7532 64.3063 79.9089L58.3828 80.8643L52.4594 81.8196C52.6083 82.7431 52.7645 83.6331 52.9218 84.3889L58.7959 83.166ZM58.3828 80.8643L64.3063 79.909C64.035 78.2271 63.7401 76.1068 63.4651 74.0014L57.5156 74.7783L51.5661 75.5552C51.8465 77.7023 52.1596 79.9611 52.4593 81.8195L58.3828 80.8643ZM57.5156 74.7783L63.4651 74.0014C63.2495 72.35 63.0491 70.7273 62.8845 69.3637L56.9277 70.083L50.971 70.8024C51.1384 72.1886 51.3438 73.8524 51.5661 75.5552L57.5156 74.7783ZM56.9277 70.083L59.61 64.7159C59.2242 64.5231 58.8616 64.3277 58.5216 64.1317L55.5254 69.3301L52.5292 74.5284C53.0768 74.844 53.6489 75.1519 54.2455 75.4501L56.9277 70.083ZM55.5254 69.3301V63.3301H54.3467V69.3301V75.3301H55.5254V69.3301ZM54.3467 69.3301L57.0071 74.708L57.6506 74.3897L54.9902 69.0117L52.3298 63.6338L51.6863 63.9521L54.3467 69.3301ZM54.9902 69.0117L58.1281 63.8976C57.9267 63.7741 57.7737 63.677 57.648 63.5927L54.3066 68.5762L50.9652 73.5596C51.279 73.77 51.5835 73.9608 51.8524 74.1258L54.9902 69.0117ZM54.3066 68.5762L57.6481 63.5928C56.7362 62.9813 56.2603 62.4888 56.0496 62.1972C55.8747 61.9553 55.998 62.0243 55.998 62.3136L49.998 62.3145L43.998 62.3153C43.9989 67.8235 47.8773 71.4891 50.9651 73.5596L54.3066 68.5762ZM49.998 62.3145H55.998C55.998 62.6042 55.8745 62.6736 56.0493 62.4319C56.26 62.1403 56.7359 61.6478 57.6483 61.0361L54.3066 56.0527L50.965 51.0694C47.8781 53.1394 43.998 56.8049 43.998 62.3145H49.998ZM54.3066 56.0527L57.6481 61.0361C59.5221 59.7796 62.5628 58.4523 66.768 57.2596L65.1309 51.4873L63.4937 45.715C58.7015 47.0741 54.3149 48.8232 50.9651 51.0693L54.3066 56.0527ZM65.1309 51.4873L66.7679 57.2596C67.1432 57.1532 67.5287 57.0479 67.9247 56.9432L66.3906 51.1426L64.8566 45.342C64.3989 45.463 63.9443 45.5872 63.4938 45.715L65.1309 51.4873ZM66.3906 51.1426L72.3556 50.4951L68.8917 18.5859L62.9268 19.2334L56.9618 19.8809L60.4257 51.7901L66.3906 51.1426ZM62.9268 19.2334C68.9268 19.2334 68.9268 19.2334 68.9268 19.2334C68.9268 19.2334 68.9268 19.2334 68.9268 19.2334C68.9268 19.2334 68.9268 19.2334 68.9268 19.2334C68.9268 19.2334 68.9268 19.2334 68.9268 19.2334C68.9268 19.2334 68.9268 19.2334 68.9268 19.2334C68.9268 19.2334 68.9268 19.2334 68.9268 19.2334C68.9268 19.2334 68.9268 19.2334 68.9268 19.2334C68.9268 19.2334 68.9268 19.2334 68.9268 19.2334C68.9268 19.2334 68.9268 19.2334 68.9268 19.2334C68.9268 19.2334 68.9268 19.2334 68.9268 19.2334C68.9268 19.2334 68.9268 19.2334 68.9268 19.2334C68.9268 19.2334 68.9268 19.2334 68.9268 19.2334C68.9268 19.2334 68.9268 19.2334 68.9268 19.2334C68.9268 19.2334 68.9268 19.2334 68.9268 19.2334C68.9268 19.2334 68.9268 19.2334 68.9268 19.2334C68.9268 19.2334 68.9268 19.2334 68.9268 19.2334C68.9268 19.2334 68.9268 19.2334 68.9268 19.2334C68.9268 19.2334 68.9268 19.2334 68.9268 19.2334C68.9268 19.2334 68.9268 19.2334 68.9268 19.2334C68.9268 19.2334 68.9268 19.2334 68.9268 19.2334C68.9268 19.2334 68.9268 19.2334 68.9268 19.2334C68.9268 19.2334 68.9268 19.2334 68.9268 19.2334C68.9268 19.2334 68.9268 19.2334 68.9268 19.2334C68.9268 19.2334 68.9268 19.2334 68.9268 19.2334C68.9268 19.2334 68.9268 19.2334 68.9268 19.2334C68.9268 19.2334 68.9268 19.2334 68.9268 19.2334C68.9268 19.2334 68.9268 19.2334 68.9268 19.2334C68.9268 19.2334 68.9268 19.2334 68.9268 19.2334C68.9268 19.2334 68.9268 19.2334 68.9268 19.2334C68.9268 19.2334 68.9268 19.2334 68.9268 19.2334C68.9268 19.2334 68.9268 19.2334 68.9268 19.2334C68.9268 19.2334 68.9268 19.2334 68.9268 19.2334C68.9268 19.2334 68.9268 19.2334 68.9268 19.2334C68.9268 19.2334 68.9268 19.2334 68.9268 19.2334C68.9268 19.2334 68.9268 19.2334 68.9268 19.2334C68.9268 19.2334 68.9268 19.2334 68.9268 19.2334C68.9268 19.2334 68.9268 19.2334 68.9268 19.2334C68.9268 19.2334 68.9268 19.2334 68.9268 19.2334C68.9268 19.2334 68.9268 19.2334 68.9268 19.2334C68.9268 19.2334 68.9268 19.2334 68.9268 19.2334C68.9268 19.2334 68.9268 19.2334 68.9268 19.2334C68.9268 19.2334 68.9268 19.2334 68.9268 19.2334C68.9268 19.2334 68.9268 19.2334 68.9268 19.2334C68.9268 19.2334 68.9268 19.2334 68.9268 19.2334C68.9268 19.2334 68.9268 19.2334 68.9268 19.2334C68.9268 19.2334 68.9268 19.2334 68.9268 19.2334C68.9268 19.2334 68.9268 19.2334 68.9268 19.2334C68.9268 19.2334 68.9268 19.2334 68.9268 19.2334C68.9268 19.2334 68.9268 19.2334 68.9268 19.2334C68.9268 19.2334 68.9268 19.2334 68.9268 19.2334C68.9268 19.2334 68.9268 19.2334 68.9268 19.2334C68.9268 19.2334 68.9268 19.2334 68.9268 19.2334C68.9268 19.2334 68.9268 19.2334 68.9268 19.2334C68.9268 19.2334 68.9268 19.2334 68.9268 19.2334C68.9268 19.2334 68.9268 19.2334 68.9268 19.2334C68.9268 19.2334 68.9268 19.2334 68.9268 19.2334C68.9268 19.2334 68.9268 19.2334 68.9268 19.2334C68.9268 19.2334 68.9268 19.2334 68.9268 19.2334C68.9268 19.2334 68.9268 19.2334 68.9268 19.2334C68.9268 19.2334 68.9268 19.2334 68.9268 19.2334C68.9268 19.2334 68.9268 19.2334 68.9268 19.2334C68.9268 19.2334 68.9268 19.2334 68.9268 19.2334C68.9268 19.2334 68.9268 19.2334 68.9268 19.2334C68.9268 19.2334 68.9268 19.2334 68.9268 19.2334C68.9268 19.2334 68.9268 19.2334 68.9268 19.2334C68.9268 19.2334 68.9268 19.2334 68.9268 19.2334C68.9268 19.2334 68.9268 19.2334 68.9268 19.2334C68.9268 19.2334 68.9268 19.2334 68.9268 19.2334C68.9268 19.2334 68.9268 19.2334 68.9268 19.2334C68.9268 19.2334 68.9268 19.2334 68.9268 19.2334C68.9268 19.2334 68.9268 19.2334 68.9268 19.2334C68.9268 19.2334 68.9268 19.2334 68.9268 19.2334C68.9268 19.2334 68.9268 19.2334 68.9268 19.2334C68.9268 19.2334 68.9268 19.2334 68.9268 19.2334C68.9268 19.2334 68.9268 19.2334 68.9268 19.2334C68.9268 19.2334 68.9268 19.2333 68.9268 19.2333C68.9268 19.2333 68.9268 19.2333 68.9268 19.2333C68.9268 19.2333 68.9268 19.2333 68.9268 19.2333C68.9268 19.2333 68.9268 19.2333 68.9268 19.2333C68.9268 19.2333 68.9268 19.2333 68.9268 19.2333C68.9268 19.2333 68.9268 19.2333 68.9268 19.2333C68.9268 19.2333 68.9268 19.2333 68.9268 19.2333C68.9268 19.2333 68.9268 19.2333 68.9268 19.2333C68.9268 19.2333 68.9268 19.2333 68.9268 19.2333C68.9268 19.2333 68.9268 19.2333 68.9268 19.2333C68.9268 19.2333 68.9268 19.2333 68.9268 19.2333C68.9268 19.2333 68.9268 19.2333 68.9268 19.2333C68.9268 19.2333 68.9268 19.2333 68.9268 19.2333C68.9268 19.2333 68.9268 19.2333 68.9268 19.2333C68.9268 19.2333 68.9268 19.2333 68.9268 19.2333C68.9268 19.2333 68.9268 19.2333 68.9268 19.2333C68.9268 19.2333 68.9268 19.2333 68.9268 19.2333C68.9268 19.2333 68.9268 19.2333 68.9268 19.2333C68.9268 19.2333 68.9268 19.2333 68.9268 19.2333C68.9268 19.2333 68.9268 19.2333 68.9268 19.2333C68.9268 19.2333 68.9268 19.2333 68.9268 19.2333C68.9268 19.2333 68.9268 19.2333 68.9268 19.2333C68.9268 19.2333 68.9268 19.2333 68.9268 19.2333C68.9268 19.2333 68.9268 19.2333 68.9268 19.2333C68.9268 19.2333 68.9268 19.2333 68.9268 19.2333C68.9268 19.2333 68.9268 19.2333 68.9268 19.2333C68.9268 19.2333 68.9268 19.2333 68.9268 19.2333C68.9268 19.2333 68.9268 19.2333 68.9268 19.2333C68.9268 19.2333 68.9268 19.2333 68.9268 19.2333C68.9268 19.2333 68.9268 19.2333 68.9268 19.2333C68.9268 19.2333 68.9268 19.2333 68.9268 19.2333C68.9268 19.2333 68.9268 19.2333 68.9268 19.2333C68.9268 19.2333 68.9268 19.2333 68.9268 19.2333C68.9268 19.2333 68.9268 19.2333 68.9268 19.2333C68.9268 19.2333 68.9268 19.2333 68.9268 19.2333C68.9268 19.2333 68.9268 19.2333 68.9268 19.2333C68.9268 19.2333 68.9268 19.2333 68.9268 19.2333C68.9268 19.2333 68.9268 19.2333 68.9268 19.2332C68.9268 19.2332 68.9268 19.2332 68.9268 19.2332C68.9268 19.2332 68.9268 19.2332 68.9268 19.2332C68.9268 19.2332 68.9268 19.2332 68.9268 19.2332C68.9268 19.2332 68.9268 19.2332 68.9268 19.2332C68.9268 19.2332 68.9268 19.2332 68.9268 19.2332C68.9268 19.2332 68.9268 19.2332 68.9268 19.2332C68.9268 19.2332 68.9268 19.2332 68.9268 19.2332C68.9268 19.2332 68.9268 19.2332 68.9268 19.2332C68.9268 19.2332 68.9268 19.2332 68.9268 19.2332C68.9268 19.2332 68.9268 19.2332 68.9268 19.2332C68.9268 19.2332 68.9268 19.2332 68.9268 19.2332C68.9268 19.2332 68.9268 19.2332 68.9268 19.2332C68.9268 19.2332 68.9268 19.2332 68.9268 19.2332C68.9268 19.2332 68.9268 19.2332 68.9268 19.2332C68.9268 19.2332 68.9268 19.2332 68.9268 19.2332C68.9268 19.2332 68.9268 19.2332 68.9268 19.2332C68.9268 19.2332 68.9268 19.2332 68.9268 19.2332C68.9268 19.2332 68.9268 19.2332 68.9268 19.2332C68.9268 19.2332 68.9268 19.2332 68.9268 19.2332C68.9268 19.2332 68.9268 19.2332 68.9268 19.2332C68.9268 19.2332 68.9268 19.2332 68.9268 19.2332C68.9268 19.2332 68.9268 19.2332 68.9268 19.2332C68.9268 19.2332 68.9268 19.2331 68.9268 19.2331C68.9268 19.2331 68.9268 19.2331 68.9268 19.2331C68.9268 19.2331 68.9268 19.2331 68.9268 19.2331C68.9268 19.2331 68.9268 19.2331 68.9268 19.2331C68.9268 19.2331 68.9268 19.2331 68.9268 19.2331C68.9268 19.2331 68.9268 19.2331 68.9268 19.2331C68.9268 19.2331 68.9268 19.2331 68.9268 19.2331C68.9268 19.2331 68.9268 19.2331 68.9268 19.2331C68.9268 19.2331 68.9268 19.2331 68.9268 19.2331C68.9268 19.2331 68.9268 19.2331 68.9268 19.2331C68.9268 19.2331 68.9268 19.2331 68.9268 19.2331C68.9268 19.2331 68.9268 19.2331 68.9268 19.2331C68.9268 19.2331 68.9268 19.2331 68.9268 19.2331C68.9268 19.2331 68.9268 19.2331 68.9268 19.2331C68.9268 19.2331 68.9268 19.2331 68.9268 19.2331C68.9268 19.2331 68.9268 19.2331 68.9268 19.2331C68.9268 19.2331 68.9268 19.2331 68.9268 19.2331C68.9268 19.2331 68.9268 19.2331 68.9268 19.233C68.9268 19.233 68.9268 19.233 68.9268 19.233C68.9268 19.233 68.9268 19.233 68.9268 19.233C68.9268 19.233 68.9268 19.233 68.9268 19.233C68.9268 19.233 68.9268 19.233 68.9268 19.233C68.9268 19.233 68.9268 19.233 68.9268 19.233C68.9268 19.233 68.9268 19.233 68.9268 19.233C68.9268 19.233 68.9268 19.233 68.9268 19.233C68.9268 19.233 68.9268 19.233 68.9268 19.233C68.9268 19.233 68.9268 19.233 68.9268 19.233C68.9268 19.233 68.9268 19.233 68.9268 19.233C68.9268 19.233 68.9268 19.233 68.9268 19.233C68.9268 19.233 68.9268 19.233 68.9268 19.233C68.9268 19.233 68.9268 19.233 68.9268 19.233C68.9268 19.233 68.9268 19.233 68.9268 19.2329C68.9268 19.2329 68.9268 19.2329 68.9268 19.2329C68.9268 19.2329 68.9268 19.2329 68.9268 19.2329C68.9268 19.2329 68.9268 19.2329 68.9268 19.2329C68.9268 19.2329 68.9268 19.2329 68.9268 19.2329C68.9268 19.2329 68.9268 19.2329 68.9268 19.2329C68.9268 19.2329 68.9268 19.2329 68.9268 19.2329C68.9268 19.2329 68.9268 19.2329 68.9268 19.2329C68.9268 19.2329 68.9268 19.2329 68.9268 19.2329C68.9268 19.2329 68.9268 19.2329 68.9268 19.2329C68.9268 19.2329 68.9268 19.2329 68.9268 19.2329C68.9268 19.2329 68.9268 19.2329 68.9268 19.2329C68.9268 19.2329 68.9268 19.2329 68.9268 19.2329C68.9268 19.2328 68.9268 19.2328 68.9268 19.2328C68.9268 19.2328 68.9268 19.2328 68.9268 19.2328C68.9268 19.2328 68.9268 19.2328 68.9268 19.2328C68.9268 19.2328 68.9268 19.2328 68.9268 19.2328C68.9268 19.2328 68.9268 19.2328 68.9268 19.2328C68.9268 19.2328 68.9268 19.2328 68.9268 19.2328C68.9268 19.2328 68.9268 19.2328 68.9268 19.2328C68.9268 19.2328 68.9268 19.2328 68.9268 19.2328C68.9268 19.2328 68.9268 19.2328 68.9268 19.2328C68.9268 19.2328 68.9268 19.2328 68.9268 19.2328C68.9268 19.2328 68.9268 19.2328 68.9268 19.2327C68.9268 19.2327 68.9268 19.2327 68.9268 19.2327C68.9268 19.2327 68.9268 19.2327 68.9268 19.2327C68.9268 19.2327 68.9268 19.2327 68.9268 19.2327C68.9268 19.2327 68.9268 19.2327 68.9268 19.2327C68.9268 19.2327 68.9268 19.2327 68.9268 19.2327C68.9268 19.2327 68.9268 19.2327 68.9268 19.2327C68.9268 19.2327 68.9268 19.2327 68.9268 19.2327C68.9268 19.2327 68.9268 19.2327 68.9268 19.2327C68.9268 19.2327 68.9268 19.2327 68.9268 19.2327C68.9268 19.2327 68.9268 19.2326 68.9268 19.2326C68.9268 19.2326 68.9268 19.2326 68.9268 19.2326C68.9268 19.2326 68.9268 19.2326 68.9268 19.2326C68.9268 19.2326 68.9268 19.2326 68.9268 19.2326C68.9268 19.2326 68.9268 19.2326 68.9268 19.2326C68.9268 19.2326 68.9268 19.2326 68.9268 19.2326C68.9268 19.2326 68.9268 19.2326 68.9268 19.2326C68.9268 19.2326 68.9268 19.2326 68.9268 19.2326C68.9268 19.2326 68.9268 19.2326 68.9268 19.2326C68.9268 19.2326 68.9268 19.2325 68.9268 19.2325C68.9268 19.2325 68.9268 19.2325 68.9268 19.2325C68.9268 19.2325 68.9268 19.2325 68.9268 19.2325C68.9268 19.2325 68.9268 19.2325 68.9268 19.2325C68.9268 19.2325 68.9268 19.2325 68.9268 19.2325C68.9268 19.2325 68.9268 19.2325 68.9268 19.2325C68.9268 19.2325 68.9268 19.2325 68.9268 19.2325C68.9268 19.2325 68.9268 19.2325 68.9268 19.2325C68.9268 19.2325 68.9268 19.2324 68.9268 19.2324C68.9268 19.2324 68.9268 19.2324 68.9268 19.2324C68.9268 19.2324 68.9268 19.2324 68.9268 19.2324C68.9268 19.2324 68.9268 19.2324 68.9268 19.2324C68.9268 19.2324 68.9268 19.2324 68.9268 19.2324C68.9268 19.2324 68.9268 19.2324 68.9268 19.2324C68.9268 19.2324 68.9268 19.2324 68.9268 19.2324C68.9268 19.2324 68.9268 19.2324 68.9268 19.2324C68.9268 19.2323 68.9268 19.2323 68.9268 19.2323C68.9268 19.2323 68.9268 19.2323 68.9268 19.2323C68.9268 19.2323 68.9268 19.2323 68.9268 19.2323C68.9268 19.2323 68.9268 19.2323 68.9268 19.2323C68.9268 19.2323 68.9268 19.2323 68.9268 19.2323C68.9268 19.2323 68.9268 19.2323 68.9268 19.2323C68.9268 19.2323 68.9268 19.2323 68.9268 19.2323C68.9268 19.2323 68.9268 19.2322 68.9268 19.2322C68.9268 19.2322 68.9268 19.2322 68.9268 19.2322C68.9268 19.2322 68.9268 19.2322 68.9268 19.2322C68.9268 19.2322 68.9268 19.2322 68.9268 19.2322C68.9268 19.2322 68.9268 19.2322 68.9268 19.2322C68.9268 19.2322 68.9268 19.2322 68.9268 19.2322C68.9268 19.2322 68.9268 19.2322 68.9268 19.2322C68.9268 19.2321 68.9268 19.2321 68.9268 19.2321C68.9268 19.2321 68.9268 19.2321 68.9268 19.2321C68.9268 19.2321 68.9268 19.2321 68.9268 19.2321C68.9268 19.2321 68.9268 19.2321 68.9268 19.2321C68.9268 19.2321 68.9268 19.2321 68.9268 19.2321C68.9268 19.2321 68.9268 19.2321 68.9268 19.2321C68.9268 19.2321 68.9268 19.232 68.9268 19.232C68.9268 19.232 68.9268 19.232 68.9268 19.232C68.9268 19.232 68.9268 19.232 68.9268 19.232C68.9268 19.232 68.9268 19.232 68.9268 19.232C68.9268 19.232 68.9268 19.232 68.9268 19.232C68.9268 19.232 68.9268 19.232 68.9268 19.232C68.9268 19.232 68.9268 19.232 68.9268 19.2319C68.9268 19.2319 68.9268 19.2319 68.9268 19.2319C68.9268 19.2319 68.9268 19.2319 68.9268 19.2319C68.9268 19.2319 68.9268 19.2319 68.9268 19.2319C68.9268 19.2319 68.9268 19.2319 68.9268 19.2319C68.9268 19.2319 68.9268 19.2319 68.9268 19.2319C68.9268 19.2319 68.9268 19.2318 68.9268 19.2318C68.9268 19.2318 68.9268 19.2318 68.9268 19.2318C68.9268 19.2318 68.9268 19.2318 68.9268 19.2318C68.9268 19.2318 68.9268 19.2318 68.9268 19.2318C68.9268 19.2318 68.9268 19.2318 68.9268 19.2318C68.9268 19.2318 68.9268 19.2318 68.9268 19.2318C68.9268 19.2317 68.9268 19.2317 68.9268 19.2317C68.9268 19.2317 68.9268 19.2317 68.9268 19.2317C68.9268 19.2317 68.9268 19.2317 68.9268 19.2317C68.9268 19.2317 68.9268 19.2317 68.9268 19.2317C68.9268 19.2317 68.9268 19.2317 68.9268 19.2317C68.9268 19.2317 68.9268 19.2316 68.9268 19.2316C68.9268 19.2316 68.9268 19.2316 68.9268 19.2316C68.9268 19.2316 68.9268 19.2316 68.9268 19.2316C68.9268 19.2316 68.9268 19.2316 68.9268 19.2316C68.9268 19.2316 68.9268 19.2316 68.9268 19.2316C68.9268 19.2316 68.9268 19.2315 68.9268 19.2315C68.9268 19.2315 68.9268 19.2315 68.9268 19.2315C68.9268 19.2315 68.9268 19.2315 68.9268 19.2315C68.9268 19.2315 68.9268 19.2315 68.9268 19.2315C68.9268 19.2315 68.9268 19.2315 68.9268 19.2315C68.9268 19.2315 68.9268 19.2314 68.9268 19.2314C68.9268 19.2314 68.9268 19.2314 68.9268 19.2314C68.9268 19.2314 68.9268 19.2314 68.9268 19.2314C68.9268 19.2314 68.9268 19.2314 68.9268 19.2314C68.9268 19.2314 68.9268 19.2314 68.9268 19.2314C68.9268 19.2314 68.9268 19.2313 68.9268 19.2313C68.9268 19.2313 68.9268 19.2313 68.9268 19.2313C68.9268 19.2313 68.9268 19.2313 68.9268 19.2313C68.9268 19.2313 68.9268 19.2313 68.9268 19.2313C68.9268 19.2313 68.9268 19.2313 68.9268 19.2313C68.9268 19.2312 68.9268 19.2312 68.9268 19.2312C68.9268 19.2312 68.9268 19.2312 68.9268 19.2312C68.9268 19.2312 68.9268 19.2312 68.9268 19.2312C68.9268 19.2312 68.9268 19.2312 68.9268 19.2312C68.9268 19.2312 68.9268 19.2311 68.9268 19.2311C68.9268 19.2311 68.9268 19.2311 68.9268 19.2311C68.9268 19.2311 68.9268 19.2311 68.9268 19.2311C68.9268 19.2311 68.9268 19.2311 68.9268 19.2311C68.9268 19.2311 68.9268 19.2311 68.9268 19.231C68.9268 19.231 68.9268 19.231 68.9268 19.231C68.9268 19.231 68.9268 19.231 68.9268 19.231C68.9268 19.231 68.9268 19.231 68.9268 19.231C68.9268 19.231 68.9268 19.231 68.9268 19.231C68.9268 19.2309 68.9268 19.2309 68.9268 19.2309C68.9268 19.2309 68.9268 19.2309 68.9268 19.2309C68.9268 19.2309 68.9268 19.2309 68.9268 19.2309C68.9268 19.2309 68.9268 19.2309 68.9268 19.2309C68.9268 19.2309 68.9268 19.2308 68.9268 19.2308C68.9268 19.2308 68.9268 19.2308 68.9268 19.2308C68.9268 19.2308 68.9268 19.2308 68.9268 19.2308C68.9268 19.2308 68.9268 19.2308 68.9268 19.2308C68.9268 19.2308 68.9268 19.2307 68.9268 19.2307C68.9268 19.2307 68.9268 19.2307 68.9268 19.2307C68.9268 19.2307 68.9268 19.2307 68.9268 19.2307C68.9268 19.2307 68.9268 19.2307 68.9268 19.2307C68.9268 19.2307 68.9268 19.2306 68.9268 19.2306C68.9268 19.2306 68.9268 19.2306 68.9268 19.2306C68.9268 19.2306 68.9268 19.2306 68.9268 19.2306C68.9268 19.2306 68.9268 19.2306 68.9268 19.2306C68.9268 19.2305 68.9268 19.2305 68.9268 19.2305C68.9268 19.2305 68.9268 19.2305 68.9268 19.2305C68.9268 19.2305 68.9268 19.2305 68.9268 19.2305C68.9268 19.2305 68.9268 19.2305 68.9268 19.2304C68.9268 19.2304 68.9268 19.2304 68.9268 19.2304C68.9268 19.2304 68.9268 19.2304 68.9268 19.2304C68.9268 19.2304 68.9268 19.2304 68.9268 19.2304C68.9268 19.2304 68.9268 19.2304 68.9268 19.2303C68.9268 19.2303 68.9268 19.2303 68.9268 19.2303C68.9268 19.2303 68.9268 19.2303 68.9268 19.2303C68.9268 19.2303 68.9268 19.2303 68.9268 19.2303C68.9268 19.2302 68.9268 19.2302 68.9268 19.2302C68.9268 19.2302 68.9268 19.2302 68.9268 19.2302C68.9268 19.2302 68.9268 19.2302 68.9268 19.2302C68.9268 19.2302 68.9268 19.2302 68.9268 19.2301C68.9268 19.2301 68.9268 19.2301 68.9268 19.2301C68.9268 19.2301 68.9268 19.2301 68.9268 19.2301C68.9268 19.2301 68.9268 19.2301 68.9268 19.2301C68.9268 19.23 68.9268 19.23 68.9268 19.23C68.9268 19.23 68.9268 19.23 68.9268 19.23C68.9268 19.23 68.9268 19.23 68.9268 19.23C68.9268 19.23 68.9268 19.2299 68.9268 19.2299C68.9268 19.2299 68.9268 19.2299 68.9268 19.2299C68.9268 19.2299 68.9268 19.2299 68.9268 19.2299C68.9268 19.2299 68.9268 19.2299 68.9268 19.2298C68.9268 19.2298 68.9268 19.2298 68.9268 19.2298C68.9268 19.2298 68.9268 19.2298 68.9268 19.2298C68.9268 19.2298 68.9268 19.2298 68.9268 19.2298C68.9268 19.2297 68.9268 19.2297 68.9268 19.2297C68.9268 19.2297 68.9268 19.2297 68.9268 19.2297C68.9268 19.2297 68.9268 19.2297 68.9268 19.2297C68.9268 19.2297 68.9268 19.2296 68.9268 19.2296C68.9268 19.2296 68.9268 19.2296 68.9268 19.2296C68.9268 19.2296 68.9268 19.2296 68.9268 19.2296C68.9268 19.2296 68.9268 19.2295 68.9268 19.2295C68.9268 19.2295 68.9268 19.2295 68.9268 19.2295C68.9268 19.2295 68.9268 19.2295 68.9268 19.2295C68.9268 19.2295 68.9268 19.2294 68.9268 19.2294C68.9268 19.2294 68.9268 19.2294 68.9268 19.2294C68.9268 19.2294 68.9268 19.2294 68.9268 19.2294C68.9268 19.2294 68.9268 19.2293 68.9268 19.2293C68.9268 19.2293 68.9268 19.2293 68.9268 19.2293C68.9268 19.2293 68.9268 19.2293 68.9268 19.2293C68.9268 19.2293 68.9268 19.2292 68.9268 19.2292C68.9268 19.2292 68.9268 19.2292 68.9268 19.2292C68.9268 19.2292 68.9268 19.2292 68.9268 19.2292C68.9268 19.2292 68.9268 19.2291 68.9268 19.2291C68.9268 19.2291 68.9268 19.2291 68.9268 19.2291C68.9268 19.2291 68.9268 19.2291 68.9268 19.2291C68.9268 19.2291 68.9268 19.229 68.9268 19.229C68.9268 19.229 68.9268 19.229 68.9268 19.229C68.9268 19.229 68.9268 19.229 68.9268 19.229C68.9268 19.2289 68.9268 19.2289 68.9268 19.2289C68.9268 19.2289 68.9268 19.2289 68.9268 19.2289C68.9268 19.2289 68.9268 19.2289 68.9268 19.2289C68.9268 19.2288 68.9268 19.2288 68.9268 19.2288C68.9268 19.2288 68.9268 19.2288 68.9268 19.2288C68.9268 19.2288 68.9268 19.2288 68.9268 19.2287C68.9268 19.2287 68.9268 19.2287 68.9268 19.2287C68.9268 19.2287 68.9268 19.2287 68.9268 19.2287C68.9268 19.2287 68.9268 19.2286 68.9268 19.2286C68.9268 19.2286 68.9268 19.2286 68.9268 19.2286C68.9268 19.2286 68.9268 19.2286 68.9268 19.2286C68.9268 19.2285 68.9268 19.2285 68.9268 19.2285C68.9268 19.2285 68.9268 19.2285 68.9268 19.2285C68.9268 19.2285 68.9268 19.2285 68.9268 19.2284C68.9268 19.2284 68.9268 19.2284 68.9268 19.2284C68.9268 19.2284 68.9268 19.2284 68.9268 19.2284C68.9268 19.2284 68.9268 19.2283 68.9268 19.2283C68.9268 19.2283 68.9268 19.2283 68.9268 19.2283C68.9268 19.2283 68.9268 19.2283 68.9268 19.2283C68.9268 19.2282 68.9268 19.2282 68.9268 19.2282C68.9268 19.2282 68.9268 19.2282 68.9268 19.2282C68.9268 19.2282 68.9268 19.2281 68.9268 19.2281C68.9268 19.2281 68.9268 19.2281 68.9268 19.2281C68.9268 19.2281 68.9268 19.2281 68.9268 19.2281C68.9268 19.228 68.9268 19.228 68.9268 19.228C68.9268 19.228 68.9268 19.228 68.9268 19.228C68.9268 19.228 68.9268 19.2279 68.9268 19.2279C68.9268 19.2279 68.9268 19.2279 68.9268 19.2279C68.9268 19.2279 68.9268 19.2279 68.9268 19.2279C68.9268 19.2278 68.9268 19.2278 68.9268 19.2278C68.9268 19.2278 68.9268 19.2278 68.9268 19.2278C68.9268 19.2278 68.9268 19.2277 68.9268 19.2277C68.9268 19.2277 68.9268 19.2277 68.9268 19.2277C68.9268 19.2277 68.9268 19.2277 68.9268 19.2276C68.9268 19.2276 68.9268 19.2276 68.9268 19.2276C68.9268 19.2276 68.9268 19.2276 68.9268 19.2276C68.9268 19.2275 68.9268 19.2275 68.9268 19.2275C68.9268 19.2275 68.9268 19.2275 68.9268 19.2275C68.9268 19.2275 68.9268 19.2274 68.9268 19.2274C68.9268 19.2274 68.9268 19.2274 68.9268 19.2274C68.9268 19.2274 68.9268 19.2274 68.9268 19.2273C68.9268 19.2273 68.9268 19.2273 68.9268 19.2273C68.9268 19.2273 68.9268 19.2273 68.9268 19.2273C68.9268 19.2272 68.9268 19.2272 68.9268 19.2272C68.9268 19.2272 68.9268 19.2272 68.9268 19.2272C68.9268 19.2272 68.9268 19.2271 68.9268 19.2271C68.9268 19.2271 68.9268 19.2271 68.9268 19.2271C68.9268 19.2271 68.9268 19.2271 68.9268 19.227C68.9268 19.227 68.9268 19.227 68.9268 19.227C68.9268 19.227 68.9268 19.227 68.9268 19.2269C68.9268 19.2269 68.9268 19.2269 68.9268 19.2269C68.9268 19.2269 68.9268 19.2269 68.9268 19.2269C68.9268 19.2268 68.9268 19.2268 68.9268 19.2268C68.9268 19.2268 68.9268 19.2268 68.9268 19.2268C68.9268 19.2268 68.9268 19.2267 68.9268 19.2267C68.9268 19.2267 68.9268 19.2267 68.9268 19.2267C68.9268 19.2267 68.9268 19.2266 68.9268 19.2266C68.9268 19.2266 68.9268 19.2266 68.9268 19.2266C68.9268 19.2266 68.9268 19.2265 68.9268 19.2265C68.9268 19.2265 68.9268 19.2265 68.9268 19.2265C68.9268 19.2265 68.9268 19.2265 68.9268 19.2264C68.9268 19.2264 68.9268 19.2264 68.9268 19.2264C68.9268 19.2264 68.9268 19.2264 68.9268 19.2263C68.9268 19.2263 68.9268 19.2263 68.9268 19.2263C68.9268 19.2263 68.9268 19.2263 68.9268 19.2262C68.9268 19.2262 68.9268 19.2262 68.9268 19.2262C68.9268 19.2262 68.9268 19.2262 68.9268 19.2261C68.9268 19.2261 68.9268 19.2261 68.9268 19.2261C68.9268 19.2261 68.9268 19.2261 68.9268 19.226C68.9268 19.226 68.9268 19.226 68.9268 19.226C68.9268 19.226 68.9268 19.226 68.9268 19.2259C68.9268 19.2259 68.9268 19.2259 68.9268 19.2259C68.9268 19.2259 68.9268 19.2259 68.9268 19.2258C68.9268 19.2258 68.9268 19.2258 68.9268 19.2258C68.9268 19.2258 68.9268 19.2258 68.9268 19.2257C68.9268 19.2257 68.9268 19.2257 68.9268 19.2257C68.9268 19.2257 68.9268 19.2257 68.9268 19.2256C68.9268 19.2256 68.9268 19.2256 68.9268 19.2256C68.9268 19.2256 68.9268 19.2256 68.9268 19.2255C68.9268 19.2255 68.9268 19.2255 68.9268 19.2255C68.9268 19.2255 68.9268 19.2255 68.9268 19.2254C68.9268 19.2254 68.9268 19.2254 68.9268 19.2254C68.9268 19.2254 68.9268 19.2254 68.9268 19.2253C68.9268 19.2253 68.9268 19.2253 68.9268 19.2253C68.9268 19.2253 68.9268 19.2252 68.9268 19.2252C68.9268 19.2252 68.9268 19.2252 68.9268 19.2252C68.9268 19.2252 68.9268 19.2251 68.9268 19.2251C68.9268 19.2251 68.9268 19.2251 68.9268 19.2251C68.9268 19.225 68.9268 19.225 68.9268 19.225C68.9268 19.225 68.9268 19.225 68.9268 19.225C68.9268 19.2249 68.9268 19.2249 68.9268 19.2249C68.9268 19.2249 68.9268 19.2249 68.9268 19.2249C68.9268 19.2248 68.9268 19.2248 68.9268 19.2248C68.9268 19.2248 68.9268 19.2248 68.9268 19.2247C68.9268 19.2247 68.9268 19.2247 68.9268 19.2247C68.9268 19.2247 68.9268 19.2246 68.9268 19.2246C68.9268 19.2246 68.9268 19.2246 68.9268 19.2246C68.9268 19.2246 68.9268 19.2245 68.9268 19.2245C68.9268 19.2245 68.9268 19.2245 68.9268 19.2245C68.9268 19.2244 68.9268 19.2244 68.9268 19.2244C68.9268 19.2244 68.9268 19.2244 68.9268 19.2243C68.9268 19.2243 68.9268 19.2243 68.9268 19.2243C68.9268 19.2243 68.9268 19.2243 68.9268 19.2242C68.9268 19.2242 68.9268 19.2242 68.9268 19.2242C68.9268 19.2242 68.9268 19.2241 68.9268 19.2241C68.9268 19.2241 68.9268 19.2241 68.9268 19.2241C68.9268 19.224 68.9268 19.224 68.9268 19.224C68.9268 19.224 68.9268 19.224 68.9268 19.2239C68.9268 19.2239 68.9268 19.2239 68.9268 19.2239C68.9268 19.2239 68.9268 19.2238 68.9268 19.2238C68.9268 19.2238 68.9268 19.2238 68.9268 19.2238C68.9268 19.2237 68.9268 19.2237 68.9268 19.2237C68.9268 19.2237 68.9268 19.2237 68.9268 19.2237C68.9268 19.2236 68.9268 19.2236 68.9268 19.2236C68.9268 19.2236 68.9268 19.2236 68.9268 19.2235C68.9268 19.2235 68.9268 19.2235 68.9268 19.2235C68.9268 19.2234 68.9268 19.2234 68.9268 19.2234C68.9268 19.2234 68.9268 19.2234 68.9268 19.2233C68.9268 19.2233 68.9268 19.2233 68.9268 19.2233C68.9268 19.2233 68.9268 19.2232 68.9268 19.2232C68.9268 19.2232 68.9268 19.2232 68.9268 19.2232C68.9268 19.2231 68.9268 19.2231 68.9268 19.2231C68.9268 19.2231 68.9268 19.2231 68.9268 19.223C68.9268 19.223 68.9268 19.223 68.9268 19.223C68.9268 19.223 68.9268 19.2229 68.9268 19.2229C68.9268 19.2229 68.9268 19.2229 68.9268 19.2229C68.9268 19.2228 68.9268 19.2228 68.9268 19.2228C68.9268 19.2228 68.9268 19.2227 68.9268 19.2227C68.9268 19.2227 68.9268 19.2227 68.9268 19.2227C68.9268 19.2226 68.9268 19.2226 68.9268 19.2226C68.9268 19.2226 68.9268 19.2226 68.9268 19.2225C68.9268 19.2225 68.9268 19.2225 68.9268 19.2225C68.9268 19.2224 68.9268 19.2224 68.9268 19.2224C68.9268 19.2224 68.9268 19.2224 68.9268 19.2223C68.9268 19.2223 68.9268 19.2223 68.9268 19.2223C68.9268 19.2223 68.9268 19.2222 68.9268 19.2222C68.9268 19.2222 68.9268 19.2222 68.9268 19.2221C68.9268 19.2221 68.9268 19.2221 68.9268 19.2221C68.9268 19.2221 68.9268 19.222 68.9268 19.222C68.9268 19.222 68.9268 19.222 68.9268 19.2219C68.9268 19.2219 68.9268 19.2219 68.9268 19.2219C68.9268 19.2219 68.9268 19.2218 68.9268 19.2218C68.9268 19.2218 68.9268 19.2218 68.9268 19.2217C68.9268 19.2217 68.9268 19.2217 68.9268 19.2217H62.9268H56.9268C56.9268 19.2217 56.9268 19.2217 56.9268 19.2217C56.9268 19.2218 56.9268 19.2218 56.9268 19.2218C56.9268 19.2218 56.9268 19.2219 56.9268 19.2219C56.9268 19.2219 56.9268 19.2219 56.9268 19.2219C56.9268 19.222 56.9268 19.222 56.9268 19.222C56.9268 19.222 56.9268 19.2221 56.9268 19.2221C56.9268 19.2221 56.9268 19.2221 56.9268 19.2221C56.9268 19.2222 56.9268 19.2222 56.9268 19.2222C56.9268 19.2222 56.9268 19.2223 56.9268 19.2223C56.9268 19.2223 56.9268 19.2223 56.9268 19.2223C56.9268 19.2224 56.9268 19.2224 56.9268 19.2224C56.9268 19.2224 56.9268 19.2224 56.9268 19.2225C56.9268 19.2225 56.9268 19.2225 56.9268 19.2225C56.9268 19.2226 56.9268 19.2226 56.9268 19.2226C56.9268 19.2226 56.9268 19.2226 56.9268 19.2227C56.9268 19.2227 56.9268 19.2227 56.9268 19.2227C56.9268 19.2227 56.9268 19.2228 56.9268 19.2228C56.9268 19.2228 56.9268 19.2228 56.9268 19.2229C56.9268 19.2229 56.9268 19.2229 56.9268 19.2229C56.9268 19.2229 56.9268 19.223 56.9268 19.223C56.9268 19.223 56.9268 19.223 56.9268 19.223C56.9268 19.2231 56.9268 19.2231 56.9268 19.2231C56.9268 19.2231 56.9268 19.2231 56.9268 19.2232C56.9268 19.2232 56.9268 19.2232 56.9268 19.2232C56.9268 19.2232 56.9268 19.2233 56.9268 19.2233C56.9268 19.2233 56.9268 19.2233 56.9268 19.2233C56.9268 19.2234 56.9268 19.2234 56.9268 19.2234C56.9268 19.2234 56.9268 19.2234 56.9268 19.2235C56.9268 19.2235 56.9268 19.2235 56.9268 19.2235C56.9268 19.2236 56.9268 19.2236 56.9268 19.2236C56.9268 19.2236 56.9268 19.2236 56.9268 19.2237C56.9268 19.2237 56.9268 19.2237 56.9268 19.2237C56.9268 19.2237 56.9268 19.2237 56.9268 19.2238C56.9268 19.2238 56.9268 19.2238 56.9268 19.2238C56.9268 19.2238 56.9268 19.2239 56.9268 19.2239C56.9268 19.2239 56.9268 19.2239 56.9268 19.2239C56.9268 19.224 56.9268 19.224 56.9268 19.224C56.9268 19.224 56.9268 19.224 56.9268 19.2241C56.9268 19.2241 56.9268 19.2241 56.9268 19.2241C56.9268 19.2241 56.9268 19.2242 56.9268 19.2242C56.9268 19.2242 56.9268 19.2242 56.9268 19.2242C56.9268 19.2243 56.9268 19.2243 56.9268 19.2243C56.9268 19.2243 56.9268 19.2243 56.9268 19.2243C56.9268 19.2244 56.9268 19.2244 56.9268 19.2244C56.9268 19.2244 56.9268 19.2244 56.9268 19.2245C56.9268 19.2245 56.9268 19.2245 56.9268 19.2245C56.9268 19.2245 56.9268 19.2246 56.9268 19.2246C56.9268 19.2246 56.9268 19.2246 56.9268 19.2246C56.9268 19.2246 56.9268 19.2247 56.9268 19.2247C56.9268 19.2247 56.9268 19.2247 56.9268 19.2247C56.9268 19.2248 56.9268 19.2248 56.9268 19.2248C56.9268 19.2248 56.9268 19.2248 56.9268 19.2249C56.9268 19.2249 56.9268 19.2249 56.9268 19.2249C56.9268 19.2249 56.9268 19.2249 56.9268 19.225C56.9268 19.225 56.9268 19.225 56.9268 19.225C56.9268 19.225 56.9268 19.225 56.9268 19.2251C56.9268 19.2251 56.9268 19.2251 56.9268 19.2251C56.9268 19.2251 56.9268 19.2252 56.9268 19.2252C56.9268 19.2252 56.9268 19.2252 56.9268 19.2252C56.9268 19.2252 56.9268 19.2253 56.9268 19.2253C56.9268 19.2253 56.9268 19.2253 56.9268 19.2253C56.9268 19.2254 56.9268 19.2254 56.9268 19.2254C56.9268 19.2254 56.9268 19.2254 56.9268 19.2254C56.9268 19.2255 56.9268 19.2255 56.9268 19.2255C56.9268 19.2255 56.9268 19.2255 56.9268 19.2255C56.9268 19.2256 56.9268 19.2256 56.9268 19.2256C56.9268 19.2256 56.9268 19.2256 56.9268 19.2256C56.9268 19.2257 56.9268 19.2257 56.9268 19.2257C56.9268 19.2257 56.9268 19.2257 56.9268 19.2257C56.9268 19.2258 56.9268 19.2258 56.9268 19.2258C56.9268 19.2258 56.9268 19.2258 56.9268 19.2258C56.9268 19.2259 56.9268 19.2259 56.9268 19.2259C56.9268 19.2259 56.9268 19.2259 56.9268 19.2259C56.9268 19.226 56.9268 19.226 56.9268 19.226C56.9268 19.226 56.9268 19.226 56.9268 19.226C56.9268 19.2261 56.9268 19.2261 56.9268 19.2261C56.9268 19.2261 56.9268 19.2261 56.9268 19.2261C56.9268 19.2262 56.9268 19.2262 56.9268 19.2262C56.9268 19.2262 56.9268 19.2262 56.9268 19.2262C56.9268 19.2263 56.9268 19.2263 56.9268 19.2263C56.9268 19.2263 56.9268 19.2263 56.9268 19.2263C56.9268 19.2264 56.9268 19.2264 56.9268 19.2264C56.9268 19.2264 56.9268 19.2264 56.9268 19.2264C56.9268 19.2265 56.9268 19.2265 56.9268 19.2265C56.9268 19.2265 56.9268 19.2265 56.9268 19.2265C56.9268 19.2265 56.9268 19.2266 56.9268 19.2266C56.9268 19.2266 56.9268 19.2266 56.9268 19.2266C56.9268 19.2266 56.9268 19.2267 56.9268 19.2267C56.9268 19.2267 56.9268 19.2267 56.9268 19.2267C56.9268 19.2267 56.9268 19.2268 56.9268 19.2268C56.9268 19.2268 56.9268 19.2268 56.9268 19.2268C56.9268 19.2268 56.9268 19.2268 56.9268 19.2269C56.9268 19.2269 56.9268 19.2269 56.9268 19.2269C56.9268 19.2269 56.9268 19.2269 56.9268 19.2269C56.9268 19.227 56.9268 19.227 56.9268 19.227C56.9268 19.227 56.9268 19.227 56.9268 19.227C56.9268 19.2271 56.9268 19.2271 56.9268 19.2271C56.9268 19.2271 56.9268 19.2271 56.9268 19.2271C56.9268 19.2271 56.9268 19.2272 56.9268 19.2272C56.9268 19.2272 56.9268 19.2272 56.9268 19.2272C56.9268 19.2272 56.9268 19.2272 56.9268 19.2273C56.9268 19.2273 56.9268 19.2273 56.9268 19.2273C56.9268 19.2273 56.9268 19.2273 56.9268 19.2273C56.9268 19.2274 56.9268 19.2274 56.9268 19.2274C56.9268 19.2274 56.9268 19.2274 56.9268 19.2274C56.9268 19.2274 56.9268 19.2275 56.9268 19.2275C56.9268 19.2275 56.9268 19.2275 56.9268 19.2275C56.9268 19.2275 56.9268 19.2275 56.9268 19.2276C56.9268 19.2276 56.9268 19.2276 56.9268 19.2276C56.9268 19.2276 56.9268 19.2276 56.9268 19.2276C56.9268 19.2277 56.9268 19.2277 56.9268 19.2277C56.9268 19.2277 56.9268 19.2277 56.9268 19.2277C56.9268 19.2277 56.9268 19.2278 56.9268 19.2278C56.9268 19.2278 56.9268 19.2278 56.9268 19.2278C56.9268 19.2278 56.9268 19.2278 56.9268 19.2279C56.9268 19.2279 56.9268 19.2279 56.9268 19.2279C56.9268 19.2279 56.9268 19.2279 56.9268 19.2279C56.9268 19.2279 56.9268 19.228 56.9268 19.228C56.9268 19.228 56.9268 19.228 56.9268 19.228C56.9268 19.228 56.9268 19.228 56.9268 19.2281C56.9268 19.2281 56.9268 19.2281 56.9268 19.2281C56.9268 19.2281 56.9268 19.2281 56.9268 19.2281C56.9268 19.2281 56.9268 19.2282 56.9268 19.2282C56.9268 19.2282 56.9268 19.2282 56.9268 19.2282C56.9268 19.2282 56.9268 19.2282 56.9268 19.2283C56.9268 19.2283 56.9268 19.2283 56.9268 19.2283C56.9268 19.2283 56.9268 19.2283 56.9268 19.2283C56.9268 19.2283 56.9268 19.2284 56.9268 19.2284C56.9268 19.2284 56.9268 19.2284 56.9268 19.2284C56.9268 19.2284 56.9268 19.2284 56.9268 19.2284C56.9268 19.2285 56.9268 19.2285 56.9268 19.2285C56.9268 19.2285 56.9268 19.2285 56.9268 19.2285C56.9268 19.2285 56.9268 19.2285 56.9268 19.2286C56.9268 19.2286 56.9268 19.2286 56.9268 19.2286C56.9268 19.2286 56.9268 19.2286 56.9268 19.2286C56.9268 19.2286 56.9268 19.2287 56.9268 19.2287C56.9268 19.2287 56.9268 19.2287 56.9268 19.2287C56.9268 19.2287 56.9268 19.2287 56.9268 19.2287C56.9268 19.2288 56.9268 19.2288 56.9268 19.2288C56.9268 19.2288 56.9268 19.2288 56.9268 19.2288C56.9268 19.2288 56.9268 19.2288 56.9268 19.2289C56.9268 19.2289 56.9268 19.2289 56.9268 19.2289C56.9268 19.2289 56.9268 19.2289 56.9268 19.2289C56.9268 19.2289 56.9268 19.2289 56.9268 19.229C56.9268 19.229 56.9268 19.229 56.9268 19.229C56.9268 19.229 56.9268 19.229 56.9268 19.229C56.9268 19.229 56.9268 19.2291 56.9268 19.2291C56.9268 19.2291 56.9268 19.2291 56.9268 19.2291C56.9268 19.2291 56.9268 19.2291 56.9268 19.2291C56.9268 19.2291 56.9268 19.2292 56.9268 19.2292C56.9268 19.2292 56.9268 19.2292 56.9268 19.2292C56.9268 19.2292 56.9268 19.2292 56.9268 19.2292C56.9268 19.2292 56.9268 19.2293 56.9268 19.2293C56.9268 19.2293 56.9268 19.2293 56.9268 19.2293C56.9268 19.2293 56.9268 19.2293 56.9268 19.2293C56.9268 19.2293 56.9268 19.2294 56.9268 19.2294C56.9268 19.2294 56.9268 19.2294 56.9268 19.2294C56.9268 19.2294 56.9268 19.2294 56.9268 19.2294C56.9268 19.2294 56.9268 19.2295 56.9268 19.2295C56.9268 19.2295 56.9268 19.2295 56.9268 19.2295C56.9268 19.2295 56.9268 19.2295 56.9268 19.2295C56.9268 19.2295 56.9268 19.2296 56.9268 19.2296C56.9268 19.2296 56.9268 19.2296 56.9268 19.2296C56.9268 19.2296 56.9268 19.2296 56.9268 19.2296C56.9268 19.2296 56.9268 19.2297 56.9268 19.2297C56.9268 19.2297 56.9268 19.2297 56.9268 19.2297C56.9268 19.2297 56.9268 19.2297 56.9268 19.2297C56.9268 19.2297 56.9268 19.2297 56.9268 19.2298C56.9268 19.2298 56.9268 19.2298 56.9268 19.2298C56.9268 19.2298 56.9268 19.2298 56.9268 19.2298C56.9268 19.2298 56.9268 19.2298 56.9268 19.2298C56.9268 19.2299 56.9268 19.2299 56.9268 19.2299C56.9268 19.2299 56.9268 19.2299 56.9268 19.2299C56.9268 19.2299 56.9268 19.2299 56.9268 19.2299C56.9268 19.2299 56.9268 19.23 56.9268 19.23C56.9268 19.23 56.9268 19.23 56.9268 19.23C56.9268 19.23 56.9268 19.23 56.9268 19.23C56.9268 19.23 56.9268 19.23 56.9268 19.2301C56.9268 19.2301 56.9268 19.2301 56.9268 19.2301C56.9268 19.2301 56.9268 19.2301 56.9268 19.2301C56.9268 19.2301 56.9268 19.2301 56.9268 19.2301C56.9268 19.2302 56.9268 19.2302 56.9268 19.2302C56.9268 19.2302 56.9268 19.2302 56.9268 19.2302C56.9268 19.2302 56.9268 19.2302 56.9268 19.2302C56.9268 19.2302 56.9268 19.2302 56.9268 19.2303C56.9268 19.2303 56.9268 19.2303 56.9268 19.2303C56.9268 19.2303 56.9268 19.2303 56.9268 19.2303C56.9268 19.2303 56.9268 19.2303 56.9268 19.2303C56.9268 19.2304 56.9268 19.2304 56.9268 19.2304C56.9268 19.2304 56.9268 19.2304 56.9268 19.2304C56.9268 19.2304 56.9268 19.2304 56.9268 19.2304C56.9268 19.2304 56.9268 19.2304 56.9268 19.2304C56.9268 19.2305 56.9268 19.2305 56.9268 19.2305C56.9268 19.2305 56.9268 19.2305 56.9268 19.2305C56.9268 19.2305 56.9268 19.2305 56.9268 19.2305C56.9268 19.2305 56.9268 19.2305 56.9268 19.2306C56.9268 19.2306 56.9268 19.2306 56.9268 19.2306C56.9268 19.2306 56.9268 19.2306 56.9268 19.2306C56.9268 19.2306 56.9268 19.2306 56.9268 19.2306C56.9268 19.2306 56.9268 19.2307 56.9268 19.2307C56.9268 19.2307 56.9268 19.2307 56.9268 19.2307C56.9268 19.2307 56.9268 19.2307 56.9268 19.2307C56.9268 19.2307 56.9268 19.2307 56.9268 19.2307C56.9268 19.2307 56.9268 19.2308 56.9268 19.2308C56.9268 19.2308 56.9268 19.2308 56.9268 19.2308C56.9268 19.2308 56.9268 19.2308 56.9268 19.2308C56.9268 19.2308 56.9268 19.2308 56.9268 19.2308C56.9268 19.2308 56.9268 19.2309 56.9268 19.2309C56.9268 19.2309 56.9268 19.2309 56.9268 19.2309C56.9268 19.2309 56.9268 19.2309 56.9268 19.2309C56.9268 19.2309 56.9268 19.2309 56.9268 19.2309C56.9268 19.2309 56.9268 19.2309 56.9268 19.231C56.9268 19.231 56.9268 19.231 56.9268 19.231C56.9268 19.231 56.9268 19.231 56.9268 19.231C56.9268 19.231 56.9268 19.231 56.9268 19.231C56.9268 19.231 56.9268 19.231 56.9268 19.231C56.9268 19.2311 56.9268 19.2311 56.9268 19.2311C56.9268 19.2311 56.9268 19.2311 56.9268 19.2311C56.9268 19.2311 56.9268 19.2311 56.9268 19.2311C56.9268 19.2311 56.9268 19.2311 56.9268 19.2311C56.9268 19.2311 56.9268 19.2312 56.9268 19.2312C56.9268 19.2312 56.9268 19.2312 56.9268 19.2312C56.9268 19.2312 56.9268 19.2312 56.9268 19.2312C56.9268 19.2312 56.9268 19.2312 56.9268 19.2312C56.9268 19.2312 56.9268 19.2312 56.9268 19.2313C56.9268 19.2313 56.9268 19.2313 56.9268 19.2313C56.9268 19.2313 56.9268 19.2313 56.9268 19.2313C56.9268 19.2313 56.9268 19.2313 56.9268 19.2313C56.9268 19.2313 56.9268 19.2313 56.9268 19.2313C56.9268 19.2313 56.9268 19.2314 56.9268 19.2314C56.9268 19.2314 56.9268 19.2314 56.9268 19.2314C56.9268 19.2314 56.9268 19.2314 56.9268 19.2314C56.9268 19.2314 56.9268 19.2314 56.9268 19.2314C56.9268 19.2314 56.9268 19.2314 56.9268 19.2314C56.9268 19.2314 56.9268 19.2315 56.9268 19.2315C56.9268 19.2315 56.9268 19.2315 56.9268 19.2315C56.9268 19.2315 56.9268 19.2315 56.9268 19.2315C56.9268 19.2315 56.9268 19.2315 56.9268 19.2315C56.9268 19.2315 56.9268 19.2315 56.9268 19.2315C56.9268 19.2315 56.9268 19.2316 56.9268 19.2316C56.9268 19.2316 56.9268 19.2316 56.9268 19.2316C56.9268 19.2316 56.9268 19.2316 56.9268 19.2316C56.9268 19.2316 56.9268 19.2316 56.9268 19.2316C56.9268 19.2316 56.9268 19.2316 56.9268 19.2316C56.9268 19.2316 56.9268 19.2317 56.9268 19.2317C56.9268 19.2317 56.9268 19.2317 56.9268 19.2317C56.9268 19.2317 56.9268 19.2317 56.9268 19.2317C56.9268 19.2317 56.9268 19.2317 56.9268 19.2317C56.9268 19.2317 56.9268 19.2317 56.9268 19.2317C56.9268 19.2317 56.9268 19.2317 56.9268 19.2318C56.9268 19.2318 56.9268 19.2318 56.9268 19.2318C56.9268 19.2318 56.9268 19.2318 56.9268 19.2318C56.9268 19.2318 56.9268 19.2318 56.9268 19.2318C56.9268 19.2318 56.9268 19.2318 56.9268 19.2318C56.9268 19.2318 56.9268 19.2318 56.9268 19.2318C56.9268 19.2318 56.9268 19.2319 56.9268 19.2319C56.9268 19.2319 56.9268 19.2319 56.9268 19.2319C56.9268 19.2319 56.9268 19.2319 56.9268 19.2319C56.9268 19.2319 56.9268 19.2319 56.9268 19.2319C56.9268 19.2319 56.9268 19.2319 56.9268 19.2319C56.9268 19.2319 56.9268 19.2319 56.9268 19.2319C56.9268 19.232 56.9268 19.232 56.9268 19.232C56.9268 19.232 56.9268 19.232 56.9268 19.232C56.9268 19.232 56.9268 19.232 56.9268 19.232C56.9268 19.232 56.9268 19.232 56.9268 19.232C56.9268 19.232 56.9268 19.232 56.9268 19.232C56.9268 19.232 56.9268 19.232 56.9268 19.232C56.9268 19.232 56.9268 19.2321 56.9268 19.2321C56.9268 19.2321 56.9268 19.2321 56.9268 19.2321C56.9268 19.2321 56.9268 19.2321 56.9268 19.2321C56.9268 19.2321 56.9268 19.2321 56.9268 19.2321C56.9268 19.2321 56.9268 19.2321 56.9268 19.2321C56.9268 19.2321 56.9268 19.2321 56.9268 19.2321C56.9268 19.2321 56.9268 19.2321 56.9268 19.2322C56.9268 19.2322 56.9268 19.2322 56.9268 19.2322C56.9268 19.2322 56.9268 19.2322 56.9268 19.2322C56.9268 19.2322 56.9268 19.2322 56.9268 19.2322C56.9268 19.2322 56.9268 19.2322 56.9268 19.2322C56.9268 19.2322 56.9268 19.2322 56.9268 19.2322C56.9268 19.2322 56.9268 19.2322 56.9268 19.2322C56.9268 19.2322 56.9268 19.2323 56.9268 19.2323C56.9268 19.2323 56.9268 19.2323 56.9268 19.2323C56.9268 19.2323 56.9268 19.2323 56.9268 19.2323C56.9268 19.2323 56.9268 19.2323 56.9268 19.2323C56.9268 19.2323 56.9268 19.2323 56.9268 19.2323C56.9268 19.2323 56.9268 19.2323 56.9268 19.2323C56.9268 19.2323 56.9268 19.2323 56.9268 19.2323C56.9268 19.2323 56.9268 19.2323 56.9268 19.2324C56.9268 19.2324 56.9268 19.2324 56.9268 19.2324C56.9268 19.2324 56.9268 19.2324 56.9268 19.2324C56.9268 19.2324 56.9268 19.2324 56.9268 19.2324C56.9268 19.2324 56.9268 19.2324 56.9268 19.2324C56.9268 19.2324 56.9268 19.2324 56.9268 19.2324C56.9268 19.2324 56.9268 19.2324 56.9268 19.2324C56.9268 19.2324 56.9268 19.2324 56.9268 19.2324C56.9268 19.2324 56.9268 19.2325 56.9268 19.2325C56.9268 19.2325 56.9268 19.2325 56.9268 19.2325C56.9268 19.2325 56.9268 19.2325 56.9268 19.2325C56.9268 19.2325 56.9268 19.2325 56.9268 19.2325C56.9268 19.2325 56.9268 19.2325 56.9268 19.2325C56.9268 19.2325 56.9268 19.2325 56.9268 19.2325C56.9268 19.2325 56.9268 19.2325 56.9268 19.2325C56.9268 19.2325 56.9268 19.2325 56.9268 19.2325C56.9268 19.2325 56.9268 19.2326 56.9268 19.2326C56.9268 19.2326 56.9268 19.2326 56.9268 19.2326C56.9268 19.2326 56.9268 19.2326 56.9268 19.2326C56.9268 19.2326 56.9268 19.2326 56.9268 19.2326C56.9268 19.2326 56.9268 19.2326 56.9268 19.2326C56.9268 19.2326 56.9268 19.2326 56.9268 19.2326C56.9268 19.2326 56.9268 19.2326 56.9268 19.2326C56.9268 19.2326 56.9268 19.2326 56.9268 19.2326C56.9268 19.2326 56.9268 19.2326 56.9268 19.2326C56.9268 19.2326 56.9268 19.2327 56.9268 19.2327C56.9268 19.2327 56.9268 19.2327 56.9268 19.2327C56.9268 19.2327 56.9268 19.2327 56.9268 19.2327C56.9268 19.2327 56.9268 19.2327 56.9268 19.2327C56.9268 19.2327 56.9268 19.2327 56.9268 19.2327C56.9268 19.2327 56.9268 19.2327 56.9268 19.2327C56.9268 19.2327 56.9268 19.2327 56.9268 19.2327C56.9268 19.2327 56.9268 19.2327 56.9268 19.2327C56.9268 19.2327 56.9268 19.2327 56.9268 19.2327C56.9268 19.2327 56.9268 19.2327 56.9268 19.2327C56.9268 19.2328 56.9268 19.2328 56.9268 19.2328C56.9268 19.2328 56.9268 19.2328 56.9268 19.2328C56.9268 19.2328 56.9268 19.2328 56.9268 19.2328C56.9268 19.2328 56.9268 19.2328 56.9268 19.2328C56.9268 19.2328 56.9268 19.2328 56.9268 19.2328C56.9268 19.2328 56.9268 19.2328 56.9268 19.2328C56.9268 19.2328 56.9268 19.2328 56.9268 19.2328C56.9268 19.2328 56.9268 19.2328 56.9268 19.2328C56.9268 19.2328 56.9268 19.2328 56.9268 19.2328C56.9268 19.2328 56.9268 19.2328 56.9268 19.2328C56.9268 19.2328 56.9268 19.2328 56.9268 19.2329C56.9268 19.2329 56.9268 19.2329 56.9268 19.2329C56.9268 19.2329 56.9268 19.2329 56.9268 19.2329C56.9268 19.2329 56.9268 19.2329 56.9268 19.2329C56.9268 19.2329 56.9268 19.2329 56.9268 19.2329C56.9268 19.2329 56.9268 19.2329 56.9268 19.2329C56.9268 19.2329 56.9268 19.2329 56.9268 19.2329C56.9268 19.2329 56.9268 19.2329 56.9268 19.2329C56.9268 19.2329 56.9268 19.2329 56.9268 19.2329C56.9268 19.2329 56.9268 19.2329 56.9268 19.2329C56.9268 19.2329 56.9268 19.2329 56.9268 19.2329C56.9268 19.2329 56.9268 19.2329 56.9268 19.2329C56.9268 19.2329 56.9268 19.2329 56.9268 19.2329C56.9268 19.233 56.9268 19.233 56.9268 19.233C56.9268 19.233 56.9268 19.233 56.9268 19.233C56.9268 19.233 56.9268 19.233 56.9268 19.233C56.9268 19.233 56.9268 19.233 56.9268 19.233C56.9268 19.233 56.9268 19.233 56.9268 19.233C56.9268 19.233 56.9268 19.233 56.9268 19.233C56.9268 19.233 56.9268 19.233 56.9268 19.233C56.9268 19.233 56.9268 19.233 56.9268 19.233C56.9268 19.233 56.9268 19.233 56.9268 19.233C56.9268 19.233 56.9268 19.233 56.9268 19.233C56.9268 19.233 56.9268 19.233 56.9268 19.233C56.9268 19.233 56.9268 19.233 56.9268 19.233C56.9268 19.233 56.9268 19.233 56.9268 19.233C56.9268 19.233 56.9268 19.233 56.9268 19.233C56.9268 19.2331 56.9268 19.2331 56.9268 19.2331C56.9268 19.2331 56.9268 19.2331 56.9268 19.2331C56.9268 19.2331 56.9268 19.2331 56.9268 19.2331C56.9268 19.2331 56.9268 19.2331 56.9268 19.2331C56.9268 19.2331 56.9268 19.2331 56.9268 19.2331C56.9268 19.2331 56.9268 19.2331 56.9268 19.2331C56.9268 19.2331 56.9268 19.2331 56.9268 19.2331C56.9268 19.2331 56.9268 19.2331 56.9268 19.2331C56.9268 19.2331 56.9268 19.2331 56.9268 19.2331C56.9268 19.2331 56.9268 19.2331 56.9268 19.2331C56.9268 19.2331 56.9268 19.2331 56.9268 19.2331C56.9268 19.2331 56.9268 19.2331 56.9268 19.2331C56.9268 19.2331 56.9268 19.2331 56.9268 19.2331C56.9268 19.2331 56.9268 19.2331 56.9268 19.2331C56.9268 19.2331 56.9268 19.2331 56.9268 19.2331C56.9268 19.2331 56.9268 19.2331 56.9268 19.2331C56.9268 19.2331 56.9268 19.2331 56.9268 19.2331C56.9268 19.2331 56.9268 19.2332 56.9268 19.2332C56.9268 19.2332 56.9268 19.2332 56.9268 19.2332C56.9268 19.2332 56.9268 19.2332 56.9268 19.2332C56.9268 19.2332 56.9268 19.2332 56.9268 19.2332C56.9268 19.2332 56.9268 19.2332 56.9268 19.2332C56.9268 19.2332 56.9268 19.2332 56.9268 19.2332C56.9268 19.2332 56.9268 19.2332 56.9268 19.2332C56.9268 19.2332 56.9268 19.2332 56.9268 19.2332C56.9268 19.2332 56.9268 19.2332 56.9268 19.2332C56.9268 19.2332 56.9268 19.2332 56.9268 19.2332C56.9268 19.2332 56.9268 19.2332 56.9268 19.2332C56.9268 19.2332 56.9268 19.2332 56.9268 19.2332C56.9268 19.2332 56.9268 19.2332 56.9268 19.2332C56.9268 19.2332 56.9268 19.2332 56.9268 19.2332C56.9268 19.2332 56.9268 19.2332 56.9268 19.2332C56.9268 19.2332 56.9268 19.2332 56.9268 19.2332C56.9268 19.2332 56.9268 19.2332 56.9268 19.2332C56.9268 19.2332 56.9268 19.2332 56.9268 19.2332C56.9268 19.2332 56.9268 19.2332 56.9268 19.2332C56.9268 19.2332 56.9268 19.2332 56.9268 19.2332C56.9268 19.2332 56.9268 19.2332 56.9268 19.2332C56.9268 19.2332 56.9268 19.2332 56.9268 19.2332C56.9268 19.2332 56.9268 19.2332 56.9268 19.2332C56.9268 19.2333 56.9268 19.2333 56.9268 19.2333C56.9268 19.2333 56.9268 19.2333 56.9268 19.2333C56.9268 19.2333 56.9268 19.2333 56.9268 19.2333C56.9268 19.2333 56.9268 19.2333 56.9268 19.2333C56.9268 19.2333 56.9268 19.2333 56.9268 19.2333C56.9268 19.2333 56.9268 19.2333 56.9268 19.2333C56.9268 19.2333 56.9268 19.2333 56.9268 19.2333C56.9268 19.2333 56.9268 19.2333 56.9268 19.2333C56.9268 19.2333 56.9268 19.2333 56.9268 19.2333C56.9268 19.2333 56.9268 19.2333 56.9268 19.2333C56.9268 19.2333 56.9268 19.2333 56.9268 19.2333C56.9268 19.2333 56.9268 19.2333 56.9268 19.2333C56.9268 19.2333 56.9268 19.2333 56.9268 19.2333C56.9268 19.2333 56.9268 19.2333 56.9268 19.2333C56.9268 19.2333 56.9268 19.2333 56.9268 19.2333C56.9268 19.2333 56.9268 19.2333 56.9268 19.2333C56.9268 19.2333 56.9268 19.2333 56.9268 19.2333C56.9268 19.2333 56.9268 19.2333 56.9268 19.2333C56.9268 19.2333 56.9268 19.2333 56.9268 19.2333C56.9268 19.2333 56.9268 19.2333 56.9268 19.2333C56.9268 19.2333 56.9268 19.2333 56.9268 19.2333C56.9268 19.2333 56.9268 19.2333 56.9268 19.2333C56.9268 19.2333 56.9268 19.2333 56.9268 19.2333C56.9268 19.2333 56.9268 19.2333 56.9268 19.2333C56.9268 19.2333 56.9268 19.2333 56.9268 19.2333C56.9268 19.2333 56.9268 19.2333 56.9268 19.2333C56.9268 19.2333 56.9268 19.2333 56.9268 19.2333C56.9268 19.2333 56.9268 19.2333 56.9268 19.2333C56.9268 19.2333 56.9268 19.2333 56.9268 19.2333C56.9268 19.2333 56.9268 19.2333 56.9268 19.2333C56.9268 19.2333 56.9268 19.2333 56.9268 19.2333C56.9268 19.2333 56.9268 19.2333 56.9268 19.2333C56.9268 19.2333 56.9268 19.2333 56.9268 19.2333C56.9268 19.2333 56.9268 19.2333 56.9268 19.2333C56.9268 19.2333 56.9268 19.2333 56.9268 19.2333C56.9268 19.2333 56.9268 19.2333 56.9268 19.2333C56.9268 19.2333 56.9268 19.2333 56.9268 19.2333C56.9268 19.2333 56.9268 19.2334 56.9268 19.2334C56.9268 19.2334 56.9268 19.2334 56.9268 19.2334C56.9268 19.2334 56.9268 19.2334 56.9268 19.2334C56.9268 19.2334 56.9268 19.2334 56.9268 19.2334C56.9268 19.2334 56.9268 19.2334 56.9268 19.2334C56.9268 19.2334 56.9268 19.2334 56.9268 19.2334C56.9268 19.2334 56.9268 19.2334 56.9268 19.2334C56.9268 19.2334 56.9268 19.2334 56.9268 19.2334C56.9268 19.2334 56.9268 19.2334 56.9268 19.2334C56.9268 19.2334 56.9268 19.2334 56.9268 19.2334C56.9268 19.2334 56.9268 19.2334 56.9268 19.2334C56.9268 19.2334 56.9268 19.2334 56.9268 19.2334C56.9268 19.2334 56.9268 19.2334 56.9268 19.2334C56.9268 19.2334 56.9268 19.2334 56.9268 19.2334C56.9268 19.2334 56.9268 19.2334 56.9268 19.2334C56.9268 19.2334 56.9268 19.2334 56.9268 19.2334C56.9268 19.2334 56.9268 19.2334 56.9268 19.2334C56.9268 19.2334 56.9268 19.2334 56.9268 19.2334C56.9268 19.2334 56.9268 19.2334 56.9268 19.2334C56.9268 19.2334 56.9268 19.2334 56.9268 19.2334C56.9268 19.2334 56.9268 19.2334 56.9268 19.2334C56.9268 19.2334 56.9268 19.2334 56.9268 19.2334C56.9268 19.2334 56.9268 19.2334 56.9268 19.2334C56.9268 19.2334 56.9268 19.2334 56.9268 19.2334C56.9268 19.2334 56.9268 19.2334 56.9268 19.2334C56.9268 19.2334 56.9268 19.2334 56.9268 19.2334C56.9268 19.2334 56.9268 19.2334 56.9268 19.2334C56.9268 19.2334 56.9268 19.2334 56.9268 19.2334C56.9268 19.2334 56.9268 19.2334 56.9268 19.2334C56.9268 19.2334 56.9268 19.2334 56.9268 19.2334C56.9268 19.2334 56.9268 19.2334 56.9268 19.2334C56.9268 19.2334 56.9268 19.2334 56.9268 19.2334C56.9268 19.2334 56.9268 19.2334 56.9268 19.2334C56.9268 19.2334 56.9268 19.2334 56.9268 19.2334C56.9268 19.2334 56.9268 19.2334 56.9268 19.2334C56.9268 19.2334 56.9268 19.2334 56.9268 19.2334C56.9268 19.2334 56.9268 19.2334 56.9268 19.2334C56.9268 19.2334 56.9268 19.2334 56.9268 19.2334C56.9268 19.2334 56.9268 19.2334 56.9268 19.2334C56.9268 19.2334 56.9268 19.2334 56.9268 19.2334C56.9268 19.2334 56.9268 19.2334 56.9268 19.2334C56.9268 19.2334 56.9268 19.2334 56.9268 19.2334C56.9268 19.2334 56.9268 19.2334 56.9268 19.2334C56.9268 19.2334 56.9268 19.2334 56.9268 19.2334C56.9268 19.2334 56.9268 19.2334 56.9268 19.2334C56.9268 19.2334 56.9268 19.2334 56.9268 19.2334C56.9268 19.2334 56.9268 19.2334 56.9268 19.2334C56.9268 19.2334 56.9268 19.2334 56.9268 19.2334C56.9268 19.2334 56.9268 19.2334 56.9268 19.2334C56.9268 19.2334 56.9268 19.2334 56.9268 19.2334C56.9268 19.2334 56.9268 19.2334 56.9268 19.2334C56.9268 19.2334 56.9268 19.2334 56.9268 19.2334C56.9268 19.2334 56.9268 19.2334 56.9268 19.2334C56.9268 19.2334 56.9268 19.2334 56.9268 19.2334C56.9268 19.2334 56.9268 19.2334 56.9268 19.2334C56.9268 19.2334 56.9268 19.2334 56.9268 19.2334C56.9268 19.2334 56.9268 19.2334 56.9268 19.2334C56.9268 19.2334 56.9268 19.2334 56.9268 19.2334C56.9268 19.2334 56.9268 19.2334 56.9268 19.2334C56.9268 19.2334 56.9268 19.2334 56.9268 19.2334C56.9268 19.2334 56.9268 19.2334 56.9268 19.2334C56.9268 19.2334 56.9268 19.2334 56.9268 19.2334C56.9268 19.2334 56.9268 19.2334 56.9268 19.2334C56.9268 19.2334 56.9268 19.2334 56.9268 19.2334C56.9268 19.2334 56.9268 19.2334 56.9268 19.2334C56.9268 19.2334 56.9268 19.2334 56.9268 19.2334C56.9268 19.2334 56.9268 19.2334 56.9268 19.2334C56.9268 19.2334 56.9268 19.2334 56.9268 19.2334C56.9268 19.2334 56.9268 19.2334 56.9268 19.2334C56.9268 19.2334 56.9268 19.2334 56.9268 19.2334C56.9268 19.2334 56.9268 19.2334 56.9268 19.2334C56.9268 19.2334 56.9268 19.2334 56.9268 19.2334C56.9268 19.2334 56.9268 19.2334 56.9268 19.2334C56.9268 19.2334 56.9268 19.2334 56.9268 19.2334C56.9268 19.2334 56.9268 19.2334 56.9268 19.2334C56.9268 19.2334 56.9268 19.2334 62.9268 19.2334ZM62.9268 19.2217L68.7983 17.9868C68.8235 18.1064 68.9004 18.4887 68.9004 19.0025L62.9004 19.0029L56.9004 19.0034C56.9004 19.6647 56.9996 20.1921 57.0552 20.4565L62.9268 19.2217ZM62.9004 19.0029H68.9004C68.9004 21.1382 67.6291 22.2813 67.3694 22.4922C67.0608 22.7428 66.9795 22.7023 67.4104 22.5543C68.2137 22.2784 69.7108 22 71.6446 22L71.6445 16L71.6444 10C68.7492 10 65.8743 10.3939 63.5128 11.2049C62.3612 11.6004 60.9994 12.2069 59.8057 13.176C58.6611 14.1054 56.9004 16.0385 56.9004 19.0029H62.9004Z" fill="white" mask="url(#path-1-outside-1_1062_16744)"/>
<path d="M78.2926 37.9278L101.436 34.7553C101.436 34.7553 101.742 48.7707 89.5879 50.4412C82.3793 51.4291 77.0306 47.2258 74.6793 43.5168C73.215 41.201 74.9153 38.3947 78.2923 37.9363L78.2926 37.9278Z" fill="#276288"/>
<path d="M58.6521 68.3279C58.6521 68.3279 72.3184 177.087 73.2227 177.684C74.127 178.281 80.8748 184.893 100.18 184.893C119.485 184.893 126.242 178.281 127.137 177.684C128.033 177.087 141.708 68.3279 141.708 68.3279C141.708 68.3279 111.321 42.3345 58.6436 68.3279H58.6521Z" fill="#F1E2D2" stroke="#B09981" stroke-width="2.00474" stroke-miterlimit="10"/>
<path d="M57.5007 66.3744C57.5007 66.3744 59.3178 82.4891 60.1197 84.2294C60.9216 85.9696 74.4088 93.9801 100.18 93.9801C125.952 93.9801 139.439 85.9696 140.241 84.2294C141.043 82.4976 142.86 66.3744 142.86 66.3744C142.86 66.3744 91.6154 80.7403 57.4922 66.3744H57.5007Z" fill="#F1E2D2" stroke="#B09981" stroke-width="2.00474" stroke-miterlimit="10"/>
<path opacity="0.3" d="M100.18 76.2616C127.341 76.2616 149.36 70.0169 149.36 62.3137C149.36 54.6105 127.341 48.3658 100.18 48.3658C73.0187 48.3658 51 54.6105 51 62.3137C51 70.0169 73.0187 76.2616 100.18 76.2616Z" fill="#DADBDB" stroke="#040000" stroke-width="2.00474" stroke-miterlimit="10"/>
<path opacity="0.85" d="M100.18 73.9327C125.514 73.9327 146.05 68.7307 146.05 62.3138C146.05 55.8968 125.514 50.6948 100.18 50.6948C74.8468 50.6948 54.3101 55.8968 54.3101 62.3138C54.3101 68.7307 74.8468 73.9327 100.18 73.9327Z" fill="#F9FCFD"/>
<path d="M99.0028 150.3C102.301 150.3 104.974 147.627 104.974 144.329C104.974 141.031 102.301 138.357 99.0028 138.357C95.7048 138.357 93.0312 141.031 93.0312 144.329C93.0312 147.627 95.7048 150.3 99.0028 150.3Z" fill="#040000" stroke="#040000" stroke-width="0.793365" stroke-miterlimit="10"/>
<path d="M118.283 159.428C121.581 159.428 124.254 156.755 124.254 153.457C124.254 150.159 121.581 147.485 118.283 147.485C114.985 147.485 112.311 150.159 112.311 153.457C112.311 156.755 114.985 159.428 118.283 159.428Z" fill="#040000" stroke="#040000" stroke-width="0.793365" stroke-miterlimit="10"/>
<path d="M114.086 146.009C117.384 146.009 120.057 143.336 120.057 140.038C120.057 136.74 117.384 134.066 114.086 134.066C110.788 134.066 108.114 136.74 108.114 140.038C108.114 143.336 110.788 146.009 114.086 146.009Z" fill="#040000" stroke="#040000" stroke-width="0.793365" stroke-miterlimit="10"/>
<path d="M116.457 174.801C119.755 174.801 122.428 172.127 122.428 168.829C122.428 165.531 119.755 162.858 116.457 162.858C113.159 162.858 110.485 165.531 110.485 168.829C110.485 172.127 113.159 174.801 116.457 174.801Z" fill="#040000" stroke="#040000" stroke-width="0.793365" stroke-miterlimit="10"/>
<path d="M104.139 164.709C107.437 164.709 110.11 162.035 110.11 158.737C110.11 155.439 107.437 152.766 104.139 152.766C100.841 152.766 98.167 155.439 98.167 158.737C98.167 162.035 100.841 164.709 104.139 164.709Z" fill="#040000" stroke="#040000" stroke-width="0.793365" stroke-miterlimit="10"/>
<path d="M84.3983 153.457C87.6963 153.457 90.3699 150.783 90.3699 147.485C90.3699 144.187 87.6963 141.514 84.3983 141.514C81.1003 141.514 78.4268 144.187 78.4268 147.485C78.4268 150.783 81.1003 153.457 84.3983 153.457Z" fill="#040000" stroke="#040000" stroke-width="0.793365" stroke-miterlimit="10"/>
<path d="M100.18 179.86C103.478 179.86 106.152 177.186 106.152 173.888C106.152 170.59 103.478 167.917 100.18 167.917C96.8821 167.917 94.2085 170.59 94.2085 173.888C94.2085 177.186 96.8821 179.86 100.18 179.86Z" fill="#040000" stroke="#040000" stroke-width="0.793365" stroke-miterlimit="10"/>
<path d="M84.9784 170.681C88.2764 170.681 90.95 168.007 90.95 164.709C90.95 161.411 88.2764 158.737 84.9784 158.737C81.6804 158.737 79.0068 161.411 79.0068 164.709C79.0068 168.007 81.6804 170.681 84.9784 170.681Z" fill="#040000" stroke="#040000" stroke-width="0.793365" stroke-miterlimit="10"/>
<mask id="path-16-outside-2_1062_16744" maskUnits="userSpaceOnUse" x="91.0581" y="97.9498" width="18" height="16" fill="black">
<rect fill="white" x="91.0581" y="97.9498" width="18" height="16"/>
<path d="M101.115 98.9498C104.924 98.9498 108.012 102.038 108.012 105.846C108.012 109.655 104.924 112.743 101.115 112.743C97.9397 112.743 95.2664 110.596 94.4649 107.675C93.552 107.746 92.2633 107.286 92.0821 106.618C91.8774 105.864 93.0259 104.627 93.917 104.387C94.0773 104.344 94.2365 104.319 94.3916 104.312C95.0893 101.242 97.8339 98.9498 101.115 98.9498Z"/>
</mask>
<path d="M101.115 98.9498C104.924 98.9498 108.012 102.038 108.012 105.846C108.012 109.655 104.924 112.743 101.115 112.743C97.9397 112.743 95.2664 110.596 94.4649 107.675C93.552 107.746 92.2633 107.286 92.0821 106.618C91.8774 105.864 93.0259 104.627 93.917 104.387C94.0773 104.344 94.2365 104.319 94.3916 104.312C95.0893 101.242 97.8339 98.9498 101.115 98.9498Z" fill="#DFB820"/>
<path d="M101.115 98.9498L101.115 98.1713H101.115V98.9498ZM108.012 105.846L108.79 105.846L108.79 105.846L108.012 105.846ZM101.115 112.743L101.115 113.521L101.115 113.521L101.115 112.743ZM94.4649 107.675L95.2156 107.469L95.0457 106.85L94.4053 106.899L94.4649 107.675ZM92.0821 106.618L91.3307 106.822L91.3308 106.822L92.0821 106.618ZM93.917 104.387L93.7145 103.636L93.7145 103.636L93.917 104.387ZM94.3916 104.312L94.4254 105.09L95.0191 105.064L95.1508 104.485L94.3916 104.312ZM101.115 98.9498L101.115 99.7283C104.494 99.7283 107.233 102.467 107.233 105.846L108.012 105.846L108.79 105.846C108.79 101.608 105.354 98.1713 101.115 98.1713L101.115 98.9498ZM108.012 105.846H107.233C107.233 109.225 104.494 111.964 101.115 111.964L101.115 112.743L101.115 113.521C105.354 113.521 108.79 110.085 108.79 105.846H108.012ZM101.115 112.743V111.964C98.2995 111.964 95.9268 110.061 95.2156 107.469L94.4649 107.675L93.7141 107.881C94.606 111.132 97.58 113.521 101.115 113.521V112.743ZM94.4649 107.675L94.4053 106.899C94.0851 106.924 93.6568 106.853 93.2965 106.704C93.1199 106.631 92.9887 106.551 92.9055 106.48C92.8185 106.407 92.8238 106.379 92.8334 106.414L92.0821 106.618L91.3308 106.822C91.431 107.191 91.6654 107.471 91.8995 107.669C92.1374 107.87 92.4194 108.026 92.7018 108.143C93.2594 108.373 93.9318 108.497 94.5245 108.452L94.4649 107.675ZM92.0821 106.618L92.8334 106.414C92.8438 106.452 92.8203 106.419 92.8771 106.281C92.9304 106.151 93.0312 105.989 93.1787 105.818C93.4887 105.457 93.8735 105.205 94.1196 105.139L93.917 104.387L93.7145 103.636C93.0694 103.809 92.4344 104.296 91.9986 104.802C91.7731 105.064 91.5695 105.367 91.4371 105.689C91.3083 106.002 91.218 106.406 91.3307 106.822L92.0821 106.618ZM93.917 104.387L94.1195 105.139C94.2288 105.11 94.3314 105.094 94.4254 105.09L94.3916 104.312L94.3579 103.534C94.1417 103.544 93.9258 103.579 93.7145 103.636L93.917 104.387ZM94.3916 104.312L95.1508 104.485C95.7697 101.761 98.2056 99.7283 101.115 99.7283V98.9498V98.1713C97.4622 98.1713 94.4089 100.723 93.6325 104.14L94.3916 104.312Z" fill="white" mask="url(#path-16-outside-2_1062_16744)"/>
<path d="M101.115 112.743C104.924 112.743 108.011 109.655 108.011 105.846C108.011 102.038 104.924 98.9498 101.115 98.9498C97.3059 98.9498 94.2183 102.038 94.2183 105.846C94.2183 109.655 97.3059 112.743 101.115 112.743Z" fill="#4B98E6"/>
<circle cx="98.5877" cy="104.041" r="1.80497" fill="white"/>
<circle cx="98.5884" cy="104.041" r="1.08298" fill="#161616"/>
<circle cx="98.5884" cy="104.041" r="1.08298" fill="#161616"/>
<path d="M94.7968 107.622C93.9037 107.863 92.2867 107.372 92.082 106.618C91.8772 105.864 93.0254 104.628 93.9166 104.388C94.8077 104.148 95.6667 104.445 95.9715 105.569C96.2805 106.706 95.688 107.382 94.7949 107.622L94.7968 107.622Z" fill="#DFB820"/>
<path opacity="0.68" d="M87.384 92.2568C80.7214 91.6084 75.2617 90.0217 71.0133 88.8189L69.1963 74.2994C74.0588 75.2634 79.6806 76.0056 85.8143 76.4577L87.3754 92.2568H87.384Z" fill="#EDEDEC"/>
<path opacity="0.68" d="M93.4836 160.751V160.759L78.3158 156.212H78.2988L71.1841 91.0114C75.4154 92.2057 80.295 93.4341 87.5376 94.3213L93.458 160.478L93.4836 160.751Z" fill="#EDEDEC"/>
<path opacity="0.85" d="M93.4352 161.094C93.9256 159.51 90.9227 157.173 86.728 155.875C82.5333 154.576 78.7353 154.808 78.2449 156.392C77.7545 157.976 80.7574 160.313 84.9521 161.612C89.1468 162.91 92.9448 162.679 93.4352 161.094Z" fill="#B4B3B4"/>
<path opacity="0.68" d="M85.2089 73.344C78.9473 72.8151 73.2829 71.962 68.5397 70.8616L68.4544 70.0682L68.1388 67.2018L67.789 63.9943L66.7227 54.2009L66.4838 51.9914L62.9265 19.2331C62.9265 19.2331 62.9265 19.2331 62.9265 19.2161L62.9009 19.0028H80.389L83.0677 49.1763L83.2724 51.454L83.9378 58.9696L84.5947 66.3744L85.1322 72.4653L85.2089 73.344Z" fill="#EDEDEC"/>
<path opacity="0.85" d="M71.645 22.0057C76.4742 22.0057 80.389 20.6613 80.389 19.0028C80.389 17.3444 76.4742 16 71.645 16C66.8157 16 62.9009 17.3444 62.9009 19.0028C62.9009 20.6613 66.8157 22.0057 71.645 22.0057Z" fill="#B4B3B4"/>
<path d="M84.5861 66.3744C84.5861 66.3744 81.5491 69.6758 68.1387 67.2019C76.3624 64.0967 84.5861 66.3744 84.5861 66.3744Z" fill="#B4B3B4"/>
<path d="M87.6742 124.179L90.9927 118.361H87.5718C87.1026 118.361 86.7188 117.994 86.7188 117.517C86.7188 117.039 87.1026 116.663 87.5718 116.663H92.4173C92.9633 116.663 93.3131 116.979 93.3131 117.542C93.3131 117.832 93.2022 118.19 93.0315 118.498L89.4486 124.998C89.1927 125.467 88.8856 125.663 88.5017 125.663C87.9813 125.663 87.4951 125.348 87.4951 124.785C87.4951 124.623 87.5718 124.35 87.6742 124.171V124.179Z" fill="#040000"/>
<path d="M95.5653 124.179L98.8838 118.361H95.4629C94.9937 118.361 94.6099 117.994 94.6099 117.517C94.6099 117.039 94.9937 116.663 95.4629 116.663H100.308C100.854 116.663 101.204 116.979 101.204 117.542C101.204 117.832 101.093 118.19 100.923 118.498L97.3397 124.998C97.0838 125.467 96.7767 125.663 96.3928 125.663C95.8724 125.663 95.3862 125.348 95.3862 124.785C95.3862 124.623 95.4629 124.35 95.5653 124.171V124.179Z" fill="#040000"/>
<path d="M106.518 117.914V120.298C106.518 122.035 106.284 124.526 104.935 126.047C104.766 125.799 104.298 125.335 104.054 125.195C104.755 124.397 105.074 123.394 105.233 122.391C104.85 122.628 104.479 122.854 104.107 123.07L103.746 121.916C104.171 121.733 104.744 121.452 105.35 121.139C105.36 120.848 105.36 120.568 105.36 120.298V119.931L104.426 120.363C104.362 119.802 104.118 118.896 103.842 118.205L104.755 117.828C105.02 118.421 105.254 119.176 105.36 119.726V116.835H108.695C108.599 116.652 108.482 116.468 108.365 116.307L109.417 115.81C109.661 116.112 109.916 116.49 110.075 116.835H113.728V117.914H106.518ZM109.045 121.959V122.8H109.544V121.959H109.045ZM110.723 122.8V121.959H110.203V122.8H110.723ZM110.627 123.879L111.318 123.663C111.604 124.257 111.912 125.055 112.04 125.54L111.286 125.81C111.254 125.648 111.201 125.454 111.137 125.249C110.022 125.379 108.886 125.508 108.004 125.605L107.877 124.613C108.312 124.58 108.833 124.537 109.417 124.483V123.588H108.323V121.172H109.417V120.643H108.355V119.812H111.509V120.643H110.341V121.172H111.488V123.588H110.341V124.397L110.819 124.343C110.755 124.181 110.691 124.03 110.627 123.879ZM107.049 118.507H112.826C112.783 122.444 112.751 124.807 113.165 124.807C113.293 124.807 113.346 124.192 113.357 123.458C113.526 123.707 113.781 124.041 113.983 124.203C113.887 125.389 113.707 125.875 113.08 125.875C111.827 125.875 111.774 123.696 111.774 119.446H108.036V120.794C108.036 122.293 107.856 124.494 106.836 125.94C106.677 125.735 106.263 125.368 106.05 125.26C106.953 123.955 107.049 122.121 107.049 120.783V118.507Z" fill="#040000"/>
<path d="M84.1316 65.5807C84.2587 65.3154 84.5766 65.2034 84.8421 65.3301L87.8902 66.7854L92.1935 64.585L92.2947 64.5446C92.5335 64.4785 92.7947 64.5875 92.9119 64.8168C93.0457 65.0789 92.9411 65.4004 92.6791 65.5344L88.493 67.6737L88.8417 69.5697C88.8948 69.8591 88.7028 70.1367 88.4134 70.19C88.1239 70.243 87.8465 70.0521 87.7932 69.7627L87.507 68.2043L85.9052 69.0876C85.6474 69.2296 85.3228 69.1351 85.1806 68.8773C85.0389 68.6195 85.1326 68.2959 85.3901 68.1537L86.7315 67.4137L84.3823 66.2921C84.1167 66.1652 84.0048 65.8463 84.1316 65.5807Z" fill="#474747"/>
<path d="M87.4382 60.9834C87.7162 60.8863 88.0208 61.0326 88.1179 61.3105C88.2149 61.5884 88.0677 61.8921 87.7898 61.9893L82.4421 63.8574L81.7224 66.5381C81.646 66.8224 81.3535 66.9914 81.0691 66.915C80.7849 66.8385 80.6168 66.546 80.6931 66.2617L81.2703 64.1133L78.5242 64.5801C78.2341 64.6291 77.9594 64.4335 77.9099 64.1435C77.8607 63.8533 78.0562 63.5776 78.3464 63.5283L80.6267 63.1406L78.8806 61.9238L78.7996 61.8535C78.6284 61.6738 78.6014 61.3931 78.7488 61.1816C78.8961 60.9704 79.1686 60.8981 79.3963 60.9961L79.491 61.0488L82.0818 62.8545L87.4382 60.9834Z" fill="#474747"/>
<path d="M121.217 51.4967C121.055 54.9772 119.741 58.0142 117.6 60.454C113.881 64.7194 107.67 67.1763 100.7 67.0057C100.479 67.0057 100.265 66.9971 100.044 66.9801C99.8218 66.963 99.6 66.9545 99.3867 66.9374C92.4341 66.4426 86.4881 63.4142 83.1867 58.8161C81.2929 56.1801 80.2692 53.0322 80.4398 49.5516C80.6957 44.0919 83.8009 39.3573 88.4673 36.3374C88.4673 36.3374 88.5782 34.1535 88.6208 33.2663C89.0132 25.0682 95.1213 19.2332 102.296 19.5744C109.479 19.9156 115.007 26.3052 114.614 34.5033C114.572 35.399 114.222 37.1734 114.094 37.2843C114.358 37.4635 114.478 37.5744 114.478 37.5744C118.837 41.0208 121.481 46.0284 121.217 51.4881V51.4967Z" fill="#4B9AE8"/>
<path d="M98.2011 30.5023C99.8501 30.5023 101.187 29.1655 101.187 27.5165C101.187 25.8675 99.8501 24.5308 98.2011 24.5308C96.5521 24.5308 95.2153 25.8675 95.2153 27.5165C95.2153 29.1655 96.5521 30.5023 98.2011 30.5023Z" fill="white"/>
<path d="M98.2014 29.1079C99.0803 29.1079 99.7929 28.3954 99.7929 27.5164C99.7929 26.6375 99.0803 25.9249 98.2014 25.9249C97.3224 25.9249 96.6099 26.6375 96.6099 27.5164C96.6099 28.3954 97.3224 29.1079 98.2014 29.1079Z" fill="#040000"/>
<path d="M89.7268 32.1915C88.1397 32.0211 85.8325 30.2084 85.9787 28.853C86.1249 27.4975 88.7501 26.2054 90.3372 26.3757C91.9242 26.546 93.1213 27.57 92.9102 29.5943C92.6991 31.6186 91.3142 32.3703 89.7186 32.2004L89.7268 32.1915Z" fill="#EAC00F"/>
<path d="M94.1318 38.2738L80.9432 41.8397C77.7271 42.7098 76.1062 45.8407 77.7612 48.0245C80.3375 51.4369 84.8247 55.216 91.4446 53.4245C96.9726 51.9316 99.728 47.7004 101.11 43.7847C102.407 40.108 98.5593 37.071 94.1403 38.2653L94.1318 38.2738Z" fill="#276288"/>
</svg>
