<svg width="200" height="200" viewBox="0 0 200 200" fill="none" xmlns="http://www.w3.org/2000/svg">
<mask id="path-1-outside-1_1347_4389" maskUnits="userSpaceOnUse" x="13.2141" y="14" width="173" height="173" fill="black">
<rect fill="white" x="13.2141" y="14" width="173" height="173"/>
<path d="M168.937 20C170.388 20 171.825 20.2895 173.162 20.8516C174.5 21.4138 175.713 22.2378 176.729 23.2744C178.751 25.317 179.886 28.0749 179.886 30.9492C179.886 33.8236 178.751 36.5824 176.729 38.625L156.625 58.8447C156.22 59.2535 155.737 59.5784 155.205 59.7998C154.674 60.0211 154.103 60.1348 153.528 60.1348C152.952 60.1347 152.382 60.021 151.851 59.7998C151.319 59.5784 150.837 59.2535 150.431 58.8447L150.371 58.7852L139.365 69.792C150.457 83.2358 155.948 100.434 154.699 117.817C153.451 135.201 145.559 151.437 132.66 163.158C119.762 174.879 102.847 181.185 85.4231 180.769C67.9997 180.352 51.4051 173.245 39.0813 160.921C26.7576 148.597 19.6501 132.003 19.2336 114.579C18.8172 97.1557 25.1241 80.2403 36.845 67.3418C48.5659 54.4434 64.8022 46.5512 82.1858 45.3027C99.5694 44.0544 116.767 49.5455 130.21 60.6367L141.179 49.5928L141.158 49.5723C140.75 49.1666 140.425 48.6839 140.203 48.1523C139.982 47.6208 139.868 47.0503 139.868 46.4746C139.868 45.8991 139.982 45.3292 140.203 44.7979C140.425 44.2663 140.75 43.7836 141.158 43.3779L161.145 23.2744C162.16 22.2378 163.373 21.4138 164.711 20.8516C166.049 20.2895 167.486 20 168.937 20Z"/>
</mask>
<path d="M168.937 20C170.388 20 171.825 20.2895 173.162 20.8516C174.5 21.4138 175.713 22.2378 176.729 23.2744C178.751 25.317 179.886 28.0749 179.886 30.9492C179.886 33.8236 178.751 36.5824 176.729 38.625L156.625 58.8447C156.22 59.2535 155.737 59.5784 155.205 59.7998C154.674 60.0211 154.103 60.1348 153.528 60.1348C152.952 60.1347 152.382 60.021 151.851 59.7998C151.319 59.5784 150.837 59.2535 150.431 58.8447L150.371 58.7852L139.365 69.792C150.457 83.2358 155.948 100.434 154.699 117.817C153.451 135.201 145.559 151.437 132.66 163.158C119.762 174.879 102.847 181.185 85.4231 180.769C67.9997 180.352 51.4051 173.245 39.0813 160.921C26.7576 148.597 19.6501 132.003 19.2336 114.579C18.8172 97.1557 25.1241 80.2403 36.845 67.3418C48.5659 54.4434 64.8022 46.5512 82.1858 45.3027C99.5694 44.0544 116.767 49.5455 130.21 60.6367L141.179 49.5928L141.158 49.5723C140.75 49.1666 140.425 48.6839 140.203 48.1523C139.982 47.6208 139.868 47.0503 139.868 46.4746C139.868 45.8991 139.982 45.3292 140.203 44.7979C140.425 44.2663 140.75 43.7836 141.158 43.3779L161.145 23.2744C162.16 22.2378 163.373 21.4138 164.711 20.8516C166.049 20.2895 167.486 20 168.937 20Z" fill="black"/>
<path d="M168.937 20V14H168.937L168.937 20ZM173.162 20.8516L175.487 15.3201L175.486 15.32L173.162 20.8516ZM176.729 23.2744L172.443 27.4735C172.45 27.481 172.458 27.4884 172.465 27.4958L176.729 23.2744ZM179.886 30.9492H185.886V30.9491L179.886 30.9492ZM176.729 38.625L180.984 42.8554L180.993 42.8464L176.729 38.625ZM156.625 58.8447L152.37 54.6143L152.366 54.6184L156.625 58.8447ZM155.205 59.7998L157.512 65.3389L157.512 65.3387L155.205 59.7998ZM153.528 60.1348L153.527 66.1348H153.528V60.1348ZM151.851 59.7998L149.544 65.3387L149.545 65.3389L151.851 59.7998ZM150.431 58.8447L154.69 54.6184C154.684 54.613 154.679 54.6075 154.674 54.6021L150.431 58.8447ZM150.371 58.7852L154.614 54.5425C153.489 53.4173 151.963 52.7851 150.371 52.7852C148.78 52.7852 147.254 53.4174 146.129 54.5427L150.371 58.7852ZM139.365 69.792L135.123 65.5495C132.937 67.7359 132.77 71.2254 134.737 73.6103L139.365 69.792ZM154.699 117.817L160.684 118.247V118.247L154.699 117.817ZM132.66 163.158L136.695 167.599L136.695 167.599L132.66 163.158ZM85.4231 180.769L85.2797 186.767H85.2797L85.4231 180.769ZM39.0813 160.921L34.8386 165.164L34.8387 165.164L39.0813 160.921ZM19.2336 114.579L13.2354 114.722L13.2354 114.722L19.2336 114.579ZM36.845 67.3418L32.4045 63.3067L32.4045 63.3067L36.845 67.3418ZM82.1858 45.3027L81.756 39.3181L81.756 39.3181L82.1858 45.3027ZM130.21 60.6367L126.392 65.2649C128.783 67.2376 132.283 67.0642 134.467 64.8648L130.21 60.6367ZM141.179 49.5928L145.436 53.8209C147.766 51.4754 147.759 47.6876 145.422 45.3501L141.179 49.5928ZM141.158 49.5723L145.401 45.3296C145.396 45.3242 145.39 45.3188 145.385 45.3133L141.158 49.5723ZM140.203 48.1523L134.664 50.4586L134.665 50.4591L140.203 48.1523ZM139.868 46.4746L133.868 46.474V46.4746H139.868ZM140.203 44.7979L134.665 42.4911L134.664 42.4917L140.203 44.7979ZM141.158 43.3779L145.385 47.6369C145.394 47.6273 145.404 47.6178 145.413 47.6082L141.158 43.3779ZM161.145 23.2744L165.4 27.5046C165.41 27.4943 165.42 27.4839 165.43 27.4735L161.145 23.2744ZM164.711 20.8516L162.387 15.32L162.387 15.3201L164.711 20.8516ZM168.937 20V26C169.59 26 170.236 26.1303 170.838 26.3832L173.162 20.8516L175.486 15.32C173.413 14.4486 171.186 14 168.937 14V20ZM173.162 20.8516L170.838 26.3831C171.44 26.6359 171.986 27.0068 172.443 27.4735L176.729 23.2744L181.014 19.0753C179.44 17.4688 177.561 16.1917 175.487 15.3201L173.162 20.8516ZM176.729 23.2744L172.465 27.4958C173.376 28.4155 173.886 29.6567 173.886 30.9493L179.886 30.9492L185.886 30.9491C185.886 26.4932 184.126 22.2184 180.993 19.053L176.729 23.2744ZM179.886 30.9492H173.886C173.886 32.2423 173.375 33.4842 172.465 34.4036L176.729 38.625L180.993 42.8464C184.127 39.6806 185.886 35.4048 185.886 30.9492H179.886ZM176.729 38.625L172.474 34.3946L152.37 54.6143L156.625 58.8447L160.88 63.0751L180.984 42.8554L176.729 38.625ZM156.625 58.8447L152.366 54.6184C152.517 54.4667 152.697 54.3448 152.899 54.261L155.205 59.7998L157.512 65.3387C158.777 64.812 159.922 64.0402 160.884 63.071L156.625 58.8447ZM155.205 59.7998L152.899 54.2607C153.101 54.1768 153.314 54.1348 153.528 54.1348V60.1348V66.1348C154.892 66.1348 156.247 65.8654 157.512 65.3389L155.205 59.7998ZM153.528 60.1348L153.528 54.1348C153.742 54.1348 153.956 54.1771 154.157 54.2607L151.851 59.7998L149.545 65.3389C150.808 65.8649 152.162 66.1346 153.527 66.1348L153.528 60.1348ZM151.851 59.7998L154.158 54.261C154.359 54.3449 154.539 54.4667 154.69 54.6184L150.431 58.8447L146.172 63.071C147.134 64.0402 148.279 64.812 149.544 65.3387L151.851 59.7998ZM150.431 58.8447L154.674 54.6021L154.614 54.5425L150.371 58.7852L146.129 63.0278L146.188 63.0874L150.431 58.8447ZM150.371 58.7852L146.129 54.5427L135.123 65.5495L139.365 69.792L143.608 74.0344L154.614 63.0276L150.371 58.7852ZM139.365 69.792L134.737 73.6103C144.847 85.8649 149.853 101.542 148.715 117.388L154.699 117.817L160.684 118.247C162.043 99.3257 156.066 80.6066 143.994 65.9737L139.365 69.792ZM154.699 117.817L148.715 117.388C147.577 133.234 140.383 148.034 128.625 158.718L132.66 163.158L136.695 167.599C150.735 154.841 159.325 137.169 160.684 118.247L154.699 117.817ZM132.66 163.158L128.625 158.718C116.868 169.402 101.449 175.15 85.5665 174.77L85.4231 180.769L85.2797 186.767C104.244 187.22 122.656 180.356 136.695 167.599L132.66 163.158ZM85.4231 180.769L85.5665 174.77C69.6843 174.391 54.5576 167.912 43.3239 156.678L39.0813 160.921L34.8387 165.164C48.2525 178.577 66.315 186.313 85.2797 186.767L85.4231 180.769ZM39.0813 160.921L43.324 156.678C32.0903 145.445 25.6115 130.318 25.2319 114.436L19.2336 114.579L13.2354 114.722C13.6887 133.687 21.4249 151.75 34.8386 165.164L39.0813 160.921ZM19.2336 114.579L25.2319 114.436C24.8524 98.5536 30.6013 83.1345 41.2855 71.3769L36.845 67.3418L32.4045 63.3067C19.6469 77.3461 12.7821 95.7577 13.2354 114.722L19.2336 114.579ZM36.845 67.3418L41.2854 71.3769C51.9696 59.6195 66.7698 52.4253 82.6156 51.2873L82.1858 45.3027L81.756 39.3181C62.8346 40.677 45.1622 49.2674 32.4045 63.3067L36.845 67.3418ZM82.1858 45.3027L82.6155 51.2873C98.4614 50.1494 114.137 55.1548 126.392 65.2649L130.21 60.6367L134.029 56.0085C119.396 43.9363 100.677 37.9594 81.756 39.3181L82.1858 45.3027ZM130.21 60.6367L134.467 64.8648L145.436 53.8209L141.179 49.5928L136.922 45.3647L125.953 56.4086L130.21 60.6367ZM141.179 49.5928L145.422 45.3501L145.401 45.3296L141.158 49.5723L136.916 53.8149L136.936 53.8354L141.179 49.5928ZM141.158 49.5723L145.385 45.3133C145.536 45.4639 145.658 45.6442 145.742 45.8456L140.203 48.1523L134.665 50.4591C135.191 51.7237 135.963 52.8694 136.932 53.8312L141.158 49.5723ZM140.203 48.1523L145.742 45.846C145.826 46.0477 145.868 46.2612 145.868 46.4746H139.868H133.868C133.868 47.8394 134.138 49.194 134.664 50.4586L140.203 48.1523ZM139.868 46.4746L145.868 46.4752C145.868 46.6894 145.826 46.9032 145.742 47.104L140.203 44.7979L134.664 42.4917C134.138 43.7551 133.869 45.1087 133.868 46.474L139.868 46.4746ZM140.203 44.7979L145.742 47.1046C145.658 47.306 145.536 47.4863 145.385 47.6369L141.158 43.3779L136.932 39.119C135.963 40.0808 135.191 41.2265 134.665 42.4911L140.203 44.7979ZM141.158 43.3779L145.413 47.6082L165.4 27.5046L161.145 23.2744L156.89 19.0442L136.903 39.1477L141.158 43.3779ZM161.145 23.2744L165.43 27.4735C165.888 27.0068 166.434 26.6359 167.036 26.3831L164.711 20.8516L162.387 15.3201C160.313 16.1917 158.433 17.4688 156.859 19.0753L161.145 23.2744ZM164.711 20.8516L167.035 26.3831C167.637 26.1303 168.284 26 168.937 26L168.937 20L168.937 14C166.688 14 164.461 14.4486 162.387 15.32L164.711 20.8516Z" fill="white" mask="url(#path-1-outside-1_1347_4389)"/>
<path d="M147.353 43.3779L130.21 60.6373C116.766 49.546 99.569 44.0551 82.1853 45.3035C64.8016 46.552 48.5654 54.4439 36.8445 67.3424C25.1235 80.241 18.8173 97.1562 19.2337 114.58C19.6502 132.003 26.7574 148.598 39.0812 160.922C51.405 173.246 67.9997 180.353 85.4232 180.769C102.847 181.186 119.762 174.879 132.661 163.159C145.559 151.438 153.451 135.201 154.699 117.818C155.948 100.434 150.457 83.2367 139.366 69.7929L156.625 52.5336L147.353 43.3779Z" fill="#87898C"/>
<path d="M176.729 23.2742C175.713 22.2376 174.501 21.414 173.163 20.8518C171.825 20.2896 170.388 20 168.937 20C167.485 20 166.049 20.2896 164.711 20.8518C163.373 21.414 162.16 22.2376 161.145 23.2742L141.158 43.3777C140.749 43.7833 140.425 44.2658 140.204 44.7974C139.982 45.329 139.868 45.8992 139.868 46.475C139.868 47.0509 139.982 47.621 140.204 48.1526C140.425 48.6842 140.749 49.1667 141.158 49.5724L150.431 58.8449C150.836 59.2536 151.319 59.5781 151.85 59.7995C152.382 60.0208 152.952 60.1348 153.528 60.1348C154.104 60.1348 154.674 60.0208 155.206 59.7995C155.737 59.5781 156.22 59.2536 156.625 58.8449L176.729 38.6246C178.751 36.582 179.885 33.8238 179.885 30.9494C179.885 28.075 178.751 25.3168 176.729 23.2742Z" fill="#4B9AE8"/>
<path d="M32.3027 113C32.3027 127.507 38.0658 141.42 48.324 151.679C58.5823 161.937 72.4954 167.7 87.0028 167.7C101.51 167.7 115.423 161.937 125.682 151.679C135.94 141.42 141.703 127.507 141.703 113C141.703 98.4925 135.94 84.5793 125.682 74.3211C115.423 64.0628 101.51 58.2998 87.0028 58.2998C72.4954 58.2998 58.5823 64.0628 48.324 74.3211C38.0658 84.5793 32.3027 98.4925 32.3027 113Z" fill="#656769"/>
<path d="M48.3937 87.4414C55.623 80.1341 64.77 75.0183 74.7805 72.6837C84.791 70.3492 95.2574 70.8908 104.973 74.2462C114.689 77.6016 123.26 83.6342 129.696 91.6487C136.133 99.6632 140.173 109.333 141.353 119.545C142.114 111.96 141.277 104.301 138.896 97.06C136.515 89.8191 132.643 83.1575 127.53 77.505C122.416 71.8525 116.175 67.3345 109.208 64.2424C102.241 61.1503 94.7034 59.5527 87.0811 59.5527C79.4588 59.5527 71.9212 61.1503 64.9543 64.2424C57.9873 67.3345 51.7459 71.8525 46.6323 77.505C41.5188 83.1575 37.6467 89.8191 35.2659 97.06C32.8851 104.301 32.0483 111.96 32.8096 119.545C34.2577 107.399 39.7463 96.0923 48.3937 87.4414Z" fill="#525252"/>
<path d="M108.976 106.493C108.122 106.493 107.276 106.325 106.486 105.998C105.697 105.671 104.98 105.191 104.376 104.587C103.771 103.983 103.292 103.266 102.965 102.476C102.638 101.687 102.47 100.841 102.47 99.9865C102.613 97.2088 102.127 94.4346 101.048 91.871C99.9695 89.3074 98.3255 87.0206 96.239 85.1814C94.1525 83.3421 91.6775 81.9979 88.9988 81.2492C86.3201 80.5004 83.5068 80.3664 80.7691 80.8571C74.8987 82.0169 69.4568 84.7583 65.0309 88.7855C60.6051 92.8126 57.3635 97.9723 55.6563 103.707C53.9491 109.443 53.8412 115.535 55.3441 121.327C56.8471 127.119 59.9039 132.39 64.1843 136.572C68.4647 140.753 73.8061 143.686 79.6317 145.053C85.4573 146.42 91.5456 146.169 97.2392 144.328C102.933 142.487 108.015 139.126 111.938 134.607C115.86 130.088 118.473 124.583 119.495 118.687C119.74 117.172 119.65 115.622 119.232 114.146C118.814 112.669 118.078 111.302 117.076 110.14C116.074 108.978 114.829 108.05 113.43 107.42C112.031 106.79 110.511 106.473 108.976 106.493Z" fill="#EBEBEB"/>
<path d="M69.627 117.441C69.627 119.165 69.9666 120.873 70.6264 122.466C71.2862 124.059 72.2533 125.506 73.4725 126.725C74.6917 127.944 76.1391 128.911 77.7321 129.571C79.325 130.231 81.0323 130.571 82.7565 130.571C84.4807 130.571 86.1881 130.231 87.781 129.571C89.374 128.911 90.8214 127.944 92.0405 126.725C93.2597 125.506 94.2269 124.059 94.8867 122.466C95.5465 120.873 95.8861 119.165 95.8861 117.441C95.8861 115.717 95.5465 114.01 94.8867 112.417C94.2269 110.824 93.2597 109.376 92.0405 108.157C90.8214 106.938 89.374 105.971 87.781 105.311C86.1881 104.651 84.4807 104.312 82.7565 104.312C81.0323 104.312 79.325 104.651 77.7321 105.311C76.1391 105.971 74.6917 106.938 73.4725 108.157C72.2533 109.376 71.2862 110.824 70.6264 112.417C69.9666 114.01 69.627 115.717 69.627 117.441Z" fill="#EAC00F"/>
<path d="M67 108C70.866 108 74 104.866 74 101C74 97.134 70.866 94 67 94C63.134 94 60 97.134 60 101C60 104.866 63.134 108 67 108Z" fill="white"/>
<path d="M67.0003 104.706C69.047 104.706 70.7062 103.047 70.7062 101C70.7062 98.9531 69.047 97.2939 67.0003 97.2939C64.9536 97.2939 63.2944 98.9531 63.2944 101C63.2944 103.047 64.9536 104.706 67.0003 104.706Z" fill="black"/>
<path d="M108 131C111.866 131 115 127.866 115 124C115 120.134 111.866 117 108 117C104.134 117 101 120.134 101 124C101 127.866 104.134 131 108 131Z" fill="white"/>
<path d="M108 127.706C110.047 127.706 111.706 126.047 111.706 124C111.706 121.953 110.047 120.294 108 120.294C105.954 120.294 104.294 121.953 104.294 124C104.294 126.047 105.954 127.706 108 127.706Z" fill="black"/>
</svg>
