<svg width="200" height="200" viewBox="0 0 200 200" fill="none" xmlns="http://www.w3.org/2000/svg">
<mask id="path-1-outside-1_1347_1128" maskUnits="userSpaceOnUse" x="21.0002" y="46.3452" width="158" height="139" fill="black">
<rect fill="white" x="21.0002" y="46.3452" width="158" height="139"/>
<path d="M45.2951 138.588C58.9114 135.184 69.0531 136.461 75.1047 139.979C81.1562 143.497 89.6196 167.311 84.6789 174.375C79.7374 181.438 32.5332 180.076 27.9445 174.375C25.0468 170.772 28.2751 142.844 45.2951 138.588ZM122.03 142.976C129.973 137.87 147.207 135.53 156.78 137.303C166.354 139.076 177.701 169.57 170.964 174.889C164.227 180.208 119.549 178.79 110.329 177.372C101.11 175.953 112.102 149.359 122.03 142.976ZM114.94 58.6167C116.608 53.2007 122.02 50.6424 125.639 53.5767C131.288 58.1539 137.437 66.0025 134.006 77.1313C133.824 77.7234 133.623 78.2958 133.405 78.8491C136.108 80.9221 138.431 83.4699 140.247 86.4741L140.255 86.4683C146.655 97.0554 144.596 109.728 136.654 120.362L139.374 122.464L146.241 120.465C147.227 120.178 148.258 120.745 148.545 121.731C148.832 122.716 148.266 123.748 147.28 124.035L143.51 125.133L146.717 127.122C147.589 127.663 147.858 128.81 147.317 129.682C146.775 130.554 145.629 130.823 144.757 130.282L141.487 128.252L142.221 132.7L142.242 132.889C142.301 133.829 141.638 134.68 140.689 134.836C139.739 134.993 138.838 134.4 138.592 133.491L138.553 133.304L137.273 125.538L134.309 123.249C130.908 127.109 126.704 130.625 121.83 133.573C114.282 138.138 106.27 140.65 98.7658 141.044L97.3586 145.615L101.644 151.341C102.259 152.163 102.09 153.328 101.268 153.943C100.446 154.558 99.2812 154.391 98.6662 153.569L96.3137 150.424L95.5783 154.125C95.3779 155.132 94.3986 155.786 93.3918 155.585C92.3854 155.385 91.7321 154.407 91.9318 153.401L92.6828 149.626L88.7756 151.875L88.6066 151.962C87.747 152.347 86.7178 152.026 86.2375 151.193C85.7573 150.359 85.9962 149.307 86.7609 148.756L86.9221 148.654L93.7433 144.726L94.8713 141.058C85.1109 140.587 76.5627 136.299 71.551 128.019C69.2717 124.249 68.0012 120.107 67.6506 115.832C57.6756 114.32 51.3424 107.671 47.676 102.025C44.9643 97.8536 48.5977 93.4634 54.8391 93.3394L67.0109 93.1011C60.2142 80.1179 64.3274 65.1351 76.1223 58.0054C88.2935 50.6431 104.084 54.4121 112.22 67.4409L114.94 58.6167Z"/>
</mask>
<path d="M45.2951 138.588C58.9114 135.184 69.0531 136.461 75.1047 139.979C81.1562 143.497 89.6196 167.311 84.6789 174.375C79.7374 181.438 32.5332 180.076 27.9445 174.375C25.0468 170.772 28.2751 142.844 45.2951 138.588ZM122.03 142.976C129.973 137.87 147.207 135.53 156.78 137.303C166.354 139.076 177.701 169.57 170.964 174.889C164.227 180.208 119.549 178.79 110.329 177.372C101.11 175.953 112.102 149.359 122.03 142.976ZM114.94 58.6167C116.608 53.2007 122.02 50.6424 125.639 53.5767C131.288 58.1539 137.437 66.0025 134.006 77.1313C133.824 77.7234 133.623 78.2958 133.405 78.8491C136.108 80.9221 138.431 83.4699 140.247 86.4741L140.255 86.4683C146.655 97.0554 144.596 109.728 136.654 120.362L139.374 122.464L146.241 120.465C147.227 120.178 148.258 120.745 148.545 121.731C148.832 122.716 148.266 123.748 147.28 124.035L143.51 125.133L146.717 127.122C147.589 127.663 147.858 128.81 147.317 129.682C146.775 130.554 145.629 130.823 144.757 130.282L141.487 128.252L142.221 132.7L142.242 132.889C142.301 133.829 141.638 134.68 140.689 134.836C139.739 134.993 138.838 134.4 138.592 133.491L138.553 133.304L137.273 125.538L134.309 123.249C130.908 127.109 126.704 130.625 121.83 133.573C114.282 138.138 106.27 140.65 98.7658 141.044L97.3586 145.615L101.644 151.341C102.259 152.163 102.09 153.328 101.268 153.943C100.446 154.558 99.2812 154.391 98.6662 153.569L96.3137 150.424L95.5783 154.125C95.3779 155.132 94.3986 155.786 93.3918 155.585C92.3854 155.385 91.7321 154.407 91.9318 153.401L92.6828 149.626L88.7756 151.875L88.6066 151.962C87.747 152.347 86.7178 152.026 86.2375 151.193C85.7573 150.359 85.9962 149.307 86.7609 148.756L86.9221 148.654L93.7433 144.726L94.8713 141.058C85.1109 140.587 76.5627 136.299 71.551 128.019C69.2717 124.249 68.0012 120.107 67.6506 115.832C57.6756 114.32 51.3424 107.671 47.676 102.025C44.9643 97.8536 48.5977 93.4634 54.8391 93.3394L67.0109 93.1011C60.2142 80.1179 64.3274 65.1351 76.1223 58.0054C88.2935 50.6431 104.084 54.4121 112.22 67.4409L114.94 58.6167Z" fill="#313131"/>
<path d="M45.2951 138.588L43.8399 132.768L43.8398 132.768L45.2951 138.588ZM75.1047 139.979L78.1201 134.792L78.12 134.792L75.1047 139.979ZM84.6789 174.375L89.5952 177.814L89.5955 177.814L84.6789 174.375ZM27.9445 174.375L23.2693 178.135L23.2704 178.137L27.9445 174.375ZM122.03 142.976L118.786 137.929L118.786 137.929L122.03 142.976ZM156.78 137.303L157.873 131.404L157.873 131.404L156.78 137.303ZM170.964 174.889L174.682 179.598L174.682 179.598L170.964 174.889ZM110.329 177.372L109.417 183.302H109.417L110.329 177.372ZM114.94 58.6167L120.673 60.3839L120.674 60.3829L114.94 58.6167ZM125.639 53.5767L121.86 58.2373L121.862 58.2384L125.639 53.5767ZM134.006 77.1313L128.272 75.3637L128.272 75.3645L134.006 77.1313ZM133.405 78.8491L127.821 76.6545L126.169 80.8598L129.754 83.6098L133.405 78.8491ZM140.247 86.4741L135.113 89.5784L138.543 95.2523L143.847 91.2741L140.247 86.4741ZM140.255 86.4683L145.39 83.3643L141.96 77.6899L136.655 81.6683L140.255 86.4683ZM136.654 120.362L131.846 116.771L128.314 121.5L132.985 125.109L136.654 120.362ZM139.374 122.464L135.705 127.212L138.121 129.078L141.051 128.225L139.374 122.464ZM146.241 120.465L144.564 114.704L144.564 114.704L146.241 120.465ZM148.545 121.731L154.306 120.054L154.306 120.053L148.545 121.731ZM147.28 124.035L145.602 118.274L145.602 118.274L147.28 124.035ZM143.51 125.133L141.831 119.373L128.906 123.139L140.348 130.233L143.51 125.133ZM146.717 127.122L149.88 122.023L149.879 122.022L146.717 127.122ZM147.317 129.682L152.415 132.846L152.415 132.845L147.317 129.682ZM144.757 130.282L141.593 135.38L141.595 135.381L144.757 130.282ZM141.487 128.252L144.652 123.155L133.416 116.181L135.567 129.229L141.487 128.252ZM142.221 132.7L148.183 132.024L148.166 131.873L148.141 131.723L142.221 132.7ZM142.242 132.889L148.231 132.517L148.221 132.365L148.204 132.213L142.242 132.889ZM140.689 134.836L141.663 140.757L141.666 140.756L140.689 134.836ZM138.592 133.491L132.719 134.721L132.755 134.891L132.801 135.06L138.592 133.491ZM138.553 133.304L132.633 134.28L132.654 134.408L132.68 134.534L138.553 133.304ZM137.273 125.538L143.193 124.562L142.809 122.232L140.94 120.789L137.273 125.538ZM134.309 123.249L137.976 118.5L133.525 115.062L129.807 119.282L134.309 123.249ZM121.83 133.573L124.935 138.707L124.935 138.707L121.83 133.573ZM98.7658 141.044L98.4511 135.053L94.265 135.273L93.0315 139.279L98.7658 141.044ZM97.3586 145.615L91.6243 143.849L90.7261 146.766L92.5546 149.21L97.3586 145.615ZM101.644 151.341L106.448 147.748L106.448 147.747L101.644 151.341ZM101.268 153.943L104.862 158.747L104.862 158.747L101.268 153.943ZM98.6662 153.569L93.8619 157.163L93.8626 157.164L98.6662 153.569ZM96.3137 150.424L101.118 146.83L93.0524 136.049L90.4287 149.255L96.3137 150.424ZM95.5783 154.125L101.463 155.297L101.463 155.295L95.5783 154.125ZM93.3918 155.585L92.2201 161.47L92.2215 161.47L93.3918 155.585ZM91.9318 153.401L86.0472 152.23L86.0466 152.233L91.9318 153.401ZM92.6828 149.626L98.5675 150.797L101.147 137.831L89.6896 144.426L92.6828 149.626ZM88.7756 151.875L91.5204 157.211L91.6462 157.146L91.7688 157.076L88.7756 151.875ZM88.6066 151.962L91.0589 157.438L91.2071 157.372L91.3514 157.298L88.6066 151.962ZM86.2375 151.193L81.0376 154.186L81.0387 154.188L86.2375 151.193ZM86.7609 148.756L83.5397 143.694L83.3956 143.786L83.2569 143.886L86.7609 148.756ZM86.9221 148.654L83.9281 143.454L83.8129 143.52L83.7008 143.592L86.9221 148.654ZM93.7433 144.726L96.7373 149.926L98.7841 148.747L99.4783 146.49L93.7433 144.726ZM94.8713 141.058L100.606 142.822L102.877 135.437L95.1603 135.065L94.8713 141.058ZM71.551 128.019L66.4164 131.123L66.418 131.126L71.551 128.019ZM67.6506 115.832L73.6305 115.341L73.2425 110.61L68.5495 109.899L67.6506 115.832ZM47.676 102.025L52.7082 98.7573L52.7065 98.7547L47.676 102.025ZM54.8391 93.3394L54.7216 87.3405L54.7198 87.3405L54.8391 93.3394ZM67.0109 93.1011L67.1284 99.0999L76.8244 98.9101L72.3266 90.3183L67.0109 93.1011ZM76.1223 58.0054L79.2261 63.1402L79.2277 63.1392L76.1223 58.0054ZM112.22 67.4409L107.131 70.6189L114.086 81.7572L117.954 69.2082L112.22 67.4409ZM45.2951 138.588L46.7503 144.409C59.5277 141.215 67.8909 142.726 72.0894 145.166L75.1047 139.979L78.12 134.792C70.2153 130.197 58.2952 129.154 43.8399 132.768L45.2951 138.588ZM75.1047 139.979L72.0892 145.166C71.9383 145.078 72.1902 145.199 72.7701 145.924C73.3016 146.589 73.9259 147.531 74.5963 148.745C75.9366 151.172 77.2569 154.313 78.2827 157.623C79.3131 160.948 79.9718 164.204 80.1287 166.868C80.2068 168.195 80.1517 169.237 80.0212 169.995C79.8861 170.78 79.715 171.003 79.7623 170.935L84.6789 174.375L89.5955 177.814C92.0381 174.322 92.3203 169.768 92.1079 166.162C91.8783 162.264 90.9693 158.022 89.745 154.071C88.5161 150.105 86.8947 146.192 85.1006 142.943C84.2037 141.319 83.2126 139.769 82.1423 138.43C81.1203 137.152 79.784 135.759 78.1201 134.792L75.1047 139.979ZM84.6789 174.375L79.7626 170.935C80.2777 170.199 80.5495 170.435 79.0081 170.98C77.7383 171.43 75.8873 171.863 73.4873 172.222C68.7187 172.935 62.5561 173.244 56.258 173.162C49.9699 173.079 43.7845 172.61 38.993 171.847C36.582 171.464 34.6847 171.031 33.3626 170.598C32.702 170.382 32.3101 170.206 32.1205 170.105C31.871 169.971 32.1969 170.089 32.6186 170.612L27.9445 174.375L23.2704 178.137C24.2657 179.373 25.4981 180.17 26.4466 180.679C27.455 181.22 28.5526 181.651 29.6316 182.004C31.7886 182.709 34.3705 183.263 37.1075 183.698C42.6117 184.574 49.3966 185.073 56.1008 185.161C62.795 185.248 69.6468 184.93 75.2622 184.09C78.0541 183.672 80.7376 183.098 83.013 182.292C85.0168 181.583 87.8447 180.316 89.5952 177.814L84.6789 174.375ZM27.9445 174.375L32.6197 170.614C33.3395 171.509 33.2332 172.085 33.1024 171.148C33.0134 170.51 32.9644 169.504 33.032 168.164C33.1665 165.499 33.7344 162.056 34.8602 158.57C37.2322 151.227 41.3212 145.767 46.7505 144.409L45.2951 138.588L43.8398 132.768C32.249 135.666 26.2138 146.297 23.4411 154.882C21.9945 159.361 21.2349 163.841 21.0472 167.559C20.9538 169.411 20.995 171.211 21.2176 172.806C21.3984 174.102 21.8251 176.34 23.2693 178.135L27.9445 174.375ZM122.03 142.976L125.275 148.023C128.204 146.14 133.524 144.443 139.708 143.49C145.813 142.549 151.79 142.481 155.688 143.203L156.78 137.303L157.873 131.404C152.197 130.353 144.77 130.568 137.88 131.63C131.068 132.68 123.8 134.706 118.786 137.929L122.03 142.976ZM156.78 137.303L155.688 143.203C155.516 143.171 155.814 143.184 156.568 143.813C157.287 144.414 158.159 145.36 159.119 146.689C161.039 149.348 162.914 152.989 164.371 156.873C165.833 160.773 166.74 164.561 166.952 167.46C167.059 168.916 166.97 169.895 166.84 170.45C166.703 171.035 166.646 170.654 167.246 170.18L170.964 174.889L174.682 179.598C176.967 177.795 178.029 175.297 178.523 173.19C179.024 171.052 179.08 168.762 178.92 166.584C178.6 162.214 177.336 157.27 175.607 152.66C173.872 148.034 171.536 143.387 168.847 139.663C167.502 137.8 165.97 136.032 164.262 134.605C162.589 133.207 160.438 131.879 157.873 131.404L156.78 137.303ZM170.964 174.889L167.246 170.18C167.464 170.008 167.094 170.327 165.358 170.758C163.827 171.137 161.779 171.477 159.275 171.758C154.282 172.318 148.005 172.592 141.517 172.657C128.429 172.789 115.353 172.074 111.242 171.441L110.329 177.372L109.417 183.302C114.526 184.088 128.398 184.79 141.638 184.656C148.314 184.589 155.046 184.308 160.614 183.683C163.39 183.371 166.009 182.96 168.247 182.405C170.28 181.9 172.78 181.1 174.682 179.598L170.964 174.889ZM110.329 177.372L111.242 171.441C111.776 171.524 112.451 171.922 112.826 172.505C113.056 172.863 112.899 172.869 112.867 172.058C112.802 170.419 113.32 167.629 114.623 164.128C115.881 160.746 117.686 157.197 119.704 154.179C121.79 151.061 123.793 148.976 125.275 148.023L122.03 142.976L118.786 137.929C115.304 140.167 112.21 143.8 109.73 147.508C107.183 151.316 104.954 155.701 103.376 159.943C101.842 164.066 100.72 168.589 100.877 172.534C100.955 174.517 101.375 176.883 102.73 178.991C104.229 181.325 106.578 182.865 109.417 183.302L110.329 177.372ZM114.94 58.6167L120.674 60.3829C121.06 59.1304 121.771 58.5551 122.117 58.3921C122.277 58.3166 122.293 58.3537 122.169 58.3433C122.108 58.3382 122.038 58.3226 121.968 58.2947C121.935 58.2814 121.908 58.2677 121.888 58.2559C121.869 58.2442 121.859 58.2366 121.86 58.2373L125.639 53.5767L129.418 48.916C125.562 45.7899 120.781 45.7546 116.998 47.5386C113.316 49.2751 110.488 52.687 109.205 56.8505L114.94 58.6167ZM125.639 53.5767L121.862 58.2384C126.741 62.192 130.631 67.7132 128.272 75.3637L134.006 77.1313L139.74 78.899C144.243 64.2918 135.835 54.1159 129.416 48.9149L125.639 53.5767ZM134.006 77.1313L128.272 75.3645C128.134 75.813 127.983 76.2427 127.821 76.6545L133.405 78.8491L138.99 81.0437C139.263 80.3489 139.513 79.6338 139.74 78.8982L134.006 77.1313ZM133.405 78.8491L129.754 83.6098C131.884 85.2439 133.696 87.2359 135.113 89.5784L140.247 86.4741L145.382 83.3698C143.165 79.7039 140.332 76.6004 137.057 74.0884L133.405 78.8491ZM140.247 86.4741L143.847 91.2741L143.855 91.2683L140.255 86.4683L136.655 81.6683L136.647 81.6741L140.247 86.4741ZM140.255 86.4683L135.12 89.5723C139.917 97.5067 138.765 107.508 131.846 116.771L136.654 120.362L141.461 123.952C150.427 111.948 153.394 96.6042 145.39 83.3643L140.255 86.4683ZM136.654 120.362L132.985 125.109L135.705 127.212L139.374 122.464L143.043 117.717L140.322 115.614L136.654 120.362ZM139.374 122.464L141.051 128.225L147.918 126.226L146.241 120.465L144.564 114.704L137.697 116.703L139.374 122.464ZM146.241 120.465L147.918 126.226C145.718 126.867 143.423 125.6 142.784 123.409L148.545 121.731L154.306 120.053C153.094 115.891 148.736 113.49 144.564 114.704L146.241 120.465ZM148.545 121.731L142.784 123.408C142.145 121.212 143.407 118.914 145.602 118.274L147.28 124.035L148.959 129.795C153.125 128.581 155.519 124.221 154.306 120.054L148.545 121.731ZM147.28 124.035L145.602 118.274L141.831 119.373L143.51 125.133L145.188 130.894L148.959 129.795L147.28 124.035ZM143.51 125.133L140.348 130.233L143.555 132.221L146.717 127.122L149.879 122.022L146.671 120.034L143.51 125.133ZM146.717 127.122L143.554 132.22C141.609 131.014 141.013 128.462 142.218 126.519L147.317 129.682L152.415 132.845C154.702 129.158 153.569 124.312 149.88 122.023L146.717 127.122ZM147.317 129.682L142.219 126.518C143.425 124.575 145.976 123.978 147.919 125.182L144.757 130.282L141.595 135.381C145.282 137.667 150.126 136.534 152.415 132.846L147.317 129.682ZM144.757 130.282L147.921 125.184L144.652 123.155L141.487 128.252L138.323 133.35L141.593 135.38L144.757 130.282ZM141.487 128.252L135.567 129.229L136.301 133.676L142.221 132.7L148.141 131.723L147.408 127.276L141.487 128.252ZM142.221 132.7L136.259 133.376L136.281 133.565L142.242 132.889L148.204 132.213L148.183 132.024L142.221 132.7ZM142.242 132.889L136.254 133.261C136.123 131.157 137.596 129.266 139.712 128.916L140.689 134.836L141.666 140.756C145.68 140.094 148.478 136.501 148.231 132.517L142.242 132.889ZM140.689 134.836L139.714 128.916C141.829 128.568 143.832 129.886 144.383 131.922L138.592 133.491L132.801 135.06C133.845 138.914 137.649 141.417 141.663 140.757L140.689 134.836ZM138.592 133.491L144.465 132.261L144.426 132.074L138.553 133.304L132.68 134.534L132.719 134.721L138.592 133.491ZM138.553 133.304L144.473 132.328L143.193 124.562L137.273 125.538L131.353 126.513L132.633 134.28L138.553 133.304ZM137.273 125.538L140.94 120.789L137.976 118.5L134.309 123.249L130.641 127.997L133.605 130.286L137.273 125.538ZM134.309 123.249L129.807 119.282C126.829 122.662 123.102 125.792 118.725 128.439L121.83 133.573L124.935 138.707C130.305 135.459 134.987 131.555 138.811 127.215L134.309 123.249ZM121.83 133.573L118.725 128.439C111.931 132.548 104.867 134.716 98.4511 135.053L98.7658 141.044L99.0806 147.036C107.673 146.585 116.633 143.728 124.935 138.707L121.83 133.573ZM98.7658 141.044L93.0315 139.279L91.6243 143.849L97.3586 145.615L103.093 147.38L104.5 142.81L98.7658 141.044ZM97.3586 145.615L92.5546 149.21L96.8398 154.936L101.644 151.341L106.448 147.747L102.163 142.02L97.3586 145.615ZM101.644 151.341L96.8391 154.935C95.4654 153.099 95.8474 150.505 97.6731 149.139L101.268 153.943L104.862 158.747C108.332 156.151 109.052 151.228 106.448 147.748L101.644 151.341ZM101.268 153.943L97.6738 149.138C99.5019 147.771 102.097 148.14 103.47 149.974L98.6662 153.569L93.8626 157.164C96.465 160.641 101.39 161.345 104.862 158.747L101.268 153.943ZM98.6662 153.569L103.47 149.975L101.118 146.83L96.3137 150.424L91.5094 154.019L93.8619 157.163L98.6662 153.569ZM96.3137 150.424L90.4287 149.255L89.6933 152.956L95.5783 154.125L101.463 155.295L102.199 151.594L96.3137 150.424ZM95.5783 154.125L89.6937 152.954C90.141 150.707 92.3236 149.256 94.5621 149.701L93.3918 155.585L92.2215 161.47C96.4736 162.316 100.615 159.557 101.463 155.297L95.5783 154.125ZM93.3918 155.585L94.5635 149.701C96.806 150.148 98.262 152.327 97.817 154.569L91.9318 153.401L86.0466 152.233C85.2022 156.488 87.9647 160.623 92.2201 161.47L93.3918 155.585ZM91.9318 153.401L97.8165 154.572L98.5675 150.797L92.6828 149.626L86.7981 148.456L86.0472 152.23L91.9318 153.401ZM92.6828 149.626L89.6896 144.426L85.7824 146.675L88.7756 151.875L91.7688 157.076L95.676 154.827L92.6828 149.626ZM88.7756 151.875L86.0308 146.54L85.8618 146.627L88.6066 151.962L91.3514 157.298L91.5204 157.211L88.7756 151.875ZM88.6066 151.962L86.1543 146.486C88.074 145.627 90.3637 146.336 91.4362 148.197L86.2375 151.193L81.0387 154.188C83.0719 157.717 87.42 159.068 91.0589 157.438L88.6066 151.962ZM86.2375 151.193L91.4373 148.199C92.5079 150.059 91.9755 152.396 90.265 153.627L86.7609 148.756L83.2569 143.886C80.0169 146.217 79.0067 150.659 81.0376 154.186L86.2375 151.193ZM86.7609 148.756L89.9822 153.818L90.1433 153.716L86.9221 148.654L83.7008 143.592L83.5397 143.694L86.7609 148.756ZM86.9221 148.654L89.916 153.853L96.7373 149.926L93.7433 144.726L90.7494 139.526L83.9281 143.454L86.9221 148.654ZM93.7433 144.726L99.4783 146.49L100.606 142.822L94.8713 141.058L89.1363 139.295L88.0084 142.963L93.7433 144.726ZM94.8713 141.058L95.1603 135.065C87.025 134.673 80.4841 131.191 76.6839 124.912L71.551 128.019L66.418 131.126C72.6414 141.408 83.1968 146.502 94.5823 147.051L94.8713 141.058ZM71.551 128.019L76.6855 124.915C74.9122 121.982 73.9094 118.742 73.6305 115.341L67.6506 115.832L61.6706 116.322C62.0929 121.471 63.6313 126.517 66.4164 131.123L71.551 128.019ZM67.6506 115.832L68.5495 109.899C60.9589 108.749 55.9033 103.678 52.7082 98.7573L47.676 102.025L42.6438 105.292C46.7816 111.665 54.3923 119.891 66.7517 121.764L67.6506 115.832ZM47.676 102.025L52.7065 98.7547C52.6414 98.6546 52.7877 98.8466 52.7639 99.2659C52.7407 99.6743 52.5764 99.9246 52.5268 99.9846C52.4945 100.024 52.6095 99.8704 53.0301 99.6936C53.4412 99.5208 54.0812 99.3556 54.9583 99.3382L54.8391 93.3394L54.7198 87.3405C50.3381 87.4276 46.013 89.0264 43.2735 92.3442C40.254 96.0012 39.8616 101.013 42.6455 105.295L47.676 102.025ZM54.8391 93.3394L54.9565 99.3382L67.1284 99.0999L67.0109 93.1011L66.8935 87.1022L54.7216 87.3405L54.8391 93.3394ZM67.0109 93.1011L72.3266 90.3183C66.9273 80.0047 70.2774 68.5494 79.2261 63.1402L76.1223 58.0054L73.0184 52.8706C58.3774 61.7207 53.501 80.231 61.6953 95.8838L67.0109 93.1011ZM76.1223 58.0054L79.2277 63.1392C88.4498 57.5608 100.643 60.2296 107.131 70.6189L112.22 67.4409L117.309 64.2629C107.525 48.5946 88.1371 43.7254 73.0168 52.8715L76.1223 58.0054ZM112.22 67.4409L117.954 69.2082L120.673 60.3839L114.94 58.6167L109.206 56.8495L106.486 65.6737L112.22 67.4409Z" fill="white" mask="url(#path-1-outside-1_1347_1128)"/>
<path d="M90.7952 25.0566C91.8236 24.9217 92.9467 25.0953 93.8625 25.8984L93.8635 25.8965C94.8216 26.7 95.2271 27.8063 95.304 28.915L95.2131 28.9561L95.2991 28.9521L95.6819 37.1289L95.6848 37.4229C95.6727 37.8084 95.5977 38.2116 95.4329 38.6006C95.448 38.6103 95.4637 38.62 95.4788 38.6299H95.4778C96.4023 39.2186 96.9711 40.1031 97.1643 41.1328L97.1985 41.3438L97.1995 41.3535L97.2219 41.5693C97.3084 42.645 96.98 43.6506 96.2737 44.4746L96.1575 44.5996C95.4355 45.3093 94.5362 45.7557 93.5286 45.8926L93.5129 45.8945C92.5308 46.0202 91.5102 45.8725 90.5989 45.2939L90.592 45.29C89.6058 44.6587 88.9268 43.6901 88.7659 42.4609C88.609 41.2627 88.9962 40.218 89.7454 39.4033C89.3941 38.9611 89.1978 38.4558 89.0979 37.9883L89.0959 37.9824L87.4153 30.0049L87.4104 29.9775C87.2118 28.9658 87.2114 27.7598 87.8987 26.7158C88.6121 25.6322 89.7511 25.1915 90.7952 25.0557V25.0566Z" fill="#292929" stroke="white" stroke-width="4" stroke-linejoin="bevel"/>
<path d="M99.3872 18.3403C100.54 18.1881 101.747 18.4011 102.717 19.2437L102.718 19.2427C102.729 19.252 102.739 19.2626 102.75 19.272C102.759 19.2794 102.769 19.286 102.777 19.2935L102.776 19.2944C103.771 20.1568 104.211 21.3353 104.284 22.5591L104.258 22.5845H104.278L104.724 32.1587L104.725 32.1714C104.749 32.7605 104.648 33.4016 104.332 33.9917C104.435 34.0508 104.539 34.113 104.64 34.1802H104.639C105.63 34.8129 106.247 35.7591 106.458 36.8862L106.496 37.1177L106.497 37.1235C106.662 38.3678 106.327 39.5601 105.479 40.5278L105.378 40.6333C104.585 41.415 103.596 41.9082 102.47 42.0503L102.471 42.0513C101.369 42.1931 100.266 42.0166 99.2856 41.394L99.2837 41.3931C98.1985 40.7025 97.4729 39.6534 97.2974 38.3306C97.1212 37.0026 97.56 35.8464 98.4282 34.9429C98.4713 34.8921 98.5153 34.8427 98.5601 34.7944C98.0769 34.2826 97.8178 33.658 97.6929 33.0767L97.6919 33.0679L95.7271 23.7202L95.7212 23.6938C95.4972 22.5511 95.5119 21.2459 96.2456 20.1313C97.0044 18.9788 98.2225 18.4924 99.3872 18.3413V18.3403Z" fill="#292929" stroke="white" stroke-width="4" stroke-linejoin="bevel"/>
<path d="M122.03 142.977C129.973 137.871 147.206 135.53 156.78 137.303C166.354 139.076 177.701 169.571 170.964 174.89C164.227 180.209 119.548 178.79 110.329 177.372C101.11 175.954 112.102 149.359 122.03 142.977Z" fill="#313131"/>
<path d="M108.103 80.8035L114.939 58.6166C116.608 53.2005 122.02 50.6424 125.639 53.5767C131.288 58.1539 137.437 66.0028 134.006 77.1316C131.141 86.4296 123.797 90.8663 117.062 92.9745C110.738 94.9566 105.808 88.2444 108.104 80.8083L108.103 80.8035Z" fill="#276288"/>
<path d="M98.4307 135.817C97.5108 135.534 96.5391 136 96.1725 136.868L96.1069 137.047L93.7433 144.726L86.9217 148.654L86.7612 148.756C85.9963 149.307 85.7575 150.358 86.2377 151.192C86.7179 152.026 87.747 152.348 88.6066 151.963L88.7761 151.876L92.6824 149.626L91.9316 153.401C91.7316 154.407 92.3853 155.386 93.3919 155.586C94.3988 155.786 95.378 155.132 95.5782 154.125L96.3138 150.424L98.6666 153.569C99.2817 154.391 100.446 154.558 101.268 153.943C102.09 153.328 102.258 152.163 101.644 151.341L97.3588 145.615L99.6609 138.141L99.7074 137.957C99.8924 137.033 99.3506 136.1 98.4307 135.817Z" fill="#474747"/>
<path d="M130.578 118.019C129.99 118.78 130.085 119.854 130.769 120.502L130.913 120.626L137.272 125.537L138.553 133.304L138.592 133.49C138.839 134.4 139.739 134.993 140.689 134.836C141.639 134.68 142.301 133.829 142.242 132.889L142.221 132.7L141.487 128.252L144.757 130.281C145.629 130.822 146.775 130.554 147.316 129.682C147.857 128.81 147.589 127.663 146.717 127.122L143.51 125.133L147.281 124.035C148.266 123.748 148.833 122.716 148.546 121.731C148.259 120.745 147.227 120.178 146.241 120.465L139.375 122.465L133.186 117.683L133.03 117.575C132.23 117.077 131.166 117.257 130.578 118.019Z" fill="#474747"/>
<path d="M80.4117 92.8406L54.8395 93.3393C48.5979 93.4631 44.9644 97.8532 47.676 102.025C51.9066 108.54 59.6871 116.392 72.5169 116.144C83.2323 115.937 89.2314 110.23 92.5549 104.479C95.6842 99.0781 88.9841 92.6693 80.4083 92.834L80.4117 92.8406Z" fill="#276286"/>
<path d="M140.255 86.4686C149.662 102.03 140.8 122.101 121.831 133.573C102.861 145.045 80.9663 143.574 71.5511 128.019C66.2719 119.287 66.3933 108.56 70.8627 98.8001C69.7999 97.5511 68.8182 96.2003 67.9385 94.751C59.8756 81.4107 63.8242 65.4394 76.122 58.0057C88.4127 50.5709 104.397 54.4856 112.46 67.8259C113.339 69.2752 114.082 70.7742 114.684 72.2937C125.41 72.8675 134.968 77.7425 140.247 86.4745L140.255 86.4686Z" fill="#4B9AE8"/>
<path d="M72.634 82.77C75.1201 82.77 77.1354 80.7546 77.1354 78.2685C77.1354 75.7825 75.1201 73.7671 72.634 73.7671C70.1479 73.7671 68.1326 75.7825 68.1326 78.2685C68.1326 80.7546 70.1479 82.77 72.634 82.77Z" fill="white"/>
<path d="M72.6341 80.6698C73.9602 80.6698 75.0352 79.5948 75.0352 78.2687C75.0352 76.9427 73.9602 75.8677 72.6341 75.8677C71.3081 75.8677 70.2331 76.9427 70.2331 78.2687C70.2331 79.5948 71.3081 80.6698 72.6341 80.6698Z" fill="#040000"/>
<path d="M93.2003 73.5507C95.6864 73.5507 97.7017 71.5354 97.7017 69.0493C97.7017 66.5632 95.6864 64.5479 93.2003 64.5479C90.7142 64.5479 88.6989 66.5632 88.6989 69.0493C88.6989 71.5354 90.7142 73.5507 93.2003 73.5507Z" fill="white"/>
<path d="M93.2004 71.4505C94.5264 71.4505 95.6014 70.3756 95.6014 69.0495C95.6014 67.7234 94.5264 66.6484 93.2004 66.6484C91.8743 66.6484 90.7993 67.7234 90.7993 69.0495C90.7993 70.3756 91.8743 71.4505 93.2004 71.4505Z" fill="#040000"/>
<path d="M86.8317 85.8913C89.2698 85.3881 91.2259 81.1145 90.679 78.7203C90.3018 77.1706 88.5285 74.3505 84.453 75.4677C80.8126 76.2155 79.6544 78.4821 80.2028 80.871C80.7512 83.2599 84.3936 86.3945 86.8317 85.8913Z" fill="#DDB61E"/>
<path d="M45.2956 138.589C58.9119 135.185 69.0532 136.461 75.1047 139.979C81.1563 143.496 89.6195 167.31 84.6787 174.374C79.738 181.438 32.5304 180.076 27.9441 174.374C25.0463 170.772 28.2752 142.844 45.2956 138.589Z" fill="#313131"/>
</svg>
