<svg width="200" height="200" viewBox="0 0 200 200" fill="none" xmlns="http://www.w3.org/2000/svg">
<mask id="path-1-outside-1_1062_26203" maskUnits="userSpaceOnUse" x="15.25" y="15.25" width="170" height="170" fill="black">
<rect fill="white" x="15.25" y="15.25" width="170" height="170"/>
<path d="M159.062 21.25C169.75 21.25 178.75 30.25 178.75 40.9375V159.062C178.75 165.463 175.52 171.257 170.635 174.876L170.636 174.877C170.631 174.88 170.626 174.883 170.622 174.886C170.433 175.026 170.242 175.164 170.048 175.298L170.046 175.297C167.004 177.386 163.375 178.653 159.51 178.745C159.401 178.657 159.283 178.569 159.159 178.475C159.127 178.565 159.094 178.656 159.062 178.75H40.9336C36.8504 178.75 33.0129 177.436 29.8301 175.217V175.214C24.6845 171.624 21.25 165.665 21.25 159.062V40.9375C21.25 30.25 30.25 21.25 40.9375 21.25H159.062Z"/>
</mask>
<path d="M159.062 21.25C169.75 21.25 178.75 30.25 178.75 40.9375V159.062C178.75 165.463 175.52 171.257 170.635 174.876L170.636 174.877C170.631 174.88 170.626 174.883 170.622 174.886C170.433 175.026 170.242 175.164 170.048 175.298L170.046 175.297C167.004 177.386 163.375 178.653 159.51 178.745C159.401 178.657 159.283 178.569 159.159 178.475C159.127 178.565 159.094 178.656 159.062 178.75H40.9336C36.8504 178.75 33.0129 177.436 29.8301 175.217V175.214C24.6845 171.624 21.25 165.665 21.25 159.062V40.9375C21.25 30.25 30.25 21.25 40.9375 21.25H159.062Z" fill="#474747"/>
<path d="M170.635 174.876L167.063 170.055C165.661 171.094 164.78 172.692 164.651 174.433C164.522 176.174 165.158 177.884 166.392 179.119L170.635 174.876ZM170.636 174.877L174.207 179.698C175.61 178.659 176.49 177.061 176.619 175.32C176.748 173.579 176.113 171.869 174.878 170.634L170.636 174.877ZM170.622 174.886L174.19 179.71L174.19 179.71L170.622 174.886ZM170.048 175.298L167.365 180.664C169.317 181.641 171.646 181.479 173.445 180.243L170.048 175.298ZM170.046 175.297L172.729 169.93C170.777 168.954 168.448 169.115 166.649 170.351L170.046 175.297ZM159.51 178.745L155.746 183.418C156.851 184.308 158.235 184.777 159.652 184.743L159.51 178.745ZM159.159 178.475L162.79 173.698C161.264 172.537 159.274 172.177 157.437 172.727C155.6 173.278 154.137 174.673 153.5 176.482L159.159 178.475ZM159.062 178.75V184.75C161.633 184.75 163.917 183.113 164.744 180.679L159.062 178.75ZM29.8301 175.217H23.8301C23.8301 177.178 24.789 179.016 26.3981 180.138L29.8301 175.217ZM29.8301 175.214H35.8301C35.8301 173.253 34.8717 171.415 33.2634 170.293L29.8301 175.214ZM159.062 21.25V27.25C166.436 27.25 172.75 33.5637 172.75 40.9375H178.75H184.75C184.75 26.9363 173.064 15.25 159.062 15.25V21.25ZM178.75 40.9375H172.75V159.062H178.75H184.75V40.9375H178.75ZM178.75 159.062H172.75C172.75 163.413 170.545 167.476 167.063 170.055L170.635 174.876L174.206 179.697C180.496 175.038 184.75 167.513 184.75 159.062H178.75ZM170.635 174.876L166.392 179.119L166.393 179.12L170.636 174.877L174.878 170.634L174.877 170.633L170.635 174.876ZM170.636 174.877L167.064 170.056C167.143 169.997 167.215 169.947 167.275 169.906C167.336 169.866 167.388 169.832 167.428 169.807C167.448 169.794 167.466 169.783 167.482 169.773C167.497 169.764 167.51 169.756 167.52 169.75C167.53 169.744 167.538 169.739 167.542 169.736C167.547 169.734 167.55 169.731 167.549 169.732C167.549 169.732 167.549 169.732 167.549 169.732C167.548 169.733 167.548 169.733 167.547 169.733C167.546 169.734 167.544 169.735 167.541 169.737C167.536 169.74 167.527 169.745 167.517 169.751C167.507 169.758 167.493 169.766 167.478 169.775C167.462 169.785 167.444 169.796 167.423 169.81C167.382 169.835 167.329 169.87 167.268 169.911C167.207 169.952 167.134 170.002 167.054 170.062L170.622 174.886L174.19 179.71C174.111 179.768 174.04 179.818 173.979 179.858C173.92 179.899 173.868 179.932 173.828 179.957C173.808 179.97 173.79 179.981 173.775 179.99C173.76 180 173.747 180.007 173.737 180.013C173.727 180.019 173.72 180.024 173.715 180.027C173.711 180.029 173.707 180.031 173.708 180.031C173.708 180.031 173.71 180.03 173.711 180.029C173.712 180.028 173.715 180.027 173.717 180.025C173.723 180.022 173.731 180.017 173.742 180.011C173.752 180.004 173.766 179.996 173.782 179.986C173.797 179.977 173.816 179.965 173.837 179.952C173.878 179.926 173.931 179.891 173.993 179.85C174.054 179.808 174.127 179.758 174.207 179.698L170.636 174.877ZM170.622 174.886L167.054 170.062C166.886 170.186 166.76 170.277 166.651 170.352L170.048 175.298L173.445 180.243C173.724 180.052 173.979 179.866 174.19 179.71L170.622 174.886ZM170.048 175.298L172.731 169.931L172.729 169.93L170.046 175.297L167.363 180.663L167.365 180.664L170.048 175.298ZM170.046 175.297L166.649 170.351C164.507 171.822 161.998 172.684 159.367 172.747L159.51 178.745L159.652 184.743C164.752 184.622 169.5 182.95 173.443 180.243L170.046 175.297ZM159.51 178.745L163.273 174.072C163.081 173.917 162.873 173.761 162.79 173.698L159.159 178.475L155.528 183.251C155.692 183.376 155.721 183.398 155.746 183.418L159.51 178.745ZM159.159 178.475L153.5 176.482C153.491 176.506 153.427 176.686 153.381 176.821L159.062 178.75L164.744 180.679C164.762 180.626 164.764 180.623 164.819 180.467L159.159 178.475ZM159.062 178.75V172.75H40.9336V178.75V184.75H159.062V178.75ZM40.9336 178.75V172.75C38.1539 172.75 35.5025 171.858 33.2621 170.295L29.8301 175.217L26.3981 180.138C30.5233 183.015 35.5468 184.75 40.9336 184.75V178.75ZM29.8301 175.217H35.8301V175.214H29.8301H23.8301V175.217H29.8301ZM29.8301 175.214L33.2634 170.293C29.5986 167.736 27.25 163.553 27.25 159.062H21.25H15.25C15.25 167.776 19.7705 175.511 26.3968 180.134L29.8301 175.214ZM21.25 159.062H27.25V40.9375H21.25H15.25V159.062H21.25ZM21.25 40.9375H27.25C27.25 33.5637 33.5637 27.25 40.9375 27.25V21.25V15.25C26.9363 15.25 15.25 26.9363 15.25 40.9375H21.25ZM40.9375 21.25V27.25H159.062V21.25V15.25H40.9375V21.25Z" fill="white" mask="url(#path-1-outside-1_1062_26203)"/>
<path d="M159.062 178.75H118.647L112.771 174.856L106.895 178.75H93.3333L87.715 174.856L82.0967 178.75H40.9375C39.9929 175.564 38.339 174.534 36.5057 173.951C34.7946 173.409 32.502 173.951 30.3497 175.564C24.9172 172.019 21.25 165.885 21.25 159.062V40.9375C21.25 30.25 30.25 21.25 40.9375 21.25H159.062C169.75 21.25 178.75 30.25 178.75 40.9375V159.062C178.75 165.717 175.261 171.717 170.048 175.298C167.984 173.564 165.006 172.981 163.335 173.564C161.35 174.257 160.235 175.298 159.062 178.75Z" fill="#474747"/>
<path d="M159.51 178.745C158.863 178.223 157.959 177.583 156.765 176.925C153.542 175.147 148.011 173.125 139.373 173.125C130.853 173.125 124.905 175.368 121.177 177.465C120.397 177.904 119.71 178.339 119.113 178.75H106.299C105.984 177.2 106.322 175.532 107.353 174.194L107.49 174.024L107.497 174.014L107.506 174.003C107.577 173.92 107.649 173.838 107.721 173.757C107.834 173.631 107.983 173.469 108.17 173.277C108.541 172.893 109.061 172.387 109.733 171.801C111.078 170.63 113.041 169.134 115.662 167.66C120.935 164.694 128.768 161.875 139.373 161.875C149.86 161.875 157.267 164.353 162.2 167.075C164.649 168.426 166.442 169.812 167.67 170.925C168.284 171.48 168.756 171.967 169.098 172.347C169.323 172.595 169.744 173.119 169.744 173.119L169.748 173.125C170.156 173.669 170.45 174.262 170.636 174.877C167.478 177.217 163.628 178.647 159.51 178.745Z" fill="#D7E8FC"/>
<path d="M94.257 178.75C94.5726 177.2 94.2345 175.532 93.2029 174.194C93.1596 174.138 93.1123 174.078 93.0668 174.024L93.0589 174.014L93.0493 174.003C92.979 173.92 92.9076 173.838 92.835 173.757C92.722 173.631 92.5729 173.469 92.3867 173.277C92.0155 172.893 91.4957 172.387 90.823 171.801C89.478 170.63 87.5149 169.134 84.8942 167.66C79.6213 164.694 71.788 161.875 61.1832 161.875C50.6966 161.875 43.2894 164.353 38.3565 167.075C35.9077 168.426 34.1145 169.812 32.8857 170.925C32.2721 171.48 31.8002 171.967 31.4582 172.347C31.2336 172.595 30.8127 173.119 30.8127 173.119L30.8082 173.125C30.3258 173.768 30.002 174.481 29.8301 175.216C33.0129 177.436 36.8499 178.75 40.9332 178.75H41.0394C41.6875 178.228 42.5935 177.586 43.7911 176.925C47.0144 175.147 52.5447 173.125 61.1832 173.125C69.7033 173.125 75.6512 175.368 79.3783 177.465C80.1585 177.904 80.8465 178.339 81.4433 178.75H94.257Z" fill="#D7E8FC"/>
<path d="M150.625 83.125C150.625 100.781 141.692 107.354 128.125 109.799V125.312C128.125 129.972 124.347 133.75 119.688 133.75C115.028 133.75 111.25 129.972 111.25 125.312V116.875H105.625V128.125C105.625 131.232 103.107 133.75 100 133.75C96.8933 133.75 94.375 131.232 94.375 128.125V116.875H88.75V125.312C88.75 129.972 84.9723 133.75 80.3125 133.75C75.6527 133.75 71.875 129.972 71.875 125.312V109.799C58.3077 107.354 49.375 100.781 49.375 83.125C49.375 55 72.0404 32.5 100 32.5C127.96 32.5 150.625 55 150.625 83.125Z" fill="#D7E8FC"/>
<path d="M94.375 139.375C91.2683 139.375 88.75 141.893 88.75 145C88.75 148.107 91.2683 150.625 94.375 150.625H105.625C108.732 150.625 111.25 148.107 111.25 145C111.25 141.893 108.732 139.375 105.625 139.375H94.375Z" fill="#D7E8FC"/>
<path d="M88.75 161.875C88.75 158.768 91.2683 156.25 94.375 156.25H105.625C108.732 156.25 111.25 158.768 111.25 161.875C111.25 164.982 108.732 167.5 105.625 167.5H94.375C91.2683 167.5 88.75 164.982 88.75 161.875Z" fill="#D7E8FC"/>
<path d="M74.9058 94C81.0325 94 85.9992 89.0334 85.9992 82.9067C85.9992 76.78 81.0325 71.8134 74.9058 71.8134C68.7792 71.8134 63.8125 76.78 63.8125 82.9067C63.8125 89.0334 68.7792 94 74.9058 94Z" fill="white"/>
<path d="M74.7347 89.6373C78.4077 89.6373 81.3853 86.6597 81.3853 82.9866C81.3853 79.3135 78.4077 76.3359 74.7347 76.3359C71.0616 76.3359 68.084 79.3135 68.084 82.9866C68.084 86.6597 71.0616 89.6373 74.7347 89.6373Z" fill="black"/>
<path d="M125.312 94.2184C131.439 94.2184 136.405 89.2517 136.405 83.1251C136.405 76.9984 131.439 72.0317 125.312 72.0317C119.185 72.0317 114.219 76.9984 114.219 83.1251C114.219 89.2517 119.185 94.2184 125.312 94.2184Z" fill="white"/>
<path d="M125.141 89.8557C128.814 89.8557 131.792 86.8781 131.792 83.205C131.792 79.5319 128.814 76.5543 125.141 76.5543C121.468 76.5543 118.49 79.5319 118.49 83.205C118.49 86.8781 121.468 89.8557 125.141 89.8557Z" fill="black"/>
<path d="M95.1405 105H104.724C107.672 105 109.147 102.789 106.935 100.579L105.461 95.4211C104.724 92.4737 102.512 91 99.5635 91C97.352 91 94.4033 92.4737 93.6661 95.4211L92.1918 100.579C91.4546 102.789 92.9289 105 95.1405 105Z" fill="#EAC00F"/>
</svg>
