<svg width="200" height="200" viewBox="0 0 200 200" fill="none" xmlns="http://www.w3.org/2000/svg">
<mask id="path-1-outside-1_1347_8308" maskUnits="userSpaceOnUse" x="41" y="12.999" width="118" height="174" fill="black">
<rect fill="white" x="41" y="12.999" width="118" height="174"/>
<path d="M88.8232 20.9951C96.7873 20.5328 103.471 17.9119 114.865 23.6631C120 26.3784 122.771 29.6952 124.229 32.7803C124.232 32.7784 124.236 32.7773 124.24 32.7754C124.797 33.9415 125.194 35.1675 125.434 36.4209C125.442 36.461 125.448 36.5012 125.456 36.541C125.476 36.6487 125.496 36.7562 125.514 36.8643C126.066 40.0851 125.44 42.4131 125.44 42.4131C124.517 42.9085 123.608 43.3497 122.716 43.7432C123.828 43.8658 124.938 44.0501 126.039 44.2988C126.322 44.3628 126.604 44.4329 126.885 44.5049C128.271 41.6764 129.921 38.9786 131.816 36.4502C134.051 33.1468 137.244 30.608 140.966 29.1758C140.966 29.1758 143.363 28.6445 145.585 29.4766C146.77 29.8746 147.934 30.6404 148.691 32.0625C149.921 34.1986 150.482 36.6541 150.304 39.1123H149.892C149.883 39.102 149.874 39.0923 149.866 39.082C146.2 39.8344 142.756 41.4223 139.804 43.7256C138.385 45.221 137.047 46.7882 135.794 48.4199C138.997 50.5049 141.801 53.1993 144.026 56.3867C148.307 62.5165 150.144 70.0239 149.178 77.4375C148.882 80.5211 148.124 83.5429 146.928 86.4004C145.752 89.4859 145.212 92.7777 145.341 96.0771C145.47 99.3766 146.265 102.616 147.678 105.601C153.096 117.923 153.5 131.873 148.803 144.488C144.665 157.671 135.461 168.67 123.214 175.066C110.967 181.463 96.68 182.731 83.4971 178.594C70.3142 174.456 59.3141 165.252 52.918 153.005C46.5218 140.758 45.2533 126.471 49.3906 113.288C51.2494 105.93 54.7014 99.0696 59.5029 93.1924C64.3044 87.3152 70.3383 82.5643 77.1777 79.2754C83.5111 76.2259 88.4269 70.854 90.9033 64.2754C93.2177 57.1663 98.1032 51.1775 104.603 47.4824C105.639 46.8934 106.704 46.3692 107.792 45.9111C97.3529 43.977 90.2729 34.5015 86.085 26.002L85.5029 24.7881C85.4909 24.7628 85.4778 24.7381 85.4658 24.7129C85.3034 24.3058 85.2412 23.8658 85.2842 23.4297C85.3272 22.9935 85.474 22.5735 85.7129 22.2061C85.9517 21.8387 86.2752 21.5337 86.6562 21.3174C87.0373 21.101 87.4654 20.9797 87.9033 20.9629H88.8027C88.8095 20.9736 88.8165 20.9844 88.8232 20.9951Z"/>
</mask>
<path d="M88.8232 20.9951C96.7873 20.5328 103.471 17.9119 114.865 23.6631C120 26.3784 122.771 29.6952 124.229 32.7803C124.232 32.7784 124.236 32.7773 124.24 32.7754C124.797 33.9415 125.194 35.1675 125.434 36.4209C125.442 36.461 125.448 36.5012 125.456 36.541C125.476 36.6487 125.496 36.7562 125.514 36.8643C126.066 40.0851 125.44 42.4131 125.44 42.4131C124.517 42.9085 123.608 43.3497 122.716 43.7432C123.828 43.8658 124.938 44.0501 126.039 44.2988C126.322 44.3628 126.604 44.4329 126.885 44.5049C128.271 41.6764 129.921 38.9786 131.816 36.4502C134.051 33.1468 137.244 30.608 140.966 29.1758C140.966 29.1758 143.363 28.6445 145.585 29.4766C146.77 29.8746 147.934 30.6404 148.691 32.0625C149.921 34.1986 150.482 36.6541 150.304 39.1123H149.892C149.883 39.102 149.874 39.0923 149.866 39.082C146.2 39.8344 142.756 41.4223 139.804 43.7256C138.385 45.221 137.047 46.7882 135.794 48.4199C138.997 50.5049 141.801 53.1993 144.026 56.3867C148.307 62.5165 150.144 70.0239 149.178 77.4375C148.882 80.5211 148.124 83.5429 146.928 86.4004C145.752 89.4859 145.212 92.7777 145.341 96.0771C145.47 99.3766 146.265 102.616 147.678 105.601C153.096 117.923 153.5 131.873 148.803 144.488C144.665 157.671 135.461 168.67 123.214 175.066C110.967 181.463 96.68 182.731 83.4971 178.594C70.3142 174.456 59.3141 165.252 52.918 153.005C46.5218 140.758 45.2533 126.471 49.3906 113.288C51.2494 105.93 54.7014 99.0696 59.5029 93.1924C64.3044 87.3152 70.3383 82.5643 77.1777 79.2754C83.5111 76.2259 88.4269 70.854 90.9033 64.2754C93.2177 57.1663 98.1032 51.1775 104.603 47.4824C105.639 46.8934 106.704 46.3692 107.792 45.9111C97.3529 43.977 90.2729 34.5015 86.085 26.002L85.5029 24.7881C85.4909 24.7628 85.4778 24.7381 85.4658 24.7129C85.3034 24.3058 85.2412 23.8658 85.2842 23.4297C85.3272 22.9935 85.474 22.5735 85.7129 22.2061C85.9517 21.8387 86.2752 21.5337 86.6562 21.3174C87.0373 21.101 87.4654 20.9797 87.9033 20.9629H88.8027C88.8095 20.9736 88.8165 20.9844 88.8232 20.9951Z" fill="#46B000"/>
<path d="M88.8232 20.9951L83.7476 24.1947C84.9126 26.0428 86.99 27.1116 89.1709 26.985L88.8232 20.9951ZM114.865 23.6631L117.67 18.359C117.636 18.3412 117.603 18.3238 117.569 18.3068L114.865 23.6631ZM124.229 32.7803L118.803 35.343C119.494 36.8042 120.744 37.9252 122.272 38.4522C123.799 38.9793 125.475 38.8678 126.919 38.143L124.229 32.7803ZM124.24 32.7754L129.655 30.1907C128.96 28.7358 127.71 27.6216 126.185 27.0992C124.66 26.5767 122.988 26.69 121.548 27.4135L124.24 32.7754ZM125.434 36.4209L119.54 37.5476C119.544 37.5661 119.547 37.5846 119.551 37.6031L125.434 36.4209ZM125.456 36.541L131.358 35.4624C131.355 35.443 131.351 35.4237 131.347 35.4044L125.456 36.541ZM125.514 36.8643L119.589 37.8134C119.593 37.835 119.596 37.8566 119.6 37.8781L125.514 36.8643ZM125.44 42.4131L128.276 47.7007C129.735 46.9185 130.805 45.5684 131.235 43.9699L125.44 42.4131ZM122.716 43.7432L120.294 38.2536C117.811 39.349 116.373 41.9746 116.786 44.6567C117.199 47.3388 119.361 49.4097 122.058 49.707L122.716 43.7432ZM126.039 44.2988L127.361 38.4463L127.361 38.4463L126.039 44.2988ZM126.885 44.5049L125.394 50.3167C128.148 51.0233 131.021 49.6993 132.272 47.1459L126.885 44.5049ZM131.816 36.4502L136.617 40.0493C136.675 39.9714 136.732 39.8922 136.786 39.8116L131.816 36.4502ZM140.966 29.1758L139.668 23.3179C139.376 23.3825 139.09 23.4688 138.811 23.5761L140.966 29.1758ZM145.585 29.4766L143.481 35.0954C143.545 35.1196 143.61 35.1426 143.675 35.1645L145.585 29.4766ZM148.691 32.0625L143.396 34.8836C143.427 34.9415 143.459 34.999 143.491 35.0558L148.691 32.0625ZM150.304 39.1123V45.1123C153.449 45.1123 156.06 42.684 156.288 39.5474L150.304 39.1123ZM149.892 39.1123L145.199 42.8515C146.338 44.2801 148.065 45.1123 149.892 45.1123V39.1123ZM149.866 39.082L154.538 35.3174C153.129 33.5683 150.861 32.753 148.66 33.2045L149.866 39.082ZM139.804 43.7256L136.113 38.9949C135.878 39.1786 135.656 39.3796 135.451 39.5962L139.804 43.7256ZM135.794 48.4199L131.035 44.7653C130.017 46.0917 129.598 47.7831 129.88 49.4317C130.162 51.0802 131.119 52.5362 132.521 53.4486L135.794 48.4199ZM144.026 56.3867L148.946 52.9517L148.946 52.9516L144.026 56.3867ZM149.178 77.4375L143.228 76.6624C143.219 76.7299 143.212 76.7976 143.205 76.8653L149.178 77.4375ZM146.928 86.4004L141.393 84.0837C141.368 84.1433 141.344 84.2033 141.321 84.2636L146.928 86.4004ZM145.341 96.0771L139.345 96.3113L139.345 96.3114L145.341 96.0771ZM147.678 105.601L153.17 103.185C153.148 103.134 153.124 103.083 153.101 103.033L147.678 105.601ZM148.803 144.488L143.18 142.395C143.143 142.493 143.109 142.592 143.078 142.692L148.803 144.488ZM123.214 175.066L125.991 180.385L125.991 180.385L123.214 175.066ZM83.4971 178.594L81.7004 184.318H81.7004L83.4971 178.594ZM52.918 153.005L47.5996 155.782H47.5996L52.918 153.005ZM49.3906 113.288L55.1153 115.085C55.1493 114.977 55.1801 114.868 55.2079 114.758L49.3906 113.288ZM59.5029 93.1924L54.8564 89.3963L54.8564 89.3963L59.5029 93.1924ZM77.1777 79.2754L79.7779 84.6827L79.7807 84.6814L77.1777 79.2754ZM90.9033 64.2754L96.5187 66.3892C96.5506 66.3044 96.5806 66.2189 96.6086 66.1327L90.9033 64.2754ZM104.603 47.4824L101.637 42.2665L101.637 42.2665L104.603 47.4824ZM107.792 45.9111L110.12 51.4413C112.563 50.4128 114.042 47.9026 113.757 45.2668C113.473 42.631 111.492 40.4945 108.885 40.0115L107.792 45.9111ZM86.085 26.002L80.6747 28.5961C80.684 28.6154 80.6934 28.6347 80.7028 28.6539L86.085 26.002ZM85.5029 24.7881L80.0891 27.3747L80.0927 27.3822L85.5029 24.7881ZM85.4658 24.7129L79.8931 26.9365C79.9411 27.0568 79.993 27.1755 80.0487 27.2925L85.4658 24.7129ZM85.2842 23.4297L79.3132 22.8405L79.3132 22.8407L85.2842 23.4297ZM85.7129 22.2061L80.6827 18.9354L80.6822 18.9361L85.7129 22.2061ZM86.6562 21.3174L83.6939 16.0996L83.6937 16.0998L86.6562 21.3174ZM87.9033 20.9629V14.9629C87.8265 14.9629 87.7498 14.9644 87.673 14.9673L87.9033 20.9629ZM88.8027 20.9629L93.8807 17.767C92.7824 16.0218 90.8648 14.9629 88.8027 14.9629V20.9629ZM88.8232 20.9951L89.1709 26.985C98.3829 26.4503 102.638 24.2123 112.162 29.0194L114.865 23.6631L117.569 18.3068C104.305 11.6115 95.1916 14.6153 88.4755 15.0052L88.8232 20.9951ZM114.865 23.6631L112.061 28.9672C116.127 31.1175 117.937 33.5087 118.803 35.343L124.229 32.7803L129.654 30.2175C127.606 25.8818 123.874 21.6393 117.67 18.359L114.865 23.6631ZM124.229 32.7803L126.919 38.143C126.826 38.19 126.742 38.2292 126.67 38.261C126.599 38.2927 126.537 38.3184 126.49 38.3377C126.466 38.3474 126.445 38.3559 126.427 38.3629C126.409 38.3699 126.394 38.3758 126.382 38.3804C126.37 38.3849 126.361 38.3884 126.355 38.3905C126.352 38.3916 126.35 38.3925 126.349 38.393C126.348 38.3934 126.346 38.3938 126.347 38.3937C126.347 38.3937 126.347 38.3935 126.348 38.3934C126.348 38.3932 126.349 38.3929 126.35 38.3926C126.351 38.392 126.354 38.3911 126.357 38.3899C126.363 38.3875 126.373 38.3838 126.385 38.3791C126.398 38.3743 126.414 38.3682 126.432 38.3609C126.45 38.3537 126.472 38.345 126.497 38.335C126.545 38.3152 126.608 38.289 126.68 38.2568C126.753 38.2246 126.838 38.1848 126.933 38.1373L124.24 32.7754L121.548 27.4135C121.641 27.3664 121.726 27.3272 121.797 27.2953C121.869 27.2635 121.93 27.2378 121.978 27.2184C122.002 27.2086 122.023 27.2001 122.041 27.193C122.059 27.186 122.075 27.18 122.086 27.1755C122.098 27.171 122.108 27.1674 122.113 27.1652C122.116 27.1641 122.119 27.1633 122.12 27.1628C122.121 27.1623 122.122 27.1619 122.122 27.162C122.122 27.162 122.122 27.1621 122.121 27.1623C122.121 27.1624 122.12 27.1627 122.119 27.163C122.118 27.1636 122.115 27.1645 122.112 27.1657C122.106 27.168 122.096 27.1718 122.084 27.1764C122.072 27.1811 122.056 27.1872 122.037 27.1945C122.019 27.2017 121.997 27.2104 121.973 27.2203C121.924 27.24 121.862 27.2661 121.79 27.2982C121.717 27.3304 121.632 27.3701 121.538 27.4175L124.229 32.7803ZM124.24 32.7754L118.826 35.3601C119.155 36.0514 119.395 36.7862 119.54 37.5476L125.434 36.4209L131.327 35.2942C130.993 33.5488 130.438 31.8316 129.655 30.1907L124.24 32.7754ZM125.434 36.4209L119.551 37.6031C119.547 37.5816 119.544 37.5657 119.542 37.5582C119.541 37.5514 119.541 37.5482 119.542 37.5555C119.542 37.5572 119.543 37.559 119.543 37.5615C119.543 37.5638 119.544 37.5669 119.545 37.5701C119.546 37.5765 119.547 37.5853 119.549 37.5953C119.553 37.6149 119.558 37.6438 119.565 37.6776L125.456 36.541L131.347 35.4044C131.349 35.4117 131.35 35.4173 131.351 35.421C131.351 35.4246 131.352 35.4268 131.352 35.4269C131.352 35.427 131.352 35.4266 131.351 35.4258C131.351 35.425 131.351 35.4238 131.351 35.4221C131.35 35.4202 131.35 35.4184 131.35 35.4157C131.349 35.4132 131.349 35.41 131.348 35.4066C131.344 35.3843 131.332 35.3172 131.316 35.2387L125.434 36.4209ZM125.456 36.541L119.554 37.6197C119.56 37.6537 119.566 37.6875 119.571 37.7118C119.576 37.7387 119.579 37.7577 119.582 37.7748C119.589 37.8094 119.59 37.8177 119.589 37.8134L125.514 36.8643L131.438 35.9151C131.407 35.7209 131.365 35.5003 131.358 35.4624L125.456 36.541ZM125.514 36.8643L119.6 37.8781C119.773 38.8853 119.758 39.7432 119.708 40.3164C119.682 40.5995 119.649 40.8008 119.631 40.9007C119.622 40.9502 119.616 40.9732 119.618 40.967C119.618 40.9638 119.621 40.9533 119.625 40.935C119.628 40.9258 119.631 40.9147 119.634 40.9016C119.636 40.8951 119.637 40.888 119.639 40.8805C119.64 40.8767 119.642 40.8728 119.643 40.8688C119.643 40.8668 119.644 40.8647 119.644 40.8626C119.644 40.8616 119.645 40.86 119.645 40.8595C119.645 40.8579 119.646 40.8563 125.44 42.4131C131.235 43.9699 131.235 43.9682 131.236 43.9666C131.236 43.9661 131.236 43.9644 131.237 43.9633C131.237 43.9611 131.238 43.9588 131.239 43.9565C131.24 43.9519 131.241 43.9472 131.242 43.9423C131.245 43.9325 131.248 43.922 131.25 43.911C131.256 43.8889 131.262 43.8643 131.269 43.8373C131.283 43.7834 131.298 43.7196 131.315 43.6466C131.348 43.5005 131.387 43.3164 131.428 43.0973C131.51 42.6601 131.598 42.0781 131.661 41.3766C131.784 39.9806 131.807 38.0641 131.427 35.8504L125.514 36.8643ZM125.44 42.4131L122.605 37.1255C121.818 37.5472 121.048 37.9212 120.294 38.2536L122.716 43.7432L125.138 49.2327C126.168 48.7782 127.215 48.2698 128.276 47.7007L125.44 42.4131ZM122.716 43.7432L122.058 49.707C122.952 49.8055 123.839 49.9531 124.717 50.1514L126.039 44.2988L127.361 38.4463C126.036 38.147 124.704 37.926 123.373 37.7793L122.716 43.7432ZM126.039 44.2988L124.717 50.1514C124.92 50.1971 125.138 50.2512 125.394 50.3167L126.885 44.5049L128.376 38.6931C128.07 38.6146 127.725 38.5285 127.361 38.4463L126.039 44.2988ZM126.885 44.5049L132.272 47.1459C133.495 44.6522 134.948 42.2754 136.617 40.0493L131.816 36.4502L127.016 32.8511C124.894 35.6818 123.048 38.7005 121.497 41.8639L126.885 44.5049ZM131.816 36.4502L136.786 39.8116C138.333 37.5247 140.544 35.7671 143.121 34.7755L140.966 29.1758L138.811 23.5761C133.944 25.4489 129.768 28.7689 126.846 33.0888L131.816 36.4502ZM140.966 29.1758C142.264 35.0337 142.262 35.034 142.261 35.0344C142.26 35.0345 142.259 35.0348 142.258 35.035C142.256 35.0354 142.254 35.0359 142.252 35.0363C142.248 35.0371 142.245 35.0379 142.241 35.0387C142.234 35.0402 142.228 35.0416 142.222 35.0429C142.21 35.0454 142.199 35.0476 142.191 35.0493C142.174 35.0526 142.165 35.0544 142.162 35.0549C142.157 35.0559 142.177 35.0521 142.218 35.0463C142.303 35.0342 142.454 35.017 142.639 35.0109C143.074 34.9966 143.369 35.0536 143.481 35.0954L145.585 29.4766L147.689 23.8577C145.579 23.0674 143.565 22.9741 142.245 23.0174C141.554 23.0401 140.966 23.1037 140.533 23.1652C140.314 23.1963 140.129 23.2275 139.984 23.2542C139.911 23.2677 139.848 23.28 139.796 23.2908C139.769 23.2962 139.745 23.3012 139.724 23.3057C139.713 23.308 139.703 23.3101 139.694 23.3121C139.689 23.3132 139.685 23.3141 139.68 23.3151C139.678 23.3156 139.676 23.316 139.674 23.3165C139.673 23.3167 139.671 23.3171 139.671 23.3172C139.669 23.3175 139.668 23.3179 140.966 29.1758ZM145.585 29.4766L143.675 35.1645C143.731 35.1833 143.685 35.1765 143.594 35.105C143.549 35.0695 143.503 35.0265 143.464 34.9795C143.424 34.9321 143.403 34.8962 143.396 34.8836L148.691 32.0625L153.987 29.2414C152.365 26.1976 149.817 24.5682 147.495 23.7886L145.585 29.4766ZM148.691 32.0625L143.491 35.0558C144.123 36.1527 144.411 37.4141 144.32 38.6772L150.304 39.1123L156.288 39.5474C156.554 35.8941 155.719 32.2444 153.891 29.0692L148.691 32.0625ZM150.304 39.1123V33.1123H149.892V39.1123V45.1123H150.304V39.1123ZM149.892 39.1123L154.584 35.3731C154.539 35.317 154.502 35.2716 154.477 35.2424C154.464 35.2275 154.454 35.2152 154.447 35.2068C154.44 35.1987 154.434 35.192 154.433 35.1904C154.43 35.1869 154.433 35.1902 154.435 35.1931C154.438 35.1968 154.445 35.2047 154.454 35.2149C154.47 35.2348 154.501 35.271 154.538 35.3174L149.866 39.082L145.194 42.8467C145.215 42.8729 145.234 42.896 145.25 42.9155C145.267 42.9349 145.281 42.9515 145.291 42.9644C145.302 42.9771 145.311 42.9875 145.316 42.9937C145.319 42.9969 145.321 42.9996 145.323 43.0012C145.324 43.002 145.324 43.0028 145.324 43.0032C145.325 43.0038 145.325 43.0037 145.325 43.0039C145.326 43.0048 145.322 43.0006 145.318 42.995C145.312 42.9891 145.304 42.9793 145.294 42.9669C145.283 42.9545 145.27 42.9383 145.254 42.9193C145.238 42.9002 145.22 42.8774 145.199 42.8515L149.892 39.1123ZM149.866 39.082L148.66 33.2045C144.09 34.1423 139.795 36.1221 136.113 38.9949L139.804 43.7256L143.494 48.4562C145.717 46.7225 148.31 45.5264 151.072 44.9596L149.866 39.082ZM139.804 43.7256L135.451 39.5962C133.888 41.2436 132.415 42.9693 131.035 44.7653L135.794 48.4199L140.552 52.0746C141.68 50.6071 142.882 49.1984 144.157 47.855L139.804 43.7256ZM135.794 48.4199L132.521 53.4486C135.085 55.1174 137.327 57.273 139.107 59.8218L144.026 56.3867L148.946 52.9516C146.274 49.1257 142.91 45.8924 139.067 43.3913L135.794 48.4199ZM144.026 56.3867L139.107 59.8217C142.531 64.7255 144.001 70.7314 143.228 76.6624L149.178 77.4375L155.127 78.2126C156.286 69.3164 154.082 60.3076 148.946 52.9517L144.026 56.3867ZM149.178 77.4375L143.205 76.8653C142.967 79.3488 142.356 81.7825 141.393 84.0837L146.928 86.4004L152.462 88.7171C153.891 85.3033 154.798 81.6933 155.15 78.0097L149.178 77.4375ZM146.928 86.4004L141.321 84.2636C139.857 88.1051 139.185 92.2033 139.345 96.3113L145.341 96.0771L151.336 95.8429C151.239 93.352 151.647 90.8667 152.534 88.5371L146.928 86.4004ZM145.341 96.0771L139.345 96.3114C139.506 100.419 140.496 104.453 142.255 108.168L147.678 105.601L153.101 103.033C152.034 100.78 151.434 98.3339 151.336 95.8429L145.341 96.0771ZM147.678 105.601L142.185 108.016C146.976 118.91 147.332 131.242 143.18 142.395L148.803 144.488L154.426 146.582C159.667 132.504 159.217 116.937 153.17 103.185L147.678 105.601ZM148.803 144.488L143.078 142.692C139.417 154.356 131.273 164.089 120.436 169.748L123.214 175.066L125.991 180.385C139.649 173.252 149.913 160.986 154.527 146.285L148.803 144.488ZM123.214 175.066L120.436 169.748C109.6 175.407 96.9585 176.53 85.2937 172.869L83.4971 178.594L81.7004 184.318C96.4015 188.932 112.333 187.518 125.991 180.385L123.214 175.066ZM83.4971 178.594L85.2937 172.869C73.6289 169.208 63.8958 161.064 58.2364 150.227L52.918 153.005L47.5996 155.782C54.7325 169.44 66.9995 179.705 81.7004 184.318L83.4971 178.594ZM52.918 153.005L58.2364 150.227C52.577 139.391 51.4545 126.749 55.1153 115.085L49.3906 113.288L43.6659 111.491C39.0522 126.192 40.4667 142.125 47.5996 155.782L52.918 153.005ZM49.3906 113.288L55.2079 114.758C56.8515 108.251 59.9039 102.185 64.1494 96.9884L59.5029 93.1924L54.8564 89.3963C49.4989 95.9541 45.6473 103.609 43.5734 111.819L49.3906 113.288ZM59.5029 93.1924L64.1494 96.9885C68.395 91.7918 73.7303 87.5908 79.7779 84.6827L77.1777 79.2754L74.5775 73.8681C66.9462 77.5377 60.2139 82.8387 54.8564 89.3963L59.5029 93.1924ZM77.1777 79.2754L79.7807 84.6814C87.5038 80.9627 93.4986 74.4119 96.5187 66.3892L90.9033 64.2754L85.288 62.1616C83.3552 67.2961 79.5183 71.4891 74.5748 73.8694L77.1777 79.2754ZM90.9033 64.2754L96.6086 66.1327C98.4601 60.4455 102.368 55.6545 107.568 52.6984L104.603 47.4824L101.637 42.2665C93.8379 46.7006 87.9753 53.8871 85.198 62.418L90.9033 64.2754ZM104.603 47.4824L107.568 52.6984C108.398 52.2266 109.25 51.8073 110.12 51.4413L107.792 45.9111L105.464 40.381C104.158 40.931 102.88 41.5601 101.637 42.2665L104.603 47.4824ZM107.792 45.9111L108.885 40.0115C101.411 38.6268 95.4854 31.5053 91.4671 23.35L86.085 26.002L80.7028 28.6539C85.0604 37.4976 93.2944 49.3272 106.699 51.8107L107.792 45.9111ZM86.085 26.002L91.4952 23.4078L90.9132 22.194L85.5029 24.7881L80.0927 27.3822L80.6747 28.5961L86.085 26.002ZM85.5029 24.7881L90.9167 22.2015C90.8971 22.1603 90.8803 22.1261 90.8689 22.1032C90.8584 22.082 90.8486 22.0626 90.847 22.0593C90.843 22.0515 90.8468 22.059 90.8519 22.0692C90.8576 22.0807 90.8688 22.1035 90.883 22.1333L85.4658 24.7129L80.0487 27.2925C80.0688 27.3349 80.0862 27.3702 80.0981 27.3943C80.1094 27.417 80.1194 27.437 80.1218 27.4417C80.1264 27.4509 80.1229 27.444 80.1186 27.4352C80.1134 27.4249 80.1027 27.4032 80.0891 27.3747L85.5029 24.7881ZM85.4658 24.7129L91.0386 22.4893C91.2323 22.9749 91.3064 23.4995 91.2552 24.0187L85.2842 23.4297L79.3132 22.8407C79.1759 24.2322 79.3745 25.6368 79.8931 26.9365L85.4658 24.7129ZM85.2842 23.4297L91.2552 24.0189C91.2043 24.5341 91.0307 25.0342 90.7436 25.476L85.7129 22.2061L80.6822 18.9361C79.9174 20.1128 79.4501 21.4529 79.3132 22.8405L85.2842 23.4297ZM85.7129 22.2061L90.7431 25.4767C90.4599 25.9123 90.0752 26.2758 89.6188 26.535L86.6562 21.3174L83.6937 16.0998C82.4753 16.7916 81.4436 17.7652 80.6827 18.9354L85.7129 22.2061ZM86.6562 21.3174L89.6186 26.5351C89.1599 26.7955 88.6503 26.9386 88.1336 26.9585L87.9033 20.9629L87.673 14.9673C86.2805 15.0208 84.9148 15.4065 83.6939 16.0996L86.6562 21.3174ZM87.9033 20.9629V26.9629H88.8027V20.9629V14.9629H87.9033V20.9629ZM88.8027 20.9629L83.7247 24.1588C83.7339 24.1734 83.7417 24.1856 83.7471 24.1942C83.7523 24.2024 83.757 24.2096 83.7584 24.2119C83.7609 24.2157 83.7599 24.2142 83.7586 24.2121C83.757 24.2096 83.7529 24.2033 83.7476 24.1947L88.8232 20.9951L93.8989 17.7955C93.8902 17.7816 93.8827 17.7699 93.8777 17.762C93.873 17.7546 93.8685 17.7477 93.8675 17.7461C93.8656 17.7431 93.8668 17.7449 93.8685 17.7477C93.8706 17.7509 93.875 17.7578 93.8807 17.767L88.8027 20.9629Z" fill="white" mask="url(#path-1-outside-1_1347_8308)"/>
<path d="M147.678 105.601C146.265 102.616 145.47 99.377 145.341 96.0774C145.212 92.7779 145.752 89.4864 146.928 86.4008C148.124 83.5433 148.883 80.5219 149.178 77.4383C150.144 70.0246 148.307 62.5175 144.027 56.3876C139.746 50.2577 133.332 45.9469 126.039 44.2997C118.746 42.6526 111.102 43.7877 104.602 47.4828C98.1029 51.178 93.2174 57.1667 90.9031 64.2758C88.4267 70.8544 83.5114 76.2263 77.1781 79.2758C70.3385 82.5647 64.3047 87.3157 59.5031 93.1929C54.7015 99.0701 51.2494 105.93 49.3906 113.288C45.2532 126.471 46.5222 140.758 52.9183 153.005C59.3145 165.252 70.3139 174.457 83.4968 178.595C96.6797 182.732 110.966 181.463 123.214 175.067C135.461 168.671 144.666 157.671 148.803 144.488C153.5 131.873 153.097 117.924 147.678 105.601Z" fill="#9FE868"/>
<path d="M112.708 117.421C110.934 121.079 104.638 125.867 100.243 124.434C95.8481 123.001 93.3175 115.165 94.4785 110.972C95.6368 106.788 99.6581 105.001 106.216 107.148C112.845 109.32 114.482 113.762 112.708 117.421Z" fill="#EAC00F"/>
<path d="M76 114C82.0751 114 87 109.075 87 103C87 96.9249 82.0751 92 76 92C69.9249 92 65 96.9249 65 103C65 109.075 69.9249 114 76 114Z" fill="white"/>
<path d="M75.8286 109.674C79.4708 109.674 82.4233 106.721 82.4233 103.079C82.4233 99.4369 79.4708 96.4844 75.8286 96.4844C72.1865 96.4844 69.2339 99.4369 69.2339 103.079C69.2339 106.721 72.1865 109.674 75.8286 109.674Z" fill="black"/>
<path d="M135 129C141.075 129 146 124.075 146 118C146 111.925 141.075 107 135 107C128.925 107 124 111.925 124 118C124 124.075 128.925 129 135 129Z" fill="white"/>
<path d="M134.829 124.674C138.471 124.674 141.423 121.721 141.423 118.079C141.423 114.437 138.471 111.484 134.829 111.484C131.186 111.484 128.234 114.437 128.234 118.079C128.234 121.721 131.186 124.674 134.829 124.674Z" fill="black"/>
<path d="M148.803 128.776C144.828 139.685 137.317 148.951 127.467 155.097C117.616 161.243 105.992 163.917 94.4461 162.692C82.9001 161.467 72.0959 156.414 63.7542 148.338C55.4125 140.262 50.0129 129.626 48.4154 118.126C46.5022 130.836 49.3557 143.804 56.4272 154.537C63.4988 165.27 74.2889 173.009 86.7224 176.267C99.1559 179.524 112.355 178.069 123.78 172.182C135.206 166.295 144.051 156.391 148.615 144.376C151.72 136.086 152.65 127.139 151.315 118.388C150.846 121.93 150.004 125.412 148.803 128.776Z" fill="#7AC93F"/>
<path d="M124.316 50.7759C126.029 45.6286 128.562 40.7915 131.816 36.4509C134.05 33.1473 137.244 30.6081 140.966 29.1759C140.966 29.1759 146.366 27.9759 148.466 31.9884C149.696 34.1246 150.257 36.5801 150.078 39.0384C146.333 39.7723 142.813 41.3781 139.803 43.7259C136.444 47.2671 133.535 51.2094 131.141 55.4634C129.669 55.4383 128.237 54.9804 127.023 54.1468C125.809 53.3132 124.868 52.1409 124.316 50.7759Z" fill="#B89558"/>
<path d="M127.204 54.3001C128.785 50.5809 130.813 47.0676 133.242 43.8376C135.483 40.5496 138.676 38.0245 142.392 36.6001C143.751 36.2509 145.182 36.3023 146.513 36.7481C147.844 37.1938 149.017 38.015 149.892 39.1126H150.304C150.483 36.6543 149.921 34.1988 148.692 32.0626C146.554 28.0501 141.192 29.2501 141.192 29.2501C137.469 30.6824 134.276 33.2215 132.042 36.5251C128.78 40.8611 126.247 45.6995 124.542 50.8501C125.068 52.2383 125.995 53.439 127.204 54.3001Z" fill="#DEBB7E"/>
<path d="M125.44 42.4134C125.44 42.4134 128.553 30.9009 114.865 23.6634C103.053 17.7009 96.3025 20.7384 87.94 21.0384C87.5021 21.0553 87.0746 21.177 86.6935 21.3934C86.3123 21.6098 85.9887 21.9145 85.7499 22.282C85.511 22.6495 85.3639 23.0689 85.3208 23.5051C85.2778 23.9412 85.3401 24.3814 85.5025 24.7884C91.5025 37.6509 104.253 53.7759 125.44 42.4134Z" fill="#6DD627"/>
<path d="M88.8029 20.9629H87.9029C87.465 20.9797 87.0375 21.1014 86.6563 21.3178C86.2752 21.5342 85.9516 21.839 85.7128 22.2065C85.4739 22.5739 85.3268 22.9934 85.2837 23.4295C85.2407 23.8657 85.303 24.3058 85.4654 24.7129C91.4654 37.3129 104.215 53.5879 125.403 42.2254C126.052 39.0327 125.644 35.7156 124.24 32.7754C107.065 41.4004 95.5529 31.6879 88.8029 20.9629Z" fill="#46B000"/>
</svg>
