<svg width="200" height="200" viewBox="0 0 200 200" fill="none" xmlns="http://www.w3.org/2000/svg">
<mask id="path-1-outside-1_1347_9213" maskUnits="userSpaceOnUse" x="13.2891" y="13.3271" width="173" height="173" fill="black">
<rect fill="white" x="13.2891" y="13.3271" width="173" height="173"/>
<path d="M83.0469 20.5146C94.6695 19.5111 106.745 22.5568 119.195 29.2324C120.356 29.8547 121.465 30.4852 122.525 31.1191C123.809 31.8745 125.063 32.6753 126.287 33.5186C141.529 43.9022 144.63 54.6191 144.649 54.6865C147.379 55.8852 149.914 57.4849 152.17 59.4316L152.617 59.8252C152.578 59.7912 152.61 59.7426 152.704 59.6807C152.806 59.5107 152.913 59.3361 153.024 59.1582C154.881 56.1987 158.119 52.2992 162.425 52.6709C162.593 52.6854 162.763 52.7063 162.935 52.7344C163.11 52.7399 163.284 52.7512 163.458 52.7656C163.479 52.7673 163.499 52.7696 163.52 52.7715C163.667 52.7846 163.813 52.8009 163.959 52.8203C163.997 52.8254 164.035 52.8305 164.072 52.8359C164.215 52.8566 164.357 52.8806 164.499 52.9072C164.523 52.9118 164.547 52.9162 164.571 52.9209C164.728 52.9516 164.884 52.9855 165.039 53.0234C165.05 53.0262 165.062 53.0284 165.073 53.0312C165.585 53.1584 166.085 53.3252 166.57 53.5293C166.592 53.5383 166.613 53.5475 166.635 53.5566C166.772 53.6153 166.907 53.6775 167.041 53.7422C167.056 53.7493 167.071 53.7555 167.086 53.7627C167.098 53.7684 167.109 53.7745 167.121 53.7803C167.248 53.8427 167.373 53.9088 167.497 53.9766C167.527 53.993 167.558 54.0087 167.588 54.0254C167.881 54.1889 168.166 54.3662 168.442 54.5586C168.499 54.5976 168.553 54.6386 168.608 54.6787C168.686 54.7347 168.762 54.7913 168.838 54.8496C168.909 54.9041 168.978 54.9603 169.048 55.0166C169.095 55.0551 169.143 55.0934 169.189 55.1328C169.282 55.2105 169.372 55.2902 169.462 55.3711C169.468 55.3768 169.475 55.382 169.481 55.3877C169.483 55.3896 169.485 55.3917 169.487 55.3936C169.831 55.7058 170.156 56.0397 170.455 56.3975C171.38 57.503 172.061 58.7917 172.454 60.1787C172.847 61.5657 172.942 63.0199 172.733 64.4463C172.733 64.4463 177.792 65.2828 178.031 69.3457C178.198 72.1837 174.362 73.8541 170.676 74.3193C170.672 74.3345 170.668 74.3501 170.664 74.3652C170.666 74.3503 170.668 74.3352 170.67 74.3203C169.081 74.5203 167.52 74.498 166.32 74.2461C162.337 73.4096 162.337 65.6414 162.337 64.6455C162.17 66.5355 161.402 68.3221 160.146 69.7441C161.119 71.8048 161.854 73.9699 162.337 76.1973C164.453 86.5222 164.007 98.7565 161.229 108.858C162.915 108.838 164.615 109.014 166.283 109.46C177.317 112.408 180.464 132.205 179.946 136.826C179.428 141.447 179.946 148.339 175.963 148.777C172.903 148.491 170.061 147.069 167.996 144.793C167.996 144.793 162.858 148.219 160.029 146.745C157.209 145.275 160.013 136.994 160.029 136.946C158.285 133.306 157.607 129.244 158.077 125.234C154.612 129.254 146.808 129.294 144.834 129.236C134.426 133.066 121.135 132.923 121.107 132.923C121.119 132.959 123.704 140.837 109.356 152.521C94.9762 164.233 65.1002 179.21 56.5352 179.729C47.9707 180.246 32.3549 174.63 29.168 168.018C25.9812 161.405 29.168 158.218 29.168 158.218C29.168 158.218 29.1794 158.242 29.1982 158.291C29.3458 157.865 29.5082 157.444 29.6846 157.03C29.346 155.349 29.2225 153.618 29.1807 152.365C29.0233 152.26 28.8674 152.154 28.7129 152.048C28.7187 152.059 28.7236 152.071 28.7295 152.083C22.9937 148.14 19.2893 143.678 19.2891 140.771C19.2891 139.855 19.4089 138.987 19.6377 138.173C19.7292 137.847 19.8381 137.53 19.9639 137.223C21.5359 133.378 25.7312 130.971 31.2393 130.971C31.3494 130.971 31.4626 130.965 31.5781 130.956C38.4784 130.386 54.7845 113.033 56.3008 107.951C56.3287 107.803 56.3421 107.668 56.3359 107.548C56.2279 105.43 55.416 101.482 56.4141 97.7412C57.1961 94.4728 59.297 91.3172 64.3818 89.6221C72.309 86.9531 78.0859 95.4775 78.0859 95.4775C87.1284 98.6643 96.4102 99.8992 101.549 95.4775C104.24 93.1088 106.26 90.0719 107.404 86.6738C107.442 86.6666 107.482 86.6677 107.522 86.6729C108.804 83.0017 109.436 78.6552 109.436 73.6885C107.808 73.0084 106.42 71.8566 105.452 70.3818C105.765 71.4479 105.737 72.5851 105.373 73.6348C105.009 74.6843 104.327 75.5941 103.421 76.2373C99.1361 78.9435 93.2203 80.0888 90.2236 76.8633C90.0381 76.6706 89.8675 76.4632 89.7178 76.2373C89.6848 76.1875 89.653 76.1384 89.624 76.0889C87.7945 72.9682 93.7012 70.3818 93.7012 70.3818C93.7012 70.3818 92.301 60.7761 99.3389 58.5107C99.4237 58.4834 99.5094 58.4558 99.5967 58.4307C100.043 58.3073 100.496 58.215 100.951 58.1533C101.407 58.0916 101.866 58.0605 102.325 58.0605C102.899 58.0605 103.473 58.1086 104.041 58.2051C104.344 58.2566 104.645 58.3224 104.943 58.4014C104.994 58.3931 105.031 58.4017 105.051 58.4268C102.144 53.7933 98.2735 49.8405 93.7012 46.8389C88.1838 43.379 81.8746 41.3845 75.3711 41.043C70.382 40.781 65.405 41.4987 60.7168 43.1396C60.651 43.2045 60.5839 43.2687 60.5186 43.334C59.005 43.812 57.7301 44.3301 56.5352 44.8877L55.7295 45.291C51.7311 47.3566 48.1212 50.1045 45.0625 53.4121C45.0039 53.4754 44.9398 53.5324 44.874 53.5869C44.6049 53.8721 44.2558 54.0724 43.8691 54.1562C43.4075 54.2563 42.9252 54.1855 42.5117 53.957C42.098 53.7283 41.7809 53.3566 41.6201 52.9121C41.4595 52.4678 41.4653 51.9802 41.6367 51.54C44.1206 42.2098 50.1353 34.2106 58.4082 29.2324C66.3654 24.0679 74.585 21.2181 83.0469 20.5146ZM105.053 58.4297L105.054 58.4316L105.053 58.4297Z"/>
</mask>
<path d="M83.0469 20.5146C94.6695 19.5111 106.745 22.5568 119.195 29.2324C120.356 29.8547 121.465 30.4852 122.525 31.1191C123.809 31.8745 125.063 32.6753 126.287 33.5186C141.529 43.9022 144.63 54.6191 144.649 54.6865C147.379 55.8852 149.914 57.4849 152.17 59.4316L152.617 59.8252C152.578 59.7912 152.61 59.7426 152.704 59.6807C152.806 59.5107 152.913 59.3361 153.024 59.1582C154.881 56.1987 158.119 52.2992 162.425 52.6709C162.593 52.6854 162.763 52.7063 162.935 52.7344C163.11 52.7399 163.284 52.7512 163.458 52.7656C163.479 52.7673 163.499 52.7696 163.52 52.7715C163.667 52.7846 163.813 52.8009 163.959 52.8203C163.997 52.8254 164.035 52.8305 164.072 52.8359C164.215 52.8566 164.357 52.8806 164.499 52.9072C164.523 52.9118 164.547 52.9162 164.571 52.9209C164.728 52.9516 164.884 52.9855 165.039 53.0234C165.05 53.0262 165.062 53.0284 165.073 53.0312C165.585 53.1584 166.085 53.3252 166.57 53.5293C166.592 53.5383 166.613 53.5475 166.635 53.5566C166.772 53.6153 166.907 53.6775 167.041 53.7422C167.056 53.7493 167.071 53.7555 167.086 53.7627C167.098 53.7684 167.109 53.7745 167.121 53.7803C167.248 53.8427 167.373 53.9088 167.497 53.9766C167.527 53.993 167.558 54.0087 167.588 54.0254C167.881 54.1889 168.166 54.3662 168.442 54.5586C168.499 54.5976 168.553 54.6386 168.608 54.6787C168.686 54.7347 168.762 54.7913 168.838 54.8496C168.909 54.9041 168.978 54.9603 169.048 55.0166C169.095 55.0551 169.143 55.0934 169.189 55.1328C169.282 55.2105 169.372 55.2902 169.462 55.3711C169.468 55.3768 169.475 55.382 169.481 55.3877C169.483 55.3896 169.485 55.3917 169.487 55.3936C169.831 55.7058 170.156 56.0397 170.455 56.3975C171.38 57.503 172.061 58.7917 172.454 60.1787C172.847 61.5657 172.942 63.0199 172.733 64.4463C172.733 64.4463 177.792 65.2828 178.031 69.3457C178.198 72.1837 174.362 73.8541 170.676 74.3193C170.672 74.3345 170.668 74.3501 170.664 74.3652C170.666 74.3503 170.668 74.3352 170.67 74.3203C169.081 74.5203 167.52 74.498 166.32 74.2461C162.337 73.4096 162.337 65.6414 162.337 64.6455C162.17 66.5355 161.402 68.3221 160.146 69.7441C161.119 71.8048 161.854 73.9699 162.337 76.1973C164.453 86.5222 164.007 98.7565 161.229 108.858C162.915 108.838 164.615 109.014 166.283 109.46C177.317 112.408 180.464 132.205 179.946 136.826C179.428 141.447 179.946 148.339 175.963 148.777C172.903 148.491 170.061 147.069 167.996 144.793C167.996 144.793 162.858 148.219 160.029 146.745C157.209 145.275 160.013 136.994 160.029 136.946C158.285 133.306 157.607 129.244 158.077 125.234C154.612 129.254 146.808 129.294 144.834 129.236C134.426 133.066 121.135 132.923 121.107 132.923C121.119 132.959 123.704 140.837 109.356 152.521C94.9762 164.233 65.1002 179.21 56.5352 179.729C47.9707 180.246 32.3549 174.63 29.168 168.018C25.9812 161.405 29.168 158.218 29.168 158.218C29.168 158.218 29.1794 158.242 29.1982 158.291C29.3458 157.865 29.5082 157.444 29.6846 157.03C29.346 155.349 29.2225 153.618 29.1807 152.365C29.0233 152.26 28.8674 152.154 28.7129 152.048C28.7187 152.059 28.7236 152.071 28.7295 152.083C22.9937 148.14 19.2893 143.678 19.2891 140.771C19.2891 139.855 19.4089 138.987 19.6377 138.173C19.7292 137.847 19.8381 137.53 19.9639 137.223C21.5359 133.378 25.7312 130.971 31.2393 130.971C31.3494 130.971 31.4626 130.965 31.5781 130.956C38.4784 130.386 54.7845 113.033 56.3008 107.951C56.3287 107.803 56.3421 107.668 56.3359 107.548C56.2279 105.43 55.416 101.482 56.4141 97.7412C57.1961 94.4728 59.297 91.3172 64.3818 89.6221C72.309 86.9531 78.0859 95.4775 78.0859 95.4775C87.1284 98.6643 96.4102 99.8992 101.549 95.4775C104.24 93.1088 106.26 90.0719 107.404 86.6738C107.442 86.6666 107.482 86.6677 107.522 86.6729C108.804 83.0017 109.436 78.6552 109.436 73.6885C107.808 73.0084 106.42 71.8566 105.452 70.3818C105.765 71.4479 105.737 72.5851 105.373 73.6348C105.009 74.6843 104.327 75.5941 103.421 76.2373C99.1361 78.9435 93.2203 80.0888 90.2236 76.8633C90.0381 76.6706 89.8675 76.4632 89.7178 76.2373C89.6848 76.1875 89.653 76.1384 89.624 76.0889C87.7945 72.9682 93.7012 70.3818 93.7012 70.3818C93.7012 70.3818 92.301 60.7761 99.3389 58.5107C99.4237 58.4834 99.5094 58.4558 99.5967 58.4307C100.043 58.3073 100.496 58.215 100.951 58.1533C101.407 58.0916 101.866 58.0605 102.325 58.0605C102.899 58.0605 103.473 58.1086 104.041 58.2051C104.344 58.2566 104.645 58.3224 104.943 58.4014C104.994 58.3931 105.031 58.4017 105.051 58.4268C102.144 53.7933 98.2735 49.8405 93.7012 46.8389C88.1838 43.379 81.8746 41.3845 75.3711 41.043C70.382 40.781 65.405 41.4987 60.7168 43.1396C60.651 43.2045 60.5839 43.2687 60.5186 43.334C59.005 43.812 57.7301 44.3301 56.5352 44.8877L55.7295 45.291C51.7311 47.3566 48.1212 50.1045 45.0625 53.4121C45.0039 53.4754 44.9398 53.5324 44.874 53.5869C44.6049 53.8721 44.2558 54.0724 43.8691 54.1562C43.4075 54.2563 42.9252 54.1855 42.5117 53.957C42.098 53.7283 41.7809 53.3566 41.6201 52.9121C41.4595 52.4678 41.4653 51.9802 41.6367 51.54C44.1206 42.2098 50.1353 34.2106 58.4082 29.2324C66.3654 24.0679 74.585 21.2181 83.0469 20.5146ZM105.053 58.4297L105.054 58.4316L105.053 58.4297Z" fill="black"/>
<path d="M83.0469 20.5146L83.544 26.494C83.5503 26.4935 83.5567 26.493 83.563 26.4924L83.0469 20.5146ZM119.195 29.2324L122.031 23.9446L122.031 23.9446L119.195 29.2324ZM122.525 31.1191L119.447 36.2693C119.459 36.2762 119.47 36.2832 119.482 36.2901L122.525 31.1191ZM126.287 33.5186L122.883 38.4593C122.892 38.4653 122.9 38.4713 122.909 38.4772L126.287 33.5186ZM144.649 54.6865L138.883 56.3445C139.376 58.0579 140.605 59.4635 142.237 60.1803L144.649 54.6865ZM152.17 59.4316L156.133 54.9272C156.119 54.9146 156.105 54.902 156.09 54.8895L152.17 59.4316ZM152.617 59.8252L148.696 64.3662C151.195 66.525 154.97 66.2575 157.14 63.7678C159.31 61.2781 159.06 57.5026 156.581 55.3207L152.617 59.8252ZM152.704 59.6807L156.007 64.6897C156.76 64.1933 157.391 63.5337 157.854 62.7598L152.704 59.6807ZM153.024 59.1582L158.103 62.3526L158.107 62.3472L153.024 59.1582ZM162.425 52.6709L162.942 46.6932L162.941 46.6931L162.425 52.6709ZM162.935 52.7344L161.964 58.6553C162.223 58.6978 162.485 58.7232 162.747 58.7314L162.935 52.7344ZM163.458 52.7656L163.959 46.7866L163.953 46.7861L163.458 52.7656ZM163.52 52.7715L162.983 58.7474L162.988 58.7479L163.52 52.7715ZM163.959 52.8203L164.754 46.8731L164.749 46.8726L163.959 52.8203ZM164.072 52.8359L163.211 58.7739L163.215 58.7744L164.072 52.8359ZM164.499 52.9072L165.61 47.011L165.607 47.0105L164.499 52.9072ZM164.571 52.9209L163.418 58.809L163.42 58.8095L164.571 52.9209ZM165.039 53.0234L166.467 47.1957L166.465 47.1954L165.039 53.0234ZM165.073 53.0312L163.626 58.854L163.627 58.8544L165.073 53.0312ZM166.57 53.5293L164.243 59.0596L164.245 59.0606L166.57 53.5293ZM166.635 53.5566L169 48.0424L168.997 48.0414L166.635 53.5566ZM167.041 53.7422L164.437 59.1476L164.44 59.1491L167.041 53.7422ZM167.086 53.7627L169.713 48.3684L169.713 48.3683L167.086 53.7627ZM167.121 53.7803L169.772 48.3977L169.769 48.3961L167.121 53.7803ZM167.497 53.9766L164.624 59.2442L164.629 59.2465L167.497 53.9766ZM167.588 54.0254L170.514 48.7871L170.509 48.7847L167.588 54.0254ZM168.442 54.5586L165.014 59.4827L165.02 59.4869L168.442 54.5586ZM168.608 54.6787L172.135 49.8245L172.129 49.8199L168.608 54.6787ZM168.838 54.8496L165.176 59.6029L165.183 59.6081L168.838 54.8496ZM169.048 55.0166L172.833 50.3613L172.826 50.3555L169.048 55.0166ZM169.189 55.1328L165.321 59.7193L165.328 59.7255L169.189 55.1328ZM169.462 55.3711L173.49 50.9247L173.483 50.9178L169.462 55.3711ZM169.481 55.3877L173.521 50.9514L173.521 50.9513L169.481 55.3877ZM169.487 55.3936L165.444 59.8266L165.452 59.8335L169.487 55.3936ZM170.455 56.3975L175.057 52.5472L175.057 52.5471L170.455 56.3975ZM172.454 60.1787L178.227 58.5445L178.227 58.5444L172.454 60.1787ZM172.733 64.4463L166.796 63.5793C166.324 66.8146 168.529 69.8325 171.754 70.3659L172.733 64.4463ZM178.031 69.3457L184.021 68.9934L184.021 68.993L178.031 69.3457ZM170.676 74.3193L169.924 68.3666C167.522 68.6698 165.537 70.388 164.892 72.7225L170.676 74.3193ZM170.664 74.3652L164.717 73.5732C164.301 76.6909 166.364 79.6002 169.444 80.2398C172.523 80.8795 175.574 79.0324 176.435 76.0072L170.664 74.3652ZM170.67 74.3203L176.613 75.1417C176.869 73.2932 176.25 71.431 174.938 70.1035C173.627 68.776 171.772 68.1342 169.921 68.3673L170.67 74.3203ZM166.32 74.2461L165.087 80.118L165.087 80.1181L166.32 74.2461ZM162.337 64.6455H168.337C168.337 61.4346 165.809 58.7928 162.601 58.6513C159.393 58.5099 156.643 60.9189 156.36 64.1173L162.337 64.6455ZM160.146 69.7441L155.649 65.772C154.061 67.5691 153.696 70.1387 154.72 72.3068L160.146 69.7441ZM162.337 76.1973L168.215 74.9927C168.21 74.9708 168.206 74.9489 168.201 74.9271L162.337 76.1973ZM161.229 108.858L155.444 107.268C154.944 109.085 155.328 111.032 156.48 112.524C157.631 114.016 159.417 114.881 161.302 114.858L161.229 108.858ZM166.283 109.46L167.832 103.663L167.832 103.663L166.283 109.46ZM179.946 136.826L185.909 137.494L185.909 137.494L179.946 136.826ZM175.963 148.777L175.403 154.751C175.808 154.789 176.215 154.786 176.619 154.741L175.963 148.777ZM167.996 144.793L172.439 140.761C170.443 138.562 167.139 138.153 164.668 139.801L167.996 144.793ZM160.029 146.745L157.256 152.066L157.257 152.066L160.029 146.745ZM160.029 136.946L165.711 138.873C166.215 137.389 166.117 135.767 165.44 134.353L160.029 136.946ZM158.077 125.234L164.036 125.932C164.343 123.314 162.905 120.802 160.491 119.741C158.077 118.681 155.254 119.32 153.533 121.317L158.077 125.234ZM144.834 129.236L145.008 123.239C144.243 123.217 143.48 123.341 142.762 123.605L144.834 129.236ZM121.107 132.923L121.174 126.923C119.236 126.902 117.407 127.818 116.264 129.382C115.12 130.946 114.802 132.967 115.411 134.807L121.107 132.923ZM109.356 152.521L113.145 157.174L113.145 157.174L109.356 152.521ZM56.5352 179.729L56.8973 185.718L56.8975 185.718L56.5352 179.729ZM29.168 168.018L23.7629 170.622L23.7629 170.623L29.168 168.018ZM29.168 158.218L34.6123 155.696C33.7884 153.917 32.1474 152.653 30.2172 152.31C28.2871 151.967 26.3112 152.589 24.9251 153.975L29.168 158.218ZM29.1982 158.291L23.6047 160.462C24.5152 162.808 26.7932 164.337 29.3094 164.29C31.8256 164.243 34.0454 162.631 34.8684 160.253L29.1982 158.291ZM29.6846 157.03L35.204 159.383C35.6795 158.268 35.8059 157.034 35.5665 155.846L29.6846 157.03ZM29.1807 152.365L35.1773 152.165C35.1129 150.235 34.1238 148.455 32.5195 147.38L29.1807 152.365ZM28.7129 152.048L32.1118 147.103C29.8546 145.552 26.8331 145.726 24.7689 147.526C22.7047 149.327 22.1219 152.297 23.3526 154.744L28.7129 152.048ZM28.7295 152.083L25.3303 157.027C27.5932 158.583 30.6235 158.404 32.6875 156.592C34.7514 154.781 35.322 151.799 34.0728 149.354L28.7295 152.083ZM19.2891 140.771H13.2891V140.771L19.2891 140.771ZM19.6377 138.173L25.4138 139.797L25.4138 139.797L19.6377 138.173ZM19.9639 137.223L14.4102 134.952L14.4101 134.952L19.9639 137.223ZM31.2393 130.971V124.971H31.2392L31.2393 130.971ZM31.5781 130.956L32.0646 136.936L32.0722 136.936L31.5781 130.956ZM56.3008 107.951L62.0503 109.667C62.1099 109.467 62.1591 109.264 62.1976 109.059L56.3008 107.951ZM56.3359 107.548L62.3282 107.242L62.3281 107.242L56.3359 107.548ZM56.4141 97.7412L62.2113 99.2879C62.2246 99.2379 62.2373 99.1877 62.2494 99.1374L56.4141 97.7412ZM64.3818 89.6221L66.2793 95.3141C66.285 95.3122 66.2907 95.3103 66.2963 95.3084L64.3818 89.6221ZM78.0859 95.4775L73.1191 98.8436C73.8392 99.9061 74.881 100.71 76.0916 101.136L78.0859 95.4775ZM101.549 95.4775L105.462 100.026C105.479 100.011 105.496 99.9965 105.513 99.9818L101.549 95.4775ZM107.404 86.6738L106.286 80.779C104.156 81.1832 102.41 82.7048 101.718 84.7593L107.404 86.6738ZM107.522 86.6729L106.77 92.6255C109.579 92.9806 112.254 91.3236 113.187 88.6504L107.522 86.6729ZM109.436 73.6885L115.436 73.6885C115.436 71.2683 113.982 69.0851 111.748 68.1522L109.436 73.6885ZM105.452 70.3818L110.468 67.0887C108.836 64.6039 105.631 63.6883 102.933 64.9362C100.235 66.1841 98.8579 69.2193 99.695 72.0716L105.452 70.3818ZM105.373 73.6348L111.042 75.6016L111.042 75.6014L105.373 73.6348ZM103.421 76.2373L106.625 81.3102C106.716 81.2524 106.806 81.1921 106.895 81.1294L103.421 76.2373ZM90.2236 76.8633L94.6193 72.7794C94.5951 72.7534 94.5707 72.7276 94.5461 72.702L90.2236 76.8633ZM89.7178 76.2373L84.7157 79.5508L84.7159 79.5511L89.7178 76.2373ZM89.624 76.0889L94.8003 73.0546L94.8001 73.0543L89.624 76.0889ZM93.7012 70.3818L96.1078 75.878C98.5828 74.7943 100.028 72.19 99.6384 69.5164L93.7012 70.3818ZM99.3389 58.5107L101.177 64.2222L101.178 64.222L99.3389 58.5107ZM99.5967 58.4307L97.9975 52.6477C97.9769 52.6534 97.9563 52.6592 97.9358 52.6651L99.5967 58.4307ZM100.951 58.1533L100.146 52.2076L100.146 52.2076L100.951 58.1533ZM102.325 58.0605L102.325 64.0605H102.326L102.325 58.0605ZM104.041 58.2051L105.047 52.2899L105.046 52.2899L104.041 58.2051ZM104.943 58.4014L103.409 64.2018C104.222 64.417 105.072 64.4587 105.903 64.3242L104.943 58.4014ZM105.051 58.4268L100.361 62.1691C102.345 64.6561 105.926 65.1615 108.522 63.321C111.117 61.4804 111.824 57.9339 110.134 55.2385L105.051 58.4268ZM93.7012 46.8389L96.9939 41.8231C96.9591 41.8002 96.924 41.7778 96.8888 41.7556L93.7012 46.8389ZM75.3711 41.043L75.6858 35.0512L75.6858 35.0512L75.3711 41.043ZM60.7168 43.1396L58.7346 37.4765C57.8971 37.7697 57.1349 38.245 56.5032 38.8682L60.7168 43.1396ZM60.5186 43.334L62.3254 49.0555C63.2431 48.7656 64.0777 48.2593 64.7586 47.5792L60.5186 43.334ZM56.5352 44.8877L53.9978 39.4506C53.948 39.4739 53.8985 39.4978 53.8493 39.5224L56.5352 44.8877ZM55.7295 45.291L53.0436 39.9258C53.0209 39.9371 52.9982 39.9487 52.9756 39.9603L55.7295 45.291ZM45.0625 53.4121L49.4655 57.4881L49.4677 57.4857L45.0625 53.4121ZM44.874 53.5869L41.045 48.9675C40.8567 49.1236 40.6781 49.2911 40.5102 49.469L44.874 53.5869ZM43.8691 54.1562L45.1396 60.0202L45.1409 60.0199L43.8691 54.1562ZM42.5117 53.957L39.6084 59.2078L39.6097 59.2085L42.5117 53.957ZM41.6201 52.9121L35.9774 54.9517L35.9778 54.9527L41.6201 52.9121ZM41.6367 51.54L47.2276 53.7177C47.3084 53.5103 47.3775 53.2986 47.4348 53.0836L41.6367 51.54ZM58.4082 29.2324L61.5018 34.3734C61.56 34.3384 61.6177 34.3023 61.6747 34.2653L58.4082 29.2324ZM110.419 55.7464C108.937 52.7825 105.333 51.5812 102.369 53.0631C99.4056 54.5451 98.2042 58.1491 99.6862 61.113L105.053 58.4297L110.419 55.7464ZM99.6871 61.1149C101.169 64.0788 104.773 65.2801 107.737 63.7982C110.701 62.3163 111.902 58.7122 110.42 55.7484L105.054 58.4316L99.6871 61.1149ZM83.0469 20.5146L83.563 26.4924C93.7423 25.6135 104.653 28.2434 116.36 34.5203L119.195 29.2324L122.031 23.9446C108.836 16.8702 95.5968 13.4087 82.5307 14.5369L83.0469 20.5146ZM119.195 29.2324L116.36 34.5203C117.436 35.0971 118.464 35.6815 119.447 36.2693L122.525 31.1191L125.604 25.969C124.466 25.289 123.276 24.6124 122.031 23.9446L119.195 29.2324ZM122.525 31.1191L119.482 36.2901C120.641 36.972 121.775 37.6959 122.883 38.4593L126.287 33.5186L129.691 28.5778C128.352 27.6547 126.977 26.777 125.569 25.9482L122.525 31.1191ZM126.287 33.5186L122.909 38.4772C136.767 47.9183 139.167 57.3322 138.883 56.3445L144.649 54.6865L150.416 53.0286C150.093 51.906 146.291 39.8862 129.665 28.5599L126.287 33.5186ZM144.649 54.6865L142.237 60.1803C144.42 61.1387 146.447 62.4177 148.25 63.9737L152.17 59.4316L156.09 54.8895C153.382 52.5522 150.339 50.6317 147.062 49.1928L144.649 54.6865ZM152.17 59.4316L148.206 63.9361L148.654 64.3297L152.617 59.8252L156.581 55.3207L156.133 54.9272L152.17 59.4316ZM152.617 59.8252L156.539 55.2842C157.404 56.0313 158.384 57.3401 158.571 59.1956C158.745 60.9287 158.133 62.2406 157.716 62.9155C156.999 64.0768 156.071 64.6477 156.007 64.6897L152.704 59.6807L149.401 54.6716C149.243 54.7756 148.252 55.4017 147.505 56.6114C147.074 57.3104 146.455 58.6447 146.631 60.3983C146.82 62.2745 147.811 63.6021 148.696 64.3662L152.617 59.8252ZM152.704 59.6807L157.854 62.7598C157.934 62.6254 158.017 62.4895 158.103 62.3526L153.024 59.1582L147.945 55.9638C147.808 56.1828 147.677 56.3959 147.554 56.6016L152.704 59.6807ZM153.024 59.1582L158.107 62.3472C158.875 61.1225 159.746 60.0154 160.616 59.3007C161.454 58.6123 161.833 58.6421 161.909 58.6487L162.425 52.6709L162.941 46.6931C158.711 46.328 155.319 48.1217 152.997 50.03C150.707 51.912 149.031 54.2344 147.942 55.9692L153.024 59.1582ZM162.425 52.6709L161.908 58.6486C161.932 58.6507 161.951 58.6532 161.964 58.6553L162.935 52.7344L163.905 46.8134C163.576 46.7594 163.254 46.7202 162.942 46.6932L162.425 52.6709ZM162.935 52.7344L162.747 58.7314C162.79 58.7328 162.857 58.7364 162.963 58.7451L163.458 52.7656L163.953 46.7861C163.712 46.7661 163.43 46.7469 163.122 46.7373L162.935 52.7344ZM163.458 52.7656L162.957 58.7447C162.935 58.7428 162.917 58.7412 162.907 58.7402C162.902 58.7398 162.898 58.7394 162.896 58.7392C162.895 58.739 162.894 58.7389 162.895 58.7391C162.896 58.7391 162.896 58.7392 162.898 58.7393C162.899 58.7394 162.901 58.7396 162.903 58.7398C162.907 58.7402 162.913 58.7408 162.92 58.7415C162.934 58.7429 162.956 58.745 162.983 58.7474L163.52 52.7715L164.056 46.7956C164.073 46.797 164.085 46.7982 164.088 46.7985C164.09 46.7987 164.094 46.7991 164.083 46.798C164.076 46.7973 164.059 46.7956 164.039 46.7938C164.019 46.7919 163.992 46.7893 163.959 46.7866L163.458 52.7656ZM163.52 52.7715L162.988 58.7479C163.046 58.753 163.106 58.7597 163.169 58.768L163.959 52.8203L164.749 46.8726C164.52 46.8422 164.288 46.8161 164.051 46.7951L163.52 52.7715ZM163.959 52.8203L163.164 58.7675C163.181 58.7696 163.191 58.7711 163.2 58.7722C163.204 58.7728 163.207 58.7732 163.209 58.7735C163.21 58.7737 163.211 58.7739 163.211 58.7739L164.072 52.8359L164.933 46.898C164.86 46.8875 164.795 46.8787 164.754 46.8732L163.959 52.8203ZM164.072 52.8359L163.215 58.7744C163.263 58.7813 163.321 58.7908 163.391 58.804L164.499 52.9072L165.607 47.0105C165.394 46.9704 165.167 46.9318 164.929 46.8975L164.072 52.8359ZM164.499 52.9072L163.388 58.8035C163.398 58.8054 163.408 58.8072 163.414 58.8084C163.422 58.8098 163.425 58.8104 163.428 58.811C163.434 58.8122 163.429 58.8111 163.418 58.809L164.571 52.9209L165.725 47.0328C165.69 47.026 165.66 47.0204 165.642 47.017C165.61 47.011 165.625 47.0138 165.61 47.011L164.499 52.9072ZM164.571 52.9209L163.42 58.8095C163.493 58.8238 163.557 58.8378 163.613 58.8515L165.039 53.0234L166.465 47.1954C166.211 47.1332 165.963 47.0794 165.722 47.0323L164.571 52.9209ZM165.039 53.0234L163.612 58.8512C163.637 58.8574 163.66 58.8628 163.679 58.8673C163.699 58.8718 163.715 58.8756 163.728 58.8786C163.741 58.8815 163.752 58.8838 163.758 58.8853C163.762 58.886 163.765 58.8867 163.766 58.8871C163.767 58.8873 163.768 58.8874 163.769 58.8875C163.769 58.8876 163.769 58.8877 163.769 58.8877C163.769 58.8877 163.77 58.8877 163.77 58.8878C163.771 58.888 163.767 58.8872 163.762 58.8861C163.756 58.8849 163.747 58.8828 163.735 58.8801C163.723 58.8774 163.708 58.8739 163.69 58.8696C163.672 58.8653 163.65 58.8601 163.626 58.854L165.073 53.0312L166.521 47.2085C166.467 47.1951 166.423 47.1849 166.394 47.1784C166.379 47.175 166.367 47.1723 166.359 47.1705C166.351 47.1687 166.344 47.1672 166.343 47.1669C166.339 47.1662 166.342 47.1668 166.345 47.1675C166.349 47.1683 166.357 47.17 166.367 47.1723C166.387 47.1767 166.422 47.1848 166.467 47.1957L165.039 53.0234ZM165.073 53.0312L163.627 58.8544C163.834 58.9058 164.04 58.9742 164.243 59.0596L166.57 53.5293L168.897 47.9989C168.131 47.6763 167.336 47.4109 166.519 47.2081L165.073 53.0312ZM166.57 53.5293L164.245 59.0606C164.255 59.0647 164.264 59.0685 164.272 59.0719L166.635 53.5566L168.997 48.0414C168.962 48.0264 168.928 48.0119 168.895 47.998L166.57 53.5293ZM166.635 53.5566L164.27 59.0709C164.312 59.0888 164.366 59.1134 164.437 59.1476L167.041 53.7422L169.645 48.3368C169.448 48.2416 169.232 48.1418 169 48.0424L166.635 53.5566ZM167.041 53.7422L164.44 59.1491C164.471 59.1641 164.499 59.1772 164.523 59.1881C164.546 59.199 164.566 59.2083 164.582 59.2155C164.598 59.2226 164.611 59.2284 164.619 59.232C164.623 59.2338 164.627 59.2354 164.629 59.2363C164.63 59.2368 164.631 59.2373 164.632 59.2376C164.633 59.238 164.632 59.2379 164.633 59.2381C164.634 59.2384 164.633 59.238 164.631 59.2374C164.63 59.2367 164.627 59.2356 164.624 59.2341C164.617 59.2311 164.606 59.2261 164.592 59.2196C164.577 59.2131 164.559 59.2045 164.537 59.1942C164.515 59.1839 164.488 59.1714 164.459 59.157L167.086 53.7627L169.713 48.3683C169.647 48.3365 169.593 48.3114 169.558 48.2953C169.54 48.2872 169.525 48.2804 169.514 48.2758C169.504 48.2714 169.496 48.2677 169.494 48.2667C169.49 48.2648 169.493 48.2663 169.496 48.2678C169.501 48.2698 169.51 48.2739 169.522 48.2793C169.545 48.2899 169.588 48.3094 169.642 48.3353L167.041 53.7422ZM167.086 53.7627L164.459 59.157C164.438 59.1466 164.421 59.1382 164.411 59.1333C164.406 59.1308 164.402 59.1289 164.4 59.1278C164.398 59.1268 164.397 59.1261 164.397 59.1265C164.398 59.1269 164.398 59.1268 164.399 59.1275C164.4 59.128 164.402 59.1288 164.403 59.1296C164.407 59.1313 164.412 59.1339 164.418 59.137C164.43 59.1431 164.45 59.1528 164.473 59.1645L167.121 53.7803L169.769 48.3961C169.787 48.4048 169.8 48.4116 169.806 48.4148C169.811 48.4172 169.816 48.4198 169.81 48.4164C169.806 48.4146 169.794 48.4083 169.779 48.4008C169.763 48.3929 169.74 48.3816 169.713 48.3684L167.086 53.7627ZM167.121 53.7803L164.47 59.1628C164.496 59.1756 164.542 59.1993 164.624 59.2442L167.497 53.9766L170.37 48.7089C170.204 48.6184 170 48.5099 169.772 48.3977L167.121 53.7803ZM167.497 53.9766L164.629 59.2465C164.658 59.2624 164.683 59.2757 164.699 59.2842C164.707 59.2885 164.714 59.2923 164.719 59.2947C164.725 59.2981 164.725 59.2984 164.728 59.2999C164.732 59.3022 164.727 59.2992 164.718 59.2941C164.708 59.2888 164.69 59.279 164.666 59.2661L167.588 54.0254L170.509 48.7847C170.437 48.7444 170.376 48.7119 170.357 48.7018C170.352 48.6993 170.345 48.6956 170.344 48.6949C170.341 48.6934 170.34 48.6931 170.341 48.6934C170.342 48.6938 170.351 48.6989 170.366 48.7067L167.497 53.9766ZM167.588 54.0254L164.662 59.2637C164.792 59.3364 164.909 59.4096 165.014 59.4827L168.442 54.5586L171.871 49.6345C171.423 49.3229 170.969 49.0414 170.514 48.7871L167.588 54.0254ZM168.442 54.5586L165.02 59.4869C165.003 59.4751 164.991 59.4665 164.986 59.4627C164.981 59.459 164.98 59.4582 164.986 59.4628C164.989 59.465 164.993 59.4678 164.999 59.4721C165.002 59.4746 165.014 59.4832 165.02 59.4878C165.036 59.4996 165.061 59.5175 165.088 59.5375L168.608 54.6787L172.129 49.8199C172.129 49.8202 172.128 49.8195 172.126 49.8177C172.123 49.8158 172.12 49.8132 172.114 49.8093C172.107 49.804 172.084 49.7872 172.066 49.7737C172.025 49.7442 171.952 49.6909 171.865 49.6303L168.442 54.5586ZM168.608 54.6787L165.082 59.5329C165.138 59.5737 165.164 59.5934 165.176 59.6029L168.838 54.8496L172.499 50.0963C172.36 49.9893 172.233 49.8958 172.135 49.8246L168.608 54.6787ZM168.838 54.8496L165.183 59.6081C165.18 59.6059 165.184 59.609 165.2 59.6211C165.216 59.634 165.236 59.65 165.27 59.6777L169.048 55.0166L172.826 50.3555C172.76 50.3017 172.634 50.1995 172.493 50.0911L168.838 54.8496ZM169.048 55.0166L165.263 59.6719C165.276 59.6825 165.293 59.6962 165.3 59.7027C165.311 59.7111 165.318 59.7166 165.323 59.7209C165.334 59.7297 165.331 59.7275 165.321 59.7193L169.189 55.1328L173.058 50.5463C172.958 50.4621 172.852 50.3764 172.833 50.3613L169.048 55.0166ZM169.189 55.1328L165.328 59.7255C165.351 59.7446 165.386 59.775 165.441 59.8244L169.462 55.3711L173.483 50.9178C173.358 50.8054 173.212 50.6764 173.05 50.5401L169.189 55.1328ZM169.462 55.3711L165.433 59.8175C165.47 59.851 165.503 59.8802 165.531 59.9045C165.559 59.9288 165.584 59.9493 165.602 59.9651C165.621 59.9808 165.636 59.9934 165.645 60.0011C165.65 60.005 165.654 60.0082 165.656 60.0102C165.658 60.0112 165.659 60.012 165.659 60.0126C165.66 60.0128 165.66 60.0131 165.66 60.0132C165.66 60.0133 165.66 60.0134 165.66 60.0134C165.66 60.0135 165.661 60.0135 165.661 60.0135C165.661 60.0139 165.659 60.0126 165.658 60.0111C165.655 60.0093 165.652 60.0064 165.648 60.0028C165.639 59.9957 165.624 59.9836 165.607 59.9685C165.589 59.9533 165.565 59.9333 165.538 59.9096C165.511 59.8858 165.478 59.8571 165.442 59.8241L169.481 55.3877L173.521 50.9513C173.483 50.9169 173.449 50.8868 173.42 50.8616C173.391 50.8365 173.366 50.8151 173.347 50.7985C173.327 50.782 173.311 50.7686 173.301 50.7601C173.291 50.7521 173.283 50.7455 173.283 50.7453C173.282 50.7444 173.283 50.7455 173.284 50.7465C173.286 50.7478 173.289 50.7504 173.293 50.7536C173.301 50.7599 173.314 50.7712 173.331 50.7855C173.348 50.7999 173.371 50.819 173.397 50.8419C173.424 50.8648 173.455 50.8926 173.49 50.9247L169.462 55.3711ZM169.481 55.3877L165.442 59.824C165.391 59.7775 165.346 59.7353 165.309 59.6993C165.272 59.6635 165.241 59.6323 165.217 59.608C165.193 59.584 165.174 59.5644 165.162 59.5525C165.157 59.5465 165.152 59.5416 165.149 59.5386C165.147 59.5359 165.144 59.5336 165.145 59.5341C165.145 59.5341 165.145 59.5341 165.145 59.5341C165.145 59.5341 165.145 59.5341 165.145 59.5341C165.145 59.5341 165.145 59.5341 165.145 59.5342C165.145 59.5342 165.145 59.5343 165.145 59.5344C165.145 59.5346 165.146 59.5349 165.146 59.5353C165.147 59.5361 165.148 59.5374 165.149 59.5389C165.152 59.542 165.157 59.547 165.163 59.5531C165.175 59.5652 165.194 59.585 165.218 59.6093C165.242 59.6337 165.273 59.6651 165.311 59.7012C165.348 59.7374 165.393 59.7798 165.444 59.8266L169.487 55.3936L173.531 50.9605C173.581 51.0068 173.626 51.0488 173.662 51.0845C173.699 51.1201 173.73 51.151 173.754 51.175C173.777 51.1987 173.796 51.2181 173.807 51.2296C173.813 51.2355 173.817 51.2403 173.82 51.2431C173.822 51.2456 173.825 51.2478 173.824 51.2472C173.824 51.2472 173.823 51.2465 173.823 51.2457C173.822 51.2449 173.82 51.2435 173.819 51.2419C173.816 51.2387 173.811 51.2335 173.805 51.2272C173.793 51.2149 173.773 51.1948 173.749 51.1702C173.725 51.1455 173.693 51.1138 173.655 51.0775C173.618 51.0411 173.573 50.9984 173.521 50.9514L169.481 55.3877ZM169.487 55.3936L165.452 59.8335C165.614 59.9808 165.746 60.1192 165.853 60.2478L170.455 56.3975L175.057 52.5471C174.566 51.9601 174.048 51.4309 173.523 50.9536L169.487 55.3936ZM170.455 56.3975L165.853 60.2477C166.236 60.7055 166.518 61.2391 166.681 61.813L172.454 60.1787L178.227 58.5444C177.604 56.3443 176.524 54.3005 175.057 52.5472L170.455 56.3975ZM172.454 60.1787L166.681 61.8129C166.843 62.3862 166.883 62.9881 166.796 63.5793L172.733 64.4463L178.67 65.3132C179.001 63.0518 178.85 60.7452 178.227 58.5445L172.454 60.1787ZM172.733 64.4463C171.754 70.3659 171.752 70.3655 171.75 70.3652C171.749 70.365 171.747 70.3647 171.746 70.3644C171.743 70.364 171.74 70.3635 171.737 70.363C171.732 70.3621 171.727 70.3612 171.722 70.3604C171.712 70.3587 171.703 70.3572 171.695 70.3558C171.68 70.353 171.668 70.3508 171.66 70.3492C171.644 70.3461 171.641 70.3455 171.651 70.3476C171.671 70.3521 171.732 70.3664 171.82 70.3923C172.015 70.4502 172.224 70.5316 172.386 70.6211C172.766 70.8319 172.092 70.558 172.042 69.6984L178.031 69.3457L184.021 68.993C183.731 64.0705 180.408 61.3469 178.2 60.1237C177.067 59.4962 175.996 59.1146 175.235 58.8886C174.845 58.7727 174.509 58.6898 174.252 58.6328C174.122 58.6041 174.011 58.5815 173.921 58.5641C173.875 58.5554 173.835 58.5481 173.8 58.5419C173.783 58.5388 173.767 58.5359 173.752 58.5334C173.745 58.5322 173.738 58.531 173.731 58.5299C173.728 58.5293 173.725 58.5287 173.722 58.5282C173.72 58.528 173.718 58.5276 173.717 58.5274C173.715 58.5271 173.712 58.5267 172.733 64.4463ZM178.031 69.3457L172.042 69.698C171.995 68.9142 172.261 68.2347 172.554 67.8157C172.79 67.4784 172.948 67.4368 172.736 67.563C172.543 67.6771 172.189 67.843 171.657 68.0049C171.138 68.163 170.542 68.2886 169.924 68.3666L170.676 74.3193L171.427 80.2721C173.777 79.9755 176.528 79.267 178.861 77.8816C181.109 76.5472 184.296 73.6776 184.021 68.9934L178.031 69.3457ZM170.676 74.3193L164.892 72.7225C164.883 72.7561 164.875 72.786 164.868 72.8113C164.862 72.8364 164.856 72.858 164.852 72.8747C164.848 72.8913 164.845 72.9048 164.843 72.9129C164.842 72.917 164.841 72.9204 164.84 72.9224C164.84 72.9234 164.84 72.9243 164.84 72.9248C164.84 72.9254 164.84 72.9255 164.84 72.9256C164.839 72.9264 164.841 72.9207 164.843 72.913C164.845 72.9049 164.848 72.8916 164.852 72.8751C164.856 72.8584 164.862 72.8369 164.869 72.8118C164.875 72.7866 164.884 72.7568 164.893 72.7233L170.664 74.3652L176.435 76.0072C176.456 75.9336 176.472 75.8726 176.482 75.8325C176.492 75.7946 176.499 75.7631 176.5 75.759C176.502 75.7532 176.501 75.7575 176.5 75.7602C176.499 75.7644 176.497 75.7741 176.493 75.7868C176.487 75.8115 176.476 75.8578 176.459 75.9162L170.676 74.3193ZM170.664 74.3652L176.612 75.1573C176.614 75.1411 176.615 75.1274 176.617 75.1189C176.617 75.1145 176.618 75.1107 176.618 75.1083C176.618 75.1072 176.618 75.1059 176.618 75.1052C176.618 75.1043 176.618 75.1038 176.619 75.1035C176.619 75.1016 176.618 75.1053 176.618 75.1111C176.617 75.1171 176.615 75.1279 176.613 75.1417L170.67 74.3203L164.726 73.4989C164.723 73.5202 164.721 73.5384 164.719 73.552C164.718 73.5653 164.716 73.5765 164.715 73.5821C164.715 73.5843 164.715 73.5882 164.715 73.5885C164.714 73.5898 164.714 73.5897 164.714 73.5891C164.715 73.5881 164.715 73.5819 164.717 73.5732L170.664 74.3652ZM170.67 74.3203L169.921 68.3673C168.78 68.5108 167.921 68.4513 167.553 68.3741L166.32 74.2461L165.087 80.1181C167.119 80.5447 169.381 80.5299 171.419 80.2733L170.67 74.3203ZM166.32 74.2461L167.553 68.3742C168.568 68.5873 169.025 69.2285 169.047 69.2623C169.053 69.2708 169 69.1894 168.92 68.9781C168.842 68.772 168.76 68.5007 168.683 68.1644C168.348 66.7027 168.337 65.0954 168.337 64.6455H162.337H156.337C156.337 65.1916 156.326 67.9663 156.987 70.8468C157.315 72.2765 157.89 74.1163 158.987 75.804C160.13 77.5607 162.081 79.4866 165.087 80.118L166.32 74.2461ZM162.337 64.6455L156.36 64.1173C156.306 64.7295 156.057 65.3095 155.649 65.772L160.146 69.7441L164.642 73.7163C166.746 71.3347 168.034 68.3415 168.314 65.1737L162.337 64.6455ZM160.146 69.7441L154.72 72.3068C155.499 73.9555 156.087 75.687 156.473 77.4674L162.337 76.1973L168.201 74.9271C167.622 72.2528 166.739 69.6541 165.571 67.1815L160.146 69.7441ZM162.337 76.1973L156.459 77.4019C158.383 86.7888 157.974 98.0654 155.444 107.268L161.229 108.858L167.015 110.449C170.04 99.4476 170.523 86.2557 168.215 74.9927L162.337 76.1973ZM161.229 108.858L161.302 114.858C162.522 114.843 163.669 114.972 164.735 115.257L166.283 109.46L167.832 103.663C165.562 103.057 163.307 102.833 161.157 102.859L161.229 108.858ZM166.283 109.46L164.734 115.257C167.163 115.905 169.796 118.923 171.795 124.53C172.7 127.07 173.306 129.696 173.652 131.932C174.019 134.302 174.025 135.79 173.984 136.158L179.946 136.826L185.909 137.494C186.127 135.552 185.934 132.832 185.511 130.098C185.068 127.231 184.294 123.857 183.098 120.501C180.894 114.317 176.438 105.963 167.832 103.663L166.283 109.46ZM179.946 136.826L173.984 136.158C173.834 137.493 173.755 139.031 173.679 140.184C173.593 141.471 173.502 142.477 173.353 143.285C173.191 144.164 173.052 144.27 173.2 144.048C173.511 143.581 174.28 142.926 175.307 142.813L175.963 148.777L176.619 154.741C179.637 154.409 181.836 152.729 183.186 150.702C184.374 148.919 184.884 146.932 185.155 145.456C185.44 143.908 185.565 142.298 185.652 140.979C185.749 139.526 185.8 138.47 185.909 137.494L179.946 136.826ZM175.963 148.777L176.523 142.804C174.956 142.657 173.499 141.928 172.439 140.761L167.996 144.793L163.553 148.825C166.624 152.209 170.851 154.325 175.403 154.751L175.963 148.777ZM167.996 144.793C164.668 139.801 164.669 139.8 164.67 139.799C164.67 139.799 164.671 139.798 164.672 139.798C164.673 139.797 164.675 139.796 164.676 139.795C164.678 139.794 164.68 139.792 164.682 139.791C164.686 139.789 164.688 139.787 164.689 139.786C164.692 139.785 164.69 139.786 164.685 139.79C164.673 139.797 164.645 139.815 164.602 139.842C164.515 139.896 164.374 139.981 164.19 140.086C163.811 140.301 163.314 140.558 162.796 140.771C162.245 140.997 161.87 141.089 161.696 141.111C161.478 141.14 162.01 141.012 162.802 141.424L160.029 146.745L157.257 152.066C159.463 153.215 161.698 153.212 163.238 153.012C164.823 152.807 166.263 152.319 167.351 151.872C168.471 151.413 169.436 150.906 170.108 150.525C170.45 150.331 170.732 150.161 170.938 150.033C171.041 149.969 171.126 149.914 171.191 149.873C171.223 149.852 171.251 149.834 171.273 149.819C171.284 149.812 171.294 149.805 171.303 149.8C171.307 149.797 171.311 149.794 171.314 149.792C171.316 149.791 171.318 149.789 171.32 149.788C171.32 149.788 171.322 149.787 171.322 149.787C171.323 149.786 171.324 149.785 167.996 144.793ZM160.029 146.745L162.802 141.424C163.728 141.907 164.265 142.609 164.529 143.11C164.763 143.555 164.79 143.845 164.783 143.794C164.764 143.652 164.754 143.14 164.895 142.232C165.164 140.497 165.733 138.809 165.711 138.873L160.029 136.946L154.347 135.019C154.309 135.131 153.468 137.608 153.037 140.393C152.827 141.745 152.644 143.582 152.892 145.407C153.113 147.038 153.928 150.332 157.256 152.066L160.029 146.745ZM160.029 136.946L165.44 134.353C164.185 131.735 163.699 128.815 164.036 125.932L158.077 125.234L152.118 124.536C151.516 129.673 152.384 134.876 154.619 139.539L160.029 136.946ZM158.077 125.234L153.533 121.317C153.147 121.764 151.996 122.443 149.765 122.872C147.741 123.26 145.785 123.261 145.008 123.239L144.834 129.236L144.659 135.234C145.857 135.269 148.789 135.278 152.028 134.656C155.059 134.074 159.542 132.724 162.622 129.152L158.077 125.234ZM144.834 129.236L142.762 123.605C138.257 125.263 132.916 126.121 128.506 126.543C124.159 126.959 121.056 126.922 121.174 126.923L121.107 132.923L121.041 138.922C121.06 138.923 135.357 139.117 146.906 134.867L144.834 129.236ZM121.107 132.923L115.411 134.807C115.073 133.784 115.603 134.423 114.925 136.455C114.228 138.545 112.103 142.546 105.568 147.869L109.356 152.521L113.145 157.174C120.957 150.812 124.714 145.032 126.308 140.253C127.922 135.416 127.154 132.098 126.804 131.039L121.107 132.923ZM109.356 152.521L105.568 147.869C98.8421 153.346 88.1954 159.797 78.0387 164.978C72.9944 167.551 68.1903 169.75 64.1878 171.32C59.956 172.981 57.2714 173.673 56.1728 173.739L56.5352 179.729L56.8975 185.718C60.0814 185.525 64.3432 184.15 68.5715 182.491C73.0291 180.742 78.1986 178.367 83.4915 175.667C94.0092 170.302 105.491 163.408 113.145 157.174L109.356 152.521ZM56.5352 179.729L56.173 173.739C53.0832 173.926 47.9626 172.951 43.0783 170.982C40.7047 170.025 38.6239 168.926 37.0509 167.813C35.3872 166.635 34.7394 165.758 34.573 165.413L29.168 168.018L23.7629 170.623C25.19 173.584 27.6892 175.888 30.1175 177.607C32.6364 179.39 35.5924 180.903 38.5917 182.112C44.4531 184.475 51.4226 186.049 56.8973 185.718L56.5352 179.729ZM29.168 168.018L34.573 165.413C33.5212 163.23 33.7669 162.203 33.8 162.068C33.8311 161.941 33.8603 161.914 33.8212 161.978C33.8024 162.008 33.7662 162.062 33.7028 162.14C33.6709 162.18 33.6317 162.226 33.5838 162.279C33.5598 162.305 33.5335 162.334 33.5048 162.364C33.4904 162.379 33.4754 162.395 33.4598 162.411C33.452 162.419 33.444 162.427 33.4358 162.435C33.4318 162.439 33.4276 162.443 33.4235 162.448C33.4214 162.45 33.4182 162.453 33.4172 162.454C33.414 162.457 33.4109 162.46 29.168 158.218C24.9251 153.975 24.9219 153.979 24.9187 153.982C24.9176 153.983 24.9143 153.986 24.9122 153.988C24.9078 153.993 24.9034 153.997 24.8989 154.002C24.89 154.011 24.8809 154.02 24.8715 154.03C24.8529 154.049 24.8333 154.069 24.813 154.09C24.7725 154.133 24.7287 154.18 24.6821 154.231C24.589 154.334 24.4845 154.456 24.3717 154.595C24.1465 154.874 23.8862 155.228 23.6184 155.661C23.0815 156.528 22.5131 157.711 22.1458 159.208C21.3823 162.32 21.6279 166.192 23.7629 170.622L29.168 168.018ZM29.168 158.218C23.7237 160.74 23.7235 160.739 23.7234 160.739C23.7233 160.739 23.7231 160.738 23.723 160.738C23.7228 160.738 23.7226 160.737 23.7224 160.737C23.7221 160.736 23.7217 160.735 23.7213 160.734C23.7205 160.733 23.7197 160.731 23.7189 160.729C23.7173 160.726 23.7157 160.722 23.7142 160.719C23.7111 160.712 23.708 160.706 23.705 160.699C23.699 160.686 23.6931 160.673 23.6875 160.66C23.6762 160.634 23.6656 160.61 23.6558 160.587C23.6361 160.541 23.6192 160.499 23.6047 160.462L29.1982 158.291L34.7918 156.12C34.7584 156.034 34.7264 155.956 34.6963 155.885C34.6812 155.85 34.6666 155.816 34.6526 155.785C34.6456 155.769 34.6387 155.754 34.632 155.739C34.6286 155.732 34.6253 155.724 34.622 155.717C34.6204 155.714 34.6188 155.71 34.6171 155.706C34.6163 155.705 34.6155 155.703 34.6147 155.701C34.6143 155.7 34.6139 155.699 34.6135 155.699C34.6133 155.698 34.6131 155.698 34.6129 155.697C34.6128 155.697 34.6126 155.697 34.6126 155.697C34.6124 155.696 34.6123 155.696 29.168 158.218ZM29.1982 158.291L34.8684 160.253C34.9698 159.96 35.0818 159.67 35.204 159.383L29.6846 157.03L24.1651 154.677C23.9346 155.218 23.7219 155.769 23.5281 156.329L29.1982 158.291ZM29.6846 157.03L35.5665 155.846C35.319 154.617 35.2135 153.25 35.1773 152.165L29.1807 152.365L23.184 152.565C23.2314 153.986 23.373 156.082 23.8027 158.215L29.6846 157.03ZM29.1807 152.365L32.5195 147.38C32.382 147.288 32.2461 147.196 32.1118 147.103L28.7129 152.048L25.314 156.992C25.4887 157.112 25.6646 157.232 25.8418 157.35L29.1807 152.365ZM28.7129 152.048L23.3526 154.744C23.3186 154.676 23.293 154.622 23.2787 154.591C23.2714 154.576 23.2658 154.563 23.263 154.557C23.2608 154.552 23.2584 154.547 23.2605 154.552C23.2614 154.554 23.2657 154.563 23.271 154.574C23.2765 154.587 23.2847 154.604 23.2948 154.626C23.3146 154.668 23.3459 154.733 23.3862 154.812L28.7295 152.083L34.0728 149.354C34.0918 149.391 34.1082 149.424 34.1218 149.452C34.1354 149.48 34.1469 149.504 34.1556 149.523C34.1644 149.541 34.1712 149.556 34.1754 149.565C34.1775 149.57 34.1792 149.574 34.1803 149.576C34.1813 149.578 34.182 149.58 34.1819 149.579C34.1817 149.579 34.1819 149.579 34.1814 149.578C34.1812 149.578 34.1807 149.577 34.1802 149.576C34.1792 149.573 34.1774 149.57 34.1753 149.565C34.1711 149.556 34.1641 149.541 34.1555 149.522C34.1467 149.503 34.1353 149.479 34.1218 149.451C34.1082 149.423 34.0919 149.389 34.0732 149.352L28.7129 152.048ZM28.7295 152.083L32.1287 147.139C29.5989 145.4 27.6812 143.653 26.4678 142.197C25.8619 141.47 25.5153 140.915 25.3421 140.563C25.1501 140.173 25.289 140.275 25.2891 140.77L19.2891 140.771L13.2891 140.771C13.2894 144.418 15.393 147.652 17.2492 149.88C19.3219 152.367 22.1243 154.823 25.3303 157.027L28.7295 152.083ZM19.2891 140.771H25.2891C25.2891 140.382 25.3394 140.061 25.4138 139.797L19.6377 138.173L13.8616 136.549C13.4784 137.912 13.2891 139.328 13.2891 140.771H19.2891ZM19.6377 138.173L25.4138 139.797C25.4444 139.688 25.4793 139.587 25.5176 139.493L19.9639 137.223L14.4101 134.952C14.1968 135.474 14.0141 136.007 13.8616 136.549L19.6377 138.173ZM19.9639 137.223L25.5176 139.493C25.8899 138.583 27.3404 136.971 31.2394 136.971L31.2393 130.971L31.2392 124.971C24.122 124.971 17.182 128.173 14.4102 134.952L19.9639 137.223ZM31.2393 130.971V136.971C31.5379 136.971 31.8156 136.957 32.0646 136.936L31.5781 130.956L31.0917 124.976C31.1096 124.974 31.1609 124.971 31.2393 124.971V130.971ZM31.5781 130.956L32.0722 136.936C35.5572 136.648 39.0346 134.553 41.6063 132.732C44.4727 130.702 47.4553 128.089 50.166 125.423C52.8873 122.746 55.4573 119.895 57.4835 117.32C58.4952 116.034 59.417 114.76 60.1664 113.568C60.8597 112.464 61.6258 111.089 62.0503 109.667L56.3008 107.951L50.5513 106.236C50.5966 106.084 50.5215 106.362 50.0059 107.183C49.5464 107.914 48.8916 108.834 48.0536 109.899C46.3803 112.025 44.1581 114.5 41.7509 116.868C39.333 119.246 36.8506 121.396 34.6714 122.939C32.1977 124.691 31.0492 124.979 31.0841 124.976L31.5781 130.956ZM56.3008 107.951L62.1976 109.059C62.2763 108.64 62.3668 108 62.3282 107.242L56.3359 107.548L50.3437 107.853C50.3173 107.336 50.3811 106.965 50.404 106.843L56.3008 107.951ZM56.3359 107.548L62.3281 107.242C62.2908 106.511 62.1958 105.659 62.1299 105.026C62.0555 104.312 61.9889 103.631 61.9517 102.933C61.8759 101.513 61.9419 100.298 62.2113 99.2879L56.4141 97.7412L50.6168 96.1945C49.8882 98.9257 49.861 101.554 49.9687 103.573C50.0232 104.594 50.1175 105.531 50.1945 106.27C50.28 107.09 50.327 107.526 50.3437 107.854L56.3359 107.548ZM56.4141 97.7412L62.2494 99.1374C62.4553 98.2766 62.7831 97.6218 63.2596 97.0882C63.7292 96.5623 64.5891 95.8776 66.2793 95.3141L64.3818 89.6221L62.4843 83.93C55.3216 86.3178 51.8152 91.1775 50.5788 96.345L56.4141 97.7412ZM64.3818 89.6221L66.2963 95.3084C67.6666 94.8471 69.0334 95.188 70.6433 96.3763C71.4239 96.9525 72.0822 97.6127 72.5519 98.1473C72.7804 98.4075 72.9483 98.6196 73.0479 98.7504C73.0973 98.8153 73.1287 98.8586 73.1411 98.876C73.1472 98.8846 73.1486 98.8866 73.145 98.8814C73.1432 98.8788 73.1401 98.8744 73.1358 98.8681C73.1336 98.865 73.1312 98.8614 73.1284 98.8573C73.127 98.8552 73.1255 98.8531 73.124 98.8508C73.1232 98.8496 73.122 98.8478 73.1216 98.8473C73.1203 98.8454 73.1191 98.8436 78.0859 95.4775C83.0528 92.1115 83.0515 92.1096 83.0502 92.1076C83.0497 92.1069 83.0483 92.1049 83.0474 92.1035C83.0455 92.1007 83.0435 92.0978 83.0414 92.0947C83.0372 92.0885 83.0326 92.0818 83.0276 92.0746C83.0177 92.0602 83.0063 92.0436 82.9933 92.0249C82.9673 91.9877 82.9353 91.9421 82.8972 91.889C82.8211 91.7827 82.7206 91.6455 82.5966 91.4825C82.3493 91.1576 82.0039 90.7246 81.567 90.2273C80.7058 89.247 79.4243 87.9429 77.7699 86.7216C74.5094 84.315 69.0243 81.7281 62.4673 83.9357L64.3818 89.6221ZM78.0859 95.4775L76.0916 101.136C80.9227 102.839 86.1351 104.141 91.0552 104.326C95.9138 104.51 101.282 103.623 105.462 100.026L101.549 95.4775L97.6354 90.9295C96.677 91.7541 94.835 92.4604 91.5074 92.3349C88.2414 92.2118 84.2917 91.3029 80.0802 89.8187L78.0859 95.4775ZM101.549 95.4775L105.513 99.9818C108.996 96.9161 111.61 92.9858 113.091 88.5883L107.404 86.6738L101.718 84.7593C100.91 87.158 99.4847 89.3016 97.585 90.9733L101.549 95.4775ZM107.404 86.6738L108.523 92.5686C107.719 92.7213 107.074 92.6639 106.77 92.6255L107.522 86.6729L108.275 80.7202C107.889 80.6715 107.166 80.612 106.286 80.779L107.404 86.6738ZM107.522 86.6729L113.187 88.6504C114.746 84.1849 115.436 79.137 115.436 73.6885L109.436 73.6885L103.436 73.6884C103.436 78.1734 102.862 81.8185 101.858 84.6953L107.522 86.6729ZM109.436 73.6885L111.748 68.1522C111.226 67.9338 110.779 67.5636 110.468 67.0887L105.452 70.3818L100.437 73.6749C102.061 76.1496 104.39 78.083 107.123 79.2248L109.436 73.6885ZM105.452 70.3818L99.695 72.0716C99.6559 71.9384 99.6597 71.7974 99.7045 71.6681L105.373 73.6348L111.042 75.6014C111.815 73.3728 111.874 70.9575 111.209 68.6921L105.452 70.3818ZM105.373 73.6348L99.7046 71.6679C99.7494 71.5388 99.8338 71.4257 99.9471 71.3452L103.421 76.2373L106.895 81.1294C108.82 79.7626 110.268 77.8297 111.042 75.6016L105.373 73.6348ZM103.421 76.2373L100.217 71.1644C98.7243 72.1071 97.0702 72.6812 95.7855 72.8003C94.4694 72.9223 94.3984 72.5416 94.6193 72.7794L90.2236 76.8633L85.8279 80.9471C89.0456 84.4105 93.4307 85.0699 96.8929 84.7491C100.386 84.4253 103.833 83.0737 106.625 81.3102L103.421 76.2373ZM90.2236 76.8633L94.5461 72.702C94.5767 72.7338 94.6426 72.8072 94.7197 72.9235L89.7178 76.2373L84.7159 79.5511C85.0924 80.1193 85.4995 80.6073 85.9012 81.0246L90.2236 76.8633ZM89.7178 76.2373L94.7198 72.9238C94.7148 72.9161 94.7215 72.9262 94.7341 72.946C94.747 72.9663 94.7706 73.004 94.8003 73.0546L89.624 76.0889L84.4478 79.1231C84.5607 79.3157 84.6641 79.4729 84.7157 79.5508L89.7178 76.2373ZM89.624 76.0889L94.8001 73.0543C95.0368 73.4581 95.2445 74.0358 95.2699 74.7272C95.2945 75.3976 95.1396 75.9331 94.9909 76.2747C94.8512 76.5958 94.7116 76.7623 94.6934 76.7839C94.6708 76.8106 94.6998 76.7723 94.8104 76.6804C95.0455 76.4852 95.3787 76.2693 95.7167 76.0819C95.8713 75.9961 95.9981 75.9322 96.0753 75.8947C96.1132 75.8763 96.137 75.8652 96.1438 75.8621C96.1472 75.8605 96.1461 75.861 96.1403 75.8637C96.1374 75.865 96.1332 75.8668 96.1279 75.8692C96.1252 75.8704 96.1221 75.8717 96.1188 75.8732C96.1171 75.8739 96.1154 75.8747 96.1136 75.8755C96.1127 75.8759 96.1112 75.8765 96.1108 75.8767C96.1093 75.8774 96.1078 75.878 93.7012 70.3818C91.2945 64.8857 91.293 64.8863 91.2914 64.887C91.2909 64.8872 91.2893 64.8879 91.2882 64.8884C91.286 64.8894 91.2838 64.8904 91.2814 64.8914C91.2766 64.8935 91.2715 64.8958 91.2659 64.8982C91.2549 64.9031 91.2423 64.9087 91.2283 64.915C91.2002 64.9276 91.1662 64.943 91.1268 64.9612C91.048 64.9975 90.9467 65.045 90.8266 65.1034C90.5879 65.2195 90.2675 65.3821 89.897 65.5876C89.1847 65.9826 88.1556 66.6084 87.1426 67.4498C86.2037 68.2297 84.8242 69.5639 83.9876 71.4866C83.0111 73.7306 82.9184 76.5144 84.448 79.1234L89.624 76.0889ZM93.7012 70.3818C99.6384 69.5164 99.6387 69.5186 99.639 69.5207C99.6391 69.5213 99.6394 69.5234 99.6396 69.5247C99.64 69.5274 99.6404 69.5299 99.6407 69.5322C99.6414 69.5369 99.642 69.5411 99.6425 69.5448C99.6435 69.5522 99.6442 69.5574 99.6447 69.5606C99.6455 69.5671 99.6453 69.5654 99.6441 69.5562C99.6419 69.5377 99.6364 69.4896 99.6296 69.4157C99.6159 69.2665 99.5979 69.0212 99.5908 68.709C99.5761 68.0612 99.6112 67.2486 99.7673 66.4573C100.098 64.7802 100.639 64.3953 101.177 64.2222L99.3389 58.5107L97.5005 52.7993C91.0005 54.8916 88.7228 60.4422 87.9943 64.1343C87.6208 66.0276 87.5661 67.758 87.5939 68.982C87.6081 69.6058 87.6446 70.1287 87.6799 70.5136C87.6977 70.7068 87.7153 70.8673 87.7302 70.9906C87.7376 71.0523 87.7444 71.1049 87.7501 71.1478C87.7529 71.1693 87.7556 71.1883 87.7579 71.2049C87.759 71.2132 87.7601 71.2209 87.7611 71.228C87.7616 71.2315 87.7621 71.2349 87.7626 71.2381C87.7628 71.2397 87.7631 71.242 87.7633 71.2428C87.7636 71.245 87.7639 71.2473 93.7012 70.3818ZM99.3389 58.5107L101.178 64.222C101.2 64.2148 101.216 64.2097 101.231 64.2049C101.245 64.2003 101.255 64.1973 101.262 64.1951C101.276 64.1906 101.272 64.1919 101.258 64.1962L99.5967 58.4307L97.9358 52.6651C97.7438 52.7204 97.5691 52.7772 97.5001 52.7995L99.3389 58.5107ZM99.5967 58.4307L101.196 64.2136C101.377 64.1634 101.565 64.125 101.757 64.099L100.951 58.1533L100.146 52.2076C99.4262 52.3051 98.7082 52.4512 97.9975 52.6477L99.5967 58.4307ZM100.951 58.1533L101.756 64.099C101.946 64.0733 102.137 64.0605 102.325 64.0605L102.325 58.0605L102.325 52.0605C101.596 52.0605 100.868 52.1099 100.146 52.2076L100.951 58.1533ZM102.325 58.0605L102.326 64.0605C102.564 64.0605 102.802 64.0805 103.036 64.1203L104.041 58.2051L105.046 52.2899C104.144 52.1366 103.234 52.0605 102.325 52.0605L102.325 58.0605ZM104.041 58.2051L103.035 64.1202C103.153 64.1402 103.277 64.167 103.409 64.2018L104.943 58.4014L106.478 52.6009C106.013 52.4778 105.535 52.373 105.047 52.2899L104.041 58.2051ZM104.943 58.4014L105.903 64.3242C105.201 64.4378 102.385 64.7058 100.361 62.1691L105.051 58.4268L109.741 54.6844C107.676 52.0976 104.788 52.3484 103.984 52.4785L104.943 58.4014ZM105.051 58.4268L110.134 55.2385C106.769 49.8747 102.288 45.2984 96.9939 41.8231L93.7012 46.8389L90.4085 51.8546C94.2592 54.3826 97.5197 57.7119 99.9679 61.615L105.051 58.4268ZM93.7012 46.8389L96.8888 41.7556C90.5062 37.7533 83.2082 35.4463 75.6858 35.0512L75.3711 41.043L75.0564 47.0347C80.541 47.3228 85.8613 49.0048 90.5136 51.9221L93.7012 46.8389ZM75.3711 41.043L75.6858 35.0512C69.9147 34.7481 64.1576 35.5784 58.7346 37.4765L60.7168 43.1396L62.6989 48.8028C66.6524 47.419 70.8494 46.8138 75.0564 47.0347L75.3711 41.043ZM60.7168 43.1396L56.5032 38.8682C56.4875 38.8836 56.4733 38.8974 56.4306 38.939C56.3956 38.9731 56.3396 39.0278 56.2785 39.0887L60.5186 43.334L64.7586 47.5792C64.8419 47.496 64.7401 47.5988 64.9304 47.4111L60.7168 43.1396ZM60.5186 43.334L58.7117 37.6125C56.9186 38.1788 55.3993 38.7966 53.9978 39.4506L56.5352 44.8877L59.0725 50.3248C60.0608 49.8636 61.0914 49.4452 62.3254 49.0555L60.5186 43.334ZM56.5352 44.8877L53.8493 39.5224L53.0436 39.9258L55.7295 45.291L58.4154 50.6563L59.221 50.253L56.5352 44.8877ZM55.7295 45.291L52.9756 39.9603C48.3577 42.346 44.189 45.5193 40.6573 49.3385L45.0625 53.4121L49.4677 57.4857C52.0533 54.6897 55.1044 52.3673 58.4833 50.6217L55.7295 45.291ZM45.0625 53.4121L40.6595 49.3361C40.8547 49.1253 41.0148 48.9926 41.045 48.9675L44.874 53.5869L48.703 58.2063C48.8648 58.0722 49.1532 57.8255 49.4655 57.4881L45.0625 53.4121ZM44.874 53.5869L40.5102 49.469C41.0554 48.8913 41.7772 48.4705 42.5974 48.2926L43.8691 54.1562L45.1409 60.0199C46.7343 59.6743 48.1545 58.8528 49.2378 57.7049L44.874 53.5869ZM43.8691 54.1562L42.5987 48.2923C43.5559 48.0849 44.5561 48.2316 45.4137 48.7055L42.5117 53.957L39.6097 59.2085C41.2942 60.1394 43.2591 60.4276 45.1396 60.0202L43.8691 54.1562ZM42.5117 53.957L45.4151 48.7063C46.2726 49.1805 46.9289 49.9493 47.2625 50.8715L41.6201 52.9121L35.9778 54.9527C36.6328 56.764 37.9235 58.2761 39.6084 59.2078L42.5117 53.957ZM41.6201 52.9121L47.2628 50.8725C47.5951 51.7917 47.584 52.8025 47.2276 53.7177L41.6367 51.54L36.0458 49.3624C35.3465 51.158 35.324 53.1439 35.9774 54.9517L41.6201 52.9121ZM41.6367 51.54L47.4348 53.0836C49.518 45.2583 54.5627 38.549 61.5018 34.3734L58.4082 29.2324L55.3147 24.0914C45.7079 29.8722 38.7232 39.1613 35.8387 49.9965L41.6367 51.54ZM58.4082 29.2324L61.6747 34.2653C68.8656 29.5981 76.1432 27.1093 83.544 26.494L83.0469 20.5146L82.5498 14.5353C73.0268 15.327 63.8651 18.5377 55.1417 24.1996L58.4082 29.2324ZM105.053 58.4297L99.6862 61.113L99.6871 61.1149L105.054 58.4316L110.42 55.7484L110.419 55.7464L105.053 58.4297ZM105.054 58.4316L110.42 55.7484L110.419 55.7464L105.053 58.4297L99.6862 61.113L99.6871 61.1149L105.054 58.4316Z" fill="white" mask="url(#path-1-outside-1_1347_9213)"/>
<path d="M29.168 158.377C30.102 155.636 31.6391 153.139 33.666 151.071C35.6928 149.003 38.1579 147.416 40.8795 146.427C50.9179 142.045 99.5963 115.116 99.5963 115.116L113.3 138.619C113.3 138.619 92.5057 160.369 70.2379 167.977C47.9701 175.586 47.1734 174.51 38.9276 169.969C34.2741 167.542 30.7668 163.376 29.168 158.377Z" fill="#FF866E"/>
<path d="M58.4873 158.378C58.4873 158.378 60.2002 167.261 64.3829 166.345C68.5656 165.428 70.2386 152.681 70.2386 152.681L58.4873 158.378Z" fill="white"/>
<path d="M83.9434 142.723C83.9434 142.723 87.6082 152.841 91.9104 150.69C96.2125 148.538 95.8939 135.074 95.8939 135.074L83.9434 142.723Z" fill="white"/>
<path d="M29.1696 150.53C29.1696 150.53 28.7712 161.405 33.1531 162.481C37.5349 163.556 41.1201 154.514 41.1201 154.514L29.1696 150.53Z" fill="white"/>
<path d="M172.734 64.4465C172.942 63.02 172.847 61.5657 172.454 60.1786C172.061 58.7916 171.38 57.5031 170.455 56.3975C169.53 55.2919 168.382 54.3942 167.086 53.763C165.79 53.1319 164.375 52.7815 162.934 52.735C158.074 51.9383 154.449 56.7185 152.617 59.8256C150.251 57.7001 147.562 55.9654 144.65 54.6869C144.65 54.6869 140.666 40.7446 119.195 29.2323C97.7242 17.72 77.3685 17.003 58.5266 29.2323C50.2536 34.2105 44.2399 42.2097 41.756 51.5399C41.6329 51.9621 41.656 52.4135 41.8216 52.821C41.9872 53.2284 42.2854 53.568 42.6681 53.7847C43.0508 54.0014 43.4955 54.0825 43.93 54.0149C44.3646 53.9473 44.7636 53.7349 45.0623 53.4122C48.325 49.884 52.2153 46.9933 56.5348 44.8875C62.3843 42.0246 68.8675 40.7013 75.371 41.0429C81.8746 41.3844 88.1834 43.3795 93.7009 46.8394C98.2748 49.842 102.147 53.7959 105.054 58.4314C103.268 57.9376 101.382 57.9376 99.5965 58.4314C92.2668 60.5426 93.7009 70.3819 93.7009 70.3819C93.7009 70.3819 87.6061 73.0508 89.7174 76.2376C92.5058 80.2211 98.8794 79.1058 103.421 76.2376C104.327 75.5944 105.009 74.6845 105.373 73.6348C105.738 72.5851 105.765 71.448 105.452 70.3819C106.421 71.8567 107.808 73.0081 109.436 73.6882C109.436 83.7665 106.846 91.2953 101.469 95.7966C96.091 100.298 87.0484 98.9834 78.0059 95.7966C78.0059 95.7966 72.2298 87.2719 64.3026 89.9409C53.5472 93.526 56.1365 103.644 56.3356 107.548C56.5348 111.452 38.2904 130.971 31.2396 130.971C24.1888 130.971 19.2891 134.915 19.2891 140.77C19.2891 146.626 34.3069 158.696 50.5994 160.329C66.8919 161.963 100.313 126.43 105.373 134.915C108.32 139.775 95.0154 150.45 81.9097 158.377C68.804 166.305 56.3755 173.953 44.7835 169.969C31.8371 165.986 29.1681 158.218 29.1681 158.218C29.1681 158.218 25.9813 161.405 29.1681 168.018C32.3549 174.63 47.9703 180.247 56.5348 179.729C65.0993 179.211 94.9756 164.233 109.356 152.522C123.736 140.81 121.107 132.923 121.107 132.923C121.107 132.923 146.044 133.202 154.37 123.163C162.695 113.125 165.643 92.331 162.337 76.1978C161.854 73.9704 161.119 71.8053 160.146 69.7445C161.402 68.3225 162.17 66.5356 162.337 64.6456C162.337 65.6415 162.337 73.4093 166.32 74.2459C170.304 75.0824 178.271 73.4093 178.032 69.3462C177.793 65.283 172.734 64.4465 172.734 64.4465Z" fill="#4B9AE8"/>
<path d="M45.0231 53.4121C48.2976 49.8799 52.2017 46.989 56.5355 44.8874C57.7305 44.3297 59.0052 43.8119 60.519 43.3339C62.5324 41.3229 64.7334 39.5088 67.0918 37.9163C85.9337 25.6869 106.25 26.404 127.76 37.9163C131.803 40.0765 135.643 42.5963 139.233 45.4451C133.717 38.6952 126.852 33.1728 119.076 29.2323C97.5655 17.7598 77.2497 17.0029 58.4077 29.2323C50.1348 34.2104 44.1211 42.2096 41.6372 51.5399C41.4655 51.9803 41.4595 52.468 41.6203 52.9126C41.781 53.3571 42.0976 53.7282 42.5113 53.9569C42.925 54.1856 43.4076 54.2565 43.8695 54.1563C44.3315 54.0561 44.7414 53.7917 45.0231 53.4121Z" fill="#7AB9F8"/>
<path d="M171.619 61.4187C171.898 61.6976 172.376 61.4187 172.734 61.6577C172.432 59.2468 171.278 57.0232 169.482 55.3873C167.685 53.7514 165.363 52.8107 162.935 52.7347C158.035 51.938 154.45 56.7182 152.617 59.8253C152.06 59.3473 165.484 55.6427 171.619 61.4187Z" fill="#7AB9F8"/>
<path d="M170.863 73.3296C170.827 73.68 170.76 74.0265 170.664 74.3653C170.711 74.0165 170.777 73.6707 170.863 73.3296Z" fill="#7AB9F8"/>
<path d="M105.054 58.4314C103.269 57.9376 101.383 57.9376 99.5971 58.4314C92.2674 60.5426 93.7015 70.3819 93.7015 70.3819C93.7015 70.3819 87.6067 73.0508 89.718 76.2376C91.8292 79.4244 97.685 79.2651 102.226 76.9148C96.0916 65.4822 104.656 57.8339 105.054 58.4314Z" fill="#7AB9F8"/>
<path d="M28.0528 149.454C28.0528 143.559 29.447 137.504 36.6173 137.504C43.7876 137.504 62.3906 117.307 62.0719 113.364C61.4562 109.766 62.172 106.067 64.0855 102.958C65.999 99.8497 68.9792 97.5445 72.4688 96.4737C80.4358 93.8445 87.1281 102.967 87.1281 102.967C96.2105 106.154 103.381 106.95 108.52 102.608C113.658 98.2662 109.077 86.3556 107.404 86.6742C106.26 90.0725 104.24 93.109 101.548 95.4778C96.4097 99.8995 87.1281 98.6646 78.0856 95.4778C78.0856 95.4778 72.3095 86.9531 64.3823 89.622C53.6269 93.2072 56.2161 103.325 56.4153 107.229C56.6145 111.133 38.2904 130.971 31.2396 130.971C24.1888 130.971 19.2891 134.914 19.2891 140.77C19.2891 143.678 22.9937 148.14 28.73 152.083C28.3132 151.268 28.082 150.37 28.0528 149.454Z" fill="#7AB9F8"/>
<path d="M52.6318 142.723C52.6318 142.723 71.9518 135.632 78.0864 125.115C79.0425 123.442 77.4092 114.201 86.0534 109.46C88.5642 108.204 91.3906 107.719 94.1765 108.066C96.9624 108.414 99.5832 109.578 101.709 111.412" stroke="#2069B0" stroke-width="2.98763" stroke-linecap="round" stroke-linejoin="round"/>
<path d="M123.06 107.508C128.011 104.783 132.086 100.708 134.811 95.7568" stroke="#2069B0" stroke-width="2.98763" stroke-linecap="round" stroke-linejoin="round"/>
<path d="M138.795 85.9974C140.188 82.1713 140.85 78.1175 140.747 74.0469" stroke="#2069B0" stroke-width="2.98763" stroke-linecap="round" stroke-linejoin="round"/>
<path d="M138.797 62.415C135.272 52.5189 128.338 44.2013 119.238 38.9521" stroke="#2069B0" stroke-width="2.98763" stroke-linecap="round" stroke-linejoin="round"/>
<path d="M111.349 99.6607C115.056 96.5863 117.818 92.5263 119.316 87.9492" stroke="#2069B0" stroke-width="2.98763" stroke-linecap="round" stroke-linejoin="round"/>
<path d="M121.108 80.1016C122.568 77.078 123.239 73.7345 123.06 70.3818" stroke="#2069B0" stroke-width="2.98763" stroke-linecap="round" stroke-linejoin="round"/>
<path d="M123.062 60.5426C121.392 56.585 118.628 53.1856 115.095 50.7432" stroke="#2069B0" stroke-width="2.98763" stroke-linecap="round" stroke-linejoin="round"/>
<path d="M142.78 115.316C142.78 115.316 155.249 106.512 166.283 109.46C177.317 112.408 180.464 132.206 179.946 136.826C179.428 141.447 179.946 148.339 175.963 148.777C172.903 148.49 170.061 147.069 167.996 144.793C167.996 144.793 162.857 148.219 160.029 146.745C157.201 145.271 160.029 136.946 160.029 136.946C158.284 133.305 157.607 129.244 158.077 125.234C154.093 129.855 144.374 129.218 144.374 129.218" fill="#4B9AE8"/>
<path d="M166.084 117.307C174.768 119.618 178.552 132.445 179.548 140.013C179.548 138.898 179.548 137.822 179.747 136.827C180.265 132.206 177.078 112.368 166.084 109.46C155.089 106.552 142.78 115.316 142.78 115.316C150.599 115.093 158.417 115.761 166.084 117.307Z" fill="#7AB9F8"/>
<path d="M92.9046 128.633C96.6295 128.633 99.6491 125.613 99.6491 121.889C99.6491 118.164 96.6295 115.144 92.9046 115.144C89.1798 115.144 86.1602 118.164 86.1602 121.889C86.1602 125.613 89.1798 128.633 92.9046 128.633Z" fill="white"/>
<path d="M92.8003 125.98C95.0334 125.98 96.8437 124.17 96.8437 121.937C96.8437 119.704 95.0334 117.894 92.8003 117.894C90.5672 117.894 88.7568 119.704 88.7568 121.937C88.7568 124.17 90.5672 125.98 92.8003 125.98Z" fill="black"/>
<path d="M94.1429 127.47C94.6159 127.433 95.0928 127.564 95.4992 127.725C95.9906 127.92 96.5188 128.216 97.0554 128.577C98.1316 129.301 99.3377 130.348 100.495 131.581C102.786 134.021 105.047 137.359 105.645 140.584C105.941 142.183 105.674 143.955 105.04 145.557C104.405 147.163 103.371 148.678 102.039 149.746C100.699 150.821 99.0183 151.467 97.1615 151.214C95.3119 150.961 93.4597 149.839 91.7144 147.726C88.8033 144.2 88.7479 139.264 89.5754 135.342C89.9945 133.356 90.6551 131.549 91.3622 130.195C91.7145 129.52 92.0927 128.929 92.4786 128.479C92.8268 128.073 93.3232 127.611 93.9412 127.496L94.1429 127.47Z" fill="#276288" stroke="#D7E8FC" stroke-width="2" stroke-linecap="round" stroke-linejoin="round"/>
</svg>
