<svg width="200" height="200" viewBox="0 0 200 200" fill="none" xmlns="http://www.w3.org/2000/svg">
<mask id="path-1-outside-1_1347_12867" maskUnits="userSpaceOnUse" x="11.4697" y="54.1846" width="181" height="98" fill="black">
<rect fill="white" x="11.4697" y="54.1846" width="181" height="98"/>
<path d="M158.359 81.3438C166.177 80.6945 173.776 81.5151 177.805 85.8789C184.363 92.9854 187.671 119.106 185.602 131.948C183.467 145.202 160.695 147.7 141.043 145.065C137.315 144.564 134.469 142.461 132.364 139.329C131.966 139.423 131.566 139.51 131.164 139.59C124.49 140.916 103.639 143.737 88.9346 143.737C74.827 143.737 55.7299 143.956 43.0742 134.281C42.8709 134.443 42.6214 134.551 42.3438 134.579L31.9775 135.614L31.1846 139.712C31.0375 140.472 30.3019 140.969 29.542 140.822C28.8298 140.684 28.3486 140.03 28.4121 139.322L28.4316 139.181L29.0527 135.966L25.2598 136.466C24.4925 136.566 23.7893 136.025 23.6885 135.258C23.5878 134.49 24.1273 133.787 24.8945 133.686L27.916 133.288L24.1982 129.303C23.6706 128.737 23.7016 127.849 24.2676 127.321C24.8337 126.793 25.7211 126.825 26.249 127.392L31.3506 132.859L40.3438 131.96C36.4449 128.347 33.5905 124.522 31.5811 120.619L26.6172 120.664C26.5289 120.665 26.4423 120.656 26.3584 120.642L24.1006 124.016C23.6703 124.659 22.7997 124.832 22.1562 124.402C21.5131 123.972 21.3405 123.101 21.7705 122.458L23.248 120.249L19.6475 119.667C18.8838 119.543 18.3648 118.823 18.4883 118.06C18.6121 117.296 19.3318 116.777 20.0957 116.9L23.25 117.409L21.5459 113.721C21.2219 113.018 21.5289 112.187 22.2314 111.862C22.9343 111.538 23.7664 111.844 24.0908 112.547L26.5459 117.863C26.5608 117.863 26.5758 117.861 26.5908 117.861L30.2881 117.827C23.5528 101.463 30.6505 84.2753 37.3535 75.7783C45.0021 65.4996 70.0828 49.4761 102.821 79.1367C103.974 80.145 106.181 78.7773 107.781 78.3281C112.834 75.2968 118.02 73.1861 123.102 72.0967C123.558 69.0917 124.916 66.1731 126.966 65.2471C130.5 63.6506 137.118 67.5082 138.779 71.1816C138.955 71.5711 139.1 71.9654 139.215 72.3604C141.289 72.9468 143.288 73.7667 145.189 74.832L142.977 70.2012C142.977 70.2012 142.12 68.5673 141.145 67.8877C140.331 67.3764 139.601 67.5592 139.032 66.3604C138.779 65.8275 139.446 65.5107 139.446 65.5107L148.735 61.1846L158.359 81.3438Z"/>
</mask>
<path d="M158.359 81.3438C166.177 80.6945 173.776 81.5151 177.805 85.8789C184.363 92.9854 187.671 119.106 185.602 131.948C183.467 145.202 160.695 147.7 141.043 145.065C137.315 144.564 134.469 142.461 132.364 139.329C131.966 139.423 131.566 139.51 131.164 139.59C124.49 140.916 103.639 143.737 88.9346 143.737C74.827 143.737 55.7299 143.956 43.0742 134.281C42.8709 134.443 42.6214 134.551 42.3438 134.579L31.9775 135.614L31.1846 139.712C31.0375 140.472 30.3019 140.969 29.542 140.822C28.8298 140.684 28.3486 140.03 28.4121 139.322L28.4316 139.181L29.0527 135.966L25.2598 136.466C24.4925 136.566 23.7893 136.025 23.6885 135.258C23.5878 134.49 24.1273 133.787 24.8945 133.686L27.916 133.288L24.1982 129.303C23.6706 128.737 23.7016 127.849 24.2676 127.321C24.8337 126.793 25.7211 126.825 26.249 127.392L31.3506 132.859L40.3438 131.96C36.4449 128.347 33.5905 124.522 31.5811 120.619L26.6172 120.664C26.5289 120.665 26.4423 120.656 26.3584 120.642L24.1006 124.016C23.6703 124.659 22.7997 124.832 22.1562 124.402C21.5131 123.972 21.3405 123.101 21.7705 122.458L23.248 120.249L19.6475 119.667C18.8838 119.543 18.3648 118.823 18.4883 118.06C18.6121 117.296 19.3318 116.777 20.0957 116.9L23.25 117.409L21.5459 113.721C21.2219 113.018 21.5289 112.187 22.2314 111.862C22.9343 111.538 23.7664 111.844 24.0908 112.547L26.5459 117.863C26.5608 117.863 26.5758 117.861 26.5908 117.861L30.2881 117.827C23.5528 101.463 30.6505 84.2753 37.3535 75.7783C45.0021 65.4996 70.0828 49.4761 102.821 79.1367C103.974 80.145 106.181 78.7773 107.781 78.3281C112.834 75.2968 118.02 73.1861 123.102 72.0967C123.558 69.0917 124.916 66.1731 126.966 65.2471C130.5 63.6506 137.118 67.5082 138.779 71.1816C138.955 71.5711 139.1 71.9654 139.215 72.3604C141.289 72.9468 143.288 73.7667 145.189 74.832L142.977 70.2012C142.977 70.2012 142.12 68.5673 141.145 67.8877C140.331 67.3764 139.601 67.5592 139.032 66.3604C138.779 65.8275 139.446 65.5107 139.446 65.5107L148.735 61.1846L158.359 81.3438Z" fill="#276288"/>
<path d="M158.359 81.3438L152.945 83.9287C154.019 86.1783 156.372 87.5295 158.856 87.3232L158.359 81.3438ZM177.805 85.8789L182.214 81.8096L182.213 81.8087L177.805 85.8789ZM185.602 131.948L179.678 130.994L179.678 130.994L185.602 131.948ZM141.043 145.065L140.243 151.012L140.246 151.012L141.043 145.065ZM132.364 139.329L137.344 135.983C135.951 133.91 133.42 132.916 130.989 133.489L132.364 139.329ZM131.164 139.59L129.998 133.704L129.994 133.705L131.164 139.59ZM88.9346 143.737V137.737V143.737ZM43.0742 134.281L46.7181 129.514C44.5333 127.844 41.4927 127.873 39.3402 129.585L43.0742 134.281ZM42.3438 134.579L42.9399 140.549L42.9409 140.549L42.3438 134.579ZM31.9775 135.614L31.3814 129.644C28.7431 129.907 26.5906 131.871 26.0868 134.474L31.9775 135.614ZM31.1846 139.712L37.0753 140.852L37.0753 140.852L31.1846 139.712ZM29.542 140.822L28.4011 146.713L28.404 146.713L29.542 140.822ZM28.4121 139.322L22.4684 138.502C22.4554 138.597 22.4446 138.691 22.4361 138.786L28.4121 139.322ZM28.4316 139.181L22.5406 138.043C22.5202 138.148 22.5026 138.254 22.4879 138.361L28.4316 139.181ZM29.0527 135.966L34.9438 137.104C35.3097 135.21 34.7428 133.256 33.4203 131.852C32.0977 130.448 30.1809 129.765 28.2686 130.017L29.0527 135.966ZM25.2598 136.466L26.0387 142.415L26.0439 142.414L25.2598 136.466ZM23.6885 135.258L17.7395 136.038L17.7396 136.04L23.6885 135.258ZM24.8945 133.686L24.112 127.737L24.1114 127.737L24.8945 133.686ZM27.916 133.288L28.6985 139.237C30.9265 138.944 32.8039 137.43 33.5632 135.315C34.3224 133.2 33.8362 130.838 32.3034 129.195L27.916 133.288ZM24.1982 129.303L19.8091 133.394L19.8109 133.396L24.1982 129.303ZM24.2676 127.321L20.176 122.933L20.1749 122.934L24.2676 127.321ZM26.249 127.392L21.861 131.484L21.862 131.485L26.249 127.392ZM31.3506 132.859L26.9636 136.953C28.241 138.322 30.0844 139.016 31.9477 138.83L31.3506 132.859ZM40.3438 131.96L40.9408 137.93C43.2887 137.695 45.2809 136.106 46.0318 133.869C46.7827 131.632 46.1528 129.163 44.4222 127.559L40.3438 131.96ZM31.5811 120.619L36.9156 117.873C35.878 115.857 33.7933 114.599 31.5268 114.619L31.5811 120.619ZM26.6172 120.664L26.6709 126.664L26.6715 126.664L26.6172 120.664ZM26.3584 120.642L27.4048 114.734C25.0619 114.319 22.6952 115.327 21.3719 117.305L26.3584 120.642ZM24.1006 124.016L19.1141 120.679L19.1135 120.68L24.1006 124.016ZM22.1562 124.402L18.8198 129.389L18.8223 129.391L22.1562 124.402ZM21.7705 122.458L16.7833 119.122L16.7822 119.124L21.7705 122.458ZM23.248 120.249L28.2353 123.585C29.371 121.887 29.5648 119.728 28.7496 117.855C27.9344 115.982 26.2221 114.652 24.2055 114.326L23.248 120.249ZM19.6475 119.667L18.6858 125.589L18.69 125.59L19.6475 119.667ZM18.4883 118.06L12.5656 117.099L12.5651 117.102L18.4883 118.06ZM20.0957 116.9L19.1392 122.824L19.1403 122.824L20.0957 116.9ZM23.25 117.409L22.2945 123.333C24.4841 123.686 26.6899 122.802 28.0303 121.035C29.3706 119.268 29.627 116.906 28.6968 114.893L23.25 117.409ZM21.5459 113.721L16.0971 116.233L16.0991 116.237L21.5459 113.721ZM22.2314 111.862L19.7172 106.415L19.7161 106.415L22.2314 111.862ZM24.0908 112.547L18.6431 115.061L18.6436 115.062L24.0908 112.547ZM26.5459 117.863L21.0987 120.379C22.1181 122.586 24.3689 123.96 26.7982 123.858L26.5459 117.863ZM26.5908 117.861L26.5354 111.862L26.5239 111.862L26.5908 117.861ZM30.2881 117.827L30.3436 123.827C32.3351 123.808 34.1878 122.803 35.2885 121.143C36.3892 119.483 36.5946 117.385 35.8365 115.544L30.2881 117.827ZM37.3535 75.7783L42.0642 79.4944C42.0991 79.4502 42.1334 79.4054 42.1671 79.3602L37.3535 75.7783ZM102.821 79.1367L98.7928 83.5832C98.8187 83.6067 98.8449 83.63 98.8712 83.653L102.821 79.1367ZM107.781 78.3281L109.403 84.1048C109.917 83.9604 110.41 83.748 110.868 83.4732L107.781 78.3281ZM123.102 72.0967L124.359 77.9634C126.798 77.4406 128.659 75.4634 129.034 72.9973L123.102 72.0967ZM126.966 65.2471L124.496 59.7791L124.496 59.7792L126.966 65.2471ZM138.779 71.1816L144.246 68.709L144.246 68.7088L138.779 71.1816ZM139.215 72.3604L133.454 74.0374C134.032 76.0233 135.592 77.5714 137.583 78.1341L139.215 72.3604ZM145.189 74.832L142.256 80.0662C144.538 81.3445 147.384 80.9983 149.292 79.2103C151.2 77.4223 151.731 74.6045 150.603 72.2451L145.189 74.832ZM142.977 70.2012L148.39 67.6142C148.358 67.5472 148.325 67.4808 148.29 67.415L142.977 70.2012ZM141.145 67.8877L144.575 62.9649C144.497 62.9104 144.417 62.8578 144.336 62.8071L141.145 67.8877ZM139.032 66.3604L133.612 68.9326L133.612 68.9327L139.032 66.3604ZM139.446 65.5107L136.913 60.0717C136.899 60.0781 136.886 60.0845 136.872 60.091L139.446 65.5107ZM148.735 61.1846L154.15 58.5996C152.732 55.6294 149.186 54.356 146.202 55.7455L148.735 61.1846ZM158.359 81.3438L158.856 87.3232C162.453 87.0244 165.701 87.095 168.337 87.6171C170.996 88.1436 172.546 89.0282 173.396 89.9491L177.805 85.8789L182.213 81.8087C179.034 78.3658 174.771 76.6582 170.668 75.8457C166.543 75.0288 162.083 75.0138 157.863 75.3643L158.359 81.3438ZM177.805 85.8789L173.395 89.9482C174.145 90.7599 175.257 92.7254 176.381 96.1439C177.45 99.3948 178.349 103.389 179.008 107.675C180.344 116.356 180.577 125.417 179.678 130.994L185.602 131.948L191.525 132.903C192.696 125.637 192.31 115.216 190.869 105.85C190.14 101.113 189.111 96.4413 187.781 92.3947C186.505 88.5156 184.744 84.5511 182.214 81.8096L177.805 85.8789ZM185.602 131.948L179.678 130.994C179.231 133.767 176.436 136.788 168.536 138.62C161.062 140.353 151.238 140.379 141.84 139.119L141.043 145.065L140.246 151.012C150.5 152.387 161.887 152.48 171.247 150.31C180.179 148.238 189.837 143.383 191.525 132.902L185.602 131.948ZM141.043 145.065L141.843 139.119C140.155 138.892 138.7 138.001 137.344 135.983L132.364 139.329L127.384 142.675C130.237 146.921 134.475 150.236 140.243 151.012L141.043 145.065ZM132.364 139.329L130.989 133.489C130.655 133.568 130.325 133.64 129.998 133.704L131.164 139.59L132.33 145.475C132.808 145.381 133.278 145.278 133.74 145.169L132.364 139.329ZM131.164 139.59L129.994 133.705C123.606 134.975 103.157 137.737 88.9346 137.737V143.737V149.737C104.122 149.737 125.374 146.858 132.334 145.475L131.164 139.59ZM88.9346 143.737V137.737C81.7801 137.737 73.9249 137.781 66.3047 136.697C58.6843 135.613 51.8946 133.472 46.7181 129.514L43.0742 134.281L39.4304 139.048C46.9095 144.765 55.9962 147.352 64.6152 148.577C73.2344 149.803 81.9815 149.737 88.9346 149.737V143.737ZM43.0742 134.281L39.3402 129.585C39.9903 129.068 40.8183 128.702 41.7466 128.609L42.3438 134.579L42.9409 140.549C44.4245 140.401 45.7514 139.818 46.8083 138.978L43.0742 134.281ZM42.3438 134.579L41.7476 128.609L31.3814 129.644L31.9775 135.614L32.5737 141.585L42.9399 140.549L42.3438 134.579ZM31.9775 135.614L26.0868 134.474L25.2939 138.572L31.1846 139.712L37.0753 140.852L37.8683 136.754L31.9775 135.614ZM31.1846 139.712L25.2939 138.572C25.7762 136.08 28.1867 134.45 30.6799 134.931L29.542 140.822L28.404 146.713C32.4171 147.489 36.2988 144.864 37.0753 140.852L31.1846 139.712ZM29.542 140.822L30.6829 134.932C33.0236 135.385 34.5968 137.533 34.3881 139.859L28.4121 139.322L22.4361 138.786C22.1005 142.527 24.636 145.984 28.4011 146.713L29.542 140.822ZM28.4121 139.322L34.3558 140.142L34.3754 140L28.4316 139.181L22.4879 138.361L22.4684 138.502L28.4121 139.322ZM28.4316 139.181L34.3227 140.319L34.9438 137.104L29.0527 135.966L23.1617 134.828L22.5406 138.043L28.4316 139.181ZM29.0527 135.966L28.2686 130.017L24.4756 130.517L25.2598 136.466L26.0439 142.414L29.8369 141.914L29.0527 135.966ZM25.2598 136.466L24.4808 130.517C27.005 130.186 29.3075 131.966 29.6373 134.476L23.6885 135.258L17.7396 136.04C18.2712 140.084 21.98 142.946 26.0387 142.415L25.2598 136.466ZM23.6885 135.258L29.6375 134.477C29.967 136.989 28.2006 139.302 25.6777 139.634L24.8945 133.686L24.1114 127.737C20.054 128.271 17.2087 131.992 17.7395 136.038L23.6885 135.258ZM24.8945 133.686L25.6771 139.634L28.6985 139.237L27.916 133.288L27.1335 127.339L24.112 127.737L24.8945 133.686ZM27.916 133.288L32.3034 129.195L28.5856 125.21L24.1982 129.303L19.8109 133.396L23.5286 137.381L27.916 133.288ZM24.1982 129.303L28.5874 125.212C30.3187 127.069 30.2165 129.977 28.3602 131.709L24.2676 127.321L20.1749 122.934C17.1868 125.721 17.0225 130.404 19.8091 133.394L24.1982 129.303ZM24.2676 127.321L28.3591 131.71C26.4958 133.447 23.5873 133.335 21.861 131.484L26.249 127.392L30.637 123.299C27.8548 120.316 23.1717 120.14 20.176 122.933L24.2676 127.321ZM26.249 127.392L21.862 131.485L26.9636 136.953L31.3506 132.859L35.7376 128.766L30.636 123.298L26.249 127.392ZM31.3506 132.859L31.9477 138.83L40.9408 137.93L40.3438 131.96L39.7467 125.99L30.7535 126.889L31.3506 132.859ZM40.3438 131.96L44.4222 127.559C41.0094 124.396 38.59 121.125 36.9156 117.873L31.5811 120.619L26.2465 123.366C28.591 127.919 31.8805 132.297 36.2653 136.361L40.3438 131.96ZM31.5811 120.619L31.5268 114.619L26.5629 114.664L26.6172 120.664L26.6715 126.664L31.6354 126.619L31.5811 120.619ZM26.6172 120.664L26.5635 114.664C26.8899 114.661 27.1738 114.693 27.4048 114.734L26.3584 120.642L25.312 126.55C25.7108 126.62 26.1679 126.668 26.6709 126.664L26.6172 120.664ZM26.3584 120.642L21.3719 117.305L19.1141 120.679L24.1006 124.016L29.0871 127.352L31.3449 123.978L26.3584 120.642ZM24.1006 124.016L19.1135 120.68C20.5225 118.573 23.3756 118.001 25.4902 119.414L22.1562 124.402L18.8223 129.391C22.2238 131.664 26.8181 130.745 29.0877 127.352L24.1006 124.016ZM22.1562 124.402L25.4927 119.416C27.6043 120.828 28.1685 123.683 26.7589 125.792L21.7705 122.458L16.7822 119.124C14.5124 122.52 15.4218 127.116 18.8198 129.389L22.1562 124.402ZM21.7705 122.458L26.7577 125.794L28.2353 123.585L23.248 120.249L18.2608 116.913L16.7833 119.122L21.7705 122.458ZM23.248 120.249L24.2055 114.326L20.6049 113.744L19.6475 119.667L18.69 125.59L22.2906 126.172L23.248 120.249ZM19.6475 119.667L20.6091 113.745C23.1147 114.151 24.8164 116.511 24.4114 119.017L18.4883 118.06L12.5651 117.102C11.9133 121.136 14.6529 124.935 18.6858 125.589L19.6475 119.667ZM18.4883 118.06L24.4109 119.02C24.0042 121.529 21.6421 123.228 19.1392 122.824L20.0957 116.9L21.0522 110.977C17.0215 110.326 13.2201 113.063 12.5656 117.099L18.4883 118.06ZM20.0957 116.9L19.1403 122.824L22.2945 123.333L23.25 117.409L24.2055 111.486L21.0512 110.977L20.0957 116.9ZM23.25 117.409L28.6968 114.893L26.9927 111.204L21.5459 113.721L16.0991 116.237L17.8032 119.926L23.25 117.409ZM21.5459 113.721L26.9947 111.209C28.0595 113.518 27.0473 116.247 24.7468 117.31L22.2314 111.862L19.7161 106.415C16.0105 108.126 14.3844 112.518 16.0971 116.233L21.5459 113.721ZM22.2314 111.862L24.7457 117.31C22.443 118.373 19.7088 117.37 18.6431 115.061L24.0908 112.547L29.5385 110.032C27.824 106.318 23.4257 104.703 19.7172 106.415L22.2314 111.862ZM24.0908 112.547L18.6436 115.062L21.0987 120.379L26.5459 117.863L31.9931 115.348L29.538 110.031L24.0908 112.547ZM26.5459 117.863L26.7982 123.858C26.8354 123.856 26.8652 123.855 26.877 123.854C26.8802 123.854 26.883 123.854 26.8847 123.854C26.8856 123.854 26.8864 123.854 26.8868 123.854C26.8874 123.854 26.8876 123.854 26.8877 123.854C26.8887 123.854 26.8849 123.854 26.8796 123.854C26.8692 123.855 26.842 123.856 26.8064 123.857C26.7701 123.859 26.7191 123.86 26.6578 123.861L26.5908 117.861L26.5239 111.862C26.3923 111.863 26.2879 111.869 26.2571 111.87C26.248 111.871 26.2404 111.871 26.2377 111.871C26.2329 111.872 26.2357 111.871 26.2372 111.871C26.2415 111.871 26.2639 111.87 26.2936 111.869L26.5459 117.863ZM26.5908 117.861L26.6463 123.861L30.3436 123.827L30.2881 117.827L30.2326 111.827L26.5354 111.862L26.5908 117.861ZM30.2881 117.827L35.8365 115.544C30.2364 101.937 36.1086 87.044 42.0642 79.4944L37.3535 75.7783L32.6428 72.0622C25.1924 81.5066 16.8692 100.988 24.7397 120.111L30.2881 117.827ZM37.3535 75.7783L42.1671 79.3602C45.1813 75.3095 52.0111 69.751 61.5098 68.4224C70.715 67.1349 83.4535 69.686 98.7928 83.5832L102.821 79.1367L106.85 74.6902C89.4505 58.9267 73.2795 54.6594 59.8476 56.5381C46.7092 58.3758 37.1744 65.9684 32.54 72.1965L37.3535 75.7783ZM102.821 79.1367L98.8712 83.653C100.495 85.0728 102.346 85.4746 103.758 85.4981C105.061 85.5197 106.186 85.23 106.877 85.0201C107.591 84.8033 108.283 84.5281 108.675 84.375C108.906 84.2848 109.066 84.2231 109.206 84.1722C109.271 84.1484 109.32 84.1316 109.356 84.1198C109.391 84.1081 109.406 84.104 109.403 84.1048L107.781 78.3281L106.159 72.5515C105.423 72.7581 104.703 73.0437 104.312 73.1965C103.804 73.3947 103.572 73.4826 103.39 73.5378C103.185 73.6 103.442 73.4912 103.957 73.4997C104.25 73.5046 104.689 73.5476 105.206 73.7206C105.741 73.9001 106.285 74.1953 106.771 74.6204L102.821 79.1367ZM107.781 78.3281L110.868 83.4732C115.431 80.7358 120.004 78.897 124.359 77.9634L123.102 72.0967L121.844 66.23C116.035 67.4751 110.237 69.8579 104.694 73.1831L107.781 78.3281ZM123.102 72.0967L129.034 72.9973C129.18 72.0341 129.455 71.2307 129.727 70.7212C129.858 70.4769 129.943 70.3844 129.938 70.3896C129.931 70.3967 129.776 70.5613 129.436 70.7149L126.966 65.2471L124.496 59.7792C121.81 60.9925 120.136 63.2101 119.145 65.0634C118.112 66.9959 117.48 69.1543 117.17 71.196L123.102 72.0967ZM126.966 65.2471L129.436 70.7151C128.873 70.9691 128.639 70.8272 129.063 70.8993C129.44 70.9635 130.04 71.1544 130.76 71.5368C131.465 71.9117 132.12 72.3831 132.624 72.8554C133.161 73.3599 133.319 73.6691 133.313 73.6544L138.779 71.1816L144.246 68.7088C142.668 65.2192 139.348 62.5109 136.39 60.9395C134.806 60.0979 132.985 59.3941 131.075 59.0693C129.212 58.7522 126.825 58.7268 124.496 59.7791L126.966 65.2471ZM138.779 71.1816L133.312 73.6542C133.369 73.7801 133.416 73.9082 133.454 74.0374L139.215 72.3604L144.976 70.6833C144.783 70.0226 144.541 69.3621 144.246 68.709L138.779 71.1816ZM139.215 72.3604L137.583 78.1341C139.217 78.596 140.778 79.2376 142.256 80.0662L145.189 74.832L148.123 69.5978C145.799 68.2958 143.362 67.2976 140.847 66.5866L139.215 72.3604ZM145.189 74.832L150.603 72.2451L148.39 67.6142L142.977 70.2012L137.563 72.7881L139.776 77.419L145.189 74.832ZM142.977 70.2012C148.29 67.415 148.29 67.4142 148.29 67.4134C148.289 67.4131 148.289 67.4123 148.289 67.4118C148.288 67.4107 148.288 67.4096 148.287 67.4085C148.286 67.4062 148.285 67.4038 148.283 67.4013C148.281 67.3963 148.278 67.3909 148.275 67.385C148.268 67.3733 148.261 67.3599 148.253 67.3449C148.237 67.3149 148.217 67.2782 148.194 67.2357C148.147 67.1508 148.085 67.0409 148.01 66.9119C147.862 66.6579 147.65 66.3096 147.385 65.9215C146.967 65.3081 146.004 63.961 144.575 62.9649L141.145 67.8877L137.714 72.8105C137.416 72.6023 137.291 72.4454 137.325 72.4851C137.34 72.5017 137.391 72.5647 137.467 72.677C137.539 72.7824 137.602 72.8851 137.645 72.9587C137.665 72.9935 137.678 73.0165 137.682 73.0236C137.684 73.0271 137.683 73.0262 137.68 73.0204C137.679 73.0175 137.676 73.0134 137.674 73.0079C137.672 73.0052 137.67 73.0021 137.669 72.9987C137.668 72.997 137.667 72.9952 137.666 72.9933C137.665 72.9924 137.665 72.9914 137.664 72.9904C137.664 72.9899 137.664 72.9892 137.664 72.9889C137.663 72.9882 137.663 72.9874 142.977 70.2012ZM141.145 67.8877L144.336 62.8071C143.649 62.3753 143.033 62.1277 142.699 61.9995C142.619 61.9687 142.544 61.9411 142.499 61.9244C142.446 61.9045 142.426 61.8971 142.41 61.8909C142.379 61.879 142.45 61.9051 142.563 61.9583C142.684 62.0156 142.865 62.1099 143.075 62.2504C143.288 62.3935 143.504 62.5658 143.708 62.7681C144.128 63.1832 144.352 63.5765 144.453 63.788L139.032 66.3604L133.612 68.9327C133.996 69.7436 134.526 70.5636 135.267 71.2976C136.024 72.0462 136.803 72.5085 137.43 72.8054C137.72 72.9426 137.974 73.042 138.127 73.1008C138.204 73.1299 138.277 73.1572 138.318 73.1723C138.367 73.1907 138.388 73.1984 138.404 73.2044C138.452 73.2231 138.233 73.1444 137.953 72.9683L141.145 67.8877ZM139.032 66.3604L144.453 63.7881C144.976 64.8914 145.133 66.21 144.8 67.5002C144.503 68.656 143.91 69.4205 143.545 69.8142C143.17 70.2185 142.817 70.469 142.613 70.6012C142.498 70.6759 142.391 70.7381 142.297 70.7897C142.249 70.816 142.202 70.8406 142.156 70.8638C142.133 70.8754 142.111 70.8867 142.088 70.8978C142.077 70.9034 142.066 70.9089 142.054 70.9143C142.049 70.917 142.043 70.9197 142.037 70.9224C142.035 70.9238 142.032 70.9251 142.029 70.9265C142.027 70.9272 142.025 70.9282 142.025 70.9285C142.023 70.9295 142.02 70.9305 139.446 65.5107C136.872 60.091 136.87 60.092 136.868 60.093C136.867 60.0933 136.865 60.0944 136.864 60.095C136.861 60.0964 136.858 60.0978 136.855 60.0992C136.849 60.1019 136.843 60.1048 136.837 60.1076C136.825 60.1134 136.813 60.1194 136.801 60.1255C136.776 60.1378 136.749 60.151 136.721 60.1651C136.666 60.1932 136.605 60.2251 136.539 60.2611C136.41 60.3321 136.253 60.4232 136.079 60.5359C135.758 60.7442 135.254 61.1072 134.744 61.6572C134.244 62.1968 133.532 63.1404 133.18 64.5054C132.794 66.0048 132.962 67.5628 133.612 68.9326L139.032 66.3604ZM139.446 65.5107L141.979 70.9498L151.268 66.6236L148.735 61.1846L146.202 55.7455L136.913 60.0717L139.446 65.5107ZM148.735 61.1846L143.321 63.7695L152.945 83.9287L158.359 81.3438L163.774 78.7588L154.15 58.5996L148.735 61.1846Z" fill="white" mask="url(#path-1-outside-1_1347_12867)"/>
<path d="M135.936 86.1526C132.188 87.3773 131.993 91.7764 130.632 95.8693C125.263 111.999 125.23 142.938 141.045 145.065C160.696 147.7 183.468 145.202 185.603 131.948C187.672 119.105 184.364 92.9849 177.806 85.8787C169.251 76.6132 144.605 83.3246 135.936 86.1526Z" fill="#474747"/>
<path d="M161.948 90.5756C161.948 90.5756 177.855 120.484 179.593 138.592C179.593 138.592 159.642 132.146 144.941 101.339C144.941 101.339 155.24 96.0438 154.292 94.0456L161.948 90.5756Z" fill="#D6DFE3"/>
<path d="M147.977 99.6539C146.308 100.609 144.941 101.339 144.941 101.339C159.642 132.146 179.593 138.592 179.593 138.592C179.452 137.435 179.311 136.278 179.107 134.987C172.841 131.759 158.983 122.503 147.977 99.6539Z" fill="#AEBABF"/>
<path d="M162.426 89.8604L148.737 61.1846L139.447 65.5114C139.447 65.5114 138.781 65.8275 139.034 66.3603C139.603 67.5592 140.332 67.3764 141.146 67.8878C142.121 68.5674 142.978 70.201 142.978 70.201L154.392 94.0811L162.251 90.3515C162.483 90.3233 162.553 90.1268 162.426 89.8604Z" fill="#333333"/>
<path d="M146.504 67.1406C146.104 67.3303 145.515 67.1203 145.325 66.7206C145.135 66.321 145.345 65.7317 145.745 65.5421C146.145 65.3524 146.734 65.5624 146.924 65.9621C147.113 66.3617 146.938 66.8528 146.504 67.1406Z" fill="#D0D0D0"/>
<path d="M42.0652 131.788C42.8354 131.712 43.5222 132.274 43.5992 133.044C43.6762 133.815 43.1142 134.502 42.3439 134.579L31.9774 135.614L31.1851 139.712C31.0382 140.472 30.3023 140.969 29.5423 140.822C28.8301 140.684 28.3488 140.03 28.4122 139.322L28.4316 139.181L29.0529 135.966L25.2604 136.465C24.4929 136.566 23.7894 136.025 23.6886 135.258C23.5879 134.49 24.1276 133.787 24.8949 133.686L27.9162 133.288L24.1983 129.303C23.6705 128.737 23.7017 127.849 24.2678 127.321C24.834 126.793 25.7211 126.825 26.249 127.391L31.3506 132.859L42.0652 131.788Z" fill="#474747"/>
<path d="M39.2303 119.149C39.2368 119.875 38.69 120.477 37.9837 120.555L37.8409 120.564L26.6171 120.664C26.5288 120.665 26.4425 120.657 26.3586 120.642L24.101 124.015C23.6707 124.659 22.8008 124.833 22.1573 124.403C21.5139 123.972 21.3405 123.102 21.7704 122.458L23.2479 120.249L19.6486 119.668C18.8846 119.544 18.3657 118.824 18.4892 118.06C18.6128 117.296 19.3319 116.777 20.0958 116.9L23.2496 117.409L21.5459 113.72C21.2221 113.017 21.529 112.185 22.2316 111.861C22.9345 111.536 23.7665 111.844 24.091 112.547L26.5456 117.863C26.561 117.863 26.5767 117.861 26.5922 117.861L37.8154 117.76L37.9592 117.767C38.6665 117.833 39.2236 118.424 39.2303 119.149Z" fill="#474747"/>
<path d="M131.165 139.59C124.491 140.917 103.64 143.738 88.935 143.738C74.2301 143.738 54.1025 143.976 41.501 133C18.9619 113.376 28.5012 86.9999 37.3533 75.7787C45.0015 65.4999 70.0827 49.4754 102.822 79.137C103.975 80.1453 106.181 78.7773 107.781 78.3281C126.565 67.0578 147.195 68.4985 157.47 87.9336C168.91 109.572 153.215 135.22 131.165 139.59Z" fill="#4B9AE8"/>
<path d="M139.462 101.508C143.627 101.508 147.003 98.1315 147.003 93.9668C147.003 89.802 143.627 86.4258 139.462 86.4258C135.297 86.4258 131.921 89.802 131.921 93.9668C131.921 98.1315 135.297 101.508 139.462 101.508Z" fill="white"/>
<path d="M139.502 99C140.33 99 139.502 96.9853 139.502 94.5C139.502 92.0147 140.33 90 139.502 90C138.674 90 138.002 92.0147 138.002 94.5C138.002 96.9853 138.674 99 139.502 99Z" fill="black"/>
<path d="M123.611 78.036C121.949 74.3625 123.432 66.843 126.966 65.2465C130.5 63.65 137.118 67.5084 138.779 71.1819C140.441 74.8555 139.47 78.8822 134.198 81.2599C128.863 83.6656 125.743 82.6356 124.081 78.9621L123.611 78.036Z" fill="#EAC00F"/>
<path d="M107.571 87.7331C97.4084 85.2776 71.0272 75.4909 63.8687 80.4406C56.7102 85.3904 64.6333 105.747 75.9042 113.43C83.8182 118.818 103.533 121.406 113.63 102.861" fill="#276288"/>
<path d="M107.571 87.7331C97.4084 85.2776 71.0272 75.4909 63.8687 80.4406C56.7102 85.3904 64.6333 105.747 75.9042 113.43C83.8182 118.818 103.533 121.406 113.63 102.861C116.28 98.0401 117.735 90.1887 107.571 87.7331Z" fill="#276288"/>
</svg>
