<svg width="200" height="200" viewBox="0 0 200 200" fill="none" xmlns="http://www.w3.org/2000/svg">
<mask id="path-1-outside-1_1347_5328" maskUnits="userSpaceOnUse" x="18" y="10.1216" width="165" height="182" fill="black">
<rect fill="white" x="18" y="10.1216" width="165" height="182"/>
<path d="M119.854 17.0005C120.977 15.8775 122.781 15.8242 123.968 16.8794L175.806 62.9585C176.446 63.5278 176.813 64.3438 176.813 65.2007V137.187C176.813 138.844 175.47 140.187 173.813 140.187H103.4C102.753 144.841 100.873 149.028 98.0459 152.593C94.43 157.153 89.2664 160.698 83.1514 162.917L83.6641 166.489L87.1113 167.008C87.5523 167.075 87.8562 167.486 87.79 167.927C87.7234 168.368 87.3126 168.672 86.8721 168.606L83.9375 168.163L84.5234 171.513C84.6 171.952 84.3054 172.371 83.8662 172.448C83.427 172.524 83.0084 172.23 82.9316 171.791L82.4248 168.885L79.043 172.331C78.7306 172.648 78.2196 172.653 77.9014 172.341C77.5832 172.029 77.5782 171.517 77.8906 171.199L82.0947 166.917L81.5957 163.446C77.6629 164.696 73.3761 165.416 68.8799 165.521C68.4977 165.532 68.1102 165.537 67.7227 165.537C67.335 165.537 66.9467 165.537 66.5645 165.521C65.3483 165.493 64.1476 165.418 62.9648 165.301L61.6172 168.641L64.374 172.761C64.622 173.132 64.5227 173.634 64.1523 173.882C63.7818 174.13 63.2794 174.031 63.0312 173.661L60.6865 170.157L58.5664 173.6C58.3667 173.924 57.942 174.024 57.6182 173.825C57.2949 173.625 57.1943 173.201 57.3936 172.877L59.2021 169.941L55.0449 170.969L54.9629 170.985C54.5579 171.042 54.1667 170.784 54.0664 170.378C54.0641 170.369 54.0625 170.359 54.0605 170.35L45.3965 185.643L41.001 183.119V183.12L39.7422 182.397V182.396L37.2168 180.946L37.2158 180.95L35.958 180.224V180.223L33.4375 178.776L33.4365 178.778L32.1748 178.051V178.05L29.6523 176.602V176.603L28.3916 175.879V175.878L24 173.357L33.3574 157.273L33.3516 157.27L36.1113 152.542C36.2849 152.239 36.4915 151.962 36.7266 151.709C33.5919 147.408 31.793 142.267 31.793 136.538C31.793 126.921 36.86 118.333 44.8018 112.642C44.8018 112.642 44.8232 108.798 44.8232 107.22C44.8232 92.7689 55.0804 82.0005 67.7334 82.0005C69.546 82.0005 71.3091 82.2219 73 82.6431V65.0962C73 64.3006 73.3163 63.5377 73.8789 62.9751L119.854 17.0005ZM57.415 164.411C57.3693 164.505 57.3213 164.599 57.2686 164.691L56.9062 165.33L54.5977 169.418C54.6172 169.412 54.637 169.406 54.6572 169.401L60.1143 168.051L61.3018 165.106C59.9795 164.928 58.6827 164.696 57.415 164.411ZM100.533 21.1069C102.19 21.1072 103.533 22.4502 103.533 24.1069V33.3198L88.2656 48.5864V24.1069C88.2656 22.4502 89.609 21.1072 91.2656 21.1069H100.533Z"/>
</mask>
<path d="M119.854 17.0005C120.977 15.8775 122.781 15.8242 123.968 16.8794L175.806 62.9585C176.446 63.5278 176.813 64.3438 176.813 65.2007V137.187C176.813 138.844 175.47 140.187 173.813 140.187H103.4C102.753 144.841 100.873 149.028 98.0459 152.593C94.43 157.153 89.2664 160.698 83.1514 162.917L83.6641 166.489L87.1113 167.008C87.5523 167.075 87.8562 167.486 87.79 167.927C87.7234 168.368 87.3126 168.672 86.8721 168.606L83.9375 168.163L84.5234 171.513C84.6 171.952 84.3054 172.371 83.8662 172.448C83.427 172.524 83.0084 172.23 82.9316 171.791L82.4248 168.885L79.043 172.331C78.7306 172.648 78.2196 172.653 77.9014 172.341C77.5832 172.029 77.5782 171.517 77.8906 171.199L82.0947 166.917L81.5957 163.446C77.6629 164.696 73.3761 165.416 68.8799 165.521C68.4977 165.532 68.1102 165.537 67.7227 165.537C67.335 165.537 66.9467 165.537 66.5645 165.521C65.3483 165.493 64.1476 165.418 62.9648 165.301L61.6172 168.641L64.374 172.761C64.622 173.132 64.5227 173.634 64.1523 173.882C63.7818 174.13 63.2794 174.031 63.0312 173.661L60.6865 170.157L58.5664 173.6C58.3667 173.924 57.942 174.024 57.6182 173.825C57.2949 173.625 57.1943 173.201 57.3936 172.877L59.2021 169.941L55.0449 170.969L54.9629 170.985C54.5579 171.042 54.1667 170.784 54.0664 170.378C54.0641 170.369 54.0625 170.359 54.0605 170.35L45.3965 185.643L41.001 183.119V183.12L39.7422 182.397V182.396L37.2168 180.946L37.2158 180.95L35.958 180.224V180.223L33.4375 178.776L33.4365 178.778L32.1748 178.051V178.05L29.6523 176.602V176.603L28.3916 175.879V175.878L24 173.357L33.3574 157.273L33.3516 157.27L36.1113 152.542C36.2849 152.239 36.4915 151.962 36.7266 151.709C33.5919 147.408 31.793 142.267 31.793 136.538C31.793 126.921 36.86 118.333 44.8018 112.642C44.8018 112.642 44.8232 108.798 44.8232 107.22C44.8232 92.7689 55.0804 82.0005 67.7334 82.0005C69.546 82.0005 71.3091 82.2219 73 82.6431V65.0962C73 64.3006 73.3163 63.5377 73.8789 62.9751L119.854 17.0005ZM57.415 164.411C57.3693 164.505 57.3213 164.599 57.2686 164.691L56.9062 165.33L54.5977 169.418C54.6172 169.412 54.637 169.406 54.6572 169.401L60.1143 168.051L61.3018 165.106C59.9795 164.928 58.6827 164.696 57.415 164.411ZM100.533 21.1069C102.19 21.1072 103.533 22.4502 103.533 24.1069V33.3198L88.2656 48.5864V24.1069C88.2656 22.4502 89.609 21.1072 91.2656 21.1069H100.533Z" fill="#276286"/>
<path d="M119.854 17.0005L115.611 12.7574L115.611 12.7578L119.854 17.0005ZM123.968 16.8794L127.954 12.395L127.954 12.3949L123.968 16.8794ZM175.806 62.9585L171.819 67.4429L171.819 67.4429L175.806 62.9585ZM176.813 137.187L182.813 137.187V137.187H176.813ZM173.813 140.187V146.187H173.814L173.813 140.187ZM103.4 140.187V134.187C100.406 134.187 97.8702 136.395 97.4576 139.36L103.4 140.187ZM98.0459 152.593L93.3447 148.865L93.3446 148.865L98.0459 152.593ZM83.1514 162.917L81.1051 157.276C78.4336 158.245 76.8085 160.956 77.2122 163.769L83.1514 162.917ZM83.6641 166.489L77.7249 167.341C78.1011 169.962 80.1513 172.027 82.7699 172.422L83.6641 166.489ZM87.1113 167.008L86.2172 172.941L86.2184 172.941L87.1113 167.008ZM87.79 167.927L93.7225 168.825L93.7236 168.817L87.79 167.927ZM86.8721 168.606L85.9757 174.539L85.9852 174.54L86.8721 168.606ZM83.9375 168.163L84.8338 162.23C82.9254 161.942 80.9948 162.589 79.646 163.969C78.2971 165.35 77.6947 167.295 78.0272 169.196L83.9375 168.163ZM84.5234 171.513L90.4343 170.483L90.4337 170.48L84.5234 171.513ZM83.8662 172.448L84.8949 178.359L84.8998 178.358L83.8662 172.448ZM82.9316 171.791L77.0209 172.822L77.0212 172.823L82.9316 171.791ZM82.4248 168.885L88.3355 167.854C87.949 165.638 86.3554 163.825 84.2076 163.156C82.0598 162.488 79.7186 163.077 78.1429 164.682L82.4248 168.885ZM79.043 172.331L83.3223 176.536L83.3249 176.534L79.043 172.331ZM77.9014 172.341L73.6974 176.622L73.7009 176.626L77.9014 172.341ZM77.8906 171.199L73.6091 166.995L73.609 166.995L77.8906 171.199ZM82.0947 166.917L86.3762 171.12C87.687 169.785 88.2999 167.915 88.0337 166.063L82.0947 166.917ZM81.5957 163.446L87.5346 162.592C87.2836 160.846 86.2774 159.299 84.7833 158.363C83.2891 157.426 81.4585 157.193 79.7778 157.728L81.5957 163.446ZM68.8799 165.521L68.7403 159.523C68.7305 159.523 68.7207 159.523 68.7109 159.523L68.8799 165.521ZM67.7227 165.537V171.537H67.7227L67.7227 165.537ZM66.5645 165.521L66.8177 159.526C66.7799 159.525 66.7419 159.523 66.704 159.523L66.5645 165.521ZM62.9648 165.301L63.552 159.33C60.9019 159.069 58.3972 160.587 57.4007 163.056L62.9648 165.301ZM61.6172 168.641L56.0531 166.396C55.31 168.237 55.5262 170.327 56.6305 171.978L61.6172 168.641ZM64.374 172.761L69.3608 169.425L69.3607 169.425L64.374 172.761ZM64.1523 173.882L67.4888 178.869L67.4923 178.867L64.1523 173.882ZM63.0312 173.661L58.0447 176.997L58.0464 177L63.0312 173.661ZM60.6865 170.157L65.673 166.82C64.537 165.122 62.6153 164.119 60.573 164.158C58.5307 164.196 56.6483 165.272 55.5773 167.011L60.6865 170.157ZM58.5664 173.6L63.6725 176.751L63.6756 176.746L58.5664 173.6ZM57.6182 173.825L54.4641 178.929L54.4702 178.933L57.6182 173.825ZM57.3936 172.877L52.2848 169.731L52.2842 169.732L57.3936 172.877ZM59.2021 169.941L64.3109 173.087C65.5888 171.013 65.4849 168.371 64.0481 166.403C62.6113 164.435 60.1269 163.531 57.7614 164.116L59.2021 169.941ZM55.0449 170.969L56.1676 176.863C56.2742 176.843 56.3803 176.82 56.4856 176.794L55.0449 170.969ZM54.9629 170.985L55.802 176.926C55.8969 176.913 55.9914 176.897 56.0856 176.879L54.9629 170.985ZM54.0664 170.378L48.2402 171.812L48.2418 171.819L54.0664 170.378ZM54.0605 170.35L59.9336 169.122C59.4228 166.679 57.4519 164.806 54.985 164.422C52.5181 164.037 50.0708 165.22 48.8401 167.393L54.0605 170.35ZM45.3965 185.643L42.4083 190.846C43.7935 191.642 45.4388 191.852 46.9796 191.43C48.5204 191.009 49.8295 189.99 50.6169 188.601L45.3965 185.643ZM41.001 183.119L43.9891 177.916C42.1324 176.849 39.8481 176.853 37.9951 177.926C36.142 178.999 35.001 180.977 35.001 183.119H41.001ZM41.001 183.12L38.0137 188.323C39.8705 189.389 42.1545 189.385 44.0073 188.312C45.8602 187.239 47.001 185.261 47.001 183.12H41.001ZM39.7422 182.397H33.7422C33.7422 184.546 34.8913 186.531 36.7549 187.6L39.7422 182.397ZM39.7422 182.396H45.7422C45.7422 180.247 44.5933 178.263 42.7301 177.193L39.7422 182.396ZM37.2168 180.946L40.2047 175.743C38.5738 174.806 36.5982 174.688 34.8677 175.425C33.1372 176.161 31.8521 177.666 31.3959 179.491L37.2168 180.946ZM37.2158 180.95L34.2177 186.147C35.8485 187.088 37.8263 187.208 39.5595 186.473C41.2926 185.738 42.5801 184.231 43.0367 182.405L37.2158 180.95ZM35.958 180.224H29.958C29.958 182.368 31.1024 184.35 32.9599 185.421L35.958 180.224ZM35.958 180.223H41.958C41.958 178.074 40.809 176.09 38.9457 175.02L35.958 180.223ZM33.4375 178.776L36.4252 173.573C34.9932 172.75 33.2857 172.555 31.7048 173.032C30.1239 173.508 28.8094 174.616 28.0709 176.093L33.4375 178.776ZM33.4365 178.778L30.4424 183.977C31.8744 184.802 33.5832 185 35.1657 184.523C36.7481 184.047 38.064 182.939 38.8031 181.461L33.4365 178.778ZM32.1748 178.051H26.1748C26.1748 180.197 27.321 182.18 29.1807 183.251L32.1748 178.051ZM32.1748 178.05H38.1748C38.1748 175.902 37.0257 173.917 35.1623 172.847L32.1748 178.05ZM29.6523 176.602L32.6398 171.399C30.7831 170.333 28.499 170.337 26.6461 171.41C24.7932 172.482 23.6523 174.461 23.6523 176.602H29.6523ZM29.6523 176.603L26.6655 181.807C28.5223 182.872 30.8062 182.868 32.6589 181.795C34.5116 180.723 35.6523 178.744 35.6523 176.603H29.6523ZM28.3916 175.879H22.3916C22.3916 178.028 23.541 180.013 25.4048 181.083L28.3916 175.879ZM28.3916 175.878H34.3916C34.3916 173.73 33.2426 171.745 31.3791 170.675L28.3916 175.878ZM24 173.357L18.8138 170.34C18.0106 171.72 17.791 173.364 18.2037 174.907C18.6164 176.45 19.6273 177.765 21.0125 178.56L24 173.357ZM33.3574 157.273L38.5436 160.29C39.3769 158.858 39.5807 157.145 39.1067 155.557C38.6326 153.969 37.5229 152.647 36.0407 151.906L33.3574 157.273ZM33.3516 157.27L28.1696 154.246C27.3335 155.678 27.1277 157.393 27.6011 158.982C28.0745 160.572 29.1848 161.895 30.6683 162.637L33.3516 157.27ZM36.1113 152.542L41.2933 155.566C41.3004 155.554 41.3074 155.542 41.3143 155.53L36.1113 152.542ZM36.7266 151.709L41.1206 155.795C43.0764 153.692 43.2672 150.497 41.5757 148.176L36.7266 151.709ZM31.793 136.538H25.793V136.538L31.793 136.538ZM44.8018 112.642L48.2967 117.519C49.8595 116.399 50.7909 114.598 50.8017 112.676L44.8018 112.642ZM44.8232 107.22L50.8232 107.22V107.22H44.8232ZM67.7334 82.0005L67.7335 76.0005H67.7334V82.0005ZM73 82.6431L71.5499 88.4652C73.3418 88.9115 75.2395 88.5078 76.6945 87.3707C78.1496 86.2336 79 84.4898 79 82.6431H73ZM73.8789 62.9751L69.6363 58.7325L69.6362 58.7326L73.8789 62.9751ZM57.415 164.411L58.7317 158.557C56.012 157.945 53.2292 159.287 52.0146 161.796L57.415 164.411ZM57.2686 164.691L52.0654 161.703C52.0602 161.712 52.055 161.721 52.0498 161.73L57.2686 164.691ZM56.9062 165.33L51.6875 162.369L51.6815 162.38L56.9062 165.33ZM54.5977 169.418L49.3729 166.469C48.1545 168.626 48.3882 171.311 49.961 173.226C51.5338 175.142 54.1221 175.893 56.4757 175.117L54.5977 169.418ZM54.6572 169.401L53.2167 163.576L53.2162 163.576L54.6572 169.401ZM60.1143 168.051L61.5548 173.876C63.4246 173.413 64.9587 172.081 65.679 170.295L60.1143 168.051ZM61.3018 165.106L66.8665 167.35C67.5591 165.632 67.4195 163.69 66.488 162.089C65.5566 160.488 63.9378 159.407 62.1021 159.16L61.3018 165.106ZM100.533 21.1069L100.534 15.1069H100.533V21.1069ZM103.533 33.3198L107.776 37.5626C108.901 36.4374 109.533 34.9112 109.533 33.3198H103.533ZM88.2656 48.5864H82.2656C82.2656 51.0132 83.7274 53.201 85.9694 54.1297C88.2114 55.0584 90.7921 54.5451 92.5081 52.8292L88.2656 48.5864ZM91.2656 21.1069V15.1069H91.2648L91.2656 21.1069ZM119.854 17.0005L124.096 21.2435C122.974 22.3655 121.17 22.42 119.982 21.3638L123.968 16.8794L127.954 12.3949C124.391 9.22828 118.98 9.38948 115.611 12.7574L119.854 17.0005ZM123.968 16.8794L119.982 21.3638L171.819 67.4429L175.806 62.9585L179.792 58.4741L127.954 12.395L123.968 16.8794ZM175.806 62.9585L171.819 67.4429C171.182 66.8766 170.813 66.062 170.813 65.2007H176.813H182.813C182.813 62.6255 181.71 60.179 179.792 58.474L175.806 62.9585ZM176.813 65.2007H170.813V137.187H176.813H182.813V65.2007H176.813ZM176.813 137.187L170.813 137.187C170.814 135.529 172.157 134.187 173.813 134.187L173.813 140.187L173.814 146.187C178.783 146.186 182.813 142.158 182.813 137.187L176.813 137.187ZM173.813 140.187V134.187H103.4V140.187V146.187H173.813V140.187ZM103.4 140.187L97.4576 139.36C96.9653 142.899 95.5418 146.095 93.3447 148.865L98.0459 152.593L102.747 156.321C106.204 151.962 108.54 146.783 109.343 141.014L103.4 140.187ZM98.0459 152.593L93.3446 148.865C90.5156 152.433 86.3307 155.38 81.1051 157.276L83.1514 162.917L85.1976 168.557C92.2021 166.016 98.3444 161.873 102.747 156.321L98.0459 152.593ZM83.1514 162.917L77.2122 163.769L77.7249 167.341L83.6641 166.489L89.6032 165.636L89.0905 162.064L83.1514 162.917ZM83.6641 166.489L82.7699 172.422L86.2172 172.941L87.1113 167.008L88.0055 161.075L84.5582 160.556L83.6641 166.489ZM87.1113 167.008L86.2184 172.941C83.3817 172.515 81.4314 169.87 81.8564 167.037L87.79 167.927L93.7236 168.817C94.2809 165.102 91.7228 161.635 88.0043 161.075L87.1113 167.008ZM87.79 167.927L81.8576 167.03C82.2848 164.206 84.9184 162.247 87.759 162.672L86.8721 168.606L85.9852 174.54C89.7068 175.096 93.162 172.53 93.7225 168.825L87.79 167.927ZM86.8721 168.606L87.7684 162.673L84.8338 162.23L83.9375 168.163L83.0412 174.095L85.9758 174.539L86.8721 168.606ZM83.9375 168.163L78.0272 169.196L78.6131 172.547L84.5234 171.513L90.4337 170.48L89.8478 167.129L83.9375 168.163ZM84.5234 171.513L78.6126 172.543C78.1194 169.714 80.0142 167.03 82.8327 166.537L83.8662 172.448L84.8998 178.358C88.5966 177.712 91.0806 174.191 90.4343 170.483L84.5234 171.513ZM83.8662 172.448L82.8375 166.537C85.6633 166.045 88.3491 167.936 88.8421 170.758L82.9316 171.791L77.0212 172.823C77.6677 176.523 81.1907 179.004 84.8949 178.359L83.8662 172.448ZM82.9316 171.791L88.8424 170.759L88.3355 167.854L82.4248 168.885L76.5141 169.916L77.0209 172.822L82.9316 171.791ZM82.4248 168.885L78.1429 164.682L74.7611 168.128L79.043 172.331L83.3249 176.534L86.7067 173.088L82.4248 168.885ZM79.043 172.331L74.7636 168.125C76.7707 166.083 80.0546 166.05 82.1018 168.057L77.9014 172.341L73.7009 176.626C76.3846 179.257 80.6905 179.214 83.3223 176.536L79.043 172.331ZM77.9014 172.341L82.1053 168.06C84.1484 170.067 84.1837 173.353 82.1722 175.402L77.8906 171.199L73.609 166.995C70.9726 169.681 71.0179 173.991 73.6974 176.622L77.9014 172.341ZM77.8906 171.199L82.1721 175.402L86.3762 171.12L82.0947 166.917L77.8132 162.713L73.6091 166.995L77.8906 171.199ZM82.0947 166.917L88.0337 166.063L87.5346 162.592L81.5957 163.446L75.6568 164.3L76.1558 167.77L82.0947 166.917ZM81.5957 163.446L79.7778 157.728C76.408 158.799 72.6877 159.431 68.7403 159.523L68.8799 165.521L69.0194 171.519C74.0645 171.402 78.9178 170.593 83.4136 169.164L81.5957 163.446ZM68.8799 165.521L68.7109 159.523C68.3915 159.532 68.0606 159.537 67.7226 159.537L67.7227 165.537L67.7227 171.537C68.1597 171.537 68.604 171.531 69.0488 171.519L68.8799 165.521ZM67.7227 165.537V159.537C67.3042 159.537 67.0493 159.536 66.8177 159.526L66.5645 165.521L66.3112 171.516C66.8442 171.538 67.3658 171.537 67.7227 171.537V165.537ZM66.5645 165.521L66.704 159.523C65.643 159.498 64.5916 159.432 63.552 159.33L62.9648 165.301L62.3777 171.272C63.7036 171.403 65.0537 171.487 66.4249 171.519L66.5645 165.521ZM62.9648 165.301L57.4007 163.056L56.0531 166.396L61.6172 168.641L67.1813 170.886L68.5289 167.546L62.9648 165.301ZM61.6172 168.641L56.6305 171.978L59.3874 176.098L64.374 172.761L69.3607 169.425L66.6038 165.304L61.6172 168.641ZM64.374 172.761L59.3873 176.098C57.7947 173.717 58.4293 170.495 60.8124 168.898L64.1523 173.882L67.4923 178.867C70.6161 176.774 71.4492 172.546 69.3608 169.425L64.374 172.761ZM64.1523 173.882L60.8158 168.896C63.1956 167.303 66.4189 167.937 68.0161 170.321L63.0312 173.661L58.0464 177C60.1399 180.125 64.3679 180.957 67.4888 178.869L64.1523 173.882ZM63.0312 173.661L68.0178 170.324L65.673 166.82L60.6865 170.157L55.7 173.494L58.0447 176.997L63.0312 173.661ZM60.6865 170.157L55.5773 167.011L53.4572 170.454L58.5664 173.6L63.6756 176.746L65.7957 173.303L60.6865 170.157ZM58.5664 173.6L53.4603 170.449C55.0017 167.951 58.2727 167.18 60.7661 168.717L57.6182 173.825L54.4702 178.933C57.6113 180.868 61.7317 179.896 63.6725 176.751L58.5664 173.6ZM57.6182 173.825L60.7723 168.721C63.263 170.26 64.0398 173.527 62.5029 176.023L57.3936 172.877L52.2842 169.732C50.3488 172.876 51.3268 176.99 54.4641 178.929L57.6182 173.825ZM57.3936 172.877L62.5023 176.024L64.3109 173.087L59.2021 169.941L54.0934 166.794L52.2848 169.731L57.3936 172.877ZM59.2021 169.941L57.7614 164.116L53.6042 165.145L55.0449 170.969L56.4856 176.794L60.6429 175.765L59.2021 169.941ZM55.0449 170.969L53.9222 165.075L53.8402 165.091L54.9629 170.985L56.0856 176.879L56.1676 176.863L55.0449 170.969ZM54.9629 170.985L54.1238 165.044C56.735 164.675 59.2454 166.327 59.891 168.938L54.0664 170.378L48.2418 171.819C49.088 175.241 52.3807 177.409 55.802 176.926L54.9629 170.985ZM54.0664 170.378L59.8926 168.945C59.91 169.016 59.9233 169.075 59.9325 169.118C59.9415 169.16 59.948 169.193 59.9506 169.207C59.9513 169.21 59.9519 169.213 59.9523 169.215C59.9526 169.217 59.9529 169.218 59.9529 169.218C59.9532 169.22 59.952 169.214 59.9509 169.208C59.9486 169.196 59.9422 169.164 59.9336 169.122L54.0605 170.35L48.1875 171.578C48.1799 171.541 48.1744 171.513 48.173 171.506C48.1724 171.503 48.1716 171.499 48.1724 171.503C48.1728 171.505 48.1743 171.513 48.1761 171.522C48.1821 171.553 48.2047 171.668 48.2403 171.812L54.0664 170.378ZM54.0605 170.35L48.8401 167.393L40.1761 182.686L45.3965 185.643L50.6169 188.601L59.281 173.308L54.0605 170.35ZM45.3965 185.643L48.3846 180.44L43.9891 177.916L41.001 183.119L38.0128 188.322L42.4083 190.846L45.3965 185.643ZM41.001 183.119H35.001V183.12H41.001H47.001V183.119H41.001ZM41.001 183.12L43.9882 177.916L42.7294 177.193L39.7422 182.397L36.7549 187.6L38.0137 188.323L41.001 183.12ZM39.7422 182.397H45.7422V182.396H39.7422H33.7422V182.397H39.7422ZM39.7422 182.396L42.7301 177.193L40.2047 175.743L37.2168 180.946L34.2289 186.149L36.7543 187.599L39.7422 182.396ZM37.2168 180.946L31.3959 179.491L31.395 179.494L37.2158 180.95L43.0367 182.405L43.0377 182.401L37.2168 180.946ZM37.2158 180.95L40.2139 175.752L38.9561 175.027L35.958 180.224L32.9599 185.421L34.2177 186.147L37.2158 180.95ZM35.958 180.224H41.958V180.223H35.958H29.958V180.224H35.958ZM35.958 180.223L38.9457 175.02L36.4252 173.573L33.4375 178.776L30.4498 183.979L32.9703 185.426L35.958 180.223ZM33.4375 178.776L28.0709 176.093L28.07 176.095L33.4365 178.778L38.8031 181.461L38.8041 181.459L33.4375 178.776ZM33.4365 178.778L36.4307 173.578L35.169 172.852L32.1748 178.051L29.1807 183.251L30.4424 183.977L33.4365 178.778ZM32.1748 178.051H38.1748V178.05H32.1748H26.1748V178.051H32.1748ZM32.1748 178.05L35.1623 172.847L32.6398 171.399L29.6523 176.602L26.6649 181.805L29.1873 183.254L32.1748 178.05ZM29.6523 176.602H23.6523V176.603H29.6523H35.6523V176.602H29.6523ZM29.6523 176.603L32.6392 171.399L31.3784 170.676L28.3916 175.879L25.4048 181.083L26.6655 181.807L29.6523 176.603ZM28.3916 175.879H34.3916V175.878H28.3916H22.3916V175.879H28.3916ZM28.3916 175.878L31.3791 170.675L26.9875 168.154L24 173.357L21.0125 178.56L25.4041 181.082L28.3916 175.878ZM24 173.357L29.1862 176.374L38.5436 160.29L33.3574 157.273L28.1713 154.256L18.8138 170.34L24 173.357ZM33.3574 157.273L36.0407 151.906L36.0348 151.903L33.3516 157.27L30.6683 162.637L30.6741 162.64L33.3574 157.273ZM33.3516 157.27L38.5335 160.294L41.2933 155.566L36.1113 152.542L30.9294 149.517L28.1696 154.246L33.3516 157.27ZM36.1113 152.542L41.3143 155.53C41.2506 155.641 41.1817 155.729 41.1206 155.795L36.7266 151.709L32.3325 147.624C31.8013 148.195 31.3192 148.838 30.9083 149.553L36.1113 152.542ZM36.7266 151.709L41.5757 148.176C39.1631 144.865 37.793 140.954 37.793 136.538L31.793 136.538L25.793 136.538C25.793 143.58 28.0208 149.951 31.8775 155.243L36.7266 151.709ZM31.793 136.538H37.793C37.793 129.145 41.6761 122.263 48.2967 117.519L44.8018 112.642L41.3068 107.765C32.0438 114.403 25.793 124.697 25.793 136.538H31.793ZM44.8018 112.642C50.8017 112.676 50.8017 112.676 50.8017 112.676C50.8017 112.676 50.8017 112.675 50.8017 112.675C50.8017 112.675 50.8017 112.675 50.8017 112.675C50.8017 112.674 50.8017 112.674 50.8017 112.673C50.8017 112.671 50.8017 112.668 50.8017 112.664C50.8018 112.657 50.8018 112.646 50.8019 112.632C50.8021 112.603 50.8023 112.561 50.8026 112.506C50.8032 112.398 50.804 112.241 50.805 112.048C50.8071 111.662 50.8097 111.131 50.8124 110.551C50.8178 109.394 50.8232 108.025 50.8232 107.22L44.8232 107.22L38.8232 107.22C38.8232 107.993 38.8179 109.335 38.8126 110.495C38.8099 111.073 38.8072 111.601 38.8052 111.985C38.8042 112.177 38.8034 112.333 38.8028 112.441C38.8025 112.495 38.8022 112.537 38.8021 112.565C38.802 112.58 38.802 112.59 38.8019 112.598C38.8019 112.601 38.8019 112.604 38.8019 112.606C38.8019 112.607 38.8019 112.607 38.8019 112.608C38.8019 112.608 38.8019 112.608 38.8019 112.608C38.8019 112.608 38.8019 112.609 38.8019 112.609C38.8019 112.609 38.8019 112.609 44.8018 112.642ZM44.8232 107.22H50.8232C50.8232 95.6121 58.8458 88.0005 67.7334 88.0005V82.0005V76.0005C51.315 76.0005 38.8232 89.9256 38.8232 107.22H44.8232ZM67.7334 82.0005L67.7333 88.0005C69.0553 88.0005 70.3315 88.1617 71.5499 88.4652L73 82.6431L74.4501 76.8209C72.2867 76.2821 70.0367 76.0005 67.7335 76.0005L67.7334 82.0005ZM73 82.6431H79V65.0962H73H67V82.6431H73ZM73 65.0962H79C79 65.8936 78.683 66.6563 78.1217 67.2176L73.8789 62.9751L69.6362 58.7326C67.9497 60.4191 67 62.7075 67 65.0962H73ZM73.8789 62.9751L78.1215 67.2177L124.096 21.2431L119.854 17.0005L115.611 12.7578L69.6363 58.7325L73.8789 62.9751ZM57.415 164.411L52.0146 161.796C52.0102 161.805 52.0127 161.8 52.0205 161.785C52.0285 161.769 52.0436 161.741 52.0654 161.703L57.2686 164.691L62.4717 167.679C62.6189 167.423 62.7341 167.193 62.8155 167.025L57.415 164.411ZM57.2686 164.691L52.0498 161.73L51.6875 162.369L56.9062 165.33L62.125 168.29L62.4873 167.651L57.2686 164.691ZM56.9062 165.33L51.6815 162.38L49.3729 166.469L54.5977 169.418L59.8224 172.368L62.131 168.28L56.9062 165.33ZM54.5977 169.418L56.4757 175.117C56.4362 175.13 56.292 175.177 56.0982 175.225L54.6572 169.401L53.2162 163.576C52.9819 163.634 52.7982 163.694 52.7196 163.72L54.5977 169.418ZM54.6572 169.401L56.0977 175.225L61.5548 173.876L60.1143 168.051L58.6738 162.227L53.2167 163.576L54.6572 169.401ZM60.1143 168.051L65.679 170.295L66.8665 167.35L61.3018 165.106L55.737 162.862L54.5495 165.808L60.1143 168.051ZM61.3018 165.106L62.1021 159.16C60.9497 159.004 59.8252 158.803 58.7317 158.557L57.415 164.411L56.0984 170.264C57.5402 170.589 59.0094 170.852 60.5015 171.052L61.3018 165.106ZM100.533 21.1069L100.532 27.1069C98.8768 27.1067 97.5332 25.7648 97.5332 24.1069H103.533H109.533C109.533 19.1357 105.503 15.1077 100.534 15.1069L100.533 21.1069ZM103.533 24.1069H97.5332V33.3198H103.533H109.533V24.1069H103.533ZM103.533 33.3198L99.2907 29.077L84.0231 44.3436L88.2656 48.5864L92.5081 52.8292L107.776 37.5626L103.533 33.3198ZM88.2656 48.5864H94.2656V24.1069H88.2656H82.2656V48.5864H88.2656ZM88.2656 24.1069H94.2656C94.2656 25.7647 92.922 27.1067 91.2664 27.1069L91.2656 21.1069L91.2648 15.1069C86.2959 15.1076 82.2656 19.1357 82.2656 24.1069H88.2656ZM91.2656 21.1069V27.1069H100.533V21.1069V15.1069H91.2656V21.1069Z" fill="white" mask="url(#path-1-outside-1_1347_5328)"/>
<path d="M73 66.9067H176.813V137.187C176.813 138.844 175.47 140.187 173.813 140.187H73V66.9067Z" fill="#F6F4F4"/>
<path d="M91.3174 94.333C91.3174 92.6762 92.6605 91.333 94.3174 91.333H115.797C117.454 91.333 118.797 92.6762 118.797 94.333V140.186H91.3174V94.333Z" fill="#8D8D8D"/>
<path d="M137.117 94.333C137.117 92.6762 138.46 91.333 140.117 91.333H158.544C160.201 91.333 161.544 92.6762 161.544 94.333V109.706C161.544 111.363 160.201 112.706 158.544 112.706H140.117C138.46 112.706 137.117 111.363 137.117 109.706V94.333Z" fill="#92D3F5"/>
<path d="M176.813 66.9065L73 66.9074V65.0959C73 64.3002 73.3161 63.5372 73.8787 62.9746L119.853 17.0002C120.976 15.877 122.78 15.824 123.967 16.8793L175.806 62.9582C176.447 63.5275 176.813 64.3435 176.813 65.2004V66.9065Z" fill="#EA5A47"/>
<path d="M103.533 33.3197L88.2661 48.5864V24.1064C88.2661 22.4496 89.6093 21.1064 91.2661 21.1064H100.533C102.19 21.1064 103.533 22.4496 103.533 24.1064V33.3197Z" fill="#EA5A47"/>
<path d="M81.5612 157.517C81.975 157.457 82.3605 157.723 82.4594 158.12L82.4762 158.201L83.6635 166.489L87.1114 167.009C87.5524 167.075 87.8559 167.486 87.7895 167.927C87.723 168.368 87.312 168.672 86.871 168.605L83.9378 168.164L84.5232 171.514C84.5997 171.953 84.3053 172.371 83.866 172.447C83.4268 172.524 83.0087 172.23 82.9319 171.791L82.4238 168.885L79.043 172.331C78.7305 172.649 78.2187 172.653 77.9004 172.341C77.5823 172.029 77.5777 171.517 77.8901 171.198L82.094 166.916L80.8764 158.431L80.8687 158.348C80.852 157.939 81.1476 157.576 81.5612 157.517Z" fill="#474747"/>
<path d="M63.2148 160.381C63.4055 160.019 63.8427 159.853 64.2305 160.009C64.644 160.176 64.8444 160.646 64.6777 161.06L61.6172 168.642L64.374 172.762C64.622 173.132 64.5228 173.635 64.1523 173.883C63.7818 174.131 63.2794 174.032 63.0312 173.661L60.6865 170.157L58.5664 173.601C58.3667 173.924 57.942 174.025 57.6182 173.825C57.2947 173.625 57.1943 173.202 57.3936 172.878L59.2021 169.941L55.0449 170.97L54.9629 170.985C54.5578 171.043 54.1667 170.785 54.0664 170.379C53.9597 169.946 54.2244 169.508 54.6572 169.401L60.1143 168.052L63.1797 160.455L63.2148 160.381Z" fill="#474747"/>
<path d="M103.651 136.537C103.651 142.664 101.595 148.119 98.0463 152.593C91.8598 160.395 81.1451 165.235 68.8798 165.521C68.4975 165.531 68.1098 165.537 67.7221 165.537C67.3345 165.537 66.9468 165.537 66.5645 165.521C54.2992 165.235 43.5845 160.395 37.398 152.598C37.398 152.598 37.398 152.598 37.398 152.593C33.8498 148.119 31.793 142.664 31.793 136.537C31.793 126.921 36.8596 118.333 44.8013 112.642C44.8013 112.642 44.8229 108.797 44.8229 107.22C44.8229 92.7685 55.0799 82 67.7329 82C80.3859 82 90.6376 92.7685 90.6376 107.22C90.6376 108.792 90.0722 112.491 90.0722 112.491C98.0247 118.182 103.667 126.921 103.667 136.537H103.651Z" fill="#4B9AE8"/>
<path d="M66.2131 143.401L66.2088 143.4C66.2088 143.4 66.1952 143.415 66.1854 143.417C64.5836 144.1 62.7869 144.713 60.8653 145.108C60.7752 145.129 60.682 145.145 60.5876 145.164C60.4042 145.201 60.2178 145.232 60.0302 145.267C59.7296 145.321 59.424 145.36 59.1154 145.394C58.5086 145.473 57.8864 145.524 57.2611 145.537C56.1007 145.575 54.9229 145.51 53.7321 145.31C52.629 145.131 51.5265 144.834 50.4265 144.399C49.0375 143.862 47.6461 143.105 46.2928 142.083C45.5798 141.552 44.8772 140.936 44.1815 140.246C42.7362 138.81 41.6057 137.286 40.7364 135.715L40.732 135.714C39.4514 133.39 38.7332 130.979 38.4223 128.582C38.4235 128.577 38.4204 128.572 38.4229 128.563C38.4118 128.504 38.4019 128.44 38.3963 128.378C38.3716 128.17 38.3469 127.962 38.3222 127.754C38.3191 127.748 38.3228 127.735 38.324 127.731C38.3049 127.52 38.2912 127.306 38.2733 127.09C38.2708 127.066 38.2659 127.051 38.2665 127.032C38.1223 124.706 38.3201 122.426 38.7062 120.321C38.7142 120.276 38.7253 120.237 38.7333 120.193C38.8659 119.516 39.0899 118.911 39.3818 118.364C39.3911 118.348 39.3948 118.335 39.404 118.319C40.4438 116.429 42.3578 115.372 44.5405 115.224C45.5757 115.151 46.667 115.289 47.7535 115.642C49.2338 116.12 50.7043 116.994 52.0069 118.291L53.3571 119.634L66.6738 132.868C70.2515 136.427 70.0301 141.753 66.2168 143.388L66.2131 143.401Z" fill="#276286"/>
<path d="M56.8838 101.487C59.3503 101.487 61.3497 99.488 61.3497 97.0215C61.3497 94.5551 59.3503 92.5557 56.8838 92.5557C54.4174 92.5557 52.418 94.5551 52.418 97.0215C52.418 99.488 54.4174 101.487 56.8838 101.487Z" fill="white"/>
<path d="M56.8161 99.7312C58.2947 99.7312 59.4934 98.5325 59.4934 97.0538C59.4934 95.5752 58.2947 94.3765 56.8161 94.3765C55.3374 94.3765 54.1387 95.5752 54.1387 97.0538C54.1387 98.5325 55.3374 99.7312 56.8161 99.7312Z" fill="black"/>
<path d="M77.9957 101.487C80.4621 101.487 82.4615 99.488 82.4615 97.0215C82.4615 94.5551 80.4621 92.5557 77.9957 92.5557C75.5292 92.5557 73.5298 94.5551 73.5298 97.0215C73.5298 99.488 75.5292 101.487 77.9957 101.487Z" fill="white"/>
<path d="M77.9274 99.7312C79.4061 99.7312 80.6048 98.5325 80.6048 97.0538C80.6048 95.5752 79.4061 94.3765 77.9274 94.3765C76.4487 94.3765 75.25 95.5752 75.25 97.0538C75.25 98.5325 76.4487 99.7312 77.9274 99.7312Z" fill="black"/>
<path d="M71.8412 102.369C71.6831 104.462 68.8531 107.535 66.6002 107.388C64.3473 107.241 62.0102 103.829 62.1704 101.735C62.3285 99.6416 63.9325 98.0404 67.2944 98.2599C70.6953 98.4832 72.0014 100.275 71.8412 102.369Z" fill="#EAC00F"/>
<path d="M52.4987 148.503C50.9635 147.621 50.4289 145.644 51.3104 144.109L67.8647 115.28C68.7462 113.745 70.723 113.21 72.2582 114.092C73.7934 114.974 74.328 116.95 73.4465 118.486L56.8922 147.314C56.0107 148.849 54.0338 149.384 52.4987 148.503Z" fill="#C1694F"/>
<path d="M39.687 171.327L39.2434 171.072C37.1972 169.897 36.4848 167.263 37.6602 165.219L48.0863 147.062C49.2612 145.016 51.8953 144.303 53.9397 145.479L54.3833 145.734C56.4295 146.909 57.1419 149.543 55.9664 151.587L45.5404 169.744C44.3672 171.789 41.7314 172.502 39.687 171.327Z" fill="#66757F"/>
<path d="M57.2687 164.691C59.3764 161.02 55.8985 155.068 50.5059 151.971C45.1133 148.874 38.2191 148.871 36.1114 152.542L24 173.356L45.3965 185.643L57.2687 164.691Z" fill="#FFCC4D"/>
<path d="M28.3913 175.879L39.2053 157.052L40.4665 157.776L29.6525 176.603L28.3913 175.879ZM32.1748 178.051L42.9884 159.223L44.2496 159.947L33.4365 178.777L32.1748 178.051ZM35.9584 180.224L46.768 161.394L48.0292 162.119L37.2161 180.949L35.9584 180.224ZM39.7419 182.397L50.5533 163.566L51.8145 164.291L41.0009 183.12L39.7419 182.397Z" fill="#FFAC33"/>
<path d="M36.3974 152.132C36.2997 152.267 36.1951 152.396 36.1114 152.542L33.3514 157.27L54.5761 169.458L57.2671 164.691C57.3507 164.546 57.4114 164.39 57.4769 164.238L36.3974 152.132Z" fill="#55ACEE"/>
<path d="M35.5267 155.657L35.666 154.576L55.7248 166.093L54.8532 166.755L35.5267 155.657Z" fill="#226699"/>
<path d="M61.5955 140.662L61.6001 140.662C61.6001 140.662 61.611 140.679 61.6206 140.683C63.1002 141.645 64.7868 142.572 66.6361 143.304C66.7224 143.341 66.8128 143.372 66.9036 143.409C67.0803 143.477 67.261 143.541 67.4422 143.609C67.7328 143.716 68.0311 143.808 68.3334 143.895C68.9254 144.081 69.5376 144.241 70.1597 144.364C71.3118 144.605 72.4992 144.746 73.7231 144.755C74.856 144.769 76.0087 144.667 77.1834 144.424C78.6643 144.132 80.1863 143.62 81.7165 142.836C82.5214 142.431 83.3309 141.939 84.1465 141.372C85.8411 140.191 87.2369 138.868 88.3802 137.452L88.3847 137.451C90.0705 135.355 91.2101 133.074 91.9405 130.735C91.94 130.73 91.9441 130.725 91.9432 130.716C91.9646 130.659 91.9857 130.597 92.0021 130.536C92.0633 130.332 92.1244 130.129 92.1855 129.926C92.1896 129.921 92.1882 129.907 92.1877 129.903C92.2438 129.695 92.2949 129.484 92.3506 129.272C92.3573 129.248 92.3649 129.234 92.3675 129.215C92.9191 126.917 93.1212 124.606 93.1045 122.436C93.1043 122.391 93.1 122.35 93.0998 122.304C93.086 121.605 92.9683 120.962 92.7728 120.364C92.7663 120.347 92.7649 120.333 92.7585 120.315C92.0514 118.246 90.3254 116.856 88.172 116.326C87.1513 116.071 86.0373 116.018 84.8908 116.179C83.3289 116.398 81.7076 117.012 80.1797 118.079L78.5961 119.184L62.9811 130.065C58.7852 132.992 58.0733 138.347 61.5941 140.649L61.5955 140.662Z" fill="#276286"/>
</svg>
