<svg width="200" height="200" viewBox="0 0 200 200" fill="none" xmlns="http://www.w3.org/2000/svg">
<mask id="path-1-outside-1_1347_15537" maskUnits="userSpaceOnUse" x="5.82031" y="8.3584" width="186" height="187" fill="black">
<rect fill="white" x="5.82031" y="8.3584" width="186" height="187"/>
<path d="M73.9434 15.4512C80.9626 14.5886 87.3895 19.8647 88.375 27.8848C88.4822 28.7576 88.4427 30.5401 88.332 30.6699C88.6185 30.8015 88.7559 30.8887 88.7559 30.8887C90.7805 31.9923 92.5539 33.4187 93.9785 35.0986L100.311 40.0566C102.956 42.1271 103.01 45.3527 100.616 46.5947C99.7025 47.0695 98.6292 47.4809 97.4492 47.7764C97.1186 49.4766 96.4829 51.082 95.582 52.5566C93.5843 55.8302 90.2978 58.4684 86.2295 60.1191C113.913 57.189 172.299 58.632 179.5 63.1582C188.501 68.8167 184.999 172.999 179.5 181.658C174.607 189.363 62.5119 193.68 38.1455 182.422C24.3876 180.507 14.2607 176.424 13.1807 169C10.1076 147.873 26.6035 106.455 65.5576 103.203C72.6143 84.8497 68.677 65.9193 72.5 63.1582C73.0841 62.7364 74.0054 62.3461 75.2197 61.9854C73.5364 61.9119 71.9114 61.6732 70.374 61.2812L68.9033 65.7109C68.6918 66.348 67.9944 66.6979 67.3574 66.4863L63.3184 65.1445C62.473 64.8635 62.0113 63.9432 62.292 63.0977C62.4324 62.6749 62.7328 62.3504 63.1055 62.1611C63.4774 61.9746 63.917 61.9309 64.3398 62.0713L66.9473 63.5811L67.9648 60.5127C65.6358 59.6123 63.58 58.3252 61.9268 56.6973C61.9267 56.6969 61.9269 56.6963 61.9268 56.6953C59.6513 54.454 58.1364 51.5661 57.7188 48.167C57.0632 42.8319 59.2867 37.7187 63.3096 34.0186C63.3096 34.0186 63.1385 32.5759 63.0186 31.5771C62.3758 31.5136 61.689 31.326 61.1016 31.0459C61.0984 31.0445 61.0949 31.0434 61.0918 31.042L61.0928 31.041C60.3484 30.6843 59.7642 30.1842 59.6348 29.6172C59.3366 28.31 61.3704 26.2647 62.9043 25.915C62.9833 25.8969 63.0622 25.8823 63.1406 25.8691C64.2918 20.2884 68.4973 16.1204 73.9434 15.4512Z"/>
</mask>
<path d="M73.9434 15.4512C80.9626 14.5886 87.3895 19.8647 88.375 27.8848C88.4822 28.7576 88.4427 30.5401 88.332 30.6699C88.6185 30.8015 88.7559 30.8887 88.7559 30.8887C90.7805 31.9923 92.5539 33.4187 93.9785 35.0986L100.311 40.0566C102.956 42.1271 103.01 45.3527 100.616 46.5947C99.7025 47.0695 98.6292 47.4809 97.4492 47.7764C97.1186 49.4766 96.4829 51.082 95.582 52.5566C93.5843 55.8302 90.2978 58.4684 86.2295 60.1191C113.913 57.189 172.299 58.632 179.5 63.1582C188.501 68.8167 184.999 172.999 179.5 181.658C174.607 189.363 62.5119 193.68 38.1455 182.422C24.3876 180.507 14.2607 176.424 13.1807 169C10.1076 147.873 26.6035 106.455 65.5576 103.203C72.6143 84.8497 68.677 65.9193 72.5 63.1582C73.0841 62.7364 74.0054 62.3461 75.2197 61.9854C73.5364 61.9119 71.9114 61.6732 70.374 61.2812L68.9033 65.7109C68.6918 66.348 67.9944 66.6979 67.3574 66.4863L63.3184 65.1445C62.473 64.8635 62.0113 63.9432 62.292 63.0977C62.4324 62.6749 62.7328 62.3504 63.1055 62.1611C63.4774 61.9746 63.917 61.9309 64.3398 62.0713L66.9473 63.5811L67.9648 60.5127C65.6358 59.6123 63.58 58.3252 61.9268 56.6973C61.9267 56.6969 61.9269 56.6963 61.9268 56.6953C59.6513 54.454 58.1364 51.5661 57.7188 48.167C57.0632 42.8319 59.2867 37.7187 63.3096 34.0186C63.3096 34.0186 63.1385 32.5759 63.0186 31.5771C62.3758 31.5136 61.689 31.326 61.1016 31.0459C61.0984 31.0445 61.0949 31.0434 61.0918 31.042L61.0928 31.041C60.3484 30.6843 59.7642 30.1842 59.6348 29.6172C59.3366 28.31 61.3704 26.2647 62.9043 25.915C62.9833 25.8969 63.0622 25.8823 63.1406 25.8691C64.2918 20.2884 68.4973 16.1204 73.9434 15.4512Z" fill="#040000"/>
<path d="M73.9434 15.4512L73.2115 9.49597V9.49597L73.9434 15.4512ZM88.375 27.8848L94.3302 27.1531L94.3302 27.153L88.375 27.8848ZM88.332 30.6699L83.766 26.7775C82.5466 28.2079 82.068 30.127 82.4729 31.9625C82.8778 33.7979 84.1195 35.3376 85.8275 36.1222L88.332 30.6699ZM88.7559 30.8887L85.5411 35.9548C85.6532 36.0259 85.7676 36.0933 85.8841 36.1568L88.7559 30.8887ZM93.9785 35.0986L89.4025 38.9793C89.6655 39.2895 89.9593 39.5721 90.2795 39.8228L93.9785 35.0986ZM100.311 40.0566L96.6115 44.7808L96.6125 44.7815L100.311 40.0566ZM100.616 46.5947L97.8529 41.2689L97.8495 41.2707L100.616 46.5947ZM97.4492 47.7764L95.9918 41.9561C93.7321 42.5219 92.0042 44.3445 91.5595 46.6311L97.4492 47.7764ZM95.582 52.5566L90.4619 49.4286L90.4604 49.4311L95.582 52.5566ZM86.2295 60.1191L83.9735 54.5594C81.2028 55.6837 79.6827 58.6766 80.4093 61.5772C81.136 64.4777 83.8874 66.4006 86.861 66.0858L86.2295 60.1191ZM179.5 63.1582L182.693 58.0785L182.693 58.0783L179.5 63.1582ZM179.5 181.658L184.565 184.875L184.565 184.875L179.5 181.658ZM38.1455 182.422L40.6622 176.975C40.1265 176.728 39.5572 176.561 38.9727 176.479L38.1455 182.422ZM13.1807 169L7.24315 169.864L7.24316 169.864L13.1807 169ZM65.5576 103.203L66.0568 109.182C68.3502 108.991 70.332 107.504 71.1579 105.356L65.5576 103.203ZM72.5 63.1582L68.9871 58.2941L68.987 58.2941L72.5 63.1582ZM75.2197 61.9854L76.9282 67.737C79.7376 66.9024 81.5331 64.1605 81.1747 61.2517C80.8164 58.343 78.4091 56.1188 75.4812 55.9911L75.2197 61.9854ZM70.374 61.2812L71.8561 55.4672C68.805 54.6894 65.6718 56.4024 64.6797 59.3907L70.374 61.2812ZM68.9033 65.7109L74.5976 67.6018L74.5977 67.6015L68.9033 65.7109ZM67.3574 66.4863L65.4658 72.1804L65.4665 72.1806L67.3574 66.4863ZM63.3184 65.1445L61.4259 70.8382L61.4268 70.8386L63.3184 65.1445ZM62.292 63.0977L56.5977 61.2068L56.5975 61.2075L62.292 63.0977ZM63.1055 62.1611L60.4161 56.7976C60.407 56.8022 60.3979 56.8068 60.3888 56.8114L63.1055 62.1611ZM64.3398 62.0713L67.3464 56.8789C66.9926 56.674 66.6187 56.5059 66.2307 56.377L64.3398 62.0713ZM66.9473 63.5811L63.9407 68.7734C65.5029 69.678 67.3893 69.8311 69.077 69.1904C70.7646 68.5496 72.074 67.1831 72.6423 65.4697L66.9473 63.5811ZM67.9648 60.5127L73.6598 62.4014C74.6672 59.3639 73.1133 56.0704 70.1285 54.9164L67.9648 60.5127ZM61.9268 56.6973L55.9716 57.4291C56.1367 58.7733 56.7519 60.0221 57.7169 60.9724L61.9268 56.6973ZM61.9268 56.6953L67.882 55.9635C67.7168 54.6195 67.1019 53.3709 66.1372 52.4207L61.9268 56.6953ZM57.7188 48.167L51.7635 48.8987L51.7635 48.8988L57.7188 48.167ZM63.3096 34.0186L67.3714 38.4346C68.7892 37.1306 69.4947 35.225 69.2678 33.3121L63.3096 34.0186ZM63.0186 31.5771L68.9757 30.8616C68.6402 28.0682 66.4087 25.8831 63.6089 25.6063L63.0186 31.5771ZM61.1016 31.0459L63.6838 25.63C63.6501 25.6139 63.6162 25.5981 63.5822 25.5827L61.1016 31.0459ZM61.0918 31.042L56.8492 26.7994C55.4585 28.19 54.8377 30.1739 55.1875 32.1092C55.5373 34.0445 56.8133 35.6855 58.6028 36.5014L61.0918 31.042ZM61.0928 31.041L65.3354 35.2837C66.7117 33.9073 67.3349 31.9489 67.007 30.0303C66.6791 28.1116 65.4409 26.4713 63.6856 25.6302L61.0928 31.041ZM59.6348 29.6172L53.785 30.9516L53.7853 30.9528L59.6348 29.6172ZM62.9043 25.915L64.2377 31.765L64.2479 31.7627L62.9043 25.915ZM63.1406 25.8691L64.1361 31.786C66.578 31.3752 68.5166 29.5064 69.0169 27.0813L63.1406 25.8691ZM73.9434 15.4512L74.6752 21.4064C77.9567 21.0031 81.781 23.418 82.4198 28.6166L88.375 27.8848L94.3302 27.153C92.9979 16.3115 83.9686 8.17407 73.2115 9.49597L73.9434 15.4512ZM88.375 27.8848L82.4198 28.6164C82.4161 28.5864 82.4257 28.6648 82.4324 28.8681C82.4384 29.0503 82.4397 29.2565 82.4362 29.4476C82.4345 29.5413 82.4319 29.6215 82.429 29.6845C82.4259 29.7509 82.4234 29.7794 82.4239 29.7742C82.4242 29.7706 82.4263 29.7461 82.4314 29.7049C82.436 29.668 82.4468 29.5854 82.4674 29.4723C82.4841 29.3808 82.529 29.1461 82.6226 28.8451C82.6702 28.692 82.7549 28.4418 82.892 28.1439C83.0123 27.8826 83.2787 27.3491 83.766 26.7775L88.332 30.6699L92.8981 34.5624C93.7466 33.567 94.0399 32.5416 94.0813 32.4085C94.1876 32.0668 94.2445 31.7796 94.2727 31.6252C94.3318 31.3013 94.3613 31.0106 94.3772 30.8312C94.4115 30.4429 94.4277 30.0295 94.4343 29.6643C94.4465 28.9862 94.4342 27.9993 94.3302 27.1531L88.375 27.8848ZM88.332 30.6699L85.8275 36.1222C85.8446 36.13 85.8281 36.1232 85.7797 36.0968C85.7555 36.0836 85.7234 36.0656 85.6835 36.0421C85.6636 36.0303 85.6417 36.0172 85.618 36.0027C85.6061 35.9955 85.5938 35.9878 85.581 35.9799C85.5746 35.9759 85.5681 35.9718 85.5614 35.9676C85.5581 35.9655 85.5547 35.9634 85.5514 35.9613C85.5497 35.9602 85.548 35.9591 85.5463 35.958C85.5454 35.9575 85.5446 35.957 85.5437 35.9564C85.5433 35.9562 85.5426 35.9557 85.5424 35.9556C85.5418 35.9552 85.5411 35.9548 88.7559 30.8887C91.9706 25.8226 91.9699 25.8221 91.9693 25.8217C91.9691 25.8216 91.9684 25.8212 91.968 25.8209C91.9671 25.8204 91.9663 25.8198 91.9654 25.8193C91.9637 25.8182 91.9619 25.8171 91.9602 25.8159C91.9566 25.8137 91.9531 25.8115 91.9495 25.8092C91.9423 25.8047 91.935 25.8001 91.9275 25.7955C91.9125 25.7861 91.897 25.7765 91.8808 25.7666C91.8484 25.7468 91.8136 25.7259 91.7763 25.7039C91.7018 25.66 91.6174 25.6119 91.5231 25.5605C91.3343 25.4576 91.106 25.3414 90.8366 25.2177L88.332 30.6699ZM88.7559 30.8887L85.8841 36.1568C87.2969 36.9269 88.4821 37.894 89.4025 38.9793L93.9785 35.0986L98.5546 31.2179C96.6257 28.9434 94.2641 27.0577 91.6276 25.6206L88.7559 30.8887ZM93.9785 35.0986L90.2795 39.8228L96.6115 44.7808L100.311 40.0566L104.01 35.3325L97.6775 30.3745L93.9785 35.0986ZM100.311 40.0566L96.6125 44.7815C96.7899 44.9203 96.388 44.6941 96.3572 43.8573C96.3416 43.4339 96.4353 42.8999 96.7371 42.3702C97.0461 41.8279 97.4736 41.4657 97.8529 41.2689L100.616 46.5947L103.38 51.9205C106.718 50.1886 108.476 46.8607 108.349 43.4154C108.228 40.1376 106.477 37.2634 104.009 35.3318L100.311 40.0566ZM100.616 46.5947L97.8495 41.2707C97.3721 41.5188 96.7407 41.7685 95.9918 41.9561L97.4492 47.7764L98.9066 53.5967C100.518 53.1933 102.033 52.6203 103.383 51.9188L100.616 46.5947ZM97.4492 47.7764L91.5595 46.6311C91.3704 47.6037 91.0044 48.5406 90.4619 49.4286L95.582 52.5566L100.702 55.6847C101.961 53.6234 102.867 51.3495 103.339 48.9216L97.4492 47.7764ZM95.582 52.5566L90.4604 49.4311C89.2384 51.4334 87.0541 53.3094 83.9735 54.5594L86.2295 60.1191L88.4854 65.6789C93.5416 63.6273 97.9301 60.2269 100.704 55.6822L95.582 52.5566ZM86.2295 60.1191L86.861 66.0858C100.32 64.6612 121.536 64.2833 140.368 64.8399C149.763 65.1175 158.439 65.6243 165.155 66.329C168.522 66.6823 171.3 67.0755 173.386 67.4919C175.753 67.9643 176.445 68.3246 176.307 68.2381L179.5 63.1582L182.693 58.0783C180.755 56.8602 178.047 56.1854 175.734 55.7239C173.141 55.2065 169.96 54.7673 166.408 54.3946C159.286 53.6473 150.286 53.1278 140.723 52.8451C121.641 52.2812 99.822 52.6469 85.5979 54.1525L86.2295 60.1191ZM179.5 63.1582L176.307 68.2379C175.283 67.5945 175.195 66.9217 175.541 67.7171C175.794 68.2996 176.116 69.2999 176.452 70.8174C177.119 73.8275 177.672 78.0778 178.09 83.3194C178.92 93.7514 179.156 107.365 178.938 121.189C178.721 134.995 178.054 148.861 177.108 159.766C176.634 165.229 176.097 169.864 175.527 173.342C175.241 175.086 174.961 176.45 174.702 177.439C174.399 178.593 174.249 178.735 174.435 178.442L179.5 181.658L184.565 184.875C185.439 183.499 185.96 181.812 186.308 180.486C186.7 178.995 187.05 177.227 187.369 175.283C188.008 171.384 188.576 166.415 189.063 160.804C190.039 149.563 190.716 135.407 190.937 121.377C191.157 107.366 190.924 93.3315 190.052 82.3673C189.617 76.9107 189.011 72.0258 188.168 68.2215C187.749 66.3318 187.229 64.5051 186.547 62.9356C185.958 61.579 184.842 59.4293 182.693 58.0785L179.5 63.1582ZM179.5 181.658L174.435 178.442C174.917 177.683 175.429 177.362 175.442 177.353C175.505 177.312 175.418 177.377 175.085 177.514C174.417 177.789 173.304 178.139 171.661 178.521C168.407 179.278 163.793 180.004 158.1 180.649C146.758 181.935 131.72 182.837 116.005 183.152C100.294 183.467 84.0446 183.192 70.2755 182.153C56.1733 181.088 45.6392 179.275 40.6622 176.975L38.1455 182.422L35.6289 187.869C42.8351 191.198 55.4503 193.067 69.3719 194.119C83.6266 195.195 100.275 195.47 116.246 195.15C132.212 194.83 147.638 193.912 159.452 192.573C165.336 191.906 170.472 191.118 174.381 190.209C176.319 189.758 178.139 189.235 179.662 188.607C180.426 188.292 181.249 187.896 182.024 187.387C182.75 186.911 183.777 186.115 184.565 184.875L179.5 181.658ZM38.1455 182.422L38.9727 176.479C32.3605 175.559 27.1279 174.174 23.587 172.408C19.9937 170.615 19.2491 169.037 19.1182 168.136L13.1807 169L7.24316 169.864C8.19226 176.388 13.0512 180.562 18.2307 183.146C23.4628 185.756 30.1726 187.37 37.3183 188.365L38.1455 182.422ZM13.1807 169L19.1182 168.136C17.8267 159.257 20.6794 145.06 28.6571 132.641C36.5024 120.428 48.8479 110.619 66.0568 109.182L65.5576 103.203L65.0584 97.2239C43.3133 99.0394 27.9337 111.565 18.5608 126.156C9.32029 140.54 5.4616 157.616 7.24315 169.864L13.1807 169ZM65.5576 103.203L71.1579 105.356C75.0458 95.2445 75.8523 85.1226 76.2336 77.6389C76.4341 73.7055 76.5058 70.8792 76.7563 68.6775C76.8782 67.6063 77.0087 67.0474 77.0868 66.8126C77.1931 66.4931 77.0219 67.2936 76.013 68.0223L72.5 63.1582L68.987 58.2941C67.0224 59.7131 66.1379 61.7092 65.7002 63.0251C65.2343 64.4257 64.9901 65.9422 64.8332 67.3208C64.5262 70.0186 64.4244 73.5897 64.2492 77.0282C63.8792 84.2884 63.1261 92.8083 59.9573 101.05L65.5576 103.203ZM72.5 63.1582L76.0129 68.0223C75.8341 68.1514 75.7865 68.1498 75.9905 68.0622C76.1757 67.9827 76.4788 67.8705 76.9282 67.737L75.2197 61.9854L73.5112 56.2337C72.1119 56.6494 70.4062 57.2692 68.9871 58.2941L72.5 63.1582ZM75.2197 61.9854L75.4812 55.9911C74.1945 55.9349 72.9793 55.7535 71.8561 55.4672L70.374 61.2812L68.8919 67.0953C70.8436 67.5928 72.8783 67.8889 74.9583 67.9797L75.2197 61.9854ZM70.374 61.2812L64.6797 59.3907L63.209 63.8204L68.9033 65.7109L74.5977 67.6015L76.0684 63.1718L70.374 61.2812ZM68.9033 65.7109L63.2091 63.82C64.0412 61.3141 66.7386 59.9587 69.2483 60.7921L67.3574 66.4863L65.4665 72.1806C69.2503 73.437 73.3423 71.3818 74.5976 67.6018L68.9033 65.7109ZM67.3574 66.4863L69.249 60.7923L65.2099 59.4505L63.3184 65.1445L61.4268 70.8386L65.4658 72.1804L67.3574 66.4863ZM63.3184 65.1445L65.2109 59.4508C67.5078 60.2143 68.7499 62.6879 67.9865 64.9878L62.292 63.0977L56.5975 61.2075C55.2728 65.1984 57.4382 69.5128 61.4259 70.8382L63.3184 65.1445ZM62.292 63.0977L67.9862 64.9886C67.5942 66.169 66.759 67.0351 65.8221 67.5109L63.1055 62.1611L60.3888 56.8114C58.7066 57.6656 57.2705 59.1808 56.5977 61.2068L62.292 63.0977ZM63.1055 62.1611L65.7948 67.5246C64.8034 68.0218 63.5979 68.1471 62.4489 67.7655L64.3398 62.0713L66.2307 56.377C64.236 55.7146 62.1514 55.9275 60.4161 56.7976L63.1055 62.1611ZM64.3398 62.0713L61.3333 67.2637L63.9407 68.7734L66.9473 63.5811L69.9538 58.3887L67.3464 56.8789L64.3398 62.0713ZM66.9473 63.5811L72.6423 65.4697L73.6598 62.4014L67.9648 60.5127L62.2699 58.624L61.2523 61.6924L66.9473 63.5811ZM67.9648 60.5127L70.1285 54.9164C68.48 54.279 67.1438 53.414 66.1367 52.4221L61.9268 56.6973L57.7169 60.9724C60.0161 63.2365 62.7917 64.9455 65.8012 66.109L67.9648 60.5127ZM61.9268 56.6973L67.882 55.9655C67.8925 56.0509 67.9004 56.1307 67.9065 56.2041C67.9125 56.2775 67.9168 56.3458 67.9198 56.4081C67.9228 56.4705 67.9246 56.5282 67.9256 56.5805C67.9266 56.6329 67.9269 56.6811 67.9267 56.7245C67.9265 56.7679 67.9258 56.8076 67.925 56.843C67.9241 56.8784 67.923 56.9106 67.9219 56.9389C67.9207 56.9672 67.9195 56.9926 67.9183 57.0146C67.9172 57.0366 67.916 57.056 67.915 57.0724C67.914 57.0887 67.913 57.1029 67.9122 57.1142C67.9114 57.1255 67.9107 57.135 67.9102 57.1418C67.9097 57.1486 67.9093 57.154 67.9091 57.1567C67.9089 57.159 67.9087 57.1615 67.9089 57.1601C67.9089 57.1598 67.9091 57.1569 67.9094 57.1533C67.9097 57.1495 67.9101 57.1439 67.9106 57.1372C67.9116 57.1237 67.913 57.1042 67.9145 57.0806C67.9175 57.033 67.9212 56.9675 67.9237 56.8896C67.9262 56.8113 67.9276 56.722 67.9264 56.6234C67.9252 56.5248 67.9215 56.4194 67.9143 56.308C67.907 56.1966 67.8965 56.0817 67.882 55.9635L61.9268 56.6953L55.9716 57.4271C55.9571 57.3092 55.9465 57.1945 55.9393 57.0833C55.9321 56.9722 55.9284 56.867 55.9272 56.7686C55.9261 56.6702 55.9274 56.5811 55.9299 56.5029C55.9324 56.4252 55.936 56.3599 55.9391 56.3125C55.9406 56.289 55.942 56.2695 55.943 56.2561C55.9435 56.2494 55.9439 56.2439 55.9442 56.2401C55.9444 56.2365 55.9447 56.2337 55.9447 56.2334C55.9448 56.2321 55.9446 56.2346 55.9444 56.2369C55.9442 56.2397 55.9438 56.2451 55.9433 56.2519C55.9428 56.2587 55.9421 56.2682 55.9413 56.2796C55.9405 56.291 55.9395 56.3052 55.9385 56.3215C55.9375 56.3379 55.9363 56.3574 55.9352 56.3794C55.934 56.4014 55.9328 56.4269 55.9316 56.4552C55.9305 56.4836 55.9294 56.5157 55.9285 56.5512C55.9277 56.5866 55.927 56.6263 55.9268 56.6698C55.9266 56.7132 55.9269 56.7614 55.9279 56.8138C55.9289 56.8662 55.9307 56.9239 55.9337 56.9863C55.9367 57.0486 55.941 57.1169 55.9471 57.1903C55.9531 57.2638 55.9611 57.3436 55.9716 57.4291L61.9268 56.6973ZM61.9268 56.6953L66.1372 52.4207C64.7834 51.0872 63.9193 49.4315 63.674 47.4352L57.7188 48.167L51.7635 48.8988C52.3536 53.7006 54.5192 57.8208 57.7163 60.9699L61.9268 56.6953ZM57.7188 48.167L63.674 47.4353C63.2894 44.3057 64.5479 41.0316 67.3714 38.4346L63.3096 34.0186L59.2478 29.6025C54.0256 34.4057 50.837 41.358 51.7635 48.8987L57.7188 48.167ZM63.3096 34.0186C69.2678 33.3121 69.2678 33.3121 69.2678 33.3121C69.2678 33.3121 69.2678 33.312 69.2678 33.312C69.2678 33.312 69.2678 33.3119 69.2678 33.3118C69.2678 33.3116 69.2677 33.3113 69.2677 33.311C69.2676 33.3103 69.2675 33.3092 69.2673 33.3078C69.267 33.305 69.2665 33.3009 69.2659 33.2954C69.2646 33.2846 69.2627 33.2685 69.2602 33.2477C69.2553 33.2062 69.2481 33.1457 69.2391 33.0701C69.2212 32.9189 69.196 32.7069 69.167 32.4636C69.1092 31.9775 69.0361 31.3645 68.9757 30.8616L63.0186 31.5771L57.0614 32.2927C57.1209 32.7886 57.1934 33.3962 57.2511 33.8812C57.2799 34.1234 57.3049 34.3344 57.3228 34.4849C57.3317 34.5602 57.3389 34.6203 57.3438 34.6615C57.3462 34.6821 57.3481 34.698 57.3494 34.7088C57.35 34.7141 57.3505 34.7182 57.3508 34.721C57.351 34.7223 57.3511 34.7233 57.3512 34.724C57.3512 34.7244 57.3513 34.7246 57.3513 34.7248C57.3513 34.7249 57.3513 34.7249 57.3513 34.725C57.3513 34.725 57.3513 34.725 57.3513 34.725C57.3513 34.725 57.3513 34.725 63.3096 34.0186ZM63.0186 31.5771L63.6089 25.6063C63.6306 25.6084 63.641 25.6104 63.6418 25.6105C63.6428 25.6107 63.6402 25.6102 63.6361 25.6091C63.6319 25.6079 63.6315 25.6076 63.6363 25.6094C63.6408 25.611 63.6567 25.6171 63.6838 25.63L61.1016 31.0459L58.5193 36.4618C59.7507 37.0489 61.1136 37.4181 62.4282 37.548L63.0186 31.5771ZM61.1016 31.0459L63.5822 25.5827C63.5178 25.5535 63.4606 25.5289 63.4131 25.509C63.3656 25.4892 63.3248 25.4729 63.2937 25.4606C63.2627 25.4485 63.2376 25.4389 63.2226 25.4332C63.2149 25.4303 63.2087 25.4279 63.2049 25.4265C63.203 25.4258 63.2014 25.4252 63.2005 25.4249C63.2 25.4247 63.1996 25.4245 63.1993 25.4244C63.1992 25.4244 63.1991 25.4244 63.1991 25.4243C63.199 25.4243 63.199 25.4243 63.199 25.4243C63.199 25.4243 63.199 25.4243 63.199 25.4243C63.1985 25.4241 63.2013 25.4252 63.2047 25.4265C63.2085 25.4279 63.2146 25.4302 63.2223 25.4331C63.2372 25.4388 63.2622 25.4483 63.293 25.4604C63.3241 25.4727 63.3647 25.489 63.4121 25.5088C63.4595 25.5287 63.5166 25.5533 63.5808 25.5826L61.0918 31.042L58.6028 36.5014C58.6678 36.531 58.7256 36.556 58.7739 36.5762C58.8221 36.5964 58.8635 36.613 58.8954 36.6256C58.927 36.6381 58.9528 36.6479 58.9686 36.6539C58.9766 36.6569 58.9832 36.6594 58.9874 36.661C58.9895 36.6618 58.9912 36.6624 58.9924 36.6628C58.9934 36.6632 58.9943 36.6636 58.9944 36.6636C58.9953 36.6639 58.9927 36.663 58.9897 36.6618C58.9863 36.6606 58.9805 36.6584 58.9732 36.6556C58.959 36.6502 58.9347 36.641 58.9046 36.6292C58.8743 36.6172 58.8344 36.6013 58.7877 36.5818C58.7409 36.5622 58.6845 36.538 58.621 36.5091L61.1016 31.0459ZM61.0918 31.042L65.3344 35.2846L65.3354 35.2837L61.0928 31.041L56.8501 26.7984L56.8492 26.7994L61.0918 31.042ZM61.0928 31.041L63.6856 25.6302C63.71 25.6419 63.9385 25.7497 64.2475 26.0408C64.5332 26.3099 65.1995 27.0347 65.4842 28.2816L59.6348 29.6172L53.7853 30.9528C54.1995 32.7667 55.2226 34.025 56.0188 34.7751C56.8384 35.5473 57.7312 36.0835 58.4999 36.4519L61.0928 31.041ZM59.6348 29.6172L65.4845 28.2828C65.8093 29.7065 65.3962 30.7328 65.269 31.0134C65.1831 31.2029 65.1048 31.3242 65.065 31.3816C65.023 31.4422 64.9964 31.4712 64.9921 31.4759C64.9868 31.4816 64.9885 31.4793 64.9944 31.4743C65.0005 31.4691 64.9966 31.4733 64.9763 31.4865C64.9578 31.4986 64.9004 31.5346 64.7985 31.581C64.7014 31.6253 64.5127 31.7023 64.2377 31.765L62.9043 25.915L61.5709 20.0651C59.2338 20.5978 57.3383 22.0753 56.1729 23.3381C55.5282 24.0369 54.8414 24.9517 54.3393 26.0594C53.8667 27.1021 53.3112 28.8743 53.785 30.9516L59.6348 29.6172ZM62.9043 25.915L64.2479 31.7627C64.204 31.7727 64.171 31.7794 64.1527 31.7829C64.1348 31.7863 64.1272 31.7875 64.1361 31.786L63.1406 25.8691L62.1452 19.9523C62.0099 19.9751 61.802 20.012 61.5607 20.0674L62.9043 25.915ZM63.1406 25.8691L69.0169 27.0813C69.7014 23.763 72.0362 21.7307 74.6752 21.4064L73.9434 15.4512L73.2115 9.49597C64.9584 10.5102 58.8823 16.8138 57.2643 24.657L63.1406 25.8691Z" fill="white" mask="url(#path-1-outside-1_1347_15537)"/>
<path d="M13.1809 169C9.98086 147 28 103 70.4998 103L120.18 177.5C99.0138 183.667 16.3809 191 13.1809 169Z" fill="#7AB9F8"/>
<path d="M72.5006 63.1587C81.5006 56.6587 170.499 57.5001 179.501 63.1587C188.502 68.8172 184.999 173 179.501 181.659C174.002 190.317 33.0993 194.7 33.4993 177.5C31.9984 165.342 38.0006 134 61.4997 111.5C73.9997 91.0001 68.0946 66.3407 72.5006 63.1587Z" fill="#9D9D9D"/>
<path d="M138.5 58.5C151 59 170 59.5 182.747 63.5411C186.425 69.17 184.994 172.809 182.747 181.422C173.5 187.5 145 189 119.502 189C118.888 176.905 124.928 134.012 134.531 111.63C139.638 91.2371 136.7 61.6654 138.5 58.5Z" fill="#6D6D6D"/>
<path d="M100.312 40.0572L82.2126 25.8839C82.2126 25.8839 75.0012 37.6496 84.508 45.093C90.1489 49.5088 96.7819 48.5877 100.617 46.5946C103.011 45.3526 102.957 42.1277 100.312 40.0572Z" fill="#21587B"/>
<path d="M82.8439 52.3792V65.7779C82.8439 66.4491 82.2926 67.0004 81.6214 67.0004H77.3656C76.4744 67.0004 75.7461 66.272 75.7461 65.3809C75.7461 64.9353 75.9289 64.5326 76.2231 64.2355C76.5173 63.9413 76.92 63.7614 77.3656 63.7614L80.3161 64.3726V52.3792C80.3161 51.708 80.8674 51.1567 81.5386 51.1567H81.6214C82.2926 51.1567 82.8439 51.708 82.8439 52.3792Z" fill="#404040"/>
<path d="M73.1262 52.9957L68.9036 65.7116C68.6921 66.3486 67.9952 66.6981 67.3582 66.4865L63.3192 65.1453C62.4735 64.8645 62.0118 63.9437 62.2926 63.098C62.4331 62.6751 62.7335 62.3505 63.1063 62.1613C63.4782 61.9748 63.9171 61.9309 64.34 62.0714L66.9475 63.5813L70.7273 52.1991C70.9388 51.562 71.6357 51.2126 72.2727 51.4241L72.3513 51.4502C72.9883 51.6618 73.3378 52.3587 73.1262 52.9957Z" fill="#404040"/>
<path d="M97.6007 43.2638C98.0184 46.6629 97.248 49.831 95.5829 52.5565C92.6821 57.3102 87.0643 60.7258 80.28 61.7206C80.0681 61.7524 79.853 61.7817 79.6375 61.8082C79.422 61.8347 79.2066 61.8611 78.9929 61.8788C72.1668 62.5565 65.892 60.6023 61.9273 56.6981C61.9273 56.6981 61.9273 56.6981 61.9269 56.6953C59.6515 54.454 58.1369 51.5667 57.7192 48.1676C57.0636 42.8322 59.287 37.7186 63.3101 34.0185C63.3101 34.0185 63.0591 31.8824 62.9518 31.0092C61.9663 22.9892 66.9245 16.3136 73.9437 15.451C80.963 14.5885 87.3899 19.865 88.3755 27.885C88.4828 28.7582 88.4429 30.5415 88.3321 30.6702C88.6188 30.8019 88.7561 30.8886 88.7561 30.8886C93.5553 33.5047 96.9507 37.9278 97.6067 43.266L97.6007 43.2638Z" fill="#4B9AE8"/>
<path d="M64.1892 31.53C62.6555 31.8825 59.9338 30.9277 59.6347 29.6177C59.3359 28.3105 61.3695 26.2649 62.9035 25.9152C64.4372 25.5627 65.88 26.1337 66.327 28.0845C66.7795 30.0577 65.7257 31.1772 64.192 31.5297L64.1892 31.53Z" fill="#EAC00F"/>
<path d="M81.6712 35.0796L92.9197 42.4421C95.6657 44.239 96.2209 47.6609 94.0078 49.2039C90.5549 51.6129 85.2014 53.7754 79.5595 50.0814C74.8456 46.9959 73.5549 42.1981 73.4622 38.1122C73.3736 34.2759 77.899 32.6095 81.6684 35.0794L81.6712 35.0796Z" fill="#276288"/>
<path opacity="0.5" d="M65.3146 26.3305C65.3146 26.3305 65.2647 27.1424 65.1509 28.0428C65.0284 29.0132 64.4126 29.7393 63.7771 30.0246C62.9513 30.3994 62.3955 30.7008 61.0935 31.0421C62.252 31.5703 63.4102 31.6985 64.1924 31.5304C65.8522 31.1739 66.4161 30.0715 66.4319 29.0767C66.4626 27.1247 65.3146 26.3305 65.3146 26.3305Z" fill="#B5950D"/>
<path d="M71.2885 28.9198C72.8338 28.7299 73.9326 27.3232 73.7427 25.7779C73.5528 24.2325 72.1461 23.1337 70.6008 23.3236C69.0555 23.5135 67.9567 24.9202 68.1466 26.4656C68.3365 28.0109 69.7432 29.1097 71.2885 28.9198Z" fill="white"/>
<path d="M70.7561 27.9847C71.5797 27.8834 72.1652 27.1338 72.064 26.3102C71.9628 25.4867 71.2132 24.9011 70.3896 25.0023C69.5661 25.1035 68.9805 25.8532 69.0817 26.6767C69.1829 27.5003 69.9325 28.0859 70.7561 27.9847Z" fill="#040000"/>
</svg>
