<svg width="200" height="200" viewBox="0 0 200 200" fill="none" xmlns="http://www.w3.org/2000/svg">
<mask id="path-1-outside-1_1062_26267" maskUnits="userSpaceOnUse" x="12.9258" y="18" width="173" height="162" fill="black">
<rect fill="white" x="12.9258" y="18" width="173" height="162"/>
<path d="M107.207 24C107.851 24 108.496 24.0129 109.134 24.0645C126.885 25.1083 140.97 40.6174 140.97 61.1777C140.97 63.491 140.287 68.1489 139.958 68.4453C140.022 68.4824 140.08 68.5202 140.132 68.5537C140.142 68.5541 140.153 68.5543 140.163 68.5547C142.392 68.632 144.764 69.2566 147.07 70.5322L149.461 71.8535L173.03 84.8555C179.364 88.3541 181.155 95.7836 176.542 99.54V99.5596H176.535C176.534 99.5623 176.522 99.5856 176.51 99.5918C174.57 101.164 172.334 102.716 169.841 104.018C169.725 104.082 169.602 104.141 169.479 104.205C169.241 104.327 168.996 104.443 168.752 104.565C168.359 104.759 167.952 104.933 167.54 105.101C166.735 105.448 165.898 105.764 165.041 106.028C163.456 106.537 161.806 106.911 160.086 107.104C160.084 107.105 160.081 107.104 160.079 107.104C159.531 115.036 156.608 122.117 151.904 128.045C146.073 135.409 137.503 140.977 127.355 144.134H127.354V151.073L135.131 149.469C136.297 149.469 137.367 149.946 138.146 150.719C138.913 151.492 139.396 152.555 139.396 153.734C139.396 156.08 137.476 158 135.131 158H123.913C122.135 158 120.686 156.55 120.685 154.778V145.835C117.541 146.46 114.288 146.859 110.944 147.026C110.274 147.065 109.597 147.092 108.921 147.104C108.354 147.111 107.78 147.117 107.207 147.117C107.003 147.117 106.8 147.114 106.598 147.112C107.934 149.316 109.009 151.948 109.303 154.942C109.947 161.483 106.5 168.257 92.7206 171.524C78.9413 174.792 57.7575 173.39 49.3505 169.419C40.9436 165.448 33.0016 154.544 42.3446 136.562C46.3458 128.861 52.4324 124.047 58.0839 121.061C55.9701 116.764 54.6651 112.041 54.3339 106.976C54.3339 106.973 54.3329 106.971 54.3329 106.969C48.1592 106.019 42.8435 102.824 38.8378 99.5537C34.231 95.7974 36.0219 88.3679 42.3554 84.8691L43.5146 84.2285L31.9511 41.0742C31.9473 41.0602 31.9486 41.0456 31.9482 41.0312L31.9394 41.0342L30.8339 36.9082C30.6684 36.2901 30.9446 35.6732 31.456 35.3447C31.5778 35.2659 31.7025 35.1889 31.8495 35.1494L33.1669 34.7959L33.9755 34.5791C34.7417 34.3727 35.5296 34.8282 35.7353 35.5957L36.8407 39.7207L36.8329 39.7227C36.8397 39.7352 36.8487 39.7468 36.8525 39.7607L48.0907 81.7031L68.3085 70.5459L68.3026 70.5391C69.9995 69.6034 71.7335 69.0191 73.4189 68.7451C73.4254 67.388 73.4511 63.1128 73.4511 61.1777C73.4511 39.8765 88.5668 24.0001 107.207 24ZM27.7958 53.1826C28.308 52.7582 29.0275 52.6974 29.6025 53.0293C30.177 53.3613 30.4834 54.0144 30.372 54.6699L29.6991 58.6104L32.2538 61.6875C32.6767 62.1988 32.737 62.9187 32.4062 63.4922C32.0743 64.067 31.4202 64.3755 30.7665 64.2637L26.8241 63.5898L23.747 66.1436C23.2357 66.5666 22.5171 66.6285 21.9423 66.2969C21.3682 65.9638 21.0619 65.3104 21.1718 64.6572L21.8446 60.7148L19.2909 57.6377C18.8671 57.1276 18.8068 56.4079 19.1386 55.833C19.4697 55.2595 20.1229 54.951 20.7773 55.0615L24.7196 55.7354L27.7958 53.1826ZM52.6952 54.5615C52.9662 54.3364 53.3477 54.3053 53.6513 54.4805C53.9562 54.6565 54.119 55.0023 54.0595 55.3496L53.703 57.4365L55.0556 59.0664C55.2795 59.3367 55.311 59.7188 55.1357 60.0225C54.9596 60.3273 54.6135 60.4894 54.2675 60.4307L52.1806 60.0752L50.5497 61.4277C50.2794 61.6516 49.8973 61.6841 49.5937 61.5088C49.2888 61.3328 49.1268 60.9866 49.1855 60.6406L49.5419 58.5518L48.1903 56.9219C47.9664 56.6516 47.935 56.2694 48.1103 55.9658C48.2856 55.6625 48.6317 55.499 48.9775 55.5576L51.0653 55.9141L52.6952 54.5615ZM49.3222 43.5664C49.6298 43.3096 50.065 43.2744 50.412 43.4746C50.7592 43.6751 50.9466 44.0699 50.8778 44.4648L50.4823 46.7822L53.0526 49.2695C53.3678 49.5743 53.4358 50.057 53.2167 50.4365C52.9968 50.8171 52.5453 50.9994 52.1239 50.8789L48.6845 49.8965L46.8749 51.3975C46.5672 51.6543 46.1321 51.6896 45.7851 51.4893C45.4392 51.2895 45.2527 50.8947 45.3202 50.499L45.7167 48.1699L43.4101 45.8428C43.1062 45.5361 43.0464 45.0629 43.2626 44.6885C43.4782 44.3155 43.9175 44.1314 44.3349 44.2412L47.5038 45.0752L49.3222 43.5664Z"/>
</mask>
<path d="M107.207 24C107.851 24 108.496 24.0129 109.134 24.0645C126.885 25.1083 140.97 40.6174 140.97 61.1777C140.97 63.491 140.287 68.1489 139.958 68.4453C140.022 68.4824 140.08 68.5202 140.132 68.5537C140.142 68.5541 140.153 68.5543 140.163 68.5547C142.392 68.632 144.764 69.2566 147.07 70.5322L149.461 71.8535L173.03 84.8555C179.364 88.3541 181.155 95.7836 176.542 99.54V99.5596H176.535C176.534 99.5623 176.522 99.5856 176.51 99.5918C174.57 101.164 172.334 102.716 169.841 104.018C169.725 104.082 169.602 104.141 169.479 104.205C169.241 104.327 168.996 104.443 168.752 104.565C168.359 104.759 167.952 104.933 167.54 105.101C166.735 105.448 165.898 105.764 165.041 106.028C163.456 106.537 161.806 106.911 160.086 107.104C160.084 107.105 160.081 107.104 160.079 107.104C159.531 115.036 156.608 122.117 151.904 128.045C146.073 135.409 137.503 140.977 127.355 144.134H127.354V151.073L135.131 149.469C136.297 149.469 137.367 149.946 138.146 150.719C138.913 151.492 139.396 152.555 139.396 153.734C139.396 156.08 137.476 158 135.131 158H123.913C122.135 158 120.686 156.55 120.685 154.778V145.835C117.541 146.46 114.288 146.859 110.944 147.026C110.274 147.065 109.597 147.092 108.921 147.104C108.354 147.111 107.78 147.117 107.207 147.117C107.003 147.117 106.8 147.114 106.598 147.112C107.934 149.316 109.009 151.948 109.303 154.942C109.947 161.483 106.5 168.257 92.7206 171.524C78.9413 174.792 57.7575 173.39 49.3505 169.419C40.9436 165.448 33.0016 154.544 42.3446 136.562C46.3458 128.861 52.4324 124.047 58.0839 121.061C55.9701 116.764 54.6651 112.041 54.3339 106.976C54.3339 106.973 54.3329 106.971 54.3329 106.969C48.1592 106.019 42.8435 102.824 38.8378 99.5537C34.231 95.7974 36.0219 88.3679 42.3554 84.8691L43.5146 84.2285L31.9511 41.0742C31.9473 41.0602 31.9486 41.0456 31.9482 41.0312L31.9394 41.0342L30.8339 36.9082C30.6684 36.2901 30.9446 35.6732 31.456 35.3447C31.5778 35.2659 31.7025 35.1889 31.8495 35.1494L33.1669 34.7959L33.9755 34.5791C34.7417 34.3727 35.5296 34.8282 35.7353 35.5957L36.8407 39.7207L36.8329 39.7227C36.8397 39.7352 36.8487 39.7468 36.8525 39.7607L48.0907 81.7031L68.3085 70.5459L68.3026 70.5391C69.9995 69.6034 71.7335 69.0191 73.4189 68.7451C73.4254 67.388 73.4511 63.1128 73.4511 61.1777C73.4511 39.8765 88.5668 24.0001 107.207 24ZM27.7958 53.1826C28.308 52.7582 29.0275 52.6974 29.6025 53.0293C30.177 53.3613 30.4834 54.0144 30.372 54.6699L29.6991 58.6104L32.2538 61.6875C32.6767 62.1988 32.737 62.9187 32.4062 63.4922C32.0743 64.067 31.4202 64.3755 30.7665 64.2637L26.8241 63.5898L23.747 66.1436C23.2357 66.5666 22.5171 66.6285 21.9423 66.2969C21.3682 65.9638 21.0619 65.3104 21.1718 64.6572L21.8446 60.7148L19.2909 57.6377C18.8671 57.1276 18.8068 56.4079 19.1386 55.833C19.4697 55.2595 20.1229 54.951 20.7773 55.0615L24.7196 55.7354L27.7958 53.1826ZM52.6952 54.5615C52.9662 54.3364 53.3477 54.3053 53.6513 54.4805C53.9562 54.6565 54.119 55.0023 54.0595 55.3496L53.703 57.4365L55.0556 59.0664C55.2795 59.3367 55.311 59.7188 55.1357 60.0225C54.9596 60.3273 54.6135 60.4894 54.2675 60.4307L52.1806 60.0752L50.5497 61.4277C50.2794 61.6516 49.8973 61.6841 49.5937 61.5088C49.2888 61.3328 49.1268 60.9866 49.1855 60.6406L49.5419 58.5518L48.1903 56.9219C47.9664 56.6516 47.935 56.2694 48.1103 55.9658C48.2856 55.6625 48.6317 55.499 48.9775 55.5576L51.0653 55.9141L52.6952 54.5615ZM49.3222 43.5664C49.6298 43.3096 50.065 43.2744 50.412 43.4746C50.7592 43.6751 50.9466 44.0699 50.8778 44.4648L50.4823 46.7822L53.0526 49.2695C53.3678 49.5743 53.4358 50.057 53.2167 50.4365C52.9968 50.8171 52.5453 50.9994 52.1239 50.8789L48.6845 49.8965L46.8749 51.3975C46.5672 51.6543 46.1321 51.6896 45.7851 51.4893C45.4392 51.2895 45.2527 50.8947 45.3202 50.499L45.7167 48.1699L43.4101 45.8428C43.1062 45.5361 43.0464 45.0629 43.2626 44.6885C43.4782 44.3155 43.9175 44.1314 44.3349 44.2412L47.5038 45.0752L49.3222 43.5664Z" fill="#C3A110"/>
<path d="M107.207 24L107.207 18L107.207 18L107.207 24ZM109.134 24.0645L108.65 30.045C108.694 30.0485 108.738 30.0515 108.781 30.0541L109.134 24.0645ZM140.97 61.1777L146.97 61.1779V61.1777H140.97ZM139.958 68.4453L135.939 63.9899C134.517 65.2725 133.793 67.1568 133.99 69.0617C134.186 70.9665 135.281 72.6631 136.935 73.628L139.958 68.4453ZM140.132 68.5537L136.85 73.5766C137.769 74.1772 138.836 74.5141 139.933 74.5504L140.132 68.5537ZM140.163 68.5547L139.951 74.5509L139.955 74.5511L140.163 68.5547ZM147.07 70.5322L144.166 75.7827L144.168 75.7835L147.07 70.5322ZM149.461 71.8535L146.558 77.1048L146.563 77.1072L149.461 71.8535ZM173.03 84.8555L175.931 79.6035L175.928 79.6018L173.03 84.8555ZM176.542 99.54L172.753 94.8874C171.354 96.0268 170.542 97.7355 170.542 99.54H176.542ZM176.542 99.5596V105.56C179.856 105.56 182.542 102.873 182.542 99.5596H176.542ZM176.535 99.5596V93.5596C174.283 93.5596 172.22 94.8209 171.194 96.8257L176.535 99.5596ZM176.51 99.5918L173.789 94.2441C173.413 94.4353 173.059 94.6654 172.731 94.9309L176.51 99.5918ZM169.841 104.018L167.064 98.6986C167.018 98.7227 166.972 98.7474 166.927 98.7726L169.841 104.018ZM169.479 104.205L172.22 109.543C172.238 109.533 172.256 109.524 172.274 109.515L169.479 104.205ZM168.752 104.565L171.4 109.95C171.412 109.944 171.423 109.938 171.435 109.932L168.752 104.565ZM167.54 105.101L165.282 99.5418C165.241 99.5583 165.201 99.5752 165.161 99.5925L167.54 105.101ZM165.041 106.028L163.273 100.295C163.251 100.302 163.229 100.309 163.206 100.316L165.041 106.028ZM160.086 107.104L159.416 101.142C159.406 101.143 159.396 101.144 159.386 101.145L160.086 107.104ZM160.079 107.104L159.381 101.145C156.514 101.481 154.292 103.811 154.093 106.691L160.079 107.104ZM151.904 128.045L147.204 124.316L147.2 124.32L151.904 128.045ZM127.355 144.134V150.134C127.96 150.134 128.561 150.042 129.138 149.863L127.355 144.134ZM127.354 144.134V138.134C124.041 138.134 121.354 140.82 121.354 144.134H127.354ZM127.354 151.073H121.354C121.354 152.877 122.166 154.585 123.565 155.725C124.963 156.864 126.8 157.314 128.567 156.949L127.354 151.073ZM135.131 149.469V143.469C134.723 143.469 134.317 143.51 133.918 143.593L135.131 149.469ZM138.146 150.719L142.407 146.494C142.395 146.482 142.383 146.47 142.371 146.458L138.146 150.719ZM139.396 153.734L145.396 153.734V153.734H139.396ZM123.913 158L123.912 164H123.913V158ZM120.685 154.778L114.685 154.778L114.685 154.779L120.685 154.778ZM120.685 145.835H126.685C126.685 144.039 125.881 142.337 124.492 141.197C123.104 140.058 121.278 139.6 119.516 139.95L120.685 145.835ZM110.944 147.026L110.644 141.034C110.629 141.035 110.614 141.035 110.599 141.036L110.944 147.026ZM108.921 147.104L108.989 153.104C109.004 153.104 109.02 153.104 109.035 153.103L108.921 147.104ZM107.207 147.117L107.207 153.117H107.207V147.117ZM106.598 147.112L106.637 141.112C104.464 141.098 102.452 142.261 101.379 144.151C100.306 146.042 100.34 148.365 101.467 150.223L106.598 147.112ZM109.303 154.942L103.331 155.528L103.332 155.53L109.303 154.942ZM92.7206 171.524L94.1049 177.363L94.1049 177.363L92.7206 171.524ZM49.3505 169.419L46.7878 174.844L46.7879 174.844L49.3505 169.419ZM42.3446 136.562L37.0204 133.795L37.0204 133.795L42.3446 136.562ZM58.0839 121.061L60.8874 126.365C63.7573 124.849 64.9005 121.325 63.4677 118.412L58.0839 121.061ZM54.3339 106.976L48.3339 106.977C48.3339 107.107 48.3382 107.237 48.3467 107.367L54.3339 106.976ZM54.3329 106.969L60.3326 106.904C60.3011 103.967 58.148 101.485 55.2449 101.038L54.3329 106.969ZM38.8378 99.5537L42.632 94.9057L42.6294 94.9036L38.8378 99.5537ZM42.3554 84.8691L45.2566 90.1211L45.2576 90.1205L42.3554 84.8691ZM43.5146 84.2285L46.4168 89.4799C48.8302 88.1461 50.0238 85.3391 49.3101 82.6756L43.5146 84.2285ZM31.9511 41.0742L26.1555 42.6271L26.1555 42.6272L31.9511 41.0742ZM31.9482 41.0312L37.9456 40.8567C37.8904 38.9596 36.9409 37.2005 35.3853 36.1133C33.8296 35.0261 31.8513 34.739 30.0508 35.3392L31.9482 41.0312ZM31.9394 41.0342L26.1438 42.587C26.5718 44.1844 27.6401 45.5343 29.0964 46.3179C30.5527 47.1015 32.2679 47.2492 33.8367 46.7263L31.9394 41.0342ZM30.8339 36.9082L25.038 38.4597L25.0383 38.461L30.8339 36.9082ZM31.456 35.3447L34.699 40.3928C34.7051 40.3888 34.7113 40.3848 34.7175 40.3809L31.456 35.3447ZM31.8495 35.1494L30.2945 29.3544L30.2935 29.3547L31.8495 35.1494ZM33.1669 34.7959L31.6131 29.0006L31.6118 29.0009L33.1669 34.7959ZM33.9755 34.5791L35.5293 40.3744L35.5358 40.3727L33.9755 34.5791ZM35.7353 35.5957L29.9397 37.1486L29.9398 37.1489L35.7353 35.5957ZM36.8407 39.7207L38.2959 45.5416C39.8567 45.1514 41.1955 44.1507 42.0115 42.7642C42.8276 41.3777 43.0527 39.7216 42.6362 38.1676L36.8407 39.7207ZM36.8329 39.7227L35.3777 33.9018C33.5825 34.3506 32.0948 35.6026 31.3461 37.2948C30.5973 38.987 30.6712 40.93 31.5464 42.5604L36.8329 39.7227ZM36.8525 39.7607L31.0549 41.3062L31.0569 41.3136L36.8525 39.7607ZM48.0907 81.7031L42.2952 83.256C42.7727 85.0381 44.0435 86.5015 45.7411 87.2239C47.4388 87.9464 49.3744 87.8477 50.9897 86.9563L48.0907 81.7031ZM68.3085 70.5459L71.2075 75.7991C72.7877 74.927 73.8914 73.3899 74.2127 71.6139C74.534 69.8378 74.0386 68.0115 72.864 66.6412L68.3085 70.5459ZM68.3026 70.5391L65.4054 65.2849C63.8246 66.1566 62.7203 67.6938 62.3986 69.4701C62.077 71.2464 62.5723 73.0732 63.7471 74.4438L68.3026 70.5391ZM73.4189 68.7451L74.3817 74.6674C77.2749 74.197 79.4047 71.7051 79.4188 68.7739L73.4189 68.7451ZM73.4511 61.1777L79.4511 61.1777V61.1777H73.4511ZM27.7958 53.1826L23.9675 48.5627L23.9642 48.5654L27.7958 53.1826ZM29.6025 53.0293L32.6045 47.8343L32.6025 47.8331L29.6025 53.0293ZM30.372 54.6699L36.2864 55.6798L36.2871 55.6754L30.372 54.6699ZM29.6991 58.6104L23.7847 57.6004C23.49 59.3267 23.9641 61.0956 25.0827 62.4429L29.6991 58.6104ZM32.2538 61.6875L36.8774 57.8636L36.8702 57.8549L32.2538 61.6875ZM32.4062 63.4922L37.6023 66.4922L37.6034 66.4903L32.4062 63.4922ZM30.7665 64.2637L31.7782 58.3496L31.7774 58.3494L30.7665 64.2637ZM26.8241 63.5898L27.835 57.6756C26.1088 57.3806 24.34 57.8544 22.9924 58.9727L26.8241 63.5898ZM23.747 66.1436L27.5718 70.7664L27.5787 70.7607L23.747 66.1436ZM21.9423 66.2969L18.9311 71.4865C18.9354 71.489 18.9397 71.4915 18.944 71.494L21.9423 66.2969ZM21.1718 64.6572L15.2573 63.6478C15.2565 63.6524 15.2557 63.6571 15.2549 63.6618L21.1718 64.6572ZM21.8446 60.7148L27.7591 61.7243C28.0536 59.9986 27.5798 58.2303 26.4618 56.8831L21.8446 60.7148ZM19.2909 57.6377L23.9081 53.806L23.906 53.8035L19.2909 57.6377ZM19.1386 55.833L13.9424 52.833L13.9421 52.8335L19.1386 55.833ZM20.7773 55.0615L21.7881 49.1473L21.7762 49.1453L20.7773 55.0615ZM24.7196 55.7354L23.7088 61.6496C25.4349 61.9446 27.2037 61.4708 28.5512 60.3526L24.7196 55.7354ZM52.6952 54.5615L56.5268 59.1788L56.529 59.177L52.6952 54.5615ZM53.6513 54.4805L56.6513 49.2843L56.6502 49.2837L53.6513 54.4805ZM54.0595 55.3496L48.1456 54.3369L48.1451 54.3394L54.0595 55.3496ZM53.703 57.4365L47.7887 56.4264C47.4939 58.1522 47.9677 59.9207 49.0858 61.2681L53.703 57.4365ZM55.0556 59.0664L59.6762 55.2389L59.6728 55.2348L55.0556 59.0664ZM55.1357 60.0225L60.3315 63.0231L60.3318 63.0225L55.1357 60.0225ZM54.2675 60.4307L53.26 66.3455L53.2631 66.346L54.2675 60.4307ZM52.1806 60.0752L53.1881 54.1604C51.4636 53.8667 49.6968 54.3401 48.3504 55.4568L52.1806 60.0752ZM50.5497 61.4277L54.3772 66.0484L54.3799 66.0461L50.5497 61.4277ZM49.5937 61.5088L46.5936 66.7049L46.5937 66.7049L49.5937 61.5088ZM49.1855 60.6406L43.2709 59.6314L43.2699 59.6373L49.1855 60.6406ZM49.5419 58.5518L55.4564 59.561C55.7507 57.8362 55.2774 56.0688 54.1605 54.7218L49.5419 58.5518ZM48.1903 56.9219L43.5697 60.7493L43.5717 60.7518L48.1903 56.9219ZM48.1103 55.9658L42.9154 52.9636L42.9141 52.9658L48.1103 55.9658ZM48.9775 55.5576L49.9872 49.6432L49.9794 49.6419L48.9775 55.5576ZM51.0653 55.9141L50.0556 61.8285C51.7814 62.1231 53.5497 61.6493 54.8969 60.5313L51.0653 55.9141ZM49.3222 43.5664L53.1535 48.1839C53.1583 48.1799 53.1631 48.1759 53.1679 48.1719L49.3222 43.5664ZM50.412 43.4746L53.412 38.2785L53.4104 38.2775L50.412 43.4746ZM50.8778 44.4648L44.9667 43.4358C44.9656 43.4423 44.9645 43.4489 44.9634 43.4554L50.8778 44.4648ZM50.4823 46.7822L44.5679 45.7728C44.2346 47.7253 44.8865 49.7165 46.3099 51.0939L50.4823 46.7822ZM53.0526 49.2695L48.8802 53.5812L48.882 53.5829L53.0526 49.2695ZM53.2167 50.4365L58.4117 53.4386L58.4129 53.4365L53.2167 50.4365ZM52.1239 50.8789L53.7738 45.1102L53.7718 45.1096L52.1239 50.8789ZM48.6845 49.8965L50.3324 44.1272C48.4282 43.5833 46.3782 44.0141 44.8539 45.2784L48.6845 49.8965ZM46.8749 51.3975L43.0444 46.7794C43.0395 46.7834 43.0347 46.7874 43.0298 46.7915L46.8749 51.3975ZM45.7851 51.4893L42.7848 56.6853L42.7851 56.6854L45.7851 51.4893ZM45.3202 50.499L51.2347 51.5083L51.2351 51.5059L45.3202 50.499ZM45.7167 48.1699L51.6316 49.1768C51.9565 47.2686 51.3407 45.3209 49.9781 43.9461L45.7167 48.1699ZM43.4101 45.8428L39.148 50.0659L39.1487 50.0666L43.4101 45.8428ZM43.2626 44.6885L38.0681 41.6857L38.0665 41.6885L43.2626 44.6885ZM44.3349 44.2412L42.8078 50.0436L42.8078 50.0436L44.3349 44.2412ZM47.5038 45.0752L45.9768 50.8776C47.8495 51.3705 49.8449 50.9292 51.3352 49.6926L47.5038 45.0752ZM107.207 24V30C107.782 30 108.245 30.0122 108.65 30.045L109.134 24.0645L109.617 18.0839C108.747 18.0136 107.92 18 107.207 18V24ZM109.134 24.0645L108.781 30.0541C122.947 30.8871 134.97 43.3621 134.97 61.1777H140.97H146.97C146.97 37.8728 130.823 19.3295 109.486 18.0748L109.134 24.0645ZM140.97 61.1777L134.97 61.1775C134.97 61.5031 134.943 62.0298 134.882 62.7083C134.823 63.3651 134.739 64.0715 134.647 64.7237C134.552 65.3902 134.458 65.9235 134.388 66.2529C134.349 66.4322 134.34 66.4446 134.369 66.3516C134.381 66.3129 134.44 66.125 134.557 65.8674C134.616 65.7361 134.726 65.5083 134.894 65.2366C135.041 65.001 135.373 64.5004 135.939 63.9899L139.958 68.4453L143.977 72.9007C144.983 71.9933 145.422 70.9642 145.49 70.8132C145.653 70.4536 145.76 70.133 145.822 69.934C145.951 69.5205 146.05 69.1023 146.121 68.7671C146.271 68.0675 146.41 67.2362 146.527 66.412C146.754 64.8169 146.97 62.7512 146.97 61.1779L140.97 61.1777ZM139.958 68.4453L136.935 73.628C136.898 73.6067 136.872 73.5904 136.858 73.5819C136.845 73.5737 136.84 73.5701 136.85 73.5766L140.132 68.5537L143.414 63.5308C143.334 63.4788 143.176 63.3762 142.981 63.2626L139.958 68.4453ZM140.132 68.5537L139.933 74.5504C139.943 74.5508 139.952 74.551 139.958 74.5512C139.961 74.5513 139.963 74.5514 139.965 74.5514C139.966 74.5515 139.967 74.5515 139.968 74.5515C139.968 74.5515 139.969 74.5515 139.969 74.5515C139.971 74.5516 139.969 74.5515 139.967 74.5515C139.964 74.5514 139.958 74.5512 139.951 74.5509L140.163 68.5547L140.375 62.5584C140.363 62.558 140.352 62.5576 140.344 62.5574C140.336 62.5571 140.329 62.5569 140.326 62.5568C140.325 62.5568 140.324 62.5568 140.323 62.5568C140.323 62.5568 140.322 62.5567 140.322 62.5567C140.321 62.5567 140.321 62.5567 140.321 62.5567C140.322 62.5567 140.325 62.5568 140.33 62.557L140.132 68.5537ZM140.163 68.5547L139.955 74.5511C141.211 74.5946 142.662 74.9506 144.166 75.7827L147.07 70.5322L149.974 65.2817C146.865 63.5625 143.574 62.6694 140.371 62.5583L140.163 68.5547ZM147.07 70.5322L144.168 75.7835L146.558 77.1048L149.461 71.8535L152.363 66.6022L149.973 65.2809L147.07 70.5322ZM149.461 71.8535L146.563 77.1072L170.132 90.1091L173.03 84.8555L175.928 79.6018L152.359 66.5999L149.461 71.8535ZM173.03 84.8555L170.129 90.1075C171.965 91.1214 172.824 92.5291 173.057 93.5002C173.263 94.3619 173.015 94.6742 172.753 94.8874L176.542 99.54L180.33 104.193C184.682 100.649 185.845 95.3688 184.726 90.7019C183.633 86.1445 180.429 82.0882 175.931 79.6035L173.03 84.8555ZM176.542 99.54H170.542V99.5596H176.542H182.542V99.54H176.542ZM176.542 99.5596V93.5596H176.535V99.5596V105.56H176.542V99.5596ZM176.535 99.5596L171.194 96.8257C171.193 96.8272 171.199 96.8157 171.206 96.8021C171.214 96.788 171.222 96.7715 171.232 96.7529C171.252 96.716 171.275 96.672 171.303 96.6226C171.355 96.5302 171.436 96.3925 171.544 96.231C171.643 96.0832 171.827 95.8237 172.095 95.531C172.314 95.2918 172.877 94.7079 173.789 94.2441L176.51 99.5918L179.23 104.939C180.148 104.473 180.717 103.883 180.942 103.638C181.216 103.339 181.405 103.073 181.509 102.918C181.622 102.749 181.706 102.605 181.761 102.507C181.791 102.455 181.816 102.409 181.836 102.37C181.846 102.351 181.856 102.333 181.863 102.319C181.87 102.304 181.877 102.292 181.876 102.293L176.535 99.5596ZM176.51 99.5918L172.731 94.9309C171.037 96.3042 169.135 97.618 167.064 98.6986L169.841 104.018L172.617 109.337C175.534 107.814 178.104 106.024 180.288 104.253L176.51 99.5918ZM169.841 104.018L166.927 98.7726C166.971 98.748 166.994 98.737 166.944 98.7626C166.932 98.7684 166.921 98.774 166.904 98.7827C166.889 98.7906 166.869 98.8007 166.848 98.8114C166.805 98.8329 166.749 98.862 166.685 98.8956L169.479 104.205L172.274 109.515C172.271 109.516 172.276 109.514 172.295 109.504C172.331 109.485 172.322 109.49 172.381 109.46C172.452 109.424 172.594 109.352 172.755 109.263L169.841 104.018ZM169.479 104.205L166.739 98.8676C166.493 98.9937 166.516 98.9752 166.069 99.1988L168.752 104.565L171.435 109.932C171.477 109.911 171.989 109.661 172.22 109.543L169.479 104.205ZM168.752 104.565L166.104 99.1813C165.891 99.2858 165.631 99.3998 165.282 99.5418L167.54 105.101L169.798 110.659C170.274 110.466 170.826 110.232 171.4 109.95L168.752 104.565ZM167.54 105.101L165.161 99.5925C164.529 99.8652 163.897 100.102 163.273 100.295L165.041 106.028L166.809 111.762C167.898 111.426 168.94 111.032 169.919 110.609L167.54 105.101ZM165.041 106.028L163.206 100.316C161.963 100.715 160.703 100.997 159.416 101.142L160.086 107.104L160.756 113.067C162.909 112.825 164.949 112.36 166.875 111.741L165.041 106.028ZM160.086 107.104L159.386 101.145C159.476 101.135 159.56 101.127 159.636 101.121C159.713 101.116 159.785 101.112 159.849 101.109C159.914 101.107 159.973 101.105 160.026 101.105C160.079 101.104 160.126 101.105 160.168 101.105C160.209 101.106 160.246 101.107 160.276 101.108C160.307 101.109 160.333 101.11 160.352 101.111C160.372 101.111 160.388 101.112 160.398 101.113C160.403 101.113 160.407 101.113 160.409 101.113C160.411 101.114 160.413 101.114 160.413 101.114C160.413 101.114 160.413 101.114 160.412 101.114C160.412 101.114 160.412 101.114 160.412 101.114C160.412 101.114 160.412 101.114 160.412 101.114C160.411 101.113 160.41 101.113 160.409 101.113C160.406 101.113 160.402 101.113 160.397 101.113C160.387 101.112 160.371 101.111 160.351 101.111C160.331 101.11 160.305 101.109 160.274 101.108C160.243 101.107 160.207 101.106 160.165 101.105C160.123 101.104 160.076 101.104 160.023 101.105C159.97 101.105 159.91 101.106 159.845 101.109C159.781 101.112 159.709 101.115 159.632 101.121C159.555 101.127 159.471 101.135 159.381 101.145L160.079 107.104L160.777 113.064C160.687 113.074 160.604 113.082 160.527 113.088C160.45 113.093 160.379 113.097 160.314 113.1C160.25 113.102 160.191 113.104 160.138 113.104C160.085 113.105 160.038 113.104 159.996 113.104C159.955 113.103 159.919 113.102 159.888 113.101C159.858 113.1 159.832 113.099 159.812 113.098C159.792 113.098 159.776 113.097 159.767 113.096C159.762 113.096 159.758 113.096 159.756 113.096C159.754 113.095 159.752 113.095 159.752 113.095C159.752 113.095 159.752 113.095 159.753 113.095C159.753 113.095 159.753 113.095 159.753 113.095C159.754 113.095 159.755 113.096 159.756 113.096C159.759 113.096 159.763 113.096 159.768 113.096C159.778 113.097 159.794 113.098 159.814 113.098C159.834 113.099 159.861 113.1 159.891 113.101C159.922 113.102 159.959 113.103 160.001 113.104C160.042 113.105 160.09 113.105 160.143 113.104C160.196 113.104 160.256 113.102 160.321 113.1C160.386 113.097 160.457 113.094 160.534 113.088C160.612 113.082 160.696 113.074 160.785 113.064L160.086 107.104ZM160.079 107.104L154.093 106.691C153.633 113.353 151.192 119.29 147.204 124.316L151.904 128.045L156.604 131.774C162.023 124.945 165.429 116.719 166.065 107.518L160.079 107.104ZM151.904 128.045L147.2 124.32C142.23 130.597 134.752 135.549 125.573 138.405L127.355 144.134L129.138 149.863C140.255 146.404 149.916 140.222 156.608 131.769L151.904 128.045ZM127.355 144.134V138.134H127.354V144.134V150.134H127.355V144.134ZM127.354 144.134H121.354V151.073H127.354H133.354V144.134H127.354ZM127.354 151.073L128.567 156.949L136.343 155.345L135.131 149.469L133.918 143.593L126.142 145.197L127.354 151.073ZM135.131 149.469V155.469C134.635 155.469 134.208 155.263 133.922 154.979L138.146 150.719L142.371 146.458C140.526 144.628 137.959 143.469 135.131 143.469V149.469ZM138.146 150.719L133.886 154.944C133.608 154.663 133.396 154.233 133.396 153.734H139.396H145.396C145.396 150.877 144.219 148.321 142.407 146.494L138.146 150.719ZM139.396 153.734L133.396 153.734C133.396 152.766 134.162 152 135.131 152V158V164C140.79 164 145.396 159.393 145.396 153.734L139.396 153.734ZM135.131 158V152H123.913V158V164H135.131V158ZM123.913 158L123.914 152C125.442 152 126.685 153.229 126.685 154.778L120.685 154.778L114.685 154.779C114.686 159.871 118.828 163.999 123.912 164L123.913 158ZM120.685 154.778H126.685V145.835H120.685H114.685V154.778H120.685ZM120.685 145.835L119.516 139.95C116.669 140.516 113.707 140.88 110.644 141.034L110.944 147.026L111.244 153.019C114.869 152.837 118.414 152.404 121.855 151.72L120.685 145.835ZM110.944 147.026L110.599 141.036C110.002 141.071 109.403 141.094 108.807 141.106L108.921 147.104L109.035 153.103C109.792 153.089 110.546 153.059 111.29 153.016L110.944 147.026ZM108.921 147.104L108.853 141.105C108.283 141.111 107.742 141.117 107.207 141.117V147.117V153.117C107.819 153.117 108.425 153.111 108.989 153.104L108.921 147.104ZM107.207 147.117L107.207 141.117C107.012 141.117 106.944 141.114 106.637 141.112L106.598 147.112L106.558 153.112C106.657 153.113 106.994 153.117 107.207 153.117L107.207 147.117ZM106.598 147.112L101.467 150.223C102.451 151.846 103.144 153.623 103.331 155.528L109.303 154.942L115.274 154.357C114.874 150.273 113.416 146.785 111.728 144.001L106.598 147.112ZM109.303 154.942L103.332 155.53C103.523 157.473 103.123 159.09 101.866 160.555C100.48 162.171 97.5151 164.221 91.3363 165.686L92.7206 171.524L94.1049 177.363C101.705 175.56 107.353 172.59 110.975 168.367C114.725 163.994 115.727 158.953 115.274 154.354L109.303 154.942ZM92.7206 171.524L91.3364 165.686C85.1779 167.146 77.0489 167.613 69.3464 167.195C61.477 166.767 55.0342 165.468 51.9131 163.994L49.3505 169.419L46.7879 174.844C52.0738 177.341 60.4264 178.728 68.6955 179.177C77.1315 179.635 86.4841 179.169 94.1049 177.363L92.7206 171.524ZM49.3505 169.419L51.9132 163.994C48.9 162.57 46.122 159.973 44.8693 156.305C43.652 152.741 43.5604 147.235 47.6689 139.328L42.3446 136.562L37.0204 133.795C31.7859 143.87 30.9938 152.807 33.5135 160.184C35.9977 167.457 41.3941 172.296 46.7878 174.844L49.3505 169.419ZM42.3446 136.562L47.6689 139.328C50.965 132.984 56.0048 128.946 60.8874 126.365L58.0839 121.061L55.2803 115.756C48.86 119.149 41.7266 124.737 37.0204 133.795L42.3446 136.562ZM58.0839 121.061L63.4677 118.412C61.6962 114.811 60.6003 110.854 60.3211 106.584L54.3339 106.976L48.3467 107.367C48.7298 113.228 50.244 118.717 52.7001 123.709L58.0839 121.061ZM54.3339 106.976L60.3339 106.974C60.3338 106.764 60.3228 106.578 60.3084 106.423C60.2941 106.268 60.2759 106.137 60.26 106.036C60.2442 105.936 60.2289 105.856 60.2194 105.808C60.2144 105.783 60.2103 105.763 60.2077 105.75C60.2064 105.744 60.2053 105.739 60.2046 105.735C60.2039 105.732 60.2034 105.73 60.2033 105.73C60.2028 105.727 60.2046 105.736 60.2066 105.745C60.2088 105.756 60.2126 105.774 60.2172 105.797C60.2261 105.842 60.2407 105.917 60.256 106.012C60.2714 106.107 60.2893 106.232 60.3039 106.38C60.3185 106.528 60.3304 106.705 60.3326 106.904L54.3329 106.969L48.3333 107.033C48.3354 107.234 48.3474 107.411 48.362 107.56C48.3767 107.708 48.3946 107.833 48.4102 107.929C48.418 107.978 48.4255 108.02 48.4321 108.056C48.4387 108.092 48.4446 108.122 48.4493 108.146C48.4539 108.169 48.4578 108.187 48.4601 108.198C48.4621 108.208 48.464 108.217 48.4635 108.215C48.4635 108.215 48.4634 108.214 48.4632 108.213C48.463 108.212 48.4627 108.211 48.4624 108.209C48.4617 108.206 48.4606 108.201 48.4593 108.195C48.4568 108.183 48.4527 108.163 48.4478 108.138C48.4429 108.114 48.4368 108.082 48.43 108.044C48.4232 108.007 48.4155 107.962 48.4075 107.912C48.3917 107.812 48.3735 107.681 48.3593 107.526C48.345 107.372 48.3339 107.187 48.3339 106.977L54.3339 106.976ZM54.3329 106.969L55.2449 101.038C50.5204 100.312 46.1813 97.8029 42.632 94.9057L38.8378 99.5537L35.0436 104.202C39.5057 107.844 45.7979 111.727 53.421 112.899L54.3329 106.969ZM38.8378 99.5537L42.6294 94.9036C42.37 94.692 42.1208 94.3795 42.3282 93.5153C42.5617 92.5429 43.4214 91.1349 45.2566 90.1211L42.3554 84.8691L39.4541 79.6172C34.9559 82.1021 31.7534 86.1582 30.6597 90.7143C29.54 95.3786 30.6988 100.659 35.0462 104.204L38.8378 99.5537ZM42.3554 84.8691L45.2576 90.1205L46.4168 89.4799L43.5146 84.2285L40.6124 78.9771L39.4532 79.6177L42.3554 84.8691ZM43.5146 84.2285L49.3101 82.6756L37.7466 39.5213L31.9511 41.0742L26.1555 42.6272L37.719 85.7815L43.5146 84.2285ZM31.9511 41.0742L37.7466 39.5213C37.9181 40.1613 37.94 40.6808 37.9458 40.8761C37.9486 40.9738 37.9483 41.0567 37.9483 41.0393C37.9483 41.0391 37.9483 41.0374 37.9483 41.0354C37.9483 41.0333 37.9483 41.0301 37.9482 41.0262C37.9482 41.0186 37.9482 41.0064 37.9481 40.9915C37.9479 40.9625 37.9473 40.9151 37.9456 40.8567L31.9482 41.0312L25.9507 41.2058C25.9479 41.1088 25.9483 41.0257 25.9483 41.0448C25.9483 41.045 25.9483 41.0514 25.9483 41.0587C25.9483 41.0666 25.9483 41.079 25.9485 41.0941C25.9487 41.1236 25.9493 41.1712 25.951 41.2296C25.9572 41.4393 25.9803 41.9732 26.1555 42.6271L31.9511 41.0742ZM31.9482 41.0312L30.0508 35.3392L30.042 35.3421L31.9394 41.0342L33.8367 46.7263L33.8455 46.7233L31.9482 41.0312ZM31.9394 41.0342L37.7349 39.4814L36.6295 35.3554L30.8339 36.9082L25.0383 38.461L26.1438 42.587L31.9394 41.0342ZM30.8339 36.9082L36.6298 35.3567C37.1939 37.464 36.1999 39.4286 34.699 40.3928L31.456 35.3447L28.213 30.2967C25.6894 31.9178 24.1429 35.1162 25.038 38.4597L30.8339 36.9082ZM31.456 35.3447L34.7175 40.3809C34.7627 40.3516 34.6287 40.4415 34.4336 40.544C34.2183 40.6571 33.8672 40.8202 33.4056 40.9441L31.8495 35.1494L30.2935 29.3547C29.1379 29.665 28.3073 30.2356 28.1945 30.3086L31.456 35.3447ZM31.8495 35.1494L33.4046 40.9444L34.722 40.5909L33.1669 34.7959L31.6118 29.0009L30.2945 29.3544L31.8495 35.1494ZM33.1669 34.7959L34.7207 40.5912L35.5293 40.3744L33.9755 34.5791L32.4217 28.7838L31.6131 29.0006L33.1669 34.7959ZM33.9755 34.5791L35.5358 40.3727C33.0886 41.0318 30.5896 39.574 29.9397 37.1486L35.7353 35.5957L41.5308 34.0428C40.4697 30.0825 36.3948 27.7137 32.4152 28.7855L33.9755 34.5791ZM35.7353 35.5957L29.9398 37.1489L31.0452 41.2739L36.8407 39.7207L42.6362 38.1676L41.5308 34.0426L35.7353 35.5957ZM36.8407 39.7207L35.3855 33.8998L35.3777 33.9018L36.8329 39.7227L38.2881 45.5435L38.2959 45.5416L36.8407 39.7207ZM36.8329 39.7227L31.5464 42.5604C31.6248 42.7065 31.6935 42.8193 31.7035 42.8358C31.7362 42.89 31.6842 42.8046 31.6438 42.7345C31.5529 42.5765 31.2534 42.0508 31.0549 41.3062L36.8525 39.7607L42.65 38.2152C42.4478 37.4568 42.1419 36.9183 42.0438 36.7479C41.9999 36.6715 41.9441 36.5801 41.9731 36.6281C41.9793 36.6385 42.0444 36.7451 42.1194 36.8849L36.8329 39.7227ZM36.8525 39.7607L31.0569 41.3136L42.2952 83.256L48.0907 81.7031L53.8863 80.1502L42.648 38.2078L36.8525 39.7607ZM48.0907 81.7031L50.9897 86.9563L71.2075 75.7991L68.3085 70.5459L65.4095 65.2927L45.1918 76.4499L48.0907 81.7031ZM68.3085 70.5459L72.864 66.6412L72.8582 66.6343L68.3026 70.5391L63.7471 74.4438L63.753 74.4506L68.3085 70.5459ZM68.3026 70.5391L71.1999 75.7932C72.3064 75.183 73.3874 74.829 74.3817 74.6674L73.4189 68.7451L72.456 62.8229C70.0796 63.2092 67.6927 64.0237 65.4054 65.2849L68.3026 70.5391ZM73.4189 68.7451L79.4188 68.7739C79.4252 67.4375 79.4511 63.132 79.4511 61.1777L73.4511 61.1777L67.4511 61.1777C67.4511 63.0936 67.4255 67.3386 67.4189 68.7163L73.4189 68.7451ZM73.4511 61.1777H79.4511C79.4511 42.7169 92.3349 30.0001 107.207 30L107.207 24L107.207 18C84.7988 18.0002 67.4511 37.0362 67.4511 61.1777H73.4511ZM27.7958 53.1826L31.6241 57.8026C30.2074 58.9765 28.2036 59.1499 26.6025 58.2254L29.6025 53.0293L32.6025 47.8331C29.8515 46.2449 26.4085 46.5399 23.9675 48.5627L27.7958 53.1826ZM29.6025 53.0293L26.6004 58.2243C24.9983 57.2985 24.149 55.4756 24.4568 53.6645L30.372 54.6699L36.2871 55.6754C36.8178 52.5532 35.3557 49.4242 32.6045 47.8343L29.6025 53.0293ZM30.372 54.6699L24.4576 53.66L23.7847 57.6004L29.6991 58.6104L35.6135 59.6203L36.2864 55.6798L30.372 54.6699ZM29.6991 58.6104L25.0827 62.4429L27.6374 65.5201L32.2538 61.6875L36.8702 57.8549L34.3155 54.7778L29.6991 58.6104ZM32.2538 61.6875L27.6302 65.5114C26.4569 64.0927 26.2868 62.0926 27.2089 60.4941L32.4062 63.4922L37.6034 66.4903C39.1872 63.7448 38.8964 60.3048 36.8774 57.8636L32.2538 61.6875ZM32.4062 63.4922L27.21 60.4922C28.1281 58.902 29.9456 58.0361 31.7782 58.3496L30.7665 64.2637L29.7548 70.1778C32.8948 70.7149 36.0205 69.232 37.6023 66.4922L32.4062 63.4922ZM30.7665 64.2637L31.7774 58.3494L27.835 57.6756L26.8241 63.5898L25.8133 69.5041L29.7557 70.1779L30.7665 64.2637ZM26.8241 63.5898L22.9924 58.9727L19.9153 61.5264L23.747 66.1436L27.5787 70.7607L30.6559 68.207L26.8241 63.5898ZM23.747 66.1436L19.9221 61.5207C21.3336 60.3529 23.3349 60.1734 24.9406 61.0997L21.9423 66.2969L18.944 71.494C21.6994 73.0836 25.1378 72.7803 27.5718 70.7664L23.747 66.1436ZM21.9423 66.2969L24.9535 61.1072C26.5433 62.0297 27.3934 63.8415 27.0886 65.6527L21.1718 64.6572L15.2549 63.6618C14.7304 66.7792 16.193 69.8978 18.9311 71.4865L21.9423 66.2969ZM21.1718 64.6572L27.0863 65.6667L27.7591 61.7243L21.8446 60.7148L15.9302 59.7054L15.2573 63.6478L21.1718 64.6572ZM21.8446 60.7148L26.4618 56.8831L23.9081 53.806L19.2909 57.6377L14.6738 61.4694L17.2275 64.5466L21.8446 60.7148ZM19.2909 57.6377L23.906 53.8035C25.0921 55.2312 25.2547 57.2392 24.335 58.8325L19.1386 55.833L13.9421 52.8335C12.3588 55.5766 12.642 59.0239 14.6759 61.4719L19.2909 57.6377ZM19.1386 55.833L24.3347 58.833C23.4145 60.4269 21.5991 61.2852 19.7783 60.9778L20.7773 55.0615L21.7762 49.1453C18.6468 48.6169 15.5249 50.0921 13.9424 52.833L19.1386 55.833ZM20.7773 55.0615L19.7664 60.9758L23.7088 61.6496L24.7196 55.7354L25.7305 49.8211L21.7881 49.1473L20.7773 55.0615ZM24.7196 55.7354L28.5512 60.3526L31.6274 57.7999L27.7958 53.1826L23.9642 48.5654L20.8881 51.1181L24.7196 55.7354ZM52.6952 54.5615L56.529 59.177C54.8597 60.5636 52.5137 60.7514 50.6524 59.6772L53.6513 54.4805L56.6502 49.2837C54.1817 47.8592 51.0727 48.1093 48.8615 49.9461L52.6952 54.5615ZM53.6513 54.4805L50.6513 59.6766C48.7856 58.5995 47.7802 56.4703 48.1456 54.3369L54.0595 55.3496L59.9734 56.3623C60.4577 53.5344 59.1267 50.7135 56.6513 49.2843L53.6513 54.4805ZM54.0595 55.3496L48.1451 54.3394L47.7887 56.4264L53.703 57.4365L59.6174 58.4467L59.9738 56.3598L54.0595 55.3496ZM53.703 57.4365L49.0858 61.2681L50.4383 62.898L55.0556 59.0664L59.6728 55.2348L58.3203 53.6049L53.703 57.4365ZM55.0556 59.0664L50.4349 62.8939C49.053 61.2255 48.8651 58.8835 49.9395 57.0225L55.1357 60.0225L60.3318 63.0225C61.7569 60.5542 61.506 57.4479 59.6762 55.2389L55.0556 59.0664ZM55.1357 60.0225L49.9398 57.0219C51.0199 55.1517 53.1484 54.1548 55.2718 54.5153L54.2675 60.4307L53.2631 66.346C56.0786 66.824 58.8994 65.5028 60.3315 63.0231L55.1357 60.0225ZM54.2675 60.4307L55.275 54.5159L53.1881 54.1604L52.1806 60.0752L51.1731 65.99L53.26 66.3455L54.2675 60.4307ZM52.1806 60.0752L48.3504 55.4568L46.7195 56.8094L50.5497 61.4277L54.3799 66.0461L56.0108 64.6936L52.1806 60.0752ZM50.5497 61.4277L46.7223 56.8071C48.3797 55.4341 50.7204 55.2311 52.5937 56.3126L49.5937 61.5088L46.5937 66.7049C49.0742 68.1371 52.1791 67.8691 54.3772 66.0484L50.5497 61.4277ZM49.5937 61.5088L52.5938 56.3127C54.4655 57.3934 55.4608 59.5225 55.101 61.644L49.1855 60.6406L43.2699 59.6373C42.7928 62.4507 44.1122 65.2722 46.5936 66.7049L49.5937 61.5088ZM49.1855 60.6406L55.1 61.6499L55.4564 59.561L49.5419 58.5518L43.6274 57.5425L43.271 59.6314L49.1855 60.6406ZM49.5419 58.5518L54.1605 54.7218L52.809 53.0919L48.1903 56.9219L43.5717 60.7518L44.9233 62.3817L49.5419 58.5518ZM48.1903 56.9219L52.811 53.0944C54.193 54.7628 54.3809 57.1048 53.3064 58.9658L48.1103 55.9658L42.9141 52.9658C41.4891 55.4341 41.7399 58.5404 43.5697 60.7493L48.1903 56.9219ZM48.1103 55.9658L53.3051 58.968C52.2302 60.8281 50.1089 61.8347 47.9755 61.4734L48.9775 55.5576L49.9794 49.6419C47.1544 49.1634 44.3409 50.4969 42.9154 52.9636L48.1103 55.9658ZM48.9775 55.5576L47.9677 61.472L50.0556 61.8285L51.0653 55.9141L52.0751 49.9996L49.9872 49.6432L48.9775 55.5576ZM51.0653 55.9141L54.8969 60.5313L56.5268 59.1788L52.6952 54.5615L48.8637 49.9443L47.2338 51.2968L51.0653 55.9141ZM49.3222 43.5664L53.1679 48.1719C51.5203 49.5477 49.2195 49.7135 47.4137 48.6717L50.412 43.4746L53.4104 38.2775C50.9104 36.8352 47.7393 37.0714 45.4765 38.9609L49.3222 43.5664ZM50.412 43.4746L47.412 48.6708C45.6067 47.6284 44.5982 45.5526 44.9667 43.4358L50.8778 44.4648L56.7889 45.4939C57.295 42.5871 55.9117 39.7217 53.412 38.2785L50.412 43.4746ZM50.8778 44.4648L44.9634 43.4554L44.5679 45.7728L50.4823 46.7822L56.3968 47.7917L56.7923 45.4743L50.8778 44.4648ZM50.4823 46.7822L46.3099 51.0939L48.8802 53.5812L53.0526 49.2695L57.2251 44.9578L54.6548 42.4705L50.4823 46.7822ZM53.0526 49.2695L48.882 53.5829C47.2212 51.9771 46.8608 49.4453 48.0206 47.4365L53.2167 50.4365L58.4129 53.4365C60.0109 50.6687 59.5145 47.1715 57.2233 44.9561L53.0526 49.2695ZM53.2167 50.4365L48.0218 47.4344C49.1773 45.4348 51.5461 44.4731 53.7738 45.1102L52.1239 50.8789L50.4741 56.6476C53.5445 57.5258 56.8163 56.1994 58.4117 53.4386L53.2167 50.4365ZM52.1239 50.8789L53.7718 45.1096L50.3324 44.1272L48.6845 49.8965L47.0366 55.6658L50.476 56.6482L52.1239 50.8789ZM48.6845 49.8965L44.8539 45.2784L43.0444 46.7794L46.8749 51.3975L50.7055 56.0156L52.515 54.5146L48.6845 49.8965ZM46.8749 51.3975L43.0298 46.7915C44.6754 45.4178 46.9764 45.2489 48.7851 46.2931L45.7851 51.4893L42.7851 56.6854C45.2879 58.1304 48.4591 57.8909 50.72 56.0035L46.8749 51.3975ZM45.7851 51.4893L48.7853 46.2933C50.609 47.3463 51.5903 49.4249 51.2347 51.5083L45.3202 50.499L39.4057 49.4897C38.9151 52.3646 40.2693 55.2327 42.7848 56.6853L45.7851 51.4893ZM45.3202 50.499L51.2351 51.5059L51.6316 49.1768L45.7167 48.1699L39.8018 47.163L39.4053 49.4921L45.3202 50.499ZM45.7167 48.1699L49.9781 43.9461L47.6714 41.619L43.4101 45.8428L39.1487 50.0666L41.4553 52.3937L45.7167 48.1699ZM43.4101 45.8428L47.6721 41.6196C49.2863 43.2487 49.5854 45.737 48.4588 47.6885L43.2626 44.6885L38.0665 41.6885C36.5074 44.3888 36.9261 47.8236 39.148 50.0659L43.4101 45.8428ZM43.2626 44.6885L48.4572 47.6913C47.3245 49.6506 45.016 50.6248 42.8078 50.0436L44.3349 44.2412L45.862 38.4388C42.8189 37.6379 39.6319 38.9805 38.0681 41.6857L43.2626 44.6885ZM44.3349 44.2412L42.8078 50.0436L45.9768 50.8776L47.5038 45.0752L49.0309 39.2728L45.8619 38.4388L44.3349 44.2412ZM47.5038 45.0752L51.3352 49.6926L53.1535 48.1839L49.3222 43.5664L45.4908 38.949L43.6725 40.4577L47.5038 45.0752Z" fill="white" mask="url(#path-1-outside-1_1062_26267)"/>
<path d="M68.3092 70.5459L42.3559 84.8691C36.0222 88.3678 34.231 95.7968 38.8379 99.5532C46.0285 105.423 57.4395 111.061 70.4612 103.877C81.3374 97.878 84.9713 87.5366 85.8476 78.5741C86.6788 70.1528 77.0075 65.7392 68.3027 70.5394L68.3092 70.5459Z" fill="#276286"/>
<path d="M139.397 153.734C139.397 156.08 137.477 158 135.131 158H123.914C122.135 158 120.686 156.55 120.686 154.778V119.463C120.686 117.685 122.135 116.235 123.914 116.235H124.126C125.905 116.235 127.354 117.685 127.354 119.463V151.073L135.131 149.469C136.297 149.469 137.367 149.946 138.147 150.719C138.913 151.492 139.397 152.555 139.397 153.734Z" fill="#474747"/>
<path d="M94.0367 119.463V154.778C94.0367 156.55 92.587 158 90.8151 158H79.5974C77.2521 158 75.332 156.08 75.332 153.735C75.332 152.562 75.8153 151.492 76.5885 150.719C77.3616 149.946 78.4248 149.469 79.6039 149.469L87.3808 151.08V119.463C87.3808 117.691 88.8306 116.241 90.6025 116.241H90.8215C92.5934 116.241 94.0431 117.691 94.0431 119.463H94.0367Z" fill="#474747"/>
<path d="M160.17 104.379C160.17 105.23 160.138 106.08 160.093 106.905C160.086 106.976 160.08 107.04 160.08 107.105C159.532 115.036 156.607 122.117 151.903 128.045C146.072 135.41 137.503 140.977 127.355 144.134C125.203 144.817 122.973 145.377 120.686 145.835C117.542 146.46 114.288 146.859 110.944 147.027C110.274 147.065 109.597 147.091 108.921 147.104C108.354 147.111 107.78 147.117 107.207 147.117C106.633 147.117 106.066 147.111 105.499 147.104C101.556 147.014 97.7159 146.602 94.0369 145.899C91.756 145.461 89.5266 144.907 87.3746 144.237C77.0848 141.086 68.4122 135.487 62.5166 128.052C62.5166 128.052 62.5166 128.045 62.5102 128.045C57.7938 122.092 54.8557 114.959 54.3338 106.976C54.3338 106.924 54.3273 106.86 54.3209 106.802C54.2758 106.003 54.25 105.197 54.25 104.379C54.25 103.426 54.2822 102.478 54.3466 101.544C55.268 88.5353 62.4973 76.9955 73.4186 69.1605V68.7546C73.425 67.4079 73.4508 63.1168 73.4508 61.1774C73.4508 39.8761 88.5666 24 107.207 24C107.851 24 108.495 24.0129 109.133 24.0644C126.884 25.1082 140.969 40.6171 140.969 61.1774C140.969 63.4905 140.286 68.1489 139.958 68.4453C140.035 68.4904 140.106 68.5355 140.164 68.5742C140.731 68.935 140.995 69.1605 140.995 69.1605C151.916 76.9697 159.139 88.4966 160.067 101.499C160.138 102.453 160.176 103.413 160.176 104.379H160.17Z" fill="#4B9AE8"/>
<path d="M113.925 60.0378C113.525 63.1176 110.123 68.1111 106.592 68.1369C103.062 68.1627 99.331 63.0983 99.157 59.78C98.983 56.4682 101.464 54.2002 106.734 54.168C112.063 54.1358 114.324 56.9579 113.925 60.0378Z" fill="#EAC00F"/>
<path d="M125.093 60.0462C128.972 60.0462 132.117 56.9019 132.117 53.0231C132.117 49.1444 128.972 46 125.093 46C121.215 46 118.07 49.1444 118.07 53.0231C118.07 56.9019 121.215 60.0462 125.093 60.0462Z" fill="white"/>
<path d="M125.095 57.7666C127.163 57.7666 128.839 56.0905 128.839 54.0231C128.839 51.9556 127.163 50.2795 125.095 50.2795C123.028 50.2795 121.352 51.9556 121.352 54.0231C121.352 56.0905 123.028 57.7666 125.095 57.7666Z" fill="#040000"/>
<path d="M88.279 60.0462C92.1577 60.0462 95.3021 56.9019 95.3021 53.0231C95.3021 49.1444 92.1577 46 88.279 46C84.4002 46 81.2559 49.1444 81.2559 53.0231C81.2559 56.9019 84.4002 60.0462 88.279 60.0462Z" fill="white"/>
<path d="M88.2787 57.7668C90.3461 57.7668 92.0222 56.0908 92.0222 54.0233C92.0222 51.9558 90.3461 50.2798 88.2787 50.2798C86.2112 50.2798 84.5352 51.9558 84.5352 54.0233C84.5352 56.0908 86.2112 57.7668 88.2787 57.7668Z" fill="#040000"/>
<path d="M176.542 99.5592H176.535C176.535 99.5592 176.522 99.585 176.51 99.5914C174.57 101.164 172.334 102.716 169.841 104.018C169.725 104.082 169.602 104.14 169.48 104.205C169.242 104.327 168.997 104.443 168.752 104.566C168.359 104.759 167.953 104.933 167.541 105.1C166.735 105.448 165.898 105.764 165.041 106.028C163.456 106.537 161.806 106.911 160.086 107.104C158.494 107.291 156.858 107.317 155.17 107.149C153.043 106.956 150.827 106.46 148.559 105.584C147.367 105.133 146.156 104.559 144.925 103.883C142.367 102.472 140.209 100.816 138.392 98.9922H138.385C135.705 96.2925 133.765 93.2513 132.393 90.0683C132.393 90.0619 132.386 90.0554 132.386 90.0426C132.348 89.9652 132.309 89.8815 132.277 89.7977C132.161 89.5207 132.045 89.2436 131.929 88.9665C131.923 88.9601 131.923 88.9408 131.923 88.9343C131.813 88.6508 131.71 88.3609 131.6 88.0709C131.587 88.0387 131.575 88.0194 131.568 87.9936C130.453 84.8429 129.828 81.6213 129.532 78.5672C129.526 78.5028 129.526 78.4448 129.519 78.3803C129.435 77.3945 129.506 76.4731 129.693 75.6033C129.7 75.5775 129.7 75.5582 129.706 75.5324C130.395 72.517 132.618 70.307 135.569 69.2439C136.968 68.7348 138.527 68.4964 140.163 68.5544C142.393 68.6318 144.764 69.2567 147.071 70.5325L149.461 71.8534L173.03 84.8558C179.364 88.3544 181.155 95.7835 176.542 99.5399V99.5592Z" fill="#276286"/>
<g clip-path="url(#clip0_1062_26267)">
<path d="M45.7707 92.6475L31.9505 41.0737C31.7449 40.3062 36.6473 38.9937 36.8517 39.7604L50.6719 91.3343C50.8783 92.1005 45.9751 93.4143 45.7707 92.6475Z" fill="#474747"/>
<path d="M33.9757 34.5793L33.167 34.7959L31.85 35.1488C31.7027 35.1883 31.5784 35.2658 31.4565 35.3447C30.9449 35.6733 30.6684 36.2901 30.8341 36.9084L31.9396 41.0343L32.9112 40.7739L34.6444 40.3095L36.8408 39.721L35.7353 35.5951C35.5296 34.8277 34.7419 34.3729 33.9757 34.5793ZM48.4744 91.9239L46.7412 92.3883L45.7696 92.6486L46.9302 96.9838C47.0959 97.6021 47.6437 97.998 48.251 98.0268C48.396 98.0342 48.5425 98.0391 48.6897 97.9997L50.0068 97.6468L50.8155 97.4301C51.5829 97.2244 52.0377 96.4367 51.8314 95.6705L50.6701 91.3366L48.4744 91.9239Z" fill="#AFCFF5"/>
<path d="M45.3202 50.4991L45.7175 48.1701L43.4109 45.8429C43.1068 45.5362 43.0463 45.0633 43.2626 44.6887C43.4781 44.3154 43.9179 44.1313 44.3355 44.2414L47.5042 45.0753L49.3226 43.5667C49.6303 43.3096 50.0657 43.274 50.4129 43.4744C50.76 43.6749 50.9469 44.0698 50.8781 44.4648L50.4828 46.7817L53.0533 49.2696C53.3685 49.5743 53.4367 50.0567 53.2176 50.4363C52.9978 50.8171 52.5459 50.9992 52.1244 50.8786L48.6845 49.8964L46.8756 51.3972C46.5679 51.6542 46.1326 51.6899 45.7854 51.4895C45.4394 51.2897 45.2526 50.8949 45.3202 50.4991ZM21.1717 64.6568L21.8448 60.7149L19.291 57.6377C18.8671 57.1275 18.8067 56.4074 19.1386 55.8325C19.4698 55.2589 20.1237 54.9511 20.7782 55.0619L24.72 55.7349L27.7965 53.1824C28.3086 52.758 29.0275 52.6968 29.6024 53.0288C30.1773 53.3607 30.4838 54.0138 30.3724 54.6695L29.7 58.6101L32.2538 61.6873C32.677 62.1988 32.7374 62.9189 32.4062 63.4926C32.0743 64.0675 31.4204 64.3752 30.7666 64.2632L26.8248 63.5901L23.7476 66.144C23.2362 66.5671 22.5173 66.6282 21.9424 66.2963C21.3682 65.9632 21.0617 65.31 21.1717 64.6568ZM49.1862 60.6405L49.5426 58.5516L48.1908 56.9216C47.9669 56.6513 47.9351 56.2696 48.1104 55.966C48.2857 55.6623 48.6321 55.499 48.9782 55.5578L51.0657 55.9135L52.6958 54.5617C52.9668 54.3365 53.3485 54.3047 53.6521 54.48C53.957 54.656 54.1191 55.0018 54.0596 55.3491L53.7038 57.4366L55.0557 59.0667C55.2796 59.337 55.3114 59.7187 55.1361 60.0223C54.9601 60.3272 54.6143 60.4892 54.2683 60.4305L52.1807 60.0747L50.55 61.4279C50.2797 61.6518 49.898 61.6836 49.5944 61.5083C49.2895 61.3323 49.1274 60.9865 49.1862 60.6405Z" fill="#EAC00F"/>
<ellipse cx="46.1864" cy="94.486" rx="6.11294" ry="6.75634" transform="rotate(-7.38416 46.1864 94.486)" fill="#276286"/>
</g>
<path d="M93.3187 117.197C97.7746 116.208 103.578 111.785 104.462 109.607C104.98 108.332 102.396 106.34 101.706 105.536C100.125 103.704 100.763 102.8 101.374 100.616C102.071 98.1321 100.418 95.3895 98.0734 94.3137C95.7292 93.238 92.9269 93.5766 90.5695 94.6259C88.2121 95.6751 86.1999 97.3618 84.2277 99.0219C82.7867 98.1122 80.489 94.0946 76.7703 96.7044C74.2003 98.504 73.9679 102.422 74.2999 105.55C75.0769 112.768 76.8566 116.513 80.2101 117.523C84.4468 118.798 89.1351 118.127 93.3187 117.197Z" fill="#F1CB29"/>
<path d="M100.556 96.4321C99.9918 106.161 90.5023 112.615 86 115.458L88.9219 117.968C88.9219 117.968 90.7746 118.008 93.3113 117.197C97.6609 115.816 104.016 111.911 104.454 109.607C105.098 106.254 101.659 106.984 100.882 104.334C100.477 102.933 102.854 100.284 100.556 96.4321Z" fill="#E2A610"/>
<path d="M84.2335 99.0286C84.2335 99.0286 82.5402 97.2954 81.2851 96.5051C80.6609 97.6805 80.216 98.9555 79.9968 100.27C79.605 102.581 79.9968 105.862 80.9199 108.306C81.066 108.684 81.6105 108.624 81.6703 108.226C82.4671 102.973 84.2335 99.0286 84.2335 99.0286Z" fill="#E2A610"/>
<path d="M72.4009 116.341C72.4009 116.341 51.6888 118.579 42.3455 136.561C33.0021 154.544 40.9443 165.448 49.3513 169.419C57.7583 173.39 78.9419 174.791 92.7212 171.524C106.501 168.257 109.947 161.484 109.303 154.943C108.367 145.393 99.4947 139.523 99.4947 139.523C99.4947 139.523 99.8466 127.729 90.6958 120.073C82.5744 113.273 72.4009 116.341 72.4009 116.341Z" fill="#F1CB29"/>
<path d="M69.2402 127.892C70.7676 127.471 72.1616 127.504 73.0791 127.577L73.8252 127.648C76.4032 127.889 78.7354 128.773 80.5693 129.773C82.409 130.777 83.7222 131.885 84.2715 132.55C85.0221 133.458 85.841 134.847 86.1797 136.203C86.4978 137.477 86.3776 138.63 85.5068 139.387L85.3223 139.533C84.2431 140.312 83.0443 140.251 82.1094 139.758C81.1577 139.256 80.5344 138.34 80.5566 137.467V137.465C80.5614 137.234 80.5809 136.999 80.5977 136.744C80.614 136.496 80.6274 136.233 80.6152 135.976C80.5939 135.522 80.4915 135.051 80.1631 134.653L80.0078 134.487C77.0383 131.659 73.5353 131.337 71.7773 131.562L71.4502 131.613C70.744 131.745 69.9442 132.08 69.2871 132.577C68.6314 133.074 68.083 133.76 67.9561 134.606C67.7304 136.114 68.3319 137.317 69.2783 138.448V138.447C69.7408 139.001 70.432 139.451 71.2334 139.894C71.6372 140.117 72.079 140.344 72.5449 140.584C73.0125 140.825 73.5067 141.08 74.0215 141.362C76.0767 142.49 78.4578 144.054 80.6416 146.809C82.1897 148.758 82.3576 150.853 81.8779 153.316L81.7734 153.814C81.3789 155.585 80.0423 157.705 77.6025 158.993C75.1701 160.277 71.6057 160.751 66.7275 159.162C64.1411 158.319 61.8421 156.786 59.9658 154.234C59.0952 153.051 58.3619 151.399 58.3242 149.915C58.3056 149.179 58.4577 148.499 58.832 147.935C59.1578 147.443 59.6667 147.017 60.4268 146.715L60.7686 146.593C61.3202 146.418 61.8398 146.439 62.2773 146.62C62.714 146.801 63.0917 147.149 63.3447 147.67V147.671C63.5874 148.168 63.6161 148.713 63.627 149.34C63.6361 149.87 63.632 150.467 63.79 151.057L63.8682 151.309C64.5337 153.187 67.9644 156.37 73.8604 155.336C75.0351 155.129 76.1253 154.246 76.5537 152.978C76.9876 151.692 76.7287 150.066 75.3193 148.394C74.9006 147.896 74.2274 147.351 73.46 146.807C72.6872 146.259 71.7969 145.698 70.9268 145.174C70.0565 144.649 69.2002 144.156 68.499 143.748C67.966 143.438 67.5321 143.181 67.2422 142.993L67.002 142.829C61.9514 139.086 62.3608 134.722 63.2725 132.99C64.9467 129.807 67.2184 128.448 69.2402 127.892Z" fill="#826E1C" stroke="#826E1C" stroke-width="0.664062"/>
<path d="M78.5117 123.532C70.098 141.502 68.6504 164.193 68.6504 164.193Z" fill="#826E1C"/>
<path d="M78.5117 123.532C70.098 141.502 68.6504 164.193 68.6504 164.193" stroke="#826E1C" stroke-width="3.32031" stroke-miterlimit="10"/>
<path d="M85.492 112.224C91.0967 114.05 92.3385 119.117 91.9334 120.498C91.4487 122.118 85.2397 115.809 76.0092 116.188C72.7819 116.321 73.7182 114.342 75.2123 113.2C77.1846 111.692 80.4983 110.603 85.492 112.224Z" fill="#6D4C41"/>
<path d="M75.4141 113.464C77.2924 112.028 80.4906 110.95 85.3896 112.54V112.539C88.1065 113.424 89.7554 115.09 90.6787 116.693C91.1414 117.497 91.4217 118.283 91.5615 118.947C91.7035 119.621 91.6938 120.134 91.6152 120.403C91.6117 120.415 91.6076 120.422 91.6055 120.426C91.5952 120.429 91.568 120.435 91.5127 120.431C91.3433 120.419 91.0722 120.331 90.6748 120.152C90.2875 119.978 89.8199 119.736 89.2676 119.451C88.7184 119.167 88.0909 118.844 87.3945 118.51C84.6077 117.173 80.6902 115.664 75.9961 115.856H75.9951C75.2107 115.888 74.7356 115.788 74.4707 115.645C74.3433 115.577 74.2712 115.502 74.2305 115.433C74.19 115.365 74.169 115.283 74.1719 115.181C74.1779 114.967 74.2922 114.681 74.5225 114.361C74.7479 114.048 75.0621 113.733 75.4141 113.464Z" fill="#826E1C" stroke="#826E1C" stroke-width="0.664062"/>
<path d="M95.3316 130.087C96.0355 129.602 98.3996 130.439 99.0636 135.067C99.389 137.332 99.4886 139.523 99.4886 139.523C99.4886 139.523 96.6996 137.02 95.7765 135.26C94.6144 133.035 94.1629 130.884 95.3316 130.087Z" fill="#C3A110"/>
<defs>
<clipPath id="clip0_1062_26267">
<rect width="51.7279" height="51.7279" fill="white" transform="translate(6 75.7446) rotate(-60)"/>
</clipPath>
</defs>
</svg>
