<svg width="200" height="200" viewBox="0 0 200 200" fill="none" xmlns="http://www.w3.org/2000/svg">
<mask id="path-1-outside-1_1347_6816" maskUnits="userSpaceOnUse" x="18.8916" y="21" width="162" height="159" fill="black">
<rect fill="white" x="18.8916" y="21" width="162" height="159"/>
<path d="M125.277 32.1846C128.259 24.2574 136.012 27.7797 136.908 27.7803C147.644 35.4146 164.345 38.6445 169.713 39.5254C175.081 40.4063 177.168 50.3892 169.713 52.7383C166.204 53.861 162.309 53.916 158.443 53.3906L157.251 70.3584C162.199 75.1329 169.605 87.1085 165.09 114.2C158.953 151.02 131.956 165.978 122.133 170.514C112.308 175.05 67.9859 179.537 50.6592 153.547C49.8793 152.377 49.171 151.276 48.5322 150.239C47.1829 150.445 45.7146 150.164 44.1025 149.233C39.4546 146.55 37.4825 141.012 39.1221 136.112C37.3167 133.746 35.7614 131.149 34.5225 128.303C33.9613 127.014 33.4594 125.804 33.0137 124.671C31.6491 124.636 30.2535 124.1 28.8311 122.899C24.1479 118.946 23.5558 111.945 27.5088 107.262C31.462 102.579 38.4633 101.986 43.1465 105.939C44.2767 106.894 45.015 107.872 45.4316 108.872C51.4677 109.4 59.0847 110.253 67.8643 110.078C97.3085 109.491 111.608 80.8833 123.905 65.4854C127.056 61.54 130.459 59.3517 133.791 58.3271L136.702 46.1963C132.132 44.3823 122.34 39.9927 125.277 32.1846Z"/>
</mask>
<path d="M125.277 32.1846C128.259 24.2574 136.012 27.7797 136.908 27.7803C147.644 35.4146 164.345 38.6445 169.713 39.5254C175.081 40.4063 177.168 50.3892 169.713 52.7383C166.204 53.861 162.309 53.916 158.443 53.3906L157.251 70.3584C162.199 75.1329 169.605 87.1085 165.09 114.2C158.953 151.02 131.956 165.978 122.133 170.514C112.308 175.05 67.9859 179.537 50.6592 153.547C49.8793 152.377 49.171 151.276 48.5322 150.239C47.1829 150.445 45.7146 150.164 44.1025 149.233C39.4546 146.55 37.4825 141.012 39.1221 136.112C37.3167 133.746 35.7614 131.149 34.5225 128.303C33.9613 127.014 33.4594 125.804 33.0137 124.671C31.6491 124.636 30.2535 124.1 28.8311 122.899C24.1479 118.946 23.5558 111.945 27.5088 107.262C31.462 102.579 38.4633 101.986 43.1465 105.939C44.2767 106.894 45.015 107.872 45.4316 108.872C51.4677 109.4 59.0847 110.253 67.8643 110.078C97.3085 109.491 111.608 80.8833 123.905 65.4854C127.056 61.54 130.459 59.3517 133.791 58.3271L136.702 46.1963C132.132 44.3823 122.34 39.9927 125.277 32.1846Z" fill="#86DA4E"/>
<path d="M125.277 32.1846L119.662 30.0721L119.662 30.0721L125.277 32.1846ZM136.908 27.7803L140.385 22.8905C139.371 22.1691 138.157 21.7811 136.912 21.7803L136.908 27.7803ZM169.713 39.5254L170.685 33.6046L170.684 33.6046L169.713 39.5254ZM169.713 52.7383L167.91 47.0156C167.901 47.0183 167.893 47.021 167.884 47.0237L169.713 52.7383ZM158.443 53.3906L159.252 47.4453C157.608 47.2219 155.945 47.689 154.658 48.7356C153.371 49.7823 152.574 51.3152 152.458 52.97L158.443 53.3906ZM157.251 70.3584L151.266 69.9378C151.141 71.7085 151.807 73.4433 153.085 74.6759L157.251 70.3584ZM165.09 114.2L171.008 115.187V115.187L165.09 114.2ZM122.133 170.514L124.648 175.961L124.648 175.961L122.133 170.514ZM50.6592 153.547L45.6669 156.875L45.6669 156.875L50.6592 153.547ZM48.5322 150.239L53.6404 147.092C52.3764 145.04 50.008 143.944 47.6261 144.308L48.5322 150.239ZM44.1025 149.233L41.1025 154.43L41.1025 154.43L44.1025 149.233ZM39.1221 136.112L44.812 138.016C45.443 136.13 45.0987 134.054 43.8925 132.473L39.1221 136.112ZM34.5225 128.303L29.021 130.697L29.021 130.697L34.5225 128.303ZM33.0137 124.671L38.5973 122.475C37.7152 120.232 35.5772 118.735 33.1684 118.673L33.0137 124.671ZM28.8311 122.899L24.9608 127.484L24.9611 127.485L28.8311 122.899ZM27.5088 107.262L22.9239 103.391L22.9238 103.392L27.5088 107.262ZM43.1465 105.939L47.0167 101.355L47.0167 101.355L43.1465 105.939ZM45.4316 108.872L39.893 111.179C40.7517 113.241 42.6844 114.655 44.9091 114.849L45.4316 108.872ZM67.8643 110.078L67.9838 116.077H67.9838L67.8643 110.078ZM123.905 65.4854L119.217 61.7411L119.217 61.7411L123.905 65.4854ZM133.791 58.3271L135.555 64.0621C137.583 63.4385 139.13 61.7903 139.625 59.7273L133.791 58.3271ZM136.702 46.1963L142.536 47.5964C143.233 44.6939 141.69 41.7207 138.916 40.6195L136.702 46.1963ZM125.277 32.1846L130.893 34.2971C131.089 33.7768 131.274 33.4823 131.388 33.3303C131.498 33.1848 131.569 33.1351 131.588 33.1223C131.609 33.1079 131.736 33.022 132.148 33.0033C132.594 32.983 133.147 33.0537 133.79 33.2014C134.113 33.2754 134.377 33.3482 134.729 33.4419C134.874 33.4805 135.112 33.544 135.352 33.5976C135.46 33.6217 136.119 33.7797 136.904 33.7803L136.908 27.7803L136.912 21.7803C137.323 21.7806 137.63 21.8265 137.735 21.8429C137.867 21.8637 137.956 21.8835 137.974 21.8875C138 21.8933 137.977 21.8888 137.818 21.8465C137.563 21.7784 137.052 21.6379 136.475 21.5055C135.319 21.2403 133.579 20.9258 131.602 21.0157C129.591 21.1072 127.165 21.6271 124.866 23.1817C122.527 24.7632 120.777 27.1078 119.662 30.0721L125.277 32.1846ZM136.908 27.7803L133.431 32.67C139.568 37.0339 147.138 39.9777 153.586 41.9284C160.111 43.9019 165.904 44.9806 168.741 45.4462L169.713 39.5254L170.684 33.6046C168.154 33.1893 162.913 32.2126 157.061 30.4424C151.133 28.6493 144.984 26.161 140.385 22.8905L136.908 27.7803ZM169.713 39.5254L168.741 45.4462C168.284 45.3711 168.154 45.1365 168.25 45.2637C168.361 45.409 168.51 45.725 168.546 46.119C168.58 46.4958 168.49 46.6832 168.469 46.7172C168.462 46.7295 168.449 46.7504 168.403 46.7859C168.356 46.8223 168.215 46.9195 167.91 47.0156L169.713 52.7383L171.516 58.4609C178.379 56.2983 180.967 50.2563 180.497 45.0435C180.086 40.4744 176.99 34.6394 170.685 33.6046L169.713 39.5254ZM169.713 52.7383L167.884 47.0237C165.516 47.7817 162.592 47.8994 159.252 47.4453L158.443 53.3906L157.635 59.3359C162.025 59.9327 166.893 59.9404 171.542 58.4528L169.713 52.7383ZM158.443 53.3906L152.458 52.97L151.266 69.9378L157.251 70.3584L163.236 70.779L164.429 53.8112L158.443 53.3906ZM157.251 70.3584L153.085 74.6759C156.287 77.7662 163.444 87.5804 159.171 113.214L165.09 114.2L171.008 115.187C175.766 86.6366 168.11 72.4995 161.417 66.0409L157.251 70.3584ZM165.09 114.2L159.171 113.214C153.524 147.098 128.778 160.837 119.618 165.066L122.133 170.514L124.648 175.961C135.135 171.119 164.382 154.942 171.008 115.187L165.09 114.2ZM122.133 170.514L119.618 165.066C118.029 165.8 114.166 166.842 108.587 167.469C103.167 168.077 96.6072 168.24 89.8522 167.512C76.1063 166.031 62.8661 161.041 55.6515 150.219L50.6592 153.547L45.6669 156.875C55.779 172.043 73.3633 177.805 88.5664 179.443C96.2858 180.275 103.731 180.09 109.927 179.394C115.963 178.715 121.325 177.495 124.648 175.961L122.133 170.514ZM50.6592 153.547L55.6515 150.219C54.9049 149.099 54.236 148.058 53.6404 147.092L48.5322 150.239L43.4241 153.387C44.106 154.494 44.8537 155.655 45.6669 156.875L50.6592 153.547ZM48.5322 150.239L47.6261 144.308C47.6954 144.297 47.7317 144.309 47.6952 144.301C47.646 144.29 47.4523 144.239 47.1025 144.037L44.1025 149.233L41.1025 154.43C43.6747 155.915 46.5094 156.618 49.4383 156.17L48.5322 150.239ZM44.1025 149.233L47.1026 144.037C44.9738 142.808 44.0597 140.264 44.812 138.016L39.1221 136.112L33.4322 134.208C30.9054 141.759 33.9354 150.292 41.1025 154.43L44.1025 149.233ZM39.1221 136.112L43.8925 132.473C42.365 130.471 41.0605 128.29 40.0239 125.908L34.5225 128.303L29.021 130.697C30.4622 134.008 32.2683 137.02 34.3516 139.751L39.1221 136.112ZM34.5225 128.303L40.0239 125.908C39.4881 124.677 39.0139 123.534 38.5973 122.475L33.0137 124.671L27.4301 126.867C27.9049 128.074 28.4346 129.35 29.021 130.697L34.5225 128.303ZM33.0137 124.671L33.1684 118.673C33.2381 118.675 33.2718 118.692 33.2373 118.678C33.1909 118.659 33.0094 118.575 32.701 118.314L28.8311 122.899L24.9611 127.485C27.2314 129.401 29.8976 130.593 32.859 130.669L33.0137 124.671ZM28.8311 122.899L32.7013 118.315C30.5501 116.499 30.2783 113.283 32.0938 111.132L27.5088 107.262L22.9238 103.392C16.8333 110.607 17.7457 121.394 24.9608 127.484L28.8311 122.899ZM27.5088 107.262L32.0937 111.132C33.9097 108.981 37.1256 108.709 39.2763 110.524L43.1465 105.939L47.0167 101.355C39.801 95.2636 29.0143 96.1765 22.9239 103.391L27.5088 107.262ZM43.1465 105.939L39.2763 110.524C39.8486 111.007 39.9209 111.246 39.893 111.179L45.4316 108.872L50.9703 106.565C50.1091 104.497 48.7049 102.78 47.0167 101.355L43.1465 105.939ZM45.4316 108.872L44.9091 114.849C50.7911 115.364 58.8017 116.26 67.9838 116.077L67.8643 110.078L67.7447 104.079C59.3676 104.246 52.1444 103.436 45.9542 102.895L45.4316 108.872ZM67.8643 110.078L67.9838 116.077C84.8832 115.74 97.2328 107.284 106.641 97.4932C111.326 92.6179 115.378 87.3155 118.955 82.3942C122.635 77.3311 125.631 72.9399 128.594 69.2296L123.905 65.4854L119.217 61.7411C116.031 65.7298 112.628 70.6889 109.248 75.3388C105.765 80.1305 102.096 84.9039 97.9887 89.1787C89.8119 97.6879 80.2895 103.829 67.7447 104.079L67.8643 110.078ZM123.905 65.4854L128.594 69.2296C131.074 66.1239 133.496 64.6953 135.555 64.0621L133.791 58.3271L132.027 52.5922C127.423 54.0081 123.038 56.9562 119.217 61.7411L123.905 65.4854ZM133.791 58.3271L139.625 59.7273L142.536 47.5964L136.702 46.1963L130.868 44.7962L127.957 56.927L133.791 58.3271ZM136.702 46.1963L138.916 40.6195C136.662 39.7251 133.922 38.4806 132.106 36.9055C131.241 36.1555 130.909 35.6004 130.799 35.3072C130.746 35.1649 130.657 34.9257 130.893 34.297L125.277 32.1846L119.662 30.0721C118.429 33.3475 118.463 36.585 119.562 39.5185C120.605 42.301 122.456 44.4208 124.243 45.9709C127.731 48.9962 132.172 50.8535 134.489 51.773L136.702 46.1963Z" fill="white" mask="url(#path-1-outside-1_1347_6816)"/>
<rect x="137.324" y="43.605" width="13.0097" height="35.376" transform="rotate(13.4943 137.324 43.605)" fill="#549E23"/>
<path d="M123.905 65.485C133.743 53.1666 146.036 57.9632 150.953 61.9013C152.58 63.0532 166.643 74.6175 154.102 109.776C141.562 144.934 112.349 154.89 101.879 157.62C91.4084 160.351 46.9888 156.944 34.5224 128.302C22.0561 99.661 38.4195 110.664 67.864 110.078C97.3084 109.491 111.608 80.8829 123.905 65.485Z" fill="#3B86D0"/>
<path d="M41.8583 118.934C37.9051 123.617 33.5135 126.852 28.8303 122.899C24.1471 118.945 23.5553 111.944 27.5085 107.261C31.4618 102.578 38.463 101.986 43.1462 105.939C47.8295 109.892 45.8116 114.251 41.8583 118.934Z" fill="#EAC00F"/>
<path d="M140.491 81.8215C134.332 103.21 111.2 144.121 67.943 136.656" stroke="#EBB800" stroke-width="2.88784" stroke-linecap="round"/>
<rect x="145.989" y="45.0488" width="13.0097" height="35.376" transform="rotate(4.02071 145.989 45.0488)" fill="#61C91D"/>
<path d="M127.548 75.9363C135.056 62.0746 148.003 64.6256 153.539 67.6337C155.343 68.4803 171.227 77.3802 165.09 114.2C158.953 151.02 131.957 165.977 122.133 170.513C112.31 175.049 67.9863 179.538 50.6592 153.547C33.3322 127.556 51.3812 135.498 80.2596 129.722C109.138 123.947 118.162 93.2633 127.548 75.9363Z" fill="#4B9AE8"/>
<path d="M73.021 153.042C78.0032 153.042 82.042 149.003 82.042 144.021C82.042 139.039 78.0032 135 73.021 135C68.0388 135 64 139.039 64 144.021C64 149.003 68.0388 153.042 73.021 153.042Z" fill="white"/>
<path d="M72.8809 149.494C75.8678 149.494 78.2892 147.073 78.2892 144.086C78.2892 141.099 75.8678 138.678 72.8809 138.678C69.894 138.678 67.4727 141.099 67.4727 144.086C67.4727 147.073 69.894 149.494 72.8809 149.494Z" fill="black"/>
<path d="M56.2261 143.031C53.1617 148.338 49.4102 152.298 44.1026 149.233C38.7951 146.169 36.9765 139.382 40.0409 134.075C43.1052 128.767 49.892 126.948 55.1996 130.013C60.5072 133.077 59.2904 137.723 56.2261 143.031Z" fill="#EAC00F"/>
<path d="M146.757 89.0884C144.471 111.228 128.925 155.581 85.0298 155.87" stroke="#3174B7" stroke-width="2.88784" stroke-linecap="round"/>
<path d="M125.278 32.1847C128.26 24.2568 136.014 27.7803 136.908 27.7803C147.644 35.4146 164.345 38.6445 169.713 39.5254C175.081 40.4063 177.168 50.3896 169.713 52.7386C157.784 56.5558 141.382 48.0406 136.908 46.2788C132.435 44.5171 122.296 40.1127 125.278 32.1847Z" fill="#86DA4E"/>
</svg>
