<svg width="200" height="200" viewBox="0 0 200 200" fill="none" xmlns="http://www.w3.org/2000/svg">
<mask id="path-1-outside-1_1347_9802" maskUnits="userSpaceOnUse" x="16" y="16" width="169" height="168" fill="black">
<rect fill="white" x="16" y="16" width="169" height="168"/>
<path d="M93.3271 49.6562C115.391 13.2837 146.067 23.249 146.067 23.249H146.07C182.368 33.6421 183.631 66.1286 173.639 101.487C163.736 136.529 147.042 155.281 134.259 169.336C121.472 183.391 108.384 176.313 104.647 172.615C100.911 168.918 104.402 163.846 96.5605 166.799C79.158 171.747 71.4363 165.964 67.8164 161.375C63.135 155.442 72.534 146.434 65.1387 145.354C33.1998 143.446 30.2053 137.495 27.8389 133.25C25.4726 129.005 25.3619 119.683 29.3438 115.366C33.3226 111.052 35.1861 107.723 28.5 104.561C21.8137 101.398 20.276 91.8788 23.9316 88.498C27.1178 85.5513 27.7759 90.4632 41.1484 94.5947C56.6334 99.3784 71.2664 86.0262 93.3271 49.6562Z"/>
</mask>
<path d="M93.3271 49.6562C115.391 13.2837 146.067 23.249 146.067 23.249H146.07C182.368 33.6421 183.631 66.1286 173.639 101.487C163.736 136.529 147.042 155.281 134.259 169.336C121.472 183.391 108.384 176.313 104.647 172.615C100.911 168.918 104.402 163.846 96.5605 166.799C79.158 171.747 71.4363 165.964 67.8164 161.375C63.135 155.442 72.534 146.434 65.1387 145.354C33.1998 143.446 30.2053 137.495 27.8389 133.25C25.4726 129.005 25.3619 119.683 29.3438 115.366C33.3226 111.052 35.1861 107.723 28.5 104.561C21.8137 101.398 20.276 91.8788 23.9316 88.498C27.1178 85.5513 27.7759 90.4632 41.1484 94.5947C56.6334 99.3784 71.2664 86.0262 93.3271 49.6562Z" fill="#3C75A7"/>
<path d="M93.3271 49.6562L88.1972 46.5444L88.1971 46.5445L93.3271 49.6562ZM146.067 23.249L144.214 28.9555L145.117 29.249H146.067V23.249ZM146.07 23.249L147.722 17.4808L146.912 17.249H146.07V23.249ZM173.639 101.487L167.865 99.8556V99.8557L173.639 101.487ZM134.259 169.336L138.697 173.374L138.697 173.373L134.259 169.336ZM104.647 172.615L100.427 176.88L100.427 176.88L104.647 172.615ZM96.5605 166.799L98.2015 172.57L98.4415 172.502L98.675 172.414L96.5605 166.799ZM67.8164 161.375L72.5273 157.659L72.5265 157.658L67.8164 161.375ZM65.1387 145.354L66.0057 139.417L65.7523 139.38L65.4966 139.365L65.1387 145.354ZM27.8389 133.25L22.598 136.171L22.5981 136.171L27.8389 133.25ZM29.3438 115.366L33.7541 119.434L33.7542 119.434L29.3438 115.366ZM28.5 104.561L31.0653 99.1366L31.0652 99.1365L28.5 104.561ZM23.9316 88.498L28.0054 92.9031L28.0056 92.9029L23.9316 88.498ZM41.1484 94.5947L39.3773 100.327L39.3775 100.327L41.1484 94.5947ZM93.3271 49.6562L98.4571 52.7681C108.615 36.0223 120.36 30.4286 129.131 28.6997C133.624 27.8142 137.514 27.9109 140.252 28.2219C141.617 28.377 142.681 28.5838 143.37 28.7412C143.714 28.8198 143.963 28.8856 144.107 28.9258C144.179 28.9459 144.225 28.9595 144.243 28.965C144.252 28.9677 144.254 28.9685 144.249 28.9669C144.247 28.9662 144.243 28.9649 144.237 28.963C144.234 28.962 144.23 28.9609 144.227 28.9597C144.225 28.959 144.221 28.958 144.22 28.9577C144.217 28.9566 144.214 28.9555 146.067 23.249C147.921 17.5426 147.917 17.5414 147.914 17.5401C147.912 17.5397 147.908 17.5384 147.905 17.5375C147.9 17.5356 147.893 17.5336 147.887 17.5315C147.873 17.5272 147.858 17.5223 147.841 17.5169C147.806 17.5061 147.764 17.4931 147.715 17.4781C147.615 17.4481 147.486 17.4102 147.328 17.3662C147.012 17.2781 146.58 17.1654 146.042 17.0425C144.968 16.7971 143.462 16.5094 141.607 16.2986C137.903 15.8778 132.745 15.7565 126.811 16.9262C114.728 19.3078 100.103 26.9177 88.1972 46.5444L93.3271 49.6562ZM146.067 23.249V29.249H146.07V23.249V17.249H146.067V23.249ZM146.07 23.249L144.419 29.0172C160.642 33.6623 168.367 42.8436 171.407 54.518C174.604 66.7946 172.77 82.4978 167.865 99.8556L173.639 101.487L179.413 103.119C184.499 85.1181 187.031 66.8987 183.02 51.4942C178.852 35.4874 167.797 23.2288 147.722 17.4808L146.07 23.249ZM173.639 101.487L167.865 99.8557C158.345 133.544 142.407 151.46 129.82 165.299L134.259 169.336L138.697 173.373C151.677 159.102 169.128 139.514 179.413 103.119L173.639 101.487ZM134.259 169.336L129.821 165.298C124.601 171.036 119.932 171.954 116.591 171.656C112.843 171.323 109.894 169.366 108.868 168.35L104.647 172.615L100.427 176.88C103.137 179.562 108.601 182.993 115.528 183.609C122.862 184.262 131.131 181.691 138.697 173.374L134.259 169.336ZM104.647 172.615L108.868 168.35C108.812 168.295 108.731 168.215 108.595 167.811C108.506 167.55 108.441 167.303 108.304 166.798C108.197 166.405 107.993 165.642 107.671 164.88C107.333 164.08 106.723 162.915 105.577 161.892C104.352 160.797 102.902 160.207 101.447 160.001C98.9918 159.654 96.4923 160.413 94.4461 161.184L96.5605 166.799L98.675 172.414C99.4842 172.109 99.9693 171.977 100.219 171.925C100.493 171.869 100.272 171.954 99.766 171.883C99.1449 171.795 98.32 171.5 97.5827 170.841C96.925 170.254 96.6659 169.666 96.6155 169.546C96.581 169.465 96.5994 169.486 96.7242 169.945C96.8183 170.291 96.9932 170.963 97.2258 171.652C97.7308 173.146 98.6145 175.086 100.427 176.88L104.647 172.615ZM96.5605 166.799L94.9196 161.028C87.0264 163.272 81.9642 162.906 78.7826 161.928C75.6544 160.967 73.7745 159.24 72.5273 157.659L67.8164 161.375L63.1055 165.091C65.4782 168.099 69.2692 171.558 75.2575 173.399C81.1922 175.223 88.6921 175.274 98.2015 172.57L96.5605 166.799ZM67.8164 161.375L72.5265 157.658C72.4948 157.618 72.4899 157.606 72.479 157.563C72.4607 157.49 72.4262 157.293 72.451 156.9C72.5112 155.948 72.8005 154.924 73.2899 153.101C73.5001 152.318 73.7669 151.298 73.9291 150.263C74.087 149.255 74.222 147.802 73.887 146.229C73.5156 144.485 72.588 142.724 70.8914 141.391C69.3277 140.163 67.5461 139.642 66.0057 139.417L65.1387 145.354L64.2717 151.292C64.5801 151.337 64.1224 151.334 63.4786 150.828C62.7018 150.218 62.2898 149.384 62.1503 148.729C62.0473 148.245 62.1306 148.043 62.0738 148.405C62.0213 148.74 61.9105 149.207 61.7006 149.989C61.3498 151.295 60.6293 153.703 60.475 156.142C60.3067 158.802 60.7452 162.1 63.1063 165.092L67.8164 161.375ZM65.1387 145.354L65.4966 139.365C49.7169 138.422 41.871 136.504 37.8525 134.703C35.9507 133.851 35.0414 133.082 34.5476 132.556C34.0126 131.987 33.7059 131.452 33.0796 130.329L27.8389 133.25L22.5981 136.171C23.1551 137.171 24.1101 138.972 25.8002 140.771C27.5315 142.615 29.8108 144.249 32.9457 145.654C39.0008 148.367 48.6216 150.378 64.7807 151.344L65.1387 145.354ZM27.8389 133.25L33.0797 130.329C32.6235 129.51 32.0641 127.35 32.2029 124.642C32.3431 121.906 33.1155 120.127 33.7541 119.434L29.3438 115.366L24.9334 111.298C21.5902 114.923 20.4269 119.963 20.2186 124.028C20.0088 128.121 20.688 132.744 22.598 136.171L27.8389 133.25ZM29.3438 115.366L33.7542 119.434C34.8107 118.289 35.9493 116.975 36.8604 115.574C37.7485 114.209 38.738 112.288 38.9057 109.963C39.3188 104.237 34.8939 100.947 31.0653 99.1366L28.5 104.561L25.9347 109.985C26.5474 110.274 26.952 110.515 27.2052 110.69C27.46 110.866 27.5041 110.937 27.448 110.871C27.3812 110.793 27.2141 110.569 27.0849 110.196C26.9517 109.811 26.9133 109.426 26.9368 109.1C26.9586 108.798 27.0266 108.634 27.0233 108.642C27.018 108.655 26.9644 108.78 26.8011 109.031C26.4527 109.567 25.8662 110.287 24.9333 111.298L29.3438 115.366ZM28.5 104.561L31.0652 99.1365C29.7125 98.4968 28.6118 97.0541 28.1736 95.2183C27.9624 94.3332 27.9687 93.5836 28.0604 93.0939C28.1569 92.579 28.2789 92.6502 28.0054 92.9031L23.9316 88.498L19.8579 84.093C15.7617 87.8811 15.4931 93.7794 16.5015 98.0042C17.5898 102.564 20.6011 107.462 25.9348 109.985L28.5 104.561ZM23.9316 88.498L28.0056 92.9029C28.0521 92.8599 26.9322 93.8276 25.1723 93.5566C24.4373 93.4434 24.1156 93.1028 25.5737 94.0009C27.9421 95.4595 31.9615 98.0362 39.3773 100.327L41.1484 94.5947L42.9196 88.8621C36.9628 87.0217 33.9669 85.0768 31.8665 83.7832C31.0903 83.3051 29.1709 82.0309 26.9985 81.6964C23.8012 81.2041 21.4042 82.6628 19.8577 84.0932L23.9316 88.498ZM41.1484 94.5947L39.3775 100.327C49.7378 103.528 59.371 100.233 68.7164 92.0793C77.8134 84.1425 87.3844 71.0229 98.4572 52.768L93.3271 49.6562L88.1971 46.5445C77.2092 64.6596 68.4333 76.4011 60.8274 83.037C53.4699 89.4561 48.044 90.4452 42.9194 88.862L41.1484 94.5947Z" fill="white" mask="url(#path-1-outside-1_1347_9802)"/>
<path d="M146.068 23.2487C146.068 23.2487 115.391 13.2834 93.3273 49.6564C71.2665 86.0263 56.6342 99.3783 41.1492 94.5945C27.7763 90.463 27.1182 85.5507 23.932 88.4975C20.2762 91.8781 21.8139 101.398 28.5003 104.56C35.1868 107.722 33.3229 111.052 29.344 115.366C25.362 119.683 25.4727 129.005 27.8392 133.25C30.2056 137.495 33.2003 143.446 65.1396 145.355C72.535 146.435 63.1351 155.443 67.8171 161.375C71.4371 165.964 79.1586 171.747 96.5613 166.799C104.403 163.846 100.911 168.917 104.648 172.615C108.384 176.313 121.473 183.391 134.26 169.336C147.043 155.281 163.737 136.529 173.639 101.487C183.631 66.1286 182.369 33.6418 146.071 23.2487H146.068Z" fill="#6AA6E0"/>
<path d="M119.151 64.0826C124.402 64.0826 128.659 59.8259 128.659 54.575C128.659 49.3241 124.402 45.0674 119.151 45.0674C113.9 45.0674 109.644 49.3241 109.644 54.575C109.644 59.8259 113.9 64.0826 119.151 64.0826Z" fill="white"/>
<path d="M119.15 58.4884C121.312 58.4884 123.064 56.7364 123.064 54.5752C123.064 52.4141 121.312 50.6621 119.15 50.6621C116.989 50.6621 115.237 52.4141 115.237 54.5752C115.237 56.7364 116.989 58.4884 119.15 58.4884Z" fill="black" stroke="black" stroke-width="2.69252" stroke-miterlimit="10"/>
<path d="M162.013 71.4605C167.264 71.4605 171.521 67.2038 171.521 61.9529C171.521 56.702 167.264 52.4453 162.013 52.4453C156.763 52.4453 152.506 56.702 152.506 61.9529C152.506 67.2038 156.763 71.4605 162.013 71.4605Z" fill="white"/>
<path d="M162.15 65.4884C164.312 65.4884 166.064 63.7364 166.064 61.5752C166.064 59.4141 164.312 57.6621 162.15 57.6621C159.989 57.6621 158.237 59.4141 158.237 61.5752C158.237 63.7364 159.989 65.4884 162.15 65.4884Z" fill="black" stroke="black" stroke-width="2.69252" stroke-miterlimit="10"/>
<path d="M148.982 73.138C149.069 77.793 144.016 85.0958 139.493 85.1795C134.969 85.2633 129.653 78.149 129.566 73.494C129.48 68.8389 132.37 65.0095 139.119 64.8869C145.946 64.7612 148.896 68.4829 148.982 73.138Z" fill="#EAC00F"/>
<path d="M156.388 105.215C156.388 105.215 146.611 102.717 140.538 111.013C134.614 119.103 136.729 122.779 139.838 123.141C142.949 123.5 152.717 115.046 152.717 115.046" stroke="#3C75A7" stroke-width="3.59003" stroke-miterlimit="10" stroke-linecap="round"/>
<path d="M89.5918 93.6611C100.38 92.249 112.747 95.0373 111.937 108.5C111.79 110.92 110.145 112.081 107.695 111.614C103.904 110.89 99.5721 109.101 97.1339 105.99" stroke="#3C75A7" stroke-width="3.59003" stroke-miterlimit="10" stroke-linecap="round"/>
</svg>
