<svg width="200" height="200" viewBox="0 0 200 200" fill="none" xmlns="http://www.w3.org/2000/svg">
<mask id="path-1-outside-1_1347_7409" maskUnits="userSpaceOnUse" x="17" y="31" width="167" height="157" fill="black">
<rect fill="white" x="17" y="31" width="167" height="157"/>
<path d="M108.827 43.0703C134.615 30.3957 162.393 38.3311 172.94 59.7832C181.348 76.8841 176.027 97.1211 167.247 108.795C167.869 109.928 168.085 111.227 167.912 112.563C167.4 116.532 163.039 122.966 158.513 123C156.26 123.017 153.943 121.407 152.157 119.26C142.205 122.455 138.019 120.749 134.97 120.749C133.719 127.305 135.969 134 131.896 142.695C127.822 151.391 119.117 160.866 103.805 166.286C97.6469 168.466 87.4276 167.733 76.4854 164.688L75.8018 170.495L81.1133 172.798C82.0402 173.2 82.466 174.278 82.0645 175.205C81.6624 176.132 80.5844 176.558 79.6572 176.156L75.4268 174.322L74.959 179.678C74.871 180.684 73.9832 181.429 72.9766 181.342C71.9701 181.254 71.2249 180.366 71.3125 179.359L71.6914 175.022L65.1191 178.913C64.2496 179.427 63.1272 179.14 62.6123 178.271C62.0978 177.401 62.3854 176.278 63.2549 175.763L72.1123 170.519L72.9248 163.623C63.8248 160.713 54.4805 156.279 46.75 150.655L44.9043 159.294L44.8564 159.475C44.8348 159.542 44.8079 159.607 44.7793 159.67L48.6641 163.735C49.3617 164.466 49.3362 165.624 48.6064 166.322C47.876 167.02 46.717 166.995 46.0186 166.265L43.4023 163.527L41.498 168.296C41.1231 169.234 40.0585 169.691 39.1201 169.316C38.1817 168.942 37.7242 167.877 38.0986 166.938L39.3975 163.686L36.918 164.778C35.9932 165.186 34.9135 164.766 34.5059 163.842C34.0985 162.917 34.5176 161.836 35.4424 161.429L41.2871 158.854C41.2886 158.807 41.2908 158.76 41.2959 158.714L41.3252 158.529L43.5381 148.171C39.6856 144.997 36.3655 141.5 33.8623 137.728C19.6637 116.328 16.9283 81.7909 40.6982 57.4287C53.6678 44.131 84.3797 39.3701 100.892 47.7178C103.373 46.0126 106.023 44.4493 108.827 43.0703Z"/>
</mask>
<path d="M108.827 43.0703C134.615 30.3957 162.393 38.3311 172.94 59.7832C181.348 76.8841 176.027 97.1211 167.247 108.795C167.869 109.928 168.085 111.227 167.912 112.563C167.4 116.532 163.039 122.966 158.513 123C156.26 123.017 153.943 121.407 152.157 119.26C142.205 122.455 138.019 120.749 134.97 120.749C133.719 127.305 135.969 134 131.896 142.695C127.822 151.391 119.117 160.866 103.805 166.286C97.6469 168.466 87.4276 167.733 76.4854 164.688L75.8018 170.495L81.1133 172.798C82.0402 173.2 82.466 174.278 82.0645 175.205C81.6624 176.132 80.5844 176.558 79.6572 176.156L75.4268 174.322L74.959 179.678C74.871 180.684 73.9832 181.429 72.9766 181.342C71.9701 181.254 71.2249 180.366 71.3125 179.359L71.6914 175.022L65.1191 178.913C64.2496 179.427 63.1272 179.14 62.6123 178.271C62.0978 177.401 62.3854 176.278 63.2549 175.763L72.1123 170.519L72.9248 163.623C63.8248 160.713 54.4805 156.279 46.75 150.655L44.9043 159.294L44.8564 159.475C44.8348 159.542 44.8079 159.607 44.7793 159.67L48.6641 163.735C49.3617 164.466 49.3362 165.624 48.6064 166.322C47.876 167.02 46.717 166.995 46.0186 166.265L43.4023 163.527L41.498 168.296C41.1231 169.234 40.0585 169.691 39.1201 169.316C38.1817 168.942 37.7242 167.877 38.0986 166.938L39.3975 163.686L36.918 164.778C35.9932 165.186 34.9135 164.766 34.5059 163.842C34.0985 162.917 34.5176 161.836 35.4424 161.429L41.2871 158.854C41.2886 158.807 41.2908 158.76 41.2959 158.714L41.3252 158.529L43.5381 148.171C39.6856 144.997 36.3655 141.5 33.8623 137.728C19.6637 116.328 16.9283 81.7909 40.6982 57.4287C53.6678 44.131 84.3797 39.3701 100.892 47.7178C103.373 46.0126 106.023 44.4493 108.827 43.0703Z" fill="#040000"/>
<path d="M108.827 43.0703L106.181 37.6856L106.179 37.6861L108.827 43.0703ZM172.94 59.7832L178.325 57.136L178.325 57.1359L172.94 59.7832ZM167.247 108.795L162.452 105.188C161.035 107.073 160.852 109.612 161.986 111.68L167.247 108.795ZM167.912 112.563L173.863 113.331L173.863 113.331L167.912 112.563ZM158.513 123L158.557 129L158.557 129L158.513 123ZM152.157 119.26L156.77 115.423C155.205 113.541 152.654 112.799 150.323 113.547L152.157 119.26ZM134.97 120.749L134.97 114.749C132.09 114.749 129.616 116.796 129.076 119.625L134.97 120.749ZM131.896 142.695L137.329 145.241L137.329 145.241L131.896 142.695ZM103.805 166.286L105.807 171.942L105.807 171.942L103.805 166.286ZM76.4854 164.688L78.0939 158.908C76.4058 158.438 74.5966 158.73 73.1417 159.707C71.6867 160.683 70.7314 162.247 70.5265 163.987L76.4854 164.688ZM75.8018 170.495L69.8429 169.794C69.5332 172.424 70.985 174.946 73.4152 176L75.8018 170.495ZM81.1133 172.798L83.5007 167.293L83.4999 167.293L81.1133 172.798ZM82.0645 175.205L87.5692 177.592L87.5702 177.59L82.0645 175.205ZM79.6572 176.156L77.2707 181.661L77.2722 181.662L79.6572 176.156ZM75.4268 174.322L77.8133 168.817C76.0435 168.05 74.0129 168.18 72.3558 169.168C70.6988 170.155 69.6174 171.879 69.4495 173.8L75.4268 174.322ZM74.959 179.678L80.9362 180.2L80.9362 180.2L74.959 179.678ZM72.9766 181.342L72.4533 187.319L72.456 187.319L72.9766 181.342ZM71.3125 179.359L65.3353 178.837L65.3351 178.839L71.3125 179.359ZM71.6914 175.022L77.6686 175.545C77.8644 173.304 76.7907 171.142 74.8873 169.944C72.9838 168.746 70.5703 168.714 68.6349 169.859L71.6914 175.022ZM65.1191 178.913L68.174 184.077L68.1756 184.076L65.1191 178.913ZM62.6123 178.271L57.4484 181.326L57.45 181.328L62.6123 178.271ZM63.2549 175.763L60.1981 170.6L60.1979 170.6L63.2549 175.763ZM72.1123 170.519L75.1691 175.682C76.779 174.728 77.8521 173.079 78.0711 171.221L72.1123 170.519ZM72.9248 163.623L78.8836 164.325C79.2196 161.473 77.4877 158.783 74.7525 157.908L72.9248 163.623ZM46.75 150.655L50.2797 145.803C48.6371 144.608 46.5014 144.326 44.6045 145.052C42.7075 145.778 41.3068 147.415 40.8824 149.402L46.75 150.655ZM44.9043 159.294L50.7043 160.83C50.7291 160.737 50.7516 160.642 50.7719 160.548L44.9043 159.294ZM44.8564 159.475L50.5675 161.314C50.5998 161.214 50.6295 161.113 50.6564 161.011L44.8564 159.475ZM44.7793 159.67L39.3168 157.188C38.3028 159.419 38.7481 162.043 40.4414 163.815L44.7793 159.67ZM48.6641 163.735L53.0027 159.591L53.002 159.59L48.6641 163.735ZM48.6064 166.322L52.7518 170.66L52.7547 170.657L48.6064 166.322ZM46.0186 166.265L41.6811 170.41L41.6833 170.413L46.0186 166.265ZM43.4023 163.527L47.7398 159.382C46.3293 157.906 44.2651 157.249 42.2608 157.637C40.2566 158.025 38.5874 159.406 37.8302 161.302L43.4023 163.527ZM41.498 168.296L47.0696 170.523L47.0702 170.521L41.498 168.296ZM39.1201 169.316L36.8946 174.888L36.8963 174.889L39.1201 169.316ZM38.0986 166.938L32.5264 164.714L32.5258 164.715L38.0986 166.938ZM39.3975 163.686L44.9697 165.91C45.8735 163.647 45.3182 161.062 43.5647 159.369C41.8112 157.676 39.208 157.212 36.9777 158.195L39.3975 163.686ZM36.918 164.778L39.3366 170.269L39.3377 170.269L36.918 164.778ZM34.5059 163.842L29.0149 166.26L29.0156 166.262L34.5059 163.842ZM35.4424 161.429L33.0232 155.938L33.0227 155.938L35.4424 161.429ZM41.2871 158.854L43.7063 164.344C45.8171 163.414 47.2079 161.357 47.2839 159.051L41.2871 158.854ZM41.2959 158.714L35.3701 157.773C35.355 157.868 35.3422 157.964 35.3317 158.059L41.2959 158.714ZM41.3252 158.529L35.4576 157.276C35.4354 157.38 35.416 157.484 35.3994 157.589L41.3252 158.529ZM43.5381 148.171L49.4057 149.424C49.8737 147.234 49.0823 144.965 47.3534 143.54L43.5381 148.171ZM33.8623 137.728L28.8627 141.045L28.8627 141.045L33.8623 137.728ZM40.6982 57.4287L44.9928 61.6188L44.9935 61.618L40.6982 57.4287ZM100.892 47.7178L98.1846 53.0724C100.142 54.0618 102.483 53.9047 104.29 52.6625L100.892 47.7178ZM108.827 43.0703L111.474 48.455C134.984 36.8996 158.791 44.6035 167.556 62.4305L172.94 59.7832L178.325 57.1359C165.995 32.0586 134.245 23.8917 106.181 37.6856L108.827 43.0703ZM172.94 59.7832L167.556 62.4304C174.716 76.9931 170.251 94.8186 162.452 105.188L167.247 108.795L172.042 112.401C181.803 99.4235 187.98 76.775 178.325 57.136L172.94 59.7832ZM167.247 108.795L161.986 111.68C161.979 111.667 161.974 111.655 161.97 111.644C161.966 111.633 161.965 111.628 161.966 111.631C161.967 111.636 161.975 111.688 161.961 111.796L167.912 112.563L173.863 113.331C174.182 110.858 173.797 108.262 172.508 105.91L167.247 108.795ZM167.912 112.563L161.961 111.796C161.936 111.993 161.809 112.521 161.444 113.29C161.094 114.026 160.616 114.793 160.068 115.465C159.51 116.149 158.988 116.603 158.599 116.85C158.205 117.101 158.174 117.002 158.468 117L158.513 123L158.557 129C163.527 128.963 167.268 125.623 169.367 123.05C171.588 120.327 173.427 116.711 173.863 113.331L167.912 112.563ZM158.513 123L158.469 117C158.784 116.998 158.743 117.102 158.31 116.835C157.892 116.577 157.342 116.111 156.77 115.423L152.157 119.26L147.544 123.097C149.731 125.726 153.594 129.036 158.557 129L158.513 123ZM152.157 119.26L150.323 113.547C145.914 114.963 143.018 115.223 141.036 115.203C140.01 115.193 139.131 115.107 138.214 115.003C137.426 114.915 136.159 114.749 134.97 114.749L134.97 120.749L134.97 126.749C135.305 126.749 135.704 126.797 136.87 126.928C137.906 127.045 139.268 127.186 140.914 127.202C144.275 127.236 148.448 126.752 153.991 124.973L152.157 119.26ZM134.97 120.749L129.076 119.625C128.332 123.525 128.573 128.003 128.494 130.747C128.404 133.87 128.024 136.817 126.462 140.15L131.896 142.695L137.329 145.241C139.841 139.878 140.372 135.131 140.489 131.093C140.616 126.677 140.357 124.529 140.863 121.873L134.97 120.749ZM131.896 142.695L126.462 140.15C123.086 147.357 115.637 155.733 101.803 160.63L103.805 166.286L105.807 171.942C122.597 165.999 132.558 155.424 137.329 145.241L131.896 142.695ZM103.805 166.286L101.803 160.63C99.7867 161.344 96.595 161.724 92.3109 161.458C88.1129 161.197 83.2416 160.341 78.0939 158.908L76.4854 164.688L74.8768 170.469C80.6713 172.081 86.3809 173.113 91.5675 173.435C96.6681 173.752 101.665 173.408 105.807 171.942L103.805 166.286ZM76.4854 164.688L70.5265 163.987L69.8429 169.794L75.8018 170.495L81.7606 171.197L82.4442 165.39L76.4854 164.688ZM75.8018 170.495L73.4152 176L78.7267 178.303L81.1133 172.798L83.4999 167.293L78.1883 164.99L75.8018 170.495ZM81.1133 172.798L78.7259 178.302C76.612 177.386 75.6445 174.931 76.5587 172.82L82.0645 175.205L87.5702 177.59C89.2875 173.625 87.4684 169.014 83.5007 167.293L81.1133 172.798ZM82.0645 175.205L76.5597 172.818C77.4765 170.704 79.9312 169.736 82.0423 170.651L79.6572 176.156L77.2722 181.662C81.2376 183.38 85.8484 181.56 87.5692 177.592L82.0645 175.205ZM79.6572 176.156L82.0437 170.651L77.8133 168.817L75.4268 174.322L73.0403 179.827L77.2707 181.661L79.6572 176.156ZM75.4268 174.322L69.4495 173.8L68.9817 179.156L74.959 179.678L80.9362 180.2L81.404 174.844L75.4268 174.322ZM74.959 179.678L68.9818 179.155C69.1824 176.861 71.2041 175.165 73.4972 175.364L72.9766 181.342L72.456 187.319C76.7624 187.694 80.5596 184.508 80.9362 180.2L74.959 179.678ZM72.9766 181.342L73.4998 175.365C75.7932 175.565 77.4896 177.586 77.2899 179.88L71.3125 179.359L65.3351 178.839C64.9602 183.146 68.1469 186.942 72.4533 187.319L72.9766 181.342ZM71.3125 179.359L77.2897 179.882L77.6686 175.545L71.6914 175.022L65.7142 174.5L65.3353 178.837L71.3125 179.359ZM71.6914 175.022L68.6349 169.859L62.0627 173.75L65.1191 178.913L68.1756 184.076L74.7479 180.186L71.6914 175.022ZM65.1191 178.913L62.0643 173.749C64.0457 172.577 66.6014 173.232 67.7746 175.213L62.6123 178.271L57.45 181.328C59.653 185.047 64.4535 186.278 68.174 184.077L65.1191 178.913ZM62.6123 178.271L67.7762 175.215C68.9474 177.195 68.295 179.751 66.3119 180.926L63.2549 175.763L60.1979 170.6C56.4758 172.804 55.2482 177.607 57.4484 181.326L62.6123 178.271ZM63.2549 175.763L66.3117 180.926L75.1691 175.682L72.1123 170.519L69.0555 165.356L60.1981 170.6L63.2549 175.763ZM72.1123 170.519L78.0711 171.221L78.8836 164.325L72.9248 163.623L66.966 162.921L66.1535 169.816L72.1123 170.519ZM72.9248 163.623L74.7525 157.908C66.1522 155.158 57.4067 150.988 50.2797 145.803L46.75 150.655L43.2203 155.507C51.5544 161.57 61.4975 166.268 71.0971 169.338L72.9248 163.623ZM46.75 150.655L40.8824 149.402L39.0367 158.04L44.9043 159.294L50.7719 160.548L52.6176 151.909L46.75 150.655ZM44.9043 159.294L39.1043 157.758L39.0564 157.938L44.8564 159.475L50.6564 161.011L50.7043 160.83L44.9043 159.294ZM44.8564 159.475L39.1454 157.635C39.2186 157.408 39.2902 157.246 39.3168 157.188L44.7793 159.67L50.2418 162.152C50.3257 161.967 50.451 161.676 50.5675 161.314L44.8564 159.475ZM44.7793 159.67L40.4414 163.815L44.3261 167.881L48.6641 163.735L53.002 159.59L49.1172 155.525L44.7793 159.67ZM48.6641 163.735L44.3254 167.88C42.7375 166.217 42.7933 163.58 44.4582 161.987L48.6064 166.322L52.7547 170.657C55.8791 167.667 55.986 162.714 53.0027 159.591L48.6641 163.735ZM48.6064 166.322L44.4611 161.984C46.1241 160.395 48.7611 160.452 50.3538 162.117L46.0186 166.265L41.6833 170.413C44.6728 173.537 49.628 173.645 52.7518 170.66L48.6064 166.322ZM46.0186 166.265L50.3561 162.119L47.7398 159.382L43.4023 163.527L39.0648 167.673L41.6811 170.41L46.0186 166.265ZM43.4023 163.527L37.8302 161.302L35.9259 166.071L41.498 168.296L47.0702 170.521L48.9745 165.753L43.4023 163.527ZM41.498 168.296L35.9265 166.069C36.7812 163.931 39.2066 162.891 41.3439 163.744L39.1201 169.316L36.8963 174.889C40.9104 176.491 45.465 174.538 47.0696 170.523L41.498 168.296ZM39.1201 169.316L41.3456 163.744C43.4817 164.598 44.5255 167.021 43.6714 169.162L38.0986 166.938L32.5258 164.715C30.9229 168.732 32.8817 173.286 36.8946 174.888L39.1201 169.316ZM38.0986 166.938L43.6709 169.163L44.9697 165.91L39.3975 163.686L33.8252 161.461L32.5264 164.714L38.0986 166.938ZM39.3975 163.686L36.9777 158.195L34.4982 159.288L36.918 164.778L39.3377 170.269L41.8172 169.176L39.3975 163.686ZM36.918 164.778L34.4993 159.287C36.6063 158.359 39.0673 159.315 39.9961 161.422L34.5059 163.842L29.0156 166.262C30.7596 170.218 35.38 172.012 39.3366 170.269L36.918 164.778ZM34.5059 163.842L39.9968 161.423C40.9238 163.528 39.972 165.989 37.862 166.919L35.4424 161.429L33.0227 155.938C29.0633 157.683 27.2732 162.306 29.0149 166.26L34.5059 163.842ZM35.4424 161.429L37.8616 166.919L43.7063 164.344L41.2871 158.854L38.8679 153.363L33.0232 155.938L35.4424 161.429ZM41.2871 158.854L47.2839 159.051C47.2838 159.052 47.2828 159.086 47.2799 159.135C47.2769 159.186 47.2712 159.267 47.2601 159.369L41.2959 158.714L35.3317 158.059C35.3008 158.341 35.2931 158.574 35.2904 158.656L41.2871 158.854ZM41.2959 158.714L47.2217 159.654L47.251 159.47L41.3252 158.529L35.3994 157.589L35.3701 157.773L41.2959 158.714ZM41.3252 158.529L47.1928 159.783L49.4057 149.424L43.5381 148.171L37.6705 146.917L35.4576 157.276L41.3252 158.529ZM43.5381 148.171L47.3534 143.54C43.8487 140.653 40.9671 137.583 38.8619 134.41L33.8623 137.728L28.8627 141.045C31.7639 145.417 35.5225 149.341 39.7228 152.802L43.5381 148.171ZM33.8623 137.728L38.8619 134.41C25.8853 114.853 23.5984 83.5463 44.9928 61.6188L40.6982 57.4287L36.4037 53.2386C10.2582 80.0355 13.442 117.803 28.8627 141.045L33.8623 137.728ZM40.6982 57.4287L44.9935 61.618C50.2423 56.2365 59.7492 52.0787 70.4099 50.3816C81.0629 48.6857 91.4585 49.672 98.1846 53.0724L100.892 47.7178L103.599 42.3632C93.8128 37.4159 80.5966 36.6088 68.5233 38.5308C56.4576 40.4517 44.1238 45.3232 36.4029 53.2394L40.6982 57.4287ZM100.892 47.7178L104.29 52.6625C106.538 51.1173 108.938 49.7019 111.475 48.4545L108.827 43.0703L106.179 37.6861C103.108 39.1967 100.207 40.908 97.4931 42.773L100.892 47.7178Z" fill="white" mask="url(#path-1-outside-1_1347_7409)"/>
<path d="M81.1131 172.798C82.0402 173.2 82.4661 174.278 82.0643 175.205C81.6623 176.132 80.5843 176.558 79.6571 176.157L75.4265 174.323L74.9586 179.677C74.8708 180.684 73.9832 181.43 72.9763 181.342C71.9698 181.254 71.225 180.366 71.3126 179.36L71.6912 175.022L65.1191 178.913C64.2495 179.427 63.1273 179.14 62.6123 178.27C62.0979 177.401 62.3851 176.277 63.2546 175.763L72.1127 170.518L73.8439 155.836L73.8752 155.652C74.0763 154.746 74.9343 154.123 75.8753 154.234C76.8163 154.345 77.5065 155.151 77.4914 156.078L77.478 156.265L75.8013 170.495L81.1131 172.798Z" fill="#474747"/>
<path d="M46.71 142.089C47.6364 142.287 48.2488 143.154 48.1478 144.076L48.1178 144.261L44.9048 159.295L44.8565 159.475C44.8349 159.542 44.8084 159.608 44.7797 159.671L48.6642 163.736C49.362 164.467 49.3363 165.624 48.6062 166.323C47.8758 167.021 46.7171 166.995 46.0187 166.265L43.4026 163.527L41.4979 168.296C41.1229 169.234 40.0587 169.692 39.1203 169.317C38.1818 168.942 37.7243 167.877 38.0988 166.939L39.3979 163.686L36.9185 164.779C35.9936 165.186 34.9132 164.767 34.5057 163.842C34.0983 162.917 34.5179 161.837 35.4427 161.429L41.2873 158.854C41.2888 158.808 41.2906 158.761 41.2957 158.714L41.3257 158.53L44.5378 143.496L44.587 143.315C44.8715 142.433 45.7836 141.891 46.71 142.089Z" fill="#474747"/>
<path d="M103.804 166.287C88.4915 171.707 48.0604 159.127 33.8618 137.728C19.6631 116.328 16.9284 81.7913 40.6984 57.4291C53.668 44.1314 84.3796 39.3701 100.891 47.7177C103.372 46.0126 106.023 44.4496 108.827 43.0706C134.614 30.3959 162.393 38.331 172.94 59.7831C184.354 83 170.469 112 156.969 117.5C143.469 123 138.469 120.749 134.969 120.749C133.719 127.305 135.969 134 131.896 142.695C127.822 151.391 119.117 160.866 103.804 166.287Z" fill="#4B9AE8"/>
<path d="M91.9861 76.0369L55.8246 96.3601C47.0013 101.314 44.5822 111.736 51.0629 116.944C61.195 125.07 77.2247 132.847 95.3647 122.654C110.524 114.127 115.478 99.6417 116.619 87.0694C117.69 75.2729 104.106 69.2154 91.9859 76.0171L91.9861 76.0369Z" fill="#276288"/>
<path d="M167.912 112.564C167.4 116.532 163.038 122.967 158.512 123C153.986 123.033 149.203 116.507 148.98 112.232C148.757 107.956 151.937 105.042 158.694 105C165.525 104.959 168.424 108.595 167.912 112.564Z" fill="#EAC00F"/>
<path d="M156.469 96C161.164 96 164.969 92.1944 164.969 87.5C164.969 82.8056 161.164 79 156.469 79C151.775 79 147.969 82.8056 147.969 87.5C147.969 92.1944 151.775 96 156.469 96Z" fill="white"/>
<path d="M156.469 92.0307C158.971 92.0307 161 90.0022 161 87.5C161 84.9977 158.971 82.9692 156.469 82.9692C153.967 82.9692 151.938 84.9977 151.938 87.5C151.938 90.0022 153.967 92.0307 156.469 92.0307Z" fill="#040000"/>
</svg>
