<svg width="200" height="200" viewBox="0 0 200 200" fill="none" xmlns="http://www.w3.org/2000/svg">
<mask id="path-1-outside-1_898_1567" maskUnits="userSpaceOnUse" x="20.8184" y="20.8242" width="159" height="159" fill="black">
<rect fill="white" x="20.8184" y="20.8242" width="159" height="159"/>
<path d="M156.312 26.8242C165.75 26.8245 173.401 34.4756 173.401 43.9131V156.317C173.401 165.755 165.75 173.406 156.312 173.406H43.9082C34.4707 173.406 26.8185 165.755 26.8184 156.317V43.9131C26.8184 34.4755 34.4706 26.8242 43.9082 26.8242H156.312Z"/>
</mask>
<path d="M156.312 26.8242C165.75 26.8245 173.401 34.4756 173.401 43.9131V156.317C173.401 165.755 165.75 173.406 156.312 173.406H43.9082C34.4707 173.406 26.8185 165.755 26.8184 156.317V43.9131C26.8184 34.4755 34.4706 26.8242 43.9082 26.8242H156.312Z" fill="white"/>
<path d="M156.312 26.8242L156.313 20.8242H156.312V26.8242ZM173.401 156.317L179.401 156.317V156.317H173.401ZM156.312 173.406L156.312 179.406L156.313 179.406L156.312 173.406ZM26.8184 156.317L20.8184 156.317L20.8184 156.317L26.8184 156.317ZM156.312 26.8242L156.312 32.8242C162.436 32.8244 167.401 37.7895 167.401 43.9131H173.401H179.401C179.401 31.1618 169.063 20.8246 156.313 20.8242L156.312 26.8242ZM173.401 43.9131H167.401V156.317H173.401H179.401V43.9131H173.401ZM173.401 156.317L167.401 156.317C167.401 162.441 162.436 167.406 156.312 167.406L156.312 173.406L156.313 179.406C169.063 179.406 179.401 169.069 179.401 156.317L173.401 156.317ZM156.312 173.406V167.406H43.9082V173.406V179.406H156.312V173.406ZM43.9082 173.406V167.406C37.784 167.406 32.8184 162.441 32.8184 156.317L26.8184 156.317L20.8184 156.317C20.8185 169.069 31.1573 179.406 43.9082 179.406V173.406ZM26.8184 156.317H32.8184V43.9131H26.8184H20.8184V156.317H26.8184ZM26.8184 43.9131H32.8184C32.8184 37.7896 37.7839 32.8242 43.9082 32.8242V26.8242V20.8242C31.1573 20.8242 20.8184 31.1613 20.8184 43.9131H26.8184ZM43.9082 26.8242V32.8242H156.312V26.8242V20.8242H43.9082V26.8242Z" fill="white" mask="url(#path-1-outside-1_898_1567)"/>
<path d="M156.312 32.073C162.851 32.073 168.152 37.3738 168.152 43.9128V156.317C168.152 162.856 162.851 168.157 156.312 168.157H43.9077C37.3687 168.157 32.0679 162.856 32.0679 156.317V43.9128C32.0679 37.3738 37.3687 32.073 43.9077 32.073H156.312Z" fill="#C2DFFC" stroke="#0B3F74" stroke-width="10.4967" stroke-miterlimit="10"/>
<path d="M163 133.76V157.055C163 160.677 160.036 163.647 156.408 163.647H44.0037C40.3815 163.647 37.4121 160.683 37.4121 157.055V135.579C41.7084 127.061 48.4926 119.592 57.021 113.793C56.5716 111.037 56.3308 108.201 56.3308 105.307C56.3308 78.7319 76.1912 58.9197 100.69 58.9197C125.189 58.9197 145.039 78.7319 145.039 105.307C145.039 108.196 144.809 111.032 144.354 113.787C152.273 119.17 158.682 125.991 163 133.76Z" fill="#4B98E6"/>
<path d="M126.485 102.21C131.439 102.21 135.455 98.1938 135.455 93.2396C135.455 88.2854 131.439 84.2693 126.485 84.2693C121.531 84.2693 117.514 88.2854 117.514 93.2396C117.514 98.1938 121.531 102.21 126.485 102.21Z" fill="white"/>
<path d="M126.447 98.1652C129.188 98.1652 131.41 95.9433 131.41 93.2024C131.41 90.4614 129.188 88.2395 126.447 88.2395C123.706 88.2395 121.484 90.4614 121.484 93.2024C121.484 95.9433 123.706 98.1652 126.447 98.1652Z" fill="black"/>
<path d="M111.363 102.487C111.02 107.288 104.89 114.335 100.01 113.998C95.1301 113.661 90.0676 105.835 90.4146 101.033C90.7571 96.2318 94.2315 92.5594 101.514 93.0628C108.881 93.5749 111.71 97.685 111.363 102.487Z" fill="#EAC00F"/>
<path d="M75.7506 102.21C80.7048 102.21 84.721 98.1938 84.721 93.2396C84.721 88.2854 80.7048 84.2693 75.7506 84.2693C70.7964 84.2693 66.7803 88.2854 66.7803 93.2396C66.7803 98.1938 70.7964 102.21 75.7506 102.21Z" fill="white"/>
<path d="M75.7131 98.1652C78.454 98.1652 80.6759 95.9433 80.6759 93.2024C80.6759 90.4614 78.454 88.2395 75.7131 88.2395C72.9722 88.2395 70.7502 90.4614 70.7502 93.2024C70.7502 95.9433 72.9722 98.1652 75.7131 98.1652Z" fill="black"/>
<path d="M132.155 107.422C132.995 111.376 130.802 112.729 128.731 112.729C126.661 112.729 124.082 111.178 124.66 107.422C125.211 103.853 126.34 100.889 128.405 100.889C130.47 100.889 131.401 103.896 132.15 107.422H132.155Z" fill="#E8F0F8"/>
<path d="M133.606 126.615C134.777 132.121 131.717 134.009 128.833 134.009C125.949 134.009 122.354 131.848 123.162 126.615C123.97 121.383 125.5 117.509 128.384 117.509C131.268 117.509 132.557 121.698 133.606 126.615Z" fill="#E8F0F8"/>
</svg>
