<svg width="200" height="200" viewBox="0 0 200 200" fill="none" xmlns="http://www.w3.org/2000/svg">
<mask id="path-1-outside-1_1062_21403" maskUnits="userSpaceOnUse" x="14.0811" y="13.4653" width="172" height="172" fill="black">
<rect fill="white" x="14.0811" y="13.4653" width="172" height="172"/>
<path d="M98.3494 20.5305C108.661 19.6893 117.739 27.0669 119.174 38.0198C140.959 40.6658 157.768 47.8231 162.674 56.7444C166.298 60.4885 170.309 69.7788 172.153 75.4651C173.955 80.9972 178.891 106.996 178.043 115.824C177.768 118.684 177.248 119.19 176.612 118.609L179.802 133.036C179.999 133.92 180.055 134.825 179.943 135.722C178.99 143.561 170.113 179.432 100.51 179.432C30.9065 179.432 21.4407 144.255 20.1716 135.96C20.0175 134.937 20.0603 133.892 20.2986 132.883L25.2927 111.598C24.4217 111.03 23.7844 110.116 23.5662 108.904C22.8802 105.054 37.0271 60.4151 37.0769 60.2581C38.998 49.8897 56.7245 41.2682 80.7419 38.1585C81.7368 28.5717 88.9949 21.2938 98.3494 20.5305Z"/>
</mask>
<path d="M98.3494 20.5305C108.661 19.6893 117.739 27.0669 119.174 38.0198C140.959 40.6658 157.768 47.8231 162.674 56.7444C166.298 60.4885 170.309 69.7788 172.153 75.4651C173.955 80.9972 178.891 106.996 178.043 115.824C177.768 118.684 177.248 119.19 176.612 118.609L179.802 133.036C179.999 133.92 180.055 134.825 179.943 135.722C178.99 143.561 170.113 179.432 100.51 179.432C30.9065 179.432 21.4407 144.255 20.1716 135.96C20.0175 134.937 20.0603 133.892 20.2986 132.883L25.2927 111.598C24.4217 111.03 23.7844 110.116 23.5662 108.904C22.8802 105.054 37.0271 60.4151 37.0769 60.2581C38.998 49.8897 56.7245 41.2682 80.7419 38.1585C81.7368 28.5717 88.9949 21.2938 98.3494 20.5305Z" fill="#E9FDAD"/>
<path d="M98.3494 20.5305L97.8615 14.5504L97.8614 14.5504L98.3494 20.5305ZM119.174 38.0198L113.224 38.7992C113.58 41.5155 115.731 43.6457 118.45 43.976L119.174 38.0198ZM162.674 56.7444L157.416 59.6352C157.673 60.103 157.992 60.5344 158.363 60.9179L162.674 56.7444ZM172.153 75.4651L166.446 77.316L166.448 77.3234L172.153 75.4651ZM178.043 115.824L184.015 116.398L184.015 116.397L178.043 115.824ZM176.612 118.609L180.66 114.18C178.729 112.415 175.876 112.104 173.61 113.414C171.345 114.723 170.189 117.349 170.754 119.904L176.612 118.609ZM179.802 133.036L173.944 134.332L173.945 134.338L179.802 133.036ZM179.943 135.722L173.989 134.978C173.989 134.985 173.988 134.991 173.987 134.997L179.943 135.722ZM100.51 179.432L100.51 185.432H100.51V179.432ZM20.1716 135.96L14.2385 136.854L14.2406 136.868L20.1716 135.96ZM20.2986 132.883L26.1381 134.262L26.1399 134.254L20.2986 132.883ZM25.2927 111.598L31.1341 112.968C31.711 110.51 30.6865 107.953 28.5713 106.573L25.2927 111.598ZM23.5662 108.904L17.6592 109.956L17.661 109.966L23.5662 108.904ZM37.0769 60.2581L42.7965 62.071C42.8713 61.835 42.9314 61.5946 42.9765 61.3512L37.0769 60.2581ZM80.7419 38.1585L81.5124 44.1088C84.2713 43.7516 86.4228 41.5448 86.7099 38.7778L80.7419 38.1585ZM98.3494 20.5305L98.8372 26.5107C105.805 25.9422 112.185 30.8626 113.224 38.7992L119.174 38.0198L125.123 37.2404C123.293 23.2711 111.518 13.4364 97.8615 14.5504L98.3494 20.5305ZM119.174 38.0198L118.45 43.976C128.926 45.2483 137.994 47.5843 144.887 50.5426C151.989 53.5903 155.927 56.927 157.416 59.6352L162.674 56.7444L167.931 53.8536C164.515 47.6405 157.596 42.9379 149.62 39.5151C141.436 36.0029 131.207 33.4372 119.897 32.0636L119.174 38.0198ZM162.674 56.7444L158.363 60.9179C159.463 62.0538 161.03 64.5635 162.675 67.9798C164.242 71.2335 165.606 74.726 166.446 77.316L172.153 75.4651L177.86 73.6142C176.856 70.5179 175.292 66.5221 173.487 62.773C171.76 59.1865 169.509 55.1791 166.984 52.5709L162.674 56.7444ZM172.153 75.4651L166.448 77.3234C167.192 79.6062 168.817 87.0798 170.17 95.3746C171.547 103.812 172.407 111.741 172.07 115.25L178.043 115.824L184.015 116.397C184.526 111.078 183.343 101.594 182.013 93.4424C180.66 85.1479 178.916 76.856 177.858 73.6068L172.153 75.4651ZM178.043 115.824L172.07 115.25C172.015 115.826 171.96 116.134 171.934 116.254C171.888 116.459 171.945 116.05 172.301 115.448C172.643 114.871 173.956 113.031 176.631 112.837C178.983 112.666 180.421 113.961 180.66 114.18L176.612 118.609L172.564 123.037C173.122 123.547 174.863 124.997 177.499 124.805C180.46 124.591 182.039 122.554 182.625 121.566C183.225 120.553 183.502 119.517 183.652 118.841C183.82 118.08 183.933 117.251 184.015 116.398L178.043 115.824ZM176.612 118.609L170.754 119.904L173.944 134.332L179.802 133.036L185.661 131.741L182.471 117.313L176.612 118.609ZM179.802 133.036L173.945 134.338C174.006 134.612 174.009 134.823 173.989 134.978L179.943 135.722L185.897 136.466C186.102 134.826 185.991 133.227 185.66 131.735L179.802 133.036ZM179.943 135.722L173.987 134.997C173.632 137.913 171.631 147.338 161.953 156.059C152.314 164.746 134.284 173.432 100.51 173.432V179.432V185.432C136.338 185.432 157.548 176.183 169.986 164.974C182.386 153.799 185.3 141.37 185.899 136.446L179.943 135.722ZM100.51 179.432L100.51 173.432C66.7115 173.432 48.5026 164.905 38.6684 156.293C28.817 147.665 26.5954 138.273 26.1026 135.053L20.1716 135.96L14.2406 136.868C15.017 141.942 18.1627 154.286 30.7623 165.32C43.3791 176.37 64.7046 185.432 100.51 185.432L100.51 179.432ZM20.1716 135.96L26.1047 135.067C26.0645 134.8 26.0755 134.527 26.1381 134.262L20.2986 132.883L14.4591 131.505C14.0451 133.258 13.9704 135.074 14.2386 136.854L20.1716 135.96ZM20.2986 132.883L26.1399 134.254L31.1341 112.968L25.2927 111.598L19.4514 110.227L14.4572 131.513L20.2986 132.883ZM25.2927 111.598L28.5713 106.573C28.8149 106.732 29.0354 106.948 29.2033 107.204C29.3718 107.461 29.4448 107.694 29.4713 107.841L23.5662 108.904L17.661 109.966C18.1637 112.759 19.7207 115.127 22.0141 116.623L25.2927 111.598ZM23.5662 108.904L29.4731 107.851C29.6039 108.585 29.4945 108.987 29.5598 108.454C29.5992 108.133 29.683 107.624 29.8288 106.903C30.1178 105.473 30.5826 103.536 31.1874 101.212C32.3924 96.5817 34.0754 90.7123 35.7981 84.9017C39.239 73.2961 42.7746 62.14 42.7965 62.071L37.0769 60.2581L31.3573 58.4452C31.3294 58.5332 27.7667 69.775 24.2932 81.4906C22.5587 87.3406 20.8305 93.3625 19.5742 98.1897C18.9485 100.594 18.4202 102.777 18.0667 104.526C17.8912 105.394 17.7413 106.24 17.6488 106.995C17.5822 107.539 17.4426 108.741 17.6592 109.956L23.5662 108.904ZM37.0769 60.2581L42.9765 61.3512C43.4007 59.0618 46.0569 55.4807 53.3083 51.852C60.2101 48.3983 69.9492 45.606 81.5124 44.1088L80.7419 38.1585L79.9715 32.2081C67.5172 33.8207 56.3844 36.8941 47.9382 41.1206C39.8418 45.1722 32.6742 51.086 31.1773 59.165L37.0769 60.2581ZM80.7419 38.1585L86.7099 38.7778C87.4193 31.9412 92.4833 27.0291 98.8373 26.5107L98.3494 20.5305L97.8614 14.5504C85.5066 15.5585 76.0542 25.2023 74.774 37.5392L80.7419 38.1585Z" fill="white" mask="url(#path-1-outside-1_1062_21403)"/>
<path d="M36.9014 62.1366L20.2982 132.883C20.0598 133.892 20.0177 134.937 20.172 135.961C21.441 144.255 30.9065 179.432 100.51 179.432C170.113 179.432 178.989 143.561 179.943 135.722C180.055 134.825 179.999 133.92 179.802 133.037L164.125 62.1296C164.125 62.1296 152.409 87.35 100.517 87.35C48.6246 87.35 36.9014 62.1366 36.9014 62.1366Z" fill="#605E1C"/>
<path d="M172.287 112.262C170.415 112.991 176.585 125.78 170.478 128.031C164.371 130.281 158.684 103.764 148.707 105.713C138.73 107.662 144.178 144.69 131.157 147.509C118.144 150.327 120.177 93.373 90.5679 126.776C83.4442 134.811 80.0226 102.383 68.7762 101.156C57.5298 99.9287 52.3343 128.178 46.7251 117.163C41.1159 106.148 40.4077 101.836 32.05 110.257C28.7897 113.545 24.2322 112.605 23.5662 108.903C22.879 105.047 37.0773 60.2577 37.0773 60.2577C39.4962 47.2024 66.9743 36.9165 100.517 36.9165C130.982 36.9165 156.441 45.4074 162.674 56.745C166.299 60.4891 170.31 69.7793 172.154 75.4657C173.956 80.9977 178.892 106.996 178.043 115.824C177.195 124.651 174.012 111.063 172.287 112.262Z" fill="#C9DE89"/>
<path d="M100.025 65.6073C114.802 65.6073 126.781 59.7277 126.781 52.4748C126.781 45.2219 114.802 39.3423 100.025 39.3423C85.2485 39.3423 73.2695 45.2219 73.2695 52.4748C73.2695 59.7277 85.2485 65.6073 100.025 65.6073Z" fill="#344808"/>
<path d="M77.3715 56.801C77.2663 53.4915 77.8833 49.6422 80.2252 46.9849C80.8352 46.2908 81.1437 45.3793 80.9824 44.4748C80.8562 43.7596 80.758 43.0304 80.7019 42.2872C79.7554 30.7252 87.6924 21.4 98.3498 20.5306C109.007 19.6611 118.347 27.5701 119.293 39.132C119.356 39.8963 119.377 40.6465 119.363 41.3897C119.349 42.2381 119.146 43.4721 119.798 44.012C123.612 47.1672 124.341 51.0095 124.012 54.1576C123.886 55.3917 124.075 56.6327 123.142 57.446C120.099 60.1034 114.862 64.6538 101.764 64.9272C88.667 65.2007 81.957 61.3935 78.7107 59.2269C77.8973 58.68 77.3995 57.7756 77.3715 56.794V56.801Z" fill="#4B9AE8"/>
<path d="M110.192 39.2583C112.322 39.2583 114.049 37.5318 114.049 35.402C114.049 33.2722 112.322 31.5457 110.192 31.5457C108.062 31.5457 106.336 33.2722 106.336 35.402C106.336 37.5318 108.062 39.2583 110.192 39.2583Z" fill="white"/>
<path d="M110.132 37.7418C111.409 37.7418 112.444 36.7067 112.444 35.4299C112.444 34.153 111.409 33.1179 110.132 33.1179C108.855 33.1179 107.82 34.153 107.82 35.4299C107.82 36.7067 108.855 37.7418 110.132 37.7418Z" fill="black"/>
<path d="M88.4423 41.0881C90.572 41.0881 92.2986 39.3616 92.2986 37.2318C92.2986 35.102 90.572 33.3755 88.4423 33.3755C86.3125 33.3755 84.5859 35.102 84.5859 37.2318C84.5859 39.3616 86.3125 41.0881 88.4423 41.0881Z" fill="white"/>
<path d="M88.3823 39.5716C89.6591 39.5716 90.6942 38.5365 90.6942 37.2597C90.6942 35.9828 89.6591 34.9478 88.3823 34.9478C87.1054 34.9478 86.0703 35.9828 86.0703 37.2597C86.0703 38.5365 87.1054 39.5716 88.3823 39.5716Z" fill="black"/>
<path d="M104.218 39.6313C104.241 41.5594 101.843 44.5728 99.722 44.5938C97.6013 44.6149 95.1329 41.649 95.104 39.7208C95.075 37.7927 96.4482 36.2123 99.6177 36.1807C102.787 36.149 104.195 37.6979 104.218 39.6313Z" fill="#EAC00F"/>
<path d="M46.5708 61.4302C46.4799 61.3834 46.3739 61.371 46.2746 61.3986C46.1753 61.4263 46.0911 61.4912 46.0401 61.5797C45.9892 61.6683 45.9753 61.7737 46.0012 61.8734C46.0272 61.9732 46.0911 62.0586 46.1772 62.1138C46.1772 62.1138 46.1772 62.1138 46.1772 62.1138C47.7516 63.1187 49.4295 64.0397 51.1009 64.8896C57.8359 68.2837 64.9921 70.8295 72.3136 72.6441C81.3533 74.8691 90.6756 76.1191 100.012 76.0742C117.141 75.913 134.06 71.7808 149.531 64.7045C151.221 63.9094 152.931 63.0485 154.543 62.1163C154.633 62.0642 154.7 61.9792 154.728 61.879C154.756 61.7788 154.743 61.6717 154.693 61.5811C154.642 61.4905 154.557 61.4236 154.457 61.395C154.357 61.3664 154.25 61.3785 154.159 61.4277C154.159 61.4277 154.159 61.4277 154.159 61.4277C152.547 62.2925 150.831 63.0941 149.136 63.8313C133.611 70.3939 116.806 74.1309 100.012 74.1134C90.8567 74.0632 81.7095 72.7905 72.8171 70.6018C65.6161 68.8165 58.5024 66.5833 51.6298 63.7437C49.9242 63.0325 48.2006 62.2649 46.5708 61.4302Z" fill="#8BAA2D"/>
<path d="M66.5759 77.5724C64.4722 75.4689 40.2829 66.5643 47.2943 74.4172C54.3058 82.2701 68.6796 79.6758 66.5759 77.5724Z" fill="#E9FDAD"/>
<path d="M147.388 55.4254C151.876 52.0598 144.934 51.5692 144.584 49.8162C144.233 48.0632 149.842 48.7645 151.595 50.5173C152.704 51.6259 153.348 53.3218 152.296 55.4254C151.245 57.5289 144.584 62.4368 141.779 62.0863C138.974 61.7357 141.779 59.6322 147.388 55.4254Z" fill="#E9FDAD"/>
<path d="M170.477 82.4561C172.42 89.5525 172.2 95.7676 170.893 96.1254C168.724 96.7188 168.914 91.3054 166.972 84.2089C165.029 77.1125 161.362 71.5882 163.859 70.4269C165.166 70.0691 168.535 75.3597 170.477 82.4561Z" fill="#E9FDAD"/>
<path d="M122.565 131.582C120.172 124.625 119.69 118.513 120.748 118.149C122.505 117.545 122.927 122.868 125.32 129.826C127.712 136.783 131.384 142.179 129.413 143.345C128.354 143.709 124.958 138.54 122.565 131.582Z" fill="#E9FDAD"/>
<ellipse cx="170.828" cy="99.9848" rx="1.4023" ry="2.10345" fill="#E9FDAD"/>
</svg>
