<svg width="200" height="200" viewBox="0 0 200 200" fill="none" xmlns="http://www.w3.org/2000/svg">
<mask id="path-1-outside-1_1347_8568" maskUnits="userSpaceOnUse" x="9.11572" y="30.0547" width="180" height="147" fill="black">
<rect fill="white" x="9.11572" y="30.0547" width="180" height="147"/>
<path d="M117.263 36.0547C127.44 36.0547 136.584 40.6739 142.901 48.2891C142.923 48.2975 142.946 48.3037 142.966 48.3125C144.919 50.2654 148.735 55.3267 149.669 59.3408C153.544 59.7946 158.824 63.3438 159.015 66.6514C159.186 69.6076 155.332 73.0741 151.788 74.3174C151.789 76.8272 151.815 82.2236 151.815 82.2236C152.755 82.8974 153.67 83.5978 154.555 84.3242L171.775 83.5791L171.779 83.5664C179.44 83.2369 184.326 88.7599 182.013 94.4668C180.019 99.4152 176.141 105.028 170.422 109.258C171.077 112.163 171.422 115.164 171.422 118.234C171.422 127.479 168.314 135.687 162.969 142.437C160.604 145.421 157.797 148.116 154.625 150.485L162.121 158.366L167.16 151.097C168.111 150.192 169.336 149.76 170.553 149.79C171.771 149.821 172.982 150.313 173.882 151.26C175.682 153.153 175.607 156.176 173.714 157.977L164.661 166.588C163.231 167.948 160.948 167.891 159.587 166.461L148.25 154.542C139.921 159.035 129.876 161.651 119.023 161.907C118.45 161.934 117.863 161.935 117.277 161.935C116.691 161.935 116.104 161.921 115.532 161.907C108.753 161.747 102.286 160.663 96.355 158.774L80.7759 169.511C79.1508 170.631 76.9045 170.218 75.7847 168.593L71.2036 161.944C68.9407 162.43 66.5903 162.69 64.1597 162.695C39.264 162.749 17.5261 151.997 15.3833 130.275C13.2406 108.554 23.7137 76.6339 55.4663 72.126C66.1537 70.6087 75.3089 71.4038 82.7544 74.1289C82.7542 74.1044 82.7534 74.0797 82.7534 74.0557C82.7535 69.6001 83.4 65.3769 84.5923 61.4775C86.0856 55.2763 89.1875 50.9622 90.4731 49.6768C90.495 49.6787 90.5172 49.6797 90.5396 49.6816C96.8678 41.2404 106.488 36.0548 117.263 36.0547ZM86.2856 154.521C84.0683 156.34 81.6869 157.901 79.1548 159.157L79.9614 161.069L88.1011 155.46C87.4873 155.157 86.8822 154.844 86.2856 154.521Z"/>
</mask>
<path d="M117.263 36.0547C127.44 36.0547 136.584 40.6739 142.901 48.2891C142.923 48.2975 142.946 48.3037 142.966 48.3125C144.919 50.2654 148.735 55.3267 149.669 59.3408C153.544 59.7946 158.824 63.3438 159.015 66.6514C159.186 69.6076 155.332 73.0741 151.788 74.3174C151.789 76.8272 151.815 82.2236 151.815 82.2236C152.755 82.8974 153.67 83.5978 154.555 84.3242L171.775 83.5791L171.779 83.5664C179.44 83.2369 184.326 88.7599 182.013 94.4668C180.019 99.4152 176.141 105.028 170.422 109.258C171.077 112.163 171.422 115.164 171.422 118.234C171.422 127.479 168.314 135.687 162.969 142.437C160.604 145.421 157.797 148.116 154.625 150.485L162.121 158.366L167.16 151.097C168.111 150.192 169.336 149.76 170.553 149.79C171.771 149.821 172.982 150.313 173.882 151.26C175.682 153.153 175.607 156.176 173.714 157.977L164.661 166.588C163.231 167.948 160.948 167.891 159.587 166.461L148.25 154.542C139.921 159.035 129.876 161.651 119.023 161.907C118.45 161.934 117.863 161.935 117.277 161.935C116.691 161.935 116.104 161.921 115.532 161.907C108.753 161.747 102.286 160.663 96.355 158.774L80.7759 169.511C79.1508 170.631 76.9045 170.218 75.7847 168.593L71.2036 161.944C68.9407 162.43 66.5903 162.69 64.1597 162.695C39.264 162.749 17.5261 151.997 15.3833 130.275C13.2406 108.554 23.7137 76.6339 55.4663 72.126C66.1537 70.6087 75.3089 71.4038 82.7544 74.1289C82.7542 74.1044 82.7534 74.0797 82.7534 74.0557C82.7535 69.6001 83.4 65.3769 84.5923 61.4775C86.0856 55.2763 89.1875 50.9622 90.4731 49.6768C90.495 49.6787 90.5172 49.6797 90.5396 49.6816C96.8678 41.2404 106.488 36.0548 117.263 36.0547ZM86.2856 154.521C84.0683 156.34 81.6869 157.901 79.1548 159.157L79.9614 161.069L88.1011 155.46C87.4873 155.157 86.8822 154.844 86.2856 154.521Z" fill="#040000"/>
<path d="M117.263 36.0547V30.0547H117.263L117.263 36.0547ZM142.901 48.2891L138.283 52.1198C138.951 52.9248 139.817 53.5412 140.797 53.908L142.901 48.2891ZM142.966 48.3125L147.209 44.0699C146.671 43.5318 146.035 43.101 145.336 42.8004L142.966 48.3125ZM149.669 59.3408L143.826 60.7012C144.399 63.166 146.458 65.0057 148.972 65.3001L149.669 59.3408ZM159.015 66.6514L165.005 66.3048V66.3047L159.015 66.6514ZM151.788 74.3174L149.801 68.6556C147.396 69.4996 145.786 71.772 145.788 74.3216L151.788 74.3174ZM151.815 82.2236L145.815 82.2521C145.824 84.1768 146.756 85.9802 148.321 87.1012L151.815 82.2236ZM154.555 84.3242L150.749 88.9628C151.891 89.8997 153.339 90.3825 154.815 90.3186L154.555 84.3242ZM171.775 83.5791L172.034 89.5735C174.57 89.4638 176.763 87.7699 177.51 85.3436L171.775 83.5791ZM171.779 83.5664L171.521 77.5719C168.984 77.6811 166.791 79.3751 166.044 81.8019L171.779 83.5664ZM182.013 94.4668L176.452 92.2132L176.448 92.2244L182.013 94.4668ZM170.422 109.258L166.854 104.434C164.943 105.848 164.046 108.258 164.569 110.577L170.422 109.258ZM171.422 118.234L177.422 118.234V118.234H171.422ZM162.969 142.437L167.672 146.163L167.673 146.161L162.969 142.437ZM154.625 150.485L151.035 145.678C149.66 146.704 148.791 148.27 148.646 149.979C148.501 151.688 149.095 153.378 150.277 154.621L154.625 150.485ZM162.121 158.366L157.773 162.501C159.017 163.809 160.783 164.487 162.583 164.348C164.382 164.209 166.024 163.268 167.052 161.784L162.121 158.366ZM167.16 151.097L163.024 146.749C162.728 147.031 162.461 147.342 162.229 147.679L167.16 151.097ZM170.553 149.79L170.703 143.792H170.703L170.553 149.79ZM173.882 151.26L178.23 147.125L178.23 147.125L173.882 151.26ZM173.714 157.977L177.849 162.324L177.85 162.324L173.714 157.977ZM164.661 166.588L168.795 170.936L168.796 170.935L164.661 166.588ZM159.587 166.461L155.24 170.596L155.24 170.596L159.587 166.461ZM148.25 154.542L152.598 150.407C150.732 148.445 147.784 147.976 145.402 149.261L148.25 154.542ZM119.023 161.907L118.881 155.909C118.833 155.91 118.785 155.912 118.738 155.914L119.023 161.907ZM117.277 161.935L117.277 167.935H117.277V161.935ZM115.532 161.907L115.675 155.909L115.673 155.909L115.532 161.907ZM96.355 158.774L98.1751 153.057C96.4071 152.494 94.4781 152.781 92.9503 153.834L96.355 158.774ZM80.7759 169.511L84.1803 174.451L84.1806 174.451L80.7759 169.511ZM75.7847 168.593L70.844 171.997L70.8442 171.997L75.7847 168.593ZM71.2036 161.944L76.1443 158.54C74.7662 156.54 72.3182 155.568 69.9435 156.078L71.2036 161.944ZM64.1597 162.695L64.1727 168.695H64.1727L64.1597 162.695ZM15.3833 130.275L9.41228 130.864L9.41228 130.864L15.3833 130.275ZM55.4663 72.126L54.623 66.1855L54.6229 66.1855L55.4663 72.126ZM82.7544 74.1289L80.6921 79.7634C82.538 80.439 84.5977 80.1676 86.2056 79.037C87.8135 77.9063 88.7656 76.0598 88.7543 74.0942L82.7544 74.1289ZM82.7534 74.0557L76.7534 74.0556V74.0557H82.7534ZM84.5923 61.4775L90.3301 63.2319C90.3654 63.1163 90.3973 62.9997 90.4255 62.8822L84.5923 61.4775ZM90.4731 49.6768L91.0163 43.7014C89.2432 43.5402 87.49 44.1748 86.2309 45.4337L90.4731 49.6768ZM90.5396 49.6816L90.0295 55.6599C92.0916 55.8359 94.0989 54.9366 95.3403 53.2806L90.5396 49.6816ZM86.2856 154.521L89.138 149.243C86.9951 148.085 84.3648 148.337 82.4813 149.882L86.2856 154.521ZM79.1548 159.157L76.4883 153.782C73.6477 155.192 72.3941 158.568 73.6266 161.489L79.1548 159.157ZM79.9614 161.069L74.4332 163.401C75.1347 165.064 76.5473 166.323 78.2797 166.829C80.0121 167.335 81.8801 167.034 83.3661 166.01L79.9614 161.069ZM88.1011 155.46L91.5058 160.4C93.2579 159.193 94.2394 157.148 94.0853 155.025C93.9312 152.903 92.6645 151.021 90.7563 150.079L88.1011 155.46ZM117.263 36.0547V42.0547C125.549 42.0547 133.037 45.7956 138.283 52.1198L142.901 48.2891L147.519 44.4583C140.131 35.5521 129.331 30.0547 117.263 30.0547V36.0547ZM142.901 48.2891L140.797 53.908C140.88 53.9391 140.947 53.9623 140.982 53.9742C141 53.9802 141.014 53.985 141.019 53.9866C141.028 53.9896 141.021 53.9873 141.016 53.9859C141.006 53.9823 140.956 53.9653 140.89 53.9413C140.822 53.9166 140.72 53.8777 140.596 53.8246L142.966 48.3125L145.336 42.8004C145.203 42.7429 145.09 42.6999 145.011 42.6713C144.935 42.6434 144.874 42.6227 144.852 42.6155C144.843 42.6122 144.83 42.608 144.833 42.6091C144.834 42.6091 144.834 42.6093 144.835 42.6096C144.836 42.6099 144.837 42.6103 144.839 42.6109C144.842 42.612 144.847 42.6137 144.854 42.6159C144.877 42.624 144.933 42.6433 145.005 42.6701L142.901 48.2891ZM142.966 48.3125L138.724 52.5551C139.357 53.1886 140.546 54.6056 141.678 56.3369C142.853 58.1344 143.595 59.7089 143.826 60.7012L149.669 59.3408L155.513 57.9805C154.81 54.9587 153.176 51.9954 151.722 49.7705C150.224 47.4794 148.528 45.3893 147.209 44.0699L142.966 48.3125ZM149.669 59.3408L148.972 65.3001C149.24 65.3316 149.729 65.4473 150.368 65.7218C150.99 65.9892 151.613 66.347 152.147 66.7431C152.696 67.1509 153.017 67.4997 153.158 67.6947C153.321 67.9201 153.065 67.6781 153.025 66.998L159.015 66.6514L165.005 66.3047C164.749 61.8846 161.496 58.7387 159.301 57.1088C156.827 55.2723 153.568 53.7564 150.367 53.3815L149.669 59.3408ZM159.015 66.6514L153.025 66.998C152.989 66.3724 153.178 66.0662 153.126 66.1677C153.079 66.2583 152.913 66.5213 152.542 66.8937C151.768 67.6719 150.684 68.346 149.801 68.6556L151.788 74.3174L153.774 79.9791C156.435 79.0455 159.051 77.3646 161.047 75.3597C162.842 73.5562 165.24 70.3563 165.005 66.3048L159.015 66.6514ZM151.788 74.3174L145.788 74.3216C145.788 75.5876 145.795 77.5734 145.802 79.2355C145.805 80.0681 145.809 80.8221 145.811 81.3679C145.812 81.6408 145.813 81.8618 145.814 82.0145C145.814 82.0909 145.815 82.1502 145.815 82.1905C145.815 82.2106 145.815 82.226 145.815 82.2363C145.815 82.2415 145.815 82.2454 145.815 82.248C145.815 82.2494 145.815 82.2504 145.815 82.251C145.815 82.2514 145.815 82.2516 145.815 82.2518C145.815 82.2519 145.815 82.2519 145.815 82.252C145.815 82.252 145.815 82.2521 151.815 82.2236C157.815 82.1952 157.815 82.1952 157.815 82.1952C157.815 82.1951 157.815 82.1951 157.815 82.195C157.815 82.1948 157.815 82.1946 157.815 82.1943C157.815 82.1936 157.815 82.1927 157.815 82.1914C157.815 82.1888 157.815 82.1849 157.815 82.1798C157.815 82.1696 157.815 82.1544 157.815 82.1344C157.814 82.0943 157.814 82.0353 157.814 81.9592C157.813 81.807 157.812 81.5867 157.811 81.3145C157.808 80.7701 157.805 80.0181 157.802 79.1878C157.795 77.5243 157.788 75.5569 157.788 74.3131L151.788 74.3174ZM151.815 82.2236L148.321 87.1012C149.158 87.7008 149.968 88.3216 150.749 88.9628L154.555 84.3242L158.361 79.6857C157.372 78.874 156.353 78.0941 155.309 77.3461L151.815 82.2236ZM154.555 84.3242L154.815 90.3186L172.034 89.5735L171.775 83.5791L171.516 77.5847L154.296 78.3298L154.555 84.3242ZM171.775 83.5791L177.51 85.3436L177.513 85.3309L171.779 83.5664L166.044 81.8019L166.04 81.8146L171.775 83.5791ZM171.779 83.5664L172.037 89.5609C174.412 89.4587 175.725 90.2767 176.222 90.8169C176.467 91.0833 176.548 91.3005 176.575 91.4412C176.599 91.5675 176.616 91.8089 176.452 92.2132L182.013 94.4668L187.574 96.7204C189.638 91.6279 188.446 86.3774 185.05 82.689C181.767 79.1233 176.806 77.3446 171.521 77.5719L171.779 83.5664ZM182.013 94.4668L176.448 92.2244C174.838 96.2209 171.617 100.911 166.854 104.434L170.422 109.258L173.991 114.082C180.665 109.144 185.201 102.609 187.578 96.7092L182.013 94.4668ZM170.422 109.258L164.569 110.577C165.128 113.057 165.422 115.616 165.422 118.234H171.422H177.422C177.422 114.713 177.026 111.269 176.275 107.938L170.422 109.258ZM171.422 118.234L165.422 118.234C165.422 126.062 162.812 132.97 158.266 138.712L162.969 142.437L167.673 146.161C173.816 138.404 177.422 128.896 177.422 118.234L171.422 118.234ZM162.969 142.437L158.267 138.71C156.245 141.261 153.819 143.598 151.035 145.678L154.625 150.485L158.214 155.293C161.775 152.634 164.963 149.581 167.672 146.163L162.969 142.437ZM154.625 150.485L150.277 154.621L157.773 162.501L162.121 158.366L166.468 154.231L158.972 146.35L154.625 150.485ZM162.121 158.366L167.052 161.784L172.091 154.515L167.16 151.097L162.229 147.679L157.189 154.948L162.121 158.366ZM167.16 151.097L171.295 155.444C171.046 155.681 170.71 155.796 170.403 155.788L170.553 149.79L170.703 143.792C167.962 143.723 165.176 144.702 163.024 146.749L167.16 151.097ZM170.553 149.79L170.403 155.788C170.115 155.781 169.789 155.662 169.535 155.395L173.882 151.26L178.23 147.125C176.175 144.965 173.426 143.86 170.703 143.792L170.553 149.79ZM173.882 151.26L169.535 155.395C169.052 154.887 169.07 154.113 169.579 153.629L173.714 157.977L177.85 162.324C182.144 158.239 182.313 151.418 178.23 147.125L173.882 151.26ZM173.714 157.977L169.579 153.629L160.526 162.24L164.661 166.588L168.796 170.935L177.849 162.324L173.714 157.977ZM164.661 166.588L160.526 162.24C161.497 161.317 163.011 161.354 163.935 162.326L159.587 166.461L155.24 170.596C158.884 174.427 164.965 174.579 168.795 170.936L164.661 166.588ZM159.587 166.461L163.935 162.326L152.598 150.407L148.25 154.542L143.903 158.677L155.24 170.596L159.587 166.461ZM148.25 154.542L145.402 149.261C137.978 153.266 128.875 155.673 118.881 155.909L119.023 161.907L119.165 167.906C130.878 167.629 141.864 164.805 151.099 159.823L148.25 154.542ZM119.023 161.907L118.738 155.914C118.332 155.933 117.889 155.935 117.277 155.935V161.935V167.935C117.838 167.935 118.569 167.936 119.308 167.9L119.023 161.907ZM117.277 161.935L117.277 155.935C116.773 155.935 116.256 155.923 115.675 155.909L115.532 161.907L115.389 167.906C115.953 167.919 116.608 167.935 117.277 167.935L117.277 161.935ZM115.532 161.907L115.673 155.909C109.441 155.762 103.541 154.765 98.1751 153.057L96.355 158.774L94.5349 164.492C101.032 166.56 108.065 167.733 115.39 167.906L115.532 161.907ZM96.355 158.774L92.9503 153.834L77.3712 164.57L80.7759 169.511L84.1806 174.451L99.7597 163.715L96.355 158.774ZM80.7759 169.511L77.3714 164.57C78.4731 163.811 79.9635 164.083 80.7251 165.188L75.7847 168.593L70.8442 171.997C73.8456 176.353 79.8284 177.45 84.1803 174.451L80.7759 169.511ZM75.7847 168.593L80.7254 165.188L76.1443 158.54L71.2036 161.944L66.2629 165.349L70.844 171.997L75.7847 168.593ZM71.2036 161.944L69.9435 156.078C68.0883 156.477 66.1559 156.691 64.1466 156.695L64.1597 162.695L64.1727 168.695C67.0248 168.689 69.7931 168.384 72.4638 167.811L71.2036 161.944ZM64.1597 162.695L64.1466 156.695C52.4753 156.721 41.9905 154.198 34.3721 149.534C26.9125 144.967 22.2143 138.404 21.3543 129.686L15.3833 130.275L9.41228 130.864C10.695 143.868 17.9372 153.542 28.1062 159.768C38.1163 165.897 50.9483 168.724 64.1727 168.695L64.1597 162.695ZM15.3833 130.275L21.3543 129.686C20.3896 119.907 22.2945 107.752 27.9462 97.6825C33.4953 87.7963 42.5586 80.0186 56.3097 78.0664L55.4663 72.126L54.6229 66.1855C36.6215 68.7412 24.5719 79.1776 17.4819 91.8089C10.4946 104.257 8.23424 118.922 9.41228 130.864L15.3833 130.275ZM55.4663 72.126L56.3097 78.0664C66.2622 76.6535 74.382 77.4538 80.6921 79.7634L82.7544 74.1289L84.8167 68.4944C76.2359 65.3538 66.0453 64.564 54.623 66.1855L55.4663 72.126ZM82.7544 74.1289L88.7543 74.0942C88.7541 74.0606 88.7537 74.0326 88.7534 74.0145C88.7533 74.0053 88.7531 73.9974 88.753 73.9921C88.753 73.9893 88.7529 73.9869 88.7529 73.9852C88.7529 73.983 88.7528 73.9823 88.7528 73.9811C88.7527 73.9762 88.7529 73.9836 88.753 73.9943C88.7532 74.0059 88.7534 74.0276 88.7534 74.0557H82.7534H76.7534C76.7534 74.0957 76.7538 74.1295 76.7541 74.1533C76.7544 74.1762 76.7547 74.1957 76.7549 74.2031C76.7551 74.2148 76.755 74.2101 76.755 74.2065C76.7549 74.2007 76.7546 74.1849 76.7545 74.1636L82.7544 74.1289ZM82.7534 74.0557L88.7534 74.0557C88.7535 70.1825 89.3152 66.5512 90.3301 63.2319L84.5923 61.4775L78.8545 59.7232C77.4849 64.2027 76.7535 69.0177 76.7534 74.0556L82.7534 74.0557ZM84.5923 61.4775L90.4255 62.8822C91.027 60.3844 91.955 58.2631 92.8514 56.655C93.2981 55.8536 93.7249 55.2014 94.0781 54.7146C94.2543 54.4718 94.4051 54.2798 94.5231 54.1382C94.5817 54.0679 94.6288 54.0139 94.6637 53.9753C94.6994 53.9358 94.7167 53.9185 94.7154 53.9198L90.4731 49.6768L86.2309 45.4337C84.1497 47.5145 80.5064 52.8163 78.759 60.0729L84.5923 61.4775ZM90.4731 49.6768L89.9299 55.6521C89.9811 55.6568 90.0237 55.66 90.0527 55.6622C90.0803 55.6642 90.1036 55.6657 90.1094 55.6661C90.1209 55.6669 90.1112 55.6662 90.1012 55.6655C90.0888 55.6646 90.063 55.6628 90.0295 55.6599L90.5396 49.6816L91.0496 43.7034C91.005 43.6995 90.968 43.6968 90.9443 43.6952C90.9323 43.6943 90.9222 43.6936 90.9156 43.6932C90.9099 43.6928 90.9032 43.6924 90.9029 43.6924C90.9009 43.6922 90.903 43.6924 90.9065 43.6926C90.9102 43.6929 90.9173 43.6933 90.9265 43.694C90.9444 43.6953 90.9761 43.6977 91.0163 43.7014L90.4731 49.6768ZM90.5396 49.6816L95.3403 53.2806C100.611 46.25 108.499 42.0548 117.263 42.0547L117.263 36.0547L117.263 30.0547C104.476 30.0549 93.1245 36.2308 85.7388 46.0826L90.5396 49.6816ZM86.2856 154.521L82.4813 149.882C80.5904 151.432 78.5878 152.741 76.4883 153.782L79.1548 159.157L81.8213 164.532C84.7859 163.061 87.5462 161.247 90.09 159.161L86.2856 154.521ZM79.1548 159.157L73.6266 161.489L74.4332 163.401L79.9614 161.069L85.4896 158.737L84.683 156.825L79.1548 159.157ZM79.9614 161.069L83.3661 166.01L91.5058 160.4L88.1011 155.46L84.6964 150.52L76.5567 156.129L79.9614 161.069ZM88.1011 155.46L90.7563 150.079C90.2112 149.81 89.6719 149.531 89.138 149.243L86.2856 154.521L83.4333 159.8C84.0926 160.156 84.7633 160.504 85.4459 160.84L88.1011 155.46Z" fill="white" mask="url(#path-1-outside-1_1347_8568)"/>
<path d="M132.478 137.959L159.588 166.461C160.948 167.891 163.231 167.948 164.661 166.588L173.714 157.976C175.607 156.176 175.683 153.152 173.883 151.259C172.982 150.313 171.771 149.821 170.554 149.79C169.336 149.76 168.112 150.191 167.16 151.096L162.121 158.366L137.85 132.849C136.489 131.419 134.206 131.362 132.776 132.723L132.6 132.891C131.17 134.251 131.112 136.534 132.473 137.964L132.478 137.959Z" fill="#474747"/>
<path d="M113.167 147.192L80.776 169.511C79.1509 170.631 76.905 170.218 75.7851 168.593L68.6955 158.304C67.2132 156.153 67.7608 153.178 69.9119 151.696C70.9874 150.955 72.2738 150.722 73.4716 150.943C74.6694 151.163 75.7787 151.837 76.5239 152.918L79.9616 161.069L108.96 141.087C110.585 139.967 112.831 140.381 113.951 142.006L114.089 142.207C115.209 143.832 114.796 146.078 113.171 147.198L113.167 147.192Z" fill="#474747"/>
<path d="M171.775 83.5789L119.3 85.8527C119.3 85.8527 124.254 116.992 151.82 115.79C168.171 115.079 178.321 103.63 182.013 94.4661C184.326 88.7592 179.44 83.236 171.779 83.5657L171.775 83.5789Z" fill="#276288"/>
<path d="M63.1323 118.22C63.1323 127.451 66.2275 135.673 71.5861 142.423C80.8989 154.176 97.0567 161.471 115.532 161.908C116.105 161.921 116.691 161.935 117.278 161.935C117.864 161.935 118.45 161.935 119.023 161.908C137.512 161.471 153.656 154.19 162.969 142.436C168.314 135.687 171.423 127.479 171.423 118.234C171.423 103.753 163.787 90.8 151.816 82.2235C151.816 82.2235 151.788 76.4285 151.788 74.056C151.788 52.2806 136.34 36.0547 117.264 36.0547C98.202 36.0547 82.7533 52.2806 82.7533 74.056C82.7533 76.4285 83.4487 81.1872 83.7896 81.4872C83.0669 81.9371 82.7261 82.2098 82.7261 82.2098C70.7407 90.7864 63.1187 103.74 63.1187 118.22H63.1323Z" fill="#4B9AE8"/>
<path d="M149.531 74.7883C153.433 74.6343 159.224 70.261 159.015 66.6515C158.807 63.042 152.538 59.1433 148.649 59.2955C144.759 59.4477 141.732 61.9371 142.033 67.3118C142.334 72.6865 145.639 74.927 149.529 74.7749L149.531 74.7883Z" fill="#E8BE0F"/>
<path d="M112.401 129.299C111.543 128.105 110.98 126.757 110.386 125.428C109.607 123.701 108.81 121.982 107.83 120.353C106.935 118.863 105.821 117.567 104.47 116.467C104.336 116.36 104.187 116.159 104.053 116.164C103.032 116.215 102.479 115.464 101.716 114.811C101.445 115.735 101.191 116.591 100.938 117.452C100.328 119.55 99.6879 121.639 98.9262 123.674L98.8686 97.1659C100.407 100.11 101.776 103.132 102.634 106.382C102.688 106.584 102.653 106.888 103.047 106.811C103.379 106.752 103.45 106.551 103.489 106.255C103.692 104.673 103.42 103.119 103.143 101.578C102.88 100.092 102.496 98.6275 102.233 97.1406C102.106 96.4196 101.885 95.654 102.327 94.9407C102.739 94.671 103.101 94.3611 103.212 93.8501C103.261 93.7739 103.314 93.6976 103.368 93.6258C103.811 93.4949 103.819 93.0961 103.908 92.7465C103.939 92.4776 104.041 92.2444 104.256 92.0737C104.722 92.1086 104.506 91.7282 104.591 91.5309C104.595 91.5175 104.604 91.504 104.613 91.4905C105.349 89.8492 106.237 88.2748 106.784 86.5488C106.922 86.1273 107.289 86.0414 107.634 86.0317C111.42 85.9249 114.97 86.5848 117.36 89.8679C120.825 94.6138 123.707 99.679 125.225 105.424C125.433 106.198 125.524 106.987 125.526 107.793C125.527 108.349 125.353 108.766 124.816 108.986C124.4 109.032 124.069 109.257 123.751 109.508C122.207 110.161 120.59 110.532 118.933 110.76C118.516 110.734 118.1 110.699 117.728 110.964C116.336 111.375 114.871 111.346 113.353 111.668C115.139 112.918 116.607 114.344 117.695 116.147C119.219 118.662 119.574 121.192 118.088 123.866C117.262 125.35 116.405 126.795 115.05 127.869C114.517 127.798 114.561 127.337 114.511 126.996C114.429 126.392 114.186 125.863 113.871 125.358C112.378 122.91 110.805 120.508 109.115 118.187C108.23 116.974 107.108 115.933 105.727 115.237C105.417 115.081 105.126 114.934 104.885 115.333C104.67 115.687 104.904 115.884 105.164 116.054C105.9 116.531 106.153 117.543 107.094 117.806C107.193 117.832 107.152 117.761 107.152 117.855C107.173 118.997 108.464 119.411 108.628 120.468C108.65 120.611 108.695 120.759 108.799 120.875C110.555 122.847 111.367 125.35 112.55 127.641C112.712 127.959 112.865 128.277 113.036 128.585C113.148 128.791 113.288 129.024 113.122 129.253C112.917 129.54 112.648 129.379 112.401 129.299Z" fill="#323232"/>
<path d="M112.4 129.299C113.122 129.297 113.103 129.037 112.757 128.492C112.352 127.847 112.1 127.113 111.745 126.437C110.872 124.773 110.227 122.969 109.046 121.484C108.727 121.081 108.497 120.701 108.299 120.235C108.142 119.864 108.114 119.309 107.477 119.18C107.262 119.136 106.907 118.675 107.054 118.249C107.112 118.074 107.129 117.922 106.964 117.904C105.713 117.799 105.652 116.303 104.607 115.911C104.24 115.773 104.66 115.356 104.744 115.096C104.838 114.791 105.142 114.66 105.47 114.834C107.111 115.709 108.494 116.875 109.536 118.427C110.309 119.577 111.087 120.722 111.878 121.858C112.822 123.209 113.676 124.619 114.499 126.042C114.832 126.61 114.556 127.359 115.054 127.868C114.746 128.389 114.456 128.922 114.121 129.425C113.585 130.237 112.971 130.185 112.4 129.299Z" fill="#212121"/>
<path d="M103.904 92.7463C104.103 93.391 103.96 93.6198 103.364 93.6255C103.462 93.2804 103.649 92.9932 103.904 92.7463Z" fill="#242424"/>
<path d="M103.212 93.8497C103.496 94.6824 102.78 94.7019 102.332 94.9403C102.627 94.5768 102.922 94.2133 103.212 93.8497Z" fill="#242424"/>
<path d="M117.728 110.964C118.063 110.515 118.466 110.447 118.933 110.76C118.548 110.913 118.145 110.976 117.728 110.964Z" fill="#101010"/>
<path d="M123.751 109.508C124.015 109.149 124.283 108.795 124.817 108.986C124.508 109.255 124.145 109.418 123.751 109.508Z" fill="#101010"/>
<path d="M104.613 91.4906C104.86 91.7902 104.682 92.1445 104.785 92.4803C104.445 92.499 104.484 92.1226 104.256 92.0738C104.376 91.8809 104.492 91.688 104.613 91.4906Z" fill="#242424"/>
<path d="M98.8898 107.152L98.876 100.812C99.4885 102.272 99.9398 103.803 100.369 105.325C100.418 105.495 100.392 105.679 100.392 105.858C100.398 106.423 100.44 107.081 99.8714 107.351C99.491 107.536 99.177 107.375 98.8898 107.152Z" fill="#2C2527"/>
<path d="M103.96 106.186C104.302 103.054 103.58 100.278 103.085 97.479C103.026 97.1432 103.075 96.8384 103.231 96.5334C104.717 93.6764 106.193 90.8193 107.674 87.9668C107.924 87.4869 108.264 87.2711 108.86 87.2474C110.486 87.1722 112.01 87.5855 113.521 88.0706C114.629 88.4266 114.787 89.0176 114.121 90.0271C113.577 90.8526 112.78 91.4457 112.119 92.1639C111.319 93.0348 110.447 93.8521 109.728 94.7855C109.062 95.6516 108.5 96.6295 108.583 97.7941C108.832 101.306 107.163 104.114 105.292 106.847C105.144 107.057 104.988 107.255 104.634 107.099C104.019 106.827 103.961 106.773 103.964 106.186L103.96 106.186Z" fill="#212121"/>
<path d="M120.672 96.6611C120.673 97.1271 120.302 97.3922 120.034 97.6795C118.827 98.9724 117.463 100.095 116.086 101.192C114.726 102.27 113.555 103.571 112.092 104.524C110.786 105.374 109.515 106.277 108.218 107.136C108.021 107.266 107.766 107.513 107.506 107.245C107.219 106.95 107.572 106.77 107.688 106.563C108.791 104.585 110.135 102.759 111.385 100.879C112.421 99.3313 113.596 97.7696 115.149 96.6821C116.298 95.8777 117.371 94.8225 118.921 94.7116C119.32 94.6839 119.633 94.6653 119.786 95.0771C119.998 95.6546 120.689 95.9577 120.677 96.6611L120.672 96.6611Z" fill="#212121"/>
<path d="M106.44 111.504C106.18 111.468 105.844 111.59 105.78 111.205C105.717 110.811 106.03 110.837 106.295 110.774C108.672 110.217 111.109 109.903 113.437 109.15C115.447 108.496 117.16 107.282 118.896 106.096C120.202 105.201 121.378 104.128 122.77 103.346C123.383 102.999 123.643 103.321 123.81 103.693C124.197 104.548 124.692 105.375 124.774 106.338C124.843 107.086 124.719 107.759 123.963 108.15C122.907 108.699 121.873 109.181 120.677 109.483C119.468 109.791 118.241 109.982 117.028 110.253C115.496 110.601 113.924 110.618 112.378 110.733C110.493 110.872 108.657 111.297 106.78 111.471C106.663 111.481 106.543 111.49 106.44 111.499L106.44 111.504Z" fill="#212121"/>
<path d="M64.1598 162.696C39.264 162.75 17.5261 151.997 15.3833 130.276C13.2405 108.554 23.7136 76.6334 55.4664 72.1256C87.2192 67.6178 105.445 83.529 105.502 109.787C105.559 136.044 89.06 162.642 64.1598 162.696Z" fill="#323232"/>
<path d="M80.1166 79.3187C79.3373 79.4279 79.2179 80.1494 78.9861 80.6696C71.2428 94.3149 58.685 96.3268 55.8898 96.53C40.3229 97.1552 33.5709 92.8063 31.9534 92.7381C31.5412 92.7211 31.5486 91.9998 31.7713 91.39C32.4538 90.0221 36.363 82.9664 40.2099 80.1893C40.9654 79.4754 48.3572 75.1674 53.2176 74.9328C62.9157 74.3652 68.2378 74.3268 79.4353 79.1499C79.6639 79.1987 79.9147 79.1488 80.1121 79.3187L80.1166 79.3187Z" fill="#504E4E"/>
<path d="M97.1684 116.159L109.911 90.7054C113.022 84.4974 110.391 77.6435 104.705 77.1742C95.8215 76.4504 83.72 78.1921 77.3268 90.9591C71.9877 101.634 74.7406 111.772 78.9249 119.358C82.8509 126.475 92.9016 124.696 97.1761 116.17L97.1684 116.159Z" fill="#174B6C"/>
<path d="M84.3385 62.6303C85.7015 55.8125 89.1094 51.0404 90.4733 49.6768C97.9722 50.3586 139.209 46.6957 142.967 48.3128C145.012 50.3581 149.103 55.8122 149.785 59.9027C126.605 77.6285 91.1553 66.0389 84.3385 62.6303Z" fill="#343434"/>
<path d="M128.951 66.6387C132.882 66.6387 136.068 63.452 136.068 59.521C136.068 55.59 132.882 52.4033 128.951 52.4033C125.02 52.4033 121.833 55.59 121.833 59.521C121.833 63.452 125.02 66.6387 128.951 66.6387Z" fill="white"/>
<path d="M128.95 63.3149C131.045 63.3149 132.744 61.6163 132.744 59.521C132.744 57.4256 131.045 55.7271 128.95 55.7271C126.855 55.7271 125.156 57.4256 125.156 59.521C125.156 61.6163 126.855 63.3149 128.95 63.3149Z" fill="#040000"/>
</svg>
