<svg width="200" height="200" viewBox="0 0 200 200" fill="none" xmlns="http://www.w3.org/2000/svg">
<mask id="path-1-outside-1_1062_17326" maskUnits="userSpaceOnUse" x="49.2373" y="20.0563" width="102" height="160" fill="black">
<rect fill="white" x="49.2373" y="20.0563" width="102" height="160"/>
<path d="M114.102 27.1829C117.605 26.6534 121.781 27.7846 126.563 30.5803C131.755 33.6079 144.579 42.6911 144.885 42.9436C144.893 42.972 145.545 45.2594 143.65 47.426C141.756 49.5921 139.744 49.2518 139.718 49.2473C139.645 49.1901 127.081 40.3194 122.456 37.6135C121.355 36.9701 120.322 36.4828 119.382 36.1379L119.37 36.1712C117.267 35.409 115.597 35.3114 114.7 35.8372C113.893 36.3016 113.021 37.6256 112.581 40.3313L112.566 40.3284C112.39 41.4231 112.284 42.747 112.284 44.3372V55.1692H134.628C135.098 55.1618 135.582 55.3159 135.983 55.6419C136.589 56.1342 136.853 56.8831 136.738 57.5696L136.625 150.961C136.625 155.582 136.245 156.291 134.037 159.339L123.798 171.574C123.063 172.643 121.833 173.346 120.438 173.346H59.3125C57.0636 173.346 55.2376 171.52 55.2373 169.271V69.2444L55.2471 69.2249C55.3104 68.6041 55.6563 68.0634 56.1523 67.7337L70.4775 57.2063C72.4579 55.6617 73.8648 55.1692 76.1143 55.1692H104.135V44.3372C104.135 39.1433 105.023 35.0787 106.781 32.1809C106.806 32.1396 106.83 32.0977 106.855 32.0569C106.902 31.9824 106.95 31.9091 106.997 31.8362C107.033 31.7817 107.068 31.7277 107.104 31.6741C107.133 31.6318 107.16 31.5889 107.189 31.5471L107.248 31.4651C107.319 31.3648 107.39 31.2653 107.463 31.1682C107.477 31.1493 107.492 31.1313 107.507 31.1126C107.586 31.0091 107.666 30.9076 107.748 30.8079C107.765 30.7873 107.782 30.7668 107.799 30.7463C107.88 30.6481 107.963 30.5518 108.048 30.4573C108.062 30.4413 108.076 30.4253 108.091 30.4094C108.82 29.6018 109.65 28.9297 110.58 28.3958C111.33 27.967 112.123 27.6423 112.958 27.4202C112.99 27.4115 113.023 27.4032 113.056 27.3948C113.115 27.3796 113.175 27.366 113.235 27.3518C113.378 27.3177 113.523 27.2862 113.668 27.2581C113.703 27.2513 113.739 27.244 113.774 27.2376C113.873 27.2194 113.973 27.2032 114.073 27.1878C114.083 27.1863 114.092 27.1843 114.102 27.1829Z"/>
</mask>
<path d="M114.102 27.1829C117.605 26.6534 121.781 27.7846 126.563 30.5803C131.755 33.6079 144.579 42.6911 144.885 42.9436C144.893 42.972 145.545 45.2594 143.65 47.426C141.756 49.5921 139.744 49.2518 139.718 49.2473C139.645 49.1901 127.081 40.3194 122.456 37.6135C121.355 36.9701 120.322 36.4828 119.382 36.1379L119.37 36.1712C117.267 35.409 115.597 35.3114 114.7 35.8372C113.893 36.3016 113.021 37.6256 112.581 40.3313L112.566 40.3284C112.39 41.4231 112.284 42.747 112.284 44.3372V55.1692H134.628C135.098 55.1618 135.582 55.3159 135.983 55.6419C136.589 56.1342 136.853 56.8831 136.738 57.5696L136.625 150.961C136.625 155.582 136.245 156.291 134.037 159.339L123.798 171.574C123.063 172.643 121.833 173.346 120.438 173.346H59.3125C57.0636 173.346 55.2376 171.52 55.2373 169.271V69.2444L55.2471 69.2249C55.3104 68.6041 55.6563 68.0634 56.1523 67.7337L70.4775 57.2063C72.4579 55.6617 73.8648 55.1692 76.1143 55.1692H104.135V44.3372C104.135 39.1433 105.023 35.0787 106.781 32.1809C106.806 32.1396 106.83 32.0977 106.855 32.0569C106.902 31.9824 106.95 31.9091 106.997 31.8362C107.033 31.7817 107.068 31.7277 107.104 31.6741C107.133 31.6318 107.16 31.5889 107.189 31.5471L107.248 31.4651C107.319 31.3648 107.39 31.2653 107.463 31.1682C107.477 31.1493 107.492 31.1313 107.507 31.1126C107.586 31.0091 107.666 30.9076 107.748 30.8079C107.765 30.7873 107.782 30.7668 107.799 30.7463C107.88 30.6481 107.963 30.5518 108.048 30.4573C108.062 30.4413 108.076 30.4253 108.091 30.4094C108.82 29.6018 109.65 28.9297 110.58 28.3958C111.33 27.967 112.123 27.6423 112.958 27.4202C112.99 27.4115 113.023 27.4032 113.056 27.3948C113.115 27.3796 113.175 27.366 113.235 27.3518C113.378 27.3177 113.523 27.2862 113.668 27.2581C113.703 27.2513 113.739 27.244 113.774 27.2376C113.873 27.2194 113.973 27.2032 114.073 27.1878C114.083 27.1863 114.092 27.1843 114.102 27.1829Z" fill="#D7E8FC"/>
<path d="M114.102 27.1829L114.986 33.1173L114.998 33.1155L114.102 27.1829ZM126.563 30.5803L123.535 35.7601L123.541 35.7634L126.563 30.5803ZM144.885 42.9436L150.65 41.2806C150.315 40.1201 149.638 39.0877 148.707 38.3184L144.885 42.9436ZM143.65 47.426L148.167 51.3762L148.167 51.376L143.65 47.426ZM139.718 49.2473L136.016 53.969C136.796 54.5813 137.717 54.9903 138.695 55.1595L139.718 49.2473ZM122.456 37.6135L125.486 32.4346L125.484 32.4336L122.456 37.6135ZM119.382 36.1379L121.447 30.5047C119.942 29.9525 118.277 30.0263 116.826 30.7095C115.375 31.3927 114.258 32.6285 113.724 34.141L119.382 36.1379ZM119.37 36.1712L117.326 41.8121C118.83 42.3573 120.49 42.2791 121.936 41.5948C123.382 40.9106 124.496 39.6769 125.028 38.1681L119.37 36.1712ZM114.7 35.8372L117.693 41.0373C117.707 41.0292 117.722 41.021 117.736 41.0127L114.7 35.8372ZM112.581 40.3313L111.404 46.2148C113.002 46.5343 114.66 46.1905 115.999 45.2626C117.338 44.3346 118.242 42.9021 118.503 41.2943L112.581 40.3313ZM112.566 40.3284L113.743 34.4449C112.145 34.1252 110.485 34.4697 109.145 35.3993C107.806 36.3288 106.903 37.7633 106.643 39.3727L112.566 40.3284ZM112.284 55.1692H106.284C106.284 58.4829 108.97 61.1692 112.284 61.1692V55.1692ZM134.628 55.1692V61.1692C134.659 61.1692 134.691 61.169 134.722 61.1685L134.628 55.1692ZM135.983 55.6419L139.768 50.9859L139.766 50.9846L135.983 55.6419ZM136.738 57.5696L130.821 56.5766C130.766 56.9024 130.739 57.232 130.738 57.5623L136.738 57.5696ZM136.625 150.961L130.625 150.954L130.625 150.961L136.625 150.961ZM134.037 159.339L138.638 163.19C138.728 163.083 138.814 162.973 138.896 162.859L134.037 159.339ZM123.798 171.574L119.197 167.724C119.075 167.869 118.961 168.02 118.853 168.176L123.798 171.574ZM120.438 173.346L120.438 179.346L120.439 179.346L120.438 173.346ZM55.2373 169.271L49.2373 169.271L49.2373 169.271L55.2373 169.271ZM55.2373 69.2444L49.8707 66.5611C49.4542 67.3942 49.2373 68.3129 49.2373 69.2444H55.2373ZM55.2471 69.2249L60.6136 71.9081C60.9383 71.2589 61.1424 70.5562 61.2161 69.834L55.2471 69.2249ZM56.1523 67.7337L59.4737 72.7305C59.5522 72.6783 59.6294 72.6243 59.7054 72.5685L56.1523 67.7337ZM70.4775 57.2063L74.0306 62.0412C74.0767 62.0073 74.1224 61.9727 74.1676 61.9375L70.4775 57.2063ZM104.135 55.1692V61.1692C107.448 61.1692 110.135 58.4829 110.135 55.1692H104.135ZM106.781 32.1809L111.911 35.2935L111.913 35.289L106.781 32.1809ZM106.855 32.0569L101.762 28.886L101.759 28.8905L106.855 32.0569ZM106.997 31.8362L112.023 35.1138L112.026 35.1093L106.997 31.8362ZM107.104 31.6741L102.132 28.3166L102.129 28.3212L107.104 31.6741ZM107.189 31.5471L102.307 28.0597C102.291 28.0819 102.276 28.1041 102.26 28.1265L107.189 31.5471ZM107.248 31.4651L112.13 34.9525C112.138 34.9426 112.145 34.9327 112.152 34.9228L107.248 31.4651ZM107.463 31.1682L102.674 27.5532L102.671 27.5579L107.463 31.1682ZM107.507 31.1126L112.273 34.7572L112.277 34.7525L107.507 31.1126ZM107.748 30.8079L103.111 27.0006L103.107 27.0053L107.748 30.8079ZM107.799 30.7463L112.409 34.5869L112.412 34.5823L107.799 30.7463ZM108.048 30.4573L103.575 26.4575L103.571 26.4621L108.048 30.4573ZM108.091 30.4094L112.539 34.4359L112.543 34.4314L108.091 30.4094ZM110.58 28.3958L107.601 23.1875L107.593 23.1922L110.58 28.3958ZM112.958 27.4202L114.5 33.2186L114.511 33.2156L112.958 27.4202ZM113.056 27.3948L111.571 21.5813L111.56 21.5842L113.056 27.3948ZM113.235 27.3518L114.614 33.1912L114.626 33.1884L113.235 27.3518ZM113.668 27.2581L112.539 21.3652L112.527 21.3675L113.668 27.2581ZM113.774 27.2376L114.843 33.1417L114.855 33.1395L113.774 27.2376ZM114.073 27.1878L113.173 21.2557L113.161 21.2575L114.073 27.1878ZM114.102 27.1829L114.998 33.1155C116.576 32.877 119.319 33.2952 123.535 35.7601L126.563 30.5803L129.592 25.4006C124.244 22.2741 118.635 20.4297 113.205 21.2502L114.102 27.1829ZM126.563 30.5803L123.541 35.7634C125.909 37.1445 130.228 40.0415 134.154 42.7443C136.08 44.071 137.856 45.3124 139.168 46.2361C140.667 47.2922 141.22 47.6991 141.063 47.5688L144.885 42.9436L148.707 38.3184C148.396 38.0619 147.232 37.2386 146.079 36.426C144.737 35.481 142.926 34.215 140.959 32.8609C137.098 30.2021 132.409 27.0437 129.586 25.3973L126.563 30.5803ZM144.885 42.9436L139.12 44.6066C139.053 44.3747 139.024 44.222 139.012 44.1225C138.999 44.0239 138.997 43.9436 139.003 43.869C139.01 43.7897 139.028 43.7008 139.063 43.6118C139.102 43.514 139.141 43.4683 139.134 43.4761L143.65 47.426L148.167 51.376C152.105 46.8732 150.848 41.9664 150.65 41.2806L144.885 42.9436ZM143.65 47.426L139.134 43.4759C139.065 43.5545 139.066 43.5323 139.159 43.4769C139.248 43.4232 139.375 43.368 139.533 43.3286C139.824 43.2562 140.196 43.2409 140.741 43.3352L139.718 49.2473L138.695 55.1595C139.84 55.3576 144.363 55.7243 148.167 51.3762L143.65 47.426ZM139.718 49.2473L143.42 44.5257C143.167 44.3274 130.38 35.2975 125.486 32.4346L122.456 37.6135L119.426 42.7924C123.783 45.3412 136.123 54.0528 136.016 53.969L139.718 49.2473ZM122.456 37.6135L125.484 32.4336C124.116 31.6342 122.762 30.9868 121.447 30.5047L119.382 36.1379L117.316 41.7712C117.882 41.9787 118.594 42.3059 119.428 42.7935L122.456 37.6135ZM119.382 36.1379L113.724 34.141L113.712 34.1742L119.37 36.1712L125.028 38.1681L125.04 38.1349L119.382 36.1379ZM119.37 36.1712L121.415 30.5303C119.999 30.0171 118.492 29.6372 116.99 29.535C115.597 29.4402 113.574 29.5419 111.665 30.6616L114.7 35.8372L117.736 41.0127C117.196 41.3291 116.739 41.4384 116.504 41.4779C116.265 41.518 116.142 41.5051 116.175 41.5073C116.202 41.5091 116.316 41.5201 116.524 41.5685C116.73 41.6161 116.997 41.6931 117.326 41.8121L119.37 36.1712ZM114.7 35.8372L111.707 30.637C108.478 32.4957 107.179 36.1697 106.659 39.3683L112.581 40.3313L118.503 41.2943C118.576 40.8481 118.656 40.525 118.723 40.3047C118.756 40.1956 118.785 40.1162 118.806 40.063C118.827 40.0097 118.84 39.986 118.839 39.9873C118.838 39.9884 118.823 40.0185 118.788 40.071C118.753 40.1233 118.696 40.2024 118.612 40.2989C118.447 40.4879 118.152 40.7733 117.693 41.0373L114.7 35.8372ZM112.581 40.3313L113.758 34.4478L113.743 34.4449L112.566 40.3284L111.39 46.2119L111.404 46.2148L112.581 40.3313ZM112.566 40.3284L106.643 39.3727C106.406 40.8392 106.284 42.4889 106.284 44.3372H112.284H118.284C118.284 43.0052 118.373 42.007 118.49 41.284L112.566 40.3284ZM112.284 44.3372H106.284V55.1692H112.284H118.284V44.3372H112.284ZM112.284 55.1692V61.1692H134.628V55.1692V49.1692H112.284V55.1692ZM134.628 55.1692L134.722 61.1685C133.824 61.1825 132.926 60.8881 132.201 60.2992L135.983 55.6419L139.766 50.9846C138.238 49.7437 136.372 49.1412 134.534 49.1699L134.628 55.1692ZM135.983 55.6419L132.199 60.2978C131.149 59.4447 130.575 58.0456 130.821 56.5766L136.738 57.5696L142.656 58.5625C143.132 55.7207 142.029 52.8236 139.768 50.9859L135.983 55.6419ZM136.738 57.5696L130.738 57.5623L130.625 150.954L136.625 150.961L142.625 150.968L142.738 57.5769L136.738 57.5696ZM136.625 150.961L130.625 150.961C130.625 153.288 130.498 153.747 130.456 153.877C130.424 153.975 130.368 154.177 129.178 155.819L134.037 159.339L138.896 162.859C139.914 161.454 141.153 159.777 141.863 157.603C142.562 155.461 142.625 153.255 142.625 150.961L136.625 150.961ZM134.037 159.339L129.436 155.488L119.197 167.724L123.798 171.574L128.399 175.425L138.638 163.19L134.037 159.339ZM123.798 171.574L118.853 168.176C119.186 167.692 119.767 167.346 120.438 167.346L120.438 173.346L120.439 179.346C123.899 179.346 126.94 177.595 128.742 174.973L123.798 171.574ZM120.438 173.346V167.346H59.3125V173.346V179.346H120.438V173.346ZM59.3125 173.346V167.346C60.3776 167.346 61.2372 168.206 61.2373 169.27L55.2373 169.271L49.2373 169.271C49.2379 174.834 53.7496 179.346 59.3125 179.346V173.346ZM55.2373 169.271H61.2373V69.2444H55.2373H49.2373V169.271H55.2373ZM55.2373 69.2444L60.6039 71.9277L60.6136 71.9081L55.2471 69.2249L49.8805 66.5416L49.8707 66.5611L55.2373 69.2444ZM55.2471 69.2249L61.2161 69.834C61.0893 71.0764 60.405 72.1115 59.4737 72.7305L56.1523 67.7337L52.831 62.7368C50.9076 64.0153 49.5316 66.1318 49.2781 68.6157L55.2471 69.2249ZM56.1523 67.7337L59.7054 72.5685L74.0306 62.0412L70.4775 57.2063L66.9245 52.3715L52.5993 62.8988L56.1523 67.7337ZM70.4775 57.2063L74.1676 61.9375C74.8677 61.3914 75.1508 61.2813 75.223 61.2554C75.2644 61.2405 75.4473 61.1692 76.1143 61.1692V55.1692V49.1692C74.5317 49.1692 72.8865 49.3441 71.167 49.9617C69.4783 50.5681 68.0677 51.4767 66.7875 52.4752L70.4775 57.2063ZM76.1143 55.1692V61.1692H104.135V55.1692V49.1692H76.1143V55.1692ZM104.135 55.1692H110.135V44.3372H104.135H98.1348V55.1692H104.135ZM104.135 44.3372H110.135C110.135 39.7079 110.946 36.8831 111.911 35.2935L106.781 32.1809L101.652 29.0683C99.0996 33.2743 98.1348 38.5787 98.1348 44.3372H104.135ZM106.781 32.1809L111.913 35.289C111.933 35.2563 111.95 35.2281 111.961 35.2092C111.967 35.1997 111.972 35.1911 111.976 35.185C111.98 35.1776 111.981 35.1754 111.984 35.1715C111.987 35.1649 111.985 35.1686 111.981 35.1763C111.976 35.1844 111.966 35.2011 111.952 35.2233L106.855 32.0569L101.759 28.8905C101.709 28.9714 101.668 29.0408 101.653 29.066C101.641 29.0869 101.642 29.0837 101.638 29.0905C101.637 29.0924 101.642 29.0849 101.649 29.0728L106.781 32.1809ZM106.855 32.0569L111.949 35.2278C111.958 35.2137 111.973 35.1894 112.023 35.1138L106.997 31.8362L101.971 28.5585C101.926 28.6289 101.846 28.7511 101.762 28.886L106.855 32.0569ZM106.997 31.8362L112.026 35.1093C112.042 35.0839 112.06 35.0566 112.08 35.027L107.104 31.6741L102.129 28.3212C102.076 28.3988 102.023 28.4795 101.968 28.5631L106.997 31.8362ZM107.104 31.6741L112.077 35.0316C112.098 35.0011 112.115 34.9746 112.127 34.957C112.133 34.948 112.138 34.9399 112.142 34.9342C112.146 34.9276 112.148 34.9246 112.151 34.9213C112.155 34.9151 112.153 34.9181 112.148 34.925C112.143 34.9323 112.133 34.9475 112.119 34.9677L107.189 31.5471L102.26 28.1265C102.206 28.205 102.161 28.2724 102.143 28.2995C102.138 28.3068 102.133 28.3144 102.131 28.3184C102.127 28.3234 102.126 28.3259 102.124 28.3276C102.122 28.3311 102.126 28.326 102.132 28.3166L107.104 31.6741ZM107.189 31.5471L112.072 35.0346L112.13 34.9525L107.248 31.4651L102.366 27.9777L102.307 28.0597L107.189 31.5471ZM107.248 31.4651L112.152 34.9228C112.214 34.8346 112.241 34.7978 112.255 34.7785L107.463 31.1682L102.671 27.5579C102.539 27.7329 102.424 27.8949 102.345 28.0074L107.248 31.4651ZM107.463 31.1682L112.252 34.7832C112.22 34.8245 112.195 34.8569 112.18 34.8756C112.173 34.8853 112.167 34.8927 112.163 34.8969C112.16 34.9007 112.158 34.9033 112.159 34.9017C112.16 34.9014 112.16 34.9011 112.16 34.9004C112.161 34.8998 112.162 34.899 112.162 34.8981C112.164 34.8963 112.166 34.8935 112.169 34.8903C112.174 34.8841 112.181 34.8743 112.191 34.8626C112.209 34.8396 112.238 34.8027 112.273 34.7572L107.507 31.1126L102.741 27.4679C102.768 27.4318 102.79 27.4041 102.801 27.3904C102.807 27.3833 102.811 27.3782 102.812 27.3765C102.813 27.3759 102.814 27.3742 102.81 27.379C102.806 27.3838 102.788 27.4061 102.767 27.4327C102.745 27.4608 102.712 27.5025 102.674 27.5532L107.463 31.1682ZM107.507 31.1126L112.277 34.7525C112.31 34.709 112.347 34.6618 112.389 34.6105L107.748 30.8079L103.107 27.0053C102.986 27.1534 102.862 27.3092 102.737 27.4726L107.507 31.1126ZM107.748 30.8079L112.385 34.6151C112.402 34.5947 112.407 34.5891 112.409 34.5869L107.799 30.7463L103.189 26.9058C103.157 26.9445 103.128 26.9799 103.111 27.0007L107.748 30.8079ZM107.799 30.7463L112.412 34.5823C112.449 34.5381 112.487 34.4948 112.524 34.4525L108.048 30.4573L103.571 26.4621C103.44 26.6088 103.312 26.7582 103.185 26.9104L107.799 30.7463ZM108.048 30.4573L112.52 34.457C112.528 34.4486 112.532 34.4439 112.536 34.4399C112.539 34.4362 112.54 34.4352 112.539 34.4359L108.091 30.4094L103.642 26.383C103.614 26.4143 103.588 26.4435 103.575 26.4576L108.048 30.4573ZM108.091 30.4094L112.543 34.4314C112.859 34.0819 113.197 33.812 113.567 33.5994L110.58 28.3958L107.593 23.1922C106.103 24.0473 104.782 25.1218 103.638 26.3875L108.091 30.4094ZM110.58 28.3958L113.559 33.604C113.853 33.4359 114.163 33.3084 114.5 33.2186L112.958 27.4202L111.416 21.6217C110.083 21.9762 108.806 22.4982 107.601 23.1875L110.58 28.3958ZM112.958 27.4202L114.511 33.2156C114.504 33.2176 114.502 33.2182 114.509 33.2162C114.513 33.2153 114.517 33.2141 114.525 33.2122C114.531 33.2107 114.542 33.2078 114.551 33.2053L113.056 27.3948L111.56 21.5842C111.549 21.587 111.474 21.606 111.405 21.6247L112.958 27.4202ZM113.056 27.3948L114.54 33.2083C114.518 33.2138 114.508 33.2162 114.523 33.2127C114.53 33.211 114.538 33.209 114.555 33.2051C114.569 33.2018 114.591 33.1967 114.614 33.1912L113.235 27.3518L111.856 21.5125C111.709 21.5472 111.951 21.4899 111.768 21.5331C111.723 21.5438 111.653 21.5606 111.571 21.5813L113.056 27.3948ZM113.235 27.3518L114.626 33.1884C114.696 33.1717 114.756 33.1587 114.809 33.1486L113.668 27.2581L112.527 21.3675C112.289 21.4137 112.061 21.4637 111.845 21.5152L113.235 27.3518ZM113.668 27.2581L114.797 33.1509C114.818 33.1468 114.837 33.1431 114.849 33.1407C114.856 33.1395 114.862 33.1383 114.865 33.1376C114.87 33.1367 114.872 33.1362 114.875 33.1358C114.879 33.1349 114.877 33.1353 114.872 33.1362C114.867 33.1372 114.857 33.1391 114.843 33.1417L113.774 27.2376L112.706 21.3334C112.645 21.3445 112.593 21.3547 112.568 21.3596C112.561 21.3609 112.555 21.3621 112.55 21.363C112.545 21.364 112.542 21.3646 112.54 21.3651C112.534 21.3661 112.535 21.3659 112.539 21.3652L113.668 27.2581ZM113.774 27.2376L114.855 33.1395C114.88 33.1349 114.92 33.1281 114.986 33.118L114.073 27.1878L113.161 21.2575C113.026 21.2782 112.867 21.304 112.694 21.3356L113.774 27.2376ZM114.073 27.1878L114.973 33.1198C115.006 33.115 115.034 33.1103 115.059 33.1063C115.083 33.1023 115.103 33.0987 115.12 33.0959C115.136 33.0931 115.149 33.0907 115.157 33.0892C115.161 33.0885 115.164 33.0879 115.166 33.0875C115.168 33.0873 115.168 33.0871 115.169 33.087C115.169 33.0869 115.17 33.0869 115.17 33.0869C115.17 33.0868 115.17 33.0868 115.17 33.0868C115.171 33.0867 115.17 33.0869 115.168 33.0872C115.166 33.0875 115.164 33.088 115.16 33.0887C115.153 33.09 115.141 33.0921 115.126 33.0947C115.111 33.0974 115.091 33.1007 115.068 33.1045C115.045 33.1083 115.017 33.1127 114.986 33.1173L114.102 27.1829L113.217 21.2484C113.151 21.2583 113.097 21.2674 113.063 21.2733C113.046 21.2764 113.031 21.2789 113.022 21.2806C113.013 21.2823 113.006 21.2836 113.005 21.2838C113.002 21.2844 113.006 21.2835 113.011 21.2827C113.017 21.2816 113.027 21.2797 113.041 21.2773C113.068 21.2726 113.114 21.2646 113.173 21.2557L114.073 27.1878Z" fill="white" mask="url(#path-1-outside-1_1062_17326)"/>
<path d="M134.037 159.339L123.528 171.899C121.278 174.152 116.364 171.927 116.364 169.678V75.5481C116.364 73.2986 126.03 57.2063 136.739 57.2063L136.625 150.961C136.625 155.582 136.246 156.291 134.037 159.339Z" fill="#276288"/>
<path d="M124.513 69.2443H55.2373L56.0276 67.8262L70.4779 57.2064C72.4583 55.6618 73.8644 55.1688 76.1139 55.1688H134.644C135.41 55.1688 136.739 56.2975 136.046 57.0841L124.513 69.2443Z" fill="#7AB9F8"/>
<path d="M120.438 173.345H59.3121C57.063 173.345 55.2373 171.52 55.2373 169.27V69.2444C55.2373 69.2444 57.063 67.3942 59.3121 67.3942H120.438C122.688 67.3942 124.513 69.2444 124.513 69.2444V169.27C124.513 171.52 122.688 173.345 120.438 173.345Z" fill="#4B9AE8"/>
<mask id="path-6-outside-2_1062_17326" maskUnits="userSpaceOnUse" x="68.7686" y="102.814" width="40" height="35" fill="black">
<rect fill="white" x="68.7686" y="102.814" width="40" height="35"/>
<path d="M91.1682 104.814C99.7474 104.814 106.702 111.769 106.702 120.348C106.702 128.927 99.7474 135.882 91.1682 135.882C84.0159 135.882 77.9934 131.048 76.1877 124.469C74.1317 124.626 71.2306 123.589 70.8225 122.085C70.3618 120.386 72.9481 117.603 74.9553 117.062C75.315 116.965 75.6724 116.907 76.0207 116.892C77.592 109.976 83.7769 104.814 91.1682 104.814Z"/>
</mask>
<path d="M91.1682 104.814C99.7474 104.814 106.702 111.769 106.702 120.348C106.702 128.927 99.7474 135.882 91.1682 135.882C84.0159 135.882 77.9934 131.048 76.1877 124.469C74.1317 124.626 71.2306 123.589 70.8225 122.085C70.3618 120.386 72.9481 117.603 74.9553 117.062C75.315 116.965 75.6724 116.907 76.0207 116.892C77.592 109.976 83.7769 104.814 91.1682 104.814Z" fill="#DFB820"/>
<path d="M91.1682 104.814L91.1682 103.06L91.1682 103.06L91.1682 104.814ZM106.702 120.348L108.456 120.348V120.348H106.702ZM91.1682 135.882L91.1682 137.636H91.1682V135.882ZM76.1877 124.469L77.8787 124.005L77.496 122.61L76.0541 122.721L76.1877 124.469ZM70.8225 122.085L69.13 122.544L69.1301 122.545L70.8225 122.085ZM74.9553 117.062L74.4991 115.369L74.499 115.369L74.9553 117.062ZM76.0207 116.892L76.0982 118.644L77.4344 118.585L77.7307 117.28L76.0207 116.892ZM91.1682 104.814V106.567C98.779 106.567 104.949 112.737 104.949 120.348H106.702H108.456C108.456 110.8 100.716 103.06 91.1682 103.06V104.814ZM106.702 120.348L104.949 120.348C104.949 127.959 98.7789 134.129 91.1682 134.129V135.882V137.636C100.716 137.636 108.456 129.896 108.456 120.348L106.702 120.348ZM91.1682 135.882L91.1682 134.129C84.826 134.129 79.4809 129.842 77.8787 124.005L76.1877 124.469L74.4967 124.933C76.506 132.254 83.2058 137.636 91.1682 137.636L91.1682 135.882ZM76.1877 124.469L76.0541 122.721C75.3331 122.776 74.3688 122.615 73.5577 122.28C73.1602 122.115 72.8648 121.935 72.6773 121.776C72.4814 121.61 72.4932 121.547 72.5148 121.626L70.8225 122.085L69.1301 122.545C69.3558 123.376 69.8834 124.006 70.4104 124.452C70.9459 124.906 71.5808 125.257 72.2166 125.52C73.4721 126.04 74.9863 126.32 76.3213 126.218L76.1877 124.469ZM70.8225 122.085L72.5149 121.626C72.5383 121.713 72.4855 121.638 72.6134 121.327C72.7333 121.035 72.9604 120.669 73.2925 120.283C73.9907 119.472 74.8573 118.904 75.4116 118.755L74.9553 117.062L74.499 115.369C73.0461 115.76 71.616 116.855 70.6344 117.995C70.1266 118.586 69.668 119.268 69.3699 119.993C69.0797 120.698 68.8763 121.609 69.13 122.544L70.8225 122.085ZM74.9553 117.062L75.4115 118.755C75.6588 118.688 75.8891 118.653 76.0982 118.644L76.0207 116.892L75.9432 115.14C75.4558 115.162 74.9712 115.242 74.4991 115.369L74.9553 117.062ZM76.0207 116.892L77.7307 117.28C79.1245 111.146 84.6136 106.567 91.1682 106.567L91.1682 104.814L91.1682 103.06C82.9402 103.06 76.0594 108.807 74.3107 116.503L76.0207 116.892Z" fill="white" mask="url(#path-6-outside-2_1062_17326)"/>
<path d="M91.1684 135.882C99.7476 135.882 106.703 128.927 106.703 120.348C106.703 111.769 99.7476 104.814 91.1684 104.814C82.5891 104.814 75.6343 111.769 75.6343 120.348C75.6343 128.927 82.5891 135.882 91.1684 135.882Z" fill="#4B98E6"/>
<path d="M76.9369 124.348C74.9252 124.889 71.2829 123.785 70.8218 122.086C70.3607 120.387 72.9469 117.603 74.9542 117.062C76.9615 116.521 78.8962 117.191 79.5828 119.722C80.2788 122.283 78.9441 123.807 76.9325 124.348L76.9369 124.348Z" fill="#DFB820"/>
<mask id="path-10-outside-3_1062_17326" maskUnits="userSpaceOnUse" x="82.0558" y="110.395" width="11.2485" height="11.2485" fill="black">
<rect fill="white" x="82.0558" y="110.395" width="11.2485" height="11.2485"/>
<path d="M90.5366 112.65C90.954 112.332 91.5502 112.412 91.8683 112.83C92.1861 113.247 92.1057 113.843 91.6884 114.161L89.0125 116.2L90.9411 118.731L90.9964 118.811C91.2481 119.221 91.1525 119.765 90.7612 120.063C90.37 120.361 89.8216 120.308 89.4926 119.957L89.4296 119.883L87.501 117.352L84.9701 119.281L84.8898 119.335C84.4793 119.586 83.9366 119.492 83.6384 119.101C83.3402 118.709 83.3923 118.16 83.7439 117.831L83.8183 117.769L86.3492 115.841L84.3101 113.165C83.9921 112.747 84.0726 112.151 84.49 111.833C84.9074 111.515 85.5036 111.595 85.8216 112.013L87.8607 114.689L90.5366 112.65Z"/>
</mask>
<path d="M90.5366 112.65C90.954 112.332 91.5502 112.412 91.8683 112.83C92.1861 113.247 92.1057 113.843 91.6884 114.161L89.0125 116.2L90.9411 118.731L90.9964 118.811C91.2481 119.221 91.1525 119.765 90.7612 120.063C90.37 120.361 89.8216 120.308 89.4926 119.957L89.4296 119.883L87.501 117.352L84.9701 119.281L84.8898 119.335C84.4793 119.586 83.9366 119.492 83.6384 119.101C83.3402 118.709 83.3923 118.16 83.7439 117.831L83.8183 117.769L86.3492 115.841L84.3101 113.165C83.9921 112.747 84.0726 112.151 84.49 111.833C84.9074 111.515 85.5036 111.595 85.8216 112.013L87.8607 114.689L90.5366 112.65Z" fill="#144475"/>
<path d="M91.8683 112.83L92.4166 112.412L92.4165 112.412L91.8683 112.83ZM91.6884 114.161L91.2707 113.613L91.6884 114.161ZM89.0125 116.2L88.5948 115.652L88.0466 116.07L88.4643 116.618L89.0125 116.2ZM90.9411 118.731L91.5067 118.337L91.4982 118.325L91.4893 118.313L90.9411 118.731ZM90.9964 118.811L91.584 118.45L91.5735 118.433L91.562 118.417L90.9964 118.811ZM90.7612 120.063L91.1789 120.611L91.179 120.611L90.7612 120.063ZM89.4926 119.957L88.9691 120.405L88.979 120.416L88.9894 120.428L89.4926 119.957ZM89.4296 119.883L88.8814 120.301L88.8933 120.316L88.9061 120.331L89.4296 119.883ZM87.501 117.352L88.0492 116.934L87.6315 116.386L87.0833 116.804L87.501 117.352ZM84.9701 119.281L85.3558 119.852L85.3721 119.841L85.3878 119.829L84.9701 119.281ZM84.8898 119.335L85.25 119.922L85.263 119.914L85.2756 119.906L84.8898 119.335ZM83.6384 119.101L83.0902 119.518L83.0903 119.519L83.6384 119.101ZM83.7439 117.831L83.3031 117.301L83.2876 117.314L83.2729 117.328L83.7439 117.831ZM83.8183 117.769L83.4005 117.221L83.3888 117.23L83.3774 117.239L83.8183 117.769ZM86.3492 115.841L86.7669 116.389L87.3151 115.971L86.8974 115.423L86.3492 115.841ZM84.3101 113.165L84.8583 112.747L84.3101 113.165ZM84.49 111.833L84.0723 111.285L84.0722 111.285L84.49 111.833ZM87.8607 114.689L87.3125 115.106L87.7302 115.655L88.2784 115.237L87.8607 114.689ZM90.5366 112.65L90.9544 113.198C91.069 113.111 91.2327 113.133 91.3201 113.247L91.8683 112.83L92.4165 112.412C91.8677 111.692 90.8391 111.553 90.1189 112.101L90.5366 112.65ZM91.8683 112.83L91.32 113.247C91.4074 113.362 91.3851 113.526 91.2707 113.613L91.6884 114.161L92.1062 114.709C92.8264 114.161 92.9648 113.132 92.4166 112.412L91.8683 112.83ZM91.6884 114.161L91.2707 113.613L88.5948 115.652L89.0125 116.2L89.4302 116.748L92.1062 114.709L91.6884 114.161ZM89.0125 116.2L88.4643 116.618L90.3929 119.149L90.9411 118.731L91.4893 118.313L89.5607 115.783L89.0125 116.2ZM90.9411 118.731L90.3755 119.125L90.4308 119.204L90.9964 118.811L91.562 118.417L91.5067 118.337L90.9411 118.731ZM90.9964 118.811L90.4088 119.171C90.4774 119.283 90.4508 119.433 90.3435 119.515L90.7612 120.063L91.179 120.611C91.8543 120.096 92.0187 119.16 91.584 118.45L90.9964 118.811ZM90.7612 120.063L90.3435 119.515C90.2373 119.596 90.0863 119.582 89.9957 119.485L89.4926 119.957L88.9894 120.428C89.557 121.034 90.5026 121.126 91.1789 120.611L90.7612 120.063ZM89.4926 119.957L90.016 119.508L89.953 119.435L89.4296 119.883L88.9061 120.331L88.9691 120.405L89.4926 119.957ZM89.4296 119.883L89.9778 119.465L88.0492 116.934L87.501 117.352L86.9528 117.77L88.8814 120.301L89.4296 119.883ZM87.501 117.352L87.0833 116.804L84.5523 118.732L84.9701 119.281L85.3878 119.829L87.9187 117.9L87.501 117.352ZM84.9701 119.281L84.5843 118.709L84.504 118.764L84.8898 119.335L85.2756 119.906L85.3558 119.852L84.9701 119.281ZM84.8898 119.335L84.5296 118.747C84.4169 118.816 84.2676 118.789 84.1865 118.683L83.6384 119.101L83.0903 119.519C83.6056 120.194 84.5418 120.357 85.25 119.922L84.8898 119.335ZM83.6384 119.101L84.1866 118.683C84.1049 118.576 84.119 118.424 84.2149 118.334L83.7439 117.831L83.2729 117.328C82.6656 117.896 82.5756 118.843 83.0902 119.518L83.6384 119.101ZM83.7439 117.831L84.1847 118.361L84.2591 118.299L83.8183 117.769L83.3774 117.239L83.3031 117.301L83.7439 117.831ZM83.8183 117.769L84.236 118.317L86.7669 116.389L86.3492 115.841L85.9315 115.292L83.4005 117.221L83.8183 117.769ZM86.3492 115.841L86.8974 115.423L84.8583 112.747L84.3101 113.165L83.7619 113.582L85.801 116.258L86.3492 115.841ZM84.3101 113.165L84.8583 112.747C84.771 112.632 84.7931 112.468 84.9078 112.381L84.49 111.833L84.0722 111.285C83.3522 111.834 83.2131 112.862 83.7619 113.582L84.3101 113.165ZM84.49 111.833L84.9077 112.381C85.0223 112.294 85.1861 112.316 85.2734 112.431L85.8216 112.013L86.3698 111.595C85.8211 110.875 84.7924 110.736 84.0723 111.285L84.49 111.833ZM85.8216 112.013L85.2734 112.431L87.3125 115.106L87.8607 114.689L88.4089 114.271L86.3698 111.595L85.8216 112.013ZM87.8607 114.689L88.2784 115.237L90.9544 113.198L90.5366 112.65L90.1189 112.101L87.443 114.141L87.8607 114.689Z" fill="white" mask="url(#path-10-outside-3_1062_17326)"/>
<path d="M112.284 61.1346C112.284 61.1346 111.428 62.8906 108.344 62.8906C105.259 62.8906 104.134 61.1346 104.134 61.1346V44.3369C104.134 36.2155 106.302 30.8528 110.581 28.3997C114.676 26.0523 120.059 26.7775 126.563 30.5799C131.755 33.6073 144.579 42.6907 144.885 42.9433C144.885 42.9433 145.557 45.2458 143.65 47.4261C141.743 49.6063 139.717 49.2477 139.717 49.2477C139.644 49.1904 127.081 40.3189 122.456 37.6133C118.866 35.5147 116.001 35.0744 114.697 35.8365C113.56 36.4887 112.284 38.795 112.284 44.3369V61.1346Z" fill="#CCD6DD"/>
<path d="M122.206 28.4364C117.626 26.619 113.722 26.5987 110.58 28.3958C107.357 30.246 105.335 33.7502 104.533 38.836L112.581 40.3316C113.021 37.6256 113.893 36.3012 114.7 35.8368C115.597 35.311 117.267 35.4088 119.37 36.171L122.206 28.4364Z" fill="#99AAB5"/>
<path d="M124.232 71.469H57.2749C56.1541 71.469 55.2373 70.5522 55.2373 69.4318C55.2373 68.3114 56.1541 67.3942 57.2749 67.3942H124.232C125.352 67.3942 126.269 68.311 126.269 69.4318C126.269 70.5526 125.352 71.469 124.232 71.469Z" fill="#D7E8FC"/>
<path d="M136.363 58.4126L126.029 70.7842C125.364 71.6036 124.109 71.6931 123.241 70.9882C122.369 70.2833 122.202 69.036 122.862 68.2171L133.196 55.845C133.861 55.0261 135.116 54.9365 135.984 55.6414C136.856 56.3505 137.023 57.5932 136.363 58.4126Z" fill="#D7E8FC"/>
</svg>
