<svg width="200" height="200" viewBox="0 0 200 200" fill="none" xmlns="http://www.w3.org/2000/svg">
<mask id="path-1-outside-1_922_9269" maskUnits="userSpaceOnUse" x="16.8972" y="16.8973" width="166" height="166" fill="black">
<rect fill="white" x="16.8972" y="16.8973" width="166" height="166"/>
<path d="M94.1348 25.2404C97.2589 22.1163 102.324 22.1164 105.448 25.2404L174.343 94.1349C177.467 97.2591 177.467 102.324 174.343 105.448L105.448 174.343C102.324 177.467 97.259 177.467 94.1348 174.343L25.2402 105.448C22.1163 102.324 22.1161 97.259 25.2402 94.1349L94.1348 25.2404Z"/>
</mask>
<path d="M94.1348 25.2404C97.2589 22.1163 102.324 22.1164 105.448 25.2404L174.343 94.1349C177.467 97.2591 177.467 102.324 174.343 105.448L105.448 174.343C102.324 177.467 97.259 177.467 94.1348 174.343L25.2402 105.448C22.1163 102.324 22.1161 97.259 25.2402 94.1349L94.1348 25.2404Z" fill="#5E5E5E"/>
<path d="M94.1348 25.2404L89.8922 20.9977L89.8921 20.9977L94.1348 25.2404ZM105.448 25.2404L109.691 20.9977L109.691 20.9975L105.448 25.2404ZM174.343 94.1349L178.585 89.8922L174.343 94.1349ZM174.343 105.448L178.585 109.691L178.585 109.691L174.343 105.448ZM105.448 174.343L101.206 170.1L101.206 170.1L105.448 174.343ZM94.1348 174.343L98.3774 170.1L98.3774 170.1L94.1348 174.343ZM25.2402 105.448L20.9974 109.691L20.9976 109.691L25.2402 105.448ZM25.2402 94.1349L20.9976 89.8922L25.2402 94.1349ZM94.1348 25.2404L98.3774 29.483C99.1582 28.7022 100.425 28.702 101.206 29.4832L105.448 25.2404L109.691 20.9975C104.224 15.5308 95.3596 15.5303 89.8922 20.9977L94.1348 25.2404ZM105.448 25.2404L101.206 29.483L170.1 98.3775L174.343 94.1349L178.585 89.8922L109.691 20.9977L105.448 25.2404ZM174.343 94.1349L170.1 98.3775C170.881 99.1585 170.881 100.425 170.1 101.206L174.343 105.448L178.585 109.691C184.053 104.224 184.053 95.3596 178.585 89.8922L174.343 94.1349ZM174.343 105.448L170.1 101.206L101.206 170.1L105.448 174.343L109.691 178.586L178.585 109.691L174.343 105.448ZM105.448 174.343L101.206 170.1C100.425 170.881 99.1585 170.881 98.3774 170.1L94.1348 174.343L89.8921 178.586C95.3595 184.053 104.224 184.053 109.691 178.586L105.448 174.343ZM94.1348 174.343L98.3774 170.1L29.4829 101.206L25.2402 105.448L20.9976 109.691L89.8921 178.586L94.1348 174.343ZM25.2402 105.448L29.4831 101.206C28.7018 100.425 28.7021 99.1583 29.4829 98.3775L25.2402 94.1349L20.9976 89.8922C15.5302 95.3597 15.5307 104.224 20.9974 109.691L25.2402 105.448ZM25.2402 94.1349L29.4829 98.3775L98.3774 29.483L94.1348 25.2404L89.8921 20.9977L20.9976 89.8922L25.2402 94.1349Z" fill="white" mask="url(#path-1-outside-1_922_9269)"/>
<path d="M94.1349 25.2405C97.259 22.1163 102.324 22.1163 105.449 25.2405L174.343 94.135C177.467 97.2592 177.467 102.324 174.343 105.449L105.449 174.343C102.324 177.467 97.259 177.467 94.1348 174.343L25.2403 105.449C22.1162 102.324 22.1162 97.2592 25.2404 94.135L94.1349 25.2405Z" fill="#FAB80C"/>
<path d="M95.7574 32.2426C98.1005 29.8995 101.899 29.8995 104.243 32.2426L167.757 95.7574C170.101 98.1005 170.101 101.899 167.757 104.243L104.243 167.757C101.899 170.101 98.1005 170.101 95.7574 167.757L32.2426 104.243C29.8995 101.899 29.8995 98.1005 32.2426 95.7574L95.7574 32.2426Z" stroke="#262728" stroke-width="3" stroke-linecap="round" stroke-linejoin="round"/>
<path d="M91.6142 132.311C92.1912 132.278 92.7328 132.023 93.1261 131.599C93.5193 131.176 93.7336 130.617 93.7243 130.039L93.3023 117.963C93.2521 117.344 93.0143 116.755 92.6206 116.275L87.5564 110.821C87.7736 110.373 87.9475 109.906 88.0758 109.425L88.6602 106.666L92.4907 109.393C92.7164 109.675 93.0036 109.902 93.3305 110.057C93.6574 110.211 94.0152 110.288 94.3767 110.283C94.7381 110.278 95.0935 110.19 95.4158 110.026C95.738 109.862 96.0185 109.627 96.2358 109.338C96.4531 109.049 96.6014 108.714 96.6694 108.359C96.7374 108.004 96.7233 107.639 96.6282 107.29C96.5331 106.941 96.3594 106.619 96.1205 106.347C95.8817 106.076 95.5839 105.863 95.25 105.725L89.7963 101.764L91.1273 95.6288C91.304 94.8971 91.3318 94.1373 91.2091 93.3947C91.0863 92.652 90.8155 91.9416 90.4127 91.3056C90.01 90.6697 89.4835 90.1212 88.8645 89.6928C88.2456 89.2644 87.5468 88.9648 86.8098 88.8117L85.8684 88.617C84.657 88.3499 83.3914 88.4867 82.2651 89.0065L73.0133 94.0706C72.5088 94.387 72.13 94.869 71.9421 95.4341L69.1178 103.452C68.9762 103.998 69.0453 104.576 69.3113 105.073C69.5773 105.57 70.0207 105.948 70.5531 106.132C71.0855 106.316 71.6678 106.293 72.184 106.067C72.7001 105.841 73.1121 105.429 73.3379 104.913L75.8051 97.8363L78.4345 96.4079L76.1297 106.828C75.9174 107.714 75.9174 108.637 76.1297 109.523L75.1234 117.508C74.8637 118.093 70.6436 128.481 70.4163 129.065C70.2991 129.351 70.2393 129.657 70.2403 129.965C70.2413 130.274 70.3031 130.58 70.4221 130.864C70.5412 131.149 70.7152 131.408 70.9342 131.626C71.1532 131.843 71.413 132.015 71.6986 132.133C71.9842 132.25 72.2901 132.31 72.5989 132.309C72.9076 132.308 73.2131 132.246 73.498 132.127C73.7829 132.008 74.0415 131.834 74.2591 131.615C74.4767 131.396 74.649 131.136 74.7663 130.85L79.4409 119.294L79.6681 118.515L80.3173 113.483C81.2801 113.796 82.3016 113.885 83.3039 113.743C83.7908 114.295 88.368 119.229 88.8874 119.748L89.2445 130.201C89.2522 130.498 89.3207 130.791 89.4459 131.061C89.5711 131.331 89.7503 131.572 89.9724 131.769C90.1945 131.967 90.4548 132.117 90.7372 132.211C91.0196 132.304 91.3181 132.338 91.6142 132.311Z" fill="#262728"/>
<path d="M128.62 98.7777L120.018 92.7397L121.219 87.1887C121.41 86.3909 121.439 85.5629 121.305 84.7537C121.17 83.9444 120.875 83.1704 120.436 82.4773C119.997 81.7842 119.424 81.1862 118.75 80.7185C118.076 80.2509 117.315 79.9232 116.512 79.7548C113.266 79.0406 111.707 80.6962 102.618 85.6954C102.262 85.9007 101.952 86.1764 101.706 86.5057C101.461 86.8351 101.285 87.211 101.19 87.6107L97.9434 96.6352C97.7135 97.3362 97.767 98.0994 98.0925 98.7615C98.418 99.4236 98.9897 99.932 99.6853 100.178C100.381 100.424 101.145 100.388 101.814 100.078C102.484 99.7676 103.005 99.2078 103.267 98.518L106.027 90.5648L107.974 89.4935L106.286 97.0897L99.177 112.217C98.9779 112.579 98.8841 112.988 98.9063 113.4C98.9284 113.812 99.0655 114.21 99.3021 114.548C99.5387 114.886 99.8653 115.151 100.245 115.313C100.624 115.474 101.042 115.527 101.449 115.463L103.689 115.301L103.332 117.931V118.58L99.177 128.838C99.0469 129.164 98.9824 129.513 98.9871 129.864C98.9918 130.215 99.0656 130.561 99.2042 130.884C99.3429 131.206 99.5437 131.498 99.7953 131.743C100.047 131.988 100.344 132.181 100.67 132.311C100.996 132.441 101.345 132.506 101.696 132.501C102.047 132.496 102.394 132.423 102.716 132.284C103.039 132.145 103.331 131.945 103.576 131.693C103.821 131.441 104.014 131.144 104.144 130.818L108.266 120.592L108.753 118.612L109.24 114.879L117.064 114.295L121.868 119.456L122.225 130.071C122.234 130.403 122.308 130.729 122.443 131.031C122.579 131.333 122.773 131.605 123.014 131.832C123.256 132.058 123.54 132.235 123.851 132.35C124.161 132.466 124.491 132.519 124.822 132.506C125.491 132.472 126.12 132.179 126.575 131.687C127.03 131.196 127.275 130.546 127.257 129.877L126.867 118.125C126.776 117.429 126.482 116.774 126.023 116.242L123.751 113.775C124.112 113.771 124.466 113.678 124.782 113.505C125.099 113.332 125.368 113.085 125.567 112.783C125.765 112.482 125.887 112.137 125.921 111.778C125.956 111.419 125.902 111.057 125.764 110.724L121.316 100.823L125.342 103.712C125.967 104.16 126.744 104.343 127.504 104.221C128.264 104.1 128.945 103.683 129.399 103.063C129.647 102.736 129.824 102.362 129.919 101.964C130.014 101.566 130.026 101.152 129.952 100.749C129.879 100.346 129.723 99.9626 129.494 99.6233C129.264 99.2839 128.967 98.996 128.62 98.7777Z" fill="#262728"/>
<path d="M89.7463 87.6676C85.0769 88.9187 80.2773 86.1477 79.0262 81.4783C77.775 76.8089 80.546 72.0093 85.2154 70.7581C89.8849 69.5069 94.6844 72.278 95.9356 76.9474C97.1868 81.6168 94.4157 86.4164 89.7463 87.6676Z" fill="#262728"/>
<circle cx="2.29084" cy="2.29084" r="2.29084" transform="matrix(-0.965926 0.258819 0.258819 0.965926 91.6055 73.3644)" fill="white"/>
<circle cx="1.3745" cy="1.3745" r="1.3745" transform="matrix(-0.965926 0.258819 0.258819 0.965926 90.9573 74.4866)" fill="#161616"/>
<circle cx="1.3745" cy="1.3745" r="1.3745" transform="matrix(-0.965926 0.258819 0.258819 0.965926 90.9573 74.4866)" fill="#262728"/>
<path d="M95.8099 79.3141C96.9838 79.3155 98.8051 78.183 98.8083 77.1912C98.8115 76.1993 96.9979 75.0615 95.8266 75.0598C94.6552 75.0581 93.6999 75.7048 93.6953 77.1827C93.69 78.678 94.6385 79.3124 95.8124 79.3139L95.8099 79.3141Z" fill="#5E5E5E"/>
<path d="M117.829 79.1314C113.005 79.4418 108.843 75.7826 108.533 70.9584C108.222 66.1343 111.881 61.9719 116.706 61.6616C121.53 61.3512 125.692 65.0104 126.002 69.8345C126.313 74.6587 122.654 78.821 117.829 79.1314Z" fill="#262728"/>
<circle cx="2.29084" cy="2.29084" r="2.29084" transform="matrix(-0.997937 0.0642018 0.0642018 0.997937 122.46 65.4712)" fill="white"/>
<circle cx="1.3745" cy="1.3745" r="1.3745" transform="matrix(-0.997937 0.0642018 0.0642018 0.997937 121.604 66.4443)" fill="#161616"/>
<circle cx="1.3745" cy="1.3745" r="1.3745" transform="matrix(-0.997937 0.0642018 0.0642018 0.997937 121.604 66.4443)" fill="#262728"/>
<path d="M125.415 72.1305C126.565 72.3623 128.574 71.6093 128.771 70.6373C128.969 69.6654 127.414 68.1937 126.266 67.9622C125.118 67.7306 124.054 68.1773 123.76 69.6254C123.461 71.0906 124.266 71.8989 125.417 72.1307L125.415 72.1305Z" fill="#5E5E5E"/>
</svg>
