<svg width="1024" height="1024" viewBox="0 0 1024 1024" fill="none" xmlns="http://www.w3.org/2000/svg">
<path d="M518.919 713.23C589.398 713.23 646.533 656.095 646.533 585.615C646.533 515.135 589.398 458 518.919 458C448.439 458 391.304 515.135 391.304 585.615C391.304 656.095 448.439 713.23 518.919 713.23Z" fill="#4B9AE8"/>
<circle cx="472.164" cy="552.216" r="33.3995" fill="white"/>
<circle cx="472.167" cy="552.215" r="20.0397" fill="#161616"/>
<circle cx="472.167" cy="552.215" r="20.0397" fill="#161616"/>
<path d="M402.008 618.472C385.482 622.921 355.56 613.845 351.772 599.889C347.984 585.933 369.23 563.065 385.72 558.621C402.21 554.178 418.105 559.681 423.745 580.475C429.463 601.513 418.499 614.028 401.972 618.477L402.008 618.472Z" fill="#EAC00F"/>
</svg>
