<svg width="200" height="200" viewBox="0 0 200 200" fill="none" xmlns="http://www.w3.org/2000/svg">
<mask id="path-1-outside-1_1062_23452" maskUnits="userSpaceOnUse" x="14" y="14" width="172" height="172" fill="black">
<rect fill="white" x="14" y="14" width="172" height="172"/>
<path d="M100 20C144.183 20 180 55.8172 180 100C180 144.183 144.183 180 100 180C55.8172 180 20 144.183 20 100C20 55.8172 55.8172 20 100 20Z"/>
</mask>
<path d="M100 20C144.183 20 180 55.8172 180 100C180 144.183 144.183 180 100 180C55.8172 180 20 144.183 20 100C20 55.8172 55.8172 20 100 20Z" fill="#276288"/>
<path d="M100 20V26C140.869 26 174 59.1309 174 100H180H186C186 52.5035 147.496 14 100 14V20ZM180 100H174C174 140.869 140.869 174 100 174V180V186C147.496 186 186 147.496 186 100H180ZM100 180V174C59.1309 174 26 140.869 26 100H20H14C14 147.496 52.5035 186 100 186V180ZM20 100H26C26 59.1309 59.1309 26 100 26V20V14C52.5035 14 14 52.5035 14 100H20Z" fill="white" mask="url(#path-1-outside-1_1062_23452)"/>
<path d="M100 180C144.183 180 180 144.183 180 100C180 55.8172 144.183 20 100 20C55.8172 20 20 55.8172 20 100C20 144.183 55.8172 180 100 180Z" fill="#EFDB82"/>
<path d="M85.9501 65.0965C82.8472 65.0965 79.9887 63.1784 78.2335 60.4641C76.4783 57.7498 71.3444 45.2817 63.9977 42.1599C56.6509 39.0382 56.8076 37.1263 54.4131 38.3988C52.0185 39.6776 52.1752 47.5007 52.9776 51.0174C53.7799 54.534 58.7258 63.7927 63.5213 67.1463C68.3104 70.5 68.4734 84.2344 62.5622 94.1387C58.7321 96.2136 50.1066 98.9279 43.3992 118.097C37.9393 133.699 42.8476 145.071 44.8661 148.757C45.3049 149.559 46.1072 150.098 47.0162 150.205C52.5889 150.856 73.3253 153.188 77.7383 152.173C82.8472 150.994 100.543 137.128 102.461 129.75C104.38 122.378 104.166 111.515 103.953 106.619C103.74 101.724 101.552 99.7804 101.552 98.5016C105.276 96.3076 113.764 90.691 114.284 83.7768C114.284 81.1691 110.93 65.0903 85.9626 65.0903L85.9501 65.0965Z" fill="#FBF3D3"/>
<path d="M82.4731 64.2252C82.4731 64.2252 86.8798 54.7409 89.6443 52.3901C91.763 50.5848 93.117 49.6633 94.9036 49.6633C96.1259 49.6633 96.7403 53.1737 97.1289 56.0134C97.5176 58.853 96.0758 63.8428 94.3394 65.692C92.0577 65.6356 85.1623 66.9645 82.4668 64.2314L82.4731 64.2252Z" fill="#FBF3D3"/>
<path d="M90.9201 136.207C90.895 136.106 85.5542 142.363 90.475 145.064C91.7224 145.748 90.2431 152.129 93.5779 153.264C96.9128 154.398 108.842 154.329 111.393 153.264C113.951 152.198 117.568 149.853 113.311 145.24C110.754 142.4 106.711 143.04 105.219 143.108C103.727 143.177 101.671 142.112 101.457 141.479C101.815 140.733 103.163 135.373 103.087 132.891C103.018 130.408 102.548 130.383 103.012 127.193" fill="#FBF3D3"/>
<path d="M90.9201 136.207C90.895 136.106 85.5542 142.363 90.475 145.064C91.7224 145.748 90.2431 152.129 93.5779 153.264C96.9128 154.398 108.842 154.329 111.393 153.264C113.951 152.198 117.568 149.853 113.311 145.24C110.754 142.4 106.711 143.04 105.219 143.108C103.727 143.177 101.671 142.112 101.457 141.479C101.815 140.733 103.163 135.373 103.087 132.891C103.018 130.408 102.548 130.383 103.012 127.193" stroke="#C4C8C8" stroke-width="1.88056" stroke-linecap="round" stroke-linejoin="round"/>
<path d="M62.1992 115.483C62.1992 115.483 66.6812 125.839 71.1507 129.406C75.6202 132.972 75.4635 139.68 75.1939 141.222C74.9306 142.764 74.448 142.444 74.7175 143.936C74.987 145.428 76.4727 148.938 76.4727 151.389V154.311C76.4727 154.311 95.4789 155.583 98.0365 154.311C100.594 153.038 96.5446 146.067 90.4766 145.052C88.2952 144.519 87.7623 142.018 89.0411 139.247C90.3199 136.477 91.7052 135.68 92.9778 132.91C94.2565 130.139 95.4789 127.318 96.2813 123.488" fill="#FBF3D3"/>
<path d="M62.1992 115.483C62.1992 115.483 66.6812 125.839 71.1507 129.406C75.6202 132.972 75.4635 139.68 75.1939 141.222C74.9306 142.764 74.448 142.444 74.7175 143.936C74.987 145.428 76.4727 148.938 76.4727 151.389V154.311C76.4727 154.311 95.4789 155.583 98.0365 154.311C100.594 153.038 96.5446 146.067 90.4766 145.052C88.2952 144.519 87.7623 142.018 89.0411 139.247C90.3199 136.477 91.7052 135.68 92.9778 132.91C94.2565 130.139 95.4789 127.318 96.2813 123.488" stroke="#C4C8C8" stroke-width="1.88056" stroke-linecap="round" stroke-linejoin="round"/>
<path d="M44.8652 148.757C44.8652 148.757 48.5574 152.737 49.3974 153.596C50.0869 154.304 52.5317 154.661 53.9484 154.661C55.365 154.661 71.9516 155.846 73.0423 154.661C74.202 153.402 72.4656 142.902 64.9434 142.406C57.4211 141.911 55.108 145.158 53.5472 146.23" fill="#FBF3D3"/>
<path d="M44.8652 148.757C44.8652 148.757 48.5574 152.737 49.3974 153.596C50.0869 154.304 52.5317 154.661 53.9484 154.661C55.365 154.661 71.9516 155.846 73.0423 154.661C74.202 153.402 72.4656 142.902 64.9434 142.406C57.4211 141.911 55.108 145.158 53.5472 146.23" stroke="#C4C8C8" stroke-width="1.88056" stroke-linecap="round" stroke-linejoin="round"/>
<path d="M89.9555 81.2588C92.7602 81.2588 95.0339 78.9851 95.0339 76.1803C95.0339 73.3755 92.7602 71.1018 89.9555 71.1018C87.1507 71.1018 84.877 73.3755 84.877 76.1803C84.877 78.9851 87.1507 81.2588 89.9555 81.2588Z" fill="white"/>
<path d="M89.957 78.8873C91.452 78.8873 92.664 77.6754 92.664 76.1804C92.664 74.6853 91.452 73.4734 89.957 73.4734C88.462 73.4734 87.25 74.6853 87.25 76.1804C87.25 77.6754 88.462 78.8873 89.957 78.8873Z" fill="#040000"/>
<path d="M113.261 155.493C113.261 155.493 118.746 160.869 106.52 160.602C94.2942 160.334 99.6152 155.288 99.6152 155.288C99.6152 155.288 102.68 158.387 113.261 155.486V155.493Z" fill="#A88957"/>
<path d="M146.187 145.017C146.557 144.939 146.922 145.177 146.999 145.547L148.875 154.496L152.429 155.034C152.803 155.091 153.061 155.441 153.004 155.816C152.951 156.167 152.64 156.415 152.293 156.398L152.223 156.391L149.323 155.95L150.136 158.285C150.26 158.643 150.071 159.033 149.713 159.157C149.356 159.282 148.965 159.093 148.84 158.736L148.041 156.442L146.178 158.577C145.929 158.862 145.496 158.892 145.211 158.643C144.926 158.394 144.897 157.96 145.146 157.675L147.561 154.907L145.657 145.828C145.579 145.458 145.817 145.095 146.187 145.017Z" fill="#474747"/>
<path d="M133.792 144.578C133.435 144.451 133.043 144.637 132.915 144.993L129.833 153.601L126.238 153.649C125.86 153.654 125.557 153.965 125.562 154.343C125.567 154.698 125.841 154.986 126.187 155.017L126.257 155.02L129.191 154.98L128.065 157.182C127.893 157.519 128.028 157.932 128.365 158.104C128.702 158.276 129.115 158.143 129.287 157.806L130.391 155.644L131.945 158.013C132.153 158.329 132.577 158.417 132.894 158.21C133.21 158.002 133.298 157.577 133.091 157.261L131.077 154.19L134.206 145.455C134.333 145.098 134.148 144.706 133.792 144.578Z" fill="#474747"/>
<path d="M112.568 125.151L136.52 115.613C136.52 115.613 140.565 130.548 127.983 135.56C120.516 138.529 113.672 135.444 110.175 132.091C107.995 129.999 109.071 126.543 112.568 125.151Z" fill="#1C5071"/>
<path d="M163.165 134.196C163.165 138.035 161.876 141.457 159.648 144.262C155.767 149.157 149.047 152.188 141.36 152.367C141.12 152.367 140.873 152.373 140.633 152.373C140.393 152.373 140.147 152.373 139.907 152.367C132.213 152.188 125.5 149.151 121.619 144.262C119.398 141.457 118.102 138.035 118.102 134.196C118.102 128.168 121.276 122.779 126.261 119.213C126.261 119.213 126.275 116.8 126.275 115.812C126.275 106.754 132.707 100 140.64 100C148.574 100 155.006 106.754 155.006 115.812C155.006 116.8 154.718 118.774 154.574 118.905C154.875 119.09 155.013 119.206 155.013 119.206C159.998 122.779 163.172 128.161 163.172 134.196H163.165Z" fill="#4B9AE8"/>
<path d="M135.376 113.46C137.269 113.46 138.804 111.925 138.804 110.032C138.804 108.138 137.269 106.603 135.376 106.603C133.482 106.603 131.947 108.138 131.947 110.032C131.947 111.925 133.482 113.46 135.376 113.46Z" fill="white"/>
<path d="M135.376 111.859C136.386 111.859 137.204 111.041 137.204 110.032C137.204 109.022 136.386 108.204 135.376 108.204C134.367 108.204 133.549 109.022 133.549 110.032C133.549 111.041 134.367 111.859 135.376 111.859Z" fill="#040000"/>
<path d="M128.013 115.503C126.447 115.673 123.859 114.305 123.724 112.877C123.59 111.45 125.853 109.538 127.42 109.368C128.986 109.198 130.35 109.99 130.552 112.125C130.76 114.279 129.579 115.333 128.013 115.503Z" fill="#EAC00F"/>
<path d="M117.656 140.819C117.656 140.819 118.342 158.572 106.52 158.14C94.699 158.572 95.0007 140.819 95.0007 140.819C95.0007 140.819 101.59 143.02 117.656 140.819Z" fill="#D69C0B"/>
<path d="M116.176 144.316C116.054 144.512 111.565 146.373 106.212 146.373C100.859 146.373 96.291 144.316 96.291 144.316" stroke="#B78813" stroke-width="1.21368" stroke-linecap="round" stroke-linejoin="round"/>
<path d="M106.33 142.89C112.586 142.89 117.657 141.963 117.657 140.819C117.657 139.676 112.586 138.749 106.33 138.749C100.074 138.749 95.002 139.676 95.002 140.819C95.002 141.963 100.074 142.89 106.33 142.89Z" fill="#634C14"/>
<path d="M107.352 141.224C109.354 142.575 112.858 142.184 113.866 140.73C114.874 139.277 113.495 135.444 113.502 132.2C113.502 128.957 115.038 119.337 115.84 116.251C116.65 113.165 118.378 106.692 118.378 106.692C118.378 106.692 114.778 107.543 111.918 105.87C111.253 109.943 110.897 124.911 110.478 128.326C110.053 131.741 107.29 134.1 106.426 135.759C105.726 137.103 104.904 139.599 107.358 141.217" fill="#916D42"/>
<path d="M118.501 106.524C118.55 106.118 117.109 105.608 115.282 105.385C113.455 105.162 111.934 105.311 111.885 105.717C111.835 106.123 113.276 106.633 115.103 106.855C116.93 107.078 118.451 106.93 118.501 106.524Z" fill="#A88957"/>
<path d="M131.708 118.596L116.739 120.427C113.084 120.873 110.835 124.04 112.289 126.687C114.566 130.822 118.885 135.649 126.387 134.73C132.654 133.962 136.336 129.773 138.455 125.714C140.444 121.894 136.72 117.979 131.701 118.596H131.708Z" fill="#276288"/>
</svg>
