<svg width="200" height="200" viewBox="0 0 200 200" fill="none" xmlns="http://www.w3.org/2000/svg">
<mask id="path-1-outside-1_1062_19092" maskUnits="userSpaceOnUse" x="15.999" y="15.0002" width="169" height="169" fill="black">
<rect fill="white" x="15.999" y="15.0002" width="169" height="169"/>
<path d="M93.3265 49.6563C115.362 13.3296 145.989 23.2238 146.067 23.249H146.07C182.368 33.6422 183.63 66.1285 173.638 101.487C163.736 136.529 147.043 155.281 134.259 169.336C121.473 183.391 108.384 176.313 104.647 172.615C100.91 168.918 104.402 163.846 96.5608 166.799C79.1584 171.747 71.4367 165.964 67.8167 161.375C63.1347 155.443 72.534 146.435 65.139 145.354C33.1997 143.446 30.2046 137.495 27.8382 133.25C25.4719 129.005 25.3614 119.683 29.3431 115.366C33.322 111.052 35.1857 107.722 28.4993 104.56C21.8131 101.397 20.2752 91.8776 23.931 88.4971C27.1171 85.5503 27.7759 90.4632 41.1487 94.5947C56.6336 99.3781 71.2659 86.0259 93.3265 49.6563Z"/>
</mask>
<path d="M93.3265 49.6563C115.362 13.3296 145.989 23.2238 146.067 23.249H146.07C182.368 33.6422 183.63 66.1285 173.638 101.487C163.736 136.529 147.043 155.281 134.259 169.336C121.473 183.391 108.384 176.313 104.647 172.615C100.91 168.918 104.402 163.846 96.5608 166.799C79.1584 171.747 71.4367 165.964 67.8167 161.375C63.1347 155.443 72.534 146.435 65.139 145.354C33.1997 143.446 30.2046 137.495 27.8382 133.25C25.4719 129.005 25.3614 119.683 29.3431 115.366C33.322 111.052 35.1857 107.722 28.4993 104.56C21.8131 101.397 20.2752 91.8776 23.931 88.4971C27.1171 85.5503 27.7759 90.4632 41.1487 94.5947C56.6336 99.3781 71.2659 86.0259 93.3265 49.6563Z" fill="#3C75A7"/>
<path d="M93.3265 49.6563L88.1965 46.5444L88.1964 46.5446L93.3265 49.6563ZM146.067 23.249L144.218 28.957L145.119 29.249H146.067V23.249ZM146.07 23.249L147.721 17.4808L146.912 17.249H146.07V23.249ZM173.638 101.487L167.864 99.8556L167.864 99.8557L173.638 101.487ZM134.259 169.336L138.697 173.374L138.698 173.373L134.259 169.336ZM104.647 172.615L100.426 176.88L100.426 176.88L104.647 172.615ZM96.5608 166.799L98.2018 172.57L98.4418 172.502L98.6753 172.414L96.5608 166.799ZM67.8167 161.375L72.5275 157.659L72.5266 157.658L67.8167 161.375ZM65.139 145.354L66.0061 139.417L65.7526 139.38L65.4969 139.365L65.139 145.354ZM27.8382 133.25L22.5974 136.171L22.5974 136.171L27.8382 133.25ZM29.3431 115.366L24.9326 111.298L24.9325 111.298L29.3431 115.366ZM28.4993 104.56L25.934 109.984L25.9341 109.984L28.4993 104.56ZM23.931 88.4971L28.0045 92.9023L28.0049 92.902L23.931 88.4971ZM41.1487 94.5947L39.3776 100.327L39.3779 100.327L41.1487 94.5947ZM93.3265 49.6563L98.4564 52.7681C108.602 36.0429 120.33 30.4428 129.097 28.7063C138.126 26.9178 144.69 29.11 144.218 28.957L146.067 23.249L147.916 17.5411C147.366 17.3628 138.577 14.5953 126.765 16.935C114.69 19.3268 100.087 26.943 88.1965 46.5444L93.3265 49.6563ZM146.067 23.249V29.249H146.07V23.249V17.249H146.067V23.249ZM146.07 23.249L144.418 29.0172C160.641 33.6624 168.367 42.8436 171.406 54.5179C174.603 66.7946 172.769 82.4978 167.864 99.8556L173.638 101.487L179.412 103.119C184.499 85.1181 187.03 66.8987 183.019 51.4942C178.851 35.4874 167.796 23.2288 147.721 17.4808L146.07 23.249ZM173.638 101.487L167.864 99.8557C158.344 133.544 142.408 151.46 129.82 165.299L134.259 169.336L138.698 173.373C151.678 159.102 169.127 139.514 179.412 103.119L173.638 101.487ZM134.259 169.336L129.821 165.298C124.601 171.036 119.932 171.954 116.591 171.656C112.842 171.323 109.894 169.366 108.867 168.35L104.647 172.615L100.426 176.88C103.137 179.562 108.601 182.993 115.528 183.609C122.862 184.262 131.131 181.691 138.697 173.374L134.259 169.336ZM104.647 172.615L108.867 168.35C108.812 168.295 108.73 168.215 108.594 167.811C108.506 167.551 108.441 167.303 108.304 166.798C108.197 166.406 107.992 165.643 107.671 164.88C107.333 164.081 106.723 162.916 105.577 161.893C104.352 160.798 102.902 160.207 101.448 160.001C98.9919 159.654 96.4924 160.413 94.4464 161.184L96.5608 166.799L98.6753 172.414C99.4843 172.109 99.9694 171.977 100.219 171.926C100.493 171.869 100.272 171.955 99.7657 171.883C99.1445 171.795 98.3194 171.5 97.582 170.841C96.9244 170.253 96.6653 169.665 96.6149 169.546C96.5804 169.464 96.5988 169.486 96.7236 169.945C96.8177 170.291 96.9925 170.963 97.2251 171.651C97.7301 173.146 98.6137 175.086 100.426 176.88L104.647 172.615ZM96.5608 166.799L94.9199 161.028C87.0268 163.272 81.9646 162.906 78.7829 161.928C75.6547 160.967 73.7748 159.24 72.5275 157.659L67.8167 161.375L63.1059 165.091C65.4786 168.099 69.2695 171.558 75.2578 173.399C81.1926 175.223 88.6925 175.274 98.2018 172.57L96.5608 166.799ZM67.8167 161.375L72.5266 157.658C72.4949 157.618 72.4899 157.606 72.4791 157.563C72.4608 157.49 72.4262 157.292 72.4511 156.9C72.5113 155.948 72.8005 154.924 73.2899 153.101C73.5001 152.319 73.7669 151.298 73.9291 150.263C74.0871 149.255 74.2221 147.802 73.8872 146.23C73.5159 144.486 72.5884 142.724 70.8918 141.391C69.3282 140.163 67.5465 139.642 66.0061 139.417L65.139 145.354L64.2718 151.292C64.5802 151.337 64.1225 151.334 63.4786 150.828C62.7017 150.218 62.2898 149.384 62.1503 148.729C62.0474 148.245 62.1306 148.043 62.0739 148.405C62.0214 148.74 61.9105 149.207 61.7006 149.989C61.3498 151.295 60.6293 153.703 60.475 156.142C60.3068 158.802 60.7455 162.1 63.1068 165.092L67.8167 161.375ZM65.139 145.354L65.4969 139.365C49.7169 138.422 41.8708 136.504 37.8521 134.703C35.9501 133.851 35.0408 133.082 34.5469 132.556C34.0119 131.987 33.7051 131.452 33.0789 130.329L27.8382 133.25L22.5974 136.171C23.1544 137.171 24.1095 138.972 25.7997 140.771C27.531 142.615 29.8104 144.249 32.9454 145.654C39.0007 148.367 48.6217 150.378 64.781 151.344L65.139 145.354ZM27.8382 133.25L33.079 130.329C32.6228 129.51 32.0635 127.35 32.2023 124.642C32.3425 121.906 33.1149 120.127 33.7536 119.434L29.3431 115.366L24.9325 111.298C21.5896 114.923 20.4264 119.963 20.218 124.028C20.0082 128.121 20.6873 132.744 22.5974 136.171L27.8382 133.25ZM29.3431 115.366L33.7535 119.434C34.8101 118.289 35.9487 116.975 36.8598 115.574C37.7481 114.208 38.7374 112.287 38.9051 109.963C39.3183 104.236 34.8938 100.947 31.0645 99.1356L28.4993 104.56L25.9341 109.984C26.5468 110.273 26.9514 110.514 27.2046 110.689C27.4594 110.865 27.5034 110.936 27.4473 110.87C27.3805 110.792 27.2134 110.568 27.0843 110.195C26.9512 109.811 26.9128 109.425 26.9363 109.099C26.958 108.798 27.026 108.634 27.0227 108.642C27.0174 108.655 26.9637 108.78 26.8004 109.031C26.452 109.567 25.8655 110.287 24.9326 111.298L29.3431 115.366ZM28.4993 104.56L31.0646 99.1356C29.7119 98.4959 28.6111 97.053 28.1729 95.2171C27.9617 94.3321 27.968 93.5824 28.0597 93.0929C28.1561 92.578 28.2781 92.6493 28.0045 92.9023L23.931 88.4971L19.8574 84.0919C15.7609 87.8799 15.4924 93.7784 16.5008 98.0032C17.5892 102.563 20.6005 107.461 25.934 109.984L28.4993 104.56ZM23.931 88.4971L28.0049 92.902C28.051 92.8593 26.9309 93.8269 25.1711 93.5557C24.4364 93.4425 24.115 93.1021 25.5733 94.0003C27.9419 95.4592 31.9616 98.0362 39.3776 100.327L41.1487 94.5947L42.9198 88.8621C36.963 87.0217 33.9669 85.0766 31.8664 83.7828C31.0901 83.3047 29.1707 82.0304 26.9986 81.6957C23.8013 81.203 21.404 82.6614 19.857 84.0922L23.931 88.4971ZM41.1487 94.5947L39.3779 100.327C49.7381 103.528 59.3711 100.233 68.7163 92.079C77.8131 84.1422 87.3838 71.0228 98.4565 52.768L93.3265 49.6563L88.1964 46.5446C77.2086 64.6594 68.4329 76.4009 60.8271 83.0368C53.4698 89.4559 48.0442 90.445 42.9196 88.862L41.1487 94.5947Z" fill="white" mask="url(#path-1-outside-1_1062_19092)"/>
<path d="M146.068 23.2487C146.068 23.2487 115.391 13.2834 93.3273 49.6564C71.2665 86.0263 56.6342 99.3783 41.1492 94.5945C27.7763 90.463 27.1182 85.5507 23.932 88.4975C20.2762 91.8781 21.8139 101.398 28.5003 104.56C35.1868 107.722 33.3229 111.052 29.344 115.366C25.362 119.683 25.4727 129.005 27.8392 133.25C30.2056 137.495 33.2003 143.446 65.1396 145.355C72.535 146.435 63.1351 155.443 67.8171 161.375C71.4371 165.964 79.1586 171.747 96.5613 166.799C104.403 163.846 100.911 168.917 104.648 172.615C108.384 176.313 121.473 183.391 134.26 169.336C147.043 155.281 163.737 136.529 173.639 101.487C183.631 66.1286 182.369 33.6418 146.071 23.2487H146.068Z" fill="#6AA6E0"/>
<path d="M119.151 64.0821C124.402 64.0821 128.659 59.8254 128.659 54.5745C128.659 49.3236 124.402 45.0669 119.151 45.0669C113.9 45.0669 109.644 49.3236 109.644 54.5745C109.644 59.8254 113.9 64.0821 119.151 64.0821Z" fill="white"/>
<path d="M119.15 58.4884C121.312 58.4884 123.064 56.7364 123.064 54.5752C123.064 52.4141 121.312 50.6621 119.15 50.6621C116.989 50.6621 115.237 52.4141 115.237 54.5752C115.237 56.7364 116.989 58.4884 119.15 58.4884Z" fill="black" stroke="black" stroke-width="2.69252" stroke-miterlimit="10"/>
<path d="M162.013 71.46C167.264 71.46 171.521 67.2033 171.521 61.9524C171.521 56.7015 167.264 52.4448 162.013 52.4448C156.763 52.4448 152.506 56.7015 152.506 61.9524C152.506 67.2033 156.763 71.46 162.013 71.46Z" fill="white"/>
<path d="M162.15 65.4881C164.312 65.4881 166.064 63.7362 166.064 61.575C166.064 59.4138 164.312 57.6619 162.15 57.6619C159.989 57.6619 158.237 59.4138 158.237 61.575C158.237 63.7362 159.989 65.4881 162.15 65.4881Z" fill="black" stroke="black" stroke-width="2.69252" stroke-miterlimit="10"/>
<path d="M148.982 73.1382C149.069 77.7933 144.016 85.096 139.493 85.1798C134.969 85.2635 129.653 78.1493 129.566 73.4942C129.48 68.8391 132.37 65.0098 139.119 64.8871C145.946 64.7615 148.896 68.4831 148.982 73.1382Z" fill="#EAC00F"/>
<path d="M156.388 105.215C156.388 105.215 146.611 102.717 140.538 111.013C134.614 119.102 136.729 122.779 139.838 123.141C142.949 123.5 152.717 115.045 152.717 115.045" stroke="#3C75A7" stroke-width="3.59003" stroke-miterlimit="10" stroke-linecap="round"/>
<path d="M89.5918 93.6609C100.38 92.2488 112.747 95.0371 111.937 108.5C111.79 110.92 110.145 112.081 107.695 111.614C103.904 110.89 99.5721 109.101 97.1339 105.99" stroke="#3C75A7" stroke-width="3.59003" stroke-miterlimit="10" stroke-linecap="round"/>
</svg>
