<svg width="200" height="200" viewBox="0 0 200 200" fill="none" xmlns="http://www.w3.org/2000/svg">
<mask id="path-1-outside-1_1062_18561" maskUnits="userSpaceOnUse" x="41.4707" y="21.0002" width="117" height="159" fill="black">
<rect fill="white" x="41.4707" y="21.0002" width="117" height="159"/>
<path d="M78.5436 28.0793C93.4001 21.9257 97.3303 44.0953 97.3483 44.1974C97.362 44.143 100.063 33.4523 110.781 33.4523C121.526 33.4525 116.153 52.257 116.153 52.257C116.153 52.257 124.213 46.8842 129.586 49.5705C133.993 51.7746 125.424 66.9663 122.204 72.3527C135.173 81.0567 140.332 95.2037 140.345 95.2394C180.641 170.458 100.049 173.145 100.049 173.145C99.974 173.142 19.4765 170.423 59.7535 95.2394C59.7637 95.2117 65.3327 79.9265 79.4557 71.3537C66.4447 44.9858 69.3241 31.899 78.5436 28.0793Z"/>
</mask>
<path d="M78.5436 28.0793C93.4001 21.9257 97.3303 44.0953 97.3483 44.1974C97.362 44.143 100.063 33.4523 110.781 33.4523C121.526 33.4525 116.153 52.257 116.153 52.257C116.153 52.257 124.213 46.8842 129.586 49.5705C133.993 51.7746 125.424 66.9663 122.204 72.3527C135.173 81.0567 140.332 95.2037 140.345 95.2394C180.641 170.458 100.049 173.145 100.049 173.145C99.974 173.142 19.4765 170.423 59.7535 95.2394C59.7637 95.2117 65.3327 79.9265 79.4557 71.3537C66.4447 44.9858 69.3241 31.899 78.5436 28.0793Z" fill="#474747"/>
<path d="M78.5436 28.0793L76.2475 22.536L76.2471 22.5362L78.5436 28.0793ZM97.3483 44.1974L91.4396 45.24C91.9314 48.0277 94.3048 50.0924 97.1337 50.1936C99.9626 50.2948 102.477 48.4051 103.167 45.6597L97.3483 44.1974ZM110.781 33.4523L110.781 27.4523H110.781V33.4523ZM116.153 52.257L110.384 50.6085C109.693 53.0271 110.584 55.6201 112.615 57.1032C114.647 58.5863 117.388 58.6446 119.481 57.2494L116.153 52.257ZM129.586 49.5705L132.269 44.2041L132.269 44.2039L129.586 49.5705ZM122.204 72.3527L117.054 69.274C115.416 72.0137 116.21 75.5561 118.86 77.3348L122.204 72.3527ZM140.345 95.2394L134.707 97.2921C134.805 97.5603 134.922 97.8212 135.056 98.0728L140.345 95.2394ZM100.049 173.145L99.8482 179.141C99.9819 179.146 100.116 179.146 100.249 179.141L100.049 173.145ZM59.7535 95.2394L65.0424 98.0728C65.1773 97.821 65.294 97.5599 65.3917 97.2915L59.7535 95.2394ZM79.4557 71.3537L82.5691 76.4827C85.2287 74.8683 86.213 71.4888 84.8363 68.6987L79.4557 71.3537ZM78.5436 28.0793L80.8396 33.6226C83.1363 32.6713 84.3482 33.0004 85.0887 33.3664C86.0972 33.8647 87.2358 34.9772 88.3513 36.8558C90.6101 40.6598 91.4542 45.323 91.4396 45.24L97.3483 44.1974L103.257 43.1549C103.224 42.9698 102.094 36.4971 98.6694 30.7291C96.9431 27.8218 94.3124 24.5392 90.4051 22.6083C86.2297 20.5449 81.3791 20.4105 76.2475 22.536L78.5436 28.0793ZM97.3483 44.1974L103.167 45.6597C103.089 45.9705 103.522 44.1697 104.844 42.4126C106.04 40.8243 107.772 39.4523 110.781 39.4523V33.4523V27.4523C103.072 27.4523 98.0945 31.4256 95.2565 35.1964C92.5456 38.7982 91.621 42.3699 91.5292 42.7352L97.3483 44.1974ZM110.781 33.4523L110.781 39.4523C111.225 39.4523 111.241 39.5409 111.073 39.443C110.908 39.3465 110.878 39.2517 110.944 39.3673C111.18 39.7802 111.496 40.8787 111.496 42.8546C111.496 44.6868 111.229 46.6316 110.931 48.196C110.785 48.9592 110.641 49.591 110.535 50.0216C110.483 50.2362 110.44 50.3985 110.413 50.4997C110.4 50.5503 110.39 50.5854 110.385 50.6039C110.383 50.6132 110.381 50.6183 110.381 50.6191C110.381 50.6196 110.381 50.6189 110.381 50.6171C110.382 50.6162 110.382 50.6151 110.382 50.6137C110.383 50.6129 110.383 50.6117 110.383 50.6113C110.383 50.61 110.384 50.6085 116.153 52.257C121.922 53.9055 121.923 53.9039 121.923 53.9023C121.923 53.9017 121.924 53.8999 121.924 53.8987C121.925 53.8961 121.926 53.8932 121.926 53.8901C121.928 53.8838 121.93 53.8763 121.933 53.8676C121.938 53.8504 121.944 53.8285 121.951 53.8022C121.966 53.7496 121.985 53.6791 122.008 53.592C122.055 53.4177 122.117 53.1761 122.191 52.8764C122.337 52.2786 122.528 51.4413 122.719 50.4417C123.092 48.4802 123.496 45.7239 123.496 42.8549C123.497 40.1296 123.142 36.527 121.363 33.414C119.298 29.7996 115.641 27.4524 110.781 27.4523L110.781 33.4523ZM116.153 52.257C119.481 57.2494 119.48 57.2503 119.478 57.2511C119.478 57.2513 119.477 57.2522 119.476 57.2527C119.475 57.2537 119.473 57.2546 119.472 57.2555C119.469 57.2572 119.467 57.2586 119.466 57.2597C119.462 57.2619 119.461 57.2628 119.461 57.2626C119.462 57.2623 119.469 57.2573 119.484 57.248C119.513 57.2295 119.568 57.1943 119.648 57.1454C119.808 57.0472 120.061 56.8964 120.388 56.7168C121.053 56.351 121.96 55.8998 122.961 55.5244C125.362 54.624 126.599 54.7854 126.902 54.9371L129.586 49.5705L132.269 44.2039C127.199 41.6692 121.72 43.1739 118.748 44.2884C117.062 44.9204 115.619 45.6445 114.605 46.2021C114.092 46.4843 113.673 46.7323 113.372 46.9174C113.221 47.0102 113.098 47.0877 113.006 47.1466C112.96 47.1761 112.922 47.2009 112.891 47.2207C112.876 47.2306 112.863 47.2393 112.852 47.2466C112.847 47.2503 112.841 47.2536 112.837 47.2566C112.835 47.2581 112.833 47.2595 112.831 47.2609C112.83 47.2615 112.828 47.2625 112.828 47.2628C112.826 47.2637 112.825 47.2646 116.153 52.257ZM129.586 49.5705L126.902 54.9368C125.651 54.3112 125.076 53.2381 124.895 52.6033C124.764 52.143 124.859 52.0293 124.793 52.5372C124.665 53.5363 124.162 55.21 123.223 57.4446C121.4 61.7856 118.632 66.6336 117.054 69.274L122.204 72.3527L127.354 75.4314C128.995 72.6854 132.122 67.2444 134.287 62.0919C135.342 59.5798 136.356 56.7056 136.695 54.0681C136.864 52.7577 136.93 51.0534 136.437 49.3194C135.894 47.4108 134.622 45.3808 132.269 44.2041L129.586 49.5705ZM122.204 72.3527L118.86 77.3348C130.17 84.9246 134.787 97.5115 134.707 97.2921L140.345 95.2394L145.983 93.1868C145.877 92.8959 140.177 77.1887 125.547 67.3707L122.204 72.3527ZM140.345 95.2394L135.056 98.0728C144.776 116.216 146.712 129.089 145.138 138.114C143.596 146.954 138.518 153.049 131.98 157.407C125.323 161.845 117.347 164.324 110.801 165.673C107.569 166.339 104.78 166.711 102.815 166.914C101.834 167.016 101.064 167.076 100.552 167.109C100.297 167.126 100.106 167.136 99.9871 167.142C99.9275 167.145 99.8857 167.147 99.8625 167.147C99.8509 167.148 99.844 167.148 99.8418 167.148C99.8407 167.148 99.8408 167.148 99.8421 167.148C99.8427 167.148 99.8446 167.148 99.8449 167.148C99.8471 167.148 99.8496 167.148 100.049 173.145C100.249 179.141 100.252 179.141 100.256 179.141C100.257 179.141 100.261 179.141 100.264 179.141C100.27 179.141 100.278 179.14 100.286 179.14C100.304 179.139 100.326 179.139 100.353 179.137C100.407 179.135 100.48 179.132 100.572 179.128C100.755 179.119 101.012 179.105 101.337 179.083C101.987 179.041 102.908 178.969 104.053 178.85C106.337 178.613 109.529 178.187 113.223 177.426C120.53 175.921 130.182 173.028 138.637 167.391C147.21 161.676 154.724 152.995 156.96 140.176C159.163 127.542 156.063 111.873 145.634 92.4061L140.345 95.2394ZM100.049 173.145L100.251 167.148C100.269 167.149 81.6681 166.45 68.1003 157.395C61.569 153.035 56.4964 146.941 54.9585 138.101C53.3884 129.077 55.3275 116.207 65.0424 98.0728L59.7535 95.2394L54.4647 92.4061C44.041 111.864 40.9385 127.527 43.1361 140.158C45.366 152.975 52.8705 161.657 61.4384 167.375C78.0689 178.476 99.7543 179.138 99.8482 179.141L100.049 173.145ZM59.7535 95.2394L65.3917 97.2915C65.319 97.4913 70.3049 83.9272 82.5691 76.4827L79.4557 71.3537L76.3423 66.2247C60.3605 75.9259 54.2083 92.9321 54.1154 93.1874L59.7535 95.2394ZM79.4557 71.3537L84.8363 68.6987C78.5044 55.8665 76.4644 47.0614 76.6596 41.4702C76.8396 36.313 78.7983 34.4683 80.8401 33.6224L78.5436 28.0793L76.2471 22.5362C69.0693 25.5099 64.9787 32.1185 64.6669 41.0516C64.3702 49.5508 67.3961 60.473 74.0751 74.0087L79.4557 71.3537Z" fill="white" mask="url(#path-1-outside-1_1062_18561)"/>
<path d="M121.051 74.242C121.051 74.242 134.958 52.257 129.585 49.5706C124.213 46.8843 116.154 52.257 116.154 52.257C116.154 52.257 121.526 33.4522 110.781 33.4522C100.035 33.4522 97.3488 44.1977 97.3488 44.1977C97.3488 44.1977 93.4348 21.9115 78.544 28.0793C69.2384 31.9344 66.3904 45.2308 79.8223 72.0946" fill="#EA5A47"/>
<path d="M59.7536 95.2394C59.7536 95.2394 70.4991 65.6891 100.049 65.6891C129.6 65.6891 140.345 95.2394 140.345 95.2394C180.641 170.458 100.049 173.145 100.049 173.145C100.049 173.145 19.4577 170.458 59.7536 95.2394Z" fill="#F0F0F0"/>
<path d="M118.901 132.348C118.723 141.004 108.396 154.206 99.6063 154.036C90.8163 153.866 81.0213 140.288 81.1987 131.65C81.376 122.994 87.2491 116.091 100.355 116.336C113.619 116.581 119.058 123.691 118.901 132.348Z" fill="#EAC00F"/>
<mask id="path-6-outside-2_1062_18561" maskUnits="userSpaceOnUse" x="65.5853" y="95.7798" width="20.2474" height="20.2474" fill="black">
<rect fill="white" x="65.5853" y="95.7798" width="20.2474" height="20.2474"/>
<path d="M80.9777 100.055C81.7261 99.4848 82.7958 99.6293 83.3661 100.378C83.9362 101.126 83.7916 102.195 83.0437 102.765L78.2455 106.422L81.7033 110.959L81.8021 111.104C82.2533 111.84 82.0823 112.813 81.3807 113.348C80.6792 113.882 79.6953 113.789 79.1053 113.159L78.9932 113.025L75.5345 108.486L70.9965 111.945L70.8531 112.044C70.117 112.495 69.1436 112.324 68.609 111.623C68.0744 110.921 68.1679 109.937 68.7981 109.347L68.9315 109.235L73.4695 105.776L69.8142 100.978C69.244 100.23 69.3883 99.1611 70.1367 98.5908C70.885 98.0207 71.9539 98.1651 72.5242 98.9133L76.1796 103.71L80.9777 100.055Z"/>
</mask>
<path d="M80.9777 100.055C81.7261 99.4848 82.7958 99.6293 83.3661 100.378C83.9362 101.126 83.7916 102.195 83.0437 102.765L78.2455 106.422L81.7033 110.959L81.8021 111.104C82.2533 111.84 82.0823 112.813 81.3807 113.348C80.6792 113.882 79.6953 113.789 79.1053 113.159L78.9932 113.025L75.5345 108.486L70.9965 111.945L70.8531 112.044C70.117 112.495 69.1436 112.324 68.609 111.623C68.0744 110.921 68.1679 109.937 68.7981 109.347L68.9315 109.235L73.4695 105.776L69.8142 100.978C69.244 100.23 69.3883 99.1611 70.1367 98.5908C70.885 98.0207 71.9539 98.1651 72.5242 98.9133L76.1796 103.71L80.9777 100.055Z" fill="#474747"/>
<path d="M80.9777 100.055L81.7266 101.038L81.7267 101.038L80.9777 100.055ZM83.3661 100.378L84.3492 99.6288L84.3491 99.6287L83.3661 100.378ZM83.0437 102.765L83.7927 103.748L83.793 103.748L83.0437 102.765ZM78.2455 106.422L77.4964 105.439L76.5135 106.188L77.2625 107.171L78.2455 106.422ZM81.7033 110.959L82.7235 110.262L82.7055 110.236L82.6863 110.21L81.7033 110.959ZM81.8021 111.104L82.8558 110.458L82.8396 110.432L82.8222 110.406L81.8021 111.104ZM81.3807 113.348L82.1295 114.331L82.1298 114.331L81.3807 113.348ZM79.1053 113.159L78.1591 113.954L78.1804 113.979L78.2031 114.003L79.1053 113.159ZM78.9932 113.025L78.0103 113.774L78.0281 113.798L78.047 113.82L78.9932 113.025ZM75.5345 108.486L76.5175 107.737L75.7684 106.754L74.7854 107.504L75.5345 108.486ZM70.9965 111.945L71.6979 112.963L71.7222 112.946L71.7457 112.928L70.9965 111.945ZM70.8531 112.044L71.4988 113.098L71.5271 113.08L71.5545 113.062L70.8531 112.044ZM68.609 111.623L67.6261 112.372L67.6261 112.372L68.609 111.623ZM68.7981 109.347L68.0032 108.401L67.9777 108.423L67.9534 108.445L68.7981 109.347ZM68.9315 109.235L68.1823 108.252L68.159 108.27L68.1366 108.289L68.9315 109.235ZM73.4695 105.776L74.2186 106.759L75.2013 106.01L74.4525 105.028L73.4695 105.776ZM69.8142 100.978L70.7972 100.229L70.7972 100.229L69.8142 100.978ZM70.1367 98.5908L69.3878 97.6078L69.3876 97.6079L70.1367 98.5908ZM72.5242 98.9133L73.5071 98.1643L73.5071 98.1642L72.5242 98.9133ZM76.1796 103.71L75.1966 104.459L75.9456 105.442L76.9285 104.693L76.1796 103.71ZM80.9777 100.055L81.7267 101.038C81.9322 100.881 82.2266 100.921 82.3832 101.127L83.3661 100.378L84.3491 99.6287C83.3651 98.3374 81.5199 98.0882 80.2286 99.0722L80.9777 100.055ZM83.3661 100.378L82.3831 101.127C82.5394 101.332 82.5 101.626 82.2943 101.783L83.0437 102.765L83.793 103.748C85.0832 102.764 85.3329 100.92 84.3492 99.6288L83.3661 100.378ZM83.0437 102.765L82.2946 101.782L77.4964 105.439L78.2455 106.422L78.9945 107.404L83.7927 103.748L83.0437 102.765ZM78.2455 106.422L77.2625 107.171L80.7204 111.708L81.7033 110.959L82.6863 110.21L79.2284 105.672L78.2455 106.422ZM81.7033 110.959L80.6832 111.657L80.782 111.801L81.8021 111.104L82.8222 110.406L82.7235 110.262L81.7033 110.959ZM81.8021 111.104L80.7484 111.75C80.8716 111.95 80.8239 112.218 80.6317 112.365L81.3807 113.348L82.1298 114.331C83.3408 113.408 83.635 111.729 82.8558 110.458L81.8021 111.104ZM81.3807 113.348L80.632 112.365C80.4394 112.511 80.1682 112.486 80.0075 112.314L79.1053 113.159L78.2031 114.003C79.2224 115.092 80.9189 115.253 82.1295 114.331L81.3807 113.348ZM79.1053 113.159L80.0515 112.364L79.9395 112.23L78.9932 113.025L78.047 113.82L78.1591 113.954L79.1053 113.159ZM78.9932 113.025L79.9762 112.276L76.5175 107.737L75.5345 108.486L74.5515 109.235L78.0103 113.774L78.9932 113.025ZM75.5345 108.486L74.7854 107.504L70.2474 110.962L70.9965 111.945L71.7457 112.928L76.2837 109.469L75.5345 108.486ZM70.9965 111.945L70.2951 110.928L70.1517 111.027L70.8531 112.044L71.5545 113.062L71.6979 112.963L70.9965 111.945ZM70.8531 112.044L70.2074 110.99C70.0065 111.113 69.7384 111.066 69.5919 110.874L68.609 111.623L67.6261 112.372C68.5489 113.583 70.2274 113.877 71.4988 113.098L70.8531 112.044ZM68.609 111.623L69.592 110.874C69.4457 110.682 69.4707 110.411 69.6428 110.249L68.7981 109.347L67.9534 108.445C66.8651 109.464 66.7032 111.161 67.6261 112.372L68.609 111.623ZM68.7981 109.347L69.593 110.294L69.7264 110.182L68.9315 109.235L68.1366 108.289L68.0032 108.401L68.7981 109.347ZM68.9315 109.235L69.6806 110.218L74.2186 106.759L73.4695 105.776L72.7203 104.794L68.1823 108.252L68.9315 109.235ZM73.4695 105.776L74.4525 105.028L70.7972 100.229L69.8142 100.978L68.8311 101.727L72.4864 106.525L73.4695 105.776ZM69.8142 100.978L70.7972 100.229C70.6405 100.024 70.6803 99.7304 70.8857 99.5738L70.1367 98.5908L69.3876 97.6079C68.0963 98.5919 67.8474 100.436 68.8312 101.727L69.8142 100.978ZM70.1367 98.5908L70.8856 99.5739C71.0912 99.4173 71.3847 99.457 71.5413 99.6624L72.5242 98.9133L73.5071 98.1642C72.5231 96.8731 70.6789 96.6242 69.3878 97.6078L70.1367 98.5908ZM72.5242 98.9133L71.5412 99.6623L75.1966 104.459L76.1796 103.71L77.1626 102.961L73.5071 98.1643L72.5242 98.9133ZM76.1796 103.71L76.9285 104.693L81.7266 101.038L80.9777 100.055L80.2288 99.0721L75.4307 102.727L76.1796 103.71Z" fill="white" mask="url(#path-6-outside-2_1062_18561)"/>
<mask id="path-8-outside-3_1062_18561" maskUnits="userSpaceOnUse" x="114.266" y="95.7801" width="20.2474" height="20.2474" fill="black">
<rect fill="white" x="114.266" y="95.7801" width="20.2474" height="20.2474"/>
<path d="M119.121 100.055C118.373 99.4851 117.303 99.6296 116.732 100.378C116.162 101.126 116.307 102.195 117.055 102.765L121.853 106.422L118.395 110.96L118.297 111.104C117.845 111.84 118.016 112.813 118.718 113.348C119.419 113.882 120.403 113.788 120.993 113.158L121.105 113.026L124.564 108.487L129.102 111.945L129.245 112.043C129.982 112.495 130.955 112.325 131.49 111.623C132.024 110.922 131.931 109.938 131.301 109.348L131.167 109.235L126.629 105.776L130.284 100.979C130.855 100.23 130.71 99.1614 129.962 98.5911C129.214 98.0209 128.145 98.1653 127.574 98.9136L123.919 103.711L119.121 100.055Z"/>
</mask>
<path d="M119.121 100.055C118.373 99.4851 117.303 99.6296 116.732 100.378C116.162 101.126 116.307 102.195 117.055 102.765L121.853 106.422L118.395 110.96L118.297 111.104C117.845 111.84 118.016 112.813 118.718 113.348C119.419 113.882 120.403 113.788 120.993 113.158L121.105 113.026L124.564 108.487L129.102 111.945L129.245 112.043C129.982 112.495 130.955 112.325 131.49 111.623C132.024 110.922 131.931 109.938 131.301 109.348L131.167 109.235L126.629 105.776L130.284 100.979C130.855 100.23 130.71 99.1614 129.962 98.5911C129.214 98.0209 128.145 98.1653 127.574 98.9136L123.919 103.711L119.121 100.055Z" fill="#474747"/>
<path d="M119.121 100.055L118.372 101.038L118.372 101.038L119.121 100.055ZM116.732 100.378L115.749 99.6291L115.75 99.629L116.732 100.378ZM117.055 102.765L116.306 103.748L116.306 103.748L117.055 102.765ZM121.853 106.422L122.602 105.439L123.585 106.188L122.836 107.171L121.853 106.422ZM118.395 110.96L117.375 110.262L117.393 110.236L117.412 110.211L118.395 110.96ZM118.297 111.104L117.243 110.458L117.259 110.432L117.276 110.406L118.297 111.104ZM118.718 113.348L117.969 114.331L117.969 114.331L118.718 113.348ZM120.993 113.158L121.936 113.957L121.916 113.98L121.895 114.003L120.993 113.158ZM121.105 113.026L122.088 113.775L122.069 113.8L122.048 113.824L121.105 113.026ZM124.564 108.487L123.581 107.738L124.33 106.755L125.313 107.504L124.564 108.487ZM129.102 111.945L128.405 112.966L128.378 112.948L128.353 112.928L129.102 111.945ZM129.245 112.043L128.6 113.097L128.573 113.081L128.548 113.064L129.245 112.043ZM131.49 111.623L132.473 112.372L132.472 112.372L131.49 111.623ZM131.301 109.348L132.099 108.404L132.123 108.424L132.145 108.446L131.301 109.348ZM131.167 109.235L131.916 108.252L131.941 108.271L131.965 108.291L131.167 109.235ZM126.629 105.776L125.88 106.759L124.897 106.01L125.646 105.027L126.629 105.776ZM130.284 100.979L131.267 101.728L131.267 101.728L130.284 100.979ZM129.962 98.5911L130.711 97.6081L130.711 97.6081L129.962 98.5911ZM127.574 98.9136L126.592 98.1645L126.592 98.1645L127.574 98.9136ZM123.919 103.711L124.902 104.46L124.153 105.443L123.17 104.694L123.919 103.711ZM119.121 100.055L118.372 101.038C118.166 100.882 117.872 100.921 117.715 101.127L116.732 100.378L115.75 99.629C116.734 98.3377 118.579 98.0884 119.87 99.0724L119.121 100.055ZM116.732 100.378L117.716 101.127C117.559 101.332 117.599 101.626 117.804 101.783L117.055 102.765L116.306 103.748C115.015 102.764 114.766 100.92 115.749 99.6291L116.732 100.378ZM117.055 102.765L117.804 101.783L122.602 105.439L121.853 106.422L121.104 107.405L116.306 103.748L117.055 102.765ZM121.853 106.422L122.836 107.171L119.378 111.709L118.395 110.96L117.412 110.211L120.87 105.673L121.853 106.422ZM118.395 110.96L119.415 111.657L119.317 111.802L118.297 111.104L117.276 110.406L117.375 110.262L118.395 110.96ZM118.297 111.104L119.35 111.75C119.227 111.951 119.275 112.219 119.467 112.365L118.718 113.348L117.969 114.331C116.758 113.408 116.464 111.73 117.243 110.458L118.297 111.104ZM118.718 113.348L119.467 112.365C119.658 112.511 119.929 112.486 120.091 112.313L120.993 113.158L121.895 114.003C120.877 115.091 119.181 115.254 117.969 114.331L118.718 113.348ZM120.993 113.158L120.05 112.359L120.162 112.227L121.105 113.026L122.048 113.824L121.936 113.957L120.993 113.158ZM121.105 113.026L120.122 112.277L123.581 107.738L124.564 108.487L125.547 109.236L122.088 113.775L121.105 113.026ZM124.564 108.487L125.313 107.504L129.851 110.963L129.102 111.945L128.353 112.928L123.815 109.47L124.564 108.487ZM129.102 111.945L129.799 110.925L129.943 111.023L129.245 112.043L128.548 113.064L128.405 112.966L129.102 111.945ZM129.245 112.043L129.891 110.99C130.093 111.113 130.361 111.065 130.507 110.874L131.49 111.623L132.472 112.372C131.549 113.584 129.87 113.876 128.6 113.097L129.245 112.043ZM131.49 111.623L130.507 110.874C130.653 110.682 130.628 110.411 130.456 110.25L131.301 109.348L132.145 108.446C133.233 109.465 133.395 111.161 132.473 112.372L131.49 111.623ZM131.301 109.348L130.502 110.291L130.369 110.178L131.167 109.235L131.965 108.291L132.099 108.404L131.301 109.348ZM131.167 109.235L130.418 110.217L125.88 106.759L126.629 105.776L127.378 104.793L131.916 108.252L131.167 109.235ZM126.629 105.776L125.646 105.027L129.301 100.23L130.284 100.979L131.267 101.728L127.612 106.525L126.629 105.776ZM130.284 100.979L129.301 100.23C129.458 100.024 129.418 99.7306 129.213 99.5741L129.962 98.5911L130.711 97.6081C132.002 98.5921 132.251 100.436 131.267 101.728L130.284 100.979ZM129.962 98.5911L129.213 99.5741C129.007 99.4175 128.714 99.4571 128.557 99.6627L127.574 98.9136L126.592 98.1645C127.576 96.8734 129.42 96.6243 130.711 97.6081L129.962 98.5911ZM127.574 98.9136L128.557 99.6626L124.902 104.46L123.919 103.711L122.936 102.962L126.592 98.1645L127.574 98.9136ZM123.919 103.711L123.17 104.694L118.372 101.038L119.121 100.055L119.87 99.0723L124.668 102.728L123.919 103.711Z" fill="white" mask="url(#path-8-outside-3_1062_18561)"/>
</svg>
