<svg width="200" height="200" viewBox="0 0 200 200" fill="none" xmlns="http://www.w3.org/2000/svg">
<mask id="path-1-outside-1_1062_21562" maskUnits="userSpaceOnUse" x="19" y="32.9951" width="163" height="149" fill="black">
<rect fill="white" x="19" y="32.9951" width="163" height="149"/>
<path d="M84.2637 38.9951C92.2277 38.9953 98.6836 45.6627 98.6836 53.8867V62.3887C99.7566 63.7531 100.813 65.2333 101.85 66.8369V53.8867C101.85 45.6626 108.306 38.9951 116.271 38.9951H161.113C169.077 38.9953 175.533 45.6627 175.533 53.8867V160.613C175.533 168.837 169.077 175.505 161.113 175.505H116.271C108.306 175.505 101.85 168.837 101.85 160.613V160.477C101.351 160.352 100.84 160.217 100.319 160.069C99.6848 159.83 99.1445 159.661 98.6836 159.548V160.613C98.6836 168.837 92.2277 175.505 84.2637 175.505H39.4209C31.4567 175.505 25 168.837 25 160.613V53.8867C25 45.6626 31.4567 38.9951 39.4209 38.9951H84.2637Z"/>
</mask>
<path d="M84.2637 38.9951C92.2277 38.9953 98.6836 45.6627 98.6836 53.8867V62.3887C99.7566 63.7531 100.813 65.2333 101.85 66.8369V53.8867C101.85 45.6626 108.306 38.9951 116.271 38.9951H161.113C169.077 38.9953 175.533 45.6627 175.533 53.8867V160.613C175.533 168.837 169.077 175.505 161.113 175.505H116.271C108.306 175.505 101.85 168.837 101.85 160.613V160.477C101.351 160.352 100.84 160.217 100.319 160.069C99.6848 159.83 99.1445 159.661 98.6836 159.548V160.613C98.6836 168.837 92.2277 175.505 84.2637 175.505H39.4209C31.4567 175.505 25 168.837 25 160.613V53.8867C25 45.6626 31.4567 38.9951 39.4209 38.9951H84.2637Z" fill="#858585"/>
<path d="M84.2637 38.9951L84.2638 32.9951H84.2637V38.9951ZM98.6836 62.3887H92.6836C92.6836 63.7339 93.1357 65.0401 93.9672 66.0976L98.6836 62.3887ZM101.85 66.8369L96.8101 70.0932C98.2537 72.3273 100.996 73.3443 103.547 72.5918C106.098 71.8393 107.85 69.4968 107.85 66.8369H101.85ZM161.113 38.9951L161.113 32.9951H161.113V38.9951ZM161.113 175.505L161.113 181.505L161.113 181.505L161.113 175.505ZM101.85 160.477H107.85C107.85 157.72 105.972 155.319 103.297 154.654L101.85 160.477ZM100.319 160.069L98.2041 165.684C98.3599 165.743 98.5182 165.795 98.6784 165.841L100.319 160.069ZM98.6836 159.548L100.111 153.72C98.3217 153.282 96.4297 153.69 94.98 154.827C93.5303 155.965 92.6836 157.705 92.6836 159.548H98.6836ZM84.2637 175.505L84.2637 181.505L84.2638 181.505L84.2637 175.505ZM84.2637 38.9951L84.2636 44.9951C88.7334 44.9952 92.6836 48.7929 92.6836 53.8867H98.6836H104.684C104.684 42.5326 95.7221 32.9953 84.2638 32.9951L84.2637 38.9951ZM98.6836 53.8867H92.6836V62.3887H98.6836H104.684V53.8867H98.6836ZM98.6836 62.3887L93.9672 66.0976C94.9203 67.3095 95.8698 68.6379 96.8101 70.0932L101.85 66.8369L106.889 63.5806C105.757 61.8286 104.593 60.1968 103.4 58.6798L98.6836 62.3887ZM101.85 66.8369H107.85V53.8867H101.85H95.8496V66.8369H101.85ZM101.85 53.8867H107.85C107.85 48.7932 111.8 44.9951 116.271 44.9951V38.9951V32.9951C104.812 32.9951 95.8496 42.5321 95.8496 53.8867H101.85ZM116.271 38.9951V44.9951H161.113V38.9951V32.9951H116.271V38.9951ZM161.113 38.9951L161.113 44.9951C165.583 44.9952 169.533 48.7929 169.533 53.8867H175.533H181.533C181.533 42.5326 172.572 32.9953 161.113 32.9951L161.113 38.9951ZM175.533 53.8867H169.533V160.613H175.533H181.533V53.8867H175.533ZM175.533 160.613H169.533C169.533 165.707 165.583 169.505 161.113 169.505L161.113 175.505L161.113 181.505C172.572 181.505 181.533 171.967 181.533 160.613H175.533ZM161.113 175.505V169.505H116.271V175.505V181.505H161.113V175.505ZM116.271 175.505V169.505C111.8 169.505 107.85 165.707 107.85 160.613H101.85H95.8496C95.8496 171.968 104.812 181.505 116.271 181.505V175.505ZM101.85 160.613H107.85V160.477H101.85H95.8496V160.613H101.85ZM101.85 160.477L103.297 154.654C102.858 154.545 102.413 154.427 101.96 154.298L100.319 160.069L98.6784 165.841C99.2681 166.008 99.843 166.16 100.402 166.299L101.85 160.477ZM100.319 160.069L102.435 154.455C101.633 154.152 100.858 153.903 100.111 153.72L98.6836 159.548L97.2557 165.375C97.4308 165.418 97.7371 165.508 98.2041 165.684L100.319 160.069ZM98.6836 159.548H92.6836V160.613H98.6836H104.684V159.548H98.6836ZM98.6836 160.613H92.6836C92.6836 165.707 88.7334 169.505 84.2636 169.505L84.2637 175.505L84.2638 181.505C95.7221 181.505 104.684 171.967 104.684 160.613H98.6836ZM84.2637 175.505V169.505H39.4209V175.505V181.505H84.2637V175.505ZM39.4209 175.505V169.505C34.9506 169.505 31 165.707 31 160.613H25H19C19 171.968 27.9628 181.505 39.4209 181.505V175.505ZM25 160.613H31V53.8867H25H19V160.613H25ZM25 53.8867H31C31 48.7932 34.9506 44.9951 39.4209 44.9951V38.9951V32.9951C27.9628 32.9951 19 42.5321 19 53.8867H25ZM39.4209 38.9951V44.9951H84.2637V38.9951V32.9951H39.4209V38.9951Z" fill="white" mask="url(#path-1-outside-1_1062_21562)"/>
<path d="M84.2634 38.9954H39.4205C31.4563 38.9954 25 45.6623 25 53.8864V160.613C25 168.837 31.4563 175.504 39.4205 175.504H84.2634C92.2276 175.504 98.6839 168.837 98.6839 160.613V53.8864C98.6839 45.6623 92.2276 38.9954 84.2634 38.9954Z" fill="#5B5B5B"/>
<path d="M61.6004 47.7754C61.6004 47.7754 85.5981 39.9804 102.848 68.4302C120.105 96.8799 131.546 107.32 143.661 103.581C154.124 100.347 154.636 96.5076 157.126 98.8112C159.988 101.456 158.786 108.902 153.55 111.376C148.315 113.85 149.781 116.457 152.891 119.83C156.001 123.204 155.916 130.495 154.07 133.823C152.216 137.142 149.874 141.796 124.899 143.293C119.113 144.138 126.465 151.181 122.805 155.827C119.974 159.418 113.931 163.94 100.319 160.07C94.1842 157.758 96.9144 161.722 93.9981 164.615C91.074 167.508 80.8358 173.046 70.8381 162.047C60.8403 151.049 47.7789 136.39 40.0382 108.98C32.22 81.321 33.2127 55.9117 61.6004 47.7832V47.7754Z" fill="#4B9AE8"/>
<path d="M82.6496 79.6457C86.7191 79.6457 90.018 76.3468 90.018 72.2773C90.018 68.2079 86.7191 64.9089 82.6496 64.9089C78.5802 64.9089 75.2812 68.2079 75.2812 72.2773C75.2812 76.3468 78.5802 79.6457 82.6496 79.6457Z" fill="white"/>
<path d="M82.5357 76.7481C84.9754 76.7481 86.9532 74.7703 86.9532 72.3306C86.9532 69.8909 84.9754 67.9131 82.5357 67.9131C80.096 67.9131 78.1182 69.8909 78.1182 72.3306C78.1182 74.7703 80.096 76.7481 82.5357 76.7481Z" fill="black"/>
<path d="M49.1272 85.4162C53.1966 85.4162 56.4956 82.1173 56.4956 78.0478C56.4956 73.9784 53.1966 70.6794 49.1272 70.6794C45.0577 70.6794 41.7588 73.9784 41.7588 78.0478C41.7588 82.1173 45.0577 85.4162 49.1272 85.4162Z" fill="white"/>
<path d="M49.0132 82.5186C51.4529 82.5186 53.4307 80.5408 53.4307 78.1011C53.4307 75.6614 51.4529 73.6836 49.0132 73.6836C46.5735 73.6836 44.5957 75.6614 44.5957 78.1011C44.5957 80.5408 46.5735 82.5186 49.0132 82.5186Z" fill="black"/>
<path d="M59.8889 84.0366C59.8176 87.2362 63.8575 92.2643 67.4696 92.3189C71.0817 92.3734 75.3275 87.4818 75.3988 84.2822C75.4701 81.0825 73.1571 78.4491 67.7706 78.3604C62.3208 78.2717 59.9602 80.8369 59.8889 84.0366Z" fill="#EAC00F"/>
<path d="M52.1313 108.108C52.1313 108.108 59.7789 106.153 64.5257 112.645C69.1562 118.974 67.5041 121.852 65.0686 122.131C62.6332 122.41 54.9933 115.802 54.9933 115.802" stroke="#0D447B" stroke-width="2.32686" stroke-miterlimit="10" stroke-linecap="round"/>
<path d="M104.597 94.5692C96.3172 96.5395 88.0592 102.029 92.4062 111.644C93.1892 113.371 94.7156 113.76 96.3758 112.737C98.9425 111.152 101.612 108.64 102.527 105.685" stroke="#0D447B" stroke-width="2.32686" stroke-miterlimit="10" stroke-linecap="round"/>
<path d="M161.113 38.9954H116.27C108.306 38.9954 101.85 45.6623 101.85 53.8864V160.613C101.85 168.837 108.306 175.504 116.27 175.504H161.113C169.077 175.504 175.533 168.837 175.533 160.613V53.8864C175.533 45.6623 169.077 38.9954 161.113 38.9954Z" fill="#858585"/>
</svg>
