<svg width="200" height="200" viewBox="0 0 200 200" fill="none" xmlns="http://www.w3.org/2000/svg">
<mask id="path-1-outside-1_1062_19377" maskUnits="userSpaceOnUse" x="8" y="36.0002" width="184" height="137" fill="black">
<rect fill="white" x="8" y="36.0002" width="184" height="137"/>
<path d="M98.0127 44.0002C100.582 44.0003 103.07 44.3622 105.437 45.0413C112.356 46.9119 117.01 51.5073 119.234 54.2551L171.577 63.3694L155.545 90.0481L129.635 84.4924L155.543 90.0481H155.545L184.568 85.4397L155.545 100.767V136.231L107.093 165.024L33.8809 143.414V124.941H33.8799V113.251H33.8809V96.5959H33.8799L16 76.6038L30.2783 80.0969L23.748 70.4807L73.6426 49.1067L76.3789 54.7786C81.5786 48.0908 89.3411 44.0002 98.0127 44.0002Z"/>
</mask>
<path d="M98.0127 44.0002C100.582 44.0003 103.07 44.3622 105.437 45.0413C112.356 46.9119 117.01 51.5073 119.234 54.2551L171.577 63.3694L155.545 90.0481L129.635 84.4924L155.543 90.0481H155.545L184.568 85.4397L155.545 100.767V136.231L107.093 165.024L33.8809 143.414V124.941H33.8799V113.251H33.8809V96.5959H33.8799L16 76.6038L30.2783 80.0969L23.748 70.4807L73.6426 49.1067L76.3789 54.7786C81.5786 48.0908 89.3411 44.0002 98.0127 44.0002Z" fill="#E5DECE"/>
<path d="M98.0127 44.0002L98.0128 36.8598H98.0127V44.0002ZM105.437 45.0413L103.467 51.9047C103.502 51.9148 103.538 51.9246 103.573 51.9342L105.437 45.0413ZM119.234 54.2551L113.685 58.7482C114.772 60.0905 116.308 60.9934 118.009 61.2897L119.234 54.2551ZM171.577 63.3694L177.697 67.0473C178.91 65.0292 179.05 62.543 178.072 60.4016C177.093 58.2601 175.122 56.7387 172.802 56.3348L171.577 63.3694ZM155.545 90.0481V97.1885C155.92 97.1885 156.294 97.159 156.665 97.1002L155.545 90.0481ZM129.635 84.4924L131.132 77.5107C127.276 76.6839 123.48 79.1395 122.653 82.9954C121.826 86.8512 124.282 90.6473 128.138 91.4741L129.635 84.4924ZM155.543 90.0481L154.046 97.0298C154.538 97.1353 155.04 97.1885 155.543 97.1885V90.0481ZM184.568 85.4397L187.903 91.7537C190.992 90.1225 192.447 86.4962 191.343 83.1823C190.238 79.8684 186.898 77.8399 183.449 78.3876L184.568 85.4397ZM155.545 100.767L152.211 94.4528C149.869 95.6891 148.405 98.1193 148.405 100.767H155.545ZM155.545 136.231L159.193 142.369C161.358 141.082 162.685 138.75 162.685 136.231H155.545ZM107.093 165.024L105.071 171.872C106.978 172.435 109.032 172.177 110.741 171.162L107.093 165.024ZM33.8809 143.414H26.7405C26.7405 146.579 28.824 149.367 31.8595 150.263L33.8809 143.414ZM33.8809 124.941H41.0213C41.0213 120.997 37.8244 117.8 33.8809 117.8V124.941ZM33.8799 124.941H26.7395C26.7395 128.884 29.9363 132.081 33.8799 132.081V124.941ZM33.8799 113.251V106.111C29.9363 106.111 26.7395 109.308 26.7395 113.251H33.8799ZM33.8809 113.251V120.392C37.8244 120.392 41.0213 117.195 41.0213 113.251H33.8809ZM33.8809 96.5959H41.0213C41.0213 92.6524 37.8244 89.4555 33.8809 89.4555V96.5959ZM33.8799 96.5959L28.5575 101.356C29.9121 102.871 31.8479 103.736 33.8799 103.736V96.5959ZM16 76.6038L17.6968 69.6679C14.6573 68.9243 11.4878 70.2463 9.87755 72.9294C8.26732 75.6125 8.59164 79.0313 10.6776 81.3638L16 76.6038ZM30.2783 80.0969L28.5815 87.0328C31.4514 87.7349 34.4573 86.597 36.1428 84.1704C37.8283 81.7438 37.8453 78.5297 36.1854 76.0855L30.2783 80.0969ZM23.748 70.4807L20.9363 63.9172C18.9764 64.7568 17.4942 66.4284 16.8952 68.4748C16.2962 70.5212 16.6431 72.7282 17.841 74.4922L23.748 70.4807ZM73.6426 49.1067L80.0737 46.0041C78.4142 42.5642 74.3416 41.0392 70.8309 42.5432L73.6426 49.1067ZM76.3789 54.7786L69.9478 57.8812C71.0213 60.1064 73.1688 61.6185 75.6257 61.8791C78.0825 62.1397 80.4995 61.1118 82.016 59.1614L76.3789 54.7786ZM98.0127 44.0002L98.0126 51.1406C99.907 51.1407 101.733 51.407 103.467 51.9047L105.437 45.0413L107.406 38.1779C104.407 37.3173 101.256 36.8599 98.0128 36.8598L98.0127 44.0002ZM105.437 45.0413L103.573 51.9342C108.475 53.2594 111.953 56.609 113.685 58.7482L119.234 54.2551L124.784 49.7621C122.066 46.4055 116.237 40.5645 107.3 38.1483L105.437 45.0413ZM119.234 54.2551L118.009 61.2897L170.352 70.4039L171.577 63.3694L172.802 56.3348L120.459 47.2206L119.234 54.2551ZM171.577 63.3694L165.457 59.6915L149.425 86.3702L155.545 90.0481L161.665 93.726L177.697 67.0473L171.577 63.3694ZM155.545 90.0481L157.042 83.0664L131.132 77.5107L129.635 84.4924L128.138 91.4741L154.048 97.0298L155.545 90.0481ZM129.635 84.4924L128.138 91.4741L154.046 97.0298L155.543 90.0481L157.04 83.0664L131.132 77.5107L129.635 84.4924ZM155.543 90.0481V97.1885H155.545V90.0481V82.9077H155.543V90.0481ZM155.545 90.0481L156.665 97.1002L185.688 92.4918L184.568 85.4397L183.449 78.3876L154.425 82.996L155.545 90.0481ZM184.568 85.4397L181.234 79.1257L152.211 94.4528L155.545 100.767L158.879 107.081L187.903 91.7537L184.568 85.4397ZM155.545 100.767H148.405V136.231H155.545H162.685V100.767H155.545ZM155.545 136.231L151.897 130.092L103.445 158.885L107.093 165.024L110.741 171.162L159.193 142.369L155.545 136.231ZM107.093 165.024L109.114 158.175L35.9022 136.566L33.8809 143.414L31.8595 150.263L105.071 171.872L107.093 165.024ZM33.8809 143.414H41.0213V124.941H33.8809H26.7405V143.414H33.8809ZM33.8809 124.941V117.8H33.8799V124.941V132.081H33.8809V124.941ZM33.8799 124.941H41.0203V113.251H33.8799H26.7395V124.941H33.8799ZM33.8799 113.251V120.392H33.8809V113.251V106.111H33.8799V113.251ZM33.8809 113.251H41.0213V96.5959H33.8809H26.7405V113.251H33.8809ZM33.8809 96.5959V89.4555H33.8799V96.5959V103.736H33.8809V96.5959ZM33.8799 96.5959L39.2022 91.8359L21.3224 71.8437L16 76.6038L10.6776 81.3638L28.5575 101.356L33.8799 96.5959ZM16 76.6038L14.3032 83.5396L28.5815 87.0328L30.2783 80.0969L31.9752 73.1611L17.6968 69.6679L16 76.6038ZM30.2783 80.0969L36.1854 76.0855L29.6551 66.4693L23.748 70.4807L17.841 74.4922L24.3712 84.1084L30.2783 80.0969ZM23.748 70.4807L26.5597 77.0442L76.4543 55.6702L73.6426 49.1067L70.8309 42.5432L20.9363 63.9172L23.748 70.4807ZM73.6426 49.1067L67.2115 52.2093L69.9478 57.8812L76.3789 54.7786L82.81 51.676L80.0737 46.0041L73.6426 49.1067ZM76.3789 54.7786L82.016 59.1614C85.9507 54.1006 91.6843 51.1406 98.0127 51.1406V44.0002V36.8598C86.998 36.8598 77.2065 42.0811 70.7419 50.3958L76.3789 54.7786Z" fill="white" mask="url(#path-1-outside-1_1062_19377)"/>
<path d="M155.545 136.231L86.2568 122.016V75.1919L155.545 90.0488V136.231Z" fill="#AA9874"/>
<path d="M86.2577 75.1919V110.09L33.8799 96.5961L86.2577 75.1919Z" fill="#AA9874"/>
<path d="M155.545 90.0486L86.2568 75.1917L99.9872 50.9045L171.577 63.3691L155.545 90.0486Z" fill="#E5DECE"/>
<path d="M86.2586 75.2532L40.5007 95.1493L23.748 70.4806L73.6426 49.1067L86.2586 75.2532Z" fill="#E5DECE"/>
<path d="M142.498 111.508C142.498 119.091 139.954 125.844 135.557 131.386C127.901 141.046 114.637 147.036 99.4535 147.388C98.975 147.4 98.4965 147.406 98.018 147.406C97.5396 147.406 97.0611 147.406 96.5826 147.388C81.3986 147.036 68.1406 141.046 60.479 131.392C60.479 131.392 60.479 131.392 60.479 131.386C56.0879 125.844 53.5381 119.097 53.5381 111.508C53.5381 99.6067 59.8067 88.9713 69.6427 81.9274C69.6427 81.9274 69.6669 77.1669 69.6669 75.2167C69.6609 57.3314 82.3556 44.0007 98.012 44.0007C113.668 44.0007 126.363 57.3314 126.363 75.2167C126.363 77.1608 125.794 81.0734 125.515 81.3217C126.109 81.6912 126.387 81.9213 126.387 81.9213C136.229 88.9652 142.498 99.6007 142.498 111.508Z" fill="#4B9AE8"/>
<path d="M72.5749 77.2637C69.0499 77.6271 63.2295 74.7502 62.9206 71.7401C62.6117 68.7299 67.7175 64.7265 71.2424 64.3631C74.7674 63.9997 77.8321 65.6713 78.2924 70.1532C78.7587 74.6896 76.0999 76.9003 72.5749 77.2637Z" fill="#EAC00F"/>
<path d="M105.105 44.9453C105.105 44.9453 113.215 54.6783 115.408 60.4079C118.024 67.2519 118.079 73.7325 117.576 76.7427C116.437 83.5746 113.452 88.0504 113.452 88.0504C113.452 88.0504 123.403 81.0005 125.565 81.3881C126.201 79.6741 126.334 77.9177 126.37 75.2224C126.449 68.9235 124.808 61.5223 119.654 54.7874C117.6 52.1043 112.682 46.8834 105.105 44.9514V44.9453Z" fill="#2C7AC7"/>
<path d="M113.451 88.0439C113.451 88.0439 127.539 110.508 120.55 124.111C115.735 133.487 108.733 138.677 94.7969 147.12C132.475 149.519 161.293 107.431 125.559 81.3877C123.136 80.782 113.445 88.05 113.445 88.05L113.451 88.0439Z" fill="#2C7AC7"/>
<path d="M76.5122 65.95C76.5122 65.95 76.1791 67.7488 75.6764 69.7293C75.1313 71.8673 73.5566 73.3148 72.0667 73.7812C70.1164 74.3929 68.7961 74.9138 65.792 75.3196C68.2328 76.8156 70.7887 77.4273 72.5815 77.2638C76.3911 76.9185 77.9537 74.617 78.2566 72.3942C78.8622 68.0395 76.5122 65.95 76.5122 65.95Z" fill="#CCA80E"/>
<path d="M89.152 73.3808C92.6576 73.3808 95.4994 70.5389 95.4994 67.0334C95.4994 63.5278 92.6576 60.686 89.152 60.686C85.6465 60.686 82.8047 63.5278 82.8047 67.0334C82.8047 70.5389 85.6465 73.3808 89.152 73.3808Z" fill="white"/>
<path d="M89.1523 70.4193C91.0221 70.4193 92.5379 68.9035 92.5379 67.0336C92.5379 65.1638 91.0221 63.6479 89.1523 63.6479C87.2824 63.6479 85.7666 65.1638 85.7666 67.0336C85.7666 68.9035 87.2824 70.4193 89.1523 70.4193Z" fill="#040000"/>
<path d="M107.093 165.024L33.8799 143.414V96.5964L107.093 115.463V165.024Z" fill="#C8BBA1"/>
<path d="M107.092 115.463L33.8792 96.5965L16 76.6035L86.257 93.7923L107.092 115.463Z" fill="#E5DECE"/>
<path d="M107.092 165.024L155.545 136.231V90.0493L107.092 115.463V165.024Z" fill="#C8BBA1"/>
<path d="M107.093 146.551L33.8799 124.941V113.251L107.093 133.329V146.551Z" fill="#FBF642"/>
<path d="M58.6264 129.072C57.8391 129.575 56.7852 129.981 55.9252 130.175C55.8162 129.932 55.5557 129.49 55.374 129.272C56.2038 129.163 57.1123 128.866 57.7422 128.479L58.6264 129.072ZM56.4158 126.934L64.6043 129.181L64.1864 130.066L60.6494 129.097L59.6137 131.283L58.4387 130.962L59.4744 128.776L55.9979 127.825L56.4158 126.94V126.934ZM59.111 124.748C58.5719 125.081 58.0087 125.36 57.4878 125.505C57.4393 125.251 57.3121 124.839 57.1668 124.603C57.8391 124.469 58.6325 124.106 59.2745 123.682L58.154 123.373L58.5598 122.525L59.9771 122.913L60.3405 122.144L61.364 122.422L61.0006 123.191L62.1938 123.518L61.788 124.366L60.5948 124.039V124.051C60.8795 124.348 61.4488 125.039 61.6063 125.238L60.6918 125.79C60.5827 125.572 60.3889 125.232 60.1769 124.917L59.6318 126.068L58.6083 125.79L59.1049 124.742L59.111 124.748ZM58.0389 125.917L64.2773 127.631L63.8715 128.479L57.6331 126.765L58.0389 125.917ZM63.2537 125.735C62.6783 126.086 62.0424 126.377 61.4731 126.516C61.4246 126.262 61.2792 125.85 61.1581 125.626C61.8425 125.511 62.6723 125.19 63.3143 124.784L62.1211 124.457L62.5269 123.609L64.0653 124.033L64.4287 123.264L65.4704 123.549L65.107 124.318L66.6333 124.736L66.2275 125.584L65.1676 125.293C65.4704 125.85 65.7672 126.51 65.8762 126.953L64.8769 127.376C64.8042 126.995 64.5983 126.432 64.35 125.911L63.7443 127.195L62.7026 126.91L63.2598 125.729L63.2537 125.735ZM62.0182 129.593C62.4906 130.132 63.066 130.944 63.3022 131.459L62.0908 131.786C61.897 131.283 61.364 130.453 60.9037 129.866L62.0121 129.587L62.0182 129.593Z" fill="black"/>
<path d="M73.7736 133.493L73.277 134.547L64.7734 132.215L65.2701 131.161L66.4511 131.489L68.8011 126.528L69.964 126.849L67.614 131.81L69.3099 132.276L72.5199 125.499L73.7009 125.826L72.3927 128.587L75.1666 129.351L74.6639 130.417L71.89 129.653L70.4909 132.603L73.7675 133.505L73.7736 133.493Z" fill="black"/>
<path d="M85.269 132.361C85.269 132.361 85.1236 132.639 85.0751 132.748C83.5307 135.88 82.9735 136.897 82.5919 137.164C82.3315 137.363 82.1074 137.382 81.8591 137.363C81.641 137.351 81.3564 137.267 81.0475 137.17C81.1141 136.988 81.1807 136.709 81.1868 136.479H81.1323C81.1444 136.406 81.1626 136.334 81.1807 136.249C80.1935 136.116 79.2063 135.976 78.4068 135.861L78.6127 135.086C79.0064 135.165 79.497 135.262 80.0421 135.359L80.3449 134.723L79.2002 134.408L79.9694 132.779C79.9391 132.67 79.8725 132.518 79.7998 132.361L78.3644 135.389C78.1827 135.777 77.9889 136.007 77.6618 136.079C77.3226 136.146 76.9653 136.079 76.4263 135.928C76.511 135.68 76.5595 135.274 76.5413 135.02C76.8744 135.122 77.2076 135.213 77.3166 135.244C77.4256 135.262 77.4741 135.244 77.5225 135.141L78.1766 133.76L76.6201 133.33C76.1416 134.141 75.548 134.971 74.8636 135.504C74.7728 135.341 74.5184 135.02 74.3428 134.892C75.3482 134.105 76.0205 132.797 76.4868 131.803L77.1652 130.374C77.0561 130.162 76.8805 129.865 76.7533 129.708C77.6376 129.217 78.5582 128.321 79.291 127.352L80.145 127.794C79.9997 127.988 79.8422 128.169 79.6908 128.351L80.3328 128.527H80.5448L80.9324 129.042C80.6053 129.375 80.2298 129.738 79.8725 130.053L80.7689 130.301L80.0905 131.731C80.5932 131.495 81.0899 131.174 81.5199 130.804L80.8294 130.616L81.8591 128.436L86.4682 129.702L85.4385 131.882L82.5616 131.095C82.4102 131.234 82.2527 131.367 82.0832 131.507L85.2568 132.379L85.269 132.361ZM77.3045 132.015C77.2197 132.191 77.1349 132.379 77.0319 132.573L77.4498 132.688L77.7951 131.961L77.3832 131.846L77.3045 132.015ZM77.7345 131.101L78.1463 131.216L78.4734 130.525L78.0615 130.41L77.7345 131.101ZM79.0488 129.036C78.8307 129.248 78.6188 129.447 78.4068 129.641L79.0185 129.811C79.1941 129.641 79.4061 129.417 79.5999 129.187L79.0488 129.036ZM78.54 132.978L78.8853 132.252L78.4673 132.137L78.1221 132.863L78.54 132.978ZM79.5636 130.816L79.1457 130.701L78.8186 131.392L79.2365 131.507L79.5636 130.816ZM81.6895 136.503C81.7924 136.534 81.8651 136.534 81.9862 136.425C82.2103 136.267 82.6828 135.401 83.9365 132.882L81.1807 132.124C80.8779 132.324 80.569 132.488 80.2722 132.627L81.2049 132.882L81.4654 132.33L82.2406 132.542L81.9802 133.094L83.1794 133.421L82.3194 135.238L81.1201 134.91L80.8476 135.486L81.2534 135.559C81.2534 135.437 81.2595 135.322 81.2595 135.207H81.9681C81.9802 135.607 81.9439 136.116 81.8772 136.437L81.5259 136.449L81.6955 136.497L81.6895 136.503ZM80.6296 134.099L80.9203 133.487L80.5024 133.372L80.2117 133.984L80.6296 134.099ZM82.0226 130.077L82.4768 130.204L82.8039 129.514L82.3497 129.387L82.0226 130.077ZM81.4048 134.311L81.853 134.432L82.1437 133.82L81.6955 133.699L81.4048 134.311ZM83.2158 130.404L83.7003 130.538L84.0273 129.847L83.5428 129.714L83.2158 130.404ZM84.4452 130.744L84.9298 130.877L85.2568 130.186L84.7723 130.053L84.4452 130.744Z" fill="black"/>
<path d="M89.2496 131.604C88.8681 132.191 88.4623 132.749 88.0383 133.276L89.3587 133.639L87.4327 137.697L86.0517 137.321L85.7307 138.006L84.8828 137.776L86.0639 135.286C85.8519 135.45 85.6399 135.601 85.4219 135.728C85.4945 135.45 85.5793 134.79 85.543 134.493C86.5363 133.815 87.4508 132.646 88.2745 131.349L87.36 131.101L87.8021 130.168L90.8789 131.01L90.4367 131.943L89.2436 131.616L89.2496 131.604ZM88.1776 134.245L87.5901 134.081L86.4454 136.498L87.0329 136.661L88.1776 134.245ZM93.1986 139.199L92.7807 140.083L87.148 138.539L87.5659 137.654L89.1467 138.091L89.607 137.121L88.6622 137.091C88.9105 136.328 89.2254 134.99 89.3889 133.954L90.3277 134.02C90.2187 134.85 90.0249 135.88 89.8371 136.637L91.2968 133.554L89.7947 133.142L90.2369 132.21L91.4967 132.555C91.5693 132.155 91.5693 131.555 91.5209 131.077L92.5808 130.998C92.6838 131.495 92.708 132.137 92.6293 132.543L91.7571 132.621L93.2349 133.027C93.7134 132.615 94.2948 132.034 94.6703 131.568L95.6515 132.149C95.1852 132.555 94.6885 132.979 94.2585 133.306L95.6576 133.687L95.2154 134.62L93.6892 134.202L92.1447 137.461C92.7625 136.758 93.5075 135.783 94.0102 135.032L94.9005 135.504C94.1616 136.443 93.2591 137.509 92.605 138.169L91.9812 137.8L91.5391 138.733L93.1986 139.187V139.199ZM90.0491 138.333L90.6366 138.496L92.7807 133.966L92.1932 133.802L90.0491 138.333Z" fill="black"/>
<path d="M42.6072 125.195L49.8328 119.139C49.9721 119.024 50.178 119.09 50.2265 119.26L52.7824 128.339C52.8369 128.527 52.6612 128.696 52.4735 128.642L42.692 125.619C42.5043 125.559 42.4558 125.323 42.6072 125.195Z" stroke="black" stroke-width="0.835816" stroke-miterlimit="10"/>
<path d="M47.4832 125.583C47.5801 125.262 47.8768 125.116 48.1797 125.207C48.4825 125.298 48.646 125.589 48.5431 125.91C48.4401 126.231 48.1494 126.37 47.8466 126.279C47.5437 126.189 47.3802 125.898 47.4771 125.583H47.4832ZM48.5128 122.464L48.7611 121.555L49.7605 121.864L49.4516 122.754L48.6521 124.771L48.0343 124.583L48.5067 122.47L48.5128 122.464Z" fill="black"/>
<path d="M154.564 98.4974L115.892 159.791L107.092 158.034L149.688 93.4644L154.564 98.4974Z" fill="#FBF642"/>
<path d="M107.092 119.992L152.214 138.211L155.545 131.439L111.307 113.251L107.092 119.992Z" fill="#FBF642"/>
<path d="M155.545 90.0486L107.092 115.462L135.782 111.204L184.568 85.4395L155.545 90.0486Z" fill="#E5DECE"/>
</svg>
