<svg width="200" height="200" viewBox="0 0 200 200" fill="none" xmlns="http://www.w3.org/2000/svg">
<mask id="path-1-outside-1_1347_6771" maskUnits="userSpaceOnUse" x="14.001" y="3.82812" width="182" height="177" fill="black">
<rect fill="white" x="14.001" y="3.82812" width="182" height="177"/>
<path d="M176.188 151.468L189.555 155.442L166.272 174.683L173.34 159.093L159.973 155.117C167.335 148.074 182.333 133.92 183.432 133.648L176.188 151.468ZM178 35C179.53 46.0938 167.304 69.4795 147.592 86.3486C149.351 93.0508 147.839 103.646 149.805 112C150.496 113.245 151.024 114.575 151.406 115.97C151.438 115.98 151.469 115.989 151.5 116C155 131 146.5 144 142.5 148C142.447 148 142.394 147.997 142.339 147.995C139.349 151.912 135.898 155.237 132.305 157.5C121.505 164.3 107.138 165.667 101.305 165.5C96.9714 166 84.6046 165.1 69.8047 157.5C64.251 153.728 59.9072 149.844 56.5391 145.999C56.526 145.999 56.513 146 56.5 146C52.5189 143.014 42.1001 132.104 46.4385 116.227C46.768 114.527 47.2559 113.098 47.8047 112C51.3046 105 48.8047 95 50.3047 87.5C50.4302 87.1564 50.5587 86.8165 50.6904 86.4805C41.2232 78.4109 33.4741 68.8318 28.1299 59.8164C28.0948 59.7572 28.0603 59.6978 28.0254 59.6387C27.6051 58.926 27.1994 58.2172 26.8096 57.5127C26.794 57.4846 26.7782 57.4568 26.7627 57.4287C26.3761 56.7281 26.0051 56.0321 25.6494 55.3418C25.6207 55.2861 25.592 55.2304 25.5635 55.1748C25.4025 54.8606 25.2442 54.548 25.0898 54.2363C25.0676 54.1915 25.0465 54.1463 25.0244 54.1016C24.6891 53.4214 24.369 52.7478 24.0654 52.0811C24.039 52.023 24.0125 51.9651 23.9863 51.9072C23.851 51.6078 23.7186 51.31 23.5898 51.0137C23.563 50.9519 23.5373 50.8898 23.5107 50.8281C23.3902 50.5483 23.2719 50.2701 23.1572 49.9932C23.1186 49.9 23.0809 49.8067 23.043 49.7139C22.9363 49.4526 22.8318 49.193 22.7305 48.9346C22.7018 48.8614 22.6747 48.7878 22.6465 48.7148C22.5443 48.451 22.4432 48.1894 22.3467 47.9287C22.3147 47.8424 22.2843 47.7559 22.2529 47.6699C22.1574 47.4078 22.0643 47.1475 21.9746 46.8887C21.9567 46.8369 21.9396 46.785 21.9219 46.7334C21.828 46.4594 21.7357 46.188 21.6484 45.918C21.6086 45.7947 21.5716 45.6712 21.5332 45.5488C21.3683 45.0238 21.2141 44.5075 21.0752 43.999C21.037 43.8592 21.002 43.7195 20.9658 43.5811C20.9186 43.4004 20.871 43.2214 20.8271 43.043C20.8101 42.9736 20.7949 42.904 20.7783 42.835C20.7241 42.6086 20.6707 42.3846 20.6221 42.1621C20.5907 42.0189 20.5632 41.8759 20.5342 41.7344C20.5031 41.5828 20.4707 41.4328 20.4424 41.2832C20.4195 41.1623 20.4001 41.0415 20.3789 40.9219C20.2952 40.4485 20.222 39.9857 20.166 39.5332C20.153 39.4279 20.1443 39.3228 20.1328 39.2188C20.1005 38.9261 20.0711 38.6385 20.0508 38.3555C20.0452 38.277 20.0399 38.1988 20.0352 38.1211C20.0157 37.7984 20.0042 37.4822 20.001 37.1729V36.7617C20.0088 36.1781 20.049 35.6202 20.1182 35.0898C20.1221 35.0599 20.1248 35.0298 20.1289 35L20.9971 35.0898C21.091 35.1001 21.1846 35.1114 21.2783 35.1221C21.4061 35.1366 21.5337 35.1517 21.6611 35.167C22.0243 35.2105 22.3861 35.2556 22.7461 35.3047C22.8237 35.3153 22.9011 35.3271 22.9785 35.3379C23.2952 35.3822 23.6106 35.429 23.9248 35.4775C24.0372 35.4949 24.1496 35.5114 24.2617 35.5293C24.6437 35.5903 25.024 35.6536 25.4023 35.7207C25.4284 35.7253 25.4544 35.7307 25.4805 35.7354C26.3052 35.8827 27.1213 36.044 27.9287 36.2197C27.9868 36.2324 28.0446 36.246 28.1025 36.2588C28.4525 36.3359 28.8008 36.4157 29.1475 36.498C29.1926 36.5088 29.2381 36.5185 29.2832 36.5293C29.6701 36.6221 30.0547 36.7193 30.4375 36.8184C30.4808 36.8296 30.5242 36.8403 30.5674 36.8516C31.3307 37.0508 32.0859 37.2627 32.833 37.4863C32.9037 37.5075 32.9744 37.5284 33.0449 37.5498C33.4009 37.6576 33.7552 37.7677 34.1074 37.8809C34.1214 37.8854 34.1354 37.89 34.1494 37.8945L34.8623 38.1289C34.9726 38.1658 35.0824 38.2038 35.1924 38.2412C35.2702 38.2677 35.3482 38.2936 35.4258 38.3203C36.1533 38.571 36.8726 38.8336 37.584 39.1064C37.6332 39.1253 37.6823 39.1441 37.7314 39.1631C38.09 39.3015 38.4463 39.443 38.8008 39.5869C38.8099 39.5906 38.8191 39.594 38.8281 39.5977C52.4927 45.1512 63.1061 54.6798 70.7617 64.3496C81.5001 58.7446 93.4999 57.5 101.305 57.5C112.662 57.8292 121.331 60.2728 127.923 63.6514C135.291 54.523 145.303 45.6023 158.035 40.125C158.023 40.1056 158.012 40.0858 158 40.0664C164.003 37.5 170.609 35.6984 177.825 35C177.826 35.0058 177.826 35.0117 177.827 35.0176C177.885 35.0119 177.942 35.0056 178 35ZM74.7119 10.8281C75.5053 11.1407 85.2926 23.1589 90.0879 29.1299L79.7354 30.7812L83.4727 43.0938L68.0088 26.4697L78.3623 24.8184L74.7119 10.8281Z"/>
</mask>
<path d="M176.188 151.468L189.555 155.442L166.272 174.683L173.34 159.093L159.973 155.117C167.335 148.074 182.333 133.92 183.432 133.648L176.188 151.468ZM178 35C179.53 46.0938 167.304 69.4795 147.592 86.3486C149.351 93.0508 147.839 103.646 149.805 112C150.496 113.245 151.024 114.575 151.406 115.97C151.438 115.98 151.469 115.989 151.5 116C155 131 146.5 144 142.5 148C142.447 148 142.394 147.997 142.339 147.995C139.349 151.912 135.898 155.237 132.305 157.5C121.505 164.3 107.138 165.667 101.305 165.5C96.9714 166 84.6046 165.1 69.8047 157.5C64.251 153.728 59.9072 149.844 56.5391 145.999C56.526 145.999 56.513 146 56.5 146C52.5189 143.014 42.1001 132.104 46.4385 116.227C46.768 114.527 47.2559 113.098 47.8047 112C51.3046 105 48.8047 95 50.3047 87.5C50.4302 87.1564 50.5587 86.8165 50.6904 86.4805C41.2232 78.4109 33.4741 68.8318 28.1299 59.8164C28.0948 59.7572 28.0603 59.6978 28.0254 59.6387C27.6051 58.926 27.1994 58.2172 26.8096 57.5127C26.794 57.4846 26.7782 57.4568 26.7627 57.4287C26.3761 56.7281 26.0051 56.0321 25.6494 55.3418C25.6207 55.2861 25.592 55.2304 25.5635 55.1748C25.4025 54.8606 25.2442 54.548 25.0898 54.2363C25.0676 54.1915 25.0465 54.1463 25.0244 54.1016C24.6891 53.4214 24.369 52.7478 24.0654 52.0811C24.039 52.023 24.0125 51.9651 23.9863 51.9072C23.851 51.6078 23.7186 51.31 23.5898 51.0137C23.563 50.9519 23.5373 50.8898 23.5107 50.8281C23.3902 50.5483 23.2719 50.2701 23.1572 49.9932C23.1186 49.9 23.0809 49.8067 23.043 49.7139C22.9363 49.4526 22.8318 49.193 22.7305 48.9346C22.7018 48.8614 22.6747 48.7878 22.6465 48.7148C22.5443 48.451 22.4432 48.1894 22.3467 47.9287C22.3147 47.8424 22.2843 47.7559 22.2529 47.6699C22.1574 47.4078 22.0643 47.1475 21.9746 46.8887C21.9567 46.8369 21.9396 46.785 21.9219 46.7334C21.828 46.4594 21.7357 46.188 21.6484 45.918C21.6086 45.7947 21.5716 45.6712 21.5332 45.5488C21.3683 45.0238 21.2141 44.5075 21.0752 43.999C21.037 43.8592 21.002 43.7195 20.9658 43.5811C20.9186 43.4004 20.871 43.2214 20.8271 43.043C20.8101 42.9736 20.7949 42.904 20.7783 42.835C20.7241 42.6086 20.6707 42.3846 20.6221 42.1621C20.5907 42.0189 20.5632 41.8759 20.5342 41.7344C20.5031 41.5828 20.4707 41.4328 20.4424 41.2832C20.4195 41.1623 20.4001 41.0415 20.3789 40.9219C20.2952 40.4485 20.222 39.9857 20.166 39.5332C20.153 39.4279 20.1443 39.3228 20.1328 39.2188C20.1005 38.9261 20.0711 38.6385 20.0508 38.3555C20.0452 38.277 20.0399 38.1988 20.0352 38.1211C20.0157 37.7984 20.0042 37.4822 20.001 37.1729V36.7617C20.0088 36.1781 20.049 35.6202 20.1182 35.0898C20.1221 35.0599 20.1248 35.0298 20.1289 35L20.9971 35.0898C21.091 35.1001 21.1846 35.1114 21.2783 35.1221C21.4061 35.1366 21.5337 35.1517 21.6611 35.167C22.0243 35.2105 22.3861 35.2556 22.7461 35.3047C22.8237 35.3153 22.9011 35.3271 22.9785 35.3379C23.2952 35.3822 23.6106 35.429 23.9248 35.4775C24.0372 35.4949 24.1496 35.5114 24.2617 35.5293C24.6437 35.5903 25.024 35.6536 25.4023 35.7207C25.4284 35.7253 25.4544 35.7307 25.4805 35.7354C26.3052 35.8827 27.1213 36.044 27.9287 36.2197C27.9868 36.2324 28.0446 36.246 28.1025 36.2588C28.4525 36.3359 28.8008 36.4157 29.1475 36.498C29.1926 36.5088 29.2381 36.5185 29.2832 36.5293C29.6701 36.6221 30.0547 36.7193 30.4375 36.8184C30.4808 36.8296 30.5242 36.8403 30.5674 36.8516C31.3307 37.0508 32.0859 37.2627 32.833 37.4863C32.9037 37.5075 32.9744 37.5284 33.0449 37.5498C33.4009 37.6576 33.7552 37.7677 34.1074 37.8809C34.1214 37.8854 34.1354 37.89 34.1494 37.8945L34.8623 38.1289C34.9726 38.1658 35.0824 38.2038 35.1924 38.2412C35.2702 38.2677 35.3482 38.2936 35.4258 38.3203C36.1533 38.571 36.8726 38.8336 37.584 39.1064C37.6332 39.1253 37.6823 39.1441 37.7314 39.1631C38.09 39.3015 38.4463 39.443 38.8008 39.5869C38.8099 39.5906 38.8191 39.594 38.8281 39.5977C52.4927 45.1512 63.1061 54.6798 70.7617 64.3496C81.5001 58.7446 93.4999 57.5 101.305 57.5C112.662 57.8292 121.331 60.2728 127.923 63.6514C135.291 54.523 145.303 45.6023 158.035 40.125C158.023 40.1056 158.012 40.0858 158 40.0664C164.003 37.5 170.609 35.6984 177.825 35C177.826 35.0058 177.826 35.0117 177.827 35.0176C177.885 35.0119 177.942 35.0056 178 35ZM74.7119 10.8281C75.5053 11.1407 85.2926 23.1589 90.0879 29.1299L79.7354 30.7812L83.4727 43.0938L68.0088 26.4697L78.3623 24.8184L74.7119 10.8281Z" fill="#F8D076"/>
<path d="M176.188 151.468L170.629 149.208C169.992 150.776 170.046 152.54 170.779 154.066C171.512 155.591 172.855 156.737 174.477 157.219L176.188 151.468ZM189.555 155.442L193.377 160.067C195.085 158.656 195.876 156.417 195.434 154.246C194.992 152.074 193.389 150.323 191.265 149.691L189.555 155.442ZM166.272 174.683L160.808 172.205C159.655 174.749 160.409 177.752 162.628 179.449C164.846 181.145 167.942 181.087 170.095 179.308L166.272 174.683ZM173.34 159.093L178.805 161.57C179.52 159.991 179.518 158.18 178.799 156.602C178.079 155.025 176.712 153.836 175.05 153.342L173.34 159.093ZM159.973 155.117L155.825 150.782C154.28 152.26 153.638 154.448 154.141 156.526C154.643 158.605 156.213 160.259 158.262 160.868L159.973 155.117ZM183.432 133.648L188.99 135.908C189.84 133.817 189.445 131.427 187.967 129.721C186.49 128.015 184.18 127.282 181.99 127.824L183.432 133.648ZM178 35L183.944 34.1802C183.504 30.9914 180.626 28.7178 177.422 29.0279L178 35ZM147.592 86.3486L143.691 81.79C141.943 83.2852 141.205 85.6475 141.788 87.8717L147.592 86.3486ZM149.805 112L143.964 113.374C144.091 113.912 144.291 114.431 144.56 114.914L149.805 112ZM151.406 115.97L145.619 117.554C146.148 119.486 147.607 121.027 149.507 121.661L151.406 115.97ZM151.5 116L157.343 114.637C156.874 112.626 155.403 110.997 153.45 110.326L151.5 116ZM142.5 148V154C144.091 154 145.617 153.368 146.743 152.243L142.5 148ZM142.339 147.995L142.59 142C140.633 141.918 138.758 142.797 137.569 144.355L142.339 147.995ZM132.305 157.5L135.502 162.577L135.502 162.577L132.305 157.5ZM101.305 165.5L101.476 159.502C101.189 159.494 100.902 159.507 100.617 159.54L101.305 165.5ZM69.8047 157.5L66.4334 162.463C66.6357 162.601 66.8463 162.726 67.0639 162.837L69.8047 157.5ZM56.5391 145.999L61.0521 142.045C59.9016 140.732 58.2359 139.985 56.4899 139.999L56.5391 145.999ZM56.5 146L52.9 150.8C53.9387 151.579 55.202 152 56.5003 152L56.5 146ZM46.4385 116.227L52.2263 117.808C52.266 117.663 52.3002 117.516 52.3288 117.368L46.4385 116.227ZM47.8047 112L53.1712 114.683L53.1713 114.683L47.8047 112ZM50.3047 87.5L44.6691 85.4408C44.5641 85.7282 44.4812 86.0233 44.4212 86.3233L50.3047 87.5ZM50.6904 86.4805L56.2762 88.6712C57.2108 86.2882 56.5307 83.5747 54.5826 81.9142L50.6904 86.4805ZM28.1299 59.8164L33.2912 56.7568L33.291 56.7566L28.1299 59.8164ZM28.0254 59.6387L22.8573 62.6867L22.8574 62.687L28.0254 59.6387ZM26.8096 57.5127L32.0595 54.6078L32.0593 54.6074L26.8096 57.5127ZM26.7627 57.4287L21.5096 60.3278L21.5098 60.3281L26.7627 57.4287ZM25.6494 55.3418L30.983 52.5935L30.9828 52.5931L25.6494 55.3418ZM25.5635 55.1748L20.2234 57.9105L20.2237 57.9109L25.5635 55.1748ZM25.0898 54.2363L30.4663 51.5729L30.4661 51.5724L25.0898 54.2363ZM25.0244 54.1016L19.6428 56.7544L19.643 56.7549L25.0244 54.1016ZM24.0654 52.0811L29.5262 49.595L29.5259 49.5945L24.0654 52.0811ZM23.9863 51.9072L18.5187 54.3782L18.519 54.3787L23.9863 51.9072ZM23.5898 51.0137L29.0928 48.6225L29.0926 48.622L23.5898 51.0137ZM23.5107 50.8281L18.0004 53.2023L18.0007 53.2028L23.5107 50.8281ZM23.1572 49.9932L28.7009 47.6979L28.7006 47.6974L23.1572 49.9932ZM23.043 49.7139L17.4881 51.9819L17.4884 51.9825L23.043 49.7139ZM22.7305 48.9346L28.3167 46.745L28.3164 46.7444L22.7305 48.9346ZM22.6465 48.7148L17.0514 50.8817L17.0517 50.8823L22.6465 48.7148ZM22.3467 47.9287L27.9737 45.8461L27.9734 45.8455L22.3467 47.9287ZM22.2529 47.6699L16.6154 49.7238L16.6156 49.7244L22.2529 47.6699ZM21.9746 46.8887L27.644 44.9246L27.6438 44.924L21.9746 46.8887ZM21.9219 46.7334L16.2461 48.6791L16.2463 48.6797L21.9219 46.7334ZM21.6484 45.918L27.3577 44.0729L27.3575 44.0722L21.6484 45.918ZM21.5332 45.5488L15.8088 47.3464L15.809 47.347L21.5332 45.5488ZM21.0752 43.999L26.8631 42.418L26.863 42.4174L21.0752 43.999ZM20.9658 43.5811L15.1609 45.0986L15.1611 45.0992L20.9658 43.5811ZM20.8271 43.043L26.6538 41.6111L26.6536 41.6105L20.8271 43.043ZM20.7783 42.835L14.9434 44.2326L14.9435 44.2332L20.7783 42.835ZM20.6221 42.1621L26.4836 40.8805L26.4835 40.8799L20.6221 42.1621ZM20.5342 41.7344L14.6562 42.9381L14.6563 42.9387L20.5342 41.7344ZM20.4424 41.2832L26.3374 40.1658L26.3373 40.1653L20.4424 41.2832ZM20.3789 40.9219L14.4706 41.9671L14.4707 41.9676L20.3789 40.9219ZM20.166 39.5332L26.1206 38.7964L26.1205 38.7959L20.166 39.5332ZM20.1328 39.2188L14.1691 39.8781L14.1692 39.8785L20.1328 39.2188ZM20.0508 38.3555L26.0354 37.9267L26.0354 37.9263L20.0508 38.3555ZM20.0352 38.1211L14.046 38.4823L14.0461 38.4827L20.0352 38.1211ZM20.001 37.1729H14.001C14.001 37.1939 14.0011 37.2149 14.0013 37.2359L20.001 37.1729ZM20.001 36.7617L14.0015 36.6816C14.0012 36.7083 14.001 36.735 14.001 36.7617H20.001ZM20.1182 35.0898L14.1686 34.3134L14.1686 34.3134L20.1182 35.0898ZM20.1289 35L20.7465 29.0319C17.5293 28.6989 14.6271 30.9761 14.1852 34.1802L20.1289 35ZM20.9971 35.0898L21.6516 29.1257C21.6393 29.1243 21.627 29.123 21.6147 29.1217L20.9971 35.0898ZM21.2783 35.1221L21.9578 29.1607L21.9578 29.1607L21.2783 35.1221ZM21.6611 35.167L20.9477 41.1244L20.9477 41.1244L21.6611 35.167ZM22.7461 35.3047L23.556 29.3596L23.556 29.3596L22.7461 35.3047ZM22.9785 35.3379L22.1478 41.2801L22.1479 41.2801L22.9785 35.3379ZM23.9248 35.4775L24.8402 29.5478L24.8401 29.5478L23.9248 35.4775ZM24.2617 35.5293L23.3162 41.4543L23.3163 41.4543L24.2617 35.5293ZM25.4023 35.7207L26.4504 29.8129L26.4503 29.8129L25.4023 35.7207ZM25.4805 35.7354L24.4254 41.6419L24.4255 41.6419L25.4805 35.7354ZM27.9287 36.2197L29.2049 30.357L29.2048 30.357L27.9287 36.2197ZM28.1025 36.2588L26.8105 42.118L26.8107 42.1181L28.1025 36.2588ZM29.1475 36.498L30.5341 30.6605L30.5339 30.6604L29.1475 36.498ZM29.2832 36.5293L27.8843 42.3639L27.8844 42.364L29.2832 36.5293ZM30.4375 36.8184L31.9411 31.0098L31.941 31.0098L30.4375 36.8184ZM30.5674 36.8516L29.052 42.657L29.0522 42.6571L30.5674 36.8516ZM32.833 37.4863L34.5537 31.7384L34.5536 31.7383L32.833 37.4863ZM33.0449 37.5498L31.305 43.292L31.3052 43.292L33.0449 37.5498ZM34.1074 37.8809L35.9433 32.1686L35.9432 32.1686L34.1074 37.8809ZM34.1494 37.8945L36.0233 32.1947C36.0119 32.1909 36.0005 32.1872 35.9891 32.1835L34.1494 37.8945ZM34.8623 38.1289L36.7662 32.439C36.7562 32.4356 36.7462 32.4323 36.7362 32.429L34.8623 38.1289ZM35.1924 38.2412L37.1262 32.5614L37.1261 32.5613L35.1924 38.2412ZM35.4258 38.3203L33.471 43.9929L33.4711 43.993L35.4258 38.3203ZM37.584 39.1064L39.7323 33.5042L39.7322 33.5042L37.584 39.1064ZM37.7314 39.1631L35.57 44.7602L35.57 44.7603L37.7314 39.1631ZM38.8008 39.5869L41.0575 34.0275L41.0574 34.0275L38.8008 39.5869ZM38.8281 39.5977L36.569 45.1561L36.5691 45.1561L38.8281 39.5977ZM70.7617 64.3496L66.0575 68.0739C67.8452 70.3319 70.985 71.0012 73.538 69.6686L70.7617 64.3496ZM101.305 57.5L101.479 51.5025C101.421 51.5008 101.363 51.5 101.305 51.5V57.5ZM127.923 63.6514L125.186 68.9908C127.715 70.2871 130.807 69.6313 132.592 67.4199L127.923 63.6514ZM158.035 40.125L160.406 45.6367C162.004 44.9491 163.226 43.6017 163.753 41.9437C164.28 40.2857 164.062 38.4804 163.155 36.9959L158.035 40.125ZM158 40.0664L155.641 34.5495C154.038 35.2348 152.813 36.5834 152.283 38.2444C151.754 39.9054 151.973 41.7145 152.884 43.201L158 40.0664ZM177.825 35L183.769 34.1802C183.329 30.9914 180.451 28.7178 177.247 29.0279L177.825 35ZM177.827 35.0176L171.882 35.8288C172.319 39.0275 175.208 41.3073 178.42 40.9882L177.827 35.0176ZM74.7119 10.8281L76.9112 5.24573C74.8098 4.41784 72.4215 4.8402 70.7314 6.33859C69.0414 7.83698 68.3361 10.1575 68.9063 12.343L74.7119 10.8281ZM90.0879 29.1299L91.033 35.055C93.1444 34.7182 94.917 33.2833 95.6862 31.2884C96.4554 29.2934 96.1048 27.0399 94.7661 25.3729L90.0879 29.1299ZM79.7354 30.7812L78.7902 24.8562C77.0781 25.1293 75.5679 26.1296 74.6485 27.5994C73.7291 29.0693 73.4905 30.865 73.994 32.524L79.7354 30.7812ZM83.4727 43.0938L79.0795 47.1803C80.9817 49.2252 84.0433 49.6873 86.4642 48.2948C88.8852 46.9022 90.0252 44.0235 89.214 41.351L83.4727 43.0938ZM68.0088 26.4697L67.0637 20.5446C64.8753 20.8937 63.0575 22.4206 62.3358 24.5159C61.6142 26.6112 62.1062 28.9337 63.6156 30.5563L68.0088 26.4697ZM78.3623 24.8184L79.3074 30.7435C80.9787 30.4769 82.4597 29.5168 83.3854 28.1C84.311 26.6831 84.5952 24.9412 84.1679 23.3035L78.3623 24.8184ZM176.188 151.468L174.477 157.219L187.845 161.194L189.555 155.442L191.265 149.691L177.898 145.717L176.188 151.468ZM189.555 155.442L185.733 150.817L162.45 170.058L166.272 174.683L170.095 179.308L193.377 160.067L189.555 155.442ZM166.272 174.683L171.737 177.16L178.805 161.57L173.34 159.093L167.875 156.615L160.808 172.205L166.272 174.683ZM173.34 159.093L175.05 153.342L161.683 149.366L159.973 155.117L158.262 160.868L171.629 164.844L173.34 159.093ZM159.973 155.117L164.12 159.453C167.788 155.944 173.353 150.669 178.128 146.245C180.521 144.029 182.685 142.055 184.303 140.631C185.119 139.912 185.747 139.377 186.175 139.032C186.278 138.949 186.359 138.885 186.42 138.838C186.484 138.79 186.511 138.771 186.508 138.773C186.505 138.775 186.486 138.788 186.453 138.81C186.422 138.83 186.363 138.868 186.28 138.915C186.247 138.934 185.693 139.27 184.873 139.473L183.432 133.648L181.99 127.824C181.102 128.044 180.452 128.424 180.298 128.513C180.025 128.669 179.792 128.826 179.629 128.941C179.295 129.174 178.954 129.44 178.645 129.688C178.014 130.197 177.233 130.867 176.373 131.624C174.64 133.15 172.388 135.205 169.974 137.442C165.135 141.924 159.52 147.247 155.825 150.782L159.973 155.117ZM183.432 133.648L177.873 131.389L170.629 149.208L176.188 151.468L181.746 153.727L188.99 135.908L183.432 133.648ZM178 35L172.056 35.8198C172.271 37.3735 172.044 39.9603 170.933 43.5623C169.85 47.0726 168.047 51.1581 165.55 55.5355C160.552 64.2966 153.005 73.8188 143.691 81.79L147.592 86.3486L151.493 90.9072C161.89 82.0093 170.313 71.4041 175.973 61.4817C178.805 56.5172 181.004 51.6219 182.4 47.1001C183.766 42.67 184.495 38.1734 183.944 34.1802L178 35ZM147.592 86.3486L141.788 87.8717C142.444 90.3716 142.529 93.8593 142.622 98.6709C142.707 103.081 142.81 108.469 143.964 113.374L149.805 112L155.645 110.626C154.834 107.177 154.71 103.09 154.62 98.4389C154.537 94.1889 154.498 89.0278 153.395 84.8255L147.592 86.3486ZM149.805 112L144.56 114.914C144.999 115.704 145.353 116.582 145.619 117.554L151.406 115.97L157.193 114.386C156.696 112.567 155.994 110.785 155.05 109.086L149.805 112ZM151.406 115.97L149.507 121.661C149.55 121.676 149.586 121.687 149.609 121.694C149.62 121.698 149.63 121.701 149.637 121.703C149.64 121.704 149.643 121.705 149.645 121.706C149.648 121.707 149.649 121.707 149.65 121.707C149.652 121.708 149.651 121.708 149.648 121.707C149.645 121.706 149.639 121.704 149.63 121.701C149.615 121.696 149.586 121.687 149.55 121.674L151.5 116L153.45 110.326C153.399 110.308 153.355 110.294 153.323 110.283C153.293 110.274 153.267 110.265 153.257 110.262C153.24 110.257 153.247 110.259 153.251 110.26C153.258 110.263 153.278 110.269 153.305 110.278L151.406 115.97ZM151.5 116L145.657 117.363C147.066 123.402 146.089 129.146 144.22 133.95C142.323 138.828 139.648 142.367 138.257 143.757L142.5 148L146.743 152.243C149.352 149.633 152.926 144.672 155.404 138.3C157.911 131.854 159.434 123.598 157.343 114.637L151.5 116ZM142.5 148V142C142.569 142 142.617 142.002 142.629 142.002C142.635 142.002 142.637 142.002 142.63 142.002C142.626 142.002 142.622 142.002 142.615 142.001C142.609 142.001 142.6 142.001 142.59 142L142.339 147.995L142.087 153.99C142.09 153.99 142.156 153.993 142.212 153.995C142.277 153.997 142.379 154 142.5 154V148ZM142.339 147.995L137.569 144.355C134.91 147.84 131.965 150.624 129.108 152.423L132.305 157.5L135.502 162.577C139.831 159.851 143.789 155.984 147.108 151.635L142.339 147.995ZM132.305 157.5L129.108 152.423C119.714 158.337 106.702 159.652 101.476 159.502L101.305 165.5L101.133 171.498C107.574 171.682 123.295 170.263 135.502 162.577L132.305 157.5ZM101.305 165.5L100.617 159.54C97.6267 159.885 86.4462 159.301 72.5455 152.163L69.8047 157.5L67.0639 162.837C82.7629 170.899 96.316 172.115 101.992 171.46L101.305 165.5ZM69.8047 157.5L73.176 152.537C68.0038 149.024 64.0534 145.471 61.0521 142.045L56.5391 145.999L52.026 149.953C55.7611 154.216 60.4982 158.432 66.4334 162.463L69.8047 157.5ZM56.5391 145.999L56.4899 139.999C56.4593 139.999 56.4321 140 56.4092 140C56.3864 140.001 56.3668 140.001 56.3518 140.002C56.3369 140.002 56.3248 140.003 56.3177 140.003C56.3141 140.003 56.3111 140.003 56.3094 140.003C56.3086 140.003 56.3078 140.003 56.3075 140.003C56.307 140.003 56.307 140.003 56.307 140.003C56.3071 140.003 56.3085 140.003 56.3105 140.003C56.3125 140.003 56.3158 140.003 56.3198 140.003C56.3277 140.003 56.3404 140.002 56.3561 140.002C56.372 140.001 56.3923 140.001 56.4161 140.001C56.4399 140 56.468 140 56.4997 140L56.5 146L56.5003 152C56.5692 152 56.626 151.999 56.6634 151.998C56.6988 151.997 56.7279 151.996 56.732 151.996C56.7375 151.996 56.7333 151.996 56.7311 151.996C56.7273 151.996 56.7184 151.996 56.7068 151.997C56.6842 151.997 56.6419 151.998 56.5882 151.999L56.5391 145.999ZM56.5 146L60.1 141.2C56.933 138.825 48.848 130.172 52.2263 117.808L46.4385 116.227L40.6506 114.645C35.3522 134.036 48.1047 147.204 52.9 150.8L56.5 146ZM46.4385 116.227L52.3288 117.368C52.5718 116.115 52.9037 115.218 53.1712 114.683L47.8047 112L42.4381 109.317C41.6081 110.977 40.9642 112.939 40.5481 115.085L46.4385 116.227ZM47.8047 112L53.1713 114.683C55.6157 109.794 55.8047 104.248 55.8047 99.9375C55.8047 95.0619 55.5918 91.6588 56.1882 88.6767L50.3047 87.5L44.4212 86.3233C43.5176 90.8412 43.8047 96.1881 43.8047 99.9375C43.8047 104.252 43.4936 107.206 42.4381 109.317L47.8047 112ZM50.3047 87.5L55.9403 89.5592C56.051 89.2561 56.1629 88.9602 56.2762 88.6712L50.6904 86.4805L45.1047 84.2897C44.9545 84.6727 44.8095 85.0567 44.6691 85.4408L50.3047 87.5ZM50.6904 86.4805L54.5826 81.9142C45.6402 74.2919 38.313 65.2284 33.2912 56.7568L28.1299 59.8164L22.9686 62.876C28.6351 72.4351 36.8063 82.5299 46.7982 91.0468L50.6904 86.4805ZM28.1299 59.8164L33.291 56.7566C33.2471 56.6825 33.2681 56.7171 33.1934 56.5904L28.0254 59.6387L22.8574 62.687C22.8696 62.7076 22.8815 62.7279 22.9013 62.7618C22.9191 62.7921 22.943 62.8328 22.9687 62.8762L28.1299 59.8164ZM28.0254 59.6387L33.1935 56.5907C32.7992 55.9221 32.421 55.2611 32.0595 54.6078L26.8096 57.5127L21.5597 60.4176C21.9778 61.1733 22.4109 61.9298 22.8573 62.6867L28.0254 59.6387ZM26.8096 57.5127L32.0593 54.6074C32.0416 54.5755 32.0248 54.5456 32.0192 54.5356C32.0105 54.5201 32.0121 54.523 32.0156 54.5293L26.7627 57.4287L21.5098 60.3281C21.5287 60.3625 21.5461 60.3934 21.553 60.4058C21.5631 60.4237 21.562 60.4218 21.5599 60.418L26.8096 57.5127ZM26.7627 57.4287L32.0158 54.5296C31.657 53.8795 31.3129 53.2338 30.983 52.5935L25.6494 55.3418L20.3158 58.0901C20.6973 58.8304 21.0951 59.5768 21.5096 60.3278L26.7627 57.4287ZM25.6494 55.3418L30.9828 52.5931C30.9519 52.5331 30.9277 52.4862 30.9033 52.4387L25.5635 55.1748L20.2237 57.9109C20.2563 57.9747 20.2895 58.039 20.3161 58.0905L25.6494 55.3418ZM25.5635 55.1748L30.9035 52.4391C30.7509 52.1412 30.6054 51.8537 30.4663 51.5729L25.0898 54.2363L19.7134 56.8998C19.8831 57.2423 20.0542 57.5801 20.2234 57.9105L25.5635 55.1748ZM25.0898 54.2363L30.4661 51.5724C30.4725 51.5854 30.4759 51.5926 30.4638 51.5675C30.4595 51.5586 30.4508 51.5405 30.4419 51.5221C30.4325 51.5027 30.4201 51.4772 30.4058 51.4482L25.0244 54.1016L19.643 56.7549C19.6387 56.7462 19.6361 56.7408 19.6504 56.7703C19.66 56.7903 19.685 56.8424 19.7136 56.9002L25.0898 54.2363ZM25.0244 54.1016L30.4061 51.4487C30.0956 50.8188 29.802 50.201 29.5262 49.595L24.0654 52.0811L18.6047 54.5671C18.9359 55.2947 19.2827 56.024 19.6428 56.7544L25.0244 54.1016ZM24.0654 52.0811L29.5259 49.5945C29.4928 49.5219 29.4754 49.4838 29.4537 49.4358L23.9863 51.9072L18.519 54.3787C18.5496 54.4464 18.5852 54.5242 18.6049 54.5676L24.0654 52.0811ZM23.9863 51.9072L29.4539 49.4363C29.3284 49.1586 29.2081 48.8878 29.0928 48.6225L23.5898 51.0137L18.0869 53.4048C18.2292 53.7323 18.3736 54.057 18.5187 54.3782L23.9863 51.9072ZM23.5898 51.0137L29.0926 48.622C29.0929 48.6227 29.0919 48.6206 29.089 48.6138C29.086 48.6066 29.0822 48.5977 29.076 48.583C29.0661 48.5596 29.0439 48.507 29.0208 48.4534L23.5107 50.8281L18.0007 53.2028C18.0042 53.2109 18.0081 53.2202 18.0244 53.2587C18.0374 53.2894 18.0608 53.3447 18.0871 53.4053L23.5898 51.0137ZM23.5107 50.8281L29.0211 48.454C28.9076 48.1907 28.8012 47.9403 28.7009 47.6979L23.1572 49.9932L17.6136 52.2884C17.7426 52.5999 17.8727 52.9058 18.0004 53.2023L23.5107 50.8281ZM23.1572 49.9932L28.7006 47.6974C28.6695 47.6221 28.6452 47.5619 28.5976 47.4453L23.043 49.7139L17.4884 51.9825C17.5166 52.0516 17.5678 52.1778 17.6138 52.289L23.1572 49.9932ZM23.043 49.7139L28.5978 47.4458C28.4981 47.2017 28.4047 46.9695 28.3167 46.745L22.7305 48.9346L17.1443 51.1242C17.2589 51.4165 17.3745 51.7036 17.4881 51.9819L23.043 49.7139ZM22.7305 48.9346L28.3164 46.7444C28.317 46.7459 28.3162 46.7439 28.3133 46.7363C28.3103 46.7282 28.3064 46.718 28.2999 46.7008C28.2896 46.6738 28.2659 46.611 28.2413 46.5474L22.6465 48.7148L17.0517 50.8823C17.0553 50.8917 17.0592 50.9021 17.0768 50.9484C17.0907 50.9852 17.1158 51.0516 17.1445 51.1248L22.7305 48.9346ZM22.6465 48.7148L28.2415 46.548C28.1377 46.28 28.0523 46.0585 27.9737 45.8461L22.3467 47.9287L16.7197 50.0113C16.8341 50.3203 16.9509 50.6221 17.0514 50.8817L22.6465 48.7148ZM22.3467 47.9287L27.9734 45.8455C27.939 45.7526 27.9608 45.809 27.8902 45.6154L22.2529 47.6699L16.6156 49.7244C16.6257 49.752 16.6346 49.777 16.6538 49.8302C16.6702 49.8759 16.6937 49.9411 16.7199 50.0119L22.3467 47.9287ZM22.2529 47.6699L27.8904 45.616C27.8024 45.3744 27.7205 45.1453 27.644 44.9246L21.9746 46.8887L16.3052 48.8528C16.408 49.1497 16.5124 49.4411 16.6154 49.7238L22.2529 47.6699ZM21.9746 46.8887L27.6438 44.924C27.644 44.9245 27.6424 44.9199 27.6338 44.8945C27.6276 44.876 27.6127 44.8316 27.5974 44.7871L21.9219 46.7334L16.2463 48.6797C16.2488 48.6868 16.2512 48.6942 16.2625 48.7275C16.2714 48.7539 16.2873 48.8011 16.3054 48.8534L21.9746 46.8887ZM21.9219 46.7334L27.5976 44.7877C27.5056 44.5191 27.4277 44.2895 27.3577 44.0729L21.6484 45.918L15.9392 47.7631C16.0437 48.0864 16.1504 48.3997 16.2461 48.6791L21.9219 46.7334ZM21.6484 45.918L27.3575 44.0722C27.3211 43.9597 27.3353 43.9987 27.2574 43.7506L21.5332 45.5488L15.809 47.347C15.8225 47.39 15.8335 47.4262 15.8576 47.5039C15.8782 47.5707 15.9069 47.6631 15.9394 47.7637L21.6484 45.918ZM21.5332 45.5488L27.2576 43.7512C27.1085 43.2766 26.9771 42.835 26.8631 42.418L21.0752 43.999L15.2873 45.5801C15.4511 46.1799 15.6281 46.771 15.8088 47.3464L21.5332 45.5488ZM21.0752 43.999L26.863 42.4174C26.8351 42.3153 26.8294 42.2878 26.7706 42.0629L20.9658 43.5811L15.1611 45.0992C15.1747 45.1512 15.2389 45.4032 15.2874 45.5807L21.0752 43.999ZM20.9658 43.5811L26.7707 42.0635C26.7146 41.8487 26.6839 41.7336 26.6538 41.6111L20.8271 43.043L15.0005 44.4748C15.0581 44.7092 15.1226 44.952 15.1609 45.0986L20.9658 43.5811ZM20.8271 43.043L26.6536 41.6105C26.6563 41.6212 26.6566 41.623 26.6489 41.5898C26.6463 41.5783 26.6403 41.5525 26.6351 41.5299C26.6293 41.5049 26.6218 41.4727 26.6131 41.4367L20.7783 42.835L14.9435 44.2332C14.9432 44.2317 14.9437 44.2341 14.946 44.2438C14.9488 44.2558 14.9508 44.2647 14.9562 44.2879C14.9645 44.324 14.981 44.3954 15.0007 44.4754L20.8271 43.043ZM20.7783 42.835L26.6133 41.4373C26.5582 41.2073 26.5179 41.0373 26.4836 40.8805L20.6221 42.1621L14.7606 43.4438C14.8236 43.7319 14.89 44.0099 14.9434 44.2326L20.7783 42.835ZM20.6221 42.1621L26.4835 40.8799C26.4627 40.7849 26.4605 40.7663 26.4121 40.5301L20.5342 41.7344L14.6563 42.9387C14.6659 42.9856 14.7188 43.2529 14.7607 43.4443L20.6221 42.1621ZM20.5342 41.7344L26.4122 40.5306C26.3635 40.2929 26.3552 40.2594 26.3374 40.1658L20.4424 41.2832L14.5473 42.4006C14.5863 42.6062 14.6428 42.8728 14.6562 42.9381L20.5342 41.7344ZM20.4424 41.2832L26.3373 40.1653C26.3204 40.0763 26.3336 40.1389 26.2871 39.8761L20.3789 40.9219L14.4707 41.9676C14.4779 42.0079 14.4821 42.0333 14.4967 42.1182C14.5085 42.1873 14.5261 42.2886 14.5475 42.4011L20.4424 41.2832ZM20.3789 40.9219L26.2872 39.8767C26.2152 39.47 26.16 39.1152 26.1206 38.7964L20.166 39.5332L14.2114 40.27C14.284 40.8563 14.3751 41.4269 14.4706 41.9671L20.3789 40.9219ZM20.166 39.5332L26.1205 38.7959C26.1233 38.8183 26.1237 38.8252 26.1192 38.7799C26.1182 38.7694 26.1136 38.7229 26.1108 38.6953C26.1072 38.6595 26.1023 38.612 26.0964 38.559L20.1328 39.2188L14.1692 39.8785C14.1691 39.8775 14.1696 39.8823 14.1713 39.8987C14.1738 39.9234 14.1743 39.9292 14.1785 39.9712C14.1844 40.0308 14.1957 40.1429 14.2115 40.2705L20.166 39.5332ZM20.1328 39.2188L26.0965 38.5594C26.0668 38.2914 26.0474 38.094 26.0354 37.9267L20.0508 38.3555L14.0661 38.7842C14.0947 39.1831 14.1341 39.5608 14.1691 39.8781L20.1328 39.2188ZM20.0508 38.3555L26.0354 37.9263C26.0308 37.8624 26.0272 37.808 26.0242 37.7595L20.0352 38.1211L14.0461 38.4827C14.0525 38.5897 14.0595 38.6915 14.0661 38.7846L20.0508 38.3555ZM20.0352 38.1211L26.0243 37.7598C26.0105 37.5307 26.0028 37.3141 26.0006 37.1098L20.001 37.1729L14.0013 37.2359C14.0057 37.6503 14.0209 38.0661 14.046 38.4823L20.0352 38.1211ZM20.001 37.1729H26.001V36.7617H20.001H14.001V37.1729H20.001ZM20.001 36.7617L26.0004 36.8419C26.0052 36.4822 26.0298 36.157 26.0677 35.8662L20.1182 35.0898L14.1686 34.3134C14.0681 35.0834 14.0123 35.874 14.0015 36.6816L20.001 36.7617ZM20.1182 35.0898L26.0677 35.8663C26.0737 35.8206 26.0782 35.7826 26.081 35.7582C26.0824 35.7458 26.0836 35.7353 26.0844 35.7282C26.0848 35.7247 26.0852 35.7215 26.0854 35.7192C26.0858 35.7164 26.0858 35.7158 26.086 35.7143C26.0863 35.7119 26.0861 35.7134 26.0858 35.7164C26.0854 35.7197 26.0846 35.7261 26.0836 35.7347C26.0816 35.7515 26.0779 35.7815 26.0726 35.8198L20.1289 35L14.1852 34.1802C14.1778 34.2334 14.1723 34.2783 14.1685 34.31C14.1648 34.3405 14.1619 34.3664 14.1609 34.3754C14.1592 34.3905 14.1601 34.3828 14.1608 34.3765C14.1619 34.3671 14.1646 34.3441 14.1686 34.3134L20.1182 35.0898ZM20.1289 35L19.5113 40.9681L20.3794 41.058L20.9971 35.0898L21.6147 29.1217L20.7465 29.0319L20.1289 35ZM20.9971 35.0898L20.3425 41.054C20.427 41.0633 20.4505 41.0666 20.5989 41.0835L21.2783 35.1221L21.9578 29.1607C21.9188 29.1562 21.7549 29.137 21.6516 29.1257L20.9971 35.0898ZM21.2783 35.1221L20.5988 41.0835C20.7104 41.0962 20.8252 41.1098 20.9477 41.1244L21.6611 35.167L22.3746 29.2096C22.2422 29.1937 22.1019 29.1771 21.9578 29.1607L21.2783 35.1221ZM21.6611 35.167L20.9477 41.1244C21.2923 41.1657 21.6195 41.2066 21.9362 41.2498L22.7461 35.3047L23.556 29.3596C23.1526 29.3047 22.7563 29.2553 22.3745 29.2096L21.6611 35.167ZM22.7461 35.3047L21.9361 41.2498C22.0655 41.2674 21.9058 41.2463 22.1478 41.2801L22.9785 35.3379L23.8092 29.3957C23.7906 29.3931 23.7719 29.3903 23.725 29.3835C23.6856 29.3778 23.6237 29.3688 23.556 29.3596L22.7461 35.3047ZM22.9785 35.3379L22.1479 41.2801C22.4306 41.3196 22.7171 41.3622 23.0096 41.4073L23.9248 35.4775L24.8401 29.5478C24.5041 29.4959 24.1598 29.4447 23.8091 29.3957L22.9785 35.3379ZM23.9248 35.4775L23.0095 41.4073C23.188 41.4349 23.2156 41.4383 23.3162 41.4543L24.2617 35.5293L25.2073 29.6043C25.0837 29.5845 24.8865 29.5549 24.8402 29.5478L23.9248 35.4775ZM24.2617 35.5293L23.3163 41.4543C23.6719 41.5111 24.0172 41.5687 24.3544 41.6285L25.4023 35.7207L26.4503 29.8129C26.0308 29.7385 25.6156 29.6694 25.2072 29.6043L24.2617 35.5293ZM25.4023 35.7207L24.3543 41.6285C24.3337 41.6248 24.3182 41.6219 24.3112 41.6206C24.3051 41.6194 24.3012 41.6187 24.3086 41.6201C24.3127 41.6209 24.3291 41.6241 24.3467 41.6274C24.3655 41.6309 24.3929 41.6361 24.4254 41.6419L25.4805 35.7354L26.5356 29.8289C26.555 29.8323 26.5693 29.835 26.5752 29.8361C26.5798 29.837 26.5831 29.8376 26.5742 29.8359C26.5686 29.8349 26.5517 29.8316 26.5326 29.828C26.5125 29.8242 26.4841 29.8189 26.4504 29.8129L25.4023 35.7207ZM25.4805 35.7354L24.4255 41.6419C25.1782 41.7763 25.9206 41.9231 26.6526 42.0825L27.9287 36.2197L29.2048 30.357C28.3221 30.1649 27.4322 29.989 26.5354 29.8288L25.4805 35.7354ZM27.9287 36.2197L26.6525 42.0824C26.6508 42.0821 26.6548 42.0829 26.6845 42.0897C26.7061 42.0946 26.7575 42.1063 26.8105 42.118L28.1025 36.2588L29.3945 30.3995C29.3896 30.3985 29.3832 30.397 29.3469 30.3887C29.3186 30.3823 29.2647 30.37 29.2049 30.357L27.9287 36.2197ZM28.1025 36.2588L26.8107 42.1181C27.129 42.1882 27.4457 42.2608 27.761 42.3357L29.1475 36.498L30.5339 30.6604C30.1558 30.5706 29.776 30.4836 29.3944 30.3995L28.1025 36.2588ZM29.1475 36.498L27.7608 42.3356C27.7939 42.3435 27.8227 42.3501 27.8442 42.355C27.8644 42.3597 27.8841 42.3641 27.8927 42.366C27.9042 42.3686 27.9062 42.3691 27.906 42.3691C27.9051 42.3688 27.8969 42.367 27.8843 42.3639L29.2832 36.5293L30.6821 30.6947C30.6162 30.6789 30.5573 30.6656 30.538 30.6612C30.5239 30.6581 30.521 30.6574 30.5186 30.6568C30.5174 30.6566 30.5236 30.658 30.5341 30.6605L29.1475 36.498ZM29.2832 36.5293L27.8844 42.364C28.2247 42.4455 28.5721 42.5332 28.934 42.6269L30.4375 36.8184L31.941 31.0098C31.5373 30.9053 31.1155 30.7986 30.682 30.6946L29.2832 36.5293ZM30.4375 36.8184L28.9339 42.6269C28.9735 42.6371 29.012 42.6469 29.0282 42.651C29.0504 42.6566 29.0533 42.6574 29.052 42.657L30.5674 36.8516L32.0828 31.0461C32.0383 31.0345 31.9979 31.0242 31.9768 31.0189C31.9496 31.012 31.9448 31.0108 31.9411 31.0098L30.4375 36.8184ZM30.5674 36.8516L29.0522 42.6571C29.7452 42.838 30.4319 43.0306 31.1125 43.2343L32.833 37.4863L34.5536 31.7383C33.7398 31.4947 32.9162 31.2636 32.0826 31.046L30.5674 36.8516ZM32.833 37.4863L31.1123 43.2343C31.2056 43.2622 31.2465 43.2743 31.305 43.292L33.0449 37.5498L34.7848 31.8076C34.7023 31.7826 34.6018 31.7527 34.5537 31.7384L32.833 37.4863ZM33.0449 37.5498L31.3052 43.292C31.6352 43.392 31.9569 43.492 32.2716 43.5931L34.1074 37.8809L35.9432 32.1686C35.5534 32.0433 35.1666 31.9233 34.7846 31.8076L33.0449 37.5498ZM34.1074 37.8809L32.2715 43.5931C32.265 43.591 32.2604 43.5895 32.2589 43.589C32.2577 43.5886 32.2573 43.5885 32.2611 43.5897C32.2635 43.5905 32.2706 43.5928 32.278 43.5952C32.2859 43.5978 32.2969 43.6014 32.3097 43.6055L34.1494 37.8945L35.9891 32.1835C35.995 32.1854 35.9989 32.1867 35.9998 32.187C36.0002 32.1871 36.0003 32.1872 35.9958 32.1857C35.9925 32.1846 35.9851 32.1822 35.977 32.1795C35.9684 32.1767 35.9568 32.173 35.9433 32.1686L34.1074 37.8809ZM34.1494 37.8945L32.2755 43.5944L32.9884 43.8288L34.8623 38.1289L36.7362 32.429L36.0233 32.1947L34.1494 37.8945ZM34.8623 38.1289L32.9584 43.8188C33.0504 43.8496 33.1118 43.8711 33.2587 43.9211L35.1924 38.2412L37.1261 32.5613C37.0531 32.5365 36.8948 32.482 36.7662 32.439L34.8623 38.1289ZM35.1924 38.2412L33.2586 43.921C33.4147 43.9742 33.3887 43.9646 33.471 43.9929L35.4258 38.3203L37.3806 32.6477C37.3215 32.6273 37.2666 32.6088 37.2258 32.595C37.1797 32.5795 37.1539 32.5708 37.1262 32.5614L35.1924 38.2412ZM35.4258 38.3203L33.4711 43.993C34.1299 44.22 34.7845 44.459 35.4357 44.7087L37.584 39.1064L39.7322 33.5042C38.9606 33.2083 38.1767 32.922 37.3804 32.6476L35.4258 38.3203ZM37.584 39.1064L35.4357 44.7087C35.4903 44.7296 35.5295 44.7446 35.57 44.7602L37.7314 39.1631L39.8929 33.5659C39.8352 33.5437 39.776 33.521 39.7323 33.5042L37.584 39.1064ZM37.7314 39.1631L35.57 44.7603C35.8934 44.8851 36.2179 45.0139 36.5441 45.1464L38.8008 39.5869L41.0574 34.0275C40.6748 33.8722 40.2866 33.718 39.8929 33.5659L37.7314 39.1631ZM38.8008 39.5869L36.5441 45.1464C36.5774 45.1599 36.6049 45.1707 36.6223 45.1775C36.6312 45.181 36.6386 45.1839 36.6435 45.1858C36.648 45.1875 36.6521 45.1891 36.6526 45.1893C36.6542 45.1899 36.6522 45.1891 36.6497 45.1882C36.6469 45.1871 36.6416 45.185 36.6348 45.1824C36.6215 45.1772 36.5982 45.168 36.569 45.1561L38.8281 39.5977L41.0872 34.0392C41.0535 34.0255 41.0257 34.0145 41.0078 34.0075C40.9987 34.004 40.9911 34.001 40.986 33.999C40.9812 33.9972 40.977 33.9956 40.9763 33.9953C40.9745 33.9946 40.9763 33.9953 40.9786 33.9962C40.9812 33.9972 40.9863 33.9992 40.9929 34.0017C41.0058 34.0068 41.0287 34.0158 41.0575 34.0275L38.8008 39.5869ZM38.8281 39.5977L36.5691 45.1561C49.026 50.2189 58.8554 58.977 66.0575 68.0739L70.7617 64.3496L75.4659 60.6253C67.3568 50.3827 55.9594 40.0836 41.0872 34.0392L38.8281 39.5977ZM70.7617 64.3496L73.538 69.6686C83.0771 64.6897 93.988 63.5 101.305 63.5V57.5V51.5C93.0118 51.5 79.9231 52.7996 67.9854 59.0306L70.7617 64.3496ZM101.305 57.5L101.131 63.4975C111.7 63.8039 119.477 66.0647 125.186 68.9908L127.923 63.6514L130.66 58.3119C123.185 54.4809 113.624 51.8546 101.479 51.5025L101.305 57.5ZM127.923 63.6514L132.592 67.4199C139.518 58.8393 148.79 50.6337 160.406 45.6367L158.035 40.125L155.664 34.6133C141.815 40.571 131.064 50.2067 123.254 59.8828L127.923 63.6514ZM158.035 40.125L163.155 36.9959C163.165 37.0125 163.172 37.025 163.175 37.0304C163.178 37.0348 163.18 37.0381 163.176 37.0312C163.174 37.0272 163.165 37.0136 163.156 36.9983C163.147 36.9822 163.133 36.959 163.116 36.9318L158 40.0664L152.884 43.201C152.873 43.1835 152.865 43.1701 152.861 43.1637C152.858 43.1582 152.856 43.1544 152.859 43.1602C152.861 43.1631 152.869 43.1762 152.877 43.1903C152.886 43.2055 152.9 43.2278 152.916 43.2541L158.035 40.125ZM158 40.0664L160.359 45.5833C165.825 43.2464 171.832 41.6081 178.403 40.9721L177.825 35L177.247 29.0279C169.386 29.7887 162.181 31.7536 155.641 34.5495L158 40.0664ZM177.825 35L171.881 35.8198C171.876 35.7821 171.872 35.7487 171.869 35.7206C171.865 35.6925 171.863 35.6685 171.861 35.6499C171.859 35.6316 171.857 35.6168 171.856 35.608C171.856 35.6035 171.855 35.5999 171.855 35.5978C171.855 35.5959 171.855 35.5943 171.855 35.5948C171.855 35.5948 171.855 35.595 171.855 35.5952C171.855 35.5954 171.855 35.5956 171.855 35.596C171.855 35.5967 171.855 35.5977 171.855 35.599C171.856 35.6014 171.856 35.6054 171.856 35.6103C171.857 35.6199 171.859 35.6354 171.861 35.6545C171.863 35.6738 171.866 35.6986 171.869 35.7274C171.873 35.7563 171.877 35.7905 171.882 35.8288L177.827 35.0176L183.772 34.2063C183.777 34.2432 183.781 34.2759 183.784 34.3034C183.788 34.3307 183.79 34.354 183.792 34.3718C183.794 34.3895 183.796 34.4036 183.796 34.4117C183.797 34.4158 183.797 34.4191 183.797 34.4208C183.797 34.4223 183.798 34.4237 183.797 34.4228C183.797 34.4225 183.797 34.4202 183.797 34.4176C183.797 34.4147 183.796 34.4104 183.796 34.4052C183.795 34.3949 183.793 34.3787 183.791 34.3588C183.789 34.3388 183.786 34.3134 183.782 34.2838C183.779 34.2542 183.774 34.2193 183.769 34.1802L177.825 35ZM177.827 35.0176L178.42 40.9882C178.607 40.9697 178.477 40.9818 178.578 40.9721L178 35L177.422 29.0279C177.371 29.0328 177.325 29.0376 177.296 29.0406C177.261 29.0442 177.247 29.0456 177.234 29.047L177.827 35.0176ZM74.7119 10.8281L72.5126 16.4105C71.7234 16.0996 71.21 15.6898 71.1659 15.6561C71.0146 15.5403 70.9216 15.4547 70.91 15.4441C70.8813 15.4178 70.923 15.4547 71.0609 15.5994C71.3238 15.8752 71.7228 16.3168 72.256 16.9271C73.3096 18.1334 74.719 19.8055 76.2822 21.6889C79.3998 25.4455 83.0238 29.9159 85.4097 32.8869L90.0879 29.1299L94.7661 25.3729C92.3568 22.3729 88.6894 17.8487 85.5163 14.0253C83.934 12.1187 82.4481 10.3545 81.2936 9.03279C80.7227 8.37918 80.1895 7.78396 79.7465 7.31929C79.5315 7.09379 79.2769 6.83465 79.0153 6.59507C78.8873 6.47785 78.6937 6.30622 78.4585 6.12624C78.3306 6.02834 77.75 5.57618 76.9112 5.24573L74.7119 10.8281ZM90.0879 29.1299L89.1428 23.2048L78.7902 24.8562L79.7354 30.7812L80.6805 36.7063L91.033 35.055L90.0879 29.1299ZM79.7354 30.7812L73.994 32.524L77.7313 44.8365L83.4727 43.0938L89.214 41.351L85.4767 29.0385L79.7354 30.7812ZM83.4727 43.0938L87.8658 39.0072L72.402 22.3832L68.0088 26.4697L63.6156 30.5563L79.0795 47.1803L83.4727 43.0938ZM68.0088 26.4697L68.9538 32.3948L79.3074 30.7435L78.3623 24.8184L77.4173 18.8933L67.0637 20.5446L68.0088 26.4697ZM78.3623 24.8184L84.1679 23.3035L80.5175 9.3133L74.7119 10.8281L68.9063 12.343L72.5567 26.3332L78.3623 24.8184Z" fill="white" mask="url(#path-1-outside-1_1347_6771)"/>
<path d="M20.1288 35C57.3288 38.6 78.2954 71.5 84.1288 87.5C80.6289 90.5 76.6287 95 70.6288 99.5C39.6288 85 18.1288 49.5 20.1288 35Z" fill="#5B97D0"/>
<path d="M178 35C140.8 38.6 119.833 71.5 114 87.5C117.5 90.5 121.5 95 127.5 99.5C158.5 85 180 49.5 178 35Z" fill="#5B97D0"/>
<path d="M50.3047 87.5C59.8047 61.5 87.3047 57.5 101.305 57.5C135.805 58.5 145.5 79 147.5 86C149.408 92.679 147.805 103.5 149.805 112C157.305 125.5 145.805 149 132.305 157.5C121.505 164.3 107.138 165.667 101.305 165.5C96.9714 166 84.6047 165.1 69.8047 157.5C43.3047 139.5 44.3047 119 47.8047 112C51.3047 105 48.8047 95 50.3047 87.5Z" fill="#6AA6E0"/>
<path d="M71.5 111C77.8513 111 83 105.851 83 99.5C83 93.1487 77.8513 88 71.5 88C65.1487 88 60 93.1487 60 99.5C60 105.851 65.1487 111 71.5 111Z" fill="white"/>
<path d="M71.3213 106.477C75.129 106.477 78.2157 103.391 78.2157 99.583C78.2157 95.7752 75.129 92.6885 71.3213 92.6885C67.5135 92.6885 64.4268 95.7752 64.4268 99.583C64.4268 103.391 67.5135 106.477 71.3213 106.477Z" fill="black"/>
<path d="M126.5 111C132.851 111 138 105.851 138 99.5C138 93.1487 132.851 88 126.5 88C120.149 88 115 93.1487 115 99.5C115 105.851 120.149 111 126.5 111Z" fill="white"/>
<path d="M126.321 106.477C130.129 106.477 133.216 103.391 133.216 99.583C133.216 95.7752 130.129 92.6885 126.321 92.6885C122.514 92.6885 119.427 95.7752 119.427 99.583C119.427 103.391 122.514 106.477 126.321 106.477Z" fill="black"/>
<path d="M20.1289 35C27.3456 35.6984 33.9513 37.4999 39.9541 40.0664C37.4536 44.1476 35.2639 48.7566 33.6777 53.9482C32.4575 57.9421 32.1759 62.2397 32.5645 66.6309C23.8469 54.3382 19.1454 42.1306 20.1289 35Z" fill="#195999"/>
<path d="M177.825 35C170.609 35.6984 164.003 37.4999 158 40.0664C160.501 44.1476 162.69 48.7566 164.276 53.9482C165.497 57.9421 165.778 62.2397 165.39 66.6309C174.107 54.3382 178.809 42.1306 177.825 35Z" fill="#195999"/>
<path d="M67.1838 125.601C63.9838 114.401 51.8334 114.167 46.5001 116C42.0001 132 52.5 143 56.5 146C61 146 71.1838 139.601 67.1838 125.601Z" fill="#F6C4B6"/>
<path d="M129.912 125.601C133.112 114.401 146.167 114.167 151.5 116C155 131 146.5 144 142.5 148C138 148 125.912 139.601 129.912 125.601Z" fill="#F6C4B6"/>
<path d="M87 132C88 132.5 92 135.5 98.5 132C102 134 104 135.5 111 132.5" stroke="#144678" stroke-width="3" stroke-linecap="round" stroke-linejoin="round"/>
<path d="M106 118.159C105.996 120.454 102.253 124.003 98.9902 124C95.7275 123.997 91.9964 120.442 92 118.148C92.0036 115.853 94.1389 113.995 99.0062 114C103.929 114.004 106.004 115.866 106 118.16V118.159Z" fill="#144678"/>
<path d="M159.972 155.117C167.334 148.074 182.333 133.92 183.431 133.648L176.187 151.467L189.555 155.443L166.273 174.683L173.34 159.093L159.972 155.117Z" fill="#F8D076"/>
<path d="M90.0884 29.1304C85.2928 23.1589 75.5037 11.1384 74.7119 10.828L78.362 24.819L68.0093 26.4698L83.4729 43.0936L79.7357 30.7812L90.0884 29.1304Z" fill="#F8D076"/>
</svg>
