<svg width="200" height="200" viewBox="0 0 200 200" fill="none" xmlns="http://www.w3.org/2000/svg">
<mask id="path-1-outside-1_1347_9642" maskUnits="userSpaceOnUse" x="13" y="39.4951" width="158" height="144" fill="black">
<rect fill="white" x="13" y="39.4951" width="158" height="144"/>
<path d="M89.6914 46.4287C89.6914 46.4287 140.825 35.0786 164.798 91.5273H164.802V137.386L19 176.5V124.648L53.0752 86.9424L50.8291 86.4668V73.9482L64.0215 61.8135L71.8887 64.9199L71.1504 57.8896L71.502 57.9697L83.3857 48.418L86.9473 49.4639L89.6914 46.4287Z"/>
</mask>
<path d="M89.6914 46.4287C89.6914 46.4287 140.825 35.0786 164.798 91.5273H164.802V137.386L19 176.5V124.648L53.0752 86.9424L50.8291 86.4668V73.9482L64.0215 61.8135L71.8887 64.9199L71.1504 57.8896L71.502 57.9697L83.3857 48.418L86.9473 49.4639L89.6914 46.4287Z" fill="#EAC00F"/>
<path d="M89.6914 46.4287L88.3912 40.5713C87.1763 40.8409 86.0754 41.4817 85.2408 42.4048L89.6914 46.4287ZM164.798 91.5273L159.275 93.8727C160.216 96.0885 162.391 97.5273 164.798 97.5273V91.5273ZM164.802 91.5273H170.802C170.802 88.2136 168.115 85.5273 164.802 85.5273V91.5273ZM164.802 137.386L166.356 143.181C168.979 142.477 170.802 140.101 170.802 137.386H164.802ZM19 176.5H13C13 178.366 13.8679 180.125 15.3481 181.261C16.8284 182.396 18.7527 182.779 20.5546 182.295L19 176.5ZM19 124.648L14.5484 120.626C13.5518 121.728 13 123.162 13 124.648H19ZM53.0752 86.9424L57.5267 90.9653C58.9659 89.3728 59.4447 87.1329 58.7825 85.0912C58.1203 83.0496 56.4179 81.5171 54.3181 81.0725L53.0752 86.9424ZM50.8291 86.4668H44.8291C44.8291 89.3015 46.813 91.7495 49.5862 92.3367L50.8291 86.4668ZM50.8291 73.9482L46.7672 69.5323C45.532 70.6684 44.8291 72.27 44.8291 73.9482H50.8291ZM64.0215 61.8135L66.2251 56.2328C64.086 55.3881 61.6522 55.8405 59.9595 57.3975L64.0215 61.8135ZM71.8887 64.9199L69.6851 70.5006C71.6362 71.271 73.8479 70.9665 75.5183 69.6976C77.1886 68.4286 78.0749 66.3795 77.8559 64.2933L71.8887 64.9199ZM71.1504 57.8896L72.4829 52.0395C70.5954 51.6095 68.6163 52.1168 67.1683 53.4016C65.7202 54.6864 64.981 56.591 65.1832 58.5163L71.1504 57.8896ZM71.502 57.9697L70.1694 63.8199C71.9567 64.227 73.8321 63.7947 75.2608 62.6463L71.502 57.9697ZM83.3857 48.418L85.0763 42.6611C83.1925 42.1079 81.1572 42.5113 79.6269 43.7414L83.3857 48.418ZM86.9473 49.4639L85.2567 55.2208C87.4667 55.8698 89.8532 55.1963 91.3979 53.4878L86.9473 49.4639ZM89.6914 46.4287C90.9916 52.2861 90.9885 52.2868 90.9856 52.2875C90.9849 52.2876 90.9821 52.2882 90.9807 52.2885C90.9778 52.2892 90.9757 52.2896 90.9744 52.2899C90.9717 52.2905 90.972 52.2904 90.9753 52.2898C90.9818 52.2884 91.0003 52.2845 91.0304 52.2784C91.0906 52.2662 91.1972 52.2452 91.3477 52.2177C91.649 52.1628 92.1254 52.0822 92.7584 51.9945C94.0258 51.819 95.9114 51.6165 98.2669 51.5335C102.992 51.3671 109.518 51.6848 116.705 53.6062C130.835 57.3836 148.064 67.4736 159.275 93.8727L164.798 91.5273L170.32 89.182C157.559 59.1323 137.235 46.673 119.804 42.0133C111.212 39.7161 103.456 39.3433 97.8444 39.541C95.0315 39.6401 92.735 39.8833 91.1124 40.108C90.3003 40.2204 89.6548 40.3286 89.1953 40.4123C88.9655 40.4542 88.782 40.4901 88.6472 40.5174C88.5799 40.531 88.5246 40.5426 88.4819 40.5516C88.4605 40.5562 88.4422 40.5601 88.4271 40.5634C88.4195 40.565 88.4128 40.5665 88.4068 40.5678C88.4038 40.5685 88.3999 40.5694 88.3984 40.5697C88.3947 40.5705 88.3912 40.5713 89.6914 46.4287ZM164.798 91.5273V97.5273H164.802V91.5273V85.5273H164.798V91.5273ZM164.802 91.5273H158.802V137.386H164.802H170.802V91.5273H164.802ZM164.802 137.386L163.247 131.591L17.4454 170.705L19 176.5L20.5546 182.295L166.356 143.181L164.802 137.386ZM19 176.5H25V124.648H19H13V176.5H19ZM19 124.648L23.4516 128.671L57.5267 90.9653L53.0752 86.9424L48.6236 82.9195L14.5484 120.626L19 124.648ZM53.0752 86.9424L54.3181 81.0725L52.072 80.5969L50.8291 86.4668L49.5862 92.3367L51.8323 92.8122L53.0752 86.9424ZM50.8291 86.4668H56.8291V73.9482H50.8291H44.8291V86.4668H50.8291ZM50.8291 73.9482L54.891 78.3642L68.0834 66.2294L64.0215 61.8135L59.9595 57.3975L46.7672 69.5323L50.8291 73.9482ZM64.0215 61.8135L61.8179 67.3942L69.6851 70.5006L71.8887 64.9199L74.0923 59.3392L66.2251 56.2328L64.0215 61.8135ZM71.8887 64.9199L77.8559 64.2933L77.1176 57.263L71.1504 57.8896L65.1832 58.5163L65.9215 65.5466L71.8887 64.9199ZM71.1504 57.8896L69.8179 63.7398L70.1694 63.8199L71.502 57.9697L72.8345 52.1196L72.4829 52.0395L71.1504 57.8896ZM71.502 57.9697L75.2608 62.6463L87.1446 53.0946L83.3857 48.418L79.6269 43.7414L67.7431 53.2931L71.502 57.9697ZM83.3857 48.418L81.6951 54.1749L85.2567 55.2208L86.9473 49.4639L88.6379 43.707L85.0763 42.6611L83.3857 48.418ZM86.9473 49.4639L91.3979 53.4878L94.142 50.4526L89.6914 46.4287L85.2408 42.4048L82.4966 45.44L86.9473 49.4639Z" fill="white" mask="url(#path-1-outside-1_1347_9642)"/>
<path d="M19 124.649L89.6918 46.4287C89.6918 46.4287 140.831 35.0776 164.802 91.5355C136.522 99.7296 19 124.649 19 124.649Z" fill="#456521"/>
<path d="M19 124.648V176.5L164.802 137.386V91.5273L19 124.648Z" fill="#6D894A"/>
<path d="M19 136.736L164.802 100.834V110.509L19 148.463V136.736Z" fill="#A8C187"/>
<path d="M19 157.339L164.802 120.442V130.117L19 168.072V157.339Z" fill="#A8C187"/>
<path d="M71.4863 57.984L89.0809 62.0262L104.083 54.4979L83.3858 48.4189L71.4863 57.984Z" fill="#F7B256"/>
<path d="M71.1504 57.8893L72.6545 72.1859L88.6823 74.3246L106.34 63.843L103.747 54.4033L88.745 61.9316L71.1504 57.8893Z" fill="#E9992D"/>
<path d="M50.8291 73.9489L73.5862 80.8818L85.987 70.4864L64.0211 61.8145L50.8291 73.9489Z" fill="#F7B256"/>
<path d="M50.8291 73.9488V86.4672L73.5862 91.2849L85.987 78.5708V70.4863L73.5862 80.8817L50.8291 73.9488Z" fill="#E9992D"/>
<path d="M78.0898 74.1523L99.9695 75.7817L107.294 61.3285L85.5397 57.6074L78.0898 74.1523Z" fill="#F7B256"/>
<path d="M78.0898 74.152L82.1399 87.6965L103.33 87.0385L109.911 70.0784L107.294 61.3281L99.9695 75.7814L78.0898 74.152Z" fill="#EFA036"/>
<path d="M85.9866 59.832C85.9866 59.832 81.9914 67.0469 82.0306 70.4468C82.0462 71.8098 83.0803 71.5278 83.8088 69.9376C84.553 68.316 86.582 64.0936 85.9866 59.832Z" fill="#FFCF8E"/>
<path d="M63.8954 64.1094C63.8954 64.1094 57.0957 68.7783 55.6151 71.8413C55.0197 73.0712 56.0773 73.2749 57.4325 72.1781C58.8191 71.0579 62.5245 68.1829 63.8954 64.1094Z" fill="#FFCF8E"/>
<path d="M83.5818 49.2021C83.5818 49.2021 76.9858 53.401 75.4582 56.2604C74.8471 57.4119 75.8499 57.6156 77.2521 56.6912C79.4377 55.2498 83.9343 51.1214 83.5818 49.2021Z" fill="#FFCF8E"/>
<path d="M144.862 82.4333C145.426 88.5201 137.64 94.2231 127.471 95.1631C117.295 96.111 108.592 91.9434 108.028 85.8566C107.95 84.9871 108.036 84.1253 108.286 83.2871C109.838 80.4278 112.313 78.0229 115.384 76.2759C115.376 76.1584 115.36 76.0487 115.36 75.9312C115.298 75.1557 115.313 74.3645 115.368 73.5811C116.034 65.1912 122.81 59.4334 130.534 60.0444C138.274 60.6633 144.048 67.416 143.374 75.8059C143.303 76.6519 143.178 77.4588 142.99 78.2579C142.967 78.3284 142.951 78.391 142.943 78.4615C143.139 78.6261 143.335 78.7827 143.515 78.9472C144.275 80.0048 144.729 81.1799 144.847 82.4254L144.862 82.4333Z" fill="#4B9AE8"/>
<path d="M137.466 74.129C139.18 74.129 140.568 72.7402 140.568 71.0269C140.568 69.3137 139.18 67.9248 137.466 67.9248C135.753 67.9248 134.364 69.3137 134.364 71.0269C134.364 72.7402 135.753 74.129 137.466 74.129Z" fill="white"/>
<path d="M137.419 72.909C138.446 72.909 139.279 72.0764 139.279 71.0492C139.279 70.0221 138.446 69.1895 137.419 69.1895C136.392 69.1895 135.56 70.0221 135.56 71.0492C135.56 72.0764 136.392 72.909 137.419 72.909Z" fill="black"/>
<path d="M122.583 72.5626C124.296 72.5626 125.685 71.1738 125.685 69.4605C125.685 67.7473 124.296 66.3584 122.583 66.3584C120.869 66.3584 119.48 67.7473 119.48 69.4605C119.48 71.1738 120.869 72.5626 122.583 72.5626Z" fill="white"/>
<path d="M122.535 71.3426C123.562 71.3426 124.394 70.51 124.394 69.4828C124.394 68.4557 123.562 67.623 122.535 67.623C121.507 67.623 120.675 68.4557 120.675 69.4828C120.675 70.51 121.507 71.3426 122.535 71.3426Z" fill="black"/>
<path d="M133.229 74.3314C133.033 75.8903 130.949 78.0759 129.398 77.8879C127.839 77.6921 126.358 75.0599 126.546 73.5089C126.742 71.9499 127.917 70.8141 130.236 71.1039C132.586 71.3938 133.424 72.7803 133.229 74.3392V74.3314Z" fill="#EAC00F"/>
<path d="M145.404 29.2012C145.409 29.2091 145.419 29.2235 145.432 29.2432C145.458 29.2825 145.5 29.3438 145.557 29.4238C145.67 29.5843 145.842 29.8179 146.065 30.0938C146.517 30.65 147.162 31.3571 147.946 31.9932C149.55 33.2931 151.432 34.0742 153.441 33.2686C153.904 33.0832 154.428 33.14 154.841 33.4189C155.253 33.6979 155.5 34.1634 155.5 34.6611V34.7021C155.5 35.3128 155.129 35.8623 154.563 36.0918C152.553 36.9071 151.681 38.8172 151.367 40.9072C151.214 41.9268 151.212 42.8993 151.25 43.624C151.269 43.9837 151.298 44.276 151.321 44.4736C151.333 44.5722 151.343 44.6469 151.35 44.6943C151.353 44.7178 151.356 44.7345 151.357 44.7441C151.358 44.7485 151.358 44.7516 151.358 44.7529V44.752C151.476 45.4556 151.082 46.1449 150.416 46.4004C149.749 46.6559 148.995 46.4066 148.612 45.8037V45.8027C148.612 45.8016 148.61 45.8005 148.609 45.7988C148.604 45.7909 148.595 45.7764 148.582 45.7568C148.556 45.7176 148.514 45.6562 148.457 45.5762C148.343 45.4157 148.171 45.1822 147.947 44.9062C147.496 44.3501 146.852 43.6428 146.067 43.0068C144.464 41.7069 142.58 40.9257 140.571 41.7314C140.109 41.9166 139.585 41.86 139.173 41.5811C138.905 41.3998 138.708 41.1392 138.603 40.8428C138.57 40.7601 138.545 40.6737 138.527 40.584C138.39 39.879 138.773 39.176 139.438 38.9072C141.463 38.0906 142.336 36.1796 142.649 34.0928C142.802 33.0738 142.804 32.1014 142.765 31.377C142.745 31.0177 142.716 30.7258 142.692 30.5283C142.681 30.4299 142.671 30.355 142.664 30.3076C142.661 30.2841 142.658 30.2673 142.656 30.2578C142.655 30.2531 142.654 30.2501 142.654 30.249L142.655 30.25V30.249C142.537 29.5456 142.93 28.8556 143.596 28.5996C144.262 28.3434 145.017 28.5935 145.399 29.1963C145.4 29.1976 145.403 29.1987 145.404 29.2012Z" fill="#EFA036" stroke="white" stroke-width="3" stroke-linejoin="round"/>
<path d="M170.204 33.9082L170.203 33.9092C169.685 33.1141 168.681 32.792 167.798 33.1387C166.914 33.4854 166.396 34.4047 166.558 35.3398V35.3408C166.558 35.3442 166.559 35.3507 166.561 35.3594C166.564 35.3788 166.569 35.4109 166.575 35.4551C166.588 35.5441 166.608 35.6818 166.63 35.8623C166.673 36.2239 166.727 36.755 166.762 37.4072C166.832 38.719 166.827 40.4856 166.539 42.3447C165.954 46.1164 164.301 49.8063 160.269 51.3916C159.279 51.7807 158.766 52.8759 159.103 53.8848L159.126 53.9561C159.3 54.4764 159.68 54.9024 160.177 55.1348C160.674 55.367 161.244 55.3851 161.755 55.1846C165.791 53.5992 169.513 55.1769 172.508 57.542C173.984 58.7081 175.19 60.0001 176.03 61.0098C176.448 61.5117 176.77 61.9368 176.984 62.2314C177.091 62.3786 177.171 62.4931 177.222 62.5674C177.247 62.6044 177.266 62.6312 177.276 62.6475C177.281 62.6542 177.284 62.6592 177.286 62.6621V62.6631C177.804 63.4586 178.81 63.7804 179.693 63.4336C180.522 63.1084 181.029 62.2794 180.956 61.4062L180.934 61.2324C180.933 61.2294 180.932 61.2225 180.931 61.2129C180.928 61.1936 180.923 61.1614 180.916 61.1172C180.903 61.0282 180.883 60.8904 180.861 60.71C180.818 60.3484 180.765 59.8173 180.729 59.165C180.659 57.8533 180.664 56.0867 180.952 54.2275C181.537 50.4558 183.19 46.766 187.223 45.1807C188.212 44.7916 188.725 43.6955 188.389 42.6865L188.365 42.6162C188.192 42.0958 187.811 41.6699 187.314 41.4375C186.88 41.2342 186.389 41.1946 185.931 41.3223L185.736 41.3877C181.7 42.9732 177.978 41.3946 174.983 39.0293C173.507 37.8631 172.301 36.5721 171.46 35.5625C171.042 35.0607 170.721 34.6355 170.507 34.3408C170.4 34.1937 170.32 34.0792 170.27 34.0049C170.244 33.968 170.226 33.9411 170.215 33.9248C170.209 33.9167 170.206 33.9108 170.204 33.9082ZM170.204 33.9082L170.203 33.9062C170.203 33.9063 170.203 33.907 170.204 33.9082Z" fill="#EFA036" stroke="white" stroke-width="4" stroke-linejoin="round"/>
</svg>
