<svg width="200" height="200" viewBox="0 0 200 200" fill="none" xmlns="http://www.w3.org/2000/svg">
<mask id="path-1-outside-1_1062_15999" maskUnits="userSpaceOnUse" x="14.001" y="3.82812" width="182" height="177" fill="black">
<rect fill="white" x="14.001" y="3.82812" width="182" height="177"/>
<path d="M176.188 151.468L189.556 155.442L166.272 174.683L173.34 159.093L159.973 155.117C167.335 148.074 182.333 133.92 183.432 133.648L176.188 151.468ZM178 35C179.53 46.0938 167.304 69.4795 147.592 86.3486C149.351 93.0508 147.839 103.646 149.805 112C150.496 113.245 151.024 114.575 151.406 115.97C151.438 115.98 151.469 115.989 151.5 116C155 131 146.5 144 142.5 148C142.447 148 142.394 147.997 142.339 147.995C139.349 151.912 135.898 155.237 132.305 157.5C121.505 164.3 107.138 165.667 101.305 165.5C96.9713 166 84.6046 165.1 69.8047 157.5C64.251 153.728 59.9072 149.844 56.5391 145.999C56.526 145.999 56.513 146 56.5 146C52.5189 143.014 42.1001 132.104 46.4385 116.227C46.768 114.527 47.2559 113.098 47.8047 112C51.3047 105 48.8047 95 50.3047 87.5C50.4302 87.1564 50.5587 86.8165 50.6904 86.4805C41.2232 78.4109 33.4741 68.8318 28.1299 59.8164C28.0948 59.7572 28.0603 59.6978 28.0254 59.6387C27.6051 58.926 27.1994 58.2172 26.8096 57.5127C26.794 57.4846 26.7782 57.4568 26.7627 57.4287C26.3761 56.7281 26.0051 56.0321 25.6494 55.3418C25.6207 55.2861 25.592 55.2304 25.5635 55.1748C25.4025 54.8606 25.2442 54.548 25.0898 54.2363C25.0676 54.1915 25.0465 54.1463 25.0244 54.1016C24.6891 53.4214 24.369 52.7478 24.0654 52.0811C24.039 52.023 24.0125 51.9651 23.9863 51.9072C23.851 51.6078 23.7186 51.31 23.5898 51.0137C23.563 50.9519 23.5373 50.8898 23.5107 50.8281C23.3902 50.5483 23.2719 50.2701 23.1572 49.9932C23.1137 49.888 23.072 49.7825 23.0293 49.6777C22.9332 49.442 22.8378 49.2081 22.7461 48.9746C22.6949 48.8442 22.6456 48.7137 22.5957 48.584C22.5118 48.3656 22.4287 48.1488 22.3486 47.9326C22.3162 47.845 22.2847 47.7572 22.2529 47.6699C22.1574 47.4078 22.0643 47.1475 21.9746 46.8887C21.9567 46.8369 21.9396 46.785 21.9219 46.7334C21.828 46.4594 21.7357 46.188 21.6484 45.918C21.6086 45.7947 21.5717 45.6712 21.5332 45.5488C21.4721 45.3542 21.4111 45.1612 21.3535 44.9688C21.3093 44.8211 21.2677 44.6737 21.2256 44.5273C21.1792 44.3662 21.1326 44.2063 21.0889 44.0469C21.0436 43.8821 21.0015 43.7177 20.959 43.5547C20.9176 43.3961 20.8756 43.2389 20.8369 43.082C20.8074 42.9625 20.7809 42.843 20.7529 42.7246C20.7083 42.5355 20.6628 42.3485 20.6221 42.1621C20.5907 42.0189 20.5632 41.8759 20.5342 41.7344C20.5033 41.5835 20.4716 41.4341 20.4434 41.2852C20.4097 41.1075 20.3805 40.9307 20.3506 40.7559C20.3303 40.6369 20.3086 40.519 20.29 40.4014C20.2723 40.2892 20.2573 40.1774 20.2412 40.0664C20.2153 39.8876 20.1887 39.7108 20.167 39.5352C20.107 39.0512 20.0628 38.5796 20.0352 38.1211C20.0157 37.7984 20.0042 37.4822 20.001 37.1729V36.7617C20.0088 36.1781 20.0489 35.6202 20.1182 35.0898C20.1221 35.0599 20.1248 35.0298 20.1289 35L20.9971 35.0898C21.091 35.1001 21.1846 35.1114 21.2783 35.1221C21.4061 35.1366 21.5337 35.1517 21.6611 35.167C22.0243 35.2105 22.3861 35.2556 22.7461 35.3047C22.8237 35.3153 22.9011 35.3271 22.9785 35.3379C23.2952 35.3822 23.6106 35.429 23.9248 35.4775C24.0372 35.4949 24.1496 35.5114 24.2617 35.5293C24.6437 35.5902 25.024 35.6536 25.4023 35.7207C25.4284 35.7253 25.4544 35.7307 25.4805 35.7354C25.8697 35.8049 26.2572 35.8772 26.6426 35.9531C26.6787 35.9602 26.7149 35.9674 26.751 35.9746C27.1456 36.053 27.5382 36.1347 27.9287 36.2197C27.9868 36.2324 28.0446 36.246 28.1025 36.2588C28.4525 36.3359 28.8008 36.4157 29.1475 36.498C29.1926 36.5088 29.2381 36.5185 29.2832 36.5293C29.6701 36.6221 30.0547 36.7193 30.4375 36.8184C30.4808 36.8296 30.5242 36.8403 30.5674 36.8516C31.231 37.0248 31.8887 37.2067 32.54 37.3984L32.9463 37.5195C32.9737 37.5278 33.0009 37.5366 33.0283 37.5449C33.3899 37.6544 33.7497 37.7659 34.1074 37.8809C34.1214 37.8854 34.1354 37.89 34.1494 37.8945L34.8623 38.1289C34.9726 38.1658 35.0824 38.2038 35.1924 38.2412C35.2702 38.2677 35.3482 38.2936 35.4258 38.3203C36.1533 38.571 36.8726 38.8336 37.584 39.1064C37.6332 39.1253 37.6823 39.1441 37.7314 39.1631C51.9261 44.6445 62.9025 54.4227 70.7617 64.3496C81.5001 58.7446 93.4999 57.5 101.305 57.5C112.662 57.8292 121.331 60.2728 127.923 63.6514C135.291 54.523 145.303 45.6024 158.035 40.125C158.023 40.1056 158.012 40.0858 158 40.0664C164.003 37.4999 170.609 35.6984 177.825 35C177.826 35.0058 177.826 35.0117 177.827 35.0176C177.885 35.0119 177.942 35.0056 178 35ZM74.7119 10.8281C75.5046 11.1397 85.2935 23.1588 90.0889 29.1299L79.7354 30.7812L83.4727 43.0938L68.0098 26.4697L78.3623 24.8184L74.7119 10.8281Z"/>
</mask>
<path d="M176.188 151.468L189.556 155.442L166.272 174.683L173.34 159.093L159.973 155.117C167.335 148.074 182.333 133.92 183.432 133.648L176.188 151.468ZM178 35C179.53 46.0938 167.304 69.4795 147.592 86.3486C149.351 93.0508 147.839 103.646 149.805 112C150.496 113.245 151.024 114.575 151.406 115.97C151.438 115.98 151.469 115.989 151.5 116C155 131 146.5 144 142.5 148C142.447 148 142.394 147.997 142.339 147.995C139.349 151.912 135.898 155.237 132.305 157.5C121.505 164.3 107.138 165.667 101.305 165.5C96.9713 166 84.6046 165.1 69.8047 157.5C64.251 153.728 59.9072 149.844 56.5391 145.999C56.526 145.999 56.513 146 56.5 146C52.5189 143.014 42.1001 132.104 46.4385 116.227C46.768 114.527 47.2559 113.098 47.8047 112C51.3047 105 48.8047 95 50.3047 87.5C50.4302 87.1564 50.5587 86.8165 50.6904 86.4805C41.2232 78.4109 33.4741 68.8318 28.1299 59.8164C28.0948 59.7572 28.0603 59.6978 28.0254 59.6387C27.6051 58.926 27.1994 58.2172 26.8096 57.5127C26.794 57.4846 26.7782 57.4568 26.7627 57.4287C26.3761 56.7281 26.0051 56.0321 25.6494 55.3418C25.6207 55.2861 25.592 55.2304 25.5635 55.1748C25.4025 54.8606 25.2442 54.548 25.0898 54.2363C25.0676 54.1915 25.0465 54.1463 25.0244 54.1016C24.6891 53.4214 24.369 52.7478 24.0654 52.0811C24.039 52.023 24.0125 51.9651 23.9863 51.9072C23.851 51.6078 23.7186 51.31 23.5898 51.0137C23.563 50.9519 23.5373 50.8898 23.5107 50.8281C23.3902 50.5483 23.2719 50.2701 23.1572 49.9932C23.1137 49.888 23.072 49.7825 23.0293 49.6777C22.9332 49.442 22.8378 49.2081 22.7461 48.9746C22.6949 48.8442 22.6456 48.7137 22.5957 48.584C22.5118 48.3656 22.4287 48.1488 22.3486 47.9326C22.3162 47.845 22.2847 47.7572 22.2529 47.6699C22.1574 47.4078 22.0643 47.1475 21.9746 46.8887C21.9567 46.8369 21.9396 46.785 21.9219 46.7334C21.828 46.4594 21.7357 46.188 21.6484 45.918C21.6086 45.7947 21.5717 45.6712 21.5332 45.5488C21.4721 45.3542 21.4111 45.1612 21.3535 44.9688C21.3093 44.8211 21.2677 44.6737 21.2256 44.5273C21.1792 44.3662 21.1326 44.2063 21.0889 44.0469C21.0436 43.8821 21.0015 43.7177 20.959 43.5547C20.9176 43.3961 20.8756 43.2389 20.8369 43.082C20.8074 42.9625 20.7809 42.843 20.7529 42.7246C20.7083 42.5355 20.6628 42.3485 20.6221 42.1621C20.5907 42.0189 20.5632 41.8759 20.5342 41.7344C20.5033 41.5835 20.4716 41.4341 20.4434 41.2852C20.4097 41.1075 20.3805 40.9307 20.3506 40.7559C20.3303 40.6369 20.3086 40.519 20.29 40.4014C20.2723 40.2892 20.2573 40.1774 20.2412 40.0664C20.2153 39.8876 20.1887 39.7108 20.167 39.5352C20.107 39.0512 20.0628 38.5796 20.0352 38.1211C20.0157 37.7984 20.0042 37.4822 20.001 37.1729V36.7617C20.0088 36.1781 20.0489 35.6202 20.1182 35.0898C20.1221 35.0599 20.1248 35.0298 20.1289 35L20.9971 35.0898C21.091 35.1001 21.1846 35.1114 21.2783 35.1221C21.4061 35.1366 21.5337 35.1517 21.6611 35.167C22.0243 35.2105 22.3861 35.2556 22.7461 35.3047C22.8237 35.3153 22.9011 35.3271 22.9785 35.3379C23.2952 35.3822 23.6106 35.429 23.9248 35.4775C24.0372 35.4949 24.1496 35.5114 24.2617 35.5293C24.6437 35.5902 25.024 35.6536 25.4023 35.7207C25.4284 35.7253 25.4544 35.7307 25.4805 35.7354C25.8697 35.8049 26.2572 35.8772 26.6426 35.9531C26.6787 35.9602 26.7149 35.9674 26.751 35.9746C27.1456 36.053 27.5382 36.1347 27.9287 36.2197C27.9868 36.2324 28.0446 36.246 28.1025 36.2588C28.4525 36.3359 28.8008 36.4157 29.1475 36.498C29.1926 36.5088 29.2381 36.5185 29.2832 36.5293C29.6701 36.6221 30.0547 36.7193 30.4375 36.8184C30.4808 36.8296 30.5242 36.8403 30.5674 36.8516C31.231 37.0248 31.8887 37.2067 32.54 37.3984L32.9463 37.5195C32.9737 37.5278 33.0009 37.5366 33.0283 37.5449C33.3899 37.6544 33.7497 37.7659 34.1074 37.8809C34.1214 37.8854 34.1354 37.89 34.1494 37.8945L34.8623 38.1289C34.9726 38.1658 35.0824 38.2038 35.1924 38.2412C35.2702 38.2677 35.3482 38.2936 35.4258 38.3203C36.1533 38.571 36.8726 38.8336 37.584 39.1064C37.6332 39.1253 37.6823 39.1441 37.7314 39.1631C51.9261 44.6445 62.9025 54.4227 70.7617 64.3496C81.5001 58.7446 93.4999 57.5 101.305 57.5C112.662 57.8292 121.331 60.2728 127.923 63.6514C135.291 54.523 145.303 45.6024 158.035 40.125C158.023 40.1056 158.012 40.0858 158 40.0664C164.003 37.4999 170.609 35.6984 177.825 35C177.826 35.0058 177.826 35.0117 177.827 35.0176C177.885 35.0119 177.942 35.0056 178 35ZM74.7119 10.8281C75.5046 11.1397 85.2935 23.1588 90.0889 29.1299L79.7354 30.7812L83.4727 43.0938L68.0098 26.4697L78.3623 24.8184L74.7119 10.8281Z" fill="#F8D076"/>
<path d="M176.188 151.468L170.629 149.208C169.992 150.776 170.046 152.54 170.779 154.066C171.512 155.591 172.855 156.737 174.478 157.219L176.188 151.468ZM189.556 155.442L193.378 160.068C195.086 158.656 195.877 156.417 195.435 154.246C194.993 152.074 193.39 150.323 191.266 149.691L189.556 155.442ZM166.272 174.683L160.808 172.205C159.655 174.749 160.409 177.752 162.627 179.449C164.846 181.145 167.942 181.087 170.094 179.308L166.272 174.683ZM173.34 159.093L178.805 161.57C179.52 159.991 179.518 158.18 178.799 156.602C178.079 155.025 176.712 153.836 175.05 153.342L173.34 159.093ZM159.973 155.117L155.825 150.782C154.28 152.26 153.638 154.448 154.141 156.526C154.643 158.605 156.213 160.259 158.262 160.868L159.973 155.117ZM183.432 133.648L188.99 135.908C189.84 133.817 189.445 131.427 187.967 129.721C186.49 128.015 184.18 127.282 181.99 127.824L183.432 133.648ZM178 35L183.944 34.1802C183.504 30.9914 180.626 28.7178 177.422 29.0279L178 35ZM147.592 86.3486L143.691 81.79C141.943 83.2852 141.205 85.6475 141.788 87.8718L147.592 86.3486ZM149.805 112L143.964 113.374C144.091 113.912 144.291 114.431 144.56 114.914L149.805 112ZM151.406 115.97L145.619 117.554C146.148 119.486 147.607 121.027 149.507 121.661L151.406 115.97ZM151.5 116L157.343 114.637C156.874 112.626 155.403 110.997 153.45 110.326L151.5 116ZM142.5 148V154C144.091 154 145.617 153.368 146.743 152.243L142.5 148ZM142.339 147.995L142.591 142C140.633 141.918 138.758 142.797 137.569 144.355L142.339 147.995ZM132.305 157.5L135.502 162.577L135.502 162.577L132.305 157.5ZM101.305 165.5L101.476 159.502C101.189 159.494 100.902 159.507 100.617 159.54L101.305 165.5ZM69.8047 157.5L66.4334 162.463C66.6357 162.601 66.8463 162.726 67.0639 162.837L69.8047 157.5ZM56.5391 145.999L61.0521 142.045C59.9016 140.732 58.236 139.985 56.49 139.999L56.5391 145.999ZM56.5 146L52.9 150.8C53.9386 151.579 55.2019 152 56.5002 152L56.5 146ZM46.4385 116.227L52.2263 117.808C52.266 117.663 52.3002 117.516 52.3288 117.368L46.4385 116.227ZM47.8047 112L53.1713 114.683L53.1713 114.683L47.8047 112ZM50.3047 87.5L44.6691 85.4408C44.5641 85.7282 44.4812 86.0233 44.4212 86.3233L50.3047 87.5ZM50.6904 86.4805L56.2762 88.6712C57.2108 86.2882 56.5307 83.5747 54.5826 81.9142L50.6904 86.4805ZM28.1299 59.8164L33.2912 56.7568L33.291 56.7566L28.1299 59.8164ZM28.0254 59.6387L22.8573 62.6867L22.8574 62.687L28.0254 59.6387ZM26.8096 57.5127L32.0595 54.6078L32.0593 54.6074L26.8096 57.5127ZM26.7627 57.4287L21.5096 60.3278L21.5098 60.3281L26.7627 57.4287ZM25.6494 55.3418L30.983 52.5935L30.9828 52.5931L25.6494 55.3418ZM25.5635 55.1748L20.2234 57.9105L20.2237 57.9109L25.5635 55.1748ZM25.0898 54.2363L30.4663 51.5729L30.4661 51.5724L25.0898 54.2363ZM25.0244 54.1016L19.6428 56.7544L19.643 56.7549L25.0244 54.1016ZM24.0654 52.0811L29.5262 49.595L29.5259 49.5945L24.0654 52.0811ZM23.9863 51.9072L18.5187 54.3782L18.519 54.3787L23.9863 51.9072ZM23.5898 51.0137L29.0928 48.6225L29.0926 48.622L23.5898 51.0137ZM23.5107 50.8281L18.0004 53.2023L18.0007 53.2028L23.5107 50.8281ZM23.1572 49.9932L28.7009 47.6979L28.7006 47.6974L23.1572 49.9932ZM23.0293 49.6777L17.473 51.9422L17.4733 51.9428L23.0293 49.6777ZM22.7461 48.9746L28.3307 46.7809L28.3305 46.7803L22.7461 48.9746ZM22.5957 48.584L16.9953 50.7371L16.9956 50.7377L22.5957 48.584ZM22.3486 47.9326L27.9754 45.8496L27.9752 45.849L22.3486 47.9326ZM22.2529 47.6699L16.6154 49.7238L16.6156 49.7244L22.2529 47.6699ZM21.9746 46.8887L27.644 44.9246L27.6438 44.924L21.9746 46.8887ZM21.9219 46.7334L16.2461 48.6791L16.2463 48.6797L21.9219 46.7334ZM21.6484 45.918L27.3577 44.0729L27.3575 44.0722L21.6484 45.918ZM21.5332 45.5488L15.8088 47.3464L15.809 47.347L21.5332 45.5488ZM21.3535 44.9688L27.1018 43.2489L27.1016 43.2483L21.3535 44.9688ZM21.2256 44.5273L15.4593 46.1855L15.4594 46.1861L21.2256 44.5273ZM21.0889 44.0469L26.8749 42.4587L26.8747 42.4581L21.0889 44.0469ZM20.959 43.5547L15.153 45.0681L15.1532 45.0688L20.959 43.5547ZM20.8369 43.082L26.662 41.6438L26.6618 41.6432L20.8369 43.082ZM20.7529 42.7246L14.9136 44.1038L14.9137 44.1044L20.7529 42.7246ZM20.6221 42.1621L26.4836 40.8805L26.4835 40.8799L20.6221 42.1621ZM20.5342 41.7344L14.6562 42.9381L14.6563 42.9387L20.5342 41.7344ZM20.4434 41.2852L26.3383 40.1674L26.3382 40.1668L20.4434 41.2852ZM20.3506 40.7559L14.4364 41.7669L14.4365 41.7674L20.3506 40.7559ZM20.29 40.4014L26.2166 39.4658L26.2166 39.4652L20.29 40.4014ZM20.2412 40.0664L14.3034 40.9279L14.3035 40.9284L20.2412 40.0664ZM20.167 39.5352L26.1215 38.7979L26.1215 38.7974L20.167 39.5352ZM20.0352 38.1211L14.046 38.4823L14.0461 38.4827L20.0352 38.1211ZM20.001 37.1729H14.001C14.001 37.1939 14.0011 37.2149 14.0013 37.2359L20.001 37.1729ZM20.001 36.7617L14.0015 36.6816C14.0012 36.7083 14.001 36.735 14.001 36.7617L20.001 36.7617ZM20.1182 35.0898L14.1686 34.3134L14.1686 34.3134L20.1182 35.0898ZM20.1289 35L20.7465 29.0319C17.5293 28.6989 14.6271 30.9761 14.1852 34.1802L20.1289 35ZM20.9971 35.0898L21.6516 29.1257C21.6393 29.1243 21.627 29.123 21.6147 29.1217L20.9971 35.0898ZM21.2783 35.1221L21.9578 29.1607L21.9578 29.1607L21.2783 35.1221ZM21.6611 35.167L20.9477 41.1244L20.9478 41.1244L21.6611 35.167ZM22.7461 35.3047L23.556 29.3596L23.556 29.3596L22.7461 35.3047ZM22.9785 35.3379L22.1478 41.2801L22.1479 41.2801L22.9785 35.3379ZM23.9248 35.4775L24.8402 29.5478L24.84 29.5478L23.9248 35.4775ZM24.2617 35.5293L23.3162 41.4543L23.3163 41.4543L24.2617 35.5293ZM25.4023 35.7207L26.4504 29.813L26.4503 29.8129L25.4023 35.7207ZM25.4805 35.7354L24.4253 41.6418L24.4255 41.6419L25.4805 35.7354ZM26.6426 35.9531L27.8025 30.0663L27.8023 30.0663L26.6426 35.9531ZM26.751 35.9746L25.5812 41.8595L25.5814 41.8595L26.751 35.9746ZM27.9287 36.2197L29.205 30.357L29.2048 30.357L27.9287 36.2197ZM28.1025 36.2588L26.8105 42.118L26.8107 42.1181L28.1025 36.2588ZM29.1475 36.498L30.5341 30.6605L30.5339 30.6604L29.1475 36.498ZM29.2832 36.5293L27.8842 42.3639L27.8844 42.364L29.2832 36.5293ZM30.4375 36.8184L31.9411 31.0098L31.9409 31.0098L30.4375 36.8184ZM30.5674 36.8516L29.052 42.657L29.0522 42.6571L30.5674 36.8516ZM32.54 37.3984L34.254 31.6484C34.2473 31.6465 34.2407 31.6445 34.234 31.6425L32.54 37.3984ZM32.9463 37.5195L34.6772 31.7746C34.6716 31.7729 34.6659 31.7712 34.6602 31.7695L32.9463 37.5195ZM33.0283 37.5449L31.2899 43.2876L31.2901 43.2876L33.0283 37.5449ZM34.1074 37.8809L35.9434 32.1686L35.9432 32.1686L34.1074 37.8809ZM34.1494 37.8945L36.0233 32.1947C36.012 32.1909 36.0006 32.1872 35.9891 32.1835L34.1494 37.8945ZM34.8623 38.1289L36.7662 32.439C36.7562 32.4356 36.7462 32.4323 36.7362 32.429L34.8623 38.1289ZM35.1924 38.2412L37.1262 32.5614L37.126 32.5613L35.1924 38.2412ZM35.4258 38.3203L33.471 43.9929L33.4711 43.993L35.4258 38.3203ZM37.584 39.1064L39.7323 33.5042L39.7322 33.5042L37.584 39.1064ZM37.7314 39.1631L35.57 44.7602L35.57 44.7603L37.7314 39.1631ZM70.7617 64.3496L66.0575 68.0739C67.8452 70.3319 70.985 71.0012 73.538 69.6686L70.7617 64.3496ZM101.305 57.5L101.479 51.5025C101.421 51.5008 101.363 51.5 101.305 51.5L101.305 57.5ZM127.923 63.6514L125.186 68.9908C127.715 70.2871 130.807 69.6313 132.592 67.4199L127.923 63.6514ZM158.035 40.125L160.406 45.6366C162.004 44.9491 163.226 43.6017 163.753 41.9437C164.28 40.2857 164.062 38.4804 163.155 36.9959L158.035 40.125ZM158 40.0664L155.641 34.5495C154.038 35.2348 152.813 36.5834 152.283 38.2444C151.754 39.9054 151.973 41.7145 152.884 43.201L158 40.0664ZM177.825 35L183.769 34.1802C183.329 30.9914 180.451 28.7178 177.247 29.0279L177.825 35ZM177.827 35.0176L171.882 35.8289C172.319 39.0275 175.208 41.3073 178.42 40.9882L177.827 35.0176ZM74.7119 10.8281L76.907 5.24409C74.8057 4.41806 72.4186 4.84159 70.7298 6.34007C69.0409 7.83856 68.3363 10.1583 68.9063 12.343L74.7119 10.8281ZM90.0889 29.1299L91.0339 35.055C93.1453 34.7182 94.918 33.2833 95.6871 31.2884C96.4563 29.2935 96.1058 27.04 94.767 25.3729L90.0889 29.1299ZM79.7354 30.7812L78.7903 24.8561C77.0782 25.1292 75.5679 26.1295 74.6485 27.5994C73.7291 29.0693 73.4904 30.865 73.994 32.524L79.7354 30.7812ZM83.4727 43.0938L79.0794 47.1802C80.9815 49.2252 84.0432 49.6873 86.4642 48.2948C88.8851 46.9023 90.0252 44.0235 89.214 41.351L83.4727 43.0938ZM68.0098 26.4697L67.0646 20.5446C64.8763 20.8937 63.0585 22.4206 62.3368 24.5159C61.6152 26.6111 62.1072 28.9335 63.6165 30.5562L68.0098 26.4697ZM78.3623 24.8184L79.3074 30.7435C80.9787 30.4769 82.4597 29.5168 83.3854 28.0999C84.311 26.6831 84.5952 24.9411 84.1679 23.3035L78.3623 24.8184ZM176.188 151.468L174.478 157.219L187.846 161.194L189.556 155.442L191.266 149.691L177.897 145.717L176.188 151.468ZM189.556 155.442L185.734 150.817L162.45 170.057L166.272 174.683L170.094 179.308L193.378 160.068L189.556 155.442ZM166.272 174.683L171.737 177.16L178.805 161.57L173.34 159.093L167.875 156.615L160.808 172.205L166.272 174.683ZM173.34 159.093L175.05 153.342L161.683 149.366L159.973 155.117L158.262 160.868L171.629 164.844L173.34 159.093ZM159.973 155.117L164.12 159.453C167.788 155.944 173.353 150.669 178.128 146.245C180.521 144.029 182.685 142.055 184.303 140.631C185.119 139.912 185.747 139.377 186.175 139.032C186.278 138.949 186.359 138.885 186.42 138.838C186.484 138.79 186.511 138.771 186.508 138.773C186.505 138.775 186.486 138.788 186.453 138.81C186.422 138.83 186.363 138.868 186.28 138.915C186.247 138.934 185.693 139.27 184.873 139.473L183.432 133.648L181.99 127.824C181.102 128.044 180.452 128.424 180.298 128.513C180.025 128.669 179.792 128.826 179.629 128.941C179.295 129.174 178.954 129.44 178.645 129.688C178.014 130.197 177.233 130.867 176.373 131.624C174.64 133.15 172.388 135.205 169.974 137.442C165.135 141.924 159.52 147.247 155.825 150.782L159.973 155.117ZM183.432 133.648L177.873 131.389L170.629 149.208L176.188 151.468L181.746 153.727L188.99 135.908L183.432 133.648ZM178 35L172.056 35.8198C172.271 37.3735 172.044 39.9603 170.933 43.5623C169.85 47.0726 168.047 51.1581 165.55 55.5355C160.552 64.2966 153.005 73.8188 143.691 81.79L147.592 86.3486L151.493 90.9072C161.89 82.0093 170.313 71.4041 175.973 61.4817C178.805 56.5172 181.005 51.6219 182.4 47.1001C183.766 42.67 184.495 38.1734 183.944 34.1802L178 35ZM147.592 86.3486L141.788 87.8718C142.444 90.3716 142.529 93.8592 142.622 98.6709C142.707 103.081 142.81 108.469 143.964 113.374L149.805 112L155.645 110.626C154.834 107.177 154.71 103.09 154.62 98.4389C154.537 94.1889 154.498 89.0278 153.395 84.8255L147.592 86.3486ZM149.805 112L144.56 114.914C144.999 115.704 145.353 116.582 145.619 117.554L151.406 115.97L157.193 114.386C156.696 112.567 155.994 110.785 155.05 109.086L149.805 112ZM151.406 115.97L149.507 121.661C149.55 121.676 149.586 121.687 149.609 121.694C149.62 121.698 149.63 121.701 149.637 121.703C149.64 121.704 149.643 121.705 149.645 121.706C149.648 121.707 149.649 121.707 149.65 121.707C149.652 121.708 149.651 121.708 149.648 121.707C149.645 121.706 149.639 121.704 149.63 121.701C149.614 121.696 149.586 121.687 149.55 121.674L151.5 116L153.45 110.326C153.399 110.308 153.355 110.294 153.323 110.283C153.293 110.274 153.267 110.265 153.257 110.262C153.24 110.257 153.247 110.259 153.251 110.26C153.258 110.263 153.278 110.269 153.305 110.278L151.406 115.97ZM151.5 116L145.657 117.363C147.066 123.402 146.089 129.146 144.22 133.95C142.323 138.828 139.648 142.367 138.257 143.757L142.5 148L146.743 152.243C149.352 149.633 152.926 144.672 155.404 138.3C157.911 131.854 159.434 123.598 157.343 114.637L151.5 116ZM142.5 148V142C142.569 142 142.617 142.002 142.629 142.002C142.635 142.002 142.637 142.002 142.63 142.002C142.626 142.002 142.622 142.002 142.615 142.001C142.609 142.001 142.6 142.001 142.591 142L142.339 147.995L142.087 153.99C142.09 153.99 142.156 153.993 142.212 153.995C142.277 153.997 142.379 154 142.5 154V148ZM142.339 147.995L137.569 144.355C134.909 147.84 131.965 150.624 129.108 152.423L132.305 157.5L135.502 162.577C139.831 159.851 143.789 155.984 147.108 151.635L142.339 147.995ZM132.305 157.5L129.108 152.423C119.714 158.337 106.702 159.652 101.476 159.502L101.305 165.5L101.133 171.498C107.574 171.682 123.295 170.263 135.502 162.577L132.305 157.5ZM101.305 165.5L100.617 159.54C97.6267 159.885 86.4463 159.301 72.5455 152.163L69.8047 157.5L67.0639 162.837C82.763 170.899 96.316 172.115 101.992 171.46L101.305 165.5ZM69.8047 157.5L73.176 152.537C68.0038 149.023 64.0534 145.471 61.0521 142.045L56.5391 145.999L52.026 149.953C55.7611 154.216 60.4982 158.432 66.4334 162.463L69.8047 157.5ZM56.5391 145.999L56.49 139.999C56.4594 139.999 56.4321 140 56.4092 140C56.3864 140.001 56.3668 140.001 56.3517 140.002C56.3369 140.002 56.3247 140.003 56.3176 140.003C56.314 140.003 56.311 140.003 56.3094 140.003C56.3085 140.003 56.3078 140.003 56.3074 140.003C56.307 140.003 56.3069 140.003 56.3069 140.003C56.307 140.003 56.3084 140.003 56.3104 140.003C56.3125 140.003 56.3157 140.003 56.3197 140.003C56.3277 140.003 56.3403 140.002 56.3561 140.002C56.372 140.001 56.3923 140.001 56.4161 140.001C56.4399 140 56.4681 140 56.4998 140L56.5 146L56.5002 152C56.5691 152 56.626 151.999 56.6634 151.998C56.6988 151.997 56.728 151.996 56.732 151.996C56.7376 151.996 56.7334 151.996 56.7311 151.996C56.7273 151.996 56.7184 151.996 56.7068 151.997C56.6842 151.997 56.6418 151.998 56.5881 151.999L56.5391 145.999ZM56.5 146L60.1 141.2C56.933 138.825 48.848 130.172 52.2263 117.808L46.4385 116.227L40.6506 114.645C35.3522 134.036 48.1047 147.204 52.9 150.8L56.5 146ZM46.4385 116.227L52.3288 117.368C52.5718 116.115 52.9037 115.218 53.1713 114.683L47.8047 112L42.4381 109.317C41.6081 110.977 40.9642 112.939 40.5481 115.085L46.4385 116.227ZM47.8047 112L53.1713 114.683C55.6158 109.794 55.8047 104.248 55.8047 99.9375C55.8047 95.0619 55.5918 91.6588 56.1882 88.6767L50.3047 87.5L44.4212 86.3233C43.5176 90.8412 43.8047 96.1881 43.8047 99.9375C43.8047 104.252 43.4936 107.206 42.4381 109.317L47.8047 112ZM50.3047 87.5L55.9403 89.5592C56.051 89.2561 56.1629 88.9602 56.2762 88.6712L50.6904 86.4805L45.1047 84.2897C44.9545 84.6727 44.8095 85.0567 44.6691 85.4408L50.3047 87.5ZM50.6904 86.4805L54.5826 81.9142C45.6402 74.2919 38.313 65.2284 33.2912 56.7568L28.1299 59.8164L22.9686 62.876C28.6351 72.4351 36.8063 82.5299 46.7982 91.0467L50.6904 86.4805ZM28.1299 59.8164L33.291 56.7566C33.2471 56.6825 33.2681 56.7172 33.1934 56.5904L28.0254 59.6387L22.8574 62.687C22.8696 62.7076 22.8815 62.7279 22.9013 62.7618C22.9191 62.7921 22.943 62.8328 22.9687 62.8762L28.1299 59.8164ZM28.0254 59.6387L33.1935 56.5907C32.7992 55.9221 32.421 55.2611 32.0595 54.6078L26.8096 57.5127L21.5597 60.4176C21.9778 61.1733 22.4109 61.9298 22.8573 62.6867L28.0254 59.6387ZM26.8096 57.5127L32.0593 54.6074C32.0416 54.5755 32.0248 54.5456 32.0192 54.5356C32.0105 54.5201 32.0121 54.523 32.0156 54.5293L26.7627 57.4287L21.5098 60.3281C21.5287 60.3625 21.5461 60.3934 21.553 60.4058C21.5631 60.4237 21.562 60.4218 21.5599 60.418L26.8096 57.5127ZM26.7627 57.4287L32.0158 54.5296C31.657 53.8795 31.3129 53.2338 30.983 52.5935L25.6494 55.3418L20.3158 58.0901C20.6973 58.8304 21.0951 59.5768 21.5096 60.3278L26.7627 57.4287ZM25.6494 55.3418L30.9828 52.5931C30.9519 52.5331 30.9277 52.4862 30.9033 52.4387L25.5635 55.1748L20.2237 57.9109C20.2563 57.9747 20.2895 58.039 20.3161 58.0905L25.6494 55.3418ZM25.5635 55.1748L30.9035 52.4391C30.7509 52.1412 30.6054 51.8537 30.4663 51.5729L25.0898 54.2363L19.7134 56.8998C19.8831 57.2423 20.0542 57.5801 20.2234 57.9105L25.5635 55.1748ZM25.0898 54.2363L30.4661 51.5724C30.4725 51.5854 30.4759 51.5926 30.4638 51.5675C30.4595 51.5586 30.4508 51.5405 30.4419 51.5221C30.4325 51.5027 30.4201 51.4772 30.4058 51.4482L25.0244 54.1016L19.643 56.7549C19.6387 56.7462 19.6361 56.7408 19.6504 56.7703C19.66 56.7903 19.685 56.8424 19.7136 56.9002L25.0898 54.2363ZM25.0244 54.1016L30.4061 51.4487C30.0956 50.8188 29.802 50.2009 29.5262 49.595L24.0654 52.0811L18.6047 54.5671C18.9359 55.2947 19.2827 56.024 19.6428 56.7544L25.0244 54.1016ZM24.0654 52.0811L29.5259 49.5945C29.4928 49.5219 29.4754 49.4838 29.4537 49.4358L23.9863 51.9072L18.519 54.3787C18.5496 54.4464 18.5852 54.5242 18.6049 54.5676L24.0654 52.0811ZM23.9863 51.9072L29.4539 49.4363C29.3284 49.1586 29.2081 48.8878 29.0928 48.6225L23.5898 51.0137L18.0869 53.4048C18.2292 53.7323 18.3736 54.057 18.5187 54.3782L23.9863 51.9072ZM23.5898 51.0137L29.0926 48.622C29.0929 48.6227 29.0919 48.6206 29.089 48.6138C29.086 48.6066 29.0822 48.5977 29.076 48.583C29.0661 48.5596 29.0439 48.507 29.0208 48.4534L23.5107 50.8281L18.0007 53.2028C18.0042 53.2109 18.0081 53.2202 18.0244 53.2587C18.0374 53.2894 18.0608 53.3447 18.0871 53.4053L23.5898 51.0137ZM23.5107 50.8281L29.0211 48.454C28.9076 48.1907 28.8012 47.9403 28.7009 47.6979L23.1572 49.9932L17.6136 52.2884C17.7426 52.5999 17.8727 52.9058 18.0004 53.2023L23.5107 50.8281ZM23.1572 49.9932L28.7006 47.6974C28.6563 47.5902 28.6703 47.6211 28.5853 47.4127L23.0293 49.6777L17.4733 51.9428C17.4737 51.9438 17.5711 52.1858 17.6138 52.289L23.1572 49.9932ZM23.0293 49.6777L28.5856 47.4132C28.4863 47.1697 28.4059 46.9723 28.3307 46.7809L22.7461 48.9746L17.1615 51.1683C17.2697 51.4438 17.3801 51.7143 17.473 51.9422L23.0293 49.6777ZM22.7461 48.9746L28.3305 46.7803C28.2892 46.6752 28.2641 46.6078 28.1958 46.4303L22.5957 48.584L16.9956 50.7377C17.027 50.8195 17.1005 51.0132 17.1617 51.1689L22.7461 48.9746ZM22.5957 48.584L28.1961 46.4309C28.1121 46.2124 28.0411 46.0269 27.9754 45.8496L22.3486 47.9326L16.7218 50.0156C16.8162 50.2707 16.9115 50.5189 16.9953 50.7371L22.5957 48.584ZM22.3486 47.9326L27.9752 45.849C27.9488 45.7775 27.9384 45.7476 27.8902 45.6154L22.2529 47.6699L16.6156 49.7244C16.6311 49.7669 16.6836 49.9124 16.722 50.0162L22.3486 47.9326ZM22.2529 47.6699L27.8904 45.616C27.8024 45.3744 27.7205 45.1453 27.644 44.9246L21.9746 46.8887L16.3052 48.8528C16.408 49.1497 16.5124 49.4411 16.6154 49.7238L22.2529 47.6699ZM21.9746 46.8887L27.6438 44.924C27.644 44.9245 27.6424 44.9199 27.6338 44.8945C27.6276 44.876 27.6127 44.8316 27.5974 44.7871L21.9219 46.7334L16.2463 48.6797C16.2488 48.6868 16.2512 48.6942 16.2625 48.7275C16.2714 48.7539 16.2873 48.8011 16.3054 48.8534L21.9746 46.8887ZM21.9219 46.7334L27.5976 44.7877C27.5056 44.5191 27.4277 44.2895 27.3577 44.0729L21.6484 45.918L15.9392 47.7631C16.0437 48.0864 16.1504 48.3997 16.2461 48.6791L21.9219 46.7334ZM21.6484 45.918L27.3575 44.0722C27.3211 43.9597 27.3353 43.9987 27.2574 43.7506L21.5332 45.5488L15.809 47.347C15.8225 47.39 15.8335 47.4261 15.8576 47.5039C15.8782 47.5707 15.9069 47.6631 15.9394 47.7637L21.6484 45.918ZM21.5332 45.5488L27.2576 43.7512C27.1909 43.539 27.1448 43.3928 27.1018 43.2489L21.3535 44.9688L15.6053 46.6886C15.6774 46.9295 15.7532 47.1694 15.8088 47.3464L21.5332 45.5488ZM21.3535 44.9688L27.1016 43.2483C27.0696 43.1416 27.0444 43.0518 26.9917 42.8686L21.2256 44.5273L15.4594 46.1861C15.4909 46.2955 15.549 46.5005 15.6055 46.6892L21.3535 44.9688ZM21.2256 44.5273L26.9919 42.8692C26.9371 42.6785 26.906 42.5723 26.8749 42.4587L21.0889 44.0469L15.3029 45.6351C15.3592 45.8404 15.4214 46.0539 15.4593 46.1855L21.2256 44.5273ZM21.0889 44.0469L26.8747 42.4581C26.8429 42.3423 26.816 42.2371 26.7648 42.0406L20.959 43.5547L15.1532 45.0688C15.1869 45.1983 15.2443 45.4219 15.303 45.6357L21.0889 44.0469ZM20.959 43.5547L26.765 42.0412C26.7113 41.8352 26.6883 41.7504 26.662 41.6438L20.8369 43.082L15.0118 44.5203C15.063 44.7273 15.124 44.9569 15.153 45.0681L20.959 43.5547ZM20.8369 43.082L26.6618 41.6432C26.6383 41.548 26.6493 41.5867 26.5921 41.3448L20.7529 42.7246L14.9137 44.1044C14.9237 44.1464 14.9306 44.1771 14.9491 44.2568C14.9645 44.3235 14.9865 44.4176 15.012 44.5209L20.8369 43.082ZM20.7529 42.7246L26.5923 41.3454C26.5356 41.1053 26.5102 41.0021 26.4836 40.8805L20.6221 42.1621L14.7606 43.4437C14.8155 43.6949 14.881 43.9657 14.9136 44.1038L20.7529 42.7246ZM20.6221 42.1621L26.4835 40.8799C26.4627 40.7849 26.4605 40.7663 26.4121 40.5301L20.5342 41.7344L14.6563 42.9387C14.6659 42.9856 14.7188 43.2529 14.7607 43.4443L20.6221 42.1621ZM20.5342 41.7344L26.4122 40.5306C26.37 40.3248 26.3557 40.2589 26.3383 40.1674L20.4434 41.2852L14.5484 42.4029C14.5875 42.6092 14.6365 42.8423 14.6562 42.9381L20.5342 41.7344ZM20.4434 41.2852L26.3382 40.1668C26.3178 40.0591 26.3027 39.9663 26.2647 39.7443L20.3506 40.7559L14.4365 41.7674C14.4583 41.8952 14.5015 42.1559 14.5485 42.4035L20.4434 41.2852ZM20.3506 40.7559L26.2648 39.7449C26.227 39.5238 26.2281 39.5385 26.2166 39.4658L20.29 40.4014L14.3634 41.337C14.3891 41.4995 14.4335 41.75 14.4364 41.7669L20.3506 40.7559ZM20.29 40.4014L26.2166 39.4652C26.2061 39.3992 26.2079 39.4039 26.179 39.2044L20.2412 40.0664L14.3035 40.9284C14.3067 40.9508 14.3385 41.1792 14.3635 41.3375L20.29 40.4014ZM20.2412 40.0664L26.179 39.2049C26.147 38.984 26.1334 38.8934 26.1215 38.7979L20.167 39.5352L14.2125 40.2724C14.2441 40.5281 14.2835 40.7912 14.3034 40.9279L20.2412 40.0664ZM20.167 39.5352L26.1215 38.7974C26.0757 38.428 26.0437 38.0822 26.0242 37.7595L20.0352 38.1211L14.0461 38.4827C14.0819 39.077 14.1384 39.6744 14.2125 40.2729L20.167 39.5352ZM20.0352 38.1211L26.0243 37.7599C26.0105 37.5307 26.0028 37.3141 26.0006 37.1098L20.001 37.1729L14.0013 37.2359C14.0057 37.6503 14.0209 38.0661 14.046 38.4823L20.0352 38.1211ZM20.001 37.1729H26.001V36.7617H20.001H14.001V37.1729H20.001ZM20.001 36.7617L26.0004 36.8419C26.0052 36.4821 26.0298 36.157 26.0677 35.8662L20.1182 35.0898L14.1686 34.3134C14.0681 35.0834 14.0123 35.874 14.0015 36.6816L20.001 36.7617ZM20.1182 35.0898L26.0677 35.8663C26.0737 35.8206 26.0782 35.7826 26.081 35.7582C26.0824 35.7458 26.0836 35.7352 26.0844 35.7282C26.0848 35.7246 26.0852 35.7215 26.0854 35.7192C26.0858 35.7164 26.0858 35.7158 26.086 35.7143C26.0863 35.7119 26.0861 35.7134 26.0858 35.7164C26.0854 35.7197 26.0846 35.7261 26.0836 35.7347C26.0816 35.7515 26.0779 35.7815 26.0726 35.8198L20.1289 35L14.1852 34.1802C14.1778 34.2334 14.1723 34.2783 14.1685 34.31C14.1648 34.3406 14.1619 34.3664 14.1609 34.3754C14.1592 34.3905 14.1601 34.3828 14.1608 34.3765C14.1619 34.3671 14.1646 34.3441 14.1686 34.3134L20.1182 35.0898ZM20.1289 35L19.5113 40.9681L20.3794 41.058L20.9971 35.0898L21.6147 29.1217L20.7465 29.0319L20.1289 35ZM20.9971 35.0898L20.3425 41.054C20.427 41.0633 20.4504 41.0666 20.5989 41.0835L21.2783 35.1221L21.9578 29.1607C21.9189 29.1562 21.7549 29.137 21.6516 29.1257L20.9971 35.0898ZM21.2783 35.1221L20.5988 41.0835C20.7104 41.0962 20.8252 41.1098 20.9477 41.1244L21.6611 35.167L22.3746 29.2096C22.2422 29.1937 22.1019 29.1771 21.9578 29.1607L21.2783 35.1221ZM21.6611 35.167L20.9478 41.1244C21.2923 41.1657 21.6195 41.2066 21.9362 41.2498L22.7461 35.3047L23.556 29.3596C23.1527 29.3047 22.7563 29.2553 22.3745 29.2096L21.6611 35.167ZM22.7461 35.3047L21.9361 41.2498C22.0654 41.2674 21.9059 41.2463 22.1478 41.2801L22.9785 35.3379L23.8092 29.3957C23.7906 29.3931 23.7719 29.3903 23.725 29.3835C23.6856 29.3778 23.6237 29.3688 23.556 29.3596L22.7461 35.3047ZM22.9785 35.3379L22.1479 41.2801C22.4306 41.3196 22.7171 41.3622 23.0096 41.4073L23.9248 35.4775L24.84 29.5478C24.5041 29.4959 24.1598 29.4447 23.8091 29.3957L22.9785 35.3379ZM23.9248 35.4775L23.0094 41.4073C23.188 41.4349 23.2155 41.4383 23.3162 41.4543L24.2617 35.5293L25.2073 29.6043C25.0837 29.5846 24.8864 29.5549 24.8402 29.5478L23.9248 35.4775ZM24.2617 35.5293L23.3163 41.4543C23.6719 41.5111 24.0172 41.5687 24.3544 41.6285L25.4023 35.7207L26.4503 29.8129C26.0308 29.7385 25.6156 29.6694 25.2071 29.6043L24.2617 35.5293ZM25.4023 35.7207L24.3543 41.6285C24.3337 41.6248 24.3182 41.6219 24.3112 41.6206C24.3051 41.6194 24.3012 41.6187 24.3087 41.6201C24.3127 41.6209 24.3291 41.6241 24.3467 41.6274C24.3655 41.6309 24.3929 41.6361 24.4253 41.6418L25.4805 35.7354L26.5356 29.8289C26.555 29.8323 26.5693 29.835 26.5752 29.8361C26.5798 29.837 26.5831 29.8376 26.5742 29.8359C26.5686 29.8349 26.5517 29.8316 26.5326 29.828C26.5125 29.8242 26.4841 29.8189 26.4504 29.813L25.4023 35.7207ZM25.4805 35.7354L24.4255 41.6419C24.7844 41.706 25.1366 41.7718 25.4828 41.84L26.6426 35.9531L27.8023 30.0663C27.3778 29.9826 26.9551 29.9038 26.5354 29.8288L25.4805 35.7354ZM26.6426 35.9531L25.4826 41.8399C25.513 41.8459 25.5442 41.8521 25.5812 41.8595L26.751 35.9746L27.9207 30.0897C27.8855 30.0827 27.8444 30.0746 27.8025 30.0663L26.6426 35.9531ZM26.751 35.9746L25.5814 41.8595C25.9409 41.931 26.298 42.0053 26.6527 42.0825L27.9287 36.2197L29.2048 30.357C28.7783 30.2642 28.3502 30.1751 27.9205 30.0897L26.751 35.9746ZM27.9287 36.2197L26.6525 42.0824C26.6508 42.0821 26.6548 42.0829 26.6845 42.0897C26.7061 42.0946 26.7575 42.1063 26.8105 42.118L28.1025 36.2588L29.3945 30.3995C29.3896 30.3985 29.3831 30.397 29.3468 30.3887C29.3186 30.3823 29.2647 30.37 29.205 30.357L27.9287 36.2197ZM28.1025 36.2588L26.8107 42.1181C27.129 42.1882 27.4457 42.2608 27.761 42.3357L29.1475 36.498L30.5339 30.6604C30.1558 30.5706 29.776 30.4836 29.3944 30.3995L28.1025 36.2588ZM29.1475 36.498L27.7608 42.3356C27.7939 42.3435 27.8227 42.3501 27.8442 42.355C27.8644 42.3597 27.8841 42.3641 27.8927 42.366C27.9042 42.3686 27.9062 42.3691 27.906 42.3691C27.9051 42.3688 27.8969 42.367 27.8842 42.3639L29.2832 36.5293L30.6822 30.6947C30.6162 30.6789 30.5573 30.6656 30.538 30.6612C30.5239 30.6581 30.521 30.6574 30.5186 30.6568C30.5174 30.6566 30.5236 30.658 30.5341 30.6605L29.1475 36.498ZM29.2832 36.5293L27.8844 42.364C28.2247 42.4455 28.572 42.5332 28.9341 42.6269L30.4375 36.8184L31.9409 31.0098C31.5373 30.9053 31.1155 30.7986 30.682 30.6946L29.2832 36.5293ZM30.4375 36.8184L28.9339 42.6269C28.9735 42.6372 29.012 42.6469 29.0282 42.651C29.0504 42.6566 29.0533 42.6574 29.052 42.657L30.5674 36.8516L32.0828 31.0461C32.0383 31.0345 31.9979 31.0242 31.9768 31.0189C31.9496 31.012 31.9448 31.0108 31.9411 31.0098L30.4375 36.8184ZM30.5674 36.8516L29.0522 42.6571C29.6595 42.8156 30.2574 42.9811 30.846 43.1543L32.54 37.3984L34.234 31.6425C33.5199 31.4324 32.8025 31.2339 32.0826 31.046L30.5674 36.8516ZM32.54 37.3984L30.8261 43.1484L31.2323 43.2695L32.9463 37.5195L34.6602 31.7695L34.254 31.6484L32.54 37.3984ZM32.9463 37.5195L31.2153 43.2644C31.2022 43.2605 31.1929 43.2576 31.1897 43.2566C31.1871 43.2558 31.1862 43.2555 31.1935 43.2578C31.1983 43.2593 31.2123 43.2637 31.2269 43.2682C31.2425 43.2731 31.2644 43.2798 31.2899 43.2876L33.0283 37.5449L34.7667 31.8023C34.7786 31.8059 34.7867 31.8084 34.7887 31.809C34.7897 31.8093 34.79 31.8094 34.7811 31.8066C34.7747 31.8046 34.7602 31.8001 34.744 31.7951C34.7271 31.7898 34.7041 31.7827 34.6772 31.7746L32.9463 37.5195ZM33.0283 37.5449L31.2901 43.2876C31.6266 43.3895 31.9531 43.4907 32.2717 43.5931L34.1074 37.8809L35.9432 32.1686C35.5463 32.041 35.1531 31.9192 34.7665 31.8022L33.0283 37.5449ZM34.1074 37.8809L32.2715 43.5931C32.265 43.591 32.2604 43.5895 32.2589 43.589C32.2577 43.5886 32.2573 43.5885 32.2611 43.5897C32.2635 43.5905 32.2706 43.5928 32.278 43.5952C32.2859 43.5978 32.2969 43.6014 32.3097 43.6055L34.1494 37.8945L35.9891 32.1835C35.995 32.1854 35.9989 32.1867 35.9998 32.187C36.0002 32.1871 36.0003 32.1872 35.9958 32.1857C35.9925 32.1846 35.9851 32.1822 35.977 32.1795C35.9684 32.1767 35.9568 32.173 35.9434 32.1686L34.1074 37.8809ZM34.1494 37.8945L32.2755 43.5944L32.9884 43.8288L34.8623 38.1289L36.7362 32.429L36.0233 32.1947L34.1494 37.8945ZM34.8623 38.1289L32.9584 43.8188C33.0504 43.8496 33.1117 43.871 33.2587 43.9211L35.1924 38.2412L37.126 32.5613C37.0532 32.5365 36.8948 32.482 36.7662 32.439L34.8623 38.1289ZM35.1924 38.2412L33.2586 43.921C33.4148 43.9742 33.3887 43.9646 33.471 43.9929L35.4258 38.3203L37.3806 32.6477C37.3215 32.6273 37.2665 32.6088 37.2258 32.595C37.1797 32.5795 37.1539 32.5708 37.1262 32.5614L35.1924 38.2412ZM35.4258 38.3203L33.4711 43.993C34.1299 44.22 34.7845 44.459 35.4357 44.7087L37.584 39.1064L39.7322 33.5042C38.9606 33.2083 38.1768 32.922 37.3804 32.6476L35.4258 38.3203ZM37.584 39.1064L35.4357 44.7087C35.4903 44.7296 35.5295 44.7446 35.57 44.7602L37.7314 39.1631L39.8929 33.5659C39.8352 33.5437 39.776 33.521 39.7323 33.5042L37.584 39.1064ZM37.7314 39.1631L35.57 44.7603C48.5012 49.7538 58.6626 58.7335 66.0575 68.0739L70.7617 64.3496L75.4659 60.6253C67.1423 50.1119 55.351 39.5352 39.8929 33.5659L37.7314 39.1631ZM70.7617 64.3496L73.538 69.6686C83.0771 64.6896 93.988 63.5 101.305 63.5V57.5V51.5C93.0118 51.5 79.9231 52.7996 67.9854 59.0306L70.7617 64.3496ZM101.305 57.5L101.131 63.4975C111.7 63.8038 119.477 66.0647 125.186 68.9908L127.923 63.6514L130.66 58.3119C123.185 54.4809 113.625 51.8546 101.479 51.5025L101.305 57.5ZM127.923 63.6514L132.592 67.4199C139.518 58.8393 148.79 50.6337 160.406 45.6366L158.035 40.125L155.664 34.6134C141.815 40.571 131.064 50.2067 123.254 59.8828L127.923 63.6514ZM158.035 40.125L163.155 36.9959C163.165 37.0125 163.172 37.025 163.175 37.0304C163.178 37.0348 163.18 37.0381 163.176 37.0312C163.174 37.0272 163.165 37.0136 163.156 36.9983C163.147 36.9822 163.133 36.959 163.116 36.9318L158 40.0664L152.884 43.201C152.873 43.1835 152.865 43.1701 152.861 43.1637C152.858 43.1582 152.856 43.1544 152.859 43.1602C152.861 43.1631 152.869 43.1762 152.877 43.1904C152.886 43.2055 152.9 43.2278 152.916 43.2541L158.035 40.125ZM158 40.0664L160.359 45.5833C165.825 43.2463 171.832 41.6081 178.403 40.9721L177.825 35L177.247 29.0279C169.386 29.7887 162.181 31.7535 155.641 34.5495L158 40.0664ZM177.825 35L171.881 35.8198C171.876 35.7821 171.872 35.7487 171.869 35.7206C171.865 35.6925 171.863 35.6685 171.861 35.6499C171.859 35.6316 171.857 35.6168 171.856 35.608C171.856 35.6035 171.855 35.6 171.855 35.5979C171.855 35.5959 171.855 35.5944 171.855 35.5949C171.855 35.5949 171.855 35.5951 171.855 35.5952C171.855 35.5954 171.855 35.5957 171.855 35.596C171.855 35.5967 171.855 35.5978 171.855 35.599C171.856 35.6015 171.856 35.6055 171.856 35.6104C171.857 35.6199 171.859 35.6355 171.861 35.6546C171.863 35.6738 171.866 35.6986 171.869 35.7274C171.873 35.7563 171.877 35.7905 171.882 35.8289L177.827 35.0176L183.772 34.2063C183.777 34.2432 183.781 34.2759 183.784 34.3034C183.788 34.3307 183.79 34.354 183.792 34.3718C183.794 34.3895 183.796 34.4035 183.796 34.4116C183.797 34.4158 183.797 34.419 183.797 34.4208C183.797 34.4223 183.798 34.4236 183.797 34.4227C183.797 34.4224 183.797 34.4202 183.797 34.4175C183.797 34.4147 183.796 34.4104 183.796 34.4051C183.795 34.3949 183.793 34.3787 183.791 34.3588C183.789 34.3389 183.786 34.3134 183.782 34.2838C183.779 34.2542 183.774 34.2193 183.769 34.1802L177.825 35ZM177.827 35.0176L178.42 40.9882C178.607 40.9697 178.477 40.9818 178.578 40.9721L178 35L177.422 29.0279C177.371 29.0328 177.325 29.0376 177.296 29.0406C177.261 29.0442 177.247 29.0456 177.234 29.047L177.827 35.0176ZM74.7119 10.8281L72.5168 16.4122C71.7255 16.1011 71.2108 15.6904 71.1668 15.6568C71.0152 15.5408 70.922 15.455 70.9104 15.4443C70.8815 15.4179 70.9231 15.4548 71.061 15.5994C71.3238 15.875 71.7228 16.3166 72.256 16.9269C73.3097 18.1331 74.7192 19.8052 76.2825 21.6887C79.4005 25.4453 83.0248 29.9159 85.4107 32.8869L90.0889 29.1299L94.767 25.3729C92.3576 22.3727 88.6898 17.8482 85.5163 14.0247C83.9339 12.1181 82.4478 10.3538 81.2933 9.03217C80.7223 8.37859 80.1891 7.78339 79.7461 7.31875C79.5311 7.09328 79.2764 6.83412 79.0147 6.5945C78.8867 6.47727 78.6929 6.30553 78.4575 6.12544C78.3297 6.02771 77.7479 5.57462 76.907 5.24409L74.7119 10.8281ZM90.0889 29.1299L89.1438 23.2048L78.7903 24.8561L79.7354 30.7812L80.6804 36.7064L91.0339 35.055L90.0889 29.1299ZM79.7354 30.7812L73.994 32.524L77.7313 44.8365L83.4727 43.0938L89.214 41.351L85.4767 29.0385L79.7354 30.7812ZM83.4727 43.0938L87.866 39.0073L72.4031 22.3833L68.0098 26.4697L63.6165 30.5562L79.0794 47.1802L83.4727 43.0938ZM68.0098 26.4697L68.9549 32.3948L79.3074 30.7435L78.3623 24.8184L77.4172 18.8933L67.0646 20.5446L68.0098 26.4697ZM78.3623 24.8184L84.1679 23.3035L80.5175 9.3133L74.7119 10.8281L68.9063 12.343L72.5567 26.3332L78.3623 24.8184Z" fill="white" mask="url(#path-1-outside-1_1062_15999)"/>
<path d="M20.1288 35C57.3288 38.6 78.2954 71.5 84.1288 87.5C80.6289 90.5 76.6287 95 70.6288 99.5C39.6288 85 18.1288 49.5 20.1288 35Z" fill="#5B97D0"/>
<path d="M178 35C140.8 38.6 119.833 71.5 114 87.5C117.5 90.5 121.5 95 127.5 99.5C158.5 85 180 49.5 178 35Z" fill="#5B97D0"/>
<path d="M50.3047 87.5C59.8047 61.5 87.3047 57.5 101.305 57.5C135.805 58.5 145.5 79 147.5 86C149.408 92.679 147.805 103.5 149.805 112C157.305 125.5 145.805 149 132.305 157.5C121.505 164.3 107.138 165.667 101.305 165.5C96.9714 166 84.6047 165.1 69.8047 157.5C43.3047 139.5 44.3047 119 47.8047 112C51.3047 105 48.8047 95 50.3047 87.5Z" fill="#6AA6E0"/>
<path d="M71.5 111C77.8513 111 83 105.851 83 99.5C83 93.1487 77.8513 88 71.5 88C65.1487 88 60 93.1487 60 99.5C60 105.851 65.1487 111 71.5 111Z" fill="white"/>
<path d="M71.3213 106.478C75.129 106.478 78.2157 103.391 78.2157 99.5832C78.2157 95.7755 75.129 92.6887 71.3213 92.6887C67.5135 92.6887 64.4268 95.7755 64.4268 99.5832C64.4268 103.391 67.5135 106.478 71.3213 106.478Z" fill="black"/>
<path d="M126.5 111C132.851 111 138 105.851 138 99.5C138 93.1487 132.851 88 126.5 88C120.149 88 115 93.1487 115 99.5C115 105.851 120.149 111 126.5 111Z" fill="white"/>
<path d="M126.321 106.478C130.129 106.478 133.216 103.391 133.216 99.5832C133.216 95.7755 130.129 92.6887 126.321 92.6887C122.514 92.6887 119.427 95.7755 119.427 99.5832C119.427 103.391 122.514 106.478 126.321 106.478Z" fill="black"/>
<path d="M20.1287 35C27.3454 35.6984 33.9511 37.4999 39.9539 40.0664C37.4534 44.1476 35.2637 48.7566 33.6775 53.9482C32.4573 57.9421 32.1757 62.2397 32.5643 66.6309C23.8467 54.3382 19.1452 42.1306 20.1287 35Z" fill="#195999"/>
<path d="M177.825 35C170.609 35.6984 164.003 37.4999 158 40.0664C160.501 44.1476 162.69 48.7566 164.277 53.9482C165.497 57.9421 165.778 62.2397 165.39 66.6309C174.107 54.3382 178.809 42.1306 177.825 35Z" fill="#195999"/>
<path d="M67.1838 125.601C63.9838 114.401 51.8334 114.167 46.5001 116C42.0001 132 52.5 143 56.5 146C61 146 71.1838 139.601 67.1838 125.601Z" fill="#F6C4B6"/>
<path d="M129.912 125.601C133.112 114.401 146.167 114.167 151.5 116C155 131 146.5 144 142.5 148C138 148 125.912 139.601 129.912 125.601Z" fill="#F6C4B6"/>
<path d="M87 132C88 132.5 92 135.5 98.5 132C102 134 104 135.5 111 132.5" stroke="#144678" stroke-width="3" stroke-linecap="round" stroke-linejoin="round"/>
<path d="M106 118.159C105.996 120.454 102.253 124.003 98.9902 124C95.7275 123.997 91.9964 120.442 92 118.148C92.0036 115.853 94.1389 113.995 99.0062 114C103.929 114.004 106.004 115.866 106 118.16V118.159Z" fill="#144678"/>
<path d="M159.972 155.117C167.334 148.074 182.333 133.92 183.431 133.648L176.187 151.467L189.555 155.443L166.273 174.683L173.34 159.093L159.972 155.117Z" fill="#F8D076"/>
<path d="M90.0884 29.1301C85.2928 23.1587 75.5037 11.1382 74.7119 10.8278L78.362 24.8187L68.0093 26.4696L83.4729 43.0933L79.7357 30.7809L90.0884 29.1301Z" fill="#F8D076"/>
</svg>
