<svg width="200" height="200" viewBox="0 0 200 200" fill="none" xmlns="http://www.w3.org/2000/svg">
<mask id="path-1-outside-1_898_3006" maskUnits="userSpaceOnUse" x="10.9766" y="9.79395" width="179" height="181" fill="black">
<rect fill="white" x="10.9766" y="9.79395" width="179" height="181"/>
<path d="M101.935 19.7939C107.134 19.7939 111.349 22.9078 111.349 25.8193C111.349 26.6167 111.031 27.3147 110.465 27.9102C107.099 34.4822 106.226 40.7912 106.393 46.2695C113.03 33.8791 130.888 24.2894 149.004 34.9092C149.696 36.8128 145.455 47.2238 138.259 55.0723C160.673 66.5416 175.492 88.0094 178.513 113.18C183.672 156.174 147.212 180.205 99.8135 180.205C48.6026 180.205 18.682 154.529 21.1143 113.18C23.1968 77.7802 51.5474 50.6959 89.8428 46.6699C89.3164 37.1382 91.2381 29.5408 92.5655 25.5762C92.5367 25.4084 92.5215 25.2384 92.5215 25.0664C92.5215 22.155 96.7356 19.794 101.935 19.7939Z"/>
</mask>
<path d="M101.935 19.7939C107.134 19.7939 111.349 22.9078 111.349 25.8193C111.349 26.6167 111.031 27.3147 110.465 27.9102C107.099 34.4822 106.226 40.7912 106.393 46.2695C113.03 33.8791 130.888 24.2894 149.004 34.9092C149.696 36.8128 145.455 47.2238 138.259 55.0723C160.673 66.5416 175.492 88.0094 178.513 113.18C183.672 156.174 147.212 180.205 99.8135 180.205C48.6026 180.205 18.682 154.529 21.1143 113.18C23.1968 77.7802 51.5474 50.6959 89.8428 46.6699C89.3164 37.1382 91.2381 29.5408 92.5655 25.5762C92.5367 25.4084 92.5215 25.2384 92.5215 25.0664C92.5215 22.155 96.7356 19.794 101.935 19.7939Z" fill="#7F470F"/>
<path d="M101.935 19.7939L101.935 9.79395L101.934 9.79395L101.935 19.7939ZM111.349 25.8193L121.349 25.8198V25.8193H111.349ZM110.465 27.9102L103.216 21.0212C102.557 21.7149 102.001 22.4997 101.564 23.3515L110.465 27.9102ZM106.393 46.2695L96.3973 46.574C96.5351 51.1005 99.6977 54.9694 104.106 56.0047C108.515 57.04 113.069 54.9834 115.208 50.9914L106.393 46.2695ZM149.004 34.9092L158.402 31.4918C157.606 29.3027 156.071 27.4601 154.061 26.2822L149.004 34.9092ZM138.259 55.0723L130.888 48.3143C128.778 50.6152 127.864 53.7694 128.417 56.8418C128.969 59.9142 130.925 62.5524 133.704 63.9745L138.259 55.0723ZM178.513 113.18L188.442 111.988L188.442 111.988L178.513 113.18ZM99.8135 180.205L99.8135 190.205L99.8135 190.205L99.8135 180.205ZM21.1143 113.18L11.1316 112.592L11.1316 112.592L21.1143 113.18ZM89.8428 46.6699L90.8884 56.6151C96.1894 56.0578 100.122 51.4406 99.8276 46.1185L89.8428 46.6699ZM92.5655 25.5762L102.048 28.7509C102.572 27.185 102.701 25.5135 102.422 23.8859L92.5655 25.5762ZM92.5215 25.0664L82.5215 25.0664L82.5215 25.0674L92.5215 25.0664ZM101.935 19.7939V29.7939C102.241 29.7939 102.513 29.8406 102.729 29.9053C102.955 29.9729 103.05 30.039 103.022 30.0203C103.018 30.0179 102.71 29.8179 102.337 29.2684C101.965 28.7216 101.349 27.5388 101.349 25.8193H111.349H121.349C121.349 19.5824 117.164 15.4234 114.161 13.4093C110.761 11.1293 106.458 9.79395 101.935 9.79395V19.7939ZM111.349 25.8193L101.349 25.8189C101.349 24.8504 101.55 23.8784 101.935 22.9834C102.312 22.1093 102.797 21.462 103.216 21.0212L110.465 27.9102L117.713 34.7991C119.772 32.6337 121.349 29.5533 121.349 25.8198L111.349 25.8193ZM110.465 27.9102L101.564 23.3515C97.2874 31.702 96.1893 39.7478 96.3973 46.574L106.393 46.2695L116.388 45.9651C116.262 41.8346 116.91 37.2623 119.365 32.4688L110.465 27.9102ZM106.393 46.2695L115.208 50.9914C119.717 42.5724 131.677 36.3437 143.947 43.5362L149.004 34.9092L154.061 26.2822C130.098 12.2351 106.342 25.1857 97.5776 41.5477L106.393 46.2695ZM149.004 34.9092L139.606 38.3266C139.155 37.0862 139.093 36.0788 139.08 35.6477C139.066 35.1517 139.106 34.8098 139.122 34.6888C139.153 34.4565 139.169 34.4927 139.056 34.8675C138.839 35.585 138.377 36.7957 137.61 38.36C136.075 41.4929 133.724 45.2214 130.888 48.3143L138.259 55.0723L145.63 61.8303C149.99 57.0747 153.358 51.6735 155.569 47.1628C156.675 44.9053 157.593 42.6658 158.202 40.6507C158.501 39.659 158.791 38.5082 158.95 37.3116C159.057 36.5028 159.352 34.1054 158.402 31.4918L149.004 34.9092ZM138.259 55.0723L133.704 63.9745C153.112 73.9057 165.954 92.4565 168.584 114.371L178.513 113.18L188.442 111.988C185.03 83.5623 168.234 59.1776 142.814 46.1701L138.259 55.0723ZM178.513 113.18L168.584 114.371C170.747 132.397 164.348 145.737 152.67 154.971C140.555 164.55 122.019 170.205 99.8135 170.205L99.8135 180.205L99.8135 190.205C125.007 190.205 148.4 183.844 165.075 170.66C182.186 157.13 191.438 136.957 188.442 111.988L178.513 113.18ZM99.8135 180.205V170.205C75.7315 170.205 58.0474 164.157 46.8394 154.592C35.9203 145.273 30.0425 131.694 31.097 113.767L21.1143 113.18L11.1316 112.592C9.75383 136.014 17.6202 155.948 33.856 169.805C49.803 183.415 72.6846 190.205 99.8135 190.205V180.205ZM21.1143 113.18L31.097 113.767C32.8507 83.9563 56.7258 60.2066 90.8884 56.6151L89.8428 46.6699L88.7973 36.7247C46.3691 41.1852 13.5428 71.6041 11.1316 112.592L21.1143 113.18ZM89.8428 46.6699L99.8276 46.1185C99.3894 38.1842 101 31.8816 102.048 28.7509L92.5655 25.5762L83.0828 22.4014C81.4763 27.1999 79.2434 36.0923 79.858 47.2214L89.8428 46.6699ZM92.5655 25.5762L102.422 23.8859C102.484 24.2527 102.521 24.6481 102.522 25.0654L92.5215 25.0664L82.5215 25.0674C82.5216 25.8288 82.5889 26.564 82.7094 27.2665L92.5655 25.5762ZM92.5215 25.0664H102.522C102.522 26.8764 101.839 28.2495 101.242 29.0405C100.691 29.7696 100.205 30.041 100.166 30.0629C100.115 30.091 100.721 29.794 101.935 29.7939L101.935 19.7939L101.934 9.79395C97.9495 9.79401 93.8483 10.6775 90.3914 12.6139C87.2566 14.3699 82.5215 18.3717 82.5215 25.0664H92.5215Z" fill="white" mask="url(#path-1-outside-1_898_3006)"/>
<path d="M178.513 113.179C183.672 156.174 147.212 180.206 99.8132 180.206C48.6021 180.206 18.6814 154.529 21.1138 113.179C23.3733 74.771 56.5567 46.1531 99.8132 46.1531C143.07 46.1531 173.994 75.5241 178.513 113.179Z" fill="#FF8A14"/>
<circle cx="142" cy="121" r="10" fill="#FFAA54"/>
<circle cx="125.5" cy="139.5" r="6.5" fill="#FFAA54"/>
<circle cx="37.5" cy="128.5" r="6.5" fill="#FFAA54"/>
<circle cx="44.5" cy="144.5" r="3.5" fill="#FFAA54"/>
<circle cx="146" cy="148" r="8" fill="#FFAA54"/>
<path d="M58.5 92C64.299 92 69 87.299 69 81.5C69 75.701 64.299 71 58.5 71C52.701 71 48 75.701 48 81.5C48 87.299 52.701 92 58.5 92Z" fill="white"/>
<path d="M58.337 87.8707C61.8136 87.8707 64.6319 85.0523 64.6319 81.5757C64.6319 78.0991 61.8136 75.2808 58.337 75.2808C54.8604 75.2808 52.042 78.0991 52.042 81.5757C52.042 85.0523 54.8604 87.8707 58.337 87.8707Z" fill="black"/>
<path d="M141.5 92C147.299 92 152 87.299 152 81.5C152 75.701 147.299 71 141.5 71C135.701 71 131 75.701 131 81.5C131 87.299 135.701 92 141.5 92Z" fill="white"/>
<path d="M141.337 87.8707C144.814 87.8707 147.632 85.0523 147.632 81.5757C147.632 78.0991 144.814 75.2808 141.337 75.2808C137.86 75.2808 135.042 78.0991 135.042 81.5757C135.042 85.0523 137.86 87.8707 141.337 87.8707Z" fill="black"/>
<path d="M93.7168 64.6042C84.9898 42.011 93.3405 23.3416 93.717 22.5885C102.378 16.9402 108.713 21.3007 110.972 26.9489C102.312 42.7641 108.403 57.2313 109.156 62.503C105.767 70.4106 95.9761 66.4869 93.7168 64.6042Z" fill="#6CD02A"/>
<path d="M111.349 25.8193C111.349 28.7308 107.134 30.3379 101.935 30.3379C96.7357 30.3379 92.521 27.9777 92.521 25.0662C92.521 22.1547 96.7357 19.7944 101.935 19.7944C107.134 19.7944 111.349 22.9078 111.349 25.8193Z" fill="#51A31A"/>
<path d="M103.818 54.1136C105.7 38.6751 127.164 22.1068 149.004 34.9094C150.51 39.0515 128.67 83.4847 103.818 54.1136Z" fill="#61C71E"/>
<path d="M106.436 53.3383C109.908 49.4715 119.59 42.4199 130.547 45.1479" stroke="#46B000" stroke-width="3.76552" stroke-linecap="round"/>
<path d="M84 80C87.5164 82.8338 104.334 86.4014 116.383 80" stroke="#7F470F" stroke-width="3.76552" stroke-linecap="round"/>
</svg>
