<svg width="200" height="200" viewBox="0 0 200 200" fill="none" xmlns="http://www.w3.org/2000/svg">
<mask id="path-1-outside-1_1347_5180" maskUnits="userSpaceOnUse" x="15" y="19.7051" width="170" height="167" fill="black">
<rect fill="white" x="15" y="19.7051" width="170" height="167"/>
<path d="M96.5 27.7236C96.6802 27.0032 97.4104 26.565 98.1309 26.7451C98.8468 26.9242 99.2826 27.6462 99.1113 28.3623C107.082 30.6551 111.66 37.6171 112.838 44.9385L112.858 44.9365C113.594 44.8326 114.275 45.3448 114.379 46.0801C114.483 46.8154 113.971 47.4966 113.235 47.6006L113.119 47.6162C113.454 54.6624 110.654 61.5548 104.705 64.4922C104.641 64.6793 104.538 64.8563 104.389 65.0059C103.965 65.4309 103.328 65.5131 102.821 65.2529C102.681 65.2979 102.539 65.3428 102.396 65.3838C102.253 65.4217 102.111 65.4556 101.971 65.4902C101.971 65.7109 101.973 65.9319 101.971 66.1533C101.955 68.0019 101.836 69.877 101.617 71.7646C143.282 66.3878 158.308 74.2069 169.747 89.3398C171.712 92.1577 173.343 95.1636 174.63 98.2959C174.702 98.4697 174.773 98.6437 174.843 98.8184C174.865 98.8739 174.886 98.9297 174.908 98.9854C175.803 101.251 176.514 103.584 177.032 105.962C178.048 110.565 178.368 115.326 177.951 120.083C177.394 139.564 172.755 159.331 163.901 166.611V172.328C163.901 174.395 163.082 176.379 161.624 177.844C160.166 179.309 158.186 180.137 156.119 180.146H152.21C151.173 180.146 150.178 179.734 149.445 179.001C148.712 178.268 148.301 177.274 148.301 176.237V167.786C145.96 166.73 143.86 165.215 142.122 163.333C142.108 163.347 142.096 163.362 142.081 163.376C141.538 163.883 140.687 163.854 140.18 163.312C139.945 163.06 139.715 162.806 139.488 162.549C127.605 164.835 115.42 165.124 103.435 163.397C101.666 163.134 99.9562 162.85 98.333 162.547C98.1896 162.757 98.0443 162.966 97.8965 163.174C97.4656 163.779 96.6255 163.92 96.0205 163.489C95.9436 163.435 95.8742 163.373 95.8125 163.307C94.6597 164.739 93.2722 165.968 91.708 166.94V172.328C91.708 174.395 90.889 176.379 89.4307 177.844C87.9722 179.309 85.9921 180.137 83.9248 180.146H80.0166C78.9798 180.146 77.9851 179.734 77.252 179.001C76.519 178.268 76.1075 177.274 76.1074 176.237V166.971C69.2682 162.547 64.415 152.507 64.415 140.696C63.7121 139.249 63.0901 137.764 62.5508 136.249C56.992 122.119 56.4539 103.828 60.5781 95.293C59.9225 95.1519 59.2953 94.9925 58.6953 94.8174C49.7803 94.1524 39.8272 97.3017 33.2148 97.3018C27.294 97.3018 22.2503 93.6791 21.2812 84.6299C20.8499 81.713 20.9127 78.7268 21.4854 75.7988C21.486 75.7939 21.4867 75.7891 21.4873 75.7842C22.8754 64.8053 36.8041 56.7225 44.9346 52.8965C44.6527 52.7373 44.3866 52.5679 44.1357 52.3896C44.1179 52.4054 44.0998 52.4207 44.082 52.4365C42.5132 51.29 41.5651 49.7882 41.2324 48.1533C40.3189 43.949 43.5147 38.8273 50.752 36.6924C52.1672 36.2766 53.5929 35.8799 55.0244 35.5107C55.6934 35.3382 56.3638 35.1724 57.0352 35.0137C57.2801 34.9558 57.5253 34.8995 57.7705 34.8438C63.0946 33.6315 68.4715 32.9171 73.7129 33.2979C74.5223 32.4869 75.4571 31.6792 76.5293 30.9258L76.5176 30.9053C76.1492 30.2606 76.373 29.438 77.0176 29.0693C77.6473 28.7093 78.4447 28.916 78.8252 29.5264C82.2342 27.7394 86.7114 26.5994 92.5029 27.1318C93.7706 27.248 95.101 27.4461 96.4971 27.7334L96.5 27.7236ZM101.605 71.875C101.61 71.8744 101.615 71.8736 101.619 71.873C101.617 71.8535 101.614 71.834 101.611 71.8145C101.609 71.8345 101.608 71.855 101.605 71.875Z"/>
</mask>
<path d="M96.5 27.7236C96.6802 27.0032 97.4104 26.565 98.1309 26.7451C98.8468 26.9242 99.2826 27.6462 99.1113 28.3623C107.082 30.6551 111.66 37.6171 112.838 44.9385L112.858 44.9365C113.594 44.8326 114.275 45.3448 114.379 46.0801C114.483 46.8154 113.971 47.4966 113.235 47.6006L113.119 47.6162C113.454 54.6624 110.654 61.5548 104.705 64.4922C104.641 64.6793 104.538 64.8563 104.389 65.0059C103.965 65.4309 103.328 65.5131 102.821 65.2529C102.681 65.2979 102.539 65.3428 102.396 65.3838C102.253 65.4217 102.111 65.4556 101.971 65.4902C101.971 65.7109 101.973 65.9319 101.971 66.1533C101.955 68.0019 101.836 69.877 101.617 71.7646C143.282 66.3878 158.308 74.2069 169.747 89.3398C171.712 92.1577 173.343 95.1636 174.63 98.2959C174.702 98.4697 174.773 98.6437 174.843 98.8184C174.865 98.8739 174.886 98.9297 174.908 98.9854C175.803 101.251 176.514 103.584 177.032 105.962C178.048 110.565 178.368 115.326 177.951 120.083C177.394 139.564 172.755 159.331 163.901 166.611V172.328C163.901 174.395 163.082 176.379 161.624 177.844C160.166 179.309 158.186 180.137 156.119 180.146H152.21C151.173 180.146 150.178 179.734 149.445 179.001C148.712 178.268 148.301 177.274 148.301 176.237V167.786C145.96 166.73 143.86 165.215 142.122 163.333C142.108 163.347 142.096 163.362 142.081 163.376C141.538 163.883 140.687 163.854 140.18 163.312C139.945 163.06 139.715 162.806 139.488 162.549C127.605 164.835 115.42 165.124 103.435 163.397C101.666 163.134 99.9562 162.85 98.333 162.547C98.1896 162.757 98.0443 162.966 97.8965 163.174C97.4656 163.779 96.6255 163.92 96.0205 163.489C95.9436 163.435 95.8742 163.373 95.8125 163.307C94.6597 164.739 93.2722 165.968 91.708 166.94V172.328C91.708 174.395 90.889 176.379 89.4307 177.844C87.9722 179.309 85.9921 180.137 83.9248 180.146H80.0166C78.9798 180.146 77.9851 179.734 77.252 179.001C76.519 178.268 76.1075 177.274 76.1074 176.237V166.971C69.2682 162.547 64.415 152.507 64.415 140.696C63.7121 139.249 63.0901 137.764 62.5508 136.249C56.992 122.119 56.4539 103.828 60.5781 95.293C59.9225 95.1519 59.2953 94.9925 58.6953 94.8174C49.7803 94.1524 39.8272 97.3017 33.2148 97.3018C27.294 97.3018 22.2503 93.6791 21.2812 84.6299C20.8499 81.713 20.9127 78.7268 21.4854 75.7988C21.486 75.7939 21.4867 75.7891 21.4873 75.7842C22.8754 64.8053 36.8041 56.7225 44.9346 52.8965C44.6527 52.7373 44.3866 52.5679 44.1357 52.3896C44.1179 52.4054 44.0998 52.4207 44.082 52.4365C42.5132 51.29 41.5651 49.7882 41.2324 48.1533C40.3189 43.949 43.5147 38.8273 50.752 36.6924C52.1672 36.2766 53.5929 35.8799 55.0244 35.5107C55.6934 35.3382 56.3638 35.1724 57.0352 35.0137C57.2801 34.9558 57.5253 34.8995 57.7705 34.8438C63.0946 33.6315 68.4715 32.9171 73.7129 33.2979C74.5223 32.4869 75.4571 31.6792 76.5293 30.9258L76.5176 30.9053C76.1492 30.2606 76.373 29.438 77.0176 29.0693C77.6473 28.7093 78.4447 28.916 78.8252 29.5264C82.2342 27.7394 86.7114 26.5994 92.5029 27.1318C93.7706 27.248 95.101 27.4461 96.4971 27.7334L96.5 27.7236ZM101.605 71.875C101.61 71.8744 101.615 71.8736 101.619 71.873C101.617 71.8535 101.614 71.834 101.611 71.8145C101.609 71.8345 101.608 71.855 101.605 71.875Z" fill="#81AADB"/>
<path d="M96.5 27.7236L102.247 29.4477C102.274 29.359 102.298 29.2696 102.321 29.1798L96.5 27.7236ZM98.1309 26.7451L99.5867 20.9244L99.5861 20.9243L98.1309 26.7451ZM99.1113 28.3623L93.276 26.9664C92.5296 30.0865 94.3696 33.2416 97.4527 34.1285L99.1113 28.3623ZM112.838 44.9385L106.914 45.8912C107.416 49.0146 110.257 51.2114 113.407 50.9114L112.838 44.9385ZM112.858 44.9365L113.427 50.9095C113.518 50.9009 113.608 50.8902 113.698 50.8775L112.858 44.9365ZM114.379 46.0801L120.32 45.2414L120.32 45.2394L114.379 46.0801ZM113.235 47.6006L114.035 53.5471C114.049 53.5452 114.062 53.5434 114.076 53.5414L113.235 47.6006ZM113.119 47.6162L112.32 41.6697C109.234 42.0846 106.978 44.7912 107.126 47.9013L113.119 47.6162ZM104.705 64.4922L102.049 59.1122C100.627 59.8144 99.5404 61.051 99.0275 62.5518L104.705 64.4922ZM104.389 65.0059L108.64 69.2397L108.641 69.2387L104.389 65.0059ZM102.821 65.2529L105.561 59.9151C104.148 59.1898 102.505 59.0543 100.993 59.5383L102.821 65.2529ZM102.396 65.3838L103.938 71.1822C103.973 71.1728 104.008 71.163 104.044 71.1529L102.396 65.3838ZM101.971 65.4902L100.532 59.6653C97.8461 60.3288 95.9621 62.7425 95.9707 65.5089L101.971 65.4902ZM101.971 66.1533L95.971 66.0903L95.9709 66.1035L101.971 66.1533ZM101.617 71.7646L95.6569 71.0753C95.4448 72.9091 96.0887 74.7385 97.4026 76.0352C98.7166 77.3319 100.554 77.9516 102.385 77.7153L101.617 71.7646ZM169.747 89.3398L174.668 85.9074C174.625 85.8446 174.58 85.7827 174.533 85.7217L169.747 89.3398ZM174.63 98.2959L169.08 100.576C169.082 100.581 169.084 100.586 169.086 100.591L174.63 98.2959ZM174.843 98.8184L180.42 96.6058L180.415 96.5927L174.843 98.8184ZM174.908 98.9854L169.323 101.176L169.327 101.189L174.908 98.9854ZM177.032 105.962L171.17 107.239C171.171 107.245 171.172 107.25 171.173 107.255L177.032 105.962ZM177.951 120.083L171.974 119.559C171.964 119.676 171.957 119.794 171.954 119.911L177.951 120.083ZM163.901 166.611L160.09 161.977C158.704 163.117 157.901 164.817 157.901 166.611H163.901ZM163.901 172.328L169.901 172.328V172.328H163.901ZM161.624 177.844L165.876 182.077L165.876 182.077L161.624 177.844ZM156.119 180.146V186.146C156.128 186.146 156.138 186.146 156.147 186.146L156.119 180.146ZM152.21 180.146V186.146V180.146ZM149.445 179.001L145.202 183.243L145.203 183.244L149.445 179.001ZM148.301 176.237H142.301V176.238L148.301 176.237ZM148.301 167.786H154.301C154.301 165.427 152.919 163.288 150.769 162.317L148.301 167.786ZM142.122 163.333L146.53 159.262C145.415 158.055 143.855 157.358 142.212 157.334C140.57 157.309 138.989 157.959 137.838 159.132L142.122 163.333ZM142.081 163.376L146.176 167.762L146.178 167.759L142.081 163.376ZM140.18 163.312L135.794 167.406L135.794 167.406L140.18 163.312ZM139.488 162.549L143.991 158.583C142.586 156.988 140.442 156.255 138.355 156.657L139.488 162.549ZM103.435 163.397L102.549 169.332C102.559 169.333 102.569 169.335 102.579 169.336L103.435 163.397ZM98.333 162.547L99.4332 156.649C97.0942 156.212 94.7184 157.199 93.3771 159.165L98.333 162.547ZM97.8965 163.174L102.784 166.655L102.784 166.655L97.8965 163.174ZM96.0205 163.489L92.5396 168.376L92.5403 168.377L96.0205 163.489ZM95.8125 163.307L100.216 159.232C99.0317 157.951 97.3485 157.25 95.6053 157.31C93.862 157.37 92.2313 158.186 91.1378 159.545L95.8125 163.307ZM91.708 166.94L88.5392 161.845C86.7785 162.941 85.708 164.867 85.708 166.94H91.708ZM91.708 172.328L97.708 172.328V172.328H91.708ZM89.4307 177.844L93.683 182.077L89.4307 177.844ZM83.9248 180.146V186.146C83.934 186.146 83.9432 186.146 83.9523 186.146L83.9248 180.146ZM80.0166 180.146V186.146V180.146ZM77.252 179.001L73.0092 183.243L73.0093 183.244L77.252 179.001ZM76.1074 176.237H70.1074V176.238L76.1074 176.237ZM76.1074 166.971H82.1074C82.1074 164.935 81.0752 163.038 79.3658 161.933L76.1074 166.971ZM64.415 140.696H70.415C70.415 139.788 70.2088 138.891 69.8118 138.074L64.415 140.696ZM62.5508 136.249L68.2035 134.237C68.1814 134.175 68.1584 134.114 68.1343 134.052L62.5508 136.249ZM60.5781 95.293L65.9805 97.9034C66.7812 96.2463 66.7771 94.3133 65.9694 92.6596C65.1616 91.0059 63.6396 89.8144 61.8404 89.4272L60.5781 95.293ZM58.6953 94.8174L60.376 89.0576C59.9735 88.9401 59.5598 88.8652 59.1416 88.834L58.6953 94.8174ZM33.2148 97.3018V103.302H33.2149L33.2148 97.3018ZM21.2812 84.6299L27.2471 83.991C27.2386 83.9112 27.2284 83.8315 27.2167 83.7521L21.2812 84.6299ZM21.4854 75.7988L27.3738 76.9505C27.3998 76.8177 27.4212 76.684 27.4382 76.5498L21.4854 75.7988ZM21.4873 75.7842L15.5347 75.0316L15.5347 75.0316L21.4873 75.7842ZM44.9346 52.8965L47.4893 58.3254C49.5196 57.37 50.8471 55.3617 50.9304 53.1194C51.0138 50.8771 49.8391 48.7757 47.8853 47.6722L44.9346 52.8965ZM44.1357 52.3896L47.6112 47.4987C45.3384 45.8837 42.2525 46.0471 40.163 47.8933L44.1357 52.3896ZM44.082 52.4365L40.5419 57.2808C42.825 58.9494 45.9634 58.7972 48.0744 56.9155L44.082 52.4365ZM41.2324 48.1533L47.1119 46.9568C47.1066 46.9309 47.1012 46.9051 47.0956 46.8793L41.2324 48.1533ZM50.752 36.6924L49.0606 30.9357L49.0544 30.9375L50.752 36.6924ZM55.0244 35.5107L56.5227 41.3207L56.5232 41.3205L55.0244 35.5107ZM57.0352 35.0137L55.656 29.1743L55.655 29.1746L57.0352 35.0137ZM57.7705 34.8438L59.1014 40.6943L59.1026 40.694L57.7705 34.8438ZM73.7129 33.2979L73.2781 39.2821C75.0182 39.4085 76.7271 38.7713 77.9596 37.5364L73.7129 33.2979ZM76.5293 30.9258L79.979 35.8349C82.5129 34.0543 83.2753 30.6378 81.7388 27.9489L76.5293 30.9258ZM76.5176 30.9053L71.3081 33.882L71.3081 33.8821L76.5176 30.9053ZM77.0176 29.0693L74.0396 23.8606L74.0389 23.8609L77.0176 29.0693ZM78.8252 29.5264L73.7334 32.7003C75.3946 35.3652 78.8296 36.2985 81.6109 34.8405L78.8252 29.5264ZM92.5029 27.1318L91.9536 33.1066L91.9554 33.1068L92.5029 27.1318ZM96.4971 27.7334L95.2878 33.6103C98.3321 34.2367 101.351 32.4346 102.244 29.4575L96.4971 27.7334ZM101.605 71.875L95.6466 71.174C95.4306 73.0094 96.0726 74.842 97.3868 76.1415C98.701 77.4409 100.541 78.0622 102.374 77.8256L101.605 71.875ZM101.619 71.873L102.387 77.8237C103.971 77.6194 105.407 76.7922 106.379 75.5254C107.351 74.2585 107.778 72.6565 107.566 71.074L101.619 71.873ZM101.611 71.8145L107.556 71.0044C107.148 68.0093 104.576 65.7854 101.553 65.8147C98.5305 65.844 96.0016 68.1173 95.6517 71.1198L101.611 71.8145ZM96.5 27.7236L102.321 29.1798C101.697 31.6723 99.1708 33.1898 96.6756 32.566L98.1309 26.7451L99.5861 20.9243C95.6499 19.9402 91.6634 22.3341 90.6794 26.2675L96.5 27.7236ZM98.1309 26.7451L96.675 32.5658C94.1884 31.9439 92.6846 29.4383 93.276 26.9664L99.1113 28.3623L104.947 29.7582C105.881 25.8541 103.505 21.9045 99.5867 20.9244L98.1309 26.7451ZM99.1113 28.3623L97.4527 34.1285C102.635 35.6192 106.004 40.2356 106.914 45.8912L112.838 44.9385L118.762 43.9858C117.316 34.9987 111.529 25.6909 100.77 22.5961L99.1113 28.3623ZM112.838 44.9385L113.407 50.9114L113.427 50.9095L112.858 44.9365L112.29 38.9636L112.269 38.9655L112.838 44.9385ZM112.858 44.9365L113.698 50.8775C111.154 51.2369 108.798 49.4674 108.438 46.9207L114.379 46.0801L120.32 45.2394C119.751 41.2221 116.034 38.4283 112.019 38.9955L112.858 44.9365ZM114.379 46.0801L108.438 46.9188C108.079 44.3764 109.847 42.0201 112.395 41.6597L113.235 47.6006L114.076 53.5414C118.094 52.973 120.887 49.2544 120.32 45.2414L114.379 46.0801ZM113.235 47.6006L112.436 41.6541L112.32 41.6697L113.119 47.6162L113.919 53.5627L114.035 53.5471L113.235 47.6006ZM113.119 47.6162L107.126 47.9013C107.392 53.4972 105.13 57.5911 102.049 59.1122L104.705 64.4922L107.361 69.8722C116.179 65.5184 119.517 55.8276 119.112 47.3311L113.119 47.6162ZM104.705 64.4922L99.0275 62.5518C99.2316 61.9546 99.5862 61.3256 100.136 60.773L104.389 65.0059L108.641 69.2387C109.489 68.3871 110.051 67.404 110.383 66.4326L104.705 64.4922ZM104.389 65.0059L100.137 60.7721C101.614 59.2887 103.82 59.0213 105.561 59.9151L102.821 65.2529L100.081 70.5908C102.836 72.0048 106.316 71.5732 108.64 69.2397L104.389 65.0059ZM102.821 65.2529L100.993 59.5383C100.854 59.5827 100.791 59.602 100.747 59.6146L102.396 65.3838L104.044 71.1529C104.286 71.0836 104.507 71.0131 104.65 70.9675L102.821 65.2529ZM102.396 65.3838L100.853 59.5853C100.779 59.6051 100.733 59.6157 100.532 59.6653L101.971 65.4902L103.41 71.3151C103.489 71.2955 103.726 71.2384 103.938 71.1822L102.396 65.3838ZM101.971 65.4902L95.9707 65.5089C95.9715 65.7648 95.9728 65.9224 95.971 66.0903L101.971 66.1533L107.97 66.2163C107.973 65.9414 107.971 65.657 107.971 65.4716L101.971 65.4902ZM101.971 66.1533L95.9709 66.1035C95.9574 67.7271 95.852 69.3886 95.6569 71.0753L101.617 71.7646L107.577 72.454C107.819 70.3655 107.953 68.2767 107.97 66.2032L101.971 66.1533ZM101.617 71.7646L102.385 77.7153C122.879 75.0706 136.063 75.7895 145.264 78.5995C154.161 81.3164 159.799 86.1301 164.961 92.958L169.747 89.3398L174.533 85.7217C168.255 77.4166 160.661 70.7543 148.769 67.1227C137.182 63.5841 122.02 63.0819 100.849 65.814L101.617 71.7646ZM169.747 89.3398L164.826 92.7723C166.537 95.225 167.958 97.8437 169.08 100.576L174.63 98.2959L180.18 96.016C178.729 92.4835 176.888 89.0904 174.668 85.9074L169.747 89.3398ZM174.63 98.2959L169.086 100.591C169.152 100.75 169.213 100.899 169.271 101.044L174.843 98.8184L180.415 96.5927C180.333 96.3881 180.252 96.1898 180.174 96.0008L174.63 98.2959ZM174.843 98.8184L169.266 101.031C169.284 101.077 169.284 101.078 169.323 101.176L174.908 98.9854L180.494 96.7943C180.489 96.7809 180.446 96.671 180.42 96.6058L174.843 98.8184ZM174.908 98.9854L169.327 101.189C170.104 103.156 170.721 105.179 171.17 107.239L177.032 105.962L182.895 104.685C182.307 101.988 181.501 99.3453 180.489 96.7818L174.908 98.9854ZM177.032 105.962L171.173 107.255C172.059 111.267 172.338 115.415 171.974 119.559L177.951 120.083L183.928 120.607C184.399 115.237 184.038 109.863 182.891 104.669L177.032 105.962ZM177.951 120.083L171.954 119.911C171.686 129.279 170.436 138.585 168.262 146.294C166.023 154.239 163.069 159.527 160.09 161.977L163.901 166.611L167.712 171.246C173.587 166.415 177.379 158.18 179.812 149.55C182.311 140.686 183.659 130.368 183.949 120.255L177.951 120.083ZM163.901 166.611H157.901V172.328H163.901H169.901V166.611H163.901ZM163.901 172.328L157.901 172.328C157.901 172.809 157.711 173.27 157.372 173.611L161.624 177.844L165.876 182.077C168.454 179.487 169.901 175.982 169.901 172.328L163.901 172.328ZM161.624 177.844L157.372 173.611C157.032 173.952 156.572 174.144 156.091 174.147L156.119 180.146L156.147 186.146C159.801 186.13 163.299 184.666 165.876 182.077L161.624 177.844ZM156.119 180.146V174.146H152.21V180.146V186.146H156.119V180.146ZM152.21 180.146V174.146C152.766 174.146 153.297 174.367 153.688 174.758L149.445 179.001L145.203 183.244C147.06 185.101 149.581 186.146 152.21 186.146V180.146ZM149.445 179.001L153.688 174.759C154.081 175.151 154.301 175.683 154.301 176.237L148.301 176.237L142.301 176.238C142.301 178.864 143.344 181.385 145.202 183.243L149.445 179.001ZM148.301 176.237H154.301V167.786H148.301H142.301V176.237H148.301ZM148.301 167.786L150.769 162.317C149.162 161.592 147.722 160.553 146.53 159.262L142.122 163.333L137.714 167.404C139.998 169.876 142.757 171.867 145.833 173.255L148.301 167.786ZM142.122 163.333L137.838 159.132C137.778 159.193 137.731 159.244 137.708 159.268C137.697 159.281 137.688 159.291 137.685 159.293C137.68 159.299 137.685 159.294 137.689 159.289C137.698 159.279 137.733 159.242 137.779 159.194C137.826 159.145 137.896 159.075 137.984 158.993L142.081 163.376L146.178 167.759C146.273 167.67 146.35 167.593 146.405 167.537C146.458 167.482 146.499 167.437 146.515 167.42C146.519 167.415 146.523 167.411 146.525 167.409C146.526 167.408 146.527 167.407 146.527 167.406C146.528 167.405 146.528 167.405 146.528 167.405C146.529 167.404 146.523 167.411 146.515 167.419C146.5 167.436 146.459 167.48 146.406 167.534L142.122 163.333ZM142.081 163.376L137.986 158.99C139.861 157.24 142.806 157.333 144.565 159.217L140.18 163.312L135.794 167.406C138.567 170.376 143.215 170.526 146.176 167.762L142.081 163.376ZM140.18 163.312L144.565 159.217C144.372 159.01 144.18 158.798 143.991 158.583L139.488 162.549L134.985 166.514C135.249 166.814 135.519 167.111 135.794 167.406L140.18 163.312ZM139.488 162.549L138.355 156.657C127.127 158.817 115.614 159.09 104.29 157.459L103.435 163.397L102.579 169.336C115.226 171.158 128.084 170.854 140.622 168.441L139.488 162.549ZM103.435 163.397L104.32 157.463C102.613 157.208 100.976 156.936 99.4332 156.649L98.333 162.547L97.2328 168.445C98.9368 168.763 100.719 169.059 102.549 169.332L103.435 163.397ZM98.333 162.547L93.3771 159.165C93.2516 159.349 93.1296 159.524 93.0093 159.693L97.8965 163.174L102.784 166.655C102.959 166.408 103.128 166.165 103.289 165.929L98.333 162.547ZM97.8965 163.174L93.0093 159.693C94.5006 157.599 97.4065 157.11 99.5007 158.602L96.0205 163.489L92.5403 168.377C95.8445 170.73 100.431 169.958 102.784 166.655L97.8965 163.174ZM96.0205 163.489L99.5015 158.602C99.7554 158.783 99.9958 158.993 100.216 159.232L95.8125 163.307L91.4087 167.382C91.7525 167.753 92.1319 168.086 92.5396 168.376L96.0205 163.489ZM95.8125 163.307L91.1378 159.545C90.4094 160.451 89.5313 161.228 88.5392 161.845L91.708 166.94L94.8768 172.035C97.0131 170.707 98.9101 169.028 100.487 167.068L95.8125 163.307ZM91.708 166.94H85.708V172.328H91.708H97.708V166.94H91.708ZM91.708 172.328L85.708 172.328C85.708 172.809 85.5175 173.27 85.1783 173.611L89.4307 177.844L93.683 182.077C96.2606 179.487 97.7079 175.982 97.708 172.328L91.708 172.328ZM89.4307 177.844L85.1783 173.611C84.8393 173.951 84.3783 174.144 83.8973 174.147L83.9248 180.146L83.9523 186.146C87.6059 186.13 91.1052 184.666 93.683 182.077L89.4307 177.844ZM83.9248 180.146V174.146H80.0166V180.146V186.146H83.9248V180.146ZM80.0166 180.146V174.146C80.5725 174.146 81.1035 174.367 81.4946 174.758L77.252 179.001L73.0093 183.244C74.8666 185.101 77.3872 186.146 80.0166 186.146V180.146ZM77.252 179.001L81.4947 174.758C81.8877 175.151 82.1074 175.684 82.1074 176.237L76.1074 176.237L70.1074 176.238C70.1077 178.864 71.1503 181.385 73.0092 183.243L77.252 179.001ZM76.1074 176.237H82.1074V166.971H76.1074H70.1074V176.237H76.1074ZM76.1074 166.971L79.3658 161.933C74.7421 158.942 70.415 151.158 70.415 140.696H64.415H58.415C58.415 153.856 63.7943 166.153 72.849 172.009L76.1074 166.971ZM64.415 140.696L69.8118 138.074C69.2061 136.828 68.6693 135.546 68.2035 134.237L62.5508 136.249L56.8981 138.261C57.5108 139.983 58.2181 141.671 59.0183 143.318L64.415 140.696ZM62.5508 136.249L68.1343 134.052C65.6305 127.688 64.2175 120.251 63.9279 113.419C63.631 106.412 64.5484 100.867 65.9805 97.9034L60.5781 95.293L55.1757 92.6826C52.4836 98.2542 51.608 106.123 51.9387 113.927C52.2769 121.907 53.9123 130.68 56.9673 138.446L62.5508 136.249ZM60.5781 95.293L61.8404 89.4272C61.3244 89.3162 60.8367 89.192 60.376 89.0576L58.6953 94.8174L57.0147 100.577C57.7539 100.793 58.5207 100.988 59.3159 101.159L60.5781 95.293ZM58.6953 94.8174L59.1416 88.834C53.923 88.4447 48.597 89.1775 44.1495 89.8846C39.3412 90.6491 35.9026 91.3017 33.2147 91.3018L33.2148 97.3018L33.2149 103.302C37.1395 103.302 41.9836 102.38 46.0337 101.736C50.4447 101.034 54.5527 100.525 58.249 100.801L58.6953 94.8174ZM33.2148 97.3018V91.3018C31.5057 91.3018 30.3531 90.8053 29.5459 90.0305C28.7067 89.2251 27.6254 87.5228 27.2471 83.991L21.2812 84.6299L15.3154 85.2688C15.9062 90.7861 17.8313 95.4198 21.2364 98.688C24.6735 101.987 29.0032 103.302 33.2148 103.302V97.3018ZM21.2812 84.6299L27.2167 83.7521C26.8843 81.5048 26.9328 79.205 27.3738 76.9505L21.4854 75.7988L15.5969 74.6472C14.8925 78.2487 14.8154 81.9212 15.3458 85.5077L21.2812 84.6299ZM21.4854 75.7988L27.4382 76.5498C27.4358 76.5689 27.4337 76.5841 27.4326 76.5929C27.432 76.5974 27.4315 76.6009 27.4312 76.6029C27.431 76.6046 27.4308 76.6059 27.4309 76.6051C27.4309 76.6049 27.4313 76.6024 27.4317 76.5996C27.4321 76.5966 27.4327 76.592 27.4335 76.5864C27.4349 76.5754 27.4372 76.558 27.4399 76.5368L21.4873 75.7842L15.5347 75.0316C15.5371 75.0128 15.5391 74.9978 15.5402 74.9893C15.5408 74.985 15.5412 74.9815 15.5415 74.9798C15.5417 74.9782 15.5419 74.9769 15.5417 74.9779C15.5417 74.9783 15.5413 74.9809 15.5409 74.9838C15.5405 74.987 15.5399 74.9917 15.5391 74.9974C15.5376 75.0087 15.5353 75.0263 15.5325 75.0479L21.4854 75.7988ZM21.4873 75.7842L27.4399 76.5368C27.8477 73.3119 30.2568 69.803 34.5108 66.278C38.6298 62.8649 43.6362 60.1386 47.4893 58.3254L44.9346 52.8965L42.3798 47.4676C38.1025 49.4804 32.0793 52.7085 26.8543 57.038C21.7644 61.2556 16.5151 67.2776 15.5347 75.0316L21.4873 75.7842ZM44.9346 52.8965L47.8853 47.6722C47.7824 47.6141 47.6915 47.5558 47.6112 47.4987L44.1357 52.3896L40.6603 57.2806C41.0817 57.58 41.523 57.8605 41.9838 58.1207L44.9346 52.8965ZM44.1357 52.3896L40.163 47.8933C40.1751 47.8826 40.184 47.8749 40.1868 47.8724C40.1882 47.8712 40.1904 47.8693 40.1824 47.8762C40.1771 47.8808 40.1646 47.8917 40.1499 47.9044C40.1348 47.9176 40.114 47.9359 40.0897 47.9576L44.082 52.4365L48.0744 56.9155C48.059 56.9292 48.0471 56.9397 48.0409 56.9451C48.0352 56.95 48.0316 56.9531 48.0353 56.9499C48.0357 56.9495 48.0403 56.9456 48.0431 56.9432C48.0467 56.94 48.0519 56.9355 48.0579 56.9303C48.0697 56.9201 48.0874 56.9046 48.1085 56.886L44.1357 52.3896ZM44.082 52.4365L47.6222 47.5922C47.385 47.4189 47.2671 47.2731 47.2095 47.1854C47.1527 47.0989 47.126 47.0259 47.1119 46.9568L41.2324 48.1533L35.3529 49.3499C36.0018 52.5382 37.841 55.3071 40.5419 57.2808L44.082 52.4365ZM41.2324 48.1533L47.0956 46.8793C47.0707 46.7648 47.005 46.2002 47.697 45.2978C48.3864 44.3987 49.8321 43.2193 52.4495 42.4472L50.752 36.6924L49.0544 30.9375C40.1268 33.571 33.53 40.963 35.3692 49.4273L41.2324 48.1533ZM50.752 36.6924L52.4433 42.4491C53.8035 42.0494 55.1643 41.671 56.5227 41.3207L55.0244 35.5107L53.5261 29.7008C52.0215 30.0889 50.5309 30.5037 49.0606 30.9357L50.752 36.6924ZM55.0244 35.5107L56.5232 41.3205C57.1534 41.158 57.7843 41.0019 58.4153 40.8528L57.0352 35.0137L55.655 29.1746C54.9433 29.3428 54.2334 29.5184 53.5257 29.7009L55.0244 35.5107ZM57.0352 35.0137L58.4143 40.853C58.6359 40.8007 58.8629 40.7485 59.1014 40.6943L57.7705 34.8438L56.4397 28.9932C56.1877 29.0505 55.9243 29.111 55.656 29.1743L57.0352 35.0137ZM57.7705 34.8438L59.1026 40.694C64.1074 39.5544 68.8464 38.9601 73.2781 39.2821L73.7129 33.2979L74.1477 27.3136C68.0966 26.874 62.0817 27.7085 56.4384 28.9935L57.7705 34.8438ZM73.7129 33.2979L77.9596 37.5364C78.5446 36.9503 79.2151 36.3717 79.979 35.8349L76.5293 30.9258L73.0796 26.0167C71.6992 26.9867 70.5 28.0234 69.4662 29.0593L73.7129 33.2979ZM76.5293 30.9258L81.7388 27.9489L81.727 27.9284L76.5176 30.9053L71.3081 33.8821L71.3198 33.9026L76.5293 30.9258ZM76.5176 30.9053L81.7271 27.9285C83.0008 30.1576 82.2301 33.0002 79.9963 34.2777L77.0176 29.0693L74.0389 23.8609C70.5159 25.8757 69.2976 30.3636 71.3081 33.882L76.5176 30.9053ZM77.0176 29.0693L79.9956 34.2781C77.8019 35.5323 75.0444 34.8034 73.7334 32.7003L78.8252 29.5264L83.917 26.3524C81.8451 23.0286 77.4927 21.8863 74.0396 23.8606L77.0176 29.0693ZM78.8252 29.5264L81.6109 34.8405C83.971 33.6033 87.2868 32.6776 91.9536 33.1066L92.5029 27.1318L93.0523 21.157C86.1361 20.5212 80.4974 21.8754 76.0395 24.2122L78.8252 29.5264ZM92.5029 27.1318L91.9554 33.1068C92.9858 33.2012 94.095 33.3648 95.2878 33.6103L96.4971 27.7334L97.7064 21.8565C96.107 21.5274 94.5554 21.2948 93.0504 21.1569L92.5029 27.1318ZM96.4971 27.7334L102.244 29.4575L102.247 29.4477L96.5 27.7236L90.753 25.9995L90.7501 26.0093L96.4971 27.7334ZM101.605 71.875L102.374 77.8256C102.395 77.8229 102.413 77.8204 102.428 77.8183C102.444 77.8162 102.457 77.8143 102.467 77.8128C102.477 77.8113 102.486 77.8101 102.491 77.8093C102.494 77.8089 102.496 77.8086 102.497 77.8084C102.499 77.8082 102.5 77.808 102.5 77.808C102.501 77.8078 102.498 77.8083 102.494 77.8088C102.49 77.8094 102.483 77.8105 102.474 77.8118C102.465 77.8131 102.453 77.8148 102.439 77.8168C102.424 77.8188 102.407 77.8212 102.387 77.8237L101.619 71.873L100.851 65.9224C100.83 65.9251 100.812 65.9276 100.796 65.9297C100.781 65.9319 100.768 65.9337 100.757 65.9352C100.747 65.9367 100.739 65.9379 100.734 65.9387C100.731 65.9391 100.729 65.9394 100.727 65.9396C100.726 65.9398 100.725 65.94 100.725 65.94C100.723 65.9402 100.727 65.9398 100.73 65.9392C100.734 65.9386 100.741 65.9376 100.75 65.9363C100.76 65.9349 100.772 65.9332 100.786 65.9313C100.8 65.9293 100.818 65.9269 100.837 65.9244L101.605 71.875ZM101.619 71.873L107.566 71.074C107.565 71.0718 107.565 71.0703 107.563 71.0566C107.562 71.0461 107.559 71.0265 107.556 71.0044L101.611 71.8145L95.6663 72.6245C95.6659 72.622 95.6659 72.6219 95.6671 72.6309C95.6675 72.6339 95.6685 72.6413 95.6693 72.6472C95.6702 72.6539 95.6713 72.6625 95.6726 72.6721L101.619 71.873ZM101.611 71.8145L95.6517 71.1198C95.6443 71.1831 95.6392 71.2352 95.6361 71.2681C95.6345 71.2849 95.6332 71.299 95.6324 71.3084C95.6316 71.3171 95.631 71.325 95.6308 71.3263C95.6306 71.3294 95.6308 71.3263 95.6312 71.322C95.6317 71.3171 95.6325 71.3076 95.6337 71.2953C95.6359 71.2714 95.6402 71.2283 95.6466 71.174L101.605 71.875L107.564 72.576C107.572 72.5117 107.577 72.4586 107.58 72.4245C107.582 72.4072 107.583 72.3926 107.584 72.3827C107.585 72.3733 107.586 72.3651 107.586 72.3631C107.586 72.3593 107.586 72.3623 107.586 72.3659C107.585 72.3702 107.585 72.3792 107.583 72.391C107.581 72.4138 107.577 72.4558 107.571 72.5091L101.611 71.8145Z" fill="white" mask="url(#path-1-outside-1_1347_5180)"/>
<path d="M76.1072 162.394H91.7077V172.328C91.7077 174.395 90.889 176.378 89.4305 177.843C87.9721 179.309 85.9927 180.136 83.9254 180.146H80.0163C78.9795 180.146 77.9852 179.734 77.2521 179.001C76.519 178.268 76.1072 177.274 76.1072 176.237V162.394Z" fill="#6F91B9"/>
<path d="M148.301 162.394H163.901V172.328C163.901 174.395 163.083 176.378 161.624 177.843C160.166 179.309 158.186 180.136 156.119 180.146H152.21C151.173 180.146 150.179 179.734 149.446 179.001C148.713 178.268 148.301 177.274 148.301 176.237V162.394Z" fill="#6F91B9"/>
<path d="M50.7517 50.4279C50.7517 50.4279 23.4598 60.1828 21.4873 75.7833C19.5148 91.3838 25.6474 97.3013 33.2146 97.3013C40.7817 97.3013 52.7242 93.177 62.479 95.3646C72.2338 97.5523 76.1071 64.1277 76.1071 64.1277C76.1071 64.1277 72.2338 39.92 50.7517 50.4279Z" fill="#4B98E6"/>
<path d="M23.6761 85.8969C25.6486 70.2964 52.9405 60.5416 52.9405 60.5416C66.1023 54.1221 72.6653 60.5416 75.7496 66.7459C76.0006 65.0962 76.1082 64.0562 76.1082 64.0562C76.1082 64.0562 72.235 39.9202 50.7528 50.4281C50.7528 50.4281 23.4609 60.1829 21.4884 75.7835C20.4443 81.1057 21.0835 86.621 23.3174 91.5633C23.3218 89.669 23.4415 87.7767 23.6761 85.8969Z" fill="#74BAFF"/>
<path d="M47.0933 71.1129C50.9905 71.1129 54.1497 67.9536 54.1497 64.0564C54.1497 60.1593 50.9905 57 47.0933 57C43.1962 57 40.0369 60.1593 40.0369 64.0564C40.0369 67.9536 43.1962 71.1129 47.0933 71.1129Z" fill="white"/>
<path d="M46.9839 68.3379C49.3203 68.3379 51.2144 66.4439 51.2144 64.1074C51.2144 61.771 49.3203 59.877 46.9839 59.877C44.6475 59.877 42.7534 61.771 42.7534 64.1074C42.7534 66.4439 44.6475 68.3379 46.9839 68.3379Z" fill="black"/>
<path d="M169.746 89.448C158.306 74.3137 143.279 66.4955 101.606 71.8749C103.04 59.6814 100.386 47.99 91.851 40.6739C79.5499 30.2018 64.6666 32.6047 50.7516 36.6931C38.594 40.2794 37.8409 52.2936 48.815 54.2302C59.7892 56.1668 62.4789 54.2302 62.4789 54.2302L60.5782 69.9383C58.0724 69.9076 55.6157 70.634 53.5297 72.0226C51.4436 73.4111 49.8254 75.3971 48.8868 77.7207C46.3046 85.1802 49.2454 92.855 60.5782 95.2937C56.4539 103.829 56.9919 122.119 62.5507 136.25C63.09 137.765 63.7126 139.25 64.4156 140.697C64.4156 156.656 73.2738 169.387 83.9252 169.387C86.452 169.255 88.9137 168.539 91.1166 167.294C93.3196 166.05 95.2037 164.311 96.6208 162.215C98.7367 162.645 101.032 163.039 103.435 163.398C115.984 165.206 128.752 164.806 141.163 162.215C143.151 164.731 145.74 166.707 148.692 167.961C151.644 169.214 154.863 169.705 158.055 169.387C171.073 167.235 177.636 142.167 177.995 118.174C178.583 107.941 175.674 97.8107 169.746 89.448Z" fill="#C0DBFB"/>
<path d="M44.0822 52.4367C45.9929 50.7336 48.2782 49.5049 50.7527 48.8504C64.6677 44.6903 79.4434 42.2874 91.7445 52.7595C95.1645 55.949 97.8428 59.8503 99.5903 64.188C101.338 68.5258 102.112 73.1942 101.858 77.8638C101.845 78.5985 101.987 79.3276 102.274 80.0039C102.561 80.6802 102.988 81.2884 103.526 81.789C104.063 82.2897 104.701 82.6715 105.396 82.9097C106.091 83.1479 106.828 83.2371 107.56 83.1716C144.75 79.2625 158.881 86.9013 169.747 101.247C174.216 107.423 176.963 114.676 177.709 122.263C179.276 110.678 176.435 98.928 169.747 89.34C158.307 74.2057 143.28 66.3875 101.607 71.767C103.041 59.5735 100.388 47.8821 91.8521 40.566C79.551 30.2015 64.6677 32.6043 50.7527 36.6927C40.7828 39.7411 38.4875 48.3483 44.0822 52.4367Z" fill="#E0EEFF"/>
<path d="M60.5787 69.9384C58.073 69.9077 55.6163 70.6341 53.5302 72.0227C51.4442 73.4112 49.8259 75.3973 48.8873 77.7208C48.1941 79.4506 47.8925 81.3124 48.0041 83.1726C48.1157 85.0328 48.6378 86.8452 49.5328 88.4798C50.2679 86.9892 51.3141 85.6736 52.601 84.6219C53.8878 83.5701 55.3853 82.8066 56.9924 82.383C58.0135 82.1343 58.9217 81.5505 59.5718 80.7248C60.222 79.8991 60.5765 78.8793 60.5787 77.8284V69.9384Z" fill="#C0DBFB"/>
<path d="M69.2224 39.9203C69.2224 39.9203 75.7137 22.3473 98.4868 28.193C116.598 32.7476 117.961 60.9361 102.396 65.3832C88.9114 68.9695 86.7954 57.565 86.7954 57.565C86.7954 57.565 97.8413 57.565 96.5502 49.7827C95.2592 42.0003 84.5002 44.5825 82.8863 49.7827C72.6653 53.0821 69.2224 39.9203 69.2224 39.9203Z" fill="#E6C94E"/>
<path d="M98.4868 34.3615C102.359 35.488 105.801 37.7585 108.361 40.8751C110.921 43.9918 112.48 47.8092 112.832 51.8269C114.123 42.2873 109.246 30.9186 98.4868 28.193C75.7137 22.3473 69.2224 39.8844 69.2224 39.8844C69.5772 41.1204 70.0454 42.321 70.6211 43.4708C73.526 38.7727 81.4518 30.0938 98.4868 34.3615Z" fill="#F9DF73"/>
<path d="M77.6858 30.2373L86.544 45.7302" stroke="#A98E20" stroke-width="2.68975" stroke-linecap="round" stroke-linejoin="round"/>
<path d="M97.8046 28.0498L93.501 45.2642" stroke="#A98E20" stroke-width="2.68975" stroke-linecap="round" stroke-linejoin="round"/>
<path d="M113.047 46.2686L96.2988 48.6355" stroke="#A98E20" stroke-width="2.68975" stroke-linecap="round" stroke-linejoin="round"/>
<path d="M103.435 64.0558L95.6172 56.2734" stroke="#A98E20" stroke-width="2.68975" stroke-linecap="round" stroke-linejoin="round"/>
<path d="M103.615 140.158C103.807 148.112 101.416 155.913 96.8008 162.393" stroke="#81AADB" stroke-width="2.68975" stroke-linecap="round" stroke-linejoin="round"/>
<path d="M141.163 162.393C136.887 157.814 133.958 152.142 132.699 146.004" stroke="#81AADB" stroke-width="2.68975" stroke-linecap="round" stroke-linejoin="round"/>
</svg>
