<svg width="200" height="200" viewBox="0 0 200 200" fill="none" xmlns="http://www.w3.org/2000/svg">
<mask id="path-1-outside-1_1062_17390" maskUnits="userSpaceOnUse" x="22.8672" y="9.99963" width="155" height="180" fill="black">
<rect fill="white" x="22.8672" y="9.99963" width="155" height="180"/>
<path d="M98.7053 16.0125C102.266 15.895 105.807 16.5839 109.065 18.0262C112.322 19.4685 115.212 21.6273 117.519 24.3426C125.817 20.3202 140.26 25.2932 140.26 38.7225C140.26 38.7809 140.258 38.8393 140.258 38.8973C140.258 38.9349 140.26 38.9728 140.26 39.0106C140.314 41.7448 139.807 44.4612 138.771 46.992C138.743 46.9409 138.714 46.8905 138.686 46.8397C136.58 51.5577 132.974 53.3888 131.803 53.8768L131.423 54.0213V62.6112C133.898 68.0496 135.293 74.2684 135.293 80.9871C135.293 83.1582 135.15 85.2904 134.866 87.3729C137.635 89.3231 140.104 91.2833 142.299 93.2449C144.825 92.7832 147.9 92.475 149.999 92.9998C151.702 93.4256 154.581 98.0214 157.251 103.698L165.482 103.943C170.632 106.06 172.645 111.587 169.457 114.86C167.707 116.656 165.556 118.474 163.045 119.891C163.491 121.981 163.677 123.758 163.499 125C163.095 127.828 160.463 128.989 157.356 129.296C154.883 143.613 144.154 154.389 141.193 156.714C139.084 158.369 136.959 159.86 134.826 161.2C132.677 162.595 130.394 163.859 127.991 164.98C126.379 165.755 124.766 166.452 123.156 167.073L123.725 176.693L131.044 174.721C132.168 174.654 133.207 175.048 133.988 175.741C134.768 176.434 135.289 177.426 135.355 178.544C135.487 180.778 133.766 182.716 131.531 182.848L120.843 183.48C119.155 183.58 117.692 182.281 117.592 180.593L116.912 169.124C116.682 169.187 116.451 169.249 116.221 169.309C116.189 169.461 116.159 169.612 116.126 169.761C103.172 173.122 90.6469 172.061 80.1096 169.14L79.4329 180.593C79.333 182.281 77.8691 183.58 76.1809 183.48L65.4934 182.848C63.2589 182.716 61.538 180.778 61.6702 178.544C61.7363 177.427 62.2562 176.434 63.0364 175.741C63.8167 175.048 64.8573 174.654 65.9807 174.721L73.2991 176.693L73.8645 167.123C66.8894 164.537 61.1205 161.255 57.1458 158.244C50.0982 152.905 43.1255 142.063 42.0588 129.331C38.7733 129.088 35.9212 127.953 35.4993 125C35.3094 123.67 35.5347 121.728 36.051 119.446C33.8637 118.103 31.9695 116.472 30.3977 114.86C27.2103 111.587 29.2244 106.06 34.3743 103.943L41.7346 103.723C44.4081 98.0353 47.2937 93.4268 48.9993 92.9998C51.1733 92.4563 54.3939 92.8052 56.967 93.2938C58.0152 92.2859 59.112 91.3166 60.2532 90.3875C61.0437 89.7237 61.8634 89.0633 62.7141 88.408C62.7141 88.408 62.733 88.4247 62.7698 88.4578C62.8284 88.4155 62.8868 88.373 62.9456 88.3309C62.5771 85.9487 62.3801 83.4892 62.3801 80.9871C62.3801 73.9054 63.9303 67.3786 66.6624 61.7362C66.2186 62.0988 65.9856 62.4744 65.9856 62.8582V54.0203C65.9181 53.9988 61.2436 52.4896 58.7219 46.8387C58.6936 46.8897 58.6648 46.9407 58.637 46.992C57.6008 44.4612 57.0945 41.7448 57.1487 39.0106C57.1487 38.963 57.1503 38.9153 57.1506 38.868C57.1504 38.8197 57.1497 38.771 57.1497 38.7225C57.1499 25.2932 71.5925 20.3202 79.8909 24.3426C82.1973 21.6273 85.0874 19.4685 88.345 18.0262C91.6027 16.5838 95.1445 15.8949 98.7053 16.0125Z"/>
</mask>
<path d="M98.7053 16.0125C102.266 15.895 105.807 16.5839 109.065 18.0262C112.322 19.4685 115.212 21.6273 117.519 24.3426C125.817 20.3202 140.26 25.2932 140.26 38.7225C140.26 38.7809 140.258 38.8393 140.258 38.8973C140.258 38.9349 140.26 38.9728 140.26 39.0106C140.314 41.7448 139.807 44.4612 138.771 46.992C138.743 46.9409 138.714 46.8905 138.686 46.8397C136.58 51.5577 132.974 53.3888 131.803 53.8768L131.423 54.0213V62.6112C133.898 68.0496 135.293 74.2684 135.293 80.9871C135.293 83.1582 135.15 85.2904 134.866 87.3729C137.635 89.3231 140.104 91.2833 142.299 93.2449C144.825 92.7832 147.9 92.475 149.999 92.9998C151.702 93.4256 154.581 98.0214 157.251 103.698L165.482 103.943C170.632 106.06 172.645 111.587 169.457 114.86C167.707 116.656 165.556 118.474 163.045 119.891C163.491 121.981 163.677 123.758 163.499 125C163.095 127.828 160.463 128.989 157.356 129.296C154.883 143.613 144.154 154.389 141.193 156.714C139.084 158.369 136.959 159.86 134.826 161.2C132.677 162.595 130.394 163.859 127.991 164.98C126.379 165.755 124.766 166.452 123.156 167.073L123.725 176.693L131.044 174.721C132.168 174.654 133.207 175.048 133.988 175.741C134.768 176.434 135.289 177.426 135.355 178.544C135.487 180.778 133.766 182.716 131.531 182.848L120.843 183.48C119.155 183.58 117.692 182.281 117.592 180.593L116.912 169.124C116.682 169.187 116.451 169.249 116.221 169.309C116.189 169.461 116.159 169.612 116.126 169.761C103.172 173.122 90.6469 172.061 80.1096 169.14L79.4329 180.593C79.333 182.281 77.8691 183.58 76.1809 183.48L65.4934 182.848C63.2589 182.716 61.538 180.778 61.6702 178.544C61.7363 177.427 62.2562 176.434 63.0364 175.741C63.8167 175.048 64.8573 174.654 65.9807 174.721L73.2991 176.693L73.8645 167.123C66.8894 164.537 61.1205 161.255 57.1458 158.244C50.0982 152.905 43.1255 142.063 42.0588 129.331C38.7733 129.088 35.9212 127.953 35.4993 125C35.3094 123.67 35.5347 121.728 36.051 119.446C33.8637 118.103 31.9695 116.472 30.3977 114.86C27.2103 111.587 29.2244 106.06 34.3743 103.943L41.7346 103.723C44.4081 98.0353 47.2937 93.4268 48.9993 92.9998C51.1733 92.4563 54.3939 92.8052 56.967 93.2938C58.0152 92.2859 59.112 91.3166 60.2532 90.3875C61.0437 89.7237 61.8634 89.0633 62.7141 88.408C62.7141 88.408 62.733 88.4247 62.7698 88.4578C62.8284 88.4155 62.8868 88.373 62.9456 88.3309C62.5771 85.9487 62.3801 83.4892 62.3801 80.9871C62.3801 73.9054 63.9303 67.3786 66.6624 61.7362C66.2186 62.0988 65.9856 62.4744 65.9856 62.8582V54.0203C65.9181 53.9988 61.2436 52.4896 58.7219 46.8387C58.6936 46.8897 58.6648 46.9407 58.637 46.992C57.6008 44.4612 57.0945 41.7448 57.1487 39.0106C57.1487 38.963 57.1503 38.9153 57.1506 38.868C57.1504 38.8197 57.1497 38.771 57.1497 38.7225C57.1499 25.2932 71.5925 20.3202 79.8909 24.3426C82.1973 21.6273 85.0874 19.4685 88.345 18.0262C91.6027 16.5838 95.1445 15.8949 98.7053 16.0125Z" fill="#F4F4F4"/>
<path d="M98.7053 16.0125L98.5072 22.0092C98.6392 22.0136 98.7713 22.0136 98.9033 22.0093L98.7053 16.0125ZM109.065 18.0262L111.494 12.5399L111.494 12.5399L109.065 18.0262ZM117.519 24.3426L112.946 28.2269C114.717 30.312 117.674 30.935 120.136 29.7418L117.519 24.3426ZM140.26 38.7225L146.26 38.7225L146.26 38.7224L140.26 38.7225ZM140.258 38.8973L134.258 38.8576C134.258 38.883 134.258 38.9083 134.258 38.9336L140.258 38.8973ZM140.26 39.0106H134.26C134.26 39.0502 134.26 39.0898 134.261 39.1295L140.26 39.0106ZM138.771 46.992L133.497 49.853C134.602 51.8902 136.782 53.1088 139.096 52.9832C141.41 52.8576 143.445 51.4103 144.323 49.2654L138.771 46.992ZM138.686 46.8397L143.93 43.924C142.825 41.9377 140.694 40.7459 138.423 40.8454C136.153 40.945 134.133 42.3187 133.207 44.394L138.686 46.8397ZM131.803 53.8768L133.937 59.4846C133.995 59.4625 134.053 59.4395 134.11 59.4155L131.803 53.8768ZM131.423 54.0213L129.29 48.4135C126.962 49.2991 125.423 51.5307 125.423 54.0213H131.423ZM131.423 62.6112H125.423C125.423 63.4686 125.607 64.316 125.962 65.0964L131.423 62.6112ZM135.293 80.9871L141.293 80.9871V80.9871H135.293ZM134.866 87.3729L128.921 86.5625C128.619 88.7831 129.579 90.9873 131.411 92.278L134.866 87.3729ZM142.299 93.2449L138.301 97.719C139.682 98.9531 141.556 99.4802 143.378 99.1471L142.299 93.2449ZM149.999 92.9998L151.454 87.179L151.454 87.1789L149.999 92.9998ZM157.251 103.698L151.822 106.252C152.784 108.297 154.814 109.628 157.073 109.695L157.251 103.698ZM165.482 103.943L167.763 98.3936C167.094 98.119 166.382 97.9673 165.66 97.9458L165.482 103.943ZM169.457 114.86L173.754 119.049L173.756 119.046L169.457 114.86ZM163.045 119.891L160.095 114.667C157.811 115.957 156.63 118.58 157.177 121.145L163.045 119.891ZM163.499 125L169.439 125.848L169.439 125.848L163.499 125ZM157.356 129.296L156.766 123.325C154.081 123.59 151.903 125.615 151.443 128.275L157.356 129.296ZM141.193 156.714L144.897 161.433L144.897 161.433L141.193 156.714ZM134.826 161.2L131.634 156.12C131.609 156.136 131.585 156.151 131.56 156.167L134.826 161.2ZM127.991 164.98L125.455 159.543C125.434 159.553 125.413 159.562 125.393 159.572L127.991 164.98ZM123.156 167.073L120.996 161.475C118.56 162.415 117.012 164.821 117.166 167.428L123.156 167.073ZM123.725 176.693L117.735 177.048C117.842 178.849 118.754 180.507 120.218 181.562C121.682 182.616 123.544 182.956 125.286 182.486L123.725 176.693ZM131.044 174.721L130.69 168.731C130.282 168.755 129.877 168.821 129.483 168.927L131.044 174.721ZM133.988 175.741L137.972 171.255L137.972 171.255L133.988 175.741ZM135.355 178.544L141.344 178.19L141.344 178.189L135.355 178.544ZM131.531 182.848L131.886 188.838L131.886 188.838L131.531 182.848ZM120.843 183.48L121.197 189.47L121.197 189.47L120.843 183.48ZM117.592 180.593L123.582 180.238L123.582 180.238L117.592 180.593ZM116.912 169.124L122.902 168.769C122.795 166.964 121.88 165.304 120.411 164.249C118.942 163.195 117.076 162.859 115.332 163.336L116.912 169.124ZM116.221 169.309L114.705 163.504C112.511 164.077 110.827 165.838 110.353 168.056L116.221 169.309ZM116.126 169.761L117.633 175.568C119.824 175 121.508 173.247 121.989 171.036L116.126 169.761ZM80.1096 169.14L81.7121 163.358C79.9658 162.874 78.0942 163.206 76.62 164.26C75.1458 165.314 74.227 166.977 74.1201 168.786L80.1096 169.14ZM79.4329 180.593L85.4224 180.947L85.4224 180.947L79.4329 180.593ZM76.1809 183.48L76.5353 177.491L76.535 177.491L76.1809 183.48ZM65.4934 182.848L65.139 188.838L65.1393 188.838L65.4934 182.848ZM61.6702 178.544L55.6806 178.189L55.6806 178.19L61.6702 178.544ZM63.0364 175.741L59.0518 171.255L59.0516 171.255L63.0364 175.741ZM65.9807 174.721L67.5423 168.927C67.1476 168.821 66.7431 168.755 66.3351 168.731L65.9807 174.721ZM73.2991 176.693L71.7375 182.486C73.4801 182.956 75.3416 182.616 76.806 181.562C78.2704 180.507 79.1822 178.849 79.2886 177.047L73.2991 176.693ZM73.8645 167.123L79.8541 167.477C80.0097 164.842 78.4251 162.415 75.9501 161.497L73.8645 167.123ZM57.1458 158.244L53.5226 163.027L53.5226 163.027L57.1458 158.244ZM42.0588 129.331L48.0379 128.83C47.7916 125.89 45.444 123.565 42.5014 123.347L42.0588 129.331ZM35.4993 125L29.5595 125.848L29.5596 125.848L35.4993 125ZM36.051 119.446L41.903 120.77C42.47 118.265 41.3792 115.677 39.1899 114.333L36.051 119.446ZM30.3977 114.86L26.099 119.046L26.1014 119.048L30.3977 114.86ZM34.3743 103.943L34.1952 97.9459C33.4734 97.9674 32.7614 98.1191 32.0935 98.3936L34.3743 103.943ZM41.7346 103.723L41.9137 109.721C44.1733 109.653 46.2032 108.322 47.1648 106.276L41.7346 103.723ZM48.9993 92.9998L47.5441 87.179L47.5423 87.1794L48.9993 92.9998ZM56.967 93.2938L55.8477 99.1884C57.7575 99.5511 59.7247 98.966 61.1259 97.6186L56.967 93.2938ZM60.2532 90.3875L64.0414 95.0404C64.065 95.0212 64.0884 95.0019 64.1116 94.9823L60.2532 90.3875ZM62.7141 88.408L66.6832 83.9084C64.5285 82.0078 61.3289 81.9014 59.0527 83.6547L62.7141 88.408ZM62.7698 88.4578L58.7529 92.9148C60.8533 94.8078 63.9903 94.9774 66.2826 93.322L62.7698 88.4578ZM62.9456 88.3309L66.4394 93.2087C68.2791 91.8909 69.221 89.6501 68.875 87.4137L62.9456 88.3309ZM62.3801 80.9871L56.3801 80.9871L56.3801 80.9871L62.3801 80.9871ZM66.6624 61.7362L72.0626 64.3509C73.2895 61.8172 72.5897 58.7711 70.3801 57.0268C68.1705 55.2824 65.0452 55.3089 62.8654 57.0904L66.6624 61.7362ZM59.9856 62.8582C59.9856 66.1719 62.6719 68.8582 65.9856 68.8582C69.2993 68.8582 71.9856 66.1719 71.9856 62.8582H59.9856ZM65.9856 54.0203H71.9856C71.9856 51.4095 70.2972 49.0983 67.81 48.3044L65.9856 54.0203ZM58.7219 46.8387L64.2011 44.3937C63.275 42.3182 61.2557 40.9442 58.9851 40.8445C56.7145 40.7448 54.5826 41.9365 53.4781 43.9229L58.7219 46.8387ZM58.637 46.992L53.0843 49.2654C53.9625 51.4103 55.9975 52.8576 58.3118 52.9832C60.6261 53.1088 62.8058 51.8902 63.911 49.8529L58.637 46.992ZM57.1487 39.0106L63.1475 39.1295C63.1483 39.0898 63.1487 39.0502 63.1487 39.0106L57.1487 39.0106ZM57.1506 38.868L63.1505 38.9138C63.1507 38.8875 63.1507 38.8613 63.1505 38.835L57.1506 38.868ZM57.1497 38.7225L51.1497 38.7224V38.7225H57.1497ZM79.8909 24.3426L77.2738 29.7418C79.7356 30.935 82.6927 30.312 84.4638 28.2269L79.8909 24.3426ZM88.345 18.0262L85.9159 12.5399L85.9158 12.5399L88.345 18.0262ZM98.7053 16.0125L98.9033 22.0093C101.56 21.9216 104.203 22.4355 106.636 23.5125L109.065 18.0262L111.494 12.5399C107.411 10.7322 102.972 9.86841 98.5074 10.0158L98.7053 16.0125ZM109.065 18.0262L106.636 23.5125C109.068 24.5894 111.225 26.2008 112.946 28.2269L117.519 24.3426L122.092 20.4582C119.2 17.0538 115.577 14.3477 111.494 12.5399L109.065 18.0262ZM117.519 24.3426L120.136 29.7418C122.348 28.6697 126.025 28.6416 129.231 30.3105C132.141 31.8251 134.26 34.5109 134.26 38.7226L140.26 38.7225L146.26 38.7224C146.26 29.5048 141.157 22.9895 134.771 19.6659C128.682 16.4965 120.988 15.9931 114.902 18.9434L117.519 24.3426ZM140.26 38.7225H134.26C134.26 38.7025 134.26 38.6924 134.26 38.7194C134.26 38.7273 134.259 38.7512 134.259 38.7708C134.259 38.7932 134.258 38.8234 134.258 38.8576L140.258 38.8973L146.258 38.9369C146.258 38.9404 146.258 38.9449 146.258 38.9007C146.259 38.8694 146.26 38.8008 146.26 38.7225H140.26ZM140.258 38.8973L134.258 38.9336C134.258 38.9817 134.259 39.0221 134.26 39.0487C134.26 39.0623 134.26 39.074 134.26 39.0822C134.261 39.0892 134.261 39.0981 134.261 39.0998C134.261 39.1083 134.261 39.0999 134.261 39.0872C134.26 39.0732 134.26 39.046 134.26 39.0106H140.26H146.26C146.26 38.9563 146.259 38.9102 146.259 38.8773C146.258 38.8456 146.258 38.8184 146.257 38.808C146.257 38.7917 146.257 38.7973 146.257 38.8023C146.257 38.8101 146.258 38.8316 146.258 38.861L140.258 38.8973ZM140.26 39.0106L134.261 39.1295C134.299 41.0433 133.944 42.9455 133.218 44.7186L138.771 46.992L144.323 49.2654C145.67 45.9768 146.329 42.4463 146.259 38.8917L140.26 39.0106ZM138.771 46.992L144.045 44.131C144.009 44.0649 143.977 44.008 143.959 43.9763C143.935 43.9328 143.935 43.9336 143.93 43.924L138.686 46.8397L133.442 49.7553C133.456 49.78 133.468 49.8019 133.477 49.818C133.481 49.826 133.486 49.8339 133.489 49.8397C133.493 49.8461 133.495 49.8508 133.498 49.8551C133.508 49.8741 133.505 49.868 133.497 49.853L138.771 46.992ZM138.686 46.8397L133.207 44.394C131.951 47.2069 129.868 48.1833 129.496 48.338L131.803 53.8768L134.11 59.4155C136.081 58.5944 141.208 55.9085 144.165 49.2853L138.686 46.8397ZM131.803 53.8768L129.669 48.2689L129.29 48.4135L131.423 54.0213L133.557 59.6291L133.937 59.4846L131.803 53.8768ZM131.423 54.0213H125.423V62.6112H131.423H137.423V54.0213H131.423ZM131.423 62.6112L125.962 65.0964C128.073 69.7349 129.293 75.104 129.293 80.9871H135.293H141.293C141.293 73.4327 139.723 66.3643 136.884 60.1259L131.423 62.6112ZM135.293 80.9871L129.293 80.9871C129.293 82.8949 129.168 84.7562 128.921 86.5625L134.866 87.3729L140.811 88.1833C141.133 85.8246 141.293 83.4215 141.293 80.9871L135.293 80.9871ZM134.866 87.3729L131.411 92.278C134.005 94.1057 136.291 95.9231 138.301 97.719L142.299 93.2449L146.297 88.7709C143.916 86.6435 141.264 84.5406 138.322 82.4678L134.866 87.3729ZM142.299 93.2449L143.378 99.1471C145.863 98.6929 147.808 98.6366 148.544 98.8207L149.999 92.9998L151.454 87.1789C147.992 86.3135 143.787 86.8735 141.22 87.3428L142.299 93.2449ZM149.999 92.9998L148.544 98.8207C147.769 98.627 147.305 98.3046 147.188 98.2207C147.042 98.1161 147.023 98.0773 147.128 98.1877C147.344 98.4152 147.729 98.8905 148.26 99.6932C149.309 101.276 150.557 103.563 151.822 106.252L157.251 103.698L162.681 101.144C161.275 98.1567 159.749 95.307 158.265 93.0665C157.53 91.9575 156.709 90.8491 155.823 89.9178C155.125 89.1842 153.629 87.7226 151.454 87.179L149.999 92.9998ZM157.251 103.698L157.073 109.695L165.303 109.941L165.482 103.943L165.66 97.9458L157.43 97.7007L157.251 103.698ZM165.482 103.943L163.201 109.493C164.365 109.971 164.84 110.697 164.958 111.021C165.013 111.17 164.972 111.164 164.997 111.025C165.027 110.855 165.114 110.72 165.159 110.674L169.457 114.86L173.756 119.046C177.189 115.521 177.65 110.804 176.234 106.915C174.855 103.127 171.749 100.032 167.763 98.3936L165.482 103.943ZM169.457 114.86L165.161 110.672C163.696 112.174 161.988 113.598 160.095 114.667L163.045 119.891L165.996 125.116C169.123 123.35 171.717 121.138 173.754 119.049L169.457 114.86ZM163.045 119.891L157.177 121.145C157.366 122.029 157.479 122.754 157.532 123.318C157.587 123.914 157.558 124.161 157.56 124.151L163.499 125L169.439 125.848C169.772 123.515 169.391 120.879 168.913 118.638L163.045 119.891ZM163.499 125L157.56 124.151C157.584 123.981 157.669 123.702 157.864 123.418C158.049 123.15 158.231 123.024 158.273 122.998C158.301 122.98 158.21 123.042 157.929 123.121C157.653 123.2 157.268 123.275 156.766 123.325L157.356 129.296L157.945 135.267C159.958 135.068 162.418 134.551 164.61 133.189C167.021 131.689 168.956 129.229 169.439 125.848L163.499 125ZM157.356 129.296L151.443 128.275C150.405 134.285 147.59 139.733 144.552 144.048C141.493 148.391 138.465 151.227 137.488 151.994L141.193 156.714L144.897 161.433C146.882 159.876 150.699 156.161 154.364 150.956C158.049 145.722 161.834 138.624 163.268 130.317L157.356 129.296ZM141.193 156.714L137.488 151.994C135.543 153.521 133.589 154.891 131.634 156.12L134.826 161.2L138.019 166.28C140.329 164.828 142.625 163.217 144.897 161.433L141.193 156.714ZM134.826 161.2L131.56 156.167C129.649 157.407 127.61 158.537 125.455 159.543L127.991 164.98L130.528 170.418C133.178 169.182 135.705 167.782 138.093 166.233L134.826 161.2ZM127.991 164.98L125.393 159.572C123.923 160.279 122.457 160.912 120.996 161.475L123.156 167.073L125.315 172.671C127.076 171.992 128.835 171.232 130.59 170.388L127.991 164.98ZM123.156 167.073L117.166 167.428L117.735 177.048L123.725 176.693L129.714 176.339L129.145 166.719L123.156 167.073ZM123.725 176.693L125.286 182.486L132.606 180.514L131.044 174.721L129.483 168.927L122.163 170.9L123.725 176.693ZM131.044 174.721L131.399 180.71C130.868 180.741 130.363 180.546 130.003 180.227L133.988 175.741L137.972 171.255C136.052 169.55 133.467 168.567 130.69 168.731L131.044 174.721ZM133.988 175.741L130.003 180.227C129.658 179.92 129.398 179.453 129.365 178.898L135.355 178.544L141.344 178.189C141.179 175.4 139.878 172.948 137.972 171.255L133.988 175.741ZM135.355 178.544L129.365 178.898C129.302 177.826 130.103 176.923 131.177 176.859L131.531 182.848L131.886 188.838C137.429 188.51 141.672 183.731 141.344 178.19L135.355 178.544ZM131.531 182.848L131.177 176.859L120.489 177.491L120.843 183.48L121.197 189.47L131.886 188.838L131.531 182.848ZM120.843 183.48L120.489 177.491C122.108 177.395 123.486 178.618 123.582 180.238L117.592 180.593L111.603 180.947C111.898 185.944 116.202 189.765 121.197 189.47L120.843 183.48ZM117.592 180.593L123.582 180.238L122.902 168.769L116.912 169.124L110.923 169.479L111.603 180.948L117.592 180.593ZM116.912 169.124L115.332 163.336C115.107 163.397 114.902 163.453 114.705 163.504L116.221 169.309L117.737 175.115C118 175.046 118.257 174.976 118.493 174.912L116.912 169.124ZM116.221 169.309L110.353 168.056C110.279 168.403 110.311 168.268 110.263 168.485L116.126 169.761L121.989 171.036C122.012 170.929 122.033 170.828 122.049 170.753C122.066 170.669 122.077 170.616 122.088 170.563L116.221 169.309ZM116.126 169.761L114.619 163.953C102.887 166.998 91.4542 166.058 81.7121 163.358L80.1096 169.14L78.5071 174.922C89.8396 178.063 103.457 179.247 117.633 175.568L116.126 169.761ZM80.1096 169.14L74.1201 168.786L73.4433 180.239L79.4329 180.593L85.4224 180.947L86.0992 169.494L80.1096 169.14ZM79.4329 180.593L73.4433 180.238C73.5393 178.616 74.9181 177.395 76.5353 177.491L76.1809 183.48L75.8265 189.47C80.8202 189.765 85.1266 185.946 85.4224 180.947L79.4329 180.593ZM76.1809 183.48L76.535 177.491L65.8475 176.859L65.4934 182.848L65.1393 188.838L75.8268 189.47L76.1809 183.48ZM65.4934 182.848L65.8478 176.859C66.9224 176.923 67.7231 177.826 67.6597 178.898L61.6702 178.544L55.6806 178.19C55.353 183.731 59.5954 188.51 65.139 188.838L65.4934 182.848ZM61.6702 178.544L67.6597 178.898C67.627 179.45 67.3688 179.918 67.0211 180.227L63.0364 175.741L59.0516 171.255C57.1435 172.95 55.8455 175.403 55.6806 178.189L61.6702 178.544ZM63.0364 175.741L67.021 180.227C66.6603 180.547 66.1554 180.741 65.6263 180.71L65.9807 174.721L66.3351 168.731C63.5592 168.567 60.973 169.549 59.0518 171.255L63.0364 175.741ZM65.9807 174.721L64.4192 180.514L71.7375 182.486L73.2991 176.693L74.8606 170.9L67.5423 168.927L65.9807 174.721ZM73.2991 176.693L79.2886 177.047L79.8541 167.477L73.8645 167.123L67.875 166.769L67.3095 176.339L73.2991 176.693ZM73.8645 167.123L75.9501 161.497C69.4801 159.099 64.2377 156.089 60.7689 153.461L57.1458 158.244L53.5226 163.027C58.0032 166.421 64.2986 169.976 71.7789 172.749L73.8645 167.123ZM57.1458 158.244L60.7689 153.461C55.0536 149.132 48.9598 139.835 48.0379 128.83L42.0588 129.331L36.0798 129.832C37.2912 144.292 45.1428 156.678 53.5226 163.027L57.1458 158.244ZM42.0588 129.331L42.5014 123.347C41.9474 123.306 41.509 123.234 41.1822 123.151C40.8497 123.067 40.7177 122.993 40.7183 122.993C40.7328 123.002 40.9154 123.113 41.1107 123.384C41.3204 123.676 41.413 123.97 41.439 124.151L35.4993 125L29.5596 125.848C30.0673 129.402 32.1678 131.905 34.6921 133.37C36.9792 134.699 39.5369 135.161 41.6163 135.315L42.0588 129.331ZM35.4993 125L41.439 124.152C41.4395 124.155 41.4085 123.872 41.4783 123.199C41.5442 122.563 41.6811 121.751 41.903 120.77L36.051 119.446L30.199 118.122C29.6536 120.532 29.2064 123.375 29.5595 125.848L35.4993 125ZM36.051 119.446L39.1899 114.333C37.5202 113.308 36.0072 112.019 34.694 110.672L30.3977 114.86L26.1014 119.048C27.9317 120.926 30.2073 122.899 32.9121 124.56L36.051 119.446ZM30.3977 114.86L34.6964 110.674C34.7408 110.72 34.8283 110.856 34.8584 111.026C34.883 111.165 34.8428 111.171 34.897 111.022C35.0151 110.698 35.4911 109.971 36.6551 109.493L34.3743 103.943L32.0935 98.3936C28.1075 100.032 25.0015 103.127 23.622 106.914C22.2053 110.803 22.6661 115.521 26.099 119.046L30.3977 114.86ZM34.3743 103.943L34.5533 109.941L41.9137 109.721L41.7346 103.723L41.5556 97.7261L34.1952 97.9459L34.3743 103.943ZM41.7346 103.723L47.1648 106.276C48.4312 103.581 49.6817 101.289 50.7329 99.7008C51.266 98.8956 51.6519 98.4182 51.8697 98.189C51.9755 98.0778 51.9563 98.1159 51.8115 98.2201C51.6956 98.3035 51.2311 98.6263 50.4563 98.8202L48.9993 92.9998L47.5423 87.1794C45.3665 87.7241 43.8695 89.1878 43.1714 89.9222C42.2849 90.855 41.4626 91.9653 40.7269 93.0766C39.2405 95.3218 37.7115 98.1776 36.3045 101.171L41.7346 103.723ZM48.9993 92.9998L50.4545 98.8207C51.2366 98.6251 53.3009 98.7048 55.8477 99.1884L56.967 93.2938L58.0864 87.3991C55.4869 86.9055 51.1099 86.2875 47.5441 87.179L48.9993 92.9998ZM56.967 93.2938L61.1259 97.6186C62.0519 96.7281 63.0248 95.8681 64.0414 95.0404L60.2532 90.3875L56.465 85.7346C55.1992 86.7652 53.9785 87.8436 52.8082 88.9689L56.967 93.2938ZM60.2532 90.3875L64.1116 94.9823C64.8386 94.3719 65.5926 93.7644 66.3755 93.1614L62.7141 88.408L59.0527 83.6547C58.1342 84.3622 57.2488 85.0755 56.3947 85.7927L60.2532 90.3875ZM62.7141 88.408C58.7451 92.9076 58.745 92.9076 58.745 92.9076C58.7449 92.9075 58.7449 92.9075 58.7449 92.9075C58.7448 92.9074 58.7447 92.9074 58.7447 92.9073C58.7446 92.9072 58.7444 92.9071 58.7443 92.907C58.7441 92.9068 58.7439 92.9066 58.7436 92.9064C58.7432 92.906 58.7427 92.9056 58.7423 92.9052C58.7415 92.9045 58.7407 92.9038 58.74 92.9032C58.7387 92.902 58.7376 92.901 58.7368 92.9003C58.7352 92.8989 58.7347 92.8985 58.7354 92.8991C58.7367 92.9003 58.7426 92.9056 58.7529 92.9148L62.7698 88.4578L66.7866 84.0008C66.7602 83.977 66.7382 83.9573 66.721 83.9419C66.7123 83.9342 66.7048 83.9276 66.6985 83.922C66.6954 83.9192 66.6925 83.9167 66.69 83.9144C66.6887 83.9133 66.6875 83.9122 66.6863 83.9112C66.6858 83.9107 66.6852 83.9102 66.6847 83.9098C66.6844 83.9095 66.6842 83.9093 66.6839 83.9091C66.6838 83.909 66.6837 83.9088 66.6836 83.9087C66.6835 83.9087 66.6834 83.9086 66.6834 83.9086C66.6833 83.9085 66.6833 83.9085 66.6833 83.9085C66.6832 83.9085 66.6832 83.9084 62.7141 88.408ZM62.7698 88.4578L66.2826 93.322C66.3686 93.2599 66.3916 93.2429 66.4394 93.2087L62.9456 88.3309L59.4517 83.453C59.382 83.503 59.2881 83.5712 59.2569 83.5937L62.7698 88.4578ZM62.9456 88.3309L68.875 87.4137C68.5524 85.328 68.3801 83.1751 68.3801 80.9871L62.3801 80.9871L56.3801 80.9871C56.3801 83.8034 56.6018 86.5695 57.0161 89.248L62.9456 88.3309ZM62.3801 80.9871H68.3801C68.3801 74.7867 69.7358 69.1566 72.0626 64.3509L66.6624 61.7362L61.2621 59.1214C58.1249 65.6006 56.3801 73.0241 56.3801 80.9871H62.3801ZM66.6624 61.7362L62.8654 57.0904C61.8094 57.9534 59.9856 59.8618 59.9856 62.8582H65.9856H71.9856C71.9856 65.087 70.6277 66.2443 70.4593 66.3819L66.6624 61.7362ZM65.9856 62.8582H71.9856V54.0203H65.9856H59.9856V62.8582H65.9856ZM65.9856 54.0203L67.81 48.3044C68.4367 48.5044 65.7073 47.7688 64.2011 44.3937L58.7219 46.8387L53.2427 49.2837C56.7798 57.2103 63.3996 59.4931 64.1612 59.7362L65.9856 54.0203ZM58.7219 46.8387L53.4781 43.9229C53.4734 43.9313 53.4107 44.0432 53.363 44.1311L58.637 46.992L63.911 49.8529C63.9098 49.855 63.912 49.851 63.9219 49.8333C63.9269 49.8243 63.932 49.8151 63.9397 49.8013C63.9467 49.7887 63.956 49.772 63.9658 49.7545L58.7219 46.8387ZM58.637 46.992L64.1896 44.7186C63.4642 42.9469 63.1095 41.0447 63.1475 39.1295L57.1487 39.0106L51.1499 38.8917C51.0794 42.4449 51.7374 45.9755 53.0843 49.2654L58.637 46.992ZM57.1487 39.0106H63.1487C63.1487 39.0316 63.1485 39.0468 63.1484 39.053C63.1484 39.0585 63.1483 39.0602 63.1485 39.051C63.1485 39.0488 63.1486 39.0466 63.1486 39.0435C63.1487 39.0407 63.1487 39.0371 63.1488 39.0333C63.149 39.0259 63.1491 39.0158 63.1493 39.0046C63.1497 38.9826 63.1502 38.9508 63.1505 38.9138L57.1506 38.868L51.1508 38.8222C51.1509 38.8089 51.1511 38.8008 51.151 38.8025C51.151 38.8072 51.1509 38.8079 51.1506 38.8274C51.1501 38.8529 51.1487 38.9258 51.1487 39.0106H57.1487ZM57.1506 38.868L63.1505 38.835C63.1504 38.8141 63.1503 38.7951 63.1502 38.7802C63.1501 38.7727 63.15 38.7655 63.15 38.7595C63.1499 38.7531 63.1499 38.7481 63.1498 38.7432C63.1496 38.7224 63.1497 38.7195 63.1497 38.7225H57.1497H51.1497C51.1497 38.774 51.15 38.8198 51.1503 38.8475C51.1506 38.8829 51.1507 38.8896 51.1507 38.901L57.1506 38.868ZM57.1497 38.7225L63.1497 38.7226C63.1497 34.5109 65.2684 31.8251 68.1785 30.3105C71.385 28.6416 75.0622 28.6697 77.2738 29.7418L79.8909 24.3426L82.5079 18.9434C76.4212 15.9931 68.7279 16.4965 62.6384 19.6659C56.2526 22.9895 51.1498 29.5048 51.1497 38.7224L57.1497 38.7225ZM79.8909 24.3426L84.4638 28.2269C86.1848 26.2008 88.342 24.5894 90.7741 23.5125L88.345 18.0262L85.9158 12.5399C81.8329 14.3477 78.2097 17.0539 75.3179 20.4582L79.8909 24.3426ZM88.345 18.0262L90.7741 23.5125C93.2065 22.4355 95.8503 21.9215 98.5072 22.0092L98.7053 16.0125L98.9034 10.0158C94.4387 9.86832 89.9989 10.7321 85.9159 12.5399L88.345 18.0262Z" fill="white" mask="url(#path-1-outside-1_1062_17390)"/>
<path d="M57.5961 93.9775L34.3742 103.943C29.2243 106.06 27.2105 111.587 30.3982 114.86C35.3853 119.976 43.6115 125.289 54.1856 120.936C63.0202 117.302 66.7049 109.719 68.1616 102.941" fill="#276288"/>
<path d="M142.26 93.9775L165.482 103.943C170.632 106.06 172.646 111.587 169.458 114.86C164.471 119.976 156.245 125.289 145.671 120.936C136.836 117.302 133.152 109.719 131.695 102.941" fill="#276288"/>
<path d="M115.602 146.945L117.593 180.593C117.693 182.281 119.156 183.581 120.844 183.481L131.532 182.848C133.767 182.716 135.488 180.778 135.356 178.544C135.289 177.426 134.769 176.435 133.988 175.741C133.208 175.048 132.168 174.654 131.045 174.72L123.726 176.694L121.943 146.57C121.843 144.881 120.38 143.582 118.692 143.682L118.484 143.694C116.795 143.794 115.496 145.257 115.596 146.945L115.602 146.945Z" fill="#474747"/>
<path d="M81.4236 146.945L79.4326 180.593C79.3327 182.281 77.8697 183.581 76.1814 183.481L65.4934 182.848C63.2588 182.716 61.5376 180.778 61.6699 178.544C61.736 177.426 62.2567 176.435 63.037 175.741C63.8173 175.048 64.8571 174.654 65.9805 174.72L73.2995 176.694L75.082 146.57C75.1819 144.881 76.6449 143.582 78.3331 143.682L78.5419 143.694C80.2301 143.794 81.5296 145.257 81.4297 146.945L81.4236 146.945Z" fill="#474747"/>
<path d="M155.088 125.743C155.088 152.572 129.895 171.141 98.8329 171.141C67.7704 171.141 42.5776 152.572 42.5776 125.743C42.5776 110.696 50.5039 97.2425 62.9461 88.3307C62.5776 85.9486 62.3805 83.4893 62.3805 80.9871C62.3805 57.9966 78.7044 40.8501 98.8415 40.8501C118.979 40.8501 135.294 57.9966 135.294 80.9871C135.294 83.4893 135.105 85.94 134.728 88.3222C147.17 97.2339 155.097 110.679 155.097 125.734L155.088 125.743Z" fill="#4B9AE8"/>
<path d="M62.7147 88.408C62.7147 88.408 72.5691 97.8337 99.5614 97.8337C126.554 97.8337 134.847 87.3593 134.847 87.3593C179.27 118.637 146.718 152.378 141.193 156.714C108.13 182.667 71.2838 168.528 57.1451 157.817C43.0065 147.105 29.1703 114.246 62.7147 88.408Z" fill="#F4F4F4"/>
<path d="M79.2443 79.4277C83.603 79.4277 87.1365 75.8943 87.1365 71.5355C87.1365 67.1768 83.603 63.6433 79.2443 63.6433C74.8855 63.6433 71.3521 67.1768 71.3521 71.5355C71.3521 75.8943 74.8855 79.4277 79.2443 79.4277Z" fill="white"/>
<path d="M79.2447 76.0272C81.7254 76.0272 83.7365 74.0162 83.7365 71.5355C83.7365 69.0547 81.7254 67.0437 79.2447 67.0437C76.764 67.0437 74.7529 69.0547 74.7529 71.5355C74.7529 74.0162 76.764 76.0272 79.2447 76.0272Z" fill="#040000"/>
<path d="M117.754 79.4277C122.112 79.4277 125.646 75.8943 125.646 71.5355C125.646 67.1768 122.112 63.6433 117.754 63.6433C113.395 63.6433 109.861 67.1768 109.861 71.5355C109.861 75.8943 113.395 79.4277 117.754 79.4277Z" fill="white"/>
<path d="M117.754 76.0272C120.235 76.0272 122.246 74.0162 122.246 71.5355C122.246 69.0547 120.235 67.0437 117.754 67.0437C115.273 67.0437 113.262 69.0547 113.262 71.5355C113.262 74.0162 115.273 76.0272 117.754 76.0272Z" fill="#040000"/>
<path d="M106.699 82.0753C106.622 86.0084 102.132 92.0067 98.3101 91.9296C94.4883 91.8525 90.2296 85.6828 90.3067 81.7582C90.3838 77.8251 92.9374 74.6888 98.6357 74.8002C104.403 74.9116 106.768 78.1421 106.699 82.0753Z" fill="#EAC00F"/>
<path d="M117.519 24.343C115.213 21.6276 112.323 19.4681 109.065 18.0257C105.807 16.5833 102.266 15.8953 98.705 16.0129C95.1441 15.8953 91.6027 16.5833 88.345 18.0257C85.0873 19.4681 82.1974 21.6276 79.8909 24.343C71.5925 20.3205 57.1494 25.2932 57.1494 38.7227C57.1494 51.2338 65.9863 54.021 65.9863 54.021H131.424C131.424 54.021 140.26 51.2338 140.26 38.7227C140.26 25.2932 125.817 20.3205 117.519 24.343Z" fill="#DDDDDD"/>
<path d="M79.8905 39.5487C82.1969 36.8333 85.0868 34.6738 88.3446 33.2314C91.6023 31.789 95.1437 31.1009 98.7045 31.2186C102.265 31.1009 105.807 31.789 109.064 33.2314C112.322 34.6738 115.212 36.8333 117.519 39.5487C121.353 37.9276 125.653 37.7918 129.582 39.1677C133.511 40.5437 136.786 43.3328 138.771 46.9919C139.808 44.461 140.314 41.7445 140.26 39.0102C140.26 25.5807 125.817 20.608 117.519 24.6305C115.212 21.9151 112.322 19.7556 109.064 18.3132C105.807 16.8708 102.265 16.1828 98.7045 16.3004C95.1437 16.1828 91.6023 16.8708 88.3446 18.3132C85.0868 19.7556 82.1969 21.9151 79.8905 24.6305C71.592 20.608 57.149 25.5807 57.149 39.0102C57.0947 41.7445 57.6014 44.461 58.6376 46.9919C60.6225 43.3328 63.8984 40.5437 67.8272 39.1677C71.756 37.7918 76.0563 37.9276 79.8905 39.5487Z" fill="#F4F4F4"/>
<path d="M117.709 36.6008C117.709 45.0576 109.189 51.8991 98.7047 51.8991C88.2208 51.8991 79.7007 45.0576 79.7007 36.6008" stroke="#45413C" stroke-width="2.37551" stroke-linecap="round" stroke-linejoin="round"/>
<path d="M65.9858 54.0211C65.9858 50.8538 80.619 48.4783 98.7045 48.4783C116.79 48.4783 131.423 50.9488 131.423 54.0211V62.858C131.423 59.6907 116.79 57.3152 98.7045 57.3152C80.619 57.3152 65.9858 59.8174 65.9858 62.858V54.0211Z" fill="#DDDDDD"/>
<path d="M62.7143 88.8362C62.7143 88.8362 72.569 98.2619 99.5609 98.262C106.523 98.262 112.24 97.5627 116.893 96.5286C118.272 105.042 119.518 116.435 119.699 130.396C119.925 147.928 117.995 161.171 116.126 169.761C91.1423 176.245 67.7526 166.281 57.1449 158.244C43.0064 147.533 29.1705 114.674 62.7143 88.8362Z" fill="#ECECEC"/>
<path d="M92.1171 115.4C91.4779 115.4 90.8649 115.654 90.4129 116.106C89.9609 116.558 89.707 117.171 89.707 117.81C89.707 118.449 89.9609 119.062 90.4129 119.514C90.8649 119.966 91.4779 120.22 92.1171 120.22C92.7562 120.22 93.3692 119.966 93.8212 119.514C94.2732 119.062 94.5271 118.449 94.5271 117.81C94.5271 117.171 94.2732 116.558 93.8212 116.106C93.3692 115.654 92.7562 115.4 92.1171 115.4Z" fill="#45413C"/>
<path d="M105.966 115.4C105.49 115.4 105.024 115.541 104.627 115.806C104.231 116.071 103.922 116.447 103.74 116.888C103.557 117.328 103.509 117.813 103.602 118.28C103.695 118.748 103.925 119.177 104.262 119.514C104.599 119.851 105.029 120.081 105.496 120.174C105.964 120.267 106.448 120.219 106.888 120.036C107.329 119.854 107.705 119.545 107.97 119.149C108.235 118.753 108.376 118.287 108.376 117.81C108.376 117.171 108.122 116.558 107.67 116.106C107.218 115.654 106.605 115.4 105.966 115.4Z" fill="#45413C"/>
<path d="M92.1171 126.357C91.6404 126.357 91.1744 126.499 90.7781 126.764C90.3818 127.028 90.0729 127.405 89.8905 127.845C89.7081 128.286 89.6603 128.77 89.7533 129.238C89.8463 129.705 90.0759 130.135 90.4129 130.472C90.75 130.809 91.1794 131.038 91.6469 131.131C92.1144 131.224 92.599 131.176 93.0393 130.994C93.4797 130.812 93.8561 130.503 94.1209 130.106C94.3857 129.71 94.5271 129.244 94.5271 128.767C94.5271 128.128 94.2732 127.515 93.8212 127.063C93.3692 126.611 92.7562 126.357 92.1171 126.357Z" fill="#45413C"/>
<path d="M105.966 126.357C105.327 126.357 104.714 126.611 104.262 127.063C103.81 127.515 103.556 128.128 103.556 128.767C103.556 129.407 103.81 130.02 104.262 130.472C104.714 130.924 105.327 131.177 105.966 131.177C106.605 131.177 107.218 130.924 107.67 130.472C108.122 130.02 108.376 129.407 108.376 128.767C108.376 128.128 108.122 127.515 107.67 127.063C107.218 126.611 106.605 126.357 105.966 126.357Z" fill="#45413C"/>
<path d="M48.9999 93C52.1999 92.2 57.6665 93.3333 59.9999 94L50.5 128.5C45.8333 129.667 36.2999 130.6 35.4999 125C34.4999 118 44.9999 94 48.9999 93Z" fill="#ECECEC"/>
<path d="M150 93C146.8 92.2 141.333 93.3333 139 94L148.5 128.5C153.166 129.667 162.7 130.6 163.5 125C164.5 118 154 94 150 93Z" fill="#F4F4F4"/>
</svg>
