<svg width="200" height="200" viewBox="0 0 200 200" fill="none" xmlns="http://www.w3.org/2000/svg">
<mask id="path-1-outside-1_1062_18729" maskUnits="userSpaceOnUse" x="31.6094" y="28" width="138" height="145" fill="black">
<rect fill="white" x="31.6094" y="28" width="138" height="145"/>
<path d="M149.814 34C156.899 34.0001 162.643 39.7439 162.643 46.8291C162.643 52.7887 158.579 57.7984 153.072 59.2402V63.2783C153.067 63.4956 153.063 63.7127 153.063 63.9297C153.077 70.6832 155.274 77.2597 159.336 82.6719C160.934 84.6986 161.806 87.2025 161.812 89.7832C161.812 89.799 161.811 89.8152 161.811 89.8311C161.811 89.857 161.813 89.8832 161.813 89.9092C161.799 91.8007 161.325 93.6607 160.434 95.3291C160.425 95.3133 160.416 95.298 160.407 95.2822C160.254 95.562 160.092 95.837 159.915 96.1045C158.679 97.9809 156.92 99.454 154.856 100.342C154.345 100.566 153.91 100.935 153.604 101.402C153.298 101.869 153.135 102.415 153.133 102.974V117.261C153.133 130.298 147.953 142.801 138.735 152.02C129.516 161.238 117.013 166.418 103.976 166.418H40.5004C40.1014 166.415 39.707 166.33 39.3422 166.168C38.9773 166.006 38.6496 165.77 38.3793 165.477C38.1091 165.183 37.9018 164.837 37.7709 164.46C37.64 164.083 37.5876 163.683 37.6176 163.285C37.7861 161.646 38.0864 160.032 38.5121 158.46C38.6945 157.786 38.8997 157.12 39.1273 156.463C39.4311 155.586 39.7746 154.724 40.1566 153.88C40.9205 152.192 41.8382 150.577 42.8988 149.054C43.2965 148.483 43.7144 147.925 44.1518 147.381C44.7351 146.655 45.3528 145.955 46.0043 145.282C46.4927 144.778 47.0004 144.29 47.5258 143.818C48.7522 142.717 50.0594 141.725 51.4311 140.847C51.8229 140.596 52.2194 140.353 52.6215 140.121C53.2305 139.769 53.8512 139.44 54.4818 139.132C51.4954 135.671 49.2195 131.654 47.7904 127.31C46.3399 122.899 45.7913 118.242 46.1732 113.616C46.1937 113.285 46.2169 112.954 46.2445 112.624C46.2582 112.451 46.2728 112.278 46.2885 112.105C46.2935 112.053 46.298 112.001 46.3031 111.948C47.331 101.026 52.3006 90.8304 60.3139 83.2871C68.6985 75.3944 79.7802 71.0008 91.2953 71.0049C99.9189 71.0001 108.321 73.4605 115.537 78.0371V59.1436C110.206 57.5858 106.312 52.6628 106.312 46.8291C106.312 39.7439 112.056 34.0002 119.141 34C126.226 34 131.971 39.7438 131.971 46.8291C131.971 52.6638 128.075 57.5876 122.744 59.1445V63.748C122.752 66.0472 123.669 68.2502 125.294 69.876C126.92 71.5016 129.123 72.4185 131.422 72.4268H137.217C139.513 72.4268 141.717 71.5163 143.343 69.8955C144.97 68.2748 145.888 66.0754 145.896 63.7793V59.0479C140.727 57.3918 136.985 52.548 136.985 46.8291C136.985 39.7439 142.729 34 149.814 34Z"/>
</mask>
<path d="M149.814 34C156.899 34.0001 162.643 39.7439 162.643 46.8291C162.643 52.7887 158.579 57.7984 153.072 59.2402V63.2783C153.067 63.4956 153.063 63.7127 153.063 63.9297C153.077 70.6832 155.274 77.2597 159.336 82.6719C160.934 84.6986 161.806 87.2025 161.812 89.7832C161.812 89.799 161.811 89.8152 161.811 89.8311C161.811 89.857 161.813 89.8832 161.813 89.9092C161.799 91.8007 161.325 93.6607 160.434 95.3291C160.425 95.3133 160.416 95.298 160.407 95.2822C160.254 95.562 160.092 95.837 159.915 96.1045C158.679 97.9809 156.92 99.454 154.856 100.342C154.345 100.566 153.91 100.935 153.604 101.402C153.298 101.869 153.135 102.415 153.133 102.974V117.261C153.133 130.298 147.953 142.801 138.735 152.02C129.516 161.238 117.013 166.418 103.976 166.418H40.5004C40.1014 166.415 39.707 166.33 39.3422 166.168C38.9773 166.006 38.6496 165.77 38.3793 165.477C38.1091 165.183 37.9018 164.837 37.7709 164.46C37.64 164.083 37.5876 163.683 37.6176 163.285C37.7861 161.646 38.0864 160.032 38.5121 158.46C38.6945 157.786 38.8997 157.12 39.1273 156.463C39.4311 155.586 39.7746 154.724 40.1566 153.88C40.9205 152.192 41.8382 150.577 42.8988 149.054C43.2965 148.483 43.7144 147.925 44.1518 147.381C44.7351 146.655 45.3528 145.955 46.0043 145.282C46.4927 144.778 47.0004 144.29 47.5258 143.818C48.7522 142.717 50.0594 141.725 51.4311 140.847C51.8229 140.596 52.2194 140.353 52.6215 140.121C53.2305 139.769 53.8512 139.44 54.4818 139.132C51.4954 135.671 49.2195 131.654 47.7904 127.31C46.3399 122.899 45.7913 118.242 46.1732 113.616C46.1937 113.285 46.2169 112.954 46.2445 112.624C46.2582 112.451 46.2728 112.278 46.2885 112.105C46.2935 112.053 46.298 112.001 46.3031 111.948C47.331 101.026 52.3006 90.8304 60.3139 83.2871C68.6985 75.3944 79.7802 71.0008 91.2953 71.0049C99.9189 71.0001 108.321 73.4605 115.537 78.0371V59.1436C110.206 57.5858 106.312 52.6628 106.312 46.8291C106.312 39.7439 112.056 34.0002 119.141 34C126.226 34 131.971 39.7438 131.971 46.8291C131.971 52.6638 128.075 57.5876 122.744 59.1445V63.748C122.752 66.0472 123.669 68.2502 125.294 69.876C126.92 71.5016 129.123 72.4185 131.422 72.4268H137.217C139.513 72.4268 141.717 71.5163 143.343 69.8955C144.97 68.2748 145.888 66.0754 145.896 63.7793V59.0479C140.727 57.3918 136.985 52.548 136.985 46.8291C136.985 39.7439 142.729 34 149.814 34Z" fill="#A66638"/>
<path d="M149.814 34L149.814 28H149.814V34ZM162.643 46.8291L168.643 46.8291L168.643 46.8289L162.643 46.8291ZM153.072 59.2402L151.552 53.4359C148.913 54.1269 147.072 56.5118 147.072 59.2402H153.072ZM153.072 63.2783L159.07 63.4142C159.071 63.3689 159.072 63.3236 159.072 63.2783L153.072 63.2783ZM153.063 63.9297L147.063 63.9185C147.063 63.9265 147.063 63.9345 147.063 63.9425L153.063 63.9297ZM159.336 82.6719L154.538 86.2739C154.566 86.3117 154.595 86.3492 154.624 86.3863L159.336 82.6719ZM161.812 89.7832L167.812 89.7855C167.812 89.7802 167.812 89.7749 167.812 89.7696L161.812 89.7832ZM161.811 89.8311L155.811 89.804C155.811 89.831 155.811 89.858 155.811 89.885L161.811 89.8311ZM161.813 89.9092L167.813 89.9539C167.813 89.9345 167.813 89.9151 167.813 89.8958L161.813 89.9092ZM160.434 95.3291L155.2 98.2617C156.271 100.175 158.301 101.351 160.494 101.329C162.687 101.307 164.693 100.091 165.726 98.1565L160.434 95.3291ZM160.407 95.2822L165.631 92.3315C164.559 90.4334 162.542 89.2661 160.362 89.2824C158.182 89.2987 156.182 90.4961 155.139 92.41L160.407 95.2822ZM159.915 96.1045L164.926 99.4052L164.926 99.4052L159.915 96.1045ZM154.856 100.342L152.485 94.83C152.471 94.8361 152.457 94.8423 152.442 94.8486L154.856 100.342ZM153.604 101.402L148.584 98.1156L148.584 98.1161L153.604 101.402ZM153.133 102.974L147.133 102.958C147.133 102.964 147.133 102.969 147.133 102.974L153.133 102.974ZM153.133 117.261L159.133 117.261V117.261H153.133ZM138.735 152.02L142.977 156.262L142.977 156.262L138.735 152.02ZM103.976 166.418L103.976 172.418L103.976 172.418L103.976 166.418ZM40.5004 166.418L40.4529 172.418C40.4687 172.418 40.4846 172.418 40.5004 172.418L40.5004 166.418ZM39.3422 166.168L36.9095 171.653L36.9104 171.653L39.3422 166.168ZM38.3793 165.477L33.9637 169.539L33.9638 169.539L38.3793 165.477ZM37.7709 164.46L32.1029 166.428L32.103 166.428L37.7709 164.46ZM37.6176 163.285L31.649 162.672C31.6435 162.726 31.6386 162.78 31.6346 162.834L37.6176 163.285ZM38.5121 158.46L32.7206 156.892L32.7206 156.892L38.5121 158.46ZM39.1273 156.463L44.7971 158.426L44.7971 158.426L39.1273 156.463ZM40.1566 153.88L34.6906 151.406L34.6905 151.406L40.1566 153.88ZM42.8988 149.054L47.8225 152.483L47.8226 152.483L42.8988 149.054ZM44.1518 147.381L39.476 143.621L39.4759 143.621L44.1518 147.381ZM46.0043 145.282L50.3134 149.457L50.3134 149.457L46.0043 145.282ZM47.5258 143.818L43.5176 139.354L43.5175 139.354L47.5258 143.818ZM51.4311 140.847L54.6668 145.899L54.6668 145.899L51.4311 140.847ZM52.6215 140.121L49.6215 134.925L49.6214 134.925L52.6215 140.121ZM54.4818 139.132L57.1138 144.524C58.7863 143.707 59.9853 142.161 60.3594 140.338C60.7335 138.515 60.2404 136.621 59.0245 135.212L54.4818 139.132ZM47.7904 127.31L42.0908 129.184L42.0908 129.184L47.7904 127.31ZM46.1732 113.616L52.1529 114.11C52.1563 114.068 52.1593 114.027 52.1619 113.985L46.1732 113.616ZM46.2445 112.624L52.2236 113.125C52.2244 113.115 52.2252 113.106 52.2259 113.096L46.2445 112.624ZM46.2885 112.105L40.3156 111.536C40.3147 111.545 40.3138 111.555 40.3129 111.564L46.2885 112.105ZM46.3031 111.948L52.274 112.538C52.275 112.529 52.2759 112.52 52.2767 112.51L46.3031 111.948ZM60.3139 83.2871L56.2013 78.9183L56.2013 78.9183L60.3139 83.2871ZM91.2953 71.0049L91.2932 77.0049L91.2986 77.0049L91.2953 71.0049ZM115.537 78.0371L112.323 83.1038C114.171 84.2759 116.51 84.3491 118.428 83.2946C120.345 82.2402 121.537 80.2254 121.537 78.0371H115.537ZM115.537 59.1436H121.537C121.537 56.4781 119.778 54.1322 117.22 53.3845L115.537 59.1436ZM106.312 46.8291L100.312 46.829V46.8291H106.312ZM119.141 34L119.141 28L119.141 28L119.141 34ZM131.971 46.8291L137.971 46.8291L137.971 46.829L131.971 46.8291ZM122.744 59.1445L121.062 53.3851C118.503 54.1324 116.744 56.4786 116.744 59.1445H122.744ZM122.744 63.748H116.744C116.744 63.7552 116.744 63.7624 116.744 63.7696L122.744 63.748ZM125.294 69.876L121.052 74.1186L121.052 74.1188L125.294 69.876ZM131.422 72.4268L131.401 78.4267C131.408 78.4267 131.415 78.4268 131.422 78.4268L131.422 72.4268ZM137.217 72.4268L137.217 78.4268L137.217 78.4268L137.217 72.4268ZM143.343 69.8955L147.578 74.1458L147.578 74.1456L143.343 69.8955ZM145.896 63.7793L151.896 63.801C151.896 63.7937 151.896 63.7865 151.896 63.7793L145.896 63.7793ZM145.896 59.0479H151.896C151.896 56.4394 150.211 54.1298 147.727 53.3339L145.896 59.0479ZM136.985 46.8291L130.985 46.8289V46.8291H136.985ZM149.814 34L149.814 40C153.585 40.0001 156.643 43.0576 156.643 46.8293L162.643 46.8291L168.643 46.8289C168.643 36.4303 160.213 28.0002 149.814 28L149.814 34ZM162.643 46.8291H156.643C156.643 49.9925 154.486 52.6677 151.552 53.4359L153.072 59.2402L154.591 65.0446C162.672 62.929 168.643 55.5848 168.643 46.8291H162.643ZM153.072 59.2402H147.072V63.2783H153.072H159.072V59.2402H153.072ZM153.072 63.2783L147.073 63.1424C147.068 63.3852 147.063 63.6465 147.063 63.9185L153.063 63.9297L159.063 63.9409C159.063 63.779 159.066 63.606 159.07 63.4142L153.072 63.2783ZM153.063 63.9297L147.063 63.9425C147.08 71.989 149.697 79.8249 154.538 86.2739L159.336 82.6719L164.135 79.0698C160.85 74.6945 159.075 69.3774 159.063 63.9169L153.063 63.9297ZM159.336 82.6719L154.624 86.3863C155.391 87.3591 155.809 88.5602 155.812 89.7968L161.812 89.7832L167.812 89.7696C167.803 85.8449 166.477 82.038 164.048 78.9574L159.336 82.6719ZM161.812 89.7832L155.812 89.7809C155.812 89.7548 155.812 89.7319 155.812 89.7128C155.813 89.6938 155.813 89.6777 155.813 89.6655C155.813 89.6534 155.814 89.6439 155.814 89.6385C155.814 89.6335 155.814 89.6299 155.814 89.6315C155.814 89.6319 155.814 89.6319 155.814 89.6328C155.814 89.6335 155.814 89.6344 155.814 89.6354C155.814 89.6375 155.814 89.6406 155.814 89.6444C155.813 89.6516 155.813 89.6632 155.813 89.6772C155.812 89.6913 155.812 89.7094 155.812 89.7303C155.811 89.7512 155.811 89.7761 155.811 89.804L161.811 89.8311L167.811 89.8581C167.811 89.905 167.81 89.9418 167.809 89.961C167.809 89.971 167.809 89.9786 167.809 89.9819C167.809 89.9843 167.809 89.987 167.809 89.9828C167.809 89.9804 167.809 89.9728 167.809 89.9638C167.81 89.9544 167.81 89.9409 167.81 89.9248C167.811 89.8933 167.812 89.8446 167.812 89.7855L161.812 89.7832ZM161.811 89.8311L155.811 89.885C155.812 89.945 155.813 89.9944 155.814 90.0251C155.814 90.0407 155.815 90.0538 155.815 90.0623C155.815 90.0666 155.815 90.0703 155.815 90.0728C155.815 90.074 155.815 90.0752 155.816 90.076C155.816 90.0769 155.816 90.0774 155.816 90.0778C155.816 90.08 155.816 90.0768 155.815 90.0718C155.815 90.0664 155.815 90.0566 155.815 90.044C155.814 90.0195 155.813 89.9767 155.813 89.9226L161.813 89.9092L167.813 89.8958C167.813 89.8287 167.812 89.7729 167.811 89.7353C167.81 89.6995 167.809 89.6693 167.808 89.6624C167.808 89.6558 167.808 89.6578 167.808 89.6584C167.808 89.6603 167.809 89.6669 167.809 89.676C167.809 89.6937 167.81 89.7301 167.811 89.7772L161.811 89.8311ZM161.813 89.9092L155.813 89.8645C155.806 90.7841 155.576 91.6892 155.142 92.5017L160.434 95.3291L165.726 98.1565C167.075 95.6321 167.791 92.8174 167.813 89.9539L161.813 89.9092ZM160.434 95.3291L165.668 92.3965C165.643 92.3508 165.621 92.3133 165.607 92.2885C165.593 92.265 165.581 92.2452 165.579 92.242C165.577 92.2384 165.578 92.2401 165.579 92.2415C165.58 92.2436 165.583 92.249 165.588 92.2562C165.596 92.2701 165.611 92.2969 165.631 92.3315L160.407 95.2822L155.182 98.2329C155.206 98.2754 155.227 98.3101 155.239 98.3318C155.246 98.3429 155.251 98.3521 155.255 98.3581C155.258 98.3635 155.261 98.369 155.261 98.3693C155.262 98.371 155.261 98.3687 155.259 98.3653C155.257 98.3617 155.253 98.3549 155.248 98.3462C155.238 98.3292 155.221 98.2995 155.2 98.2617L160.434 95.3291ZM160.407 95.2822L155.139 92.41C155.052 92.5695 154.974 92.6983 154.905 92.8038L159.915 96.1045L164.926 99.4052C165.209 98.9757 165.456 98.5544 165.675 98.1544L160.407 95.2822ZM159.915 96.1045L154.905 92.8038C154.314 93.7006 153.473 94.4052 152.485 94.83L154.856 100.342L157.226 105.854C160.367 104.503 163.044 102.261 164.926 99.4052L159.915 96.1045ZM154.856 100.342L152.442 94.8486C150.864 95.5422 149.525 96.6791 148.584 98.1156L153.604 101.402L158.624 104.689C158.295 105.191 157.826 105.591 157.269 105.835L154.856 100.342ZM153.604 101.402L148.584 98.1161C147.641 99.5559 147.138 101.238 147.133 102.958L153.133 102.974L159.133 102.989C159.132 103.593 158.955 104.183 158.624 104.689L153.604 101.402ZM153.133 102.974H147.133V117.261H153.133H159.133V102.974H153.133ZM153.133 117.261L147.133 117.261C147.133 128.706 142.586 139.683 134.492 147.777L138.735 152.02L142.977 156.262C153.321 145.918 159.133 131.89 159.133 117.261L153.133 117.261ZM138.735 152.02L134.492 147.777C126.398 155.871 115.422 160.418 103.976 160.418L103.976 166.418L103.976 172.418C118.605 172.418 132.634 166.606 142.977 156.262L138.735 152.02ZM103.976 166.418V160.418H40.5004V166.418V172.418H103.976V166.418ZM40.5004 166.418L40.5479 160.418C40.9703 160.421 41.3874 160.511 41.7739 160.683L39.3422 166.168L36.9104 171.653C38.0265 172.148 39.2325 172.408 40.4529 172.418L40.5004 166.418ZM39.3422 166.168L41.7749 160.683C42.1669 160.857 42.5126 161.107 42.7948 161.414L38.3793 165.477L33.9638 169.539C34.7865 170.433 35.7878 171.155 36.9095 171.653L39.3422 166.168ZM38.3793 165.477L42.7949 161.414C43.0788 161.723 43.299 162.089 43.4388 162.492L37.7709 164.46L32.103 166.428C32.5047 167.585 33.1394 168.643 33.9637 169.539L38.3793 165.477ZM37.7709 164.46L43.439 162.492C43.5764 162.888 43.6326 163.311 43.6006 163.736L37.6176 163.285L31.6346 162.834C31.5425 164.055 31.7036 165.278 32.1029 166.428L37.7709 164.46ZM37.6176 163.285L43.5861 163.899C43.7215 162.582 43.9625 161.288 44.3036 160.028L38.5121 158.46L32.7206 156.892C32.2104 158.777 31.8508 160.709 31.649 162.672L37.6176 163.285ZM38.5121 158.46L44.3036 160.028C44.45 159.487 44.6146 158.953 44.7971 158.426L39.1273 156.463L33.4576 154.5C33.1848 155.288 32.939 156.086 32.7206 156.892L38.5121 158.46ZM39.1273 156.463L44.7971 158.426C45.0407 157.723 45.3163 157.031 45.6228 156.354L40.1566 153.88L34.6905 151.406C34.233 152.417 33.8215 153.449 33.4576 154.5L39.1273 156.463ZM40.1566 153.88L45.6227 156.354C46.2354 155.001 46.9716 153.705 47.8225 152.483L42.8988 149.054L37.9751 145.625C36.7048 147.449 35.6056 149.384 34.6906 151.406L40.1566 153.88ZM42.8988 149.054L47.8226 152.483C48.141 152.025 48.4762 151.578 48.8276 151.141L44.1518 147.381L39.4759 143.621C38.9526 144.272 38.452 144.94 37.9751 145.625L42.8988 149.054ZM44.1518 147.381L48.8275 151.141C49.2973 150.557 49.7928 149.995 50.3134 149.457L46.0043 145.282L41.6952 141.107C40.9127 141.915 40.173 142.754 39.476 143.621L44.1518 147.381ZM46.0043 145.282L50.3134 149.457C50.7029 149.055 51.11 148.664 51.5341 148.283L47.5258 143.818L43.5175 139.354C42.8907 139.916 42.2826 140.501 41.6952 141.107L46.0043 145.282ZM47.5258 143.818L51.534 148.283C52.5168 147.401 53.5654 146.605 54.6668 145.899L51.4311 140.847L48.1954 135.794C46.5534 136.845 44.9876 138.034 43.5176 139.354L47.5258 143.818ZM51.4311 140.847L54.6668 145.899C54.9892 145.693 55.307 145.499 55.6216 145.317L52.6215 140.121L49.6214 134.925C49.1318 135.208 48.6565 135.499 48.1953 135.794L51.4311 140.847ZM52.6215 140.121L55.6215 145.317C56.1088 145.036 56.6066 144.771 57.1138 144.524L54.4818 139.132L51.8499 133.74C51.0957 134.108 50.3523 134.503 49.6215 134.925L52.6215 140.121ZM54.4818 139.132L59.0245 135.212C56.5529 132.348 54.6711 129.026 53.4901 125.435L47.7904 127.31L42.0908 129.184C43.7678 134.283 46.4378 138.994 49.9391 143.052L54.4818 139.132ZM47.7904 127.31L53.4901 125.435C52.2909 121.789 51.8369 117.938 52.1529 114.11L46.1732 113.616L40.1936 113.122C39.7457 118.547 40.3888 124.009 42.0908 129.184L47.7904 127.31ZM46.1732 113.616L52.1619 113.985C52.1802 113.688 52.2004 113.402 52.2236 113.125L46.2445 112.624L40.2655 112.123C40.2334 112.507 40.2071 112.882 40.1846 113.247L46.1732 113.616ZM46.2445 112.624L52.2259 113.096C52.2378 112.946 52.2505 112.796 52.264 112.647L46.2885 112.105L40.3129 111.564C40.2952 111.76 40.2786 111.956 40.2632 112.152L46.2445 112.624ZM46.2885 112.105L52.2614 112.675C52.2654 112.633 52.2692 112.59 52.2709 112.572C52.272 112.56 52.2727 112.552 52.2733 112.546C52.2738 112.541 52.274 112.538 52.274 112.538L46.3031 111.948L40.3322 111.358C40.3272 111.409 40.323 111.454 40.3205 111.482C40.3175 111.516 40.3166 111.525 40.3156 111.536L46.2885 112.105ZM46.3031 111.948L52.2767 112.51C53.1681 103.038 57.4779 94.1969 64.4265 87.6559L60.3139 83.2871L56.2013 78.9183C47.1232 87.4639 41.4939 99.0138 40.3295 111.386L46.3031 111.948ZM60.3139 83.2871L64.4264 87.656C71.6976 80.8113 81.3076 77.0013 91.2932 77.0049L91.2953 71.0049L91.2975 65.0049C78.2529 65.0002 65.6993 69.9774 56.2013 78.9183L60.3139 83.2871ZM91.2953 71.0049L91.2986 77.0049C98.7777 77.0007 106.065 79.1346 112.323 83.1038L115.537 78.0371L118.75 72.9704C110.578 67.7864 101.06 64.9995 91.292 65.0049L91.2953 71.0049ZM115.537 78.0371H121.537V59.1436H115.537H109.537V78.0371H115.537ZM115.537 59.1436L117.22 53.3845C114.377 52.5538 112.312 49.9246 112.312 46.8291H106.312H100.312C100.312 55.4011 106.035 62.6178 113.853 64.9027L115.537 59.1436ZM106.312 46.8291L112.312 46.8292C112.312 43.0576 115.37 40.0001 119.141 40L119.141 34L119.141 28C108.742 28.0002 100.312 36.4301 100.312 46.829L106.312 46.8291ZM119.141 34V40C122.913 40 125.971 43.058 125.971 46.8292L131.971 46.8291L137.971 46.829C137.971 36.4296 129.54 28 119.141 28V34ZM131.971 46.8291H125.971C125.971 49.925 123.905 52.5548 121.062 53.3851L122.744 59.1445L124.425 64.904C132.246 62.6204 137.971 55.4026 137.971 46.8291H131.971ZM122.744 59.1445H116.744V63.748H122.744H128.744V59.1445H122.744ZM122.744 63.748L116.744 63.7696C116.758 67.6518 118.306 71.3724 121.052 74.1186L125.294 69.876L129.537 65.6333C129.032 65.1281 128.746 64.4425 128.744 63.7264L122.744 63.748ZM125.294 69.876L121.052 74.1188C123.798 76.8646 127.518 78.4128 131.401 78.4267L131.422 72.4268L131.444 66.4268C130.728 66.4242 130.042 66.1386 129.537 65.6332L125.294 69.876ZM131.422 72.4268V78.4268H137.217V72.4268V66.4268H131.422V72.4268ZM137.217 72.4268L137.217 78.4268C141.101 78.4268 144.827 76.8868 147.578 74.1458L143.343 69.8955L139.108 65.6452C138.606 66.1458 137.925 66.4268 137.217 66.4268L137.217 72.4268ZM143.343 69.8955L147.578 74.1456C150.329 71.4044 151.882 67.6846 151.896 63.801L145.896 63.7793L139.896 63.7576C139.893 64.4662 139.61 65.1451 139.108 65.6454L143.343 69.8955ZM145.896 63.7793H151.896V59.0479H145.896H139.896V63.7793H145.896ZM145.896 59.0479L147.727 53.3339C144.968 52.4503 142.985 49.8636 142.985 46.8291H136.985H130.985C130.985 55.2325 136.485 62.3332 144.065 64.7618L145.896 59.0479ZM136.985 46.8291L142.985 46.8293C142.985 43.0574 146.042 40 149.814 40V34V28C139.415 28 130.985 36.4303 130.985 46.8289L136.985 46.8291Z" fill="white" mask="url(#path-1-outside-1_1062_18729)"/>
<path d="M161.81 89.7836C161.805 87.2027 160.933 84.6984 159.335 82.6716C155.117 77.0521 152.91 70.1776 153.069 63.1528V55.1008H145.895V63.7794C145.886 66.0756 144.968 68.275 143.342 69.8958C141.715 71.5165 139.512 72.4266 137.216 72.4266H131.42C129.121 72.4183 126.918 71.5013 125.292 69.8756C123.667 68.2498 122.75 66.0472 122.741 63.748V55.1008H115.535V101C115.535 110.298 111.842 119.215 105.267 125.79C98.6922 132.365 89.7749 136.059 80.4767 136.059H67.9445C60.4107 136.019 53.1319 138.785 47.5256 143.818C41.9194 148.851 38.3871 155.79 37.6167 163.285C37.5866 163.683 37.6387 164.083 37.7696 164.46C37.9005 164.837 38.1076 165.183 38.3778 165.477C38.6481 165.771 38.9758 166.006 39.3407 166.168C39.7056 166.33 40.0999 166.415 40.4991 166.418H103.975C117.012 166.418 129.515 161.239 138.734 152.02C147.953 142.801 153.132 130.298 153.132 117.26V102.974C153.133 102.415 153.297 101.869 153.603 101.402C153.909 100.935 154.344 100.567 154.855 100.342C156.919 99.4542 158.678 97.981 159.914 96.1046C161.15 94.2281 161.81 92.0306 161.81 89.7836Z" fill="#4B9AE8"/>
<path d="M39.5589 166.198C41.7789 160.523 45.6556 155.647 50.6846 152.205C55.7136 148.763 61.6622 146.914 67.7563 146.899H80.2885C84.9056 146.924 89.4822 146.036 93.7554 144.287C98.0285 142.539 101.914 139.963 105.189 136.708C108.464 133.454 111.064 129.584 112.84 125.322C114.615 121.06 115.531 116.489 115.535 111.872V101C115.535 110.298 111.842 119.215 105.267 125.79C98.6919 132.365 89.7746 136.059 80.4764 136.059H67.9443C60.4104 136.019 53.1316 138.785 47.5254 143.818C41.9191 148.851 38.3868 155.79 37.6164 163.285C37.5754 163.916 37.7434 164.544 38.0945 165.07C38.4455 165.597 38.9601 165.993 39.5589 166.198Z" fill="#A4D2FE"/>
<path d="M119.14 59.6587C126.225 59.6587 131.969 53.9148 131.969 46.8293C131.969 39.7439 126.225 34 119.14 34C112.054 34 106.311 39.7439 106.311 46.8293C106.311 53.9148 112.054 59.6587 119.14 59.6587Z" fill="#E9E9E9"/>
<path d="M119.142 52.7077C122.389 52.7077 125.021 50.0758 125.021 46.8292C125.021 43.5826 122.389 40.9507 119.142 40.9507C115.896 40.9507 113.264 43.5826 113.264 46.8292C113.264 50.0758 115.896 52.7077 119.142 52.7077Z" fill="#040000"/>
<path d="M149.814 59.6588C156.899 59.6588 162.643 53.9149 162.643 46.8295C162.643 39.744 156.899 34.0001 149.814 34.0001C142.728 34.0001 136.984 39.744 136.984 46.8295C136.984 53.9149 142.728 59.6588 149.814 59.6588Z" fill="#E9E9E9"/>
<path d="M149.605 52.9173C152.852 52.9173 155.484 50.2854 155.484 47.0388C155.484 43.7922 152.852 41.1603 149.605 41.1603C146.358 41.1603 143.727 43.7922 143.727 47.0388C143.727 50.2854 146.358 52.9173 149.605 52.9173Z" fill="#040000"/>
<path d="M91.2945 71.005C79.7793 71.0009 68.6972 75.3941 60.3126 83.2869C51.928 91.1798 46.8738 101.976 46.1827 113.471C45.777 118.145 46.3236 122.852 47.7893 127.309C49.2551 131.766 51.6095 135.879 54.7104 139.4C57.8112 142.92 61.5939 145.775 65.8297 147.792C70.0656 149.809 74.6665 150.946 79.3543 151.134C84.042 151.322 88.7192 150.557 93.1029 148.886C97.4866 147.215 101.486 144.671 104.859 141.41C108.231 138.149 110.907 134.238 112.725 129.913C114.543 125.588 115.465 120.939 115.435 116.247H128.86C129.884 116.253 130.897 116.034 131.826 115.606C132.756 115.177 133.58 114.55 134.241 113.768C134.901 112.986 135.382 112.068 135.649 111.08C135.916 110.091 135.963 109.057 135.786 108.048C133.875 97.6442 128.376 88.2395 120.247 81.4711C112.118 74.7027 101.873 70.9992 91.2945 71.005Z" fill="#30679E"/>
<path d="M91.2938 83.8101C111.808 83.8101 122.882 97.4971 128.435 116.215H128.86C129.883 116.221 130.896 116.002 131.826 115.573C132.755 115.145 133.58 114.517 134.24 113.735C134.901 112.953 135.381 112.035 135.648 111.047C135.915 110.059 135.962 109.024 135.785 108.016C133.699 96.9563 127.567 87.0713 118.585 80.2906C109.602 73.51 98.4153 70.3205 87.2078 71.3449C76.0003 72.3693 65.5769 77.5341 57.9729 85.8309C50.3688 94.1276 46.1299 104.961 46.084 116.215C46.1023 118.241 46.2881 120.262 46.6393 122.258C48.2498 111.566 53.6416 101.807 61.8353 94.7516C70.0291 87.6967 80.4813 83.8145 91.2938 83.8101Z" fill="#7AB9F8"/>
<path d="M83.7826 116.215C83.7084 114.983 83.8871 113.749 84.3075 112.589C84.7279 111.429 85.3811 110.367 86.2271 109.468C87.0731 108.57 88.0939 107.854 89.2268 107.365C90.3597 106.875 91.5807 106.623 92.8147 106.623C94.0487 106.623 95.2697 106.875 96.4026 107.365C97.5355 107.854 98.5563 108.57 99.4023 109.468C100.248 110.367 100.902 111.429 101.322 112.589C101.742 113.749 101.921 114.983 101.847 116.215C101.948 118.554 101.575 120.889 100.75 123.08C99.9253 125.271 98.6652 127.272 97.046 128.964C95.4268 130.655 93.4821 132 91.3289 132.92C89.1758 133.839 86.8588 134.313 84.5175 134.313C82.1763 134.313 79.8593 133.839 77.7062 132.92C75.553 132 73.6082 130.655 71.9891 128.964C70.3699 127.272 69.1098 125.271 68.2847 123.08C67.4596 120.889 67.0866 118.554 67.1882 116.215C67.418 109.97 70.0602 104.058 74.5592 99.7218C79.0582 95.3854 85.0634 92.9624 91.3121 92.9624C97.5607 92.9624 103.566 95.3854 108.065 99.7218C112.564 104.058 115.206 109.97 115.436 116.215" stroke="#7AB9F8" stroke-width="3.61753" stroke-linecap="round" stroke-linejoin="round"/>
</svg>
