<svg width="200" height="200" viewBox="0 0 200 200" fill="none" xmlns="http://www.w3.org/2000/svg">
<mask id="path-1-outside-1_922_9789" maskUnits="userSpaceOnUse" x="27" y="12.1113" width="146" height="176" fill="black">
<rect fill="white" x="27" y="12.1113" width="146" height="176"/>
<path d="M100.465 18.1113C128.559 18.1113 136.291 49.4422 136.291 52.2773C136.291 54.482 134.666 56.8638 133.786 57.8633C136.507 63.2339 138.125 69.4037 138.305 76.1074C138.354 77.9934 138.287 79.8531 138.111 81.6816L143.683 76.0107C145.088 74.5814 147.459 74.4891 148.985 75.8037L150.82 77.3838C153.479 74.0108 156.315 70.8999 158.677 69.3545C164.038 65.8458 166.103 78.3309 163.107 87.9658L165.781 90.2686C167.396 91.6597 167.407 94.0485 165.806 95.4531L157.459 102.772C157.313 102.9 157.159 103.015 156.999 103.117C170.588 128.291 148.978 150.874 144.201 153.972C134.141 160.494 124.16 164.179 114.732 165.92V172.633L125.174 170.486C126.752 170.486 128.176 171.123 129.219 172.16C130.25 173.198 130.9 174.616 130.9 176.188C130.9 179.321 128.321 181.889 125.174 181.889H110.109C107.726 181.889 105.775 179.947 105.775 177.574V167.029C102.509 167.238 99.3356 167.231 96.2772 167.048V177.574C96.2772 179.947 94.3275 181.888 91.9442 181.889H76.8788C73.7319 181.888 71.1523 179.321 71.1522 176.188C71.1522 174.616 71.803 173.198 72.8348 172.16C73.8769 171.123 75.3004 170.486 76.8788 170.486L87.3211 172.633V165.991C83.4454 165.307 79.8341 164.371 76.5467 163.295C67.6553 160.503 59.9111 156.101 53.9706 150.393C45.5664 143.869 36.5819 125.389 44.1044 106.386C43.5381 106.239 42.9994 105.967 42.5399 105.564L34.1942 98.2451C32.5923 96.8404 32.6035 94.4517 34.2186 93.0605L37.2098 90.4834C32.9372 80.7069 34.8651 65.5303 40.7088 69.3545C43.5318 71.2019 47.0312 75.2884 50.0975 79.3838L51.0145 78.5947C52.541 77.2802 54.9117 77.3732 56.3163 78.8027L61.7196 84.3018C61.3959 82.31 61.195 80.2666 61.1405 78.1826C60.9369 70.5833 62.6117 63.5686 65.7079 57.5537C64.7955 57.1375 64.6385 55.8094 64.6385 52.2773C64.6385 47.3802 72.3706 18.1113 100.465 18.1113Z"/>
</mask>
<path d="M100.465 18.1113C128.559 18.1113 136.291 49.4422 136.291 52.2773C136.291 54.482 134.666 56.8638 133.786 57.8633C136.507 63.2339 138.125 69.4037 138.305 76.1074C138.354 77.9934 138.287 79.8531 138.111 81.6816L143.683 76.0107C145.088 74.5814 147.459 74.4891 148.985 75.8037L150.82 77.3838C153.479 74.0108 156.315 70.8999 158.677 69.3545C164.038 65.8458 166.103 78.3309 163.107 87.9658L165.781 90.2686C167.396 91.6597 167.407 94.0485 165.806 95.4531L157.459 102.772C157.313 102.9 157.159 103.015 156.999 103.117C170.588 128.291 148.978 150.874 144.201 153.972C134.141 160.494 124.16 164.179 114.732 165.92V172.633L125.174 170.486C126.752 170.486 128.176 171.123 129.219 172.16C130.25 173.198 130.9 174.616 130.9 176.188C130.9 179.321 128.321 181.889 125.174 181.889H110.109C107.726 181.889 105.775 179.947 105.775 177.574V167.029C102.509 167.238 99.3356 167.231 96.2772 167.048V177.574C96.2772 179.947 94.3275 181.888 91.9442 181.889H76.8788C73.7319 181.888 71.1523 179.321 71.1522 176.188C71.1522 174.616 71.803 173.198 72.8348 172.16C73.8769 171.123 75.3004 170.486 76.8788 170.486L87.3211 172.633V165.991C83.4454 165.307 79.8341 164.371 76.5467 163.295C67.6553 160.503 59.9111 156.101 53.9706 150.393C45.5664 143.869 36.5819 125.389 44.1044 106.386C43.5381 106.239 42.9994 105.967 42.5399 105.564L34.1942 98.2451C32.5923 96.8404 32.6035 94.4517 34.2186 93.0605L37.2098 90.4834C32.9372 80.7069 34.8651 65.5303 40.7088 69.3545C43.5318 71.2019 47.0312 75.2884 50.0975 79.3838L51.0145 78.5947C52.541 77.2802 54.9117 77.3732 56.3163 78.8027L61.7196 84.3018C61.3959 82.31 61.195 80.2666 61.1405 78.1826C60.9369 70.5833 62.6117 63.5686 65.7079 57.5537C64.7955 57.1375 64.6385 55.8094 64.6385 52.2773C64.6385 47.3802 72.3706 18.1113 100.465 18.1113Z" fill="#F04116"/>
<path d="M100.465 18.1113L100.465 12.1113L100.465 12.1113L100.465 18.1113ZM136.291 52.2773L142.291 52.2775V52.2773H136.291ZM133.786 57.8633L129.282 53.8988C127.661 55.7411 127.324 58.3855 128.434 60.5749L133.786 57.8633ZM138.305 76.1074L144.302 75.9503L144.302 75.9466L138.305 76.1074ZM138.111 81.6816L132.139 81.106C131.895 83.636 133.272 86.0452 135.575 87.1194C137.879 88.1937 140.609 87.6999 142.391 85.8869L138.111 81.6816ZM143.683 76.0107L139.404 71.8052L139.404 71.8055L143.683 76.0107ZM148.985 75.8037L145.07 80.35L145.07 80.3504L148.985 75.8037ZM150.82 77.3838L146.905 81.9304C148.145 82.9982 149.767 83.5132 151.396 83.3561C153.025 83.199 154.519 82.3834 155.532 81.0983L150.82 77.3838ZM158.677 69.3545L155.391 64.334L155.391 64.334L158.677 69.3545ZM163.107 87.9658L157.378 86.1846C156.668 88.4669 157.381 90.9526 159.192 92.5122L163.107 87.9658ZM165.781 90.2686L169.697 85.7225L169.697 85.7222L165.781 90.2686ZM165.806 95.4531L169.761 99.9643L169.762 99.9642L165.806 95.4531ZM157.459 102.772L161.414 107.284L161.415 107.284L157.459 102.772ZM156.999 103.117L153.777 98.0555C151.123 99.7452 150.224 103.198 151.719 105.967L156.999 103.117ZM144.201 153.972L147.465 159.006L147.465 159.006L144.201 153.972ZM114.732 165.92L113.642 160.02C110.797 160.545 108.732 163.027 108.732 165.92H114.732ZM114.732 172.633H108.732C108.732 174.436 109.543 176.144 110.941 177.283C112.338 178.422 114.174 178.873 115.94 178.51L114.732 172.633ZM125.174 170.486V164.486C124.768 164.486 124.363 164.528 123.966 164.609L125.174 170.486ZM129.219 172.16L133.473 167.929C133.466 167.922 133.459 167.915 133.452 167.908L129.219 172.16ZM130.9 176.188L136.9 176.188V176.188H130.9ZM105.775 167.029H111.775C111.775 165.371 111.089 163.788 109.88 162.653C108.671 161.519 107.047 160.936 105.392 161.042L105.775 167.029ZM96.2772 167.048L96.6351 161.059C94.9846 160.96 93.3666 161.547 92.1631 162.68C90.9595 163.814 90.2772 165.394 90.2772 167.048H96.2772ZM91.9442 181.889L91.9442 187.889L91.9447 187.889L91.9442 181.889ZM76.8788 181.889L76.8784 187.889H76.8788V181.889ZM71.1522 176.188L65.1522 176.187L65.1522 176.188L71.1522 176.188ZM72.8348 172.16L68.6019 167.908C68.5947 167.915 68.5876 167.922 68.5804 167.929L72.8348 172.16ZM76.8788 170.486L78.0868 164.609C77.6892 164.527 77.2843 164.486 76.8784 164.486L76.8788 170.486ZM87.3211 172.633L86.1131 178.51C87.8793 178.873 89.7152 178.422 91.1127 177.283C92.5102 176.144 93.3211 174.436 93.3211 172.633H87.3211ZM87.3211 165.991H93.3211C93.3211 163.08 91.2313 160.589 88.3643 160.083L87.3211 165.991ZM76.5467 163.295L78.4132 157.593C78.3901 157.585 78.3671 157.578 78.3439 157.57L76.5467 163.295ZM53.9706 150.393L58.1277 146.066C57.9758 145.92 57.8162 145.782 57.6497 145.653L53.9706 150.393ZM44.1044 106.386L49.6831 108.594C50.3164 106.994 50.2325 105.2 49.4527 103.666C48.6729 102.133 47.2723 101.008 45.6066 100.577L44.1044 106.386ZM42.5399 105.564L38.5837 110.075L38.584 110.076L42.5399 105.564ZM34.1942 98.2451L38.1504 93.7342L38.1501 93.7339L34.1942 98.2451ZM34.2186 93.0605L38.1343 97.6067L38.135 97.6061L34.2186 93.0605ZM37.2098 90.4834L41.1262 95.029C43.1206 93.3106 43.7619 90.4929 42.7077 88.0806L37.2098 90.4834ZM40.7088 69.3545L43.9944 64.334L43.9943 64.334L40.7088 69.3545ZM50.0975 79.3838L45.2946 82.9799C46.2907 84.3103 47.794 85.1679 49.4461 85.3483C51.0983 85.5288 52.7513 85.0158 54.011 83.9318L50.0975 79.3838ZM51.0145 78.5947L54.928 83.1427L54.9296 83.1413L51.0145 78.5947ZM56.3163 78.8027L52.0363 83.0077L52.0365 83.008L56.3163 78.8027ZM61.7196 84.3018L57.4399 88.507C59.2716 90.3712 62.0994 90.8352 64.4309 89.6542C66.7623 88.4732 68.0612 85.9189 67.6419 83.3392L61.7196 84.3018ZM61.1405 78.1826L67.1384 78.0258L67.1383 78.0219L61.1405 78.1826ZM65.7079 57.5537L71.0426 60.2997C71.7934 58.841 71.9142 57.1385 71.3769 55.5884C70.8395 54.0384 69.6909 52.7759 68.1983 52.095L65.7079 57.5537ZM64.6385 52.2773L58.6385 52.2773L58.6385 52.2774L64.6385 52.2773ZM100.465 18.1113V24.1113C111.865 24.1113 119.177 30.327 123.917 37.4537C126.302 41.0392 127.941 44.7453 128.979 47.7193C129.495 49.1997 129.848 50.4566 130.064 51.3738C130.33 52.4975 130.291 52.6912 130.291 52.2773H136.291H142.291C142.291 51.1547 142.011 49.7491 141.743 48.6167C141.427 47.2779 140.956 45.6219 140.309 43.7664C139.019 40.0684 136.969 35.4101 133.909 30.8086C127.759 21.5611 117.158 12.1113 100.465 12.1113V18.1113ZM136.291 52.2773L130.291 52.2772C130.291 52.1061 130.32 52.0725 130.28 52.202C130.243 52.3255 130.168 52.5161 130.041 52.7612C129.772 53.2815 129.433 53.7274 129.282 53.8988L133.786 57.8633L138.29 61.8277C139.019 60.9996 139.933 59.755 140.695 58.2833C141.423 56.8789 142.291 54.7405 142.291 52.2775L136.291 52.2773ZM133.786 57.8633L128.434 60.5749C130.747 65.1417 132.15 70.4387 132.307 76.2682L138.305 76.1074L144.302 75.9466C144.099 68.3687 142.266 61.3261 139.138 55.1516L133.786 57.8633ZM138.305 76.1074L132.307 76.2646C132.35 77.906 132.292 79.521 132.139 81.106L138.111 81.6816L144.084 82.2573C144.283 80.1853 144.358 78.0808 144.302 75.9503L138.305 76.1074ZM138.111 81.6816L142.391 85.8869L147.963 80.216L143.683 76.0107L139.404 71.8055L133.831 77.4764L138.111 81.6816ZM143.683 76.0107L147.963 80.2163C147.513 80.6738 146.972 80.8562 146.523 80.8737C146.073 80.8912 145.536 80.7519 145.07 80.35L148.985 75.8037L152.901 71.2574C149.001 67.8985 143.044 68.1015 139.404 71.8052L143.683 76.0107ZM148.985 75.8037L145.07 80.3504L146.905 81.9304L150.82 77.3838L154.735 72.8371L152.9 71.2571L148.985 75.8037ZM150.82 77.3838L155.532 81.0983C158.177 77.7431 160.495 75.3353 161.962 74.3749L158.677 69.3545L155.391 64.334C152.136 66.4644 148.781 70.2785 146.108 73.6692L150.82 77.3838ZM158.677 69.3545L161.962 74.375C161.895 74.4188 161.289 74.7902 160.27 74.746C159.182 74.6989 158.393 74.2132 157.992 73.8455C157.483 73.3778 157.823 73.3788 158.152 74.958C158.739 77.7639 158.599 82.2573 157.378 86.1846L163.107 87.9658L168.837 89.747C170.611 84.0394 170.937 77.4728 169.899 72.5045C169.417 70.1967 168.422 67.1321 166.112 65.0092C164.811 63.8139 163.004 62.8532 160.789 62.7573C158.642 62.6643 156.798 63.413 155.391 64.334L158.677 69.3545ZM163.107 87.9658L159.192 92.5122L161.866 94.8149L165.781 90.2686L169.697 85.7222L167.023 83.4194L163.107 87.9658ZM165.781 90.2686L161.865 94.8146C161.35 94.3709 161.003 93.6648 161 92.8839C160.996 92.1029 161.336 91.392 161.849 90.9421L165.806 95.4531L169.762 99.9642C174.107 96.1534 174.072 89.4914 169.697 85.7225L165.781 90.2686ZM165.806 95.4531L161.85 90.942L153.503 98.2613L157.459 102.772L161.415 107.284L169.761 99.9643L165.806 95.4531ZM157.459 102.772L153.503 98.261C153.592 98.1835 153.684 98.1151 153.777 98.0555L156.999 103.117L160.221 108.179C160.634 107.915 161.034 107.617 161.414 107.284L157.459 102.772ZM156.999 103.117L151.719 105.967C157.365 116.426 155.797 126.289 152.054 134.277C150.167 138.306 147.754 141.767 145.541 144.39C143.243 147.114 141.435 148.614 140.937 148.937L144.201 153.972L147.465 159.006C149.356 157.78 152.04 155.296 154.713 152.128C157.471 148.859 160.507 144.52 162.921 139.369C167.78 128.998 170.222 114.982 162.279 100.267L156.999 103.117ZM144.201 153.972L140.937 148.937C131.549 155.024 122.309 158.419 113.642 160.02L114.732 165.92L115.822 171.82C126.011 169.938 136.733 165.964 147.465 159.006L144.201 153.972ZM114.732 165.92H108.732V172.633H114.732H120.732V165.92H114.732ZM114.732 172.633L115.94 178.51L126.382 176.363L125.174 170.486L123.966 164.609L113.524 166.756L114.732 172.633ZM125.174 170.486V176.486C125.149 176.486 125.107 176.48 125.063 176.461C125.023 176.444 124.998 176.425 124.985 176.412L129.219 172.16L133.452 167.908C131.335 165.801 128.408 164.486 125.174 164.486V170.486ZM129.219 172.16L124.964 176.391C124.962 176.389 124.947 176.373 124.931 176.335C124.912 176.292 124.9 176.237 124.9 176.188H130.9H136.9C136.9 172.918 135.541 170.009 133.473 167.929L129.219 172.16ZM130.9 176.188L124.9 176.187C124.9 176.074 124.952 175.993 124.984 175.961C125.015 175.93 125.085 175.889 125.174 175.889V181.889V187.889C131.609 187.889 136.9 182.66 136.9 176.188L130.9 176.188ZM125.174 181.889V175.889H110.109V181.889V187.889H125.174V181.889ZM110.109 181.889V175.889C111.014 175.889 111.775 176.608 111.775 177.574H105.775H99.7752C99.7752 183.287 104.438 187.889 110.109 187.889V181.889ZM105.775 177.574H111.775V167.029H105.775H99.7752V177.574H105.775ZM105.775 167.029L105.392 161.042C102.383 161.234 99.4568 161.227 96.6351 161.059L96.2772 167.048L95.9193 173.037C99.2145 173.234 102.636 173.242 106.158 173.017L105.775 167.029ZM96.2772 167.048H90.2772V177.574H96.2772H102.277V167.048H96.2772ZM96.2772 177.574H90.2772C90.2772 176.609 91.0383 175.889 91.9437 175.889L91.9442 181.889L91.9447 187.889C97.6168 187.888 102.277 183.285 102.277 177.574H96.2772ZM91.9442 181.889V175.889H76.8788V181.889V187.889H91.9442V181.889ZM76.8788 181.889L76.8791 175.889C76.968 175.889 77.0374 175.93 77.0686 175.961C77.1001 175.992 77.1522 176.074 77.1522 176.187L71.1522 176.188L65.1522 176.188C65.1523 182.66 70.4436 187.888 76.8784 187.889L76.8788 181.889ZM71.1522 176.188H77.1522C77.1522 176.238 77.1401 176.293 77.1216 176.337C77.1053 176.375 77.0904 176.39 77.0892 176.391L72.8348 172.16L68.5804 167.929C66.5145 170.007 65.1522 172.915 65.1522 176.188H71.1522ZM72.8348 172.16L77.0677 176.412C77.0557 176.424 77.0313 176.444 76.991 176.461C76.9467 176.48 76.9041 176.486 76.8791 176.486L76.8788 170.486L76.8784 164.486C73.6433 164.487 70.7174 165.802 68.6019 167.908L72.8348 172.16ZM76.8788 170.486L75.6707 176.363L86.1131 178.51L87.3211 172.633L88.5292 166.756L78.0868 164.609L76.8788 170.486ZM87.3211 172.633H93.3211V165.991H87.3211H81.3211V172.633H87.3211ZM87.3211 165.991L88.3643 160.083C84.7815 159.45 81.4452 158.585 78.4132 157.593L76.5467 163.295L74.6803 168.997C78.2231 170.157 82.1093 171.164 86.2779 171.9L87.3211 165.991ZM76.5467 163.295L78.3439 157.57C70.2052 155.015 63.3075 151.043 58.1277 146.066L53.9706 150.393L49.8134 154.719C56.5148 161.158 65.1055 165.992 74.7495 169.019L76.5467 163.295ZM53.9706 150.393L57.6497 145.653C54.6064 143.291 50.8757 138.186 48.8093 131.336C46.7847 124.625 46.4899 116.661 49.6831 108.594L44.1044 106.386L38.5256 104.177C34.1964 115.114 34.6326 125.891 37.3207 134.802C39.9669 143.573 44.9305 150.971 50.2914 155.132L53.9706 150.393ZM44.1044 106.386L45.6066 100.577C45.8909 100.65 46.2066 100.8 46.4958 101.053L42.5399 105.564L38.584 110.076C39.7921 111.135 41.1854 111.828 42.6021 112.195L44.1044 106.386ZM42.5399 105.564L46.4961 101.054L38.1504 93.7342L34.1942 98.2451L30.238 102.756L38.5837 110.075L42.5399 105.564ZM34.1942 98.2451L38.1501 93.7339C38.6631 94.1838 39.0036 94.8947 39 95.6759C38.9963 96.457 38.6493 97.1631 38.1343 97.6067L34.2186 93.0605L30.3029 88.5144C25.9274 92.2832 25.8925 98.9455 30.2383 102.756L34.1942 98.2451ZM34.2186 93.0605L38.135 97.6061L41.1262 95.029L37.2098 90.4834L33.2935 85.9378L30.3023 88.515L34.2186 93.0605ZM37.2098 90.4834L42.7077 88.0806C41.0633 84.318 40.5727 79.2315 41.0998 75.7057C41.3875 73.781 41.8218 73.3864 41.552 73.6857C41.2957 73.9699 40.5718 74.591 39.378 74.7256C38.2167 74.8566 37.5006 74.4256 37.4234 74.375L40.7088 69.3545L43.9943 64.334C42.4562 63.3274 40.4015 62.5341 38.0329 62.8012C35.6319 63.0721 33.832 64.3277 32.6399 65.6498C30.4986 68.0246 29.6223 71.3182 29.2316 73.9316C28.4019 79.4822 29.0837 86.8723 31.7119 92.8862L37.2098 90.4834ZM40.7088 69.3545L37.4233 74.3749C39.2527 75.5722 42.1906 78.8341 45.2946 82.9799L50.0975 79.3838L54.9005 75.7877C51.8718 71.7426 47.8109 66.8317 43.9944 64.334L40.7088 69.3545ZM50.0975 79.3838L54.011 83.9318L54.928 83.1427L51.0145 78.5947L47.101 74.0467L46.184 74.8358L50.0975 79.3838ZM51.0145 78.5947L54.9296 83.1413C54.4628 83.5434 53.9252 83.6827 53.476 83.6651C53.0267 83.6475 52.4855 83.465 52.0363 83.0077L56.3163 78.8027L60.5962 74.5977C56.9576 70.8942 51.0007 70.6887 47.0994 74.0481L51.0145 78.5947ZM56.3163 78.8027L52.0365 83.008L57.4399 88.507L61.7196 84.3018L65.9993 80.0965L60.596 74.5975L56.3163 78.8027ZM61.7196 84.3018L67.6419 83.3392C67.3593 81.6009 67.1855 79.8268 67.1384 78.0258L61.1405 78.1826L55.1425 78.3394C55.2044 80.7063 55.4324 83.0191 55.7973 85.2643L61.7196 84.3018ZM61.1405 78.1826L67.1383 78.0219C66.9613 71.4136 68.4168 65.4009 71.0426 60.2997L65.7079 57.5537L60.3731 54.8077C56.8066 61.7364 54.9125 69.753 55.1426 78.3433L61.1405 78.1826ZM65.7079 57.5537L68.1983 52.095C68.6163 52.2857 69.0396 52.5533 69.4299 52.9072C69.817 53.2581 70.0999 53.6287 70.3001 53.9622C70.4943 54.2857 70.6014 54.5584 70.6571 54.7245C70.7123 54.889 70.7302 54.9884 70.7302 54.9886C70.7306 54.9908 70.7207 54.9361 70.7077 54.8042C70.695 54.6742 70.682 54.4961 70.6709 54.2566C70.6484 53.7678 70.6385 53.1313 70.6385 52.2773L64.6385 52.2773L58.6385 52.2774C58.6385 53.953 58.6612 55.7213 58.9319 57.1793C59.2174 58.7166 60.0973 61.589 63.2174 63.0124L65.7079 57.5537ZM64.6385 52.2773H70.6385C70.6385 52.3223 70.6375 52.1999 70.6811 51.868C70.7217 51.5593 70.7907 51.1458 70.8977 50.6355C71.112 49.6144 71.4588 48.3012 71.9679 46.7995C72.9905 43.7835 74.6087 40.1822 76.9625 36.7543C81.6027 29.9968 88.8919 24.1113 100.465 24.1113L100.465 18.1113L100.465 12.1113C83.9435 12.1113 73.3196 20.8604 67.0702 29.9616C63.9792 34.463 61.9085 39.0971 60.6034 42.9463C59.3569 46.6225 58.6385 50.0923 58.6385 52.2773H64.6385Z" fill="white" mask="url(#path-1-outside-1_922_9789)"/>
<path d="M40.7091 69.3548C45.6148 72.5652 52.5694 82.5316 55.7288 87.5703C55.9286 87.8889 56.0266 88.2606 55.9952 88.6354C55.6104 93.2284 53.3052 99.1869 51.7364 102.612C51.3737 103.404 50.4922 103.811 49.6931 103.464C46.9305 102.266 42.2914 99.1225 38.4277 92.8315C32.6397 83.4075 34.3715 65.2072 40.7091 69.3548Z" fill="#D7E8FC"/>
<path d="M158.677 69.3548C153.771 72.5652 146.817 82.5316 143.657 87.5703C143.458 87.8889 143.36 88.2606 143.391 88.6354C143.776 93.2284 146.081 99.1869 147.65 102.612C148.013 103.404 148.894 103.811 149.693 103.464C152.456 102.266 157.095 99.1225 160.959 92.8315C166.747 83.4075 165.015 65.2072 158.677 69.3548Z" fill="#D7E8FC"/>
<path d="M96.2778 130.36V177.574C96.2778 179.947 94.3277 181.889 91.9442 181.889H76.8795C73.7324 181.889 71.1528 179.321 71.1528 176.187C71.1528 174.616 71.8029 173.198 72.8347 172.16C73.8769 171.123 75.3008 170.486 76.8795 170.486L87.3216 172.633V130.37C87.3216 127.997 89.2717 126.056 91.6552 126.056H91.9442C94.3277 126.056 96.2778 127.997 96.2778 130.37V130.36Z" fill="#474747"/>
<path d="M105.776 130.36V177.574C105.776 179.947 107.726 181.889 110.11 181.889H125.174C128.321 181.889 130.901 179.321 130.901 176.187C130.901 174.616 130.251 173.198 129.219 172.16C128.177 171.123 126.753 170.486 125.174 170.486L114.732 172.633V130.37C114.732 127.997 112.782 126.056 110.398 126.056H110.11C107.726 126.056 105.776 127.997 105.776 130.37V130.36Z" fill="#474747"/>
<path d="M56.3165 78.8028L62.7115 85.3119C64.0353 86.6592 64.0413 88.7343 62.7254 90.0884L47.881 105.364C46.4704 106.815 44.0699 106.905 42.5405 105.564L34.1941 98.2451C32.5922 96.8404 32.6036 94.4512 34.2189 93.0601L51.0146 78.5949C52.5412 77.2802 54.9119 77.3732 56.3165 78.8028Z" fill="#F04116"/>
<path d="M143.684 76.0112L137.288 82.5203C135.965 83.8676 135.959 85.9427 137.275 87.2968L152.119 102.572C153.53 104.023 155.93 104.114 157.459 102.772L165.806 95.4534C167.408 94.0487 167.396 91.6596 165.781 90.2685L148.985 75.8033C147.459 74.4886 145.088 74.5815 143.684 76.0112Z" fill="#F04116"/>
<path d="M160.471 119.404C161.198 146.413 135.036 165.821 102.155 166.707C69.267 167.593 42.1156 149.613 41.3895 122.61C40.9868 107.459 49.0074 93.6959 61.9395 84.3687C77.8707 88.4255 115.367 93.6951 137.901 82.3195C142.74 85.4263 146.972 89.148 150.424 93.3389C156.544 100.776 160.214 109.713 160.471 119.404Z" fill="#F04116"/>
<path d="M98.6433 36.7365C119.952 36.1614 137.684 52.9577 138.305 76.107C138.366 78.444 138.253 80.7412 137.968 82.988C115.018 93.4865 78.883 88.8192 61.7927 84.7474C61.4249 82.6152 61.1997 80.4221 61.1411 78.1826C60.5208 55.0334 77.3343 37.3116 98.6433 36.7365Z" fill="#4B9AE8"/>
<path d="M107.656 72.588C107.48 76.2687 102.922 81.7689 99.1827 81.6003C95.4435 81.4317 91.4282 75.5291 91.6039 71.8484C91.7796 68.1678 94.3655 65.2975 99.9477 65.5527C105.53 65.8078 107.831 68.9074 107.656 72.588Z" fill="#EAC00F"/>
<path d="M64.6387 52.2772C64.6387 56.1949 64.8317 57.4019 66.0345 57.6597C71.1526 50.2152 79.0723 41.7097 101.238 41.7097C118.971 41.7097 130.277 52.5349 133.714 57.9476C134.573 57.0025 136.291 54.5453 136.291 52.2772C136.291 49.442 128.559 18.111 100.465 18.111C72.371 18.111 64.6387 47.3801 64.6387 52.2772Z" fill="#F04116"/>
<circle cx="100.465" cy="36.2569" r="11.6319" fill="white"/>
<path d="M101.226 48.3647C89.46 48.3647 83.6293 50.6232 82.8413 50.6232C82.0534 50.6232 64.0026 57.803 70.8313 51.0276C77.66 44.2522 85.1109 39.979 100.387 39.979C116.75 39.979 123.654 47.11 128.382 50.6232C132.164 53.4337 130.538 54.617 129.312 54.8679C125.46 53.0277 112.993 48.3647 101.226 48.3647Z" fill="#B73110"/>
<path d="M113.493 88.8333C126.056 87.9028 134.431 84.1805 137.688 82.7847C183.285 114.889 150.25 150.05 144.201 153.972C101.861 181.423 60.9171 158.625 56.7295 152.111C44.6321 146.527 26.9514 111.167 61.382 84.6458L88.8334 88.8333L90.9059 96.7147C91.3095 98.2497 92.6397 99.362 94.2245 99.4491C98.898 99.7059 105.105 99.8597 108.12 99.7179C109.179 99.6681 110.003 98.975 110.358 97.9756C111.241 95.4843 112.662 91.1314 113.493 88.8333Z" fill="#0062AD"/>
<path d="M79.528 72.0833C83.6394 72.0833 86.9724 68.7504 86.9724 64.6389C86.9724 60.5275 83.6394 57.1945 79.528 57.1945C75.4165 57.1945 72.0835 60.5275 72.0835 64.6389C72.0835 68.7504 75.4165 72.0833 79.528 72.0833Z" fill="white"/>
<path d="M79.4123 69.1558C81.8772 69.1558 83.8754 67.1576 83.8754 64.6927C83.8754 62.2278 81.8772 60.2296 79.4123 60.2296C76.9474 60.2296 74.9492 62.2278 74.9492 64.6927C74.9492 67.1576 76.9474 69.1558 79.4123 69.1558Z" fill="black"/>
<path d="M119.542 72.0833C123.653 72.0833 126.986 68.7504 126.986 64.6389C126.986 60.5275 123.653 57.1945 119.542 57.1945C115.43 57.1945 112.097 60.5275 112.097 64.6389C112.097 68.7504 115.43 72.0833 119.542 72.0833Z" fill="white"/>
<path d="M119.426 69.1558C121.891 69.1558 123.889 67.1576 123.889 64.6927C123.889 62.2278 121.891 60.2296 119.426 60.2296C116.961 60.2296 114.963 62.2278 114.963 64.6927C114.963 67.1576 116.961 69.1558 119.426 69.1558Z" fill="black"/>
<circle cx="77.5139" cy="106.514" r="6.51389" fill="#FADD1D"/>
<circle cx="124.514" cy="106.514" r="6.51389" fill="#FADD1D"/>
<path d="M93.4863 36.7221L97.1052 30.2083L100.362 33.9795L103.619 30.2083L106.514 36.7221" stroke="#F04116" stroke-width="2.79167" stroke-linecap="round" stroke-linejoin="round"/>
</svg>
