<svg width="200" height="200" viewBox="0 0 200 200" fill="none" xmlns="http://www.w3.org/2000/svg">
<mask id="path-1-outside-1_1062_24481" maskUnits="userSpaceOnUse" x="23" y="77" width="106" height="107" fill="black">
<rect fill="white" x="23" y="77" width="106" height="107"/>
<path d="M122.868 82.0649C124.057 81.7152 125.177 82.8353 124.862 84.06L117.968 109.747C117.653 110.971 116.149 111.356 115.274 110.481L108.318 103.526L101.235 110.609C104.499 114.105 107.003 118.139 108.661 122.658L108.664 122.659C111.044 129.028 111.534 136.028 109.924 142.957C108.473 149.206 109.804 155.63 113.493 160.703L113.864 160.334C114.548 159.652 115.656 159.654 116.338 160.338C117.02 161.022 117.019 162.131 116.334 162.813L115.772 163.373L115.776 163.371C118.389 166.034 118.373 170.303 115.729 172.947C113.079 175.596 108.798 175.607 106.136 172.978L106.137 172.975L105.731 173.381C105.046 174.063 103.938 174.062 103.256 173.377C102.574 172.693 102.576 171.585 103.26 170.903L103.781 170.383C96.7849 161.897 94.126 150.711 96.6615 139.841C97.6762 135.572 97.3609 131.267 95.9261 127.348L95.9378 127.33L95.889 127.348C94.93 124.688 93.4777 122.302 91.6068 120.237L65.9886 145.856L63.5179 164.374C63.4516 164.97 63.2888 165.543 63.0413 166.078L101.176 166.798C101.953 168.024 102.811 169.209 103.745 170.346L60.0824 169.522L51.4788 178.126C49.0293 180.576 45.0406 180.576 42.556 178.126C40.1419 175.712 40.1076 171.804 42.4515 169.313C41.0873 170.261 39.1999 170.129 37.9837 168.913C36.6871 167.616 36.6208 165.555 37.7845 164.18L37.7738 164.188C37.7256 164.245 37.679 164.303 37.6351 164.363L37.6341 164.316C35.1425 166.645 31.2464 166.608 28.8372 164.199C26.3876 161.714 26.3876 157.725 28.8372 155.275L37.3206 146.79L36.5404 103.115C36.5759 103.144 36.6121 103.172 36.6478 103.202C36.5229 103.099 36.3985 102.996 36.2747 102.892L35.7425 103.424C35.0592 104.108 33.9512 104.108 33.2679 103.424C32.5846 102.741 32.5846 101.633 33.2679 100.95L33.7152 100.501C31.3284 97.8255 31.4182 93.6963 33.9847 91.1636C36.5506 88.6316 40.6469 88.5425 43.3206 90.896L43.8714 90.3462C44.5547 89.6629 45.6627 89.6629 46.346 90.3462C47.0293 91.0295 47.0293 92.1375 46.346 92.8208L45.9486 93.2173L45.9525 93.2153C51.0664 97.0786 57.6099 98.4805 63.971 96.9731C69.8851 95.6083 75.9043 95.7481 81.5384 97.3227V97.3511C87.0595 98.872 92.1198 101.736 96.2904 105.657L103.369 98.5776L96.4456 91.6538C95.5709 90.7789 95.9912 89.2744 97.181 88.9595L122.868 82.0649ZM37.5677 103.929C38.3854 104.554 39.2255 105.142 40.0863 105.689L40.766 143.76C41.3349 143.484 41.9539 143.307 42.5902 143.237L61.1937 140.752L86.6566 115.291C84.1422 113.021 81.116 111.362 77.8314 110.446V110.443L77.8294 110.446C74.4 109.501 70.7256 109.396 67.0863 110.236C56.6483 112.671 45.9185 110.315 37.5677 103.929ZM37.1595 103.611C37.2601 103.69 37.36 103.77 37.4613 103.848C37.36 103.77 37.2601 103.69 37.1595 103.611ZM36.7591 103.291C36.8561 103.37 36.9534 103.448 37.0511 103.526C36.9534 103.448 36.8561 103.37 36.7591 103.291Z"/>
</mask>
<path d="M122.868 82.0649C124.057 81.7152 125.177 82.8353 124.862 84.06L117.968 109.747C117.653 110.971 116.149 111.356 115.274 110.481L108.318 103.526L101.235 110.609C104.499 114.105 107.003 118.139 108.661 122.658L108.664 122.659C111.044 129.028 111.534 136.028 109.924 142.957C108.473 149.206 109.804 155.63 113.493 160.703L113.864 160.334C114.548 159.652 115.656 159.654 116.338 160.338C117.02 161.022 117.019 162.131 116.334 162.813L115.772 163.373L115.776 163.371C118.389 166.034 118.373 170.303 115.729 172.947C113.079 175.596 108.798 175.607 106.136 172.978L106.137 172.975L105.731 173.381C105.046 174.063 103.938 174.062 103.256 173.377C102.574 172.693 102.576 171.585 103.26 170.903L103.781 170.383C96.7849 161.897 94.126 150.711 96.6615 139.841C97.6762 135.572 97.3609 131.267 95.9261 127.348L95.9378 127.33L95.889 127.348C94.93 124.688 93.4777 122.302 91.6068 120.237L65.9886 145.856L63.5179 164.374C63.4516 164.97 63.2888 165.543 63.0413 166.078L101.176 166.798C101.953 168.024 102.811 169.209 103.745 170.346L60.0824 169.522L51.4788 178.126C49.0293 180.576 45.0406 180.576 42.556 178.126C40.1419 175.712 40.1076 171.804 42.4515 169.313C41.0873 170.261 39.1999 170.129 37.9837 168.913C36.6871 167.616 36.6208 165.555 37.7845 164.18L37.7738 164.188C37.7256 164.245 37.679 164.303 37.6351 164.363L37.6341 164.316C35.1425 166.645 31.2464 166.608 28.8372 164.199C26.3876 161.714 26.3876 157.725 28.8372 155.275L37.3206 146.79L36.5404 103.115C36.5759 103.144 36.6121 103.172 36.6478 103.202C36.5229 103.099 36.3985 102.996 36.2747 102.892L35.7425 103.424C35.0592 104.108 33.9512 104.108 33.2679 103.424C32.5846 102.741 32.5846 101.633 33.2679 100.95L33.7152 100.501C31.3284 97.8255 31.4182 93.6963 33.9847 91.1636C36.5506 88.6316 40.6469 88.5425 43.3206 90.896L43.8714 90.3462C44.5547 89.6629 45.6627 89.6629 46.346 90.3462C47.0293 91.0295 47.0293 92.1375 46.346 92.8208L45.9486 93.2173L45.9525 93.2153C51.0664 97.0786 57.6099 98.4805 63.971 96.9731C69.8851 95.6083 75.9043 95.7481 81.5384 97.3227V97.3511C87.0595 98.872 92.1198 101.736 96.2904 105.657L103.369 98.5776L96.4456 91.6538C95.5709 90.7789 95.9912 89.2744 97.181 88.9595L122.868 82.0649ZM37.5677 103.929C38.3854 104.554 39.2255 105.142 40.0863 105.689L40.766 143.76C41.3349 143.484 41.9539 143.307 42.5902 143.237L61.1937 140.752L86.6566 115.291C84.1422 113.021 81.116 111.362 77.8314 110.446V110.443L77.8294 110.446C74.4 109.501 70.7256 109.396 67.0863 110.236C56.6483 112.671 45.9185 110.315 37.5677 103.929ZM37.1595 103.611C37.2601 103.69 37.36 103.77 37.4613 103.848C37.36 103.77 37.2601 103.69 37.1595 103.611ZM36.7591 103.291C36.8561 103.37 36.9534 103.448 37.0511 103.526C36.9534 103.448 36.8561 103.37 36.7591 103.291Z" fill="#D3D3D3"/>
<path d="M122.868 82.0649L123.904 85.9282C123.935 85.92 123.965 85.9115 123.996 85.9026L122.868 82.0649ZM124.862 84.06L128.725 85.0968C128.729 85.0833 128.732 85.0698 128.736 85.0562L124.862 84.06ZM117.968 109.747L114.105 108.71C114.101 108.723 114.098 108.736 114.094 108.75L117.968 109.747ZM115.274 110.481L112.446 113.31L112.446 113.31L115.274 110.481ZM108.318 103.526L111.146 100.697C109.584 99.1353 107.051 99.1354 105.489 100.697L108.318 103.526ZM101.235 110.609L98.4063 107.78C96.8818 109.305 96.8398 111.763 98.3113 113.339L101.235 110.609ZM108.661 122.658L104.906 124.036C105.326 125.178 106.242 126.068 107.397 126.452L108.661 122.658ZM108.664 122.659L112.411 121.259C111.988 120.126 111.076 119.246 109.929 118.864L108.664 122.659ZM109.924 142.957L106.028 142.051L106.028 142.052L109.924 142.957ZM113.493 160.703L110.259 163.055C110.945 164 112.011 164.597 113.175 164.69C114.34 164.783 115.486 164.362 116.314 163.539L113.493 160.703ZM113.864 160.334L116.685 163.17L116.688 163.167L113.864 160.334ZM116.338 160.338L119.171 157.514L119.171 157.514L116.338 160.338ZM116.334 162.813L119.155 165.649L119.159 165.645L116.334 162.813ZM115.772 163.373L112.951 160.537C111.559 161.922 111.378 164.113 112.524 165.707C113.67 167.302 115.804 167.828 117.561 166.95L115.772 163.373ZM115.776 163.371L118.631 160.569C117.415 159.33 115.539 159.017 113.987 159.793L115.776 163.371ZM115.729 172.947L118.557 175.775L118.557 175.775L115.729 172.947ZM106.136 172.978L102.341 171.713C101.859 173.159 102.241 174.753 103.325 175.824L106.136 172.978ZM106.137 172.975L109.932 174.24C110.518 172.48 109.818 170.548 108.24 169.572C106.662 168.597 104.62 168.835 103.309 170.147L106.137 172.975ZM105.731 173.381L108.554 176.215L108.559 176.21L105.731 173.381ZM103.256 173.377L106.09 170.554L106.089 170.553L103.256 173.377ZM103.26 170.903L106.084 173.736L106.086 173.734L103.26 170.903ZM103.781 170.383L106.606 173.214C108.066 171.758 108.179 169.43 106.867 167.839L103.781 170.383ZM96.6615 139.841L92.7699 138.916C92.7686 138.922 92.7673 138.927 92.766 138.933L96.6615 139.841ZM95.9261 127.348L92.5442 125.212C91.8816 126.261 91.7434 127.558 92.1699 128.723L95.9261 127.348ZM95.9378 127.33L99.3198 129.466C100.239 128.01 100.124 126.13 99.0347 124.798C97.9454 123.465 96.1258 122.979 94.517 123.59L95.9378 127.33ZM95.889 127.348L92.126 128.705C92.4898 129.714 93.2437 130.535 94.2185 130.983C95.1932 131.431 96.3071 131.468 97.3099 131.087L95.889 127.348ZM91.6068 120.237L94.5712 117.551C93.8359 116.74 92.8001 116.265 91.7053 116.238C90.6106 116.211 89.5526 116.634 88.7783 117.408L91.6068 120.237ZM65.9886 145.856L63.1601 143.028C62.5392 143.649 62.1399 144.457 62.0237 145.327L65.9886 145.856ZM63.5179 164.374L59.553 163.845C59.5492 163.873 59.5456 163.903 59.5424 163.932L63.5179 164.374ZM63.0413 166.078L59.411 164.398C58.8436 165.625 58.9338 167.055 59.6508 168.2C60.3679 169.345 61.6147 170.051 62.9658 170.077L63.0413 166.078ZM101.176 166.798L104.555 164.657C103.835 163.522 102.595 162.824 101.252 162.799L101.176 166.798ZM103.745 170.346L103.67 174.345C105.231 174.375 106.666 173.494 107.346 172.089C108.026 170.684 107.827 169.012 106.835 167.806L103.745 170.346ZM60.0824 169.522L60.1579 165.523C59.0709 165.502 58.0224 165.925 57.2538 166.694L60.0824 169.522ZM51.4788 178.126L54.3071 180.955L54.3074 180.955L51.4788 178.126ZM42.556 178.126L39.7276 180.955C39.7343 180.962 39.7411 180.968 39.7479 180.975L42.556 178.126ZM42.4515 169.313L45.3647 172.054C46.7681 170.562 46.8182 168.252 45.4807 166.701C44.1432 165.15 41.8502 164.86 40.1685 166.028L42.4515 169.313ZM37.9837 168.913L35.155 171.741L35.1555 171.741L37.9837 168.913ZM37.7845 164.18L40.8379 166.764C42.1455 165.219 42.0927 162.941 40.715 161.458C39.3373 159.975 37.0688 159.755 35.4318 160.945L37.7845 164.18ZM37.7738 164.188L35.4211 160.953C35.159 161.144 34.9211 161.365 34.7125 161.613L37.7738 164.188ZM37.6351 164.363L33.636 164.446C33.6716 166.158 34.7929 167.657 36.4248 168.175C38.0568 168.693 39.8375 168.115 40.8539 166.737L37.6351 164.363ZM37.6341 164.316L41.6332 164.233C41.6004 162.655 40.6427 161.244 39.1885 160.63C37.7342 160.017 36.0553 160.316 34.9024 161.394L37.6341 164.316ZM28.8372 164.199L25.9888 167.007C25.9955 167.014 26.0023 167.021 26.009 167.027L28.8372 164.199ZM28.8372 155.275L31.6657 158.103L31.666 158.103L28.8372 155.275ZM37.3206 146.79L40.1494 149.618C40.9169 148.85 41.3394 147.803 41.32 146.718L37.3206 146.79ZM36.5404 103.115L39.0849 100.028C37.8804 99.0353 36.208 98.8337 34.802 99.5122C33.3959 100.191 32.5131 101.625 32.541 103.186L36.5404 103.115ZM36.6478 103.202L34.1151 106.298C35.825 107.696 38.3451 107.444 39.7438 105.734C41.1426 104.024 40.8904 101.504 39.1806 100.106L36.6478 103.202ZM36.2747 102.892L38.8491 99.8306C37.2605 98.4947 34.914 98.5959 33.4463 100.064L36.2747 102.892ZM35.7425 103.424L32.9141 100.596L32.9141 100.596L35.7425 103.424ZM33.2679 103.424L36.0963 100.596L36.0963 100.596L33.2679 103.424ZM33.2679 100.95L36.0963 103.778L36.0994 103.775L33.2679 100.95ZM33.7152 100.501L36.5467 103.327C38.0433 101.827 38.1107 99.4202 36.7003 97.839L33.7152 100.501ZM33.9847 91.1636L31.1751 88.3164L31.1751 88.3164L33.9847 91.1636ZM43.3206 90.896L40.6777 93.8985C42.2608 95.292 44.6539 95.2169 46.1466 93.7269L43.3206 90.896ZM43.8714 90.3462L46.6973 93.1771L46.6998 93.1747L43.8714 90.3462ZM46.346 90.3462L49.1745 87.5178L49.1745 87.5177L46.346 90.3462ZM46.346 92.8208L49.171 95.6527L49.1746 95.6491L46.346 92.8208ZM45.9486 93.2173L43.1236 90.3854C41.734 91.7715 41.5555 93.9611 42.7022 95.5541C43.8488 97.1471 45.9819 97.6727 47.7374 96.795L45.9486 93.2173ZM45.9525 93.2153L48.3636 90.0237C47.1507 89.1074 45.5232 88.9578 44.1636 89.6376L45.9525 93.2153ZM63.971 96.9731L63.0716 93.0756C63.064 93.0773 63.0563 93.0791 63.0487 93.0809L63.971 96.9731ZM81.5384 97.3227H85.5384C85.5384 95.5283 84.3434 93.9534 82.6151 93.4704L81.5384 97.3227ZM81.5384 97.3511H77.5384C77.5384 99.1511 78.7407 100.729 80.4761 101.207L81.5384 97.3511ZM96.2904 105.657L93.5504 108.571C95.1249 110.051 97.5906 110.013 99.1188 108.485L96.2904 105.657ZM103.369 98.5776L106.198 101.406C107.76 99.844 107.76 97.3113 106.198 95.7492L103.369 98.5776ZM96.4456 91.6538L93.6169 94.4819L93.6172 94.4822L96.4456 91.6538ZM97.181 88.9595L98.2046 92.8263L98.2179 92.8227L97.181 88.9595ZM37.5677 103.929L39.9974 100.752C38.2425 99.4098 35.7322 99.7446 34.3903 101.499C33.0484 103.254 33.3831 105.765 35.1379 107.107L37.5677 103.929ZM40.0863 105.689L44.0856 105.618C44.0617 104.275 43.3656 103.034 42.2324 102.313L40.0863 105.689ZM40.766 143.76L36.7666 143.832C36.791 145.196 37.5096 146.454 38.6727 147.169C39.8358 147.883 41.2829 147.955 42.5111 147.359L40.766 143.76ZM42.5902 143.237L43.0319 147.212C43.0612 147.209 43.0904 147.206 43.1196 147.202L42.5902 143.237ZM61.1937 140.752L61.7232 144.717C62.5934 144.601 63.4012 144.202 64.0221 143.581L61.1937 140.752ZM86.6566 115.291L89.4849 118.119C90.2602 117.344 90.6833 116.284 90.6553 115.188C90.6273 114.092 90.1506 113.056 89.3367 112.321L86.6566 115.291ZM77.8314 110.446H73.8314C73.8314 112.241 75.0276 113.817 76.757 114.299L77.8314 110.446ZM77.8314 110.443H81.8314C81.8314 108.68 80.6776 107.125 78.9905 106.614C77.3035 106.104 75.4809 106.757 74.5032 108.224L77.8314 110.443ZM77.8294 110.446L76.7671 114.302C78.4306 114.76 80.2005 114.1 81.1576 112.665L77.8294 110.446ZM67.0863 110.236L66.187 106.338L66.1776 106.34L67.0863 110.236ZM37.1595 103.611L39.635 100.469C37.8998 99.1017 35.3848 99.4 34.0176 101.135C32.6504 102.87 32.9487 105.385 34.6839 106.753L37.1595 103.611ZM37.4613 103.848L35.0197 107.017C36.7695 108.365 39.2811 108.04 40.6296 106.29C41.9781 104.54 41.6528 102.028 39.903 100.68L37.4613 103.848ZM36.7591 103.291L39.2794 100.185C37.5639 98.7934 35.0449 99.0557 33.653 100.771C32.2611 102.487 32.5233 105.006 34.2387 106.398L36.7591 103.291ZM37.0511 103.526L34.5635 106.658C36.2934 108.032 38.8096 107.743 40.1834 106.014C41.5573 104.284 41.2687 101.767 39.5388 100.394L37.0511 103.526ZM122.868 82.0649L123.996 85.9026C122.028 86.4809 120.577 84.6627 120.988 83.0639L124.862 84.06L128.736 85.0562C129.777 81.0079 126.087 76.9494 121.739 78.2273L122.868 82.0649ZM124.862 84.06L120.998 83.0232L114.105 108.71L117.968 109.747L121.831 110.783L128.725 85.0968L124.862 84.06ZM117.968 109.747L114.094 108.75C114.568 106.909 116.835 106.386 118.102 107.652L115.274 110.481L112.446 113.31C115.462 116.325 120.738 115.033 121.842 110.744L117.968 109.747ZM115.274 110.481L118.102 107.652L111.146 100.697L108.318 103.526L105.489 106.354L112.446 113.31L115.274 110.481ZM108.318 103.526L105.489 100.697L98.4063 107.78L101.235 110.609L104.063 113.437L111.146 106.354L108.318 103.526ZM101.235 110.609L98.3113 113.339C101.218 116.451 103.436 120.028 104.906 124.036L108.661 122.658L112.417 121.28C110.571 116.251 107.781 111.758 104.158 107.879L101.235 110.609ZM108.661 122.658L107.397 126.452L107.399 126.453L108.664 122.659L109.929 118.864L109.926 118.863L108.661 122.658ZM108.664 122.659L104.917 124.059C107.02 129.687 107.46 135.885 106.028 142.051L109.924 142.957L113.82 143.862C115.607 136.17 115.068 128.368 112.411 121.259L108.664 122.659ZM109.924 142.957L106.028 142.052C104.315 149.43 105.886 157.043 110.259 163.055L113.493 160.703L116.728 158.35C113.723 154.217 112.631 148.981 113.82 143.861L109.924 142.957ZM113.493 160.703L116.314 163.539L116.685 163.17L113.864 160.334L111.043 157.499L110.673 157.867L113.493 160.703ZM113.864 160.334L116.688 163.167C115.807 164.046 114.382 164.041 113.506 163.163L116.338 160.338L119.171 157.514C116.93 155.267 113.289 155.258 111.039 157.502L113.864 160.334ZM116.338 160.338L113.505 163.162C112.628 162.282 112.63 160.858 113.51 159.981L116.334 162.813L119.159 165.645C121.407 163.403 121.413 159.763 119.171 157.514L116.338 160.338ZM116.334 162.813L113.513 159.977L112.951 160.537L115.772 163.373L118.593 166.208L119.155 165.649L116.334 162.813ZM115.772 163.373L117.561 166.95L117.565 166.948L115.776 163.371L113.987 159.793L113.983 159.795L115.772 163.373ZM115.776 163.371L112.921 166.172C113.998 167.27 113.991 169.027 112.9 170.118L115.729 172.947L118.557 175.775C122.754 171.579 122.78 164.798 118.631 160.569L115.776 163.371ZM115.729 172.947L112.9 170.118C111.807 171.212 110.044 171.216 108.947 170.132L106.136 172.978L103.325 175.824C107.551 179.998 114.352 179.98 118.557 175.775L115.729 172.947ZM106.136 172.978L109.931 174.243L109.932 174.24L106.137 172.975L102.342 171.71L102.341 171.713L106.136 172.978ZM106.137 172.975L103.309 170.147L102.902 170.553L105.731 173.381L108.559 176.21L108.965 175.804L106.137 172.975ZM105.731 173.381L102.907 170.548C103.786 169.672 105.211 169.672 106.09 170.554L103.256 173.377L100.423 176.201C102.666 178.452 106.306 178.455 108.554 176.215L105.731 173.381ZM103.256 173.377L106.089 170.553C106.966 171.433 106.964 172.858 106.084 173.736L103.26 170.903L100.437 168.069C98.187 170.311 98.1813 173.952 100.423 176.202L103.256 173.377ZM103.26 170.903L106.086 173.734L106.606 173.214L103.781 170.383L100.955 167.552L100.434 168.072L103.26 170.903ZM103.781 170.383L106.867 167.839C100.664 160.314 98.3047 150.405 100.557 140.75L96.6615 139.841L92.766 138.933C89.9473 151.017 92.9055 163.479 100.694 172.928L103.781 170.383ZM96.6615 139.841L100.553 140.766C101.754 135.714 101.38 130.61 99.6823 125.973L95.9261 127.348L92.1699 128.723C93.342 131.925 93.5985 135.43 92.7699 138.916L96.6615 139.841ZM95.9261 127.348L99.3081 129.484L99.3198 129.466L95.9378 127.33L92.5559 125.194L92.5442 125.212L95.9261 127.348ZM95.9378 127.33L94.517 123.59L94.4681 123.609L95.889 127.348L97.3099 131.087L97.3587 131.069L95.9378 127.33ZM95.889 127.348L99.652 125.992C98.512 122.829 96.7844 119.994 94.5712 117.551L91.6068 120.237L88.6424 122.922C90.171 124.61 91.348 126.546 92.126 128.705L95.889 127.348ZM91.6068 120.237L88.7783 117.408L63.1601 143.028L65.9886 145.856L68.8171 148.684L94.4353 123.065L91.6068 120.237ZM65.9886 145.856L62.0237 145.327L59.553 163.845L63.5179 164.374L67.4828 164.903L69.9535 146.385L65.9886 145.856ZM63.5179 164.374L59.5424 163.932C59.5247 164.09 59.4815 164.246 59.411 164.398L63.0413 166.078L66.6717 167.757C67.096 166.84 67.3784 165.85 67.4934 164.815L63.5179 164.374ZM63.0413 166.078L62.9658 170.077L101.101 170.798L101.176 166.798L101.252 162.799L63.1169 162.078L63.0413 166.078ZM101.176 166.798L97.7976 168.94C98.6633 170.306 99.6173 171.623 100.656 172.886L103.745 170.346L106.835 167.806C106.004 166.795 105.243 165.743 104.555 164.657L101.176 166.798ZM103.745 170.346L103.821 166.347L60.1579 165.523L60.0824 169.522L60.0069 173.521L103.67 174.345L103.745 170.346ZM60.0824 169.522L57.2538 166.694L48.6503 175.298L51.4788 178.126L54.3074 180.955L62.9109 172.35L60.0824 169.522ZM51.4788 178.126L48.6506 175.298C47.7741 176.174 46.3025 176.203 45.3641 175.278L42.556 178.126L39.7479 180.975C43.7786 184.948 50.2845 184.977 54.3071 180.955L51.4788 178.126ZM42.556 178.126L45.3844 175.298C44.5215 174.435 44.4802 172.994 45.3647 172.054L42.4515 169.313L39.5383 166.572C35.735 170.614 35.7624 176.99 39.7276 180.955L42.556 178.126ZM42.4515 169.313L40.1685 166.028C40.3636 165.893 40.6333 165.905 40.812 166.084L37.9837 168.913L35.1555 171.741C37.7665 174.352 41.8109 174.63 44.7345 172.597L42.4515 169.313ZM37.9837 168.913L40.8124 166.084C40.999 166.271 41.0067 166.565 40.8379 166.764L37.7845 164.18L34.7311 161.596C32.2348 164.546 32.3752 168.96 35.155 171.741L37.9837 168.913ZM37.7845 164.18L35.4318 160.945L35.4211 160.953L37.7738 164.188L40.1265 167.423L40.1372 167.415L37.7845 164.18ZM37.7738 164.188L34.7125 161.613C34.6271 161.715 34.5244 161.842 34.4162 161.988L37.6351 164.363L40.8539 166.737C40.8434 166.752 40.8359 166.761 40.8328 166.765C40.8297 166.769 40.83 166.769 40.835 166.763L37.7738 164.188ZM37.6351 164.363L41.6342 164.279L41.6332 164.233L37.6341 164.316L33.635 164.399L33.636 164.446L37.6351 164.363ZM37.6341 164.316L34.9024 161.394C33.9614 162.274 32.5256 162.23 31.6655 161.37L28.8372 164.199L26.009 167.027C29.9672 170.985 36.3237 171.017 40.3659 167.238L37.6341 164.316ZM28.8372 164.199L31.6857 161.39C30.7605 160.452 30.7891 158.98 31.6657 158.103L28.8372 155.275L26.0088 152.446C21.9861 156.469 22.0147 162.976 25.9888 167.007L28.8372 164.199ZM28.8372 155.275L31.666 158.103L40.1494 149.618L37.3206 146.79L34.4919 143.961L26.0085 152.447L28.8372 155.275ZM37.3206 146.79L41.32 146.718L40.5397 103.043L36.5404 103.115L32.541 103.186L33.3213 146.861L37.3206 146.79ZM36.5404 103.115L33.9958 106.201C34.0357 106.234 34.0719 106.263 34.0894 106.277C34.1005 106.286 34.1054 106.29 34.1108 106.294C34.1154 106.298 34.1163 106.299 34.1151 106.298L36.6478 103.202L39.1804 100.106C39.1454 100.077 39.1111 100.049 39.0987 100.039C39.0803 100.025 39.0806 100.025 39.0849 100.028L36.5404 103.115ZM36.6478 103.202L39.1806 100.106C39.0711 100.016 38.9606 99.9244 38.8491 99.8306L36.2747 102.892L33.7004 105.954C33.8364 106.068 33.9747 106.183 34.115 106.298L36.6478 103.202ZM36.2747 102.892L33.4463 100.064L32.9141 100.596L35.7425 103.424L38.5709 106.253L39.1032 105.721L36.2747 102.892ZM35.7425 103.424L32.9141 100.596C33.7929 99.717 35.2176 99.7171 36.0963 100.596L33.2679 103.424L30.4395 106.253C32.6849 108.498 36.3255 108.498 38.5709 106.253L35.7425 103.424ZM33.2679 103.424L36.0963 100.596C36.9751 101.475 36.9751 102.899 36.0963 103.778L33.2679 100.95L30.4396 98.1212C28.194 100.367 28.194 104.007 30.4396 106.253L33.2679 103.424ZM33.2679 100.95L36.0994 103.775L36.5467 103.327L33.7152 100.501L30.8837 97.6761L30.4364 98.1244L33.2679 100.95ZM33.7152 100.501L36.7003 97.839C35.7064 96.7246 35.7715 95.02 36.7943 94.0107L33.9847 91.1636L31.1751 88.3164C27.0649 92.3725 26.9504 98.9263 30.73 103.164L33.7152 100.501ZM33.9847 91.1636L36.7943 94.0107C37.8552 92.9638 39.5698 92.9233 40.6777 93.8985L43.3206 90.896L45.9635 87.8935C41.724 84.1617 35.2459 84.2993 31.1751 88.3164L33.9847 91.1636ZM43.3206 90.896L46.1466 93.7269L46.6973 93.1771L43.8714 90.3462L41.0455 87.5152L40.4947 88.065L43.3206 90.896ZM43.8714 90.3462L46.6998 93.1747C45.8211 94.0533 44.3965 94.0535 43.5176 93.1746L46.346 90.3462L49.1745 87.5177C46.929 85.2723 43.2884 85.2725 41.0431 87.5177L43.8714 90.3462ZM46.346 90.3462L43.5175 93.1745C42.6388 92.2957 42.6388 90.8712 43.5175 89.9925L46.346 92.8208L49.1746 95.6491C51.4197 93.4038 51.4198 89.7632 49.1745 87.5178L46.346 90.3462ZM46.346 92.8208L43.5211 89.9889L43.1236 90.3854L45.9486 93.2173L48.7735 96.0492L49.171 95.6527L46.346 92.8208ZM45.9486 93.2173L47.7374 96.795L47.7413 96.793L45.9525 93.2153L44.1636 89.6376L44.1597 89.6396L45.9486 93.2173ZM45.9525 93.2153L43.5414 96.407C49.6069 100.989 57.3727 102.647 64.8933 100.865L63.971 96.9731L63.0487 93.0809C57.8471 94.3135 52.5258 93.168 48.3636 90.0237L45.9525 93.2153ZM63.971 96.9731L64.8705 100.871C70.1438 99.6538 75.4834 99.7837 80.4617 101.175L81.5384 97.3227L82.6151 93.4704C76.3252 91.7124 69.6263 91.5629 63.0716 93.0756L63.971 96.9731ZM81.5384 97.3227H77.5384V97.3511H81.5384H85.5384V97.3227H81.5384ZM81.5384 97.3511L80.4761 101.207C85.361 102.553 89.8474 105.089 93.5504 108.571L96.2904 105.657L99.0303 102.743C94.3921 98.3816 88.7581 95.1909 82.6008 93.4947L81.5384 97.3511ZM96.2904 105.657L99.1188 108.485L106.198 101.406L103.369 98.5776L100.541 95.7492L93.4619 102.828L96.2904 105.657ZM103.369 98.5776L106.198 95.7492L99.2741 88.8254L96.4456 91.6538L93.6172 94.4822L100.541 101.406L103.369 98.5776ZM96.4456 91.6538L99.2743 88.8256C100.62 90.1714 99.9424 92.3662 98.2046 92.8263L97.181 88.9595L96.1574 85.0926C92.04 86.1826 90.522 91.3864 93.6169 94.4819L96.4456 91.6538ZM97.181 88.9595L98.2179 92.8227L123.904 85.9282L122.868 82.0649L121.831 78.2017L96.1441 85.0962L97.181 88.9595ZM37.5677 103.929L35.138 107.107C36.0458 107.801 36.9804 108.454 37.9402 109.064L40.0863 105.689L42.2324 102.313C41.4705 101.829 40.725 101.308 39.9974 100.752L37.5677 103.929ZM40.0863 105.689L36.0869 105.76L36.7666 143.832L40.766 143.76L44.7653 143.689L44.0856 105.618L40.0863 105.689ZM40.766 143.76L42.5111 147.359C42.6609 147.287 42.838 147.234 43.0319 147.212L42.5902 143.237L42.1484 139.261C41.0699 139.381 40.0089 139.682 39.0208 140.161L40.766 143.76ZM42.5902 143.237L43.1196 147.202L61.7232 144.717L61.1937 140.752L60.6642 136.788L42.0607 139.272L42.5902 143.237ZM61.1937 140.752L64.0221 143.581L89.4849 118.119L86.6566 115.291L83.8282 112.462L58.3653 137.924L61.1937 140.752ZM86.6566 115.291L89.3367 112.321C86.358 109.633 82.7806 107.673 78.9058 106.593L77.8314 110.446L76.757 114.299C79.4515 115.05 81.9265 116.41 83.9764 118.26L86.6566 115.291ZM77.8314 110.446H81.8314V110.443H77.8314H73.8314V110.446H77.8314ZM77.8314 110.443L74.5032 108.224L74.5012 108.227L77.8294 110.446L81.1576 112.665L81.1596 112.662L77.8314 110.443ZM77.8294 110.446L78.8918 106.589C74.8264 105.469 70.4778 105.348 66.187 106.338L67.0863 110.236L67.9855 114.133C70.9734 113.444 73.9737 113.533 76.7671 114.302L77.8294 110.446ZM67.0863 110.236L66.1776 106.34C56.9046 108.503 47.3994 106.412 39.9975 100.752L37.5677 103.929L35.1379 107.107C44.4377 114.218 56.392 116.838 67.9949 114.131L67.0863 110.236ZM37.1595 103.611L34.684 106.753C34.7504 106.805 34.8963 106.921 35.0197 107.017L37.4613 103.848L39.9029 100.68C39.8236 100.619 39.7698 100.575 39.635 100.469L37.1595 103.611ZM37.4613 103.848L39.903 100.68C39.8238 100.619 39.7693 100.575 39.6352 100.469L37.1595 103.611L34.6839 106.753C34.7509 106.805 34.8962 106.921 35.0195 107.016L37.4613 103.848ZM36.7591 103.291L34.2389 106.398C34.3469 106.485 34.4551 106.572 34.5635 106.658L37.0511 103.526L39.5387 100.393C39.4518 100.324 39.3653 100.255 39.2794 100.185L36.7591 103.291ZM37.0511 103.526L39.5388 100.394C39.4516 100.324 39.3652 100.255 39.2795 100.185L36.7591 103.291L34.2387 106.398C34.347 106.485 34.4552 106.572 34.5634 106.658L37.0511 103.526Z" fill="white" mask="url(#path-1-outside-1_1062_24481)"/>
<mask id="path-3-outside-2_1062_24481" maskUnits="userSpaceOnUse" x="135.07" y="61.7446" width="42" height="29" fill="black">
<rect fill="white" x="135.07" y="61.7446" width="42" height="29"/>
<path d="M154.603 71.9883C156.007 68.644 166.619 62.7539 168.925 65.416C171.23 68.0784 166.456 74.7173 162.351 77.7851C167.542 78.923 171.344 77.3409 173.219 78.291C175.092 79.2416 172 85.7486 169.822 86.2842C168.08 86.7125 164.747 84.501 163.299 83.3418C161.166 85.9038 155.373 89.9617 149.258 85.6963C145.752 83.2506 143.737 80.5748 142.973 78.0244C141.631 77.4605 138.772 76.1465 139.096 75.2969C139.419 74.4483 141.878 73.6286 143.005 73.293C143.408 72.1132 144.115 71.0326 145.091 70.1045C148.316 67.0381 152.776 70.0826 154.603 71.9883Z"/>
</mask>
<path d="M154.603 71.9883C156.007 68.644 166.619 62.7539 168.925 65.416C171.23 68.0784 166.456 74.7173 162.351 77.7851C167.542 78.923 171.344 77.3409 173.219 78.291C175.092 79.2416 172 85.7486 169.822 86.2842C168.08 86.7125 164.747 84.501 163.299 83.3418C161.166 85.9038 155.373 89.9617 149.258 85.6963C145.752 83.2506 143.737 80.5748 142.973 78.0244C141.631 77.4605 138.772 76.1465 139.096 75.2969C139.419 74.4483 141.878 73.6286 143.005 73.293C143.408 72.1132 144.115 71.0326 145.091 70.1045C148.316 67.0381 152.776 70.0826 154.603 71.9883Z" fill="#040000"/>
<path d="M154.603 71.9883L152.438 74.0644L155.601 77.3635L157.37 73.1494L154.603 71.9883ZM168.925 65.416L171.193 63.4521L171.192 63.4519L168.925 65.416ZM162.351 77.7851L160.555 75.382L155.298 79.3105L161.708 80.7156L162.351 77.7851ZM173.219 78.291L174.576 75.6156L174.575 75.6152L173.219 78.291ZM169.822 86.2842L170.538 89.1974L170.539 89.1974L169.822 86.2842ZM163.299 83.3418L165.173 80.9996L162.876 79.1607L160.993 81.4225L163.299 83.3418ZM149.258 85.6963L147.541 88.1568L147.541 88.1568L149.258 85.6963ZM142.973 78.0244L145.846 77.1627L145.44 75.807L144.135 75.2587L142.973 78.0244ZM139.096 75.2969L136.293 74.2278L136.292 74.2294L139.096 75.2969ZM143.005 73.293L143.861 76.168L145.344 75.7263L145.844 74.2625L143.005 73.293ZM145.091 70.1045L143.024 67.9302L143.024 67.9304L145.091 70.1045ZM154.603 71.9883L157.37 73.1494C157.364 73.1637 157.443 72.9923 157.756 72.6452C158.048 72.3209 158.458 71.9379 158.981 71.5203C160.029 70.6839 161.377 69.8278 162.767 69.1332C164.18 68.4269 165.474 67.9685 166.419 67.8063C167.638 67.5972 167.211 68.0196 166.657 67.3801L168.925 65.416L171.192 63.4519C169.486 61.4814 166.868 61.6417 165.404 61.8927C163.667 62.1908 161.788 62.9148 160.085 63.7663C158.358 64.6294 156.646 65.7065 155.237 66.8319C153.942 67.866 152.497 69.2552 151.837 70.8271L154.603 71.9883ZM168.925 65.416L166.657 67.3799C166.417 67.1024 166.594 66.9566 166.495 67.5104C166.395 68.0637 166.077 68.8875 165.466 69.9106C164.25 71.9476 162.296 74.0811 160.555 75.382L162.351 77.7851L164.146 80.1883C166.511 78.4214 168.997 75.7015 170.618 72.9864C171.425 71.6335 172.125 70.1067 172.4 68.5705C172.676 67.0348 172.586 65.0608 171.193 63.4521L168.925 65.416ZM162.351 77.7851L161.708 80.7156C164.744 81.3809 167.348 81.2398 169.248 81.1005C170.256 81.0265 170.897 80.9687 171.447 80.9711C172.003 80.9736 172.024 81.0491 171.862 80.9669L173.219 78.291L174.575 75.6152C173.476 75.0579 172.32 74.9749 171.473 74.9712C170.62 74.9675 169.635 75.056 168.809 75.1165C167.041 75.2462 165.149 75.3273 162.993 74.8547L162.351 77.7851ZM173.219 78.291L171.861 80.9664C171.249 80.6557 170.959 80.1474 170.856 79.839C170.772 79.5888 170.806 79.4799 170.794 79.6253C170.771 79.912 170.63 80.4832 170.301 81.2178C169.985 81.9251 169.582 82.5876 169.203 83.0553C169.015 83.288 168.874 83.4213 168.798 83.4817C168.703 83.558 168.806 83.4446 169.106 83.371L169.822 86.2842L170.539 89.1974C172.09 88.8158 173.221 87.6287 173.867 86.8307C174.622 85.898 175.283 84.7739 175.778 83.6686C176.26 82.5907 176.677 81.3235 176.775 80.106C176.851 79.1584 176.817 76.7525 174.576 75.6156L173.219 78.291ZM169.822 86.2842L169.106 83.3709C169.406 83.2972 169.462 83.3879 169.093 83.2829C168.779 83.1933 168.352 83.0173 167.84 82.7498C166.818 82.2152 165.785 81.4888 165.173 80.9996L163.299 83.3418L161.424 85.684C162.261 86.354 163.619 87.313 165.06 88.0668C165.781 88.4435 166.604 88.8126 167.45 89.0534C168.241 89.2788 169.367 89.4853 170.538 89.1974L169.822 86.2842ZM163.299 83.3418L160.993 81.4225C160.211 82.3618 158.682 83.6322 156.849 84.2248C155.158 84.7714 153.176 84.7718 150.974 83.2358L149.258 85.6963L147.541 88.1568C151.454 90.8861 155.426 90.9904 158.694 89.9339C161.82 88.9234 164.254 86.8839 165.605 85.261L163.299 83.3418ZM149.258 85.6963L150.974 83.2358C147.839 81.0489 146.361 78.8785 145.846 77.1627L142.973 78.0244L140.099 78.8861C141.114 82.271 143.664 85.4523 147.541 88.1568L149.258 85.6963ZM142.973 78.0244L144.135 75.2587C143.495 74.9896 142.605 74.5867 141.953 74.1953C141.602 73.9848 141.5 73.8832 141.532 73.9154C141.547 73.931 141.73 74.1155 141.879 74.4707C142.05 74.8771 142.198 75.5801 141.899 76.3643L139.096 75.2969L136.292 74.2294C135.519 76.2588 136.908 77.7659 137.221 78.0889C137.739 78.6242 138.375 79.0456 138.866 79.3402C139.898 79.9593 141.109 80.4953 141.81 80.7901L142.973 78.0244ZM139.096 75.2969L141.899 76.366C141.749 76.758 141.544 76.9862 141.471 77.0618C141.389 77.1469 141.345 77.1723 141.381 77.1469C141.461 77.0925 141.648 76.9858 141.965 76.8451C142.587 76.5692 143.341 76.3231 143.861 76.168L143.005 73.293L142.148 70.4179C141.542 70.5985 140.503 70.93 139.533 71.3601C139.054 71.5723 138.496 71.8506 137.988 72.199C137.589 72.4723 136.716 73.1188 136.293 74.2278L139.096 75.2969ZM143.005 73.293L145.844 74.2625C146.078 73.5769 146.504 72.9007 147.158 72.2786L145.091 70.1045L143.024 67.9304C141.726 69.1645 140.737 70.6496 140.166 72.3234L143.005 73.293ZM145.091 70.1045L147.158 72.2788C147.692 71.7706 148.302 71.6331 149.374 72.0111C150.549 72.4257 151.74 73.3363 152.438 74.0644L154.603 71.9883L156.769 69.9121C155.64 68.7346 153.687 67.1702 151.369 66.3527C148.948 65.4985 145.715 65.372 143.024 67.9302L145.091 70.1045Z" fill="white" mask="url(#path-3-outside-2_1062_24481)"/>
<mask id="path-5-outside-3_1062_24481" maskUnits="userSpaceOnUse" x="63.002" y="22.427" width="66" height="48" fill="black">
<rect fill="white" x="63.002" y="22.427" width="66" height="48"/>
<path d="M91.8261 40.232C93.5421 34.5936 109.721 23.3164 113.89 27.2379C118.057 31.1604 111.438 42.6833 105.309 48.3218C113.89 49.3024 119.774 46.1156 122.961 47.3414C126.147 48.5677 122.225 59.599 118.793 60.8248C116.047 61.8053 110.294 58.7814 107.761 57.147C104.737 61.6416 96.0428 69.1596 85.4521 63.2759C78.9431 59.6598 75.1617 55.3322 73.6972 51.0513C71.5181 50.3631 67.6966 48.9717 68.0214 47.7593C68.3561 46.5108 71.6105 45.003 73.2821 44.3023C73.7342 42.3127 74.7009 40.4342 76.1357 38.7603C80.8427 33.269 88.5574 37.4536 91.8261 40.232Z"/>
</mask>
<path d="M91.8261 40.232C93.5421 34.5936 109.721 23.3164 113.89 27.2379C118.057 31.1604 111.438 42.6833 105.309 48.3218C113.89 49.3024 119.774 46.1156 122.961 47.3414C126.147 48.5677 122.225 59.599 118.793 60.8248C116.047 61.8053 110.294 58.7814 107.761 57.147C104.737 61.6416 96.0428 69.1596 85.4521 63.2759C78.9431 59.6598 75.1617 55.3322 73.6972 51.0513C71.5181 50.3631 67.6966 48.9717 68.0214 47.7593C68.3561 46.5108 71.6105 45.003 73.2821 44.3023C73.7342 42.3127 74.7009 40.4342 76.1357 38.7603C80.8427 33.269 88.5574 37.4536 91.8261 40.232Z" fill="#040000"/>
<path d="M91.8261 40.232L89.2355 43.2798C90.2622 44.1525 91.6594 44.4496 92.9524 44.0702C94.2454 43.6907 95.2604 42.6858 95.6528 41.3967L91.8261 40.232ZM113.89 27.2379L116.631 24.3251L116.63 24.3245L113.89 27.2379ZM105.309 48.3218L102.601 45.3781C101.449 46.438 101.021 48.0726 101.506 49.5611C101.991 51.0495 103.3 52.1182 104.855 52.296L105.309 48.3218ZM122.961 47.3414L124.398 43.6083L124.397 43.608L122.961 47.3414ZM118.793 60.8248L120.138 64.5918L120.138 64.5917L118.793 60.8248ZM107.761 57.147L109.929 53.7859C108.098 52.6045 105.658 53.1062 104.442 54.9143L107.761 57.147ZM85.4521 63.2759L83.5095 66.7726L83.5095 66.7726L85.4521 63.2759ZM73.6972 51.0513L77.4818 49.7565C77.0707 48.5547 76.1132 47.6197 74.902 47.2371L73.6972 51.0513ZM68.0214 47.7593L64.1579 46.7235L64.1577 46.7241L68.0214 47.7593ZM73.2821 44.3023L74.8284 47.9914C76.0197 47.492 76.8966 46.4481 77.1827 45.1885L73.2821 44.3023ZM76.1357 38.7603L73.0987 36.1571L73.0986 36.1572L76.1357 38.7603ZM91.8261 40.232L95.6528 41.3967C95.772 41.005 96.4706 39.836 98.2127 38.1267C99.8156 36.554 101.904 34.9095 104.082 33.5272C106.289 32.1263 108.386 31.1239 109.999 30.6739C111.97 30.1244 111.783 30.748 111.149 30.1512L113.89 27.2379L116.63 24.3245C113.912 21.767 110.14 22.3296 107.851 22.9679C105.205 23.7057 102.368 25.1397 99.7948 26.7727C97.1925 28.4243 94.6535 30.4112 92.6099 32.4163C90.7055 34.2848 88.7382 36.6398 87.9994 39.0674L91.8261 40.232ZM113.89 27.2379L111.148 30.1507C110.979 29.9913 111.26 30.0353 111.18 31.0922C111.1 32.1483 110.677 33.6406 109.835 35.4464C108.158 39.045 105.284 42.9103 102.601 45.3781L105.309 48.3218L108.018 51.2656C111.464 48.0948 114.964 43.3793 117.086 38.8263C118.144 36.5562 118.977 34.0798 119.158 31.6961C119.338 29.313 118.884 26.4457 116.631 24.3251L113.89 27.2379ZM105.309 48.3218L104.855 52.296C109.742 52.8544 113.826 52.2147 116.855 51.6784C118.446 51.3967 119.522 51.1877 120.455 51.0963C121.396 51.0041 121.608 51.1068 121.525 51.0748L122.961 47.3414L124.397 43.608C122.72 42.9631 121.002 43.0044 119.675 43.1344C118.34 43.2652 116.811 43.5617 115.46 43.8009C112.605 44.3064 109.458 44.7699 105.764 44.3477L105.309 48.3218ZM122.961 47.3414L121.524 51.0744C119.847 50.4292 120.116 48.9162 120.137 49.8804C120.151 50.4838 119.987 51.5357 119.56 52.8297C119.146 54.0858 118.574 55.2943 117.991 56.186C117.282 57.2712 117.003 57.2166 117.448 57.0578L118.793 60.8248L120.138 64.5917C122.299 63.8201 123.797 61.9269 124.689 60.5607C125.708 59.001 126.561 57.1452 127.157 55.3369C127.742 53.5666 128.176 51.5541 128.136 49.7059C128.103 48.2185 127.668 44.8668 124.398 43.6083L122.961 47.3414ZM118.793 60.8248L117.448 57.0578C117.712 56.9633 117.642 57.0751 116.965 56.9551C116.363 56.8482 115.583 56.6122 114.68 56.2516C112.875 55.5308 111.034 54.4985 109.929 53.7859L107.761 57.147L105.592 60.5082C107.021 61.4299 109.323 62.7267 111.714 63.6813C112.909 64.1585 114.241 64.5968 115.569 64.8322C116.822 65.0544 118.501 65.1765 120.138 64.5918L118.793 60.8248ZM107.761 57.147L104.442 54.9143C103.261 56.6695 100.879 59.1013 97.8325 60.4423C94.9686 61.7029 91.4745 62.0459 87.3946 59.7793L85.4521 63.2759L83.5095 66.7726C90.0203 70.3897 96.1687 69.9154 101.056 67.7643C105.76 65.6936 109.237 62.119 111.08 59.3797L107.761 57.147ZM85.4521 63.2759L87.3946 59.7793C81.4448 56.4739 78.5283 52.8153 77.4818 49.7565L73.6972 51.0513L69.9125 52.3461C71.7952 57.8491 76.4413 62.8458 83.5095 66.7726L85.4521 63.2759ZM73.6972 51.0513L74.902 47.2371C73.8587 46.9076 72.5948 46.4608 71.6894 46.0143C71.2031 45.7745 71.0766 45.6577 71.1392 45.714C71.1739 45.7451 71.4328 45.9764 71.6608 46.4326C71.921 46.9535 72.1496 47.8076 71.8851 48.7946L68.0214 47.7593L64.1577 46.7241C63.4452 49.3831 65.2509 51.1778 65.7903 51.6628C66.5462 52.3425 67.4504 52.8438 68.1512 53.1894C69.6202 53.9138 71.3566 54.5068 72.4924 54.8656L73.6972 51.0513ZM68.0214 47.7593L71.8849 48.7952C71.7488 49.3031 71.5274 49.6131 71.4492 49.7151C71.3619 49.8289 71.3161 49.8598 71.3694 49.8136C71.4834 49.7148 71.7378 49.5301 72.1653 49.2809C73.0056 48.7909 74.0501 48.3176 74.8284 47.9914L73.2821 44.3023L71.7359 40.6133C70.8426 40.9877 69.4241 41.6186 68.1357 42.3699C67.4987 42.7413 66.7722 43.2114 66.1297 43.7684C65.6089 44.2198 64.5641 45.2085 64.1579 46.7235L68.0214 47.7593ZM73.2821 44.3023L77.1827 45.1885C77.4795 43.8824 78.1267 42.5838 79.1727 41.3635L76.1357 38.7603L73.0986 36.1572C71.2751 38.2846 69.9889 40.743 69.3815 43.4161L73.2821 44.3023ZM76.1357 38.7603L79.1727 41.3635C80.2351 40.124 81.5827 39.8003 83.5806 40.2831C85.7214 40.8004 87.9174 42.1594 89.2355 43.2798L91.8261 40.232L94.4167 37.1842C92.4661 35.5262 89.1704 33.4036 85.4599 32.5069C81.6064 31.5757 76.7432 31.9053 73.0987 36.1571L76.1357 38.7603Z" fill="white" mask="url(#path-5-outside-3_1062_24481)"/>
<path d="M28.8372 155.275L39.2658 144.846C40.1406 143.936 41.3305 143.377 42.5903 143.237L61.2077 140.752L51.4788 154.267L37.761 164.199C35.2763 166.648 31.2869 166.648 28.8372 164.199C26.3876 161.714 26.3876 157.725 28.8372 155.275Z" fill="#4B9AE8"/>
<path d="M51.4797 178.126L61.9082 167.698C62.8181 166.788 63.378 165.633 63.518 164.373L66.0026 145.756L52.5077 155.678L42.556 169.203C40.1063 171.687 40.1063 175.677 42.556 178.126C45.0406 180.576 49.0301 180.576 51.4797 178.126Z" fill="#4B9AE8"/>
<path d="M103.372 98.5752L108.321 98.9514V103.524L42.933 168.913C41.5664 170.279 39.3506 170.279 37.984 168.913C36.6173 167.546 36.6173 165.33 37.984 163.963L103.372 98.5752Z" fill="#EAC00F"/>
<path d="M81.5393 97.3577V97.3227C75.9051 95.7479 69.8859 95.6079 63.9717 96.9727C57.6103 98.4802 51.0666 97.0784 45.9526 93.2148L40.0565 97.3577L36.2754 102.892C44.7938 110.055 56.1014 112.798 67.0863 110.236C70.7258 109.396 74.4003 109.501 77.8298 110.446L83.2005 104.859L81.4343 97.3577H81.5393Z" fill="#4B9AE8"/>
<path d="M33.7178 100.504C31.3285 97.8286 31.4176 93.6971 33.985 91.1635C36.5517 88.6306 40.6503 88.5421 43.3241 90.8982L39.1652 96.9727L33.7178 100.504Z" fill="#276288"/>
<path d="M108.665 122.659L100.271 121.09L95.9268 127.348C97.3616 131.268 97.6766 135.572 96.6617 139.841C94.126 150.713 96.786 161.899 103.784 170.386L109.925 166.621L113.496 160.706C109.805 155.633 108.473 149.207 109.925 142.956C111.535 136.027 111.045 129.028 108.665 122.659Z" fill="#4B9AE8"/>
<path d="M115.776 163.37L109.92 167.755L106.137 172.978C108.798 175.606 113.08 175.596 115.73 172.947C118.373 170.303 118.389 166.033 115.776 163.37Z" fill="#276288"/>
<path d="M108.663 122.659L95.8895 127.348C94.8046 124.339 93.0899 121.679 90.8502 119.439L87.4557 116.045C84.7961 113.385 81.4715 111.461 77.832 110.446L81.4365 97.3228C87.3507 98.9325 92.7399 102.082 97.0793 106.421L100.474 109.816C104.113 113.49 106.878 117.795 108.663 122.659Z" fill="#276288"/>
<path d="M122.868 82.065L97.1814 88.959C95.9915 89.274 95.5716 90.7788 96.4465 91.6537L115.274 110.481C116.149 111.356 117.653 110.971 117.968 109.746L124.862 84.0597C125.177 82.8349 124.058 81.7151 122.868 82.065Z" fill="#D7E8FC"/>
<path d="M35.7429 103.424C35.0596 104.108 33.9517 104.108 33.2684 103.424C32.585 102.741 32.585 101.633 33.2684 100.95L43.8719 90.3462C44.5552 89.6629 45.6631 89.6629 46.3464 90.3462C47.0297 91.0295 47.0297 92.1374 46.3464 92.8208L35.7429 103.424Z" fill="#D3D3D3"/>
<path d="M36.541 103.114C37.6771 104.051 38.8615 104.91 40.0871 105.689L41.073 160.87L37.9793 163.963C37.8529 164.09 37.7383 164.223 37.6353 164.363L36.541 103.114Z" fill="#D3D3D3"/>
<path d="M101.177 166.798L46.0835 165.758L42.9293 168.913C42.8284 169.014 42.7228 169.107 42.6133 169.193L103.746 170.347C102.811 169.21 101.954 168.024 101.177 166.798Z" fill="#D3D3D3"/>
<path d="M113.864 160.334C114.548 159.652 115.656 159.654 116.339 160.339C117.021 161.023 117.019 162.131 116.335 162.813L105.731 173.382C105.047 174.064 103.939 174.062 103.257 173.377C102.574 172.693 102.576 171.585 103.261 170.903L113.864 160.334Z" fill="#D3D3D3"/>
<path d="M139.096 75.2975C139.517 74.1917 143.566 73.1339 143.566 73.1339L143.644 78.2981C143.644 78.2981 138.675 76.4034 139.096 75.2975Z" fill="#EAC00F"/>
<path d="M145.091 70.1051C148.317 67.0382 152.777 70.0829 154.604 71.9886C156.008 68.6442 166.62 62.7542 168.925 65.4166C171.231 68.079 166.457 74.7181 162.352 77.786C167.543 78.9239 171.345 77.3414 173.219 78.2915C175.093 79.2416 172.001 85.7495 169.823 86.2848C168.08 86.7131 164.748 84.5017 163.299 83.3425C161.167 85.9045 155.373 89.9623 149.258 85.6968C141.615 80.365 141.059 73.9388 145.091 70.1051Z" fill="#DBDBDB"/>
<path d="M148.222 76.3474C149.586 76.3474 150.692 75.2414 150.692 73.8772C150.692 72.5129 149.586 71.407 148.222 71.407C146.858 71.407 145.752 72.5129 145.752 73.8772C145.752 75.2414 146.858 76.3474 148.222 76.3474Z" fill="white"/>
<path d="M148.223 75.1939C148.95 75.1939 149.54 74.6044 149.54 73.8772C149.54 73.15 148.95 72.5605 148.223 72.5605C147.496 72.5605 146.906 73.15 146.906 73.8772C146.906 74.6044 147.496 75.1939 148.223 75.1939Z" fill="#040000"/>
<path d="M68.0201 47.7596C68.4724 46.0716 74.2612 43.9089 74.2612 43.9089L75.1523 51.4841C75.1523 51.4841 67.5678 49.4475 68.0201 47.7596Z" fill="#EAC00F"/>
<path d="M76.1343 38.7606C80.8413 33.2691 88.5555 37.4531 91.8243 40.2315C93.5404 34.5929 109.721 23.3157 113.888 27.2382C118.056 31.1607 111.437 42.6831 105.308 48.3216C113.888 49.3023 119.772 46.1152 122.959 47.341C126.146 48.5668 122.224 59.5988 118.791 60.8246C116.046 61.8052 110.293 58.7816 107.759 57.1473C104.736 61.6418 96.0409 69.1599 85.4502 63.2762C72.2118 55.9215 70.2505 45.6249 76.1343 38.7606Z" fill="#DBDBDB"/>
<path d="M81.796 47.3813C83.9151 47.3813 85.633 45.6634 85.633 43.5443C85.633 41.4252 83.9151 39.7073 81.796 39.7073C79.6769 39.7073 77.959 41.4252 77.959 43.5443C77.959 45.6634 79.6769 47.3813 81.796 47.3813Z" fill="white"/>
<path d="M81.7972 45.5895C82.9267 45.5895 83.8424 44.6738 83.8424 43.5442C83.8424 42.4147 82.9267 41.499 81.7972 41.499C80.6676 41.499 79.752 42.4147 79.752 43.5442C79.752 44.6738 80.6676 45.5895 81.7972 45.5895Z" fill="#040000"/>
</svg>
