<svg width="200" height="200" viewBox="0 0 200 200" fill="none" xmlns="http://www.w3.org/2000/svg">
<mask id="path-1-outside-1_1347_9623" maskUnits="userSpaceOnUse" x="16.1621" y="16" width="168" height="167" fill="black">
<rect fill="white" x="16.1621" y="16" width="168" height="167"/>
<path d="M104.89 23.4434C109.758 20.1963 113.161 35.8525 117.299 35.8525C121.432 35.8523 125.57 23.4434 137.979 23.4434C142.113 23.4436 142.113 35.8525 146.251 35.8525C150.385 35.8524 161.608 32.3417 161.608 36.4795C161.608 40.6174 156.948 48.2704 162.794 48.2617C178.497 48.2359 169.435 54.8252 170.339 62.582C170.654 65.2843 177.369 64.2684 177.369 67.1045C177.369 68.4362 174.035 74.1743 174.035 78.498C174.035 82.4152 177.698 83.6389 177.689 86.7432C177.689 89.852 173.154 91.7548 172.613 95.8105C172.073 99.8662 176.651 102.495 176.055 106.157C175.35 110.472 169.603 111 168.492 115.601C167.386 120.201 172.003 123.063 172.003 125.787C172.003 129.925 162.007 132.597 162.007 136.73C162.007 140.868 167.126 147.536 162.007 150.377C157.182 153.058 155.443 151.985 152.953 156.321C150.463 160.658 155.007 164.766 153.359 169.159C151.474 174.17 144.577 169.972 143.09 176.458H128.566L128.567 176.457H91.3428C91.4326 176.375 130.519 140.676 99.2686 124.019C89.8384 119.85 87.68 117.221 84.208 121.675C67.6929 142.864 56.5591 128.023 50.3467 118.65C48.7777 116.285 47.5221 114.265 46.5732 113.265C45.3847 112.013 22.1622 105.173 22.1621 92.083C22.1621 83.5954 34.571 74.9396 42.8467 83.3623C49.9684 83.1807 68.4938 68.3506 88.4404 56.0273C89.1068 52.459 93.5285 31.0161 104.89 23.4434Z"/>
</mask>
<path d="M104.89 23.4434C109.758 20.1963 113.161 35.8525 117.299 35.8525C121.432 35.8523 125.57 23.4434 137.979 23.4434C142.113 23.4436 142.113 35.8525 146.251 35.8525C150.385 35.8524 161.608 32.3417 161.608 36.4795C161.608 40.6174 156.948 48.2704 162.794 48.2617C178.497 48.2359 169.435 54.8252 170.339 62.582C170.654 65.2843 177.369 64.2684 177.369 67.1045C177.369 68.4362 174.035 74.1743 174.035 78.498C174.035 82.4152 177.698 83.6389 177.689 86.7432C177.689 89.852 173.154 91.7548 172.613 95.8105C172.073 99.8662 176.651 102.495 176.055 106.157C175.35 110.472 169.603 111 168.492 115.601C167.386 120.201 172.003 123.063 172.003 125.787C172.003 129.925 162.007 132.597 162.007 136.73C162.007 140.868 167.126 147.536 162.007 150.377C157.182 153.058 155.443 151.985 152.953 156.321C150.463 160.658 155.007 164.766 153.359 169.159C151.474 174.17 144.577 169.972 143.09 176.458H128.566L128.567 176.457H91.3428C91.4326 176.375 130.519 140.676 99.2686 124.019C89.8384 119.85 87.68 117.221 84.208 121.675C67.6929 142.864 56.5591 128.023 50.3467 118.65C48.7777 116.285 47.5221 114.265 46.5732 113.265C45.3847 112.013 22.1622 105.173 22.1621 92.083C22.1621 83.5954 34.571 74.9396 42.8467 83.3623C49.9684 83.1807 68.4938 68.3506 88.4404 56.0273C89.1068 52.459 93.5285 31.0161 104.89 23.4434Z" fill="#276288"/>
<path d="M104.89 23.4434L108.217 28.4359L108.219 28.435L104.89 23.4434ZM117.299 35.8525V41.8525H117.299L117.299 35.8525ZM137.979 23.4434L137.98 17.4434H137.979V23.4434ZM146.251 35.8525V41.8525H146.251L146.251 35.8525ZM161.608 36.4795L167.608 36.4796V36.4795H161.608ZM162.794 48.2617L162.803 54.2617L162.804 54.2617L162.794 48.2617ZM170.339 62.582L164.379 63.2763L164.379 63.2781L170.339 62.582ZM177.369 67.1045H183.369V67.1036L177.369 67.1045ZM174.035 78.498H168.035V78.4982L174.035 78.498ZM177.689 86.7432L171.689 86.7268C171.689 86.7322 171.689 86.7377 171.689 86.7432H177.689ZM172.613 95.8105L166.666 95.018L166.666 95.0182L172.613 95.8105ZM176.055 106.157L181.976 107.124L181.977 107.122L176.055 106.157ZM168.492 115.601L162.66 114.192L162.659 114.197L168.492 115.601ZM172.003 125.787H178.003V125.787L172.003 125.787ZM162.007 136.73L156.007 136.73V136.73H162.007ZM162.007 150.377L159.096 145.131L159.093 145.132L162.007 150.377ZM152.953 156.321L147.75 153.333L147.75 153.333L152.953 156.321ZM153.359 169.159L158.975 171.272L158.977 171.266L153.359 169.159ZM143.09 176.458V182.458C145.887 182.458 148.313 180.525 148.938 177.799L143.09 176.458ZM128.566 176.458L124.324 172.215C122.608 173.931 122.094 176.512 123.023 178.754C123.952 180.996 126.14 182.458 128.566 182.458V176.458ZM128.567 176.457L132.81 180.7C134.526 178.984 135.039 176.403 134.111 174.161C133.182 171.919 130.994 170.457 128.567 170.457V176.457ZM91.3428 176.457L87.2981 172.025C85.4687 173.695 84.8532 176.317 85.7486 178.626C86.6439 180.935 88.8661 182.457 91.3428 182.457V176.457ZM99.2686 124.019L102.091 118.724C101.961 118.655 101.829 118.59 101.694 118.531L99.2686 124.019ZM84.208 121.675L79.4761 117.986L79.4756 117.986L84.208 121.675ZM50.3467 118.65L55.3479 115.336L55.347 115.334L50.3467 118.65ZM46.5732 113.265L50.927 109.136L50.9238 109.133L46.5732 113.265ZM22.1621 92.083H16.1621V92.0831L22.1621 92.083ZM42.8467 83.3623L38.5669 87.5674C39.7322 88.7535 41.3375 89.4027 42.9997 89.3604L42.8467 83.3623ZM88.4404 56.0273L91.594 61.1318C93.0318 60.2435 94.0282 58.7901 94.3385 57.1288L88.4404 56.0273ZM104.89 23.4434L108.219 28.435C107.652 28.8127 106.62 29.165 105.435 28.9198C104.489 28.7241 104.069 28.2685 104.176 28.37C104.488 28.6654 105.097 29.5234 106.141 31.3754C106.967 32.8421 108.177 35.1476 109.359 36.8627C109.974 37.7544 110.816 38.8481 111.902 39.7669C112.976 40.6751 114.815 41.8525 117.299 41.8525V35.8525V29.8525C118.748 29.8525 119.576 30.5407 119.652 30.6054C119.741 30.6807 119.601 30.5766 119.239 30.0513C118.467 28.9323 117.746 27.5267 116.596 25.4852C115.663 23.8291 114.25 21.3818 112.425 19.6549C111.464 18.7452 109.947 17.5992 107.867 17.1688C105.548 16.6889 103.344 17.2622 101.561 18.4517L104.89 23.4434ZM117.299 35.8525L117.299 41.8525C119.354 41.8524 120.993 41.0777 122.088 40.3805C123.169 39.6919 124.081 38.8472 124.772 38.1557C125.476 37.452 126.2 36.6503 126.822 35.9669C127.484 35.2406 128.111 34.5574 128.778 33.8906C131.397 31.2722 134.088 29.4434 137.979 29.4434V23.4434V17.4434C129.462 17.4434 123.879 21.819 120.293 25.4052C119.409 26.2894 118.615 27.1574 117.952 27.8853C117.249 28.6561 116.745 29.2117 116.286 29.6714C115.814 30.1432 115.627 30.268 115.643 30.258C115.672 30.2395 116.277 29.8526 117.299 29.8525L117.299 35.8525ZM137.979 23.4434L137.979 29.4434C135.509 29.4432 134.745 27.496 135.188 28.2949C135.506 28.8679 135.848 29.8241 136.421 31.5452C136.882 32.927 137.575 35.0736 138.55 36.8281C139.4 38.3586 141.716 41.8525 146.251 41.8525V35.8525V29.8525C148.717 29.8525 149.481 31.7954 149.039 30.9991C148.721 30.427 148.379 29.4713 147.806 27.7509C147.345 26.3697 146.653 24.2236 145.679 22.4698C144.831 20.9421 142.516 17.4436 137.98 17.4434L137.979 23.4434ZM146.251 35.8525L146.251 41.8525C147.863 41.8525 149.85 41.5349 151.353 41.2914C153.091 41.0102 154.667 40.7377 156.127 40.5793C156.837 40.5023 157.415 40.4649 157.869 40.4626C158.352 40.4602 158.517 40.4994 158.466 40.4879C158.462 40.4871 157.75 40.3425 156.98 39.6092C156.023 38.6977 155.608 37.486 155.608 36.4795H161.608H167.608C167.608 34.4385 166.843 32.4314 165.256 30.9199C163.856 29.5866 162.235 29.0374 161.114 28.7839C158.951 28.2942 156.557 28.4622 154.833 28.6493C152.97 28.8514 150.965 29.198 149.435 29.4457C147.672 29.7312 146.706 29.8525 146.251 29.8525L146.251 35.8525ZM161.608 36.4795L155.608 36.4794C155.608 36.4724 155.605 36.635 155.527 37.0446C155.451 37.4397 155.335 37.9162 155.173 38.5251C154.898 39.561 154.378 41.3291 154.103 42.8696C153.864 44.2066 153.453 47.0066 154.761 49.6604C156.51 53.2047 159.973 54.2659 162.803 54.2617L162.794 48.2617L162.785 42.2617C162.664 42.2619 163.098 42.2353 163.753 42.5636C164.515 42.9457 165.151 43.5959 165.524 44.3522C165.842 44.9969 165.848 45.469 165.848 45.486C165.849 45.5154 165.845 45.373 165.915 44.9815C166.074 44.0926 166.354 43.1721 166.77 41.6096C167.098 40.3753 167.608 38.4047 167.608 36.4796L161.608 36.4795ZM162.794 48.2617L162.804 54.2617C166.643 54.2554 167.689 54.714 167.638 54.6867C167.41 54.5648 166.834 54.1592 166.441 53.3452C166.267 52.9848 166.188 52.661 166.154 52.4275C166.122 52.2049 166.132 52.0721 166.132 52.0691C166.132 52.0673 166.126 52.142 166.09 52.3212C166.053 52.4994 165.997 52.7298 165.911 53.0401C165.824 53.3542 165.725 53.6907 165.601 54.1066C165.483 54.5038 165.344 54.97 165.208 55.4543C164.68 57.3447 164.014 60.1379 164.379 63.2763L170.339 62.582L176.299 61.8877C176.212 61.1478 176.34 60.2085 176.766 58.6826C176.869 58.3128 176.979 57.9447 177.102 57.53C177.22 57.134 177.355 56.6811 177.479 56.2307C177.716 55.3719 178.009 54.197 178.101 52.9376C178.195 51.6425 178.105 49.9037 177.247 48.1271C176.351 46.2707 174.904 44.9657 173.304 44.1085C170.507 42.6105 166.796 42.2551 162.784 42.2617L162.794 48.2617ZM170.339 62.582L164.379 63.2781C164.807 66.9402 167.505 68.7218 168.938 69.4213C170.29 70.0818 171.855 70.4451 172.489 70.6069C173.533 70.8732 173.596 70.9328 173.443 70.8497C173.291 70.7668 172.761 70.4576 172.257 69.7764C171.681 68.9972 171.369 68.0417 171.369 67.1053L177.369 67.1045L183.369 67.1036C183.369 65.4582 182.848 63.9141 181.903 62.6371C181.03 61.4581 179.973 60.7418 179.186 60.3131C177.765 59.5384 176.129 59.1512 175.455 58.9793C174.371 58.7028 174.199 58.6361 174.203 58.6384C174.288 58.6797 176.028 59.575 176.298 61.886L170.339 62.582ZM177.369 67.1045H171.369C171.369 66.2959 171.568 65.7865 171.497 66.0154C171.473 66.0922 171.408 66.2777 171.266 66.6378C171.149 66.9346 170.422 68.7031 170.111 69.503C169.277 71.6441 168.035 75.0981 168.035 78.498H174.035H180.035C180.035 77.5742 180.46 75.9973 181.294 73.8555C181.816 72.514 181.922 72.328 182.43 71.0392C182.601 70.6066 182.796 70.0915 182.955 69.5827C183.066 69.2261 183.369 68.246 183.369 67.1045H177.369ZM174.035 78.498L168.035 78.4982C168.035 82.6136 170.113 85.2938 171.118 86.5942C172.402 88.2554 171.687 87.6311 171.689 86.7268L177.689 86.7432L183.689 86.7596C183.7 82.751 181.159 79.9627 180.613 79.2567C180.172 78.6852 180.061 78.499 180.015 78.4029C180.004 78.3802 180.014 78.397 180.025 78.4403C180.036 78.486 180.035 78.5115 180.035 78.4979L174.035 78.498ZM177.689 86.7432H171.689C171.689 85.9786 171.989 85.5563 171.916 85.6713C171.78 85.8832 171.547 86.1623 170.841 86.9677C169.769 88.1911 167.208 90.9513 166.666 95.018L172.613 95.8105L178.561 96.6031C178.559 96.6141 178.536 96.395 179.867 94.8758C180.363 94.3099 181.297 93.2769 182.029 92.1309C182.823 90.8881 183.689 89.0621 183.689 86.7432H177.689ZM172.613 95.8105L166.666 95.0182C166.071 99.4794 168.419 102.94 169.251 104.286C170.569 106.418 170.004 105.981 170.133 105.192L176.055 106.157L181.977 107.122C182.702 102.671 180.146 99.0883 179.459 97.9769C178.286 96.0792 178.615 96.1973 178.561 96.6029L172.613 95.8105ZM176.055 106.157L170.133 105.19C170.23 104.599 170.841 104.462 168.828 105.97C167.409 107.033 163.794 109.495 162.66 114.192L168.492 115.601L174.324 117.009C174.326 117.004 174.325 117.008 174.322 117.017C174.318 117.026 174.315 117.031 174.316 117.029C174.317 117.028 174.347 116.975 174.45 116.864C174.721 116.57 175.112 116.257 176.023 115.574C177.338 114.589 181.175 112.03 181.976 107.124L176.055 106.157ZM168.492 115.601L162.659 114.197C161.52 118.932 163.509 122.594 164.74 124.57C165.608 125.963 165.682 125.961 166.096 126.682C166.378 127.173 166.003 126.728 166.003 125.787L172.003 125.787L178.003 125.787C178.003 123.484 177.05 121.66 176.501 120.704C176.194 120.17 175.866 119.667 175.612 119.282C175.33 118.853 175.128 118.551 174.925 118.225C174.526 117.585 174.388 117.257 174.337 117.082C174.312 116.993 174.323 117.017 174.326 117.004L168.492 115.601ZM172.003 125.787H166.003C166.003 124.311 166.878 123.767 166.292 124.327C165.787 124.81 164.993 125.371 163.628 126.301C162.495 127.073 160.79 128.213 159.421 129.523C158.134 130.755 156.007 133.184 156.007 136.73L162.007 136.73L168.007 136.731C168.007 138.21 167.13 138.756 167.716 138.194C168.222 137.711 169.016 137.15 170.382 136.22C171.516 135.447 173.221 134.307 174.59 132.996C175.879 131.762 178.003 129.332 178.003 125.787H172.003ZM162.007 136.73H156.007C156.007 138.798 156.614 140.792 157.012 142.036C157.521 143.628 157.848 144.474 158.109 145.506C158.357 146.49 158.244 146.624 158.307 146.337C158.355 146.121 158.47 145.817 158.693 145.523C158.91 145.236 159.103 145.127 159.096 145.131L162.007 150.377L164.918 155.623C167.645 154.11 169.402 151.752 170.026 148.919C170.569 146.454 170.137 144.129 169.745 142.574C169.365 141.067 168.733 139.292 168.442 138.382C168.263 137.822 168.146 137.409 168.073 137.085C167.999 136.751 168.007 136.658 168.007 136.73H162.007ZM162.007 150.377L159.093 145.132C158.187 145.635 157.433 145.961 156.722 146.239C156.212 146.438 154.981 146.878 154.136 147.26C153.034 147.757 151.829 148.446 150.639 149.56C149.492 150.635 148.57 151.905 147.75 153.333L152.953 156.321L158.156 159.309C158.581 158.569 158.811 158.348 158.841 158.32C158.854 158.308 158.854 158.308 158.859 158.305C158.871 158.297 158.927 158.263 159.073 158.197C159.577 157.969 159.84 157.904 161.091 157.415C162.141 157.005 163.414 156.459 164.921 155.622L162.007 150.377ZM152.953 156.321L147.75 153.333C145.117 157.919 146.484 162.359 147.081 164.402C147.879 167.134 147.721 167.106 147.741 167.052L153.359 169.159L158.977 171.266C160.645 166.819 159.039 162.541 158.599 161.037C158.288 159.972 158.204 159.531 158.191 159.257C158.187 159.167 158.196 159.167 158.184 159.221C158.171 159.282 158.151 159.319 158.156 159.309L152.953 156.321ZM153.359 169.159L147.744 167.047C147.901 166.628 148.373 166.177 148.747 166.012C148.801 165.988 148.734 166.025 148.408 166.096C148.016 166.18 147.721 166.222 147.009 166.351C145.928 166.547 143.733 166.942 141.703 168.311C139.376 169.88 137.902 172.236 137.242 175.117L143.09 176.458L148.938 177.799C149.021 177.437 148.967 177.886 148.411 178.261C148.151 178.436 148.078 178.352 149.142 178.16C149.774 178.046 151.821 177.772 153.59 176.991C155.834 176.001 157.875 174.196 158.975 171.272L153.359 169.159ZM143.09 176.458V170.458H128.566V176.458V182.458H143.09V176.458ZM128.566 176.458L132.809 180.701L132.81 180.7L128.567 176.457L124.325 172.214L124.324 172.215L128.566 176.458ZM128.567 176.457V170.457H91.3428V176.457V182.457H128.567V176.457ZM91.3428 176.457L95.3875 180.889C95.5005 180.786 105.96 171.261 112.352 159.277C115.539 153.303 118.136 145.95 117.178 138.466C116.16 130.522 111.308 123.637 102.091 118.724L99.2686 124.019L96.4462 129.313C102.854 132.729 104.835 136.553 105.275 139.99C105.774 143.887 104.454 148.587 101.764 153.63C96.4031 163.681 87.2749 172.046 87.2981 172.025L91.3428 176.457ZM99.2686 124.019L101.694 118.531C99.4541 117.541 97.6789 116.657 96.0309 115.863C94.5221 115.136 92.8103 114.323 91.1687 113.849C89.3847 113.334 87.0707 113.028 84.5905 113.959C82.2548 114.836 80.6372 116.496 79.4761 117.986L84.208 121.675L88.9399 125.364C89.5148 124.626 89.469 124.945 88.8092 125.193C88.0049 125.495 87.4709 125.272 87.8392 125.378C88.35 125.526 89.163 125.874 90.8196 126.672C92.337 127.404 94.368 128.412 96.8429 129.506L99.2686 124.019ZM84.208 121.675L79.4756 117.986C75.7032 122.826 72.6795 125.02 70.5173 125.92C68.5621 126.734 67.0518 126.612 65.628 126.047C63.9987 125.4 62.2322 124.051 60.3632 122.007C58.5193 119.991 56.8704 117.633 55.3479 115.336L50.3467 118.65L45.3455 121.965C46.9291 124.355 49.0017 127.366 51.5087 130.106C53.9906 132.82 57.2046 135.614 61.1997 137.2C65.4003 138.868 70.1582 139.068 75.1297 136.999C79.8941 135.015 84.4552 131.118 88.9404 125.363L84.208 121.675ZM50.3467 118.65L55.347 115.334C54.6332 114.258 53.8366 113.025 53.191 112.075C52.5619 111.148 51.7717 110.027 50.927 109.136L46.5732 113.265L42.2195 117.393C42.2194 117.393 42.2215 117.395 42.2258 117.4C42.2301 117.405 42.2363 117.412 42.2444 117.421C42.2609 117.44 42.2837 117.466 42.3129 117.502C42.3723 117.574 42.4492 117.671 42.5452 117.799C42.7407 118.059 42.9763 118.393 43.2639 118.817C43.8755 119.717 44.4912 120.677 45.3463 121.966L50.3467 118.65ZM46.5732 113.265L50.9238 109.133C50.0532 108.216 48.9915 107.703 48.865 107.638C48.4625 107.429 48.0167 107.225 47.6175 107.048C46.8826 106.722 45.6765 106.213 44.655 105.768C42.3841 104.778 39.6294 103.51 36.9643 101.942C34.2602 100.351 31.9232 98.609 30.3186 96.781C28.7452 94.9883 28.1621 93.4567 28.1621 92.083L22.1621 92.083L16.1621 92.0831C16.1622 97.2543 18.4819 101.486 21.2999 104.697C24.0868 107.872 27.6296 110.373 30.8797 112.285C34.1688 114.22 37.4426 115.714 39.8602 116.768C41.183 117.345 41.9861 117.678 42.7487 118.016C43.0982 118.171 43.2732 118.256 43.3414 118.291C43.6857 118.469 42.9448 118.157 42.2227 117.397L46.5732 113.265ZM22.1621 92.083H28.1621C28.1621 90.6044 29.504 88.104 32.1903 86.6935C34.463 85.5002 36.6366 85.6029 38.5669 87.5674L42.8467 83.3623L47.1265 79.1572C40.781 72.699 32.6123 72.9183 26.6117 76.0691C21.0247 79.0027 16.1621 85.074 16.1621 92.083H22.1621ZM42.8467 83.3623L42.9997 89.3604C46.319 89.2757 49.9204 87.6625 52.969 86.0548C56.2878 84.3045 60.0944 81.9155 64.1309 79.2611C72.3954 73.8263 81.6935 67.2484 91.594 61.1318L88.4404 56.0273L85.2869 50.9229C75.2408 57.1295 65.3028 64.1283 57.5375 69.2348C53.5591 71.851 50.1524 73.9737 47.3714 75.4403C45.9853 76.1713 44.8612 76.682 43.9789 77.0034C43.0441 77.3439 42.6667 77.3649 42.6937 77.3643L42.8467 83.3623ZM88.4404 56.0273L94.3385 57.1288C94.6396 55.5161 95.8305 49.666 98.2514 43.3991C100.772 36.8733 104.165 31.1372 108.217 28.4359L104.89 23.4434L101.562 18.4508C94.2534 23.3222 89.7544 32.094 87.0576 39.0749C84.2608 46.3148 82.9076 52.9703 82.5424 54.9259L88.4404 56.0273Z" fill="white" mask="url(#path-1-outside-1_1347_9623)"/>
<path d="M174.035 78.498C174.035 74.1742 177.369 68.4366 177.369 67.1049C177.369 64.2685 170.654 65.2845 170.339 62.5822C169.435 54.8253 178.498 48.2359 162.794 48.2618C156.948 48.2705 161.609 40.6174 161.609 36.4795C161.609 32.3417 150.384 35.8526 146.251 35.8526C142.113 35.8526 142.113 23.4433 137.979 23.4433C125.57 23.4433 121.432 35.8526 117.299 35.8526C113.161 35.8526 109.758 20.1961 104.889 23.4433C92.4802 31.7147 88.3467 56.5332 88.3467 56.5332C88.3467 56.5332 109.027 39.9904 133.842 44.124C156.952 47.9764 154.552 90.9116 158.232 117.144L128.567 176.458H143.09C144.577 169.972 151.474 174.17 153.359 169.159C155.006 164.766 150.462 160.659 152.953 156.322C155.443 151.985 157.181 153.057 162.007 150.377C167.126 147.536 162.007 140.869 162.007 136.731C162.007 132.597 172.003 129.925 172.003 125.787C172.003 123.063 167.385 120.201 168.492 115.6C169.604 111 175.35 110.472 176.055 106.157C176.651 102.495 172.072 99.8662 172.613 95.8105C173.153 91.7547 177.689 89.8523 177.689 86.7435C177.698 83.639 174.035 82.4154 174.035 78.498Z" fill="#276288"/>
<path d="M171.065 78.9905C171.065 61.5311 158.655 39.709 129.703 39.709C100.756 39.709 55.0531 83.0506 42.8471 83.3619C34.5714 74.9392 22.1621 83.5954 22.1621 92.083C22.1621 105.175 45.3938 112.016 46.5742 113.265C51.2785 118.233 63.5234 148.214 84.2084 121.675C87.6804 117.221 89.838 119.85 99.2681 124.018C130.555 140.695 91.3426 176.457 91.3426 176.457H132.704C153.38 155.777 171.06 116.599 171.06 81.347L170.969 81.3816C171 80.5817 171.065 79.7861 171.065 78.9905Z" fill="#4B9AE8"/>
<path d="M119.193 85.0004C124.729 85.0004 129.216 80.5127 129.216 74.9768C129.216 69.4409 124.729 64.9531 119.193 64.9531C113.657 64.9531 109.169 69.4409 109.169 74.9768C109.169 80.5127 113.657 85.0004 119.193 85.0004Z" fill="white"/>
<path d="M119.191 80.3154C122.139 80.3154 124.529 77.9253 124.529 74.977C124.529 72.0287 122.139 69.6387 119.191 69.6387C116.243 69.6387 113.853 72.0287 113.853 74.977C113.853 77.9253 116.243 80.3154 119.191 80.3154Z" fill="#040000"/>
<path d="M42.8409 95.8238C42.8409 99.2525 40.0607 97.8949 36.6363 97.8949C33.2118 97.8949 30.4316 99.2569 30.4316 95.8238C30.4316 92.3993 33.2118 89.6191 36.6363 89.6191C40.065 89.6191 42.8409 92.3993 42.8409 95.8238Z" fill="#276288"/>
<path d="M100.748 102.011C100.748 106.585 97.9682 106.144 94.5394 106.144C91.115 106.144 88.3391 106.581 88.3391 102.011C88.3391 97.4446 91.115 85.4678 94.5394 85.4678C97.9682 85.4678 100.748 97.449 100.748 102.011ZM84.2012 106.144C84.2012 110.719 81.4211 110.282 77.9966 110.282C74.5722 110.282 71.792 110.719 71.792 106.144C71.792 101.578 74.5722 89.6013 77.9966 89.6013C81.4211 89.6056 84.2012 101.583 84.2012 106.144Z" fill="white"/>
<path d="M100.162 102.067C78.2147 105.206 56.0942 110.744 46.5732 113.265C47.7623 114.519 49.4313 117.373 51.5975 120.503C62.0394 117.805 81.7559 113.049 101.334 110.26C103.6 109.94 105.169 107.834 104.845 105.577C104.521 103.312 102.411 101.738 100.162 102.067ZM102.536 75.3197C101.42 75.3197 100.309 74.8959 99.4704 74.0441C97.7928 72.3535 97.7928 69.6296 99.4747 67.9476C100.032 67.3898 113.406 54.2715 135.622 54.2715C138.013 54.2715 139.945 56.2085 139.945 58.5953C139.945 60.982 138.013 62.919 135.622 62.919C117.111 62.919 105.688 73.962 105.576 74.0744C104.737 74.9046 103.634 75.3197 102.536 75.3197Z" fill="#276288"/>
</svg>
