<svg width="200" height="200" viewBox="0 0 200 200" fill="none" xmlns="http://www.w3.org/2000/svg">
<mask id="path-1-outside-1_1062_25165" maskUnits="userSpaceOnUse" x="14" y="14" width="173" height="173" fill="black">
<rect fill="white" x="14" y="14" width="173" height="173"/>
<path d="M100.375 20C110.93 20 121.381 22.079 131.133 26.1182C140.884 30.1574 149.745 36.0775 157.209 43.541C164.672 51.0045 170.593 59.8656 174.632 69.6172C178.498 78.9522 180.568 88.9288 180.737 99.0234C180.741 99.0272 180.744 99.0314 180.747 99.0352V99.7998C180.748 99.9915 180.75 100.183 180.75 100.375C180.75 100.654 180.747 100.934 180.744 101.213C180.74 102.95 180.713 104.686 180.521 106.423C179.88 114.907 177.898 123.249 174.632 131.133C173.657 133.487 172.57 135.788 171.381 138.031C171.092 138.604 170.792 139.16 170.467 139.708C166.876 146.107 162.419 151.999 157.209 157.209C149.745 164.672 140.884 170.593 131.133 174.632C121.381 178.671 110.93 180.75 100.375 180.75C100.109 180.75 99.8437 180.748 99.5781 180.745C99.5748 180.747 99.5717 180.748 99.5684 180.75C95.8175 180.75 92.3345 180.482 88.8516 179.946C88.8689 179.94 88.8859 179.932 88.9033 179.925C82.2941 178.972 75.8141 177.199 69.6172 174.632C59.8656 170.593 51.0045 164.672 43.541 157.209C39.9076 153.576 36.6413 149.61 33.7783 145.373C33.7391 145.377 33.7001 145.381 33.6611 145.385C32.5895 143.777 31.7855 142.17 30.7139 140.562C30.7314 140.561 30.7489 140.559 30.7666 140.558C29.0172 137.527 27.463 134.379 26.1182 131.133C22.079 121.381 20 110.93 20 100.375C20 89.8201 22.079 79.3686 26.1182 69.6172C27.4405 66.4247 28.9649 63.3275 30.6787 60.3438C30.6906 60.1118 30.7013 59.8807 30.7139 59.6514C32.5892 56.4365 34.7327 53.4896 36.876 50.8105C36.8583 50.9289 36.8418 51.0482 36.8242 51.168C38.8959 48.4923 41.1381 45.9439 43.541 43.541C49.0242 38.0579 55.2622 33.409 62.0527 29.7256C63.2548 29.0232 64.4921 28.3555 65.8105 27.7695C65.8036 27.7871 65.796 27.8045 65.7891 27.8223C67.0486 27.2218 68.3252 26.6533 69.6172 26.1182C77.8771 22.6968 86.6392 20.6819 95.541 20.1455C97.0621 20.0026 98.5834 20 100.104 20H100.375Z"/>
</mask>
<path d="M100.375 20C110.93 20 121.381 22.079 131.133 26.1182C140.884 30.1574 149.745 36.0775 157.209 43.541C164.672 51.0045 170.593 59.8656 174.632 69.6172C178.498 78.9522 180.568 88.9288 180.737 99.0234C180.741 99.0272 180.744 99.0314 180.747 99.0352V99.7998C180.748 99.9915 180.75 100.183 180.75 100.375C180.75 100.654 180.747 100.934 180.744 101.213C180.74 102.95 180.713 104.686 180.521 106.423C179.88 114.907 177.898 123.249 174.632 131.133C173.657 133.487 172.57 135.788 171.381 138.031C171.092 138.604 170.792 139.16 170.467 139.708C166.876 146.107 162.419 151.999 157.209 157.209C149.745 164.672 140.884 170.593 131.133 174.632C121.381 178.671 110.93 180.75 100.375 180.75C100.109 180.75 99.8437 180.748 99.5781 180.745C99.5748 180.747 99.5717 180.748 99.5684 180.75C95.8175 180.75 92.3345 180.482 88.8516 179.946C88.8689 179.94 88.8859 179.932 88.9033 179.925C82.2941 178.972 75.8141 177.199 69.6172 174.632C59.8656 170.593 51.0045 164.672 43.541 157.209C39.9076 153.576 36.6413 149.61 33.7783 145.373C33.7391 145.377 33.7001 145.381 33.6611 145.385C32.5895 143.777 31.7855 142.17 30.7139 140.562C30.7314 140.561 30.7489 140.559 30.7666 140.558C29.0172 137.527 27.463 134.379 26.1182 131.133C22.079 121.381 20 110.93 20 100.375C20 89.8201 22.079 79.3686 26.1182 69.6172C27.4405 66.4247 28.9649 63.3275 30.6787 60.3438C30.6906 60.1118 30.7013 59.8807 30.7139 59.6514C32.5892 56.4365 34.7327 53.4896 36.876 50.8105C36.8583 50.9289 36.8418 51.0482 36.8242 51.168C38.8959 48.4923 41.1381 45.9439 43.541 43.541C49.0242 38.0579 55.2622 33.409 62.0527 29.7256C63.2548 29.0232 64.4921 28.3555 65.8105 27.7695C65.8036 27.7871 65.796 27.8045 65.7891 27.8223C67.0486 27.2218 68.3252 26.6533 69.6172 26.1182C77.8771 22.6968 86.6392 20.6819 95.541 20.1455C97.0621 20.0026 98.5834 20 100.104 20H100.375Z" fill="#BE5E59"/>
<path d="M100.375 20L100.375 14H100.375V20ZM131.133 26.1182L133.429 20.5749L133.429 20.5749L131.133 26.1182ZM157.209 43.541L161.452 39.2984L161.452 39.2984L157.209 43.541ZM174.632 69.6172L180.175 67.3211L180.175 67.3211L174.632 69.6172ZM180.737 99.0234L174.738 99.1243C174.762 100.562 175.302 101.943 176.259 103.017L180.737 99.0234ZM180.747 99.0352H186.747C186.747 97.5629 186.206 96.142 185.226 95.0429L180.747 99.0352ZM180.747 99.7998H174.747C174.747 99.8141 174.747 99.8284 174.747 99.8427L180.747 99.7998ZM180.75 100.375L186.75 100.375L180.75 100.375ZM180.744 101.213L174.744 101.15C174.744 101.167 174.744 101.184 174.744 101.2L180.744 101.213ZM180.521 106.423L174.557 105.763C174.549 105.833 174.543 105.902 174.538 105.971L180.521 106.423ZM174.632 131.133L180.175 133.429L180.175 133.429L174.632 131.133ZM171.381 138.031L166.08 135.22C166.06 135.257 166.041 135.295 166.022 135.333L171.381 138.031ZM170.467 139.708L165.306 136.648C165.282 136.689 165.258 136.73 165.234 136.772L170.467 139.708ZM131.133 174.632L133.429 180.175L133.429 180.175L131.133 174.632ZM100.375 180.75L100.375 186.75H100.375L100.375 180.75ZM99.5781 180.745L99.6376 174.745C98.7357 174.736 97.8433 174.931 97.0269 175.315L99.5781 180.745ZM99.5684 180.75V186.75C100.45 186.75 101.321 186.556 102.119 186.181L99.5684 180.75ZM88.8516 179.946L86.6685 174.358C84.1405 175.345 82.5901 177.907 82.8877 180.604C83.1853 183.302 85.2568 185.464 87.9392 185.877L88.8516 179.946ZM88.9033 179.925L91.0888 185.513C93.6257 184.52 95.1759 181.944 94.8638 179.238C94.5518 176.531 92.4559 174.375 89.7597 173.986L88.9033 179.925ZM69.6172 174.632L67.3211 180.175L67.3211 180.175L69.6172 174.632ZM43.541 157.209L39.2984 161.452L39.2984 161.452L43.541 157.209ZM33.7783 145.373L38.7498 142.014C37.5279 140.205 35.4203 139.203 33.2464 139.397L33.7783 145.373ZM33.6611 145.385L28.6688 148.713C29.8854 150.538 32.0007 151.553 34.1855 151.362L33.6611 145.385ZM30.7139 140.562L30.2537 134.58C28.1296 134.744 26.2515 136.021 25.3191 137.936C24.3867 139.852 24.5399 142.118 25.7216 143.891L30.7139 140.562ZM30.7666 140.558L31.2282 146.54C33.2833 146.381 35.1131 145.179 36.0743 143.356C37.0355 141.532 36.9934 139.343 35.9629 137.558L30.7666 140.558ZM26.1182 131.133L20.5749 133.429L20.5749 133.429L26.1182 131.133ZM20 100.375L14 100.375L20 100.375ZM26.1182 69.6172L20.5749 67.3211L20.5749 67.3211L26.1182 69.6172ZM30.6787 60.3438L35.8816 63.3321C36.3521 62.5129 36.6225 61.5942 36.6709 60.6507L30.6787 60.3438ZM30.7139 59.6514L25.5312 56.6281C25.052 57.4497 24.7749 58.3734 24.7229 59.3231L30.7139 59.6514ZM36.876 50.8105L42.8102 51.6963C43.2106 49.0137 41.7616 46.3961 39.2756 45.3113C36.7897 44.2265 33.8851 44.9444 32.1908 47.0624L36.876 50.8105ZM36.8242 51.168L30.8876 50.2983C30.4923 52.9965 31.9663 55.6219 34.4757 56.6893C36.9852 57.7566 39.8988 56.9975 41.5683 54.8413L36.8242 51.168ZM62.0527 29.7256L64.9135 34.9997C64.9695 34.9693 65.0249 34.9381 65.0798 34.906L62.0527 29.7256ZM65.8105 27.7695L71.3915 29.9725C72.286 27.7063 71.7214 25.1242 69.9626 23.4382C68.2038 21.7522 65.6001 21.2972 63.3737 22.2867L65.8105 27.7695ZM65.7891 27.8223L60.2063 25.624C59.3033 27.9171 59.8945 30.5293 61.6969 32.2102C63.4992 33.8911 66.1462 34.2989 68.3709 33.2384L65.7891 27.8223ZM69.6172 26.1182L67.3211 20.5749L67.3211 20.5749L69.6172 26.1182ZM95.541 20.1455L95.9019 26.1346C95.9688 26.1306 96.0357 26.1255 96.1024 26.1192L95.541 20.1455ZM100.375 20L100.375 26C110.142 26 119.813 27.9238 128.837 31.6615L131.133 26.1182L133.429 20.5749C122.95 16.2342 111.718 14 100.375 14L100.375 20ZM131.133 26.1182L128.837 31.6614C137.861 35.3992 146.06 40.8775 152.966 47.7837L157.209 43.541L161.452 39.2984C153.431 31.2776 143.908 24.9156 133.429 20.5749L131.133 26.1182ZM157.209 43.541L152.966 47.7837C159.873 54.6899 165.351 62.8895 169.089 71.9133L174.632 69.6172L180.175 67.3211C175.834 56.8418 169.472 47.3192 161.452 39.2984L157.209 43.541ZM174.632 69.6172L169.089 71.9133C172.666 80.551 174.581 89.7828 174.738 99.1243L180.737 99.0234L186.736 98.9225C186.554 88.0748 184.331 77.3534 180.175 67.3211L174.632 69.6172ZM180.737 99.0234L176.259 103.017C176.226 102.98 176.198 102.947 176.174 102.919C176.15 102.891 176.13 102.867 176.115 102.848C176.099 102.83 176.087 102.815 176.08 102.806C176.077 102.802 176.074 102.798 176.072 102.796C176.07 102.794 176.069 102.793 176.07 102.793C176.07 102.793 176.07 102.794 176.071 102.794C176.071 102.795 176.072 102.796 176.073 102.797C176.075 102.8 176.078 102.804 176.082 102.809C176.09 102.819 176.103 102.835 176.119 102.854C176.135 102.873 176.156 102.898 176.181 102.927C176.205 102.956 176.234 102.99 176.268 103.027L180.747 99.0352L185.226 95.0429C185.259 95.0796 185.287 95.1125 185.311 95.1404C185.335 95.1682 185.355 95.1922 185.37 95.2106C185.385 95.229 185.397 95.2438 185.404 95.2525C185.408 95.257 185.411 95.2606 185.413 95.2626C185.414 95.2645 185.415 95.2661 185.415 95.2655C185.415 95.2654 185.414 95.2648 185.414 95.2642C185.413 95.2634 185.412 95.2623 185.411 95.261C185.409 95.2584 185.406 95.2543 185.402 95.2493C185.394 95.2395 185.381 95.2236 185.365 95.2042C185.349 95.1847 185.328 95.1597 185.303 95.1308C185.279 95.1019 185.249 95.068 185.216 95.0303L180.737 99.0234ZM180.747 99.0352H174.747V99.7998H180.747H186.747V99.0352H180.747ZM180.747 99.7998L174.747 99.8427C174.749 100.044 174.75 100.21 174.75 100.375L180.75 100.375L186.75 100.375C186.75 100.157 186.748 99.9389 186.747 99.7569L180.747 99.7998ZM180.75 100.375L174.75 100.375C174.75 100.618 174.747 100.865 174.744 101.15L180.744 101.213L186.744 101.275C186.747 101.002 186.75 100.691 186.75 100.375L180.75 100.375ZM180.744 101.213L174.744 101.2C174.741 102.91 174.711 104.371 174.557 105.763L180.521 106.423L186.484 107.082C186.714 105.001 186.74 102.989 186.744 101.226L180.744 101.213ZM180.521 106.423L174.538 105.971C173.945 113.823 172.11 121.542 169.089 128.837L174.632 131.133L180.175 133.429C183.685 124.956 185.816 115.991 186.503 106.874L180.521 106.423ZM174.632 131.133L169.089 128.837C168.187 131.012 167.182 133.142 166.08 135.22L171.381 138.031L176.682 140.842C177.959 138.434 179.126 135.961 180.175 133.429L174.632 131.133ZM171.381 138.031L166.022 135.333C165.786 135.802 165.551 136.235 165.306 136.648L170.467 139.708L175.628 142.768C176.033 142.085 176.399 141.406 176.74 140.73L171.381 138.031ZM170.467 139.708L165.234 136.772C161.911 142.694 157.787 148.146 152.966 152.966L157.209 157.209L161.452 161.452C167.051 155.852 171.84 149.521 175.699 142.644L170.467 139.708ZM157.209 157.209L152.966 152.966C146.06 159.873 137.861 165.351 128.837 169.089L131.133 174.632L133.429 180.175C143.908 175.834 153.431 169.472 161.452 161.452L157.209 157.209ZM131.133 174.632L128.837 169.089C119.813 172.826 110.142 174.75 100.375 174.75L100.375 180.75L100.375 186.75C111.718 186.75 122.95 184.516 133.429 180.175L131.133 174.632ZM100.375 180.75V174.75C100.141 174.75 99.8999 174.748 99.6376 174.745L99.5781 180.745L99.5186 186.745C99.7875 186.747 100.078 186.75 100.375 186.75V180.75ZM99.5781 180.745L97.0269 175.315C96.9934 175.33 96.9637 175.345 96.9387 175.357C96.9138 175.369 96.8925 175.38 96.8759 175.388C96.8594 175.396 96.8461 175.403 96.8379 175.407C96.8337 175.409 96.8303 175.411 96.8281 175.412C96.827 175.413 96.8261 175.413 96.8255 175.414C96.825 175.414 96.8245 175.414 96.8245 175.414C96.824 175.414 96.8254 175.414 96.827 175.413C96.8287 175.412 96.8318 175.41 96.8356 175.409C96.843 175.405 96.8555 175.398 96.8712 175.39C96.887 175.382 96.9076 175.372 96.9317 175.36C96.9559 175.349 96.9848 175.335 97.0175 175.319L99.5684 180.75L102.119 186.181C102.153 186.165 102.182 186.151 102.207 186.138C102.232 186.126 102.254 186.116 102.27 186.107C102.287 186.099 102.3 186.092 102.309 186.088C102.313 186.086 102.316 186.084 102.318 186.083C102.319 186.082 102.32 186.082 102.321 186.081C102.321 186.081 102.322 186.081 102.322 186.081C102.322 186.081 102.321 186.081 102.32 186.082C102.318 186.083 102.315 186.085 102.311 186.087C102.304 186.09 102.291 186.097 102.275 186.105C102.26 186.113 102.239 186.123 102.215 186.135C102.191 186.146 102.162 186.16 102.129 186.176L99.5781 180.745ZM99.5684 180.75V174.75C96.1149 174.75 92.937 174.504 89.7639 174.016L88.8516 179.946L87.9392 185.877C91.7319 186.46 95.5202 186.75 99.5684 186.75V180.75ZM88.8516 179.946L91.0347 185.535C91.0963 185.511 91.1466 185.49 91.1787 185.477C91.195 185.47 91.2086 185.464 91.2177 185.46C91.2262 185.457 91.2338 185.453 91.2352 185.453C91.2383 185.452 91.2351 185.453 91.2311 185.455C91.2265 185.457 91.2174 185.46 91.2055 185.465C91.1825 185.475 91.1413 185.492 91.0888 185.513L88.9033 179.925L86.7179 174.337C86.6567 174.361 86.6068 174.382 86.5751 174.395C86.559 174.401 86.5456 174.407 86.5366 174.411C86.5283 174.415 86.5208 174.418 86.5197 174.418C86.5168 174.419 86.52 174.418 86.5242 174.416C86.5291 174.414 86.5384 174.41 86.5504 174.405C86.5738 174.395 86.6155 174.378 86.6685 174.358L88.8516 179.946ZM88.9033 179.925L89.7597 173.986C83.6425 173.104 77.6464 171.463 71.9133 169.089L69.6172 174.632L67.3211 180.175C73.9819 182.934 80.9456 184.839 88.0469 185.863L88.9033 179.925ZM69.6172 174.632L71.9133 169.089C62.8895 165.351 54.6899 159.873 47.7837 152.966L43.541 157.209L39.2984 161.452C47.3192 169.472 56.8418 175.834 67.3211 180.175L69.6172 174.632ZM43.541 157.209L47.7837 152.966C44.4224 149.605 41.3998 145.936 38.7498 142.014L33.7783 145.373L28.8068 148.732C31.8828 153.285 35.3929 157.546 39.2984 161.452L43.541 157.209ZM33.7783 145.373L33.2464 139.397C33.2036 139.4 33.1672 139.404 33.1415 139.407C33.1175 139.409 33.0951 139.412 33.0882 139.412C33.077 139.413 33.0805 139.413 33.0865 139.412C33.0939 139.412 33.1121 139.41 33.1368 139.408L33.6611 145.385L34.1855 151.362C34.2297 151.358 34.2674 151.354 34.2942 151.352C34.3198 151.349 34.3427 151.346 34.3511 151.346C34.3637 151.344 34.3608 151.345 34.3563 151.345C34.3502 151.346 34.3334 151.347 34.3103 151.349L33.7783 145.373ZM33.6611 145.385L38.6534 142.057C38.2329 141.426 37.8514 140.775 37.3699 139.95C36.9136 139.168 36.3573 138.211 35.7062 137.234L30.7139 140.562L25.7216 143.891C26.1421 144.522 26.5236 145.172 27.0051 145.997C27.4614 146.779 28.0177 147.736 28.6688 148.713L33.6611 145.385ZM30.7139 140.562L31.1741 146.545C31.2239 146.541 31.265 146.537 31.2916 146.535C31.3051 146.533 31.3164 146.532 31.3242 146.532C31.3314 146.531 31.338 146.53 31.3395 146.53C31.3424 146.53 31.3403 146.53 31.3375 146.53C31.3342 146.531 31.3273 146.531 31.3183 146.532C31.3007 146.534 31.2688 146.537 31.2282 146.54L30.7666 140.558L30.305 134.575C30.2556 134.579 30.2149 134.583 30.1885 134.585C30.175 134.587 30.1638 134.588 30.1561 134.589C30.1489 134.589 30.1424 134.59 30.1409 134.59C30.138 134.59 30.1402 134.59 30.143 134.59C30.1464 134.59 30.1534 134.589 30.1625 134.588C30.1803 134.586 30.2126 134.583 30.2537 134.58L30.7139 140.562ZM30.7666 140.558L35.9629 137.558C34.3436 134.753 32.9055 131.84 31.6614 128.837L26.1182 131.133L20.5749 133.429C22.0205 136.919 23.6908 140.302 25.5703 143.557L30.7666 140.558ZM26.1182 131.133L31.6615 128.837C27.9238 119.813 26 110.142 26 100.375L20 100.375L14 100.375C14 111.718 16.2342 122.95 20.5749 133.429L26.1182 131.133ZM20 100.375L26 100.375C26 90.6081 27.9238 80.9368 31.6615 71.9133L26.1182 69.6172L20.5749 67.3211C16.2342 77.8005 14 89.0322 14 100.375L20 100.375ZM26.1182 69.6172L31.6614 71.9133C32.885 68.9594 34.2956 66.0934 35.8816 63.3321L30.6787 60.3438L25.4759 57.3554C23.6343 60.5616 21.9961 63.89 20.5749 67.3211L26.1182 69.6172ZM30.6787 60.3438L36.6709 60.6507C36.685 60.3741 36.6928 60.2003 36.7049 59.9796L30.7139 59.6514L24.7229 59.3231C24.7098 59.5612 24.6962 59.8494 24.6866 60.0368L30.6787 60.3438ZM30.7139 59.6514L35.8965 62.6746C37.5782 59.7918 39.5339 57.0928 41.5612 54.5587L36.876 50.8105L32.1908 47.0624C29.9315 49.8864 27.6003 53.0811 25.5312 56.6281L30.7139 59.6514ZM36.876 50.8105L30.9417 49.9248C30.9268 50.0247 30.892 50.2682 30.8876 50.2983L36.8242 51.168L42.7609 52.0377C42.7915 51.8282 42.7898 51.8331 42.8102 51.6963L36.876 50.8105ZM36.8242 51.168L41.5683 54.8413C43.4862 52.3644 45.561 50.0063 47.7837 47.7837L43.541 43.541L39.2984 39.2984C36.7152 41.8815 34.3057 44.6202 32.0801 47.4946L36.8242 51.168ZM43.541 43.541L47.7837 47.7837C52.8569 42.7104 58.6292 38.4085 64.9135 34.9997L62.0527 29.7256L59.1919 24.4515C51.8953 28.4094 45.1915 33.4053 39.2984 39.2984L43.541 43.541ZM62.0527 29.7256L65.0798 34.906C66.1673 34.2706 67.1985 33.7186 68.2474 33.2524L65.8105 27.7695L63.3737 22.2867C61.7857 22.9924 60.3422 23.7759 59.0257 24.5452L62.0527 29.7256ZM65.8105 27.7695L60.2296 25.5665C60.24 25.5402 60.2482 25.52 60.2524 25.5097C60.2561 25.5009 60.2591 25.4937 60.2562 25.5006C60.2549 25.5036 60.2482 25.52 60.2405 25.5387C60.2324 25.5586 60.2203 25.5883 60.2063 25.624L65.7891 27.8223L71.3718 30.0206C71.3613 30.0474 71.3528 30.0682 71.3483 30.0793C71.3442 30.0892 71.3411 30.0968 71.3435 30.0911C71.344 30.0897 71.3461 30.0846 71.3483 30.0793C71.3507 30.0736 71.3541 30.0654 71.358 30.0557C71.3658 30.0367 71.3776 30.0076 71.3915 29.9725L65.8105 27.7695ZM65.7891 27.8223L68.3709 33.2384C69.537 32.6825 70.7183 32.1564 71.9133 31.6614L69.6172 26.1182L67.3211 20.5749C65.9321 21.1502 64.5602 21.7612 63.2072 22.4062L65.7891 27.8223ZM69.6172 26.1182L71.9133 31.6615C79.5566 28.4955 87.6646 26.631 95.9019 26.1346L95.541 20.1455L95.1802 14.1564C85.6138 14.7328 76.1976 16.8982 67.3211 20.5749L69.6172 26.1182ZM95.541 20.1455L96.1024 26.1192C97.3005 26.0066 98.5471 26 100.104 26V20V14C98.6196 14 96.8238 13.9985 94.9796 14.1718L95.541 20.1455ZM100.104 20V26H100.375V20V14H100.104V20Z" fill="white" mask="url(#path-1-outside-1_1062_25165)"/>
<path d="M20 100.375C20 110.93 22.079 121.382 26.1182 131.133C30.1574 140.885 36.0778 149.745 43.5413 157.209C51.0048 164.672 59.8653 170.593 69.6168 174.632C79.3684 178.671 89.82 180.75 100.375 180.75C110.93 180.75 121.382 178.671 131.133 174.632C140.885 170.593 149.745 164.672 157.209 157.209C164.672 149.745 170.593 140.885 174.632 131.133C178.671 121.382 180.75 110.93 180.75 100.375C180.75 89.82 178.671 79.3684 174.632 69.6168C170.593 59.8653 164.672 51.0048 157.209 43.5413C149.745 36.0778 140.885 30.1574 131.133 26.1182C121.382 22.079 110.93 20 100.375 20C89.82 20 79.3684 22.079 69.6168 26.1182C59.8653 30.1574 51.0048 36.0778 43.5413 43.5413C36.0778 51.0048 30.1574 59.8653 26.1182 69.6168C22.079 79.3684 20 89.82 20 100.375Z" fill="#DBDBDB"/>
<path d="M90.7268 62.8667C90.4589 54.5612 91.5305 47.0596 93.138 40.3617C131.986 41.1654 160.653 59.3837 174.853 70.6362C173.513 67.4212 171.906 64.2062 170.298 60.9912C154.223 49.7387 127.967 36.3429 94.4776 35.2712C96.353 28.5733 98.7643 23.4829 100.372 20H100.104C98.2284 20 96.353 20 94.4776 20.2679C88.0476 34.1996 76.2593 68.4929 97.1568 100.643C91.7984 111.36 84.2968 119.129 76.5272 124.755C49.7355 75.7267 61.7918 37.9504 65.8105 27.7696C63.3993 28.8412 61.2559 30.1808 59.1126 31.5204C54.0222 47.3275 47.5922 82.6925 72.5084 127.702C65.5426 131.989 58.3089 134.936 51.6109 136.812C32.8568 102.786 34.1964 68.7608 36.8755 50.8104C34.7322 53.4896 32.5889 56.4367 30.7134 59.6517C29.6418 79.2096 30.9814 108.412 46.7884 138.151C40.0905 139.759 34.1964 140.295 30.7134 140.562C31.7851 142.17 32.5889 143.777 33.6605 145.385C48.9318 144.045 84.5647 137.08 101.979 103.054C114.036 102.518 124.484 104.93 133.326 108.948C104.391 156.637 65.5426 165.211 54.8259 166.55L61.2559 170.569C77.3309 167.086 111.356 155.03 137.88 110.824C145.114 114.575 151.276 119.397 156.098 124.22C136.005 157.441 105.998 173.248 88.8514 179.946C92.3343 180.482 95.8172 180.75 99.568 180.75C117.251 172.445 142.167 156.37 159.581 127.97C164.404 133.061 167.619 137.615 169.762 140.83C170.834 139.223 171.638 137.615 172.441 135.74C163.6 123.148 139.756 95.8204 101.711 97.6958C95.2814 87.7829 92.0664 77.3342 90.9947 67.6892C146.989 68.7608 173.513 97.9638 180.479 106.805C180.747 104.662 180.747 102.518 180.747 100.375V99.0354C169.762 86.7112 142.167 63.6704 90.7268 62.8667Z" fill="#F0F0F0"/>
<path opacity="0.9" d="M62.4865 75.2231C94.8633 46.4092 121.682 53.8458 137.109 64.2389C152.535 74.6319 153.951 110.104 138.94 135.222C123.93 160.341 82.7228 155.98 61.6211 141.31C40.5193 126.64 30.1097 104.037 62.4865 75.2231Z" fill="#BE5E59"/>
<path d="M68.3991 87.3415C93.545 64.9627 114.374 70.7385 126.355 78.8104C138.337 86.8823 139.436 114.432 127.778 133.941C116.12 153.449 84.1159 150.063 67.7269 138.669C51.3379 127.275 43.2532 109.72 68.3991 87.3415Z" fill="#BE5E59"/>
<path d="M101.866 121.025C99.7509 124.253 93.1229 127.956 89.0084 126.022C84.8939 124.089 83.2761 116.342 84.8529 112.528C86.4262 108.722 90.523 107.56 96.6614 110.453C102.867 113.379 103.981 117.797 101.866 121.025Z" fill="#FFCDCB"/>
<path d="M77.6715 104.641C71.0493 104.906 65.4667 99.7514 65.2025 93.1292C64.9382 86.507 70.0923 80.9244 76.7145 80.6601C83.3367 80.3959 88.9193 85.55 89.1836 92.1722C89.4479 98.7944 84.2937 104.377 77.6715 104.641Z" fill="white"/>
<path d="M77.4411 99.0417C73.9113 99.1825 70.9356 96.4353 70.7947 92.9054C70.6539 89.3756 73.4012 86.3999 76.931 86.2591C80.4608 86.1182 83.4365 88.8655 83.5773 92.3953C83.7182 95.9251 80.9709 98.9008 77.4411 99.0417Z" fill="#BE5E59"/>
<path d="M125.353 120.753C118.731 121.017 113.148 115.863 112.884 109.241C112.62 102.619 117.774 97.036 124.396 96.7717C131.018 96.5074 136.601 101.662 136.865 108.284C137.129 114.906 131.975 120.489 125.353 120.753Z" fill="white"/>
<path d="M125.123 115.153C121.593 115.294 118.617 112.547 118.476 109.017C118.336 105.487 121.083 102.512 124.613 102.371C128.142 102.23 131.118 104.977 131.259 108.507C131.4 112.037 128.653 115.012 125.123 115.153Z" fill="#BE5E59"/>
<path opacity="0.8" d="M94.6918 44.8039C101.492 47.2038 93.1919 59.4706 88.1918 65.3039C82.6918 68.8039 72.9918 73.7039 78.1918 65.3039C84.6918 54.804 86.1916 41.8039 94.6918 44.8039Z" fill="#BE5E59"/>
<path opacity="0.7" d="M113.207 40.3654C108.108 35.2664 100.706 54.3653 98.7057 60.8654C96.7058 67.3654 104.104 67.3526 108.206 58.3653C113.334 47.1312 117.708 44.8654 113.207 40.3654Z" fill="#BE5E59"/>
<path opacity="0.7" d="M127.842 38.5519C123.358 31.7947 113.783 54.2953 111.534 61.6048C109.285 68.9143 116.595 68.9718 121.208 58.8653C126.974 46.2321 129.708 41.3652 127.842 38.5519Z" fill="#BE5E59"/>
<path opacity="0.8" d="M140.036 46.3357C134.554 40.8535 126.595 61.3878 124.445 68.3763C122.294 75.3648 130.248 75.3511 134.659 65.6883C140.172 53.6099 144.875 51.1739 140.036 46.3357Z" fill="#BE5E59"/>
<path opacity="0.9" d="M151.045 65.7448C145.588 61.0302 142.318 69.2021 141.208 78.8653C140.098 88.5285 145.604 102.353 149.706 93.3653C154.834 82.1311 157.207 71.0692 151.045 65.7448Z" fill="#BE5E59"/>
</svg>
