<svg width="200" height="200" viewBox="0 0 200 200" fill="none" xmlns="http://www.w3.org/2000/svg">
<g opacity="0.5">
<mask id="path-1-outside-1_1347_13574" maskUnits="userSpaceOnUse" x="4.50488" y="14" width="192" height="175" fill="black">
<rect fill="white" x="4.50488" y="14" width="192" height="175"/>
<path d="M99.9951 20C100.186 20 100.377 20.0043 100.565 20.0195C105.818 20.3284 109.986 24.9171 109.986 31.001C109.986 31.6855 109.784 33.0646 109.687 33.1523C109.705 33.1633 109.723 33.1737 109.738 33.1836C109.741 33.1837 109.744 33.1845 109.747 33.1846C110.407 33.2074 111.109 33.3921 111.791 33.7695L112.499 34.1602L119.474 38.0078C121.348 39.0431 121.878 41.2419 120.513 42.3535V42.3594H120.514C120.499 42.3737 119.878 42.9629 118.656 43.6094C118.614 43.6322 118.572 43.6564 118.529 43.6787C118.495 43.6977 118.459 43.7144 118.423 43.7334C118.352 43.7696 118.279 43.8046 118.207 43.8408C118.14 43.8736 118.071 43.9009 118.002 43.9307C117.965 43.947 117.928 43.9646 117.89 43.9805C117.876 43.9862 117.862 43.9934 117.849 43.999C117.61 44.1019 117.363 44.1953 117.109 44.2734C116.64 44.4241 116.152 44.5346 115.643 44.5918H115.641C115.479 46.9388 114.613 49.034 113.222 50.7881C112.536 51.6544 111.72 52.4352 110.8 53.1221H112.031C114.486 53.1223 121.998 61.4185 135.497 80.0381C149.983 100.008 165.241 111.363 165.714 111.713L165.731 111.717C172.939 118.322 188.399 118.528 188.399 124.638C188.4 124.655 189.141 139.785 189.436 154.231C189.762 161.944 189.893 170.463 189.267 175.596C189.085 178.042 188.806 179.642 188.399 180C185.799 182.287 171.499 182 171.499 182C171.503 181.899 171.507 181.798 171.511 181.695C169.482 181.789 167.299 181.879 164.98 181.962C164.987 181.975 164.993 181.987 164.999 182L147.499 182.5C147.501 182.48 147.503 182.46 147.506 182.44C111.218 183.206 59.5444 183.142 31.4814 182.36C31.4877 182.409 31.4931 182.455 31.499 182.5C31.4657 182.5 14.996 182.582 11.999 181.292C11.9006 181.25 11.8095 181.192 11.7236 181.122C11.6125 181.082 11.5374 181.042 11.5 181C11.4046 180.893 11.3201 180.716 11.2402 180.476C10.7774 179.528 10.6366 177.931 10.6729 176.126C9.9122 162.839 11.9927 127.617 11.999 127.51C11.999 121.272 23.805 122.048 39.3525 109.948L59.0244 88.9619L60.0273 87.8809C60.5748 87.1432 66.9864 78.5193 69.2324 76.123C71.3671 73.846 76.9059 67.2829 77.8906 66.1143C82.6933 60.3553 87.6639 54.8365 89.9648 53.6621C88.7232 52.8559 87.6436 51.8912 86.7705 50.79C86.7704 50.7895 86.7699 50.7881 86.7686 50.7881C85.3731 49.0264 84.504 46.9159 84.3496 44.5537L84.3486 44.5508C83.6809 44.4481 83.0474 44.2568 82.4541 44.0078C82.3217 43.9542 82.1927 43.8985 82.0684 43.8389C82.0218 43.8166 81.9768 43.7918 81.9316 43.7695C81.8552 43.7318 81.7799 43.6927 81.7051 43.6533C80.4113 42.9817 79.7607 42.3594 79.7607 42.3594C79.7607 42.3594 79.7634 42.3593 79.7676 42.3604C79.7663 42.3593 79.7649 42.3584 79.7637 42.3574C78.4004 41.2458 78.9305 39.047 80.8047 38.0117L88.4844 33.7734L88.4824 33.7715C88.9847 33.4945 89.4982 33.3223 89.9971 33.2412C89.999 32.8401 90.0068 31.5738 90.0068 31.001C90.007 24.6979 94.4794 20.0001 99.9951 20Z"/>
</mask>
<path d="M99.9951 20C100.186 20 100.377 20.0043 100.565 20.0195C105.818 20.3284 109.986 24.9171 109.986 31.001C109.986 31.6855 109.784 33.0646 109.687 33.1523C109.705 33.1633 109.723 33.1737 109.738 33.1836C109.741 33.1837 109.744 33.1845 109.747 33.1846C110.407 33.2074 111.109 33.3921 111.791 33.7695L112.499 34.1602L119.474 38.0078C121.348 39.0431 121.878 41.2419 120.513 42.3535V42.3594H120.514C120.499 42.3737 119.878 42.9629 118.656 43.6094C118.614 43.6322 118.572 43.6564 118.529 43.6787C118.495 43.6977 118.459 43.7144 118.423 43.7334C118.352 43.7696 118.279 43.8046 118.207 43.8408C118.14 43.8736 118.071 43.9009 118.002 43.9307C117.965 43.947 117.928 43.9646 117.89 43.9805C117.876 43.9862 117.862 43.9934 117.849 43.999C117.61 44.1019 117.363 44.1953 117.109 44.2734C116.64 44.4241 116.152 44.5346 115.643 44.5918H115.641C115.479 46.9388 114.613 49.034 113.222 50.7881C112.536 51.6544 111.72 52.4352 110.8 53.1221H112.031C114.486 53.1223 121.998 61.4185 135.497 80.0381C149.983 100.008 165.241 111.363 165.714 111.713L165.731 111.717C172.939 118.322 188.399 118.528 188.399 124.638C188.4 124.655 189.141 139.785 189.436 154.231C189.762 161.944 189.893 170.463 189.267 175.596C189.085 178.042 188.806 179.642 188.399 180C185.799 182.287 171.499 182 171.499 182C171.503 181.899 171.507 181.798 171.511 181.695C169.482 181.789 167.299 181.879 164.98 181.962C164.987 181.975 164.993 181.987 164.999 182L147.499 182.5C147.501 182.48 147.503 182.46 147.506 182.44C111.218 183.206 59.5444 183.142 31.4814 182.36C31.4877 182.409 31.4931 182.455 31.499 182.5C31.4657 182.5 14.996 182.582 11.999 181.292C11.9006 181.25 11.8095 181.192 11.7236 181.122C11.6125 181.082 11.5374 181.042 11.5 181C11.4046 180.893 11.3201 180.716 11.2402 180.476C10.7774 179.528 10.6366 177.931 10.6729 176.126C9.9122 162.839 11.9927 127.617 11.999 127.51C11.999 121.272 23.805 122.048 39.3525 109.948L59.0244 88.9619L60.0273 87.8809C60.5748 87.1432 66.9864 78.5193 69.2324 76.123C71.3671 73.846 76.9059 67.2829 77.8906 66.1143C82.6933 60.3553 87.6639 54.8365 89.9648 53.6621C88.7232 52.8559 87.6436 51.8912 86.7705 50.79C86.7704 50.7895 86.7699 50.7881 86.7686 50.7881C85.3731 49.0264 84.504 46.9159 84.3496 44.5537L84.3486 44.5508C83.6809 44.4481 83.0474 44.2568 82.4541 44.0078C82.3217 43.9542 82.1927 43.8985 82.0684 43.8389C82.0218 43.8166 81.9768 43.7918 81.9316 43.7695C81.8552 43.7318 81.7799 43.6927 81.7051 43.6533C80.4113 42.9817 79.7607 42.3594 79.7607 42.3594C79.7607 42.3594 79.7634 42.3593 79.7676 42.3604C79.7663 42.3593 79.7649 42.3584 79.7637 42.3574C78.4004 41.2458 78.9305 39.047 80.8047 38.0117L88.4844 33.7734L88.4824 33.7715C88.9847 33.4945 89.4982 33.3223 89.9971 33.2412C89.999 32.8401 90.0068 31.5738 90.0068 31.001C90.007 24.6979 94.4794 20.0001 99.9951 20Z" fill="#14465D"/>
<path d="M99.9951 20V14H99.995L99.9951 20ZM100.565 20.0195L100.082 26C100.126 26.0036 100.169 26.0066 100.213 26.0092L100.565 20.0195ZM109.986 31.001H115.986V31.0008L109.986 31.001ZM109.687 33.1523L105.668 28.6969C104.246 29.9795 103.522 31.8639 103.718 33.7687C103.915 35.6736 105.009 37.3701 106.663 38.335L109.687 33.1523ZM109.738 33.1836L106.457 38.207C107.376 38.8073 108.442 39.1439 109.539 39.1803L109.738 33.1836ZM109.747 33.1846L109.535 39.1808L109.539 39.181L109.747 33.1846ZM111.791 33.7695L108.887 39.0202L108.893 39.023L111.791 33.7695ZM112.499 34.1602L109.601 39.4136L109.601 39.4138L112.499 34.1602ZM119.474 38.0078L122.375 32.756L122.372 32.7542L119.474 38.0078ZM120.513 42.3535L116.724 37.7012C115.325 38.8406 114.513 40.5492 114.513 42.3535H120.513ZM120.513 42.3594H114.513C114.513 45.6731 117.199 48.3594 120.513 48.3594V42.3594ZM120.514 42.3594L124.669 46.6876C126.436 44.9915 126.994 42.3919 126.08 40.1199C125.166 37.8478 122.963 36.3594 120.514 36.3594V42.3594ZM118.656 43.6094L115.85 38.306C115.835 38.3138 115.821 38.3217 115.806 38.3296L118.656 43.6094ZM118.529 43.6787L115.753 38.3597C115.707 38.3836 115.662 38.4081 115.616 38.4332L118.529 43.6787ZM118.423 43.7334L121.164 49.0708C121.181 49.0618 121.199 49.0528 121.216 49.0437L118.423 43.7334ZM118.207 43.8408L120.855 49.2251C120.867 49.2192 120.878 49.2133 120.89 49.2074L118.207 43.8408ZM118.002 43.9307L115.622 38.4231C115.612 38.4271 115.603 38.4311 115.594 38.4351L118.002 43.9307ZM117.89 43.9805L120.174 49.5286C120.182 49.5252 120.191 49.5217 120.199 49.5183L117.89 43.9805ZM117.849 43.999L115.59 38.4402C115.55 38.4567 115.509 38.4736 115.469 38.491L117.849 43.999ZM117.109 44.2734L115.341 38.5398C115.319 38.5467 115.297 38.5537 115.275 38.5608L117.109 44.2734ZM115.643 44.5918V50.5918C115.866 50.5918 116.09 50.5793 116.313 50.5543L115.643 44.5918ZM115.641 44.5918V38.5918C112.487 38.5918 109.872 41.0327 109.655 44.1785L115.641 44.5918ZM113.222 50.7881L108.521 47.0588L108.518 47.0636L113.222 50.7881ZM110.8 53.1221L107.212 48.3132C105.14 49.8593 104.291 52.5587 105.105 55.0124C105.92 57.466 108.214 59.1221 110.8 59.1221V53.1221ZM112.031 53.1221L112.032 47.1221H112.031V53.1221ZM135.497 80.0381L130.639 83.5599L130.64 83.5611L135.497 80.0381ZM165.714 111.713L162.146 116.537C162.821 117.036 163.593 117.388 164.412 117.57L165.714 111.713ZM165.731 111.717L169.785 107.293C169.009 106.582 168.06 106.088 167.033 105.86L165.731 111.717ZM188.399 124.638H182.399C182.399 124.736 182.402 124.833 182.407 124.931L188.399 124.638ZM189.436 154.231L183.437 154.354C183.438 154.398 183.439 154.441 183.441 154.485L189.436 154.231ZM189.267 175.596L183.311 174.869C183.299 174.962 183.29 175.056 183.283 175.15L189.267 175.596ZM188.399 180L192.362 184.505L192.362 184.505L188.399 180ZM171.499 182L165.503 181.782C165.444 183.389 166.034 184.952 167.138 186.121C168.243 187.29 169.771 187.967 171.379 187.999L171.499 182ZM171.511 181.695L177.506 181.927C177.571 180.249 176.93 178.62 175.738 177.437C174.546 176.254 172.913 175.624 171.235 175.702L171.511 181.695ZM164.98 181.962L164.766 175.966C162.729 176.039 160.868 177.141 159.825 178.892C158.782 180.644 158.7 182.805 159.607 184.631L164.98 181.962ZM164.999 182L165.17 187.998C167.217 187.939 169.092 186.841 170.145 185.086C171.198 183.33 171.283 181.158 170.37 179.326L164.999 182ZM147.499 182.5L141.544 181.77C141.331 183.505 141.886 185.247 143.063 186.54C144.24 187.833 145.923 188.547 147.67 188.498L147.499 182.5ZM147.506 182.44L153.462 183.161C153.671 181.435 153.121 179.703 151.954 178.414C150.787 177.125 149.118 176.405 147.379 176.442L147.506 182.44ZM31.4814 182.36L31.6484 176.363C29.8946 176.314 28.2072 177.035 27.0306 178.337C25.8539 179.638 25.306 181.39 25.531 183.13L31.4814 182.36ZM31.499 182.5L31.5291 188.5C33.2534 188.491 34.8907 187.741 36.0233 186.441C37.1559 185.141 37.6743 183.416 37.4464 181.707L31.499 182.5ZM11.999 181.292L9.62513 186.802L9.62624 186.803L11.999 181.292ZM11.7236 181.122L15.5042 176.463C14.9864 176.043 14.4021 175.712 13.7755 175.484L11.7236 181.122ZM11.5 181L7.03004 185.002L7.03293 185.006L11.5 181ZM11.2402 180.476L16.9347 178.585C16.8503 178.331 16.749 178.083 16.6314 177.842L11.2402 180.476ZM10.6729 176.126L16.6716 176.246C16.6747 176.092 16.6719 175.937 16.663 175.783L10.6729 176.126ZM11.999 127.51L17.9886 127.864C17.9955 127.746 17.999 127.628 17.999 127.51H11.999ZM39.3525 109.948L43.0376 114.683C43.2845 114.491 43.5161 114.28 43.7301 114.052L39.3525 109.948ZM59.0244 88.9619L63.4019 93.0652C63.409 93.0577 63.416 93.0502 63.423 93.0426L59.0244 88.9619ZM60.0273 87.8809L64.4259 91.9616C64.5749 91.801 64.715 91.6324 64.8455 91.4565L60.0273 87.8809ZM69.2324 76.123L64.8552 72.0194L64.8548 72.0199L69.2324 76.123ZM77.8906 66.1143L82.4788 69.9806C82.4854 69.9728 82.492 69.9649 82.4986 69.957L77.8906 66.1143ZM89.9648 53.6621L92.6925 59.0063C94.6012 58.0321 95.8454 56.1139 95.9567 53.9738C96.0681 51.8338 95.0296 49.7969 93.2323 48.6299L89.9648 53.6621ZM86.7705 50.79L80.9012 52.0354C81.0935 52.9419 81.4933 53.7916 82.069 54.5178L86.7705 50.79ZM86.7686 50.7881L82.0654 54.5137C83.2034 55.9504 84.9357 56.7881 86.7686 56.7881V50.7881ZM84.3496 44.5537L90.3368 44.1623C90.3033 43.6497 90.2041 43.1436 90.0417 42.6563L84.3496 44.5537ZM84.3486 44.5508L90.0407 42.6534C89.3294 40.5194 87.4841 38.9625 85.2608 38.6205L84.3486 44.5508ZM82.4541 44.0078L84.776 38.4753C84.7522 38.4653 84.7284 38.4555 84.7045 38.4458L82.4541 44.0078ZM82.0684 43.8389L84.6609 38.4279L84.6599 38.4274L82.0684 43.8389ZM81.9316 43.7695L84.5877 38.3895L84.5873 38.3893L81.9316 43.7695ZM81.7051 43.6533L84.498 38.343C84.4886 38.338 84.4791 38.3331 84.4697 38.3282L81.7051 43.6533ZM79.7607 42.3594L79.6039 36.3614C77.1822 36.4247 75.0362 37.9381 74.1636 40.198C73.2909 42.4578 73.8628 45.0208 75.6134 46.6952L79.7607 42.3594ZM79.7676 42.3604L78.3157 48.182C81.0416 48.8619 83.8743 47.5592 85.1323 45.0472C86.3904 42.5352 85.737 39.4867 83.56 37.7109L79.7676 42.3604ZM79.7637 42.3574L83.5578 37.7094L83.5553 37.7073L79.7637 42.3574ZM80.8047 38.0117L77.9056 32.7586L77.9035 32.7597L80.8047 38.0117ZM88.4844 33.7734L91.3835 39.0266C93.0345 38.1154 94.161 36.4811 94.4252 34.614C94.6894 32.7469 94.0604 30.8642 92.727 29.5308L88.4844 33.7734ZM88.4824 33.7715L85.5851 28.5174C83.9335 29.4282 82.8063 31.0625 82.5417 32.9299C82.2772 34.7973 82.9061 36.6805 84.2398 38.0141L88.4824 33.7715ZM89.9971 33.2412L90.9593 39.1635C93.8528 38.6934 95.9829 36.2014 95.997 33.27L89.9971 33.2412ZM90.0068 31.001L84.0068 31.0008V31.001H90.0068ZM99.9951 20V26C100.047 26 100.077 26.0006 100.093 26.0011C100.109 26.0016 100.104 26.0018 100.082 26L100.565 20.0195L101.049 14.039C100.635 14.0056 100.267 14 99.9951 14V20ZM100.565 20.0195L100.213 26.0092C101.881 26.1073 103.986 27.6624 103.986 31.0011L109.986 31.001L115.986 31.0008C115.986 22.1717 109.755 14.5496 100.918 14.0299L100.565 20.0195ZM109.986 31.001H103.986C103.986 30.9188 103.99 30.9347 103.978 31.0735C103.967 31.1905 103.951 31.3278 103.933 31.4552C103.913 31.597 103.901 31.6501 103.908 31.6174C103.908 31.6157 103.937 31.4766 104.001 31.271C104.031 31.176 104.107 30.9415 104.239 30.6481C104.307 30.499 104.424 30.2561 104.601 29.9721C104.755 29.7242 105.095 29.214 105.668 28.6969L109.687 33.1523L113.705 37.6078C114.697 36.7133 115.121 35.7092 115.173 35.5944C115.319 35.2708 115.409 34.9971 115.454 34.8546C115.548 34.5541 115.608 34.2875 115.641 34.1335C115.713 33.7961 115.77 33.4452 115.813 33.1457C115.891 32.6002 115.986 31.7607 115.986 31.001H109.986ZM109.687 33.1523L106.663 38.335C106.679 38.3439 106.658 38.3319 106.632 38.3166C106.606 38.3008 106.541 38.2615 106.457 38.207L109.738 33.1836L113.019 28.1602C112.921 28.0958 112.839 28.0464 112.795 28.0201C112.752 27.9944 112.713 27.9717 112.71 27.9697L109.687 33.1523ZM109.738 33.1836L109.539 39.1803C109.425 39.1765 109.323 39.1698 109.238 39.1627C109.153 39.1555 109.08 39.1476 109.024 39.1409C108.996 39.1375 108.971 39.1343 108.95 39.1315C108.929 39.1287 108.911 39.1262 108.897 39.1242C108.883 39.1222 108.872 39.1206 108.865 39.1196C108.862 39.1191 108.859 39.1186 108.857 39.1184C108.856 39.1183 108.856 39.1181 108.855 39.1181C108.855 39.118 108.855 39.118 108.855 39.118C108.855 39.118 108.854 39.118 108.854 39.118C108.854 39.1179 108.856 39.1181 108.857 39.1184C108.859 39.1186 108.861 39.119 108.865 39.1195C108.871 39.1205 108.882 39.1221 108.896 39.1241C108.91 39.126 108.928 39.1285 108.949 39.1313C108.97 39.1341 108.994 39.1373 109.022 39.1407C109.078 39.1475 109.15 39.1555 109.235 39.1627C109.32 39.17 109.421 39.1768 109.535 39.1808L109.747 33.1846L109.959 27.1883C110.072 27.1923 110.173 27.1991 110.257 27.2063C110.341 27.2135 110.412 27.2214 110.467 27.228C110.495 27.2314 110.519 27.2346 110.54 27.2373C110.561 27.2401 110.578 27.2425 110.591 27.2444C110.605 27.2463 110.615 27.2479 110.622 27.2488C110.625 27.2493 110.627 27.2497 110.629 27.2499C110.63 27.2501 110.631 27.2503 110.631 27.2502C110.631 27.2502 110.629 27.25 110.628 27.2497C110.626 27.2494 110.623 27.249 110.619 27.2484C110.612 27.2474 110.6 27.2457 110.586 27.2437C110.572 27.2416 110.553 27.2391 110.532 27.2362C110.511 27.2334 110.485 27.2301 110.457 27.2267C110.4 27.2198 110.326 27.2118 110.241 27.2046C110.155 27.1974 110.052 27.1907 109.937 27.1869L109.738 33.1836ZM109.747 33.1846L109.539 39.181C109.226 39.1701 109.008 39.0867 108.887 39.0202L111.791 33.7695L114.695 28.5189C113.209 27.6976 111.587 27.2448 109.955 27.1882L109.747 33.1846ZM111.791 33.7695L108.893 39.023L109.601 39.4136L112.499 34.1602L115.397 28.9067L114.689 28.5161L111.791 33.7695ZM112.499 34.1602L109.601 39.4138L116.575 43.2614L119.474 38.0078L122.372 32.7542L115.397 28.9066L112.499 34.1602ZM119.474 38.0078L116.572 43.2596C116.178 43.0416 115.607 42.5256 115.373 41.5509C115.113 40.4671 115.362 38.8106 116.724 37.7012L120.513 42.3535L124.302 47.0058C127.029 44.7848 127.694 41.4731 127.042 38.7532C126.416 36.1424 124.644 34.0093 122.375 32.756L119.474 38.0078ZM120.513 42.3535H114.513V42.3594H120.513H126.513V42.3535H120.513ZM120.513 42.3594V48.3594H120.514V42.3594V36.3594H120.513V42.3594ZM120.514 42.3594L116.358 38.0312C116.523 37.8734 116.556 37.8589 116.462 37.9293C116.371 37.9964 116.167 38.1385 115.85 38.306L118.656 43.6094L121.462 48.9127C123.263 47.96 124.329 47.0143 124.669 46.6876L120.514 42.3594ZM118.656 43.6094L115.806 38.3296C115.771 38.3484 115.742 38.3647 115.722 38.3753C115.713 38.3806 115.704 38.3854 115.698 38.3886C115.691 38.3925 115.689 38.3938 115.686 38.3955C115.68 38.3986 115.686 38.3955 115.696 38.3901C115.707 38.3843 115.727 38.3735 115.753 38.3597L118.529 43.6787L121.306 48.9977C121.397 48.9502 121.472 48.9083 121.5 48.8929C121.508 48.8888 121.516 48.8843 121.519 48.8823C121.524 48.8796 121.526 48.8786 121.527 48.8781C121.529 48.877 121.52 48.8817 121.506 48.8892L118.656 43.6094ZM118.529 43.6787L115.616 38.4332C115.645 38.4174 115.67 38.4036 115.692 38.3922C115.713 38.3807 115.732 38.3711 115.746 38.3637C115.76 38.3563 115.772 38.3505 115.779 38.3469C115.782 38.345 115.785 38.3436 115.787 38.3426C115.789 38.3417 115.79 38.3411 115.79 38.3411C115.79 38.341 115.79 38.3413 115.788 38.3421C115.787 38.3426 115.787 38.343 115.785 38.3436C115.784 38.3442 115.782 38.345 115.781 38.3458C115.775 38.3489 115.764 38.3544 115.751 38.361C115.737 38.3677 115.72 38.3764 115.7 38.3867C115.68 38.3969 115.656 38.4092 115.63 38.4231L118.423 43.7334L121.216 49.0437C121.182 49.0615 121.157 49.0742 121.149 49.0781C121.145 49.0801 121.143 49.0811 121.146 49.0797C121.148 49.0787 121.148 49.0786 121.152 49.0767C121.155 49.0753 121.159 49.0733 121.163 49.0711C121.179 49.0629 121.216 49.0444 121.261 49.0215C121.306 48.998 121.369 48.9649 121.442 48.9242L118.529 43.6787ZM118.423 43.7334L115.682 38.396C115.692 38.3911 115.691 38.3913 115.661 38.4062C115.654 38.4097 115.647 38.4133 115.638 38.4179C115.629 38.4222 115.618 38.4276 115.607 38.4331C115.584 38.4441 115.556 38.4584 115.524 38.4743L118.207 43.8408L120.89 49.2074C120.907 49.1989 120.915 49.195 120.97 49.168C121.012 49.1473 121.084 49.112 121.164 49.0708L118.423 43.7334ZM118.207 43.8408L115.559 38.4566C115.617 38.4283 115.664 38.4068 115.695 38.3927C115.726 38.3788 115.747 38.3697 115.751 38.368C115.754 38.367 115.753 38.367 115.749 38.3689C115.742 38.3717 115.74 38.3727 115.727 38.3783C115.707 38.3864 115.667 38.4033 115.622 38.4231L118.002 43.9307L120.382 49.4383C120.371 49.4432 120.365 49.4455 120.381 49.439C120.388 49.4358 120.425 49.4205 120.459 49.4058C120.531 49.3752 120.679 49.3115 120.855 49.2251L118.207 43.8408ZM118.002 43.9307L115.594 38.4351C115.575 38.4434 115.558 38.451 115.544 38.4573C115.53 38.4636 115.517 38.4692 115.508 38.4735C115.498 38.4777 115.49 38.4814 115.485 38.4835C115.48 38.4862 115.478 38.4868 115.477 38.4874C115.476 38.4877 115.478 38.4867 115.482 38.485C115.486 38.4833 115.493 38.4803 115.501 38.4766C115.518 38.4693 115.545 38.4573 115.58 38.4426L117.89 43.9805L120.199 49.5183C120.302 49.4753 120.386 49.4373 120.415 49.4241C120.423 49.4205 120.431 49.4169 120.435 49.4153C120.437 49.4143 120.438 49.4137 120.439 49.4132C120.44 49.4128 120.441 49.4127 120.44 49.4127C120.44 49.4128 120.437 49.4142 120.432 49.4164C120.427 49.4186 120.42 49.422 120.41 49.4262L118.002 43.9307ZM117.89 43.9805L115.605 38.4324C115.554 38.4535 115.509 38.473 115.47 38.4897C115.433 38.5064 115.4 38.5211 115.375 38.5326C115.35 38.5441 115.33 38.5535 115.317 38.5594C115.311 38.5624 115.306 38.5648 115.303 38.5664C115.301 38.5671 115.3 38.5678 115.299 38.5682C115.298 38.5684 115.298 38.5686 115.298 38.5687C115.297 38.5689 115.297 38.5689 115.297 38.569C115.297 38.5693 115.298 38.5684 115.301 38.5672C115.303 38.566 115.308 38.5638 115.314 38.5612C115.325 38.5559 115.344 38.5471 115.368 38.5363C115.391 38.5253 115.423 38.5113 115.459 38.4953C115.496 38.4793 115.54 38.4606 115.59 38.4402L117.849 43.999L120.107 49.5578C120.212 49.515 120.297 49.4771 120.35 49.4528C120.377 49.4405 120.4 49.4301 120.414 49.4232C120.428 49.4167 120.44 49.4112 120.441 49.4105C120.446 49.4083 120.439 49.4117 120.431 49.4153C120.422 49.4196 120.405 49.4275 120.384 49.4373C120.342 49.4565 120.268 49.4899 120.174 49.5286L117.89 43.9805ZM117.849 43.999L115.469 38.491C115.406 38.5185 115.363 38.5333 115.341 38.5398L117.109 44.2734L118.877 50.0071C119.363 49.8573 119.815 49.6854 120.228 49.5071L117.849 43.999ZM117.109 44.2734L115.275 38.5608C115.149 38.6013 115.05 38.6206 114.973 38.6293L115.643 44.5918L116.313 50.5543C117.253 50.4486 118.132 50.2469 118.944 49.9861L117.109 44.2734ZM115.643 44.5918V38.5918H115.641V44.5918V50.5918H115.643V44.5918ZM115.641 44.5918L109.655 44.1785C109.581 45.2554 109.198 46.2063 108.521 47.0588L113.222 50.7881L117.922 54.5174C120.029 51.8617 121.377 48.6221 121.626 45.0051L115.641 44.5918ZM113.222 50.7881L108.518 47.0636C108.179 47.4909 107.747 47.9135 107.212 48.3132L110.8 53.1221L114.388 57.931C115.693 56.9569 116.892 55.818 117.926 54.5126L113.222 50.7881ZM110.8 53.1221V59.1221H112.031V53.1221V47.1221H110.8V53.1221ZM112.031 53.1221L112.031 59.1221C111.36 59.122 110.869 58.9849 110.629 58.9037C110.379 58.819 110.244 58.7417 110.243 58.7411C110.235 58.7364 110.294 58.7696 110.427 58.866C110.557 58.9604 110.732 59.0966 110.955 59.2857C111.891 60.0793 113.26 61.4494 115.118 63.5609C118.804 67.7516 123.928 74.3029 130.639 83.5599L135.497 80.0381L140.355 76.5163C133.567 67.1537 128.185 60.2471 124.127 55.6347C122.113 53.3448 120.3 51.477 118.716 50.1332C117.928 49.4649 117.058 48.8079 116.138 48.2889C115.337 47.8368 113.868 47.1223 112.032 47.1221L112.031 53.1221ZM135.497 80.0381L130.64 83.5611C145.623 104.217 161.412 115.994 162.146 116.537L165.714 111.713L169.281 106.889C169.071 106.733 154.342 95.7985 140.354 76.5151L135.497 80.0381ZM165.714 111.713L164.412 117.57L164.43 117.574L165.731 111.717L167.033 105.86L167.015 105.856L165.714 111.713ZM165.731 111.717L161.678 116.14C164.208 118.459 167.24 120.029 169.973 121.188C172.687 122.337 175.603 123.274 177.815 124.036C180.278 124.884 181.79 125.491 182.678 126.05C183.538 126.59 182.399 126.162 182.399 124.638H188.399H194.399C194.399 120.058 191.328 117.313 189.064 115.89C186.829 114.485 184.025 113.483 181.722 112.69C179.168 111.811 176.867 111.076 174.655 110.138C172.462 109.209 170.859 108.277 169.785 107.293L165.731 111.717ZM188.399 124.638L182.407 124.931C182.406 124.927 182.591 128.695 182.812 134.262C183.033 139.832 183.29 147.184 183.437 154.354L189.436 154.231L195.434 154.109C195.138 139.572 194.394 124.372 194.392 124.344L188.399 124.638ZM189.436 154.231L183.441 154.485C183.769 162.249 183.869 170.295 183.311 174.869L189.267 175.596L195.222 176.323C195.917 170.631 195.754 161.639 195.43 153.978L189.436 154.231ZM189.267 175.596L183.283 175.15C183.242 175.701 183.198 176.174 183.152 176.573C183.105 176.977 183.06 177.266 183.024 177.457C182.982 177.675 182.974 177.644 183.037 177.467C183.071 177.374 183.158 177.146 183.325 176.851C183.412 176.698 183.536 176.499 183.706 176.276C183.875 176.055 184.114 175.778 184.437 175.495L188.399 180L192.362 184.505C193.652 183.371 194.163 181.989 194.324 181.542C194.56 180.888 194.71 180.237 194.811 179.705C195.017 178.624 195.153 177.349 195.25 176.041L189.267 175.596ZM188.399 180L184.437 175.495C185.02 174.982 185.425 174.92 185.048 175.044C184.789 175.129 184.331 175.245 183.641 175.365C182.266 175.602 180.498 175.765 178.645 175.867C176.822 175.967 175.056 176.001 173.736 176.009C173.079 176.013 172.54 176.011 172.17 176.008C171.985 176.007 171.842 176.005 171.748 176.003C171.701 176.003 171.666 176.002 171.645 176.002C171.634 176.001 171.626 176.001 171.622 176.001C171.62 176.001 171.618 176.001 171.618 176.001C171.618 176.001 171.618 176.001 171.618 176.001C171.618 176.001 171.618 176.001 171.618 176.001C171.619 176.001 171.619 176.001 171.499 182C171.379 187.999 171.379 187.999 171.38 187.999C171.38 187.999 171.381 187.999 171.381 187.999C171.382 187.999 171.384 187.999 171.385 187.999C171.388 187.999 171.392 187.999 171.397 187.999C171.406 187.999 171.419 188 171.436 188C171.468 188 171.514 188.001 171.572 188.002C171.689 188.004 171.856 188.006 172.067 188.008C172.489 188.011 173.088 188.014 173.813 188.009C175.255 188 177.226 187.963 179.303 187.848C181.35 187.736 183.645 187.542 185.683 187.19C186.699 187.014 187.784 186.777 188.806 186.441C189.708 186.143 191.129 185.59 192.362 184.505L188.399 180ZM171.499 182L177.495 182.218C177.498 182.126 177.502 182.043 177.506 181.927L171.511 181.695L165.515 181.464C165.512 181.552 165.507 181.673 165.503 181.782L171.499 182ZM171.511 181.695L171.235 175.702C169.226 175.794 167.063 175.884 164.766 175.966L164.98 181.962L165.195 187.958C167.535 187.874 169.738 187.783 171.786 187.689L171.511 181.695ZM164.98 181.962L159.607 184.631C159.598 184.613 159.591 184.599 159.588 184.592C159.585 184.587 159.583 184.582 159.585 184.587C159.586 184.589 159.592 184.601 159.598 184.614C159.605 184.628 159.615 184.649 159.628 184.674L164.999 182L170.37 179.326C170.379 179.344 170.387 179.359 170.39 179.367C170.394 179.374 170.396 179.379 170.394 179.375C170.394 179.374 170.392 179.371 170.39 179.367C170.388 179.363 170.386 179.357 170.382 179.35C170.376 179.337 170.366 179.317 170.354 179.293L164.98 181.962ZM164.999 182L164.828 176.002L147.328 176.502L147.499 182.5L147.67 188.498L165.17 187.998L164.999 182ZM147.499 182.5L153.454 183.23C153.458 183.204 153.46 183.182 153.462 183.166C153.464 183.151 153.465 183.138 153.466 183.133C153.466 183.126 153.466 183.129 153.466 183.132C153.465 183.136 153.464 183.147 153.462 183.161L147.506 182.44L141.549 181.719C141.546 181.744 141.544 181.765 141.542 181.779C141.541 181.792 141.54 181.804 141.539 181.807C141.539 181.812 141.539 181.809 141.54 181.804C141.54 181.798 141.542 181.786 141.544 181.77L147.499 182.5ZM147.506 182.44L147.379 176.442C111.168 177.206 59.5945 177.141 31.6484 176.363L31.4814 182.36L31.3145 188.358C59.4943 189.143 111.268 189.206 147.632 188.439L147.506 182.44ZM31.4814 182.36L25.531 183.13C25.5309 183.129 25.5311 183.13 25.5318 183.137C25.5328 183.144 25.5335 183.15 25.5354 183.165C25.5382 183.188 25.5443 183.238 25.5517 183.293L31.499 182.5L37.4464 181.707C37.4478 181.718 37.4483 181.722 37.4453 181.698C37.4434 181.682 37.4379 181.637 37.4319 181.591L31.4814 182.36ZM31.499 182.5L31.4689 176.5C31.4758 176.5 27.4353 176.52 23.0481 176.383C20.8464 176.314 18.6349 176.208 16.8338 176.048C15.9296 175.969 15.2029 175.882 14.6697 175.794C14.0094 175.685 14.035 175.636 14.3718 175.781L11.999 181.292L9.62624 186.803C10.7122 187.27 11.9082 187.501 12.7223 187.635C13.6635 187.79 14.7155 187.908 15.7773 188.002C17.9082 188.19 20.3782 188.305 22.6727 188.377C27.2779 188.521 31.4889 188.5 31.5291 188.5L31.499 182.5ZM11.999 181.292L14.3729 175.782C14.8644 175.993 15.24 176.249 15.5042 176.463L11.7236 181.122L7.94304 185.781C8.37897 186.135 8.93676 186.506 9.62513 186.802L11.999 181.292ZM11.7236 181.122L13.7755 175.484C13.8841 175.523 14.1332 175.618 14.4444 175.787C14.7092 175.931 15.3428 176.298 15.9671 176.994L11.5 181L7.03293 185.006C8.16051 186.263 9.5351 186.711 9.67179 186.76L11.7236 181.122ZM11.5 181L15.97 176.998C16.4102 177.489 16.6482 177.936 16.7509 178.145C16.8636 178.375 16.9197 178.54 16.9347 178.585L11.2402 180.476L5.54575 182.366C5.67686 182.761 6.07169 183.932 7.03004 185.002L11.5 181ZM11.2402 180.476L16.6314 177.842C16.7463 178.077 16.7777 178.217 16.7724 178.196C16.7693 178.184 16.749 178.096 16.7273 177.913C16.6824 177.536 16.6569 176.982 16.6716 176.246L10.6729 176.126L4.67406 176.005C4.65258 177.075 4.6793 178.222 4.81148 179.332C4.9347 180.367 5.19192 181.764 5.84902 183.109L11.2402 180.476ZM10.6729 176.126L16.663 175.783C15.9277 162.937 17.9708 128.165 17.9886 127.864L11.999 127.51L6.00948 127.156C6.00537 127.225 5.48124 136.099 5.05325 146.632C4.62985 157.052 4.28256 169.48 4.68266 176.469L10.6729 176.126ZM11.999 127.51H17.999C17.999 128.397 17.3362 128.894 17.6434 128.668C18.3204 128.17 19.5677 127.574 22.2093 126.442C27.1303 124.333 34.6009 121.249 43.0376 114.683L39.3525 109.948L35.6675 105.213C28.5567 110.747 22.3505 113.326 17.4816 115.413C15.2283 116.378 12.5524 117.515 10.5299 119.004C8.13762 120.764 5.99902 123.503 5.99902 127.51H11.999ZM39.3525 109.948L43.7301 114.052L63.4019 93.0652L59.0244 88.9619L54.6469 84.8586L34.975 105.845L39.3525 109.948ZM59.0244 88.9619L63.423 93.0426L64.4259 91.9616L60.0273 87.8809L55.6287 83.8001L54.6258 84.8812L59.0244 88.9619ZM60.0273 87.8809L64.8455 91.4565C65.5298 90.5345 71.6666 82.2997 73.6101 80.2262L69.2324 76.123L64.8548 72.0199C62.3062 74.739 55.6198 83.7519 55.2092 84.3052L60.0273 87.8809ZM69.2324 76.123L73.6097 80.2267C75.8823 77.8025 81.553 71.0792 82.4788 69.9806L77.8906 66.1143L73.3025 62.2479C72.2587 63.4865 66.8519 69.8895 64.8552 72.0194L69.2324 76.123ZM77.8906 66.1143L82.4986 69.957C84.8657 67.1185 87.216 64.41 89.2192 62.2979C90.2232 61.2395 91.0853 60.3888 91.7806 59.7676C92.5679 59.0641 92.8369 58.9326 92.6925 59.0063L89.9648 53.6621L87.2372 48.318C85.9423 48.9789 84.7272 49.9775 83.7852 50.8191C82.7513 51.7429 81.6392 52.8521 80.5126 54.04C78.2546 56.4206 75.7182 59.351 73.2827 62.2715L77.8906 66.1143ZM89.9648 53.6621L93.2323 48.6299C92.4905 48.1482 91.9084 47.6127 91.472 47.0623L86.7705 50.79L82.069 54.5178C83.3788 56.1696 84.9559 57.5636 86.6973 58.6943L89.9648 53.6621ZM86.7705 50.79L92.6398 49.5447C92.5347 49.0492 92.2823 48.1615 91.612 47.2455C90.8353 46.1842 89.2115 44.7881 86.7686 44.7881V50.7881V56.7881C84.327 56.7881 82.704 55.3927 81.928 54.3322C81.2583 53.417 81.0062 52.5303 80.9012 52.0354L86.7705 50.79ZM86.7686 50.7881L91.4718 47.0625C90.7922 46.2047 90.4076 45.2446 90.3368 44.1623L84.3496 44.5537L78.3624 44.9451C78.6005 48.5871 79.9539 51.8482 82.0654 54.5137L86.7686 50.7881ZM84.3496 44.5537L90.0417 42.6563L90.0407 42.6534L84.3486 44.5508L78.6565 46.4481L78.6575 46.4511L84.3496 44.5537ZM84.3486 44.5508L85.2608 38.6205C85.1367 38.6014 84.9762 38.5593 84.776 38.4753L82.4541 44.0078L80.1322 49.5403C81.1186 49.9543 82.2252 50.2947 83.4365 50.481L84.3486 44.5508ZM82.4541 44.0078L84.7045 38.4458C84.6813 38.4364 84.6667 38.4302 84.659 38.4269C84.6514 38.4235 84.6525 38.4239 84.6609 38.4279L82.0684 43.8389L79.4758 49.2498C79.7395 49.3762 79.987 49.4821 80.2037 49.5698L82.4541 44.0078ZM82.0684 43.8389L84.6599 38.4274C84.6978 38.4455 84.7267 38.46 84.7422 38.4679C84.7567 38.4752 84.7657 38.4799 84.7581 38.476C84.7565 38.4751 84.7547 38.4742 84.7517 38.4726C84.749 38.4713 84.7451 38.4692 84.7411 38.4671C84.733 38.4629 84.721 38.4568 84.7072 38.4497C84.6802 38.4358 84.6381 38.4143 84.5877 38.3895L81.9316 43.7695L79.2755 49.1496C79.2477 49.1359 79.2282 49.1259 79.2238 49.1236C79.2214 49.1223 79.2207 49.122 79.2239 49.1236C79.2255 49.1245 79.2273 49.1254 79.2303 49.1269C79.2329 49.1283 79.2368 49.1303 79.2409 49.1324C79.256 49.1403 79.2877 49.1567 79.3251 49.1756C79.3637 49.1951 79.4156 49.221 79.4768 49.2503L82.0684 43.8389ZM81.9316 43.7695L84.5873 38.3893C84.5807 38.386 84.5593 38.3752 84.498 38.343L81.7051 43.6533L78.9121 48.9636C79.0006 49.0102 79.1298 49.0776 79.2759 49.1498L81.9316 43.7695ZM81.7051 43.6533L84.4697 38.3282C84.1296 38.1516 83.9096 38 83.812 37.9279C83.7635 37.8921 83.7468 37.8771 83.7622 37.8901C83.77 37.8967 83.786 37.9105 83.8102 37.9324C83.8223 37.9433 83.8366 37.9563 83.8529 37.9714C83.861 37.979 83.8697 37.9871 83.8789 37.9958C83.8835 38.0001 83.8882 38.0046 83.8931 38.0092C83.8955 38.0115 83.898 38.0139 83.9005 38.0163C83.9017 38.0175 83.903 38.0187 83.9043 38.0199C83.9049 38.0205 83.9058 38.0214 83.9062 38.0217C83.9071 38.0226 83.9081 38.0235 79.7607 42.3594C75.6134 46.6952 75.6144 46.6962 75.6153 46.6971C75.6157 46.6974 75.6166 46.6983 75.6173 46.6989C75.6186 46.7002 75.6199 46.7014 75.6212 46.7027C75.6239 46.7052 75.6266 46.7078 75.6294 46.7104C75.6349 46.7157 75.6405 46.721 75.6464 46.7266C75.6582 46.7376 75.6706 46.7493 75.6839 46.7616C75.7103 46.7862 75.7398 46.8132 75.7722 46.8425C75.8371 46.901 75.914 46.9686 76.003 47.0441C76.1808 47.1948 76.4076 47.3774 76.6835 47.5811C77.2346 47.988 77.9868 48.4833 78.9405 48.9785L81.7051 43.6533ZM79.7607 42.3594C79.9176 48.3573 79.9163 48.3574 79.915 48.3574C79.9146 48.3574 79.9133 48.3574 79.9125 48.3575C79.9107 48.3575 79.909 48.3575 79.9073 48.3576C79.9039 48.3577 79.9005 48.3577 79.897 48.3578C79.8902 48.358 79.8833 48.3581 79.8764 48.3583C79.8625 48.3585 79.8486 48.3587 79.8346 48.3589C79.8066 48.3593 79.7782 48.3594 79.7495 48.3594C79.692 48.3593 79.633 48.3583 79.5725 48.3564C79.4516 48.3526 79.3241 48.3449 79.1908 48.3322C78.9248 48.3067 78.6303 48.2605 78.3157 48.182L79.7676 42.3604L81.2194 36.5387C80.9007 36.4592 80.6027 36.4125 80.3344 36.3868C80.1999 36.3739 80.0714 36.3662 79.95 36.3624C79.8891 36.3604 79.8299 36.3595 79.7722 36.3594C79.7434 36.3593 79.715 36.3595 79.6869 36.3598C79.6729 36.36 79.659 36.3602 79.6451 36.3605C79.6382 36.3606 79.6313 36.3608 79.6245 36.3609C79.621 36.361 79.6176 36.3611 79.6142 36.3612C79.6124 36.3612 79.6107 36.3612 79.609 36.3613C79.6082 36.3613 79.6069 36.3613 79.6065 36.3614C79.6052 36.3614 79.6039 36.3614 79.7607 42.3594ZM79.7676 42.3604L83.56 37.7109C83.5126 37.6722 83.4699 37.6386 83.4336 37.6106C83.3974 37.5826 83.366 37.5591 83.3416 37.541C83.3175 37.523 83.2978 37.5087 83.2858 37.5C83.2797 37.4956 83.2747 37.492 83.2717 37.4899C83.2702 37.4888 83.2689 37.4879 83.2681 37.4873C83.2678 37.487 83.2674 37.4868 83.2672 37.4866C83.2671 37.4866 83.2671 37.4865 83.267 37.4865C83.267 37.4865 83.267 37.4864 83.2669 37.4864C83.2669 37.4864 83.2669 37.4864 83.2669 37.4864C83.2665 37.4861 83.2687 37.4877 83.2714 37.4897C83.2743 37.4918 83.2792 37.4953 83.2852 37.4996C83.297 37.5082 83.3165 37.5224 83.3405 37.5402C83.3647 37.5581 83.3959 37.5815 83.4319 37.6094C83.468 37.6372 83.5105 37.6708 83.5578 37.7094L79.7637 42.3574L75.9695 47.0055C76.0171 47.0443 76.06 47.0781 76.0964 47.1063C76.1328 47.1343 76.1643 47.158 76.1888 47.1762C76.2131 47.1942 76.2329 47.2087 76.245 47.2174C76.2512 47.2219 76.2562 47.2255 76.2593 47.2278C76.2609 47.2289 76.2622 47.2298 76.263 47.2304C76.2634 47.2307 76.2637 47.2309 76.264 47.2311C76.2642 47.2312 76.2643 47.2314 76.2643 47.2314C76.2649 47.2317 76.2626 47.2301 76.26 47.2283C76.2572 47.2262 76.2524 47.2228 76.2464 47.2184C76.2348 47.21 76.2154 47.1959 76.1916 47.1782C76.1675 47.1604 76.1365 47.1371 76.1006 47.1094C76.0647 47.0816 76.0223 47.0482 75.9751 47.0098L79.7676 42.3604ZM79.7637 42.3574L83.5553 37.7073C84.9179 38.8183 85.164 40.4748 84.9044 41.5565C84.6707 42.5301 84.1005 43.0457 83.7058 43.2637L80.8047 38.0117L77.9035 32.7597C75.6347 34.013 73.8624 36.1457 73.2359 38.7554C72.5835 41.4732 73.2462 44.7849 75.972 47.0075L79.7637 42.3574ZM80.8047 38.0117L83.7038 43.2648L91.3835 39.0266L88.4844 33.7734L85.5853 28.5203L77.9056 32.7586L80.8047 38.0117ZM88.4844 33.7734L92.727 29.5308L92.7251 29.5288L88.4824 33.7715L84.2398 38.0141L84.2417 38.0161L88.4844 33.7734ZM88.4824 33.7715L91.3798 39.0256C91.2868 39.0769 91.1465 39.1331 90.9593 39.1635L89.9971 33.2412L89.0348 27.3189C87.8499 27.5114 86.6827 27.9121 85.5851 28.5174L88.4824 33.7715ZM89.9971 33.2412L95.997 33.27C95.9988 32.8917 96.0068 31.5929 96.0068 31.001H90.0068H84.0068C84.0068 31.5546 83.9992 32.7885 83.9971 33.2124L89.9971 33.2412ZM90.0068 31.001L96.0068 31.0011C96.0069 27.538 98.2477 26 99.9952 26L99.9951 20L99.995 14C90.7111 14.0002 84.0071 21.8577 84.0068 31.0008L90.0068 31.001Z" fill="white" mask="url(#path-1-outside-1_1347_13574)"/>
</g>
<path d="M135.518 88.1919H65.8991C65.8991 88.1919 45.7651 104.518 42.5896 107.282C25.4741 122.188 11.9991 120.845 11.9991 127.509C11.9991 127.509 9 178.208 11.5 181C14 183.792 184.399 183.792 187.999 180C191.599 176.208 188.399 137.192 188.399 137.192L135.518 88.1919Z" fill="#4B9AE8"/>
<path d="M31.5 182.5C31.0785 179.34 29.8363 166.719 36.8043 156.64C38.8378 153.7 36.6473 149.427 47.9808 132.14C51.0973 127.387 62.9358 117.793 66.1648 114.069C69.3938 110.345 72.6478 97.3793 72.6478 97.3793L65.2488 97.2373C65.2488 97.2373 61.0298 108.38 57.5948 110.1C48.4463 114.681 38.9648 125.397 37.1763 128.475C34.6873 132.752 18.3508 155.116 15.4693 159.854L12.0003 165.612C12.0003 165.612 9.00033 180 12.0003 181.292C15.0003 182.583 31.5 182.5 31.5 182.5ZM165.733 111.717L120.54 102.108L126.91 120.355L137.185 125.427C143.536 129.523 151.371 131.846 152.39 143.39C152.665 146.487 150.479 157.512 148.691 164.269C147.186 169.948 148.337 175.67 147.5 182.5L165 182C161.458 174.885 159.329 165.68 159.382 164.637C159.461 163.122 160.916 148.844 161.734 140.832C165.488 147.585 172.034 159.888 172.269 163.931C172.451 167.062 171.721 175.949 171.5 182C171.5 182 185.8 182.287 188.4 180C191 177.713 188.4 124.638 188.4 124.638C188.4 118.528 172.941 118.322 165.733 111.717ZM88.7588 147.707C86.1863 154.062 87.5778 154.067 87.2593 157.992C86.6078 165.999 90.9738 170.992 90.9738 170.992C90.9738 170.992 94.2518 164.235 94.1833 161.54C93.8548 149.319 98.9118 144.997 98.2648 141.705C98.2598 141.7 91.3313 141.357 88.7588 147.707ZM64.5283 152.607C66.0033 150.108 70.0358 149.946 72.2703 146.021C74.5048 142.101 74.4558 135.325 76.7978 128.225C79.1398 121.125 89.5773 116.666 89.5773 116.666C89.5773 116.666 80.7768 104.254 73.6863 112.682C67.6008 119.919 68.6343 133.183 67.9043 136.824C67.1743 140.465 58.9278 151.201 58.9278 151.201C58.9278 151.201 57.1588 162.873 57.5113 166.126C57.8593 169.39 61.6813 157.429 64.5283 152.607ZM126.107 144.586C124.259 141.597 120.898 137.77 120.271 134.227C119.545 130.131 119.276 127.989 117.909 127.47C116.542 126.951 114.072 128.048 112.244 130.498C110.544 132.777 111.941 139.451 111.941 139.451C111.941 139.451 116.066 143.028 118.678 144.674C120.903 146.075 122.417 159.438 122.853 161.001C123.284 162.564 127.954 147.575 126.107 144.586Z" fill="#2D78C3"/>
<path d="M90.7083 53.4315C86.9748 53.4315 66.2038 80.8075 66.2038 80.8075L65.4343 82.062L39.4053 110.085C39.4053 110.085 40.5913 113.696 42.8258 116.288C46.4078 120.439 52.9148 112.814 57.3443 111.374C64.4643 109.061 62.1268 122.065 66.7278 122.59C72.9608 123.3 79.3943 111.888 83.9318 112.251C88.4693 112.613 93.5013 125.236 98.3233 125.236C105.516 125.236 104.737 115.695 114.591 115.695C119.261 115.695 120.182 121.169 126.91 120.36C132.167 119.728 139.753 108.581 142.261 107.635C147.896 105.513 155.001 114.72 159.176 114.279C163.346 113.838 162.386 113.373 162.386 113.373L107.917 53.1225H104.762C102.243 53.1225 101.155 53 98.2693 53C96.3288 53 91.7573 53.4315 90.7083 53.4315Z" fill="#D7E8FC"/>
<path d="M89.0337 70.0325C89.0337 70.0325 80.0272 87.099 79.1112 89.8725C78.1952 92.646 76.0242 101.863 76.0242 101.863C76.0242 101.863 80.3657 98.977 81.8357 96.772C83.3057 94.567 85.5692 87.4325 87.2157 84.649C88.8622 81.866 91.8852 78.936 93.0272 76.829C94.1687 74.722 93.7182 64.334 93.7182 64.334L89.0337 70.0325ZM69.2327 76.123C66.8857 78.627 59.9912 87.932 59.9912 87.932L39.3232 109.982C39.3232 109.982 41.9202 117.45 45.0612 117.533C48.2022 117.616 49.4222 110.276 49.5052 106.802C49.5887 103.328 58.9572 97.5705 60.1237 94.2385C61.2902 90.9065 65.2637 89.7895 67.7577 86.805C70.2517 83.821 70.6437 79.72 74.0837 76.432C82.8107 68.092 78.0427 65.936 78.0427 65.936C78.0427 65.936 71.5797 73.6195 69.2327 76.123ZM106.056 95.4635C105.552 90.005 100.671 77.8625 100.671 77.8625C100.671 77.8625 98.7012 88.4175 98.5102 91.955C98.3192 95.4925 99.4462 99.849 100.505 103.73C101.558 107.61 104.508 112.741 104.508 112.741C104.508 112.741 106.561 100.927 106.056 95.4635Z" fill="#8DB6E5"/>
<path d="M112.032 53.1221H105.191C104.26 53.1221 106.01 58.8161 105.289 63.1331C104.5 67.8566 114.212 78.1561 116.26 89.1371C116.746 91.7341 119.769 105.415 122.89 112.927C125.82 119.983 126.903 120.365 126.903 120.365C126.903 120.365 136.561 119.263 140.829 109.957C143.338 104.484 161.772 122.114 165.726 111.721C165.726 111.721 150.213 100.324 135.498 80.0381C121.998 61.4181 114.487 53.1221 112.032 53.1221Z" fill="#D7E8FC"/>
<path d="M121.215 85.6142C121.989 89.2842 124.449 91.6117 124.135 99.4812C123.831 107.12 139.07 113.319 137.63 114.759C132.583 119.816 126.909 120.36 126.909 120.36C125.262 119.483 120.47 111.187 119.382 106.483C118.294 101.779 116.33 87.8782 115.011 85.0262C113.693 82.1697 110.856 78.7687 109.283 75.4517C107.71 72.1342 107.24 69.3462 107.24 69.3462C107.24 69.3462 111.954 71.1837 115.163 73.9327C118.383 76.6817 120.441 81.9392 121.215 85.6142Z" fill="#8DB6E5"/>
<path d="M88.4851 33.7737L80.8051 38.0122C78.9309 39.0475 78.4008 41.2459 79.7641 42.3574C81.8919 44.0944 85.2685 45.7627 89.1219 43.6368C92.3403 41.8617 93.4156 38.8016 93.6749 36.1494C93.9209 33.6574 91.059 32.3514 88.4831 33.7718L88.4851 33.7737Z" fill="#276286"/>
<path opacity="0.5" d="M93.623 35.2549C93.8842 36.4294 93.2417 38.6678 92.8318 39.5448C91.8289 41.6936 90.2197 43.4096 88.0442 44.1417C85.8382 44.8834 83.6246 44.5841 82.0688 43.8386C80.532 43.1026 79.7617 42.359 79.7617 42.359C79.7617 42.359 82.9763 43.1713 85.0584 42.8929C87.1423 42.6126 89.6305 41.4877 91.0738 39.7031C92.5172 37.9204 92.9462 36.6963 93.6211 35.2549H93.623Z" fill="#14465D"/>
<path d="M109.521 58.3901C109.521 59.0841 108.953 59.6523 108.259 59.6523H104.94C104.413 59.6523 103.984 59.2233 103.984 58.699V48.2487C103.984 47.7225 104.413 47.2935 104.94 47.2935H105.003C105.529 47.2935 105.958 47.7225 105.958 48.2487V57.6027L108.259 57.1279C108.604 57.1279 108.921 57.269 109.151 57.4978C109.378 57.7266 109.521 58.0412 109.521 58.3901Z" fill="#474747"/>
<path d="M96.0975 48.2492V58.6995C96.0975 59.2239 95.6685 59.6529 95.1442 59.6529H91.8247C91.1307 59.6529 90.5625 59.0847 90.5625 58.3907C90.5625 58.0436 90.7055 57.7271 90.9343 57.4984C91.1631 57.2696 91.4777 57.1285 91.8266 57.1285L94.1279 57.6051V48.2492C94.1279 47.7249 94.5569 47.2959 95.0812 47.2959H95.1461C95.6704 47.2959 96.0994 47.7249 96.0994 48.2492H96.0975Z" fill="#474747"/>
<path d="M115.669 43.7854C115.669 44.0371 115.659 44.2887 115.646 44.5328C115.644 44.5538 115.642 44.5728 115.642 44.5919C115.48 46.939 114.614 49.0344 113.222 50.7885C111.497 52.9678 108.961 54.6151 105.958 55.5494C105.321 55.7515 104.661 55.9174 103.985 56.0527C103.054 56.2377 102.091 56.3559 101.102 56.4055C100.903 56.4169 100.703 56.4245 100.503 56.4283C100.335 56.4302 100.166 56.4321 99.9959 56.4321C99.8262 56.4321 99.6584 56.4302 99.4906 56.4283C98.3238 56.4016 97.1874 56.2796 96.0987 56.0718C95.4238 55.9421 94.7641 55.7782 94.1272 55.5799C91.0823 54.6475 88.516 52.9907 86.7714 50.7904C86.7714 50.7904 86.7714 50.7885 86.7695 50.7885C85.3738 49.0267 84.5044 46.9161 84.35 44.5538C84.35 44.5385 84.3481 44.5194 84.3462 44.5023C84.3328 44.2659 84.3252 44.0275 84.3252 43.7854C84.3252 43.5032 84.3347 43.2229 84.3538 42.9465C84.6264 39.0969 86.7657 35.6821 89.9975 33.3637V33.2435C89.9994 32.8451 90.007 31.5752 90.007 31.0013C90.007 24.698 94.48 20 99.9959 20C100.187 20 100.377 20.0038 100.566 20.0191C105.819 20.3279 109.987 24.9172 109.987 31.0013C109.987 31.6858 109.785 33.0643 109.687 33.152C109.71 33.1654 109.731 33.1787 109.748 33.1902C109.916 33.2969 109.994 33.3637 109.994 33.3637C113.226 35.6745 115.363 39.0855 115.638 42.9331C115.659 43.2153 115.67 43.4994 115.67 43.7854H115.669Z" fill="#4B9AE8"/>
<path d="M101.898 30.7917C101.78 31.7031 100.773 33.1807 99.7282 33.1884C98.6833 33.196 97.5794 31.6974 97.5279 30.7155C97.4764 29.7354 98.2105 29.0643 99.7701 29.0548C101.347 29.0452 102.016 29.8803 101.898 30.7917Z" fill="#EAC00F"/>
<path opacity="0.5" d="M101.899 30.7917C101.781 31.7012 100.776 33.1807 99.7292 33.1884C99.5652 33.1884 99.3993 33.1541 99.2354 33.0854C100.09 32.7346 100.822 31.5601 100.923 30.7917C101.028 29.9814 100.509 29.2321 99.283 29.0815C99.4355 29.0662 99.5976 29.0567 99.7692 29.0548C101.348 29.0452 102.015 29.8823 101.897 30.7917H101.899Z" fill="#AF8F0C"/>
<path d="M105.204 30.0251C106.352 30.0251 107.282 29.0947 107.282 27.9469C107.282 26.7991 106.352 25.8687 105.204 25.8687C104.056 25.8687 103.126 26.7991 103.126 27.9469C103.126 29.0947 104.056 30.0251 105.204 30.0251Z" fill="white"/>
<path d="M105.204 29.0549C105.816 29.0549 106.312 28.5589 106.312 27.9471C106.312 27.3353 105.816 26.8394 105.204 26.8394C104.593 26.8394 104.097 27.3353 104.097 27.9471C104.097 28.5589 104.593 29.0549 105.204 29.0549Z" fill="#040000"/>
<path d="M94.3097 30.0251C95.4575 30.0251 96.3879 29.0947 96.3879 27.9469C96.3879 26.7991 95.4575 25.8687 94.3097 25.8687C93.1619 25.8687 92.2314 26.7991 92.2314 27.9469C92.2314 29.0947 93.1619 30.0251 94.3097 30.0251Z" fill="white"/>
<path d="M94.3099 29.0549C94.9217 29.0549 95.4177 28.5589 95.4177 27.9471C95.4177 27.3353 94.9217 26.8394 94.3099 26.8394C93.6981 26.8394 93.2021 27.3353 93.2021 27.9471C93.2021 28.5589 93.6981 29.0549 94.3099 29.0549Z" fill="#040000"/>
<path d="M120.513 42.3589H120.511C120.511 42.3589 120.507 42.3666 120.503 42.3685C119.929 42.8337 119.268 43.2932 118.53 43.6783C118.496 43.6974 118.459 43.7146 118.423 43.7336C118.353 43.7699 118.28 43.8042 118.208 43.8404C118.091 43.8976 117.971 43.9491 117.849 43.9986C117.611 44.1016 117.363 44.195 117.11 44.2732C116.64 44.4238 116.152 44.5344 115.643 44.5916C115.172 44.6469 114.688 44.6545 114.189 44.605C113.559 44.5478 112.903 44.401 112.232 44.1416C111.88 44.0082 111.521 43.8385 111.157 43.6383C110.4 43.2207 109.761 42.7307 109.224 42.1911H109.222C108.429 41.3923 107.855 40.4923 107.449 39.5504C107.449 39.5485 107.447 39.5466 107.447 39.5428C107.435 39.5199 107.424 39.4952 107.414 39.4704C107.38 39.3884 107.346 39.3064 107.311 39.2244C107.309 39.2225 107.309 39.2168 107.309 39.2149C107.277 39.131 107.246 39.0452 107.214 38.9594C107.21 38.9499 107.206 38.9441 107.205 38.9365C106.875 38.0042 106.69 37.0508 106.602 36.1471C106.6 36.128 106.6 36.1109 106.598 36.0918C106.573 35.8001 106.594 35.5274 106.65 35.27C106.652 35.2624 106.652 35.2567 106.653 35.2491C106.858 34.3568 107.515 33.7028 108.389 33.3882C108.802 33.2376 109.264 33.167 109.748 33.1842C110.408 33.207 111.109 33.392 111.792 33.7695L112.499 34.1604L119.474 38.008C121.348 39.0433 121.878 41.2416 120.513 42.3532V42.3589Z" fill="#276286"/>
<path opacity="0.5" d="M106.653 35.2549C106.392 36.4294 107.035 38.6678 107.445 39.5448C108.448 41.6936 110.057 43.4096 112.232 44.1417C114.438 44.8834 116.652 44.5841 118.208 43.8386C119.744 43.1026 120.515 42.359 120.515 42.359C120.515 42.359 117.3 43.1713 115.218 42.8929C113.134 42.6126 110.646 41.4877 109.203 39.7031C107.759 37.9204 107.33 36.6963 106.655 35.2549H106.653Z" fill="#14465D"/>
</svg>
