<svg width="200" height="200" viewBox="0 0 200 200" fill="none" xmlns="http://www.w3.org/2000/svg">
<mask id="path-1-outside-1_1062_19266" maskUnits="userSpaceOnUse" x="44" y="16" width="113" height="169" fill="black">
<rect fill="white" x="44" y="16" width="113" height="169"/>
<path d="M89.3847 24.6044C95.142 21.4796 105.152 21.0364 115.735 23.9862C119.218 24.9556 122.459 26.208 125.356 27.6532C126.081 28.0142 126.783 28.3876 127.463 28.7714C127.667 28.8869 127.87 29.0035 128.07 29.121C133.951 32.5651 138.009 36.8063 139.174 40.8866C139.597 42.3659 139.641 43.8236 139.254 45.2137C139.219 45.3396 139.179 45.4637 139.138 45.5868L137.103 52.8944C136.253 55.9503 133.447 58.2079 129.402 59.5301C130.554 63.2311 131.008 66.8808 130.998 70.2479C130.999 70.3633 131.002 70.4788 131.002 70.5946C131.002 70.8008 130.994 71.0277 130.983 71.2694C130.93 73.76 130.764 75.4766 130.149 77.1503C130.742 77.5224 131.024 77.753 131.028 77.7567C137.974 82.7275 143.253 89.3732 146.036 96.9784C146.575 97.0307 147.101 97.1377 147.601 97.2967C148.332 97.5297 148.979 97.8723 149.51 98.2928C150.034 98.7198 150.428 99.2182 150.661 99.7616C150.894 100.299 150.959 100.868 150.849 101.431L150.06 105.61C150.055 105.611 150.051 105.612 150.047 105.613L138.936 164.271C138.489 166.555 137.214 168.716 135.234 170.554C133.255 172.391 130.641 173.841 127.639 174.76H127.652C119.073 177.561 109.724 179.003 100.271 178.977C90.8124 178.952 81.4823 177.464 72.9355 174.617C70.0049 173.685 67.4625 172.243 65.541 170.425C63.6194 168.607 62.3967 166.477 61.9697 164.232L50.8349 105.559C50.8336 105.559 50.8323 105.559 50.831 105.558L50.0478 101.431C49.9573 100.938 49.9952 100.441 50.1621 99.9647C50.1853 99.8961 50.2109 99.8275 50.2392 99.7596C50.3848 99.4201 50.5934 99.0979 50.8574 98.8016C51.0156 98.6229 51.1947 98.4529 51.3935 98.2928C51.9239 97.8724 52.5708 97.5296 53.3017 97.2967C53.9675 97.0846 54.682 96.9641 55.4101 96.9442C58.1969 89.357 63.469 82.726 70.3984 77.7635C70.3984 77.7635 70.4098 74.8106 70.417 72.4833C67.0548 71.639 63.4733 69.3011 63.2246 66.8817C62.8946 63.6726 68.3487 59.389 72.1142 59.0008C72.1491 58.9973 72.1839 58.9943 72.2187 58.9911C74.312 52.5369 78.1229 47.1294 83.0371 43.3212C82.2049 41.3957 81.9823 39.4839 82.4834 37.6835L84.625 29.9969C85.2511 27.7495 86.9326 25.9337 89.3847 24.6044Z"/>
</mask>
<path d="M89.3847 24.6044C95.142 21.4796 105.152 21.0364 115.735 23.9862C119.218 24.9556 122.459 26.208 125.356 27.6532C126.081 28.0142 126.783 28.3876 127.463 28.7714C127.667 28.8869 127.87 29.0035 128.07 29.121C133.951 32.5651 138.009 36.8063 139.174 40.8866C139.597 42.3659 139.641 43.8236 139.254 45.2137C139.219 45.3396 139.179 45.4637 139.138 45.5868L137.103 52.8944C136.253 55.9503 133.447 58.2079 129.402 59.5301C130.554 63.2311 131.008 66.8808 130.998 70.2479C130.999 70.3633 131.002 70.4788 131.002 70.5946C131.002 70.8008 130.994 71.0277 130.983 71.2694C130.93 73.76 130.764 75.4766 130.149 77.1503C130.742 77.5224 131.024 77.753 131.028 77.7567C137.974 82.7275 143.253 89.3732 146.036 96.9784C146.575 97.0307 147.101 97.1377 147.601 97.2967C148.332 97.5297 148.979 97.8723 149.51 98.2928C150.034 98.7198 150.428 99.2182 150.661 99.7616C150.894 100.299 150.959 100.868 150.849 101.431L150.06 105.61C150.055 105.611 150.051 105.612 150.047 105.613L138.936 164.271C138.489 166.555 137.214 168.716 135.234 170.554C133.255 172.391 130.641 173.841 127.639 174.76H127.652C119.073 177.561 109.724 179.003 100.271 178.977C90.8124 178.952 81.4823 177.464 72.9355 174.617C70.0049 173.685 67.4625 172.243 65.541 170.425C63.6194 168.607 62.3967 166.477 61.9697 164.232L50.8349 105.559C50.8336 105.559 50.8323 105.559 50.831 105.558L50.0478 101.431C49.9573 100.938 49.9952 100.441 50.1621 99.9647C50.1853 99.8961 50.2109 99.8275 50.2392 99.7596C50.3848 99.4201 50.5934 99.0979 50.8574 98.8016C51.0156 98.6229 51.1947 98.4529 51.3935 98.2928C51.9239 97.8724 52.5708 97.5296 53.3017 97.2967C53.9675 97.0846 54.682 96.9641 55.4101 96.9442C58.1969 89.357 63.469 82.726 70.3984 77.7635C70.3984 77.7635 70.4098 74.8106 70.417 72.4833C67.0548 71.639 63.4733 69.3011 63.2246 66.8817C62.8946 63.6726 68.3487 59.389 72.1142 59.0008C72.1491 58.9973 72.1839 58.9943 72.2187 58.9911C74.312 52.5369 78.1229 47.1294 83.0371 43.3212C82.2049 41.3957 81.9823 39.4839 82.4834 37.6835L84.625 29.9969C85.2511 27.7495 86.9326 25.9337 89.3847 24.6044Z" fill="#8CA4B8"/>
<path d="M89.3847 24.6044L92.2442 29.8791L92.2468 29.8777L89.3847 24.6044ZM115.735 23.9862L114.124 29.7659L114.127 29.7665L115.735 23.9862ZM125.356 27.6532L122.679 33.0225L122.679 33.0228L125.356 27.6532ZM127.463 28.7714L130.413 23.5467L130.412 23.5462L127.463 28.7714ZM128.07 29.121L125.037 34.2978L125.038 34.2984L128.07 29.121ZM139.174 40.8866L133.404 42.5342L133.406 42.5381L139.174 40.8866ZM139.254 45.2137L145.034 46.824L145.034 46.824L139.254 45.2137ZM139.138 45.5868L133.454 43.6651L133.401 43.8198L133.358 43.9771L139.138 45.5868ZM137.103 52.8944L131.322 51.2847L131.322 51.2872L137.103 52.8944ZM129.402 59.5301L127.538 53.8272L121.916 55.6653L123.673 61.3131L129.402 59.5301ZM130.998 70.2479L124.998 70.2307L124.998 70.2651L124.998 70.2995L130.998 70.2479ZM131.002 70.5946L137.002 70.5946L137.002 70.5946L131.002 70.5946ZM130.983 71.2694L124.99 70.9945L124.986 71.0681L124.985 71.1417L130.983 71.2694ZM130.149 77.1503L124.517 75.0833L122.842 79.6468L126.959 82.2316L130.149 77.1503ZM131.028 77.7567L127.212 82.3864L127.37 82.5166L127.536 82.6359L131.028 77.7567ZM146.036 96.9784L140.402 99.0407L141.699 102.585L145.456 102.95L146.036 96.9784ZM147.601 97.2967L149.422 91.5799L149.422 91.5798L147.601 97.2967ZM149.51 98.2928L153.3 93.6415L153.269 93.616L153.237 93.5909L149.51 98.2928ZM150.661 99.7616L145.146 102.125L145.151 102.137L145.157 102.149L150.661 99.7616ZM150.849 101.431L144.96 100.28L144.956 100.299L144.953 100.317L150.849 101.431ZM150.06 105.61L151.747 111.368L155.274 110.335L155.955 106.723L150.06 105.61ZM150.047 105.613L148.36 99.8551L144.835 100.888L144.152 104.496L150.047 105.613ZM138.936 164.271L144.824 165.422L144.827 165.405L144.831 165.388L138.936 164.271ZM135.234 170.554L139.316 174.951L139.316 174.951L135.234 170.554ZM127.639 174.76L125.883 169.022L127.639 180.76V174.76ZM127.652 174.76L129.515 180.463L127.652 168.76V174.76ZM100.271 178.977L100.255 184.977L100.255 184.977L100.271 178.977ZM72.9355 174.617L74.8316 168.925L74.7925 168.912L74.7532 168.899L72.9355 174.617ZM65.541 170.425L61.4174 174.783L61.4175 174.783L65.541 170.425ZM61.9697 164.232L56.0749 165.351L56.0754 165.353L61.9697 164.232ZM50.8349 105.559L56.7297 104.441L56.0293 100.75L52.4035 99.7681L50.8349 105.559ZM50.831 105.558L44.9362 106.677L45.6364 110.368L49.2623 111.35L50.831 105.558ZM50.0478 101.431L44.1467 102.515L44.1498 102.532L44.153 102.549L50.0478 101.431ZM50.1621 99.9647L55.8245 101.949L55.8351 101.919L55.8453 101.888L50.1621 99.9647ZM50.2392 99.7596L44.7245 97.3957L44.7125 97.4237L44.7008 97.4519L50.2392 99.7596ZM50.8574 98.8016L55.3375 102.793L55.3438 102.786L55.3501 102.779L50.8574 98.8016ZM51.3935 98.2928L47.6665 93.5908L47.6489 93.6047L47.6315 93.6188L51.3935 98.2928ZM53.3017 97.2967L51.4804 91.5799L51.4801 91.58L53.3017 97.2967ZM55.4101 96.9442L55.5741 102.942L59.6399 102.831L61.0422 99.0129L55.4101 96.9442ZM70.3984 77.7635L73.8918 82.6416L76.3865 80.8551L76.3984 77.7867L70.3984 77.7635ZM70.417 72.4833L76.4169 72.5017L76.4314 67.8072L71.8782 66.6639L70.417 72.4833ZM63.2246 66.8817L69.1931 66.2682L69.1931 66.268L63.2246 66.8817ZM72.1142 59.0008L71.4992 53.0325L71.4989 53.0325L72.1142 59.0008ZM72.2187 58.9911L72.7718 64.9655L76.7068 64.6013L77.926 60.8421L72.2187 58.9911ZM83.0371 43.3212L86.7124 48.0637L90.391 45.213L88.5447 40.9409L83.0371 43.3212ZM82.4834 37.6835L76.7035 36.0731L76.7031 36.0747L82.4834 37.6835ZM84.625 29.9969L90.4048 31.6073L90.4049 31.6072L84.625 29.9969ZM89.3847 24.6044L92.2468 29.8777C96.0678 27.8039 104.276 27.0209 114.124 29.7659L115.735 23.9862L117.346 18.2065C106.028 15.0519 94.2162 15.1553 86.5226 19.331L89.3847 24.6044ZM115.735 23.9862L114.127 29.7665C117.254 30.637 120.135 31.7541 122.679 33.0225L125.356 27.6532L128.034 22.2839C124.782 20.6618 121.182 19.2741 117.344 18.2059L115.735 23.9862ZM125.356 27.6532L122.679 33.0228C123.312 33.3381 123.923 33.6634 124.514 33.9965L127.463 28.7714L130.412 23.5462C129.643 23.1119 128.849 22.6903 128.034 22.2836L125.356 27.6532ZM127.463 28.7714L124.513 33.996C124.687 34.0943 124.861 34.1949 125.037 34.2978L128.07 29.121L131.103 23.9441C130.878 23.8122 130.648 23.6795 130.413 23.5467L127.463 28.7714ZM128.07 29.121L125.038 34.2984C130.409 37.4441 132.868 40.655 133.404 42.5342L139.174 40.8866L144.943 39.239C143.149 32.9576 137.493 27.6862 131.102 23.9435L128.07 29.121ZM139.174 40.8866L133.406 42.5381C133.566 43.0992 133.525 43.4192 133.474 43.6035L139.254 45.2137L145.034 46.824C145.757 44.2281 145.628 41.6327 144.942 39.2351L139.174 40.8866ZM139.254 45.2137L133.474 43.6035C133.476 43.5963 133.476 43.597 133.473 43.6076C133.469 43.6183 133.463 43.6366 133.454 43.6651L139.138 45.5868L144.822 47.5085C144.885 47.3213 144.96 47.0877 145.034 46.824L139.254 45.2137ZM139.138 45.5868L133.358 43.9771L131.322 51.2847L137.103 52.8944L142.883 54.5041L144.918 47.1965L139.138 45.5868ZM137.103 52.8944L131.322 51.2872C131.24 51.5795 130.67 52.8031 127.538 53.8272L129.402 59.5301L131.267 65.2331C136.223 63.6126 141.265 60.3212 142.883 54.5016L137.103 52.8944ZM129.402 59.5301L123.673 61.3131C124.626 64.3729 125.006 67.4096 124.998 70.2307L130.998 70.2479L136.998 70.2651C137.009 66.352 136.483 62.0893 135.131 57.7472L129.402 59.5301ZM130.998 70.2479L124.998 70.2995C125.001 70.5828 125.002 70.4781 125.002 70.5946L131.002 70.5946L137.002 70.5946C137.002 70.49 137.001 70.3954 137 70.3326C136.999 70.2573 136.998 70.2297 136.998 70.1963L130.998 70.2479ZM131.002 70.5946H125.002C125.002 70.6678 124.999 70.7908 124.99 70.9945L130.983 71.2694L136.977 71.5443C136.99 71.2646 137.002 70.9338 137.002 70.5946H131.002ZM130.983 71.2694L124.985 71.1417C124.935 73.495 124.773 74.3836 124.517 75.0833L130.149 77.1503L135.782 79.2172C136.754 76.5696 136.926 74.025 136.982 71.3971L130.983 71.2694ZM130.149 77.1503L126.959 82.2316C127.145 82.3485 127.257 82.4274 127.3 82.4581C127.321 82.4734 127.325 82.4767 127.312 82.4667C127.305 82.4617 127.295 82.4533 127.28 82.4414C127.268 82.4322 127.245 82.4134 127.212 82.3864L131.028 77.7567L134.845 73.1271C134.64 72.9582 134.149 72.5769 133.34 72.0689L130.149 77.1503ZM131.028 77.7567L127.536 82.6359C133.604 86.9785 138.074 92.6822 140.402 99.0407L146.036 96.9784L151.671 94.9161C148.431 86.0642 142.344 78.4766 134.52 72.8776L131.028 77.7567ZM146.036 96.9784L145.456 102.95C145.589 102.963 145.698 102.988 145.78 103.014L147.601 97.2967L149.422 91.5798C148.505 91.2877 147.561 91.0983 146.616 91.0065L146.036 96.9784ZM147.601 97.2967L145.779 103.014C145.801 103.021 145.817 103.027 145.829 103.032C145.84 103.036 145.846 103.039 145.847 103.04C145.848 103.04 145.843 103.038 145.832 103.031C145.821 103.024 145.805 103.012 145.783 102.995L149.51 98.2928L153.237 93.5909C152.094 92.685 150.789 92.0155 149.422 91.5799L147.601 97.2967ZM149.51 98.2928L145.72 102.944C145.626 102.868 145.358 102.618 145.146 102.125L150.661 99.7616L156.176 97.398C155.499 95.8182 154.442 94.572 153.3 93.6415L149.51 98.2928ZM150.661 99.7616L145.157 102.149C144.92 101.603 144.831 100.941 144.96 100.28L150.849 101.431L156.737 102.581C157.086 100.795 156.868 98.9936 156.166 97.3741L150.661 99.7616ZM150.849 101.431L144.953 100.317L144.164 104.497L150.06 105.61L155.955 106.723L156.744 102.544L150.849 101.431ZM150.06 105.61L148.372 99.8524C148.456 99.8279 148.53 99.8081 148.593 99.7923C148.655 99.7766 148.709 99.7642 148.75 99.7551C148.77 99.7504 148.789 99.7464 148.804 99.7431C148.82 99.7399 148.833 99.7371 148.843 99.735C148.853 99.733 148.861 99.7313 148.866 99.7304C148.87 99.7295 148.874 99.7288 148.873 99.729C148.873 99.729 148.872 99.729 148.872 99.7291C148.872 99.7292 148.871 99.7293 148.87 99.7294C148.869 99.7297 148.867 99.7302 148.864 99.7307C148.859 99.7318 148.85 99.7335 148.839 99.7357C148.829 99.7379 148.815 99.7408 148.799 99.7442C148.783 99.7476 148.764 99.7517 148.743 99.7565C148.701 99.7659 148.646 99.7785 148.583 99.7944C148.52 99.8104 148.444 99.8304 148.36 99.8551L150.047 105.613L151.734 111.371C151.65 111.396 151.576 111.415 151.514 111.431C151.452 111.447 151.398 111.459 151.357 111.468C151.336 111.473 151.318 111.477 151.303 111.48C151.287 111.483 151.274 111.486 151.264 111.488C151.254 111.49 151.246 111.492 151.241 111.493C151.236 111.494 151.233 111.495 151.234 111.494C151.234 111.494 151.234 111.494 151.234 111.494C151.235 111.494 151.235 111.494 151.236 111.494C151.237 111.494 151.24 111.493 151.242 111.493C151.248 111.492 151.256 111.49 151.267 111.488C151.277 111.485 151.291 111.483 151.307 111.479C151.323 111.476 151.342 111.472 151.363 111.467C151.405 111.458 151.46 111.445 151.523 111.429C151.587 111.413 151.662 111.393 151.747 111.368L150.06 105.61ZM150.047 105.613L144.152 104.496L133.04 163.155L138.936 164.271L144.831 165.388L155.942 106.73L150.047 105.613ZM138.936 164.271L133.047 163.12C132.882 163.962 132.36 165.035 131.153 166.156L135.234 170.554L139.316 174.951C142.068 172.397 144.096 169.149 144.824 165.422L138.936 164.271ZM135.234 170.554L131.153 166.156C129.934 167.287 128.154 168.327 125.883 169.022L127.639 174.76L129.394 180.497C133.127 179.355 136.575 177.495 139.316 174.951L135.234 170.554ZM127.639 174.76V180.76H127.652V174.76V168.76H127.639V174.76ZM127.652 174.76L125.79 169.056C117.844 171.651 109.131 173.002 100.288 172.977L100.271 178.977L100.255 184.977C110.316 185.005 120.302 183.472 129.515 180.463L127.652 174.76ZM100.271 178.977L100.288 172.977C91.4352 172.953 82.742 171.559 74.8316 168.925L72.9355 174.617L71.0394 180.31C80.2225 183.368 90.1896 184.95 100.255 184.977L100.271 178.977ZM72.9355 174.617L74.7532 168.899C72.547 168.198 70.8327 167.171 69.6645 166.066L65.541 170.425L61.4175 174.783C64.0922 177.314 67.4628 179.173 71.1178 180.335L72.9355 174.617ZM65.541 170.425L69.6646 166.066C68.5189 164.982 68.0219 163.941 67.864 163.111L61.9697 164.232L56.0754 165.353C56.7715 169.013 58.72 172.231 61.4174 174.783L65.541 170.425ZM61.9697 164.232L67.8645 163.114L56.7297 104.441L50.8349 105.559L44.9401 106.678L56.0749 165.351L61.9697 164.232ZM50.8349 105.559L52.4035 99.7681C52.3752 99.7604 52.35 99.7538 52.3287 99.7483C52.3074 99.7429 52.2891 99.7383 52.2749 99.7348C52.2609 99.7313 52.2494 99.7285 52.2425 99.7269C52.2389 99.726 52.236 99.7253 52.2342 99.7249C52.2333 99.7246 52.2326 99.7245 52.2321 99.7244C52.2319 99.7243 52.2317 99.7243 52.2315 99.7242C52.2314 99.7242 52.2313 99.7242 52.2313 99.7242C52.231 99.7241 52.2322 99.7244 52.2337 99.7248C52.2353 99.7251 52.2381 99.7258 52.2415 99.7266C52.2481 99.7282 52.2592 99.7309 52.273 99.7343C52.2869 99.7378 52.3048 99.7423 52.3258 99.7476C52.3468 99.753 52.3717 99.7596 52.3997 99.7672L50.831 105.558L49.2623 111.35C49.2907 111.357 49.3159 111.364 49.3372 111.37C49.3585 111.375 49.3768 111.38 49.391 111.383C49.4051 111.387 49.4165 111.389 49.4235 111.391C49.427 111.392 49.4299 111.393 49.4317 111.393C49.4326 111.393 49.4334 111.393 49.4339 111.394C49.4341 111.394 49.4343 111.394 49.4344 111.394C49.4345 111.394 49.4346 111.394 49.4346 111.394C49.4349 111.394 49.4337 111.394 49.4322 111.393C49.4306 111.393 49.4279 111.392 49.4245 111.391C49.4178 111.39 49.4067 111.387 49.393 111.384C49.3791 111.38 49.3611 111.376 49.3402 111.37C49.3192 111.365 49.2944 111.358 49.2664 111.351L50.8349 105.559ZM50.831 105.558L56.7259 104.44L55.9427 100.312L50.0478 101.431L44.153 102.549L44.9362 106.677L50.831 105.558ZM50.0478 101.431L55.949 100.346C56.0467 100.878 56.0035 101.438 55.8245 101.949L50.1621 99.9647L44.4996 97.9806C43.9869 99.4438 43.868 100.999 44.1467 102.515L50.0478 101.431ZM50.1621 99.9647L55.8453 101.888C55.828 101.939 55.8059 102 55.7777 102.067L50.2392 99.7596L44.7008 97.4519C44.616 97.6555 44.5425 97.8528 44.4788 98.0409L50.1621 99.9647ZM50.2392 99.7596L55.7539 102.124C55.6224 102.43 55.4647 102.65 55.3375 102.793L50.8574 98.8016L46.3773 94.8105C45.7222 95.5459 45.1472 96.4097 44.7245 97.3957L50.2392 99.7596ZM50.8574 98.8016L55.3501 102.779C55.2707 102.868 55.2024 102.929 55.1556 102.967L51.3935 98.2928L47.6315 93.6188C47.1869 93.9766 46.7604 94.3777 46.3647 94.8247L50.8574 98.8016ZM51.3935 98.2928L55.1206 102.995C55.0991 103.012 55.0826 103.023 55.0722 103.03C55.0618 103.037 55.0566 103.039 55.0573 103.039C55.0579 103.039 55.0637 103.036 55.0749 103.031C55.0861 103.026 55.1022 103.02 55.1234 103.014L53.3017 97.2967L51.4801 91.58C50.1108 92.0163 48.8074 92.6865 47.6665 93.5908L51.3935 98.2928ZM53.3017 97.2967L55.123 103.014C55.2383 102.977 55.3939 102.947 55.5741 102.942L55.4101 96.9442L55.2462 90.9464C53.97 90.9813 52.6968 91.1923 51.4804 91.5799L53.3017 97.2967ZM55.4101 96.9442L61.0422 99.0129C63.3723 92.6692 67.8377 86.9773 73.8918 82.6416L70.3984 77.7635L66.905 72.8854C59.1004 78.4746 53.0215 86.0449 49.778 94.8755L55.4101 96.9442ZM70.3984 77.7635C76.3984 77.7867 76.3984 77.7867 76.3984 77.7867C76.3984 77.7866 76.3984 77.7866 76.3984 77.7866C76.3984 77.7865 76.3984 77.7863 76.3984 77.7862C76.3984 77.7858 76.3984 77.7852 76.3984 77.7845C76.3984 77.7831 76.3984 77.7809 76.3984 77.7781C76.3984 77.7724 76.3984 77.764 76.3985 77.7529C76.3986 77.7306 76.3987 77.6977 76.3989 77.655C76.3992 77.5696 76.3997 77.4451 76.4003 77.2884C76.4014 76.975 76.4031 76.5329 76.405 76.018C76.4087 74.9884 76.4133 73.667 76.4169 72.5017L70.417 72.4833L64.417 72.4648C64.4134 73.6268 64.4088 74.9456 64.405 75.9743C64.4032 76.4886 64.4015 76.9302 64.4003 77.2432C64.3997 77.3997 64.3993 77.524 64.399 77.6092C64.3988 77.6518 64.3987 77.6846 64.3986 77.7068C64.3985 77.7178 64.3985 77.7263 64.3985 77.7319C64.3985 77.7347 64.3985 77.7368 64.3985 77.7383C64.3985 77.739 64.3985 77.7395 64.3984 77.7398C64.3984 77.74 64.3984 77.7402 64.3984 77.7402C64.3984 77.7403 64.3984 77.7403 64.3984 77.7403C64.3984 77.7404 64.3984 77.7404 70.3984 77.7635ZM70.417 72.4833L71.8782 66.6639C70.8946 66.4169 69.8833 65.9372 69.2126 65.443C68.8869 65.203 68.7848 65.0644 68.8054 65.0923C68.8199 65.1119 69.1153 65.5114 69.1931 66.2682L63.2246 66.8817L57.256 67.4953C57.6442 71.2717 60.3209 73.7969 62.0938 75.1033C64.1166 76.594 66.5772 77.7054 68.9557 78.3026L70.417 72.4833ZM63.2246 66.8817L69.1931 66.268C69.2943 67.2518 68.9226 67.7126 69.0676 67.4748C69.1756 67.2976 69.4702 66.9209 70.0144 66.4594C70.5398 66.0139 71.1473 65.6177 71.7254 65.3351C72.0085 65.1967 72.2517 65.1016 72.4429 65.0413C72.639 64.9794 72.7338 64.9688 72.7295 64.9692L72.1142 59.0008L71.4989 53.0325C68.0179 53.3913 64.6117 55.307 62.2529 57.3074C61.004 58.3666 59.7616 59.6867 58.8221 61.2273C57.9196 62.7074 56.9899 64.9071 57.256 67.4954L63.2246 66.8817ZM72.1142 59.0008L72.7293 64.9692C72.7202 64.9702 72.7137 64.9708 72.711 64.9711C72.7084 64.9713 72.7081 64.9713 72.7119 64.971C72.7168 64.9705 72.7209 64.9702 72.7322 64.9692C72.7416 64.9683 72.7559 64.967 72.7718 64.9655L72.2187 58.9911L71.6656 53.0166C71.6474 53.0183 71.6652 53.0166 71.6211 53.0207C71.5951 53.023 71.5509 53.0271 71.4992 53.0325L72.1142 59.0008ZM72.2187 58.9911L77.926 60.8421C79.6629 55.4871 82.7887 51.1044 86.7124 48.0637L83.0371 43.3212L79.3618 38.5786C73.4571 43.1544 68.9612 49.5867 66.5114 57.14L72.2187 58.9911ZM83.0371 43.3212L88.5447 40.9409C88.1361 39.9953 88.2045 39.5047 88.2637 39.2922L82.4834 37.6835L76.7031 36.0747C75.76 39.4631 76.2738 42.7961 77.5294 45.7014L83.0371 43.3212ZM82.4834 37.6835L88.2632 39.2938L90.4048 31.6073L84.625 29.9969L78.8451 28.3866L76.7035 36.0731L82.4834 37.6835ZM84.625 29.9969L90.4049 31.6072C90.4718 31.367 90.7628 30.6822 92.2442 29.8791L89.3847 24.6044L86.5252 19.3296C83.1024 21.1851 80.0304 24.1319 78.8451 28.3867L84.625 29.9969Z" fill="white" mask="url(#path-1-outside-1_1062_19266)"/>
<path d="M113.217 118.743V150.97C113.217 152.587 111.89 153.913 110.273 153.913H100.037C97.8959 153.913 96.1426 152.16 96.1426 150.019C96.1426 148.951 96.5825 147.974 97.2877 147.269C97.993 146.564 98.9635 146.124 100.037 146.124L107.135 147.592V118.749C107.135 117.132 108.461 115.806 110.079 115.806H110.279C111.897 115.806 113.223 117.132 113.223 118.749L113.217 118.743Z" fill="#474747"/>
<path d="M86.3436 118.743V150.97C86.3436 152.587 85.0173 153.913 83.3998 153.913H73.1644C71.0229 153.913 69.2695 152.16 69.2695 150.019C69.2695 148.951 69.7095 147.974 70.4147 147.269C71.1199 146.564 72.0904 146.124 73.1644 146.124L80.2619 147.592V118.749C80.2619 117.132 81.5882 115.806 83.2057 115.806H83.4063C85.0238 115.806 86.3501 117.132 86.3501 118.749L86.3436 118.743Z" fill="#474747"/>
<path d="M148.225 109.363C148.225 117.463 145.508 124.677 140.811 130.597C132.633 140.916 118.464 147.315 102.244 147.69C101.733 147.703 101.221 147.71 100.71 147.71C100.199 147.71 99.6881 147.71 99.1769 147.69C82.9569 147.315 68.7943 140.916 60.6098 130.603C60.6098 130.603 60.6098 130.603 60.6098 130.597C55.9191 124.677 53.1953 117.469 53.1953 109.363C53.1953 96.6492 59.8917 85.2881 70.3988 77.7636C70.3988 77.7636 70.4247 72.6782 70.4247 70.5949C70.4247 51.4893 83.9856 37.249 100.717 37.249C117.448 37.249 131.002 51.4893 131.002 70.5949C131.002 72.6718 130.394 76.8513 130.097 77.1166C130.731 77.5113 131.028 77.7571 131.028 77.7571C141.542 85.2816 148.238 96.6428 148.238 109.363H148.225Z" fill="#4B9AE8"/>
<path d="M91.2482 68.6356C94.993 68.6356 98.0287 65.5999 98.0287 61.8552C98.0287 58.1104 94.993 55.0747 91.2482 55.0747C87.5035 55.0747 84.4678 58.1104 84.4678 61.8552C84.4678 65.5999 87.5035 68.6356 91.2482 68.6356Z" fill="white"/>
<path d="M73.5373 72.782C69.7718 73.1702 63.5542 70.097 63.2243 66.8815C62.8943 63.6724 68.3484 59.3893 72.1139 59.0011C75.8794 58.6129 79.1532 60.3986 79.6449 65.1864C80.1366 69.9741 77.3028 72.3938 73.5373 72.782Z" fill="#EAC00F"/>
<path d="M108.281 38.2583C108.281 38.2583 116.944 48.6554 119.287 54.776C122.082 62.087 122.14 69.0098 121.603 72.2253C120.386 79.5234 117.197 84.3046 117.197 84.3046C117.197 84.3046 127.827 76.7737 130.137 77.1877C130.816 75.3567 130.958 73.4805 130.997 70.6014C131.081 63.8727 129.328 55.9664 123.822 48.7719C121.629 45.9057 116.375 40.3287 108.281 38.2648V38.2583Z" fill="#2C7AC7"/>
<path d="M117.198 84.2991C117.198 84.2991 132.247 108.296 124.781 122.827C119.637 132.843 112.158 138.388 97.2705 147.407C137.52 149.969 168.304 105.009 130.131 77.1887C127.543 76.5417 117.191 84.3056 117.191 84.3056L117.198 84.2991Z" fill="#2C7AC7"/>
<path d="M77.7359 60.6963C77.7359 60.6963 77.3801 62.6179 76.8431 64.7335C76.2608 67.0174 74.5786 68.5637 72.987 69.0619C70.9037 69.7153 69.4933 70.2717 66.2842 70.7052C68.8916 72.3033 71.6219 72.9568 73.5369 72.7821C77.6065 72.4133 79.2758 69.9547 79.5992 67.5803C80.2462 62.9284 77.7359 60.6963 77.7359 60.6963Z" fill="#CCA80E"/>
<path d="M91.2446 65.4707C93.242 65.4707 94.8613 63.8514 94.8613 61.854C94.8613 59.8565 93.242 58.2373 91.2446 58.2373C89.2472 58.2373 87.6279 59.8565 87.6279 61.854C87.6279 63.8514 89.2472 65.4707 91.2446 65.4707Z" fill="#040000"/>
<path d="M127.652 174.759C119.073 177.561 109.724 179.004 100.271 178.978C90.8123 178.952 81.4827 177.464 72.9359 174.617C70.0051 173.685 67.4624 172.243 65.5408 170.425C63.6193 168.606 62.3965 166.478 61.9694 164.233L50.0519 101.429C49.9484 100.873 50.0131 100.304 50.2395 99.7602C50.4724 99.2167 50.8671 98.7186 51.3911 98.298C51.9217 97.871 52.5687 97.5346 53.2998 97.3016C54.0309 97.0687 54.8202 96.9458 55.6225 96.9458C55.6225 96.9458 79.2247 103.856 101.514 103.856C123.802 103.856 145.269 96.9458 145.269 96.9458C146.072 96.9458 146.861 97.0687 147.592 97.3016C148.323 97.5346 148.97 97.8775 149.501 98.298C150.031 98.725 150.42 99.2232 150.652 99.7602C150.885 100.304 150.95 100.867 150.84 101.429L138.935 164.272C138.489 166.556 137.214 168.716 135.235 170.554C133.255 172.391 130.641 173.841 127.639 174.759H127.652Z" fill="#C0DCEB"/>
<path d="M150.849 101.431L150.06 105.611C144.01 107.383 123.177 112.999 101.678 112.999C80.1781 112.999 57.1841 107.28 50.8306 105.559L50.0478 101.431C49.9443 100.868 50.009 100.299 50.2419 99.7618C50.4748 99.2183 50.863 98.7201 51.3935 98.2931C51.9241 97.8726 52.571 97.5297 53.3021 97.2968C54.0332 97.0638 54.8226 96.9409 55.6248 96.9409C55.6248 96.9409 79.2271 103.857 101.516 103.857C123.805 103.857 145.278 96.9409 145.278 96.9409C146.081 96.9409 146.87 97.0638 147.601 97.2968C148.332 97.5297 148.979 97.8726 149.51 98.2931C150.034 98.7201 150.428 99.2183 150.661 99.7618C150.894 100.299 150.959 100.868 150.849 101.431Z" fill="#8CA4B8"/>
<path d="M139.244 45.2146C141.34 37.6836 130.807 28.1923 115.726 23.9933C100.645 19.7879 86.7213 22.4729 84.6251 29.9974L82.4835 37.6836C80.3873 45.2146 90.9203 54.7059 106.002 58.9049C121.083 63.1039 135.013 60.4124 137.103 52.8944L139.244 45.2081V45.2146Z" fill="#C0DCEB"/>
<path d="M108.146 51.2309C123.228 55.4299 137.157 52.7384 139.254 45.2139C141.35 37.6894 130.823 28.1851 115.736 23.9861C100.648 19.7807 86.7245 22.4722 84.6282 29.9967C82.532 37.5212 93.0585 47.0255 108.146 51.2244V51.2309Z" fill="#DAEDF7"/>
<path d="M114.66 27.8291C128.435 31.6657 138.372 39.9148 138.411 47.0447C138.774 46.4753 139.058 45.8542 139.252 45.2072C141.349 37.6763 130.816 28.1849 115.734 23.9859C100.646 19.787 86.7231 22.472 84.6269 29.9965C84.4587 30.6499 84.381 31.3293 84.394 32.0021C88.1142 25.914 100.879 23.9924 114.66 27.8291Z" fill="#E8F4FA"/>
<path d="M122.715 41.4346C121.518 41.3311 120.353 41.0141 119.266 40.4965C118.956 40.3412 118.71 40.0824 118.574 39.7654C118.438 39.4484 118.412 39.0925 118.509 38.7561L119.111 36.5887C119.214 36.2069 119.169 35.7993 118.975 35.45C118.781 35.1071 118.457 34.8483 118.076 34.7448L108.714 32.1374C108.332 32.0339 107.924 32.0792 107.575 32.2732C107.232 32.4673 106.973 32.7908 106.87 33.1726L106.242 35.437C106.158 35.7541 105.977 36.0323 105.718 36.2264C105.459 36.4269 105.149 36.5369 104.819 36.5369C103.518 36.511 102.244 36.1875 101.092 35.5923C100.808 35.4241 100.594 35.1653 100.471 34.8612C100.355 34.5571 100.335 34.2207 100.432 33.9037L101.487 30.1123C101.914 28.5789 102.936 27.2785 104.321 26.4956C105.705 25.7128 107.349 25.5122 108.882 25.9392L121.136 29.3488C122.669 29.7759 123.963 30.7981 124.746 32.1827C125.529 33.5672 125.723 35.2106 125.296 36.744L124.3 40.3283C124.203 40.6647 123.996 40.9623 123.705 41.1629C123.413 41.3635 123.064 41.4605 122.715 41.4282V41.4346Z" fill="#C0DCEB"/>
<path d="M121.123 29.3567L108.869 25.947C107.336 25.52 105.692 25.7206 104.308 26.5034C102.923 27.2863 101.901 28.5867 101.474 30.1201L100.717 32.8439C101.144 31.3106 102.166 30.0101 103.551 29.2273C104.935 28.4444 106.579 28.2438 108.112 28.6709L120.366 32.0805C121.899 32.5075 123.2 33.5298 123.983 34.9208C124.765 36.3118 124.96 37.9487 124.533 39.4821L125.29 36.7582C125.717 35.2249 125.522 33.5815 124.74 32.197C123.957 30.8059 122.656 29.7901 121.123 29.3567Z" fill="#E8F4FA"/>
<path d="M84.8735 160.403C83.4243 160.403 82.0332 160.001 80.9916 159.296C79.9499 158.591 79.3288 157.627 79.2706 156.611L77.569 129.049C77.5366 128.532 77.6466 128.008 77.899 127.522C78.1513 127.031 78.5395 126.584 79.0377 126.203C79.5358 125.821 80.1375 125.51 80.8104 125.29C81.4833 125.07 82.2079 124.947 82.9455 124.922C83.6831 124.896 84.4206 124.98 85.1194 125.155C85.8117 125.329 86.4522 125.607 86.9956 125.957C87.5391 126.306 87.9855 126.733 88.2961 127.205C88.6067 127.678 88.7878 128.189 88.8202 128.706L90.5153 156.275C90.5476 156.792 90.4376 157.316 90.1853 157.808C89.933 158.3 89.5448 158.746 89.0466 159.134C88.5484 159.516 87.9403 159.827 87.2739 160.047C86.601 160.267 85.8764 160.39 85.1388 160.416H84.8865L84.8735 160.403Z" fill="#ADC4D9"/>
<path d="M77.5617 129.049L79.2568 156.617C79.3215 157.633 79.9362 158.597 80.9778 159.302C82.0195 160.007 83.4105 160.402 84.8598 160.409H85.1121C86.0438 160.383 86.9431 160.189 87.7454 159.859L87.1695 159.917C86.322 159.593 85.6038 159.121 85.0862 158.545C84.5686 157.969 84.2775 157.31 84.2322 156.63L82.55 129.055C82.5047 128.318 82.7571 127.587 83.2747 126.946C83.7923 126.306 84.5557 125.775 85.4809 125.426L85.9597 125.445C85.0862 125.089 84.0963 124.908 83.087 124.915C82.0777 124.921 81.0943 125.122 80.2338 125.491C79.3733 125.859 78.6681 126.39 78.1958 127.017C77.7235 127.645 77.5035 128.35 77.5553 129.062H77.5682L77.5617 129.049Z" fill="#8CA4B8"/>
<path d="M113.798 160.384C112.355 160.293 111.015 159.808 110.064 159.038C109.113 158.268 108.622 157.272 108.686 156.25L110.537 128.681C110.64 127.646 111.313 126.689 112.413 125.996C113.513 125.311 114.949 124.948 116.418 125C117.887 125.052 119.271 125.498 120.267 126.255C121.27 127.012 121.807 128.015 121.775 129.05L119.925 156.618C119.892 157.136 119.711 157.647 119.4 158.119C119.083 158.592 118.644 159.012 118.094 159.368C117.544 159.718 116.91 159.989 116.211 160.17C115.512 160.345 114.775 160.423 114.037 160.403L113.798 160.384Z" fill="#ADC4D9"/>
<path d="M110.538 128.682L108.687 156.251C108.616 157.273 109.114 158.269 110.065 159.039C111.017 159.809 112.356 160.288 113.799 160.385L114.044 160.398C114.97 160.43 115.901 160.301 116.736 160.016L116.154 160.036C115.351 159.66 114.698 159.143 114.264 158.535C113.831 157.926 113.624 157.253 113.663 156.574L115.513 129.006C115.565 128.268 115.908 127.557 116.509 126.948C117.111 126.34 117.933 125.868 118.897 125.577L119.376 125.629C118.554 125.221 117.583 124.975 116.581 124.923C115.578 124.872 114.569 125.007 113.663 125.318C112.757 125.635 111.993 126.114 111.444 126.709C110.894 127.304 110.583 127.99 110.544 128.702H110.538V128.682Z" fill="#8CA4B8"/>
</svg>
