<svg width="200" height="200" viewBox="0 0 200 200" fill="none" xmlns="http://www.w3.org/2000/svg">
<mask id="path-1-outside-1_1347_13007" maskUnits="userSpaceOnUse" x="5" y="38.709" width="191" height="140" fill="black">
<rect fill="white" x="5" y="38.709" width="191" height="140"/>
<path d="M90.3398 46.0928C94.5418 45.1432 98.75 45.9937 102.244 48.2383C103.633 47.4776 105.576 47.0604 106.645 47.8574C107.909 48.8008 107.938 51.5032 107.226 53.1182C108.304 54.6965 109.174 56.4936 109.779 58.4775L114.068 53.3564C116.811 50.08 120.913 50.1462 122.392 53.2412C124.572 57.796 125.503 65.3129 121.107 71.9219C122.365 73.8358 123.294 75.971 123.817 78.2881C123.882 78.5732 123.939 78.8579 123.989 79.1416C129.824 80.9213 135.443 82.5049 141.062 82.5049C153.888 82.5046 171.063 66.6032 182.394 74.2539C193.724 81.9047 188.268 162.217 182.394 168.117C176.519 174.018 24.3865 172.518 18.2246 168.117C12.0627 163.715 8.02815 84.9034 18.2246 74.2539C28.421 63.6046 43.5869 82.5045 58.9775 82.5049C62.4424 82.5049 65.6471 82.0836 68.709 81.4355C65.1436 77.7587 64.3637 72.8198 64.4512 68.8779C64.5265 65.4476 68.5408 63.6255 72.3779 65.2676L78.6143 67.9355C78.5285 67.6578 78.4539 67.3972 78.4043 67.1777C76.1387 57.1534 81.5664 48.0758 90.3398 46.0928Z"/>
</mask>
<path d="M90.3398 46.0928C94.5418 45.1432 98.75 45.9937 102.244 48.2383C103.633 47.4776 105.576 47.0604 106.645 47.8574C107.909 48.8008 107.938 51.5032 107.226 53.1182C108.304 54.6965 109.174 56.4936 109.779 58.4775L114.068 53.3564C116.811 50.08 120.913 50.1462 122.392 53.2412C124.572 57.796 125.503 65.3129 121.107 71.9219C122.365 73.8358 123.294 75.971 123.817 78.2881C123.882 78.5732 123.939 78.8579 123.989 79.1416C129.824 80.9213 135.443 82.5049 141.062 82.5049C153.888 82.5046 171.063 66.6032 182.394 74.2539C193.724 81.9047 188.268 162.217 182.394 168.117C176.519 174.018 24.3865 172.518 18.2246 168.117C12.0627 163.715 8.02815 84.9034 18.2246 74.2539C28.421 63.6046 43.5869 82.5045 58.9775 82.5049C62.4424 82.5049 65.6471 82.0836 68.709 81.4355C65.1436 77.7587 64.3637 72.8198 64.4512 68.8779C64.5265 65.4476 68.5408 63.6255 72.3779 65.2676L78.6143 67.9355C78.5285 67.6578 78.4539 67.3972 78.4043 67.1777C76.1387 57.1534 81.5664 48.0758 90.3398 46.0928Z" fill="#61B2E4"/>
<path d="M90.3398 46.0928L89.0172 40.2404L89.0171 40.2404L90.3398 46.0928ZM102.244 48.2383L99.0012 53.2864C100.85 54.474 103.2 54.5561 105.127 53.5003L102.244 48.2383ZM106.645 47.8574L110.232 43.0483L110.232 43.0482L106.645 47.8574ZM107.226 53.1182L101.736 50.6969C100.899 52.5944 101.101 54.7895 102.271 56.5021L107.226 53.1182ZM109.779 58.4775L104.04 60.2277C104.682 62.3335 106.426 63.9185 108.584 64.3572C110.741 64.7959 112.966 64.0178 114.379 62.33L109.779 58.4775ZM114.068 53.3564L118.668 57.2089L118.669 57.2075L114.068 53.3564ZM122.392 53.2412L116.978 55.8282L116.98 55.8317L122.392 53.2412ZM121.107 71.9219L116.112 68.5991C114.78 70.6016 114.772 73.2059 116.093 75.216L121.107 71.9219ZM123.817 78.2881L129.67 76.9653L129.67 76.9653L123.817 78.2881ZM123.989 79.1416L118.083 80.1978C118.479 82.415 120.084 84.2235 122.239 84.8806L123.989 79.1416ZM141.062 82.5049V88.5049H141.063L141.062 82.5049ZM182.394 74.2539L185.751 69.2814L185.751 69.2814L182.394 74.2539ZM182.394 168.117L186.646 172.35L186.646 172.35L182.394 168.117ZM18.2246 168.117L14.737 172.999L14.7373 173L18.2246 168.117ZM18.2246 74.2539L13.8908 70.1044L13.8908 70.1045L18.2246 74.2539ZM58.9775 82.5049L58.9774 88.5049H58.9775V82.5049ZM68.709 81.4355L69.9513 87.3055C72.0882 86.8533 73.8105 85.2755 74.4479 83.1864C75.0852 81.0972 74.5369 78.8268 73.0164 77.2587L68.709 81.4355ZM64.4512 68.8779L70.4497 69.011L70.4497 69.0097L64.4512 68.8779ZM72.3779 65.2676L70.0174 70.7837L70.018 70.784L72.3779 65.2676ZM78.6143 67.9355L76.2543 73.4519C78.4037 74.3715 80.8916 73.9588 82.629 72.3945C84.3664 70.8301 85.0369 68.3991 84.3472 66.1653L78.6143 67.9355ZM78.4043 67.1777L72.5519 68.5005L72.5519 68.5005L78.4043 67.1777ZM90.3398 46.0928L91.6624 51.9452C94.2171 51.3679 96.7899 51.8658 99.0012 53.2864L102.244 48.2383L105.487 43.1901C100.71 40.1215 94.8665 38.9185 89.0172 40.2404L90.3398 46.0928ZM102.244 48.2383L105.127 53.5003C105.261 53.4269 105.375 53.409 105.313 53.4168C105.266 53.4227 105.04 53.4482 104.682 53.3864C104.314 53.3231 103.701 53.1469 103.057 52.6666L106.645 47.8574L110.232 43.0482C107.918 41.3221 105.323 41.321 103.816 41.5106C102.167 41.718 100.616 42.289 99.3613 42.9762L102.244 48.2383ZM106.645 47.8574L103.057 52.6665C102.277 52.0845 101.942 51.4286 101.821 51.1354C101.755 50.9747 101.724 50.8556 101.71 50.7926C101.696 50.728 101.694 50.6945 101.694 50.6941C101.694 50.6928 101.695 50.7079 101.694 50.7361C101.692 50.7641 101.69 50.7927 101.686 50.8174C101.675 50.8882 101.67 50.8455 101.736 50.6969L107.226 53.1182L112.715 55.5394C113.515 53.7259 113.802 51.6421 113.659 49.7778C113.535 48.1588 112.946 45.0729 110.232 43.0483L106.645 47.8574ZM107.226 53.1182L102.271 56.5021C103 57.5701 103.609 58.8148 104.04 60.2277L109.779 58.4775L115.518 56.7274C114.739 54.1723 113.607 51.8229 112.18 49.7342L107.226 53.1182ZM109.779 58.4775L114.379 62.33L118.668 57.2089L114.068 53.3564L109.469 49.504L105.179 54.6251L109.779 58.4775ZM114.068 53.3564L118.669 57.2075C119.107 56.6845 119.233 56.9075 118.727 56.9095C118.469 56.9105 118.096 56.8411 117.713 56.6054C117.317 56.3622 117.083 56.0481 116.978 55.8282L122.392 53.2412L127.805 50.6543C126.026 46.931 122.46 44.8947 118.68 44.9096C115.068 44.9238 111.772 46.752 109.467 49.5054L114.068 53.3564ZM122.392 53.2412L116.98 55.8317C118.484 58.9742 119.062 64.1633 116.112 68.5991L121.107 71.9219L126.103 75.2446C131.944 66.4625 130.66 56.6178 127.804 50.6507L122.392 53.2412ZM121.107 71.9219L116.093 75.216C116.967 76.5469 117.605 78.0171 117.965 79.6109L123.817 78.2881L129.67 76.9653C128.983 73.9249 127.763 71.1248 126.122 68.6277L121.107 71.9219ZM123.817 78.2881L117.965 79.6108C118.007 79.7967 118.046 79.9917 118.083 80.1978L123.989 79.1416L129.896 78.0854C129.831 77.7241 129.757 77.3497 129.67 76.9653L123.817 78.2881ZM123.989 79.1416L122.239 84.8806C128.011 86.6411 134.432 88.5049 141.062 88.5049V82.5049V76.5049C136.455 76.5049 131.637 75.2014 125.74 73.4026L123.989 79.1416ZM141.062 82.5049L141.063 88.5049C145.393 88.5048 149.705 87.1857 153.478 85.7449C157.068 84.3741 161.401 82.3678 164.578 81.0563C168.142 79.5849 171.128 78.583 173.685 78.2714C176.107 77.9761 177.733 78.3464 179.036 79.2264L182.394 74.2539L185.751 69.2814C181.389 66.3361 176.619 65.825 172.233 66.3595C167.982 66.8776 163.748 68.4166 159.999 69.9643C155.863 71.6718 152.789 73.1628 149.197 74.5345C145.789 75.8362 143.145 76.5048 141.062 76.5049L141.062 82.5049ZM182.394 74.2539L179.036 79.2264C178.637 78.9571 179.295 79.2765 180.163 82.0402C180.925 84.4638 181.564 87.8287 182.038 91.9966C182.983 100.294 183.185 110.916 182.848 121.654C182.513 132.367 181.648 142.987 180.52 151.224C179.955 155.357 179.338 158.774 178.722 161.258C178.411 162.507 178.131 163.399 177.903 163.977C177.605 164.734 177.602 164.426 178.141 163.884L182.394 168.117L186.646 172.35C187.919 171.071 188.647 169.444 189.069 168.372C189.561 167.122 189.989 165.676 190.368 164.15C191.13 161.082 191.815 157.197 192.41 152.851C193.603 144.132 194.496 133.088 194.842 122.03C195.188 110.996 194.997 99.737 193.961 90.6394C193.445 86.1099 192.698 81.8992 191.612 78.4432C190.633 75.3274 188.983 71.4634 185.751 69.2814L182.394 74.2539ZM182.394 168.117L178.141 163.884C178.914 163.108 179.615 162.92 179.344 163.021C179.248 163.056 178.953 163.149 178.377 163.274C177.239 163.521 175.54 163.779 173.257 164.027C168.722 164.52 162.431 164.922 154.886 165.23C139.826 165.846 120.166 166.074 100.445 165.98C80.7296 165.887 61.0334 165.472 45.9123 164.809C38.3407 164.477 31.9855 164.086 27.3724 163.649C25.0538 163.43 23.2748 163.208 22.041 162.995C21.418 162.887 21.0377 162.799 20.8443 162.745C20.4665 162.639 20.9998 162.726 21.7119 163.235L18.2246 168.117L14.7373 173C15.8345 173.783 17.0381 174.14 17.5977 174.297C18.3418 174.507 19.1662 174.676 19.9975 174.82C21.672 175.109 23.799 175.365 26.2415 175.596C31.1505 176.061 37.7376 176.463 45.3867 176.798C60.7071 177.47 80.5666 177.886 100.389 177.98C120.206 178.074 140.065 177.846 155.375 177.22C163.015 176.908 169.621 176.493 174.555 175.957C177.005 175.69 179.183 175.379 180.922 175.002C181.784 174.814 182.678 174.582 183.503 174.277C184.152 174.037 185.506 173.495 186.646 172.35L182.394 168.117ZM18.2246 168.117L21.7123 163.235C22.7074 163.946 22.866 164.661 22.5791 164.016C22.3977 163.608 22.1396 162.875 21.8415 161.737C21.2512 159.483 20.6668 156.277 20.139 152.302C19.0886 144.392 18.337 134.018 18.0886 123.388C17.84 112.748 18.1002 102.04 19.0223 93.4329C19.4846 89.1184 20.0973 85.4863 20.8396 82.7181C21.2098 81.3379 21.5852 80.2749 21.9383 79.4986C22.1123 79.116 22.2644 78.8395 22.3845 78.6492C22.5061 78.4564 22.5705 78.3907 22.5584 78.4034L18.2246 74.2539L13.8908 70.1045C11.5105 72.5905 10.1493 76.2533 9.24912 79.6101C8.28446 83.2075 7.58774 87.5142 7.09061 92.1547C6.094 101.457 5.83616 112.724 6.09188 123.669C6.34783 134.623 7.12292 145.444 8.24341 153.881C8.80099 158.08 9.4631 161.837 10.233 164.777C10.615 166.236 11.0655 167.658 11.6152 168.894C12.0594 169.892 12.9716 171.738 14.737 172.999L18.2246 168.117ZM18.2246 74.2539L22.5584 78.4034C23.7308 77.1789 24.7428 76.8979 26.2 77.027C28.1085 77.1961 30.5794 78.1065 34.0325 79.7832C37.0836 81.2646 41.3098 83.5707 45.1869 85.2326C49.2406 86.9703 53.9469 88.5048 58.9774 88.5049L58.9775 82.5049L58.9777 76.5049C56.3128 76.5048 53.352 75.6767 49.9148 74.2033C46.301 72.6542 43.2127 70.9008 39.2739 68.9883C35.7372 67.2711 31.5429 65.4533 27.2591 65.0738C22.524 64.6543 17.8166 66.0042 13.8908 70.1044L18.2246 74.2539ZM58.9775 82.5049V88.5049C62.9397 88.5049 66.5672 88.0218 69.9513 87.3055L68.709 81.4355L67.4666 75.5656C64.7269 76.1454 61.9451 76.5049 58.9775 76.5049V82.5049ZM68.709 81.4355L73.0164 77.2587C71.0695 75.2509 70.3779 72.2485 70.4497 69.011L64.4512 68.8779L58.4526 68.7448C58.3495 73.3911 59.2177 80.2665 64.4015 85.6124L68.709 81.4355ZM64.4512 68.8779L70.4497 69.0097C70.4421 69.3559 70.3192 69.7652 70.0693 70.1161C69.8377 70.4414 69.5945 70.5838 69.4885 70.632C69.3023 70.7167 69.4989 70.5618 70.0174 70.7837L72.3779 65.2676L74.7385 59.7514C71.4198 58.3313 67.6907 58.2664 64.5193 59.7092C61.2466 61.1981 58.5482 64.3976 58.4526 68.7461L64.4512 68.8779ZM72.3779 65.2676L70.018 70.784L76.2543 73.4519L78.6143 67.9355L80.9742 62.4192L74.7379 59.7512L72.3779 65.2676ZM78.6143 67.9355L84.3472 66.1653C84.3149 66.0608 84.2912 65.9805 84.2744 65.9202C84.2567 65.857 84.253 65.8387 84.2567 65.855L78.4043 67.1777L72.5519 68.5005C72.6529 68.9474 72.7814 69.3822 72.8814 69.7058L78.6143 67.9355ZM78.4043 67.1777L84.2567 65.855C82.6178 58.6037 86.5621 53.098 91.6626 51.9452L90.3398 46.0928L89.0171 40.2404C76.5706 43.0536 69.6596 55.7032 72.5519 68.5005L78.4043 67.1777Z" fill="white" mask="url(#path-1-outside-1_1347_13007)"/>
<path d="M102.62 99.8702L111.631 109.279C112.249 109.869 113.24 109.846 113.83 109.229L117.568 105.315C118.351 104.495 118.321 103.185 117.502 102.402C117.092 102.011 116.561 101.825 116.029 101.835C115.5 101.847 114.981 102.059 114.589 102.469L112.56 105.72L104.84 97.5452C104.223 96.9556 103.232 96.9784 102.642 97.5957L102.569 97.6719C101.98 98.2893 102.002 99.2805 102.62 99.8702Z" fill="#404040"/>
<path d="M116.084 92.3741L127.075 99.3703C127.815 99.7963 128.772 99.5384 129.198 98.7985L131.899 94.1074C132.464 93.1251 132.123 91.8601 131.141 91.2946C130.65 91.0119 130.09 90.9578 129.576 91.0936C129.065 91.2312 128.611 91.561 128.328 92.0521L127.13 95.6923L117.688 89.5878C116.948 89.1619 115.991 89.4197 115.565 90.1596L115.512 90.2509C115.087 90.9908 115.344 91.9482 116.084 92.3741Z" fill="#404040"/>
<path d="M114.069 53.3557L95.2965 75.7719C95.2965 75.7719 109.952 85.43 119.811 73.6556C125.659 66.6692 124.765 58.199 122.392 53.2404C120.913 50.1454 116.811 50.0793 114.069 53.3557Z" fill="#21587B"/>
<path d="M73.9681 89.551C74.9284 93.7996 77.2117 97.2612 80.376 99.8086C85.8908 104.253 94.0834 105.928 102.632 104.205C102.9 104.152 103.17 104.094 103.439 104.034C103.709 103.973 103.978 103.912 104.241 103.841C112.704 101.72 119.376 96.6847 122.445 90.3076C122.445 90.3076 122.445 90.3076 122.444 90.304C124.205 86.6434 124.778 82.5362 123.818 78.2877C122.311 71.6189 117.452 66.4526 111.046 63.7514C111.046 63.7514 110.429 61.0864 110.182 59.995C107.917 49.9706 99.1131 44.1093 90.3396 46.0923C81.566 48.0752 76.1391 57.153 78.4048 67.1773C78.6515 68.2687 79.4653 70.3865 79.6533 70.493C79.3666 70.7738 79.2396 70.9366 79.2396 70.9366C74.6182 76.1301 72.4537 82.8839 73.9618 89.5561L73.9681 89.551Z" fill="#4B9AE8"/>
<path d="M101.101 49.0734C102.253 47.886 105.223 46.7967 106.644 47.8571C108.066 48.9174 107.928 52.2011 106.928 53.6637C105.931 55.1236 104.208 55.3345 102.088 53.749C99.9452 52.1459 99.9491 50.2607 101.101 49.0734Z" fill="#EAC00F"/>
<path d="M88.0988 71.9932L72.3783 65.2675C68.5411 63.6254 64.5262 65.4478 64.4512 68.8785C64.3324 74.2321 65.8135 81.4246 73.6997 84.7972C80.2878 87.6157 86.2779 85.6027 90.67 82.8227C94.7951 80.2141 93.372 74.2478 88.1011 71.9961L88.0988 71.9932Z" fill="#276288"/>
<path d="M94.2772 56.6436C96.2246 56.165 97.4153 54.1982 96.9366 52.2508C96.4579 50.3033 94.4912 49.1126 92.5437 49.5913C90.5963 50.07 89.4056 52.0367 89.8843 53.9842C90.363 55.9316 92.3297 57.1223 94.2772 56.6436Z" fill="white"/>
<path d="M93.8728 54.9963C94.9109 54.7412 95.5455 53.6928 95.2904 52.6548C95.0353 51.6168 93.9869 50.9821 92.9489 51.2372C91.9108 51.4924 91.2762 52.5407 91.5313 53.5788C91.7865 54.6168 92.8348 55.2515 93.8728 54.9963Z" fill="#040000"/>
<path d="M182.393 74.254C171.063 66.6032 153.888 82.5047 141.062 82.5047C128.237 82.5047 115.411 74.254 100.02 74.254C84.6296 74.254 74.369 82.5047 58.9781 82.5047C43.5873 82.5047 28.4215 63.6044 18.225 74.254C8.02853 84.9035 12.0631 163.716 18.225 168.117C24.3869 172.518 176.519 174.017 182.393 168.117C188.268 162.216 193.724 81.9048 182.393 74.254Z" fill="#61B2E4"/>
<path d="M32 110C33 112 47 124.5 60 122.5C73 120.5 80 112 95.5 113C111 114 110.5 124 144 124" stroke="#90CFF5" stroke-width="2.5" stroke-linecap="round" stroke-linejoin="round"/>
<path d="M37 134C37.8586 135.73 49.8796 146.543 61.0419 144.813C72.2042 143.083 78.2147 135.73 91.5236 136.595C104.832 137.46 105.262 144.813 119 144.813" stroke="#90CFF5" stroke-width="2.5" stroke-linecap="round" stroke-linejoin="round"/>
<path d="M117 93C117.597 94.2583 125.953 102.122 133.712 100.864C141.471 99.6059 145.649 94.2583 154.901 94.8874C164.152 95.5165 164.45 100.864 174 100.864" stroke="#90CFF5" stroke-width="2.5" stroke-linecap="round" stroke-linejoin="round"/>
</svg>
