<svg width="200" height="200" viewBox="0 0 200 200" fill="none" xmlns="http://www.w3.org/2000/svg">
<mask id="path-1-outside-1_1062_21629" maskUnits="userSpaceOnUse" x="26.168" y="9.22192" width="146" height="185" fill="black">
<rect fill="white" x="26.168" y="9.22192" width="146" height="185"/>
<path d="M61.0126 15.5441C62.0977 14.9177 63.4496 15.2219 64.0761 16.3068L67.7177 22.6145C68.3048 23.6317 67.9461 24.9685 66.8613 25.5949L63.7343 27.3996L65.9658 31.2893L66.246 30.2463C66.8623 27.9464 70.155 27.8538 70.9228 30.1233L73.2216 37.1594C73.6837 38.4296 75.5242 38.4073 75.8827 37.0705L79.6952 22.843C80.0822 21.3989 81.4813 20.4548 82.954 20.7346C84.5338 21.0432 85.4878 22.618 85.0722 24.1691L78.2216 49.7356L78.6962 49.4611C80.7308 48.2865 83.3378 49.042 84.5908 51.2121C85.6393 53.0282 85.2861 55.2811 83.8593 56.6184C83.8907 56.589 83.9237 56.5617 83.954 56.5315L84.0439 56.6838L94.1601 74.1272C95.3987 76.3508 97.5474 77.9591 100.008 78.6184C101.102 78.9047 102.187 79.2167 103.263 79.5529C120.393 84.9147 134.957 96.5509 143.983 112.185L164.892 148.4C166.301 150.841 165.441 154.051 163 155.46L109.124 186.656C106.629 188.052 103.473 187.205 102.063 184.764L81.1542 148.549C72.1331 132.924 69.3828 114.518 73.3124 96.968L73.3134 96.967C73.562 95.8553 73.8378 94.7469 74.1406 93.6428C74.8139 91.1292 74.4813 88.5183 73.1894 86.2805L63.0878 68.7824L63.0468 68.7111C63.0749 68.7001 63.1018 68.6858 63.1298 68.674C61.1711 69.4993 58.8491 68.6488 57.7343 66.718C56.5205 64.6156 57.1841 61.9268 59.2187 60.7522L59.8261 60.3996L34.2089 53.5354C32.7113 53.1341 31.8248 51.5204 32.2939 49.9836C32.7878 48.5682 34.3048 47.8281 35.749 48.215L51.1533 52.343C52.3298 52.658 53.3047 51.3716 52.664 50.34L49.4677 44.7248C48.6913 43.3211 49.4308 41.7197 50.7206 41.2248L47.9999 36.4836L44.5488 38.4768C43.4638 39.1031 42.1128 38.7988 41.4863 37.7141L37.8837 31.4748C37.2964 30.4576 37.6688 29.0661 38.7538 28.4397L61.0126 15.5441ZM39.3622 66.382C40.1538 63.428 43.1905 61.6745 46.1445 62.466C49.0985 63.2575 50.851 66.2942 50.0595 69.2483C49.2679 72.2021 46.2322 73.9547 43.2783 73.1633C40.3244 72.3718 38.5709 69.336 39.3622 66.382ZM63.2909 68.6018C63.3299 68.5833 63.3685 68.564 63.4072 68.5441C63.3685 68.564 63.3299 68.5833 63.2909 68.6018ZM63.5458 68.4699C63.5783 68.4516 63.6122 68.4356 63.6445 68.4162L63.6454 68.4152H63.6425C63.6106 68.4343 63.578 68.4518 63.5458 68.4699ZM83.4521 56.9533C83.3415 57.0329 83.2266 57.1085 83.1064 57.1779L83.1044 57.1799L83.1083 57.1789C83.2283 57.1096 83.3417 57.0327 83.4521 56.9533ZM83.4824 56.9309C83.5298 56.8961 83.5764 56.8609 83.622 56.8244C83.5765 56.8609 83.5297 56.8961 83.4824 56.9309ZM88.5878 39.4992C89.1183 37.5204 91.1529 36.346 93.1318 36.8762C95.1105 37.4066 96.2851 39.4411 95.7548 41.4201C95.2245 43.3993 93.1899 44.5734 91.2109 44.0432C89.2319 43.5129 88.0575 41.4784 88.5878 39.4992Z"/>
</mask>
<path d="M61.0126 15.5441C62.0977 14.9177 63.4496 15.2219 64.0761 16.3068L67.7177 22.6145C68.3048 23.6317 67.9461 24.9685 66.8613 25.5949L63.7343 27.3996L65.9658 31.2893L66.246 30.2463C66.8623 27.9464 70.155 27.8538 70.9228 30.1233L73.2216 37.1594C73.6837 38.4296 75.5242 38.4073 75.8827 37.0705L79.6952 22.843C80.0822 21.3989 81.4813 20.4548 82.954 20.7346C84.5338 21.0432 85.4878 22.618 85.0722 24.1691L78.2216 49.7356L78.6962 49.4611C80.7308 48.2865 83.3378 49.042 84.5908 51.2121C85.6393 53.0282 85.2861 55.2811 83.8593 56.6184C83.8907 56.589 83.9237 56.5617 83.954 56.5315L84.0439 56.6838L94.1601 74.1272C95.3987 76.3508 97.5474 77.9591 100.008 78.6184C101.102 78.9047 102.187 79.2167 103.263 79.5529C120.393 84.9147 134.957 96.5509 143.983 112.185L164.892 148.4C166.301 150.841 165.441 154.051 163 155.46L109.124 186.656C106.629 188.052 103.473 187.205 102.063 184.764L81.1542 148.549C72.1331 132.924 69.3828 114.518 73.3124 96.968L73.3134 96.967C73.562 95.8553 73.8378 94.7469 74.1406 93.6428C74.8139 91.1292 74.4813 88.5183 73.1894 86.2805L63.0878 68.7824L63.0468 68.7111C63.0749 68.7001 63.1018 68.6858 63.1298 68.674C61.1711 69.4993 58.8491 68.6488 57.7343 66.718C56.5205 64.6156 57.1841 61.9268 59.2187 60.7522L59.8261 60.3996L34.2089 53.5354C32.7113 53.1341 31.8248 51.5204 32.2939 49.9836C32.7878 48.5682 34.3048 47.8281 35.749 48.215L51.1533 52.343C52.3298 52.658 53.3047 51.3716 52.664 50.34L49.4677 44.7248C48.6913 43.3211 49.4308 41.7197 50.7206 41.2248L47.9999 36.4836L44.5488 38.4768C43.4638 39.1031 42.1128 38.7988 41.4863 37.7141L37.8837 31.4748C37.2964 30.4576 37.6688 29.0661 38.7538 28.4397L61.0126 15.5441ZM39.3622 66.382C40.1538 63.428 43.1905 61.6745 46.1445 62.466C49.0985 63.2575 50.851 66.2942 50.0595 69.2483C49.2679 72.2021 46.2322 73.9547 43.2783 73.1633C40.3244 72.3718 38.5709 69.336 39.3622 66.382ZM63.2909 68.6018C63.3299 68.5833 63.3685 68.564 63.4072 68.5441C63.3685 68.564 63.3299 68.5833 63.2909 68.6018ZM63.5458 68.4699C63.5783 68.4516 63.6122 68.4356 63.6445 68.4162L63.6454 68.4152H63.6425C63.6106 68.4343 63.578 68.4518 63.5458 68.4699ZM83.4521 56.9533C83.3415 57.0329 83.2266 57.1085 83.1064 57.1779L83.1044 57.1799L83.1083 57.1789C83.2283 57.1096 83.3417 57.0327 83.4521 56.9533ZM83.4824 56.9309C83.5298 56.8961 83.5764 56.8609 83.622 56.8244C83.5765 56.8609 83.5297 56.8961 83.4824 56.9309ZM88.5878 39.4992C89.1183 37.5204 91.1529 36.346 93.1318 36.8762C95.1105 37.4066 96.2851 39.4411 95.7548 41.4201C95.2245 43.3993 93.1899 44.5734 91.2109 44.0432C89.2319 43.5129 88.0575 41.4784 88.5878 39.4992Z" fill="#DFB820"/>
<path d="M61.0126 15.5441L58.0126 10.348L58.0049 10.3525L61.0126 15.5441ZM64.0761 16.3068L69.2723 13.3069L69.272 13.3064L64.0761 16.3068ZM67.7177 22.6145L72.9144 19.6153L72.9139 19.6145L67.7177 22.6145ZM66.8613 25.5949L69.8604 30.7916L69.8616 30.7909L66.8613 25.5949ZM63.7343 27.3996L60.7351 22.203C57.8704 23.8564 56.884 27.5163 58.5299 30.3853L63.7343 27.3996ZM65.9658 31.2893L60.7614 34.275C61.9701 36.3819 64.3298 37.5521 66.7386 37.2393C69.1473 36.9264 71.1298 35.1921 71.7602 32.8464L65.9658 31.2893ZM66.246 30.2463L72.0405 31.8034L72.0416 31.7992L66.246 30.2463ZM70.9228 30.1233L76.6261 28.2599C76.6196 28.2401 76.6131 28.2203 76.6064 28.2006L70.9228 30.1233ZM73.2216 37.1594L67.5183 39.0228C67.5389 39.0858 67.5605 39.1484 67.5832 39.2107L73.2216 37.1594ZM75.8827 37.0705L81.6779 38.6248L81.6783 38.6235L75.8827 37.0705ZM79.6952 22.843L85.4908 24.396L85.4908 24.3959L79.6952 22.843ZM82.954 20.7346L84.1045 14.8459C84.0943 14.8439 84.0841 14.842 84.0739 14.84L82.954 20.7346ZM85.0722 24.1691L90.8677 25.7221L90.8678 25.7221L85.0722 24.1691ZM78.2216 49.7356L72.4261 48.1826C71.7978 50.5274 72.6442 53.0197 74.5705 54.4968C76.4968 55.974 79.1234 56.1449 81.2249 54.9298L78.2216 49.7356ZM78.6962 49.4611L75.6962 44.265L75.693 44.2669L78.6962 49.4611ZM84.5908 51.2121L89.7869 48.2121L89.7869 48.212L84.5908 51.2121ZM83.8593 56.6184L79.7563 52.2405C77.3392 54.5059 77.2154 58.3015 79.4798 60.7195C81.7441 63.1376 85.5396 63.263 87.9586 60.9997L83.8593 56.6184ZM83.954 56.5315L89.1222 53.4835C88.1806 51.8869 86.5539 50.8151 84.7153 50.5799C82.8767 50.3448 81.0326 50.9726 79.7195 52.2808L83.954 56.5315ZM84.0439 56.6838L89.2342 53.6737C89.2269 53.6611 89.2195 53.6485 89.2121 53.6359L84.0439 56.6838ZM94.1601 74.1272L99.4018 71.2074C99.3849 71.1772 99.3678 71.147 99.3504 71.1171L94.1601 74.1272ZM100.008 78.6184L98.4548 84.4139C98.4662 84.417 98.4775 84.42 98.4889 84.4229L100.008 78.6184ZM103.263 79.5529L105.055 73.8269L105.053 73.8264L103.263 79.5529ZM143.983 112.185L149.18 109.185L149.179 109.185L143.983 112.185ZM164.892 148.4L159.695 151.4L159.695 151.4L164.892 148.4ZM163 155.46L160 150.264L159.993 150.268L163 155.46ZM109.124 186.656L112.053 191.893C112.079 191.879 112.105 191.864 112.131 191.849L109.124 186.656ZM102.063 184.764L107.26 181.764L107.26 181.764L102.063 184.764ZM81.1542 148.549L75.9581 151.549L75.9581 151.549L81.1542 148.549ZM73.3124 96.968L69.0698 92.7253C68.2652 93.5299 67.706 94.5466 67.4574 95.657L73.3124 96.968ZM73.3134 96.967L77.556 101.21C78.361 100.405 78.9203 99.3874 79.1688 98.2764L73.3134 96.967ZM74.1406 93.6428L79.927 95.2293C79.9301 95.218 79.9332 95.2067 79.9362 95.1954L74.1406 93.6428ZM73.1894 86.2805L67.9931 89.2803L67.9931 89.2803L73.1894 86.2805ZM63.0878 68.7824L57.8871 71.7746L57.8915 71.7822L63.0878 68.7824ZM63.0468 68.7111L60.8475 63.1287C59.2245 63.7682 57.9601 65.0823 57.3837 66.7289C56.8074 68.3754 56.9762 70.1912 57.8461 71.7033L63.0468 68.7111ZM63.1298 68.674L65.4593 74.2034C68.5121 72.9172 69.9449 69.4004 68.6602 66.3471C67.3755 63.2937 63.8593 61.8592 60.8054 63.1426L63.1298 68.674ZM57.7343 66.718L52.5381 69.718L52.5382 69.718L57.7343 66.718ZM59.2187 60.7522L62.2187 65.9483L62.2305 65.9415L59.2187 60.7522ZM59.8261 60.3996L62.8379 65.5889C64.9346 64.372 66.093 62.0129 65.7739 59.6097C65.4547 57.2065 63.7207 55.2315 61.3791 54.6041L59.8261 60.3996ZM34.2089 53.5354L35.7619 47.7398L35.7618 47.7398L34.2089 53.5354ZM32.2939 49.9836L26.6289 48.0067C26.6029 48.0813 26.5783 48.1563 26.5553 48.2319L32.2939 49.9836ZM35.749 48.215L37.302 42.4195L37.3019 42.4195L35.749 48.215ZM51.1533 52.343L49.6002 58.1385L49.6014 58.1388L51.1533 52.343ZM52.664 50.34L47.4496 53.3082C47.4875 53.3748 47.5267 53.4407 47.5672 53.5059L52.664 50.34ZM49.4677 44.7248L44.2174 47.629C44.2292 47.6504 44.2412 47.6717 44.2533 47.693L49.4677 44.7248ZM50.7206 41.2248L52.8699 46.8267C54.5062 46.1989 55.7863 44.8869 56.3737 43.2356C56.961 41.5843 56.797 39.7587 55.9247 38.2385L50.7206 41.2248ZM47.9999 36.4836L53.204 33.4973C52.4105 32.1146 51.0994 31.1045 49.5601 30.69C48.0207 30.2755 46.3797 30.4906 44.9992 31.2879L47.9999 36.4836ZM44.5488 38.4768L47.5487 43.673L47.5495 43.6725L44.5488 38.4768ZM41.4863 37.7141L36.2902 40.7143L36.2907 40.7151L41.4863 37.7141ZM37.8837 31.4748L32.6876 34.4748L32.6877 34.475L37.8837 31.4748ZM38.7538 28.4397L41.7539 33.6358L41.7616 33.6313L38.7538 28.4397ZM39.3622 66.382L33.5667 64.8291L33.5666 64.8295L39.3622 66.382ZM46.1445 62.466L47.6974 56.6705L47.6974 56.6705L46.1445 62.466ZM50.0595 69.2483L55.855 70.8014L55.8551 70.8012L50.0595 69.2483ZM43.2783 73.1633L41.7253 78.9588L41.7254 78.9589L43.2783 73.1633ZM63.2909 68.6018L60.7213 63.1799C57.7278 64.5986 56.4505 68.175 57.868 71.1692C59.2855 74.1633 62.8614 75.4421 65.8561 74.0258L63.2909 68.6018ZM63.4072 68.5441L66.1489 73.8811C69.0959 72.3671 70.258 68.7511 68.7448 65.8037C67.2315 62.8564 63.6158 61.6934 60.668 63.2059L63.4072 68.5441ZM63.5458 68.4699L60.6 63.2429C57.7133 64.8697 56.6919 68.5286 58.3186 71.4154C59.9452 74.3022 63.604 75.3238 66.4909 73.6974L63.5458 68.4699ZM63.6445 68.4162L66.7344 73.5594C67.1539 73.3074 67.541 73.0049 67.8871 72.6589L63.6445 68.4162ZM63.6454 68.4152L67.8881 72.6579C69.6041 70.9419 70.1174 68.3612 69.1887 66.1191C68.26 63.8771 66.0722 62.4152 63.6454 62.4152V68.4152ZM63.6425 68.4152V62.4152C62.5559 62.4152 61.4897 62.7103 60.5577 63.269L63.6425 68.4152ZM83.4521 56.9533L86.9568 61.8234C89.6461 59.888 90.2576 56.1392 88.3228 53.4496C86.3879 50.7599 82.6392 50.1477 79.9492 52.082L83.4521 56.9533ZM83.1064 57.1779L80.1064 51.9818C79.6523 52.244 79.2345 52.5645 78.8637 52.9353L83.1064 57.1779ZM83.1044 57.1799L78.8618 52.9373C76.9548 54.8442 76.5545 57.7893 77.8832 60.1361C79.212 62.4829 81.9433 63.6548 84.5596 63.0007L83.1044 57.1799ZM83.1083 57.1789L84.5635 62.9998C85.1057 62.8642 85.6262 62.6536 86.11 62.3741L83.1083 57.1789ZM83.4824 56.9309L79.9329 52.0933C77.2616 54.0533 76.6846 57.8076 78.6441 60.4793C80.6035 63.151 84.3577 63.7288 87.0298 61.7699L83.4824 56.9309ZM83.622 56.8244L87.376 61.5049C89.9605 59.4321 90.3757 55.6568 88.3036 53.0718C86.2315 50.4867 82.4564 50.0704 79.8707 52.1417L83.622 56.8244ZM88.5878 39.4992L82.7925 37.9455L82.7923 37.9463L88.5878 39.4992ZM93.1318 36.8762L94.6853 31.0808L94.6847 31.0806L93.1318 36.8762ZM95.7548 41.4201L101.55 42.973L101.55 42.973L95.7548 41.4201ZM91.2109 44.0432L89.6578 49.8387L89.658 49.8387L91.2109 44.0432ZM61.0126 15.5441L64.0126 20.7403C62.4728 21.6293 60.0485 21.3305 58.8802 19.3073L64.0761 16.3068L69.272 13.3064C66.8506 9.11325 61.7225 8.20608 58.0126 10.348L61.0126 15.5441ZM64.0761 16.3068L58.8799 19.3068L62.5215 25.6144L67.7177 22.6145L72.9139 19.6145L69.2723 13.3069L64.0761 16.3068ZM67.7177 22.6145L62.521 25.6136C61.3818 23.6396 62.1997 21.3582 63.861 20.399L66.8613 25.5949L69.8616 30.7909C73.6926 28.5788 75.2277 23.6237 72.9144 19.6153L67.7177 22.6145ZM66.8613 25.5949L63.8621 20.3983L60.7351 22.203L63.7343 27.3996L66.7335 32.5962L69.8604 30.7916L66.8613 25.5949ZM63.7343 27.3996L58.5299 30.3853L60.7614 34.275L65.9658 31.2893L71.1701 28.3036L68.9387 24.4139L63.7343 27.3996ZM65.9658 31.2893L71.7602 32.8464L72.0405 31.8034L66.246 30.2463L60.4516 28.6892L60.1713 29.7322L65.9658 31.2893ZM66.246 30.2463L72.0416 31.7992C71.5653 33.5766 69.9531 34.4349 68.6899 34.4691C67.4275 34.5032 65.8127 33.7413 65.2392 32.0459L70.9228 30.1233L76.6064 28.2006C73.9819 20.4425 62.64 20.5221 60.4505 28.6934L66.246 30.2463ZM70.9228 30.1233L65.2195 31.9866L67.5183 39.0228L73.2216 37.1594L78.9249 35.296L76.6261 28.2599L70.9228 30.1233ZM73.2216 37.1594L67.5832 39.2107C69.8797 45.5232 79.6711 46.107 81.6779 38.6248L75.8827 37.0705L70.0876 35.5162C70.6733 33.3322 72.6512 32.1387 74.4429 32.0944C76.1636 32.0519 78.1139 33.057 78.8601 35.108L73.2216 37.1594ZM75.8827 37.0705L81.6783 38.6235L85.4908 24.396L79.6952 22.843L73.8997 21.29L70.0872 35.5175L75.8827 37.0705ZM79.6952 22.843L85.4908 24.3959C85.1203 25.7786 83.6546 26.975 81.8342 26.6291L82.954 20.7346L84.0739 14.84C79.3081 13.9346 75.044 17.0193 73.8997 21.2901L79.6952 22.843ZM82.954 20.7346L81.8035 26.6232C79.8811 26.2476 78.8166 24.3331 79.2766 22.6162L85.0722 24.1691L90.8678 25.7221C92.159 20.9029 89.1866 15.8388 84.1045 14.8459L82.954 20.7346ZM85.0722 24.1691L79.2766 22.6162L72.4261 48.1826L78.2216 49.7356L84.0172 51.2885L90.8677 25.7221L85.0722 24.1691ZM78.2216 49.7356L81.2249 54.9298L81.6995 54.6554L78.6962 49.4611L75.693 44.2669L75.2183 44.5413L78.2216 49.7356ZM78.6962 49.4611L81.6962 54.6573C81.2234 54.9303 80.6773 54.9664 80.2398 54.8374C79.8092 54.7105 79.5292 54.4453 79.3946 54.2122L84.5908 51.2121L89.7869 48.212C87.0197 43.4193 80.8415 41.2944 75.6962 44.265L78.6962 49.4611ZM84.5908 51.2121L79.3946 54.2121C79.082 53.6707 79.1012 52.8546 79.7563 52.2405L83.8593 56.6184L87.9623 60.9962C91.471 57.7077 92.1966 52.3858 89.7869 48.2121L84.5908 51.2121ZM83.8593 56.6184L87.9586 60.9997C87.9239 61.0321 87.8978 61.0556 87.8907 61.0619C87.887 61.0653 87.8849 61.0672 87.8882 61.0642C87.8896 61.063 87.8986 61.0549 87.907 61.0474C87.9247 61.0316 87.9624 60.9978 88.0077 60.9558C88.0541 60.9128 88.1167 60.8537 88.1886 60.7821L83.954 56.5315L79.7195 52.2808C79.7762 52.2243 79.8233 52.1799 79.854 52.1515C79.8696 52.137 79.8823 52.1254 79.891 52.1175C79.8996 52.1098 79.9056 52.1044 79.9071 52.1031C79.9075 52.1027 79.9086 52.1018 79.9019 52.1077C79.8972 52.1119 79.8871 52.1209 79.8754 52.1314C79.8523 52.1521 79.8104 52.1899 79.76 52.2371L83.8593 56.6184ZM83.954 56.5315L78.7858 59.5794L78.8757 59.7317L84.0439 56.6838L89.2121 53.6359L89.1222 53.4835L83.954 56.5315ZM84.0439 56.6838L78.8536 59.6939L88.9698 77.1373L94.1601 74.1272L99.3504 71.1171L89.2342 53.6737L84.0439 56.6838ZM94.1601 74.1272L88.9184 77.0469C90.991 80.7678 94.5161 83.3585 98.4548 84.4139L100.008 78.6184L101.561 72.8228C100.579 72.5597 99.8064 71.9339 99.4018 71.2074L94.1601 74.1272ZM100.008 78.6184L98.4889 84.4229C99.4907 84.6851 100.485 84.9709 101.472 85.2794L103.263 79.5529L105.053 73.8264C103.889 73.4624 102.714 73.1244 101.527 72.8138L100.008 78.6184ZM103.263 79.5529L101.47 85.279C117.165 90.1914 130.514 100.855 138.787 115.185L143.983 112.185L149.179 109.185C139.4 92.2468 123.62 79.638 105.055 73.8269L103.263 79.5529ZM143.983 112.185L138.787 115.185L159.695 151.4L164.892 148.4L170.088 145.4L149.18 109.185L143.983 112.185ZM164.892 148.4L159.695 151.4C159.553 151.152 159.554 150.914 159.594 150.764C159.634 150.614 159.752 150.407 160 150.264L163 155.46L166 160.656C171.312 157.59 173.154 150.71 170.088 145.4L164.892 148.4ZM163 155.46L159.993 150.268L106.117 181.464L109.124 186.656L112.131 191.849L166.007 160.653L163 155.46ZM109.124 186.656L106.195 181.42C106.499 181.25 106.991 181.298 107.26 181.764L102.063 184.764L96.8673 187.764C99.9553 193.112 106.759 194.853 112.053 191.893L109.124 186.656ZM102.063 184.764L107.26 181.764L86.3503 145.549L81.1542 148.549L75.9581 151.549L96.8673 187.764L102.063 184.764ZM81.1542 148.549L86.3504 145.549C78.0881 131.238 75.564 114.372 79.1675 98.279L73.3124 96.968L67.4574 95.657C63.2017 114.663 66.1782 134.61 75.9581 151.549L81.1542 148.549ZM73.3124 96.968L77.5551 101.211L77.556 101.21L73.3134 96.967L69.0708 92.7244L69.0698 92.7253L73.3124 96.968ZM73.3134 96.967L79.1688 98.2764C79.3965 97.2582 79.6493 96.2421 79.927 95.2293L74.1406 93.6428L68.3541 92.0563C68.0264 93.2516 67.7275 94.4524 67.458 95.6576L73.3134 96.967ZM74.1406 93.6428L79.9362 95.1954C81.0148 91.1691 80.4855 86.918 78.3856 83.2807L73.1894 86.2805L67.9931 89.2803C68.4771 90.1185 68.613 91.0893 68.3449 92.0902L74.1406 93.6428ZM73.1894 86.2805L78.3857 83.2807L68.2841 65.7826L63.0878 68.7824L57.8915 71.7822L67.9931 89.2803L73.1894 86.2805ZM63.0878 68.7824L68.2885 65.7903L68.2475 65.719L63.0468 68.7111L57.8461 71.7033L57.8872 71.7746L63.0878 68.7824ZM63.0468 68.7111L65.2461 74.2935C65.3565 74.25 65.4472 74.2107 65.509 74.1832C65.5685 74.1567 65.6164 74.1343 65.6294 74.1282C65.6331 74.1265 65.6369 74.1247 65.6378 74.1243C65.6394 74.1235 65.6388 74.1238 65.6376 74.1244C65.6353 74.1255 65.6252 74.1302 65.6114 74.1365C65.5846 74.1488 65.528 74.1745 65.4542 74.2055L63.1298 68.674L60.8054 63.1426C60.7606 63.1614 60.7212 63.1786 60.6883 63.1931C60.6556 63.2076 60.6277 63.2203 60.6066 63.23C60.5859 63.2395 60.5689 63.2474 60.5598 63.2517C60.5551 63.2538 60.551 63.2557 60.5493 63.2566C60.5467 63.2578 60.547 63.2576 60.5474 63.2575C60.5482 63.2571 60.5571 63.2529 60.5695 63.2472C60.5822 63.2413 60.6019 63.2323 60.6264 63.2214C60.651 63.2105 60.6823 63.1968 60.7188 63.1813C60.7555 63.1658 60.7987 63.148 60.8475 63.1287L63.0468 68.7111ZM63.1298 68.674L60.8003 63.1447C61.8671 62.6953 62.6656 63.2593 62.9305 63.718L57.7343 66.718L52.5382 69.718C55.0325 74.0384 60.4751 76.3032 65.4593 74.2034L63.1298 68.674ZM57.7343 66.718L62.9305 63.718C63.2678 64.3022 63.2337 65.3623 62.2187 65.9483L59.2187 60.7522L56.2187 55.556C51.1346 58.4913 49.7733 64.929 52.5381 69.718L57.7343 66.718ZM59.2187 60.7522L62.2305 65.9415L62.8379 65.5889L59.8261 60.3996L56.8143 55.2103L56.2069 55.5628L59.2187 60.7522ZM59.8261 60.3996L61.3791 54.6041L35.7619 47.7398L34.2089 53.5354L32.656 59.3309L58.2732 66.1952L59.8261 60.3996ZM34.2089 53.5354L35.7618 47.7398C37.6474 48.245 38.5227 50.1292 38.0325 51.7353L32.2939 49.9836L26.5553 48.2319C25.1268 52.9115 27.7752 58.0231 32.656 59.3309L34.2089 53.5354ZM32.2939 49.9836L37.9588 51.9605C37.3488 53.7087 35.5805 54.3816 34.196 54.0106L35.749 48.215L37.3019 42.4195C33.0292 41.2746 28.2269 43.4276 26.6289 48.0067L32.2939 49.9836ZM35.749 48.215L34.1959 54.0106L49.6002 58.1385L51.1533 52.343L52.7063 46.5475L37.302 42.4195L35.749 48.215ZM51.1533 52.343L49.6014 58.1388C55.846 59.8108 61.3721 52.9882 57.7608 47.1742L52.664 50.34L47.5672 53.5059C45.2373 49.7549 48.8136 45.5052 52.7051 46.5471L51.1533 52.343ZM52.664 50.34L57.8784 47.3719L54.6821 41.7567L49.4677 44.7248L44.2533 47.693L47.4496 53.3082L52.664 50.34ZM49.4677 44.7248L54.718 41.8207C55.8382 43.8459 54.7209 46.1165 52.8699 46.8267L50.7206 41.2248L48.5714 35.623C44.1406 37.3229 41.5443 42.7963 44.2174 47.629L49.4677 44.7248ZM50.7206 41.2248L55.9247 38.2385L53.204 33.4973L47.9999 36.4836L42.7959 39.4699L45.5166 44.2111L50.7206 41.2248ZM47.9999 36.4836L44.9992 31.2879L41.5481 33.281L44.5488 38.4768L47.5495 43.6725L51.0006 41.6793L47.9999 36.4836ZM44.5488 38.4768L41.5489 33.2806C43.0902 32.3907 45.5143 32.6917 46.6818 34.7131L41.4863 37.7141L36.2907 40.7151C38.7113 44.9059 43.8374 45.8156 47.5487 43.673L44.5488 38.4768ZM41.4863 37.7141L46.6823 34.7139L43.0798 28.4746L37.8837 31.4748L32.6877 34.475L36.2902 40.7143L41.4863 37.7141ZM37.8837 31.4748L43.0799 28.4748C44.2161 30.4427 43.4217 32.6728 41.7539 33.6358L38.7538 28.4397L35.7537 23.2436C31.9158 25.4595 30.3767 30.4724 32.6876 34.4748L37.8837 31.4748ZM38.7538 28.4397L41.7616 33.6313L64.0204 20.7358L61.0126 15.5441L58.0049 10.3525L35.7461 23.248L38.7538 28.4397ZM39.3622 66.382L45.1578 67.935C45.0918 68.1813 44.8388 68.3278 44.5916 68.2616L46.1445 62.466L47.6974 56.6705C41.5422 55.0212 35.2158 58.6747 33.5667 64.8291L39.3622 66.382ZM46.1445 62.466L44.5915 68.2616C44.3437 68.1952 44.1981 67.941 44.2639 67.6953L50.0595 69.2483L55.8551 70.8012C57.504 64.6474 53.8533 58.3199 47.6974 56.6705L46.1445 62.466ZM50.0595 69.2483L44.264 67.6951C44.3301 67.4483 44.5843 67.3016 44.8311 67.3677L43.2783 73.1633L41.7254 78.9589C47.88 80.6079 54.2056 76.9559 55.855 70.8014L50.0595 69.2483ZM43.2783 73.1633L44.8312 67.3677C45.077 67.4336 45.2243 67.6868 45.1579 67.9346L39.3622 66.382L33.5666 64.8295C31.9176 70.9852 35.5718 77.31 41.7253 78.9588L43.2783 73.1633ZM63.2909 68.6018L65.8561 74.0258C65.9762 73.969 66.0779 73.9175 66.1463 73.8824L63.4072 68.5441L60.668 63.2059C60.6645 63.2077 60.6686 63.2056 60.6778 63.201C60.6871 63.1963 60.7036 63.1882 60.7258 63.1778L63.2909 68.6018ZM63.4072 68.5441L60.6654 63.2072C60.6655 63.2072 60.6667 63.2065 60.669 63.2054C60.6714 63.2042 60.6749 63.2024 60.6796 63.2001C60.6887 63.1956 60.7029 63.1886 60.7213 63.1799L63.2909 68.6018L65.8606 74.0237C65.9742 73.9698 66.0728 73.9202 66.1489 73.8811L63.4072 68.5441ZM63.5458 68.4699L66.4916 73.697C66.4392 73.7265 66.399 73.748 66.384 73.756C66.3761 73.7601 66.3709 73.7629 66.3725 73.762C66.3737 73.7614 66.3738 73.7614 66.3774 73.7595C66.38 73.7581 66.3844 73.7558 66.3894 73.7532C66.4073 73.7438 66.4525 73.7199 66.5076 73.6897C66.5642 73.6586 66.6427 73.6145 66.7344 73.5594L63.6445 68.4162L60.5545 63.273C60.6301 63.2276 60.6923 63.1928 60.7325 63.1707C60.753 63.1595 60.7696 63.1505 60.7808 63.1445C60.7918 63.1387 60.7996 63.1346 60.8011 63.1338C60.802 63.1333 60.8022 63.1332 60.8007 63.134C60.8002 63.1343 60.7961 63.1364 60.7932 63.1379C60.7865 63.1414 60.773 63.1486 60.7569 63.1571C60.7404 63.1659 60.7182 63.1777 60.6923 63.1918C60.6664 63.2059 60.6351 63.2231 60.6 63.2429L63.5458 68.4699ZM63.6445 68.4162L67.8871 72.6589L67.8881 72.6579L63.6454 68.4152L59.4028 64.1726L59.4018 64.1736L63.6445 68.4162ZM63.6454 68.4152V62.4152H63.6425V68.4152V74.4152H63.6454V68.4152ZM63.6425 68.4152L60.5577 63.269C60.5911 63.249 60.6183 63.2332 60.6369 63.2226C60.6551 63.2121 60.668 63.2049 60.671 63.2032C60.6727 63.2023 60.6731 63.2021 60.6708 63.2033C60.6697 63.204 60.6685 63.2047 60.6664 63.2058C60.6646 63.2068 60.6619 63.2083 60.6591 63.2099C60.6487 63.2156 60.6266 63.2279 60.6008 63.2424L63.5458 68.4699L66.4909 73.6974C66.4812 73.7029 66.4752 73.7062 66.481 73.703C66.4818 73.7025 66.5013 73.6918 66.5175 73.6827C66.5531 73.6628 66.6321 73.6185 66.7273 73.5615L63.6425 68.4152ZM83.4521 56.9533L79.9474 52.0833C79.9727 52.0651 80.0266 52.0278 80.1064 51.9818L83.1064 57.1779L86.1064 62.3741C86.4266 62.1892 86.7103 62.0007 86.9568 61.8234L83.4521 56.9533ZM83.1064 57.1779L78.8637 52.9353L78.8618 52.9373L83.1044 57.1799L87.3471 61.4225L87.349 61.4206L83.1064 57.1779ZM83.1044 57.1799L84.5596 63.0007L84.5635 62.9998L83.1083 57.1789L81.6531 51.3581L81.6492 51.359L83.1044 57.1799ZM83.1083 57.1789L86.11 62.3741C86.4694 62.1665 86.7614 61.9639 86.9549 61.8247L83.4521 56.9533L79.9492 52.082C79.938 52.0901 79.9481 52.0825 79.9729 52.0661C79.9983 52.0493 80.044 52.0199 80.1066 51.9837L83.1083 57.1789ZM83.4824 56.9309L87.0298 61.7699C87.1177 61.7054 87.2381 61.6155 87.3733 61.5071L83.622 56.8244L79.8707 52.1417C79.9148 52.1064 79.9418 52.0869 79.9349 52.0919L83.4824 56.9309ZM83.622 56.8244L79.868 52.1439C79.8933 52.1236 79.9125 52.1088 79.9231 52.1008C79.9335 52.0929 79.9379 52.0897 79.9329 52.0933L83.4824 56.9309L87.0318 61.7684C87.1142 61.7079 87.2369 61.6165 87.376 61.5049L83.622 56.8244ZM88.5878 39.4992L94.3832 41.0529C94.0557 42.2745 92.8004 42.9991 91.5789 42.6717L93.1318 36.8762L94.6847 31.0806C89.5054 29.6928 84.181 32.7662 82.7925 37.9455L88.5878 39.4992ZM93.1318 36.8762L91.5782 42.6716C90.3565 42.3441 89.632 41.0887 89.9592 39.8673L95.7548 41.4201L101.55 42.973C102.938 37.7935 99.8645 32.4692 94.6853 31.0808L93.1318 36.8762ZM95.7548 41.4201L89.9593 39.8672C90.2869 38.6444 91.5432 37.9206 92.7638 38.2476L91.2109 44.0432L89.658 49.8387C94.8366 51.2263 100.162 48.1542 101.55 42.973L95.7548 41.4201ZM91.2109 44.0432L92.7639 38.2477C93.9863 38.5752 94.7105 39.8312 94.3834 41.0521L88.5878 39.4992L82.7923 37.9463C81.4045 43.1255 84.4775 48.4505 89.6578 49.8387L91.2109 44.0432Z" fill="white" mask="url(#path-1-outside-1_1062_21629)"/>
<path d="M68.8863 39.4378L55.7974 46.9947C55.0514 47.4254 54.1421 47.1818 53.7114 46.4358L46.3254 33.5647L62.0593 24.4807L69.4452 37.3519C69.8759 38.0979 69.6323 39.0071 68.8863 39.4378Z" fill="#70B5F9"/>
<path d="M82.9544 20.735C81.4816 20.4551 80.0823 21.3986 79.6953 22.8428L75.8831 37.0702C75.5248 38.4074 73.6842 38.4301 73.222 37.1597L70.9227 30.123C70.1549 27.8536 66.8626 27.9459 66.2463 30.2458L63.5233 40.4083C62.993 42.3873 61.0263 43.5228 59.1008 43.0068L52.201 41.1581C50.115 40.5991 48.4252 42.8407 49.468 44.7253L52.6644 50.3399C53.3052 51.3715 52.3299 52.658 51.1532 52.3427L35.7491 48.2151C34.3049 47.8282 32.7881 48.5683 32.2942 49.9837C31.8251 51.5205 32.7113 53.1337 34.209 53.535L60.2892 60.5232L70.4084 57.5021L78.1063 50.1677L85.0727 24.169C85.4883 22.6179 84.5342 21.0437 82.9544 20.735Z" fill="#D7E8FC"/>
<path d="M59.2184 60.7523L78.6966 49.4611C80.7311 48.2865 83.3377 49.0422 84.5906 51.2124C85.8044 53.3148 85.1413 56.0034 83.1068 57.1781L77.2284 70.272L63.6429 68.4158C61.594 69.6439 58.9484 68.8204 57.7346 66.718C56.5208 64.6156 57.1839 61.927 59.2184 60.7523Z" fill="#4B9AE8"/>
<path d="M73.3137 96.9675C69.384 114.518 72.1344 132.924 81.1557 148.549L102.064 184.764C103.474 187.206 106.63 188.051 109.125 186.656L163.001 155.46C165.442 154.05 166.302 150.841 164.893 148.4L143.984 112.185C134.958 96.5506 120.393 84.9142 103.263 79.5525L102.771 79.7806L83.2722 81.0832L73.7499 96.6596L73.3137 96.9675Z" fill="#4B9AE8"/>
<path d="M66.8614 25.5953L44.5492 38.4772C43.4641 39.1037 42.1126 38.7989 41.4861 37.7138L37.8839 31.4745C37.2965 30.4572 37.6692 29.0666 38.7542 28.4401L61.013 15.5438C62.0981 14.9173 63.4496 15.2221 64.076 16.3072L67.7174 22.6143C68.3048 23.6316 67.9465 24.9688 66.8614 25.5953Z" fill="#9FCFFF"/>
<path d="M63.0466 68.7112C63.2502 68.631 63.45 68.5333 63.6447 68.4163L83.1084 57.1789C83.4238 56.9967 83.7065 56.7782 83.9544 56.5312L84.0436 56.6841L94.1598 74.1278C95.3985 76.3514 97.5474 77.9591 100.008 78.6184C101.102 78.9048 102.187 79.2166 103.262 79.5529L102.77 79.7816L96.0377 95.7134C95.1098 97.8651 93.1714 99.0723 90.844 98.8001L73.7492 96.6606L73.3132 96.968C73.5618 95.8559 73.8375 94.7478 74.1403 93.6434C74.8139 91.1295 74.4818 88.5181 73.1897 86.2801L63.0876 68.783L63.0466 68.7112Z" fill="#9FCFFF"/>
<path d="M109.07 169.731L148.012 147.203C148.826 146.733 149.113 145.663 148.643 144.85L135.697 122.348C135.227 121.534 134.158 121.248 133.344 121.718L94.4017 144.246C93.5879 144.716 93.3013 145.786 93.7711 146.599L106.717 169.101C107.187 169.915 108.257 170.201 109.07 169.731Z" fill="#306BA5"/>
<path d="M95.7548 41.4201C95.2245 43.3992 93.19 44.5737 91.211 44.0434C89.232 43.5132 88.0573 41.4788 88.5876 39.4996C89.1179 37.5205 91.1524 36.346 93.1315 36.8762C95.1105 37.4065 96.2851 39.4409 95.7548 41.4201Z" fill="#C7E1FF"/>
<path d="M50.06 69.2482C49.2685 72.2023 46.2322 73.9552 43.2782 73.1637C40.3243 72.3722 38.5712 69.3359 39.3627 66.3819C40.1543 63.4278 43.1906 61.6749 46.1446 62.4664C49.0986 63.2579 50.8516 66.2941 50.06 69.2482Z" fill="#C7E1FF"/>
<mask id="path-12-outside-2_1062_21629" maskUnits="userSpaceOnUse" x="87.0892" y="99.3405" width="36.7487" height="35.6506" fill="black">
<rect fill="white" x="87.0892" y="99.3405" width="36.7487" height="35.6506"/>
<path d="M101.327 107.43C106.164 104.637 112.35 106.295 115.143 111.132C117.936 115.97 116.279 122.156 111.441 124.949C107.408 127.278 102.437 126.512 99.2774 123.388C98.1696 124.147 96.1945 124.509 95.4743 123.794C94.6614 122.986 95.2135 120.575 96.169 119.616C96.3413 119.443 96.5259 119.294 96.7185 119.171C95.3533 114.76 97.1588 109.836 101.327 107.43Z"/>
</mask>
<path d="M101.327 107.43C106.164 104.637 112.35 106.295 115.143 111.132C117.936 115.97 116.279 122.156 111.441 124.949C107.408 127.278 102.437 126.512 99.2774 123.388C98.1696 124.147 96.1945 124.509 95.4743 123.794C94.6614 122.986 95.2135 120.575 96.169 119.616C96.3413 119.443 96.5259 119.294 96.7185 119.171C95.3533 114.76 97.1588 109.836 101.327 107.43Z" fill="#DFB820"/>
<path d="M101.327 107.43L100.342 105.725L100.342 105.725L101.327 107.43ZM115.143 111.132L116.848 110.148L116.848 110.148L115.143 111.132ZM111.441 124.949L112.426 126.654L112.426 126.654L111.441 124.949ZM99.2774 123.388L100.661 121.988L99.5053 120.846L98.1646 121.764L99.2774 123.388ZM95.4743 123.794L94.0864 125.19L94.0866 125.19L95.4743 123.794ZM96.169 119.616L94.7748 118.226L94.7745 118.226L96.169 119.616ZM96.7185 119.171L97.775 120.833L99.0439 120.026L98.5993 118.589L96.7185 119.171ZM101.327 107.43L102.311 109.135C106.207 106.886 111.188 108.221 113.438 112.117L115.143 111.132L116.848 110.148C113.511 104.369 106.121 102.388 100.342 105.725L101.327 107.43ZM115.143 111.132L113.438 112.116C115.687 116.013 114.353 120.995 110.457 123.244L111.441 124.949L112.426 126.654C118.205 123.317 120.185 115.927 116.848 110.148L115.143 111.132ZM111.441 124.949L110.457 123.244C107.211 125.118 103.207 124.504 100.661 121.988L99.2774 123.388L97.8934 124.789C101.668 128.519 107.604 129.438 112.426 126.654L111.441 124.949ZM99.2774 123.388L98.1646 121.764C97.896 121.948 97.4261 122.132 96.9715 122.192C96.7539 122.221 96.6181 122.211 96.5666 122.201C96.5027 122.19 96.6658 122.202 96.8619 122.397L95.4743 123.794L94.0866 125.19C94.6429 125.743 95.323 125.978 95.8666 126.076C96.4225 126.177 96.9848 126.163 97.4894 126.096C98.4793 125.964 99.5509 125.588 100.39 125.013L99.2774 123.388ZM95.4743 123.794L96.8622 122.397C97.0806 122.614 97.0726 122.79 97.0569 122.673C97.0442 122.579 97.0432 122.391 97.093 122.127C97.1413 121.872 97.2252 121.612 97.3287 121.389C97.4375 121.155 97.5329 121.037 97.5635 121.006L96.169 119.616L94.7745 118.226C93.9282 119.075 93.4252 120.332 93.224 121.395C93.118 121.956 93.0716 122.581 93.1542 123.197C93.2337 123.789 93.4616 124.569 94.0864 125.19L95.4743 123.794ZM96.169 119.616L97.5632 121.006C97.6403 120.929 97.7128 120.872 97.775 120.833L96.7185 119.171L95.662 117.51C95.339 117.715 95.0423 117.958 94.7748 118.226L96.169 119.616ZM96.7185 119.171L98.5993 118.589C97.4998 115.036 98.9571 111.071 102.311 109.135L101.327 107.43L100.342 105.725C95.3604 108.601 93.2069 114.484 94.8377 119.753L96.7185 119.171Z" fill="white" mask="url(#path-12-outside-2_1062_21629)"/>
<path d="M111.44 124.949C116.278 122.156 117.935 115.97 115.142 111.132C112.349 106.294 106.163 104.637 101.325 107.43C96.4873 110.223 94.8297 116.409 97.6228 121.247C100.416 126.085 106.602 127.742 111.44 124.949Z" fill="#4B98E6"/>
<circle cx="101.851" cy="115.75" r="2.64725" transform="rotate(-30 101.851 115.75)" fill="white"/>
<circle cx="101.85" cy="115.749" r="1.58835" transform="rotate(-30 101.85 115.749)" fill="#161616"/>
<circle cx="101.85" cy="115.749" r="1.58835" transform="rotate(-30 101.85 115.749)" fill="#161616"/>
<path d="M99.6606 123.078C98.7025 124.038 96.2889 124.601 95.4758 123.793C94.6627 122.986 95.2149 120.574 96.1707 119.615C97.1265 118.657 98.4355 118.405 99.6468 119.608C100.873 120.826 100.616 122.12 99.6583 123.08L99.6606 123.078Z" fill="#DFB820"/>
</svg>
