<svg width="200" height="200" viewBox="0 0 200 200" fill="none" xmlns="http://www.w3.org/2000/svg">
<mask id="path-1-outside-1_1347_1440" maskUnits="userSpaceOnUse" x="9.69464" y="28.9521" width="180" height="139" fill="black">
<rect fill="white" x="9.69464" y="28.9521" width="180" height="139"/>
<path d="M93.7112 53.6875C97.9835 43.7371 119.156 26.9783 117.587 39.3037C116.797 45.5018 116.227 53.0977 116.5 60.2705C119.117 58.736 122.072 57.0303 123.083 56.7148C139.118 51.6699 155.5 56.7152 161.5 74.5C164.526 82.3865 163.213 90.966 158.796 97.957C163.512 96.8411 164.085 99.8328 162.48 104.172C168.142 105.19 173.092 106.275 177.252 107.345C181.151 108.348 183.445 112.244 182.704 116.201L175.539 154.473C174.831 158.257 171.526 161 167.676 161H29.3294C25.3064 161 21.9091 158.02 21.4075 154.028C20.0441 143.179 18.0959 127.168 16.7396 114.492C16.302 110.403 19.0749 106.671 23.1214 105.938C26.348 105.353 29.5485 104.811 32.721 104.31L32.5247 104.021L32.4173 103.847C31.9293 102.949 32.1915 101.81 33.053 101.222C33.9144 100.634 35.0695 100.804 35.7278 101.584L35.8528 101.749L37.1419 103.636C39.2614 103.323 41.3676 103.028 43.4603 102.75C43.2446 101.105 43.1148 99.4241 43.0687 97.7168C42.2091 65.9515 59.0977 55.8277 78.6771 54.7041C84.1501 54.3892 88.9285 54.4282 93.2386 54.9688C93.3821 54.5155 93.5396 54.087 93.7112 53.6875Z"/>
</mask>
<path d="M93.7112 53.6875C97.9835 43.7371 119.156 26.9783 117.587 39.3037C116.797 45.5018 116.227 53.0977 116.5 60.2705C119.117 58.736 122.072 57.0303 123.083 56.7148C139.118 51.6699 155.5 56.7152 161.5 74.5C164.526 82.3865 163.213 90.966 158.796 97.957C163.512 96.8411 164.085 99.8328 162.48 104.172C168.142 105.19 173.092 106.275 177.252 107.345C181.151 108.348 183.445 112.244 182.704 116.201L175.539 154.473C174.831 158.257 171.526 161 167.676 161H29.3294C25.3064 161 21.9091 158.02 21.4075 154.028C20.0441 143.179 18.0959 127.168 16.7396 114.492C16.302 110.403 19.0749 106.671 23.1214 105.938C26.348 105.353 29.5485 104.811 32.721 104.31L32.5247 104.021L32.4173 103.847C31.9293 102.949 32.1915 101.81 33.053 101.222C33.9144 100.634 35.0695 100.804 35.7278 101.584L35.8528 101.749L37.1419 103.636C39.2614 103.323 41.3676 103.028 43.4603 102.75C43.2446 101.105 43.1148 99.4241 43.0687 97.7168C42.2091 65.9515 59.0977 55.8277 78.6771 54.7041C84.1501 54.3892 88.9285 54.4282 93.2386 54.9688C93.3821 54.5155 93.5396 54.087 93.7112 53.6875Z" fill="#EAC00F"/>
<path d="M93.7112 53.6875L99.224 56.0561L99.2245 56.0547L93.7112 53.6875ZM117.587 39.3037L123.539 40.0626L123.539 40.061L117.587 39.3037ZM116.5 60.2705L110.505 60.4992C110.585 62.6077 111.767 64.5191 113.618 65.5328C115.469 66.5465 117.716 66.5135 119.536 65.446L116.5 60.2705ZM123.083 56.7148L124.87 62.4427C124.875 62.4412 124.879 62.4397 124.884 62.4382L123.083 56.7148ZM161.5 74.5L155.815 76.418C155.841 76.4957 155.869 76.5728 155.898 76.6493L161.5 74.5ZM158.796 97.957L153.724 94.7523C152.421 96.8135 152.496 99.4578 153.912 101.442C155.329 103.427 157.805 104.357 160.178 103.796L158.796 97.957ZM162.48 104.172L156.852 102.09C156.236 103.756 156.39 105.608 157.271 107.15C158.152 108.691 159.671 109.763 161.418 110.077L162.48 104.172ZM177.252 107.345L178.747 101.534L177.252 107.345ZM182.704 116.201L188.602 117.305L182.704 116.201ZM175.539 154.473L181.437 155.577L181.437 155.577L175.539 154.473ZM167.676 161V167H167.676L167.676 161ZM21.4075 154.028L15.4544 154.776H15.4544L21.4075 154.028ZM16.7396 114.492L10.7736 115.131L16.7396 114.492ZM23.1214 105.938L22.0517 100.034H22.0517L23.1214 105.938ZM32.721 104.31L33.6582 110.236C35.6885 109.915 37.4132 108.577 38.2287 106.69C39.0441 104.803 38.8369 102.63 37.6794 100.931L32.721 104.31ZM32.5247 104.021L27.4128 107.163C27.4621 107.243 27.5133 107.322 27.5663 107.4L32.5247 104.021ZM32.4173 103.847L27.1464 106.713C27.197 106.806 27.25 106.898 27.3054 106.988L32.4173 103.847ZM33.053 101.222L29.6701 96.2663L29.6684 96.2674L33.053 101.222ZM35.7278 101.584L40.5108 97.9614C40.4472 97.8775 40.3815 97.7952 40.3136 97.7148L35.7278 101.584ZM35.8528 101.749L40.807 98.3642C40.7518 98.2836 40.6948 98.2043 40.6358 98.1264L35.8528 101.749ZM37.1419 103.636L32.1878 107.021C33.4831 108.916 35.7466 109.907 38.018 109.571L37.1419 103.636ZM43.4603 102.75L44.2492 108.698C47.5306 108.263 49.8396 105.252 49.4094 101.97L43.4603 102.75ZM43.0687 97.7168L49.0665 97.5546L49.0665 97.5545L43.0687 97.7168ZM78.6771 54.7041L79.0208 60.6942L79.0218 60.6942L78.6771 54.7041ZM93.2386 54.9688L92.4919 60.9221C95.3643 61.2824 98.0844 59.5403 98.9585 56.7804L93.2386 54.9688ZM93.7112 53.6875L99.2245 56.0547C99.9054 54.4689 101.514 52.1379 103.876 49.5761C106.172 47.0853 108.841 44.7443 111.251 43.0776C112.457 42.2439 113.494 41.6523 114.301 41.2905C115.203 40.8865 115.412 40.9532 115.097 40.9521C114.525 40.95 113.021 40.6362 112.094 39.147C111.452 38.1157 111.764 37.5314 111.635 38.5464L117.587 39.3037L123.539 40.061C123.802 37.9946 123.796 35.2379 122.28 32.8028C120.478 29.9098 117.544 28.9609 115.141 28.9522C112.994 28.9444 110.972 29.6329 109.396 30.339C107.725 31.0873 106.037 32.0941 104.427 33.2067C101.207 35.4329 97.8794 38.377 95.0536 41.4418C92.2932 44.4357 89.6532 47.9309 88.1979 51.3203L93.7112 53.6875ZM117.587 39.3037L111.635 38.5448C110.818 44.9531 110.215 52.8964 110.505 60.4992L116.5 60.2705L122.496 60.0418C122.239 53.2989 122.776 46.0504 123.539 40.0626L117.587 39.3037ZM116.5 60.2705L119.536 65.446C120.843 64.6794 122.175 63.905 123.292 63.2892C123.851 62.9806 124.312 62.7363 124.662 62.5628C125.1 62.3454 125.108 62.3685 124.87 62.4427L123.083 56.7148L121.297 50.987C120.091 51.3632 118.525 52.2141 117.496 52.7818C116.227 53.4814 114.774 54.3271 113.465 55.095L116.5 60.2705ZM123.083 56.7148L124.884 62.4382C131.844 60.2483 138.459 60.3817 143.747 62.5848C148.897 64.7302 153.33 69.0506 155.815 76.418L161.5 74.5L167.186 72.582C163.671 62.1645 156.912 55.0699 148.362 51.5077C139.95 48.0033 130.356 48.1365 121.283 50.9915L123.083 56.7148ZM161.5 74.5L155.898 76.6493C158.164 82.5545 157.258 89.159 153.724 94.7523L158.796 97.957L163.869 101.162C169.169 92.7729 170.888 82.2185 167.102 72.3507L161.5 74.5ZM158.796 97.957L160.178 103.796C160.857 103.635 160.656 103.815 159.988 103.63C159.603 103.524 159.101 103.304 158.608 102.891C158.11 102.475 157.771 101.987 157.562 101.537C157.189 100.729 157.316 100.239 157.282 100.542C157.256 100.778 157.15 101.285 156.852 102.09L162.48 104.172L168.107 106.254C168.612 104.889 169.037 103.395 169.207 101.885C169.369 100.442 169.36 98.4594 168.455 96.5011C167.422 94.2674 165.516 92.7086 163.187 92.0642C161.135 91.4968 159.093 91.721 157.415 92.1183L158.796 97.957ZM162.48 104.172L161.418 110.077C166.953 111.072 171.757 112.126 175.758 113.156L177.252 107.345L178.747 101.534C174.427 100.423 169.332 99.3073 163.541 98.2665L162.48 104.172ZM177.252 107.345L175.758 113.156C176.376 113.315 177.01 114.014 176.807 115.097L182.704 116.201L188.602 117.305C189.881 110.474 185.926 103.381 178.747 101.534L177.252 107.345ZM182.704 116.201L176.807 115.097L169.642 153.369L175.539 154.473L181.437 155.577L188.602 117.305L182.704 116.201ZM175.539 154.473L169.642 153.368C169.465 154.314 168.639 155 167.676 155L167.676 161L167.676 167C174.414 167 180.197 162.2 181.437 155.577L175.539 154.473ZM167.676 161V155H29.3294V161V167H167.676V161ZM29.3294 161V155C28.3127 155 27.483 154.253 27.3607 153.28L21.4075 154.028L15.4544 154.776C16.3353 161.787 22.3 167 29.3294 167V161ZM21.4075 154.028L27.3607 153.28C25.9987 142.442 24.0559 126.474 22.7055 113.854L16.7396 114.492L10.7736 115.131C12.1358 127.861 14.0895 143.915 15.4544 154.776L21.4075 154.028ZM16.7396 114.492L22.7055 113.854C22.6001 112.868 23.262 112.01 24.1911 111.841L23.1214 105.938L22.0517 100.034C14.8878 101.332 10.004 107.938 10.7736 115.131L16.7396 114.492ZM23.1214 105.938L24.1911 111.841C27.3725 111.265 30.5289 110.731 33.6582 110.236L32.721 104.31L31.7839 98.3832C28.5682 98.8917 25.3235 99.4408 22.0517 100.034L23.1214 105.938ZM32.721 104.31L37.6794 100.931L37.4832 100.643L32.5247 104.021L27.5663 107.4L27.7626 107.688L32.721 104.31ZM32.5247 104.021L37.6366 100.88L37.5292 100.705L32.4173 103.847L27.3054 106.988L27.4128 107.163L32.5247 104.021ZM32.4173 103.847L37.6882 100.98C38.6584 102.764 38.1406 105.013 36.4377 106.176L33.053 101.222L29.6684 96.2674C26.2424 98.608 25.2003 103.135 27.1464 106.713L32.4173 103.847ZM33.053 101.222L36.436 106.177C34.7321 107.34 32.4499 107.003 31.1421 105.453L35.7278 101.584L40.3136 97.7148C37.689 94.6042 33.0966 93.9271 29.6701 96.2663L33.053 101.222ZM35.7278 101.584L30.9449 105.207L31.0699 105.372L35.8528 101.749L40.6358 98.1264L40.5108 97.9614L35.7278 101.584ZM35.8528 101.749L30.8987 105.134L32.1878 107.021L37.1419 103.636L42.096 100.251L40.807 98.3642L35.8528 101.749ZM37.1419 103.636L38.018 109.571C40.1091 109.263 42.1862 108.972 44.2492 108.698L43.4603 102.75L42.6713 96.8021C40.549 97.0836 38.4136 97.383 36.2658 97.7001L37.1419 103.636ZM43.4603 102.75L49.4094 101.97C49.2218 100.539 49.1073 99.065 49.0665 97.5546L43.0687 97.7168L37.0709 97.879C37.1224 99.7832 37.2674 101.67 37.5112 103.53L43.4603 102.75ZM43.0687 97.7168L49.0665 97.5545C48.6654 82.7333 52.4121 74.0628 57.4765 68.9367C62.6158 63.7348 70.0685 61.208 79.0208 60.6942L78.6771 54.7041L78.3333 48.714C67.7062 49.3238 56.9249 52.4208 48.94 60.503C40.8801 68.661 36.6123 80.9351 37.0709 97.8791L43.0687 97.7168ZM78.6771 54.7041L79.0218 60.6942C84.2887 60.3911 88.6727 60.4431 92.4919 60.9221L93.2386 54.9688L93.9853 49.0154C89.1842 48.4132 84.0115 48.3872 78.3324 48.714L78.6771 54.7041ZM93.2386 54.9688L98.9585 56.7804C99.0502 56.4911 99.1403 56.2508 99.224 56.0561L93.7112 53.6875L88.1985 51.3189C87.9389 51.9231 87.7141 52.54 87.5186 53.1571L93.2386 54.9688Z" fill="white" mask="url(#path-1-outside-1_1347_1440)"/>
<path d="M23.121 105.938C93.2141 93.2378 150.975 100.586 177.252 107.345C181.151 108.348 183.445 112.244 182.704 116.201L175.539 154.472C174.831 158.257 171.526 161 167.676 161H29.3293C25.3062 161 21.9095 158.02 21.4079 154.029C20.0445 143.179 18.096 127.168 16.7397 114.492C16.3021 110.403 19.0745 106.671 23.121 105.938Z" fill="#E8F3FF"/>
<path d="M119.358 76.39C115.416 66.865 116.132 50.7156 117.587 39.3039C119.156 26.978 97.984 43.7371 93.7117 53.6876C90.7109 60.6718 91.6876 76.4271 107.672 81.4817" fill="#276286"/>
<path d="M122.111 103.756C132.038 106.532 147.483 100.79 158.641 97.9921C170.692 94.9695 156.573 117.982 147.202 123.409C140.623 127.218 124.864 128.128 117.948 112.858" fill="#276286"/>
<path d="M101.695 132.392C87.5704 134.252 76.5643 133.797 66.3392 130.836C50.6757 126.308 43.4844 113.088 43.0687 97.7165C42.2091 65.9513 59.0974 55.8273 78.6768 54.7036C93.4189 53.8553 103.122 55.5744 112.206 62.7489C113.785 61.9511 121.336 57.2599 123.083 56.7149C139.117 51.6698 155.5 56.7149 161.5 74.4999C167.051 88.9668 158.006 105.767 141.971 110.813C139 112 131.937 111.206 130.19 111.453C126.853 122.543 117.948 130.257 101.7 132.392H101.695Z" fill="#4B9AE8"/>
<path d="M51.3375 104.627C52.4284 104.407 53.4916 105.113 53.7116 106.204C53.9314 107.295 53.2254 108.358 52.1345 108.578L40.3859 110.945L39.7051 117.181L39.672 117.385C39.4589 118.384 38.5188 119.079 37.4816 118.966C36.3756 118.845 35.5768 117.85 35.6976 116.744L36.1803 112.332L33.7956 113.253C32.7573 113.653 31.5905 113.136 31.1897 112.098C30.7893 111.06 31.3059 109.894 32.3438 109.493L35.4448 108.296L32.5247 104.022L32.417 103.847C31.929 102.95 32.191 101.811 33.0526 101.222C33.914 100.634 35.0692 100.805 35.7275 101.585L35.8527 101.75L39.4539 107.02L51.3375 104.627Z" fill="#474747"/>
<path d="M46.5257 103.807C46.6797 102.692 47.7084 101.913 48.8235 102.067C49.9385 102.221 50.7181 103.249 50.5645 104.364L48.9053 116.374L54.6352 119.105L54.8178 119.205C55.7006 119.741 56.0516 120.87 55.5974 121.822C55.1128 122.839 53.8959 123.269 52.8797 122.785L48.8274 120.853L48.9117 123.437C48.948 124.562 48.0657 125.504 46.9407 125.541C45.8157 125.577 44.8743 124.694 44.8378 123.569L44.7281 120.209L39.6735 121.572L39.4703 121.616C38.4506 121.783 37.4498 121.153 37.1752 120.134C36.9008 119.115 37.4495 118.068 38.4146 117.7L38.6136 117.635L44.8471 115.955L46.5257 103.807Z" fill="#474747"/>
<path d="M135 74C138.866 74 142 70.866 142 67C142 63.134 138.866 60 135 60C131.134 60 128 63.134 128 67C128 70.866 131.134 74 135 74Z" fill="white"/>
<path d="M135 70.7342C137.062 70.7342 138.734 69.0625 138.734 67.0004C138.734 64.9383 137.062 63.2666 135 63.2666C132.938 63.2666 131.266 64.9383 131.266 67.0004C131.266 69.0625 132.938 70.7342 135 70.7342Z" fill="#040000"/>
<path d="M149 100C152.866 100 156 96.866 156 93C156 89.134 152.866 86 149 86C145.134 86 142 89.134 142 93C142 96.866 145.134 100 149 100Z" fill="white"/>
<path d="M149 96.7342C151.062 96.7342 152.734 95.0625 152.734 93.0004C152.734 90.9383 151.062 89.2666 149 89.2666C146.938 89.2666 145.266 90.9383 145.266 93.0004C145.266 95.0625 146.938 96.7342 149 96.7342Z" fill="#040000"/>
<path d="M136.235 90.5361C133.242 92.0302 126.898 90.9147 125.404 87.9267C123.91 84.9387 126.827 79.1948 129.82 77.7008C132.813 76.2068 136.215 76.9487 138.446 81.4156C140.677 85.8825 139.228 89.0472 136.235 90.5412V90.5361Z" fill="#EAC00F"/>
</svg>
