<svg width="200" height="200" viewBox="0 0 200 200" fill="none" xmlns="http://www.w3.org/2000/svg">
<mask id="path-1-outside-1_1347_8621" maskUnits="userSpaceOnUse" x="8.58887" y="20.875" width="177" height="159" fill="black">
<rect fill="white" x="8.58887" y="20.875" width="177" height="159"/>
<path d="M114.457 26.8809C127.901 27.1059 138.926 38.074 139.264 51.5176C139.382 56.5201 138.046 61.2022 135.65 65.1719C141.791 68.3658 147.058 73.1429 150.85 79.1934L156.138 86.5059V86.8818L156.25 86.6299L167.453 102.06L167.5 102.03L177.513 104.168C179.144 104.506 179.144 106.811 177.513 107.205L167.5 109.343L167.454 109.312L156.25 124.744L156.138 124.489V124.756L150.85 132.068C147.241 137.827 142.269 142.457 136.508 145.641V151.475C136.508 152.543 137.351 153.386 138.42 153.387H146.689C148.995 153.387 150.908 155.3 150.908 157.605C150.908 159.912 148.996 161.881 146.689 161.881H138.42C132.683 161.881 128.07 157.212 128.07 151.531V149.184C124.67 150.132 121.116 150.631 117.494 150.631H114.008V154.512C114.008 157.38 115.133 160.137 117.158 162.162L120.814 165.818C122.446 167.45 122.446 170.15 120.814 171.781C119.971 172.625 118.902 173.019 117.833 173.019C116.764 173.019 115.695 172.625 114.852 171.781L111.195 168.125C107.539 164.469 105.57 159.63 105.57 154.512V150.411L105.513 150.18V150.631H84.3057C81.983 150.576 79.7149 150.301 77.501 149.918L77.5 149.925C77.4631 149.918 77.4265 149.91 77.3896 149.903V154.512C77.3896 159.63 75.3646 164.469 71.7646 168.125L68.1084 171.781C67.2647 172.625 66.1956 173.018 65.127 173.019C64.0583 173.019 62.9892 172.625 62.1455 171.781C60.5143 170.15 60.5143 167.45 62.1455 165.818L65.8018 162.162C67.8267 160.137 68.9521 157.38 68.9521 154.512V147.472C61.6593 144.569 55.3032 139.817 50.4688 133.79V133.787C50.166 133.831 49.8577 133.86 49.5439 133.868H49.0938C36.6968 133.868 26.1713 125.656 22.5742 114.323C19.558 113.619 15.8636 111.409 15.6035 108.803C15.3466 106.224 18.5294 103.21 21.498 101.979C22.7949 92.1688 29.0906 83.9549 37.7314 80.0547V77.5049C37.7313 73.5114 35.4816 69.9113 31.8818 68.1113L28.1123 65.9736C26.7063 65.2985 26.1444 63.6112 26.8193 62.2051C27.4944 60.7989 29.1817 60.2361 30.5879 60.9111L34.4131 63.0488C39.9253 65.8051 43.3563 71.3177 43.3564 77.5049V78.2158C45.2073 77.8252 47.1261 77.6182 49.0938 77.6182H49.5439C49.8316 77.6221 50.1153 77.643 50.3945 77.6777V77.6768C56.5922 69.909 65.3098 64.2408 75.3076 61.9053L93.5889 37.2871C93.7013 37.1184 93.8133 37.0055 93.9258 36.8369L94.0391 36.668C98.764 30.5932 106.132 26.7122 114.457 26.8809Z"/>
</mask>
<path d="M114.457 26.8809C127.901 27.1059 138.926 38.074 139.264 51.5176C139.382 56.5201 138.046 61.2022 135.65 65.1719C141.791 68.3658 147.058 73.1429 150.85 79.1934L156.138 86.5059V86.8818L156.25 86.6299L167.453 102.06L167.5 102.03L177.513 104.168C179.144 104.506 179.144 106.811 177.513 107.205L167.5 109.343L167.454 109.312L156.25 124.744L156.138 124.489V124.756L150.85 132.068C147.241 137.827 142.269 142.457 136.508 145.641V151.475C136.508 152.543 137.351 153.386 138.42 153.387H146.689C148.995 153.387 150.908 155.3 150.908 157.605C150.908 159.912 148.996 161.881 146.689 161.881H138.42C132.683 161.881 128.07 157.212 128.07 151.531V149.184C124.67 150.132 121.116 150.631 117.494 150.631H114.008V154.512C114.008 157.38 115.133 160.137 117.158 162.162L120.814 165.818C122.446 167.45 122.446 170.15 120.814 171.781C119.971 172.625 118.902 173.019 117.833 173.019C116.764 173.019 115.695 172.625 114.852 171.781L111.195 168.125C107.539 164.469 105.57 159.63 105.57 154.512V150.411L105.513 150.18V150.631H84.3057C81.983 150.576 79.7149 150.301 77.501 149.918L77.5 149.925C77.4631 149.918 77.4265 149.91 77.3896 149.903V154.512C77.3896 159.63 75.3646 164.469 71.7646 168.125L68.1084 171.781C67.2647 172.625 66.1956 173.018 65.127 173.019C64.0583 173.019 62.9892 172.625 62.1455 171.781C60.5143 170.15 60.5143 167.45 62.1455 165.818L65.8018 162.162C67.8267 160.137 68.9521 157.38 68.9521 154.512V147.472C61.6593 144.569 55.3032 139.817 50.4688 133.79V133.787C50.166 133.831 49.8577 133.86 49.5439 133.868H49.0938C36.6968 133.868 26.1713 125.656 22.5742 114.323C19.558 113.619 15.8636 111.409 15.6035 108.803C15.3466 106.224 18.5294 103.21 21.498 101.979C22.7949 92.1688 29.0906 83.9549 37.7314 80.0547V77.5049C37.7313 73.5114 35.4816 69.9113 31.8818 68.1113L28.1123 65.9736C26.7063 65.2985 26.1444 63.6112 26.8193 62.2051C27.4944 60.7989 29.1817 60.2361 30.5879 60.9111L34.4131 63.0488C39.9253 65.8051 43.3563 71.3177 43.3564 77.5049V78.2158C45.2073 77.8252 47.1261 77.6182 49.0938 77.6182H49.5439C49.8316 77.6221 50.1153 77.643 50.3945 77.6777V77.6768C56.5922 69.909 65.3098 64.2408 75.3076 61.9053L93.5889 37.2871C93.7013 37.1184 93.8133 37.0055 93.9258 36.8369L94.0391 36.668C98.764 30.5932 106.132 26.7122 114.457 26.8809Z" fill="black"/>
<path d="M114.457 26.8809L114.336 32.8796C114.343 32.8798 114.35 32.8799 114.357 32.88L114.457 26.8809ZM139.264 51.5176L145.262 51.3753L145.262 51.3669L139.264 51.5176ZM135.65 65.1719L130.513 62.0716C129.657 63.4905 129.426 65.2004 129.874 66.7959C130.323 68.3913 131.411 69.7301 132.882 70.4949L135.65 65.1719ZM150.85 79.1934L145.765 82.3795C145.836 82.4918 145.91 82.6018 145.988 82.7093L150.85 79.1934ZM156.138 86.5059H162.138C162.138 85.2433 161.739 84.013 161 82.9899L156.138 86.5059ZM156.138 86.8818H150.138C150.138 89.7143 152.119 92.161 154.889 92.7505C157.659 93.34 160.465 91.9117 161.618 89.3246L156.138 86.8818ZM156.25 86.6299L161.105 83.1047C159.846 81.3702 157.757 80.4392 155.625 80.6625C153.493 80.8858 151.642 82.2294 150.77 84.1871L156.25 86.6299ZM167.453 102.06L162.598 105.585C164.45 108.136 167.96 108.818 170.633 107.148L167.453 102.06ZM167.5 102.03L168.753 96.1625C167.23 95.8374 165.64 96.117 164.32 96.9423L167.5 102.03ZM177.513 104.168L176.26 110.036C176.272 110.038 176.284 110.041 176.296 110.043L177.513 104.168ZM177.513 107.205L178.765 113.073C178.817 113.062 178.869 113.05 178.921 113.037L177.513 107.205ZM167.5 109.343L164.196 114.351C165.539 115.237 167.18 115.546 168.753 115.211L167.5 109.343ZM167.454 109.312L170.758 104.304C168.079 102.537 164.484 103.191 162.599 105.787L167.454 109.312ZM156.25 124.744L150.759 127.163C151.625 129.129 153.476 130.482 155.612 130.71C157.748 130.938 159.843 130.008 161.105 128.269L156.25 124.744ZM156.138 124.489L161.628 122.07C160.484 119.474 157.678 118.033 154.902 118.618C152.125 119.203 150.138 121.652 150.138 124.489H156.138ZM156.138 124.756L161 128.272C161.739 127.249 162.138 126.018 162.138 124.756H156.138ZM150.85 132.068L145.988 128.552C145.91 128.66 145.836 128.77 145.765 128.882L150.85 132.068ZM136.508 145.641L133.606 140.389C131.694 141.445 130.508 143.457 130.508 145.641H136.508ZM138.42 153.387L138.419 159.387H138.42V153.387ZM146.689 153.387L146.69 147.387H146.689V153.387ZM150.908 157.605H156.908V157.605L150.908 157.605ZM146.689 161.881V167.881H146.69L146.689 161.881ZM138.42 161.881L138.42 167.881H138.42V161.881ZM128.07 151.531H122.07V151.531L128.07 151.531ZM128.07 149.184H134.07C134.07 147.307 133.193 145.539 131.698 144.405C130.204 143.27 128.265 142.9 126.458 143.404L128.07 149.184ZM117.494 150.631V156.631H117.494L117.494 150.631ZM114.008 150.631V144.631C110.694 144.631 108.008 147.317 108.008 150.631H114.008ZM120.814 165.818L125.057 161.576L125.057 161.576L120.814 165.818ZM120.814 171.781L125.057 176.024L125.057 176.024L120.814 171.781ZM117.833 173.019V179.019H117.833L117.833 173.019ZM114.852 171.781L110.609 176.024L110.609 176.024L114.852 171.781ZM105.57 150.411H111.57C111.57 149.923 111.511 149.436 111.393 148.962L105.57 150.411ZM105.513 150.18L111.335 148.73C110.603 145.789 107.791 143.855 104.783 144.224C101.774 144.593 99.5127 147.148 99.5127 150.18H105.513ZM105.513 150.631V156.631C108.826 156.631 111.513 153.945 111.513 150.631H105.513ZM84.3057 150.631L84.1628 156.629C84.2104 156.63 84.258 156.631 84.3057 156.631V150.631ZM77.501 149.918L78.5247 144.006C76.9264 143.729 75.2842 144.111 73.9723 145.065C72.6604 146.019 71.7907 147.464 71.5613 149.069L77.501 149.918ZM77.5 149.925L76.429 155.828C78.0332 156.119 79.6867 155.745 81.0092 154.792C82.3317 153.838 83.2091 152.387 83.4397 150.773L77.5 149.925ZM77.3896 149.903L78.4755 144.002C76.7235 143.68 74.9189 144.153 73.5501 145.293C72.1812 146.433 71.3896 148.122 71.3896 149.903H77.3896ZM71.7646 168.125L76.0073 172.368C76.0183 172.357 76.0292 172.346 76.0401 172.335L71.7646 168.125ZM65.127 173.019V179.019H65.1274L65.127 173.019ZM62.1455 171.781L57.9029 176.024L57.9031 176.024L62.1455 171.781ZM65.8018 162.162L70.0444 166.405L70.0444 166.405L65.8018 162.162ZM68.9521 147.472H74.9521C74.9521 145.015 73.454 142.806 71.1711 141.897L68.9521 147.472ZM50.4688 133.79H44.4688C44.4688 135.155 44.9343 136.48 45.7885 137.544L50.4688 133.79ZM50.4688 133.787H56.4688C56.4688 132.047 55.7134 130.393 54.3984 129.253C53.0835 128.113 51.3386 127.601 49.6163 127.848L50.4688 133.787ZM49.5439 133.868V139.868C49.5973 139.868 49.6507 139.867 49.704 139.866L49.5439 133.868ZM49.0938 133.868L49.0937 139.868H49.0938V133.868ZM22.5742 114.323L28.2931 112.508C27.653 110.492 25.9983 108.961 23.938 108.48L22.5742 114.323ZM15.6035 108.803L9.63309 109.398L9.63318 109.399L15.6035 108.803ZM21.498 101.979L23.7959 107.522C25.7744 106.702 27.1656 104.889 27.4463 102.766L21.498 101.979ZM37.7314 80.0547L40.1999 85.5234C42.3496 84.5531 43.7314 82.4133 43.7314 80.0547H37.7314ZM37.7314 77.5049H43.7314V77.5047L37.7314 77.5049ZM31.8818 68.1113L28.9221 73.3305C29.0129 73.382 29.105 73.4311 29.1984 73.4778L31.8818 68.1113ZM28.1123 65.9736L31.0721 60.7545C30.9534 60.6872 30.8325 60.6239 30.7095 60.5649L28.1123 65.9736ZM26.8193 62.2051L21.4103 59.6085L21.4102 59.6087L26.8193 62.2051ZM30.5879 60.9111L33.5149 55.6735C33.4065 55.6129 33.2962 55.5557 33.1843 55.502L30.5879 60.9111ZM34.4131 63.0488L31.4861 68.2864C31.5663 68.3313 31.6475 68.3742 31.7297 68.4153L34.4131 63.0488ZM43.3564 77.5049H49.3564V77.5048L43.3564 77.5049ZM43.3564 78.2158H37.3564C37.3564 80.0245 38.1724 81.7367 39.5772 82.876C40.9819 84.0152 42.8257 84.46 44.5954 84.0865L43.3564 78.2158ZM49.0938 77.6182V71.6182H49.0937L49.0938 77.6182ZM49.5439 77.6182L49.6251 71.6187C49.5981 71.6183 49.571 71.6182 49.5439 71.6182V77.6182ZM50.3945 77.6777L49.6533 83.6318C51.3606 83.8443 53.0769 83.3137 54.3665 82.1748C55.656 81.0359 56.3945 79.3982 56.3945 77.6777H50.3945ZM50.3945 77.6768L45.7044 73.9347C44.8564 74.9976 44.3945 76.317 44.3945 77.6768H50.3945ZM75.3076 61.9053L76.6725 67.748C78.055 67.425 79.2782 66.6222 80.1247 65.4824L75.3076 61.9053ZM93.5889 37.2871L98.4059 40.8642C98.4664 40.7828 98.5249 40.6998 98.5812 40.6153L93.5889 37.2871ZM93.9258 36.8369L88.9424 33.4954C88.9396 33.4996 88.9368 33.5038 88.934 33.508L93.9258 36.8369ZM94.0391 36.668L89.303 32.9843C89.2166 33.0954 89.134 33.2095 89.0556 33.3265L94.0391 36.668ZM114.457 26.8809L114.357 32.88C124.573 33.051 133.008 41.4285 133.266 51.6683L139.264 51.5176L145.262 51.3669C144.844 34.7195 131.228 21.1607 114.557 20.8817L114.457 26.8809ZM139.264 51.5176L133.265 51.6598C133.356 55.4886 132.337 59.0502 130.513 62.0716L135.65 65.1719L140.787 68.2721C143.755 63.3542 145.408 57.5517 145.262 51.3753L139.264 51.5176ZM135.65 65.1719L132.882 70.4949C138.091 73.2046 142.552 77.2514 145.765 82.3795L150.85 79.1934L155.934 76.0073C151.564 69.0344 145.491 63.527 138.419 59.8489L135.65 65.1719ZM150.85 79.1934L145.988 82.7093L151.276 90.0218L156.138 86.5059L161 82.9899L155.712 75.6774L150.85 79.1934ZM156.138 86.5059H150.138V86.8818H156.138H162.138V86.5059H156.138ZM156.138 86.8818L161.618 89.3246L161.73 89.0726L156.25 86.6299L150.77 84.1871L150.657 84.4391L156.138 86.8818ZM156.25 86.6299L151.395 90.1551L162.598 105.585L167.453 102.06L172.308 98.5343L161.105 83.1047L156.25 86.6299ZM167.453 102.06L170.633 107.148L170.68 107.118L167.5 102.03L164.32 96.9423L164.273 96.9716L167.453 102.06ZM167.5 102.03L166.247 107.898L176.26 110.036L177.513 104.168L178.765 98.3002L168.753 96.1625L167.5 102.03ZM177.513 104.168L176.296 110.043C173.969 109.561 172.736 107.461 172.736 105.666C172.736 103.896 173.915 101.901 176.104 101.373L177.513 107.205L178.921 113.037C182.742 112.115 184.736 108.771 184.736 105.665C184.736 102.534 182.688 99.1122 178.729 98.2926L177.513 104.168ZM177.513 107.205L176.26 101.337L166.247 103.475L167.5 109.343L168.753 115.211L178.765 113.073L177.513 107.205ZM167.5 109.343L170.804 104.334L170.758 104.304L167.454 109.312L164.151 114.321L164.196 114.351L167.5 109.343ZM167.454 109.312L162.599 105.787L151.395 121.219L156.25 124.744L161.105 128.269L172.309 112.838L167.454 109.312ZM156.25 124.744L161.741 122.325L161.628 122.07L156.138 124.489L150.647 126.909L150.759 127.163L156.25 124.744ZM156.138 124.489H150.138V124.756H156.138H162.138V124.489H156.138ZM156.138 124.756L151.276 121.24L145.988 128.552L150.85 132.068L155.712 135.584L161 128.272L156.138 124.756ZM150.85 132.068L145.765 128.882C142.706 133.764 138.492 137.689 133.606 140.389L136.508 145.641L139.41 150.892C146.047 147.225 151.775 141.89 155.934 135.254L150.85 132.068ZM136.508 145.641H130.508V151.475H136.508H142.508V145.641H136.508ZM136.508 151.475H130.508C130.508 155.858 134.039 159.386 138.419 159.387L138.42 153.387L138.421 147.387C140.664 147.387 142.508 149.228 142.508 151.475H136.508ZM138.42 153.387V159.387H146.689V153.387V147.387H138.42V153.387ZM146.689 153.387L146.689 159.387C145.681 159.387 144.908 158.613 144.908 157.606L150.908 157.605L156.908 157.605C156.908 151.986 152.309 147.387 146.69 147.387L146.689 153.387ZM150.908 157.605H144.908C144.908 157.083 145.122 156.669 145.382 156.404C145.647 156.135 146.099 155.881 146.689 155.881L146.689 161.881L146.69 167.881C152.412 167.88 156.908 163.122 156.908 157.605H150.908ZM146.689 161.881V155.881H138.42V161.881V167.881H146.689V161.881ZM138.42 161.881L138.42 155.881C136.018 155.881 134.07 153.92 134.07 151.531L128.07 151.531L122.07 151.531C122.071 160.505 129.348 167.88 138.42 167.881L138.42 161.881ZM128.07 151.531H134.07V149.184H128.07H122.07V151.531H128.07ZM128.07 149.184L126.458 143.404C123.576 144.208 120.565 144.631 117.494 144.631L117.494 150.631L117.494 156.631C121.668 156.631 125.764 156.056 129.682 154.963L128.07 149.184ZM117.494 150.631V144.631H114.008V150.631V156.631H117.494V150.631ZM114.008 150.631H108.008V154.512H114.008H120.008V150.631H114.008ZM114.008 154.512H108.008C108.008 158.947 109.748 163.237 112.916 166.405L117.158 162.162L121.401 157.919C120.519 157.037 120.008 155.814 120.008 154.512H114.008ZM117.158 162.162L112.916 166.405L116.572 170.061L120.814 165.818L125.057 161.576L121.401 157.919L117.158 162.162ZM120.814 165.818L116.572 170.061C115.86 169.349 115.86 168.251 116.572 167.539L120.814 171.781L125.057 176.024C129.032 172.049 129.031 165.55 125.057 161.576L120.814 165.818ZM120.814 171.781L116.572 167.539C116.724 167.386 116.928 167.247 117.167 167.15C117.401 167.056 117.63 167.019 117.833 167.019L117.833 173.019L117.833 179.019C120.406 179.018 123.028 178.053 125.057 176.024L120.814 171.781ZM117.833 173.019V167.019C118.036 167.019 118.265 167.056 118.499 167.151C118.738 167.247 118.942 167.386 119.094 167.538L114.852 171.781L110.609 176.024C112.638 178.053 115.26 179.019 117.833 179.019V173.019ZM114.852 171.781L119.094 167.539L115.438 163.882L111.195 168.125L106.953 172.368L110.609 176.024L114.852 171.781ZM111.195 168.125L115.438 163.882C112.921 161.365 111.57 158.059 111.57 154.512H105.57H99.5703C99.5703 161.202 102.157 167.572 106.953 172.368L111.195 168.125ZM105.57 154.512H111.57V150.411H105.57H99.5703V154.512H105.57ZM105.57 150.411L111.393 148.962L111.335 148.73L105.513 150.18L99.6904 151.629L99.748 151.861L105.57 150.411ZM105.513 150.18H99.5127V150.631H105.513H111.513V150.18H105.513ZM105.513 150.631V144.631H84.3057V150.631V156.631H105.513V150.631ZM84.3057 150.631L84.4485 144.633C82.501 144.586 80.5385 144.355 78.5247 144.006L77.501 149.918L76.4772 155.83C78.8913 156.248 81.4649 156.565 84.1628 156.629L84.3057 150.631ZM77.501 149.918L71.5613 149.069L71.5603 149.076L77.5 149.925L83.4397 150.773L83.4407 150.766L77.501 149.918ZM77.5 149.925L78.571 144.021C78.5965 144.026 78.6154 144.029 78.6238 144.031C78.631 144.033 78.6353 144.033 78.6254 144.031C78.62 144.03 78.5986 144.026 78.5761 144.022C78.5518 144.017 78.5168 144.01 78.4755 144.002L77.3896 149.903L76.3038 155.804C76.2809 155.8 76.2643 155.797 76.2584 155.796C76.2543 155.795 76.2513 155.794 76.2642 155.797C76.2727 155.799 76.2954 155.803 76.321 155.808C76.3477 155.813 76.3851 155.82 76.429 155.828L77.5 149.925ZM77.3896 149.903H71.3896V154.512H77.3896H83.3896V149.903H77.3896ZM77.3896 154.512H71.3896C71.3896 158.019 70.0097 161.356 67.4892 163.915L71.7646 168.125L76.0401 172.335C80.7195 167.582 83.3896 161.242 83.3896 154.512H77.3896ZM71.7646 168.125L67.522 163.882L63.8658 167.539L68.1084 171.781L72.351 176.024L76.0073 172.368L71.7646 168.125ZM68.1084 171.781L63.8658 167.539C64.0183 167.386 64.2219 167.247 64.4611 167.15C64.6947 167.056 64.9236 167.019 65.1265 167.019L65.127 173.019L65.1274 179.019C67.6998 179.018 70.322 178.053 72.351 176.024L68.1084 171.781ZM65.127 173.019V167.019C65.3303 167.019 65.5594 167.056 65.793 167.151C66.0322 167.247 66.2356 167.386 66.3879 167.538L62.1455 171.781L57.9031 176.024C59.9317 178.052 62.5536 179.019 65.127 179.019V173.019ZM62.1455 171.781L66.3881 167.539C67.1 168.251 67.1 169.349 66.3881 170.061L62.1455 165.818L57.9029 161.576C53.9285 165.55 53.9285 172.049 57.9029 176.024L62.1455 171.781ZM62.1455 165.818L66.3881 170.061L70.0444 166.405L65.8018 162.162L61.5591 157.919L57.9029 161.576L62.1455 165.818ZM65.8018 162.162L70.0444 166.405C73.2121 163.237 74.9521 158.947 74.9521 154.512H68.9521H62.9521C62.9521 155.814 62.4414 157.037 61.5591 157.919L65.8018 162.162ZM68.9521 154.512H74.9521V147.472H68.9521H62.9521V154.512H68.9521ZM68.9521 147.472L71.1711 141.897C64.8551 139.383 59.3429 135.264 55.149 130.036L50.4688 133.79L45.7885 137.544C51.2636 144.37 58.4636 149.755 66.7332 153.046L68.9521 147.472ZM50.4688 133.79H56.4688V133.787H50.4688H44.4688V133.79H50.4688ZM50.4688 133.787L49.6163 127.848C49.5053 127.864 49.4307 127.869 49.3839 127.87L49.5439 133.868L49.704 139.866C50.2847 139.851 50.8267 139.797 51.3212 139.726L50.4688 133.787ZM49.5439 133.868V127.868H49.0938V133.868V139.868H49.5439V133.868ZM49.0938 133.868L49.0938 127.868C39.4225 127.868 31.1334 121.457 28.2931 112.508L22.5742 114.323L16.8554 116.138C21.2092 129.856 33.9712 139.868 49.0937 139.868L49.0938 133.868ZM22.5742 114.323L23.938 108.48C23.5816 108.397 23.149 108.255 22.7019 108.054C22.2538 107.854 21.8677 107.629 21.5767 107.418C21.2713 107.197 21.1838 107.073 21.2117 107.111C21.2429 107.153 21.5059 107.526 21.5739 108.207L15.6035 108.803L9.63318 109.399C10.019 113.265 12.7115 115.813 14.5339 117.134C16.56 118.603 18.9826 119.646 21.2104 120.166L22.5742 114.323ZM15.6035 108.803L21.5739 108.208C21.6434 108.904 21.4535 109.321 21.4402 109.35C21.4257 109.381 21.4941 109.233 21.7507 108.955C21.9955 108.689 22.3276 108.397 22.7183 108.125C23.1097 107.853 23.4883 107.65 23.7959 107.522L21.498 101.979L19.2002 96.4369C16.9196 97.3825 14.6596 98.9442 12.9316 100.817C11.3814 102.497 9.24955 105.549 9.63309 109.398L15.6035 108.803ZM21.498 101.979L27.4463 102.766C28.4678 95.038 33.4274 88.5803 40.1999 85.5234L37.7314 80.0547L35.263 74.586C24.7538 79.3295 17.122 89.2996 15.5498 101.193L21.498 101.979ZM37.7314 80.0547H43.7314V77.5049H37.7314H31.7314V80.0547H37.7314ZM37.7314 77.5049L43.7314 77.5047C43.7312 71.2028 40.1653 65.545 34.5653 62.7448L31.8818 68.1113L29.1984 73.4778C30.7978 74.2776 31.7314 75.8199 31.7314 77.5051L37.7314 77.5049ZM31.8818 68.1113L34.8416 62.8922L31.0721 60.7545L28.1123 65.9736L25.1525 71.1928L28.9221 73.3305L31.8818 68.1113ZM28.1123 65.9736L30.7095 60.5649C32.3927 61.3731 32.9377 63.3239 32.2285 64.8015L26.8193 62.2051L21.4102 59.6087C19.3511 63.8985 21.02 69.2239 25.5152 71.3824L28.1123 65.9736ZM26.8193 62.2051L32.2284 64.8017C31.4214 66.4826 29.4717 67.0308 27.9915 66.3203L30.5879 60.9111L33.1843 55.502C28.8916 53.4415 23.5673 55.1152 21.4103 59.6085L26.8193 62.2051ZM30.5879 60.9111L27.6609 66.1487L31.4861 68.2864L34.4131 63.0488L37.3401 57.8112L33.5149 55.6735L30.5879 60.9111ZM34.4131 63.0488L31.7297 68.4153C35.2194 70.1603 37.3564 73.6016 37.3564 77.505L43.3564 77.5049L49.3564 77.5048C49.3563 69.0337 44.6312 61.4499 37.0965 57.6823L34.4131 63.0488ZM43.3564 77.5049H37.3564V78.2158H43.3564H49.3564V77.5049H43.3564ZM43.3564 78.2158L44.5954 84.0865C46.0446 83.7807 47.5482 83.6182 49.0938 83.6182L49.0938 77.6182L49.0937 71.6182C46.7039 71.6182 44.37 71.8698 42.1175 72.3451L43.3564 78.2158ZM49.0938 77.6182V83.6182H49.5439V77.6182V71.6182H49.0938V77.6182ZM49.5439 77.6182L49.4628 83.6176C49.5129 83.6183 49.5757 83.6221 49.6533 83.6318L50.3945 77.6777L51.1358 71.7237C50.6549 71.6638 50.1502 71.6258 49.6251 71.6187L49.5439 77.6182ZM50.3945 77.6777H56.3945V77.6768H50.3945H44.3945V77.6777H50.3945ZM50.3945 77.6768L55.0846 81.4188C60.4632 74.6776 68.0214 69.7689 76.6725 67.748L75.3076 61.9053L73.9428 56.0626C62.5982 58.7127 52.7211 65.1404 45.7044 73.9347L50.3945 77.6768ZM75.3076 61.9053L80.1247 65.4824L98.4059 40.8642L93.5889 37.2871L88.7718 33.71L70.4905 58.3282L75.3076 61.9053ZM93.5889 37.2871L98.5812 40.6153C98.4767 40.772 98.3806 40.8879 98.4488 40.8023C98.4925 40.7475 98.7008 40.4909 98.9176 40.1659L93.9258 36.8369L88.934 33.508C89.0383 33.3515 89.1344 33.2357 89.0658 33.3217C89.0218 33.3769 88.8135 33.6336 88.5966 33.9589L93.5889 37.2871ZM93.9258 36.8369L98.9092 40.1784L99.0225 40.0095L94.0391 36.668L89.0556 33.3265L88.9424 33.4954L93.9258 36.8369ZM94.0391 36.668L98.7751 40.3517C102.406 35.6834 108.014 32.7516 114.336 32.8796L114.457 26.8809L114.579 20.8821C104.25 20.6729 95.1219 25.503 89.303 32.9843L94.0391 36.668Z" fill="white" mask="url(#path-1-outside-1_1347_8621)"/>
<path d="M40.5439 85.1546C38.9689 85.1546 37.7314 83.9171 37.7314 82.3421V77.5046C37.7314 73.5109 35.4814 69.9109 31.8814 68.1109L28.1126 65.9732C26.7064 65.2982 26.1439 63.6107 26.8189 62.2044C27.4939 60.7982 29.1814 60.2357 30.5876 60.9107L34.4126 63.0482C39.9251 65.8044 43.3564 71.3171 43.3564 77.5046V82.3421C43.3564 83.9171 42.1189 85.1546 40.5439 85.1546Z" fill="#474747"/>
<path d="M146.689 161.881H138.42C132.683 161.881 128.07 157.212 128.07 151.531V132.631C128.07 130.325 129.983 128.412 132.289 128.412C134.595 128.412 136.508 130.325 136.508 132.631V151.475C136.508 152.543 137.352 153.387 138.42 153.387H146.689C148.995 153.387 150.908 155.3 150.908 157.606C150.908 159.912 148.995 161.881 146.689 161.881Z" fill="#7AB9F8"/>
<path d="M65.1266 173.018C64.0578 173.018 62.9891 172.625 62.1453 171.781C60.5141 170.15 60.5141 167.45 62.1453 165.818L65.8016 162.162C67.8266 160.137 68.9516 157.381 68.9516 154.512V143.881C68.9516 141.575 70.8641 139.662 73.1704 139.662C75.4766 139.662 77.3891 141.575 77.3891 143.881V154.512C77.3891 159.631 75.3641 164.468 71.7641 168.125L68.1079 171.781C67.2641 172.625 66.1953 173.018 65.1266 173.018Z" fill="#7AB9F8"/>
<path d="M114.852 171.781C115.695 172.625 116.764 173.018 117.833 173.018C118.902 173.018 119.97 172.625 120.814 171.781C122.445 170.15 122.445 167.45 120.814 165.818L117.158 162.162C115.133 160.137 114.008 157.381 114.008 154.512V143.881C114.008 141.575 112.095 139.662 109.789 139.662C107.483 139.662 105.57 141.575 105.57 143.881V154.512C105.57 159.631 107.539 164.468 111.195 168.125L114.852 171.781Z" fill="#7AB9F8"/>
<path d="M167.5 102.029L177.513 104.167C179.144 104.504 179.144 106.811 177.513 107.204L167.5 109.342L161.875 105.625L167.5 102.029Z" fill="#474747"/>
<path d="M105.625 150.631H117.494C121.135 150.631 124.708 150.127 128.125 149.169L142.188 105.625L128.125 62.205C124.708 61.2464 121.135 60.7432 117.494 60.7432H105.625L94.375 105.625L105.625 150.631Z" fill="#D7E8FC"/>
<path d="M77.5001 61.4492C66.5859 63.4289 57.0407 69.3459 50.394 77.6766L52.1876 85.9374V125.312L50.4682 133.79C57.1116 142.072 66.6264 147.952 77.5001 149.925L91.5626 105.625L77.5001 61.4492Z" fill="#D7E8FC"/>
<path d="M147.812 105.625L156.25 86.6299L167.5 102.123V109.25L156.25 124.744L147.812 105.625Z" fill="#D7E8FC"/>
<path d="M105.513 60.7432H84.3064C81.9439 60.7994 79.6377 61.0807 77.3877 61.4744V149.899C79.6377 150.293 81.9439 150.574 84.3064 150.631H105.513V60.7432Z" fill="#4B9AE8"/>
<path d="M57.0812 85.2682C57.0812 81.0494 53.7063 77.6744 49.5438 77.6182H49.0937C33.6812 77.6182 21.25 90.2182 21.25 105.743C21.25 121.268 33.7375 133.868 49.0937 133.868H49.5438C53.7625 133.756 57.0812 130.381 57.0812 126.162V85.2682Z" fill="#4B9AE8"/>
<path d="M24.259 114.557C21.1611 114.484 15.9152 111.927 15.6034 108.803C15.2916 105.679 20.0301 101.915 23.3188 101.458C26.6011 101.003 29.0596 102.992 29.5188 107.656C29.9826 112.371 27.3569 114.63 24.259 114.557Z" fill="#EAC00F"/>
<path d="M150.85 79.1932L156.138 86.5057V124.756L150.85 132.068C145.563 140.506 137.35 146.524 128.013 149.112V62.1494C137.406 64.7932 145.563 70.7557 150.85 79.1932Z" fill="#4B9AE8"/>
<path d="M94.039 36.6678C98.764 30.5928 106.133 26.7115 114.458 26.8803C127.902 27.1053 138.927 38.074 139.264 51.5178C139.602 65.749 128.183 77.3926 114.008 77.3926H71.314C68.2203 77.3926 66.4765 73.8488 68.2765 71.3738L93.589 37.2865C93.7015 37.1178 93.814 37.0053 93.9265 36.8365L94.039 36.6678Z" fill="#7AB9F8"/>
<path d="M41.4001 106.8C46.0393 106.8 49.8001 103.039 49.8001 98.4C49.8001 93.7608 46.0393 90 41.4001 90C36.7608 90 33 93.7608 33 98.4C33 103.039 36.7608 106.8 41.4001 106.8Z" fill="white"/>
<path d="M41.2689 103.497C44.0502 103.497 46.3049 101.242 46.3049 98.4608C46.3049 95.6795 44.0502 93.4248 41.2689 93.4248C38.4876 93.4248 36.2329 95.6795 36.2329 98.4608C36.2329 101.242 38.4876 103.497 41.2689 103.497Z" fill="black"/>
</svg>
