<svg width="1024" height="1024" viewBox="0 0 1024 1024" fill="none" xmlns="http://www.w3.org/2000/svg">
<mask id="path-1-outside-1_1388_2371" maskUnits="userSpaceOnUse" x="336.327" y="444" width="325" height="284" fill="black">
<rect fill="white" x="336.327" y="444" width="325" height="284"/>
<path d="M518.925 458C589.405 458 646.541 515.136 646.541 585.615C646.54 656.095 589.405 713.229 518.925 713.229C460.17 713.229 410.691 673.522 395.854 619.479C378.963 620.773 355.124 612.245 351.77 599.889C347.982 585.933 369.228 563.065 385.718 558.621C388.677 557.824 391.617 557.348 394.482 557.222C407.39 500.408 458.205 458 518.925 458Z"/>
</mask>
<path d="M518.925 458C589.405 458 646.541 515.136 646.541 585.615C646.54 656.095 589.405 713.229 518.925 713.229C460.17 713.229 410.691 673.522 395.854 619.479C378.963 620.773 355.124 612.245 351.77 599.889C347.982 585.933 369.228 563.065 385.718 558.621C388.677 557.824 391.617 557.348 394.482 557.222C407.39 500.408 458.205 458 518.925 458Z" fill="white"/>
<path d="M518.925 458L518.925 444L518.925 444L518.925 458ZM646.541 585.615L660.541 585.615V585.615H646.541ZM518.925 713.229L518.925 727.229H518.925V713.229ZM395.854 619.479L409.354 615.772L406.298 604.637L394.784 605.519L395.854 619.479ZM351.77 599.889L338.259 603.556L338.259 603.556L351.77 599.889ZM385.718 558.621L382.075 545.103L382.075 545.103L385.718 558.621ZM394.482 557.222L395.097 571.208L405.768 570.739L408.134 560.323L394.482 557.222ZM518.925 458V472C581.673 472 632.541 522.868 632.541 585.615H646.541H660.541C660.541 507.404 597.137 444 518.925 444V458ZM646.541 585.615L632.541 585.615C632.54 648.363 581.673 699.229 518.925 699.229V713.229V727.229C597.137 727.229 660.54 663.827 660.541 585.615L646.541 585.615ZM518.925 713.229L518.925 699.229C466.636 699.229 422.565 663.893 409.354 615.772L395.854 619.479L382.354 623.185C398.816 683.151 453.704 727.229 518.925 727.229L518.925 713.229ZM395.854 619.479L394.784 605.519C388.793 605.979 380.807 604.648 374.09 601.867C370.796 600.503 368.329 599.003 366.748 597.663C365.098 596.265 365.133 595.675 365.281 596.221L351.77 599.889L338.259 603.556C340.084 610.281 344.356 615.39 348.647 619.026C353.007 622.72 358.184 625.587 363.381 627.738C373.645 631.987 386.024 634.273 396.924 633.438L395.854 619.479ZM351.77 599.889L365.281 596.221C365.442 596.813 365.037 596.101 366.106 593.501C367.111 591.056 369.003 588.014 371.751 584.82C377.519 578.118 384.703 573.394 389.361 572.139L385.718 558.621L382.075 545.103C370.243 548.292 358.56 557.224 350.528 566.556C346.377 571.379 342.637 576.948 340.209 582.854C337.844 588.606 336.204 595.987 338.259 603.556L351.77 599.889ZM385.718 558.621L389.361 572.139C391.429 571.582 393.353 571.285 395.097 571.208L394.482 557.222L393.867 543.235C389.882 543.41 385.925 544.066 382.075 545.103L385.718 558.621ZM394.482 557.222L408.134 560.323C419.626 509.745 464.884 472 518.925 472L518.925 458L518.925 444C451.526 444 395.155 491.072 380.83 554.12L394.482 557.222Z" fill="white" mask="url(#path-1-outside-1_1388_2371)"/>
</svg>
