<svg width="200" height="200" viewBox="0 0 200 200" fill="none" xmlns="http://www.w3.org/2000/svg">
<mask id="path-1-outside-1_1062_22331" maskUnits="userSpaceOnUse" x="14" y="17.9999" width="173" height="168" fill="black">
<rect fill="white" x="14" y="17.9999" width="173" height="168"/>
<path d="M86.3857 29.3691C94.7126 22.1909 107.06 22.1912 115.271 29.4843C133.533 45.7362 150.187 63.539 165.003 84.1552C169.999 91.0464 174.766 98.1668 179.303 105.46C179.532 105.862 179.762 106.322 180.049 106.724C180.221 107.527 180.394 108.389 180.394 109.308C180.394 112.925 177.465 115.854 173.847 115.854C173.445 115.854 172.928 115.798 172.526 115.74C171.288 115.615 170.239 115.367 169.311 115.045V179.053H31.4854V115.145C30.1651 115.578 28.6004 115.854 26.6045 115.854H26.4316C22.8138 115.797 20 112.925 20 109.308C20 108.389 20.1719 107.527 20.459 106.724C20.5164 106.666 20.5742 106.609 20.5742 106.494C20.8614 106.035 21.206 105.575 21.4932 105.173C25.9724 97.9371 30.7393 90.9315 35.7354 84.1552C50.9535 63.3092 67.4348 45.6784 86.3857 29.3691Z"/>
</mask>
<path d="M86.3857 29.3691C94.7126 22.1909 107.06 22.1912 115.271 29.4843C133.533 45.7362 150.187 63.539 165.003 84.1552C169.999 91.0464 174.766 98.1668 179.303 105.46C179.532 105.862 179.762 106.322 180.049 106.724C180.221 107.527 180.394 108.389 180.394 109.308C180.394 112.925 177.465 115.854 173.847 115.854C173.445 115.854 172.928 115.798 172.526 115.74C171.288 115.615 170.239 115.367 169.311 115.045V179.053H31.4854V115.145C30.1651 115.578 28.6004 115.854 26.6045 115.854H26.4316C22.8138 115.797 20 112.925 20 109.308C20 108.389 20.1719 107.527 20.459 106.724C20.5164 106.666 20.5742 106.609 20.5742 106.494C20.8614 106.035 21.206 105.575 21.4932 105.173C25.9724 97.9371 30.7393 90.9315 35.7354 84.1552C50.9535 63.3092 67.4348 45.6784 86.3857 29.3691Z" fill="#462314"/>
<path d="M86.3857 29.3691L90.2996 33.9168L90.3033 33.9136L86.3857 29.3691ZM115.271 29.4843L119.26 25.0022L119.256 24.9981L115.271 29.4843ZM165.003 84.1552L160.131 87.6567C160.136 87.6635 160.14 87.6703 160.145 87.677L165.003 84.1552ZM179.303 105.46L184.512 102.483C184.475 102.418 184.437 102.354 184.397 102.291L179.303 105.46ZM180.049 106.724L185.916 105.466C185.744 104.664 185.409 103.905 184.931 103.236L180.049 106.724ZM180.394 109.308L186.394 109.308L186.394 109.307L180.394 109.308ZM173.847 115.854L173.846 121.854H173.847V115.854ZM172.526 115.74L173.375 109.8C173.293 109.789 173.21 109.779 173.128 109.77L172.526 115.74ZM169.311 115.045L171.275 109.376C169.441 108.74 167.413 109.031 165.831 110.157C164.25 111.282 163.311 113.104 163.311 115.045H169.311ZM169.311 179.053V185.053C172.624 185.053 175.311 182.366 175.311 179.053H169.311ZM31.4854 179.053H25.4854C25.4854 182.366 28.1716 185.053 31.4854 185.053V179.053ZM31.4854 115.145H37.4854C37.4854 113.222 36.5636 111.416 35.0064 110.287C33.4493 109.159 31.4456 108.845 29.6181 109.443L31.4854 115.145ZM26.6045 115.854L26.6045 121.854L26.6046 121.854L26.6045 115.854ZM26.4316 115.854L26.3362 121.854C26.368 121.854 26.3998 121.854 26.4316 121.854L26.4316 115.854ZM20 109.308L14 109.307V109.308H20ZM20.459 106.724L16.2163 102.481C15.5882 103.109 15.1073 103.869 14.8085 104.706L20.459 106.724ZM20.5742 106.494L15.4862 103.314C14.8904 104.267 14.5744 105.369 14.5742 106.493L20.5742 106.494ZM21.4932 105.173L26.3756 108.66C26.4522 108.553 26.5253 108.443 26.5948 108.331L21.4932 105.173ZM35.7354 84.1552L40.5647 87.7158C40.5703 87.7082 40.5758 87.7006 40.5814 87.693L35.7354 84.1552ZM86.3857 29.3691L90.3033 33.9136C96.3905 28.6662 105.359 28.7056 111.287 33.9705L115.271 29.4843L119.256 24.9981C108.76 15.6767 93.0348 15.7157 82.4682 24.8246L86.3857 29.3691ZM115.271 29.4843L111.283 33.9664C129.266 49.9705 145.609 67.4506 160.131 87.6567L165.003 84.1552L169.875 80.6537C154.764 59.6273 137.8 41.5018 119.26 25.0022L115.271 29.4843ZM165.003 84.1552L160.145 87.677C165.053 94.4468 169.742 101.449 174.208 108.629L179.303 105.46L184.397 102.291C179.79 94.8845 174.945 87.646 169.861 80.6334L165.003 84.1552ZM179.303 105.46L174.093 108.437C174.337 108.863 174.072 108.411 174.433 109.047C174.595 109.335 174.844 109.759 175.166 110.211L180.049 106.724L184.931 103.236C184.967 103.286 184.957 103.279 184.876 103.136C184.836 103.066 184.796 102.992 184.732 102.877C184.676 102.775 184.597 102.631 184.512 102.483L179.303 105.46ZM180.049 106.724L174.182 107.981C174.265 108.369 174.317 108.63 174.352 108.863C174.385 109.084 174.394 109.222 174.394 109.308L180.394 109.308L186.394 109.307C186.393 107.689 186.088 106.272 185.916 105.466L180.049 106.724ZM180.394 109.308H174.394C174.394 109.612 174.151 109.854 173.847 109.854V115.854V121.854C180.778 121.854 186.394 116.239 186.394 109.308H180.394ZM173.847 115.854L173.847 109.854C173.883 109.854 173.89 109.856 173.863 109.854C173.838 109.853 173.798 109.85 173.743 109.845C173.63 109.834 173.5 109.818 173.375 109.8L172.526 115.74L171.678 121.68C172.16 121.749 173.012 121.854 173.846 121.854L173.847 115.854ZM172.526 115.74L173.128 109.77C172.36 109.693 171.769 109.547 171.275 109.376L169.311 115.045L167.346 120.714C168.709 121.187 170.215 121.538 171.925 121.71L172.526 115.74ZM169.311 115.045H163.311V179.053H169.311H175.311V115.045H169.311ZM169.311 179.053V173.053H31.4854V179.053V185.053H169.311V179.053ZM31.4854 179.053H37.4854V115.145H31.4854H25.4854V179.053H31.4854ZM31.4854 115.145L29.6181 109.443C28.9497 109.662 28.0199 109.854 26.6044 109.854L26.6045 115.854L26.6046 121.854C29.181 121.854 31.3806 121.493 33.3526 120.847L31.4854 115.145ZM26.6045 115.854V109.854H26.4316V115.854V121.854H26.6045V115.854ZM26.4316 115.854L26.527 109.855C26.3178 109.852 26.2072 109.781 26.1409 109.713C26.0736 109.644 26 109.526 26 109.308H20H14C14 116.187 19.4276 121.744 26.3362 121.854L26.4316 115.854ZM20 109.308L26 109.308C26 109.152 26.0268 108.973 26.1094 108.742L20.459 106.724L14.8085 104.706C14.317 106.082 14.0001 107.626 14 109.307L20 109.308ZM20.459 106.724L24.7016 110.966C24.802 110.866 26.5737 109.261 26.5742 106.495L20.5742 106.494L14.5742 106.493C14.5744 105.431 14.8723 104.407 15.4009 103.531C15.8196 102.837 16.3329 102.364 16.2163 102.481L20.459 106.724ZM20.5742 106.494L25.6622 109.674C25.8193 109.423 25.9742 109.222 26.3756 108.66L21.4932 105.173L16.6108 101.685C16.4378 101.927 15.9034 102.647 15.4862 103.314L20.5742 106.494ZM21.4932 105.173L26.5948 108.331C30.9836 101.241 35.6588 94.3697 40.5647 87.7158L35.7354 84.1552L30.906 80.5946C25.8197 87.4933 20.9612 94.633 16.3916 102.015L21.4932 105.173ZM35.7354 84.1552L40.5814 87.693C55.5184 67.2321 71.6838 49.9377 90.2996 33.9168L86.3857 29.3691L82.4719 24.8213C63.1859 41.419 46.3886 59.3863 30.8893 80.6174L35.7354 84.1552Z" fill="white" mask="url(#path-1-outside-1_1062_22331)"/>
<path d="M169.31 179.053H120.899L100.8 148.559L80.7003 179.053H31.4854V104.398H169.31V179.053Z" fill="#4B9AE8"/>
<path d="M180.394 109.308C180.394 112.926 177.465 115.855 173.847 115.855C173.445 115.855 172.928 115.797 172.526 115.74C165.118 114.993 164.486 109.94 155.872 109.94C146.627 109.94 146.627 115.855 137.381 115.855C128.135 115.855 128.135 109.94 118.889 109.94C109.644 109.94 109.644 115.855 100.398 115.855C91.1521 115.855 91.1521 109.94 81.9638 109.94C72.718 109.94 72.718 115.855 63.5297 115.855C54.2839 115.855 54.2839 109.94 45.0956 109.94C35.8499 109.94 35.8498 115.855 26.6041 115.855H26.4892H26.4318C22.8139 115.797 20 112.926 20 109.308C20 108.389 20.1723 107.528 20.4594 106.724C20.5168 106.666 20.5742 106.609 20.5742 106.494C20.8613 106.035 21.2059 105.575 21.493 105.173C25.9724 97.9374 30.7388 90.9313 35.735 84.1549C50.9531 63.3089 67.4347 45.6788 86.3857 29.3695C94.7126 22.1911 107.059 22.1911 115.271 29.4844C133.533 45.7362 150.187 63.5386 165.003 84.1549C169.999 91.0461 174.766 98.1671 179.303 105.46C179.532 105.862 179.762 106.322 180.049 106.724C180.221 107.528 180.394 108.389 180.394 109.308Z" fill="#D7E8FC"/>
<path d="M55.566 139.132C60.8492 139.132 65.1321 134.849 65.1321 129.566C65.1321 124.283 60.8492 120 55.566 120C50.2829 120 46 124.283 46 129.566C46 134.849 50.2829 139.132 55.566 139.132Z" fill="white"/>
<path d="M55.5697 134.665C58.3857 134.665 60.6686 132.383 60.6686 129.566C60.6686 126.75 58.3857 124.468 55.5697 124.468C52.7536 124.468 50.4707 126.75 50.4707 129.566C50.4707 132.383 52.7536 134.665 55.5697 134.665Z" fill="#040000"/>
<path d="M148.566 139.132C153.849 139.132 158.132 134.849 158.132 129.566C158.132 124.283 153.849 120 148.566 120C143.283 120 139 124.283 139 129.566C139 134.849 143.283 139.132 148.566 139.132Z" fill="white"/>
<path d="M148.57 134.665C151.386 134.665 153.669 132.383 153.669 129.566C153.669 126.75 151.386 124.468 148.57 124.468C145.754 124.468 143.471 126.75 143.471 129.566C143.471 132.383 145.754 134.665 148.57 134.665Z" fill="#040000"/>
<path d="M123.368 179.053H77.4268V151.603C77.4268 144.539 83.9901 138.854 91.9966 138.854H108.733C116.805 138.854 123.303 144.597 123.303 151.603V179.053H123.368Z" fill="#276288"/>
<path d="M108.869 126.221C108.413 129.485 104.529 134.778 100.498 134.805C96.4673 134.832 92.2084 129.465 92.0098 125.948C91.8112 122.438 94.6431 120.034 100.66 120C106.743 119.966 109.325 122.957 108.869 126.221Z" fill="#EAC00F"/>
</svg>
