<svg width="200" height="200" viewBox="0 0 200 200" fill="none" xmlns="http://www.w3.org/2000/svg">
<mask id="path-1-outside-1_1347_5925" maskUnits="userSpaceOnUse" x="41.9331" y="24.8242" width="115" height="150" fill="black">
<rect fill="white" x="41.9331" y="24.8242" width="115" height="150"/>
<path d="M48.3022 100C51.55 64.3236 75.4105 29.1989 105.957 31.9795C130.036 34.1715 145.772 58.7813 149.766 86.5791C149.778 86.6643 149.79 86.7497 149.802 86.835C149.86 87.2445 149.916 87.6546 149.968 88.0654C149.977 88.1331 149.985 88.2008 149.994 88.2686C150.269 90.4499 150.471 92.6481 150.6 94.8545C150.61 95.0205 150.62 95.1865 150.628 95.3525C150.648 95.7121 150.665 96.0718 150.68 96.4316C150.685 96.5416 150.689 96.6517 150.693 96.7617C150.707 97.1327 150.722 97.5038 150.732 97.875C150.736 98.026 150.739 98.1771 150.743 98.3281C150.768 99.4215 150.774 100.516 150.763 101.609C150.761 101.824 150.76 102.038 150.756 102.252C150.75 102.597 150.74 102.942 150.731 103.287C150.726 103.466 150.721 103.645 150.715 103.823C150.705 104.149 150.692 104.474 150.678 104.799C150.67 104.983 150.661 105.167 150.652 105.352C150.636 105.671 150.62 105.99 150.601 106.31C150.59 106.488 150.578 106.667 150.567 106.846C150.514 107.662 150.454 108.478 150.38 109.292C148.397 131.076 138.754 150.01 124.043 160.303C123.933 160.38 123.821 160.457 123.709 160.533C123.507 160.673 123.303 160.811 123.098 160.947C122.913 161.07 122.728 161.192 122.542 161.312C121.797 161.793 121.04 162.251 120.271 162.688C118.475 163.707 116.614 164.604 114.693 165.37C114.607 165.404 114.521 165.439 114.434 165.473C114.122 165.595 113.808 165.714 113.493 165.829C112.731 166.108 111.959 166.365 111.179 166.603C110.727 166.74 110.272 166.872 109.814 166.995C109.597 167.054 109.379 167.111 109.161 167.166C108.988 167.21 108.814 167.252 108.64 167.294C108.333 167.368 108.024 167.438 107.714 167.506C103.987 168.318 100.076 168.667 96.0044 168.499C95.1905 168.465 94.37 168.413 93.5435 168.338C91.5863 168.16 89.6848 167.871 87.8403 167.479C84.9371 166.863 82.1756 165.988 79.561 164.88C79.3789 164.803 79.1978 164.724 79.0171 164.645C77.3126 163.895 75.6717 163.046 74.0962 162.103C73.4771 161.732 72.8678 161.347 72.269 160.948C72.0845 160.825 71.9009 160.701 71.7183 160.575C70.7195 159.888 69.7503 159.16 68.8101 158.396C68.5492 158.183 68.29 157.969 68.0337 157.751C53.3699 145.285 46.1661 123.467 48.3022 100Z"/>
</mask>
<path d="M48.3022 100C51.55 64.3236 75.4105 29.1989 105.957 31.9795C130.036 34.1715 145.772 58.7813 149.766 86.5791C149.778 86.6643 149.79 86.7497 149.802 86.835C149.86 87.2445 149.916 87.6546 149.968 88.0654C149.977 88.1331 149.985 88.2008 149.994 88.2686C150.269 90.4499 150.471 92.6481 150.6 94.8545C150.61 95.0205 150.62 95.1865 150.628 95.3525C150.648 95.7121 150.665 96.0718 150.68 96.4316C150.685 96.5416 150.689 96.6517 150.693 96.7617C150.707 97.1327 150.722 97.5038 150.732 97.875C150.736 98.026 150.739 98.1771 150.743 98.3281C150.768 99.4215 150.774 100.516 150.763 101.609C150.761 101.824 150.76 102.038 150.756 102.252C150.75 102.597 150.74 102.942 150.731 103.287C150.726 103.466 150.721 103.645 150.715 103.823C150.705 104.149 150.692 104.474 150.678 104.799C150.67 104.983 150.661 105.167 150.652 105.352C150.636 105.671 150.62 105.99 150.601 106.31C150.59 106.488 150.578 106.667 150.567 106.846C150.514 107.662 150.454 108.478 150.38 109.292C148.397 131.076 138.754 150.01 124.043 160.303C123.933 160.38 123.821 160.457 123.709 160.533C123.507 160.673 123.303 160.811 123.098 160.947C122.913 161.07 122.728 161.192 122.542 161.312C121.797 161.793 121.04 162.251 120.271 162.688C118.475 163.707 116.614 164.604 114.693 165.37C114.607 165.404 114.521 165.439 114.434 165.473C114.122 165.595 113.808 165.714 113.493 165.829C112.731 166.108 111.959 166.365 111.179 166.603C110.727 166.74 110.272 166.872 109.814 166.995C109.597 167.054 109.379 167.111 109.161 167.166C108.988 167.21 108.814 167.252 108.64 167.294C108.333 167.368 108.024 167.438 107.714 167.506C103.987 168.318 100.076 168.667 96.0044 168.499C95.1905 168.465 94.37 168.413 93.5435 168.338C91.5863 168.16 89.6848 167.871 87.8403 167.479C84.9371 166.863 82.1756 165.988 79.561 164.88C79.3789 164.803 79.1978 164.724 79.0171 164.645C77.3126 163.895 75.6717 163.046 74.0962 162.103C73.4771 161.732 72.8678 161.347 72.269 160.948C72.0845 160.825 71.9009 160.701 71.7183 160.575C70.7195 159.888 69.7503 159.16 68.8101 158.396C68.5492 158.183 68.29 157.969 68.0337 157.751C53.3699 145.285 46.1661 123.467 48.3022 100Z" fill="black"/>
<path d="M48.3022 100L42.327 99.456L42.327 99.4561L48.3022 100ZM105.957 31.9795L106.5 26.0042L106.5 26.0042L105.957 31.9795ZM149.766 86.5791L143.827 87.4325L143.827 87.4332L149.766 86.5791ZM149.802 86.835L155.743 85.9973L155.743 85.9966L149.802 86.835ZM149.968 88.0654L144.017 88.8279L144.017 88.8286L149.968 88.0654ZM149.994 88.2686L155.947 87.5185L155.946 87.5178L149.994 88.2686ZM150.6 94.8545L144.61 95.2047L144.61 95.2052L150.6 94.8545ZM150.628 95.3525L156.62 95.0326L156.62 95.0321L150.628 95.3525ZM150.68 96.4316L144.686 96.6861L144.686 96.6865L150.68 96.4316ZM150.693 96.7617L156.688 96.5274L156.688 96.5269L150.693 96.7617ZM150.732 97.875L144.734 98.0416L144.734 98.042L150.732 97.875ZM150.743 98.3281L156.741 98.1891L156.741 98.1888L150.743 98.3281ZM150.763 101.609L144.764 101.547V101.548L150.763 101.609ZM150.756 102.252L156.755 102.354V102.353L150.756 102.252ZM150.731 103.287L144.733 103.121V103.121L150.731 103.287ZM150.715 103.823L156.712 104.022L156.712 104.022L150.715 103.823ZM150.678 104.799L156.673 105.059L156.673 105.059L150.678 104.799ZM150.652 105.352L144.659 105.057V105.057L150.652 105.352ZM150.601 106.31L156.591 106.664L156.591 106.664L150.601 106.31ZM150.567 106.846L144.579 106.457L144.579 106.457L150.567 106.846ZM150.38 109.292L156.356 109.836H156.356L150.38 109.292ZM124.043 160.303L120.604 155.387L120.603 155.387L124.043 160.303ZM123.709 160.533L127.108 165.478L127.108 165.478L123.709 160.533ZM123.098 160.947L119.776 155.951L119.776 155.951L123.098 160.947ZM122.542 161.312L125.793 166.355L125.794 166.355L122.542 161.312ZM120.271 162.688L117.31 157.469L117.309 157.469L120.271 162.688ZM114.693 165.37L116.916 170.943L116.916 170.943L114.693 165.37ZM114.434 165.473L112.246 159.886L112.246 159.886L114.434 165.473ZM113.493 165.829L115.553 171.464L115.554 171.464L113.493 165.829ZM111.179 166.603L109.432 160.863L109.432 160.863L111.179 166.603ZM109.814 166.995L111.376 172.788L111.376 172.788L109.814 166.995ZM109.161 167.166L107.688 161.35L107.688 161.35L109.161 167.166ZM108.64 167.294L110.043 173.128H110.043L108.64 167.294ZM107.714 167.506L106.437 161.643H106.437L107.714 167.506ZM96.0044 168.499L96.2515 162.504H96.2515L96.0044 168.499ZM93.5435 168.338L92.9995 174.313H92.9995L93.5435 168.338ZM87.8403 167.479L89.0872 161.61L87.8403 167.479ZM79.561 164.88L81.9022 159.355L81.9021 159.355L79.561 164.88ZM79.0171 164.645L76.6023 170.137L76.6024 170.137L79.0171 164.645ZM74.0962 162.103L77.1785 156.955L77.1783 156.955L74.0962 162.103ZM72.269 160.948L68.9409 165.941L68.9411 165.941L72.269 160.948ZM71.7183 160.575L75.1201 155.633L75.1199 155.633L71.7183 160.575ZM68.8101 158.396L65.0243 163.05L65.0245 163.051L68.8101 158.396ZM68.0337 157.751L71.9201 153.18L71.9199 153.18L68.0337 157.751ZM48.3022 100L54.2775 100.544C55.8063 83.7503 62.2008 67.182 71.6 55.2886C81.0049 43.388 92.8154 36.8081 105.413 37.9548L105.957 31.9795L106.5 26.0042C88.5516 24.3703 73.1589 33.9624 62.1851 47.8481C51.2056 61.7411 44.0459 80.5734 42.327 99.456L48.3022 100ZM105.957 31.9795L105.413 37.9548C115.383 38.8624 123.918 44.3977 130.597 53.2825C137.315 62.2188 141.942 74.3162 143.827 87.4325L149.766 86.5791L155.705 85.7257C153.596 71.0443 148.358 56.9378 140.189 46.0718C131.982 35.1543 120.609 27.2886 106.5 26.0042L105.957 31.9795ZM149.766 86.5791L143.827 87.4332C143.838 87.5087 143.846 87.5689 143.861 87.6733L149.802 86.835L155.743 85.9966C155.734 85.9305 155.719 85.82 155.705 85.725L149.766 86.5791ZM149.802 86.835L143.861 87.6726C143.916 88.0616 143.968 88.4463 144.017 88.8279L149.968 88.0654L155.92 87.3029C155.863 86.8629 155.804 86.4273 155.743 85.9973L149.802 86.835ZM149.968 88.0654L144.017 88.8286C144.027 88.9061 144.025 88.8908 144.041 89.0193L149.994 88.2686L155.946 87.5178C155.946 87.5109 155.927 87.3601 155.92 87.3023L149.968 88.0654ZM149.994 88.2686L144.041 89.0187C144.299 91.0669 144.489 93.1318 144.61 95.2047L150.6 94.8545L156.59 94.5043C156.453 92.1645 156.238 89.8329 155.947 87.5185L149.994 88.2686ZM150.6 94.8545L144.61 95.2052C144.62 95.3737 144.629 95.5246 144.637 95.673L150.628 95.3525L156.62 95.0321C156.61 94.8484 156.599 94.6672 156.59 94.5038L150.6 94.8545ZM150.628 95.3525L144.637 95.6725C144.655 96.0107 144.671 96.3485 144.686 96.6861L150.68 96.4316L156.675 96.1772C156.659 95.795 156.64 95.4134 156.62 95.0326L150.628 95.3525ZM150.68 96.4316L144.686 96.6865C144.69 96.7917 144.691 96.8344 144.697 96.9965L150.693 96.7617L156.688 96.5269C156.686 96.469 156.68 96.2916 156.675 96.1768L150.68 96.4316ZM150.693 96.7617L144.697 96.9961C144.712 97.3687 144.725 97.7084 144.734 98.0416L150.732 97.875L156.73 97.7084C156.718 97.2991 156.703 96.8968 156.688 96.5274L150.693 96.7617ZM150.732 97.875L144.734 98.042C144.738 98.1749 144.74 98.2906 144.744 98.4675L150.743 98.3281L156.741 98.1888C156.738 98.0635 156.734 97.8771 156.73 97.708L150.732 97.875ZM150.743 98.3281L144.744 98.4671C144.768 99.4916 144.774 100.519 144.764 101.547L150.763 101.609L156.763 101.671C156.775 100.513 156.768 99.3515 156.741 98.1891L150.743 98.3281ZM150.763 101.609L144.764 101.548C144.761 101.808 144.76 101.961 144.757 102.15L150.756 102.252L156.755 102.353C156.76 102.114 156.761 101.839 156.763 101.671L150.763 101.609ZM150.756 102.252L144.757 102.15C144.752 102.456 144.743 102.762 144.733 103.121L150.731 103.287L156.729 103.453C156.738 103.122 156.749 102.739 156.755 102.354L150.756 102.252ZM150.731 103.287L144.733 103.121C144.728 103.309 144.724 103.467 144.719 103.624L150.715 103.823L156.712 104.022C156.719 103.822 156.724 103.623 156.729 103.453L150.731 103.287ZM150.715 103.823L144.719 103.624C144.708 103.932 144.697 104.237 144.684 104.539L150.678 104.799L156.673 105.059C156.688 104.711 156.701 104.365 156.712 104.022L150.715 103.823ZM150.678 104.799L144.684 104.539C144.677 104.701 144.669 104.86 144.659 105.057L150.652 105.352L156.645 105.646C156.653 105.474 156.664 105.265 156.673 105.059L150.678 104.799ZM150.652 105.352L144.659 105.057C144.644 105.373 144.629 105.667 144.612 105.955L150.601 106.31L156.591 106.664C156.611 106.314 156.629 105.969 156.645 105.646L150.652 105.352ZM150.601 106.31L144.612 105.955C144.602 106.111 144.592 106.26 144.579 106.457L150.567 106.846L156.554 107.234C156.565 107.074 156.579 106.865 156.591 106.664L150.601 106.31ZM150.567 106.846L144.579 106.457C144.528 107.244 144.473 108.004 144.405 108.748L150.38 109.292L156.356 109.836C156.436 108.952 156.499 108.081 156.554 107.234L150.567 106.846ZM150.38 109.292L144.405 108.748C142.54 129.239 133.522 146.347 120.604 155.387L124.043 160.303L127.483 165.219C143.986 153.672 154.255 132.913 156.356 109.836L150.38 109.292ZM124.043 160.303L120.603 155.387C120.52 155.445 120.442 155.499 120.311 155.589L123.709 160.533L127.108 165.478C127.2 165.415 127.346 165.315 127.484 165.219L124.043 160.303ZM123.709 160.533L120.311 155.588C120.124 155.717 119.947 155.837 119.776 155.951L123.098 160.947L126.42 165.944C126.659 165.785 126.889 165.628 127.108 165.478L123.709 160.533ZM123.098 160.947L119.776 155.951C119.605 156.065 119.445 156.17 119.289 156.27L122.542 161.312L125.794 166.355C126.011 166.214 126.222 166.076 126.42 165.944L123.098 160.947ZM122.542 161.312L119.29 156.27C118.64 156.689 117.98 157.089 117.31 157.469L120.271 162.688L123.232 167.906C124.1 167.413 124.954 166.896 125.793 166.355L122.542 161.312ZM120.271 162.688L117.309 157.469C115.747 158.356 114.133 159.134 112.47 159.797L114.693 165.37L116.916 170.943C119.096 170.074 121.203 169.057 123.233 167.906L120.271 162.688ZM114.693 165.37L112.47 159.797C112.384 159.831 112.313 159.86 112.246 159.886L114.434 165.473L116.622 171.06C116.728 171.018 116.83 170.978 116.916 170.943L114.693 165.37ZM114.434 165.473L112.246 159.886C111.976 159.992 111.705 160.094 111.432 160.194L113.493 165.829L115.554 171.464C115.912 171.333 116.268 171.198 116.622 171.059L114.434 165.473ZM113.493 165.829L111.432 160.194C110.778 160.433 110.111 160.656 109.432 160.863L111.179 166.603L112.926 172.343C113.808 172.074 114.684 171.782 115.553 171.464L113.493 165.829ZM111.179 166.603L109.432 160.863C109.034 160.984 108.641 161.097 108.252 161.202L109.814 166.995L111.376 172.788C111.903 172.646 112.42 172.497 112.926 172.342L111.179 166.603ZM109.814 166.995L108.252 161.202C108.063 161.253 107.874 161.302 107.688 161.35L109.161 167.166L110.634 172.982C110.884 172.919 111.131 172.854 111.376 172.788L109.814 166.995ZM109.161 167.166L107.688 161.35C107.548 161.385 107.401 161.421 107.238 161.46L108.64 167.294L110.043 173.128C110.227 173.083 110.427 173.035 110.634 172.982L109.161 167.166ZM108.64 167.294L107.238 161.46C106.974 161.524 106.707 161.585 106.437 161.643L107.714 167.506L108.992 173.368C109.341 173.292 109.692 173.212 110.043 173.128L108.64 167.294ZM107.714 167.506L106.437 161.643C103.218 162.345 99.8194 162.651 96.2515 162.504L96.0044 168.499L95.7573 174.494C100.333 174.683 104.757 174.291 108.992 173.368L107.714 167.506ZM96.0044 168.499L96.2515 162.504C95.5283 162.474 94.8072 162.428 94.0874 162.363L93.5435 168.338L92.9995 174.313C93.9328 174.398 94.8526 174.457 95.7573 174.494L96.0044 168.499ZM93.5435 168.338L94.0874 162.363C92.3634 162.206 90.6966 161.952 89.0872 161.61L87.8403 167.479L86.5934 173.348C88.6729 173.79 90.8093 174.114 92.9995 174.313L93.5435 168.338ZM87.8403 167.479L89.0872 161.61C86.5572 161.073 84.1623 160.313 81.9022 159.355L79.561 164.88L77.2199 170.404C80.1889 171.663 83.3169 172.652 86.5934 173.348L87.8403 167.479ZM79.561 164.88L81.9021 159.355C81.7531 159.292 81.5982 159.225 81.4318 159.152L79.0171 164.645L76.6024 170.137C76.7973 170.223 77.0048 170.313 77.22 170.404L79.561 164.88ZM79.0171 164.645L81.4319 159.152C79.958 158.504 78.5399 157.77 77.1785 156.955L74.0962 162.103L71.0139 167.25C72.8034 168.322 74.6672 169.286 76.6023 170.137L79.0171 164.645ZM74.0962 162.103L77.1783 156.955C76.6397 156.632 76.1124 156.299 75.597 155.956L72.269 160.948L68.9411 165.941C69.6232 166.395 70.3146 166.832 71.0141 167.25L74.0962 162.103ZM72.269 160.948L75.5972 155.956C75.4365 155.849 75.2775 155.741 75.1201 155.633L71.7183 160.575L68.3164 165.518C68.5242 165.661 68.7324 165.802 68.9409 165.941L72.269 160.948ZM71.7183 160.575L75.1199 155.633C74.257 155.039 73.4157 154.407 72.5956 153.74L68.8101 158.396L65.0245 163.051C66.085 163.913 67.182 164.737 68.3166 165.518L71.7183 160.575ZM68.8101 158.396L72.5958 153.741C72.3607 153.549 72.1361 153.363 71.9201 153.18L68.0337 157.751L64.1473 162.322C64.444 162.574 64.7377 162.817 65.0243 163.05L68.8101 158.396ZM68.0337 157.751L71.9199 153.18C59.1388 142.314 52.2653 122.65 54.2775 100.544L48.3022 100L42.327 99.4561C40.0669 124.283 47.601 148.256 64.1475 162.322L68.0337 157.751Z" fill="white" mask="url(#path-1-outside-1_1347_5925)"/>
<path d="M93.5434 168.337C124.852 171.187 147.237 143.819 150.38 109.292C153.628 73.6154 136.503 34.76 105.957 31.9793C75.4106 29.1986 51.5504 64.3228 48.3026 99.9993C45.1594 134.527 62.2345 165.487 93.5434 168.337Z" fill="#112D3F"/>
<path d="M108.026 93.0932C107.386 96.9122 101.674 102.083 97.5601 101.436C93.4465 100.79 89.7243 94.131 90.3686 90.3123C91.0091 86.4933 94.223 83.8204 100.361 84.7857C106.571 85.7645 108.67 89.2746 108.026 93.0932Z" fill="#EAC00F"/>
<path d="M150.379 109.285C147.236 143.812 124.857 171.188 93.5436 168.337C62.2299 165.486 45.1624 134.52 48.3056 99.9925C51.5482 140.602 87.0686 150.122 110.404 136.316C135.567 121.429 148.807 62.0598 119.519 35.9146C141.435 47.0673 153.108 79.3102 150.379 109.285Z" fill="#062032"/>
<path d="M75.3985 90.5484C80.9255 91.0515 85.814 86.9789 86.3171 81.4518C86.8203 75.9247 82.7476 71.0363 77.2205 70.5331C71.6935 70.03 66.805 74.1026 66.3019 79.6297C65.7987 85.1568 69.8714 90.0452 75.3985 90.5484Z" fill="white"/>
<path d="M75.6018 86.5985C78.9153 86.9001 81.8461 84.4585 82.1477 81.1449C82.4494 77.8313 80.0077 74.9006 76.6941 74.5989C73.3805 74.2973 70.4498 76.7389 70.1481 80.0525C69.8465 83.3661 72.2882 86.2968 75.6018 86.5985Z" fill="black"/>
<path d="M122.635 94.8482C128.162 95.3513 133.05 91.2787 133.553 85.7516C134.056 80.2245 129.984 75.3361 124.457 74.8329C118.93 74.3298 114.041 78.4025 113.538 83.9295C113.035 89.4566 117.107 94.345 122.635 94.8482Z" fill="white"/>
<path d="M122.838 90.8983C126.151 91.1999 129.082 88.7583 129.384 85.4447C129.685 82.1311 127.244 79.2004 123.93 78.8987C120.617 78.5971 117.686 81.0387 117.384 84.3523C117.083 87.6659 119.524 90.5966 122.838 90.8983Z" fill="black"/>
</svg>
