<svg width="200" height="200" viewBox="0 0 200 200" fill="none" xmlns="http://www.w3.org/2000/svg">
<mask id="path-1-outside-1_1062_29644" maskUnits="userSpaceOnUse" x="11.1484" y="26" width="177" height="148" fill="black">
<rect fill="white" x="11.1484" y="26" width="177" height="148"/>
<path d="M105.411 32C136.534 32.0004 188.81 74.3104 181.081 125.978C173.351 177.645 127.38 167.474 97.0708 166.66C66.762 165.846 34.0119 164.016 20.9936 129.639C3.09291 65.3599 74.2873 32 105.411 32Z"/>
</mask>
<path d="M105.411 32C136.534 32.0004 188.81 74.3104 181.081 125.978C173.351 177.645 127.38 167.474 97.0708 166.66C66.762 165.846 34.0119 164.016 20.9936 129.639C3.09291 65.3599 74.2873 32 105.411 32Z" fill="#EAC00F"/>
<path d="M105.411 32L105.411 26L105.411 26L105.411 32ZM181.081 125.978L187.015 126.865L187.015 126.865L181.081 125.978ZM97.0708 166.66L97.2318 160.662L97.2318 160.662L97.0708 166.66ZM20.9936 129.639L15.2136 131.248L15.2864 131.51L15.3825 131.764L20.9936 129.639ZM105.411 32L105.411 38C118.74 38.0002 138.116 47.3966 153.441 63.7204C168.585 79.8521 178.662 101.589 175.147 125.09L181.081 125.978L187.015 126.865C191.228 98.6988 179.032 73.4472 162.19 55.5071C145.528 37.759 123.205 26.0002 105.411 26L105.411 32ZM181.081 125.978L175.147 125.09C173.349 137.106 169.425 144.941 164.566 150.155C159.707 155.369 153.464 158.446 146.172 160.158C138.806 161.887 130.59 162.17 122.077 161.915C117.838 161.788 113.617 161.532 109.432 161.276C105.284 161.022 101.143 160.767 97.2318 160.662L97.0708 166.66L96.9098 172.658C100.576 172.756 104.502 172.997 108.699 173.254C112.86 173.508 117.263 173.776 121.717 173.91C130.589 174.176 140.032 173.925 148.914 171.84C157.869 169.738 166.462 165.722 173.345 158.336C180.226 150.952 184.947 140.682 187.015 126.865L181.081 125.978ZM97.0708 166.66L97.2318 160.662C81.9483 160.252 67.1311 159.571 54.5656 155.085C42.4087 150.745 32.4158 142.859 26.6048 127.514L20.9936 129.639L15.3825 131.764C22.5897 150.795 35.4809 161.013 50.5309 166.386C65.1722 171.613 81.8845 172.255 96.9098 172.658L97.0708 166.66ZM20.9936 129.639L26.7737 128.029C18.6107 98.717 30.5329 76.5835 48.6822 61.3049C67.1613 45.7486 91.3995 38 105.411 38L105.411 32L105.411 26C88.2984 26 61.3778 34.9313 40.954 52.1247C20.2005 69.5957 5.47584 96.2816 15.2136 131.248L20.9936 129.639Z" fill="white" mask="url(#path-1-outside-1_1062_29644)"/>
<path d="M20.9937 129.639C3.09257 65.36 74.2868 32 105.41 32C136.534 32 188.811 74.3103 181.081 125.978C173.351 177.645 127.379 167.474 97.0705 166.661C66.7617 165.847 34.0119 164.016 20.9937 129.639Z" fill="#E6E6E4"/>
<path d="M38.3473 123.052C24.3782 73.0573 79.9343 47.1106 104.221 47.1106C128.508 47.1106 169.302 80.0187 163.271 120.204C157.239 160.39 121.365 152.48 97.7135 151.847C74.0621 151.214 48.506 149.79 38.3473 123.052Z" fill="#593D31"/>
<path d="M99.9964 67.3942H99.9474L99.8689 67.3976C92.7475 67.7348 77.5352 75.1847 65.6643 100.968C61.1701 109.215 61.4725 119.245 66.4555 127.206C72.6775 136.893 85.0039 142.146 100.246 141.545C115.321 142.074 127.576 136.836 133.773 127.169C138.702 119.477 138.938 109.877 134.421 100.829C129.24 89.6074 115.385 68.1063 100.19 67.3976C100.148 67.396 100.059 67.3942 99.9964 67.3942Z" fill="#EA5A47"/>
<path d="M133.774 127.169C127.576 136.836 115.321 142.074 100.247 141.545C98.157 141.626 96.0644 141.591 93.9785 141.44C106.319 140.577 116.226 135.536 121.591 127.169C126.52 119.477 126.756 109.877 122.239 100.828C117.763 91.1339 106.81 73.7769 94.1145 68.7739C95.9458 68.0071 97.8894 67.5424 99.8695 67.3977L99.948 67.3941H99.997C100.06 67.3941 100.149 67.3958 100.191 67.3977C115.386 68.1067 129.241 89.6075 134.422 100.828C138.939 109.877 138.703 119.477 133.774 127.169Z" fill="#D22F27"/>
<path d="M76.8262 114.672C76.8212 111.918 79.7992 110.192 82.1865 111.565C83.2986 112.204 83.9832 113.39 83.9808 114.672C83.9858 117.426 81.0078 119.153 78.6205 117.78C77.5084 117.141 76.8238 115.955 76.8262 114.672Z" fill="#D22F27"/>
<path d="M91.1328 114.672C91.1278 111.918 94.1058 110.192 96.4932 111.565C97.6051 112.204 98.2897 113.39 98.2874 114.672C98.2924 117.426 95.3145 119.153 92.927 117.78C91.8151 117.141 91.1305 115.955 91.1328 114.672Z" fill="#D22F27"/>
<path d="M103.654 114.672C103.649 111.918 106.627 110.192 109.015 111.565C110.127 112.204 110.811 113.39 110.809 114.672C110.814 117.426 107.836 119.153 105.449 117.78C104.337 117.141 103.652 115.955 103.654 114.672Z" fill="#D22F27"/>
<path d="M116.172 114.672C116.167 111.918 119.145 110.192 121.532 111.565C122.644 112.204 123.329 113.39 123.327 114.672C123.331 117.426 120.354 119.153 117.966 117.78C116.854 117.141 116.17 115.955 116.172 114.672Z" fill="#D22F27"/>
<path d="M110.811 99.6292C110.806 96.8754 113.784 95.1487 116.171 96.5214C117.283 97.1607 117.968 98.3465 117.965 99.6292C117.97 102.383 114.992 104.109 112.605 102.737C111.493 102.098 110.808 100.912 110.811 99.6292Z" fill="#D22F27"/>
<path d="M96.5 99.6292C96.495 96.8754 99.4729 95.1487 101.86 96.5214C102.972 97.1607 103.657 98.3465 103.655 99.6292C103.66 102.383 100.682 104.109 98.2942 102.737C97.1823 102.098 96.4977 100.912 96.5 99.6292Z" fill="#D22F27"/>
<path d="M82.1856 99.6292C82.1806 96.8754 85.1586 95.1487 87.5459 96.5214C88.658 97.1607 89.3426 98.3465 89.3402 99.6292C89.3452 102.383 86.3672 104.109 83.9799 102.737C82.8678 102.098 82.1832 100.912 82.1856 99.6292Z" fill="#D22F27"/>
<path d="M89.3457 82.4626C89.3407 79.7088 92.3187 77.9823 94.7061 79.3549C95.818 79.9942 96.5026 81.18 96.5003 82.4626C96.5053 85.2164 93.5274 86.943 91.1399 85.5704C90.028 84.931 89.3434 83.7453 89.3457 82.4626Z" fill="#D22F27"/>
<path d="M103.654 82.4626C103.649 79.7088 106.627 77.9823 109.015 79.3549C110.127 79.9942 110.811 81.18 110.809 82.4626C110.814 85.2164 107.836 86.943 105.449 85.5704C104.337 84.931 103.652 83.7453 103.654 82.4626Z" fill="#D22F27"/>
<path d="M90 136C93.866 136 97 132.866 97 129C97 125.134 93.866 122 90 122C86.134 122 83 125.134 83 129C83 132.866 86.134 136 90 136Z" fill="white"/>
<path d="M89.89 133.247C92.2078 133.247 94.0866 131.368 94.0866 129.05C94.0866 126.733 92.2078 124.854 89.89 124.854C87.5723 124.854 85.6934 126.733 85.6934 129.05C85.6934 131.368 87.5723 133.247 89.89 133.247Z" fill="black"/>
<path d="M112.958 136.883C112.58 139.97 109.367 144.974 106.032 145C102.696 145.026 99.1724 139.95 99.0081 136.625C98.8437 133.306 101.187 131.033 106.165 131C111.199 130.968 113.335 133.796 112.958 136.883Z" fill="#EAC00F"/>
</svg>
