<svg width="200" height="200" viewBox="0 0 200 200" fill="none" xmlns="http://www.w3.org/2000/svg">
<mask id="path-1-outside-1_1347_4678" maskUnits="userSpaceOnUse" x="5" y="50.0459" width="191" height="99" fill="black">
<rect fill="white" x="5" y="50.0459" width="191" height="99"/>
<path d="M65.1465 72.2578C78.8811 70.9874 185.646 71.8789 185.646 71.8789C187.574 71.8791 189.15 73.7607 189.15 76.0684V138.489C189.15 140.797 187.574 142.679 185.646 142.68C185.646 142.68 66.0017 142.633 65.7119 142.547C65.5922 142.56 65.4791 142.566 65.3594 142.566H15.1299C12.383 142.566 10.315 139.308 11.2129 136.148C22.9389 94.6588 51.4119 73.5282 65.1465 72.2578ZM163.53 65.6104C164.057 65.6104 164.484 66.0373 164.484 66.5645C164.484 67.0915 164.057 67.5186 163.53 67.5186H119.214C118.687 67.5185 118.26 67.0915 118.26 66.5645C118.26 66.0374 118.687 65.6104 119.214 65.6104H163.53ZM143.928 60.7803C144.409 60.8294 144.784 61.2355 144.784 61.7295C144.784 62.2233 144.409 62.6296 143.928 62.6787L143.83 62.6836H128.08C127.553 62.6836 127.126 62.2564 127.126 61.7295C127.126 61.2024 127.553 60.7754 128.08 60.7754H143.83L143.928 60.7803ZM157.291 56.0459C157.818 56.0459 158.246 56.4729 158.246 57C158.246 57.5271 157.818 57.9541 157.291 57.9541H122.399C121.872 57.9539 121.445 57.527 121.445 57C121.445 56.473 121.872 56.0461 122.399 56.0459H157.291Z"/>
</mask>
<path d="M65.1465 72.2578C78.8811 70.9874 185.646 71.8789 185.646 71.8789C187.574 71.8791 189.15 73.7607 189.15 76.0684V138.489C189.15 140.797 187.574 142.679 185.646 142.68C185.646 142.68 66.0017 142.633 65.7119 142.547C65.5922 142.56 65.4791 142.566 65.3594 142.566H15.1299C12.383 142.566 10.315 139.308 11.2129 136.148C22.9389 94.6588 51.4119 73.5282 65.1465 72.2578ZM163.53 65.6104C164.057 65.6104 164.484 66.0373 164.484 66.5645C164.484 67.0915 164.057 67.5186 163.53 67.5186H119.214C118.687 67.5185 118.26 67.0915 118.26 66.5645C118.26 66.0374 118.687 65.6104 119.214 65.6104H163.53ZM143.928 60.7803C144.409 60.8294 144.784 61.2355 144.784 61.7295C144.784 62.2233 144.409 62.6296 143.928 62.6787L143.83 62.6836H128.08C127.553 62.6836 127.126 62.2564 127.126 61.7295C127.126 61.2024 127.553 60.7754 128.08 60.7754H143.83L143.928 60.7803ZM157.291 56.0459C157.818 56.0459 158.246 56.4729 158.246 57C158.246 57.5271 157.818 57.9541 157.291 57.9541H122.399C121.872 57.9539 121.445 57.527 121.445 57C121.445 56.473 121.872 56.0461 122.399 56.0459H157.291Z" fill="#898989"/>
<path d="M65.1465 72.2578L64.5939 66.2833L64.5939 66.2833L65.1465 72.2578ZM185.646 71.8789L185.595 77.8787L185.62 77.8789L185.645 77.8789L185.646 71.8789ZM189.15 76.0684H195.15V76.0679L189.15 76.0684ZM185.646 142.68L185.643 148.68H185.646L185.646 142.68ZM65.7119 142.547L67.4275 136.797L66.2601 136.449L65.0493 136.584L65.7119 142.547ZM65.3594 142.566V148.566H65.3594L65.3594 142.566ZM15.1299 142.566L15.1297 148.566H15.1299V142.566ZM11.2129 136.148L16.9843 137.789L16.9867 137.78L11.2129 136.148ZM164.484 66.5645L170.484 66.5652V66.5645H164.484ZM119.214 67.5186L119.213 73.5186H119.214V67.5186ZM118.26 66.5645H112.26V66.5652L118.26 66.5645ZM119.214 65.6104V59.6104H119.213L119.214 65.6104ZM143.928 60.7803L144.538 54.8114L144.383 54.7955L144.227 54.7878L143.928 60.7803ZM144.784 61.7295L150.784 61.7325V61.7295H144.784ZM143.928 62.6787L144.227 68.6712L144.382 68.6635L144.537 68.6477L143.928 62.6787ZM143.83 62.6836V68.6836H143.98L144.13 68.6761L143.83 62.6836ZM127.126 61.7295H121.126V61.7325L127.126 61.7295ZM143.83 60.7754L144.13 54.7829L143.98 54.7754H143.83V60.7754ZM122.399 57.9541L122.397 63.9541H122.399V57.9541ZM122.399 56.0459V50.0459L122.397 50.0459L122.399 56.0459ZM65.1465 72.2578L65.6991 78.2323C72.1986 77.6311 101.901 77.5274 130.533 77.592C144.726 77.624 158.493 77.6957 168.712 77.7593C173.821 77.7912 178.042 77.821 180.987 77.8429C182.459 77.8539 183.611 77.8628 184.396 77.869C184.788 77.8721 185.088 77.8745 185.29 77.8762C185.391 77.877 185.467 77.8776 185.519 77.8781C185.544 77.8783 185.563 77.8784 185.576 77.8785C185.583 77.8786 185.587 77.8786 185.591 77.8787C185.592 77.8787 185.593 77.8787 185.594 77.8787C185.595 77.8787 185.595 77.8787 185.646 71.8789C185.696 65.8791 185.695 65.8791 185.694 65.8791C185.693 65.8791 185.692 65.8791 185.691 65.8791C185.687 65.879 185.682 65.879 185.676 65.879C185.663 65.8788 185.643 65.8787 185.618 65.8785C185.566 65.878 185.489 65.8774 185.388 65.8766C185.185 65.8749 184.884 65.8725 184.491 65.8694C183.704 65.8632 182.55 65.8542 181.076 65.8432C178.128 65.8213 173.901 65.7915 168.786 65.7596C158.558 65.6958 144.775 65.624 130.56 65.592C102.376 65.5284 71.829 65.6141 64.5939 66.2833L65.1465 72.2578ZM185.646 71.8789L185.645 77.8789C184.557 77.8788 183.835 77.3358 183.52 76.9592C183.213 76.5922 183.15 76.2612 183.15 76.0688L189.15 76.0684L195.15 76.0679C195.15 71.4914 191.844 65.8797 185.646 65.8789L185.646 71.8789ZM189.15 76.0684H183.15V138.489H189.15H195.15V76.0684H189.15ZM189.15 138.489H183.15C183.15 138.297 183.213 137.966 183.519 137.6C183.834 137.223 184.557 136.68 185.645 136.68L185.646 142.68L185.646 148.68C191.845 148.679 195.15 143.065 195.15 138.489H189.15ZM185.646 142.68C185.648 136.68 185.647 136.68 185.646 136.68C185.646 136.68 185.644 136.68 185.642 136.68C185.639 136.68 185.633 136.68 185.626 136.68C185.612 136.68 185.59 136.68 185.561 136.68C185.504 136.68 185.418 136.68 185.305 136.68C185.078 136.679 184.742 136.679 184.304 136.679C183.428 136.679 182.143 136.678 180.507 136.678C177.235 136.676 172.56 136.674 166.95 136.671C155.729 136.665 140.765 136.657 125.792 136.646C110.819 136.635 95.8377 136.621 84.5826 136.604C78.9545 136.596 74.2607 136.587 70.9659 136.577C69.3175 136.573 68.0243 136.568 67.1408 136.563C66.6974 136.56 66.3665 136.558 66.1485 136.555C66.0365 136.554 65.9712 136.553 65.941 136.552C65.9214 136.552 65.9415 136.552 65.9809 136.554C65.9953 136.554 66.0589 136.557 66.1439 136.563C66.191 136.566 66.3182 136.578 66.3963 136.586C66.5434 136.605 67.062 136.701 67.4275 136.797L65.7119 142.547L63.9963 148.296C64.363 148.393 64.8836 148.49 65.0336 148.509C65.1147 148.517 65.2458 148.529 65.2977 148.533C65.3921 148.54 65.4689 148.543 65.5 148.544C65.5729 148.547 65.6407 148.549 65.683 148.55C65.7766 148.552 65.8915 148.553 66.0144 148.554C66.2662 148.557 66.6236 148.56 67.0724 148.563C67.9733 148.568 69.2802 148.573 70.9311 148.577C74.2348 148.587 78.9357 148.596 84.565 148.604C95.8246 148.621 110.809 148.635 125.783 148.646C140.757 148.657 155.722 148.665 166.944 148.671C172.554 148.674 177.229 148.676 180.501 148.678C182.137 148.678 183.423 148.679 184.299 148.679C184.738 148.679 185.073 148.679 185.3 148.68C185.413 148.68 185.499 148.68 185.556 148.68C185.585 148.68 185.607 148.68 185.621 148.68C185.629 148.68 185.634 148.68 185.638 148.68C185.64 148.68 185.641 148.68 185.642 148.68C185.643 148.68 185.643 148.68 185.646 142.68ZM65.7119 142.547L65.0493 136.584C65.0948 136.579 65.1471 136.574 65.2042 136.571C65.2613 136.568 65.3137 136.566 65.3593 136.566L65.3594 142.566L65.3594 148.566C65.7 148.566 66.0343 148.548 66.3745 148.51L65.7119 142.547ZM65.3594 142.566V136.566H15.1299V142.566V148.566H65.3594V142.566ZM15.1299 142.566L15.13 136.566C16.2847 136.566 16.8214 137.247 16.9074 137.386C17.0097 137.551 17.0149 137.681 16.9843 137.789L11.2129 136.148L5.44146 134.508C4.51297 137.775 5.10327 141.114 6.70176 143.698C8.28403 146.256 11.2282 148.566 15.1297 148.566L15.1299 142.566ZM11.2129 136.148L16.9867 137.78C22.5753 118.007 32.1149 103.222 41.7348 93.2968C51.5943 83.1245 60.8909 78.6771 65.6991 78.2323L65.1465 72.2578L64.5939 66.2833C55.6675 67.109 43.8603 73.862 33.1181 84.945C22.1364 96.2752 11.5765 112.801 5.43906 134.517L11.2129 136.148ZM163.53 65.6104V71.6104C160.744 71.6104 158.484 69.351 158.484 66.5645H164.484H170.484C170.484 62.7236 167.371 59.6104 163.53 59.6104V65.6104ZM164.484 66.5645L158.484 66.5637C158.485 63.7784 160.743 61.5186 163.53 61.5186V67.5186V73.5186C167.372 73.5186 170.484 70.4046 170.484 66.5652L164.484 66.5645ZM163.53 67.5186V61.5186H119.214V67.5186V73.5186H163.53V67.5186ZM119.214 67.5186L119.215 61.5186C122.001 61.519 124.259 63.7775 124.26 66.5637L118.26 66.5645L112.26 66.5652C112.26 70.4055 115.373 73.518 119.213 73.5186L119.214 67.5186ZM118.26 66.5645H124.26C124.26 69.352 122 71.6099 119.215 71.6104L119.214 65.6104L119.213 59.6104C115.374 59.6109 112.26 62.7228 112.26 66.5645H118.26ZM119.214 65.6104V71.6104H163.53V65.6104V59.6104H119.214V65.6104ZM143.928 60.7803L143.318 66.7492C140.772 66.4891 138.784 64.348 138.784 61.7295H144.784H150.784C150.784 58.123 148.045 55.1698 144.538 54.8114L143.928 60.7803ZM144.784 61.7295L138.784 61.7265C138.785 59.1135 140.769 56.97 143.318 56.7097L143.928 62.6787L144.537 68.6477C148.049 68.2892 150.782 65.333 150.784 61.7325L144.784 61.7295ZM143.928 62.6787L143.628 56.6862L143.53 56.6911L143.83 62.6836L144.13 68.6761L144.227 68.6712L143.928 62.6787ZM143.83 62.6836V56.6836H128.08V62.6836V68.6836H143.83V62.6836ZM128.08 62.6836V56.6836C130.87 56.6836 133.125 58.945 133.126 61.7265L127.126 61.7295L121.126 61.7325C121.128 65.5678 124.236 68.6836 128.08 68.6836V62.6836ZM127.126 61.7295H133.126C133.126 64.5161 130.867 66.7754 128.08 66.7754V60.7754V54.7754C124.239 54.7754 121.126 57.8887 121.126 61.7295H127.126ZM128.08 60.7754V66.7754H143.83V60.7754V54.7754H128.08V60.7754ZM143.83 60.7754L143.53 66.7679L143.628 66.7728L143.928 60.7803L144.227 54.7878L144.13 54.7829L143.83 60.7754ZM157.291 56.0459V62.0459C154.512 62.0459 152.246 59.7946 152.246 57H158.246H164.246C164.246 53.1512 161.124 50.0459 157.291 50.0459V56.0459ZM158.246 57H152.246C152.246 54.2054 154.512 51.9541 157.291 51.9541V57.9541V63.9541C161.124 63.9541 164.246 60.8488 164.246 57H158.246ZM157.291 57.9541V51.9541H122.399V57.9541V63.9541H157.291V57.9541ZM122.399 57.9541L122.402 51.9541C125.184 51.9552 127.445 54.2109 127.445 57H121.445H115.445C115.445 60.8431 118.561 63.9526 122.397 63.9541L122.399 57.9541ZM121.445 57H127.445C127.445 59.7891 125.184 62.0448 122.402 62.0459L122.399 56.0459L122.397 50.0459C118.561 50.0474 115.445 53.1569 115.445 57H121.445ZM122.399 56.0459V62.0459H157.291V56.0459V50.0459H122.399V56.0459Z" fill="white" mask="url(#path-1-outside-1_1347_4678)"/>
<path d="M189.15 76.0688V138.49C189.15 140.798 187.574 142.68 185.645 142.68C185.645 142.68 65.9913 142.633 65.712 142.547C65.5923 142.56 65.4792 142.567 65.3595 142.567H15.1301C12.3832 142.567 10.3147 139.308 11.2126 136.148C22.9385 94.6587 51.412 73.528 65.1466 72.2577C78.8812 70.9873 185.645 71.8785 185.645 71.8785C187.574 71.8785 189.15 73.7608 189.15 76.0688Z" fill="#D3D3D3"/>
<path d="M112.097 84.4692H85.5126C81.4977 84.4692 78.2429 87.724 78.2429 91.7389V118.324C78.2429 122.338 81.4977 125.593 85.5126 125.593H112.097C116.112 125.593 119.367 122.338 119.367 118.324V91.7389C119.367 87.724 116.112 84.4692 112.097 84.4692Z" fill="white"/>
<mask id="mask0_1347_4678" style="mask-type:luminance" maskUnits="userSpaceOnUse" x="78" y="84" width="42" height="42">
<path d="M112.097 84.4692H85.5126C81.4977 84.4692 78.2429 87.724 78.2429 91.7389V118.324C78.2429 122.338 81.4977 125.593 85.5126 125.593H112.097C116.112 125.593 119.367 122.338 119.367 118.324V91.7389C119.367 87.724 116.112 84.4692 112.097 84.4692Z" fill="white"/>
</mask>
<g mask="url(#mask0_1347_4678)">
<path d="M126.085 124.981C127.422 135.989 117.465 144.922 104.049 146.551C90.6341 148.181 78.8283 141.882 77.4915 130.881C76.7399 124.709 79.4934 118.776 84.4219 114.466C84.1426 113.508 83.9364 112.511 83.81 111.486C82.666 102.055 88.8582 94.1667 97.5513 93.1092C106.244 92.0517 114.146 98.2306 115.29 107.662C115.416 108.686 115.456 109.704 115.41 110.701C121.229 113.701 125.32 118.803 126.071 124.981H126.085Z" fill="#4B9AE8"/>
<path d="M107.436 107.244C109.269 107.244 110.755 105.758 110.755 103.925C110.755 102.091 109.269 100.605 107.436 100.605C105.602 100.605 104.116 102.091 104.116 103.925C104.116 105.758 105.602 107.244 107.436 107.244Z" fill="white"/>
<path d="M107.384 105.939C108.483 105.939 109.375 105.048 109.375 103.949C109.375 102.85 108.483 101.958 107.384 101.958C106.285 101.958 105.394 102.85 105.394 103.949C105.394 105.048 106.285 105.939 107.384 105.939Z" fill="black"/>
<path d="M90.808 109.905C92.6414 109.905 94.1277 108.419 94.1277 106.585C94.1277 104.752 92.6414 103.266 90.808 103.266C88.9746 103.266 87.4883 104.752 87.4883 106.585C87.4883 108.419 88.9746 109.905 90.808 109.905Z" fill="white"/>
<path d="M90.7566 108.6C91.8558 108.6 92.7468 107.709 92.7468 106.609C92.7468 105.51 91.8558 104.619 90.7566 104.619C89.6574 104.619 88.7664 105.51 88.7664 106.609C88.7664 107.709 89.6574 108.6 90.7566 108.6Z" fill="black"/>
<path d="M103.799 108.197C104.121 110.072 102.435 113.344 100.531 113.668C98.6276 113.993 95.9462 111.461 95.6237 109.586C95.3012 107.711 96.2863 105.977 99.1241 105.498C101.962 105.019 103.47 106.323 103.793 108.198L103.799 108.197Z" fill="#EAC00F"/>
</g>
<path d="M144.388 93.9736H136.394C132.496 93.9736 129.337 97.1331 129.337 101.03V109.025C129.337 112.923 132.496 116.082 136.394 116.082H144.388C148.286 116.082 151.445 112.923 151.445 109.025V101.03C151.445 97.1331 148.286 93.9736 144.388 93.9736Z" fill="white"/>
<path d="M176.155 93.9736H168.16C164.262 93.9736 161.103 97.1331 161.103 101.03V109.025C161.103 112.923 164.262 116.082 168.16 116.082H176.155C180.052 116.082 183.211 112.923 183.211 109.025V101.03C183.211 97.1331 180.052 93.9736 176.155 93.9736Z" fill="white"/>
<path d="M65.5049 93.4682C65.5049 83.7043 59.0067 84.3029 52.7613 87.9211C44.7866 92.5437 33.4398 106.877 30.5532 116.874C27.5735 127.183 50.5132 124.343 60.3702 123.764C63.2568 123.591 65.5049 121.709 65.5049 119.128V93.4682Z" fill="white"/>
<path d="M157.292 56.0459C157.819 56.0459 158.247 56.4729 158.247 57C158.247 57.5271 157.819 57.9541 157.292 57.9541H122.4C121.873 57.9541 121.446 57.5271 121.446 57C121.446 56.4729 121.873 56.0459 122.4 56.0459H157.292Z" fill="#898989"/>
<path d="M143.83 60.7749L143.927 60.7798C144.409 60.8288 144.784 61.2349 144.784 61.729C144.784 62.2231 144.409 62.6293 143.927 62.6782L143.83 62.6831H128.08C127.553 62.6831 127.126 62.2561 127.126 61.729C127.126 61.2019 127.553 60.7749 128.08 60.7749H143.83Z" fill="#898989"/>
<path d="M163.531 65.6104C164.058 65.6104 164.485 66.0373 164.485 66.5645C164.485 67.0916 164.058 67.5186 163.531 67.5186H119.214C118.687 67.5186 118.26 67.0916 118.26 66.5645C118.26 66.0373 118.687 65.6104 119.214 65.6104H163.531Z" fill="#898989"/>
</svg>
