<svg width="48" height="48" viewBox="0 0 48 48" fill="none" xmlns="http://www.w3.org/2000/svg">
<path d="M25.3607 11C32.6994 11 38.6488 16.9493 38.6488 24.2881C38.6487 31.6268 32.6994 37.5762 25.3607 37.5762C19.2426 37.5761 14.0909 33.441 12.5462 27.8135C10.7875 27.9479 8.30657 27.0607 7.95734 25.7744C7.56294 24.3213 9.77453 21.9405 11.4915 21.4775C11.799 21.3947 12.1049 21.3462 12.4027 21.333C13.7462 15.4166 19.0376 11 25.3607 11Z" fill="#DFB820"/>
<path d="M25.3603 37.576C32.699 37.576 38.6483 31.6268 38.6483 24.288C38.6483 16.9492 32.699 11 25.3603 11C18.0215 11 12.0723 16.9492 12.0723 24.288C12.0723 31.6268 18.0215 37.576 25.3603 37.576Z" fill="#4B98E6"/>
<circle cx="20.4924" cy="20.8103" r="3.47775" fill="white"/>
<circle cx="20.4919" cy="20.81" r="2.08665" fill="#161616"/>
<circle cx="20.4919" cy="20.81" r="2.08665" fill="#161616"/>
<path d="M13.1874 27.7094C11.4666 28.1727 8.35093 27.2276 7.9565 25.7744C7.56207 24.3212 9.77435 21.9401 11.4914 21.4774C13.2084 21.0147 14.8634 21.5877 15.4508 23.7529C16.0461 25.9436 14.9044 27.2467 13.1837 27.71L13.1874 27.7094Z" fill="#DFB820"/>
</svg>
