<svg width="200" height="200" viewBox="0 0 200 200" fill="none" xmlns="http://www.w3.org/2000/svg">
<mask id="path-1-outside-1_1062_18755" maskUnits="userSpaceOnUse" x="21.3691" y="23" width="159" height="154" fill="black">
<rect fill="white" x="21.3691" y="23" width="159" height="154"/>
<path d="M103.028 29C111.655 29 118.677 36.0207 118.677 44.6475C118.677 45.6031 118.59 46.5393 118.425 47.4482C127.282 50.5665 135.202 56.4108 140.42 65.5879C149.631 81.7832 147.964 106.496 150.057 118.214C152.15 129.943 157.284 132.669 165.522 140.761C169.074 144.253 173.37 149.813 173.382 153.391C173.394 156.968 171.569 158.27 167.226 160.095C154.936 165.266 138.51 170.279 100.376 170.279C62.2424 170.279 45.8158 165.266 33.5264 160.095C29.1825 158.27 27.357 156.98 27.3692 153.391C27.3814 149.825 31.6766 144.265 35.2296 140.772C43.4671 132.681 48.6025 129.955 50.6954 118.226C52.7881 106.496 51.1091 81.7835 60.3321 65.6006C66.5366 54.68 76.5595 48.4762 87.4366 45.9678C87.4001 45.5326 87.3809 45.092 87.3809 44.6475C87.3811 36.0208 94.4017 29.0002 103.028 29ZM103.028 38.1016C99.4148 38.1017 96.4826 41.0461 96.4825 44.6475C96.4825 44.6708 96.4832 44.6945 96.4835 44.7178C97.416 44.6703 98.3489 44.6475 99.2803 44.6475C99.6454 44.6475 100.011 44.6719 100.376 44.6719C100.741 44.6597 101.106 44.6475 101.471 44.6475C104.165 44.6475 106.87 44.8439 109.546 45.25C109.564 45.0516 109.575 44.8505 109.575 44.6475C109.575 41.0338 106.642 38.1016 103.028 38.1016Z"/>
</mask>
<path d="M103.028 29C111.655 29 118.677 36.0207 118.677 44.6475C118.677 45.6031 118.59 46.5393 118.425 47.4482C127.282 50.5665 135.202 56.4108 140.42 65.5879C149.631 81.7832 147.964 106.496 150.057 118.214C152.15 129.943 157.284 132.669 165.522 140.761C169.074 144.253 173.37 149.813 173.382 153.391C173.394 156.968 171.569 158.27 167.226 160.095C154.936 165.266 138.51 170.279 100.376 170.279C62.2424 170.279 45.8158 165.266 33.5264 160.095C29.1825 158.27 27.357 156.98 27.3692 153.391C27.3814 149.825 31.6766 144.265 35.2296 140.772C43.4671 132.681 48.6025 129.955 50.6954 118.226C52.7881 106.496 51.1091 81.7835 60.3321 65.6006C66.5366 54.68 76.5595 48.4762 87.4366 45.9678C87.4001 45.5326 87.3809 45.092 87.3809 44.6475C87.3811 36.0208 94.4017 29.0002 103.028 29ZM103.028 38.1016C99.4148 38.1017 96.4826 41.0461 96.4825 44.6475C96.4825 44.6708 96.4832 44.6945 96.4835 44.7178C97.416 44.6703 98.3489 44.6475 99.2803 44.6475C99.6454 44.6475 100.011 44.6719 100.376 44.6719C100.741 44.6597 101.106 44.6475 101.471 44.6475C104.165 44.6475 106.87 44.8439 109.546 45.25C109.564 45.0516 109.575 44.8505 109.575 44.6475C109.575 41.0338 106.642 38.1016 103.028 38.1016Z" fill="#040000"/>
<path d="M103.028 29L103.028 23L103.028 23L103.028 29ZM118.677 44.6475L124.677 44.6475L124.677 44.6473L118.677 44.6475ZM118.425 47.4482L112.521 46.3768C111.995 49.2765 113.653 52.129 116.432 53.1077L118.425 47.4482ZM140.42 65.5879L135.204 68.5537L135.205 68.5542L140.42 65.5879ZM150.057 118.214L155.963 117.16L155.963 117.159L150.057 118.214ZM165.522 140.761L169.727 136.482L169.726 136.48L165.522 140.761ZM173.382 153.391L179.382 153.37L179.382 153.37L173.382 153.391ZM167.226 160.095L164.901 154.563L164.899 154.564L167.226 160.095ZM100.376 170.279L100.376 176.279L100.376 176.279L100.376 170.279ZM33.5264 160.095L35.8535 154.564L35.8506 154.563L33.5264 160.095ZM27.3692 153.391L21.3692 153.37L21.3692 153.37L27.3692 153.391ZM35.2296 140.772L31.025 136.492L31.0237 136.493L35.2296 140.772ZM50.6954 118.226L56.6021 119.279L56.6021 119.279L50.6954 118.226ZM60.3321 65.6006L65.5449 68.5715L65.5489 68.5645L60.3321 65.6006ZM87.4366 45.9678L88.7849 51.8143C91.6918 51.1439 93.6646 48.4398 93.4157 45.467L87.4366 45.9678ZM87.3809 44.6475L81.3809 44.6473V44.6475H87.3809ZM103.028 38.1016L103.028 32.1016L103.028 32.1016L103.028 38.1016ZM96.4825 44.6475L90.4825 44.6472V44.6475H96.4825ZM96.4835 44.7178L90.4838 44.7807C90.5009 46.4139 91.1831 47.9695 92.3728 49.0884C93.5626 50.2074 95.1571 50.793 96.7882 50.71L96.4835 44.7178ZM99.2803 44.6475L99.2803 38.6475L99.2803 38.6475L99.2803 44.6475ZM100.376 44.6719V50.6719C100.443 50.6719 100.509 50.6708 100.576 50.6685L100.376 44.6719ZM101.471 44.6475L101.471 38.6475L101.471 38.6475L101.471 44.6475ZM109.546 45.25L108.646 51.1821C110.28 51.4302 111.945 50.9928 113.246 49.9732C114.548 48.9536 115.371 47.4422 115.521 45.7958L109.546 45.25ZM109.575 44.6475L115.575 44.6475L115.575 44.6472L109.575 44.6475ZM103.028 29V35C108.342 35 112.677 39.3348 112.677 44.6476L118.677 44.6475L124.677 44.6473C124.677 32.7066 114.969 23 103.028 23V29ZM118.677 44.6475H112.677C112.677 45.2383 112.623 45.816 112.521 46.3768L118.425 47.4482L124.328 48.5197C124.557 47.2627 124.677 45.9679 124.677 44.6475H118.677ZM118.425 47.4482L116.432 53.1077C124.094 55.8051 130.784 60.7804 135.204 68.5537L140.42 65.5879L145.636 62.6221C139.619 52.0411 130.47 45.3279 120.417 41.7888L118.425 47.4482ZM140.42 65.5879L135.205 68.5542C139.165 75.5174 140.961 84.6982 141.939 94.1951C142.423 98.892 142.69 103.443 142.977 107.725C143.255 111.887 143.559 115.96 144.15 119.269L150.057 118.214L155.963 117.159C155.508 114.609 155.236 111.199 154.95 106.925C154.672 102.772 154.388 97.9354 153.876 92.965C152.862 83.127 150.886 71.8537 145.635 62.6216L140.42 65.5879ZM150.057 118.214L144.15 119.268C145.359 126.042 147.557 130.621 150.834 134.642C152.38 136.539 154.095 138.224 155.808 139.839C157.596 141.525 159.311 143.071 161.317 145.041L165.522 140.761L169.726 136.48C167.613 134.405 165.597 132.576 164.04 131.108C162.409 129.57 161.165 128.324 160.136 127.061C158.263 124.764 156.848 122.115 155.963 117.16L150.057 118.214ZM165.522 140.761L161.316 145.04C162.859 146.557 164.541 148.508 165.791 150.377C166.414 151.309 166.857 152.115 167.129 152.752C167.424 153.444 167.383 153.627 167.382 153.411L173.382 153.391L179.382 153.37C179.369 149.669 177.361 146.094 175.768 143.71C173.979 141.032 171.737 138.457 169.727 136.482L165.522 140.761ZM173.382 153.391L167.382 153.411C167.383 153.804 167.332 153.82 167.396 153.644C167.477 153.421 167.611 153.241 167.688 153.164C167.718 153.134 167.597 153.263 167.106 153.536C166.612 153.811 165.92 154.135 164.901 154.563L167.226 160.095L169.55 165.626C171.666 164.737 174.254 163.574 176.186 161.636C178.554 159.261 179.392 156.371 179.382 153.37L173.382 153.391ZM167.226 160.095L164.899 154.564C153.48 159.369 137.869 164.279 100.376 164.279L100.376 170.279L100.376 176.279C139.15 176.279 156.393 171.163 169.553 165.625L167.226 160.095ZM100.376 170.279V164.279C62.8825 164.279 47.2726 159.369 35.8535 154.564L33.5264 160.095L31.1993 165.625C44.3591 171.163 61.6022 176.279 100.376 176.279V170.279ZM33.5264 160.095L35.8506 154.563C34.8288 154.134 34.1361 153.81 33.6403 153.535C33.1482 153.262 33.0283 153.133 33.0598 153.165C33.1386 153.243 33.2743 153.425 33.3556 153.65C33.4199 153.827 33.3678 153.809 33.3692 153.411L27.3692 153.391L21.3692 153.37C21.3591 156.373 22.1947 159.267 24.5688 161.644C26.5021 163.58 29.0937 164.74 31.2022 165.626L33.5264 160.095ZM27.3692 153.391L33.3692 153.411C33.3684 153.633 33.3258 153.453 33.6211 152.762C33.8925 152.126 34.3362 151.321 34.9593 150.389C36.2092 148.52 37.8919 146.569 39.4354 145.052L35.2296 140.772L31.0237 136.493C29.0142 138.468 26.7729 141.044 24.9839 143.719C23.3931 146.098 21.3819 149.673 21.3692 153.37L27.3692 153.391ZM35.2296 140.772L39.4341 145.053C41.44 143.083 43.1548 141.537 44.9426 139.851C46.6564 138.236 48.3716 136.551 49.9173 134.654C53.1951 130.633 55.3933 126.054 56.6021 119.279L50.6954 118.226L44.7887 117.172C43.9046 122.127 42.4887 124.775 40.6161 127.072C39.5867 128.335 38.3427 129.582 36.7113 131.119C35.1541 132.587 33.1379 134.417 31.025 136.492L35.2296 140.772ZM50.6954 118.226L56.6021 119.279C57.1931 115.967 57.4965 111.892 57.7737 107.729C58.059 103.445 58.3251 98.8936 58.8084 94.1971C59.7855 84.7009 61.5813 75.5262 65.5449 68.5715L60.3321 65.6006L55.1193 62.6297C49.8599 71.8579 47.8837 83.1308 46.8714 92.9688C46.3599 97.9395 46.0769 102.777 45.8003 106.931C45.5155 111.207 45.2441 114.619 44.7886 117.172L50.6954 118.226ZM60.3321 65.6006L65.5489 68.5645C70.7893 59.3409 79.2575 54.0115 88.7849 51.8143L87.4366 45.9678L86.0883 40.1212C73.8614 42.941 62.2839 50.019 55.1153 62.6367L60.3321 65.6006ZM87.4366 45.9678L93.4157 45.467C93.3927 45.1926 93.3809 44.9192 93.3809 44.6475H87.3809H81.3809C81.3809 45.2649 81.4076 45.8726 81.4575 46.4685L87.4366 45.9678ZM87.3809 44.6475L93.3809 44.6476C93.381 39.3345 97.7154 35.0001 103.029 35L103.028 29L103.028 23C91.088 23.0002 81.3811 32.707 81.3809 44.6473L87.3809 44.6475ZM103.028 38.1016L103.028 32.1016C96.0938 32.1019 90.4828 37.7395 90.4825 44.6472L96.4825 44.6475L102.482 44.6477C102.482 44.3526 102.736 44.1016 103.029 44.1016L103.028 38.1016ZM96.4825 44.6475H90.4825C90.4825 44.7169 90.4836 44.7743 90.4839 44.7917C90.484 44.7966 90.4841 44.8019 90.4841 44.8036C90.4841 44.8062 90.4841 44.8063 90.4841 44.8057C90.4841 44.8047 90.4839 44.7949 90.4838 44.7807L96.4835 44.7178L102.483 44.6548C102.483 44.629 102.482 44.6075 102.482 44.5948C102.482 44.5883 102.482 44.5826 102.482 44.5793C102.482 44.5752 102.482 44.5745 102.482 44.5735C102.482 44.5731 102.482 44.5747 102.482 44.5774C102.482 44.5802 102.482 44.5849 102.482 44.5909C102.482 44.6027 102.482 44.6225 102.482 44.6475H96.4825ZM96.4835 44.7178L96.7882 50.71C97.6159 50.6679 98.4471 50.6475 99.2804 50.6475L99.2803 44.6475L99.2803 38.6475C98.2507 38.6475 97.2162 38.6728 96.1787 38.7255L96.4835 44.7178ZM99.2803 44.6475V50.6475C99.3459 50.6475 99.4283 50.6497 99.6278 50.6563C99.7937 50.6619 100.077 50.6719 100.376 50.6719V44.6719V38.6719C100.31 38.6719 100.228 38.6697 100.029 38.663C99.8627 38.6575 99.5798 38.6475 99.2803 38.6475V44.6475ZM100.376 44.6719L100.576 50.6685C100.959 50.6558 101.223 50.6475 101.471 50.6475L101.471 44.6475L101.471 38.6475C100.989 38.6475 100.523 38.6636 100.176 38.6752L100.376 44.6719ZM101.471 44.6475V50.6475C103.874 50.6475 106.279 50.8228 108.646 51.1821L109.546 45.25L110.446 39.3179C107.462 38.865 104.455 38.6475 101.471 38.6475V44.6475ZM109.546 45.25L115.521 45.7958C115.552 45.456 115.575 45.069 115.575 44.6475H109.575H103.575C103.575 44.6321 103.576 44.6472 103.571 44.7042L109.546 45.25ZM109.575 44.6475L115.575 44.6472C115.575 37.7191 109.955 32.1016 103.028 32.1016V38.1016V44.1016C103.329 44.1016 103.575 44.3484 103.575 44.6477L109.575 44.6475Z" fill="white" mask="url(#path-1-outside-1_1062_18755)"/>
<path d="M87.3809 44.6477C87.3809 36.0208 94.4016 29 103.029 29C111.656 29 118.676 36.0208 118.676 44.6477C118.676 53.2747 111.656 60.2954 103.029 60.2954C94.4016 60.2954 87.3809 53.2868 87.3809 44.6477ZM96.4823 44.6477C96.4823 48.2615 99.4148 51.194 103.029 51.194C106.642 51.194 109.575 48.2615 109.575 44.6477C109.575 41.0339 106.642 38.1015 103.029 38.1015C99.4148 38.1015 96.4823 41.0461 96.4823 44.6477Z" fill="#2971B8"/>
<path d="M35.2296 140.773C43.4671 132.681 48.6019 129.956 50.6948 118.226C52.7876 106.496 51.1085 81.7835 60.3316 65.6004C68.7517 50.7801 84.2047 44.6476 99.2806 44.6476C99.6456 44.6476 100.011 44.6719 100.376 44.6719C100.741 44.6598 101.106 44.6476 101.471 44.6476C116.547 44.6476 132 50.7801 140.42 65.5883C149.631 81.7835 147.964 106.496 150.057 118.214C152.149 129.943 157.284 132.669 165.522 140.761C169.075 144.253 173.37 149.813 173.382 153.391C173.394 156.968 171.569 158.27 167.225 160.095C154.936 165.266 138.509 170.28 100.376 170.28C62.242 170.28 45.8155 165.266 33.5261 160.095C29.1822 158.27 27.357 156.98 27.3692 153.391C27.3814 149.826 31.6766 144.265 35.2296 140.773Z" fill="#4B9AE8"/>
<path d="M160.851 153.646C160.851 148.256 133.777 143.888 100.377 143.888C66.9766 143.888 39.9033 148.256 39.9033 153.646C39.9033 159.037 66.9766 165.473 100.377 165.473C133.777 165.473 160.851 159.037 160.851 153.646Z" fill="#276288"/>
<path d="M111.438 151.748C111.425 149.655 110.294 148.451 107.69 147.55C102.287 145.688 95.5221 146.029 91.5798 148.146C87.4427 150.361 90.3143 162.638 100.377 162.638C110.44 162.638 111.45 153.342 111.438 151.748Z" fill="#EAC00F"/>
<path d="M96.0673 160.266C97.4788 161.239 99.3526 161.714 100.934 161.057C102.516 160.399 103.538 158.392 102.76 156.871C102.455 156.275 101.932 155.824 101.409 155.411C99.961 154.279 98.3549 153.354 96.6514 152.673C95.9822 152.405 95.2764 152.162 94.5464 152.211C93.8285 152.247 93.0741 152.624 92.7942 153.294C91.5896 156.031 93.9988 158.854 96.0673 160.266Z" fill="#FFEB96"/>
<path d="M73.5 163C78.1944 163 82 159.194 82 154.5C82 149.806 78.1944 146 73.5 146C68.8056 146 65 149.806 65 154.5C65 159.194 68.8056 163 73.5 163Z" fill="white"/>
<path d="M73.4986 159.027C75.9987 159.027 78.0254 157 78.0254 154.5C78.0254 152 75.9987 149.973 73.4986 149.973C70.9984 149.973 68.9717 152 68.9717 154.5C68.9717 157 70.9984 159.027 73.4986 159.027Z" fill="#040000"/>
<path d="M126.5 163C131.194 163 135 159.194 135 154.5C135 149.806 131.194 146 126.5 146C121.806 146 118 149.806 118 154.5C118 159.194 121.806 163 126.5 163Z" fill="white"/>
<path d="M126.499 159.027C128.999 159.027 131.025 157 131.025 154.5C131.025 152 128.999 149.973 126.499 149.973C123.998 149.973 121.972 152 121.972 154.5C121.972 157 123.998 159.027 126.499 159.027Z" fill="#040000"/>
</svg>
