<svg width="200" height="200" viewBox="0 0 200 200" fill="none" xmlns="http://www.w3.org/2000/svg">
<mask id="path-1-outside-1_898_3195" maskUnits="userSpaceOnUse" x="24.2876" y="25.2856" width="150" height="149" fill="black">
<rect fill="white" x="24.2876" y="25.2856" width="150" height="149"/>
<path d="M112.182 33.759C115.401 32.2567 119.395 31.9271 123.781 32.6613C124.242 32.7386 124.708 32.8272 125.178 32.9279C126.118 33.1294 127.073 33.3773 128.04 33.6711C128.524 33.818 129.011 33.977 129.5 34.1467C129.989 34.3162 130.481 34.4967 130.975 34.6887C131.716 34.9768 132.461 35.2902 133.21 35.6281C134.209 36.0786 135.213 36.5724 136.219 37.1096C136.722 37.3782 137.226 37.6575 137.73 37.9475C137.982 38.0925 138.234 38.2405 138.486 38.3908C138.989 38.6912 139.493 39.0022 139.995 39.3234C141.253 40.1269 142.507 40.9954 143.75 41.927C144.745 42.6724 145.733 43.4582 146.711 44.2834C148.178 45.5208 149.621 46.8471 151.029 48.258C154.933 51.9514 158.25 56.1824 160.895 60.801C167.956 72.6393 169.202 84.5494 162.996 90.7287L90.059 163.666C83.0589 170.666 62.7483 166.604 47.6967 151.589C34.1621 138.087 29.5446 120.275 33.8402 111.732C33.8583 111.696 33.8755 111.659 33.8939 111.623C33.9306 111.552 33.9683 111.482 34.0062 111.412C34.0389 111.352 34.0722 111.293 34.1058 111.234C34.1421 111.17 34.1788 111.107 34.2162 111.044C34.2792 110.938 34.3434 110.834 34.4095 110.732C34.4353 110.692 34.4624 110.653 34.4886 110.613C34.5452 110.529 34.6027 110.445 34.6615 110.363C34.6862 110.328 34.7106 110.293 34.7357 110.259C34.8174 110.148 34.9009 110.038 34.9867 109.932C34.9986 109.917 35.0108 109.903 35.0228 109.888C35.0972 109.797 35.173 109.707 35.2504 109.619C35.2838 109.581 35.3179 109.544 35.3519 109.507C35.4394 109.411 35.5283 109.317 35.6195 109.226L108.557 36.2883C108.688 36.1563 108.823 36.0278 108.959 35.9025C109.233 35.6519 109.516 35.4145 109.809 35.1906C110.249 34.8548 110.71 34.549 111.192 34.2727C111.513 34.0884 111.843 33.9171 112.182 33.759Z"/>
</mask>
<path d="M112.182 33.759C115.401 32.2567 119.395 31.9271 123.781 32.6613C124.242 32.7386 124.708 32.8272 125.178 32.9279C126.118 33.1294 127.073 33.3773 128.04 33.6711C128.524 33.818 129.011 33.977 129.5 34.1467C129.989 34.3162 130.481 34.4967 130.975 34.6887C131.716 34.9768 132.461 35.2902 133.21 35.6281C134.209 36.0786 135.213 36.5724 136.219 37.1096C136.722 37.3782 137.226 37.6575 137.73 37.9475C137.982 38.0925 138.234 38.2405 138.486 38.3908C138.989 38.6912 139.493 39.0022 139.995 39.3234C141.253 40.1269 142.507 40.9954 143.75 41.927C144.745 42.6724 145.733 43.4582 146.711 44.2834C148.178 45.5208 149.621 46.8471 151.029 48.258C154.933 51.9514 158.25 56.1824 160.895 60.801C167.956 72.6393 169.202 84.5494 162.996 90.7287L90.059 163.666C83.0589 170.666 62.7483 166.604 47.6967 151.589C34.1621 138.087 29.5446 120.275 33.8402 111.732C33.8583 111.696 33.8755 111.659 33.8939 111.623C33.9306 111.552 33.9683 111.482 34.0062 111.412C34.0389 111.352 34.0722 111.293 34.1058 111.234C34.1421 111.17 34.1788 111.107 34.2162 111.044C34.2792 110.938 34.3434 110.834 34.4095 110.732C34.4353 110.692 34.4624 110.653 34.4886 110.613C34.5452 110.529 34.6027 110.445 34.6615 110.363C34.6862 110.328 34.7106 110.293 34.7357 110.259C34.8174 110.148 34.9009 110.038 34.9867 109.932C34.9986 109.917 35.0108 109.903 35.0228 109.888C35.0972 109.797 35.173 109.707 35.2504 109.619C35.2838 109.581 35.3179 109.544 35.3519 109.507C35.4394 109.411 35.5283 109.317 35.6195 109.226L108.557 36.2883C108.688 36.1563 108.823 36.0278 108.959 35.9025C109.233 35.6519 109.516 35.4145 109.809 35.1906C110.249 34.8548 110.71 34.549 111.192 34.2727C111.513 34.0884 111.843 33.9171 112.182 33.759Z" fill="#6DA5E5"/>
<path d="M112.182 33.759L109.222 27.4158L109.221 27.4159L112.182 33.759ZM123.781 32.6613L122.625 39.5653L122.625 39.5653L123.781 32.6613ZM125.178 32.9279L126.645 26.0835L126.645 26.0834L125.178 32.9279ZM128.04 33.6711L126.006 40.369L126.006 40.3691L128.04 33.6711ZM129.5 34.1467L131.793 27.5328L131.793 27.5328L129.5 34.1467ZM130.975 34.6887L128.438 41.2128L128.438 41.2129L130.975 34.6887ZM133.21 35.6281L136.089 29.2475L136.089 29.2475L133.21 35.6281ZM136.219 37.1096L132.922 43.2847L132.922 43.2847L136.219 37.1096ZM137.73 37.9475L141.221 31.8804L141.221 31.8804L137.73 37.9475ZM138.486 38.3908L134.9 44.4025L134.9 44.4026L138.486 38.3908ZM139.995 39.3234L143.764 33.4247L143.764 33.4247L139.995 39.3234ZM143.75 41.927L139.553 47.529L139.553 47.5291L143.75 41.927ZM146.711 44.2834L151.226 38.9338L151.226 38.9338L146.711 44.2834ZM151.029 48.258L146.073 53.2018C146.121 53.2496 146.169 53.2968 146.218 53.3432L151.029 48.258ZM160.895 60.801L154.821 64.2799C154.841 64.3157 154.862 64.3514 154.883 64.3868L160.895 60.801ZM162.996 90.7287L158.057 85.7683C158.054 85.7719 158.05 85.7754 158.047 85.779L162.996 90.7287ZM90.059 163.666L95.0086 168.616L95.0087 168.616L90.059 163.666ZM47.6967 151.589L42.7529 156.545L42.7529 156.545L47.6967 151.589ZM33.8402 111.732L40.0942 114.876L40.0971 114.87L33.8402 111.732ZM33.8939 111.623L27.6742 108.412L27.6713 108.417L33.8939 111.623ZM34.0062 111.412L40.1548 114.758L40.1576 114.753L34.0062 111.412ZM34.1058 111.234L28.0221 107.771L28.0193 107.776L34.1058 111.234ZM34.2162 111.044L40.2264 114.633L40.2291 114.628L34.2162 111.044ZM34.4095 110.732L28.5326 106.929L28.5301 106.933L34.4095 110.732ZM34.4886 110.613L40.3105 114.5L40.3129 114.496L34.4886 110.613ZM34.6615 110.363L28.9643 106.295L28.9622 106.298L34.6615 110.363ZM34.7357 110.259L40.378 114.402L40.38 114.399L34.7357 110.259ZM34.9867 109.932L29.5338 105.543L29.5322 105.545L34.9867 109.932ZM35.0228 109.888L40.4482 114.311L40.4497 114.309L35.0228 109.888ZM35.2504 109.619L30.0029 104.986L30.0019 104.988L35.2504 109.619ZM35.3519 109.507L40.5189 114.23L40.5196 114.229L35.3519 109.507ZM35.6195 109.226L40.5693 114.176L40.5693 114.176L35.6195 109.226ZM108.557 36.2883L113.507 41.238C113.51 41.2345 113.514 41.2311 113.517 41.2276L108.557 36.2883ZM108.959 35.9025L113.691 41.0612L113.691 41.0611L108.959 35.9025ZM109.809 35.1906L105.56 29.6278L105.56 29.6278L109.809 35.1906ZM111.192 34.2727L114.675 40.3447L114.675 40.3446L111.192 34.2727ZM112.182 33.759L115.142 40.1021C116.715 39.3684 119.181 38.9887 122.625 39.5653L123.781 32.6613L124.936 25.7574C119.609 24.8655 114.087 25.145 109.222 27.4158L112.182 33.759ZM123.781 32.6613L122.625 39.5653C122.984 39.6253 123.346 39.6942 123.711 39.7724L125.178 32.9279L126.645 26.0834C126.071 25.9602 125.501 25.8519 124.936 25.7574L123.781 32.6613ZM125.178 32.9279L123.711 39.7724C124.451 39.931 125.217 40.1293 126.006 40.369L128.04 33.6711L130.074 26.9732C128.929 26.6254 127.785 26.3278 126.645 26.0835L125.178 32.9279ZM128.04 33.6711L126.006 40.3691C126.396 40.4874 126.796 40.6179 127.208 40.7606L129.5 34.1467L131.793 27.5328C131.226 27.3361 130.653 27.1487 130.074 26.9731L128.04 33.6711ZM129.5 34.1467L127.208 40.7606C127.616 40.9022 128.027 41.0529 128.438 41.2128L130.975 34.6887L133.512 28.1645C132.936 27.9405 132.363 27.7302 131.793 27.5328L129.5 34.1467ZM130.975 34.6887L128.438 41.2129C129.059 41.4542 129.69 41.7195 130.331 42.0087L133.21 35.6281L136.089 29.2475C135.232 28.8609 134.373 28.4993 133.512 28.1645L130.975 34.6887ZM133.21 35.6281L130.331 42.0087C131.186 42.3942 132.051 42.8193 132.922 43.2847L136.219 37.1096L139.516 30.9345C138.375 30.3255 137.231 29.7629 136.089 29.2475L133.21 35.6281ZM136.219 37.1096L132.922 43.2847C133.36 43.518 133.798 43.7613 134.238 44.0145L137.73 37.9475L141.221 31.8804C140.654 31.5538 140.085 31.2384 139.516 30.9345L136.219 37.1096ZM137.73 37.9475L134.238 44.0145C134.454 44.1384 134.673 44.2676 134.9 44.4025L138.486 38.3908L142.072 32.3791C141.794 32.2134 141.51 32.0466 141.221 31.8804L137.73 37.9475ZM138.486 38.3908L134.9 44.4026C135.34 44.6654 135.783 44.9387 136.227 45.2222L139.995 39.3234L143.764 33.4247C143.202 33.0656 142.638 32.717 142.072 32.3791L138.486 38.3908ZM139.995 39.3234L136.227 45.2222C137.335 45.9304 138.446 46.6997 139.553 47.529L143.75 41.927L147.948 36.3249C146.568 35.2911 145.171 34.3235 143.764 33.4247L139.995 39.3234ZM143.75 41.927L139.553 47.5291C140.439 48.1927 141.321 48.8942 142.197 49.6331L146.711 44.2834L151.226 38.9338C150.146 38.0222 149.052 37.1521 147.948 36.3249L143.75 41.927ZM146.711 44.2834L142.197 49.633C143.51 50.7411 144.806 51.932 146.073 53.2018L151.029 48.258L155.984 43.3142C154.436 41.7621 152.845 40.3004 151.226 38.9338L146.711 44.2834ZM151.029 48.258L146.218 53.3432C149.621 56.5624 152.513 60.2513 154.821 64.2799L160.895 60.801L166.969 57.322C163.986 52.1136 160.245 47.3405 155.839 43.1728L151.029 48.258ZM160.895 60.801L154.883 64.3868C158.018 69.643 159.631 74.55 159.943 78.4453C160.254 82.3353 159.265 84.5664 158.057 85.7683L162.996 90.7287L167.936 95.6891C172.934 90.7117 174.424 83.8981 173.899 77.3286C173.373 70.7645 170.833 63.7973 166.907 57.2151L160.895 60.801ZM162.996 90.7287L158.047 85.779L85.1092 158.716L90.059 163.666L95.0087 168.616L167.946 95.6785L162.996 90.7287ZM90.059 163.666L85.1093 158.716C84.8081 159.018 83.8935 159.643 81.7822 159.892C79.71 160.137 76.9331 159.952 73.6428 159.104C67.0665 157.411 59.3179 153.295 52.6404 146.633L47.6967 151.589L42.7529 156.545C51.1271 164.899 61.0596 170.321 70.1516 172.662C74.6953 173.832 79.2493 174.289 83.4244 173.795C87.5606 173.307 91.8098 171.815 95.0086 168.616L90.059 163.666ZM47.6967 151.589L52.6404 146.633C46.6536 140.661 42.7123 133.796 40.7484 127.665C38.6878 121.233 39.1358 116.782 40.0942 114.876L33.8402 111.732L27.5862 108.587C24.249 115.224 24.858 123.952 27.4158 131.936C30.0705 140.223 35.2052 149.015 42.7529 156.545L47.6967 151.589ZM33.8402 111.732L40.0971 114.87C40.1145 114.836 40.129 114.806 40.1382 114.787C40.1429 114.778 40.147 114.77 40.1496 114.764C40.1531 114.757 40.1537 114.756 40.1551 114.753C40.1574 114.748 40.1539 114.755 40.1482 114.767C40.1421 114.779 40.1311 114.801 40.1165 114.829L33.8939 111.623L27.6713 108.417C27.6263 108.505 27.5901 108.579 27.5787 108.602C27.5758 108.608 27.5719 108.616 27.571 108.618C27.5692 108.621 27.5689 108.622 27.5691 108.622C27.5694 108.621 27.575 108.61 27.5834 108.593L33.8402 111.732ZM33.8939 111.623L40.1137 114.835C40.1173 114.828 40.128 114.807 40.1548 114.758L34.0062 111.412L27.8577 108.066C27.8086 108.157 27.7439 108.276 27.6742 108.412L33.8939 111.623ZM34.0062 111.412L40.1576 114.753C40.1605 114.748 40.1696 114.731 40.1924 114.691L34.1058 111.234L28.0193 107.776C27.9749 107.854 27.9173 107.957 27.8548 108.072L34.0062 111.412ZM34.1058 111.234L40.1896 114.696C40.2045 114.67 40.2167 114.649 40.2264 114.633L34.2162 111.044L28.206 107.456C28.141 107.564 28.0797 107.67 28.0221 107.771L34.1058 111.234ZM34.2162 111.044L40.2291 114.628C40.2601 114.576 40.279 114.546 40.289 114.531L34.4095 110.732L28.5301 106.933C28.4077 107.122 28.2984 107.301 28.2033 107.46L34.2162 111.044ZM34.4095 110.732L40.2865 114.534C40.2726 114.556 40.2619 114.572 40.2559 114.581C40.2501 114.59 40.2469 114.594 40.2494 114.591C40.2505 114.589 40.2521 114.587 40.2554 114.582C40.2581 114.578 40.2629 114.571 40.2676 114.564C40.2773 114.55 40.2927 114.527 40.3105 114.5L34.4886 110.613L28.6668 106.727C28.6714 106.72 28.6736 106.717 28.67 106.722C28.6682 106.725 28.6663 106.727 28.6624 106.733C28.659 106.738 28.6539 106.746 28.6485 106.754C28.6284 106.784 28.5841 106.849 28.5326 106.929L34.4095 110.732ZM34.4886 110.613L40.3129 114.496C40.3337 114.465 40.3495 114.443 40.3608 114.427L34.6615 110.363L28.9622 106.298C28.856 106.447 28.7568 106.592 28.6643 106.731L34.4886 110.613ZM34.6615 110.363L40.3586 114.43C40.3692 114.415 40.379 114.401 40.3848 114.393C40.3918 114.383 40.3945 114.379 40.3968 114.376C40.3986 114.374 40.3975 114.375 40.3946 114.379C40.3916 114.383 40.3858 114.391 40.3779 114.402L34.7357 110.259L29.0935 106.116C29.0536 106.17 29.0203 106.217 29.0001 106.245C28.9221 106.354 29.0235 106.212 28.9643 106.295L34.6615 110.363ZM34.7357 110.259L40.38 114.399C40.4062 114.364 40.4265 114.337 40.4412 114.319L34.9867 109.932L29.5322 105.545C29.3753 105.74 29.2285 105.932 29.0914 106.119L34.7357 110.259ZM34.9867 109.932L40.4396 114.321C40.4246 114.34 40.4127 114.354 40.4056 114.363C40.4019 114.367 40.3991 114.371 40.3975 114.373C40.3959 114.375 40.395 114.376 40.3955 114.375C40.3957 114.375 40.396 114.375 40.3968 114.374C40.3974 114.373 40.3985 114.372 40.3996 114.37C40.4018 114.368 40.4055 114.363 40.4098 114.358C40.4182 114.348 40.4318 114.331 40.4482 114.311L35.0228 109.888L29.5974 105.465C29.6078 105.452 29.6155 105.443 29.6178 105.44C29.6182 105.439 29.6217 105.435 29.614 105.444C29.6093 105.45 29.5986 105.463 29.5858 105.479C29.5727 105.495 29.5547 105.517 29.5338 105.543L34.9867 109.932ZM35.0228 109.888L40.4497 114.309C40.4698 114.285 40.4862 114.265 40.4989 114.251L35.2504 109.619L30.0019 104.988C29.8597 105.149 29.7245 105.309 29.5959 105.466L35.0228 109.888ZM35.2504 109.619L40.4979 114.252C40.4866 114.265 40.4807 114.271 40.4849 114.267C40.4868 114.265 40.4901 114.261 40.496 114.255C40.4989 114.251 40.5021 114.248 40.5059 114.244C40.5079 114.242 40.5098 114.239 40.512 114.237C40.5142 114.235 40.5165 114.232 40.5189 114.23L35.3519 109.507L30.185 104.784C30.1645 104.807 30.0848 104.894 30.0029 104.986L35.2504 109.619ZM35.3519 109.507L40.5196 114.229C40.5392 114.207 40.5526 114.193 40.5614 114.184C40.57 114.175 40.5724 114.172 40.5693 114.176L35.6195 109.226L30.6698 104.276C30.4827 104.463 30.3186 104.638 30.1842 104.785L35.3519 109.507ZM35.6195 109.226L40.5693 114.176L113.507 41.238L108.557 36.2883L103.607 31.3385L30.6698 104.276L35.6195 109.226ZM108.557 36.2883L113.517 41.2276C113.569 41.1759 113.626 41.1205 113.691 41.0612L108.959 35.9025L104.228 30.7439C104.019 30.9351 103.808 31.1366 103.597 31.349L108.557 36.2883ZM108.959 35.9025L113.691 41.0611C113.811 40.9513 113.933 40.8489 114.058 40.7534L109.809 35.1906L105.56 29.6278C105.099 29.9802 104.654 30.3525 104.228 30.744L108.959 35.9025ZM109.809 35.1906L114.058 40.7535C114.249 40.6079 114.454 40.4715 114.675 40.3447L111.192 34.2727L107.709 28.2007C106.966 28.6266 106.248 29.1018 105.56 29.6278L109.809 35.1906ZM111.192 34.2727L114.675 40.3446C114.824 40.2591 114.98 40.1781 115.143 40.1021L112.182 33.759L109.221 27.4159C108.707 27.6562 108.202 27.9178 107.709 28.2007L111.192 34.2727Z" fill="white" mask="url(#path-1-outside-1_898_3195)"/>
<path d="M151.028 48.2576C136.013 33.2058 116.971 27.838 108.557 36.2887L35.6192 109.226C28.6192 116.226 32.6451 136.573 47.6968 151.589C62.7486 166.604 83.0594 170.666 90.0594 163.666L162.997 90.7289C171.448 82.3144 166.08 63.2731 151.028 48.2576Z" fill="#4B9AE6"/>
<path d="M107.289 102.27C107.319 102.507 107.427 102.727 107.596 102.897C107.766 103.066 107.986 103.174 108.223 103.204C110.849 103.594 119.182 104.582 123.139 102.163C127.87 99.2653 127.876 94.5755 125.599 92.2986C124.895 91.6764 124.065 91.2124 123.166 90.938C122.267 90.6636 121.32 90.585 120.389 90.7077C120.309 90.7136 120.23 90.7023 120.155 90.6747C120.081 90.647 120.013 90.6037 119.957 90.5475C119.901 90.4914 119.858 90.4238 119.83 90.3494C119.803 90.275 119.791 90.1954 119.797 90.1163C119.92 89.1846 119.841 88.2374 119.567 87.3386C119.292 86.4398 118.828 85.6103 118.206 84.906C115.929 82.6291 111.222 82.6528 108.342 87.3662C105.911 91.3109 106.899 99.6438 107.289 102.27Z" fill="#F6A1A1"/>
<path d="M125.599 92.2986C124.895 91.6764 124.065 91.2124 123.166 90.938C122.267 90.6636 121.32 90.585 120.389 90.7077C120.309 90.7136 120.23 90.7023 120.155 90.6747C120.081 90.647 120.013 90.6037 119.957 90.5475C119.901 90.4914 119.858 90.4238 119.83 90.3494C119.803 90.275 119.791 90.1954 119.797 90.1163C119.92 89.1846 119.841 88.2374 119.567 87.3386C119.292 86.4398 118.828 85.6103 118.206 84.906C115.929 82.6291 111.222 82.6528 108.342 87.3662C107.804 88.2944 107.419 89.3027 107.2 90.3528C107.283 90.1754 107.354 89.9862 107.449 89.8206C109.696 85.941 113.67 86.1539 115.699 88.1824C116.925 89.4361 117.615 91.1184 117.621 92.8722C119.381 92.8628 121.074 93.542 122.34 94.7647C124.369 96.7932 124.599 100.785 120.702 103.015C120.536 103.109 120.347 103.18 120.17 103.263C121.211 103.055 122.213 102.683 123.139 102.163C127.876 99.2594 127.876 94.5755 125.599 92.2986Z" fill="#FFDDDD"/>
<path d="M79.2159 132.235C79.1858 131.998 79.0776 131.777 78.9085 131.608C78.7393 131.439 78.5188 131.331 78.2815 131.301C75.6557 130.911 67.3228 129.923 63.3663 132.342C58.635 135.24 58.6291 139.929 60.906 142.206C61.6103 142.829 62.4398 143.292 63.3386 143.567C64.2374 143.841 65.1846 143.92 66.1163 143.797C66.1955 143.791 66.275 143.803 66.3494 143.83C66.4238 143.858 66.4914 143.901 66.5475 143.957C66.6037 144.014 66.6471 144.081 66.6747 144.156C66.7023 144.23 66.7136 144.309 66.7077 144.389C66.5851 145.32 66.6636 146.268 66.938 147.166C67.2125 148.065 67.6764 148.895 68.2986 149.599C70.5755 151.876 75.2831 151.852 78.1632 147.139C80.5939 143.194 79.6062 134.861 79.2159 132.235Z" fill="#F6A1A1"/>
<path d="M60.906 142.206C61.6103 142.829 62.4398 143.292 63.3386 143.567C64.2374 143.841 65.1846 143.92 66.1163 143.797C66.1955 143.791 66.275 143.803 66.3494 143.83C66.4238 143.858 66.4914 143.901 66.5475 143.957C66.6037 144.014 66.6471 144.081 66.6747 144.156C66.7023 144.23 66.7136 144.309 66.7077 144.389C66.5851 145.32 66.6636 146.268 66.938 147.166C67.2125 148.065 67.6764 148.895 68.2986 149.599C70.5755 151.876 75.2831 151.852 78.1632 147.139C78.7008 146.21 79.0862 145.202 79.3046 144.152C79.2218 144.329 79.1508 144.519 79.0562 144.684C76.8089 148.564 72.8347 148.351 70.8061 146.322C69.5798 145.069 68.8903 143.386 68.8841 141.633C67.1242 141.642 65.4305 140.963 64.1647 139.74C62.1362 137.712 61.9055 133.72 65.8029 131.49C65.9685 131.395 66.1577 131.324 66.3351 131.242C65.2939 131.45 64.292 131.822 63.3663 132.342C58.6291 135.246 58.6291 139.929 60.906 142.206Z" fill="#FFDDDD"/>
<path d="M40.4432 128.884L115.738 53.5892C124.443 44.8845 143.702 49.9622 158.717 65.0502C161.541 67.8706 164.103 70.942 166.37 74.2264C163.793 64.3025 158.477 55.3035 151.028 48.2576C136.013 33.2058 116.971 27.838 108.557 36.2887L35.6193 109.226C30.7593 114.086 31.2308 125.402 37.0338 136.936C37.2367 133.946 38.4373 131.111 40.4432 128.884Z" fill="#8BBBF1"/>
<path d="M155.888 83.6199C150.303 89.2417 136.774 84.7443 125.64 73.6459C114.505 62.5475 110.044 48.9828 115.666 43.3973C121.287 37.8118 134.779 42.273 145.914 53.3714C157.049 64.4698 161.474 78.0345 155.888 83.6199Z" fill="#DAEDF7"/>
<path d="M115.666 51.5579C121.251 45.9724 134.78 50.4335 145.914 61.5319C151.439 66.77 155.501 73.358 157.702 80.6459C159.987 74.0449 155.381 62.8376 145.914 53.3714C134.78 42.273 121.251 37.8118 115.666 43.3973C114.426 44.9376 113.607 46.7735 113.289 48.7252C112.971 50.6769 113.165 52.6778 113.852 54.532C114.226 53.4171 114.846 52.4006 115.666 51.5579Z" fill="#C0DCEB"/>
<path d="M133.328 46.6254L126.909 53.1538C124.261 55.8015 126.401 62.2574 131.732 67.6616C137.064 73.0657 143.484 75.133 146.24 72.4854L152.66 65.9569L133.328 46.6254Z" fill="#DAEDF7"/>
<path d="M131.588 60.1175L138.153 53.8792L151.536 67.2626L152.697 66.102L133.329 46.6254L126.909 53.1538C124.334 55.729 126.329 61.931 131.37 67.1901C130.732 66.1121 130.413 64.8746 130.451 63.6222C130.49 62.3698 130.884 61.1542 131.588 60.1175Z" fill="white"/>
<path d="M133.328 46.6254L126.909 53.1538C124.261 55.8015 126.401 62.2574 131.732 67.6616C137.064 73.0657 143.484 75.133 146.24 72.4854L152.66 65.9569L133.328 46.6254Z" stroke="#6DA5E5" stroke-width="2.7202" stroke-linecap="round" stroke-linejoin="round"/>
<path d="M152.66 65.9571C149.976 68.6047 143.556 66.4648 138.152 61.1695C132.748 55.8742 130.717 49.4183 133.365 46.6618C136.012 43.9053 142.468 46.1903 147.872 51.4856C153.277 56.7809 155.199 63.3094 152.66 65.9571Z" fill="#DAEDF7"/>
<path d="M136.919 53.8793C139.566 51.1953 146.022 53.3715 151.426 58.6668C152.18 59.4403 152.894 60.2514 153.566 61.0969C152.597 57.4289 150.61 54.1096 147.836 51.5218C142.432 46.2627 135.976 44.0866 133.328 46.6254C130.68 49.1643 132.312 53.8793 135.976 58.5943C135.734 57.7913 135.694 56.9412 135.858 56.119C136.023 55.2968 136.387 54.5276 136.919 53.8793Z" fill="white"/>
<path d="M152.66 65.9571C149.976 68.6047 143.556 66.4648 138.152 61.1695C132.748 55.8742 130.717 49.4183 133.365 46.6618C136.012 43.9053 142.468 46.1903 147.872 51.4856C153.277 56.7809 155.199 63.3094 152.66 65.9571Z" stroke="#6DA5E5" stroke-width="2.7202" stroke-linecap="round" stroke-linejoin="round"/>
</svg>
