<svg width="200" height="200" viewBox="0 0 200 200" fill="none" xmlns="http://www.w3.org/2000/svg">
<mask id="path-1-outside-1_1062_16705" maskUnits="userSpaceOnUse" x="17.0005" y="31.0004" width="167" height="157" fill="black">
<rect fill="white" x="17.0005" y="31.0004" width="167" height="157"/>
<path d="M108.828 43.071C134.615 30.3965 162.393 38.331 172.94 59.7829C181.348 76.8845 176.028 97.1229 167.247 108.797C167.868 109.93 168.084 111.228 167.912 112.564C167.399 116.533 163.039 122.967 158.512 123C156.259 123.016 153.943 121.407 152.157 119.26C142.205 122.455 138.018 120.749 134.969 120.749C133.719 127.305 135.969 134 131.896 142.695C127.823 151.39 119.117 160.867 103.804 166.287C97.6464 168.466 87.4272 167.733 76.485 164.688L75.8014 170.496L81.1129 172.799C82.0402 173.201 82.4659 174.279 82.0641 175.206C81.6619 176.133 80.584 176.559 79.6569 176.157L75.4274 174.323L74.9596 179.678C74.8715 180.685 73.9837 181.43 72.9772 181.343C71.9707 181.255 71.2266 180.367 71.3141 179.36L71.692 175.023L65.1197 178.914C64.2503 179.428 63.1279 179.14 62.6129 178.271C62.0982 177.402 62.3858 176.278 63.2555 175.763L72.1129 170.519L72.9254 163.623C63.8256 160.712 54.4811 156.28 46.7506 150.656L44.9049 159.295L44.8561 159.475C44.8344 159.543 44.8076 159.608 44.7789 159.671L48.6637 163.736C49.3615 164.467 49.3361 165.625 48.6061 166.323C47.8757 167.021 46.7165 166.995 46.0182 166.265L43.402 163.527L41.4977 168.296C41.1227 169.234 40.0581 169.692 39.1197 169.317C38.1814 168.942 37.7238 167.877 38.0983 166.938L39.3981 163.686L36.9186 164.779C35.9937 165.186 34.913 164.766 34.5055 163.842C34.0984 162.917 34.5177 161.837 35.442 161.429L41.2867 158.854C41.2883 158.808 41.2904 158.761 41.2955 158.715L41.3258 158.53L43.5387 148.171C39.6861 144.996 36.3652 141.5 33.8619 137.727C19.6635 116.328 16.9291 81.7915 40.6988 57.4294C53.6685 44.1317 84.3803 39.3699 100.892 47.7175C103.373 46.0124 106.024 44.4499 108.828 43.071Z"/>
</mask>
<path d="M108.828 43.071C134.615 30.3965 162.393 38.331 172.94 59.7829C181.348 76.8845 176.028 97.1229 167.247 108.797C167.868 109.93 168.084 111.228 167.912 112.564C167.399 116.533 163.039 122.967 158.512 123C156.259 123.016 153.943 121.407 152.157 119.26C142.205 122.455 138.018 120.749 134.969 120.749C133.719 127.305 135.969 134 131.896 142.695C127.823 151.39 119.117 160.867 103.804 166.287C97.6464 168.466 87.4272 167.733 76.485 164.688L75.8014 170.496L81.1129 172.799C82.0402 173.201 82.4659 174.279 82.0641 175.206C81.6619 176.133 80.584 176.559 79.6569 176.157L75.4274 174.323L74.9596 179.678C74.8715 180.685 73.9837 181.43 72.9772 181.343C71.9707 181.255 71.2266 180.367 71.3141 179.36L71.692 175.023L65.1197 178.914C64.2503 179.428 63.1279 179.14 62.6129 178.271C62.0982 177.402 62.3858 176.278 63.2555 175.763L72.1129 170.519L72.9254 163.623C63.8256 160.712 54.4811 156.28 46.7506 150.656L44.9049 159.295L44.8561 159.475C44.8344 159.543 44.8076 159.608 44.7789 159.671L48.6637 163.736C49.3615 164.467 49.3361 165.625 48.6061 166.323C47.8757 167.021 46.7165 166.995 46.0182 166.265L43.402 163.527L41.4977 168.296C41.1227 169.234 40.0581 169.692 39.1197 169.317C38.1814 168.942 37.7238 167.877 38.0983 166.938L39.3981 163.686L36.9186 164.779C35.9937 165.186 34.913 164.766 34.5055 163.842C34.0984 162.917 34.5177 161.837 35.442 161.429L41.2867 158.854C41.2883 158.808 41.2904 158.761 41.2955 158.715L41.3258 158.53L43.5387 148.171C39.6861 144.996 36.3652 141.5 33.8619 137.727C19.6635 116.328 16.9291 81.7915 40.6988 57.4294C53.6685 44.1317 84.3803 39.3699 100.892 47.7175C103.373 46.0124 106.024 44.4499 108.828 43.071Z" fill="#040000"/>
<path d="M108.828 43.071L106.181 37.6863L106.18 37.6868L108.828 43.071ZM172.94 59.7829L178.324 57.1357L178.324 57.1356L172.94 59.7829ZM167.247 108.797L162.452 105.19C161.035 107.074 160.852 109.613 161.985 111.68L167.247 108.797ZM167.912 112.564L173.862 113.333L173.862 113.332L167.912 112.564ZM158.512 123L158.556 129L158.556 129L158.512 123ZM152.157 119.26L156.77 115.423C155.205 113.541 152.653 112.798 150.323 113.547L152.157 119.26ZM134.969 120.749V114.749C132.089 114.749 129.615 116.795 129.076 119.624L134.969 120.749ZM131.896 142.695L137.329 145.24L137.329 145.24L131.896 142.695ZM103.804 166.287L105.806 171.943L105.806 171.943L103.804 166.287ZM76.485 164.688L78.0935 158.908C76.4054 158.438 74.5963 158.73 73.1413 159.706C71.6863 160.683 70.731 162.247 70.5261 163.987L76.485 164.688ZM75.8014 170.496L69.8425 169.794C69.5329 172.425 70.9847 174.947 73.4148 176.001L75.8014 170.496ZM81.1129 172.799L78.7263 178.303L78.7264 178.304L81.1129 172.799ZM82.0641 175.206L87.5683 177.594L87.5694 177.592L82.0641 175.206ZM79.6569 176.157L77.2699 181.662L77.2709 181.662L79.6569 176.157ZM75.4274 174.323L77.8143 168.818C76.0446 168.051 74.0138 168.181 72.3566 169.168C70.6995 170.156 69.618 171.879 69.4501 173.801L75.4274 174.323ZM74.9596 179.678L80.9367 180.202L80.9368 180.201L74.9596 179.678ZM72.9772 181.343L72.4546 187.32L72.4574 187.32L72.9772 181.343ZM71.3141 179.36L65.3367 178.839L65.3366 178.841L71.3141 179.36ZM71.692 175.023L77.6694 175.544C77.8646 173.304 76.7907 171.142 74.8873 169.945C72.9839 168.747 70.5707 168.714 68.6356 169.86L71.692 175.023ZM65.1197 178.914L68.1745 184.078L68.1762 184.077L65.1197 178.914ZM62.6129 178.271L57.4494 181.327L57.4513 181.33L62.6129 178.271ZM63.2555 175.763L66.3122 180.926L66.3123 180.926L63.2555 175.763ZM72.1129 170.519L75.1697 175.682C76.7796 174.729 77.8528 173.079 78.0717 171.221L72.1129 170.519ZM72.9254 163.623L78.8842 164.325C79.2202 161.473 77.4883 158.783 74.7531 157.908L72.9254 163.623ZM46.7506 150.656L50.2802 145.804C48.6376 144.609 46.502 144.326 44.605 145.053C42.7081 145.779 41.3074 147.416 40.883 149.402L46.7506 150.656ZM44.9049 159.295L50.6971 160.86C50.725 160.757 50.7501 160.653 50.7725 160.548L44.9049 159.295ZM44.8561 159.475L50.5668 161.316C50.5961 161.225 50.6233 161.133 50.6483 161.041L44.8561 159.475ZM44.7789 159.671L39.3168 157.188C38.3024 159.419 38.7475 162.044 40.441 163.816L44.7789 159.671ZM48.6637 163.736L53.0023 159.592L53.0016 159.591L48.6637 163.736ZM48.6061 166.323L52.7509 170.661L52.7534 170.659L48.6061 166.323ZM46.0182 166.265L41.6799 170.41L41.6831 170.413L46.0182 166.265ZM43.402 163.527L47.7402 159.382C46.3298 157.906 44.2654 157.248 42.261 157.637C40.2565 158.025 38.5871 159.406 37.8299 161.302L43.402 163.527ZM41.4977 168.296L47.0692 170.522L47.0698 170.521L41.4977 168.296ZM39.1197 169.317L36.8938 174.889L36.8959 174.89L39.1197 169.317ZM38.0983 166.938L32.5268 164.711L32.5256 164.714L38.0983 166.938ZM39.3981 163.686L44.9695 165.913C45.8742 163.65 45.3196 161.064 43.5661 159.37C41.8126 157.677 39.2089 157.213 36.9783 158.196L39.3981 163.686ZM36.9186 164.779L39.3373 170.27L39.3383 170.269L36.9186 164.779ZM34.5055 163.842L29.0141 166.259L29.015 166.261L34.5055 163.842ZM35.442 161.429L33.0228 155.939L33.0209 155.94L35.442 161.429ZM41.2867 158.854L43.7059 164.345C45.8168 163.415 47.2075 161.357 47.2835 159.052L41.2867 158.854ZM41.2955 158.715L35.3746 157.743C35.3573 157.849 35.3428 157.955 35.3312 158.061L41.2955 158.715ZM41.3258 158.53L35.4582 157.277C35.4382 157.37 35.4204 157.464 35.4049 157.559L41.3258 158.53ZM43.5387 148.171L49.4063 149.424C49.8743 147.233 49.0829 144.964 47.354 143.54L43.5387 148.171ZM33.8619 137.727L28.8623 141.044L28.8623 141.044L33.8619 137.727ZM40.6988 57.4294L44.9934 61.6195L44.9942 61.6187L40.6988 57.4294ZM100.892 47.7175L98.1852 53.0721C100.142 54.0616 102.483 53.9044 104.291 52.6623L100.892 47.7175ZM108.828 43.071L111.474 48.4558C134.985 36.9004 158.791 44.6035 167.556 62.4302L172.94 59.7829L178.324 57.1356C165.995 32.0584 134.245 23.8926 106.181 37.6863L108.828 43.071ZM172.94 59.7829L167.556 62.4302C174.716 76.9937 170.252 94.8204 162.452 105.19L167.247 108.797L172.042 112.403C181.804 99.4253 187.98 76.7753 178.324 57.1357L172.94 59.7829ZM167.247 108.797L161.985 111.68C161.979 111.668 161.973 111.656 161.969 111.645C161.966 111.635 161.965 111.63 161.966 111.633C161.966 111.638 161.975 111.689 161.961 111.796L167.912 112.564L173.862 113.332C174.182 110.858 173.796 108.263 172.508 105.913L167.247 108.797ZM167.912 112.564L161.961 111.796C161.936 111.993 161.809 112.522 161.443 113.291C161.094 114.027 160.616 114.793 160.068 115.465C159.51 116.15 158.988 116.603 158.599 116.85C158.205 117.101 158.174 117.002 158.468 117L158.512 123L158.556 129C163.526 128.963 167.268 125.624 169.367 123.05C171.587 120.328 173.426 116.712 173.862 113.333L167.912 112.564ZM158.512 123L158.469 117C158.784 116.998 158.742 117.102 158.31 116.835C157.892 116.577 157.342 116.11 156.77 115.423L152.157 119.26L147.544 123.096C149.731 125.726 153.594 129.036 158.556 129L158.512 123ZM152.157 119.26L150.323 113.547C145.914 114.962 143.018 115.223 141.035 115.203C140.009 115.192 139.131 115.106 138.213 115.003C137.426 114.914 136.159 114.749 134.969 114.749V120.749V126.749C135.304 126.749 135.704 126.796 136.87 126.928C137.906 127.044 139.267 127.185 140.914 127.202C144.274 127.236 148.448 126.752 153.991 124.972L152.157 119.26ZM134.969 120.749L129.076 119.624C128.332 123.525 128.573 128.003 128.494 130.748C128.404 133.87 128.024 136.817 126.463 140.15L131.896 142.695L137.329 145.24C139.842 139.878 140.373 135.13 140.489 131.092C140.616 126.676 140.356 124.529 140.863 121.873L134.969 120.749ZM131.896 142.695L126.463 140.15C123.087 147.356 115.637 155.734 101.802 160.631L103.804 166.287L105.806 171.943C122.597 165.999 132.559 155.424 137.329 145.24L131.896 142.695ZM103.804 166.287L101.802 160.631C99.7865 161.344 96.5949 161.724 92.3108 161.458C88.1127 161.198 83.2414 160.34 78.0935 158.908L76.485 164.688L74.8764 170.469C80.6708 172.081 86.3802 173.113 91.5668 173.435C96.6673 173.752 101.664 173.409 105.806 171.943L103.804 166.287ZM76.485 164.688L70.5261 163.987L69.8425 169.794L75.8014 170.496L81.7603 171.197L82.4438 165.39L76.485 164.688ZM75.8014 170.496L73.4148 176.001L78.7263 178.303L81.1129 172.799L83.4995 167.294L78.188 164.991L75.8014 170.496ZM81.1129 172.799L78.7264 178.304C76.6122 177.387 75.6438 174.931 76.5588 172.82L82.0641 175.206L87.5694 177.592C89.2881 173.626 87.4681 169.014 83.4994 167.294L81.1129 172.799ZM82.0641 175.206L76.5599 172.818C77.4758 170.707 79.9292 169.736 82.0428 170.652L79.6569 176.157L77.2709 181.662C81.2388 183.382 85.8481 181.559 87.5683 177.594L82.0641 175.206ZM79.6569 176.157L82.0438 170.652L77.8143 168.818L75.4274 174.323L73.0404 179.828L77.2699 181.662L79.6569 176.157ZM75.4274 174.323L69.4501 173.801L68.9823 179.156L74.9596 179.678L80.9368 180.201L81.4046 174.845L75.4274 174.323ZM74.9596 179.678L68.9824 179.155C69.1832 176.861 71.2046 175.166 73.497 175.365L72.9772 181.343L72.4574 187.32C76.7628 187.694 80.5598 184.509 80.9367 180.202L74.9596 179.678ZM72.9772 181.343L73.4997 175.365C75.8 175.566 77.4902 177.593 77.2916 179.879L71.3141 179.36L65.3366 178.841C64.9631 183.14 68.1413 186.943 72.4546 187.32L72.9772 181.343ZM71.3141 179.36L77.2914 179.881L77.6694 175.544L71.692 175.023L65.7147 174.502L65.3367 178.839L71.3141 179.36ZM71.692 175.023L68.6356 169.86L62.0633 173.751L65.1197 178.914L68.1762 184.077L74.7485 180.186L71.692 175.023ZM65.1197 178.914L62.065 173.75C64.0476 172.577 66.602 173.234 67.7745 175.212L62.6129 178.271L57.4513 181.33C59.6538 185.047 64.4531 186.279 68.1745 184.078L65.1197 178.914ZM62.6129 178.271L67.7764 175.215C68.9484 177.196 68.295 179.753 66.3122 180.926L63.2555 175.763L60.1988 170.6C56.4767 172.804 55.248 177.607 57.4494 181.327L62.6129 178.271ZM63.2555 175.763L66.3123 180.926L75.1697 175.682L72.1129 170.519L69.0561 165.356L60.1987 170.6L63.2555 175.763ZM72.1129 170.519L78.0717 171.221L78.8842 164.325L72.9254 163.623L66.9666 162.921L66.1541 169.817L72.1129 170.519ZM72.9254 163.623L74.7531 157.908C66.1526 155.157 57.407 150.988 50.2802 145.804L46.7506 150.656L43.221 155.508C51.5552 161.571 61.4986 166.268 71.0977 169.338L72.9254 163.623ZM46.7506 150.656L40.883 149.402L39.0373 158.041L44.9049 159.295L50.7725 160.548L52.6182 151.91L46.7506 150.656ZM44.9049 159.295L39.1127 157.729L39.0639 157.91L44.8561 159.475L50.6483 161.041L50.6971 160.86L44.9049 159.295ZM44.8561 159.475L39.1454 157.635C39.2181 157.409 39.2891 157.249 39.3168 157.188L44.7789 159.671L50.2411 162.154C50.326 161.967 50.4508 161.676 50.5668 161.316L44.8561 159.475ZM44.7789 159.671L40.441 163.816L44.3258 167.881L48.6637 163.736L53.0016 159.591L49.1169 155.525L44.7789 159.671ZM48.6637 163.736L44.325 167.88C42.7382 166.219 42.7919 163.581 44.4588 161.987L48.6061 166.323L52.7534 170.659C55.8803 167.668 55.9847 162.714 53.0023 159.592L48.6637 163.736ZM48.6061 166.323L44.4613 161.985C46.1238 160.396 48.7603 160.452 50.3533 162.117L46.0182 166.265L41.6831 170.413C44.6728 173.538 49.6276 173.645 52.7509 170.661L48.6061 166.323ZM46.0182 166.265L50.3564 162.121L47.7402 159.382L43.402 163.527L39.0637 167.672L41.6799 170.41L46.0182 166.265ZM43.402 163.527L37.8299 161.302L35.9256 166.07L41.4977 168.296L47.0698 170.521L48.9741 165.752L43.402 163.527ZM41.4977 168.296L35.9261 166.069C36.7788 163.935 39.2012 162.89 41.3436 163.744L39.1197 169.317L36.8959 174.89C40.915 176.494 45.4666 174.532 47.0692 170.522L41.4977 168.296ZM39.1197 169.317L41.3457 163.745C43.4829 164.599 44.5246 167.023 43.671 169.162L38.0983 166.938L32.5256 164.714C30.9229 168.731 32.88 173.285 36.8938 174.889L39.1197 169.317ZM38.0983 166.938L43.6697 169.165L44.9695 165.913L39.3981 163.686L33.8266 161.459L32.5268 164.711L38.0983 166.938ZM39.3981 163.686L36.9783 158.196L34.4988 159.289L36.9186 164.779L39.3383 170.269L41.8178 169.177L39.3981 163.686ZM36.9186 164.779L34.4999 159.288C36.6094 158.359 39.0684 159.317 39.996 161.422L34.5055 163.842L29.015 166.261C30.7577 170.216 35.3781 172.014 39.3373 170.27L36.9186 164.779ZM34.5055 163.842L39.9969 161.424C40.9243 163.531 39.9696 165.99 37.8631 166.919L35.442 161.429L33.0209 155.94C29.0657 157.684 27.2726 162.303 29.0141 166.259L34.5055 163.842ZM35.442 161.429L37.8612 166.92L43.7059 164.345L41.2867 158.854L38.8675 153.364L33.0228 155.939L35.442 161.429ZM41.2867 158.854L47.2835 159.052C47.2835 159.053 47.2824 159.087 47.2795 159.136C47.2765 159.187 47.2708 159.268 47.2599 159.368L41.2955 158.715L35.3312 158.061C35.3005 158.342 35.2928 158.573 35.29 158.657L41.2867 158.854ZM41.2955 158.715L47.2164 159.686L47.2467 159.501L41.3258 158.53L35.4049 157.559L35.3746 157.743L41.2955 158.715ZM41.3258 158.53L47.1934 159.783L49.4063 149.424L43.5387 148.171L37.6711 146.917L35.4582 157.277L41.3258 158.53ZM43.5387 148.171L47.354 143.54C43.8487 140.652 40.9665 137.583 38.8615 134.41L33.8619 137.727L28.8623 141.044C31.7638 145.418 35.5236 149.341 39.7234 152.801L43.5387 148.171ZM33.8619 137.727L38.8616 134.41C25.8853 114.852 23.5991 83.5469 44.9934 61.6195L40.6988 57.4294L36.4043 53.2393C10.2592 80.036 13.4418 117.803 28.8623 141.044L33.8619 137.727ZM40.6988 57.4294L44.9942 61.6187C50.2429 56.2371 59.75 52.0792 70.4106 50.3818C81.0636 48.6857 91.4592 49.6718 98.1852 53.0721L100.892 47.7175L103.599 42.3629C93.8133 37.4156 80.597 36.6088 68.5237 38.5311C56.4581 40.4522 44.1243 45.324 36.4035 53.2401L40.6988 57.4294ZM100.892 47.7175L104.291 52.6623C106.538 51.1177 108.938 49.703 111.475 48.4552L108.828 43.071L106.18 37.6868C103.109 39.1969 100.208 40.9072 97.4938 42.7728L100.892 47.7175Z" fill="white" mask="url(#path-1-outside-1_1062_16705)"/>
<path d="M81.1123 172.798C82.0396 173.2 82.4653 174.278 82.0635 175.206C81.6614 176.133 80.5835 176.559 79.6563 176.157L75.4267 174.323L74.9588 179.678C74.8708 180.685 73.9833 181.431 72.9766 181.343C71.97 181.255 71.2254 180.367 71.3129 179.361L71.6915 175.023L65.1194 178.914C64.2499 179.428 63.1276 179.14 62.6126 178.271C62.0977 177.402 62.3852 176.278 63.2548 175.764L72.1129 170.519L73.8441 155.836L73.8753 155.652C74.0764 154.746 74.9344 154.123 75.8754 154.234C76.8163 154.345 77.5066 155.151 77.4915 156.078L77.4781 156.265L75.8015 170.495L81.1123 172.798Z" fill="#474747"/>
<path d="M46.7099 142.089C47.6363 142.287 48.2486 143.154 48.1476 144.076L48.1176 144.261L44.9046 159.294L44.8564 159.475C44.8347 159.542 44.8082 159.607 44.7795 159.671L48.664 163.736C49.3618 164.466 49.3361 165.624 48.6061 166.323C47.8757 167.021 46.7169 166.995 46.0185 166.265L43.4024 163.527L41.4977 168.296C41.1227 169.234 40.0585 169.691 39.1201 169.317C38.1817 168.942 37.7241 167.877 38.0987 166.939L39.3977 163.686L36.9183 164.779C35.9935 165.186 34.913 164.767 34.5055 163.842C34.0981 162.917 34.5178 161.837 35.4425 161.429L41.2871 158.854C41.2886 158.808 41.2904 158.761 41.2955 158.714L41.3256 158.53L44.5376 143.496L44.5868 143.315C44.8714 142.433 45.7834 141.891 46.7099 142.089Z" fill="#474747"/>
<path d="M103.804 166.287C88.4915 171.707 48.0604 159.127 33.8618 137.728C19.6631 116.328 16.9284 81.7913 40.6984 57.4291C53.668 44.1314 84.3796 39.3701 100.891 47.7177C103.372 46.0126 106.023 44.4496 108.827 43.0706C134.614 30.3959 162.393 38.331 172.94 59.7831C184.354 83 170.469 112 156.969 117.5C143.469 123 138.469 120.749 134.969 120.749C133.719 127.305 135.969 134 131.896 142.695C127.822 151.391 119.117 160.866 103.804 166.287Z" fill="#4B9AE8"/>
<path d="M91.9861 76.0368L55.8246 96.36C47.0013 101.314 44.5822 111.736 51.0629 116.944C61.195 125.07 77.2247 132.846 95.3647 122.654C110.524 114.127 115.478 99.6416 116.619 87.0692C117.69 75.2727 104.106 69.2153 91.9859 76.017L91.9861 76.0368Z" fill="#276288"/>
<path d="M167.912 112.564C167.4 116.532 163.038 122.967 158.512 123C153.986 123.033 149.203 116.507 148.98 112.232C148.757 107.956 151.937 105.042 158.694 105C165.525 104.959 168.424 108.595 167.912 112.564Z" fill="#EAC00F"/>
<path d="M156.469 96C161.164 96 164.969 92.1944 164.969 87.5C164.969 82.8056 161.164 79 156.469 79C151.775 79 147.969 82.8056 147.969 87.5C147.969 92.1944 151.775 96 156.469 96Z" fill="white"/>
<path d="M156.469 92.0307C158.971 92.0307 161 90.0022 161 87.5C161 84.9977 158.971 82.9692 156.469 82.9692C153.967 82.9692 151.938 84.9977 151.938 87.5C151.938 90.0022 153.967 92.0307 156.469 92.0307Z" fill="#040000"/>
</svg>
