<svg width="200" height="200" viewBox="0 0 200 200" fill="none" xmlns="http://www.w3.org/2000/svg">
<mask id="path-1-outside-1_1062_25505" maskUnits="userSpaceOnUse" x="17" y="17" width="167" height="166" fill="black">
<rect fill="white" x="17" y="17" width="167" height="166"/>
<path d="M113.503 23C114.195 23 114.886 23.014 115.571 23.0693C134.629 24.19 149.751 40.8403 149.751 62.9141C149.751 65.0763 149.194 69.1472 148.817 70.374C150.304 70.2627 151.826 70.5485 153.274 71.2852C153.298 71.2965 153.312 71.3089 153.336 71.3203C154.114 71.7283 154.866 72.2509 155.578 72.9238C155.624 72.9684 155.669 73.0042 155.715 73.0488C157.9 75.1599 160.026 77.6099 161.815 80.3643C161.831 80.3848 161.839 80.4065 161.856 80.4355C162.017 80.6938 162.181 80.9479 162.337 81.2021C162.342 81.2063 162.357 81.218 162.358 81.2266C162.505 81.4814 162.652 81.7364 162.799 81.9912C162.845 82.0662 162.887 82.1461 162.925 82.2217C162.935 82.2297 162.936 82.2382 162.941 82.2422C164.385 84.8056 165.501 87.6068 166.126 90.6445C168.431 95.4901 169.864 100.725 170.255 106.204C170.331 107.228 170.372 108.258 170.372 109.296H170.365C170.365 109.934 170.345 110.572 170.318 111.201H171.327C174.457 111.201 177.027 113.738 177.027 116.901V171.333C177.027 174.463 174.49 177 171.327 177H123.881C120.751 177 118.181 174.463 118.181 171.3V155.044C117.959 155.057 117.738 155.073 117.516 155.084C116.796 155.125 116.069 155.153 115.343 155.167C114.734 155.174 114.118 155.181 113.503 155.181C112.887 155.181 112.279 155.174 111.67 155.167C107.436 155.07 103.313 154.627 99.3633 153.873C97.6242 153.539 95.9136 153.14 94.2402 152.681L89.918 163.028C89.1847 164.784 87.1479 165.62 85.3926 164.887L79.8926 162.589C78.9199 164.104 77.2166 165.107 75.29 165.107H28.46C25.461 165.107 23 162.677 23 159.63V109.065C23.0002 106.057 25.4227 103.589 28.46 103.589H30.8936V103.487C30.8936 93.0204 40.6354 85.0273 51.9805 85.0273C52.0284 85.0273 52.0762 85.028 52.124 85.0283L73.4551 73.2568L73.4482 73.25C74.5333 72.6517 75.6328 72.188 76.7266 71.8477C76.8925 71.7258 77.0599 71.6056 77.2275 71.4854V71.0488C77.2345 69.6026 77.2617 64.996 77.2617 62.9141C77.2618 40.0448 93.4906 23.0001 113.503 23ZM80.75 153.802L84.8545 156.61L87.4395 150.42C85.1107 149.502 82.8766 148.459 80.75 147.299V153.802ZM35.3662 99.5967C34.9565 100.844 34.7383 102.151 34.7383 103.487V103.589H36.1104C35.8296 102.998 35.6176 102.37 35.4883 101.709C35.35 101.001 35.3139 100.294 35.3662 99.5967Z"/>
</mask>
<path d="M113.503 23C114.195 23 114.886 23.014 115.571 23.0693C134.629 24.19 149.751 40.8403 149.751 62.9141C149.751 65.0763 149.194 69.1472 148.817 70.374C150.304 70.2627 151.826 70.5485 153.274 71.2852C153.298 71.2965 153.312 71.3089 153.336 71.3203C154.114 71.7283 154.866 72.2509 155.578 72.9238C155.624 72.9684 155.669 73.0042 155.715 73.0488C157.9 75.1599 160.026 77.6099 161.815 80.3643C161.831 80.3848 161.839 80.4065 161.856 80.4355C162.017 80.6938 162.181 80.9479 162.337 81.2021C162.342 81.2063 162.357 81.218 162.358 81.2266C162.505 81.4814 162.652 81.7364 162.799 81.9912C162.845 82.0662 162.887 82.1461 162.925 82.2217C162.935 82.2297 162.936 82.2382 162.941 82.2422C164.385 84.8056 165.501 87.6068 166.126 90.6445C168.431 95.4901 169.864 100.725 170.255 106.204C170.331 107.228 170.372 108.258 170.372 109.296H170.365C170.365 109.934 170.345 110.572 170.318 111.201H171.327C174.457 111.201 177.027 113.738 177.027 116.901V171.333C177.027 174.463 174.49 177 171.327 177H123.881C120.751 177 118.181 174.463 118.181 171.3V155.044C117.959 155.057 117.738 155.073 117.516 155.084C116.796 155.125 116.069 155.153 115.343 155.167C114.734 155.174 114.118 155.181 113.503 155.181C112.887 155.181 112.279 155.174 111.67 155.167C107.436 155.07 103.313 154.627 99.3633 153.873C97.6242 153.539 95.9136 153.14 94.2402 152.681L89.918 163.028C89.1847 164.784 87.1479 165.62 85.3926 164.887L79.8926 162.589C78.9199 164.104 77.2166 165.107 75.29 165.107H28.46C25.461 165.107 23 162.677 23 159.63V109.065C23.0002 106.057 25.4227 103.589 28.46 103.589H30.8936V103.487C30.8936 93.0204 40.6354 85.0273 51.9805 85.0273C52.0284 85.0273 52.0762 85.028 52.124 85.0283L73.4551 73.2568L73.4482 73.25C74.5333 72.6517 75.6328 72.188 76.7266 71.8477C76.8925 71.7258 77.0599 71.6056 77.2275 71.4854V71.0488C77.2345 69.6026 77.2617 64.996 77.2617 62.9141C77.2618 40.0448 93.4906 23.0001 113.503 23ZM80.75 153.802L84.8545 156.61L87.4395 150.42C85.1107 149.502 82.8766 148.459 80.75 147.299V153.802ZM35.3662 99.5967C34.9565 100.844 34.7383 102.151 34.7383 103.487V103.589H36.1104C35.8296 102.998 35.6176 102.37 35.4883 101.709C35.35 101.001 35.3139 100.294 35.3662 99.5967Z" fill="#276286"/>
<path d="M113.503 23L113.503 17L113.503 17L113.503 23ZM115.571 23.0693L115.088 29.0498C115.132 29.0534 115.175 29.0564 115.219 29.059L115.571 23.0693ZM149.751 62.9141L155.751 62.9141L155.751 62.914L149.751 62.9141ZM148.817 70.374L143.082 68.6131C142.5 70.5084 142.892 72.5687 144.129 74.1179C145.366 75.6672 147.288 76.5053 149.265 76.3573L148.817 70.374ZM153.274 71.2852L150.554 76.6331C150.585 76.6489 150.617 76.6644 150.648 76.6797L153.274 71.2852ZM153.336 71.3203L156.121 66.0061C156.067 65.9775 156.012 65.9497 155.956 65.9227L153.336 71.3203ZM155.578 72.9238L159.758 68.6193C159.738 68.6003 159.719 68.5814 159.699 68.5627L155.578 72.9238ZM155.715 73.0488L151.535 77.3532C151.539 77.3568 151.542 77.3605 151.546 77.3641L155.715 73.0488ZM161.815 80.3643L156.784 83.6332C156.878 83.778 156.978 83.9186 157.085 84.0548L161.815 80.3643ZM161.856 80.4355L156.704 83.5105C156.723 83.5418 156.742 83.5729 156.761 83.6038L161.856 80.4355ZM162.337 81.2021L157.219 84.3343C157.578 84.9204 158.035 85.4406 158.57 85.872L162.337 81.2021ZM162.358 81.2266L156.422 82.1008C156.533 82.8486 156.783 83.5689 157.161 84.2237L162.358 81.2266ZM162.799 81.9912L157.601 84.9884C157.629 85.0362 157.657 85.0836 157.686 85.1307L162.799 81.9912ZM162.925 82.2217L157.547 84.8821C157.932 85.6608 158.482 86.3466 159.158 86.892L162.925 82.2217ZM162.941 82.2422L168.169 79.2975C167.8 78.6425 167.311 78.0627 166.728 77.5882L162.941 82.2422ZM166.126 90.6445L160.249 91.8536C160.346 92.3264 160.5 92.7858 160.708 93.2218L166.126 90.6445ZM170.255 106.204L164.27 106.631C164.271 106.637 164.271 106.643 164.271 106.649L170.255 106.204ZM170.372 109.296V115.296C171.963 115.296 173.49 114.664 174.615 113.539C175.74 112.413 176.372 110.887 176.372 109.296L170.372 109.296ZM170.365 109.296V103.296C167.052 103.296 164.365 105.982 164.365 109.296H170.365ZM170.318 111.201L164.324 110.947C164.254 112.581 164.855 114.172 165.987 115.353C167.118 116.534 168.683 117.201 170.318 117.201V111.201ZM171.327 111.201L171.328 105.201H171.327V111.201ZM177.027 116.901L183.027 116.901L183.027 116.901L177.027 116.901ZM177.027 171.333L183.027 171.333V171.333H177.027ZM171.327 177L171.327 183L171.328 183L171.327 177ZM118.181 155.044H124.181C124.181 153.391 123.499 151.812 122.297 150.678C121.094 149.545 119.478 148.957 117.828 149.054L118.181 155.044ZM117.516 155.084L117.215 149.092C117.2 149.092 117.185 149.093 117.17 149.094L117.516 155.084ZM115.343 155.167L115.411 161.167C115.426 161.166 115.442 161.166 115.457 161.166L115.343 155.167ZM113.503 155.181L113.503 161.181H113.503V155.181ZM111.67 155.167L111.533 161.165C111.556 161.166 111.579 161.166 111.602 161.167L111.67 155.167ZM99.3633 153.873L98.2314 159.765L98.2382 159.767L99.3633 153.873ZM94.2402 152.681L95.8296 146.895C92.9188 146.095 89.8673 147.583 88.7038 150.368L94.2402 152.681ZM89.918 163.028L95.4544 165.341L95.4544 165.341L89.918 163.028ZM85.3926 164.887L83.0796 170.423L83.0799 170.423L85.3926 164.887ZM79.8926 162.589L82.2056 157.053C79.52 155.931 76.4165 156.898 74.8438 159.347L79.8926 162.589ZM23 109.065L17 109.065V109.065H23ZM30.8936 103.589V109.589C34.2073 109.589 36.8936 106.903 36.8936 103.589H30.8936ZM51.9805 85.0273L51.9805 79.0273H51.9805V85.0273ZM52.124 85.0283L52.0886 91.0282C53.1145 91.0343 54.1248 90.7772 55.023 90.2815L52.124 85.0283ZM73.4551 73.2568L76.354 78.51C78.0051 77.5989 79.1317 75.9646 79.3959 74.0975C79.6601 72.2303 79.0311 70.3476 77.6977 69.0142L73.4551 73.2568ZM73.4482 73.25L70.551 67.9959C68.8994 68.9066 67.7721 70.541 67.5076 72.4084C67.243 74.2758 67.8719 76.159 69.2056 77.4926L73.4482 73.25ZM76.7266 71.8477L78.5094 77.5766C79.1442 77.3791 79.7416 77.0775 80.2775 76.6841L76.7266 71.8477ZM77.2275 71.4854L80.725 76.3605C82.2959 75.2336 83.2275 73.4187 83.2275 71.4854H77.2275ZM77.2275 71.0488L71.2276 71.0201C71.2276 71.0297 71.2275 71.0393 71.2275 71.0488L77.2275 71.0488ZM77.2617 62.9141L71.2617 62.914V62.9141H77.2617ZM80.75 153.802H74.75C74.75 155.782 75.7273 157.635 77.3617 158.753L80.75 153.802ZM84.8545 156.61L81.4662 161.562C82.9559 162.581 84.8253 162.876 86.5562 162.364C88.2872 161.852 89.6956 160.588 90.3912 158.922L84.8545 156.61ZM87.4395 150.42L92.9761 152.732C93.5973 151.244 93.5937 149.569 92.9663 148.085C92.3389 146.6 91.1403 145.43 89.6407 144.838L87.4395 150.42ZM80.75 147.299L83.623 142.031C81.764 141.017 79.5081 141.058 77.6872 142.139C75.8663 143.22 74.75 145.181 74.75 147.299H80.75ZM35.3662 99.5967L41.3494 100.045C41.5762 97.0208 39.5102 94.3027 36.5353 93.7117C33.5605 93.1207 30.6124 94.8427 29.6659 97.7242L35.3662 99.5967ZM34.7383 103.589H28.7383C28.7383 106.903 31.4246 109.589 34.7383 109.589V103.589ZM36.1104 103.589V109.589C38.1686 109.589 40.0832 108.534 41.1827 106.794C42.2821 105.054 42.4129 102.872 41.5292 101.013L36.1104 103.589ZM35.4883 101.709L29.5997 102.86L29.5998 102.86L35.4883 101.709ZM113.503 23V29C114.125 29 114.635 29.0132 115.088 29.0498L115.571 23.0693L116.055 17.0888C115.138 17.0148 114.265 17 113.503 17V23ZM115.571 23.0693L115.219 29.059C130.691 29.9688 143.751 43.585 143.751 62.9141L149.751 62.9141L155.751 62.914C155.751 38.0955 138.567 18.4112 115.923 17.0797L115.571 23.0693ZM149.751 62.9141H143.751C143.751 63.6141 143.649 64.8766 143.475 66.2256C143.392 66.869 143.301 67.4629 143.216 67.9383C143.119 68.4804 143.064 68.6694 143.082 68.6131L148.817 70.374L154.553 72.1349C154.908 70.9791 155.191 69.1919 155.376 67.764C155.574 66.2303 155.751 64.3763 155.751 62.9141H149.751ZM148.817 70.374L149.265 76.3573C149.66 76.3277 150.087 76.3952 150.554 76.6331L153.274 71.2852L155.995 65.9372C153.566 64.7017 150.947 64.1978 148.369 64.3908L148.817 70.374ZM153.274 71.2852L150.648 76.6797C150.488 76.6021 150.358 76.5294 150.264 76.4743C150.218 76.4478 150.182 76.4257 150.16 76.4121C150.149 76.4053 150.14 76.3999 150.135 76.3969C150.131 76.3942 150.127 76.392 150.129 76.3934C150.13 76.3937 150.136 76.3976 150.143 76.4019C150.151 76.4066 150.162 76.4137 150.176 76.4222C150.204 76.4392 150.245 76.4645 150.296 76.4943C150.402 76.5558 150.544 76.6345 150.716 76.7179L153.336 71.3203L155.956 65.9227C156.035 65.9611 156.108 65.9986 156.174 66.0341C156.239 66.0694 156.296 66.1017 156.343 66.1289C156.389 66.1558 156.426 66.1781 156.449 66.1921C156.46 66.1992 156.469 66.2048 156.474 66.208C156.479 66.2109 156.483 66.2132 156.481 66.2121C156.481 66.212 156.475 66.2083 156.468 66.2042C156.461 66.1997 156.45 66.1928 156.436 66.1844C156.409 66.1679 156.368 66.1429 156.318 66.1134C156.266 66.0835 156.205 66.0485 156.134 66.0104C156.064 65.9721 155.986 65.9318 155.901 65.8906L153.274 71.2852ZM153.336 71.3203L150.55 76.6345C150.86 76.7965 151.159 77.0026 151.457 77.285L155.578 72.9238L159.699 68.5627C158.573 67.4991 157.369 66.66 156.121 66.0061L153.336 71.3203ZM155.578 72.9238L151.398 77.2283C151.472 77.2997 151.535 77.3583 151.581 77.3999C151.623 77.4383 151.662 77.4719 151.669 77.4782C151.684 77.4919 151.669 77.4784 151.649 77.4607C151.626 77.4398 151.585 77.4023 151.535 77.3532L155.715 73.0488L159.895 68.7444C159.821 68.673 159.758 68.6144 159.712 68.5728C159.67 68.5344 159.631 68.5008 159.624 68.4945C159.609 68.4807 159.624 68.4942 159.644 68.5119C159.667 68.5328 159.707 68.5702 159.758 68.6193L155.578 72.9238ZM155.715 73.0488L151.546 77.3641C153.47 79.2225 155.286 81.3276 156.784 83.6332L161.815 80.3643L166.847 77.0954C164.766 73.8922 162.33 71.0974 159.884 68.7336L155.715 73.0488ZM161.815 80.3643L157.085 84.0548C156.748 83.623 156.552 83.2404 156.52 83.179C156.512 83.1641 156.503 83.1471 156.51 83.1604C156.513 83.1663 156.525 83.1905 156.541 83.2203C156.575 83.2842 156.631 83.387 156.704 83.5105L161.856 80.4355L167.009 77.3606C167.074 77.4695 167.122 77.5588 167.149 77.6098C167.155 77.6221 167.161 77.6323 167.164 77.6391C167.168 77.6457 167.17 77.6505 167.17 77.6509C167.174 77.6581 167.162 77.6351 167.151 77.6144C167.107 77.5298 166.899 77.126 166.546 76.6738L161.815 80.3643ZM161.856 80.4355L156.761 83.6038C157.027 84.0306 157.049 84.0557 157.219 84.3343L162.337 81.2021L167.455 78.07C167.314 77.84 167.008 77.357 166.952 77.2673L161.856 80.4355ZM162.337 81.2021L158.57 85.872C158.648 85.935 158.387 85.7331 158.131 85.4794C157.999 85.3491 157.734 85.0767 157.457 84.6848C157.247 84.3886 156.624 83.4717 156.422 82.1008L162.358 81.2266L168.294 80.3523C168.092 78.9772 167.466 78.0556 167.254 77.7546C166.973 77.3581 166.704 77.0808 166.568 76.946C166.302 76.6832 166.031 76.4735 166.104 76.5323L162.337 81.2021ZM162.358 81.2266L157.161 84.2237C157.233 84.349 157.305 84.4746 157.379 84.6023C157.452 84.7295 157.526 84.8588 157.601 84.9884L162.799 81.9912L167.997 78.994C167.924 78.8688 167.852 78.7432 167.779 78.6154C167.705 78.4883 167.631 78.359 167.556 78.2294L162.358 81.2266ZM162.799 81.9912L157.686 85.1307C157.644 85.0625 157.613 85.0072 157.592 84.9692C157.571 84.9306 157.556 84.9008 157.547 84.8821L162.925 82.2217L168.303 79.5612C168.214 79.3811 168.083 79.1298 167.912 78.8517L162.799 81.9912ZM162.925 82.2217L159.158 86.892C159.074 86.8244 158.993 86.7551 158.914 86.6843C158.835 86.6134 158.76 86.5416 158.688 86.4693C158.615 86.3971 158.547 86.325 158.482 86.2536C158.417 86.1822 158.357 86.1123 158.301 86.0445C158.078 85.7736 157.928 85.5419 157.865 85.4414C157.857 85.4289 157.85 85.4182 157.845 85.41C157.84 85.4019 157.836 85.3954 157.834 85.3919C157.833 85.3902 157.832 85.3888 157.831 85.3882C157.831 85.3881 157.831 85.3879 157.831 85.3879C157.831 85.3878 157.831 85.3878 157.831 85.3878C157.831 85.3878 157.831 85.3877 157.831 85.3877C157.831 85.3877 157.831 85.388 157.831 85.3882C157.832 85.389 157.835 85.3938 157.839 85.3999C157.842 85.4062 157.849 85.4159 157.856 85.4279C157.864 85.4398 157.873 85.4552 157.885 85.4731C157.896 85.491 157.91 85.5123 157.926 85.5364C157.942 85.5604 157.96 85.588 157.981 85.6183C158.001 85.6487 158.025 85.6826 158.051 85.7194C158.077 85.7562 158.107 85.7966 158.139 85.8397C158.171 85.8829 158.207 85.9295 158.247 85.9789C158.286 86.0282 158.329 86.0808 158.376 86.1359C158.47 86.2459 158.581 86.3679 158.71 86.4961C158.839 86.6246 158.987 86.7599 159.154 86.8961L162.941 82.2422L166.728 77.5882C167.062 77.8596 167.317 78.1271 167.503 78.3451C167.596 78.4542 167.675 78.5541 167.739 78.6392C167.802 78.7243 167.855 78.7991 167.896 78.8585C167.936 78.9176 167.968 78.9673 167.99 79.0014C168.012 79.0351 168.028 79.0616 168.035 79.0722C168.038 79.0778 168.041 79.0823 168.041 79.0826C168.042 79.0845 168.04 79.0807 168.038 79.0776C168.033 79.0703 168.021 79.0505 168.005 79.0255C167.939 78.9213 167.787 78.6858 167.56 78.4109C167.446 78.2725 167.316 78.1273 167.169 77.98C167.021 77.8327 166.862 77.6891 166.692 77.5514L162.925 82.2217ZM162.941 82.2422L157.714 85.1869C158.888 87.2708 159.763 89.4905 160.249 91.8536L166.126 90.6445L172.003 89.4355C171.239 85.7232 169.883 82.3405 168.169 79.2975L162.941 82.2422ZM166.126 90.6445L160.708 93.2218C162.705 97.42 163.934 101.928 164.27 106.631L170.255 106.204L176.24 105.777C175.793 99.522 174.157 93.5602 171.544 88.0673L166.126 90.6445ZM170.255 106.204L164.271 106.649C164.337 107.535 164.372 108.417 164.372 109.296L170.372 109.296L176.372 109.296C176.372 108.1 176.325 106.921 176.238 105.759L170.255 106.204ZM170.372 109.296V103.296H170.365V109.296V115.296H170.372V109.296ZM170.365 109.296H164.365C164.365 109.813 164.349 110.357 164.324 110.947L170.318 111.201L176.313 111.456C176.341 110.788 176.365 110.055 176.365 109.296H170.365ZM170.318 111.201V117.201H171.327V111.201V105.201H170.318V111.201ZM171.327 111.201L171.327 117.201C171.241 117.201 171.161 117.161 171.117 117.116C171.095 117.094 171.072 117.063 171.054 117.021C171.035 116.975 171.027 116.931 171.027 116.901L177.027 116.901L183.027 116.901C183.027 110.402 177.748 105.202 171.328 105.201L171.327 111.201ZM177.027 116.901H171.027V171.333H177.027H183.027V116.901H177.027ZM177.027 171.333L171.027 171.333C171.027 171.126 171.199 171 171.327 171L171.327 177L171.328 183C177.781 183 183.027 177.8 183.027 171.333L177.027 171.333ZM171.327 177V171H123.881V177V183H171.327V177ZM123.881 177V171C123.967 171 124.046 171.04 124.091 171.085C124.114 171.107 124.136 171.138 124.154 171.18C124.173 171.226 124.181 171.271 124.181 171.3H118.181H112.181C112.181 177.799 117.46 183 123.881 183V177ZM118.181 171.3H124.181V155.044H118.181H112.181V171.3H118.181ZM118.181 155.044L117.828 149.054C117.489 149.074 117.419 149.081 117.215 149.092L117.516 155.084L117.816 161.076C118.057 161.064 118.43 161.04 118.533 161.034L118.181 155.044ZM117.516 155.084L117.17 149.094C116.529 149.131 115.879 149.156 115.229 149.168L115.343 155.167L115.457 161.166C116.259 161.151 117.063 161.12 117.861 161.074L117.516 155.084ZM115.343 155.167L115.275 149.167C114.663 149.174 114.08 149.181 113.503 149.181V155.181V161.181C114.157 161.181 114.806 161.173 115.411 161.167L115.343 155.167ZM113.503 155.181L113.503 149.181C112.926 149.181 112.351 149.174 111.738 149.167L111.67 155.167L111.602 161.167C112.207 161.173 112.848 161.181 113.503 161.181L113.503 155.181ZM111.67 155.167L111.807 149.169C107.902 149.079 104.109 148.671 100.488 147.979L99.3633 153.873L98.2382 159.767C102.517 160.583 106.971 161.061 111.533 161.165L111.67 155.167ZM99.3633 153.873L100.495 147.981C98.9084 147.676 97.3504 147.313 95.8296 146.895L94.2402 152.681L92.6509 158.466C94.4767 158.968 96.34 159.402 98.2314 159.765L99.3633 153.873ZM94.2402 152.681L88.7038 150.368L84.3815 160.716L89.918 163.028L95.4544 165.341L99.7767 154.993L94.2402 152.681ZM89.918 163.028L84.3816 160.716C84.9259 159.413 86.4036 158.807 87.7052 159.35L85.3926 164.887L83.0799 170.423C87.8922 172.433 93.4436 170.155 95.4544 165.341L89.918 163.028ZM85.3926 164.887L87.7056 159.35L82.2056 157.053L79.8926 162.589L77.5796 168.125L83.0796 170.423L85.3926 164.887ZM79.8926 162.589L74.8438 159.347C74.9281 159.216 75.0887 159.107 75.29 159.107V165.107V171.107C79.3445 171.107 82.9118 168.991 84.9413 165.831L79.8926 162.589ZM75.29 165.107V159.107H28.46V165.107V171.107H75.29V165.107ZM28.46 165.107V159.107C28.7654 159.107 29 159.354 29 159.63H23H17C17 166 22.1565 171.107 28.46 171.107V165.107ZM23 159.63H29V109.065H23H17V159.63H23ZM23 109.065L29 109.066C29 109.326 28.7813 109.589 28.46 109.589V103.589V97.5889C22.064 97.5889 17.0005 102.789 17 109.065L23 109.065ZM28.46 103.589V109.589H30.8936V103.589V97.5889H28.46V103.589ZM30.8936 103.589H36.8936V103.487H30.8936H24.8936V103.589H30.8936ZM30.8936 103.487H36.8936C36.8936 97.163 43.0545 91.0273 51.9805 91.0273V85.0273V79.0273C38.2163 79.0273 24.8936 88.8778 24.8936 103.487H30.8936ZM51.9805 85.0273L51.9804 91.0273C51.9773 91.0273 51.98 91.0273 51.9999 91.0275C52.0046 91.0275 52.0095 91.0276 52.0156 91.0276C52.0214 91.0277 52.0284 91.0278 52.0356 91.0278C52.05 91.0279 52.0684 91.0281 52.0886 91.0282L52.124 85.0283L52.1595 79.0284C52.1468 79.0284 52.1404 79.0283 52.1046 79.028C52.0767 79.0277 52.0315 79.0273 51.9805 79.0273L51.9805 85.0273ZM52.124 85.0283L55.023 90.2815L76.354 78.51L73.4551 73.2568L70.5561 68.0036L49.2251 79.7751L52.124 85.0283ZM73.4551 73.2568L77.6977 69.0142L77.6909 69.0074L73.4482 73.25L69.2056 77.4926L69.2124 77.4995L73.4551 73.2568ZM73.4482 73.25L76.3455 78.5041C77.0767 78.1009 77.803 77.7965 78.5094 77.5766L76.7266 71.8477L74.9437 66.1187C73.4626 66.5796 71.9899 67.2024 70.551 67.9959L73.4482 73.25ZM76.7266 71.8477L80.2775 76.6841C80.4132 76.5845 80.5551 76.4825 80.725 76.3605L77.2275 71.4854L73.73 66.6102C73.5648 66.7287 73.3719 66.8671 73.1757 67.0112L76.7266 71.8477ZM77.2275 71.4854H83.2275V71.0488H77.2275H71.2275V71.4854H77.2275ZM77.2275 71.0488L83.2275 71.0775C83.2343 69.651 83.2617 65.0152 83.2617 62.9141H77.2617H71.2617C71.2617 64.9769 71.2346 69.5541 71.2276 71.0201L77.2275 71.0488ZM77.2617 62.9141L83.2617 62.9141C83.2618 42.8853 97.2585 29.0001 113.503 29L113.503 23L113.503 17C89.7227 17.0001 71.2618 37.2043 71.2617 62.914L77.2617 62.9141ZM80.75 153.802L77.3617 158.753L81.4662 161.562L84.8545 156.61L88.2428 151.659L84.1383 148.85L80.75 153.802ZM84.8545 156.61L90.3912 158.922L92.9761 152.732L87.4395 150.42L81.9028 148.108L79.3178 154.298L84.8545 156.61ZM87.4395 150.42L89.6407 144.838C87.5354 144.008 85.5261 143.069 83.623 142.031L80.75 147.299L77.877 152.566C80.2271 153.848 82.6861 154.995 85.2382 156.002L87.4395 150.42ZM80.75 147.299H74.75V153.802H80.75H86.75V147.299H80.75ZM35.3662 99.5967L29.6659 97.7242C29.0645 99.5551 28.7383 101.493 28.7383 103.487H34.7383H40.7383C40.7383 102.808 40.8484 102.133 41.0666 101.469L35.3662 99.5967ZM34.7383 103.487H28.7383V103.589H34.7383H40.7383V103.487H34.7383ZM34.7383 103.589V109.589H36.1104V103.589V97.5889H34.7383V103.589ZM36.1104 103.589L41.5292 101.013C41.4547 100.856 41.4057 100.706 41.3768 100.558L35.4883 101.709L29.5998 102.86C29.8295 104.035 30.2045 105.141 30.6915 106.165L36.1104 103.589ZM35.4883 101.709L41.3768 100.558C41.3462 100.401 41.3354 100.233 41.3494 100.045L35.3662 99.5967L29.383 99.148C29.2925 100.355 29.3537 101.602 29.5997 102.86L35.4883 101.709Z" fill="white" mask="url(#path-1-outside-1_1062_25505)"/>
<path d="M73.4559 73.2572L45.5921 88.6349C38.7921 92.3912 36.8691 100.367 41.8151 104.4C49.5351 110.702 61.786 116.755 75.7664 109.042C87.4432 102.601 91.3447 91.4988 92.2855 81.8765C93.1778 72.8353 82.7946 68.0968 73.449 73.2503L73.4559 73.2572Z" fill="#276286"/>
<path d="M148.065 162.285C148.065 164.803 146.004 166.864 143.486 166.864H131.442C129.533 166.864 127.977 165.308 127.977 163.406V125.491C127.977 123.581 129.533 122.025 131.442 122.025H131.671C133.58 122.025 135.136 123.581 135.136 125.491V159.428L143.486 157.706C144.738 157.706 145.886 158.217 146.723 159.048C147.546 159.878 148.065 161.019 148.065 162.285Z" fill="#474747"/>
<path d="M104.533 128.043L89.9186 163.028C89.1854 164.784 87.1493 165.62 85.3939 164.887L74.2811 160.245C71.9576 159.274 70.8501 156.577 71.8206 154.254C72.3059 153.092 73.2272 152.233 74.3131 151.787C75.3991 151.341 76.6496 151.308 77.8177 151.796L84.8554 156.61L97.939 125.289C98.6723 123.533 100.708 122.697 102.464 123.43L102.681 123.521C104.436 124.254 105.272 126.29 104.539 128.046L104.533 128.043Z" fill="#474747"/>
<path d="M170.366 109.296C170.366 110.209 170.331 111.123 170.283 112.008C170.276 112.084 170.269 112.153 170.269 112.222C169.681 120.738 166.541 128.34 161.491 134.704C155.23 142.611 146.03 148.588 135.135 151.978C132.824 152.711 130.431 153.313 127.975 153.804C124.599 154.475 121.106 154.904 117.516 155.084C116.796 155.125 116.07 155.153 115.344 155.167C114.735 155.174 114.119 155.18 113.504 155.18C112.888 155.18 112.279 155.174 111.671 155.167C107.437 155.07 103.314 154.627 99.3643 153.873C96.9155 153.403 94.522 152.808 92.2115 152.088C81.1642 148.706 71.8532 142.694 65.5236 134.711C65.5236 134.711 65.5236 134.704 65.5167 134.704C60.4531 128.313 57.2987 120.655 56.7384 112.084C56.7384 112.029 56.7314 111.96 56.7245 111.897C56.6761 111.04 56.6484 110.175 56.6484 109.296C56.6484 108.273 56.683 107.256 56.7522 106.253C57.7414 92.2861 65.5029 79.8968 77.2281 71.4851V71.0493C77.235 69.6035 77.2627 64.9964 77.2627 62.9142C77.2627 40.0448 93.4913 23 113.504 23C114.195 23 114.887 23.0138 115.572 23.0692C134.63 24.1898 149.752 40.8403 149.752 62.9142C149.752 65.3976 149.018 70.399 148.666 70.7172C148.749 70.7656 148.825 70.8141 148.887 70.8556C149.496 71.2429 149.779 71.4851 149.779 71.4851C161.505 79.8691 169.259 92.2446 170.255 106.204C170.331 107.228 170.373 108.259 170.373 109.296H170.366Z" fill="#4B9AE8"/>
<path d="M120.411 59.2465C119.982 62.5531 116.33 67.9142 112.539 67.9419C108.748 67.9695 104.743 62.5323 104.556 58.9698C104.369 55.4142 107.033 52.9792 112.691 52.9446C118.412 52.91 120.84 55.9399 120.411 59.2465Z" fill="#EAC00F"/>
<path d="M132.401 59.3725C136.566 59.3725 139.942 55.9967 139.942 51.8324C139.942 47.6681 136.566 44.2922 132.401 44.2922C128.237 44.2922 124.861 47.6681 124.861 51.8324C124.861 55.9967 128.237 59.3725 132.401 59.3725Z" fill="white"/>
<path d="M132.404 55.8514C134.624 55.8514 136.423 54.052 136.423 51.8323C136.423 49.6126 134.624 47.8132 132.404 47.8132C130.184 47.8132 128.385 49.6126 128.385 51.8323C128.385 54.052 130.184 55.8514 132.404 55.8514Z" fill="#040000"/>
<path d="M92.8761 59.3727C97.0404 59.3727 100.416 55.9969 100.416 51.8326C100.416 47.6683 97.0404 44.2925 92.8761 44.2925C88.7118 44.2925 85.3359 47.6683 85.3359 51.8326C85.3359 55.9969 88.7118 59.3727 92.8761 59.3727Z" fill="white"/>
<path d="M92.8765 55.8517C95.0962 55.8517 96.8956 54.0523 96.8956 51.8326C96.8956 49.6129 95.0962 47.8135 92.8765 47.8135C90.6568 47.8135 88.8574 49.6129 88.8574 51.8326C88.8574 54.0523 90.6568 55.8517 92.8765 55.8517Z" fill="#040000"/>
<path d="M144.889 119.607L144.892 119.602C144.892 119.602 144.92 119.609 144.932 119.604C147.259 119.2 149.742 118.573 152.179 117.605C152.295 117.563 152.41 117.512 152.53 117.465C152.762 117.371 152.992 117.269 153.227 117.17C153.602 117.01 153.97 116.829 154.336 116.64C155.067 116.282 155.792 115.882 156.488 115.435C157.792 114.623 159.028 113.68 160.166 112.574C161.225 111.556 162.185 110.406 163.026 109.099C164.099 107.463 164.99 105.575 165.618 103.414C165.955 102.284 166.209 101.064 166.395 99.7664C166.776 97.0658 166.74 94.4976 166.378 92.0685L166.381 92.0639C165.84 88.4744 164.608 85.2006 162.942 82.2425C162.937 82.2385 162.936 82.2299 162.926 82.2219C162.889 82.1463 162.846 82.0666 162.8 81.9916C162.653 81.7366 162.506 81.4816 162.359 81.2266C162.358 81.218 162.343 81.2059 162.338 81.2019C162.182 80.9475 162.018 80.6937 161.857 80.4353C161.84 80.406 161.832 80.3848 161.816 80.3642C160.027 77.6099 157.901 75.1604 155.716 73.0493C155.67 73.0046 155.625 72.9686 155.579 72.9239C154.867 72.251 154.115 71.7283 153.337 71.3203C153.313 71.3089 153.299 71.2969 153.275 71.2854C150.553 69.9009 147.571 70.1101 145.055 71.5516C143.859 72.2313 142.779 73.1941 141.883 74.3964C140.661 76.0331 139.78 78.1115 139.439 80.5489L139.083 83.0739L135.566 107.958C134.624 114.648 139.325 120.545 144.874 119.595L144.889 119.607Z" fill="#276286"/>
<path d="M171.328 177H123.882C120.752 177 118.182 174.463 118.182 171.3V116.901C118.182 113.771 120.719 111.201 123.882 111.201H171.328C174.458 111.201 177.028 113.738 177.028 116.901V171.333C177.028 174.463 174.491 177 171.328 177Z" fill="#F9C23C"/>
<path d="M147.887 91.4443C137.113 91.4443 128.066 99.2707 128.066 109.32V119.451C128.066 120.36 128.804 121.098 129.714 121.098C130.624 121.098 131.361 120.36 131.361 119.451V109.32C131.361 101.431 138.572 94.7392 147.887 94.7392C157.201 94.7392 164.413 101.431 164.413 109.32V119.451C164.413 120.36 165.15 121.098 166.06 121.098C166.97 121.098 167.707 120.36 167.707 119.451V109.32C167.707 99.2707 158.66 91.4443 147.887 91.4443ZM118.182 133.258H177.028V140.935H118.182V133.258ZM118.182 148.051H177.028V155.728H118.182V148.051ZM177.028 162.844H118.182V170.521H177.028V162.844Z" fill="#0074BA"/>
<ellipse cx="147.591" cy="105.882" rx="15.5069" ry="11.2292" fill="#276286"/>
<path d="M75.2903 165.107H28.4597C25.4607 165.107 23 162.677 23 159.63V109.066C23 106.058 25.4223 103.589 28.4597 103.589H75.2903C78.2893 103.589 80.75 106.019 80.75 109.066V159.669C80.75 162.677 78.2893 165.107 75.2903 165.107Z" fill="#F9C23C"/>
<path d="M32.817 115.727C33.8785 115.727 34.7394 114.866 34.7394 113.804V103.487C34.7394 95.6608 42.2027 88.8727 51.9814 88.8727C61.7992 88.8727 69.2229 95.6581 69.2229 103.487V113.804C69.2229 114.866 70.0838 115.727 71.1454 115.727C72.2073 115.727 73.0678 114.866 73.0678 113.804V103.487C73.0678 93.0228 63.3718 85.0278 51.9814 85.0278C40.6363 85.0278 30.8945 93.0201 30.8945 103.487V113.804C30.8945 114.866 31.7554 115.727 32.817 115.727Z" fill="#FF6723"/>
<ellipse cx="46.4791" cy="99.5608" rx="11.1979" ry="9.34986" transform="rotate(-11.0618 46.4791 99.5608)" fill="#276286"/>
</svg>
