<svg width="48" height="48" viewBox="0 0 48 48" fill="none" xmlns="http://www.w3.org/2000/svg">
<mask id="path-1-outside-1_1376_2038" maskUnits="userSpaceOnUse" x="11.5332" y="2.86523" width="27" height="42" fill="black">
<rect fill="white" x="11.5332" y="2.86523" width="27" height="42"/>
<path d="M20.3594 5.11426C20.537 4.82146 21.3835 4.77894 22.333 5.02832C23.3455 5.29426 24.0925 5.79179 24.002 6.13965V6.14062L22.9355 12.415C24.0918 12.5923 25.3241 12.847 26.5908 13.1797C29.4532 13.9315 31.9664 14.943 33.7158 15.9756C34.5889 16.4909 35.283 17.0182 35.7344 17.5293C36.1795 18.0334 36.4283 18.5696 36.2939 19.0811C36.1595 19.5922 35.68 19.9359 35.0449 20.1562C34.8527 20.2229 34.6406 20.2781 34.4111 20.3262C34.3005 20.6059 34.1689 20.9408 34.0303 21.2812C33.8548 21.7121 33.6701 22.1552 33.5127 22.5107C33.4342 22.688 33.3608 22.8453 33.2988 22.9697C33.2408 23.0861 33.1822 23.1955 33.1309 23.2578C33.0916 23.3054 33.0389 23.3431 32.9912 23.3721C32.9828 23.3771 32.9728 23.3797 32.9639 23.3848C32.9626 23.3879 32.9622 23.3914 32.9609 23.3945C32.1268 25.464 31.0121 28.2248 29.8906 30.9873C28.7693 33.7496 27.6413 36.5152 26.7793 38.5947C26.3484 39.6342 25.9837 40.5033 25.7197 41.1152C25.5879 41.4208 25.4797 41.6635 25.4014 41.832C25.3625 41.9157 25.3296 41.9843 25.3037 42.0332C25.2911 42.057 25.2774 42.0809 25.2646 42.1006C25.2586 42.11 25.2497 42.1233 25.2383 42.1367C25.2325 42.1435 25.2226 42.1542 25.21 42.165C25.1993 42.1742 25.1742 42.1941 25.1367 42.207C25.1361 42.2073 25.1339 42.2085 25.1328 42.209C25.1304 42.2099 25.1269 42.2113 25.123 42.2129C25.1151 42.2162 25.1052 42.2202 25.0928 42.2256C25.0679 42.2364 25.0331 42.2516 24.9932 42.2686C24.9121 42.3029 24.8035 42.347 24.667 42.3936C24.3933 42.4869 24.0093 42.5911 23.5049 42.6582C22.495 42.7925 21.0082 42.7774 18.959 42.2393C16.9097 41.701 15.6073 40.9833 14.7939 40.3701C14.3878 40.0639 14.1046 39.7851 13.9121 39.5693C13.816 39.4616 13.7433 39.3695 13.6895 39.2998C13.6631 39.2657 13.6403 39.2353 13.624 39.2139C13.6156 39.2028 13.6089 39.1933 13.6035 39.1865C13.601 39.1833 13.5982 39.1806 13.5967 39.1787L13.5957 39.1768H13.5947C13.5681 39.147 13.5557 39.1167 13.5508 39.1035C13.5451 39.0881 13.5418 39.0743 13.54 39.0654C13.5366 39.0478 13.5349 39.0308 13.5342 39.0195C13.5327 38.9961 13.5325 38.9692 13.5332 38.9424C13.5347 38.8869 13.5397 38.8109 13.5469 38.7188C13.5614 38.5334 13.5878 38.2685 13.623 37.9375C13.6937 37.2748 13.803 36.3385 13.9385 35.2217C14.2095 32.987 14.586 30.024 14.9668 27.0674C15.3477 24.1104 15.7329 21.1585 16.0234 18.9463C16.0239 18.9427 16.0239 18.9391 16.0244 18.9355C16.0192 18.9269 16.0125 18.9195 16.0078 18.9111C15.9805 18.8624 15.9531 18.8031 15.9424 18.7422C15.9285 18.6627 15.9298 18.5389 15.9365 18.4092C15.9437 18.2703 15.9588 18.0973 15.9775 17.9043C16.0152 17.5174 16.072 17.0412 16.1309 16.5801C16.1774 16.2154 16.2255 15.8586 16.2666 15.5605C16.1775 15.4824 16.0933 15.4048 16.0146 15.3271L15.7666 15.2627L15.9199 15.2305C15.8783 15.187 15.837 15.1448 15.7988 15.1016C15.3542 14.5978 15.1064 14.0628 15.2402 13.5518C15.3745 13.0404 15.854 12.695 16.4893 12.4746C17.1335 12.2513 17.9972 12.1331 19.0107 12.1133C19.1041 12.1115 19.1988 12.1105 19.2949 12.1104L20.3262 5.22656C20.3263 5.2262 20.3267 5.22544 20.3271 5.22363L20.333 5.17676L20.3594 5.11426Z"/>
</mask>
<path d="M20.3594 5.11426C20.537 4.82146 21.3835 4.77894 22.333 5.02832C23.3455 5.29426 24.0925 5.79179 24.002 6.13965V6.14062L22.9355 12.415C24.0918 12.5923 25.3241 12.847 26.5908 13.1797C29.4532 13.9315 31.9664 14.943 33.7158 15.9756C34.5889 16.4909 35.283 17.0182 35.7344 17.5293C36.1795 18.0334 36.4283 18.5696 36.2939 19.0811C36.1595 19.5922 35.68 19.9359 35.0449 20.1562C34.8527 20.2229 34.6406 20.2781 34.4111 20.3262C34.3005 20.6059 34.1689 20.9408 34.0303 21.2812C33.8548 21.7121 33.6701 22.1552 33.5127 22.5107C33.4342 22.688 33.3608 22.8453 33.2988 22.9697C33.2408 23.0861 33.1822 23.1955 33.1309 23.2578C33.0916 23.3054 33.0389 23.3431 32.9912 23.3721C32.9828 23.3771 32.9728 23.3797 32.9639 23.3848C32.9626 23.3879 32.9622 23.3914 32.9609 23.3945C32.1268 25.464 31.0121 28.2248 29.8906 30.9873C28.7693 33.7496 27.6413 36.5152 26.7793 38.5947C26.3484 39.6342 25.9837 40.5033 25.7197 41.1152C25.5879 41.4208 25.4797 41.6635 25.4014 41.832C25.3625 41.9157 25.3296 41.9843 25.3037 42.0332C25.2911 42.057 25.2774 42.0809 25.2646 42.1006C25.2586 42.11 25.2497 42.1233 25.2383 42.1367C25.2325 42.1435 25.2226 42.1542 25.21 42.165C25.1993 42.1742 25.1742 42.1941 25.1367 42.207C25.1361 42.2073 25.1339 42.2085 25.1328 42.209C25.1304 42.2099 25.1269 42.2113 25.123 42.2129C25.1151 42.2162 25.1052 42.2202 25.0928 42.2256C25.0679 42.2364 25.0331 42.2516 24.9932 42.2686C24.9121 42.3029 24.8035 42.347 24.667 42.3936C24.3933 42.4869 24.0093 42.5911 23.5049 42.6582C22.495 42.7925 21.0082 42.7774 18.959 42.2393C16.9097 41.701 15.6073 40.9833 14.7939 40.3701C14.3878 40.0639 14.1046 39.7851 13.9121 39.5693C13.816 39.4616 13.7433 39.3695 13.6895 39.2998C13.6631 39.2657 13.6403 39.2353 13.624 39.2139C13.6156 39.2028 13.6089 39.1933 13.6035 39.1865C13.601 39.1833 13.5982 39.1806 13.5967 39.1787L13.5957 39.1768H13.5947C13.5681 39.147 13.5557 39.1167 13.5508 39.1035C13.5451 39.0881 13.5418 39.0743 13.54 39.0654C13.5366 39.0478 13.5349 39.0308 13.5342 39.0195C13.5327 38.9961 13.5325 38.9692 13.5332 38.9424C13.5347 38.8869 13.5397 38.8109 13.5469 38.7188C13.5614 38.5334 13.5878 38.2685 13.623 37.9375C13.6937 37.2748 13.803 36.3385 13.9385 35.2217C14.2095 32.987 14.586 30.024 14.9668 27.0674C15.3477 24.1104 15.7329 21.1585 16.0234 18.9463C16.0239 18.9427 16.0239 18.9391 16.0244 18.9355C16.0192 18.9269 16.0125 18.9195 16.0078 18.9111C15.9805 18.8624 15.9531 18.8031 15.9424 18.7422C15.9285 18.6627 15.9298 18.5389 15.9365 18.4092C15.9437 18.2703 15.9588 18.0973 15.9775 17.9043C16.0152 17.5174 16.072 17.0412 16.1309 16.5801C16.1774 16.2154 16.2255 15.8586 16.2666 15.5605C16.1775 15.4824 16.0933 15.4048 16.0146 15.3271L15.7666 15.2627L15.9199 15.2305C15.8783 15.187 15.837 15.1448 15.7988 15.1016C15.3542 14.5978 15.1064 14.0628 15.2402 13.5518C15.3745 13.0404 15.854 12.695 16.4893 12.4746C17.1335 12.2513 17.9972 12.1331 19.0107 12.1133C19.1041 12.1115 19.1988 12.1105 19.2949 12.1104L20.3262 5.22656C20.3263 5.2262 20.3267 5.22544 20.3271 5.22363L20.333 5.17676L20.3594 5.11426Z" fill="white"/>
<path d="M20.3594 5.11426L19.0768 4.33641C19.039 4.39883 19.0057 4.46394 18.9773 4.53121L20.3594 5.11426ZM22.333 5.02832L22.7141 3.57753L22.7141 3.57753L22.333 5.02832ZM24.002 6.13965L22.5504 5.76166C22.5182 5.88508 22.502 6.01211 22.502 6.13965L24.002 6.13965ZM24.002 6.14062L25.4807 6.39196C25.4949 6.30893 25.502 6.22485 25.502 6.14063L24.002 6.14062ZM22.9355 12.415L21.4568 12.1637C21.3894 12.5601 21.484 12.9669 21.7192 13.2929C21.9545 13.6189 22.3108 13.8368 22.7082 13.8977L22.9355 12.415ZM26.5908 13.1797L26.9719 11.7289L26.9719 11.7289L26.5908 13.1797ZM33.7158 15.9756L34.4783 14.6838L34.4782 14.6838L33.7158 15.9756ZM35.7344 17.5293L36.8588 16.5365L36.8587 16.5364L35.7344 17.5293ZM36.2939 19.0811L37.7446 19.4627L37.7447 19.4621L36.2939 19.0811ZM35.0449 20.1562L35.5364 21.5734L35.5365 21.5734L35.0449 20.1562ZM34.4111 20.3262L34.1034 18.8581C33.6102 18.9615 33.2018 19.3056 33.0164 19.7742L34.4111 20.3262ZM34.0303 21.2812L35.4195 21.8469L35.4195 21.8469L34.0303 21.2812ZM33.5127 22.5107L34.8843 23.118L34.8843 23.118L33.5127 22.5107ZM33.2988 22.9697L34.6413 23.6388L34.6414 23.6387L33.2988 22.9697ZM33.1309 23.2578L34.2873 24.2132L34.2882 24.212L33.1309 23.2578ZM32.9912 23.3721L33.769 24.6546L33.7696 24.6543L32.9912 23.3721ZM32.9639 23.3848L32.2235 22.0802C31.9287 22.2475 31.6993 22.5097 31.5726 22.824L32.9639 23.3848ZM32.9609 23.3945L34.3522 23.9553L34.3522 23.9553L32.9609 23.3945ZM29.8906 30.9873L31.2805 31.5515L31.2805 31.5515L29.8906 30.9873ZM26.7793 38.5947L28.165 39.1691L28.165 39.1691L26.7793 38.5947ZM25.7197 41.1152L27.097 41.7095L27.097 41.7095L25.7197 41.1152ZM25.4014 41.832L26.7617 42.4642L26.7617 42.4642L25.4014 41.832ZM25.3037 42.0332L26.6296 42.7346L26.63 42.7339L25.3037 42.0332ZM25.2646 42.1006L26.5234 42.9164L26.5242 42.9152L25.2646 42.1006ZM25.2383 42.1367L26.3805 43.109L26.381 43.1084L25.2383 42.1367ZM25.21 42.165L26.1839 43.3058L26.1867 43.3035L25.21 42.165ZM25.1367 42.207L24.6476 40.789C24.6266 40.7963 24.6058 40.804 24.5851 40.8121L25.1367 42.207ZM25.1328 42.209L25.6558 43.6148C25.6621 43.6125 25.6684 43.6101 25.6746 43.6077L25.1328 42.209ZM25.123 42.2129L24.5509 40.8263L24.5497 40.8268L25.123 42.2129ZM25.0928 42.2256L24.4962 40.8493L24.4962 40.8493L25.0928 42.2256ZM24.9932 42.2686L25.5781 43.6498L25.5782 43.6498L24.9932 42.2686ZM24.667 42.3936L25.1513 43.8132L25.1515 43.8132L24.667 42.3936ZM23.5049 42.6582L23.7026 44.1451L23.7027 44.1451L23.5049 42.6582ZM18.959 42.2393L18.5779 43.6901L18.578 43.6901L18.959 42.2393ZM14.7939 40.3701L13.8909 41.5678L13.891 41.5679L14.7939 40.3701ZM13.9121 39.5693L12.7928 40.5679L12.7929 40.568L13.9121 39.5693ZM13.6895 39.2998L12.502 40.2164L12.5021 40.2165L13.6895 39.2998ZM13.624 39.2139L14.8182 38.3062L14.8181 38.3061L13.624 39.2139ZM13.6035 39.1865L14.7808 38.257C14.7778 38.2533 14.7749 38.2495 14.7719 38.2459L13.6035 39.1865ZM13.5967 39.1787L12.255 39.8495C12.3059 39.9513 12.3682 40.047 12.4407 40.1346L13.5967 39.1787ZM13.5957 39.1768L14.9373 38.5059C14.6833 37.9978 14.1639 37.6768 13.5957 37.6768V39.1768ZM13.5947 39.1768L12.4771 40.1772C12.7616 40.4951 13.1681 40.6768 13.5947 40.6768V39.1768ZM13.5508 39.1035L12.1428 39.6209L12.1434 39.6225L13.5508 39.1035ZM13.54 39.0654L12.0683 39.3553L12.0691 39.3592L13.54 39.0654ZM13.5342 39.0195L12.037 39.112L12.0371 39.1128L13.5342 39.0195ZM13.5332 38.9424L12.0337 38.9027L12.0337 38.903L13.5332 38.9424ZM13.5469 38.7188L12.0515 38.6016L12.0515 38.6016L13.5469 38.7188ZM13.623 37.9375L12.1315 37.7786L12.1315 37.7786L13.623 37.9375ZM13.9385 35.2217L12.4494 35.0411L12.4494 35.0411L13.9385 35.2217ZM14.9668 27.0674L13.4791 26.8758L13.4791 26.8758L14.9668 27.0674ZM16.0234 18.9463L14.5362 18.751L14.5362 18.751L16.0234 18.9463ZM16.0244 18.9355L17.5116 19.1309C17.5559 18.7942 17.4845 18.4525 17.3093 18.1616L16.0244 18.9355ZM16.0078 18.9111L14.6996 19.6451L14.6999 19.6456L16.0078 18.9111ZM15.9424 18.7422L14.4646 18.9996L14.4653 19.0033L15.9424 18.7422ZM15.9365 18.4092L14.4385 18.3318L14.4385 18.3319L15.9365 18.4092ZM15.9775 17.9043L14.4846 17.7591L14.4846 17.7591L15.9775 17.9043ZM16.1309 16.5801L14.6429 16.3901L14.6429 16.3901L16.1309 16.5801ZM16.2666 15.5605L17.7525 15.7656C17.8214 15.2661 17.6348 14.7655 17.2558 14.433L16.2666 15.5605ZM16.0146 15.3271L17.0688 14.26C16.881 14.0745 16.6475 13.9418 16.3919 13.8754L16.0146 15.3271ZM15.7666 15.2627L15.4581 13.7948C14.7766 13.938 14.2834 14.5313 14.267 15.2274C14.2506 15.9235 14.7154 16.5394 15.3894 16.7145L15.7666 15.2627ZM15.9199 15.2305L16.2285 16.6984C16.7616 16.5863 17.1921 16.194 17.353 15.6735C17.5139 15.153 17.38 14.5862 17.0031 14.1928L15.9199 15.2305ZM15.7988 15.1016L14.6742 16.0942L14.6744 16.0943L15.7988 15.1016ZM15.2402 13.5518L13.7894 13.1707L13.7892 13.1717L15.2402 13.5518ZM16.4893 12.4746L15.9979 11.0574L15.9977 11.0575L16.4893 12.4746ZM19.0107 12.1133L18.9815 10.6136L18.9814 10.6136L19.0107 12.1133ZM19.2949 12.1104L19.2974 13.6103C20.039 13.6091 20.6685 13.0661 20.7784 12.3326L19.2949 12.1104ZM20.3262 5.22656L18.8754 4.84552C18.8616 4.89783 18.8507 4.95084 18.8427 5.00433L20.3262 5.22656ZM20.3271 5.22363L21.7779 5.60468C21.7948 5.54058 21.8073 5.47544 21.8156 5.40968L20.3271 5.22363ZM20.333 5.17676L18.951 4.59371C18.8975 4.72053 18.8617 4.85412 18.8446 4.99071L20.333 5.17676ZM20.3594 5.11426L21.6419 5.89211C21.5305 6.07586 21.3969 6.19021 21.3025 6.25474C21.2092 6.31848 21.1337 6.34799 21.0999 6.35967C21.0386 6.38092 21.0369 6.37043 21.125 6.36642C21.2944 6.3587 21.5894 6.38388 21.952 6.47912L22.333 5.02832L22.7141 3.57753C22.1271 3.42337 21.5241 3.34513 20.9885 3.36952C20.7241 3.38157 20.4181 3.42102 20.1183 3.5248C19.8472 3.61868 19.3809 3.83504 19.0768 4.33641L20.3594 5.11426ZM22.333 5.02832L21.952 6.47911C22.342 6.58155 22.619 6.71472 22.7497 6.80176C22.8215 6.84954 22.7818 6.8386 22.7121 6.7436C22.6519 6.66154 22.4126 6.29076 22.5504 5.76166L24.002 6.13965L25.4535 6.51764C25.6366 5.81461 25.3379 5.25119 25.1315 4.9697C24.9156 4.67527 24.6428 4.4581 24.4126 4.30477C23.9393 3.9896 23.3366 3.74104 22.7141 3.57753L22.333 5.02832ZM24.002 6.13965H22.502V6.14062H24.002H25.502V6.13965H24.002ZM24.002 6.14062L22.5232 5.88929L21.4568 12.1637L22.9355 12.415L24.4143 12.6664L25.4807 6.39196L24.002 6.14062ZM22.9355 12.415L22.7082 13.8977C23.8105 14.0667 24.9915 14.3105 26.2098 14.6305L26.5908 13.1797L26.9719 11.7289C25.6567 11.3835 24.3731 11.1179 23.1629 10.9324L22.9355 12.415ZM26.5908 13.1797L26.2098 14.6305C28.9775 15.3574 31.3536 16.3232 32.9534 17.2674L33.7158 15.9756L34.4782 14.6838C32.5791 13.5629 29.9289 12.5056 26.9719 11.7289L26.5908 13.1797ZM33.7158 15.9756L32.9534 17.2674C33.7607 17.7438 34.3055 18.1774 34.61 18.5222L35.7344 17.5293L36.8587 16.5364C36.2604 15.8589 35.4172 15.238 34.4783 14.6838L33.7158 15.9756ZM35.7344 17.5293L34.6099 18.5221C34.6806 18.6021 34.7329 18.6716 34.7702 18.7291C34.8077 18.7869 34.8254 18.8253 34.8326 18.844C34.8396 18.8619 34.8341 18.8543 34.8315 18.8246C34.8287 18.7924 34.8305 18.7481 34.8432 18.7L36.2939 19.0811L37.7447 19.4621C38.0743 18.2074 37.4053 17.1554 36.8588 16.5365L35.7344 17.5293ZM36.2939 19.0811L34.8433 18.6995C34.8559 18.6515 34.8761 18.612 34.8945 18.5851C34.9115 18.5604 34.9201 18.5563 34.9054 18.5683C34.8901 18.5809 34.8559 18.6056 34.7949 18.6375C34.7341 18.6692 34.6544 18.704 34.5533 18.7391L35.0449 20.1562L35.5365 21.5734C36.3155 21.3032 37.4146 20.717 37.7446 19.4627L36.2939 19.0811ZM35.0449 20.1562L34.5534 18.7391C34.4391 18.7787 34.2921 18.8185 34.1034 18.8581L34.4111 20.3262L34.7189 21.7943C34.989 21.7376 35.2664 21.6671 35.5364 21.5734L35.0449 20.1562ZM34.4111 20.3262L33.0164 19.7742C32.9039 20.0586 32.776 20.3839 32.641 20.7156L34.0303 21.2812L35.4195 21.8469C35.5617 21.4976 35.6971 21.1532 35.8059 20.8781L34.4111 20.3262ZM34.0303 21.2812L32.641 20.7156C32.4677 21.1413 32.2895 21.5684 32.1411 21.9035L33.5127 22.5107L34.8843 23.118C35.0507 22.7421 35.242 22.2829 35.4195 21.8469L34.0303 21.2812ZM33.5127 22.5107L32.1411 21.9035C32.0689 22.0666 32.0053 22.2023 31.9563 22.3007L33.2988 22.9697L34.6414 23.6387C34.7163 23.4884 34.7995 23.3095 34.8843 23.118L33.5127 22.5107ZM33.2988 22.9697L31.9563 22.3007C31.9448 22.3238 31.935 22.343 31.9266 22.3591C31.918 22.3754 31.9124 22.3857 31.9092 22.3912C31.9077 22.3938 31.9074 22.3943 31.9081 22.3931C31.9088 22.392 31.9112 22.3881 31.9151 22.382C31.919 22.3761 31.9255 22.3665 31.9344 22.3541C31.9433 22.3418 31.9563 22.3245 31.9735 22.3036L33.1309 23.2578L34.2882 24.212C34.4671 23.995 34.5977 23.7264 34.6413 23.6388L33.2988 22.9697ZM33.1309 23.2578L31.9745 22.3024C32.0383 22.2252 32.0975 22.174 32.134 22.1451C32.1715 22.1155 32.2006 22.0973 32.2128 22.0898L32.9912 23.3721L33.7696 24.6543C33.8743 24.5908 34.0916 24.45 34.2873 24.2132L33.1309 23.2578ZM32.9912 23.3721L32.2134 22.0895C32.2453 22.0702 32.2742 22.0543 32.2988 22.0416C32.3233 22.0289 32.3445 22.0188 32.361 22.0113C32.3773 22.0038 32.3905 21.9982 32.3985 21.9948C32.4026 21.9931 32.4059 21.9917 32.408 21.9909C32.409 21.9904 32.4099 21.9901 32.4104 21.9899C32.4106 21.9898 32.4109 21.9897 32.411 21.9896C32.4111 21.9896 32.4112 21.9895 32.4112 21.9895C32.412 21.9892 32.4096 21.9902 32.4083 21.9907C32.4064 21.9915 32.4032 21.9928 32.3993 21.9944C32.3917 21.9976 32.3789 22.0029 32.3633 22.0098C32.3476 22.0168 32.3274 22.026 32.3042 22.0375C32.2809 22.049 32.2535 22.0632 32.2235 22.0802L32.9639 23.3848L33.7043 24.6893C33.6495 24.7204 33.604 24.7414 33.5781 24.7529C33.5649 24.7587 33.5544 24.7631 33.5491 24.7653C33.5449 24.7671 33.5403 24.7689 33.5443 24.7673C33.5459 24.7667 33.554 24.7633 33.5639 24.7592C33.5742 24.7548 33.5898 24.7482 33.6083 24.7397C33.6446 24.7231 33.7021 24.6952 33.769 24.6546L32.9912 23.3721ZM32.9639 23.3848L31.5726 22.824C31.5596 22.8563 31.5492 22.8853 31.5409 22.91C31.5327 22.9347 31.5263 22.956 31.5215 22.9726C31.5168 22.989 31.5132 23.0025 31.511 23.0107C31.51 23.0149 31.5091 23.0184 31.5085 23.0205C31.5082 23.0217 31.508 23.0226 31.5079 23.0232C31.5077 23.0237 31.5076 23.0242 31.5076 23.0242C31.5075 23.0247 31.5078 23.0234 31.5082 23.0218C31.5087 23.02 31.5094 23.017 31.5104 23.0131C31.5124 23.0057 31.5157 22.9931 31.5202 22.9774C31.5247 22.9617 31.5309 22.9412 31.5389 22.9174C31.5469 22.8935 31.557 22.8652 31.5697 22.8338L32.9609 23.3945L34.3522 23.9553C34.3652 23.9231 34.3756 23.894 34.3839 23.8693C34.3921 23.8447 34.3985 23.8234 34.4033 23.8068C34.408 23.7903 34.4116 23.7769 34.4137 23.7686C34.4148 23.7644 34.4157 23.7609 34.4163 23.7588C34.4166 23.7577 34.4168 23.7567 34.4169 23.7561C34.4171 23.7556 34.4172 23.7551 34.4172 23.7551C34.4173 23.7546 34.417 23.7559 34.4166 23.7575C34.4162 23.7593 34.4154 23.7623 34.4144 23.7661C34.4125 23.7735 34.4091 23.7861 34.4046 23.8018C34.4001 23.8175 34.3939 23.8381 34.3859 23.8619C34.3779 23.8858 34.3678 23.9141 34.3551 23.9455L32.9639 23.3848ZM32.9609 23.3945L31.5697 22.8338C30.7358 24.9026 29.6216 27.6622 28.5008 30.4231L29.8906 30.9873L31.2805 31.5515C32.4025 28.7875 33.5178 26.0254 34.3522 23.9553L32.9609 23.3945ZM29.8906 30.9873L28.5008 30.4231C27.3797 33.1848 26.2534 35.9462 25.3936 38.0203L26.7793 38.5947L28.165 39.1691C29.0292 37.0842 30.1589 34.3143 31.2805 31.5515L29.8906 30.9873ZM26.7793 38.5947L25.3936 38.0203C24.9634 39.0583 24.6021 39.9193 24.3425 40.521L25.7197 41.1152L27.097 41.7095C27.3654 41.0874 27.7334 40.2101 28.165 39.1691L26.7793 38.5947ZM25.7197 41.1152L24.3425 40.521C24.2136 40.8196 24.1114 41.0486 24.0411 41.1999L25.4014 41.832L26.7617 42.4642C26.848 42.2785 26.9621 42.022 27.097 41.7095L25.7197 41.1152ZM25.4014 41.832L24.0411 41.1999C24.0032 41.2813 23.984 41.32 23.9774 41.3325L25.3037 42.0332L26.63 42.7339C26.6751 42.6485 26.7218 42.55 26.7617 42.4642L25.4014 41.832ZM25.3037 42.0332L23.9778 41.3318C23.9798 41.3281 23.9823 41.3234 23.9858 41.3173C23.9891 41.3118 23.9955 41.3009 24.0051 41.2859L25.2646 42.1006L26.5242 42.9152C26.5666 42.8496 26.6024 42.786 26.6296 42.7346L25.3037 42.0332ZM25.2646 42.1006L24.0059 41.2848C24.0089 41.2802 24.0423 41.2276 24.0956 41.165L25.2383 42.1367L26.381 43.1084C26.457 43.019 26.5082 42.9398 26.5234 42.9164L25.2646 42.1006ZM25.2383 42.1367L24.0961 41.1644C24.1299 41.1247 24.1747 41.0768 24.2332 41.0266L25.21 42.165L26.1867 43.3035C26.2705 43.2316 26.3351 43.1624 26.3805 43.109L25.2383 42.1367ZM25.21 42.165L24.236 41.0242C24.2946 40.9742 24.4346 40.8625 24.6476 40.789L25.1367 42.207L25.6258 43.625C25.9137 43.5257 26.1039 43.3741 26.1839 43.3058L25.21 42.165ZM25.1367 42.207L24.5851 40.8121C24.5695 40.8183 24.5559 40.824 24.5449 40.8287C24.5339 40.8334 24.5242 40.8378 24.5161 40.8414C24.5003 40.8486 24.4874 40.8548 24.4784 40.8592C24.4691 40.8637 24.4614 40.8676 24.4558 40.8705C24.4501 40.8734 24.4453 40.8758 24.4419 40.8776C24.4355 40.881 24.4304 40.8837 24.4293 40.8843C24.4286 40.8847 24.4278 40.8851 24.4281 40.8849C24.4281 40.8849 24.4288 40.8845 24.4297 40.8841C24.4314 40.8832 24.4356 40.8809 24.4409 40.8781C24.4462 40.8754 24.4545 40.8711 24.4648 40.866C24.4701 40.8634 24.4763 40.8603 24.4834 40.8569C24.4904 40.8535 24.4988 40.8495 24.5084 40.8452C24.5179 40.8408 24.5294 40.8356 24.5426 40.83C24.5557 40.8244 24.572 40.8176 24.591 40.8103L25.1328 42.209L25.6746 43.6077C25.6937 43.6003 25.7102 43.5935 25.7235 43.5878C25.7368 43.5821 25.7485 43.5768 25.7582 43.5724C25.7679 43.568 25.7765 43.5639 25.7837 43.5604C25.791 43.5569 25.7974 43.5538 25.8028 43.5511C25.8134 43.5458 25.8221 43.5413 25.8278 43.5383C25.8336 43.5353 25.8381 43.5329 25.8402 43.5318C25.8413 43.5312 25.8421 43.5308 25.8423 43.5307C25.8428 43.5304 25.8422 43.5307 25.8417 43.531C25.841 43.5314 25.8362 43.5339 25.8301 43.5371C25.8268 43.5389 25.8222 43.5412 25.8166 43.5441C25.8112 43.5469 25.8036 43.5507 25.7944 43.5551C25.7856 43.5595 25.7727 43.5656 25.757 43.5727C25.749 43.5764 25.7394 43.5807 25.7284 43.5854C25.7175 43.5901 25.7039 43.5958 25.6883 43.6019L25.1367 42.207ZM25.1328 42.209L24.6098 40.8031C24.5794 40.8144 24.5531 40.8254 24.5509 40.8263L25.123 42.2129L25.6952 43.5995C25.6947 43.5997 25.6917 43.6009 25.6872 43.6027C25.6848 43.6037 25.6811 43.6052 25.6765 43.607C25.6722 43.6087 25.6649 43.6115 25.6558 43.6148L25.1328 42.209ZM25.123 42.2129L24.5497 40.8268C24.5488 40.8272 24.5486 40.8272 24.545 40.8287C24.5422 40.8299 24.538 40.8316 24.5333 40.8336C24.5235 40.8376 24.5109 40.8429 24.4962 40.8493L25.0928 42.2256L25.6893 43.6019C25.6871 43.6028 25.6856 43.6034 25.6859 43.6033C25.6862 43.6032 25.6868 43.603 25.6885 43.6023C25.6897 43.6017 25.6899 43.6017 25.6916 43.601C25.6928 43.6005 25.6945 43.5998 25.6964 43.599L25.123 42.2129ZM25.0928 42.2256L24.4962 40.8493C24.4641 40.8632 24.4404 40.8737 24.4081 40.8873L24.9932 42.2686L25.5782 43.6498C25.6258 43.6296 25.6716 43.6095 25.6893 43.6019L25.0928 42.2256ZM24.9932 42.2686L24.4082 40.8873C24.3478 40.9129 24.2744 40.9426 24.1825 40.974L24.667 42.3936L25.1515 43.8132C25.3326 43.7513 25.4763 43.6929 25.5781 43.6498L24.9932 42.2686ZM24.667 42.3936L24.1826 40.9739C23.9949 41.0379 23.7069 41.1181 23.3071 41.1713L23.5049 42.6582L23.7027 44.1451C24.3117 44.0641 24.7916 43.9359 25.1513 43.8132L24.667 42.3936ZM23.5049 42.6582L23.3072 41.1713C22.5095 41.2774 21.2196 41.2821 19.34 40.7885L18.959 42.2393L18.578 43.6901C20.7967 44.2727 22.4806 44.3076 23.7026 44.1451L23.5049 42.6582ZM18.959 42.2393L19.34 40.7885C17.4604 40.2948 16.3394 39.6567 15.6969 39.1723L14.7939 40.3701L13.891 41.5679C14.8753 42.3099 16.359 43.1072 18.5779 43.6901L18.959 42.2393ZM14.7939 40.3701L15.697 39.1724C15.3743 38.9291 15.1628 38.718 15.0314 38.5707L13.9121 39.5693L12.7929 40.568C13.0464 40.8522 13.4014 41.1987 13.8909 41.5678L14.7939 40.3701ZM13.9121 39.5693L15.0314 38.5708C14.9685 38.5002 14.9198 38.4389 14.8768 38.3831L13.6895 39.2998L12.5021 40.2165C12.5667 40.3002 12.6636 40.4231 12.7928 40.5679L13.9121 39.5693ZM13.6895 39.2998L14.8769 38.3833C14.8673 38.3708 14.8578 38.3584 14.8481 38.3456C14.8432 38.3391 14.8385 38.333 14.8335 38.3264C14.8288 38.3201 14.8234 38.313 14.8182 38.3062L13.624 39.2139L12.4298 40.1216C12.439 40.1337 12.4713 40.1766 12.502 40.2164L13.6895 39.2998ZM13.624 39.2139L14.8181 38.3061C14.8212 38.3102 14.8241 38.314 14.8186 38.3066C14.8168 38.3042 14.8121 38.2979 14.8067 38.2907C14.8013 38.2835 14.7922 38.2714 14.7808 38.257L13.6035 39.1865L12.4263 40.1161C12.4217 40.1103 12.4179 40.1054 12.4152 40.1019C12.4124 40.0983 12.4103 40.0954 12.4089 40.0936C12.4075 40.0917 12.4066 40.0905 12.4063 40.0901C12.406 40.0897 12.406 40.0897 12.4066 40.0906C12.4068 40.0907 12.4086 40.0932 12.4095 40.0944C12.4108 40.0962 12.4125 40.0985 12.4145 40.1011C12.4184 40.1064 12.4237 40.1135 12.4299 40.1217L13.624 39.2139ZM13.6035 39.1865L14.7719 38.2459C14.7564 38.2266 14.7429 38.2108 14.7331 38.1995C14.7234 38.1883 14.7155 38.1796 14.7122 38.176C14.7108 38.1745 14.7091 38.1725 14.7097 38.1732C14.7098 38.1733 14.7103 38.1738 14.7109 38.1746C14.7116 38.1753 14.7127 38.1765 14.714 38.178C14.7165 38.1808 14.7212 38.186 14.7271 38.1928C14.7329 38.1994 14.7419 38.2098 14.7526 38.2228L13.5967 39.1787L12.4407 40.1346C12.4519 40.1481 12.4612 40.159 12.4675 40.1661C12.4738 40.1734 12.479 40.1792 12.482 40.1825C12.485 40.1859 12.4875 40.1885 12.4879 40.1891C12.4892 40.1904 12.488 40.1891 12.4872 40.1883C12.4851 40.186 12.4785 40.1787 12.4701 40.169C12.4615 40.1591 12.4493 40.1449 12.4351 40.1272L13.6035 39.1865ZM13.5967 39.1787L14.9383 38.5079L14.9373 38.5059L13.5957 39.1768L12.2541 39.8476L12.255 39.8495L13.5967 39.1787ZM13.5957 39.1768V37.6768H13.5947V39.1768V40.6768H13.5957V39.1768ZM13.5947 39.1768L14.7124 38.1763C14.8635 38.3451 14.9313 38.5116 14.9582 38.5846L13.5508 39.1035L12.1434 39.6225C12.1801 39.7219 12.2727 39.9489 12.4771 40.1772L13.5947 39.1768ZM13.5508 39.1035L14.9587 38.5861C14.9865 38.6616 15.0019 38.7261 15.011 38.7717L13.54 39.0654L12.0691 39.3592C12.0817 39.4224 12.1037 39.5145 12.1428 39.6209L13.5508 39.1035ZM13.54 39.0654L15.0118 38.7756C15.0186 38.8101 15.0227 38.8392 15.0254 38.8614C15.0281 38.8838 15.03 38.9053 15.0313 38.9262L13.5342 39.0195L12.0371 39.1128C12.0407 39.171 12.0488 39.2564 12.0683 39.3553L13.54 39.0654ZM13.5342 39.0195L15.0313 38.9271C15.0324 38.9447 15.0327 38.9576 15.0328 38.9648C15.0329 38.9724 15.0328 38.978 15.0327 38.9817L13.5332 38.9424L12.0337 38.903C12.0322 38.9609 12.0322 39.0335 12.037 39.112L13.5342 39.0195ZM13.5332 38.9424L15.0327 38.9821C15.033 38.9684 15.0353 38.9257 15.0423 38.8359L13.5469 38.7188L12.0515 38.6016C12.0441 38.6961 12.0363 38.8055 12.0337 38.9027L13.5332 38.9424ZM13.5469 38.7188L15.0423 38.8359C15.055 38.6734 15.0794 38.4267 15.1146 38.0964L13.623 37.9375L12.1315 37.7786C12.0961 38.1102 12.0678 38.3935 12.0515 38.6016L13.5469 38.7188ZM13.623 37.9375L15.1146 38.0964C15.184 37.4449 15.2923 36.5173 15.4276 35.4023L13.9385 35.2217L12.4494 35.0411C12.3137 36.1596 12.2033 37.1047 12.1315 37.7786L13.623 37.9375ZM13.9385 35.2217L15.4276 35.4023C15.6979 33.1734 16.0738 30.215 16.4545 27.259L14.9668 27.0674L13.4791 26.8758C13.0982 29.8331 12.7211 32.8006 12.4494 35.0411L13.9385 35.2217ZM14.9668 27.0674L16.4545 27.259C16.8352 24.3035 17.2202 21.3529 17.5107 19.1416L16.0234 18.9463L14.5362 18.751C14.2455 20.9641 13.8602 23.9173 13.4791 26.8758L14.9668 27.0674ZM16.0234 18.9463L17.5107 19.1416C17.5146 19.1116 17.5169 19.0871 17.5182 19.072C17.5189 19.0642 17.5194 19.0579 17.5197 19.0539C17.5198 19.0518 17.5199 19.0501 17.52 19.049C17.5201 19.048 17.5202 19.047 17.5202 19.0469C17.5202 19.046 17.5201 19.0484 17.5199 19.0512C17.5196 19.0543 17.5192 19.0597 17.5186 19.0666C17.5175 19.0799 17.5153 19.1027 17.5116 19.1309L16.0244 18.9355L14.5372 18.7402C14.5332 18.7702 14.5309 18.7947 14.5296 18.8099C14.529 18.8176 14.5285 18.824 14.5282 18.828C14.528 18.83 14.5279 18.8317 14.5278 18.8328C14.5277 18.8339 14.5277 18.8348 14.5277 18.8349C14.5276 18.8358 14.5278 18.8335 14.528 18.8307C14.5282 18.8275 14.5286 18.8221 14.5292 18.8152C14.5304 18.8019 14.5325 18.7791 14.5362 18.751L16.0234 18.9463ZM16.0244 18.9355L17.3093 18.1616C17.2964 18.1402 17.2845 18.1215 17.2741 18.1058C17.2638 18.0902 17.2547 18.077 17.2476 18.0669C17.2406 18.0569 17.2348 18.0489 17.2313 18.0442C17.2296 18.0418 17.2282 18.0398 17.2274 18.0387C17.227 18.0381 17.2266 18.0376 17.2264 18.0374C17.2262 18.0371 17.2262 18.0371 17.2262 18.0371C17.2263 18.0372 17.227 18.0382 17.228 18.0396C17.229 18.041 17.2306 18.0432 17.2326 18.046C17.2365 18.0514 17.2428 18.0603 17.2504 18.0714C17.258 18.0826 17.2677 18.0971 17.2787 18.1145C17.2896 18.1318 17.3022 18.1527 17.3157 18.1767L16.0078 18.9111L14.6999 19.6456C14.7288 19.697 14.7554 19.7374 14.7729 19.7632C14.7895 19.7875 14.804 19.8071 14.8056 19.8094C14.8082 19.8129 14.8061 19.81 14.8049 19.8083C14.8029 19.8056 14.7986 19.7996 14.793 19.7916C14.7821 19.7761 14.7623 19.7473 14.7395 19.7095L16.0244 18.9355ZM16.0078 18.9111L17.316 18.1772C17.3241 18.1916 17.3406 18.2223 17.3585 18.2666C17.376 18.3096 17.4021 18.3829 17.4195 18.4811L15.9424 18.7422L14.4653 19.0033C14.5186 19.3048 14.6376 19.5346 14.6996 19.6451L16.0078 18.9111ZM15.9424 18.7422L17.4201 18.4847C17.4243 18.5086 17.4268 18.5278 17.4283 18.5411C17.4298 18.5547 17.4307 18.5648 17.4311 18.571C17.4315 18.5773 17.4317 18.5812 17.4317 18.5822C17.4317 18.5832 17.4317 18.5824 17.4317 18.5795C17.4316 18.5734 17.4317 18.5623 17.4321 18.5456C17.4326 18.5291 17.4333 18.5094 17.4345 18.4864L15.9365 18.4092L14.4385 18.3319C14.4325 18.4494 14.418 18.7321 14.4646 18.9996L15.9424 18.7422ZM15.9365 18.4092L17.4345 18.4866C17.4398 18.3838 17.452 18.2394 17.4705 18.0495L15.9775 17.9043L14.4846 17.7591C14.4655 17.9552 14.4476 18.1568 14.4385 18.3318L15.9365 18.4092ZM15.9775 17.9043L17.4705 18.0495C17.506 17.6848 17.5606 17.2259 17.6188 16.77L16.1309 16.5801L14.6429 16.3901C14.5834 16.8566 14.5244 17.35 14.4846 17.7591L15.9775 17.9043ZM16.1309 16.5801L17.6188 16.7701C17.6645 16.4117 17.7119 16.0601 17.7525 15.7656L16.2666 15.5605L14.7807 15.3555C14.7391 15.6571 14.6903 16.0191 14.6429 16.3901L16.1309 16.5801ZM16.2666 15.5605L17.2558 14.433C17.1838 14.3698 17.122 14.3126 17.0688 14.26L16.0146 15.3271L14.9605 16.3943C15.0646 16.4971 15.1713 16.595 15.2774 16.6881L16.2666 15.5605ZM16.0146 15.3271L16.3919 13.8754L16.1438 13.8109L15.7666 15.2627L15.3894 16.7145L15.6374 16.7789L16.0146 15.3271ZM15.7666 15.2627L16.0751 16.7306L16.2285 16.6984L15.9199 15.2305L15.6114 13.7625L15.4581 13.7948L15.7666 15.2627ZM15.9199 15.2305L17.0031 14.1928C16.9456 14.1328 16.9353 14.1224 16.9233 14.1088L15.7988 15.1016L14.6744 16.0943C14.7388 16.1673 14.8109 16.2411 14.8368 16.2681L15.9199 15.2305ZM15.7988 15.1016L16.9234 14.109C16.8529 14.029 16.8007 13.9597 16.7636 13.9024C16.7262 13.8449 16.7087 13.8067 16.7016 13.7883C16.6948 13.7706 16.7002 13.7783 16.7028 13.808C16.7056 13.8402 16.7038 13.8842 16.6913 13.9318L15.2402 13.5518L13.7892 13.1717C13.461 14.4247 14.1275 15.4747 14.6742 16.0942L15.7988 15.1016ZM15.2402 13.5518L16.691 13.9328C16.6785 13.9805 16.6585 14.0197 16.6404 14.0461C16.6237 14.0705 16.6153 14.0744 16.6301 14.0622C16.6668 14.032 16.7707 13.9647 16.9808 13.8918L16.4893 12.4746L15.9977 11.0575C15.2155 11.3288 14.1186 11.9175 13.7894 13.1707L15.2402 13.5518ZM16.4893 12.4746L16.9806 13.8918C17.4152 13.7412 18.1029 13.6313 19.0401 13.613L19.0107 12.1133L18.9814 10.6136C17.8915 10.6349 16.8518 10.7613 15.9979 11.0574L16.4893 12.4746ZM19.0107 12.1133L19.04 13.613C19.1238 13.6114 19.2096 13.6105 19.2974 13.6103L19.2949 12.1104L19.2925 10.6104C19.1881 10.6105 19.0844 10.6116 18.9815 10.6136L19.0107 12.1133ZM19.2949 12.1104L20.7784 12.3326L21.8096 5.4488L20.3262 5.22656L18.8427 5.00433L17.8115 11.8881L19.2949 12.1104ZM20.3262 5.22656L21.777 5.6076C21.7686 5.63932 21.7606 5.66584 21.7543 5.68545C21.7479 5.70521 21.7422 5.72158 21.738 5.73317C21.7338 5.74486 21.7303 5.75435 21.7279 5.76045C21.7256 5.76658 21.7237 5.7714 21.7228 5.77365C21.722 5.77573 21.7213 5.77765 21.7215 5.77699C21.7215 5.77695 21.7222 5.77532 21.723 5.77332C21.7247 5.76892 21.7276 5.76152 21.731 5.75229C21.7345 5.74299 21.7384 5.73236 21.7425 5.72058C21.7466 5.70882 21.7508 5.69648 21.7549 5.68357C21.7633 5.65756 21.771 5.63126 21.7779 5.60468L20.3271 5.22363L18.8764 4.84259C18.8831 4.81691 18.8905 4.79138 18.8987 4.76603C18.9027 4.75346 18.9068 4.74142 18.9108 4.72994C18.9148 4.71844 18.9186 4.70807 18.922 4.69899C18.9254 4.69 18.9282 4.6828 18.9298 4.67859C18.9302 4.67757 18.9306 4.67673 18.9308 4.67616C18.931 4.67562 18.9312 4.6752 18.9312 4.67519C18.9314 4.67461 18.9306 4.67661 18.9298 4.67877C18.9289 4.68109 18.9269 4.68598 18.9246 4.69218C18.9222 4.69835 18.9186 4.7079 18.9144 4.71965C18.9102 4.73129 18.9045 4.74771 18.8981 4.76753C18.8918 4.78719 18.8837 4.81376 18.8754 4.84552L20.3262 5.22656ZM20.3271 5.22363L21.8156 5.40968L21.8214 5.36281L20.333 5.17676L18.8446 4.99071L18.8387 5.03758L20.3271 5.22363ZM20.333 5.17676L21.7151 5.75981L21.7414 5.69731L20.3594 5.11426L18.9773 4.53121L18.951 4.59371L20.333 5.17676Z" fill="white" mask="url(#path-1-outside-1_1376_2038)"/>
<path d="M16.7249 15.2895C16.7249 15.2895 13.5997 38.8564 13.7565 39.0315C13.9133 39.2066 14.9645 40.9652 19.0141 42.0288C23.0637 43.0924 24.8452 42.0778 25.066 42.0019C25.2868 41.926 34.1472 19.8654 34.1472 19.8654C34.1472 19.8654 29.2052 12.7388 16.7231 15.2891L16.7249 15.2895Z" fill="#F1E2D2" stroke="#B09981" stroke-width="0.434788" stroke-miterlimit="10" stroke-linejoin="round"/>
<path d="M16.5909 14.8159C16.5909 14.8159 16.0842 18.2963 16.1566 18.7056C16.2289 19.1148 18.6167 21.5382 24.0227 22.958C29.4287 24.3779 32.6992 23.4406 32.9633 23.1197C33.2269 22.8006 34.4963 19.5187 34.4963 19.5187C34.4963 19.5187 22.9555 19.7089 16.5891 14.8154L16.5909 14.8159Z" fill="#F1E2D2" stroke="#B09981" stroke-width="0.434788" stroke-miterlimit="10" stroke-linejoin="round"/>
<path opacity="0.3" d="M24.9987 19.2417C30.6962 20.7382 35.659 20.6413 36.0834 19.0255C36.5078 17.4096 32.2331 14.8866 26.5355 13.3902C20.838 11.8938 15.8752 11.9906 15.4508 13.6064C15.0264 15.2223 19.3011 17.7453 24.9987 19.2417Z" fill="#DADBDB" stroke="#040000" stroke-width="0.434788" stroke-miterlimit="10"/>
<path opacity="0.85" d="M25.1274 18.7527C30.4414 20.1485 35.036 20.1887 35.3895 18.8426C35.743 17.4966 31.7217 15.2739 26.4076 13.8782C21.0936 12.4825 16.499 12.4423 16.1455 13.7883C15.792 15.1344 19.8133 17.357 25.1274 18.7527Z" fill="#F9FCFD"/>
<path d="M20.673 34.7073C21.3648 34.889 22.0729 34.4755 22.2546 33.7837C22.4363 33.0919 22.0228 32.3837 21.331 32.202C20.6392 32.0203 19.9311 32.4339 19.7494 33.1257C19.5677 33.8175 19.9812 34.5256 20.673 34.7073Z" fill="#040000" stroke="#040000" stroke-width="0.172065" stroke-miterlimit="10"/>
<path d="M24.2143 37.6839C24.9061 37.8656 25.6142 37.452 25.7959 36.7602C25.9776 36.0684 25.5641 35.3603 24.8723 35.1786C24.1805 34.9969 23.4723 35.4104 23.2906 36.1022C23.1089 36.794 23.5225 37.5022 24.2143 37.6839Z" fill="#040000" stroke="#040000" stroke-width="0.172065" stroke-miterlimit="10"/>
<path d="M24.0727 34.6385C24.7645 34.8202 25.4726 34.4066 25.6543 33.7148C25.836 33.023 25.4225 32.3149 24.7307 32.1332C24.0388 31.9515 23.3307 32.365 23.149 33.0568C22.9673 33.7486 23.3809 34.4568 24.0727 34.6385Z" fill="#040000" stroke="#040000" stroke-width="0.172065" stroke-miterlimit="10"/>
<path d="M22.9843 40.8084C23.6761 40.9901 24.3842 40.5766 24.5659 39.8847C24.7476 39.1929 24.3341 38.4848 23.6423 38.3031C22.9505 38.1214 22.2424 38.5349 22.0607 39.2268C21.879 39.9186 22.2925 40.6267 22.9843 40.8084Z" fill="#040000" stroke="#040000" stroke-width="0.172065" stroke-miterlimit="10"/>
<path d="M20.9565 38.0125C21.6483 38.1942 22.3564 37.7807 22.5381 37.0888C22.7198 36.397 22.3063 35.6889 21.6144 35.5072C20.9226 35.3255 20.2145 35.739 20.0328 36.4309C19.8511 37.1227 20.2646 37.8308 20.9565 38.0125Z" fill="#040000" stroke="#040000" stroke-width="0.172065" stroke-miterlimit="10"/>
<path d="M17.4355 34.5647C18.1273 34.7464 18.8354 34.3329 19.0171 33.6411C19.1988 32.9493 18.7853 32.2412 18.0935 32.0595C17.4016 31.8778 16.6935 32.2913 16.5118 32.9831C16.3301 33.6749 16.7437 34.383 17.4355 34.5647Z" fill="#040000" stroke="#040000" stroke-width="0.172065" stroke-miterlimit="10"/>
<path d="M19.2912 40.9729C19.983 41.1546 20.6911 40.7411 20.8728 40.0493C21.0545 39.3575 20.641 38.6494 19.9492 38.4677C19.2574 38.286 18.5492 38.6995 18.3675 39.3913C18.1858 40.0831 18.5994 40.7912 19.2912 40.9729Z" fill="#040000" stroke="#040000" stroke-width="0.172065" stroke-miterlimit="10"/>
<path d="M16.6081 38.2102C17.2999 38.3919 18.008 37.9784 18.1897 37.2866C18.3714 36.5948 17.9579 35.8867 17.2661 35.705C16.5742 35.5233 15.8661 35.9368 15.6844 36.6286C15.5027 37.3204 15.9163 38.0285 16.6081 38.2102Z" fill="#040000" stroke="#040000" stroke-width="0.172065" stroke-miterlimit="10"/>
<path opacity="0.68" d="M21.4332 21.8914C20.0714 21.3884 19.0135 20.7547 18.1886 20.2683L18.6074 17.1226C19.5743 17.5927 20.7127 18.0581 21.9744 18.4908L21.4314 21.891L21.4332 21.8914Z" fill="#EDEDEC"/>
<path opacity="0.68" d="M18.9395 36.5953L18.939 36.5971L16.0078 34.8076L16.0043 34.8067L18.104 20.7378C18.9258 21.2214 19.8817 21.748 21.3521 22.3331L18.9492 36.5366L18.9395 36.5953Z" fill="#EDEDEC"/>
<path opacity="0.85" d="M18.9103 36.6645C19.1005 36.3592 18.5993 35.7035 17.791 35.2001C16.9826 34.6966 16.1731 34.5359 15.983 34.8412C15.7928 35.1465 16.294 35.8022 17.1023 36.3057C17.9107 36.8091 18.7202 36.9698 18.9103 36.6645Z" fill="#B4B3B4"/>
<path opacity="0.68" d="M22.0189 17.8052C20.7345 17.3493 19.5933 16.8583 18.659 16.3661L18.6848 16.195L18.7765 15.5763L18.8799 14.8842L19.1957 12.7712L19.2674 12.2945L20.3259 5.22697C20.3259 5.22697 20.3259 5.22697 20.3269 5.22339L20.3333 5.17725L24.0017 6.14073L22.9012 12.6177L22.8187 13.1067L22.5442 14.7199L22.274 16.3094L22.0512 17.6167L22.0189 17.8052Z" fill="#EDEDEC"/>
<path opacity="0.85" d="M22.0021 6.28841C23.0151 6.55447 23.9104 6.48814 24.0018 6.14026C24.0931 5.79237 23.346 5.29468 22.333 5.02862C21.32 4.76256 20.4247 4.82889 20.3333 5.17677C20.242 5.52465 20.9891 6.02235 22.0021 6.28841Z" fill="#B4B3B4"/>
<path d="M22.2724 16.308C22.2724 16.308 21.4535 16.8332 18.7767 15.5754C20.6729 15.3771 22.2724 16.308 22.2724 16.308Z" fill="#B4B3B4"/>
<mask id="path-21-outside-2_1376_2038" maskUnits="userSpaceOnUse" x="17.3141" y="23.2295" width="9.51577" height="8.8026" fill="black">
<rect fill="white" x="17.3141" y="23.2295" width="9.51577" height="8.8026"/>
<path d="M23.1604 25.3318C24.5707 25.7023 25.414 27.1463 25.0436 28.5566C24.6731 29.967 23.2291 30.8102 21.8188 30.4399C20.6425 30.1309 19.8639 29.075 19.8517 27.915C19.5064 27.8534 19.0713 27.5582 19.0692 27.2924C19.0668 26.9933 19.6118 26.6475 19.9651 26.6453C20.0289 26.6449 20.0901 26.6534 20.1484 26.6662C20.7048 25.5958 21.9445 25.0125 23.1604 25.3318Z"/>
</mask>
<path d="M23.1604 25.3318C24.5707 25.7023 25.414 27.1463 25.0436 28.5566C24.6731 29.967 23.2291 30.8102 21.8188 30.4399C20.6425 30.1309 19.8639 29.075 19.8517 27.915C19.5064 27.8534 19.0713 27.5582 19.0692 27.2924C19.0668 26.9933 19.6118 26.6475 19.9651 26.6453C20.0289 26.6449 20.0901 26.6534 20.1484 26.6662C20.7048 25.5958 21.9445 25.0125 23.1604 25.3318Z" fill="#DFB820"/>
<path d="M23.1604 25.3318L23.2361 25.0436L23.2361 25.0436L23.1604 25.3318ZM25.0436 28.5566L25.3319 28.6324L25.3319 28.6324L25.0436 28.5566ZM21.8188 30.4399L21.7431 30.7281L21.7431 30.7281L21.8188 30.4399ZM19.8517 27.915L20.1498 27.9118L20.1472 27.6649L19.904 27.6215L19.8517 27.915ZM19.0692 27.2924L18.7711 27.2948L18.7711 27.2949L19.0692 27.2924ZM19.9651 26.6453L19.9632 26.3472L19.9632 26.3472L19.9651 26.6453ZM20.1484 26.6662L20.085 26.9574L20.3077 27.0059L20.4129 26.8036L20.1484 26.6662ZM23.1604 25.3318L23.0847 25.6201C24.3358 25.9488 25.0839 27.2298 24.7553 28.4809L25.0436 28.5566L25.3319 28.6324C25.7441 27.0628 24.8056 25.4559 23.2361 25.0436L23.1604 25.3318ZM25.0436 28.5566L24.7553 28.4809C24.4267 29.732 23.1456 30.4801 21.8945 30.1516L21.8188 30.4399L21.7431 30.7281C23.3126 31.1403 24.9196 30.2019 25.3319 28.6324L25.0436 28.5566ZM21.8188 30.4399L21.8945 30.1516C20.852 29.8778 20.1605 28.9417 20.1498 27.9118L19.8517 27.915L19.5537 27.9181C19.5672 29.2084 20.433 30.384 21.7431 30.7281L21.8188 30.4399ZM19.8517 27.915L19.904 27.6215C19.783 27.6 19.6307 27.5323 19.5111 27.4422C19.4526 27.3981 19.4116 27.3557 19.3875 27.3215C19.3623 27.2858 19.3671 27.2759 19.3672 27.29L19.0692 27.2924L18.7711 27.2949C18.7723 27.4418 18.8323 27.5685 18.9001 27.6648C18.969 27.7626 19.0587 27.8477 19.1523 27.9183C19.3372 28.0576 19.5751 28.1684 19.7994 28.2084L19.8517 27.915ZM19.0692 27.2924L19.3672 27.2901C19.3673 27.3052 19.3619 27.2906 19.3963 27.245C19.4286 27.2023 19.4817 27.152 19.5529 27.1029C19.7025 26.9998 19.8694 26.9439 19.967 26.9433L19.9651 26.6453L19.9632 26.3472C19.7075 26.3489 19.4252 26.467 19.2146 26.6121C19.1057 26.6871 19.0009 26.7795 18.9206 26.8858C18.8425 26.9892 18.7698 27.13 18.7711 27.2948L19.0692 27.2924ZM19.9651 26.6453L19.967 26.9433C20.003 26.9431 20.0414 26.9479 20.085 26.9574L20.1484 26.6662L20.2119 26.3749C20.1387 26.359 20.0549 26.3466 19.9632 26.3472L19.9651 26.6453ZM20.1484 26.6662L20.4129 26.8036C20.9065 25.8539 22.0066 25.337 23.0847 25.6201L23.1604 25.3318L23.2361 25.0436C21.8824 24.688 20.5031 25.3376 19.884 26.5287L20.1484 26.6662Z" fill="white" mask="url(#path-21-outside-2_1376_2038)"/>
<path d="M21.819 30.4393C23.2294 30.8097 24.673 29.9667 25.0434 28.5563C25.4139 27.1459 24.5708 25.7023 23.1604 25.3319C21.75 24.9614 20.3064 25.8045 19.936 27.2149C19.5655 28.6253 20.4086 30.0689 21.819 30.4393Z" fill="#4B9AE8"/>
<circle cx="21.7292" cy="26.9713" r="0.691033" transform="rotate(14.716 21.7292 26.9713)" fill="white"/>
<circle cx="21.7293" cy="26.9717" r="0.41462" transform="rotate(14.716 21.7293 26.9717)" fill="#161616"/>
<circle cx="21.7293" cy="26.9717" r="0.41462" transform="rotate(14.716 21.7293 26.9717)" fill="#161616"/>
<path d="M19.9765 27.9278C19.6224 27.9299 19.0713 27.5911 19.0688 27.2919C19.0664 26.9927 19.6117 26.6467 19.9651 26.6445C20.3184 26.6422 20.6076 26.8359 20.6112 27.2816C20.615 27.7327 20.3298 27.9255 19.9757 27.9277L19.9765 27.9278Z" fill="#EAC00F"/>
</svg>
