<svg width="200" height="200" viewBox="0 0 200 200" fill="none" xmlns="http://www.w3.org/2000/svg">
<mask id="path-1-outside-1_1347_10888" maskUnits="userSpaceOnUse" x="16" y="14" width="167" height="172" fill="black">
<rect fill="white" x="16" y="14" width="167" height="172"/>
<path d="M86.4062 26.8203C93.1157 17.7268 106.712 17.7268 113.422 26.8203C117.686 32.599 125.154 35.0254 132 32.8564C142.773 29.4437 153.772 37.4349 153.855 48.7354C153.909 55.9167 158.524 62.2695 165.338 64.5391C176.06 68.1104 180.261 81.0414 173.687 90.2324C169.508 96.0739 169.508 103.926 173.687 109.767C180.261 118.958 176.059 131.889 165.338 135.46C158.524 137.729 153.909 144.082 153.855 151.263C153.773 162.564 142.773 170.555 132 167.143C125.154 164.974 117.686 167.4 113.422 173.179C106.712 182.272 93.1156 182.272 86.4062 173.179C82.1424 167.4 74.6742 164.974 67.8281 167.143C57.0548 170.555 46.0549 162.563 45.9717 151.263C45.9187 144.082 41.3036 137.729 34.4902 135.46C23.7686 131.889 19.5669 118.958 26.1416 109.767C30.3199 103.926 30.3199 96.0739 26.1416 90.2324C19.5667 81.0415 23.7686 68.1105 34.4902 64.5391C41.3038 62.2696 45.9188 55.9167 45.9717 48.7354C46.0551 37.435 57.0549 29.4438 67.8281 32.8564C74.6741 35.0253 82.1424 32.5989 86.4062 26.8203Z"/>
</mask>
<path d="M86.4062 26.8203L91.2342 30.3827L91.2343 30.3826L86.4062 26.8203ZM113.422 26.8203L118.25 23.2579L118.25 23.2579L113.422 26.8203ZM132 32.8564L130.188 27.1366L130.188 27.1366L132 32.8564ZM153.855 48.7354L147.856 48.7795L147.856 48.7798L153.855 48.7354ZM165.338 64.5391L167.234 58.8466L167.234 58.8465L165.338 64.5391ZM173.687 90.2324L168.807 86.7415L168.806 86.7419L173.687 90.2324ZM173.687 109.767L168.807 113.257L168.807 113.257L173.687 109.767ZM165.338 135.46L167.234 141.153L167.234 141.152L165.338 135.46ZM153.855 151.263L147.856 151.218L147.856 151.219L153.855 151.263ZM132 167.143L133.812 161.423H133.812L132 167.143ZM113.422 173.179L108.594 169.616L108.594 169.616L113.422 173.179ZM86.4062 173.179L91.2344 169.617L91.2342 169.616L86.4062 173.179ZM67.8281 167.143L69.64 172.862L69.6401 172.862L67.8281 167.143ZM45.9717 151.263L51.9715 151.219L51.9715 151.218L45.9717 151.263ZM34.4902 135.46L32.594 141.152L32.5942 141.152L34.4902 135.46ZM26.1416 109.767L21.2617 106.276L21.2617 106.276L26.1416 109.767ZM26.1416 90.2324L31.0217 86.7418L31.0215 86.7415L26.1416 90.2324ZM34.4902 64.5391L32.5941 58.8465L32.594 58.8466L34.4902 64.5391ZM45.9717 48.7354L39.9718 48.6911L39.9718 48.6912L45.9717 48.7354ZM67.8281 32.8564L69.6402 27.1366L69.64 27.1366L67.8281 32.8564ZM86.4062 26.8203L91.2343 30.3826C95.5455 24.5395 104.282 24.5391 108.594 30.3828L113.422 26.8203L118.25 23.2579C109.142 10.9144 90.6858 10.914 81.5782 23.2581L86.4062 26.8203ZM113.422 26.8203L108.594 30.3827C114.382 38.2269 124.519 41.5204 133.812 38.5763L132 32.8564L130.188 27.1366C125.789 28.5303 120.99 26.9711 118.25 23.2579L113.422 26.8203ZM132 32.8564L133.812 38.5763C140.735 36.3833 147.802 41.5183 147.856 48.7795L153.855 48.7354L159.855 48.6912C159.742 33.3516 144.811 22.504 130.188 27.1366L132 32.8564ZM153.855 48.7354L147.856 48.7798C147.928 58.5275 154.192 67.1509 163.442 70.2316L165.338 64.5391L167.234 58.8465C162.855 57.3882 159.889 53.3058 159.855 48.6909L153.855 48.7354ZM165.338 64.5391L163.442 70.2316C170.332 72.5266 173.031 80.836 168.807 86.7415L173.687 90.2324L178.566 93.7234C187.492 81.2469 181.787 63.6943 167.234 58.8466L165.338 64.5391ZM173.687 90.2324L168.806 86.7419C163.135 94.6707 163.135 105.329 168.807 113.257L173.687 109.767L178.567 106.276C175.882 102.523 175.882 97.477 178.567 93.723L173.687 90.2324ZM173.687 109.767L168.807 113.257C173.031 119.163 170.331 127.472 163.442 129.767L165.338 135.46L167.234 141.152C181.787 136.305 187.491 118.752 178.566 106.276L173.687 109.767ZM165.338 135.46L163.442 129.767C154.193 132.848 147.928 141.471 147.856 151.218L153.855 151.263L159.855 151.307C159.89 146.693 162.855 142.611 167.234 141.153L165.338 135.46ZM153.855 151.263L147.856 151.219C147.802 158.481 140.734 163.616 133.812 161.423L132 167.143L130.188 172.862C144.812 177.495 159.743 166.647 159.855 151.307L153.855 151.263ZM132 167.143L133.812 161.423C124.519 158.479 114.382 161.772 108.594 169.616L113.422 173.179L118.25 176.741C120.99 173.028 125.789 171.469 130.188 172.862L132 167.143ZM113.422 173.179L108.594 169.616C104.282 175.46 95.5455 175.46 91.2344 169.617L86.4062 173.179L81.5781 176.741C90.6858 189.085 109.142 189.085 118.25 176.741L113.422 173.179ZM86.4062 173.179L91.2342 169.616C85.4463 161.772 75.309 158.479 66.0161 161.423L67.8281 167.143L69.6401 172.862C74.0393 171.469 78.8385 173.028 81.5783 176.741L86.4062 173.179ZM67.8281 167.143L66.0162 161.423C59.0933 163.616 52.025 158.48 51.9715 151.219L45.9717 151.263L39.9718 151.307C40.0848 166.647 55.0162 177.495 69.64 172.862L67.8281 167.143ZM45.9717 151.263L51.9715 151.218C51.8995 141.471 45.6351 132.848 36.3863 129.767L34.4902 135.46L32.5942 141.152C36.9722 142.611 39.9378 146.693 39.9718 151.307L45.9717 151.263ZM34.4902 135.46L36.3864 129.767C29.4966 127.472 26.797 119.163 31.0215 113.257L26.1416 109.767L21.2617 106.276C12.3368 118.752 18.0406 136.305 32.594 141.152L34.4902 135.46ZM26.1416 109.767L31.0215 113.257C36.6933 105.329 36.6931 94.6707 31.0217 86.7418L26.1416 90.2324L21.2615 93.7231C23.9467 97.477 23.9465 102.523 21.2617 106.276L26.1416 109.767ZM26.1416 90.2324L31.0215 86.7415C26.7969 80.836 29.4965 72.5266 36.3864 70.2316L34.4902 64.5391L32.594 58.8466C18.0406 63.6944 12.3365 81.247 21.2617 93.7233L26.1416 90.2324ZM34.4902 64.5391L36.3863 70.2316C45.6354 67.1508 51.8998 58.5274 51.9715 48.7795L45.9717 48.7354L39.9718 48.6912C39.9379 53.3061 36.9721 57.3883 32.5941 58.8465L34.4902 64.5391ZM45.9717 48.7354L51.9715 48.7796C52.0251 41.5186 59.0931 36.3833 66.0162 38.5763L67.8281 32.8564L69.64 27.1366C55.0166 22.5043 40.0851 33.3513 39.9718 48.6911L45.9717 48.7354ZM67.8281 32.8564L66.016 38.5763C75.3089 41.5204 85.4463 38.2268 91.2342 30.3827L86.4062 26.8203L81.5783 23.2579C78.8384 26.9711 74.0393 28.5303 69.6402 27.1366L67.8281 32.8564Z" fill="white" mask="url(#path-1-outside-1_1347_10888)"/>
<path d="M86.4061 26.8202C93.1155 17.7266 106.712 17.7266 113.422 26.8202C117.686 32.5989 125.154 35.0253 132 32.8564C142.773 29.4434 153.773 37.4353 153.856 48.736C153.909 55.9174 158.524 62.2697 165.338 64.5392C176.06 68.1105 180.261 81.0416 173.686 90.2326C169.508 96.074 169.508 103.926 173.686 109.767C180.261 118.958 176.06 131.889 165.338 135.46C158.524 137.73 153.909 144.082 153.856 151.263C153.773 162.564 142.773 170.556 132 167.143C125.154 164.974 117.686 167.401 113.422 173.179C106.712 182.273 93.1155 182.273 86.4061 173.179C82.1423 167.401 74.6747 164.974 67.8286 167.143C57.0551 170.556 46.0552 162.564 45.972 151.263C45.9192 144.082 41.3039 137.73 34.4904 135.46C23.7685 131.889 19.5669 118.958 26.142 109.767C30.3203 103.926 30.3203 96.074 26.142 90.2326C19.5669 81.0416 23.7685 68.1105 34.4904 64.5392C41.3039 62.2697 45.9192 55.9174 45.972 48.736C46.0552 37.4353 57.0551 29.4434 67.8286 32.8564C74.6747 35.0253 82.1423 32.5989 86.4061 26.8202Z" fill="#FF822D"/>
<path d="M144.074 125.496C129.993 149.885 98.807 158.241 74.4183 144.16C50.0295 130.079 41.6732 98.8929 55.7541 74.5042C69.835 50.1154 101.021 41.7592 125.41 55.8401C149.799 69.921 158.155 101.107 144.074 125.496Z" fill="#FEE586"/>
<path d="M111.999 98.947C112.101 103.993 106.117 111.908 100.759 111.999C95.4016 112.09 89.105 104.379 89.0022 99.3329C88.8995 94.2871 92.3224 90.1363 100.316 90.0033C108.402 89.8672 111.896 93.9012 111.999 98.947Z" fill="#EAC00F"/>
<path d="M70.4065 102.985C76.7536 102.985 81.8989 97.8395 81.8989 91.4924C81.8989 85.1453 76.7536 80 70.4065 80C64.0594 80 58.9141 85.1453 58.9141 91.4924C58.9141 97.8395 64.0594 102.985 70.4065 102.985Z" fill="white"/>
<path d="M70.4049 96.2228C73.0172 96.2228 75.1349 94.1051 75.1349 91.4927C75.1349 88.8804 73.0172 86.7627 70.4049 86.7627C67.7925 86.7627 65.6748 88.8804 65.6748 91.4927C65.6748 94.1051 67.7925 96.2228 70.4049 96.2228Z" fill="black" stroke="black" stroke-width="2.69252" stroke-miterlimit="10"/>
<path d="M130.492 102.985C136.839 102.985 141.985 97.8395 141.985 91.4924C141.985 85.1453 136.839 80 130.492 80C124.145 80 119 85.1453 119 91.4924C119 97.8395 124.145 102.985 130.492 102.985Z" fill="white"/>
<path d="M130.491 96.2228C133.103 96.2228 135.221 94.1051 135.221 91.4927C135.221 88.8804 133.103 86.7627 130.491 86.7627C127.878 86.7627 125.761 88.8804 125.761 91.4927C125.761 94.1051 127.878 96.2228 130.491 96.2228Z" fill="black" stroke="black" stroke-width="2.69252" stroke-miterlimit="10"/>
</svg>
