<svg width="200" height="200" viewBox="0 0 200 200" fill="none" xmlns="http://www.w3.org/2000/svg">
<mask id="path-1-outside-1_1062_22060" maskUnits="userSpaceOnUse" x="14" y="13.2019" width="172" height="173" fill="black">
<rect fill="white" x="14" y="13.2019" width="172" height="173"/>
<path d="M141.047 22.2973C159.311 14.0338 173.396 32.8646 173.549 33.0658C173.758 33.3547 173.744 33.742 173.518 34.0131C173.291 34.2883 172.909 34.3774 172.589 34.2309C172.504 34.1862 163.095 30.0438 149.3 36.2836C147.273 37.1998 145.208 38.4319 143.216 39.8002C147.724 39.8748 152.79 41.0545 158.35 43.9906C180.918 55.9107 174.794 83.2839 174.731 83.5639C174.66 83.8838 174.389 84.124 174.061 84.1596C173.723 84.2173 173.416 84.0125 173.273 83.7191C173.194 83.5516 165.909 68.5366 150.038 59.6615C143.742 56.1442 137.358 54.1076 132.177 52.9301C132.436 53.5258 132.713 54.174 132.997 54.8744C133.291 55.5994 133.596 56.3801 133.906 57.2123C134.496 58.7927 135.108 60.5605 135.708 62.4965C135.706 62.4972 135.705 62.4977 135.703 62.4984C135.703 62.4994 135.704 62.5004 135.704 62.5014C136.313 64.4703 136.904 66.6128 137.446 68.9105V68.9115C137.448 68.911 137.449 68.9111 137.45 68.9105C138.041 71.4082 138.57 74.0704 138.992 76.8969C138.991 76.8973 138.99 76.8974 138.988 76.8978C139.339 79.2576 139.602 81.7284 139.775 84.2836C139.909 86.2214 140.002 88.1948 140.002 90.2348C140.002 90.312 139.999 90.3888 139.999 90.4652C139.996 91.1844 139.984 91.8696 139.979 92.5766C139.978 92.5769 139.975 92.5762 139.974 92.5766C139.951 95.0816 139.895 97.4939 139.802 99.7504C139.803 99.7501 139.804 99.7507 139.806 99.7504C139.677 102.732 139.499 105.488 139.281 108.03C139.28 108.03 139.279 108.03 139.277 108.03C139.277 108.031 139.277 108.033 139.277 108.035C139.073 110.475 138.833 112.719 138.575 114.759C138.144 118.172 137.673 120.99 137.229 123.27C136.882 125.051 136.553 126.494 136.281 127.595C151.931 131.223 160.177 136.891 163.931 141.205C165.015 141.659 165.973 142.129 166.794 142.61C175.344 146.472 180 151.024 180 155.719C180 162.037 171.571 168.096 156.568 172.564C141.565 177.031 121.217 179.541 100 179.541C78.7828 179.541 58.4345 177.031 43.4316 172.564C28.4289 168.096 20.0002 162.037 20 155.719C20 149.401 28.4287 143.342 43.4316 138.874C47.3037 137.721 51.5319 136.7 56.0391 135.817C61.8641 129.944 74.1896 124 99.8887 124C104.87 124 109.503 124.155 113.809 124.44C114.295 123.314 115.118 121.575 116.1 119.386C116.249 119.052 116.401 118.706 116.558 118.351C116.722 117.979 116.889 117.596 117.059 117.204C117.335 116.566 117.618 115.901 117.905 115.212C117.988 115.015 118.07 114.815 118.153 114.614C118.513 113.74 118.877 112.83 119.241 111.888C119.952 110.044 120.659 108.084 121.321 106.039C122.135 103.515 122.859 100.866 123.45 98.1723C123.864 96.2923 124.206 94.3943 124.441 92.4877V92.4848C124.44 92.4844 124.438 92.4841 124.437 92.4838C124.694 90.3682 124.842 88.2479 124.811 86.1635C124.802 85.4968 124.77 84.87 124.752 84.2211C124.753 84.2214 124.755 84.2217 124.756 84.2221C124.703 82.4369 124.628 80.7227 124.521 79.0795C124.489 78.5769 124.454 78.0803 124.417 77.5902C124.309 76.1397 124.182 74.7445 124.038 73.4066C123.951 72.5922 123.858 71.799 123.759 71.0277C123.756 71.0093 123.754 70.9905 123.752 70.9721C123.521 69.1917 123.268 67.5355 122.997 65.977L122.996 65.976C122.995 65.9761 122.993 65.9768 122.992 65.977C122.461 62.9318 121.874 60.3154 121.299 58.1322C116.889 62.2942 112.03 67.2307 107.714 72.4213C95.5094 87.1013 90.6827 104.559 90.6338 104.733C90.5537 105.035 90.2959 105.261 89.9805 105.301L89.8867 105.306C89.6069 105.306 89.3447 105.159 89.207 104.911C89.0693 104.657 75.3277 79.6175 90.9941 59.5375C95.9905 53.1315 101.339 49.2371 106.481 46.9643C105.325 46.7494 104.136 46.5316 102.918 46.3148C87.9895 43.6527 79.0249 49.9275 78.9355 49.9945C78.6423 50.2033 78.2472 50.1859 77.9717 49.9506C77.7006 49.7106 77.6246 49.3194 77.7979 48.9994C77.9134 48.7816 89.7847 26.9552 109.434 30.4574C116.625 31.7374 122.056 34.9106 125.629 39.9105C127.544 32.075 132.838 26.0084 141.047 22.2973ZM51.1094 25.5414C54.0275 25.5415 56.9173 26.1161 59.6133 27.2328C62.3093 28.3496 64.7588 29.9867 66.8223 32.0502C68.8857 34.1137 70.5229 36.5631 71.6396 39.2592C72.7564 41.9552 73.331 44.8449 73.3311 47.7631C73.3311 53.6568 70.9897 59.3095 66.8223 63.477C62.6549 67.6442 57.0028 69.9856 51.1094 69.9857C45.2157 69.9857 39.563 67.6444 35.3955 63.477C31.228 59.3095 28.8867 53.6568 28.8867 47.7631C28.8867 44.8449 29.4614 41.9552 30.5781 39.2592C31.6949 36.5631 33.3321 34.1137 35.3955 32.0502C37.4589 29.9868 39.9085 28.3496 42.6045 27.2328C45.3006 26.116 48.1911 25.5414 51.1094 25.5414Z"/>
</mask>
<path d="M141.047 22.2973C159.311 14.0338 173.396 32.8646 173.549 33.0658C173.758 33.3547 173.744 33.742 173.518 34.0131C173.291 34.2883 172.909 34.3774 172.589 34.2309C172.504 34.1862 163.095 30.0438 149.3 36.2836C147.273 37.1998 145.208 38.4319 143.216 39.8002C147.724 39.8748 152.79 41.0545 158.35 43.9906C180.918 55.9107 174.794 83.2839 174.731 83.5639C174.66 83.8838 174.389 84.124 174.061 84.1596C173.723 84.2173 173.416 84.0125 173.273 83.7191C173.194 83.5516 165.909 68.5366 150.038 59.6615C143.742 56.1442 137.358 54.1076 132.177 52.9301C132.436 53.5258 132.713 54.174 132.997 54.8744C133.291 55.5994 133.596 56.3801 133.906 57.2123C134.496 58.7927 135.108 60.5605 135.708 62.4965C135.706 62.4972 135.705 62.4977 135.703 62.4984C135.703 62.4994 135.704 62.5004 135.704 62.5014C136.313 64.4703 136.904 66.6128 137.446 68.9105V68.9115C137.448 68.911 137.449 68.9111 137.45 68.9105C138.041 71.4082 138.57 74.0704 138.992 76.8969C138.991 76.8973 138.99 76.8974 138.988 76.8978C139.339 79.2576 139.602 81.7284 139.775 84.2836C139.909 86.2214 140.002 88.1948 140.002 90.2348C140.002 90.312 139.999 90.3888 139.999 90.4652C139.996 91.1844 139.984 91.8696 139.979 92.5766C139.978 92.5769 139.975 92.5762 139.974 92.5766C139.951 95.0816 139.895 97.4939 139.802 99.7504C139.803 99.7501 139.804 99.7507 139.806 99.7504C139.677 102.732 139.499 105.488 139.281 108.03C139.28 108.03 139.279 108.03 139.277 108.03C139.277 108.031 139.277 108.033 139.277 108.035C139.073 110.475 138.833 112.719 138.575 114.759C138.144 118.172 137.673 120.99 137.229 123.27C136.882 125.051 136.553 126.494 136.281 127.595C151.931 131.223 160.177 136.891 163.931 141.205C165.015 141.659 165.973 142.129 166.794 142.61C175.344 146.472 180 151.024 180 155.719C180 162.037 171.571 168.096 156.568 172.564C141.565 177.031 121.217 179.541 100 179.541C78.7828 179.541 58.4345 177.031 43.4316 172.564C28.4289 168.096 20.0002 162.037 20 155.719C20 149.401 28.4287 143.342 43.4316 138.874C47.3037 137.721 51.5319 136.7 56.0391 135.817C61.8641 129.944 74.1896 124 99.8887 124C104.87 124 109.503 124.155 113.809 124.44C114.295 123.314 115.118 121.575 116.1 119.386C116.249 119.052 116.401 118.706 116.558 118.351C116.722 117.979 116.889 117.596 117.059 117.204C117.335 116.566 117.618 115.901 117.905 115.212C117.988 115.015 118.07 114.815 118.153 114.614C118.513 113.74 118.877 112.83 119.241 111.888C119.952 110.044 120.659 108.084 121.321 106.039C122.135 103.515 122.859 100.866 123.45 98.1723C123.864 96.2923 124.206 94.3943 124.441 92.4877V92.4848C124.44 92.4844 124.438 92.4841 124.437 92.4838C124.694 90.3682 124.842 88.2479 124.811 86.1635C124.802 85.4968 124.77 84.87 124.752 84.2211C124.753 84.2214 124.755 84.2217 124.756 84.2221C124.703 82.4369 124.628 80.7227 124.521 79.0795C124.489 78.5769 124.454 78.0803 124.417 77.5902C124.309 76.1397 124.182 74.7445 124.038 73.4066C123.951 72.5922 123.858 71.799 123.759 71.0277C123.756 71.0093 123.754 70.9905 123.752 70.9721C123.521 69.1917 123.268 67.5355 122.997 65.977L122.996 65.976C122.995 65.9761 122.993 65.9768 122.992 65.977C122.461 62.9318 121.874 60.3154 121.299 58.1322C116.889 62.2942 112.03 67.2307 107.714 72.4213C95.5094 87.1013 90.6827 104.559 90.6338 104.733C90.5537 105.035 90.2959 105.261 89.9805 105.301L89.8867 105.306C89.6069 105.306 89.3447 105.159 89.207 104.911C89.0693 104.657 75.3277 79.6175 90.9941 59.5375C95.9905 53.1315 101.339 49.2371 106.481 46.9643C105.325 46.7494 104.136 46.5316 102.918 46.3148C87.9895 43.6527 79.0249 49.9275 78.9355 49.9945C78.6423 50.2033 78.2472 50.1859 77.9717 49.9506C77.7006 49.7106 77.6246 49.3194 77.7979 48.9994C77.9134 48.7816 89.7847 26.9552 109.434 30.4574C116.625 31.7374 122.056 34.9106 125.629 39.9105C127.544 32.075 132.838 26.0084 141.047 22.2973ZM51.1094 25.5414C54.0275 25.5415 56.9173 26.1161 59.6133 27.2328C62.3093 28.3496 64.7588 29.9867 66.8223 32.0502C68.8857 34.1137 70.5229 36.5631 71.6396 39.2592C72.7564 41.9552 73.331 44.8449 73.3311 47.7631C73.3311 53.6568 70.9897 59.3095 66.8223 63.477C62.6549 67.6442 57.0028 69.9856 51.1094 69.9857C45.2157 69.9857 39.563 67.6444 35.3955 63.477C31.228 59.3095 28.8867 53.6568 28.8867 47.7631C28.8867 44.8449 29.4614 41.9552 30.5781 39.2592C31.6949 36.5631 33.3321 34.1137 35.3955 32.0502C37.4589 29.9868 39.9085 28.3496 42.6045 27.2328C45.3006 26.116 48.1911 25.5414 51.1094 25.5414Z" fill="#040000"/>
<path d="M141.047 22.2973L143.519 27.7645L143.52 27.7638L141.047 22.2973ZM173.549 33.0658L178.411 29.5501C178.382 29.5106 178.353 29.4715 178.324 29.4327L173.549 33.0658ZM173.518 34.0131L168.914 30.1646C168.905 30.1756 168.896 30.1867 168.887 30.1979L173.518 34.0131ZM172.589 34.2309L169.797 39.5416C169.893 39.5921 169.99 39.64 170.089 39.6852L172.589 34.2309ZM149.3 36.2836L151.771 41.7508L151.773 41.7504L149.3 36.2836ZM143.216 39.8002L139.819 34.8543C137.667 36.3321 136.718 39.0316 137.471 41.531C138.224 44.0304 140.506 45.7562 143.117 45.7994L143.216 39.8002ZM158.35 43.9906L161.152 38.6852L161.151 38.685L158.35 43.9906ZM174.731 83.5639L180.588 84.867L180.589 84.8654L174.731 83.5639ZM174.061 84.1596L173.416 78.1943C173.293 78.2076 173.171 78.2246 173.049 78.2454L174.061 84.1596ZM173.273 83.7191L167.848 86.2803C167.856 86.2992 167.865 86.318 167.875 86.3368L173.273 83.7191ZM150.038 59.6615L152.966 54.4247L152.964 54.4235L150.038 59.6615ZM132.177 52.9301L133.507 47.0793C131.301 46.5779 129.001 47.3598 127.557 49.1014C126.114 50.8431 125.772 53.2485 126.675 55.3229L132.177 52.9301ZM132.997 54.8744L127.437 57.1306L127.438 57.1311L132.997 54.8744ZM133.906 57.2123L128.285 59.3098L128.285 59.3112L133.906 57.2123ZM135.708 62.4965L138.232 67.9398C140.958 66.6759 142.328 63.5909 141.439 60.7211L135.708 62.4965ZM135.703 62.4984L133.18 57.0549C130.457 58.317 129.086 61.396 129.969 64.2637L135.703 62.4984ZM135.704 62.5014L129.97 64.2665L129.972 64.2741L135.704 62.5014ZM137.446 68.9105H143.446C143.446 68.4465 143.392 67.9841 143.286 67.5325L137.446 68.9105ZM137.446 68.9115H131.446C131.446 70.9136 132.445 72.7838 134.109 73.8975C135.772 75.0112 137.882 75.2217 139.733 74.4587L137.446 68.9115ZM137.45 68.9105L143.289 67.5288C142.884 65.819 141.751 64.3724 140.187 63.571C138.623 62.7696 136.787 62.6939 135.163 63.3638L137.45 68.9105ZM138.992 76.8969L140.986 82.556C143.698 81.6006 145.351 78.8548 144.926 76.0105L138.992 76.8969ZM138.988 76.8978L136.995 71.2385C134.284 72.1934 132.631 74.9373 133.054 77.7807L138.988 76.8978ZM139.775 84.2836L133.789 84.6896L133.79 84.6955L139.775 84.2836ZM140.002 90.2348L146.002 90.2348L146.002 90.2348L140.002 90.2348ZM139.999 90.4652L133.999 90.4413L133.999 90.4416L139.999 90.4652ZM139.979 92.5766L141.141 98.463C143.94 97.9107 145.963 95.4637 145.979 92.6107L139.979 92.5766ZM139.974 92.5766L138.813 86.6899C136.02 87.2406 133.999 89.6773 133.974 92.5234L139.974 92.5766ZM139.802 99.7504L133.807 99.5027C133.73 101.36 134.518 103.148 135.941 104.344C137.364 105.539 139.261 106.008 141.077 105.613L139.802 99.7504ZM139.806 99.7504L145.8 100.009C145.88 98.1503 145.094 96.359 143.67 95.1605C142.246 93.962 140.347 93.4918 138.529 93.8878L139.806 99.7504ZM139.281 108.03L140.066 113.978C142.859 113.61 145.019 111.348 145.259 108.542L139.281 108.03ZM139.277 108.03L138.493 102.081C135.7 102.449 133.54 104.711 133.299 107.518L139.277 108.03ZM139.277 108.035L133.299 107.522L133.298 107.534L139.277 108.035ZM138.575 114.759L132.623 114.007L132.622 114.007L138.575 114.759ZM137.229 123.27L131.339 122.122L131.339 122.125L137.229 123.27ZM136.281 127.595L130.456 126.156C130.071 127.715 130.327 129.364 131.167 130.733C132.007 132.102 133.361 133.077 134.926 133.44L136.281 127.595ZM163.931 141.205L159.404 145.144C160.009 145.839 160.765 146.385 161.615 146.74L163.931 141.205ZM166.794 142.61L163.761 147.787C163.944 147.894 164.131 147.991 164.324 148.078L166.794 142.61ZM180 155.719L186 155.719V155.719L180 155.719ZM156.568 172.564L158.281 178.314L158.281 178.314L156.568 172.564ZM43.4316 172.564L41.7193 178.314L41.7193 178.314L43.4316 172.564ZM20 155.719L14 155.719L14 155.719L20 155.719ZM43.4316 138.874L41.7193 133.124L41.7193 133.124L43.4316 138.874ZM56.0391 135.817L57.1922 141.705C58.371 141.474 59.4533 140.895 60.2991 140.042L56.0391 135.817ZM99.8887 124L99.8887 118L99.8887 118L99.8887 124ZM113.809 124.44L113.412 130.427C115.946 130.594 118.311 129.149 119.317 126.817L113.809 124.44ZM116.1 119.386L121.574 121.842L121.576 121.838L116.1 119.386ZM116.558 118.351L111.068 115.93L111.068 115.93L116.558 118.351ZM117.059 117.204L122.565 119.586L122.565 119.586L117.059 117.204ZM117.905 115.212L112.367 112.905L112.367 112.905L117.905 115.212ZM118.153 114.614L123.702 116.896L123.702 116.896L118.153 114.614ZM119.241 111.888L124.838 114.05L124.84 114.046L119.241 111.888ZM121.321 106.039L127.029 107.888L127.032 107.879L121.321 106.039ZM123.45 98.1723L117.59 96.8839L117.59 96.886L123.45 98.1723ZM124.441 92.4877L130.396 93.2234C130.426 92.9793 130.441 92.7336 130.441 92.4877H124.441ZM124.441 92.4848H130.441C130.441 89.6482 128.455 87.1991 125.679 86.6139L124.441 92.4848ZM124.437 92.4838L118.481 91.7581C118.104 94.8475 120.152 97.7119 123.198 98.3545L124.437 92.4838ZM124.811 86.1635L118.811 86.2435L118.811 86.253L124.811 86.1635ZM124.752 84.2211L126.4 78.4519C124.562 77.9268 122.584 78.3089 121.074 79.4809C119.563 80.6529 118.702 82.4745 118.754 84.3854L124.752 84.2211ZM124.756 84.2221L123.108 89.9915C124.949 90.517 126.93 90.1329 128.441 88.9574C129.951 87.7819 130.81 85.9562 130.753 84.0429L124.756 84.2221ZM124.521 79.0795L118.534 79.4629L118.534 79.4679L124.521 79.0795ZM124.417 77.5902L118.434 78.0366L118.434 78.0368L124.417 77.5902ZM124.038 73.4066L130.004 72.7663L130.004 72.7661L124.038 73.4066ZM123.759 71.0277L117.808 71.7925L117.808 71.7928L123.759 71.0277ZM123.752 70.9721L129.703 70.2042L129.702 70.2002L123.752 70.9721ZM122.997 65.977L128.908 64.9496C128.697 63.7315 128.114 62.6085 127.24 61.7343L122.997 65.977ZM122.996 65.976L127.239 61.7333C125.965 60.4598 124.187 59.8257 122.395 60.0062L122.996 65.976ZM122.992 65.977L117.081 67.0075C117.622 70.1062 120.463 72.2617 123.593 71.9468L122.992 65.977ZM121.299 58.1322L127.101 56.6037C126.562 54.5564 124.983 52.9449 122.947 52.3632C120.912 51.7814 118.72 52.3156 117.18 53.7688L121.299 58.1322ZM107.714 72.4213L103.101 68.585L103.1 68.5855L107.714 72.4213ZM90.6338 104.733L84.8591 103.104C84.8505 103.135 84.8421 103.165 84.834 103.196L90.6338 104.733ZM89.9805 105.301L90.2925 111.293C90.4405 111.285 90.588 111.272 90.735 111.254L89.9805 105.301ZM89.8867 105.306L89.8831 111.306C89.9884 111.306 90.0936 111.303 90.1988 111.298L89.8867 105.306ZM89.207 104.911L83.9361 107.777C83.9433 107.79 83.9506 107.804 83.9579 107.817L89.207 104.911ZM90.9941 59.5375L95.7247 63.2283L95.7253 63.2275L90.9941 59.5375ZM106.481 46.9643L108.907 52.4522C111.313 51.3887 112.746 48.8815 112.441 46.2683C112.136 43.6551 110.164 41.5455 107.577 41.0651L106.481 46.9643ZM102.918 46.3148L101.865 52.2217L101.867 52.222L102.918 46.3148ZM78.9355 49.9945L82.416 54.8819C82.4559 54.8535 82.4955 54.8246 82.5347 54.7952L78.9355 49.9945ZM77.9717 49.9506L73.9946 54.4432C74.0213 54.4667 74.0481 54.49 74.0751 54.5131L77.9717 49.9506ZM77.7979 48.9994L83.0742 51.856C83.0822 51.8412 83.0901 51.8265 83.0979 51.8117L77.7979 48.9994ZM109.434 30.4574L108.381 36.3643L108.382 36.3646L109.434 30.4574ZM125.629 39.9105L120.747 43.3992C122.111 45.3073 124.461 46.2459 126.764 45.8022C129.067 45.3584 130.9 43.6136 131.457 41.3354L125.629 39.9105ZM51.1094 25.5414L51.1095 19.5414H51.1094L51.1094 25.5414ZM59.6133 27.2328L61.9095 21.6896L61.9094 21.6895L59.6133 27.2328ZM66.8223 32.0502L71.0649 27.8076L71.0649 27.8076L66.8223 32.0502ZM71.6396 39.2592L77.1829 36.9631L77.1829 36.9631L71.6396 39.2592ZM73.3311 47.7631L79.3311 47.7631L79.3311 47.763L73.3311 47.7631ZM66.8223 63.477L71.0649 67.7196L71.0649 67.7196L66.8223 63.477ZM51.1094 69.9857L51.1094 75.9857L51.1095 75.9857L51.1094 69.9857ZM35.3955 63.477L31.1529 67.7196L31.1529 67.7196L35.3955 63.477ZM28.8867 47.7631L22.8867 47.763V47.7631L28.8867 47.7631ZM30.5781 39.2592L25.0348 36.9631L25.0348 36.9631L30.5781 39.2592ZM35.3955 32.0502L31.1529 27.8076L31.1528 27.8076L35.3955 32.0502ZM42.6045 27.2328L40.3084 21.6895L40.3083 21.6896L42.6045 27.2328ZM141.047 22.2973L143.52 27.7638C150.167 24.7563 156.062 26.5155 160.872 29.5716C163.289 31.107 165.279 32.8936 166.684 34.3307C167.379 35.0419 167.913 35.6485 168.265 36.0672C168.44 36.276 168.569 36.4368 168.65 36.539C168.727 36.6366 168.759 36.6788 168.774 36.6989L173.549 33.0658L178.324 29.4327C178.343 29.458 178.294 29.3928 178.253 29.3395C178.206 29.2782 178.144 29.1988 178.068 29.1028C177.917 28.9111 177.71 28.6548 177.45 28.3456C176.931 27.7283 176.197 26.8952 175.264 25.9419C173.415 24.0499 170.714 21.6074 167.307 19.443C160.47 15.0993 150.19 11.5748 138.574 16.8307L141.047 22.2973ZM173.549 33.0658L168.687 36.5815C167.297 34.6591 167.369 32.0126 168.914 30.1646L173.518 34.0131L178.121 37.8616C180.119 35.4713 180.219 32.0503 178.411 29.5501L173.549 33.0658ZM173.518 34.0131L168.887 30.1979C170.364 28.4046 172.898 27.7723 175.089 28.7765L172.589 34.2309L170.089 39.6852C172.919 40.9826 176.218 40.1719 178.148 37.8283L173.518 34.0131ZM172.589 34.2309L175.381 28.9201C173.938 28.1613 162.575 23.6937 146.827 30.8168L149.3 36.2836L151.773 41.7504C163.615 36.3938 171.07 40.211 169.797 39.5416L172.589 34.2309ZM149.3 36.2836L146.828 30.8163C144.381 31.9225 142 33.3562 139.819 34.8543L143.216 39.8002L146.613 44.7461C148.416 43.5077 150.165 42.4771 151.771 41.7508L149.3 36.2836ZM143.216 39.8002L143.117 45.7994C146.612 45.8572 150.758 46.7667 155.548 49.2963L158.35 43.9906L161.151 38.685C154.821 35.3423 148.835 33.8924 143.315 33.801L143.216 39.8002ZM158.35 43.9906L155.547 49.2961C164.641 54.0988 168.001 61.9053 169.096 69.051C169.648 72.6539 169.595 75.9857 169.392 78.4454C169.291 79.6664 169.156 80.6487 169.048 81.3127C168.995 81.644 168.948 81.8942 168.917 82.0532C168.902 82.1326 168.89 82.1893 168.883 82.2221C168.88 82.2384 168.877 82.249 168.876 82.2539C168.875 82.2578 168.875 82.2579 168.874 82.2623L174.731 83.5639L180.589 84.8654C180.588 84.8662 180.59 84.857 180.593 84.8468C180.595 84.8361 180.598 84.8232 180.601 84.8082C180.608 84.7782 180.616 84.7411 180.625 84.697C180.644 84.609 180.667 84.4947 180.694 84.3553C180.749 84.0768 180.818 83.6985 180.894 83.2313C181.045 82.2981 181.222 81.0028 181.351 79.4319C181.609 76.3079 181.688 71.999 180.958 67.2336C179.488 57.6427 174.627 45.8025 161.152 38.6852L158.35 43.9906ZM174.731 83.5639L168.875 82.2607C169.37 80.0334 171.225 78.4311 173.416 78.1943L174.061 84.1596L174.705 90.1248C177.553 89.8169 179.95 87.7342 180.588 84.867L174.731 83.5639ZM174.061 84.1596L173.049 78.2454C175.892 77.7593 177.912 79.5324 178.672 81.1015L173.273 83.7191L167.875 86.3368C168.92 88.4926 171.554 90.6753 175.072 90.0737L174.061 84.1596ZM173.273 83.7191L178.699 81.158C178.445 80.6181 170.483 64.2201 152.966 54.4247L150.038 59.6615L147.11 64.8984C161.335 72.8531 167.944 86.485 167.848 86.2803L173.273 83.7191ZM150.038 59.6615L152.964 54.4235C146.04 50.5552 139.082 48.3466 133.507 47.0793L132.177 52.9301L130.847 58.7808C135.633 59.8687 141.444 61.7332 147.112 64.8996L150.038 59.6615ZM132.177 52.9301L126.675 55.3229C126.923 55.8938 127.179 56.4928 127.437 57.1306L132.997 54.8744L138.557 52.6182C138.247 51.8552 137.949 51.1578 137.679 50.5373L132.177 52.9301ZM132.997 54.8744L127.438 57.1311C127.71 57.8015 127.993 58.529 128.285 59.3098L133.906 57.2123L139.528 55.1149C139.198 54.2311 138.873 53.3974 138.557 52.6177L132.997 54.8744ZM133.906 57.2123L128.285 59.3112C128.838 60.7915 129.413 62.4514 129.977 64.2719L135.708 62.4965L141.439 60.7211C140.804 58.6696 140.155 56.7938 139.527 55.1134L133.906 57.2123ZM135.708 62.4965L133.184 57.0532C133.259 57.0185 133.325 56.9898 133.379 56.967C133.433 56.9442 133.479 56.9257 133.514 56.9119C133.532 56.905 133.548 56.8989 133.561 56.8939C133.574 56.8889 133.585 56.8847 133.594 56.8814C133.602 56.8782 133.609 56.8757 133.613 56.8741C133.617 56.8728 133.62 56.8716 133.619 56.8718C133.619 56.8718 133.619 56.8718 133.619 56.8719C133.619 56.8719 133.619 56.8719 133.619 56.872C133.619 56.8721 133.618 56.8723 133.618 56.8725C133.617 56.8729 133.615 56.8735 133.613 56.8744C133.608 56.876 133.601 56.8786 133.592 56.8819C133.584 56.8852 133.572 56.8895 133.559 56.8946C133.546 56.8996 133.53 56.9058 133.512 56.9128C133.477 56.9266 133.43 56.9453 133.376 56.9683C133.321 56.9912 133.255 57.0201 133.18 57.0549L135.703 62.4984L138.227 67.9419C138.152 67.9766 138.086 68.0053 138.032 68.0281C137.978 68.0509 137.932 68.0694 137.897 68.0831C137.879 68.09 137.863 68.0961 137.85 68.1011C137.837 68.1061 137.826 68.1103 137.817 68.1135C137.809 68.1167 137.802 68.1193 137.798 68.1208C137.794 68.1222 137.791 68.1234 137.792 68.1231C137.792 68.1231 137.792 68.1231 137.792 68.1231C137.792 68.123 137.792 68.123 137.792 68.1229C137.793 68.1228 137.793 68.1226 137.794 68.1224C137.795 68.122 137.796 68.1214 137.799 68.1205C137.803 68.1189 137.81 68.1163 137.819 68.113C137.828 68.1097 137.839 68.1054 137.852 68.1003C137.866 68.0952 137.881 68.0891 137.899 68.082C137.935 68.0682 137.981 68.0495 138.036 68.0265C138.09 68.0035 138.157 67.9746 138.232 67.9398L135.708 62.4965ZM135.703 62.4984L129.969 64.2637C129.979 64.2969 129.988 64.3262 129.996 64.3509C130.004 64.3756 130.011 64.3967 130.017 64.413C130.022 64.4292 130.027 64.4423 130.029 64.4503C130.031 64.4544 130.032 64.4577 130.033 64.4597C130.033 64.4607 130.033 64.4616 130.034 64.4621C130.034 64.4623 130.034 64.4626 130.034 64.4627C130.034 64.4628 130.034 64.4628 130.034 64.4629C130.034 64.4629 130.034 64.4629 130.034 64.4629C130.034 64.4632 130.033 64.4618 130.033 64.46C130.032 64.4581 130.031 64.4549 130.03 64.451C130.027 64.4432 130.023 64.4304 130.017 64.4144C130.012 64.3983 130.005 64.3774 129.997 64.353C129.989 64.3285 129.98 64.2994 129.97 64.2665L135.704 62.5014L141.439 60.7362C141.428 60.7031 141.419 60.6737 141.411 60.649C141.403 60.6243 141.396 60.6032 141.39 60.5869C141.385 60.5706 141.381 60.5575 141.378 60.5496C141.376 60.5455 141.375 60.5422 141.375 60.5401C141.374 60.5391 141.374 60.5383 141.374 60.5377C141.374 60.5375 141.374 60.5373 141.373 60.5371C141.373 60.537 141.373 60.5369 141.373 60.5369C141.373 60.5366 141.374 60.538 141.374 60.5398C141.375 60.5416 141.376 60.5448 141.378 60.5488C141.38 60.5565 141.385 60.5694 141.39 60.5853C141.395 60.6014 141.402 60.6223 141.41 60.6467C141.418 60.6711 141.427 60.7002 141.438 60.7331L135.703 62.4984ZM135.704 62.5014L129.972 64.2741C130.542 66.1167 131.097 68.1276 131.607 70.2886L137.446 68.9105L143.286 67.5325C142.711 65.0979 142.084 62.8238 141.436 60.7287L135.704 62.5014ZM137.446 68.9105H131.446V68.9115H137.446H143.446V68.9105H137.446ZM137.446 68.9115L139.733 74.4587C139.631 74.5007 139.534 74.5373 139.444 74.5693C139.353 74.6013 139.268 74.6288 139.19 74.6526C139.112 74.6763 139.039 74.6965 138.974 74.7137C138.909 74.7309 138.85 74.7453 138.798 74.7573C138.746 74.7693 138.699 74.7792 138.661 74.7872C138.622 74.7952 138.589 74.8017 138.563 74.8065C138.538 74.8113 138.518 74.815 138.505 74.8172C138.499 74.8183 138.494 74.8192 138.491 74.8198C138.488 74.8203 138.486 74.8207 138.486 74.8206C138.486 74.8206 138.486 74.8206 138.486 74.8206C138.486 74.8206 138.486 74.8206 138.486 74.8206C138.486 74.8206 138.486 74.8206 138.486 74.8205C138.487 74.8205 138.487 74.8204 138.487 74.8204C138.488 74.8202 138.489 74.82 138.491 74.8197C138.494 74.8192 138.499 74.8183 138.506 74.8171C138.518 74.8149 138.539 74.8111 138.564 74.8063C138.59 74.8014 138.623 74.7949 138.662 74.7869C138.701 74.7789 138.748 74.7689 138.8 74.7569C138.852 74.7448 138.912 74.7303 138.977 74.7131C139.042 74.6959 139.115 74.6756 139.193 74.6518C139.272 74.628 139.357 74.6003 139.448 74.5682C139.539 74.5362 139.636 74.4994 139.738 74.4573L137.45 68.9105L135.163 63.3638C135.265 63.3217 135.361 63.285 135.452 63.253C135.543 63.221 135.628 63.1934 135.706 63.1696C135.784 63.1459 135.857 63.1256 135.922 63.1085C135.987 63.0913 136.047 63.0768 136.099 63.0648C136.151 63.0528 136.197 63.0429 136.236 63.0349C136.274 63.0269 136.307 63.0204 136.333 63.0156C136.358 63.0108 136.379 63.0071 136.391 63.0049C136.398 63.0037 136.403 63.0028 136.406 63.0023C136.409 63.0018 136.411 63.0014 136.41 63.0015C136.41 63.0015 136.41 63.0015 136.41 63.0015C136.41 63.0015 136.41 63.0015 136.41 63.0015C136.41 63.0015 136.41 63.0015 136.41 63.0015C136.41 63.0016 136.41 63.0016 136.409 63.0017C136.408 63.0018 136.407 63.0021 136.405 63.0023C136.402 63.0029 136.397 63.0038 136.391 63.005C136.378 63.0072 136.358 63.0109 136.332 63.0158C136.306 63.0206 136.273 63.0271 136.234 63.0351C136.195 63.0432 136.149 63.0531 136.097 63.0652C136.045 63.0772 135.985 63.0917 135.92 63.1089C135.854 63.1261 135.782 63.1464 135.704 63.1701C135.625 63.1939 135.54 63.2215 135.449 63.2536C135.359 63.2856 135.262 63.3223 135.16 63.3643L137.446 68.9115ZM137.45 68.9105L131.611 70.2923C132.167 72.6401 132.663 75.1366 133.058 77.7833L138.992 76.8969L144.926 76.0105C144.477 73.0041 143.915 70.1763 143.289 67.5288L137.45 68.9105ZM138.992 76.8969L136.999 71.2377C137.131 71.1911 137.25 71.1545 137.35 71.1259C137.401 71.1116 137.447 71.099 137.49 71.0881C137.532 71.0772 137.57 71.0678 137.604 71.0598C137.637 71.0518 137.667 71.045 137.692 71.0394C137.718 71.0338 137.739 71.0292 137.756 71.0257C137.772 71.0223 137.786 71.0195 137.794 71.0179C137.798 71.0171 137.801 71.0164 137.803 71.016C137.805 71.0156 137.806 71.0153 137.806 71.0154C137.806 71.0154 137.806 71.0154 137.806 71.0154C137.806 71.0154 137.806 71.0154 137.806 71.0154C137.806 71.0154 137.806 71.0155 137.805 71.0155C137.805 71.0156 137.804 71.0158 137.803 71.016C137.801 71.0164 137.797 71.0171 137.793 71.018C137.785 71.0196 137.772 71.0224 137.755 71.0259C137.738 71.0294 137.716 71.0341 137.691 71.0397C137.666 71.0453 137.636 71.0521 137.602 71.0602C137.568 71.0682 137.53 71.0777 137.487 71.0886C137.445 71.0995 137.398 71.1121 137.348 71.1265C137.247 71.1552 137.128 71.1919 136.995 71.2385L138.988 76.8978L140.981 82.5572C140.849 82.6037 140.73 82.6403 140.63 82.6689C140.579 82.6832 140.533 82.6958 140.491 82.7067C140.449 82.7176 140.41 82.727 140.377 82.735C140.343 82.743 140.313 82.7498 140.288 82.7553C140.263 82.7609 140.241 82.7655 140.225 82.769C140.208 82.7725 140.195 82.7752 140.187 82.7768C140.183 82.7777 140.179 82.7783 140.177 82.7787C140.176 82.7791 140.174 82.7794 140.174 82.7794C140.174 82.7794 140.174 82.7793 140.174 82.7793C140.174 82.7793 140.175 82.7793 140.175 82.7793C140.175 82.7793 140.175 82.7792 140.175 82.7792C140.176 82.7791 140.177 82.7789 140.178 82.7787C140.18 82.7783 140.183 82.7776 140.187 82.7767C140.196 82.7751 140.209 82.7723 140.226 82.7688C140.243 82.7652 140.264 82.7606 140.29 82.755C140.315 82.7494 140.345 82.7425 140.379 82.7345C140.413 82.7265 140.451 82.717 140.493 82.7061C140.536 82.6951 140.582 82.6825 140.633 82.6681C140.734 82.6395 140.853 82.6027 140.986 82.556L138.992 76.8969ZM138.988 76.8978L133.054 77.7807C133.379 79.9699 133.626 82.281 133.789 84.6896L139.775 84.2836L145.762 83.8776C145.578 81.1757 145.299 78.5452 144.923 76.015L138.988 76.8978ZM139.775 84.2836L133.79 84.6955C133.917 86.5481 134.002 88.3759 134.002 90.2348L140.002 90.2348L146.002 90.2348C146.002 88.0136 145.9 85.8946 145.761 83.8717L139.775 84.2836ZM140.002 90.2348H134.002C134.002 90.2124 134.002 90.2006 134.002 90.2419C134.001 90.2563 134.001 90.2869 134 90.3174C134 90.3498 133.999 90.3926 133.999 90.4413L139.999 90.4652L145.999 90.4891C145.999 90.5022 145.999 90.5107 146 90.4588C146 90.4232 146.002 90.3344 146.002 90.2348H140.002ZM139.999 90.4652L133.999 90.4416C133.996 91.3092 133.985 91.5798 133.98 92.5424L139.979 92.5766L145.979 92.6107C145.982 92.1594 145.997 91.0597 145.999 90.4888L139.999 90.4652ZM139.979 92.5766L138.818 86.6901C138.975 86.6591 139.12 86.637 139.25 86.6211C139.38 86.6052 139.499 86.595 139.604 86.5884C139.709 86.5818 139.804 86.5786 139.887 86.5774C139.97 86.5761 140.044 86.5767 140.107 86.578C140.17 86.5794 140.226 86.5816 140.271 86.5838C140.316 86.586 140.355 86.5884 140.384 86.5904C140.413 86.5924 140.436 86.5942 140.45 86.5953C140.457 86.5958 140.463 86.5963 140.466 86.5966C140.469 86.5968 140.472 86.597 140.471 86.597C140.471 86.597 140.471 86.597 140.471 86.597C140.471 86.597 140.471 86.597 140.471 86.597C140.471 86.5969 140.47 86.5969 140.47 86.5969C140.469 86.5968 140.468 86.5967 140.466 86.5965C140.462 86.5962 140.456 86.5958 140.449 86.5952C140.435 86.5941 140.412 86.5923 140.382 86.5903C140.353 86.5883 140.314 86.5859 140.269 86.5837C140.223 86.5814 140.168 86.5792 140.104 86.5779C140.041 86.5765 139.967 86.5759 139.884 86.5771C139.801 86.5784 139.705 86.5816 139.6 86.5882C139.495 86.5948 139.376 86.605 139.245 86.6209C139.115 86.6368 138.97 86.6589 138.813 86.6899L139.974 92.5766L141.134 98.4632C140.978 98.4941 140.833 98.5162 140.703 98.5321C140.573 98.548 140.454 98.5582 140.349 98.5648C140.243 98.5714 140.148 98.5745 140.066 98.5758C139.983 98.577 139.909 98.5764 139.846 98.5751C139.783 98.5737 139.727 98.5715 139.682 98.5693C139.637 98.5671 139.598 98.5647 139.569 98.5627C139.54 98.5607 139.517 98.5589 139.503 98.5579C139.496 98.5573 139.49 98.5568 139.487 98.5566C139.484 98.5563 139.481 98.5561 139.482 98.5561C139.482 98.5561 139.482 98.5561 139.482 98.5561C139.482 98.5561 139.482 98.5561 139.482 98.5562C139.482 98.5562 139.483 98.5562 139.483 98.5562C139.484 98.5563 139.486 98.5564 139.487 98.5566C139.491 98.5569 139.497 98.5574 139.504 98.5579C139.518 98.559 139.542 98.5609 139.571 98.5628C139.6 98.5648 139.639 98.5672 139.685 98.5695C139.73 98.5717 139.786 98.5739 139.849 98.5753C139.912 98.5766 139.987 98.5772 140.07 98.576C140.153 98.5747 140.248 98.5715 140.354 98.5649C140.459 98.5583 140.578 98.5481 140.709 98.5321C140.839 98.5162 140.984 98.494 141.141 98.463L139.979 92.5766ZM139.974 92.5766L133.974 92.5234C133.952 94.9741 133.897 97.3207 133.807 99.5027L139.802 99.7504L145.797 99.9981C145.893 97.667 145.951 95.1891 145.973 92.6297L139.974 92.5766ZM139.802 99.7504L141.077 105.613C140.918 105.648 140.767 105.674 140.627 105.693C140.486 105.713 140.355 105.726 140.236 105.735C140.117 105.743 140.007 105.748 139.91 105.749C139.812 105.751 139.724 105.75 139.648 105.748C139.571 105.746 139.504 105.743 139.448 105.74C139.392 105.736 139.344 105.733 139.307 105.73C139.289 105.728 139.273 105.727 139.259 105.726C139.245 105.724 139.234 105.723 139.224 105.722C139.216 105.721 139.208 105.721 139.204 105.72C139.2 105.72 139.197 105.72 139.197 105.72C139.197 105.72 139.197 105.72 139.197 105.72C139.197 105.72 139.197 105.72 139.197 105.72C139.197 105.72 139.197 105.72 139.198 105.72C139.198 105.72 139.198 105.72 139.199 105.72C139.2 105.72 139.202 105.72 139.204 105.72C139.209 105.721 139.216 105.722 139.225 105.722C139.234 105.723 139.246 105.724 139.26 105.726C139.274 105.727 139.29 105.728 139.309 105.73C139.345 105.733 139.393 105.737 139.449 105.74C139.506 105.743 139.573 105.746 139.65 105.748C139.727 105.75 139.815 105.751 139.913 105.749C140.011 105.748 140.12 105.743 140.24 105.735C140.359 105.726 140.49 105.713 140.631 105.693C140.772 105.674 140.923 105.648 141.082 105.613L139.806 99.7504L138.529 93.8878C138.688 93.8531 138.839 93.827 138.98 93.8075C139.12 93.788 139.251 93.7749 139.371 93.7662C139.49 93.7575 139.599 93.7532 139.697 93.7514C139.795 93.7497 139.883 93.7505 139.959 93.7525C140.036 93.7544 140.103 93.7576 140.16 93.761C140.216 93.7643 140.263 93.7679 140.3 93.7709C140.318 93.7725 140.335 93.7739 140.348 93.7752C140.362 93.7764 140.374 93.7775 140.383 93.7784C140.392 93.7793 140.399 93.78 140.403 93.7804C140.407 93.7808 140.411 93.7812 140.41 93.7811C140.41 93.7811 140.41 93.7811 140.41 93.7811C140.41 93.7811 140.41 93.7811 140.41 93.7811C140.41 93.7811 140.41 93.7811 140.41 93.7811C140.409 93.781 140.409 93.781 140.408 93.7809C140.407 93.7808 140.406 93.7806 140.403 93.7804C140.399 93.78 140.391 93.7792 140.382 93.7784C140.373 93.7775 140.362 93.7764 140.348 93.7751C140.334 93.7738 140.318 93.7724 140.299 93.7709C140.262 93.7678 140.214 93.7642 140.158 93.7608C140.102 93.7575 140.034 93.7543 139.958 93.7523C139.881 93.7503 139.793 93.7495 139.695 93.7513C139.597 93.753 139.488 93.7574 139.368 93.766C139.249 93.7747 139.118 93.7878 138.977 93.8073C138.837 93.8268 138.686 93.8528 138.526 93.8875L139.802 99.7504ZM139.806 99.7504L133.811 99.4913C133.686 102.395 133.513 105.066 133.303 107.518L139.281 108.03L145.259 108.542C145.485 105.909 145.668 103.07 145.8 100.009L139.806 99.7504ZM139.281 108.03L138.497 102.081C138.595 102.068 138.687 102.059 138.773 102.051C138.859 102.044 138.939 102.039 139.012 102.036C139.086 102.032 139.153 102.031 139.214 102.03C139.274 102.029 139.329 102.03 139.377 102.031C139.425 102.031 139.467 102.033 139.503 102.034C139.538 102.035 139.569 102.037 139.592 102.038C139.615 102.039 139.634 102.04 139.645 102.041C139.651 102.041 139.656 102.042 139.659 102.042C139.661 102.042 139.663 102.042 139.663 102.042C139.663 102.042 139.663 102.042 139.663 102.042C139.663 102.042 139.663 102.042 139.663 102.042C139.663 102.042 139.663 102.042 139.663 102.042C139.662 102.042 139.662 102.042 139.662 102.042C139.661 102.042 139.66 102.042 139.658 102.042C139.655 102.041 139.651 102.041 139.645 102.041C139.634 102.04 139.615 102.039 139.591 102.038C139.568 102.037 139.537 102.035 139.502 102.034C139.466 102.032 139.423 102.031 139.375 102.03C139.327 102.03 139.272 102.029 139.211 102.03C139.151 102.031 139.083 102.032 139.01 102.036C138.936 102.039 138.856 102.044 138.77 102.051C138.684 102.058 138.591 102.068 138.493 102.081L139.277 108.03L140.061 113.978C139.963 113.991 139.871 114.001 139.785 114.008C139.699 114.015 139.619 114.02 139.546 114.024C139.473 114.027 139.405 114.029 139.345 114.029C139.284 114.03 139.229 114.03 139.181 114.029C139.134 114.028 139.091 114.027 139.056 114.025C139.02 114.024 138.99 114.023 138.966 114.022C138.943 114.02 138.924 114.019 138.913 114.019C138.907 114.018 138.903 114.018 138.9 114.018C138.897 114.018 138.895 114.017 138.896 114.017C138.896 114.017 138.896 114.017 138.896 114.017C138.896 114.017 138.896 114.017 138.896 114.017C138.896 114.017 138.897 114.017 138.897 114.017C138.898 114.018 138.899 114.018 138.9 114.018C138.903 114.018 138.908 114.018 138.914 114.019C138.925 114.019 138.944 114.02 138.967 114.022C138.991 114.023 139.021 114.024 139.057 114.026C139.093 114.027 139.136 114.028 139.184 114.029C139.232 114.03 139.287 114.03 139.347 114.029C139.408 114.029 139.476 114.027 139.549 114.024C139.623 114.02 139.703 114.015 139.789 114.008C139.875 114.001 139.968 113.991 140.066 113.978L139.281 108.03ZM139.277 108.03L133.299 107.518C133.288 107.645 133.283 107.759 133.28 107.855C133.278 107.903 133.278 107.947 133.277 107.987C133.277 108.027 133.277 108.063 133.278 108.095C133.278 108.126 133.279 108.155 133.279 108.178C133.28 108.202 133.28 108.222 133.281 108.238C133.281 108.254 133.282 108.266 133.282 108.274C133.282 108.278 133.283 108.281 133.283 108.283C133.283 108.284 133.283 108.285 133.283 108.285C133.283 108.285 133.283 108.286 133.283 108.286C133.283 108.286 133.283 108.286 133.283 108.286C133.283 108.286 133.283 108.286 133.283 108.286C133.283 108.286 133.283 108.285 133.283 108.283C133.283 108.281 133.282 108.278 133.282 108.275C133.282 108.267 133.281 108.255 133.281 108.239C133.28 108.224 133.28 108.204 133.279 108.18C133.279 108.157 133.278 108.129 133.278 108.097C133.277 108.065 133.277 108.029 133.278 107.99C133.278 107.95 133.279 107.906 133.28 107.858C133.283 107.763 133.288 107.65 133.299 107.522L139.277 108.035L145.255 108.547C145.266 108.419 145.272 108.305 145.275 108.21C145.276 108.162 145.277 108.117 145.277 108.078C145.278 108.038 145.277 108.001 145.277 107.97C145.277 107.938 145.276 107.91 145.276 107.886C145.275 107.862 145.274 107.842 145.274 107.826C145.273 107.811 145.273 107.798 145.272 107.79C145.272 107.786 145.272 107.783 145.272 107.781C145.272 107.78 145.272 107.78 145.272 107.779C145.272 107.779 145.272 107.779 145.272 107.778C145.272 107.778 145.272 107.778 145.272 107.778C145.272 107.778 145.272 107.778 145.272 107.778C145.272 107.778 145.272 107.779 145.272 107.781C145.272 107.783 145.272 107.786 145.272 107.79C145.273 107.797 145.273 107.81 145.274 107.825C145.274 107.84 145.275 107.861 145.276 107.884C145.276 107.908 145.277 107.936 145.277 107.967C145.277 107.999 145.277 108.035 145.277 108.074C145.277 108.114 145.276 108.158 145.275 108.206C145.272 108.301 145.266 108.414 145.255 108.542L139.277 108.03ZM139.277 108.035L133.298 107.534C133.101 109.89 132.87 112.051 132.623 114.007L138.575 114.759L144.528 115.511C144.796 113.388 145.045 111.059 145.256 108.536L139.277 108.035ZM138.575 114.759L132.622 114.007C132.208 117.287 131.758 119.973 131.339 122.122L137.229 123.27L143.118 124.418C143.588 122.007 144.08 119.057 144.528 115.511L138.575 114.759ZM137.229 123.27L131.339 122.125C131.013 123.802 130.706 125.148 130.456 126.156L136.281 127.595L142.106 129.034C142.401 127.841 142.752 126.299 143.118 124.415L137.229 123.27ZM136.281 127.595L134.926 133.44C149.771 136.881 156.728 142.068 159.404 145.144L163.931 141.205L168.457 137.267C163.627 131.715 154.092 125.565 137.636 121.75L136.281 127.595ZM163.931 141.205L161.615 146.74C162.508 147.114 163.217 147.468 163.761 147.787L166.794 142.61L169.826 137.433C168.728 136.789 167.522 136.204 166.247 135.671L163.931 141.205ZM166.794 142.61L164.324 148.078C168.235 149.845 170.842 151.593 172.385 153.119C173.914 154.63 174 155.498 174 155.719H180H186C186 151.244 183.758 147.489 180.822 144.585C177.899 141.696 173.903 139.237 169.264 137.142L166.794 142.61ZM180 155.719L174 155.719C174 156.014 173.776 157.543 170.408 159.964C167.182 162.282 162.029 164.677 154.856 166.813L156.568 172.564L158.281 178.314C166.11 175.983 172.673 173.114 177.412 169.707C182.01 166.402 186 161.742 186 155.719L180 155.719ZM156.568 172.564L154.856 166.813C140.566 171.069 120.828 173.541 100 173.541V179.541V185.541C121.606 185.541 142.565 182.994 158.281 178.314L156.568 172.564ZM100 179.541V173.541C79.1715 173.541 59.4337 171.069 45.144 166.813L43.4316 172.564L41.7193 178.314C57.4353 182.994 78.394 185.541 100 185.541V179.541ZM43.4316 172.564L45.144 166.813C37.971 164.677 32.8176 162.282 29.5921 159.964C26.2243 157.543 26 156.014 26 155.719L20 155.719L14 155.719C14.0002 161.742 17.9904 166.402 22.5876 169.707C27.3272 173.114 33.8896 175.983 41.7193 178.314L43.4316 172.564ZM20 155.719L26 155.719C26 155.424 26.2241 153.896 29.592 151.475C32.8174 149.156 37.9708 146.761 45.144 144.625L43.4316 138.874L41.7193 133.124C33.8895 135.455 27.3271 138.324 22.5875 141.731C17.9902 145.036 14 149.696 14 155.719L20 155.719ZM43.4316 138.874L45.144 144.625C48.8048 143.535 52.8435 142.557 57.1922 141.705L56.0391 135.817L54.8859 129.929C50.2202 130.842 45.8025 131.908 41.7193 133.124L43.4316 138.874ZM56.0391 135.817L60.2991 140.042C64.5153 135.791 74.9415 130 99.8887 130L99.8887 124L99.8887 118C73.4378 118 59.213 124.096 51.779 131.592L56.0391 135.817ZM99.8887 124V130C104.746 130 109.247 130.151 113.412 130.427L113.809 124.44L114.205 118.453C109.759 118.159 104.994 118 99.8887 118V124ZM113.809 124.44L119.317 126.817C119.796 125.709 120.5 124.236 121.574 121.842L116.1 119.386L110.625 116.93C109.735 118.914 108.794 120.918 108.3 122.062L113.809 124.44ZM116.1 119.386L121.576 121.838C121.735 121.483 121.897 121.113 122.047 120.772L116.558 118.351L111.068 115.93C110.905 116.299 110.764 116.62 110.623 116.934L116.1 119.386ZM116.558 118.351L122.047 120.772C122.218 120.385 122.391 119.989 122.565 119.586L117.059 117.204L111.552 114.821C111.386 115.203 111.225 115.573 111.068 115.93L116.558 118.351ZM117.059 117.204L122.565 119.586C122.849 118.931 123.144 118.24 123.444 117.519L117.905 115.212L112.367 112.905C112.093 113.563 111.82 114.201 111.552 114.821L117.059 117.204ZM117.905 115.212L123.444 117.52C123.528 117.318 123.615 117.109 123.702 116.896L118.153 114.614L112.605 112.331C112.526 112.521 112.447 112.712 112.367 112.905L117.905 115.212ZM118.153 114.614L123.702 116.896C124.076 115.988 124.457 115.038 124.838 114.05L119.241 111.888L113.644 109.727C113.298 110.623 112.95 111.492 112.604 112.331L118.153 114.614ZM119.241 111.888L124.84 114.046C125.583 112.117 126.328 110.053 127.029 107.888L121.321 106.039L115.613 104.191C114.99 106.115 114.321 107.97 113.643 109.73L119.241 111.888ZM121.321 106.039L127.032 107.879C127.902 105.181 128.677 102.347 129.311 99.4585L123.45 98.1723L117.59 96.886C117.041 99.3842 116.368 101.849 115.61 104.199L121.321 106.039ZM123.45 98.1723L129.31 99.4606C129.756 97.4343 130.134 95.3491 130.396 93.2234L124.441 92.4877L118.487 91.752C118.278 93.4395 117.971 95.1504 117.59 96.8839L123.45 98.1723ZM124.441 92.4877H130.441V92.4848H124.441H118.441V92.4877H124.441ZM124.441 92.4848L125.679 86.6139C125.663 86.6104 125.649 86.6075 125.638 86.6052C125.626 86.6029 125.617 86.601 125.609 86.5995C125.602 86.5981 125.596 86.597 125.593 86.5963C125.591 86.5959 125.59 86.5956 125.589 86.5955C125.588 86.5954 125.588 86.5953 125.588 86.5952C125.587 86.5952 125.587 86.5952 125.587 86.5952C125.587 86.595 125.589 86.5955 125.592 86.5961C125.595 86.5967 125.6 86.5978 125.607 86.5991C125.614 86.6005 125.624 86.6024 125.635 86.6046C125.646 86.6069 125.659 86.6097 125.675 86.6131L124.437 92.4838L123.198 98.3545C123.214 98.358 123.228 98.3609 123.24 98.3632C123.251 98.3655 123.261 98.3675 123.268 98.3689C123.275 98.3704 123.281 98.3715 123.285 98.3722C123.287 98.3726 123.288 98.3729 123.289 98.3731C123.29 98.3732 123.291 98.3734 123.291 98.3734C123.291 98.3735 123.289 98.3731 123.286 98.3725C123.283 98.3719 123.278 98.3708 123.271 98.3695C123.264 98.3681 123.255 98.3663 123.244 98.3641C123.233 98.3618 123.219 98.359 123.203 98.3557L124.441 92.4848ZM124.437 92.4838L130.392 93.2095C130.674 90.8956 130.846 88.4949 130.81 86.0739L124.811 86.1635L118.811 86.253C118.837 88.0009 118.714 89.8408 118.481 91.7581L124.437 92.4838ZM124.811 86.1635L130.81 86.0835C130.801 85.3955 130.762 84.4894 130.75 84.0568L124.752 84.2211L118.754 84.3854C118.778 85.2506 118.802 85.5982 118.811 86.2435L124.811 86.1635ZM124.752 84.2211L123.104 89.9902C123.131 89.998 123.155 90.0048 123.177 90.0107C123.199 90.0167 123.219 90.0219 123.236 90.0264C123.253 90.0309 123.269 90.0349 123.282 90.0384C123.296 90.0418 123.308 90.0448 123.318 90.0474C123.339 90.0523 123.355 90.0562 123.364 90.0584C123.369 90.0596 123.373 90.0605 123.375 90.0611C123.377 90.0613 123.378 90.0616 123.378 90.0617C123.378 90.0618 123.379 90.0619 123.379 90.0619C123.379 90.0619 123.379 90.062 123.379 90.062C123.38 90.0621 123.378 90.0617 123.376 90.0612C123.374 90.0607 123.37 90.0598 123.365 90.0587C123.357 90.0566 123.341 90.0528 123.321 90.0479C123.311 90.0454 123.299 90.0425 123.285 90.0391C123.272 90.0357 123.257 90.0318 123.239 90.0273C123.222 90.0228 123.203 90.0176 123.181 90.0118C123.16 90.0059 123.135 89.9992 123.108 89.9915L124.756 84.2221L126.403 78.4527C126.376 78.4449 126.352 78.4381 126.33 78.4322C126.308 78.4263 126.289 78.4211 126.271 78.4166C126.254 78.4121 126.238 78.4081 126.225 78.4047C126.211 78.4013 126.199 78.3983 126.189 78.3957C126.169 78.3908 126.153 78.3869 126.143 78.3847C126.139 78.3836 126.135 78.3826 126.132 78.3821C126.131 78.3818 126.13 78.3816 126.13 78.3814C126.129 78.3814 126.129 78.3813 126.129 78.3813C126.129 78.3812 126.129 78.3812 126.129 78.3812C126.129 78.3812 126.129 78.3812 126.129 78.3812C126.128 78.3811 126.13 78.3815 126.132 78.382C126.134 78.3825 126.138 78.3834 126.143 78.3845C126.152 78.3866 126.167 78.3904 126.187 78.3953C126.197 78.3978 126.209 78.4008 126.223 78.4042C126.236 78.4076 126.252 78.4115 126.269 78.416C126.286 78.4205 126.306 78.4257 126.327 78.4316C126.349 78.4374 126.373 78.4442 126.4 78.4519L124.752 84.2211ZM124.756 84.2221L130.753 84.0429C130.698 82.2076 130.621 80.4212 130.509 78.6911L124.521 79.0795L118.534 79.4679C118.635 81.0242 118.707 82.6662 118.759 84.4012L124.756 84.2221ZM124.521 79.0795L130.509 78.6961C130.475 78.1634 130.438 77.6434 130.4 77.1437L124.417 77.5902L118.434 78.0368C118.469 78.5173 118.503 78.9903 118.534 79.4629L124.521 79.0795ZM124.417 77.5902L130.4 77.1439C130.287 75.6305 130.155 74.1706 130.004 72.7663L124.038 73.4066L118.072 74.0469C118.209 75.3183 118.33 76.6489 118.434 78.0366L124.417 77.5902ZM124.038 73.4066L130.004 72.7661C129.912 71.9156 129.815 71.0805 129.71 70.2627L123.759 71.0277L117.808 71.7928C117.901 72.5175 117.989 73.2688 118.072 74.0472L124.038 73.4066ZM123.759 71.0277L129.71 70.263C129.711 70.2752 129.713 70.2842 129.713 70.2876C129.713 70.2902 129.713 70.2919 129.713 70.2859C129.712 70.282 129.711 70.2707 129.709 70.2582C129.708 70.245 129.705 70.2263 129.703 70.2042L123.752 70.9721L117.801 71.7399C117.8 71.7271 117.798 71.7176 117.798 71.7137C117.798 71.7104 117.797 71.7085 117.798 71.7139C117.798 71.7172 117.8 71.7282 117.801 71.7401C117.803 71.7528 117.805 71.771 117.808 71.7925L123.759 71.0277ZM123.752 70.9721L129.702 70.2002C129.46 68.3355 129.194 66.5941 128.908 64.9496L122.997 65.977L117.086 67.0043C117.342 68.4769 117.582 70.0479 117.802 71.7439L123.752 70.9721ZM122.997 65.977L127.24 61.7343L127.239 61.7333L122.996 65.976L118.753 70.2186L118.754 70.2196L122.997 65.977ZM122.996 65.976L122.395 60.0062C122.28 60.0178 122.174 60.0318 122.078 60.0466C121.983 60.0614 121.895 60.0773 121.818 60.0928C121.74 60.1084 121.669 60.1241 121.608 60.1388C121.546 60.1535 121.491 60.1676 121.443 60.1803C121.396 60.193 121.354 60.2047 121.32 60.2147C121.286 60.2247 121.257 60.2335 121.234 60.2403C121.212 60.2471 121.195 60.2527 121.184 60.2561C121.178 60.2578 121.174 60.2592 121.171 60.26C121.17 60.2605 121.169 60.2608 121.168 60.2611C121.168 60.2612 121.168 60.2613 121.167 60.2613C121.167 60.2613 121.167 60.2614 121.167 60.2614C121.167 60.2614 121.167 60.2614 121.167 60.2614C121.167 60.2614 121.167 60.2614 121.167 60.2614C121.167 60.2615 121.169 60.2609 121.171 60.2601C121.174 60.2593 121.178 60.2579 121.183 60.2562C121.194 60.2529 121.212 60.2473 121.234 60.2406C121.256 60.2338 121.285 60.2251 121.319 60.2151C121.353 60.2052 121.394 60.1935 121.442 60.1809C121.489 60.1682 121.544 60.1541 121.605 60.1394C121.667 60.1248 121.737 60.1092 121.815 60.0936C121.892 60.0781 121.98 60.0622 122.075 60.0475C122.17 60.0327 122.276 60.0187 122.392 60.0071L122.992 65.977L123.593 71.9468C123.708 71.9352 123.814 71.9212 123.91 71.9064C124.005 71.8916 124.093 71.8757 124.17 71.8601C124.248 71.8446 124.319 71.8289 124.38 71.8142C124.442 71.7995 124.497 71.7854 124.545 71.7727C124.592 71.76 124.634 71.7482 124.668 71.7382C124.702 71.7283 124.732 71.7195 124.754 71.7126C124.776 71.7059 124.794 71.7003 124.804 71.6969C124.81 71.6952 124.814 71.6937 124.817 71.6929C124.818 71.6924 124.819 71.6921 124.82 71.6919C124.82 71.6918 124.821 71.6917 124.821 71.6916C124.821 71.6916 124.821 71.6916 124.821 71.6915C124.821 71.6915 124.821 71.6915 124.821 71.6915C124.822 71.6914 124.82 71.692 124.817 71.6928C124.815 71.6936 124.81 71.695 124.805 71.6967C124.794 71.7 124.777 71.7056 124.755 71.7123C124.733 71.7191 124.704 71.7278 124.67 71.7378C124.635 71.7477 124.594 71.7594 124.547 71.772C124.5 71.7847 124.445 71.7988 124.383 71.8134C124.321 71.8281 124.251 71.8437 124.174 71.8593C124.096 71.8748 124.009 71.8906 123.914 71.9054C123.818 71.9202 123.712 71.9342 123.597 71.9458L122.996 65.976ZM122.992 65.977L128.903 64.9464C128.344 61.7373 127.72 58.9547 127.101 56.6037L121.299 58.1322L115.497 59.6607C116.028 61.6761 116.579 64.1262 117.081 67.0075L122.992 65.977ZM121.299 58.1322L117.18 53.7688C112.663 58.0326 107.621 63.149 103.101 68.585L107.714 72.4213L112.327 76.2576C116.44 71.3124 121.115 66.5558 125.417 62.4956L121.299 58.1322ZM107.714 72.4213L103.1 68.5855C96.5263 76.4927 92.0017 85.0618 89.1239 91.5999C87.6776 94.8857 86.6287 97.7011 85.933 99.7243C85.5848 100.737 85.3241 101.554 85.1455 102.135C85.0562 102.426 84.9874 102.658 84.9385 102.826C84.8889 102.997 84.8591 103.104 84.8591 103.104L90.6338 104.733L96.4085 106.362C96.4089 106.36 100.964 89.9251 112.328 76.257L107.714 72.4213ZM90.6338 104.733L84.834 103.196C85.384 101.12 87.1337 99.614 89.2259 99.3488L89.9805 105.301L90.735 111.254C93.4582 110.908 95.7234 108.949 96.4336 106.27L90.6338 104.733ZM89.9805 105.301L89.6684 99.3093L89.5746 99.3142L89.8867 105.306L90.1988 111.298L90.2925 111.293L89.9805 105.301ZM89.8867 105.306L89.8904 99.3061C91.6922 99.3071 93.4903 100.26 94.4561 102.004L89.207 104.911L83.9579 107.817C85.1992 110.059 87.5217 111.305 89.8831 111.306L89.8867 105.306ZM89.207 104.911L94.4779 102.044C94.4718 102.033 94.4658 102.022 94.4495 101.991C94.432 101.958 94.4031 101.904 94.3638 101.828C94.2851 101.675 94.1649 101.437 94.013 101.12C93.7089 100.485 93.2804 99.5387 92.8072 98.3379C91.8556 95.9235 90.7506 92.5497 90.0893 88.6547C88.7623 80.838 89.2865 71.4802 95.7247 63.2283L90.9941 59.5375L86.2636 55.8467C77.0353 67.6748 76.5971 80.8768 78.2586 90.6633C79.0917 95.5699 80.4687 99.7585 81.6429 102.738C82.2325 104.234 82.7779 105.442 83.1904 106.304C83.3969 106.735 83.5706 107.08 83.7008 107.332C83.7659 107.458 83.82 107.561 83.8617 107.639C83.8825 107.678 83.9001 107.711 83.914 107.737C83.9263 107.759 83.9408 107.786 83.9361 107.777L89.207 104.911ZM90.9941 59.5375L95.7253 63.2275C100.147 57.5585 104.718 54.3034 108.907 52.4522L106.481 46.9643L104.056 41.4763C97.9593 44.1708 91.8342 48.7045 86.263 55.8475L90.9941 59.5375ZM106.481 46.9643L107.577 41.0651C106.411 40.8485 105.207 40.6279 103.969 40.4077L102.918 46.3148L101.867 52.222C103.065 52.4354 104.238 52.6503 105.386 52.8634L106.481 46.9643ZM102.918 46.3148L103.971 40.408C86.9265 37.3685 76.309 44.4647 75.3364 45.1939L78.9355 49.9945L82.5347 54.7952C81.7409 55.3903 89.0526 49.9369 101.865 52.2217L102.918 46.3148ZM78.9355 49.9945L75.4551 45.1071C77.4136 43.7125 80.0592 43.8431 81.8682 45.388L77.9717 49.9506L74.0751 54.5131C76.4352 56.5288 79.871 56.6942 82.416 54.8819L78.9355 49.9945ZM77.9717 49.9506L81.9487 45.458C83.6977 47.0063 84.273 49.6417 83.0742 51.856L77.7979 48.9994L72.5215 46.1429C70.9763 48.997 71.7035 52.4149 73.9946 54.4432L77.9717 49.9506ZM77.7979 48.9994L83.0979 51.8117C83.0005 51.9953 85.625 47.136 90.3717 42.7317C95.1191 38.3269 101.172 35.0794 108.381 36.3643L109.434 30.4574L110.486 24.5505C98.0465 22.3332 88.3392 28.2478 82.2097 33.9351C76.0797 39.6229 72.7107 45.7858 72.4978 46.1871L77.7979 48.9994ZM109.434 30.4574L108.382 36.3646C114.338 37.4247 118.253 39.9088 120.747 43.3992L125.629 39.9105L130.51 36.4219C125.858 29.9124 118.911 26.0502 110.485 24.5503L109.434 30.4574ZM125.629 39.9105L131.457 41.3354C132.882 35.5075 136.777 30.8122 143.519 27.7645L141.047 22.2973L138.575 16.83C128.899 21.2045 122.207 28.6426 119.801 38.4857L125.629 39.9105ZM51.1094 25.5414L51.1093 31.5414C53.2398 31.5414 55.3494 31.961 57.3172 32.7761L59.6133 27.2328L61.9094 21.6895C58.4852 20.2712 54.8152 19.5415 51.1095 19.5414L51.1094 25.5414ZM59.6133 27.2328L57.3171 32.7761C59.2847 33.5911 61.073 34.7862 62.5796 36.2928L66.8223 32.0502L71.0649 27.8076C68.4447 25.1873 65.3338 23.108 61.9095 21.6896L59.6133 27.2328ZM66.8223 32.0502L62.5796 36.2928C64.0864 37.7996 65.2814 39.5877 66.0964 41.5553L71.6396 39.2592L77.1829 36.9631C75.7644 33.5385 73.6851 30.4278 71.0649 27.8076L66.8223 32.0502ZM71.6396 39.2592L66.0964 41.5553C66.9115 43.5232 67.331 45.6326 67.3311 47.7631L73.3311 47.7631L79.3311 47.763C79.331 44.0572 78.6013 40.3873 77.1829 36.9631L71.6396 39.2592ZM73.3311 47.7631H67.3311C67.3311 52.0656 65.6218 56.1921 62.5796 59.2343L66.8223 63.477L71.0649 67.7196C76.3577 62.4268 79.3311 55.248 79.3311 47.7631L73.3311 47.7631ZM66.8223 63.477L62.5797 59.2343C59.5374 62.2765 55.4113 63.9857 51.1093 63.9857L51.1094 69.9857L51.1095 75.9857C58.5943 75.9856 65.7724 73.012 71.0649 67.7196L66.8223 63.477ZM51.1094 69.9857L51.1094 63.9857C46.807 63.9857 42.6803 62.2765 39.6381 59.2343L35.3955 63.477L31.1529 67.7196C36.4456 73.0123 43.6245 75.9857 51.1094 75.9857L51.1094 69.9857ZM35.3955 63.477L39.6381 59.2343C36.5959 56.1921 34.8867 52.0656 34.8867 47.7631H28.8867L22.8867 47.7631C22.8867 55.248 25.8601 62.4268 31.1529 67.7196L35.3955 63.477ZM28.8867 47.7631L34.8867 47.7631C34.8867 45.6326 35.3063 43.5232 36.1214 41.5553L30.5781 39.2592L25.0348 36.9631C23.6165 40.3873 22.8868 44.0572 22.8867 47.763L28.8867 47.7631ZM30.5781 39.2592L36.1214 41.5553C36.9364 39.5877 38.1314 37.7996 39.6382 36.2928L35.3955 32.0502L31.1528 27.8076C28.5327 30.4278 26.4534 33.5385 25.0348 36.9631L30.5781 39.2592ZM35.3955 32.0502L39.6381 36.2928C41.1448 34.7862 42.9331 33.5911 44.9007 32.776L42.6045 27.2328L40.3083 21.6896C36.884 23.108 33.7731 25.1873 31.1529 27.8076L35.3955 32.0502ZM42.6045 27.2328L44.9006 32.7761C46.8684 31.961 48.9786 31.5414 51.1094 31.5414L51.1094 25.5414L51.1094 19.5414C47.4036 19.5414 43.7329 20.2711 40.3084 21.6895L42.6045 27.2328Z" fill="white" mask="url(#path-1-outside-1_1062_22060)"/>
<path d="M20 155.719C20 162.037 28.4285 168.096 43.4315 172.564C58.4344 177.031 78.7827 179.541 100 179.541C121.217 179.541 141.566 177.031 156.569 172.564C171.571 168.096 180 162.037 180 155.719C180 149.401 171.571 143.342 156.569 138.874C141.566 134.407 121.217 131.897 100 131.897C78.7827 131.897 58.4344 134.407 43.4315 138.874C28.4285 143.342 20 149.401 20 155.719Z" fill="#4B9AE8"/>
<path d="M46.7045 164.617C45.4775 166.62 41.5862 169.018 39.14 167.945C36.6939 166.873 35.6816 162.223 36.5862 159.878C37.4888 157.538 39.9022 156.737 43.5517 158.343C47.2413 159.966 47.9315 162.613 46.7045 164.617Z" fill="#EAC00F"/>
<path d="M170.277 146.821C170.277 154.004 159.166 158.319 105.913 158.319C57.3573 158.319 45.415 154.004 45.415 146.821C45.415 139.639 70.6728 133.817 105.913 133.817C141.153 133.817 170.277 139.639 170.277 146.821Z" fill="#88C9F9"/>
<path d="M51 146.222C51 141.778 55.4444 124 99.8889 124C153.222 124 166.556 141.778 166.556 146.222C166.556 150.667 166.556 155.111 104.333 155.111C51 155.111 51 150.667 51 146.222Z" fill="#F3BB71"/>
<path d="M28.8867 47.7634C28.8867 53.6571 31.228 59.3094 35.3955 63.4768C39.5629 67.6443 45.2152 69.9856 51.1089 69.9856C57.0026 69.9856 62.6549 67.6443 66.8224 63.4768C70.9899 59.3094 73.3312 53.6571 73.3312 47.7634C73.3312 44.8451 72.7564 41.9554 71.6396 39.2593C70.5228 36.5632 68.8859 34.1134 66.8224 32.0499C64.7589 29.9864 62.3091 28.3495 59.613 27.2327C56.9169 26.1159 54.0272 25.5411 51.1089 25.5411C48.1907 25.5411 45.301 26.1159 42.6049 27.2327C39.9087 28.3495 37.459 29.9864 35.3955 32.0499C33.3319 34.1134 31.6951 36.5632 30.5783 39.2593C29.4615 41.9554 28.8867 44.8451 28.8867 47.7634Z" fill="#FFCC4D"/>
<path d="M33.335 47.7635C33.335 50.0981 33.7948 52.4099 34.6882 54.5668C35.5816 56.7237 36.8911 58.6835 38.542 60.3343C40.1928 61.9851 42.1526 63.2946 44.3095 64.188C46.4664 65.0814 48.7781 65.5413 51.1127 65.5413C53.4473 65.5413 55.7591 65.0814 57.916 64.188C60.0729 63.2946 62.0327 61.9851 63.6835 60.3343C65.3343 58.6835 66.6438 56.7237 67.5373 54.5668C68.4307 52.4099 68.8905 50.0981 68.8905 47.7635C68.8905 45.4289 68.4307 43.1171 67.5373 40.9602C66.6438 38.8033 65.3343 36.8435 63.6835 35.1927C62.0327 33.5419 60.0729 32.2324 57.916 31.339C55.7591 30.4456 53.4473 29.9857 51.1127 29.9857C48.7781 29.9857 46.4664 30.4456 44.3095 31.339C42.1526 32.2324 40.1928 33.5419 38.542 35.1927C36.8911 36.8435 35.5816 38.8033 34.6882 40.9602C33.7948 43.1171 33.335 45.4289 33.335 47.7635Z" fill="#FFAC33"/>
<path d="M139.775 84.2838C139.602 81.7282 139.339 79.2571 138.988 76.8971C138.566 74.0704 138.037 71.4082 137.446 68.9104C136.904 66.6127 136.313 64.4704 135.704 62.5015C134.793 59.5415 133.851 56.9771 132.997 54.8749C131.322 50.746 130.002 48.386 130.002 48.386L118.522 49.866C118.522 49.866 119.846 52.6304 121.282 58.0482C121.864 60.2482 122.459 62.8927 122.997 65.9771C123.268 67.5371 123.522 69.1949 123.753 70.9771C124.073 73.4571 124.335 76.1638 124.522 79.0793C124.628 80.7238 124.704 82.4393 124.757 84.226C124.775 84.8749 124.806 85.5015 124.815 86.1682C124.846 88.2527 124.699 90.3727 124.442 92.4882C124.206 94.3949 123.864 96.2926 123.451 98.1726C122.859 100.866 122.135 103.515 121.322 106.039C120.659 108.084 119.953 110.044 119.242 111.888C118.148 114.719 117.051 117.262 116.099 119.386C114.508 122.933 113.335 125.297 113.335 125.79C113.335 127.35 114.446 130.266 122.224 132.208C134.384 135.248 135.557 130.235 135.557 130.235C135.557 130.235 136.331 127.888 137.228 123.27C137.673 120.99 138.144 118.173 138.575 114.759C138.833 112.719 139.073 110.475 139.277 108.035C139.495 105.493 139.673 102.737 139.802 99.7549C139.895 97.4971 139.953 95.0838 139.975 92.5771C139.984 91.7949 140.002 91.0393 140.002 90.2349C140.002 88.1949 139.908 86.2215 139.775 84.2838Z" fill="#C1694F"/>
<path d="M128.108 114.928C123.65 114.15 120.806 112.852 119.246 111.879C118.152 114.71 117.055 117.252 116.104 119.377C119.015 120.959 122.712 122.221 126.721 122.915C129.037 123.319 131.335 123.519 133.49 123.519C134.806 123.519 136.041 123.417 137.228 123.266C137.672 120.986 138.144 118.168 138.575 114.755C137.161 115.257 133.655 115.897 128.108 114.928ZM131.477 100.075C128.001 99.7324 125.33 98.968 123.455 98.1635C122.864 100.857 122.139 103.506 121.326 106.03C124.072 107.066 127.304 107.812 130.686 108.146C132.05 108.279 133.401 108.346 134.721 108.346C136.317 108.346 137.832 108.221 139.281 108.03C139.499 105.488 139.677 102.732 139.806 99.7502C137.806 100.186 135.006 100.426 131.477 100.075ZM132.459 93.3013C135.072 93.3013 137.637 93.0391 139.979 92.5769C139.984 91.7946 140.001 91.0391 140.001 90.2346C140.001 88.1991 139.908 86.2257 139.775 84.2835C138.095 84.7235 135.69 85.1457 132.299 85.1946C128.855 85.1813 126.432 84.7013 124.752 84.2213C124.77 84.8702 124.801 85.4969 124.81 86.1635C124.841 88.248 124.695 90.368 124.437 92.4835C126.859 92.9946 129.539 93.288 132.259 93.3013H132.459ZM131.668 78.7546C134.29 78.3769 136.721 77.6969 138.992 76.8969C138.57 74.0702 138.041 71.408 137.45 68.9102C135.877 69.5591 133.641 70.2791 130.517 70.728C127.624 71.1457 125.419 71.1191 123.752 70.9724C124.072 73.4524 124.335 76.1591 124.521 79.0746C125.006 79.0924 125.441 79.168 125.939 79.168C127.806 79.168 129.748 79.0302 131.668 78.7546ZM135.708 62.4969C134.792 59.5413 133.85 56.9769 132.997 54.8746C131.588 55.5813 129.806 56.3235 127.477 56.968C124.952 57.6702 122.912 57.9502 121.277 58.048C121.859 60.248 122.455 62.8924 122.992 65.9769C125.157 65.7591 127.388 65.408 129.646 64.7813C131.806 64.1813 133.81 63.3769 135.708 62.4969Z" fill="#D99E82"/>
<path d="M173.549 33.066C173.407 32.8794 159.318 14.0305 141.047 22.2971C132.838 26.0082 127.545 32.0749 125.629 39.9105C122.056 34.9105 116.625 31.7371 109.434 30.4571C89.7847 26.9549 77.9136 48.7816 77.798 48.9994C77.6247 49.3194 77.7002 49.7105 77.9713 49.9505C78.2469 50.186 78.6424 50.2038 78.9358 49.9949C79.0247 49.9282 87.9891 43.6527 102.918 46.3149C118.176 49.0305 128.874 51.6971 128.98 51.7238C129.047 51.7371 129.105 51.746 129.171 51.746C129.385 51.746 129.594 51.6571 129.745 51.4971C129.842 51.3905 139.98 40.4971 149.3 36.2838C163.096 30.0438 172.505 34.186 172.589 34.2305C172.909 34.3771 173.291 34.2882 173.518 34.0127C173.745 33.7416 173.758 33.3549 173.549 33.066Z" fill="#3E721D"/>
<path d="M158.349 43.9904C144.421 36.6349 133.594 40.2971 126.869 44.7638C118.812 43.2038 103.754 43.1771 90.9939 59.5371C75.3272 79.6171 89.0694 104.657 89.2072 104.91C89.345 105.159 89.6072 105.306 89.8872 105.306L89.9805 105.302C90.2961 105.262 90.5539 105.035 90.6339 104.733C90.6828 104.559 95.5094 87.1015 107.714 72.4215C114.385 64.3993 122.349 56.9815 127.954 52.0971C133.598 53.0349 141.892 55.1104 150.038 59.6615C165.918 68.5415 173.203 83.5682 173.274 83.7193C173.416 84.0126 173.723 84.2171 174.061 84.1593C174.389 84.1238 174.661 83.8838 174.732 83.5638C174.794 83.2838 180.918 55.9104 158.349 43.9904Z" fill="#5C913B"/>
<path d="M31.462 158.924C34.4785 158.924 36.9239 156.479 36.9239 153.462C36.9239 150.445 34.4785 148 31.462 148C28.4454 148 26 150.445 26 153.462C26 156.479 28.4454 158.924 31.462 158.924Z" fill="white"/>
<path d="M31.4641 156.374C33.072 156.374 34.3755 155.07 34.3755 153.462C34.3755 151.854 33.072 150.551 31.4641 150.551C29.8562 150.551 28.5527 151.854 28.5527 153.462C28.5527 155.07 29.8562 156.374 31.4641 156.374Z" fill="#040000"/>
<path d="M55.462 168.924C58.4785 168.924 60.9239 166.479 60.9239 163.462C60.9239 160.445 58.4785 158 55.462 158C52.4454 158 50 160.445 50 163.462C50 166.479 52.4454 168.924 55.462 168.924Z" fill="white"/>
<path d="M55.4641 166.374C57.072 166.374 58.3755 165.07 58.3755 163.462C58.3755 161.854 57.072 160.551 55.4641 160.551C53.8562 160.551 52.5527 161.854 52.5527 163.462C52.5527 165.07 53.8562 166.374 55.4641 166.374Z" fill="#040000"/>
</svg>
