<svg width="200" height="200" viewBox="0 0 200 200" fill="none" xmlns="http://www.w3.org/2000/svg">
<mask id="path-1-outside-1_1347_10827" maskUnits="userSpaceOnUse" x="13.2119" y="14.8096" width="174" height="174" fill="black">
<rect fill="white" x="13.2119" y="14.8096" width="174" height="174"/>
<path d="M104.21 40.0713C123.126 21.1589 146.737 16.329 163.648 28.4404C164.027 28.1614 164.433 27.9086 164.866 27.6865C168.843 25.6435 177.47 27.4136 179.618 31.7139C181.345 35.1711 179.295 41.0765 176.358 44.3193C182.963 60.4795 176.952 80.6844 160.884 96.749C143.883 113.75 132.547 109.972 121.211 121.303C109.871 132.643 109.871 147.753 94.7617 162.871C73.3515 184.281 44.2894 187.97 28.6348 172.315C12.9847 156.665 17.2992 126.982 38.0879 106.193C53.1975 91.0792 68.3118 91.0788 79.6475 79.7432C90.9827 68.4122 87.2046 57.0768 104.21 40.0713Z"/>
</mask>
<path d="M104.21 40.0713C123.126 21.1589 146.737 16.329 163.648 28.4404C164.027 28.1614 164.433 27.9086 164.866 27.6865C168.843 25.6435 177.47 27.4136 179.618 31.7139C181.345 35.1711 179.295 41.0765 176.358 44.3193C182.963 60.4795 176.952 80.6844 160.884 96.749C143.883 113.75 132.547 109.972 121.211 121.303C109.871 132.643 109.871 147.753 94.7617 162.871C73.3515 184.281 44.2894 187.97 28.6348 172.315C12.9847 156.665 17.2992 126.982 38.0879 106.193C53.1975 91.0792 68.3118 91.0788 79.6475 79.7432C90.9827 68.4122 87.2046 57.0768 104.21 40.0713Z" fill="#C1694F"/>
<path d="M104.21 40.0713L99.9678 35.8282L99.9673 35.8287L104.21 40.0713ZM163.648 28.4404L160.155 33.3185C162.269 34.8326 165.118 34.8125 167.21 33.2687L163.648 28.4404ZM164.866 27.6865L167.603 33.026L167.608 33.0234L164.866 27.6865ZM179.618 31.7139L184.986 29.0324L184.985 29.0321L179.618 31.7139ZM176.358 44.3193L171.911 40.2917C170.361 42.0031 169.931 44.452 170.804 46.5892L176.358 44.3193ZM160.884 96.749L156.642 92.5059L156.641 92.5064L160.884 96.749ZM121.211 121.303L116.969 117.059L116.968 117.06L121.211 121.303ZM94.7617 162.871L99.0044 167.114L99.0057 167.112L94.7617 162.871ZM28.6348 172.315L24.3921 176.558L24.3921 176.558L28.6348 172.315ZM38.0879 106.193L42.3305 110.436L42.3312 110.435L38.0879 106.193ZM79.6475 79.7432L75.4056 75.4997L75.4048 75.5005L79.6475 79.7432ZM104.21 40.0713L108.452 44.3144C126.191 26.579 146.533 23.5631 160.155 33.3185L163.648 28.4404L167.142 23.5624C146.941 9.0948 120.062 15.7387 99.9678 35.8282L104.21 40.0713ZM163.648 28.4404L167.21 33.2687C167.33 33.1807 167.46 33.0992 167.603 33.026L164.866 27.6865L162.129 22.347C161.406 22.7179 160.724 23.142 160.086 23.6122L163.648 28.4404ZM164.866 27.6865L167.608 33.0234C167.578 33.0387 167.926 32.8776 168.778 32.8447C169.574 32.8139 170.528 32.9082 171.484 33.1451C172.447 33.3839 173.234 33.7234 173.769 34.0602C174.33 34.4136 174.348 34.5907 174.251 34.3956L179.618 31.7139L184.985 29.0321C182.736 24.53 177.914 22.3762 174.372 21.4978C170.746 20.5987 165.929 20.3952 162.124 22.3497L164.866 27.6865ZM179.618 31.7139L174.251 34.3953C174.145 34.1836 174.45 34.7701 173.97 36.4426C173.537 37.9533 172.711 39.4081 171.911 40.2917L176.358 44.3193L180.806 48.3469C182.942 45.9878 184.611 42.8684 185.505 39.7514C186.352 36.7962 186.819 32.7014 184.986 29.0324L179.618 31.7139ZM176.358 44.3193L170.804 46.5892C176.194 59.776 171.644 77.507 156.642 92.5059L160.884 96.749L165.126 100.992C182.26 83.8617 189.732 61.1829 181.912 42.0494L176.358 44.3193ZM160.884 96.749L156.641 92.5064C148.907 100.24 142.614 103.17 136.66 105.595C130.605 108.061 123.664 110.367 116.969 117.059L121.211 121.303L125.453 125.546C130.093 120.908 134.489 119.437 141.186 116.709C147.984 113.94 155.859 110.259 165.126 100.992L160.884 96.749ZM121.211 121.303L116.968 117.06C110.399 123.629 107.137 131.331 103.963 138.133C100.726 145.069 97.3055 151.838 90.5178 158.63L94.7617 162.871L99.0057 167.112C107.327 158.786 111.461 150.441 114.837 143.207C118.275 135.839 120.683 130.316 125.454 125.545L121.211 121.303ZM94.7617 162.871L90.5191 158.628C70.2836 178.864 45.1706 180.366 32.8774 168.073L28.6348 172.315L24.3921 176.558C43.4082 195.574 76.4195 189.699 99.0044 167.114L94.7617 162.871ZM28.6348 172.315L32.8774 168.073C26.6946 161.89 24.1156 152.613 25.6358 142.035C27.1559 131.457 32.7677 119.999 42.3305 110.436L38.0879 106.193L33.8453 101.951C22.6193 113.177 15.6796 126.955 13.7578 140.328C11.836 153.701 14.9248 167.091 24.3921 176.558L28.6348 172.315ZM38.0879 106.193L42.3312 110.435C49.1183 103.646 55.8857 100.225 62.8205 96.9883C69.6203 93.8147 77.3229 90.553 83.8901 83.9858L79.6475 79.7432L75.4048 75.5005C70.6364 80.2689 65.114 82.6753 57.7454 86.1143C50.5117 89.4904 42.1672 93.6263 33.8446 101.951L38.0879 106.193ZM79.6475 79.7432L83.8893 83.9866C90.5849 77.2935 92.8914 70.3546 95.3588 64.2993C97.7852 58.3446 100.717 52.05 108.453 44.3139L104.21 40.0713L99.9673 35.8287C90.698 45.098 87.0157 52.9739 84.246 59.771C81.5173 66.4675 80.0453 70.8618 75.4056 75.4997L79.6475 79.7432Z" fill="white" mask="url(#path-1-outside-1_1347_10827)"/>
<path d="M94.7614 162.871C73.3512 184.281 44.2893 187.97 28.6347 172.315C12.9846 156.665 17.2991 126.982 38.0878 106.193C53.1974 91.0789 68.3116 91.0789 79.6472 79.7433C90.9828 68.4121 87.2043 57.0765 104.21 40.0708C124.99 19.2956 151.435 15.5126 168.441 32.5138C185.437 49.5194 181.195 76.4421 160.884 96.7489C143.882 113.75 132.547 109.972 121.211 121.303C109.871 132.643 109.871 147.752 94.7614 162.871Z" fill="#D99E82"/>
<path d="M174.095 46.1439C178.074 44.105 181.767 36.0137 179.619 31.7135C177.47 27.4132 168.843 25.6438 164.867 27.6868C160.888 29.7258 159.07 34.1958 162.277 40.6127C165.523 47.1031 170.119 48.1869 174.095 46.1439Z" fill="#EAC00F"/>
<path d="M143 51C148.523 51 153 46.5229 153 41C153 35.4772 148.523 31 143 31C137.477 31 133 35.4772 133 41C133 46.5229 137.477 51 143 51Z" fill="white"/>
<path d="M142.845 47.0676C146.156 47.0676 148.84 44.3834 148.84 41.0724C148.84 37.7613 146.156 35.0771 142.845 35.0771C139.534 35.0771 136.85 37.7613 136.85 41.0724C136.85 44.3834 139.534 47.0676 142.845 47.0676Z" fill="black"/>
<path d="M54.0222 117.285C52.563 117.285 51.1264 116.578 50.2617 115.268C48.8881 113.196 49.4555 110.399 51.5317 109.026C54.6032 106.995 58.0079 105.184 61.6423 103.653C79.3776 96.8255 92.7263 84.7018 96.613 71.961C97.3381 69.5786 99.8601 68.2275 102.233 68.9661C104.616 69.6912 105.953 72.2087 105.233 74.5866C100.554 89.926 85.1467 104.261 65.011 112.007C62.0161 113.268 59.1113 114.813 56.5037 116.538C55.7381 117.047 54.8779 117.285 54.0222 117.285ZM31.3059 157.534H31.2068C28.7208 157.48 26.7482 155.418 26.7978 152.936C27.0095 143.19 28.5317 130.796 38.5117 121.402C40.3267 119.704 43.1775 119.789 44.8798 121.595C46.5867 123.406 46.4966 126.257 44.6907 127.964C37.1876 135.021 35.9897 144.645 35.8095 153.13C35.7555 155.58 33.7469 157.534 31.3059 157.534ZM49.8834 154.341C49.5141 154.341 49.1358 154.296 48.762 154.202C46.3525 153.585 44.8979 151.13 45.5148 148.721C48.0459 138.853 53.5403 124.955 71.9736 118.213C74.302 117.367 76.8961 118.56 77.7473 120.897C78.603 123.235 77.4005 125.82 75.0631 126.676C60.7821 131.895 56.4316 142.393 54.2339 150.959C53.725 152.99 51.892 154.341 49.8834 154.341ZM129.449 104.617C127.593 104.617 125.855 103.459 125.202 101.613C124.373 99.2665 125.607 96.6949 127.949 95.8662C147.22 89.0658 158.794 75.8296 163.33 55.4147C163.87 52.9827 166.289 51.4785 168.702 51.9964C171.13 52.5369 172.661 54.9418 172.125 57.3693C166.928 80.7431 153.075 96.5553 130.944 104.365C130.453 104.531 129.944 104.617 129.449 104.617Z" fill="#C1694F"/>
<path d="M127.201 87.9131C125.413 87.9131 123.715 86.8322 123.013 85.0668C122.099 82.7519 123.229 80.1353 125.544 79.2211C133.299 76.1496 140.757 69.0294 144.099 61.4994C145.112 59.2385 147.76 58.2027 150.044 59.2115C152.318 60.2248 153.336 62.882 152.331 65.1563C148.026 74.8436 138.812 83.6527 128.858 87.5933C128.314 87.814 127.755 87.9131 127.201 87.9131ZM87.9791 120.38C86.2002 120.38 84.5203 119.326 83.8087 117.578C82.8675 115.273 83.9754 112.647 86.2767 111.706C90.5777 109.949 95.1894 105.648 96.4819 103.455C97.743 101.311 100.513 100.595 102.647 101.861C104.796 103.122 105.507 105.883 104.242 108.026C101.931 111.958 95.8469 117.529 89.6815 120.046C89.123 120.276 88.5466 120.38 87.9791 120.38ZM105.994 63.3323C105.507 63.3323 105.003 63.2513 104.516 63.0801C102.166 62.265 100.923 59.6979 101.738 57.3515C103.539 52.1633 107.295 47.1958 111.303 44.6873C113.416 43.3678 116.194 44.0118 117.509 46.1195C118.829 48.2272 118.185 51.0059 116.082 52.3255C114.186 53.5099 111.502 56.7075 110.25 60.3059C109.601 62.1659 107.858 63.3323 105.994 63.3323ZM46.1269 173.662C43.9202 173.662 41.9971 172.05 41.6774 169.802C41.3891 167.771 41.6773 164.159 42.1187 162.187C42.6591 159.759 45.0866 158.269 47.4915 158.769C49.919 159.309 51.4502 161.718 50.9098 164.146C50.6215 165.434 50.5045 167.857 50.599 168.537C50.9413 170.996 49.2254 173.279 46.7619 173.622C46.5458 173.649 46.3341 173.662 46.1269 173.662Z" fill="#C1694F"/>
</svg>
