<svg width="200" height="200" viewBox="0 0 200 200" fill="none" xmlns="http://www.w3.org/2000/svg">
<mask id="path-1-outside-1_898_3578" maskUnits="userSpaceOnUse" x="22.5106" y="45.9999" width="155" height="108" fill="black">
<rect fill="white" x="22.5106" y="45.9999" width="155" height="108"/>
<path d="M101.41 74.6879C110.214 72.336 138.905 35.9105 163.621 62.9301C188.337 89.9498 135.255 124.854 106.105 145.822C103.171 148.565 88.7326 142.294 49.7627 118.779C10.7932 95.2635 36.2644 55.8755 57.9795 55.8754C79.6946 55.8754 92.6067 77.0395 101.41 74.6879Z"/>
</mask>
<path d="M101.41 74.6879C110.214 72.336 138.905 35.9105 163.621 62.9301C188.337 89.9498 135.255 124.854 106.105 145.822C103.171 148.565 88.7326 142.294 49.7627 118.779C10.7932 95.2635 36.2644 55.8755 57.9795 55.8754C79.6946 55.8754 92.6067 77.0395 101.41 74.6879Z" fill="#F5DB74"/>
<path d="M101.41 74.6879L103.186 81.3365L103.186 81.3364L101.41 74.6879ZM163.621 62.9301L168.699 58.2853L168.699 58.2853L163.621 62.9301ZM106.105 145.822L102.087 140.235L101.728 140.493L101.406 140.795L106.105 145.822ZM49.7627 118.779L46.2072 124.671L46.2073 124.671L49.7627 118.779ZM57.9795 55.8754L57.9795 48.9938L57.9794 48.9938L57.9795 55.8754ZM101.41 74.6879L103.186 81.3364C105.579 80.6973 107.873 79.2021 109.533 78.0439C111.379 76.757 113.485 75.1154 115.569 73.5104C119.902 70.1721 124.667 66.5806 129.771 63.875C134.887 61.1633 139.775 59.6572 144.332 59.9088C148.631 60.1462 153.431 61.9862 158.543 67.5749L163.621 62.9301L168.699 58.2853C161.453 50.3642 153.398 46.6251 145.091 46.1665C137.042 45.7221 129.572 48.4032 123.325 51.7144C117.067 55.0317 111.464 59.2989 107.169 62.6074C104.938 64.3259 103.166 65.7048 101.661 66.7546C99.9709 67.933 99.4426 68.0906 99.6339 68.0394L101.41 74.6879ZM163.621 62.9301L158.543 67.5749C163.098 72.5536 163.882 77.373 162.507 82.5733C160.986 88.3291 156.677 94.872 150.046 101.935C136.802 116.04 116.982 129.521 102.087 140.235L106.105 145.822L110.124 151.408C124.378 141.155 145.674 126.699 160.08 111.356C167.273 103.694 173.423 95.1344 175.813 86.0912C178.351 76.4925 176.502 66.8164 168.699 58.2853L163.621 62.9301ZM106.105 145.822L101.406 140.795C102.613 139.666 103.834 139.554 104.028 139.543C104.217 139.531 103.995 139.572 103.149 139.369C101.467 138.965 98.675 137.943 94.3779 135.921C85.8729 131.918 72.7776 124.629 53.3181 112.887L49.7627 118.779L46.2073 124.671C65.7177 136.444 79.3264 144.048 88.5168 148.374C93.0673 150.515 96.8712 152.017 99.9393 152.752C101.468 153.119 103.16 153.383 104.853 153.281C106.551 153.179 108.865 152.663 110.805 150.849L106.105 145.822ZM49.7627 118.779L53.3181 112.887C44.6026 107.628 40.052 101.838 37.9567 96.5109C35.8609 91.1819 35.9846 85.7203 37.6506 80.6615C39.3372 75.5403 42.5802 70.9435 46.481 67.6663C50.4308 64.348 54.5819 62.7571 57.9795 62.7571L57.9795 55.8754L57.9794 48.9938C50.5195 48.9938 43.3435 52.3264 37.6278 57.1283C31.8633 61.9712 27.1024 68.691 24.578 76.3563C22.033 84.0839 21.7386 92.8784 25.1484 101.548C28.5589 110.22 35.438 118.172 46.2072 124.671L49.7627 118.779ZM57.9795 55.8754L57.9795 62.7571C66.5483 62.7571 73.6854 66.9021 80.5545 71.7759C83.6874 73.9988 87.3455 76.8162 90.4533 78.6594C93.427 80.4232 98.0714 82.7027 103.186 81.3365L101.41 74.6879L99.6342 68.0394C100.347 67.8489 100.076 68.3648 97.4743 66.8216C95.0066 65.358 92.4288 63.3253 88.5188 60.5511C81.3023 55.4307 71.1258 48.9938 57.9795 48.9938L57.9795 55.8754Z" fill="white" mask="url(#path-1-outside-1_898_3578)"/>
<path d="M163.621 62.9301C188.338 89.9499 135.255 124.854 106.106 145.822C103.171 148.565 88.7335 142.294 49.7636 118.779C10.7937 95.2637 36.265 55.8756 57.9801 55.8756C79.6953 55.8756 92.607 77.0394 101.41 74.6878C110.214 72.3362 138.905 35.9104 163.621 62.9301Z" fill="#F6A1A1"/>
<path d="M56.5714 89.1636C63.7195 89.1636 69.5142 83.4503 69.5142 76.4026C69.5142 69.3549 63.7195 63.6416 56.5714 63.6416C49.4232 63.6416 43.6285 69.3549 43.6285 76.4026C43.6285 83.4503 49.4232 89.1636 56.5714 89.1636Z" fill="white"/>
<path d="M56.0593 83.2306C59.9578 83.2306 63.1182 80.1167 63.1182 76.2755C63.1182 72.4342 59.9578 69.3203 56.0593 69.3203C52.1607 69.3203 49.0003 72.4342 49.0003 76.2755C49.0003 80.1167 52.1607 83.2306 56.0593 83.2306Z" fill="black"/>
<path d="M144.103 89.1636C151.251 89.1636 157.046 83.4503 157.046 76.4026C157.046 69.3549 151.251 63.6416 144.103 63.6416C136.955 63.6416 131.16 69.3549 131.16 76.4026C131.16 83.4503 136.955 89.1636 144.103 89.1636Z" fill="white"/>
<path d="M143.591 83.2306C147.49 83.2306 150.65 80.1167 150.65 76.2755C150.65 72.4342 147.49 69.3203 143.591 69.3203C139.693 69.3203 136.532 72.4342 136.532 76.2755C136.532 80.1167 139.693 83.2306 143.591 83.2306Z" fill="black"/>
<path d="M118.397 102.977C117.817 110.926 107.516 122.607 99.3152 122.045C91.1147 121.484 82.6076 108.526 83.1868 100.566C83.7661 92.6174 89.6041 86.5292 101.848 87.3659C114.092 88.2026 118.987 95.0174 118.408 102.977H118.397Z" fill="#F5DB74"/>
</svg>
