<svg width="200" height="200" viewBox="0 0 200 200" fill="none" xmlns="http://www.w3.org/2000/svg">
<mask id="path-1-outside-1_898_2634" maskUnits="userSpaceOnUse" x="13.9998" y="37" width="171" height="135" fill="black">
<rect fill="white" x="13.9998" y="37" width="171" height="135"/>
<path d="M66.5566 45.1504C69.4244 42.2831 74.0714 42.2833 76.9394 45.1504L78.8212 47.0537L80.5712 45.3037C83.4588 42.4162 88.1349 42.4163 91.0224 45.3037L108.446 62.7275C111.334 65.6106 111.335 70.2918 108.442 73.1748L106.536 75.0801L174.682 143.992C179.456 148.772 179.457 156.519 174.677 161.298L174.558 161.416C169.778 166.196 162.032 166.196 157.257 161.416L89.1582 92.5508C80.4109 102.16 77.9805 111.751 78.5986 122.656C78.6008 122.657 78.6032 122.658 78.6054 122.658C78.8418 126.817 79.507 131.163 80.458 135.78C56.0661 139.264 17.7381 100.937 21.2216 76.5449C25.6467 77.4321 29.614 77.8558 33.3144 77.7871L34.3261 77.7549C44.097 77.3218 52.0035 73.2414 61.3642 64.4443L59.5156 62.5752C56.6476 59.7073 56.6476 55.0603 59.5156 52.1924L66.5566 45.1504Z"/>
</mask>
<path d="M66.5566 45.1504C69.4244 42.2831 74.0714 42.2833 76.9394 45.1504L78.8212 47.0537L80.5712 45.3037C83.4588 42.4162 88.1349 42.4163 91.0224 45.3037L108.446 62.7275C111.334 65.6106 111.335 70.2918 108.442 73.1748L106.536 75.0801L174.682 143.992C179.456 148.772 179.457 156.519 174.677 161.298L174.558 161.416C169.778 166.196 162.032 166.196 157.257 161.416L89.1582 92.5508C80.4109 102.16 77.9805 111.751 78.5986 122.656C78.6008 122.657 78.6032 122.658 78.6054 122.658C78.8418 126.817 79.507 131.163 80.458 135.78C56.0661 139.264 17.7381 100.937 21.2216 76.5449C25.6467 77.4321 29.614 77.8558 33.3144 77.7871L34.3261 77.7549C44.097 77.3218 52.0035 73.2414 61.3642 64.4443L59.5156 62.5752C56.6476 59.7073 56.6476 55.0603 59.5156 52.1924L66.5566 45.1504Z" fill="#CAE3FF"/>
<path d="M66.5566 45.1504L62.3143 40.9074L62.3137 40.9081L66.5566 45.1504ZM76.9394 45.1504L81.2061 40.9319C81.1979 40.9236 81.1896 40.9153 81.1814 40.9071L76.9394 45.1504ZM78.8212 47.0537L74.5546 51.2722C75.6776 52.408 77.207 53.0492 78.8042 53.0537C80.4014 53.0582 81.9345 52.4258 83.0639 51.2964L78.8212 47.0537ZM91.0224 45.3037L95.2651 41.0611L95.265 41.061L91.0224 45.3037ZM108.446 62.7275L104.204 66.9702L104.207 66.9739L108.446 62.7275ZM108.442 73.1748L104.207 68.9252L104.201 68.9311L108.442 73.1748ZM106.536 75.0801L102.295 70.8364C99.9596 73.1701 99.9486 76.9516 102.27 79.2989L106.536 75.0801ZM174.682 143.992L170.415 148.211C170.422 148.218 170.43 148.226 170.437 148.233L174.682 143.992ZM174.677 161.298L178.902 165.558C178.908 165.552 178.913 165.546 178.919 165.541L174.677 161.298ZM174.558 161.416L170.332 157.156C170.327 157.162 170.321 157.167 170.315 157.173L174.558 161.416ZM157.257 161.416L152.99 165.635C152.998 165.642 153.005 165.649 153.012 165.656L157.257 161.416ZM89.1582 92.5508L93.4245 88.332C92.2671 87.1616 90.6798 86.5181 89.0342 86.5521C87.3886 86.5861 85.8292 87.2946 84.7212 88.5118L89.1582 92.5508ZM78.5986 122.656L72.6082 122.996C72.7489 125.478 74.4061 127.617 76.7749 128.372L78.5986 122.656ZM78.6054 122.658L84.5958 122.318C84.4547 119.835 82.7973 117.697 80.4285 116.942L78.6054 122.658ZM80.458 135.78L81.3063 141.72C82.9447 141.486 84.4137 140.586 85.3658 139.232C86.3179 137.878 86.6685 136.191 86.3346 134.57L80.458 135.78ZM21.2216 76.5449L22.4012 70.662C20.7837 70.3377 19.1041 70.6937 17.7573 71.6461C16.4104 72.5986 15.5151 74.0636 15.2819 75.6967L21.2216 76.5449ZM33.3144 77.7871L33.4258 83.7861C33.4524 83.7856 33.4789 83.7849 33.5054 83.7841L33.3144 77.7871ZM34.3261 77.7549L34.5172 83.7519C34.542 83.7511 34.5669 83.7501 34.5918 83.749L34.3261 77.7549ZM61.3642 64.4443L65.4732 68.8166C66.6521 67.7086 67.3337 66.1715 67.3632 64.554C67.3928 62.9364 66.7679 61.3755 65.6302 60.2252L61.3642 64.4443ZM59.5156 62.5752L63.7816 58.356C63.7738 58.3482 63.766 58.3404 63.7582 58.3326L59.5156 62.5752ZM59.5156 52.1924L63.7582 56.435L63.7585 56.4347L59.5156 52.1924ZM66.5566 45.1504L70.7989 49.3934C71.3233 48.869 72.1721 48.8686 72.6974 49.3937L76.9394 45.1504L81.1814 40.9071C75.9707 35.6981 67.5255 35.6971 62.3143 40.9074L66.5566 45.1504ZM76.9394 45.1504L72.6728 49.3689L74.5546 51.2722L78.8212 47.0537L83.0879 42.8352L81.2061 40.9319L76.9394 45.1504ZM78.8212 47.0537L83.0639 51.2964L84.8139 49.5464L80.5712 45.3037L76.3286 41.0611L74.5786 42.8111L78.8212 47.0537ZM80.5712 45.3037L84.8139 49.5464C85.3582 49.002 86.2354 49.002 86.7798 49.5464L91.0224 45.3037L95.265 41.061C90.0344 35.8305 81.5593 35.8304 76.3286 41.0611L80.5712 45.3037ZM91.0224 45.3037L86.7798 49.5464L104.204 66.9702L108.446 62.7275L112.689 58.4849L95.2651 41.0611L91.0224 45.3037ZM108.446 62.7275L104.207 66.9739C104.747 67.513 104.747 68.387 104.207 68.9252L108.442 73.1748L112.678 77.4245C117.923 72.1966 117.921 63.7081 112.685 58.4812L108.446 62.7275ZM108.442 73.1748L104.201 68.9311L102.295 70.8364L106.536 75.0801L110.778 79.3238L112.684 77.4185L108.442 73.1748ZM106.536 75.0801L102.27 79.2989L170.415 148.211L174.682 143.992L178.948 139.773L110.802 70.8612L106.536 75.0801ZM174.682 143.992L170.437 148.233C172.871 150.669 172.871 154.619 170.434 157.055L174.677 161.298L178.919 165.541C186.042 158.418 186.042 146.874 178.926 139.752L174.682 143.992ZM174.677 161.298L170.452 157.038L170.332 157.156L174.558 161.416L178.783 165.676L178.902 165.558L174.677 161.298ZM174.558 161.416L170.315 157.173C167.877 159.611 163.931 159.608 161.502 157.176L157.257 161.416L153.012 165.656C160.132 172.784 171.678 172.78 178.8 165.659L174.558 161.416ZM157.257 161.416L161.523 157.197L93.4245 88.332L89.1582 92.5508L84.8918 96.7696L152.99 165.635L157.257 161.416ZM89.1582 92.5508L84.7212 88.5118C74.7493 99.4663 71.9114 110.702 72.6082 122.996L78.5986 122.656L84.589 122.317C84.0496 112.8 86.0726 104.853 93.5951 96.5898L89.1582 92.5508ZM78.5986 122.656L76.7749 128.372C76.8193 128.387 76.8587 128.399 76.8913 128.408C76.9239 128.418 76.9519 128.426 76.9733 128.432C76.9946 128.438 77.0118 128.443 77.0223 128.446C77.0276 128.447 77.032 128.448 77.0347 128.449C77.0361 128.449 77.0372 128.45 77.0379 128.45C77.0383 128.45 77.0386 128.45 77.0388 128.45C77.0389 128.45 77.0391 128.45 77.0391 128.45C77.0396 128.45 77.0378 128.45 77.0356 128.449C77.0332 128.449 77.0292 128.447 77.0241 128.446C77.0143 128.443 76.9977 128.439 76.977 128.433C76.9563 128.427 76.9289 128.419 76.8969 128.41C76.8649 128.4 76.8262 128.389 76.7823 128.375L78.6054 122.658L80.4285 116.942C80.3841 116.928 80.3449 116.916 80.3122 116.906C80.2797 116.896 80.2518 116.888 80.2304 116.882C80.2092 116.876 80.192 116.872 80.1816 116.869C80.1763 116.867 80.1719 116.866 80.1693 116.866C80.1679 116.865 80.1668 116.865 80.1661 116.865C80.1657 116.865 80.1654 116.865 80.1652 116.864C80.1651 116.864 80.1649 116.864 80.1649 116.864C80.1644 116.864 80.1663 116.865 80.1685 116.865C80.1709 116.866 80.1749 116.867 80.18 116.868C80.1899 116.871 80.2066 116.876 80.2273 116.882C80.2481 116.887 80.2755 116.895 80.3075 116.905C80.3396 116.914 80.3784 116.926 80.4223 116.94L78.5986 122.656ZM78.6054 122.658L72.6151 122.999C72.8735 127.546 73.5946 132.2 74.5813 136.991L80.458 135.78L86.3346 134.57C85.4195 130.127 84.81 126.088 84.5958 122.318L78.6054 122.658ZM80.458 135.78L79.6096 129.841C75.1775 130.474 69.4862 129.248 63.1053 126.058C56.809 122.91 50.3533 118.097 44.6291 112.373C38.905 106.649 34.0923 100.194 30.9441 93.8974C27.7537 87.5166 26.5284 81.8254 27.1614 77.3932L21.2216 76.5449L15.2819 75.6967C14.1731 83.4604 16.4325 91.707 20.2111 99.264C24.0318 106.905 29.6726 114.387 36.1439 120.859C42.6153 127.33 50.0974 132.97 57.7389 136.791C65.2959 140.57 73.5425 142.829 81.3063 141.72L80.458 135.78ZM21.2216 76.5449L20.0421 82.4278C24.7771 83.3772 29.1888 83.8648 33.4258 83.7861L33.3144 77.7871L33.203 71.7882C30.0391 71.8469 26.5163 71.4871 22.4012 70.662L21.2216 76.5449ZM33.3144 77.7871L33.5054 83.7841L34.5172 83.7519L34.3261 77.7549L34.1351 71.7579L33.1234 71.7902L33.3144 77.7871ZM34.3261 77.7549L34.5918 83.749C46.2837 83.2307 55.4873 78.2011 65.4732 68.8166L61.3642 64.4443L57.2552 60.0721C48.5197 68.2817 41.9103 71.4128 34.0604 71.7608L34.3261 77.7549ZM61.3642 64.4443L65.6302 60.2252L63.7816 58.356L59.5156 62.5752L55.2496 66.7944L57.0982 68.6635L61.3642 64.4443ZM59.5156 62.5752L63.7582 58.3326C63.2334 57.8078 63.2334 56.9598 63.7582 56.435L59.5156 52.1924L55.2729 47.9498C50.0618 53.1609 50.0618 61.6067 55.2729 66.8178L59.5156 62.5752ZM59.5156 52.1924L63.7585 56.4347L70.7995 49.3927L66.5566 45.1504L62.3137 40.9081L55.2726 47.95L59.5156 52.1924Z" fill="white" mask="url(#path-1-outside-1_898_2634)"/>
<path d="M174.676 161.297L174.558 161.416C169.778 166.196 162.032 166.196 157.257 161.416L59.5152 62.5751C56.6473 59.7071 56.6473 55.0602 59.5152 52.1923L66.5569 45.1506C69.4248 42.2831 74.0718 42.2831 76.9397 45.1506L174.681 143.992C179.456 148.771 179.456 156.518 174.676 161.297Z" fill="#4B9AE8"/>
<path d="M108.447 62.7276L91.0225 45.3036C88.135 42.4161 83.4585 42.4161 80.5709 45.3036L63.1514 62.7276C52.6652 73.0367 44.1798 77.5847 33.3142 77.787C32.4716 85.5382 36.5911 103.376 43.007 110.566C51.3449 119.909 65.4032 122.86 78.5998 122.659C77.9394 111.014 80.7531 100.868 91.0225 90.5987L108.442 73.1747C111.335 70.2917 111.335 65.6106 108.447 62.7276Z" fill="#276288"/>
<path d="M57.3348 94.7021C62.134 94.524 65.8802 90.489 65.7021 85.6898C65.524 80.8905 61.489 77.1444 56.6898 77.3225C51.8906 77.5006 48.1444 81.5356 48.3225 86.3348C48.5006 91.134 52.5356 94.8802 57.3348 94.7021Z" fill="white"/>
<path d="M57.1842 90.6401C59.7402 90.5452 61.7353 88.3963 61.6404 85.8403C61.5456 83.2844 59.3967 81.2893 56.8407 81.3841C54.2848 81.479 52.2897 83.6279 52.3845 86.1839C52.4794 88.7398 54.6283 90.7349 57.1842 90.6401Z" fill="#040000"/>
<path d="M33.3145 77.7867C29.614 77.8555 25.647 77.4319 21.2219 76.5447C17.7382 100.937 56.0659 139.264 80.4578 135.781C79.5068 131.163 78.8414 126.817 78.6051 122.658C56.8342 115.715 38.6559 97.6647 33.3145 77.7867Z" fill="#CAE3FF"/>
</svg>
