<svg width="200" height="200" viewBox="0 0 200 200" fill="none" xmlns="http://www.w3.org/2000/svg">
<mask id="path-1-outside-1_1062_25575" maskUnits="userSpaceOnUse" x="36" y="14" width="128" height="172" fill="black">
<rect fill="white" x="36" y="14" width="128" height="172"/>
<path d="M111.801 35.7998C114.617 31.8577 124.19 19.4684 129.821 21.1572C135.453 22.8467 137.706 38.6154 139.396 45.9365C149.028 60.3857 145.889 78.9533 143.018 88.2539C145.262 87.8069 149.301 89.1394 144.381 95.4189C144.234 95.6061 144.079 95.7921 143.918 95.9785C143.945 96.0261 143.972 96.0735 143.999 96.121C144.155 96.079 144.31 96.0576 144.463 96.0576C152.751 101.908 156.711 110.713 155.243 123.934C162.072 152.427 151.736 172.101 141.648 175.464C128.132 179.969 93.2157 181.659 62.2413 174.338C40.5762 169.217 45.0859 135.442 51.1026 112.519C37.5194 103.878 43.1642 80.0067 43.6573 78.0371C40.8415 69.5898 40.8415 60.5792 49.8516 55.5107C54.766 52.7464 58.5637 52.6174 60.959 53.2314C62.4144 50.028 64.1711 46.9036 66.1836 43.6835C66.1838 41.992 67.8737 22.2834 75.1944 21.1572C81.0513 20.2563 89.6492 30.5436 93.2159 35.7998C103.915 34.1104 108.422 35.7998 111.801 35.7998Z"/>
</mask>
<path d="M111.801 35.7998C114.617 31.8577 124.19 19.4684 129.821 21.1572C135.453 22.8467 137.706 38.6154 139.396 45.9365C149.028 60.3857 145.889 78.9533 143.018 88.2539C145.262 87.8069 149.301 89.1394 144.381 95.4189C144.234 95.6061 144.079 95.7921 143.918 95.9785C143.945 96.0261 143.972 96.0735 143.999 96.121C144.155 96.079 144.31 96.0576 144.463 96.0576C152.751 101.908 156.711 110.713 155.243 123.934C162.072 152.427 151.736 172.101 141.648 175.464C128.132 179.969 93.2157 181.659 62.2413 174.338C40.5762 169.217 45.0859 135.442 51.1026 112.519C37.5194 103.878 43.1642 80.0067 43.6573 78.0371C40.8415 69.5898 40.8415 60.5792 49.8516 55.5107C54.766 52.7464 58.5637 52.6174 60.959 53.2314C62.4144 50.028 64.1711 46.9036 66.1836 43.6835C66.1838 41.992 67.8737 22.2834 75.1944 21.1572C81.0513 20.2563 89.6492 30.5436 93.2159 35.7998C103.915 34.1104 108.422 35.7998 111.801 35.7998Z" fill="#1F4D6A"/>
<path d="M111.801 35.7998V41.7998C113.739 41.7998 115.557 40.864 116.683 39.2872L111.801 35.7998ZM129.821 21.1572L131.545 15.4102L131.545 15.41L129.821 21.1572ZM139.396 45.9365L133.549 47.2856C133.712 47.9915 134.001 48.662 134.403 49.2647L139.396 45.9365ZM143.018 88.2539L137.285 86.4839C136.661 88.5038 137.146 90.7029 138.562 92.2727C139.978 93.8424 142.116 94.5512 144.189 94.1383L143.018 88.2539ZM144.381 95.4189L149.104 99.1195L149.104 99.1194L144.381 95.4189ZM143.918 95.9785L139.374 92.0607C137.72 93.9793 137.449 96.7301 138.697 98.9345L143.918 95.9785ZM143.999 96.121L138.774 99.0706C140.121 101.457 142.915 102.628 145.561 101.914L143.999 96.121ZM144.463 96.0576L147.923 91.1558C146.911 90.4412 145.702 90.0576 144.463 90.0576V96.0576ZM155.243 123.934L149.28 123.271C149.203 123.96 149.247 124.658 149.408 125.332L155.243 123.934ZM141.648 175.464L143.546 181.156L143.546 181.156L141.648 175.464ZM62.2413 174.338L60.8611 180.177L60.8611 180.177L62.2413 174.338ZM51.1026 112.519L56.906 114.043C57.5683 111.519 56.5242 108.857 54.3231 107.457L51.1026 112.519ZM43.6573 78.0371L49.4777 79.4941C49.7549 78.3866 49.7104 77.2229 49.3494 76.1397L43.6573 78.0371ZM49.8516 55.5107L46.91 50.2812L46.9099 50.2813L49.8516 55.5107ZM60.959 53.2314L59.4692 59.0435C62.2876 59.7659 65.2182 58.3622 66.4217 55.7132L60.959 53.2314ZM66.1836 43.6835L71.2716 46.8635C71.8675 45.9102 72.1835 44.8085 72.1836 43.6843L66.1836 43.6835ZM75.1944 21.1572L74.2822 15.2269L74.282 15.2269L75.1944 21.1572ZM93.2159 35.7998L88.251 39.1688C89.5563 41.0924 91.8554 42.0889 94.1517 41.7263L93.2159 35.7998ZM111.801 35.7998L116.683 39.2872C118.006 37.4357 120.868 33.6758 123.954 30.653C125.514 29.1242 126.903 28.0132 127.991 27.3941C129.261 26.672 129.073 27.1967 128.098 26.9043L129.821 21.1572L131.545 15.41C127.754 14.2733 124.257 15.7133 122.06 16.9625C119.682 18.3146 117.445 20.2307 115.556 22.0809C111.744 25.816 108.412 30.2217 106.918 32.3123L111.801 35.7998ZM129.821 21.1572L128.097 26.9041C127.215 26.6396 127.413 26.2085 128.226 27.6538C128.926 28.8978 129.637 30.7497 130.327 33.1151C131.754 38.0085 132.578 43.0767 133.549 47.2856L139.396 45.9365L145.242 44.5873C144.524 41.4752 143.376 34.9984 141.847 29.7549C141.058 27.0517 140.044 24.1871 138.685 21.7705C137.439 19.5552 135.243 16.5195 131.545 15.4102L129.821 21.1572ZM139.396 45.9365L134.403 49.2647C142.463 61.3545 140.03 77.592 137.285 86.4839L143.018 88.2539L148.751 90.0238C151.748 80.3146 155.594 59.4169 144.388 42.6083L139.396 45.9365ZM143.018 88.2539L144.189 94.1383C143.944 94.1871 143.698 94.1964 143.363 94.1095C143.035 94.0246 142.051 93.6787 141.323 92.533C140.516 91.2636 140.732 90.1466 140.778 89.9809C140.794 89.9248 140.635 90.4708 139.658 91.7184L144.381 95.4189L149.104 99.1194C150.586 97.2273 151.768 95.2519 152.34 93.1938C152.943 91.0261 152.932 88.4266 151.449 86.0949C150.046 83.8871 147.938 82.8994 146.376 82.4941C144.806 82.0868 143.213 82.0972 141.846 82.3694L143.018 88.2539ZM144.381 95.4189L139.658 91.7183C139.589 91.8067 139.498 91.9161 139.374 92.0607L143.918 95.9785L148.462 99.8962C148.659 99.668 148.88 99.4056 149.104 99.1195L144.381 95.4189ZM143.918 95.9785L138.697 98.9345C138.778 99.0778 138.721 98.9773 138.774 99.0706L143.999 96.121L149.224 93.1715C149.204 93.1354 149.184 93.1017 149.171 93.0782C149.156 93.0516 149.147 93.0367 149.139 93.0225L143.918 95.9785ZM143.999 96.121L145.561 101.914C145.245 101.999 144.874 102.058 144.463 102.058V96.0576V90.0576C143.745 90.0576 143.066 90.1585 142.437 90.3279L143.999 96.121ZM144.463 96.0576L141.003 100.959C144.31 103.294 146.58 106.073 147.944 109.469C149.331 112.918 149.934 117.384 149.28 123.271L155.243 123.934L161.207 124.596C162.021 117.263 161.378 110.715 159.079 104.994C156.759 99.2204 152.904 94.6715 147.923 91.1558L144.463 96.0576ZM155.243 123.934L149.408 125.332C152.593 138.62 151.693 149.504 149.102 157.211C146.41 165.222 142.271 168.932 139.751 169.772L141.648 175.464L143.546 181.156C151.114 178.633 157.186 170.825 160.477 161.034C163.869 150.941 164.722 137.741 161.078 122.535L155.243 123.934ZM141.648 175.464L139.751 169.772C133.888 171.726 122.525 173.266 108.462 173.336C94.5464 173.404 78.5587 172.029 63.6214 168.499L62.2413 174.338L60.8611 180.177C76.8982 183.967 93.8561 185.408 108.521 185.336C123.04 185.264 135.893 183.707 143.546 181.156L141.648 175.464ZM62.2413 174.338L63.6214 168.499C59.8884 167.616 57.4227 165.613 55.6688 162.67C53.8014 159.537 52.656 155.156 52.2769 149.689C51.5169 138.729 53.9474 125.314 56.906 114.043L51.1026 112.519L45.2992 110.996C42.2411 122.647 39.4084 137.581 40.3056 150.519C40.7552 157.002 42.1685 163.458 45.3608 168.814C48.6666 174.36 53.7616 178.499 60.8611 180.177L62.2413 174.338ZM51.1026 112.519L54.3231 107.457C50.1431 104.798 48.3071 99.3536 48.0985 92.5914C47.8986 86.112 49.2819 80.276 49.4777 79.4941L43.6573 78.0371L37.8369 76.58C37.5395 77.7677 35.854 84.8523 36.1042 92.9615C36.3457 100.788 38.4789 111.6 47.882 117.582L51.1026 112.519ZM43.6573 78.0371L49.3494 76.1397C48.1064 72.4107 47.7131 69.1793 48.2073 66.6632C48.6423 64.4482 49.8157 62.4151 52.7933 60.7401L49.8516 55.5107L46.9099 50.2813C40.8775 53.6748 37.5458 58.6812 36.4323 64.3504C35.3779 69.7186 36.3924 75.2162 37.9652 79.9344L43.6573 78.0371ZM49.8516 55.5107L52.7932 60.7401C56.59 58.6045 58.8079 58.874 59.4692 59.0435L60.959 53.2314L62.4488 47.4193C58.3196 46.3609 52.942 46.8883 46.91 50.2812L49.8516 55.5107ZM60.959 53.2314L66.4217 55.7132C67.7342 52.8243 69.3485 49.9405 71.2716 46.8635L66.1836 43.6835L61.0957 40.5035C58.9937 43.8666 57.0946 47.2317 55.4964 50.7495L60.959 53.2314ZM66.1836 43.6835L72.1836 43.6843C72.1836 43.7516 72.1891 43.481 72.2485 42.7908C72.3016 42.1737 72.387 41.3465 72.5123 40.3805C72.7649 38.4332 73.1668 36.0234 73.7601 33.682C74.3704 31.273 75.1012 29.2713 75.8782 27.9418C76.7504 26.4494 76.9732 26.9541 76.1067 27.0874L75.1944 21.1572L74.282 15.2269C69.7552 15.9234 67.0215 19.314 65.5179 21.8866C63.9192 24.6221 62.8548 27.8644 62.1276 30.7348C60.6779 36.4567 60.1838 42.3018 60.1836 43.6828L66.1836 43.6835ZM75.1944 21.1572L76.1066 27.0874C75.7011 27.1498 75.9399 26.9566 77.1051 27.5925C78.1793 28.1788 79.4986 29.1779 80.9626 30.5489C83.8808 33.2819 86.6422 36.7978 88.251 39.1688L93.2159 35.7998L98.1807 32.4307C96.2229 29.5455 92.9019 25.2897 89.1653 21.7902C87.3019 20.045 85.1506 18.3127 82.854 17.0592C80.6484 15.8554 77.6161 14.7141 74.2822 15.2269L75.1944 21.1572ZM93.2159 35.7998L94.1517 41.7263C104.501 40.0922 106.357 41.7998 111.801 41.7998V35.7998V29.7998C110.487 29.7998 103.329 28.1285 92.2801 29.8732L93.2159 35.7998Z" fill="white" mask="url(#path-1-outside-1_1062_25575)"/>
<path d="M75.1943 21.1573C81.0512 20.2562 89.6488 30.5433 93.2155 35.7995C103.915 34.1101 108.422 35.7995 111.801 35.7995C114.616 31.8574 124.19 19.4678 129.822 21.1573C135.453 22.8468 137.706 38.6154 139.396 45.9365C150.659 62.8313 144.464 85.3578 141.648 92.1158C169.131 137.169 155.164 170.959 141.648 175.464C128.132 179.969 93.2159 181.659 62.2415 174.338C31.267 167.016 53.794 101.126 57.7363 92.1158C53.7942 69.0261 57.7363 57.1997 66.1837 43.6838C66.1837 41.9943 67.8732 22.2836 75.1943 21.1573Z" fill="#4B9AE8"/>
<path d="M100.344 133.79C83.6748 133.79 71.6231 114.642 69.9336 100C121.181 112.953 136.387 98.3106 142.018 96.6211C127.939 124.216 121.181 133.79 100.344 133.79Z" fill="#91C7FD"/>
<path d="M83.1235 70.2431C87.8138 70.2431 91.6161 66.4408 91.6161 61.7504C91.6161 57.0601 87.8138 53.2578 83.1235 53.2578C78.4331 53.2578 74.6309 57.0601 74.6309 61.7504C74.6309 66.4408 78.4331 70.2431 83.1235 70.2431Z" fill="white"/>
<path d="M83.1245 66.2772C85.6245 66.2772 87.6513 64.2505 87.6513 61.7504C87.6513 59.2504 85.6245 57.2236 83.1245 57.2236C80.6244 57.2236 78.5977 59.2504 78.5977 61.7504C78.5977 64.2505 80.6244 66.2772 83.1245 66.2772Z" fill="#040000"/>
<path d="M123.672 70.2431C128.363 70.2431 132.165 66.4408 132.165 61.7504C132.165 57.0601 128.363 53.2578 123.672 53.2578C118.982 53.2578 115.18 57.0601 115.18 61.7504C115.18 66.4408 118.982 70.2431 123.672 70.2431Z" fill="white"/>
<path d="M123.671 66.2772C126.171 66.2772 128.198 64.2505 128.198 61.7504C128.198 59.2504 126.171 57.2236 123.671 57.2236C121.171 57.2236 119.145 59.2504 119.145 61.7504C119.145 64.2505 121.171 66.2772 123.671 66.2772Z" fill="#040000"/>
<path d="M75.7566 27.352C73.0534 28.0764 72.0022 38.9171 71.8145 44.2469C75.1934 41.9943 83.0777 38.6153 88.7093 37.489C87.0198 35.2363 79.1356 26.4466 75.7566 27.352Z" fill="#FFB9D5"/>
<path d="M128.132 27.352C130.835 28.0764 131.886 38.9171 132.074 44.2469C128.695 41.9943 120.811 38.6153 115.179 37.489C116.869 35.2363 124.753 26.4466 128.132 27.352Z" fill="#FFB9D5"/>
<path d="M102.011 41.698C96.9421 41.698 93.5632 36.0633 93 35.5001C100.321 33.8106 108.058 34.3738 112 35.5001C111.437 36.6265 107.079 41.698 102.011 41.698Z" fill="#7AB9F8"/>
<path d="M91.5254 78.0366C92.2542 79.5384 94.5863 82.5419 98.0846 82.5419C101.583 82.5419 103.429 79.5384 103.915 78.0366C104.887 79.5384 107.559 82.5419 110.474 82.5419C113.389 82.5419 115.576 79.5384 116.305 78.0366" stroke="#27639F" stroke-width="1.78887" stroke-linecap="round" stroke-linejoin="round"/>
<path d="M110.054 70.6113C111.843 74.1891 107.032 78.6613 103.793 78.6613C100.553 78.6612 96.9332 73.2946 99.3209 69.7169C101.111 67.0341 108.405 67.3131 110.054 70.6113Z" fill="#EAC00F"/>
<path d="M105.741 99.9487C122.811 99.9487 137.075 92.5883 142.073 88.6251C143.606 87.4927 150.148 88.0589 144.381 95.4192C138.614 102.78 121.899 109.574 105.164 109.574C89.0157 109.574 69.983 102.78 68.2529 98.2501C66.8688 94.6266 69.5986 92.9658 71.1365 92.5883C75.558 95.2305 88.6696 99.9487 105.741 99.9487Z" fill="#B73333"/>
<path d="M102.246 100.563C107.555 100.563 112.057 104.009 113.644 108.785C114.331 108.747 114.987 109.409 115.144 110.326C115.301 111.237 114.907 112.075 114.255 112.274C114.257 112.375 114.259 112.476 114.259 112.577C114.258 119.211 108.88 124.589 102.246 124.59C95.6115 124.59 90.2326 119.211 90.2323 112.577C90.2323 112.474 90.2327 112.371 90.2353 112.269C89.5931 112.061 89.2075 111.23 89.3622 110.326C89.5181 109.416 90.1663 108.756 90.8466 108.783C92.435 104.008 96.9372 100.563 102.246 100.563Z" fill="#FCD105"/>
<path d="M102.246 119.695V123.255" stroke="#D77603" stroke-width="1.3348" stroke-linecap="round"/>
<path d="M112.256 108.572C108.029 106.347 97.8038 105.349 91.7891 108.572" stroke="#D77603" stroke-width="1.3348" stroke-linecap="round"/>
<path d="M113.59 112.131C108.918 110.352 97.9204 108.908 91.1211 112.131" stroke="#D77603" stroke-width="1.3348" stroke-linecap="round"/>
<circle cx="102.245" cy="116.136" r="4.0044" fill="#D77603"/>
<path d="M80.8263 138.295C82.5158 139.985 92.0896 149.558 88.1475 163.074M72.3789 163.074C79.7 161.197 94.7928 161.385 96.5949 177.153" stroke="#27639F" stroke-width="1.12633" stroke-linecap="round" stroke-linejoin="round"/>
<path d="M125.316 138.295C123.627 139.985 114.053 149.558 117.995 163.074M133.764 163.074C126.443 161.197 111.35 161.385 109.548 177.153" stroke="#27639F" stroke-width="1.12633" stroke-linecap="round" stroke-linejoin="round"/>
<path d="M49.8521 55.5102C57.0606 51.4555 61.8662 53.0699 63.368 54.3839C73.5041 61.1419 75.0064 90.2725 79.1357 105.632C78.3848 111.451 76.3199 118.359 58.2987 115.205C35.7722 111.263 43.0933 80.2894 43.6573 78.0368C40.8415 69.5893 40.8415 60.5787 49.8521 55.5102Z" fill="#428AD1"/>
<path d="M47.5988 67.8997C46.8479 69.4014 45.684 73.306 47.0356 76.9103" stroke="#27639F" stroke-width="1.12633" stroke-linecap="round" stroke-linejoin="round"/>
<path d="M54.3573 67.8997C53.7942 68.4628 53.231 74.6576 54.3573 76.3471M61.6793 67.8997C61.4916 69.7769 61.3414 73.9818 62.2425 75.7839" stroke="#27639F" stroke-width="1.12633" stroke-linecap="round" stroke-linejoin="round"/>
<path d="M73.2734 169.245C73.6948 170.255 74.3283 172.928 73.4912 175.538" stroke="#27639F" stroke-width="1.12633" stroke-linecap="round" stroke-linejoin="round"/>
<path d="M80.6807 169.19C81.2335 170.599 82.0346 173.942 80.817 176.04M87.5305 169.054C88.6134 170.73 90.3469 174.702 88.6183 177.181" stroke="#27639F" stroke-width="1.12633" stroke-linecap="round" stroke-linejoin="round"/>
<path d="M130.947 169.245C130.526 170.256 129.892 172.928 130.729 175.538" stroke="#27639F" stroke-width="1.12633" stroke-linecap="round" stroke-linejoin="round"/>
<path d="M123.538 169.191C122.985 170.6 122.184 173.942 123.402 176.04M116.688 169.054C115.605 170.731 113.872 174.703 115.6 177.182" stroke="#27639F" stroke-width="1.12633" stroke-linecap="round" stroke-linejoin="round"/>
<path d="M118.123 128.721C132.764 119.711 139.394 96.0579 144.463 96.0579C154.037 102.816 157.839 113.516 154.166 130.411C150.493 147.306 131.076 156.175 122.628 155.753C111.365 155.19 109.969 133.739 118.123 128.721Z" fill="#428AD1"/>
<path d="M121.373 136.605C120.435 137.732 118.107 140.097 116.305 140.548" stroke="#27639F" stroke-width="1.12633" stroke-linecap="round" stroke-linejoin="round"/>
<path d="M124.19 142.8C123.064 144.114 120.361 146.968 118.559 147.869M129.822 146.742C128.883 148.244 126.443 151.36 124.19 151.811" stroke="#27639F" stroke-width="1.12633" stroke-linecap="round" stroke-linejoin="round"/>
</svg>
