<svg width="200" height="200" viewBox="0 0 200 200" fill="none" xmlns="http://www.w3.org/2000/svg">
<mask id="path-1-outside-1_761_1815" maskUnits="userSpaceOnUse" x="30" y="24.0001" width="140" height="153" fill="black">
<rect fill="white" x="30" y="24.0001" width="140" height="153"/>
<path d="M86.3564 30.0049C98.3019 30.3499 110.007 33.064 120.605 37.9464C125.39 40.1503 129.892 42.7723 134.052 45.7618C134.108 45.8022 134.164 45.8433 134.221 45.8839C134.372 45.9929 134.523 46.101 134.673 46.211C143.25 52.4817 150.302 60.3009 155.294 69.2198C160.737 78.9447 163.497 89.5659 163.479 100.245C163.497 106.244 162.65 112.24 160.938 118.083C157.731 129.047 151.58 139.165 143.008 147.582C134.435 155.999 123.693 162.466 111.692 166.435C99.6919 170.404 86.7858 171.758 74.0674 170.383C61.3487 169.008 49.192 164.943 38.6279 158.534C38.0351 158.188 37.57 157.697 37.291 157.119C37.0817 156.686 36.9839 156.219 37.002 155.752V155.551C37.0074 155.399 37.0255 155.247 37.0566 155.096C37.1812 154.493 37.5068 153.936 37.9922 153.495C38.4778 153.055 39.1018 152.75 39.7842 152.622C45.9302 151.458 51.886 149.74 57.5283 147.478C65.3658 144.258 72.5996 139.992 78.9746 134.831C80.276 133.745 81.5382 132.615 82.7559 131.44C82.7731 131.469 82.7887 131.499 82.8057 131.528C85.7241 128.846 88.4283 125.96 90.8867 122.887C90.9417 122.821 97.6667 114.74 100.961 110.232C97.5004 108.909 93.7349 105.275 94.0127 102.341C94.3468 98.8137 100.614 95.2643 104.418 95.584C104.809 95.617 105.191 95.6748 105.56 95.7559C105.674 94.6663 105.743 93.6975 105.77 92.9278C105.899 89.1997 105.31 71.678 101.67 61.7921C98.0292 51.9058 91.844 42.9005 83.6016 35.4825C83.4702 35.3679 83.3495 35.245 83.2402 35.1153C82.8954 34.7217 82.6578 34.262 82.5518 33.7706C82.4148 33.1356 82.5022 32.4792 82.8018 31.8887C83.1014 31.2982 83.5996 30.8013 84.2295 30.4649C84.7825 30.1696 85.4142 30.0104 86.0586 30.001C86.1576 29.9989 86.2571 29.9999 86.3564 30.0049Z"/>
</mask>
<path d="M86.3564 30.0049C98.3019 30.3499 110.007 33.064 120.605 37.9464C125.39 40.1503 129.892 42.7723 134.052 45.7618C134.108 45.8022 134.164 45.8433 134.221 45.8839C134.372 45.9929 134.523 46.101 134.673 46.211C143.25 52.4817 150.302 60.3009 155.294 69.2198C160.737 78.9447 163.497 89.5659 163.479 100.245C163.497 106.244 162.65 112.24 160.938 118.083C157.731 129.047 151.58 139.165 143.008 147.582C134.435 155.999 123.693 162.466 111.692 166.435C99.6919 170.404 86.7858 171.758 74.0674 170.383C61.3487 169.008 49.192 164.943 38.6279 158.534C38.0351 158.188 37.57 157.697 37.291 157.119C37.0817 156.686 36.9839 156.219 37.002 155.752V155.551C37.0074 155.399 37.0255 155.247 37.0566 155.096C37.1812 154.493 37.5068 153.936 37.9922 153.495C38.4778 153.055 39.1018 152.75 39.7842 152.622C45.9302 151.458 51.886 149.74 57.5283 147.478C65.3658 144.258 72.5996 139.992 78.9746 134.831C80.276 133.745 81.5382 132.615 82.7559 131.44C82.7731 131.469 82.7887 131.499 82.8057 131.528C85.7241 128.846 88.4283 125.96 90.8867 122.887C90.9417 122.821 97.6667 114.74 100.961 110.232C97.5004 108.909 93.7349 105.275 94.0127 102.341C94.3468 98.8137 100.614 95.2643 104.418 95.584C104.809 95.617 105.191 95.6748 105.56 95.7559C105.674 94.6663 105.743 93.6975 105.77 92.9278C105.899 89.1997 105.31 71.678 101.67 61.7921C98.0292 51.9058 91.844 42.9005 83.6016 35.4825C83.4702 35.3679 83.3495 35.245 83.2402 35.1153C82.8954 34.7217 82.6578 34.262 82.5518 33.7706C82.4148 33.1356 82.5022 32.4792 82.8018 31.8887C83.1014 31.2982 83.5996 30.8013 84.2295 30.4649C84.7825 30.1696 85.4142 30.0104 86.0586 30.001C86.1576 29.9989 86.2571 29.9999 86.3564 30.0049Z" fill="#D9D9D9"/>
<path d="M86.3564 30.0049L86.0516 35.9972C86.0955 35.9994 86.1394 36.0012 86.1833 36.0024L86.3564 30.0049ZM120.605 37.9464L123.116 32.4968L123.116 32.4968L120.605 37.9464ZM134.052 45.7618L130.55 50.6341L130.558 50.6395L134.052 45.7618ZM134.221 45.8839L137.735 41.0208L137.728 41.0154L134.221 45.8839ZM134.673 46.211L131.124 51.049L131.132 51.0546L134.673 46.211ZM155.294 69.2198L160.53 66.2896L160.53 66.2896L155.294 69.2198ZM163.479 100.245L157.48 100.235C157.479 100.244 157.479 100.254 157.48 100.263L163.479 100.245ZM160.938 118.083L155.18 116.397L155.18 116.398L160.938 118.083ZM143.008 147.582L147.211 151.863L147.211 151.863L143.008 147.582ZM111.692 166.435L113.576 172.131L113.576 172.131L111.692 166.435ZM74.0674 170.383L73.4224 176.348L73.4224 176.348L74.0674 170.383ZM38.6279 158.534L41.74 153.404C41.7105 153.386 41.6807 153.369 41.6509 153.351L38.6279 158.534ZM37.291 157.119L31.8886 159.73L31.8887 159.73L37.291 157.119ZM37.002 155.752L42.9975 155.983C43.0005 155.906 43.002 155.829 43.002 155.752H37.002ZM37.002 155.551L31.0058 155.336C31.0032 155.408 31.002 155.479 31.002 155.551H37.002ZM37.0566 155.096L31.1805 153.883L31.1804 153.883L37.0566 155.096ZM37.9922 153.495L33.9615 149.051L33.9609 149.051L37.9922 153.495ZM39.7842 152.622L40.8931 158.519L40.9012 158.517L39.7842 152.622ZM57.5283 147.478L59.7613 153.047C59.777 153.04 59.7926 153.034 59.8081 153.028L57.5283 147.478ZM78.9746 134.831L82.7499 139.495C82.7733 139.476 82.7966 139.456 82.8198 139.437L78.9746 134.831ZM82.7559 131.44L87.9222 128.388C86.9884 126.807 85.3819 125.741 83.5622 125.494C81.7425 125.247 79.9099 125.847 78.5887 127.123L82.7559 131.44ZM82.8057 131.528L77.6049 134.52C78.5138 136.1 80.0915 137.181 81.8929 137.459C83.6943 137.736 85.524 137.179 86.8659 135.946L82.8057 131.528ZM90.8867 122.887L86.2756 119.048C86.2506 119.078 86.2259 119.108 86.2015 119.139L90.8867 122.887ZM100.961 110.232L105.805 113.773C106.908 112.263 107.245 110.326 106.715 108.533C106.186 106.74 104.85 105.296 103.104 104.628L100.961 110.232ZM94.0127 102.341L88.0394 101.775L88.0394 101.775L94.0127 102.341ZM104.418 95.584L104.922 89.6052L104.921 89.6051L104.418 95.584ZM105.56 95.7559L104.27 101.616C105.939 101.983 107.685 101.621 109.07 100.622C110.456 99.6221 111.349 98.0792 111.527 96.38L105.56 95.7559ZM105.77 92.9278L111.766 93.1366L111.766 93.1365L105.77 92.9278ZM101.67 61.7921L107.3 59.7186L107.3 59.7186L101.67 61.7921ZM83.6016 35.4825L87.6153 31.0227C87.5924 31.0021 87.5694 30.9817 87.5462 30.9614L83.6016 35.4825ZM83.2402 35.1153L87.8299 31.2507C87.8046 31.2207 87.7791 31.191 87.7532 31.1615L83.2402 35.1153ZM82.5518 33.7706L76.6866 35.0355L76.6867 35.0361L82.5518 33.7706ZM82.8018 31.8887L77.451 29.174L77.451 29.174L82.8018 31.8887ZM84.2295 30.4649L81.4033 25.1722L81.4027 25.1725L84.2295 30.4649ZM86.0586 30.001L86.1459 36.0004C86.1604 36.0002 86.1749 35.9999 86.1894 35.9996L86.0586 30.001ZM86.3564 30.0049L86.1833 36.0024C97.3406 36.3246 108.249 38.86 118.095 43.3959L120.605 37.9464L123.116 32.4968C111.765 27.2679 99.2631 24.3751 86.5296 24.0074L86.3564 30.0049ZM120.605 37.9464L118.095 43.3959C122.536 45.4418 126.706 47.8714 130.55 50.6341L134.052 45.7618L137.553 40.8894C133.078 37.6731 128.243 34.8587 123.116 32.4968L120.605 37.9464ZM134.052 45.7618L130.558 50.6395C130.626 50.6883 130.592 50.6643 130.714 50.7523L134.221 45.8839L137.728 41.0154C137.708 41.0015 137.69 40.9881 137.657 40.9643C137.628 40.9433 137.588 40.9146 137.546 40.8841L134.052 45.7618ZM134.221 45.8839L130.706 50.7469C130.893 50.8817 130.996 50.9552 131.124 51.0489L134.673 46.211L138.222 41.3731C138.05 41.2468 137.85 41.1041 137.735 41.0208L134.221 45.8839ZM134.673 46.211L131.132 51.0546C139.058 56.8494 145.514 64.0302 150.058 72.15L155.294 69.2198L160.53 66.2896C155.091 56.5716 147.442 48.1141 138.214 41.3674L134.673 46.211ZM155.294 69.2198L150.058 72.15C155.009 80.9965 157.495 90.6079 157.48 100.235L163.479 100.245L169.479 100.255C169.499 88.524 166.464 76.8929 160.53 66.2896L155.294 69.2198ZM163.479 100.245L157.48 100.263C157.496 105.683 156.73 111.105 155.18 116.397L160.938 118.083L166.697 119.769C168.569 113.375 169.499 106.805 169.479 100.227L163.479 100.245ZM160.938 118.083L155.18 116.398C152.275 126.326 146.684 135.564 138.804 143.301L143.008 147.582L147.211 151.863C156.476 142.767 163.186 131.767 166.697 119.768L160.938 118.083ZM143.008 147.582L138.804 143.301C130.921 151.041 120.985 157.042 109.808 160.738L111.692 166.435L113.576 172.131C126.402 167.89 137.95 160.957 147.211 151.863L143.008 147.582ZM111.692 166.435L109.808 160.738C98.632 164.434 86.5888 165.702 74.7124 164.418L74.0674 170.383L73.4224 176.348C86.9828 177.814 100.752 176.373 113.576 172.131L111.692 166.435ZM74.0674 170.383L74.7124 164.418C62.8357 163.133 51.526 159.341 41.74 153.404L38.6279 158.534L35.5159 163.664C46.8579 170.545 59.8618 174.882 73.4224 176.348L74.0674 170.383ZM38.6279 158.534L41.6509 153.351C42.0111 153.562 42.4147 153.932 42.6934 154.509L37.291 157.119L31.8887 159.73C32.7253 161.461 34.059 162.815 35.605 163.717L38.6279 158.534ZM37.291 157.119L42.6934 154.509C42.9039 154.944 43.018 155.452 42.9975 155.983L37.002 155.752L31.0064 155.521C30.9498 156.986 31.2595 158.428 31.8886 159.73L37.291 157.119ZM37.002 155.752H43.002V155.551H37.002H31.002V155.752H37.002ZM37.002 155.551L42.9981 155.765C42.9916 155.946 42.97 156.128 42.9329 156.308L37.0566 155.096L31.1804 153.883C31.081 154.365 31.0231 154.851 31.0058 155.336L37.002 155.551ZM37.0566 155.096L42.9328 156.309C42.7832 157.033 42.4156 157.583 42.0234 157.939L37.9922 153.495L33.9609 149.051C32.598 150.288 31.5791 151.952 31.1805 153.883L37.0566 155.096ZM37.9922 153.495L42.0228 157.94C41.6401 158.287 41.2355 158.454 40.8931 158.519L39.7842 152.622L38.6753 146.725C36.968 147.047 35.3156 147.823 33.9615 149.051L37.9922 153.495ZM39.7842 152.622L40.9012 158.517C47.4091 157.284 53.7402 155.461 59.7613 153.047L57.5283 147.478L55.2953 141.909C50.0318 144.019 44.4512 145.631 38.6671 146.727L39.7842 152.622ZM57.5283 147.478L59.8081 153.028C68.1669 149.594 75.9075 145.034 82.7499 139.495L78.9746 134.831L75.1994 130.168C69.2917 134.95 62.5648 138.922 55.2485 141.928L57.5283 147.478ZM78.9746 134.831L82.8198 139.437C84.2268 138.262 85.5969 137.037 86.923 135.756L82.7559 131.44L78.5887 127.123C77.4796 128.193 76.3252 129.227 75.1295 130.225L78.9746 134.831ZM82.7559 131.44L77.5895 134.491C77.5655 134.45 77.5472 134.418 77.5366 134.399C77.5311 134.389 77.527 134.382 77.5247 134.377C77.5225 134.373 77.5213 134.371 77.5222 134.373C77.5226 134.374 77.5231 134.375 77.5244 134.377C77.5254 134.379 77.527 134.382 77.5288 134.385C77.5324 134.391 77.538 134.402 77.5447 134.414C77.5577 134.437 77.5789 134.475 77.6049 134.52L82.8057 131.528L88.0064 128.536C88.024 128.567 88.0368 128.59 88.0416 128.599C88.0443 128.604 88.0491 128.612 88.0396 128.595C88.0338 128.584 88.0188 128.557 88.0005 128.524C87.9816 128.491 87.9548 128.444 87.9222 128.388L82.7559 131.44ZM82.8057 131.528L86.8659 135.946C90.0035 133.062 92.9175 129.953 95.5719 126.635L90.8867 122.887L86.2015 119.139C83.939 121.967 81.4448 124.63 78.7454 127.111L82.8057 131.528ZM90.8867 122.887L95.4978 126.726C95.5134 126.707 102.375 118.466 105.805 113.773L100.961 110.232L96.1167 106.692C94.5666 108.813 92.1461 111.858 90.0472 114.448C89.0099 115.728 88.0717 116.873 87.3896 117.701C87.0487 118.115 86.7723 118.449 86.5799 118.681C86.4837 118.797 86.4086 118.888 86.357 118.95C86.3312 118.981 86.3113 119.005 86.2975 119.021C86.2907 119.03 86.2854 119.036 86.2817 119.041C86.2798 119.043 86.2784 119.045 86.2773 119.046C86.2768 119.046 86.2764 119.047 86.2761 119.047C86.2759 119.047 86.2759 119.048 86.2757 119.048C86.2757 119.048 86.2757 119.048 86.2756 119.048L90.8867 122.887ZM100.961 110.232L103.104 104.628C102.286 104.315 101.236 103.62 100.479 102.806C100.119 102.418 99.9587 102.145 99.9132 102.049C99.8609 101.939 100.047 102.261 99.986 102.906L94.0127 102.341L88.0394 101.775C87.6556 105.83 89.9701 109.125 91.6904 110.976C93.6123 113.043 96.1752 114.826 98.8178 115.837L100.961 110.232ZM94.0127 102.341L99.986 102.907C99.9149 103.657 99.6037 103.89 99.8332 103.618C100.027 103.388 100.433 103.017 101.069 102.623C101.689 102.24 102.368 101.935 102.98 101.749C103.635 101.55 103.949 101.566 103.915 101.563L104.418 95.584L104.921 89.6051C101.278 89.2989 97.466 90.7431 94.7593 92.4162C93.3111 93.3114 91.8498 94.469 90.6558 95.8864C89.4974 97.2615 88.2776 99.2609 88.0394 101.775L94.0127 102.341ZM104.418 95.584L103.914 101.563C104.047 101.574 104.166 101.593 104.27 101.616L105.56 95.7559L106.849 89.8961C106.216 89.7568 105.572 89.66 104.922 89.6052L104.418 95.584ZM105.56 95.7559L111.527 96.38C111.652 95.185 111.733 94.0744 111.766 93.1366L105.77 92.9278L99.7732 92.719C99.7522 93.3207 99.695 94.1476 99.5921 95.1318L105.56 95.7559ZM105.77 92.9278L111.766 93.1365C111.842 90.9384 111.709 85.3527 111.106 79.0936C110.51 72.9089 109.399 65.4185 107.3 59.7186L101.67 61.7921L96.0396 63.8655C97.5811 68.0515 98.5851 74.2649 99.1613 80.2446C99.7303 86.1499 99.8264 91.1891 99.7732 92.7191L105.77 92.9278ZM101.67 61.7921L107.3 59.7186C103.305 48.8687 96.5429 39.0573 87.6153 31.0227L83.6016 35.4825L79.5878 39.9423C87.145 46.7436 92.7537 54.9429 96.0396 63.8655L101.67 61.7921ZM83.6016 35.4825L87.5462 30.9614C87.6428 31.0457 87.7382 31.1418 87.8299 31.2507L83.2402 35.1153L78.6506 38.9799C78.9607 39.3482 79.2976 39.69 79.6569 40.0035L83.6016 35.4825ZM83.2402 35.1153L87.7532 31.1615C88.0348 31.4828 88.2938 31.9349 88.4168 32.5051L82.5518 33.7706L76.6867 35.0361C77.0218 36.5891 77.7561 37.9606 78.7272 39.0691L83.2402 35.1153ZM82.5518 33.7706L88.4169 32.5056C88.5767 33.2466 88.4622 33.993 88.1525 34.6034L82.8018 31.8887L77.451 29.174C76.5422 30.9654 76.2529 33.0247 76.6866 35.0355L82.5518 33.7706ZM82.8018 31.8887L88.1525 34.6034C87.8508 35.198 87.4225 35.5617 87.0563 35.7573L84.2295 30.4649L81.4027 25.1725C79.7767 26.041 78.352 27.3983 77.451 29.174L82.8018 31.8887ZM84.2295 30.4649L87.0557 35.7576C86.7326 35.9301 86.4202 35.9964 86.1459 36.0004L86.0586 30.001L85.9713 24.0017C84.4083 24.0244 82.8325 24.4091 81.4033 25.1722L84.2295 30.4649ZM86.0586 30.001L86.1894 35.9996C86.1608 36.0002 86.1139 36.0004 86.0516 35.9972L86.3564 30.0049L86.6613 24.0127C86.4002 23.9994 86.1544 23.9975 85.9278 24.0025L86.0586 30.001Z" fill="white" mask="url(#path-1-outside-1_761_1815)"/>
<path d="M160.938 118.083C163.933 107.857 164.287 97.1673 161.976 86.8039C159.665 76.4405 154.747 66.6689 147.585 58.212C140.424 49.7551 131.204 42.8294 120.605 37.947C110.007 33.0646 98.3017 30.3506 86.3563 30.0057C85.621 29.9683 84.8902 30.1297 84.2614 30.4686C83.6325 30.8074 83.1355 31.3076 82.8363 31.9024C82.5372 32.4972 82.4502 33.1585 82.587 33.798C82.7238 34.4376 83.0779 35.0252 83.602 35.4825C91.8444 42.9005 98.0289 51.9062 101.67 61.7924C105.31 71.6786 105.899 89.2012 105.77 92.9286C105.64 96.6559 104.585 105.048 101.67 109.243C98.7542 113.439 90.8863 122.887 90.8863 122.887C78.69 138.133 60.4706 148.783 39.824 152.738C39.1311 152.876 38.4995 153.192 38.0079 153.645C37.5163 154.098 37.1862 154.669 37.0588 155.287C36.9313 155.905 37.0122 156.542 37.2912 157.119C37.5702 157.697 38.0351 158.189 38.6281 158.535C49.1921 164.944 61.3484 169.008 74.067 170.383C86.7857 171.758 99.692 170.404 111.693 166.435C123.693 162.466 134.435 155.999 143.007 147.583C151.58 139.166 157.73 129.047 160.938 118.083Z" fill="#4D8DCB"/>
<path d="M115.368 35.7613C106.181 32.2757 96.3324 30.3237 86.3275 30.0056C85.591 29.9684 84.859 30.1287 84.2291 30.4652C83.5992 30.8016 83.1013 31.2982 82.8016 31.8888C82.502 32.4793 82.4149 33.1359 82.5519 33.7709C82.689 34.4059 83.0436 34.9893 83.5686 35.4433C85.7926 37.4525 87.8775 39.5763 89.8124 41.8033C100.234 42.77 110.335 45.5296 119.536 49.9239C128.737 54.3183 136.857 60.2608 143.431 67.4106C150.004 74.5604 154.901 82.7768 157.841 91.5884C160.781 100.4 161.706 109.633 160.563 118.759C160.563 118.282 160.89 117.837 161.035 117.36C165.692 101.224 163.657 84.1641 155.294 69.2201C146.93 54.2761 132.781 42.4188 115.368 35.7613Z" fill="#87BFF2"/>
<path d="M146.68 116.315C146.162 117.873 145.193 119.244 143.897 120.253C142.601 121.263 141.035 121.866 139.397 121.986C137.758 122.107 136.121 121.741 134.691 120.932C133.261 120.124 132.102 118.911 131.36 117.445C130.618 115.979 130.327 114.327 130.523 112.696C130.719 111.065 131.393 109.528 132.461 108.28C133.528 107.031 134.942 106.127 136.523 105.68C138.104 105.234 139.781 105.265 141.344 105.77C142.39 106.108 143.358 106.65 144.193 107.364C145.028 108.078 145.713 108.951 146.209 109.931C146.705 110.911 147.002 111.98 147.083 113.076C147.164 114.171 147.027 115.272 146.68 116.315Z" fill="#8AC1F3"/>
<path d="M82.7556 131.44C71.3996 142.402 56.2742 149.498 39.7841 152.622C39.1017 152.751 38.4781 153.054 37.9924 153.495C37.5068 153.935 37.181 154.493 37.0565 155.096C36.932 155.7 37.0143 156.322 37.2931 156.884C37.5719 157.446 38.0345 157.923 38.6222 158.254C40.8891 159.625 43.2399 160.885 45.664 162.029C59.466 157.016 71.6131 147.208 79.1126 141.545C84.6757 137.306 84.1992 133.884 82.7556 131.44Z" fill="#87BFF2"/>
<path d="M123.431 99.5962C128.639 99.5962 132.861 95.4333 132.861 90.2981C132.861 85.163 128.639 81.0001 123.431 81.0001C118.222 81.0001 114 85.163 114 90.2981C114 95.4333 118.222 99.5962 123.431 99.5962Z" fill="white"/>
<path d="M123.058 95.2734C125.898 95.2734 128.201 93.0045 128.201 90.2056C128.201 87.4068 125.898 85.1379 123.058 85.1379C120.217 85.1379 117.914 87.4068 117.914 90.2056C117.914 93.0045 120.217 95.2734 123.058 95.2734Z" fill="black"/>
<path d="M102.984 110.729C99.1853 110.409 93.6784 105.868 94.0125 102.341C94.3466 98.8135 100.614 95.264 104.418 95.584C108.217 95.904 111.084 98.4726 110.586 103.739C110.087 109.006 106.788 111.054 102.984 110.734L102.984 110.729Z" fill="#F5DB74"/>
</svg>
